<?xml version="1.0" encoding="utf-8"?>
<!-- Generator: Adobe Illustrator 15.0.0, SVG Export Plug-In . SVG Version: 6.00 Build 0)  -->
<!DOCTYPE svg PUBLIC "-//W3C//DTD SVG 1.1//EN" "http://www.w3.org/Graphics/SVG/1.1/DTD/svg11.dtd">
<svg version="1.1" id="Layer_1" xmlns:amcharts="http://amcharts.com/ammap"
	 xmlns="http://www.w3.org/2000/svg" xmlns:xlink="http://www.w3.org/1999/xlink" x="0px" y="0px" width="404.5px" height="811.5px"
	 viewBox="0 0 404.5 811.5" enable-background="new 0 0 404.5 811.5" xml:space="preserve">
<defs>
	
	
		<amcharts:ammap  projection="mercator" leftLongitude="-73.584888" topLatitude="-21.777295" bottomLatitude="-55.053654" rightLongitude="-53.646671">
		</amcharts:ammap>
</defs>
<g>
	<path id="AR-B" fill="#1E3250" stroke="#1E3250" stroke-width="0.5" d="M273.73,261.63l-0.55,0.24l-0.6,1.29v0.99l1.22,0.73
		l2.16-1.19l0,0l2.09,1.83l6.81,2.94l6.49,4.31l2.92,2.39l2.67,3.64l1.19,2.28l-0.13,1.03l-4.46,6.9l-0.21,1.1l0.2,2.94l1.2,2.95
		l1.24,1.86l3.42,3.04l2.17,1.22l2.96-1.42l0.45,0.24l0.85,2.09l0.5,3.86l0.19,6.57l-0.32,1.13l-2.58,3.59l-4.74,8.391l-1.84,2.439
		l-2.64,2.59l-2.79,3.58l-0.86,2.45l-0.17,1.19l0.27,0.819l-0.13,1.38l-0.34,0.641l-1.69,1.649l-3.46,2.471l-6.39,3.54l-2.03,0.88
		l-8.44,2.649l-4.8,2.101l-8.38,1.77l-5.34,1.62l-2.16,0.17l-16.57,2.98l-4.9,0.53l-3.92-0.101l-1.44-0.26l-2.71,0.76l-5.03-0.63
		l-3.72-1l-1.19-0.63l-0.43-1.2l-1.73-1.11l-2.6-0.609l-0.6,0.29l-0.18,0.41l0.52,1.399l1.59,1.74l-1.05,2.85l-0.23,2.07l0.4,2.15
		l2.93,0.609l1.69,0.95l0.87,0.9v0.51l-0.58,0.56l-1.43-0.949l-1.01-1.44l-1.23,0.16l-0.28,0.52l2.32,2.221l1.41,1.75l-0.88,7.699
		l-1.01,0.561l-1.62-0.36l-0.85,1.101l-0.59,2.87l0.07,2.609l-0.25,1.271l-0.31,0.72l-0.97,0.56l-1.2,1.65l1.22,3.68l2.26,2.351
		l0.54,0.02l0.35,1.03l-0.28,0.729l-0.82-0.029l-0.51-0.561l-0.03,1.53l0.21,0.17l1.21-0.79l1.17-0.4l-0.08,0.511l-0.47,0.279
		l-1.72,4.851l-7.35,4.33l-0.81,0.01l0,0l-2.44-3.93l-1.76-1.79l-2.1-1.38l-4.75-0.931l-0.13-32.62l0,0l0.08-97.899l0,0l0.04-13.66
		l9.56,0.06l0,0l20.71-0.11l14.19-16.04l-0.18-0.73l0.33-0.83l1.31-0.38l3.17,0.59l1.93,1.42l1.56-0.34l0.96-1.94l0.18-1.5
		l2.41-3.271l0.22-0.8l-0.43-0.49l0,0l0,0l0,0l1.28,0.79l2.72,2.81l3.98,2.35l1.13,1.33l1.19,0.87l2.24,1.07l1.46-0.67l1.96,1.92
		l3.23,1.27l2.44,0.66l1.24,0.05l5.38,3.5l1.42,1.21l1.06,0.14l1.4-0.77l1.31-0.2l0,0l0.93,0.49l0.21,0.38l0.14,2.95l-1.03,1.66
		l-0.75,0.44l-0.43,0.98L273.73,261.63z M211.72,367.77l-3.04-1.789l-0.64-1.28l0.07-0.561l3.67,1.23l0.55,1.81l-0.07,0.4
		L211.72,367.77z"/>
	<path id="AR-K" fill="#1E3250" stroke="#1E3250" stroke-width="0.5" d="M152.39,121.75l1.62,7.34l0.14,2.92l-0.14,1.49l-1.83,2.39
		l0.03,1.08l0.99,0.43l0.44,0.49l0.18,0.79l0.35,6.49l0.6,4.87l0.8,1.96l2.01,3.61l0,0l-1.52,0.37l0.71,5.94l-3.63,4.12l0,0
		l-9.97-11.94l-1.37-1.95l-0.16-1.96l-0.88-1.47l-5.59-5.189l-4.31-2.33l-0.42-0.77l-0.23-2.36l-1.87-4.29l-0.84-0.99l-7.71-3.32
		l-0.94-0.17l-0.5,0.19l-1.04,1.16l-1.29,0.15l-3.38-0.38l-0.64-0.79l-1.8-1.18l-0.53,0.02l-1.96,2.78l-1.03,0.14l-1.79-0.45
		l-0.9-0.4l-0.85-1.11l-0.49-0.8l-0.34-1.75l-1.52-0.63l-2.18-0.31l-4.14-2.09l-0.82,0.01l-0.6-0.49l-0.04-3.08l0.33-1.16
		l-0.03-0.57l-0.29-0.29l-3.72,0.21l-4.01,0.95l-4.47-0.44l0,0l0.85-2.92l3.08-5.42l0.61-1.73l-0.15-0.78l0.2-0.62l1.08-1.84
		l1.24-0.31l0.79,0.13l0.89,0.58l4.25-1.46l1.6-0.87l0.64-2.23l-2.69-4.37l-1.9-2.26l-0.77-1.59l0.05-2.48l0.3-1.57l2.98-2.91
		L92.18,78l-1.09-2.51l-0.84-2.86l0.49-2.55l1.05-2.94l0.52-0.72l0,0l12.3,2.41l22.36-0.29l0.52,0.46l1.34,3.79l-0.46,2.59
		l-1.53,1.15l-2.95,0.13l-1.1,0.91l-0.24,1.71l0.35,1.4l3.22,4.41l1.97,3.93l1.68,1.73l0.76,0.15l0.27-0.3l1.18-2.63l0.49-0.229
		l2.1,0.02l0,0l-0.14,0.95l-1.04,2.44l0.06,3.02l3.47,0.96l2.81,2.14l0.32,0.79l-0.54,3.92l-4.75,5.92l-0.84,1.98l1.65,0.45
		l2.03,1.65l1.05,4.67l1.68,2.86l0.53,0.09l0.72-0.37l1.2,0.73l0.65,2.56l1.78,2.1l1.1-1.67l2.95-2.23l1.85,1.26L152.39,121.75z"/>
	<path id="AR-H" fill="#1E3250" stroke="#1E3250" stroke-width="0.5" d="M266.72,123.58l-51.68,0.02l0,0l-0.1-47.22l-30.48-0.05l0,0
		l19.28-25.15l-0.1-5.46l0,0l6.32,2.89l1.65,1.11l1.5,0.36l2.1,1.42l0.87,1.5l1.84,0.89l1.79,1.75l3.95,0.65l0.54,0.34l1.05,1.45
		l0.79,1.89l1.03,1.13l4.3,3.47l5.49,2.71l2.01,2.78l2.85,2.97l0.26,1.82l0.76,1.62l2.8,1.28l2.92,1.77l3.02,3.9l0.6,2.35l4.34,0.94
		l0.66,2.64l0.69,0.6l1.35,0.19l1.17-0.4l4.28,1.25l1.91,2.21l3.67,2.77l3.67,3.88l2.03,1.11l0,0l-0.75,0.46l-1.39,1.6l-1.95,2.74
		l-0.89,0.17l-0.44,0.56l-0.03,0.7l0.99,1.13l-0.1,1.38l0,0l-2.52,1.38l-1.96,1.81l0.62,5.26L266.72,123.58z"/>
	<path id="AR-U" fill="#1E3250" stroke="#1E3250" stroke-width="0.5" d="M35.09,533.72l0.73-0.58l-0.44-1.909L35,530.71l-1.88-0.89
		l-0.7-3.11l0.76-4.4l0.68-0.51l1.93-0.42l2.52-1.16l3.05-4.43l-0.55-1.9l-3.06-3.979l-0.92-1.95l-0.61-0.61l-2.87-0.97l-5.9-0.91
		l-0.16-3.439l0.51-0.32l1.74,0.74l2,0.24l1.26-0.94l2.13,0.69l2.94-0.99l2.21,1.34l1.66,0.04l0.94-1.3l-0.11-2.12l0.76-1.811
		l0.82-0.14l0.42-0.45l0.23-0.85l-0.96-2.12l-0.61-0.54l-3.72-0.75l-2.62,0.24l-4.22-0.05l-0.89-0.19l-0.46-0.71l0.19-0.51
		l0.82-0.601l0.06-2.84l-0.44-1.34l0.71-1.97l2.4-3.66l-0.04-0.55l-2.88-3.83l0.01-0.721l1.89-1.13l0.23-0.569l-0.21-1.61
		l-4.23-3.69l0.1-1.649l0.62-1.54l2.82-0.68l0.01-3.011l-1.74-1.069l-2.97-0.28l-0.97-0.42l-0.46-0.39l-1.06-2.051l0.63-3.72
		l-0.16-3.3l-0.51-3.19l1.71-5.43l-1.55-2.04l2.04-3.69l0.43-0.229l0.58,0.12l0.44,1.05l0.55,0.09l2.36-1.109l0.91-0.86l-0.09-1.601
		l-0.51-0.72l0,0l120.03-0.01l1.28,0.26l0,0l1.24,2.48l2.12,1.88l4.95,1.649l1.17-0.27l1.35,0.479l-1.26,1.4l-1.21,2.061l0.1,0.659
		l2.6,0.28l6.13-0.35l1.2-1.311l0.04-1.64l-0.33-0.78l-0.86-0.46l-3.3,0.05l-0.64-0.38l0.58-0.399l2.44-0.48l2.68-1.09l2.56-1.53
		l2.2-0.31l0.33,0.25l1.09,2.85l1.01,1.36l0.54,1.439l0.13,6.92l-0.89,3.681l-1.01,1.26l-0.59,0.23l-6.91,1.56l-0.7-0.39l-2.01-2.4
		l-0.05-0.63l0.94-2.561l-2.47-2.569l-2.15-0.82l-2.98,0.3l-2.1,0.98l-0.79,1.109l-0.77,0.591l-1.96,0.47l-0.45,0.33l-1.18,2.03
		l0.17,0.84l0.36,0.399l3.33,1.16l3.23,2.23l3.86,1.12l1.67-0.631l0.46,0.971l-1.73,1.34l-3.61,1.76l-2.04,0.41l-1.74,0.689
		l-2.35,1.851l-1.88,1.87l-1.79,3.67l-2.22,2.82l-1.3,2.229l-0.17,1.37l0.36,2.76l0.59,1.24l0.46,2.33l0.87-0.29l-0.33,3.84
		l-1.18,0.51l-0.34,1.4l1.14,3.17l-1.62,2.9l-0.88,2.38l-3.79,2.399l-0.77,0.811l-0.9,1.62l-0.55,1.619l0.12,1.36l3.18,1.601
		l-1.34,3.27l-1.4,0.56l-1.11-0.8l-1.68-0.63l-4.88-0.64l-1.28,0.08l-6.07,3.06l-0.89,1.87l-2.15,1.05l-3.04,0.36l-1.69,1.07
		l-0.79,0.71l-3.47,6.29l-2.11,1.81l-0.37,0.6l-1.13,4.54l-2.82,3.45l-0.86,1.86l0,0L35.09,533.72z"/>
	<path id="AR-C" fill="#1E3250" stroke="#1E3250" stroke-width="0.5" d="M275.97,263.69l-2.16,1.19l-1.22-0.73v-0.99l0.59-1.29
		l0.55-0.24l0,0l0.77,0.72l1.05,0.31L275.97,263.69z"/>
	<path id="AR-X" fill="#1E3250" stroke="#1E3250" stroke-width="0.5" d="M153.88,271.78l0.03-21.9l-0.82-17.28l2.25-4.36l2.25-8.11
		l0.15-1.43l-0.73-5.14l-0.53-0.49l-2.05,0.57l-2.52,0.16l-0.97-4.48l-1.1-1.22l-5.91-3.55l-2.24-0.12l0,0l-0.14-17.41l4.43-13.88
		l0.61-0.78l1.58-4.64l4.63-1.32l0.34-0.36l0,0l3.63-4.12l-0.71-5.94l1.52-0.37l0,0l11.08-2.83l4.11,1.27l-0.02,0.66l0.69,0.97
		l3.45,1.81l1.72,0.12l2.2-0.33l1.77,0.39l0.82,0.4l0.85,0.9l0.35,1.07l3.55,0.21l16.96-0.25l3.1,8.06l0,0l-0.96,6.15l-0.77,0.05
		l-0.12,2.31l3.31,2.33l2.89,1.12l-5.16,19.25l-2.04,1.72l0.58,4.14l-0.09,4.63l1.37,1.61l1.33,0.94l0.64,2.32l2.19,2.14l1.44,4.53
		l1.66,2.63l0.16,0.75l-0.49,3.19l-0.88,1.61l-0.85,0.53l-0.72,0.01l-0.74,1.05l-16.64,27.12l0,0l-9.56-0.07l-0.04,13.66l0,0H153.88
		z"/>
	<path id="AR-W" fill="#1E3250" stroke="#1E3250" stroke-width="0.5" d="M252.34,171.84l-0.35-1.37l1.82-5.229l-0.07-0.78
		l-1.31-1.78l-0.26-0.88l1.17-4.61l0.19-4.39l1.74-3.85l2.16-1l3.09-3.21l2.08-8.22l0.47-4.24l-0.2-5.03l0.57-0.79l0.71-0.35
		l1.02,0.09l0.93-0.61l0.62-2.01l0,0l0.71-5.43l-0.62-5.26l1.96-1.81l2.52-1.38l0,0l1.79-0.58l6.33-0.4l6.61,0.48l1.12,0.3
		l2.04,1.31l3.69,0.93l2.11,0.27l1.62,0.83l1.55,0.37l0.8,0.04l2.92-1.48l0.65,0.01l1.59,1.42l1.11,0.32l1.06-0.89l1.19-0.27
		l1.04,0.09l0.83,0.46l0.86,1.46l0.69,0.56l0.96,0.2l1.64-2.36l0.12-1.6l2.25-1.59l1.96-0.12l1.28,0.54l0,0l-0.58,0.42l-0.4,1.78
		l0.18,0.82l1.42,2.43l1.27,2.94l0.49,3.61l1.49,2.65l2.27,1.82l0,0l-0.95,1.12l-1.26,0.44l-0.4,0.38l0.05,0.42l1.57,0.94l0.24,0.68
		l-0.54,1.48l-0.64-0.91l-1.82-0.21l-1.08,0.34l-1.56,2.43l-0.58,1.49l-1,1.34l-1.88,2.1l-1.91,0.99l-0.36,0.43l-0.12,0.71
		l-2.27,4.89l-1.59,0.479l-1.4,0.99l-0.94,1.23l-0.2,1.3l-0.74,1.65l-6.32,7.51l-1.07,1.17l-0.74,0.3l-1.5,0.08l-0.95,0.52
		l-0.7,1.45l-0.12,2.14l-2.92,3.2l-1.22,0.85l-0.98,0.25l-0.39,1.11l-0.03,1.271l-0.68,1.17l-3.87,3.35l-0.13,1.74l0.79,0.93
		l0.72,2.21l0,0l-1.1-0.77l-2.27-2.37l-2.28-4.41l-2.02-2.87l-1.12-0.6l-5.1-1.36l-2.02,0.15l-1.75,0.96l-1.63,0.39l-2.82-0.46
		l-1.82,1.22l-0.41,0.66l-1.62,0.94l-2.85-0.74l-2.08,0.13l-1.07,0.46L252.34,171.84z"/>
	<path id="AR-E" fill="#1E3250" stroke="#1E3250" stroke-width="0.5" d="M240.68,233.76l-0.96-1.37l-3.4-1.79l-2.77-5.53l-0.32-1.21
		l-0.64-3.99l-0.06-2.57l1.19-3.56l-0.54-3.51l1.07-8.92l0.39-0.42l0.69-0.21l2.84-0.33l1.56-1.43l3.66-4.24l2-4.09l0.85-0.61
		l4.52-6.93l2.76-4.89l0.17-1.08l-0.12-3.26l-1.23-1.98l0,0l1.45-0.08l1.07-0.46l2.08-0.13l2.85,0.74l1.62-0.94l0.41-0.66l1.82-1.22
		l2.82,0.46l1.63-0.39l1.75-0.96l2.02-0.15l5.1,1.36l1.12,0.6l2.02,2.87l2.28,4.41l2.27,2.37l1.1,0.77l0,0l0.17,2.84l-2.24,8.15
		l-1.52,3.1l-1.15,0.68l-0.2,0.55l1.62,1.53l0.15,1.51l-1.07,3.59l-0.42,0.5l-1.79,0.61l-0.68,1.13l0.98,2.09l-0.1,1.56l-0.56,1.93
		l0.35,0.84l1.11,1.24l0.08,0.85l-0.08,0.66l-0.88,0.94l-1.13,2.02l-0.22,1.23l1.35,9.05l0.07,2.18l-0.76,0.98l-3.89-0.21
		l-0.41,0.35l-0.02,3.54l-0.52,1.59l-0.94,1.59l-0.44,2.33l-0.28,4.75l0.27,0.76l1.19,1.67l0.47,2.88l-0.14,0.64l0,0l-1.31,0.21
		l-1.4,0.77l-1.06-0.14l-1.42-1.21l-5.37-3.5l-1.25-0.06l-2.44-0.66l-3.23-1.26l-1.96-1.92l-1.46,0.67l-2.24-1.07l-1.19-0.87
		l-1.13-1.32l-3.98-2.35l-2.72-2.81L240.68,233.76z"/>
	<path id="AR-P" fill="#1E3250" stroke="#1E3250" stroke-width="0.5" d="M203.64,45.72l-0.03-32.31l0,0l1.64,1.07l1.74,4.51
		l2.33,2.79l0.64,2.08l1.3,1.23l1.15,0.42l1.77,1.6l0.24,1.23l1.32,1.02l1.4,0.21l2.6,2.38l2.82,1.39l3.33,2.34l1.82,3.99l2.45,0.76
		l4.74,0.88l0.66,1.02l5.39,1.82l2.12,0.07l2.26-0.64l10.27,6.82l2.39,2.65l6.32,3.29l3.3,2.51l2.5,0.81l2.48,0.22l1.51,0.52
		l1.76,2.15l3.09,0.15l2.21,1.17l3.27,1.01l2.14,1.72l0.43,1.23l1.17,1.21l0.74,1.84l1.37,1.07l-0.37,2.18l-3.12,3.71l-1.12,0.76
		l0.09,1.2l-1.72,2.45l0.74,0.86l-2.59,2.13l-0.82,0.3l-1.75,1.76l0.24,1.01l-1.42,3.28l-0.13,2.43l0.88,1.18l-0.24,1.14l-2.44,4.37
		l-0.66,0.25l0,0l-2.03-1.11l-3.67-3.88l-3.67-2.77l-1.91-2.21l-4.28-1.25l-1.17,0.4l-1.35-0.19l-0.69-0.6l-0.66-2.64l-4.34-0.94
		l-0.6-2.35l-3.02-3.9l-2.92-1.77l-2.8-1.28l-0.76-1.62l-0.26-1.82l-2.85-2.97l-2.01-2.78l-5.49-2.71l-4.3-3.47l-1.03-1.13
		l-0.79-1.89l-1.05-1.45l-0.54-0.34l-3.95-0.65l-1.79-1.75L216.08,53l-0.87-1.5l-2.1-1.42l-1.5-0.36l-1.65-1.11L203.64,45.72z"/>
	<path id="AR-Y" fill="#1E3250" stroke="#1E3250" stroke-width="0.5" d="M152.01,6.1l-0.84,2.51l-0.03,1.79l-1.83,3.87l0.09,0.96
		l1.78,7.3l0.87,0.89l2.59,0.23l0.66,1.02l-0.13,1.95l-0.52,1.83l0.19,0.58l1.38,0.63l1.28,2.61l0.1,0.88l1.28,0.54l1.12-0.83
		l1.38-0.31l2.13,1.11l1.47,1.66l1.33-0.8l0.53-0.89l3.44,0.07l0.42,13.2l-0.38,1.38l-2.23,3.13l-1.96,0.38l-2.04,1.34l-0.72,0.72
		l-1.02,1.7l-3.63-3.22l-0.67,0.81l-0.99,2.06l-2.31-0.71l-1.5-1.1l-2.95-0.1l-4.47-1.28l-0.97-0.61l-2.93-4.22l-0.23-0.83
		l0.12-1.12l-0.27-0.51l-2.13-1.6l-0.55-0.14l-0.71,0.35l-0.81-0.96l-0.49-1.69l0.07-1.71l0.67-1.07l-0.16-3.74l-3.18-2.17
		l-2.99-1.01l-0.65,0.23l-0.65,2.67l0.67,2.79l-0.15,2.3l-2.15,6.89l-0.45,0.68l-3-0.5l-3.13-1.44l-3.82-4.37l-1.2-0.38l-2.06-1.71
		l0,0l1.81-6.71l2.72-7.62l-3.31-3.54l1.07-2l2.03-1.66l-0.18-2.16l4.49-1.89l0.68-3.88l0.87-0.61l1.31-0.08l4.91-1.46l0.7-0.78
		L133.3,0l2.63,1l2.75,1.97l2.05,2.68l1.14,0.75L152.01,6.1z"/>
	<path id="AR-L" fill="#1E3250" stroke="#1E3250" stroke-width="0.5" d="M184.64,369.68l-1.04,0.07l-1.1-0.34l-6.78-4.97l-1.9-1.811
		l-3.17-1.82l-1.72-0.829l-3.64-1.2l-1.63-0.08l-4.64-0.86l-4.25-0.32l-2.32,0.051l-1.57,0.51l-2.2,0.3l-0.89-0.67l-2.48-0.69
		l-0.5,0.03l-1.54,0.9l-5.73-1.94l-4.67-0.39l-2.45,0.52l-3.26-0.949l-0.58-2.15l-1.28-1.35l-2.36-1.171l-3.15-1.02l-1.95-1.15
		l-1.09-1.359l-0.63-2.7l-1.44-0.3l-1.93,0.939l-3.39,0.23l-1.84-1.43l-0.78-1.83l-0.71-0.931l-0.98-0.42l-0.8,0.13l-0.78-0.96
		l-0.13-1.59l0.19-0.74l0.97-1.04l1.21-0.67l0.61-1.359l0.04-1.07l-0.3-0.9l-1.31-1.88l-2.04-0.84l-6.12-0.49l0,0l0.03-31.62h-0.85
		l0.1-3.66l30.29,0.03l0,0l27.7,0.05l0.02-22.16l0,0h30.84l0,0L184.64,369.68z"/>
	<path id="AR-F" fill="#1E3250" stroke="#1E3250" stroke-width="0.5" d="M153.14,166.04l-0.34,0.36l-4.63,1.32l-1.58,4.64
		l-0.61,0.78l-4.43,13.88l0.14,17.41l0,0l-1.99,0.42l-1.06-0.13l-1.46-0.68l-1.64,0.28l-2.35,1.01l-2.43,0.19l-3.87-0.4l-1.5-0.68
		l-1.28-0.2l0,0l-0.75-1.85l-1.45-2.47l-1.97-1.42l-1.53-1.54l-1.14-3.7l0.87-5.78l-1.25-0.97l0.86-2.97l-1.72-3.4l-0.45-0.57
		l-1.02-0.48l-2.19-3l-3.41-3.4l-0.43-1.71l-0.64-0.87l-4.98-4l-1.99-1.97l-0.49-1.17l-5.01-4.13l-2.82-1.29l-3.97-1.01l-2.38,0.66
		l-2.85,0.05l-0.64-0.23l-0.17-1.79l1.3-7.19l0.56-0.08l0.29-0.42l0.24-1.31l-0.43-3.53l-3.54-3.57l-0.84-2.87l-3.47-2.88
		l-1.69-0.28l-3.88-1.31l0,0l2.23-1.78l3.29-3.84l0.99-2.64l1.86-0.54l0.69-1.38l0.63-2.62l0,0l4.47,0.44l4.01-0.95l3.72-0.21
		l0.29,0.29l0.03,0.57l-0.33,1.16l0.04,3.08l0.6,0.49l0.82-0.01l4.14,2.09l2.18,0.31l1.52,0.63l0.34,1.75l0.49,0.8l0.85,1.11
		l0.9,0.4l1.79,0.45l1.03-0.14l1.96-2.78l0.53-0.02l1.8,1.18l0.64,0.79l3.38,0.38l1.29-0.15l1.04-1.16l0.5-0.19l0.94,0.17l7.71,3.32
		l0.84,0.99l1.87,4.29l0.23,2.36l0.42,0.77l4.31,2.33l5.59,5.189l0.88,1.47l0.16,1.96l1.37,1.95L153.14,166.04z"/>
	<path id="AR-M" fill="#1E3250" stroke="#1E3250" stroke-width="0.5" d="M57.2,296.92l0.51-1.35l-0.28-4.07l0.66-1.33l0.57-0.49
		l-1.35-3.92l0.26-0.45l0.14-2.2l-0.47-3.34l-2.32-1.49l-0.27-1.21l0.45-0.71l1.62-0.26l1.26-0.64l0.33-0.54l0.06-3.25l2.3-7.36
		l1.5-2.85l1.89-2.88l-0.04-2.5l1.12-0.35l1.77,0.19l1.28-0.95l-1.58-9.93l0.64-4.83l1.71-3.64l-0.52-2.33l-1.79-0.9l-0.45,0.08
		l-0.87,1.18l-0.45,0.06l-1.72-2.57l0.19-2.2l-0.27-0.54l1.42-2.21l0.51-1.57l-0.94-0.47l-1.81-2.04l-0.47-2.81l0.44-2.6l-1.77-4.19
		l0,0l1.49-0.31l3.41,0.22l2.6-0.77l2.96-0.22l0.62-0.53l0.07-1.86l0.55-0.68l2.83-1.36l0.83-0.06l2.64-1.08l1.2-0.87l1.09,0.35
		l1.24,1.8l0.67,0.5l1.58-0.22l1.03,0.25l2.08,1.29l3.52,0.92l1.17-0.12l0.34-0.47l0.25-1.59l0.46-0.34l1.66,0.62l2.26,0.23
		l3.7-0.85l0.96,0.7l0.58,1.3l1.77,1.56l3.03,0.63l1.81-0.15l1.73,0.6l2.1,2.4l0,0l0.53,0.46l0.58,1.53l0.91,3.99l0.92,2.15
		l-0.47,3.31l0.5,0.99l0.28,4.45l-0.2,0.71l0.71,4.57l3.12,6.14l0.71,2.27l0.45,0.65l1.09,0.76l1.63,2.73l0.39,1.65l-0.25,1.65
		l-1.17,1.64l0.22,3.36l1.23,4.71l2.74,4.51l0.93,2.77l0.6,4.2l0.02,5.04l-0.31,3.42l-2.03,10.2l0.34,0.68l0,0l-30.29-0.03
		l-0.1,3.66h0.85l-0.03,31.62l0,0l-1.61-0.3l-2.38-1.1l-5.45-3.05l-1.87,0.38l-2.23-0.63l-0.53-0.48l-0.35-1.61l-0.6-1.09l-3.28-1.5
		l-2.42,0.21l-1.19,0.391l-1.56-0.17l-1.57-0.421l-1.61-1.109l-1.64-2.28l0.51-1.77l-0.16-1.681l-2.11-1.229l-0.76-1.92l-2.22-2.261
		l-1.6-0.619l-1.03-1.7l-0.85-3.15l-0.37-0.14l-1.06,0.37l-0.41-0.52l-0.25-1.64l0.33-0.47l0.09-1.14l-0.29-0.82L57.2,296.92z"/>
	<path id="AR-N" fill="#1E3250" stroke="#1E3250" stroke-width="0.5" d="M319.1,110l1.32,0.01l0.86,1.5l1.58,0.72l0.47-0.1
		l2.38-1.92l0.57-1.75l-0.23-0.83l0.15-0.98l0.46-1.1l2.36-2.55l3.01-1.01l2.2-1.28l1.34-1.41l1.68-0.4l0.62-1.92l0.95-0.66
		l0.62,0.04l2.7-4.62l0.62-2.86l-0.16-0.94l0.48-0.49l0.03-0.54l-0.39-0.6l0.01-3.64l1.02-0.65l-0.35-5.91l0.45-1.5l0.95-0.06
		l1.7,1.25l1.24-1.04l1.28-0.51l2.46,0.13l1.27-1.31l3.96,2.75l1.15,3.35l-0.03,3l2.94,4.86l0.26,1.13l-0.34,1.21l-0.77,1.09
		l0.04,2.95l-0.48,3.73l0.67,3.77l-1.97,4.98l-0.57,0.85l-0.34-0.44l-2.68,0.85l-1.18,1.56l-0.78,0.46l-0.57-0.02l-2.44,2.73
		l-1.41,0.66l-3.11,0.69l-2.83,1.3l-1.55,0.2l-0.33-0.22l-0.05-0.43l-0.38,0.05l-1.54,2.74l-0.18,1.22l-2.05,2.11l-2.86,0.46
		l-2.57,1.34l-0.96,1.05l-0.11,1.07l-1.22,1.24l-3.23,1.11l0,0l-2.27-1.82l-1.49-2.65l-0.49-3.61l-1.27-2.94l-1.42-2.43l-0.18-0.82
		l0.4-1.78L319.1,110z"/>
	<path id="AR-Q" fill="#1E3250" stroke="#1E3250" stroke-width="0.5" d="M34.42,375.32l0.28-0.011l0.75,1.061l0.47,0.22l1.67-0.09
		l0.26-0.43l0.77-3.83l0.85-2.45l0.28-2.1l-0.62-4.671l0.06-1.829l0.45-1.091l1.08-0.88l5.09-2.939l2.35-0.181l1.11-1.17l0.59-2.359
		l0.07-0.74l-0.33-0.79l-1.92-1.63l-0.39-0.82l-0.76-4.32l0.27-3.609l-2.27-5.32l-1.01-3.22l0.07-1.601l0.95-0.869l0.26-2.931
		l-1.05-1.819l-0.53-1.74l0.24-0.76l0.63-0.74l0.64-2.75l-1.33-6.08l2.75-8.13l0.32-0.18l1.16,0.25l4.45-1.62l0.19-0.53l-0.4-1.05
		l0.25-1.65l2.1-2.36l2.2-0.01l0.78-0.63l0,0l0.92,0.77l0.29,0.82l-0.09,1.14l-0.33,0.47l0.25,1.64l0.41,0.52l1.06-0.37l0.37,0.14
		l0.85,3.15l1.03,1.7l1.6,0.619l2.22,2.261l0.76,1.92l2.11,1.229l0.16,1.681l-0.51,1.77l1.64,2.28l1.61,1.109l1.57,0.421l1.56,0.17
		l1.19-0.391l2.42-0.21l3.28,1.5l0.6,1.09l0.35,1.61l0.53,0.48l2.23,0.63l1.87-0.38l5.45,3.05l2.38,1.1l1.61,0.3l0,0l0,0l0,0
		L96.51,361.4l-4.12,2.1l-1.11,0.27L90,364.89l-1.2,2.36l-2.29,1.86l-2.44,4.04l-2.08,1.18l-1.37,0.08l-2.23,1.439l-1.73,2.83
		l-2.15,1.82l-5.22,1.9l-3.39,1.79l-0.77,1.22l-0.42,1.34l0.36,1.33l-0.02,1.72l-1.32,4.03l-2.11,2.86l-3.74,1.18l-2.17-0.55
		l-1.47,0.739l-1.09,1.061l-2.85,0.25l-1.28,0.55l-1.82,1.1l-2.18,1.95l-0.29,1.3l1.06,1.4l0.37,1.71l-0.53,1.29l-1.63,1.9
		l-1.51,0.76l-1.48,0.16l-1.22-0.25l-2.66-1.19l-5.92-0.569l0,0l0.38-1.33l-0.22-1.03l-1.81-4.42l1.65-1.99l0.36-1.01l0.03-1.641
		l1.05-2.909l0.79,0.439l0.37-0.1l0.94-2.11l-0.09-0.89l-0.62-0.42l-0.3,0.55l-1.3-1.34l-0.48-0.971l0.48-2.109l2.25-1.601
		l0.61-2.279l-1.3-5.24l-0.07-2.36L34.42,375.32z"/>
	<path id="AR-R" fill="#1E3250" stroke="#1E3250" stroke-width="0.5" d="M33.01,433.3l-0.51-3.359l-2.29-5.061v-0.689l1.17-1.79
		l-0.32-2.811l-0.57-1.83l0.68-2.76l0.38-4.38l-0.34-1.14l0,0l5.92,0.569l2.66,1.19l1.22,0.25l1.48-0.16l1.51-0.76l1.63-1.9
		l0.53-1.29l-0.37-1.71l-1.06-1.4l0.29-1.3l2.18-1.95l1.82-1.1l1.28-0.55l2.85-0.25l1.09-1.061l1.47-0.739l2.17,0.55l3.74-1.18
		l2.11-2.86l1.32-4.03l0.02-1.72l-0.36-1.33l0.42-1.34l0.77-1.22l3.39-1.79l5.22-1.9l2.15-1.82l1.73-2.83l2.23-1.439l1.37-0.08
		l2.08-1.18l2.44-4.04l2.29-1.86l1.2-2.36l1.28-1.12l1.11-0.27l4.12-2.1l0.08-32.261l0,0l6.12,0.49l2.04,0.84l1.31,1.88l0.3,0.9
		l-0.04,1.07l-0.61,1.359l-1.21,0.67l-0.97,1.04l-0.19,0.74l0.13,1.59l0.78,0.96l0.8-0.13l0.98,0.42l0.71,0.931l0.78,1.83l1.84,1.43
		l3.39-0.23l1.93-0.939l1.44,0.3l0.63,2.7l1.09,1.359l1.95,1.15l3.15,1.02l2.36,1.171l1.28,1.35l0.58,2.15l3.26,0.949l2.45-0.52
		l4.67,0.39l5.73,1.94l1.54-0.9l0.5-0.03l2.48,0.69l0.89,0.67l2.2-0.3l1.57-0.51l2.32-0.051l4.25,0.32l4.64,0.86l1.63,0.08l3.64,1.2
		l1.72,0.829l3.17,1.82l1.9,1.811l6.78,4.97l1.1,0.34l1.04-0.07l0,0l0.13,32.63l4.75,0.931l2.1,1.38l1.75,1.79l2.44,3.93l0,0
		l-5.24,2.55l-12.93,0.271l-1.81-0.851l-1-1.09l-1.15-0.739l-2.82-0.79l-2.71-1.45l-7.68-3.03l-0.99-2.41l-2.39-0.58l-1.34,0.4
		l-2.66,2.87l-0.89,3.5l0.32,2.96l1.73,7.819l1.13,1.271l0.22,0.59l-0.66,4.061l0.61,2l-1.4,3.84l-0.14,0.75l0.31,1.27l0,0
		l-1.28-0.26L33.01,433.3z"/>
	<path id="AR-A" fill="#1E3250" stroke="#1E3250" stroke-width="0.5" d="M184.46,76.33l-9.53-0.14l-4.92-1.62l-4.21,9.25l-1.05,3.75
		l0,0l-3.89,0.09l-1.9-0.25l-1.8,1.14l-0.59,0.14l-6.05-2.19l-0.71-1.78l-0.48-0.1l-1.88,0.96l-4.02-0.94L143.09,85l-0.32,3.73
		l-0.37,0.48l-4.88-0.72l-2.95-0.73l0,0l-2.1-0.02l-0.49,0.229l-1.18,2.63l-0.27,0.3l-0.76-0.15l-1.68-1.73l-1.97-3.93l-3.22-4.41
		l-0.35-1.4l0.24-1.71l1.1-0.91l2.95-0.13l1.53-1.15l0.46-2.59L127.49,69l-0.52-0.46l-22.36,0.29l-12.3-2.41l0,0l1.19-0.19
		l1.17-0.63l-2.62-4.5l-0.87-0.5l-0.41-1.12l0.06-0.62l1.08-2.22l2.13-3.29l0.45-0.28l0.84,0.14l1.19-1.95l16.62-7.44l1.54-5.68l0,0
		l2.06,1.71l1.2,0.38l3.82,4.37l3.13,1.44l3,0.5l0.45-0.68l2.15-6.89l0.15-2.3l-0.67-2.79l0.65-2.67l0.65-0.23l2.99,1.01l3.18,2.17
		l0.16,3.74l-0.67,1.07l-0.07,1.71l0.49,1.69l0.81,0.96l0.71-0.35l0.55,0.14l2.13,1.6l0.27,0.51l-0.12,1.12l0.23,0.83l2.93,4.22
		l0.97,0.61l4.47,1.28l2.95,0.1l1.5,1.1l2.31,0.71l0.99-2.06l0.67-0.81l3.63,3.22l1.02-1.7l0.72-0.72l2.04-1.34l1.96-0.38l2.23-3.13
		l0.38-1.38l-0.42-13.2l-3.44-0.07l-0.53,0.89l-1.33,0.8l-1.47-1.66l-2.13-1.11L160,32.86l-1.12,0.83l-1.28-0.54l-0.1-0.88
		l-1.28-2.61l-1.38-0.63l-0.19-0.58l0.52-1.83l0.13-1.95l-0.66-1.02l-2.59-0.23l-0.87-0.89l-1.78-7.3l-0.09-0.96l1.83-3.87
		l0.03-1.79l0.84-2.51l0,0l3.65-0.08L156,6.35l4.6,1.45l0.58-0.13l1.65,0.73l0.83,0.93l0.37,2.88l1.17,2.06l0.32,1.28l-0.16,1.25
		l1.63,1.81l0.45,2.6l0.39-0.18l0.27-0.55l0.39-3.65l0.49-1.52l0.54-1.07l1.75-2l3.36-7.96l20.36-0.07l0.3,0.38l0.15,1.91l0.49,0.77
		l2.2,1.63l2.22,2.57l2.33,1.68l0.93,0.26l0,0l0.03,32.31l0,0l0.1,5.46L184.46,76.33z"/>
	<path id="AR-Z" fill="#1E3250" stroke="#1E3250" stroke-width="0.5" d="M110.02,613.52l-1.4,1.551l-0.96,2.14l0.44,1.46
		l-1.16,2.021l-2.04,2.369l-0.67,1.57l1.91-0.22l1.3-3.28l0.45-0.21l0.36,0.32l-1.52,7.18l-1.38,9.311l-0.4,1.34l-1.59,1.91
		l-3.36,2.85l-2.52,1.18l-1.32,0.221l-1.05-0.07l-1.68-1.48l-1.49-2.52l-1.56-1.4l-0.25,0.58l-1.56,0.71l-2.92-0.16l-2.04,0.57
		l-0.66,0.58l1.7-0.19l1.17-0.569l3.19,0.27l1.51-0.34l0.58,0.49l0.79,2.109l2.37,1.69l0.09,0.63l-0.91,1.13l-4.11,1.55l-3.08,1.591
		l-0.98,0.779l-1.2,1.53l-2.29,3.81l-0.64,2.03l-0.78,4.28l0.04,3.939l-1.87,2.391l-1.57,1.42l-1.31,1.87l1.87-1.99l1.99-1.25
		l0.89,2.28l0.2,3.189l3.05,10.04l0.2,1.03l-0.31,0.96l-0.8-0.28l-0.73,0.13l-1.38,1.23l-1.36-0.47l-1.64-1.051l-1.41-0.039
		l-1.92,0.579l-2.34,1.391l4.02-0.931l2.36,0.511l1.41,0.72l3-0.5l0.43,0.21l1.22,2.23l2.37,5.79l1.89,3.609l1.66,2.641l1.49,1.76
		l1.92,3.3l0.45,1.29l-0.69,1.33l-0.38,0.16l0.11-1.45l-2.53-0.69l-4.59-0.76l-2.94-2.17l-4.39-1.85l-4.13,0.01l-9.72-4.33
		l-34.64-0.021l-0.89-4.13l-3.19-3.35l-1.32-0.811l-1.46-0.47l-2.02-5.31l0.96-0.84l0.69-2.48l-0.04-2.54l1.13-2.12l-0.74-0.97
		l-1.11-0.7l-0.44-0.6l-0.35-1.471l1.11-2.119l0.94-0.11l0.3-0.57l0.42-4.47l-0.69-1.54l-0.98-1.28l-0.07-0.699l0.81-2.24
		l-1.39-1.101l-2.19-0.319l-0.93,0.31l-0.8,1.3l-0.95,0.351l-0.58-0.23l-1.19-1.229h-0.53l-2.53,1.33l-1.41,1.779l-1.24,0.91
		l-1.03,0.311l-0.89-0.391l-0.33-0.55l-0.95-4.03l-0.88-7.649l-0.99-2.23l-3.45-2.859l-0.25-0.801l0.21-0.909l0.92-1.57l0.07-0.851
		l-1.52-1.71l0.45-2.47l1.5-1.729l-1.25-5.19L0,628.92l2.13-6.37l5.95-0.2l0.9-1.02l-1.47-0.41l-0.17-0.85l1.81-4.25l1.28-1.91
		l0.43-0.55l1.21-0.66l1.9-0.24l1.01-0.49l3.05-2.84l0.63-1.31v-1.25l-0.39-3.931l-0.55-2.55l0.15-0.57l0.7-0.71l2.37-1.13
		l2.43-1.569l-0.15-4.271l-0.39-3.03l-1.54-1.89l-0.78-0.189l-1.18-1.08l-0.36-1.23l1.43-4.1l2.29-4.49l0.39-2.42l-0.93-0.73
		l0.17-0.75l0.66-0.64l1.04-0.4l1.12,0.2l0.64-0.2l1.41-1.55l1.16-2.01l2.43-1.19l0.27-0.37l0.28-1.22l-0.18-0.88l-2.06-2.79
		l0.67-5.77l0.4-0.431l1.87-0.37l2.31-2.189l0.36-1.32l-0.07-3l-0.99-2.83l-0.39-4.8l-0.37-0.67l-1.23-0.53l-1.21-1.35l2.46-0.84
		l2.19-3.061l0,0l73.55,0.021l0,0l-0.61,1.85l-0.05,1.53l0.04,1.229l0.82,3.87l0.72,2.54l0.56,1.05l2.98,4.271l4.32,3.5l5.09,6.1
		l1.98,1.4l1.23,0.22l2.45-0.12l2.46,0.41l0.34,0.45l2.58,0.41l1.97-0.061l0.84-0.449l1.17-0.19l1.72,0.91l2.16,2.479l0.77,3.61
		l-0.41,5.49l-0.54,2.01l-1.54,3.86l-0.32,0.29l-2.06-0.24l-0.51,0.149l-1.52,1.471l-2.09,0.609l-0.26,0.54l0.57-0.439l1.54-0.221
		l2.71-1.369l0.37,0.04l0.95,0.63l2.1,3.319l-0.02,0.88l-0.7,0.19l-1.54-0.72l-0.98,0.43l0.38,2.37l-0.32,1.16l-1.87,0.21
		l-4.86,4.96l-2.38,3.11l-1.5,0.27l-2.08,0.88l-2.92,3.54l-2.03,0.53l-2.73,1.43l-0.65,0.771l-2.17,4.189l-1.24,0.57l-1.66,1.38
		L110.02,613.52z"/>
	<path id="AR-G" fill="#1E3250" stroke="#1E3250" stroke-width="0.5" d="M152.39,121.75l1.76-0.45l1.26-2.2l-1.15-2.84l0.06-3.44
		l2.24-2.76l0.93-0.24l1.32-2.83l2.67-7.76l0.68-0.04l0.77-2.42l1.65-0.03l-0.53-4.85l0.8-2.71l-0.1-1.61l0,0l1.05-3.75l4.21-9.25
		l4.92,1.62l9.53,0.14l0,0l30.48,0.05l0.1,47.22l0,0l-6.83,44.46l0,0l-3.1-8.06l-16.96,0.25l-3.55-0.21l-0.35-1.07l-0.85-0.9
		l-0.82-0.4l-1.77-0.39l-2.2,0.33l-1.72-0.12l-3.45-1.81l-0.69-0.97l0.02-0.66l-4.11-1.27l-11.08,2.83l0,0l-2.01-3.61l-0.8-1.96
		l-0.6-4.87l-0.35-6.49l-0.18-0.79l-0.44-0.49l-0.99-0.43l-0.03-1.08l1.83-2.39l0.14-1.49l-0.14-2.92L152.39,121.75z"/>
	<path id="AR-S" fill="#1E3250" stroke="#1E3250" stroke-width="0.5" d="M240.68,233.76l0.43,0.49l-0.22,0.8l-2.4,3.28l-0.19,1.49
		l-0.95,1.94l-1.56,0.34l-1.93-1.42l-3.17-0.59l-1.31,0.38l-0.33,0.83l0.18,0.73l-14.2,16.04l-20.71,0.12l0,0l16.64-27.12l0.74-1.05
		l0.72-0.01l0.85-0.53l0.88-1.61l0.49-3.19l-0.16-0.75l-1.66-2.63l-1.44-4.53l-2.19-2.14l-0.64-2.32l-1.33-0.94l-1.37-1.61
		l0.09-4.63l-0.58-4.14l2.04-1.72l5.16-19.25l-2.89-1.12l-3.31-2.33l0.12-2.31l0.77-0.05l0.96-6.15l0,0l6.83-44.46l0,0l51.68-0.02
		l0,0l-0.62,2.01l-0.93,0.61l-1.02-0.09l-0.71,0.35l-0.57,0.79l0.2,5.03l-0.47,4.24l-2.08,8.22l-3.09,3.21l-2.16,1l-1.74,3.85
		l-0.19,4.39l-1.17,4.61l0.26,0.88l1.31,1.78l0.07,0.78l-1.82,5.229l0.35,1.37l0,0l1.23,1.98l0.12,3.26l-0.17,1.08l-2.76,4.89
		l-4.52,6.93l-0.85,0.61l-2,4.09l-3.66,4.24l-1.56,1.43l-2.84,0.33l-0.69,0.21l-0.39,0.42l-1.07,8.92l0.54,3.51l-1.19,3.56
		l0.06,2.57l0.64,3.99l0.32,1.21l2.77,5.53l3.4,1.79L240.68,233.76z"/>
	<path id="AR-J" fill="#1E3250" stroke="#1E3250" stroke-width="0.5" d="M60.46,213.46l-1.25-0.55l-0.64-4.2l0.76-0.83l0.76-0.12
		l0.59-1.64l-0.1-0.57l-1.2-1.19l-1.95-0.07l-0.86-0.99l-2.31-5.69l0.48-5.1l0.71-3.44l1.26-1.36l0.38,0.4l1.24-0.43l1.21-1.34
		l0.07-0.71l-0.66-0.82l-0.07-0.53l0.28-2.24l0.85-3.07l1.04-2.49l1.41-2.51l1.49-0.93h0.97l1.08-0.47l0.72-0.99l1.22-2.81
		l0.04-0.97l-1.73-3l0.31-1.7l-0.12-4.11l-0.88-0.87l0.05-2.54l-1.25-3.75v-1.73l2.31-3.14l1.15-0.13l0.82-0.76l0.07-1.63l1.19-4.51
		l-0.42-1.61l0.01-1.02l0.81-1.62l0.58-0.31l0.25-3.58l0,0l3.88,1.31l1.69,0.28l3.47,2.88l0.84,2.87l3.54,3.57l0.43,3.53l-0.24,1.31
		l-0.29,0.42l-0.56,0.08l-1.3,7.19l0.17,1.79l0.64,0.23l2.85-0.05l2.38-0.66l3.97,1.01l2.82,1.29l5.01,4.13l0.49,1.17l1.99,1.97
		l4.98,4l0.64,0.87l0.43,1.71l3.41,3.4l2.19,3l1.02,0.48l0.45,0.57l1.72,3.4l-0.86,2.97l1.25,0.97l-0.87,5.78l1.14,3.7l1.53,1.54
		l1.97,1.42l1.45,2.47l0.75,1.85l0,0l-4.36,0.31l-6.13-0.87l-1.1,0.17l-0.32,0.66l-0.17,3.47l0.2,5.92l0.46,1.45l0,0l-2.1-2.4
		l-1.73-0.6l-1.81,0.15l-3.03-0.63l-1.77-1.56l-0.58-1.3l-0.96-0.7l-3.7,0.85l-2.26-0.23l-1.66-0.62l-0.46,0.34l-0.25,1.59
		l-0.34,0.47l-1.17,0.12l-3.52-0.92l-2.08-1.29l-1.03-0.25l-1.58,0.22l-0.67-0.5l-1.24-1.8l-1.09-0.35l-1.2,0.87l-2.64,1.08
		l-0.83,0.06l-2.83,1.36l-0.55,0.68l-0.07,1.86l-0.62,0.53l-2.96,0.22l-2.6,0.77l-3.41-0.22L60.46,213.46z"/>
	<path id="AR-D" fill="#1E3250" stroke="#1E3250" stroke-width="0.5" d="M112.69,215.35l-0.46-1.45l-0.2-5.92l0.17-3.47l0.32-0.66
		l1.1-0.17l6.13,0.87l4.36-0.31l0,0l1.28,0.2l1.5,0.68l3.87,0.4l2.43-0.19l2.35-1.01l1.64-0.28l1.46,0.68l1.06,0.13l1.99-0.42l0,0
		l2.24,0.12l5.91,3.55l1.1,1.22l0.97,4.48l2.52-0.16l2.05-0.57l0.53,0.49l0.73,5.14l-0.15,1.43l-2.25,8.11l-2.25,4.36l0.82,17.28
		l-0.03,21.9l0,0l-0.02,22.16l-27.7-0.05l0,0l-0.34-0.68l2.03-10.2l0.31-3.42l-0.02-5.04l-0.6-4.2l-0.93-2.77l-2.74-4.51l-1.23-4.71
		l-0.22-3.36l1.17-1.64l0.25-1.65l-0.39-1.65l-1.63-2.73l-1.09-0.76l-0.45-0.65l-0.71-2.27l-3.12-6.14l-0.71-4.57l0.2-0.71
		l-0.28-4.45l-0.5-0.99l0.47-3.31l-0.92-2.15l-0.91-3.99l-0.58-1.53L112.69,215.35z"/>
	<path id="AR-V" fill="#1E3250" stroke="#1E3250" stroke-width="0.5" d="M99.91,785.57l-1.56-0.681l-1.69-0.27l-1.15,0.33
		l-0.43,0.55l-3.3,0.35l-0.71-0.26l-1.48-1.87l0.33-65.569l3.02,5.109l2.15,2.4l0.68,1.18l0.59,1.67l0.68,3.55l0.01,0.36l-0.29-0.03
		l-0.93-3.41l-0.65-0.29l-0.74,0.29l-3.17,3.681l-0.43,1.859l0.43,1.25l0.83,1.04l1.7,1.011l2.19,0.1l1.5-0.47l0.68,0.27l1.28,2.601
		l0.9,4.34l0.99,2.109l3.35,3.58l3.95,3.721l-0.02,1.6l0.41,1.07l5.37,4.689l4.95,3.55l5.03,3l3.03,4l5.58,3.91l7.86,3.73
		l1.84,0.439l7.4-1.189l1.42,0.02l1.43,0.601l-1.78,5.02l-2.03,3.59l-0.47,0.09l-0.36-0.17l-0.09-0.359l-1.52-0.351l-2.12,0.92
		l-1.88-0.189l-0.38-0.601l-0.73-0.329l-2.19-0.11l-0.86,0.2l-1.34,1.76l-1.71,0.8l-1.49,0.271l-3.43-0.07l-1.28,2.06l-1.91-0.22
		l-1.46-0.47l-2.97-2.65l-3.89-1.16l-8.65-0.979l-4.08,0.3l-5.18-0.81L99.91,785.57z M161.28,787.45l0.16-1.2l-0.61-0.68
		l-0.86-0.141l-0.09-0.35l0.27-0.78l0.87-0.93l0.45-0.061l1.26,0.771l3.98-1.61l0.74-0.63l3.06,0.47l2.63-0.329l2.08-0.58l1.55,0.21
		l0.16,0.26l-0.99,1.74l-1.56,0.87L174,783.8l-0.64-0.38l-2.25,1.26l-2.21,0.69l-0.14-1.09l-1.11-0.55l-1.75,1.6l-2.79,0.88
		l-1.13,1.06L161.28,787.45z M89.59,784.23l0.92,1.76l0.5,0.439l-0.87,0.521l-0.67-0.09L89.59,784.23z"/>
	<path id="AR-T" fill="#1E3250" stroke="#1E3250" stroke-width="0.5" d="M152.39,121.75l-1.28,0.23l-1.85-1.26l-2.95,2.23l-1.1,1.67
		l-1.78-2.1l-0.65-2.56l-1.2-0.73l-0.72,0.37l-0.53-0.09l-1.68-2.86l-1.05-4.67l-2.03-1.65l-1.65-0.45l0.84-1.98l4.75-5.92
		l0.54-3.92l-0.32-0.79l-2.81-2.14l-3.47-0.96l-0.06-3.02l1.04-2.44l0.14-0.95l0,0l2.95,0.73l4.88,0.72l0.37-0.48l0.32-3.73
		l0.34-0.36l4.02,0.94l1.88-0.96l0.48,0.1l0.71,1.78l6.05,2.19l0.59-0.14l1.8-1.14l1.9,0.25l3.89-0.09l0,0l0.1,1.61l-0.8,2.71
		l0.53,4.85l-1.65,0.03l-0.77,2.42l-0.68,0.04l-2.67,7.76l-1.32,2.83l-0.93,0.24l-2.24,2.76l-0.06,3.44l1.15,2.84l-1.26,2.2
		L152.39,121.75z"/>
</g>
</svg>
