<?xml version="1.0" encoding="utf-8"?>
<!-- Generator: Adobe Illustrator 15.0.0, SVG Export Plug-In . SVG Version: 6.00 Build 0)  -->
<!DOCTYPE svg PUBLIC "-//W3C//DTD SVG 1.1//EN" "http://www.w3.org/Graphics/SVG/1.1/DTD/svg11.dtd">
<svg version="1.1" id="Layer_1" xmlns:amcharts="http://amcharts.com/ammap"
	 xmlns="http://www.w3.org/2000/svg" xmlns:xlink="http://www.w3.org/1999/xlink" x="0px" y="0px" width="527.5px" height="809.5px"
	 viewBox="0 0 527.5 809.5" enable-background="new 0 0 527.5 809.5" xml:space="preserve">
<defs>
	
	
		<amcharts:ammap  projection="mercator" leftLongitude="-89.224282" topLatitude="18.497391" bottomLatitude="15.892503" rightLongitude="-87.491060">
		</amcharts:ammap>
</defs>
<g>
	<path id="BZ-BZ" fill="#1E3250" stroke="#1E3250" stroke-width="0.5" d="M386.45,403.44l0.81,1.439l-0.65,0.68l-2.44-0.25
		L386.45,403.44z M332.71,396.26l0.98,1.601l-0.16,1.77l-1.7,0.51v0.841l-0.49-0.841L332.71,396.26z M492.63,393.73l2.521,0.51
		l-2.03,0.59l-1.05-0.68L492.63,393.73z M476.64,389.25l2.19,2.28l-0.16,1.439l-4.71,4.391l0.25,1.18l-1.06,0.17l2.76-7.85
		l-0.24-1.44L476.64,389.25z M332.95,384.61l-0.08,4.56l-0.97,0.59l-0.08-4.22L332.95,384.61z M387.02,382.92l1.46,0.17l0.16,0.84
		l-0.97,1.44l-1.38,0.34l-0.24-0.17l1.22-1.521L387.02,382.92z M397.98,381.82l1.14,0.68l0.649,2.28l-1.63,1.01l0.33,2.19
		l-1.14,1.689l0.57,2.03l-0.73-1.181l-1.22,1.86l1.14,1.271l0.49,2.79l-2.44,3.29l-1.87,0.51l-0.73-0.51l1.06-0.08l1.3-3.12
		l-1.22-2.87l0.49-2.62l-2.84-0.59l-1.06,1.939l-0.73-0.59l1.3-2.279l-1.46-0.681l0.81-0.93l-1.22-2.2l2.68-1.52l0.65,1.52
		l2.27,0.76l-2.44,0.17l-0.24,1.69l3.25,0.51l1.379-0.76l-0.57-1.94l0.98-1.35h-0.89l0.16-2.03L397.98,381.82z M382.63,378.44
		l-0.65,2.449l-0.89,0.17L382.63,378.44z M393.92,374.38l0.49,1.94l-2.68,1.859L393.92,374.38z M389.94,370.24l1.3,1.27l-0.49,0.76
		L389.94,370.24z M379.87,368.38l-0.32,2.79l1.54,2.7l-0.65,4.99l-0.65-0.851l-0.89,0.25l1.06-2.37l-3-2.529l-0.97,0.42l-1.22,2.87
		l1.7,3.72l0.9,0.68l2.11-0.25l-3.08,2.37l1.46,3.13l-0.08,2.37l0.89,0.08l0.57-1.52l2.76,0.34l0.89-1.601l-0.65,2.28l0.49,2.2
		l-0.49,0.34l-0.73-1.86l-0.89,0.25l-0.65,2.54l4.06,1.61l-1.87,0.17l0.16,1.01l-1.3,0.511l1.14,0.68l-0.08,0.93l2.19,1.101
		l-0.81,1.18l-0.89,0.25l1.06,1.52l0.49,4.141l-1.46-1.601l-1.46-4.05l0.57-1.6l-1.05-0.42l0.89-1.44l-1.14-0.42l0.73-1.18
		l-2.68-0.841L376,390.15l-2.52-12.33l0.41-4.221l0.97-0.59l1.06-3.04V372l0.81,0.76l1.46-2.96L379.87,368.38z M412.91,368.13
		l1.06,2.45l-1.54,0.59l-0.89,2.79l-0.88-0.479l-0.74,2.6l-0.97,1.27l-0.66-0.3l-0.48,0.55l-1.87-0.68l-1.789,3.21l-3.091,0.17
		l-0.97-1.939l-2.03-0.681l0.65-1.689l4.71-0.17l1.95,0.68l1.3-2.37l0.89,0.68l-0.239,1.101l1.14,0.59l1.39-2.31l-0.739-0.73
		l0.979-0.51l-0.16-2.45L412.91,368.13z M334.17,366.78l0.57,4.14l-0.48,1.271l-0.97,0.25l0.97,0.34l-0.24,3.63l-2.35,2.03
		l1.06-5.41l-1.3-4.561L334.17,366.78z M386.61,365.51l0.49,1.181l-1.06-0.511L386.61,365.51z M401.87,365.34l0.899,0.93h5.03
		l-0.569,2.54l-3.57,5.32l-1.7,1.01l-1.38-0.68l-2.03,0.59l1.63-1.18l1.79,0.85l1.141-0.93l-0.57-1.44l-3-1.01l-0.41-1.689
		l1.3-1.181v1.44l1.38,0.76l-0.239-2.2l0.569,0.761l1.3-0.511l-1.619-1.01L401.87,365.34z M398.54,365.17l-0.49,3.13l-1.14-2.96
		L398.54,365.17z M387.26,360.44l-0.81,3.21l-0.41-1.521L387.26,360.44z M391.24,361.88l-0.65-0.17l1.06-1.27L391.24,361.88z
		 M396.51,358.67l0.73,0.85l-1.38,0.681L396.51,358.67z M388.64,353.34l-0.97,2.2l-0.49-1.271L388.64,353.34z M301.05,345.06
		l1.53,1.29l2.04,0.32l0.81,1.18l-0.16,0.341l0.14,0.779l1.25-1.399l1.38-0.73l0.24,0.59l-3,2.03l-1.46-2.62l-3.57-0.68
		L301.05,345.06z M407.47,340.66l0.41,2.54l-1.95-2.11L407.47,340.66z M339.36,337.62l1.54,4.649l-2.68,1.69l-1.22-1.1l-0.41-3.891
		l0.97-1.18L339.36,337.62z M337.5,327.98l1.14,2.96l-2.76,3.13l-0.65-0.851L337.5,327.98z M409.66,326.88l1.3,0.93l2.11-0.59
		l-2.761,4.48l3.41,8.37l-0.649,1.27l3.41,8.37l-0.49,1.521l2.27,4.56l-1.22,4.9l-1.14,0.68l-0.41,3.04l-2.11-0.59l0.65-2.2
		l1.45-0.93l-1.61-2.45l-3.65,1.689l-1.95,4.391l-1.06-0.08l1.06-2.28l-0.159-1.69l2.109-1.859l-1.06-3.3l1.3-6.851l-1.38-1.939
		l3.33-0.931l-0.4-2.029l0.811-1.44l-0.41-1.52l-1.87-1.61l0.41-2.62l-0.811-2.45l-0.729-0.59l-1.7,0.59l-1.54-0.93l2.27-1.61
		l-1.13-1.01L409.66,326.88z M338.39,325.61l-0.73,0.59l0.32,0.85l-1.3,0.08l0.16-0.93L338.39,325.61z M338.47,323.33l-0.89,1.78
		l-1.13-0.08l0.41-1.351L338.47,323.33z M339.04,320.2l-0.73,2.62l-0.81,0.09l0.57-0.851l-1.87,1.271l-0.16-1.01L339.04,320.2z
		 M337.58,319.35l0.57,0.761l-1.62,0.68v-1.01L337.58,319.35z M503.02,318.08l1.95,0.25l1.46,2.12l-1.38,3.81l-1.54,0.09
		l-4.79-2.029l1.141-2.28L503.02,318.08z M320.13,316.14l0.57,0.761l-1.22,0.17l-0.24-0.681L320.13,316.14z M415.84,315.46
		l0.24,0.68l-1.38,0.851L415.84,315.46z M320.37,303.45l0.65,0.76l1.54-0.08l-0.81,0.93l-3.25-0.59L320.37,303.45z M314.93,298.54
		l1.3,3.47l-0.73,1.61l-1.22,0.51l-1.71-2.96l-1.7-1.18l-0.24-1.35L314.93,298.54z M299.51,296.34l0.32,1.18l-0.73,0.25
		L299.51,296.34z M326.54,295.83l1.54,2.12l2.19,0.17l5.03,5.67l3.49,1.44l0.97,1.27l-0.97,2.37l-1.38,0.51l-1.14,4.48l0.98,3.979
		l2.68-3.13l0.08,2.54l-1.14,1.95h-0.65l0.41-1.18l-0.89,0.93l-1.79-0.34l-0.16,1.01l-1.54,0.17l0.16-1.27l2.03-0.171l-0.04-1.289
		l-2.56,0.859l-1.78-2.28l0.08-2.79l2.03-1.35h1.79l-1.7-0.59l-2.11,1.439l-0.81-0.76l3.08-1.78l1.38,1.011l0.74-0.17l-0.66-0.261
		l0.16-0.93l-1.62-0.08l-2.76,1.271l2.19-2.62l1.62-0.511l-0.16-1.01l-4.22,3.05l-0.08-0.93l1.62-1.689l-1.3,0.17l1.62-0.681
		l1.22-1.78l-1.06,0.68l-0.4-0.59l-0.4,0.93l-1.79,1.19l-2.35-1.271l-0.41-1.18l-0.73,0.93l-1.13-2.71l-1.3-0.42l0.49-1.1
		l-0.81,0.68l-1.05-1.44l0.24-2.28l1.22-0.68v1.1l0.98-0.17l-0.65-1.18L326.54,295.83z M304.14,291.01l1.46,0.34l1.22,2.12
		l-0.32,1.52l-1.3,1.1l-2.27-1.1l1.22-2.12l-0.57-1.27L304.14,291.01z M426.06,291.01l1.46,1.27l1.301-0.25l-1.221,0.51v1.69h-0.729
		v-1.69l-1.46-1.18L426.06,291.01z M412.91,290.08l0.729,1.86l2.11,0.42l0.16,1.86l-0.73,0.59l0.9,1.52l2.92-0.42l1.79-1.78
		l1.05,0.25l0.08,1.19l-1.7,0.59l-1.14,2.71l-1.3,0.08l1.38,2.12l3.57,0.76l0.409,1.95l4.221-2.45l-0.08,2.03l-6.41,2.45l0.33,2.2
		l-3.41,1.78l-2.84,4.649l-1.54,3.98v4.14l-2.19,1.78l-2.109,0.42l-0.971,2.54l-1.46,1.19l-4.3-0.08l0.24-2.45l-1.54-2.37
		l2.109-1.18l-0.649-1.521l-1.38,0.511l-0.891,2.199l-0.649-0.76l-1.38,0.17l-0.73,1.181l-1.14-0.421l0.41,2.62l-1.22,1.94
		l-1.14,0.25l0.41-1.1l-1.38-0.171l-0.33-0.84l-2.19,0.08l-2.11,1.521l0.25,2.279l-0.57,1.61l-0.97,0.17l0.98,0.76l-1.87,3.21
		l0.81,2.96h1.63l-2.35,4.061l1.54,3.13l-0.41,1.86l-2.51,4.399l0.49,1.61l-1.3,0.25l-0.89-1.271l-0.73,1.181l0.57,1.52l-1.13-0.34
		l-0.89,3.21l-0.81-0.08l-0.16,3.55l1.22,1.351l-0.97-0.681l-2.35,0.511l0.57,1.609l1.14-0.51l1.14,2.11l1.22,0.08l-0.81,0.93
		l-3.09-0.76l-0.32,0.93l-1.3-0.08l-0.73,1.61l-0.81-3.21l1.7-0.931l-0.65-3.38l1.79-0.76l-0.4-1.01l1.3-0.591l-0.08-3.55
		l0.81,0.681l1.22-0.341l-0.08-2.029l0.98-1.44l-0.89-0.34v-1.6l0.81-0.08l0.65,1.689l1.14-0.51l-0.49-0.76l2.03,0.25l-0.89-2.37
		l-1.71,0.17l-1.22-0.93l1.22,0.09l0.16-0.68l-2.03-0.08l-0.89-3.63l1.14-2.03l-0.73-0.42l-0.08-1.69l3.98-7.189l3.9-4.57l0.98-4.4
		l2.35-1.859l1.71-4.48l2.92-3.21l-0.161-1.01l2.44-2.37l1.38,0.17l1.62-2.96l1.221,0.51l-2.351,2.45l0.57,1.95l-3.811,2.03
		l-1.62,2.88l1.14,1.27l5.52-0.68l2.19-1.01l0.33-1.181l6.09-1.949l0.81-2.54l-1.619-1.61l1.789-3.13l1.461,0.25l2.029-1.94
		l4.061-0.51l-0.41-2.62h-2.51l0.729-5.16l-2.43-0.08l-1.54-1.27l-2.521,4.23l0.49,2.45h-1.62l-2.6,3.64l-2.521,2.121h-1.05
		l3.25-2.201l2.35-3.64l0.9-4.32l3-2.79l-0.16-4.82L412.91,290.08z M305.68,287.2l-0.24,3.13l-1.13,0.42v-1.61L305.68,287.2z
		 M336.69,285.77l0.73,1.27l-0.73,1.27l-0.24-0.08l0.24-1.27l-1.38-0.85L336.69,285.77z M308.11,283.48l0.57,1.86l-1.38,0.85
		l-0.89-0.42l0.81,0.93l-0.65,0.59l-0.73-0.51l0.65-2.54L308.11,283.48z M289.2,282.21l-1.46,2.79h-0.89l0.32-2.03L289.2,282.21z
		 M336.2,281.02l-0.24,0.76l1.3,0.85l-0.73,1.61l-3.08-2.29L336.2,281.02z M299.18,280.6l0.08,1.61l-1.87,1.19l0.04-2.19
		L299.18,280.6z M417.46,280.52l2.11,1.69l-2.58-1.01l-0.58,0.67l-0.73-0.34L417.46,280.52z M296.58,280.43l0.49,0.59l-2.35,0.09
		L296.58,280.43z M425.01,271.88l0.65,1.02l-0.65-0.76l-1.54,0.08L425.01,271.88z M275.56,270.78l0.16,1.52l0.81,0.25l-0.65,0.25
		l0.16,1.35l-1.05,0.17l-0.57-0.59l1.3-0.34l-1.3-1.01l1.14,0.08l-0.73-1.44L275.56,270.78z M276.78,267.99v0.76l1.87-0.17
		l-0.49,1.02l-2.35-0.08L276.78,267.99z M328.57,265.45l2.35,0.17l3.33,2.71l0.49,2.29v0.51l0.24,1.27l-0.85,0.96l-0.85-1.13
		l-1.22-0.17l2.68,2.12v2.12l-0.65,1.44l0.89,0.08l0.25,2.12l-0.97,0.93l-2.27-2.29l1.46-3.81h-1.22v-1.52l-1.54-1.18l0.32-1.44
		l-2.6-3.47l-1.62-0.93L328.57,265.45z M338.8,260.63l0.49,2.03l-3.41,9.31l1.54-10.67L338.8,260.63z M318.83,259.52l1.46,1.78
		l3.49,0.34l1.79,3.39l-2.03,0.09l-0.49-3.3l-1.54,0.17l0.9,0.76l-3.98,0.25L318.83,259.52z M317.2,258.85l0.73,0.68l-1.14,0.85
		l-0.32-1.02L317.2,258.85z M346.19,239.71v6.35l-2.03,4.15l0.81-3.05l-0.33-2.29L346.19,239.71z M328.57,237.68l0.98,0.68
		l0.24,4.74l-1.79-0.6l-3,1.69l-4.79,6.1l-1.87,0.17l-4.38,5.93l2.44,2.03l-2.03-0.17l-0.4-1.02l-3.08,0.17l2.11-2.54l1.73-0.12
		l0.22-0.9l0.74-0.45l-0.17-1.07l-1.38,0.51l-1.7-2.37l-0.32,1.86l-1.46,0.08l-1.14,2.79l0.89,1.69l-1.87-2.03l-0.24,1.44
		l-2.14,1.71l0.49,0.85l-1.14-0.17l0.08,0.93l1.79,0.25l0.73-1.19l1.22,0.17l-0.73-2.03l0.49-0.51l0.73,0.59l-0.08,2.12l-0.97,0.51
		l0.49,1.02l-4.14-0.51l-2.68,1.78l-1.54-0.51v-2.71l-0.57,1.61l-1.95,0.68l0.08-1.27l1.22-0.51l0.98-2.03l1.22-0.08l0.08,2.29
		l0.98,0.68l2.84-1.69l4.55-7.28l2.11-1.19l1.87,1.02l1.46-0.17l0.65-2.88l2.84-0.42l4.63-2.37L328.57,237.68z M352.19,214.29
		l-1.95,8.81l0.73,7.37l-1.95,3.98l-2.52,0.51l0.33-3.47l1.06-0.76l1.3,0.85l1.05-1.61l0.08-2.29l-1.95-1.61l1.87-9.24
		L352.19,214.29z M340.83,193.7l2.84,0.42l-3.25,0.51l1.06,2.71l4.06,0.34l-2.11,0.93l-5.6,0.42l-1.3-1.61l0.33-0.93l0.73,0.59
		l0.08-2.46l1.54,0.25L340.83,193.7z M338.23,191.83l2.03,1.1v0.76l-1.14-0.76l-0.57,0.68l-0.89-0.93L338.23,191.83z M340.99,190.9
		l1.06,1.27l-0.97-0.59l-0.97,0.85l-0.16-0.93L340.99,190.9z M342.13,190.64l0.98,1.53l-1.7-1.25L342.13,190.64z M306.33,167.83
		l-0.65,3.31l-1.46,0.68l-1.54,2.97l-1.54,1.1l-2.92,8.31l-1.87,11.87l-0.81,0.85l0.32,3.14l-1.3,5.93l-1.71,18.39l-2.52,13.81
		l-3.81,7.2l-1.79,1.36l-0.32,3.56l-2.19,0.51l-2.19,2.54l-3.98-2.79l-0.81,0.93l0.08,2.63l1.87-0.34l-1.14,1.19l-2.27-0.59
		l-0.57,0.68l0.33,1.44l2.92-0.17l0.49,0.59l0.89-0.59l-0.57-2.2l2.6,0.85l0.89-1.44l-1.79,6.61l-2.27,0.34l-1.54,1.35l-1.87-0.34
		l-0.49,1.78l0.49,2.46l-1.14,2.46l1.3,16.93l2.35,0.51l0.81,1.78l2.92,2.45l4.55,1.1l2.03,1.69l1.87-0.68l1.22,1.61l-0.97,2.12
		l2.03,2.96l5.52,1.69l3.82-1.95l3.65,2.79l-0.32,2.37l1.54,1.35l0.49,2.12l-1.3-0.42l-0.81,2.62l-1.46-0.42l-2.35,1.78l0.16,2.279
		l-0.65-2.37l-3.41-0.25l-2.84-2.279l-2.27-0.25l-2.11,1.18l-2.52,3.38l-2.68,6.94l-0.81,7.1l-0.89,0.76l0.65,2.03l-2.68,7.78
		l-3.08,15.64l-4.87,16.73l-2.03,12.93l-0.24,31.5l1.22,7.01l2.19,2.44l0,0l-11.85,4.28h-13.86l-7.62-3.601h-49.72l0,0l2.03-2.13
		l0,0l6.39-7.89l-1.46-16.69l2.52-5.26l-4.79-4.36V342.8l-2.77-10.82l-0.69-24.54h-3.46l-2.08,4.33l-1.38,7.221l-2.77,0.72
		l-2.77-2.89l0,0h-3.46l0,0v-15.95l-0.74-0.01l0.83-35.35l4.16-13.01h4.68l14.55-4.88l-0.52-3.79l-4.16-2.17l0.52-28.74l3.12-2.17
		v-4.34l-2.6-3.25v-10.85l2.08-5.43l0.52-6.51l3.12-2.71l5.72-2.17l5.2-1.08l13.4-0.5l-0.1-0.91l12.68-4.02l10.91-1.63l6.42-3.49
		l0,0l26.87,2.43l0,0l25.37,1.11l0,0L306.33,167.83z"/>
	<path id="BZ-CY" fill="#1E3250" stroke="#1E3250" stroke-width="0.5" d="M177.86,316.77l2.77,2.881l2.77-0.721l1.38-7.22l2.08-4.33
		h3.47l0.69,24.54l2.77,10.83v44.71l4.79,4.36l-2.52,5.26l1.47,16.689l-6.39,7.891l0,0l-6.09,6.37l0,0l-0.94,0.84l3.45,6.439
		l4.15,5.04l5.54-0.72v7.92h-4.15l-2.77,4.32l-3.47,9.36l-2.77,4.329l-6.23,2.15l-4.44,2.57l-4.9,14.75l-0.36,19.08l-8.32,0.31
		l-1.38,6.47l0.61,0.771l-13.08,7.859l-2.08,6.48l-3.47,5.03l-2.07,6.47l-6.24,7.91v5.75l0,0l-3.7,3.84l-1.18-0.01l-0.66,6.229
		l-6.93,1.44v3.59l4.85,1.44v3.59l-12.47,12.939l-6.24,2.87l-10.39,7.18l-8.31,2.16l-4.85,3.59l-2.77,5.75l-8.32,3.591l-5.54-0.721
		l-2.77-4.31L58,603.61l-6.24,10.77H32.37l-2.78,4.311l-5.54,3.59l-4.85,10.05l-8.77,0.76l0,0l1.83-28.25l1.01-0.05l3.32-50.6
		l-1.06-0.011l7.27-112.66l-0.17-83.789l0,0l8.35-2.721l2.77-5.77l7.62-4.33l6.24-5.05l8.31,0.72l2.08,2.17h32.56l6.24-2.17
		l3.46-4.33l2.08-4.33l2.77-2.16l3.46,2.88l19.4,0.73l1.39-3.61l1.38-0.72l4.16,3.6h9.7l2.08-2.88l6.93-1.45v-5.05l5.54-2.16
		l4.85-0.72l5.54-3.61l0,0H177.86z"/>
	<path id="BZ-CZL" fill="#1E3250" stroke="#1E3250" stroke-width="0.5" d="M355.11,183.35l1.14,1.87h-1.54L355.11,183.35z
		 M349.92,144.93l-0.89,1.95l0.57-3.14l2.92-6.021L349.92,144.93z M369.16,121.25l0.33,2.8l-1.3,1.11l0.24,1.53l-2.27,0.6l0.41,1.44
		l-3.98-0.68l-1.87,1.36l2.35-3.39l0.81,0.76l0.65-1.44l-1.54-0.85l1.79-0.59l0.49-2.38l1.54,2.46l1.95-0.59L369.16,121.25z
		 M371.76,113.78l0.41,2.38l-1.71,1.78l-1.22-0.25l-0.33-0.93l2.11-0.34l0.24-0.68l-1.3,0.34l1.7-1.19l-0.87-0.3l-1.32,1.32
		l0.24-1.53L371.76,113.78z M376.14,113.53l-0.4,7.13l-1.14,1.27l-1.79,0.34l-0.97,2.21l-2.11,0.42l0.33-1.02l0.76,0.45l0.14-1.22
		l1.71-1.78l-0.49-0.51l-1.38,1.61l0.08-1.1l-0.81,0.42l0.57-2.8h1.54l0.49-1.19l0.98,1.02l1.71-0.25l-0.81-1.02l-0.91,0.54
		l-2.33-0.62l2.19-0.93l0.65-1.95L376.14,113.53z M399.92,89.16l3.33,4.17l-1.38,1.86l2.35,4.08l2.11,10.95l1.79,3.23l-0.33,1.95
		l-1.95,0.08l-6.25,3.57l-1.3,2.55l-5.27,5.35l-2.11,6.96l-1.54,2.29l-0.89,5.01l-3,4.5l-7.87,18.49l-2.11,1.44l-0.41,1.95
		l-5.11,6.87l-0.41,2.12l-4.46,4.75l-1.14,3.82l-1.95,2.29l-3.25,1.87l-2.43-0.42l-4.47,1.61l-1.79-1.1l-1.46-0.34l-2.11,1.1
		l0.25-0.93l-0.81-0.51l0.81-1.44l1.54-0.51l2.19,1.53l2.11-1.27l0.33-1.27l0.49,0.93l1.46-0.68l0.41,0.85l1.3-1.44l0.08,2.04
		l2.27,0.17l0.89-2.03l-2.76-2.12l1.05-3.14l1.54,0.09l-0.97,0.85l0.57,0.59l-1.14,0.17l1.62,0.51v-0.76l1.54-0.17l0.08-1.1
		l1.22,0.08l1.46-1.61l1.14-0.08l-0.65-0.85l1.46-1.53l1.22,0.93l1.46-1.27l0.16-0.59l-0.89,0.34l0.65-0.76l-0.24-1.95l0.73-0.17
		l0.41-3.14l1.79-1.27l-0.33-1.02l0.65-0.51l-0.25-1.87h-1.22l0.16-0.93l-4.46,8.48l-1.54,1.19l-0.65-0.34l0.73-1.19l-0.97,0.76
		l-0.81,4.5l-2.35,0.68l-0.24,1.44l-0.4-2.54l2.68-4.58l-1.87,1.1l-1.13,2.2l-0.32-1.61l2.6-3.48l-0.49-1.1l1.38-4.16l3-3.48
		l1.79-6.28l1.22-1.19l0.08,0.93l1.14-0.34l-0.89-0.85l0.81-0.08l-0.41-2.04l1.3-3.14l0.89-0.25l0.08-1.95h0.98l0.08-1.27l1.95-1.44
		l3.09-4.41l1.3-0.17l-0.32-1.78l-0.89,0.68l1.05-2.38l-1.05-2.46l-1.95,3.31l0.81-2.46l-0.73-0.17l-0.81,2.29l-2.03,1.61l0.16,1.7
		l0.57-1.1l0.41,0.42l-1.14,1.7l-1.3,0.17l0.81-3.73l-0.81-4.84l1.54-1.78l0.32,1.95l2.76,0.17l3.98-5.77l1.46,1.44l2.44-0.59
		l0.65-1.1l-0.24-0.76l-0.73,0.17l0.49-0.93l-2.19,0.26v-1.1l-1.62,1.19l0.25-3.14l2.84-1.27l1.46-3.9l1.87-1.53l1.38-4.24
		l-0.57-2.63l0.97-3.48l1.7,0.26l1.14-4.33l3.65-3.74l0.57-2.04l1.141-0.25l-0.24-1.19l-0.73,0.34l0.73-2.12l0.89-0.17l-0.41,2.12
		l2.11-1.02l-0.89-0.25l1.14-1.36L399.92,89.16z M329.22,42.33l1.38,0.85l-0.49,2.55l-0.89-1.19V42.33z M246.01,3.08l8.1,0.24
		l7.67-1.31l2.66,0.69l0.41,1.79l4.3,3.15l0.41,2.3l1.54,2.21l-1.54,2.04l-2.11,1.02l-0.32,1.11l-1.95,0.43l-0.65,3.57l-3.89,4
		l-3,1.87l-2.11,0.34l-7.55,5.27l-2.27,0.34l-4.22,3.91l-0.16,4.17l0.81,2.98l3.16,3.15l4.79-0.93l4.55-3.15l1.54,0.26l4.38-2.29
		l3.9-0.08l0.57,1.11l-6.09,4.59l-1.95,3.49l0.08,1.96l3.41,0.68l0.49-1.021l8.04-2.97l3-2.04l5.93-0.42l5.28-2.38l1.14,1.02
		l3.17-2.12l2.76,2.55l-2.11,1.44l1.06,2.3l8.52-3.4l-2.03,3.23l2.68-0.68l-4.79,2.55l1.95,1.87l3.57-3.23l7.79-0.34l2.6-2.3
		l9.41-5.1l2.19-1.02l4.79,0.17l3.41-2.3l-0.57,5.44l-1.05-0.17l-0.08,0.68l0.37,2.24l0.9,0.77l1.05-0.59l-1.54,12.49l1.06,2.46
		l-1.54,0.09l0.24,1.96l-0.73,1.36l0.89,0.939l0.73-1.87l0.41,1.11l1.3,0.09l1.22,1.53l-2.19-0.51l-0.57,1.19l2.52,1.36v1.53
		l-0.81,0.43l-0.81-0.93l-0.49,1.53l0.73,2.8l-0.41,8.66l1.71,6.03l-3.57,24.03l0.16,3.57l-1.05,2.04l-0.24,3.74l-1.22-0.17
		l-1.22,1.95l-5.28,21.22l-6.09,7.55l-0.89,5.43l1.54,2.04l-1.14,1.36l0.98,0.42l-6.49,4.41l-0.73,1.36l0,0l-25.37-1.11l0,0
		l-2.97-0.27l0,0l-24-22.13l-11.08-12.31l-14.55-9.42l-2.77-5.8l-6.23-20.29l-9.01-6.52l-14.03-5.98l-4.38-3.36l-11.77-0.71l0,0
		l1.04-3.29l1.6-14.92l14.06-16.22l0.04-8.14l5.84-12.83l3.53-12.87l10.84-9.67l2.58-0.94l5.68,1.42l1.58,2.63l1.54,0.59l2.54-0.38
		l11.12-4.75l1.32-0.1L246.01,3.08z"/>
	<path id="BZ-OW" fill="#1E3250" stroke="#1E3250" stroke-width="0.5" d="M180.23,79.43L192,80.14l4.38,3.36l14.04,5.98l9,6.52
		l6.24,20.3l2.77,5.79l14.55,9.42l11.08,12.31l24,22.13l0,0l-23.89-2.16l0,0l-6.43,3.49l-10.91,1.63l-12.68,4.02l0.1,0.91l-13.4,0.5
		l-5.2,1.08l-5.71,2.17l-3.12,2.72l-0.52,6.51l-2.08,5.43v10.85l2.6,3.25v4.34l-3.12,2.17l-0.52,28.74l4.16,2.17l0.52,3.79
		l-14.55,4.88h-4.67l-4.16,13.01l-0.83,35.35l0.74,0.01v15.959l0,0h-4.85l0,0l-5.54,3.61l-4.85,0.72l-5.54,2.16v5.05l-6.93,1.45
		l-2.08,2.88h-9.7l-4.16-3.6l-1.38,0.72l-1.39,3.61l-19.4-0.73l-3.46-2.88l-2.77,2.16l-2.08,4.33l-3.46,4.33l-6.24,2.17H58
		l-2.08-2.17l-8.31-0.72l-6.24,5.05l-7.62,4.33l-2.77,5.77l-8.35,2.721l0,0l-0.3-147.581l0.69-40.37l5.05-6.95l6.45-1.13l3.65-5.33
		l16.04-5.44l3.09-0.17l8.82,7.4l4.19,7.28l0.91,0.29l1.63-1.24l3.7,1.66l4.22-1.42l1.82,0.23l7.3,11.03l12.2,5.77l1.23,2.47
		l8.03,8.4l-0.16-9.55l-1.5-4.09l0.42-4.97l6.37-4.72l3.55-1.23l3.77-6.11l5.2-3.36l0.19-4.2l4.11-5.13l2.6-7.22l4.3-3.98
		l12.15-5.07l2.06-3.61l1.75-8.87l6.19-10.42l3.38-10.87l7.21-11.98l5.59-4L180.23,79.43z"/>
	<path id="BZ-SC" fill="#1E3250" stroke="#1E3250" stroke-width="0.5" d="M252.91,603.65l0.41,2.189l-1.38,0.42l-0.16-2.189
		L252.91,603.65z M275.23,601.79l0.97,1.26l1.14-0.59l-0.08,1.521l-3.41-0.591l-0.41,1.011l-0.97-0.341L275.23,601.79z
		 M295.04,577.72l0.49,1.011l-1.06,1.18v-0.93l-1.54-1.091L295.04,577.72z M259.81,576.96l-0.97,1.94l-0.81-0.341l0.24-1.18
		L259.81,576.96z M299.02,570.23l0.16,0.93l-0.89,0.08L299.02,570.23z M296.75,567.37l0.08,0.51l-0.11,0.97l-0.7-0.13L296.75,567.37
		z M310.14,563.83l0.65,1.52l-0.65-0.25l0.08,0.931l-0.73,0.17L310.14,563.83z M299.59,561.22l0.33,1.101l-0.89-0.08L299.59,561.22z
		 M304.21,558.95l1.22,2.189l-1.95-0.59L304.21,558.95z M302.02,557.18l0.16,1.771l-0.97-1.431L302.02,557.18z M302.02,555.32
		l0.81,0.25l-0.08,1.6l-1.71-1.35L302.02,555.32z M302.51,550.78l0.73,0.51l-0.24,1.43l-1.22-0.59L302.51,550.78z M307.87,549.6
		l0.41,1.69l-0.89,2.27l0.33-3.14l-0.41-0.65L307.87,549.6z M307.22,543.78l0.9,0.76l-0.41,1.18L307.22,543.78z M402.6,543.78
		l-1.54,0.84l-0.399-1.1l0.729-1.011l1.7-0.08L402.6,543.78z M413.16,535.02l0.729,0.841l-1.71,0.17L413.16,535.02z M313.39,517.08
		l0.41,0.84l-0.73,0.51L313.39,517.08z M313.47,513.79l0.16,0.84l0.49-0.59l1.54,0.42l-0.24,0.76l-0.57-0.34l0.24,0.93l-1.3-0.67
		v1.431l-1.38-1.011L313.47,513.79z M314.69,511.09l-1.3,2.021l0.32-1.771L314.69,511.09z M327.19,506.62l1.22,0.34l0.73,2.021
		l-2.27,1.35l0.65-2.19l-0.49-0.59l-0.32,1.601l-0.57-1.261L327.19,506.62z M322.97,492.63l0.41,1.18l-1.14,0.421L322.97,492.63z
		 M329.87,488.92l-0.73,1.35l1.19,3.641l-1.27-0.69l-0.41-3.2L329.87,488.92z M335.15,484.54l-2.03,4.05l-0.32,4.641l-1.95,1.77
		l-0.32-1.94l1.22,0.841l0.78-2.08l-0.46-0.54l0.66-1.78l-0.17-1.76l-0.89,1.1l-0.08-1.18L335.15,484.54z M331.57,465.56l0.81,0.931
		l-1.95,0.51L331.57,465.56z M332.87,463.2l0.32,0.59l-1.38,0.17l-0.49,1.26v-1.18L332.87,463.2z M343.02,461.85l2.84,0.42
		l-3.49,1.181l-1.22-0.59L343.02,461.85z M330.44,459.91v1.01l-1.46,0.68L330.44,459.91z M331.17,457.38l-0.32,1.18l-0.41-0.51
		L331.17,457.38z M350.73,453.24l0.16,2.45l-1.62,1.01l-0.08-3.12L350.73,453.24z M346.83,427.25l2.11,1.6l-0.08,3.551l-3.73,0.08
		l-2.51,1.859l1.87-6.08L346.83,427.25z M272.15,423.1l1.14,1.28l0.81,6.42l2.6,4.561l3.25,1.18l4.3-1.01l1.79,1.35l1.06,9.87
		l1.79,2.78l-0.49,2.109l0.65,4.301l4.95,10.55l-0.16,3.29l-1.95,5.06l-2.6,1.521l-0.24,1.35l-1.79-1.1l-4.06,1.01l-7.06,4.47
		l-0.65,6.24l-2.19,2.28l0.65,4.81l3.98,8.94l2.6,2.439l0.89-0.17l-1.38,1.35v2.11l1.3,2.44l2.44,1.939l-0.57,0.76l1.3,0.591
		l-1.54,0.59l-3.25-1.101l-2.03,0.341l-1.95,4.05l-3.9,0.68l0.08,2.61l-1.54,3.62l-1.14-3.71l-2.43,0.67l-2.35,2.02l0.08,4.8
		l-0.97,0.931l2.03-0.42l1.22-4.471l2.84-1.43l-2.27,1.77l-0.97,3.12l1.54,7.33l2.11,3.62l-0.73,3.2l-1.46,1.43l-1.14,3.37
		l0.89,8.68l-0.97,4.211l-1.62,2.359l-9.26,5.73l-0.81,1.35L254,581.19l-1.87,0.84l-0.97,3.96l1.05,5.3l1.87,4.29l-1.38,1.52
		l-0.57,2.86l-1.87,0.84l1.3,3.28l-2.84,1.68l-0.16-1.68l-1.3,0.51l-0.73-0.92l4.22-5.13l-0.57-1.18l0.57-5.55l-1.14-2.44l1.54-9.6
		l-0.57,0.25l-0.08-0.841l1.3-1.6l0.41,1.18l1.22-0.84l-0.08-5.56l1.87-3.45l3.25-1.01l-0.16-0.761l1.62-1.01l-0.57-1.18l3.73,0.17
		l2.68-2.86l0.49-3.37l-1.62-1.939l-1.62-0.25l-0.89,2.53l-2.6,1.09l-2.84,3.03l0.32,2.689l-1.22,2.271l-0.57,0.17l-0.08-0.84
		l-1.38,0.25l-4.63,5.31l0.89,2.44l-1.14,2.1l0.16,2.95l1.3,1.85l-0.73,1.35l0.33,2.021l-0.89,3.11l-2.6,0.42l-1.7,2.439l0.89,1.01
		l1.79-0.25l1.54,2.86l-1.54,1.771l0.16-1.181l-0.97-1.01l-4.14,1.01l-0.32,0.42l-1.06,0.42l-1.05,2.78l-1.3,0.59l4.3,1.681
		l0.49-0.841l-1.54-0.25l-0.89-2.52l1.54,1.43l1.95-0.76l1.06,0.59l0.16,0.84l-1.71,2.19l-2.51,0.76l0.65,2.86l0,0l-44.94-1.92
		l-0.69-2.87l4.16-2.15l0.69-4.31l-1.39-7.9l-4.16-7.18l-8.31-10.061l2.77-1.149v-6.04l-4.85-6.47l-6.23-3.591l-10.99-2.13
		l-36.12,0.69l0,0v-5.75l6.24-7.91l2.08-6.47l3.46-5.03l2.08-6.47l13.09-7.86l-0.62-0.77l1.39-6.471l8.32-0.31l0.36-19.08
		l4.89-14.75l4.44-2.56l6.24-2.16l2.77-4.32l3.46-9.36l2.77-4.319h4.16v-7.92l-5.54,0.72l-4.16-5.04l-3.44-6.44l0.93-0.84l0,0
		l4.06-4.25l0,0h49.72l7.62,3.601h13.79L272.15,423.1z M334.25,415.01l1.95,1.601l-0.97,2.029l-0.05-2.56l-1.49-0.9L334.25,415.01z
		 M333.2,412.56l0.49,1.351l-0.65,0.68L333.2,412.56z"/>
	<path id="BZ-TOL" fill="#1E3250" stroke="#1E3250" stroke-width="0.5" d="M165.08,706.05l0.24,1.09l-1.14,0.761l-0.33-0.841
		l0.81,0.25L165.08,706.05z M170.6,705.13l0.81,0.59l-2.11-0.08L170.6,705.13z M166.21,704.87l0.57,1.09l-1.3,0.67L166.21,704.87z
		 M150.71,707.56l-1.46,0.841l0.73-0.841l-0.57-0.76l0.81-0.25L150.71,707.56z M164.35,702.86l-0.16,0.84l-0.97,0.08l1.82,0.31
		l-0.44-0.57l0.81-0.25l-0.06,0.891l0.96-0.561l1.14,1.351l0.89-1.431l0.81,1.091l-1.79,0.59l-0.81-0.76h-3.41l-0.32-1.091
		L164.35,702.86z M153.31,702.77l1.01,0.66l-0.68,0.771l0.16,1.51l-1.06-0.08v-1.18l-0.65,0.76l-0.73-1.43L153.31,702.77z
		 M155.25,701.43l0.41,1.09l0.65-0.17l-0.97,1.601l-0.73-0.84L155.25,701.43z M165.32,701.26l3.49,1.601l-2.27,0.67l-0.16-1.431
		l-2.27-0.5L165.32,701.26z M172.71,700.76l0.57,1.09l-1.87,0.591l-0.16-0.67L172.71,700.76z M153.88,700.25l-0.73,1.01l1.63-0.34
		l-1.3,1.6l-0.97-1.51L153.88,700.25z M158.42,698.4v1.77l-1.79-0.33l1.06-0.42l-0.08-0.84l-1.54,0.84l0.49-0.92L158.42,698.4z
		 M172.3,694.88l-0.65,2.351l-0.57-0.591L172.3,694.88z M157.45,693.95l-0.33,0.93l-0.81-0.25L157.45,693.95z M185.94,691.52
		l-0.49,1.261l-1.14-0.08L185.94,691.52z M164.18,691.26l0.41,1.771l-1.14,0.25l1.06,0.34l0.08,1.34l-1.46,0.25l-0.32-0.75
		l1.05-0.59l-0.65-0.17l-1.3,0.76l-0.08,1.26l-1.3,0.42l-0.33-0.84l0.98-0.08l-0.81-0.92l2.76-0.76l-0.57-0.34l0.57-1.681
		L164.18,691.26z M173.28,690.68l0.32,1.261l-0.97-0.25l-1.3,1.51l-0.89-0.34l0.33-1.011L173.28,690.68z M164.92,689.25l1.87,0.67
		l-2.68,0.08L164.92,689.25z M174.74,687.06l0.41,1.091l-1.3,1.18l-0.41-1.26l0.65,0.59l0.55-0.99l-0.79,0.15L174.74,687.06z
		 M175.95,686.56l0.33,1.431l-1.3-0.84L175.95,686.56z M231.97,629.47l0.73,0.931l-0.49,1.43L231.97,629.47z M229.61,629.39
		l1.7,0.25l-0.65,1.851l-1.22-0.67L229.61,629.39z M239.52,615.34l0.33,2.101l-1.38-2.271l3.41-1.85L239.52,615.34z M132.13,551.16
		l36.12-0.69l10.99,2.13l6.24,3.591l4.85,6.47v6.04l-2.77,1.149l8.31,10.061l4.16,7.18l1.39,7.9l-0.69,4.31l-4.16,2.15l0.69,2.87
		l44.94,1.93l0,0h1.06l0.08,1.26l-4.71,0.59l-0.41,4.961l-2.43,1.68l0.24,1.35l-1.3,1.94l0.57,4.04l-0.57,3.279l-2.43-0.08
		l-0.57-1.09l-1.79,0.84v3.53l-3.17-3.2l-1.3,0.08l1.46,0.761l0.98,5.47l-1.79-0.34l0.89,2.1l-1.79,1.35l0.16,1.091l1.87,1.01
		l2.27-2.521l0.89,1.431l-1.87,1.09l-0.97,1.93l-1.38-0.67l-2.6,2.19l-1.05-0.761l0.81,0.091l0.08-1.091l-0.73-2.609l-3.9,2.52
		l-0.16,4.12l-1.46,2.86l0.49,2.609l-1.38,1.181l-2.27,6.56l-5.76,3.95l-4.63,6.22l-4.06,2.101l-0.89,2.27v6.891l-5.93,0.17
		l-3.25,1.34l-2.11,7.729l-1.14,1.261l0.08-1.341l-1.46-2.27l2.27-2.771l-1.06-0.92l-1.22,0.17l-1.22,2.351h-1.54l1.46-1.341
		l0.89-2.439l-0.08-2.6l-2.52,2.439l1.3,2.19l-1.3,1.34l-1.05-1.26l-2.27,0.25l-1.62-3.021l-5.19-4.54l-3.9-0.08l-1.7,1.011
		l-0.81,2.02v1.93l1.3,0.59l0.16,1.931l-2.03,2.77l-1.54-0.17l-1.3-1.34l-2.44,1.26l0.16,0.931l-5.6,0.59l-1.54,1.18l1.71,0.67
		l-0.41,1.01l-8.2-0.76l-0.89,0.67l0.89,1.51l-1.46-0.079l-1.05,2.77l-3.9,1.01l-0.24,4.2l2.03,4.2l-0.57,2.18l1.95,3.021l1.46,0.17
		l-4.38,2.439l-0.08,2.94l-2.03,1.01l0.08,1.34l1.54,1.601l-0.57,1.6l-8.04,3.19l-1.62,1.43l-3.33,0.76l-0.89,1.261l-0.65,4.449
		l-2.19,2.69l-0.73,3.53l-5.84,0.25l-1.46,2.85l-2.19,0.84l-0.49,1.18l-2.43,1.431l-0.57,6.88l-1.06,1.85l-10.79,6.301l-5.76,2.18
		l-2.03,2.939l-1.78,0.25l-0.81,1.011l-1.22,7.3l3.57,11.5l3.01,6.42l-7.98,3.25L80.19,792l-10.28-1.76l-3.65-1.94l-5.55,1.851
		l-1-2.74l-4.08-2.141l-2.5,0.311l-1.54,2.1l-1.94-3.91l-1.25,1.12l0.01,3.94l-1.3-0.72l0.04,1.58l-0.9-0.271l-2.31-2.62l-0.18,2.9
		l-1.14-0.5l-0.08,1.34l-0.82,0.07l-2.01-3.79l-1.31-0.69l-5.3,0.99l0.74,1.729l-1.37,0.28l0.03,1.11l-1.93-0.96l-2.13,0.35
		l-2.1-1.89l-4.7,2.89l-3.03-1.16l-4.97-3.569l-0.82,0.239l-0.59,2.591l-2.24,0.01l-6.7,2.51l-1.49-0.729l-0.3-1.431l-1.02,0.141
		L0,781.15l2.3-22.45L10.43,633.1l0,0l8.77-0.76l4.85-10.05l5.54-3.59l2.77-4.311h19.4L58,603.62l4.85,0.72l2.77,4.311l5.54,0.72
		l8.31-3.59l2.77-5.74l4.85-3.59l8.31-2.15l10.39-7.18l6.24-2.87l12.47-12.93v-3.591l-4.85-1.439v-3.59l6.93-1.44l0.67-6.229
		l1.17,0.01L132.13,551.16z"/>
</g>
</svg>
