<?xml version="1.0" encoding="utf-8"?>
<!-- Generator: Adobe Illustrator 15.0.0, SVG Export Plug-In . SVG Version: 6.00 Build 0)  -->
<!DOCTYPE svg PUBLIC "-//W3C//DTD SVG 1.1//EN" "http://www.w3.org/Graphics/SVG/1.1/DTD/svg11.dtd">
<svg version="1.1" id="Layer_1" xmlns:amcharts="http://amcharts.com/ammap"
	 xmlns="http://www.w3.org/2000/svg" xmlns:xlink="http://www.w3.org/1999/xlink" x="0px" y="0px" width="280.296px"
	 height="305.312px" viewBox="0 0 280.296 305.312" enable-background="new 0 0 280.296 305.312" xml:space="preserve">
<defs>
	
	
		<amcharts:ammap  projection="mercator" leftLongitude="-69.657430" topLatitude="-9.678570" rightLongitude="-57.519879" bottomLatitude="-22.902203">
		</amcharts:ammap>
</defs>
<g>
	<path id="BO-B" fill="#1E3250" stroke="#1E3250" stroke-width="0.5" d="M60.308,128.844l-5.822-5.884l-1.012-0.612l-0.379-2.902
		l-2.928-4.977l-0.408-0.412l-1.52-0.017l-1.145-0.808l-0.429-1.849l0.408-1.999l-0.158-1.012l-1.974-2.003l-0.6-1.849l0.05-2.511
		L44,98.757l0.795-2.199l-0.329-4.256l0.841-4.98l0.596-1.524l0.662-0.312l1.886-2.586l-0.054-0.496l-0.583-0.329l-0.466-2.511
		l0.192-0.633l1.32-1.958l0.92-0.496l2.786-3.498l2.107-1.695l2.415-8.549l-0.325-1.578l0.221-3.381l0.258-0.333l0,0l0.621-0.929
		l-0.283-1.299l0.979-4.697l-1.316-3.198l0.35-3.365l0.271-0.462l2.856-0.92l1.054-0.908l-0.175-1.341l0.475-2.207l0.429-0.654
		l1.424-0.316l3.186,0.034l3.398-2.003l0.57-0.924l-0.05-0.562l4.085-6.367l0.663-2.086l-1.087-0.346l1.608-1.253l1.874,0.25
		l3.552-2.474l2.236-2.586l2.715-1.653l1.507-1.824l1.291-0.212l0,0l-0.138,1.033l-0.833,0.662l0.083,3.086l1.008,2.911l1.558,2.653
		l0.279,2.228l-2.086,3.915l0.237,2.232l1.687,4.672l1.837,0.525l1.124,2.044l-0.837,2.065l0.366,0.858l0.887,0.429l0.654-1.558
		l1.179,1.191l0.954,4.585l0.683,0.878l3.673,0.375l0.387,0.275l1.104,2.315l2.541,1.299l2.124,0.667l0.408,2.653l1.587,1.599
		l1.016,0.579l4.131,0.371l2.873,0.691l0.413,0.408l1.932,0.221l1.204-1.146l1.537-0.72l2.636,0.225l4.21,2.132l1.174,1.787
		l1.903,1.074l1.637,0.038l2.386-1.499l1.391,0.516l0.379,1.874l1.153,1.965l2.049,1.304l2.665,2.261l1.712-0.799l0.891,0.833
		l0.008,0.533l5.477,2.432l2.44-0.104l1.149-0.429l2.103,0.704l0.591,2.52l1.741,1.949l2.699,1.97l0.708,1.82l0.637,0.212
		l4.547-0.891l0,0l-41.872,24.128l-8.021,2.232l0.716,2.586l-0.433,4.802l1.866,4.785l3.994,6.13l1.087,1.075l2.911,1.566
		l2.361,4.276l-0.596,0.354l-23.099-0.945l-3.811-0.521l0,0l-10.59,1.366l-1.861,3.739l0.196,0.812l-1.054,3.181l-0.774,1.221
		l-1.854,0.962l-3.181,0.991l-4.406,1.208l-1.508,0.025l-4.568-1.237l-3.086-2.028l-4.127-4.564l-0.6-0.841l-0.679-1.924
		l-0.966-1.216L60.308,128.844z"/>
	<path id="BO-C" fill="#1E3250" stroke="#1E3250" stroke-width="0.5" d="M63.66,178.828l-1.649-3.748l-2.115-2.811l-3.902-3.085l0,0
		l3.319-1.745l-1.283-6.475l-2.786-4.173l1.653-3.244l2.582-0.229l1.12-0.616l0.425-0.783l0.462-3.019l0.059-0.904l-0.662-1.236
		l-0.629-4.88l-1.961-3.723l-0.687-0.762l-0.104-5.68l1.107-1.57l1.699-1.299l0,0l0,0l0,0l5.068,4.876l0.966,1.216l0.679,1.924
		l0.6,0.841l4.127,4.564l3.086,2.028l4.568,1.237l1.508-0.025l4.406-1.208l3.181-0.991l1.854-0.962l0.774-1.221l1.054-3.181
		l-0.196-0.812l1.861-3.739l10.59-1.366l0,0l-0.483,1.437l0.137,1.828l0.845,3.494l0.433,4.619l-1.262,3.581l-1.799,3.702
		l0.079,1.845l1.766,3.831l7.513,5.06l2.598,3.335l-0.096,1.558l-2.565,0.013l-1.245,0.941l-0.321,1.687l-3.373,4.901l-2.632,2.474
		l-0.167,0.483l0.058,0.741l1.52,1.683l3.252,5.293l1.141,3.644l2.569,1.832l0.241,2.12l-1.07,1.532l0,0l-0.679-1.208l-0.857,0.046
		l-0.804,0.862l-2.078,0.454l-1.541-0.837l-1.366-2.166l-2.432-0.887l-1.387-0.025l-3.127,1.995l-0.737,0.841l0.146,1.162
		l-4.027-2.086l-0.229-1.041l-1.97-2.444l0,0l-2.732-2.128l-4.814-5.48l-3.581-2.232l-1.149,0.258l-2.245-2.778l-1.241-0.171
		l-1.812,0.383l-3.319,2.553L63.66,178.828z"/>
	<path id="BO-H" fill="#1E3250" stroke="#1E3250" stroke-width="0.5" d="M92.818,257.496l-4.464-4.152l-0.612-1.886l0.167-4.106
		l0.649-1.97l0.271-3.277l2.736-7.042l-1.487-5.955l-0.066-1.278l1.037-3.677l1.936-1.17l4.01-0.621l2.961-1.632l2.286-2.24
		l1.095-1.599l-1.391-2.095l-0.583-1.999l0.079-0.966l-0.733-1.787l-1.191-1.032l-1.582-0.133l-1.146,0.554l-2.053-0.092
		l-3.269-1.499l-1.67-1.124l-0.204-0.679l-2.686-3.252l-0.462-1.399l0.862-1.749l-0.183-2.686l1.653-1.604l0.108-0.912l-0.392-0.358
		l-3.464-0.587l-0.517-2.852l-0.85-2.036l0.167-1.716l6.171,1.649l0.483-0.212l0,0l1.97,2.444l0.229,1.041l4.027,2.086l-0.146-1.162
		l0.737-0.841l3.127-1.995l1.387,0.025l2.432,0.887l1.366,2.166l1.541,0.837l2.078-0.454l0.804-0.862l0.857-0.046l0.679,1.208l0,0
		l0.529,0.337l0.054,1.458l0.716,1.803l4.918,5.555l0.883,1.945l0.941,0.179l0.858-0.462l0.392-2.136l0.32-0.375l3.036,0.042
		l-0.574,4.644l0.795,10.752l0.033,4.597l0.641,1.749l0.188,1.583l0.312,7.571l0.35,0.292l3.177,0.271l1.861-1.253l2.699,1.545
		l22.912-0.083l0,0l-1.482,2.024l0.175,9.786l0,0l-36.03-0.062l-1.382-0.979l-0.57-0.8l-2.208-0.591l-0.512,4.889l-0.704,0.767
		l-2.757-0.204l-2.749-1.107l-3.181-3.215l-1.416-0.254l-0.775,1.224l-0.616,2.158l-1.091,0.229l-1.691-1.312l-3.477-1.774
		l-1.724-0.204l-0.321,0.654L92.818,257.496z"/>
	<path id="BO-L" fill="#1E3250" stroke="#1E3250" stroke-width="0.5" d="M60.308,128.844l-1.699,1.299l-1.107,1.57l0.104,5.68
		l0.687,0.762l1.961,3.723l0.629,4.88l0.662,1.236l-0.059,0.904l-0.462,3.019l-0.425,0.783l-1.12,0.616l-2.582,0.229l-1.653,3.244
		l2.786,4.173l1.283,6.475l-3.319,1.745l0,0l-2.54-3.178l-1.403,0.005l-2.619,0.849l-9.479,6.226l0.429,1.966l-0.379,0.704
		l-0.575,0.283l-0.691-0.108l-4.314-3.219l-2.853-1.266l-3.835-0.246l-2.594,0.246l-2.703,1.391l-2.416,2.969l-2.453,1.958
		l-5.364,2.086l0,0l-4.539-1.283l-0.508-1.149l-0.07-2.236l-0.775-1.745l-2.765-2.466l-0.292-5.559l-1.882-1.828L0,163.403
		l0.783-1.583l1.836-1.853l3.036-1.683l1.391-2.765l2.703-3.231l3.773-2.64l-0.608-2.378l0.15-1.624l0.912-1.162l3.306-1.428
		l0.192-0.604l-0.3-0.608l-1.146-0.321l-1.578-1.62l-1.607-0.029l-0.545,0.429l-1.458-0.112l-1.549-1.416l-4.352-11.623l3.207-6.38
		l1.52-1.412l1.112-0.158l0.125-0.579l-3.315-3.207l-1.816-2.478l0.35-3.544l1.137-0.725l1.295-1.716l0.283-2.128l5.276-4.543
		l-0.329-0.908l-0.054-1.878l0.337-0.366l2.699-0.679l-0.854-3.623l-1.607-1.412l-0.821-3.764l-1.02-1.791l1.753-3.04l0.379-1.274
		l-0.254-13.747l1.97-2.311l1.345-0.521l1.507-3.173l1.466-1.787l0,0l0.741-0.054l3.377-1.708l0.858-1.375l0.629-1.886l2.336-1.645
		l0.183-2.377l0.517-0.987l4.614-1.624l0.962-0.583l0.32-0.57l15.704,7.038l6.372,3.202l0,0l-0.258,0.333l-0.221,3.381l0.325,1.578
		l-2.415,8.549l-2.107,1.695l-2.786,3.498l-0.92,0.496l-1.32,1.958l-0.192,0.633l0.466,2.511l0.583,0.329l0.054,0.496l-1.886,2.586
		l-0.662,0.312l-0.596,1.524l-0.841,4.98l0.329,4.256L44,98.757l0.392,3.252l-0.05,2.511l0.6,1.849l1.974,2.003l0.158,1.012
		l-0.408,1.999l0.429,1.849l1.145,0.808l1.52,0.017l0.408,0.412l2.928,4.977l0.379,2.902l1.012,0.612L60.308,128.844z"/>
	<path id="BO-N" fill="#1E3250" stroke="#1E3250" stroke-width="0.5" d="M20.63,60.012l-5.28-10.74L1.845,26.977l3.277-0.283
		l7.059,0.625l4.772,1.041l1.828-0.275l-0.1,2.849l1.387-0.054l2.607-0.67l1.132-0.933l5.077-1.69l3.281-4.685l0.475-1.145
		l0.858-0.612l0.917-0.346l3.186-0.071l1.016,0.179l1.578,1.012l0.821-0.388l0.595-1.586l1.94-2.453l2.794-1.333l2.578-1.753
		l0.071-0.753l2.057-0.246l0.887,0.25l2.232-1.166l3.848-3.756l2.803-2.132l2.12-0.896l0.604-0.908l3.178-0.508l0.887,0.146
		l7.55-2.395l6.967-0.108l2.936,1.366l0.771,0.004l1.125-1.295l0.075-0.691L88.5,0l1.37,0.512l1.578,2.94l-0.729,2.22l0.129,2.053
		l0.558,1.208l0.308,2.478l-0.471,1.503l-1.399,1.403l-0.371,0.82l0,0l-1.291,0.212l-1.507,1.824l-2.715,1.653l-2.236,2.586
		l-3.552,2.474l-1.874-0.25l-1.608,1.253l1.087,0.346l-0.663,2.086l-4.085,6.367l0.05,0.562l-0.57,0.924l-3.398,2.003l-3.186-0.034
		l-1.424,0.316l-0.429,0.654l-0.475,2.207l0.175,1.341l-1.054,0.908l-2.856,0.92l-0.271,0.462l-0.35,3.365l1.316,3.198l-0.979,4.697
		l0.283,1.299l-0.621,0.929l0,0l-6.372-3.202l-15.704-7.038l-0.32,0.57l-0.962,0.583l-4.614,1.624l-0.517,0.987l-0.183,2.377
		l-2.336,1.645l-0.629,1.886l-0.858,1.375l-3.377,1.708L20.63,60.012z"/>
	<path id="BO-O" fill="#1E3250" stroke="#1E3250" stroke-width="0.5" d="M12.206,179.848l5.364-2.086l2.453-1.958l2.416-2.969
		l2.703-1.391l2.594-0.246l3.835,0.246l2.853,1.266l4.314,3.219l0.691,0.108l0.575-0.283l0.379-0.704l-0.429-1.966l9.479-6.226
		l2.619-0.849l1.403-0.005l2.54,3.178l0,0l3.902,3.085l2.115,2.811l1.649,3.748l0,0l-0.304,0.637l-2.137,0.95l-0.208,1.919
		l0.117,0.954l0.404,0.529l1.266,0.517l1.27-0.191l1.637,0.387l-0.184,0.495l-2.985,1.753l-0.279,2.99l0.937,2.12l2.549,2.282
		l2.374,0.912l2.307,0.42l0.583,0.475l1.6,4.438l3.277,4.102l0.071,0.45l-0.362,0.491l-7.971,0.75l-1.674,0.966l-3.79,3.318
		l-21.617,9.212l-17.782-6.143l0,0l2.707-2.944l-1.008-1.432l-1.25-1.099l-1.911-0.825l-2.948-3.099l-2.465-1.703l-1.383-2.465
		l0.691-1.553l-1.42-3.082l-0.504-1.861l0.021-3.856l-1.075-2.007l-0.341-3.606l-1.22-1.703l0.196-0.562l1.203-0.837L12.206,179.848
		z"/>
	<path id="BO-P" fill="#1E3250" stroke="#1E3250" stroke-width="0.5" d="M92.818,257.496l-0.341,2.178l-0.767,0.941l-0.82,2.715
		l2.557,3.511l0.712,3.098l-0.366,0.104l0,0l-11.756,0.346l-1.32-0.87l-2.378-3.111l-3.181-2.282l-3.057-1.153l-1.762,6.671
		l-0.808,0.896l-5.693,1.695l-1.52,0.096l-1.003,0.708l-0.8,4.501l-5.205,2.19l0.208,2.494l-2.349,1.933l-1.241,2.311l-8.308,1.803
		l-4.497-0.524l-1.745-1.133l-0.163-2.611l0.721-3.573l-1.741-5.751l0.212-1.378l-0.458-3.032l-0.596-1l-2.361-2.224l-0.42-4.868
		l-0.704-1.757l-0.995-1.287l-0.055-7.017l-4.943-8.016l-1.716-0.025l-1.141-1.033l-0.104-3.523l0.758-1.028l1.191-0.825l0.108-0.45
		l-1.729-1.408l-2.973-1.391l-1.287-1.807l-0.054-1.125l1.074-0.791l-0.366-2.228l-1.337-2.744l0.158-0.562l2.661-0.725l1.528-0.066
		l1.141-3.048l-0.916-1.832l-2.578-2.024l0.054-0.862l2.407-3.04l0,0l17.782,6.143l21.617-9.212l3.79-3.318l1.674-0.966l7.971-0.75
		l0.362-0.491l-0.071-0.45l-3.277-4.102l-1.6-4.438l-0.583-0.475l-2.307-0.42l-2.374-0.912l-2.549-2.282l-0.937-2.12l0.279-2.99
		l2.985-1.753l0.184-0.495l-1.637-0.387l-1.27,0.191l-1.266-0.517l-0.404-0.529l-0.117-0.954l0.208-1.919l2.137-0.95l0.304-0.637
		l0,0l5.935-0.1l3.319-2.553l1.812-0.383l1.241,0.171l2.245,2.778l1.149-0.258l3.581,2.232l4.814,5.48l2.732,2.128l0,0l-0.483,0.212
		l-6.171-1.649l-0.167,1.716l0.85,2.036l0.517,2.852l3.464,0.587l0.392,0.358l-0.108,0.912l-1.653,1.604l0.183,2.686l-0.862,1.749
		l0.462,1.399l2.686,3.252l0.204,0.679l1.67,1.124l3.269,1.499l2.053,0.092l1.146-0.554l1.582,0.133l1.191,1.032l0.733,1.787
		l-0.079,0.966l0.583,1.999l1.391,2.095l-1.095,1.599l-2.286,2.24l-2.961,1.632l-4.01,0.621l-1.936,1.17l-1.037,3.677l0.066,1.278
		l1.487,5.955l-2.736,7.042l-0.271,3.277l-0.649,1.97l-0.167,4.106l0.612,1.886L92.818,257.496z"/>
	<path id="BO-S" fill="#1E3250" stroke="#1E3250" stroke-width="0.5" d="M221.783,208.74l-18.606-1.149l-13.263,3.59l-23.711,4.118
		l-3.586,9.657l-6,8.712l0,0l-22.912,0.083l-2.699-1.545l-1.861,1.253l-3.177-0.271l-0.35-0.292l-0.312-7.571l-0.188-1.583
		l-0.641-1.749l-0.033-4.597l-0.795-10.752l0.574-4.644l-3.036-0.042l-0.32,0.375l-0.392,2.136l-0.858,0.462l-0.941-0.179
		l-0.883-1.945l-4.918-5.555l-0.716-1.803l-0.054-1.458l-0.529-0.337l0,0l1.07-1.532l-0.241-2.12l-2.569-1.832l-1.141-3.644
		l-3.252-5.293l-1.52-1.683l-0.058-0.741l0.167-0.483l2.632-2.474l3.373-4.901l0.321-1.687l1.245-0.941l2.565-0.013l0.096-1.558
		l-2.598-3.335l-7.513-5.06l-1.766-3.831l-0.079-1.845l1.799-3.702l1.262-3.581l-0.433-4.619l-0.845-3.494l-0.137-1.828l0.483-1.437
		l0,0l3.811,0.521l23.099,0.945l0.596-0.354l-2.361-4.276l-2.911-1.566l-1.087-1.075l-3.994-6.13l-1.866-4.785l0.433-4.802
		l-0.716-2.586l8.021-2.232l41.872-24.128l0,0l0.337,0.404l1.778,0.587l9.532-1.295l1.703,1.928l3.489,2.074l0.996,0.062
		l1.441,1.208l4.177,1.395l1.937,3.952l-0.866,1.716l-0.82,0.745l-0.358,1.424l0.658,2.653l3.56,7.158l0.467,10.157l-6.563,0.083
		l7.225,8.245l1.408,17.024l36.146,1.449l0.508-0.212l0.55-0.808l1.287-0.079l0.066,2.544l-0.462,2.39l-1.532,1.47l-1.187,2.203
		l0.263,4.926l0.816,2.382l0.316,3.948l0.4,1.507l0.404,0.425l2.544,1.033l2.719,1.895l0.608,0.933l1.574,0.92l0.695,0.071
		l1.72-0.85l3.277,2.89l-0.712,0.958l0.425,1.079l0.883,0.891l-0.034,2.573l4.152,7.879l-0.887,1.558l-4.348,13.904l0.996,0.167
		l0.383,2.869l-1.512,0.087l-7.233,15.354l5.655,5.197l-1.029,1.191l-5.418,3.09l0.542-1.907l-0.375-5.581L221.783,208.74z"/>
	<path id="BO-T" fill="#1E3250" stroke="#1E3250" stroke-width="0.5" d="M147.271,273.296l-2.544-1.899l-0.575-0.887l-0.175-2.216
		l-0.346-0.445l-23.604,0.079l-3.897,9.236l-2.024,2.319l-0.637,1.237l-0.558,1.761l-0.45,4.231l-0.316,0.637l-0.458,0.208
		l-0.521-3.007l-1.895-2.107l0.196-1.445l-0.379-1.482l-1.349-2.386l-0.438-3.348l-0.958-1.066l-1.912-0.854l-0.674,0.15
		l-5.331-1.679l-0.396-0.379l-4.239,0.087l0,0l0.366-0.104l-0.712-3.098l-2.557-3.511l0.82-2.715l0.767-0.941l0.341-2.178l0,0l0,0
		l0,0l1.287-12.601l0.321-0.654l1.724,0.204l3.477,1.774l1.691,1.312l1.091-0.229l0.616-2.158l0.775-1.224l1.416,0.254l3.181,3.215
		l2.749,1.107l2.757,0.204l0.704-0.767l0.512-4.889l2.208,0.591l0.57,0.8l1.382,0.979l36.03,0.062l0,0l0.046,1.266L147.271,273.296z
		"/>
</g>
</svg>
