<?xml version="1.0" encoding="utf-8"?>
<!-- Generator: Adobe Illustrator 15.0.0, SVG Export Plug-In . SVG Version: 6.00 Build 0)  -->
<!DOCTYPE svg PUBLIC "-//W3C//DTD SVG 1.1//EN" "http://www.w3.org/Graphics/SVG/1.1/DTD/svg11.dtd">
<svg version="1.1" id="Layer_1" xmlns:amcharts="http://amcharts.com/ammap"
	 xmlns="http://www.w3.org/2000/svg" xmlns:xlink="http://www.w3.org/1999/xlink" x="0px" y="0px" width="640.5px" height="665.5px"
	 viewBox="0 0 640.5 665.5" enable-background="new 0 0 640.5 665.5" xml:space="preserve">
<defs>
	
	
		<amcharts:ammap  projection="mercator" leftLongitude="-74.008595" topLatitude="5.275696" bottomLatitude="-33.744725" rightLongitude="-34.789914">
		</amcharts:ammap>
</defs>
<g>
	<path id="BR-AC" fill="#1E3250" stroke="#1E3250" stroke-width="0.5" d="M30.47,237.77l-2.08-0.04l0.33-2.64l-1.5-1.19l0.13-1.6
		l-0.77-1.95l-1.09-0.64l-5.6-1.25l-7.34-0.19l3.65-4.05l0.07-2.43l-1.51-1.35l-1.68-2.95l-1.67-0.63l-1.13-1.13l-0.92-2.38l-2-1.53
		l-1.85-5.26l-1.88-1.08l-0.08-1.17l0.81,0.1l0.42-0.52l-0.13-1.09l-2.12-0.93L0,199.32l1.16-1.74l-0.01-1.31l3.51-0.78l-0.22-1.35
		l-1.17-1.57l0,0l17.95,7.48l35.8,8.8l26.44,14.17l28.51,12.13l0,0l2.97,1.26l0,0l-3.96,2.73l-2.86,2.79l-1.65,0.86h-2.19
		l-0.05,0.56l-4,2.29l-1.88,3.01l-0.61,0.28l-1.93-0.88l-3.05,0.31l-3.43,4.79l-4.61,1.94l-2.97,0.54l0.08-2.11l-10.15-1.04
		l-5.09,0.38l-0.66-0.58l-2.27-0.17l-3.56,1.83l-2.73,0.62l-1.68-0.67l-1.4-1.44l-1.64,1.16l0.37-22.59l1.45-2.32l-1.16,0.2
		l-4.57,3.6l-2.06,2.38l-1.95,0.67l-0.65,1.08l-1.81,0.99L30.47,237.77z"/>
	<path id="BR-AL" fill="#1E3250" stroke="#1E3250" stroke-width="0.5" d="M561.91,230.3l-0.2-0.73l-2.89-0.98l-0.54-1.4l0,0
		l1.96-2.16l2.17-0.76l3.29-4.58l1,1.22l2.75,0.18l4.45,4.14l3.689,1.53l2.5-0.65l4.311,0.18l1.859-1.06l1.16,0.05l1.811-1.11
		l3.85-3.98l2-0.24l2.24,0.85l4.029-1.48l5.091,1.29l0,0l-2.78,4.96l-8.13,8.71l-3.04,4.58l-3.33,2.88l-2.32,3.82l0,0l-0.6-1.31
		l-7.471-4.5l-1.3-2.45l-5.42-3.07l-3.68-0.95L561.91,230.3z"/>
	<path id="BR-AM" fill="#1E3250" stroke="#1E3250" stroke-width="0.5" d="M165.82,47.29l1.47,1.12l2.37-0.3l0.06,0.96l1.21,1.17
		l3.21,0.27l2.44,1.61l-1.62,4.82l2.73,3.74l1.66,4.76l0.19,2.26l0.92,1.57l-1.62,1.46l1.02,3.17l-1.34,4l0.29,4.98l0.88,2.17
		l1.8,1.74l1.13,4.33l-1.2,1.9l-1.84-0.33l-0.14,1.14l5.01,4.42l2.48,1.35l2.52,3.69l1.87-0.35l2.36,1.04l-0.44-2.11l0.75-2.29
		l-0.12-3.53l0.82-2.97l1.02-1.26l3.37-1.4l0.55-0.89l1.6-0.061l2.83,0.93l1.87,2.04l0.92,2.51l1.82,0.23l2.66-1.87l2.03-0.55
		l0.44-0.92l-1.14-1.41l-0.12-1.39l1.22-3.77l3.99-6.29l-0.03-0.68l18.49,0.07l0,0l0.15,8.58l2.12,1.94l-0.4,2.8l1.83,1.99
		l1.06,0.01l1.84,1.23l0.89,3.21l4.64,3.77l4.58,2.54l1.98,1.99l9.19,3.6l1.35,1.95l2.7,1.44l1.1,2.17l1.87,0.79l2.23-0.96
		l0.06,1.26l1.81,1.67l-29.9,64.24L242.5,186l0.79,3.46l3.03,2.71l1.36,3.79l0,0l-1.38,1.81l0.01,2.61l-2.48,3.31l1.22,4.16
		l-2.56,9.44l-1.21,0.73l-47.85,0.32l0,0l-0.32-1.08l-1.39-0.28l-1.92,1.08l-0.54,1.74l-0.68,0.19l-3.24-1.48l-0.68-2.88l-2.06-0.28
		l-1.25-3.27l-2.54-0.98l-1.33-1.27l-1.25-2.4l-2.15-1.13l-10.79,0.06l-1.38,2.56l-1.72,0.5l0.09,1.17l-2.74,0.75l-1.19,1.59
		l-0.05,0.67l1.07,1.15l-1.17,2.17l-2.06,1.21l0.13,3.27l-3.87-0.46l-2.13,0.38l-1.2,1.07l-3.09-0.67l-1.75,1.26l-0.53,0.84
		l0.26,1.75l-2.54,3.16l-1.36-0.45l-1.02-2.35l-3.14,2.23l-3.22,0.76l-0.54,1.25l-1.22,0.79l-3.4-2.68l-6.83,0.07l0.01,1.85
		l-1.55,1.81l-1.92,0.58l-3.26,2.56l0,0l-28.51-12.13l-26.44-14.17l-35.8-8.8l-17.95-7.48l0,0L3.9,189l1.22-1.4l4.92-3.47l2.73-0.54
		l0.98-1.56l0.08-1.03l-1.74-4.49l1.56-3.38l2.62-3.55l0.01-3.06l0.98-4.35l0.73-0.75l5.85-2.86l1.15-1.04l0.44-1.4l2.19-0.48
		l5.19-3.66l3.93-0.14l7.51-2.35l3.33,0.38l1.93-3.04l1.09-0.61l2.14,0.2l0.64,0.54l2.42-0.98l1.71,0.12l0.29,1.71l1.61,1.29
		l2.83,0.08l1.04-1.18l7.76-42.48l1.16-2.92l-0.87-5.22l-1.3-1.05l-1.48-2.75l0.61-1.88l-0.52-1.78l-5.1-3.34L61.6,84.3l0.2-11.51
		l3.89-0.26l1.75-1.17l3.5-0.92l2.68,1.76l2.49-0.32l-0.49-1.69l0.3-1.72l-1.94-2.64l-1.15-0.6l-1.51,0.53l-2.79-0.61l-3.57,0.09
		l-0.06-9.9l4.56-1.14l2.84,0.87l19.03,0.06l-1.25-0.8l-0.38-1.2l0.95-1.93l1.43,0.4l1.48,2.84l1.49,0.36l1.61-0.61l3.52-4.17
		l2.55-1.39l1.29,0.46l4.19,7.65l-0.06,6.94l3.2-0.75l9.1,7.34l2.5,0.21l2.3-1l3.81-2.86l2.19-0.11l1.33,1.37l-0.02,0.97l-1.11,1.7
		l0.95,1.25l1.33-0.72l1.79-3.36l2.02-0.229l0.87-2.97l4.95-2.5l0.97,0.55l0.93-0.29l1.6-1.04l1.02-1.61l2.11-1.21l2.03,0.55
		l2.91-2.47l0.41-3.95l0.77-0.92l4.11-0.83l2.06-1.6l3.24-0.67L165.82,47.29z"/>
	<path id="BR-AP" fill="#1E3250" stroke="#1E3250" stroke-width="0.5" d="M344.98,99.7l-3.01,0.4l-2.79-0.68l-1.45-1.03l-0.43-1.5
		l-1.87-1.39l-0.2-3.58l-1.28-0.65l-0.41-0.94l0.08-2.43l-2.93-3.28l-1.6,0.18l-1.5-3.48l0.13-1.58l-1.89-3.88l0.24-5.25l-2.74-1.06
		l-2.02-2.26l-0.76-2.83l0.87-0.95l-0.49-1.18l-0.68,0.03l-2.84-2.66l-1.32,0.56l-2.17-0.13l-1.94-1.82l-1.19-0.12l-1.16-2.08
		l-1.93-1.05l-4.68-0.87l-2.25,0.27l-0.55-1.99l0.25-4.54l0.62-1.3l-0.37-2.3l-0.62-0.57l0,0l1.33,0.08l0.04,1.96l2.28,0.16
		l1.2,1.61l5.54,1.52l5.67-4l0.69,0.94l2.71,0.94l3.25-1.53l1.46,1.3l-0.2,0.87l2.37-0.17l2.07,0.67l4.36-3.07l1.75-2.3l0.17-1.54
		l3.13-6.5l0.11-1.82l1.84-1.49l3.6-5.79l0.23-1.15l2.63-2.75l0.63-1.66l3.61-2.64l-0.12-3.61l4.51,3.63l1.43,2.41l0.03,1.58
		l0.44,0.31l0.69-0.58l0.21,0.4l0.21,7.89l0.66,3.87l2.71,6.05l2.66,8.94l3.32,5l4.27,0.27l4.08,1.79l0.77,2.65l-0.16,3.33
		l-3.4,1.72l2.83-0.57l0.4,0.82l-0.17,0.73l-5.03,4.06l-1.17,2.1l-2.15,1.41l-1.94,3.72l-2.91,3.5l-3.08,0.89l-2.08,2.98l-1.34,0.07
		l-2.22,2.58l-2.09,4.08l-3.85,4.09l-0.19,4.21l-1.95,1.81L344.98,99.7z M368.34,52.71l-1.55-2.19l0.07-0.88l1.88-0.86l1.26,2.66
		L368.34,52.71z M370.83,70.32l-0.48-0.96l1.11-1.1l2.12,0.1l0.9-0.75l-0.92,2.03L370.83,70.32z"/>
	<path id="BR-BA" fill="#1E3250" stroke="#1E3250" stroke-width="0.5" d="M527.5,365.33l-0.36-0.83l0.67-1.89l-0.529-1.04
		l-4.13-3.051l0.06-2.02l-0.57-1.23l-1.409,0.631l1.35-7.7l0.82-0.88l2.47,0.239l1.02-0.71l-0.56-1.43l0.16-2.65l4.96-4.22
		l1.47-3.08l-1.19-2.189l-1.619-0.44l-2.83-2.47l-2.12,0.02l-4.45-1.68L516,328l-2.79,1.48l-3.18-0.24l-0.44-3.96l-6.52-6.2
		l-4.771,1.06l-1.53-1.239l-1.439-0.011l-2.54-1.22l-2.17-1.62l-0.98,0.181l-4.35-3.631l-3.83-1.29l-3.65,1.15l-1.439,1.29
		l-5.33-1.47l-0.61-0.49l-0.26-1.5l1.44-3.63l-3.131-0.98l-5.18-0.62l-3.83,1.58l-4.26,3.03l-0.64,1.11l-3.37,1.87l-2.021,0.399
		l-2.76,2.73l-2.43,0.37l-2.891,3.35l-2.85-0.25l-2.03,1.91l-0.399-0.24l1.43-3.43l-0.51-2.41l0,0l1.729-2.74l-0.899-2.99l0.76-2.56
		l-3.21-2.62l-1.69-3.46l-0.62-3.52l1.24-5.38l1.82-1.42l0.06-0.94l-1.74-1.17l0.48-2.52l1.41-1.43l-2.72-2.46l0,0l-0.04-0.93
		l1.359-2.38l-0.21-1.49l-2.41-1.14l-0.109-5.02l4.06-2.81l-0.87-1.15l-1.95-0.11l-0.439-0.83l0.42-0.96l2.6-1.26l-0.039-0.76
		l-1.881-0.98l-3.58-0.67l-1.859-1.96l-0.23-0.92l1.51-1.88l1.521-3.48l2.271-1.27l-1.101-2.17l3.21-2.62l3.82-2.02l1.47-2.11l0,0
		l2.33-0.02l1.44,1.34l1.189,3.25l1.76,2.49l4.181,1.86l1.8-0.52l2.109,0.18l1.08-1.66l1.141-0.37l1.84-1.76l2.21-0.75l2.81,0.7
		l1.351-0.42l2.97-2.42l3.92-6.82l0.17-3.72l-2.24-4.43l0.051-0.93l3.239-1.65l1.95-0.02l1.5,0.46l0.73,1.11l3.51-0.98l1.33,0.38
		l1.71,0.99l0.06,0.94l0.82,0.28l6.18-0.86l2.33-2.56l2.73-0.34l1.59-1.34l2.17,0.01l0.94,0.68l1.859-1.81l-0.1-2.4l2.78-0.21
		l1.05-0.66l1.96-3.46l0,0l4.25,0.42l2.82,1.39l1.09,5.18l2.21,0.91l0.27,2l-0.92,1.68l1.83,0.62l4.65-2.02l1.27-4.45l2.17,0.42
		l2.391-1.02l1.1-1.24l-0.08-1.95l2.53-0.7l0.77-2.05l4.771-2l1.49,0.56l0.83,1.44l1.359,0.81l5.351,1.17l1.58,1.15l0.93,1.92
		l0.71-1.89l1.439-0.45l0.471,0.95l-0.62,0.88l0.96,1.2l2.1,0.86l1.24,3.99l0,0l0.54,1.4l2.89,0.98l0.2,0.72l0,0l-0.67,1.16
		l0.21,2.14l1.28,2.5l2.74,3.1l-0.08,3.12l-0.74,2.5l0.76,2.75l-0.99,1.13l-2.55,1l-1.13-0.75l-1.71-0.01l-0.89,2.65l4,5.27
		l-0.32,2.2l0.72,0.94l4.5,2.61l2.891-0.88l0,0l1.01,0.4l-4.08,8.83l-3.83,5.19l-1.03,2.33l-5.029,5.74l-3.32,1.25l0.81-2.68
		l-0.45-1.93l-1.869-0.25l-1.11-2.06l-1.33,3.79l-1.11,0.09l-0.489-1.74l-0.49,0.44l0.93,1.69l1.99,0.34l-0.46,1.81l-1.21,1.15
		l-0.25,1.82l-1.601,1.64l-0.02,1.69l-1.35-0.39l-0.211,0.39v1.8l0.75,0.21l0.711,2.87l-1.04,2.51l0.569,3.44l-1.13,0.27l-0.14,1.13
		l0.59,0.46l1.21-1.72l-0.47-2.21l0.82-0.61l0.25,0.54l-2.28,11.61l2.05,16.26l0.99,3.42l-2.21,6.66l-3.051,14.24l0.301,6.75
		l0.89,1.71l-2.24,2.979l-2.75,1.311l-2.72,3.89L535.9,371l0,0L527.5,365.33z"/>
	<path id="BR-CE" fill="#1E3250" stroke="#1E3250" stroke-width="0.5" d="M573.79,156.85l-4.89,1.59l-2.61,2.01l-3.3,6.69
		l-1.71,1.69l-0.5,2.41l-1.4,2.44l-2.03,2.61l-2.319-0.18l-2.25,3.13l-0.34,1.97l1.3-0.21l0,0l-1.95,4.69l0.52,1.31l-1.92,2.32
		l-0.12,0.93l1.171,1.42l-0.021,1.66l1.93,0.97l0.341,1.19l-2.631,4.86l0,0l-2.659,1.32l-1.54,2.29l-1.65,0.05l-0.63-1.64
		l-2.14-1.05l-1.471-2.06l-4.68-2.73l-4.37-0.32l-3.77,0.99l-5.82-0.44l0,0l0.06-1.32l-0.76-1.65l2.65-6.05l-0.771-1.16l-3.87-1.12
		l-1.01-2.67l-1.81-7.77l-0.7-8.61l-1.03-1.07l0.8-0.58l0.591-1.58l-1.601-5l0.48-1.6l-0.79-3.87l0.76-2.12l-1.36-1.59l-5.68-14.16
		l0.18-1.46l2.78-4.62l0,0l-0.25-1.42l0.65-0.81l6.739-0.22l4.96-1.09l7.4,0.79l14.46,8.32l1.21,0.2l5.21,4.4l2.57,0.72l2.439,2.91
		l1.221,0.61l2.96,3.81l4.16,3.08l2.5,2.99l5.02,1.77L573.79,156.85z"/>
	<path id="BR-DF" fill="#1E3250" stroke="#1E3250" stroke-width="0.5" d="M416.71,333.87l-14.69-0.021l-0.52-3.26l0.92-1.83
		l0.38-3.729l11.95,0.01l1.83,1.979l-0.74,5.841L416.71,333.87z"/>
	<path id="BR-ES" fill="#1E3250" stroke="#1E3250" stroke-width="0.5" d="M501.63,411.37l0.72-3.78l-0.43-3.54l1.72-2.06l5.7-0.29
		l0.97-3.24l1.99-3.56l0.24-1.721l3.21-3.39l0.54-2.97L516,384.39l-2.37-4.08l-0.97,0.2l-1.25-0.99l0.43-0.55l3.25,0.29l1.271-0.66
		l-0.17-1.72l-1.521-0.76l0.33-3.46l-2.15-2.03l1.17-1.93l2.171-1.311l2.489,0.83l0.021-0.81l-1.67-2.271l3.52-0.159l1.92-0.931
		l1.58-0.08l3.45,1.36l0,0l0,0l0,0l8.4,5.67l0,0l-1.24,6.21l0.84,9.74l-0.31,2.47l-1.49,3.18l-3.3,1.99l-3.42,8.601l-1.711-0.811
		l-0.289,1.28l1.35,0.52l-1.94,4.24l-3.449,3.84l-2.101,0.391l-0.8,1.229l-0.48,2.64l-1.88,3.15l0,0l-1.62-1.06l-2.989,0.37
		l-6.84-2.141l-0.671-4.71L501.63,411.37z"/>
	<path id="BR-GO" fill="#1E3250" stroke="#1E3250" stroke-width="0.5" d="M416.71,333.87l-0.87-1.01l0.74-5.841l-1.83-1.979
		l-11.95-0.01l-0.38,3.729l-0.92,1.83l0.52,3.26L416.71,333.87L416.71,333.87L416.71,333.87L416.71,333.87l-0.53,1.52l0.311,1.57
		l-2.13,4.31l0.85,1.211l2.271,1.369l1.649,5.16l-5.56,5.721l-0.431,2.14l1.091,1.11l0.899-0.471l2.05,1.181l0.011,1.71l-1.24,2.79
		l1.189,3.46l-3.09,2.06l-1.16,0.2l-1.34,2.02l-4.89,2.74l-0.7-0.77l-4.35-1.86l-1.13,0.57l-7.09-0.11l-2.01-0.89l-4.13,2.64
		l-2.91,2.92l-1.64-1.42l-1.52-0.3l-3.19,1.64l-3.71-0.62l-4.71,1.5l-3.4,6.86l-2.11,0.26l-0.94,0.74l-1.64,2.1l-0.57,1.9l0.55,0.95
		l-1.22-0.23l0,0l-2.9-2.689l-3.15-0.61l-1.62-1.55l-3.39-0.47l-3.35-1.341l-4.42-3.02l-5.28-2.561l-2.78,0.16l-3.8-0.7l1.93-4.52
		l-2.25-0.9l-1.8,0.48l-0.51-1.521l0.07-4.35l0,0l-0.95-2.2l-0.18-3.43l-1.57-2.9l0.4-3.41l2.55-3.85l0.38-2.91l4.64-3.38l1.25-2.02
		l0.83-2.96l2.1-2.471l0.08-1.54l1.75-0.97l1.4-2.62l2.65-0.13l3.04-1.14l2.69-5.15l1.02-4.84l3.57-2.95l1.07-0.26l1.23,0.68
		l2.6-2.16l2.01-5.8l-0.49-1.939l0.58-2.74l1.6-3.09l-0.12-5.18l1.21-0.78l3.03-5.8l0.23-3.79l1.32-1.76l0.19-1.76l0,0l1.2-3.56
		l2.37-2.39l-0.03,1.71l-1.22,1.88l-0.52,2.34l4.6,1.43l3.93,0.4l7.16,3.14l0.63-0.23l1.63-5.94l2.65-3.36l2.19,3.19l1.72,6.81
		l1.14,0.05l1.61-2.29l2.76,0.34l4.53-0.53l-0.34,2.3l3.13,1.47l3.35,0.68l0.69-0.08l0.51-3.3l0.55,0.03l1.97,2.86l4.301-2.98
		l6.08-1l4.3-2.44l5.359-1.42l0,0l2.721,2.46l-1.41,1.44l-0.48,2.52l1.73,1.17l-0.061,0.94l-1.819,1.41l-1.24,5.38l0.62,3.52
		l1.7,3.46l3.21,2.62l-0.771,2.56l0.9,3l-1.73,2.74l0,0l-1,1.01l-3.229-0.34l-0.9-1.76l-2.42-1.48l-1.17,1.49l0.58,3.771
		l-0.57,0.539l-3.18-1.01l-1.54,0.51l-0.72,3.181l0.72,0.1l0.49,1.16l-1.3,1.64l0.039,1.9l0.95,0.8l0.69,4.26l-3.891,1.431
		l-2.289,1.51L416.71,333.87z"/>
	<path id="BR-MA" fill="#1E3250" stroke="#1E3250" stroke-width="0.5" d="M458.57,128.92l-2.5,2.65l-0.04,1.44l5.67-5.64l1.03-6.33
		l4.579-1.88l0.46,0.12l-0.13,2.08l-1.42,1.87l-3.21,1.75l-0.029,0.72l0.729,0.12l0.45-0.81l1.149-0.31l-0.119,1.64l4.21-4.97
		l0.859,0.33l2.58-0.93l4.04,0.43l-0.46-2.41l0.61-0.23l2.42,0.08l5.45,1.53l2.149,1.38l1.4,0.03l3.16,2.62l3.659,0.39l0.561,0.76
		l4.4,0.61l0.26-0.9l-0.67-0.47l1.67-0.38l0.569,0.11l-0.09,0.42l0,0l-0.46,1.43l0.86,1.26l-0.38,1.53l-5.92,6.24l-4.12,0.3
		l-2.92,3.4l0.04,1.8l-0.881,1.83l-4.119,5.05l0.359,1.92l1.23,0.83l0.38,1.28l-1.42,4.34l1.58,2.81l0.45,5.41l-4.311,4.97
		l-0.17,2.48l0.63,4.41l3.561,3.45l-1.171,6.16l-1.209,1.31L480.21,187l-2.43,0.86l-1.521,0.11l-3.51-2.03l-4.66,0.99l-5.04,5.47
		l-2.34,0.91l-2.87,2.56l-2.39,0.56l-1.7,1.53l-6.41,1.44l-2.13,1.95l-2,8.27l-1.74,2.95l-1.67,4.82l-1.7,1.4l-0.729,2l1.17,5.13
		l1.729,3.06l-0.8,1.92l-0.13,6.36l-1.15,2.45l-0.31,2.98l0,0l-2.71-1.92l-3.48-0.27l-1.35-2l-0.99-2.86l-2.13-1.62l-0.14-1.65
		l1.64-1.81l-0.08-0.53l-3.88-1.95l-1.42-4.3l-3.21-1.39l2.89-3.25l-0.369-1.31l1.409-4.11l1.91-1.09l3.391-0.35l-0.391-1.35
		l0.561-5l-1.8-1.21l-4.271,0.94l-2.15,1.34l-6.189-8.03l-0.88,0.07l-0.84-1.44l0.609-1.19l-0.359-1.22l-1.79,0.03l-1.931-1.33
		l0.181-0.71l1.76-0.66l1.75-2.04l0.28-4.96l1.77-6.16l-0.89-2.65l0.21-3.72l-1.11-5l-0.84-1.03l-4.62-1.46l-0.95-2.05l-4.09,0.15
		l-2.78-1.51l-2.819,0.47l-3.16,2.49l0,0l-0.49-0.08l14.71-11.83l2.35,0.23l1.171-0.92l1.979-3.32l1.55-1.17l0.62-2.88l3.561-2.78
		l2.35-7.79l1.96-1.54l2.3-3.21l0.271-3.1l0.79-0.81l-1.04-1.58l3.68-3.09l0.37-4.02l2.11-2.28l0.979-4.63l-0.43-0.53l-0.99,0.16
		l-0.22-1.11l1.14-0.15l0.57-0.74l0.55-5.77l1.24-1.48l0,0l0.87-0.24l0.869-1.82l1.341,0.98l0.45,1.84l1.189,0.12l0.77-1.36
		l0.61,2.93l0.99,0.04l0.36-1.43l2.539,0.49l0.5,0.69l-1.43,1.7l0.69,1.25l1.7-3.58h0.449l0.4,1.6l-1.14,1.9l0.079,2.71l0.721,0.45
		l1.54-1.06l-0.33-1.6l1.319-1.43l1.051-0.25l2.13,0.59l1.5-1.11l0.05,0.92l-1.49,1.74l0.59,0.58l1.351-0.97l0.58,0.79l-0.141,1.21
		l1.63,1.75l0.86-0.44l1.58,0.67l0.771,2.4l-0.11,0.95l-2.19,2.73l-0.279,1.55l2.35-2.72l0.83-0.03l0.87,0.81l0.52,1.89l-0.27,1.23
		l-0.97,0.19l-2.19,2.4l-1.71,6.65L458.57,128.92z"/>
	<path id="BR-MG" fill="#1E3250" stroke="#1E3250" stroke-width="0.5" d="M527.5,365.33l-3.45-1.36l-1.58,0.08l-1.92,0.931
		l-3.52,0.159l1.67,2.271l-0.021,0.81l-2.489-0.83l-2.171,1.311l-1.17,1.93l2.15,2.03l-0.33,3.46l1.521,0.76l0.17,1.72l-1.271,0.66
		l-3.25-0.29l-0.43,0.55l1.25,0.99l0.97-0.2l2.37,4.08l0.29,2.431l-0.54,2.97l-3.21,3.39l-0.24,1.721l-1.99,3.56l-0.97,3.24
		l-5.7,0.29l-1.72,2.06l0.43,3.54l-0.72,3.78l0,0l-2.53,2.35l-1.8,0.771l0.74,0.7l-4.26,9.76l-0.09,0.75l1.439,0.13l0.08,1.13
		l-12.04,5.51l-1.37,0.2l-0.47-0.63l-2.53-0.271l-3.439,1.16l-4.07-0.16l-6.86,3.32l-3.09-0.109l-6.01,2.569l0,0l-1.25,0.73
		l-2.2,0.22l-4.95,2.93l-4.72,0.17l0.25-1.33l-1.19,0.33l0.011,3.37l-0.75,0.98l-1.3,0.319l-0.57-0.43l-3.61,1l-0.189-0.53
		l-3.13-0.01l-2.03-3.31l1.22-0.71l-0.52-1.71l-3.591-2.061l-0.71-1.609l0.53-1.561l-0.07-6.39l1.86-2.72l0.75-3.45l-3.93-1.69
		l-3.67,0.771l-0.801-2.841l-1.3-1.789l-0.37-2.211l-1.1-1.359l0.19-1.94l1.579-2.59l-0.399-1.55l-2.46-1.82l0.859-3.38l-0.199-1.04
		l-3.271-3.35l-2.149,0.93l-1.65-0.78l-2.38,0.11l-0.55,2.06l-2.78,0.681l-2.62-1.88l-1.01,1.25l-8.18,0.68l-0.94,1.67l0.27,2.54
		l-0.41,0.44l-1.19-0.521l-0.01-2.78l-0.61-1.35l-0.82,0.14l-1.08,2.07l-1.16,0.3l-1.21-2.1l-0.19-2.33l-3.86-2.21l-5.28,0.72
		l-6.84-1.04l-2.48-1.689l-1.5,0.609l-1.43,1.69l-1.92,0.37l-3.37,2.239l0,0l0.31-2.619l-0.59-3.21l0.99-4.181l0.58-0.25l0,0
		l1.22,0.23l-0.55-0.95l0.57-1.9l1.64-2.1l0.94-0.74l2.11-0.26l3.4-6.86l4.71-1.5l3.71,0.62l3.19-1.64l1.52,0.3l1.64,1.42l2.91-2.92
		l4.13-2.64l2.01,0.89l7.09,0.11l1.13-0.57l4.35,1.86l0.7,0.77l4.89-2.74l1.34-2.02l1.16-0.2l3.09-2.06l-1.189-3.46l1.24-2.79
		l-0.011-1.71l-2.05-1.181l-0.899,0.471l-1.091-1.11l0.431-2.14l5.56-5.721l-1.649-5.16l-2.271-1.369l-0.85-1.211l2.13-4.31
		l-0.311-1.57l0.53-1.52l1.271-0.12l2.289-1.51l3.891-1.431l-0.69-4.26l-0.95-0.8l-0.039-1.9l1.3-1.64l-0.49-1.16l-0.72-0.1
		l0.72-3.181l1.54-0.51l3.18,1.01l0.57-0.539L428,313.96l1.17-1.49l2.42,1.48l0.9,1.76l3.229,0.34l1-1.01l0,0l0.511,2.41
		l-1.431,3.439l0.4,0.23l2.04-1.91l2.85,0.25l2.891-3.34l2.42-0.38l2.76-2.721l2.02-0.409l3.37-1.86l0.641-1.11l4.27-3.029
		l3.82-1.581l5.18,0.62l3.13,0.99l-1.439,3.63l0.26,1.49l0.609,0.5l5.33,1.46l1.45-1.29l3.65-1.149l3.83,1.29l4.35,3.64l0.98-0.18
		l2.17,1.62l2.529,1.22l1.44,0.01l1.53,1.24l4.77-1.05l6.521,6.199l0.439,3.961l3.181,0.239l2.79-1.489l4.72,0.71l4.45,1.689
		l2.119-0.03l2.83,2.471l1.62,0.449l1.2,2.19l-1.47,3.08l-4.96,4.22l-0.15,2.65l0.561,1.439l-1.021,0.71l-2.479-0.239l-0.82,0.88
		l-1.35,7.7l1.409-0.631l0.58,1.23l-0.069,2.02l4.14,3.061l0.53,1.04l-0.67,1.88L527.5,365.33z"/>
	<path id="BR-MS" fill="#1E3250" stroke="#1E3250" stroke-width="0.5" d="M358.95,399.81l-0.68,2.86l-3.29,1.04l-3.21,3.71
		l-1.74,0.95l-0.78,4.61l-3.78,4.539l0.23,2.881l-3.21,4.6l0.07,2.06l-1.44,1.03l-3.39,5.34l-1.95,1.87l-7.56,4.53l-2.84,3.76l0,0
		l-6.52,3.09l-2.36,7.04l-3.77,2.36l-1.93,8.74l-2.38,1.56l0,0l-2.55-2.33l-3.41-1.89l-6.33,3.21l-2.58,0.43l-3.37-1.109
		l-0.47-4.271l-1.22-1.65l-0.23-2.47l0.51-1.34l-0.73-1.229v-2.87l-1.49-4.71l0.56-3.69l-1.57-1.09l-0.54-2.96l-1.65-1.82
		l-5.51-0.24l-2.46-1.96l-0.56-1.489l-1.54,0.33l-2.17,2.739l-1-0.6l-2.8,0.97l-4.3-1.18l-3.46,0.229l-3.66-0.71l-0.48-0.91
		l-1.99-0.13l-0.89,0.521l-2.5-0.88l0.91-7.271l-0.43-2.38l1.58-2.88l0.6-6.03l-0.71-4.06l-0.76-0.96l-0.92,0.56l-0.64-3.26l-2-3.89
		l-0.35-1.83l4.79-3.181l-4.2-3.859l5.38-11.42l1.12-0.061l-0.28-2.13l-0.74-0.13l3.89-11.49l-3.09-5.85l0.03-1.91l0,0l3.87,2.82
		l5.62-1.971l2.05-2l2.02-2.949l0.09-1.17l1.4-1.45l4.92,0.149l1.66-0.51l1.35-1.25l2.02-0.49l1.27,0.2l0.76,1.15l2.79,1.25
		l3.27,0.819l1.05,1.881l5.53,2.84l4.52-0.63l3.18-2.261l2.44,0.07l1.59,1.04l0.54,1.62l4.13-0.78l5.62-6.01l1.34-0.13l-1.23,6.609
		l-1.8,0.7l-1.66,2.83l-0.04,0.99l1.3,0.11l1.74,1.27l11.44-0.04l0,0l-0.07,4.35l0.51,1.521l1.8-0.48l2.25,0.9l-1.93,4.52l3.8,0.7
		l2.78-0.16l5.28,2.561l4.42,3.02l3.35,1.341l3.39,0.47l1.62,1.55l3.15,0.61l2.9,2.689l0,0l-0.58,0.25l-0.99,4.181l0.59,3.21
		L358.95,399.81z"/>
	<path id="BR-MT" fill="#1E3250" stroke="#1E3250" stroke-width="0.5" d="M206.96,296.05l5.58-4l1.95-6.23l0.93-1.08l2.07-0.94
		l1.1-3.09l1.66-2.01l0.63-3.95l-0.54-3.54l-1.53-3.34l-1.48-0.48l-0.43-3.25l0.14-1.32l1.36-1.08l1.57-2.5l-1.41-3.59l-2.18-0.54
		l-3.5,0.09l-1.22-1.11l0.24-0.56l-17.16-0.05l0.9-9l-1.5-2.75l-0.27-1.76l1.03-4.32l-0.38-1.93l0.94-1.67l-0.98-3.66l-1.1-1.43
		l2.05-6.41l-0.6-1.24l-1.4-0.97l0,0l47.85-0.32l1.21-0.73l2.56-9.44l-1.22-4.16l2.48-3.31l-0.01-2.61l1.38-1.81l0,0l3.62,5.14
		l1.77,5.72l2.09,3.55l-0.23,2.44l1.21,4.6l4.53,3.86l3.38,1.7l0.42,2.53l3.4,0.68l1.09,2.12l1.37-0.45l3.69,1.49l34.04,2.42
		l62.97,3.48l0,0l-1.21,2.91l-1.1,1.25l-0.44,3.14l-2.74,6.41l-0.58,5.92l-1.88,5.99l0.06,0.86l1.39,1.34l-1.03,2.26l1.1,2.25
		l-0.46,4.88l0.52,0.58l0.44,3.05l-0.74,2.76l0.98,3.34l1.76,0.53l0,0l-0.19,1.76l-1.32,1.76l-0.23,3.79l-3.03,5.8l-1.21,0.78
		l0.12,5.18l-1.6,3.09l-0.58,2.74l0.49,1.939l-2.01,5.8l-2.6,2.16l-1.23-0.68l-1.07,0.26l-3.57,2.95l-1.02,4.84l-2.69,5.15
		l-3.04,1.14l-2.65,0.13l-1.4,2.62l-1.75,0.97l-0.08,1.54l-2.1,2.471l-0.83,2.96l-1.25,2.02l-4.64,3.38l-0.38,2.91l-2.55,3.85
		l-0.4,3.41l1.57,2.9l0.18,3.43l0.95,2.2l0,0L315.55,366l-1.74-1.27l-1.3-0.11l0.04-0.99l1.66-2.83l1.8-0.7l1.23-6.609l-1.34,0.13
		l-5.62,6.01l-4.13,0.78l-0.54-1.62l-1.59-1.04l-2.44-0.07l-3.18,2.261l-4.52,0.63l-5.53-2.84l-1.05-1.881l-3.27-0.819l-2.79-1.25
		l-0.76-1.15l-1.27-0.2l-2.02,0.49l-1.35,1.25l-1.66,0.51l-4.92-0.149l-1.4,1.45l-0.09,1.17l-2.02,2.949l-2.05,2l-5.62,1.971
		l-3.87-2.82l0,0l-0.98-1.47l0.54-0.71l-2.44-2.15l-1.8,0.58l-5.83-3.87l-1.33-9.479l2.02-2.73l0.29-3.67l-0.96,0.06l-0.78,0.761
		l-26.86-1.08l-1.05-12.65l-5.37-6.13l4.88-0.06l-0.35-7.551l-3.13-7.29l1.52-2.89l-1.44-2.93l-3.11-1.04L206.96,296.05z"/>
	<path id="BR-PA" fill="#1E3250" stroke="#1E3250" stroke-width="0.5" d="M371.03,235.24l-62.97-3.48l-34.04-2.42l-3.69-1.49
		l-1.37,0.45l-1.09-2.12l-3.4-0.68l-0.42-2.53l-3.38-1.7l-4.53-3.87l-1.21-4.59l0.23-2.44l-2.09-3.56l-1.76-5.72l-3.62-5.14l0,0
		l-1.35-3.79l-3.03-2.71L242.5,186l2.81-3.41l29.9-64.24l-1.81-1.67l-0.06-1.26l-2.24,0.95l-1.87-0.78l-1.1-2.17l-2.69-1.45
		l-1.35-1.939l-9.19-3.6l-1.98-1.99l-4.58-2.54l-4.64-3.77l-0.89-3.21l-1.84-1.23l-1.06-0.01l-1.83-1.98l0.4-2.8l-2.12-1.94
		l-0.16-8.58l0,0l-1.59-16.97l0,0l1.61,1.78l0.92,0.28l1.84-1.52l2.71,0.23l0.81-1.05l-0.54-1.81l1.79-0.36l1.41-1.63l2.64,1.01
		l1.88,0.03l0.54-1.52l3.33-1.62l1.97,0.39l1.64-0.36l1.6-2.88l1.46-1.1l1.51,0.35l2.11-1.13l1.5,1.55l2.03,0.48l1.61,0.25
		l2.22-0.99l2.46-0.08l7.88,1.54l1-0.87l-0.03-2.28l-2.07-2.5l-1.24-0.63l0.49-1.68l1.9-2.72l3.89,2.06l11.62-2.33l1.57,1.69
		l1.46-0.23l0,0l0.62,0.57l0.37,2.3l-0.62,1.3l-0.25,4.54l0.55,1.99l2.25-0.27l4.68,0.87l1.93,1.05l1.16,2.08l1.19,0.12l1.94,1.82
		l2.17,0.13l1.32-0.56l2.84,2.66l0.68-0.03l0.49,1.18l-0.87,0.95l0.76,2.83l2.02,2.26l2.74,1.06l-0.24,5.25l1.89,3.88l-0.13,1.58
		l1.5,3.48l1.6-0.18l2.93,3.28l-0.08,2.43l0.41,0.94l1.28,0.65l0.2,3.58l1.87,1.39l0.43,1.5l1.45,1.03l2.79,0.68l3.01-0.4l0,0
		l-0.53,0.74l0.12,2.12l-1.29,1.11l-1.39,0.17l-2-1.12l-3.75,2.13l-3.78,1.3l0.04,0.58l6.46-1.06l1.01,1.12l-0.62,1.16l0.93,0.16
		l0.86-1l3.22-0.58l4.42-2.91l3.34-1.17l6.46-4.37l0.66-0.72l-0.04-1.08l2.22-0.21l0.41,0.21l0.38,3.8l-0.52,2.58l0.33,1.62
		l2.12,2.96l0.18,2.11l-2.3,1.96l-2.69-1.04l-2.2-0.17l-2.13-1.04l-0.26-1.12l-0.88-0.53l-2.28,3.82l-0.61,2.37l1.17,3.61l0.92,0.62
		l-1.01-1.14l-0.31-3.21l2.57-4.22l2.31,1.18l2.64,2.9l-0.25,2.02l-0.74,0.55l0.4,2.33l0.52,1.13l2.38,1.39l-2.54-2.6l0.34-4.2
		l0.82-1.19l1.43,0.73l0.83,1.2l-0.09,0.79l1.2,0.86l-1.66-4.08l2.26-2.32l3.55,0.73l0.34,0.56l-0.61,0.59l0.8,0.31l6.45-2.04
		l2.52,1.27l3.17-0.42l3.07-2l2.51-0.44l-2.22,6.27l-1.29,2.11l0.57,2.31l-0.32,2.47l0.88-1.19l0.01-1.4l2.67-6.19l1.12-1.56
		l3.43-0.89l4.27-5.76l0.79,0.49l0.62-0.46l1.62,2.34l1.19,0.59l-0.41-1.49l0.62-1.01l-1.04-0.38l-0.021-2.64l2.21,0.2l1.07-3.1
		l-0.65-2.06l1.17-1.81l2.84-2.48l1.48,1.06l3.39-2.15l0.5,1.02l-0.319,0.67l1.069-0.16l1.811-1.55l2.35,2.74l0.09-0.94l-1.1-0.81
		l0.05-1.62l2.721,0.06l3.43,2.39l1.649-0.78l0.53,2.14l-0.53,0.9l0.921-0.52l1.159-2.35l0.561,2l2.51-0.26l0.45,0.65l0.46,1.68
		l-0.601,0.95l0.851-0.5l2.149,0.5l3.53-1.24l-1.05,3.42l2.06-1.11l0.63,1.62l0,0l-1.239,1.48l-0.55,5.77l-0.57,0.74l-1.141,0.15
		l0.221,1.11l0.99-0.16l0.43,0.53l-0.98,4.63l-2.109,2.28l-0.37,4.02l-3.681,3.09l1.041,1.58l-0.791,0.81l-0.27,3.1l-2.3,3.21
		l-1.96,1.54l-2.351,7.79l-3.56,2.78l-0.62,2.88l-1.55,1.17l-1.98,3.32l-1.17,0.92l-2.35-0.23l-14.71,11.83l0.49,0.08l0,0
		l2.291,0.81l3.159-0.13l1.021,1.66l2.53,1.62l-0.41,1.3l-1.98,0.72l0.09,1.41l1.011,1.34l-0.92,2.75l-2.101,0.95l-0.149,3
		l-1.301,0.15l-1.51,1.34l-0.85,1.27l-0.09,2.01l-5.92,2.35l-2.66,2.12l0.49,4.86l-2.84,4.35l0.76,1.84l2.57,2.36l-0.66,4.04
		l-1.76,5.15l-1.08,0.81l-2.82,5.77l-3.15,1.93l-4.58,6.28l-1.13,4.46L371.03,235.24z M392.19,104.93l-4.52,1.96l-3.39,0.52
		l-2.02-0.31l-0.65,1.13l-1.84,1.19l-1.14-0.63l-1.06,1.21l-3.77-1.64l-0.8,0.72l-4.19,1.26l-3.2-0.57l-0.81-0.61l-0.47-2.26
		l-2.18-2.62l-0.21-1.78l0.52-2.75l0.62-0.38l1.76,0.36l0.93-0.75l0.08-0.56l-2.52,0.3l-0.94-0.71l-0.18-1.05l0.34-5.08l0.73-0.76
		l0.35,0.75l0.58-0.1l-0.9-2.16l1.25-3.65l2.3-1.9l2.66-0.62l10.67,2.3l3.7-0.46l1.25-0.92l2.16-0.37l12.17,1.96l0.63,0.47
		l-0.05,1.23l-1.38,2.24l-1.21,5.95l-1.29,0.68l-0.12,1.88l-1.979,2.58L392.19,104.93z M344.98,104.76l-0.75-0.51l1.1-2.25
		l-0.09-1.79l2.58-0.69l0.9-0.86l-0.04-2.83l0.86-2.58l3.55-2.96l2.87-0.2l0.72,2.36l-1.95,5.23l-3.22,3.42l-4.94,3.31
		L344.98,104.76z M373.46,81.86l-4.27-0.34l-0.66-2.6l3.4-0.38l2.19-1.29l4.81-0.6l1.45,0.94l-0.18,1.02L377.64,80l-1.78,2.48
		l-1.1,0.52L373.46,81.86z M378.25,81.86l1.86-1.2l1.98,0.03l1.65,0.62l0.59,1.61l-0.88,0.77l-4.02,0.59l-2.26-0.89l-0.2-0.53
		L378.25,81.86z M361.27,86.25l-2.64-0.91l0.85-2.08l4.28-1.31l1.32,0.08l0.8,0.68L361.27,86.25z M370.69,76.56l-0.82-0.3
		l-0.02-2.25l1.17-1.31l2.71-0.81l0.57,1.57L370.69,76.56z M356.86,96.78l1.09-4.15l2.59-1.69l1.41-0.14l-0.16,1.79l-1.56,0.44
		L356.86,96.78z M367.77,79.21l-1.49-0.79l0.88-0.96l0.71-3.95l0.89-1.229l0.94,4.8L367.77,79.21z M352.96,89.4l-0.14-0.8l2.5-3.61
		l2.18-1.2l-0.6,2.49L352.96,89.4z M366.83,82.37l-1.43-0.86l-0.96-1.64l0.99-1.24l2.14,1.27l0.24,2.09L366.83,82.37z
		 M361.45,112.93l-1.52-0.62l-0.69,0.46l-0.75-0.28l-1.68-1.74v-0.61l1.28-0.01l3.06,1.32L361.45,112.93z M340.3,107.39l-0.15-1.33
		l0.6-0.99l2.36-0.88l1.65,1.24l-1.32,0.82l-2.54,0.41L340.3,107.39z M353,100.7l0.37-1.33l1.79-1.62l0.71-2.84l0.32,1.96
		l-0.89,2.73L353,100.7z M359.3,90.8l1.65-2.96l1.58-0.02l0.27,0.87l-0.58,0.71L359.3,90.8z M357.24,90.3l-0.54-0.2l0.32-2.04
		l1.55-1.76l1.28,1.12l-1.55,0.64L357.24,90.3z M359.47,95.33l0.72,0.03l-1.33,0.76l-0.11,1.12l-2.48,1.56l0.58-1.64l1.73-1.67
		L359.47,95.33z"/>
	<path id="BR-PB" fill="#1E3250" stroke="#1E3250" stroke-width="0.5" d="M610.43,199.15l-2.5-2.06l-3.47-0.47l-2.31,1.07
		l-1.48,1.28l-0.45,1.8l-1.899,1.03l-3.15,0.43l-0.8,1.13l-6.061,0.03l-2.159,1.52l-1.82,0.1l-1.43,1.45l0.399,1.27l-0.399,0.48
		l-1.78,1.53l-2.99,1l-2.55-1.73l-0.29-3.03l-1.14-0.32l-1.95,0.54l2.74-3.52l-0.721-1.87l0.33-1.25l3.11-1.37l-0.5-1.39l-3.5-1.92
		l-3.7,1.67l-0.93,1.51l-2.53,1.18l-4.22,3.52l-4.261,1.2l-0.77-0.33l-0.58-1.92l-2.82,0.97l-0.989-0.33l-1.801-2l0,0l2.631-4.86
		l-0.341-1.19l-1.93-0.97l0.021-1.66l-1.171-1.42l0.12-0.93l1.92-2.32l-0.52-1.31l1.95-4.69l0,0l0.569-0.46l1.931,1.64l3.779,1.03
		l5.211-3.5l0.51-1.99l8.51-2.29l0.53,0.44l0.01,1.19l-2.99,3.21l-0.819,2.7l-1.471,0.94l-0.08,1.72l3.53,0.52l0.92,1.84l3.15-1.26
		l3.72,0.22l0.89,1.17l-0.52,1.54l0.83,0.74l2.35-0.93l0.5-0.74l0.55-1.21l-0.63-2.36l0.48-0.59l1.01,0.32l-1.25-2.31l0.31-1.48
		l1.82-1.35l1.38-0.05l0.94,1.88l3.95,0.75l5.83-0.39l4.63,1.4l5.47-0.43l0,0l0.09,2.4l1.45,4.39l-0.521,2.91l1.091-2.24l0.01,1.98
		l0.59,1.01l-0.27,5.18l-0.36,0.6L610.43,199.15z"/>
	<path id="BR-PE" fill="#1E3250" stroke="#1E3250" stroke-width="0.5" d="M558.28,227.19l-1.23-3.98l-2.109-0.86l-0.95-1.2
		l0.609-0.89l-0.47-0.94l-1.43,0.45l-0.72,1.89l-0.931-1.91l-1.58-1.15l-5.35-1.17l-1.351-0.81l-0.829-1.44l-1.49-0.56l-4.771,2.01
		l-0.77,2.05l-2.521,0.7l0.08,1.95l-1.1,1.24l-2.39,1.03l-2.171-0.42l-1.27,4.44l-4.65,2.03l-1.84-0.62l0.92-1.68l-0.26-2
		l-2.21-0.91l-1.1-5.18l-2.811-1.38l-4.26-0.43l0,0l2.62-1.27l2.51-2.58l3.26-1.61l3.891-3.87l0.739-1.76l0.061-2.27l-1.91-2.12
		l0.07-2.19l-0.66-2.08l0.63-0.78l1.79-0.16l0,0l5.82,0.44l3.77-0.99l4.37,0.32l4.68,2.73l1.471,2.06l2.14,1.05l0.63,1.64l1.65-0.05
		l1.54-2.29l2.659-1.32l0,0l1.801,2l0.989,0.33l2.82-0.97l0.58,1.92l0.77,0.33l4.261-1.2l4.22-3.52l2.53-1.18l0.93-1.51l3.7-1.67
		l3.5,1.92l0.5,1.39l-3.11,1.37l-0.33,1.25l0.721,1.87l-2.74,3.52l1.95-0.54l1.14,0.32l0.29,3.03l2.55,1.73l2.99-1l1.78-1.53
		l0.399-0.48l-0.399-1.27l1.43-1.45l1.82-0.1l2.159-1.52l6.061-0.03l0.8-1.13l3.15-0.43l1.899-1.03l0.45-1.8l1.48-1.28l2.31-1.07
		l3.47,0.47l2.5,2.06l0,0l0.88,0.23l0.551,1.22l-1.38,2.27l1.17,2.41l-5.21,15.33l0,0l-5.091-1.29l-4.029,1.48l-2.24-0.85l-2,0.24
		l-3.85,3.98l-1.811,1.11l-1.16-0.05l-1.859,1.06l-4.311-0.18l-2.5,0.65l-3.689-1.53l-4.45-4.14l-2.75-0.18l-1-1.22l-3.29,4.58
		l-2.17,0.76L558.28,227.19z"/>
	<path id="BR-PI" fill="#1E3250" stroke="#1E3250" stroke-width="0.5" d="M505.7,126.91l4.24,0.4l1.31,1.45l0,0l-2.78,4.62
		l-0.18,1.46l5.68,14.16l1.36,1.59l-0.76,2.12l0.79,3.87l-0.48,1.6l1.601,5l-0.591,1.58l-0.8,0.58l1.03,1.07l0.7,8.61l1.81,7.77
		l1.01,2.67l3.87,1.12l0.771,1.16l-2.65,6.05l0.76,1.65l-0.06,1.32l0,0l-1.79,0.16l-0.63,0.78l0.66,2.08l-0.07,2.19l1.91,2.12
		l-0.061,2.27l-0.739,1.76l-3.891,3.87l-3.26,1.61l-2.51,2.58l-2.62,1.27l0,0l-1.95,3.46l-1.05,0.67l-2.79,0.2l0.11,2.4l-1.86,1.8
		l-0.94-0.67l-2.159-0.01l-1.591,1.34l-2.729,0.34l-2.33,2.56l-6.18,0.85l-0.82-0.28l-0.06-0.94l-1.711-0.98l-1.329-0.39
		l-3.521,0.98l-0.729-1.11l-1.5-0.46l-1.95,0.02l-3.24,1.65l-0.06,0.93l2.239,4.44l-0.17,3.72l-3.92,6.82l-2.97,2.42l-1.351,0.42
		l-2.819-0.7l-2.2,0.75l-1.84,1.76l-1.141,0.38l-1.079,1.66l-2.11-0.18l-1.8,0.52l-4.181-1.85l-1.77-2.49l-1.19-3.25l-1.439-1.34
		l-2.33,0.02l0,0l-2.94-0.21l0,0l0.311-2.98l1.149-2.45l0.13-6.36l0.79-1.91l-1.729-3.06l-1.17-5.13l0.729-2l1.7-1.4l1.67-4.82
		l1.74-2.95l2-8.27l2.13-1.95l6.4-1.44l1.7-1.53l2.39-0.56l2.86-2.57l2.34-0.91l5.04-5.47l4.649-0.99l3.521,2.03l1.51-0.1l2.44-0.86
		l3.76-0.05l1.21-1.31l1.17-6.16l-3.561-3.44l-0.619-4.41l0.17-2.48l4.31-4.98l-0.45-5.41l-1.58-2.8l1.42-4.34l-0.38-1.27
		l-1.229-0.84l-0.351-1.92l4.12-5.05l0.88-1.83l-0.04-1.79l2.921-3.41l4.119-0.3l5.92-6.24l0.391-1.53l-0.86-1.25l0.46-1.44l0,0
		L505.7,126.91z"/>
	<path id="BR-PR" fill="#1E3250" stroke="#1E3250" stroke-width="0.5" d="M396.75,499.4l-5.24-0.03l-2.07,0.68l-0.87-0.46
		l-1.57,0.57l-4.7,3.56l-2.67-0.779l-4.16-2.99l-5.93,0.89l-3.34-0.649l-1.53,0.649l-1.32,2.34l-1.87,0.98l-3.57-0.41l-2,1.15
		l-1.41,2.359l0.85,2.99l-2.71,1.75l-1.33-1.89l-8.01-0.301l-2.77-2.22l-4.26-0.359l-5.29-1.681l-5.03,0.54l-2.34-1.92l-1.06-0.24
		l-4.87,0.34l0,0l-0.22-1.21l-2.53-4.18l0.02-2.59l-0.99-2.88l-3.42-2.37l-1.09,1.13l-2.12-0.11l-2.17,1.33l-1.46-1.08l-0.82,0.061
		l-0.28-2.2l2.95-5.02l-0.41-2.33l2.16-6.66l-0.25-2.3l1.28-2.38l-1.36-3.5l1.45-1.601l0,0l2.38-1.56l1.93-8.74l3.77-2.36l2.36-7.04
		l6.52-3.09l0,0l3.26-2.29l3.83,0.65l7.28,0.18l2.29-1.59l7.81,2.62l4.96-0.42l2.53,1.84l3.51,0.8l1.34,1.83l2.15-0.27l2.31,0.689
		l5.31,0.13l2.97-0.85l1.13,1.55l3.59,2.83l0.89,1.76l0.01,2.74l-0.55,1.39l0.38,1.84l1.3,1.511l-0.44,2.319l1.49,3l2.38,2.11
		l0.87,2.86l0.85,0.729l-1.52,3.181l0.32,2.039l1.61,0.591l5.8-0.65l3.67,0.33l1.61,1.26l-1.03,1.061l-0.69,3.3l0.351,0.78
		l1.069,0.529l1.75-3.609l2.9,0.409l-0.4,1.95l0.73,3.3l1.42,0.58l0.16,1.32l0,0l-1.35,1.021l-0.61,1.479l-0.55-0.12l0.27-1.939
		l-0.859-0.181l-1.78-0.58l-0.82,1.301l0.521,0.8l-1.03,1.06l-3.72-0.95l0.16,1.271l1.61,0.56l1.4-0.25l2.399,1.08l-0.97,0.681
		l-1.54,2.779l-3.66,1.34l-0.2,0.45l2.95-0.2L396.75,499.4z"/>
	<path id="BR-RJ" fill="#1E3250" stroke="#1E3250" stroke-width="0.5" d="M468.35,450.28l0.311-1.05l3.189,0.22l2.591-0.59
		l-3.931-2.061l-2.81,0.681l-1.36,1.6l-1.729,0.27l-1.351-2.149h-0.479l-1.87,1.479l-3.15,0.801l-0.529,2.81l2.189,0.13l1.07,1.01
		l-1.15,1.08l-2.359-0.01l0,0l-2.11-1.99l1.04-3.91l1.09-1.149l2.35-1.01l3.271-0.221l1.5-0.71l1.649-2.149l-0.75-1.641l-4.84,0.511
		l-1.77-0.391l-1.8-2.76l-1.271-0.54l0,0l6.021-2.57l3.08,0.101l6.859-3.32l4.07,0.17l3.44-1.16l2.529,0.271l0.471,0.63l1.38-0.2
		l12.029-5.52l-0.069-1.131l-1.44-0.13l0.09-0.75l4.25-9.76l-0.729-0.71l1.8-0.76l2.53-2.36l0,0l1.93,0.76l0.67,4.71l6.83,2.141
		l2.99-0.37l1.62,1.06l0,0l-1.23,5l1.14,6.78l-3.58,2.43l-5.97,1.94l-2.83,1.72l-3.5,3.69v4.46l-0.729,1.479l-1.82,0.511l-6.55-0.17
		l-5.79,0.699l-2.39-0.46l-0.551-1.06l1.7-2.93l-0.09-0.62l-0.78-0.181l-2.79,1.15l-0.26,0.689l1.68,1.971l0.25,0.97l-0.59,0.521
		L468.35,450.28z M463.24,452.27l-0.67-0.97l2.109-1.55l2.301,1.64l-2.461,0.5l-0.88-0.35L463.24,452.27z"/>
	<path id="BR-RN" fill="#1E3250" stroke="#1E3250" stroke-width="0.5" d="M609.29,182.91l-5.47,0.43l-4.63-1.4l-5.83,0.39
		l-3.95-0.75l-0.94-1.88l-1.38,0.05l-1.82,1.35l-0.31,1.48l1.25,2.31l-1.01-0.32l-0.48,0.59l0.63,2.36l-0.55,1.21l-0.5,0.74
		l-2.35,0.93l-0.83-0.74l0.52-1.54l-0.89-1.17l-3.72-0.22l-3.15,1.26l-0.92-1.84l-3.53-0.52l0.08-1.72l1.471-0.94l0.819-2.7
		l2.99-3.21l-0.01-1.19l-0.53-0.44l-8.51,2.29l-0.51,1.99l-5.211,3.5l-3.779-1.03l-1.931-1.64L553.74,181l0,0l-1.3,0.21l0.34-1.97
		l2.25-3.13l2.319,0.18l2.03-2.61l1.4-2.44l0.5-2.41l1.71-1.69l3.3-6.69l2.61-2.01l4.89-1.59l0,0l1.33,1.51l4.35,0.4l1.69,1.75
		l1.32,0.5l3.329-0.32l2.881,0.52l4.869-0.97l5.771,0.96l1.95,0.86l1.66,1.76l2.31,4.74l2.15,9.6l0.72,0.54L609.29,182.91z"/>
	<path id="BR-RO" fill="#1E3250" stroke="#1E3250" stroke-width="0.5" d="M187.32,290.95l-1.29-1.45l-0.44-1.88l-1.56-0.52
		l-2.67,0.4l-4.07-1.81l-0.67-1.01l-1.27,0.59l-3.5-2.65l-1.14-2.85l-1.04-0.39l-1.77,1.12l-1.22-0.03l-1.41-0.8l-0.87-1.33
		l-3.13-1.58l-1.96-0.17l-2.04,1.39l-6.94-1.26l-1.94-1.62l-0.3-1.97l-3.47-1.46l-1.11-1.92l-3.1-0.63l-0.84-3.71l-0.88-0.89
		l-0.48,1.16l-0.66-0.32l-0.27-0.64l0.62-1.53l-0.84-1.52l-1.36-0.39l-1.26-3.47l-0.17-1.66l1.55-2.91l-0.21-1.66l-1.91-4.13
		l-0.06-2.29l2.04-2.92l0.36-1.47l-0.75-3.91l0.54-1.65l-1.17-2.18l-1.02-0.38l-1.99,2.45l-2.75-1.02l-5.18,0.08l-8.78,2.25l0,0
		l-2.97-1.26l0,0l3.26-2.56l1.92-0.58l1.55-1.81l-0.01-1.85l6.83-0.07l3.4,2.68l1.22-0.79l0.54-1.25l3.22-0.76l3.14-2.23l1.02,2.35
		l1.36,0.45l2.54-3.16l-0.26-1.75l0.53-0.84l1.75-1.26l3.09,0.67l1.2-1.07l2.13-0.38l3.87,0.46l-0.13-3.27l2.06-1.21l1.17-2.17
		l-1.07-1.15l0.05-0.67l1.19-1.59l2.74-0.75l-0.09-1.17l1.72-0.5l1.38-2.56l10.79-0.06l2.15,1.13l1.25,2.4l1.33,1.27l2.54,0.98
		l1.25,3.27l2.06,0.28l0.68,2.88l3.24,1.48l0.68-0.19l0.54-1.74l1.92-1.08l1.39,0.28l0.32,1.08l0,0l1.4,0.97l0.6,1.24l-2.05,6.41
		l1.1,1.43l0.98,3.66l-0.94,1.67l0.38,1.93l-1.03,4.32l0.27,1.76l1.5,2.75l-0.9,9l17.16,0.05l-0.24,0.56l1.22,1.11l3.5-0.09
		l2.18,0.54l1.41,3.59l-1.57,2.5l-1.36,1.08l-0.14,1.32l0.43,3.25l1.48,0.48l1.53,3.34l0.54,3.54l-0.63,3.95l-1.66,2.01l-1.1,3.09
		l-2.07,0.94l-0.93,1.08l-1.95,6.23l-5.58,4l0,0l-3.33-1.59l-1.27-1.43l-7.08,0.96l-1.57-0.73l-3.38,0.66l-1-1.51L187.32,290.95z"/>
	<path id="BR-RR" fill="#1E3250" stroke="#1E3250" stroke-width="0.5" d="M234.61,61.4l1.6,16.97l0,0l-18.49-0.07l0.03,0.68
		l-3.99,6.29l-1.22,3.77l0.12,1.39l1.14,1.41l-0.44,0.92l-2.03,0.55l-2.66,1.87l-1.82-0.23l-0.92-2.51l-1.87-2.04l-2.83-0.93
		l-1.6,0.061l-0.55,0.89l-3.37,1.4l-1.02,1.26l-0.82,2.97l0.12,3.53l-0.75,2.29l0.44,2.11l-2.36-1.04l-1.87,0.35l-2.52-3.69
		l-2.48-1.35l-5.01-4.42l0.14-1.14l1.84,0.33l1.2-1.9l-1.13-4.33l-1.8-1.74l-0.88-2.17l-0.29-4.98l1.34-4l-1.02-3.17l1.62-1.46
		l-0.92-1.57l-0.19-2.26l-1.66-4.76l-2.73-3.74l1.62-4.82l-2.44-1.61l-3.21-0.27l-1.21-1.17l-0.06-0.96l-2.37,0.3l-1.47-1.12l0,0
		l0.23-2.96l-7.12-0.09l-3.31-0.7l0.72-3.84l-3.4-7.37l-0.47-3.72l0.79-1.48l-0.08-0.96l-6.81-5.84l-1.35-2.77l-1.39-1.04l0.32-1.17
		l2.02,0.73l0.94,1.73l4-0.41l3.26,0.69l1.7,3.48l2.65-1.13l3.18,0.16l2.38,1.41l0.52-0.14l0.61-1.56l1.31,0.14l1.45,0.93l3.93,4.57
		l1.76,0.68l1.51-0.68l0.74-1.13l-0.73-3.6l0.36-1.74l2.39-0.33l2.56-2.19l4.65,1.39l2.42-1.19l2.16,0.14l1.34-1.28l3.26-0.09
		l0.68-0.85l0.05-1.35l3.03-1.81l5.09-0.2l1.57-2.96l2.6-1.03l2.21-2.75l-1.2-3.56l-1.17-0.36l6.44,0.11l1.8-1.17l1.37,0.42
		l2.05,3.48l-0.67,4.9l-0.72,1.38l-1.25,0.7l0.06,0.83l3.23,0.19l4.17,1.91l-0.88,1.43l-0.01,1.15l2.34,3.42l0.2,1.55l-1.51,2.92
		l-1.88,1.41l-0.72,1.5l0.33,2.56l-1.47,2.41l-1.21,5.34l-0.09,2.67l0.98,1.87l0.5,3.16l2.47,1.23L222.5,53l1.81,0.29l-0.66,1.17
		l2.61,1.24l4.12,4.66L234.61,61.4z"/>
	<path id="BR-RS" fill="#1E3250" stroke="#1E3250" stroke-width="0.5" d="M321.99,638.52l-2.5-1.56l0.52-4.27l-0.31-5.32l6.6-7.74
		l-1.46-1.649l-3.32-1.221l-2.32-2.25l-1.21-1.62l-0.53-2.77l-3.29-4.271l-3.06-1.8l-1.45,0.21l-1.9-1.51l-2.77-2.41l-0.14-1.7
		l-1.9-2.159l-3.32-0.461l-2.65-2.13l-1.76,0.13l-2.17-1.38l-3.02-5.199l-2.53-2.12l-0.7,0.08l-0.67,1.79l-2.59,2.239l-2.67,0.12
		l0.5-4.14l-0.39-1l-3.65-4.29l-8.99-8.15l-4.05,0.07l-2.23,3.29l-4.85-0.32l-1.3-1.609l1.89-0.94l2.52-2.77l0.71-3.091l2.75-0.779
		l0.92-1l5.45-6.48l1.62-3.6l2.57-1.26l2.06-4.83l3.58-3.03l2.7-4.54l2.5-0.11l0.55,0.79l0.47-1.279l-1.56-1.4l0.3-0.69l1.9-1.34
		l2.79-0.95l1.97-2.899l2.21-1.15l2.47-0.399l1.77-1.811l1.47-3.42l0.67,0.521l1.33-0.171l5.12-1.72l1.21-0.569l2.1-2.351l1.17-0.38
		l1.01-1.35l2.31-0.73l0.3,0.38l0,0l3.52,0.391l3.26-1.15l0.56-0.81l1.35,0.579l-0.15,0.921l3.08-0.03l1.63,0.99l2.56-0.37
		l1.92,1.149l6.92-0.39l4.74,2.32l1,2.439l1.59,0.19l0.09-0.48l1.81-0.35l5.56,3.54l1.37,1.55l2.27,0.95l7.32,9.84l7.86,1.61
		l2.11-0.4l3.35,0.34l0.88,2.34l-3.35,1.99l-0.73,1.86l-0.16,3.75l-0.52,1.3l-1.18,0.2l-1.29,1.689l-0.03,1.41l1.8,1.17v-2.13
		l1.49-0.82l3.93,2.37l0,0l-5.3,8.771l-4.21,11.6l-6.3,10.48l-5.44,6.659l-6.51,5.961l-6.09,3.68l-3.1,4.31l0.81-4.189l-1.08-2.13
		l0.93-0.17l2.59,1.02l3.4-2.09l3.6-4.4h1.47l1.05-0.84l1.3-2.75l0.15-4.4l1.57-0.069l1.01,1.13l0.35-0.26l-0.29-1.4l0.51-2.07
		l3.22-2.159l0.73-1.08l0.26-5.03l0.56-0.68l0.5,0.8l0.8-0.391l0.47-3.079l-1.05-1.66l-0.67-0.03l-0.58,1.85l-3.52,0.38l-0.34,1.61
		l-0.53,0.05l-0.81-0.439l0.1-1.71l-0.82-0.891l-1.04,0.33l-0.6-0.479l-1.65-3.971l-0.61,2.711l0.44,2.25l1.25,2.109l-1.31,3.351
		l0.2,3.8l-1.17-2.99l-1.97,5.3l0.17,2.41l-2.33,1.34l-0.61,1.58L344,594.23l-0.63,3.859l-0.97,2.271l-2.36,1.3l-0.11,1.76
		l0.73,1.85l-0.95,0.561l-0.25,1.51l0.43,0.601l1.98,0.489l0.15,0.91l-2.13,1.65l-2.32,4.52l-1.93,6.88l-2.01,4.49l-1.68,2.521
		L321.99,638.52z"/>
	<path id="BR-SC" fill="#1E3250" stroke="#1E3250" stroke-width="0.5" d="M379.3,558.01l-3.93-2.37l-1.48,0.82l-0.01,2.13l-1.8-1.17
		l0.04-1.41l1.28-1.689l1.18-0.2l0.53-1.31l0.15-3.75l0.73-1.86l3.34-2l-0.88-2.34l-3.35-0.341l-2.11,0.4l-7.86-1.6l-7.32-9.84
		l-2.28-0.95l-1.37-1.55l-5.56-3.54l-1.81,0.34l-0.09,0.479l-1.6-0.189l-1-2.44l-4.74-2.319l-6.92,0.39l-1.91-1.15l-2.57,0.36
		l-1.63-0.98l-3.08,0.03l0.15-0.93l-1.35-0.58l-0.56,0.81l-3.26,1.16l-3.52-0.39l0,0l2.19-5.021l-0.58-3.25l0.38-5.76l0.96-1.75l0,0
		l4.87-0.34l1.06,0.24l2.34,1.92l5.03-0.54l5.29,1.68l4.26,0.36l2.76,2.22l8.01,0.29l1.33,1.9l2.71-1.761l-0.85-2.989l1.41-2.36
		l2-1.14l3.57,0.399l1.87-0.97l1.32-2.351l1.53-0.649l3.34,0.649l5.92-0.899l4.16,3l2.67,0.77l4.7-3.56l1.56-0.57l0.87,0.46
		l2.07-0.68l5.24,0.03l0,0l-0.39,1.319l0.439,2.04l-1.5,1.141l-0.98-0.48l-0.25,1.311l2.28,2.6l-1.01,2.29l-0.16,2.32l0.86,1.159
		l0.26,5.86l0.75,0.75l0.77-0.51l0.45,1.59l-0.899-0.22l-1.19,0.63l-0.34,3.84l0.57,2.59l-0.57,0.75l1.22,3.8l-1.38,6.351
		l-1.71,4.68l-0.7-0.859l0.21-0.971l-0.92-1.18l-0.26,0.33l0.18,2.43l1.16,0.83l-0.92,1.66l-1.64,0.65l-6.93,5.6L379.3,558.01z
		 M397.18,531.46l0.851-4.63l-0.25-2.2l1.63-0.7l0.66,0.94l-0.54,2.56l-1.41,2.08l0.2,1.17L397.18,531.46z M396.73,507.09
		l-1.871-2.02l2.8-2.391l0.649,1.051L396.73,507.09z"/>
	<path id="BR-SE" fill="#1E3250" stroke="#1E3250" stroke-width="0.5" d="M569.94,261.69l-2.9,0.89l-4.49-2.62l-0.72-0.93l0.32-2.2
		l-4-5.27l0.89-2.65l1.7,0.01l1.13,0.75l2.55-0.99l0.99-1.13l-0.76-2.75l0.739-2.5l0.08-3.11l-2.739-3.1l-1.271-2.5l-0.22-2.14
		l0.67-1.15l0,0l6.46,2.98l3.68,0.95l5.42,3.07l1.3,2.45l7.471,4.5l0.6,1.31l0,0l-2.38,0.76l-4.57,2.94l-2.52,3.1l-1.26-2.94
		l-0.99,0.16l0.34,1.16l1,0.45l-0.05,1.76l-1.271,2.09l-0.899-1.02l-0.99-0.16l1.33,1.3l-0.26,1.77l-1.79,3.18l-0.78,0.15l0.18-1.86
		l1.09-1.6l-0.81-0.37l-1.09,3.4l0.28,0.72L569.94,261.69z"/>
	<path id="BR-SP" fill="#1E3250" stroke="#1E3250" stroke-width="0.5" d="M404.58,487.92l-0.16-1.33l-1.42-0.57l-0.73-3.3l0.4-1.95
		l-2.9-0.409l-1.76,3.62l-1.06-0.53l-0.351-0.78l0.69-3.3l1.03-1.061l-1.61-1.27l-3.68-0.32l-5.8,0.65l-1.61-0.59l-0.33-2.04
		l1.52-3.181l-0.85-0.729l-0.86-2.85l-2.38-2.11l-1.49-3.01l0.44-2.311l-1.3-1.52l-0.38-1.84l0.56-1.391l-0.02-2.74l-0.89-1.76
		l-3.59-2.83l-1.13-1.55l-2.97,0.86l-5.31-0.13l-2.31-0.69l-2.14,0.271l-1.34-1.83l-3.51-0.801l-2.54-1.84l-4.96,0.42l-7.81-2.619
		l-2.29,1.59l-7.29-0.181l-3.83-0.649l-3.25,2.29l0,0l2.83-3.761l7.56-4.539l1.95-1.87l3.39-5.33l1.44-1.03l-0.07-2.06l3.21-4.61
		l-0.23-2.87l3.79-4.55l0.78-4.61l1.74-0.939l3.21-3.71l3.29-1.051l0.68-2.85l0,0l3.37-2.24l1.92-0.37l1.43-1.689l1.5-0.61
		l2.48,1.681l6.84,1.05l5.28-0.721l3.85,2.2l0.19,2.34l1.21,2.091l1.17-0.301l1.08-2.069l0.81-0.141l0.61,1.351l0.01,2.779l1.2,0.53
		l0.41-0.45l-0.27-2.54l0.94-1.67l8.18-0.67l1.01-1.25l2.62,1.88l2.779-0.689l0.551-2.05l2.38-0.11l1.66,0.78l2.149-0.931
		l3.26,3.351l0.2,1.04l-0.859,3.38l2.46,1.82l0.399,1.55l-1.58,2.59L418,413.68l1.1,1.36l0.37,2.21l1.3,1.8l0.801,2.83l3.67-0.77
		l3.93,1.689l-0.75,3.45l-1.859,2.72l0.069,6.391l-0.53,1.56l0.721,1.601l3.59,2.06l0.51,1.72l-1.21,0.7l2.021,3.311l3.14,0.01
		l0.18,0.53l3.62-1l0.561,0.42l1.31-0.32l0.75-0.98l-0.021-3.369l1.19-0.33l-0.25,1.319l4.73-0.17l4.939-2.93l2.21-0.22l1.24-0.73
		l0,0l1.27,0.54l1.801,2.76l1.77,0.391l4.84-0.511l0.75,1.641l-1.649,2.149l-1.5,0.71l-3.271,0.221l-2.35,1.01l-1.09,1.15
		l-1.04,3.909l2.109,1.99l0,0l-1.76,0.62l-1.06-0.82l-2.4,2.62l-5.48,2.25l-0.069,3.38l-1.4,0.261l-2.03-0.931l-3.979-0.35
		l-3.06,1.16l-1.711,2.649l-1.31,0.57l-0.5-0.12l0.58-0.47l-0.48-1.22l-1.17-0.851l-0.83,1.23l-0.04,1.359l-7.619,4.24l-0.95,0.82
		l-0.311,1.16l-3.27,3l-3.25,1.949l-1.92,0.53l-7.5,5.24l-0.44,0.62l1.55,0.49l0.931-0.36v0.76L404.58,487.92z M448.89,464.91
		l-3.189-0.84l2.13-3.28l1.39,0.9l0.13,2.909L448.89,464.91z"/>
	<path id="BR-TO" fill="#1E3250" stroke="#1E3250" stroke-width="0.5" d="M433.35,281.82l-5.359,1.42l-4.3,2.44l-6.08,1l-4.301,2.98
		l-1.97-2.86l-0.55-0.03l-0.51,3.3l-0.69,0.08l-3.35-0.68l-3.13-1.47l0.34-2.3l-4.53,0.53l-2.76-0.34l-1.61,2.29l-1.14-0.05
		l-1.72-6.81l-2.19-3.19l-2.65,3.36l-1.63,5.94l-0.63,0.23l-7.16-3.14l-3.93-0.4l-4.6-1.43l0.52-2.34l1.22-1.88l0.03-1.71
		l-2.37,2.39l-1.2,3.56l0,0l-1.76-0.53l-0.98-3.34l0.74-2.76l-0.44-3.05l-0.52-0.58l0.46-4.88l-1.1-2.25l1.03-2.26l-1.39-1.34
		l-0.06-0.86l1.88-5.99l0.58-5.92l2.74-6.41l0.44-3.14l1.1-1.25l1.21-2.91l0,0l1.62-3.69l1.13-4.45l4.58-6.28l3.15-1.93l2.82-5.77
		l1.09-0.8l1.76-5.15l0.66-4.04l-2.56-2.36l-0.76-1.83l2.84-4.36l-0.49-4.85l2.66-2.13l5.91-2.35l0.09-2.01l0.86-1.27l1.511-1.34
		l1.29-0.15l0.149-3l2.101-0.94l0.93-2.75l-1.021-1.34l-0.09-1.4l1.98-0.73l0.399-1.3l-2.52-1.62l-1.021-1.66l-3.159,0.13
		l-2.291-0.81l0,0l3.15-2.49l2.83-0.48l2.78,1.52l4.09-0.15l0.95,2.04l4.62,1.46l0.84,1.03l1.109,5l-0.21,3.72l0.891,2.65
		l-1.771,6.15l-0.279,4.96l-1.75,2.04l-1.761,0.67l-0.18,0.71l1.94,1.32l1.79-0.03l0.359,1.23l-0.62,1.19l0.851,1.44l0.88-0.07
		l6.189,8.03l2.141-1.34l4.27-0.94l1.8,1.22l-0.56,5l0.39,1.35l-3.39,0.35l-1.91,1.09l-1.41,4.11l0.37,1.3l-2.89,3.25l3.22,1.4
		l1.42,4.29l3.88,1.95l0.09,0.53l-1.64,1.81l0.13,1.65l2.141,1.62l0.989,2.87l1.341,2l3.489,0.27l2.71,1.92l0,0l2.94,0.21l0,0
		l-1.47,2.1l-3.82,2.02l-3.21,2.62l1.1,2.17l-2.27,1.27l-1.521,3.49l-1.51,1.88l0.23,0.92l1.859,1.95l3.59,0.67l1.87,0.99l0.05,0.76
		l-2.6,1.26l-0.43,0.96l0.439,0.83l1.95,0.11l0.87,1.15l-4.06,2.8l0.109,5.02l2.4,1.15l0.22,1.48l-1.36,2.38L433.35,281.82z"/>
</g>
</svg>
