<?xml version="1.0" encoding="utf-8"?>
<!-- Generator: Adobe Illustrator 15.0.0, SVG Export Plug-In . SVG Version: 6.00 Build 0)  -->
<!DOCTYPE svg PUBLIC "-//W3C//DTD SVG 1.1//EN" "http://www.w3.org/Graphics/SVG/1.1/DTD/svg11.dtd">
<svg version="1.1" id="Layer_1" xmlns:amcharts="http://amcharts.com/ammap"
	 xmlns="http://www.w3.org/2000/svg" xmlns:xlink="http://www.w3.org/1999/xlink" x="0px" y="0px" width="240px" height="768px"
	 viewBox="416.5 0 240 768" enable-background="new 416.5 0 240 768" xml:space="preserve">
<defs>
	
	
		<amcharts:ammap  projection="mercator" leftLongitude="-109.450502" topLatitude="-17.498982" bottomLatitude="-55.906121" rightLongitude="-66.428316">
		</amcharts:ammap>
</defs>
<g>
	<path id="CL-AI" fill="#1E3250" stroke="#1E3250" stroke-width="0.5" d="M520.19,472.64l0.529-1.409l-1.56,0.199l-1.42-0.67
		l-2.57-2.529l-2,0.819l-1.02-0.16l-0.32-0.689l0.21-1.04l1.5-0.26l0.51-0.811l-1.399-2.34l0.409-1.27l3.311-0.471l5.35-3.819
		l2.17-5.591l0.091-1.869l-1.91,1.539l-2.63-2.17v-0.56l-3.271-1.09l-1.78-1.7l0.04-1.25l2.03-1.8l1.7-4.21l2.439-0.641l-0.09-0.54
		l0,0l4.88,0.95l1.75-2.439l0.681,0.27l1.159,2.65l1.841,1.08l0.369,1.3l1.99-0.22l0.2-0.79l2-0.98l1.55,0.48l0,0l0.73,1.399
		l-2.44,4.42l0.3,3.29l-0.8,0.87l1.061,0.71l5.37-0.149l2.92,0.59l1.239,2.09l-1.159,1.13l-0.511,3.09l-0.739,1.03l-1.311-0.04
		l-1.729-1.05l-2.301,0.779l-1.67-0.55l-0.989,0.74l-2.931-0.77l-0.489,0.659l0.21,2.29l6.89,1.48l3.6,5.14l0.44,1.49l-2.4,3.48
		l-4.03,1.64l-0.59,3.46l0.551,2.439l1.479,0.7l0.64,1.9l-2.3,2.86l-1.93,0.659l2.21,2.011l1.05,8.989l-2,2.11l-1.79,0.63
		l-0.53,4.53l1.62,2.189l-0.08,1.65l-2.13,1.23l-2.02,2.8h-1.38l-1.33,0.81l-0.13,0.59l0.729,0.57l-0.3,1.9l-2.92,6.739l0.29,0.96
		l2.75,2.49l0.43,5.74l-4.32,2.68l0.49,7l-2.76,2.771l-3.23,1.09l-1.35,1.93l-1.28,4.011l0,0l-12.76-11l0,0l-1.51-0.79l-2.04,0.439
		l-1.19-2.479l2.79-2.9l2.2,1.521l0.36-2.87l-3.011-1.32l1.61-0.68l-2.07-0.79l-3.199-3.23l-2.24-1.149l0.21-1.62l1.5-0.92
		l2.52,1.39l1.03,3.54l0.88,0.91l0.43-0.13l-2.04-4.69l3.58-0.2l1.61,1.101l2.71-0.38l2.54,2.289l0.57,2.301l0.87-1.49l2.029,0.46
		l0.92-0.92l0.16-1.29l-0.189-0.47l-0.11,1.14l-1.13,0.91l-1.59-0.96l-2.261-2.92l-0.13-1.61h1.19l1.17,1.61l3.72,0.38l-1.6-0.84
		l-1.9,0.05l-3.42-3.93l-0.34-1.62l1.13-1.48l-0.97-2.14l-0.65,1.34l0.63,0.87l-0.609,3.16l-2.32,1.279l-1.42-0.38l-0.36-0.89
		l-4.67-0.85l-3.279,0.529l-1.74-1.27l1.95-2.96l0.909-0.47l1.62,0.279l2.19,3.761l1.38,0.18l-1.12-0.21l-0.62-1.21l0.59-1.011
		l2.99-0.27l-0.22-1.69l-1.5,1.04l-1.95,0.29l-3.17-3.55l2.97-4.49l2.09-0.119l0.96,2.789l-0.38-2.779l2.75-3.75l-1.41-1.23
		l-1.43,0.23l-1.55-2.391l-0.271-1.739l-1.05-0.44l-3.97,0.4l-0.05,1.17l2.63,0.359l-0.95,0.9l-7.18-3.13l-0.99-2.54l1.96-2.46
		l-0.07-1.38l-1.939,2.71l-1.521,1.09l-3.46,0.479l-2.359,1.101l-0.49,1.64l2.26-1.649l0.771,0.26l1.1,3.39l-2.07,1.601l-1.13-0.29
		l-2.029-3.07l0.08-3.29l0.89-1.33l1.09,0.04l2.43-1.91l-0.1-0.72l0.979-1.07l0.95-0.51l0.67,0.84l0.28-2.229l1.58-1.74h1.87
		l1.92-2.1l2.09-5.83l4.36-0.7l0.75,0.88l2.27-0.75l0.641,0.75l0.75,2.25l-0.601,2.74l-0.87,1.17l1.21-0.79l0.3-2.34l1.11,1.09
		l0.061,1.03l-1.46,1.899l-3.36,1.39l-2.46-1.34l2.16,1.67l4.069-1.38l0.591,1.891l2.01,1.18l-2.19-2.75l0.811-1.44l0.97-0.09
		l1.85,2.101l-0.649,2.979l-2.641,3.55l1.7,0.91l6.391-10.87l-3.73,4.931l0.96-4.73l-0.64-2.12l1.739-3.47l2.171-2.35l2.93-0.53
		l-1.95-0.66l-1.16,0.26l-2.52,2.63l0.93-6.54l4.26-3.109l2.851,2.97L520.19,472.64z M520.26,457.88l-3.77,3.47l-2.021,0.591
		l-1.87-2.351l1.5-0.689l1.36,0.22l-1.31-0.74l-1.28,0.561l-1.05-2.891l0.68-1l1.99-0.33l0.68-3.229l3.26-0.99l3.25,2.05l0.73,1.29
		l-1.431,2.101l-2.27-0.65l2.02,1.33L520.26,457.88z M487.11,539.87l-0.521,0.22l-0.64-1.54l-0.53-3.069l0.35-1.25l-1.439-0.86
		l-1.46,0.62l-0.83-0.42l0.31-0.73l2.03-0.66l0.64-0.92l-2.729,0.57l-0.68-4.87l1.09-1.31l2.069-0.58l4,10.689l0.061,2.24
		L487.11,539.87z M495.33,539.71l-1.74-1.25l-3.56-0.68l-0.511-1.95l1.561-2.11l1.109-0.069l1.221,1.85l0.68-0.84l-1.46-2.66
		l1.06-4.42l0.851,3.74l1.3,2.319l-0.13,3.58l0.7,0.95l0.26-0.79l0.63,0.28l-0.29,1.47L495.33,539.71z M489.6,534.4l-2.409-4.601
		l-0.841-3.34l3.061,0.55l3.34,1.79l-0.49,3.87L489.6,534.4z M508.01,468.84l-1.399-0.91l-2.4,0.061l-1.59-1.88l-1.63,0.42
		l-0.2-1.891l0.89-0.93l4.69-0.53l2.04,2.63L508.01,468.84z M499.67,524.6l-2.56-1.479l2.909-2.311l5.19,1.69l1.2-0.5l0.56,0.41
		l-0.29,1.33l-0.729,0.34l-3.36-0.3L499.67,524.6z M500.45,459.27l-1.58-1.079l-0.36-2.5l2.16-0.551l3.521,0.141l1.71,1.41
		L500.45,459.27z M488.95,485.34l-0.351-1.29l2.04-0.5l-0.46-0.53l-1.14,0.131l-0.56-2.33l0.539-0.28l1.73,0.81l3.16-2.02
		l-1.15,4.67l-1.75,1.59L488.95,485.34z M481.36,539.64l2.329-1.55l-1.319,0.49l-1.64-0.45l0.399-3.689l4-0.23l0.29,3.56l-2.51,1.98
		L481.36,539.64z M497.67,478.85l-0.56-1l0.689-0.979l-0.25-2.89l1.021-1.921l1.699,1.011l0.931,2.87l-0.38,0.92L497.67,478.85z
		 M491.57,526.43l-2.021-0.739l0.101-0.671l-0.67-0.329l-1.431,1.02l-1.34-0.13l1.22-1.521l1.87-0.5l3.09-2.689l0.33,4.88
		L491.57,526.43z M509.13,478.48l-1.84-1.841l-0.04-2.8l1.44-1.81l1.439,0.58L509.13,478.48z M500.25,463.74l-1.19-0.29l0.131-0.69
		l2.609-2.3l2.82,0.68l0.82,1.091L500.25,463.74z M507.81,457.99l-1.09-1.271l-0.05-1.899l1.891-0.82l1.439,3.36L507.81,457.99z
		 M504.29,442.06l-2.45-1.119l0.17-1.23l3.38-0.4l0.79-0.699l1.37,2.46l-1.28,0.109l-0.359-0.979l-1.21,0.149l0.49,1.061
		L504.29,442.06z M504.18,470.3l-1.89-0.68l-0.15-1.89l1.091-0.4l0.8,1.06l2.55,0.021l0.53,0.58l-0.12,1.16L504.18,470.3z
		 M496.71,532.17l-1.05-2.229l0.47-2.44l2.84,2.92L496.71,532.17z M507.42,487.68l-2.3-2.87l0.36-1.079l1.14-0.061l2.07,1.25
		L507.42,487.68z M498.48,454.15l-1.58-0.381l-0.42-1.38l3.229-1.3l0.71,0.24l0.641,1.33l-2.74,0.729L498.48,454.15z M504.38,477.74
		l-1.06-0.311l-0.71-1.87l1.17-1.59l1.88,1.601l-0.4,1.71L504.38,477.74z M481.25,541.96l-0.52-0.35l0.02-1.62l1.91,0.439
		l2.35-1.939l0.67,0.47l0.28,1.13l-0.52,0.62L481.25,541.96z M502.21,474.8l1.13-3.17l2.41,1.01l1.01-0.25l-0.63,2.16l-2.58-1.01
		L502.21,474.8z M501.76,507.58l-0.83-1.21l0.61-1.86l2.17-0.08l0.81,0.63l-1.479,1.99L501.76,507.58z M506.4,462.27l-1.221-1.489
		l-0.1-1.48l0.729-0.75l0.74,0.32l0.9,2.31l-0.11,1.07L506.4,462.27z M500.31,534.9l-3.109-2.431l2.08-1.52l0.7,0.29l-0.221,1.22
		l1.34,1.71L500.31,534.9z M494.21,477.89l0.46-2.319l1.66-0.83l-0.4,3.33l-0.63,0.33L494.21,477.89z M505.49,483.13l-0.53-1.24
		l0.61-1.12l2.5-1.47l0.38,1.88l-1.47-0.17l-0.721,1.84L505.49,483.13z M487.36,521.51l-0.101-0.76l-1.58-0.63l2.301-1.561
		l1.119,1.921l-0.6,1.02l-1.4,0.42L487.36,521.51z M503.86,481.69l-1.171-2.69l1.011-1.02l0.979,0.35l0.04,0.689l-0.109,1.811
		L503.86,481.69z M498.71,460.32l-1.14-0.601l-0.75-1.92l1.279-0.25l1.62,2.32L498.71,460.32z M498.67,471.12l-1.7-1.13l-0.02-1.04
		l1.88,0.09l0.95,1.97L498.67,471.12z M503.55,454.29l-1.2-0.51v-1.67l2.44,0.729l0.149,1.21L503.55,454.29z M516.06,443.82
		l-1.76-1.29l0.46-1.08l1.221-0.561l0.489,0.66L516.06,443.82z M504.09,449.81l-1.21-0.92l-0.46-1.71l0.87-0.96l1.6,1.761
		l-0.819,0.3L504.09,449.81z M509.08,445.96l-1.41-2.77l0.38-1.141l1.34,1.4l0.311,1.38L509.08,445.96z M498.01,536.13l-0.84-2.72
		l2.74,1.72L498.01,536.13z M499.41,469.12l-1.19-1.17l0.4-1.72l1.71,1.159l-0.43,1.771L499.41,469.12z M497.55,457.11l-2.31-0.021
		l-0.641-0.59l0.87-0.93l0.851,0.029l1.3,0.37L497.55,457.11z M497.57,507.29l-0.23-1.64l2.28-0.5l-0.17,1.06L497.57,507.29z
		 M488.75,461.66l-0.92-1.97l0.82-1.051l0.989,1.431V461L488.75,461.66z M504.66,451.84l-1.48-0.79l-0.5-1.35l2.49,0.6l0.07,1.63
		L504.66,451.84z M499.56,454.76l-0.619-0.899l1.09-0.66l1.42-0.12l0.76,1.07L499.56,454.76z M503.25,535.4l-1.63-1.03l-0.89-1.521
		l1.01-0.029l1.55,1.09L503.25,535.4z M508.62,483.96l-1.98-0.92l0.9-1.78l0.79,0.561L508.62,483.96z M508.57,459.86l-0.771-0.53
		l-0.01-1.09l1.8-0.41l0.021,1.85L508.57,459.86z M506.09,447.18l-1.58-0.359l-0.479-0.721l1.37-0.859l1.239,1.22L506.09,447.18z
		 M503.59,460.29l-2.03-0.86l3.12-0.739l0.03,1.04L503.59,460.29z M490.01,520.42l-0.79-0.66l-0.18-1.37l1.49,0.25l0.72,0.94
		l-0.07,0.54L490.01,520.42z M493.01,456.88l-0.56-1.18l0.25-1.561l1.149,0.94l-0.22,1.479L493.01,456.88z M505.32,471.86
		l-1.391-0.44v-0.46l2.761-0.29l0.01,0.66L505.32,471.86z M506.24,449.93l-1.41-0.27l-0.25-0.88l2.439-0.141l0.08,1.03
		L506.24,449.93z M517.82,438.01l1.33-0.569l1.14,0.729l0,0L517.82,438.01z"/>
	<path id="CL-MA" fill="#1E3250" stroke="#1E3250" stroke-width="0.5" d="M515.79,615.45l-0.8-0.17l-0.49-1.25l-0.64-7.05L513,605.7
		l1.46,10.47l-0.55,1.04l-3.53-2.99l-1.2-4.75l0.71-0.439l2.38,4.8l0.461-0.16l-2.66-6l1.64-1.42l-2.06,0.59l-1.2,1.59l-1.29-3.33
		l-1.63-0.489l0.01-5.591l1.3,0.41l1.46,1.681l1.5,3.63l-2.479-9.271l0.569-0.39l0.681,1.49l-0.29-2.49l-0.67-0.141l-2.021,2.021
		l-2.609-0.76l-0.641-0.511l-0.34-2.55l-1.19-0.89l-0.159-2.41l0.96-1.04l3.859-0.24l0.811,1.03l1.42-5.72l1.68-0.38l1.43,1.55
		l0.431-0.99l-2.141-1.189l-0.989-1.591l1.699-1.27l0.45-1.88l-2.87,3.1l-0.7,4.931l-1.77,1.609l-1.37-0.16l-1.08-1.27l-2.41-6.51
		l1.07-0.37l2.74,1.55l1.85,0.3l-3.26-2.399l-2.44-0.221l-5.649-4.939l0.26-1.23l1.2-1.08l3.37-0.3l2.06,2.86l3.42,1.56l1.37,0.021
		l-4.399-1.92L498.89,568l0.48-1.42l0.979,0.13l2.051,1.74l3.33,1.38l-0.141-1.28l-6.04-3.29l-0.34-1.47l2.21-1.11l1.71-0.09
		l0.14-0.68l-3.35,0.52l-0.32-2.55l1.11-1.13l2.21-0.74l1.99,0.48l0.95,2.37l1.87,1.359l0.369,1.3l0.16-0.699l-0.64-1.83
		l-1.351-0.36l-0.31-2.75l-3.37-1.07l0.6-4.8l2.15,1.84l0.99-0.01l-1.351-0.68l-0.8-1.32l-0.43-3.5l1.22-1.47l1.63,0.63l-0.04-0.48
		l-0.88-0.47l-2.14,0.24l0.02,2.85l-1.54,3.601l-0.939,4.649l-2.25-2.29l-0.311-10.069l-0.77-3.181l1.02-1.899l1.011,0.55l1.34-0.67
		l2.1,0.47l0,0l12.76,11l0,0l1.15,0.32l-0.7,0.8l-4.67,0.16l-1.67,5l0.95,1.41l0.979,4.069l-1.17,1.36l-0.359,1.94l1.199,1.35
		l-0.939,2.62l2.9,2.87l0.779,1.75l0.69,6.01l1.31,3.85l1.69-0.46l1.59-1.84l1.99-1.05l1.8,1.149l2.11-1.539l1.72,0.25l1.09,0.859
		l-0.64,1.76l1.37,2.761l-0.33,3.51l-0.971,0.53l-0.87,1.67l0.271,1.149l1.8,1.79l-0.88,1.67l-0.51,3.94l-0.75,0.66l1.58,4.17
		l2.189,1l2.5,2.63l0.7,3.25l27.2,0.01l7.64,3.4l3.24-0.01l5.76,3.159l5.59,1.141l-0.079,1.14l-0.961-1.229l-6.17-0.82l-2.979-1.91
		l-1.66,0.021l-2.87,1.409l-0.3,2.66l-2.63,3.38l-1.93-0.649l-1.471,0.33l-8.29,4.43l-4.479,0.66l-0.45,3.43l0.44,2.7l-1.91,4.59
		l-0.66,4.74l0.81,5.109l-0.569,3.82l-1,1.5l-3.38,1.521l-2.391-1.221l-3.5-0.6l-2.2-1.63l-3.72-1.32l-2.46-2.56l-2.33-4.21
		l0.42-2.021l1.98-1.76l2.439,0.3l0.25,3.09l-1.89,1.141l1.74-0.141l1.319-0.93l-0.029-3.53l2.1-0.45l1.15,4.91l-0.891,1.25
		l-2.22,1.301l-0.01,0.689l2.97-1.26l0.6-1.2l0.23-5.88l5.84-2.73l2.85-4.979l-0.539-1.84l-2.61-0.46l-3.62,1.979l-4.19,2.91
		l-1.72,2.96l-1.22,0.2l-1.65-2.03l-1.17-0.41l-3.04,0.78l-0.399,0.47l2.58-0.14l2.489,2.51l-2.159,1.05l-2.04-0.92l-0.69,0.36
		l0.36,0.62l1.26,0.47l-1.4,2.75l-1.189-0.05l-0.67-0.891l1.31,2.301l0.8-0.44l1.45,2.22l-0.04,1.03l-1.52,0.23l-7.99-6.28
		l-1.08-0.3l-2.2-2.67l5.05,0.079l2.7,3.16l0.62-0.08l0.23-1.239l-1.391-1.37l0.49-0.98l1.45,0.15l-1.65-0.67l-1.13,0.66l-1.23-1.07
		l0.841-1.75l-1.021-2.18l-0.12-1.851l3.4-2.62l1.94,1.19l2.3,0.38l3.569-3.89l2.33-0.341l1.601,1.15l1.47,0.21l2-0.17l2.5-1.17
		l-0.98-1.74l-8.35-1.08l-2.57,0.21l-1.55,3.12l-1.79-1.52l0.681-1l1.479-0.601l-0.3-0.399l-1.83,0.76l-3.48,0.13l-1.55,1.93
		l1.271-0.39l1.83,0.7l0.04,0.54l-1.721,2.229l-2.159,1.11l-0.78,1.16l0.83,3.03l-0.471,1.93l-3.17,0.979l-1.64-0.689l-1.86-1.771
		l3.051-2.64l-1.74-0.25l-2.83-1.81l0.72-0.58l1.67,0.5l2.23-0.271l-0.351-1.62l2.211-4.93l0.6-0.34l2.4,0.569l-1.74-0.84
		l-1.94,0.19l-0.29,2.09l-1.359,2.12l-0.881-0.21l-0.529-1.721l-2.76,2.36l-0.75,1.351l-1.171-0.561l0.15-2.87l1.89-1.33l-0.68-0.22
		l-0.97-2.57l0.239-1.14l0.83,0.18l0.37-1.229l-0.26-2.17l-1.979-3.19l-0.12-1.38l0.77,0.08l1.92,3.5l1.11-0.47l2.03,1.189
		l1.159-0.45l1.08-2.14l2.54-0.95l-0.01,2.7l1.71,1.771l1.16-4.67l-1.29,3.26l-0.95-0.69l-0.01-1.979l1.17-2.971l0.85-0.439
		l1.53,1.13l-0.06,1.31l2.33,3.57l-0.591,2.811l-5.02,3.02l0.42,0.16l4.53-1.96l1.279-1.33l0.33-2.62l-2.58-3.53l-0.25-1.979
		l0.461-0.431l1.64,0.261l0.88-0.87l-0.71-4.4l-2.93-3.3l-2.9-0.88l-2.84-2.33l-1.79,0.45l-0.2,0.859l1.47-0.279l2.49,1.05
		l3.83,3.649l2.26,1.03l-1.09,2.12l-1.33,0.12l-1.35-1.44l-6.681-3.689l0.811,2.2l1.91,0.14l1.35,1.54l-0.88,1.479l-1.87,0.66
		l1.71-0.25l1.4-1.04l0.64,0.95l-3.03,1.83L515.79,615.45z M580.49,679.66l-0.101,2.47l-3.51-2.11l2.01,2.41l-0.77,0.63l-3.76,0.61
		l-8.341-3.19l0.37-3.09l-1.239,0.78l-0.37,2l-7.67,1.11l-0.61-1.53l1.17-2.51l-1.77,3.06l-3.75-0.17l-1.92,0.84l-1.04-0.68
		l0.68-0.87l3.55-1.88l1.061-1.87l-1.33,0.08l-0.95,1.05l0.479,0.66l-2.97,1.15l-1.38-0.061l-0.32-0.77l2.101-0.67l-1.4,0.06
		l-2.37,2.25l0.94-3.87l-0.62-0.14l-0.63,1.2l-1.74,0.979l-1.311-0.58l-0.42-0.62l0.53-1.87l-1.01-1.359l-0.95,0.79l-1.17,3.34
		l-2.81-2.08l-1.98,1.17l-1.85-0.021l-0.71-2.13l0.38-2.77l2.14,2.29l2.12,0.74l1.33-0.69l-1.65-1.92l-1.85-0.26l-0.29-1.011
		l0.81-0.47l0.83,0.021l1.391,2.34l1,0.42l1.09-0.66l-1.48-0.65l-0.149-1.27l2.189,0.86l1.011-0.471l-0.67-0.399l0.81-0.78l5.69,2.4
		l0.439-3.11l1.78-0.59l2.81,0.64l-1.399,2.65l-0.591,3.399l0.49-0.58l1.08,0.95l-0.899-1.989l1.67-3.311l4.31,4.22l2.17-0.529
		l-4.439-2.88l-1.41-3.23l-4.28-0.8l-1.021-2.88l0.54-0.17l7.62,4.529l2.92,2.61l1.03-1.37L558.69,669l-0.431-0.891l2.04-1.569
		l1.17,1.17l2.83,6.32l0.46-1.9l-2.029-4.03l0.359-0.729l8.59,3.84l0.351,0.97l-2.67,3.58l0.6,1.48l1.37-3.53l0.91-0.351l0.55,1.29
		l0.399-0.659l-0.079-2.45l2.27,0.34l0.021-0.89l-1.341-0.971l-13.63-7.09l-1.88-6.33l0.46-2.27l3.24-2.09l2.14-0.24l5.891-3.33
		l-0.101-3.83l-2.989-0.49l-4.57,0.65l-4.63,2.89l-3.26-2.51l-0.49-2.08l0.52-6.33l1.28-1.58l0.22,2.25l2.12-0.57l1.28-2.569
		l-0.17-0.63l-1.48-0.261l-1.08-1.979l-1.8-0.141l0.25-0.689l3.63-0.7l1.96,2.47l1.28,0.011l3.03-2.131l1.42-2.64l-0.06-2.18
		l2.729-1.62l3.78,5.25l2.609-0.88l2.23-1.65l2.76,1.521L580.49,679.66z M493.34,569.41l-1.53-1l0.4-0.771l1.7-1.17l0.8,0.55
		l-1.05-1l-2.07,1.24l-0.479-5.979l0.5-3.261l3.26-3.85l-4.15,3.98l-0.33-1.341l-0.5,0.641v2.56l0.601,1.07l-0.75,4.89l-1.811-1.109
		l-2.17-4.74l0.07-2.83l-1.09-1.51l-0.94,0.489l-0.439-3.069l1.159-0.74l1.421,3l1.659,1.81l-2.18-4.109l0.05-1.04l0.67-0.17
		l1.521,1.8l1.359-2.07l-0.329-0.899l2.449,2.859l1.29-5.22l-2.029-2.31l-1.301-3.2l0.171-0.95l1.029-0.78l3.34-1.71l2.851,0.681
		l0.25,0.88l1.14,11.979l-1.12,5.08l0.33,0.98l-1.37,2.93l0.94-0.96l-0.02-0.891l0.89-0.189l0.76,2.49l-0.92,4.6l-2.12,2.19
		L493.34,569.41z M581.48,692.68l-1.551-1.529l-0.92,0.399l1.99,2.141l2.7-0.61l3.53,1.67l-0.08,1.72l1.449,0.09l-0.59,1.32
		l0.88,1.48l1.12,0.27l-0.17,2.01l-1.24,1.17l-2.229-2.46l-0.39-2.159l-1.561-1.32l-1.59,0.56l-0.96-0.87l-2.7-0.04l-1.71,1.04
		l-1.271-1.25l-0.409-0.819l0.47-0.71l2.15-0.311l0.199-1.26l-1.819,0.65l-0.21-0.48l1.42-3.79l-3.141,1.97l-2.359-1.109l-0.71-2.17
		l-2.53,0.7l1.88,0.029l0.4,1.49l-1.511,0.57l-0.22,1.029l1.22,1.891l0.04,1.53l2.24,0.359l-0.37,1.75l-2.21-0.569l-1.47,0.279
		l-0.93-2.18l1.39-1.29l-1.4-0.59l-1.14,1l-0.55-1.07l-1.29-0.59l0.51-1.61l2.29-1.689l-5,2.03l-0.88-0.851l1.09-0.39l-0.87-0.94
		l-1.819-0.34l1.939-2.24l9.98-1.96l5.149-0.16l1.33-0.85l3.23-0.43l1.51,0.6l1.12,2.19l-0.17,0.649l-3.521,1.891l-2.6-0.261
		l-3.58-2.72l-0.57,0.601l4.03,3.14l5.63,0.22l2.45,2.07l-0.08,0.479L581.48,692.68z M514.02,656.32l0.7-0.49l0.141-2.311
		l-4.65,0.971l1.33-1.09l-0.13-0.971l-1.42-0.029l-0.3-1.271l0.439-0.729l1.28,0.229l1.07-0.65l2.319,2.301l4.261,0.17l-0.021-0.63
		l-1.7,0.369l-2.859-0.75l-2.061-3.75l4.53,1.021l-0.98-2.12l1.38-0.46l2.33,0.64l0.5,5.95l0.961-3.27l-0.73-1.8l1.04,0.38
		l1.61,2.93l1.22-0.98l2.1,0.62l0.49,1.62l-1.11,0.59l0.601,1.601l1-1.34l1.899,0.89l1.36,1.77l-1.48,1.721l-1.5-0.29l-0.92,0.79
		l0.021,1.72l1.31,0.64l-0.06,1.12l-1.46,0.15l-1.5,1.3l-1.26-0.87l-2.83,1.7l-2.88-1.36l3.55-1.529l0.7-4.141l-1.051-0.56
		l-1.75,1.27l-1.25-0.08l-0.66-1.39l-1.039,4.77l-1.29-0.59L514.02,656.32z M588.59,682.59l9.061,0.271l2.93,0.8l2.39,3l-0.54,3.08
		l-2,2.689l-0.76,0.19l-2.16-0.73l0.24-1.779l-1.479-1l-1.21,0.43l-0.561,1.979l-3.28-0.649l0.4-0.28l-0.45-1.21l-3.24,1.26
		l-0.569-0.63l-0.79-5.43l-1.58,0.14l-0.62-1.399L588.59,682.59z M513.18,642.96l1.12-0.13l2.66,1.84l0.01,0.61l-5.52-0.91
		l-0.22-0.93l-5.521-5.341l-2.479,1.011l-3.671-0.32l-1.399-2.7l-2.32-1.14l-0.13-2.431l-2.1-1.619l0.6-0.91l0.84,0.43l4.01,4.95
		l1.58,0.36l1.721-0.66l5.859,3.34l1.59-0.25l0.7,0.99l-0.22,1.89l0.68,1.66l0.761-0.86l-0.431-1.8l0.38-0.27l2.23,2.21
		L513.18,642.96z M542.86,660.77l0.34,1.511l1.149,0.25l1.271-0.561l1.1,0.96l0.32,4.061l-1.89,2.82l-3.2-1.79l-1.36-2.551
		l0.04-0.81l0.93-0.5l-0.55-0.9l-1.17,0.971l-0.66,2.399l-1.689-0.51l-0.45-1.26l0.79-1.811l-0.36-2.8l0.7-1.09l2.03-0.09
		L542.86,660.77z M553.63,665.98l-2.45-1.11l-1.739-1.68l-0.841-1.561l-0.27-4.09l1.58-1.06l2.359,0.689l0.061-0.97l-1.2-0.96
		l-0.06-2.24l1.39-0.99l0.771-1.899l0.88-0.301l0.01,3.921l2.04,6.89l-0.351,0.7l-1.479-0.07l-2.73-2.85l0.08,1.38l1.761,3.729
		L553.63,665.98z M537.32,659.09l-0.71,0.74l0.92,2.97l-1.091,1.561l-1.26-0.42l-1.5-3.311l-0.38,0.36l0.54,2.34l2.45,2.72
		l-1.26,2.51l-1.57-0.18l-0.07-1.81l-3.859-4.17l-0.49-3.73l0.899-0.1l1.841,1.06l0.97-2.439l0.66-0.32l4.109,1.66L537.32,659.09z
		 M489.18,574.81l-2.54,3.141l-1.189-0.141l-0.061-0.54l1.49-2.289l-3.45,1.21l1.21-4.73l1.65,0.37l-1.21,0.63l0.33,0.75l2.49,0.48
		l-0.211-1.78l-3.18-1.96l-0.25-0.8l1.16-0.92l2.67,0.67l1.87,2.279l-1.01,1.17l2.95-0.529L492,571l0.8-0.02l-0.14,1.92
		L489.18,574.81z M493.94,593.01l-2.341-1.12l-1.13-2.54l0.62-1.479l3.271,0.83l1.069-0.59l0.04-2.21l-1.01-1.15l0.39-0.42
		l3.53,2.33l0.55,4.35l-0.43,1.471l-1.08-2.051l-1.78,1.03l-0.39,1.13L493.94,593.01z M556.1,682.38l0.54,0.2l-2.75,1.17
		l-0.109,1.05l-2.771-0.109l-0.34,0.52l3.44,0.78l2.909-0.28l0.311,1.99l-0.8,0.46l-1.29-1.13l-0.53,0.97l0.979,0.57l-0.05,0.59
		l-2.1,0.97l-0.49-0.57l0.21-1.64l-0.81-0.96l-1.32,1.11l-4.39-2.061l0.29-2.31l1.569-0.34l4.2,0.85l-0.43-0.73l1.439-0.829
		L556.1,682.38z M501.21,587.15l-0.86-1.48l-0.71,0.59l-2.779-1.76l-0.8-2.56l2.069-2.07l-3.439-1.07l1.489-1.22l2.83,1.5
		l2.601,6.24L501.21,587.15z M562.42,685.95l0.09-1l-0.75-1.05l0.32-1.551l1.13-0.46l2.32-0.229l7.359,2.25L562.42,685.95z
		 M505.37,630.17l-2.29-2.81l1.28-2.011l3.55-2.689l0.95,1.689l-0.82,2.91l-1.11,2.24L505.37,630.17z M490.12,601.28l-0.37-0.82
		l3.21-2.72l-1.99,1.07l-0.35-1.15l2.27-2.44l2.561-0.38l1.1,1.96l-0.29,2.19l-1.06,0.77l-0.681-1.8l-1.5,2.32L490.12,601.28z
		 M485.3,585.82l-1.819-0.67l-0.83-2.311l1.229-1.25l0.76,0.271l-0.359-1.71l-0.9-0.7l0.71-0.931l4.59,0.82l-1.51,2.18l-1.109-0.35
		l0.079,3.72L485.3,585.82z M487.41,566.08l-1.4-1.54l0.23,1.3l-0.53-0.03l-1.84-2.689l-1.88,1.41l-0.62-3.79l0.58-0.771l2.89-0.05
		l2.29,4.22L487.41,566.08z M490.4,616l-1.28-3.4l1.47-3.68l0.34,1.28l1.45-0.49l-0.43-2.76l-1.03-1.78l0.92-0.62l1.13,0.66
		l0.341,3.01l-1.69,6.11L490.4,616z M486.3,548.11l-0.92-2.761l-2.53,1.99l-1.989-1.56l0.25-2.5l1.1-0.37l3.45,0.62l1.43,3.529
		L486.3,548.11z M490.65,552.37l-1.33-1.58l-2.74-1.15l1.67-2.79l2.061,0.131l1.159,1.18l-0.46,4.64L490.65,552.37z M485.55,604.88
		l-0.069-2.12l1.199-1.609l0.25-3.69l1.181-0.97l1.79,1.59l-0.011,1.62l-1.02,0.03l-1.101,3.85L485.55,604.88z M502.13,622.37
		l-1.17-1.521l-0.1-1.819l0.489-0.471l1.34,0.521l-0.569-1.25l-3.811-1.17l1.46-1.45l5.36,5.54l-0.61,0.78L502.13,622.37z
		 M482.65,552.24l-2.021-1.26l0.78-1.551l1.229-0.439l2.46-2.891l0.811,2.351L482.65,552.24z M494.25,588.03l-3.39-1.08l-0.29-2.32
		l0.93-1.36l0.99-0.35l1.08,0.91l1.17,2.6L494.25,588.03z M501.87,612.19l-3-1.421l-1.84-4.1l1.84,0.62l4.03,3.16L501.87,612.19z
		 M546,683.78l-2.06-1.2l-1.921,1.189l-0.949-0.27l-0.67-1.49l0.75-1.399l4.67,1.319l1.06-0.58l1.18,1.71L546,683.78z
		 M508.11,618.46l-2.11-2.95l-3.41-2.26l0.75-2.13l4.12,3.7l1.17,3.189l-0.07,0.79L508.11,618.46z M503.87,608.72l-3.05-2.25
		l0.09-0.64l1.28-0.13l0.739-1.271v-1.72l2.33,5.04L503.87,608.72z M598.94,704.65l-0.11-0.9l-2.93-0.44l-0.061-0.64l0.19-1.22
		l2.45-2.21l1.689,4.66L598.94,704.65z M491.81,616.54l-0.38-0.58l2.03-6.3l2.19,0.01l-2.4,5.53L491.81,616.54z M528.45,662.35
		l1.22,1.61l-1.33,2.62l-2.37,0.13l-0.609-1.36l2.06-2.989L528.45,662.35z M506.46,622.39l-1.06-2.1l-2.431-2.67l0.53-1.07
		l3.86,3.141l0.359,2.199L506.46,622.39z M512.3,645.99l0.49,0.439l-1.01,1.37l1.01,1.65l-1.34,0.75l-4.42-3.4l2.54,1.061l1.21-0.46
		l-0.591-0.601l0.2-0.91L512.3,645.99z M487.03,546.23l-1.46-4.2l1.779,0.51l1.45,1.41l0.17,1.75L487.03,546.23z M498.1,595.15
		l-1.899-0.91l-0.62-1.42l1.57-1.75l1.52,2.39L498.1,595.15z M500.18,595.42l-0.84-6.63l0.65,0.58l1.47,5.61l-1.01,1.109
		L500.18,595.42z M557.08,667.12l-2.65-0.99l-0.67-1.07l0.19-1.02l3.8,1.54l0.21,0.79L557.08,667.12z M514.54,663.72l-2.78-1.54
		l1.12-1.029l2.93,0.659l0.301,1.44L514.54,663.72z M605.61,690.65l0.38,2.13l-0.73,0.439l-2.39-0.26l0.26-1.89L605.61,690.65z
		 M516.8,614.47l0.8-2.729l2.4-1.101l-1.44,3.63L516.8,614.47z M503.08,599.03l-0.42-3.19l1.58-0.14l0.59,2.24L503.08,599.03z
		 M488.13,542.77l-1.68-1.39l2.55-2.88l0.17,1.43L488.13,542.77z M493.41,579.28L493,579.01l0.44-2.14l0.96-0.67l2.02,0.399
		L493.41,579.28z M498.09,559.71l0.04-4.1l1.98,2.68L498.09,559.71z M488.42,610.97l0.54-3.66l1.16-0.54l0.35,0.65l-0.59,2.48
		L488.42,610.97z M502.27,600.71l-1.6-1.12l-0.18-2.32l1.1-0.39l1.01,2.4L502.27,600.71z M609.71,691.97l-0.8-0.38l0.15-1.7
		l1.239-0.899l1.53,0.47l-1.12,2.08L609.71,691.97z M554.46,680.93l0.82,0.98l-3.86,0.6l-0.939-0.79l2.21-0.93L554.46,680.93z
		 M489.04,585.96l-0.67-1.81l0.47-1.36l1.271-0.07l0.05,3.46L489.04,585.96z M526.05,670.88l-1.1-2.06l1.59-0.91l1.84,0.66
		l-0.069,0.76L526.05,670.88z M493.89,614.78l2.561-3.21l0.5,0.31l0.109,1.5l-3.13,1.92L493.89,614.78z M556.05,664.22l-1.81-1.37
		l-0.16-0.869l2.55-0.57l0.37,1.149L556.05,664.22z M506.44,650.63l-0.46-1.25l0.3-2.06l2.33,1.59L506.44,650.63z M512.56,635.5
		l-0.6,0.02l-0.58-0.71l0.53-0.42l-1.061-0.529l-3.119,0.21l2.51-1.13l2.09,0.6l0.76,0.86L512.56,635.5z M507.08,609.12l-0.86-0.41
		l-1.12-3.18l2,1.47l0.42,0.96L507.08,609.12z M595.05,707.46l-0.609-1.33l-2.7,0.42l0.06-1.13l4.681-0.08l-0.171,1.49l-1-0.021
		L595.05,707.46z M603.53,684.81l2.239,0.771l0.75,2.13l-3.659-2.21l0.04-0.74L603.53,684.81z M493.54,620.63l-1.021-2.05l2.82-0.54
		l-0.95,2.18L493.54,620.63z M507.22,598.91l-1.17-0.33l-0.649-1.25l1.22-1.21l1.03,1.2L507.22,598.91z M489.88,540.83l-0.55-0.46
		l0.75-1.59l2.34,0.31L489.88,540.83z M493.2,617.63l-0.23-1.479l2.511-1.48l-1.011,2.51L493.2,617.63z M593.39,700.46l0.37-2.77
		l0.721-0.5l0.869,2.21L593.39,700.46z M558.77,685.12l-0.579-0.36l0.369-0.66l2.65-1.08l-0.31,1.381L558.77,685.12z M503.39,642.55
		l-1.1,1.62l-1.55-0.16l1.939-2.029L503.39,642.55z M600.25,707.28L598,705.39l2.25,0.2l0.54,1.59L600.25,707.28z M506.19,611.03
		l-1.311-0.38l0.49-2.08l1.38,1.72L506.19,611.03z"/>
	<path id="CL-TA" fill="#1E3250" stroke="#1E3250" stroke-width="0.5" d="M557.07,25.98l2.29-0.11l4.449-3.06h3.9l2.23,1.67
		l2.22-0.28l0.28-1.67l1.39-1.39h2.15l0,0l0.75,2.08l6.489,5.53l-3.46,4.05l2.33,3.2l-0.77,2.06l-2.95,0.92l1.16,3.37l-0.73,0.53
		l0.22,1.16l3.87,2.72l-1.39,1.56l0.1,2.43l0,0l-3.649-0.41l-1.84,0.4l0.46,0.9l3.229,0.72l-1.33,3.79l-1.319,0.57l-11.23,2.65
		l-5.59-0.56l0,0l-1.63-6.27l0.39-2.11l-1-1.08l1.22-12.48L557.07,25.98z"/>
	<path id="CL-AN" fill="#1E3250" stroke="#1E3250" stroke-width="0.5" d="M582.34,51.41l1.16,0.01l3.35,5.43l0.04,4.75l1.15,2.07
		l0.28,3.29l2.01,2.19l0.16,2.98l1.18,3.9l-0.38,4.189l1.18,0.76l3.05,0.36l5.631-1.22l2.6,2.78l-4.77,15.72l-13.051,5.84
		l-0.93,1.53l-1.02,0.11l-1.671,2.59l-0.899,2.23l3.07,4.8l-2.011,0.78l-0.54,1.54l0,0l-1.35,0.14l-1.85,1.47l-3.29,0.66l-1.75,3
		l0.14,2.76h-4.17l-0.561,1.67l-1.39,0.28l-1.39,1.67l-3.36-3.19l-2.09-0.19l-3.45,2.08l-3.7,0.65l-2,1.83l0,0l0.4-1.52l-1.43-2.75
		l1.39-3.9l2.6-3.16l0.24-1.65l-2.13-8.49l1.19-9.47l-0.181-3.94l1.72-4.48l-1.369-1.729l-0.7,0.99l-1.21-0.22l0.67-6.66l1.01-0.8
		l0.39,1.05l1.311-0.39l1.399-2.63l-0.34-1.48l2.21-17.07l1.44-3.76l0,0l5.59,0.56l11.23-2.65l1.319-0.57l1.33-3.79l-3.229-0.72
		l-0.46-0.9l1.84-0.4l3.649,0.41l0,0L582.34,51.41z"/>
	<path id="CL-AT" fill="#1E3250" stroke="#1E3250" stroke-width="0.5" d="M581.39,119.24l-0.34,2.38l1.47,3.84l1.33,6.55l-2.34,2.28
		l-0.279,3.18l4.1,6.12l-0.39,2.09l-4.591,1.83l-2.3-0.32l-1.37,3.91l-2.41,4.25l-1.489,5.14l-1.681,0.72l-0.779,2.07l-4.33,4.42
		l-0.2,2.81l-1.09,1.521l0.319,2.06l-0.989,4.82l-1.54,0.7l-1.82,2.47l0.96,4.16l0,0l-1.71-0.16l-5.59-2.23l-0.26-2l-3.46-3.45
		l-1.551,0.72l-1.67,3.9l-2.229,0.28l-2.04-3.69l-3.28,0.73l0,0l-0.12-5.08l2.931-3.21l0.189-1.83l1.7-3.35l0.83-8.11l1.38-2.67
		l1.34-0.84l0.311-2.18l-1.061-4.91l2.58-3.03l-0.55-1.93l1.86-4.83l0.779-4.12l-0.29-3.38l0,0l2-1.83l3.7-0.65l3.45-2.08l2.09,0.19
		l3.36,3.19l1.39-1.67l1.39-0.28l0.561-1.67h4.17l-0.14-2.76l1.75-3l3.29-0.66l1.85-1.47l1.35-0.14l0,0L581.39,119.24z"/>
	<path id="CL-CO" fill="#1E3250" stroke="#1E3250" stroke-width="0.5" d="M539.84,180.34l3.28-0.73l2.04,3.69l2.229-0.28l1.67-3.9
		l1.551-0.72l3.46,3.45l0.26,2l5.59,2.23l1.71,0.16l0,0l-0.1,1.76l0.91,2.35l-0.29,3.27l1.33,3.12l-1.521,2.98l-2.78,1.11l-1.1,1.96
		l-1.49,4.37l0.3,3.38l-3.21,2.14l-0.56,2.7l-0.38,4.01l1.819,4.47l3.15,1.76l-0.39,1.74l-1.2,0.74l0.399,2.99l0,0l-1.739-0.07
		l-0.34-1.19l-2.12-0.57l-1.71-2.04l-4.341,0.13l-1.42,1.67l-3.56,0.65l0,0l0,0l0,0l-1.44-0.46l-0.64,0.56l0,0l0.38-6.91
		l-2.21-10.12l0.25-2.92l-0.77-3.7l0.35-6.89l0.47-1.13l1.41,0.31l2-1.75l0.94-3.79l0.71-0.72l-0.721-2.65l0.44-5.35l-0.66-1.87
		L539.84,180.34z"/>
	<path id="CL-RM" fill="#1E3250" stroke="#1E3250" stroke-width="0.5" d="M560.41,265.31l-0.11-0.7l-1.5-1.02l-0.189-2.18
		l-2.38-0.12l-0.431-2.72l-0.819-0.46l-5.33,1.68l-1.87,2.17l-0.011,1.11l-1.17,0.27l-1.399,0.02l-1.16-1.7l-1.79-0.77l-0.9-1.66
		l-2.3,0.13l-1.41-0.58l0,0l0.761-0.49l0,0l0.46-1.57l2.31,0.22l0.7-0.75l0.62-2.34l-0.73-2.81l1.82-1.78l0.28-1.95l2.739-0.84
		l-0.1-3.52l3.89-0.77l2.07,0.6l1.26,1.92l1.59-0.71l2.45,1.75l1.91-1.43l0,0l0.061,2.16l1.35,2.02l1.04-0.98l0.74,0.07l1.02,0.57
		l0.41,1.84l-1.35,2.85l-0.5,3.8l1.239,7.79l-1,0.75L560.41,265.31z"/>
	<path id="CL-VS" fill="#1E3250" stroke="#1E3250" stroke-width="0.5" d="M539.21,229.77l0.65-0.56l2.029,0.49l2.96-0.68l1.431-1.67
		l4.34-0.13l1.71,2.04l2.12,0.57l0.34,1.19l1.74,0.07l0,0l1.09,0.75l1.31,3.91l2.74,3.18l0.13,1.41l-2.12,3.98l0,0l-1.909,1.43
		l-2.45-1.75l-1.59,0.71l-1.261-1.93l-2.06-0.6l-3.9,0.78l0.101,3.52l-2.75,0.84l-0.28,1.96l-1.82,1.77l0.74,2.82l-0.62,2.33
		l-0.7,0.75l-2.319-0.21l-0.46,1.57l0,0l-1.341,0.87l0,0l-0.5,0.63l-2.079-0.5l0,0l0.92-2.73l1.789-0.89l0.431-1.55l-1.53-8.9
		l2.66-1.62l1.75-5.8l0.57-4.55L539.21,229.77z M2.95,147.41l-2.94,1.05l0.74-2.08l2.47,0.48L2.95,147.41z"/>
	<path id="CL-AR" fill="#1E3250" stroke="#1E3250" stroke-width="0.5" d="M511.23,336.25l1.949,1.17l3.74-3.68l0.44-1.351
		l-1.28-2.09l2.11-3.09l0.159-1.62l-1.399-0.82l1.31-1.64l1.95-0.29l1.71,1.021l3.16,0.439l2.15,3.26l2.3,0.91l2.149,2.261
		l4.811,0.26l0.71,4.029l0.689,0.73l0.65-1.16l2.19-1.09l0.46-0.84l5.68-0.24l0,0l0.399,5.53l2.07,2.54l-0.51,2.439l-0.88,0.92
		l-1.851,0.141l-4.84,3l-0.399,2.3l0.489,3.66l-1.5,6.58l-1.51,0.41l-1.18-0.99l0,0l-0.3-1.3l-1.261-0.07l-2-1.37l-2.649-0.13
		l-2.771,1.61l-3.3-1.141l-2.75,0.08l-1.67-2.79l-2.06,0.04l-1.801,1.97l-1.68-0.229l0,0l0.26-2.66l-4.14-12.8l-0.32-2.74
		L511.23,336.25z"/>
	<path id="CL-BI" fill="#1E3250" stroke="#1E3250" stroke-width="0.5" d="M521.53,294.3l1.59,0.71l2.38,2.67l3.08,1.54l1.75,0.05
		l1.1-2.13l1.641,2.15l2.72,0.1l0.89,1.56l2.601,1.04l3.229,2.33l0.58,0.08l1.96-2.93l0.82,0.2l0.76,1.68l0,0l-2.42,6.52l1.05,4.77
		l-1.189,3.341l1.25,2.789l-1.021,4.25l2.57,7.4l0,0l-5.68,0.24l-0.46,0.84l-2.19,1.09l-0.65,1.16l-0.689-0.73l-0.71-4.029
		l-4.811-0.26l-2.149-2.261l-2.3-0.91l-2.15-3.26l-3.16-0.439l-1.71-1.021l-1.95,0.29l-1.31,1.64l1.399,0.82l-0.159,1.62l-2.11,3.09
		l1.28,2.09l-0.44,1.351l-3.74,3.68l-1.949-1.17l0,0l0.71-4.76l-1.141-3.221l-1.89-2.71l-0.25-2.199l1.31-2.271l-1.189-2.31
		l0.54-2.63l0.75-0.83l0.989,0.949l2.04,0.5l2.42-1.289l1.051-8.49l1.279,0.67l0.83-0.38l2.061-6.58L521.53,294.3z"/>
	<path id="CL-LI" fill="#1E3250" stroke="#1E3250" stroke-width="0.5" d="M537.64,258.78l1.41,0.58l2.3-0.13l0.9,1.66l1.79,0.77
		l1.16,1.7l1.399-0.02l1.17-0.27l0.011-1.11l1.87-2.17l5.33-1.68l0.819,0.46l0.431,2.72l2.38,0.12l0.189,2.18l1.5,1.02l0.11,0.7l0,0
		l0.03,1.96l-2.66,4.49l-1.811,5.78l0,0l-3.529-0.31l-2.48-2.01l-4.53-1.33l-2.93,0.2l-1.18,1.02l0.109,0.97l-4.34-0.53l-3.41-1.24
		l-1.989-2.1l0,0l0.199-4.64l0.971-1.23l-0.46-3.46l2.09-3.59l0,0l2.069,0.49l0.5-0.62l0,0L537.64,258.78z"/>
	<path id="CL-LL" fill="#1E3250" stroke="#1E3250" stroke-width="0.5" d="M495.16,435.42l-2.271,0.9l-0.899-1.761l1.37-0.579
		L495.16,435.42z M512.5,414.5l-0.29,0.61l-0.52-1.04l-2.181-1.021l-0.35-1.31l1.66,0.14L512.5,414.5z M505.81,401.11l-1.56,0.439
		l1.74,0.99l2.45-1.61l1.819-0.14l0.99,0.67l-0.32,2.5l1.09,1.71l-0.72,1.2l1.49,1.26l0.36,1.101l-0.341,1.119l-3.899,0.98
		l-0.33,1.99l1.05,0.93l-1.54,0.64l-0.79-0.71l0.271-0.76l-0.84,0.9l0.17,1.76l4.39,3.75l0.09,1.47l-1.649,0.12l-0.601,1.021
		l2.28,3.5l-4.11,0.22l0.21,1.63l1.01,1.37l-0.289,1.729l-2.16,0.54l-1.25-0.859l-4.66-0.79l-1.76-1.3l3.239-6.96l0.4-5.971
		l-0.87-1.46l0.54-5.12l1.37-1.76l0.92-4.38l-0.7-1.9l0.47-0.75l1.66,0.15L505.81,401.11z M507.77,371.91l4.271,0.359l0.84,1.391
		l1.39,0.28l2.23-1.671l2.23,0.83l1.39,2.5l4.45,3.62l2.779,1.11l2.78-3.62l4.82,0.07l0,0l-0.311,2.1l-1.29,1.561l1.591,4.279
		l-0.87,7.55l0.7,3.65l-0.92,1.95l1.8,3.97l0.87,4.46l-2.57,1.55l-0.78-0.899l-0.79,0.09l-1.609,2.899l1.22,1.601l-1.34,4.26
		l0.529,5.09l-0.489,2.92l1.189,1.921l3.09,0.55l1.36,0.84l-0.01,2.359l-2.21,0.54l-0.57,2.5l3.33,2.9l-0.021,1.72l-1.489,0.88v0.57
		l1.56,2.03l0,0l-1.55-0.48l-2,0.98l-0.2,0.79l-1.99,0.22l-0.369-1.3l-1.841-1.08l-1.159-2.65l-0.681-0.27l-1.75,2.439l-4.88-0.949
		l0,0v-0.811l-0.22,0.67l0,0l-1.14-0.729l-1.33,0.569l0,0l0.039-2.979l-1.09-2.71l0.49-2.51l2.38-1.49l-0.27-2.24l1.2-2.13l1.47,0.7
		l0.04-2.63l-1.261-1.24l-0.42-1.69l0.061-3.739l0.819-1.4l3.69,1.16l-2.06-1.46l-2.341-3.64l1.391-1.33l2.09-0.67l0.87,1l1.28,4.17
		l0.46-0.16l-0.98-6.19l0.41-2.85l-0.87-0.19l-1.42,1.12l-1.79-0.27l-1.7-1.44l3.03-3.88l2.54-0.22l1.79-1.21l0.58-4.101
		l-0.521,0.19l-0.819,3.979l-2.48,1l-1.38-0.569l-1.84-3.07l-1.86-0.63l-1.55,0.52l-0.88,1.391l0.68,2.109l-1.939,1.761
		l-2.891-0.271l-1.59,0.59l-3.34-0.97l0.87-2.42l1.729-0.29l0.931-1.73l-1.011,1.45l-2.119-0.04l-2.181-2.17l0.181-2.58l-1.62-4.96
		l-0.311-2.109l3.54-8.551l-0.51-1.71L507.77,371.91z"/>
	<path id="CL-ML" fill="#1E3250" stroke="#1E3250" stroke-width="0.5" d="M546.63,303.35l-0.76-1.68l-0.82-0.2l-1.96,2.93
		l-0.58-0.08l-3.229-2.33l-2.601-1.04l-0.89-1.56l-2.72-0.1l-1.641-2.15l-1.1,2.13l-1.75-0.05l-3.08-1.54l-2.38-2.67l-1.59-0.71l0,0
		l2.7-2.76l-0.811-3.99l1.89-1.54l1.62-4.17l2.42-2.13l0.62-3.98l1.721-3.52l0,0l1.989,2.1l3.41,1.24l4.34,0.53l-0.109-0.97
		l1.18-1.02l2.93-0.2l4.53,1.33l2.48,2.01l3.529,0.31l0,0l-0.3,2.98l-2.27,0.71l-0.381,1l2.061,1.68l0.05,4.71l1.07,3.07l-0.97,1.43
		l0.22,3.19l-0.601,1.33l-2.14,0.24l-1.65,1.86l-0.029,2.53l-3.5,1.27L546.63,303.35z"/>
	<path id="CL-AP" fill="#1E3250" stroke="#1E3250" stroke-width="0.5" d="M575.98,21.14h-2.15l-1.39,1.39l-0.28,1.67l-2.22,0.28
		l-2.23-1.67h-3.9l-4.449,3.06l-2.29,0.11l0,0l-0.96-9.19l0.54-2.93l-1.33-1.33l3.88-0.41l2.479-1.07l2.61-3.92l-1.07-3.51
		l0.221-1.01l0.279-0.43l1.86,0.17L568.2,0l0.18,1.89l2.271,2.45l0.52,2.7l3.12,0.88l-1.1,1.66l0.829,1.16l0.961,3.8l-0.021,2.61
		l1.31,3.35L575.98,21.14z"/>
	<path id="CL-LR" fill="#1E3250" stroke="#1E3250" stroke-width="0.5" d="M534.95,376.79l-4.82-0.07l-2.78,3.62l-2.779-1.12
		l-4.46-3.62l-1.391-2.5l-2.22-0.83l-2.23,1.671l-1.39-0.28l-0.84-1.391l-4.271-0.359l0,0l0.301-1.74l0.96-1.16l-0.49-2.88l4.5-1.89
		l-0.03-2.181l2.221-5.869l-0.311-0.57l0,0l1.68,0.229l1.801-1.97l2.06-0.04l1.67,2.79l2.75-0.08l3.3,1.141l2.771-1.61l2.649,0.13
		l2,1.37l1.261,0.07l0.3,1.3l0,0l-0.33,2.95l1.02,4.109l-0.47,1.79l-1.77,1.25l-0.38,1.66l1.399,1.82l0.24-0.431l0.479,0.33
		l0.07,0.7l-0.74,1.65l-0.91-0.271L534.95,376.79z"/>
</g>
</svg>
