<?xml version="1.0" encoding="utf-8"?>
<!-- Generator: Adobe Illustrator 15.0.0, SVG Export Plug-In . SVG Version: 6.00 Build 0)  -->
<!DOCTYPE svg PUBLIC "-//W3C//DTD SVG 1.1//EN" "http://www.w3.org/Graphics/SVG/1.1/DTD/svg11.dtd">
<svg version="1.1" id="Layer_1" xmlns:amcharts="http://amcharts.com/ammap"
	 xmlns="http://www.w3.org/2000/svg" xmlns:xlink="http://www.w3.org/1999/xlink" x="0px" y="0px" width="700.5px" height="706.5px"
	 viewBox="0 0 700.5 706.5" enable-background="new 0 0 700.5 706.5" xml:space="preserve">
<defs>
	
	
		<amcharts:ammap  projection="mercator" leftLongitude="-79.051463" topLatitude="12.591398" bottomLatitude="-4.237159" rightLongitude="-66.868938">
		</amcharts:ammap>
</defs>
<g>
	<path id="CO_AMA" fill="#1E3250" stroke="#1E3250" stroke-width="0.5" d="M302.91,543.31l22.04-7.31l0,0l5.64,0.16l3.73,2.24
		l1.81,2.72l10.44,0.3l5.04,3.36l4.61-0.38l2.32-3.4h1.5l2.46,2.83l1.14,0.31H366l2.24-1.54l2.05-0.29l2.77,3.24l3.67,2.2l1.22,0.07
		l4.16-5.07l1.68-0.13l0.48,1.399l3.97,1.49l2.31-1.569l-0.13-2.32l2.21-4.99l6.351-6.24l2.21-0.529l5.319,0.989l1.53-1.109
		l3.46-5.78l3.44-2.82l5.699-6.239l0.5-1.181l-0.22-1.64l0,0l0.76-0.62l3.04,0.14l11.391,6.86l4.109,1.3l1.58-0.649l3.12,4.159
		l1.69,7.58l1.62,2.641l3.01-1.221l0.7-1.329l10.409,3.359l3.53,3.84l2.75,0.9l1.46-0.33l-0.72-1.21l2.46-1.85l2.02,1.06l0.71,0.92
		l-1.5,5.54l0.061,4.82l-1.33,2.12l0.06,1.569l1.99,1.88l0.34,1.761l-2.5,1.67l-0.27,0.89l0.83,1.84l5.069,4.021l1.15,0.09
		l1.53-1.13l0.319-0.95l-2.38-1.57l0.71-1.72l1.36-0.88l5.83-0.39l0.2,1.52l-1.12,3.18l0.29,0.841l1.359,0.229l7.9-2.64l3.25,2.81
		l0.72,4.45l6.721-0.9l-0.141-3.16l1.01-2.189l0,0l2.61,13.11l-3.05,7.699l-17.69,98.141l-3.09,12.989l0.01-1.13l-1.319-1.37
		l-5.54-4.25l-2.42-5.539l-2.17-2.721l-3.65-2.95l-1.62-0.47l-5.71,2.93h-1.12l-8.08-3.26l27.061-42l-1.28-2.34l-0.91,0.13
		L475,627.94l-1-3.021l-3.15-2.83l-1.659-0.359l-1.74,0.789l-7.69-0.75l-3.51-3.779l-0.33-1.76l-8.3-5.44l-4.84,2.17l-5.141,1.37
		l-3.58,2l-7.159-0.561l-2.08-2.689l-4.45-1.92l-6.351-0.391l-0.779-3.159l-4.75,3.399l-2.59,3.67l-0.761,2.351l-3.81-0.34
		l-10.11,5.3l-2.97-0.3l-11.98-3.45l-12.02,4.06l-2.17-4.359l-2.82,0.43l-2.92-1.601l-1.71-1.75l-0.68-3.38l2.23-1.88l0.8-2.24
		l-1.32-9.09l-1.75-3.05l-2.65-1.75l-1.72,1.601l-2.39,1.149l-7.98-4.37l-0.7-0.76l0.84-3.85l1.65-1.811l-3.95-5.82l-0.53-3.8
		l-4.03-3.72l-4.07,0.22l-3.66-1.01l-1.11-2.32l-8.65-5.56l-5.67-1.55l-1.04-0.9l-1.73-3.38l1.44-3.14l-2.82-2.95L302.91,543.31z"/>
	<path id="CO_ANT" fill="#1E3250" stroke="#1E3250" stroke-width="0.5" d="M290.9,283.09l-1.19-0.2l-6.32,1.84l-7.26,1.06
		l-1.75,2.37l-3.99,2.79l-4.84-3.24l-4.43-0.34l-9.39-2.62l0.72,8.01l-0.7,0.52l-6.77-0.15l-4.18,1.91l0,0l-4.94-0.15l0,0
		l-4.36-4.91l-0.36-1.02l0.85-2.9l-2.1-5.93l0.81-2.18l0.21-3.15l-3.21-0.75l-0.74-0.66l-0.61-1.65l-0.41-5.42l-3.44-1.85
		l-11.66,2.17l-4.32-0.19l-3.39-4.76l-0.57-6.97l-3.67-7.77l-2.98-2.16l-0.39-5.42l2.27-0.76l3.05,0.64l1.93-1.61l0.08-1.51
		l-1.26-3.13l0.67-1.01l5.86-0.22l5.17,1.53l0.77-0.42l1.17-7.02l-0.97-3.02l-2.67-3.72l-2.45-0.89l-2.5-2l-13.04-13.92l-3.06-0.68
		l-0.57-3.8l1.5-0.45l1.84-1.55l1.27-5.17l2.88-2.41l2.49-0.75l1.23-1.93l0,0l0.08,4.42l-2.32-0.84l-0.98,0.63l-0.29,3.95l2.14,1.1
		l2.27,0.18l2.43-0.59l0.55-0.68l0.52-4.28l-1.73-15.39l-1.98-2.94l-2.26-1.62l-2.12-0.65l-0.01-1.29l1.8-2.23l8.69-2.26l9.95-8.28
		l0.24-1.24l0,0l1.41,2.09l0.44,4.71l1.14,3.09l1.38,1.5l4.67,2.36l0.8,1.78l-0.64,5.57l-6.37,6.89l-1.46,3.48l-1.37,8.4l-3.33,3.85
		l-0.4,5.73l1.07,5.73l6.05,8.55l20.7-0.22l6.91-8.57l0.53-3.06l2.76-3.79l1.28-0.23l3.06,1.9l0.69-0.62l1.26-4.27l3.47-1.32
		l1.7-3.27l4.57-4.35l10.25-0.37l1.67-1.03l3.67-4.69l0,0l4.31,3.65l6.58,4.32l1.33,1.83l0.4,6.98l0.88,1.08l-0.96,4.56l-2.76,7.86
		l4.36,4.9l2.18-1.69l2.34-3.91l0.81-0.53l0.78,0.33l0.62,2.48l-2.2,3.39l-0.48,4.95l2.52,8.32l4.24-0.19l12.11-11.41l0,0
		l-0.43,1.97l0.5,5.21l1.3,1.97l0.39,2.69l-1.86,1.7l-3.27,1.59l-3.98,5.43l-6.78,5.43l-4.01,1.3l-1.49,1.85l-0.39,1.41l0.33,3.53
		l1.05,1.73l-0.35,0.86l-3.89,4.33l-2.61,1.42l0,0l-1.11,1.39l-1.12,3.44l0.17,6.83l-0.7,0.71L290.9,283.09z"/>
	<path id="CO_ARA" fill="#1E3250" stroke="#1E3250" stroke-width="0.5" d="M489.48,272.13l-11.851-9.29l-3.24-1.43l-7.33-0.14
		l-6.18,2.71l-6.04,0.4l-12.57-0.51l-9.5-2.28l-11.5,3.71l-3.939,0.06l-1.18-0.93l-5.511,0.3l-8.92,1.87l-5.29,3.55l-0.86-0.03
		l-5.17-1.93l-3.34-4.4l-0.23-4.25l0,0l3.45-3.89l5.13-2.98l0.43-2.39l4.24-8.77l1.06-5.63l2.471-3.9l0,0l2.06,0.95l1.82-0.02
		l5.39-2.44l4.14-0.48l5.671,1.43l5.42,0.04l6.229,2.43l6.44-0.87l4.81-2.63l0.9-1.11l6.87-0.95l6.89,1.64l10.63,4.95l3-1.47
		l4.23-0.07l28.43,35.32l0,0l-1.63,1.32l-3.311,1.33l-8.97-0.36L489.48,272.13z"/>
	<path id="CO_ATL" fill="#1E3250" stroke="#1E3250" stroke-width="0.5" d="M266.9,74.85l8.43-4.4l0.68-2.53l6.68-6.63l0,0l0.78,2.25
		l2.29,1.76l2.74,4.96l-0.18,12.73l-0.38,1.8l-3.53,3.05l-3.97,9.32l0,0l-13.12-9.3l-0.34-1.77l0.62-3.61l-1.02-3.71l0,0l1.04-0.95
		l-0.37-1.37l-0.63,0.66l0,0L266.9,74.85z"/>
	<path id="CO_BOL" fill="#1E3250" stroke="#1E3250" stroke-width="0.5" d="M326.93,184.66l-2.67,2.1l-0.83,2.44l0.05,2.65l2.59,8.82
		l-0.78,6.67l-3.41,6.61l-0.74,6.38l0,0l-12.12,11.41l-4.24,0.19l-2.52-8.32l0.49-4.95l2.2-3.39l-0.62-2.48l-0.78-0.32l-0.81,0.53
		l-2.34,3.9l-2.18,1.69l-4.36-4.9l2.76-7.85l0.96-4.56l-0.88-1.08l-0.39-6.99l-1.33-1.83l-6.58-4.32l-4.32-3.65l0,0l1.8-0.85
		l1.01-2.21l0,0l5.03-1.21l3.71-7.5l-1.57-4.47l0.01-7.48l1.53-1.33l-2.21-4.96l-2.52-3.2l-7.5-4.45l-1.7-2.08l-2.07-4.36l0.23-5.52
		l-0.82-1.91l-1.77-2.08l-13.78-11.03l-0.44-4.92l-1.82-0.79l-3.78-4.67l-2.01-4.63l-2.43,0.74l0,0l0.45-1.91l1.55-1.99l-0.54-9.8
		l2.55-1.2l-0.77-4.31l3.92-4.52l4.98-2.74l1.1,0.13l0.39,0.62l0,0l1.02,3.72l-0.62,3.61l0.34,1.76l13.12,9.3l0,0l-1.37,4.52
		l0.4,1.3l3.45,1.33l2.2,3.09l-0.29,1.61l-2.54,1.34l-0.39,1.09l0.23,3.47l3.35,11.48l-0.52,4.81l2.45,1.08l1.78-0.23l2.6,1.77
		l2.81,3.03l9.32,3.38l4.87,3.89l3.32,3.95l5.8,1.9l5.41,0.7l0,0l-0.26,2.81l1.73,2.4l0.58,5.21l-0.25,3.29l1.7,3.25l1.47,7.59
		l-0.23,4.58L326.93,184.66z M266.62,77.11l-0.72-0.29l0.17-1.92l0.83-0.06l0,0L266.62,77.11z"/>
	<path id="CO_BOY" fill="#1E3250" stroke="#1E3250" stroke-width="0.5" d="M379.5,236.98l6.24-0.41l1.21-1.07l1.25-2.49l4.14-2.36
		l4.44,0.19l1.6-1.02l0,0l2.53,1.89l2.7,0.27l0,0l-2.471,3.9l-1.06,5.63l-4.24,8.77l-0.43,2.39l-5.13,2.98l-3.45,3.89l0,0
		l-1.55,1.43l-0.93,2.1l-0.34,6.36l2.07,2.23l-2.41,8.34l4.47,1.92l1.94,3.31l-1.77,5.4L385,292l-0.77-0.47l-0.85,0.33l-4.01,5.29
		l-5.38,3.89l-4.02,0.55l-3.33-2.94l-5.2,6.47l-1.12,3.14l2.94,3.66l-1.31,2.12l-2.65,1.02l-1.78,2.07l-1.59,5.51l1.44,3.03l0,0
		l-1.74,2.92l-3.87-0.12l-5.38-4.77l-4.06-1.66l-5.02-3.69l-0.31-1.18l0.71-2.72l2.15-2.641l-0.71-4.069l-1.58-3.03l-1.79-5.69
		l-2.85-3.4l-2.91-0.75l-3.21-3.17l-1.71,0.38l-1.99,1.4l-0.63,2.69l-2.65,2.71l-3.16,0.87l-5.35-3.99l-2.76-0.96l-3.49-4.45
		l-0.42-1.53l1.94-2.37l-0.68-3.94l-1.08-1.24l-3.99,2.37l-3.4-0.81l-5.02,1.06l-0.74,0.61l0,0l-0.77-1.41l0,0l1.98-7.98l0.7-0.71
		l-0.17-6.83l1.12-3.44l1.11-1.39l0,0l6.57,8.82l1.17,0.34l2.61-1.08l1.05,0.38l1.9,4.05l3.72,3.45l4.47,2.5l2.27,3.37l10.32-1.83
		l2.56,1.87l1-0.67l1.65-7.98l2.44-5.91l1.27-1.71l5.61,3.28l0.48,2.07l-1.51,4.09l0.11,2.71l1.51,1.88l2.62,0.25l3-1.83l-0.34-2.42
		l0.83-1.95l3.17-0.91l3.71,0.63l10.65-12.42l1.72-3.74l-0.11-2.08l-1.58-3.66l0.03-4.14l1.21-0.19l2.37,1.47l1.29,3.91l3.12-0.28
		l1.46-1.27l2.63-7.55l-0.4-7.25L379.5,236.98z"/>
	<path id="CO_CAU" fill="#1E3250" stroke="#1E3250" stroke-width="0.5" d="M233.01,477.05l-0.45,1.04l-5.42,1.82l-6.62-0.23
		l-5.57-2.229l-2.09-3.351l1.59-7.239l-2.03-4.24l-1.11-1l-1.78-0.16l-1.2,0.72l-2.59,2.98l-4.07,0.85l0,0l1.11-1.97l0.89-7.17
		l-0.97-2.311l-7.79-4.81l-3.33,0.87l-8.55,0.27l0.4-5.5l2.64-2.46l1.3-2.399l-6.19-6.641l-2.46-3.97l-0.76-0.4l-4.38,0.49
		l-4.98-0.25l-2.03-0.55l-2.78-2l-3.51-6.86l-4.01-5.859l-0.53-1.74l0,0l0.16-1.65l1.65,2.99l1.49,0.74l3.03-0.39l1.74-1.681
		l-0.79-1.319l-0.68-4.66l2.76-4.521l6.86-7.91l5.74-9.369l0,0l3.23,4.229l6.53,4.76l7.38,0.681l0.93-1.32l2.41,1.15l2.44,2.729
		l9.2-5l1.85-0.21l5.01-2.22l0.94-1.75l-0.1-1.63l-0.69-0.92l0.93-1.601l1.95-0.229l3.5,0.649l5.56,2.92l3.22,0.761l0,0l-0.21,3.069
		l3.44,5.9l0,0l9.26,22.22l-3.89,0.58l-3.78-2.8l-1.8-0.58l-1.33,0.8l-2.84,3.521l-2.25,0.609l-2.91-0.63l-0.95,0.521l-4.02,4.54
		l1.82,6.329v1.221l-0.62,0.54l-2.76,0.199l-5.62-2.149l-2.99,1.25l0.54,8.49l0.81,0.939l2.31-0.01l1.9,0.83l1.8,2.54l-0.1,4.22
		l0.44,0.97l3.02,2.86l4.32,2.7l3.87-0.21l0,0l0.02,1.76l-3.38,6.71l-1.39,1.36l-0.24,1.279l0.75,4.24l5.94,3.01L233.01,477.05z"/>
	<path id="CO_CES" fill="#1E3250" stroke="#1E3250" stroke-width="0.5" d="M326.93,184.66l1.12-4.88l0.23-4.58l-1.48-7.59l-1.7-3.25
		l0.25-3.29l-0.57-5.21l-1.73-2.4l0.26-2.81l0,0l2.66-4.24l-3.32-3.75l-2.51-5.91l-3.31-5.22l-3.42-2.41l2.61-3.54l1.16-0.64
		l9.86-0.08l-2.25-6.41l-9.65-13.15l1.38-4.92l3.89-6.68l16.71-7.49l-2.36-4.1l0.08-1.71l1.4-2.93l-3.62-4.27l-0.19-1.26l1.05-1.95
		l0,0l1.42,1.85l1.19,0.32l9.91,0.05l2.67,1.09l6.88,7.39l0.61,1.58l-0.96,3.89l-1.3,0.57l-2.27,2.87l2.28,1.55l6.65-1.05l2.59,0.32
		l0,0l-1.25,12.91l-1.59,4.76l-1.12,9.71l-3.17,6.6l-6.74,8.34l-4.89,7.58l-0.59,2.26l0,0l-1.36,3.34l-0.98,6.7l0.3,7.66l-3.19,4.67
		l-0.64,4.04l2.21,7.86l1.15,0.35l1.16-0.96l-0.16-3.38l0.54-0.75l1.44-0.11l1.37,1.19l-0.23,5.89l-2.09,0.84l-0.64,1.71l3.1,5.62
		l1.4,5.1l-2.75,6.64l-2.08,2.58l-2.93,1.22l-4.49,0.55l0,0l-1.26-1.48l-4.28-0.31l-0.54-1.09l2.46-5.93L326.93,184.66z"/>
	<path id="CO_CHO" fill="#1E3250" stroke="#1E3250" stroke-width="0.5" d="M179.42,163.15l0.81,0.53l1.92,3.47l0.64,2.56l1.8,2.15
		l4.39,2.26l2.18,3.48l4.66,3.63l0.82,3.27l2.51,1.55l2.03-0.48l0,0l-1.24,1.92l-2.48,0.75l-2.89,2.41l-1.27,5.17l-1.84,1.56
		l-1.49,0.45l0.56,3.8l3.07,0.68l13.04,13.92l2.49,2l2.45,0.88l2.67,3.73l0.97,3.02l-1.17,7.02l-0.76,0.42l-5.17-1.53l-5.86,0.22
		l-0.67,1.01l1.26,3.13l-0.09,1.51l-1.93,1.61l-3.04-0.64l-2.27,0.76l0.39,5.42l2.98,2.16l3.66,7.77l0.57,6.97l3.39,4.76l4.33,0.19
		l11.65-2.17l3.45,1.85l0.4,5.41l0.61,1.66l0.74,0.66l3.22,0.75l-0.22,3.16l-0.8,2.17l2.09,5.93l-0.85,2.9l0.35,1.02l4.36,4.91l0,0
		l-9.91,4.35l-4.22,4.11l4.63,10.53l3.14,2.021l0,0l-0.89,2.859l-2.59,1.48l-5.2,4.46l-7.08,14.319l-0.3,1.86l0.68,3.79l3.2,3.81
		l-0.56,1.471l-4.61,3.689l-6.39,2.03l-2.25,0.08l-3.85-2.19l-5.7-1.899l-4.12-3.521l-1.33-0.55l-2.53,0.43l-1.67-2.329l0,0
		l0.24-0.641l-3.92-0.35l-1.86-2.99l2.86-8.39l-0.35-7.101l-1.31-6.08l-0.77-8.85l0.04-2.96l0.97-3.52l-0.5-2.38l-1.52-6.49
		l-5.58-2.58l1.14-2.69l3.46-1.64l2.53,0.81l1.33-0.5l3.15-3.81l0.4-2.02l-4.04-9.44l-6.18-8.15l0.54-4.02l2.82,1.78l0.91-1.72
		l1.21-4.52l0.64-7.25l-2.79-5.08l-2.4-0.98l-8.24-6.69l0.56-4.15l-1.15-3.25l-8.61-7.13l3.39-10.31l2.43-0.23l1.14-2.15l-1.57-4
		l0.01-2.47l0.61-1.11l3.3,1.68l2.63,5.79l0.94,0.54l10.16-7.25l0.04-1.01l-1.65-2.16l3.08-5.22l3.28-1.34l0.71-2.57l-0.7-3.66
		l-2.4-4.58l-3.66-3.57l-0.52-4.7l-1.27-2.18l-0.96-0.88l-1.63,0.03l-0.3-2.05l4.28-5.18L179.42,163.15z M178.07,342.55l0.95,0.54
		l0.83,1.891l1.5,0.46l-9.43,2.279l0.41-1.489l4.34-4.07L178.07,342.55z"/>
	<path id="CO_CAL" fill="#1E3250" stroke="#1E3250" stroke-width="0.5" d="M260.52,322.44l-4.99-3.9l-4.04-0.22l-4.29-1.561
		l-4.6,1.08l-1.46,0.01l-0.89-0.729l-1.64-4.43l0.6-1.41l4.5-4.181l4.08-2.31l2.41-3.56l-3.47-2.47l-5.49,1.78l-0.7-0.9l0.26-4.6
		l0,0l4.18-1.91l6.77,0.15l0.7-0.52l-0.72-8.01l9.39,2.62l4.43,0.34l4.84,3.24l3.99-2.79l1.75-2.37l7.26-1.06l6.32-1.84l1.19,0.2
		l0,0l0.77,1.41l0,0l-1.03,9.45l0.29,1.84l-1.85,4.39l-1.77,2.6l0,0l-2.51-0.73l-4.21-0.11l-3.84,0.89l-2.36,1.59l-2.6,3.36
		l-6.44,0.58l-1.15,1.29l-2.05,7.27l1.23,3.021L260.52,322.44z"/>
	<path id="CO_COR" fill="#1E3250" stroke="#1E3250" stroke-width="0.5" d="M284.07,183.4l-3.67,4.69l-1.67,1.03l-10.25,0.37
		l-4.57,4.35l-1.7,3.27l-3.47,1.32l-1.26,4.27l-0.69,0.62l-3.06-1.9l-1.28,0.23l-2.76,3.79l-0.53,3.06l-6.91,8.57l-20.7,0.22
		l-6.05-8.55l-1.07-5.73l0.4-5.73l3.33-3.85l1.37-8.4l1.46-3.48l6.37-6.89l0.64-5.57l-0.8-1.78l-4.67-2.36l-1.38-1.5l-1.14-3.09
		l-0.44-4.71l-1.41-2.09l0,0l4.5-1.33l2.2-2.35l3.77-9.97l3.42-4.15l7.05-3.59l4.23-0.68l3.74,0.72l0,0l2.11,3.13l6.08,4.13
		l4.61,4.65l3.98,1.12l3.24,2.54l1.56,4.25l-0.49,3.57l-1.25-0.5l-3.11,0.38l-3.17,1.2l-0.06,1.16l2.4,6.25l1.18,7.04l1.2,0.35
		l2.53-0.68l1.01,0.59l0.4,3.94l3.1-0.83l4.28-3.64l5.83,2.44l2.98,2.66l0.46,3.13l0.93,1.25l0,0l-1.01,2.21L284.07,183.4z"/>
	<path id="CO_CAQ" fill="#1E3250" stroke="#1E3250" stroke-width="0.5" d="M399.2,492.11l3.569,3.89l2.74,4.78l1.44,4.41l2.59,0.659
		l3,2.73l7.08,4.17l1.3-0.67l0,0l0.22,1.64l-0.5,1.181l-5.699,6.239l-3.44,2.82l-3.46,5.78l-1.53,1.109l-5.319-0.989l-2.21,0.529
		l-6.351,6.24l-2.21,4.99l0.13,2.32l-2.31,1.569l-3.97-1.49l-0.48-1.399l-1.68,0.13l-4.16,5.07l-1.22-0.07l-3.67-2.2l-2.77-3.24
		l-2.05,0.29l-2.24,1.54h-2.36l-1.14-0.31l-2.46-2.83h-1.5l-2.32,3.4l-4.61,0.38l-5.04-3.36l-10.44-0.3l-1.81-2.72l-3.73-2.24
		l-5.64-0.16l0,0l-4.99-1.37l-2.75-1.49l-3.41-3.47l-3.07-0.85l-3.57-2.03l-2.65-2.53l-4.36-1.33l-1.31,2.16l-4.88-0.91l-3.24-1.939
		l-0.9-3.221l1.53-1.399l-2.22-5.561l-0.81-0.609l-5.68-0.92l-4.34-1.82l-1.04-4.75l0.66-1.93l-0.52-1.08l-4.56-2.44l-2.4,1.46
		l-1.16-0.26l-1.27-2.62l0.23-2.68l-1.63-4.4l-1.17-0.899l-1.65-0.4l-4.19,0.68l-3.44-0.92l-1.48-2.27l-3.81-2.141l-4.58,1.061
		l-3.76-1.36l-2.77-3.05l-0.33-2.29l-0.99-1.25l-5.43-0.12l0,0l-1.86-2.24l-5.94-3.01l-0.75-4.24l0.24-1.279l1.39-1.36l3.38-6.71
		l-0.02-1.76l0,0l7.85-0.76l1.33-0.95l15.61-19.83l0.77-2.36l8.39-9.3l1.71-3.19l1.3-4.479l1.33-1.24l2.3,0.72l1.21-0.31l4.37-3.57
		l1.86-2.319l-1.53-3.4l-0.1-1.54l3.89-5.37l0,0l7.1,2.22l4.91,3.45l1.86,2.66l-0.28,2.92l-3.64,5.72l0.62,8.03l2.06,6.141
		l0.67,7.84l4.02,5.68l3.15,1.62l8.91,1.66l3.64,4.2l5.07,3.659l4.45-0.189l7.77-2.28l2.46,0.561l0,0l0.25,4.02l3.98,5.21l3.23,3.16
		l2.47,6.91l9.04,7.29l0.77,1.31l3.16,1.33l2.47-0.11l6.35-4.77l0.51-0.84l-0.63-1.87l1.5-2.22l5.45-1.58l2.7,0.68l0.87,1.41
		l3.44,2.26l2.41-0.06l2.52,2.449l4.99,6.62l2.88,6.311l1.8-0.681L399.2,492.11z"/>
	<path id="CO_CAS" fill="#1E3250" stroke="#1E3250" stroke-width="0.5" d="M357.37,325.67l-1.44-3.03l1.59-5.51l1.78-2.07l2.65-1.02
		l1.31-2.12l-2.94-3.66l1.12-3.14l5.2-6.47l3.33,2.94l4.02-0.55l5.38-3.89l4.01-5.29l0.85-0.33L385,292l3.31-1.37l1.77-5.4
		l-1.94-3.31l-4.47-1.92l2.41-8.34l-2.07-2.23l0.34-6.36l0.93-2.1l1.55-1.43l0,0l0.23,4.25l3.34,4.4l5.17,1.93l0.86,0.03l5.29-3.55
		l8.92-1.87l5.511-0.3l1.18,0.93l3.939-0.06l11.5-3.71l9.5,2.28l12.57,0.51l6.04-0.4l6.18-2.71l7.33,0.14l3.24,1.43l11.851,9.29l0,0
		l-2.471,2.92l-2.58,6.6l-5.33,6.8l-3.989,2.21l-6.57,0.84l-3.85,1.51l-9.49,5.75l-0.51,2.75l-6.521,6l-2.9,1.53l-4.5,7.6
		l-2.359,2.181l0,0l-5.24,3.35l-5.3,1.561l-9.12,4.119l-3.57,2.521l-4.81,1.71l-8.8,6.53l-2.601,1.189l-1.189-0.1l-1.761-1.83
		l-1.27-0.42L391,337.89l-3.45,1.301l-3.35,3.069l-8.07,1.021l-5.33,0.47l-7.91-8.43l-2.02-2.771l-0.89-2.6l-2.61-3.46l0,0V325.67z"
		/>
	<path id="CO_CUN" fill="#1E3250" stroke="#1E3250" stroke-width="0.5" d="M287.31,302.78l1.77-2.6l1.85-4.39l-0.29-1.84l1.03-9.45
		l0,0l0.74-0.61l5.02-1.06l3.4,0.81l3.99-2.37l1.08,1.24l0.68,3.94l-1.94,2.37l0.42,1.53l3.49,4.45l2.76,0.96l5.35,3.99l3.16-0.87
		l2.65-2.71l0.63-2.69l1.99-1.4l1.71-0.38l3.21,3.17l2.91,0.75l2.85,3.4l1.79,5.69l1.58,3.03l0.71,4.069l-2.15,2.641l-0.71,2.72
		l0.31,1.18l5.02,3.69l4.06,1.66l5.38,4.77l3.87,0.12l1.74-2.92l0,0v0.82l0,0l-3.21,16.68l-3.28,1.71l-6.72-1.689l-4.02,1.399
		l-2.06-0.45l-0.92-0.77l-1.77-6.101l-1.93-1.22l-5.22-1.33l-1.3,0.99l-2.07,3.75l0.73,0.97l1.21,0.301l1.77,3.71l0.17,2.979
		l-1.1,0.561l-2.66,0.05l-6.67,3.399l-4.3,3.301l-2.04,0.43l0,0l-0.07-2.59l2.06-9.15l0.51-5.13l1.65-3.18l2.53-3.13l-0.21-8.841
		l-2.12-1.12l-1.02,0.171l-4.33,7.489l-1.39,9.59l0.43,6.99l-2.2,5.36l-3.12,0.46l-2.32,3.26l0.11,2.811l-0.83,3.17l-1.61,2.92
		l-2.31,2.63l0,0l0.42-2.4l-2.28-1.92l0,0l1.03-2.569l0.26-5.98l1.37-2.79l-0.04-1.24l-1.78-3.01l-0.98-1.13l-1.15-0.34l-1.46,0.49
		l-0.98,1.569l-2.18,0.42l-8.83-3.739l4.28-9.49l-1.37-8.44l2.2-4.78l1.81-11.55L287.31,302.78z"/>
	<path id="CO_DC" fill="#1E3250" stroke="#1E3250" stroke-width="0.5" d="M297.74,366.87l2.31-2.63l1.61-2.92l0.83-3.17l-0.11-2.811
		l2.32-3.26l3.12-0.46l2.2-5.36l-0.43-6.99l1.39-9.59l4.33-7.489l1.02-0.171l2.12,1.12l0.21,8.841l-2.53,3.13l-1.65,3.18l-0.51,5.13
		l-2.06,9.15l0.07,2.59l0,0l-2.73,0.189l-1.04,0.78l-5.88,6.41l-2.88,5.44l-1.6-0.25L297.74,366.87z"/>
	<path id="CO_GUA" fill="#1E3250" stroke="#1E3250" stroke-width="0.5" d="M577.46,353.85l1.15,5.16l2.659,6.66l1.61,1.09
		l2.69-0.229l0.85,0.56l2.23,3.12l2.3,6.66l3.08,1.36l0.56,2.329l-2.21,3.37l-3.67,2.46l-16.38,15.46l0.39,2.03l2.38-0.22
		l6.591,1.609l2.909,4.641l2.051,1.09l6.609,7.35l5.471,3.341l0.75,2.3l-1.761,2.51l0.221,1.29l4.05,8.89L607,450.23l2.69,9.67
		l1.439,8.529l0.87,1.25l-8.44,1.98l-0.52-4.66l1.28-9.57l-0.59-4.109l-1.75-4.69l-1.95-3.43l-4.28-5.25l-3.09-6.811l-3.41-1.22
		l-6.74,3.68l-3.31,3.261l-0.86,2.21l-5.13,5.54l-4.25,1.6l-2.18-0.03l-1.75-0.92l-2.28-3.479l-1.62-4.03l-3.78-1.06l-2.5,5.109
		l1,3.17l2.07,0.37l1.22,1.73l-50.26-0.16l-7.47-2.29l-6.05,1.59l-3.48,1.54l-2.51-0.12l0,0l-1.37-1.12l-7.39-1.58l-3.69-3.05
		l-0.97-1.37l-0.28-3.72l1.62-1.42l-0.62-2.601l0,0l0.66-1.34l3.37-2.3l2.24-2.67l-1.33-2.25l-1.851-0.87l-1.76,1.03l-7.7,1.45
		l-7.39,0.069l-6.19-2.909l-2.35-5.051l-3.12-3.87l-2.62-0.02l-0.88-1.17l13.79-9.22l0.83-1.19l0,0l4.939-1.32l3.08-4.22l-0.12-6.27
		l2.061-3.471l5.13-0.77l-0.27-3.03l-1.261-2.31l1.351-1.78l3.39-1.21l1.15,0.68h2.04l4.87-4.279l9.01-3.341l1.529-1.5l-0.17-2.43
		l0.83-0.89l3.771-0.21l2.05,1.06l7.32-1.84l2.899,1.65l0.25,1.38l11.141-2.271l2.18,0.93l4.16-3.84l2.569-0.739l4.94,0.369
		l2.03-0.649l1.22-2l6.63-5.5l12.57-0.83l3.359,1.65l1.421,2.489l5.1-4.71L577.46,353.85z"/>
	<path id="CO_GUV" fill="#1E3250" stroke="#1E3250" stroke-width="0.5" d="M476.67,434.77l-21.01,6.261l-9.15-0.21l-5.39,4.189
		l-4.01,0.62l-4.03,2.49l-7.86,9.45l-2.85,1.97l-3.18,7.38l0.22,4.41l-3.08,4.22l-2.62,2.55l-2.36,0.44l-1.31,1.01l-1.16,3.2
		l-9.68,9.36l0,0l-6.53-2.841l-1.8,0.681l-2.88-6.311l-4.99-6.62l-2.52-2.449l-2.41,0.06l-3.44-2.26l-0.87-1.41l-2.7-0.68
		l-5.45,1.58l-1.5,2.22l0.63,1.87l-0.51,0.84l-6.35,4.77l-2.47,0.11l-3.16-1.33l-0.77-1.31l-9.04-7.29l-2.47-6.91l-3.23-3.16
		l-3.98-5.21l-0.25-4.02l0,0l0.59-26.45l1.1-3.681l8.97,1.141l3.08-0.36l6.05-1.34l7.68-2.61l3.58-5.43l2.69-0.97l1.72,0.99
		l7.84-1.91l3.14-3.58l7.01-3.58l11.04-1.01l3.54,0.71l10.82-2l13.09,0.199l4.97-1.119l6.58-0.03l2.54,0.58l0,0l0.3,2.14l3.72-0.67
		l6.9,2.62l4.2,0.21l1.13-1.01l1.05-2.761l5.84,2.261l0.69-0.32l0,0l-0.83,1.19l-13.79,9.22l0.88,1.17l2.62,0.02l3.12,3.87
		l2.35,5.051l6.19,2.909l7.39-0.069l7.7-1.45l1.76-1.03l1.851,0.87l1.33,2.25l-2.24,2.67l-3.37,2.3L476.67,434.77z"/>
	<path id="CO_HUI" fill="#1E3250" stroke="#1E3250" stroke-width="0.5" d="M229.45,456.45l-3.87,0.21l-4.32-2.7l-3.02-2.86
		l-0.44-0.97l0.1-4.22l-1.8-2.54l-1.9-0.83l-2.31,0.01l-0.81-0.939l-0.54-8.49l2.99-1.25l5.62,2.149l2.76-0.199l0.62-0.54v-1.221
		l-1.82-6.329l4.02-4.54l0.95-0.521l2.91,0.63l2.25-0.609l2.84-3.521l1.33-0.8l1.8,0.58l3.78,2.8l3.89-0.58l-9.26-22.22l0,0
		l2.1,0.01l4.09-1.25l5.83-5.05l6.11-1.04l0.08-2.26l2.82-4.551l7.29-2.939l11.21-1.69l1.19,0.351l0.22,2.56l-1.91,2.66l0.89,1.01
		l1.81,0.46l2.39-0.319l2.75-2l3.53-4.24l-0.43-2.22l2.53-4.57l5.61-7.37l2.55-1.95l0,0l2.28,1.92l-0.42,2.4l0,0l-2.08,5.01
		l-2.14,2.95l-1.38,5.15l0.48,4.18l-3.92,6.03l-7.89,5.6l-1.07,2.76l0,0l-3.89,5.37l0.1,1.54l1.53,3.4l-1.86,2.319l-4.37,3.57
		l-1.21,0.31l-2.3-0.72l-1.33,1.24l-1.3,4.479l-1.71,3.19l-8.39,9.3l-0.77,2.36l-15.61,19.83l-1.33,0.95L229.45,456.45z"/>
	<path id="CO_LAG" fill="#1E3250" stroke="#1E3250" stroke-width="0.5" d="M363.15,90.42l-2.59-0.32l-6.65,1.05l-2.28-1.55
		l2.27-2.87l1.3-0.57l0.96-3.89l-0.61-1.58l-6.88-7.39L346,72.21l-9.91-0.05l-1.19-0.32l-1.42-1.85l0,0l-0.67-2.57l0.78-5.6
		l3.38-4.83l0.27-1.79l0,0l6.3-0.1l4.12-0.91l3.22-2.23l0.43-1.15l2.18-2l15.42-11.01l10.35-4.17l4.18-0.43l6.5-3.82l1.07-1.09
		l3.87-8.01l-0.29-4.22l-0.95-0.6l0.45-0.82l5.33-0.7l2.63,0.25l-1.939,2.48l1.06,1.49l1.99-0.24l3.03-2.01l2.25-4.3l4.81-2.22
		l2.54-2.31l-0.98-0.73l-2.029,0.18l-1.33,0.86l0.51-1.13l1.38-0.77l6.68,0.56l10.431,4.19l2.26,1.85l4.37,8.52l0.02,2.08
		l-0.699,1.32l-6.23,4.14l-1.74,2.74l-3.239,1.68l-9.2,2.4l-5.9,2.29L401.9,38.7l-9.93,17.39l-4.47,3.57l-7.15,1.74L363.15,90.42z"
		/>
	<path id="CO_MAG" fill="#1E3250" stroke="#1E3250" stroke-width="0.5" d="M323.31,150.65l-5.41-0.7l-5.8-1.9l-3.31-3.95l-4.87-3.88
		l-9.32-3.38l-2.81-3.04l-2.61-1.77l-1.77,0.229l-2.45-1.07l0.52-4.81l-3.35-11.48l-0.23-3.47l0.39-1.09l2.54-1.34l0.29-1.61
		l-2.2-3.08l-3.44-1.33l-0.41-1.3l1.37-4.52l0,0l3.97-9.32l3.53-3.05l0.38-1.8l0.18-12.73l-2.74-4.96l-2.29-1.76l-0.78-2.25l0,0
		l1.08,0.83l13.59,4.68l5.16,0.43l3.61-0.66l-1.45,1l-5.69,0.15l-5.21,3.91l-0.65,2.25l0.59,1.68l3.05-1.23l2.22,1.95l0.31,0.979
		l2.59,0.021l1.51-1.72l5.3-13.98l-0.3-4.86l1.98-3.12l1.4-0.91l5.86-0.99l6.01,2.94l3.14,0.8l10.45-0.24l0,0l-0.27,1.79l-3.38,4.83
		l-0.78,5.6l0.67,2.57l0,0l-1.05,1.95l0.19,1.26l3.62,4.27l-1.4,2.93l-0.08,1.71l2.36,4.1l-16.71,7.49l-3.89,6.68l-1.38,4.92
		l9.65,13.15l2.25,6.41l-9.86,0.08l-1.16,0.64l-2.61,3.54l3.42,2.41l3.31,5.22l2.51,5.91l3.32,3.75L323.31,150.65z"/>
	<path id="CO_MET" fill="#1E3250" stroke="#1E3250" stroke-width="0.5" d="M438.41,318.82l0.13,83.17l0,0l-2.54-0.58l-6.58,0.03
		l-4.97,1.119l-13.09-0.199l-10.82,2l-3.54-0.71l-11.04,1.01l-7.01,3.58l-3.14,3.58l-7.84,1.91l-1.72-0.99l-2.69,0.97l-3.58,5.43
		l-7.68,2.61l-6.05,1.34l-3.08,0.36l-8.97-1.141l-1.1,3.681l-0.59,26.45l0,0l-2.46-0.561l-7.77,2.28l-4.45,0.189l-5.07-3.659
		l-3.64-4.2l-8.91-1.66l-3.15-1.62l-4.02-5.68l-0.67-7.84l-2.06-6.141l-0.62-8.03l3.64-5.72l0.28-2.92l-1.86-2.66l-4.91-3.45
		l-7.1-2.22l0,0l1.07-2.76l7.89-5.6l3.92-6.03l-0.48-4.18l1.38-5.15l2.14-2.95l2.08-5.01l0,0l0.11,0.86l1.6,0.25l2.88-5.44
		l5.88-6.41l1.04-0.78l2.73-0.189l0,0l2.04-0.43l4.3-3.301l6.67-3.399l2.66-0.05l1.1-0.561l-0.17-2.979l-1.77-3.71l-1.21-0.301
		l-0.73-0.97l2.07-3.75l1.3-0.99l5.22,1.33l1.93,1.22l1.77,6.101l0.92,0.77l2.06,0.45l4.02-1.399l6.72,1.689l3.28-1.71l3.21-16.68
		l0,0l2.61,3.46l0.89,2.6l2.02,2.771l7.91,8.43l5.33-0.47l8.07-1.021l3.35-3.069l3.45-1.301l3.75-0.439l1.27,0.42l1.761,1.83
		l1.189,0.1l2.601-1.189l8.8-6.53l4.81-1.71l3.57-2.521l9.12-4.119l5.3-1.561L438.41,318.82z"/>
	<path id="CO_NAR" fill="#1E3250" stroke="#1E3250" stroke-width="0.5" d="M201.67,466.01l-2.93,0.76l-5.95,3.54l-1.64,1.551
		l0.23,7.779l3.27,11.94l-0.07,0.97l-3.84,1.44l-0.64,3.1l0.89,3.01l0.25,4.841l0,0l-5.74,0.96l-6.62-1.99l-1.76-1.15l-1.2-5.26
		l0.31-3.3l-0.84-1.38l-1.22-0.4l-1.75,0.391l-4.58-3l-0.51-0.891l0.12-2.41l-0.91-1.14l-0.84-0.33l-4.76,1.51l-1.64-0.22
		l-1.21-0.49l-1.91-2.02l-2.87-1.19l-4.15-0.479l-6.11-4.66l-4.34-1.59l-4.65-5.07l-3.03-0.69l-0.83,0.44l-1.29-1.82l-3.54-1.739
		l-5.45-6.23l-2.02-4.51l-2.87-1.34l-4.23-0.75l-0.8-1.351l3.22-4.939l3.77-3l1.47-0.45l3.45,0.64l5.78,2.3l1.39-0.1l1.71-6.14
		l-2.07-4.131l-2.39-1.88l-1.35-5.31l5.01-9.66l0.35,1.58l1.4-1.79l2.37-0.37l0.4-2.5l1.14-0.17l3.36,2.89l3.36-3.329l5.87,1.3
		l5.59-1.44l1.51-1.45l0.38-2.17l0,0l0.53,1.73l4.01,5.859l3.51,6.86l2.78,2.01l2.03,0.54l4.97,0.26l4.38-0.5l0.76,0.4l2.47,3.98
		l6.19,6.64l-1.31,2.4l-2.64,2.46l-0.4,5.5l8.55-0.271l3.33-0.87l7.79,4.811l0.96,2.319l-0.89,7.16L201.67,466.01z M148.14,417.31
		l-3.68-3.149l0.97-2.57l2.4-0.28l1.13,2.051l0.56,2.439L148.14,417.31z"/>
	<path id="CO_NSA" fill="#1E3250" stroke="#1E3250" stroke-width="0.5" d="M398.38,229.82l-1.6,1.02l-4.44-0.19l-4.14,2.36
		l-1.25,2.49l-1.21,1.07l-6.24,0.41l0,0l-1.4,0.2l-0.55-0.65l0.11-3.14l-0.67-0.63l-3.89,1.45l-8.25-3.49v-13.33l-5.14-10.09
		l-8.79-0.31l-2.2,2.7l-2.72,0.23l-6.51-2l-1.45-2.23l-3.11-2.35l0,0l4.49-0.55l2.93-1.22l2.08-2.58l2.75-6.64l-1.4-5.1l-3.1-5.62
		l0.64-1.71l2.09-0.84l0.23-5.89l-1.37-1.19l-1.44,0.11l-0.54,0.75l0.16,3.38l-1.16,0.96l-1.15-0.35l-2.21-7.86l0.64-4.04l3.19-4.67
		l-0.3-7.66l0.98-6.7l1.36-3.34l0,0l6.44,0.01l8.73-5.43l1.19,1.71l0.94,2.48l-0.17,0.95l3.17,2.44l4.36,1.62l4.75,18.2l9.95,10.4
		l1.44,0.84l2.12,9l0.33,3.73l-0.71,0.58l-1.79,0.01l-2.9,5.25l-0.52,17.46l2.91,3.74l5.74,0.74l4.44,2.65l-0.41,2.59l0.8,2.63
		l3.26,5.62L398.38,229.82z"/>
	<path id="CO_PUT" fill="#1E3250" stroke="#1E3250" stroke-width="0.5" d="M233.01,477.05l5.43,0.12l0.99,1.25l0.33,2.29l2.77,3.05
		l3.76,1.36l4.58-1.061l3.81,2.141l1.48,2.27l3.44,0.92l4.19-0.68l1.65,0.4l1.17,0.899l1.63,4.4l-0.23,2.68l1.27,2.62l1.16,0.26
		l2.4-1.46l4.56,2.44l0.52,1.08l-0.66,1.93l1.04,4.75l4.34,1.82l5.68,0.92l0.81,0.609l2.22,5.561l-1.53,1.399l0.9,3.221l3.24,1.939
		l4.88,0.91l1.31-2.16l4.36,1.33l2.65,2.53l3.57,2.03l3.07,0.85l3.41,3.47l2.75,1.49l4.99,1.37l0,0l-22.04,7.31l0,0l-0.97-1.399
		l-8.81-6.54l-1.04,0.939l-3.13-1.84l-0.51-2.95l-2.11-3.35l-1.66-0.09l-1.96,1.1l-3.21-1.37l-3.43-3.109l-4.77-3.181l-2.8-0.35
		l-0.86,2.42l-1.37,1.09l-1.1-0.12l-2.64-1.689l-3.49-0.771l-5.81-3.739l-7.64-0.61l-6.26-4.77l-5.25-7.141l-8.36-2.37l-6.51,0.13
		l-0.28,4.94l-5.66,2.15l-1.64-0.48l-1.12-1.14l-4.31-1l-0.43,0.819l-1.78,0.58l-3.97,0.391l-6.95-2.73l-1.83-2.189l0,0l-0.24-4.841
		l-0.89-3.01l0.63-3.1l3.84-1.45l0.07-0.96l-3.27-11.95l-0.24-7.78l1.64-1.54l5.95-3.54l2.93-0.76l0,0l4.07-0.85l2.59-2.98l1.2-0.72
		l1.78,0.16l1.11,1l2.03,4.24l-1.59,7.239l2.09,3.351l5.57,2.229l6.62,0.23l5.42-1.82L233.01,477.05z"/>
	<path id="CO_QUI" fill="#1E3250" stroke="#1E3250" stroke-width="0.5" d="M247.91,327.38l9.95,0.73l2.6-1.49l0,0l0.29,0.55
		l-7.82,10.71l-0.32,4.42l-4.77,7.101l-0.37,3.22l0,0l-1.67-1.98l-0.62-2.08l-3.93-16.81l0.76-1.54l5.91-0.24l0.48-0.8
		L247.91,327.38z"/>
	<path id="CO_RIS" fill="#1E3250" stroke="#1E3250" stroke-width="0.5" d="M260.46,326.62l-2.6,1.49l-9.95-0.73l0,0l-7.87-2.5
		l-3.17-4.57l-3.27-3.18l-2.34-1.53l-1.78,0.311l0,0l-3.13-2.03l-4.63-10.53l4.22-4.11l9.92-4.35l0,0l4.94,0.15l0,0l-0.26,4.6
		l0.7,0.9l5.49-1.78l3.47,2.47l-2.41,3.56l-4.08,2.31l-4.5,4.181l-0.6,1.41l1.64,4.43l0.89,0.729l1.46-0.01l4.6-1.08l4.29,1.561
		l4.04,0.22l4.99,3.9l0,0l-1.6,2.1L260.46,326.62z"/>
	<path id="CO_SAN" fill="#1E3250" stroke="#1E3250" stroke-width="0.5" d="M321.13,220.32l0.74-6.38l3.41-6.6l0.78-6.67l-2.59-8.82
		l-0.05-2.65l0.84-2.44l2.67-2.1l0,0l4.38,9.87l-2.46,5.93l0.54,1.09l4.28,0.31l1.26,1.48l0,0l3.11,2.35l1.45,2.23l6.51,2l2.72-0.23
		l2.2-2.7l8.79,0.31l5.14,10.09v13.33l8.25,3.49l3.89-1.45l0.67,0.63l-0.11,3.14l0.55,0.65l1.4-0.2l0,0l0.72,1.96l0.4,7.25
		l-2.63,7.55l-1.46,1.27l-3.12,0.28l-1.29-3.91l-2.37-1.47l-1.21,0.19l-0.03,4.14l1.58,3.66l0.11,2.08l-1.72,3.74l-10.65,12.42
		l-3.71-0.63l-3.17,0.91l-0.83,1.95l0.34,2.42l-3,1.83l-2.62-0.25l-1.51-1.88l-0.11-2.71l1.51-4.09l-0.48-2.07l-5.61-3.28
		l-1.27,1.71l-2.44,5.91l-1.65,7.98l-1,0.67l-2.56-1.87l-10.32,1.83l-2.27-3.37l-4.47-2.5l-3.72-3.45l-1.9-4.05l-1.05-0.38
		l-2.61,1.08l-1.17-0.34l-6.57-8.82l0,0l2.61-1.42l3.89-4.33l0.35-0.86l-1.05-1.73l-0.33-3.53l0.39-1.41l1.49-1.85l4.01-1.3
		l6.78-5.43l3.98-5.43l3.27-1.59l1.86-1.7l-0.39-2.69l-1.3-1.97l-0.5-5.21L321.13,220.32z"/>
	<path id="CO_SUC" fill="#1E3250" stroke="#1E3250" stroke-width="0.5" d="M247.07,132.21l1.54,0.41l1.28-0.6l1.51-1.92l1.2-3.11
		l0.24-2.46l-0.67-2.46l-2.45-3.94l2.91-9.11l0.32-4.54l0,0l2.43-0.73l2.01,4.63l3.77,4.67l1.82,0.78l0.45,4.93l13.78,11.03
		l1.77,2.07l0.83,1.91l-0.23,5.52l2.07,4.37l1.69,2.07l7.5,4.45l2.52,3.2l2.21,4.96l-1.52,1.33l-0.01,7.48l1.57,4.48l-3.71,7.5
		l-5.03,1.21l0,0l-0.93-1.25l-0.46-3.13l-2.98-2.66l-5.83-2.44l-4.28,3.64l-3.1,0.83l-0.4-3.94l-1.01-0.59l-2.53,0.68l-1.2-0.35
		l-1.18-7.04l-2.4-6.25l0.06-1.16l3.17-1.2l3.11-0.38l1.25,0.5l0.49-3.57l-1.56-4.25l-3.24-2.54l-3.98-1.12l-4.61-4.65l-6.08-4.13
		L247.07,132.21z"/>
	<path id="CO_SAP" fill="#1E3250" stroke="#1E3250" stroke-width="0.5" d="M0.29,4.2L0,1.89L1.15,0L1.6,0.19L1.2,2.44L0.29,4.2z"/>
	<path id="CO_TOL" fill="#1E3250" stroke="#1E3250" stroke-width="0.5" d="M247.47,352.62l0.37-3.22l4.77-7.101l0.32-4.42
		l7.82-10.71l-0.29-0.55l0,0l-1.54-2.08l1.6-2.1l0,0l2.86-2.5l-1.23-3.021l2.05-7.27l1.15-1.29l6.44-0.58l2.6-3.36l2.36-1.59
		l3.84-0.89l4.21,0.11l2.51,0.73l0,0l0.75,7.19l-1.81,11.55l-2.2,4.78l1.37,8.44l-4.28,9.49l8.83,3.739l2.18-0.42l0.98-1.569
		l1.46-0.49l1.15,0.34l0.98,1.13l1.78,3.01l0.04,1.24l-1.37,2.79l-0.26,5.98l-1.03,2.569l0,0l-2.55,1.95l-5.61,7.37l-2.53,4.57
		l0.43,2.22l-3.53,4.24l-2.75,2l-2.39,0.319l-1.81-0.46l-0.89-1.01l1.91-2.66l-0.22-2.56l-1.19-0.351l-11.21,1.69l-7.29,2.939
		l-2.82,4.551l-0.08,2.26l-6.11,1.04l-5.83,5.05l-4.09,1.25l-2.1-0.01l0,0l-3.44-5.9l0.21-3.069l0,0l3.67-11.08l3.49-14.71
		l3.18-4.71l2.38,0.479l2.53-2.03L247.47,352.62z"/>
	<path id="CO_VAC" fill="#1E3250" stroke="#1E3250" stroke-width="0.5" d="M231.99,387.98l-3.22-0.761l-5.56-2.92l-3.5-0.649
		l-1.95,0.229l-0.93,1.601l0.69,0.92l0.1,1.63l-0.94,1.75l-5.01,2.22l-1.85,0.21l-9.2,5l-2.44-2.729l-2.41-1.15l-0.93,1.32
		l-7.38-0.681l-6.53-4.76l-3.23-4.229l0,0l-2.46-1.721l0.74-1.12l3.55-2.26l4.94-6.31l1.34-0.36l2.91-3.72l0.63-4.221l3.83-6.14
		l-3.29,0.98l-3.13,2.09l-3.17,0.14l-0.88-0.479l-0.45-2.63l0.49-1.431l2.94-0.87l1.12-3.62l-3.02-1.449l-2.14,2.239l-1.31,3.69
		l-0.9,1.03l-2.32-2.98l-0.6-5.89l0.47-1.5l3.64-1.58l2.52,0.09l1.15-1.25l0,0l1.67,2.33l2.53-0.43l1.33,0.54l4.12,3.529l5.7,1.9
		l3.85,2.189l2.25-0.079l6.39-2.03l4.61-3.69l0.55-1.47l-3.19-3.81l-0.68-3.79l0.3-1.86l7.07-14.33l5.2-4.46l2.59-1.48l0.89-2.859
		l0,0l1.78-0.311l2.34,1.53l3.27,3.18l3.17,4.57l7.87,2.5l0,0l0.49,1.79l-0.48,0.8l-5.91,0.24l-0.76,1.54l3.93,16.81l0.62,2.08
		l1.67,1.98l0,0l-0.23,3.31l-2.53,2.03l-2.38-0.479l-3.18,4.71l-3.49,14.71L231.99,387.98z"/>
	<path id="CO_VID" fill="#1E3250" stroke="#1E3250" stroke-width="0.5" d="M438.41,318.82l2.359-2.181l4.5-7.6l2.9-1.53l6.521-6
		l0.51-2.75l9.49-5.75l3.85-1.51l6.57-0.84l3.989-2.21l5.33-6.8l2.58-6.6l2.471-2.92l0,0l3.149-1.14l8.97,0.36l3.311-1.33l1.63-1.32
		l0,0l2.39-1.12l2.28-0.11l1.87,2.37l1.189,0.28l1.921-0.67l4.42-4.23l1.3-0.53l9.42,1.22l7.81,2.1l7.601-2.27l5.54,0.93l6.77-2.26
		l4.94,0.71l3.21-0.5l5.21-3.7l8.07,0.92l2.949,0.94l2.78,2.35l1.72,0.51l-1.43,1.61l-0.14,1.34l3.239,5.18l-8.489,8.37l-1.311,4.48
		l0.74,4.32l0.74,1.24l-1.38,2.87l-6.37,3.91l-1.84,3.15l1.939,13.7l-0.96,9.721l-1.4,7.21l3.051,9.3l-0.681,1.42l-0.21,2.81
		l0.811,2.681l3.22,4.899l0,0l-3.92,1.41l-5.1,4.71l-1.421-2.489l-3.359-1.65l-12.57,0.83l-6.63,5.5l-1.22,2l-2.03,0.649
		l-4.94-0.369l-2.569,0.739l-4.16,3.84l-2.18-0.93l-11.141,2.271l-0.25-1.38l-2.899-1.65l-7.32,1.84l-2.05-1.06l-3.771,0.21
		l-0.83,0.89l0.17,2.43l-1.529,1.5l-9.01,3.341l-4.87,4.279h-2.04l-1.15-0.68l-3.39,1.21l-1.351,1.78l1.261,2.31l0.27,3.03
		l-5.13,0.77l-2.061,3.471l0.12,6.27l-3.08,4.22l-4.939,1.32l0,0l-0.69,0.32l-5.84-2.261l-1.05,2.761l-1.13,1.01l-4.2-0.21
		l-6.9-2.62l-3.72,0.67l-0.3-2.14l0,0L438.41,318.82z"/>
	<path id="CO_VAU" fill="#1E3250" stroke="#1E3250" stroke-width="0.5" d="M506.02,561.33l-1.01,2.189l0.141,3.16l-6.721,0.9
		l-0.72-4.45l-3.25-2.81l-7.9,2.64l-1.359-0.229l-0.29-0.841l1.12-3.18l-0.2-1.52l-5.83,0.39l-1.36,0.88l-0.71,1.72l2.38,1.57
		l-0.319,0.95l-1.53,1.13l-1.15-0.09l-5.069-4.021l-0.83-1.84l0.27-0.89l2.5-1.67l-0.34-1.761l-1.99-1.88l-0.06-1.569l1.33-2.12
		l-0.061-4.82l1.5-5.54l-0.71-0.92l-2.02-1.06l-2.46,1.85l0.72,1.21l-1.46,0.33l-2.75-0.9l-3.53-3.84l-10.409-3.359l-0.7,1.329
		l-3.01,1.221l-1.62-2.641l-1.69-7.58l-3.12-4.159l-1.58,0.649l-4.109-1.3l-11.391-6.86l-3.04-0.14l-0.76,0.62l0,0l-1.3,0.67
		l-7.08-4.17l-3-2.73l-2.59-0.659l-1.44-4.41l-2.74-4.78l-3.569-3.89l0,0l9.68-9.36l1.16-3.2l1.31-1.01l2.36-0.44l2.62-2.55
		l3.08-4.22l-0.22-4.41l3.18-7.38l2.85-1.97l7.86-9.45l4.03-2.49l4.01-0.62l5.39-4.189l9.15,0.21l21.01-6.261l0,0l0.62,2.601
		l-1.62,1.42l0.28,3.72l0.97,1.37l3.69,3.05l7.39,1.58l1.37,1.12l0,0l0.149,26.14l9.431-0.239l7.35,1.62l3.99-1.41l4.55,3.02
		l3.61,5.55l-0.78,4.53l1.3,4.46l-3.38,1.13l-3.2-0.27l-7.08-4.65l-9.239,2.431l-4.63,3.1l-10.261,0.67l-0.55,30.4l5.13,6.01l8,6.2
		l4.49,1.569l0.99,1.061l1.359,4.71l-1.72,3.66l0.11,1.29l3.91,7.27l3.439,2.771L506.02,561.33z"/>
</g>
</svg>
