<?xml version="1.0" encoding="utf-8"?>
<!-- Generator: Adobe Illustrator 15.0.0, SVG Export Plug-In . SVG Version: 6.00 Build 0)  -->
<!DOCTYPE svg PUBLIC "-//W3C//DTD SVG 1.1//EN" "http://www.w3.org/Graphics/SVG/1.1/DTD/svg11.dtd">
<svg version="1.1" id="Layer_1" xmlns:amcharts="http://amcharts.com/ammap"
	 xmlns="http://www.w3.org/2000/svg" xmlns:xlink="http://www.w3.org/1999/xlink" x="0px" y="0px" width="680.5px" height="640.5px"
	 viewBox="0 0 680.5 640.5" enable-background="new 0 0 680.5 640.5" xml:space="preserve">
<defs>
	
	
		<amcharts:ammap  projection="mercator" leftLongitude="-85.950620" topLatitude="11.217063" bottomLatitude="8.032572" rightLongitude="-82.556099">
		</amcharts:ammap>
</defs>
<g>
	<path id="CR-A" fill="#1E3250" stroke="#1E3250" stroke-width="0.5" d="M242.75,26.65l13.39,7.81l6.77-2.22l1.92,3.53l14.11,5.97
		l6.43,7.03l2.76,1.52l3.99-0.16l2.87-2.58l4.82-1.41l3.88-2.88l2.59,3.76l-1.3,5.08l1.9,1.3l2.86,5.27l5.21,0.72l2.87,3.99
		l6.36,1.24l5.43,3.53l0.81,5.23l-1.45,3.04l-2.82,0.83l0.37,1.17l5.81,3.28l1.11,2.82l2.06-1.63l6.84,0.36l0,0L341,121.93
		l-0.42,79.46l0.85,19.49l-2.67,10.11l-1.09,2.28l-2.92,2.56l1.38,4.41l0,0l-2.25-0.11l-2.84,1.29l-6.13,5.47l-3.24,1.25l-16.91,2.3
		l-5.76-2.61l-15.19,1.69l-8.09,5.29l-3.02,3.03l-2.63,0.76l-5.36,8.57l-2.48,0.03l0,0l-3.69-2.15l-1.36-3.83l-14.03-1.64l-1.5-2.44
		l0.26-3.47l1.39-1.77l2.34-0.76l3.9-6.74l6.09-0.34l5.42-6.03l4.33-1.62l0.95-3.38l-0.44-3.56l-2.96-2.99l-10.25-0.53l-1.43-6.25
		l-2.74-1.26l-4.12-7.97l0.05-10.92l-2.22-1.5l4.64-9.43l-1.08-3.78l-4.33-4.97l-1.97-0.7l-9.62,3.96l-6.39-4.45l-3.35-4.88l0,0
		l3.77-8.38l1.13-0.73l-2.52-3.86l0.89-10.14l0,0l8.33-0.22l-1-3.38l-3.02-0.96l-2.21-3.06l-3.38,0.32l0,0l-0.12-4.62l-3.06-0.44
		l-3.04-1.88l-4.04-2.72l-4.55-4.85l-5.43-2.97l-7.76-0.08l-2.27-3.35l-6.35-5.08l-4.09-5.04l-3.85-13.14l-14.68-5.09l-7.42-0.09
		l-3.64-4.99l-3.63-2.33l-3.64-0.88l-18.38,0.96l-1.94-1.79l-2.07-8.92l-9.43-4.37l-3.18-2.86l-3.5-8.41l-7.13-11.1l1.16-1.94
		l6.32-2.31l2.59-2.27l3.81-8.33l4.6-0.07l1.97-1.5l1.9,0.01l3.03,3.73l3.1,2.18l2.3,0.05l2.14-11.79l0,0l10.03,5.16l55.83,20.93
		L242.75,26.65z"/>
	<path id="CR-C" fill="#1E3250" stroke="#1E3250" stroke-width="0.5" d="M383.02,205.77l30.68,16.6l32.53,14.75h57.1l-1.16,1.76
		l-2.56,1.22l-0.86,4.24l-2.69,0.54l0.9,8.16l1.41,3.31l-0.311,5.72l1.48,3.82l-15.76,19.98l-1.87,3.23l-1.38,8.8l-18.101,16.23
		l2.62,5.521l0.021,5.3l1.62,5.819l0,0l-4.25-1.96l-6.23-5.31l-6.27-1.96l-11.351-7.36l-2.06,0.29l-2.511,3.3l-3.06,1.99
		l-2.38-1.149l-3.95,0.97l-2.26-0.57l-0.86-2.109l-4.22-0.98l-0.83-2.92l0.58-2.49l-1.78,0.221l-10.109-3.4l-2.46-1.83l-1.87-7.79
		l-6.28-0.29l-4.4-3.63l-1.71,0.86l-3.64-3.13l-2.02-0.18l-0.72-1.07l0.1-4.85l-4.82-2.12l-4.07-8.19l-6.51,3.69l-5.73,0.91
		l-5.15-1.24l0.87-1.82l-0.3-2.64l10.43-5.94l5.12-8.62l0.84-3.31l-0.95-1.07l-5.05,0.37l0.27-2.83l5.22-4.82l0.21-3.01l9.56-1.81
		l2.83,0.55l3.43-0.67l3.59-3.44l3.14,1.13l3.42-1.08l0.88-1.76l-3.43-12.2l-3-2.74l-6.07-3.3L383.02,205.77z"/>
	<path id="CR-G" fill="#1E3250" stroke="#1E3250" stroke-width="0.5" d="M82.02,10.49l20.19,7.42l10.88-0.04l18.73,9.25l0,0
		l-2.13,11.79l-2.3-0.05l-3.1-2.17l-3.03-3.74l-1.9-0.01l-1.97,1.5l-4.6,0.07l-3.81,8.33l-2.59,2.27l-6.32,2.32l-1.16,1.94
		l7.13,11.09l3.5,8.41l3.18,2.87l9.43,4.37l2.07,8.91l1.95,1.8l18.38-0.97l3.65,0.89l3.63,2.33l3.64,4.99l7.42,0.09l14.68,5.09
		l3.85,13.14l4.1,5.04l6.34,5.09l2.27,3.35l7.76,0.08l5.43,2.97l4.55,4.85l4.04,2.72l3.04,1.88l3.06,0.44l0.12,4.62l0,0l-2.61,1.11
		l-2.82-0.15l-7.28-8.07l-6.91-4.67l-2.89-0.44l-0.49-3.57l-0.91,0.49l-3.02-1.36l-0.47,1.92l-1.94,0.69l-1.18-1.01l-3-0.32
		l-0.38,1.05l-3.68-0.01l8.58,7.16l1.74,0.36l-0.16-1.73l2.31,0.4l2.31,2.6l3.26,1.64l5.61,1.29l2.75,1.95l0.39,3.86l4.39,0.69
		l7.68,3.43l0,0l-0.89,10.14l2.52,3.86l-1.13,0.72l-3.77,8.38l0,0l-3.18-2.63l-4.35-1.27l-3.41,1.59l-3.11,4.25l-1.31,6.91
		l-3.33,8.87l1.05,6.91l-3.89,0.97l-4.16,3.81l0.73,3.79l-2.42,4.34l-2.53,0.07l-18.64-8.91l-3.68,0.1l0.65,7.01l0,0l-1.89-0.34
		l-3.94-4.42l0.23-0.79l3.04,1.09l0.76-0.79l-0.48-1.15l-1.2,0.47l-5.78-2.28l-5.47,3.04l-12.8-3.5l-3.07-2.51l-1.5-4.4l0.92-3.13
		l-1.22-2l-1.57-2.23l-7.79-4.42l1.05-3.09l-4.88-4.08l-0.56-1.42l-1.49-1.34l-5.4-0.14l-1.83,1.18l-2.78-0.91l2.68,2.06l4.66-1.33
		l2.61,0.69l2.62,3.44l2.42,1.53l0.56,5.63l3.71,1.37l4.04,3.45l0.45,8.24l-1.2,5.08l1.32,5.15l2.22,3.69l-2.41-2.19l-3.35-1.27
		l-3.68,0.85l-1.16,1.23l2.57-0.59l0.7,0.89l-1.26,1.8l2.18-1.48l0.32-1.32l4.15,1.24l0.21,1.33l-1.11,0.21l1.4,1.34l-0.94,1.05
		l0.51,1.64l0.58-0.57l3.51,3.22l4.23,1.77l4.15,5.48l2.07,1.08l1.78-0.69l-0.16,3.05l-4.63-1.86l-1.92-2.54l-2.04,1.13l1.94,0.64
		l2.45,3.08l1.33-0.34l1.49,1.93l0,0l-2.46,6.27l-2.24,2.25l-5.92,0.22l-1.06,1.13l-10.81,2.2l-3.03,2.91l0.02,2.89l2.05,1.56
		l12.22,2.96l4.41,7.9l4.16,0.58l-3.91,8.76l0.71,5.06l-2.23,4.91l-5.3,5.79l0,0l-7.23-4.94l0.73-2.16l-1.12-2.97l-6.94-5.02
		l-4.24-1.02l-1.57-2.27l-4.35-2.65l-6.74-2.37l-1.25,1.14l-1.68-0.19l-6.07-2.71l-2.52,0.38l-0.59,1.63l-1.33,0.39l-3.52-2.02
		l-0.96-1.64l-3.68,1.47l-0.16-1.64l-1.93-1.57l-2.53,0.77l-4.54-0.97l-2.08,0.56l-4.97-2.56l-5.93,0.08l-0.91-1.78l-2.38-1.26
		l-1.95,0.47l-0.28,1.1l-2.77-1.39l1.26-1.94l-0.42-2.75l-3.17-6.62l-4.37-6.01l-6.46-5.89l-2.26-5.02l-6.93-8.11l-2.58-9.05
		l-3.52-7.69l-3.02-4.1l-0.27-4.83l-2.22-4.89l0.43-3.89l-1.08-3.82l3.26-3.51L17.66,169l-3-1.4l0.64-2.34l3.91-1.12l4.85-8.24
		l0.92,1.07l2.97-0.02l1.81-4.68l-0.51-2.57l1.72,1.08l2.14-2.11l-0.85-4.7l-3.04-2.46l-1.04-2.67l0.76-0.75l-1.84-2.45l2.97-0.51
		l3-4.41l2.21,0.24l1.67,2.19l1.29-0.04l7.62-5.56l1.72,0.9L48.7,127l-0.6-2.58l3.51-0.81l0.56-2.65l4.12-0.05l1.17-2.83l1.33,0.23
		l2.48-4.46l-0.88-1.34l-3.76-1.32l-4.18,1.91l-0.02,2.22l-1.17,1.63l-2.05,1.13l-1.11-0.41l1.61-1.4l0.38-3.32l2.54-1.71
		l-1.77-0.68l1.78-1.09l0.24-2.26l1.42,0.37l2.5-2.19l-2.43-9.46l1.29-7.85l-5.22-7.45l-2.71,0.24l-0.83-1.03l-7.71-1.49l-2.45,0.78
		l-1.17,1.72l-6.02-2.27l-1.88-3.39l0.19-1.37l2.83,0.6l-1.04-3.11L27.16,72l-8.96-1.26l-2.05-3.98l-10.2-4.43L0,63.35l15.67-6.04
		l1.04-2.08l-3.8-2.6l2.62-0.33l9.22,1.1l1.23,1.3l-0.81,1.37l0.43,2l3.05,1.8l2.4-0.34l-1.39-3.34l2.94-1.57l2.44,0.11l0.44,1.02
		l3.34-1.13l4.17,0.66l0.3,1.6l1.86,0.86l0.46-2.39l1.7-1.18l-3.12-2.2l0.44-0.93l1.64,0.32l0.32-0.97l2.36-0.42l0.91-2.17
		l-6.43-6.23l-4.73-1.99l-1.63-2.01l1.48-2.03l1.51,0.01l0.55-2.04l1.64-0.21l2.38,2.91L48.8,37l3.79-1.79l0.81-1.68l-0.42-3.25
		l-3.26-2.74l-1.59,0.07l13.79-23l1.43-3.93L65.01,0l9.73,1.67L82.02,10.49z"/>
	<path id="CR-H" fill="#1E3250" stroke="#1E3250" stroke-width="0.5" d="M368.42,83.69l2.08,3.71l6.01,3.44l1.58,3.29l4.77,1.36
		l1.39,2.64l1.43,0.17l5.18-2.53l6.57,0.45l4.431-4.67l5.39-0.51l4.33-4.47l6.38-0.35l0,0l2.94,1.37l-0.881,3.84l6.83,5.94
		l1.16,2.63l-11.51-0.2l-2.3,2.2l-4.47,0.64l-3.61,4.9l-2.76-0.16l-1.42,3.05l-0.421,5.91l2.28,3.75l-2.439,5.62l-0.07,3.82
		l3.72,10.59l-1.45,3.97l0.641,2.3l-2.15,1.44l-3-0.03l-3.54,5.18l-0.5,2.79l1.8,5.09l2.801,3.68l1.25,10.88l-6.64,14.22l-4.17,5.54
		l-3.67,2.53l0,0l-9.21,6.26l-1.67,2.18l-0.17,9.07l-1.62,2.06l-5.67,0.73l-1.43,4.54l3.47,5.39l-1.52,5.76l-2.45,2.83l-5.96,3
		l-2.88-0.04l-7.08,2.04l-3.76-0.94l-3.48,1.2l-6.82-1.55l0,0l-1.38-4.41l2.92-2.56l1.09-2.28l2.67-10.11l-0.85-19.49l0.42-79.46
		l1.34-38.68l0,0l4.31-0.41l1.23,3.47l1.72,0.37l2.8-1.27l6.22,2.11l1.17-0.33l1.44-2.7l3.44,0.729l1.24-2.75L368.42,83.69z"/>
	<path id="CR-L" fill="#1E3250" stroke="#1E3250" stroke-width="0.5" d="M446.24,70.96l3.64,12.13l-3.67,0.58l-3.82-10.8l-1.33,3.28
		l3.62,10.99L444.49,91l-1.721,3.09l-3.239,1.35l3.819-0.58l2.48-2.89l1.33,3.47l3.189-8.96l2.15,9.8l10.17,23.87l-0.2,3.99
		l3.42,7.94l-2.25-9.16l6.011,14.72l11.38,19.91l8.56,12.15l4.76,4.73l-0.06,0.88l-2.25-0.57l3.99,2.02l6.16,7.64l7.63,12.03
		l-0.41,2.91l1.57-0.74l-2.061-6.12l10.14,12.57l0.73,4.04l1.37,0.42l-0.811-2.35l11.42,13.25l10.15,13.63l2.99,1.38l5.57-2.59
		l6.239,2.68l-0.489,4.72l3.989,6.98l4.511,4.81l-0.771,1.22l1.67,0.57l22.76,29.51l5.08,2.66l4.891-1.59l-1.28,4.44l4.35,8.7
		l3.2,3.46l3.521,0.91l2.22-0.49l7.71,3.29l3.9-0.63l4.119,1.49l2.32-1.01l5.11,0.68l1.3,1.26l-0.3,2.069l2.569,4.021l9,5.28
		l1.261,5.05l-2-0.46l-2.521-3.48l-3.75-0.08l-0.95,1.49l1.08,4.2l-2.38,5.71l-3.51,0.01l-2.69,1.11l-2.029-3.13l-2.87,1.859
		l-0.641-1.6l-4.52,0.1l-0.09-2.029l-1.61-1.62l1.71-1.34l-0.47-0.841l-2.13-1.989l-0.92,2.01l-3.351-2.75l0.49-2.2l-2.25-0.47
		l-1.2-2.11l-3.5-0.569l-4.859-3.69l-3.45,1.35l-4.851-4.029l-5.04,0.77l-0.89,2.73l-2.28,1.59l-1.55,4.689l0.53,2.57l2.42,0.58
		l-0.32,5.51l0.82,0.86l2.03-0.101l-0.521,1.721l1.21-0.511l2.221,2.04l-18.051,5.04l0.261,70.98l0.22,4.33l0.93,1.399l0,0
		l0.41,2.271l-4.99-1.48l-2.58-1.939l-2-3.811l-1.96-11l-2.739-1.479l-9.841-2.101l0.301-4.159l-2.37-4.771l-0.34-6.1L535.6,371.64
		l-7-8.34l-6.989,1.17l-3.19-0.72l-2.51-3.57l-6.32-1.899l-4.95-4.53l-3.85-2.03l-3.45,2.28l-1.26,4.64l-3.8-0.3l-4.931,2.96
		l-0.46-2.35l-1.779-1.8l-3.42-1.29l0,0l-4.5-3.25l-6.021-13.03l-1.3-5.96l-3.18-2.851l0,0l-1.62-5.819l-0.021-5.3l-2.62-5.521
		l18.101-16.23l1.38-8.8l1.87-3.23l15.76-19.98l-1.48-3.82l0.311-5.72l-1.41-3.31l-0.9-8.16l2.69-0.54l0.86-4.24l2.56-1.22
		l1.16-1.76h-57.1l-32.53-14.75l-30.68-16.6l0,0l0,0l0,0l3.36-8.06l0,0l3.67-2.53l4.17-5.54l6.64-14.22l-1.25-10.88l-2.801-3.68
		l-1.8-5.09l0.5-2.79l3.54-5.18l3,0.03l2.15-1.44l-0.641-2.3l1.45-3.97l-3.72-10.59l0.07-3.82l2.439-5.62l-2.28-3.75l0.421-5.91
		l1.42-3.05l2.76,0.16l3.61-4.9l4.47-0.64l2.3-2.2l11.51,0.2l-1.16-2.63l-6.83-5.94l0.881-3.84l-2.94-1.37l0,0l7.69-3.7l2.85,0.62
		l3.36-0.65l1.609-0.82l2.101-3.12l0.439-2l-1.79-5.2l0.57-5.89l-1.95-3.52l0.72-2.94l-3.22-3.95l0.16-1.13l4.01,1.1l3.98,3.57
		l3.229,3.69L446.24,70.96z"/>
	<path id="CR-LA" fill="#1E3250" stroke="#1E3250" stroke-width="0.5" d="M222.11,143.39l3.38-0.32l2.21,3.06l3.02,0.96l1,3.38
		l-8.33,0.22l0,0l-7.68-3.43l-4.38-0.68l-0.39-3.87l-2.76-1.94l-5.61-1.3l-3.26-1.64l-2.31-2.6l-2.31-0.4l0.16,1.73l-1.74-0.35
		l-8.58-7.17l3.68,0.02l0.38-1.05l3,0.32l1.17,1.01l1.94-0.69l0.47-1.92l3.02,1.36l0.91-0.49l0.5,3.57l2.88,0.45l6.91,4.66
		l7.28,8.07l2.82,0.15L222.11,143.39z"/>
	<path id="CR-P" fill="#1E3250" stroke="#1E3250" stroke-width="0.5" d="M392.74,482.35l-2.02-0.3l0.17-2.42l3.74,0.19
		L392.74,482.35z M443.73,440.51l-1.021-0.02l-0.69-3.62l0.931-0.47l1.46,2.18L443.73,440.51z M443.13,433.72l-0.86,1.221
		l-1.18-0.721l-0.07-9.479l-1.979-5.67l1.89,0.08l1.9,5.449l-0.23,3.21l1.551,4.921L443.13,433.72z M201.5,248.19l-3.67,0.18
		l-1.58-1.48l2.22-1.17l-0.3-1.15l3.23,0.43L201.5,248.19z M169.73,237.13l2.54,2.33l-3.58-0.13l-1.16,1.05l-2.5-2.33l0.67-0.92
		H169.73z M181.31,236.38l6.84,2.55l-3.19,0.19l-6.79-2.11L181.31,236.38z M159.97,240.03l2.6,0.96l2.75-0.86l1.35,2.14l3.96-2.12
		l4.61,2.84l3.49,4.33l9.69-0.24l7.18,3.13l1.11,3.68l-3.13,2.93l-0.33,1.37l2.05,2.68l0.97-0.03l0.29,1.59l2.02,1.17l-1.81,0.2
		l-2.01,1.88l0.21,1.33l2.77,1.71l3.42-1.15l2.69,0.21l2.6,0.69l-0.28,1.19l-2.13,0.82l-0.46,1.14l-2.97,0.32l-1.49,2.81l-3.33,0.89
		l0.29,1.46l-2.12,4.35l-3.54,0.36l-0.5,5.47l-1.2,0.61l-2.2-0.64l-4.08-2.96l-2.8,1.16l-1.39,2.06l-0.12,2.56l3.29,2.34l-2.59,2.75
		l-3.1,0.81l-2.28,2.23l-2.62,0.99l-2.69,3.19l-4.21,13.601l-0.72,1.63l-2.75,0.899l-0.38,2.33l-1.21-2.17l-3.12-1.14l-1.66-1.74
		l-1.03-6.9l-10.58-11.02l-1.72-4.75l-4.29-6.17l0,0l5.3-5.79l2.23-4.91l-0.71-5.06l3.91-8.76l-4.16-0.58l-4.41-7.9l-12.22-2.96
		l-2.05-1.56l-0.02-2.89l3.03-2.91l10.81-2.2l1.06-1.13l5.92-0.22l2.24-2.25l2.46-6.27l0,0l0.64,1.59l5.53,4.22l2.25,0.51
		L159.97,240.03z M152.24,212.97l1.9-0.16l6.44,2.41l-0.36,0.75l-3.27-0.21l-5.17-0.94l-1.23-1.07l0.56,1.69l2.46,1.27l3.41-0.14
		l1.53,1.65l2.36-0.95l1.81,0.68l-1.48,1.71l-3.56,1.47l-5.01,0.7l-3.05-0.25l-2.95-1.49l-2.9-6.18l0.54-0.92l3.86-1.29
		L152.24,212.97z M220.12,173.8l3.35,4.88l6.39,4.45l9.62-3.96l1.98,0.7l4.33,4.97l1.08,3.78l-4.64,9.43l2.22,1.5l-0.06,10.92
		l4.12,7.98l2.74,1.25l1.43,6.26l10.25,0.53l2.96,2.979l0.44,3.57l-0.95,3.37l-4.33,1.62l-5.42,6.04l-6.09,0.34l-3.91,6.74
		l-2.34,0.76l-1.39,1.77l-0.25,3.47l1.5,2.44l14.02,1.64l1.37,3.83l3.68,2.15l0,0l-2.01,2.25L260.1,272l3.28-0.09l1.56,4.4l2.7-0.07
		l1.26,2.04l-3.48,3.1l-4.61-0.22l-1.3,0.84l-0.54,5.67l1.56,4.52l-0.45,4.57l0.93,2.51l4.5,4.84l1.05,7.01l2.61,3.16l4.88,1.6
		l12.68-1.26l0.93,2.68l1.94,1.62l7.07-9.07l-1.6-3.819l1.43-2.4l4.45,0.63l9.3-0.65l3.27-2.4l4.5,2.82l5.34,1.87l5.74-0.21
		l4.14,2.14l6.04-2.12l4.09,0.41l1.58,0.82l0.98,2.22l-0.7,6.01l2.22,3.4l2.21,0.75l3.75-1.601l4.19,1.73l-0.18,10.5l3.37,1.35
		l2.58,4.03l7.14,4.53l1.79,4.56l2.92-0.66l1.79,4.45l3.71,3.36l3.55-0.67l2.73-3.53l3.07,0.67l2.86,8.11l4.771,4.31l4.34,1.09
		l-2.01,4.38l0.6,9.66l5.18,4.3l6.42,3.28l4.971,0.85l4.29-5.189l6.39,4.49l7.93,14.88l8.2,3.229l3.16,4.351l11.54,5.62l4.07-0.46
		l4.979-3.131l1.41-3.09l0.07-3.97l2.8-2.84l1.56-4.19l-1.439-4.34l-4.03,0.05l-2.68-1.14l-2-1.73l0.14-1.159l2.22-3.11l0.141-5.36
		l5.71-5.8l2.83-5.95l7.18-9.3l0,0l3.43,1.29l1.771,1.8l0.46,2.351l4.93-2.96l3.8,0.3l1.261-4.65l3.449-2.279l3.851,2.029l4.95,4.53
		l6.319,1.91l2.511,3.56l3.18,0.721l6.99-1.171l7.01,8.341l14.38,6.35l0.33,6.1l2.37,4.78l-0.29,4.16l9.83,2.1l2.75,1.48l1.96,11.01
		l2,3.8l2.58,1.95l4.99,1.48l-0.41-2.271l0,0l5.93-2.79l2.35,0.2l3.45,5.69l9.97,6.27l2.971,3.25l7.1,1.811l3.44,2.42l2.1,5.13
		l3.8,3.34l0.11,2.05l-0.33,1.13l-5.76,3.07l-4.521,5.83l-6.78,1.38l-2.55,2.15l-6.479,1.239l-2.99,1.53l-2.66,4.04l2.96,3.47
		l-0.569,1.96l-4.37,2.19l-0.271,2.27l-4.359,1.58l0.64,1.59l-0.72,2.25l3.92,6.33l6.14,4.25l2.35,5.67l4.62,6.4l-1.42,2.86
		l1.04,1.609l1.07,7.17l-2.71,3.851l0.95,7.68l-2.7,7.8l-2.15,3.01l-3.72,2.24l-4.15,1.101l-5.359-0.5L564,548.09l-10.2,4.55
		l-0.88,1.79l1.46,3.53l4.43,1.67l5.771,5.65l3.46-0.891l6.57,2.33l1.529,5.4l-0.34,5.81l4.51,3.311l-0.14,7.17l3.33,8.649
		L582.45,612l-2.181-0.79l-2.17-3.69l0.32-2.939l1.82-1.021l0.47-1.439l-0.27-4.49l-3.37-5.29l-3.221-9.07l-6.81-10.01l-3.58-3.5
		l-3.62-1.47l-10.02-7.66l-9.53-5.45l-5.87-5.949l-0.26-2.561l1.12-3.45l6.29-5.08l0.449-3.159l1.98-2.471l-3.66-6.93l-5.31-6.08
		l-1.891-4.83l1.44,0.51l1.41,2.53l0.66-0.12l-0.75-2.08l2.81,0.051l2.24-2.341l1.56-0.13l-1.95-0.54l-4.029,1.641l-3.99-3.5
		l-4.641-6.29l-0.279-1.46l1.55-2.96l1.33,2.18l1.83,0.87l-0.74,1.88l0.82,0.939l-1.04,1.391l0.85,1.56l3.74-2.66l1.79,0.561
		l0.68-0.96l-1.3-1.12l-1.32,0.2l-4.16-6.37l-2.779-2.08l-0.891,0.6l-1.13-0.64l-0.32,0.61l1.61,1.04l-1.01,2.229l-4.33-1.71
		l-1.76,0.19l-0.8-1.91l-2.681-0.09l-1.01,2.319l-3.47-5.609l-1.551,0.54l-3.81-0.811l-1.43,1.03l-2.5-3.13l-4.71-2.46l0.66-5.18
		l1.409-2.711l-1.22-0.64l-1.6,0.94l-2.74-2.29l-4.84-0.3l-0.851-1.95l-1.939,2.96l-3.12-0.76l-3.54,3.55l-2.51,0.09l-0.33-1.19
		l-4.39-0.56l-3.181,0.74l-1.13,1.699l0.17,3l2.38-0.399l0.86,1.12l-0.3,2.06l1.42-0.59l4.08,3.5l1.45,2.71l-0.551,4.17l6.4,6.62
		l5.66,3.62l2.6-0.4l5.2,1.94l4.19,4.689l2.659,1.41l1.04-1.52l0.521,0.62l-0.811,8.699l3.96,4.82l-2.869,3.51l2.38,4.62l-1.57,4.15
		l0.65,2.96l-2.78,2.939l-16.82-6.449l-10.729-5.19l-13.21-2.07l-10.051,1.11l-5.97-3.66l-1.96-3.729l-6.52-4.641l-13.59-14.649
		l-2.311-1.271l-1.56,1.12l-2.9-5.939l1.79-4.771l2.77-2.46l0.91-5.13l2.101-1.771l7.72-1.02l1.56-1.21l1.061-5.88l3.08-2.68
		l-1.181-0.721l-0.93,0.65l-0.07-4.101l4.381-1.25l1.13-1.88l1,0.63l-0.71-2.52l4.64-0.94l1.53,0.551l1.52-1.171l-0.42-1.239
		l-1.15,0.2l-0.149-1.721l-1.98,2.521l-5.01-0.431l-1.16,3.591l-2.479,0.97l-2.51-2.68l4.789-5.12l4.641-3.931l2.04-0.58
		l5.569,1.761l-2.51-2.641l0.07-1.63l1,0.811l7.54-0.54l-1.86,5.92l-0.989,1.26l-3.54,1.04l-0.801,3.07l-1.01-0.19l1.04,1.29
		l1.59-0.189l0.88-2.801l3.15-1.449l1.77-6l2.15,0.34l6.21-2.58l-1.12-1.3l-5.5,2.42l-0.13-2.82l-3.41,1.49l-4.399-0.21
		l-3.141-1.771l-0.8,0.471l-0.27,3.479l-1.41-2.67l-3.28-1.73l-3.74,0.03l1.44-4.95l3.28,1.811l5.1,0.79l3.67,2.09l-0.49-2.34
		l-1.56-1.57l0.81-1.26l3.391,0.41l0.189-0.88l-3.51-0.591l-3.18,3.17l-6.25-3.01l-0.2-1.5l3.71,2.351l1.42-0.42l-3.5-1.511
		l-1.16-1.83l-3.76,0.95l3.38-4.57l0.13-5.64l-2.439-7.49l0.42-1.319l3.01-0.57l-2.54-0.88l-0.63-1.86l0.83-2.319l-3.54-1.82
		l-3.17-3.09l-1.601,0.899l-1.199-2.489l-2.53-1.631l-0.07-1.46l-1.229-0.42l-9.44-11.02l-2.63-0.11l-1.32,1.7l-1.399-0.73
		l0.899-1.22l-1.24-5.71l-6.199-4.33l-8.82-2.96l-0.4-2.779l-9.84-8.801l-0.46-1.51l-1.16,0.69l-3.71-2.7l-0.2-1.19l-0.8,0.78
		L366.47,361l-0.31-2.92l-1.75,2.22l-8.94-4.279l-5.37-1.271l-2.31,1.16l-1.02-2.62l-3.06,1.37l-1.95-2.979l-4.01-0.37l2.5-2.08
		l-0.98-2.88l0.63-1.09l-6.53-6.45l-5.27-2.24l-3.95-5.4l-1.06,0.431l0.52,1.109l3.48,4.15l5.36,2.06l-0.06,1.37l-6.68-2.43
		l-3.74-4.021l-5.42-0.829l4.28,1.51l0.07,1.149l-8.61-1.479l-3.06-1.9l-0.15-1.729l-1.87,0.859l-0.1,1.011l-11.26-3.24l-2.74,0.229
		l-1.88-1.92l-1.91,0.681l-10.92-2.79l-8.5,2.05l-2.35-3.12l1.03-1.22l-0.43-0.891l-2.04,0.721l-1.83-1.32l0.59,1.7l-1.96-2.141
		l-7.76-4.729l-4.06-7.51l-1.58-1.04l-1.73,0.329l-1.62-1.52l0.83-2.99l-2.19-1.62l-2.04,0.55l-0.43-1.02l1.34-1.4l0.29-1.98
		l-1.35-1.52l0.43-2.87l2.01-1.96l1.01-2.73l4.42-4.01l1.14-3.12l-1-4.83l-8.97-11.51l-3.29-1.94l-0.21-1.02l0.93-0.21l-1.21-1.83
		l-5.21-4.18l3.29-5.27l-4.51-4.08l-0.78-4.78l-1.71-1.08l-5.17-0.77l-13.63,0.9l-0.07-1.33l4.97-1.31l-5.56-1.3l-13.09-8.34
		l-0.34-1.46l-1.82,0.42l-2.53-3.83l-4.63-1.11l0.05-0.88l1.86-0.38l-1.69-3.6l-5.64-2.06l-4.73-4.96l-4.75-2.53l-2.45,1.43
		l-1.16-0.62l0,0l-0.65-7.01l3.68-0.1l18.64,8.91l2.53-0.07l2.42-4.34l-0.73-3.79l4.16-3.81l3.89-0.97l-1.05-6.91l3.33-8.87
		l1.31-6.91l3.11-4.25l3.41-1.59l4.35,1.27L220.12,173.8z"/>
	<path id="CR-SJ" fill="#1E3250" stroke="#1E3250" stroke-width="0.5" d="M383.02,205.77l3.86,13.69l6.07,3.3l3,2.74l3.43,12.2
		l-0.88,1.76l-3.42,1.08l-3.14-1.13l-3.59,3.44l-3.43,0.67l-2.83-0.55l-9.56,1.81l-0.21,3.01l-5.22,4.82l-0.27,2.83l5.05-0.37
		l0.95,1.07l-0.84,3.31l-5.12,8.62l-10.43,5.94l0.3,2.64l-0.87,1.82l5.15,1.24l5.73-0.91l6.51-3.69l4.07,8.19l4.82,2.12l-0.1,4.85
		l0.72,1.07l2.02,0.18l3.64,3.13l1.71-0.86l4.4,3.63l6.28,0.29l1.87,7.79l2.46,1.83l10.109,3.4l1.78-0.221l-0.58,2.49l0.83,2.92
		l4.22,0.98l0.86,2.109l2.26,0.57l3.95-0.97l2.38,1.149l3.06-1.99l2.511-3.3l2.06-0.29l11.351,7.36l6.27,1.96l6.23,5.31l4.25,1.96
		l0,0l3.18,2.851l1.3,5.96l6.021,13.03l4.5,3.25l0,0l-7.181,9.3l-2.83,5.95l-5.72,5.8l-0.14,5.37l-2.221,3.109l-0.14,1.16l2,1.73
		l2.67,1.14l4.03-0.06l1.439,4.34l-1.56,4.189l-2.8,2.841l-0.07,3.979l-1.41,3.09l-4.979,3.13l-4.07,0.45l-11.54-5.62l-3.17-4.35
		l-8.2-3.23l-7.92-14.88l-6.39-4.49l-4.3,5.181l-4.971-0.851l-6.41-3.279l-5.18-4.301l-0.6-9.659l2.01-4.381l-4.34-1.09l-4.77-4.31
		l-2.87-8.101l-3.06-0.67l-2.73,3.53l-3.55,0.67l-3.71-3.359l-1.79-4.44l-2.91,0.65l-1.79-4.561l-7.14-4.53l-2.58-4.029l-3.37-1.351
		l0.18-10.5l-4.19-1.729l-3.75,1.6l-2.21-0.75l-2.22-3.399l0.71-6.011l-0.98-2.229l-1.58-0.82l-4.09-0.41l-6.04,2.12l-4.15-2.13
		l-5.74,0.21l-5.35-1.87l-4.5-2.82l-3.27,2.39l-9.31,0.66l-4.44-0.63l-1.43,2.4l1.59,3.82l-7.06,9.07l-1.94-1.62l-0.94-2.681
		l-12.68,1.261l-4.87-1.601l-2.62-3.16l-1.05-7l-4.5-4.84l-0.93-2.51l0.46-4.57l-1.56-4.52l0.54-5.67l1.3-0.84l4.61,0.22l3.48-3.09
		l-1.26-2.05l-2.7,0.08l-1.56-4.41l-3.27,0.09l0.1-2.54l2.02-2.25l0,0l2.48-0.03l5.36-8.57l2.63-0.76l3.02-3.03l8.09-5.29
		l15.19-1.69l5.76,2.61l16.91-2.3l3.24-1.25l6.13-5.47l2.84-1.29l2.25,0.11l0,0l6.82,1.55l3.48-1.2l3.76,0.94l7.08-2.04l2.88,0.04
		l5.96-3l2.45-2.83l1.52-5.76l-3.47-5.39l1.43-4.54l5.67-0.73l1.62-2.06l0.17-9.07l1.67-2.18l9.21-6.26l0,0L383.02,205.77z"/>
</g>
</svg>
