<?xml version="1.0" encoding="utf-8"?>
<!-- Generator: Adobe Illustrator 15.0.0, SVG Export Plug-In . SVG Version: 6.00 Build 0)  -->
<!DOCTYPE svg PUBLIC "-//W3C//DTD SVG 1.1//EN" "http://www.w3.org/Graphics/SVG/1.1/DTD/svg11.dtd">
<svg version="1.1" id="Layer_1" xmlns:amcharts="http://amcharts.com/ammap"
	 xmlns="http://www.w3.org/2000/svg" xmlns:xlink="http://www.w3.org/1999/xlink" x="0px" y="0px" width="819.5px" height="580.5px"
	 viewBox="0 0 819.5 580.5" enable-background="new 0 0 819.5 580.5" xml:space="preserve">
<defs>
	
	
		<amcharts:ammap  projection="mercator" leftLongitude="-72.004173" topLatitude="19.932499" bottomLatitude="17.471463" rightLongitude="-68.322347">
		</amcharts:ammap>
</defs>
<g>
	<path id="DO-01" fill="#1E3250" stroke="#1E3250" stroke-width="0.5" d="M435.2,341.16l0.17-2.24l2.37-2.49l-0.13-5.529l-7.65-7.74
		l2.771-1.521l1.189-5.25l1.72-1.239l2.37,0.97l1.851,4.7l4.609,4.279l10.94-2.899l3.17,2.07l-1.55,7.619l0,0l-1.79-0.25l-6.45,3.19
		l-4.66,4.26L435.2,341.16z"/>
	<path id="DO-02" fill="#1E3250" stroke="#1E3250" stroke-width="0.5" d="M239.39,214.1l6.16-3.42l5,5.02l-1.54,3.06l0.38,3.46
		l3.85,3.86V228l-2.69,1.14l0.38,9.59l3.46,4.24L254,246.1l1.27,2.1l6.4,4.39l5.79,8.47l4.23-0.36l5.78,1.62l4.83,4.11l1.31,3.98
		v6.58l-0.78,4.93l-2.29,2.6l0,0l5.38,3.86l2.31,3.84l0.38,6.51l-2.69,4.2l0.77,1.54l8.85,6.169l3.46,7.681l5-0.74l1.15,2.69
		l7.31,1.96l3.08,4.229l5.38,0.8l1.15,1.92l-1.15,0.761v2.3l1.92,1.16v2.3l1.92,3.07l-0.39,2.68l3.7,2.55l0,0l1.68,2.83v3.06
		l-4.24,5.71l-0.39,5.73l1.15,5.36l-2.31,5.34l-8.85,2.63l-8.46,0.34l-1.11,1.05l0,0l-1.85-1.439v-1.75l2.51-5.511l1.79-0.439
		l-0.72-6.76l1.37-3.82l-2.63-10.891l-4.3-2.88l-14.94-2.819l-3.76,0.56l-1.38,3.07l-3.35,1.439l1.61,5.95l-5.08,6.38l-3.76,1.94
		l-10.82,0.25l-0.18-1.69l-1.97-0.439l-1.79,1.06l0.36,1.88l-3.94,2.63l0.24-1.13l-1.49-0.12l1.43-1.75l-2.99-1.13l-0.54,1.44
		l-2.93,1.189l-1.79,2.69l-0.18,3.13l-2.81,3.75l-7.35,7.01l-9.08,3.44l-2.45-2.22l0,0l2.33-1.87l1.93-6.87l-0.77-3.44l-4.23-6.14
		l2.7-2.28v-1.91l-3.08-1.93l-4.23,3.42l-4.62-1.56l-1.92-3.83l-3.46,0.359l-2.69-6.14l6.54-2.64l1.93-8.79l3.85-0.74l1.54-1.9
		l-1.15-3.829l-5.77-3.48l-3.07-6.91l0,0l2.31,0.78l1.92,4.6l6.93-3.399l-4.23-4.23L188.99,307l-6.54-6.16l-1.15-2.56l0,0l5.49-0.18
		l5.22-5.41h2.26l2.55-6.33l3.84-0.1l4.11-2.54l-0.38-2.68l-2.31-2.31v-1.92l3.46-1.9l-2.31-4.61l-0.38-6.13l3.46-3.43l2.69,0.02
		l1.54,1.16l2.69,6.92l1.54,0.01l6.54-11.85v-2.68l-4.23-11.14l2.31-1.52l2.31-4.59l-0.38-4.22l4.23-1.51l1.54-2.68l5.39-1.12
		l1.54-2.29l-1.92-4.61l6.54-1.11l1.16-1.53L239.39,214.1z"/>
	<path id="DO-03" fill="#1E3250" stroke="#1E3250" stroke-width="0.5" d="M100.88,290.4l5.77,3.86l4.23,1.17l7.69-0.72l5.77,3.1
		l1.16,2.3l3.07-1.51l2.69,0.78l0.39,2.3l7.69,1.57l4.23-3.04l1.93,0.01l2.69-3.04l13.08,1.22l13.85-4.9l5,1.56l1.15,3.2l0,0
		l1.15,2.55l6.54,6.17l26.54,9.34l4.23,4.229l-6.93,3.41l-1.92-4.61l-2.3-0.779l0,0l-1.54,2.29l1.92,3.46l-5.39-0.42l1.54,1.93
		l-0.77,4.2l-5.39,1.12l-0.77,3.819l-2.69,0.75l-1.92-1.54l-5.01,4.561l-4.23-0.4l-0.38,1.521l3.85,1.56l-0.39,1.521l-12.31,4.909
		l-3.08,3.811l-0.39,6.109l1.92,1.16l-0.77,1.91l0,0l-9.23,0.71l-3.07-3.46l-2.69-9.189l-3.46-2.32l-3.08-4.22l-4.23-0.03
		l-12.7,8.35l-1.92-0.01l-10.38-8.479l-6.16-3.091l-8.84-1.58l-24.23-12l-1.93-3.069l-0.76-8.05l5.77-13.36v-6.51l8.47-1.49
		L100.88,290.4z"/>
	<path id="DO-04" fill="#1E3250" stroke="#1E3250" stroke-width="0.5" d="M208.58,318.57l3.08,6.91l5.77,3.479l1.15,3.83l-1.54,1.9
		l-3.85,0.739l-1.93,8.79l-6.54,2.641l2.69,6.14l3.46-0.36l1.92,3.841l4.62,1.56l4.23-3.42l3.08,1.93v1.91l-2.69,2.28l4.229,6.14
		l0.771,3.45l-1.92,6.87l-2.33,1.87l0,0l-1.79-1.471l-1.19-4.88l-3.41-3.13l-5.38-2.5l-2.39,0.69l-0.3-1.19l-5.62-2.56l-3.11,0.88
		l-0.12,1.56l2.39-1.38l0.96,0.94l-8.78,7.819l-1.49,5.94l5.56,8.19l-1.91,2.06l4.13,4.38l1.32,4.75l2.51,2.75l-1.85,2.63
		l-1.79,7.94l-4.96,9.12l-2.27,0.88l-2.45,3.12l0.12,1.939l-4.6,3.19l0.06,4.37l-1.49,0.189l-4.24,4.431l-8.9,14.67l-3.82,4.62
		l-7.89,6.06l-3.41,6.18l-1.24-1.819l0,0l-0.31-2.53l1.15-1.521l-0.77-4.96l-1.45-1.06l-0.25-3.25l-5.09-6.38h-2.8l-1.27,4.25
		l-3.56,1.06l-4.04-5.029l-2.31-1.54l-1.79,0.3l-1.02-3.3l-2.54-1.86h-4.58l-1.53-1.86l0.76-9.83l2.54,1.33l2.8-0.8l4.07-5.32l0,0
		v-6.909l0,0l-3.56-5.851l4.58-0.27l1.27-2.92l-5.85-4.261l-4.63-0.51l0,0l0.64-6.859l1.92-2.66l3.08-0.75l3.08,1.55l6.54-0.351
		l-3.07-10.329l-5.77-11.11v-1.53l5.77-7.609l6.15,4.619l13.85,1.99l9.23-2.62l5.39-6.85l0.77-3.05l0,0l0.77-1.91l-1.92-1.16
		l0.39-6.12l3.08-3.81l12.31-4.9l0.39-1.53l-3.85-1.55l0.39-1.53l4.23,0.41l5-4.56l1.92,1.54l2.69-0.75l0.77-3.82l5.39-1.12
		l0.77-4.2l-1.54-1.92l5.39,0.41l-1.92-3.45L208.58,318.57z"/>
	<path id="DO-05" fill="#1E3250" stroke="#1E3250" stroke-width="0.5" d="M57.9,65.02l4.98,3.86l3.85-0.36l12.31,5.07l18.46-0.66
		l3.85-2.29l5.38,0.41l1.92,6.18l9.23,4.67l2.69,3.49l6.54,2.73l0,0v1.54l-5.77,6.13l-2.31,4.61l1.15,14.25l-4.23,3.82l0.37,16.55
		l-5.77,1.12l-5.38-1.18l0.77,3.85l4.23,3.1l0.77,1.92l0,0l-5.78,6.89L98.63,148l-3.08,0.75l-4.23-2.33l-1.93,1.91l-0.77,5.76
		l-3.46-0.02l-5,4.97l0,0l-6.46-0.46l-0.43-1.05l-5.06-1.05l-3.89-3.16v-1.76l-3.47-1.67l-0.17-2.29l-1.43,3.62l-1.78-3.43
		l-1.85,0.62l-1.44-1.23l0.42-2.12l-1.6-0.44l0.42-2.73l-2.29-4.05l-3.63-2.28l3.03-1.68l4.22-0.27l1.01-3.35l4.89-2.74l1.43,0.79
		l0.76-2.12l2.87,2.81h1.44l-0.86-8.28l4.04-8.47l-0.01-4.06l-3.2-5.88l1.15-8.22l-2.44,0.18l-0.61-4.67h-2.19l-0.01-3.97l-6.67-7.4
		l-0.44-11.29L57.9,65.02z"/>
	<path id="DO-06" fill="#1E3250" stroke="#1E3250" stroke-width="0.5" d="M384.84,98.82l1.92,2.32l7.31,2.74l0.77,1.93l2.69-0.37
		l1.92,1.16l3.08,10.03l-1.16,7.69l1.54,1.16l5.38,12.73l14.229,1.61l1.54,1.17l-0.39,6.92l2.311,2.32l10,1.98l8.079,3.5l13.07,3.54
		l8.08,5.81l11.92,1.6l0,0l3.851-4.97l10.77,1.98l3.46-0.75l1.93,2.32l6.54,0.04l-0.39,1.53l-1.54-0.01l-1.92,2.3l-1.16,4.6
		l-1.54-0.01l-0.38,1.54l-2.31-0.78l-0.771,1.53l-1.92,0.37v2.31l-3.47,2.28l-2.3-0.01v2.31l2.3,2.7l1.54,4.62l-5-0.03l-1.16,1.14
		l0,0l-6.54-1.57l-4.61,1.9l-6.54-0.81l-4.229,1.9l-4.62-1.57v10.37l-1.54,1.15l-7.311-0.43l0,0l2.7-12.27l-6.54-1.58l-7.31-4.65
		l-1.92-0.01l-3.851,2.67l-2.689-1.94l-8.851-2.35l-3.84-3.48l-2.7-0.02l-1.149-2.31l-3.851,1.9l-1.149-1.54l-2.69-0.4l-2.31,2.68
		l-1.16-0.4l0,0v-3.07l0,0l-2.3,0.76l-1.93,3.44v-2.69l-4.23,0.75l0.77-2.69l-1.54-0.39l-4.23,3.82l-1.15-1.54l-1.16,2.68
		l-3.84-1.18l-1.16-1.92l-2.3,0.75l-0.77-1.92l-6.16,0.35l-1.15,0.76l0.76,1.54l0,0l-1.53-0.01l-1.54-3.08l-5.77-3.11l-5.77-5.79
		l-3.07-5.79l0,0l-1.92-7.7l5-6.51v-3.84l1.93-4.22l-0.39-2.7l3.47-13.44l6.16-4.59l10.39-4.56v-1.15l-3.08-1.17l-0.77-1.93
		l1.15-2.31l6.93-3.04l0.39-3.07l-1.93-1.94l0,0L384.84,98.82z"/>
	<path id="DO-08" fill="#1E3250" stroke="#1E3250" stroke-width="0.5" d="M615.64,201.59l1.79,0.57l4,6.72l3.471,0.19l0.779,2.64
		l6.99,3.33l11.12-0.88l1.91-2.7l-2.45-3.33l2.27-1l3.82,1.26l3.53-3.96l3.29,1.19l2.63-1.26l5.56,1.19l11.24,7.85l6.09-0.82
		l4.78,3.27l4.53,0.38l0,0v3.87l-1.92-0.78l-0.391,3.45l-1.92-0.78l-1.149,2.3l-3.08,0.37l-0.391,6.14l-4.229,2.66l7.3,16.54
		l-0.39,9.97l-9.62,8l-3.46,6.5l-5.391-0.8l-6.149,1.12l-0.391,6.13l-1.54,1.52l1.92,4.61l0,0l-7.31-1.19l-6.93,14.52l-3.46,4.58
		l-6.54,4.94l-0.771,2.68l-4.229,4.189l-4.62,1.511l0,0l1.16-9.181l1.92-0.75l-0.771-1.529l-6.149-0.04l-4.62,1.89l-5.771-3.09
		l-1.92-4.61l-6.149-4.25l-3.46-1.17l-4.62,1.12l-1.15-2.69l-3.07-1.17l0,0l0.391-3.83l3.85-2.28l3.86-23.35l-1.92-4.23l-6.53-8.09
		l-7.311-3.11l-1.149-3.84l-3.46-1.55l-2.69-6.54l-2.31-2.31v-2.3l1.93-9.58l1.92-0.37l15.38,8.91l12.311,1.6l1.16-1.91l-0.381-2.69
		l-8.08-6.95l-3.08-5.39l-0.38-4.22l3.08-0.75l2.3-2.35l0,0l2.021,2.19l2.75-0.44l1.38-0.44l6.33-0.38l1.14,1.32l-0.54,1.63
		l1.79,0.63l1.61-2.45l-0.24-5.47l-1.38-1.82l-2.569,0.63L615.64,201.59z"/>
	<path id="DO-09" fill="#1E3250" stroke="#1E3250" stroke-width="0.5" d="M351.07,49.38l3.23,4.86l9.68,7.89l9.21,3.97l8.9,0.26
		l12.13,4.41l5.379,0.13l11.42-2.35l0,0l-0.399,7.69l-1.93,4.229l-14.23,7.24l-7.31-1.2L386,87.27l0.76,5.79l-1.92,5.76l0,0
		l-4.62-0.41l0,0l-5.38-6.19v-5.4l-3.85-1.94l-6.92,1.5l-1.92,2.68l-2.31,0.76l-3.47,8.84l-1.92,0.76l-3.46-2.33l-1.16-5.4
		l-4.23-0.79l-4.61-3.88l-5,11.52l0.38,5.4l-1.93,3.07v3.08l3.08,4.63v2.7l-2.7,5.75l-4.24,16.14l0,0l-2.3,3.44l-5.01-0.02
		l-0.76-8.08l-3.46-6.56l-3.85,4.21l-3.46,0.36l-10.39-1.21l-2.31-3.48l0,0l2.32-3.45l4.23,1.18l-2.69-9.63l2.69-6.15l-0.38-5.77
		l8.08-5.35v-4.62l0,0l2.31-1.91l0.77-8.86l3.47-4.22l-1.16-5.01l1.54-2.69l-0.76-3.47l2.3-0.76l-0.38-1.93l1.92-1.91l3.08,1.55
		l1.16-1.15l2.69,0.02L331,65l0.38-2.7l3.47,0.41l1.54-1.15l2.3,3.1l1.54,0.01l1.16-1.92l1.53,1.55l0.39-1.93l1.54,1.94l1.53-0.38
		l-1.53-2.32l5.38-1.51l-1.53-5.41l2.31-5.31l0,0H351.07z"/>
	<path id="DO-30" fill="#1E3250" stroke="#1E3250" stroke-width="0.5" d="M600.59,207.63l-2.3,2.35l-3.08,0.75l0.38,4.22l3.08,5.39
		l8.08,6.95l0.38,2.69l-1.149,1.91l-12.311-1.6l-15.38-8.91l-1.92,0.37l-1.93,9.58v2.3l2.31,2.31l2.69,6.54l3.46,1.55l1.149,3.84
		l7.311,3.11l6.54,8.09l1.92,4.23l-3.86,23.36l-3.85,2.28l-0.391,3.83l0,0l-4.229,3.81l-5,0.36l-1.92,6.12l0.77,5.36l-2.31-0.01
		l-0.39,2.3l-6.921,5.32l-1.54,3.439l-4.229-6.91l-3.07-9.97l-3.46-2.32l-1.92-6.52l-3.46-5.77l-2.31-1.16l-0.38-1.53l2.699-3.43
		l-1.54-2.31v-6.13l-2.31-6.53l-3.46-1.55l-0.771-1.92l1.54-7.28l0,0l1.54-1.14l0.391-2.68l1.54-0.37l3.47-4.58l4.229-1.13
		l1.54-3.83l3.08-0.37l1.54-4.98l-3.85-1.17l-6.15,1.12l-9.62-4.66l-16.149-8.92l-2.69-3.08l-5.38-2.33l-3.84-3.48l-6.15-1.95
		l-1.92-3.08l0,0l5.061-16.43l0,0l2.449,0.5l8.19-2.89l3.53,2.2l10.16-1.76l1.789,2.83l5.62-0.88l2.75,2.51l2.511-1.26l0.72-4.71
		l-8.431,0.63l6.101-1.7l7.77-0.38l6.57,4.21l-0.42,3.83l1.31,2.14l5.44,1.32l2.45,2.01l6.87-1.19l2.989,3.14l3.53,0.88l3.94,3.39
		l6.689-2.64h1.61L600.59,207.63z"/>
	<path id="DO-10" fill="#1E3250" stroke="#1E3250" stroke-width="0.5" d="M44.47,282.42l8.71,0.05l18.85,3.93l12.31-0.31l4.23,1.94
		l12.31,2.37l0,0l0,0l0,0l0,0l0,0l-6.54,2.64l-8.47,1.49v6.51L80.1,314.4l0.76,8.05l1.93,3.069l24.23,12l8.84,1.58l6.16,3.091
		l10.38,8.479l1.92,0.01l12.7-8.35l4.23,0.03l3.08,4.22l3.46,2.32l2.69,9.189l3.07,3.46l9.23-0.71l0,0l-0.77,3.05l-5.38,6.851
		l-9.24,2.63l-13.85-1.99l-6.15-4.62l-5.77,7.61v1.53l5.77,11.109l3.07,10.34l-6.54,0.341l-3.08-1.54l-3.07,0.739l-1.93,2.67
		l-0.64,6.851l0,0l-15.71-14.12l-8.39-0.79l-9.49-4.36l-9.08-1.5l-10.54-8.159l-2.69-3.461l-8.12-2.76l0,0l6.78-11.399l-21.7-8.63
		l-1.86-3.15l-5.66-1.22l-3.05-6.91l-13.18-6.29l-2.03-6.3l7.25-1.33l-0.17-2.891L11.5,306.07l-2.63-5.87H7.1l-2.29-3.15l-3.04,0.44
		L0,295.83l5.65-2.56l3.45-4.65l8.28,4.81l3.2-3.17h1.86l4.48,2.71l0.76,2.1l1.44-0.17l1-2.11l3.63,0.43l1.69,1.49l3.63-1.06
		l2.62,0.61l1.85-1.06l-0.68-5.88L44.47,282.42z"/>
	<path id="DO-11" fill="#1E3250" stroke="#1E3250" stroke-width="0.5" d="M696.2,392.28l13.03,6.06l4.18,0.13l-0.36-1.189
		l3.351,0.56l1.14,2l3.88,1.44l10.82-0.561l5.439,5.19l1.021,5.25l-1.79,1.13l-2.271-1.94l-11.949-2.619l-9.561,3.63l-14.52-5.061
		l0.12-2l-6.15-6.25l0.36-3.63L696.2,392.28z M691.06,216.23l9.74,4.27l10.16,6.97l10.46,10.3l6.28,8.66l2.87,1.57l1.02,2.13
		l3.41,2.01l8.37,8.79l2.81,1.95l1.73-1.57l1.5,0.88l0.54,1.76l6.989,6.21l4.36,1.38l5.98,7.65l4.12,2.19l4.6,5.58l2.03,1.32
		l1.79-1.13l7.649,5.14l4,5.45l-0.78,1.32l1.32,0.82l-0.359,2.76l-1.37,0.13l1.199,1.69l-11.77,20.36l-2.63,0.689l-1.97,7.141
		l-4.601,3.01l-4.6,5.39l-1.37,14.59l-3.11,3.82l-5.319,1.69l-14.7-4.69l-7.891-5.2l-3.64,1.75l-0.9,3.44l2.75,3.439l0.301,2.32
		l-3.051,6.76l-2.51,2.57l-3.109,7.94l-0.181,10.38l-3.88-1.75l-6.21,1.75l-6.39-0.87l-4.061,2.31l1.73-3.06l-3.11-1.311l-0.9,1.131
		l1.41,2.25l-2.66,1.189l0.78-1.88l-0.84-4.94l-12.77-23.3l-4.84-3.57l-1.551-5.01l-12.659-5.939l0,0l2.17-3.891l0.39-8.029
		l2.31-1.141l-0.38-1.53l6.931-12.21l-0.761-8.81l-5.77-3.86l-4.23-6.92l-1.92-0.78l-0.38-5.36l-2.689-1.55v-2.3l-2.311-1.54
		l-0.38-1.92l0,0l-1.92-4.61l1.54-1.52l0.39-6.13l6.15-1.11l5.39,0.8l3.471-6.5l9.619-8l0.391-9.97l-7.3-16.53l4.229-2.66
		l0.391-6.14l3.079-0.37l1.15-2.3l1.92,0.78l0.39-3.45l1.921,0.78v-3.87l0,0h0.039V216.23z"/>
	<path id="DO-07" fill="#1E3250" stroke="#1E3250" stroke-width="0.5" d="M110.94,143.83l8.84,2.75l2.69,3.86l0.39,4.61l8.07,6.2
		l2.31,0.01l12.31,6.99l0,0l-1.54,1.53l-1.16,10.37l0.77,2.69l-1.16,1.53l-2.69,1.52l-4.62-0.02l-3.08,2.67l-1.53-0.01l-0.39-1.54
		l-2.69-0.01l-3.84-3.87l-7.31-1.19l-2.31,0.75l-3.85,5.75l0.38,4.61l-5.77,11.87l-0.39,4.99l-3.08,1.13l-9.23-1.59l-10.39,11.84
		l0.77,1.93l1.54,0.39l-0.39,3.83l-3.46,5.74l-0.39,4.6l3.85-1.9l-0.39,8.06l1.15,4.22l-3.46,5.35l3.08,1.94l1.53,3.46l4.62,1.55
		l3.08,2.71l0.38,1.91l-2.69,4.59l3.45,5.77l8.08,1.96l1.54,5.37l-3.08,7.65l0,0l-12.31-2.37l-4.23-1.94l-12.31,0.31l-18.85-3.93
		l-8.71-0.05l0,0l1.08-2.12l2.61-0.01l0.42-3.16l9.87-3.79l3.26-18.53l-0.7-15.99l-2.62-0.7l-0.43-2.89l-6.25-3.59l-2.89-10.72
		l-2.02-0.88l-0.76,1.24l-7.1-3.51l-1.26,1.24l-0.76-1.67l-3.88,3.61l-1.44-1.93l0.01,3.6l-3.04-0.43l-1.01,1.67l-1.19-3.95
		l2.2,0.35l-0.18-3.17l2.03-0.79l-0.17-1.5l2.61,0.88l0.59-3.43l1.6,0.43l2.44-3.34l1.19,2.72L43.4,211l1.61-1.5l0.17,1.93
		l2.28,0.61l-0.68-3.16l3.29-1.33l-1.61-1.05l2.61-3.17l2.03,1.05l-0.6-1.67l3.04-2.91l2.02,1.06l0.59-1.77l4.64-2.29l-1.01-0.88
		l1.01-1.67l1.43,1.05l1.77-1.67l-2.36-0.88l0.16-1.41l3.04-0.71l-2.03-2.72l0.42-1.06l1.6-1.05l2.87,1.49l1.01-1.5l-0.67-1.85
		l4.05,0.78l2.02-1.23l1.85-3.79l-1.86-1.31l3.04-1.24l-1.61-1.5l1.02-0.88l-0.77-2.46l2.79-0.27l-3.04-1.67l4.04-1.06l0.43-1.06
		l-2.62-1.49l0.16-2.11l3.46-1.06l-2.83-4.55l0,0l5-4.97l3.46,0.02l0.77-5.76l1.93-1.91l4.23,2.33l3.08-0.75l6.53,2.72
		L110.94,143.83z"/>
	<path id="DO-12" fill="#1E3250" stroke="#1E3250" stroke-width="0.5" d="M643.79,351.93l3.17,3.69l0.66,5.01l-6.87-3.189
		l1.729-5.32L643.79,351.93z M626.33,318.24l4.62-1.5l4.229-4.19l0.771-2.68l6.54-4.94l3.46-4.58l6.93-14.52l7.311,1.19l0,0
		l0.38,1.92l2.31,1.55v2.3l2.69,1.55l0.38,5.36l1.93,0.78l4.23,6.92l5.77,3.859l0.771,8.811l-6.931,12.21l0.38,1.529l-2.31,1.141
		l-0.39,8.03l-2.17,3.89l0,0l-8.381-2.07l-1.31,0.811l-2.39-1.94l-3.11,1.311l-1.25,1.88l-22.54,1.75l0,0l-1.92-9.71l-6.15-8.83
		l1.54-4.971l3.46-3.43L626.33,318.24z"/>
	<path id="DO-13" fill="#1E3250" stroke="#1E3250" stroke-width="0.5" d="M299.04,127.97l2.31,3.48l10.39,1.21l3.46-0.36l3.85-4.21
		l3.46,6.56l0.76,8.08l5.01,0.02l2.3-3.44l0,0l1.92,7.31l3.08,2.71l3.46,8.48l2.69,3.48l11.16-0.71l0,0l3.07,5.79l5.77,5.79
		l5.77,3.11l1.54,3.08l1.53,0.01l0,0l1.16,0.39l-0.39,1.15l-2.69-0.78l-1.15,3.45l-2.31,1.14l-7.31-0.43l-3.46,4.59l-4.62,1.51
		l-3.08,5.75l0,0v-5l-8.84-3.89l-3.08,1.91l-0.39,3.45l-3.85,3.05l-3.07-1.55l-5.78,0.73l-4.61,4.2l3.46,13.84l-0.01,5.76
		l-5.77,2.66l-0.77,2.68l-5.39,5.72l-6.15,3.42l-2.7,5.74l0.39,2.3l7.69,6.57l2.3,5.76l6.16,6.94l0,0l0,0l0,0l-1.16,2.68l1.15,5.37
		l-4.23,2.28l-1.54,2.67l0.38,3.45l-4.23-0.02l-4.23,3.04v4.6l-5.77,0.73l-5-1.56l-11.16,1.85l0,0l2.29-2.59l0.79-4.94v-6.57
		l-1.31-3.98l-4.83-4.11l-5.78-1.62l-4.23,0.36l-5.79-8.47l-6.39-4.39l-1.27-2.1l0.38-3.14l-3.46-4.23l-0.38-9.6l2.69-1.13v-1.92
		l-3.84-3.86l-0.39-3.46l1.55-3.06l-5.01-5.02l-6.15,3.42l0,0l-3.08-6.92l-2.3-1.55l0,0l1.54-3.45l-1.92-5.39l0.38-2.3l5.39,0.41
		l4.23-4.96l3.46,0.4l3.08-2.29l3.46-0.75l2.7-5.74l7.69-1.11l8.46-4.95l0.78-4.99l3.08-4.979l2.3,3.47l4.23,1.56l1.93-0.75
		l1.54-1.92l-1.54-1.16l0.38-2.69l-1.53-1.16l1.54-2.68l-0.77-2.31l1.15-1.53l-1.15-2.32l1.15-1.91l-15-6.62l-0.77-1.16l3.08,0.02
		v-1.16l-2.31-1.17l-0.76-3.08l3.07,0.02l0.77-1.53l3.47-1.52l5.38,0.41l1.54-3.83l6.93-1.89l4.23-2.67L299.04,127.97z"/>
	<path id="DO-14" fill="#1E3250" stroke="#1E3250" stroke-width="0.5" d="M433.49,56.51l9.14,1.9l3.58,5.04l1.92-0.56l1.43,1.7
		l3.11,0.63l3.53,9.08l-4.55,13.31l3.409,5.99l4.36,2.58l-1.67,12.22l0.78,3.22l5.609,10.64v3.21l6.7,6.68l3.82,6.92l5.16,4.91l0,0
		l0.399,3.09l3.46,3.1l-5-1.18l1.92,2.32l-0.38,1.15l-3.08-1.94l-1.54,0.37l2.69,6.94l-1.54,2.68l-2.69-0.78l-0.39,3.07l3.08,1.94
		l0.38,1.92l0,0l-11.92-1.6l-8.08-5.81l-13.07-3.54l-8.079-3.5l-10-1.98l-2.311-2.32l0.39-6.92l-1.54-1.17l-14.229-1.61l-5.38-12.73
		l-1.54-1.16l1.16-7.69l-3.08-10.03l-1.92-1.16l-2.69,0.37l-0.77-1.93l-7.31-2.74l-1.92-2.32l0,0l1.92-5.76L386,87.27l1.15-0.76
		l7.31,1.2l14.23-7.24l1.93-4.229l0.399-7.69l0,0l7.761-9.64l7.649-1.83l5.681,0.63L433.49,56.51z"/>
	<path id="DO-28" fill="#1E3250" stroke="#1E3250" stroke-width="0.5" d="M316.31,259.42l-6.16-6.94l-2.3-5.76l-7.69-6.57l-0.39-2.3
		l2.7-5.74l6.15-3.42l5.39-5.72l0.77-2.68l5.77-2.66l0.01-5.76l-3.46-13.84l4.61-4.2l5.78-0.73l3.07,1.55l3.85-3.05l0.39-3.45
		l3.08-1.91l8.84,3.89v5l0,0l0.77,3.46l4.23,4.63l-0.39,9.21l7.69,2.73l0.77,4.61l19.17,16l3.02,4.51l0.98,4.04l0,0l-5.1,3.56
		l-0.77,8.43l0,0l-6.55,3.03l-4.61,4.19l1.15,6.14l-4.23,5.73l-3.47,1.89l-3.56-2.56l0,0l-10.67-6.33l-12.31,2.61l-3.84-3.85
		l-5-1.95l-3.08-4.23L316.31,259.42z"/>
	<path id="DO-15" fill="#1E3250" stroke="#1E3250" stroke-width="0.5" d="M100.31,4.57l7.95,1.75l2.57-1.01L134.56,17l12.91,2.4
		l3.94-0.44l5.86,3.66l4.9,0.89l6.02-1.7l0,0l1.66,1.79l-0.77,3.48l1.54,6.95l16.56,7.05l0,0l-5.02,16.14l1.92,6.18v6.18l-1.55-1.17
		l-1.14,1.17l-3.47-0.81l-0.77,2.31l2.69,6.16l0.38,5.03l-0.77,3.46l-3.08,4.22l0,0l-6.15-2.35l-1.92,3.84l-2.31,0.37l-3.08-2.71
		l-4.61-0.01l-4.62-4.67l-2.69,2.68l-2.31-0.4l-6.92,4.58l-5.38-1.19l-1.92,1.92v-1.93l-5-3.88l0.39-1.92l-1.92,0.37l0.4,3.06
		l-1.17,0.4l0,0l-6.54-2.73l-2.69-3.48l-9.23-4.67l-1.92-6.18l-5.38-0.42l-3.85,2.29l-18.46,0.67l-12.31-5.08l-3.85,0.36l-4.98-3.86
		l0,0l0.15-4.44l-4.61-3.35l0.59-2.12l-1.61-1.5l0.18-1.26l5.46-1.2l1.68-5.05l-1.21-2.84l-1.19,0.76l-3.47-6.76l1.26-0.63
		l-0.54-3.28l-1.43-0.06l-1.61,2.97l-2.28,0.94l0.25,2.28l-1.27-0.64l0.42-4.29l6.64-5.87l0.48-1.7l5.74-1.07l5.44-2.78l0.3-2.08
		l3.11-0.76l3.47-2.9l1.55-3.62L73.9,8.28l3.17-0.51L78.74,11l1.79,0.88l2.56-1.77l0.55-2.91l3.23,0.06l4.17-2.22L95,5.93
		L100.31,4.57z"/>
	<path id="DO-29" fill="#1E3250" stroke="#1E3250" stroke-width="0.5" d="M483.66,191.67l7.31,4.27l6.92,7.72l9.23,3.51l1.93,2.31
		l0,0l1.92,3.08l6.15,1.96l3.85,3.47l5.38,2.34l2.69,3.08l16.15,8.92l9.619,4.65l6.16-1.11l3.84,1.17l-1.54,4.98l-3.079,0.37
		l-1.54,3.82l-4.23,1.13l-3.46,4.58l-1.54,0.38l-0.39,2.68l-1.54,1.14l0,0l-0.38-1.54l-3.08-1.16l-5,5.72l-7.311,11.07l-3.859,12.63
		l-5.37,8.13l0,0l-9.061-3.26h-3.859l-1.551,3.25l-7.21,2.43l-4.159-0.33l-4.561,1.45l-2.31-0.78l-4.62,3.42l-1.92,6.12l-6.931,4.94
		l-1.149-3.07l0.38-3.44l-1.92-4.23l-3.851-0.02l-0.76-1.15l0.38-6.51l-2.3-0.78l-1.93,1.14l-5.76-11.53l-5.391,0.36l-5.77,2.64
		l-8.851-3.49l0.38,4.21l-1.529,1.91l-2.7,0.37l-2.3,3.05l-6.931-0.81l-3.85,2.28l-5-4.62l-10-0.06l-8.07-13.07l-2.31-0.4
		l-1.92,1.14l0,0l-5.38-5.78l-5.01-0.8l-7.68-9.24l0,0l0.77-8.43l5.1-3.56l0,0l4.9-3.29l14.621,0.85l3.079-5.35l4.23,0.02
		l4.229-2.66l1.54,0.01l1.54,2.31l4.23,0.41l3.46-5.35l8.46,5.41l3.85,0.41l5.771-8.03l3.47-8.42l0.391-5.75l-1.54-1.16l-0.771-3.46
		l3.85-7.66l0,0l7.311,0.43l1.54-1.15v-10.37l4.62,1.57l4.229-1.9l6.54,0.81l4.61-1.9L483.66,191.67z"/>
	<path id="DO-16" fill="#1E3250" stroke="#1E3250" stroke-width="0.5" d="M77.84,553.59l1.37,1.99l-2.39-0.5l-0.24-1.12
		L77.84,553.59z M103.96,522.63l5.14,2.561l2.93,5.229h2.99l-1.55,2.87l-4.66,3.99l-10.16,2.739l-1.79-2.859l3.41-9.28l2.15-1.31
		L103.96,522.63z M61.18,371.26l8.12,2.76l2.69,3.461l10.54,8.17l9.08,1.5l9.49,4.359l8.39,0.8l15.71,14.12l0,0l4.63,0.511
		l5.85,4.26l-1.27,2.93l-4.58,0.271l3.56,5.85l0,0v6.91l0,0l-4.07,5.32l-2.8,0.8l-2.54-1.33l-0.76,9.83l1.53,1.859h4.58l2.54,1.86
		l1.02,3.3l1.79-0.3l2.31,1.54l4.04,5.03l3.56-1.061l1.27-4.25h2.8l5.09,6.38l0.26,3.25l1.45,1.061l0.77,4.96l-1.15,1.52l0.31,2.53
		l0,0l-1.27,1.44l0.06,4.81l-2.09,1.69l-1.08-1.061l-1.91,0.94l-3.88,5.239l-4.24,8.23l-5.26,19.39l-3.23,3.181l-3.83,9.6h-1.55
		l-2.03,3.12l-4.18-4.49l-0.6-3.24l-5.98-5.55l-5.38-14.34l-7.71-6.92l-5.02-1.93l-9.92-0.44l-12.85,2.62l-5.74-2.811l6.16-3.56
		l1.55-5.93l3.82,0.439l1.68-5.93l-3.82-5.93l-1.85-5.681l-4.36-3.739l3.05-1.44l1.37-3.99l-3.76-9.989l-5.86-5.25l-4.48-2.311
		l-3.71-4.25l-3.51-1.12l0.96-2.779l2.36-1.671l0.42-3.76l1.85-2.979L58.3,416.8l1.01-1.49l-2.03-0.779l-1.18-2.8l1.6-4.381
		l-1.6-1.479l-3.89-5.42l0.67-1.49l-2.36,0.62l-2.37-2.71l1.26-3.59l2.02-1.05l0.58-4.99l2.44-1.49v-2.71L61.18,371.26z"/>
	<path id="DO-17" fill="#1E3250" stroke="#1E3250" stroke-width="0.5" d="M354.42,323.6l4.92,0.19l2.95,1.55l0.54,1.76l3.08,1.551
		v1.529l2.69,0.78l0.77,4.6l5-0.35v4.21l1.54,0.39l-0.77,1.53l1.54,0.01l1.54-2.67v2.681l2.31-0.75l3.08,1.55l-1.92,1.899
		l-1.15-1.92v4.21l-4.23,3.04l-5-0.41l-1.92,3.431l2.69-0.75l1.15,5.74l1.92-1.521l3.08,0.78l1.15,6.89l5.77,5l1.92,5.36l4.62,1.939
		l-1.16,7.261l1.92,1.569l0,0l-2.08,1l-4.24-1.689l-6.04,3.06l-8.73-3.56l-11.77,2.689l-12.97-2.56l-24.5,9.76l-4.54-3l-8.01-0.189
		l1.43-3.131l1.73-0.689v1.31l-0.24-0.939l-1.31,0.5l-0.72,2.06l1.2,0.561l0.96-1.94l2.45,1.69l0.9-1.19l2.45,0.81l4.6-1.939
		l-3.47-2.061h-3.11l-3.7-4.689l-5.38-1.94l-1.79-2.56l0,0l1.11-1.05l8.46-0.33l8.85-2.63l2.31-5.34l-1.15-5.36l0.39-5.73l4.24-5.71
		v-3.06L328.1,344l0,0l0.56-4.47l1.47-2.061l4.18-1.029l7.13-4.12l6.88-1.29L354.42,323.6z"/>
	<path id="DO-18" fill="#1E3250" stroke="#1E3250" stroke-width="0.5" d="M213.2,0l4.96,0.38l9.68,5.56l2.75-2.34l5.92,2.91l4-0.32
		l2.45-0.06l2.57,0.82l2.99-1.45l2.09,0.57l0.78,3.66l2.39,1.64l2.75-0.06l7.17,9.22l-1.37,2.02l0.59,0.95l2.16-1.64l5.49-0.38
		l3.59,2.65l0.06,1.27l3.94,1.32l1.8,1.9l-0.78,0.69l0.78,1.07l2.21-1.2l6.93,4.42l2.03,2.66h2.45l1.67,2.271l2.52-1.58l6.93,3.41
		l6.57-2.21l2.15,2.27h5.32l1.08-0.31l-0.54-1.71l1.91-3.72l5.8-1.2l7.71,0.57l7.65,6.94l2.69,0.06l5.97,8.33l0,0l-2.31,5.31
		l1.53,5.41l-5.38,1.51l1.53,2.32l-1.53,0.38l-1.54-1.94l-0.39,1.93l-1.53-1.55l-1.16,1.92l-1.54-0.01l-2.3-3.1l-1.54,1.15
		l-3.47-0.41L331,65l-0.77-1.16l-2.69-0.02l-1.16,1.15l-3.08-1.55l-1.92,1.91l0.38,1.93l-2.3,0.76l0.76,3.47l-1.54,2.69l1.16,5.01
		l-3.47,4.22l-0.77,8.86l-2.31,1.91l0,0l-10.38-4.68l-8.46-1.59l-1.54-4.24l2.31-8.08l-0.77-3.47l-15.77-8.19l-0.77,1.93l1.92,8.1
		l-0.77,2.31l-1.54,1.92l-5.77,2.28l-1.92-0.79l-1.54-3.47l-3.46-0.41l-8.46-7.75l-1.54,1.53l-9.61-3.52l0,0l-8.47-0.44l-3.46-2.33
		l-1.54,0.76l-3.46-3.49l-0.38-1.92l-6.16-2.74l-4.61-4.65l-8.08,1.11l-4.61-1.95l-1.54-4.64l-10-1.98l-5.75-2.72l0,0l-16.56-7.05
		l-1.54-6.96l0.78-3.48l-1.66-1.78l0,0l1.93-1.14l1.02-4.04l-0.72-2.47l4.72,3.48l2.75,0.62l1.8-2.33l8,1.33l1.74-1.64l7.17-2.15
		l2.21-2.15l-0.36-3.85l3.7-2.47l0.6-1.771L213.2,0z"/>
	<path id="DO-19" fill="#1E3250" stroke="#1E3250" stroke-width="0.5" d="M330.58,139.31l4.24-16.14l2.7-5.75v-2.7l-3.08-4.63v-3.08
		l1.93-3.07l-0.38-5.4l5-11.52l4.61,3.88l4.23,0.79l1.16,5.4l3.46,2.33l1.92-0.76l3.47-8.84l2.31-0.76l1.92-2.68l6.92-1.5l3.85,1.94
		v5.4l5.38,6.19l0,0l1.93,1.94l-0.39,3.07l-6.93,3.04l-1.15,2.31l0.77,1.93l3.08,1.17v1.15l-10.39,4.56l-6.16,4.59l-3.47,13.44
		l0.39,2.7l-1.93,4.22v3.84l-5,6.51l1.92,7.7l0,0l-11.16,0.71l-2.69-3.48l-3.46-8.48l-3.08-2.71L330.58,139.31z"/>
	<path id="DO-20" fill="#1E3250" stroke="#1E3250" stroke-width="0.5" d="M595.92,129.13l1.73,1.39l2.09-0.69l0.479,1.39
		l-7.77,11.33l-0.36,3.08l4.84,1.2l2.57-0.31l2.45-2.45l3.939,1.01l3.88-2.58l4.181,1.13l-0.181,3.34l-2.449,4.59l-9.92,7.24
		l-2.631,11.26l-2.39,0.88l-9.979-1.07l-3.341-2.45l-1.02,1.07l-2.21-1.57l-1.141,0.88l-3.88-2.14l-1.909,2.26l-13.211-0.5
		l-1.02,2.52l-1.79-1.95l-3.59,0.57l-2.15-2.26l-6.39-1.7l-5.32,0.19l-1.609-1.45l-1.851,1.2l-2.75-1.32l-6.27,0.44l-14.04-3.08
		l-1.55,1.07l0.18,9.25l-2.99,10.06l1.851,7.17l-1.131,1.26l1.73,3.14l3.11,0.57l0,0l-5.061,16.43l0,0l-1.92-2.31l-9.229-3.51
		l-6.921-7.72l-7.31-4.27l0,0l1.15-1.15l5,0.03l-1.54-4.62l-2.311-2.7v-2.31l2.311,0.01l3.46-2.29v-2.31l1.92-0.37l0.77-1.53
		l2.311,0.78l0.39-1.53l1.54,0.01l1.16-4.61l1.93-2.29l1.54,0.01l0.39-1.54l-6.539-0.04l-1.921-2.32l-3.46,0.75L481,161.72
		l-3.85,4.97l0,0l-0.381-1.92l-3.08-1.94l0.391-3.07l2.689,0.78l1.54-2.68l-2.689-6.94l1.54-0.38l3.08,1.94l0.39-1.15l-1.92-2.32
		l5,1.18l-3.46-3.1l-0.4-3.09l0,0l6.79,3.78l6.87,1.32l8.37-1.95l3.59-2.2l13.98-0.94l2.93-1.64l0.12-2.33l2.45,0.31v-1.51
		l1.67,0.44l2.03-1.89l1.729,1.2l2.21-1.13l8.78,1.01l5.38-1.13l2.69,1.57l2.329-1.2l2.811,2.77l3.05-2.01l4.48,3.21l2.51-0.69
		l1.79,1.83l3.71,0.06l1.25,2.64l4.01,1.83l1.79-5.48l7.05-5.22l4.78-0.82l-0.36-1.32l1.61-1.38l2.03,1.01l2.569-4.91L595.92,129.13
		z"/>
	<path id="DO-21" fill="#1E3250" stroke="#1E3250" stroke-width="0.5" d="M377.09,256.31l7.68,9.24l5.01,0.8l5.38,5.78l0,0
		l-1.93,2.29v2.3l3.46,5l0.77,7.66l3.84,5.77l-0.38,1.53l-1.92-1.54l-1.54,0.37l-0.78,6.13l1.931,1.54l2.689,7.29l1.54,0.391
		l1.53,8.05l0.77,1.53l2.311,0.399l3.08-0.37v-1.529l1.149-0.37l3.851,4.229l1.92,4.99l-3.851,1.5l0.391,1.15l3.069,0.02l-0.38,4.21
		l2.69-3.05l1.92,0.01l1.54,2.311l1.92,0.39l3.08-3.42l-0.38,4.2l1.149-0.37l0.381,2.29l1.539,1.16l-1.05,3.409l0,0l-1.72,1.631
		l-0.96-0.57l0.3,1.439l-4.359,6.95l-3.351,2.88l-6.75,13.21l-5.14,3.061l-0.42,2.439l-4.96,5.2l-3.41,6.69l-1.67,0.939l-2.271-1.75
		l-2.34,0.931l0,0l-1.92-1.57l1.16-7.25l-4.62-1.94l-1.92-5.359l-5.77-5l-1.15-6.891l-3.08-0.779l-1.92,1.51l-1.15-5.74l-2.7,0.75
		l1.93-3.43l5,0.41l4.23-3.04l0.01-4.2l1.15,1.92l1.92-1.91l-3.07-1.54l-2.31,0.75v-2.68l-1.54,2.67l-1.54-0.01l0.77-1.521
		l-1.54-0.399v-4.2l-5,0.35l-0.77-4.59l-2.69-0.79v-1.53l-3.07-1.54l-0.55-1.76l-2.95-1.55l-4.91-0.19l0,0l-1.23-3.93l-3.93-4.38
		l3.19-12.37v-5.67l-2.7-4.38l0.24-3.35l2.95-5.16l0.25-5.16l2.63-4.47l0,0l3.56,2.56l3.47-1.89l4.23-5.73l-1.15-6.14l4.61-4.19
		L377.09,256.31z"/>
	<path id="DO-31" fill="#1E3250" stroke="#1E3250" stroke-width="0.5" d="M316.31,259.42l4.61,1.56l3.08,4.23l5,1.95l3.84,3.85
		l12.31-2.61l10.67,6.33l0,0l-2.63,4.47l-0.25,5.16l-2.95,5.16l-0.24,3.35l2.7,4.38v5.67l-3.19,12.37l3.93,4.38l1.23,3.93l0,0
		l-6.15,7.4l-6.88,1.29l-7.12,4.12l-4.18,1.03l-1.48,2.06l-0.56,4.47l0,0l-3.7-2.55l0.39-2.68l-1.92-3.07v-2.29l-1.93-1.16l0.01-2.3
		l1.15-0.76l-1.15-1.92l-5.39-0.79l-3.07-4.23l-7.31-1.96l-1.15-2.68l-5.01,0.74l-3.46-7.681l-8.84-6.18l-0.77-1.53l2.7-4.2
		l-0.39-6.51l-2.3-3.85l-5.39-3.86l0,0l11.16-1.85l5,1.56l5.77-0.73v-4.6l4.23-3.04l4.23,0.02l-0.38-3.45l1.54-2.67l4.23-2.28
		l-1.15-5.37L316.31,259.42z"/>
	<path id="DO-22" fill="#1E3250" stroke="#1E3250" stroke-width="0.5" d="M145.55,168.25l3.07,4.25l6.16-1.12l5.38,1.95l3.08-1.14
		l3.08,0.79l0,0l3.84,3.1l5.77,0.8l6.54,2.72l2.31,3.47l3.84,1.95l0.77,8.45l5.77,4.64l9.61,3.13l2.31,5.39l3.46,0.78l6.93-5.33
		l3.07,1.17l3.47-1.14l10,3.52l0,0l2.3,1.55l3.08,6.92l0,0l0.38,3.84l-1.15,1.53l-6.54,1.12l1.92,4.61l-1.54,2.3l-5.39,1.12
		l-1.53,2.67l-4.24,1.51l0.39,4.23l-2.31,4.59l-2.31,1.52l4.22,11.14v2.69l-6.54,11.84h-1.54l-2.69-6.92l-1.54-1.16l-2.69-0.02
		l-3.46,3.44l0.38,6.13l2.31,4.61l-3.47,1.9v1.92l2.31,2.31l0.38,2.68l-4.11,2.54l-3.84,0.1l-2.55,6.32h-2.26l-5.22,5.42l-5.49,0.18
		l0,0l-1.15-3.2l-5-1.56l-13.85,4.9l-13.08-1.22l-2.69,3.04l-1.93-0.01l-4.23,3.04l-7.69-1.57l-0.39-2.3l-2.69-0.78l-3.07,1.51
		l-1.16-2.3l-5.77-3.1l-7.69,0.72l-4.23-1.17l-5.77-3.86l0,0l0,0l0,0l3.08-7.65l-1.54-5.37l-8.08-1.96l-3.45-5.77l2.69-4.59
		l-0.38-1.91l-3.08-2.71l-4.62-1.55l-1.53-3.46l-3.08-1.94l3.46-5.35l-1.15-4.22l0.39-8.06l-3.85,1.9l0.39-4.6l3.46-5.74l0.39-3.83
		l-1.54-0.39l-0.77-1.93l10.39-11.84l9.23,1.59l3.08-1.13l0.39-4.99l5.77-11.87l-0.38-4.61l3.85-5.75l2.31-0.75l7.31,1.19l3.84,3.87
		l2.69,0.01l0.39,1.54l1.53,0.01l3.08-2.67l4.62,0.02l2.69-1.52l1.16-1.53l-0.77-2.69l1.16-10.37L145.55,168.25z"/>
	<path id="DO-23" fill="#1E3250" stroke="#1E3250" stroke-width="0.5" d="M547.49,256.12l-1.54,7.28l0.77,1.92l3.46,1.55l2.311,6.53
		l-0.01,6.13l1.539,2.3l-2.689,3.44l0.38,1.53l2.31,1.16l3.461,5.77l1.92,6.52l3.46,2.32l3.08,9.97l4.22,6.92l1.54-3.44l6.93-5.319
		l0.39-2.3l2.301,0.02l-0.761-5.37l1.921-6.11l5-0.36l4.239-3.81l0,0l3.07,1.17l1.16,2.69l4.609-1.12l3.46,1.16l6.16,4.25l1.92,4.61
		l5.771,3.09l4.61-1.88l6.159,0.029l0.771,1.54l-1.93,0.75l-1.15,9.181l0,0l-1.16,3.439l-3.46,3.431l-1.54,4.96l6.15,8.84l1.92,9.7
		l0,0l-21.5-6.2l-3.11-2.38l1.08-0.5l-0.9-3.19l-2.329-1.25l-5.681,2.25l-7.109,0.13l-6.101,1.94l-3.46-1.44l0.3-1.38l-1.02-0.25
		l-1.26,0.88l0.96,1.75l-3.051,2.38l-19-0.189l-19.18,4.89l-4.399-0.069l0,0l-0.021-9.891l1.93-0.76l0.38-3.82l-10-0.83
		l-6.539-3.859l-1.921-4.99l-2.689-1.54l3.08-2.66l5.39-10.689l-1.93-3.46l1.55-6.12l-2.7,1.14l-0.77-2.31l4.25-5.22l0,0l5.37-8.13
		l3.859-12.63l7.311-11.07l5-5.72l3.08,1.16L547.49,256.12z"/>
	<path id="DO-24" fill="#1E3250" stroke="#1E3250" stroke-width="0.5" d="M370.57,178.36l-0.76-1.54l1.15-0.76l6.16-0.35l0.77,1.92
		l2.3-0.75l1.16,1.92l3.84,1.18l1.16-2.68l1.15,1.54l4.23-3.82l1.54,0.39l-0.77,2.69l4.23-0.75v2.69l1.93-3.44l2.3-0.76l0,0v3.07
		l0,0l1.16,0.4l2.31-2.68l2.69,0.4l1.149,1.54l3.851-1.9l1.149,2.31l2.7,0.02l3.84,3.48l8.851,2.35l2.689,1.94l3.851-2.67l1.92,0.01
		l7.31,4.65l6.54,1.58l-2.7,12.27l0,0l-3.85,7.66l0.771,3.46l1.54,1.16l-0.391,5.75l-3.47,8.42l-5.771,8.03l-3.85-0.41l-8.46-5.41
		l-3.46,5.35l-4.23-0.41l-1.54-2.31l-1.54-0.01l-4.229,2.66l-4.23-0.02l-3.079,5.35l-14.621-0.85l-4.9,3.29l0,0l-0.98-4.04
		l-3.02-4.51l-19.17-16l-0.77-4.61l-7.69-2.73l0.39-9.21l-4.23-4.63l-0.77-3.46l0,0l3.08-5.75l4.62-1.51l3.46-4.59l7.31,0.43
		l2.31-1.14l1.15-3.45l2.69,0.78l0.39-1.15L370.57,178.36z"/>
	<path id="DO-25" fill="#1E3250" stroke="#1E3250" stroke-width="0.5" d="M245.22,66.06l9.61,3.52l1.54-1.53l8.46,7.75l3.46,0.41
		l1.54,3.47l1.92,0.79l5.77-2.28l1.54-1.92l0.77-2.31l-1.92-8.1l0.77-1.93l15.77,8.19l0.77,3.47l-2.31,8.08l1.54,4.24l8.46,1.59
		l10.38,4.68l0,0v4.62l-8.08,5.35l0.38,5.77l-2.69,6.15l2.69,9.63l-4.23-1.18l-2.32,3.45l0,0l-3.84-0.02l-4.23,2.67l-6.93,1.89
		l-1.54,3.83l-5.38-0.41l-3.47,1.52l-0.77,1.53l-3.07-0.02l0.76,3.08l2.31,1.17v1.16l-3.08-0.02l0.77,1.16l15,6.62l-1.15,1.91
		l1.15,2.32l-1.15,1.53l0.77,2.31l-1.54,2.68l1.53,1.16l-0.38,2.69l1.54,1.16l-1.54,1.92l-1.93,0.75l-4.23-1.56l-2.3-3.47
		l-3.08,4.979l-0.78,4.99l-8.46,4.95l-7.69,1.11l-2.7,5.74l-3.46,0.75l-3.08,2.29l-3.46-0.4l-4.23,4.96l-5.39-0.41l-0.38,2.3
		l1.92,5.39l-1.54,3.45l0,0l-10-3.52l-3.47,1.14l-3.07-1.17l-6.93,5.33l-3.46-0.78l-2.31-5.39l-9.61-3.13l-5.77-4.64l-0.77-8.45
		l-3.84-1.95l-2.31-3.47l-6.54-2.72l-5.77-0.8l-3.84-3.1l0,0l1.54-11.91l-1.92-4.23l-2.69-0.79l-1.54-3.47l0.77-1.53l2.31-0.37
		l-0.77-5.01l1.16-4.61l-2.31-3.85l1.92-0.38l1.16-3.07l2.69,1.17l-0.38-5l5.38-4.2l6.16-1.51l1.54,3.09l2.69,0.01l0.39-2.69
		l3.07-0.37v-1.15l3.08,0.4l1.54-4.22l3.08-1.52l3.84,0.4l1.93-2.3l-3.46-1.17l0.77-2.69l-2.31-2.71l2.31-0.75l1.54-3.07l0,0
		l11.92,6.22l7.31-0.34l3.46-4.22l2.31,3.09l5.39,1.57l3.07-1.52l8.08,0.43l2.31-3.06l-5-2.34l-2.3-3.48l3.08-11.92l-4.23-1.18
		l-0.77-1.93l-1.16,0.76l-2.69-2.32l0.77-2.69l-1.92-1.94v-2.7l9.61,5.45l5.01-8.83L245.22,66.06z"/>
	<path id="DO-26" fill="#1E3250" stroke="#1E3250" stroke-width="0.5" d="M127.11,88.12l1.18-0.4l-0.4-3.06l1.92-0.38l-0.39,1.93
		l5,3.88v1.92l1.93-1.91l5.38,1.18l6.93-4.58l2.3,0.4l2.7-2.68l4.62,4.67h4.61l3.07,2.72l2.31-0.38l1.93-3.84l6.15,2.35l0,0v4.62
		l1.54,1.55l1.15,5.4l6.92,1.19l5,3.11l8.85-0.33l0,0l-1.54,3.07l-2.31,0.75l2.31,2.71l-0.77,2.69l3.46,1.17l-1.93,2.3l-3.84-0.4
		l-3.08,1.52l-1.54,4.22l-3.08-0.4v1.15l-3.07,0.37l-0.39,2.69l-2.69-0.01l-1.54-3.09l-6.16,1.51l-5.38,4.2l0.38,5l-2.69-1.17
		l-1.16,3.07l-1.92,0.38l2.31,3.85l-1.16,4.61l0.77,5.01l-2.31,0.37l-0.77,1.53l1.54,3.47l2.69,0.79l1.92,4.23l-1.54,11.91l0,0
		l-3.08-0.79l-3.08,1.14l-5.38-1.95l-6.16,1.12l-3.07-4.25l0,0l-12.31-6.99l-2.31-0.01l-8.07-6.2l-0.39-4.61l-2.69-3.86l-8.84-2.75
		l0,0l-0.77-1.92l-4.23-3.1l-0.77-3.85l5.38,1.18l5.77-1.12l-0.37-16.55l4.23-3.82l-1.15-14.25l2.31-4.61l5.77-6.13V88.12z"/>
	<path id="DO-32" fill="#1E3250" stroke="#1E3250" stroke-width="0.5" d="M395.16,272.13l1.92-1.14l2.31,0.4l8.07,13.07l10,0.06
		l5,4.62l3.85-2.28l6.931,0.81l2.3-3.05l2.7-0.37l1.529-1.91l-0.38-4.21l8.851,3.49l5.77-2.64l5.391-0.36l5.76,11.53l1.93-1.14
		l2.3,0.78l-0.38,6.51l0.76,1.15l3.851,0.02l1.92,4.23l-0.38,3.44l1.149,3.07l6.931-4.94l1.92-6.12l4.62-3.42l2.31,0.78l4.561-1.45
		l4.159,0.33l7.21-2.43l1.551-3.25h3.859l9.061,3.26l0,0l-4.25,5.22l0.77,2.31l2.7-1.14l-1.55,6.12l1.93,3.46l-5.39,10.689
		l-3.08,2.66l2.689,1.54l1.921,4.99l6.539,3.859l10,0.83l-0.38,3.82l-1.93,0.76l0.021,9.891l0,0l-4.211-1.19l-9.68-8.39l-5.92-0.25
		l-2.57,2.069l1.381,7.261l-2.16,1.439l-7.051-2.25l-2.39-3.88l-0.42-4.26l-3.64-1.82l-18.41-2.56l-20.38-0.261l0,0l1.55-7.609
		l-3.17-2.08l-10.94,2.899l-4.62-4.279l-1.84-4.7l-2.37-0.97l-1.72,1.25l-1.189,5.25l-2.761,1.52l7.641,7.74l0.13,5.53l-2.37,2.479
		l-0.17,2.24l0,0l-2.73,1.13l-3-0.69l0,0l1.05-3.409l-1.539-1.16l-0.381-2.29l-1.149,0.37l0.38-4.2l-3.08,3.42l-1.92-0.39
		l-1.54-2.311l-1.92-0.01l-2.69,3.05l0.38-4.21l-3.069-0.02l-0.391-1.15l3.851-1.5l-1.92-4.99l-3.851-4.229l-1.149,0.37v1.529
		l-3.08,0.37l-2.311-0.399l-0.77-1.53l-1.53-8.05l-1.54-0.391l-2.689-7.29l-1.931-1.54l0.78-6.13l1.54-0.37l1.92,1.54l0.38-1.53
		l-3.84-5.77l-0.77-7.66l-3.46-5v-2.3L395.16,272.13z"/>
	<path id="DO-27" fill="#1E3250" stroke="#1E3250" stroke-width="0.5" d="M187.16,41.07l5.75,2.72l10,1.98l1.54,4.64l4.61,1.95
		l8.08-1.11l4.61,4.65l6.16,2.74l0.38,1.92l3.46,3.49l1.54-0.76l3.46,2.33l8.47,0.44l0,0l-1.16,8.47l-5.01,8.83l-9.61-5.45v2.7
		l1.92,1.94l-0.77,2.69l2.69,2.32l1.16-0.76l0.77,1.93l4.23,1.18l-3.08,11.92l2.3,3.48l5,2.34l-2.31,3.06l-8.08-0.43l-3.07,1.52
		l-5.39-1.57l-2.31-3.09l-3.46,4.22l-7.31,0.34l-11.92-6.22l0,0l-8.85,0.33l-5-3.11l-6.92-1.19l-1.15-5.4l-1.54-1.55v-4.62l0,0
		l3.08-4.22l0.77-3.46l-0.38-5.03l-2.69-6.16l0.77-2.31l3.47,0.81l1.14-1.17l1.55,1.17v-6.19l-1.92-6.17L187.16,41.07z"/>
</g>
</svg>
