<?xml version="1.0" encoding="utf-8"?>
<!-- Generator: Adobe Illustrator 15.0.0, SVG Export Plug-In . SVG Version: 6.00 Build 0)  -->
<!DOCTYPE svg PUBLIC "-//W3C//DTD SVG 1.1//EN" "http://www.w3.org/Graphics/SVG/1.1/DTD/svg11.dtd">
<svg version="1.1" id="Layer_1" xmlns:amcharts="http://amcharts.com/ammap"
	 xmlns="http://www.w3.org/2000/svg" xmlns:xlink="http://www.w3.org/1999/xlink" x="0px" y="0px" width="809.5px" height="349.5px"
	 viewBox="0 0 809.5 349.5" enable-background="new 0 0 809.5 349.5" xml:space="preserve">
<defs>
	
	
		<amcharts:ammap  projection="mercator" leftLongitude="-91.665191" topLatitude="1.438762" bottomLatitude="-4.989838" rightLongitude="-75.190072">
		</amcharts:ammap>
</defs>
<g>
	<path id="EC-A" fill="#1E3250" stroke="#1E3250" stroke-width="0.5" d="M587.41,188.27l3.03-0.63l4.55,1.24l1.779,2.02l0.471,3.45
		l-0.59,1.13l0.59,2.02l2.26,1.42l4.87-0.12l2.02-2.37l2.38,3.56l1.07,0.6l0.71,2.85l1.78,1.19l4.05-0.6l0.13-1.65l1.13-0.96
		l0.75-2.06l2.4-2.07l4.35-1.24l0.391-2.24l1.06-1.3l2.43-0.75l0.19,3.12h1.19l1.739-2.02l0,0l0.511,0.24l0,0l2.739,0.95l-0.12,2.26
		l-6.3,1.42l-2.02,1.79l-0.36,1.54l0.24,1.55l0.95,0.81l-0.24,1.56l-2.85,3.45l-0.71,6.89l-2.261,2.14l-2.489,0.48l-1.551,1.3
		l-2.14,4.4l-5.46,2.02l-0.24,2.02l0,0l-1.66,0.95l0,0l-3.449,2.85l0.72,2.69l-1.431,2.96l0.83,2.85l-1.819,1.23l0,0l-0.141-0.14
		l0,0l-1.96-1.09l-0.6-3.45l-1.78-2.61l-0.6-0.35l-2.91,1.91l-0.88-0.62l-1.021-2.75l-0.069-3.3l-2.15-0.79l-5.82-0.38l0,0
		l-3.569-0.39l0,0l-3.3-0.82l-0.351-2.26l2.021-2.61v-2.73l-6.66-1.96l0,0l-1.51-1.87l0.31-0.83l0,0l0.83,0.66l10.81-20.94
		l3.261-2.25v-3.28l0,0L587.41,188.27z"/>
	<path id="EC-B" fill="#1E3250" stroke="#1E3250" stroke-width="0.5" d="M595.79,126.05l1.33,0.05l2.14-1.74l3.57-0.71l2.26,0.12
		l1.73,1.88l2.189,0.43l2.73-0.23l0.95-1.67l3.96,0.74l0,0l-1.86,1.06l0,0l-0.96,4.79l-1.771,1.69l1.58,4.91l1.74,1.87l0.12,1.02
		l0,0l-1.74,5.49l1.66,0.24l0.6,1.18l-0.239,1.55l-1.07-0.12l0.24,2.5l-2.26,2.02l-2.021-0.24l-2.49,0.83l-1.13,16.38l-1.74,1.48
		l0,0l-1.859,1.35l-0.62-0.79l0,0l1.07-2.5l-1.551,0.36l0,0l-1.199-0.11l0.05-1.3l0,0l-0.061-0.56l-2.939-1.48l-2.62-5.34l1.42-2.96
		l-0.55-4.771l2.22-0.71l0.24-0.95l-2.74-0.36l-0.46-3.38l-2.62-0.54l-0.24-1.07l3.091-1.42l1.069-2.74l-2.35-0.35l-0.45-2.46
		l-2.43-0.63l-0.24-0.95l2.19-0.94l-0.211-1l0.28-0.8l1.19-0.35l0.59-3.33l-2.54-0.99l-1.97,0.99l-2.141-0.59l5.7-4.28l0,0
		L595.79,126.05z"/>
	<path id="EC-C" fill="#1E3250" stroke="#1E3250" stroke-width="0.5" d="M656.72,27.93l2.37,2.14l6.51,0.58l6.33-1.77l2.42,1.77
		l0.07,0.97l-1.54,1.07v1.3l3.48,2.84l0,0l-0.95,1.07l-1.53-0.22l-1.43,1.54l-0.71,2.73l-4.62,5.64l-0.76,3.16l0,0l0,0l0,0
		l-4.391-0.81l-6.67-4.62l-2.52-0.26l-0.771-1.74l-0.12-4.04l-7.01-8.32l-3.63-1.89l-4.09-0.36l0,0h-0.67l0,0l-3.021-1.25v-1.97
		l-1.27-0.65l-0.391-6.53l2.021-1.19l0.07-4.89l0,0l4.159,2.28l0.601,2.021l2.35,1.86l7.15,2.41l1.31,2.38l4.99,3.92L656.72,27.93z"
		/>
	<path id="EC-D" fill="#1E3250" stroke="#1E3250" stroke-width="0.5" d="M692.13,71.27l4.22,1.7l0,0l2.021-0.15l5.1,1.18l3.33-1.66
		l2.141,0.24l9.149,11.88l3.92,2.14l1.69,2.16l3.42-0.26l3.16,3.57l5.04,1.84h1.66l2.829-2.69l9.841-0.28l1.479,3.15l2.14,1.06
		l0.061,1.25l4.16,0.72v-1.07l-0.851-0.53l0.07-5.42l2.37-0.11l2.03,0.59l1.88,1.54l5.64-0.23l3.7,0.72l2.4,2.27l0.47,1.28
		l6.97,0.53l0.37,1.09l0,0l5.51,2.25l0.88,2.2l-1.09,1l1.19,0.96l0.83,4.39l1.189,0.48l-0.24,4.63l1.19,1.66h-6.3l-0.95-1.3
		l-1.42,0.35v3.21l-2.021,4.64l-4.399,14.61l-2.79,5.4l-1.13,0.73l0.13-3.04l-3.33,0.35l-3.17-1.92l-0.311-1.7l-1.189-1.3
		l-3.311-0.02l-1.05-1.94l-2.26-1.07l-0.67,0.72l-11.42-3.46l-7.57,1.41l-3.13-0.57l-1.45-2.26l-2.88,0.35l-4.07-3.23l0.96-5.32
		l-0.59-1.07l-2.729-0.24l-1.37-0.91l-10.93,2.63l-0.5,3.26l-2.011-0.25l-2.26-2.51l-2.5,0.25l-1.01-1.25l-2.92,0.32l-0.09-1.07
		l-1.511-1.13l-0.5-1.63l2.261,0.25l2.01-1.01l-2.76-2.25l2.26-1.01v-1.25l-4.521-0.25l-3.26-1.51v-2.01l4.01-3.51v-2.51h-2.26
		l-6.02,6.52l-5.021,2.26l-3.01,0.51l-1,1.5l-1.76,0.75l-3.761-0.25l2.261-3.76l0.5-2.76l-0.75-2.01l2-1.76l-1.5-4.51l-1-1.26
		l-1.761-0.25l-0.75-1.75l-1.51-1.01l1.51-1.25h1.25v-2.26l2.011-0.25l1.25,1.5l2.26,0.26v0.75l2.26-0.5l0.5-1.26h1.76l0.75-2.51
		h1.25v-2.76l4.271-3.26l-1.25-1l-1-8.05l0,0l1.09-1.75l0,0L692.13,71.27z"/>
	<path id="EC-E" fill="#1E3250" stroke="#1E3250" stroke-width="0.5" d="M633.9,12.23l-0.07,4.89l-2.021,1.19l0.391,6.53l1.27,0.65
		v1.97l3.021,1.25l0,0h-0.16l0,0l0.47,2.61l-2.729,0.71l-0.12,3.33l2.729,1.43l1.19,1.66v1.54l-1.42,2.38l-2.03,1.07l-2.61,0.06
		l-0.27,2.17l-4.36,5l-2.439,0.8l-1.9-1.95L620,49.83l-1.74,2.05l-5.92-0.49l-3.109,1.67l-2.49-0.11l0,0l-4.21,0.59l-1.471-0.52l0,0
		l-3.079-0.7l-1.58,0.51l-0.24,2.02l-1.54,1.42h-1.311l0.12,2.26l1.66,1.43l-2.45,4.57l-0.12,3.1l0,0l-1.56-0.45l0,0l-1.76,2.51
		h-5.271l-3.529-1.28l0,0l-0.04-0.85l0,0l0.239-1.9l1.48-1.98l-1.29-0.43l-0.78-1.39l-1.96,0.07l-2.5-1.63l1.851-2.72l-0.24-1.78
		l-1.9-0.83l0.48-2.14l-1.07-2.38l-2.38-0.24l-1.19,3.33l-1.54,0.83l-3.1-0.06l-1.479,2.3l-1.44,0.58l-1.6-1.47l-1.271-3.42l0,0
		l0.49-1.4l-1.62-0.75l-0.71-2.94l1.78-3.71l0.12-2.97l-4.521-4.4l0.96-3.8l1.42-1.9l4.99,0.35l7.13-3.44l2.021-2.73l1.659-0.95
		l4.86-2.31l3.24-0.06l6.779-3.34l12.601-1.07l3.99-2.97l0.359-2.26l8.721-6.9l2.18-4.33L618.05,0l4.21,2.27l5.04,6.41l4.58,2.97
		L633.9,12.23z"/>
	<path id="EC-F" fill="#1E3250" stroke="#1E3250" stroke-width="0.5" d="M602.5,173.49l3.05,5.48l4.811,4.04l5.79-0.16l2.22-0.93
		l0.02,0.47l1.42-0.79l1.261-2.01h1l0.75,1.26l2.26,0.25l1.01-2.26l4.51,0.75l0,0l-0.18,0.25l0,0l2.47,2.45l0.601,4.04l-0.601,4.87
		l-1.279,1.42l0,0l0.529,0.24l0,0l-1.739,2.02h-1.19l-0.19-3.12l-2.43,0.75l-1.06,1.3l-0.391,2.24l-4.35,1.24l-2.4,2.07l-0.75,2.06
		l-1.13,0.96l-0.13,1.65l-4.05,0.6l-1.78-1.19l-0.71-2.85l-1.07-0.6l-2.38-3.56l-2.02,2.37l-4.87,0.12l-2.26-1.42l-0.59-2.02
		l0.59-1.13l-0.471-3.45l-1.779-2.02l-4.55-1.24l-3.03,0.63l0,0l-1.11,0.17l0,0l-1.29,0.8l-1.91-1.55l4.04-3.68l1.19-3.68l2.97,0.19
		l1.91-1.42l6.771-0.32l2.02-3.68l0,0L602.5,173.49z"/>
	<path id="EC-G" fill="#1E3250" stroke="#1E3250" stroke-width="0.5" d="M554.89,212.73l-4.229,1.04l-1.22,1.66l-4.04-0.36
		l-3.45-4.99l-0.24-2.26l1.19,0.12l2.02,2.02l1.07,2.26l1.689,0.521l0.391-7.86l2.74-5.96l5.899-2.5l3.15-0.55l5.62,2.86l-0.011,1.5
		l-1.069,1.54l-2.851,0.48l-5.58,7.57L554.89,212.73z M581.17,109.2l4.91-0.17l-1.021,3.08l0.9,3.51l-2.06,1.29l-0.4,1.64
		l-7.84,4.35l-1.66,1.9l-1.58,5.24l-4.41,4.8l-0.64,3.19l0.67,6.47l-0.63,2.43l1.31,3.09l3.33,0.95l1.9,5.23l3.33,3.45l1.54,0.12
		l2.97-1.9l2.14,0.12l0.5,0.72l2.13,0.47l5.04,4.67l2.221,3.86l1.67,1.42l1.17-1.16l2.5,2.14l0.12,0.97l0,0l1.359,0.66l0.53-1.81
		l1.2,0.06l0,0l1.54-0.36l-1.07,2.5l0,0l0.6,0.81l-1.21,0.64L602,175.1l0,0l-2.02,3.68l-6.771,0.32l-1.91,1.42l-2.96-0.19
		l-1.189,3.68l-4.04,3.68l1.899,1.54l1.29-0.8l0,0l0.641-0.08l0,0v3.28l-3.261,2.26l-10.81,20.94l-0.83-0.67l0,0l-0.33,0.82
		l-5.51-0.23l0,0l-0.19,0.09l0,0l2.91-12.24l2.43-6.88l1.62-1.44l-2.85-0.12l0.83-3.68l-1.19-0.59l-0.71,5.23l-3.09-0.12l1.19-4.87
		l-1.051-0.42l-1.979,2.31l-0.66,3.1l-5.47-1.78l-0.29-1.72l2.85-10.24l1.391-0.54l1-1.51l-3.351,1.24l-3.84,8.16l-6.91,6.63
		l-0.149,3.91l-2.841-0.58l-2.949-2.97l-3.2-0.72l-6.98-7.22l0,0l2.79-3.18l3.26-1.25l2.261-3.01l8.03-2.01l2.01-5.77l-1.76-2.01
		l-0.25-3.76l-3.011-0.75l-0.5-2.26l-2.26-1.76l-4.521-1.25l-1.76-4.27l-0.25-7.03l0,0h1.76l0,0l3.261-0.75l2.149,1.62l1.511-1.27
		l2.85,1.07l0.24-0.83l2.02-0.12v-2.02l-2.85-2.73l-0.24-1.07l2.26,0.24l2.971-1.43l-1.431-2.97l1.19-3.45l1.43-0.12l0.12-3.45h0.91
		l0.47-1.21l1.351,0.26l3.46-3.95l1.689-0.71l0.2-2.59l4-0.9l2.42-2.25l0.12-1.19l1.899-0.59l0.24-2.38l2.26-1.9l1.311-4.04
		l2.8,0.91l4.101-1.98l0,0L581.17,109.2z"/>
	<path id="EC-H" fill="#1E3250" stroke="#1E3250" stroke-width="0.5" d="M615.5,140.26l2.3-3.01l2.431-0.18l2.8,3.03h1.31l0.82-1.02
		l3.979-0.23l3.521,1.03l2.29-0.42l5.12,2.16l0,0l0.069,1.46l0,0l0.091,2.54l-0.87,1.68l-4.801,4.69l2.49,3.09l0.24,2.25l-2.38,3.69
		l-2.141,1.9l3.211,1.9l-0.591,1.66l0.24,2.97l-3.81,1.07l1.55,2.74l0.12,2.25l-1.55,0.84l0.399,1.34l-1.56,1.66l0,0l-0.181,0.24
		l0,0l-4.51-0.75l-1.01,2.26l-2.26-0.25l-0.75-1.26h-1l-1.261,2.01l-1.42,0.79l-0.02-0.47l-2.22,0.93l-5.79,0.16l-4.811-4.04
		l-3.05-5.48l0,0l2.81-1.92l0,0l1.74-1.48l1.13-16.38l2.49-0.83l2.021,0.24l2.26-2.02l-0.24-2.5l1.07,0.12l0.239-1.55l-0.6-1.18
		l-1.66-0.24L615.5,140.26z"/>
	<path id="EC-I" fill="#1E3250" stroke="#1E3250" stroke-width="0.5" d="M666.36,50.75l-0.78,1.98l-1.33,0.63l-0.66,4.47l-3.5,1.83
		l-0.479,1.17l0,0l-0.33,0.03l0,0l-1.92-1.44h-2.5l-4.16,1.67l-0.46,0.83l-4.94,0.65l-1.37-1.54l-0.47-3.33l-1.67,2.26l-1.63,0.35
		l-2.07-2.98l-0.899-0.35l-10.5,0.95l-5-0.69l-9.04,0.44l-2.82-0.93l-0.95-1.78l-2.26-0.72l-0.42-1.26l0,0l0.54-0.04l0,0l2.49,0.11
		l3.109-1.67l5.92,0.49l1.74-2.05l2.84-0.31l1.9,1.95l2.439-0.8l4.36-5l0.27-2.17l2.61-0.06l2.03-1.07l1.42-2.38v-1.54l-1.19-1.66
		l-2.729-1.43l0.12-3.33l2.729-0.71l-0.47-2.61l0,0h0.83l0,0l4.09,0.36l3.63,1.89l7.01,8.32l0.12,4.04l0.771,1.74l2.52,0.26
		l6.67,4.62L666.36,50.75z"/>
	<path id="EC-L" fill="#1E3250" stroke="#1E3250" stroke-width="0.5" d="M603.16,241.33l-0.92,1.38l-1.431,0.24l-1.659,2.37
		l0.59,3.33l1.819,2.5l-0.39,10.87l-0.72,3.33l2.02,3.09l0.12,9.38l-4.55,5.65l-1.22-0.39l-0.29-0.86l-1.66-0.12l-2.851,1.67
		l-0.239,2.61l-3.21,5.35v1.07l-2.03,0.3l0,0l-0.5-2.74l-1.91-0.77l-0.11-5.17l-1.899,0.35l-3.09-3.46l-2.25-0.64l-5.561,2.29
		l-1.529-0.15l-2.66-1.72l-1.67-2.49l-4.431-0.86l-3.85-3.49l-2.73-0.75l-1.92,0.67l-4.22,4.74l-4.63,3.26l-1.54,0.63l-3.521-1.77
		l-0.779-2.55l6.72-9.05l-2.05-0.14l-3.01,1.17l-0.91-0.65l-1.79-7.53l1.74-3.11l3.67-0.3l3.38,1.56l1.279-0.74l2.311-3.43
		l4.37-1.93l0,0l3.83-0.84l7.05-2.94l4.28,0.36l2.06,1.37l2.72-0.4l1.99-3.47l2.38-1.07l1.42-0.11l1.98,2.33l2.06-0.55l4.641,0.59
		l0.949-1.07v-3.32l0.71-1.67l1.551-1.42l-2.141-3.57l-1.069-0.24l-0.88,0.81l-1.141-1.64l-0.359-1.3l2.119-1.77l0.12-1.45
		l-0.25-1.01l-1.39-0.05l-0.6-2.26l-1.53-2.12l0,0l1.149,0.12l0,0l5.82,0.38l2.15,0.79l0.069,3.3l1.021,2.75l0.88,0.62l2.91-1.91
		l0.6,0.35l1.78,2.61l0.6,3.45l1.96,1.09l0,0L603.16,241.33z"/>
	<path id="EC-M" fill="#1E3250" stroke="#1E3250" stroke-width="0.5" d="M581.2,109.69l-4.09,1.98l-2.801-0.92l-1.31,4.04
		l-2.25,1.91l-0.24,2.37l-1.899,0.6l-0.12,1.18l-2.42,2.26l-4,0.89l-0.2,2.59l-1.69,0.72l-3.46,3.94l-1.35-0.26l-0.47,1.21h-0.91
		l-0.12,3.45l-1.42,0.12l-1.19,3.44l1.42,2.97l-2.97,1.43l-2.25-0.24l0.23,1.07l2.859,2.73v2.02l-2.02,0.12l-0.24,0.84l-2.85-1.07
		l-1.521,1.27l-2.14-1.62l-3.261,0.75l0,0h-2.01l0,0h-2.76l-0.08-1.59l-1.07-0.36h-1.659l-0.7,0.76l-6.891-0.16l-1.96,0.68l0,0
		l-1.67-3.96l1.61-4.61l2.439-1.5l1.431-5.82l-3.3-4.69l-2.28-1.73l-2.69-8.32l4.71-4.75l3.07-0.8l6.36,0.33l2.92-1.31l3.93-11.29
		l2.01-3.21l1.58-1.24l-3.479-5.53l-0.23-3.09l4.04-3.69l0.71-2.97l7.37-4.93l7.561-9.91l2.18-6.25v-7.72l1.01,0.48l0,0l1.271,3.42
		l1.6,1.47l1.44-0.58l1.479-2.3l3.1,0.06l1.54-0.83l1.19-3.33l2.38,0.24l1.07,2.38l-0.48,2.14l1.9,0.83l0.24,1.78l-1.851,2.72
		l2.5,1.63l1.96-0.07l0.78,1.39l1.29,0.43l-1.48,1.98l-0.239,1.9l0,0l0.12,2.73l0,0l1.59,6l6.5,0.78l1.55,1.9l0.35,9.03l-1.66,0.83
		l-3.199,6.15l0,0l0.989-0.03l0,0l-0.52,3.68l-2.1,1.28l-0.49,1.12l0.33,2.36l-1.41-0.46l-1.561,2.13l0,0L581.2,109.69z"/>
	<path id="EC-N" fill="#1E3250" stroke="#1E3250" stroke-width="0.5" d="M668.05,67.38l0.48,5.23l1.66-0.71l1.67,0.83l6.89,0.24
		l0.59-1.189l2.021-0.71l1.189-1.67l1.19,0.12l0.35,1.67l0.84,0.11l0.11,0.6l-1.18,0.71l0.17,1.89l3.39,1.08l2.5-1.54l0,0l0.91-1.1
		l1,8.04l1.25,1.01l-4.271,3.26v2.76h-1.25l-0.75,2.51h-1.76l-0.5,1.25l-2.26,0.5v-0.75l-2.26-0.25l-1.25-1.51l-2.011,0.25v2.26
		h-1.25l-1.51,1.26l1.51,1l0.75,1.76l1.761,0.25l1,1.25l1.5,4.52l-2,1.76l0.75,2l-0.5,2.76l-2.261,3.77l3.761,0.25l1.76-0.75l1-1.51
		l3.01-0.5l5.021-2.26l6.02-6.52h2.26v2.5l-4.01,3.52v2.01l3.26,1.5l4.521,0.25v1.26l-2.26,1l2.76,2.26l-2.01,1l-2.261-0.25
		l0.5,1.63l1.511,1.13l0.09,1.08l-1.601,0.18l0,0h-4.26l-4.77,1l-1.84-0.57l0.079,0.7l-13.8,2.38l-9.529,3.26l-0.54-1.38l-2.53-0.34
		l-0.12,0.95l-0.521-0.07l0.2,3.6l-11.64-0.79l0,0l0.03-0.36l0,0l-1.58-4.82l-1.55-0.71l-5.54,0.16l0.09-5.39l-0.95-1.19l-2.57-0.58
		l0,0l0.07-1.32l0,0l-0.78-4.2l1.38-0.43l0.351-1.9l-2.13-5.82l0,0l-0.101-0.12l0,0l0.811-1.55l3.62-0.95l0.67-3.39l2.02-1.9
		l0.83-2.25l0.48-2.5l-0.721-2.02l2.34-2.68l3.92-8.19L658,75.3l2.86-2.11l0.3-2.36l3.57-1.66l0.71-0.6l-0.08-0.97l0,0L668.05,67.38
		z"/>
	<path id="EC-O" fill="#1E3250" stroke="#1E3250" stroke-width="0.5" d="M573.24,216.87l6.66,1.96v2.73l-2.021,2.61l0.351,2.26
		l3.3,0.82l0,0l2.42,0.27l0,0l1.53,2.12l0.6,2.26l1.39,0.05l0.25,1.01l-0.12,1.45l-2.119,1.77l0.359,1.3l1.141,1.64l0.88-0.81
		l1.069,0.24l2.141,3.57l-1.551,1.42l-0.71,1.67v3.32l-0.949,1.07l-4.641-0.59l-2.06,0.55l-1.98-2.33l-1.42,0.11l-2.38,1.07
		l-1.99,3.47l-2.72,0.4l-2.06-1.37l-4.28-0.36l-7.05,2.94l-3.83,0.84l0,0l-1.12-1.2l-1.67-5.74l0.25-4.91l-2.55-10.49l-3.91-1.77
		l2.359-2.49l1.03,0.49l6.12-0.19l2.97-2.73l1.54-3.44l7.53-7.02l0,0l0.2-0.09l0,0l5.5,0.21L573.24,216.87z"/>
	<path id="EC-P" fill="#1E3250" stroke="#1E3250" stroke-width="0.5" d="M592.52,67.63l0.12-3.1l2.45-4.57l-1.66-1.43l-0.12-2.26
		h1.311l1.54-1.42l0.24-2.02l1.58-0.51l3.079,0.7l0,0l1.45,0.52l3.69-0.55l0,0l0.42,1.26l2.26,0.72l0.95,1.78l2.82,0.93l9.04-0.44
		l5,0.69l10.5-0.95l0.899,0.35l2.07,2.98l1.63-0.35l1.67-2.26l0.47,3.33l1.37,1.54l4.94-0.65l0.46-0.83l4.16-1.67h2.5l1.92,1.44l0,0
		l1.14-0.06l0,0l2.271,2.2l2.14,3.51l-0.54,1.18l0,0l1.07-0.09l0,0l0.08,0.97l-0.71,0.6l-3.57,1.66l-0.3,2.36L658,75.3l-6.73,1.71
		l-3.92,8.19l-2.34,2.68l0.721,2.02l-0.48,2.5l-0.83,2.25l-2.02,1.9l-0.67,3.39l-3.62,0.95l-0.811,1.55l0,0l-1.33-1.55l0,0
		l-2.5-1.07l-0.77-2.86l-4.44,0.43l-3.689,2.85h-1.54l-0.71-4.93l-4.99-1.49l-0.07-1.86l-1.33-2.77l-0.55-0.88l-1.02-0.07L614,84.73
		l0,0h-0.96v-0.74l0,0h4.01l2.01-1l0.75-1.76l1.261-0.5v-2.26l-2.261-1.75h-4.52l-1.25-3.52l-9.54-0.5l2.01-2.26l0.25-1.5h-9.779
		l-3.271-1.26l0,0L592.52,67.63z"/>
	<path id="EC-R" fill="#1E3250" stroke="#1E3250" stroke-width="0.5" d="M599.27,171.08l-0.119-0.97l-2.5-2.14l-1.17,1.16
		l-1.671-1.42l-2.21-3.87l-5.04-4.66l-2.13-0.47l-0.489-0.72l-2.141-0.12l-2.97,1.9l-1.55-0.12l-3.32-3.44l-1.91-5.23l-3.319-0.95
		l-1.311-3.09l0.63-2.43l-0.67-6.47l0.64-3.2l4.41-4.8l1.57-5.24l1.66-1.9l7.84-4.34l0.4-1.64l2.06-1.29l-0.9-3.51l1.021-3.09
		l-4.91,0.17l0,0l-0.32-4.14l0,0l1.561-2.13l1.41,0.46l-0.33-2.36l0.49-1.12l2.1-1.28l0.52-3.68l0,0l0.23-0.01l0,0l1.09,0.11
		l1.48-0.93l3.449,0.24l-0.569,5.86l0.31,1.23l1.69,0.41l9.63-7.31l0,0l1.46,1.45l0,0l-4.68,8.58l-0.12,1.66l-5.46,7.01l0.229,2.14
		l0.83,0.83l-2.25,3.68v2.02l1.3,1.67l0.24,1.9l0,0l-0.83,1.13l0,0l-5.7,4.28l2.141,0.59l1.97-0.99l2.54,0.99l-0.59,3.33l-1.19,0.35
		l-0.28,0.8l0.211,1l-2.19,0.94l0.24,0.95l2.43,0.63l0.45,2.46l2.35,0.35l-1.069,2.74l-3.091,1.42l0.24,1.07l2.62,0.54l0.46,3.38
		l2.74,0.36l-0.24,0.95l-2.22,0.71l0.55,4.771l-1.42,2.96l2.62,5.34l2.939,1.48l0.061,0.56l0,0l-0.561,3.16L599.27,171.08z"/>
	<path id="EC-S" fill="#1E3250" stroke="#1E3250" stroke-width="0.5" d="M640.05,141.36l4.101-0.16l4.02-1.75l1.32-1.77l0,0
		l0.68,0.24l0,0l3.87,3.25l0.479,2.97l1.95,4.14l3.28-0.76l1.23,0.73l1.109,2l0.05,1.65l1.86,0.62l1.43,6.66l-0.3,0.94l5.601,5.36
		l17.1,6.72l4.57,4.38l6.54,4.4l2.369,4.99l1.78,1.55l0.24,1.78l2.26,1.9l5.11-0.12l0.95,1.07l1.479-1.56l1.7,0.24l1.1,1.56
		l6.5-0.45l0,0l-61.859,21.99l-5.24,5.56l-1.32,2.31h-2.62v3.42l-4.04,2.79l-0.729,1.26l2.17,4.37l1.53,1.23l-1.07,2.14l-2.02-0.83
		l-2.54,0.57l-0.271-4.41l-1.92-0.81l-2.16,1.3l-0.37,4.97l0,0l-9.37-0.5l-0.25,1.76l-4.26-1.26l-1.26,2.26l-2.86,0.55l-1.25-1.22
		l-3.04-0.18l-2.83-1.9l0.7-6.03l-1.76-2.01l-2.72-0.32l-1.46-1.14l0,0l0.229-0.13l0,0l0.24-2.02l5.46-2.02l2.14-4.4l1.551-1.3
		l2.489-0.48l2.261-2.14l0.71-6.89l2.85-3.45l0.24-1.56l-0.95-0.81l-0.24-1.55l0.36-1.54l2.02-1.79l6.3-1.42l0.12-2.26l-2.739-0.95
		l0,0l-1.04-0.48l0,0l1.279-1.42l0.601-4.87l-0.601-4.04l-2.47-2.45l0,0l0.36-0.49l0,0l1.56-1.66l-0.399-1.34l1.55-0.84l-0.12-2.25
		l-1.55-2.74l3.81-1.07l-0.24-2.97l0.591-1.66l-3.211-1.9l2.141-1.9l2.38-3.69l-0.24-2.25l-2.49-3.09l4.801-4.69l0.87-1.68
		l-0.091-2.54l0,0L640.05,141.36z"/>
	<path id="EC-SD" fill="#1E3250" stroke="#1E3250" stroke-width="0.5" d="M592.71,67.68l3.271,1.26h9.779l-0.25,1.5l-2.01,2.26
		l9.54,0.5l1.25,3.52h4.52l2.261,1.75v2.26l-1.261,0.5l-0.75,1.76l-2.01,1h-4.01l0,0l-0.06,0.74l-1.24,0.71l0,0l-4.03,5.03
		l-0.01,1.21l2.02,2.38l-1.43,0.47l-0.11,1.91l-2.62-0.24l0,0l-1.649-1.65l0,0l-9.63,7.31l-1.69-0.41l-0.31-1.23l0.569-5.86
		l-3.449-0.24l-1.48,0.93l-1.09-0.11l0,0l-1.22,0.04l0,0l3.199-6.15l1.66-0.83l-0.35-9.03l-1.55-1.9l-6.5-0.78l-1.59-6l0,0
		l-0.08-1.88l0,0l3.529,1.28h5.271l1.76-2.51l0,0L592.71,67.68z"/>
	<path id="EC-SE" fill="#1E3250" stroke="#1E3250" stroke-width="0.5" d="M521.39,148.81l1.96-0.68l6.891,0.16l0.7-0.76h1.659
		l1.07,0.36l0.08,1.59h2.76l0,0h0.25l0,0l0.25,7.03l1.76,4.26l4.511,1.26l2.26,1.75l0.5,2.26l3.01,0.75l0.26,3.77l1.75,2.01
		l-2.01,5.77l-8.02,2l-2.261,3.02l-3.27,1.25l-2.78,3.18l0,0l-4.71-4.6l-4.91-0.77l-5.069-2.88l-4.09-4.96l-0.08-1.52l2.489,1.05
		l3.381-1.52l3.229-2.33l1.6-2.37l1.061-7.78l-2.01-7.28L521.39,148.81z"/>
	<path id="EC-T" fill="#1E3250" stroke="#1E3250" stroke-width="0.5" d="M638.51,116.23l2.57,0.58l0.95,1.19l-0.09,5.39l5.54-0.16
		l1.55,0.71l1.58,4.82l0,0l-0.12,1.54l0,0l0.83,2.5l-0.59,2.02l-2.181,2.53l0,0l0.94,0.33l0,0l-1.32,1.77l-4.02,1.75l-4.101,0.16
		l0,0l0.021,0.26l0,0l-5.12-2.16l-2.29,0.42l-3.521-1.03l-3.979,0.23l-0.82,1.02h-1.31l-2.8-3.03l-2.431,0.18l-2.3,3.01l0,0
		l-0.12-1.02l-1.74-1.87l-1.58-4.91l1.771-1.69l0.96-4.79l0,0l2.65-1.51l0,0l2.84-1.29l3.85,0.28l5.55-1.53l0.84-2.5l2.49,0.59
		l0.7,0.95h1.9l2.739-3.56l0,0L638.51,116.23z"/>
	<path id="EC-U" fill="#1E3250" stroke="#1E3250" stroke-width="0.5" d="M788.05,100.03l-5.51-2.25l0,0l-0.37-1.09l-6.97-0.52
		l-0.47-1.29l-2.4-2.26l-3.7-0.73l-5.64,0.23l-1.891-1.54l-2.02-0.59l-2.38,0.12l-0.07,5.42l0.85,0.52v1.07l-4.159-0.71l-0.061-1.25
		l-2.14-1.07l-1.48-3.15l-9.84,0.29l-2.83,2.68h-1.66l-5.04-1.84l-3.149-3.57l-3.42,0.26l-1.69-2.16l-3.92-2.14l-9.15-11.88
		l-2.14-0.24L703.47,74l-5.109-1.19l-2.011,0.16l0,0l-4.43-1.76l0,0l-1.09,1.75l0,0l-0.92,1.07l0,0l-2.5,1.54l-3.391-1.08
		l-0.17-1.89l1.19-0.71l-0.12-0.59l-0.83-0.12l-0.359-1.66l-1.19-0.12l-1.19,1.66l-2.02,0.71l-0.59,1.19l-6.891-0.24l-1.66-0.83
		l-1.659,0.71l-0.48-5.23l0,0l-3.76,0.31l0,0l0.54-1.18l-2.14-3.5l-2.271-2.2l0,0l-0.82,0.02l0,0l0.49-1.17l3.49-1.83l0.66-4.47
		l1.33-0.63l0.779-1.979l0,0l0.761-3.16l4.609-5.63l0.71-2.73l1.431-1.54l1.529,0.22l0.95-1.07l0,0l5.271,3l1.22,1.79l-0.75,2.64
		L683.3,50l3.391,1.79l1.6-0.94l5.27,1.22l4.421-1.13l1.88,0.66l1.409,3.3l9.23,2.45l2.64,0.28l1.04-0.66l3.01-0.189l0.471-1.13
		l5.18,0.85l2.07,1.32l2.92-1.22h0.939l0.471,0.85l2.92-0.75l2.17,0.56l0.47-7.34l1.22-1.13l3.771-0.85l2.64,1.69l4.9,0.56
		l1.41,2.26h2.449l1.511,0.75l4.239,6.03l6.591,5.74l2.17,0.94l7.529,0.28l2.45,2.26l-0.28,1.04l2.45,1.32l4.61,1.98l5.18,0.94
		l-0.75,1.79l-2.26,0.47l-0.47-0.85l-0.471,1.04l-1.699,0.28l-3.86-1.69h-6.5v6.68l4.33,3.39l3.58-0.19l3.479,5.74h1.221l0.939,1.41
		l1.79,0.19l0.75,1.13l1.69,0.75l0.47,4.9L788.05,100.03z"/>
	<path id="EC-W" fill="#1E3250" stroke="#1E3250" stroke-width="0.5" d="M96.96,137.65l-3.41,0.43l-4.26-2.98v-1.71l1.71-1.71
		l2.13-0.85l3.84,0.43l3.62,3.2l-1.28,1.71L96.96,137.65z M59.23,133.36l-1.64-0.11l-2.74-2.17l2.12-4.21l2.08-0.01l3.21,2.17
		l-0.11,1.4L59.23,133.36z M79.7,111h-2.56l-1.92-1.71l-0.21-2.34l2.34-1.07l2.56,0.64l1.28,2.77L79.7,111z M106.88,113.37
		l-4.43,1.09l-4.55-1.4l0.03-0.66l7.31-5.29l0.57-1.88l2.1-2.03l2.77-1.54l5.04-0.07l0.53,0.79l-1.38,2.91L106.88,113.37z
		 M50.71,100.13l-2.77,1.07l-2.13-1.28l-1.07-2.34l0.43-1.28l2.77-1.07l2.13,1.07l1.07,1.28L50.71,100.13z M67.76,104.41L63.72,106
		l-4.42-0.53l-5.24-3.74l-0.53-2.82l0.74-2.34l2.27-2.65l1.62-0.69l7.81-0.74l5.04,2.29l-0.1,5.27l-0.51,1.45L67.76,104.41z
		 M67.76,89.69h-2.34L63.5,88.2l1.07-2.56l2.98-1.07l2.56,2.13l-0.21,1.92L67.76,89.69z M7.93,92.37l-5.46-2.28l-1.91-3.01L0,83.77
		l1.52-1.18l7.85-2l3.21,2.78l0.27,6.32l-0.41,0.9L7.93,92.37z M53.68,83.08l-2.8,3.53l-3.13-1.27l-3.35,0.41l-4.14-0.94l-2.3-3.24
		l1.91-4.44l1.99-1.31l8.23,3.08L53.5,82L53.68,83.08z M19.64,68.68l1.83,0.61l0.69,0.95l0.05,5.29l1.52,4.64l3.06,3.28l3.09,1.74
		l3.76,3.68l0.76,4.92l-0.69,1.14l7.31,8.74l-3.06,8.74l-2.51,2.48L23.99,118l-7.48-0.91l-2.5,0.62l-2.26-0.48l-3.53-4.68
		l-0.05-3.06l1.89-2.63l6.79-5.4l3.65-1.18l3.68,0.95l3.72-4.4l-1.84-1.92l-1.56-0.06L14.63,83.2l-2.3-3.58l0.66-2.71l-1.17-6.2
		l-0.86-1.19l-1.71-0.25L5.9,71.08l-1.62-0.02l-1.44-1.9l10.24-6.45l3.68,0.61l0.11,1.13L19.64,68.68z M87.37,58.15l-1.71,0.64
		l-2.56-0.21l-1.49-2.56l0.21-2.34l5.54,0.21l1.49,1.28v1.49L87.37,58.15z M60.94,58.15l-5.12,0.21l-2.34-2.13l0.21-2.34l2.56-1.28
		l4.69,0.21l3.41,2.56l-0.85,1.7L60.94,58.15z M49.22,46.43l-2.77,1.28l-2.34-1.92l-1.71-3.2l0.85-2.13l2.98-1.49l2.56,2.13
		l1.28,2.77L49.22,46.43z"/>
	<path id="EC-X" fill="#1E3250" stroke="#1E3250" stroke-width="0.5" d="M616.65,124.92l-3.96-0.74l-0.95,1.67l-2.73,0.23
		l-2.189-0.43l-1.73-1.88l-2.26-0.12l-3.57,0.71l-2.14,1.74l-1.33-0.05l0,0l-0.33-0.56l0,0l-0.24-1.9l-1.3-1.67v-2.02l2.25-3.68
		l-0.83-0.83l-0.229-2.14l5.46-7.01l0.12-1.66l4.68-8.58l0,0l0.189,0.2l0,0l2.62,0.24l0.11-1.91l1.43-0.47l-2.02-2.38l0.01-1.21
		l4.03-5.03l0,0l2.26-0.71l0,0l0.36,3.51l1.02,0.07l0.55,0.88l1.33,2.77l0.07,1.86l4.99,1.49l0.71,4.93h1.54l3.689-2.85l4.44-0.43
		l0.77,2.86l2.5,1.07l0,0l1.431,1.67l0,0l2.13,5.82l-0.351,1.9l-1.38,0.43l0.78,4.2l0,0l-0.23,2.5l0,0l-2.739,3.56h-1.9l-0.7-0.95
		l-2.49-0.59l-0.84,2.5l-5.55,1.53l-3.85-0.28l-2.84,1.29l0,0L616.65,124.92z"/>
	<path id="EC-Y" fill="#1E3250" stroke="#1E3250" stroke-width="0.5" d="M722.43,191.94l-6.5,0.45l-1.1-1.56l-1.7-0.24l-1.479,1.56
		l-0.95-1.07l-5.11,0.12l-2.26-1.9l-0.24-1.78l-1.78-1.55l-2.369-4.99l-6.54-4.4l-4.57-4.38l-17.1-6.72l-5.601-5.36l0.3-0.94
		l-1.43-6.66l-1.86-0.62l-0.05-1.65l-1.109-2l-1.23-0.73l-3.28,0.76l-1.95-4.14l-0.479-2.97l-3.87-3.25l0,0l-1.62-0.57l0,0
		l2.181-2.53l0.59-2.02l-0.83-2.5l0,0l0.09-1.18l0,0l11.64,0.79l-0.2-3.6l0.521,0.07l0.12-0.95l2.53,0.34l0.54,1.38l9.529-3.26
		l13.8-2.38l-0.079-0.7l1.84,0.57l4.77-1h4.26l0,0l4.521-0.51l1.01,1.26l2.5-0.25l2.26,2.51l2.011,0.25l0.5-3.26l10.93-2.63
		l1.37,0.91l2.729,0.23l0.59,1.07l-0.96,5.32l4.07,3.24l2.88-0.36l1.45,2.26l3.13,0.57l7.57-1.4l11.42,3.46l0.67-0.73l2.26,1.07
		l1.05,1.94l3.311,0.02l1.189,1.31l0.311,1.69l3.17,1.92l3.33-0.34l-0.15,3.04l-23.39,27.51L722.43,191.94z"/>
	<path id="EC-Z" fill="#1E3250" stroke="#1E3250" stroke-width="0.5" d="M609.61,227.81l1.46,1.14l2.72,0.32l1.76,2.01l-0.7,6.03
		l2.83,1.9l3.04,0.18l1.25,1.22l2.86-0.55l1.26-2.26l4.26,1.26l0.25-1.76l9.37,0.5l0,0l-0.58,8l-0.71,1.9l-6.18,8.2l-0.71,2.85
		l-1.19,0.24l-0.33,3.13l-0.979,0.67l-1.07,2.97v5.35l-2.939,3.16l0.439,8.29l-5.1,7.56l-4.95,1.44l-3.01,2.36l-1.311,5.35
		l-3.21,4.4v2.37l-2.85,1.19l-2.021-1.3l-8.1,0.16l-1.76-3.49l-2.5-0.71l-0.12-2.5l-2.11-0.01l-1.17-1.31l-0.97-4.97l0,0l2.03-0.3
		v-1.07l3.21-5.35l0.239-2.61l2.851-1.67l1.66,0.12l0.29,0.86l1.22,0.39l4.55-5.65l-0.12-9.38l-2.02-3.09l0.72-3.33l0.39-10.87
		l-1.819-2.5l-0.59-3.33l1.659-2.37l1.431-0.24l0.92-1.38l0,0l-0.13-0.12l0,0l1.819-1.23l-0.83-2.85l1.431-2.96l-0.72-2.69
		l3.449-2.85l0,0L609.61,227.81z"/>
</g>
</svg>
