<?xml version="1.0" encoding="utf-8"?>
<!-- Generator: Adobe Illustrator 15.0.0, SVG Export Plug-In . SVG Version: 6.00 Build 0)  -->
<!DOCTYPE svg PUBLIC "-//W3C//DTD SVG 1.1//EN" "http://www.w3.org/Graphics/SVG/1.1/DTD/svg11.dtd">
<svg version="1.1" id="Layer_1" xmlns:amcharts="http://amcharts.com/ammap"
	 xmlns="http://www.w3.org/2000/svg" xmlns:xlink="http://www.w3.org/1999/xlink" x="0px" y="0px" width="829.5px" height="470.5px"
	 viewBox="0 0 829.5 470.5" enable-background="new 0 0 829.5 470.5" xml:space="preserve">
<defs>
	
	
		<amcharts:ammap  projection="mercator" leftLongitude="-90.125247" topLatitude="14.450692" bottomLatitude="13.152490" rightLongitude="-87.683841">
		</amcharts:ammap>
</defs>
<g>
	<path id="SV-AH" fill="#1E3250" stroke="#1E3250" stroke-width="0.5" d="M101.97,129.06l7.61,4.34l1.37,3.19l1.24-0.06l1.14,1.57
		l12.28,0.51l0,0l5.52,1.1l1.76,6.3l6.45,3.39l1.53,2.51l-0.53,6.49l-5.02,6.91l-0.82,5.48l-2.01,3.47l-0.19,4.15l-3.7,5.52
		l-1.81,0.44l0,0l-4.66-3.3l-2.51,3.66l-3.06,1.53l-3.37,0.34l-1.17,1.26l2.21,9.06l2.77,5.78l-3.27,5.65l-4.61,4.51l-1.18,6.54
		l3.3,11.71l-4.21,0.42l-0.97,0.91l-0.38,4.98l-2.52,5.78l0.07,3.26l-5.6,15.39l-6.54,0.44l-3.6-3.38l-7.1-3.18l-8.83-8.45l-5,2.21
		l-3.86,6.77l-2.24,1.26l-1.31,2.45l-2.82,1.33l0,0l-25.96-12.25l-1.62-1.47l7.57,3.39l3.78,0.94l-1.35-1.47l-2.35,0.27l-1.61-1.1
		l-0.9-0.93l0.54-0.73l-2.8-0.1l-2.43-2.21l-2.07,0.28l-0.54,1.01l-12.44-5.16l-2.07-1.29l-0.27-1.2l-1.99,0.46L0,235.68l2-0.63
		l3.48,1.71l1.26-0.29l2.57-4.57l1.42-0.16l0.58-1.21l-2.14-1.2l-3.1-5.53l-2.44,0.71l-0.69-0.91l0.49-6.34l3.21-5.43l-1.69-7.17
		l4.63-4.24l5.18-9.38l4.15-1.18l1.35-2.86l6.45-1.05l2.4-1.66l1.24-2.34l-1.04-4.23l2.17-1.45l0.36-5.38l1.67,0.13l5.33-2.8
		l2.31-2.9l7.24-2.53l1.45-1.74l3.68-1.53l1.43-1.65l-0.52-2.08l3.03-0.04l3.14-1.88l1.31-2.6l1.58-0.3l1.19-3.08l5.37-2.33
		l2.67-7.56l2.85-2.65l6.7-0.54l3.15,0.73l4.32-4.58l8.55-2.42L101.97,129.06z"/>
	<path id="SV-CA" fill="#1E3250" stroke="#1E3250" stroke-width="0.5" d="M485.47,143.51l6.811,5.18l1.68,0.07l2.33-1.45l1.97,0.34
		l6.38,8.53l1.44,0.72l8.9-1.45l4.35,0.68l5.36,3.05l3.18,3.32l0.07,1.77l-3.24,5.44l-1.37,5.26l1,2.29l-1.1,2.26l5.26,10.62
		l0.38,6.52l1.39,0.44l0,0l-1.54,3.38l0.311,3.27l-1.471,2.86l0.33,4.04l-4.949,5.81l1.06,3.83l-0.39,2.23l-5.181,7.04l-0.1,2.09
		l1.78,3.33l-1.021,1.77l0,0l-2.39-1.9l-5.78,1.66l-4.71-0.59l-1.3,0.75l-5.88,0.06l-0.96-2.92l-2.511-1.88l0.54-3.82l-4.069,0.03
		l-5.931-3.37l-4.6-0.36l-2.58-1.66l-0.36-1.79l-2.859-1.05l-3.11,2.28h-4.93l-1.98-1.42l-5.14,1.59l-2.19-0.7l-1.68,0.84
		l-2.47-3.66l-1.23,1.24l-6.13-1.64l-2.39,2.2l-2.23-0.6l-2.46,0.66l-7.779,4.52l-11.53-1.23l-5.7,0.58l-5.34,5.04l0,0l-2.04-0.72
		l-1.4-2.46l-6.45-5.37l-2.619-0.94l-3.71,0.2l-0.78-4.33l-3.72-3.14l-0.91-5.9l-5.17-4.57l-2.9,0.27l-2.66-1.5l-8.1-6.95l0.81-8.28
		l6.13-5.93l4.75-8.89l0,0l2.12,1.15l0.34,2.37l3.56,2.39l0.34-0.94l-1.81-2.47l4.2-2.96l1.97,0.98l0.2,1.26l3.79-0.15l1.72,1.02
		l4.64-0.19l4.42-1.81l0.97,0.74l4.771-2.97l0.96-2.37l3.27-0.38l-0.51,2.32l5.26-1.67l5.17-5.24l0.83,1.99l3.881-2.08l2.13,0.59
		l7.569-4.47l2.12-3.01l3.24-1.33l1.33-1.61l7.43-0.77l13.4-4.29l0.42-1.37l0,0l2.14,1.3l4.12-2.45l2.75,1.06l1.22-1.15l3.21,0.45
		l1.141-1.45L485.47,143.51z"/>
	<path id="SV-CH" fill="#1E3250" stroke="#1E3250" stroke-width="0.5" d="M319.44,37.81l17.09-2.97l2.79,2.27l8.61,3.71l2.98,0.22
		l4.06,2.81l1.47,3.28l0.86,6.19l-2.05,3.69l0.84,1.83l12.04,7.66l5.15,8.47l-1.26,2.72l0.74,1.41l2.91,0.6l3.51,2.75l15.48-0.31
		l3.27,3.84l9.13,3.31l1.811,1.3l3.93,10.34l4.431,7.31l6.14,13.83l2.62,1.64l2.75,0.26l14.109-2.39l3.971,0.68l4.6,4.48l7.11,10.51
		l9.84,8.58l0,0l-0.42,1.37l-13.4,4.29l-7.43,0.77l-1.33,1.61l-3.24,1.33l-2.12,3.01l-7.569,4.47l-2.13-0.59l-3.881,2.08l-0.83-1.99
		l-5.17,5.24l-5.26,1.67l0.51-2.32l-3.27,0.38l-0.96,2.37l-4.771,2.97l-0.97-0.74l-4.42,1.81l-4.64,0.19l-1.72-1.02l-3.79,0.15
		l-0.2-1.26l-1.97-0.98l-4.2,2.96l1.81,2.47l-0.34,0.94l-3.56-2.39l-0.34-2.37l-2.12-1.15l0,0l-3.63-1l0.3,3.25l-1.37-0.49
		l-1.48,2.15l-1.98-0.93l0.91-1.82l-1.51-0.27l1.08-0.85l-1.62,0.26l-1.2,1.68l-2.14,0.28l-0.1,0.87l4.92,1.13l-0.28,1.58l1.5,4.08
		l-0.51,0.32l-2.31-3.49h-1.43l-1.03,3.06l-1.83,1.5l1-3.5l-1.51-2.17l-2.03,3.1l0.77-4.15l-2.1-1.7l-0.63-2.87l-1.63-0.31
		l-1.65-2.49l-2.73,2.4l1.35-4.57l-0.81-1.4l-2.07-0.27l2.14-3.74l-1.58-2.03l-3.03,0.3l2.15-1.37l-0.93-1.54l0.73-1.89l-2.28,1.14
		l-1.67-0.81l-0.81,1.58l-0.76-1.58l-2.02,1.08l-1.48-0.39l2.49-1.81l0.94-3.53l4.22,1.22l-0.78-2.31l-1.97-1.81l-0.88,0.87
		l-0.97-0.43l0.7-1.22l-0.64-2.69l-1.99,1.21l0.72,1.76l-4.07,0.17l-0.33-0.65l2.08-2.55l-3.65,0.33l2.87-2.74l-3.01-0.35l0.27-2.18
		l-1.97,2.05l-0.8-1.58l-2.48-1.521l-2.3,1.2l-1.88-0.67l-0.52,1.29l1.45,1.62l-0.59,0.76l-6.42-4.59l0.05-1.79l-3.69-4.31
		l-0.93-0.1l-2.13,2.21l0,0l-0.89,0.32l0.38-1.81l-1.54,0.69l-0.74,1.99l-2.14,0.85l-1.76,3.23l-3.97,0.74l-2.74-3.31l0.09-3.54
		l-2.23-1.23l-5.04,3.89l-3.01,1.17l-1.12,0.17l-3.07-2.12l-5.66-0.95l-1.44,0.61l-0.59,1.77l-3.3,0.87l-1.43-0.52l-1.45,1.78l0,0
		l-3.14-3.91l-1.88,1.27l-4.34,0.59l-1.19-5.62l-2.42-0.84l-3.37,0.52l-3.85,3.74l-3.3,1.48l-4.81-0.7l-3.13,7.62l-2.54-0.91
		l-2.47,0.97l0,0l-3.66-0.89l-4.29,0.73l-6.39-3.09l0.35-12.92l3.84-3.84l-0.11-1.74l2.84-0.94l1.03-1.46l-0.24-3.19l-1.73-3.72
		l2.23-3.38l3.95-0.69l5.76-5.14l0.14-1.45l1.42-0.55l0.07-2.51l1.14-1.87l12.58-1.69l2.75-1.98l0.85-5.42l-1.23-3.87l1.45-4.05
		l-1.66-2.79l-0.73-4.6l1.56-0.99l2.26,0.33l2.29-1.7l4.44,0.92l4.91-2.99l2.1-2.9l0.06-6.26l2.96-4.43l0.87-3.95l-0.43-2.53
		l2.07-3.41l-2-2.63l-12.83-9.27l-4.1-6.47L251.11,9.72l0,0l6.38,4.96l10.68,5.39l12.77,3.32l11.32,0.73l5.58,2.67l9.94,8.86
		l7.13,2.07L319.44,37.81z"/>
	<path id="SV-CU" fill="#1E3250" stroke="#1E3250" stroke-width="0.5" d="M319.14,133.09l2.13-2.21l0.93,0.1l3.69,4.31l-0.05,1.79
		l6.42,4.59l0.59-0.76l-1.45-1.62l0.52-1.29l1.88,0.67l2.3-1.2l2.48,1.521l0.8,1.58l1.97-2.05l-0.27,2.18l3.01,0.35l-2.87,2.74
		l3.65-0.33l-2.08,2.55l0.33,0.65l4.07-0.17l-0.72-1.76l1.99-1.21l0.64,2.69l-0.7,1.22l0.97,0.43l0.88-0.87l1.97,1.81l0.78,2.31
		l-4.22-1.22l-0.94,3.53l-2.49,1.81l1.48,0.39l2.02-1.08l0.76,1.58l0.81-1.58l1.67,0.81l2.28-1.14l-0.73,1.89l0.93,1.54l-2.15,1.37
		l3.03-0.3l1.58,2.03l-2.14,3.74l2.07,0.27l0.81,1.4l-1.35,4.57l2.73-2.4l1.65,2.49l1.63,0.31l0.63,2.87l2.1,1.7l-0.77,4.15
		l2.03-3.1l1.51,2.17l-1,3.5l1.83-1.5l1.03-3.06h1.43l2.31,3.49l0.51-0.32l-1.5-4.08l0.28-1.58l-4.92-1.13l0.1-0.87l2.14-0.28
		l1.2-1.68l1.62-0.26l-1.08,0.85l1.51,0.27l-0.91,1.82l1.98,0.93l1.48-2.15l1.37,0.49l-0.3-3.25l3.63,1l0,0l-4.75,8.89l-6.13,5.93
		l-0.81,8.28l8.1,6.95l2.66,1.5l2.9-0.27l5.17,4.57l0.91,5.9l3.72,3.14l0.78,4.33l3.71-0.2l2.619,0.94l6.45,5.37l1.4,2.46l2.04,0.72
		l0,0l1.42,7.4l-1.85,1.55l-0.04,2.68l-2.36,2.38l2.56,10.21l-6.17,3.5l-2.97,3.63l0,0l-6.24,0.89l-5.62,2.07l-1.49,4.62l-3.72,3
		L371.18,264l-7.49-1.87l0,0l-1.13-3.37l6.39-2.98l-1.21-7.27l-4.02,3l-3.78-2.06l-2.55,1.06l0.31-1.54l-9.21-20.42l-4.32-6.42
		l-0.46-3.88l-9.11-1.82l-4.36-6.44l-2.85-6.77l-2.63-1.69l-4.97,0.53l-1.47-4.84l-2.31-1.06l0.76-2.05l4.22-1.61l5.72-5.08
		l-2.48-2.86l-3.27-1.03l-2.67-2.74l-1.24-3.96l-6.49-12.06l0.59-2.03l2.9-1.98l2.56-7.18l0.53-5.7l-0.59-3.28l-1.22-1.41l0.07-2.91
		l2.4-2.91L319.14,133.09z"/>
	<path id="SV-LI" fill="#1E3250" stroke="#1E3250" stroke-width="0.5" d="M241.05,141.9l2.47-0.97l2.54,0.91l3.13-7.62l4.81,0.7
		l3.3-1.48l3.85-3.74l3.37-0.52l2.42,0.84l1.19,5.62l4.34-0.59l1.88-1.27l3.14,3.91l0,0l-1.55,3.53l-1.76,0.85l-1.02,6.13
		l-1.71,0.86l-0.23,3.53l2.82,4.75l1.91-0.39l1.97,1.98l1.45-0.28l1.13,2.97l1.7,1.14l-0.16,1.17l-2.44,1.17l0.66,1.96l6.13,2.67
		l7.34,1.2l0.75,4.88l-0.44,2.27l-3.02,2.07l-0.21,3.36l-1.87,1.49l-2.15,14.27l-3.04,10.89l-2.6,5.21l0.74,4.78L278.1,233
		l-3.08,5.68l1.34,1.16l5.48-1.55l-0.44,2.35l-3.27,3.45l0.56,2.25l-1.05,1.8l10.12,3.87l2.89,8.49l4.34,3.88l-0.6,1.09l-3.2,1.11
		l-1.52,5.62l0.87,1.22l3.16,0.03l2.41,1.08l-2.41,2.9l-1.72,7.53l0.25,2.62l2.98,5.25l-0.61,4.95l-1.91,2.99l-0.73,4.01l4.38,8.38
		l0.85,3.49l2.48,2.359l-0.34,4.71l8.11,2.37l1.08-0.91l0.21-4.859l5.47-0.08l0,0l-0.37,5.38l2.02,0.55l5.43-0.89l0.73,1.27
		l-2.38,7.021l-1.98,2.12l-2.7,1.14l1.39,2.22l-1.76,3.97l0,0l-4.2-2.77l-8.74-3.68l-2.52-1.29l-4.06-2.761l-10-4.329l-2.79-1.381
		l-12.17-5.529l-9.56-0.92l-2.25,2.399l-6.4-2.3l-2.07,0.92l-4.69-2.67l-5.94-0.74l-4.87,0.37l-4.6-0.74l-2.25,1.11l-14.51-2.67
		l-3.42,0.92l-7.57-0.83l-1.36,0.92l-6.67,0.92l-5.4-2.67l-4.33-0.09l-2.61-1.2l-13.7-2.029l-4.24-2.32l0,0l6.37-4.95l5.23-6.75
		l6.69-6.34l2.99-11.54l4.53-6.02l3.37-2.09l2.39-2.89l-1.15-17.53l0.52-2.99l3.31-1.84l9.2-1.28l1.07-3.6l2.12-0.88l2.89-3.93
		l2.04-0.5l1.94,1.09l1.32-2.74l2.43-0.49l1.67-3.68l-0.23-3l-5.06-2.29l0,0l-0.2-3.81l-1.58-1.4l-1.28-3.33l5.03-3.57l1.63-8.61
		l-1.49-4.57l0.79-0.96l-0.58-4.93l-2.43-7.47l1.31-2.19l-0.73-1.88l1.79-3.75l1.11-1.17l1.41,0.26l1.08-2.48l1.38-0.19l0.66-1.26
		l3-0.33l6.25-5.49l4.26-1.82l-1.7-9.15l1.59-3.7l1.54-0.09l1.67-2.26l-0.16-2.62l-1.9-1.79l1.64-3.15L241.05,141.9z"/>
	<path id="SV-MO" fill="#1E3250" stroke="#1E3250" stroke-width="0.5" d="M656.1,154.4l3.101,2.09l8.189,0.55l0.11,6.43l16.83,24.11
		l1.56,6.01l16.95-9.7l1.72,1.68l0,0l-2.54,6.4l-0.479,3.75l1.92,20l-2.65,11.8l0.71,1.04l4.591-0.59l0.85,0.68l0.63,4.76l1.48,3.27
		l-0.62,6.88l-4.38,12.64l-9.271,20.08l0.46,3.6l-3.109,8.46l-2.91,4.1l-8.12,4.11l0,0l-5.11-0.15l-19.13,6.22l-1.57-0.85
		l-3.319-7.23l-8.021-3.6l0.48-2.33l1.68-1.99l-0.57-2.27l0.65-1.02l-2.53-2.83l0.311-1.87l-16.29,1.69l-8.05,3.86l1.68-3.42
		l2.12-1.88l-0.311-1.08l-6.39-4.63l-0.23-5.53l-4.199-2.53l-2.011-3.39l-7.649-6.69l-0.891-2.41l-0.18-5.14l2.04-5.6l12.8-8.57
		l0.49-1.1l-0.36-4.3l-12.54-9.54l-2.02-5.1l-0.74-6.02l4.521-7.14l0.17-5.62l1.5-1.12l2.84,0.15l-1.15-3.62l-3.689-1.72l-0.57-3.44
		l0,0l14.63-11.85l-0.47-6.96l1.61-9.92l5.899-0.979l1.25,1.939l5.63,0.15l0.98,1.91l2.27-0.48l1.561,0.86l3.22-0.43l1.14-1.74
		l4.181,0.57l6.939-3.16L656.1,154.4z"/>
	<path id="SV-PA" fill="#1E3250" stroke="#1E3250" stroke-width="0.5" d="M398.7,378.36l2.069,0.92l0.811,1.75l-6.58-2.12
		L398.7,378.36z M386.63,372.56l0.9,1.381l-2.52-0.551L386.63,372.56z M400,260.96l-0.66,8.58l2.2,5.11l-2.2,8.61l6.65,2.17
		l13.069-1.31l-0.609,3.34l1.21,4.06l6.55,15.67l-2.4,13.069l-1.279,2.04l1.91,13.11l1.01,1.38l3.25,1.41l1.2,3.479l2.979,2.86
		l2.931,1.33l1.709,2.82l-2.43,4.13l-0.609,4.09l-5.08,2.81l1.35,2.98l-1.2,3.22l-0.109,4.39l3.05,4.671l0.21,1.979l-3.17,3.2
		l-4.09,0.84l-2.71,3l-0.28,2.69l-2.64,3.8l-0.24,5.17l0,0l-9.561-5.33l-4.42-1.29l-1.529-1.66l0.18-1.93l2.25,2.76l3.88-2.479
		l2.52,2.21l-2.159-2.58l0.359-1.931l3.78-0.64l0.63-3.22l-1.17,1.109l0.27,1.34l-4.05,1.15l-1.34,2.93l-1.82,0.66l-0.63-1.66
		l0.9-1.199l-1.44,0.649l-3.06-2.479l-1.08-1.561l0.9-0.92l-2.7-2.39l-3.79-0.09l-0.99-0.83l-1.35,1.66l-2.43-0.28l-2.88-4.69
		l-2.16-1.2l-2.94,0.23l-0.94-2.26l0.36,2.3l1.53,1.1l-2.75,0.681l-2.13-1.801l-4.36-0.96l-1.13-1.6l-4.32-0.64l-2.34-1.841
		l1.53,2.301l3.7,0.739l3.15,2.12h2.61l3.42,2.3l3.34-0.369l2.79,1.1l3.43,3.59l6.04,2.76l2.7,0.28l2.34,3.22l-1.44,0.46
		l-2.789-0.829l-13.88-7.45l-30.28-12.7l-0.45-1.29l-2.44,0.09l-4.42-1.84l-32.39-18.41l0,0l1.76-3.96l-1.4-2.229l2.7-1.131
		l1.98-2.119l2.38-7.021l-0.73-1.27l-5.42,0.89l-2.03-0.55l0.37-5.37l0,0l1.81-5.18l2.42-1.551l1.7-3.8l-0.19-3.7l2.97-4.31
		l-1.26-8.06l-3.76-4.76l-2.19-5.82l0.38-1.09l2.83-1.1l12.44-0.95l7.7-10.13l4.99,1.67l2.72-2.01l5.1,3.01l2.07,0.29l5.3-4.4
		l2.32-1.14l2.98-0.02l1.4-3.12l-2.21-1.93l0,0l7.48,1.88l11.76,7.54l3.72-3l1.49-4.62l5.62-2.07L400,260.96z"/>
	<path id="SV-SA" fill="#1E3250" stroke="#1E3250" stroke-width="0.5" d="M240.66,7.3l2.55-0.67l6.16,4.01l1.74-0.92l0,0
		l14.46,14.85l4.1,6.47l12.83,9.27l2,2.63l-2.07,3.41l0.43,2.53l-0.87,3.95l-2.96,4.43l-0.06,6.26l-2.1,2.9l-4.91,2.99l-4.44-0.92
		l-2.29,1.7l-2.26-0.33l-1.56,0.99l0.73,4.6l1.66,2.79l-1.45,4.05l1.23,3.87l-0.85,5.42l-2.75,1.98l-12.58,1.69l-1.14,1.87
		l-0.07,2.51l-1.42,0.55l-0.14,1.45l-5.76,5.14l-3.95,0.69l-2.23,3.38l1.73,3.72l0.24,3.19l-1.03,1.46l-2.84,0.94l0.11,1.74
		l-3.84,3.84l-0.35,12.92l6.39,3.09l4.29-0.73l3.66,0.89l0,0l0.34,1.81l-1.64,3.15l1.9,1.79l0.16,2.62l-1.67,2.26l-1.54,0.09
		l-1.59,3.7l1.7,9.15l-4.26,1.82l-6.25,5.49l-3,0.33l-0.66,1.26l-1.38,0.19l-1.08,2.48l-1.41-0.26l-1.11,1.17l-1.79,3.75l0.73,1.88
		l-1.31,2.19l2.43,7.47l0.58,4.93l-0.79,0.96l1.49,4.57l-1.63,8.61l-5.03,3.57l1.28,3.33l1.58,1.4l0.2,3.81l0,0l-4.5-1.75
		l-4.21,0.99l-7.07-0.55l-9.21-5.85l0.15-4.66l-6.76-4.6l1.76-1.97l-4.72-1.38h-2.14l-8.01,3.06l-0.72,5.65l-3.49,2.15l-1.67,2.38
		l-2.16-2.75l0.87-2.43l-0.91-1.88l-5.26-1.88l-2.84,1.24l-1.15-0.95l0.44-1.44l6.43-5.68l0.21-4.02l-2.1-1.74l-6.81-0.27
		l-1.01-4.25l0.95-1.17l0.28-3.1l-1.09-0.89l1.66-2.11l-6.31,1.53l-2.3-1.94l-2.89-0.88l-5.8,1.49l-4.65-1.79l-1.93,0.26l-1.33,1.28
		l-2.22-1.15l0,0l1.81-0.44l3.7-5.52l0.19-4.15l2.01-3.47l0.82-5.48l5.02-6.91l0.53-6.49l-1.53-2.51l-6.45-3.39l-1.76-6.3l-5.52-1.1
		l0,0l-0.23-1.15l1.9,0.41l0.39-2l-2.07-1.17l-0.71-2.7l0.88-2.1l-1.45-1.92l3.45-7.25l4.23-12.51l2.78-5.1l15.52-14.6l11.7-5.73
		l10.13,0.9l8.57-0.98l14.54-6.5l3.23-5.3l0.07-1.12l-1.22-0.57l-0.48,1.29l-3.55-9.07l-4.16-5.66L188,52.26l2.04,0.64l0.64-1.6
		l-0.64-2.15l-3.41-2.16l0.07-1.06l-2.51-2.3l-5.89-0.64l-2.08,1.82l-1.2-0.44l0.27-5.13l1.33-3.94l3.93-0.5l0.99-3.05l2.45-0.51
		l-0.5-1.94l-3.61-3.16l0.45-1.48l-1.43-6.5l0.39-5.15l1.47-2.9l10.61-0.35l-0.49,1.38l3.31,5.47l-1.39,3.94l2.57,0.82l2.43-0.66
		l10.05-10.04l3.42-1.12l2.17-2.28l9.55,3.54l0.27,1.57l1.63,0.88l2.03-0.28l7.94-7.13l1.81-4.36L239.75,0l1.23,1.03L240.66,7.3z"/>
	<path id="SV-SM" fill="#1E3250" stroke="#1E3250" stroke-width="0.5" d="M604.88,184.74l0.57,3.44l3.689,1.72l1.15,3.62l-2.84-0.15
		l-1.5,1.12l-0.17,5.62l-4.521,7.14l0.74,6.02l2.02,5.1l12.54,9.54l0.36,4.3l-0.49,1.1l-12.8,8.57l-2.04,5.6l0.18,5.14l0.891,2.41
		l7.649,6.69l2.011,3.39l4.199,2.53l0.23,5.53l6.39,4.63l0.311,1.08l-2.12,1.88l-1.68,3.42l8.05-3.86l16.29-1.69l-0.311,1.87
		l2.53,2.83l-0.65,1.02l0.57,2.27l-1.68,1.99l-0.48,2.33l8.021,3.6l3.319,7.23l1.57,0.85l19.13-6.22l5.11,0.15l0,0l-1.29,2.12
		l-0.68,5.97l1.58,3.37l2.539,11.79l-0.51,1.09l-6.18,1.96l-2.35,13.69l0.989,5.37l1.96,3.59l5.82,2.71l-4.11,11.39l-3.279,1.83
		l2.77,2.54l1.72,3.8l-3.63,11.141l2.21,6.46l0.67,14.43l-1.029,0.811l-12.09-0.67l-5.75,14.52l-1.171,9.9l0,0l-8.35,0.18
		l-0.729,1.51l0,0l-11.671-16l-2.14-4.88l-12.22-1.479l-4.03,2.399l-3-1.689l-0.68-1.391l0.88-2.95l5.27-5.09l-1.85-3.08l-3.521-3
		l-3.68,0.15l2.01-6.28l-1.109-1.609l-2.721,2.21l-1.039-1.08l-3.94,1.029l-1.95-1.71l1.11-0.59l-0.5-0.439l-3.61-1.07l-0.38,1.38
		l-0.99-0.63l-0.72,2.59l-2.32-0.45l-1.88,7.061l0.09,2.47l3.44,4.811l-0.18,0.909l-8.65,2.36l-2.38-1.18V392.6l-1.39-2.93
		l2.93-3.42l5.66-2.6l0.89-1.46l-2.77-7.851l0.39-3.28l-6.561,0.4l-11.05-1.04l-0.72-5.22l-1.14-0.24l-2.82-3.37l-3.46-1.54
		l-1.23-1.85l1.33-4.36l-0.75-6.41l1.511-3.59l-0.101-2.81l-1.85-1.57l-1.141-4.87l-3.75,0.8l-0.93-0.64l0.7-7.38l3.86,0.28
		l1.77-0.771l-0.46-5.82l3.14-3.02l0.721-2.43l-1.091-16.05l-5.189-3.2l1.71-4.81l-0.71-6l2.49-0.12l2.09,2.36l0.97-0.74l-0.79-3.36
		l1.101-3.21l-3.601-3.72l1.22-5.67l-1.43-7.61l-2.6-0.87l-2.761,2.12l-2.42,0.34l-3.46-1.9l-1.83,0.07l-3.18-3.9l-2-0.53
		l-4.09-5.39l-2.37-1.27l-1.83,1.45l-3.72,0.26l-1.83-1.48l-4.19-0.18l0,0l-4.52-2.29l0.08-4.53l-1.08-2.1l-4.92,0.95l-1.61-7.48
		l0,0l1.021-1.77l-1.78-3.33l0.1-2.09l5.181-7.04l0.39-2.23l-1.06-3.83l4.949-5.81l-0.33-4.04l1.471-2.86l-0.311-3.27l1.54-3.38l0,0
		l2.58,0.15l5.21,2.32l0.97-3.96l7.91,0.18l3.521-4.74l2.99-1.03l13.68-1.1l7.66,5.66L604.88,184.74z"/>
	<path id="SV-SO" fill="#1E3250" stroke="#1E3250" stroke-width="0.5" d="M56.33,261.3l2.82-1.33l1.31-2.45l2.24-1.26l3.86-6.77
		l5-2.21l8.83,8.45l7.1,3.18l3.6,3.38l6.54-0.44l5.6-15.39l-0.07-3.26l2.52-5.78l0.38-4.98l0.97-0.91l4.21-0.42l-3.3-11.71
		l1.18-6.54l4.61-4.51l3.27-5.65l-2.77-5.78l-2.21-9.06l1.17-1.26l3.37-0.34l3.06-1.53l2.51-3.66l4.66,3.3l0,0l2.22,1.15l1.33-1.28
		l1.93-0.26l4.65,1.79l5.8-1.49l2.89,0.88l2.3,1.94l6.31-1.53l-1.66,2.11l1.09,0.89l-0.28,3.1l-0.95,1.17l1.01,4.25l6.81,0.27
		l2.1,1.74l-0.21,4.02l-6.43,5.68l-0.44,1.44l1.15,0.95l2.84-1.24l5.26,1.88l0.91,1.88l-0.87,2.43l2.16,2.75l1.67-2.38l3.49-2.15
		l0.72-5.65l8.01-3.06h2.14l4.72,1.38L185.7,209l6.76,4.6l-0.15,4.66l9.21,5.85l7.07,0.55l4.21-0.99l4.5,1.75l0,0l5.06,2.29l0.23,3
		l-1.67,3.68l-2.43,0.49l-1.32,2.74l-1.94-1.09l-2.04,0.5l-2.89,3.93l-2.12,0.88l-1.07,3.6l-9.2,1.28l-3.31,1.84l-0.52,2.99
		l1.15,17.53l-2.39,2.89l-3.37,2.09l-4.53,6.02l-2.99,11.54l-6.69,6.34l-5.23,6.75l-6.37,4.95l0,0l-9.91-3.391l-16.22-1.649
		l-3.25,1.75l-18.02-1.2l-5.23,1.01l-0.9,1.66l-0.99-1.01l-1.44,1.29l0.09,1.47h-1.08l-0.18-1.84l-1.99-0.28l-2.16,2.3l-0.09-2.39
		l-4.69-2.12l0.9-2.03l-1.98-1.38l-0.45-5.43l-1.35-2.15l-0.27-2.64l-1.71,0.09l-1.17-1.2l2.7,0.09l-0.9-2.76l0.81-2.3l-1.71-2.86
		l-30.64-18.43l-1.9-2.4l-0.9,0.74L56.33,261.3z"/>
	<path id="SV-SS" fill="#1E3250" stroke="#1E3250" stroke-width="0.5" d="M277.49,137.69l1.45-1.78l1.43,0.52l3.3-0.87l0.59-1.77
		l1.44-0.61l5.66,0.95l3.07,2.12l1.12-0.17l3.01-1.17l5.04-3.89l2.23,1.23l-0.09,3.54l2.74,3.31l3.97-0.74l1.76-3.23l2.14-0.85
		l0.74-1.99l1.54-0.69l-0.38,1.81l0.89-0.32l0,0l-1.34,4.28l-2.4,2.91l-0.07,2.91l1.22,1.41l0.59,3.28l-0.53,5.7l-2.56,7.18
		l-2.9,1.98l-0.59,2.03l6.49,12.06l1.24,3.96l2.67,2.74l3.27,1.03l2.48,2.86l-5.72,5.08l-4.22,1.61l-0.76,2.05l2.31,1.06l1.47,4.84
		l4.97-0.53l2.63,1.69l2.85,6.77l4.36,6.44l9.11,1.82l0.46,3.88l4.32,6.42l9.21,20.42l-0.31,1.54l2.55-1.06l3.78,2.06l4.02-3
		l1.21,7.27l-6.39,2.98l1.13,3.37l0,0l2.21,1.93l-1.39,3.12l-2.98,0.02l-2.32,1.14l-5.3,4.4l-2.07-0.28l-5.11-3.02l-2.71,2.01
		l-4.99-1.66l-7.7,10.12l-12.44,0.95l-2.82,1.1l-0.39,1.09l2.2,5.82l3.76,4.76l1.26,8.07l-2.97,4.31l0.19,3.7l-1.7,3.8L316,315.07
		l-1.8,5.17l0,0l-5.47,0.08l-0.21,4.859l-1.08,0.91l-8.11-2.37l0.34-4.71l-2.48-2.359l-0.85-3.49l-4.38-8.38l0.73-4.01l1.91-2.99
		l0.61-4.95l-2.98-5.25l-0.25-2.62l1.72-7.53l2.41-2.9l-2.41-1.08l-3.16-0.03l-0.87-1.22l1.52-5.62l3.2-1.11l0.6-1.09l-4.34-3.88
		l-2.89-8.49l-10.12-3.87l1.05-1.8l-0.56-2.25l3.27-3.45l0.44-2.35l-5.48,1.55l-1.34-1.16l3.08-5.68l3.79-12.85l-0.74-4.78l2.6-5.21
		l3.04-10.89l2.15-14.27l1.87-1.49l0.21-3.36l3.02-2.07l0.44-2.27l-0.75-4.88l-7.34-1.2l-6.13-2.67l-0.66-1.96l2.44-1.17l0.16-1.17
		l-1.7-1.14l-1.13-2.97l-1.45,0.28l-1.97-1.98l-1.91,0.39l-2.82-4.75l0.23-3.53l1.71-0.86l1.02-6.13l1.76-0.85L277.49,137.69z"/>
	<path id="SV-SV" fill="#1E3250" stroke="#1E3250" stroke-width="0.5" d="M409.41,229.61l5.34-5.04l5.7-0.58l11.53,1.23l7.779-4.52
		l2.46-0.66l2.23,0.6l2.39-2.2l6.13,1.64l1.23-1.24l2.47,3.66l1.68-0.84l2.19,0.7l5.14-1.59l1.98,1.42h4.93l3.11-2.28l2.859,1.05
		l0.36,1.79l2.58,1.66l4.6,0.36l5.931,3.37l4.069-0.03l-0.54,3.82l2.511,1.88l0.96,2.92l5.88-0.06l1.3-0.75l4.71,0.59l5.78-1.66
		l2.39,1.9l0,0l1.61,7.48l4.92-0.95l1.08,2.1l-0.08,4.53l4.52,2.29l0,0l0.95,2.31l-2.84,4.93l-8.73,3.89l-1.949,2.78l-4.601,2.79
		l-3.2,3.93l-1.18,4.36l-3.09,2.28l-1.96,5.12l-4.36,1.78l-7.069,0.4l-6.29,1.87l-7.051,11.93l-3.689,0.31l-1.78,1.42l-0.7,2.23
		l0.7,4.22l-3.27,13.34l-0.24,7.351l-3.76,4.369l-3.57,9.46l-5.03,7.551l-5.04,10.27l0.19,3.95l0.97,1.96l2.11,1.34l-0.141,2.83
		l-4.279,1.69l-4.271,6.87l-6.979,6.369l-6.21,3.931l-4.15,1.22l-1.39,1.57l-0.431,2.09l2.07,2.12l8.43,3.41l1.21,2.949l0,0
		l-12.17-3.779l-6.67-3.67l-2.149-0.29l0,0l0.239-5.17l2.65-3.801l0.28-2.689l2.71-3.01l4.09-0.83l3.17-3.2l-0.2-1.98l-3.05-4.68
		l0.12-4.38l1.2-3.23l-1.36-2.979l5.08-2.8l0.61-4.091l2.439-4.13l-1.71-2.819l-2.939-1.32l-2.971-2.87l-1.199-3.479l-3.25-1.41
		l-1.011-1.38L422.53,322.3l1.27-2.04l2.41-13.069l-6.55-15.681l-1.21-4.05l0.609-3.34l-13.069,1.31l-6.65-2.18l2.2-8.6l-2.2-5.12
		l0.66-8.57l0,0l2.97-3.63l6.17-3.5l-2.56-10.21l2.36-2.38l0.04-2.68l1.85-1.55L409.41,229.61z"/>
	<path id="SV-UN" fill="#1E3250" stroke="#1E3250" stroke-width="0.5" d="M791.37,423.18l0.54,3.391l-1.351-2.301L791.37,423.18z
		 M780.55,409.27l0.271,0.73l4.609,0.53l2.33,6.47l0.521,3.01l-0.61,1.221l1.07,1.09l-0.08,1.489l1.17,0.641l-0.38,1.38l-1.96,1.1
		l-1.71-0.55l-1.17,1.66l-0.63-0.64l0.63-1.381l-1.511-1.029l-4.159,1.58l0.439-4.41l-1.71-0.92l-0.45-1.84l-0.09-2.761l1.08-1.59
		l-0.72-2.91l1.8-2.479L780.55,409.27z M764.5,398.89l2.88,0.83l1.36,1.36l0.27,2.21l1.53,0.37l-0.54,3.31l-1.439-0.46l-0.631,2.94
		l-1.35,1.1l-4.32-1.84l-1.8-5.89l0.9-0.92l-0.271-1.931L764.5,398.89z M773.26,385.43l1.71,0.66l0.811,2.021l-3.601,1.47
		l-0.979-1.48L773.26,385.43z M772.71,375.69l0.36,1.47l-3.34,2.12l0.279,0.989l-0.99,0.761l1.171,3.04l-1.98,1.1l-4.06-0.21
		l0.81-1.63l-0.63-6.53l1.89-1.01l0.561,1.37l1.43-0.82l1.62,0.92L772.71,375.69z M738.65,351.9l0.26,2.159l-1.25,2.021l-2.07,0.189
		l-2.35,2.301l-0.86-2.07l1.69-3.73l3.41,0.101L738.65,351.9z M727.31,183.29l3.051,2.14l7.71,0.69l6.64,2.3l3.13,0.16l6.49-1.9
		l8.07,6.43l8.01,3.75l0.99,2l0.689,6.59l1.24,1.76l4.04,3.21l2.979,0.39l3.051,1.91l-0.25,11.54l-3.44,5.57l-2.75,2.59l-1.37,3.09
		l0.141,2.14l2,1.58l0.25,1.79l-1.971,5.17l-5.3,5.27l-1.29,2.42l-0.45,3.18l0.98,7.29l-1.57,8.86l-0.07,9.3l-5.77,7.09l-0.71,3.18
		l-3.08,1.14l1.78,1.77l-2.24,2.86l-0.51,5.37l1.42,3.07l-2.07,2.62l0.13,1.09l2.44,1.46l0.479,2.27l1.82-0.399l3.45,1.399
		l3.96-2.99l1.52,2.45l2.59-1.109l5.961,2.189l-0.811,4.9l2.141,7.97l-1.681,6.7l-0.71,0.85l-4.79-0.12l-3.189,2.771l-2.141-0.93
		l-4.77,3.46l-0.75,1.66l-4.181,0.26l-2.729,4.17l-5.47,0.21l-1.98-2.021l-7.3-2.21l-0.81-1.01l2.159-4.88l-0.449-3.77l5.239,1.109
		l3.771-6.17l-3.33,1.66l0.27,2.59l-0.909,1.46l-1.771-0.229l-2.37-1.33l-1.62,0.649l-0.08,3.04l-5.689,6.63l-3.8,7l-0.25,4.42
		l-2.351-0.64l3.15,3.96l0.09,4.88l3.33,2.21l1.9-0.489l-0.36,1.6l0.81,1.189l1.7,0.091l1.09,1.569l5.74,1.38l1.57,1.94l1.689-0.01
		l0.631,1.01l-0.9,0.92l0.99,1.93l3.25,1.181l2.34,2.689l1.82,0.16l3.05,4.53l-2.521-0.18l-1.8,5.8l-5.59,4.689l-0.09,1.561
		l-2.25,2.58l-2.07,0.189l-4.51,4.601l-6.761,0.8l-1.789,2.78l-2.98,1.01l-2.88,2.85l-0.36-1.21l-0.989-0.08l-3.051,1.21
		l-2.71,2.471l-2.25-0.551l-5.319,4.32l-1.17,2.39l-1.62,0.28l3.149,0.28l4.15-5.15l-0.99,3.771l0.271,4.14l1.26,1.29l4.16,1.1
		l1.34,3.04l-1.08,1.931l-4.69,0.18l-2.51-1.939l-1.359,0.38l0.449,1.47l-2.52-1.91l-3.25-0.75l-3.24,0.92l-4.42-1.01l-0.27,1.47
		h-1.53l-1.53-1.2l0.09-1.47l-1.53-0.09l0.45,1.1l-0.72,0.181l-27.31-2.67l0.659-1.46l1.521-0.11l-1.28-0.72l-2.7,2.3l-7.5-1.01l0,0
		l1.17-9.9l5.74-14.51l12.101,0.67l1.029-0.811l-0.67-14.43l-2.21-6.46l3.63-11.14l-1.72-3.801l-2.77-2.539l3.279-1.83l4.11-11.391
		l-5.82-2.71l-1.96-3.59l-0.99-5.37l2.351-13.689l6.18-1.96l0.521-1.08L680.8,308.14l-1.579-3.37l0.68-5.97l1.29-2.12l0,0l8.12-4.11
		l2.909-4.1l3.11-8.46l-0.46-3.6l9.271-20.08l4.369-12.64l0.631-6.88l-1.49-3.26l-0.63-4.76l-0.851-0.69l-4.59,0.59l-0.71-1.04
		l2.65-11.79l-1.92-20.01l0.47-3.75l2.54-6.4l0,0l0.76,0.6l2.44-0.84l4.5,2.21l5.729-3.89l6.64,0.77L727.31,183.29z"/>
	<path id="SV-US" fill="#1E3250" stroke="#1E3250" stroke-width="0.5" d="M538.84,412.68l1.08,0.92l-0.18,1.66l-2.521-0.74
		L538.84,412.68z M527.22,404.4l1,0.54l1.34,1.76l3.25-2.021l4.24,5.24l2.16-0.18l1.35-1.75l2.25,0.18l-0.359,1.1l0.989,1.471
		l-5.05,1.1l-2.35-0.55l-0.54,0.64l0.72,1.66l-6.67-3.399l-6.22,0.92L519,410.1l-1.98-1.38l0.99-2.76L527.22,404.4z M479.36,400.72
		l0.54,0.641l-0.721,0.46l-1.529-0.46L479.36,400.72z M463.32,395.48l2.069,1.1l-0.72,2.12l-1.17-0.641L463.32,395.48z
		 M466.93,395.02l2.98,0.25l0.54,1.221l3.33,1.47l2.79-0.74l1.35,0.83l-6.06,1.66l-1.601-2.85l-3.88-0.28l-0.54-1.1L466.93,395.02z
		 M475.22,394.46l-0.09,1.29l-1.26,0.18L475.22,394.46z M533,394.69l1.5,0.1l1.01,4.09l4.78,3.68l2.34,3.311l-0.72,1.01l-2.61,0.46
		l-0.54,1.561l-2.159-0.091l-1.171-2.85l-2.729-1.71l-3.13,1.94l-1.44-2.16l2.44-4.931l-0.03-3.949L533,394.69z M491.89,394
		l0.45,1.01l-1.26,0.55l-0.63-1.189L491.89,394z M509.02,392.9l1.62,0.739l0.811,2.391l5.41,5.52l-0.99,2.21l-7.21-5.149
		l-1.98-3.771L509.02,392.9z M531.14,252.2l4.19,0.18l1.83,1.48l3.72-0.26l1.84-1.45l2.37,1.27l4.09,5.39l2,0.53l3.181,3.9
		l1.83-0.07l3.46,1.9l2.42-0.34l2.76-2.12l2.6,0.86l1.42,7.61l-1.22,5.67l3.59,3.72l-1.09,3.21l0.78,3.36l-0.97,0.74l-2.08-2.36
		l-2.49,0.12l0.71,6l-1.71,4.8l5.19,3.2l1.09,16.05l-0.721,2.43l-3.14,3.021l0.45,5.83l-1.771,0.76l-3.859-0.28l-0.7,7.38
		l0.94,0.641l3.739-0.8l1.15,4.869l1.84,1.57l0.1,2.811l-1.51,3.59l0.75,6.41l-1.34,4.359l1.23,1.84l3.47,1.551l2.819,3.369
		l1.141,0.24l0.72,5.21l11.05,1.04l6.561-0.39l-0.391,3.28l2.771,7.85l-0.89,1.46l-5.66,2.6l-2.931,3.421l1.391,2.93v6.21l2.39,1.18
		l8.65-2.359l0.18-0.9l-3.439-4.81l-0.091-2.471l1.891-7.05l2.319,0.44l0.721-2.591l0.979,0.631l0.38-1.381l3.61,1.07l0.5,0.44
		l-1.11,0.59l1.95,1.71l3.94-1.03l1.04,1.07l2.72-2.21l1.109,1.609l-2.02,6.28l3.68-0.149l3.521,3.01l1.85,3.08l-5.27,5.09
		l-0.88,2.95l0.689,1.39l2.99,1.69l4.03-2.4l12.22,1.48l2.14,4.88l11.67,16l0,0l-1.35,0.05l-0.72,1.2l-1.62-1.011l-5.86-0.729
		l-2.35,0.64l-1.62-0.83l-1.53,1.29l-6.67-0.92l-0.9,1.38l-2.609-0.92l-1.891,1.66l-1.439,0.641l-3.061,0.369h-2.25l-1.439-1.1
		l-5.23-0.74l-1.71-1.38l-4.149,0.83l-11.271-2l-16.49-0.85l-1.17-0.73l0.181-0.92l7.18-2.69l2.1,3.15l0.271-1.84l-1.351-1.84
		l-2.89,0.18l1.17-1.93l2.61-0.09l-2.43-0.461l-0.45-2.21l-4.41-2.479l-1.53-5.34l-1.17-0.83l0.18,1.64l0.54,0.84l0.181,2.391
		l1.71,2.479l3.6,1.66l0.54,1.84l-4.05,2.391l-2.61-2.021l-4.54-1.28l-1.85-1.01l-1.08-2.569l0.63,2.67l5.23,3.399l-0.271,0.74
		l-2.61,0.37l-1.529,1.29l-7.75-0.18l-3.25,2.67l2.979-1.381l1.8,0.74l1.62-0.64l2.261,1.84l1.35-0.92l0.99,1.47l1.89-1.47
		l0.18,1.29l-1.8,1.01l-6.939,0.28l-3.881,1.38l-6.13-0.09l-3.96-2.94l-3.34-5.149l1.53-4.141l2.26-0.83l5.86,3.4l4.51-0.18
		l-5.18-0.7l-3.65-2.25l0.09-1.01l4.42-0.46l1.08-1.101l-7.03,0.83l-1.079-3.03l-4.69-5.89l-6.58-5.15l-1.07-3.5l-4.609,0.471
		l-0.36,5.239l-2.61,3.86l-7.21,0.37l-4.05-5.61l-4.24-3.68l-0.18-1.66l-2.16-1.01l-5.5-0.46l-1.17-1.47l-2.79,0.92l-1.17-0.92
		l-1.62,0.46l-0.899-1.2h-4.601l-0.3-0.681l2.37-0.789l-1.62-2.57l-0.81,1.1l1.52,0.391l0.37,0.869l-4.59,1.591l-0.99-3.13
		l-2.439-1.301l-1.881-2.93l-1.529-0.74l4.779,6.07l-1.8,0.74l-1.97-0.94l-0.561,2.32l-1.8-0.46l-0.45-2.021l-3.119-0.04
		l-0.57-1.619l-1.35,0.829l1.209-0.329l0.141,1.439l3.06,0.46l0.54,1.561l1.62,0.64l2.8-0.46l-3.06,4.51l-6.94-0.74l-2.069,1.2
		l-2.431-1.47l-2.88-0.37l-1.89,1.56l0.27,1.101l-0.899,0.09l-2.07-1.29l-5.05-0.55l0.09,0.74l1.44,0.46l1.489-0.45l1.03,0.729
		l-0.09,1.29l-0.72,0.551l0.81,2.67l1.351-1.65l3.06,1.47l2.52-1.84l1.171,2.12l3.25,1.93l1.979-0.09l1.62-1.29l1.81,2.21
		l1.17,0.181l1.171-1.011l-0.271-1.47l2.8-1.19L484.2,397l1.529,0.64l1.98-1.189l2.43,0.46l6.49-2.3l1.979,1.93l2.25,0.28
		l0.721,2.67l2.43,1.2l8.2,9.38l-1.26,0.54l-2.971-1.36l-6.13,0.83l-4.87-3.4l-2.159,0.181l-2.16,1.47l3.88-1.29l3.239,3.04
		l2.16,0.83h4.42l5.141,1.75l4.32-0.37l5.14,4.51l2.16-0.64l6.939,1.66l1.08,1.1l-1.08,0.09l0.181,0.92l2.609,3.221l1.17-0.181
		v-1.75l3.15-1.01l0.54,3.311l1.17,1.01h-4.42l-10.72-3.771l-33.98-7.729l-24.78-4.69l-13.52-1.47l-10.91-3.4l0,0l-1.21-2.949
		l-8.43-3.4l-2.07-2.13l0.42-2.08l1.4-1.58l4.149-1.22l6.21-3.931l6.99-6.369l4.27-6.86l4.271-1.7l0.14-2.83l-2.109-1.33
		l-0.971-1.96l-0.18-3.95l5.03-10.27l5.03-7.55l3.569-9.46l3.771-4.37l0.24-7.351l3.27-13.34l-0.7-4.22l0.7-2.22l1.78-1.42
		l3.689-0.31l7.05-11.93l6.29-1.87l7.07-0.4l4.36-1.78l1.96-5.11l3.09-2.29l1.18-4.36l3.2-3.93l4.6-2.79l1.95-2.78l8.73-3.89
		l2.84-4.94L531.14,252.2z"/>
</g>
</svg>
