<?xml version="1.0" encoding="utf-8"?>
<!-- Generator: Adobe Illustrator 15.0.0, SVG Export Plug-In . SVG Version: 6.00 Build 0)  -->
<!DOCTYPE svg PUBLIC "-//W3C//DTD SVG 1.1//EN" "http://www.w3.org/Graphics/SVG/1.1/DTD/svg11.dtd">
<svg version="1.1" id="Layer_1" xmlns:amcharts="http://amcharts.com/ammap"
	 xmlns="http://www.w3.org/2000/svg" xmlns:xlink="http://www.w3.org/1999/xlink" x="0px" y="0px" width="247.293px"
	 height="254.307px" viewBox="0 0 247.293 254.307" enable-background="new 0 0 247.293 254.307" xml:space="preserve">
<defs>
	
	
		<amcharts:ammap  projection="mercator" leftLongitude="-92.234204" topLatitude="17.815697" rightLongitude="-88.230725" bottomLatitude="13.740021">
		</amcharts:ammap>
</defs>
<g>
	<path id="GT-QC" fill="#1E3250" stroke="#1E3250" stroke-width="0.5" d="M114.296,151.232l1.291-3.511l-11.086-3.238l5.206-6.724
		l-2.821-6.571l-8.072-4.923l4.216-6.012l-1.526-5.206l6.365-3.868l8.126,1.769l1.042-3.514l-26.925,0.481l-10.601,21.173
		l-4.712,2.531l-1.193,5.337l7.168,5.913l0.261,4.829l-6.712,1.486l6.521,17.982l4.705,4.3l5.432-5.727l15.742,1.77l-10.556-12.471
		l0.308-5.533l14.347,2.394L114.296,151.232z"/>
	<path id="GT-ZA" fill="#1E3250" stroke="#1E3250" stroke-width="0.5" d="M181.131,160.977l-3.102-11.553l-19.486,6.009
		l-13.421,1.025l5.585,11.518l-3.419,2.93l4.809,4.926l3.248-6.176l23.701-0.613L181.131,160.977z"/>
	<path id="GT-JU" fill="#1E3250" stroke="#1E3250" stroke-width="0.5" d="M134.532,229.242l-0.953-5.04l4.401-5.513l9.216-6.201
		l4.345,1.089l2.849-6.722l8.144-3.139l-3.255-7.839l4.65-1.878l-0.836-5.129l-8.489-2.742l-9.841,7.181l-8.206,0.151l-6.856,9.181
		l6.538,4.226l-0.067,5.087l-4.779,4.712l-6.649-1.672l2.519,11.215L134.532,229.242z"/>
	<path id="GT-JA" fill="#1E3250" stroke="#1E3250" stroke-width="0.5" d="M147.288,170.906l-18.476,10.3l-3.75,8.144l7.744-0.241
		l3.75,4.353l8.206-0.151l9.841-7.181l0.911-9.28l-3.417-1.017L147.288,170.906z"/>
	<path id="GT-CQ" fill="#1E3250" stroke="#1E3250" stroke-width="0.5" d="M179.046,169.043l-23.701,0.613l-3.248,6.176l3.417,1.017
		l-0.911,9.28l8.489,2.742l0.836,5.129l6.628,0.377l5.709-8.012l4.201-0.422l0.784-6.466l-4.332-7.144L179.046,169.043z"/>
	<path id="GT-IZ" fill="#1E3250" stroke="#1E3250" stroke-width="0.5" d="M181.131,160.977l8.546-3.526l37.066-29.905L207.8,115.052
		l5.744,6.293l-3.39-0.315l-2.541,7.719l-8.771-8.034l-22.102-2.429l-7.895,2.315l-13.055,15.372l3.605,4.072l-2.911,8.967
		l2.057,6.421l19.486-6.009L181.131,160.977z"/>
	<path id="GT-SR" fill="#1E3250" stroke="#1E3250" stroke-width="0.5" d="M136.557,193.462l-3.75-4.353l-7.744,0.241l-5.077,0.906
		l-2.737,8.541l-5.965,3.677l-1.097,2.226l3.521,0.503l-5.486,7.449l-0.01,6.863l19.049,6.694l-2.519-11.215l6.649,1.672
		l4.779-4.712l0.067-5.087l-6.538-4.226L136.557,193.462z"/>
	<path id="GT-PR" fill="#1E3250" stroke="#1E3250" stroke-width="0.5" d="M147.288,170.906l3.419-2.93l-5.585-11.518l-4.68,0.168
		l-16.275,13.615l-4.754-0.484l3.007,7.545l6.392,3.903L147.288,170.906z"/>
	<path id="GT-TO" fill="#1E3250" stroke="#1E3250" stroke-width="0.5" d="M74.322,151.185L64.3,156.654l-3.446,3.295l7.905,13.958
		l12.084-4.739L74.322,151.185z"/>
	<path id="GT-SO" fill="#1E3250" stroke="#1E3250" stroke-width="0.5" d="M85.548,173.467l-4.705-4.3l-12.084,4.739l-2.04,3.978
		l0.385,6.28l4.521-2.131l12.607,6.499L85.548,173.467z"/>
	<path id="GT-SA" fill="#1E3250" stroke="#1E3250" stroke-width="0.5" d="M107.071,191.67l1.593-8.987l-7.246-6.751l-6.171,14.692
		l3.464,4.292L107.071,191.67z"/>
	<path id="GT-SU" fill="#1E3250" stroke="#1E3250" stroke-width="0.5" d="M84.233,188.531l-12.607-6.499l-4.521,2.131l-0.385-6.28
		l-2.01,1.355l-4.819,8.95l-2.471,21.342l6.409,3.566l5.623-15.66l11.978,4.233l2.942-8.052L84.233,188.531z"/>
	<path id="GT-GU" fill="#1E3250" stroke="#1E3250" stroke-width="0.5" d="M119.413,169.758l-12.692-0.248l-5.303,6.421l7.246,6.751
		l-1.593,8.987l4.213,10.804l5.965-3.677l2.737-8.541l5.077-0.906l3.75-8.144l-6.392-3.903L119.413,169.758z"/>
	<path id="GT-ES" fill="#1E3250" stroke="#1E3250" stroke-width="0.5" d="M107.071,191.67l-8.359,3.246l-3.464-4.292l-4.333,5.414
		l-6.543-2.419l-2.942,8.052l-11.978-4.233l-5.623,15.66l17.863,6.111l26.521,0.308l0.01-6.863l5.486-7.449l-3.521-0.503
		l1.097-2.226L107.071,191.67z"/>
	<path id="GT-CM" fill="#1E3250" stroke="#1E3250" stroke-width="0.5" d="M106.721,169.51l-15.742-1.77l-5.432,5.727l-1.315,15.064
		l0.139,5.087l6.543,2.419l4.333-5.414l6.171-14.692L106.721,169.51z"/>
	<path id="GT-AV" fill="#1E3250" stroke="#1E3250" stroke-width="0.5" d="M168.846,120.6l-22.441-2.568l-5.854-5.243l-23.498-3.377
		l-0.017,0.022l-1.042,3.514l-8.126-1.769l-6.365,3.868l1.526,5.206l-4.216,6.012l8.072,4.923l2.821,6.571l-5.206,6.724
		l11.086,3.238l-1.291,3.511l9.533,2.816l3.027-4.526l14.779,0.402l-1.193,6.702l4.68-0.168l13.421-1.025l-2.057-6.421l2.911-8.967
		l-3.605-4.072L168.846,120.6z"/>
	<path id="GT-SM" fill="#1E3250" stroke="#1E3250" stroke-width="0.5" d="M59.509,153.341l-4.908-6.598l-16.171,3.573l-3.05-8.905
		l-5.188,9.317l6.771,10.124l-3.96,3.967l-0.325,15.92l-4.208,6.985l4.131,2.998l7.178-2.219l-5.975-5.345l15.062-5.221
		L59.509,153.341z"/>
	<path id="GT-RE" fill="#1E3250" stroke="#1E3250" stroke-width="0.5" d="M64.71,179.239l-8.047,2.573l-1.008-3.926l-7.953,11
		l-7.923-0.382l-7.178,2.219l24.818,18.808l2.471-21.342L64.71,179.239z"/>
	<path id="GT-QZ" fill="#1E3250" stroke="#1E3250" stroke-width="0.5" d="M64.3,156.654l-4.792-3.312l-10.642,24.597l-15.062,5.221
		l5.975,5.345l7.923,0.382l7.953-11l1.008,3.926l8.047-2.573l2.01-1.355l2.04-3.978l-7.905-13.958L64.3,156.654z"/>
	<path id="GT-PE" fill="#1E3250" stroke="#1E3250" stroke-width="0.5" d="M91.716,20L90.25,49.138l-21.982-0.089l7.819,3.794
		L87.151,66.86l15.742,8.307l5.035,13.531l11.731,3.295l-2.605,17.419l23.498,3.377l5.854,5.243l22.441,2.568l7.895-2.315
		l3.72-98.196L91.716,20z"/>
	<path id="GT-HU" fill="#1E3250" stroke="#1E3250" stroke-width="0.5" d="M74.322,151.185l6.712-1.486l-0.261-4.829l-7.168-5.913
		l1.193-5.337l4.712-2.531l10.601-21.173l-36.699,0.454L35.38,141.411l3.05,8.905l16.171-3.573l4.908,6.598l4.792,3.312
		L74.322,151.185z"/>
	<path id="GT-BV" fill="#1E3250" stroke="#1E3250" stroke-width="0.5" d="M140.442,156.626l1.193-6.702l-14.779-0.402l-3.027,4.526
		l-9.533-2.816l-3.476,2.667l-14.347-2.394l-0.308,5.533l10.556,12.471l12.692,0.248l4.754,0.484L140.442,156.626z"/>
</g>
</svg>
