<?xml version="1.0" encoding="utf-8"?>
<!-- Generator: Adobe Illustrator 15.0.0, SVG Export Plug-In . SVG Version: 6.00 Build 0)  -->
<!DOCTYPE svg PUBLIC "-//W3C//DTD SVG 1.1//EN" "http://www.w3.org/Graphics/SVG/1.1/DTD/svg11.dtd">
<svg version="1.1" id="Layer_1" xmlns:amcharts="http://amcharts.com/ammap"
	 xmlns="http://www.w3.org/2000/svg" xmlns:xlink="http://www.w3.org/1999/xlink" x="0px" y="0px" width="913.359px"
	 height="1271.408px" viewBox="0 0 913.359 1271.408" enable-background="new 0 0 913.359 1271.408" xml:space="preserve">
<defs>
	
	
		<amcharts:ammap  projection="mercator" leftLongitude="-61.414905" topLatitude="8.546628" bottomLatitude="1.164724" rightLongitude="-56.491120">
		</amcharts:ammap>
</defs>
<g>
	<path id="GY-CU" fill="#1E3250" stroke="#1E3250" stroke-width="0.5" d="M468.26,259.41l7.8-60.28l-50.27-52.44l-51.31,39.98
		l-9.47,71.66l52.181,44.28L468.26,259.41z"/>
	<path id="GY-ES" fill="#1E3250" stroke="#1E3250" stroke-width="0.5" d="M630.75,373.97l-63.99-71.18l-34.37,103.59l71.931,33.49
		L630.75,373.97z"/>
	<path id="GY-DE" fill="#1E3250" stroke="#1E3250" stroke-width="0.5" d="M462.04,298.67l11.33-23.03l-11.09,10.45L462.04,298.67z
		 M510.76,397.88L524.51,286l-42.479-6.96l-23.78,64.33l49.84,58.76L510.76,397.88z M481.03,271.35l17.47-9.91l-13.88-1.12
		L481.03,271.35z M453.32,336.05l2.229-48.89l12.71-27.75l-51.069,43.2l2.43,28.73l32.79,8.24L453.32,336.05z M475.3,268.59
		l6.92-16.76l-11.12,19.99L475.3,268.59z"/>
	<path id="GY-EB" fill="#1E3250" stroke="#1E3250" stroke-width="0.5" d="M566.76,302.79L524.51,286l-13.75,111.88l-2.67,4.25
		l24.3,4.25L566.76,302.79z"/>
	<path id="GY-PM" fill="#1E3250" stroke="#1E3250" stroke-width="0.5" d="M313.24,257.77l-58.38-33.55l-84.01,6.51l-4.73,35.09
		L43.74,302.3l1.34,86.61L0.33,428.34l106.83,121.48l105.9,7.64l138.05-89.77l26.43,31.79l37.83,15.569l36.11-27.14l3.369-136.62
		l-2.439-11.71l-32.79-8.24l-2.43-28.73l-52.181-44.28L313.24,257.77z"/>
	<path id="GY-BA" fill="#1E3250" stroke="#1E3250" stroke-width="0.5" d="M224.07,0l31.18,51.44L108.67,169.6l18.37,56.59
		l43.81,4.54l84.01-6.51l58.38,33.55l51.77,0.56l9.47-71.66l51.31-39.98L224.07,0z"/>
	<path id="GY-UT" fill="#1E3250" stroke="#1E3250" stroke-width="0.5" d="M414.19,1203.7l54.17-12.78l2.79-30.34l93.17-233.061
		L481.21,705l-71.67,40.87L349.6,721.5l-35.84-8.17l0.52-49.061l-35.91,21.12l25.94,70.44l-54.52,58.32l-22.32,144.58l42.03,70.039
		l-2.78,65.37L414.19,1203.7z"/>
	<path id="GY-UD" fill="#1E3250" stroke="#1E3250" stroke-width="0.5" d="M508.09,402.13l-49.84-58.76l-3.4,7.92l-3.369,136.62
		l-36.11,27.14l8.21,106l83.29,21.47l35.149-3.22l59.79-113.189l2.511-86.24l-71.931-33.49L508.09,402.13z"/>
	<path id="GY-PT" fill="#1E3250" stroke="#1E3250" stroke-width="0.5" d="M377.54,499.48l-26.43-31.79l-138.05,89.77l17.44,15.99
		l-29.03,86.439l76.9,25.5l35.91-21.12l-0.52,49.061l35.84,8.17l59.94,24.37L481.21,705l25.66-62.48l-83.29-21.47l-8.21-106
		L377.54,499.48z"/>
	<path id="GY-MA" fill="#1E3250" stroke="#1E3250" stroke-width="0.5" d="M675.11,503.63l13.069-98.11l-57.43-31.55l-26.43,65.9
		l-2.511,86.24L542.02,639.3l-35.149,3.22L481.21,705l83.11,222.52l-93.17,233.061l152.979-41.52l39.311-43.641l136.229,5.78
		l-36.33-14.32L682.5,933.95l-17.26-89.37l-56.351,0.78l-62.96-103.15l20.08-131.59l103.771-32.05L675.11,503.63z"/>
</g>
</svg>
