<?xml version="1.0" encoding="utf-8"?>
<!-- Generator: Adobe Illustrator 15.0.0, SVG Export Plug-In . SVG Version: 6.00 Build 0)  -->
<!DOCTYPE svg PUBLIC "-//W3C//DTD SVG 1.1//EN" "http://www.w3.org/Graphics/SVG/1.1/DTD/svg11.dtd">
<svg version="1.1" id="Layer_1" xmlns:amcharts="http://amcharts.com/ammap"
	 xmlns="http://www.w3.org/2000/svg" xmlns:xlink="http://www.w3.org/1999/xlink" x="0px" y="0px" width="340.302px"
	 height="290.31px" viewBox="0 0 340.302 290.31" enable-background="new 0 0 340.302 290.31" xml:space="preserve">
<defs>
	
	
		<amcharts:ammap  projection="mercator" leftLongitude="-74.480910" topLatitude="20.089566" rightLongitude="-71.621754" bottomLatitude="18.020528">
		</amcharts:ammap>
</defs>
<g>
	<path id="HT-SE" fill="#1E3250" stroke="#1E3250" stroke-width="0.5" d="M224.879,216.328l-64.599,6.362l-1.615,11.769l0.483,4.603
		l102.727-6.524l32.423,22.892l6.049-29.413L224.879,216.328z"/>
	<path id="HT-OU" fill="#1E3250" stroke="#1E3250" stroke-width="0.5" d="M179.729,178.966l-2.814-14.648l-49.382-12.689
		L179.729,178.966z M210.938,148.858l-18.656,1.875l41.212,30.247l-2.566,17.732l-77.037,8.29l6.389,15.688l64.599-6.362
		l75.467,9.689l-31.677-35.256l23.924-9.481l-62.914-21.593L210.938,148.858z"/>
	<path id="HT-ND" fill="#1E3250" stroke="#1E3250" stroke-width="0.5" d="M264.491,61.459l-56.753-19.085l-12.113,8.043
		l21.195,30.726l17.025-2.574l13.953,30.626l24.268-3.934L257.6,78.454L264.491,61.459z"/>
	<path id="HT-NE" fill="#1E3250" stroke="#1E3250" stroke-width="0.5" d="M296.362,61.684l-31.871-0.224L257.6,78.454l14.467,26.808
		l15.495,6.818l9.67-0.302L296.362,61.684z"/>
	<path id="HT-CE" fill="#1E3250" stroke="#1E3250" stroke-width="0.5" d="M287.562,112.079l-15.495-6.818l-24.268,3.934
		l-5.199,49.317l-12.92,1.175l62.914,21.593l7.003-21.25l-15.081-11.641l24.828-28.755l-12.113-7.857L287.562,112.079z"/>
	<path id="HT-AR" fill="#1E3250" stroke="#1E3250" stroke-width="0.5" d="M195.625,50.417l-48.849,20.705l46.263,21.334
		l-11.436,24.875l10.555,13.16l-12.198,4.654l12.321,15.587l18.656-1.875l18.741,10.83l12.92-1.175l5.199-49.317l-13.953-30.626
		l-17.025,2.574L195.625,50.417z"/>
	<path id="HT-SD" fill="#1E3250" stroke="#1E3250" stroke-width="0.5" d="M83.858,247.627l2.965,5.047l9.794-0.44L83.858,247.627z
		 M64.217,256.938l24.902-26.846l70.029,8.971l-0.483-4.603l-11.348-15.506l-51.129-6.667l-22.181-1.38L0.65,218.272L64.217,256.938
		z"/>
	<path id="HT-NO" fill="#1E3250" stroke="#1E3250" stroke-width="0.5" d="M184.603,34.416l-42.905,0.727l-33.03,24.828
		l38.108,11.151l48.849-20.705l12.113-8.043L184.603,34.416z M186.095,20l-21.713,0.719l35.268,8.917L186.095,20z"/>
	<path id="HT-NI" fill="#1E3250" stroke="#1E3250" stroke-width="0.5" d="M153.892,207.002l-74.98-9.875l-4.905,13.778l22.181,1.38
		l51.129,6.667l11.348,15.506l1.615-11.769L153.892,207.002z"/>
	<path id="HT-GA" fill="#1E3250" stroke="#1E3250" stroke-width="0.5" d="M81.628,190.472l-8.986-3.166l2.96,4.666L81.628,190.472z
		 M32.76,183.774l-28.365,4.823L0.65,218.272l73.357-7.367l4.905-13.778L32.76,183.774z"/>
</g>
</svg>
