<?xml version="1.0" encoding="utf-8"?>
<!-- Generator: Adobe Illustrator 15.0.0, SVG Export Plug-In . SVG Version: 6.00 Build 0)  -->
<!DOCTYPE svg PUBLIC "-//W3C//DTD SVG 1.1//EN" "http://www.w3.org/Graphics/SVG/1.1/DTD/svg11.dtd">
<svg version="1.1" id="Layer_1" xmlns:amcharts="http://amcharts.com/ammap"
	 xmlns="http://www.w3.org/2000/svg" xmlns:xlink="http://www.w3.org/1999/xlink" x="0px" y="0px" width="742.5px" height="459px"
	 viewBox="0 81.5 742.5 459" enable-background="new 0 81.5 742.5 459" xml:space="preserve">
<defs>
	
	
		<amcharts:ammap  projection="mercator" leftLongitude="-89.350244" topLatitude="16.517355" bottomLatitude="12.984061" rightLongitude="-83.126949">
		</amcharts:ammap>
</defs>
<g>
	<path id="HN-AT" fill="#1E3250" stroke="#1E3250" stroke-width="0.5" d="M199.48,176.39l-3.14,2.39l1.3,3.54l7.76,7.85l3.39,2.09
		l4.31,1.37l4.34-0.92l1.46-3.01l4.28-0.52l2.03-3.44l17.99,5.33l19.04,3.11l4.43,0.03l5.58,1.77l6.46,0.72l2.69-1.01l5.92-0.42
		l5.99-3.76l0.35,1.08l1.01-1.05l5.23,1.21l5.16,0.13l4.56-1.18l12.58-1.08l1.55-0.82l0,0l1.27,1.9l3.64,2.33l-1,0.95l1,5.06
		l3.54,1.26l1.3,1.42l0.35,3.16l2.72,0.32l0.65,0.75l0.04,8.02l-5.68,1.64l-1.31,1.49l0,0l-5.49-1.85l-5.59,1.43l-1.43-1.28
		l-4.5,0.72l-7.51-1.99l-14.4,6.81l-4.07-0.64l-0.97-0.86l-2.15,1.58l-2.74-0.74l-0.29-2.03l-0.78-0.15l-4.36,1.4l-1.29-0.52
		l-2.34,1.73l-5.22,0.01l-1.35-0.94l-2.77,3.33l-3.83,2.33l-0.74,2.68l-2.89,1.69l-1.92,0.12l-1.67,1.88l-5.02-0.21l-2.93,4.61
		l-1.58-0.77l-2.79,0.42l-3.47-1.55l-2.69-0.14l-1.87-1.3l-2.52,0.83l-1.09-1.43l-1.93-0.52l-3.96,2.19l-1.09-1.79l-0.89,0.4
		l-0.06-0.8l-2.42-1.08l-0.21-1.72l-1.3-0.81l0.67-0.69l-0.88-0.97l0.62-3.8l-1.54-0.17l-1.19-1.54l-5.98,3.51l-1.37-1.06
		l-5.34,1.65l-5.72-0.11l-1.76-2.72l-2.73-1.98l-0.92-2.06l-0.94-9.55l-1.37-1.01l-0.25-1.41l-2.5-0.39l-2.03-1.38l-1.12-1.91
		l-2.8-0.44l-0.21-2.11l0,0l-0.08-1.11l2.17-0.65l-1.97-4.26l-1.4,1.5l0.56-1.7l-0.95-1.56l-1.24-0.06l0.52-2.62l1.62,0.38
		l-0.22-2.27l1.54,0.63l-0.21-2.52l0.67-0.52l-0.76-1.49l2.55-2.94l1.13,0.45l1.06-0.69l1-4.27l0,0l2.02,0.23l6.56,3.24l0.98-0.59
		l-0.6,1.57l1.36,0.85l0.67-0.36l-0.51-3.34L199.48,176.39z"/>
	<path id="HN-CH" fill="#1E3250" stroke="#1E3250" stroke-width="0.5" d="M215,479.24l1.9,1l0.42,1.939l-1.53,2.101l-0.51,1.93
		l-0.79,0.04l-0.76-3.49l1.05-1.1L215,479.24z M215.44,440.79l-0.73-1.76l1.66-5.21l-0.71-2.91l1.93-0.79l4.54,1.29l2.21-0.36
		l-1.48,2.75l-0.05,2.01l0.8-0.119l1.04,2.069l1.81,0.601l0.23,1.609l5.38-0.6l3.57,1.28l3.27-1.011l4.82,2.24l0,0l-1.3,6.021
		l2.72,0.189l1.77,2.5l0.09,3.44l1.82,1.649l6.67-0.67l-0.42,2.36l0.89,2.28l2.6,1.47l0.3-1l1.59,1.01l1.78-2.14l2.84-0.37
		l0.12-1.771l1.86-1.39l0.37-2.72l1.52-1.181l1.89-0.04l3.77-3.6l1.07-2.12l0.14-3.02l0.78,1.25l4.03-0.65l0.37,0.97l3.9-1.859
		l1.28-1.71l2.26-0.11l1.53,0.88l1.74-3.37l0.51,0.641l2.02-0.511l0,0l-1.63,4.271l3.83,2.42l-1.92,7.34l1.96,1.21l0.61,1.391
		l0.96,8.439l1.74,5.15l-2.37,4.8l0.75,1.5l2.96,1.24l0.66,8.08l-4.1,3.369l-1.8,0.48l-7.18-4.58l-1.09,0.1l-4.08,1.311l-1.4,2.25
		l-3.54,2.15l-0.36,4.01l-2.05,4.609l1.22,4.28l-1.71,2.84l1.7,3.7l-3.89,3.54l-0.9,3.29l-5.92,3.27l-1.09-0.399l-1.09,2.25
		l-1.97,0.25l-2.04-1.46l-2.12-0.16l-25.51,1.25l-0.7-1.14l2.03-2.391l2.47-1.03l-4.09,0.65l-3.9-2.55l-2.66-4.33l4.34-2.29
		l-2.72,0.87l-0.25-0.81l-3.86-1.58l-4.21,0.449l-0.25-5.819l-3.17-6.891l0.95-1.26l1.08,0.101l-0.13-0.74l-1.65,0.45l-2.22-2.811
		l-3.42-1.78l-0.95,0.29l-0.09-0.899l1.55-2.721l1.81-0.68l1.55,3.271l1.52-0.16l2.09-4.24l1.36,0.65l0.63-0.71l-0.78,0.34
		l-1.63-0.971l-0.47-2.09l-1.14-0.42v-1.58l3.74,0.45l1.65-2.01l2.35,0.16l0.76-2.4l0,0l0.57-1.25l2.61-0.609l1.53-4.181l-2.92-4.35
		l0.64-4.87l-4.51-2.78l-1.88-4.99l-1.42-0.55l1.82-5.29l-4.68-2.66L215.44,440.79z"/>
	<path id="HN-CL" fill="#1E3250" stroke="#1E3250" stroke-width="0.5" d="M382.61,164.53l14.51,2.26l10.11,2.62l2.789,0.92
		l2.311,2.1l1.55-0.88l3.01,1.24l0.57,1.54l0.79-0.56l7.6,4.81l14.32,5.66l3.99,0.13l6.18-2.16l9.061,0.23l10.26-1.41l6.46-2.46
		l6.34-5.37l6.08-3.31l2.47-0.46l5.82,0.85l0,0l0.01,107.99l0,0L485.4,265.13l-15.631-3.88l-16.13-22.29l-16.029-5.87l-9.49-9.1
		l-12.44-6.19l-2.89,1.81l-1.351-0.26l-2.039-1.99l-2.511,1.02l-0.02,2.37l-2.87,1.06l-2.561,3.24l-3.14-0.64l-0.59-0.88l-2.21,0.19
		l-0.9,0.95l0.56,2.34l-4.75,4.71l-1.87,0.31l-2.02,2.28l-0.43,1.89l-4.85,2.7l-1.4-0.23l-0.81,1.4l-1.38,0.27l-1.07-1.24l-4.1-0.46
		l-0.49,1.43l-1.33-0.57l-2.67,1.99l-2.78,0.53l-1.83-0.39l-7.54-4.63l0,0l0.09-3.5l-1.05-1.32l1.47-1.31l-0.58-1.47l0.85-3.28
		l-1.34-2.52l0.93-0.75l-2.51,0.19l-0.16,1.08l-3.22-2.17l-4.76-0.95l-8.38,1.39l-4.32-3.55l-2.52-0.75l0,0l1.31-1.49l5.69-1.63
		l-0.04-8.02l-0.65-0.75l-2.72-0.32l-0.34-3.16l-1.3-1.42l-3.54-1.26l-1-5.06l1-0.95l-3.64-2.33l-1.27-1.9l0,0l2.25-0.23l9,4.45
		l2.15-0.98l4.05,0.66l3.01-2.49l5.39-1.31l7.22-6.84l2.38-1.21l4.78-0.88l4.09-1.9l6.49,0.89l8.74-0.89l5.7-2.55l4.43-3.93
		l3.39,2.59l2.57-0.72l1.84-3.11l1.87-0.29l-0.221-1.28l-4.37-1.7l-2.369-0.1l-1.581,1.64l0.54,1.15l-3.94,3.27l1.15-4.05
		l-0.95-2.69l-2.06-0.75l-5.1,0.75l-3.26-2.1L382.61,164.53z"/>
	<path id="HN-CM" fill="#1E3250" stroke="#1E3250" stroke-width="0.5" d="M183.32,284.94l4.37,0.14l3.5-1.53l2.29,0.67l1.48-0.51
		l1.74,1.48l1.19-1.55l2.79-0.44l-0.53-1.44h1.68l1.14-1.6l2.22-0.44l3.74,3.78l0.19,3.81l0.84,1.48l2.09,0.68l-0.23,1.03l1.39-0.07
		l-0.17,2.97l1.19,1.18l-0.64,1.02l0.84,2.31l2.6,0.63l2.54-0.54l3.03-3.33l1.93-0.38l1.69,1.22l3.41-0.19l1.6,2.06l1.19-1.47
		l1.44-0.05l1.46,2.19l5.15,2.22l0.17,0.71l0,0l-0.79,0.88l1.5,1.15l-0.19,1.46l-3.7,0.35l-1.97,2.44l-0.28,1.55l1.8,2.891
		l0.25,3.55l-0.81,3.36l-1.31,0.149l-0.33,2.11l0.59,0.83l-2.69,0.88l0.16,0.65l-1.68,1.229h-1.24l0.32,1.83l-1.59-0.59l0.43,2.59
		l-1.33,4.53l-2.4,0.06l-0.92-1.18l-4.51-0.16l-0.21,5.3l-6.86,6.32l1.82,5.34l1.59,0.3l2.72,2.33l1.49,0.061l-0.01,2.14l-1.83,1.2
		l2.61,0.43l1.29,1.86l-2.26,6.14l-3.92,1.32l-3.31,5.189l1.12,2.891l5.5,2.729l-1.28,0.73l0.44,1.43l-4.84,1.63l-1.67,3.9
		l-7.22,4.77l-4.24-0.74l-1.1,0.58l-3.06,3.74l0.02,2.65l0,0l-3.82,0.02l-3.91,4.521l-0.48-2.25l0.72-1.91l-1.15-2.58l-1.78,1.14
		l-2.59-4.239l-5.06-0.78l-0.01-1.79l1.76-1.11l-1.95-3.12l-4.02-1.149l-0.9-2.63l1.68-1.41l0.14,0.649l3.81-1.72l0.59,1.021
		l3.59-0.28l0.67-1.09l3.78-0.59l2.02-1.761l1.33,0.88l0.63-1.09l0.64,0.391l0.26-0.62l0.51,0.75l1.25-0.7l-0.31-1.29l0.77,0.29
		l0.91-0.89l-1.09-2.271l0.96-1.05l-1.13-0.48l0.3-2.979l-1.46-2.351l0.25-1.3L187.7,363l-5.71-2.66l-3.02-0.2l-0.77-2.12
		l-4.83-0.26l-2.04-3.75l0,0l0.98-0.779l-0.49-1.771l-4.28-5.45l-1.38-0.74l-0.33-3.68l-4.39-1.42l-2.06-7.91l-2.68-0.06l-1.03-1.19
		l-6.01-1.66l-2.16,0.341l-1.82-2.87l0,0l2.64-2.29l-3.39-4.23l4.3-4.79l2.32-0.96l3.72-3.89l0,0l1.5-0.061l9.62-6.919l4.46-3.87
		l1.31-2.1l1.64-0.08l1.47-1.45l0.58,0.42l1.13-2.14l1.6,0.46l0.64-1.98l3.28-1l1.65-2.95l-1.11-1.79L183.32,284.94z"/>
	<path id="HN-CP" fill="#1E3250" stroke="#1E3250" stroke-width="0.5" d="M67.27,251.52l6.27,6.62l-1.27,3.12l3.67,2.85l1.3,2.93
		l3.6,1.71l-1.36,0.9l-0.53,3.73l2.25,2.24l0.82,2.98l-2.1,0.85l-2.18,2.28l-0.59,5.59l-2.55,5.61l1.56,3.55l4.67-0.93l0.75,0.49
		l-0.33,0.83l0,0l0.72,2.32l-1.23,1.92l0.71,2.07l-1.13-0.09l0.04,2.47l-1.97,1.28l-1.28,5.641l1.53,1.01l0.97,3.1l-0.55,0.93
		l1.31,1.69l-0.06,1.23l-3.17-0.591l-1.15,1.25l-4.77,0.54l-6.51-1.46l-1.22,1.91l2.79,5.91l2.48,1l2.27,3.74l-2.83,1.979
		l-2.23,5.19l0,0l-4.19,1.97l-2.3-0.18l0.79,3.89l-2.44,0.66L57,344.48l-4.67-0.86l-2.35-2.7l0.36-1.82l-2.17-0.67l0.66-0.39
		l0.61-3.71l-8.46-7.021l-1.78-6.8l-6.37-0.31l-1.87-1.2l-6.23,1.92l0,0l0.82-2.06l-3.79-2.061l-0.39-5.189l-6.31-7.36l-0.4-3.02
		l0.38-2.51l3.49-1.91l3.14-5.18l1.03-4.36l-3.28-2.37l2.97-7.1l21.36-8.42l16.08-13.88L67.27,251.52z"/>
	<path id="HN-CR" fill="#1E3250" stroke="#1E3250" stroke-width="0.5" d="M184.76,177.27l-1,4.27l-1.06,0.69l-1.13-0.45l-2.55,2.94
		l0.76,1.49l-0.67,0.52l0.21,2.52l-1.53-0.63l0.22,2.27l-1.61-0.38l-0.52,2.63l1.24,0.06l0.95,1.56l-0.56,1.7l1.4-1.5l1.97,4.26
		l-2.16,0.65l0.08,1.11l0,0l-0.99,1.38l-2.19-1.69l-0.45,2.22l-2.24,0.88l-1.38,1.71l3.53-0.6v0.85l-1.96,0.48l-0.36,2.53l0.99,0.57
		l1.42-1.29l-0.3,2.46l1.2,0.66l2.6-0.28l0.05,2.41l1.1,1.13l-0.07,2.05l-2.04,0.04l1.11,3l-2.34-1.49l-1.14,0.33l0.73,2.3
		l-1.86,1.41l1.07,3.35l-1.97-1.09l-0.81,0.31l0.55,1.45l-0.95,1.8l1.44,1.04l-0.49,1.79l1.88,0.79l0.2,1.7l-1.68,2.19L172.3,233
		l-3.25,0.62l4.46,2.62l0.55,3.33l-2.12,0.03l-0.98,3.33l-3.36,2.98l1.59,0.88L169,247.6l-1.94-0.97l-1.08,2.62l-2.48-0.04l1.19,2.2
		l-1.81,0.09l-0.52,1.2l1.85,0.72l-0.16,1.35l-2.37,0.27l-0.37,2.49l0.35,2.02l1.52-1.01l-0.06,5.01l2.8,1.14l3.49-0.28l0.75,1.52
		l1.25,0.49l0.13,1.58l2.92-0.25l0.7,1.1l1.32-0.64l0.74,0.94l-0.28,1.15l1.87,0.32l1.28-0.81l4.1,3.53l-0.73,1.18l0.69,2
		l-1.29,1.18l-0.49,3.1l1.74,3.41l-0.72,0.76l0,0l0,0l0,0l-0.28,2.26l1.1,1.79l-1.65,2.95l-3.27,1l-0.64,1.98l-1.6-0.46l-1.13,2.14
		l-0.58-0.42l-1.46,1.46l-1.65,0.08l-1.31,2.1l-4.45,3.87l-9.62,6.919l-1.5,0.061l0,0l-1.31-3.351l1.04-6.12l-1.17-0.96l-2.24-0.16
		l0.66-0.86l-0.96-1.3l0.21-1.06l-1.07,0.45l1.3-2.81l-3.58,1.01l3.51-16.16l-1.56-1.77l-5.06-1.27l-4.05-4.7l4.29-5.09l2.04-4.53
		l-4.57-0.59l-1.09-3.69l-1.55-1.83l-0.84-12.79l-1.82-0.75l-1.98,0.69l-2.45-1.54l-0.97-1.58l-4.22-1.33l-1.47-3.67l0.69-6.57
		l-22.56-6.51l0,0l9.07-7.31l2.98-3.67l1.28-2.2l-0.15-1.85l1.24-1.14l0.85,1.04l6.59-2.43l0.5-2.42l-0.77-1.05l2.86-0.25l6.81,4.61
		l4.37-0.36l2.19-2.29v-1.08l-0.7-0.2l1.05-1.63l1.62-0.26l1.08-1.86l3.23-1.8v-2.19l5.54-0.46l2.69-1.93l2.57-0.36l3.33-3.37
		l0.76,0.62l1.24-0.42l1.43-2.72l-0.85,0.59l0.25-0.98l-1.65,0.13l-1.99,2l-0.1,0.93l-0.53-0.79l-3.04-0.42l1.14-2.36l5.48,0.07
		l4.02-3.04l3.1-0.23l1.17-0.92l8.62,0.56l1.24-0.43L184.76,177.27z"/>
	<path id="HN-EP" fill="#1E3250" stroke="#1E3250" stroke-width="0.5" d="M299.2,354.37l4.85,1.47l1.53,1.25l0.98-1.229l2.08,0.17
		l1.81,1.79l0.69,2.21l1.25-0.931l8.52,1.9l2.4,3.2l4.23,0.38l1.88,2.11l0.82,2.939l11.24,0.46l9.23-6.189l4.77-1.341l6.24-0.439
		l3.99,9.39l8.35,2.23l0.13-1.99l0.9-0.76l3.51,0.85l4.84,10.08l4.48,1.09l2.57,3.91l1.43,0.89h2.62l1.72-4.56l4.12-1.94l3.04,2.141
		l2.12,0.45l2.72-4.16l2.29,1.37l3.4-0.75l4.95,1.699l0.83-0.04l1.06-1.899l1.96,2.72l1.94,0.851l1.96,3.399l-1.23,2.42l0.3,1.49
		l4.061,2.21l0.819,1.98l0,0l-0.85,1.989l-1.48,0.33l-1.439,2.04l-2.771,1.65l-3.35-0.17l-0.68,2.63l-1.71,1.38l-3.42-1.13
		l-2.351,2.16l-2.97,1.31l0.15,5.29l-0.841,3.67l2.511,1.71l0.5,1.48l-0.551,1.68l-1.35,0.93l-1.76-1.489l-2.311,0.63l-3.08-0.46
		l-3-3.971l0.08-3.029l-0.85-1.181l-4.18-1.029l-1.5,2.59l-2.17-0.931l-3.14-3.609l-7.74-5.95l-0.89-2.08l0.25-1.8l1.85-4.24
		l-0.42-1.859l-1.06-0.15l-1.88,0.9l-6.62,0.569l-6.62,3.67l-0.16,1.4l1.82,1.399l-0.18,0.891l-2.42,1.71l-3.39,0.8l0.29,2.83
		l-4.14,3.24l-3.41,5.05l-2.7,1.78l-0.5,1.58l-2.31,1.159l-0.1,3.671l-2.29,3.829l-2.83,2.261l-2.11,0.08l-1.32-1.011l-2.03,1.25
		l-4.42,0.04l-2.09-2.819l-2.61,1.35l-2.86,0.24l-1.99-0.83l-2.62-2.75l-2.43-0.09l-1.86,1.41l-7.36,1.17l-8.4-0.99l-2.99,1.5
		l-2.43,0.13l-0.61,2.71l0.72,3.39l-1.01,3.2l0,0l-2.02,0.51l-0.52-0.63l-1.73,3.36l-1.53-0.87l-2.26,0.11l-1.28,1.71l-3.9,1.859
		l-0.37-0.97l-4.03,0.65l-0.78-1.25l-0.15,3.02l-1.07,2.12l-3.77,3.59l-1.89,0.04l-1.51,1.181l-0.37,2.72l-1.85,1.39l-0.13,1.771
		l-2.83,0.37l-1.78,2.149l-1.59-1.02l-0.3,1.01l-2.6-1.47l-0.89-2.28l0.42-2.36l-6.68,0.67L247,454.03l-0.1-3.44l-1.76-2.5
		l-2.72-0.189l1.3-6.021l0,0l3.1-2.07l6.99,3.671l-0.83-2.131l1.81-3.13l1.71-1.109l-3.29-4.79l0.09-5.28l0.79-0.19l-0.04-1.01
		l1.79,0.38l2.98,3.16l4.91,0.47l2.22-1.619l2.26-3.851l0.63-3.07l-0.6-1.39l0.9-3.13l-1.18-2.771l1.78-2.689l-1.09-3.42l0.53-0.49
		l4.06,1.89l3.9-4.329l-0.56-1.32l0.99-0.07l0.03-5.77l-4-1.48l-0.28-2.55l-2.64-1.72l-1.96-2.95l1.53-2.021l6.83,1.4l1.88-3.47
		l-3.69-1.65l0.59-1.29l2.65-1.79l-0.5-1.09l0.69-0.58l0.01-2.12l4-3.319l2.09-3.641l1.51,0.03l-0.25-4.63L299.2,354.37z"/>
	<path id="HN-FM" fill="#1E3250" stroke="#1E3250" stroke-width="0.5" d="M240.64,300.98l1.71,0.69l0.7-1.62l-0.32-1.94l-1.96-0.48
		l0.39-1.44l-1.21-2.05l3.9-3.47l-0.2-4.61l1.49-1.8l3.94-0.46l0.46-0.69l3,0.14l3.18,1.87l6.15-1.2l4.66,1.06l0,0l2.98,4.75
		l3.43,0.86l0.42,1.48l3.33,1.6l-0.98,0.47l-2.61,4.44l0.46,3.1l1.63,0.99l1.31,3.07l-0.27,3.39l2.18,1.15l-1.09,3.399l2.63,2.84
		l2.85,8.95l3.66,3.351l2.71,0.01l0.84,1.979l3.14,1.921l1,2.319l1.85,1.12l-0.94,5.44l0.81,2.5l1.43,0.409l-0.43,3.07l2.63,5.37
		l-0.3,1.41l0,0l-13.14,10.58l0.25,4.63l-1.51-0.03l-2.09,3.641l-4,3.319l-0.01,2.12l-0.69,0.58l0.5,1.09l-2.65,1.79l-0.59,1.29
		l3.69,1.65l-1.88,3.47l-6.83-1.4l-1.53,2.021l1.96,2.95l2.64,1.72l0.28,2.55l4,1.48l-0.03,5.77l-0.99,0.07l0.56,1.32l-3.9,4.329
		l-4.06-1.89l-0.53,0.49l1.09,3.42l-1.78,2.689l1.18,2.771l-0.9,3.13l0.6,1.39l-0.63,3.07l-2.26,3.851l-2.22,1.619l-4.91-0.47
		l-2.98-3.16l-1.79-0.38l0.04,1.01l-0.79,0.19l-0.09,5.28l3.29,4.79l-1.71,1.109l-1.81,3.13l0.83,2.131l-6.99-3.671l-3.1,2.07l0,0
		l-4.82-2.24l-3.27,1.011l-3.57-1.28l-5.38,0.6l-0.22-1.609l-1.81-0.601l-1.05-2.08l-0.8,0.12l0.06-2.01l1.47-2.75l-2.2,0.37
		l-4.54-1.29l-1.93,0.79l0.71,2.91l-1.66,5.21l0.73,1.76l0,0l-6.76-2.49l-3.21-3.149l-4.52,0.449l-5.21-3.109l-2.36,0.49l0.52-9.79
		l0,0l3.02-4.62l-0.11-2.11l1.51-1.09l1.04-7.49l-0.64-0.939l0.6-1.131l-1.44-2.149l-1.14-9.88l0,0l-0.02-2.65l3.06-3.74l1.1-0.58
		l4.24,0.74l7.22-4.77l1.67-3.9l4.84-1.63l-0.44-1.43l1.28-0.73l-5.5-2.729l-1.12-2.891l3.31-5.189l3.92-1.32l2.26-6.14l-1.29-1.86
		l-2.61-0.43l1.83-1.2l0.01-2.14l-1.49-0.061l-2.72-2.33l-1.59-0.3l-1.82-5.34l6.86-6.32l0.21-5.3l4.51,0.16l0.92,1.18l2.4-0.06
		l1.33-4.53l-0.43-2.59l1.59,0.59l-0.32-1.83h1.24l1.68-1.229l-0.16-0.65l2.69-0.88l-0.59-0.83l0.33-2.11l1.31-0.149l0.81-3.36
		l-0.25-3.55l-1.8-2.891l0.28-1.55l1.97-2.44l3.7-0.35l0.19-1.46l-1.5-1.15L240.64,300.98z"/>
	<path id="HN-GD" fill="#1E3250" stroke="#1E3250" stroke-width="0.5" d="M601.13,228.66l2.811,1.26l2.029,6.56l-1.42,1.54
		l-1.17-5.42l-2.76-2.87L601.13,228.66z M496.9,170.27l24.109,9.52l14.16,3.67l0.86,0.72l-1.431,1.15l-0.949,5.07l0.949,2.39
		l1.9,1.67l3.55-1.37l-0.569-2.32l0.539-1.18l2.12,1.7l1.271,2.42l2.76-0.2l0.98,0.29l2.5-0.36l-1.04-1.21l1.649-2.06l0.7,0.49
		l-0.82,0.95h1.17l0.32-1.11l1.11,0.26l0.1-1.86l-1.43-0.26l-1.43-1.57l-13.49-3.3l21.979,4.58l16.601,1.01l24.39,20.08l23.28,21.24
		l9.63,5.94l8.899,2.68l-1.42,2.19l-1.93,0.51l-5.92-4.99l-2.88-1.47l-5.61-1.89l-4.62-0.2l-1.46-1.37l1.521,0.29l-0.66-2.42
		l-3.42-2.48l-0.44-1.5l-0.54,1.54l-1.27,0.16l0.51-0.59l-7.54-3.43l-3.42,4.02l-0.03,1.21l-1.359-0.75l-1.46,1.7l-2.76-0.16
		l1.96,4.61L597,235.59l-1.11-0.72l-1.3,0.72l1.431,1.73l-0.221,0.72l-1.52-0.16l0.13,1.11l4.37,6.46l2.41,1.01l2.88-0.2l-0.13,0.65
		l1.96,0.82l0.89-0.72v-1.6l-2.34-4.18l0.189-1.44l2.79-0.65l0.32-0.95l6.021,0.98l6.27,4.73l2,0.65l2.15,2.42l1.899,1.01l3.261,0.2
		l0.979,1.7l2.6,1.44l-0.35,1.14l-2.439,1.7l2.38-0.03l1.33-0.75l0.35-1.21l0.79,0.33l1.93,2.84l-1.3,3.2l1.17,2.58l-0.76,0.59
		l0.439,1.04l0.67-1.44l0.28,0.98l0.95-0.06l-0.35-1.21l3.04,1.4l1.739-0.78l0.67-3.62l6.37-3.2l0.79-1.44l-0.38-1.99l1.87-1.63
		l0.03,1.53l4.779-0.23l0.221,1.21l2.63-0.56l1.49,0.88l0.35-1.44l-2.44-0.1l-0.06-1.47l-1.87,0.1l-1.11-1.24l-3.449,1.8l-0.28-1.01
		l-2.25-0.62l-0.79-1.17l-0.76,1.18l-0.95-2.09l-2.061-1.21l-5.319-1.57v-1.96l2.439-2.87l3.36,3.14l7.67,4.18l17.36,5.55
		l8.649,3.69l4.021,6.04l3.39,9.82l3.8,5.45l7.761,5.35l7.409,2.48l2.44-0.03v0.91l1.11,0.03l-0.66,1.14l-1.761-0.6l-2.22,0.65
		l-4.66-0.38l-3.159,1.46l-4.261-0.38l-1.08,1.13l-1.01-0.71l1.51-1.32l-0.18-0.89l-2.54,0.5l-4.74-1.89l-1.229,1.73l-1.24-1.69
		l-4.37-1.81l-0.16,2.19l-2.119,2.17l-4.931,1.61l-1.81-1.4l0.03-1.52l-1.641-0.34l-2.239,2.66l-1.591-0.71l0.69,2.26l-1.82-0.81
		l-0.39,1.41l1.109,2.08l-1.96-0.35l0.841,1.43l-2.021,0.42l-0.28,3.06l-3.74-0.63l-0.56,0.63l0.44,1.01l-2.351,0.69l0.53,1.15
		l-1.13,1.54l0.35,1.24l-1.05-0.38l-0.34-1.52l-1.55-0.26l-4.83,1.7l-1.271-0.66l0.11,1.51l-2.03,1.16l1.64,0.67l-0.21,1.42
		l-3.83-0.66l0.341,1.84l-2.41-0.91l-0.73,2.5l-2.489-1.46l-1.131,1.95l-2.779-0.69l2.3,2.19l-4.12,0.16l-1.82,1.979l-2.939,0.59
		l-0.521-1.88l-0.819-0.239l-0.08,2.06l-1.061,0.4l-2.17-1.54l-2.11,0.47l0.5,2.979l-2.59-0.909l-2.899,1.229l-2.63-1.09
		l-2.721,1.28l-1.87-0.49l-0.55-2.57l-3.859,1.311l-0.54-3.351l-3.021-0.229l-0.53,1.59l2.171,3.82l0.079,1.79l-3.47-0.421
		l-1.99,1.431l-3.85,0.67l-5.54-2.74l0.72-2l-1.859-0.71l-3.29,2.6l0.95,4.04l-0.351,1.87l0.9,0.84l-2.78,2.29l-2-0.619l-1.47-2.49
		l-1.98,1.25l-2.46-0.58l-0.3-1.15l0.9-1.859l-2.45-1.181l-2.12,4.04l-2.88,2.75l-0.18,1.23l-2.641,1.34l-2.81,0.19l-1.3,1.84
		l-3.301-0.76l-1.47-1.57l-2.67,0.68l-0.28-1.5l1.41-1.439l-4.1,0.88l-1-0.84l-1.43,0.39l-0.961-0.88l-4.83-0.521l-0.55-1.21
		l-2.52,0.53l-2.44-2.25l-1.689,3.05l-1.051-0.09l-0.819-3.16l-3.94-2.68l-0.25-3.87l-1.359,0.66l-1.19-0.95l1.7-0.5l0.21-1.76
		l-3.16-2.03l-1.2-3.02l-3.06-1.62l-4.601,1.899l-4.939-0.08l-2.91,5.841l-3.71,0.779l-3.93,3.12l0,0l0.22-39.46l0,0L496.9,170.3
		l0,0V170.27z"/>
	<path id="HN-IN" fill="#1E3250" stroke="#1E3250" stroke-width="0.5" d="M145.68,326.82l1.82,2.87l2.16-0.341l6.01,1.66l1.03,1.19
		l2.68,0.06l2.06,7.91l4.39,1.42l0.33,3.68l1.38,0.74l4.28,5.45l0.49,1.771l-0.98,0.779l0,0l-6.88,5.37l-4.73-0.85l0.27,1.859
		l-0.94,0.931l1.36,2.87l-0.32,1.869l-2.11,0.75l-0.86,3.32l-2.77,0.99l-0.73,3.7l-4.59-0.11l-1.69,0.88l-5.05,4.03l-0.08,2.14
		l-1.44,2.28l-4.27,1.69l-2.85,2.34l-4.71,6.319l-1.41-0.18l0.88,2.01l2.68,1.95l-1.19,6.51l0,0l-0.42,5.931l-4.52,3.89l-11.2,3.74
		l-2.7-1.99l-5.85,0.75l-1.24,1.66l-2.78-0.061l-0.35,1.391l-3.22-1.021l-0.13-2.29l-1.85-3.739l0.49-3.351l0,0l1.25-0.1l-0.1-1.33
		l0.78,0.21l0.47-1.3l1.3-0.521l-0.4-1.51l1.33-0.33l0.67-1.49l2.02-0.18l0.78-0.97l6.22-2.351l2.23-1.68l1.57-2.48l2.48-0.21
		l-0.34-2.25l1.96-1.5l-0.81-3.21l0.44-2.439l-1.05-0.931l1.03-5.8l-1.42-1.59l-5.94-0.36l-4.09-2.09l-0.3-1.47l1.61-2.78
		l-1.84-9.18l-1.12-0.55l-2.08,0.439l-5.11-4.949l0.53-0.54l-0.34-5.37l5.25-2.59l2.36,0.68l5.7-0.34l3.99-3.271l-0.26-3.02
		l2.81-4.28l-0.72-6.12l-2.03-3.8l0.46-0.32l0,0l10.55,1.03l2.42-1.12l8.22-0.45l6.72,1.761L145.68,326.82z"/>
	<path id="HN-IB" fill="#1E3250" stroke="#1E3250" stroke-width="0.5" d="M325.21,171.84l0.38,1.08l-0.63,0.59l-0.73-0.52
		L325.21,171.84z M327.74,170l0.95,0.62l-0.79,1.51l-1.24-1.31L327.74,170z M280.73,153.23l1.9,0.79l-1.87,3.57l-0.82-1.15
		l-0.98,0.26l-5.83,3.01l-3.9-1.47l1.04-2.26l4.18-0.85l0.86-1.57l2.92,0.72L280.73,153.23z M350.55,116.93l5.99,0.82l3.07-0.66
		l0.86,0.92l-1.55-0.2l-2.57,1.84l-1.42-1.44l-3.36,0.1l-0.7,1.02l-2.44-0.43l-0.41,0.92l-2,0.33l-1.36,1.41l-1.55-0.36l-2.34,1.02
		l-1.93-0.56l0.54,1.08l-0.82,0.49l-0.63-0.72l-0.51,2.13l-0.76-0.56l-1.62,0.33l-0.06,0.85l-2.44-0.23l-5.8,3.22l0.06,1.41
		l-1.3,0.23l-0.09-1.02l-3.86,2.17l-2.28-0.13l-5.83,5.45l0.95-5.21l5.45-4.03l2.53-1.25l1.43,0.3l1.84-1.54l1.14,0.2l2.85-1.67
		l2.31,0.1l4.75-3.22l0.51,0.43l6.02-2.4L350.55,116.93z M365.79,115.02l2.38,0.43l-2.12,1.67l-1.08-0.69l-2,0.79l1.04-1.54
		L365.79,115.02z M398.57,106.81l2.819,1.64l0.98-0.69l0.479,1.94l-3.229,1.05l-0.101,1.81l-1.52,1.9l-1.36-0.62l-3.52,1.81
		l0.7,0.53l-6.15,4.23l2.31-6.1l1.77,0.2l0.92-3.48l0.82-0.03l1.74-2.49l1.87,0.43l0.131-1.21L398.57,106.81z"/>
	<path id="HN-LP" fill="#1E3250" stroke="#1E3250" stroke-width="0.5" d="M171.33,354.01l2.04,3.75l4.83,0.26l0.77,2.12l3.02,0.2
		l5.71,2.66l5.95-2.99l-0.25,1.3l1.46,2.351l-0.3,2.979l1.13,0.48l-0.96,1.05l1.09,2.271l-0.91,0.89l-0.77-0.29l0.31,1.29l-1.25,0.7
		l-0.51-0.75l-0.26,0.62l-0.64-0.391l-0.63,1.09l-1.33-0.88l-2.02,1.761l-3.78,0.59l-0.67,1.09l-3.59,0.28l-0.59-1.021l-3.81,1.72
		l-0.14-0.649l-1.68,1.41l0.9,2.63l4.02,1.149l1.95,3.12l-1.76,1.11l0.01,1.79l5.06,0.78l2.59,4.239l1.78-1.14l1.15,2.58l-0.72,1.91
		l0.48,2.25l3.91-4.521l3.82-0.02l0,0l1.14,9.88l1.44,2.149l-0.6,1.131l0.64,0.939l-1.04,7.49l-1.51,1.09l0.11,2.11l-3.02,4.62l0,0
		l-2.68-0.011l-2.66-2.34l-5.47,1.04l0,0l-0.58-2.85l-5.65-3.57l-3.38,0.61l-6.11-1.801l-2.77,0.051l-2.52,1.449l-3.31-1.289
		l-5.96,3.409l-0.55-2.109l-5.91-8.48l-0.04-2.26l-4.23-0.93l-6.14,1.899l-3.99-1.67l-2.05,0.34l0,0l1.19-6.51l-2.68-1.95
		l-0.88-2.01l1.41,0.18l4.71-6.319l2.85-2.34l4.27-1.69l1.44-2.28l0.08-2.14l5.05-4.03l1.69-0.88l4.59,0.11l0.73-3.7l2.77-0.99
		l0.86-3.32l2.11-0.75l0.32-1.869l-1.36-2.87l0.94-0.931l-0.27-1.859l4.73,0.85L171.33,354.01z"/>
	<path id="HN-LE" fill="#1E3250" stroke="#1E3250" stroke-width="0.5" d="M81.25,296.87l2.75,0.18l1.15-1.09l0.27-2.25l6.14,1.52
		l2.56,7.28l4.95,7.11l2.05-0.79l1.67-3.99l1.39-0.72l2.86,1l0.89,1.57l3.74-0.15l1.74,1.64l-2.88,6.221l1.86,3.979l2.12,1.76
		l4.24-1.729l-0.36,5.729l-2.97,3.58l0,0l-0.46,0.32l2.03,3.8l0.72,6.12l-2.81,4.28l0.26,3.02l-3.99,3.271l-5.7,0.34l-2.36-0.68
		l-5.25,2.59l0.34,5.37l-0.53,0.54l5.11,4.949l2.08-0.439l1.12,0.55l1.84,9.18l-1.61,2.78l0.3,1.47l4.09,2.09l5.94,0.36l1.42,1.59
		l-1.03,5.8l1.05,0.931l-0.44,2.439l0.81,3.21l-1.96,1.5l0.34,2.25l-2.48,0.21l-1.57,2.48l-2.23,1.68l-6.22,2.351l-0.78,0.97
		l-2.02,0.18l-0.67,1.49l-1.33,0.33l0.4,1.51l-1.3,0.521l-0.47,1.3l-0.78-0.21l0.1,1.33l-1.25,0.1l0,0l1.14-2.63l-3.01-2.24
		l-4.65,0.271l-2.75-3.25l-2.1,0.37l-2.39-1.82l-6.02,0.93l-8.03-8.62l-7.41,0.45l-5.47-11.359l-3.85-1.631l-1.14-1.34l-5.44,0.101
		l-1.18-0.92l0,0l-0.26-4.19l0.79-1.65l-1.7-3.359l2.92-1.38l1.05-3.34l4.43-0.521l2.38-1.11l1.15-2.05l0.07-4.069l2.18,0.359
		l0.28,1.04l2.14,1.5l3.49-0.08l-2.21-2.109l0.72-2.87l2.69,1.64l6.72-3.07l-0.27-1.729l0.73-0.53l-0.17-1.64l1.92-4.431l0.25-2.689
		l-1.03-1.05l-3.32,0.359l-2.81-1.02l0,0l2.23-5.19l2.83-1.979L68.76,329l-2.48-1l-2.79-5.91l1.22-1.91l6.51,1.46l4.77-0.54
		l1.15-1.25l3.17,0.591l0.06-1.23l-1.31-1.69l0.55-0.93l-0.97-3.1l-1.53-1.01l1.28-5.641l1.97-1.28l-0.04-2.47l1.13,0.09l-0.71-2.07
		l1.23-1.92L81.25,296.87z"/>
	<path id="HN-OC" fill="#1E3250" stroke="#1E3250" stroke-width="0.5" d="M24.73,320.92l6.23-1.92l1.87,1.2l6.37,0.31l1.78,6.8
		l8.46,7.021l-0.61,3.71l-0.66,0.39l2.17,0.67l-0.36,1.82l2.35,2.7l4.67,0.86l0.83,1.77l2.44-0.66l-0.79-3.89l2.3,0.18l4.19-1.97
		l0,0l2.81,1.02l3.32-0.359l1.03,1.05l-0.25,2.689l-1.92,4.431l0.17,1.64l-0.73,0.53l0.27,1.729l-6.72,3.07l-2.69-1.64l-0.72,2.87
		l2.21,2.109l-3.49,0.08l-2.14-1.5l-0.28-1.04l-2.18-0.359l-0.07,4.069l-1.15,2.05l-2.38,1.11l-4.43,0.521l-1.05,3.34l-2.92,1.38
		l1.7,3.359l-0.79,1.65l0.26,4.19l0,0l-1.08-0.25l0.18-1.46l-1.81-2.971l-4.23-2.7l0.12-4.109l-1.94-2.141l-5.37-2.22l-5.22,1.09
		l-3.59-0.37l-5.69-4.18L5.99,356.9l-5.87-3.78l0.14-5.08l5.95-3.32L6,343.48l2.01-1.5l0.83-2.24l3.78-4.601l2.57-0.88l4.55,1.5
		l2.54-0.16l1.04-3.54l-0.76-7.069L24.73,320.92z"/>
	<path id="HN-OL" fill="#1E3250" stroke="#1E3250" stroke-width="0.5" d="M355.79,237.01l7.54,4.63l1.83,0.39l2.78-0.53l2.67-1.99
		l1.33,0.57l0.49-1.42l4.1,0.46l1.07,1.23l1.38-0.27l0.81-1.4l1.41,0.23l4.85-2.69l0.43-1.9l2.03-2.28l1.86-0.31l4.76-4.71
		l-0.56-2.33l0.9-0.95l2.209-0.2l0.59,0.89l3.141,0.63l2.56-3.24l2.86-1.06l0.02-2.36l2.511-1.02l2.05,1.99l1.35,0.26l2.891-1.81
		l12.449,6.19l9.49,9.1l16.03,5.86l16.14,22.29l15.63,3.88l11.44,13.14l0,0l-0.21,39.47l0,0l-3.68,3.12l0.55,1.59l-0.971,1.8
		l-1.31-0.13l-0.979,1.2l2.93,3.4l-1.83,2.34l1.95,1.05l-2.271,3.47l-2.71,2.12l-2.37,0.59l-4.22-3.62l-2.78,1.59l1.19,2.16
		l0.18,4.15l-1.33,2.729l-3.149,3.311l-3.24,8.36l-2.14,2.67l2.46,1.199l0.3,2.351l1.25,1.3l1.05-0.31l0.32,2.579l2.33,1.45
		l-2.931,5.021l-0.97,0.279l-0.58-1.05l-9.27-0.04l-2.08,1.011l-2.36-0.681l-2.43,1.17l-2.141,3.601l-1.189-0.181l-0.311-1.109
		l-1.029,0.24l0.55,1.64l-0.521,3.89l-2.359,2.28l0.359,2.32l-3.58,3.51l-1.64,0.22l-1.52-0.92l-1.58,2.37l-0.99-0.14l-0.34,1.42
		l-1.271-1.471l-0.26,1.801l-1.17-0.98l-2.03,4.68l-3.81-0.21l-0.561-1.989l-1.54,0.29l0,0l-0.819-1.98L425.72,391l-0.3-1.49
		l1.23-2.42l-1.96-3.399l-1.94-0.851l-1.96-2.72l-1.06,1.899l-0.83,0.04l-4.95-1.699l-3.4,0.75l-2.29-1.37l-2.72,4.16l-2.12-0.45
		l-3.04-2.141l-4.12,1.94l-1.72,4.56h-2.62l-1.43-0.89l-2.57-3.91l-4.48-1.09l-4.84-10.08l-3.51-0.85l-0.9,0.76l-0.13,1.99
		l-8.35-2.23l-3.99-9.39l-6.24,0.439l-4.77,1.341l-9.23,6.189l-11.24-0.46l-0.82-2.939l-1.88-2.11l-4.23-0.38l-2.4-3.2l-8.52-1.9
		l-1.25,0.931l-0.69-2.21l-1.81-1.79l-2.08-0.17l-0.98,1.229l-1.53-1.25l-4.85-1.47l0,0l0.3-1.41l-2.63-5.37l0.43-3.07l-1.43-0.409
		l-0.81-2.5l0.94-5.44l-1.85-1.12l-1-2.319l-3.14-1.921l-0.84-1.979l-2.71-0.01l-3.66-3.351l-2.85-8.95l-2.63-2.84l1.09-3.399
		l-2.18-1.15l0.27-3.39l-1.31-3.07l-1.63-0.99l-0.46-3.1l2.61-4.44l0.98-0.47l-3.33-1.6l-0.42-1.48l-3.43-0.86l-2.98-4.75l0,0
		l2.47-3.31l5.1,0.27l0.62-3.27l4.27-1.53l0.17-4.59l1.86-1.73l0.26-1.05l-0.72-0.37l1.07-1.66l-1.56-8.39l0.41-1.98l5.2-2.69
		l0.33-1.68l2.67,0.86l2.04-2.18l1.58,0.89l0.93,2.14l5.9,0.62l4.08-2.2l0.14-1.08l1.63-1.27l0.27-3.9l1.79-0.61l1.64,0.61
		l2.07-1.83l5.4-2.01l3.4-2.56l1.88,0.56l2.65-1.29l0.19-1.14l4.14,1.09l1.42,3.04l2.31,0.1l2.23,5.36l1.21,0.19l14.3-7.43
		L355.79,237.01z"/>
	<path id="HN-SB" fill="#1E3250" stroke="#1E3250" stroke-width="0.5" d="M104.5,221.81l22.56,6.52l-0.69,6.57l1.47,3.67l4.21,1.34
		l0.97,1.58l2.45,1.54l1.98-0.69l1.82,0.75l0.84,12.79l1.55,1.83l1.09,3.69l4.57,0.59l-2.05,4.53l-4.29,5.09l4.05,4.7l5.06,1.27
		l1.56,1.77l-3.51,16.15l3.58-1.01l-1.3,2.81l1.07-0.45l-0.21,1.06l0.96,1.3l-0.66,0.86l2.24,0.16l1.18,0.96l-1.04,6.12l1.31,3.351
		l0,0l-3.72,3.89l-2.32,0.96l-4.3,4.79l3.39,4.23l-2.64,2.29l0,0l-2.35,2.12l-6.72-1.761l-8.22,0.45l-2.42,1.12l-10.55-1.03l0,0
		l2.97-3.58l0.36-5.729l-4.24,1.729l-2.12-1.76l-1.86-3.979l2.88-6.221l-1.74-1.64l-3.74,0.15l-0.89-1.57l-2.86-1l-1.39,0.72
		l-1.67,3.99l-2.05,0.79l-4.95-7.11l-2.56-7.28l-6.14-1.52l-0.27,2.25L84,297.05l-2.75-0.18l0,0l0.33-0.83l-0.75-0.49l-4.67,0.93
		l-1.56-3.55l2.55-5.61l0.59-5.59l2.18-2.28l2.1-0.85l-0.82-2.98l-2.25-2.24l0.53-3.73l1.36-0.9l-3.6-1.71l-1.3-2.93l-3.67-2.85
		l1.27-3.12l-6.27-6.62l0,0l8.67-5.55l9.51-8.96l3.79-1.76L104.5,221.81z"/>
	<path id="HN-VA" fill="#1E3250" stroke="#1E3250" stroke-width="0.5" d="M194.98,484.29l2.88,1.03l0.07,3.76l-2.06,1.03
		l-2.98-0.261l-0.91-3.199l0.84-0.03l0.32-1.78L194.98,484.29z M191.15,480.5l0.86,1.62l-1.39,1.59l-0.67-1.229L191.15,480.5z
		 M202.25,477.28l1.76,0.08l0.47,1.1l1.84,0.84l-3.77,0.811l0.1-1.62l-1.09-0.721L202.25,477.28z M199.96,474.84l2.5,0.5l0.56,0.92
		l1.05,0.29l-3.8,0.91l2.07,1.46l-0.52,4.3l-1.87-0.55l-2.15,0.65l-3.39-1.261l-1.58-1.949l-0.13-1.391l0.89-0.42l-0.41-1.81
		l0.92,0.42l1.43-1.45l1.68,1.2L199.96,474.84z M215.54,472.08l-0.23,0.92l0.86,0.45l0.83-0.391l0.44,1.101l1.46,0.1l-1.17,1.26
		l-2.82,0.261l-0.91-1.53l0.38-1.56L215.54,472.08z M215.95,470.84l1.08,0.22l-0.67,1.101l1.82,0.3l0.81,1.29l-1.24,0.2l-0.48-1.17
		l-1.52,0.149L215.95,470.84z M217.47,471.67l-0.13-0.87l-1.49-0.26l-0.6,1.26l-1.51,0.5l-0.2,5.2l-3.55-2.17l0.7-1.13l-1.55,0.81
		l0.35,1.03l1.04,0.12l0.29,1.24l-0.92,0.489l-0.25-0.609l-0.76,1.26l-1.74,0.58l-2.79-1.78l1.33-1.52l-1.44,0.52l-1.36-1.28
		l-3.14-0.55l-2.17,0.83l1.08-3.04l-2.53-1.45l0.28-0.71l0.98,0.19l-0.57-2.01l1.24-2.62l-0.44-0.42l-0.85-0.55l-3.52,1.52
		l-0.63,2.04l1.01,0.2l0.38,2.14l-1.43,1.46l0.32,1.65l-1.61-0.16l-0.73,2.4l-1.64-0.23l-0.04,0.71l-2.57,0.26l-0.13,0.78
		l-3.26-0.03l-2.12-2.17l-3.9-1.07l-1.4-2.1l1.9-0.08l0.96-1.46l1.47-0.09l1.94-1.8l3.56-0.601l0.84-2.649l-0.47-4.521l-3.01-0.38
		l-0.54-0.859l-1.39,1.05l-1.85-0.351l-1.07-1.689l0.73-0.92l-0.32-2.971l0.79-1l-0.63-0.619l1.08-0.4l2.28-3.61l0.39-10.06
		l2.32-2.71l0.69-1.811l-0.84-1.939l2.66-3.95l0.09-4.05l-2.12-0.811l-1.88-1.92l0,0l5.47-1.04l2.67,2.341l2.68,0.02l0,0l-0.52,9.78
		l2.36-0.48l5.21,3.11l4.52-0.45l3.2,3.15l6.77,2.479l0,0l0.72,1.51l4.68,2.66l-1.82,5.29l1.43,0.55l1.88,4.99l4.51,2.78l-0.63,4.87
		l2.92,4.35l-1.53,4.18l-2.61,0.61l-0.57,1.25l0,0l-1.1,2.09l-2.06-0.229l-1.59,1.779l-0.32-2.1l0.98-3.33l1.33,0.71l2.03-0.39
		l-1.68-0.29l0.38-1.46l-1.32,0.55l0.1-1.16l-1.3,0.81l-0.7,2.141L217.47,471.67z"/>
	<path id="HN-YO" fill="#1E3250" stroke="#1E3250" stroke-width="0.5" d="M183.32,284.94l0.72-0.75l-1.74-3.42l0.49-3.09l1.29-1.19
		l-0.69-1.99l0.73-1.18l-4.1-3.53l-1.28,0.8l-1.87-0.31l0.28-1.15l-0.74-0.94l-1.32,0.65l-0.69-1.11l-2.92,0.26l-0.13-1.58
		l-1.25-0.49l-0.75-1.52l-3.49,0.28l-2.8-1.14l0.07-5.01l-1.52,1.01l-0.35-2.03l0.38-2.49l2.36-0.27l0.16-1.34l-1.85-0.72l0.52-1.2
		l1.81-0.09l-1.19-2.21l2.47,0.04l1.09-2.62l1.94,0.97l0.19-0.81l-1.59-0.88l3.36-2.98l0.99-3.32l2.12-0.03l-0.55-3.33l-4.45-2.62
		l3.25-0.61l1.15,2.37l1.68-2.2l-0.19-1.69l-1.89-0.79l0.49-1.79l-1.44-1.04l0.95-1.8l-0.55-1.45l0.81-0.31l1.98,1.09l-1.07-3.35
		l1.86-1.41l-0.73-2.31l1.14-0.33l2.34,1.49l-1.11-3l2.03-0.03l0.07-2.05l-1.1-1.13l-0.06-2.4l-2.59,0.27l-1.2-0.65l0.31-2.46
		l-1.43,1.29l-0.99-0.57l0.36-2.53l1.96-0.47l-0.01-0.85l-3.53,0.6l1.39-1.71l2.24-0.88l0.45-2.22l2.18,1.69l0.99-1.38l0,0
		l0.21,2.11l2.8,0.44l1.12,1.91l2.04,1.38l2.5,0.39l0.25,1.41l1.37,1.01l0.95,9.55l0.92,2.05l2.73,1.98l1.76,2.72l5.72,0.11
		l5.34-1.65l1.36,1.06l5.98-3.51l1.2,1.54l1.54,0.18l-0.63,3.8l0.88,0.97l-0.66,0.69l1.3,0.81l0.21,1.72l2.43,1.08l0.06,0.8
		l0.89-0.4l1.09,1.8l3.96-2.2l1.93,0.53l1.1,1.43l2.52-0.84l1.88,1.31l2.69,0.14l3.47,1.54l2.79-0.42l1.57,0.78l2.93-4.61l5.02,0.2
		l1.67-1.88l1.91-0.11l2.89-1.69l0.74-2.68l3.83-2.34l2.78-3.33l1.35,0.95l5.22-0.01l2.34-1.73l1.29,0.52l4.36-1.4l0.78,0.15
		l0.29,2.03l2.74,0.74l2.15-1.58l0.96,0.86l4.07,0.64l14.4-6.81l7.51,2l4.5-0.73l1.42,1.29l5.59-1.43l5.49,1.84l0,0l2.53,0.76
		l4.32,3.54l8.38-1.39l4.76,0.96l3.22,2.16l0.17-1.08l2.5-0.19l-0.92,0.75l1.34,2.51l-0.84,3.28l0.58,1.47l-1.47,1.31l1.05,1.33
		l-0.09,3.49l0,0l-5.91,3.95l-14.3,7.43l-1.21-0.19l-2.23-5.36l-2.31-0.1l-1.42-3.04l-4.14-1.09l-0.19,1.14l-2.65,1.29l-1.88-0.56
		l-3.4,2.56l-5.4,2.01l-2.07,1.83l-1.64-0.61l-1.79,0.61l-0.27,3.9l-1.63,1.27l-0.14,1.08l-4.08,2.2l-5.9-0.62l-0.93-2.14
		l-1.58-0.89l-2.04,2.18l-2.67-0.86l-0.33,1.68l-5.2,2.69l-0.41,1.98l1.56,8.39l-1.07,1.66l0.72,0.37l-0.26,1.05l-1.86,1.73
		l-0.17,4.59l-4.27,1.53l-0.62,3.27l-5.1-0.27l-2.47,3.31l0,0l-4.66-1.06l-6.15,1.2l-3.18-1.87l-3-0.14l-0.46,0.69l-3.94,0.46
		l-1.49,1.8l0.2,4.61l-3.9,3.47l1.21,2.05l-0.39,1.44l1.96,0.48l0.32,1.94l-0.7,1.62l-1.71-0.69l0,0l-0.17-0.71l-5.15-2.22
		l-1.46-2.19l-1.44,0.05l-1.19,1.47l-1.6-2.06l-3.41,0.19l-1.69-1.22l-1.93,0.38l-3.03,3.33l-2.54,0.54l-2.6-0.63l-0.84-2.31
		l0.64-1.02l-1.19-1.18l0.17-2.97l-1.39,0.07l0.23-1.03l-2.09-0.68l-0.84-1.48l-0.19-3.81l-3.74-3.78l-2.22,0.44l-1.14,1.6h-1.68
		l0.53,1.44l-2.79,0.44l-1.19,1.55l-1.74-1.48l-1.48,0.51l-2.29-0.67l-3.5,1.53L183.32,284.94z"/>
</g>
</svg>
