<?xml version="1.0" encoding="utf-8"?>
<!-- Generator: Adobe Illustrator 15.0.0, SVG Export Plug-In . SVG Version: 6.00 Build 0)  -->
<!DOCTYPE svg PUBLIC "-//W3C//DTD SVG 1.1//EN" "http://www.w3.org/Graphics/SVG/1.1/DTD/svg11.dtd">
<svg version="1.1" id="Layer_1" xmlns:amcharts="http://amcharts.com/ammap"
	 xmlns="http://www.w3.org/2000/svg" xmlns:xlink="http://www.w3.org/1999/xlink" x="0px" y="0px" width="841.5px" height="574.5px"
	 viewBox="0 0 841.5 574.5" enable-background="new 0 0 841.5 574.5" xml:space="preserve">
<defs>
	
	
		<amcharts:ammap  projection="mercator" leftLongitude="-118.365366" topLatitude="32.719388" bottomLatitude="14.530910" rightLongitude="-86.723663">
		</amcharts:ammap>
</defs>
<g>
	<path id="MX-AGU" fill="#1E3250" stroke="#1E3250" stroke-width="0.5" d="M390.24,367.07l-2.41-3.471l5.5-10.699l6.33-3.08
		l1.6-2.181l7.271,5.19l1.729,4.479l0,0l0.021,2.19l1.96,2.14l-4.28,1.971l-3.27,4.05l-4.28,1.1l-3.91-2.43l-4.21-0.38
		L390.24,367.07z"/>
	<path id="MX-BCN" fill="#1E3250" stroke="#1E3250" stroke-width="0.5" d="M106.2,195.13h-0.65l0,0l-2.88,1.84l-0.1-1.51l3.7-3.91
		l-0.76,2.25L106.2,195.13z M78.85,183.14l1.43,6.75l-0.64,2.99l-1.16,0.14l-1.26-1.73l-1.96,0.27l2.81-3.81l-0.44-2.29
		L78.85,183.14z M136.99,174.58l3.51,2.45l-0.54,0.47L136.99,174.58z M145.45,173.08l0.07,1.66l-1.16,0.04l-0.35-1.561
		L145.45,173.08z M2.59,160.01l-0.5,2.36l1.31,1.2l0.23,2.9l-1.41,2.31l-2.15-7.58L2.59,160.01z M120.37,149.72l4.07,2.61l1.06,2.21
		l-0.47,2.03l5.08,0.95l-0.17,4.33l1.81,2.08l-0.34,1.9l-8.2-8.21l-1.37-0.26l-2.29-3.56L120.37,149.72z M88.9,64.14l-2.66,0.13
		l-2.94,6.31l1.4,1.99l-1.11,7.6l5.69,3.84l0,0l0.45,5.74l-1.86,3.87l-0.88,9.55l1.98,3.47l-0.54,1.31l2.84,1.84l0.51,8.74
		l1.72,4.04l-0.92,8.77l3.35,6.44l3.13,2.55l0.42,2.76l1.26,1.04l1.51-0.73l1.81,0.78l14.3,13.22l-0.41,2.22l2.87,4.19l-0.46,3.04
		l0.81,1.69l2.32-1.69l1.43,1.21l0.51,3.04l2.41-1.07l1.08,0.62l2.79,8.87l2.58,1.46l2.44-0.59l1.37,0.93l-0.59,4.33l1.97,2.8
		l0.65,8.78l0,0l-1.51-1.97l0,0l-31.69-0.11l-0.17-2.34l0.86,1.21l0.79-1.39l-1.61-0.41l-0.35-1.72l1.52-2.99l-1.81-0.91l1.93-6.07
		l-2.83-2.82l-0.07-2.03l-2.64-0.52l-3.75-6.29l-4.21-2.36l-1.19-3.77l-1.71-0.12l-1.05-2.33l-5.16-5.1l-5.97-1.91l-1.55-2.51
		l-5.16-3.13l-1.19,0.25L66.84,144l-0.07-4.02l-2.71-2.21l0.1-8.96l-3.52-3.79l-0.63-2.16l0.27,1.34l-1.49-0.35l0.27,1.44L58,123.24
		l-0.06-8.88l-5.4-5.4l-1.8-0.27l0.74-5.28l-1.38-2.71l-3.94-5.34l-4.1-3.43l0.93-3.25l-2.35-2.48l2.03,0.8l1.25-3.54l-6.73-5.25
		l-0.93-5.85l-3.06-2.02l-2.14-5.9l0.04-1.34l60.19-5.54l-2.25,3.02L88.9,64.14z"/>
	<path id="MX-BCS" fill="#1E3250" stroke="#1E3250" stroke-width="0.5" d="M90.77,454.84l1.49,0.37l-1.8,0.58L90.77,454.84z
		 M184.67,441.89l1.73,1.75l-0.85,2.17l-2.39-2.199L184.67,441.89z M211.13,294.41l3.23,6.5l-2.27-1.34L211.13,294.41z
		 M159.65,290.27l3.12,0.16l2.87,2.17l0.98,3.26L159.65,290.27z M200.38,290.03l1.77,1.59l-0.93,2.03l-1.57-2.15L200.38,290.03z
		 M191.74,274.37l3.33,2.59l1.03,3.7l-3.11-1.95l-1.57-2.92L191.74,274.37z M156.07,269.79l-1.55,8.55l0.66,1.33l-1.27,1.74
		l3.93,8.51l-2.89-3.11l0.98-0.99l-0.92-2.05l-3.25-0.77L156.07,269.79z M190.03,257.61l0.31,3.3l-1.11-1.84L190.03,257.61z
		 M182.83,247.79l-0.1,2.69l-1.2-0.74l-2.87,4.88l1.31-6.1L182.83,247.79z M128.55,229.37l2.09,1.9l-2.93-1.12L128.55,229.37z
		 M157.11,214.6l1.06,1l-0.34,1.22L157.11,214.6z M162.18,209.09l0.7,0.68l-0.93,0.04L162.18,209.09z M105.55,195.13h0.65l0,0
		l32.41,0.1l0,0l1.51,1.97l0,0l4.35,6.44l5.88,2.74l3.62,9.47l2.6,2.1l3.94,1.2l-1.55,3.38l3.53,3.99l-0.85,3.22l3.23,4.25l1,0.75
		l1.55-1.38l-3.45-3.58l-0.91-4.55l0.74-0.47l6.5,5.55l0.16,4.08l2.72,0.85l-0.57,2.86l2.08,2.68l-0.28,1.8l1.98,5.16l-1,3.01
		l1.31,5.21l2.02,1.3l2.64,5.51l2.56,0.31l2.76,10.16l3.71,3.68l1.86,3.51l0.5,3.27l-1.61,2.7l-0.22,3.09l3.16,8.12l1.54,1.35
		l5.55,0.83l-2.43,0.38l0.21,1.46l1.68-0.13l1.2-1.81l-0.57-4.25l2.27-0.24l1.49,2.52l4.21,2.57l0.71,3.23l3.8-0.58l-0.06,3.95
		l3.24,3.16l0.04,3.67l5.77,3.101l1.32,4.01l-1.1,5.64l-9.89,8.061l-2.72,0.7l-2.42-2.011l-2.64-9.869l-4.33-7.011l-6.19-3.279
		l-11.64-11.53l-13.36-8.24l-1.79-4.2l-4.16,1.37l-0.58-3.49l-1.92-2.66l-4.57-1.01l-0.29-5.55l-0.62,4.69h-0.73l-0.36-4.1
		l1.55-2.12l-0.68-2.72l1.85-3.89l0.35-9.03l-3.3-10.59l-2.88-2.3l-2.52-4.8l-2.22,0.39l-4.55-2.31l-6.98-6.02l2.37,0.79l-5.1-2.85
		l0.17-1.29l-2.67-4.05l-0.36,1.05l-1.51-0.7l2.37-1.72l-0.4-4.1l-0.98,3.87l-1.63,1.01l0.06,1.83l-4.1-1.54l0.29-0.71l-1.44,0.22
		l-1.83,2.94l-1.54,0.15l-3.1-2.34l-1.61-3.69l-1.81-1.34l-2.21-0.57l-1.06,0.74l-3.46-4.12l-7.41-1.62l-1.33-1.45l-0.51-5.09
		l-5.67-3.12L88,202.73l-1.29,0.49l-2.67-1.52l-1.86-3.59l14.47,2.08l3.81-1.12l0.62-1.84l0.86,0.29l-0.52,2.48l0.76,1.26l4.87,3.44
		l1.08-1.96l2.1,0.72l2.45,3.09l0.59-1.17l-1.57-1.62l0.12-1.05l0.81,0.24l-0.53-3.7l-1.75-1.44l-0.83,3.03l-3.18,1.21l-1.64-1.24
		l0.85-0.04l-0.74-1.98l1.17-1.74L105.55,195.13z"/>
	<path id="MX-CAM" fill="#1E3250" stroke="#1E3250" stroke-width="0.5" d="M671.68,444.21l-0.18,1.4l-1.61-0.36l-1.64,2l-0.54-0.67
		l-2.41,1.45l-1.63-0.471L671.68,444.21z M700.38,390.75l-0.16,7.3l4.12,0.51l0.97,2.011l2.5,0.819l2.091-1.55l5.3,9.33l3.859,2.1
		l4.341,6.07l1.22,3.891l0,0l6.64,6.06l3.41,4.67l-0.18,5.851l-1.58,1.329l-0.58,7.641l1.62,5.05l0.18,7.75l-3.01,4.1l0.25,2.46l0,0
		l-0.021,3.33l-45.939-0.01l0,0l0.02-1.64l-4.66-1.16l-3.979-3.11l-3.65-0.8l-2.79,0.13l-0.27,3.84l-2.97,0.761l-5.021-1.631
		l-4.34-3.75l-3.68-8.14l-0.98,0.38l-3.12-2.12l-1.77-4.63l0,0l12.96-1.17l2.37,2.21l-0.601,1.18l-1.54-1.329l-1.399,0.43
		l0.069,2.21l1.49-1.33l2.101,1.6l6.789,1.67l6.761-3.05l1.8-4.55l-1.33-1.7l-2.07,0.11l1.21-3.28l-4.33,3.3l2.5-2.569l11.601-7.11
		l4.859-4.53l0.82-9.12l6.38-7.51l-0.979-2.71l-0.271-11.609L700.38,390.75z"/>
	<path id="MX-CHP" fill="#1E3250" stroke="#1E3250" stroke-width="0.5" d="M607.17,515.28l0.18-0.641l0,0l1.101,0.75L607.17,515.28z
		 M606.8,511.27l-0.01-0.779l0,0l0.4-3.57l-1.16-3.78l2.189-6.279l2.94-2.62l1.87-7.45l0,0l6.609-4.88l0,0l5.771-8.61l0.75-7.08
		l2.2-0.88l4.3,2.891l2.79-0.091l-1.54,5.33l2.07,2.181l-0.301,1.869l2.591,0.11l2.72,3.78l10.729-8.2l3.29-1.19l0.5-3.27l3.71,0.45
		l0.71-1.84l1.891,1.26l2.99-0.54l1.109,3.37l2.561,1.26l1.27,3.3l-0.75,2.66l5.84,2.39l1.101,1.79l-1.29,1.311l0,0l-0.08,1.04
		l1.74,1.08l1.77-0.04l5.43,7.21l8.69,4.47l1.729,5.41l0.82-0.1l-0.33,1.18l5.24,1.37l-0.7,9.069l-32.14-0.27l-12.25,21.07l3.87,5
		l-2.2,2.239l0.13,2.49l-1.05,1.38l0.92,4.29l-1.96,3.42l-15.55-16.479l-17.4-15l-9.9-6.061l1.95-0.13l-0.979-2.31l-4.66-1.011
		L606.8,511.27z"/>
	<path id="MX-CHH" fill="#1E3250" stroke="#1E3250" stroke-width="0.5" d="M374.96,164.76l-2.26,4.16l1.73,0.96l0.01,1.04l-2.2,1
		l-1.73,4.01l-3.05,1.72l-2.27,3.78l-0.56,1.1l0.87,1.42l-3.6,8.19l-2.37-0.33l-0.01,1.55l1.12,0.18l0.49,1.46l-2.24,0.86l0.99,4.59
		l-1.09,1.16l0.81,4.52l1.37,1.33l0.51,10.7l2.37,1.47l-0.41,1.54l-4.14,1.95l0.34,2.11l3.23,3.73l0,0l-2.76,0.06l-0.63-1.01
		l-5.6,1.29l-4.92-2.41l-1.04,1.06l2.02,0.78l-0.07,1l-2.5,0.39l-2.66,2.06l-1.89,3.08l-0.01,2.11l-3.89,0.95l-4.65-3.29l-4.5-0.77
		l-2.67,2.32l-5.72-0.31l-1.1-1.89l-1.64,0.29l-3.32-2.45l-1.94-0.23l-2.5-3.23l-4.91-2.41l-0.98,1.83l-1.76,0.57l-2.35,8.83
		l1.24,2.03l-3.17,2.32v1.36l-1.41,0.2l0.36,2.14l-2.64,4.25l1.58,3.46l-2.12,3.42l-4.76,4.33l-1.31-1.49l-5.21-1.63l-0.31-1.32
		l-2.63,1.43l0,0l-5.62-10.91l-9.36-2.13l-4.4-11.58l-1.42-0.92l0.08-6.18l-1.06-2.33l-1.83,0.01l-0.12-2.9l-5.57-0.16l0,0
		l-3.78,0.23l-3.54-1.84l1.48-9.18l-3.23-7.59l-3.33-2.35l0.32-4.11l-2.09-2.98l-1.82-0.74l0.2-3.45l-1.75-1.68l1.04-1.39l3.98-1.34
		l3.04,1.42l5.05-3.67l-3.8-2.67l-0.41-4.85l1.67-3.66l-0.42-6.48l1.49-1.26l0.1-2.69l1.67-1.18l0.71-10.12l-0.66-6.22l-1.66-1.98
		l1.86-8.61l-1.45-1.33l0.97-3.33l-2.98-8.8l0.56-2.42l-1.04-0.93l-0.09-2.42l-2.73-2.65l1.61-0.69l0.47-3.08l-2.4-6.36l0.94-1.28
		l-1.05-1.04l0,0l14.1-0.04V85.06h42.05l2.59,0.94l1.88,1.59l3.64,6.81l6.26,2.94l4.48,5.63l4.35,2.61l1.21,2.71l3.43,2.52
		l0.38,1.37l7.2,3.11l5.38,5.22l1.05,5.18l3.69,4.28l0.8,9.66l3.53,6.75l3.85,3.57l3.63,1.29l1.79,2.97l2.83,1.87l6.76,1.8
		l1.62,2.38l4.07,0.68L374.96,164.76z"/>
	<path id="MX-COA" fill="#1E3250" stroke="#1E3250" stroke-width="0.5" d="M463.62,200.41l-4.22,2.76l-9.19-0.66l-3.37,5.57
		l-0.13,3.08l-6.15,0.91l-1.189,1.04l-1.83,2.98l0.25,3.34l2.82,2.07l1.29-3.17l2.68,1.55l0.42,5.13l-0.84,2.24l-2.19,2.96
		l-3.2-0.04l-2.609,1.7l-3.51,0.28l-4.33,6.05l0.02,1.3l7.24,6.8l1.05,3.11l2.66,1.87l-0.99,2.9l1.08,4.25l4.08,0.88l0.91,3.77
		l4.1,2.73l-0.51,1.05l3.6,0.63l1.771,2.07l-1.24,2.24l-5.35-0.91l-1.311-1.53l-1.739-0.17l-2.44,1.69l-1.7,3.22l0.98,5.09
		l-2.771,0.82l-0.029,2.03l2.14,4.17l-1,3.26l0,0l-2.12-0.47l-2.37,1.47l-2.09-0.81l-4.54-5.88l-2.96-0.37l-6.021,1.37l-0.619-3.56
		l-2.631,0.09l-4.119-4.73l-5.04-2.68l-9.4-0.61l-5.4,1.07l-0.65,2.16l0,0l-3.63,3.04l-0.29,4.38l-5.57-1.3l-4.72-2.79l-1.16-3.98
		l-4.8-5.79l-0.63-3.15l3.62-1.81l-2.72-3.17l3.66-6.07l-1.2-4.47l0.23-4.27l-1.68-3.95l0.27-4.32l-1.38-3.97l-3.12-3.34l-4.92-2.6
		l0,0l-3.23-3.73l-0.34-2.11l4.14-1.95l0.41-1.54l-2.37-1.47l-0.51-10.7l-1.37-1.33l-0.81-4.52l1.09-1.16l-0.99-4.59l2.24-0.86
		l-0.49-1.46l-1.12-0.18l0.01-1.55l2.37,0.33l3.6-8.19l-0.87-1.42l0.56-1.1l2.27-3.78l3.05-1.72l1.73-4.01l2.2-1l-0.01-1.04
		l-1.73-0.96l2.26-4.16l0,0l1.38-0.479l1.2,1.79l4.13-0.14l3-5.53l3.24-1.27l-1-1.1l0.6-2.57l1.66-1.46l0.24-3.45l3.42-6.34
		l3.12-0.04l0.78-1.09l2.68,0.52l2.189-3.25l5.15,2.48l7.3-0.51l4.36,1.57l2.6-1.62l0.19,1.49l1.979-0.84l0.2,1.05l1.29-0.32
		l0.85,3.15l1.58,0.38l-0.279,1.53l0.609,0.44l1-1.54l-0.04,3.03l4.681,1.72l1.3,2.52l5.34,3.59l0.521,2.1l2.38,1.79l0.75,4.62
		l2.88,4.02l0.899,4.05l2.58,2.22l0.271,1.97l1.24,0.37l-0.771,0.58l1.92,5.79l2.03,2.31l3.14,1.37l3.61,4.59L463.62,200.41z"/>
	<path id="MX-COL" fill="#1E3250" stroke="#1E3250" stroke-width="0.5" d="M372.28,439.49l-2.47,2.24l-1.4-0.03l0.03,1.79
		l-2.54,2.88l0,0l-5.51-4.36l-9.2-4.13l0.3-2.03l-1.1-0.6l-1.84,0.94l-6.53-2.58l0.54-0.511l0,0l1.92,0.051l1.48-1.79l1.7,0.37
		l1.35-1.421l6.72-0.39l3.1-2.32l4.66,0.11l6.34-3.96l0.32,3.91l2.25,2.09l-0.99,6.24L372.28,439.49z"/>
	<path id="MX-DF" fill="#1E3250" stroke="#1E3250" stroke-width="0.5" d="M488.1,436.52l-3.3,0.73l-0.91-0.8l-1.93,1.21l-2.66-0.93
		l0,0l-2.72-5.36l3.17-2.75l2.79-4.44l2.33,4.891l3.16,3.38L488.1,436.52z"/>
	<path id="MX-DUR" fill="#1E3250" stroke="#1E3250" stroke-width="0.5" d="M280.5,258.08l2.63-1.43l0.31,1.32l5.21,1.63l1.31,1.49
		l4.76-4.33l2.12-3.42l-1.58-3.46l2.64-4.25l-0.36-2.14l1.41-0.2v-1.36l3.17-2.32l-1.24-2.03l2.35-8.83l1.76-0.57l0.98-1.83
		l4.91,2.41l2.5,3.23l1.94,0.23l3.32,2.45l1.64-0.29l1.1,1.89l5.72,0.31l2.67-2.32l4.5,0.77l4.65,3.29l3.89-0.95l0.01-2.11
		l1.89-3.08l2.66-2.06l2.5-0.39l0.07-1l-2.02-0.78l1.04-1.06l4.92,2.41l5.6-1.29l0.63,1.01l2.76-0.06l0,0l4.92,2.6l3.12,3.34
		l1.38,3.97l-0.27,4.32l1.68,3.95l-0.23,4.27l1.2,4.47l-3.66,6.07l2.72,3.17l-3.62,1.81l0.63,3.15l4.8,5.79l1.16,3.98l4.72,2.79
		l5.57,1.3l0.29-4.38l3.63-3.04l0,0l0.39,2.17l3.44,3.09l-0.81,4.9l1.21,0.45l1.02,4l-0.97,0.52l0.36,1.46l-7.75,0.35l-0.76,0.91
		l-3.66-1.57l-3.37,0.7l-6.13-0.97l-8.91,9.5l-2.4,0.72l1.42,12.52l-5.12,5.311l-1.38,7.65l-1.98,3.1l0.61,9.92l-3.46,2.05
		l-2.17,4.561l0,0l-3.82,2.71l-8.36-7.761l-2.85,3.381l-2.2-4.58l3.39-2.63l0.48-2.131l-1.67-0.34l-0.58-2.46l-3.42-0.76l-1.53-1.75
		l-3.13,1.63l-2.2-2.64l0,0l-2.12-2.181l-3.49,0.391l-2.7-6.62l-1.22-6.66l-3.7-4.84l-1.87-7.5l-3-6.47l-3.42-2.6l-4.04-1.17
		l-3.46,3.16l-3.56,0.43l-4.93-11.99l-1.32-0.31l-0.89-2.61l-2.83,0.22l-1.2-0.96l0.33-1.44l-3.44-5.46l0.6-7.08l1.33-3.21
		l-1.15-1.32l2.92-2.99L280.5,258.08z"/>
	<path id="MX-GUA" fill="#1E3250" stroke="#1E3250" stroke-width="0.5" d="M465.16,371.7l0.39,2.55l-1.149,1.91l2.479,0.609
		l-0.75,2.61l-3.11,1.87l-1.729-1.75l-1.521,0.56l-2.25,3.341l-0.569,3.05l-0.82-0.48l-0.88,1.5l-8.8,0.61l-0.72,1.41l-0.65,3.8
		l1.75,3.21l-0.01,2.71l3.83,4.94l0,0l0.35,6.38l-3.24,1.43l-1.83,2.37l-0.17-1.74l-3.319,1.5l-7.931-0.93l-0.51-2.91l-3.6,0.16
		l-1.551,1.92l-4.34-0.98l-0.939-5.47l1.67,0.25l-2.431-2.55l-4.159,0.54l-2.011,2.8l-3.6-0.59l-1.18,0.7l-1.25-0.54l-0.32-3.25
		l-2.31-1.01l0,0l2.17-6.2l-3.771-4.61l3.94-4.29l1.91-3.95l2.489-1.91l1.53-4.1l1.9-0.46l0.67-1.37l-0.931-2.78l1.4-6.229l1.2-1.36
		l-0.74-0.83l1.22-1.29l0,0l0.971,0.631l0.81-0.94l0,0l12.26,3.479l7.71,5.15l4.271-0.64l0.47-2.95l1.08-0.73l3.89,1.28l5.601,4.73
		l2.2-0.71l2.289,0.88L465.16,371.7z"/>
	<path id="MX-GRO" fill="#1E3250" stroke="#1E3250" stroke-width="0.5" d="M449.19,436.82l0.3,2.939l-1.79,6.15l2.22,3.55
		l-1.91,2.54l3.5,0.72l1.79,3.04l3.17-2.609l2.471-0.58l-0.341-1.98l7.33-1l0.44-1.56l1.76-0.32l-0.36-1.72l3.7,1.7l1.63-0.37l0,0
		l-0.14,1.95l2.64,0.579l2.021,2.671l5.51,0.699l2.3,2.33l0,0l-0.05,1.23l2.7,1.8l1.22,2.25l2.99-0.2l-0.62,1.771l4.21,1.779
		l0.12,1.07l4.28-1.04l3.22,2.78l0,0l-1.91,5.37l2.73,6.06l0.6,4.58l-1.1,2.89l2.85,1.29l0.34,3.08l2.21,2.94l-0.92,2.88l-3.06,1.81
		l-0.18,1.351l-4.11,3.59l-0.46,2.02l-4.641,3.54l0,0l-5.489-6.109l-3.3,0.54l-10.62-3.2l-8.74-1.22l-4.89-2.841l0.39-1.079
		l-1.351,0.71l-2-2.171l-26.59-9.479l-3.63-3.95l-6.24-2.63l-0.68-1.93l-4.13-1.761l-3.99-5.569l-6.01-2.8l-2.64,0.68l0,0l-0.71-5.2
		l6.479-2.62l2.44,0.09l-1.66-0.29l-0.48-5.859l0.301-1.15l1.64-0.819l0.53,0.819l1.22-1.51l0.06,1.05l2.83-0.89l3.2,2.81l5.7-1.42
		l6.92,1.09l1.27,2.48l2.061-0.98l5.76,3.36l0.771-1.01l-2.83-3.79l-1.521-7.38l1.57-1.881l0.99,1.61l4.46-5.91L449.19,436.82z"/>
	<path id="MX-HID" fill="#1E3250" stroke="#1E3250" stroke-width="0.5" d="M496.34,374.47l1.141,0.92l-0.301,2.66l1.83,1.71
		l5.46,0.45l2.53,3.42l-1.86,2.46l-0.33,3.9l-1.449,0.229l-1.801-1.39l-3.359,3.56l-1.16,7.04l1.17,2.59l1.38,0.86l9.43-8
		l2.29,0.601l0,0l0.07,3l-3.77,3.899l-3.62,1.851l0.7,1.409l2.119-0.479l0.46,2.189l-2.35,7.881l0.7,4.729l0,0l-2.38-0.5
		l-2.271,2.68l-8.1,1.761l0,0l1.47-7.301l-5.81,0.61l-1.721,2.58l-0.89-0.11l-0.85-2.67l1.96-1.13l0.64-5.62l-7.21,2.391l-0.53,3.75
		l-0.689,0.76l-2.13-1.01l-0.17,2.239l-1.21,0.99l-0.301-3.83l-2.25-3.16l0.7-0.989l-1.51-3.131l-5.42-1.52l-3.811-2.88l0,0
		l1.011-6.54l7.739-3.5l-0.63-2.021l3.12-4.18l1.03-4.88l1.649-1.43l1.21,0.71l4.11-1.29l1.28-3.13l0,0l2.26-0.75l1.14,2.399
		l2.421,1.061l1.35-2.38l0.92,1.31l2.91-4.8L496.34,374.47z"/>
	<path id="MX-JAL" fill="#1E3250" stroke="#1E3250" stroke-width="0.5" d="M390.24,367.07l2.05-1.12l4.21,0.38l3.91,2.43l4.28-1.1
		l3.27-4.05l4.28-1.971l-1.96-2.14l-0.021-2.19l0,0l3.54,0.91l7.17,4.63l0,0l-1.22,1.29l0.74,0.83l-1.2,1.36l-1.4,6.229l0.931,2.78
		l-0.67,1.37l-1.9,0.46l-1.53,4.1l-2.489,1.91l-1.91,3.95l-3.94,4.29l3.771,4.61l-2.17,6.2l0,0l-10.73,1.55l-8.55,5.91l-3.96-1.71
		l-0.3,1.149l-1.29,0.07l-0.41,4.7l3.22-0.23l3.87,1.58l0.61,2.21l-1.26,1.55l1.91,4.2l-0.63,2.59l3.36-0.069l0.67,2.239
		l-3.21,4.811l-3.68,0.14l-7.81,6.53l-2.08-1.771l-2.22,1.7l-3.21,0.11l0,0l-0.87-3.5l0.99-6.24l-2.25-2.09l-0.32-3.91l-6.34,3.96
		l-4.66-0.11l-3.1,2.32l-6.72,0.39l-1.35,1.421l-1.7-0.37l-1.48,1.79l-1.92-0.051l0,0l-3.27-0.859l0.39-1.65l-2.05,0.33l-3.89-2.79
		l-1.43-4.479l-6.08-5.48l-5.44-8.76l-0.13-3.43l-3.05-3.181l-0.46-1.649l2-1.641l7.41-1.16l1.5-1.1l0.66-1.61l-1.59-2.029l0,0
		l4.45-5.62l3.5,0.02l4.44-2.649l2.71,2.159l3.08,0.78l7.72,8.34l-1.96-5.55l1.27-0.82l1.5-8.51l4.04-0.229l5.88-2.931l0.56-6.52
		l-3.13-5.53l-4.5-0.6l-0.96-4.33l-2.84-1.73l-1.65,0.521l-0.46-3.021l1.06-5.37l0,0l1.08-1.21l1.35,0.341l0.36-3.03l3.1-1.17
		l-0.25,4.1l1.8-1.14l1.03-1.18l-1.79-6.061l4.82-1.91l1.81,1.01l-4.41,7.82l-0.04,3.32l1.21,1.78l1.16,0.17l0.38-1.16v-7.04
		l4.06-1.24l2.82,1.83l0.6,1.93l-3.82,7.33l0.49,1.11l5.5-0.5l3.32-3.62l-1.24-1.03l0.31-1.87l1.88-0.729l2.17,0.17l-0.35,2.37
		l3.16,0.96l-1.89,6.38l-5.28,2.57l-4.69,3.8l-0.15,4.26l-3.41,2.34l0.85,2.48l2.62,0.189l0.24,1.601l-5.21,2.93l2.67,1.12l2.44,3
		l2.26-0.19l2.9,1.61l3.43-1.229l1.71,0.43l1.58-0.891l0.96-2.56l2.89,0.01l5.87-4.31l1.44-4l-2.78-1.78L390.24,367.07z"/>
	<path id="MX-MEX" fill="#1E3250" stroke="#1E3250" stroke-width="0.5" d="M463.14,403.87l3.811,2.88l5.42,1.52l1.51,3.12l-0.7,1
		l2.25,3.16l0.301,3.83l1.21-1l0.17-2.24l2.13,1.011l0.689-0.771l0.53-3.75l7.21-2.39l-0.64,5.63l-1.96,1.12l0.859,2.67l0.88,0.109
		l1.721-2.579l5.819-0.61l-1.47,7.3l0,0l2.25,2.18l0,0l0.96,11.561l0,0l-3.51,2.24l-2.55-0.94l-1.91-2.42l0,0l-0.07-4.07l-3.16-3.39
		l-2.33-4.88l-2.79,4.439l-3.17,2.75l2.721,5.36l0,0l-6.2,10.58l0,0l-1.63,0.37l-3.7-1.7l0.36,1.72L466.39,448l-0.439,1.56l-7.33,1
		l0.34,1.98l-2.47,0.58l-3.17,2.609l-1.79-3.04l-3.5-0.72l1.909-2.54l-2.22-3.55l1.79-6.15l-0.3-2.939l0,0l5.27-9.84l-0.439-5.181
		l-1.521-2.42l3.24-0.91l1.61-3.76l-0.82-3.859l0,0l2.55-0.311l1.92-2.01l-0.83-2.69l1.78,0.17L463.14,403.87z"/>
	<path id="MX-MIC" fill="#1E3250" stroke="#1E3250" stroke-width="0.5" d="M407.98,402.23l2.31,1.01l0.32,3.25l1.25,0.54l1.18-0.7
		l3.6,0.59l2.011-2.8l4.159-0.54l2.431,2.55l-1.67-0.25l0.939,5.47l4.34,0.98l1.551-1.92l3.6-0.16l0.51,2.91l7.931,0.93l3.319-1.5
		l0.17,1.74l1.83-2.37l3.24-1.43l-0.35-6.38l0,0l5.88,6.699l0,0l0.819,3.86l-1.609,3.75l-3.24,0.91l1.53,2.43l0.43,5.181l-5.27,9.84
		l0,0l-2.25,1.38l-4.46,5.91l-0.99-1.61l-1.57,1.88l1.521,7.38l2.829,3.79l-0.77,1.01l-5.76-3.359l-2.061,0.979l-1.26-2.489
		l-6.92-1.091l-5.7,1.42l-3.2-2.81l-2.83,0.89l-0.06-1.06l-1.22,1.51l-0.53-0.819l-1.65,0.819l-0.3,1.16l0.48,5.86l1.66,0.29
		l-2.44-0.091l-6.479,2.62l0.71,5.2l0,0l-1.091,1.29l-29.3-9.12l-3.81-2.319l-1.77-4.11l-2.87-2.23l-1.2-2.729l0,0l2.54-2.88
		l-0.03-1.79l1.4,0.03l2.47-2.24l0,0l3.21-0.11l2.22-1.7l2.08,1.771l7.81-6.53l3.68-0.14l3.21-4.811l-0.67-2.239l-3.36,0.069
		l0.63-2.59l-1.91-4.2l1.26-1.55l-0.61-2.21l-3.87-1.58l-3.22,0.23l0.41-4.7l1.29-0.07l0.3-1.149l3.96,1.71l8.55-5.91L407.98,402.23
		z"/>
	<path id="MX-MOR" fill="#1E3250" stroke="#1E3250" stroke-width="0.5" d="M479.3,436.73l2.66,0.93l1.93-1.21l0.91,0.8l3.3-0.73l0,0
		l1.91,2.421l2.55,0.939l3.511-2.24l0,0l-2.761,7.08l1.271,7.84l-0.55,0.721l-3.271-2.521l-5.34,4.79l0,0l-2.3-2.34l-5.51-0.69
		l-2.021-2.68l-2.64-0.58l0.149-1.95l0,0L479.3,436.73z"/>
	<path id="MX-NA" fill="#1E3250" stroke="#1E3250" stroke-width="0.5" d="M303.72,376.47l-0.63,1.19l-0.46-0.71L303.72,376.47z
		 M298.54,372.12l1.96,1l-0.65,1.14l-2.68-1.399L298.54,372.12z M293.12,366.82l2.62,0.699l0.91,2.681l-2.97-0.891L293.12,366.82z
		 M317.4,343.32l1.69,10.3l-3.49-9.021l2.14,1.28L317.4,343.32z M324.6,330.53l2.2,2.64l3.13-1.63l1.52,1.75l3.42,0.76l0.58,2.47
		l1.67,0.341l-0.47,2.13l-3.4,2.63l2.2,4.58l2.85-3.38l8.35,7.77l3.82-2.72l0,0l1.35,4.16l0,0l-1.06,5.37l0.46,3.02l1.66-0.52
		l2.84,1.72l0.96,4.34l4.5,0.6l3.13,5.53l-0.56,6.521l-5.89,2.93l-4.04,0.229l-1.5,8.511l-1.27,0.819l1.96,5.551l-7.71-8.341
		l-3.08-0.79l-2.71-2.159l-4.44,2.649l-3.51-0.01l-4.45,5.62l0,0l-1.22-1.75l-1.35,0.66l-3-0.99l5.16-7.06l1.02,0.35l1.14-1.62
		l-0.44-6.95l1.19-3.939l-6.32-3.7l-4.4-8.641l-0.54-5.859l0.8-0.38l3.36,3.08l0.3-1.521l-2.64-0.88l0.11-1.53l-1.1,0.05
		l-1.33-9.829l0,0l5.56,1.81l0.13-2.93l-2.36-4.3L324.6,330.53z"/>
	<path id="MX-NLE" fill="#1E3250" stroke="#1E3250" stroke-width="0.5" d="M466.54,203.14l-1.93,2.07l-2.78,0.8l-0.7,2.55
		l4.601,0.64l-1.12,2.3l1.27,0.87l0.021,3.84l1.149,1.13l0.42,3.19l-2.45,3.78l0.131,1.12l3.239,1.39l-0.699,4.51l2.35,0.85
		l0.84,1.9l1.88,0.22l3.061,6.63l1.41-0.13l1.109,2.62l2.07-0.59l0.58,2.67l-0.891,0.33l4.471,1.57l1.84,2.93l8.75-1.08l0.93,2.48
		l-0.1,10.08l3.41,2.24l-6.511,6.22l-4.38,0.85l-1.74,3.17l-2.8-0.22l-1.12-1.21l-2.97,2.78l1.271,2.6l-2.67,4.05l-1.12,0.45
		l-0.761-1.39l-2.63,3.11l-1.76-0.1l-1.3,2.13l-4.86,2.62l-0.689,2.1l2.05,0.19l1.26,2.62l-0.86,6.77l5.301,8.84l-2.25-0.439
		l-2.46,2.579l-3.261-0.529l-2.31,1.229l-2.47,5.54l0.18,4.61l-3.09-0.38l-0.681,2.8l0,0l-3.899-0.74l-2.34,2.8l-2.74-2.189
		l-1.32-7.01l1.15-5.601l-1.08-2.35l0.21-4.37l-5.31-9.33l1.199-1.57l-0.159-2.16l-2.44-0.31l-1.72-2.32l0,0l0.55-0.42l0,0l1-3.26
		l-2.14-4.17l0.029-2.03l2.771-0.82l-0.98-5.09l1.7-3.22l2.44-1.69l1.739,0.17l1.311,1.53l5.35,0.91l1.24-2.24l-1.771-2.07
		l-3.6-0.63l0.51-1.05l-4.1-2.73l-0.91-3.77l-4.08-0.88l-1.08-4.25l0.99-2.9l-2.66-1.87l-1.05-3.11l-7.24-6.8l-0.02-1.3l4.33-6.05
		l3.51-0.28l2.609-1.7l3.2,0.04l2.19-2.96l0.84-2.24l-0.42-5.13l-2.68-1.55l-1.29,3.17l-2.82-2.07l-0.25-3.34l1.83-2.98l1.189-1.04
		l6.15-0.91l0.13-3.08l3.37-5.57l9.19,0.66l4.22-2.76l0,0L466.54,203.14z"/>
	<path id="MX-OAX" fill="#1E3250" stroke="#1E3250" stroke-width="0.5" d="M543.58,453.39l1.68-5.35l2.15,1.51l-0.58,1.271
		l1.25,3.64l4.65,1.98l1.02,1.89l1.38,0.09l-0.54,0.9l3.17-0.431l5.13,1.25l0.78,5.04l-2.52,4.37l2.34,6.32l6.09-0.24l8.3-4.04
		l1.37,0.84l-1.9,2.471l6.811,7.199l0.3,2.931l28.57,1.75l0,0l-1.87,7.45l-2.94,2.619l-2.189,6.29l1.16,3.78l-0.4,3.57l0,0
		l-2.43,1.24l-2.9-1.211l-0.89-1.51l-1.78,2.061l1.12,0.96l4.37,0.319l3.069,2.29l0,0l-0.18,0.641l0,0l-7.67-2.98l-7.69-1.12
		l3.53-3.13l-2.38-0.84l-3.42,2.18l1-1.33l-2.25-2.59l-1.67,0.44l-1.3,2.229l-1.25-0.029l-1.761,2.54l8.381,0.52l-9.48,0.57
		l-3.29,1.24l-3.86,4.189l-13.34,3.96l-6.95,3.68l-7.89,0.671l-7.55-2.091l-8.78-4.72l-14.1-1.41l-11.12-6.64l-8.49-2.22l0,0
		l4.641-3.551l0.46-2.01l4.109-3.59l0.19-1.35l3.05-1.811l0.92-2.88l-2.21-2.94l-0.34-3.079l-2.851-1.29l1.101-2.9l-0.61-4.58
		l-2.729-6.06l1.91-5.37l0,0l4.84-3.11l4.91-0.6l4.09,1.76l1.699-2.07l-2.789-2.399l2.029-4.33l3.15-0.88l0.71,1.31l-1.33,1.76
		l4.67,7.2l4.38-5.33l5.08,0.601l1.89-2.37l4.04-0.851L543.58,453.39z"/>
	<path id="MX-PUE" fill="#1E3250" stroke="#1E3250" stroke-width="0.5" d="M511.31,395.48l2.9-6.101l3.21,0.07l-0.01,1.79
		l-1.23,0.75l1.84,0.71l-0.21,1.68l3.521,3.18l-1.5,2.471l-1.61-0.92l-1.17,0.76l0.521,6.38l2.72,0.33l1.45,1.979l3.649-4.01
		l7.061,2.48l-6.41,14.979l1.17,4.79l7.99,3.08l0.58,1.87l-0.69,0.82l-4.82-0.221l0.33,7.021l-1.93,2.96v2.99l1.21,1.84l3.811,1.109
		l1.689,3.881l1.43,0.1l2.341-1.85l2.58,0.83l1.85,2.159l0,0l-2.73,4.29l-4.04,0.851l-1.89,2.37l-5.08-0.601l-4.38,5.33l-4.67-7.2
		l1.33-1.76l-0.71-1.31l-3.15,0.88l-2.029,4.33l2.789,2.399l-1.699,2.07l-4.09-1.76l-4.91,0.6l-4.84,3.11l0,0l-3.211-2.78
		l-4.279,1.04l-0.13-1.08l-4.2-1.78l0.609-1.77l-2.979,0.2l-1.22-2.25l-2.7-1.801l0.05-1.22l0,0l5.34-4.79l3.271,2.521l0.55-0.721
		l-1.271-7.84l2.761-7.08l0,0l-0.95-11.56l0,0l1.86,0.08l6.069,6.38l4.061,2.24l3.93-2.82l2.8,0.9l2.641-3.17l4.34-0.74l0.279-1.15
		l-3.13-3.21l-2.96-0.05l0.13-1.73l-4.81-4.47l-2.65,2l-2.06-0.38l0,0l-0.7-4.729l2.35-7.881l-0.46-2.189l-2.119,0.479l-0.7-1.409
		l3.62-1.851l3.77-3.899L511.31,395.48z"/>
	<path id="MX-QUE" fill="#1E3250" stroke="#1E3250" stroke-width="0.5" d="M483.66,377.61l-1.28,3.13l-4.11,1.29l-1.21-0.71
		l-1.649,1.43l-1.03,4.88l-3.12,4.18l0.63,2.021l-7.739,3.5l-1.011,6.54l0,0l-1.189,2.14l-1.78-0.17l0.83,2.69l-1.92,2.01
		l-2.55,0.31l0,0l-5.88-6.699l0,0l-3.83-4.94l0.01-2.71l-1.75-3.21l0.65-3.8l0.72-1.41l8.8-0.61l0.88-1.5l0.82,0.48l0.569-3.05
		l2.25-3.341l1.521-0.56l1.729,1.75l3.11-1.87l0.75-2.61l-2.479-0.609l1.149-1.91l-0.39-2.55l0,0l-0.59-0.57l2.54-1.27l2.729,3.55
		l5.01,0.109l1.061-2.77l1.84-0.41L483.66,377.61z"/>
	<path id="MX-ROO" fill="#1E3250" stroke="#1E3250" stroke-width="0.5" d="M791.9,396.29l-2.21,4.06l-4.49,4.37l-0.54-3.62
		l2.29-3.75l2.229,0.351L791.9,396.29z M731.37,466.16l-0.25-2.46l3.01-4.101l-0.18-7.75l-1.62-5.05l0.58-7.64l1.58-1.33l0.18-5.85
		l-3.41-4.671l-6.64-6.06l0,0l1.64-4.81l3.54-0.171l3.82-2.439l3.62-0.45l1.92-1.78l1.08,0.92l1.91-2.609l7.29-3.021l1.75-3.27
		l2.3,1.64l-0.25-2.189l1.5-2.761l5.359,0.101l7.96-5.351l3.62-8.329l-1.229-4.171l1.49-4.779l-0.33-5.311l0,0l7.67,1.8l3-1.399
		l0.239-3.01l2.33,0.739l3.07,4.091l0.97,4.05l1.391-2.391l-0.73-1.97l0.65,0.22l-0.29,5.87l1.39,1.65l-5.28,10.53l-7.279,6.689
		l-4.21,6.63l-1.41,3.98l1.21,5.12l-0.58,1.37l-0.85,0.829l1.399-2.25l-0.68-0.97l-0.98,3.08l-2.029,0.45l-1.62,2.72l-2.43,0.42
		l-0.19,1.9l1.85,0.93l0.011,1.63l1.479-1.34l2.19,0.311l0.56-1.19l2.26,0.59l-0.739,2.5l-1.98,1.91l-0.39-0.82l-2.46,1.48
		l-1.28,3.729l1.71,0.761l2.03-2.79l1.25-0.221l-0.341,1.4l1.32-1.2l-2.21,2.63l-7.64,26.431l-1.37-0.48l0.45-3.4l-1.48-1.17
		l0.19-1.029l-3.66-2.011l2.01-4.199l-1.78-5.04l-3.35,3.96l0.99-0.181l-3.24,5.92h-4.729l-0.921,0.82L742.46,463l-3.62,3.51
		l0.11,1.601l-4.47-3.5L731.37,466.16z M782.11,369.68l-4.221,2.09l-1.39-1.279l3.12,0.45L782.11,369.68z"/>
	<path id="MX-SLP" fill="#1E3250" stroke="#1E3250" stroke-width="0.5" d="M438.32,289.89l1.72,2.32l2.44,0.31l0.159,2.16
		l-1.199,1.57l5.31,9.33l-0.21,4.37l1.08,2.35l-1.15,5.601l1.32,7.01l2.74,2.189l2.34-2.8l3.899,0.74l0,0l2.551,5.05l-0.11,6.61
		l1.29,1.609l9.67,2.36l1.57-2.02l4.5,3.26l3.91,6.55l6.1,0.09l0.71-0.8l1.89,1.19l3.101-0.28l0,0l0.819,1.189l6.79,1.33l1.86,4.29
		l-3.6,0.771l0.06,3.22l-2.85,0.43l1.51,0.38l-0.36,2.021l2.261,2.2l-4.46,3.109l0.89,3.311l1.33,0.22l0.14,3.34l0,0l-1.68-0.02
		l-2.91,4.8l-0.92-1.31l-1.35,2.38l-2.421-1.061l-1.14-2.399l-2.26,0.75l0,0l-5.91-7.271l-1.84,0.41l-1.061,2.77l-5.01-0.109
		l-2.729-3.55l-2.54,1.27l0.59,0.57l0,0l-2.641,1.33l-2.289-0.88l-2.2,0.71l-5.601-4.73l-3.89-1.28l-1.08,0.73l-0.47,2.95
		l-4.271,0.64l-7.71-5.15l-12.26-3.479l0,0l2.9-7.271l-1.381-3.859l3.49-8.95l-2.68-2.53l-5.91,5.311l-4.51,0.68l-2.4-4.02
		l-3.38-0.92l-6.229-4.851l1.21-6.76l-1.141-5.521l1.53-1.869l2.32,0.93l2.939-0.58l1.37-2.47l5.84-2.971l3.48-5.14l4.74-1.59
		l2.279-4.5l-1.01-1.18l0.83-3.45l3.87-1.98l1.8-3.79l2.56-0.43L438.32,289.89z"/>
	<path id="MX-SIN" fill="#1E3250" stroke="#1E3250" stroke-width="0.5" d="M255.97,275.87l1.93,1.47l0.34,4.73l-2.25-3.29
		L255.97,275.87z M251.15,273.82l5.01,5.49l0.77,2.52L251.15,273.82z M229.02,240.72l1.03,0.12l0,0L230,242.5l1.78,1.47l0.42-1.78
		l-1.89-2.98l0,0l0.15-1.75l0.24,1.87l0.88-0.77l1.69,2.76l6.2-3.45l0.58-3.36l4.09-0.98l2.06-3.86l1.86-0.55l-0.29-2.49l3.43-5.67
		l0,0l5.56,0.16l0.12,2.9l1.84-0.01l1.05,2.33l-0.07,6.18l1.41,0.91l4.4,11.58l9.36,2.13l5.62,10.91l0,0l0.94,1.24l-2.93,2.99
		l1.15,1.32l-1.33,3.21l-0.59,7.09l3.43,5.45l-0.33,1.45l1.2,0.95l2.83-0.21l0.9,2.61l1.32,0.3l4.93,11.99l3.55-0.42l3.46-3.17
		l4.04,1.18l3.42,2.6l3,6.47l1.87,7.5l3.7,4.84l1.22,6.66l2.7,6.62l3.49-0.39l2.12,2.18l0,0l-3.41,7.141l2.36,4.3l-0.13,2.93
		l-5.56-1.81l0,0l-0.97-4.16l0.11,7.029l-3.72-5.81l-13.64-13.71l1.67,0.62l-1.45-1.15l-1.1,0.45l-2.45-5.21l-7.06-7.08l-2.02-5.12
		l-7.52-6.96l1.23-0.16l-0.34-1.11l-1.28,0.59l-14.91-10.2l7.32,4.56l0.77-2.05l-1.77-3.2l-1.28,0.03l0.11,1.39l-1.12,0.24
		l-1.09-1.43l-1.64,0.34l-1.81-2.42l-4.01-1.44l-2.1-3.81l1.83,0.89l0.69-1.18l-1.06-1.19l0.41-3.58l-1.81-3.26l-2.45-0.66
		l-2.2-2.52h-1.64l0.11-1.13l-1.25-0.58l-0.63,2.07L247.9,270l-5.4-2.7l0.15-1.12l-1.32,0.35l-1.52-2.32l0.24-1.96l-2.85-0.63
		l-0.6,2.89l-1.54-1.25l-1.72,1.24l-1.83-2.13l1.64-1.41l1.83,0.44l1.37-1.33l-0.34-1.31l-2.12,0.6l-0.87,1.83l-2.36-0.07
		l-2.09-2.69l1.21,2.36l-4.46-1.53l1.86-0.07l0.07-1.96l-3.18-1.08l-0.8-5.36l4.96-9.86l-1.4,4.09l0.74,0.38L229.02,240.72z"/>
	<path id="MX-SON" fill="#1E3250" stroke="#1E3250" stroke-width="0.5" d="M230.04,240.84l-1.03-0.12l0,0L230.04,240.84z
		 M194.32,211.62l1.49,2.21l-1.5-0.91L194.32,211.62z M152.25,158.81l2.21,6.5l-2.84,7.35l-6.81-3.64l2.25-2.09l-0.39-3.25
		l1.31-3.86L152.25,158.81z M93.33,85.85l0.79,0.76l-1.46-0.41L93.33,85.85z M89.6,84.04l3.05,2.87l0.24,1.77l-3.42-2.01L89.6,84.04
		z M240.13,98.26l1.05,1.04l-0.94,1.28l2.41,6.35l-0.47,3.09l-1.61,0.69l2.73,2.65l0.08,2.42l1.04,0.92l-0.56,2.42l2.97,8.81
		l-0.97,3.33l1.45,1.32l-1.86,8.61l1.66,1.98l0.67,6.22l-0.71,10.12l-1.67,1.19l-0.1,2.69l-1.49,1.27l0.41,6.47l-1.67,3.66
		l0.41,4.85l3.8,2.67l-5.04,3.68l-3.05-1.42l-3.98,1.34l-1.04,1.39l1.75,1.68l-0.21,3.45l1.83,0.74l2.09,2.98l-0.33,4.11l3.34,2.35
		l3.23,7.58l-1.49,9.19l3.54,1.84l3.78-0.23l0,0l-3.43,5.67l0.29,2.49l-1.86,0.55l-2.06,3.86l-4.09,0.98l-0.58,3.36l-6.2,3.45
		l-1.69-2.76l-0.88,0.77l-0.24-1.87l-0.15,1.75l0,0l-0.67,0.55l-4.78-7.71l-2.3-1.16l1.1-0.2l-1.33-1.64l-1.1-0.46l-0.3,1.82
		l-3.17,0.58l-3.72-2.03l-3.3-6.89l1.16,1.2l-0.51-3.29l-1.73-1.38l-1.8,0.92l-6.01-1.92l-4.44-3.73l-0.01-2.44l-1.85-0.56
		l-1.87-6.5l1.48-1.75l-0.99,0.67l0.86-1.89l-0.64-2.35l1.56-1.12l-7.18-2.79l-1.64,0.87l0.36,1.96l-2.19-1.44l-0.21-1.42
		l-2.66,0.48l-2.47-1.69l-2.54-2.43l-4.53-7.89l-6.32-2.76l-1.32-3.75l-4.5-4.91l1.08-0.65l0.53,1.17l0.62-1.26l-4.4-1.95
		l-1.67-2.64l-1.91-0.55l0.21-4.05l-1.61-1.939l-0.08-3.61l-4.44-1.05l0.8-3.91l-5.05-6.6l-2.12-5.14l-2.07-0.72l-0.64-8.8
		l-1.95-1.89l-1.08-5.05l-2.41-2.05l-2.54-4.66l-0.91-3.44l1.84-7.36l-1-3.43l-3.45-2.43l-0.82,0.73l-8.96-2.45l-0.82-4.81
		l-6.24-3.8l-1.74,0.72l0.38,1.07l-1.84,2.05l-2.85-0.1l-11.08-7.66l-5.24-1.9l0,0l-5.69-3.84l1.11-7.6l-1.4-1.99l2.94-6.31
		l2.66-0.13l0,0l93.65,34.22L240.13,98.26z"/>
	<path id="MX-TAB" fill="#1E3250" stroke="#1E3250" stroke-width="0.5" d="M648.22,447.61l1.771,4.63l3.12,2.12l0.979-0.38
		l3.68,8.14l4.341,3.75l5.02,1.63l2.97-0.76l0.271-3.84l2.79-0.131l3.649,0.801l3.98,3.109l4.66,1.16l-0.021,1.641l0,0l-0.21,14.5
		l-10.56,0.18l0,0l1.29-1.311l-1.101-1.79l-5.84-2.39l0.75-2.66l-1.27-3.3l-2.561-1.26l-1.109-3.37l-2.99,0.54l-1.891-1.26
		l-0.71,1.84l-3.71-0.45l-0.5,3.27l-3.29,1.19L641,481.41l-2.72-3.78l-2.591-0.11l0.301-1.869l-2.07-2.181l1.54-5.33l-2.79,0.091
		l-4.3-2.891l-2.2,0.88l-0.75,7.08l-5.771,8.61l0,0l-1.93-0.76l-1.28-7.521l-4.529-2.07l-3.891-3.38l-1.16-7.72l2.021-0.66
		l-2.271-0.39l1.891-0.891l0,0l4.46-1.51l0.14,1.24l2.66-0.47l1-1.79l3.33,0.13l0.48-1.82l4.38-0.99l5.38-0.229l0.88,0.41
		l-0.59,1.439l2.33-0.13l-1.45-1.3l6.189-0.48l5.301-4.39L648.22,447.61z"/>
	<path id="MX-TAM" fill="#1E3250" stroke="#1E3250" stroke-width="0.5" d="M523.63,270.67l-2.38,7.13l-0.07-2.27L523.63,270.67z
		 M514.93,351.99l-2,1.399l-3.14-3.83l-4.08-1.76l-0.72-1.3l-2.54,0.29l-0.19,1.39l-1.979,0.44l-2.391-1.22l-5.939,1.26l0,0
		l-3.101,0.27l-1.89-1.18l-0.71,0.79l-6.11-0.09l-3.909-6.55l-4.5-3.261l-1.57,2.021l-9.67-2.36l-1.28-1.62l0.11-6.609l-2.551-5.05
		l0,0l0.681-2.801l3.1,0.38l-0.18-4.609l2.47-5.54l2.311-1.23l3.26,0.54l2.46-2.59l2.25,0.45l-5.3-8.84l0.859-6.77l-1.26-2.63
		l-2.06-0.19l0.689-2.1l4.86-2.62l1.31-2.13l1.75,0.11l2.641-3.11l0.76,1.39l1.109-0.45l2.671-4.06l-1.271-2.6l2.97-2.78l1.11,1.21
		l2.8,0.23l1.74-3.18l4.38-0.85l6.51-6.22l-3.41-2.24l0.11-10.08l-0.93-2.49l-8.75,1.08l-1.84-2.93l-4.471-1.57l0.9-0.33l-0.58-2.67
		l-2.07,0.59l-1.109-2.62l-1.42,0.12l-3.061-6.62l-1.88-0.23l-0.85-1.9l-2.351-0.85l0.7-4.51l-3.24-1.39l-0.13-1.12l2.46-3.78
		l-0.42-3.19l-1.149-1.14l-0.021-3.84l-1.27-0.87l1.13-2.3l-4.61-0.64l0.7-2.55l2.78-0.8l1.93-2.06l0,0l3.18,0.77l2.12,2.2
		l-0.38,1.72l1.18,0.53l-1.33,4.89l2.271,1.72l-0.01,6.28l4.029,4.57l2.83,8.84l1.93,1.72l-0.47,1.26l0.97,1.02l6.791,0.83
		l3.14,3.17l5.86,0.84l6.109,4.68l9.78-0.2l1.08,0.95l2.89-0.01l5.51,5.15l1.511-0.27l0.59-2.26l5.01-0.62l-1.31,8.75l-5.65,11.07
		l-0.79-0.25l1.561-4.3l-3.53-2.02l-1,1.08l1.96,1.9l-1.561,0.69l0.671,1.42l-0.771,0.28l-0.3-1.37l-0.83,0.61l-0.37-1.7l-1.79-0.24
		l-0.62,3.01l-1.62,0.04l2.811,2.54l-2.061,5.3l2.391,1.37l-2.17,2.19l0.88,5.73l-0.87,4.23l-0.65-1.93l-1.84-0.37l-0.46,1.36
		l1.18,4.68l1.49-2.48l0.24,3.22l-0.681,6.41l-0.97,0.25l0.891,0.43l0.699,11.07l0.29-2.971l-0.85,24.24l-3.24,7.38l0.98,0.73
		l-0.351,3.79L514.93,351.99z"/>
	<path id="MX-TLA" fill="#1E3250" stroke="#1E3250" stroke-width="0.5" d="M505.62,419.96l2.06,0.38l2.65-2l4.81,4.47l-0.13,1.73
		l2.96,0.05l3.13,3.21l-0.279,1.15l-4.34,0.74l-2.641,3.17l-2.8-0.9l-3.93,2.82l-4.061-2.24l-6.069-6.38l-1.86-0.08l0,0l-2.25-2.18
		l0,0l8.1-1.761l2.271-2.68L505.62,419.96z"/>
	<path id="MX-VER" fill="#1E3250" stroke="#1E3250" stroke-width="0.5" d="M524.7,372.6l-1.55,3.03l-0.12-1.51L524.7,372.6z
		 M519.36,363.12l7.229,7.31l-2.88,7.67l1.45-6.83l-5.88-6.789l-1.86-4.37L519.36,363.12z M491.95,348.66l5.939-1.26l2.391,1.22
		l1.979-0.44l0.19-1.39l2.54-0.29l0.72,1.3l4.08,1.76l3.14,3.83l2-1.399l0,0l2.82,15.76l2.771,5.3l2.029,0.41l0.12,3.05l7.641,17.87
		l18.31,21.72l1.8,7.46l1.521,2.13l0.479,4.431l4.101,2.93l1.609,3.58l2.41,0.34l1.83,5.21l3.52,1.69l0.011,0.72l-3.011-1.42
		l1.471,2.03l-0.96,0.7l2.64-0.75l0.22-1.19l4.51,1.9l9.53,0.239l3.58,3.511l6.05,1.34l1.46,3.279l2.801,2.79l0.56,2.391l2.67,1.279
		l11.05-2.189l0,0l-1.89,0.89l2.27,0.391l-2.02,0.659l1.16,7.721l3.89,3.38l4.53,2.07l1.28,7.52l1.93,0.76l0,0l-6.61,4.88l0,0
		l-28.569-1.75l-0.301-2.93l-6.81-7.189l1.9-2.471l-1.37-0.84l-8.311,4.05l-6.08,0.24l-2.35-6.32l2.53-4.37l-0.79-5.039l-5.13-1.25
		l-3.17,0.43l0.529-0.9l-1.38-0.09l-1.02-1.89l-4.66-1.99l-1.25-3.64l0.58-1.271l-2.15-1.51l-1.68,5.35l0,0l-1.85-2.17l-2.58-0.819
		l-2.351,1.85l-1.43-0.1l-1.69-3.881l-3.81-1.119l-1.21-1.841v-2.979l1.93-2.96l-0.34-7.021l4.82,0.221l0.689-0.82l-0.58-1.87
		l-7.989-3.08l-1.16-4.78l6.41-14.979l-7.061-2.49l-3.65,4.01l-1.449-1.97l-2.721-0.33l-0.52-6.38l1.17-0.76l1.61,0.92l1.5-2.48
		l-3.521-3.17l0.21-1.68l-1.84-0.71l1.229-0.76l0.011-1.79l-3.22-0.061l-2.9,6.09l0,0l-2.29-0.59l-9.43,8l-1.38-0.859l-1.171-2.591
		l1.16-7.039l3.36-3.561l1.8,1.39l1.45-0.229l0.33-3.9l1.859-2.46l-2.529-3.42l-5.46-0.45l-1.83-1.71l0.3-2.659l-1.15-0.921l0,0
		l-0.13-3.35l-1.33-0.22l-0.89-3.311l4.46-3.109l-2.26-2.2l0.359-2.021l-1.51-0.38l2.851-0.43l-0.061-3.23l3.59-0.77l-1.85-4.29
		l-6.79-1.34L491.95,348.66z"/>
	<path id="MX-YUC" fill="#1E3250" stroke="#1E3250" stroke-width="0.5" d="M771.6,372.46l0.33,5.3l-1.489,4.79l1.229,4.17
		l-3.61,8.33l-7.96,5.36l-5.35-0.11l-1.5,2.76l0.25,2.19l-2.3-1.64l-1.75,3.27l-7.29,3.021l-1.91,2.609l-1.08-0.92l-1.92,1.78
		l-3.62,0.439l-3.82,2.44l-3.54,0.17l-1.64,4.82l0,0l-1.229-3.9l-4.341-6.07l-3.85-2.1l-5.3-9.33l-2.09,1.55l-2.5-0.819
		l-0.971-2.011l-4.13-0.52l0.16-7.29l0,0l1.25-4.2l-2,4.181l0.3-1.551l2.07-4.34l12.34-6.16L739,374.82l5.03-1.91l0.56-1.4
		l8.73-0.91l3.59-1.84l7.24,1.8l1.51,1.381l4.49,0.22l-3.78-0.93L771.6,372.46z"/>
	<path id="MX-ZAC" fill="#1E3250" stroke="#1E3250" stroke-width="0.5" d="M390.91,276.52l0.65-2.16l5.4-1.07l9.4,0.61l5.04,2.68
		l4.119,4.73l2.631-0.09l0.619,3.56l6.021-1.37l2.96,0.37l4.54,5.88l2.09,0.81l2.37-1.47l2.12,0.47l0,0l-0.55,0.42l0,0l-3.051,4.94
		l-2.56,0.43l-1.8,3.79l-3.87,1.98l-0.83,3.45l1.01,1.18l-2.279,4.5l-4.74,1.59l-3.48,5.14l-5.84,2.971l-1.37,2.47l-2.939,0.58
		l-2.32-0.93l-1.53,1.869l1.141,5.521l-1.21,6.76l6.229,4.851l3.38,0.92l2.4,4.02l4.51-0.68l5.91-5.311l2.68,2.53l-3.49,8.95
		l1.381,3.859l-2.9,7.271l0,0l-0.81,0.94l-0.971-0.631l0,0l-7.17-4.63l-3.54-0.91l0,0l-1.729-4.479l-7.271-5.19l-1.6,2.181
		l-6.33,3.08l-5.5,10.699l2.41,3.471l0,0l0,0l0,0l0.56,4.06l2.78,1.78l-1.44,4l-5.87,4.31l-2.89-0.01l-0.96,2.56l-1.58,0.891
		l-1.71-0.43l-3.43,1.229l-2.9-1.61l-2.26,0.19l-2.44-3l-2.67-1.12l5.21-2.93l-0.24-1.601l-2.62-0.189l-0.85-2.48l3.41-2.34
		l0.15-4.26l4.69-3.8l5.28-2.57l1.89-6.38l-3.16-0.96l0.35-2.37l-2.17-0.17l-1.88,0.729l-0.31,1.87l1.24,1.03l-3.32,3.62l-5.5,0.5
		l-0.49-1.11l3.82-7.33l-0.6-1.93l-2.82-1.83l-4.06,1.24v7.04l-0.38,1.16l-1.16-0.17l-1.21-1.78l0.04-3.32l4.41-7.82l-1.81-1.01
		l-4.82,1.91l1.79,6.061l-1.03,1.18l-1.8,1.14l0.25-4.1l-3.1,1.17l-0.36,3.03l-1.35-0.341l-1.08,1.21l0,0l-1.35-4.159l0,0
		l2.17-4.561l3.46-2.05l-0.61-9.92l1.98-3.1l1.38-7.65l5.12-5.311l-1.42-12.52l2.4-0.72l8.91-9.5l6.13,0.97l3.37-0.7l3.66,1.57
		l0.76-0.91l7.75-0.35l-0.36-1.46l0.97-0.52l-1.02-4l-1.21-0.45l0.81-4.9l-3.44-3.09L390.91,276.52z"/>
</g>
</svg>
