<?xml version="1.0" encoding="utf-8"?>
<!-- Generator: Adobe Illustrator 15.0.0, SVG Export Plug-In . SVG Version: 6.00 Build 0)  -->
<!DOCTYPE svg PUBLIC "-//W3C//DTD SVG 1.1//EN" "http://www.w3.org/Graphics/SVG/1.1/DTD/svg11.dtd">
<svg version="1.1" id="Layer_1" xmlns:amcharts="http://amcharts.com/ammap"
	 xmlns="http://www.w3.org/2000/svg" xmlns:xlink="http://www.w3.org/1999/xlink" x="0px" y="0px" width="216.105px"
	 height="224.599px" viewBox="0 0 216.105 224.599" enable-background="new 0 0 216.105 224.599" xml:space="preserve">
<defs>
	
	
		<amcharts:ammap  projection="mercator" leftLongitude="-87.690700" topLatitude="15.026286" rightLongitude="-82.737853" bottomLatitude="10.707200">
		</amcharts:ammap>
</defs>
<g>
	<path id="NI-AN" fill="#1E3250" stroke="#1E3250" stroke-width="0.5" d="M160.096,80.481l-0.366-0.059l0.276-0.311l-0.156-0.311
		l0.661-0.477l0.104,0.435L160.096,80.481z M192.673,49.526l0.101,1.434l-0.567,0.943l-0.892,0.045l-0.716-0.379l-0.74,0.243
		l0.59-0.584l0.84-1.634L192.673,49.526z M176.696,26.408l-0.324,0.632l-0.133-0.428l-0.301,0.217l0.029-0.347l0.82-0.435
		L176.696,26.408z M168.573,25.857l0.398,0.101l0.191-0.535l1.618,0.646l0.866-0.172l0.062,0.301l-0.516,0.451l0.347,0.243
		l0.37-0.386l1.453,0.129l1.08-0.5l0.697,0.117l0.697,0.5l-0.039,0.464l-0.321,0.087l0.139-0.34l-0.198,0.136l-0.888-0.5
		l-0.351,0.61l0.402-0.14l-0.104,0.376l-2.334,2.584l-0.497,2.069l-1.109,2.558l-1.012-0.084l0.736-0.843l-0.039-0.191l-0.493,0.191
		l0.192-0.856l1.154,0.334l-0.594-1.485l-0.159-1.391l-0.351-0.477l-0.898,0.065l-0.652,0.392l-1.203,2.072l-0.973-0.285
		l0.418,0.405l0.02,0.791l-0.824,0.668l0.292,0.233l0.379-0.398l0.091,0.46l0.431-0.201l0.513,1.9l1.122,0.927l0.947-0.071
		l0.101-0.486l-0.334-0.532l-1.09-0.214l0.036-0.214l1.009,0.065l0.794,0.788l-0.227-0.966l0.412-0.282l1.466,7.199l1.618,5.111
		l-0.266-0.5l-0.697,0.058l-0.5-0.398l-0.104-0.97l-0.749-1.161l-0.292-0.013l0.01,0.441l0.441,0.22l-0.107,0.762l0.438-0.172
		l0.185,2.043l0.882-0.23l0.282-0.347l0.593,0.947l0.396-0.058l0.713,4.883l-0.785,2.455l-2.374,4.786l0.824-1.956l-0.006-0.807
		l0.794-2.487l-1.009-1.255l0.084-0.233l0.382,0.376l0.072-0.25l-1.515-2.643l-0.366-0.097l-0.337,0.668l0.97,1.193l-1.751-0.937
		l0.661,1.384l-0.567,0.091l-0.117-0.438l-0.5,0.188l-0.087,0.376l0.548,0.645l0.555-0.503l-0.14,1.401l0.373,0.931l0.474,0.246
		l0.029-0.46l0.817,0.548l-0.036-0.454l0.298,0.126l-0.23,0.785l0.512,0.379l-0.126,0.337l0.059,0.564l-0.467,0.993l-0.438-0.23
		l-0.639,0.701l1.083-0.298l-0.902,2.315l-1.773,1.838l-0.363,0.882l-1.083,1.236l-0.376,0.022l-0.808,0.729l-0.846,1.307
		l-0.295,1.061l-0.503-0.84l0.039-0.59l0.827-0.697l0.169-0.668l-0.72,0.567l-1.148-1.411l0.356-0.917l-0.587-0.428l0.059-0.512
		l-0.73-0.091l0.191-0.243l-0.269-1.378l-1.44-0.464l-0.561-1.871l0.613-0.12l-0.208-0.191l0.386-0.97l-1.534-1.135l-0.003-0.794
		l-0.48-0.081l-0.48-1.456l-0.428-0.075l-0.354,0.37l-0.901-0.379l-0.869,0.263l-2.52-1.232l0.347,0.422l0.915,0.392l1.394,0.678
		l0.564-0.282l0.885,0.412l0.593-0.354l0.23,0.217l0.347,1.232l0.49,0.172l0.062,0.72l1.459,1.197l-0.37,0.674l-0.383,0.114
		l0.133,1.329l0.519,0.924l1.326,0.435l0.36,0.901l-0.204,0.704l0.639,0.136l-0.062,0.444l0.551,0.412l-0.282,0.82l1.174,1.375
		l-0.155,0.396l-0.509,0.178l-0.188-0.515l-1.219-0.51l-0.545,1.038l0.087,0.489l1.083-0.243l0.282,0.201l-0.389,0.811l0.201,0.587
		l0.94-0.182l0.486,0.21l-0.35,1.897l0.175,0.583l-1.08,2.124l-0.733,3.356l-0.934,6.482l-0.477-1.378l0.477-1.861l-0.237-0.713
		l0.778-1.278l-0.467-0.927l-1.258,0.441l0.23,0.457l0.447,0.169l-0.107,0.269l-0.558,0.253l-1.005-0.198l-0.633,0.233l-0.237,0.879
		l-1.005-1.262l-0.214-1.232l-0.934-0.373l-0.876-1.044l-0.139-0.813l-0.201,0.185l0.402,1.397l1.527,0.918l0.324,1.216l0.921,1.109
		l-0.528,0.149l0.762,0.175l0.963,1.686l0.571,0.191l-0.081,0.324l0.888,0.029l0.117,0.581l-0.305,0.21l-0.298-0.379l0.013,0.402
		l1.132,0.555l-0.029,0.408l-0.613-0.064l0.729,0.661l-0.892,2.293l-0.765-0.805l-0.993-0.171l1.259,0.866l-0.282,0.489l0.512-0.376
		l-0.289,2.082l-0.344,0.204l0.204-0.671l-0.548,0.087l-0.726,0.982l-0.682-0.013l-0.285,0.892l-0.571-0.136l-1.589,1.106
		l-0.305-0.088l-0.143-0.996l-1.534-0.441l-1.236-0.016l-0.347-0.752l-1.009-1.038l-0.746-0.256l-0.062-0.967l-1.209-1.375
		l-0.039-0.444l0.707-0.677l-0.343-1.284l-0.85-0.954l-1.427-0.502l-0.895,0.571l-0.771-0.075l0.597,0.344l1.038-0.642l1.411,0.535
		l0.704,1.034l0.165,0.885l-0.502,0.474l-0.113,0.762l1.31,1.384l-0.143,1.249l-0.7,0.179l-0.986,0.729l-0.862,0.25l-0.833-0.645
		l-1.91-0.049l-0.655,0.24l-0.821-0.61l-0.798-0.159l-0.551-0.454l0.22-0.379l-0.723-0.12l-0.259,0.233l-0.11-0.328l-0.707-0.253
		l-0.96,0.308l-0.36-0.463l-0.667,0.47l-0.743,0.094l-2.458-0.921l-0.581,0.516l-0.185,0.603l0.412,0.045l0.039-0.528l0.5-0.308
		l1.917,0.836l1.125-0.032l0.584-0.432l0.438,0.389l1.07-0.311l0.551,0.48l0.613-0.214l0.026,0.396l0.817,0.623l1.845,0.827
		l1.589-0.311l1.683,0.726l2.938-1.407l1.345,1.051l0.363,0.911l2.763,0.282l0.166,0.836l0.496,0.389l1.835-1.025l0.623-0.003
		l0.34-0.911l0.992,1.161l0.921-1.433l-0.483,5.551l1.151,9.677l0,0l-3.907-0.159l-6.956-4.65l-0.191-0.532l1.235-2.422
		l-0.305-0.421l-1.032-0.078l-0.976-0.746l-1.687,0.01l-6.336-1.07l-1.154-0.441l-4.063,0.389l-1.378,0.888l-0.363-0.068
		l-0.47-0.688l-0.843,0.256l-0.539-0.201l-1.184,1.067l-8.233,0.217l-8.214,1.18l-2.199,3.078l-2.854,0.843l-1.226,1.622
		l-3.463-0.22l-1.768-0.406l-1.942,1.339l0,0l-0.648-0.801l-0.162-0.717l0.243-0.551l1.407-0.885l-0.136-0.331l0.516-0.801
		l-0.136-0.551l-1.65,0.195l-0.405,0.36l-0.136,0.635l-0.567-0.635l-0.84,0.055l-0.188,0.995l-0.623-0.843l-0.532,0.542
		l-0.493-0.075l-0.399,0.558l-0.707,0.01l-0.668,0.616l-1.407-0.843l-0.324-0.739l-0.613-0.127l-0.973-1.044l-1.086,0.256
		l-0.908-0.616l-0.846-1.42l-0.938-0.477l-0.561-1.041l-1.738-1.868l-0.749-2.143l0,0l-0.237-0.71l0.289-0.82l2.555-2.095
		l1.132-0.379l0.496-0.814l-0.042-1.005l0.623-1.936l-1.326-1.767l0.205-0.539l1.196-0.859l0.464-2.179l2.993-0.072l5.351-3.476
		l3.82,1.9l8.049-13.059l-0.497-2.325l1.515-7.776l-4.605-0.272l-2.014-2.387l-0.045-0.486l0.636-0.337l-0.247-1.385l0.756-1.459
		l-0.389-0.652l-0.597-0.074l-0.545-0.655l0.247-0.542l-0.289-0.532l0.651-1.43l-0.136-0.5l-0.831-0.58l-0.502,0.029l0,0
		l-0.564-0.195l0.623-0.801l-0.898-0.856l-0.023-0.522l0.704-0.146l0.334-0.613l-0.188-0.545l1.57-1.462l1.024-0.671l1.268-0.263
		l0.648-1.572l0.516-0.487l1.518,0.094l1.573-0.648l0.651,0.227l0.801,1.355l1.08,0.694l-0.071,0.6l-0.577,0.172l0.405,0.324
		l0.464-0.224l0.084,1.32l1.346,0.915l0.279,1.08l0.356,0.029l0.577-1.041l0.833,0.768l0.859-0.181l0.188,0.412l1.651,0.175
		l0.327,0.299l0.49-0.133l0.34,0.286l1.401-0.302l-0.48,0.493l0.097,0.512l0.911-0.23l0.502,0.535l1.129,0.26l0.441-0.629
		l0.96-0.065l0.901-0.457l0.062-0.418l0.982-0.937l0.723-1.378l0.837,0.402l-0.305,0.636l0.104,0.392l0.84,0.201l0.678-0.428
		l0.502,0.85l0.685,0.214l0.95-0.781l-0.308-0.285l0.12-0.639l-0.321-1.378l1.122-0.889l0.636,0.243l-0.243,0.685l1.89,0.934
		l1.316-0.23l0.678-0.489l1.184,0.143l-0.026-0.613l-0.739-1.304l0.182-0.545l1.031,0.078l0.185,1.141l1.319-0.447l0.188,0.879
		l0.639,0.165l0.927-0.438l0.898,0.373l0.992-0.421l0.885,0.312l-0.168-1.019l0.72-0.159l0.743,0.528l0.36-0.136l0.152-0.729
		l0.331,0.756l1.002-0.201l0.62-0.678l1.534-0.13l-0.866-0.545l0.13-0.217l0.775,0.324l0.386-0.665l0.849,0.5l0.25-0.853
		l0.824,0.312l-0.113-0.626l1.307,0.227l0.071-0.483l-0.558-0.227l0.694-0.396l-0.039-0.516l0.435,0.228l1.651-0.581l0.528,0.087
		l0.117,0.519l0.357,0.133l-0.117-0.425l0.386-0.525l-0.182-0.393l0.801-0.237l-0.117-0.486l1.42,0.12l0.098-1.044l0.69-0.143
		l-0.289-0.49l0.668,0.12l-0.389-0.927l0.146-0.263l0.62,0.275l-0.124-0.908l0.431,0.383l0.435-0.743l0.568-0.208l0.324,0.159
		l-0.01,0.519l0.616,0.479l0.486-0.101l0.616-0.425l0.578-0.019l0.635-0.584l0.068-1.008l1.492,0.619L168.573,25.857z"/>
	<path id="NI-AS" fill="#1E3250" stroke="#1E3250" stroke-width="0.5" d="M154.706,150.688l0.036,0.21l-0.94-0.665l-0.279-1.154
		l0.042-1.874l0.966-1.664l0.302,0.036l-0.671,1.284l-0.129,1.417l0.152,1.31L154.706,150.688z M101.252,103.106l1.942-1.339
		l1.768,0.405l3.463,0.221l1.226-1.622l2.857-0.843l2.202-3.078l8.214-1.18l8.234-0.217l1.183-1.067l0.539,0.201l0.843-0.256
		l0.47,0.688l0.363,0.068l1.378-0.888l4.063-0.389l1.154,0.441l6.336,1.07l1.687-0.01l0.976,0.746l1.031,0.078l0.305,0.422
		l-1.235,2.422l0.191,0.532l6.956,4.65l3.908,0.162l0,0l1.187,4.689l-0.363,0.558l-0.379-0.143l0.204-1.193l-0.175-0.432
		l-0.282,0.143l0.276,0.172l-0.295,0.688l0.194,0.924l-2.506-0.635l-0.068,0.282l0.593,0.37l-0.182,0.166l-1.287-0.625l-0.574,0.298
		l-1.712-0.57l0.129-0.616l-1.145-0.5l-0.305,0.217l-0.312-0.447l-0.502,0.366l-0.146-0.496l-0.733-0.522l-0.188-0.746l-2.698-1.148
		l-0.127-1.015l-1.041-1.236l0.441-0.425l-0.567-1.482l-0.723-0.162l0.311-0.393l-0.133-0.732l-0.671-0.253l-0.701-0.831
		l0.133-0.999l-2.86-1.861l0.049,0.892l-1.336,0.101l-0.898,0.636l-0.986-0.59l-0.156,0.729l-1.896,0.46l-0.266,0.928l1.17,0.688
		l-0.58,0.152l-0.474,0.934l-3.259,0.393l-2.653,1.385l-1.375,2.004l-1.31,0.934l-0.675,0.146l-0.386,0.447l-0.911-1.073
		l-1.877-0.502l-0.739-0.73l-2.183-0.094l-0.46,0.629l0.47-0.441l1.888,0.029l0.901,0.794l1.735,0.37l0.593,1.057l0.756,0.237
		l0.418-0.516l0.746-0.214l1.326-1.021l1.09-1.816l1.19-0.405l1.585-1.025l2.721-0.22l0.626-0.34l0.37-0.817l0.525,0.091l0.13-0.603
		l-1.086-0.474l0.21-0.853l2.043-0.246l-0.084-0.801l0.688,0.564l1.173-0.713l0.467,0.285l0.256-0.366l0.704,0.016l-0.006-0.655
		l2.279,1.388l0.023,1.119l0.873,1.047l0.457,0.013l-0.262,0.47l0.356,0.311l-0.386,0.386l0.778,0.191l0.46,0.772l0.182,0.519
		l-0.506,0.536l1.073,1.203l0.217,1.246l2.669,1.002l0.139,0.778l1.103,1.259l0.356-0.286l0.558,0.451l0.289-0.334l0.811,0.412
		l-0.156,0.496l0.295,0.246l3.969,0.746l0.075-0.289l-0.675-0.529l0.292,0.045l1.534,0.626l0.824-0.013l0.094,0.713l0.318-0.058
		l0.155-0.863l0.217-0.152l0.094,0.227l-0.451,1.307l-0.885,5.733l-0.347,4.015l0.146,1.751l0.85,2.821l1.223,1.66l-0.149,2.958
		l-0.431,0.295l-1.917-0.324l-1.955,0.506l-0.59,0.554l-0.399-0.438l1.184-1.796l-1.346-2.548l0.062-3.042l0.243-0.444l0.075,0.69
		l1.693,0.013l0.862-1.099l-0.182-3.752l0.71-2.004l-0.678-0.071l0.808-1.109l-0.139-1.702l-2.624-0.889l-0.522,0.639l-0.954,0.292
		l-0.194-2.679l-1.271-0.678l-0.535,1.145l0.493,0.791l0.739,0.081l-0.172,0.301l-1.07,0.075l-3.11-1.34l-1.589,0.633l-0.126,0.976
		l-0.96,0.033l-0.451,0.749l-0.496-0.201l-0.519,0.188l-1.288-0.801l-0.412-0.555l-0.337,0.354l-0.691-0.074l-0.612-0.882
		l0.052-0.396l-0.519-0.136l-0.814-0.528l-1.511-0.324l-0.392,0.629l-0.668,0.097l0.658,0.062l0.454-0.668l1.245,0.314l1.291,0.662
		l-0.02,0.48l0.694,0.808l0.836,0.198l0.318-0.399l0.813,0.898l0.996,0.47l0.649-0.24l0.24,0.302l0.584-0.866l1.077-0.049l0.1-1.06
		l1.177-0.497l0.571,0.133l2.16,1.012l0.898,0.24l1.077-0.117l0.428,0.386l-0.042,0.312l-1.44-0.178l-2.73-1.167l-0.486,0.354
		l0.059,0.694l1.462-0.425l-0.094,0.739l-0.389,0.205l0.704,0.278l-0.129,0.562l1.19-0.007l0.467-0.908l0.613-0.124l1.258,0.717
		l-0.113,1.378l1.08,0.126l0.243,0.813l-0.233,0.626l0.954,1.174l-0.237,1.333l0.282,1.213l-0.513-0.075l-0.551,0.775l-0.697-0.055
		l-0.033,0.581l-2.186,1.501l-1.871,0.256l-0.979,0.811l0.025,2.153l0.279,0.107l0.684-0.594l0.117,0.25l0.399-0.072l0.243,0.831
		l0.363,2.257l-0.451,1.077l0.253,1.284l0.651,0.597l1.566-0.665l0.188,0.175l-0.382,2.449l0.214-0.023l0.49-2.293l0.921-0.966
		l0.409,0.276l-1.239,1.728l-1.223,3.178l-0.438,3.496l0.188,4.877l-0.973-0.85l-0.623-1.605l-0.221,0.088l0.188-0.347l0.483-0.503
		l0.042,0.295l0.72,0.162l0.075-0.704l-0.357-0.386l-0.003-0.272l0.308,0.133l-0.652-1.456l-0.979-0.869l-0.21,0.168l0.853,0.691
		l0.477,0.999l-1.138,2.312l-0.217-2.026l-0.655-1.047l0.639-0.24l-0.081-0.356l-0.814,0.431l-1.579-0.383l-1.472,0.146
		l-0.094-0.707l-0.311,0.72l-0.762-0.49l0.506,0.603l0.48,0.065l-0.087,0.233l-1.508,0.571l-0.113,0.665l-1.336,0.062l-1.265,1.446
		l-1.207-0.817l-0.57,0.409l-0.662-0.5l-0.938,0.447l-0.697-0.807l-1.006-0.516l-1.255,0.376l-0.684-1.381l-0.808-0.363
		l-0.586,0.195l-0.273-0.379l-1.653,0.091l-0.662-0.798l-0.548-0.02l-0.544-0.418l-0.675-1.086l-0.538-1.32l0.931-0.82l0.052-0.467
		l-1.384-2.759l-1.194-0.149l0.36,0.379l0.882,0.065l0.525,1.297l0.243,0.279l0.311,0.966l-0.95,1.365l0.957,2.124l0.671,0.646
		l-1.427,0.169l-1.333,1.083l-3.061,0.788l3.375-0.642l1.31-0.954l1.968-0.321l0.519,0.727l0.428,0.143l-0.035,1.024l0.36,0.486
		l-0.895,1.706l0.029,0.57l-0.483,0.545l0.704-0.613l0.347-1.414l0.48-0.662l-0.36-0.704l-0.003-0.798l1.063-0.308l0.5,0.347
		l0.457-0.188l0.792,0.275l0.512,1.353l0.331,0.243l0.756-0.409l0.519-0.11l0.152,0.305l0.667,0.168l0.912,1.093l0.856-0.467
		l0.46,0.312l0.824-0.289l1.359,0.805l1.2-1.603l1.583-0.084l-0.068-0.658l1.005-0.136l1.706-0.782l0.902,0.023l1.42,0.765
		l0.373,1.038l0.185,2.63l-0.182,0.117l-0.182-0.308l-0.344,0.34l-0.648-0.662l-1.099-0.104l0.934,0.156l0.966,1.018l-0.029,1.543
		l-0.35,0.354l-0.068,0.674l0.259,0.314l-0.749,0.895l-0.506,0.201l-0.208,0.947L150.439,150l-0.47,0.739l0.954,0.458l-0.059,0.905
		l0.441,0.597l0.804,0.324l0.208,0.519l1.499-0.182l-0.373-0.937l0.421-1.741l1.19,0.636l1.119,3.813l0.408,2.588l-0.379-0.473
		l-0.333,0.139l0.917,0.762l0.185,2.156l0.379,0.178l0.046,0.493l-0.227,0.532l-0.947-0.441l-0.483,0.146l-1.122,1.398l-1.482,0.149
		l-0.798,1.835l-0.917-0.114l0.314,0.35l0.421-0.117l-0.224,1.44l-0.727,1.278l-1.08-0.107l-0.6,0.645l-0.927,2.062l-0.179,3.389
		l0.879,3.188l0.182,1.66l2.059,5.354l2.588,3.558l-1.096-0.756l-2.28-3.35l-0.717,0.032l0,0l-1.122-0.221l-0.684,0.393
		l-0.217-0.129l-0.74-2.74l-0.752,0.379l-0.814-0.143l0.01,0.285l-0.71,0.211l-0.704-0.292l-0.432,0.477l-1.518,0.5l-0.704-0.755
		l-0.195-0.714l0.185-0.356l-0.554-0.114l-0.973,0.389l-1.638-0.194l-2.098-0.798l-2.03-3.045l-4.339-2.085l-0.318-0.542
		l0.136-1.722l-0.256-0.655l-2.192-0.911l-2.624-1.768l-2.221-0.57l-0.558-0.396l-0.516-4.475l0.275-1.135l0.94-1.563l0.081-0.83
		l-1.277-2.046l0.405-2.299l-0.902-0.389l-1.038-3.479l0,0l2.247-0.075l0.156-0.629l-0.775-0.943l-0.185-0.908l-5.272-2.234
		l-0.885-0.866l-0.477-4.063l-1.061-1.764l-0.976-3.437l0.539-1.716l-1.521-2.555l-1.096-1.148l-0.791-1.907l0.009-0.441
		l0.882-1.213l-0.033-0.597l0.451-0.279l-1.459-0.807l-0.859-2.328l-0.386-0.211l-0.152-0.875l-1.375-1.132l-0.921-1.476l0,0
		l-0.6-0.398l0.036-1.382l-0.587-1.8l-1.417-1.466l-0.947-0.457l-1.641,0.814l0,0l-0.781-0.765l-1.716,0.165l-0.016-0.911
		l-0.648-1.683l0.379-1.683l-1.028-1.933l1.164-2.319l0.405-0.029l0.486,1.106l0.324-1.823l0.973-0.69L101.252,103.106z"/>
	<path id="NI-BO" fill="#1E3250" stroke="#1E3250" stroke-width="0.5" d="M100.818,114.991l1.638-0.814l0.947,0.46l1.417,1.466
		l0.586,1.8l-0.036,1.381l0.604,0.399l0,0l-2.315,3.729l-0.308,2.643l-1.644,2.26l-1.038,0.224l-0.613,0.509l-0.866-0.49
		l-1.346,0.496l-0.785,0.474l-1.226,1.384l-2.102,1.31l-0.694-0.363l-0.655,0.513l-3.46,0.564l-1.213,0.062l-0.583-0.386
		l-0.688,0.376l-0.707-0.282l-1.689,0.123l-1.385,0.448l-0.898,1.346l-0.344,2.494l-1.288,0.749l-0.233,0.393l-0.055,1.521
		l-1.43,2.439l0.279,1.527l0,0l-1.025-0.295l-0.37-0.973l-1.385,0.003l-0.791-0.412l-0.522-0.655l-0.463,0.104l0,0l-0.156-0.665
		l-2.075-0.648l-0.143-1.194l0.217-0.25l-0.327-0.428l0,0l-0.088-0.645l0.376-0.354l-0.244-0.376l0.814-1.287l-3.042-2.464
		l-0.94-1.116l0.286-1.148l0.418-0.376l-2.458-2.882l-0.146-0.493l0.221-0.201l-0.496-0.915l0.525-0.947l0,0l1.43-1.274l1.89-0.901
		l0.263-0.843l-0.172-1.034l0.331-0.13l4.164-0.259l2.86-0.792l2.387,0.483l0.904-0.62l0.594,0.133l0.48-0.412l0.778-0.003
		l0.888-1.181h1.151l0.493-0.331l1.106,0.227l0.957,0.626l0.467-0.584l1.404-0.827l1.355,0.729l0.351,0.908l0.392-0.35l0.882,0.091
		l0.46,0.519l1.453,0.324l-0.062,0.888l0.817,0.052l0.36-0.344l1.116,1.673l0.723-0.256l1.018,0.107l0.211-1.235l0.824,0.101
		l0.214-0.289l-0.269-1.32l1.284-1.469l-0.337-0.973l0.386-0.214l-0.081-0.486L100.818,114.991z"/>
	<path id="NI-CA" fill="#1E3250" stroke="#1E3250" stroke-width="0.5" d="M54.751,147.143l3.369,1.288l0.383,0.869l1.083,0.483
		l-0.48,1.293l0.5,0.081l-0.156,0.422l2.413,0.243l0.438,0.502l0,0l-0.376,0.194l0.078,0.75l-0.298,0.22l0.516,1.346l-0.354,0.586
		l0.084,1.061l-0.286,0.272l-0.917,0.091l-0.149,0.292l0.188,1.209l-0.227,1.071l0.827,1.407l0,0l-1.291,1.33l-0.6,1.712
		l-0.606,0.441l0,0l-3.003-2.387l-3.668-1.939l-1.378-1.771l-2.257-1.764l0,0l0.548-0.528l-0.474-1.122l0.185-0.379l1.618-0.921
		l0.788-0.895l0.314-0.953L54.751,147.143z"/>
	<path id="NI-CI" fill="#1E3250" stroke="#1E3250" stroke-width="0.5" d="M20.19,126.905l0.612,0.691l2.621,1.138l0,0l1.316,1.459
		l0,0l-4.88-2.97L20.19,126.905z M13.717,108.347l-1.67-0.071l-0.525-0.502l2.854-1.544l1.812,0.269l0.539,0.396l-1.395,0.755
		l-0.46,0.587L13.717,108.347z M36.15,94.922l0.49,0.036l0,0l1.249,0.113l0.36,1.261l-0.324,1.255l0,0l-0.558,0.555l-0.629,1.372
		l0.007,1.255l0.34,1.034l0,0l0.729,1.625l0.166,1.291l1.751,2.617l-0.224,1.849l0.72,2.808l-0.658,2.199l-1.174,0.934l-4.293,0.483
		l-0.321,1.796l-1.067,0.869l-0.95,0.275l-1.414,2.095l-1.089,0.736l-0.078,2.445l-0.354,0.716l-3.346,1.719l-0.882,0.743
		l-2.309,0.402l0,0l-0.743,0.11l-0.444-0.354l0.376-0.252l-0.694-0.379l-0.512-1.78l-0.185,0.337l-0.626-0.104l0.778,0.989
		l-0.185,0.554l-1.949-2.61l-1.213-1.011l-1.197-0.568l1.051,0.039l0.182-0.386l-1.154,0.055l-0.331-0.473l-0.736-0.195l0.629,0.633
		l-0.13,0.194l-1.414-1.103l0.655-0.023l-0.272-0.959l0.726-0.532l-0.285-0.062l0.032-0.94l-0.295,1.005l-0.6,0.574l-0.139,0.778
		l-0.85-0.613l0.071-0.347l-1.2-1.894l-1.524-0.901l0.24-0.295l-2.147-1.602l0.23-0.143l0.771,0.544l1.021,0.039l-1.018-0.694
		l0.35-1.005l-0.798,0.357l-0.561-0.649l0.042-0.327l-0.415,0.129l-0.464-0.915l0.247-0.334l-0.331-0.068l0.208-1.021l-1.751,0.418
		l-0.269,0.347l0.444-0.12l0.625,0.525l-0.058,0.72l0.655,0.23l0.914,1.093v0.604l-1.437-1.242l-4.958-3.039l-1.521-1.326
		l-0.126-0.674l0.512-1.615l0.623-1.002l1.297-0.555l0.723-0.71l1.255-2.562l-0.405,1.423l1.223-0.032l1.54,1.099l1.203,1.226
		l0.438,0.931L8,106.842l-0.175,0.539l0.792,0.95l2.487,0.775l1.034-0.233l0.545,1.278l-0.185-1.278l0.85-0.042l0.311,0.467
		l0.791,0.376l0.289,0.837l0.217-0.036l-0.321-1.002l-0.811-0.379l0.289-0.467l0.846-0.168l1.064,1.099l1.939-0.457l0.347,0.632
		l1.184-0.029l0.717,1.154l2.004,0.96l0.435-1.086l1.216,0.146l0.022-0.185l-1.287-0.12l-0.409,0.72l-0.389,0.149l-1.433-0.671
		l-0.73-1.245l-1.151-0.104l-0.396-0.71l0.363-0.752l1.589,0.59l0.389-0.117l0.126-0.36l-0.84,0.172l-1.339-0.519l-0.276,0.104
		l-0.302,0.966l-1.777,0.564l-0.872-1.291l1.852-1.207l-1.067-0.684l7.63-0.529l0.723,0.056l0.697,0.499l0.82-0.168l0.227-0.684
		l0.373,0.139l0.843-0.616l0.519,0.094l0.713-0.655l0.25-1.057l1.33-1.209l-0.581-1.261l0.584-0.97l-0.418-1.459l0.49-0.824
		l0.334-2.121l1.206-0.736l0.48-0.769l1.768-0.483L36.15,94.922z"/>
	<path id="NI-CO" fill="#1E3250" stroke="#1E3250" stroke-width="0.5" d="M100.429,159.852l-0.23,0.558l-0.509-1.459l-0.824-0.464
		l-0.006-0.778l-0.467-0.564l-0.454,0.146l-0.37-0.324l0.016-0.444l-0.334-0.289l0,0l-0.376-0.928l-1.31-0.298l0,0l-1.378-0.648
		l-2.244-2.724l-1.469-0.97l0,0l-0.827-0.168l0,0l-1.592-0.48l-0.373,0.619l-0.889-0.723l-0.486,0.006l-2.218-3.408l-1.631-1.767
		l-1.381-0.554l-1.518,0.535l-0.57-0.37l0.334-0.337l-0.636-0.266l0,0l-0.279-1.527l1.43-2.438l0.055-1.521l0.233-0.393l1.287-0.749
		l0.344-2.494l0.898-1.346l1.388-0.448l1.689-0.123l0.704,0.282l0.688-0.373l0.584,0.383l1.216-0.062l3.457-0.564l0.658-0.512
		l0.694,0.363l2.102-1.31l1.229-1.385l0.785-0.474l1.346-0.496l0.866,0.49l0.613-0.509l1.038-0.22l1.644-2.26l0.308-2.643
		l2.312-3.729l0,0l0.921,1.476l1.375,1.131l0.152,0.875l0.386,0.211l0.859,2.328l1.459,0.808l-0.451,0.282l0.036,0.597l-0.882,1.213
		l-0.01,0.444l0.792,1.91l1.096,1.148l1.521,2.555l-0.538,1.715l0.976,3.438l1.06,1.764l0.477,4.063l0.885,0.866l5.272,2.237
		l0.185,0.908l0.775,0.943l-0.156,0.629l-2.247,0.075l0,0l-4.968-0.474l-3.207,0.765l-2.319,1.245l-0.658,0.859l-2.624,0.886
		l-0.204,0.6l-0.422,0.217l0.179,0.665l-0.37,0.451l-0.649,0.104l-1.028,1.258l-0.885-0.347l-0.194,0.568l-0.652,0.535l-0.931,0.159
		L100.429,159.852z"/>
	<path id="NI-ES" fill="#1E3250" stroke="#1E3250" stroke-width="0.5" d="M37.928,97.587l3.603-3.473l2.468-4.829l0.759-0.704
		l0.863-0.036l3.252,1.086l5.237-1.177l1.602,0.107l0.775,0.302l0.717,1.433l0,0l-0.47,0.875l0.062,0.908l-0.334,0.558l0.438,3.136
		l-0.623,0.263l0.236,0.694l-0.911,1.725l1.167,1.057l0.496,1.028l1.339,1.333l2.73,1.258l0.166,1.245l0,0l-1.336,0.918l0.211,0.473
		l-1.054,2.153l-1.758,0.402l-2.017,1.151l-0.333,2.108l0,0l-3.13-0.474l-2.522-1.099l-0.516-0.477l-0.263-0.895l0.859-1.803
		l0.275-1.579l-2.656-3.953l-3.042-0.252l-1.531,0.431l-2.059,1.08l-1.787-0.866l-1.754,0.104l0,0l-0.341-1.031l-0.006-1.258
		l0.629-1.369L37.928,97.587z"/>
	<path id="NI-GR" fill="#1E3250" stroke="#1E3250" stroke-width="0.5" d="M71.74,155.085l0.149,0.194l0,0l1.33,0.124l0.075-0.337
		l0.327,0.11l0.519,1.372l-0.094,0.704l-0.558,0.204l-1.806-0.243l-0.982,0.36l-0.01-0.574l0.208,0.266l0.188-0.194l-0.694-0.746
		l0.658-0.74l-0.091-0.412l0.532-0.21l0,0L71.74,155.085z M67.086,143.106l0.409-0.778l-0.026-0.732l1.615,0.058l0.859-0.259
		l-0.003,0.386l0.625,0.104l-2.253,4.656l-0.081,0.837l0.224,1.806l1.278,0.318l0.47,0.824l-0.113,0.269l-1.083-0.69l-0.279,0.227
		l0.136,1.005l0.431,0.11l1.07,2.474l-0.344,0.418l0.23,1.116l-0.421,0.593l-0.399-0.055l-0.636,0.662l0.143,0.853l0.357,0.512
		l0.444,0.078l-0.087,0.308l0,0l-2.468,1.021l-1.527-0.247l-1.1,1.365l-1.384,0.149l-0.678,0.483l-1.1-0.156l0,0l-0.83-1.411
		l0.227-1.07l-0.188-1.21l0.149-0.292l0.918-0.091l0.285-0.272l-0.084-1.061l0.354-0.587l-0.516-1.346l0.298-0.221l-0.078-0.749
		l0.376-0.191l0,0l0.685-2.018l0.911-1.319l0.123-0.873l0.892-0.279l2.066-2.915L67.086,143.106z M65.521,140.019l0.746-0.006
		l2.536-0.869l1.251-1.456l1.596,0.645l0,0l0.327,0.428l-0.217,0.25l0.143,1.19l2.075,0.652l0.156,0.665l0,0l-0.937,0.509
		l-0.376-0.159l-0.11,0.545l-0.811,0.22l-0.804-0.21l-0.769-1.135l-2.711,0.035l-1.492-0.6l0,0L65.521,140.019z"/>
	<path id="NI-JI" fill="#1E3250" stroke="#1E3250" stroke-width="0.5" d="M103.649,41.62l0.506-0.029l0.827,0.581l0.136,0.5
		l-0.652,1.43l0.289,0.535l-0.247,0.542l0.542,0.655l0.597,0.075l0.393,0.652l-0.756,1.459l0.247,1.388l-0.636,0.337l0.045,0.486
		l2.014,2.387l4.605,0.272l-1.514,7.776l0.499,2.328l-8.052,13.056l-3.82-1.897l-5.348,3.477l-2.993,0.071l-0.464,2.179
		l-1.197,0.859l-0.204,0.539l1.326,1.767l-0.623,1.936l0.042,1.005l-0.496,0.814l-1.132,0.379l-2.555,2.095l-0.289,0.821l0.24,0.713
		l0,0l-2.212,1.754l-1.631,0.233l-0.882,0.441l-1.482,2.737L76.062,98.7l-1.141,1.877l-1.365,0.396l-4.686,4.361l-0.736,0.247
		l-2.059-0.334l-0.14,0.937l-1.446-0.074l-0.688-1.489l-2.302-0.243l0,0l-0.166-1.245l-2.73-1.258l-1.339-1.333l-0.496-1.028
		l-1.167-1.057l0.911-1.725l-0.236-0.694l0.623-0.263l-0.438-3.136l0.334-0.558l-0.062-0.908l0.47-0.875l0,0l0.853-1.365
		l0.749-0.603l2.25,0.022l1.43-0.859l0.457-1.323l0.431-0.286l0,0l1.466-0.003l0.558-0.72l1.223,0.185l1.547,1.047l0.344,0.545
		l0.801,0.289l0.282-0.862l0.924-0.856l1.061,0.017l0.71-0.509l0.376,0.253l0.162-0.328l-0.366-0.538l0.688-0.798l-0.658-0.191
		l0.314-0.992l-0.344-1.054l0.47-0.577v-1.534l0.937-1.822l-0.032-0.993l0.438-0.769l-0.376-1.407l0.782-0.639l0.645-1.116l0,0
		l0.46-0.314l0.188-0.577l-0.168-0.506l-0.856-0.584l0.438-3.32l0.808-0.185l0.804-0.733l1.167,0.383l0.581-0.47l0.236-0.898
		l1.142,0.058l0.947-0.561l0.412-0.639l0.583-0.172l0.227-0.668l0.587-0.11l0.191,0.678l1.304,0.071l0.69-1.596l0.399,0.334
		l0.091-0.612l0.435,0.499l0.113-0.486l0.341,0.049l0.538-0.811l0.519,0.318l0.561-0.078l1.219-1.197l-0.12-0.791l0.804-0.778
		l0.178-1.33l-0.188-0.561l0.35-0.078l0.104,0.38l0.409,0.058l0.729-1.226l0.83-0.399l0.804,0.23l0.71-0.344l3.165,0.013l0.198,0.36
		l0.331-0.101l0.999-1.712l-0.792-0.493l-0.11-0.882l-0.36,0.107l-0.428-0.447l-0.1-0.798l-0.84-0.412l0.73-0.911l1.109-2.851
		l1.073-1.131l0.454-0.931l-0.062-1.417l-0.405-0.739l0.95-0.542l0.493,0.233l0.752,0.973l1.002-0.172l0.927-0.727L103.649,41.62z"
		/>
	<path id="NI-LE" fill="#1E3250" stroke="#1E3250" stroke-width="0.5" d="M47.14,131.73l-0.084,0.026l0,0l-0.217-0.671l0.684-0.029
		l-0.159,0.431l0,0L47.14,131.73z M37.088,101.8l1.754-0.107l1.787,0.866l2.062-1.08l1.53-0.431l3.042,0.253l2.656,3.953
		l-0.276,1.58l-0.859,1.799l0.263,0.896l0.516,0.477l2.523,1.099l3.129,0.474l0,0l0.097,2.824l-0.409,2.883l0.214,1.128l-0.354,1.81
		l0,0l-1.45,0.354l-0.519,0.736l-0.632,0.356l-0.947,2.51l0.198,0.366l-0.317,0.091l0.317,0.227l-0.201,0.272l0.227,0.36l0,0
		l0.081,0.104l0,0l0.593,0.278l-0.292,1.021l-0.752-0.282l-3.126,1.099l-0.577,0.441l-0.632,1.304l-0.623,0.555l-1.336,0.016
		l-1.871-0.833l-0.123-0.233l0.282-0.146l-0.259-0.34l-1.154,0.752l0.295,0.632l-0.21,1.187l0.752,1.602l1.797,0.48l0.973,0.655
		l1.543,0.487l0,0l-1.339,1.093l0,0l-0.898,2.091l1.255,0.792l-0.159,1.436l-3.051,2.254l-1.404-0.266l-1.213,0.457l-0.194,0.428
		l0.448,1.611l-1.07,0.843l0,0l-1.981-3.311l-0.554-1.884l-0.334-0.256l-0.477-1.268l0.224-0.033l-0.272-0.739l-6.599-4.099
		l-4.423-3.23l0,0l-1.316-1.459l0,0l-1.125-1.336l0,0l2.309-0.402l0.882-0.743l3.347-1.719l0.354-0.717l0.078-2.445l1.09-0.736
		l1.414-2.095l0.95-0.275l1.067-0.869l0.321-1.796l4.293-0.483l1.174-0.934l0.658-2.198l-0.72-2.809l0.224-1.848l-1.751-2.617
		l-0.165-1.291L37.088,101.8z"/>
	<path id="NI-MD" fill="#1E3250" stroke="#1E3250" stroke-width="0.5" d="M36.134,79.943l0.95-0.454l3.411,0.535l0.629,0.532
		l0.071,1.093l0.295,0.373l1.07,0.542l0.564-0.088l0.438,0.422l1.822-0.83l1.469-0.169l3.998,0.733l0.38,0.292l1.838-0.529
		l1.849-1.232l1.297,0.02l1.132,0.48l1.541-0.405l2.5,2.017l0.363,0.5l0.11,0.866l1.511,1.245l0,0l-0.431,0.286l-0.457,1.323
		l-1.43,0.859l-2.25-0.022l-0.749,0.603l-0.853,1.365l0,0l-0.717-1.433l-0.775-0.302l-1.602-0.107l-5.237,1.177l-3.252-1.086
		l-0.863,0.036l-0.759,0.704l-2.468,4.829l-3.603,3.473l0,0l0.321-1.255l-0.36-1.261l-1.249-0.113l0,0l1.66-1.096l0.156-1.171
		l-0.305-1.773l-1.008-0.422l-0.256-0.512l0.808-1.638l-0.59-1.757l-0.328-2.883l-0.208-0.474l-0.671-0.412l0.655-2.503
		L36.134,79.943z"/>
	<path id="NI-MN" fill="#1E3250" stroke="#1E3250" stroke-width="0.5" d="M46.742,134.321l2.662,1.417l0.85-0.97l0.97-0.606h2.182
		l1.213,1.819l-0.123,0.97l-1.09,0.85l-0.366,1.213l2.792,0.12l1.209-0.726h3.638l0.124-3.152l0.483-0.849l0.244-1.576l-1.819-0.729
		l-0.727,0.243l-1.213,1.576l-0.85,0.123v-1.819l-2.182-3.515l-0.363-2.062l-0.729-1.213l-2.144,0.159l0,0l-0.071-0.087l0,0
		l-0.224-0.36l0.201-0.272l-0.314-0.227l0.318-0.094l-0.198-0.366l0.947-2.507l0.632-0.356l0.519-0.736l1.449-0.356l0,0l3.398,0.509
		l1.557,1.151l0.798-0.23l0.665,0.179l2.076,1.845l3.622,1.446l0,0l-0.525,0.947l0.496,0.915l-0.221,0.201l0.146,0.493l2.458,2.882
		l-0.418,0.376l-0.286,1.148l0.94,1.116l3.042,2.464l-0.814,1.287l0.244,0.376l-0.376,0.354l0.088,0.645l0,0l-1.592-0.645
		l-1.252,1.456l-2.539,0.869l-0.746,0.006l0,0l0,0l0,0l-1.171-0.367l-1.206,0.568l-1.949,0.243l-0.771,1.038l-1.138,0.366
		l-1.232,1.725l1.32,1.45l-0.691,1.158l-1.706,0.755l-1.326-1.187l-0.898,1.375l0,0l-3.188,4.504l-0.314,0.953l-0.788,0.895
		l-1.618,0.921l-0.185,0.379l0.474,1.122l-0.548,0.528l0,0l-2.961-2.335l-0.684-1.757l-1.472-1.774l-1.573-1.307l-0.908-2.196
		l-1.822-2.065l0,0l1.07-0.84l-0.448-1.612l0.195-0.428l1.212-0.457l1.408,0.266l3.048-2.25l0.159-1.437l-1.255-0.788l0.898-2.092
		l0,0L46.742,134.321z"/>
	<path id="NI-MS" fill="#1E3250" stroke="#1E3250" stroke-width="0.5" d="M65.521,140.019l0.6,0.704l0,0l0.379,0.762l-0.048,0.701
		l0.743,0.136l-0.483,0.551l0.071,0.289l0.305-0.055l0,0l-0.11,1.819l-2.066,2.915l-0.892,0.276l-0.123,0.872l-0.912,1.32
		l-0.684,2.017l0,0l-0.438-0.502l-2.413-0.243l0.156-0.422l-0.5-0.081l0.48-1.293l-1.083-0.483l-0.383-0.869l-3.369-1.288l0,0
		l0.898-1.375l1.326,1.187l1.706-0.755l0.691-1.158l-1.32-1.45l1.232-1.725l1.138-0.366l0.771-1.038l1.949-0.243l1.206-0.568
		L65.521,140.019z"/>
	<path id="NI-MT" fill="#1E3250" stroke="#1E3250" stroke-width="0.5" d="M84.98,90.807l0.749,2.144l1.738,1.868l0.561,1.044
		l0.938,0.473l0.85,1.42l0.905,0.619l1.086-0.256l0.973,1.041l0.613,0.129l0.324,0.74l1.407,0.843l0.668-0.616l0.707-0.01
		l0.399-0.558l0.496,0.075l0.529-0.539l0.625,0.843l0.188-0.996l0.84-0.055l0.567,0.636l0.136-0.636l0.405-0.36l1.65-0.191
		l0.136,0.551l-0.512,0.801l0.133,0.331l-1.407,0.885l-0.243,0.551l0.162,0.72l0.648,0.801l0,0l-0.892,1.326l-0.976,0.688
		l-0.324,1.822l-0.486-1.103l-0.406,0.026l-1.164,2.318l1.028,1.933l-0.379,1.683l0.648,1.683l0.02,0.911l1.715-0.168l0.781,0.765
		l0,0l-0.47,0.872l0.081,0.486l-0.386,0.214l0.337,0.973l-1.284,1.469l0.269,1.32l-0.214,0.289l-0.824-0.101l-0.211,1.235
		l-1.018-0.107l-0.723,0.256l-1.116-1.673l-0.36,0.344l-0.817-0.052l0.062-0.888l-1.453-0.324l-0.46-0.519l-0.882-0.091l-0.392,0.35
		l-0.351-0.908l-1.355-0.729l-1.404,0.827l-0.467,0.584l-0.957-0.626l-1.106-0.227l-0.493,0.331h-1.151l-0.888,1.181l-0.778,0.003
		l-0.48,0.412l-0.594-0.133l-0.904,0.62l-2.387-0.483l-2.86,0.792l-4.164,0.259l-0.331,0.13l0.172,1.034l-0.263,0.843l-1.89,0.901
		l-1.43,1.274l0,0l-3.622-1.446l-2.076-1.845l-0.665-0.179l-0.798,0.23l-1.557-1.151l-3.398-0.509l0,0l0.354-1.81l-0.214-1.128
		l0.409-2.883l-0.097-2.824l0,0l0.333-2.108l2.017-1.151l1.758-0.402l1.054-2.153l-0.211-0.473l1.336-0.918l0,0l2.302,0.243
		l0.688,1.489l1.446,0.074l0.14-0.937l2.059,0.334l0.736-0.247l4.686-4.361l1.365-0.396l1.141-1.877l2.711-2.728l1.482-2.737
		l0.882-0.441l1.631-0.233L84.98,90.807z"/>
	<path id="NI-NS" fill="#1E3250" stroke="#1E3250" stroke-width="0.5" d="M65.553,62.987l0.062,0.464l-0.716,2.059l0.305,0.71
		l2.643,2.033l1.073,1.232l0.739,0.314l0.509-0.882l1.427,0.35l0.289,0.405l-0.026,1.035l1.024,1.352l1.054,0.156l0.788-0.214
		l0.6,0.509l0,0l-0.645,1.116l-0.782,0.639l0.376,1.407l-0.438,0.769l0.032,0.993l-0.937,1.822v1.534l-0.47,0.577l0.344,1.054
		l-0.314,0.992l0.658,0.191l-0.688,0.798l0.366,0.538l-0.162,0.328l-0.376-0.253l-0.71,0.509l-1.061-0.017l-0.924,0.856
		l-0.282,0.862l-0.801-0.289l-0.344-0.545l-1.547-1.047l-1.223-0.185l-0.558,0.72l-1.466,0.003l0,0l-1.511-1.245l-0.11-0.866
		l-0.363-0.5l-2.5-2.017l-1.541,0.405l-1.132-0.48l-1.297-0.02l-1.849,1.232l-1.838,0.529l-0.38-0.292l-3.998-0.733l-1.469,0.169
		l-1.822,0.83l-0.438-0.422l-0.564,0.088l-1.07-0.542l-0.295-0.373l-0.071-1.093l-0.629-0.532l-3.411-0.535l-0.95,0.454l0,0
		l-0.814-0.314l-0.081-0.477l0.866-1.972l-0.204-1.401l0.211-0.927l0.827-0.042l1.021-0.512l2.4,0.366l1.657-0.126l2.471-0.772
		L45,73.866l0.464,0.668l0.915,0.474l0.976-0.084l0.888-0.46l0.717,0.966l1.508-0.016l0.691-0.428l0.451,0.347l0.72-0.026
		l0.966-0.772l0.782-1.307l0.036-1.255l0.788-0.396l0.168-0.542l0.924-0.606l1.164-1.725l1.411-1.103l-0.097-0.97l1.158-0.27
		l0.827-0.583l0.059-0.305l-0.62-0.48l0.055-0.477l2.257-1.255l2.26-0.191l0.866-0.331L65.553,62.987z"/>
	<path id="NI-RI" fill="#1E3250" stroke="#1E3250" stroke-width="0.5" d="M82.743,162.764l-0.194,0.934l0.162,1.311l0.652,1.093
		l1.514-0.168l0.704,0.272l0.198-0.353l0.321,0.262l0.603,1.398l-0.133,1.375l-0.889,0.62l-1.187,0.302l-0.973-0.35l-0.882-0.947
		l-0.312-0.924l0.084-1.015l-0.772-0.616l-1.258-0.129l-0.016,0.392L80,166.396l-0.529-0.295l-1.109,0.509l-1.612-1.174l0.788-1.961
		l1.501-0.912l2.812-0.626L82.743,162.764L82.743,162.764L82.743,162.764z M69.645,158.205l1.158,1.255l-0.428-1.784l0.544,0.282
		l0.529,3.052l0.609,1.803l1.68,2.539l0.567,3.275l0.658,1.508l1.381,1.812l0.658,0.279l1.294,1.887l1.732,1.618l0.509,0.026
		l0.243-0.282l0.636,0.117l1.557,0.785l0.901,0.995l0.597,0.137l0.879,0.833l0.694,0.007l1.43,0.762l3.136,0.308l0.814,0.432
		l1.031-0.136l2.332,1.449l0.583-0.133l0.83,0.486l1.028-0.052l0,0l0.127,1.498l0,0l-6.535-3.181l-2.221,0.01l-4.122-1.515
		l-1.66-1.611l-1.81-0.529l-0.344,0.14l-3.106,5.497l-0.564-0.048l-0.486-0.438l-0.833-0.016l-0.82-0.652l-0.525,0.042l-0.791-0.869
		l-0.084-0.908l-0.662-1.203l-2.367-2.332l0.133-0.561l-0.535-0.104l0.003-0.454l-0.544-0.033l-0.535-1.154l-0.704-0.259
		l-0.71-0.931l-0.759-0.467l-0.934-0.081l-0.529-0.973l-1.122-0.551l0.104-0.415l-1.249-0.752l-0.71-1.103l-1.661-1.255
		l-1.115-0.334l-0.659-1.608l0,0l0.606-0.438l0.6-1.715l1.291-1.327l0,0l1.1,0.156l0.678-0.483l1.384-0.149l1.1-1.365l1.527,0.247
		L69.645,158.205z"/>
	<path id="NI-SJ" fill="#1E3250" stroke="#1E3250" stroke-width="0.5" d="M107.229,179.289L107.229,179.289l-0.126,0.444l0.5,0.25
		l-0.117,0.22l-0.406-0.019l-1.333-1.33l0.665,0.418l0,0L107.229,179.289z M105.445,178.857L105.445,178.857l-0.72,0.007
		l0.013-0.727l0.522-0.256l-0.007,0.752l0,0L105.445,178.857z M102.115,178.154l-0.295,0.989l-0.292-0.47l0.224-0.652l0.399-0.256
		L102.115,178.154z M103.295,177.116l0.532,0.467l0.357,0.908l-0.713,0.152l-0.875,0.626l-0.399-0.82l0.301-0.633l-0.168-0.532
		L103.295,177.116z M100.429,159.852l0.551-1.077l0.931-0.155l0.652-0.535l0.195-0.567l0.885,0.35l1.028-1.258l0.652-0.104
		l0.37-0.447l-0.178-0.665l0.421-0.217l0.205-0.6l2.623-0.885l0.658-0.859l2.319-1.245l3.207-0.766l4.968,0.474l0,0l1.038,3.479
		l0.901,0.389l-0.405,2.299l1.277,2.046l-0.081,0.831l-0.94,1.563l-0.275,1.135l0.516,4.475l0.558,0.396l2.221,0.574l2.624,1.768
		l2.192,0.911l0.256,0.655l-0.136,1.722l0.318,0.542l4.339,2.085l2.03,3.045l2.098,0.797l1.638,0.195l0.973-0.389l0.555,0.113
		l-0.185,0.357l0.195,0.717l0.704,0.755l1.518-0.5l0.431-0.477l0.704,0.292l0.71-0.211l-0.01-0.286l0.814,0.143l0.752-0.379
		l0.739,2.74l0.217,0.129l0.684-0.393l1.125,0.221l0,0l1.245,0.791l1.641,2.533l1.22,0.985l0.055,0.503l0.651,0.026l-0.551-0.772
		l1.323,0.036l0.625,1.038l-0.146,0.6l0.399,0.72l-0.117,1.203l0.275,1.469l-0.755,0.804l-1.268,0.006l-1.793,0.843l-1.08-0.02
		l-0.882,0.915l-1.102,0.104l-0.905,0.953l-1.339-0.091l-1.057,0.519l-0.292-0.036l-0.282-0.538l-0.973-0.279l-0.321-0.671
		l-1.226-0.7l-0.662-0.992l-0.405,0.055l-0.124,0.493l-0.7-0.149l-0.532,0.62l-1.268-0.432l-0.921,0.185l-0.253-0.707l-2.276,0.01
		l-0.421,0.331l-0.224-0.574l-0.801-0.324l-0.46-0.584l0.707-0.295v-1.56l-1.109-0.72l-1.297-0.253l-0.587-0.814l-1.063-0.146
		l-0.97-1.343l0.263-1.038l-0.529-0.769l-2.36,1.404l-0.814,0.032l-1.875-1.745l-2.879-1.219l-0.393-0.72l-1.381,0.454l-2.734-1.595
		L108.088,187l-10.73-4.034l0,0l-0.126-1.498l0,0l0.525-0.444l1.67,0.976l0.811-0.208l1.482,0.162l0.285,0.522l0.769,0.208
		l1.595-0.201l0.49,0.898l1.79-0.373l0.986,1.077l2.03-0.736l1.255,0.042l1.488-1.125l0.655,0.042l-0.406-0.243l0.467-1.145
		l-0.762-1.362l0.101-2.626l-0.191-0.295l0.266-0.551l-0.386-0.317l-0.34-1.846l-2.5-1.274l0.331-0.244l-0.146-0.703l-1.099-0.451
		l-0.253-0.616l-0.195-1.806l0.182-0.305l-0.266-0.563l-0.204-0.117l-0.775,0.717l-0.836-1.476l0.055-0.516l-1.453-1.19
		l-1.008-1.541l-1.151-0.765l-0.467-1.252l-0.982-1.4l-0.558-0.094L100.429,159.852z"/>
</g>
</svg>
