<?xml version="1.0" encoding="utf-8"?>
<!-- Generator: Adobe Illustrator 15.0.0, SVG Export Plug-In . SVG Version: 6.00 Build 0)  -->
<!DOCTYPE svg PUBLIC "-//W3C//DTD SVG 1.1//EN" "http://www.w3.org/Graphics/SVG/1.1/DTD/svg11.dtd">
<svg version="1.1" id="Layer_1" xmlns:amcharts="http://amcharts.com/ammap"
	 xmlns="http://www.w3.org/2000/svg" xmlns:xlink="http://www.w3.org/1999/xlink" x="0px" y="0px" width="279.102px"
	 height="149.602px" viewBox="0 0 279.102 149.602" enable-background="new 0 0 279.102 149.602" xml:space="preserve">
<defs>
	
	
		<amcharts:ammap  projection="mercator" leftLongitude="-83.052241" topLatitude="9.647779" rightLongitude="-77.158488" bottomLatitude="7.203556">
		</amcharts:ammap>
</defs>
<g>
	<path id="PA-EM" fill="#1E3250" stroke="#1E3250" stroke-width="0.5" d="M225.563,94.157l-3.039-4.566l-1.79,4.663l-4.601,1.677
		l3.782,9.148l10.754,6.003l1.602-8.064L225.563,94.157z M242.014,60.38l-7.864,6.631l7.483,15.542l8.167,7.546l11.388-3.676
		l-8.458-15.826l-9.439-10.035L242.014,60.38z"/>
	<path id="PA-NB" fill="#1E3250" stroke="#1E3250" stroke-width="0.5" d="M79.459,46.297L79.2,46.978l1.571,0.16L79.459,46.297z
		 M67.769,44.892h-4.042l6.846,8.483l-9.779-0.272l-7.287,4.376l-6.106-12.125l-4.919,5.463l4.441,3.211l-1.196,4.976l8.87,1.977
		l-1.14,13.037l4.894-0.156l2.849,5.197l11.213,3.327l8.867-5.01l1.43-9.305l14.067,4.338l-2.542-12.671l-13.659-0.912
		L67.769,44.892z"/>
	<path id="PA-1" fill="#1E3250" stroke="#1E3250" stroke-width="0.5" d="M60.248,44.926l-1.362-1.915l0.075,1.552L60.248,44.926z
		 M53.361,35.997l1.643,4.232l2.92-1.774L53.361,35.997z M50.856,36.331l-1.046-4.345l-2.624,1.171L50.856,36.331z M30.227,27.46
		l-4.995-2.393l-3.985,6.191l0.097,17.006l9.273,5.966l0.237,0.175l14.874,4.598l1.196-4.976l-4.441-3.211l4.919-5.463l6.106,12.125
		l7.287-4.376l-10.719-3.186L50.05,43.79l3.804-1.531l-9.426-2.673l2.152-7.306l-9.764-6.162l-1.915,3.838L30.227,27.46z"/>
	<path id="PA-KY" fill="#1E3250" stroke="#1E3250" stroke-width="0.5" d="M195.648,26.358l-0.421,0.15l0.209,0.024L195.648,26.358z
		 M189.786,27.07l-4.954-0.344l-7.296,9.917l31.052-0.812l19.896,11.847l14.708,12.296l0.1,0.587l9.439,10.035l4.054-5.428
		l-6.709-1.646l-21.351-22.835l-22.186-8.642l-21.01-0.856L189.786,27.07z"/>
	<path id="PA-5" fill="#1E3250" stroke="#1E3250" stroke-width="0.5" d="M243.192,59.975l-14.708-12.296l-5.6,8.62l-11.685,2.24
		l1.755,19.964l0.062-8.343l1.733,5.285l4.645-3.239l1.446,2.655v-4.433l0.869,5.016l-1.603,1.752l3.542-3.536l2.652,2.368
		l-1.702-6.453l4.707,11.6l12.096,6.843l-11.225-4.56l-5.497-7.196l-7.331,6.478l2.268,5.828l-7.78,2.53l6.09,15.664l16.763,19.471
		l6.962-12.593l-1.393-7.487l7.793,7.568l10.163-7.63l1.662-8.321l5.803-1.586l-4.492-9.76l-11.388,3.676l-8.167-7.546
		l-7.483-15.542l7.864-6.631l1.277,0.182L243.192,59.975z M220.735,94.253l1.79-4.663l3.039,4.566l6.709,8.861l-1.602,8.064
		l-10.754-6.003l-3.782-9.148L220.735,94.253z"/>
	<path id="PA-9" fill="#1E3250" stroke="#1E3250" stroke-width="0.5" d="M69.818,126.621l1.131-2.62l-1.712-0.175L69.818,126.621z
		 M101.479,112.622l-3.092-0.868l-5.663,3.589L101.479,112.622z M72.129,108.777l-5.766,6.565l5.45,6.037l6.693,0.584l-5.541-5.007
		L72.129,108.777z M110.428,58.756l-1.234-3.017l-14.958,3.998l2.542,12.671L82.711,68.07l-1.43,9.305l-5.969,16.329l5.829,12.206
		l12.703,4.376l0.315-12.322l5.516,2.358l1.44-2.942l5.241,27.938l13.774,0.843l-4.892-12.49l-9.436-10.082l-0.028-5.794
		l10.847-9.873L110.909,70.6l3.495-3.313L110.428,58.756z"/>
	<path id="PA-8" fill="#1E3250" stroke="#1E3250" stroke-width="0.5" d="M194.692,82.044l-0.09-0.575l-0.322,0.69L194.692,82.044z
		 M185.204,82.444l-1.977-2.42l-0.434,4.635L185.204,82.444z M196.054,77.615l-0.781-0.921l-0.228,0.781L196.054,77.615z
		 M183.542,75.691l-1.062,0.593l1.577,1.184L183.542,75.691z M193.787,74.198l-4.735,0.397l2.992,9.626L193.787,74.198z
		 M188.592,73.811l0.469-1.09l-1.79,0.828L188.592,73.811z M185.4,72.899v-0.803l-0.318,0.315L185.4,72.899z M186.859,68.052
		l-0.206,0.596l0.597-0.259L186.859,68.052z M162.366,67.374l-0.24,0.865l0.777,0.078L162.366,67.374z M185.422,67.602l0.318-0.69
		l-0.521-0.503L185.422,67.602z M164.152,59.181l-0.244,0.922l1.09,0.325L164.152,59.181z M166.389,59.147l-0.031-0.459
		l-0.516,0.652L166.389,59.147z M182.608,53.244l0.169-0.353l-0.315-0.337L182.608,53.244z M171.227,33.851l-5.347-2.502
		l-6.228,13.977l-9.991-2.677l-2.115,8.295l-7.677,2.046l4.088,23.588l14.39-10.417l-5.316,0.128l5.191-9.914l5.803-3.826
		l2.309,2.627l3.567-4.935l13.174,0.825l-0.125-3.813l5.994-2.655l-5.516,2.658l0.869,3.804l18.431,12.259l1.574-2.852l8.655,18.034
		l-1.755-19.964l11.685-2.24l5.6-8.62l-19.896-11.847l-31.052,0.812L171.227,33.851z"/>
	<path id="PA-7" fill="#1E3250" stroke="#1E3250" stroke-width="0.5" d="M120.129,126.162l25.78-11.375l-16.11-21.08l-14.562,19.965
		L120.129,126.162z"/>
	<path id="PA-6" fill="#1E3250" stroke="#1E3250" stroke-width="0.5" d="M122.44,89.053l-5.819-1.131l-10.847,9.873l0.028,5.794
		l9.436,10.082l14.562-19.965l-4.354-4.022L122.44,89.053z"/>
	<path id="PA-3" fill="#1E3250" stroke="#1E3250" stroke-width="0.5" d="M161.32,24.734l-6.878,11.113l-7.868-0.6l-6.378,6.734
		l-19.021,5.378l-11.981,8.38l1.234,3.017l3.976,8.53l9.114-13.252l7.708,2.067l6.325-7.318l2.317,4.207l7.677-2.046l2.115-8.295
		l9.991,2.677l6.228-13.977l5.347,2.502l6.31,2.792l7.296-9.917L161.32,24.734z"/>
	<path id="PA-2" fill="#1E3250" stroke="#1E3250" stroke-width="0.5" d="M139.868,52.991l-2.317-4.207l-6.325,7.318l-7.708-2.067
		l-9.114,13.252l-3.495,3.313l5.712,17.322l5.819,1.131l3.005,0.631l3.919-9.401l14.592-3.704L139.868,52.991z"/>
	<path id="PA-4" fill="#1E3250" stroke="#1E3250" stroke-width="0.5" d="M46.38,89.815l1.24-0.497l-0.106-1.299L46.38,89.815z
		 M51.768,84.527l-4.042-0.122l2.948,1.865L51.768,84.527z M47.661,82.153l-4.807,0.325l1.877,2.014L47.661,82.153z M30.854,54.406
		l-0.237-0.175l-8.58,7.024l3.161,12.45l-8.624,5.881l6.534,12.518l2.48-10.419l15.573,0.059l1.693-3.382l1.299,2.92l9.126-2.361
		l1.181,7.93l1.73-3.233l14.18,4.695l1.443-2.92l3.498,8.311l5.969-16.329l-8.867,5.01l-11.213-3.327l-2.849-5.197l-4.894,0.156
		l1.14-13.037l-8.87-1.977L30.854,54.406z"/>
</g>
</svg>
