<?xml version="1.0" encoding="utf-8"?>
<!-- Generator: Adobe Illustrator 15.0.0, SVG Export Plug-In . SVG Version: 6.00 Build 0)  -->
<!DOCTYPE svg PUBLIC "-//W3C//DTD SVG 1.1//EN" "http://www.w3.org/Graphics/SVG/1.1/DTD/svg11.dtd">
<svg version="1.1" id="Layer_1" xmlns:amcharts="http://amcharts.com/ammap"
	 xmlns="http://www.w3.org/2000/svg" xmlns:xlink="http://www.w3.org/1999/xlink" x="0px" y="0px" width="828.5px" height="906.5px"
	 viewBox="0 0 828.5 906.5" enable-background="new 0 0 828.5 906.5" xml:space="preserve">
<defs>
	
	
		<amcharts:ammap  projection="mercator" leftLongitude="-62.638139" topLatitude="-19.287659" bottomLatitude="-27.581759" rightLongitude="-54.258562">
		</amcharts:ammap>
</defs>
<g>
	<path id="PY-7" fill="#1E3250" stroke="#1E3250" stroke-width="0.5" d="M597.35,861.75l23.15-30.24l35.23,15.53l15.569-12.37
		l-0.66-17.24l17.551-20.08l26.26-2.79l20.819-29.85l10.75-1.37l13.53-44.95l-21.59-10.12l-12.92,9.921l-19.96-4.11l-5.21-12.2
		l-16.601,21.68l-50.81,23.48l-9.85,16.72l-29.471,11.78l-15.29-5.68l3.631,42.59l-14.601,14.47l4.7,21.11L597.35,861.75z"/>
	<path id="PY-14" fill="#1E3250" stroke="#1E3250" stroke-width="0.5" d="M788.76,559.29l9.17-39.05l-6.91-21.91l8.521-10.25
		l-37.53-25.66L733,479.58l-40.35,2.14l-15.87-47.8l-6.101,13.01l-43.939,20.08l6.35,18.15l-14.62,12.28l-1.02,12.67l38.649,54.56
		l21.73-23.8l28.13-5.601l12.59-3.09l29.03,20.53L788.76,559.29z"/>
	<path id="PY-6" fill="#1E3250" stroke="#1E3250" stroke-width="0.5" d="M699.87,701.88l5.57-6.38l-26.36-5.25l10.62-37.81
		l-8.681-6.41l-12.89,10.01l-38.96,25.78l-6.229,13.189l-24.771-0.87l-21.68,17.57l-18.76,38.79l20.119,19.36l15.29,5.68
		l29.471-11.78l9.85-16.72l50.81-23.48L699.87,701.88z"/>
	<path id="PY-5" fill="#1E3250" stroke="#1E3250" stroke-width="0.5" d="M681.02,646.03l25-34.2l26.431,11.22l-5.87-15.79l-30.36-24
		l9.74-47.99l-28.13,5.601l-21.73,23.8l-18.909,6.22l-9.181,13.61l-18.16-19.76l-24.6,25.04l-6.6,34.479l-23.91,17.271l6.52,14.84
		l9.48,6.02l27.42-14.02l69.97,7.67L681.02,646.03z"/>
	<path id="PY-10" fill="#1E3250" stroke="#1E3250" stroke-width="0.5" d="M788.76,559.29l-41.18-6.58l-29.03-20.53l-12.59,3.09
		l-9.74,47.99l30.36,24l5.87,15.79l-26.431-11.22l-25,34.2l8.681,6.41l-10.62,37.81l26.36,5.25l-5.57,6.38l5.21,12.2l19.96,4.11
		l12.92-9.921l21.59,10.12l5.26-85.319l17.45-29.851L788.76,559.29z"/>
	<path id="PY-13" fill="#1E3250" stroke="#1E3250" stroke-width="0.5" d="M676.78,433.92l-8.561-92.36l-22.62-35.99l-33.649-1.46
		l-19.771-20.67l-21.63,19.44l-6.34-4.94l-12.14,7.57l24.84,7.521l-13.351,17.64l2.7,35.67l40.23-17.72l13.74,36.36l-16.551,29.13
		l21.41-0.91l3.07,10.14l-9.87,9.47l5.35,9.79l15.051-8.319l-11.95,32.729l43.939-20.08L676.78,433.92z"/>
	<path id="PY-9" fill="#1E3250" stroke="#1E3250" stroke-width="0.5" d="M561.26,656.37l-14.67,0.51l-0.22-12.56l-17.68-1.4
		l-7.011-10.64l-22.949,27.27l-9.61,34.67l2.53,16.561L469.88,736.85l32.24,22.2l17.08-4.189l14.149-18.92l24.381,14.56l18.76-38.79
		l-5.75-49.32L561.26,656.37z"/>
	<path id="PY-12" fill="#1E3250" stroke="#1E3250" stroke-width="0.5" d="M489.12,694.22l-18.45-21.01L459,677.14l-5.05,17
		l-26.54,18.16l-2.61,49.91l-13.06,23.85l-15.221,6.82L379.1,819.32l5.16,14.05l55.471-6.05l67.819,18.17l10.88-35.75l-21.52-5.5
		l-18.86-24.181l-8.17-43.21l21.771-26.069L489.12,694.22z"/>
	<path id="PY-8" fill="#1E3250" stroke="#1E3250" stroke-width="0.5" d="M557.73,750.5l-24.381-14.56L519.2,754.86l-17.08,4.189
		l-32.24-22.2l8.17,43.21l18.86,24.181l21.52,5.5l-10.88,35.75l19.16,6.59l19.5-7.72l12.69,9.449l12.68-5.779l-4.7-21.11
		l14.601-14.47l-3.631-42.59L557.73,750.5z"/>
	<path id="PY-4" fill="#1E3250" stroke="#1E3250" stroke-width="0.5" d="M668.13,656.04l-69.97-7.67l-27.42,14.02l5.75,49.32
		l21.68-17.57l24.771,0.87l6.229-13.189L668.13,656.04z"/>
	<path id="PY-11" fill="#1E3250" stroke="#1E3250" stroke-width="0.5" d="M493.75,599.32l-12.24,12.84l-1.35,17.81l2.12,17
		l-16.99,11.44L459,677.14l11.67-3.93l18.45,21.01l9.61-34.67l22.949-27.27L493.75,599.32z"/>
	<path id="PY-2" fill="#1E3250" stroke="#1E3250" stroke-width="0.5" d="M626.74,467.01l11.95-32.729L623.64,442.6l-5.35-9.79
		l9.87-9.47l-3.07-10.14l-21.41,0.91L577,425.74l-82.41,2.359l1.95,14.9l14.28,11.83l-6.48,19.96l17.22,20.26l-5.409,10.79
		l12.31,47.79l-15.06,22.46l3.359,10.24l14.74,5.12l33.72-12.86l20.03,11.19l24.6-25.04l18.16,19.76l9.181-13.61l18.909-6.22
		l-38.649-54.56l1.02-12.67l14.62-12.28L626.74,467.01z"/>
	<path id="PY-15" fill="#1E3250" stroke="#1E3250" stroke-width="0.5" d="M456.21,319.32l-39.47-23.17l-86.27-3.81l-16.53-8.02
		l3.31,12.18l-28.61,10.92l-31.11,50.36l-12.31,72.96l-65.44,15.229l-3.55,23.63l42.91,14.91l28.93-0.979l116.66,80.52l89.41,32.41
		L473.07,618l8.439-5.84l12.24-12.84l23.01-12.99l-3.359-10.24l15.06-22.46l-12.31-47.79l5.409-10.79l-17.22-20.26l6.48-19.96
		L496.54,443l-1.95-14.9L490.98,407.2l-29.091-26.08L461.6,364.1l-14.08-14.52l15.721-6.29L456.21,319.32z"/>
	<path id="PY-3" fill="#1E3250" stroke="#1E3250" stroke-width="0.5" d="M585.25,589.78l-20.03-11.19l-33.72,12.86l-14.74-5.12
		l-23.01,12.99l27.93,32.96l7.011,10.64l17.68,1.4l0.22,12.56l14.67-0.51l-6.52-14.84l23.91-17.271L585.25,589.78z"/>
	<path id="PY-1" fill="#1E3250" stroke="#1E3250" stroke-width="0.5" d="M552.07,305.51l-107.69-21.4l11.83,35.21l7.03,23.97
		l-15.721,6.29l14.08,14.52l0.29,17.021l29.091,26.08l3.609,20.899L577,425.74l26.68-11.63l16.551-29.13l-13.74-36.36l-40.23,17.72
		l-2.7-35.67l13.351-17.64L552.07,305.51z"/>
	<path id="PY-19" fill="#1E3250" stroke="#1E3250" stroke-width="0.5" d="M313.94,284.32l-56.77-4.38l8.23-58.55l14.89-13.79
		l-15.24-64.98L67.91,78.28l-33.59,52.28l0.15,49.62L0.46,306.23L33.38,325.6l28.12,53.11l23.6,24.521l60.44,38.64l9.87,20.649
		l20.82,7.08l3.55-23.63l65.44-15.229l12.31-72.96l31.11-50.36l28.61-10.92L313.94,284.32z"/>
	<path id="PY-16" fill="#1E3250" stroke="#1E3250" stroke-width="0.5" d="M444.38,284.11l14.82-115.46l-9.26-4.89l5.25-7.54
		l-7.69-3.88l7.88-5.48l-11.71-4.8l-0.84-26.41l-16.51-19.3l-0.16-41.6L339.92,0l-89.25,0.67l-164.9,34.5L67.91,78.28l197.14,64.34
		l15.24,64.98l-14.89,13.79l-8.23,58.55l56.77,4.38l16.53,8.02l86.27,3.81l39.47,23.17L444.38,284.11z"/>
	<path id="PY-ASU" fill="#1E3250" stroke="#1E3250" stroke-width="0.5" d="M480.16,629.97l1.35-17.81L473.07,618L480.16,629.97z"/>
</g>
</svg>
