<?xml version="1.0" encoding="utf-8"?>
<!-- Generator: Adobe Illustrator 15.0.0, SVG Export Plug-In . SVG Version: 6.00 Build 0)  -->
<!DOCTYPE svg PUBLIC "-//W3C//DTD SVG 1.1//EN" "http://www.w3.org/Graphics/SVG/1.1/DTD/svg11.dtd">
<svg version="1.1" id="Layer_1" xmlns:amcharts="http://amcharts.com/ammap"
	 xmlns="http://www.w3.org/2000/svg" xmlns:xlink="http://www.w3.org/1999/xlink" x="0px" y="0px" width="214.5px" height="274.5px"
	 viewBox="0 0 214.5 274.5" enable-background="new 0 0 214.5 274.5" xml:space="preserve">
<defs>
	
	
		<amcharts:ammap  projection="mercator" leftLongitude="-81.390193" topLatitude="-0.035767" rightLongitude="-68.672457" bottomLatitude="-18.388935">
		</amcharts:ammap>
</defs>
<g>
	<path id="PE-AMA" fill="#1E3250" stroke="#1E3250" stroke-width="0.5" d="M55.524,98.213l-1.308,0.419l0,0l-0.82,0.189l0,0
		l-0.211-1.973l-0.772-0.911l-2.203-4.312l-2.209-1.157l-1.573-3.06l-1.513-1.097l0.051-0.933l-1.538-1.302v-1.182l0.829-2.011
		l0.117-0.945l0.473-1.182l0.593-0.826V76.75l-1.109-0.504l-0.029-0.173l-0.636-0.031l-0.946-0.949v-2.363l0.946-1.771l0.391-1.437
		L43,66.413l0,0l0.567-0.403l0.224-1.087l-0.293-2.234l0.41-0.382l1.049-2.452l0.136-1.566l0.293-0.882l1.781-2.231l0.715-4.167
		l0.602-0.362l0.539,0.224l0.196,1.276l0.882-0.64l0.145-0.271l-0.145-0.52l-0.463-0.703l0.205-0.353l1.131-0.778l1.103-1.604
		l1.465-1.557l0.886-0.722l0.665-0.236l0,0l0.492,2.149l0.091,1.771l0.656,1.264l0,0l0.561,1.251l0.574,2.578l0,0l-0.085,1.434
		l1.04,1.781l0.186,2.272l-0.347,3.319l0.161,0.744l-0.11,0.763l0,0l-0.955,2.203l0,0l-1.106,1.339l-0.479,0.949l-0.262,1.431
		l0.135,1.037l-0.867,0.974v0.946l1.39,1.109l0.271,1.144l0.942,1.922l0,0l-0.807,0.763l-0.23,0.662l-0.123,2.824l0.384,0.914
		l1.396,2.669l0.558,0.624l3.659,1.062l0.996,1.232l0.637,1.888l-0.29,0.548l-1.563,1.267l-0.719,1.711v0.583l-0.709,0.829
		l-0.709,0.353l-0.949-0.709l-1.418-0.117l-0.709,0.117l-0.715,0.605l-0.643,2.959l0,0L55.524,98.213z"/>
	<path id="PE-ANC" fill="#1E3250" stroke="#1E3250" stroke-width="0.5" d="M43.608,125.399l0.542-0.095l0.337-0.807l-0.031-0.983
		l0.681-0.92l3.98-1.361l1.853-4.797l1.075-0.952l1.204-0.709l1.081-1.57l2.903-0.463l0.476,1.503l0.955,0.923l0.753,0.353
		l2.196,3.511l0,0l0.911-0.202l0,0l-0.114,1.843l0.93,0.574L63.293,123l1.213,1.913l1.509,0.699l4.154,2.607l-0.069,1.125
		l-0.422,0.495l-1.702,0.208l-1.38,3.057l-0.652,0.113l-0.35,1.832l0.426-0.066l1.544,0.842l0.634,1.056l0.211,0.986l0.073,1.62
		l-1.056,1.197l0.281,0.914l-0.422,1.34l-0.369,0.359l0,0l-2.61,1.002l-0.451,0.643l-0.265,1.188l-0.854,0.942l-2.436,2.105
		l-1.059,0.388l-1.166,0.009l-0.233-1.428l0.076-0.904l-0.911-0.614l-0.195-0.857l0.12-0.441l0.353-0.492l0.633-0.422l0.073-0.917
		l-0.634-0.28l-0.848,0.142l-1.059,1.043l-0.217,1.986l-0.236,0.586l-1.037,0.747l0,0l-0.284-0.797l-2.07-3.151l-1.44-3.17
		l-1.065-2.931l0.129-1.037l-1.771-2.398l-0.318-1.292l-0.051-1.302l-0.463-0.879l-0.615-0.444l-0.473-2.134l-1.604-1.393
		L43.608,125.399z"/>
	<path id="PE-APU" fill="#1E3250" stroke="#1E3250" stroke-width="0.5" d="M126.719,203.379l-1.711,0.334l-1.175-0.126l-0.908-0.441
		l-0.296,0.028l-0.388,0.403l-0.772-0.154l0,0l-1.053-0.091l0,0l-0.974-0.561l-0.208,0.246l-0.303-0.227l-0.914,0.142l-1.478,0.561
		l-1.198,0.073l-1.55,0.633l-0.561,0.633l-0.731,0.384l-0.677-1.724l0.138-1.267l-0.211-1.198l-0.561-1.056l1.336-2.253v-0.64
		l-0.81-1.116l-1.201-3.309l-0.766-1.51l0.114-0.328l0.479-0.073l0.18-0.214l-0.712-1.131l-0.693-0.268l-0.24-0.514l-0.536-3.356
		l0.268-1.245l0.353-0.791l0.265-0.098l0.359,0.205l0.28,0.517l3.397,2.486l2.184-0.444l0.221-0.785l0,0l0.211,0.268l0,0
		l0.731,0.542l3.092,0.085l1.387-0.224l1.311,0.482l2.55,1.594l2.921,1.479l1.651,0.577l0.788,0.504l0.92,0.986l0.848,1.617
		l0.135,0.621l-0.031,1.758l-0.46,1.686l-0.227,0.425l-1.497,1.362l-0.432,0.914l-2.597,1.279l-0.378,0.432l-0.129,0.337l0.306,0.68
		L126.719,203.379z"/>
	<path id="PE-ARE" fill="#1E3250" stroke="#1E3250" stroke-width="0.5" d="M148.727,221.596l-0.218,3.618l-1.144,1.311l-0.161,0.325
		l0.116,0.702l-0.504,0.199l-0.914-0.28l-1.62-1.056h-0.633l-0.284,0.492l1.279,1.453l-0.8,0.381l-1.298,1.774l0.129,0.832
		l-0.129,0.734l-0.785,0.318l-0.87,0.725l-0.246,0.52l0.123,0.807l0.451,0.98l0.892,1.113l-0.384,1.459l-1.522,0.904l-1.349,0.397
		l0,0l-1.368-0.539l-2.014-0.47l-0.722-0.536l-0.498-0.782l-2.698-1.566l-1.431-1.078l-1.774-2.008l-1.258-0.725l-2.108-0.675
		l-1.557-0.11l-0.835-0.262l-1.516-1.242l-4.435-1.821l-1.065-0.923l-1.248-0.63l-5.773-1.985l-2.197-1.803l-0.633-0.867
		l-1.687-0.914l-2.994-0.971l-0.643-0.479l-0.542-1.009l-7.655-3.571l-0.668-0.678l0,0l0.734-2.07l1.056-1.339l1.878-1.009
		l1.371-0.139l0,0l0.34,0.665l3.12,0.756l0.75,2.335l1.932,1.762l0.835,0.107l1.317-0.649l0.413,2.225l0.457-0.01l0.488-0.277
		l0.098-1.154l0.914-1.973l2.042-0.987l-0.069,0.775l0.353,0.986l0.567,0.318l1.812-0.217l1.636-0.81l0.838,0.325l0.637-0.284
		l0.917-1.409l1.197-0.284l1.478-2.042l0.422-0.983l-0.211-1.973l0.28-0.914l0.422-0.706l1.271-0.422l0.217-0.879l0,0l0.416,0.035
		l0,0l0.772,0.154l0.388-0.403l0.296-0.028l0.908,0.441l1.175,0.126l1.711-0.334l0,0l-0.104,0.599l0.177,0.387l1.043,1.157
		l1.141,0.179l1.437-0.283l1.38,0.545l0.236,0.287l0.353-0.016l0.337-0.52l0.211-1.324l-0.318-0.621l0.202-0.417l0.375-0.021
		l2.168,2.638l-0.192,2.698l2.582,0.86l2.089-1.081l0.025-0.312l1.405,0.391l1.207,1.028l0.287-0.06l0.52-0.536l0.545-0.003
		l-0.038,3.448l0.845,0.987l0.848,0.211l0.898-0.114l0,0l-0.019,0.775l0,0l0.164,1.409l1.535,1.774l-0.511,1.412l0.709,1.182
		l0.678,0.706L148.727,221.596z"/>
	<path id="PE-AYA" fill="#1E3250" stroke="#1E3250" stroke-width="0.5" d="M121.053,203.389l-0.217,0.879l-1.271,0.422l-0.422,0.706
		l-0.28,0.914l0.211,1.973l-0.422,0.983l-1.478,2.042l-1.197,0.284l-0.917,1.409l-0.637,0.284l-0.838-0.325l-1.636,0.81
		l-1.812,0.217l-0.567-0.318l-0.353-0.986l0.069-0.775l-2.042,0.987l-0.914,1.973l-0.098,1.154l-0.488,0.277l-0.457,0.01
		l-0.413-2.225l-1.317,0.649l-0.835-0.107l-1.932-1.762l-0.75-2.335l-3.12-0.756l-0.34-0.665l0,0l0.438-1.087l-0.003-1.418
		l-0.93-0.854l-1.548-3.026l-0.422-0.564l-0.514-0.183l-0.476,0.485l-1.478-0.021l-0.561-1.548l-0.211-1.481l0.35-0.845l0.262-4.053
		l0,0l0.094,0.032l0,0l0.561-0.063l1.198,0.353l1.478-0.422l0.775-1.973l0.113-2.455l-0.148-0.605l0.167-0.974l-1.009-1.324
		l-0.867-0.57l0.438-1.494l1.396-0.413l0.388,0.24l0.435-0.218l1.479-1.762l1.831-1.056l0.633-1.267l1.059-0.353l0.671-0.482
		l-0.293-0.492l0.107-0.394l-0.274-1.38l-1.144-4.336l-0.18-0.262l-0.29-0.041l-0.148-0.501l-0.838-0.958l0.454-1.229l0.876,0.076
		l1.072-0.889l0,0l0.003,0.006l0,0l0.618-0.066l1.056,0.772l1.125,0.211l0.844-0.139l0.564-0.353l1.339,0.069l0,0l-0.041,0.63l0,0
		l1.954,4.135l0.703,0.804l0.227-0.164l0.731,0.687l0.722,1.525l0.983,0.659l1.479,3.025l0.353,1.409l1.55,2.254l-0.072,0.334l0,0
		l0.009,0.009l0,0l-0.221,0.785l-2.184,0.444l-3.397-2.486l-0.28-0.517l-0.359-0.205l-0.265,0.098l-0.353,0.791l-0.268,1.245
		l0.536,3.356l0.24,0.514l0.693,0.268l0.712,1.131l-0.18,0.214l-0.479,0.073l-0.114,0.328l0.766,1.51l1.201,3.309l0.81,1.116v0.64
		l-1.336,2.253l0.561,1.056l0.211,1.198l-0.138,1.267l0.677,1.724l0.731-0.384l0.561-0.633l1.55-0.633l1.198-0.073l1.478-0.561
		l0.914-0.142l0.303,0.227l0.208-0.246l0.974,0.561l0,0L121.053,203.389z"/>
	<path id="PE-CAJ" fill="#1E3250" stroke="#1E3250" stroke-width="0.5" d="M43,66.413l1.056,3.107l-0.391,1.437l-0.946,1.771v2.363
		l0.946,0.949l0.636,0.031l0.029,0.173l1.109,0.504v1.182l-0.593,0.826l-0.473,1.182l-0.117,0.945l-0.829,2.011v1.182l1.538,1.302
		l-0.051,0.933l1.513,1.097l1.573,3.06l2.209,1.157l2.203,4.312l0.772,0.911l0.211,1.973l0,0l-0.038,0.006l0,0l1.727,3.583
		l0.564,1.479l0.211,1.27l-1.831,2.112l-0.47,0.157l-0.195,0.448l-0.684,0.167l-0.504-0.441l-0.829-0.236l-0.945,0.826l-1.831,0.797
		l-0.158-0.703l-0.545-0.34l-0.066-1.881l-0.709-0.473l-2.127,0.356l-0.829-0.237l-0.236-1.065l-0.946-0.589l-1.538,0.826
		l-1.535,1.655l-0.829,0.356l-0.75-0.047l-0.022-0.41l-0.539-1.109l-1.22-1.021l-1.305-0.34l-0.419-1.091v-0.829l-0.255-0.362
		l-0.135-2.686l0,0l0.296-0.11l0.113-0.444l0.025-1.147l0.867-0.416l1.131-1.144l0.066-0.517l-0.161-0.306l-1.916-0.378
		l-1.809-2.152l-0.158-2.099l0.886-0.857l0.618-0.271l0.848,0.057l0.533-1.034l0.451-2.206l-0.113-0.252l-1.299-0.577l-0.451-0.87
		l0,0l0.057-0.044l0,0l-0.69-1.245l-0.268-1.135l0.268-2.149l0.81-0.99l0.293,0.041l-0.076-2.222l-0.479-0.662l-0.463-1.636
		l1.109-1.601l1.068-1.138l0,0l1.771,0.151l0.498,0.34l0.359-0.066l1.453-1.705l0.139-1.708l0.567-0.854l1.147-0.848L43,66.413z"/>
	<path id="PE-CAL" fill="#1E3250" stroke="#1E3250" stroke-width="0.5" d="M63.495,162.62l1.393,0.104l0.072,2.464l1.125,1.831
		l0.211,0.703l-0.681,0.968l0,0l-0.832-0.772l-1.157-0.312l0.466-0.968l-0.158-1.456l-0.444-1.248l0.148-0.901L63.495,162.62z"/>
	<path id="PE-CUS" fill="#1E3250" stroke="#1E3250" stroke-width="0.5" d="M120.615,157.233l1.424,0.873l1.872,0.211l0.945,0.413
		l0,0l0.668,0.177l1.472-0.77l0,0l0.747-0.677l1.68-0.501l0,0l-0.28,2.805l-0.634,1.059l-1.339,1.478l1.166,1.475l-0.12,0.551
		l0.435,0.507l0.28,1.479l2.396,1.481l0.772,1.056l0.425,0.987l1.056,0.491l-0.356,0.712l0.161,0.082l-1.425,1.175l1.409,1.832
		l0.211,2.115l0.772,0.561h0.564l4.154-0.845l1.55,2.184l1.125,0.775l2.042,0.561l0.315,0.64l0.671,2.953l0.633,0.142l0.845-0.564
		l1.229-1.1l0.18-0.589l0.564-0.211l1.056,0.422l1.62,0.139l1.34,0.422l0.945-0.075l1.094,0.217l0,0l-0.139,1.973l0,0l-0.072,1.478
		l-2.465,2.745l-2.392,3.098l-1.128,0.495l-0.211,1.831l0.284,1.267l-0.422,2.606l-1.198,2.323l-0.564,2.181l-0.914,0.637
		l-0.353,0.561l1.04,1.365l0.356,0.091l0.624,0.933l0.233,1.44l-0.529,1.031l0.098,1.5l0.372,0.586l0.132,0.999l-0.082,1.153
		l-0.634,0.344l0.07,0.624l0,0l-0.007,0.35l0,0l-0.898,0.114l-0.848-0.211l-0.845-0.987l0.038-3.448l-0.545,0.003l-0.52,0.536
		l-0.287,0.06l-1.207-1.028l-1.405-0.391l-0.025,0.312l-2.089,1.081l-2.582-0.86l0.192-2.698l-2.168-2.638l-0.375,0.021
		l-0.202,0.417l0.318,0.621l-0.211,1.324l-0.337,0.52l-0.353,0.016l-0.236-0.287l-1.38-0.545l-1.437,0.283l-1.141-0.179
		l-1.043-1.157l-0.177-0.387l0.104-0.599l0,0l0.047-0.867l-0.306-0.68l0.129-0.337l0.378-0.432l2.597-1.279l0.432-0.914l1.497-1.362
		l0.227-0.425l0.46-1.686l0.031-1.758l-0.135-0.621l-0.848-1.617l-0.92-0.986l-0.788-0.504l-1.651-0.577l-2.921-1.479l-2.55-1.594
		l-1.311-0.482l-1.387,0.224l-3.092-0.085l-0.731-0.542l0,0l-0.221-0.277l0,0l0.072-0.334l-1.55-2.254l-0.353-1.409l-1.479-3.025
		l-0.983-0.659l-0.722-1.525l-0.731-0.687l-0.227,0.164l-0.703-0.804l-1.954-4.135l0,0l0.035-0.532l0,0l1.412-0.378l1.55,0.069
		l1.125,1.339l3.029-2.326l0.633-0.845l-1.633-3.205l-1.112-0.454l-0.211-1.128l0.612-2.717l0.715-0.983l0.766-1.856l0,0l0.29,0.117
		l3.417-0.448l2.575-0.762l0,0L120.615,157.233z"/>
	<path id="PE-HUC" fill="#1E3250" stroke="#1E3250" stroke-width="0.5" d="M66.914,143.297l0.369-0.359l0.422-1.34l-0.281-0.914
		l1.056-1.197l-0.073-1.62l-0.211-0.986l-0.634-1.056l-1.544-0.842l-0.426,0.066l0.35-1.832l0.652-0.113l1.38-3.057l1.702-0.208
		l0.422-0.495l0.069-1.125l-4.154-2.607l-1.509-0.699L63.293,123l0.047-1.752l-0.93-0.574l0.114-1.843l0,0l0.526-0.117l0,0
		l1.065-0.709l0,0l0.709,1.093l0.558-0.091l0.378,0.479h1.916l-0.063-0.243l1.702-0.293l0.946,0.236l1.301-0.473l1.535,0.709
		l0.945-1.538l0.558,0.28l0.025-0.16l1.043,0.649l1.733,3.545l0.681,0.082l0.469-0.551l-0.608-3.962l1.182-1.185l1.267-0.454l0,0
		l0.463,0.725l0,0l-0.044,0.06l0,0l-0.261,1.154l0,0l-0.101,1.771l0,0l0.325,0.81l-0.044,1.09l0,0l-0.211,1.276l0.413,1.544
		l1.239,2.736l2.294,3.668l0.703,0.22l2.196-1.317l0.76,0.183l1.059-0.283l1.267-1.194l-0.072-1.409l0.706-0.845l0.277-1.39
		l1.834-0.303l0.353,0.706h0.633l0.353-0.633l0.069-0.917l0.782-2.439l1.529-0.611l1.721,0.082l0.58,0.454l0.249,1.261l-0.643,0.419
		l-0.792,1.538l-0.214,1.018l0.239,1.027v1.406l0.561,0.706l0.284,1.056l0,0l-0.564,0.703l-0.265,0.971l0,0l-1.777,1.989
		l-0.281,0.986l-0.917,0.983l-0.844,0.073l-1.125,0.703l-0.205,0.406l-0.24-0.021l-0.964,0.882l-0.939-0.949l-0.47-0.246
		l-0.845-0.072l-2.351,1.837l-0.441,0.06l-2.701,2.26l-1.336,2.039l-0.775,0.284l-0.353,0.564l-0.703,0.28l-0.564,1.9l-4.296-0.775
		l-0.633-0.281l-0.703-0.703l-0.986-0.073l-1.056,0.353l-1.973,1.336l-1.201,0.284l0,0l-0.035-0.042l0,0l-0.804-0.318l-0.262-0.898
		l-0.299-0.208l-0.589,0.136l-0.343-0.208L66.914,143.297z"/>
	<path id="PE-HUV" fill="#1E3250" stroke="#1E3250" stroke-width="0.5" d="M101.519,169.298l-1.072,0.889l-0.876-0.076l-0.454,1.229
		l0.838,0.958l0.148,0.501l0.29,0.041l0.18,0.262l1.144,4.336l0.274,1.38l-0.107,0.394l0.293,0.492l-0.671,0.482l-1.059,0.353
		l-0.633,1.267l-1.831,1.056l-1.479,1.762l-0.435,0.218l-0.388-0.24l-1.396,0.413l-0.438,1.494l0.867,0.57l1.009,1.324l-0.167,0.974
		l0.148,0.605l-0.113,2.455l-0.775,1.973l-1.478,0.422l-1.198-0.353l-0.561,0.063l0,0l-0.425-0.133l0,0h-0.987l-0.545,0.256
		l-0.933-0.114l-1.125-0.633l-0.306-0.501l-1.45-0.653l-0.41-0.734l-0.066-1.336l0.432-0.826l-0.324-1.648l0.621-0.621l0.356-0.697
		l0.019-1.576l-0.422-0.422l-0.844,0.069l-1.22,0.942l-1.494,0.066l-0.299-0.328l-0.438,0.025l-0.422-0.564l1.128-1.762l0.321-2.685
		l0,0h0.003l0,0l-0.044-0.413l0.845-0.35l1.128-2.042l0.492-0.495l-0.211-0.633l0.429-1.529l-0.214-0.145l0,0l-0.019-0.05l0,0h1.072
		l4.507-4.227l1.339-2.111l0.139-1.62l0.775-0.491l1.803-0.281l2.562-0.003l0.356,0.211h1.052l1.901,0.422l0.775,0.706l0.211,0.914
		l-0.495,0.135l0,0L101.519,169.298z"/>
	<path id="PE-ICA" fill="#1E3250" stroke="#1E3250" stroke-width="0.5" d="M75.965,183.994l0.492-0.429l0.564-1.267l2.606-1.9
		l0.844-0.353l0.772,0.284h1.339l0.101,0.35l0,0l0.06-0.009l0,0l-0.321,2.685l-1.128,1.762l0.422,0.564l0.438-0.025l0.299,0.328
		l1.494-0.066l1.22-0.942l0.844-0.069l0.422,0.422l-0.019,1.576L86.06,187.6l-0.621,0.621l0.324,1.648l-0.432,0.826l0.066,1.336
		l0.41,0.734l1.45,0.653l0.306,0.501l1.125,0.633l0.933,0.114l0.545-0.256h0.987l0,0l0.331,0.101l0,0l-0.262,4.053l-0.35,0.845
		l0.211,1.481l0.561,1.548l1.478,0.021l0.476-0.485l0.514,0.183l0.422,0.564l1.548,3.026l0.93,0.854l0.003,1.418l-0.438,1.087l0,0
		l-1.371,0.139l-1.878,1.009l-1.056,1.339l-0.734,2.07l0,0l-1.74-2.691l-0.876-0.908l-1.346-0.955l-1.692-2.478l-4.283-2.524
		l-1.267-1.037l-0.11-1.056l-0.583-1.427l-1.358-1.318l-0.728-2.02l-0.851-0.775l-1.371-0.656l0.082-3.082l-1.185-0.571l0.214-0.697
		l0.57-0.211l0.362,0.183l0.391,0.571l0.961-2.918l0.274-2.477l-1.072-1.982L75.965,183.994z"/>
	<path id="PE-JUN" fill="#1E3250" stroke="#1E3250" stroke-width="0.5" d="M72.786,153.764l0.835-0.123l0.775,0.211l0.258,0.454
		l0.35-0.051l0.517,0.369l0.914-0.139l0.706-0.706l0.986,0.142l0.983-0.422l0.284-0.706l-0.142-0.633l-1.125,0.073l-0.082-0.756
		l0.151-0.511l0.914-0.564l0.706,0.069l0.633,0.495l2.042-0.422l3.24-1.481h0.35l0.987,1.109l1.27,0.022l0.671-0.211l0.243-0.425
		l1.689-0.917l0.917-0.139l1.1,0.255l0.659-0.044l4.236,2.241l1.655-0.022l0,0l0.35,1.667l0.942,0.337h1.409l2.188-0.06l1.604-0.306
		l0.504,1.917l1.336,0.28l0.633-0.353l0.284-0.914l0.041-2.568l0.699-1.295l1.724,0.523l0,0l0.968,1.021l0,0l0.23,2.212l0.753,0.211
		l0.583,0.494l0.284,2.042l-0.092,1.273l0,0l-0.766,1.856l-0.715,0.983l-0.612,2.717l0.211,1.128l1.112,0.454l1.633,3.205
		l-0.633,0.845l-3.029,2.326l-1.125-1.339l-1.55-0.069l-1.412,0.378l0,0l0.006-0.098l0,0l-1.339-0.069l-0.564,0.353l-0.844,0.139
		l-1.125-0.211l-1.056-0.772l-0.618,0.066l0,0l-0.372-0.637l0,0l0.495-0.135l-0.211-0.914l-0.775-0.706l-1.901-0.422h-1.052
		l-0.356-0.211l-2.562,0.003l-1.803,0.281l-0.775,0.491l-0.139,1.62l-1.339,2.111l-4.507,4.227h-1.072l0,0l-0.101-0.303l0,0
		l-0.243-0.718l-0.069-1.762l0.265-1.384l-0.854-1.595l0.252-0.646l-0.104-0.41l-0.287-0.227l-0.041-1.371l-2.43,0.132l-2.865-0.971
		l-1.16-1.607l-0.813-0.797l-0.322-2.456l-0.312-0.211l-0.778,0.032l-0.592-0.249l-0.454-0.769l-1.295-2.635l-0.167-1.677
		l0.126-1.33l0,0L72.786,153.764z"/>
	<path id="PE-LAL" fill="#1E3250" stroke="#1E3250" stroke-width="0.5" d="M55.593,98.412l2.367,3.167l-0.429,1.081l0.057,0.706
		l0.57,1.387l0.577,0.35l0.504,4.599l1.128,0.211l0.492,0.422l0.372,2.351l1.583-0.592l1.065-0.117l0.826,0.589l1.418,0.236
		l1.182,1.774l0.356,1.298l-0.29,0.148l0.088,0.703l-2.754,0.687l-0.589,0.593l0,0l-1.065,0.709l0,0l-1.438,0.318l0,0l-2.196-3.511
		l-0.753-0.353l-0.955-0.923l-0.476-1.503l-2.903,0.463l-1.081,1.57l-1.204,0.709l-1.075,0.952l-1.853,4.797l-3.98,1.361
		l-0.681,0.92l0.031,0.983l-0.337,0.807l-0.542,0.095l0,0l0.012-0.567l-0.851-1.308l-0.615-3.268l-2.067-2.288l0.094-0.611
		l-1.024-2.055l-2.449-2.613l-1.907-1.384l-0.728-0.955l-0.75-1.298l-0.375-1.343l-1.765-2.622l0.044-0.854l-0.722-1.907
		l-0.958-1.024l0,0l2.238-2.357l0.851-0.646l1.327,0.331l0.444,0.369l0,0l0.135,2.686l0.255,0.362v0.829l0.419,1.091l1.305,0.34
		l1.22,1.021l0.539,1.109l0.022,0.41l0.75,0.047l0.829-0.356l1.535-1.655l1.538-0.826l0.946,0.589l0.236,1.065l0.829,0.237
		l2.127-0.356l0.709,0.473l0.066,1.881l0.545,0.34l0.158,0.703l1.831-0.797l0.945-0.826l0.829,0.236l0.504,0.441l0.684-0.167
		l0.195-0.448l0.47-0.157l1.831-2.112l-0.211-1.27l-0.564-1.479l-1.727-3.583l0,0l0.857-0.196l0,0l1.308-0.419l0,0L55.593,98.412z"
		/>
	<path id="PE-LAM" fill="#1E3250" stroke="#1E3250" stroke-width="0.5" d="M31.02,84.128l0.375,0.444l0,0l0.457-0.107l0,0
		l0.964,0.366l0.202,0.429l0,0l0.287-0.17l0,0l1.03-0.816l0,0l0.451,0.87l1.299,0.577l0.113,0.252l-0.451,2.206l-0.533,1.034
		l-0.848-0.057l-0.618,0.271l-0.886,0.857l0.158,2.099l1.809,2.152l1.916,0.378l0.161,0.306l-0.066,0.517L35.71,96.88l-0.867,0.416
		l-0.025,1.147l-0.113,0.444l-0.296,0.11l0,0l-0.444-0.369l-1.327-0.331l-0.851,0.646l-2.238,2.357l0,0l-0.082-0.873l-0.211-0.343
		l-1.173-1.415l-1.541-1.286l-0.64-1.642l-1.834-1.657l-4.523-2.298l-2.096-1.55l0,0l1.658-2.351l0.46-1.154l1.33-1.601l0.548-0.46
		l1.696-0.577l1.613-1.302l1.097-1.516l0.091-1.068l0.375-0.908l2.083,1.601l0.911,1.973l0.552,0.246l0,0l0.832,0.416L31.02,84.128z
		"/>
	<path id="PE-LIM" fill="#1E3250" stroke="#1E3250" stroke-width="0.5" d="M72.908,154.06l-0.126,1.33l0.167,1.677l1.295,2.635
		l0.454,0.769l0.592,0.249l0.778-0.032l0.312,0.211l0.322,2.456l0.813,0.797l1.16,1.607l2.865,0.971l2.43-0.132l0.041,1.371
		l0.287,0.227l0.104,0.41l-0.252,0.646l0.854,1.595l-0.265,1.384l0.069,1.762l0.243,0.718l0,0l0.12,0.353l0,0l0.214,0.145
		l-0.429,1.529l0.211,0.633l-0.492,0.495l-1.128,2.042l-0.845,0.35l0.044,0.413l0,0l-0.063,0.009l0,0l-0.101-0.35h-1.339
		l-0.772-0.284l-0.844,0.353l-2.606,1.9l-0.564,1.267l-0.492,0.429l0,0l-0.542-0.05l-2.6-2.981l-0.375-1.954l-1.576-2.115
		l-2.014-4.191l0,0l0.536-0.404l-0.142-1.267l1.27-1.97l0.069-1.762l-0.633-1.125l-0.917-1.056l-0.983-0.425l0.35-1.056l0.564-0.139
		l-0.353-0.706l-3.026-3.029l-0.917-0.211l-0.703,0.706l-0.706,0.353l-0.488,0.662l0,0l-0.886-1.314l-0.939-0.819l-3.675-2.086
		l-0.239-0.618l0.221-0.451l0.444-0.044l0.069-0.489l-0.923-3.354l-1.396-2.505l-1.497-1.873l0,0l1.037-0.747l0.236-0.586
		l0.217-1.986l1.059-1.043l0.848-0.142l0.634,0.28l-0.073,0.917l-0.633,0.422l-0.353,0.492l-0.12,0.441l0.195,0.857l0.911,0.614
		l-0.076,0.904l0.233,1.428l1.166-0.009l1.059-0.388l2.436-2.105l0.854-0.942l0.265-1.188l0.451-0.643l2.61-1.002l0,0l0.145,0.637
		l0.343,0.208l0.589-0.136l0.299,0.208l0.262,0.898l0.804,0.318l0,0l0.233,0.265l0,0l0.394,1.503l0.652,1.125l0.274,1.295
		l0.769,0.889l0.05,2.102l0.164,0.391l0.797,0.539l0,0L72.908,154.06z"/>
	<path id="PE-LMA" fill="#1E3250" stroke="#1E3250" stroke-width="0.5" d="M68.858,172.702l-0.466-1.138l-2.776-2.874l0,0
		l0.681-0.968l-0.211-0.703l-1.125-1.831l-0.072-2.464l-1.393-0.104l0,0l-0.715-1.346l0,0l0.488-0.662l0.706-0.353l0.703-0.706
		l0.917,0.211l3.026,3.029l0.353,0.706l-0.564,0.139l-0.35,1.056l0.983,0.425l0.917,1.056l0.633,1.125l-0.069,1.762l-1.27,1.97
		l0.142,1.267L68.858,172.702z"/>
	<path id="PE-LOR" fill="#1E3250" stroke="#1E3250" stroke-width="0.5" d="M91.056,5.684l1.554,1.037l1.122,1.015l1.046,0.448
		l0.643-0.356l0.539,0.028l0.69,1.093l0.167,0.961l1.021,0.599l0.34-0.306l2.874,2.134l0.318,0.46l0.728,2.727l0.92,0.961
		l-0.473,1.024l0.567,1.106l0.34,0.293l1.85,0.507l2.824,1.815l0.362,0.753l1.194,0.331l1.327-0.073l1.317,1.214l0.173,1.241
		l1.286,1.904l-0.536,0.589l-0.274,1.254l1.226,0.914l1.604,0.759l0.782-0.375l0.564-0.523l0.863,0.574l0.571,0.992l0.435,2.969
		l-0.265,0.731l-0.725,0.615l0.221,1.106l0.558,0.567l0.952,0.526l0.92-0.142l0.709,1.421l3.927-1.327l3.908,1.128l0.971,0.101
		l3.3-1.733l1.242,0.113l0.249-0.769l0.845-1.198l1.55-1.109l0.255,1.03l2.074,0.129l1.453,0.624l0.681,0.879l2.335,0.179
		l1.169-0.649l1.677-0.448l1.579-0.709l2.039,1.336h1.248l1.21,1.056l1.359,0.605l0.807,0.715l0.378-0.142l0.542,0.12l1.031,0.923
		l0.132,0.523l2.395-0.479v0.756l-0.491,1.677l-8.834,13.709l2.638,1.065h0.366l1.866-0.958l0.526,0.151l1.191,0.968l0.709,0.886
		l0.791,1.806l2.238,1.837l0.085,0.712l-0.394,0.668l-0.501,0.343l-2.433-0.072l-1.396-1.106l0.025-1.018l-0.277-0.46l-1.469-0.104
		l-0.948,0.64l-1.135,0.211l-0.558-0.47l-1.841-0.17l-0.939,0.526l-0.542,1.248l-1.125,1.368l-0.495-0.003l-0.8,0.712h-1.51
		l-1.358,0.753l-1.967,0.302l-1.96,0.757l-3.93-0.151l-2.566,2.266l-1.513,1.056l-1.963,0.756l-2.115,1.358l-2.111,2.266
		l-1.967,0.756l-1.51,2.417l-0.904,5.134l-1.812,1.51l-1.664,2.72l1.361,3.322l0.602,2.115l-1.963,1.963l-6.795,3.325l-0.605,3.17
		l-0.659,0.189l1.024,1.469l0.189,1.163l-0.435,0.333l-2.597,0.337l0.009,1.131l-0.428,1.138l-0.334,0.019l0,0l-0.416-0.359
		l-0.025-0.429l-1.831-1.478l-2.323-0.211l-0.495-0.564l-1.198,0.069l-1.667,2.285l0.413,3.839l-0.047,1.188l-0.309,0.7
		l-0.659,0.429l-0.334,0.785l-0.775,0.422l-1.762,0.142l-1.409-0.142l-0.703-0.353l-1.551-0.139l-1.68,1.791l-1.321-0.202
		l-0.841,0.633l-0.312,0.593l-0.069,2.862l-0.466,0.362l-0.722,0.18l-1.1-0.873h-0.586l-3.083,2.931l0,0l-0.495,0.214l-0.309-0.816
		l0,0l0.101-1.771l0,0l0.261-1.154l0,0l0.044-0.06l0,0l-0.549-0.86l0,0l0.237-1.774l0.592-1.062l0.756-0.703l-0.47-0.952h-0.929
		l-0.23-0.807l-0.832-1.09l-0.388-1.283l-0.318-2.181l-1.09-1.09l-0.388-1.157l0.051-1.873l0.882-0.293l0.113-0.526l1.305-0.933
		l-0.353-4.019l0.649-0.652l0.804-0.11l1.16,0.353l0.716,0.53l0,0l0.142,0.18l1.494-0.063l1.182-0.236l0,0l0.507-0.202l0.362-1.453
		l0.347-4.047l-0.151-1.059l0.59-0.687l0.12-1.182l-0.709-0.945l-1.182-0.59l0,0l-1.658,0.353l-0.879,0.671l0,0l-1.216-0.255
		l-1.989,0.003l-2.062,1.355l-0.945-0.473l-0.945-1.182l-1.302-1.182l-1.213-0.123l-1.213,0.757l-0.75,0.113l-1.333-0.744
		l-0.268-0.4l0,0l-0.687-1.897l0,0l-0.205-0.375l0,0l-0.217-0.388l-1.368-0.939l-0.678-0.214l0,0l-3.104-0.142l0,0l0,0l0,0
		l-0.747-0.293l-1.506-1.686l-2.288-0.829l-1.32-1.078l0,0l-0.942-1.922l-0.271-1.144l-1.39-1.109V72.02l0.867-0.974l-0.135-1.037
		l0.262-1.431l0.479-0.949l1.106-1.339l0,0l0.955-2.203l0,0l0.11-0.763l-0.161-0.744l0.347-3.319L58.42,56.99l-1.04-1.781
		l0.085-1.434l0,0l-0.574-2.578l-0.561-1.251l0,0l-0.656-1.264l-0.091-1.771l-0.492-2.149l0,0l15.465-5.301l7.892-5.897l6.01-7.151
		l0.851-0.753l2.178-8.251l0.964,0.763l1.529-0.139l-1.021-3.192l0.126-0.993l0.463-0.356l0.063-0.917l-0.246-0.507l-1.04-0.778
		l-0.325,0.025l-0.665-0.627l-0.911-2.502l-1.21-0.7l-0.718-0.107L84.613,6.5l1.302,0.139l1.267,0.633l1.012-0.173l0.86-0.422
		l0.359,0.038l0.444-0.353l0.284-0.791L91.056,5.684z"/>
	<path id="PE-MDD" fill="#1E3250" stroke="#1E3250" stroke-width="0.5" d="M151.661,152.661l0.01,0.46l1.412-0.999l1.002,0.983
		l1.434-0.12l4.469-0.602l1.172-0.558l1.96,0.145l0.57,0.504l2.292-0.151l8.642,14.29l3.381,6.88l-0.939,1.144l-0.967,2.033
		l-0.86,0.334l0.123,1.087l-0.255,1.112l-1.131,0.816l0,0l-1.034,0.659l-5.701,2.253l-0.775,0.845l-1.55,0.353l-1.507,0.129
		l-3-0.621l-3.309-1.62l-1.97-0.211l-0.854,0.158l0,0l0.006-0.088l0,0l-1.094-0.217l-0.945,0.075l-1.34-0.422l-1.62-0.139
		l-1.056-0.422l-0.564,0.211l-0.18,0.589l-1.229,1.1l-0.845,0.564l-0.633-0.142l-0.671-2.953l-0.315-0.64l-2.042-0.561l-1.125-0.775
		l-1.55-2.184l-4.154,0.845h-0.564l-0.772-0.561l-0.211-2.115l-1.409-1.832l1.425-1.175l-0.161-0.082l0.356-0.712l-1.056-0.491
		l-0.425-0.987l-0.772-1.056l-2.396-1.481l-0.28-1.479l-0.435-0.507l0.12-0.551l-1.166-1.475l1.339-1.478l0.634-1.059l0.28-2.805
		l0,0l0.145,0.022l0,0l0.986-1.185l0.322-1.154l0.192-0.769l-0.514-0.45l0.129-0.643l3.864,0.091l1.402-0.167l5.125-0.05
		l1.412-1.349l0.258-0.769l0.192-1.859l0.448-1.349l1.349-1.475l1.475-0.577l2.632-2.692l0.769-0.324l2.096-3.328l0,0
		L151.661,152.661z"/>
	<path id="PE-MOQ" fill="#1E3250" stroke="#1E3250" stroke-width="0.5" d="M148.727,221.596l0.369-0.051l0.397,0.287l2.676-0.136
		l0.227,0.227l2.118,0.517l0.261,0.344l0.602,1.711l0.044,1.916l0.602,1.796l2.361,2.424l1.194,0.306l0.372,0.407l-1.113,1.068
		l-0.12,2.172l-0.397,0.476l0,0l0.042,0.063l0,0l-1.122,0.233l-0.189-0.466l-0.233-0.047l-0.142-1.456l-0.633-0.353l-1.295,0.117
		l-0.432,0.243l-0.448,0.567l-0.328,1.021l0.252,1.601l-1.607,1.925l-1.434,0.649l-2.102,3.852v0.658l-0.703,1.62l-0.775,0.703
		l-2.111,1.056h-0.593l0,0l-0.586-0.662l-1.226-0.709l-0.741-1.261l-0.574-3.117l-1.163-0.961l-0.114-0.4l-1.207-0.63l0,0
		l1.349-0.397l1.522-0.904l0.384-1.459l-0.892-1.113l-0.451-0.98l-0.123-0.807l0.246-0.52l0.87-0.725l0.785-0.318l0.129-0.734
		l-0.129-0.832l1.298-1.774l0.8-0.381l-1.279-1.453l0.284-0.492h0.633l1.62,1.056l0.914,0.28l0.504-0.199l-0.116-0.702l0.161-0.325
		l1.144-1.311L148.727,221.596z"/>
	<path id="PE-PAS" fill="#1E3250" stroke="#1E3250" stroke-width="0.5" d="M99.508,150.93l-1.655,0.022l-4.236-2.241l-0.659,0.044
		l-1.1-0.255l-0.917,0.139l-1.689,0.917l-0.243,0.425l-0.671,0.211l-1.27-0.022l-0.987-1.109h-0.35l-3.24,1.481l-2.042,0.422
		l-0.633-0.495l-0.706-0.069l-0.914,0.564l-0.151,0.511l0.082,0.756l1.125-0.073l0.142,0.633l-0.284,0.706l-0.983,0.422
		l-0.986-0.142l-0.706,0.706l-0.914,0.139l-0.517-0.369l-0.35,0.051l-0.258-0.454l-0.775-0.211l-0.835,0.123l0,0l-0.095-0.224l0,0
		l-0.797-0.539l-0.164-0.391l-0.05-2.102l-0.769-0.889l-0.274-1.295l-0.652-1.125l-0.394-1.503l0,0l-0.199-0.224l0,0l1.201-0.284
		l1.973-1.336l1.056-0.353l0.986,0.073l0.703,0.703l0.633,0.281l4.296,0.775l0.564-1.9l0.703-0.28l0.353-0.564l0.775-0.284
		l1.336-2.039l2.701-2.26l0.441-0.06l2.351-1.837l0.845,0.072l0.47,0.246l0.939,0.949l0.964-0.882l0.24,0.021l0.205-0.406
		l1.125-0.703l0.844-0.073l0.917-0.983l0.281-0.986l1.777-1.989l0,0l0.054,0.58l0,0l0.564,0.775l0.703,0.491l0,0l0.706,1.762l0,0
		l-0.082,1.169l0.331,0.914l0.523,0.24l0.353,2.253l0.845,1.128l0.633,0.492l0.917,0.142l0,0l-0.072,1.056l-0.35,0.775l0,0
		l-0.142,0.914l0.353,0.914l0.986,0.848l0.211,0.561l-0.073,0.634l-0.413,0.208l-0.022,0.34l-1.613,0.687l-1.525,1.642
		L99.508,150.93z"/>
	<path id="PE-PIU" fill="#1E3250" stroke="#1E3250" stroke-width="0.5" d="M10.478,87.043l-0.593-1.261l0.211-0.841l0.523-0.63
		l0.895,0.054l0.627-0.211L13.037,83l0.419-1.157l-0.104-1.364l-1.525-2.783l-2.045-1.103l-1.157-0.945l0.104-0.734l0.473-0.788
		l0.391-0.208l0.183-0.942l1.09-0.18l-0.98-1.399l-1.365-1.049l-1.576-1.733l0.054-1.207l0.788-3.939l0.927-1.522l2.285-1.992l0,0
		l0.3,0.895l0.87,0.715l3.726-0.12l1.068-0.397l0.278-0.337l0,0l0.785-0.693l1.273,1.664l0.397,1.33l-0.517,0.772l-0.019,0.375
		l0.236,0.337l0.983,0.495l0.76-0.35l1.702-1.453l0.381-0.041l0.75,0.16l0.716,0.473l2.335,0.873l0.674,0.592l0.384-0.271
		l0.914-0.082l2.565,0.419l0.274,0.246l0.321,1.333l0.942,2.373l2.146,2.244l0.722-0.012l0,0l-1.068,1.138l-1.109,1.601l0.463,1.636
		l0.479,0.662l0.076,2.222l-0.293-0.041l-0.81,0.99l-0.268,2.149l0.268,1.135l0.69,1.245l0,0l-1.087,0.86l0,0l-0.287,0.17l0,0
		l-0.202-0.429l-0.964-0.366l0,0l-0.457,0.107l0,0l-0.7-1.037l-0.832-0.416l0,0l-0.552-0.246l-0.911-1.973L26.318,79.3l-0.375,0.908
		l-0.091,1.068l-1.097,1.516l-1.613,1.302l-1.696,0.577l-0.548,0.46l-1.33,1.601l-0.46,1.154l-1.658,2.351l0,0l-0.684,0.063
		l-1.053,0.473l-2.991-2.26l-0.23-0.498L10.478,87.043z"/>
	<path id="PE-PUN" fill="#1E3250" stroke="#1E3250" stroke-width="0.5" d="M169.061,214.146l-1.062-0.69l-1.342-0.095l-0.482-0.961
		l-1.728-0.189l-0.287-1.153l-1.056-0.864l-3.07-0.864l-2.108,0.098l-0.192,0.577l0.192,0.574h2.877l0.573,0.287l0.192,1.346
		l-1.245,0.958l0.192,0.958l0.671,0.385v1.248l-0.577,0.094l-0.287,0.864l-1.633,0.671l0.769,2.975l1.343-0.098l1.15,0.769
		l0.384-0.769l0.385-0.189l0.671,1.535l1.169-0.104l0.558,0.293l1.438,0.29l0.192,0.574l-0.671,0.769l-0.385,1.056l0.769,0.766
		l1.245-0.573h0.672l0.674,1.052l1.053,0.192l1.248-0.479l0.577-1.056l0.684-0.419l0,0l0.741,0.684l0.501,1.16l-0.091,1.777
		l-0.609,0.753l-0.097,1.04l0.391,1.525l-2.417,1.692l-1.73,2.071l-0.892,1.768l-1.944,1.078l-1.176,1.188l-0.501,1.015l0,0
		l-1.037,0.173l-2.543-1.308l-1.507-1.186l0,0l-1.384-2.345l0,0l0.397-0.476l0.12-2.172l1.113-1.068l-0.372-0.407l-1.194-0.306
		l-2.361-2.424l-0.602-1.796l-0.044-1.916l-0.602-1.711l-0.261-0.344l-2.118-0.517l-0.227-0.227l-2.676,0.136l-0.397-0.287
		l-0.369,0.051l0,0l0,0l0,0l0.208-0.851l-0.678-0.706l-0.709-1.182l0.511-1.412l-1.535-1.774l-0.164-1.409l0,0l0.025-1.125l0,0
		l-0.07-0.624l0.634-0.344l0.082-1.153l-0.132-0.999l-0.372-0.586l-0.098-1.5l0.529-1.031l-0.233-1.44l-0.624-0.933l-0.356-0.091
		l-1.04-1.365l0.353-0.561l0.914-0.637l0.564-2.181l1.198-2.323l0.422-2.606l-0.284-1.267l0.211-1.831l1.128-0.495l2.392-3.098
		l2.465-2.745l0.072-1.478l0,0l0.132-1.885l0,0l0.854-0.158l1.97,0.211l3.309,1.62l3,0.621l1.507-0.129l1.55-0.353l0.775-0.845
		l5.701-2.253l1.034-0.659l0,0l1.131-0.816l-0.17,1.368l0.085,1.453l0.255,0.599l-0.429,1.881l-0.69,1.141l-0.019,1.642
		l-0.239,0.816l-1.125,1.951l0.652,1.147l0.526,2.411l0.753,0.712l-0.113,1.088l0.255,0.942l-0.939,0.34l-0.684,0.514l-0.258,1.626
		l-2.736,3.25l-0.857,1.197l-0.596,1.283l-0.29,2.833l1.16,1.588l2.125,2.052l-0.079,0.372l-0.712,0.101l-0.974,0.904
		L169.061,214.146z"/>
	<path id="PE-SAM" fill="#1E3250" stroke="#1E3250" stroke-width="0.5" d="M57.38,77.141l1.32,1.078l2.288,0.829l1.506,1.686
		l0.747,0.293l1.554,0.18l1.551-0.038l0,0l0.678,0.214l1.368,0.939l0.217,0.388l0,0l0.205,0.375l0,0l0.687,1.897l0,0l0.268,0.4
		l1.333,0.744l0.75-0.113l1.213-0.757l1.213,0.123l1.302,1.182l0.945,1.182l0.945,0.473l2.062-1.355l1.989-0.003l1.216,0.255l0,0
		l0.879-0.671l1.658-0.353l0,0l1.182,0.59l0.709,0.945l-0.12,1.182l-0.59,0.687l0.151,1.059l-0.347,4.047l-0.362,1.453l-0.507,0.202
		l0,0l-1.182,0.236l-1.494,0.063l-0.142-0.18l0,0l-0.716-0.53l-1.16-0.353l-0.804,0.11l-0.649,0.652l0.353,4.019l-1.305,0.933
		l-0.113,0.526l-0.882,0.293l-0.051,1.873l0.388,1.157l1.09,1.09l0.318,2.181l0.388,1.283l0.832,1.09l0.23,0.807h0.929l0.47,0.952
		l-0.756,0.703l-0.592,1.062l-0.237,1.774l0,0l0.085,0.135l0,0l-1.267,0.454l-1.182,1.185l0.608,3.962l-0.469,0.551l-0.681-0.082
		l-1.733-3.545l-1.043-0.649l-0.025,0.16l-0.558-0.28l-0.945,1.538l-1.535-0.709l-1.301,0.473l-0.946-0.236l-1.702,0.293
		l0.063,0.243h-1.916l-0.378-0.479l-0.558,0.091l-0.709-1.093l0,0l0.589-0.593l2.754-0.687l-0.088-0.703l0.29-0.148l-0.356-1.298
		l-1.182-1.774l-1.418-0.236l-0.826-0.589l-1.065,0.117l-1.583,0.592l-0.372-2.351l-0.492-0.422l-1.128-0.211l-0.504-4.599
		l-0.577-0.35l-0.57-1.387l-0.057-0.706l0.429-1.081l-2.367-3.167l0,0l-0.167-0.485l0,0l0.643-2.959l0.715-0.605l0.709-0.117
		l1.418,0.117l0.949,0.709l0.709-0.353l0.709-0.829v-0.583l0.719-1.711l1.563-1.267l0.29-0.548l-0.637-1.888l-0.996-1.232
		l-3.659-1.062l-0.558-0.624l-1.396-2.669l-0.384-0.914l0.123-2.824l0.23-0.662L57.38,77.141z"/>
	<path id="PE-TAC" fill="#1E3250" stroke="#1E3250" stroke-width="0.5" d="M144.466,247.045h0.593l2.111-1.056l0.775-0.703
		l0.703-1.62v-0.658l2.102-3.852l1.434-0.649l1.607-1.925l-0.252-1.601l0.328-1.021l0.448-0.567l0.432-0.243l1.295-0.117
		l0.633,0.353l0.142,1.456l0.233,0.047l0.189,0.466l1.122-0.233l0,0l1.342,2.281l0,0l1.507,1.186l2.543,1.308l1.037-0.173l0,0
		l0.879,0.113l1.207,1.169l0.016,1.771l-2.755,2.474l-0.914,0.139l-0.353,0.494l0.775,3.24l0.069,1.406l-1.267,2.537l-1.336,1.267
		l-5.774,0.845l-0.514-0.652l-0.116,0.104l-1.582-1.406l-1.702-0.778l-4.141-3.911l-1.85-0.794L144.466,247.045z"/>
	<path id="PE-TUM" fill="#1E3250" stroke="#1E3250" stroke-width="0.5" d="M20.84,58.49l-0.444-0.195l-1.024,0.082l-0.482,0.939
		l-1.651,1.393l0,0l-0.278,0.337l-1.068,0.397l-3.726,0.12l-0.87-0.715l-0.3-0.895l0,0l0.369-0.243l0.967-1.667l1.677-1.229
		l0.236-0.993l0.391-0.637l2.893-1.695l0.939-1.472l1.513-0.192l0.586-0.309l1.144,0.362l0.712,2.575l0.079,1.346l-0.514,1.743
		L20.84,58.49z"/>
	<path id="PE-UCA" fill="#1E3250" stroke="#1E3250" stroke-width="0.5" d="M81.254,120.441l3.083-2.931h0.586l1.1,0.873l0.722-0.18
		l0.466-0.362l0.069-2.862l0.312-0.593l0.841-0.633l1.321,0.202l1.68-1.791l1.551,0.139l0.703,0.353l1.409,0.142l1.762-0.142
		l0.775-0.422l0.334-0.785l0.659-0.429l0.309-0.7l0.047-1.188l-0.413-3.839l1.667-2.285l1.198-0.069l0.495,0.564l2.323,0.211
		l1.831,1.478l0.025,0.429l0.416,0.359l0,0l-0.202,0.022l-0.031,0.322l1.869,1.629l0.315,0.57l1.825,0.794l0.173,0.362l-0.06,0.58
		l-0.365,0.451l-0.697-0.091l0.069,1.015l1.617,0.927l0.753,1.412l0.841,3.12l1.727,1.327l0.794,2.051l0.974,0.971l0.778,0.16
		l0.659,0.382l1.45,2.543l0.712,0.378l0.586,0.788l0.192,1.056l-0.246,1.037l-0.772,1.056l-2.143,1.948l-0.24,0.485l6.335,0.167
		l4.819,1.078l0.945,0.548l0.659,1.68l-0.227,0.996l0.12,0.388l1.078,0.602l0.208,0.426l0.189,0.709l-0.473,1.566l0.564,0.028
		l11.402-0.126l1.56-0.857l0.564-0.926l1.677-0.583l1.774-2.045l1.384-0.873l2.839-2.333l-0.365,4.715l-0.407,0.605l-0.044,1.891
		l0,0l-2.096,3.328l-0.769,0.324l-2.632,2.692l-1.475,0.577l-1.349,1.475l-0.448,1.349l-0.192,1.859l-0.258,0.769l-1.412,1.349
		l-5.125,0.05l-1.402,0.167l-3.864-0.091l-0.129,0.643l0.514,0.45l-0.192,0.769l-0.322,1.154l-0.986,1.185l0,0l-0.303-0.047
		l-1.522,0.526l-0.747,0.677l0,0l-1.472,0.77l-0.668-0.177l0,0l-0.945-0.413l-1.872-0.211l-1.424-0.873l-0.385-0.914l0,0
		l-2.575,0.762l-3.417,0.448l-0.29-0.117l0,0l0.092-1.273l-0.284-2.042l-0.583-0.494l-0.753-0.211l-0.23-2.212l0,0l-0.968-1.021l0,0
		l-1.724-0.523l-0.699,1.295l-0.041,2.568l-0.284,0.914l-0.633,0.353l-1.336-0.28L106,152.569l-1.604,0.306l-2.188,0.06H100.8
		l-0.942-0.337l-0.35-1.667l0,0l1.45-1.034l1.525-1.642l1.613-0.687l0.022-0.34l0.413-0.208l0.073-0.634l-0.211-0.561l-0.986-0.848
		l-0.353-0.914l0.142-0.914l0,0l0.35-0.775l0.072-1.056l0,0l-0.917-0.142l-0.633-0.492l-0.845-1.128l-0.353-2.253l-0.523-0.24
		l-0.331-0.914l0.082-1.169l0,0l-0.706-1.762l0,0l-0.703-0.491l-0.564-0.775l0,0l-0.069-0.775l0.281-0.775l0.564-0.703l0,0
		l-0.284-1.056l-0.561-0.706v-1.406l-0.239-1.027l0.214-1.018l0.792-1.538l0.643-0.419l-0.249-1.261l-0.58-0.454l-1.721-0.082
		l-1.529,0.611l-0.782,2.439l-0.069,0.917l-0.353,0.633h-0.633l-0.353-0.706l-1.834,0.303l-0.277,1.39l-0.706,0.845l0.072,1.409
		l-1.267,1.194l-1.059,0.283l-0.76-0.183l-2.196,1.317l-0.703-0.22l-2.294-3.668l-1.239-2.736l-0.413-1.544l0.211-1.276l0,0
		l0.044-1.09L81.254,120.441z"/>
	<path id="PE-LKT" fill="#1E3250" stroke="#1E3250" stroke-width="0.5" d="M172.616,223.972l-0.684,0.419l-0.577,1.056l-1.248,0.479
		l-1.053-0.192l-0.674-1.052h-0.672l-1.245,0.573l-0.769-0.766l0.385-1.056l0.671-0.769l-0.192-0.574l-1.438-0.29l-0.558-0.293
		l-1.169,0.104l-0.671-1.535l-0.385,0.189l-0.384,0.769l-1.15-0.769l-1.343,0.098l-0.769-2.975l1.633-0.671l0.287-0.864l0.577-0.094
		v-1.248l-0.671-0.385l-0.192-0.958l1.245-0.958l-0.192-1.346l-0.573-0.287h-2.877l-0.192-0.574l0.192-0.577l2.108-0.098l3.07,0.864
		l1.056,0.864l0.287,1.153l1.728,0.189l0.482,0.961l1.342,0.095l1.062,0.69l0,0l-1.106,2.354l2.178,5.824L172.616,223.972z"/>
</g>
</svg>
