<?xml version="1.0" encoding="utf-8"?>
<!-- Generator: Adobe Illustrator 15.0.0, SVG Export Plug-In . SVG Version: 6.00 Build 0)  -->
<!DOCTYPE svg PUBLIC "-//W3C//DTD SVG 1.1//EN" "http://www.w3.org/Graphics/SVG/1.1/DTD/svg11.dtd">
<svg version="1.1" id="Layer_1" xmlns:amcharts="http://amcharts.com/ammap"
	 xmlns="http://www.w3.org/2000/svg" xmlns:xlink="http://www.w3.org/1999/xlink" x="0px" y="0px" width="846.074px"
	 height="925.063px" viewBox="0 0 846.074 925.063" enable-background="new 0 0 846.074 925.063" xml:space="preserve">
<defs>
	
	
		<amcharts:ammap  projection="mercator" leftLongitude="-58.439112" topLatitude="-30.085215" bottomLatitude="-35.031419" rightLongitude="-53.169667">
		</amcharts:ammap>
</defs>
<g>
	<path id="UY-RN" fill="#1E3250" stroke="#1E3250" stroke-width="0.5" d="M280.55,422.17l-72.48-23.08L143.1,413.7l-49.69,30.14
		l-59.13-21.78l20.47,82.5l-12.37,25.79l-32.23,4.78l-6.06,54.64l53.16-32.119l-3.11-19.73l31.63-17.51l30.14,8.109l18.87-11.449
		l36.75,22.6l23.35-4.29l-7-13.2l46.06-11.239l30.4-25.891L280.55,422.17z"/>
	<path id="UY-PA" fill="#1E3250" stroke="#1E3250" stroke-width="0.5" d="M316.42,290.12l-25.72,21.27L189.08,298.24l-105.1-56.09
		l-26.69,4.96l8.96,15.97l-10.46,35.17L32.6,315.31l16.01,69.07l-14.33,37.68l59.13,21.78l49.69-30.14l64.97-14.61l72.48,23.08
		l47.34-103.12L316.42,290.12z"/>
	<path id="UY-FS" fill="#1E3250" stroke="#1E3250" stroke-width="0.5" d="M284.53,602.62l-20.74-34.48l-68.91-32.76l-33.33,46.37
		l28.3,41.62l-3.92,25.78l16.4,38.29l32.06,3.93l39.58-24.53l21.16,9.58l6.18-25.33L284.53,602.62z"/>
	<path id="UY-AR" fill="#1E3250" stroke="#1E3250" stroke-width="0.5" d="M239.52,0l-37.1,0.7l-25.34,32.7l-43.9-3.31L118.4,14.23
		l-2.83,25.42L79.8,78.45l13.64,42.22l12.73-5.88l97.12,56.27l56.24-4.93l42.72-28.66l36.04,9.25l24.09,23.7l0.85-48.56L239.52,0z"
		/>
	<path id="UY-SJ" fill="#1E3250" stroke="#1E3250" stroke-width="0.5" d="M295.13,676.42l-21.16-9.58l-39.58,24.53l-32.06-3.93
		l20.49,33.619l-23.18,15.45l-10.85,39.46l44.3,40.66l76.85,22.65l0.06-10.91l-16.26-25.21l10.65-29.98l-10.54-13.359L295.13,676.42
		z"/>
	<path id="UY-CO" fill="#1E3250" stroke="#1E3250" stroke-width="0.5" d="M202.33,687.44l-47.6-12.171l-39.38,7.641l-77.77-29.09
		L0.46,671.55L85,780.13l103.79-4.16l10.85-39.46l23.18-15.45L202.33,687.44z"/>
	<path id="UY-RO" fill="#1E3250" stroke="#1E3250" stroke-width="0.5" d="M586.64,841.74l36.62-20.55l-6.12-24.431l13.58,5.13
		l-3.18,17.641l17.17-3.37l57.49-50.771l8.13-34.989l27.32-27.471l22.76-55.89l-24.22-16.57l2.859-94.75L701.65,547.32
		l-53.891,49.84l-36.74,30.97l-17.039,52.59L586.64,841.74z"/>
	<path id="UY-MO" fill="#1E3250" stroke="#1E3250" stroke-width="0.5" d="M359.16,856.24l0.37-19.521l-14.56-9.81L310,828.37
		l-0.06,10.91l-8.13,9.1l16.17,11.61l14.59-4.891l8.83,11.341L359.16,856.24z"/>
	<path id="UY-MA" fill="#1E3250" stroke="#1E3250" stroke-width="0.5" d="M522.08,872.37l64.56-30.63l7.341-161.021l-33.65,29.04
		l-21.01,56.08l-94.9,41.94L459.44,841L522.08,872.37z"/>
	<path id="UY-LA" fill="#1E3250" stroke="#1E3250" stroke-width="0.5" d="M647.76,597.16l-27.24-21.22l-28.119,18.3l-50.271-20.28
		l-45.1,8.11l1.01,13.5l-31.31,29.22l-2.471,46.29l-41.84,60.939l22,75.761l94.9-41.94l21.01-56.08l33.65-29.04l17.039-52.59
		L647.76,597.16z"/>
	<path id="UY-FD" fill="#1E3250" stroke="#1E3250" stroke-width="0.5" d="M497.03,582.07l2.05-47.561l-113.51,57.21l-35.05,10.38
		l-47.63-16.479l-1.86,14.76l-16.5,2.24l16.78,48.47l-6.18,25.33l-1.28,83.4l10.54,13.359l7.65-13.84l32.45,1.33l20.66-21.96
		l57.27-6.69l41.84-60.939l2.471-46.29l31.31-29.22L497.03,582.07z"/>
	<path id="UY-CA" fill="#1E3250" stroke="#1E3250" stroke-width="0.5" d="M444.42,807.78l-22-75.761l-57.27,6.69l-20.66,21.96
		l-32.45-1.33l-7.65,13.84l-10.65,29.98L310,828.37l34.97-1.46l14.56,9.81l-0.37,19.521l37.17-20.521l63.11,5.28L444.42,807.78z"/>
	<path id="UY-TT" fill="#1E3250" stroke="#1E3250" stroke-width="0.5" d="M790.03,477.26l-99.771-6.24l-15.68-10.77l-14.7,16.83
		l-42.36-14.96l-83.34,26.55l-21.16,15.51l1.311,13.53l-15.25,16.8l-2.05,47.561l45.1-8.11l50.271,20.28l28.119-18.3l27.24,21.22
		l53.891-49.84l37.399-11.601L790.03,477.26z"/>
	<path id="UY-TA" fill="#1E3250" stroke="#1E3250" stroke-width="0.5" d="M567.97,356.18l-38.51-45.85l-106.79-11.24l-7.26-38.67
		l-25.54-35.58l-34.6-21.78l-14.16,7.99l-29.14,50.37l4.45,28.7l11.47,28.93l-47.34,103.12l-16.21,62.88l66.68-3.64l8.36-17.42
		l40.15-21.931l11.01,5.41l9.41-20.29l37.27-3.1l7.5-13.561l21.561,11.9l43.529-4.51l30.23-28.271l12.66-37.189L567.97,356.18z"/>
	<path id="UY-RV" fill="#1E3250" stroke="#1E3250" stroke-width="0.5" d="M596.23,274.68l-20.721-36.21l-96.54-38.02l-52.439-69.79
		l-39.64,39.81l-23.43,1.3l-6.92,20.08l-19.17,9.56l3.74,9.64l14.16-7.99l34.6,21.78l25.54,35.58l7.26,38.67l106.79,11.24
		l38.51,45.85l17.261-18.399l-7.311-6.07L596.23,274.68z"/>
	<path id="UY-DU" fill="#1E3250" stroke="#1E3250" stroke-width="0.5" d="M466.28,422.42l-21.561-11.9l-7.5,13.561l-37.27,3.1
		l-9.41,20.29l-11.01-5.41l-40.15,21.931l-8.36,17.42l-66.68,3.64l-30.4,25.891l-46.06,11.239l7,13.2l68.91,32.76l20.74,34.48
		l16.5-2.24l1.86-14.76l47.63,16.479l35.05-10.38l113.51-57.21l15.25-16.8l-22.561-1.31l-23.59-20.86L466.28,422.42z"/>
	<path id="UY-CL" fill="#1E3250" stroke="#1E3250" stroke-width="0.5" d="M790.03,477.26l9.51-16.6l-66.62-46.17L703.35,344.1
		l-47.01-31.14l-11.689,5.32l-48.42-43.6l-18.311,57.03l7.311,6.07L567.97,356.18l-15.27-3.729l-12.66,37.189l-30.23,28.271
		l-43.529,4.51l1.899,73.12l23.59,20.86l22.561,1.31l-1.311-13.53l21.16-15.51l83.34-26.55l42.36,14.96l14.7-16.83l15.68,10.77
		L790.03,477.26z"/>
	<path id="UY-SO" fill="#1E3250" stroke="#1E3250" stroke-width="0.5" d="M194.88,535.38l-23.35,4.29l-36.75-22.6l-18.87,11.449
		l-30.14-8.109l-31.63,17.51l3.11,19.73L4.09,589.77l-3.63,81.78l37.12-17.729l77.77,29.09l39.38-7.641l47.6,12.171l-16.4-38.29
		l3.92-25.78l-28.3-41.62L194.88,535.38z"/>
	<path id="UY-SA" fill="#1E3250" stroke="#1E3250" stroke-width="0.5" d="M362.38,170.42l-24.09-23.7l-36.04-9.25l-42.72,28.66
		l-56.24,4.93l-97.12-56.27l-12.73,5.88l-1.18,20.4l-15.77,7l8.52,19.65l-27.72,79.39l26.69-4.96l105.1,56.09L290.7,311.39
		l25.72-21.27l-4.45-28.7l29.14-50.37l-3.74-9.64l19.17-9.56l6.92-20.08L362.38,170.42z"/>
</g>
</svg>
