<?xml version="1.0" encoding="utf-8"?>
<!-- Generator: Adobe Illustrator 15.0.0, SVG Export Plug-In . SVG Version: 6.00 Build 0)  -->
<!DOCTYPE svg PUBLIC "-//W3C//DTD SVG 1.1//EN" "http://www.w3.org/Graphics/SVG/1.1/DTD/svg11.dtd">
<svg version="1.1" id="Layer_1" xmlns:amcharts="http://amcharts.com/ammap"
	 xmlns="http://www.w3.org/2000/svg" xmlns:xlink="http://www.w3.org/1999/xlink" x="0px" y="0px" width="234.5px" height="216.5px"
	 viewBox="0 0 234.5 216.5" enable-background="new 0 0 234.5 216.5" xml:space="preserve">
<defs>
	
	
		<amcharts:ammap  projection="mercator" leftLongitude="-73.388293" topLatitude="12.544056" rightLongitude="-59.804557" bottomLatitude="0.644674">
		</amcharts:ammap>
</defs>
<g>
	<path id="AW" fill="#1E3250" stroke="#1E3250" stroke-width="0.5" d="M52.108,9.485l0.322-0.227l0.318,0.729l1.32,0.774
		l0.637,0.955l-0.273,0.729l-0.729-0.134l-2.187-1.914L52.108,9.485z"/>
	<path id="BQ" fill="#1E3250" stroke="#1E3250" stroke-width="0.5" d="M80.304,15.315l-0.41,3.191l-0.729-0.502l-0.272-1.914
		l-1.822-1.001l-0.092-0.683l1.093-0.411L80.304,15.315z"/>
	<path id="CW" fill="#1E3250" stroke="#1E3250" stroke-width="0.5" d="M69.054,15.726l1.504,0.548l1.684,1.957l-0.683,0.276
		l-0.138-0.457l-1.638,0.046l-1.822-1.323l-2.505-3.142l0.046-0.591l1.638,0.407l0.319,1.415L69.054,15.726z"/>
	<path id="VE-A" fill="#1E3250" stroke="#1E3250" stroke-width="0.5" d="M102.503,41.151l-0.088,0.952l-2.36,1.355h-1.617
		l-0.722-0.679l0,0l0.198-0.241l0,0l1.397-1.659l3.103,0.261l0,0L102.503,41.151z"/>
	<path id="VE-B" fill="#1E3250" stroke="#1E3250" stroke-width="0.5" d="M167.146,74.576l-1.082,0.245l-1.617,1.574l-3.58-1.004
		l-1.135,0.304l-0.612-0.304l-4.935,3.23l-1.836-0.219l-2.141,0.7l-1.791,2.183l-1.312,0.832l-1.921-0.219l-2.009-1.833
		l-0.743-0.046l-2.183,1.093l-1.574-0.304l-1.439,1.22l0.219,1.267l0.874,0.612l-0.265,0.874l-1.482,0.089l-3.145,1.659
		l-1.267-0.088l-2.71-2.009l-5.024-1.31l0,0l-0.523-0.393l0,0l-0.785-0.785l0.393-1.574l4.369-5.59l0.739-2.621l-0.347-1.182
		l0.347-1.221l0.481-0.439l2.71-0.042l0.654,0.786h0.874l1.093-2.576l-0.308-0.7l-2.622-1.528v-0.874l-0.785-0.786l-2.445-0.874
		l-1.182-1.181l-0.874-1.397l0.22-0.612l1.443-0.785l-0.088-0.524l-1.836-0.828l-1.79-1.616l-0.655,0.566h-2.752v-0.958l-0.57-0.266
		l0.177-2.402l-0.672-1.964l0,0l0.131-0.48l0,0l0.828,0.042l1.224-0.743l2.271-2.247l0,0l5.519,1.292l4.005-0.343l1.443-0.492
		l0.279-1.043l1.302-0.811l2.395-0.223l0,0l0.965,1.542l2.271,1.051h1.574l1.702-0.7l1.836,0.393l0,0h0.117l0,0l-1.652,0.919
		l-0.173,0.566l0.088,0.701l1.178,0.743l0.874,1.483l-0.481,0.919l0.174,0.697l1.004,1.004l0.481,1.575v0.523l-1.92,1.748
		l1.266,3.188l1.791-0.481l1.528,0.701l5.07,4.061l1.44,3.015l4.542-0.435l0.177,0.435l-0.658,0.612l-0.916-0.042l0.262,1.617
		l5.547,2.226l0,0L167.146,74.576z"/>
	<path id="VE-C" fill="#1E3250" stroke="#1E3250" stroke-width="0.5" d="M110.389,86.527l-1.617,0.846l-2.738,4.252l-2.388,0.641
		l-2.678,1.744l-1.047-0.057l-1.631,0.701l-0.757,1.978l1.338,1.051l-0.174,2.852l-0.817,0.991l-0.814,2.331l-0.06,1.631
		l-0.463,0.813l-1.051,0.524l-0.29,0.817l-2.406,1.727l0,0l-2.229-0.98l-3.361-0.57l-1.574,0.351l-0.524,0.916l-0.7,0.219
		l-2.42-0.495l-0.898,0.845l-0.623-0.459l-1.404,0.48l-1.359-0.459l-2.925,0.393l-0.701,0.577l-7.118-1.624l-1.004,0.219
		l-1.306,2.208l-0.835-0.067l-0.329-0.941l-1.772,0.467L61.104,110l0.046-0.739l-2.972-2.579l-0.173-1.178l-4.542-5.069
		l-2.554-3.722l-3.488,0.704l-0.573-0.835l-1.571-0.566l-0.789-1.047h-5.417l-1.984,1.818l-0.984-0.028l-0.569-0.701l-7.008-0.088
		l-0.502-0.654l-0.79-0.043l-2.837,1.047l-2.579,0.089l-2.551-2.841l-0.293-1.422l0.513-1.022l-1.266-0.874l-2.045-0.343l0,0
		l0.148-0.332l2.855-0.29l1.341,1.107l1.921,0.113l0.99-0.347l0.524-1.167l0,0l0.032-0.103l0,0h1.068l1.224,0.931l0.931,0.117
		l0.467-0.351l0.64,0.351l3.322-0.351l2.095,0.411l1.164,0.93l2.738,0.757l4.217,0.407l0.817-0.29l0.117-0.467l1.104,0.06
		l1.397-1.341l1.574-0.64l0.757-2.331l2.328-0.347l1.864-1.575l1.397-0.057l1.748-1.341l1.574,0.117l4.426-3.318l5.183,0.056
		l0.817,0.524l1.688,0.116l1.981,1.341l5.88-0.524l2.158,0.464l2.444-0.641l4.72,0.817l4.875-1.21l0,0l0.633,0.732l0,0l5.126,2.211
		l3.668,0.233l4.37,1.458l0.697-1.341l2.154-0.523l1.397,1.046l1.051,0.117l0.291,0.757l0,0L110.389,86.527z"/>
	<path id="VE-D" fill="#1E3250" stroke="#1E3250" stroke-width="0.5" d="M92.025,50.205l-0.828-0.544l-1.79-0.174l0.57-3.757
		l-0.396-1.093l-2.402-0.173l-1.005-0.743l0.046-0.612l1.238-1.086l0,0l6.538-0.746l0,0l0.644,2.225l1.225-0.743l0.654,0.439
		l0.786-0.219l0,0l0.018-0.007l0,0l0.063,1.493l1.047,1.486l-0.393,0.959l0.304,1.05l1.878,0.786l0.874,0.874l4.674,0.347l0,0h0.063
		l0,0l0.436,2.622l-1.005,1.182l1.224,1.309l0.131,0.743l-0.439,0.436l0.393,1.878l-1.701,2.448l-4.804-2.271l-0.22-1.093
		l1.528-0.435l0.57-0.874v-0.832l-1.182-1.178l-1.089-0.481l-2.622-2.402h-1.182l-2.095-1.005l-1.748,0.173l0,0L92.025,50.205z"/>
	<path id="VE-E" fill="#1E3250" stroke="#1E3250" stroke-width="0.5" d="M90.702,81.503l-4.875,1.21l-4.72-0.817l-2.444,0.641
		l-2.158-0.464l-5.88,0.524l-1.981-1.341l-1.688-0.116l-0.817-0.524l-5.183-0.056l-4.426,3.318l-1.574-0.117l-1.748,1.341
		l-1.397,0.057l-1.864,1.575l-2.328,0.347l-0.757,2.331l-1.574,0.64l-1.397,1.341l-1.104-0.06l-0.117,0.467l-0.817,0.29
		l-4.217-0.407l-2.738-0.757l-1.164-0.93l-2.095-0.411l-2.448,0.351l-1.514-0.351l-0.467,0.351l-0.931-0.117l-1.224-0.931h-1.068
		l0,0l0.084-0.304l0,0l1.571-0.697l5.884,0.987l-1.921-2.094l0.259-2.307l0,0l0.343-0.241l0,0l2.706-1.617l3.584-3.538l0.612-2.317
		l-0.785-1.702l1.09-0.831l0.743-2.664l2.141-2.183l1.528-0.57l0.523-0.832l1.574-0.739L43.791,66.8l0.8-1.21l0,0l0.64-0.074l0,0
		l3.496-0.35l1.135,0.35l0,0l0.552,0.085l0,0l3.974,3.003l2.444,1.051h2.505l2.622,1.397l0.99-0.234l0.99,0.351l1.748,2.038
		l0.117,0.701l0.697,0.29l0.233,0.467l-0.583,0.931l2.388,1.688l1.631,2.158l0.757,0.347l0.7-0.117l0.173-3.028l0.991-0.991
		l1.458-0.58l1.107-2.678l0,0l-0.049-0.792l0,0l4.44,0.326l1.865-0.293l1.63,1.05l0,0l0.206,0.181l0,0l0.668,0.516l-0.061,1.168
		l2.271,0.874l1.981,2.211l1.571,0.64l-0.057,1.224l0.757,1.864l0,0L90.702,81.503z"/>
	<path id="VE-F" fill="#1E3250" stroke="#1E3250" stroke-width="0.5" d="M137.018,140.27l0.146-3.078l-0.464-0.584l-0.177-1.804
		l-1.744-0.524l-0.644,0.351l-2.618-1.397l-3.612-5.65l-1.107-3.786l2.154-0.467l0.35-1.108l-1.047-0.757l-0.06-0.756l0.584-0.234
		l0.116-0.813l-2.038-2.155l0.757-1.051l-0.177-0.463l-3.085-0.411l-1.458,1.458h-0.874l-0.813-1.047l-0.061-1.691l0.701-3.085
		l-0.35-0.7l-1.107-0.291l-2.271,0.641l-0.931,2.154l-1.748,2.155l-1.107,0.523l-1.164-0.057l-1.748,0.757l-0.7-2.795l-0.931,0.117
		l-2.331,2.211l-1.688,0.874l-4.076,0.234l-1.807,0.64l-0.814-0.117l-0.583-0.64l-1.515,0.117l-0.057-3.379l0.463-0.233
		l-0.347-2.328l-4.295-1.224l0,0l0.053-0.509l0,0l2.406-1.727l0.29-0.817l1.051-0.524l0.463-0.813l0.06-1.631l0.814-2.331
		l0.817-0.991l0.174-2.852l-1.338-1.051l0.757-1.978l1.631-0.701l1.047,0.057l2.678-1.744l2.388-0.641l2.738-4.252l1.617-0.846l0,0
		l0.283,0.308l0,0l1.104,0.117l1.514-1.337l2.388,0.697l1.691-0.467l2.095-2.501l2.332-0.817l1.981,0.874l0.654-0.283l0,0
		l0.003,0.003l0,0l5.024,1.31l2.71,2.009l1.267,0.088l3.145-1.659l1.482-0.089l0.265-0.874l-0.874-0.612l-0.219-1.267l1.439-1.22
		l1.574,0.304l2.183-1.093l0.743,0.046l2.009,1.833l1.921,0.219l1.312-0.832l1.791-2.183l2.141-0.7l1.836,0.219l4.935-3.23
		l0.612,0.304l1.135-0.304l3.58,1.004l1.617-1.574l1.082-0.245l0,0l-0.003,0.103l0,0h0.523l1.047-1.047l0,0l0.308-0.11l0.156,1.472
		l0,0l1.836,2.317h2.622l2.271,1.309l1.089,2.01l1.532,0.612l1.178-0.832l2.402-0.042l1.836,3.103l0,0l1.748,0.786l0,0l2.314,0.655
		l0.654-0.743l2.271-0.743l1.747-1.309l1.093,0.173l0.481,1.355l0.916,0.612l1.224-0.35l1.267-1.047l0.874,0.304l1.178-0.654
		l4.819-0.089l0,0l-1.128,0.934l-2.35,0.103l-0.58,0.581l-0.583,2.628l-1.893,0.856l-0.106,0.701l0.446,1.355l1.514,1.833
		l-0.689,1.072l1.238,1.086l3.333-0.099l1.373,1.436l-0.318,0.666l-3.417,2.823l-2.537,0.604l-0.853,1.167l-2.901-0.566
		l-0.566,0.786l-1.302,0.368l-3.141-0.729l1.397,4.228l0.049,3.637l0.417-0.025v1.033l-2.455,2.038l-0.322,0.885l-1.84,0.87
		l12.297,13.851l0.354,1.917l-1.794,2.02l-2.936,1.942l-0.347,1.394l-0.722,0.849l-1.744,0.343l-3.488-0.343l-0.148,1.694
		l-2.679,0.293l-0.392,0.417l0.024,1.327l-0.591,0.641h-2.455l-1.967,1.694l-3.007,0.025l-2.102,0.905l-4.383-1.249l-2.115,2.456
		l-2.671,0.003l-0.768,0.962l1.178,3.468l-0.825,1.688l-1.114,0.82l-1.437-0.216l-6.05-6.188l-1.387,0.064l-0.562,1.57l-0.666,0.124
		l-1.804-1.454h-1.239l-0.52,0.446l-2.236-0.417l-2.179,1.384l-0.718-0.488l-0.428-1.936l-1.309-1.146l-3.06-0.481l-3.199,0.351
		L137.018,140.27z"/>
	<path id="VE-G" fill="#1E3250" stroke="#1E3250" stroke-width="0.5" d="M87.458,42.021l-1.238,1.086l-0.046,0.612l1.005,0.743
		l2.402,0.173l0.396,1.093l-0.57,3.757l1.79,0.174l0.828,0.544l0,0l-0.127,0.764l0,0L89.58,52.37l-0.608-0.046l-1.27-1.355
		l-0.523,0.046L86.832,51.8l0,0v0.481l0,0l-1.617,0.088l-4.543-2.14l-0.088-1.136l0.697-0.789l-0.477-0.697l-1.925,1.747l0,0
		l-0.393-0.088l0,0l-0.436-2.314l0.828-1.663l-0.874-1.178l0.351-2.795l2.639-0.177l0,0l1.044,1.061l3.414,0.315L87.458,42.021z"/>
	<path id="VE-H" fill="#1E3250" stroke="#1E3250" stroke-width="0.5" d="M86.832,51.889l1.125,1.224l0.35,1.107l-0.701,0.991
		l-2.622,1.281l0.644,4.369l0.814,1.397v3.088l-2.795,3.725l0.467,0.757l0.057,2.505l-0.523,0.173l0.057,0.584l0,0l-0.464-0.407l0,0
		l-1.63-1.05l-1.865,0.293l-4.44-0.326l0,0l-0.011-0.198l0,0l-1.224-0.757l-0.641-1.284l-1.164-0.523l2.505-1.397l-0.817-2.211
		l0.817-1.284l-1.107-0.987l-0.173-1.285l-2.622-1.804l-0.06-1.164l-2.225-5.558l0,0l0.148-0.17l0,0l0.874-1.528l0.071-1.854l0,0
		l0.467-0.067l0,0l0.962-0.304l1.921,1.44l1.79-1.047l0.917-0.046l0.393,1.486l1.485-0.566l1.09-1.174l0,0l0.177,0.038l0,0
		l1.925-1.747l0.477,0.697l-0.697,0.789l0.088,1.136l4.543,2.14l1.617-0.088l0,0V51.889z"/>
	<path id="VE-I" fill="#1E3250" stroke="#1E3250" stroke-width="0.5" d="M70.887,39.807l-0.941-0.963l-2.576,0.698l-2.84-0.828
		l-3.188,0.35l-3.014-1.355l-1.528,1.093l-1.135-0.131l0.173-0.481l-8.342,3.23l-2.402,0.131l-3.364,1.005l0,0l-1.005-0.085l0,0
		l-1.878-0.046l-1.397-0.743l-1.79-2.707l0.393-1.355l-0.261-0.435l-3.068-3.082l0,0l3.736-2.229l3.438-1.44l4.953-0.583
		l5.289-2.105l1.136-1.079l1.253-0.116l0.066-0.842h1.136l1.157,1.107l2.137-0.209l0.241-1.376l-1.019-2.214l-1.217-0.16
		l-5.042,1.362l-0.343-0.417l0.308-2.271l-1.047-1.136l-0.202-1.33l0.955-1.974l0.602-0.959l1.475-0.955l2.476-0.301l1.377,1.674
		l0.958,4.312l2.034,4.669l1.196,0.658l2.038-0.658l0.983,0.436l1.333-0.644l3.729,1.224l3.011,0.155l6.35,3.694l2.58,3.233v0.958
		l-0.506,0.581l0.598,0.598l-0.665,1.676l1.443,3.202l0,0l-4.585,0.06l-1.397-1.005l-0.131-1.224l-2.314,0.308l-0.962,0.916l0,0
		L70.887,39.807z"/>
	<path id="VE-J" fill="#1E3250" stroke="#1E3250" stroke-width="0.5" d="M124.431,83.116l-0.654,0.283l-1.981-0.874l-2.332,0.817
		l-2.095,2.501l-1.691,0.467l-2.388-0.697l-1.514,1.337l-1.104-0.117l0,0l-0.583-0.64l0,0l-0.291-0.757l-1.051-0.117l-1.397-1.046
		l-2.154,0.523l-0.697,1.341l-4.37-1.458l-3.668-0.233l-5.126-2.211l0,0l-0.757-0.874l0,0l-0.757-1.864l0.057-1.224l-1.571-0.64
		l-1.981-2.211l-2.271-0.874l0.061-1.168l-0.668-0.516l0,0l0.258,0.226l0,0l-0.057-0.584l0.523-0.173l-0.057-2.505l-0.467-0.757
		l2.795-3.725v-3.088l-0.814-1.397l-0.644-4.369l2.622-1.281l0.701-0.991l-0.35-1.107l-1.125-1.224l0,0V51.8l0,0l0.347-0.785
		l0.523-0.046l1.27,1.355l0.608,0.046l2.317-1.401l0,0l0.131-0.786l0,0l1.748-0.173l2.095,1.005h1.182l2.622,2.402l1.089,0.481
		l1.182,1.178v0.832l-0.57,0.874l-1.528,0.435l0.22,1.093l4.804,2.271l1.701-2.448l-0.393-1.878l0.439-0.436l-0.131-0.743
		l-1.224-1.309l1.005-1.182l-0.436-2.622l0,0l1.249-0.042l0,0l2.664-1.047l1.571,1.135l2.622-0.13l1.443,0.393l2.271-0.393
		l2.094,0.693l0,0l-0.046,0.18l0,0l0.672,1.964l-0.177,2.402l0.57,0.266v0.958h2.752l0.655-0.566l1.79,1.616l1.836,0.828
		l0.088,0.524l-1.443,0.785l-0.22,0.612l0.874,1.397l1.182,1.181l2.445,0.874l0.785,0.786v0.874l2.622,1.528l0.308,0.7l-1.093,2.576
		h-0.874l-0.654-0.786l-2.71,0.042l-0.481,0.439l-0.347,1.221l0.347,1.182l-0.739,2.621l-4.369,5.59l-0.393,1.574l0.785,0.785l0,0
		L124.431,83.116z"/>
	<path id="VE-K" fill="#1E3250" stroke="#1E3250" stroke-width="0.5" d="M69.677,49.596l-0.071,1.854l-0.874,1.528l0,0l-0.35,0.396
		l0,0l-1.351,1.005l-1.355,0.304l-0.874-0.436l0.042-1.878l-0.523-0.481l-1.879,2.837l0.524,0.962l-0.566,0.13l-0.524-0.832
		l-0.396,0.131l0.396,1.355l-1.266-0.828l-0.481,0.131l0.393,1.005L59.866,56.3l-0.832,0.173l-0.697,2.579l-1.617-0.262
		l-0.393,0.347l-1.093-0.786l0.917-1.224l0.042-0.959l-1.005,0.566L54.1,56.693l-1.05,0.962l0,0l-0.262,0.743l0,0l-1.528-1.878
		v-0.701l0.57-1.005l1.617-0.262l-0.262-0.523l-3.015-1.617l-1.662-0.088l-1.352-1.047l-1.181,0.35l-1.136-0.393v-1.004
		l-1.486-1.313l-0.566,0.262l-0.262,1.486l-0.4,0.106l0,0l0.011-0.071l0,0l-2.491-0.916l-0.959-1.093l0.262-0.569l2.969-1.833
		l0.307-1.486l-1.005-0.435l-0.456-1.893l0,0l0.965,0.082l0,0l3.364-1.005l2.402-0.131l8.342-3.23l-0.173,0.481l1.135,0.131
		l1.528-1.093l3.014,1.355l3.188-0.35l2.84,0.828l2.576-0.698l0.941,0.963l0,0l-0.089,0.025l0,0l-0.916,1.004l-1.397,0.304
		l-0.92,0.832l-0.131,0.832l0.743,1.178l0.393,2.052l-1.744,0.046l-0.481,1.005l-1.136,0.785l1.352,1.528l-0.215,1.571l0.874,0.612
		l0.393,0.131l0.393-1.31l0.786-0.831l0.743,0.046l0,0L69.677,49.596z"/>
	<path id="VE-L" fill="#1E3250" stroke="#1E3250" stroke-width="0.5" d="M44.59,65.59l-0.8,1.21l0.131,0.438l-1.574,0.739
		l-0.523,0.832l-1.528,0.57l-2.141,2.183l-0.743,2.664l-1.09,0.831l0.785,1.702l-0.612,2.317l-3.584,3.538l-2.706,1.617l0,0
		l-0.438,0.304l0,0l-0.917-0.874l-0.304-2.883l-2.402-0.393l-1.705-1.617l-1.702-0.393l0.042-0.655l1.659-1.836l0.088-2.226
		l0.393-0.438l-0.99-2.186l0,0l0.357-0.121l0,0l1.79,0.393l0.308-1.267l1.267-0.524l5.852-4.673l-0.464-1.73l0,0l0.729-0.916
		l0.718,0.024l0,0l2.402,1.659l1.529-0.654l0,0l0.484,0.039l0,0l1.702,0.764l1.921,1.967l0.612-0.917l1.352,0.523l0,0L44.59,65.59z"
		/>
	<path id="VE-M" fill="#1E3250" stroke="#1E3250" stroke-width="0.5" d="M119.747,50.573l-2.094-0.693l-2.271,0.393l-1.443-0.393
		l-2.622,0.13l-1.571-1.135l-2.664,1.047l0,0l-1.312,0.042l0,0l-4.674-0.347l-0.874-0.874l-1.878-0.786l-0.304-1.05l0.393-0.959
		l-1.047-1.486l-0.063-1.493l0,0l0.396-0.191l0,0l0.722,0.679h1.617l2.36-1.355l0.088-0.952l0,0l0.743,0.078l0,0l1.178-0.436
		l5.154,0.347l0.481-0.131l0.177-1.111l0,0l0.655-0.502l0.831,0.064l0.778,0.811l1.535,0.201l-0.573,0.786l0.314,0.859l4.872,3.977
		l5.505,1.231l0,0l-2.271,2.247l-1.224,0.743l-0.828-0.042l0,0L119.747,50.573z"/>
	<path id="VE-N" fill="#1E3250" stroke="#1E3250" stroke-width="0.5" d="M172.134,54.057l-0.892,1.575l0,0l-0.701,0.697l0.234,0.817
		l0,0l0.467,1.337l-0.057,2.332l1.164,0.874l0.173,2.271l2.561,0.641l1.108-0.524l0,0l0.406,0.057l0.234,0.817l0,0l0.06,2.211
		l-0.64,2.154l-2.505,2.505l-1.691,0.991l-2.211,0.29l0,0l-1.132,0.531l0,0l-1.047,1.047h-0.523l0,0l0.042-0.916l0,0l-5.547-2.226
		l-0.262-1.617l0.916,0.042l0.658-0.612l-0.177-0.435l-4.542,0.435l-1.44-3.015l-5.07-4.061l-1.528-0.701l-1.791,0.481l-1.266-3.188
		l1.92-1.748v-0.523l-0.481-1.575l-1.004-1.004l-0.174-0.697l0.481-0.919l-0.874-1.483l-1.178-0.743l-0.088-0.701l0.173-0.566
		l1.652-0.919l0,0h0.318l0,0l2.099-0.828l0.874-0.92l2.052-0.042l1.921-1.355l3.145,1.794l2.317,0.304l2.576,1.659l1.135,0.262
		l3.757-0.173l0.524-1.005l-0.103-1.231l0,0l1.287-0.074l0.726,0.778l1.033,3.859l0.983,1.44L172.134,54.057z"/>
	<path id="VE-O" fill="#1E3250" stroke="#1E3250" stroke-width="0.5" d="M148.134,38.091l-1.026-0.103l-0.272-0.411l0.41-0.513
		l0.821,0.067L148.134,38.091z M144.582,37.405h-1.196l-0.272-0.411l1.401-0.308L144.582,37.405z M149.981,33.853l-0.513,0.853
		l-2.289,0.991l-1.638,0.035l-1.673-1.058l-0.24,0.41l-1.334-0.035l-1.571-0.75l0.036-0.718l1.401-0.647L143.457,33l1.263,1.026
		l0.955,0.103l1.058-0.411l0.339-1.026l1.334-1.026l0.785,0.272L149.981,33.853z"/>
	<path id="VE-P" fill="#1E3250" stroke="#1E3250" stroke-width="0.5" d="M68.583,53.148l2.225,5.558l0.06,1.164l2.622,1.804
		l0.173,1.285l1.107,0.987l-0.817,1.284l0.817,2.211l-2.505,1.397l1.164,0.523l0.641,1.284l1.224,0.757l0,0l0.06,0.991l0,0
		l-1.107,2.678l-1.458,0.58l-0.991,0.991l-0.173,3.028l-0.7,0.117l-0.757-0.347l-1.631-2.158l-2.388-1.688l0.583-0.931L66.5,74.198
		l-0.697-0.29l-0.117-0.701l-1.748-2.038l-0.99-0.351l-0.99,0.234l-2.622-1.397h-2.505l-2.444-1.051l-3.974-3.003l0,0l0.018,0.003
		l0,0l1.571-2.491v-1.093l-0.962-0.347l-0.173-0.743l1.617-1.574l0.343-1.068l0,0l0.223-0.633l0,0l1.05-0.962l1.089,0.043
		l1.005-0.566l-0.042,0.959l-0.917,1.224l1.093,0.786l0.393-0.347l1.617,0.262l0.697-2.579l0.832-0.173l0.655,0.481l-0.393-1.005
		l0.481-0.131l1.266,0.828l0.085-0.393l-0.481-0.22v-0.743l0.396-0.131l0.524,0.832l0.566-0.13l-0.524-0.962l1.879-2.837
		l0.523,0.481l-0.042,1.878l0.874,0.436l1.355-0.304l1.351-1.005l0,0L68.583,53.148z"/>
	<path id="VE-R" fill="#1E3250" stroke="#1E3250" stroke-width="0.5" d="M168.179,46.455l0.103,1.231l-0.524,1.005l-3.757,0.173
		l-1.135-0.262l-2.576-1.659l-2.317-0.304l-3.145-1.794l-1.921,1.355l-2.052,0.042l-0.874,0.92l-2.099,0.828l0,0h-0.435l0,0
		l-1.836-0.393l-1.702,0.7h-1.574l-2.271-1.051l-0.965-1.542l0,0l1.648-1.797l1.546-0.502l1.327-1.384l2.154,0.81l2.65,0.043
		l2.876-0.966l-3.145-0.74l-0.45-0.629l-0.898,0.36l-2.558-0.088l-1.358,0.644l-0.754-1.5l0.736-0.467l0.521,0.378l3.414-0.492
		l0.269,0.446h1.571l0.382-0.442l4.822,0.293l4.316-0.477l0.987-0.676l5.073,0.272l2.021-0.856l8.083,0.718l5.384-0.58l-0.06,0.531
		l-1.284,0.633l-4.433,0.438l-1.281,1.503l-5.735-0.414l-2.119,0.389l-0.587,0.456l0.662,0.492l-0.149,1.044l-1.818,0.148
		l-0.57,0.513l-0.113,1.479l0.697,0.284l0.173-1.479l1.649-0.209l1.008-1.319l1.524,1.39l0.139,2.771L168.179,46.455z"/>
	<path id="VE-S" fill="#1E3250" stroke="#1E3250" stroke-width="0.5" d="M29.863,84.472l-0.259,2.307l1.921,2.094l-5.884-0.987
		l-1.571,0.697l0,0l-0.116,0.407l0,0l-0.524,1.167l-0.99,0.347l-1.921-0.113l-1.341-1.107l-2.855,0.29l-0.148,0.332l0,0
		l-1.058-0.049l-0.173-0.786l-0.524-0.176l-0.067-6.637l0.46-1.599l1.319-0.393l0.326-0.647l-0.729-0.796l-0.071-3.096l-0.856-0.969
		l0,0l1.536-0.786l0.084-0.655l4.196-1.485l0.828-0.785l0.744,0.131l0.088,0.438l1.486-0.524l0,0l0.167-0.056l0,0l0.99,2.186
		l-0.393,0.438l-0.088,2.226l-1.659,1.836l-0.042,0.655l1.702,0.393l1.705,1.617l2.402,0.393l0.304,2.883l0.917,0.874l0,0
		L29.863,84.472z"/>
	<path id="VE-T" fill="#1E3250" stroke="#1E3250" stroke-width="0.5" d="M52.826,58.289l-0.343,1.068l-1.617,1.574l0.173,0.743
		l0.962,0.347v1.093l-1.571,2.491l0,0l-0.569-0.088l0,0l-1.135-0.35l-3.496,0.35l0,0l-0.743,0.088l0,0l-1.352-0.523l-0.612,0.917
		l-1.921-1.967l-1.702-0.764l0,0l0.085,0.003l0,0l0.173-0.828l-0.874-1.878l-2.034-0.517l0,0l0.326-4.762l0,0l1.932,0.612
		l1.791-0.566l1.004-2.009l1.182-0.481l-0.439-1.617l0,0l0.078-0.453l0,0l0.4-0.106l0.262-1.486l0.566-0.262l1.486,1.313v1.004
		l1.136,0.393l1.181-0.35l1.352,1.047l1.662,0.088l3.015,1.617l0.262,0.523l-1.617,0.262l-0.57,1.005v0.701l1.528,1.878l0,0
		L52.826,58.289z"/>
	<path id="VE-U" fill="#1E3250" stroke="#1E3250" stroke-width="0.5" d="M80.668,40.646l0.325,0.495l0,0l-2.639,0.177l-0.351,2.795
		l0.874,1.178l-0.828,1.663l0.436,2.314l0,0l0.216,0.05l0,0l-1.09,1.174l-1.485,0.566l-0.393-1.486l-0.917,0.046l-1.79,1.047
		l-1.921-1.44l-0.962,0.304l0,0l-0.612,0.088l0,0l-0.743-0.046l-0.786,0.831l-0.393,1.31l-0.393-0.131l-0.874-0.612l0.215-1.571
		l-1.352-1.528l1.136-0.785l0.481-1.005l1.744-0.046l-0.393-2.052l-0.743-1.178l0.131-0.832l0.92-0.832l1.397-0.304l0.916-1.004l0,0
		l0.481-0.131l0,0l0.962-0.916l2.314-0.308l0.131,1.224l1.397,1.005L80.668,40.646z"/>
	<path id="VE-V" fill="#1E3250" stroke="#1E3250" stroke-width="0.5" d="M36.251,60.047l2.038,0.517l0.874,1.878l-0.173,0.831l0,0
		l-0.569-0.042l0,0l-1.528,0.654l-2.402-1.659l0,0l0.124-1.235L36.251,60.047z M32.721,34.104l3.063,3.082l0.262,0.435l-0.389,1.355
		l1.79,2.71l1.397,0.743l1.878,0.042l0,0l0.04,0.003l0,0l0.453,1.893l1.004,0.436l-0.304,1.485l-2.972,1.836l-0.262,0.566
		l0.962,1.093l2.491,0.916l0,0l-0.089,0.524l0,0l0.436,1.617l-1.178,0.481l-1.004,2.009l-1.791,0.57l-1.932-0.616l0,0l0.301-0.898
		L36.16,51.75l-1.298-1.404l-0.739-0.135l-0.351-2.271l-1.556-1.408l-1.872-2.788l-0.29-1.09l0.417-0.361l-0.061-0.718l-1.376-0.779
		l0.417-1.079l-0.577-3.014l1.66,0.088l0.531-1.323l-0.488-1.21l1.093,0.042l0.293,1.284l0.658-0.181L32.721,34.104z M27.478,23.197
		l-3.07,0.329l-1.182,0.69l-0.778,1.677l0.315,2.211l0.523,0.219l1.093,2.445l1.302,1.712l1.974,0.598l-0.24,0.538l-1.617-0.301
		L25.6,33.736l0.962,0.701l0.676,2.709l1.291,1.047l-0.262,2.402l-1.238,1.999l-2.275,1.906l-0.853,2.692l-1.807,0.792l-0.241,1.196
		l-2.271,3.262l2.494,3.396l0.035,1.663l0.825,0.053l2.777,1.857l0.021,1.256L24.85,60.86l-0.181,0.658l0.895,0.357l0.438,2.226
		l2.534,0.583l4.51-1.556l0,0l0.464,1.729l-5.852,4.674l-1.267,0.523l-0.304,1.267l-1.79-0.393l0,0l-0.524,0.174l0,0l-1.486,0.523
		L22.2,71.191l-0.743-0.131l-0.831,0.786l-4.192,1.486l-0.088,0.655l-1.536,0.785l0,0l-3.266-3.754l-2.052-7.949l-2.579,0.089
		l-1.153-2.576L2.448,62.64L0,62.619l0.223-0.856l1.182-0.98l0.042-1.355l3.188-3.7l1.836-3.329l-0.208-2.855l0.951-1.864
		l0.393-4.529l1.005-2.183l1.921-2.359l-0.007-1.203l2.671-3.779l0.272-1.033l0.598-0.598l2.813-0.361l4.429-7.783l4.482-1.712
		l4.454-0.874l1.843-1.001l0.534,0.478l-0.24,0.838l-0.959,0.478L27.478,23.197z"/>
	<path id="VE-W" fill="#1E3250" stroke="#1E3250" stroke-width="0.5" d="M126.49,33.765l1.231,0.502l0.457,0.867l-0.411,0.637
		l-1.914,0.272l-1.366-0.411l-0.092-1.319l1.73-0.775L126.49,33.765z M161.651,28.128l-0.544,0.669l-0.424-0.424l0.184-1.153
		l1.033,0.06l0.181,0.669L161.651,28.128z M141.118,22.033l-0.417,0.934l-0.245-1.093L141.118,22.033z M113.167,21.874l-1.638-0.909
		l0.502-0.545l1.273-0.138l0.545-0.821l0.545,0.272l0.272,1.458L113.167,21.874z M137.715,21.463h-0.683l-0.683-0.637l0.775-1.32
		l0.913-0.045l0.318,0.41l0.092,1.047L137.715,21.463z M106.654,19.051l0.226,1.914l-0.775,1.047l-1.549,0.184l-2.459-0.683
		l3.142-0.456l0.591-1.001l-0.683-0.955l-0.637,1.411l-1.366-0.046l-1-0.867l0.272-0.82l3.279-0.729L106.654,19.051z M93.762,18.733
		l-1.139-0.092v-0.502l0.545-0.092l-0.683-0.729l0.545-0.591l1.047,1.139L93.762,18.733z M90.712,16.819l-0.092,1.365l-1.365,0.227
		l-0.457-0.909l0.821-0.729l-1.55-0.775l1.047-0.272L90.712,16.819z"/>
	<path id="VE-X" fill="#1E3250" stroke="#1E3250" stroke-width="0.5" d="M110.237,39.899l-0.177,1.111l-0.481,0.131l-5.154-0.347
		l-1.178,0.436l0,0l-0.831-0.089l0,0l-3.103-0.261l-1.397,1.659l0,0l-0.612,0.439l0,0l-0.786,0.219l-0.654-0.439L94.639,43.5
		l-0.644-2.225l0,0l2.232-0.152l3.425-1.185l3.962-0.428L110.237,39.899z"/>
	<path id="VE-Y" fill="#1E3250" stroke="#1E3250" stroke-width="0.5" d="M192.848,72.323l-0.926-0.138l0.138-0.693l0.785-0.046
		v0.877H192.848z M191.366,71.952l-0.602,0.046l-0.091-0.602l0.927-0.229L191.366,71.952z M198.448,70.097l-0.23,0.786l-0.693,0.184
		l-0.279-0.326v-0.463L198.448,70.097z M197.709,69.868l-0.417-0.28l0.371-0.325l0.372,0.372L197.709,69.868z M194.56,68.941
		l-1.249,1.574l-1.991,0.463l0.046-0.693l1.064-0.092l0.138-0.417l-0.417-0.556l-1.249,0.739l0.601-1.065l2.823-0.739l0.417,0.138
		L194.56,68.941z M196.088,68.201l-0.647,0.417l-0.138-0.602L196.088,68.201z M197.107,68.895l-1.436,1.482l-0.881,0.185
		l0.973-1.574l1.02-0.046l1.156-1.111l0.138,0.372L197.107,68.895z M194.327,67.6l-0.693-0.092l-0.372-0.881l1.575-1.482
		l0.739,0.138l-0.092,0.973L194.327,67.6z M196.552,65.191l-1.157-0.463l0.372-0.372l1.157,0.601L196.552,65.191z M192.384,66.953
		h-0.602l0.602-1.157l2.222-1.712v0.785L192.384,66.953z M195.392,63.57l-0.739,0.138l-0.138-0.371l0.648-0.927l0.647,0.555
		L195.392,63.57z M197.521,63.153l0.555,0.326l-0.184,0.739l-1.62-1.019l0.463-1.295l0.602,0.184l-0.372,0.372L197.521,63.153z
		 M194.571,61.851l-0.587,0.339L193.7,61.77l0.998-1.348l-0.35-1.889l0.523-0.662l1.422,1.079l0.436,1.136L194.571,61.851z
		 M189.883,55.376l-0.159,0.396l-0.438-0.088l-0.517-0.817l0.184-0.229L189.883,55.376z M180.621,53.707l0.361-0.248l-0.436-0.701
		l0.527-0.527l3.396,1.019l-0.892-1.135l0.339-0.871l1.801,1.288l2.406,2.975l5.533,1.125l0.81,3.651l-0.279,0.693l-0.658,0.304
		l-0.51,1.334l-2.979,0.934l-0.251,0.505l0.403,0.251l1.337-0.605l0.121,0.407l2.027-1.188l-0.711,1.893l-1.564,1.408l-0.428,1.213
		l0.605,0.605l-1.337,2.147l-0.481,1.666l0.251,0.379l3.166,1.425l0.85-1.804l0.757,0.329l3.113-0.651l1.387,0.839l2.522,0.36
		l0.304-0.471l1.921-0.329l-1.338-0.305l0.007-0.36l2.699-0.092l3.003,0.81l2.3,1.617l1.567,2.147v0.707l-0.53,0.63l-0.835-0.049
		l-1.744,1.111l-0.244,1.946l-0.417,0.35l-1.362,0.135l-2.611,1.85l0,0l-4.819,0.088l-1.178,0.654l-0.874-0.304l-1.267,1.047
		l-1.224,0.35l-0.916-0.612l-0.481-1.355l-1.093-0.173l-1.747,1.309l-2.271,0.743l-0.654,0.743l-2.314-0.655l0,0l-1.748-0.785l0,0
		l-1.836-3.103l-2.402,0.043l-1.178,0.831l-1.528-0.612l-1.094-2.01l-2.271-1.309h-2.622l-1.836-2.314l0,0l-0.322-1.486l0.991-0.407
		l0,0l2.214-0.291l1.688-0.99l2.505-2.504l0.64-2.154l-0.057-2.215l0,0l-0.233-0.813l-0.407-0.057l0,0l-1.107,0.523l-2.562-0.64
		l-0.173-2.271l-1.164-0.874l0.057-2.331l-0.466-1.341l0,0l-0.234-0.817l0.7-0.7l0,0l0.892-1.574l0,0l0.605,0.237l0.739-3.825
		l1.649-0.983l1.479,0.396L180.621,53.707z"/>
	<path id="VE-Z" fill="#1E3250" stroke="#1E3250" stroke-width="0.5" d="M137.018,140.27l-1.762-1.178l-1.185,0.251l-0.032,0.845
		l0.584,0.87l0.803,0.17l1.352,2.776l2.819,2.778l3.708,2.303l0.655,1.146l-0.096,1.245l-0.46,0.425l0.099,5.374l1.723,1.903
		l1.924,3.626l0.042,2.225l-0.655,1.224l0.393,1.136l3.014,0.874l3.167-0.453l3.378,0.226l1.012,2.325l-0.917,1.617l-2.908,0.566
		l-2.947,2.099l-2.009,0.042l-1.617,0.701l-0.828,1.659l-0.393,3.668l-2.753,2.36h-1.005l-0.13-0.612h-1.051l-4.935,3.835
		l-2.24-0.542l-2.607,2.07l-2.508,0.753l-0.506,2.831l-2.317,0.346l-1.061,1.157l-0.51,2.339l-0.831,0.304l-1.217-0.276l1.174-1.864
		l0.042-1.875l-0.654-0.875l-1.267-0.219l-1.921,0.131l-2.187,1.094l-1.617,1.878l-2.051,0.785l-3.276-0.131l-8.82-7.617
		l0.039-1.734l-0.566-0.215l-0.307-3.584l-0.697-0.697l-1.886-5.048l-0.191-2.062l-0.566-0.351l-0.654-1.574l-0.177-0.958
		l0.612-1.005l-0.566-0.892l-1.39-0.721l-0.619-1.097l-2.572-2.236l-1.09-0.035l-0.131-1.047l-0.874-1.004l-3.846-0.524l6.421-5.636
		l1.136-0.177l-0.131-1.047l2.056-1.702l-0.088-1.051l-2.313-1.355l-0.177-2.271l-0.612-0.654l-2.137-0.404l-0.701-2.434
		l-0.439-0.237l0.046-0.831l0.743-0.608l-0.35-0.79l-2.218-1.726l-0.293-1.656l0.372-1.857l-0.262-1.005l-0.743-0.48l-0.202-1.146
		l0.024-1.04l0.57-0.828l0.042-4.85l0.654-1.528l-0.69-0.046l-0.145-0.591l0.138-2.858l2.664-1.964l0.57-0.873l0.131-3.994
		l2.706-3.492l0.786-0.131l-0.085-1.139l-0.569-0.085l-0.315-1.437l0,0l4.295,1.224l0.347,2.328l-0.463,0.233l0.057,3.379
		l1.515-0.117l0.583,0.64l0.814,0.117l1.807-0.64l4.076-0.234l1.688-0.874l2.331-2.211l0.931-0.117l0.7,2.795l1.748-0.757
		l1.164,0.057l1.107-0.523l1.748-2.155l0.931-2.154l2.271-0.641l1.107,0.291l0.35,0.7l-0.701,3.085l0.061,1.691l0.813,1.047h0.874
		l1.458-1.458l3.085,0.411l0.177,0.463l-0.757,1.051l2.038,2.155l-0.116,0.813l-0.584,0.234l0.06,0.756l1.047,0.757l-0.35,1.108
		l-2.154,0.467l1.107,3.786l3.612,5.65l2.618,1.397l0.644-0.351l1.744,0.524l0.177,1.804l0.464,0.584L137.018,140.27z"/>
</g>
</svg>
