<?xml version="1.0" encoding="utf-8"?>
<!-- Generator: Adobe Illustrator 15.0.0, SVG Export Plug-In . SVG Version: 6.00 Build 0)  -->
<!DOCTYPE svg PUBLIC "-//W3C//DTD SVG 1.1//EN" "http://www.w3.org/Graphics/SVG/1.1/DTD/svg11.dtd">
<svg version="1.1" id="Layer_1" xmlns:amcharts="http://amcharts.com/ammap"
	 xmlns="http://www.w3.org/2000/svg" xmlns:xlink="http://www.w3.org/1999/xlink" x="0px" y="0px" width="1024px"
	 height="1088.39px" viewBox="0 0 1024 1088.39" enable-background="new 0 0 1024 1088.39" xml:space="preserve">
<defs>
	
	
		<amcharts:ammap  projection="mercator" leftLongitude="-141.007366" topLatitude="83.116658" bottomLatitude="41.730628" rightLongitude="-52.646682">
		</amcharts:ammap>
</defs>
<g>
	<path id="CA-AB" fill="#1E3250" stroke="#1E3250" stroke-width="0.5" d="M386.21,966.595h-36.42l0,0l0.05-0.609l-1.19-1.78
		l-1.48-0.58l-1.89-2.51l-0.11-2.06l-1.4-0.601l0.82-1.979l-0.38-2.82l0.3-1.19l-1.23-4.739l-1.83-2.61l-0.88-0.56l-1.03,0.439
		l-0.89-1.14l-0.37-1.33l-2.58-1.79l0.42-0.76l-0.28-0.761l-1.57-1.529l-1.83-0.851l-0.39-1.43l-1.87-1.32l-0.54-1.8l-2.3-2.91
		l-0.96-2.02l-0.76,0.03l-0.64,1.06l-0.74,0.02l-1.12-2.489l-1.86-2.34l-0.67-1.591l-2.4,0.21l-1.46-0.96l-0.64-0.939l0.81-1.63
		l-2.43-1.5l-0.52,1.069l-1.44,0.391l-0.03-1.421l-1.13-2.069l0.18-1.25l-1.31-2.51l-1.38-0.46l-0.43-1.73l-0.79-0.59l-0.33-1.311
		l-1.7-1.229l-0.26,1.44l-2.14-1.051l-1.25-2.14l-2.51-0.271l-1.25-1.81l-0.66-0.36l-0.22-1.46l1.57-0.04l0.07-0.279l-0.69-0.99
		l-0.83-0.36l-0.87-1.83l0.01-101.21l0,0h89.65l0,0V966.595z"/>
	<path id="CA-BC" fill="#1E3250" stroke="#1E3250" stroke-width="0.5" d="M262.331,795.755h34.24l0,0l-0.01,101.21l0.87,1.83
		l0.83,0.37l0.69,0.98l-0.07,0.279l-1.57,0.04l0.22,1.46l0.67,0.37l1.25,1.811l2.51,0.27l1.24,2.141l2.14,1.04l0.26-1.44l1.69,1.23
		l0.33,1.31l0.79,0.59l0.43,1.73l1.38,0.46l1.32,2.51l-0.18,1.26l1.12,2.07l0.04,1.42l1.44-0.39l0.52-1.07l2.42,1.51l-0.81,1.62
		l0.64,0.94l1.46,0.96l2.4-0.21l0.68,1.58l1.86,2.34l1.11,2.489l0.74-0.02l0.64-1.061l0.75-0.029l0.96,2.02l2.31,2.92l0.53,1.79
		l1.87,1.33l0.4,1.43l1.83,0.841l1.57,1.54l0.28,0.75l-0.41,0.76l2.58,1.79l0.37,1.33l0.89,1.14l1.03-0.439l0.88,0.56l1.83,2.61
		l1.23,4.74l-0.3,1.189l0.38,2.83l-0.82,1.979l1.4,0.601l0.11,2.06l1.89,2.511l1.48,0.579l1.19,1.78l-0.05,0.61l0,0h-78.23
		l-1.21-1.11l-0.7,0.19l-0.42,0.92h-0.33l-0.28-0.86l0.34-1.01l-0.92,0.01l-0.43-1.79l2.53-0.45l0.61-1.449l-1.22,1.05l-2.34-0.3
		l0.8-4.631l-1.23,1.421l-0.1,1.63l-0.91,0.109l-0.84,0.74l-3.24-1.34l-1.23-1.49l-0.23-0.81l0.55-1.03l0.63,0.26l0.95,1.811
		l0.7-0.101l1.4-1.21l-1.62,0.311l-1-1.08l-0.27-3.39l1.07-1.49l-0.37-0.78l-1.08-0.55l0.72,1.56l-0.82,1.101l-0.25,1.63l-1.4,1.15
		l-1.25,0.289l-1.81-0.5l-2.68-2.939l-1.35-3.88l-0.47-0.811l-0.52-0.109l-0.12-0.771l1.74-3.08l0.02-3.319l-0.66,0.88l-0.08,2.05
		l-1.04,2.14l-1.35,0.53l-2.39-0.29l-0.45-0.52l-0.12-1.62l-0.63,2.29l-0.78,0.3l-0.67-0.61l-1.73,0.291l-4.35-0.881l0.3-0.81
		l4.65-1.09l-0.75-0.38l-3.49,0.63l-1.29-0.181l-0.03-0.64l1.28-1.6l-1.32-0.41l0.33-1.34l-0.29-1.37l-1.03,2.01l-3.82,0.67
		l-2.68-1.109l-3.15-2.921l-0.06-1.68l0.73-2.271l2.56-3.09l5.87-0.88l-5.8-0.06l-0.93,0.41l-1.81,2.88l-0.62-0.17l-1.22-2.63
		l-0.11-2.131l1.22-2.5l-1.18,0.04l0.14-1.399l0.43-1.521l3.2-2.41l1.75-0.569l0.6,1.17l1.5,0.35l2.64,3.351l-1.62-2.4l-0.38-1.21
		l-1.69-0.91l-0.6-1.27l0.06-1.181l1.72-1.77l0.39-0.931l-0.51-1.79l-0.04,1.811l-0.48,0.99l-4.06,4.31l-1.74,0.6l-1.08,0.99
		l-2.4,6.721l-0.82-3.041l-1.47-2.34l2.87-2.33l-0.13-1.979l1-1.35l-0.88,0.21l-2.09,2.47l1.25-6.521l0.71-1.55l-2.79,1.26
		l-0.78-0.75l-0.65-3.92l-1.14-1.54l-1.94-1.26l-1.9-0.59l-0.81-2.5l0.51-1.62l0.83-0.771l0.77-0.35l0.73,0.16l-0.46,2.189
		l3.26,2.08l0.57,0.16l1.08-0.74l2.02,0.631l1.84,2.14l-0.2-0.83l-2.31-2.3l-2.73,0.1l-1.47-1.17l-0.79-2.9l0.44-0.959l1.64-0.73
		l-1.06-0.92h-0.48l-1.66,1.35l-0.62-0.18l-2.23,3.02l-0.45,3.36l-1.83,1.07l-0.91,1.42l-2.31-2.42l-0.81-2.08l-1.46-0.37
		l-1.69-1.18l-0.65-1.051l0.92-2.17l1.32-1.64l0.38-2.4l2.26-0.49l1.48-0.989l-2.44,0.06l-1.67,0.69l-1.85-1.36l-0.95-1.25
		l-0.3-1.06l0.72-3.61l1.18-1.16l2.95-6.76l2.95-4.681l-1.26,0.381l-0.84-1.91l-0.38,3.79l-1.89,4.1l-0.39-0.79l0.86-2.45l0.1-1.489
		l-0.97-4.311l0.71-5.07l-0.75-2.54l-1.05,0.421l-1.78-0.641l-0.57-1.74l-1.54-0.529l-0.83-1.24l-3.06-1.03l-4.41-3.14l-2.23,0.14
		l-0.08-1.54l-0.47-0.93l0.18-0.83l-2.13-1.04l0.65-2.78l-2.75-0.87l0.95-1.96l-10.67-19.1l0.19-1.26l-3.76-5.051l-4.27-3.34
		l-1.29-3.25l-3.24-2.88l-1.27-0.67l-1.14-2.689l0.18-2.421l-3.81-3.8l-4.11,2.32l-3.47,1.021l0.67,1.27l-0.28,0.93l-0.63,0.431
		l-1.06-0.051v3.15l-1,2.23l-2.1,0.04l-4.16,2.819l-1.44,1.48l-0.74-0.21l0.33-1.32l-0.98-4.1l-9.31-9.73l-0.66-2.189l-3.15-1.79
		l0,0L262.331,795.755z M205,878.785l0.38-1.74l1.21-2.52l-0.99-5.63l0.31-1.99l0.78-1.73l-0.87,3.141l0.94,6.41L205,878.785z
		 M201.761,882.775l3.24-3.99l0.09,1.229l-1.3,2.061l-1.67,1.02L201.761,882.775z M198.61,887.265l-0.24-0.97l0.42-1.39l1.33,0.28
		l-0.05,0.569L198.61,887.265z M183.11,892.646l0.82,0.899l2.34-0.46l1.23,2.19l-0.08,1.649l-3.49,2.4l0.27,0.54l3.12-0.5l0.65-2.65
		l-0.18-2.649l1.74-0.12l2.45-1.521l-0.31,2.36l-1.67,4.13l-0.61,6.1l-0.48,0.65l-3.01,1.13l-1.55-0.069l-2.04-1.74l0.49-0.86
		l2.4,0.46l-2.2-1.83l-1.57-0.739l-2.1-4.971l-0.17-2.56l0.44-2.34L183.11,892.646z M204.8,895.226l-1.33,1.739l-0.77-0.27
		l-1.07-1.19l-0.47,0.29l-0.02,1.16l-0.53-0.72l0.5-1.5l1.78-1.49l1.18,0.641L204.8,895.226z M208.281,907.125l-0.77-0.13
		l-1.95-2.53l-1.38-0.92l-1.9-2.06l0.59-1.311l4.55,2.931l1.7,2.87L208.281,907.125z M214.38,907.875l-0.98,0.101l-0.42-0.46
		l0.77-2.811l0.55,1.061L214.38,907.875z M219.9,910.525l0.38,6.22l-1.52,3.36l-0.47-0.98l-0.32-3.55l0.18-2.43l-0.76,1.25
		l-0.62,0.069l-1.1-1.21l-1.37-3.1l1.28-4.69l1.57,0.771l2.02,1.729L219.9,910.525z M191.201,906.715l0.91,1.38l0.16,2.69
		l-1.44,0.55l-0.76-0.439l-0.83,0.52l2.19,1.83l2.44,0.811l-1.21,1.819l1.44,2.29l1.53,0.09l-0.54,1.65l1.59,0.17l0.24,1.05
		l-0.94,0.96l-1.8-1.229l-1.26-2.37l-5.41-5.64l-0.83-2.23l1.01-0.35l0.01-0.62l-2.91-1.08l-0.7-0.98l3.52-0.34l2.34-1.06
		L191.201,906.715z M213.07,909.745l-0.86-0.47l-0.81-1.57l-0.01-0.89l0.45,0.2L213.07,909.745z M216.451,916.865l-0.29,0.67
		l-1.63-2.069l-0.89-1.721l0.04-1.319l2.26,2.21l0.48,0.899L216.451,916.865z M221.541,918.465l-0.69,0.2l0.29-1.25l-0.24-3.29
		l0.67-1.26l1.05-0.04L221.541,918.465z M197.69,924.875l-0.66-0.76l0.05-1.99l0.78,0.811L197.69,924.875z M225.521,931.915h-1.08
		l-0.93-2.2l1.05-1.18l1.03,1.771L225.521,931.915z M232.041,943.775l4.45,1.76l9.73,2.2l1.19,0.58l2.23,4.25l2.68,3.89l0.27,0.64
		l-0.23,0.58l0.9,1.561l1.68,1.399l5.8,2.811l1.58,1.92l2.9,6.81l0.48-1.47l0.48,0.271l0.95,2.899l-0.24,0.591l-1.21-0.221
		l-1.14,1.41l-3.08-0.859l-6.92-2.841l-3.87-2.21l-0.13-0.83l2.56-2.8l0.33-2.52l-1.03,2.71l-3.9,0.22l-1.14,0.88l-3.04-2.15
		l1.65-1.279l-0.75-0.19l-0.96-1.05l-1.04,0.39l-0.29-0.55l0.43-1.56l-0.76,0.46l-0.71-0.73l-1.29-0.29l-0.55,0.83l-1.26-0.95
		l-0.67,0.75l-0.4-2.01l0.2-0.65l3.66-1.13l-1.91,0.16l-1.03-0.819l-0.56,0.01l-1.42-2.17l-1.97-0.94l-0.66,0.851l-1.23,0.039
		l-0.73-0.959l0.15-1.721l-0.63-0.899l-0.36,0.939l-0.53,0.26l-1.06-1.55h-1.86l-0.86,0.59l-0.84-0.09l0.22-2.31l-1.11-0.74
		l0.51-1.39l2.37-0.48l1.39,1.04l-0.38-1.86l0.57-0.649l-2.56-0.34l0.18,1.01l-1.2,0.52l-1.74,0.011l-1.87-1.561l-0.74-1.229
		l0.03-0.671l0.94-1.189l2.9-0.46l1.84,0.56L232.041,943.775z M250.09,951.386l-0.1,0.739l-1.46-3.729l0.51-1.44l0.94,0.34
		l1.09,2.37L250.09,951.386z M251.94,952.325l-0.21,0.12l-0.22-1.58l0.31-1.16l0.75,1.86L251.94,952.325z M237.031,958.195
		l-0.92-0.11l-1.75-1.449l0.37-0.891l-0.26-0.76l0.89-0.48l0.79,0.4l0.79,1.36L237.031,958.195z M259.331,959.226l0.12,0.29
		l-1.99-1.07l-2.58-2.35l0.24-0.23l1.81,0.66L259.331,959.226z M241.951,961.665l0.25,1.24l-1.48-0.44l0.19-1.149L241.951,961.665z
		 M266.331,968.056l-1.51-0.811l-1.33-2.03L266.331,968.056z M265.771,969.835l-0.38,0.351l-0.36-0.29l-0.58-2.381l1.03,0.791
		l-0.18,0.289l0.72,1.221L265.771,969.835z"/>
	<path id="CA-MB" fill="#1E3250" stroke="#1E3250" stroke-width="0.5" d="M574.92,849.625l-21.779,24.601l-20.1,24.189l-13.74,13.85
		l-0.02,49.181l0,0l-0.061,5.17l-55.62-0.021l0,0l-5.68-100.289l-0.01-70.551l0,0l64.81-0.01l0,0l-0.15,12.99l-0.73,3.14
		l-0.779,0.33l1.619,0.84l0.92,2.61l0.852,0.03l1.43,2.13l1.189,0.5l-0.41,7.17l0.541-1.37l0.57-4.25l0.77-1.9l0.6-0.409
		l2.471-0.211l2.639,0.48l1.861-0.2l0.889,0.53l0.711,4.05l5.98,19.7l-0.41,1.9l-1.221,2.739l-1.641,1.92l3.061-1.88l1.369-0.149
		l-0.469,1.229l3.029-1.53l8.131-2.93l1.91-0.25l2.74,0.53l7.18,4.01L574.92,849.625z"/>
	<path id="CA-NB" fill="#1E3250" stroke="#1E3250" stroke-width="0.5" d="M798.301,1006.035l-0.18,0.45l-0.971,0.17l-1.391,1.66l0,0
		l-1.5,0.38l-1.35-1.8l0.35,1.71l-1.658,2.239l-1.07,0.16l-5.801,3.681l-3.039,1.449l-0.641,0.011l-1.381-1.2l0.75-1.28l-1.398,1.05
		l0.68,0.99l-0.33,0.37l-2.65,1.67l-0.641-0.6l-3.24,0.96l-0.41-0.99l-0.52-0.15l-0.959,0.171l-1.48-0.721l-0.59,0.601l-1.41-1.551
		l0.4-1.3l-0.59-1.22l0.619-0.72l-0.07-0.931l-1.459-0.229l-1.85-1.37l0.318-2.561l-0.359-15.01l-3.84-3.46l-1.1,0.021l-0.17,0.37
		l-4.051,1.489l-1.561-0.439l-0.449-0.771l0,0l3.811-1.66l1.779-1.42l0.451-0.8l0.01-4.53h2.369v-0.92h4.49l0.301,0.79l1.92,1.13
		l0.52-0.43l2.24-0.42l0.949,0.25l0.24-0.851l1.98-0.79l0,0l0.65,0.15l1.818-0.75l0.621,0.08l1.34,0.96l3.23,1.04l0.84,0.68
		l0.799,2.181l0.531,0.35l1.109-0.229l2.291-1.65l2.029-0.47l-0.4,0.72l1.551-0.061l1.529,0.96l-1.33,2.061l-0.539,2.66l-3.65,3.52
		l1.139,0.681l1.342-0.511l1.889,0.37l-0.67,2.26l0.801,2.471l0.811,0.359l0.699,4.101l0.82,0.58l0.139,0.92l2.961,0.26l3.039,0.96
		l0.371,0.5l-2.01,1.1L798.301,1006.035z M794.311,980.545l-1.029,0.69l0.818-1.42L794.311,980.545z M794.021,981.505l-0.23,0.971
		l-0.781,0.819l-0.568-0.02l0.189-1.46L794.021,981.505z M773.811,1022.965l-1.211,0.66l0.852-2.22l0.51,0.18L773.811,1022.965z"/>
	<path id="CA-NL" fill="#1E3250" stroke="#1E3250" stroke-width="0.5" d="M860.43,932.355l-0.01-8.05l-59.67-0.141l-0.26-0.58
		l1.09-0.14l-0.91-3.46l-1.52-1.22l-0.141-0.7l-0.988-0.42l0.02-0.4l1.439-1.53l4.381-1.47l-1.26-1.26l-0.041-2.82l-1.051-2.029
		l-0.459-0.131l-1.641,0.48l-0.609,2.7l-1.49,0.6l-0.35,0.58l-0.041,3.85l0.721,2.58l-0.25,2.8l-1.26,1.511l-0.57,3.5l0.4,1.63
		l-1.939,1.729l-0.82,0.12l-0.941-2.09l0.682-1.16l-2.74-3.33l-1.84-1.449l-2.82-0.7l-1.23,1.89l-1.721-0.45l-0.42,0.75l-0.5-0.029
		l-1.369-0.801l-0.551-1.46l-1.639-1.33l-0.59,2.131l-0.561-0.42l-0.49-1.62l0.609-1.811l-0.289-3.569l1.129-3.49l-1.148-1.69
		l-0.361-0.12l-0.479,0.891l-0.842,0.399l-0.658,3.03l-1.131,0.6l-1.221-0.17l-1.049-0.84l0.129-2.439l0.75-2.271l0.23-4.21
		l-1.18-0.93l-0.801-1.891l-2.77-1.06l0.02-2.771l-2.6-4.01l2.24-2.68l-0.881-3.311l0.07-1.56l0.58-0.311l2.25,0.83l0.441-1.03
		l0.77-0.479l0.029-0.56l-2.41-5.131l0.07-1.369l0.949,0.13l1.211,1.97l2.689,2.43l1.281,0.51l0.66-0.779l-0.871-5.15l0.201-1.32
		l-0.65-1.27l0.209-0.54l5.531,5.64l2.449,0.94l0.779,1.59l1.08,0.93l4.971,0.4l7-0.11l3.859,1.431l1.891,0.29l2-5.38l-0.67-1.94
		l0.15-0.85l3.789-3.13l-0.379-2.74l-1.35-0.45l-0.99-0.85l-2.561-4.21l0.02-1l1.25-1.101l-0.18-0.529l-3.82-1.15l0.109-0.76
		l0.83-1.09l-1.988-1.4l-0.131-1.54l1.619-0.72l0.262-0.59l-1.701-3.771l1.9-2.97l0.24-2.19l1.061-3.37l-0.381-1.51l0.52-1.28
		l-0.15-2.609l1.291-1.94l0.119-0.899l-1.02,0.46l-0.699-0.17l-1.5-1.61l-0.75,0.28l-1.621-3.91l-1.439-1.38l-0.07-0.771l2.66-3.649
		l2.24-1.721l-0.311-1.64l-1.609,0.01l-0.08-1.489l0.99-0.73l4.16-1.19l-0.85-1.319l-1.211-0.55l-4.17,1.609l-0.92-1.68l-4.971-1.44
		l0.141-1.229l0.561-0.5l3.379,0.87l0.621-0.37l-1.381-1.67l-0.369-1.91l0.15-3.03l1.119-1.35l-0.061-0.7l-0.529-0.229l-2.42,1.09
		l-0.93-1.3l0.24-4.881l1.158-1.89l-1.549-1.15l-0.48-0.89l2.131-1.34l0.25-0.561l-1.5-0.989l-0.51-0.99l2.08-1l0,0l1.59,1.41
		l0.148,1.02l-0.969,1.38l-2.16,1.48l0.32,0.26l1.549-0.82l2.471-0.369l0.9,1.63l0.129,2.26l-0.52,1.87l1.529-1.45l1.141,3.15
		l1.6,2.34l-1.979,1.819l0.229,0.511l1.48,0.54l0.041,1.26l1.238-1.13l0.881,0.149l1.119,2.42l-0.818,1.381l-1.25,0.63l-2.92,0.439
		l0.27,0.46l1.32,0.011l3.539-0.92l1.35,0.199l0.23,0.19l-0.779,0.53l0.84,1.71l-0.59,1.05l0.869,0.17l1.211-0.35l1.58,3.55
		l-2.051,2.18l-2.58,1.6l-1.32,2.091l0.57-0.011l2.359-2.33l0.58,0.11l0.121,0.851l3.539-1.391l1.16-0.07l0.131,0.381l-0.721,2.64
		l-1.23,2.02l-2.25,1.24l-1.779,1.9l0.369,0.21l3.611-2.15l2.969-0.42l1.621,3.08l1.689,0.141l1.42,0.88l0.529,0.85l-0.859,1.54
		l0.57,1.689l-0.33,0.95l-3.32,2.13l-1.41-0.08l0.891,0.681l2.76-0.08l1.5,0.53l0.641,0.84l-1.141,2.03l1.051,0.829l2.08,0.24
		l2.639,2.84l-0.51,2.58l0.17,2.811l-1.43,0.43l-4.76-0.72l-2.721-1.11l-0.139-0.34l0.77-0.74l-1.811,0.511l0.91,1.17l2.5,1.029
		l1.121,1.24l1.229,0.11l1.051,0.95l-1.451,0.329l-0.988,0.83l0.619,0.49l3.82,0.54l0.799,0.48l-2.529,1.159L819,859.676l1.381,0.37
		l1.74-0.131l0.57,2.711l-1.32,0.399l-0.01,0.431l2.35,0.64l0.881,1.42l0.84,0.06l1.469-1.52l0.791,0.26l0.059,0.87l1.291,1.15
		l0.27,1.399l0.77-1.239l1.211,0.329l-0.6,2.15l1.939,2.67l-1.51,1.811l-0.801,2.609l-1.5,2.19l3.631-2.76l2.529-0.36l1.541-0.79
		l0.57,0.64l0.059,1.141l0.75,0.359l0.791-0.38l0.719,0.34l-2.719,3.641l-0.861,2l3.67-3.761l1.512-2.26l1.549,0.26l0.801,0.53
		l1.949,4.851l3.42,1l1.57-0.601l0.25-0.83l2.09-0.149l0.301,1.59l0.92,0.84l1.789,1.061l1.291,0.159l0.699,0.761l-1.42,2.319
		l-1.221,0.83l-4.049,0.55l-0.609,0.98l-1.932,0.89l-1.779,2.73l-2.57,0.25l-1.061,1.06l-4.1,1.96h-2.93l-2.09,1.53l-0.789,2.07
		l-2.25-0.86l0.229,0.69l2.41,1.81l-1.699,1.43l-0.141,0.471l0.49,0.25l-0.85,0.819l0.15,0.34l1.619-0.6l2.859-2.97l1.861-0.49
		l2.68-1.61l3.609-3.5l2.4-1.56l2.92-1.13l3.5-0.601l-1.16-0.54l-2.26,0.19l-0.35-0.88l1.469-0.86l6.961,1l1.949,3.63l0.57,2.01
		l-0.98,1.16l-2.51,1.57l1.24,0.77l0.49,1.381l2.871-3.061l1.539-1.01l3.369-0.391l1,2.12l2.191,0.561l2.25,3.66l0.549,1.97
		l-0.85,3.15l0.561,1.81l-0.381,2.11l0.631,1.37l-4.391,1.02l-0.289,0.431l2.439,0.1l2.74,0.92l0.359,0.68l-0.641,0.94l-2.1-0.44
		l2.881,2.24l-0.041,1.51l-5.26,4.95l-6.219,4.89L860.43,932.355z M818.801,838.005l0.75,0.49l0.199,1.811l-1.42-0.11l-1.619-1.21
		l-0.32-0.88l1.461-0.511L818.801,838.005z M825.521,862.765l0.109,0.391l-1.871-0.521l0.301-1.13l0.631-0.359l1.08,0.67
		L825.521,862.765z M876.021,925.915l-0.521-0.15l0.18-0.56l1.131-0.82l-0.17,0.95L876.021,925.915z M875.141,931.015l-1.119,2.12
		l-4.012,0.86l-0.119,0.95l0.4,0.89l1.42-0.08l0.41,0.551l-0.041,1.89l-0.639,1.79l-2.111,2.1l-0.799,2.46l-2.32,2.88l-0.27,1.53
		l-2.23,3.67l-0.201,1.73l-0.85,1.63l0.35,0.76l-0.119,1.34l4-4.43l1.16-2.18l0.609-0.351l0.51,0.73l-0.35,1.71l2.1-1.08l1.451,0.8
		l2.35-0.32L874,954.226l-4.09,2.6l-0.9,1.18l1.451-0.81l0.969,0.11l-0.199,1.239l-1.75,1.771l2.439-0.87l1.23,1.11l2.711-0.761
		l0.289,1.61l0.57-0.55l-0.031-1.391l0.48,0.08l0.26,1.37l-1.279,3.29l-0.1,1.21l0.9-0.57l0.068-1.08l0.611-0.609l1.34-0.83
		l0.09,0.62l0.301-0.11l4.309-3.56l0.301-0.03l0.189,2.75l0.83-1.18l3.57-0.37l3.029,1.649l0.451,0.79l-0.031,1.681l-1.66,1.439
		l-1.299,1.99l-2.311,1.38l2.77-0.319l-1.01,1.42l2.4,0.359l-0.07,0.33l-0.789,1.75l-2.871,1.79l2.83-0.75l0.541-0.63l0.85-0.21
		l0.83,0.4l1.26-1.08l1.711-0.21l1.459-1.101l0.27,0.33l-0.09,1.61l-0.879,1.54l-1.781,0.62l-0.639,0.83l-1.83,1.16l0.439,0.449
		l-0.08,1.15l-2.689,0.91l2.07,0.069l-0.512,1.25l-1.51,1.79l0.881,1.82l0.83,0.02l0.609-0.189l0.9-1.08l1.98-3.38l3.24-2
		l0.488,0.46l-2.58,5.05l-0.139,2.95l0.42,0.75l1.59-1.29l1.459-2.88l0.641,0.32l0.52,2.6l-0.27,1.63l-2.049,4.25l0.27,1.21
		l-0.711,2.51l-1.369,2.13l-0.891-0.06l-0.98-0.75l-1.91,1.12l-0.479-0.08l-0.07-6.63l-3.701,4.01l-0.828,0.189l-0.641-0.729
		l0.73-2.7l2.18-4.66l-1.25-4.189l-1.82-1.38l-2.66,6.05l-0.67,0.38l0.789-2.27l-1.59,1.84l-1.84,0.31l-2.1,2.78l-0.439,1.68
		l-1.58,1.841l-1.93-0.11l-2.311,0.61l-1.449-0.791l0.27-1.17l0.719-0.72l3.111-1.17l2.699-3.8l2.881-1.61l0.76-1.24l-1.451,0.58
		l-1.148-0.489l-2.621-0.051l-0.609,2.12l-1.27,0.48l-2.561-0.86l-2.381,0.36l2.33-1.19l0.08-3.01l-1.449,0.74l-0.91-0.34
		l-1.27,1.739l-4.58,1.24l-6.271-0.88l-1.67,0.08l-2.379-0.66l-3.65-0.03l-0.029-0.72l-2.48,1.39l-4.52,0.74l-1.281-0.84
		l-0.549-1.36l-0.371-2.02l0.811-1.42l2.789-2.19l3.191-3.38l2.459-1.49l-3.52-0.25l-3.98,0.25l-0.01-0.5l2.92-2.54l-0.58,1.3
		l0.561,0.61l1.141,0.101l2-5.5l0.809-1.11l1.951,0.31l1.219,1.011l0.531-0.011l-0.971-1.22l1.07-2.08l-1.891-0.399l-0.199-1.75
		l0.949-1.551l0.82-0.59l1.43,0.95l0.58-0.22l-0.949-1.521l-0.26-1.39l4.42-11.22l0.92-1.4l1.35-0.14l-1.061-1.181l2.191-2.239
		l0.43-1.171l-0.271-1.01l1.891-1.63l1.279-2.96l5.891-3.38l1.109,0.06l0.33,0.801l1.57,0.529l0.281-0.569l-0.371-0.7l0.311-0.28
		l1.301-0.25l0.609,0.49V931.015z M874.451,942.655l-0.84-0.01l0.219-0.851l1.211-0.22L874.451,942.655z M887.381,956.285l1.01,1.14
		l-2.74,0.92l0.08-1.6l0.699,0.32l0.551-0.87L887.381,956.285z M883.25,958.436l-2.08,1.279l-0.689-1.1l0.449-0.32l0.721,0.511
		l1.561-0.96L883.25,958.436z M886.18,987.415l-0.889,0.44l1-2.341l0.779-0.819L886.18,987.415z"/>
	<path id="CA-NS" fill="#1E3250" stroke="#1E3250" stroke-width="0.5" d="M824.531,1006.915l2.148-0.5l-0.029,0.45l-1.52,0.85
		l0.59,0.57l-1.08,1.149l0.301,0.58l1.148-0.569l1.73-0.05l2.49-2.791l-2.189,0.461l-0.25-0.301l1.43-1.35l-0.109-0.71l0.719-1.12
		l1.859-1.39l0.641,1.5l1.201-0.13l2.039,0.6l0.15,0.6l-0.76,1.2l0.949,0.7l-0.129,0.3l-1.561,0.79l-3.32,2.89l-2.57,0.82
		l-1.779-0.25l-3.689,0.47l-1.49-1.819l-0.41-2.891l0.129-1.52l0.641-1.431l1.51-1.71l3.32-6.42l2.68-2.64l1.461-0.061l-0.15,1.051
		l0.83,2.43l-1.34,4.21l-0.111,1.85l-0.738,1.271L824.531,1006.915z M795.75,1008.315l1.391-1.66l0.971-0.17l0.18-0.45l0,0
		l2.939,1.99l1.74-0.21l1.939,1.569l3.42-0.31l1.881,0.46l-0.439,1.18l1.469-0.16l0.92,0.5l4.73-3.149l0.699,1.97l0.9,0.75
		l1.07,0.17l1.48-0.569l1.27,1.449l0.609,1.69l-1.6,0.95l3.18,0.229l0.67,0.72l-0.619,0.74l-0.58-0.29l-1.061,0.26l-11.029,4.95
		l-4.641,1.62l-1.109,0.04l-1.35,0.859l-1.352,0.03l-1.318-0.54l0.529,1.75l-0.58,0.801l-1.891-0.381l-1.609-1.68l-0.91,1.97
		l-0.59-1.239l-1.07,0.459l-0.469,1.32l0.559,1.38l-0.529,0.53l-0.391-0.14l-0.811,1.479l-0.979,0.54l-2.541,3.41l-2.01,1.74
		l-1.33,0.01l-0.85,0.72l-0.131,1.46l-0.75-0.149l-0.479,0.529l-0.74-0.43l-0.871,0.24l-0.68-0.33l-1.33-2.9l-0.82-0.24l-0.529,0.9
		l-0.789-0.89l-0.602-4.101l0.84-2.79l2.08-2.52l-0.66-0.08l-1.828,1.75l1.119-1.58l0.939-0.67l2.701-0.82l1.02-1.01l-2.029,0.8
		l0.639-0.79l6.76-4.55l4.07-1.71l0.381-0.63l-0.371-0.4l1.051,0.36l-0.211,2.17l1.07,0.3l0.891,1.15l-0.42-1.57l0.799-0.89
		l3.092-1.19l2.58-0.13l0.828-0.55l-2.209-0.37l-2.619,0.2l-1.621-0.42l-2.23,0.27l-2.359-0.26l-1.311,1.09l-1.49-0.64l0.771-1.28
		l2.398-1.91L795.75,1008.315z M825.811,1012.735l-0.369,0.109l-0.711-0.97l1.52-0.12L825.811,1012.735z M778.191,1027.835
		l-0.451,0.44l1.02-1.681L778.191,1027.835z M836.34,1032.226l-2.24,0.41l-0.709-0.58l2.25,0.08l1.25-0.69L836.34,1032.226z"/>
	<path id="CA-NT" fill="#1E3250" stroke="#1E3250" stroke-width="0.5" d="M386.17,285.016l0.01,16.42l0,0l-3.72,1.18l-3.02-0.7
		l-3.71-3.35l-0.54,0.439l-1.85,3.94l-0.74,0.56l-2.17-0.359l-3.33-3.681l-3.82,1.091l-3.96,2.149l-1.55,0.4l-1.08-2.24l1.28-3.29
		l2.64-2.61l5.75-3.64l4.53-1.22l1.69-1.29l1.07-1.851l2.95-2.939l1.74-1.22l2.33-1.051l1.88,0.051L386.17,285.016z
		 M386.181,311.605v6.93l0,0l-6.7,3.06l-1.03,0.98l0.48,1.31l0.83,0.921l3.83-0.211l0.92,0.4l0.64,2.59l0.01,3.811l-0.73,4.17
		l-4.34,3.25l-1.89,0.819l-1.49-0.3l-1.49,0.19l-6.51,3.46l-2.01,0.02l-1.76-0.83l-2.43-3.27l-2.53-1.29l-2.14-2.29l-0.4-2.08
		l0.79-2.189l-1.46-7.601l0.13-2l0.74-2.229l3.43-1.25l4.48-2.801l9.84-3.52l2.99,0.33l1.31-0.69l2.41-0.29L386.181,311.605z
		 M351.851,325.955l-2.45,1.43l-1.63-0.029l-2.88-2.021l-3.34-6.22l-0.44-2.23l1.25-0.399l2.54-2.74l2.48-1.61l0.45,3.171l0.89,0.26
		l0.84,0.87l1.7,2.68l1.16,0.51l1.35,3.03l-0.01,0.8L351.851,325.955z M336.44,342.235l0.68,1.59l-0.28,1.31l-1.05,1.07l-5.29,3.55
		l-1.04,1.66l0.39,1.42l3.84,5.29l0.42,1.2l-0.92,1.22l-1.76-0.39l-1.28,0.67l0.17,1.07l1.95,3.529l0.63,2.86l-2.46,3.89
		l-2.22,1.311l-4.77,1.75l-0.41,6.06l-0.98,2.851l-1.73,0.96h-1.3l-3.13-2.73l-1.36-2.32l-0.24-1.55l0.49-4.899l1.66-8.181
		l-0.34-0.779l-0.56-0.04l-2.89,1.75l-0.88,0.93l-0.97,2.9l-0.53,4.449l-0.95,0.851l-1.42-0.021l-0.54,0.48l-0.07,1.89l1.4,1.771
		v3.149l-1.51,2.181l-1.64,4.97l-0.78,0.78l-0.78-0.091l-0.7-1.22l-2.46-6.819l-0.51,0.52l-0.61,1.77l0.08,4.631l-0.9,1.46
		l0.13,0.659l1.57,1.78l0.21,2.03l-0.1,0.56l-0.63-0.09l-1.14,2.55l-1.6,2.08l-2.22,0.25l-2.23,0.96l-1.38-6.729l-0.66-0.95
		l-1.21-4.939l-0.69-0.61l-0.46,0.72l-1.07,5.34l-1.74,1.36l-1.92,0.1l-2.39-1.449l-1.92-0.54l-1.34,0.62l-3.08,2.739l-1.19-0.25
		l-0.96-2.149l-0.05-0.811l0.89-1.84l-0.56-1.53l0.14-1.52l-0.82-0.011l-1.96,1.04l1.15-3.489l2.28-4.74l1.38-1.83l6.74-1.53
		l0.47-0.46l4.12-7.99l5.53-5.17l1.56-4.39l0.99-1.06l3.31-5.681l4.55-6.72l2.1-2.62l2.42-1.13l7.3-1.99l5.26,2.61l1.25,0.16
		l1.17-1.94l0.79,0.51l1.95,0.37l1.25-1.649l-0.56-0.75l-2.36-1.38l-0.09-1.37l1.83-2.641l2.9-0.779l1.33,0.199l1.38,1.11l1.8,2.29
		L336.44,342.235z M354.291,367.035l-1.36,1.28l-9.31-1.891l-0.75-1.399l1.69-2.21l2.04-0.96l4.74-0.771l1.65,0.87l1.71,1.89
		l0.26,1.641L354.291,367.035z M386.19,412.115v24.13l0,0l-3.44,1.271l-1.4,1.149l-1.85,3.15l-1.72,1.66l-7.06,4.609l-7.09,2.851
		l-4.46,0.5l-4.46-0.94l-2.89-1.97l-3.87-3.88l-0.97-2.25l0.58-1.5l1.62-1.74l2.42-1.58l4.83-2.15l4.38-3.46l1.55-0.649l4.21-0.53
		l2.13,0.33l2.55-0.66l3.7-3.77l1.61-2.36l0.41-1.11l-0.54-1.04l-0.79-0.149l-3.94,3.25l-1.43,0.06l-3.88,1.16l-0.37-0.03l-2-2.319
		l-1.07-0.41l-0.95,0.859l-1.36,2.33l-0.86,0.45l-6.82,1.36l-0.74-0.53l-0.45-0.99l-0.37-3.45l0.29-1.699l0.85-2.2l2.61-3.351
		l-1.09,0.141l-2.6,1.3l-1.24-2.09l-1.36,6.89l-1.04-0.37l-1.29-1.1l-0.48-0.15l-0.28,0.351l1.4,3.66l0.01,1.06l-0.86,1.85
		l-5.09,3.88l-0.97-1.149l-1.36-3.2l-1.2-0.47l-1.11,1.189l-0.64,2.471l-1.07,1.43l-3.71-2.54l-2.99-4.54l-3.27,0.71l-1.47-0.16
		l-4.46-1.67l-0.88-2.39l0.78-3.01l1.12-2.301l1.17-1.359l0.93-0.48l2.36-0.27l6.08-0.09l1.22-0.36l6.65-4.49l1.73-2.189l0.18-0.99
		l-8.18,3.58l-3.51,0.77l-5.37-0.58l-1.01-0.56l-0.23-1l1.71-3.66l1.53-0.939l3.7-1.341l4.94-1.189l3.24-0.03l2.72-0.94l1.63-1.079
		l-12.07,0.56l-2.84-1.78l-0.09-1.04l1.03-2.189l-0.54-2.11l0.17-0.82l1.23-1.77l2.19-1.92l1.35-0.271l2.61,0.66l7.43,0.68
		l1.44-0.239l-2.21-1.46l-6.92-1.551l-0.31-1.63l0.47-2.609l1.78-2.771l5.22-2.3l2.08-0.32l2.08,0.15l2.11,1.03l0.94,0.89l0.7,2.12
		l0.51,3.61l1.22,2.699l0.89,0.841l5.85-1.92l1.73,0.489l2.52,1.62l3.26,4.851l4.2,4.909l-0.02,1.051l-1.61,1.63l-0.3,0.7
		l0.22,0.479l4.55,0.44l2.45,7.619l1.01,1.521l0.99,0.78l1.46,0.06l1.47-0.45L386.19,412.115z M386.19,386.186l-2.19-2.351
		l-0.6-2.39l0.4-1.811l2.39-2.399l0,0V386.186z M311.55,410.655l-2.56,2.31l-1.82-0.239l-2.42-1.7l-1.97-0.58l-0.69-0.561l-0.1-0.59
		l1.5-2.939l5.39-7.591l4.39-3.26l3.44-4.39l1.06-0.101l1.09,0.58l0.12,0.83l-1.14,4.131l-5.38,12.949L311.55,410.655z
		 M286.92,404.665l-0.7,0.17l-0.78-0.41l0.18-0.93l1.75-2.56l-0.14-2.04l0.44-0.9l0.71-0.37l0.32,1.141l-0.38,3.38L286.92,404.665z
		 M298.931,460.985l2.38-2.91l2.38,0.11l0.5,0.989l0.28,4.98l3.35-5.78l1.79-1.729l3.09-0.73l2.1,0.021l4.04,1.13l2.83,1.99
		l2.23,2.289l8.9,11.44l2.9,2.63l1.11,1.49l0.92,2.439l-0.04,2.431l-1.01,1.51l-4.19,2.93l-4.4,2.181l-5.23,4.52l-3.58,2.141
		l-4.65,4.149l-8.77,6.601l-1.52,2.26l-2.48,7.399l-0.94,1.7l-2.28,1.73l-2.89,0.43l-0.81,0.48l-0.13,2.51l-1.54,6.92l-0.69,7.359
		l-1.58,3.54l-2.79,1.681l-4.86,1.609l-1.34-1.649l-1.14,0.08l-3.65,5.01l-3.52,2.01l-2.6,2.66l-2.29,0.1l-1.03-0.819l-1.64-2.65
		l-2.59-7.69l-2.92-5.229l-6.74-4.51l-4.81-3.98l-4.22,0.351l-0.7-0.521l0.7-2.189l0.05-2.431l1.6-1.33l-0.45-0.8l0.06-1.31
		l1.03-1.561l1.16-3.43l3.55-4.89l-0.39-1.7l0.54-6l0.35-0.601l3.12-1.91l0.16-0.56l-0.21-1.87l-1.33-0.53l-0.72-1.109l0.12-2.061
		l1.88-3.64l1.52-5.48l2.78-3.42l0.75-3.71l2.09-3.96l-0.68-1.91l-1.93-0.939l-0.93-1.46l-3.44-11.3l-1.2-2.61l0.12-0.7l11.01-2.93
		l7.58-0.94l7.85-2.569l2.19-0.15l1.69,0.51l6.82,5.92l5.48,3.29l3.42,0.69l-1.37,2.6L298.931,460.985z M386.19,496.766l0.02,84.3
		H363.8v2.34l-1.35,2.01l-2.02,0.03l-0.06-4.38l-37.42-0.021l-0.18,2.96l3.42,5.021l0.39,1.18h-1.84l0,0l-2.22-4l-0.82-6.52
		l0.54-1.21l5.21-1.971l9.19-2.17l8.4-1.47l3.81,0.13l2.25,0.69l6.33,0.47l5.14,1.02l3.33-0.779l0.68-0.561l3.64,0.07l1.35-0.95
		l-0.84-1.149l-3.48-2.53l-9.25-4.561l-5.48-2.01l-1.87-0.149l-3.27,0.569l-4.57,1.46l-10.31,0.95l-3.02-1.01l-5.96,0.54l-5.33-0.7
		l-6.07-7.03l-1.01-2.18l0.96-1.84l4.08-3.42l4.48-1.49l8-3.51l4.75-1.23l-1.38-1.16l0.01-0.88l0.57-0.42l2.21-0.45l2.35,0.54
		l1.17-0.189l0.34-0.601l-0.31-0.479l-2.23-1l-10.7,2.89l-4.99,0.271l-3.46,1.229l-1.9-0.04l-2.26-1.229l-0.34-0.88l0.7-1.65
		l2.42-0.99l1.22-2.8l-5.64,0.55l-1.9-0.26l-2.56-1.08l-1.07-2.21l0.39-6.37l3.18-5.3l1.98-1.11l1.39-1.68l-0.29-1.42l-2.11-3.45
		l0.96-3.16l7.38-8.949l2.65-2.53l2.55-1.37l3.57-2.93l9.15-4.9l8.19-4.96l3.01,1.31l0.86,1.03l0.71,2.09l0.68,4.94l-0.02,3.46
		l-0.5,2.96l-3.7,8.09l0.57,0.38l1.04-0.31l3.45-1.82l2.38-0.64l0.63,0.78l0.4-0.16l0.7-1.271l0.08-3.859l1.78-3.891l0.76-0.95
		l1.21-0.439l2.87,0.28l6.32,2.989l5.31,3.71l1.66,1.58l0.17,1.36l-0.94,2.89l-2.29,4.07l-2.55,2.35l1.2,0.62l0.78,1.04l3.26-4.58
		l0.42-0.12l0.1,0.301l-0.13,2.529l0.75,0.21l0.4-0.26l1.62-1.97l1.59-3.03l2.41-1.97l0.66-1.01l2.1-0.841l0.07-2.939l-3.2-3.11
		l-1.22-2.529l0.26-1.95L386.19,496.766z M290.451,592.325l0.04,38.73l36.64,29.119l36.64,27.67l16.44,0.11l10.34,12.68l2.7,1.891
		l2.17,0.71l62.52,11.46l-0.02,81.06l0,0h-71.7l0,0h-89.65l0,0h-34.24l0,0l-0.54-0.689l-1.18-0.11l0.12-1.439l-1.68-3.5l-0.37-2.391
		l-0.21-0.38l-1.38-0.38l-1.76-3.06l-0.11-0.711l0.95-1.6l-0.7-3.02l-2.01-0.15l-0.66,1.85l-2.43,0.29l-1.53,0.95l-3.45-0.88
		l-1.72-0.92l-0.93,1.5l-1.42-1.05l-0.55,0.18l-0.11,0.86l-0.56,0.449l-2-0.29l-1.3,0.7l-1.74-0.13l-0.76-5.21l-0.99,0.021
		l-0.34-0.36l0.59-1.04l0.05-2.05l-0.46-2.48l-0.84-1.779l-1.19-0.891l-2.77-0.39l-1.78-1.61l-1.67-1.739l-0.48-1.931l-1.43-0.979
		l-1.74-3.21l-1.44-1.591l-1.06,0.091l-1.21,0.93l-0.84-1.06l-2.05-0.12l-1.06-0.521l0.2-1.29l-0.54-1.43l0.48-1.521l-0.51-1.01
		l0.96-1.26l-2.7-2.1l-0.31-1.461l-0.85-0.76l-0.88-2.34l0.04-1.94l0.92-2.529l-1.93-0.65l-0.7-1.9l-2.04-1.77l0.29-0.84l1.76-1.74
		l0.54-1.6l-0.38-1.391l-0.79-1.22l-0.78-0.4l-0.43-1.199l-1.19,0.34l-0.53-0.51l0.39-0.681l1.24-0.72l0.03-0.41l-1.48-0.59
		l-4.26-3.47l-1.54-2.71l0.15-1.381l-1.73-4.3l-2.26-1.189l-2.04,1.62l-1.89-0.16l0.61-3.03l-1.47-0.9l-1.91-2.609l-1.92-1.271
		l-2.4-0.66l-0.12-0.67l0.86-1.22l0.07-1.56l1.29-2.11l-1.47-0.79l-0.22-1.62l-0.35-0.31l-1.15,0.37l-0.58-0.771l0.1-0.46l1.48-1.18
		l0.5-1.3l1.76-2.21l1.35-3.33l-0.9-2.57l-2.33-3.08l0.14-0.64l1.78-1.521l-0.02-0.52l-0.25-0.32l-1.01,0.1l-1.17-0.89l-1.86,2.23
		l-0.73,0.319l-0.59-0.439l0.46-1.49l-0.19-0.59l-2.61,0.5l-1.64,1.1l-1.88-0.41l-0.5-2.67l0.97-1.79l-0.13-2.41l-1.86-0.43
		l-0.09-0.47l0.54-2.55l0.77-0.29l0.17-2.53l-1.15-1.92l-0.38-1.87l0.1-1.94l-2.13-2.859l-0.22-1.38l-18.95-0.25l-0.48-1.681
		l0.05-2.14l1.01-2.85l-0.65-2.761l0.07-2.14l-0.57-2.02l-1.5-1.54l-0.4-1.91l0.02-27.851l0,0l2.88,0.32l2.29,1.23l4.52,3.37
		l0.93,0.3l0.25-0.25l-1.82-3.65l-1.82-1.25l-2.3-0.86l-0.27-1.64l3-0.39l0.13-0.471l-1.5-0.56l-1.5-1.56l1.96-5.04l0.69,0.51
		l1.03-1.17l1.85,0.74l0.34-0.41l0.23-2.58l0.8-1.09l2.58-0.46l3.22,0.46l0.33-0.25l-0.35-2.42l0.39-2.41l0.38-0.42l1.5,0.33
		l1.48,2.85l1.59,0.76l0.18,0.53l-2.64,6.48l4.31-2.931l4.76-1.67l1.21-1.899l1.01-3.11l0.67-0.54l2.81,0.189l1.1-0.399l-0.67-0.87
		l-0.8-0.14l0.72-1.03l1.39-0.36l0.91,1.13l0.62,0.08l2.06-1.25l4.42-4.27l1.07-0.16l0.92,0.61l0.71-0.16l1.88-3.79l2.34-1.98
		l1.5-0.43l2.9,1.51l2.06-0.13l1.93-2.67l0.49-0.02l1.23,2.319v0.82l-0.99,2l-7.27,5.67l-3.35,3.32l-9.91,3l-1.71,3.38l-1.81,2.399
		l-1.35,0.881l-1.84,0.34l-1.17,1.37l-5.39,9.04l0.63,1.84l1.36,0.74l0.53-0.17l-1.63-1.811l0.14-0.689l5.36,0.81l1.55-1.51
		l-0.09-0.36l-1.45-0.15l-0.31-0.659l-0.28-2.24l0.46-1.68l1.56-1.54l1.68-0.66l3.93-3.12l1.19-2.05l-0.3-0.771l0.28-0.77l2.02-0.75
		l1.97,0.66l0.36,0.52l-0.19,1.37l1.46-2.39l0.88,0.109l0.45,0.561l0.24,1.68l0.14,3.9l0.86-2.811l3.22-6.37l1.46-2.22l2.12-1.66
		l4.89-2.76l4.15-1.44l1.88-2.199l-0.36,2.38l-1.79,1.1l-0.18,0.84l0.5,2.15l0.42,0.41l1.8-1.29l4.18-5.44l0.97-3.88l1.64-1.4
		l2.97-1.6l0.73-1.02l-2.6-0.86l-0.62-0.95l0.49-0.92l-1.62-1.479l0.38-2.82l1.22-1.351l2.14,1.53l4.72,5.9l2.68,6.189l1.51,5.45
		l1.31,3.19l4.92,6.76l3.01,2.22l1.82,0.721l1.24,0.06l1.93-2l0.04-1.32l-1.7-3.75l0.1-0.939l1.13-1.811l0.16-2.5l1.09,0.29
		l2.79-4.49l-1.99-0.96l2.2-1.409l0.35-0.971l1.36-0.899l0.99,1.069l-0.25,5.03l0.58,3.931l0.52,0.85l2.01,1.15l-0.12,0.949
		l-3.07,5.84l0.5,1.171l0.79,0.369l2.03,0.15l0.56-0.35l4.67-0.42l1.5-2.74l1.33-1.15l1.23-6.21l1.08-0.939l1.54,0.27l6.41-0.2
		l4.83,1.05l5.1,2.98L290.451,592.325z"/>
	<path id="CA-NU" fill="#1E3250" stroke="#1E3250" stroke-width="0.5" d="M749.371,36.205l7.309,1.33l2.371-0.48l2.709,3.24
		l1.631,0.38l2.689-0.61l1.961,0.77l7.299,0.72l1.521,1.25l-0.021,1.51l-1.568,3.25l-2.121,3.11l-13.641,10.02l-1,1.65l2.66,0.52
		l3.92-0.45l3.041-1.1l3.58-3.38l1.18-0.19l2.279-1.65l4.41-4.64l3.52-2.53l1.592,1.11l1.34,1.76l0.91,0.2l1.67-6.43l1.16-0.97
		l0.709,0.11l1.15,1.77l2.449,7.04l0.631,0.05l2.68-3.25l1.35-0.42l3.07,1.18l1.279,1.43l0.23,1.52l-1.52,4.13l0.449,1.34
		l1.861,2.85l2.689,6.15l-0.02,2.24l-1.471,4.53l0.039,1.14l6.922-4.75l6.969,2.13l1.971,1.45l0.76,1.74l1.66,6.83l-0.59,4.1
		l-3.061,6.33l-3.189,4.84l-1.871,4.34l-2.869,2.37l-9.82,10.29l-4.801,3.27l-2.76,3.2l-1.24,0.55l-5.85-0.61l-1.549,1.75
		l-0.861,2.93l-1.84,1.39l-2.719,0.99l-5.57,0.8l-2.58,8.01l-15.91,11.48l-0.291,1.9l1.602,0.78l2.02-0.78l23.15-13.93l4.439-0.93
		l4.119,1.02l-0.469,3.28l-5.84,9.181l-7.43,8.14l-3.711,6.09l-9.391,10.34l-7.67,10.101l-2.949,5.06l-3.951,8.91l-1.35,2.13
		l-1.639,0.88l-1.932-0.37l-1.738-1.279l-5.102-7.681l4.48,14.091l-0.469,2.34l-7.49,2.45l-3.311,2.159l-1.711,0.521l-1.209-0.391
		l-1.18,0.221l-1.15,0.83l-0.061,0.92l1.02,1.01l2.98,0.79l6.631-2.67l1.059,0.189l1.701,1.301l0.08,1.18l-1.781,3.77l-5.359,4.471
		l0.701,0.25l1.539,1.569l-0.029,1.41l-2.49,4.36l-5.17,3.05l-2.25,0.71l-1.98-0.38l-9.07-6.69l-3.199-0.97l-3.041-1.71l-2.24,0.29
		l-2.379,1.98l1.07,0.989l4.389,1.891l3.67,0.37l1.521,0.729l2.18,5.64l0.25,2.36l-0.83,3.71l-0.609,0.87l-0.941,0.43l-3.58-0.31
		l-1.34,0.53l-1.549,1.27l-1.951,0.55l-3.51-0.25l-4.141,1.84l-2.189,0.341l-2.42-0.83l-2.631-2.061l-2.77-1.04l-4.689-0.88
		l0.391,1.18l1.648,0.5l3.361,3.16l1.609,4.25l1.51,0.71l3.09,3.46l2.23,0.54l2.33,1.17l3.279-1.51l2.211,0.28l-0.461,8.41
		l-0.969,0.81h-5.311l-2.52-1.21l-1.111-1.25l-2.449-1.42l-2.199,0.83l-2-0.18l-1.352,0.84l-2.148-0.03l-5.621,1.41l-2.969,0.02
		l-2.191-0.909l-2.549-0.28l-2.9,0.34l0.199,0.97l1.23,0.29l1.791,1.57l1.658,2.4l1.381,1.01l3.34-1.69l6.15-1.85l2.699-0.3
		l2.4,0.819l2.721,2.24l1.41,3.23l3.539,0.39l2.701,1.07l4.299,4.64l1.18,0.35l0.48,1.19l-0.91,2.96l-0.1,1.771l-2.98,3.42
		l-4.639,0.989l-5.102-0.319l-3.648,0.39l-0.381,0.43l2.51,0.891l5.811,3.95l2.25,2.13l0.389,1.239l-3.199,4.7l-2.83,9.2l-0.93,0.72
		l-3.461,0.09l-3.158,2.28l-2.381,0.46l-4.32-0.859l-4.99,0.05l-0.639,4.27l0.33,9.73l-0.262,4.01l-1.859,4.38l-1.879,1.79
		l-3.371,1.51l-2.4,0.061l-6.889,1.28l-3.371-0.08l-2.609-0.54l-2.701-1.79l-4.5-5.08l-2.529-1.79l0.051,1.1l1.35,2.851l2.02,2.649
		l-0.209,0.87l-1.99,1.36l-2.191,0.609l-2.59-0.02l-0.08,0.52l2.021,2.82l0.75,0.41l1.988-0.42l2.301-1.73l1.439-0.51l2.861,0.41
		l1.129,0.62l4.07,3.95l2.641-1.9l3.82-0.1l1.398,1.52l0.602,5.32l-0.4,1.81l0.879,1.76l2.17,1.71l1.682,0.37l3.01-3.31l0.77-0.561
		l0.73,0.131l2.6,4.989l0.141,3.811l-1.211,4.319l-1.48,2.82l-5.83,4.61l-3.15,3.67l-2.02,1.68l-3.969,2.24l-2.092,0.42l-4.51,2.4
		l-0.979,0.109l-1.461-0.39l-0.301-1.17l1.451-5.83l0.02-1.5l-1.27-2.351l-1.76-1.64l-1.74,0.32l-0.98,0.649l-1.049,0.12
		l-1.121-0.399l-0.949-0.99l-1.891-4.19l-0.711-0.54l-0.93,0.13l-0.83-0.6l-1.959-2.64l2.4,5.77l0.479,2.351l-0.219,1.84
		l-10.361,1.02l-4.449-0.529l-0.9-1.61l-2.129-6.96l-0.461,12.25l-7.76,1.97l-1.811-0.33l-3.02-1.35l-3.9-3.271l-1.619-2.18
		l-1.41-3.58l-0.971,2.63l-1.059,5.351l-6.041-2.721l-1.221-5.29l-0.068,7.65l-5.441-1.01l-2.609,0.29l-0.77-6.71l-0.131-7.5
		l-1.059,4.75l0.609,8.85l-2.311-1.37l-5.07-0.67l-1.799-0.67l0.629-13.01l6.531-6.59l1.92-3.15l1.42-1.271l2.24-0.81l2.859-0.5
		l1.949,0.39l2.23-0.38l2.67-1.2l1.9-0.34l0.359-0.42l-3.32-5.979l-2.219-0.641l-1.43-1.93l-3.131-8.49l-1.41-5.01l0.699-2.77
		l2.33-2.19l2.33-1.521l2.34-0.85l1.961-0.02l5.67,3.56l1.9,2.64l3.959,9.931l1.281,1.96l5.719,3.55l1.9,0.57l6.859-1.21
		l2.262-0.971l1.01-1.16l1.17-2.949l2.039-2.96l3.121-6.2l1.719-4.95l1.031-6.11l-0.971,1.28l-6.5,14.46l-3.15,3.69l-1.33,0.59
		l-2.15-0.18l-2.85-1.631l-3.359,2.591l-2.041-0.66l-1.809-1.811l-0.021-8.59l-2.289-6.97l2.529-3.561l2.102-2.22l3.729-5.82
		l0.82-0.06l2.701,0.92l-2.932-3.31l-3.229,0.51l1.139-12.811l-2.16,9.61l-3.539,7.47l-1.5,1.431l-5.66,1.229l1.391-4.609
		l1.279-6.87l-1.35,2.58l-3.189,3.85l-2.391,2.01l-1.971,1.061l-3.82-0.25l-1.898-1.92l0.539-4.74v-5.89l4.83-11.131l1.301-5.06
		l5.068-2.271l4.941-0.93l4.139-2.71l2.031-0.479l1.939,1.29l7.881,2.109l5.709,3.181l2.52-3.41l4.91,0.17l2.611-1.101l3.318-4.02
		l0.281-1.19l-1.25,0.04l-1.25,0.61l-1.871,1.77l-1.809,0.95l-1.84-0.18l-3.711-1.49l-6.459-0.27l-3.291-0.681l-1.529-0.72l-0.861-1
		l-1.398-3.52l0.34-1.421l1.309-0.819l1.141-0.17l3.871,3l2.229,0.239l-0.77-1.72l-4.801-6.43l-8-18.89l-1.6-2.591l-1.689-1.29
		l-5.15-1.609l-1.029-1.05l-2.461-5.181l-0.66-8.87l-1.08-5.479l1.041-7.09l1.709-3.25l10.291,2.529l4.34-0.38l5.551,0.9l2.979,1.75
		l3.41,4.31l3.041,4.82l2.93,3.2l2.689,4.34l2.939,6.38l3.23,4.88l2.02,1.58l3.811,1.99l3.32,0.649l1.721-0.26l1.84-1.439
		l1.309-1.71l-1.459-0.471l-3.82,0.2l-2.66-0.91l-3.119-4.76l-4.5-8.63l-4.23-5.64l-3.131-5.671l-2.51-5.439l-0.23-2.38l1.811-1.66
		l2.23-1.17l13.949-3.75l8.32-4.521l3.381-5.29l0.4-1.239l11.139-7.591l7.881-2.829l3.029-0.46l2.75-1.23l0.111-0.76l-2.4-1.04
		l-2.43-0.51l-5.512,0.029l-4.898-0.939l-1.48-1.721l0.779-5.26l1.48-4.1l1.59-3.101l6.73-9.04l4.529-3.85l1.311-2.68l-9.75,5.95
		l-3.4,4.26l-3.42,6.33l-1.77,1.85l-1.26-0.49l-1.131,0.59l-0.99,1.65l-0.83,3.01l-1.279,7.29l-1.939,3.811l-3.34,4.37l-7.83,6.06
		l-2.631,1.53l-2.26,0.24L634,191.515l-2.199,0.131l-2.43-1.021l1.039-2.92l3.871-5.42l1.029-2.43l-2.471,0.529l-2.52,1.49
		l-5.57,1.23l-2.199,2.21l-2.141,3.989l-1.709,2.49l-1.291,1.01l-1.779,0.601l-6.531,0.31l-1.449-0.26l-3.75-3.01l-3.33,1.04
		l-1.369-0.2l-2.521-2.141l-0.75-1.39l0.111-1.87l1.459-3.55l1.689-3.43l5.49-7.62l3.521-3.61l5.08-3.13l11.93-3.52l0.539-2.591
		l-12.07,2.9l-10.27,3.64l-1.67,1.33l-2.391,3.53l-9.83,15.73l-3.42,0.75l-2.619-1.061l-9.49-8.6l-1.811-4.79l0.861-1.54l6.76-3.34
		l9.18,0.649l4.119-0.689l4.051-2.03l5.98-5.08l6.51-7.21l1.27-2.32l-2.381-0.51l-1.76,0.57l-4.24,2.6l-6.699,6.93l-5.85,2.431
		l-14.451,1.29l-4.59,1.91l-2.01-0.41l-1.52-1.86l-1.689-3.47l0.299-2.79l3.441-3.15l2.699-0.739l0.48-0.65l-3.83-3.07l-0.34-1.58
		l2.209-3.51l4.791-5.21l2.42-1.65l4.439-1.06l4.57,0.57l0.18-1l-4.52-2l-3.381-0.37l-4.479,1.41l-11.881,8.48l-1.01-0.25
		l-1.73-1.45l0.5-2.09l6.35-8.98l0.211-1.43l-4.561,0.2l-1.34-0.43l-1.311-1.08l-1.859,0.96l-2.41,2.98l-1.699,1.27l-0.99-0.43
		l-2.52-3.53l0.328-2.98l3.842-6.48l2.488-2.5l4.051-3.15l2.93-1.07l4.75-0.03l2.26-1.41l4.531-6.5l2.76-2.79l4.51-2.3l3.801,0.74
		l2.1,2l1.67,3.5l1.789,2.66l0.17-2.15l1.48-2.66l1.859-1.14l2.24,0.38l1.961,1.27l2.539,3.21l2.051,1.43l0.969-0.09l1.211-1.77
		l3.211-0.04l-1.121-2.61l-1.27-1.33l-11.381-9.36l-0.309-2.07l3.84-1.95l2.398-2.34l1.131-0.57l4.65-7.65l3.4-3.01l1.359,0.82
		l1.721,2.65l1.658,1.65l4.881,1.57l2.09,1.63l5.201,12.26l2.119,3.06l1.26,1.15l2.49,0.73l0.26-1.72l-2.959-4.31l-0.811-2.51
		l0.35-2.14l0.631-1.13l0.908-0.1l2.33,1.91l6.201,6.44l9.27,7.53l3.551,1.74l6.17,8.06l0.369-0.21l-1.83-4.95l-4.49-6.17l-12-10.71
		l-4.75-5.7l-2.299-3.89l-1.74-3.96l-0.031-2.18l1.631-2.56l2.199-2.04l2.74-0.81l0.33-0.85l-2.49-3.08l-1.469-2.68l0.049-1.87
		l2.971-1.44l1.84,0.43l3.5,3.39l2.92,1.59l0.471-1.03l-3.02-9.05l-0.281-2.06l0.451-1.21l1.059-1.23l3.17,0.71l5.211,4.46
		l9.33,2.22l2.57-0.33l-0.391-1.02l-3.721-2.75l-3.898-3.71l-1.721-2.25l-2.76-5.6l-0.121-1.23l2.41-1.99l6.33,0.39l5.881,3.06
		l4.99-1.11l3.139,0.76l1.24,0.92l2.27,3.31l7.211,11.82l2.461,8.44l1.229,1.02l2.381-2.58l1.6-2.51l-0.689-2.44l-3.98-5.64
		l-2.891-6.57l-4.469-7.48l-1.941-6.52l12.371-2.85l11.93,2.52l1.939,1.78l4.43,9.97l3.861,5.75l5.5,3.55l-1.051-2.41l-4.109-6.33
		l-1.859-4.38l0.34-5.27l0.648-1.59l4.66-6.1l6.66-1.85l0.77,0.34l5.182,9.36l2.459,3.78l1.721,1.51l0.07-0.66l-2.381-4.25
		l-1.83-2.33l-0.189-1.46l3.039-4.56l1.92-1.15l8.07-1.34l0.92,0.49l0.77,1.27l1.91,5.021L749.371,36.205z M548.6,159.266
		l1.172,4.84l4.328,11.35l1.961,4.061l3.33,5.01l0.41,1.79l-0.061,3.39l0.951,0.97l2.869,1.511l3.189,2.71l0.57-0.15l1.109-1.6
		l1.342-0.44l1.75,0.391l0.84,1.149l0.91,3.811l-0.631,1.8l0.51,2.5l-0.629,3.79l0.17,1.38l1.609,3.42l1.449,1.7l2.871,1.84
		l1.869-0.13l1.16,1.16l-0.5-2.88l-1.119-3.091l-2.08-1.6l-0.461-4.94l0.18-2.069l1.061-1.681l0.9-0.54l2.68-0.079l1.48,0.75
		l2.549,2.34l0.441,9.819l-2.182,2.801l-0.479,1.89l5.32,2.66l1.129,0.17l2.02,7.67l-1.5,11.7l-1.35,4.1l0.471,0.45l2.85-0.98
		l2.48-2.75l2.799,0.561l0.941,0.63l0.459,0.85l1.551,6.221l0.52-0.32l1.301-4.29l1.119-2.1l5.51,14.08l0.189,2.109l-2.219,3.66
		l-7.189,5.16l-3.221,2.899l-2.42,2.971l-1.73-0.34l-0.391,0.369l-1.1,5.07l-4.811,8.73l-2.189-1.4l-0.549-2.04l-0.342-6.55
		l1.182-7.13l-1.891,2.35l-1.109,2.9l-0.021,8.7l-0.209,2.25l-0.58,1.109l0.23,0.86l2.02,1.71l0.18,3.55l-0.51,1.92l-0.961,0.78
		l-1.229-0.87l-2.65-4.76l-1.15,0.26l-0.289,0.55l1.059,5.49l0.15,3.13l-1.129,6.65l-0.801,2.449l-1.32,0.061l-1.129-1.09
		l-8.441-17.73l-0.35,2.61l4.17,12.06l0.939,3.32l0.15,1.37l-0.32,0.54l-3.109-3.42l-1.369-2.36l-0.99-0.96l-1.441-0.66l-1.449-0.13
		l-1.459,0.41l-0.281,0.62l2.211,2.689l0.709,2.721l-0.539,0.939l-2.041,0.59l-2.719-0.369l-4.41-1.29l-4.391-2.141l-4.051-3.35
		l-2.93-3.38l-1.16-1.811l-0.359-1.359l1.1-1.19l3.84-1.53l3.85-0.989l-0.609-0.86l-7-1.96l-2.299-0.36l-1.23,0.521l-1.41-0.3
		l-1.1-1.561l-2.201-4.95l0.1-0.77l0.551-0.44l3.17,0.38l0.439-0.3l-1.58-1.49l-5.068-2.97l-1.9-2.64l-0.35-1.03l-0.08-2.02
		l1.91-2.03l5.879-4.83l2.02-0.76l2.031-0.05l1.42-1.4l1.219-4.64l6.092-1.681l4.699-2.109l0.391-0.57l-3.521,0.39l-4.979-0.42
		l-2.121-3.21l-1.439-0.55l-1.59,0.03l-1.85,1.01l-3.16,2.979l-1.521,0.69l-3.43,3.06l-0.959-0.22l-0.621-0.96l0.621-2.03l0.9-1.39
		l-0.182-0.479l-1.35-0.29l-1.561,0.06l-1.078,0.48l-3.951,2.689l-2.311,2.18l-1.91-3.14l-3.049-1.729l-0.68-1.36l0.629-5.35
		l0.891-1.11l2.34-0.91l7.02-4.93l1.061-3.471l-1.6,0.54l-3.52,2.431l-2.9,1.21l-2.291-0.01l-1.68-0.351l-1.061-0.68l-1.269-1.55
		l-4.15-7.21l-1.13-3.53l-0.45-5.53l-1.2-5.81l8.891,3.62l3.479,0.68l6.711,0.24l0.311-0.351l0.25-4.479l2.869-2.811l-2.939-0.35
		l-5.4,3.52l-1.91-0.029l-2.16-5.04l-2.309,0.89l-1.091-0.4l-2.529-2.39l-0.771-2.55l0.54-2.01l1.99-1.48l0.899-0.14l2.37,0.949
		l1.781-0.069l-5.401-10.11l0.17-7.59l1.851-1.62l1.91-0.27l1.871,1.939l2.51,0.271l1.789,2.17l1.189,4.149l1.422-0.079l2.229,0.779
		l5-0.06l-0.898-1.48l-1.551-1.29l-3.529-1.7l-1.721-6.13l-3.65-3.189l-2.859-1.681l0.049-1.42l2.15-7.819l2.59-2.811l4.131,1.061
		l2.719-1.5l3.5-2.811l3.432,1.3l0.879-0.119l0.52-0.86l0.461-3.19l-1.529-3.149l-4.371-0.24l-1.939-0.69l-0.75-0.939l-0.35-4.39
		l0.479-1.431l1.07-0.6l4.08-0.08l2.441-0.82l2.67,1.08l5.58,4.04l1.799,2.05l1.92,3.41L548.6,159.266z M486.69,222.255l0.02,9.99
		l-0.46,2.44l-0.94,0.649l-2.45-1.899l-0.75-1.12l-0.28-2.811l-1.64-2.42l-3.06,0.391l-1.28-0.23l-0.51-0.72l-0.62-5.29l0.65-4.78
		l2.25-2.439l0.64-0.21l2.75,0.92l2.44,0.119l1.22,0.681l1.09,1.53L486.69,222.255z M445.141,255.465l2.1,0.98l2.49,3.09l2.35,6.49
		l0.04,3.2l-0.74,2.72l1.21,1.229l0.17,2.96l1.36-2.51l0.28-3.609l3.76-3.25l0.91-0.44l1.51,0.45l3.63,4.56l1.38,0.431l0.96,1.579
		l-0.99,5.351l0.17,1.03l1.89,0.859l4.32-1.729l3.77,4.22l2.09,4.97l1.55,1.66l0.24,0.89l-0.88,3.141l-1.5,2.479l0.66,2.021
		l0.2,3.99l1.69,1.04l3.86,7.09l0.7,1.96l0.48,3.26l-1.49,6l-4.42,1.4l-2.66,1.279l-2.86-1.649l-2.79-2.521l-0.84-1.66l-0.88-2.81
		l-0.43-3.97l-1.18-1.851l-1.04-2.779l-2.01-0.24l-4.76-2.84l-2.04-0.681l-2.04,0.2l-2.89,1.15l-1.04-1.16l-0.44-1.4l0.37-2.84
		l-8.48,2.28l-2.41,2.63l-3.39-0.42l-1.69-1.11l-2.25-2.52l-1.99-5.19l-0.09-2.27l0.77-1.54l0.8-0.92l0.83-0.29l4.6,1.79l4.03,0.91
		l1.74-0.91l0.79-2.45l-0.94-1.32l-3.88-0.54l0.83-1.3l3.28-1.34l1.71-2l-1.32-1.51l-4.4,0.239l-1.58-0.79l0.27-1.51l2.5-4.12
		l-0.1-0.75l-2.37-3.33l-2.18,1.58l-3.06,6.061l-0.73,0.87l-0.7-0.051l-0.67-0.97l0.01-1.27l2.1-6.28l-0.1-1.69l-1.39-1.13
		l-3.65,0.851l-2.03,0.029l-0.31-1.34v-4.899l1.21-6.62l0.43-1.03l4.84,0.61l7.91-1.8l2.31-0.19L445.141,255.465z M509.88,292.065
		l2.12,1.18l3.65-0.52l4.75,3.869l1.041,1.771l0.25,2.01l-3.41,3.65l-0.551,1.649l2.029,2.061l1.031,1.83l0.48,2.64l-1.371,3.59
		l-1,1.05l-1.539-0.109l-0.73,0.32l-1.961,1.67l-3.049,1.58l-4.17,0.649l-3.2,2.561l-1.4,0.25l-0.67-2.261l0.4-2.09l-0.67-1.09
		l-2.99-2.1l-1.74-2.931l-0.33-1.75l3.87-0.55l1.66-0.6l0.86-1.521l-3.39-2.25l-4.45-1.2l-0.21-1.399l-1.85-2.811l-0.18-2.68
		l-1.66-1.92l-0.56-2.13l0.02-1.83l2.29-1.84l-2.06-6.09l-0.38-3.721l1.08-1.43l5.52,0.4l1.91,0.6l4,2.88l3.13,1.521l1,1l1.88,3.17
		l0.08,2L509.88,292.065z M386.181,301.425l-0.01-16.42l0,0l1.69,1.66l1.57,2.65l1.23,0.439l0.33,0.69l0.94,3.35l0.24,3.78
		l-0.49,3.19l-0.84,0.899l-2.01,0.561L386.181,301.425z M448.931,309.135l-1.03,0.881l-1.2-0.511l-0.07-1.979l1.34-2.74l1.96-1.12
		l0.93,2.33L448.931,309.135z M386.181,318.535v-6.93l0,0l3.11,0.45l0.34,0.97l-1.37,4.29L386.181,318.535z M460.67,328.405
		l-1.23,0.39l-2.23-0.2l-2.67-1.51l-0.72-1.779l0.09-4.69l4.75-0.81l2.5,0.319l4,2.66l1.32,2.2l0.4,1.8l-3.55,0.25l-1.68,0.45
		L460.67,328.405z M516.33,324.375l2.25,1.62l2.451-0.86l2.629-0.09l5.85,0.69l3.871-0.46l2.529,1.31l1.541,3.351l-1.891,1.279
		l-1.83,6.78l-1.76,0.09l-0.859,0.51l-5.131-0.909l-14.15-0.41l-2.479-4.59l-0.11-1.5l0.74-2.94l4.58-3.45L516.33,324.375z
		 M434.991,351.235l-1.37,0.71l-4.52-2.34l-3.06-6.94l-1.71-7.12l-0.9-1.58l-0.31-2.63l-1.64-4.149l0.27-0.61l1.55-0.61l2.47,0.78
		l2.67,3.95l2.53,5.64l0.46,3.63l1.66,0.23l2.04,3.09l0.79,3.61l-0.35,3.51L434.991,351.235z M566.99,346.135l-2.34,2.32
		l-1.199-0.08l-6.861-4.76l-1.379-2.37l-0.34-3.88l0.32-5.26l1.17-1.5l1.58-0.471l3.76,1.11l2.25,1.41l2.99,4.29l1.068,2.03
		l0.23,2.63l-0.16,2.77L566.99,346.135z M527,360.385l1.68,0.341l1.432-0.53l1.229,0.12l1.82,1.59l1.68,2.43l1.711,1.65l0.26,3.95
		l-2.99,8.54l4.83-6.65l2.5,0.67l3.76-0.5l4.551-2.32l2.16-0.359l2.18,0.17l1.619,0.729l3.461,3.12l1.199,1.48l0.561,1.81
		l-0.711,1.19l-6.959-1.73l-0.41,0.43l0.25,1.641l0.73,0.359l4.289,0.351l14.08,5.16l0.59,1.64l-0.16,0.72l-1.52,1.87l-8.119,1.17
		l-4.621-1.029l-3.879-1.671l-1.32,0.37l1.15,2.261l2.33,0.689l1.949,1.33l0.811,1.11l4.129,0.85l1.961,3.061l1.08,0.17l1.07,1.529
		l0.879,2.62l0.41,0.351l1.24-0.471l2.09,2.261l0.65,1.21l-0.461,2.31l-0.939,1.91l-2.369,2.24l-0.182,0.67l2.771-0.261l0.51,0.301
		l3.26,3.949l0.43,0.07l0.27-0.41l0.311-1.39l-0.43-4.4l0.609-0.819l1.25-0.4l0.68,0.48l3.301,4.789l4.23-2.279l1.709,3.26
		l1.561-3.82l0.971-0.95l3.969,4.54l2.42,1l2.76,2.03l2.551,0.4l0.42-1.67l-1.471-2.15l0.861-0.95l3.51-1.83l1.869,0.261l3.461-2.61
		l3.42-0.311l5.289-4.59l0.74-1.43l1.68,0.22l4.551,2.261l1.289-0.211l6.631-2.81l1.789,0.08l7.932,2.74l1.059,0.739l-0.199,2.41
		l1.551,0.94l4.238,0.04l1.84,0.47l1.82,2.41l-0.059,0.71l-1.441,1.85l0.23,0.391l4.689,0.64l0.691,0.43l1.369,5.471l-0.01,1.25
		l-1.119,2.13l-3.07,2.819l-3.41,2.33l-0.221,0.601l1.09,1.109l1.121,0.49l4.219-1.13l1.25,1.08l1.111,2.49l-0.961,1.29l-3.91,1.6
		l-2.311-2.1l-0.779-0.461l-0.52,0.181l1.779,3.68l-0.57,1.58l-0.068,3.14l-0.512,2.551l-8.5,0.5l-3.42,2.159l-1.809,0.86
		l-1.182,0.13l-4.25-2.09l-2.879,0.17l-1.75-1.19l-1.131-2.17l-0.529-2.149l0.131-4.21l-1.051-0.4l-1.67-1.939l-1.029-0.57
		l0.109,1.83l1.299,1.58l0.211,1.27l-0.471,3.21l-1.24,2.86l-0.809,0.67l-2.211,0.05l-3.379,1.65l-1.621,0.24l-2.17-0.391
		l-1.359-0.75l-1.73-2.09l-0.449-0.09l-0.23,2.67l-0.42,0.35l-0.73-0.04l-1.119-0.83l-0.92-1.93l-0.291,0.01l-0.619,2.21l-2.371,1.2
		l-1.32,0.01l-1.379-1.38l-2.07,0.88l-3.5-1.46l0.58,2.28l-0.93,0.35l-5.32-0.789l-2.051,1.069l-7.439-0.8l-0.699-0.52l-0.51-2.021
		l1.959-7.29l-1.75-1.6l-1.32,1.02l-0.859,2.96l-0.66,0.86l-0.801-3.39l-0.359,0.05l-0.689,1.39l-0.51,0.33l-0.691-0.25l-0.029,3.64
		l-0.59,0.961l-2.66,1.84l-2.561,0.21l-1.529-0.41l-3.1-1.67l-1.721-0.08l-2.07-2.82l-1.639-0.649l0.779-3.5l-2.24,2.779
		l-0.299,0.881l0.26,2.05l-1.84-0.591l-1.881,0.4l-1.051-1.479l-1.84-1.511l-0.809-1.699l-1.91-8.881l0.08-0.729l0.939-1.01
		l-0.141-0.79l-2.43-3.721l-0.551-2.38l-0.02-3.859l3.07-9.03l-1.039-6.87l-4.701-9.91l-3.43-9.02l-0.9-0.46l-1.039,0.24
		l-2.25,1.829l-0.941,1.45l-6.43-0.35l-1.82-0.561l-1.359,0.15l-2.33,1.34l-2.49-0.25l-1.559-3.74l-3.531-2.02l-1.049-1.14
		l-0.721-1.561l0.24-1.02l2.01-0.92l1.24-1.83l-1.99,0.71l-0.88-0.13l-5.989-5.17l-2.16-1.381l0.02-2.529l1.78,1.45l0.8,0.109
		l1.25-0.43l0.44-0.91l-3.311-3.61l-0.38-0.97l0.49-2.31l0.66-0.53l2.76-0.78l2.83-1.81l1.901-0.65l1.889,0.1l4.59,1.86L527,360.385
		z M567.951,376.175l-0.42,0.521l-1.352-0.271l-0.449,0.511l-1.709-1.391l-3.512-8.18l0.281-2.08l1.029-0.88l2.451-1.05l1.68,0.029
		l2.27,3.73l-0.121,1.56l-1.02,2.74l0.16,2.69L567.951,376.175z M386.181,436.255v-24.13l0,0l8.21,1.17l0.73-0.3l0.52-0.96
		l0.43-2.96l-0.41-2.71l-7.63-5.98l-0.67-2.43l3.73-3.41l0.22-3.27l-0.51-1.33l-2-2.54l-1.77-0.38l-0.85-0.811l0,0l-0.01-8.95l0,0
		l1.24-1.64l4.72-9.21l2.15-2.04l2.39-0.37l2.49,2.471l0.55,0.149l0.23,0.65l-0.41,2.229l-1.1,2.78l0.07,0.85l0.61,1.94l0.42,3.74
		l2.86,4.14l0.63,3.65l-2.32,4.409l-0.04,1.83l1.98,0.461l1.32-0.41l1.49,0.279l1.15,2.311l-0.28,2.04l-2.38,4.97l0.62,0.311
		l0.3-0.211l1.93-2.76l1.45-0.87l1.1-0.2l1.81,0.551l1.49,1.689l1.23,6.04l0.2-3.74l1.83-1.34l-1.18-1.96l-0.23-2.91l1.51-2.67
		l1.33-1.09l1.18-0.26l4.41,1.9l2.44,2.35l1.36,7.32l-0.35,4.109l-1.42,4.71l-0.22,3.17l-1.43,7.8l-2.06,3.57l-4.44,2.57
		l-3.34,2.609l-1.72,0.45l-2.77-0.859l-3.21-1.66l-1.83,0.47l-1.82,1.2l-2.22,0.16l-2.48-1.55l1.06-1.091l-0.29-0.59l-1.48-0.85
		l-6.02,6.29L386.181,436.255z M464.86,373.405l-2.32,0.17l-1.07-0.46l-0.07-0.68l0.93-0.9l3.09-1.46l1.82-2.68l0.68-0.33l2.38-0.38
		l3.16,0.72l-4.28,3.31L464.86,373.405z M496.46,377.745l-0.34,5l1.87,5.8v2.7l-0.74,2.12l-0.33,2.729l0.43,4.721l-0.83,1.77
		l-1.76,1.54l0.25,0.811l4.08,2.38l-0.02,4.34l0.66,4.729l-0.25,0.091l-2.6-3.23l-2.02,3.271l0.23,5.52l1.33,2.44l0.27,2.22
		l-1.51,0.189l-1.15-1.1l-0.67-1.66l-0.42,0.86l0.13,0.81l0.78,1.48l0.33,1.76l-1.5,0.95l-1.56,0.02l-3.66,0.91l-1.18-0.43
		l-2.88,0.08l-1.53-1.17l-0.85,0.2l-1.85,2.079l-5.45-0.829l-1.1-2.051l-1.14-4.25l0.21-1.08l2.76-0.579l0.06-0.37l-5.25-3.54
		l0.17-2.12l3.88-1.95l2.82-3.85l1.75-1.57l0.13-0.76l1.48-0.79l3.42-0.48l0.13-1.08l-6.46,0.62l-8.84,2.2l-2.73,1.08l-2.28-0.63
		l-10.1,3.39l-1.01-1.069l-0.87-2.021l0.62-1.41l2.84-2.68l1.42-2.36l-0.17-1.279l1.13-2.28l1.81-0.32l3.08,1.88l1.6,1.851
		l1.43,0.869l1.27-0.17l1.31-1.3l-2.56,0.54l-1.4-2.28l-0.81-2.649l0.67-2.73l-2.56-0.59l-0.96-1.24l-0.44-1.55l0.9-2.5l2.17-2.52
		l-0.25-0.7l-3.16,0.06l-0.7-0.33l-1.35-1.58l0.3-1.75l2.21-4.1l0.64-0.47l0.99,0.01l2.35,1l2.48,3.04l0.75,3.77l8.52,10.641
		l0.77,0.77l1.39,0.57l1.47-0.64l0.11-0.67l-2.59-2.58l-1.21-3.271l0.24-0.609l0.75-0.211l1.9,0.25l2.23-0.51l-2.48-0.8l-1.62-1.06
		l-1.66-0.051l-2.07-1.699l0.51-1.08l2.82-0.761l0.58-0.8l-1.77-1.78l-4.27-1.399l-1.52-1.57l-0.64-1.47l0.55-1.86l2.29-2.34
		l1.67-1.12l2.86-0.819l2.28,0.1l1.3,0.31l3.04,3.971l1.43,2.59l2.5-0.46l-1.19-5.74l2.8-3.08l1.64,1.03l2.61,3.56l3.83,2.18
		l0.74,0.87L496.46,377.745z M439.791,373.266l0.44,0.21l2.25-0.91l1.24,2.399l4.78,3.41l0.16,0.7l-0.44,1.01l-2.05,2.19l-1.44,0.7
		l-7.16,0.109l-0.78-0.319l-1.96-7.86l-0.08-2.56l0.76-0.921l2.65-1.39h1.17l0.73,0.351l0.3,0.71L439.791,373.266z M455.891,394.766
		l1.97,2.79l-2.78,1.63l-0.94,0.96l-1.4,3.25l-3.26,0.609l-3.33-0.029l0.63-2.15l1.82-3.521l-1.43-1.46l-5.09,2.44l-1.93-1.5
		l1.65-3.85l-3.96-0.37l-1.47-2.29l0.5-2.761l11.23-4.869l3.32,0.17l1.29,0.96l0.84,7l0.58,0.319L455.891,394.766z M663.541,398.056
		l0.1,2.159l-0.65-0.1l-2.07,1.41l-1.689,0.2l-0.84-0.631l-0.541-1.479l1.32-2.771l4.861-6.97l1.469,1.48l-0.91,3.01l-0.99,1.49
		L663.541,398.056z M524.92,404.516l-0.879,0.02l-1.141-0.76l-1.34-5.91l0.551-0.87l0.85-0.1l1.85-1.45l0.6,0.93l1.57,6.74
		l-0.301,0.81L524.92,404.516z M511.01,413.155l-0.7,1.18l-0.72,0.09l-0.97-1.109l-1.05,0.42l-2.34,4.04l-1.2,0.41l-0.52-0.37
		l-0.95-3.15l0.34-1.49l4.121-2.649l0.85-0.82l0.54-1.74l1.99,1.49l1.659,2.13L511.01,413.155z M533.74,430.146l0.58,2.63
		l0.131,3.28l-0.98,6.399l-3.689,0.83l-4.932,0.25l-1.459-0.18l-0.961-0.61l-4.318-4.56l-5.191-1.24l-2.049-3.51l-0.78-0.63
		l-0.79,1.05l-1.04-2.73l-1.56,0.311l-0.36-1.44l0.3-2.33l1.641-3.939l1.82-1.011l0.56-2.14l-0.06-2.03l1.529-3.04l2.54-3.029
		l5.57-3.351l1.541-0.29l2.059,0.25l1.98,1.07l4.65,6.12l1.42,2.61l2.27,7.46L533.74,430.146z M438.92,429.855l-1.69,0.189
		l-2.92-1.05l-2.27-3.01l2.14-7.11l1.57-2.25l1.15-0.6l2.43,0.189l2,1.91l0.94,4.181l0.92,2.31l-0.19,1.66l-1.34,2.069
		L438.92,429.855z M517.93,447.965l-1.209-0.02l-3.01-1.5l-0.66-1.07l1.709-1.84h1.352l1.41,1.729l0.67,1.551L517.93,447.965z
		 M499.561,447.266l-2.69,2.029l-0.84-1.5l2.99-3.909l1.12,1.689L499.561,447.266z M537.07,459.396l5.24,2.56l3.26,3.59l5.311-1.8
		l4.859,0.6l4.131,1.87l1.52,1.4l0.93,1.28l-0.24,1.41l-1.65,4.43l-1.779,3.359l-1.52,1.671l-2.83,7.02l-2.73,2.11l1.15,1.279
		l-0.301,1.53l-2.949,7.061l-2.949,4.909l-1.051,0.82l-1.41,0.25l-8.5-2.52l-2.131,0.04l-5.67,1.319l3.951,2.681l1.779,3.29
		l0.34,1.77l-0.189,2.33l-2.83,4.979l-1.5,6.54l-0.949,0.811l-3.17-1.24l-4.58,0.89l-1.66-0.43l0.229-4.45l-0.75-9.51l-2.658-8.4
		l-0.49-3.13L515,474.445l0.57-1.04l1.641-0.86l3.5,2.22l1.609,0.74l1.07-0.029l-1.791-1.671l-1.459-2.85l-0.67-2.45l0.119-3.359
		l1.32-1.83l2.189-1.45l2.211-0.89l4.881-0.601l1.379,0.43l2.109-1.6l1.25-0.38L537.07,459.396z M491.36,468.915l-2.58,0.68
		l-1.19-0.289l-1.13,1.27l-1.41,0.16l-2.91-1.61l-1.07-1.08l0.64-0.979l3.06-1.271l0.9-1.359l0.77-0.46l2.09-0.44l4.7-2.29
		l3.25-0.13l0.35,1.21l-0.86,2.15l-3.52,3.779L491.36,468.915z M475.84,466.415l7.57,6.9l9.02-2.78l2.87-1.97l2.24-0.26l3.2,1.409
		l1.01,1.721l0.9,2.689l0.09,1.271l-1.39,2.359l-2.14,0.891l-0.85,1.189l-0.96-0.319l-0.26,1.079l0.36,0.98l1.04-0.54l1.07,0.23
		l1.08,1.88l-0.38,1.08l-4.69,3.17l-5.2,7.439l-0.55,1.36l0.05,1.29l0.08,0.52l0.49,0.21l1.67-1.8l2.16-1.3l2.72,0.24l1.44,1.08
		l1.32,1.659l0.3,0.601l-0.73,1.62l1.26,0.83l1.39,2.26l0.09,1.37l-0.77,2.25l0.28,0.46l2.32-1.79l1.77-0.79l1.16,0.44l0.87,4.39
		l-0.24,3.52l-1.48,2.73l-1.46,0.58l1.19,1.51l0.68,1.96l-0.229,1.72l-1.33,2.91l1.27,2.271l0.101,3.859l-2.99,1.21l-2.47,3.381
		l-2.14,1.119l-1.08,0.131l-5.37-0.931l-0.92-1.51l-0.35-3.92l-1.22,2.27l2.04,6.101l0.29,3.33l-1.92,2.58l-2.25,1.31l-1.08-0.32
		l-1.81-1.56l-1.62,0.07l-0.51-0.561l-1.61-4.79l-2.97-5.689l-5.3-7.11l-2.41-4.32l-1.01-0.979l-2.48-0.71l-0.98-2.03l-1.04-1.12
		l-0.99,0.12l-1.61,1.03l-2.02-1.09l-2.24-5.07l-3.84-3.24l-2.75-5.109l0.19-2.37l1.22-4.13l1.93-2.631l1.18-0.409l2.52,0.63
		l0.78,1.2l0.72,2.3l1.89,1.82l1.73,4.149l0.69,0.74l1.66,0.25l5.4-1.8l0.38-1.03l0.42-5.18l1.5,2.38l0.35,0.26l0.54-0.5l0.28-1.72
		l-1.25-4.061l-0.88-1.02l-1,0.25l-0.76-0.55l-0.04-1.841l0.87-1.76l0.88-0.33l1.03,0.33l1.42,1.351l0.9,0.3l1.27-0.391l-1.62-0.8
		l-2.26-3.14l-0.97-0.59l-1.98,1.859l-2.71,0.75l-5.03-4.87l-0.65-1.739l0.54-1.5l1.25-1.21l3.11-0.881l1.09,0.9l2.98,3.85
		l-0.77-3.979l-1.57-1.19l-1.52-2.5l-0.09-3.199l0.43-0.45l3.87-1.23l2.7,1.36l1.71,0.2l0.71-1.67l-0.25-0.33l-1.92,0.42l-0.66-1.45
		l0.79-1.29L475.84,466.415z M596.07,553.955l0.359,0.61l2.051-0.771l6.07-3.75l4.92,0.011l0.84,0.399l-0.58,1.63l0.16,0.55
		l1.59,1.57l0.721-2.52l1.029-9.641l0.131-4.16l-0.352-1.29l-1.26-0.77l-2.609-0.07l-1.869-1.029l-2.301-4.851l-2.83-3.47
		l0.439-1.03l2.84-2.31l1.25-3.311l0.75-0.54l2.721,0.44l6.59,5.07l-0.57-1.45l-2.65-2.78l-1.779-3.479l0.279-0.631l1.49-0.649
		l0.191-0.74l-2.031-0.88l-2.75,0.69l-1.66-1.141l-2.459-5.46l-0.311-3.53l0.27-2.93l2.08-3.83l1.131-0.28l2.439,1.04l6.57,3.74
		l-0.16-1.2l-7.35-5.069l-2.6-1.311l-0.641-1.85l3.91-7.141l3.609-1.689l1.791-2.101l2.93-0.09l2.75,1.33l-1.189-2.88l0.1-0.63
		l1.559-1.5l2.861-1.771l3.5-1.409l1.59-1.261l1.65-0.449l4.09-0.221l2.299,0.21l3.061,1.08l1.791,1.96l1.5,4.91l0.779,5.19
		l1.129,2.14l1.82,1.18l1.26,1.28l0.701,1.38l0.1,5.94l1.439,3.39l1.381,1.4l-0.41,1.59l-8.131,12.1l-0.1,1l4.301-5.3l1.34,0.19
		l-0.82,3.33l-2.141,3.77l2.24,3.12l-0.379,0.42l-0.99-0.21l-0.701,0.7l-0.039,4.77l1.1-0.62l3.73-6.38l1.83-1.76l0.59-0.16
		l2.08,1.08l-2.01-4.56l0.6-1.83l1.891-1.54l0.479,0.22l1.111,3.15l0.629,0.52l1.4-0.67l0.93-1.58l2.9,3.511l-0.07,6.699l2.08,3.261
		l1.711,1.439l-0.33-1.57l-0.791-1.079l-1.359-3.73l0.381-4.82l1.08-2.529l2.42,2.109l2.799-0.02l3.5,2.95l1.881,0.06l-0.17-1.2
		l-1.42-0.58l-5.311-3.58l-1.49-2.229l-0.279-1.05l0.549-3.011l3.781-3.479l2.219-1.12l4.461-0.33l3.24,0.46l1.75,0.771l4.559,3.689
		l0.91,0.33l2.281-0.46l1.16,0.15l3.68,2.71l1.559,3.06l0.721,3.19l-0.109,1.27l-3.061,5.45l-1.33,0.92l-3.41,8.37l0.9-0.82
		l1.99-4.96l4.049-4.189l2.191-1.09l1.869,0.1l2.85,0.88l1,0.84l0.48,2.87l-0.92,2.771l-5.17,3.359l-2.801,0.47l0.121,0.5l2.08,0.69
		l2.32-0.229l-1.15,2.97l-0.35,1.87l0.25,2.76l-1.74,4.92l0.35,0.35l2.131-3.35l1.43-6.95l1-1.8l0.75-0.69l2.379-0.279l1.32-1.92
		l1.131-0.61l1.43,0.71l-0.061,0.76l-1.391,3.431l-2.949,5.51l1.199-0.63l3.141-4.55l0.82,1.76l1.26,1.31l0.75,2.98l1.951,2.529
		l-0.102-1.869l-1.059-3.78l0.289-1.521l3.371-3.97l2.879,2.021l1.939-0.12l4.391,1.41l3.721,2.75l1.139,1.699l1.311,3.49
		l-0.289,1.11l-1.59,2.56l-1.762,1.67l-2.359-0.51l-0.73,0.29l-3.219,4.28l-3,2.96l2.869-0.05l2.721-4.961l2.389-0.92l3.33,1.971
		l1.65-0.08l1.26-1.98l1.971-1.62l1.381,1.561l0.299,4.12l-1.1,3.01l-2.33,3.21l-1.52,1.2l-3.531,1.72l-1.289,2.1l-1.439,1.5
		l1.059,1l0.4-0.029l1.461-2.96l1.24-1.25l0.459,0.1l0.891,1.29l-0.031,2.01l-1.34,7.9l1.041-2.15l2.99-9.92l1.16-1.69l2.6-2.56
		l4.27-2.479l1.211-0.42l1.379,0.289l0.9,1.33l3.641,0.07l7.549,5.13l0.791,1.92l-0.051,1.12l-1.07,1.78l-1.439,0.84l-1.791,1.83
		l-5.309,1.63l-2.361,1.69l-3.25,3.12l0.031,0.739l1.299,0.36l1.051-0.47l1.449-2.15l1.361-0.83l5.059-1.24l1.262,0.091l0.488,1.529
		l-2.549,4.38l1,0.681l1.369,0.3l2.281-3.23l0.879-0.18l1.439-1.07l0.182-0.43l-0.971-0.85l-0.08-0.521l1.109-2.68l0.74-0.88
		l0.551-0.07l1.83,0.94l4.811,7.47l1.309,5.19l-0.439,1.779l-1.029,0.25l-4.211-1.46l-1.92,0.19l-1.52,1.02l-0.9,1.7l-0.74,0.521
		l-2.67,0.02l-1.5,0.521l-3.5,1.949l-0.209,0.91l1.578-0.16l2.602-1.18l2.439-0.33l4.08,2.601l1.34,0.399l1.65-0.49l4.369,0.49
		l1.65,0.99l3.01,2.78l0.34,3.05l-0.25,0.58l-0.859,0.39l-4.74-0.8l-1.359,0.45l-2.52-0.84l-1.551-1.211l-2.33,1.15l-1.869-0.75
		l-1.91,0.66l-3.781,2.72l0.42,0.47l5.18-2.33l1,0.141l4.23,2.52l0.721,0.681l0.01,2.62l-1.18,3.72l-3.951-1.49l-1.129-0.17
		l-2.461,1.01l-4.42-1.55l-1.109,0.08l4.221,2.71l4.818,0.68l1.102,0.73l0.52,0.54l0.039,1.6l0.99,1.601l0.891,0.649l2.529-0.649
		l1.801,1.29l2.27,0.779l3.121-0.14l1,0.34l0.26,0.29l-0.43,0.51l-2.111,1.23l-0.32,1.17l1.811,2.67l-0.83,3.609l1.74-1.52
		l0.59,2.27l0.51-1.81l-0.23-2.42l0.9-0.96l2.85-0.73l-0.559,5.771l-1.25,3.26l-1.041,1.05l0.771,0.631l0.459,0.05l0.439-0.511
		l1.061-2.51l2.15-2.63l0.391-0.06l-0.291,2.71l0.99,0.83l1.459-1.521l1.73,0.44l-0.289,4.819l1.25,2.141l-0.371-3.73l0.24-1.12
		l3.15-3.51l0.779-0.41l0.49,0.28l0.781,1l-1.711,2.34l-0.41,1.62l0.451,0.86l1.709,0.08l1.721-1.33l0.99,0.649l3.33,4.48
		l1.229-0.75l1.521,2.09l-2.041,1.65l0.621,3.46l-6.201-0.07l0.99,0.811l1.91,0.34l0.17,1.04l4.66-0.181l0.109-1.199l2.08-1.44
		l2.471,0.96l2.469,2.35l-1.09,1.4l-0.869,3.45l-3.971,4.62l0.59,0.04l6.041-2.931l1.74,0.391l0.52-0.511l2.959,1.11l2.301-3.24
		l1.391,0.63l6,8.431l-0.07,0.899l-1.98,1.141l-1.76-1.8l-1.619-0.91l-0.98,0.1l-0.98,0.69l4.221,3.149l0.68,2.03l0.049,0.89
		l-2.619,1.341l-0.84,0.08l-1.811-0.641l-1.939-1.63l-1.6,0.09l1.32,2.03l-1.15,1.979l2.609,1.75l1.961,1.78l0.289,0.71l-2.27,0.65
		l-3.1-0.63l-0.301,0.399l1.58,1.561l0.59,2.46l-0.93,0.63l-1.119,1.76l-0.441,1.82l-1.01,0.17l-0.41-0.34l-1.359,0.55l-1.791-0.76
		l-2.6-4.271l0.34,3.15l-2.068,0.75l0.01,0.29l2.809,0.96l-0.229,8.33l-0.34,2.37l-1.842,4.04l-1.17-1.29l-1.42-2.55l-1.49-0.271
		l-0.809,1.19l-1.74-2.261l0.68-4.89l-1.789,3.18l-0.762,2.9l-4.959-7.44l-0.6-2.25l-2.031-4.26l0.211-1.27l1.73-2.58l1.369-1.07
		l1.6-0.6l1.621-3.91l0.979-1.771l1.061-1l-0.529-0.189l-1.35,0.859l-3.131,4.641l-3.689,1.83l-3.68-0.051l-0.59-0.51l0.299-1.46
		l1.801-2.62l-0.291-0.18l-1.5,1.57l-1.859,0.21l-1.301-1.63l-2.41-1.631l-2.109-4.039l-0.67-2.141l-1.779-1.62l-0.25,0.12
		l0.41,1.69l-0.971,0.489l-1.01-0.17l-1.051-0.83l-0.09,1.11l1.131,1.97l0.02,2.48l-0.32,0.26l-1.289-0.16l-1.711-1.85l-2.77-2.01
		l-0.131,0.51l1.602,4.439l4.67,5.19l-0.801,1.74l-0.699,0.569l-1.791,0.181l-2.49-0.96l-1.17-1.07l-1.689-2.56l-2.801-2.65
		l-2.59,1.09l2.531,0.601l2.238,2.09l0.17,0.88l-0.559,0.979l0.029,1.23l0.631,1.479l0.639,0.95l1.98,0.75l0.25,0.43l-0.789,3.28
		l0.16,1.261l1.969-1.311l1.32-0.39l1.52,1.2l0.861,2.279l1.66,0.92l-1.961,2.021l1.42,0.92l1,1.28l0.859,3.39l0.74-0.19l0.51,0.42
		l1.201,5.48l0.549-3.91l3.691,3.09l0.129,0.551l-0.82,1.06l0.781,1.16l0.559-0.26l1.102-2.351l0.818-0.83l1.531,0.681l2.289,3.09
		l0.73-0.42l1.41,1.989l-2.279,2.641l3.139-0.101l0.75,0.521l0.18,1l-1.238,2.76l-2.641-0.31l-0.77,0.149l0.119,0.36l2.08,1.271
		l1.779,2.979l-0.18,1.21l1.43,0.39l2.98-0.39l-0.07,1.37l-1,0.92l1.451-0.05l0.539,0.43l1.48,3.87l-1.35,0.54l0.559,4.36
		l-0.139,3.97l-1.35,0.37l-2.41-7.08l-2.32-3.33l0.92,3.2l0.76,5.46l-0.58,1.39l3.551,6.76l-0.711,0.681l-1.051,0.14l-2.369-1.42
		l-0.27,0.39l1.039,4.53l-0.029,1.08l-0.52,0.38l-4.16-4.74l-1.51-1.239l-0.84,0.46l-3.5-3.92l0.209,1.989l-0.25,0.301l-1.67-0.711
		l-2.16-4.71l0.17,3.66l-0.5,0.14l-0.68-1.84l-1.811-1.851l-0.391-1.21l-1.449,0.23l-0.73-0.71l-5.67-7.9l1.531,6.26l-1.031-0.529
		l-3.639-3.771l-2.24-1.79l-3.271-0.53l-0.469,0.98l1.09,2.18l3.719,4.87l2.092,3.58l2.029,1.16l2.15,0.4l-0.551,1.659l3.32,1.881
		l3.471,4.18l3,1.92l3.26,5.79l2.699,1.8l-0.42,1.38l-0.949,0.67l0.67,3.601l-2.381,0.83l-4.299-2.711l-3.391-1.149l-2.32-1.5
		l-9.82-2l-5.289-3.25l-2.16-2.87l-1.609-3.37l-0.531-0.45l-1.75-0.45l-2.43,0.65l-1.48-0.12l-3-2.07l-2.059-0.81l-2.73-1.81
		l1.43-2.341l-2.76,1.551l-0.84-0.471l-2.42-2.399l-2.141-3.34l-1.23-1.221l0.17-0.27l3.221-0.29l1.42-1.37l0.67-1.37l-1.189-0.13
		l-1.9-2.41l-1.01-0.38l-3.461,0.32l-0.6-0.391l1.041-3.359l-2.471,1.53l-0.43-0.11l-1.611-4l-2.109-1.99l-3.199-4.45l-1.65-1.359
		l1.641-3.811l-1.271,0.17l-1.92-0.59l-0.91,0.71l-1.629-0.21l-0.359,2.34l-0.271,0.58l-0.75,0.271l-0.59-3.811l-0.67-0.42
		l-2.299-0.35l-1.551-3.76l-0.42-0.141l-1.18,0.72l-0.92,0.091l-0.031,0.56l2.5,4.36l-0.49,1.26l-3.34,0.83l-2.34-0.7l-1.43-1.05
		l-2.039,0.34l-0.461,2.75l-3.15,0.32l-2.59,1.51l-1.389,0.03l-1.461,1.229l-1.189,0.091l-1.5-0.69l-3.4-0.6l-2.02-1.311
		l-1.191,0.07l-2.549-2.88l-1.371-3.45l0.91-5.771l0.91-1.76l1.061-1.07l3.84-1.89l0.779-0.75l-0.889-3.41l1.199-2.09l0.68-0.21
		l1.41,0.69l2.83,0.369l2.67,0.95l5.859,3.061l2.762,3.64l0.158,0.91l-0.789,2.29l1.23,1.34l0.85-3.53l-0.791-1.93l-2.93-3.36
		l-0.229-0.87l0.809-0.39l3.51,0.88l1.352-0.2l1.648-2.09l4.371,0.21l0.93-0.56l1.381-1.86l2.219-0.71l3.93,0.68l-0.09-1.25
		l-1.66-4.859l-2.568-2.41l-2.182-2.98l-1.119-1.859l-0.141-1.55l0.371-0.91l3.959-3.34l3.131-3.33l2.719-3.79l2.221-1.21
		l0.779-3.53l1.42-3.37l3.801-2.36l1.301-2.789l-0.131-0.7l-1.061-1.33l-3.34-11.03l-3.029-7.05l-2.371-3.851l0.391-2.189
		l-0.199-0.26l-3.031,1.779l-1.58-1.659l-0.529-1.62l0.869-3.63l-0.359-2.65l-1.01-0.62l-1.24-0.1l-0.4,0.35l1.361,3l-0.211,0.74
		l-2.52,0.18l-1.371-0.95l-2.02-3.14l-0.469-2.49l-0.971,0.311l-0.76-0.301l-0.16-0.369l1.5-2.24l-0.65-0.57l-0.98-0.109
		l-0.26-0.511l2.131-2.109l-1.24-0.511l-2.24,3.131l-0.98,0.779l-1.34-0.97l-0.85-0.32l-0.59,0.21l-0.9,1.62l-5.48,3.96l-1.51,0.881
		l-1.629-0.16l-0.281-1.511l0.531-6.21l1.58-1.08l2.619,0.66l1.211-0.12l2.559-3.21l0.18-1.35l-1.25-2.68l-2.33-1.721l-3.238-1.399
		l-0.512-0.72l-0.5-1.211l0.041-1.909l0.471-0.75l2.049-1.08l-1.699-0.641l-0.801,0.07l-2.049,2.86l-1.551-0.98l-0.93-0.15
		l-0.98-0.92l2.33-2.39l0.09-0.78l-0.93-1.279l-2.42-0.771l-2.35,0.48l-0.871-0.24l-1.629-10.311l-0.611-0.229l-2.818,0.74
		l-1.131-0.271l-3.039-3.3l-1.881-2.93l-1.33-3.17l-0.779-0.601l-2.51,3.271l-0.531,2.17l0.52,0.76l2.961,1.25l0.75,0.84l1.43,5.03
		l-0.391,2.45l-2.459,2.229l-1.891,0.8l-1.9,0.19l-5.799-2.83l-2.01-0.38l-2.541-1.09l-1.391-0.12l-2.439-0.91l-4.129-0.53
		l-0.83,0.44l1.1,1.22l0.959,0.61l0.83,0.01l1.191,1.09l2.439,3.45l0.76,2.06l-0.73,1.051l-5.76-5.5l-5.15,2.64l-1.389,0.11
		l-7.67-4.49l-3.41,1.16l-2.941,0.05l-5.939-1.11l-2.18-0.75l-1.289-1.17l-4.691-0.87l-3.119,1.96l-3.75-1.8l-1.109-1.06
		l-1.441-3.79l-0.15-1.641l0.92-3.069l-2.75,1.989l-3.75-0.569l-0.439,0.319l0.971,1.99l-1.57,0.41l-2.369-0.42l-1.031,0.18
		l-1.969,1.92l-0.561-0.14l-4.49-5.08l-2.34-0.76l-1.66-1.4l-3.23-6.399l-1.459-6.461l-0.76-1.81l6.818,0.45l1.602,0.41l1.859,1.27
		l2.42,0.91l1.74,0.19l5.949-1.19l0.371-0.66l-3.881-2.649l-2.689-2.801l-1.689-0.52l-4.74-0.36l-4.391-1.33l-3.029-1.8l-3.48-3.09
		l-0.75-3.49l-1.221-10.39l0.84-2.91l2.4-3.18l0.061-0.5l-1.48-0.96l-0.32-1.19l-0.139-3.5l0.51-2.979l4.119-10.101l1.189-9.29
		l2.23-4.47l1.939-1.87l0.5-2.84l4.801-6.06l4.039-4.061l2.221-1.17l6.311-2.39l3.25-0.67l4.08,0.149l7.529,1.351l0.91,0.949
		l0.561,1.82l-2.311,3.76l-4.279,4.49l-2.861,4.67l-5.639,13.61l-0.24,4.45l2.99,7.88l-0.17,9.949l1.1,6.5l1.629,3.681l4.471,6.14
		l4.109,4.43l0.5,1.271l-3.42,3.53l-4.84,1.779l-2.1,1.851L596.07,553.955z M659.291,475.775l1.529,0.42l9.68-0.78l2,0.58l7.68,4.69
		l1.801,4.51l2.211,1.439l0.908,1.74l0.781,2.94l2.51,2.41l-0.18,2.55l1.969,3.569l-0.84,1.16l-1.949,0.681l-5.5-0.71l-7.369-1.61
		l-4.291,0.46l-7.35,3.34l-3.281,0.47l-2.869-2.13l-1.391-2.01l-1.869-10.21l-0.98-0.65l-2.92-0.779l-1.42-1.98l-0.42-2.97
		l0.221-1.34l0.559-0.36l-0.818-1.63l-0.281-1.8l0.09-4.13l0.771-1.17l3.139-0.25l2.621,1.869l2.07,0.181L659.291,475.775z
		 M428.44,498.655l-0.45,0.15l-0.85-0.7l-5.71-7.95l-0.98-3.35l-3.1-3.42l-3.55-2.091l-0.25-0.96l1.06-2.81l1.95-3.07l9.88-2.24
		l1.74-0.04l1.82,0.73l2.51,3.1l1.04,0.351l0.62,0.7l0.84,2.319l-0.6,7.22l-1.52,4.461l-1.59,2.439l-0.3,1.57L428.44,498.655z
		 M324.75,590.195h1.84l-0.39-1.18l-3.42-5.021l0.18-2.96l37.42,0.021l0.06,4.38l2.02-0.03l1.35-2.01v-2.341h22.41l-0.02-84.3l0,0
		l3.51,3.24l2.27,3.05l2.11,1.47l1.38,2.181l-0.24,1.739l2.15,1.341l4.29,19.1l0.79,5.07l2.36,2.43l1.01,0.36l1.13-2.561l3.05-2.95
		l-0.27-1.92l0.63-0.25l-2.12-3.779l-1.37-3.61l-0.88-4.5l-0.27-4.15l-0.98-2.31l-0.02-2.01l-2.72-15.74l0.31-2.39l2.4-1.061
		l-1.27-2l-0.11-0.689l0.54-1.41l2.77,0.62l5.44,4.26l1.46-2.61l1.1,0.311l3.1,2.16l3.59,3.84l2.41,1.88l1.69,2.54l1.87,4.229
		l-0.13,1.45l0.96,3.18l0.8,6.551l3.19,12.75l4.41,11.55l0.27,5.5l-1.86,6.96l0.43,1.88l3.12,3.77l1.91,4.49l3.31,3.57l2.6,1.58
		l1.95,1.71l0.5-0.19l0.18-0.68l-0.73-2.1l-0.05-0.83l0.35-0.15l2.68,3.59l6.82,6.33l0.47,0.28l2.34-0.1l1.02,3.789l3.71-0.329
		l0.95,0.97l1.2,6.33l-0.23,3.99l-0.42,0.92l-0.55,0.289l-1.55-0.279l-1.09-0.79l-1.31-3.63l-1.47,3.93l-1.91-1.02l-2.89-2.801
		l-1.49,0.86l-2.22,2.46l0.55,2.5l-0.25,1.21l-0.52,0.57l-2.68-0.34l-3.94-3.11l-0.95,1.05l3.73,4.43l0.08,2.66l-0.72,4.13
		l2.12-3.46l3.92-3.439l2.65-0.29l0.95,0.58l0.63,1.47l-0.82,1.78l0.19,2.01l0.48,0.55l1.08-0.1l0.75,1.47l-0.61,3.96l-5.66,3.37
		l-2.24,0.59l-1.41,1.03l-2.4-0.13l-2.74,0.5l-5.37-1.41l-2.56-1.56l-1.96,1.399l-4.79-1.2l-0.57-0.87l1.32-2.43l0.02-0.72
		l-7.04-1.81l-1.82,0.14l-2.35-1.18l-0.64-0.75l-0.18-3.971l-1.6-1.58l-1.07,0.091l-1.76,2.35l-1.59,4.21l-3.64,4.479l-3.8,1.19
		l-4.5,0.49l-1.68,0.93l-3.53,3.41l-4.72,2.05l-4.36,1.141l-7.97,1.27l-0.98-0.39l-1.53,0.14l-1.64,1.14l-15.32,1.48l-0.97-0.311
		l-0.93-1.01l-2.9-5.71l-0.56-1.76l0.22-3.021l-0.91-5.899l-3.4-1.42l-2.24-0.45l-7.5,0.11l-4.12-0.461l-4.33-1.38l-3.9-2.45
		l-0.65-2L324.75,590.195z M504.701,498.155l-1.45,0.3l-1.34-2.149l0.21-4.101l0.49-0.84l1.37-0.98l2.37,3.551l-0.649,3.46
		L504.701,498.155z M522.721,795.745l-64.81,0.01l0,0l0.02-81.06l-62.52-11.46l-2.17-0.71l-2.7-1.891l-10.34-12.68l-16.44-0.11
		l-36.64-27.67l-36.64-29.119l-0.04-38.73l0,0l4.86,4.76l2.57,0.971l8.82,2.159l6.93,5.391l7.78,3.229l1.8-0.06l5.39,0.88l3.27,1.08
		l-1.72-3.01l0.07-0.4l2.75,0.4l0.47-0.73l0.69,0.021l3.26,1.14l4.02,2.26l3.35,2.57l3.6,4.77l1.13,2.851l1.14,0.88l-0.51,2.25
		l-0.67,0.96l-1.6,0.46l-4.4-0.54l-0.78,1.81l-2.46,1.521l-0.54,1.15l0.18,1.569l-2.33,2.271l-0.07,0.5l2.7,1.979l1.09,0.301
		l1.38-0.171l5.29,1.95l3.35,0.57l12.46,0.59l2.39-1.16l5.93-0.609l3.44-1.561l0.33,0.58l1.48,0.18l5.54-3.88h1.4l1.28-0.93
		l1.23,2.5l0.94,0.521l1.8,3.159l3.64,0.07l1.67,0.91l0.79,4.63l0.88,1.68l1.23-3.76l0.31-0.55l0.6,0.189l1.09,2.69l1.3,1.87
		l3.21,3.42l0.71,2.17l-0.74,1.55l-2.06,1.03l-1.11-0.16l-1.36-0.8l6.59,9.32l2.52,4.33l1.98,2.09l-4.04-7.69l-0.13-5.56l0.89-0.44
		l1.14,1.53l0.72,0.13l0.15-0.4l2.2,1.511l-1.72-3.96l0.58-1.12l-1.79-2.21l-0.76-1.71l-0.69-2.601l-0.05-2.95l-2.73-4.439
		l-0.04-2.811l1.75-2.1l0.31-1.24l-0.62-1.87l2.59-0.529l0.57,0.229l2.88-1.41l1.81-0.14l1.18-0.74l1.1-1.71l2.19,0.37l0.18-2.87
		l1.19-1.55l1.25-0.16l1.79-1.3l1.36-2.04l0.28-1.61l-0.22-0.46l-1.42-0.62l-4.71,2.94l-0.76,1.36l-0.58,2.51l-2.2-0.72l-0.83,0.3
		l-1.8,1.7l-1.36,0.189l-2.88-0.84l-1.1,1.1l0.57,2l-0.51,0.7l-5.28,0.471l-3.54-3.461l3.63-7.64l4.9-0.94l2.96-0.979l11.4-5.72
		l3.29,1.37l1.01,0.909l1.31,2.711l1,6.39l0.46,1.08l2.48,2.81l0.52,0.25l0.75-0.55l0.43,1.45l1.28-0.03l1.04,0.521l-0.07,1.96
		l1.56,2.06l2.63,0.771l2.62-0.24l2.19-0.67l1.64-1.101l5.67,6.271l4.67,2.78l2.36-0.42l1.56,0.189l2.95,1.23l6.27-2.5l3.01-0.46
		l0.57-0.5l6.12,0.58l2.7,0.729l2.92,1.43l2.03-0.05l2-1.28l2.56-0.649l-0.5-1.15l-2.11-2.62l-0.15-1.819l0.79-0.73l1.94,2.01
		l4.34,6.591l2.9,1.88l1.37,0.33l1.62-1.16l1.07-1.42l0.14-1.65l-0.6-1.399l-3.05-2.521l-1.73-0.42l-3.33,1.79l-0.74-0.48
		l-2.76-4.659v-0.351l1.02,0.41l0.05-0.41l-2.42-5.58l1.63-0.45l2.24,1.57l3.8-1.7l-1.05-1.51l-0.13-1.81l0.87-0.221l1.69,1.24
		l0.82,0.17l1.23-0.53l1.3,1.061l2.59,4.8l3.13,0.12l1.77-1.46l-2.609,6.55l1.71-0.58l0.819-2.109l4.211-2.37l-2.051,12.689
		l-1.55,3.86l0.021,1.03l1.649,3.13l0.39,2.41l1.16,0.02l2.62-1.06l0.221,0.42l-0.74,2.64l1.98-0.71l1.26,1.38l-0.029,3.271
		l-0.75,0.76l-2.391,0.3l-2.25-1.19l-0.68,0.58l-1.08-0.1l-1.21-1.66l-0.649,0.42l0.569,1.431l4.25,5.649l0.65,1.16l0.23,1.66
		l0.4-1.66l-2.451-4.09l-0.189-1.53l0.58-0.34l3.109,0.82l1.211-0.181l0.811-0.58l0.41-0.71l0.85-6.49l-1.83-8.109l-1.531-2.21
		l-0.148-0.79l1.699-6.75l0.689-0.82l1.34-0.1l0.98-0.57l2.371,1l1.049-0.7l3.23-3.76l4.09-5.99l2.471-1.689l1.82-1.86l-1.75-0.35
		l-0.342-6.28l-0.75-2.05l-0.779-0.771l-0.391,0.45l-0.859,4.021l-0.66,0.89l-3.709,1.04l-0.971-0.81l-0.119-0.69l0.34-2.69
		l4.289-5.29l0.02-0.319l-1.26-0.01l-0.299-0.381l-0.271-2.27l0.271-1.83l0.879-0.71l4.811-1.91l-1.801,4.17l0.641,0.67l2.85-3.77
		l-0.949-0.181l0.039-2.51l-1.049-0.979l-3.281,1.85l-2.289-0.22l-1.33-1.58l-1.92-3.4l-0.711,0.01l-0.979,1.841l-4.211-2.301
		l-2.65-2.279l-3.379-1.221l-1.38-1.8l-3.351-6.63l-0.529-2.25l0.05-3.1l2.22-4.92l1.57-1.341l0.67-0.159l1.52,0.489l-0.98-1.83
		l0.91-2.09l-2.69,1.521l-0.64-0.11l-0.9-0.979l-1.7-3.53l0.7-7.16l-0.49-1.58l0.931-1.37l-0.23-1.76l1.57-2.77l1.88-2.101
		l1.24,0.58l1.779,1.82l0.83,0.26l0.611-0.5l1.42-4.35l-0.35-0.391l-2.941-0.25l-0.51-0.33l-0.379-1.33l2.299-3.189l0.93-2.61
		l2.781-3.649l4.18-2.29l1.59,0.12l0.59,1.83l0.109,1.93l1.531,2.399l4.469-0.04l0.57,0.671l-0.15,2.989l4.541,5.021l2.02,3.52
		l0.74,2.061l0.59,5.35l-0.189,4.22l-0.689,1.75l1.779,1.48l1.27,2.16l2.561,2.29l1.27,3.81l1.48,2.76l0.02,2.301l0.57,0.47
		l0.51-0.25l0.949-1.25l0.941,1.13l1.359,3.21l-0.471,0.8l-2.17,0.4l-2.35-0.98l-1.52-1.85l-0.27,0.12l-1.711,3.47l0.59,0.54
		l2.861-0.04l1.35,1.2l-2.76,3.83l-5.41,5.8l0.76,0.43l2.77-0.819l1.631,0.27l0.729,0.5l-0.25,0.49l0.441,0.8l2.66,1.85l1.68-0.369
		l3.049-2.671l1.631,0.12l0.459,0.2l-0.17,0.43l-2.42,2.431l1.361-0.45l3.029,0.71h2.539l1.941,1.02l0.309,0.471l-2.408,0.75
		l-0.58,0.899l-0.66,2.591l-0.631,0.59l-1.01-0.25l-0.471-1.05l-1.439,0.409l-0.17,0.42l4.42,4.53l1.41,3.98l0.971,1.63l-0.541,1.53
		l0.26,3.229l-0.57,5.25l3.311,5.28l2.75-5.67l0.121-3.3l0.91-2.721l1.039-6.92l3.471-6.06l0.729-0.351l1.271,0.08l3.76,5.221
		l3.709,3.59l1.631,2.57l0.689,2.529l1.221,6.41l0.129,2.49l-0.709,2.359l-1.961-0.069l-1.109-2.13l-1,1.229l0.301,8.12l1.059,4.38
		l1.781,3.311l4.459,6.329l0.73,3.271l0.529,0.85l0.83-0.149l3.07-4l1-1.07l1.17-0.46l1.09-1.4l0.76-5.43l0.691-2.06l3.988-6.49
		l1.99-9.01l-0.119-3.261l0.49-2.279l1.779-2.54l1.939,0.81l3.65-0.79v-0.42l-2.139-1.33l0.209-1.59l0.67-1.03l0.83-0.319l0.48-2.79
		l-2.25-2.311l-1.451-0.16l-1-1.5l-0.408-3.09l0.139-4.95l-0.77-2.67l0.5-3.26l-0.801-1.49l1.07-0.38l2.141,1.15l1.41,0.01
		l3.359-1.17l2.92,0.16l5.859,3.729l9.381,0.221l2.189,1.27l-0.139,1.05l-0.951,1.761l-2.32,0.97l1.012,0.92l2.979,1.229l0.91,2.87
		l-0.17,1.22l2.471-0.689l1.969,0.46l2.871,1.51l0.811,1.49l-2.602,3.41l-3.049,2.34l-0.061,0.63l2.43,0.12l2.74,0.72l1.051,1.72
		l-0.16,3.051l-2.201,2.489l-3.479,2.381l-0.82-0.091l-0.891-0.88l-0.93-0.189l-1.68,0.699l-0.91-0.02l-0.451,0.24l-0.039,0.54
		l1.25,2.17l-0.09,1.47l1.799,3.65l0.641,0.13l1.24-1.3l-0.789,4.899l1.109,3.05l5.061,6.301l1.059,2.3l-0.059,3.279l-1.49,6.641
		l-1.461,1.56l-2.65,0.63l-2.449,4.79l-3.971,4.011l-2.76,0.829l-3.129,3.561l-2.01,0.52l-0.602-0.43l-0.539-2.17l-3.109-5.5
		l-1.881-0.18l-1.42-1.7l0.84-0.64l-2.381-3.051l-1.379-1l-1.371-0.279l-1.738,1.67l-0.641,1.489l0.83,0.431l1.439-1.57l1.07,0.16
		l0.891,0.71l2.869,4.33l0.859,0.66l1.16,3.52l2.41,5.29l0.25,1.15l-0.639,0.55l-3.801-1.74l-0.949,0.74l-0.721,1.76l-1.34-0.63
		l-4.201-2.62l-3.1-4.75l-1.449-0.7l-1.68,0.79l-2.43,0.28l-5.781-0.06l-0.26,0.27l0.43,1.2l-0.52,0.91l0.551,1.27l0.898,0.86
		l4.23,2.149l1.01,0.851l0.381,1.5l-0.75,2.13l-9.311,12.67l-1.891,1.85l-3.469,0.42l-2.621-0.289l-6.299-5.67l-0.641-1.461
		l-3.08-1.31l-2.98-2.66l-2.949-1.649l-1.74,0.05l0.859,1.34l-0.379,0.08l-2.031-0.3l-1.789-0.96l-1.77,0.13l-4.451-0.99l-3.6,0.14
		l-0.141,0.25l1.271,1.17l2.189,1.41l-0.211-1.53l0.73-0.42l3.471,0.75l6.029,2.29l2.9,2.88l3.211,4.36l2.398,2.11l6.961,1.47
		l7.219,0.41l2.541,0.76l0.721,0.57l-0.012,2.859l-2.26,5.021l-5.42,8.89l-1.01,3.23l-0.969,1.25l-4.91,3.569l-1.48,0.351
		l-2.17-0.86l-1.26-1.62l0.83,2.71l-0.211,0.261l-2.439-1.46l-0.871,0.52l-1.029-0.33l-1.33-1.41l-0.43-1.66l-2.07,0.82l-0.34,0.271
		l1.131,0.96l0.879,2.529l-0.59,0.271l-2.209-0.72l1.389,3.55l-2.08,3.28l-1.109,0.35l-1.48-0.83l-0.561,0.08l-0.988,1.3
		l-2.141,0.181l-5.32-2.78l-3.471-0.641l-0.27-0.31l0.24-0.81l-0.48-0.2l-1.01,0.77l-2.18-0.069l-9.779-4.91l-2.391-2.42l0.891,2.18
		l-0.602,2.021l0.941,1.55l1.289,0.56l1.301-0.06l-0.99-1.2l-0.23-0.84l0.25-0.15l10.951,5.21l-2.762,2.75l1.57-0.16l4.01-2.71
		l1.4,0.76l3.189,3.08l3.23,1.28l2,1.82l0.32,0.95l0.109,4.77l-0.709,1.82l-3.02,0.99l-2.102,2.02l-0.889,0.29l-5.25-1.17
		l-0.68,0.04l-0.771,0.64l-1.479,0.181l-0.15,0.92l0.65,1.189l1.398,0.91l1.73,0.4l0.18,1.02l-0.648,1.01l-2.352-0.899l-0.49,0.43
		h-1.549l-0.48,0.351l-0.391,1.489l-1.549,1.74l0.02,0.58l1.24,1.37l0.891,2.13l-3.031-2.65l-3.039-1.13l1.949,1.521l0.74,1.359
		l-1.439,1.25l0.449,1.091l-0.51,0.609l-0.84,0.51l-1.631,0.07l-0.148,0.29l0.83,1.021l-0.541,0.539l-2.23-0.17l0.791,1.811
		l1.629,1.51l-3.559,3.11l-1.82,2.27l-0.25,0.71l0.469,1.86l-0.479,0.67l-1.061-0.18l-0.199,0.26l0.139,3.06l-3.959,9.83
		l-0.531,1.141l-0.99,0.08l-0.738,0.72l1.029,1.479L522.721,795.745z M473.09,567.955l-0.12,0.22l-2.68-1.6l-0.52-2.68l0.39-0.65
		l1.81,0.561l1.41,1.479l-0.4,0.44L473.09,567.955z M593.17,578.125l2.691,0.2l0.869,2.33l-0.381,0.57l-1.578,0.5l-2.24-0.91
		l-0.541,0.3l-1.32-0.49l-1.189-1.62v-0.58l1.939-1.17L593.17,578.125z M498.811,590.375l0.28,0.311l0.92-1.101h0.62l3.23,4.2
		l1.621,1l3.54,3.23l3.13,8.079l1.791,3.15l1.488,1.55l1.891-1.42l0.951,1.641l-1.771,1.949l-1.969,0.28l-1.871,2.68l-1.16,0.49
		l-3.38,3.34l-1.77,0.24l-3.67-1.899l-2.29,0.27l-1.87-0.39l-3.71-3.16l-3.13-1.65l-0.77-2.56l-1.96,1.1l-1.47-0.109l-1.13-0.891
		l-0.67-2.33l-1.37,0.37l-0.3,1.35l-2.04-0.319l-1.1-1.03l-1.1-2.91l0.97-2.43l4.87-0.92l1.69-1.3l1.97-2.25l0.48-1.16l-0.97-2.73
		l0.2-0.42l0.79-0.04l-0.77-1.229l-0.1-1.17l0.63-0.16l0.78,0.36l1.5,2.06l1.62,0.71l-1.09-1.42l-1.27-4.04l0.59-2.86l1.42-1.38
		l2.6-0.739l0.89,0.529l2.51,2.67l0.23,0.99l-0.75,0.86L498.811,590.375z M660.25,586.625l0.59,1.95l-1.68,2.1l-2.949,0.57
		l-1.49-0.66l0.68,2l-0.061,1.19l-1.648-0.67l-0.74-1.47l-0.76,0.17l-1.061-1.62l-2.961-0.7l-0.148-0.32l0.609-1.32l0.66-0.26
		l1.67,0.351l0.369-1.57l1.891-0.11l0.799,1.681l1.381-0.04l3.381-1.851L660.25,586.625z M672.811,588.516l0.539,1.96l-0.639,0.79
		l-3.861,2.72l-0.738,0.28l-0.98-0.28l-1.67,0.51l2.42-4l1.58-0.3l0.52-0.62l0.439,0.2l0.301-1.28l0.551-0.59L672.811,588.516z
		 M763.48,592.985l-2.58-1.01l-0.17-0.931l2.08-1.6l0.721-0.08l0.709,0.18l0.67,1.12L763.48,592.985z M516.07,592.146l1.189,1.72
		l-0.51,3.27l-1.26,1.08l-1.359-0.3l0.539-1.38l-0.109-2.51l-0.189-0.97l-0.92-0.58l-0.051,2.899l-0.73,2.431l-0.83-1.021
		l-0.08-1.979l1.07-3.49l0.701-0.51l0.82,0.039L516.07,592.146z M465.351,596.665l-0.87,0.17l-0.19-1.29l0.74-0.989l-1.34-1.53
		l0.39-0.931l1.92,0.91l0.88,2.021l-0.77,0.47L465.351,596.665z M682.08,603.075l-1.969,0.14l-0.961-1.399l-0.51-2.03l0.34-3.3
		l1.381-0.92l1.729,0.72l2.23,0.2l0.689,0.96l-0.17,0.979l-1.1,1.54l-0.91,2.33L682.08,603.075z M563.711,596.105l0.199,1.58
		l-0.809,2.13l-0.561,0.52l-1.451-2.979l1.521-1.5l0.619,0.28l0.221-0.461L563.711,596.105z M662.221,610.525l-0.621,0.17
		l-0.729-0.47l-0.4-1.631l1.459-3.149l0.881-0.96l2.199-1.21l0.861-2.511l0.289-0.43l0.98-0.26l-0.24-1.59l0.35-0.66l1.721-0.97
		l1.119,0.09l0.93,2.08l-2.729,3.99l-2.211,4.899l-0.66,0.87L662.221,610.525z M561.08,601.125l-0.73,0.29l-1-1.96l-0.77-0.14
		l0.26-1.641l0.711-0.43l0.57,0.16l0.539,1.1L561.08,601.125z M475.9,606.335l-0.21,1.49l-1.59-0.94l-0.46-1.529l0.84-1.92
		l1.06,1.08L475.9,606.335z M473.911,611.485l-0.28,0.78l-1.33,1.27l-0.89-1.69l-0.89,0.641l-0.13-5.561l0.41-0.92l1.36-0.029
		l1.86,2.54l0.25,0.55L473.911,611.485z M459.311,616.915l-4.14-2.35l2.1-2.271l0.55-1.27l1.66,0.66l0.85,1.13l0.01,2.5l-0.56,0.38
		L459.311,616.915z M701.031,622.715l-0.701,0.16l-3.949-4.46l0.27-2.71l0.74-1.27l1.91,0.079l0.82,0.91l1.66,4.65l-0.291,0.42
		l0.109,1.14L701.031,622.715z M435.15,621.325l-1.42-0.3l-1.36-0.87l-1.71-1.89l-0.09-0.671l1.29-0.56l2.74,0.5l1.41,2.22
		l-0.11,0.96L435.15,621.325z M664.26,626.485l-0.729,0.27l-0.99-1.279l-0.01-0.711l0.189-1.71l1.801-0.43l1.109,2.061
		L664.26,626.485z M693.91,623.355l4.68,2.14l0.682,1.47l0.139,2.351l-0.58,2.64l0.33,7.83l-1,4.12l-1.779,2.16l-3.41,1.93
		l-8.189,1.11l-2.24-0.341l-1.18-1.609l-0.73-2.061l-1.32-6.489l0.68-3.91l0.92-2.311l3.461-6.819l1.289-1.15l2.07-0.96l1.721,0.24
		l2.75-0.681L693.91,623.355z M596.021,637.396l-0.99-0.34l-1.67-2.051l-0.141-1.55l0.551-2.59l-1.012-2.16l0.67-2.17l1.641-2.78
		l1.189,0.431l1.33,2.52l0.221,7.05l-0.84,2.5L596.021,637.396z M392.281,631.335l-0.34,0.08l-1.23-1.42l0.26-1.22l1.14,1.25
		L392.281,631.335z M712.32,636.266l-6.74-0.141l-1.789-0.93l-1.551-3.72l0.35-1.971l2.932-0.63l4.469,1.71l3.471,0.511l0.52,0.729
		l0.25,4.21L712.32,636.266z M393.681,631.535l1.76,0.06l0.55,0.961l0.14,1.31l-1.81-0.94l-0.59-0.659L393.681,631.535z
		 M405.041,645.235l-0.45,1.95l-1.81-2.591l0.22-4.67l0.7-0.85l0.52,1.01l0.01,2.55l0.75,1.091L405.041,645.235z M810.391,653.235
		l-1.109,0.63l-0.59-0.78l2.209-2.63l1.871-0.27l0.18,0.229l-0.791,1.021L810.391,653.235z M403.311,654.405l2.57,0.15l-0.25,1.77
		l-0.99,1.45L403.311,654.405z M627.141,670.726l1.57,0.239l0.15,0.33l-1.15,1.29l-1.381-1.729l-0.209-1.21L627.141,670.726z
		 M621.74,681.445l2.301,1.34l2.109,0.44l-0.879,1.83l-1.461-0.54l-1-0.99l-0.381,0.95l-1.238-0.24l-0.102-0.89l0.861-1.011l-1-0.68
		l-1.75,0.79l-0.98-0.44L618,678.855l-2.76-3.271l-0.049-0.92l0.439-0.55l2.549,1.17l3.012,2.47l0.77,1l0.07,0.65l-0.641,1.3
		L621.74,681.445z M613.24,686.266l-0.969,0.109l-1.33-2.58l-1.48-1.46l-0.701-4.1l0.221-1.58l1.061-0.22l0.83,0.37l1.619,3.289
		l1.391,4.4L613.24,686.266z M611.041,693.025l0.689,0.109l2.061-4.109l1-0.24l2.1,1.96l1.631,3.2l5.328,1.83l0.75,0.59l1.852,3.06
		l1.889,1.171l2.891,2.609l3.551,1.24l1.99,1.61l2.359,4.55l1,4.41l-0.041,1.38l-1.99,2.34l0.141,0.3l1.531-0.11l3.408-1.1
		l2.801,0.91l0.92-1.42l0.83,0.22l2.33,3.23l-0.09,0.46l-0.801,0.159l1.951,0.78l1.699,1.24l-0.369,0.81l-5.84,5.681l-0.83,0.38
		l-8.221-4.08l-3.721-0.86l-0.799-4.47l-0.939-0.69l-4.15-1.279l0.16-2.13l-0.441-0.66l-2.139,0.31l-2.51,1.76l-0.701,3.78l-0.6,1.2
		l-2.631,3.11l-1.068,0.93l-1.49,0.56l-1.781,3.931l-1.139,1.609l-2.951,2.23l-3.859,1.54l-0.92-0.38l-1.961-10.37l-0.49-0.86
		l-4.779,0.88l-2.459-0.109l-3.041,1.88l-2.119-0.33l-0.33-1.75l2.299-4.65l4.58-3.06l1.52-1.75l-0.92-4.94l-0.18-3.93l1.67-9.34
		l1.021-11.21l1.01-3.7l1.32-2.79l2.318-1.9l1.01,1.601l1.801,1.09l0.58,1.06l0.631,2.7l-1.211,2.43l1.65,1.57L611.041,693.025z
		 M676.281,719.545l-0.65,0.94l-1.92-0.33l-0.33-0.63l0.311-0.45l1.979-0.43l1.271,0.109L676.281,719.545z M684.93,731.625
		l-0.949,0.2l-1.24-0.45l-3.969-3.649l2.068-1.891l3.32,2.19l1,1.41L684.93,731.625z M674.18,730.095l0.762,0.86l0.789-0.06
		l1.48,2.87l0.049,1.06l-1.119,1.37l-2.551,1l-2.809-2.49l-2.521-3.67l0.262-0.55l2.439-0.771L674.18,730.095z M637.211,740.345
		l0.459,1.381l-0.689,3.02l-0.789,1.521l-4.08,4.83l-4.012,3.72l-1.02,0.109l-2.219-0.649l-2.891,1.49l-0.561-2.75l-1.27-1.91
		l-0.07-1l1.541-2.22l3.25-6.57l0.779-0.33l2.9,0.939l2.32-1.39l2.209,0.17l2.02-0.81L637.211,740.345z M741.771,748.275l-1.83-0.07
		l-2.012-0.87l-0.639-1l-0.121-1.1l-1.209-1.63l-1.35-0.55l-0.75-1.141l3.459,0.66l3.51,2.08l1.561,3.04L741.771,748.275z
		 M708.93,746.925l-2.27-0.069l-2.209-0.91l-1.08-1.12l4.58,0.9l0.83,0.34L708.93,746.925z M791.191,748.085l2.77,0.13l0.449,0.311
		l0.42,0.939l-0.539,1.341l-1.611,0.659l-2.189-0.72l-0.5-0.72l0.23-0.521l0.93-0.39L791.191,748.085z M659.221,750.936l0.709,0.529
		l1.611,2.641l-0.34,4.239l-3.09,7.24l-0.852,0.91l-0.469,0.021l-4.031-4.221l0.051-5.54l0.73-1.989l2.26-3.471L659.221,750.936z
		 M789.34,761.135l0.631,0.141l1.029,1.74l-0.459,0.88l-2.41-1.221l-0.621-1.899l0.221-0.58l0.76-0.26L789.34,761.135z
		 M538.211,761.795l-0.371,0.04l-1-1.46l1.08-0.31l0.74,0.859L538.211,761.795z M791.111,770.795l-0.42,0.17l-0.67-1l-3.941-2.859
		l-0.34-1.63l2.711-0.681l3.049,0.44l1.08,1.3l-0.24,2.28L791.111,770.795z M668.311,782.585l-1.23,0.21l0.51-1.01l3.32-0.85
		l-0.33,0.64L668.311,782.585z M760.621,791.445l-0.811,0.14l-0.369-0.38l-0.021-1.1l2.51-4.96l1.551,0.88l0.85,1.64l-0.93,1.99
		L760.621,791.445z M794.93,789.165l-0.309,1.25l-2.65-1.41l-0.641-0.63l-0.25-1.64l1.711-0.25L794.93,789.165z M654.57,799.855
		l-0.92,0.12l0.75-1.57l1.15-0.45l0.51,0.42L654.57,799.855z M652.59,802.465l-0.35-0.159l0.23-0.73l0.801-0.89l0.379,0.279
		l-0.141,0.45L652.59,802.465z M752.32,812.705l-0.539,1.26l-1.18,0.12l0.439-3.2l0.969-0.02L752.32,812.705z M657.691,838.655
		l-0.531,0.02l-0.299,1.2l-0.102-1.649l0.691-1.11L657.691,838.655z M656.34,850.875l-0.25,0.29l-0.439-0.32l0.41-1.449l0.641,0.359
		L656.34,850.875z M659.461,852.795l-0.531,0.19l0.24-1.44l-0.289-0.77l0.279-0.29l0.631,1.38L659.461,852.795z M664.691,859.125
		l-2.15,6.11l-0.471,0.1l-0.41-0.699l1.18-3.421l-0.359-1.22l-2.02,4.44l-0.791,0.96l-0.99-0.011l-1.42,1.101l2.4-4.58l-0.42-0.561
		l-3.23,4.12l-0.93-0.64l4.42-6.67l0.51-3.45l0.24,1.5l-0.939,4.31l1.291-1.55l1.08-5.239l1.328,1.31l0.41,1.08l1.031,0.52
		l0.51,1.641L664.691,859.125z M655.34,860.075l-1-0.11l0.281-1.18l1.84-1.29l0.92-0.15l1.52-1.449l-0.971,2.26L655.34,860.075z
		 M665.66,861.065l-0.779,0.199l1.029-4.029l0.67-0.9l0.5,0.01l-0.039,2.881L665.66,861.065z M655.701,905.095l-0.01,0.45
		l-0.58-0.09l-0.631-0.96l0.221-0.3l0.67,0.18L655.701,905.095z M648.58,913.375l-0.629,0.2l-2.641-0.68l-6.66-2.641l-1.49-0.779
		l-0.311-0.591l1.721-2.029l4.59-0.57l1.791,0.28l3.32,4.21l0.488,1.359L648.58,913.375z M660.66,925.015l-1.219-0.01l-1.102-0.83
		l2.771-1.279l0.568,0.17L660.66,925.015z"/>
	<path id="CA-ON" fill="#1E3250" stroke="#1E3250" stroke-width="0.5" d="M659.451,939.835l0.059,46.051l-0.42,0.97l1.111,4.6
		l3.77,6.89l2.09,2.771l2.869,1.12l6.971,1.55l2.791,1.601l1.238,2.05l1.811,1.229l0.811,0.08l0.25-0.96l0.799-0.05l1.41,3.04
		l1.021,1.28l1.25,0.58l2.609-0.11l1.09,0.27l0.869,0.811l2.49-0.39l6.83-2.44l2.57,0.13l1.621,0.82l-0.73,3.18l1.23,1.311l0,0
		l-3.301,2.67h-1.33l-2.891,1.319l-5.539,5.141l-2.33,1.55l-3.141,1.3l-2.51,0.55l-2.721,1.791l-0.449,0.039l-0.131-0.439
		l1.271-1.14l-0.871,0.56l-0.439-0.65l-2.391,0.341l-2.32,1.04l2.262-0.73l0.01,0.61l0.32,0.08l0.219-0.511l1.4-0.43l0.289,0.311
		l-0.17,1.27l2.15-0.67l-1.619,1.84l1.561-0.16l-0.08,0.271l-1.57,0.739l-1.381,0.09l0.16-0.89l-0.689,0.32l-0.43-0.311l0.5-0.22
		l-2.191,0.02l-0.58-0.56l0.17-0.21l-1.189-0.25l-0.4,0.439l-11.32,1.91l-3.648,2.601l-0.75,0.12l-1.041,1.04l-1.58,3.079
		l0.41,0.591l3.5,0.68l2.48-1.04l-0.109,2.33l1.229,2.27l-1.08,0.551l-2.949-0.221l-6.4,0.95l-1.08,0.34l-2.07,1.96l3.49,0.721
		l-0.279,0.09l-8.471-1.41l-3.27,0.39l-2.92,2.22l-1.23,2.271l-0.07-0.681l-4.82,2.551l-0.889,2.06l-1.201-1.26l-2.609,0.37
		l-1.539-0.78l0.309-2.76l1.84-1.03l2.891-2.9l1.15-4.779l2.949-1.41l2.721-2.38l0.4-0.79l0.309-2.04l-0.029-7.101l1.279-2.859
		l1.461-1.26l1.119-2.291v-1.84l-0.719-1.529l0.029-0.84l-0.859-0.471l-1.25-1.91l-1.041-0.729l0.08-0.351l3.701,0.131l-0.25,1.08
		l0.48,1.619l1.09,0.761l0.039,0.63l0.529,0.05l0.91-0.71l-0.299,1.18l-1.111,1.34l1.5-0.5l0.611,0.351l-0.131,2.05l1.07-1.04
		l1.07-0.34l0.689,1.11l1.189,0.76l3.371,1.109l0.689-1.029l0.09-1.01l-0.99-1.94l1.602-0.71l0.039,0.63l0.881,0.561l1.33-0.011
		l-0.16-1.34l-0.68,0.7l-0.512-1.479l-0.658-0.25l-1.65-1.931l0.709-0.56l-1.029-0.891l0.641-0.99l-0.07-0.93l-1.07-0.28
		l-0.01,0.671l-1.541-0.7l-0.58-2.811l-0.27,0.46l-0.6-0.069l-2.75-4.63l-2.5,0.119l-0.57-0.17l-0.119-0.79l-0.57,0.54l-1.91-0.26
		l-1.32,0.36l-0.391-0.95l0.881-0.45l-0.66-0.58l-1.34,0.79l-0.041-0.6l-3.83-0.38l-1.379-0.761l-2.58,0.271l-0.73-0.45l-2.75,0.33
		l-7.33-1.56l-0.35-0.4l-1.881-0.36l0.041-1.89l-0.699-0.72l-2.391,0.529l-0.609,0.5l-0.611-1.209l1.17-1.91l-0.449-0.271
		l-0.461,0.601l-0.119-1.41l1.67-0.971l-1.08-0.84l-1.23,0.28l-1.35-1.07l1.619-4.159l-1.09-1.4l-1.969-1.5l-0.701-1.311l1.43-4.14
		l-6.809,0.12l-2.68-1.19l-1.711-2.42l-1.6-5.22l-1.58-2.26l-1.09,0.16l-1-0.74l-1.141,0.479l-3.619-0.04l-6.65-2.479l-0.51-0.54
		l-2.02,0.18l0.209,1.61l1.041,1.24l-0.271,1.26l-0.85,1.16l-1.891,0.5l-0.51,1.26l-0.52,0.271l-0.061-1.091l2.182-2.85l-0.65-1.44
		l-0.961,0.16l-0.42,2.37l-0.68,0.8l-0.98,2.9l-1.779,0.65l1.42-3.34l-3.82,1.779l-0.189,1.881l-1.111,2.539l-0.828,0.301l-1.25,1.3
		l-3.73-0.18l-0.881-1.38l-5.85,0.18l-0.859-1.29l-0.68-0.12l-1.141,0.21l-3.08,1.81h-1.17l-3.051-1.869l-1.32-1.4l-1.488-0.49
		l-1.141,0.13l-0.451,0.7h-0.59l-0.77-2.13l-4.439-2.38l-3.41-0.07l-0.779,0.76l-2.191,0.48l-0.859-0.32l-0.43-0.79l-1.83-0.699
		l-5.07-1.13l-0.75-0.891l-0.881-2.64l-0.459-4.12l-0.76-0.62l-1.939-0.28l0,0l0.01-49.18l13.75-13.85l20.1-24.19l21.779-24.6l0,0
		l1.09,0.609l3.4,3.351l3.33,2.29l5.311,7.18l5.049,1.71l8.381,3.479l2.76,1.5l2.42,2.681l1.701,1.29l0.049,0.81l-1.369,3.42
		l1.359-2.27l1.369-0.96l4.871,0.42l5.439-0.88l6.24,1.57l2.039-0.261l1.061,1.11l2.6,0.189l1.65,1.271l0.76,1.09l0.801,2.87
		l-1.779,7.06l-0.051,1.71l1.65,3.051l0.879,3.449l-0.439,3.12l0.279,5.21l-0.898,1.561l-0.281,1.92l0.281,1.04l2.16,2.21l3.77,5.58
		l0.25,0.96l-0.361,0.63l-1.939,1.46l2.5-0.181l0.75,0.471l1.621,1.68l2.84,1.7l2.779,3.1l1.92,5.32l-3.66,3.77l3.34-2.6l0.99-0.32
		l0.92,0.19l1.451,0.479l2.398,1.561L659.451,939.835z M659.441,939.165l-1.74-2.16l-0.211-0.979l0.439-2.29l1.5-2.84l0,0
		L659.441,939.165z M583.15,970.335l-0.4-0.31l0.17-1.3l1.271-0.381l1.34,0.32l-0.461,0.99L583.15,970.335z M586.82,969.806
		l-0.98,0.029l-0.16-1.08l0.73,0.181L586.82,969.806z M604.35,983.545l-1.729,0.19l-0.83-0.38l0.609-0.58l1.051-0.21l1.52,0.66
		L604.35,983.545z M621,1004.056l-0.609,0.239l-0.279,0.65l-0.641-0.16l-1.061-2.3l0.32-0.29l1.529,0.33l0.861,0.899L621,1004.056z
		 M625.271,1007.745l-0.49,0.15l-0.84-0.49l0.789-1.05l1.09,0.35L625.271,1007.745z M629.85,1006.505l-0.02,0.86l0.52,0.66
		l0.941-0.021l1.16,0.69l0.1-0.55l-0.541-0.601l0.48-0.55l1.75-0.561l1.701,1.45l0.789-1.1l1.039-0.311l0.881,1.21l0.33,1.82
		l0.949-1.93l0.301,0.279l-0.18,0.9l0.83,0.13l-0.83,1.73l-1.281,1.399l-0.479,0.141l-0.861-0.44l1.012-0.52l0.939-1.11l-2.65,1.74
		l-1.801-1.26l-3.318-1.431l-2.791-0.5l-2.561-1.17l0.41-0.86l0.711,0.431L629.85,1006.505z M639.111,1013.045l-0.371-0.41
		l1.041-0.37L639.111,1013.045z M653.58,1021.365l-0.559-0.7h0.578L653.58,1021.365z M687.73,1029.535l-0.52,0.43l-0.551-0.079
		l-0.07-0.431l0.551-0.81l1.82-0.34L687.73,1029.535z M684.84,1029.765l-1.09-0.029l1.5-0.74L684.84,1029.765z M631.49,1058.945
		l-0.42,0.13l0.27-1.1L631.49,1058.945z"/>
	<path id="CA-PE" fill="#1E3250" stroke="#1E3250" stroke-width="0.5" d="M800.271,1000.146l0.658-0.15l0.5-1.06l2.021,0.76
		l0.789-0.06l2.141,1.119l8.66-0.85l1.25,0.85l-4.5,2.83l-0.16,2.25l0.59,0.37l-0.48,0.29l-2.449,0.05l-0.66-0.359l-0.221-0.86
		l-1.07,0.02l1.15-0.729l-0.529-0.93l-0.551,0.069l-0.369-0.439l0.029-0.59l0.66-0.601l-2.619,1.5l1.059,0.15l-0.539,0.37
		l-3.84-0.91l-1.43-1.771l0.379-0.399l-3.16-0.36l-0.219-2.26l-2.262-0.53l-0.139-0.67l0.439-1.01l3.23-3.82l0.109,1.94l-0.949,1.8
		l1.66,1.78l0.35,0.87l-0.381,0.819L800.271,1000.146z"/>
	<path id="CA-QC" fill="#1E3250" stroke="#1E3250" stroke-width="0.5" d="M793.07,790.266l-2.08,1l0.51,0.989l1.5,0.99l-0.25,0.561
		l-2.129,1.34l0.479,0.89l1.551,1.15l-1.16,1.89l-0.24,4.88l0.93,1.3l2.42-1.09l0.531,0.23l0.061,0.699l-1.121,1.351l-0.15,3.03
		l0.371,1.909l1.379,1.671l-0.619,0.369l-3.381-0.869l-0.559,0.5l-0.141,1.229l4.971,1.44l0.92,1.68l4.17-1.61l1.209,0.55l0.85,1.32
		l-4.16,1.19l-0.988,0.729l0.08,1.49l1.609-0.01l0.311,1.64l-2.24,1.72l-2.66,3.65l0.07,0.77l1.439,1.381l1.619,3.909l0.75-0.279
		l1.5,1.609l0.701,0.17l1.02-0.46l-0.119,0.9l-1.291,1.939l0.15,2.61l-0.52,1.28l0.379,1.51l-1.061,3.37l-0.238,2.19l-1.9,2.97
		l1.699,3.77l-0.26,0.59l-1.619,0.721l0.129,1.54l1.99,1.399l-0.83,1.09l-0.109,0.761l3.82,1.149l0.18,0.53l-1.25,1.1l-0.02,1
		l2.559,4.21l0.99,0.851l1.35,0.449l0.381,2.74l-3.791,3.13l-0.148,0.851l0.67,1.939l-2,5.38l-1.891-0.29l-3.859-1.43l-7,0.11
		l-4.971-0.4l-1.08-0.93l-0.779-1.591l-2.451-0.939l-5.529-5.64l-0.211,0.54l0.65,1.27l-0.199,1.32l0.869,5.149l-0.66,0.78
		l-1.279-0.51l-2.689-2.43l-1.211-1.971l-0.949-0.13l-0.07,1.37l2.41,5.13l-0.031,0.561l-0.77,0.479l-0.439,1.03l-2.25-0.83
		l-0.58,0.31l-0.07,1.561l0.881,3.311l-2.24,2.68l2.6,4.01l-0.02,2.771l2.77,1.06l0.801,1.891l1.18,0.93l-0.23,4.21l-0.75,2.27
		l-0.131,2.44l1.051,0.84l1.221,0.17l1.129-0.6l0.66-3.03l0.84-0.4l0.48-0.89l0.359,0.12l1.15,1.689l-1.131,3.49l0.291,3.57
		l-0.609,1.81l0.488,1.62l0.561,0.42l0.59-2.13l1.641,1.33l0.551,1.46l1.369,0.8l0.5,0.03l0.42-0.75l1.721,0.45l1.229-1.891
		l2.82,0.7l1.84,1.45l2.74,3.33l-0.68,1.16l0.939,2.09l0.82-0.12l1.939-1.73l-0.398-1.63l0.57-3.5l1.26-1.51l0.25-2.8l-0.721-2.58
		l0.039-3.851l0.352-0.579l1.49-0.601l0.609-2.699l1.641-0.48l0.459,0.13l1.051,2.03l0.039,2.82l1.26,1.26l-4.379,1.47l-1.441,1.53
		l-0.02,0.399l0.99,0.421l0.141,0.699l1.52,1.221l0.91,3.459l-1.09,0.141l0.26,0.58l59.67,0.14l0.01,8.05l0,0l-1.789-0.5
		l-1.461,0.131l-2.76,0.619l-2.27,1.49l-4.371,0.391l-5.869,7.319l-1.91,1.48l-2.1,2.579l-1.82,1.041l-0.641,1.43l-1.74,0.87
		l-4.729,0.47l-1.781-0.4l-1.34,0.62l-2.99,0.05l-3.9,1.37l-1.75-1.8l-7.139-0.96l-3.771,0.11l-0.92,0.72l-3.119-0.22l-2.4-0.79
		l-2.84,0.63l-3.029-0.55l-3.221,0.47l-3.59-0.62l-4.43,0.85l-1.73-0.489l-1.529,1.3l-3.32-0.15l-2.201,2.04l-1.789,1l-2.631,5.431
		l-0.25,2.069l-0.988,1.41l-6.131,1.26l-2.02,0.82l0.549,0.65l-2.898,1.279l-1.121,1.59l-2.33,1.5l-2.709,3.461l-1.291,2.52
		l-1.57,1.82l-1.109,0.689l-1.59-0.109l-4.77-2.141l-5.691-1.2l1.611,1.19l3.029,0.18l5.689,2.45l0.811,0.99l-1.17,3.55l-0.801,1.23
		l-4.068,4.189l-2.311,3.74l-3.67,2.819l-1.359,1.69l-4.391,1.59l-1.1-0.17l-2.91,1.67l-0.471,0.96l-3.799,2.56l-2.701,1
		l-0.369,1.15l-1.111,0.7l-2.969,4.21l-2.111,0.35l-1.658,1.88l-1.262,0.79l-2.488-0.369l2.828,1.25l0.23,1.119l-1.109,0.271
		l-2.17,1.39l0,0l-1.23-1.31l0.73-3.181l-1.621-0.819l-2.568-0.13l-6.83,2.439l-2.49,0.391l-0.871-0.811l-1.09-0.27l-2.609,0.109
		l-1.25-0.58l-1.02-1.279l-1.41-3.041l-0.801,0.051l-0.25,0.96l-0.811-0.08l-1.809-1.23l-1.24-2.05l-2.791-1.6l0,0l0,0l0,0
		l-6.969-1.551l-2.871-1.119l-2.09-2.771l-1.35-2.88l-1.789-2.55l-1.631-5.07l-0.109-1l0.42-0.97l-0.061-46.05l0,0l1.539,2.21
		l-1.549-2.881l0,0l-0.01-8.27l0,0l1.639-1.2l0.371,0.08l0.289,1.021l2.01,1.27l1.23,3.771l0.4-2.63l1.141-1.631l-2.211-3.399
		l-0.039-0.59l0.479-0.351l0.891-2.38l1.131-1.01l1.479-2.63l0.801-0.7l-0.699-0.72l-0.281-2.66l-1.68-2.41l-0.189-1.54l0.391-1.43
		l-1.58-2.771l-1.811-9.189l-0.121-0.92l0.65-1.521l0.85-0.21l-1.158-1.53l0.709-1.069l-0.641-0.75l-1.568-0.71l0.559-0.28
		l0.291-0.8l-1.881-1.44l-2.17-5.2l-1.029-1.079l11.09-5.271l6.27-4.39l5.471-5.881l3.619-5.3l1-1.78l0.93-4.05l0.24-5.649
		l-0.48-7.78l-2.85-9.6l-2.379-4.391l-3.551-3.74l-4.129-2.72l-3.031-3.109l-1-0.37l-0.469-1.37l0.76-3.79l3.25-5.19l2.02-1.83
		l0.74-1.319l-0.881-1.681l1.131-1.859l0.07-1.681l1.219-0.079l1.74,1.97l0.43-0.17l-1.219-1.87l1.379-1.99l-0.369-2.29l0.75-1.729
		l-0.201-0.36l-2.109-0.34l-0.35-0.48l1.189-1.04l-2.049-5.08l0.75-1.449l0.85-0.65l-0.111-0.37l-1.789-0.27l-0.68-1.13l1.17-2.74
		l0.641-0.351l-0.121-0.3l-2.41,0.72l-1.129-0.59l-1.641-0.02l3.15-4.88l0.889-2.271l-0.049-4.31l1.99-2.23l-3.371-3.25l-1.18-1.96
		l-1.129-7.189l0.709-2.82l4.16-3.4l2.08-0.8l4.42,0.92l9.529,4.05l1.271,1.28l-1.201,1.08l0.17,0.27l2.701-2.05l1.318-0.489
		l2.861,0.92l3.5,2.85l-0.51-1.3l0.398-0.53l8.432-5.05l3.639,2.86l3.74,3.829l1.75,0.021l0.49,1.86l-1.25,3.55l0.4,0.029l1.99-1.6
		l2.51,1.73l1.67,2.859l-0.381,0.73l-1.479,0.74l0.279,0.279l1.73-0.46l1.41-1.439l2.039,1.35l0.17,0.83l-1.219,0.87l-0.881,1.63
		l1.869,0.5l-0.779,0.77l-0.1,0.65l2.879,3.32l2.221,0.229l4.051,1.69l1.639,0.229l2.34-0.479l1.09,0.89l0.111,1.82l0.449,0.76
		l0.92,0.44l2.551-1.07l0.76-2.49l0.6-0.189l0.48,0.359l0.799,2.181l0.092,1.39l-2.111,2.88l-0.99,3.69l0.102,2.81l1,2.41l-0.4,2.21
		l-1.09,0.83l-1.5,0.21l-6.201-0.15l0.311,0.75l7.301,0.71l0.639,0.48l0.93,1.71l0.461,2.61l-1.01,3.3l0.09,2.58l2.529,0.069
		l0.5,0.61l-0.949,2.15l0.33,1.63l-1.051,3.78l-1.049,0.84l-1.221-2.34l-0.75,1.729l-2.619,1.15l0.049,0.5l3.27,1.229l4.65-3.359
		l5.141-0.36l2,1.4l0.84,1.38l0.49,2.55l0.66,0.67l0.209,1.229l-0.039,1.461l-1.1,4.02l-1,1.47l-4.281,1.82l-0.859,1.12l2.33-1.24
		l2.561-0.6l0.729-0.681l1.121-2.13l1.02-3.83l0.58-1.21l0.811-0.21l1.189,3.24l-1.57,2.66l1.861-2.271l0.898-2.25l0.59,2.74
		l0.102,4.28l0.969-3.771l4.93-3.739l2.67-0.99l1.021-0.99l0.83-2.55l1.369-1.62l1.121,0.33l1.309,1.95l0.791,3.909l0.709-2.409
		l-1.08-4.28l1.691-0.45l0.17-0.24l-0.76-0.939l0.709-1.08l1.24,0.11l-0.16-0.921l1.59,0.21l0.16-0.42l1.17-0.039l0.109-0.381
		l-2-0.88l-0.84-1.79l0.35-0.29l0.48,0.29l0.85-2.41l0.91,0.62l-0.57-2.729l1.121-0.15l2.471,1.771l0.318-0.17l-1.189-1.311
		l-2.119-1.359l-0.711-1.931l0.48-2.27l1.299-0.74l2.102,1.16l0.24-0.32l-1.172-1.06l-0.109-1.391l2.16-6.17l1.02-1.43l1-0.09
		L793.07,790.266z M818.291,965.226l-3.75,0.199l-7.371-1.989l-4.699-2.391l-1.891-2.79l-5.949-3.12l-0.41-0.819l1.01-0.54
		l2.17-0.22l7.529,1.729l3.891,1.54l9.33,5.811l1.08,1.979L818.291,965.226z M774.33,979.695l-1.98,0.79l-0.238,0.85l-0.951-0.25
		l-2.24,0.42l-0.52,0.431l-1.92-1.13l-0.301-0.79h-4.488v0.92h-2.371l-0.01,4.53l-0.449,0.8l-1.781,1.42l-3.809,1.66l0,0l0.029-1.74
		l-1.73-0.479l-6.859,9.899l-0.531,3.48l-1.619,2.46l-0.5,2.5l0.07,1.949l-1,1.34l-0.121,0.82l-2.52,2.391l0.109,1.569l-0.979,0.3
		l-0.59,1.7l-0.301,0.101l-0.91-0.95l-1.209,0.939l-1.73-0.35l-0.82,1.14l-0.881,2.44l-28.609,0.05l3.939-2.33l1.971-0.67
		l2.561-1.96l1.85-0.38l0.83-2.641l2.74-4.84l1.52-1.21l2.301-1.01l2.129-2.21l2.301-1.16l1.17-1.42l1.869-1.05l2.061-0.28
		l3.68-1.34l0.98-0.82l5.67-2.79l4.029-4.54l0.471-1.239l3.91-4.671l0.99-1.909l1.479-1.07l2.861-3.05l3.9-2.45l2.809-2.28
		l6.07-3.109l8.631-3.681l3.76-1.189l5.869-0.73l6.16,1.021l2.41,1.189l3.15,3.15l0.07,0.92l-2.73-0.47l2.4,2.03l-0.07,1.899
		l-0.85,1.71l-2.551,0.84l-1.689,2.2l-3.92,2.35l-1.939-0.14l-4.041-2.11l-1.4,1.15l-3.279-0.229L774.33,979.695z M817.271,989.485
		l1.27,0.33l-0.551,0.49l-1.561-0.15l0.75-2.521l3.381-2.729l1.369-0.08l-0.719,0.98l-0.961,0.05l-0.91,0.81l-1.818,2.04
		L817.271,989.485z M735.59,994.886l-0.818,0.109l1.309-1.26l1.301-0.44L735.59,994.886z M712.82,1012.995l-3.529,0.35l0.959-0.949
		l1.48-0.58l1.48-1.79l0.42-0.05L712.82,1012.995z M711.66,1011.515l-1.459,0.15l1.189-1.26l1.369-0.29L711.66,1011.515z"/>
	<path id="CA-SK" fill="#1E3250" stroke="#1E3250" stroke-width="0.5" d="M463.601,966.595h-77.39l0,0v-170.84l0,0h71.7l0,0
		l0.01,70.551L463.601,966.595z"/>
	<path id="CA-YT" fill="#1E3250" stroke="#1E3250" stroke-width="0.5" d="M149.15,609.295l-0.02,27.851l0.4,1.909l1.5,1.54
		l0.57,2.021l-0.07,2.14l0.65,2.76l-1.01,2.851l-0.05,2.14l0.48,1.681l18.95,0.25l0.22,1.38l2.13,2.859l-0.1,1.94l0.38,1.87
		l1.15,1.92l-0.17,2.53l-0.77,0.29l-0.54,2.55l0.09,0.47l1.86,0.43l0.13,2.41l-0.97,1.79l0.5,2.67l1.88,0.41l1.64-1.101l2.61-0.5
		l0.19,0.591l-0.46,1.489l0.59,0.44l0.73-0.32l1.86-2.229l1.17,0.89l1.01-0.1l0.25,0.319l0.02,0.521l-1.78,1.521l-0.14,0.64
		l2.33,3.08l0.9,2.569l-1.35,3.33l-1.76,2.211l-0.5,1.3l-1.48,1.18l-0.1,0.46l0.58,0.771l1.15-0.37l0.35,0.31l0.22,1.62l1.47,0.79
		l-1.29,2.11l-0.07,1.56l-0.86,1.22l0.12,0.67l2.4,0.66l1.92,1.271l1.91,2.609l1.47,0.9l-0.61,3.03l1.89,0.159l2.04-1.619
		l2.26,1.189l1.73,4.3l-0.15,1.38l1.54,2.71l4.26,3.471l1.48,0.59l-0.03,0.41l-1.24,0.72l-0.39,0.68l0.53,0.511l1.19-0.341l0.43,1.2
		l0.78,0.4l0.79,1.22l0.38,1.39l-0.54,1.601l-1.76,1.74l-0.29,0.84l2.04,1.77l0.7,1.9l1.93,0.649l-0.92,2.53l-0.04,1.94l0.88,2.34
		l0.85,0.76l0.31,1.46l2.7,2.101l-0.96,1.26l0.51,1.01l-0.48,1.521l0.54,1.43l-0.2,1.29l1.06,0.52l2.05,0.12l0.84,1.061l1.21-0.931
		l1.06-0.09l1.44,1.59l1.74,3.211l1.43,0.979l0.48,1.93l1.67,1.74l1.78,1.61l2.77,0.39l1.19,0.89l0.84,1.78l0.46,2.48l-0.05,2.05
		l-0.59,1.04l0.34,0.359l0.99-0.02l0.76,5.21l1.74,0.13l1.3-0.7l2,0.29l0.56-0.45l0.11-0.859l0.55-0.18l1.42,1.05l0.93-1.5
		l1.72,0.92l3.45,0.88l1.53-0.95l2.43-0.29l0.66-1.85l2.01,0.149l0.7,3.021l-0.95,1.6l0.11,0.71l1.76,3.061l1.38,0.38l0.21,0.38
		l0.37,2.39l1.68,3.5l-0.12,1.44l1.18,0.11l0.54,0.689l0,0l-136.6-0.01l0,0l-1.15-1.47l0.95-4.69l-5.35,0.28l-2.66,2.62l-4.3-2.101
		l-0.65,1.471l-4.28-1.471v-200.21l5.35,1.24l3.84-0.5l7.13,2.72l4.41,5.061l7.35,5.649l5.46,3.221l1.7,0.329l3.17,1.54
		L149.15,609.295z M125.851,592.065l-0.74,0.96l-1.48-1.5l1.36-1.33l0.6,0.05l1.74,1.49L125.851,592.065z"/>
</g>
</svg>
