<?xml version="1.0" encoding="utf-8"?>
<!-- Generator: Adobe Illustrator 15.0.0, SVG Export Plug-In . SVG Version: 6.00 Build 0)  -->
<!DOCTYPE svg PUBLIC "-//W3C//DTD SVG 1.1//EN" "http://www.w3.org/Graphics/SVG/1.1/DTD/svg11.dtd">
<svg version="1.1" id="Layer_1" xmlns:amcharts="http://amcharts.com/ammap"
	 xmlns="http://www.w3.org/2000/svg" xmlns:xlink="http://www.w3.org/1999/xlink" x="0px" y="0px" width="964.567px"
	 height="679.076px" viewBox="0 0 964.567 679.076" enable-background="new 0 0 964.567 679.076" xml:space="preserve">
<g>
	<path id="US-AK" fill="#1E3250" stroke="#1E3250" stroke-width="0.5" d="M140.19,425.548l2.584,7.589l2.719-2.665l8.508,2.125
		l-0.765,3.538l7.607,3.593l5.465-0.991l10.56,5.879l10.029,2.134l3.97,2.224l7.139-2.232l7.932,4.853l5.78,2.215l0,0l-0.261,55.745
		l-0.37,80.882l6.752,0.396l6.752,3.736l4.97,5.925l6.5,8.804l6.518-7.922l6.752-4.799l4.115,6.869l5.104,5.275l6.951,5.645
		l5.293,9.327l8.886,14.621l13.531,7.122l1.188,8.336l-3.493,6.86l-4.717-4.52l-7.085-3.565l-3.205-11.415l-10.407-10.03
		l-4.853-12.45l-6.941-0.415l-11.407,0.271l-8.517-3.601l-14.854-13.901l-6.671-2.583l-12.037-5.061l-9.579,0.9l-13.189-6.977
		l-7.688-6.419l-7.734,2.341l0.622,9.687l-3.88,0.559l-8.256,2.106l-6.59,3.962l-8.057,1.989v-8.148l4.699-13.071l7.625-3.439
		l-1.458-3.673l-9.453,6.689l-5.807,8.534l-11.29,8.283l4.151,7.31l-8.076,8.715l-8.543,4.403l-7.86,2.854l-2.818,5.572
		l-12.613,4.718l-3.529,5.717l-9.786,3.826L66.25,637.7l-7.715,2.08l-8.571,2.629l-7.256,2.781l-13.766,0.306l-0.576-2.466
		l9.714-3.826l8.238-2.134l9.552-5.187l9.417,0.613l4.781-4.574l11.676-5.779l2.134-2.323l6.194-3.655l3.133-9.876l5.023-7.256
		l-8.805,2.548l-1.792-2.746l-4.763,4.097l-3.124-7.725l-2.899,4.385l-1.134-7.212l-8.103,3.772l-4.24-1.009l1.305-8.058l2.404-4.6
		l-3.187-5.817l-9.372,0.353l-3.961-7.752l-3.637-4.438l2.079-7.58l-3.349-7.122l4.682-7.03l7.247-6.141l4.124-6.41l5.285,0.324
		l3.7,3.295l6.653-5.42l4.213,2.269l5.699-3.231l0.306-6.636l-2.818-3.304l5.717-4.394l-3.727-0.684l-7.104,1.53l-2.602,2.629
		l-3.97-4.276l-8.895-0.693l-7.787-5.798l-0.829-6.312l-4.879-10.317l9.831-3.412l14.639-3.34l4.672,1.233l-2.628,6.905
		l12.325,2.476l-2.521-9.993l-5.555-7.229l-2.044-8.246l-3.556-7.607l-6.086-6.707l5.204-6.761l9.516,2.133l8.409-5.005l3.07-6.96
		l7.004-5.878l5.375-0.577l11.083-4.717l4.438,1.962l9.282-6.824L140.19,425.548z M20.875,508.293l2.782,3.862l4.213-0.1
		l3.673,5.204l5.438,3.763l-0.972,1.314l-5.555,1.351l-3.665-4.474l-1.476-3.224l-5.591-1.071l-1.018-1.692L20.875,508.293z
		 M43.185,572.339l-4.673,0.892l-3.637-3.745l-2.926-4.79l7.167-0.333l4.88,2.701L43.185,572.339z M123.076,627.779l-8.004,4.042
		l-3.205-3.997l-0.153-6.419l7.238-3.772l4.105-1.504l4.618,1.549l2.503,4.564L123.076,627.779z"/>
	<path id="US-AL" fill="#1E3250" stroke="#1E3250" stroke-width="0.5" d="M708.678,342.396l7.311,24.73l6.445,19.744l3.241,6.077
		l1.953,3.457l-2.421,3.926l-0.189,6.607l1.404,3.728v3.664l-0.072,3.403l1.423,2.476l1.161,2.305l-35.948,4.087l-9.983,2.134
		l-0.136,1.585l4.501,4.609l-0.549,4.132l-1.026,2.935l-16.016-0.873l-3.17-31.267l0.288-32.924l0.739-26.693l-1.54-3.844
		l21.066-1.954L708.678,342.396z"/>
	<path id="US-AR" fill="#1E3250" stroke="#1E3250" stroke-width="0.5" d="M639.535,327.488l-0.055,1.701l-1.484,2.989l-2.782,2.179
		l-0.414,3.421l-2.467,2.854l0.585,5.924l-1.791,2.025l-0.217,1.639l-2.908,1.71l0.117,2.962l-1.926,5.601l-1.891,1.278
		l-2.836,2.952l-1.567,4.312l-3.33,7.338l-0.136,4.87l2.26,5.267l-0.611,4.069l-14.612,0.018l-18.834,1.405l-16.682,0.404
		l0.746-11.649h-3.97l-3.322,0.334l-0.928-1.324l0.189-17.915l0.019-19.897l-3.646-21.543l20.04-0.144l18.223-0.576l17.384-0.801
		l18.825,0.153l1.539,2.43l-1.719,2.314l-1.711,2.323l-0.891,2.089L639.535,327.488z"/>
	<path id="US-AZ" fill="#1E3250" stroke="#1E3250" stroke-width="0.5" d="M321.518,295.888l-16.557,114.725l-34.562-5.276
		l-36.894-21.337l-23.839-14.989l2.368-3.529l2.25,0.495l2.701-3.628l-2.413-3.385l0.027-3.133l-0.135-3.718l4.231-3.925
		l3.223-8.904l5.896-3.088l-2.359-4.493l-1.368-4.213l-0.639-3.79l-0.342-2.9l0.036-1.863l1.828-3.718l0.009-4.087l0.468-3.953
		l0.9-4.303l-0.882-3.044l1.629-2.232l3.412,0.702l2.827,2.062l2.053,1.242l1.692-2.836l0.837-0.522l3.124-16.133l26.001,4.673
		l31.006,5.366L321.518,295.888z"/>
	<path id="US-CA" fill="#1E3250" stroke="#1E3250" stroke-width="0.5" d="M172.547,161.169l-15.998,59.104l22.426,34.301
		l22.336,33.068l21.832,31.294l-0.036,1.863l0.342,2.9l0.639,3.79l1.368,4.213l2.359,4.493l-5.896,3.088l-3.223,8.904l-4.231,3.925
		l0.135,3.718l-0.027,3.133l2.413,3.385l-2.701,3.628l-2.25-0.495l-21.967-2.548l-19.6-2.89l-0.306-7.833l-4.619-12.019
		l-14.756-16.295l-6.455-2.449l-5.51-8.112l-12.541-5.014l-3.286-4.34l1.026-11.343l-9.93-24.191l-5.051-31.096l1.909-4.367
		l-4.871-8.526l-6.779-20.004l2.926-16.529l-4.573-13.172l8.436-15.088l4.835-16.844L172.547,161.169z"/>
	<path id="US-CO" fill="#1E3250" stroke="#1E3250" stroke-width="0.5" d="M439.5,246.777l-1.935,31.394l-2.008,29.907l-15.71-1.198
		l-19.536-1.665l-27.702-2.782l-25.694-3.097l-25.397-3.448l11.56-80.891l15.368,2.125l15.377,1.963l30.816,3.403l15.44,1.45
		l30.816,2.395l-1.359,19.789L439.5,246.777z"/>
	<path id="US-CT" fill="#1E3250" stroke="#1E3250" stroke-width="0.5" d="M899.169,159.962l3.062,10.75l-0.117,3.133l-6.302,2.764
		l-8.409,3.259l-10.497,7.653l-1.144-2.287l2.773-2.755l-1.604-1.386l-2.997-15.368l11.397-2.548L899.169,159.962z"/>
	<path id="US-DC" fill="#1E3250" stroke="#1E3250" stroke-width="0.5" d="M835.141,243.185l-0.171-1.188l-1.666-1.44l1.063-1.225
		l2.421,1.648L835.141,243.185z"/>
	<path id="US-DE" fill="#1E3250" stroke="#1E3250" stroke-width="0.5" d="M856.036,217.527l-1.801,2.602l1.278,3.736l5.69,9.975
		l6.6,9.183l-10.426,2.395L850.5,220.3l0.818-1.836l1.18-1.207L856.036,217.527z"/>
	<path id="US-FL" fill="#1E3250" stroke="#1E3250" stroke-width="0.5" d="M791.504,419.102l4.699,14.477l9.525,15.602l10.669,13.928
		l1.377,7.968l11.596,19.581l4.024,18.195l-0.729,18.519l-7.256,4.996l-9.679-0.954l-4.447-8.57l-7.868-3.61l-12.595-16.196
		l-11.272-13.676l-3.115-9.633l1.27-12.946l-5.833-10.856L758.49,445.3l-11.209-6.401l-18.995,11.119l-4.79-5.258l-17.853-7.355
		l-19.852,4.591l1.026-2.935l0.549-4.132l-4.501-4.609l0.136-1.585l9.983-2.134l35.948-4.087l3.35,5.177l17.871-1.351l29.052-1.054
		l1.854,3.358l1.999-2.179l-1.054-7.076l2.008-1.026l3.719,0.954L791.504,419.102z"/>
	<path id="US-GA" fill="#1E3250" stroke="#1E3250" stroke-width="0.5" d="M751.252,337.049l-1.594,1.944l-2.133,4.214l4.996,2.729
		l3.088,0.81l4.06,5.951l2.54,3.295l6.607,3.916l1.548,2.341l4.529,2.674l2.736,4.511l6.096,3.223l1.963,4.43l1.377,2.079
		l-0.352,1.585l3.557,1.692l2.322,3.521l0.604,3.862l1.711,0.485l3.133,0.55l-5.086,16.105l-1.45,12.137l-3.771,0.216l-3.719-0.954
		l-2.008,1.026l1.054,7.076l-1.999,2.179l-1.854-3.358l-29.052,1.054l-17.871,1.351l-3.35-5.177l-1.161-2.305l-1.423-2.476
		l0.072-3.403v-3.664l-1.404-3.728l0.189-6.607l2.421-3.926l-1.953-3.457l-3.241-6.077l-6.445-19.744l-7.311-24.73l12.91-1.35
		l8.886-1.332L751.252,337.049z"/>
	<path id="US-HI" fill="#1E3250" stroke="#1E3250" stroke-width="0.5" d="M366.694,530.143l-2.737,0.091l-1.576-2.144l-0.81-3.916
		l2.017-0.702l2.952,0.469l2.98,2.584l-0.153,1.467L366.694,530.143z M382.476,555.612l-0.594,3.133l-2.692-1.233l-0.557-2.188
		l-0.937-0.432l-0.433-0.09l-1.729-1.468l0.945-5.672l2.214,1.441l3.376,0.306l-0.9,4.808L382.476,555.612z M392.776,571.088
		l-3.188-0.162l-5.276-5.545l1.926-1.27L392.776,571.088z M393.126,574.248l0.342,3.124l2.971,1.449l1.764,5.168l-0.818,1.197
		l-2.116,0.026l-4.663-2.7l1.278-3.674l-1.639-1.782l0.342-2.772l1.441-0.667L393.126,574.248z M385.618,614.392l-2.971,1.188
		l-2.414-4.42l3.484-4.771l2.026-7.221l6.274-1.44l0.748-3.079l1.324-1.17l0.784,0.225l5.708,11.065l0.243,2.998l-1.17,2.133
		l0.909,1.08l-0.477,1.711l0.747,3.412l-5.914,0.396l-4.34-1.898L385.618,614.392z"/>
	<path id="US-IA" fill="#1E3250" stroke="#1E3250" stroke-width="0.5" d="M605.586,176.482l0.27,1.108l2.115,3.142l-1.251,1.621
		l0.278,4.294l0.712,1.792l1.144,3.196l5.032,1.684l1.647,3.034l0.973,1.503l1.854,0.937l0.855,2.161l2.484,1.485l1.684,1.666
		l-0.468,5.537l-2.539,4.799l-0.937,1.531l-3.43,1.386l-5.212,1.305l-1.189,3.583l1.999,1.486l0.828,3.124l-1.827,3.646
		l-0.864,3.151l-3.826,3.241l-0.127,3.736l-2.215-1.593l-3.132-3.169L583.456,237l-17.907,0.667l-13.954,0.27l-13.98,0.09
		l-1.036-3.7l0.433-3.655l-0.342-3.521l-1.594-5.896l-1.018-2.44l-1.107-0.666l-0.107-4.726l-0.955-3.386l-2.764-3.862l0.045-1.693
		l-0.954-3.376l-0.667-2.043l0.027-1.873l-2.431-2.286l1.233-3.349l0.802-3.277l0.368-2.224l-1.898-2.728l0.054-4.997h1.98
		l16.305,0.019l20.265-0.567l21.769-0.783L605.586,176.482z"/>
	<path id="US-ID" fill="#1E3250" stroke="#1E3250" stroke-width="0.5" d="M313.856,139.391l0.459,0.45l-8.409,50.245l-44.799-8.066
		l-44.591-9.885l8.643-35.76l2.593-5.375l-0.549-2.881l-2.368-1.98l0.792-3.188l3.079-4.06l3.997-3.232l3.529-5.996l3.097-4.718
		l2.026-2.287l-0.054-3.214l-1.98-2.17l-2.404-4.627l0.954-3.538l-0.558-3.358l6.194-28.089l6.005-25.767l13.108,2.989l-3.673,21.49
		l2.395,6.158l-0.81,3.637l1.836,3.781l2.755,2.602l1.629,3.619l2.521,7.059l2.971,3.682l4.15,1.053l-2.449,4.16l-2.449,5.032
		l0.108,5.429l-1.909,0.963l-0.918,5.195l2.116,2.512l3.286-1.827l2.017-2.548l1.602,0.9l1.144,3.106l0.369,6.698l2.035,3.016
		l-0.117,5.447l0.585,1.638l2.827,1.062l1.216,3.268l1.566,5.726l3.187-2.305l4.601,1.612l0.747-1.917l7.932,2.719l3.43-0.072
		l2.755-3.664l1.468,0.819l0.927,3.079L313.856,139.391z"/>
	<path id="US-IL" fill="#1E3250" stroke="#1E3250" stroke-width="0.5" d="M658.396,193.327v0.054l0.594,5.294l5.087,10.326l0,0l0,0
		l2.188,23.57l2.179,23.542l-1.269,5.825l1.439,1.369l1.162,3.394l0.135,2.746l-1.225,1.36l-0.847,3.475l-2.916,4.736l-1.765,5.663
		l-0.153,4.159l0.243,1.504l-1.584,2.988l1.548,1.8l-2.719,1.729l-3.529,2.017l0.999,4.393l-1.998,1.855l-4.088-1.566l-4.42-0.766
		l-0.954,2.062l0.864,3.034l-3.134-2.944l-1.72,0.657l-2.448-4.852l0.378-3.097l-1.557-4.844l-1.675-0.486l-4.538-4.186
		l-1.836,0.045l-3.376-2.665l-2.468-2.917l0.811-3.646l1.296-3.062l0.667-3.816l-3.241-3.088l-2.936,1.503l-1.862-0.748
		l-0.459-3.394l-1.55-3.799l-1.512-0.847l-3.799-2.539l-3.197-3.304l-2.826-4.06l-1.701-6.032l1.106-5.141l0.127-3.736l3.826-3.241
		l0.864-3.151l1.827-3.646l-0.828-3.124l-1.999-1.486l1.189-3.583l5.212-1.305l3.43-1.386l0.937-1.531l2.539-4.799l0.468-5.537
		l-1.684-1.666l-2.484-1.485l-0.855-2.161l-1.854-0.937l-0.973-1.503l15.422-0.99l15.765-1.162l11.631-0.819l-0.009-0.054H658.396z"
		/>
	<path id="US-IN" fill="#1E3250" stroke="#1E3250" stroke-width="0.5" d="M705.571,205.121l2.215,18.357l2.322,19.744l1.639,14.053
		l-0.783,1.072l1.792,3.979l-0.495,1.584l-2.665,0.36l-2.269,2.089l-3.844-0.289l0.116,3.935l-2.071,1.747l-1.701,3.727
		l-2.196,0.892l-2.854,6.428l-3.447-1.386l-1.27-2.376l-2.367,4.339l-1.55,2.449l-3.699-2.035l-3.512,2.305l-1.025,2.098
		l-5.258-2.62l-3.25,2.548l-4.295-1.197l0.035,2.26l-2.133-0.343l0.153-4.159l1.765-5.663l2.916-4.736l0.847-3.475l1.225-1.36
		l-0.135-2.746l-1.162-3.394l-1.439-1.369l1.269-5.825l-2.179-23.542l-2.188-23.57l0,0l1.53,1.242l5.177-0.612l3.89-2.647l0,0
		l16.395-1.657l14.296-1.791L705.571,205.121z"/>
	<path id="US-KS" fill="#1E3250" stroke="#1E3250" stroke-width="0.5" d="M556.996,311.031l-14.368,0.171l-29.475-0.099
		l-29.484-0.675l-16.368-0.622l-16.349-0.81l-15.395-0.918l2.008-29.907l1.935-31.394h0.027l27.405,1.558l20.399,0.819l36.12,0.729
		h21.625l3.754,2.691l2.044-0.062l0.486,2.953l-2.179,3.808l1.225,1.927l2.007,4.267l4.204,1.873l0.163,21.868L556.996,311.031z"/>
	<path id="US-KY" fill="#1E3250" stroke="#1E3250" stroke-width="0.5" d="M749.046,266.439l0.586,1.873l0.45,4.204l2.376,2.873
		l1.233,2.943l2.737,2.269l1.98,2.196l3.188-0.107l-5.528,6.995l-4.69,3.115l-0.153,1.692l-1.404,2.386l-4.096,3.052l-1.18,2.17
		l-3.179,1.729l-4.546,1.792l-10.965,2.134l-14.514,0.918l-4.673,0.802l-9.452,0.485l-9.597,0.855l-8.832,0.774l-10.201,1.531
		l-0.611-0.883l-3.251,0.333l0.334,3.196l-23.497,1.684l3.528-2.413l2.477-1.891l-0.559-3.177l0.36-2.08l-0.864-3.034l0.954-2.062
		l4.42,0.766l4.088,1.566l1.998-1.855l-0.999-4.393l3.529-2.017l2.719-1.729l-1.548-1.8l1.584-2.988l-0.243-1.504l2.133,0.343
		l-0.035-2.26l4.295,1.197l3.25-2.548l5.258,2.62l1.025-2.098l3.512-2.305l3.699,2.035l1.55-2.449l2.367-4.339l1.27,2.376
		l3.447,1.386l2.854-6.428l2.196-0.892l1.701-3.727l2.071-1.747l-0.116-3.935l3.844,0.289l2.269-2.089l2.665-0.36l0.495-1.584
		l-1.792-3.979l0.783-1.072l5.466-0.208l3.043,1.594l4.807,4.024l3.547,0.981l2.665,1.306l3.7-1.08l2.953,0.774l3.241-1.593
		l2.953-0.783l1.675,2.646L749.046,266.439z"/>
	<path id="US-LA" fill="#1E3250" stroke="#1E3250" stroke-width="0.5" d="M618.082,390.58l1.295,1.107l-1.412,3.043l2.736,4.078
		l-0.576,2.575l2.439,3.402l-2.305,2.233l-0.594,3.916l-3.215,3.376l-1.359,4.385l-1.35,5.032l-2.044,2.403l0.963,5.096l15.647-0.18
		l16.683-1.018l-0.271,3.448l-0.945,3.448l1.306,2.521l2.503,2.225l0.873,3.357l0.477,2.017l-1.467,8.715l6.5,11.965l-24.865,2.439
		l-15.603-3.402l-10.614-3.781l-13.811-2.161l-15.629-0.17l-1.549-2.692l1.755-3.07l2.62-2.79l-0.054-4.115l-1.341-1.342l1.431-4.96
		l1.081-2.26l1.512-7.571l-1.647-2.765l-2.16-4.627l-1.62-4.727l-1.054-3.15l-2.926-2.251l-1.539-21.923l16.682-0.404l18.834-1.405
		L618.082,390.58z"/>
	<path id="US-MA" fill="#1E3250" stroke="#1E3250" stroke-width="0.5" d="M908.883,139.157l2.827,10.479l7.824,9.039l6.229-1.278
		l-3.628-6.716l5.672,3.069l0.468,5.952l-9.021,6.067l-7.212,1.63l-1.251-2.89l-2.953-1.611l-2.529-4.862l-6.141,1.927
		l-13.837,3.214l-11.397,2.548l-0.307-14.468l12.137-2.809l17.636-4.609l0.964-2.368l2.701-2.197L908.883,139.157z"/>
	<path id="US-MD" fill="#1E3250" stroke="#1E3250" stroke-width="0.5" d="M850.5,220.3l6.878,25.118l10.426-2.395l1.296,1.594
		l-4.456,8.219l-3.584,1.144l-0.927,1.647l-10.138-7.725l-3.979-14.81l-1.018,7.581l3.997,17.213l-10.722-3.898l-1.514-2.611
		l-2.376,1.404l-2.313-0.657l0.854-4.825l2.278-2.44l-0.063-1.674l1.647-2.206l-2.421-1.648l-1.063,1.225l-3.367-1.621l-3.538-0.522
		l0.694-2.386l-2.368-1.08l-2.422-0.207l-1.737-2.305l-2.467-2.476l-5.104-0.63l-2.684,2.098l-1.404,1.819l-4.735,0.081
		l-1.675,2.494l-2.935,1.377l-2.242,2.809l-2.062,2.242l-1.737-10.219l14.378-2.691l4.897-1l10.948-2.296l13.207-2.692L850.5,220.3z
		"/>
	<path id="US-ME" fill="#1E3250" stroke="#1E3250" stroke-width="0.5" d="M910.072,134.034l-1.468,0.63l-1.449-2.557l-3.484-2.169
		l-0.009-2.098l-11.965-35.427l4.78-5.077l2.322-10.407l-0.314-16.62l5.852-18.015l6.05,3.835l7.958-6.148l7.77,3.781l8.571,26.766
		l12.596,8.13l2.916,8.237L938.62,97.491l-12.234,8.868l-12.596,16.628L910.072,134.034z"/>
	<path id="US-MI" fill="#1E3250" stroke="#1E3250" stroke-width="0.5" d="M697.027,105.666L697.027,105.666l4.79,0.027l0,0
		l-1.531,2.26l8.13,7.211l-12.298,3.466l-0.486-0.036l-11.47-0.81l-10.686,5.33l-9.553,2.845l-7.211,13.847l-0.388-0.108
		l-0.009,0.036l-2.151-2.242l0.765-3.394l-3.195,0.108l0.36-3.385l0.729-1.729l-1.53-2.764l-3.502-1l-1.08-3.304l-2.81-0.027
		l-4.042,0.306l-8.525-3.052l-12.73-2.809l-1.387-3.628l-2.269-0.531l-0.018-0.063l-0.855,0.477l-0.136-0.099l0.127,0.09
		l10.587-5.96l10.804-7.518l11.784-7.859l-3.556,11.245l8.22,1.917l10.704,6.87l12.082-5.879l13.648-3.385l3.655,5.375l4.42,0.288
		L697.027,105.666z M738.036,173.503L738.036,173.503l-0.333,0.324l-5.385,12.172l-2.286,7.562l0,0l-4.088,8.544l0,0l-5.698,0.963
		l-6.914,0.909l-7.761,1.134l-0.207-1.584l-14.296,1.792l-16.395,1.657l0,0l0,0l2.791-3.133l5.096-10.56l-1.036-13.469
		l-6.274-12.073l-0.172-8.724l2.756-10.417l2.881-7.256l5.239-5.546l2.143,6.689l1.369-10.371l2.926-2.458l1.062-8.003l12.677,2.539
		l11.703,6.5l2.476,9.075l-0.026,9.453l-6.941,9.237l1.44,5.015l2.953-0.225l7.859-10.209l5.717,1.242l4.402,11.362l1.99,8.192
		L738.036,173.503z"/>
	<path id="US-MN" fill="#1E3250" stroke="#1E3250" stroke-width="0.5" d="M623.303,82.394l-0.009,0.009l-13.738,7.734l-9.479,8.805
		l-9.147,9.156l0.09,3.025l-3.691,1.305l0.622,11.542h-0.45l-3.458,2.413l-2.988,2.089l-1.918,3.853l3.169,3.745l-0.918,5.204
		l0.189,5.573l-0.288,4.529l4.42,3.79l1.756,0.117l4.87,2.719l1.711,1.314l1.134,2.16l3.881,3.35l5.149,2.782l0.567,1.666
		l0.297,4.925l0.514,2.286l-19.564,0.514l-21.769,0.783l-20.265,0.567l-16.305-0.019l0.297-19.158l-1.665-19.671l-2.521-1.621
		l-1.404-3.187l0.801-2.782l3.242-2.278l0.27-2.989l0.027-3.745l-0.874-3.133l-1.17-3.349l-0.657-4.195l-0.135-4.699l-0.468-1.135
		l-0.522-6.059l-0.027-2.782l-0.252-2.476l-0.657-4.196l-1.647-4.267l-1.566-3.808l-0.189-3.763l-0.126-4.061l0.504-2.647
		l0.117-2.412l-1.242-3.007l-0.172-2.043l28.297,0.081l-0.045-7.986l4.601-0.162l2.575,11.38l4.329,3.448l9.634,1.062l14.162,2.854
		l13.675,5.852l11.056-3.286l17.366,4.285H623.303z"/>
	<path id="US-MO" fill="#1E3250" stroke="#1E3250" stroke-width="0.5" d="M605.792,240.628l-1.106,5.141l1.701,6.032l2.826,4.06
		l3.197,3.304l3.799,2.539l1.512,0.847l1.55,3.799l0.459,3.394l1.862,0.748l2.936-1.503l3.241,3.088l-0.667,3.816l-1.296,3.062
		l-0.811,3.646l2.468,2.917l3.376,2.665l1.836-0.045l4.538,4.186l1.675,0.486l1.557,4.844l-0.378,3.097l2.448,4.852l1.72-0.657
		l3.134,2.944l-0.36,2.08l0.559,3.177l-2.477,1.891l-3.528,2.413l-0.289,1.999l-0.801,2.98l-0.937,5.06l-10.803,0.711l0.891-2.089
		l1.711-2.323l1.719-2.314l-1.539-2.43l-18.825-0.153l-17.384,0.801l-18.223,0.576l-20.04,0.144l0.036-9.381h-0.082l-0.215-21.823
		l-0.163-21.868l-4.204-1.873l-2.007-4.267l-1.225-1.927l2.179-3.808l-0.486-2.953l-2.044,0.062l-3.754-2.691l-2.07-4.349
		l-2.44-2.602l-2.638-3.223l-0.314-1.684l13.98-0.09l13.954-0.27L583.456,237l16.989-1.134l3.132,3.169L605.792,240.628z"/>
	<path id="US-MS" fill="#1E3250" stroke="#1E3250" stroke-width="0.5" d="M666.094,346.395l1.54,3.844l-0.739,26.693l-0.288,32.924
		l3.17,31.267l-10.552,5.501l-10.291,0.423l-0.477-2.017l-0.873-3.357l-2.503-2.225l-1.306-2.521l0.945-3.448l0.271-3.448
		l-16.683,1.018l-15.647,0.18l-0.963-5.096l2.044-2.403l1.35-5.032l1.359-4.385l3.215-3.376l0.594-3.916l2.305-2.233l-2.439-3.402
		l0.576-2.575l-2.736-4.078l1.412-3.043l-1.295-1.107l0.611-4.069l-2.26-5.267l0.136-4.87l3.33-7.338l1.567-4.312l2.836-2.952
		l1.891-1.278l1.926-5.601l-0.117-2.962l2.908-1.71l0.217-1.639l16.528-1.152L666.094,346.395z"/>
	<path id="US-MT" fill="#1E3250" stroke="#1E3250" stroke-width="0.5" d="M419.316,122.834l-2.413,18.708l-24.155-2.593
		l-26.063-2.961l-22.426-3.287l-28.359-4.285l-1.657,10.299l-0.387,0.675l-1.387-1.377l-0.927-3.079l-1.468-0.819l-2.755,3.664
		l-3.43,0.072l-7.932-2.719l-0.747,1.917l-4.601-1.612l-3.187,2.305l-1.566-5.726l-1.216-3.268l-2.827-1.062l-0.585-1.638
		l0.117-5.447l-2.035-3.016l-0.369-6.698l-1.144-3.106l-1.602-0.9l-2.017,2.548l-3.286,1.827l-2.116-2.512l0.918-5.195l1.909-0.963
		l-0.108-5.429l2.449-5.032l2.449-4.16l-4.15-1.053l-2.971-3.682l-2.521-7.059l-1.629-3.619l-2.755-2.602l-1.836-3.781l0.81-3.637
		l-2.395-6.158l3.673-21.49l40,8.256l40.261,6.932l40.467,5.609l40.63,4.276l-3.168,37.857L419.316,122.834z"/>
	<path id="US-NC" fill="#1E3250" stroke="#1E3250" stroke-width="0.5" d="M863.491,283.77l6.788,19.42l-7.122,17.132l-14.575,11.173
		l-12.217,13l-5.699,2.35l-22.246-15.521l-18.491,3.034l-0.352-2.359l-3.169-2.979l-1.449,1.611l-0.424-1.756l-7.913,0.333
		l-15.331,2.215l-8.464,4.789l-1.575,0.838l-20.778,2.665l-0.189-4.34l3.358-1.737l0.854-2.323l2.026-2.773l3.286-0.991l3.763-1.467
		l3.529-2.277l1.378-2.017l2.908-2.071l-0.298-1.45l3.736-3.349l1.594,1.584l5.482-4.727l2.89-0.036l1.99-3.782l3.187-1.395
		l-0.63-2.854l0.009-2.602l27.558-3.736l32.285-6.014l17.051-3.701L863.491,283.77z"/>
	<path id="US-ND" fill="#1E3250" stroke="#1E3250" stroke-width="0.5" d="M517.645,64.865l0.172,2.043l1.242,3.007l-0.117,2.412
		l-0.504,2.647l0.126,4.061l0.189,3.763l1.566,3.808l1.647,4.267l0.657,4.196l0.252,2.476l0.027,2.782l0.522,6.059l0.468,1.135
		l0.135,4.699l0.657,4.195l1.17,3.349l0.874,3.133l-0.027,3.745l-27.324,0.675l-23.316-0.882l-29.395-1.558l-27.351-2.043
		l1.495-25.019l3.168-37.857l47.203,3.367L517.645,64.865z"/>
	<path id="US-NE" fill="#1E3250" stroke="#1E3250" stroke-width="0.5" d="M527.548,199.062l0.667,2.043l0.954,3.376l-0.045,1.693
		l2.764,3.862l0.955,3.386l0.107,4.726l1.107,0.666l1.018,2.44l1.594,5.896l0.342,3.521l-0.433,3.655l1.036,3.7l0.314,1.684
		l2.638,3.223l2.44,2.602l2.07,4.349h-21.625l-36.12-0.729l-20.399-0.819l-27.405-1.558H439.5l0.036-0.657l1.359-19.789
		l-30.816-2.395l3.493-40.675l29.26,2.278l22.507,1.333l30.115,1.188l3.817,2.691l5.5,1.765l1.314-0.909l3.584,0.145l5.383-0.118
		l3.862,2.683l4.124,1.747l0.675,1.71l1.297,0.99L527.548,199.062z"/>
	<path id="US-NH" fill="#1E3250" stroke="#1E3250" stroke-width="0.5" d="M910.072,134.034l-1.189,5.123l-1.817,0.117l-2.701,2.197
		l-0.964,2.368l-17.636,4.609l-1.711-1.747l0.468-2.872l-1.026-5.285l0.118-1.36l-0.758-4.808l0.522-4.375l0.712-2.044l0.44-5.15
		l-0.53-3.276l-0.046-2.053l2.485-1.702l2.548-3.169l-0.117-2.61l-1.827-2.548l0.161-5.842l-0.027-0.009l0.046-5.267l4.475-1.917
		l11.965,35.427l0.009,2.098l3.484,2.169l1.449,2.557L910.072,134.034z"/>
	<path id="US-NJ" fill="#1E3250" stroke="#1E3250" stroke-width="0.5" d="M873.178,188.97l-2.809,10.93l4.006-0.063l0.892,14.936
		l-7.544,17.979l-2.359-4.834l-3.637-0.234l-4.907-4.349l-1.306,0.532l-1.278-3.736l1.801-2.602l2.72-2.548l0.81-1.495l3.007-3.484
		l1.449-2.629l-6.004-4.015l-0.757-2.044l-1.792-0.234l-0.675-3.214l1.197-2.845l-1.413-2.403l1.999-2.314l1.575-5.068l1.62-1.314
		L873.178,188.97z"/>
	<path id="US-NM" fill="#1E3250" stroke="#1E3250" stroke-width="0.5" d="M419.847,306.88l-0.756,10.102l-4.124,53.396l-2.971,38.46
		l-16.187-1.332l-31.367-3.062l-15.656-1.765l-0.018,1.765l1.576,3.484l-30.007-3.771l-1.359,8.372l-14.018-1.917l16.557-114.725
		l25.397,3.448l25.694,3.097l27.702,2.782L419.847,306.88z"/>
	<path id="US-NV" fill="#1E3250" stroke="#1E3250" stroke-width="0.5" d="M261.108,182.02l-20.067,100.094l-3.124,16.133
		l-0.837,0.522l-1.692,2.836l-2.053-1.242l-2.827-2.062l-3.412-0.702l-1.629,2.232l0.882,3.044l-0.9,4.303l-0.468,3.953
		l-0.009,4.087l-1.828,3.718l-21.832-31.294l-22.336-33.068l-22.426-34.301l15.998-59.104l43.952,11.02l0.018-0.054L261.108,182.02z
		"/>
	<path id="US-NY" fill="#1E3250" stroke="#1E3250" stroke-width="0.5" d="M873.628,151.257l0.307,14.468l2.997,15.368l1.604,1.386
		l-2.773,2.755l1.144,2.287l20.508-8.157l5.43,2.548l-19.465,11.451l-9.605,2.458l-0.595-6.852l-13.405-5.051l-2.755-0.828
		l-2.871-0.783l-1.648-2.665l-0.116-2.287l-2.197-1.386l-3.961-2.377l-20.229,4.475l-21.761,4.51l-23.371,4.43l-0.99-5.456
		l10.561-14.36l-0.648-1.873l-0.009-0.054l-3.115-5.429l7.176-3.997l11.667-1.549l12.343-0.837l9.508-8.985l-2.584-7.599
		l-2.331-2.755l-0.063-0.018l0.009-0.009l0.063,0.027l11.748-16.998l5.555-5.186l21.472-5.42l0.738,4.105l0.081,2.709l1.847,5.816
		l1.557,2.836l-0.396,4.475l2.639,4.861l-0.189,3.115l0.459,0.685l2.106-0.378L873.628,151.257z"/>
	<path id="US-OH" fill="#1E3250" stroke="#1E3250" stroke-width="0.5" d="M774.164,216.393l-1.953,1.368l1.09,2.449l0.071,4.762
		l-0.702,5.51l-0.774,4.6l0.091,2.116l-3.476,5.302l-1.647,1.279l-2.018,0.909l-1.962-0.144l-2.943,4.024l-0.063,3.736l-0.181,2.043
		l-1.278,1.017l-0.549-2.214l-2.205-0.162l-1.55,4.718l0.433,4.51l-1.639,3.115l-3.862,1.107l-3.249-1.503l-1.675-2.646
		l-2.953,0.783l-3.241,1.593l-2.953-0.774l-3.7,1.08l-2.665-1.306l-3.547-0.981l-4.807-4.024l-3.043-1.594l-5.466,0.208
		l-1.639-14.053l-2.322-19.744l-2.215-18.357l7.761-1.134l6.914-0.909l5.698-0.972l0,0v0.009l9.967,2.854l7.733-0.09l10.578-4.402
		l8.049-7.041l7.292-4.024L774.164,216.393z"/>
	<path id="US-OK" fill="#1E3250" stroke="#1E3250" stroke-width="0.5" d="M557.042,320.412l3.646,21.543l-0.019,19.897
		l-0.189,17.915l-7.418-3.907l-4.808-2.124l-3.871,1.413l-6.005-0.189l-3.557,0.036l-2.926,1.666l-2.862,0.846l-2.503-1.018
		l-5.717,1.072l-2.557-3.439l-2.701,2.926l-4.646-1.387l-4.727-3.259l-5.168,1.944l-2.124-4.979l-7.94,0.279l-5.032-1.252
		l-5.654-1.647l-2.368-4.33l-4.51,1.198l-2.692-1.783l-3.943-2.368l0.864-19.5l0.873-19.996l-16.475-0.818l-16.475-0.991
		l-16.449-1.179l0.756-10.102l15.71,1.198l15.395,0.918l16.349,0.81l16.368,0.622l29.484,0.675l29.475,0.099l14.368-0.171h0.082
		L557.042,320.412z"/>
	<path id="US-OR" fill="#1E3250" stroke="#1E3250" stroke-width="0.5" d="M236.917,92.648l2.404,4.627l1.98,2.17l0.054,3.214
		l-2.026,2.287l-3.097,4.718l-3.529,5.996l-3.997,3.232l-3.079,4.06l-0.792,3.188l2.368,1.98l0.549,2.881l-2.593,5.375l-8.643,35.76
		l-0.018,0.054l-43.952-11.02l-61.625-18.348l-1.135-12.424l11.092-19.491l8.04-21.706l11.893-28.782l2.908,0.622l4.132,1.404
		l2.764,2.817l3.628,2.35l1.404,4.538l-0.639,3.412l0.189,3.07l2.971,1.71l3.421,0.955l5.969-0.513l3.322,0.279l4.708,2.269
		l1.891,1.656l3.106,0.117l3.61-0.72l6.194,1.99l5.753-0.801l3.142-0.891l3.313,1.809l5.527-0.783L236.917,92.648z"/>
	<path id="US-PA" fill="#1E3250" stroke="#1E3250" stroke-width="0.5" d="M859.772,183.919l-1.62,1.314l-1.575,5.068l-1.999,2.314
		l1.413,2.403l-1.197,2.845l0.675,3.214l1.792,0.234l0.757,2.044l6.004,4.015L862.572,210l-3.007,3.484l-0.81,1.495l-2.72,2.548
		l-3.538-0.27l-1.18,1.207L850.5,220.3l-13.549,3.052l-13.207,2.692l-10.948,2.296l-4.897,1l-14.378,2.691l-16.169,2.881
		l-3.188-18.519l-4.601-26.981l0,0l10.281-7.824l0.027-0.036l0.99,5.456l23.371-4.43l21.761-4.51l20.229-4.475l3.961,2.377
		l2.197,1.386l0.116,2.287l1.648,2.665l2.871,0.783L859.772,183.919z"/>
	<path id="US-RI" fill="#1E3250" stroke="#1E3250" stroke-width="0.5" d="M912.043,167.399l-9.93,6.446l0.117-3.133l-3.062-10.75
		l6.141-1.927l2.529,4.862l2.953,1.611L912.043,167.399z"/>
	<path id="US-SC" fill="#1E3250" stroke="#1E3250" stroke-width="0.5" d="M830.666,346.844l-3.916,15.404l-12.541,15.232
		l-16.169,13.379l-3.133-0.55l-1.711-0.485l-0.604-3.862l-2.322-3.521l-3.557-1.692l0.352-1.585l-1.377-2.079l-1.963-4.43
		l-6.096-3.223l-2.736-4.511l-4.529-2.674l-1.548-2.341l-6.607-3.916l-2.54-3.295l-4.06-5.951l-3.088-0.81l-4.996-2.729l2.133-4.214
		l1.594-1.944l1.575-0.838l8.464-4.789l15.331-2.215l7.913-0.333l0.424,1.756l1.449-1.611l3.169,2.979l0.352,2.359l18.491-3.034
		L830.666,346.844z"/>
	<path id="US-SD" fill="#1E3250" stroke="#1E3250" stroke-width="0.5" d="M527.684,178.328h-1.98l-0.054,4.997l1.898,2.728
		l-0.368,2.224l-0.802,3.277l-1.233,3.349l2.431,2.286l-0.027,1.873l-2.538-0.297l-1.297-0.99l-0.675-1.71l-4.124-1.747
		l-3.862-2.683l-5.383,0.118l-3.584-0.145l-1.314,0.909l-5.5-1.765l-3.817-2.691l-30.115-1.188l-22.507-1.333l-29.26-2.278
		l3.332-41.719l2.413-18.708l27.351,2.043l29.395,1.558l23.316,0.882l27.324-0.675l-0.27,2.989l-3.242,2.278l-0.801,2.782
		l1.404,3.187l2.521,1.621l1.665,19.671L527.684,178.328z"/>
	<path id="US-TN" fill="#1E3250" stroke="#1E3250" stroke-width="0.5" d="M736.82,305.62l24.335-2.827l8.192-1.683l-0.009,2.602
		l0.63,2.854l-3.187,1.395l-1.99,3.782l-2.89,0.036l-5.482,4.727l-1.594-1.584l-3.736,3.349l0.298,1.45l-2.908,2.071l-1.378,2.017
		l-3.529,2.277l-3.763,1.467l-3.286,0.991l-2.026,2.773l-0.854,2.323l-3.358,1.737l0.189,4.34l-8.886,1.332l-12.91,1.35
		l-21.518,2.044l-21.066,1.954l-18.438,1.035l-16.528,1.152l1.791-2.025l-0.585-5.924l2.467-2.854l0.414-3.421l2.782-2.179
		l1.484-2.989l0.055-1.701l0.937-5.06l0.801-2.98l0.289-1.999l23.497-1.684l-0.334-3.196l3.251-0.333l0.611,0.883l10.201-1.531
		l8.832-0.774l9.597-0.855l9.452-0.485l4.673-0.802l14.514-0.918L736.82,305.62z"/>
	<path id="US-TX" fill="#1E3250" stroke="#1E3250" stroke-width="0.5" d="M560.48,379.768l0.928,1.324l3.322-0.334h3.97
		l-0.746,11.649l1.539,21.923l2.926,2.251l1.054,3.15l1.62,4.727l2.16,4.627l1.647,2.765l-1.512,7.571l-1.081,2.26l-1.431,4.96
		l1.341,1.342l0.054,4.115l-2.62,2.79l-1.755,3.07l1.549,2.692l-15.323,4.627l-16.385,15.485l-18.194,8.912l-10.139,9.805
		l-4.384,9.281l-0.396,14.352l0.784,10.02l3.483,7.157l-7.382,0.513l-13.307-4.87l-14.485-6.896l-4.907-9.967l-3.538-14.702
		l-10.39-12.279l-5.752-12.425l-8.364-14.62l-12.226-8.958l-14.72-0.585l-12.595,15.432l-14.504-7.428l-8.75-7.059l-3.386-11.722
		l-4.852-11.29l-9.57-10.092l-8.274-7.437l-5.545-7.977l-1.576-3.484l0.018-1.765l15.656,1.765l31.367,3.062l16.187,1.332
		l2.971-38.46l4.124-53.396l16.449,1.179l16.475,0.991l16.475,0.818l-0.873,19.996l-0.864,19.5l3.943,2.368l2.692,1.783l4.51-1.198
		l2.368,4.33l5.654,1.647l5.032,1.252l7.94-0.279l2.124,4.979l5.168-1.944l4.727,3.259l4.646,1.387l2.701-2.926l2.557,3.439
		l5.717-1.072l2.503,1.018l2.862-0.846l2.926-1.666l3.557-0.036l6.005,0.189l3.871-1.413l4.808,2.124L560.48,379.768z"/>
	<path id="US-UT" fill="#1E3250" stroke="#1E3250" stroke-width="0.5" d="M333.077,214.997l-11.56,80.891l-23.47-3.736
		l-31.006-5.366l-26.001-4.673l20.067-100.094l44.799,8.066l-3.349,19.618L333.077,214.997z"/>
	<path id="US-VA" fill="#1E3250" stroke="#1E3250" stroke-width="0.5" d="M822.303,234.741l2.412,0.216l2.378,1.071l-0.703,2.386
		l3.538,0.522l3.376,1.621l1.656,1.44l0.172,1.188l0.063,1.674l-2.27,2.44l-0.854,4.825l2.313,0.648l2.376-1.404l1.514,2.62
		l12.36,9.021l5.168,8.858l0.314,0.54l7.383,11.353l-17.249,3.89l-17.043,3.7l-32.294,6.015l-27.557,3.744l-8.193,1.684
		l-24.344,2.827l4.556-1.8l3.178-1.729l1.171-2.179l4.096-3.044l1.414-2.385l0.153-1.692l4.69-3.115l5.519-7.004l1.251,3.312
		l2.098,1.54l2.71,1.233l4.69-3.25l2.17,1.098l5.726-2.683l0.045-1.863l1.937,0.405l1.737-1.81l2.286-0.099l2.278-1.999l0.027-1.899
		l-0.694-2.278l1.549-3.862l2.611-3.168l0.251-3.106l2.071-4.06l0.721-4.646l2.376,1.17l2.611,0.999l2.124-1.196l0.415-1.972
		l1.08-2.782l1.206-3.178l1.297,0.621l1.827-3.034l2.557-3.214l1.549-2.368l0.18-5.573l9.03,3.835L822.303,234.741z
		 M857.729,270.292l1.629,0.469l5.294-17.925l-3.593,1.144l-0.927,1.639L857.729,270.292z"/>
	<path id="US-VT" fill="#1E3250" stroke="#1E3250" stroke-width="0.5" d="M885.765,148.448l-12.137,2.809l-3.565-16.521
		l-2.106,0.378l-0.459-0.685l0.189-3.115l-2.639-4.861l0.396-4.475l-1.557-2.836l-1.847-5.816l-0.081-2.709l-0.738-4.105
		l25.955-6.914l0.027,0.009l-0.161,5.842l1.827,2.548l0.117,2.61l-2.548,3.169l-2.485,1.702l0.046,2.053l0.53,3.276l-0.44,5.15
		l-0.712,2.044l-0.522,4.375l0.758,4.808l-0.118,1.36l1.026,5.285l-0.468,2.872L885.765,148.448z"/>
	<path id="US-WA" fill="#1E3250" stroke="#1E3250" stroke-width="0.5" d="M249.513,31.896l-6.005,25.767l-6.194,28.089l0.558,3.358
		l-0.954,3.538l-28.792-6.941l-5.527,0.783l-3.313-1.809l-3.142,0.891l-5.753,0.801l-6.194-1.99l-3.61,0.72l-3.106-0.117
		l-1.891-1.656l-4.708-2.269l-3.322-0.279l-5.969,0.513l-3.421-0.955l-2.971-1.71l-0.189-3.07l0.639-3.412l-1.404-4.538l-3.628-2.35
		l-2.764-2.817l-4.132-1.404l-2.908-0.622l1.53-17.51l3.898-19.645l17.348,9.408l1.216,17.304l4.897-4.231l2.728-16.898
		l-1.278-18.267l39,11.326L249.513,31.896z"/>
	<path id="US-WI" fill="#1E3250" stroke="#1E3250" stroke-width="0.5" d="M613.939,112.607l0.136,0.099l0.847-0.486l0.018,0.063
		l2.277,0.54l1.387,3.628l12.721,2.8l8.535,3.052l4.033-0.297l2.81,0.027l1.08,3.304l3.511,1l1.53,2.764l-0.729,1.729l-0.36,3.385
		l3.195-0.108l-0.765,3.394l2.151,2.242l0.009-0.036l0.388,0.108l-0.117,0.207l-5.033,7.896l2.197,2.242l9.436-14.179l2.169-0.288
		l-6.022,16.466l-1.998,14.54l-1.774,11.803l2.772,9.822l0.055,5.005h-0.055l0.009,0.054L646.72,194.2l-15.765,1.162l-15.422,0.99
		l-1.647-3.034l-5.032-1.684l-1.144-3.196l-0.712-1.792l-0.278-4.294l1.251-1.621l-2.115-3.142l-0.27-1.108l-0.514-2.286
		l-0.297-4.925l-0.567-1.666l-5.149-2.782l-3.881-3.35l-1.134-2.16L592.333,158l-4.87-2.719l-1.756-0.117l-4.42-3.79l0.288-4.529
		l-0.189-5.573l0.918-5.204l-3.169-3.745l1.918-3.853l2.988-2.089l3.458-2.413h0.45l-0.622-11.542l3.691-1.305l0,0l13.964-4.997
		L613.939,112.607z"/>
	<path id="US-WV" fill="#1E3250" stroke="#1E3250" stroke-width="0.5" d="M793.521,232.03l1.737,10.219l2.062-2.242l2.242-2.809
		l2.935-1.377l1.675-2.494l4.735-0.081l1.404-1.819l2.684-2.098l5.104,0.63l2.467,2.476l1.737,2.305l-0.981,4.114l-9.03-3.835
		l-0.18,5.573l-1.549,2.368l-2.557,3.214l-1.827,3.034l-1.296-0.621l-1.216,3.169l-1.08,2.791l-0.415,1.963l-2.115,1.197l-2.62-1
		l-2.376-1.17l-0.721,4.646l-2.071,4.06l-0.251,3.106l-2.603,3.168l-1.558,3.862l0.676,2.314l-0.027,1.899l-2.269,1.999
		l-2.286,0.099l-1.738,1.809l-1.936-0.414l-0.045,1.864l-5.726,2.683l-2.17-1.108l-4.69,3.25l-2.701-1.233l-2.106-1.54l-1.242-3.313
		l-3.188,0.107l-1.98-2.196l-2.737-2.269l-1.233-2.943l-2.376-2.873l-0.45-4.204l-0.586-1.873l3.862-1.107l1.639-3.115l-0.433-4.51
		l1.55-4.718l2.205,0.162l0.549,2.214l1.278-1.017l0.181-2.043l0.063-3.736l2.943-4.024l1.962,0.144l2.018-0.909l1.647-1.279
		l3.476-5.302l-0.091-2.116l0.774-4.6l0.702-5.51l-0.071-4.762l-1.09-2.449l1.953-1.368l3.188,18.519L793.521,232.03z"/>
	<path id="US-WY" fill="#1E3250" stroke="#1E3250" stroke-width="0.5" d="M416.903,141.543l-3.332,41.719l-3.493,40.675l-15.44-1.45
		l-30.816-3.403l-15.377-1.963l-15.368-2.125l-30.52-5.293l3.349-19.618l8.409-50.245l-0.459-0.45l0.387-0.675l1.657-10.299
		l28.359,4.285l22.426,3.287l26.063,2.961L416.903,141.543z"/>
</g>
</svg>
