<?xml version="1.0" encoding="utf-8"?>
<!-- Generator: Adobe Illustrator 15.0.0, SVG Export Plug-In . SVG Version: 6.00 Build 0)  -->
<!DOCTYPE svg PUBLIC "-//W3C//DTD SVG 1.1//EN" "http://www.w3.org/Graphics/SVG/1.1/DTD/svg11.dtd">
<svg version="1.1" id="Layer_1" xmlns:amcharts="http://amcharts.com/ammap"
	 xmlns="http://www.w3.org/2000/svg" xmlns:xlink="http://www.w3.org/1999/xlink" x="0px" y="0px" width="87.112px"
	 height="155.602px" viewBox="0 0 87.112 155.602" enable-background="new 0 0 87.112 155.602" xml:space="preserve">
<defs>
	
	
		<amcharts:ammap  projection="mercator" leftLongitude="19.266289" topLatitude="42.660316" rightLongitude="21.056942" bottomLatitude="39.645057">
		</amcharts:ammap>
</defs>
<g>
	<path id="AL-01" fill="#1E3250" d="M20.073,85.506l0.057,0.586l0.277,0.094l0,0l0.729-0.019l0,0l-0.644,0.413l0.487,0.253
		l0.1,0.801l0.904-1.654l1.413-0.234L24.628,85l1.52,0.089l0.441-0.488l0.815-0.117l0.37,3.37l0.957-0.679l0.05,0.576l0.355,0.361
		l0.744-0.113l1.121,2.496l0.836,0.65l-0.042,0.589l1.057,0.141l0.972-0.402l1.21,1.113l2.342-0.421l0,0l0.58,0.786l1.313,3.174
		l0.815,0.64l0.209,1.242l0.463,0.346l0.815-0.14l0.993,0.215l-0.121,0.873l-0.698,1.367l0.555,0.863l0.541,3.538l0,0l-1.602,0.307
		l-0.897-0.219l-0.427,0.885l0.295,1.425l-0.929-0.182l-1.63,0.27l-0.334,0.289l0.363,0.544l-1.171,0.782l-1.747-2.066l-0.267-0.81
		l-1.235-0.112l-0.061-0.862l-0.783-1.281l-0.815-0.885l-1.196-0.699l-0.879,0.145l-0.217,0.941l-0.776-0.988l-0.694,0.27
		l-1.366-0.275l-0.965,0.447l-2.192-0.69l0,0l-0.096-1.133l-0.548-0.742l-0.576,0.004l-0.007-0.322l-0.484-0.476l-0.214-1.068
		l-0.804-1.214l-0.26-0.023l0.69-1.051l-0.256-1.635l-1.641-2.174l-0.477-2.25l-0.747-1.241l0.018-1.166l0.284,0.159l0.31-0.314
		l-0.299-0.258l0.402-0.459l-0.349-0.22l0.306-0.258l-0.039-0.347l0.655-0.117l0.32,0.389L20.073,85.506z"/>
	<path id="AL-09" fill="#1E3250" d="M34.419,37.791l0.566,0.276l0.747-0.243l1.869-1.1l0.05-0.562l0.277-0.043l1.107,0.948
		l-0.171,2.066l0.719,1.047l0.466,0.176l1.815-0.571l0.082-1.142l3.153,0.077l1.064-0.281l-0.288-0.719l0.612,0.219l0,0
		l-0.004,2.075l0.42,1.679l-0.886,0.014l-0.046,0.39l-0.466,0.181l0.075,0.38l-0.52,0.86l-0.217,1.254l0.516,1.733l-0.473,1.296
		l0.381,0.489l-0.04,0.669l0.623,0.692l0.349,0.882l0.132,1.019l-1.228,0.801l-2.11,0.332l0.345,0.379l-0.014,0.389l-0.602,0.81
		l0.021,0.412l0.762,0.317l-0.025,0.374l0.651,0.44l0.612,1.883l-0.1,0.44l1.118,0.345l-0.068,0.355l0.644,0.53l0.118,0.411
		l-0.541,1.12l0.217,0.439l-0.851,1.006l-0.05,0.458l-0.338,0.349l-0.638-0.472l-0.267,0.685l0.69,2.068l0,0l-2.804,0.278
		l-0.737-0.901l-1.196,0.693l-0.79,0.081l0.392-0.651l0.11-1.454l-1.32-1.01l0.11-0.954l-0.74-0.614l-1.185,0.076l-1.701,1.394
		l-0.666,0.203l0,0l-0.356-0.793l-1.356-0.005l-1.815-2.377l-0.466,0.085l-0.95,1.191l-0.125-0.742l-0.52-0.681l-1.559-0.723
		l-0.541-1.485l-0.769-1.088l-1.484-1.146l-0.762-0.085l0,0l-2.463-3.127l0,0l-0.267-1.745l-0.698-0.992L20.02,47.38l-1.135-1.391
		l0.879-0.465l0.769-0.822l0.83,0.936l1.174,0.071l0.954-0.394l1.783,0.712l0.345-0.746l1.021-0.608l0.495,0.167l0.417,0.641
		l0.431,0.062l0.384-0.261l0.064-0.518l0.587-0.532l0.552-1.06l3.744-0.409l-0.207-1.745l-0.569-0.338l0.078-1.418l0.495-0.266
		l0.289-1.004L34.419,37.791z"/>
	<path id="AL-02" fill="#1E3250" d="M7.933,51.928l1.285,0.247l1.594-0.336l0,0l4.043,1.351l1.11,0.099l3.363-0.772l1.659-0.929l0,0
		l2.462,3.127l0,0l-0.032,0.691l-1.687,2.343l-0.605-0.223L20.66,57.88l-1.153,0.166l-2.05,1.655l-0.936,0.066l-0.715-0.534
		l-0.089-2.138l-0.502,0.26l0.082,0.521l-0.715,0.35l-0.605-0.303l-0.52,0.326l-0.292-0.09l-0.253,0.417l0.082,2.245l0.669,1.162
		l-0.221,1.346l0.256,1.487l-1.431,2.198l-0.687-0.58l-1.256,0.246L9.364,66.49l0,0l-0.303-0.901l-0.84-1.142l-1.149-0.269
		l-0.075,0.547l-1.103-1.039l0.085-2.636l-1.135-1.517l0.843,0.714l1.015-0.151l0.487-0.903l-0.067-0.605L6.798,58.57l0.171,0.79
		l-0.37-0.946l1.427-0.652l1.04-1.491L9.3,55.599l-0.11-1.737l-1.772-1.066l-0.633-1.474L7.933,51.928z"/>
	<path id="AL-03" fill="#1E3250" d="M34.152,62.564l0.666-0.203l1.701-1.394l1.185-0.076l0.74,0.614l-0.11,0.954l1.32,1.01
		l-0.11,1.454l-0.392,0.651l0.79-0.081l1.196-0.693l0.737,0.901l2.804-0.278l0,0l0.061,1.193l0.349,0.82l-0.242,0.679l0.719,1.564
		l0.818,0.311l1.231,2.492l0.078,0.475l-0.441,0.829l0.619,0.941l0,0l0.427,1.232l-0.456,2.674l-0.41-0.714l-1.726-0.15
		l-1.509,0.366l-1.516,0.996l-0.958,0.165l-0.26,0.371l-0.338,2.023l-0.687,0.84l0.456,1.201l0.947,1.106l1.512,2.625l-0.231,1.859
		l-0.538,1.114l-0.537,0.351l-0.274,0.674l-1.014-0.346l-1.726-0.103l-0.637,0.763l-1.25-0.136l0.228,0.524l0,0l-2.342,0.421
		l-1.21-1.113l-0.972,0.402l-1.057-0.141l0.042-0.589l-0.836-0.65l-1.121-2.496l-0.744,0.113l-0.355-0.361l-0.05-0.576l-0.957,0.679
		l-0.37-3.37l-0.815,0.117l-0.441,0.488L24.628,85l-1.231,0.746l-1.413,0.234l-0.904,1.654l-0.1-0.801l-0.487-0.253l0.644-0.413l0,0
		l-0.729,0.019l0,0l-0.277-0.094l-0.057-0.586l0,0l0.253-0.22l-0.135-0.825l-0.783-0.699l0.377-1.698l-0.448-2.193l0.395-1.033
		l-2.506-0.625l-1.042,0.099l-1.242-1.743l0,0l1.036-0.63l0.37-1.119l1.167-0.951l0.157-0.805l0.31-0.292l0.384-0.047l0.697,0.527
		l0.808-0.362l0.477,0.075l0.666-0.645l0.473,0.066l0.263-0.701l0.723-0.697l1.765-0.702l1.915-1.503l1.47-2.518l0.534-0.151
		l0.84,0.528l0.79,0.057l1.687-1.142l-0.114-1.076l0.192-0.453l2.388-1.104L34.152,62.564z"/>
	<path id="AL-04" fill="#1E3250" d="M6.471,79.026L7.329,78.8L7.04,77.837l0.363-0.362l-0.057-0.311l0.448,0.25l-0.317-0.588
		l0.545-0.226l0.715,0.95l0.146-0.775l0.252,0.343l0.359-0.338l1.328,0.333l0.05-0.682l0.637-0.056l0.106-0.414l0.694-0.202
		l0.331,0.376l0.392-0.381l0.178,0.051l-0.107,0.376l0.392-0.287l0.167,0.466l0.68-0.381l0.598,0.588l0,0l1.242,1.744l1.043-0.099
		l2.505,0.625l-0.395,1.033l0.448,2.193l-0.377,1.698l0.783,0.699l0.135,0.825l-0.252,0.221l0,0l-0.566,0.881l-0.32-0.389
		l-0.655,0.117l0.039,0.347l-0.306,0.258l0.349,0.221L18.212,87.4l0.299,0.258l-0.31,0.314l-0.285-0.16l-0.018,1.167l0.747,1.24
		l0.477,2.251l1.641,2.174l0.256,1.636l-0.69,1.051l0.259,0.023l0.805,1.214l0.213,1.068l0.484,0.476l0.007,0.322l0.576-0.004
		l0.548,0.742l0.096,1.133l0,0l-0.869,0.047l-2.003,2.097l-0.641,1.239l-1.014,0.555l0,0l-0.63-0.657l-0.057-0.424l-0.854-0.391
		l0.363-1.221l-0.061-0.857l-0.925,0.2l-0.224-0.196l0.541-1.459l-1.381-0.023l-2.456-1.548l-0.31-0.019l-0.353,0.392l-0.47-0.532
		l-0.224,0.266l-0.327-0.075l-0.05-0.663l-0.299-0.163l0.32-0.36l-0.452-0.233l-0.705,0.49l-0.157-1.008l-0.736-0.112l-0.132-0.505
		l-1.157,0.005l0.299-0.71L7.57,96.05l-0.341,0.075L6.99,95.746l0.05-0.659l-1.06,0.444l-0.182,0.556l-0.512-0.215l-0.388-0.701
		l-1.324-0.444l-0.538,0.126l-0.587,0.612l-0.487-0.117l0,0L1.77,95.013l0.356-0.407l0.37-0.075l0.869-0.954l0.633-1.305l0.029-2.03
		l0.071-0.384l0.289,0.033l0.05-0.464L4.162,88.88l0.31-1.18l0.135,0.211l0.271-0.173l0.26-0.168l-0.238-0.281l-0.637,0.249
		l0.968-1.987l0.534-0.099L5.3,84.274l-0.082,0.773L5.104,83.5l0.651,0.277l-0.078-0.239l-0.201-0.175l-0.263-0.024l0.104-0.247
		l0.438-0.39l1.377,0.07l-0.046-0.328l0.217,0.141l-0.252-0.413l0.63-0.84l-0.583,0.281l0.701-0.69l0.085-0.911L7.699,79.58
		l-0.541-0.483l-0.434-0.038l0.349,0.249l-0.182-0.004L6.471,79.026z"/>
	<path id="AL-05" fill="#1E3250" d="M23.318,102.303l2.192,0.69l0.965-0.447l1.366,0.275l0.694-0.27l0.776,0.988l0.217-0.941
		l0.879-0.145l1.196,0.699l0.815,0.885l0.783,1.281l0.061,0.862l1.235,0.112l0.267,0.81l1.747,2.066l1.171-0.782l-0.363-0.544
		l0.334-0.289l1.63-0.27l0.929,0.182l-0.295-1.425l0.427-0.885l0.897,0.219l1.602-0.307l0,0l-0.302,2.086l0.434,0.787l0.819,0.73
		l-0.762,1.777l0.577,0.864l0.075,1.669l1.203,3.367l1.231,1.578l-0.064,0.946l0.958,1.052l0.513,1.469l0.647,0.648l0,0l-0.32,0.338
		l-1.684,0.241l-1.427-0.871l-0.808,0.899l-0.929-0.505l-0.402,0.042l-1.106,0.593l-0.328,0.468l0.11,0.597l-0.594,1.023
		l-0.146,0.962l-0.797,0.319l-2.107-0.083l1.171,2.035l-0.253,1.054l0.872,0.647l0.313,0.772l0.349,0.208l0.259,0.96l0.968,1.312
		l-0.196,1.348l-1.039,1.158l-1.079-0.817l-1.673-0.627l0,0l-0.452-0.988l-0.63-0.235l-0.729-2.032l-0.908-1.03l0.064-1.572
		l-1.338-0.416l-0.804-0.878l-1.146-0.569l-1-1.009l-0.213-0.616l-2.224-2.273l-0.509,0.357l-1.103-0.737l-0.844,0.663l-0.416-0.097
		l-1.459-3.138l-1.641-1.243l-0.616-2l-0.896-1.425l-0.085-0.882l-0.406-0.757l0.331-0.604l-0.505-0.2l-0.221-0.688l-1.83-2.027
		l2.036-2.112l-0.616-0.559l-0.374-0.806l0,0l1.015-0.554l0.64-1.239l2.004-2.097L23.318,102.303z"/>
	<path id="AL-06" fill="#1E3250" d="M48.277,74.795l2.149,0.269l2.157,8.122l2.687,0.601l0.548-0.295l0.875-1.572l1.979,0.952
		l1.48-0.249l0.712,0.568l0.598,0.839l0.104,4.588l-0.228,0.567l-0.776,0.571l0.933,0.384l0.032,1.16l1.41,1.305l1.192,2.039
		l-0.015,2.051l-0.363,0.411l-0.174,1.004l0.05,1.573l-1.267,0.214l-0.303,0.919l-1.032,0.658l-0.029,1.389l-0.559,0.727
		l0.149,0.214l-1.053,0.359l-0.719-0.62l-1.249,0.224l-1.021-0.429l-0.786,1.877l-0.363-0.042l-0.921,0.662l0.235,0.619
		l-0.192,0.568l0.117,1.792l-0.477,0.279l0.064,0.386l-0.676,0.563l0.188,0.679l-0.359,0.363l-0.633,0.121l-0.94,1.608l0.025,0.729
		l0.395,0.33l-0.029,1.69l-0.523,0.808l-1,0.469l-0.107,1.118l0.662,0.608l-0.634,1.154l0.089,1.414l-1.872,0.25l-0.637,0.658l0,0
		l-0.647-0.648l-0.513-1.469l-0.958-1.052l0.064-0.946l-1.231-1.578l-1.203-3.367l-0.075-1.669l-0.577-0.864l0.762-1.777
		l-0.819-0.73l-0.434-0.787l0.302-2.086l0,0l-0.541-3.538l-0.555-0.863l0.698-1.367l0.121-0.873l-0.993-0.215l-0.815,0.14
		l-0.463-0.346l-0.209-1.242l-0.815-0.64l-1.313-3.174l-0.58-0.786l0,0l-0.228-0.524l1.25,0.136l0.637-0.763l1.726,0.103
		l1.014,0.346l0.274-0.674l0.537-0.351l0.538-1.114l0.231-1.859l-1.512-2.625l-0.947-1.106l-0.456-1.201l0.687-0.84l0.338-2.023
		l0.26-0.371l0.958-0.165l1.516-0.996l1.509-0.366l1.726,0.15l0.41,0.714l0.456-2.674l-0.427-1.232l0,0L48.277,74.795z"/>
	<path id="AL-07" fill="#1E3250" d="M30.597,6.416l1.851,1.02l0.014,0.466l1.079,1.601l-0.174,0.514l0.968,0.846l0.249,0.851
		l-0.644,0.802l1.11,0.999l0.192,0.504l-0.046,0.792l-0.271,0.221l0.356,0.614l-0.061,0.509l0.48,0.288l1.17-0.254l0.548,0.417
		l0.751-0.595l0.647,0.144l0.296,0.748l1.452,0.522l0.384,0.633l1.915,0.666l2.292,2.807l0.68,2.498l0.52,0.65l0.345,1.152
		l-0.221,0.693l0.167,0.497l-0.384,0.736l0.559,1.08l0.851,0.826l0.11,1.055l1.025,2.744l-0.253,1.101l-1.509,1.125l0.623,1.848
		l-1.181,0.405l0,0l-0.612-0.219l0.288,0.719l-1.064,0.281l-3.153-0.077l-0.082,1.142l-1.815,0.571l-0.466-0.176l-0.719-1.047
		l0.171-2.066l-1.107-0.948l-0.277,0.043l-0.05,0.562l-1.869,1.1l-0.747,0.243l-0.566-0.276l0,0l0.285-2.325l1.672-1.792L36.031,32
		l0.235-0.83l-0.751-0.945l0,0l-0.9-0.296l-0.207-0.802l-0.787-1.271l-0.826,0.826l-0.836-0.205l0.993-0.97l-0.16-1.223l0.398-0.836
		l0.516-0.703l1.278-0.928l0.242-0.967l-0.477,0.024l-1.374-0.689l-0.256-0.483l-1.352-0.096l-0.737-0.761l-1.021-0.12l-1.434-1.078
		l-0.723-0.019l-0.509-0.757l-2.267,0.393l-1.224-0.34l-0.797,0.958l-0.715,0.153l-0.317,0.35l-0.982-0.843l-0.089-0.446
		l0.427-1.534l-0.417-0.92l-0.192-1.501l-0.573-1.084l0.331-1.373l-0.673-1.681l0.591-1.683l0,0l0.317-0.591l1.068-0.159
		l0.349-0.673l0.694,0.515l0.317-1l0.922-0.466l2.538,0.289l0.406-1.516l1.16-0.399l0.288-0.414l1.11,0.351l0.431,0.847
		L30.597,6.416z"/>
	<path id="AL-08" fill="#1E3250" d="M35.515,30.225l0.751,0.945L36.031,32l0.345,1.674l-1.672,1.792l-0.285,2.325l0,0l-1.021,0.2
		l-0.289,1.004l-0.495,0.266l-0.078,1.418l0.569,0.338l0.207,1.745l-3.744,0.409l-0.552,1.06l-0.587,0.532l-0.064,0.518
		l-0.384,0.261l-0.431-0.062l-0.417-0.642l-0.495-0.166l-1.021,0.608l-0.345,0.746l-1.783-0.712l-0.954,0.395l-1.174-0.071
		l-0.83-0.936l-0.769,0.821l-0.879,0.466l1.135,1.391l0.003,1.471l0.698,0.991l0.267,1.745l0,0l-1.659,0.929l-3.363,0.772
		l-1.11-0.099l-4.043-1.351l0,0l0.417-0.474l0.036-0.612l0.48-0.004l0.252-1.02l0.431,0.844l0.135-0.934l-0.103-0.673l-0.274-0.237
		l-0.388-0.199l-0.516,0.204l-0.206-0.323l0.644-2.734l-0.602-2.266l0.328-0.604l0.793-0.024l0.079-1.564l-0.313-0.628l-0.576,0.081
		l-1.452-1.099l-1.562-0.7l0,0l0.299-0.99l-0.185-1.019l-1.345-1.239L7.09,35.1l0.971-0.224l2.225,1.739l0.787,0.324l0.366-0.39
		l-0.317-0.934l0.224-0.396l-0.139-1.053l0.552-0.372l1.616,0.472l0.057,0.972l2.207-0.048l0.851,0.396l0.801,0.934l0.857-0.819
		l0.256-1.168l0.683-0.186l0.345-0.453l0.324,0.005l0.598,0.558l0.484,0.028l0.84-0.348l0.199-0.505l0.473-0.305l0.972,0.176
		l0.783-0.605l1.256,4.199l0.851-0.314l1.153,0.591l1.238-2.354l1.335-0.939l0.402-1.431L35.515,30.225z"/>
	<path id="AL-10" fill="#1E3250" d="M17.631,1.552l0.1,0.655L18.5,3.162l0.075,0.53l-0.836,0.12l-0.139,0.356l0.203,0.486
		L17.443,5.66l0.548,1.011l0.175,0.928l0.534,0.279l0.448,0.692l1.299,0.75l0,0l-0.591,1.682l0.672,1.681l-0.331,1.373l0.573,1.084
		l0.192,1.501l0.417,0.921l-0.427,1.534l0.089,0.445l0.982,0.843l0.317-0.35l0.715-0.153l0.797-0.958l1.224,0.34l2.267-0.393
		l0.509,0.757l0.723,0.019l1.434,1.078l1.021,0.12l0.737,0.761l1.353,0.096l0.256,0.483l1.374,0.689l0.477-0.024l-0.242,0.966
		l-1.278,0.928l-0.516,0.703l-0.399,0.836l0.16,1.223l-0.993,0.97l0.836,0.206l0.826-0.827l0.786,1.271l0.207,0.802l0.9,0.296l0,0
		l-5.174,2.424l-0.402,1.431l-1.334,0.939l-1.239,2.354l-1.153-0.591l-0.851,0.314l-1.256-4.199l-0.783,0.605l-0.972-0.176
		l-0.473,0.305l-0.199,0.505l-0.84,0.348l-0.484-0.029l-0.598-0.558l-0.324-0.005l-0.345,0.453l-0.684,0.186l-0.256,1.168
		l-0.858,0.819l-0.801-0.934l-0.851-0.396l-2.207,0.048l-0.057-0.972l-1.616-0.472l-0.552,0.372l0.139,1.053l-0.224,0.396
		l0.317,0.934l-0.367,0.391l-0.787-0.324l-2.224-1.739L7.09,35.099l0.092,0.524l1.345,1.238l0.185,1.02l-0.299,0.99l0,0
		l-2.708-0.643l-0.448,0.1l-0.566,0.638l-0.566-0.171l0.37-1.647l-1.375-1.109l1.043-0.686l-0.74-0.839l0.003-0.739l1.32-0.453
		l-0.406-0.458l0.185-0.625l-0.345-0.873L4.093,29.8l0.366-1.69l0.762-1.429l-4.299-3.639l2.42-2.896l0.281-0.767l0.897-1.116
		l0.096-0.714l1.335-1.544l-0.289-1.118l0.32-0.24l0.125-0.787l0.431-0.499l1.203-0.504l0.936-1.878l0.715-0.509l0.69-1.172
		l0.762-1.38l0.153-0.885l1.893-1.338l-0.167-1.685l1.733-2.385l0.754-0.111l0.805-1.234L16.667,0l0.327,0.154l0.338,0.733
		l0.52,0.207L17.631,1.552z"/>
	<path id="AL-11" fill="#1E3250" d="M23.45,54.714l0.762,0.085l1.484,1.146l0.769,1.088l0.541,1.485l1.559,0.723l0.52,0.681
		l0.125,0.742l0.95-1.191l0.466-0.085l1.815,2.377l1.356,0.005l0.356,0.793l0,0l-0.213,0.359l-2.388,1.104l-0.192,0.453l0.114,1.076
		l-1.687,1.142l-0.79-0.057l-0.84-0.528l-0.534,0.151l-1.47,2.518l-1.915,1.503l-1.765,0.702l-0.723,0.697l-0.263,0.701
		l-0.473-0.066l-0.666,0.645L19.87,72.89l-0.808,0.362l-0.697-0.527l-0.384,0.047l-0.31,0.292l-0.157,0.805l-1.167,0.951
		l-0.37,1.119l-1.036,0.63l0,0l-0.598-0.588l-0.68,0.381l-0.167-0.466l-0.392,0.287l0.107-0.376l-0.178-0.051l-0.392,0.381
		l-0.331-0.376l-0.694,0.202l-0.106,0.414l-0.637,0.056l-0.05,0.682L9.496,76.78l-0.359,0.338l-0.252-0.343L8.738,77.55
		l-0.715-0.949l-0.545,0.226l0.317,0.587l-0.448-0.249l0.057,0.311L7.04,77.837L7.329,78.8l-0.858,0.226l0,0l0.708-3.981
		l-0.085-1.416l-0.626-1.535L7.225,72l0.427-0.508l0.413-1.884l0.879-1.009l0.341-0.844l0.079-1.264l0,0l0.961,0.189l1.256-0.246
		l0.687,0.58l1.431-2.198l-0.256-1.487l0.221-1.346l-0.669-1.163l-0.082-2.245l0.253-0.417l0.292,0.09l0.52-0.327l0.605,0.303
		l0.715-0.35l-0.082-0.52l0.502-0.26l0.089,2.138l0.715,0.534l0.936-0.066l2.05-1.655l1.153-0.166l0.466-0.355l0.605,0.223
		l1.687-2.342L23.45,54.714z"/>
	<path id="AL-12" fill="#1E3250" d="M0.943,102.262l0.445,0.447l-0.263,0.918l-0.655-0.969l-0.053-0.863L0.943,102.262z
		 M1.961,95.349l0.488,0.117l0.587-0.612l0.538-0.126l1.324,0.444l0.388,0.701l0.512,0.215l0.182-0.556l1.061-0.444l-0.05,0.659
		l0.238,0.378l0.342-0.075l0.787,0.388l-0.299,0.71l1.157-0.004l0.132,0.504l0.736,0.112l0.157,1.009l0.705-0.49l0.452,0.233
		l-0.32,0.359l0.299,0.164l0.05,0.663l0.328,0.075l0.224-0.266l0.47,0.532l0.352-0.393l0.31,0.019l2.456,1.548l1.381,0.023
		l-0.542,1.46l0.224,0.196l0.926-0.201l0.06,0.857l-0.363,1.221l0.854,0.391l0.057,0.424l0.63,0.657l0,0l0.374,0.805l0.616,0.559
		l-2.036,2.112l1.83,2.027l0.221,0.688l0.505,0.2l-0.331,0.604l0.406,0.757l0.086,0.882l0.896,1.425l0.616,2l1.641,1.243
		l1.459,3.137l0.416,0.097l0.844-0.662l1.103,0.736l0.509-0.356l2.225,2.273l0.213,0.616l1,1.009l1.146,0.569l0.805,0.879
		l1.338,0.416l-0.064,1.572l0.908,1.03l0.729,2.032l0.63,0.235l0.452,0.987l0,0l-0.534,0.559l0.63,1.029l-0.534,0.793l1.064,1.609
		l-1.377,0.885l-0.584,0.723l-0.06,1.119l-0.673-0.562l-0.537-0.06l-0.424,0.856l0.342,0.663l-0.182,0.211l-1.178,0.06l-2.178-0.46
		l-1.342-1.229l-0.512,0.046l-0.402-0.387l-0.989-0.106l-0.231-0.41l-0.947,0.327l-0.114,0.377l-0.213-0.143l-0.41-0.023
		l-0.064-0.833l0.502-0.963l-0.1-0.766l0.263-0.377l-0.196-0.111l-0.167,0.406l-0.118,0.23l-0.327-0.125l-0.143-0.447l0.384-0.724
		l0.399,0.152l0.406-0.674l-0.146-0.553l-0.345-0.046v-0.208l0.281-0.111l0.402-0.835l-0.103-0.812l0.413-0.392l-0.061-0.748
		l-0.249-0.559l-0.384,0.227l-0.473-0.272l-0.164,0.171l-0.078-0.291l-0.797-0.305l-0.114-0.586l-0.633,0.087l-0.164-0.374
		l-0.676,0.079l-0.171-0.485l0.334,0.106l0.196-0.638l0.527-0.213l-0.096-0.712l-2.641-4.364l-0.982-0.676l-1.395,0.213
		l-0.107-0.315l0.359-0.083l-0.462-0.301v-0.288l-0.481-0.162l-0.032,0.644l-0.32-1.038l-0.641,0.023l0.075-0.853l-0.633-0.083
		l-0.676-0.589l-0.509-0.004l-0.028-0.399l-1.477-0.223l-0.62-0.7l-1.747-0.951l-0.484-0.538l-1.573-0.58l-2.285-1.42l-3.188-3.842
		l-0.271-0.423l0.238-0.33l-0.516-1.693l-1.445-2.112l-1.228-1.117l1.143-0.815l1.338,0.778l1.673,2.1l0.075,1.638l0.499,0.93
		l1.199-0.256l0.986-0.879l-0.175-1.419l0.217-0.452l-0.228-0.577l0.552-1.555v-0.731l-1.157-0.619l-1.235-1.646l-0.861-0.298
		l-0.523-0.872l0.085-0.275l-0.37-0.261l-0.025-1.577l-1.406-2.708L1.961,95.349z"/>
</g>
</svg>
