<?xml version="1.0" encoding="utf-8"?>
<!-- Generator: Adobe Illustrator 15.0.0, SVG Export Plug-In . SVG Version: 6.00 Build 0)  -->
<!DOCTYPE svg PUBLIC "-//W3C//DTD SVG 1.1//EN" "http://www.w3.org/Graphics/SVG/1.1/DTD/svg11.dtd">
<svg version="1.1" id="Layer_1" xmlns:amcharts="http://amcharts.com/ammap"
	 xmlns="http://www.w3.org/2000/svg" xmlns:xlink="http://www.w3.org/1999/xlink" x="0px" y="0px" width="1024px" height="768px"
	 viewBox="0 0 1024 768" enable-background="new 0 0 1024 768" xml:space="preserve">
<defs>
	
	
		<amcharts:ammap  projection="mercator" leftLongitude="1.409457" topLatitude="42.654913" bottomLatitude="42.426982" rightLongitude="1.786852">
		</amcharts:ammap>
</defs>
<g>
	<path id="AD-02" fill="#1E3250" stroke="#1E3250" stroke-width="0.5" d="M557.453,128.013l20.26,3.25l3.21,10.35l3.04,2.98
		l2.43,2.119l12.551,5.15l2.869-1.26l4.431-5.24l2.37-0.43l6.12,1.52l3.5-0.33l4.119-1.609l2.44-2.051l4.37-0.42l4.72-4.97
		l6.29-1.32l2.7,0.2l17.38,6.59l13.33-0.399l6.57,5.78l7.689,2.149l16.7,13.14l14.21-0.529l4.89-2.42l5.681-0.561l5.819,1.95
		l5.091,0.18l11.51-3.96l2.13,2.49l2.34,11.44l-11.99,12.51l-5.12,13.86l-7.739,6.42l-3.271,12.489l0.4,17.341l1,1.689l3.12,2.19
		l10.739-0.721l21.011,2.051l23.72,12.21l25.6,7.1l24.351-3.69l5.06-2.01l5.37,0.17l4.25,9.971l2.24,2.359l4.34,10.61l-4.68,5.59
		l-7.521,6.78l-6.24,3.21l-9.239,6.58l-10.12,4.229l-7.61-1.06l-21.1,0.38l-12.25,2.1l-10.59,8.641l-13.141,15.069l0,0
		l-25.899,0.431l-44.69-5.4h-8.25l-6.49-1.69l-16.229-0.34l-5.24,1.351l-2.25,3.38l-3.25,2.7l-3.74-1.69l-2.75-4.729l-2.739-1.011
		l-5.25,0.34l-4.49,5.74l-10.24,7.431l-17.69,17.779l-11.479,5.061l-10.18-1.62l-7.591-6.24l-9.869-0.53l-11.23-11.34l-2.55-0.51
		l-2.771,0.61l-3,2.02l-15.52,3.35l-8.09,6.79l-4.28,6.75l-3.49,0.54l-1.71-0.96l-6.77,1.67l-4.91,5.101l-2.7,1.21l-4.49-0.271
		l-3.989-1.35l-3.74-5.16l-6.59-3.64l-89.23,3.54l0,0l11.75-7.38l3.93-1.591l2.38-4.05l3.87-15.2v-6.25l-1.75-6.579l-2.62-5.24
		l-3.6-2.53l-1.42-2.439l-1.5-12.061l-2.92-6.479l1.42-23.19l-1.72-10.14l-1.63-1.11l0.83-3.9l2.44-2.109l2.93-0.84l4.67-5.021
		l6.74-4.56l3.6-6.9l0.6-3.34l-0.68-4.62l2.25-13.479l7.11-8.32l14.32-3.97l2.32-2.79l3.37-2.19l2.24-3.55l5.5-5.391l2.24-4.42
		l4.75-4.56l15.86-4.06l5.859-0.171l1.58-6.09l-0.569-3.3l-2.37-3.04l-0.271-3.34l1.891-8.25l-4.49-7.37l-0.97-3.939l0,0l3.609-1.19
		l7.431-6.98l3.83,0.65l3,4.39l9.109-0.17l5.181,2.11l13.06-2.76l7.25,0.2l7.26-1.82l3.83-4.22l8.03-3.08l7.31,5.84L557.453,128.013
		z"/>
	<path id="AD-03" fill="#1E3250" stroke="#1E3250" stroke-width="0.5" d="M383.423,357.183l89.23-3.54l6.59,3.64l3.74,5.16
		l3.989,1.35l4.49,0.271l2.7-1.21l4.91-5.101l6.77-1.67l1.71,0.96l3.49-0.54l4.28-6.75l8.09-6.79l15.52-3.35l3-2.02l2.771-0.61
		l2.55,0.51l11.23,11.34l9.869,0.53l7.591,6.24l10.18,1.62l11.479-5.061l17.69-17.779l10.24-7.431l4.49-5.74l5.25-0.34l2.739,1.011
		l2.75,4.729l3.74,1.69l3.25-2.7l2.25-3.38l5.24-1.351l16.229,0.34l6.49,1.69h8.25l44.69,5.4l25.899-0.431l0,0l-1.439,2.63
		l-1.19,6.881l-5.91,7.779l-0.8,3.78l1.2,6.62l-2.2,18.24l1.7,19.35l-4.101,8.91l-3.989,4.189l-2.2,7.83l-5.79,7.021l-6.6,10.13
		l-2.891,2.01l-0.1,7.931l8.59,4.989l1.5,34.561l-1.8,3.58l-12.59,6.75l-8.351,13.56l-8.13,10.6l-7.89,5.53l-4.19,1.351l-3.6-0.271
		l-22.221-18.08l-5-2.16l-4.09-0.409l-8.39,2.159l-11.87,0.921l-11.85,2.859l-9.69,0.41l-7.58-1.09l-4.91,2.18l-1.12,2.53l0,0
		l-11.819-1.82l-19.38-5.399l-7.99-1.08l-20.58-6.211l-10.58-1.35l-6.9-2.49l-11.859-6.79h-5.86l-5.37,5.07l-8.37,2.021
		l-14.109-3.71l-5.851-5.79l-18.87-10.58l-21.72-20.42l-7.87-5.23l-17.23-14.28l-2.87-0.17l-6.37,3.55l-5.24-2.529l-4.86,0.67
		l-3.17,2.57l-4.57,7.05l-4.74,2.529l-5.25,0.511l-4.86-1.011l-4.62-3.88l-3.75-4.899l-1.75-5.4l-1.75-12.83l0,0l3.74-5.3l0.26-3.81
		l-1.37-8.44l1.24-4.22l5.25-6.59l7.49-6.75l7.24-10.641l2.25-11.26l2.44-5.93l0,0L383.423,357.183z"/>
	<path id="AD-04" fill="#1E3250" stroke="#1E3250" stroke-width="0.5" d="M191.793,185.942l6.46,8.73l9.55,2.279l3.37,3.721
		l4.49,0.85l11.61,4.59l1.88,3.69l3.49,1.689l6.11-1.45l5.75,2.801l3.38,7.939l-0.63,9.73l2.4,10.06l-0.6,11.84l1.2,10.86l2.16,4.54
		l3.23,3.41l3.72,9.239l6.47,10.19l7.43,6.76l8.63,3.08l2.16,3.4l3.6,9.729l4.91,2.271l2.88,4.38l0.6,4.38l-1.2,2.75v9.25l2.64,3.89
		l0.68,4.16l1.96,3.021l11.38-1.67l1.68,1.13l5.39,0.649l10.19,3.41l7.12,4.021l5.43,1.439l6.03-1.92l6.37-0.16l3.62-2.54l5.61-1.35
		l12.12,2.53l4.63,3.04l0,0l-2.44,5.93l-2.25,11.26l-7.24,10.641l-7.49,6.75l-5.25,6.59l-1.24,4.22l1.37,8.44l-0.26,3.81l-3.74,5.3
		l0,0l-1.31-1.609l-2.19,0.46l-2.67,2.529l-13.36,2.53l-6.87-1.35l-6.93-3.24l-10.92,0.71l-3.54,3.21l0,0l-4.25-2.19l-4.74,1.181
		l-4.43,6.92l-3.63,3.21l-15.73,1.68l-3.24,4.391l-4.25,3.38l-6.49,0.33l-4.12,1.189l-3.12,3.71l-2.5,1.351h-8.61l-5.75-1.181
		l-10.23,1.01l-11.99,4.561l-7.62,1.689l-8.36,5.23l-7.17,1.63l0,0l0.76-1.34l-1.08-5.18l-10.42-24.63l-6.36-10.69l-7.43-8.1
		l-3.23-5.351l-2.52-6.81l-1.08-5.181l0.24-4.22l2.4-5.35l0.01-5.25l-1.68-2.271l-14.69-8.52l-3.57-1.42l-7.55-0.851l-3.36,0.57
		l-20.65,11.229l-5.59,0.971l-3.35,1.71l-10.83,8.47l-5.15,0.65l-3.75-1.181l-0.84-4.25l0.42-4.83l4.65-5.14l4.55-7.78l2.4-2.43
		l-0.27-13.32l10.29-22.42l7.34-8.52l23.09-10.22l3.57-2.271l6.71-7.67l0.63-6.24l-2.73-7.67l-2.09-1.42l-9.45-1.71l-7.35-3.97
		l-14.48-21.58l-0.84-2.84l3.15-12.221l7.77-3.12l7.76-7.96l5.25-3.399l4.41-4.55l2.73-11.931l2.72-5.97l0.63-8.47l11.34-0.05
		l5.87,1.71l9.28,0.899l3.36-0.97l2.27-1.79l2.76-7.14l6.47-0.381l2.73-2.27H191.793z"/>
	<path id="AD-05" fill="#1E3250" stroke="#1E3250" stroke-width="0.5" d="M471.363,133.423l0.97,3.939l4.49,7.37l-1.891,8.25
		l0.271,3.34l2.37,3.04l0.569,3.3l-1.58,6.09l-5.859,0.171l-15.86,4.06l-4.75,4.56l-2.24,4.42l-5.5,5.391l-2.24,3.55l-3.37,2.19
		l-2.32,2.79l-14.32,3.97l-7.11,8.32l-2.25,13.479l0.68,4.62l-0.6,3.34l-3.6,6.9l-6.74,4.56l-4.67,5.021l-2.93,0.84l-2.44,2.109
		l-0.83,3.9l1.63,1.11l1.72,10.14l-1.42,23.19l2.92,6.479l1.5,12.061l1.42,2.439l3.6,2.53l2.62,5.24l1.75,6.579v6.25l-3.87,15.2
		l-2.38,4.05l-3.93,1.591l-11.75,7.38l0,0l-3.73-0.88l0,0l-4.63-3.04l-12.12-2.53l-5.61,1.35l-3.62,2.54l-6.37,0.16l-6.03,1.92
		l-5.43-1.439l-7.12-4.021l-10.19-3.41l-5.39-0.649l-1.68-1.13l-11.38,1.67l-1.96-3.021l-0.68-4.16l-2.64-3.89v-9.25l1.2-2.75
		l-0.6-4.38l-2.88-4.38l-4.91-2.271l-3.6-9.729l-2.16-3.4l-8.63-3.08l-7.43-6.76l-6.47-10.19l-3.72-9.239l-3.23-3.41l-2.16-4.54
		l-1.2-10.86l0.6-11.84l-2.4-10.06l0.63-9.73l-3.38-7.939l-5.75-2.801l-6.11,1.45l-3.49-1.689l-1.88-3.69l-11.61-4.59l-4.49-0.85
		l-3.37-3.721l-9.55-2.279l-6.46-8.73l0,0l2.73-4.83l13.37-17.34l-5.52-12.34l-1.53-9.42l-2.98-5.63l-4.12-2.641l1.41-8.62
		l-1.63-4.6l-3.13-3.22l-0.6-3.73l2.39-5.52l0.84-5.36l4.56-5.52l3.33-0.601l6.86-8.41l0.36-14.609l2.55-2.15l0.2-12.14l1.32-1.95
		l20.73-0.41l1.54-2.67l3.84-1.3l4.91,0.55l4.82,6.83l6.93,12.79l2.94,2.28l8.81,0.85l18.36-2.09l12.17,2.17l3-3.73l2.36-5.159
		l11.44-7.181l4.43-0.979l8.27,5.359l4.2-1.18l6.21-6.39l3.49-0.71l17.62-7.79l3.72-0.17l13.9,9.739l3.84-0.16l4.55-4.55l5.65-0.21
		l4.76,9.15l3.83,4.71l3.84,3.08l10.02-1.021l3.28,7.681v7.47l1.56,1.939l4.19-0.31l0.8,2.4l-0.1,8.06l4.55,7.47l8.28,7.141
		l14.62,0.97l4.19,2.76l13.19,18.83L471.363,133.423z"/>
	<path id="AD-06" fill="#1E3250" stroke="#1E3250" stroke-width="0.5" d="M153.363,495.632l9.18,7.74l19.38,12.76l9.87,7.75
		l18.47,11.311l20.23,17.54l6.24,3.2l5.5,1.02l7.24-2.87l4.24-1.859l10.24-7.761l9.74,1.351l18.21,7.09l30.84,1.351l18.48,2.359
		l8.24-0.51l0,0l0.5,7.42l1.62,5.74l2.5,3.88l11.8,1.7l1.56,1.33l1.37,11.13l13.36,15.68l3.21,5.86l0,0l-2.3,3.109l-1.09,6.771
		l1.99,9.93l-0.71,8.63l1.62,9.98l-0.69,3.75l-7.31,1.199l-3.44,2.53l-1.24,27.811l-2.19,1.689l-6.24,0.84l-4.68-2.109l-6.25,1.689
		h-6.24l-2.81-1.27h-3.12l-2.18,2.53l-8.61-0.92l-3.35,0.85h-10.81l-3.77,3.859l-8.11,1.69l-8.12,3.79l-19.04-2.53l-6.55-3.79
		l-1.13-1.72l-10.68-5.26l-8.4-1.99l-24.13,1.42l-8.63-2.2l-9.46-3.729l-13.11-2.11l-1.97-1.55l-26.7-0.95l-3.59-1.939l-6.65-0.551
		l-2.51-1.14l-3.78-1.979l-7.77-9.07l-3.36-5.38v-0.851l1.05-0.29l4.54,0.391l-1.54-8.96l-1.32-1.78l-1.55-6.15l-3.24-3.239
		l-0.66-13.7l10.91-12.181l-0.63-2.84l-10.71-8.22l-2.3-3.97l-1.05-20.98l1.96-6.899l-1.41-2.721l-16.33-17.409l-18.43-0.301
		l-6.47-1.52l-5.04,1.42l-2-0.74l-2.88-4.729l-5.99,0.27l-2.6,1.49l-1.69-0.271l-2.4-2.84l-1.2-4.18l1.5-2.97l7.79-5.8l5.79-6.881
		l5.6-2.97l6.59-0.14l7.8-1.96l21.42,0.37l6.8-1.341l3.58-3.409l7.4-1.45l4.9-2.16L153.363,495.632z"/>
	<path id="AD-07" fill="#1E3250" stroke="#1E3250" stroke-width="0.5" d="M303.363,422.482l1.75,6.25l4.37,9.62l6.36,1.35l6.62,9.62
		l2.12,8.101l5.25,10.97l2.62,9.109l-0.5,3.37l-4.37,2.37l-1.75,2.86l2.62,9.79l2.13,2.36l6.86,15.609l3.25,1.18l3,9.44l7.11,9.45
		l5.25,9.62v2.859l-6.59,9.69l0,0l-8.24,0.51l-18.48-2.359l-30.84-1.351l-18.21-7.09l-9.74-1.351l-10.24,7.761l-4.24,1.859
		l-7.24,2.87l-5.5-1.02l-6.24-3.2l-20.23-17.54l-18.47-11.311l-9.87-7.75l-19.38-12.76l-9.18-7.74l0,0l1.79-2.109l1.25-6.03
		l9.51-9.31l7.5-4.25l13.72-13.36l0,0l7.17-1.63l8.36-5.23l7.62-1.689l11.99-4.561l10.23-1.01l5.75,1.181h8.61l2.5-1.351l3.12-3.71
		l4.12-1.189l6.49-0.33l4.25-3.38l3.24-4.391l15.73-1.68l3.63-3.21l4.43-6.92l4.74-1.181L303.363,422.482z"/>
	<path id="AD-08" fill="#1E3250" stroke="#1E3250" stroke-width="0.5" d="M303.363,422.482l3.54-3.21l10.92-0.71l6.93,3.24
		l6.87,1.35l13.36-2.53l2.67-2.529l2.19-0.46l1.31,1.609l0,0l1.75,12.83l1.75,5.4l3.75,4.899l4.62,3.88l4.86,1.011l5.25-0.511
		l4.74-2.529l4.57-7.05l3.17-2.57l4.86-0.67l5.24,2.529l6.37-3.55l2.87,0.17l17.23,14.28l7.87,5.23l21.72,20.42l18.87,10.58
		l5.851,5.79l14.109,3.71l8.37-2.021l5.37-5.07h5.86l11.859,6.79l6.9,2.49l10.58,1.35l20.58,6.211l7.99,1.08l19.38,5.399
		l11.819,1.82l0,0l-1.369,4.64l-0.19,28.32l-2.06,8.18l0.18,2.11l2.439,4.8l2.971,3.939v3.121l-6.63,5.189l-5.96,11.25l-3.36,1.71
		l-9.87,0.56l-8.18-3.119l-10.61,6.34l-5.7-1.21l-2.699-4.141l-3.69-0.45l-9.19,7.69l-1.14,3.61l-2.69,0.97l-3.27-0.29l-1.31-1.37
		l-12.511-5.14l-4.699,3.35l-9.45-1.13l-4.82,0.28l-9.45,2.27l-10.49-2.84l-6.3-4.82l-7.76,0.851l-1.42,1.649l-11.95,3.83
		l-3.69,3.641l-7.99,13.35l-6.02,20.05l-2.1,3.971l-2.72,1.7l-4.08-0.73l-9.78-10.61l-6.92-9.35l-1.92-4.42l-2.42-2.34l-5.55-0.32
		l-3.32,3.149l-6.24-0.539l0,0l-3.21-5.86l-13.36-15.68l-1.37-11.13l-1.56-1.33l-11.8-1.7l-2.5-3.88l-1.62-5.74l-0.5-7.42l0,0
		l6.59-9.69v-2.859l-5.25-9.62l-7.11-9.45l-3-9.44l-3.25-1.18l-6.86-15.609l-2.13-2.36l-2.62-9.79l1.75-2.86l4.37-2.37l0.5-3.37
		l-2.62-9.109l-5.25-10.97l-2.12-8.101l-6.62-9.62l-6.36-1.35l-4.37-9.62L303.363,422.482z"/>
</g>
</svg>
