<?xml version="1.0" encoding="utf-8"?>
<!-- Generator: Adobe Illustrator 15.0.0, SVG Export Plug-In . SVG Version: 6.00 Build 0)  -->
<!DOCTYPE svg PUBLIC "-//W3C//DTD SVG 1.1//EN" "http://www.w3.org/Graphics/SVG/1.1/DTD/svg11.dtd">
<svg version="1.1" id="Layer_1" xmlns:amcharts="http://amcharts.com/ammap"
	 xmlns="http://www.w3.org/2000/svg" xmlns:xlink="http://www.w3.org/1999/xlink" x="0px" y="0px" width="882.5px" height="876.5px"
	 viewBox="0 0 882.5 876.5" enable-background="new 0 0 882.5 876.5" xml:space="preserve">
<defs>
	
	
		<amcharts:ammap  projection="mercator" leftLongitude="43.454090" topLatitude="41.300808" bottomLatitude="38.832890" rightLongitude="46.632730">
		</amcharts:ammap>
</defs>
<g>
	<path id="AM-AG" fill="#1E3250" stroke="#1E3250" stroke-width="0.5" d="M217.705,207.17l6.62-0.869l4.13,2.319l7.08,8.54h10.33
		l1.47-7.37l5.02-0.779h4.43l11.5,6.979l5.02-2.32l6.2,6.591l-0.26,11.369l0,0l-0.33,2.2l6.49,8.141l2.06,5.42l8.85,10.46
		l21.54,4.64l-2.65,13.93l-7.97,12.381h-3.54l0.88,11.21l-4.71,10.04l-1.48,16.6l-7.97-0.38l-2.36,6.17l-18,18.51l-0.88,2.7
		l1.47,2.7l10.33-1.931l1.77,3.08l0.59,3.86l-4.31,10.17l0,0l-5.13,8.7v4.71l0,0L245.425,374l-7.25-8.08l-11.94,10.86l-6.82-1.67
		l-4.05-5.29l-2.35,0.83l1.28,20.04l-2.99,2.22l-22.39-0.55l-33.69-8.35l-9.81-0.83l-10.88-8.91l-3.2-0.83l-0.64-4.73l-14.07-1.67
		l-7.68-3.62l-14.29,1.11l-6.94,5.03l0,0l-8.02-3.59l-1.98-10.58l-11.53-12.67l8.8-16.73l-2.08-9.64l-3.92-3.761l0,0l14.54-3.09
		l16.78-15.5l9.53-0.87l9.21-3.439l9.21,4.31l10.85-2.16l8.22,4.74h6.91l7.56-4.31h4.28l4.6,1.29l5.92,6.04l4.6,0.43l5.59-2.59
		l13.49,1.29l10.19-3.87l3.62-3.45h2.96l1.32-6.89l-5.6-6.47l-0.32-3.881v-5.609l2.96-7.76l-11.84-1.721l-0.99-9.93l-7.56-11.66
		l-0.33-4.75l0.98-4.75l8.23-7.78l12.82-1.729L217.705,207.17z"/>
	<path id="AM-AR" fill="#1E3250" stroke="#1E3250" stroke-width="0.5" d="M266.495,454.32l-4.16-5.43l-9.62-3.801l0,0l1.78-18.689
		l-5.97-7.78l0.21-6.939l8.1-1.95l10.88,0.28l10.2,2.52l0,0l6.6,6.55l8.85,1.92l10.33,7.681l6.49-6.53l7.67-1.53l10.63-8.46
		l5.16-8.27l0,0l-0.59,13.84l3.24,5l11.51,1.54l2.07-0.771l1.47-5.38h3.54l5.31-3.85l3.54,0.39l3.25-6.92l17.56-0.96l4.13-9.229
		l4.42-1.931l4.72,0.391l5.32-2.311l25.03-0.12l0,0l1.37,2.62l-3.541,19.23v9.989l20.95,31.86l1.181,26.07L446.655,496l1.979,3.54
		l0,0l-7.59,6.03l-3.25,5.35l-2.26,11.74l0,0l-8.081,4.311l-5.02,9.529l-11.39,5.84l-51.31,5.841l-0.84-6.301l-5.81-1.229
		l-4.61-9.58l-4.22,0.04l1.71-6.6l-2.32-1.811l-5.73,1.88l-13.39-8.939l0.98-4.17l-5.97,0.909l-1.16-8.079l-8.16-8.711l-1.66-8.55
		l-8.61-7.33l-8.56-12.52l-5.76-1.67l-11.57-9.66L266.495,454.32z"/>
	<path id="AM-AV" fill="#1E3250" stroke="#1E3250" stroke-width="0.5" d="M87.715,369.561l6.94-5.03l14.29-1.11l7.68,3.62
		l14.07,1.67l0.64,4.73l3.2,0.83l10.88,8.91l9.81,0.83l33.69,8.35l22.39,0.55l2.99-2.22l-1.28-20.04l2.35-0.83l4.05,5.29l6.82,1.67
		l11.94-10.86l7.25,8.08l28.47,10.94l0,0l4.8,8.53l-1.71,11.67l1.82,1.26l-0.89,6.13l0,0l-10.2-2.52l-10.88-0.28l-8.1,1.95
		l-0.21,6.939l5.97,7.78l-1.78,18.689l0,0l-3.57-1.949l-4.24,1.109l-4.98-4.09l-4.88-0.52l-8.2,2.31l-1.73,2.05l-6.95,0.351
		l-1.02,2.529l-15.65-0.119l-2.51-1.82l-11.87,2.71l-19.35-0.46l-5.89,2.58l-15.94,0.1l-24.9-13.04l-8.91-6.77l-12.76-0.05
		l-5.73-5.03l-8.28-3.42l-3.52-4.49l0.44-7.27l3.31-4.58l12.51-3.37l-1.6-4.33l-14.27-13.181l0.71-2.63l7.26-0.529l-0.06-9.301
		L87.715,369.561z"/>
	<path id="AM-ER" fill="#1E3250" stroke="#1E3250" stroke-width="0.5" d="M273.895,384.94v-4.71l5.13-8.7l0,0l3.72,4.08l11.51-0.39
		l12.98-4.62l6.79,1.16l2.06,6.54l16.82,13.09l2.95,5l-2.21,7.5l0,0l-5.16,8.27l-10.63,8.46l-7.67,1.53l-6.49,6.53L293.365,421
		l-8.85-1.92l-6.6-6.55l0,0l0.89-6.13l-1.82-1.26l1.71-11.67L273.895,384.94z"/>
	<path id="AM-GR" fill="#1E3250" stroke="#1E3250" stroke-width="0.5" d="M542.444,261.75l-3.56-0.93l-3.92-14.8l6.41-9.82
		l8.78,1.09l4.869,5.45l-1.069,8.1l-6.771,3.74l-2.25,5.92L542.444,261.75z M372.735,243.521l11.1,0.189l13.42-12.8l14.36,8.73
		l6.05,0.939l11.88-2.3l15.63-16.57l9.14-4.37l17.04-2.85l14.9,3.42l7.81,3.73l15.051,14.14l0,0l-1.671,5.97l6.261,6.29l-0.931,7.69
		l4.131,3.84l7.119,0.31l5.94,6.381l-3.92,5.6l1.31,3.89l-2.609,4.2l0.949,5.29l3.82,5.6l12.12,8.23l0.67,5.08l5.101,5.59l9.38,5.59
		l6.649-0.47l3.681,2.33l8.43,7.92l0.83,4.19l3.8,5.119l10.8,0.16l5.48,4.19l11.37,2.479l5.43,6.551l20.46,5.859l5.09,5.57
		l11.521-0.3l6.77,4.96l0.03,5.79l-4.64,1.27l-0.141,2.311l10.25,13.449l-3.729,8.341l-1.65,18.51l-12.57,6.31l0.94,9.92
		l-6.9,17.271l-8.93,2.85l-1.5,5.36l-1.66,0.62l-11.51-10.801l-3.8,1.54l-20.03-0.88l-5.1-1.699l-5.221,2.779l-8.189,0.15
		l-2.24,2.14l-1.43,6.66l-5.87,0.08l0,0l-5.021-3.58l-7.97-0.38l-1.77,5.76l-5.9,4.601l-12.39,3.069l-28.62,1.54l-23.601,8.431
		l-12.979,9.97l-10.33,11.489l-5.98,2.78l0,0l-1.989-3.55l1.479-12.64l-1.18-26.07l-20.95-31.86v-9.989l3.54-19.23l-1.37-2.62l0,0
		l-1.14-2.569l-5.02-3.08l-3.83,0.39l-3.54-1.92l-4.42-6.16l-1.77-11.939l-3.8-6.44l-10.24-47.71l7.84-10.271l-10.33-2.699
		l-5.82-5.29l-6.23-19.641l-8.31-4.069l-0.19-28.99l0,0L372.735,243.521z"/>
	<path id="AM-KT" fill="#1E3250" stroke="#1E3250" stroke-width="0.5" d="M371.365,243.181l0.19,28.989l8.31,4.07l6.23,19.64
		l5.82,5.29l10.33,2.7l-7.84,10.271l10.24,47.71l3.8,6.439l1.77,11.94l4.42,6.16l3.54,1.92l3.84-0.38l5.01,3.08l1.14,2.569l0,0
		l-25.03,0.12l-5.32,2.311l-4.72-0.391l-4.42,1.931l-4.13,9.229l-17.56,0.96l-3.25,6.92l-3.54-0.39l-5.31,3.85h-3.54l-1.47,5.38
		l-2.07,0.771l-11.51-1.54l-3.24-5l0.59-13.84l0,0l2.21-7.5l-2.95-5l-16.82-13.09l-2.06-6.54l-6.79-1.16l-12.98,4.62l-11.51,0.39
		l-3.72-4.08l0,0l4.31-10.17l-0.59-3.86l-1.77-3.08l-10.33,1.931l-1.47-2.7l0.88-2.7l18-18.51l2.36-6.17l7.97,0.38l1.48-16.6
		l4.71-10.04l-0.88-11.21h3.54l7.97-12.381l2.65-13.93l-21.54-4.64l-8.85-10.46l-2.06-5.42l-6.49-8.141l0.33-2.2l0,0l12.35-9.04
		l18.89-1.159l4.72,2.319h4.72l2.95-1.939h4.43l38.37,17.04l0,0l2.36,3.51l0,0L371.365,243.181z"/>
	<path id="AM-LO" fill="#1E3250" stroke="#1E3250" stroke-width="0.5" d="M389.405,42.32l2.6,5.91l6.62,3.45l1.89,3.13l-0.7,3.13
		l-5.92,6.58l-7.33,2.51l-5.21,5.01l4.86,5.681l15.32,9.52l4.45,5.65l-1.52,6.12l-3.47,4.699l-9.34,5.061l-18.25,4.7l-4.63,8.699
		l1.33,9.87l5.7,3.761l17.09,4.42l2.94,4.58v3.289l-1.34,3.051l-4.89,3.17l-5.88,21.7l-8.63,7.609l-11.75,6.521l-4.1,7.029
		l-0.71,5.971l7.66,5.149l-4.63,4.8l0.44,2.811l7.49,10.15l-3.82,12.8l0,0l-38.37-17.04h-4.43l-2.95,1.939h-4.72l-4.72-2.319
		l-18.89,1.159l-12.35,9.04l0,0l0.26-11.369l-6.2-6.591l-5.02,2.32l-11.5-6.979h-4.43l-5.02,0.779l-1.47,7.37h-10.33l-7.08-8.54
		l-4.13-2.319l-6.62,0.869l0,0v-2.1l-15.13,0.87l-0.33-6.061l-7.56-3.46l-8.22,1.301l-5.27-9.521l-0.98-15.59l2.3-4.771l8.22-6.06
		l8.88-1.3l3.62-2.61l2.3-3.03l-1.32-7.81h4.61l3.29-3.47l4.27-10.41l-3.94-2.17l-13.49,0.43l-0.33-14.32l-2.63-3.909l-3.61-1.311
		l-2.96-8.689l-8.88-2.601l-5.59-5.22l-0.33-18.7l2.54-7.18l0,0l8.85-3.391l22.02-0.14l5.73-17.35l6.22,3.189l5.42-0.63l7.71,7.47
		l4.01,1.181l6.93-1.58l6.13,4.72l2.81-0.189l3.42-10.521l6.02,3.43l6.24,7.091l5.29,1.609l7.61,5.46l4.1-0.47l7.81-4.45l4.96-9.34
		l1.69-0.35l1.16,0.699l-1.6,8.96l11.04-4.01l3.47,4.25l5.34-15.8l8.19,2l8.72-1.41l2.85,6.37l6.71,0.65l2.26,4.25l4.89-4.341
		l16.3-0.75l8.38,3.521l9.08,0.81l4.08-1.569l-1.23-3.08l-5.32,0.56l-11.06-3.46l-5.56-6.29l-0.57-8.68l2.24-7.43l4.65-0.44
		l5.13,6.36l9.97,3.33L389.405,42.32z"/>
	<path id="AM-SH" fill="#1E3250" stroke="#1E3250" stroke-width="0.5" d="M98.155,191.66l-0.99-4.31l-5.82-8.12l-1.3-7.51
		l1.42-11.57l-2.13-10.48l-13.18-11.75l-9.99-6.029l-5.4-0.74l-7.65-6.811l-11.12-1.51l-2.62-4.26l-0.44-14.31l-4.6-5l-0.91-4.28
		l4.17-8.5l4.81,0.01l17.09-6.26l5.26,0.39l8.57,5.5l3.86-1.569l15.13-0.4l17.18,8.64l8.26-10.62l12.39-7.439l22.55-3.141l8.16,2.75
		l8.01-5.89l8.3,1.03l0,0l-2.54,7.18l0.33,18.7l5.59,5.22l8.88,2.601l2.96,8.689l3.61,1.311l2.63,3.909l0.33,14.32l13.49-0.43
		l3.94,2.17l-4.27,10.41l-3.29,3.47h-4.61l1.32,7.81l-2.3,3.03l-3.62,2.61l-8.88,1.3l-8.22,6.06l-2.3,4.771l0.98,15.59l5.27,9.521
		l8.22-1.301l7.56,3.46l0.33,6.061l15.13-0.87v2.1l0,0l-0.99,11.311l-12.82,1.729l-8.23,7.78l-0.98,4.75l0.33,4.75l7.56,11.66
		l0.99,9.93l11.84,1.721l-2.96,7.76v5.609l0.32,3.881l5.6,6.47l-1.32,6.89h-2.96l-3.62,3.45l-10.19,3.87l-13.49-1.29l-5.59,2.59
		l-4.6-0.43l-5.92-6.04l-4.6-1.29h-4.28l-7.56,4.31h-6.91l-8.22-4.74l-10.85,2.16l-9.21-4.31l-9.21,3.439l-9.53,0.87l-16.78,15.5
		l-14.54,3.09l0,0l-5.33-5.27l-4.62-1.08l-2.86-5.62l2.32-0.81l0.33-3.66l14.72-10.79l2.91,1.37l1.24-5.82l4.02,1.91l-1.49-8.99
		l6.97-2.1l4.63-5.45l8.42-16.82l1.9-8.569l5.03-6.851l-2.06-12.01l1.72-6.13L98.155,191.66z"/>
	<path id="AM-SU" fill="#1E3250" stroke="#1E3250" stroke-width="0.5" d="M623.064,602.95l-2.26-8.95l-5.35-5.069l-15.87-3.75l0,0
		l-1.32-27l3.98-10.301l-2.84-11.29l0.76-9.579l15.16-22.12l7.159-4.38l0,0l3.57,9.899l12.7,3.391l9.03,6.14l12.449,1.24l2.73,1.699
		l5.33,6l2.21,6.95l5.96,5.57l1.93,5.04l6.311,3.93l-1.3,2.9l0.949,3.53l1.54,1.39l4.511-3.23l2.5,0.46l8.779,9.53l7.36,5.061
		l1.689,3.449l0.921,14.091l4.869-4.341l15.66,0.46l15.07-9.97l12.439-0.939l2.58,7.43l4-0.45l5.37-5.689l1.431,0.609l-1.07,15.19
		l1.42,2.609l5.54,1.591l2.16-1.921l3.63,1.23l2.939-2.48l12.601-1.59l8.74,4.71l4.149,5.061l0.48,6.13l-7.94-2.23l-11.149,8.79
		l0.949,5.471l9.75,10.93l-8.77-2l-3.86-3.5l-9.35,11.17l-13.19-1.9l-5.39,9.58l0.52,9.26l5.351,10.24l16.8,11.301l7.04-4.75
		l7.14,9.409l0.11,2.841l-3.2,4.58l7.141,11.489l6.93,2.41l3.47,6.75l9.41,2.17l-13.78,2.58l-0.17,4.44l-8.37,11.27l-2.14-1.52
		l-2.14-10.521l-2.851-1.03l-2.01,2.471l0.35,5.88l-9.399-5.65l-5.16-0.16l-1.84,2.101l2.16,12.27l6.729,2.78l3.86-1.65l2.14,1.32
		l-1.87,5.93l4.08,2.8l1.05,5.73l6.261,5.67l-3.45,6.62l6.17,2.81l-3.37,6.131l2.61,11.72l-6.051,2.12l0.83,7.449l-5.22,4.11
		l-0.12,2.28l0.36,3.34l7.83,12.61l1.979,7.979l-2.489,1.851l-2.351-0.721l-1.63-5.239l-8.55,1.38l-7.38-3.65l-7.12,0.41
		l-3.141,2.13l-11.93-8.82l-6.05-1.06l-7.6,5.62l-7.48-0.61l-0.11,6.681l-1.779,2.43l-2.141-0.15l0.471-5.77l-2.49-2.12l-2.97,8.19
		h-4.15l-0.95,2.279l2.32,6.1l-1.19,1.221l-2.75-3.08l0,0l-0.2-0.53l0,0l-4.649-1.399l-5.101,6.069l-2.369-1.21l0.109-3.8
		l-1.66-1.21l-2.39,7l-3.66-0.32l1.19-15.64l-6.65-16.4l-3.06-24.68l-6.08-5.05l-0.59-14.61l-1.54-2.739l-10.54-6.341l0.149-9.89
		l-4.81-6.48l1.18-7.14l-3.47-3.521l-0.83-9.199l-0.26-10.9l2.91-3.65l0.47-4.89l-1.98-6.77l-8.279-1.99l-25.551-18.39l-11.699-1.48
		l-5.091-4.32l-0.609-7.189l11.5-17.87l-1.351-7.84l-3.409-5.17l0.779-10.36L623.064,602.95z"/>
	<path id="AM-TV" fill="#1E3250" stroke="#1E3250" stroke-width="0.5" d="M509.125,235.78l-15.04-14.14l-7.811-3.73l-14.899-3.42
		l-17.05,2.85l-9.141,4.37l-15.63,16.561l-11.88,2.3l-6.05-0.93l-14.36-8.73l-13.42,12.79l-11.11-0.18l0,0l-4.7-1.16l0,0l-2.36-3.51
		l0,0l3.82-12.8l-7.49-10.15l-0.44-2.811l4.63-4.8l-7.66-5.149l0.71-5.971l4.1-7.029l11.75-6.521l8.63-7.609l5.88-21.7l4.89-3.17
		l1.34-3.051v-3.289l-2.94-4.58l-17.09-4.42l-5.7-3.761l-1.33-9.87l4.63-8.699l18.25-4.7l9.34-5.061l3.47-4.699l1.52-6.12
		l-4.45-5.65l-15.32-9.52l-4.86-5.681l5.21-5.01l7.33-2.51l5.92-6.58l0.7-3.13l-1.89-3.13l-6.62-3.45l-2.6-5.91l0,0l1.46-4.42
		l4.36,4.67l10.28,1.43l4.41-6.1l10.37-7.95l9.53,16l-1.8,9.63l-4.64,3.471l0.31,2.369h4.93l7.42,7.54l2.79-0.08l2.859-4.68
		l6.51-3.1l9.931,11.18l7.189,1.18l2.011,2.12l0.6,4.79l-4.54,5.431l-11.06,4.079l-12.261,1.48l-3,2.19l-6.859,14.529l3.319,5.51
		l3.17-0.22l4.761-3.42l6.37,0.19l-0.21-10.351l3.369-2.05l6.431,4.7l-0.53,8.55l4.46-0.53l7.18,2.67l7.561,10.521l4.359-1.51
		l3.091-5.33l3.76-0.84l6.35,11.02l7.49-0.46l4.92,1.8l13.19-8.49l5.899-0.729l2.391,2.51l-1.12,2.351l-8.13,7.279l2.84,7.29
		l3.53,1.2l6.22-2.03l6.64,7.98l-0.59,5.479l5.88,0.78l5.04,5.48l8.6,3.279l1.9,4.7l5.34-2.59l3.19,2.79l2.81,12.12l-3.029,6.95
		l-6.41,5.859l-5.4,9.21l-2.07,2.19l-9.38,1.01l-6.529,5.94l-12.341,2.449l-7.83,4.83l-2.02,2.811l0.95,6.24l-1.66,1.72l-2.021-2.34
		l-2.729,0.31L509.125,235.78z"/>
	<path id="AM-VD" fill="#1E3250" stroke="#1E3250" stroke-width="0.5" d="M441.734,524.11l-6.199-1.45l0,0l2.26-11.74l3.25-5.35
		l7.59-6.03l0,0l5.98-2.779l10.329-11.49l12.98-9.97l23.61-8.431l28.62-1.53l12.39-3.069l5.899-4.601l1.771-5.76l7.97,0.38
		l5.021,3.58l0,0l5.989-0.01l1.54,6.25l1.671,0.93l11.029-0.46l10.92,2.16l7.12,6.01l13.53,2.16l3.46,6.38l-2.97,5.09l5.46,9.71
		l1.529,6.421l0,0l-7.159,4.38l-15.16,22.12l-0.76,9.579l2.84,11.29l-3.98,10.301l1.32,27l0,0l-6.08-2.301l-5.37,5.421l-6.28,1.399
		l-6.05,4.76l-9.26-1.38l-5.22,7.2l-6.17,1.69l-2.881,4.64l-11.869,9.97l-7.57-0.58l-5.891-9.52l-5.47,0.17l-3.729-2.84l-8.9,0.3
		l-2.37-1.37l-7.01-6.439l-4.83-11.421l-4.38-3.229l-7.04-0.95l-2.21,1.2l-5.7,8.51l-2.979,0.33l-7.271-3.34l0.09-14.38l1.8-3.88
		l-2.369-2.15l-0.12-3.99l2.52-2.949l-1.68-5.211l-7.21-7.829l-7.26-14.421L441.734,524.11z"/>
</g>
</svg>
