<?xml version="1.0" encoding="utf-8"?>
<!-- Generator: Adobe Illustrator 15.0.0, SVG Export Plug-In . SVG Version: 6.00 Build 0)  -->
<!DOCTYPE svg PUBLIC "-//W3C//DTD SVG 1.1//EN" "http://www.w3.org/Graphics/SVG/1.1/DTD/svg11.dtd">
<svg version="1.1" id="Layer_1" xmlns:amcharts="http://amcharts.com/ammap"
	 xmlns="http://www.w3.org/2000/svg" xmlns:xlink="http://www.w3.org/1999/xlink" x="0px" y="0px" width="642.5px" height="344.5px"
	 viewBox="0 0 642.5 344.5" enable-background="new 0 0 642.5 344.5" xml:space="preserve">
<defs>
	
	
		<amcharts:ammap  projection="mercator" leftLongitude="9.501127" topLatitude="49.015154" bottomLatitude="46.370917" rightLongitude="17.163378">
		</amcharts:ammap>
</defs>
<g>
	<path id="AT-1" fill="#1E3250" stroke="#1E3250" stroke-width="0.5" d="M604.79,109.01l-0.08,9.93l7.29,2.93l-5.28,4.35L606,137.55
		l-6.03,1.98l5.061,5.95l1.319,11.87l-16.569,2.36l-1.4-3.85l-3.08,4.51l-6.28,0.15l-2.35-6.07l-9-3.34l-14.7,11.32l18.24,5.02
		l5.05,9.84l-5.05,4.7l0.75,5.18l-6.729,5.75l-10.381-0.07l-1.04,6.48l4.431,8.49l-5.9,8.81l3.09,7.39l6,1.85l-5.359,3.83l4.64,4.26
		l-6.51,3.24l5.91,3.22l-17.65-1.36l-1.42,5.97l-11.31,10.11l-10.74,4.79l0,0l12.67-18.38l-5.38-10.04l2.13-8.01l-6.73-27.39
		l10.99-5.02l0,0l8.9-3.85l4.68-7.07l-2.02-5.92l4.72-9.25l-5.24-5.13l-0.34-11.47l-2.8-0.99l1.399-2.15l3.13,2.64l5.03-6.42
		l-3.01-2.74l4.97-1.82l2.86-6.34l5.66-1.04l4.84,6.69l9.54-9.41l0.68-5.57l9.72-1.78l4.94-5.61l7.15,6.08l2.789-6.04l-3.229-3.64
		l4.84,2.25l2.57-3.91l0,0L604.79,109.01z"/>
	<path id="AT-2" fill="#1E3250" stroke="#1E3250" stroke-width="0.5" d="M251.29,228.77l6.62-3.49l0.42,3.29l14.55,2.57l11.08,7.42
		l15.24-3.51l2.16-5.45l7.04-0.35l2.83,3.3l23.53,3.48l7.24,11.14l0,0l5.27,3.98l6.54-1.31l6.74-9.71l15.01-8.15l2.44,5.56
		l10.61,0.34l2.69,5.17l6.101-5.06l10.989,3.03l18.29-6.13l14.66,16.26l-4.12,14.38l4.271,2l-0.53,11.19l3.51,2.46l0,0l-7.069,5.69
		l-1.86-2.99l-7.01,2.99l-3.95,10.9l-8.24,0.83l-1.13,4.36l-9.08,4.03l-1.85,6.51l-3.271-5.96l-6.08,0.29l-1.27-2.82l-21.74,1.391
		l-3.24-4.93l-16.43-5.15l-9.36,1.8l-33.72-8.28l-10.71,3.17l-5.7-4.29l-25.66-2.17l-12.43-6.01l0,0l1.96-9.39l17.22-2.91l2.83-3.44
		l-17.58-19.59l-1.78-4.06l3.86-5.29l-4.47-0.45L251.29,228.77z"/>
	<path id="AT-3" fill="#1E3250" stroke="#1E3250" stroke-width="0.5" d="M441.98,0.73l9.779,2.6l0.34,6.13l8.07-1.35l1.38-5.01
		l15.17,5.24l17.71,11.65l11.881-2.64l20.369,15.82l22.811,2.11l5.58-8.54l7.29-1.69L572.18,29l1.49,6.42l17.57,1.24l4.07,20.68
		l-8.091,11.52l-1.37,8.31l9.87,13.93l1.4,11.08l7.35,6.42l0,0l-2.569,3.91l-4.841-2.25l3.24,3.64l-2.8,6.04l-7.14-6.08l-4.95,5.61
		l-9.71,1.771l-0.681,5.57l-9.539,9.41l-4.841-6.689l-5.659,1.03l-2.851,6.35l-4.979,1.82l3.01,2.74l-5.03,6.42l-3.13-2.63
		l-1.4,2.15l2.801,0.98l0.34,11.48l5.229,5.13l-4.71,9.25l2.01,5.91l-4.68,7.07l-8.89,3.85l0,0l-4.7-11.59l-4.41,3.99l-11.04-5.32
		l-2.229-4.73l-3.311,0.54l0.9-6.22l-9.21-1.28l-1.94-9.17l-3.37,1.25l-5.22-6.13l-7.93,0.5l-8.12-4.49l-0.5-3.51l-8.41-0.56
		l-0.899,3.47l-5.7-0.55l-1.44,4.88l-18.09,1.01l-3.561,3.88l-15.1-4.38l0,0l-2.29-12.18l4.351-2.67l-0.36-3.43l-2.56-3.89
		l-18.07-6.94l-3.62-5.62l2.58-21.21l6.97-0.96l9.29,8.26l11.3-4.061l3.94-5.04l7.49,3.85l0.97-6.84l-0.43-7.36l-3.42-0.54
		l1.75-7.91l-3.791,0.11l1.9-4.01l-5.89-7.13l4.45-2.92l-18.4-9.55l0,0l9.4-23.38l13.6,0.86l-0.1-25.22l1.39-4.24L441.98,0.73z
		 M545.7,88.94L545.7,88.94l-6.12,5.04l-4.05-2.49l-1.78,10.9l3.1,5.61l17.12,0.52l6.22-4.68l4.461,2.63l-1.841-14.95l-11.62-6.6
		l0,0l-0.609-0.22l0,0l-3.16,4.24l0,0l-0.5-0.74L545.7,88.94z"/>
	<path id="AT-4" fill="#1E3250" stroke="#1E3250" stroke-width="0.5" d="M347.18,30.34l16.93,11.57l-3.93,4.22l4.51,5.31l16.37,1.68
		l5.05,3.51l4.16-4.95l3.45,0.57l3.18-7.18l2.6,3.75l4.69,1.53l3.989-2.94l6.431,5.23l0,0l18.399,9.55l-4.45,2.92l5.891,7.14l-1.9,4
		l3.79-0.1l-1.75,7.91l3.42,0.54l0.44,7.36l-0.98,6.84l-7.489-3.85l-3.94,5.04l-11.31,4.06l-9.29-8.25l-6.971,0.95l-2.58,21.21
		l3.61,5.62l18.08,6.94l2.55,3.88l0.36,3.44l-4.351,2.67l2.28,12.18l0,0l-3.61-1.94l-13.35,6.43l-0.56,3.51l-16.55,8.72l-4.53-0.68
		l-1.89-4.52l-14.52,3.93l0.33-6.01l-3.66-3.93l-18.44-1.86l-6.67,10.46l-0.13,5.32l4.95,3.64l-2.57,10.7l-10.99-1.3l0,0l-8.68-7.4
		l3.64-9.68l-3.09-2.78l4.86-8.6l-8.52-2.76l2.1-5.81l4.22,1.64l0.83-3.07l-10.94,0.45l-8.34-4.21l-0.57-14.23l6.22,1.27l0.93-4.39
		l-5.67-4.12l-12.02,4.88l-7.91-8.84l-9.18,0.98l-5.82,4.53l0,0l-8.17-9.56l0.1-5.9l20.92-15.6l25-8.15l8.36-12.56V55.9l5.59-3.79
		l17.79,9.05l7.31-11.99l1.14-10.14l-3.42-2.04L347.18,30.34z"/>
	<path id="AT-6" fill="#1E3250" stroke="#1E3250" stroke-width="0.5" d="M418.42,152.69l15.1,4.38l3.57-3.89l18.08-1l1.44-4.89
		l5.71,0.55l0.89-3.48l8.42,0.56l0.5,3.51l8.12,4.49l7.92-0.5l5.22,6.14l3.37-1.26l1.94,9.17l9.21,1.28l-0.9,6.22l3.311-0.54
		l2.229,4.73l11.04,5.32l4.41-3.99l4.67,11.6l0,0l-10.99,5.02l6.73,27.39l-2.13,8.01l5.38,10.04l-12.67,18.38l0,0l-0.92,11.02
		l3.819,9.82l-15.43-7.81l-19.57,3.8l-7.479,8.76l-7.07-4.75l-27.87,0.41l0,0l-3.51-2.46l0.53-11.19l-4.271-2l4.12-14.38
		l-14.66-16.26l-18.29,6.13l-10.989-3.03l-6.101,5.06l-2.69-5.17L378,237.54l-2.44-5.56l-15.01,8.15l-6.74,9.71l-6.54,1.31
		l-5.27-3.98l0,0l9.94-14.22l-2.22-4.96l9.14-3.76l-7.68-4.99l-5.96-13l-8.94,4.08l-8.33-2.88l-3.47-16.14l1.75-6.14l0,0l10.99,1.3
		l2.57-10.7l-4.95-3.64l0.13-5.32l6.67-10.46l18.44,1.86l3.66,3.93l-0.33,6.01l14.52-3.93l1.89,4.52l4.53,0.68l16.55-8.72l0.56-3.51
		l13.35-6.43L418.42,152.69z"/>
	<path id="AT-5" fill="#1E3250" stroke="#1E3250" stroke-width="0.5" d="M268.29,123.02l5.82-4.53l9.18-0.98l7.91,8.84l12.02-4.88
		l5.67,4.12l-0.93,4.39l-6.22-1.27l0.57,14.23l8.34,4.21l10.94-0.45l-0.83,3.07l-4.22-1.64l-2.1,5.81l8.52,2.76l-4.86,8.6l3.09,2.78
		l-3.64,9.68l8.68,7.4l0,0l-1.75,6.14l3.47,16.14l8.33,2.88l8.94-4.08l5.96,13l7.68,4.99l-9.14,3.76l2.22,4.96L342,247.17l0,0
		l-7.24-11.14l-23.53-3.48l-2.83-3.3l-7.04,0.35l-2.16,5.45l-15.24,3.51l-11.08-7.42l-14.55-2.57l-0.42-3.29l-6.62,3.49l0,0
		l-12.31-6.42l-7.57,0.51l-12.96,9.76l0,0l-8.13-1.43l0,0L206,217.85l2.27-12.77l28.79-2.34l2.85-8.19l5.74,0.14l4.5-8.74l5.21-1.33
		l-5.43-8.18l2.82-3.5l-7.27-3.02v-3.58l0,0l2.43-4.78l14.23-0.09l-1.9,2.64l5.23,4.57l-3.5,3.66l1.29,3.04l16.43,10.87l3.54-3.41
		l2.67-22.96l-5.08-4.32h-8.71l7.64-14.92L268.29,123.02z"/>
	<path id="AT-7" fill="#1E3250" stroke="#1E3250" stroke-width="0.5" d="M218.45,232.62l12.96-9.76l7.57-0.52l12.31,6.43l0,0
		l5.42,6.64l4.47,0.44l-3.86,5.29l1.78,4.06l17.58,19.59l-2.84,3.44l-17.22,2.91l-1.96,9.39l0,0l-10.09,0.59l-11.89-5.58l-4.83-8.74
		l-5.69-1.05l1.86-6.49l-2.44-4.99l-4.91,0.99l-5.78-4.29l2.03-2.99l-3.8-8.36L218.45,232.62z M219.22,157.07l1.02,3.89l14.4-2
		l4.69,8.25l6.15-0.87l0,0l-0.01,3.58l7.27,3.02l-2.81,3.49l5.42,8.18l-5.21,1.33l-4.5,8.74l-5.74-0.14l-2.84,8.2l-28.79,2.34
		L206,217.85l4.32,13.35l0,0l-30.98,13.1l-10.26-5.13l-6.55,3.48l-4.56-3.3l-6.02,5.48l-6.73-3.21l-12.38,3.1l-5.5,6.16l-1.04,10.68
		l-5.03,6.33l-23.28-2.45l2.73-4.12l-7.75-6.04l-9.5,4.43l-6.03-2.22l1.49-9.78l-8.07-7.22l-5.77,8.79l-5.95-0.62l-0.81,7.55
		l-6.89,1.81l0,0l-3.99-8.65l5.02-6.69l-2.12-11.54l6.26-7.83l0.75-12.24l-3.23-2.14l0,0l12.05-4.09l8.44-8.94l3.17-6.06
		l-2.99-17.81l3.41-0.09l-2.04,3.49l5.43,2.42l3.88,0.15l2.09-4.13l14.28,6.43l8.72-2.69l2.39,2.82l-3.87,3.63l5.29,0.18l3.31,9.7
		l11.11,0.21l7.2-4.4l3.8,0.68l-2.33,3.87l3.56-0.24l5.54-6.15l6.73,0.54l-3-3.27l3.94-4.82l11.17-0.2l5.12-9.37l16.61,1.5
		l13.09-5.1l15.46,2.26l-3.17-11.08l7.41-5.08L219.22,157.07z"/>
	<path id="AT-8" fill="#1E3250" stroke="#1E3250" stroke-width="0.5" d="M24,170.85l1.05,5.5l4.67,2.26l7.65-2.14l2.42,7.47
		l7.16,2.86l0.69,12.17l6.76-4.43l4.33,1.25l-4.59,13.12l0,0l3.22,2.13l-0.75,12.24l-6.26,7.83l2.12,11.55l-5.02,6.68l3.99,8.65l0,0
		l-3.21,1.12l-6.9-7l-11.27-3.9l0.14-10.05l-21.68-4.71l1.87-8.12l-5.02-5.03l-3.01-11.44l11.38-14.1l-1.2-7.45l-5-1.26L0,174.81
		l18.42,3.2L24,170.85z"/>
	<path id="AT-9" fill="#1E3250" stroke="#1E3250" stroke-width="0.5" d="M550.84,84.85l0.34,0.08l0,0l11.63,6.6l1.841,14.95
		l-4.46-2.63l-6.221,4.68l-17.12-0.521l-3.1-5.62l1.78-10.9l4.05,2.49l6.12-5.04l0,0l1.72,0.01l0,0l3.16-4.23l0,0L550.84,84.85z"/>
</g>
</svg>
