<?xml version="1.0" encoding="utf-8"?>
<!-- Generator: Adobe Illustrator 15.0.0, SVG Export Plug-In . SVG Version: 6.00 Build 0)  -->
<!DOCTYPE svg PUBLIC "-//W3C//DTD SVG 1.1//EN" "http://www.w3.org/Graphics/SVG/1.1/DTD/svg11.dtd">
<svg version="1.1" id="Layer_1" xmlns:amcharts="http://amcharts.com/ammap"
	 xmlns="http://www.w3.org/2000/svg" xmlns:xlink="http://www.w3.org/1999/xlink" x="0px" y="0px" width="288.5px" height="240.5px"
	 viewBox="0 0 288.5 240.5" enable-background="new 0 0 288.5 240.5" xml:space="preserve">
<defs>
	
	
		<amcharts:ammap  projection="mercator" leftLongitude="44.760601" topLatitude="41.906070" rightLongitude="50.614493" bottomLatitude="38.353659">
		</amcharts:ammap>
</defs>
<g>
	<path id="AM-GR" fill="#1E3250" stroke="#1E3250" stroke-width="0.5" d="M34.194,77.71l-0.688,1.083l0.253,1.011l1.126,1.061
		l1.29,0.022l0.529-0.83l0.207-0.761l-0.967-1.126l-1.173-0.691L34.194,77.71z"/>
	<path id="AZ-ABS" fill="#1E3250" stroke="#1E3250" stroke-width="0.5" d="M222.239,108.434l-0.876,0.547l-0.678,0.764l-0.043,0.547
		l0.337,0.833l-0.036,0.547l-0.812,1.576l-0.663,0.84l-0.449,0.967L219,116.025l0.37,1.025l0.003,0.761l-1.51,2.195l-0.156,1.927
		l-0.844,1.633l-1.04-1.525l-0.981-1.057l0,0l-0.265-0.5l-0.098-1.746l0,0l-0.608-1.097l0,0l-0.768-0.826l-0.492-0.956l-0.076-0.565
		l0,0l-0.076-1.756l0,0l0,0l0,0l-0.55-0.725l0,0l-0.518-0.855l-0.677-0.431l0,0l-4.017-0.163l0,0l-0.837-0.348l0,0l-2.01-0.072
		l-0.641-0.181l-1.003-1.33l-0.742-1.459l-1.546-1.612l0,0l-0.124-0.152l0,0l-0.474-0.819l-1.348-1.268l0,0l-0.496-0.25l0,0
		l-1.336-1.007l-0.406-2.72l0.989,0.326l2.057,1.285l0,0l0.142,0.105l0,0l0.369,0.608l0,0l0.333,0.279l0,0l0.576-0.427l0,0
		l0.38-0.703l0.696-0.717l0,0l0.927-0.583l0.576-0.971l0,0l0.5-0.79l0.713-0.688l0,0l0.688-0.395l1.322-0.12l0,0l0.123-0.062l0,0
		l1.528-2.438l0.884-0.463l1.217-0.366l1.5-0.145l0.967-1.13l0.702-0.391l0,0l0.761-0.409l0,0l0.315-0.265l0,0l1.481-2.629l0,0
		l2.112-0.13l0,0l0.576-0.069l0,0l0.655-0.268l1.804-0.007l0,0l0.742-0.304l0,0l0.8-0.876l0.152-1.934l0,0l1.058-1.242l0.235-0.471
		l0.695-0.714l0.731-0.427l0.359-0.387l0.402-0.765l0,0l0.196-0.637l0.268-0.025l0,0l0.126,0.065l0,0l3.234,3.249l0.37,0.659l0,0
		l1.093,1.891l0,0l0.446,0.163l0,0l1.213,0.043l0,0l0.594-0.025l0.837-0.326l1.028-0.126l0.735-0.326l0.779-1.434l1.101,0.246
		l-0.511,0.764l-0.268,1.811l0.445,0.014l1.757-0.796l0.55-0.033l1.391,0.481l1.279,0.667l1.366,0.145l1.593,0.493l0.225,0.33v0.355
		l-0.391,0.376l-2.39,0.467l-1.688,0.594l-1.141,0.142l-2.05,0.917l-1.239-0.591l-0.572-0.094l-2.423-0.022l-1.311,0.46
		l-1.289,0.239l-1.25-0.395l-0.761,0.025l-1.22,0.547l-0.358,0.58l-0.203,0.869l-0.478,0.58l-1.224,0.449l-1.401,0.014l-0.554,0.221
		l-0.602,0.956l-0.445,1.163l0.344,1.021l0.083,1.166l0.355,1.036l-0.011,5.584l-0.344,0.975l-0.123,0.945L222.239,108.434z
		 M235.813,94.943l-1.546,0.112l-0.388,2.235l-0.83,1.876l-0.029,1.05l0.993,0.304l2.042-1.601l1.38,1.021l0.746-0.413l0.33-0.913
		l0.58-0.8l-0.771-1.796l-0.138-0.884L235.813,94.943z"/>
	<path id="AZ-AGA" fill="#1E3250" stroke="#1E3250" stroke-width="0.5" d="M29.623,56.718l0.003-1.677l-0.337-0.877l-0.072-1.59
		l-0.337-0.844l-0.025-0.583l0.083-0.37l0.626-0.862l-0.268-1.369l0.322-0.83l0.127-0.956l0.641-1.669l0.177-1.137l0.286-0.652
		l0.007-0.778l-0.442-1.014l-0.413-0.496l-0.543-0.305l-2-0.126l-0.655-0.293l-0.956-0.145l-1.395-0.478l-2.514-1.344l-1.098-0.923
		l-3.607-1.985l0,0l1.126-1.746l1.318-1.391l0.312-0.181l1.333-0.268l0.808-0.822l1.065-0.656l0.398-1.155l0.315-0.355l1.358-0.09
		l0.858-0.485l0.493,0.087l0.645,0.355l0.692,0.746l2.242,1.51l0.728-0.021l0.282-0.181l1.145-1.293l0.971,0.105l0.344,0.185
		l1.068,1.213l0.427,0.261l2.514,0.71l0.645,0.293l0.229,0.529l0.159,0.949l0.525,0.503l0.402,0.177l0.398,0.134l1.713-0.322
		l0.533,0.13l1.282,0.775l0.83,0.195l1.003-0.619l0.279,0.019l1.09,1.256l-0.359,0.253l-1.199,0.17l-0.5,0.507l-0.478,0.883
		l-0.261,0.055l-0.152,0.492l1.952,2.861l2.937,1.854l0,0l-4.433,2.333l-1.108,1.112l-0.442,1.282l-0.717,0.645l-0.362,0.018
		l-2.513-1.293l-0.442-0.04l-0.148,0.413l0.032,1.21l0.268,0.648l0.185,1.159l0.703,1.47l-0.043,1.771l-0.623,1.101l-1.55,1.471
		l-2.851,0.724l-0.312,1.134l-1.181,1.126l0,0l-1.431,0.655l-0.684-0.282l0.101-1.934l0.924-1.401l-0.022-0.247l-0.228-0.094
		l-1.13,0.138L29.623,56.718z"/>
	<path id="AZ-AGC" fill="#1E3250" stroke="#1E3250" stroke-width="0.5" d="M142.457,112.994l-2.532,5.342l-0.116,2.115l-0.355,1.054
		l-0.047,1.709l-0.326,0.836l-0.127,0.935l-0.945,1.796l-0.8,0.525l-1.731,0.112l-1.506,1.003l-2.753,0.083l-0.163,0.159
		l-0.196,0.685l-0.257,0.29l-0.482,0.257l-0.884,0.185l-0.626,0.488l-0.043,1.536l0.601,1.01l-0.134,0.228l-0.963,0.594
		l-0.272,0.529l0.243,0.445l0.906,0.67l0.514,1.311l0,0l-1.539,0.185l-0.822,0.297l-1.181,0.076l-1.652,1.04l-2.195,0.286l0,0
		l1.543-3.046l0.003-0.728l-0.666-1.079l-3.017-1.945l-0.478-0.457l-0.203-0.413l-0.174-1.575l0,0l0.869-0.674l0.891-1.271
		l-0.043-1.347l-0.695-1.068l-0.645-0.185l-1.203,0.007l-2.271,1.04l-1.376,0.359l-1.09-0.62l-1.097-0.217l-1.435-0.572
		l-0.858-0.836l-0.174-0.547l0.025-0.576l0.196-0.398l0.449-0.413l0.858-0.464l0.427-0.507l0.069-2.93l0.17-0.652l0.449-0.29
		l1.735-0.113l0.33-0.246l0.475-0.858l-0.025-0.29l-0.247-0.304l-0.959-0.323l-0.568-0.413l-0.138-0.467l0.069-0.351l0.51-0.442
		l2.579-1.268l0.829-1.203l0.931-1.032l0,0l-0.395-0.898l0.228-0.337l0.348-0.08l0.395,0.297l0.923,1.524l0.884,0.511l0.743,0.015
		l1.025-0.54l0.92-0.79l0.619-0.297l1.329-1.181l1.427-0.728l1.068-0.88l0.685-0.344l1.293-1.304l0,0l-0.243,1.92l0.015,1.785
		l0.152,0.348l0.945,1.112l0.17,0.735l0.572,1.156l0.731,0.05l1.25-0.667l1.181-0.076l0.84-0.301l1.181-0.058l0.826-0.268
		l1.978,0.634l0.207-0.271l0.229-0.992l0.239-0.33l0.312-0.109l0.971,0.398l0.558,0.427l0.485,1.13L142.457,112.994z"/>
	<path id="AZ-AGM" fill="#1E3250" stroke="#1E3250" stroke-width="0.5" d="M118.118,110.064l-0.931,1.032l-0.829,1.203l-2.579,1.268
		l-0.51,0.442l-0.069,0.351l0.138,0.467l0.568,0.413l0.959,0.323l0.247,0.304l0.025,0.29l-0.475,0.858l-0.33,0.246l-1.735,0.113
		l-0.449,0.29l-0.17,0.652l-0.069,2.93l-0.427,0.507l-0.858,0.464l-0.449,0.413l-0.196,0.398l-0.025,0.576l0.174,0.547l0.858,0.836
		l1.435,0.572l1.097,0.217l1.09,0.62l1.376-0.359l2.271-1.04l1.203-0.007l0.645,0.185l0.695,1.068l0.043,1.347l-0.891,1.271
		l-0.869,0.674l0,0l-0.833-0.276l-2.401,0.098l-0.475,0.496l-0.569,1.181l-0.326,0.352l-2.452-0.895l-1.231-0.598l-1.014-0.583
		l-1.253-1.156l-0.395-0.192l-0.778-0.033l-0.848,0.308l-0.978,0.054l-0.261,0.116l-0.134,0.25l-0.424,2.158l-0.685,0.811
		l-1.666,0.562l-2.246,1.177l0,0l1.007-2.401l1.898-2.39l0.464-1.362l-0.109-1.072l-0.543-0.525l-1.123,0.322l-0.601-0.199
		l-0.989-0.605l-0.236-0.55l-0.087-1.558l-0.963-1.123l-0.424-0.761l-0.775-0.75l-0.59-0.229l-0.587,0.004l-1.463,0.677
		l-0.562,0.033l-1.112-0.555l-0.616-0.811l0,0l0.532-0.591l1.181-0.04l1.333-0.294l0,0l0.438-1.698l-0.326-0.938l0.051-0.735
		l0.264-0.286l1.213-0.579l0.388-0.359l0.453-1.159l0.043-1.778l0.156-0.435l1.065-0.645l0.351,0.014l0.652,0.286l0.779,0.026
		l1.768-0.67l0.786-0.862v-0.344l-0.312-0.851l0.105-0.673l0.648-0.019l1.087,0.924l0.579,0.206l0.446-0.119l0.616-0.583
		l0.525,0.036l0.757,0.771l0.155,1.546l0.54,0.616l0.786,0.21l0.902-0.286l0.63,0.04l0,0l0,0l0,0l1.905-0.453l0.996,0.054
		l1.231,0.391L118.118,110.064z"/>
	<path id="AZ-AGS" fill="#1E3250" stroke="#1E3250" stroke-width="0.5" d="M135.228,87.819l-2.224-0.96l-1.25,0.533l-1.325,0.145
		l-0.225,0.319l-0.123,0.743l-0.275,0.648l-0.047,1.778l-0.366,1.014l-0.007,0.768l0.634,1.169l1.554,0.928l0.413,0.409l0.203,0.46
		l0.007,0.489l0,0l-1.141,2.405l-0.235,0.876l-3.238,3.151l0,0l-0.829-0.417l-1.174-0.257l-0.221-0.333l-0.12-0.75l-0.576-0.989
		l-1.604-0.851l-0.159-0.833l0.217-1.243l-1.344-0.279l-0.753-0.623l-0.507-1.112l-0.044-1.786l-0.156-0.438l-1.314-0.92
		l-0.648-0.96l-0.829-0.322l-0.768-0.728l-0.221-0.336l-0.283-1.348l-0.808-1.521l0,0l1.17-0.511l0.598-0.511l0.384-0.478
		l0.804-1.59l0.047-1.351l-0.75-1.645l-0.022-1.782l0.355-1.018l0.127-0.945l0.641-1.257l0.949-4.303l0,0l0,0l0,0l1.123,0.33
		l2.021,0.163l2.271,1.155l0.728-0.054l0.427-0.54l0.431-0.112l2.553,0.928l0.895,0.456l2.126-0.598l0,0l0.283,1.739l0.087,4.14
		l0.5,0.463l1.619,0.836l0.529,0.493l0,0l1.568,2.133L136,83.849l-0.5,0.942L135.228,87.819z"/>
	<path id="AZ-AGU" fill="#1E3250" stroke="#1E3250" stroke-width="0.5" d="M176.089,103.28l-1.05-0.532l-0.642-0.591l-0.539-1.043
		l-0.16-0.739l-0.576-0.985l-0.558-0.247l-1.401-0.098l-0.54-0.424l-0.419-0.931l0.296-0.812l0.142-0.945l0.239-0.467l0.047-0.547
		l-0.489-1.126l-0.525-0.623l-2.959-0.152l-0.771,0.083l-1.116,0.909l-0.836,1.112l-0.547,0.206l-0.46-0.13l-0.529-0.471
		l-0.312-1.141l-0.148-0.123l-1.579,0.565l-1.583-0.801l-0.235-0.572l0.033-1.184l0.703-1.833l0.641-2.256l0,0L160.863,88
		l0.326,0.014l0.413-0.221L162,87.312l0.105-1.365l0.25-0.478l2.221-2.137l1.239-0.438l0.471-0.297l0.34-1.08l0.254-0.315
		l3.738-1.836l2.488-1.561l0.974-0.844l0.887-0.511l0.771-1.257l1.358-4.245l0,0l0.583,0.931l0.304,1.098l0.826,0.858l0.884,0.626
		l0.496,1.293l0.043,0.558l-1.104,1.818l0.253,0.978l-0.101,0.319l-0.935,1.336l-2.376,2.343l-0.493,0.946l0.069,0.5l1.203,1.992
		l0.612,0.565l1.485,0.558l3.611,0.152l2.177,1.445l0.913,0.489l0.529,0.134l0.174,0.196l-0.271,0.616l-0.413,0.391l-2.524,1.419
		l-2.05,0.971l-0.905,0.786l-0.246,0.634l-0.076,2.361l-1.01,1.152l-1.054,1.561l0,0l-0.605,0.453l-0.141,0.764L176.089,103.28z"/>
	<path id="AZ-AST" fill="#1E3250" stroke="#1E3250" stroke-width="0.5" d="M198.469,206.585l0.145,5.639l-0.047,5.687l-2.571,0.543
		l-1.087,0.79l-0.695,0.742l-1.185,0.348l-1.93,0.149l-0.743,0.887l-0.887,0.496l-1.731-0.199l-0.742-0.739l-1.435-0.445
		l-1.927-1.387l0.142-1.478l-0.728-1.966l-0.533-0.909l-1.307-1.419l0,0l0.362-0.312l0.532-0.876l0.155-1.499l0.485-0.551l2.3-1.289
		l0.561-0.025l0.953,0.271l1.883-1.032l0,0l0,0l0,0l0,0l0,0l1.192,0.395l2.028,0.044l2.268-1.011l2.607-0.775l0,0l1.637-0.369l0,0
		L198.469,206.585z"/>
	<path id="AZ-BA" fill="#1E3250" stroke="#1E3250" stroke-width="0.5" d="M280.141,100.886l-0.116,0.304l-0.746-0.17l-1.116,0.398
		l-0.608,0.978l-0.641,0.398l-0.174-0.145l0.938-1.148l-0.109-0.21l0.018-0.818l-0.163-0.275l-0.634-0.29l-0.051-0.09l0.297-0.247
		l-0.25-0.398l-0.319,0.029l-0.29-0.431l0.108-0.09l0.515,0.177l0.586,0.8l0.525,0.366l0.225,0.525l0.185-0.286v-0.286l-0.25-1.188
		l0.815,0.521l0.16-0.029l0.043-0.326l0.988,1.083L280.141,100.886z M268.467,105.305l-0.036,2.463l-0.275,0.677l-0.163-1.836
		l-0.576-1.887l0.112-0.608l-0.297-1.318l-0.25-0.409l-1.065-1.246l-0.406-0.108l-0.583-0.525l-0.83-0.174l-0.192-0.261
		l-2.358-1.246l-0.768-0.253l-0.695-0.09l-1.025,0.083l-0.858-0.521l-1.387-0.38l-0.927-0.08l-0.663,0.214l-0.401,0.337l-0.326,0.76
		l-0.616-0.011l-0.681-0.275l-0.594,0.05l-0.779,0.207l-0.935,1.025l-0.362,0.025l-1.231-0.366l-0.938,0.235l-0.167-0.746
		l-0.329-0.518l-1.272-0.913l-0.905-0.163l-1.362-0.029l-0.427,0.138l-0.188-0.13l-0.786,0.308l-0.42,0.554l0.185,0.707l0.094,0.08
		l0.297-0.12l0.239,0.25l-0.348,0.228l-0.011,0.819l-0.358,1.191l-0.239,0.283l-0.301,0.163l-0.572-0.018l-0.402-0.163l-1.05,0.2
		l-1.065,0.398l-1.3,0.996l-0.456,0.163l-0.761-0.163l-1.003,0.174l-0.387,0.355l-0.467,0.779L233.651,105l-0.46,0.377l-0.105,0.406
		l0.33,0.014l-0.054,0.138l-0.558,0.17l-0.072-0.533l-0.145-0.032l-0.42,0.471l-1.568,0.648l-0.807,0.764l-2.064,0.75l-1.116,1.228
		l-0.891,0.213l-0.376,0.427l-0.163,1.163l0.16,1.214l0.76,1.235l-0.594,0.094l-0.308,0.29l-0.562-0.13l-0.463,0.449l-0.438,0.094
		l-0.351,0.46l-0.572,0.354l-0.17,0.529l0.41,1.706l0.514,1.068l1.485,1.79l0.739,1.184l-0.134,0.344l-1.054,0.854l-1.29,0.648
		l-0.315,0.352l-0.221,0.677l-0.09,0.771l0.471,2.401l0.905,1.851l-0.449,0.597l-0.55,0.116l-0.413,0.453l-0.203,1.315l-0.971,1.72
		l-0.043,0.88l0.145,1.086l0.576,2.155l0.83,1.72L221,140.437l-0.916,1.003l-0.265-0.677l-0.072-1.927l-0.279-0.667l-0.087-0.634
		l0.021-4.046l0.098-0.449l0.471-0.717l-0.203-2.992l-1.518-2.249l-0.395-0.804l-0.16-1.13l-0.395-1.065l-0.435-0.515l0.844-1.633
		l0.156-1.926l1.51-2.195l-0.004-0.76l-0.369-1.025l0.018-0.971l0.449-0.967l0.663-0.84l0.807-1.576l0.037-0.547l-0.337-0.833
		l0.043-0.547l0.677-0.764l1.116-0.771l0.481-0.862l0.123-0.945l0.33-0.826l0.025-5.733l-0.355-1.036l-0.08-1.167l-0.344-1.021
		l0.446-1.163l0.598-0.956l0.46-0.203l1.68-0.076l1.116-0.445l0.402-0.543l0.203-0.869l0.358-0.58l1.221-0.547l0.75-0.025
		l1.257,0.395l1.29-0.239l1.311-0.46l2.412,0.022l0.572,0.094l1.25,0.59l2.054-0.92l1.141-0.142l1.688-0.594l2.39-0.467l0.333-0.217
		l0.058-0.514l-0.225-0.33l-1.593-0.493l-1.366-0.145l-1.278-0.666l-1.395-0.482l-0.562,0.033l-1.756,0.797l-0.435-0.015
		l0.268-1.811l0.511-0.764l2.064-0.12l0.808,0.5l0.862,0.188l2.992-0.453l2.64-0.583l2.006-0.735l0.62,0.011l0.695,0.478
		l0.558,0.062l1.808-0.42l0.445,0.011l0.438-0.228l0.116,0.333l-0.341,0.604l0.116,0.312l1.04,1.116l0.203,0.826l0.232,0.322
		l0.532,0.348l0.275,0.457l0.344,0.188l1.34,0.159l0.25,0.253l0.612,0.098l0.692,0.479l0.532-0.185l0.312,0.2l0.463-0.019
		l0.46,0.344l0.336-0.073l0.562,0.971l0.022,0.392l0.464,0.46l0.105,0.413l0.463,0.301l0.13,0.616l0.29,0.127l0.265-0.235
		l0.362,1.083l0.362,0.435l2.339,1.493l0.145,0.774l1.072,2.282l0.029,2.216l-0.275,1.441l0.326,1.293l-0.076,0.525l0.275,0.457
		l0.062,0.753L268.467,105.305z M238.189,95.139l-2.376-0.192l-1.546,0.112l-0.388,2.235l-0.83,1.876l-0.029,1.05l0.993,0.305
		l2.042-1.601l1.38,1.021l0.746-0.413l0.33-0.913l0.58-0.801l-0.771-1.796L238.189,95.139z M233.216,121.907l-0.243,0.406
		l0.134,0.21l1.184-0.29l0.229-0.435l-0.344-0.721l-0.011-0.435h-1.08L233.216,121.907z M266.566,92.878l0.007,0.417l0.402,0.181
		l0.417,0.626l-0.42,0.178l0.047,0.134l0.315,0.029l0.423,1.995l0.156,0.029l-0.072-1.257l0.261-0.652l0.221-0.21l-0.007-0.246
		l-0.203-0.637l-0.257,0.003l-0.231-0.293l-0.112-0.688l-0.152-0.214l0.235-0.54l-0.348-1.068l-0.225-0.207h-0.3l-0.304-0.326
		l-0.333,0.384l-0.521,0.34l-0.312-0.072l-0.058,0.152l0.199,0.333l0.626,0.388l0.286,0.833L266.566,92.878z"/>
	<path id="AZ-BAB" fill="#1E3250" stroke="#1E3250" stroke-width="0.5" d="M33.969,151.461l-0.116,0.826l-0.648,0.279l-1.021,1.297
		l-2.503,1.764l0.275,1.112l1.021,0.279h0.648l0.558,0.743l0.185,1.391l0.743,1.206l2.875,0.185l1.391,1.576l1.391,1.021
		l-0.464,1.297l0.373,0.558l0,0h1.018l0,0l0.094,1.021l-0.279,0.833l-1.112,0.743v1.391l-0.185,0.927l-1.485,0.188l-0.927,0.275
		v1.021l1.948,1.576l0.275,0.836l-0.09,1.206l-0.837,0.743l-0.463,1.576l0.927,1.111l1.206,0.837l0.373,1.206l-0.094,1.112
		l-0.648,0.833l0.091,2.145l0,0l-0.707,0.405l-0.659-0.018l-1.217-0.728l-2.159-0.67l-1.054-0.634l-0.37-0.406l-0.134-0.514
		l0.685-1.405l0.101-1.105l-0.156-0.167l-0.771-0.021l-1.094-0.681l-0.29-0.33l-0.123-0.655l0.123-0.645l-0.29-0.718l-1.496-1.988
		l-0.268-1.558l-0.503-0.312l-0.985,0.174l-0.453-0.655l0.377-0.344l0.431-0.793l-0.17-0.387l-0.42-0.083l-0.594,0.257l-0.717,0.572
		l-3.205-1.104l-0.938,0.007l-0.286-0.33l-0.112-0.37l-0.503-0.533l-0.326,0.156l-0.072,0.594l-0.79,0.098l-0.185-1.814
		l-2.126-4.285l0,0l1.33-0.167l0.742,0.742l1.116-0.558l0.739-0.185l0.558,0.369l2.039-1.76l0.464-1.579l1.485-2.966l0.373-1.206
		v-1.949l-0.188-1.391l1.116-0.648l0.185-1.391l0.956-2.528l0,0l1.796,0.46l1.384,0.753l1.05-0.033l0.427,0.409l0.529,1.239
		l0.174,0.181L33.969,151.461z"/>
	<path id="AZ-BAL" fill="#1E3250" stroke="#1E3250" stroke-width="0.5" d="M79.311,0.33l0.355,0.261l0.264,0.442l0.558,0.34
		l1.434,0.217l1.713-0.062l1.199,0.463l0.304,0.38l0.054,3.083l0.536,0.829l0.427,0.312l0.757,0.076l0.373-0.145l1.354-0.804
		l1.648-0.746l0.681-0.102l1.503,0.478l0.359-0.174l0.282-1.029l0,0l0.337,0.453l0.108,0.417l-0.09,2.347l-0.442,0.992l-2.123,2.162
		l-0.76,0.417l-0.971,0.854l-0.645,0.33l-2.089,1.616l-0.543,1.032l-0.116,0.967l-0.446,1.398l-0.851,1.518l-3.187,1.985
		l-2.104,0.134l-0.945,0.953l-2.155,1.253l-0.507-0.076l-1.728-0.949l0,0l-0.116-0.695l0.21-0.543l-0.373-0.743l-1.413-0.612
		l0.029-0.095l-0.83-0.123L70.006,20.5l-0.873-1.068l-0.098-3.006l-0.681-2.036l-0.681-3.491l1.26-1.648l2.133-0.775l2.397-0.5
		L75.551,6.1l1.789-1.083l1.061-1.188l0.514-1.051l0.239-0.782L79.311,0.33z"/>
	<path id="AZ-BAR" fill="#1E3250" stroke="#1E3250" stroke-width="0.5" d="M111.295,110.245l-0.108-0.945l-0.323-0.771l-0.083-0.619
		l0.007-4.289l0.369-1.257l-0.062-0.496l-0.38-0.38l-1.329-0.188l-0.543-0.293l-0.409-0.489l-0.913-1.764l-1.054-0.757l-0.492-1.311
		l-0.279-1.992l0,0l1.311-1.648l0.775-1.488l0.992-1.376l0.764-0.112l0.732,0.134l1.34,1.115l0.395,0.127l1.974-1.373l0.696-0.84
		l0.768-2.583l0,0l0.808,1.521l0.283,1.348l0.221,0.336l0.768,0.728l0.829,0.322l0.648,0.96l1.314,0.92l0.156,0.438l0.044,1.786
		l0.507,1.112l0.753,0.623l1.344,0.279l-0.217,1.243l0.159,0.833l1.604,0.851l0.576,0.989l0.12,0.75l0.221,0.333l1.174,0.257
		l0.829,0.417l0,0l-0.576,1.047l0.134,0.587l0.59,0.366l1.634-0.08l0.275,0.138l-0.029,0.282l0,0l-1.293,1.304l-0.685,0.344
		l-1.068,0.88l-1.427,0.728l-1.329,1.181l-0.619,0.297l-0.92,0.79l-1.025,0.54l-0.743-0.015l-0.884-0.511l-0.923-1.524l-0.395-0.297
		l-0.348,0.08l-0.228,0.337l0.395,0.898l0,0l-2.691,0.174l-1.231-0.391l-0.996-0.054L111.295,110.245z"/>
	<path id="AZ-BEY" fill="#1E3250" stroke="#1E3250" stroke-width="0.5" d="M137.079,148.698l0.656-1.225l0.083-0.558l-0.029-1.173
		l-0.511-1.098l-0.565-0.561l-1.836-1.127l-1.003-0.952l-1.84-2.76l-1.478-0.199l-0.388-0.207l-0.38-0.602l-0.326-1.344l0,0
		l-0.514-1.311l-0.906-0.67l-0.243-0.445l0.272-0.529l0.963-0.594l0.134-0.228l-0.601-1.01l0.043-1.536l0.626-0.488l0.884-0.185
		l0.482-0.257l0.257-0.29l0.196-0.685l0.163-0.159l2.753-0.083l1.506-1.003l1.731-0.112l0.8-0.525l0.945-1.796l0.127-0.935
		l0.326-0.836l0.047-1.709l0.355-1.054l0.116-2.115l2.532-5.342l0,0l1.373,0.992l0.37,0.445l-0.138,0.235l-1.065,0.747l0,0
		l1.224,1.724l1.344,0.833l0.402,0.402l0.275,0.489l0.46,1.572l-0.134,0.518l-0.59,0.902l-2.879,1.746l-0.348,0.395l-0.011,0.87
		l0.268,0.297l1.029,0.62l0.261,0.739l-0.177,0.724l-1.387,1.456v0.92l0.634,0.521l0.88,0.221l1.395,0.591l0.826,1.47l0.895,1.228
		l1.952,0.917l0.786,0.743l0.192,0.435l-0.083,0.279l-0.428,0.445l-0.771,0.402l-0.978,0.833l-1.847,1.064l-0.562,0.54l-0.92,1.459
		l-0.029,2.738l0,0l-2.003,2.083L137.079,148.698z"/>
	<path id="AZ-BIL" fill="#1E3250" stroke="#1E3250" stroke-width="0.5" d="M191.58,157.274l-1.996-0.072l-1.521-0.71l-0.757,0.348
		l-0.424,1.177l-1.083,0.681l-0.21,0.268l0.243,0.988l-0.007,2.507l-0.54,1.043l-0.648,0.326l-1.137-0.108l-1.112-0.971
		l-0.145-0.352l-0.105-1.731l-0.891-1.673l-0.456-0.312l-0.964,0.003l-0.883,0.467l-0.938,1.525l-1.112,1.083l-0.547,0.271
		l-1.188,0.08l-0.395,0.163l-0.402,0.362l-0.569,0.898l-0.873,0.438l-0.996-0.058l-0.522-0.435l-0.17-3.433l0,0l1.724-0.428
		l-1.036-0.72l-1.623-1.634l-1.01-0.728l-0.645-0.771l-4.357-4.241l-0.746-1.007l-1.416-2.803l-1.119-0.851l-1.181-1.17
		l-0.768-0.938l-1.22-1.909l-2.55-2.376l-0.703-0.971l-1.763,1.387l0,0l-0.833-1.489l0.087-0.351l0.337-0.362l1.185-0.641
		l0.489-0.062l0.503,0.043l1.369,0.471l1.308,0.811l4.263,4.216l0.634,0.326l0.967,0.88l1.847,1.141l0.92,0.823l1.992,1.032
		l1.836,0.055l0.572-0.199l2.09-1.988l0.8-1.471l0,0l1.326-1.702l0.927-0.884l0.402-0.221l0.304-0.007l1.387,0.586l0.895,1.235
		l0.514,0.978l0.293,0.261l0.366,0.086l1.626,0.04l0.645-0.148l0.384-0.493l0.63-1.594l0,0l0,0l0,0l0.869-0.007l1.333,0.659
		l6.649,2.199l0,0l-0.547,1.738l-0.167,0.963l-0.283,0.634l-0.076,1.151l-0.29,0.634l-0.083,0.554l0.167,0.71l0.88,0.963
		l0.953,1.525L191.58,157.274z"/>
	<path id="AZ-CAB" fill="#1E3250" stroke="#1E3250" stroke-width="0.5" d="M120.255,160.679l-2.202,1.406l-0.812,1.199l-3.198,0.797
		l-2.13,1.684l-1.655,1.721l-0.203,1.094l-0.626,1.931l-0.674,1.119l-0.963,0.804l-0.743,0.043l-0.098,0.616l-0.648,0.442
		l-1.3,0.757l-1.441-1.463l-1.742,0.243l-0.771,0.293l0,0l-0.069-1.861l-0.402-0.797l-0.917-1.275l-0.674-0.547l-0.297-0.464l0,0
		l-0.876-0.836l-2.343-1.268l-0.413-0.482l-0.391-0.797l-0.148-2.691l-0.55-1.018l-0.877-0.721l-0.119-0.485l0.087-1.735
		l0.808-1.383l0.543-0.188l0,0l1.416,0.246l1.633,0.92l0.521-0.148l1.007-1.905l-1.007-2.307l0.482-0.587l0.757-0.015l1.224,0.981
		l1.007,0.279l0.576,0.362l0.112,0.192l-0.235,0.771l0.105,0.457l3.376,2.264l-0.149,0.746l0.124,0.264l0.721,0.051l0.55-0.282
		l1.239-1.062l0.435-0.051l0.641,0.229l0.435-0.25l0.076-0.406l-1.058-2.224l0.174-0.344l0.707-0.511l0.441-0.739l0,0l2.119,1.311
		l0.858,0.272l0.543,0.376l1.061,1.963l0.181,0.681l0.257,0.308l0.413,0.083l0.656-0.254l1.735-0.293l1.648,1.068l0.692,0.735
		L120.255,160.679z"/>
	<path id="AZ-CAL" fill="#1E3250" stroke="#1E3250" stroke-width="0.5" d="M172.656,181.189l-0.507-1.253l-1.854-2.423l-0.612-0.558
		l-0.231-1.217l-0.163-0.159l-0.551-0.105l-0.424-0.323l-1.032-0.181l-0.844-0.373l-0.456-0.446l-0.533-1.3l0.029-0.297
		l-0.757-0.615l-1.861-1.036l-1.112-1.007l-0.185-0.402l0.17-0.54l-0.221-0.29l-0.283-1.003l0.159-0.851l-0.054-0.659l0.141-0.231
		l0.376-0.087l0.493-1.054l0.594-0.645l0.308-0.029l0.391-0.38l0.572-0.181l0.232-0.489l0.532-0.406l0.25-0.08l0.257,0.102
		l0.706-0.34l0.525,0.076l0.695-0.253l0.297-0.239l0.003-0.312l0.257,0.062l0.989-0.605l0.793-0.304l0.352-0.322l0.511,0.022
		l0.623-0.406l0,0l0.17,3.433l0.522,0.435l0.996,0.058l0.873-0.438l0.569-0.898l0.402-0.362l0.395-0.163l1.188-0.08l0.547-0.271
		l1.112-1.083l0.938-1.525l0.883-0.467l0.964-0.003l0.456,0.312l0.891,1.673l0.105,1.731l0.145,0.352l1.112,0.971l1.137,0.108
		l0.648-0.326l0.54-1.043l0.007-2.507l-0.243-0.988l0.21-0.268l1.083-0.681l0.424-1.177l0.757-0.348l1.521,0.71l1.996,0.072l0,0l0,0
		l0,0l-1.528,1.836l-0.895,1.706l0,0l-0.004,4.256l1.862,3.629l0.051,3.303l0,0l-0.598,1.38l0,0l-0.981-0.392l-0.815-0.047
		l-0.257,0.123l-0.112,0.253l0.225,0.841l-0.12,0.253l-0.323,0.033l-0.659-0.294l-0.572-0.068l-0.79,0.376l-0.21,0.37v0.565
		l0.731,1.046l0.304,0.652l-0.087,0.268l-3.455,1.779l-0.978,0.956l-0.489,0.934l-0.235,0.852l-0.873,0.829l-2.879,0.587l0,0
		l-1.417-1.695l-1.557-1.021l-0.572-0.072l-1.061,0.558L172.656,181.189z"/>
	<path id="AZ-CUL" fill="#1E3250" stroke="#1E3250" stroke-width="0.5" d="M56.899,162.7l-2.456,3.683l-1.112,0.464l-0.836,1.206
		l-0.09,3.061l-1.579,2.042l-0.554,2.134l-1.67,2.133l-0.652,1.391l-0.09,1.206l-0.373,1.391l-0.37,0.648l1.021,0.742l0.739,0.091
		l0.931,1.206l0.185,1.115l-0.742,0.743l-0.185,0.833l-0.572,0.572l0,0l-0.315-0.127l-1.47-0.072l-0.797-0.228l-0.156-0.388
		l-0.304-0.275l-1.648-0.354l-0.626-0.269l-0.659-0.062l-1.536,0.612l-0.409-0.029l-0.134-0.163l0.076-0.475l-0.13-0.163
		l-0.746-0.207l-0.565-0.616l-0.413-0.073l-0.17,0.098l0,0l-0.091-2.145l0.648-0.833l0.094-1.112l-0.373-1.206l-1.206-0.837
		l-0.927-1.111l0.463-1.576l0.837-0.743l0.09-1.206l-0.275-0.836l-1.948-1.576v-1.021l0.927-0.275l1.485-0.188l0.185-0.927v-1.391
		l1.112-0.743l0.279-0.833l-0.094-1.021l0,0h-0.192l0,0l2.235-1.669h1.296l0.837-0.554l0.648-1.021h0.927l0.463,0.37l0.185,0.836
		l0.837,0.555l1.296-1.297l0.648-0.927l0.188-0.927l1.123-0.594l0,0l0.438,0.246l2.228,0.279l1,0.463L56.899,162.7z"/>
	<path id="AZ-DAS" fill="#1E3250" stroke="#1E3250" stroke-width="0.5" d="M66.757,101.462l-2.589,0.156l-1.062,0.326l-1.735-0.025
		l-2.231-0.54l-0.681-0.29l-1.105-0.062l-2.557,0.496l-0.409,0.515l0,0l-1.615,0.138l-0.724-0.069l-0.993-1.105l0,0l0.022-0.992
		l0.203-0.406l0.438-0.38l0.101-0.312l0.102-2.365l0.724-1.391l-1.941-3.466l-0.051-2.557l0.391-0.623l1.279-1.202l2.752-1.481l0,0
		l0.391-0.398l0.011-0.395l1.351-1.318l0.435-0.761l0.88-0.942l1.036-2.075l0.703-1.058l0.395-0.13l0.42,0.054l2.383,1.373l0,0
		l2.604,1.626l0.996,0.924l0.62,0.315l1.003,0.92l0.594,0.297l0.177,0.268l-0.934,1.427l-1.608,1.604l-0.308,0.604l-0.514,0.587
		l-0.098,0.359l0.728,1.322l2.564,2.571l1.677,1.145l0.072,0.587l-1.101,1.825L68.5,97.532l-0.753,0.392l-0.503,0.558l-0.442,0.96
		L66.757,101.462z"/>
	<path id="AZ-FUZ" fill="#1E3250" stroke="#1E3250" stroke-width="0.5" d="M123.696,157.129l-0.358,0.453l-0.601,1.25l-0.707,0.717
		l-1.774,1.13l0,0l-0.373-0.681l-0.692-0.735l-1.648-1.068l-1.735,0.293l-0.656,0.254l-0.413-0.083l-0.257-0.308l-0.181-0.681
		l-1.061-1.963l-0.543-0.376l-0.858-0.272l-2.119-1.311l0,0l0.482-0.518l-0.076-1.047l1.423-0.145l0.275-0.192l-0.214-0.764
		l-0.094-1.17l-0.271-0.808l0.253-0.431l0.659-0.414l-0.098-0.717l0.17-0.753l-0.453-0.235l-0.66,0.13l-1.398,1.188l-0.854,0.427
		l-0.257,0.011l-0.457-0.272l-0.195-0.38l0.04-0.355l0.768-0.975l0.388-0.192l1.17-0.083l0.952-0.409l0.562-0.406l0.138-0.459
		l-0.072-0.344l-0.33-0.203l-0.445,0.098l-0.989,0.568l-0.724-0.105l-0.732-0.427l-0.261-0.33l-0.094-0.507l0.152-0.435l0.449-0.145
		l2.206-0.025l2.637-1.282l1.297-1.405l0.909,0.007l1.463-0.634l2.397-0.007l1.532-0.681l0.706-0.145l0,0l2.195-0.286l1.652-1.04
		l1.181-0.076l0.822-0.297l1.539-0.185l0,0l0.326,1.344l0.38,0.602l0.388,0.207l1.478,0.199l1.84,2.76l1.003,0.952l1.836,1.127
		l0.565,0.561l0.511,1.098l0.029,1.173l-0.083,0.558l-0.656,1.225l0,0l-1.246,0.858l-1.488,1.304l-1.242,0.815l-3.057,1.119
		l-2.513,1.09l-1.015,0.058l-0.931,0.326l-0.55,1.046L123.696,157.129z"/>
	<path id="AZ-GA" fill="#1E3250" stroke="#1E3250" stroke-width="0.5" d="M74.519,75.157l1.326-0.069l0.829,0.42l0.286,0.387
		l0.072,0.395l-0.282,1.304l0,0l-0.42,1.014l-1.21,1.108l-0.917,1.079l-0.529,0.145l-0.981-0.58l-0.213-0.735l0.322-0.833
		l0.043-0.586l-0.043-0.587l-0.257-0.656l0.033-0.365l0.529-0.627L74.519,75.157z"/>
	<path id="AZ-GAD" fill="#1E3250" stroke="#1E3250" stroke-width="0.5" d="M32.567,73.737l-1.344,0.58l-0.239,0.254l-0.489,1.467
		l-1.115,1.26l-0.866,1.543l-0.054,0.413l0.083,0.634l0.507,0.304l0.192,0.279l-0.015,1.438l0.221,0.323l0.492,0.286l1.239-0.163
		l1.213,0.728l0.641,1.097l-0.58,1.159l-0.04,0.373l0.352,0.742l-0.503,0.931l-0.076,0.558l0.112,0.59l0.373,0.442l1.945,1.51
		l1.941,0.275l1.014,0.59l0.409,0.616l0.489,1.289l1.655,1.5l2.199,2.807l1.358,0.087l0.88,0.203l2.912,1.029l2.753,1.398
		l0.833,0.721l0,0l0.021-0.992l0.199-0.406l0.438-0.38l0.101-0.312l0.102-2.365l0.724-1.395l-1.944-3.463l-0.051-2.557l0.395-0.623
		l1.275-1.202l2.752-1.481l0,0l-0.355-0.37l-0.051-0.268l0.41-0.562l-0.036-1.369l-0.305-0.837l0.486-1.213l-0.026-0.326
		l-1.474-1.246l-0.359-0.963l-0.257-0.326l-2.3-1.369l-1.615-2.361l-0.493-0.963l-0.21-1.666l-0.427-0.471l-0.808-0.514
		l-1.224-1.901l0,0l-0.268,1.514l-0.359,1.021l0.004,2.347l0.362,1.238l-0.366,1.228L45.36,81.39l-0.721,1.481l-0.402,0.395
		l-0.485,0.235l-0.706-0.264l-1.137-1.195l-1.13-0.214l-0.3-0.257l-0.275-0.648l0.304-0.822l0.04-0.782l-0.083-0.362l-0.261-0.301
		l-2.115-1.112l-2.379-0.137l-0.565-0.254L34.9,76.587l-0.083-2.369l-0.485-0.956l-0.507-0.562L32.567,73.737z M36.704,80.057
		l-0.529,0.83l-1.29-0.022l-1.126-1.058l-0.253-1.014l0.692-1.083l0.576-0.231l1.174,0.691l0.967,1.126L36.704,80.057z"/>
	<path id="AZ-GOR" fill="#1E3250" stroke="#1E3250" stroke-width="0.5" d="M82.574,78.634l0.699,1.398l0.043,0.989l-0.37,1.014
		l0.004,2.397l0.235,0.562l0.673,0.507v0.445l-0.264,0.616l-0.891,0.942l-0.467,0.789l-3.98,3.894l-1.148,2.231l-2.184,2.246
		l-0.105,2.148l-0.362,0.985l0.054,3.629l0,0l2.162,1.184l2.401,0.051l0.996-0.413l3.039-1.695l1.771-1.438l0,0l0.12-1.018
		l0.565-0.608l1.452-0.37l1.112-0.84l0.822-0.231l1.579-0.764l1.156-0.913l1.419-0.844l4.14-0.036l0.964-0.431l2.767-2.071
		l0.656-0.355l0.688-0.985l0.616-0.637l0.594-0.344l0,0l0.438-0.207l0.489,0.011l0.336-0.235l0.091-0.721l0.261-0.413l0.225-1.648
		l-0.417-0.16l-0.598-0.003l-1.438,0.362l-0.474-0.152l-0.268-0.315l-0.659-1.967l0.025-0.576l0.336-0.84l0.051-1.724l-0.108-0.771
		l-0.337-0.413l-1.26-0.811l-0.725-0.094l-0.586,0.203l-1.895,1.268l-0.645-0.047l-0.127-0.485l0.094-1.376l0.913-1.355l0.848-0.913
		l0.826-1.318l-0.13-0.239l-1.264-0.833l-2.05-0.279l-0.884-0.503l-0.308-0.46l0.029-1.76l1.058-2.05l0.072-0.405l-0.003-3.937
		l-0.358-1.087l-0.037-1.742l0.602-2.586l0,0l-1.369,1.318l-0.699,1.046l-1.496,1.481l-0.42,0.753l-1.601,1.612l-0.775,1.145
		l-1.271,1.217l-0.75,0.387l-0.869,0.779l-0.761,0.388l-0.467,0.438l-0.065,0.304l0.492,1.221l-0.489,0.837l-1.561,0.844
		l-0.88,0.844l-0.217,1.282l-0.507,1.065l-0.13,0.952L82.574,78.634z M97.659,93.766l-0.667,0.489l-1.289-0.178l-0.623-0.667
		l-0.043-0.887l0.355-0.71l1.112-0.355l1.155,0.446l0.221,1.155L97.659,93.766z"/>
	<path id="AZ-GOY" fill="#1E3250" stroke="#1E3250" stroke-width="0.5" d="M154.673,93.067l-1.26-0.667l-1.032,0.304l-1.985-0.105
		l-5.501-2.825l-0.858,0.109l-0.793,1.191l-0.518,0.152l-1.702-0.905l-0.978-0.836l-1.018-0.587l-0.562-0.029l-1.065,0.655
		l-0.518,0.025l-0.481-0.757l-1.123-0.576l-0.05-0.398l0,0l0.271-3.028l0.5-0.942l0.905-1.058l-1.568-2.133l0,0l2.55-1.369
		l2.988-0.047l1.348-0.815l0,0l2.466,0.609l2.079,1.09l0.344,0.007l1.271-0.608l0.344,0.003l1.677,0.674l1.145,0.188l2.894,1.101
		l1.148,0.181l1.028,0.572l0.493,0.497l0.38,0.895l-0.731,1.554l-0.67,0.844l-0.453,0.978l0.08,0.992l0.612,0.598l0,0l0.471,1.807
		l-0.051,1.576l-0.46,1.104l-0.536,0.098L154.673,93.067z"/>
	<path id="AZ-GYG" fill="#1E3250" stroke="#1E3250" stroke-width="0.5" d="M66.757,101.462l0.043-2.021l0.442-0.96l0.503-0.558
		l0.753-0.392l1.054-0.974l1.101-1.825l-0.072-0.587l-1.677-1.145l-2.564-2.571l-0.728-1.322l0.098-0.359l0.514-0.587l0.308-0.604
		l1.608-1.604l0.934-1.427l-0.177-0.268l-0.594-0.297l-1.003-0.92l-0.62-0.315l-0.996-0.924l-2.604-1.626l0,0l1.08-0.775
		l0.851-0.876l3.383-0.025l0.478-0.131l0.532-0.435l0.587-1.202l0.112-1.753l0.695-1.456l0.116-2.133l0.656-0.862l1.003-2.039l0,0
		l1.405,2.564l0.127,0.953l0.326,0.844l0.087,2.307l0,0l-1.413,0.815l-0.529,0.627l-0.033,0.365l0.257,0.656l0.043,0.587
		l-0.043,0.586l-0.322,0.833l0.213,0.735l0.981,0.58l0.529-0.145l0.917-1.079l1.21-1.108l0.42-1.014l0,0l0.953,0.489l1.38,0.355
		l1.543,0.032l0.891-0.225L81.832,78l0,0l0.742,0.634l0.699,1.398l0.043,0.985l-0.37,1.014l0.004,2.397l0.235,0.565l0.673,0.503
		v0.445l-0.268,0.616L82.701,87.5l-0.464,0.79l-3.98,3.894l-1.148,2.231l-2.184,2.246l-0.105,2.147l-0.362,0.985l0.054,3.629l0,0
		l-2.264-0.515l-0.869-0.344l-3.169-0.134l-0.381-0.148L66.757,101.462z"/>
	<path id="AZ-HAC" fill="#1E3250" stroke="#1E3250" stroke-width="0.5" d="M199.606,126l0.047-1.148l0.681-0.927l0.004-0.337
		l-0.971-1.119l-0.739-1.358l-0.304-0.13l-0.793,0.286l-0.333,0.587l0.047,0.413l0.688,1.337l-0.051,1.934l0,0l-1.753-1.021
		l-0.191-1.235l-0.185-0.406l-0.442-0.434l-0.847-0.504l-0.993-1.213l-0.76-0.42l-4.379-1.043l-1.391-0.598l-0.602-0.974
		l-0.398-0.975l0.667-1.413l0.355-1.213l-0.043-0.217l-0.283-0.261l-1.115-0.369l-2.282-1.123l-6.313-0.058l0,0l0.087-2.079
		l0.362-1.036l0.025-1.304l-0.362-1.083l-0.076-2.354l-0.29-0.521l-0.583-0.402l0,0l0.862-2.09l0.141-0.764l0.605-0.453l0,0
		l0.88,0.435l2.391,0.192l1.239,0.96l2.119,0.775l1.912,1.322l1.065,0.489l0.38-0.138l0.906-0.764l0.673-0.348l0.895-0.858
		l0.62-2.901l0,0l0.873,0.913l0.503,0.268l2.036,0.065l1.546-0.232l0,0l0.406,2.72l1.336,1.007l0,0l0.496,0.25l0,0l1.344,1.268
		l0.475,0.818l0,0l0.123,0.152l0,0l1.546,1.611l0.743,1.46l1.003,1.329l0.641,0.178l2.01,0.072l0,0l0.833,0.351l0,0l4.021,0.159l0,0
		l0.268,0.113l0,0l0,0l0,0l0.406,0.318l0,0l0,0l0,0l0.521,0.855l0,0l0.547,0.728l0,0l0,0l0,0l0.076,1.756l0,0l0.072,0.565l0,0l0,0
		l0,0l0.497,0.956l0,0l0,0l0,0l0.768,0.826l0,0l0.608,1.097l0,0l0.098,1.742l0.264,0.5l0,0l0.985,1.057l1.036,1.525l0.362,0.33
		l0.471,1.25l0.159,1.133l0.493,0.953l1.369,1.919l0.253,3.169l0,0l-1.568-1.402l-1.061-0.691l-0.634-0.695l-0.366-0.685
		l-0.652-0.503l-0.3-0.022l-1.463,0.648l-0.775-0.018l-0.659-0.301l-0.568-0.087l-1.612,0.333l-2.086-0.779l-1.79-0.141l-1.177-0.67
		l-1.416-1.083l-1.191-0.616l-1.63-0.054l-1.134,0.547L199.606,126z"/>
	<path id="AZ-IMI" fill="#1E3250" stroke="#1E3250" stroke-width="0.5" d="M144.674,143.504l0.029-2.738l0.92-1.459l0.562-0.54
		l1.847-1.064l0.978-0.833l0.771-0.402l0.428-0.445l0.083-0.279l-0.192-0.435l-0.786-0.743l-1.952-0.917l-0.895-1.228l-0.826-1.47
		l-1.395-0.591l-0.88-0.221l-0.634-0.521v-0.92l1.387-1.456l0.177-0.724l-0.261-0.739l-1.029-0.62l-0.268-0.297l0.011-0.87
		l0.348-0.395l2.879-1.746l0.59-0.902l0.134-0.518l-0.46-1.572l-0.275-0.489l-0.402-0.402l-1.344-0.833l-1.224-1.724l0,0
		l3.513,0.228l0.554-0.348l0.594-1.123l0,0l0,0l0,0l0.558,1.271l0.177,1.043l0.572,0.753l0.757,0.069l1.434-0.598l2.206,0.963
		l0.366-0.315l0.203-0.525l-0.597-1.358l0.018-0.308l1.684-0.264l0.243-0.996l0.453-0.92l0.489-0.471l0.562-0.124l0.981,0.583
		l0.388,1.051l0.308,0.471l0.87,0.38l0.558,0.413l0.253,0.985l0.333,0.413l1.394,0.852l1.978-0.025l1.402,0.894l1.373,1.467
		l0.355,2.032l0,0l-1.137,2.101l0.992,1.239l0.406,0.808l0.043,0.547l-1.93,3.763v1.119l0.485,1.358l0.384,0.76l0.341,0.373
		l1.173,0.681l2.713,0.626l0.322,0.257l0.812,1.126l0.163,0.714l-0.398,1.38l0.022,3.31l1.231,1.123l0.59,0.931l0,0l-0.8,1.471
		l-2.09,1.988l-0.572,0.199l-1.836-0.055l-1.992-1.032l-0.92-0.823l-1.847-1.141l-0.967-0.88l-0.634-0.326l-4.263-4.216
		l-1.308-0.811l-1.369-0.471l-0.503-0.043l-0.489,0.062l-1.185,0.641l-0.337,0.362l-0.087,0.351l0.833,1.489l0,0l-1.192,0.695
		l-0.804,0.178l-0.597,0.304l-3.068-0.246l-1.33,0.547L144.674,143.504z"/>
	<path id="AZ-ISM" fill="#1E3250" stroke="#1E3250" stroke-width="0.5" d="M177.096,70.948l-1.358,4.245l-0.771,1.257l-0.887,0.511
		l-0.974,0.844l-2.488,1.561l-3.738,1.836l-0.254,0.315l-0.34,1.08l-0.471,0.297l-1.239,0.438l-2.221,2.137l-0.25,0.478L162,87.312
		l-0.398,0.482l-0.413,0.221L160.863,88l-0.648-0.616l0,0l-1.55,0.59l-0.648,0.424l-1.688,0.203l0,0l-0.612-0.598l-0.08-0.992
		l0.453-0.978l0.67-0.844l0.731-1.554l-0.38-0.895l-0.493-0.497l-1.028-0.572l-1.148-0.181l-2.894-1.101l-1.145-0.188l-1.677-0.674
		l-0.344-0.003l-1.271,0.608l-0.344-0.007l-2.079-1.09l-2.466-0.609l0,0l0.713-1.25l0.811-0.493l0.435-0.453l1.47-2.962l0.406-0.569
		l4.966-2.781l0.167-0.634l-0.004-2.018l0.156-0.435l1.018-0.221l0.783-0.38l0.811-0.728l0.445-0.985l-0.047-0.96l-0.503-1.369
		l-1.369-1.956l-0.05-0.558l0.438-1.405l0.503-0.536l0.366-0.043l0.525,0.529l0.402-0.257l0.652-2.434l1.199-1.576l0,0l1.108,0.344
		l2.021,0.167l1.597,1l1.833,0.688l4.306,2.354l0.558,0.051l1.021-0.319l1.028,0.355l0.957,0.145l1.963,1.086l0.431,0.525
		l0.319,0.848l0,0l0.562,1.108l0.586,0.663l3.593,2.535l0.591,0.996l-0.004,0.739L177.096,70.948z"/>
	<path id="AZ-KAL" fill="#1E3250" stroke="#1E3250" stroke-width="0.5" d="M92.704,119.514l-1.648,0.453l-1.257,0.105l-0.366,0.185
		l-0.38,0.362l-0.728,1.496l-1.883,1.094l-0.435-0.015l-0.489-0.685l-0.533-0.467l-1.467-0.507l-0.348,0.159l-0.898,1.101
		l-1.387,0.453l0,0l-1.51,0.515l-2.148,1.054l-2.361,0.098l-3.137,1.685l-1.369,0.441l-1.771,0.076l-0.836,0.305l-1.181,0.047
		l-0.659,0.264l-0.956,0.098l-2.271,0.619l-0.435-0.072l-0.398-0.312l-0.601-0.981l-0.721-0.735l-0.453-0.232l-0.344,0.007
		l-0.203,0.196l-0.616,2.662l-1.209,1.177l-1.003,0.59l-2.079,1.854l0,0l-2.749-0.949l-0.62-0.511l-0.967-4.621l-0.022-1.141
		l-0.239-0.442l-0.746-0.391l-0.797-0.181l-1.365-0.079l-1.336-1.112l-2.568-0.797l-1.445-0.123l-0.616-0.655l-0.174-0.38
		l-0.018-0.576l-1.829,0.004l0.978-1.471l1.669-1l0.927-0.08l4.412,0.46l0.713,0.322l1.365,1.275l0.938,0.431l0.485-0.098
		l1.814-1.358l0.315-0.105l0.594,0.094l0.279-0.163l0.163-0.207l0.58-2.644l-0.098-1.641l0.142-0.366l0.431-0.413l1.307-0.681
		l0.608-0.703l0.398-0.728l0.497-3.336l0.561-0.865l-0.09-0.33l-0.786-1.072l-0.5-0.435l-1.525-0.496l-0.304-0.228l-0.16-0.362
		l0.12-0.467l0.554,0.007l1.126,0.467l0.514-0.352l-1.608-1.746l-0.431-0.286l-0.735-0.036l0,0l0.409-0.515l2.557-0.496l1.105,0.062
		l0.681,0.29l2.231,0.54l1.735,0.025l1.062-0.326l2.589-0.156l0,0l0,0l0,0l1.072,0.819l0.381,0.148l3.169,0.134l0.869,0.344
		l2.264,0.515l0,0l2.166,1.184l2.397,0.05l0.996-0.409l3.039-1.695l1.775-1.438l0,0l-0.438,2.014l-0.956,0.812l-0.17,0.866
		l0.036,2.934l0.695,1.459l0.116,1.348l0.482,1.713l0.645,0.051l1.079-0.873l1.206-0.583l0.775,0.018l1.869,0.583l0.677,0.92
		l1.764,1.8l1.318,1.007l0.148,0.355l-0.217,0.956l0.855,0.797l0.981,1.3l0,0l-1.333,0.294l-1.181,0.04L92.704,119.514z"/>
	<path id="AZ-KAN" fill="#1E3250" stroke="#1E3250" stroke-width="0.5" d="M27.946,148.368l-0.956,2.528l-0.185,1.391l-1.116,0.648
		l0.188,1.391v1.949l-0.373,1.206l-1.485,2.966l-0.464,1.579l-2.039,1.76l-0.558-0.369l-0.739,0.185l-1.116,0.558l-0.742-0.742
		l-1.33,0.167l0,0l-0.058-0.12l-0.652,0.507l-0.185-0.739l-2.394-3.006l0,0l0.26-1.17l0.927-1.206l1.576-1.206l1.764-1.018
		l1.854-1.391l1.112-2.412l0.652-1.949l0.275-2.133l1.485-1.485l2.394-0.732l0,0l1.145,1.981l0.116,0.431L27.946,148.368z"/>
	<path id="AZ-KUR" fill="#1E3250" stroke="#1E3250" stroke-width="0.5" d="M147.658,114.171l0.97-0.688l1.101-0.178l0.551-0.275
		l0.699-0.699l0.369-0.663l0.942-1.072l0.047-2.137l-0.279-0.652l-0.493-2.195l0.021-3.162l0.293-1.343l0,0l1.155-1.105l1.286-2.492
		l0.094-2.959l0.257-1.485l0,0l1.08,0.12l0.536-0.098l0.46-1.104l0.051-1.576l-0.471-1.807l0,0l1.688-0.203l0.648-0.424l1.55-0.59
		l0,0l-0.641,2.256l-0.703,1.833l-0.033,1.184l0.235,0.572l1.583,0.801l1.579-0.565l0.148,0.123l0.312,1.141l0.529,0.471l0.46,0.13
		l0.547-0.206l0.836-1.112l1.116-0.909l0.771-0.083l2.959,0.152l0.525,0.623l0.489,1.126l-0.047,0.547l-0.239,0.467L170.5,96.88
		l-0.296,0.812l0.419,0.931l0.54,0.424l1.401,0.098l0.558,0.247l0.576,0.985l0.16,0.739l0.539,1.043l0.642,0.591l1.05,0.532l0,0
		l0.583,0.402l0.29,0.521l0.076,2.354l0.362,1.083l-0.025,1.304l-0.362,1.036l-0.087,2.079l0,0l-1.155,0.568l-0.83,0.239
		l-1.024,1.55l-2.463,1.489l-0.887,2.075l0.054,0.554l0.225,0.467l-0.072,0.401l-0.308,0.247l-1.673,0.616l-1.818,1.641l0,0
		l-0.355-2.032l-1.373-1.467l-1.402-0.894l-1.978,0.025l-1.394-0.852l-0.333-0.413l-0.253-0.985l-0.558-0.413l-0.87-0.38
		l-0.308-0.471l-0.388-1.051l-0.981-0.583l-0.562,0.124l-0.489,0.471l-0.453,0.92l-0.243,0.996l-1.684,0.264l-0.018,0.308
		l0.597,1.358l-0.203,0.525l-0.366,0.315l-2.206-0.963l-1.434,0.598l-0.757-0.069l-0.572-0.753l-0.177-1.043L147.658,114.171z"/>
	<path id="AZ-LA" fill="#1E3250" stroke="#1E3250" stroke-width="0.5" d="M194.658,199.613l0.199,0.891l0.989,0.594l0.84-0.199
		l0.496-0.642l-0.199-0.938l-0.594-0.594l-0.938,0.098L194.658,199.613z"/>
	<path id="AZ-LAC" fill="#1E3250" stroke="#1E3250" stroke-width="0.5" d="M80.886,123.247l-0.786,2.314l0.054,0.739l0.268,0.297
		l1.025,0.601l1.391,1.398l1.604,3.206l0.402,1.195l0.322,2.698l0,0l0.178,0.967l0.351,0.87l0.076,1.561l0.203,0.612l-0.315,0.746
		l-0.67,0.836l-0.449,0.96l-0.04,1.771l0.16,0.667l0.532,0.355l0.746-0.17l0.648,0.123l0.529,0.453l0.59,0.841l1.046,0.5l0.518-0.37
		l0.409-0.746l0.163-0.728l0.38-0.797l0.475-0.648l1.3-0.489l1.406,0.011l0.445,0.163l0.312,0.442l0.351,2.532l0,0l-0.858,0.344
		l-1.669,0.08l-0.554,0.279l-0.33,0.358l-0.112,0.453l0.094,0.297l0.844,0.572l0.217,0.373l0.029,1.938l-0.221,0.398l-1.985,1.42
		l0,0l-0.63,0.177l-2.34,2.181l-0.685,0.395l-2.195-0.069l-2.039-1.441l0,0l0.442-0.79l0.648-0.467l0.435,0.181l0.304,0.489
		l0.862,0.214l0.384,0.228l0.438-0.058l-0.34-0.615l-1.532-1.482l-0.228-0.651l0.123-0.503l1.257-0.692l0.503-0.742l0.471-0.189
		l0.771,0.091l0.134-0.094l-0.5-1.34l-0.663-0.38l-0.543-0.673l-0.695-0.192l-2.133,0.312l-0.565,0.478l-0.695-0.235l-0.235,0.297
		l-0.38,0.055l-0.464-0.366l-0.192-0.721l0.16-1.854l-0.225-0.17l-0.467,0.018l-0.402,0.594l-0.355,0.167l-0.424-0.568l-0.423-0.167
		l-0.355-0.844l-0.268-0.163l-0.873,0.102l-1.097,0.329l-3.158,1.725l-0.648,0.072l-1.358-0.329l-0.572,0.138l-0.326,0.21
		l-0.514,1.169l-0.265,0.076l-0.391-0.358l0.156-0.79l-0.312-0.601l0.138-0.862l-0.366-0.938l-1.75-1.239l-1.22-1.177l-0.207-0.098
		l-1.014,0.13l-0.572-0.441l-0.196-0.355l0.547-0.481l-0.142-0.387l-1.546-0.938l-0.366-0.967l-1.145-1.068l-0.283-0.536l-0.141-0.8
		l-0.192-0.246l-2.597-0.935l-1.891-0.873l0,0l2.079-1.854l1.003-0.59l1.209-1.177l0.616-2.662l0.203-0.196l0.344-0.007l0.453,0.232
		l0.721,0.735l0.601,0.981l0.398,0.312l0.435,0.072l2.271-0.619l0.956-0.098l0.659-0.264l1.181-0.047l0.836-0.305l1.771-0.076
		l1.369-0.441l3.137-1.685l2.361-0.098l2.148-1.054L80.886,123.247z"/>
	<path id="AZ-LAN" fill="#1E3250" stroke="#1E3250" stroke-width="0.5" d="M196.737,195.76l-1.485-2.521l-0.246-1.188l0.163-2.839
		l0.148-0.514l-0.808-0.021l0,0l-0.75,0.239l-1.029,1.518l-1.297,0.304l-1.292,0.764l-1.029,0.815l-2.079,0.753l-0.981-0.482
		l-2.625-2.021l0,0l-1.572,2.959v0.717l0.804,1.583l0.409,0.479l3.709,2.213l0.731,1.688l0.659,0.855l0.069,0.742l-0.326,0.815
		l0.004,0.511l0.261,0.286l1.021,0.605l0.913,1.326l-1.673,2.673l0,0l1.192,0.395l2.028,0.047l2.267-1.01l2.608-0.775l0,0
		l1.633-0.373l0,0l0.297,0.297l0,0l0.051-0.938l-0.395-1.485l-0.497-3.462l-0.097-1.63L196.737,195.76z M196.687,200.899
		l-0.84,0.199l-0.989-0.594l-0.199-0.891l0.79-0.79l0.938-0.098l0.594,0.594l0.199,0.938L196.687,200.899z M195.919,174.344
		l1.115-1.901l5.741-5.461l0.692-0.949l0.362-0.185l0.377,0.003l0.395,0.181l0.489,0.493l1.46,2.974l0.413,0.55l0.478,0.148
		l1.604,0.08l0.395,0.185l0.851,0.743l1.018,0.568l1.796,0.098l0.8,0.38l0.138,0.395l-0.247,1.34l-0.257,0.681l-0.427,0.485
		l-0.246,0.906l0.112,1.097l-0.098,0.562l0,0l-0.348,1.423l-0.344-0.21l0.065-0.659l-1.094-1.409l0.148-0.822l-0.902,0.96
		l-0.786,0.213l-0.927,0.5l-1-0.286l-0.152-1.108l-0.116-0.123l0.37-1.108l-0.471-0.253l0.337-0.489l-0.142-0.441l-0.315-0.163
		l-0.597,0.188l-0.326-0.047l-0.283-0.482l0.178-0.637l0.366-0.011l-0.058-0.55l-1.688,0.525l-0.981,0.536l-0.446,0.891h-1.159
		l-1.872,1.873l-0.761,0.428l0.279,0.583l-0.188,0.26l-0.236,1.315l-0.46,0.507l0.659,0.384l0.265,0.344l0.438,1.713l-0.08,1.297
		l0.13,0.895l-0.583,1.308l0.895,1.216l-0.09,1.337l-0.355,1.427l-0.982,0.623l0.091,1.25l-0.445,1.246l-0.713,0.8l-0.981,0.09
		l-0.982-0.178l0.268-1.249l0.714-0.446l0.177-0.713v-1.25l1.427-1.959l0.131-0.645l-0.276-2.068l0,0l-0.565-0.728l0,0l-0.546-1.119
		l0,0l0.014-1.148l0.282-0.626l-0.083-0.493l0,0l-1.086-1.097l-0.735-0.445l0,0l0,0l0,0l-0.341-0.399l0,0l0,0l0,0l-0.094-1.688
		L195.919,174.344z M212.344,180.606l0.601-0.431l0,0l-0.25,2.358l-1.84,1.926l-0.145,0.848l0.496,0.38l0.366,1.55l0,0l-4.393,0.642
		l-0.79-0.232l-0.496-0.905l0.145-0.438l0.76-0.583h0.963l0.612-0.525l1.956-1.985l1.518-1.811L212.344,180.606z"/>
	<path id="AZ-LER" fill="#1E3250" stroke="#1E3250" stroke-width="0.5" d="M188.439,208.009l-1.883,1.032l-0.953-0.271l-0.561,0.025
		l-2.3,1.289l-0.485,0.551l-0.155,1.499l-0.532,0.876l-0.362,0.312l0,0l-0.569-0.783l-0.898-0.713l-0.612-1.746l-1.384-0.297
		l-0.278-0.278l-0.362-0.852l-0.015-1.746l-0.554-0.503l-0.808-0.214l-1.369,0.623l-1.003,0.076l-1.126,0.402l-0.619-0.04
		l-1.475-0.446l-0.594-0.92l-0.124-0.833l-0.311-0.641l-1.481-0.782l-0.388-0.485l-0.177-1.586l0.337-0.883l-0.471-1.246l0,0
		l0.489-1.224l0.713-0.478l0.239-0.312l0.173-1.84l0.898-1.007l0.88-1.282l1.691-0.909l1.521-1.568l6.628-3.665l1.076-1.032l0,0
		l1.615,1.825l0.489,0.942l0.087,1.684l0,0l-1.572,2.959v0.713l0.804,1.583l0.413,0.478l3.709,2.213l0.732,1.688l0.659,0.855
		l0.069,0.743l-0.33,0.811l0.007,0.511l0.261,0.29l1.017,0.604l0.913,1.326L188.439,208.009z"/>
	<path id="AZ-MAS" fill="#1E3250" stroke="#1E3250" stroke-width="0.5" d="M198.765,185.307l-1.992,0.16l-0.713,0.713l-0.087,0.891
		l-0.536,0.891l-0.072,0.735l-0.855-0.021l0,0l-0.75,0.239l-1.029,1.518l-1.3,0.301l-1.289,0.764l-1.033,0.818l-2.075,0.75
		l-0.981-0.482l-2.625-2.021l0,0l-0.087-1.684l-0.489-0.942l-1.615-1.825l0,0l-1.025-0.674l-1.065,0.54l-0.565,0.011l-0.261-0.127
		l-0.54-1.286l0.112-1.275l0,0l2.879-0.587l0.873-0.829l0.235-0.852l0.489-0.934l0.978-0.956l3.455-1.779l0.087-0.268l-0.304-0.652
		l-0.731-1.046v-0.565l0.21-0.37l0.79-0.376l0.572,0.068l0.659,0.294l0.323-0.033l0.12-0.253l-0.225-0.841l0.112-0.253l0.257-0.123
		l0.815,0.047l0.981,0.392l0,0l0.667,0.796l0,0l0.562,0.352l1,0.043l1.04-0.326l0.605-0.029l0,0l1.579,0.123l-0.395,2.448
		l0.098,1.688l0,0l0,0l0,0l0.34,0.398l0,0l0,0l0,0l0.735,0.449l1.086,1.097l0,0l0.083,0.489l-0.282,0.626l-0.015,1.148l0,0
		l0.543,1.119l0,0l0.565,0.728l0,0L198.765,185.307z"/>
	<path id="AZ-MI" fill="#1E3250" stroke="#1E3250" stroke-width="0.5" d="M106.395,72.444l0.348,0.007l0,0l1.159-0.565l0.42-0.011
		l0.413,0.438l0.253,0.065v0.605l0.344,0.319l0.163,0.391l0,0l-0.536,1.021l0,0l-1.007,0.58l-1.221,0.373l-0.558,0.036l-1.873-0.981
		l-1.09-1.496l-0.003-0.344l0,0l0.76-1.38l0,0l0.438-0.072l0,0L106.395,72.444z"/>
	<path id="AZ-NA" fill="#1E3250" stroke="#1E3250" stroke-width="0.5" d="M95.04,92.523l0.043,0.887l0.623,0.667l1.286,0.178
		l0.667-0.489l0.225-0.71L97.659,91.9l-1.155-0.442l-1.108,0.355L95.04,92.523z"/>
	<path id="AZ-NEF" fill="#1E3250" stroke="#1E3250" stroke-width="0.5" d="M211.587,187.234l-0.015,0.003l0,0l-0.366-1.55
		l-0.496-0.38l0.145-0.848l1.84-1.926l0.25-2.358l0,0l0.565,0.344l0.145,3.3l-0.351,1.079l-0.232,1.546l-0.438,0.525
		L211.587,187.234z M203.292,152.374l0.489-0.475l0.221-0.438l0.022-1.366l-1.583-1.361l-0.467-0.931l-0.116-1.978l2.445,0.348
		l0.866,2.517l0.123-0.025l0,0l0.409,0.218l1.38,1.948l0,0l0.312,0.602l0.735,0.637l0,0l1.583,0.822l1.148,0.196l0,0l0.453,0.225
		l0.369-0.13l0,0l0.638-0.713l1.021-0.529l0,0l1.398-0.405l0,0l0.967-0.091l0.554-0.265l-0.04,1.42l0.264,0.782l0.866,1.543
		l3.596,3.589l0.377,0.3l0.384,0.102l0.362-0.123l0.145,0.109l-0.13,0.177l0.073,0.13l0.402-0.065l-0.011,0.623l-0.583,1.188
		l-0.043,0.348l0.319,0.511l0.427,1.213l0.641,0.572l0.354,1l1,1.141v1.213l-0.927,0.214l-2.209-0.286l-0.427-0.355l-1.496-2.068
		l-0.786-0.359l-0.927-0.854l-0.822,0.207l-1.028,0.862l-0.427,1.282l0.213,1.641l-0.478,0.876l-0.163,2.26l0.072,1.996
		l-0.641,3.563l-0.572,1.709l-0.142,1.713l-1.336-0.341l0.319-1.3l0,0l0.098-0.562l0,0l0,0l0,0l-0.112-1.098l0.247-0.905
		l0.427-0.485l0.257-0.681l0.246-1.34l-0.138-0.395l-0.8-0.38l-1.796-0.098l-1.018-0.568l-0.851-0.742l-0.395-0.185l-1.604-0.08
		l-0.478-0.148l-0.413-0.55l-1.459-2.974l-0.489-0.493l-0.395-0.181l-0.376-0.003l-0.362,0.185l-0.692,0.949l-5.74,5.461
		l-1.116,1.901l0,0l-1.579-0.123l0,0l-0.605,0.029l-1.04,0.326l-1-0.047l-0.561-0.348l0,0l-0.667-0.797l0.601-1.379l0,0l-0.051-3.3
		l-1.861-3.629l0.003-4.256l0,0l0.891-1.706l1.532-1.836l1.564,1.163l0,0l0.981,0.685l0,0l1.304,1.257l0.478,0.243l0,0l0.529,0.402
		l0,0l0.391,0.235l0.514,0.055l0,0l0.138-0.037l0,0l1.492-1.264l0,0l0.692-0.471l0.713-0.116l0,0l0.333-0.21l0.055-1.108l0,0
		l-0.369-1.014l0.018-1.753l0.869-1.688l0.276-0.3l0,0L203.292,152.374z"/>
	<path id="AZ-NV" fill="#1E3250" stroke="#1E3250" stroke-width="0.5" d="M31.535,167.499l1.206,0.464l0.464,0.927v1.018
		l-0.743,0.742l-1.021,0.374l-1.391-0.743l-0.648-1.021l0.37-0.742l0.648-0.648L31.535,167.499z"/>
	<path id="AZ-OGU" fill="#1E3250" stroke="#1E3250" stroke-width="0.5" d="M124.902,40.391l1.641,0.695l0.405,0.036l1.373-0.344
		l0.79,0.42l0.942-0.225l0.301,0.105l0.601,0.645l-0.08,1.199l0.239,0.362l1.699,1.55l0.29,0.058l2.024-0.626l0.63-0.384
		l0.778-0.902l0.515-0.101l0.315,0.09l0.63,0.659l0.312,0.148l0.546,0.076l1.025-0.159l0.634,0.271l0,0l-0.214,3.274l0.377,1.684
		l-0.75,1.623l-0.062,1.992l-0.949,1.923l-0.812,1.188l-0.967,1.102l-0.073,1.166l0.373,1.036l0.004,0.775l-0.858,1.774
		l-0.667,0.851l-0.395,0.797L135,65.704l-0.739,2.423l-0.025,1.199l0.203,1.51l0,0l-1.768-1.199l-4.469-2.325l-1.308-0.833
		l-2.286-2.419l-0.796-1.63l-0.16-1.742l-0.507-0.213l-0.844,0.312l-0.435-0.124l-0.145-0.641l0.304-0.844l-0.076-0.417
		l-1.492-0.956l-0.312-0.46l-0.043-0.989l0.366-1.021l0.116-1.358l2.673-5.248l0.167-0.735l0.648-1.26l0.141-4.502L124.902,40.391z"
		/>
	<path id="AZ-ORD" fill="#1E3250" stroke="#1E3250" stroke-width="0.5" d="M48.493,187.361l0.572-0.572l0.185-0.833l0.742-0.743
		l-0.185-1.115l-0.931-1.206l-0.739-0.091l-1.021-0.742l0.37-0.648l0.373-1.391l0.09-1.206l0.652-1.391l1.67-2.133l0.554-2.134
		l1.579-2.042l0.09-3.061l0.836-1.206l1.112-0.464l2.456-3.683l0,0l2.405,1.474v2.434l-0.21,0.537l0.05,2.089l0.16,0.688v1.079
		l0.663,0.677l-0.224,1.369l0.923,1.242l-0.13,1.532l0.442,1.209l1.764,1.195l0.601,1.916l0.797,0.887l0.051,1.67l0.572,2.137
		l1.764,4.6l-0.673,3.107l-0.641-0.344l-0.924-1.021l-0.902-0.322l-0.471-0.319l-0.601-0.833l-0.293,0.033l-0.102,0.598
		l-0.235,0.279l-0.637,0.083l-1.742-0.243l-2.571-1.072l-0.305,0.119l-0.905,0.906l-0.275,0.105l-2.278-0.923l-0.279-0.257
		l-0.25-0.623l-0.268-0.188l-0.471-0.062l-0.949,0.312l-1.402-1.072L48.493,187.361z"/>
	<path id="AZ-QAB" fill="#1E3250" stroke="#1E3250" stroke-width="0.5" d="M142.222,78.427l-1.348,0.815l-2.988,0.047l-2.55,1.369
		l0,0l-0.529-0.493l-1.619-0.836l-0.5-0.463l-0.087-4.14l-0.283-1.739l0,0l0.286-0.475l0.275-0.167l0.5,0.04l0.663,0.315
		l0.449-0.105l0.141-0.565l-0.195-1.195l0,0l-0.203-1.51l0.025-1.199L135,65.704l0.521-2.554l0.395-0.797l0.667-0.851l0.858-1.774
		l-0.004-0.775l-0.373-1.036l0.073-1.166l0.967-1.102l0.812-1.188l0.949-1.923l0.062-1.992l0.75-1.623l-0.377-1.684l0.214-3.274l0,0
		l1.108,1.485l0.528,0.38l1.065,0.163l0.67-0.062l0.319-0.185l0.779-1.13l0.569-0.391l0,0l0.88,2.13l0.398,0.413l0.768,0.431
		l1.167,0.188l0.721,0.304l2.024,0.275l0,0l-0.572,1.311l0.525,1.152l1.974,1.988l0.398,0.188l1.467,0.232l1.213,1.115l0,0
		l-1.199,1.576l-0.652,2.434l-0.402,0.257l-0.525-0.529l-0.366,0.043l-0.503,0.536l-0.438,1.405l0.05,0.558l1.369,1.956l0.503,1.369
		l0.047,0.96l-0.445,0.985l-0.811,0.728l-0.783,0.38l-1.018,0.221l-0.156,0.435l0.004,2.018l-0.167,0.634l-4.966,2.781l-0.406,0.569
		l-1.47,2.962l-0.435,0.453l-0.811,0.493L142.222,78.427z"/>
	<path id="AZ-QAX" fill="#1E3250" stroke="#1E3250" stroke-width="0.5" d="M90.165,52.144l0.058-0.174l0,0l-0.373-0.826l0,0
		l0.594-1.278l-0.094-1.898l0.156-0.496l0.311-0.163v-0.746l0.178-0.159l-0.413-0.79l-0.102-0.626l0.837-1.141l0.181-0.471
		l0.836-0.848l0.047-1.289l0.753-0.967l0.691-0.493l-0.014-0.275l-0.261-0.348l-1.253-0.145l0.043-0.46l-0.507-0.634l0.108-0.391
		l-0.185-0.5l0.167-0.159L91.867,36.7l-1.054,0.007l0.018-0.721l-0.521-0.112l0.17-0.261l-0.105-0.953l-0.228-0.072L90.06,35.31
		l-0.239,0.355l-0.254-0.268l-0.59-0.083l0.174-0.355l0.464-0.119l0.199-0.605l0,0l0.688-0.641l0.876-1.314l2.742-5.462l0.243-0.902
		l0.54-0.594l2.018-0.558l2.607,0.033l1.032,0.376l0.957,0.152l0.655,0.293l1.181,0.105l0.84,0.355h0.775l1.38-0.978l1.173-0.268
		l0.59-0.953l0.471-1.369l0,0l1.086,0.258l0.312-0.102l0.217-0.25l0.124-0.667l0.232-0.264l1.441-0.804l0.423,0.021l0.515,0.536
		l0.065,1.26l0.344,0.688l1.728,1.564l-0.091,1.746l0.638,0.554l0,0l-0.728,3.517l-0.891,1.069l-1.876,1.072l-0.706,1.043
		l-0.402,0.37l-1.358,0.29l-3.705,1.771l-0.739,0.152l-0.815,0.37l-2.593,1.677l-0.985,1.043l-0.138,1.366l-0.188,0.369
		l-1.854,1.163l-0.279,0.46l-0.087,3.597l-0.33,0.84l-0.087,1.181l-0.319,1.003l0.203,0.33l1.54,0.605l1.919,1.239l0.562,0.608
		l1.307,2.217l0.167,0.742l0.641,1.29l0.073,0.402v5.19l-0.134,1.543l0,0l0,0l0,0l-2.662-1.26l-3.698-2.343l-1.789,0.13l0,0
		l-0.09-1.641l-0.826-1.481l-0.453-1.398l-0.04-2.206l-0.152-0.449l-1.26-0.768l-1.188-0.011l-0.822,0.286l-0.634-0.271l0,0
		L90.165,52.144z"/>
	<path id="AZ-QAZ" fill="#1E3250" stroke="#1E3250" stroke-width="0.5" d="M29.623,56.718l-1.793,1.018l-1.155,0.011l-1.036-2.115
		l-0.5-0.261l-0.898,0.54l-0.094,0.808l-0.12,0.126l-0.235,0.08l-0.786-0.21l-0.761,0.225l-0.471-0.159l-0.619-1.203l-0.572-0.681
		l-0.384-0.185l-0.67,0.155l-0.213-0.177l-0.337-0.895l-0.138-1.796l-0.315-0.17l-1.289,0.127l-0.207,0.138l-0.058,0.42l0.688,0.351
		l0.051,0.188l-0.434,1.062l-0.41,0.261l-1.097-0.116l-0.913,0.659l-0.609,0.04l-0.427-0.315l-0.21-0.743l1.083-1.623l-0.011-0.768
		l0.558-0.724l2.615-0.38l1.489-0.463l0.634-0.319l0.586-0.836l0.656-0.156l0.123-0.214l-0.667-0.568L19.478,47.7l-1.786-2.98
		l-0.449-0.142l-0.493,0.102l-0.949,0.775l-0.485,0.29L14.98,45.78l-1.601-0.246l-1.104,0.134l-0.312-0.373l0.014-0.565l1.257-0.938
		l0.456-0.844l-0.011-0.598l-0.094-0.322l-1.123-1.493l-0.384-1.376l-0.442-0.301l2.032-0.851l1.083-0.8l1.054-0.337l0.576-0.348
		l0.855-1.108l0,0l3.607,1.985l1.098,0.923l2.514,1.344l1.395,0.478l0.956,0.145l0.655,0.293l2,0.126l0.543,0.305l0.413,0.496
		l0.442,1.014l-0.007,0.778l-0.286,0.652l-0.177,1.137l-0.641,1.669l-0.127,0.956l-0.322,0.83l0.268,1.369l-0.626,0.862l-0.083,0.37
		l0.025,0.583l0.337,0.844l0.072,1.59l0.337,0.877L29.623,56.718z"/>
	<path id="AZ-QBA" fill="#1E3250" stroke="#1E3250" stroke-width="0.5" d="M173.655,61.198l-0.319-0.848l-0.431-0.525l-1.963-1.086
		l-0.957-0.145l-1.028-0.355l-1.021,0.319l-0.558-0.051l-4.306-2.354l-1.833-0.688l-1.597-1l-2.021-0.167l-1.108-0.344l0,0
		l-1.213-1.115l-1.467-0.232l-0.398-0.188l-1.974-1.988l-0.525-1.152l0.572-1.311l0,0l2.785-2.427l11.289-7.809l6.828-5.07
		l1.633-1.554l2.64-1.308l0.743-0.148l2.086-1.007l0.739-0.148l1.637-0.75l0.681-0.46l0,0l0.173,0.605l0.852,0.826l0.326,0.551
		l3.252,6.512l0.435,0.094l2.097-0.953l0.192,0.055l0.746,0.891l0,0l-0.308,2.47L190,39.109l-0.043,1.275l0.083,0.518l0.858,0.992
		l0.108,0.413l-0.388,0.778l-0.891,0.953l-0.424,0.663l-1.507,0.88l-0.424,0.659l-0.883,0.953l-0.923,1.861l0.224,0.536l3.357,3.412
		l0.384,0.602l-0.003,0.453l-0.514,1.463l-0.562,0.55l-1.01,0.608l-0.699,0.902l0.047,0.989l1.086,1.402l-0.333,1.036l0.029,3.56
		l0,0l-4.118-1.528l-1.141-0.195l-3.488-1.568L173.655,61.198z"/>
	<path id="AZ-QBI" fill="#1E3250" stroke="#1E3250" stroke-width="0.5" d="M82.078,153.91l2.039,1.441l2.195,0.069l0.685-0.395
		l2.34-2.181l0.63-0.177l0,0l1.047,0.159l0.96,0.315l2.26-0.572l0.521,0.167l1.007,1.546l-0.485,1.217l-0.865,1.315l0,0
		l-0.543,0.188l-0.808,1.383l-0.087,1.735l0.119,0.485l0.877,0.721l0.55,1.018l0.148,2.691l0.391,0.797l0.413,0.482l2.343,1.268
		l0.876,0.836l0,0L96.5,169.56l-0.996,0.862l-1.018,0.612l-1.362,1.333l-1.217,2.162l-0.55,0.652l-0.442,0.174h-0.569l-0.568-1.185
		l-0.025-1.724l0.362-1.05l0.047-1.076l-0.13-0.757l-0.594-0.655l0,0l-0.094-0.261l-0.217-0.058l-1.475-0.127l-0.369-0.427
		l-0.297-0.869l-1.329-0.46l-0.551-0.797l-0.373-1.387l-0.029-0.181l0.322-0.503l-0.091-0.685l-1.427-1.883l-0.319,0.08
		l-0.771,0.757l-0.492-0.007l-2.025-1.488l-1.046-1.457l-1.051-2.883l0.554-0.619l0.323-1.083l0.594-0.21l2.097,0.438l0.286-0.174
		L82.078,153.91z"/>
	<path id="AZ-QOB" fill="#1E3250" stroke="#1E3250" stroke-width="0.5" d="M190.776,99.137l-2.05-0.047l-1.438,0.362l-0.648-0.181
		l-0.283-0.442l0.109-0.409l0.348-0.424l1.065-0.21l1.079-0.652l0.247-1.597l1.481-2.996l-0.108-0.322l-0.884-1.094l0.203-0.608
		l0.007-0.768l-0.333-0.836l-0.076-1.576l-0.337-1.021l0.29-1.163l-0.511-0.641l-0.917-0.724l-0.08-0.478l1.572-2.394l0.021-1.384
		l-0.366-1.028l-0.04-1.188l0.08-0.565l0.398-0.797l1.108-1.438l1.307-0.304l1.677-1.242l0,0l1.029-0.065l3.013,1.76l0.967,0.891
		l0.887,0.547l0.855,1.268l3.698,3.734l1.166,0.695l1.554,0.177l1.833,0.993l0.489,0.492l1.003,2.09l0.5,0.583l0.757,0.427
		l1.043,0.909l2.988,1.59l0,0l-1.481,2.629l0,0l-0.315,0.265l0,0l-0.764,0.409l0,0l-0.703,0.391l-0.967,1.13l-1.499,0.145
		l-1.217,0.366l-0.88,0.463l-1.528,2.438l0,0l-0.123,0.062l0,0l-1.322,0.12l-0.688,0.395l0,0l-0.713,0.688l0,0l0,0l0,0l-0.359,0.453
		l0,0l0,0l0,0l-0.141,0.341l0,0l-0.576,0.97l-0.927,0.583l0,0l-0.696,0.714l-0.38,0.703l0,0l-0.576,0.427l0,0l-0.126-0.043l0,0l0,0
		l0,0l-0.207-0.235l0,0l-0.369-0.605l0,0l-0.142-0.105l0,0l-2.057-1.286l-0.989-0.326l0,0l-1.546,0.232l-2.036-0.065l-0.503-0.268
		L190.776,99.137z"/>
	<path id="AZ-QUS" fill="#1E3250" stroke="#1E3250" stroke-width="0.5" d="M182.569,27.287l-0.681,0.46l-1.637,0.75l-0.739,0.148
		l-2.086,1.007l-0.743,0.148l-2.64,1.308l-1.633,1.554l-6.828,5.07l-11.289,7.809l-2.785,2.427l0,0l-2.024-0.275l-0.721-0.304
		l-1.167-0.188l-0.768-0.431l-0.398-0.413l-0.88-2.13l0,0l0.916-0.145l2.112,0.112l0.648-0.123l0.591-0.384l0.383-0.808l-0.17-1.782
		l0.098-0.402l0.261-0.478l1.286-1.29l0.34-0.764l0.185-3.017l0.427-0.789l0.384-0.326l1.348-0.576l1.246-1.771l0.623-1.145
		l0.634-1.709l0.058-1.427l0.261-0.435l0.29-0.174l1.981-0.431l0.909-0.029l1.221-0.406l0.993,0.019l0.891,0.188l0.826-0.105
		l0.931-0.612l1.05-0.225l0.812-0.344l0.768-1.717l0.641-0.63l0.876-0.413l1.04-0.268l1.655-0.941l2.18-1.786l0.616-0.924
		l0.243-0.76l0.445-2.897l0.503-2.271l0,0l1.221-0.352l1.416,0.011l0.558,0.257l0.471,0.833v0.282l-1.007,2.09l-0.011,3.644
		l0.188,0.417l0.532,0.467l0.467,0.148l1.619,0.076l0.384,0.213l0.225,0.348l0.029,0.366l-0.297,0.645l-0.688,0.862l-0.315,0.768
		l0.145,0.243l0.873,0.554l0.369,0.481l0.124,0.971l0.337,0.858L182.569,27.287z"/>
	<path id="AZ-SA" fill="#1E3250" stroke="#1E3250" stroke-width="0.5" d="M113.819,44.281l-0.743,0.938v0.891l0.398,0.891
		l1.728,0.297l0.844-0.348l0.395-1.04l-0.348-1.286l-0.543-0.493l-0.891-0.395L113.819,44.281z"/>
	<path id="AZ-SAB" fill="#1E3250" stroke="#1E3250" stroke-width="0.5" d="M182.884,142.262l-0.873,0.029l-0.467-0.214l-0.072-0.71
		l0.373-0.576l1.811-0.554l1.369-0.08l2.499-1.217l0.616-0.884l0.891-1.72v-0.724l-1.068-2.061l-0.072-0.37l0.007-1.177l0.369-1
		l0.007-1.163l-1.445-2.057l-0.898-0.818l-1.459-0.236l-0.395-0.181l-1.325-1.235l-1.532-0.931l-2.198-0.065l-0.38,0.203
		l-0.547,0.84l-0.489,0.076l-0.423-0.167l-0.739-0.695l-0.507-1.141l0.866-1.047l-0.037-0.336l-0.42-0.399l-1.728-1.003
		l-0.449-0.029l-1.25,0.38l-1.956,0.804l-2.854,1.713l-0.377-0.337l-0.757-1.275l0,0l0,0l0,0l1.818-1.641l1.673-0.616l0.308-0.247
		l0.072-0.401l-0.225-0.467l-0.054-0.554l0.887-2.075l2.463-1.489l1.024-1.55l0.83-0.239l1.155-0.568l0,0l6.313,0.058l2.282,1.123
		l1.115,0.369l0.283,0.261l0.043,0.217l-0.355,1.213l-0.667,1.413l0.398,0.975l0.602,0.974l1.391,0.598l4.379,1.043l0.76,0.42
		l0.993,1.213l0.847,0.504l0.442,0.434l0.185,0.406l0.191,1.235l1.753,1.021l0,0l-0.221,0.507l0.239,0.207l0,0l-0.236,0.355
		l-0.51,0.362l-0.29,0.557l0.033,0.75l0.279,0.562l1.145,0.938l0.703,0.779l-0.003,0.239l-0.888,1.822l0.265,0.428l1.724,1.709
		l0.268,0.493l-0.055,0.938l-0.663,1.235l-0.073,0.366l0.029,1.76l0.362,1.014l-0.04,1.365l-0.308,0.438l-2.006,0.985l-0.304,0.261
		l-0.076,0.402l0.562,1.633l-0.311,0.286l-0.54-0.098l-0.97-0.858l-0.446-0.163l-2.021-0.051l-1.032,0.326l-0.761,0.029l0,0
		l-6.649-2.199l-1.333-0.659L182.884,142.262z"/>
	<path id="AZ-SAD" fill="#1E3250" stroke="#1E3250" stroke-width="0.5" d="M6.584,136.706l1.978,0.721l1.369-0.185l1.126-0.46l0,0
		l0.167,1.872l-0.648,0.833l-1.021,0.37l-1.112,1.021v1.112l0.648,0.927v0.648l-0.37,1.297l-1.854,0.833l-1.207,0.37l-0.67-0.043
		l0,0l0.124-1.018l-0.58,0.25l-0.895-0.717l-1.688,0.322l-0.743-1.021l1.206-1.949l-0.463-1.021l-1.021-0.743L0,139.209l0.37-1.021
		l1.206-0.558l1.021-0.927l2.039-0.464L6.584,136.706z M9.46,134.942H8.902l-0.648-0.558l-0.369-0.742v-0.743l1.296-0.463h0.833
		l0.185,0.927l-0.37,0.279l-0.094,0.742L9.46,134.942z"/>
	<path id="AZ-SAH" fill="#1E3250" stroke="#1E3250" stroke-width="0.5" d="M50.188,159.763l-1.123,0.594l-0.188,0.927l-0.648,0.927
		l-1.296,1.297l-0.837-0.555l-0.185-0.836l-0.463-0.37H44.52l-0.648,1.021l-0.837,0.554h-1.296l-2.235,1.669l0,0h-0.826l0,0
		l-0.373-0.558l0.464-1.297l-1.391-1.021l-1.391-1.576l-2.875-0.185l-0.743-1.206l-0.185-1.391l-0.558-0.743h-0.648l-1.021-0.279
		l-0.275-1.112l2.503-1.764l1.021-1.297l0.648-0.279l0.116-0.826l0,0l0.731,0.047l0.677-0.225l0.445-0.3l1.768-1.895l1.586-0.608
		l1.47-0.851l1.261-0.145l0.782-0.304l0.804-0.554l0.812-1.083l0.645-0.521l0.42,0.04l1.724,0.927l1.409,0.188l0.815,0.75
		l0.373,0.764l1.152,1.594l0.13,0.601l-0.148,1.988l0.152,0.464l0.5,0.529l0.188,0.565l-0.775,2.028l-1.362,2.343l-0.062,0.898
		l0.181,0.478L50.188,159.763z"/>
	<path id="AZ-SAK" fill="#1E3250" stroke="#1E3250" stroke-width="0.5" d="M122.722,39.485l-2.64-1.709l-0.359-0.398l-0.257-2.072
		l-0.188-0.42l-0.08-1.905l-0.174-0.287l-0.301-0.086l-0.851,0.101l-0.388-0.369l0.019-1.152l0.561-0.949l-0.011-0.337l-1.322-0.608
		l-0.213-0.348l-0.247-1.166l-0.652-0.735l0,0l-0.728,3.517L114,31.63l-1.876,1.072l-0.707,1.047l-0.402,0.37l-1.358,0.29
		l-3.705,1.771l-0.739,0.152l-0.815,0.369l-2.597,1.677l-0.985,1.043l-0.138,1.365l-0.188,0.37l-1.854,1.163l-0.283,0.457
		l-0.083,3.596l-0.33,0.844l-0.091,1.181l-0.318,1.003l0.206,0.33l1.54,0.605l1.919,1.239l0.558,0.608l1.308,2.22l0.167,0.739
		l0.641,1.289l0.072,0.402v5.19l-0.134,1.543l0,0l1.239,0.507l3.307,1.739l2.477,1.525l2.427,1.242l0.953,0.17l2.68,1.518
		l2.847,0.996l0,0l1.123,0.33l2.021,0.163l2.271,1.155l0.728-0.054l0.427-0.54l0.431-0.112l2.553,0.928l0.891,0.456l2.126-0.598l0,0
		l0.286-0.475l0.275-0.167l0.503,0.04l0.663,0.315l0.449-0.105l0.145-0.565l-0.199-1.192l0,0l-1.764-1.199l-4.473-2.325
		l-1.304-0.833l-2.289-2.419l-0.797-1.629l-0.159-1.739l-0.504-0.213l-0.844,0.308l-0.435-0.123l-0.145-0.641l0.301-0.844
		l-0.072-0.413l-1.496-0.956l-0.312-0.46l-0.043-0.989l0.366-1.021l0.116-1.358l2.673-5.248L123.414,48l0.648-1.261l0.141-4.501
		l0.688-1.84L122.722,39.485z M116.047,46.95l-0.84,0.348l-1.731-0.297l-0.395-0.891v-0.891l0.742-0.938l0.84-0.543l0.891,0.395
		l0.543,0.496l0.348,1.286L116.047,46.95z"/>
	<path id="AZ-SAL" fill="#1E3250" stroke="#1E3250" stroke-width="0.5" d="M205.295,148.665l-0.126,0.025l-0.866-2.517l0,0l0,0l0,0
		l-2.441-0.348l0.116,1.978l0.463,0.931l1.583,1.361l-0.022,1.366l-0.221,0.438l-0.489,0.475l0,0l-1.735,0.975l0,0l-0.275,0.3
		l-0.866,1.691l-0.018,1.753l0.37,1.014l0,0l-0.055,1.108l-0.333,0.207l0,0l-0.713,0.116l-0.696,0.471l0,0l-1.492,1.264l0,0
		l-0.134,0.036l0,0l-0.377-0.007l-0.532-0.282l0,0l-0.525-0.402l0,0l-0.479-0.239l-1.304-1.257l0,0l-0.981-0.685l0,0l-1.568-1.163
		l0,0l0,0l0,0l0.71-3.289l-0.953-1.525l-0.88-0.963l-0.167-0.71l0.083-0.554l0.29-0.634l0.076-1.151l0.283-0.634l0.167-0.963
		l0.547-1.738l0,0l0.761-0.029l1.032-0.326l2.021,0.051l0.446,0.163l0.97,0.858l0.54,0.098l0.311-0.286l-0.562-1.633l0.076-0.402
		l0.304-0.261l2.006-0.985l0.308-0.438l0.04-1.365l-0.362-1.014l-0.029-1.76l0.073-0.366l0.663-1.235l0.055-0.938l-0.268-0.493
		l-1.724-1.709l-0.265-0.428l0.888-1.822l0.003-0.239l-0.703-0.779l-1.145-0.938l-0.279-0.562l-0.033-0.75l0.29-0.557l0.51-0.362
		l0.236-0.355l0,0l0.935,0.391l0.42,0.033l0.268-0.192l0.083-0.481l0,0l0,0l0,0l0.275,0.102l1.134-0.547l1.63,0.054l1.191,0.616
		l1.416,1.083l1.177,0.67l1.79,0.141l2.086,0.779l1.612-0.333l0.568,0.087l0.659,0.301l0.775,0.018l1.463-0.648l0.3,0.022
		l0.652,0.503l0.366,0.685l0.634,0.695l1.061,0.691l1.568,1.402l0,0l-0.467,0.717l-0.098,0.449l-0.022,4.046l0.091,0.637
		l0.275,0.667l0.073,1.923l0.265,0.677l-1.264,1.261l-0.63,1.633l-0.087,0.84l-0.471,1.202l-0.268,1.409l-0.735,1.876l-0.362,1.521
		l-0.554,0.268l-0.967,0.091l0,0l-1.398,0.406l0,0l-1.021,0.528l-0.638,0.71l0,0l-0.37,0.13l-0.453-0.225l0,0l-1.152-0.192
		l-1.579-0.826l0,0l-0.735-0.637l-0.312-0.602l0,0l-1.38-1.948L205.295,148.665z"/>
	<path id="AZ-SAR" fill="#1E3250" stroke="#1E3250" stroke-width="0.5" d="M26.044,145.525l-2.394,0.732l-1.485,1.485l-0.275,2.133
		l-0.652,1.949l-1.112,2.412l-1.854,1.391l-1.764,1.018l-1.576,1.206l-0.927,1.206l-0.26,1.17l0,0l-1.04-1.26l-1.112-0.094
		l-2.781-2.039l-0.464-1.858l-1.021-1.203l-0.185-2.597l-1.112-1.021L5.1,149.042l-0.185-2.412l0.073-0.598l0,0l0.67,0.04
		l1.206-0.37l1.854-0.836l0.373-1.297v-0.652l-0.652-0.927v-1.112l1.115-1.021l1.018-0.37l0.652-0.836l-0.167-1.873l0,0l1.286-0.8
		l0.909-0.855l0.844-1.478l0.558-0.652l2.133,0.188l0.927,0.464l0.558,1.575l-0.123,1.073l0.337,0.536l0.475,1.308l0.895,0.677
		l0.489,0.826l0.322,1l0.047,1.535l-0.398,0.953l0.21,0.949l-0.181,0.884l0.261,0.822l0.228,0.319l1.058-0.677l1.666-1.485
		l0.931-0.094l1.202,0.094l0.373,0.558l-0.188,0.833L26.044,145.525z"/>
	<path id="AZ-SAT" fill="#1E3250" stroke="#1E3250" stroke-width="0.5" d="M182.884,142.262l-0.63,1.594l-0.384,0.493l-0.645,0.148
		l-1.626-0.04l-0.366-0.086l-0.293-0.261l-0.514-0.978l-0.895-1.235l-1.387-0.586l-0.304,0.007l-0.402,0.221l-0.927,0.884
		l-1.326,1.702l0,0l-0.59-0.931l-1.231-1.123l-0.022-3.31l0.398-1.38l-0.163-0.714l-0.812-1.126l-0.322-0.257l-2.713-0.626
		l-1.173-0.681l-0.341-0.373l-0.384-0.76l-0.485-1.358v-1.119l1.93-3.763l-0.043-0.547l-0.406-0.808l-0.992-1.239l1.137-2.101l0,0
		l0.757,1.275l0.377,0.337l2.854-1.713l1.956-0.804l1.25-0.38l0.449,0.029l1.728,1.003l0.42,0.399l0.037,0.336l-0.866,1.047
		l0.507,1.141l0.739,0.695l0.423,0.167l0.489-0.076l0.547-0.84l0.38-0.203l2.198,0.065l1.532,0.931l1.325,1.235l0.395,0.181
		l1.459,0.236l0.898,0.818l1.445,2.057l-0.007,1.163l-0.369,1l-0.007,1.177l0.072,0.37l1.068,2.061v0.724l-0.891,1.72l-0.616,0.884
		l-2.499,1.217l-1.369,0.08l-1.811,0.554l-0.373,0.576l0.072,0.71l0.467,0.214L182.884,142.262z"/>
	<path id="AZ-SBN" fill="#1E3250" stroke="#1E3250" stroke-width="0.5" d="M210.457,49.185l-0.757-0.286l-1.191-1.072l-0.949-1.177
		l-0.837-0.485l-0.568,0.036l-2.274,1.058l-0.373-0.011l-1.025-0.366l-1.025,0.315l-1.807,0.015l-0.554,0.225l-0.515,0.818
		l-0.13,0.529l1.17,3.064l-0.043,2.173l-1.177,1.938l-0.366,0.271l-1.413-0.029l-1.47,1.011l-0.583,0.612l-0.152,0.352l0.007,0.775
		l0.366,1.068l0.044,2.148l0.34,0.869l0.275,1.695l0,0l-1.166,0.598l-1.836,1.764l0,0l-4.871-2.525l0,0l-0.029-3.56l0.333-1.036
		l-1.086-1.402l-0.047-0.989l0.699-0.902l1.01-0.608l0.562-0.55l0.514-1.463l0.003-0.453l-0.384-0.602l-3.357-3.412l-0.224-0.536
		l0.923-1.861l0.883-0.953l0.424-0.659l1.507-0.88l0.424-0.663l0.891-0.953l0.388-0.778l-0.108-0.413l-0.858-0.992l-0.083-0.518
		L190,39.109l0.333-0.771l0.308-2.47l0,0l0.858,0.145l2.307-1.007l1.76,1.061l1.318-0.398l1.597-0.945l0.572-0.068l1.604,0.068
		l1.887,0.822l3.832-0.152l0,0l0.109,0.33l0.956,1.235l1.344,3.441l0.09,0.923l0.409,1.34l0.478,3.864L210.457,49.185z"/>
	<path id="AZ-SIY" fill="#1E3250" stroke="#1E3250" stroke-width="0.5" d="M220.46,65.306l-0.518,0.203l-0.843-0.036l-1.413-0.511
		l-0.37,0.109l-0.938,0.775l-0.605,0.207l-4.39-0.163l-3.948-2.253l-0.905-0.257l-0.714-0.46l-0.5-0.906l-0.018-2.405l-0.141-0.319
		l-0.294-0.137l-2.281,1.097l-0.431,1.13l-0.185,1.09l-0.373,0.391l-2.792,1.145l-0.739,0.148l-1.304,0.619l-1.311-0.043l0,0
		l-0.275-1.695l-0.34-0.869l-0.044-2.148l-0.366-1.068l-0.007-0.775l0.152-0.352l0.583-0.612l1.47-1.011l1.413,0.029l0.366-0.271
		l1.177-1.938l0.043-2.173l-1.17-3.064l0.13-0.529l0.515-0.818l0.554-0.225l1.807-0.015l1.025-0.315l1.025,0.366l0.373,0.011
		l2.274-1.058l0.568-0.036l0.837,0.485l0.949,1.177l1.191,1.072l0.757,0.286l0,0l0.033,1.409l0.971,2.47l0.268,1.648l0.235,0.525
		l-0.304,0.195v0.16l0.471,0.297l0.572,1.072l1.13,1.304l1.151,1.032l0.692,0.822l1.043,0.717l1.593,2.604l1.387,0.789
		L220.46,65.306z"/>
	<path id="AZ-SKR" fill="#1E3250" stroke="#1E3250" stroke-width="0.5" d="M63.081,80.177l-2.383-1.373l-0.42-0.054l-0.395,0.13
		l-0.703,1.058l-1.036,2.075l-0.88,0.942l-0.435,0.761l-1.351,1.318l-0.011,0.395l-0.391,0.398l0,0l-0.359-0.369l-0.051-0.268
		l0.41-0.565l-0.036-1.369l-0.305-0.837l0.486-1.213l-0.026-0.329l-1.474-1.243L53.36,78.67l-0.254-0.326l-2.3-1.369l-1.615-2.361
		l-0.493-0.967l-0.21-1.662l-0.427-0.471l-0.812-0.514l-1.224-1.901l0,0l0,0l0,0l0.098-0.833l-0.257-0.688l-0.043-0.565l0.54-1.05
		l2.036-1.148l1.206-1.293l0.746-0.398l1.278-1.163l1.116-0.717l1.054-1.539l0.645-2.213l0.645-0.152l7.881,0.192l0.652-0.156
		l0.304-0.442l0.225-1.112l0.869-0.953l0.348-0.648l2.887-2.89l0.844-2.028l0,0l1.506,2.47l2.097,2.217l1.75,3.557l-0.116,0.753
		l-1.402,2.285l-0.112,1.383l-0.326,0.779l-0.116,0.981l-1.116,1.792l0.127,0.75l0.996,1.166l0.188,1.054l0,0l-1.003,2.039
		l-0.656,0.862l-0.116,2.133l-0.695,1.456l-0.112,1.753l-0.587,1.202l-0.532,0.435L68.395,78.5l-3.383,0.025l-0.851,0.876
		L63.081,80.177z"/>
	<path id="AZ-SM" fill="#1E3250" stroke="#1E3250" stroke-width="0.5" d="M236.711,84.628l-0.779,1.434l-0.735,0.33l-1.029,0.127
		l-0.836,0.326l-0.594,0.025l0,0l-1.213-0.043l0,0l-0.446-0.163l0,0l-1.094-1.891l0,0l-0.369-0.663l-3.231-3.245l0,0l-0.126-0.065
		l0,0l-0.268,0.025l0,0l-0.308-0.471l0.134-0.489l0.812-0.384l1.409-0.112l0,0l0.333,0.956l0.525,0.833l0.746,0.235l1.434,0.779
		l0.768,0.12l2.604,0.025l1.271,1.735l0.457,0.384L236.711,84.628z"/>
	<path id="AZ-SMI" fill="#1E3250" stroke="#1E3250" stroke-width="0.5" d="M193.698,72.969l-1.677,1.242l-1.307,0.304l-1.108,1.438
		l-0.398,0.797l-0.08,0.565l0.04,1.188l0.366,1.028l-0.021,1.384l-1.572,2.394l0.08,0.478l0.917,0.724l0.511,0.641l-0.29,1.163
		l0.337,1.021l0.076,1.576l0.333,0.836l-0.007,0.768l-0.203,0.608l0.884,1.094l0.108,0.322l-1.481,2.996l-0.247,1.597l-1.079,0.652
		l-1.065,0.21l-0.348,0.424l-0.109,0.409l0.283,0.442l0.648,0.181l1.438-0.362l2.05,0.047l0,0l-0.62,2.901l-0.895,0.858
		l-0.673,0.348l-0.906,0.764l-0.38,0.138l-1.065-0.489l-1.912-1.322l-2.119-0.775l-1.239-0.96l-2.391-0.192l-0.88-0.435l0,0
		l1.054-1.561l1.01-1.152l0.076-2.361l0.246-0.634l0.905-0.786l2.05-0.971l2.524-1.419l0.413-0.391l0.271-0.616l-0.174-0.196
		l-0.529-0.134l-0.913-0.489l-2.177-1.445l-3.611-0.152l-1.485-0.558l-0.612-0.565l-1.203-1.992l-0.069-0.5l0.493-0.946l2.376-2.343
		l0.935-1.336l0.101-0.319l-0.253-0.978l1.104-1.818l-0.043-0.558l-0.496-1.293l-0.884-0.626l-0.826-0.858l-0.304-1.098
		l-0.583-0.931l0,0l1.887-3.709l0.004-0.739l-0.591-0.996l-3.593-2.535l-0.586-0.663l-0.562-1.108l0,0l5.172,0.076l3.488,1.568
		l1.141,0.195l4.118,1.528l0,0l4.871,2.525l0,0l-0.815,1.275l-0.025,1.376l0.895,1.916L193.698,72.969z"/>
	<path id="AZ-SMX" fill="#1E3250" stroke="#1E3250" stroke-width="0.5" d="M66.116,44.657l1.09,0.547l1.912-0.221l2.782,0.112
		l1.42,1.308l3.708,4.748h0.873l1.039-0.547l1.09,0.438l0.217,1.361l1.094,1.449l0.652-0.167l0.655-1.253l1.366-1.963l0.927-0.656
		l1.145,0.271l1.094,0.438l0.764,0.873l0.543,0.055l0.384-0.33l0.978,0.021l0,0l0.373,0.826l0,0l-0.025,0.185l0,0l0.634,0.271
		l0.822-0.286l1.188,0.011l1.26,0.768l0.152,0.449l0.04,2.206l0.453,1.398l0.826,1.481l0.09,1.641l0,0l-1.369,1.318l-0.699,1.043
		l-1.5,1.485l-0.417,0.753l-1.604,1.612l-0.771,1.145l-1.271,1.213l-0.75,0.387l-0.869,0.779l-0.761,0.388l-0.467,0.438
		l-0.062,0.304l0.493,1.221l-0.489,0.837l-1.561,0.844l-0.88,0.844l-0.217,1.282l-0.507,1.065L81.832,78l0,0l-0.315,0.246
		l-0.891,0.225l-1.543-0.032l-1.38-0.355l-0.953-0.489l0,0l0.282-1.304l-0.072-0.395l-0.286-0.387l-0.829-0.42l-1.326,0.069l0,0
		l-0.087-2.307l-0.326-0.844l-0.127-0.953l-1.405-2.564l0,0l-0.188-1.054l-0.996-1.166l-0.127-0.75l1.116-1.792l0.116-0.981
		l0.326-0.779l0.112-1.383l1.402-2.285l0.116-0.753l-1.75-3.557l-2.097-2.217l-1.506-2.47l0,0l-0.424-0.384l-2.188-0.688
		l-1.739-1.068l-0.601-0.098l-0.395-0.569l0,0l0.119-0.069l0.341-1.231l0.895-0.242l0.246-0.294H66.116z"/>
	<path id="AZ-SR" fill="#1E3250" stroke="#1E3250" stroke-width="0.5" d="M199.606,126l-0.083,0.481l-0.268,0.192l-0.42-0.033
		l-0.935-0.391l0,0l-0.239-0.207l0.221-0.507l0,0l0.051-1.934l-0.688-1.337l-0.047-0.413l0.333-0.587l0.793-0.286l0.304,0.13
		l0.739,1.358l0.971,1.119l-0.004,0.337l-0.681,0.927L199.606,126z"/>
	<path id="AZ-SUS" fill="#1E3250" stroke="#1E3250" stroke-width="0.5" d="M85.167,135.695l1.134-0.253l1.413-0.123l1.601-0.923
		l0.46-0.131l0.768,0.073l1.296,0.514l2.195,1.431l0.92,2.054l1.536,1.507l0.229,1.383l0.366,0.804l0,0l-2.572,4.125l0,0
		l-0.351-2.532l-0.312-0.442l-0.445-0.163l-1.406-0.011l-1.3,0.489l-0.475,0.648l-0.38,0.797l-0.163,0.728l-0.409,0.746l-0.518,0.37
		l-1.046-0.5l-0.59-0.841l-0.529-0.453l-0.648-0.123l-0.746,0.17l-0.532-0.355l-0.16-0.667l0.04-1.771l0.449-0.96l0.67-0.836
		l0.315-0.746l-0.203-0.612l-0.076-1.561l-0.351-0.87L85.167,135.695z"/>
	<path id="AZ-TAR" fill="#1E3250" stroke="#1E3250" stroke-width="0.5" d="M111.295,110.245l-0.63-0.04l-0.902,0.286l-0.786-0.21
		l-0.54-0.616l-0.155-1.546l-0.757-0.771L107,107.312l-0.616,0.583l-0.446,0.119l-0.579-0.206l-1.087-0.924l-0.648,0.019
		l-0.105,0.673l0.312,0.851v0.344l-0.786,0.862l-1.768,0.67l-0.779-0.026l-0.652-0.286l-0.351-0.014l-1.065,0.645l-0.156,0.435
		l-0.043,1.778l-0.453,1.159l-0.388,0.359l-1.213,0.579l-0.264,0.286l-0.051,0.735l0.326,0.938l-0.438,1.698l0,0l-0.981-1.3
		l-0.855-0.797l0.217-0.956l-0.148-0.355l-1.318-1.007l-1.764-1.8l-0.677-0.92l-1.869-0.583l-0.775-0.018l-1.206,0.583l-1.079,0.873
		l-0.645-0.051l-0.482-1.713l-0.116-1.348l-0.695-1.459l-0.036-2.934l0.17-0.866l0.956-0.812l0.438-2.014l0,0L85,100.093
		l0.565-0.608l1.449-0.369l1.112-0.84l0.822-0.232l1.579-0.76l1.155-0.913l1.42-0.844l4.14-0.036l0.963-0.431l2.763-2.071
		l0.66-0.355l0.685-0.985l0.619-0.637l0.594-0.344l0,0l0.323,0.489l0.105,1.13l0.442,0.97l1.3,1.438l0,0l0.279,1.992l0.492,1.311
		l1.054,0.757l0.913,1.764l0.409,0.489l0.543,0.293l1.329,0.188l0.38,0.38l0.062,0.496l-0.369,1.257l-0.007,4.289l0.083,0.619
		l0.323,0.771L111.295,110.245z"/>
	<path id="AZ-TOV" fill="#1E3250" stroke="#1E3250" stroke-width="0.5" d="M46.026,69.098l-0.264,1.514l-0.359,1.021l0.004,2.347
		l0.362,1.238l-0.362,1.228L45.36,81.39l-0.721,1.485l-0.402,0.391l-0.485,0.235l-0.71-0.264l-1.137-1.195l-1.126-0.217
		l-0.304-0.257l-0.271-0.648l0.304-0.826l0.04-0.782l-0.083-0.362l-0.261-0.3l-2.111-1.112l-2.383-0.141l-0.562-0.25l-0.243-0.568
		l-0.087-2.369l-0.485-0.956l-0.507-0.562l0,0l4.9-3.676l0.771-1.083l0.456-1.629l-0.076-1.203l-0.283-0.616L39.21,64.27
		l-0.572,0.272l-0.217-0.398l-0.692-0.428l-1.119-0.206l-0.721-1.007l-0.913,0.101l0.159-0.974l-0.891-0.565l-0.231-0.453
		l-0.029-0.927l-0.148-0.265l-0.442-0.203l-0.225,0.105l0,0l1.181-1.126l0.312-1.134l2.851-0.724l1.55-1.471l0.623-1.101
		l0.043-1.771l-0.703-1.47l-0.185-1.159l-0.268-0.648l-0.032-1.21l0.148-0.413l0.442,0.04l2.513,1.293l0.362-0.018l0.717-0.645
		l0.442-1.282l1.108-1.112l4.433-2.333l0,0l0.424,0.34l0.891,0.333l0.703,0.142l1.148-0.047l0.576,0.152l1.923,0.967l1.011,0.909
		l1.239,0.696l1.546,0.101l1.387-0.282l1.068,0.112l1.235-0.069l1.362,0.402l0.533-0.301l0,0l0.395,0.569l0.601,0.098l1.739,1.068
		l2.188,0.688l0.424,0.384l0,0l-0.844,2.028l-2.887,2.89l-0.348,0.648L64.15,55.82l-0.225,1.112l-0.304,0.442l-0.652,0.156
		l-7.881-0.192l-0.645,0.152l-0.645,2.213l-1.054,1.539l-1.116,0.717l-1.278,1.163l-0.746,0.398l-1.206,1.293l-2.036,1.148
		l-0.54,1.05l0.043,0.565l0.257,0.688L46.026,69.098z"/>
	<path id="AZ-UCA" fill="#1E3250" stroke="#1E3250" stroke-width="0.5" d="M151.881,101.107l-2.922-0.065l-0.656,0.268l-0.956,0.105
		l-1.228,0.333l-2.216-0.062l-1.032-0.38l-0.775-0.021l-1.912,1.061l-0.717,0.203l-0.326-0.229l-0.796-1.427l-2.191-2.206
		l-2.561-1.38l-1.395-1.046l0,0l-0.007-0.489l-0.203-0.46l-0.413-0.409l-1.554-0.928l-0.634-1.169l0.007-0.768l0.366-1.014
		l0.047-1.778l0.275-0.648l0.123-0.743l0.225-0.319l1.325-0.145l1.25-0.533l2.224,0.96l0,0l0.05,0.398l1.123,0.576l0.481,0.757
		l0.518-0.025l1.065-0.655l0.562,0.029l1.018,0.587l0.978,0.836l1.702,0.905l0.518-0.152l0.793-1.191l0.858-0.109l5.501,2.825
		l1.985,0.105l1.032-0.304l1.26,0.667l0,0l-0.257,1.485l-0.094,2.959l-1.286,2.492L151.881,101.107z"/>
	<path id="AZ-XAC" fill="#1E3250" stroke="#1E3250" stroke-width="0.5" d="M190.642,35.867l-0.746-0.891l-0.192-0.055l-2.097,0.953
		l-0.435-0.094l-3.252-6.512l-0.326-0.551l-0.852-0.826l-0.173-0.605l0,0l0.12-0.862l-0.337-0.858l-0.124-0.971l-0.369-0.481
		l-0.873-0.554l-0.145-0.243l0.315-0.768l0.688-0.862l0.297-0.645l-0.029-0.366l-0.225-0.348l-0.384-0.213l-1.619-0.076
		l-0.467-0.148l-0.532-0.467l-0.188-0.417l0.011-3.644l1.007-2.09v-0.282l-0.471-0.833l-0.558-0.257l-1.416-0.011l-1.221,0.352l0,0
		l0.315-0.562l1.354-3.737l0.59-2.014l0.634-0.692L178.86,3.47l0.503-0.71l0.3-0.938l0.91-0.174l0.724,0.612l0.326,0.771
		l0.891,0.956l0.677,0.355l0.485,0.637l0.87,0.59l2.097,1.938l2.166,2.383l0.92,1.471l0.616,0.63l1.322,2.427l0.757,1.709
		l0.235,0.207l0.279-0.036l0.239,0.163l4.668,6.266l1.996,2.253l0.551,1.09l1.532,1.999l1.565,2.731l2.666,3.933l0.225,0.66l0,0
		l-3.832,0.152l-1.887-0.822l-1.604-0.068l-0.572,0.068l-1.597,0.945l-1.318,0.398l-1.76-1.061l-2.307,1.007L190.642,35.867z"/>
	<path id="AZ-XCI" fill="#1E3250" stroke="#1E3250" stroke-width="0.5" d="M97.083,142.03l-0.366-0.804l-0.229-1.383l-1.536-1.507
		l-0.92-2.054l-2.195-1.431l-1.296-0.514l-0.768-0.073l-0.46,0.131l-1.601,0.923l-1.413,0.123l-1.134,0.253l0,0l-0.322-2.698
		l-0.402-1.195l-1.604-3.206l-1.391-1.398l-1.025-0.601l-0.268-0.297l-0.054-0.739l0.786-2.314l0,0l1.387-0.453l0.898-1.101
		l0.348-0.159l1.467,0.507l0.533,0.467l0.489,0.685l0.435,0.015l1.883-1.094l0.728-1.496l0.38-0.362l0.366-0.185l1.257-0.105
		l1.648-0.453l0,0l0.616,0.811l1.112,0.555l0.562-0.033l1.463-0.677l0.587-0.004l0.59,0.229l0.775,0.75l0.424,0.761l0.963,1.123
		l0.087,1.558l0.236,0.55l0.989,0.605l0.601,0.199l1.123-0.322l0.543,0.525l0.109,1.072l-0.464,1.362l-1.898,2.39l-1.007,2.401l0,0
		l-0.33,0.677l-0.652,0.837l-0.003,0.333l0.891,1.365l2.188,2.314l0.456,1.376l-0.051,1.13l-0.268,0.286l-1.199,0.652l-1.459,1.369
		l-0.438,0.181l-0.604-0.351l-0.674-0.96L97.083,142.03z"/>
	<path id="AZ-XIZ" fill="#1E3250" stroke="#1E3250" stroke-width="0.5" d="M228.037,79.369l-1.409,0.112l-0.812,0.384l-0.134,0.489
		l0.308,0.471l0,0l-0.196,0.637l0,0l-0.406,0.764l-0.354,0.391l-0.732,0.427l-0.695,0.714l-0.232,0.467l-1.057,1.242l0,0
		l-0.152,1.934l-0.8,0.876l0,0l-0.743,0.304l0,0l-1.804,0.007l-0.655,0.271l0,0l-0.572,0.069l0,0l-2.112,0.13l0,0l-2.988-1.59
		l-1.043-0.909l-0.757-0.427l-0.5-0.583l-1.003-2.09l-0.489-0.492l-1.833-0.993l-1.554-0.177l-1.166-0.695l-3.698-3.734
		l-0.855-1.268l-0.887-0.547l-0.967-0.891l-3.013-1.76l-1.029,0.065l0,0l-1.199-1.311l-0.895-1.916l0.025-1.376l0.815-1.275l0,0
		l1.836-1.764l1.166-0.598l0,0l1.311,0.043l1.304-0.619l0.739-0.148l2.792-1.145l0.373-0.391l0.185-1.09l0.431-1.13l2.281-1.097
		l0.294,0.137l0.141,0.319l0.018,2.405l0.5,0.906l0.714,0.46l0.905,0.257l3.948,2.253l4.39,0.163l0.605-0.207l0.938-0.775
		l0.37-0.109l1.413,0.511l0.843,0.036l0.518-0.203l0,0l0.851,0.858l0.384,0.796l0.46,0.587l0.456,0.297l1.134,0.25l0.598,0.322
		l1.195-0.123l0.634,0.21l0.576,0.41l0.507,0.663l0.789,1.695l-0.159,0.192l-0.308,0.062l-0.086,0.196l0.261,0.699l-0.551,0.938
		l-0.108,0.626l0.054,2.014l0.362,2.524L228.037,79.369z"/>
	<path id="AZ-XVD" fill="#1E3250" stroke="#1E3250" stroke-width="0.5" d="M122.073,138.778l-0.706,0.145l-1.532,0.681l-2.397,0.007
		l-1.463,0.634l-0.909-0.007l-1.297,1.405l-2.637,1.282l-2.206,0.025l-0.449,0.145l-0.152,0.435l0.094,0.507l0.261,0.33l0.732,0.427
		l0.724,0.105l0.989-0.568l0.445-0.098l0.33,0.203l0.072,0.344l-0.138,0.459l-0.562,0.406l-0.952,0.409l-1.17,0.083l-0.388,0.192
		l-0.768,0.975l-0.04,0.355l0.195,0.38l0.457,0.272l0.257-0.011l0.854-0.427l1.398-1.188l0.66-0.13l0.453,0.235l-0.17,0.753
		l0.098,0.717l-0.659,0.414l-0.253,0.431l0.271,0.808l0.094,1.17l0.214,0.764l-0.275,0.192l-1.423,0.145l0.076,1.047l-0.482,0.518
		l0,0l-0.441,0.739l-0.707,0.511l-0.174,0.344l1.058,2.224l-0.076,0.406l-0.435,0.25l-0.641-0.229l-0.435,0.051l-1.239,1.062
		l-0.55,0.282l-0.721-0.051l-0.124-0.264l0.149-0.746l-3.376-2.264l-0.105-0.457l0.235-0.771l-0.112-0.192l-0.576-0.362L100.444,154
		l-1.224-0.981l-0.757,0.015l-0.482,0.587l1.007,2.307l-1.007,1.905l-0.521,0.148l-1.633-0.92l-1.416-0.246l0,0l0.865-1.315
		l0.485-1.217l-1.007-1.546l-0.521-0.167l-2.26,0.572l-0.96-0.315l-1.047-0.159l0,0l1.985-1.42l0.221-0.398l-0.029-1.938
		l-0.217-0.373l-0.844-0.572l-0.094-0.297l0.112-0.453l0.33-0.358l0.554-0.279l1.669-0.08l0.858-0.344l0,0l2.572-4.125l0,0
		l0.887,0.547l0.674,0.96l0.604,0.351l0.438-0.181l1.459-1.369l1.199-0.652l0.268-0.286l0.051-1.13l-0.456-1.376l-2.188-2.314
		l-0.891-1.365l0.003-0.333l0.652-0.837l0.33-0.677l0,0l2.246-1.177l1.666-0.562l0.685-0.811l0.424-2.158l0.134-0.25l0.261-0.116
		l0.978-0.054l0.848-0.308l0.778,0.033l0.395,0.192l1.253,1.156l1.014,0.583l1.231,0.598l2.452,0.895l0.326-0.352l0.569-1.181
		l0.475-0.496l2.401-0.098l0.833,0.276l0,0l0.174,1.575l0.203,0.413l0.478,0.457l3.017,1.945l0.666,1.079l-0.003,0.728
		L122.073,138.778z"/>
	<path id="AZ-YAR" fill="#1E3250" stroke="#1E3250" stroke-width="0.5" d="M181.236,186.111l-1.076,1.032l-6.628,3.665l-1.521,1.568
		l-1.691,0.909l-0.88,1.282l-0.898,1.007l-0.173,1.84l-0.239,0.312l-0.713,0.478l-0.489,1.224l0,0l-1.637-0.804l-0.822-0.746
		l-0.475-0.253l-1.344-0.257l-1.394-0.674l-0.862-0.152l-0.391-0.789l-2.579-1.623l-1.409-1.974l-0.344-0.924l-0.21-1.376
		l0.214-1.583l0.322-0.268l0.775,0.337l1.25-0.051l0.594-0.185l0.261-0.391l0.112-1.087l0.181-0.29l0.88-0.355l1.735-0.141
		l1.018-0.474l1.836-0.062l2.195-0.518l2.155-0.217l3.249-1.996l0.438-0.808l-0.018-0.579l0,0l0.63-0.12l1.061-0.558l0.572,0.072
		l1.557,1.021l1.417,1.695l0,0l-0.112,1.275l0.54,1.286l0.261,0.127l0.565-0.011l1.065-0.54L181.236,186.111z"/>
	<path id="AZ-YE" fill="#1E3250" stroke="#1E3250" stroke-width="0.5" d="M113.069,81.202l-0.8,0.663l-0.177,0.844l0.264,0.892
		l0.935,0.619l1.242,0.09l0.757-0.355l0.178-0.757l-0.134-1.199l-0.398-0.442l-0.978-0.445L113.069,81.202z"/>
	<path id="AZ-YEV" fill="#1E3250" stroke="#1E3250" stroke-width="0.5" d="M95.062,62.68l0.036,1.742l0.358,1.086l0.004,3.937
		l-0.073,0.405l-1.057,2.05l-0.029,1.76l0.308,0.46l0.884,0.503l2.05,0.279l1.264,0.833l0.13,0.239l-0.826,1.318l-0.848,0.913
		l-0.913,1.354l-0.094,1.376l0.126,0.485l0.645,0.047l1.895-1.268l0.586-0.203l0.725,0.094l1.26,0.812l0.337,0.413l0.109,0.771
		l-0.051,1.724l-0.337,0.84l-0.025,0.576l0.659,1.967l0.268,0.315l0.474,0.152l1.438-0.362l0.598,0.004l0.417,0.159l-0.225,1.648
		l-0.261,0.413l-0.09,0.721l-0.337,0.236l-0.489-0.011l-0.438,0.207l0,0l0.322,0.493l0.105,1.13l0.442,0.971l1.297,1.438l0,0
		l1.311-1.648l0.775-1.489l0.996-1.38l0.764-0.112l0.731,0.138l1.34,1.112l0.395,0.13l1.974-1.373l0.692-0.844l0.771-2.579l0,0
		l1.17-0.511l0.598-0.514l0.384-0.475l0.804-1.59l0.047-1.351l-0.75-1.645l-0.021-1.782l0.355-1.018l0.126-0.945l0.641-1.257
		l0.949-4.299l0,0l-2.847-0.996l-2.68-1.518l-0.952-0.17l-2.427-1.243l-2.478-1.524l-3.307-1.738l-1.238-0.507l0,0l-2.662-1.26
		l-3.698-2.344l-1.789,0.131L95.062,62.68z M109.249,74.248l-0.293,0.467l0,0l-1.003,0.58l-1.221,0.373L106.17,75.7l-1.873-0.981
		l-1.09-1.496l-0.004-0.344l0,0l0.761-1.38l0,0l0.438-0.073l0,0l1.989,1.014l0.348,0.007l0,0l1.159-0.565l0.42-0.011l0.417,0.438
		l0.253,0.065v0.604l0.34,0.323l0.163,0.387l0,0L109.249,74.248z M115.29,83.954l-0.753,0.355l-1.243-0.09l-0.931-0.623
		l-0.268-0.888l0.178-0.844l0.8-0.666l0.887-0.091l0.978,0.445l0.398,0.446l0.134,1.199L115.29,83.954z"/>
	<path id="AZ-ZAN" fill="#1E3250" stroke="#1E3250" stroke-width="0.5" d="M101.049,173.362l-0.935,0.489l-0.594,1.253l-1.971,1.945
		l-1.691,2.064l-0.42,1.844l-1.22,0.956l-1.275,0.083l-0.435,0.565l-0.771,0.59l-0.906,1.604l-0.623,0.782l-0.895,0.731
		l-0.854,1.336l-2.966,2.615l-0.286-2.042l-0.982-1.652l-0.34-0.876l0.142-0.641l0.529-0.71l0.021-0.297l-0.199-0.449l0.051-0.511
		l0.887-2.676l0.362-0.489l0.04-0.482l-0.279-0.178l-0.771-0.116l-0.304-0.373l0.159-0.547l0.445-0.297l0.054-0.428l-0.438-0.659
		l-0.761-0.428l-0.199-0.424l-0.003-0.677l-0.782-0.54l-0.018-0.463l0.376-0.674l-0.413-0.253l-0.739,0.319l-0.648-0.41
		l-0.645-0.123l-0.42-1.199l0.007-1.155l0.271-0.373l0.445-0.087l0.626,0.087l1.156,0.568l0.152-0.036l0.869-1.115l0.536-0.221
		l0.188,0.072l0.235,0.38l0.141,1.865l0.225,0.42l0.424-0.619l0.511-0.417l0.873-1.296l0.782-0.547l1.278-0.268l0.384-0.279l0,0
		l0.594,0.655l0.13,0.757l-0.047,1.076l-0.362,1.05l0.025,1.724l0.568,1.185h0.569l0.442-0.174l0.55-0.652l1.217-2.162l1.362-1.333
		l1.018-0.612l0.996-0.862l2.191-1.141l0,0l0.297,0.464l0.674,0.547l0.917,1.275l0.402,0.797L101.049,173.362z"/>
	<path id="AZ-ZAQ" fill="#1E3250" stroke="#1E3250" stroke-width="0.5" d="M78.927,27.816l-2.782-1.112l-0.463-0.402l-0.207-0.37
		l0.127-0.913l-0.109-0.562l-1.311-1.792l-0.333-0.714l0,0l1.731,0.949l0.503,0.076l2.155-1.253l0.945-0.953l2.104-0.134
		l3.188-1.988l0.851-1.514l0.446-1.398l0.116-0.967l0.543-1.032l2.086-1.616l0.645-0.33l0.974-0.854l0.757-0.417l2.126-2.162
		l0.442-0.992l0.091-2.351l-0.109-0.413l-0.337-0.453l0,0l0.989-0.76l0.449-0.185l0.594-0.149l0.282,0.188l0.315,0.453l0.142,1.094
		l0.453,1.297l0.011,0.952l0.352,0.985l2.39,2.398l0.286,0.395l0.127,0.46l0.297,0.203l0.442,0.21l0.453,0.007l1.492-0.235
		l0.344,0.105l0.348,0.37l0.312,0.554l0.148,0.8l-0.054,1.123l1.039,1.808l0.909,1.123l1.25,0.152l0.384,0.177l0.395,0.591
		l0.094,0.441l-0.134,0.344l-0.366,0.275l-0.268,0.442l-0.003,0.376l0.054,0.384l1,2.137l0.953-0.156l0,0l-0.471,1.369l-0.59,0.953
		l-1.173,0.268l-1.38,0.978h-0.775l-0.84-0.355l-1.181-0.105l-0.655-0.293l-0.957-0.152l-1.032-0.376l-2.607-0.033l-2.018,0.558
		l-0.54,0.594l-0.243,0.902l-2.742,5.462l-0.876,1.314l-0.688,0.641l0,0l-0.373-0.355l-0.178,0.456l-0.228-0.068l-0.217-0.402
		l-0.203,0.16l-0.265-0.007l0.12-0.753l-0.159-0.199l-0.163-0.003l-0.178,0.424l-0.253-0.304l-1.438-0.464l-0.116-0.293
		l-3.462-1.318l-1.286-0.927l-0.391-0.732l-0.431-0.442l-0.301-0.159l-1.202-0.152l-0.019-0.583L78.927,27.816z"/>
	<path id="AZ-ZAR" fill="#1E3250" stroke="#1E3250" stroke-width="0.5" d="M147.658,114.171l-0.594,1.123l-0.554,0.348l-3.513-0.228
		l0,0l1.065-0.747l0.138-0.235l-0.37-0.445l-1.373-0.992l0,0l-0.25-1.336l-0.485-1.13l-0.558-0.427l-0.971-0.398l-0.312,0.109
		l-0.239,0.33l-0.229,0.992l-0.207,0.271l-1.978-0.634l-0.826,0.268l-1.181,0.058l-0.84,0.301l-1.181,0.076l-1.25,0.667l-0.731-0.05
		l-0.572-1.156l-0.17-0.735l-0.945-1.112l-0.152-0.348l-0.015-1.785l0.243-1.92l0,0l0.029-0.282l-0.275-0.138l-1.634,0.08
		l-0.59-0.366l-0.134-0.587l0.576-1.047l0,0l3.238-3.151l0.235-0.876l1.141-2.405l0,0l1.395,1.046l2.561,1.38l2.191,2.206
		l0.796,1.427l0.326,0.229l0.717-0.203l1.912-1.061l0.775,0.021l1.032,0.38l2.216,0.062l1.228-0.333l0.956-0.105l0.656-0.268
		l2.922,0.065l0,0l-0.293,1.343l-0.021,3.162l0.493,2.195l0.279,0.652l-0.047,2.137l-0.942,1.072l-0.369,0.663l-0.699,0.699
		l-0.551,0.275l-1.101,0.178L147.658,114.171z"/>
</g>
</svg>
