<?xml version="1.0" encoding="utf-8"?>
<!-- Generator: Adobe Illustrator 15.0.0, SVG Export Plug-In . SVG Version: 6.00 Build 0)  -->
<!DOCTYPE svg PUBLIC "-//W3C//DTD SVG 1.1//EN" "http://www.w3.org/Graphics/SVG/1.1/DTD/svg11.dtd">
<svg version="1.1" id="Layer_1" xmlns:amcharts="http://amcharts.com/ammap"
	 xmlns="http://www.w3.org/2000/svg" xmlns:xlink="http://www.w3.org/1999/xlink" x="0px" y="0px" width="732.08px"
	 height="644.577px" viewBox="0 0 732.08 644.577" enable-background="new 0 0 732.08 644.577" xml:space="preserve">
<defs>
	
	
		<amcharts:ammap  projection="mercator" leftLongitude="23.178942" topLatitude="56.172064" bottomLatitude="51.262469" rightLongitude="32.780288">
		</amcharts:ammap>
</defs>
<g>
	<path id="BY-BR" fill="#1E3250" stroke="#1E3250" stroke-width="0.5" d="M56.02,430.21l11.68-0.91l0.11-1.43l2.28-0.74l2.95,1.59
		l-0.24,3.021l4.04,1.37l0.12-0.931l0.84,2.44l0.7-2.43l1.8-1.181l0.93,0.51l-0.64,1.771l1.23-1.39l3.85,2.04l4.01-2.33l1.13,0.279
		l-0.02,2.41l8.94-0.189l3.13-1.721l0.79,0.94l-0.99-4.82l2.77-6.88l-1.73,0.39l0.93-0.819l-1.46-1.51l2.62-4.101l2.94-0.93
		l-2.87-2.19l0.31-1.5l7-6.149l1.52,0.17l-0.49,4.319l2.31,1l2.5-1.109l1.34,1.45l2.04-2.261l1.24,1.96l4.29-0.39l1.52-1.76
		l2.46,0.399l2.12,3.9l-1.21,1.44l2.97,3.239l2.68-4.83l1.25,0.431l-1.01,7.029l0.76,3.69l1.79-2.31l1.91,1.319l1.9-2.6l4.55,2.78
		l1.37-3.7l3.96-1.681l0.96,4.71l2.76,1.051l2.19-2.73l-0.5-1.32l-2.53,0.261l-0.51-2.59l2.47-2.2l-2.32-4.12l4.16,0.7l4.39-0.91
		l-0.24-3.99l1.89-2.89l5.22-2.511l1.69-2.649l3.7-0.811l-0.31-1.59l1.51-1.79l-2.39-3.359l1.61-0.42l1.15-3.37h-0.94l0.37-3.61
		l-2.85-2.729l1.69-1.5l0.16-2.561l1.39-0.01l-1.31-2.64l1.66-3.881L179,367.82l3.05-0.5l1.57-6.23l-0.52-3.38l1.07,0.21l2.1-3.51
		l7.09,1.84l2.05-1.38l2.7,0.939l1.16-1.989l2.81-0.271l-0.33,1.4l5.16,0.39l0.01,1.29h2.79l2.06,1.97l3.1-2.55l0.65,2.271
		l2.49-1.551l1.95,1.021l10.17,0.04l1.29,2.38l3.52-1.5l0,0l1.58,5.34l1.41,0.23l-1.09,7.26l-3.08,0.11l-0.12,2.279l-2.83,1.67
		l0.46,1.46l-2.81,0.73l0.8,2.78l2.84,1.05l1,2.97l1.64-0.31l1.46,3.31l2.22,1.51l4.59-0.08l0.87,3.86l2.08,0.14l1.2,4.311
		l-4.12-0.62l-1.19,1.76l0.4,4.811l-2.86-0.3l-2.16,1.51l1.26,5.55l3.7,4.68l-5.42,5.431l0.26,3.68l4.06,2.34l0.11,1.35l4.83-7.01
		l0.93,3.46l2.27-1.189l2.26-6.13l2.86,3.479l2.84-0.229l1.74,2.729l2.03,0.54l-0.41-1.14l3.06-0.23l0.82,6.49l2.71,3.53l5.06-0.7
		l1.4,2.07l5.38,2.68l3.96-5.44l1.68,4.391l-0.66,3.189l1.98,0.92l0.84,3.601l-3.04,0.939l0.8,6.78l-2.08,0.03l0.1,2.439l2.22,1.13
		l0.27,3.37l1.2,0.11l0.18,8.4l4.87,0.21l0.74,4.439l2.03-0.2l0.33,4.12l4.64-0.08l0.12,2.4l3.42,0.939l0,0l-1.21,4.061l0.49,4.38
		l7.92-0.08l0.09,1.98l2.57,2.119l4.4,0.2l1.75,2.431l3.04,0.89l1.82,5.92l-2.42,2.97l1.57,2.34l-2.31,6.261l0.34,5.779l3.64,0.53
		l0.66,3.36h2.54l0.08,3.01l-7.23,7.18l1.72,6.08l-2.76,4.92l4.49,5.23l-1.87,4.51l1.35,2.55l-2.02,2.561l-1.69-0.29l-0.95,1.27
		l-0.44,6.32l2.22,3.89l0,0l-0.37,3.46l1.1-0.06l-1.7,2.39l-1.87-1.069l0.3-2.36l-1.38,0.95l-0.85-1.51l-1.93,1.92l-4.8-1.5
		l-1.48,1.399l-7.17,0.311l2.19-6.07l-1.77-1.521l-3.03,0.33l-0.52-12.979l-15.39,0.59l-3.38,3.98l-7.44-3.66l-3.94,1.069
		l-3.02-2.39l-0.22-3.12l-4.4-2.59l-7.26-0.48l-3.68,3.73l-5.24-0.2l-0.24-1.64l-1.88-0.48l-1.57-2.399l-1.81,0.25l-0.22-4.82
		l-2.06,1.45l-10.57-1.08l-4.77,0.83l-0.17-1.601l-1.18,0.21l-3.43-4.01l-6.23-2.62l-6.42,2.13l-7.03-1.18l-0.2-2.22l-3.3-0.851
		l-0.85,0.28l0.97,3.07l-12.91-0.04l-5.59-2.03l-1.22,2.101l-1.92-0.99l-0.8,1.27h-4.76l-5.5-1.89l-5.63-3.84l-2.37,0.939
		l-2.63-1.08l-4.06,2.091l-3.22,0.02l-9.67,6.49l-2.46,0.01l-0.95-1.7l-5.52,1.681l-1.42-1.91l-4.94,3.52l-3.05-1.55l-3.29,0.45
		l-3.15-1.18l-11.29,2.46l-6.65-0.07l-3.6,2.67l0.34,1.33l-3.5,5.54l1.67,6.25l-3.48,3.85l-10.98,6.04l-3.39,5.391l-5.81,4.729
		l-5.47-2.1l-3.05,0.859l-0.2-2l2.46-2.819l-6.26-1.7l-2.59,0.8l-0.84-3.28l-5.29,2.021l-2.32-0.45l-5.18,3.49l1.82,3.71l2.31,1.319
		l-1.97,3.561l2.93,5.46l-4.01,0.18l-0.98-2.87l-3.33-0.83l0.9-2.609l-2.72-5.351l-0.19-4.899l1.57-6.48l-2.3-3.63l2.32-3.81l2,0.29
		l3.22-2.471l0.73-2.47l-2.83-4.8l0.34-4.26l1.81,0.47l-0.65-1.52l1.18-0.87l-1.91-2.9l2.44-1.94l-0.38-1.88l-1.02-0.02l3.24-1.7
		l-0.35-1.65l1.68-1.75l-3.4-7.97l0.92-0.21l-0.19-2.47l-2.6-1.44l0.27-1.699l-1.63-1.29l-2.98-0.171l-0.7,1.011l-2.66-4.511
		l-1.84-0.569l1.01-3.21l-2.55,0.59l-0.7-1.26l-2.4,1.489l-0.65-1.17l-1.15,0.57l-0.42-2.77l-1.46,0.619l-0.71-1.47l-3.98-0.16
		l-0.67-1.55l-2.71,0.851l-4.41-1.381l-0.13-5.909L0,490.42l10.09-17.78l7.8-10.859l4.05-4.08l7.85-4.601l9.48-2.56l1.68,0.93
		l11.63-8.819l3.39-4.011L56.02,430.21z"/>
	<path id="BY-HO" fill="#1E3250" stroke="#1E3250" stroke-width="0.5" d="M390.57,442.45l1.02,0.72l2.1-2.03l0.67,1.091l4.98,0.02
		l4.271-2.03l3.489,1.32l1.86-1.4l2.63,1.351l2.3-3.61l3.88-0.02l-0.1-2.061l-1.4,0.38l-1.229-1.31l0.64-3.26l3.48,1.13l1.62-1.97
		l1.649,0.29l5.87-8.2l-0.41-3.021l11.5-1.62l-0.97-4.33l5.86-7.739l13.21,5.12l0.63-1.49l1.31,0.17l-0.13,1.58l2.11,1.06l3.52-1.59
		l3.19-3.479l8.52,0.479l2.95,2.15l4.1-1.311l-0.659-1.41l1.51-1.699l-4.021-1.75l-2.51-3.57l3.07-3.87l-0.86-1.88l-2.2,0.77
		l-1.64-3.319l1.91-1.29l-1-2.44l1.33-1.78l1.56,1.881l3.16,0.26l4.08-2.12l-1.51-1.61l1.52-3.33l-2.09-1.04l3.561-1.279l-2.11-5.69
		l0.47-1.55l-1.43-1.72l-0.07-5.09l7.07-5.36l0.81,3.92l2.13-0.9l-0.659-0.89l0.96-0.49l1.43,1.061l-1.141,3.05l3.49,0.52l1.03-3.33
		l9.22,2.171l5.891,11.18l5.319-0.86l2.05-2.66l0.08,1.261l4.841-2.061l3.39,0.53l0.21-2.01l2.26-1.79l3.42,1.06l0.86-2.37
		l1.8,0.311l0.931-2.58l2.67,0.27l1.939-4.6l1.23,0.68l-1.45,2.68l1.37,0.74l-0.63,1.42l6.989,1.36l-1.05,2.16l1.91,1.84l3.06-0.36
		l-0.05-1.76l3.2-1.13l5.13,0.729l1.33-1.17l-0.32-1.38l1.53-0.52l10.23-0.25l-0.53,2.66l-2.08,1.979l1.16,1.82l1.43-1.021
		l1.98,0.62l-0.04,3.09l1.93,1.21l0.11,2.9l2.47-0.49l0.609,2.021l1.36,0.38l0.15,1.99l-1.61,1.55l1.09,2l6.45-0.58l1.26,3.49
		l2.07-0.761l0.021,0.87l5.689,0.12l1.021,2.26h1.5l0,0l-2.011,0.601l-0.38,6.06l-4.8-0.1l-1.57,1.64l8.32,5.42l1.65,3.761
		l-0.271,3.31l8.09,8.14l4.04,0.23l0.07,2.17l-1.36,1.21l4.95,4.63l0.98,6.05l-2.87,4.32l-4.79,1.7l4.609,5.59l0.33,6.16l5.011,4.04
		l3.029,0.34l-2.72,2.44l-1.74-1.091l-1.359,4.181l-2.601-0.311l1.12,2.58l2.13-0.99l1.54,1.69l-1.38,3.04l-1.79,0.82l1.94,0.58
		l-1.03,4.46l2.03-0.181l0.71,2.38l-0.391,8.19l-3.1,0.94l3.12,3.92l0.37-0.79l1.63,2.25l4.34,1.55l-1.05,1.12l0.87,4.85
		l-1.561,2.51l6.881,1l1.29,7.88l-5.65,2.971l-0.58-1.37l-3.09-0.92l-11.271-1.32l-2.8,1.04l-1.42-0.49l-0.71-2.33l-3.62-0.109
		l-1.99,1.04l0.59,1.42l-4.51,1.91l-2.01,6.29l-3.16,1.229l-2.06-1.02l-0.97-2.521l-3.881-0.91l-1.35-2.71l-11.48,2.931l-2.71-1.4
		l0.131,1.75l-1.391,0.2l1.09,2.76l-1.779-1.01l1.109,1.63l-1.16,0.65l0.511,1.88L571.21,522l1.29,3.271l-2.229-1.21l-0.69,1.039
		l1.28,1.08l-1.82,0.41l0.29,1.7l-3.7,0.9l1.07,0.89l-0.69,0.85l-1.56-0.979l-0.96,0.84l1.1,3.271L563,536.75l-4.1-0.43l-2.98,4.21
		l-0.82,3.64l-3.22,1.42l1.311,3.41l-0.92,2.55l-3.19,0.801l2.62,0.939l-1.86,5.47l-4.42,0.94l0.49,5.24l-3.021-1.61l-0.97,0.71
		l1.34,1.51l-1.949,3.521l3.529,2.439l-3.449,1.07l3.289,2.11l-1.869,1.91l1.369,2.569l2.551-0.63l-0.98,4.26l1.58,3.931l2.35,1.34
		l-3.039,1.859l0.34,2.62l2.42,0.21l2.64,5.381l-1.28,2.359l1,2.55l-4.199,2.98l1.369,0.79l-0.659,0.81l1.479-0.55l-1.1,2.74
		l-4.94,2.3l-2.52-2.21l-4.021,0.85l0.72-3.87l-4.359-0.319l-5.74-5.9l2.25-2.06l-1.18-4.931l0.77-0.479l-7.71-7.271l-5.399-3.109
		l-0.851,2.649l-2.59-2.149l-0.6,2.3l-7.58-1.94l-0.351,1.721l-2.56,0.649l-0.8,1.561l-2.811-2.19l-2.38,0.62l-1.29,4.61
		l-2.62-1.381l-2.01,0.86l-0.8-1.17l-0.851,2.1l-3.569-1.88l-1.3-3.699l1.359-0.601l-0.13-2.46l-0.54-1.74l-1.54,0.021l-3.42,3.17
		l-2.74-0.21l-3.68,4.939l-3.21-2.069l-2.811,9.62l-6.649-1.58l-6.55,3.989l-1.36-9.029l-2.67-0.86l-1.54-4.04l0.43-8.35l-3.09-0.75
		l-0.41-2.841l-2.149-1.76l0.52-1.26l-1.51-0.65l0.22-2.97l-4.319,0.2l-8.011,9.13l-1.729,0.15l-0.521-1.99l-4.43,0.14l-6.19,3.32
		l-4.579,8.64l1.489,4.141l-2.16,4.31l-1.119-6.01l-2.62,2.8l-1.36-0.58l-3.02-12.49l0.859-0.89l-1.649,0.04l2.02-0.97l-7.52-0.21
		l-0.011-1.21l-2.81-1.221l-3.51-0.279l-8.6,6.369l-0.65-4.119l-4.61-5.811l-1.84,0.26l0.02-7.239l-6.28,4.26l-1.45,4.52l-1.9,0.311
		l-1.75,3.08l-4.94,1.64l-7.15,0.91l2.61-4.3l-3.97,2.05l-0.74-4.68l-4.11-1.62l-2.02,1.01l-0.64,0.68l1.4,1.04l-0.95,4.261
		l1.65,3.479l-3.64,1.271l-3.24,6.8l-6.82-4.99l4.14-5.64l0.27-4.67L330,570.51l-1.82,1.29l-5.24-3.7l-0.93,1.631l-1.52-1.61l0,0
		l-2.21-3.89l0.44-6.32l0.95-1.271l1.69,0.3l2.02-2.569l-1.34-2.55l1.87-4.511l-4.49-5.229l2.76-4.91l-1.72-6.08l7.23-7.189l-0.08-3
		h-2.54l-0.66-3.36l-3.64-0.53l-0.34-5.78l2.3-6.26l-1.56-2.34l2.42-2.97l-1.82-5.92l-3.04-0.891l-1.74-2.43l-4.4-0.2l-2.58-2.12
		l-0.09-1.979l-7.91,0.09l-0.49-4.39l1.21-4.051l0,0l6.3-6.04l0.67-1.27l-1.85-4.57l2.42-1.22l1.53-3.81l8.94,0.439l1.71-2.06
		l1.9,1.79l1.82-1.9l0.4,1.05l1.3-0.649l-0.1,1.83l1.46,0.06l-1.24,5.58l7.79,3.649l0.38,2.301l5.95-0.601l6.73,1.84l4.12-1.22
		l0.08-3.3l1.7-0.98l-0.86-4.619l1.82-0.99l9.49-1.23l0.89,4.471l4.62-0.87l0.44,2.26l10.47-1.67l6.73-6.7l0.11-12.44L390.57,442.45
		z M617.15,467.48l-0.181-1.28l3.45,0.85l-0.52,1.811l-0.881-1.48L617.15,467.48z"/>
	<path id="BY-HM" fill="#1E3250" stroke="#1E3250" stroke-width="0.5" d="M326.4,306.17l-1.79-2.65l0,0l1.47-0.77l0,0L326.4,306.17z
		 M349.2,297.02l-0.77-1.82l1.26,0.74L349.2,297.02z M359.49,294.13l1.61,2l-1.38,1.04l0,0l-2.54-2.99L359.49,294.13z
		 M325.84,284.36l2.46,1.34l1.56-0.7l-0.35,1.3l1.41,0.88l6.58-1.68l-0.76,3.65l-4.13,2.09l1.37,4.66l-1,2.69l3.24,2.37l0.48-3.37
		l4.42,0.21l1.47,1.58l-2.21,1.69l-0.1,1.69l-2,0.42l-2.68-1.9l-0.68,2.9l-2.42,1.16l-1.11-2.47l1.21-0.84l-0.63-1.32l-3.68,1.42
		l-11.06-0.37l-2.68-1.79l-0.84-2.58l-1.68,1.37l-1.95-1.21l2.9-1.79v-4.95l3.58-5.05L325.84,284.36z"/>
	<path id="BY-HR" fill="#1E3250" stroke="#1E3250" stroke-width="0.5" d="M223.38,153.25l3.11,1.57l0.96,4.62l1.85,1.09l0,0
		l-0.26,0.95l6.31,5.81l-2.41,3.78l0.5,4.91l6.36-1.66l1.54,1.36l4.28,7.18l3.31,1.38l-0.41,5.58l2.43,6.9l1.82,2.04l1.37-1.27
		l1.68,1.12l2.74-0.67l-0.97,6.1l2.45,0.94l-0.31,1.28l-2.35-0.05l0.07,4.14l-3.67-1.5l1.05,1.18l-0.88,2.67l1.2,0.52l-0.41,1.37
		l1.31-0.2l0.75,3.74l-1.19,4.21l-1.27,0.61l1.92,1.08l-3.56,4.62l-2.6-0.11l-0.96,2.25l-1.17,0.09l0.5,2.29l-1.17-0.01l-2.69,6.18
		l0.28,2.35l-4.77,1.63l-5.88,10.02l-6.56-0.67l-1.79-2.72l-1.3,1.19l-1.28-1l-7.3,6.53l-2.24,0.15l-1.31-2.64l-3.91,6.8l0.39,1.38
		l6.32,3.51l0.45-1.27l-2.01-1.83l5.65-1.57l-1.82,5.23l3.23,9.57l2.5,0.93l8.74-4.23l0.55,5.88l-1.59,4.29l3.31-0.76l3.46-2.76
		l2.79,6.45l-2.14,2.73l-3.77,0.45l1.96,3.56l-4.15,1.48l-2.24,2.35l-1.03-1.27l-0.96,1.46l-2.77,0.19l1.92,4.46l-2.17,0.27
		l-0.14,1.81l1.23,1.22l1.46-0.89l1.22,1.46l-1.51,1.25l1.3,1.92l-0.94,0.94l3.57,7.34l4.39,1.27l-0.8,3.45l3.13,1.14l-0.13,1.49
		l3.04,2.67l3.16,5.98l4.44,2.189l-0.1,3.36l-3.49,2.6l1.29,0.99l1.4-1.36l0.5,1.471l1.09-0.33l0.29,8.479l1.76,4.12l-4.9,1.8
		l-7.34,0.21l-2.01,2.4l-2.12,0.26l0,0l-3.52,1.511l-1.29-2.381l-10.17-0.04l-1.95-1.02l-2.49,1.56l-0.65-2.27l-3.1,2.54l-2.06-1.96
		h-2.79l-0.01-1.3l-5.16-0.38l0.33-1.41l-2.81,0.27l-1.16,1.99l-2.69-0.94l-2.05,1.38l-7.09-1.84l-2.1,3.511l-1.07-0.21l0.52,3.38
		l-1.57,6.229l-3.05,0.51l1.01,2.03l-1.66,3.88l1.31,2.63l-1.4,0.011l-0.15,2.56l-1.69,1.5l2.85,2.73l-0.37,3.609h0.94l-1.14,3.38
		l-1.61,0.42l2.38,3.36l-1.51,1.79l0.31,1.59l-3.7,0.811l-1.7,2.649l-5.21,2.511l-1.89,2.89l0.24,4l-4.39,0.899l-4.16-0.699
		l2.32,4.12l-2.47,2.199l0.51,2.591l2.53-0.261l0.5,1.32l-2.19,2.729l-2.76-1.05l-0.96-4.71l-3.96,1.681l-1.37,3.699l-4.55-2.779
		l-1.9,2.6l-1.91-1.32l-1.79,2.311l-0.75-3.68l1-7.03l-1.25-0.43l-2.68,4.819l-2.97-3.229l1.21-1.44l-2.12-3.899l-2.46-0.4
		l-1.52,1.76l-4.29,0.391l-1.25-1.961l-2.04,2.261l-1.34-1.45l-2.5,1.11l-2.3-1l0.49-4.32l-1.52-0.17l-7,6.149l-0.31,1.5l2.87,2.19
		l-2.94,0.93l-2.62,4.101l1.46,1.51l-0.93,0.82l1.73-0.391l-2.77,6.88l1,4.82l-0.79-0.94l-3.13,1.721l-8.94,0.189l0.02-2.41
		l-1.12-0.279l-4.01,2.319l-3.85-2.029l-1.23,1.39l0.64-1.77l-0.93-0.511l-1.79,1.181l-0.71,2.42l-0.83-2.431l-0.12,0.931
		l-4.04-1.36l0.24-3.02l-2.95-1.601l-2.28,0.74l-0.11,1.43l-11.68,0.91l0,0l-1.67-18.979l2.2-2.561l-1.55-8.03l-3.91-6.89l3.35-9.36
		l-3.92-4.6l-0.64-4.51l-2.76-1.601l-11.67-34.119L29.77,312l-2.46-3.29l0.25-10.15l-2.09-1.45l-0.65-11.74l1.53,1.47l3.31,0.13
		l2.12,2.08l7.52-1.65l4.17,1.98l0.63,2.9l1.11,0.15l2.04-1.35l-1.23-3.16l3.32-2.49l3.71,1.37l1.43-3.05l3.55,2.08l0.48,3.03
		l1.46,0.18l8.14-1.6l0.98-2.24l2.08,0.39l4.4-2l0.68,2.53l1.59,0.63l1.5-0.99l4.51,5.92l1.25,0.33l1.15-1.36l0.79,1.4l4.64-0.71
		l0.46,0.99l-0.13-1.09l0.69,0.8l1.63-0.81l4.68-6.38l7.55-6.31l5.88-0.73l-0.91,6.63l3.62-0.43l2.34-3.34l3.38-0.21l1.91-1.54
		l-0.3-2.59l2.62-0.87l-2.18,0.1l-1.51-1.43l-0.17-3.25l-3.54-5.14l4.34-2.51l-0.92-1.76l3.87-0.14l6.53-3.13l2.62,3.65l5.91,1.04
		l9.53-10.8l1.37-4.9l0.85-0.52l1.36,1.44l1.22-2.69l2.59,1.46l3.7-0.3l4.13-2.31l0.98-1.99l3.33,0.96l2.36-2.56l1.21,0.52
		l0.19,2.89l3.27,1.3l1.96,5.8l-3.4-0.3l1.34,4.17l-3.46,1.44l-0.32,1.31l1.771,2.4l6.85,1.55l1.04,1.91l3.22-1.48l1.52-3.53
		l2.52,1.62l1.2-1.99l2.8,1.76l-1.65-3.23l0.21-2.46l-2.08-2.05l3.57-2.48l-2.13-0.47l-1.13-3.59l-3.57-0.95l0.56-2.49l-1.68-2.78
		l-5.01,1.28l-2.25-1.55l-2.68,0.99l-0.19-2.16l-1.1-0.19l4.16-5.42l0.09-3.38l0.96,0.65l1.83-3.15l-0.17-4.33l-1.65-0.35l2.43-1.34
		l3.24-8.28l5.88-5.26l-2.13-13.29l1.23-8.62l-0.98-6.771l1.17-2.83l1.83-0.26l0.44-4.02l5.18-5.2l0.49-3.91l5.17-1.03l3.94-2.72
		l5.99,2.05l-0.69-0.82l1.99-0.71l-0.21-1.86l2.27-0.29l0.84-2.1L223.38,153.25z M170.29,244.94l-1.05-0.26l2.08-1L170.29,244.94z"
		/>
	<path id="BY-MA" fill="#1E3250" stroke="#1E3250" stroke-width="0.5" d="M459.07,248.97l2.09-0.51l1.22,1.11l2.11-2.39l1.12,0.57
		l3.21-6.76l3.22,0.26l-0.85-2.77l0.909-1.72l3.62-1.36l-0.029,1.46l5.229,3.4l9.08-1.25l1.9-1.74l2.14,1.43l1.88-2.83l0.83,0.68
		l-1.26,1.78l1.979,2.02l-0.819,1.12l3.33,1.67l3.38-1.98l-1.16,3.63l2.71-0.01l0.89-0.47l-1.59-4.33l3.4,1.08l-0.011-1.16
		l1.94-0.65l-3.021-2.79l2.431,0.15l1.41,1.92l1.85-3.08l-1.85-2.01l0.529-1.65l2.88-0.54l-1.539,2.81l3.01-1.03l1.85,2.57
		l-0.1,2.14l1.66-0.11l1.13-4.15l2.43,1.88l2.88,0.24l1-5.17l1.96,1.03l-0.59,4.22l-2.83,2.47l-1.32,4.06l5.4,1.41l2.31-3.69
		l3.15,0.28l0.23-3.22l1.64,1.11l2.55,7.51l1.96-1.43l0.36,2.28l2.649,1.26l-0.829-2.71l2.789-0.04l-2.71-0.95l3.24-2.62l-1.24-0.63
		l1.48-3.27l2.37-1.65l-3.11-2.66l9.09-2.77l-0.479-3.98l2.01-0.65l2.54,1.61l2.64-0.02l0.471,2.28l2.81-0.87l3.12,1.02l1.9-0.95
		l0.83-4.43l1.829-1.45l1.44,2.89l4.61,0.43l1.29,3.27l3.09-4.38l5.649-2.66l-1.159-2.2l5.369,0.19l0,0l2.181,0.54l0.29,3.85
		l2.47,4.26l-1.3,2.9l3.569,1.57l1.57,3.44l-2.64,2.49l2.54,0.88l-0.36,8.39l3.32,0.96l1.31-1.47l0.54,3.22l1.95-0.24l-2.28,1.89
		l4.08,0.41l3.04,3.47l1.42-0.18l-0.33,2.57l4.49,1.18l0.72,1.81l4.66,0.48l2.061-1.1l1.59,4.75l7.319-1.18l-1.52,4.42l2.47,0.16
		l2.63-2.15l1.141,1.46l1.239-0.9l0.74,1.25l2.351-0.39l-1.13,1.69l0.609,4.15l-2.52,3.77l2.449,1.9l0.11,3.14l-2.729,1.89
		l-1.601,8.41l-2.34,0.86l1.47,1.37l-2.79,2.81l0.71,1.09l-2.43,0.25l1.11,1.4l-0.75,3.27l3.13-1.46l6.84,3.95l0.55-1.35l3.29,0.27
		l2.79-2.46l4.3,0.67l-0.279-0.9l2.89,0.34l3.22-1.9l3.721,3.21l2.329-0.77l1.37,3.96l4.29-1.13l-0.899,1.979l3.72-0.15l3.31,5.521
		l6.71-2.61l0.2,2.07l2.66,1.93l0.16,2.511l-3.39,2.239L683,320.9l-1.11,2.05l0.36,2.3l0.89,0.49l-0.05-2.48l1.4,1.73l-1.55,3.91
		l3.92,4.739l-0.49,2.23l5.75,2.64l-0.79,1.351l4.56,0.569l0.17,4.29l1.671,0.351l1.409-3.61l3,2.61l-1.96,0.529l-0.26,1.24
		l8.28,0.66l-1.47,2.09l1.079,2.95l-1.64,0.19l-0.06,1.489l2.6,2.38l-2.67-0.58l-1.08,2.61l1.94,4.68l-3.61,0.671l-1.271-1.211
		l-2.539,3.221l-2.58-3.15l0.199,3.021l-1.47,0.069l-1.11,2.87l-2.84-1.35l-1.46,1.04l-0.189-1.69l-2.66,0.48l1.89,2.41
		l-4.819,9.239l-2.65,2.721l-4.03,0.189l-1.91,4.88l-2.189,2.061l-4.36,0.08l-0.47,3.52l-3.75-1.06l-1.04,2.41l-5.66,1.409
		l-5.64-1.63l-0.13-1.12l-1.98,1.801l-4.149,0.239l-1.5-0.63l-0.311-2.56l-5.8-0.271l-2.41-3.67l-0.68-4.42l-3.17-2.57l-1.091,0.53
		l-7.539-4.38l-3.591,4.46l-13.08-2.38l1.011,4.43l-3.95,4.33l0.14,1.771l2.431,2.02l-0.65,1.561l-2.05,0.199l0,0h-1.5l-1.021-2.26
		l-5.68-0.12l-0.021-0.88l-2.069,0.76l-1.271-3.479l-6.439,0.58l-1.09-2.01l1.609-1.54l-0.149-2l-1.36-0.381l-0.61-2.01l-2.47,0.49
		l-0.11-2.9l-1.93-1.21l0.04-3.09l-1.979-0.609l-1.431,1.02l-1.16-1.83l2.07-1.979l0.54-2.66l-10.24,0.25l-1.529,0.51l0.319,1.38
		l-1.33,1.17l-5.13-0.72l-3.2,1.13l0.051,1.76l-3.051,0.36l-1.92-1.84l1.051-2.15l-6.99-1.359l0.64-1.421l-1.38-0.739l1.45-2.67
		l-1.23-0.681l-1.939,4.601l-2.67-0.271l-0.931,2.57l-1.8-0.3l-0.87,2.359l-3.41-1.06l-2.26,1.79l-0.21,2.01l-3.39-0.53l-4.84,2.051
		l-0.091-1.25l-2.04,2.659l-5.319,0.86l-5.891-11.19l-9.22-2.17l-1.03,3.33l-3.479-0.51l1.13-3.05l-1.43-1.061l-0.96,0.49
		l0.67,0.891l-2.141,0.899l-0.81-3.92l-7.07,5.36l0.061,5.09l1.439,1.729l-0.479,1.551l2.109,5.689l-3.55,1.28l2.09,1.05L485.86,385
		l1.51,1.6l-4.07,2.131l-3.16-0.261l-1.56-1.88l-1.33,1.78l0.99,2.439l-1.9,1.29l1.641,3.33l2.199-0.779l0.86,1.88l-3.07,3.87
		l2.511,3.58l4.029,1.75L483,407.43l0.66,1.4l-4.09,1.31l-2.95-2.149l-8.521-0.48L464.91,411l-3.521,1.58l-2.109-1.061l0.12-1.579
		l-1.311-0.171l-0.63,1.5l-13.21-5.13l-5.86,7.74l0.96,4.33l-11.489,1.63l0.409,3.021l-5.869,8.199l-1.641-0.29l-1.62,1.971
		l-3.479-1.13l-0.641,3.26l1.24,1.32l1.4-0.381l0.1,2.051l-3.89,0.029l-2.29,3.61l-2.63-1.35l-1.86,1.399l-3.49-1.33l-4.27,2.03
		l-4.98-0.02l-0.66-1.101l-2.1,2.03l-1.02-0.71l0,0l-1.19-2.42l-6.38-2.91l0.08-2.09l0.34-1.86l3.76-2.56l1.94-4.681l-2.35-5.29
		l3.47-0.92l1.07-2.64l-3.55-7.561l1.03-2.56l1.71,0.14l1.74-1.949l3.859,1.699l1.511-2.97l-2.23-2.56l-0.89-3.88l1.05-2.171
		l-1.17-3.84l1.17-1.26l-1.98-2.85l-1.15,0.55l1.26-2.101l-1.47-2.05l-5.96,1.63l-2.65-2.22l0.46,1.82l-2.45,0.76v-2.26l-2.6,0.72
		l2.67-3.61l-2.91-1.979l-1.86,3.01l-1.47-1.939l-1.38,0.14l-0.35,1.43l-1.44-1.569l-2.58,1.1l-0.48-2.43l-5.2-2l0.41-1.87
		l-1.69-1.17l-0.71-3.34l2.15,0.75l2.22-1.431l4.1,2.21l7.17,0.641l2.48-0.15l-0.01-1.93l7.74-0.851l-0.07-5.029l-2.31-2.761
		l-3.3-1.29l-0.25-1.369l0.71-2.83l1.49,0.29l1.69-1.95l0.03-6.51l-5.09-3.061l2.73-1.5l2.24,1.33l4.94-5.12l0.58,0.86l0.89-0.7
		v-1.91l1.92,2.851l0.77-1.311l3.07-0.26l0.14-1.351l-1.271,0.33l-0.85-1.25l0.57,1.801l-4.21-1.07l2.73-2.521l4.061,0.2l0.27-2.75
		l2.59,0.11l-0.04-4.28l6.641,4.09l4.95,0.2l-0.29-2.16l3.04-1.09l1.189,2.97l2.96,0.301l2.75,5.34l3.521,0.59l0.77,1.229
		l-1.22-5.609l1.53-0.351l-1.75-1.54l3.51-1.689l0.41,1.02l5.449,0.551l0.891-1.591l-1.95-4.29l0.59-1.399l1.67,0.84l0.87-1.34
		l-0.1-5.34l1.779,0.18l0.141,1.63l1.79-0.66l1.79,3.021l1.489-0.37l4.311-3.88l3.35-0.971l1.521-6.3l1.54-0.01l1.88,2.88
		l1.79-0.479l-0.3-3.551l2.43-0.939l-2.99-0.96l0.63-2.13l7.38-0.2l0.301-1.92l-2.74-1.63l-2.3,0.45l-0.7-2.51l-4.45,0.3l4.8-4.35
		l-2.59,1.51l-1.38-1.01l2.43-2.02l-2.029-0.83l1.93-4.03l-1.851-1.12l0.181-3.43l-1.95-1.58l1.39-1.6l-0.409-1.88l-2.421-2.39
		l4.881-3.85l2.63,0.04l-0.86-1.24l1.67-14.45l-1.05-1.11l2.6-4.34l-2.04-2.42h-2.38L459.07,248.97z"/>
	<path id="BY-MI" fill="#1E3250" stroke="#1E3250" stroke-width="0.5" d="M229.29,160.53l2.22-3.811l1.48,1.16l1.09-0.67l0.14-1.41
		l-1.45-0.23l0.99-1.6l10.62,4.94l1.45-1.35l4.42,2.84l3.33-3.12l-1.34-2.19l2.64,0.53l1.29-1.37l2.13,1.84l1.13-0.42l1.99,2.61
		l1.65-0.11l0.02-1.51l1.46-0.51l1.82,0.87l1.01-1.22l1.24,1.14l0.58-2.36l-2.05-1.59l1.37-2.25l1.54,0.15l0.82,2.25l1.95-2.84
		l2.02-0.42l4.47,4.46l0.51,2.76l3.53-1.75l4.37-0.03l0.35-1.44l-1.9-0.59l1.63-0.76l1.63,0.68l2.92-1.03l0.77,2.03l1.54-2.22
		l0.89,1.22l1.37-1.1l0.67,1.72l3.74-0.74l1.09,2.03l-1.02,2.3l4.09,3.11l-0.84,4.53l1.99,0.55l1.67,3.42l3.79,2.33l1.53-1.01
		l4.74,3.03l0.39,4.07l2.3-1.09l2.05,0.79l-1.45,5.3l7.29-0.31l4.87,3.1l0.04,8.57l3.06,2.71l-0.7,2.52l2.25,3.42l4.13-1.58
		l0.98,0.69l2.69-3.02l1.51,1.17l-0.81,1.96l2.5,1.45l3.21-0.42l2,3.42l2.08-0.81l0.46-3.08l3.96-2.21l1.65,1.15l3.23-2.19
		l-0.79-1.85l0.98-1.39l-0.24,0.92l4.34-2.08l5.29,3.81l0.76,4.15l0.21-2.76l0.63,2.24l1.48-0.8l0.58,2.53l1.84,0.67l3.51,5.05
		l1.49-0.02l1.78-3.09l1.96-10.56l8.74,0.09l0.69-1.41l1.699,1.44l1.791-0.36l3.489,6.01l-0.939,2.98l0.819,2.19l2.54,0.62
		l3.23-1.56l3.97,2.12l3.6-0.41l1.801-1.64l-1.19-2.85l2.67-1l8.28,4.02l1.27-4.35l5.141-2.93l4.279,1.45l3.94-1.35l-0.64,1.32
		l1.699,0.83l-1.439,1.43l1.15,4.29l2.18,1.02l3.15-0.11l2.05-2.11l1.81,1.45l2.69-3.271l-1.23,1.83l2.64,0.56l1.57-4.09l2.83-0.69
		l1.98,3.99l-2.32,1.89l0.26,3.04l-1.7,3.72l0.761,2.41l-3.631,4.72l1.391,0.57l1.31,3.47l-1.13,0.29l-0.18,2.82l1.81,2.39
		l-1.95,0.09l-1.449,2.09l-4.08-0.08l0.24,1.69l1.579,0.28l-0.67,1.58l1.48,2.64l2.649,0.72l-2.43,1.55l-0.03,3.37l-1.239,1.49
		l-0.851-1.44l0.221,2.04l-1.561,2.16l2.22,1.39l2.301-1.2l0,0l0.439,1.74h2.38l2.04,2.42l-2.6,4.34l1.05,1.11l-1.67,14.45
		l0.86,1.24l-2.631-0.04l-4.89,3.85l2.42,2.38l0.41,1.88l-1.4,1.6l1.96,1.58l-0.18,3.43l1.85,1.13l-1.93,4.03l2.03,0.84l-2.44,2.01
		l1.381,1.01l2.59-1.51l-4.801,4.36l4.45-0.3l0.7,2.51l2.3-0.45l2.74,1.62l-0.29,1.92l-7.38,0.2l-0.63,2.13l2.99,0.96l-2.42,0.95
		l0.3,3.55l-1.79,0.47l-1.88-2.88l-1.53,0.01l-1.53,6.3l-3.34,0.971l-4.31,3.88l-1.48,0.37l-1.79-3.021l-1.79,0.66l-0.13-1.63
		l-1.78-0.19l0.101,5.351l-0.87,1.34l-1.67-0.84l-0.59,1.399l1.949,4.28l-0.89,1.59l-5.46-0.55l-0.41-1.02l-3.51,1.689l1.74,1.54
		l-1.521,0.35l1.22,5.62l-0.77-1.229l-3.521-0.601l-2.75-5.34l-2.96-0.3l-1.189-2.97l-3.03,1.09l0.29,2.16l-4.95-0.2l-6.649-4.1
		l0.04,4.279l-2.58-0.109l-0.271,2.75l-4.06-0.2l-2.72,2.52l4.21,1.07l-0.57-1.8l0.85,1.25l1.261-0.33l-0.141,1.35l-3.06,0.261
		l-0.77,1.31l-1.93-2.85l0.01,1.909l-0.89,0.71l-0.58-0.869l-4.93,5.13l-2.24-1.34l-2.72,1.5l5.09,3.069l-0.03,6.5l-1.69,1.95
		l-1.49-0.28l-0.71,2.83l0.25,1.37l3.29,1.28l2.31,2.76l0.07,5.03l-7.74,0.85l0.01,1.931l-2.48,0.149l-7.17-0.64l-4.1-2.2
		l-2.22,1.43l-2.15-0.75l0.71,3.34l1.69,1.171l-0.41,1.869l5.2,2.011l0.48,2.42l2.58-1.09l1.44,1.569l0.35-1.439l1.38-0.141
		l1.47,1.94l1.85-3.01l2.92,1.979l-2.8,3.58l2.6-0.72v2.26l2.45-0.76l-0.46-1.82l2.65,2.22l5.97-1.63l1.47,2.05l-1.26,2.101
		l1.15-0.55l1.98,2.85l-1.17,1.26l1.17,3.84l-1.05,2.171l0.89,3.88l2.23,2.56l-1.51,2.97l-3.86-1.699l-1.74,1.939l-1.71-0.13
		l-1.03,2.56l3.54,7.561l-1.07,2.64l-3.46,0.931l2.35,5.29l-1.94,4.68l-3.77,2.56l-0.34,1.86l-0.07,2.09l6.38,2.91l1.19,2.42l0,0
		l-2.29,4.21l-0.11,12.44l-6.73,6.71l-10.47,1.67l-0.44-2.26l-4.61,0.869l-0.89-4.46l-9.49,1.23l-1.82,0.99l0.86,4.62l-1.7,0.979
		l-0.08,3.3l-4.12,1.221l-6.73-1.841l-5.95,0.601l-0.38-2.3l-7.79-3.65l1.24-5.58l-1.45-0.06l0.1-1.83l-1.3,0.649l-0.4-1.05
		l-1.82,1.9l-1.9-1.79l-1.71,2.06l-8.93-0.439l-1.53,3.81l-2.42,1.22l1.85,4.57l-0.67,1.271l-6.3,6.04l0,0l-3.42-0.94l-0.12-2.4
		l-4.64,0.091l-0.33-4.12l-2.03,0.189l-0.75-4.439l-4.87-0.21l-0.18-8.4l-1.2-0.11l-0.27-3.37l-2.21-1.14l-0.1-2.439l2.08-0.021
		l-0.8-6.78l3.04-0.939l-0.85-3.601l-1.97-0.92l0.66-3.189l-1.68-4.391l-3.96,5.44l-5.38-2.68l-1.4-2.07l-5.06,0.69l-2.71-3.53
		l-0.82-6.48l-3.06,0.23l0.41,1.14l-2.03-0.54l-1.74-2.729l-2.84,0.229l-2.86-3.479l-2.26,6.13l-2.27,1.2l-0.92-3.46l-4.83,7.01
		l-0.11-1.351l-4.07-2.34l-0.25-3.67l5.41-5.43l-3.7-4.68l-1.26-5.551l2.16-1.51l2.86,0.29l-0.4-4.81l1.2-1.75l4.12,0.609l-1.2-4.3
		l-2.08-0.15l-0.87-3.85l-4.58,0.07l-2.22-1.511l-1.45-3.3l-1.64,0.311l-1-2.971l-2.84-1.04l-0.8-2.779l2.81-0.74l-0.46-1.45
		l2.83-1.67l0.13-2.28l3.08-0.109l1.09-7.26l-1.41-0.23l-1.57-5.34l0,0l2.12-0.26l2.01-2.4l7.34-0.21l4.9-1.8l-1.76-4.12l-0.29-8.48
		l-1.08,0.33l-0.5-1.47l-1.4,1.36L245,340.68l3.43-2.66l0.1-3.359l-4.44-2.19l-3.16-5.979l-3.03-2.67l0.13-1.49l-3.13-1.14l0.8-3.44
		l-4.39-1.27l-3.57-7.33l0.94-0.931l-1.3-1.92l1.51-1.25l-1.22-1.46l-1.45,0.89l-1.229-1.22l0.14-1.81l2.17-0.27l-1.92-4.46
		l2.77-0.19l0.96-1.46l1.03,1.27l2.25-2.35l4.15-1.47l-1.96-3.56l3.77-0.45l2.14-2.73l-2.79-6.45l-3.46,2.76l-3.31,0.76l1.59-4.29
		l-0.55-5.88l-8.729,4.23l-2.5-0.93l-3.23-9.56l1.82-5.23l-5.65,1.57l2.01,1.84l-0.45,1.27l-6.32-3.51l-0.39-1.38l3.91-6.8
		l1.31,2.64l2.24-0.15l7.3-6.52l1.29,1l1.3-1.18l1.79,2.72l6.56,0.67l5.89-10.02l4.77-1.63l-0.28-2.35l2.7-6.18l1.17,0.01
		l-0.49-2.29l1.17-0.09l0.96-2.25l2.6,0.11l3.56-4.62l-1.92-1.08l1.27-0.61l1.19-4.21l-0.75-3.74l-1.31,0.2l0.41-1.37l-1.2-0.521
		l0.88-2.67l-1.05-1.18l3.67,1.5l-0.07-4.14l2.36,0.05l0.31-1.28l-2.45-0.94l0.98-6.1l-2.74,0.68l-1.68-1.12l-1.37,1.27l-1.82-2.04
		l-2.43-6.89l0.41-5.58l-3.31-1.38l-4.28-7.18l-1.54-1.35l-6.36,1.66l-0.49-4.91l2.41-3.78l-6.31-5.81L229.29,160.53z
		 M325.84,284.36l2.46,1.34l1.56-0.7l-0.35,1.3l1.41,0.88l6.58-1.68l-0.76,3.65l-4.13,2.09l1.37,4.66l-1,2.69l3.24,2.37l0.48-3.37
		l4.42,0.21l1.47,1.58l-2.21,1.69l-0.1,1.69l-2,0.42l-2.68-1.9l-0.68,2.9l-2.42,1.16l-1.11-2.47l1.21-0.84l-0.63-1.32l-3.68,1.42
		l-11.06-0.37l-2.68-1.79l-0.84-2.58l-1.68,1.37l-1.95-1.21l2.9-1.79v-4.95l3.58-5.05L325.84,284.36z M359.49,294.13l1.61,2
		l-1.38,1.04l0,0l-2.42-3.32L359.49,294.13z M349.2,297.02l-0.77-1.82l1.26,0.74L349.2,297.02z M326.03,306.4l-1.42-2.88l0,0
		l1.47-0.77l0,0L326.03,306.4z"/>
	<path id="BY-VI" fill="#1E3250" stroke="#1E3250" stroke-width="0.5" d="M366.75,0.11l0.8,3.7l2.97,0.7l3.39,3.32l0.05,3.46
		l2.6-0.7l2.62,4.17l4.72-0.09l0.7-2.72l-1.05-2.11l0.97-1.72l2.8,1.61l-0.3,1.27l3.41-2.35l4.53,0.07l1.55-1.22l5.021,2.1
		l4.55-0.41l-3.01,3.8l1.569,3.69l3.051,2.59l0.34,3.75l2.479,3.91l4.87-0.58l3.021,2.3l1.02-4.26l4.92-1.54l1.38,0.73l-0.01-2.22
		l4.53-0.21l0.63-1.84l5.41-1.02l1.819,2.38l1.65-1.58l1.69,0.21l4.54,5.1l2.819-1.14l3.59,0.54l3.79,2.72l4.86,0.36l2.12,1.71
		l-1.97,1.89l2.52,0.71l1.47,2.32l-6.21,2.35l2.28,3.68l-1.52,0.01l-1.08,1.96l0.18,4.51l-2.05,2.81l-0.45,4.77l6.99,4.41
		l2.279,3.21l2.49,0.43l4.54-4.06l0.62-3.23l2.4-2.67l1.189,0.51l2.9-2.07l5.479-1.42l1.07,2.81l2.79,0.02l5.51-7.83l-0.729-1.28
		l2.02-1.55l3.93,1.36l1.79-0.771l0.021-1.54l1.81-0.13l8.061,5.08l2-0.04l0.76-2.39l1.83-0.05L516,38.67l0.98,2.17l7.319-0.79
		l0.681,4.86l3.75-0.45l2.09,3.12l8.81-0.31l2.311,2.66l-1.641,1.46l2.48,4.15l3.93,0.13l3.56,2.86l1.521,3.65l-0.65,3.34l2.21,0.19
		l-1.08,1.86l1.271,0.09l-0.22,2.74l1.16,0.12l0.739-2.77l2.5-0.42l2.601,9.12l3.26-0.02l-0.04-1.25l1.42-0.13l1.771-2.51
		l-1.04-1.25l2.079-0.24l3.29,2.4l1.44-1.31l1.76,10.49l-3.12,2.16l3.46,3.61l-4.659,2.8l2.8,10.17l-1,2.88l-1.62,0.35l-5.4,6.07
		l-0.39,6.11l4.61,1.16l0.02,1.76l1.67,0.7l1.2,6.29l2.77,1.21l0.801,2.85l1.199,0.22l-0.93,3.061l1.76,0.35l-1.06,6.62l1.18,7.86
		l-0.79,0.67l-3.74-1.63l-2.159,2.25l4.18,5.13l-2.021,0.63l0.141,2.11l-2.58,0.05l0.01,1.47l-3.51-0.25l-2.64,1.31l1.05,4.12
		l-1.521,1.99l0.61,1.45l-1.82,0.44l-3.46,8.96l6.67,2.7l3.13,3.41l5.12,2.83l1.7,3.01l1.521-1.2l-0.4,6.57l7.41,1.35l1.72-1.47
		l1.24,1l3.72-0.35l1.84,5.21l-4.85,6.19l-0.67,4.32l-2.851,1.46l-0.649,3.05l5.59,4.15l2.87-0.51l0.189,1.24l0,0l-5.369-0.19
		l1.159,2.2l-5.649,2.66l-3.09,4.38l-1.29-3.27l-4.61-0.43l-1.44-2.89l-1.829,1.45l-0.83,4.43l-1.9,0.95l-3.12-1.02l-2.81,0.87
		l-0.471-2.28l-2.64,0.02l-2.54-1.61l-2.01,0.65l0.479,3.98l-9.09,2.77l3.11,2.66l-2.37,1.65l-1.48,3.27l1.24,0.63l-3.24,2.62
		l2.71,0.95l-2.789,0.04l0.829,2.71l-2.649-1.26l-0.36-2.28l-1.96,1.43l-2.55-7.51l-1.64-1.11l-0.23,3.22l-3.15-0.28l-2.31,3.69
		l-5.4-1.41l1.32-4.06l2.83-2.47l0.59-4.22l-1.96-1.03l-1,5.17l-2.88-0.24l-2.43-1.88l-1.13,4.15l-1.66,0.11l0.1-2.14l-1.85-2.57
		l-3.01,1.03l1.539-2.81l-2.88,0.54l-0.529,1.65l1.85,2.01l-1.85,3.08l-1.41-1.92l-2.431-0.15l3.021,2.79l-1.94,0.65l0.011,1.16
		l-3.4-1.08l1.59,4.33l-0.89,0.47l-2.71,0.01l1.16-3.63l-3.38,1.98l-3.33-1.67l0.819-1.12l-1.979-2.02l1.26-1.78l-0.83-0.68
		l-1.88,2.83l-2.14-1.43l-1.9,1.74l-9.08,1.25l-5.229-3.4l0.029-1.46l-3.62,1.36l-0.909,1.72l0.85,2.77l-3.22-0.26l-3.21,6.76
		l-1.12-0.57l-2.11,2.39l-1.22-1.11l-2.09,0.51l0,0l-2.301,1.2l-2.22-1.39l1.561-2.16l-0.221-2.04l0.851,1.44l1.24-1.49l0.029-3.37
		l2.431-1.56l-2.66-0.71l-1.48-2.65l0.67-1.58l-1.58-0.27l-0.239-1.7l4.08,0.08l1.46-2.09l1.949-0.09l-1.81-2.39l0.18-2.82
		l1.13-0.29l-1.31-3.48l-1.39-0.57l3.619-4.71l-0.76-2.41l1.7-3.73l-0.26-3.03l2.319-1.9l-1.979-3.99l-2.83,0.69l-1.56,4.09
		l-2.641-0.56l1.22-1.83l-2.689,3.27l-1.811-1.45l-2.05,2.11l-3.14,0.11l-2.18-1.01l-1.15-4.29l1.44-1.42l-1.7-0.83l0.64-1.32
		l-3.939,1.35l-4.28-1.46l-5.141,2.93L431,206l-8.27-4.02l-2.671,1.01l1.19,2.85l-1.8,1.64l-3.601,0.4l-3.97-2.12l-3.229,1.56
		l-2.54-0.62l-0.82-2.19l0.95-2.97l-3.49-6.01l-1.79,0.35l-1.7-1.44l-0.689,1.42l-8.73-0.09l-1.96,10.56l-1.78,3.09l-1.5,0.02
		l-3.5-5.04l-1.84-0.67l-0.58-2.54l-1.47,0.81l-0.63-2.24l-0.22,2.76l-0.76-4.15l-5.28-3.81l-4.34,2.08l0.23-0.92l-0.97,1.39
		l0.79,1.84l-3.24,2.19l-1.64-1.14l-3.96,2.21l-0.46,3.08l-2.07,0.81l-2.01-3.42l-3.21,0.42l-2.49-1.45l0.81-1.96l-1.51-1.17
		l-2.69,3.02l-0.98-0.69l-4.12,1.58L336.2,199l0.71-2.52l-3.06-2.71l-0.05-8.57l-4.86-3.1l-7.29,0.3l1.45-5.3l-2.04-0.79l-2.3,1.08
		l-0.4-4.06l-4.74-3.04l-1.52,1.02l-3.79-2.33l-1.67-3.42l-1.99-0.55l0.84-4.53l-4.09-3.1l1.02-2.3l-1.1-2.03l-3.74,0.74l-0.66-1.72
		l-1.37,1.11l-0.89-1.22l-1.53,2.22l-0.77-2.03l-2.92,1.03l-1.64-0.68l-1.63,0.75l1.91,0.59l-0.35,1.44l-4.37,0.03l-3.53,1.74
		l-0.51-2.76l-4.47-4.45l-2.02,0.42l-1.95,2.84l-0.82-2.25l-1.54-0.15l-1.38,2.25l2.06,1.59l-0.58,2.36l-1.24-1.14l-1.01,1.22
		l-1.83-0.88l-1.46,0.52l-0.02,1.51l-1.65,0.12l-1.99-2.61l-1.13,0.43l-2.13-1.84l-1.3,1.37l-2.64-0.52l1.34,2.19l-3.32,3.12
		l-4.42-2.84l-1.45,1.35l-10.62-4.94l-0.98,1.61l1.45,0.23l-0.14,1.41l-1.09,0.67l-1.48-1.16l-2.22,3.811l0,0l-1.84-1.09l-0.96-4.62
		l-3.11-1.57l0,0l2.85-9.01l2.01-1.271l-2.9-4.08l9.37-5.39l3.08,2.13l1.13-0.94l3.53,1.45l3.97-3.94l1.93,2.13l9.84-1.8l0.31-1.48
		l1.84-0.46l-2.01-3.35l2.07-0.24l1.85-1.98l0.1-3.7l7.49-4.63l-0.23-3.42l-2.9-1.83l-5.21-0.14l-4.01-2.24l-2.42,2.29l-0.29-1.68
		l-1.61,2.02l-1.7-0.91l-1.54,0.89l-8.85-3.74l2.01-1.01l0.4-1.76l5.76-2.46l-0.93-6.86l1.22,0.15l-1.05-1.5l1.72-2.521l-2.92-4.78
		l6.29-7.35l2.38-1.11l-0.73-4.74l1.29-2.18l-1.56-6.88l1.23-3.11l5.24,0.44l1.96,2.49l2.9,0.6l1.27-2.59l5.24-2.19l3.86-9.89
		l1.77,0.19l4.92-5.36l6.08,0.28l0.63-2.26l3.58-1.1l9.44,8.68l4.89-1.82l1.31-1.96l4.88,2.64l13.61,0.86l1.77-7.9l-1.13-5.78
		l2.12-2.76v-2.05l6.21-5.71l4.54-1.32l1.1-2.28l-0.99-1.25l2.31-1.9l-1.66-1.7l4.69-2.23l2.13,0.87l5.38-9.77l1.47-0.74l3.46,1.06
		l1.96-2.73l1.72,0.43l0.25-1.83L366.75,0.11z"/>
</g>
</svg>
