<?xml version="1.0" encoding="utf-8"?>
<!-- Generator: Adobe Illustrator 15.0.0, SVG Export Plug-In . SVG Version: 6.00 Build 0)  -->
<!DOCTYPE svg PUBLIC "-//W3C//DTD SVG 1.1//EN" "http://www.w3.org/Graphics/SVG/1.1/DTD/svg11.dtd">
<svg version="1.1" id="Layer_1" xmlns:amcharts="http://amcharts.com/ammap"
	 xmlns="http://www.w3.org/2000/svg" xmlns:xlink="http://www.w3.org/1999/xlink" x="0px" y="0px" width="775.346px"
	 height="629.344px" viewBox="0 0 775.346 629.344" enable-background="new 0 0 775.346 629.344" xml:space="preserve">
<defs>
	
	
		<amcharts:ammap  projection="mercator" leftLongitude="2.543698" topLatitude="51.499939" bottomLatitude="49.497691" rightLongitude="6.408540">
		</amcharts:ammap>
</defs>
<g>
	<path id="BE-VAN" fill="#1E3250" stroke="#1E3250" stroke-width="0.5" d="M435.75,1.31l11.07,5.98l1.3,18.09l-14.38,2.36
		l22.27-0.87l6.24,7.37l21.16-28.48l9.67,4.64l5.1,12.2l-6.34,11.98l12.24,24.36l20.56,3.44l-0.62,13.46l0,0l-4.489,12.64l9.3,21.54
		l-48.55,23.15l-6.09,12.47l0,0l-31.921,7.25l-5.06-8.57l-18.38,12.34l-2.57-8.05l-19.609,10.45l-36.53-1.36l-2.88-10.76
		l-27.31-2.13l0,0l-9.63-1.02l-3.05-18.77l27.04-7.7l3.35-9.06l-8.19-30.53l6.24-9.27l-16.4-21.42l0,0l-4.08-6.56l41.88,3.11
		L356.72,18l18.44-9.75l12.66-1.28l-0.49,18.24l20.25,0.12L435.75,1.31z"/>
	<path id="BE-WBR" fill="#1E3250" stroke="#1E3250" stroke-width="0.5" d="M302.66,246.58l10.68-7.3l17.99,12.66L348.45,238
		l7.43,5.42l23.46-12.01l6.19,8.52l13.71-11.1l7.569,6.53l1.631-17.33l22.899-2.3l32.09,19.48l11.051-8.25l7.3,6.07l0,0l-7.12,33.2
		l0,0l-37.51,16.08l-24.7-4.95l0.97,12.28l-13.26-0.88l-4.44,8.43l0,0l-21.63,4.02l0.6-9.31l-11.24-1.98l-15.54,6.47l-29.36-36.13
		l-14.68,9L302.66,246.58z"/>
	<path id="BE-BRU" fill="#1E3250" stroke="#1E3250" stroke-width="0.5" d="M366.21,187.61l0.78,0.58l0,0l11.51,32.02l-20.5,8.4
		l-27.04-16.51l10.29-19.82l15.68-4.64l0,0l0,0l0,0l8.66-1.42l0,0L366.21,187.61z"/>
	<path id="BE-WHT" fill="#1E3250" stroke="#1E3250" stroke-width="0.5" d="M178.07,227.85l33.19,14.35l9.22-15.76l15.85-2.7
		l3.21,10.27l23.56,4.72l0,0l3.11,12.74l36.45-4.9l0,0l1.21,22.68l14.69-8.99l29.35,36.13l15.54-6.47l11.24,1.99l-0.6,9.31
		l21.63-4.03l0,0l-1.36,30.58l8.91,5.12l-4.55,29.48l-37.02,4.68l-22.45,16.94l21.96,7.04l-7.37,19.33l13.67,68.37l0,0l-56.49-11.19
		l3.52-20.771l13.64-6.38l-5.88-19.26l-13.97-0.21l15.56-42.01l-8.99-5.19l-4.8,9.471l-22-30.681l-23.85,9.73l-30.07-7.36
		l-7.7,14.01l-9.69-19.6l0.31-26.39l-10.13-12.011l-21.01,2.681l3.54-11.07l-8.58-2.93l-19.2,12.81l-16.44-10.13l-10.15-40.79
		l4.16-13.35l-16.17-16.73l0,0l25,0.18l10.5,14.04L178.07,227.85z M61.92,246.39l-4.07-13.33l23.17-7.24l-4.61-6.08l12.39-5.19
		l3.62,11.51l0,0l-15.46,8.86l-5.82,15.75L61.92,246.39z"/>
	<path id="BE-WLG" fill="#1E3250" stroke="#1E3250" stroke-width="0.5" d="M612.63,214.16l-2.02,16.45l0,0l38.939,14.96l1.891-14.2
		l0,0l24.96,0.1l3.81,11.22l15.021-1.08L706.98,271l17.819-0.03L707.19,296.7l9.26,14.28l24.2,2.01l4.979,16.09l-6.85,17.14
		l12.84,13.62l-8.99,9.48l-10.5-4.53l-5.29,15.67l-20.13,9.62l2.82,15.91l-8.7,2.21l-1.26,13.84l-5.061-11.021l-10.21,3.961
		l-7.08-9.141l0,0l-8.819-44.57l-22.7-5.199l-3.38,20.17l6.979,0.46L635,384.31l-16.28-2.149l-0.41-29.13l-36.02-10.5l-4.79-9.891
		l-8.54,5.36l-9.24-6.76l-5.229,15.43l0,0l-18.67,4.32l-12.16-11.71l-7.26-23.12l-6.811,3.17l-4.26-13.42l-20.6-6.25l-10.07-33.43
		l0,0l7.12-33.2l0,0l15.68,12.63l0,0l12.62,4.07l1.79-8.73l25.27,2.36l16.051-9.62l5.989,8.88l11.44-1.47l40.92-27.02l0,0
		L612.63,214.16z"/>
	<path id="BE-VLI" fill="#1E3250" stroke="#1E3250" stroke-width="0.5" d="M630.3,227.39l21.141,3.99l0,0l-1.891,14.19
		l-38.939-14.96l0,0L630.3,227.39z M581.9,70.45l5.1,17.2l56.92,24.11l-26.01,56.17l7.12,3.79l-21.88,24.15l8.399,18.25l0,0
		l-40.93,27.02l-11.44,1.47l-5.989-8.89l-16.051,9.62L511.87,241l-1.79,8.73l-12.63-4.07l0,0L514,186.04l-18.38-1.66l-9.43-10.31
		l14.34-24.04l8.05-1.11l-7.84-7.9l-11.65,10.83l-14.899-6.2l0,0l6.09-12.47l48.55-23.15l-9.3-21.54l4.489-12.64l0,0l34.94-0.56
		l13.34-11.82L581.9,70.45z"/>
	<path id="BE-WLX" fill="#1E3250" stroke="#1E3250" stroke-width="0.5" d="M554.49,346.67l5.229-15.43l9.24,6.76l8.54-5.36
		l4.79,9.891l36.02,10.5l0.41,29.13L635,384.31l14.3-7.609l-6.979-0.46l3.38-20.17l22.7,5.199l8.819,44.57l0,0l-24.79,21.55
		l-15.17,30.04l3.391,9.59l-11.891,6.07l-7.859,18.59l9.479,6.141l-8.49,12.88l2.69,13.59l6.59-1.29l7.34,21.86l11.45,4.05l-4,9.74
		l8.83,3.81l-13.5,33.13l-37.18,0.42l-7.471,13.181l-10.659-6.78L569.66,612l-8.4-29.33l-15.66-10.45l-6.81,5.9l3.41-12.82
		l-10.8-11.54l-21.36-0.24L496,532.67l-24.42-11.66l0,0l4.03-15.479l25.46-20.9l-28.53-31.91l13.42-7.399l4.65-20.95l2,9.01
		l37.62-6.14l-5.211-6.141l7.511-7.779l-14.32-17.181l36.34-21.84l-1.069-8.42l-8.95,0.4l10.06-6.471L554.49,346.67z"/>
	<path id="BE-WNA" fill="#1E3250" stroke="#1E3250" stroke-width="0.5" d="M395.72,297.19l4.44-8.43l13.26,0.88l-0.97-12.28
		l24.7,4.95l37.51-16.08l0,0l10.07,33.43l20.6,6.25l4.26,13.42l6.811-3.17l7.26,23.12l12.16,11.71l18.67-4.32l0,0l0.1,13.14
		l-10.06,6.471l8.95-0.4l1.069,8.42l-36.34,21.84l14.32,17.181l-7.511,7.779l5.211,6.141l-37.62,6.14l-2-9.01l-4.65,20.95
		l-13.42,7.399l28.53,31.91l-25.46,20.9l-4.03,15.479l0,0l-22.83,2.53l-0.86-22.14l8-12.881l-19.199-17.85l10.029-20.91l-4.1-8.13
		l14.82-21.68l-13.521-9.601l-25.89,25.21l-0.17,26.94l-50.351,16.22l0,0l-13.67-68.37l7.37-19.33l-21.96-7.039l22.45-16.94
		l37.02-4.68l4.55-29.48l-8.91-5.11L395.72,297.19z"/>
	<path id="BE-VOV" fill="#1E3250" stroke="#1E3250" stroke-width="0.5" d="M329.29,47.05l16.4,21.42l-6.25,9.271l8.19,30.53
		l-3.34,9.06l-27.04,7.7l3.05,18.77l9.63,1.02l0,0l-1.42,10.98l-17.12,10.26l3.58,11.09l-13.2-0.13l-10.43,28.97l4.08,15.02
		l-21.98,4.26l0.55,13.46h-10.9l0,0l-23.55-4.72l-3.21-10.27l-15.86,2.7l-9.22,15.76l-33.18-14.35l0,0l12.06-11.76l-13.4-19.07
		l5.05-9.2l-12.14-2.21l8.68-11.85l-9.06-4.28l6.3-27.87l-22.35-15.93l15.42-19.02l-9.86-9.68l4.14-25.63l0,0l9.15,9.27l19.2-0.37
		L189,67.48l14.73-5.87L240,74.86l2.65,15.03l18.71-2.67l-0.09,7.03l33.86-13.53L329.29,47.05z"/>
	<path id="BE-VBR" fill="#1E3250" stroke="#1E3250" stroke-width="0.5" d="M474.19,145.65l14.899,6.2l11.65-10.83l7.84,7.9
		l-8.05,1.11l-14.34,24.04l9.43,10.31l18.38,1.66l-16.55,59.62l0,0l-15.681-12.63l0,0l-7.289-6.07l-11.051,8.25l-32.1-19.48
		l-22.9,2.3l-1.63,17.33l-7.569-6.53l-13.71,11.1l-6.19-8.52l-23.46,12.02l-7.43-5.42l-17.12,13.94l-17.99-12.65l-10.68,7.29l0,0
		l-36.45,4.9l-3.11-12.74l0,0h10.89l-0.54-13.46l21.98-4.26l-4.08-15.01l10.43-28.97l13.21,0.12l-3.58-11.09l17.12-10.26l1.42-10.98
		l0,0l27.31,2.13l2.88,10.76l36.53,1.36l19.61-10.45l2.569,8.05l18.38-12.34l5.061,8.57L474.19,145.65z M365.59,186.22
		L365.59,186.22l-20.99,2.95l-13.52,23.29L358,228.61l20.5-8.41l-11.52-32.01L365.59,186.22z"/>
	<path id="BE-VWV" fill="#1E3250" stroke="#1E3250" stroke-width="0.5" d="M160.4,42.39l2.51,28.96l0,0l-4.14,25.63l9.86,9.68
		l-15.42,19.02l22.35,15.93l-6.3,27.87l9.06,4.28l-8.68,11.85l12.14,2.21l-5.05,9.2l13.4,19.07l-12.06,11.76l0,0l-19.44,17.75
		l-10.5-14.04l-25-0.19l0,0l-5.29-10.39l-25.42,5.09l0,0l-3.62-11.51l-12.39,5.19l4.61,6.07l-23.17,7.24l4.07,13.33l0,0l-14.18-5.94
		l-12.9-25.71L17.8,214.1l-6.95-11.43l-1.8-21.55l8.09-8.53L0,128.86l124.26-75.04l0.51-10.16l2.35,10.63l0.06-10.88l5.8,7.21
		L160.4,42.39z"/>
</g>
</svg>
