<?xml version="1.0" encoding="utf-8"?>
<!-- Generator: Adobe Illustrator 15.0.0, SVG Export Plug-In . SVG Version: 6.00 Build 0)  -->
<!DOCTYPE svg PUBLIC "-//W3C//DTD SVG 1.1//EN" "http://www.w3.org/Graphics/SVG/1.1/DTD/svg11.dtd">
<svg version="1.1" id="Layer_1" xmlns:amcharts="http://amcharts.com/ammap"
	 xmlns="http://www.w3.org/2000/svg" xmlns:xlink="http://www.w3.org/1999/xlink" x="0px" y="0px" width="638.5px" height="614.5px"
	 viewBox="0 0 638.5 614.5" enable-background="new 0 0 638.5 614.5" xml:space="preserve">
<defs>
	
	
		<amcharts:ammap  projection="mercator" leftLongitude="15.714400" topLatitude="45.275910" bottomLatitude="42.560878" rightLongitude="19.625600">
		</amcharts:ammap>
</defs>
<g>
	<path id="BA-BIH" fill="#1E3250" stroke="#1E3250" stroke-width="0.5" d="M456.33,42.79l-3.55,4.02l7.859,1.52l-0.25-5.85
		l3.19-2.19l1.8,3.47l-2.91,3.2l10.58,9.95l-1.27,4.85l10.3,0.22l-1.311,6.12l-3.25,0.41l0,0l-8.859,3.28l0,0l-4.271-1.64l0,0
		l-21.659-12.8l0,0l-8.69-10.31l5.59,0.46l1.38,3.55l2.69-6.38l-2.5-4.22l6.18,5.79l-0.31-6.14l5.93,2.92l3.16-3.18L456.33,42.79z
		 M402.09,35.61l3.44-0.38l2.85,3.12l14.8-1.77l7.79,9.64l0,0l-8.279,4.25l0.329,4.271l-5.25-2.3l-1.31,3.28l-4.92-1.31l0,0
		l-2.95,5.25L404,60.64l1.31-5.58l-12.14-7.22l0,0l-4.3-4.48l0,0l3.45-3.98l-1.88-3.93l2.41-3.6l6.2-1.66L402.09,35.61z M33.1,10.41
		l1.33,5.38l5.76-4.34l7.1,3.5l1.13,3.78l-2.1,3.5l4.85,0.38l6.48,16.36l10.31,4.88L79.2,54.67l1.27,4.24l5.65-0.28l0,0l1.05,3.49
		l-16.08,3.61l10.83,25.6l5.58-1.31l5.91,9.52l4.27,0.98l7.88-11.49l13.46,5.25l9.19-1.97l3.94,2.3l3.94-1.97l4.59,8.21l12.14-0.98
		l5.58,3.28l7.55,17.72l-1.97,8.2l8.53,3.94v9.19l5.25,6.56l-2.3,6.89l3.28,3.61l-1.31,3.94l-7.22,4.27l-48.57-3.939l-12.14,3.28
		l-0.33,6.24l3.45,8.06l13.88,10.48l6.24,9.52l9.19,6.24l10.17,2.63l12.14,12.14l8.86,5.25l4.59-0.33l2.63,2.63l-1.97,2.3l6.24,8.2
		l17.07,13.13l5.25,9.52l10.17,4.92l16.41-1.31l9.06-9.85l-0.66-20.68l-5.25-5.25l-5.25-19.36l-5.25-4.92v-4.92l6.56-5.25
		l-1.64-12.14l1.97-2.3l9.52,3.61l6.24-1.97l1.31-3.28l12.47,6.56l4.59,4.92l0.66,5.25l9.19,2.63l1.97,4.27l19.69,0.98l7.22-6.24
		l3.61,0.33l11.16-7.55l1.31-3.94l14.11-2.63l12.47-8.86l1.64-9.19l-1.97-8.53l-10.5-20.68l9.84-14.11l1.97,2.3l10.83-1.31l8.2,3.61
		l-0.33,8.2l2.95,5.58l-1.64,1.31l3.61,2.95l-0.33,10.17l8.86-4.92l12.47-0.66l8.53,3.94l16.74-2.63l4.59-5.25l-5.58-4.92
		l-5.25,0.33l-4.92-4.59l-1.31-4.92l-11.81-5.25l-5.58,0.33l-4.92-4.27l-2.63,1.64l-1.64-9.85l14.77-5.58l10.5,0.66l7.221-8.86
		l-1.641-2.95l1.641-6.56L421.07,81l-1.311-2.63l11.82,1.31l7.22,11.16l1.311,6.89l7.319,0.5l0,0L447,98.39l0,0l-4.59,3.28
		l-4.92-0.33l-0.33,3.28l4.27,2.3l-1.97,2.63l3.61,2.3l-0.33,3.28l4.92,5.91l9.189-0.98l2.631,2.95l5.579-0.33l5.58-5.91l8.86-1.64
		l0.98,3.61l3.609-2.95l0,0l0.311-0.37l0,0l1.989,9.23l-9.189,3.94l-4.92,10.17l2.63,7.55l7.88,4.92l0.33,5.91l6.89,1.31l5.25,4.27
		l7.55-2.63l2.63-10.17l4.921-6.24l8.199,0.66l2.301,1.64l-2.301,5.25l1.13,6.07l-3.979,6.29l2.15,1.82l-1.66,5.96l-2.98-0.66v5.8
		l-4.31,0.83l-5.3,12.59l-4.971-1.66l-3.979,1.66l-1.16,5.3l-17.72,14.74l1.989,15.57l2.98,7.78l4.311,3.64l-1.99,2.48l1.33,6.54
		l-5.96,4.47l0.329,1.99l-9.109,2.32l-2.98,4.64l-14.08,9.11l-1.159,5.13l-9.94,12.09l-8.45,18.55l1.16,4.97l-5.47,8.45l-8.61-4.141
		l-3.31,1.66l-7.29,9.61l0.5,3.64l5.13,2.15l0.83,5.3l6.29,6.13l23.52-0.33l2.65,5.13l8.12,4.71l4.109-2.39l5.471,1.66l9.609-17.061
		l5.8-3.31l12.091,1.32l5.63-2.48l2.979,1.66l0.33,6.79l3.97,1.66l4.471,9.28l2.319-0.83l3.641,4.97l-15.9,11.76l-2.149,4.8
		l-17.23,5.801l-21.04-11.261l-5.63-0.83l-6.46,2.98l-8.38-8.85l-2.511,1.399l-9.77-6.96l-8.12,10.101l-1.189,8.699l-6.96,7.95
		l2.319,2.82l-1.989,12.26l-2.98-1.49l-5.63,3.15l-6.96-2.82l-6.29,2.181l-5.14-3.921l-2.32,3.311l-21.04-2.15l-6.63,6.13
		l1.66,6.631l-5.13,7.949l1.33,5.96l7.79,4.311l-0.99,13.75l-3.97,9.109l-8.78,5.961l-3.98,5.96l6.29,8.449l-0.17,6.13l5.96-0.329
		l4.47,8.449l-10.27,9.61l-2.48,11.1l8.28,15.24l1.49,10.601l4.31,0.659l7.95,8.37l7.79,8.45l1.16,5.3l8.94,2.98l7.45,13.25
		l11.09,10.43l0,0l-7.779,3.85L386.38,566.9l-4.24,0.529l-1.86-4.939l-6.46-1.78l0.17-5.16l-10.06-7.54l-5.21-1.149l-1.94-4.67
		l-7.07-4.44l-9.14-2.46l0.83-5.021l-3.65-1.17l-3.3-12.51l-5.51-4.6l-4.44,6.069l-9.15-6.449l-5.35-0.92l-6.53,8.05l-15.51-9.771
		l11.19,4.13l-7.1-5.489l20.91-7.37l-11.3-24.42l-32.44-19.761l0.5-4.829l-7.59-9.48l-8.11-1.52l-1.27-6.771l-12.05-22.62l4.13-8.52
		l-0.67-9.061L236.2,386l-12.69,0.49l-11.67-11.23l-4.74,0.32l-38.15-46.37l-9.44-4.21l-4.08-6.7l-1.33-8.97l-25.26-21.02
		l-6.38-15.13l-9.75-1.13L110.79,261l-9.03,0.2l-6.96-12.36l-8.68-7.41l-5.63-9.14l-3.69-31.26l-13.21-4.63l-0.77-3.82l7.51-1.11
		l-4.91-10.92l1.94-6.12l-2.61-7.3l-15.21-8.2L46.15,152l4.82-1.18l-0.41-4.03l2.94-0.35l-3.72-9.14l-8.83-4.41l-3.02-8.56
		l-5.4-2.28l-3.87-5.42l-12.63,5.53L0,100.97l10.95-6.36l-5.27-5.04L3.9,78.54L5.79,68.3l5.48-1.28l-0.28-7.06L4.93,47.01l5.7-11.09
		L7.35,24.18L19.78,11.1L28,12.67l-0.06-2.44L33.1,10.41z"/>
	<path id="BA-SRP" fill="#1E3250" stroke="#1E3250" stroke-width="0.5" d="M547.68,83.54l6.46-3.59l3.971,2.07l3.899-1.08
		l9.471,4.18l3.319,5.55L572.19,94l-2.74-0.7l1.609,3.1l-2.75,3.67l-3.96-0.11l-0.3,5.74l-3.25,1.98l5.16,2.33l-4.26,1.8l3.87,5.89
		l-1.271,2.04l-2.75-0.92l1.64,8.27l-5.399,2.68l-3.9,11.91l-4.899,4.56l0.42,3.53l-5.021,2.45l-1.66,3.68l2.32,3.28l-3.71,5.89
		l-6.93,0.46l-1.561,4.57l4.46,10.21l0.03,8.13l-5.979,4.89l-0.99,5.35l2.189,1.2l-0.34,5.04l3.07,1.11l-0.55,4.71l5.04,6.52
		l7.37-0.85l4.399,6.32l6.59-3.14l6.96,1.11l5.66,19.15l7.45,3.02l1.74,5.39l3.989,2.41l4.851-3.54l-0.78,6.37l3.33,0.87l2.64,6.86
		l6.96,2.8l2.99,4.99l2.41-4.93l2.61,4.25l2.989,0.24l-0.449,7.48l-8.811,3.66l0.311,3.1l-6.74,6.31l-21.16-0.91l-5.67-4.75
		l-18.59-6.94l3.689,11.86l10.53,9.9l0.61,5.28l9.64,10.32l1.8,10.87l8.28,4.34l1.3,4.511l6.92,5.85l3.04,18.521l-2.13,2.05
		l-1.939-2.311l-1.771,1.49l1.83,3.47l-1.28,4.011l2.391,2l-14.431,4.39l-6.68-8.29l-5.79,2.69l-9.51-2l-3.18,1.85l-1.061,13.56
		l-12.39-2.649l-6.29,4.71l-11.61-8.84l-6.32,1.33l-1.52-1.851l-3.9,5.98l-5.52,1.87l0.5,4.8l4.12-2.471l0.83,12.44l3.38,3.54
		l2.04-0.86l4.189,14.79l8.36,12.57l-0.271,7.84l-7.069,1.46l-5.431,6.771l-4.21-4.051l-0.08-3.64l-4.579-2.18l0.609-8.46
		l-7.7-6.561l-10.84,2.551l2.44,6.109l-9.76,2.76l-15.65,10.75l3.91,6.891l-9.51,13.22l-1.66,7.91l8.18,22.78l-7.73,2.449
		l-15.409-2.47l-10.341,17.75l4.051,10.2l-4.66,9.02l1.609,9.591l-3.819,1.87l1.08,7.26l6.67,7.39l6.479-0.55l2.03,2.61l-1.67,4.14
		l1.57,9.71l-11.551,4.11l6.9,7.84l-6.09,0.87l-3.44,4.79l-6.529,0.89l-11.83-12.79l-9.48,1.15l0,0L394.09,565.8l-7.45-13.25
		l-8.94-2.979l-1.16-5.3l-7.79-8.45l-7.95-8.37l-4.31-0.66l-1.49-10.6l-8.28-15.24l2.48-11.1l10.27-9.61l-4.47-8.45l-5.96,0.33
		l0.17-6.13l-6.29-8.45l3.98-5.96l8.78-5.96l3.97-9.11l0.99-13.75l-7.79-4.31l-1.33-5.96l5.13-7.95l-1.66-6.63l6.63-6.13l21.04,2.15
		l2.32-3.311l5.14,3.92l6.291-2.18l6.96,2.82l5.63-3.15l2.979,1.49l1.99-12.261l-2.32-2.819l6.96-7.95l1.19-8.7l8.12-10.1l9.77,6.96
		l2.511-1.4l8.38,8.851l6.46-2.98l5.63,0.83l21.04,11.26l17.229-5.8l2.15-4.8l15.9-11.76l-3.641-4.971l-2.32,0.83l-4.47-9.279
		l-3.97-1.66l-0.33-6.79l-2.98-1.66l-5.63,2.479l-12.09-1.319l-5.8,3.31l-9.61,17.061l-5.47-1.66l-4.109,2.39l-8.12-4.71l-2.65-5.13
		l-23.52,0.33l-6.29-6.13l-0.83-5.3l-5.13-2.15l-0.5-3.64l7.29-9.61l3.31-1.66l8.61,4.141l5.47-8.45l-1.16-4.97l8.45-18.55
		l9.939-12.09l1.16-5.13l14.08-9.11l2.98-4.64l9.109-2.32l-0.33-1.99l5.96-4.47l-1.329-6.54l1.989-2.479l-4.31-3.64l-2.98-7.78
		l-1.989-15.57l17.72-14.74l1.16-5.3l3.979-1.66l4.97,1.66l5.301-12.59l4.31-0.83v-5.8l2.98,0.66l1.659-5.96l-2.149-1.82l3.979-6.29
		l-1.13-6.07l2.3-5.25l-2.3-1.64l-8.2-0.66l-4.92,6.24l-2.63,10.17l-7.55,2.63l-5.25-4.27l-6.89-1.31l-0.33-5.91l-7.88-4.92
		l-2.631-7.55l4.92-10.17l9.19-3.94l-1.99-9.23l0,0l1.33-1.6l0,0v-3.28l2.95-0.66l10.5,2.3l3.61-2.3l3.279-9.52l4.271-1.97
		l2.95,3.94l2.95-3.94l-3.61-1.64l-0.18-3.44l0,0l12.21-2.08l17.369-13.16l3.301,0.55L547.68,83.54z M191.55,9.75l5.88,1.04
		l-0.75-5.18l3.54,6.45l1.89-3.72l2.41,0.51l-1.67,4.63l4.04-2.26l2.3,5.29l20.09,12.1l10.63,0.07l4.18-9.36l1.91,2.77l3.68-0.49
		l0.19,2.72l2.71-0.15l0.09,3.14l5.29,3.16l8.47,0.73l4.96-5.62l0.44,7.27l6.51-1.97l-1.28,6.01l7.23,0.04l2.86-4.62l0.88,4.64
		l3.38-1.46l3.41,1.92l11.22-6.19l28.01,19.88l13.91-8.17l-0.59-5.92l5.13-1.7l6.01-7.89l4.83,5.84l1.96-3.67l3.4,0.04l2.52,4.71
		l-2.3,2.81l6.43,5.55l13.53,0.67l0,0l4.3,4.48l0,0l12.14,7.22l-1.311,5.58l4.59-0.98l2.95-5.25l0,0l4.92,1.31l1.311-3.28l5.25,2.3
		l-0.33-4.27l8.28-4.25l0,0l11.739,11.14l0,0l21.66,12.8l0,0l3.74,1.44l0,0l-2.43,5.78l-9.851,7.22l-5.25,12.47l0,0l-3.18,1.16l0,0
		l-7.32-0.5l-1.31-6.89l-7.22-11.16l-11.82-1.31l1.31,2.63l-8.21,10.83l-1.64,6.56l1.64,2.95l-7.22,8.86l-10.5-0.66l-14.77,5.58
		l1.64,9.85l2.63-1.64l4.92,4.27l5.58-0.33l11.81,5.25l1.311,4.92l4.92,4.59l5.25-0.33l5.58,4.92l-4.59,5.25l-16.74,2.63l-8.53-3.94
		l-12.47,0.66l-8.86,4.92l0.33-10.17l-3.61-2.95l1.64-1.311l-2.95-5.58l0.33-8.2l-8.2-3.61l-10.83,1.31l-1.97-2.3l-9.84,14.11
		l10.5,20.68l1.97,8.53l-1.64,9.19l-12.47,8.86l-14.11,2.63l-1.31,3.94l-11.16,7.55l-3.61-0.33l-7.22,6.24l-19.69-0.98l-1.97-4.27
		l-9.19-2.63l-0.66-5.25l-4.59-4.92l-12.47-6.56l-1.31,3.28l-6.24,1.97l-9.52-3.61l-1.97,2.3l1.64,12.14l-6.56,5.25v4.92l5.25,4.92
		l5.25,19.36l5.25,5.25l0.66,20.68l-9.06,9.85l-16.41,1.31l-10.17-4.92l-5.25-9.52l-17.07-13.13l-6.24-8.2l1.97-2.3l-2.63-2.63
		l-4.59,0.33l-8.86-5.25l-12.14-12.14l-10.17-2.63l-9.19-6.24l-6.24-9.52l-13.88-10.48l-3.45-8.06l0.33-6.24l12.14-3.28l48.57,3.94
		l7.22-4.27l1.31-3.94l-3.28-3.61l2.3-6.89l-5.25-6.56v-9.19l-8.53-3.94l1.97-8.2l-7.55-17.72l-5.58-3.28l-12.14,0.98l-4.59-8.21
		l-3.94,1.97l-3.94-2.3L119,94.29l-13.46-5.25l-7.88,11.49l-4.27-0.98l-5.91-9.52l-5.58,1.31l-10.83-25.6l16.08-3.61l-1.05-3.49l0,0
		l2.19,2.33l12.11-0.44l0.42-6.29l7.25-13.12l-1.25-4.82l10.59-6.7l1.69-8.74l5.95-8.77l13.69-1.88l14.88,7.5l5.71-2.35l13.05,5
		l4.49-2.12l-0.3-8.21l5.87-0.22L190.76,0l3.44,4.25L191.55,9.75z"/>
	<path id="BA-BRC" fill="#1E3250" stroke="#1E3250" stroke-width="0.5" d="M512.44,93.3l0.18,3.45l3.61,1.64l-2.961,3.93
		l-2.949-3.93l-4.271,1.96l-3.28,9.52l-3.609,2.3l-10.5-2.3l-2.95,0.66v3.28l0,0l-1.64,1.97l0,0l-3.61,2.95l-0.99-3.61l-8.859,1.64
		l-5.58,5.91l-5.58,0.33l-2.62-2.95l-9.19,0.98l-4.93-5.91l0.33-3.28l-3.61-2.3l1.971-2.62l-4.261-2.3l0.32-3.28l4.93,0.33
		l4.591-3.28l0,0l3.609-1.32l0,0l5.25-12.47l9.851-7.22l2.43-5.78l0,0l0.52,0.2l0,0l8.86-3.28l0,0l3.25-0.41l3.13,5.1l-2.22,1.77
		l-6.15-1.44l3.16,4.56l-1.29,3.29l12.44,10.76L512.44,93.3z"/>
</g>
</svg>
