<?xml version="1.0" encoding="utf-8"?>
<!-- Generator: Adobe Illustrator 15.0.0, SVG Export Plug-In . SVG Version: 6.00 Build 0)  -->
<!DOCTYPE svg PUBLIC "-//W3C//DTD SVG 1.1//EN" "http://www.w3.org/Graphics/SVG/1.1/DTD/svg11.dtd">
<svg version="1.1" id="Layer_1" xmlns:amcharts="http://amcharts.com/ammap"
	 xmlns="http://www.w3.org/2000/svg" xmlns:xlink="http://www.w3.org/1999/xlink" x="0px" y="0px" width="310.5px" height="208.5px"
	 viewBox="0 0 310.5 208.5" enable-background="new 0 0 310.5 208.5" xml:space="preserve">
<defs>
	
	
		<amcharts:ammap  projection="mercator" leftLongitude="22.356421" topLatitude="44.212643" rightLongitude="28.610539" bottomLatitude="41.235569">
		</amcharts:ammap>
</defs>
<g>
	<path id="BG-01" fill="#1E3250" stroke="#1E3250" stroke-width="0.5" d="M53.742,138.898l2.827-0.112l1.265-0.988l1.897-5.644
		h3.196l0.934,1.863l1.645,0.745l1.231-0.355l-0.389-1.814h1.323l0,0l-0.355,2.423l1.075,0.647l0.511,5.537l1.148,0.896
		l-1.917,1.133l-1.732,2.233l1.202,8.369l1.143,1.284l2.929,1.032l5.026,3.24l6.485,5.926l0,0l0.516,1.104l-1.542,2.165l-0.963,5.94
		l0,0l0.506,3.678l-1.129,0.895l-1.133-0.083l-0.399-0.842l-2.121,1.858l-2.832-2.686l-1.036,1.912l-4.359,0.861l-1.634,2.574
		l-4.369-0.876l-1.401,1.971l-1.367,0.209l-1.756-0.925l-1.42,0.2l-1.07-1.099l-4.238-0.098l-1.605,0.287l-2.934,2.326l-0.969-2.214
		l-1.849-0.034l-2.413,1.596l-0.068,1.693l-1.153,1.538l-3.226,0.72l-2.574-0.063l-2.695-1.285l-4.194-0.277l1.211-1.017
		l0.087-2.505l-0.691-1.499l1.27-1.81l-0.963-3.06l0.676-4.248l-0.978-1.635l-0.204-2.89l0.506-0.861l1.221-0.087l0.409-1.581
		l1.927-2.438l-1.129-3.557l-2.16-0.452l-1.318-4.656l-0.983-1.844l-0.647-0.053l-0.36-2.476l-0.954-1.285l-0.268-5.001l0,0
		l1.907-0.92l1.017-4.675l0.915-0.667l1.207,2.915l1.825-0.083l1.095,1.431l4.607-1.158l2.944-2.287l7.614,2.131l1.479,1.065
		l3.25-0.88L53.742,138.898z"/>
	<path id="BG-02" fill="#1E3250" stroke="#1E3250" stroke-width="0.5" d="M226.02,84.329l2.91-1.62l4.817,0.467l7.016,4.831
		l2.709-0.335l1.144,0.778l2.146-1.455l7.127,0.637l1.104,0.384l-0.132,1.275l2.404,1.411l1.995,0.496l3.849-0.647l0,0l0.856,4.208
		l-0.55,1.392l0.428,3.25l-8.11-0.491l-0.778,2.146l1.455,1.026l-1.021,0.078l-0.414,0.812l-0.89-0.375l-0.725,0.935l-1.387-0.146
		l-0.667,1.007l-0.029,2.89l0.798,1.513l-1.611-0.671l-1.591,0.063l-1.158,0.856l-1.937-0.302l-1.323,1.791l-0.346,2.788
		l-1.26-0.238l-0.423,1.62l0.812,0.817l0.141,1.552l0.521-2.321l1.737,2.097l1.144-1.795l1.907,0.715l0.296-1.114l1.144,1.188
		l0.778-0.175l0.083-0.754l0.462,0.715l0.676-0.156l-0.287,1.761l0.706,0.759l0.729,0.146l1.109-1.138l0.297,1.095l1.163-0.049
		l-0.998,0.842l0.735,1.236l-0.555,0.982l1.222,2.17l2.281-0.447l-0.618,0.982l1.021,0.871l-1.839,1.289l0.497,1.406l-0.604,0.175
		l0.004,0.924l4.102,3.557l0.934,1.27l-0.277,0.487l2.033,1.503l0.896,2.023l1.537,0.448l1.056,2.661l1.081,0.044l2.068,4.918
		l-1.236,0.355l-1.479-0.715l-0.812,0.822l-1.227-0.506l-1.05,0.793l-0.574-1.265l-1.893-0.861l-0.19,0.92l-0.219-0.715
		l-0.307,0.783l-0.657-0.487l-0.569,0.75l0.788,2.457l-0.983-0.389l-0.005,0.754l-0.559-0.681h-1.172l0.335-0.715l-2.009-0.249
		l-0.258-0.739l-1.854,0.107l0.229,0.443l-0.851-0.029l-0.632,1.007l-2.36-0.243l0.355,0.535l-0.695,0.638l-0.448-0.448
		l-0.769,1.031l-0.696-0.375l0.087,1.109l-0.642,0.287l0.462,0.579l-0.549,0.116l-2.462-3.493l-1.926,0.02l-1.83-2.062l-1.873-0.886
		l-1.25-3.245l-1.513-0.199l-0.477-1.343l-1.581-1.085l-2.501-0.496l-0.861,0.423l-1.109,1.221l0.146,1.246l-0.953-0.667
		l-2.355,0.189l-1.095-1.221l-1.951-0.443l-1.45,0.652l0,0l-4.885-4.676l-0.166-1.031l1.357-1.601l-1.206-3.017l0.773-2.457
		l-3.819-4.301l-0.473-2.063l0.623-0.739l3.503-0.599l0.93-2.321l-3.431-0.272l-6.169-11.919l-3.999-4.549l0,0l0.18-1.761
		l-1.416-2.686l-2.603-0.847l-1.329-1.63l0.535-2.885l-0.749-4.689L199.086,85l0,0l3.041-0.117l0.248,1.917l3.698-0.034l3.074-2.175
		l3.912-0.175l1.902,0.798l2.7-0.53l2.452,1.839l3.522-1.893L226.02,84.329z"/>
	<path id="BG-03" fill="#1E3250" stroke="#1E3250" stroke-width="0.5" d="M241.351,41.598l2.763,2.7l0.803,3.197l1.167-0.029
		l2.822-2.296l1.012-0.132l0.895,0.803l0.015,2.496l2.516,1.265l2.578-0.122l5.96,7.702l2.793-2.763l2.004,0.102l4.656,5.342l0,0
		l-2.379,5.79l-2.972,0.594l-0.988,1.537l-0.798-0.452l0.554,0.204l-0.087,1.178l1.503,0.37l-1.611,6.884l-1.133,1.528l0.778,7.06
		l-0.166,4.812l-0.929,1.177l0,0l-3.849,0.647l-1.995-0.496l-2.404-1.411l0.132-1.275l-1.104-0.384l-7.127-0.632l-2.151,1.455
		l-1.139-0.773l-2.709,0.335l-7.016-4.831l-4.817-0.467l-2.91,1.62l0,0l0.137-1.902l-2.448-2.714l1.304-1.236l6.588-1.406
		l-0.759-4.257L229.64,71.5l0.486-1.854l4.37-2.579l-1.723-6.812l0.219-0.579l1.338,0.428l0.934-0.837L234.773,54l2.476-3.756
		l-0.224-0.861l-0.915-0.2l0.934-2.447l-1.289-0.574l0.005-1.722l4.637-1.479L241.351,41.598z"/>
	<path id="BG-04" fill="#1E3250" stroke="#1E3250" stroke-width="0.5" d="M144.094,39.69l2.944-0.647l0,0l1.133,0.934l1.231-0.579
		l0.17,1.163l-0.935,1.863l1.771,4.476l2.511,2.379l-0.71,3.041l4.788,2.618l2.18-1.246l3.571,2.544l2.214-0.117l2.792,1.099
		l2.233-0.905l0.915,2.17l2.423,0.545l0,0l3.23,3.094l-0.462,1.411l2.583,3.401l-0.024,0.837l-1.513,1.056l-0.934,2.992l0.214,4.928
		l2.083,2.204l-1.81,2.345l5.425,1.902l0,0l-1.284,1.956l-5.571,2.958l0.151,2.725l-3.318,2.637l-2.729-0.715l-2.836,0.701
		l-2.554-0.472l0,0l-3.226-0.209l-4.568,2.121l0,0l-1.426-1.128l-1.08-3.017l1.888-1.732l0.165-0.998l-0.988-0.486l-0.034-1.766
		l-2.058-0.263l-0.973-1.041l0.044-2.302l1.956-1.873l-0.311-1.377l-3.211-1.591l-3.045-0.657l-1.601,0.346l-1.192-1.027
		l-3.416,0.17l-0.37-0.988l0.657-2.058l-0.501-0.618l-3.756,1.129l-3.031-0.783l-2.978-2.939l-0.253-1.897l0,0l1.664-0.292
		l0.054-1.868l1.372-2.039l0.117-1.684l0,0l3.498-3.561l0.511-1.712l-0.384-1.027l-1.893-0.37l0.521-3.226l-3.367,0.365
		l-0.627-1.012l0.535-0.885l3.191-1.464l0.647-4.062l-1.182-1.961l0.822-3.104l-0.574-1.96l2.793-2.335l0,0l3.926,3.347
		L144.094,39.69z"/>
	<path id="BG-05" fill="#1E3250" stroke="#1E3250" stroke-width="0.5" d="M15.33,0.53l3.167,0.939l2.949,2.792l5.381,3.411
		l5.006,0.895L32.548,9.2l0.205,1.868l-1.645,2.773l-3.775,0.632l-2.359,1.562l-1.927,6.354l0.734,2.272l1.007,0.934l8.412,2.53l0,0
		l-0.881,1.07l-3.902,0.506l0.18,1.382l4.121,1.581l0.545,1.684l-6.218,2.793l-1.985,5.186l-1.722,1.727l-1.469,3.45l-2.107,1.376
		l-0.224,3.007l-1.767,2.564l0,0l-2.413-0.136l-0.929-2.131l-2.885-0.584l-1.071-1.742l-1.98-0.521l-2.228-6.077l0.229-2.457
		l-0.671-1.382l0.555-1.139L2.403,34.5l-0.632-2.136l0.307-1.912L0,26.987l1.362-3.829l0.107-3.731l0.924-0.866l0.102-4.262
		l1.649-0.852l4.043-0.224l0.695-0.905L8.402,11.17l4.169-0.808l-0.496-2.895l0.851-3.352L12.222,3.61l1.036-0.657l-0.375-0.569
		l0.594-0.112l0.219-1.518L15.33,0.53z"/>
	<path id="BG-06" fill="#1E3250" stroke="#1E3250" stroke-width="0.5" d="M74.657,31.381l2.296,0.136l9.565,4.024l8.134-1.012l0,0
		l-1.026,4.636l-0.808-0.516l-0.18,0.983l-0.881-1.246l-0.847,0.054l-2.773,3.527l-1.572-0.633l-0.667,0.39l0.861,6.291l3.381,1.43
		l-0.788,3.328l-5.031,0.632l-0.881,2.544l-5.332,0.472l-1.148,0.846l-0.885,7.42l1.007,0.978l1.966-0.613l0.973,1.163l0,0
		l0.467,6.135l-2.642-0.005l0.049,3.24l0,0l-0.477,1.951l-2.335-1.187l-4.661-0.127l-1.241-0.919l-4.549,2.087l-2.452-1.168
		l-4.759,4.194l-1.289-0.841l-2.871-4.379l-0.414-2.491l1.747-3.216l-4.199-0.701l0,0l-0.53-2.559l0.681-0.837l1.8,0.024
		l0.117-1.688l-1.615-1.085l-3.318-0.691l-1.188-1.566l2.583-2.613l1.859-3.601l-0.287-3.318l1.883-3.051l0.9-0.433l4.048,0.841
		l1.309-2.034h2.248l-0.321-1.61l-2.331-2.335l3.094-5.585l-0.336-8.359l0,0l4.408-0.725l5.673,2.978L74.657,31.381z"/>
	<path id="BG-07" fill="#1E3250" stroke="#1E3250" stroke-width="0.5" d="M130.666,68.006l0.253,1.897l2.978,2.939l3.031,0.783
		l3.756-1.129l0.501,0.618l-0.657,2.058l0.37,0.988l3.416-0.17l1.192,1.027l1.601-0.346l3.045,0.657l3.211,1.591l0.311,1.377
		l-1.956,1.873l-0.044,2.302l0.973,1.041l2.058,0.263l0.034,1.766l0.988,0.486l-0.165,0.998l-1.888,1.732l1.08,3.017l1.426,1.128
		l0,0l-0.093,0.808l-1.133,0.467l-1.572-1.362l-2.306,1.163l-1.728-0.389l-1.401-1.42l-1.527-0.117l0.209,1.762l-0.564,0.501
		l-5.8-1.605l-1.8,0.272l-3.036-1.834l-5.147,2.417l-3.498-0.442l0,0l0.253-1.99l-1.377-2.715l-2.199-2.948l-2.403-1.163
		l-0.832-4.734l1.426-3.075l2.175-0.769l-0.477-4.729l1.854-2.048l-0.136-4.354L130.666,68.006z"/>
	<path id="BG-08" fill="#1E3250" stroke="#1E3250" stroke-width="0.5" d="M266.329,17.262l2.083,7.629l5.614,2.919l5.936,2.656
		l5.269,0.399l4.729,1.23l6.33-0.34l-0.03,2.218l-0.686,1.095l0.73,3.235l-0.491,2.481l1.941,3.902l-2.579,6.028l-2.769,2.52
		l-1.474,3.221l-0.89-1.387l-5.376-2.267l-6.5,1.221l-2.044-0.525l-3.108,2.083l-1.679,4.281l0,0l-4.656-5.342l-2.004-0.102
		l-2.793,2.763l-5.96-7.702l-2.578,0.122l-2.516-1.265l-0.015-2.496l-0.895-0.803l-1.012,0.132l-2.822,2.296l-1.167,0.029
		l-0.803-3.197l-2.763-2.7l0,0l-1.26-2.311l-3.381,1.971l-0.73-0.282l-2.073-2.885l-2.199-0.307l-1.212-1.44l0,0l0.93-0.525
		l-0.521-2.978l3.386-3.868l2.773-0.584l4.724-4.452l1.567,1.007l0.968-0.18l2.423-4.164l1.197,1.284l1.484,0.185l0.004-1.353
		l1.815-2.603l3.386-1.635l0,0l1.489,1.128l5.182-0.841l3.459-2.744l1.289,1.596L266.329,17.262z"/>
	<path id="BG-09" fill="#1E3250" stroke="#1E3250" stroke-width="0.5" d="M139.423,148.332l-0.642,2.156l1.513,5.984l2.686-2.505
		l1.144,2.744l3.59,2.028l4.126,1.271l2.88-0.852l1.076,1.352l1.445,4.895l-0.671,2.199l0.496,1.255l1.163-0.744l1.819,0.807
		l2.676-2.418l2.841,0.379l0.803,2.598l-2.039,1.591l-0.88,4.248l2.525,2.039l-0.316,3.274l4.116,3.921l0.725,2.91l0,0l-2.521,0.968
		l-0.671-0.53l0.093-0.944l-2.277-1.173l-2.16,1.611l-2.778,0.229l-0.623,1.654l-2.35-1.421l-2.136,0.623l-2.486-0.832l-1.45,2.52
		l-2.637-0.666l-2.287,1.43l-2.875,0.312l-1.513,1.163l-1.756-0.263l-0.613,0.667l-2.516-0.769l-0.525-2.073l-2.481-2.058l0,0
		l0.156-1.114l-0.988-0.516l-0.574-2.797l1.825-2.345l-1.469-0.632l0.637-2.243l-0.34-1.197l-1.815-1.26l-2.695,1.294l-2.457-0.915
		l-0.9-3.961l0.404-1.566l3.483-1.274l1.022-1.192l0.496-5.298l-1.211-4.958l0,0l2.812-2.267l2.588-4.661L139.423,148.332z"/>
	<path id="BG-10" fill="#1E3250" stroke="#1E3250" stroke-width="0.5" d="M5.595,100.774l1.951,1.63l2.89,0.958l1.756,4.617
		l2.725,1.445l0.204,3.075l2.048,3.23l0.603,2.224l2.773,0.496l1.026,1.538h1.387l0.209,1.313l1.455-0.827l2.024,1.202l0.613-1.78
		l1.62-0.555l1.066-1.353l3.298,2.087l1.518-0.258l1.499-1.902l0.516,2.126l2.773,1.586l1.513,0.214l1.45-1.1l0,0l4.096,0.793
		l1.119,3.444l3.187,2.583v0.662l-2.384,0.886l-1.207,2.885l0.915,0.769l3.202-1.056l0.832,2.739l3.459,1.484l-0.102,1.167
		l-1.888,1.8l0,0l-1.474,1.377l-3.25,0.88l-1.479-1.065l-7.614-2.131l-2.944,2.287l-4.607,1.158l-1.095-1.431l-1.825,0.083
		l-1.207-2.915l-0.915,0.667l-1.017,4.675l-1.907,0.92l0,0l-0.793-0.681l-1.299,0.214l-1.192-1.494l-1.1,0.482l-2.009-0.526
		l-0.954-1.338l-1.883,0.151l-5.147-3.333l-2.588-2.252l-0.501-2.652l-1.518-0.525l-1.012-2.642l-4.189-4.53l2.092-1.163
		l1.323,0.511l0.924-0.642l1.211-3.858l1.961-0.331l1.829-5.221l-1.756-3.012l-2.447-2.213l-1.499-0.355L5.595,100.774z"/>
	<path id="BG-11" fill="#1E3250" stroke="#1E3250" stroke-width="0.5" d="M80.024,66.216l3.405-0.642l3.163-1.659l3.094,0.808
		l2.968-0.301l2.861-0.886l1.64-1.751l0.555,1.046l1.372,0.302l1.654,1.601l8.504,1.089l0.541-3.459l1.537,1.688l1.178-2.146
		l4.125-2.593l2.228,0.117l3.542,1.703l2.457-0.817l1.791-1.747l1.211-2.681l0.735,0.248l1.503,3.756l3.786,2.233l0,0l-0.117,1.684
		l-1.372,2.039l-0.054,1.868l-1.664,0.292l0,0l-5.6-1.411l0.136,4.354l-1.854,2.048l0.477,4.729l-2.175,0.769l-1.426,3.075
		l0.832,4.734l2.403,1.163l2.199,2.948l1.377,2.715l-0.253,1.99l0,0l-4.719,2.078l-3.017-0.905l-4.466,0.739l-1.289-0.375
		l-1.124-2.126l-2.053-1.615l-6.213-0.735l-1.8,2.219l-4.515,0.083l0,0l-4.812-1.387l-6.018-0.414l1.965-3.328l-1.27-0.954
		l-0.185-2.306l-1.522-1.075l1.522-1.537l-3.328-1.781l-0.418-3.056l-2.379-1.187l-0.282-1.722l-2.963-0.151l0,0l-0.049-3.24
		l2.642,0.005L80.024,66.216z"/>
	<path id="BG-12" fill="#1E3250" stroke="#1E3250" stroke-width="0.5" d="M50.983,24.501l4.16,1.085l3.26,2.466l2.593,0.238l0,0
		l0.336,8.359l-3.094,5.585l2.331,2.335l0.321,1.61h-2.248l-1.309,2.034l-4.048-0.841l-0.9,0.433l-1.883,3.051l0.287,3.318
		l-1.859,3.601l-2.583,2.613l1.188,1.566l3.318,0.691l1.615,1.085l-0.117,1.688l-1.8-0.024l-0.681,0.837l0.53,2.559l0,0l-3.114-0.18
		l-2.136,2.312l-9.478,0.651l-5.736-5.498l-2.214,0.647l0,0l-1.995-1.426l-1.362-2.651l-0.939-0.564l-1.051-3.586l-4.603-4.043l0,0
		l1.767-2.564l0.224-3.007l2.107-1.376l1.469-3.45l1.722-1.727l1.985-5.186l6.218-2.793l-0.545-1.684l-4.121-1.581l-0.18-1.382
		l3.902-0.506l0.881-1.07l0,0l4.276-0.769l6.121-2.559L50.983,24.501z"/>
	<path id="BG-13" fill="#1E3250" stroke="#1E3250" stroke-width="0.5" d="M67.671,132.593l3.775-2.909l2.501-3.313l1.061,1.333
		l1.552-0.832l-0.715-2.272l0.973-3.012l3.479-1.459l1.795-3.766l-0.71-1.562l-2.452,1.061l-1.727-0.506l-1.825-2.89l-0.389-4.432
		l2.817-0.623l3.109,1.435l2.938-3.182l2.311,0.043l0.535-2.394L91,102.166l2.982,1.177l1.538,4.714l1.401-0.827l1.24,1.158l0,0
		l-0.292,2.267l-1.571,1.654l-0.268,1.294l2.039,6.388l2.209,2.398l0.092,1.951l-0.91,0.745l0.837,5.289l2.554,4.481l-0.36,0.603
		l-2.467,0.501l-0.745,4.233l0.307,4.802l-1.236,3.854l0,0l-0.642,3.366l-2.866,1.742l-1.163,1.562l0.107,4.14l-2.846,1.888
		l-2.856-0.715l-4.311,0.588l-0.589,3.893l0,0l-6.485-5.926l-5.026-3.24l-2.929-1.032l-1.143-1.284l-1.202-8.369l1.732-2.233
		l1.917-1.133l-1.148-0.896l-0.511-5.537l-1.075-0.647L67.671,132.593z"/>
	<path id="BG-14" fill="#1E3250" stroke="#1E3250" stroke-width="0.5" d="M12.659,86.913l2.754,1.698l0.783-1.09l2.083-0.078
		l0.623-0.613l0,0l0.866,2.175l1.951-0.136l1.547,2.535l5.799,2.024l0.963,1.528l2.598,1.119l0.657,1.036l0,0l3.075,3.605
		l1.941,1.187l0.569,3.133l-0.462,1.07l2.199,0.38l1.844,2.763l1.26-0.263l0.122,0.798l0,0l-1.873,4.466l0.555,6.49l0,0l-1.45,1.1
		l-1.513-0.214l-2.773-1.586l-0.516-2.126l-1.499,1.902l-1.518,0.258l-3.298-2.087l-1.066,1.353l-1.62,0.555l-0.613,1.78
		l-2.024-1.202l-1.455,0.827l-0.209-1.313h-1.387l-1.026-1.538l-2.773-0.496l-0.603-2.224l-2.048-3.23l-0.204-3.075l-2.725-1.445
		l-1.756-4.617l-2.89-0.958l-1.951-1.63l0,0l-0.681-0.647l1.805-2.175l0.141-1.163l-1.873-2.384l-0.958-2.987l3.114-1.723l1.29-1.96
		l1.907,1.056l0.472-1.785L12.659,86.913z"/>
	<path id="BG-15" fill="#1E3250" stroke="#1E3250" stroke-width="0.5" d="M113.19,35.429l3.459-1.698l3.795,0.263l3.566-1.522
		l1.839,0.16l2.734,2.277l2.087,0.506l3.951-0.934l3.742,1.328l0,0l-2.793,2.335l0.574,1.96l-0.822,3.104l1.182,1.961l-0.647,4.062
		l-3.191,1.464l-0.535,0.885l0.627,1.012l3.367-0.365l-0.521,3.226l1.893,0.37l0.384,1.027l-0.511,1.712l-3.498,3.561l0,0
		l-3.786-2.233l-1.503-3.756l-0.735-0.248l-1.211,2.681l-1.791,1.747l-2.457,0.817l-3.542-1.703l-2.228-0.117l-4.125,2.593
		l-1.178,2.146l-1.537-1.688l-0.541,3.459l-8.504-1.089l-1.654-1.601l-1.372-0.302l-0.555-1.046l-1.64,1.751l-2.861,0.886
		l-2.968,0.301l-3.094-0.808l-3.163,1.659l-3.405,0.642l0,0l-0.973-1.163l-1.966,0.613l-1.007-0.978l0.885-7.42l1.148-0.846
		l5.332-0.472l0.881-2.544l5.031-0.632l0.788-3.328l-3.381-1.43l-0.861-6.291l0.667-0.39l1.572,0.633l2.773-3.527l0.847-0.054
		l0.881,1.246l0.18-0.983l0.808,0.516l1.026-4.636l0,0l2.895-2.486l5.011-1.766l5.629,1.353l2.909,2.817L113.19,35.429z"/>
	<path id="BG-16" fill="#1E3250" stroke="#1E3250" stroke-width="0.5" d="M97.587,94.483l4.515-0.083l1.8-2.219l6.213,0.735
		l2.053,1.615l1.124,2.126l1.289,0.375l4.466-0.739l3.017,0.905l4.719-2.078l0,0l0,0l0,0l-0.496,1.143l0.219,5.722l-1.547,3.445
		l0.861,3.649l1.455,2.559l1.673,0.672l5.08-1.737l1.128,1.718l-0.195,1.241l-2.019,2.039l1.396,3.08l-2-0.482l-0.346,0.778
		l-0.004,5.936l2.238,1.673l-4.821,2.083l-0.302,4.165l3.444,1.922l4.583-0.754l1.859-1.202l3.411,3.907l0,0l-1.937,5.031
		l0.204,5.089l-1.246,1.537l0,0l-4.515,2.676l-2.588,4.661l-2.812,2.267l0,0l-2.88-2.836l-0.905,0.812l-0.146,3.206l-1.834,2.126
		l-3.347-0.102l-2.997,3.386l-1.484-3.201l0.642-2.413l-0.662-1.139l-0.769,0.652l-0.647-1.192l1.172-3.411l-1.012-2.009
		l-5.06-0.759l-5.546,1.557l-2.296-2.987l-1.309,0.141l-2.078-0.919l0,0l1.236-3.854l-0.307-4.802l0.745-4.233l2.467-0.501
		l0.36-0.603l-2.554-4.481l-0.837-5.289l0.91-0.745l-0.092-1.951l-2.209-2.398l-2.039-6.388l0.268-1.294l1.571-1.654l0.292-2.267
		l0,0l2.803-0.492l1.153-2.968l-2.467-2.452l-3.8-2.097l-0.175-1.518L97.587,94.483z"/>
	<path id="BG-17" fill="#1E3250" stroke="#1E3250" stroke-width="0.5" d="M190.932,18.653l4.481,0.272l1.143,1.839l3.275-0.389
		l1.216,1.61l0.384,2.107l6.203,1.844l1.29-0.292l0.618,1.08l2.097-1.683l1.834,2.243l2.146,0.667L217,30.544l1.708,0.185
		l0.667,1.985l2.029,1.888l0,0l0.452,2.243l-0.715,1.075l-2.087,1.032l-1.567,1.98l-2.778-0.788l-0.457,2.058l-2.783,2.364
		l0.15,2.943l-3.172,3.065l0.155,1.708l2.365,2.043l-2.068,2.121l0,0l-2.569,0.205l-0.968-0.803l-1.095,2.146l-2.749-0.263
		l-2.627-1.148l-2.345,1.061l-1.445-0.258l0.161,1.012L193.321,61l-0.087,1.27l-2.014,0.968l-0.569-0.934l0.662-1.279l-0.627-0.983
		l-1.538-0.545l-0.345-1.167l4.777-3.829l0.282-3.08l-2.578-0.618l-1.207-3.089l-1.966-0.428l-3.226-3.172l-1.596,0.316
		l-1.104,1.538l-3.522,0.043l-0.861-0.583l0,0l-1.722-3.372l0.194-1.615l3.221-0.842l2.102-2.564l1.805,0.404l3.405,2.593
		l4.175-1.387l2.681,0.608l2.871-0.355l1.581-2.423l-0.005-3.318l-1.747-2.797l-1.936-0.355l-1.781-1.576l-1.557,0.749l-0.384-0.618
		l-2.161,0.355l-2.417-0.832l0.034-1.455l1.781-1.401l1.406-4.291L190.932,18.653z"/>
	<path id="BG-18" fill="#1E3250" stroke="#1E3250" stroke-width="0.5" d="M189.341,12.489l0.549,2.17l2.015,1.961l-0.973,2.034l0,0
		l-1.586,2.282l-1.406,4.291l-1.781,1.401l-0.034,1.455l2.417,0.832l2.161-0.355l0.384,0.618l1.557-0.749l1.781,1.576l1.936,0.355
		l1.747,2.797l0.005,3.318l-1.581,2.423l-2.871,0.355l-2.681-0.608l-4.175,1.387l-3.405-2.593l-1.805-0.404l-2.102,2.564
		l-3.221,0.842l-0.194,1.615l1.722,3.372l0,0l-3.075,1.474l-0.822,4.165l-2.773,3.547l2.408,2.053l-0.214,2.364l0,0l-2.423-0.545
		l-0.915-2.17l-2.233,0.905l-2.792-1.099l-2.214,0.117l-3.571-2.544l-2.18,1.246l-4.788-2.618l0.71-3.041l-2.511-2.379l-1.771-4.476
		l0.935-1.863l-0.17-1.163l-1.231,0.579l-1.133-0.934l0,0l1.858-0.929l3.551-0.063l4.826-2.929l3.382-0.112l2.486-1.328l1.357-2.394
		l3.187-2.136l3.566-5.454l4.943-3.036l2.433-3.941l1.956-1.207l2.506-0.005L189.341,12.489z"/>
	<path id="BG-19" fill="#1E3250" stroke="#1E3250" stroke-width="0.5" d="M225.631,5.644l1.625-0.126l3.581,1.508l3.216-0.526
		l0.982,3.44l3.128,1.139l2.068,2.968l3.435-0.667l6.636,0.642l1.523-2.35l1.401,1.167l1.406,3.639l0,0l-3.386,1.635l-1.815,2.603
		l-0.004,1.353l-1.484-0.185l-1.197-1.284l-2.423,4.164l-0.968,0.18l-1.567-1.007l-4.724,4.452l-2.773,0.584l-3.386,3.868
		l0.521,2.978l-0.93,0.525l0,0l-2.087,0.083l-2.681-3.308l-4.325,1.484l0,0l-2.029-1.888l-0.667-1.985L217,30.544l-1.382-2.593
		l-2.146-0.667l-1.834-2.243l-2.097,1.683l-0.618-1.08l-1.29,0.292l-6.203-1.844l-0.384-2.107l-1.216-1.61l-3.275,0.389
		l-1.143-1.839l-4.481-0.272l0,0l0.973-2.034l-2.015-1.961l-0.549-2.17l0,0l2.354-0.647l2.856,0.56l4.428-1.221l3.036,0.185
		l4.432-1.552l3.104-0.102l7.128-3.664l3.975-0.112l3.469-1.037L225.631,5.644z"/>
	<path id="BG-20" fill="#1E3250" stroke="#1E3250" stroke-width="0.5" d="M182.116,83.201l2.423-2.068l0.958-2.836l2.515-0.501
		l0.516,2.365l1.23-1.163l2.345,1.406l4.817-1.017l4.914,0.754l0,0l-3.124,2.763l-0.268,1.372l0.584,0.706l0,0l1.513,0.029
		l0.75,4.685l-0.536,2.886l1.329,1.63l2.607,0.846l1.411,2.686l-0.18,1.766l0,0l-1.255-0.564l0.915,2.17l-0.015,1.941l-1.406,1.756
		l-1.021-1.124l-1.382,2.218l-2.355,0.238l-4.267,2.666l-2.662-0.438l-1.931,1.591l0.924,0.632l0.166,1.061l-2.204,2.399
		l-1.995,0.258l-0.71,0.978l-3.289-0.91l-0.642,0.404l0.131,2.885l-2.009-0.759l1.08,2.394l2.048-1.718l0.409,0.803l-0.307,3.927
		l-2.812,6.276l0,0l-4.992-2.992l-1.795,1.211l-0.015-0.978l-4.072-2.666l-1.367-4.705l-1.829-2.228l1.167-2.851l-1.737-4.023
		l1.474-3.177l-1.479-2.486l-0.574-3.454l-1.956-3.902l-0.185-3.353l0,0l2.554,0.472l2.836-0.701l2.729,0.715l3.318-2.637
		l-0.151-2.725l5.571-2.958L182.116,83.201z"/>
	<path id="BG-21" fill="#1E3250" stroke="#1E3250" stroke-width="0.5" d="M98.351,148.848l2.078,0.919l1.309-0.141l2.296,2.987
		l5.546-1.557l5.06,0.759l1.012,2.009l-1.172,3.411l0.647,1.192l0.769-0.652l0.662,1.139l-0.642,2.413l1.484,3.201l2.997-3.386
		l3.347,0.102l1.834-2.126l0.146-3.206l0.905-0.812l2.88,2.836l0,0l1.211,4.958l-0.496,5.298l-1.022,1.192l-3.483,1.274
		l-0.404,1.566l0.9,3.961l2.457,0.915l2.695-1.294l1.815,1.26l0.34,1.197l-0.637,2.243l1.469,0.632l-1.825,2.345l0.574,2.797
		l0.988,0.516l-0.156,1.114l0,0l-2.554-1.679l-1.8-0.063l-1.138-1.494l-5.347-1.357l-1.362-1.357l-1.893,1.041l-2.627-0.588
		l-0.122,2.885l-0.657,0.516l-2.686-2.18l-0.803-2.17l-2.184-0.574l-1.173,0.491l-0.185-1.138l-2.107,0.55l-0.657-2.404
		l-1.124-0.734l-0.623-1.698l-0.302-3.006l-1.25-1.104l-2.505,1.031l-1.134,1.897l-2.18-1.134l-0.982,0.195l-0.876,1.221
		l-1.289-0.579l-1.703,0.944l-0.059-1.688l-1.892-2.229l-1.538,1.547l-0.949-0.137l-1.153,2.253l-1.28-1.353l-1.187,0.146
		l-1.464-1.031l-1.956,1.591l0,0l0.963-5.94l1.542-2.165l-0.516-1.104l0,0l0.589-3.893l4.311-0.588l2.856,0.715l2.846-1.888
		l-0.107-4.14l1.163-1.562l2.866-1.742L98.351,148.848z"/>
	<path id="BG-22" fill="#1E3250" stroke="#1E3250" stroke-width="0.5" d="M27.722,66.722l2.214-0.647l5.736,5.498l9.478-0.651
		l2.136-2.312l3.114,0.18l0,0l4.199,0.701l-1.747,3.216l0.414,2.491l2.871,4.379l1.289,0.841l4.759-4.194l2.452,1.168l4.549-2.087
		l1.241,0.919l4.661,0.127l2.335,1.187l0.477-1.951l0,0l2.963,0.151l0.282,1.722l2.379,1.187l0.418,3.056l3.328,1.781l-1.522,1.537
		l1.522,1.075l0.185,2.306l1.27,0.954l-1.965,3.328l6.018,0.414l4.812,1.387l0,0l-1.912,4.378l0.175,1.518l3.8,2.097l2.467,2.452
		l-1.153,2.968l-2.803,0.492l0,0l-1.24-1.158l-1.401,0.827l-1.538-4.714L91,102.166l-4.301,1.148l-0.535,2.394l-2.311-0.043
		l-2.938,3.182l-3.109-1.435l-2.817,0.623l0.389,4.432l1.825,2.89l1.727,0.506l2.452-1.061l0.71,1.562l-1.795,3.766l-3.479,1.459
		l-0.973,3.012l0.715,2.272l-1.552,0.832l-1.061-1.333l-2.501,3.313l-3.775,2.909l0,0h-1.323l0.389,1.814l-1.231,0.355l-1.645-0.745
		l-0.934-1.863h-3.196l-1.897,5.644l-1.265,0.988l-2.827,0.112l0,0l1.888-1.8l0.102-1.167l-3.459-1.484l-0.832-2.739l-3.202,1.056
		l-0.915-0.769l1.207-2.885l2.384-0.886v-0.662l-3.187-2.583l-1.119-3.444l-4.096-0.793l0,0l-0.555-6.49l1.873-4.466l0,0
		l2.559,1.032l4.438,4.792l0.822-0.481l1.1-4.345l1.324,0.151l1.761,3.362l0.351,4.16l0.905-0.345l2.224,0.836l2.899-1.051
		l-2.199-6.461l-2.224-2.87l-0.18-5.293l-2.228-1.221l0.312-1.188l1.07-0.418l0.56-1.922l2.355-1.217l1.372-5.196l-0.613-2.398
		l-2.759,1.08l-3.824-2.481l-6.417,1.265l-1.483-2.696l-1.411-0.982l-3.391,8.602l0.705,1.148l-0.345,1.129l-1.372-0.442
		l-1.133,0.647l-5.722,0.131l0,0l-0.657-1.036l-2.598-1.119l-0.963-1.528l-5.799-2.024l-1.547-2.535l-1.951,0.136l-0.866-2.175l0,0
		l1.226-2.394l-0.457-1.041l0.667-2.224l3.041-1.396l2.316-2.039l1.144-3.011l2.948-1.932l0.691-2.978l-0.525-0.608l0.958-1.649
		l-1.45-0.846L27.722,66.722z"/>
	<path id="BG-23" fill="#1E3250" stroke="#1E3250" stroke-width="0.5" d="M33.283,97.11l5.722-0.131l1.133-0.647l1.372,0.442
		l0.345-1.129l-0.705-1.148l3.391-8.602l1.411,0.982l1.483,2.696l6.417-1.265l3.824,2.481l2.759-1.08l0.613,2.398l-1.372,5.196
		l-2.355,1.217l-0.56,1.922l-1.07,0.418l-0.312,1.188l2.228,1.221l0.18,5.293l2.224,2.87l2.199,6.461l-2.899,1.051l-2.224-0.836
		l-0.905,0.345l-0.351-4.16l-1.761-3.362l-1.324-0.151l-1.1,4.345l-0.822,0.481l-4.438-4.792l-2.559-1.032l0,0l-0.122-0.798
		l-1.26,0.263l-1.844-2.763l-2.199-0.38l0.462-1.07l-0.569-3.133l-1.941-1.187L33.283,97.11z"/>
	<path id="BG-24" fill="#1E3250" stroke="#1E3250" stroke-width="0.5" d="M156.18,94.901l4.568-2.121l3.226,0.209l0,0l0.185,3.353
		l1.956,3.902l0.574,3.454l1.479,2.486l-1.474,3.177l1.737,4.023l-1.167,2.851l1.829,2.228l1.367,4.705l4.072,2.666l0.015,0.978
		l1.795-1.211l4.992,2.992l0,0l1.751,1.09l0,0l-3.936,3.873l1.649,7.502l-2.89,0.219l-1.581,1.679l-1.017-0.287l-2.034-4.155
		l-2.072-0.258l-1.144-1.104l-1.654-0.048l-1.343-1.022l-0.657,0.438l-0.744,2.802l-4.666,1.698l-2.904-6.097l-3.235,1.708
		l-0.068-4.276l-0.603-1.197l-3.45,2.958l0.89,0.292l-0.452,0.881l-2.739-0.886l-0.199,1.586l-1.674,2.218l-4.16-1.532l0,0
		l-3.411-3.907l-1.859,1.202l-4.583,0.754l-3.444-1.922l0.302-4.165l4.821-2.083l-2.238-1.673l0.004-5.936l0.346-0.778l2,0.482
		l-1.396-3.08l2.019-2.039l0.195-1.241l-1.128-1.718l-5.08,1.737l-1.673-0.672l-1.455-2.559l-0.861-3.649l1.547-3.445l-0.219-5.722
		l0.496-1.143l0,0l3.498,0.442l5.147-2.417l3.036,1.834l1.8-0.272l5.8,1.605l0.564-0.501l-0.209-1.762l1.527,0.117l1.401,1.42
		l1.728,0.389l2.306-1.163l1.572,1.362l1.133-0.467L156.18,94.901z"/>
	<path id="BG-25" fill="#1E3250" stroke="#1E3250" stroke-width="0.5" d="M177.801,45.427l0.861,0.583l3.522-0.043l1.104-1.538
		l1.596-0.316l3.226,3.172l1.966,0.428l1.207,3.089l2.578,0.618l-0.282,3.08l-4.777,3.829l0.345,1.167l1.538,0.545l0.627,0.983
		l-0.662,1.279l0.569,0.934l2.014-0.968l0.087-1.27l1.941-2.603l-0.161-1.012l1.445,0.258l2.345-1.061l2.627,1.148l2.749,0.263
		l1.095-2.146l0.968,0.803l2.569-0.205l0,0l-0.599,0.773l0.321,3.825l1.586,1.45l0.239,1.226l-2.827,2.982l-1.051,2.953
		l-1.937,0.131l1.324,4.705l-2.579,2.642l0.019,2.228l-1.562,0.779l0,0l-4.914-0.754l-4.817,1.017l-2.345-1.406l-1.23,1.163
		l-0.516-2.365l-2.515,0.501l-0.958,2.836l-2.423,2.068l0,0l-5.425-1.902l1.81-2.345l-2.083-2.204l-0.214-4.928l0.934-2.992
		l1.513-1.056l0.024-0.837l-2.583-3.401l0.462-1.411l-3.23-3.094l0,0l0.214-2.364l-2.408-2.053l2.773-3.547l0.822-4.165
		L177.801,45.427z"/>
	<path id="BG-26" fill="#1E3250" stroke="#1E3250" stroke-width="0.5" d="M183.084,129.684l3.566,1.503l1.596,1.455l2.905,0.759
		l1.197-0.686l1.221,0.973l1.893-0.448l0.758,1.343l1.767-0.194l-0.219,6.694l-1.188,1.153l-0.034,1.348l3.639,5.473l0,0
		l1.031,1.416l-0.754,1.158l0.623,0.851l-1.946,3.104l-8.266,0.389l-1.741,4.223l-0.025,0.905l1.396,1.562l-3.508,0.009
		l-2.598-1.824l-1.411,0.375l-1.329-0.953l-2.32,1.206l-0.53,1.1l-2.039,0.253l-0.39,1.299l0.55,2.617l1.109,1.294l1.961-0.384
		l0.793,1.742l-0.282,3.158l1.42,0.161l0.385,2.208l-1.513,2.414l2.243,2.831l-1.484,0.219l-0.545,0.73l0.034,1.844l-1.348,2.291
		l-4.525,0.336l-1.338,0.448l-0.433,1.104l-2.909,0.321l0,0l-0.725-2.91l-4.116-3.921l0.316-3.274l-2.525-2.039l0.88-4.248
		l2.039-1.591l-0.803-2.598l-2.841-0.379l-2.676,2.418l-1.819-0.807l-1.163,0.744l-0.496-1.255l0.671-2.199l-1.445-4.895
		l-1.076-1.352l-2.88,0.852l-4.126-1.271l-3.59-2.028l-1.144-2.744l-2.686,2.505l-1.513-5.984l0.642-2.156l0,0l1.246-1.537
		l-0.204-5.089l1.937-5.031l0,0l4.16,1.532l1.674-2.218l0.199-1.586l2.739,0.886l0.452-0.881l-0.89-0.292l3.45-2.958l0.603,1.197
		l0.068,4.276l3.235-1.708l2.904,6.097l4.666-1.698l0.744-2.802l0.657-0.438l1.343,1.022l1.654,0.048l1.144,1.104l2.072,0.258
		l2.034,4.155l1.017,0.287l1.581-1.679l2.89-0.219l-1.649-7.502L183.084,129.684z"/>
	<path id="BG-28" fill="#1E3250" stroke="#1E3250" stroke-width="0.5" d="M205.922,99.509l3.999,4.549l6.174,11.916l3.425,0.272
		l-0.925,2.321l-3.508,0.598l-0.623,0.735l0.472,2.062l3.819,4.301l-0.773,2.452l1.207,3.017l-1.357,1.601l0.165,1.031l4.885,4.676
		l0,0l-0.696,0.141l0.233,1.28l-0.944,1.343l-1.26,0.107l0.137,1.109l-1.061,1.489l-4.379,0.457l-1.294,1.357l-2.579-1.304
		l-1.717,2.014l-4.155-0.481l-1.98-0.896l-3.001,3.401l0,0l-3.639-5.473l0.034-1.348l1.188-1.153l0.219-6.694l-1.767,0.194
		l-0.758-1.343l-1.893,0.448l-1.221-0.973l-1.197,0.686l-2.905-0.759l-1.596-1.455l-3.566-1.503l0,0l-1.751-1.09l0,0l2.812-6.276
		l0.307-3.927l-0.409-0.803l-2.048,1.718l-1.08-2.394l2.009,0.759l-0.131-2.885l0.642-0.404l3.289,0.91l0.71-0.978l1.995-0.258
		l2.204-2.399l-0.166-1.061l-0.924-0.632l1.931-1.591l2.662,0.438l4.267-2.666l2.355-0.238l1.382-2.218l1.021,1.124l1.406-1.756
		l0.015-1.941l-0.915-2.17L205.922,99.509z"/>
	<path id="BG-27" fill="#1E3250" stroke="#1E3250" stroke-width="0.5" d="M221.403,34.602l4.325-1.484l2.681,3.308l2.087-0.083l0,0
		l1.212,1.44l2.199,0.307l2.073,2.885l0.73,0.282l3.381-1.971l1.26,2.311l0,0l-0.954,1.362l-4.637,1.479l-0.005,1.722l1.289,0.574
		l-0.934,2.447l0.915,0.2l0.224,0.861L234.773,54l0.491,5.269l-0.934,0.837l-1.338-0.428l-0.219,0.579l1.723,6.812l-4.37,2.579
		L229.64,71.5l1.202,1.314l0.759,4.257l-6.588,1.406l-1.304,1.236l2.448,2.714l-0.137,1.902l0,0l-2.442,0.282l-3.522,1.893
		l-2.452-1.839l-2.7,0.53l-1.898-0.798l-3.912,0.175l-3.074,2.179l-3.703,0.029l-0.248-1.917l-3.041,0.117l0,0l-0.584-0.706
		l0.268-1.372l3.124-2.763l0,0l1.562-0.779l-0.019-2.228l2.579-2.642l-1.324-4.705l1.937-0.131l1.051-2.953l2.827-2.982
		l-0.239-1.226l-1.586-1.45l-0.321-3.825l0.599-0.773l0,0l2.068-2.121l-2.365-2.043l-0.155-1.708l3.172-3.065l-0.15-2.943
		l2.783-2.364l0.457-2.058l2.778,0.788l1.567-1.98l2.087-1.032l0.715-1.075L221.403,34.602z"/>
</g>
</svg>
