<?xml version="1.0" encoding="utf-8"?>
<!-- Generator: Adobe Illustrator 15.0.0, SVG Export Plug-In . SVG Version: 6.00 Build 0)  -->
<!DOCTYPE svg PUBLIC "-//W3C//DTD SVG 1.1//EN" "http://www.w3.org/Graphics/SVG/1.1/DTD/svg11.dtd">
<svg version="1.1" id="Layer_1" xmlns:amcharts="http://amcharts.com/ammap"
	 xmlns="http://www.w3.org/2000/svg" xmlns:xlink="http://www.w3.org/1999/xlink" x="0px" y="0px" width="358.304px" height="384px"
	 viewBox="0 0 358.304 384" enable-background="new 0 0 358.304 384" xml:space="preserve">
<defs>
	
	
		<amcharts:ammap  projection="mercator" leftLongitude="13.492149" topLatitude="46.542610" rightLongitude="19.400320" bottomLatitude="42.403920">
		</amcharts:ammap>
</defs>
<g>
	<path id="HR-01" fill="#1E3250" stroke="#1E3250" stroke-width="0.5" d="M157.062,68.901l1.29,3.69l0.994,0.829l2.279-1.164l0,0
		l3.8,2.153l1.208-0.407l0.857,0.648l0.208,1.12l1.213,0.577l0.27,2.405l1.933-1.142l0.461,0.769l1.647-0.214l3.031,3.146
		l0.796-0.587l1.252,0.791l1.729-0.874l2.109,0.5l0,0l0.34,4.272l-0.966,2.169l0.313,1.23l-1.038-0.78l-1.494,0.423l-0.329-0.934
		l-0.384,1.071l-1.917,0.933l0.226,2.114l-1.565-0.912l-4.003,0.39l0.428,1.115L171,92.926l1.181,0.901l-1.093,2.702l2.218,1.675
		l1.73,0.033l0.84,2.016l0.829-0.341l1.263,1.664l0,0h0.044l0,0l-1.543,3.701l-2.63,0.637l-4.037,4.234L168.809,108l-2.339-0.675
		l-1.285-2.499l-2.433,0.61l-0.549-2.021l-2.493,1.214l-0.67,1.136l-0.829-0.444l-1.779,2.098l-5.887-3.114l-4.25,5.574l2.158,2.169
		l-0.022,5.843l-1.411,1.164l-2.065-2.79l-1.356-0.39l-1.779,1.466l-3.037-0.181l0,0l-0.132-0.017l0,0l-0.812-1.01l0.302-2.29
		l-1.07-1.29l-1.796,0.099l-0.132-1.34l-1.647-0.154l-2.592,2.174l-2.784-3.312l0.247-2.921l-1.137,0.956l-6.37-2.823l-4.667,3.882
		l-0.472-0.845l0.73-1.703l-1.675-0.028l0.308-2.603l-3.075-1.747l-1-2.559l-1.861-0.214l-0.896-2.13l-3.366-1.56l0.56-2.812l0,0
		l3.717-1.834l3.526-0.208l-0.423-1.752l1.433-1.005l0.631,0.785l1.334-0.121l0.774-2.026l1.208,0.807l0.703-1.12l3.964,2.674
		l1.324-1.691l2.246-0.302l-1.148-1.439l-0.264-3.311l1.549-1.598l0.027-3.91l0,0l3.059-0.033l0.456,0.675l0.752-1.801l1.895-0.022
		l4.882,2.427l2.389,2.24l0.176,1.823l0,0l-6.392,4.201l-0.956,1.834l0.978,3.3l-1.148,1.417l2.977,1.966l-0.396,1.653l-0.978,0.758
		l-2.696-1.746l-1.702,2.312l0.472,2.092l5.069,2.411l2.042,2.016l-0.198,1.812h2.054l1.153-0.956l1.955-4.157l0.5-3.262
		l1.356-0.247l0.648-2.257l5.837-3.668l0.593-1.269l3.042,0.867l0.28-2.696l1.686-0.873l-1.741-4.025l-1.384-0.637l-0.093-3.245
		l-1.274-2.636l0,0l0.071-1.691l1.823-1.345l-0.274-1l1.9-0.318l-1.043-2.554l1.225,0.121L157.062,68.901z"/>
	<path id="HR-02" fill="#1E3250" stroke="#1E3250" stroke-width="0.5" d="M134.85,52.098l0.812,3.438l2.587,0.862l0.851,1.587
		l2.301,0.527l0,0l2.372,0.708l0,0l3.745-0.807l1.165,0.121l0.461,1.115l1.823,0.071l1.115-1.642l1.878-0.698l0.478,0.566
		l-0.73,0.824l3.021,0.313l-0.944,1.291l1.229,1.582l-0.681,4.833l0.73,2.114l0,0l-2.021,1.45l-1.225-0.121l1.043,2.554l-1.9,0.318
		l0.274,1l-1.823,1.345l-0.071,1.691l0,0l-2.186-0.049l-0.384,1.043l-1.922,0.198l-7.194,3.844l0,0l-0.176-1.823l-2.389-2.24
		l-4.882-2.427l-1.895,0.022l-0.752,1.801l-0.456-0.675l-3.059,0.033l0,0l-0.384-2.455l1.729-3.559l-0.961-1.23l-3.157-0.906
		l-0.67-1.367l-1.472-0.121l-0.956-2.181l0.407-1.724l-0.83-0.747l0.978-0.566l-0.555-0.873l2.318-2.015l0.197-2.438l1.769-0.868
		l2.773,0.945l1.214-0.428l-0.011,0.884l0.934,0.104l1.938-2.394l-0.467-1.439L134.85,52.098z"/>
	<path id="HR-03" fill="#1E3250" stroke="#1E3250" stroke-width="0.5" d="M133.471,137.182l-2.504-2.263l0.615-2.125l1.159-0.807
		l-2.279-4.563l0.308-1.312l3.075-1.686l-0.648-3.547l0.912-2.268l-1.033-0.511l1.06-1.263l2.164-0.89l1.895,1.697l0.456-0.5l0,0
		l0.132,0.017l0,0l3.037,0.181l1.779-1.466l1.356,0.39l2.065,2.79l1.411-1.164l0.022-5.843l-2.158-2.169l4.25-5.574l5.887,3.114
		l1.779-2.098l0.829,0.444l0.67-1.136l2.493-1.214l0.549,2.021l2.433-0.61l1.285,2.499l2.339,0.675l0.994,2.147l4.037-4.234
		l2.63-0.637l1.543-3.701l0,0l0.099,0.005l0,0l2.082-0.396l0.34,1.159l2.993,0.665l0.884,1.79l3.635,0.286l1.049,4.218l2.224,1.438
		l0.862,1.878l-0.785,1.378l-1.225-0.335l-0.362,0.583l1.367,1.219l0.923-0.516l2.361,2.636l1.422-1.142l0,0l1.225,2.048
		l2.251-0.028l1.121,0.912l0.758,2.328l1.247-0.961l-0.148-1.186l0.774,0.143l0.396,1.247l-1.065,2.131l3.652,1.658l1.197,2.273
		l2.427-0.396l0,0l-0.017,4.448l-3.542,3.498l-2.285,0.917l-0.467,1.279l2.411,1.906l1.867,3.608l0,0l-5.381-3.141l-0.835-1.922
		l-1.51,0.785l0.647-1.647l-0.873-0.187l-0.686,1.351l-0.961-0.511l-2.004,0.104l-0.198-1.4l0.972-1.021l-1.175-1.548l-3.086,3.564
		l-0.582-0.33l-1.911,1.653l0.494,1.68l-1.356,0.802l-5.042-1.785l-2.076,0.851l-5.315-2.707l-2.724,0.73l-1.23-0.483l-2.262,1.433
		l-1.697,5.437l-3.772,2.339l0.456,1.752l-2.63,4.761l-0.154,2.285l-2.532,0.286l-4.717-0.873l-0.456-1.538L151,149.06l-3.745-1.774
		l-2.351-5.942l-1.763-0.137l0.758-1.274l-0.406-1.373l-2.581-1.269l-2.092,1.576l-0.714-2.191l-1.702,0.203l0.082,0.851
		L133.471,137.182z"/>
	<path id="HR-04" fill="#1E3250" stroke="#1E3250" stroke-width="0.5" d="M105.443,92.915l-0.56,2.812l3.366,1.56l0.896,2.13
		l1.861,0.214l1,2.559l3.075,1.747l-0.308,2.603l1.675,0.028l-0.73,1.703l0.472,0.845l4.667-3.882l6.37,2.823l1.137-0.956
		l-0.247,2.921l2.784,3.312l2.592-2.174l1.647,0.154l0.132,1.34l1.796-0.099l1.07,1.29l-0.302,2.29l0.812,1.01l0,0l0,0l0,0
		l-0.456,0.5l-1.895-1.697l-2.164,0.89l-1.06,1.263l1.033,0.511l-0.912,2.268l0.648,3.547l-3.075,1.686l-0.308,1.312l2.279,4.563
		l-1.159,0.807l-0.615,2.125l2.504,2.263l0,0l-4.481,4.733l1.186,4.261l-2.07,4.031l2.202,4.701l0.099,2.564l-1.906,0.352
		l-0.802,3.163l0,0l-1.538,1.23l-2.916-1.966l-2.877,1.169l-2.455-2.608l-2.081,2.751l2.01,2.526l-0.396,0.807l-2.273-2.812
		l-4.3-0.906l-4.36-6.43l-3.58-1.274l-0.851-1.554l-4.514-3.29l-0.703-1.922l-2.004,0.719l-1.291,1.911l-2.664-0.873l-1.356-1.856
		l-3.196-1.318l0,0l-2.323-3.46l0.95-2.888l0.022-3.888l-1.356-1.631l1.121-0.752l0.577-2.394l1.384-0.571l1.093,1.669l2.51,0.214
		l0.192,1.104l0.961,0.28l1.269-1.769l3.097-0.812l-0.242-1.444l3.092-5.403l-0.236-2.581l0,0l1.17-2.142l1.642-1.016l3.317,1.043
		l3.185-2.806l-4.833-3.965l-0.153-3.789l-1.23-1.675l1.725-0.769l-0.28-1.434l2.768-0.489l-0.225-0.807l2.301,0.708l1.147-0.868
		l-2.147-3.459l-1.147,1.444l0.785-1.872l-0.324-1.56l-1.033,0.028l-1.104,1.411l0.115,1.829l-0.643-1.982l-0.714,0.868
		l-0.851-1.829l-2.515-0.95L105.443,92.915z"/>
	<path id="HR-05" fill="#1E3250" stroke="#1E3250" stroke-width="0.5" d="M153.114,43.053l1.45,0.631l2.74-0.895l0.763,1.318
		l0.988-0.176l0,0l2.301,1.208l1.763,2.916l2.081,0.011l0.67,0.764l2.048-1.098l0.362,1.027l3.196,0.665l0.099-0.583l1.62,0.088
		l1.032-1.411l2.493,1.906l4.371-1.143l1.191,1.115l1.9-1.422l-0.313,1.554l2.196,0.412l0,0l-0.236,3.712l-4.421,4.635l-2.702,0.209
		l-1.62-0.741l-3.91,2.108l0.324,1.296l-6.436,0.362l-0.412,1.192l-2.69,1.889l-2.34,7.655l0,0l-2.279,1.164l-0.994-0.829
		l-1.29-3.69l0,0l-0.73-2.114l0.681-4.833l-1.229-1.582l0.944-1.291l-3.021-0.313l0.73-0.824l-0.478-0.566l-1.878,0.698
		l-1.115,1.642l-1.823-0.071l-0.461-1.115l-1.165-0.121l-3.745,0.807l0,0l-2.372-0.708l0,0l-2.301-0.527l-0.851-1.587l-2.587-0.862
		l-0.812-3.438l0,0l2.032-1.549l2.614,0.017l2.032-1.757l1.922-0.017l1.334-1.911l1.993-0.198l-1.038-3.932l3.24,0.346l1.829-1.917
		L153.114,43.053z"/>
	<path id="HR-06" fill="#1E3250" stroke="#1E3250" stroke-width="0.5" d="M191.526,46.139l0.934,0.945l0.357,4.833l3.838,2.916
		l1.121-0.203l0.198,1.499l2.015,0.308l4.152,2.85l1.092-0.154l1.318,1.56l1.9-0.11l-0.017,0.923l1.302,0.637l-0.308,3.481
		l2.026-0.456l-0.165,1.225l1.269-0.017l-0.763,1.406l0.956,0.252l-0.22,1.538l2.224,0.285l-0.95,2.18l2.351,0.269l-2.104,1.049
		l1.34,1.026l1.378-0.077l-0.56,1.45l0,0l-4.695,0.148l-5.118,8.517l0,0l-3.224-2.081l-0.917-2.542l-3.707,0.45l0.527-2.065
		l-1.834-1.96l-4.031-0.302l1.779-2.987l-1.241-0.006l-1.763-3.047l0.214-1.34l-2.181-1.329l-0.691,3.35l-2.537,0.912l0.412-1.027
		l-0.763-0.362l-3.048,1.856l-0.928,2.938l-0.324,6.266l0,0l-2.109-0.5l-1.729,0.874l-1.252-0.791l-0.796,0.587l-3.031-3.146
		l-1.647,0.214l-0.461-0.769l-1.933,1.142l-0.27-2.405l-1.213-0.577l-0.208-1.12l-0.857-0.648l-1.208,0.407l-3.8-2.153l0,0
		l2.34-7.655l2.69-1.889l0.412-1.192l6.436-0.362l-0.324-1.296l3.91-2.108l1.62,0.741l2.702-0.209l4.421-4.635l0.236-3.712l0,0
		l0.989-0.511l0.302,0.763l0.807-1.049l0.286,2.076l1.324-0.197l1.345-5.481l0,0L191.526,46.139z"/>
	<path id="HR-07" fill="#1E3250" stroke="#1E3250" stroke-width="0.5" d="M182.142,81.142l0.324-6.266l0.928-2.938l3.048-1.856
		l0.763,0.362l-0.412,1.027l2.537-0.912l0.691-3.35l2.181,1.329l-0.214,1.34l1.763,3.047l1.241,0.006l-1.779,2.987l4.031,0.302
		l1.834,1.96l-0.527,2.065l3.707-0.45l0.917,2.542l3.224,2.081l0,0l3.448,1.735l0.862,1.982l2.537,1.873l1.823,0.346l0.615,2.658
		l1.603,0.368l0.132,1.39l0.956,0.434l0.565-1.356l0.988,0.873l-0.527,3.372l1.351-1.087l0.736,2.174l3.042-2.031l0.533,1.147
		l2.658,1.252l-2.801,5.008l0.011,2.081l-1.318,0.769l0.022,1.74l1.005-0.312l0,0l0.5,0.758l-0.736,3.146l-1.703,1.438l-2.625-0.445
		l-0.231-0.774l-3.564,0.44l-0.577,0.719l-3.355-0.099l-2.427-2.064l-1.241,1.427l-2.257-0.647l-2.312,1.504l-1.504-1.312
		l-2.065,1.23l-2.883-0.895l-0.379-2.317l-1.664,2.823l0.264,2.674l0,0l-1.422,1.142l-2.361-2.636l-0.923,0.516l-1.367-1.219
		l0.362-0.583l1.225,0.335l0.785-1.378l-0.862-1.878l-2.224-1.438l-1.049-4.218l-3.635-0.286l-0.884-1.79l-2.993-0.665l-0.34-1.159
		l-2.082,0.396l0,0l-0.143-0.005l0,0l-1.263-1.664l-0.829,0.341l-0.84-2.016l-1.73-0.033l-2.218-1.675l1.093-2.702L171,92.926
		l0.752-0.691l-0.428-1.115l4.003-0.39l1.565,0.912l-0.226-2.114l1.917-0.933l0.384-1.071l0.329,0.934l1.494-0.423l1.038,0.78
		l-0.313-1.23l0.966-2.169L182.142,81.142z"/>
	<path id="HR-08" fill="#1E3250" stroke="#1E3250" stroke-width="0.5" d="M60.227,198.312l1.747,1.477l-2.257-0.159l-0.593-0.95
		l0.752-0.824L60.227,198.312z M47.635,194.265l-1.324,1.104l-1.087-1.801L47.635,194.265z M44.752,180.432l0.406,1.862
		l-1.499-0.456l1.186,4.97l-2.647-1.861l0.896-0.483l-0.489-2.048L44.752,180.432z M48.343,178.334l2.96,1.538l0.28,5.876
		l2.751,4.931l5.233,4.75l-0.472,1.62l-4.492-3.772l-0.203-0.483l-0.33-1.351l-0.478-1.51l-0.434,0.373l-0.769-1.071l-0.939,1.609
		l-1.434-0.566l0.22-2.164l1.131-1.175l-2.4-3.3L48.343,178.334z M76.767,180.35l-4.25-4.481l3.268,2.68L76.767,180.35z
		 M67.283,171.459l4.619,3.767l-4.372-1.247l-1.34-1.801L67.283,171.459z M76.382,167.104l-0.401,2.092l-1.521-2.059L76.382,167.104
		z M70.249,167.17l1.384-0.088l0.675,0.812l-1.296,1.895l5.058,4.876l2.229,4.096l-1.757,0.368l-3.267-3.806l-4.025-2.734
		l-0.582-2.01l1.609,0.522l-2.763-3.355l2.548,0.785L70.249,167.17z M72.385,165.188l1.093,1.444l-1.905-0.104l-0.857-1.225
		l0.533-0.878L72.385,165.188z M73.208,160.613l2.191,1.417l1.142,2.542l-3.855-2.329l-0.181-1.719L73.208,160.613z M59.255,156.824
		l1.169,1.944l-1.01,0.087l-2.905-2.147l2.137-0.527L59.255,156.824z M47.487,141.476l1.79,0.747l0.763,1.389l-0.994,2.444
		l2.619,8.292l1.933,2.553l2.054-0.23l0.95,2.197l-1.456,0.208l-0.834,6.106l1.285,6.864l-0.945-0.439l-0.269,0.741l1.791,3.289
		l-0.89,1.444l0.812,2.63l2.015,2.493l-0.527,1.922l0.791-0.357l0.209,0.939l1.384,0.011l-2.664,2.323l-2.29-1.751l-3.822-5.536
		l0.352-4.009l-1.543-0.895l-0.208-3.8l-0.763-1.219l-0.978,0.286l-0.159-3.169l-1.642-4.695l-0.16-1.894l0.763-1.274l2.696,3.916
		l1.598,0.11l0.654-0.802l-1.005-2.438l0.434-1.055l1.406,0.752l-0.429-1.038l-0.966-0.039l-0.796-2.449l-1.532-0.956l0.521-1.96
		l-0.665-2.081l-2.455-1.362l-0.824-2.389l-0.824-0.385l-0.258-1.323l1.636-3.399L47.487,141.476z M61.006,135.82l1.565,0.296
		l0.587,1.043l-1.093-0.209l2.812,5.008l-1.444-0.417l-0.561,1.582l2.235-0.834l1.763,1.131l0.67,1.114l-0.972,3.355l0.604,1.115
		l1.669,1.032l0.84-0.51l1.592,1.411l-0.137,1.433l4.382,4.514l-0.703,1.291l-3.075-0.489l0.33,2.383l-1.433,0.346l-2.587-1.131
		l-0.647-1.246l-1.439,0.082l-1.84-1.12l0.291-4.926l-0.977,0.994l0.697,1.093l-2.339-1.016l-0.978,1.098l-2.048-0.225l-2.064-0.857
		l-3.031-3.35l-0.033-1.927l1.955-0.516l0.351-2.367l1.659,0.978l1.257-0.659l-0.258-2.114l1.34-1.34l-0.631-2.614l0.955-0.626
		l-0.829-2.301L61.006,135.82z M61.753,101.273l2.147,0.522l-1.038,2.943l5.486,4.047l-0.093,4.064l1.532-0.632l4.442,2.565
		l1.137,3.426l5.162-1.367l0.312-3.372l1.033-0.835l2.905,2.477l5.887,1.307l0.055,1.334l4.091,3.383l1.302,0.132l0.692-1.06
		l1.647,0.758l0,0l0.231,2.581l-3.092,5.403l0.247,1.444l-3.097,0.812l-1.269,1.774l-0.961-0.28l-0.192-1.104l-2.51-0.22
		l-1.093-1.669l-1.378,0.571l-0.582,2.394l-1.12,0.758l1.356,1.625l-0.022,3.894l-0.95,2.883l2.317,3.46l0,0l0.829,2.943
		l-1.153,1.861l-3.47,0.396l-0.516-1.345l-1.192,1.564l-1.296,0.204l-0.533,1.741l0,0l-2.164-5.091l0.286-1.598l-0.807,0.626
		l0.022-0.615l-1.143,0.099l-5.744-2.867l-3.383-4.157l-4.569-3.739l-0.549-2.674l0.939,0.087l-0.604-0.917l-1.856-1.202
		l1.279,1.861l-0.966,0.428l-2.559-1.378l-0.934-1.625l-8.66-3.262l-2.642,4.08l-3.18,12.345l0,0l-1.395-0.917l0.401-3.8
		l-0.878-3.619l0.357-3.613l1.158-1.329l-1.741-4.629l1.087-1.84l-4.344-2.762l-0.95-1.669l-0.011-2.383l0,0l4.926,0.604
		l1.005-2.449l1.307-0.434l1.032,1.587l1.302-0.549l2.317,1.845l5.068-2.916l0.857,0.22l3.201-2.488l0.862-5.486l1.867-0.599
		L61.753,101.273z"/>
	<path id="HR-09" fill="#1E3250" stroke="#1E3250" stroke-width="0.5" d="M79.858,198.669l4.223,4.25l-4.152-2.894l-0.774-1.181
		L79.858,198.669z M74.538,183.655l4.821,5.826l-0.862-2.746l2.175-0.467l-0.099,0.758l2.844,1.933l1.516,3.476l3.822,1.51
		l1.51,3.092l-1.757-0.906l0.072-0.736l-2.065,0.066l-0.423-1.285l-5.014-2.778l-0.011,0.779l1.027,0.264l6.139,7.304l0.516-0.736
		l-0.587-2.256l4.075,2.938l1.4,2.46l2.086,1.093l0.577,1.631l0.879-0.088l2.603,2.268l0.521,2.136l-4.91-3.459l3.685,3.685
		l-1.334,0.039l0.648,1.241l-4.958-2.295l2.383,3.421l-3.739-2.246l-1.071-1.625l0.736-0.829l-1.038-1l1.598-1.356l-1.95-1.576
		l-0.856-0.033l0.017,0.791l-1.51-0.324l-0.165-1.318l-2.428-2.96l-2.235-1.197l0.115-0.676l-0.95,0.494l-1.774-1.51l-0.439-0.961
		l1.203-0.28l-2.839-3.784l0.604-0.812l-5.299-5.689l-3.234-5.958L74.538,183.655z M86.355,145.292l3.202,1.318l1.351,1.856
		l2.664,0.873l1.291-1.911l2.004-0.719l0.697,1.928l4.514,3.289l0.852,1.554l3.58,1.274l4.36,6.431l4.305,0.906l2.273,2.817
		l0.39-0.807l-2.004-2.526l2.081-2.751l2.455,2.608l2.877-1.17l2.916,1.966l1.538-1.23l0,0l0.681,4.679l1.911,1.889l-1.62,1.389
		l-1.955,0.055l-0.368,0.911l3.52,5.508l2.279,2.086l4.585-2.01l1.406,1.972l1.96,0.829l1.098,3.108l3.146,1.521l1.411,3.399
		l-1.07,0.126l0.148,1.466l-1.751,0.428l1.23,2.515l5.392,2.718l1.066,2.806l-0.363,2.449l0,0l-2.531,0.906l0,0l-1.845-0.961
		l-0.154,2.499l-1.076-1.038l0,0l0.115-1.653l-1.807-2.306l0,0l-3.537-0.846l0,0l-2.96,2.614l0,0h-1.191l-0.346,1.192l-6.425,3.805
		l1.845,0.5l0.539,1l-1.422,1.691l0,0l0.538,1.076l0,0l1.922-0.039l0.654,1.076l-0.961,4.575l-1.038,0.691l-4.843,0.154l-3.191-1.5
		l-2.883,0.039l-1.653-0.807l-1.346-2.806l-2.312-1.763l0,0l-10.357-4.827l-1.988,3.976l0,0l-5.915-6.705l-2.812-2.026l-1.993-3.278
		l-6.277-4.822l-1.576-4.503l-3.696-5.266l-0.818-11.785l2.531-8.566l-0.494-1.746l-1.252-0.983l-0.834-3.756l0,0l0.532-1.741
		l1.296-0.198l1.191-1.565l0.516,1.345l3.471-0.396l1.153-1.861L86.355,145.292z"/>
	<path id="HR-10" fill="#1E3250" stroke="#1E3250" stroke-width="0.5" d="M219.401,76.611l-0.45,2.575l2.169-0.417l0.439,1.334
		l1.071-0.675l0.154,0.752l1.203,0.176l0.099-1.796l5.283,1.301l2.191-0.214l3.168,2.724l2.422,5.404l4.229,0.626l1.087,1.46
		l1.181-0.39l1.933,1.038l0.615-0.494l2.169,3.619l1.735-1.812l1.323-0.061l0,0l1.208,4.574l3.668,1.34l1.653,6.453l1.071,0.17
		l-3.125,4.981l0.165,1.576l-1.57,0.687l-1.845,3.586l-2.823,1.34l0,0l-0.318-0.132l0,0l-5.349,0.681l0.785-0.758l-1.236-1.043
		l-8.49-1.39l-2.092-2.746l-1.378-0.154l-2.213-2.054l-1.082,0.017l-0.713,1.351l-2.263-1.845l-0.835,0.439l0,0l-1.005,0.312
		l-0.022-1.74l1.318-0.769l-0.011-2.081l2.801-5.008l-2.658-1.252l-0.533-1.147l-3.042,2.031l-0.736-2.174l-1.351,1.087l0.527-3.372
		l-0.988-0.873l-0.565,1.356l-0.956-0.434l-0.132-1.39l-1.603-0.368l-0.615-2.658l-1.823-0.346l-2.537-1.873l-0.862-1.982
		l-3.448-1.735l0,0l5.118-8.517l4.695-0.148l0,0l1.477-0.384l-0.829,1.56l1.076,0.203l0.308-2.334L219.401,76.611z"/>
	<path id="HR-11" fill="#1E3250" stroke="#1E3250" stroke-width="0.5" d="M249.51,116.341l0.632,2.521l2.531,0.423l4.536,3.746
		l2.531-0.143l2.197,1.17l0.208,2.416l-1.323,0.978l1.269,0.945l0.934,2.729l-2.367,2.625l0,0l-5.074-1.368l-5.129,0.121
		l-1.532,2.037l0.434,0.994l-2.235,2.828l-2.048-0.599l-1.136,1.68l0.51,0.549l-2.213,0.263l-2.619-1.01l1.071-1.4l-1.131-4.113
		l-7.045-0.742l-4.097-2.888l-0.912-2.499l-1.521-0.434l-3.317-3.389l-3.432,0.362l-0.27,1.159l-1.131,0.407l-4.306-2.032
		l-3.811,2.933l0,0l-2.427,0.396l-1.197-2.273l-3.652-1.658l1.065-2.131l-0.396-1.247l-0.774-0.143l0.148,1.186l-1.247,0.961
		l-0.758-2.328l-1.121-0.912l-2.251,0.028l-1.225-2.048l0,0l-0.264-2.674l1.664-2.823l0.379,2.317l2.883,0.895l2.065-1.23
		l1.504,1.312l2.312-1.504l2.257,0.647l1.241-1.427l2.427,2.064l3.355,0.099l0.577-0.719l3.564-0.44l0.231,0.774l2.625,0.445
		l1.703-1.438l0.736-3.146l-0.5-0.758l0,0l0.835-0.439l2.263,1.845l0.713-1.351l1.082-0.017l2.213,2.054l1.378,0.154l2.092,2.746
		l8.49,1.39l1.236,1.043l-0.785,0.758l5.349-0.681l0,0L249.51,116.341z"/>
	<path id="HR-12" fill="#1E3250" stroke="#1E3250" stroke-width="0.5" d="M209.714,126.61l3.811-2.933l4.306,2.032l1.131-0.407
		l0.27-1.159l3.432-0.362l3.317,3.389l1.521,0.434l0.912,2.499l4.097,2.888l7.045,0.742l1.131,4.113l-1.071,1.4l2.619,1.01
		l2.213-0.263l-0.51-0.549l1.136-1.68l2.048,0.599l2.235-2.828l-0.434-0.994l1.532-2.037l5.129-0.121l5.074,1.368l0,0l1.818,1.213
		l1.653-0.181l0.577,0.994l2.383,0.198l1.587,1.582l2.883-0.467l1.751-1.384l3.476-0.346l4.305,2.399l4.476,0.725l1.829,1.34l0,0
		l-3.003,5.415l1.048,2.224l1.159,0.362l0,0l0.873,1.538l-1.092,2.334l-0.384-1.307l-3.032-0.352l-2.734-3.536l-5.837,0.543
		l-0.774-1.115l-1.422,0.088l-0.39-1.532l-1.055-0.445l-2.487,1.296l0.549,2.104l-1.011,1.296l-4.695,0.071l-2.795-2.18l0.835-1.021
		l-0.917-1.708l-1.23-0.017l-0.714,1.334l-1.554-2.147l-1.241,0.521l-1.197,2.416l-1.812,0.571l0.22,2.153l-5.058,2.965
		l-10.17-7.221l-4.075,2.251l-1.241-0.703l-1.23,0.533l-0.318-1.686l-1.038,1.675l-2.625-0.017l0.466-2.18l-2.367,0.714
		l-0.159-2.641l-1.801,2.037l-3.075-0.263l-1.922-1.148l-0.033-1.142l-0.982,0.055l-0.066-0.988l-1.34,0.181l-0.691-1.005
		l-1.681,3.47l-3.806-0.121l-1.807-1.23l0,0l-1.867-3.608l-2.411-1.906l0.467-1.279l2.285-0.917l3.542-3.498L209.714,126.61z"/>
	<path id="HR-13" fill="#1E3250" stroke="#1E3250" stroke-width="0.5" d="M114.564,245.999l0.604,0.681l-1.065,0.126l-0.84-1.208
		L114.564,245.999z M101,233.512l3.19,1.631l1.949,2.234l0.929-0.126l0.818,2.345l3.723,3.235l-0.23,0.796l-3.8-2.208l0.011,0.599
		l-1.395-0.352l-0.478-1.697l-2.466-1.708l-3.196-4.58L101,233.512z M88.985,231.469l1.609,2.642l-1.79-1.23L88.985,231.469z
		 M90.095,228.328l3.948,4.2l1.164,2.499l-5.14-4.536L90.095,228.328z M91.33,223.874l5.02,3.466l0.867,2.152l2.96,2.285
		l-0.308,1.872l-1.763-2.641l-1.082,1.159l-4.734-5.903l-2.833-1.928l-0.137-2.219L91.33,223.874z M81.479,221.837l1.219,1.461
		l-3.246-2.351L81.479,221.837z M77.975,221.249l2.68,2.235l0.665,1.571l1.345,0.329l0.088,1.269l2.801,1.812l-0.011-0.703
		l0.687,0.324l-0.45,0.72l1.307,0.846l2.081,4.931l2.065,1.796l0.055-0.967l1.263,0.912l-0.236,0.708l3.021,2.411l0.252,1.109
		l2.845,1.653l-0.73,1.307l-2.515-1.153l-1.505-1.856l-0.571,0.362l3.987,3.35l0.055,1.077l-5.536-4.843l-6.288-10.099l-5.969-5.799
		l-0.774-0.434L78.634,225l-2.817-1.735l-0.308-0.878l0.736-0.637l0.132,1.466l1.499,0.808l-0.878-1.098l0.599-0.127l1.356,0.878
		l-1.274-2.855L77.975,221.249z M82.703,218.965l4.597,4.201l0.17,1.499l-3.273-2.405l-1.592-2.268L82.703,218.965z M74.751,213.968
		l4.19,3.581l0.33-1.043l0.884,0.599l-0.467,0.346l1.032,0.588l-0.922,1.131l-4.619-3.009l1.587,2.521l-0.714,0.236l-2.378-4.502
		L74.751,213.968z M68.738,211.826l1.625,1.214l-1.153,0.038l-1.114-1.114L68.738,211.826z M73.587,212.716l0.829,0.73l-0.807,0.533
		l-1.208-0.786l0.225,1.318l-1.79-1.906l1.367,0.192l-0.5-1.312L73.587,212.716z M87.777,209.103l3.553,0.944l1.96,1.977
		l-0.78,0.412l-0.022-0.807l-1.384-0.56l-2.499,1.147l-1.84-2.63l0.132-0.648L87.777,209.103z M64.323,208.268l2.746,2.548
		l-4.113-2.487l-0.851-1.378l0.5-0.429L64.323,208.268z M68.107,202.128l1.06,1.18l-0.225,2.06l1.071,0.533l0.379,1.345l-1.703-0.73
		l-0.725-2.449l-1.334-0.461l0.153-1.126L68.107,202.128z M74.186,201.733l0.906,1.339l-0.978,1.318l1.526,2.312l-0.346,1.043
		l-3.948-2.082l1.801-0.873l-0.972-2.981L74.186,201.733z M145.294,200.58l0.576,0.692l0.154-2.499l1.845,0.961l0,0l2.532-0.906l0,0
		l0.197,2.142l1.263,1.708l-2.729,0.406l0.264,1.323l4.755,1.681l0.478,0.917l-0.16,5.124l1.109,5.475l0,0l-3.091,1.038l0,0
		l-1.423,0.039l-0.691,1.499l-0.039,3.806l0,0l-1.307,1.038l0,0l-1.269,0.73l-5.42-2.499l-1.115-2.499l0,0l-1.076-0.077
		l-2.345,3.959l-2.46,2.499l-1.307,0.27l0,0l-0.692,1.614l-2.768-0.269l0,0l0.653,0.961l0,0l3.037,1.384l0.077,1.191l0,0
		l-1.038,1.384l0.538,1.23l-1.615,1.5l0,0l-1.384,0.384l1.478,2.12l-1.516,0.5l0,0l-1.203,0.669l0.774,0.802l-1.021,1.697
		l-1.318,0.659l0.055,1.889l0,0l-0.16,1.043l-1.916-1.093l0,0l-1.713-0.697l-2.427,1.147l-1.115-0.346l0,0l-1.878-1.691
		l-1.993,1.187l-1.466-2.042l-3.822-1.934l-0.675-1.872l-2.01-1.417l-3.635-4.97l-2.542-1.214l0.609-0.631l-1.488-0.757l-1.043-2.57
		l-2.312-1.406l-0.208-1.318l-1.032-0.258l0.368-1.159l-3.772-3.872l1.005-0.665l0.456-1.96l-3.212-2.46l0.835-1.471l1.114-0.039
		l2.016,3.037l1.839-1.346l-1.312-1.999l1.258,0.109l-0.247-0.917l4.3,3.679l0.934-0.329l-1.082-2.405l1.011,0.175l0.379-0.741
		l-2.548-2.581l0.785-0.983l2.933,2.241l0.093,0.95l4.157,2.658l2.416-0.33l3.443,0.972l0.5,3.251l-2.229,0.884l2.499,2.269
		l3.152-0.77l1.576,1.961l0.576,2.537l0.884-0.27l-0.922-4.189l-4.651-3.576l0.45-2.817l-1.839-1.021l-1.521,0.378l-3.377-3.416
		l-7.375-3.976l0,0l1.977-3.987l10.356,4.827l0,0l2.312,1.763l1.346,2.806l1.652,0.808l2.883-0.039l3.19,1.5l4.843-0.154
		l1.038-0.691l0.961-4.575l-0.653-1.076l-1.922,0.038l0,0l-0.539-1.076l0,0l1.422-1.691l-0.538-0.999l-1.845-0.5l6.425-3.805
		l0.346-1.192h1.192l0,0l2.96-2.614l0,0l3.536,0.846l0,0l1.807,2.307l-0.115,1.653l0,0L145.294,200.58z"/>
	<path id="HR-14" fill="#1E3250" stroke="#1E3250" stroke-width="0.5" d="M296.561,81.581l4.844,2.839l0.818-0.11l0.247-2.421
		l0.637,0.505l0.412,2.493l1.532,1.203l-0.341,4.464l1.955,2.191l1.318,5.596l3.273,2.361l-1.571,4.316l-2.021,0.615l0.648,1.203
		l-1.093,2.96l3.443,2.438l1.889-0.593l0.505-1.175l1.291-0.061l0.675,1.785l3.828,1.68l-1.032,2.219l-4.778-0.538l-0.61,3.284
		l0.544,1.06l0,0l-2.812,0.269l-1.927-2.63l-3.416-1.181l-0.286,0.736l-3.025,0.818l1.104,3.52l-1.093,0.082l-0.06,1.065
		l-1.456,0.313l-1.087-0.994l-5.941,1.972l-0.011,2.85l-1.494,0.835l0.384,2.207l-2.268,0.17l-0.961,1.51l-1.593-0.28l-1.571,0.956
		l-0.005,3.608l3.542,1.329l-0.444,2.394l-1.159,0.379l0,0l-1.829-1.34l-4.476-0.725l-4.305-2.399l-3.476,0.346l-1.751,1.384
		l-2.883,0.467l-1.587-1.582l-2.383-0.198l-0.577-0.994l-1.653,0.181l-1.818-1.213l0,0l2.367-2.625l-0.934-2.729l-1.269-0.945
		l1.323-0.978l-0.208-2.416l-2.197-1.17l-2.531,0.143l-4.536-3.746l-2.531-0.423l-0.632-2.521l0,0l0.313,0.126l0,0l2.823-1.34
		l1.845-3.586l1.57-0.687l-0.165-1.576l3.125-4.981l-1.071-0.17l-1.653-6.453l-3.668-1.34l-1.208-4.574l0,0l4.717-0.576l4.788,2.383
		l1.225-0.313l1.065-1.653l2.642,1.049l1.005-0.922l2.455,0.703l0.807,1.379l3.01,0.104l2.317,1.137l1.51-2.153l2.422,2.658
		l2.307,0.269l-0.077-1.983l2.021-0.34l0.527-2.301l1.729,0.9l2.098-1.62l0.895,0.214l-0.005-1.153l2.79-1.999l0.467-2.971
		l0.439,0.708l0.857-0.648l-0.697-1.033l1.686-1.872L296.561,81.581z"/>
	<path id="HR-15" fill="#1E3250" stroke="#1E3250" stroke-width="0.5" d="M120.522,260.26l2.955,0.648l1.312,1.768l2.581,1.125
		l-4.113-0.741l-1.785-1.982l-1.197-0.17l-0.252-0.95L120.522,260.26z M128.501,258.35l1.291,1.395l-1.68-0.664l-0.083-1.51
		L128.501,258.35z M134.383,258.465l0.763,2.806l-2.762-2.889l0.846,0.093l0.214-0.917L134.383,258.465z M124.097,256.795
		l3.07,2.142l-0.379,1.581l-1.351-0.714l-0.132-0.587l0.889,0.126L124.097,256.795z M128.99,255.999l1.17,0.978l-0.687-0.071
		l0.362,0.824l-1.4-1.576L128.99,255.999z M131.692,256.317l-0.78,0.39l-0.604-1.817L131.692,256.317z M120.226,248.294
		l-0.072,0.945l1.346,1.664l0.895-0.312l1.257,2.652l-2.323-0.752l-3.454-4.607l1.406,0.808l0.423-1.044L120.226,248.294z
		 M99.238,244.479l1.543,0.505l-0.483,0.873l7.32,6.667l-3.114-1.082l-1.57-1.099l0.099-0.752l-2.499-1.368l-2.224-3.284
		L99.238,244.479z M100.979,243.089l1.664,0.599l-0.675,0.143l0.647,0.73l1.093,0.143l0.06-1.077l3.158,5.217l-5.343-4.437
		l-1.049-0.105l-0.384-0.549L100.979,243.089z M161.725,225.725l1.56,2.279l3.278-0.071l0.873,4.162l3.361,0.269l2.251,5.305l0,0
		l-2.411-0.132l-2.746,1.911l-2.197,0.291l0.522,1.658l-3.537-0.456l-0.912,2.949l5.596,5.293l-5.107,3.976l0.675,1.576
		l-1.098,1.181l1.131,1.482l-1.669,1.878l-4.355-0.318l-1.043,1.472l-2.554-0.208l-0.67,1.817l-2.444,0.071l-1.73,2.762
		l-1.603,0.363l-1.686,1.823l0.73,1.845l1.548,0.258l0.368,2.049l-2.51,0.615l-0.346,1.362l-1.373,0.615l0,0l-0.956,1.071
		l0.017-0.939l-1.823,0.39l-1.098-1.099l2.218-0.802l-0.511-1.389l-1.032,0.214l-0.104-0.505l-1.977-1l1.125-0.422l-0.066-0.901
		l-1.455-0.033l0.78-1.213l-0.829-0.374l0.511-1.647l-0.774-1.192l3.3-0.368l-3.888-1.219l1.45-0.522l1.263,1.104l-0.181-1.477
		l-2.921-3.157l-0.741,0.351l-5.64-4.915l-2.18,0.401l-0.857-0.972l-2.004-0.033l-0.582-1.422l-2.564-1.362l-1.395-1.773
		l0.917,1.011l1.285-0.478l1.581,1.549l0.022-1.521l-3.234-2.169l-1.96-0.334l-0.862-1.478l-0.879,0.588l-0.126-0.802l1.444-1.456
		l1.878,1.691l0,0l1.115,0.346l2.427-1.148l1.713,0.698l0,0l1.916,1.092l0.16-1.043l0,0l-0.055-1.884l1.318-0.658l1.021-1.697
		l-0.774-0.802l1.203-0.67l0,0l1.516-0.5l-1.477-2.119l1.384-0.385l0,0l1.614-1.5l-0.538-1.229l1.038-1.384l0,0l-0.077-1.191
		l-3.037-1.384l0,0l-0.653-0.961l0,0l2.768,0.269l0.692-1.614l0,0l1.307-0.27l2.46-2.499l2.344-3.959l1.077,0.077l0,0l1.115,2.499
		l5.425,2.499l1.269-0.73l0,0l1.307-1.038l0,0l0.039-3.806l0.692-1.499l1.422-0.038l0,0l3.091-1.039l0,0l2.098,3.328l3.075,2.592
		L161.725,225.725z"/>
	<path id="HR-16" fill="#1E3250" stroke="#1E3250" stroke-width="0.5" d="M287.396,139.823l1.159-0.379l0.444-2.394l-3.542-1.329
		l0.005-3.608l1.571-0.956l1.593,0.28l0.961-1.51l2.268-0.17l-0.384-2.207l1.494-0.835l0.011-2.85l5.941-1.972l1.087,0.994
		l1.456-0.313l0.06-1.065l1.093-0.082l-1.104-3.52l3.025-0.818l0.286-0.736l3.416,1.181l1.927,2.63l2.812-0.269l0,0l1.373,1.137
		l-0.022,1.032l-2.691,2.927l2.855,2.576l3.888,0.846l1.099,3.141l7.913,4.135l8.407,0.896l-0.071,4.882l-2.301,0.33l-2.23-2.564
		l-1.339,0.126l-0.423,2.169h-1.296l-4.838-2.46l0.39,2.444l-2.312,3.383l-3.053,0.099l1.334,6.271l-1,1.043l-0.143,3.317
		l-2.351,1.466l3.394,0.538l1.647-0.818l0.697,2.043l-0.67,0.95l-2.197,0.939l-1.395,1.697l-3.91,0.56l0.791,3.723l-9.825,0.099
		l-4.986-4.129l0.472-1.191l-1.153-1.653l2.032,0.527l1.005-0.555l-1.142-2.015l0.561-2.021l-3.812-0.214l0.461-1.763l-3.844-3.614
		l1.061-1.164l-0.571-1.181l-1.191,0.577l-0.127,2.306l-2.746-0.675l1.587-1.675l-0.219-0.741l-1.236,1.125l-2.152-1.06l0.187,2.229
		l-0.588-1.236l-1.697-0.873l0,0l-1.159-0.362l-1.048-2.224L287.396,139.823z"/>
	<path id="HR-17" fill="#1E3250" stroke="#1E3250" stroke-width="0.5" d="M153.114,306.432l0.752,0.511l-0.758,1.049l0.561,0.241
		l1.334-1.241l1.312,0.681l0.786-0.637l-0.05,1.653l-1.384,1.697l-6.645,1.807l-2.482-0.055l1.263-1.225l0.049-1.153l-0.538-0.769
		l-0.994,0.527l-0.736-1.131l2.581-1.433L153.114,306.432z M182.016,305.059l2.773,0.917l-1.532,0.626l-2.927-0.561L182.016,305.059
		z M162.63,299.2l1.664,0.934l1.087-0.357l0.104,0.896l-2.038,0.203l-1.977-0.961L162.63,299.2z M174.685,294.791l0.582-0.033
		l-0.352,1.01l0.774,1.044l1.504-0.956l3.465,0.467l-0.165,1.142l1.938,1.521l-1.504-0.269l3.003,1.927l1.291-0.659l5.321,0.692
		l2.054-0.467l1.18,0.813l11.757,1.405l2.279-0.51l2.889,1.181l-4.695,0.862l-10.061,0.143l-9.258-1.219l-6.244,0.472l-6.947-1.46
		l-3.563-1.779l-0.786,0.467l-5.7-2.91l2.999,0.071l3.081-1.313l3.07,0.566l2.317,1.911l1.68-0.412l-1.153-0.412l-1.131-2.279
		l-1.011,0.593l-1.071-1.093L174.685,294.791z M167.936,282.391l5.925,0.077l13.108,2.433l0.137,0.654l0.9-0.423l1.142,0.637
		l0.143,0.467l0.577,0.631l0.521-0.769l3.405,2.493l-0.73,0.285l0.473,0.687l-0.747,0.248l-0.027,1.043l-0.966-0.296l-0.5,1.153
		l-3.646,0.714l-8.879,0.516l-6.002-1.12l-4.36-2.263l-0.521-0.373l-1.95-0.983l-0.11-1.34l0.944,0.895l1.312-0.236l-0.84-1.516
		l1.592-0.61l-1.757-2.443L167.936,282.391z M156.497,280.579l2.938,0.813l0.302,0.818l1.543-0.165l4.009,5.173l-1.027,0.203
		l-4.272-2.158l0.159-0.56l-5.848-1.988l-0.264-1.949L156.497,280.579z M147.727,277.372l0.456,0.665l-0.609,0.791l-1.917-0.857
		L147.727,277.372z M150.637,277.152l1.439,0.126l0.104,1.801l-3.361,0.291L150.637,277.152z M158.583,272.775l6.326,2.158
		l-4.399,0.401l-2.443-0.812l-1.521,1.032l-2.306-1.186l2.899,0.061l0.159-1.148l-1.038-0.4L158.583,272.775z M143.619,273.797
		l1.378-0.615l0.346-1.356l2.515-0.615l-0.368-2.049l-1.543-0.258l-0.725-1.845l1.686-1.823l1.604-0.357l1.73-2.762l2.443-0.072
		l0.67-1.817l2.553,0.214l1.043-1.472l4.354,0.319l1.669-1.878l-1.131-1.483l1.098-1.181l-0.675-1.576l5.112-3.976l-5.59-5.294
		l0.912-2.948l3.537,0.456l-0.522-1.659l2.197-0.291l2.746-1.911l2.411,0.132l0,0l9.242,7.825l0.483,3.262l1.482,2.432l3.427,1.532
		l1.565,2.735l4.481,3.942l7.814,10.165l1.724-0.115l4.239,4.081l4.613-0.182l1.818,1.236l1.494,3.135l-1.647,4.767l4.338,8.089
		l0.462,2.46l2.943,0.549l1.5,1.159l1.258,2.285l-0.286,1.664l0.829,0.209l0,0l-1.96,1.834l-2.889-0.714l-1.191,0.599l0.093,1.109
		l1.961,0.631l-0.033,1.582l-1.466,1.642l0,0l-0.78-1.444l-2.641-1.208l-1.713-1.884l-4.843-1.763l-3.509-2.664l-0.346-1.444
		l-1.56-0.505l-1.554-2.861l-9.264-10.187l-9.308-0.989l-1.933-2.361l-2.713,0.406l-6.645-4.591l-7.902-0.856l2.872-1.571
		l2.07,0.126l-0.33-0.747l-6.656-1.181l-3.3,2.026l-4.712,1.169l-4.442-0.708l-0.879,0.61l3.262,0.829l0.165,0.698l-3.547,1.702
		l-2.669-1.077l-0.439,0.763l-1.241-0.258l0.291-0.928l-1.593,0.368L143.619,273.797z"/>
	<path id="HR-18" fill="#1E3250" stroke="#1E3250" stroke-width="0.5" d="M14.708,161.124l1.895,1.494l-1.411,0.088l-0.176-0.846
		l-1.121-0.599L14.708,161.124z M29.941,114.035l2.883,2.208l2.636,0.242l0,0l0.011,2.383l0.95,1.669l4.344,2.762l-1.087,1.84
		l1.741,4.629l-1.158,1.329l-0.357,3.613l0.878,3.619l-0.396,3.8l1.395,0.917l0,0l-2.757,5.662l-0.703,0.714l-0.665-0.544
		l-0.401,0.939l0.708,0.719l-0.208,2.477l0.956,3.35l-1.307,2.285l-2.356-1.027l-2.399,2.043l0.467-1.999l1.214-0.516l-0.983-2.263
		l-1.318,0.071l-0.489-3.092l-0.45,3.388l1.751,0.456l0.423,1.274L32.588,157l-0.675,2.427l-0.126,0.785l-1.285,2.63l-1.252,0.978
		l-1.4-0.769l0.005,0.769l1.318,0.67l-1.428,3.542l1.356,2.949l-3.059,0.006l-2.251-2.142l-0.461,1l1.323,1.159l-0.187,2.153
		l-0.835,0.598l-0.181-3.223l-2.696-0.511l-0.467-0.665l0.714-0.752l-1.571-0.006l0.225-1.373l-2.224-1.021l-0.049-1.021
		l2.295,0.917l0.659-1.576l-1.702,0.527l-1.291-1.049l1.065-1.911l-2.888-5.684h-1.565l-1.411-1.867l0.115-1.087l-1.285-0.088
		l-0.06-2.175l-3.591-1.521l0.659-0.121l0.176-2.06l-1.96-1.46l-0.538-2.087l0.807-1.406l-1.263-1.39l0.895-0.313l-1.362-1.488
		l1.143-3.619l-1.554-1.697l0.543-1.032l1.23,0.033l-2.048-1.773l1.252,0.104l1.34-1.345l-3.114-0.071l0.22-0.599l-1.356-0.549
		l-0.071-1.79l0.956-0.516l-0.714-0.22l-0.368-3.251l-1.137-1.164l0.451-1.735l-0.774-0.313l-0.039-2.548l-1.065-1.335l0.714-1.219
		l1.329,0.296l8.418,4.695l4.272-2.279l2.554,1.043l0.697,2.021l3.619,0.681l1.823-2.197l2.351-0.401l1.186,0.719l0.874-0.719
		l0.23-2.191l-1.741-1.664l0.401-0.719l1.763,0.357l0.417-0.956L29.941,114.035z"/>
	<path id="HR-19" fill="#1E3250" stroke="#1E3250" stroke-width="0.5" d="M257.122,337.624l0.225,1.23l-1.928-1.07L257.122,337.624z
		 M254.189,336.97l0.636,0.686l-1.472,0.292l-1.395-1.169l0.813,0.214l0.527-0.878L254.189,336.97z M245.15,332.16l2.075,0.851v0.78
		l-1.944-1.406L245.15,332.16z M246.715,331.626l1.181,0.055l3.443,2.493l-0.176,1.851L246.715,331.626z M191.988,330.463
		l3.756,0.093l0.181,1.334l-1.894,1.944l-1.027,0.291l-1.065-1.071l-1.488,1.093l-1.625-1.944l0.692,0.208l0.544-2.422
		L191.988,330.463z M220.587,328.156l1.483-0.061l-1.461,0.725l0.429,0.434l3.487-0.061l8.869,3.256l0.153,0.648l2.455-0.083
		l0.412,0.648l1.065-0.522l0.159,0.834l4.322,1.241l0.28,1.554l-6.012-2.125l-7.766-1.219l-2.932-1.625l-0.829,0.669l-1.949-1.389
		l-1.176-0.319l-0.027,0.812l-3.268-1.417l0.187-0.89L220.587,328.156z M182.208,313.379l8.797,2.702l3.344-1.082l7.918-0.752
		l-0.148,0.533l3.685,1.147l1.466-0.362l1.384,2.757l2.438,0.851l-4.777,0.78l-4.129-1.312l-4.19-0.242l-6.304,2.686l-0.922-0.324
		l0.297-0.698l-4.465,0.17l-5.897-1.938l-0.379,1.043l-1.334-1.614l1.702-0.494l-0.357-0.78l2.702-0.302l-3.146-2.186l-0.555,0.874
		l-0.988-0.852L182.208,313.379z M200.022,309.172l3.525,1.713l5.557-0.126l7.523,1.774l8.111,3.954l0.356,1.829l2.295,1.439
		l2.235,0.543l-0.758-1.631l0.593-0.044l6.903,4.119l1.768,0.093l2.954,2.795l0.719-0.071l-2.564-2.581l-2.707-1.438l0.521-0.906
		l1.845-2.021l1.944,0.335l3.542,2.35l1.4-2.213l1.999,1.669l1.202,4.542l1.324,0.422l-0.302,1.824l3.322,0.895l2.57,1.615
		l0.703,1.697l1.895,0.417l3.657,2.735l-0.061,1.872l2.35,0.648l0.675,1.795l1.543-0.192l4.003,4.778l4.063-1.878l2.477,0.324
		l3.91,3.992l1.01,4.421l-0.489,2.202l3.866,4.415l-0.439,1.373l-3.146-3.723l-1.286-0.077l-10.977-8.018l-0.692-1.279l0.379-1.917
		l-1.246-1.724l-1.571,0.583l-3.092-1.977l-3.712-0.829l0.643-1.395l-11.054-7.205l0.625-1.911l-1.191,0.878l-1.323-2.114
		l-2.702-0.318l-0.73,1.56l-2.257-1.735l1.494,2.399l-0.566,1.318l-1.186-2.405l-1.779-0.302l-1.729-1.543l-1.115,0.318l-11.9-4.24
		l-1-0.587l1.247-1.324l-1.862-1.439l-3.179-0.203l-8.259-5.239l-4.745,0.566l-3.707-0.813l-3.009-1.719l1.06-1.378l-1.087-0.269
		L200.022,309.172z M226.644,300.31l9.231,5.639l4.091,9.017l-5.59,2.4l-4.36-0.033l-3.679-3.652l0.517-1.098l-1.236-1.735
		l-1.527,0.752l-0.505-4.047l-0.818,2.087l-3.438-4.069l0,0l1.466-1.642l0.034-1.582l-1.961-0.632l-0.088-1.109l1.191-0.598
		l2.889,0.713l1.96-1.834l0,0L226.644,300.31z"/>
	<path id="HR-20" fill="#1E3250" stroke="#1E3250" stroke-width="0.5" d="M165.558,31.032l4.997,1.834l1.812,2.323l7.452,1.389
		l3.569,5.711l0.956-0.593l1.428,1.675l2.175-0.5l3.174,2.668l0,0l-1.345,5.481l-1.324,0.197l-0.286-2.076l-0.807,1.049
		l-0.302-0.763l-0.989,0.511l0,0l-2.196-0.412l0.313-1.554l-1.9,1.422l-1.191-1.115l-4.371,1.143l-2.493-1.906l-1.032,1.411
		l-1.62-0.088l-0.099,0.583l-3.196-0.665l-0.362-1.027l-2.048,1.098l-0.67-0.764l-2.081-0.011l-1.763-2.916l-2.301-1.208l0,0
		l0.983-2.092l-2.081-2.564l-1.164-5.068l1.016-1.917l4.031-0.983l0.308-1.032l1.131-0.11l0.571,0.939L164.926,30L165.558,31.032z"
		/>
	<path id="HR-21" fill="#1E3250" stroke="#1E3250" stroke-width="0.5" d="M151.34,77.138l1.274,2.636l0.093,3.245l1.384,0.637
		l1.741,4.025l-1.686,0.873l-0.28,2.696l-3.042-0.867l-0.593,1.269l-5.837,3.668l-0.648,2.257l-1.356,0.247l-0.5,3.262l-1.955,4.157
		l-1.153,0.956h-2.054l0.198-1.812l-2.042-2.016l-5.069-2.411l-0.472-2.092l1.702-2.312l2.696,1.746l0.978-0.758l0.396-1.653
		l-2.977-1.966l1.148-1.417l-0.978-3.3l0.956-1.834l6.392-4.201l0,0l7.194-3.844l1.922-0.198l0.384-1.043L151.34,77.138z"/>
</g>
</svg>
