<?xml version="1.0" encoding="utf-8"?>
<!-- Generator: Adobe Illustrator 15.0.0, SVG Export Plug-In . SVG Version: 6.00 Build 0)  -->
<!DOCTYPE svg PUBLIC "-//W3C//DTD SVG 1.1//EN" "http://www.w3.org/Graphics/SVG/1.1/DTD/svg11.dtd">
<svg version="1.1" id="Layer_1" xmlns:amcharts="http://amcharts.com/ammap"
	 xmlns="http://www.w3.org/2000/svg" xmlns:xlink="http://www.w3.org/1999/xlink" x="0px" y="0px" width="652.333px"
	 height="404.321px" viewBox="0 0 652.333 404.321" enable-background="new 0 0 652.333 404.321" xml:space="preserve">
<defs>
	
	
		<amcharts:ammap  projection="mercator" leftLongitude="32.271509" topLatitude="35.695073" bottomLatitude="34.565124" rightLongitude="34.589764">
		</amcharts:ammap>
</defs>
<g>
	<path id="CY-01" fill="#1E3250" stroke="#1E3250" stroke-width="0.5" d="M174.6,142.45l13.29,4.11l0.89-1.24l7.19-0.29l1.15,1.08
		l5.62-3.89l-0.18,3.57l7.22,3.83l2.25-1.63l5.21,0.45l0,0l6.96-0.77l0,0l2.96,1.59l1.1-1.66l2.93,2.01l0.78-3.13l3.56,1.72
		l-1.2-1.79l0.86-0.86l3.24,2.81l5.78-0.54l3.06,2.1l1.07,3.63l3.92-0.7l0.86,1.31l0.63-3.48l2.33,0.35l0.39-2.42l1.57,1.02
		l3.09-1.66l5.55,3.73l0.81-1.53l6.59,1.21l2.17,2.39l1.33-1.4l12.56,0.54l16.35-4.18l0.47-5.93l3.48-3.92l8.61,0.64l4.08-1.72
		l3.82,0.89l-3.32,1.31l1.94,0.7l5.07-2.23l3.35,1.53l2.07-0.86l0,0l1.18,11.35l2.8,1.28l1.41,3.35l-4.24,2.81l3.43,14.85
		l-0.94,2.68l-6.54,6.53l2.49,4.68l9.44,1.53l1.73,4.23l0,0l-3.74,6.65l-9.13-2.13l-1.46-2.67l-3.82-1.05l-5.39,4.68l1.31,4.23
		l-5.42,4.1l-1.18,5.76h3.48l3.5,12.12l2.17,0.64l-0.21,2.61l-1.96-0.67l0.34,5.63l-3.4,2.48l0.58,4.67l-7.72-3.72l-5.86,4.61
		l-6.2-4l-3.66-0.6l1.31,7.37l-2.41,5.27l-2.41,1.33l-5.94-1.94l-8.58,2.67l-0.86-2.45l-3.92-2.41l-4.71,4.16l-0.99,3.94
		l-11.09,8.26l-3.9-0.06l1.44-0.83l-0.05-2.92l-3.74-0.22l0.58-1.9l-10.12,2.38l-0.84-2.83l-2.2-0.25l-1.2,1.56l-2.72-2.79
		l-2.04,1.94l0.58,2.35l-4.55,0.57l-4.68,4.76l0,0l-4.58-0.79l-1.44-2.6l-3.61-1.02l-3.74,0.41l-3.19,2.54l-3.4-2.67l-2.51-6.6
		l-8.55-3.24l-5.05-7.02l-9.52-1.49l-10.36,6.93l-5.86-1.56l-7.3,0.67l-2.15-2.67l-3.32,0.25l-12.01-5.4l-1.7,3.43l-3.98-0.06
		l-1.07,1.46l0.76,3.08l-1.99,9.62l0,0l-2.85,0.92l-0.13-2.64l-4.71-1.87l-1.86,1.37l-3.11,7.84l-6.46-2.54l3.61-2.92l-5.18-0.83
		l-1.02,5.49l-2.48-4.7l-2.64-1.62l-1.23-7.34l3.09-0.92l-0.18-4.35l1.91-3.21l-0.81-5.47l-2.33-0.57l2.35-3.05l-0.24-2.19
		l-1.86-3.88l-1.96-0.76l-1.7-5.66l-7.01-2.29l-2.93-7.03l-2.25-0.6l2.22-4.49l3.11,0.29l1.7-1.85v-10.76l-5.91-2.39l0.05-5.19
		l-4.81-2.36l-3.4-4.87l-4.37-2.99l0,0l6.04-2.74l3.95,0.16l4.68-4.56l1.88,1.15l3.43-1.88l6.54,0.22l2.59,2.33l15.77,2.23
		l1.57,2.17l9.94,3.66l3.17,3.18l7.93,3.69l3.87-0.8l11.17-6.05l4.53-4.87l3.82-7.65L174.6,142.45z"/>
	<path id="CY-02" fill="#1E3250" stroke="#1E3250" stroke-width="0.5" d="M131.41,256.98l1.99-9.63l-0.76-3.08l1.08-1.46l3.97,0.07
		l1.7-3.44l12.01,5.4l3.32-0.25l2.14,2.67l7.3-0.67l5.86,1.56l10.36-6.93l9.52,1.5l5.05,7.02l8.55,3.24l2.51,6.6l3.4,2.67l3.2-2.54
		l3.74-0.42l3.61,1.02l1.43,2.6l4.58,0.8l0,0l-1.59,7.42l4.08,0.54l0.96,1.78l5.05-0.38l4.89,2.76l5.97,0.54l6.83,6.41l1.49,4.37
		l5.28,2.99l4.16,7.48l-1.94,12.04l2.02,6.689l0,0l-1.21,3.131l-2.95,0.949l-17.13-0.25l-11.96-2.22l-21.71,7.98l-5.88,6.119
		l-2.7-0.069l-2.59,2.63l0.47,3.01l-2.01-1.399l-2.85,9.72l0.65,9.359l7.17,8.07l-2.25,1.521l-14.02-3.351l-2.54,1.67l-4.47-0.85
		l-3.66,1.29l1.93-2.49l-0.7-5.03l-3.82-8.859l-3.51-5.95l-9.28-9.021l-6.8-0.89l-1.47,1.9l-4.79-1.2l-1.28,1.64l-7.37-0.79
		l-4.56,2.351h-3.61l-3.87,3.16l-6.12-0.98l-1.46,2.56l-3.27,0.32l-6.59-3.58l-8.11-1.99l0,0l0.29-10.04l-2.04-4.21l4.73-2.25
		l0.76-4.529l4.63-0.54l4.73-5.101l4.95-1.33l1.2-6.62l1.28-0.57l-1.99-2.86l-3.37-0.7l0.26-2.4l-1.62-0.99l2.95-3.11l2.18,0.77
		l1.96-5.84l5.7-2.28l1.23-7.2l10.46-8.22l-0.42-3.72l-4.44-1.17L131.41,256.98z"/>
	<path id="CY-03" fill="#1E3250" stroke="#1E3250" stroke-width="0.5" d="M346.79,192.44l7.12-1.56l0.94,2.29l7.22,4.3l0.99,12.57
		l5.55-0.77l0.99-2.41l3.4-0.23l4.42-3.88l1.15,1.21l-2.9,6.81l2.17,3.69l6.78-4.3l3.5,2.1l0.21,3.37l3.98,2.45l0.1,2.61l3.609,0.41
		l-0.859,1.98l8,0.06l2.83,2.48l11.64-0.35l3.71,12.01l2.88,1.12l2.721-0.86l0,0l-2.801,4.89l-8.659,3.53l-7.301-6.39l-13.91-5.37
		l-11.28-0.76l-13.83,3.14l-6.02,4.17l-2.85,4.44l-1.31,3.94l1.31,2.04l-1.07-0.67l0.31,3.68l-1.36,0.92l0.03,15.34l-7.82,9.64
		l-1.52,6.09l-5.28-1.55l-8.19,0.44l-13.55,10.37l-1.15,2.82l-6.33,0.41l-11.28,3.78l-3.32,3.45l-5.78,1.459l-6.17,5.04l-6.18,0.061
		l-5.72,3.77l-2.46,0.061l0.94,1.109l-3.85-2.72l-4.21-0.16l-3.16,1.84l0,0l-2.02-6.689l1.94-12.04l-4.16-7.48l-5.28-2.99
		l-1.49-4.37l-6.83-6.41l-5.97-0.54l-4.89-2.76l-5.05,0.38l-0.96-1.78l-4.08-0.54l1.59-7.42l0,0l4.68-4.76l4.56-0.58l-0.58-2.35
		l2.04-1.93l2.72,2.79l1.2-1.55l2.2,0.25l0.84,2.83l10.12-2.39l-0.57,1.91l3.74,0.22l0.05,2.92l-1.44,0.83l3.9,0.06l11.09-8.25
		l0.99-3.94l4.71-4.16l3.92,2.41l0.87,2.45l8.58-2.67l5.93,1.94l2.41-1.34l2.41-5.27l-1.31-7.37l3.66,0.6l6.2,4.01l5.86-4.61
		l7.72,3.72l-0.58-4.68l3.4-2.47l-0.34-5.63l1.96,0.67l0.21-2.61l-2.17-0.63l-3.5-12.12h-3.48l1.17-5.76l5.42-4.1l-1.31-4.23
		l5.39-4.68l3.82,1.05l1.46,2.67l9.13,2.13L346.79,192.44z"/>
	<path id="CY-04" fill="#1E3250" stroke="#1E3250" stroke-width="0.5" d="M606.95,5.23l-4.21,8.08l0.47,4.78l-3.03,4.39l-7.189,0.77
		L591.94,25l-4.71,0.13l-4.58,3.75l-7.511,1.44l-10.96,8.17L560,49.85l-2.59,0.51l-5.44,5.15l-5.54,1.73l-17.92,16.63l-25.56,11.38
		l-14.12,9.43l-14.811,15.97l-1.489,8.94l-2.851,3.99l-13.52,2.2l-3.84-2.2l-5.65,0.8l-8.87,6.64l-9.989,16.94l-0.971,15.65
		l3.11,8.63l-0.42,2.42l1.05,2.33l1.99,0.32l4.029,8.34l3.141,0.45l0.37,1.15l-1.75-0.38l1.05,1.31l1.6-0.35l1.62,5.63l7.11,10.18
		l9.91,7.86l7.529,11.13l2.561,1.11l-0.08,3.12l3.899,5.05l-2.199,1.88l1.67,4.16l2.3,0.54l0.5,1.56l-0.58,1.65l-2.56-2.7
		l-2.48,1.88l-3.11-2.96l-6.72-2.03l-3.479-2.77l-8.71,0.38l-3.171-1.94l-3.43,0.6l-0.39,1.97l-1.83-0.64l-12.42,4.04l0,0
		l-2.72,0.86l-2.881-1.11l-3.71-12.01L406,225.62l-2.83-2.48l-8-0.06l0.86-1.97l-3.61-0.41l-0.1-2.61l-3.98-2.45l-0.21-3.37
		l-3.5-2.1l-6.77,4.29l-2.17-3.69l2.9-6.81l-1.15-1.21l-4.42,3.88l-3.4,0.22l-0.99,2.42l-5.55,0.76l-0.99-12.57l-7.22-4.3
		l-0.94-2.29l-7.12,1.56l0,0l-1.73-4.23l-9.44-1.53l-2.49-4.68l6.54-6.53l0.94-2.68l-3.43-14.85l4.24-2.81l-1.41-3.35l-2.8-1.28
		l-1.18-11.35l0,0l-1.65-4.34l17.89-7.47l1.78-2.62l2.54,0.77l6.36-1.79l0.81-2.3l2.41-0.64l0.37-2.23l-4.11-1.25l-0.76-3.29l0,0
		l1.05-1.47l2.43,0.51l5.39-2.4l5.99-5.84l16.64-8.21l20.51,0.22l7.77-2.46l2.561-2.36l2.56,0.58l4.94-1.76l0.47-1.41l3.87,0.19
		l4.26-3.23l6.51-0.38l13.311-7.83l4.87-0.93l9.16-7.29l2.069,0.54l9.811-3.55l7.689-11.2l3.74-1.79l2.04-5.38l3.87,1.76l3.319-0.06
		l1.2-1.54l1.36,1.92l1.78-1.73l2.54,1.25l5-4.51l3.189,0.16l4.5-3.04l2.67,1.18l7.87-5.12l1.78-4.07l1.8,1.15l3.17-3.07l0.18-4.1
		l5.73-0.93l4.34-3.3l6.38,0.13l8.03-6.57l5.91,0.99l4.84-2.47l2.62,0.38l3.609-3.11l0.24-2.4l4.94,1.76l3.609-2.34l1.73-3.27
		L606.95,5.23z"/>
	<path id="CY-05" fill="#1E3250" stroke="#1E3250" stroke-width="0.5" d="M75.91,173.37l2.12,0.19l0,0l4.37,2.99l3.4,4.87l4.81,2.36
		l-0.05,5.19l5.91,2.39v10.76l-1.7,1.85l-3.11-0.29l-2.22,4.49l2.25,0.6l2.93,7.03l7.01,2.29l1.7,5.66l1.96,0.76l1.86,3.88
		l0.24,2.19l-2.35,3.05l2.33,0.57l0.81,5.47l-1.91,3.21l0.18,4.35l-3.09,0.92l1.23,7.34l2.64,1.62l2.48,4.7l1.02-5.49l5.18,0.83
		l-3.61,2.92l6.46,2.54l3.11-7.84l1.86-1.37l4.71,1.87l0.13,2.64l2.85-0.92l0,0l0.86,4.92l4.45,1.17l0.42,3.71l-10.46,8.22
		l-1.23,7.2l-5.7,2.28l-1.96,5.84l-2.17-0.76l-2.96,3.11l1.62,0.98l-0.26,2.41l3.37,0.7l1.99,2.85l-1.28,0.57l-1.2,6.621
		l-4.94,1.329l-4.73,5.101l-4.63,0.54l-0.76,4.53l-4.73,2.25l2.04,4.21l-0.29,10.04l0,0l-9.44-3.171l-5.49-4.59l-9.63-4.91
		l-6.17,0.03l-4.05-3.1l-5.39,1.3l-12.01-9.76l-3.71-0.32l-4.94-6.56l-4,0.25l1.73-3.68l-1.46-5.93l-1.86-1.59l-1.44-15.67
		l-1.78-2.32l-3.3-0.1l-0.42-2.35l-1.52,1.02l-0.34-1.84l-3.19,0.16l-1.57-4.95l-6.57-8.48l2.33-3.24l0.05-4.64l-3.37-7.27
		l-2.72-0.86l0.03-2.64l1.75,0.57l1.28-1.91l-1.13-2.13l1.13-8.2l-4.68-6.87l-1.62,0.25l-4.63-9.95l0.39-12.98l0.81-3.15l2.41-2.01
		l4.55,4.58l0.44,2.48l14.18,11.48l11.01,2.64l7.93-1.94l12.84-9.51l6.98-10.85l4.42-10.79l4.29-2.83l2.83-6.63l1.26-0.51
		L75.91,173.37z"/>
	<path id="CY-06" fill="#1E3250" stroke="#1E3250" stroke-width="0.5" d="M173.61,101.66l9.02,3.16l7.35,6.45l9.65-0.13l8.79,4.25
		l8.5,0.35l4.47-4.57l1.1,1.56l3.45-0.35l9.5,4.21l3.82,0.42l3.06-2.52h2.64l10.07,4.44l3.87-2.01l4.53,1.92l3.48-1.18l3.69,2.07
		l7.25,0.1l4.6,2.17l3.56-0.83l2.59,1.05l1.81-1.4l1.28,1.28l10.91,0.77l9.68-1.66l4.58,1.44l13.71-4.47h8.97l10.67-4.47l1.44,1.69
		l10.04-1.37l0,0l0.76,3.29l4.11,1.25l-0.37,2.23l-2.41,0.64l-0.81,2.3l-6.36,1.79l-2.54-0.771l-1.78,2.62l-17.89,7.47l1.65,4.34
		l0,0l-2.07,0.86l-3.35-1.53l-5.07,2.23l-1.94-0.7l3.32-1.31l-3.82-0.89l-4.08,1.72l-8.61-0.64l-3.48,3.92l-0.47,5.93l-16.35,4.18
		l-12.56-0.54l-1.33,1.4l-2.17-2.39l-6.59-1.21l-0.81,1.53l-5.55-3.73l-3.09,1.66l-1.57-1.02l-0.39,2.42l-2.33-0.35l-0.63,3.48
		l-0.86-1.31l-3.92,0.7l-1.07-3.63l-3.06-2.1l-5.78,0.54l-3.24-2.81l-0.86,0.86l1.2,1.79l-3.56-1.72l-0.78,3.13l-2.93-2.01
		l-1.1,1.66l-2.96-1.59l0,0l-6.96,0.771l0,0l-5.21-0.45l-2.25,1.63l-7.22-3.83l0.18-3.57l-5.62,3.89l-1.15-1.08l-7.19,0.29
		l-0.89,1.24l-13.29-4.11l0,0l0.86-11.68l-1.1-11.58l-3.35-4.98l-0.37-14.47L173.61,101.66z"/>
</g>
</svg>
