<?xml version="1.0" encoding="utf-8"?>
<!-- Generator: Adobe Illustrator 15.0.0, SVG Export Plug-In . SVG Version: 6.00 Build 0)  -->
<!DOCTYPE svg PUBLIC "-//W3C//DTD SVG 1.1//EN" "http://www.w3.org/Graphics/SVG/1.1/DTD/svg11.dtd">
<svg version="1.1" id="Layer_1" xmlns:amcharts="http://amcharts.com/ammap"
	 xmlns="http://www.w3.org/2000/svg" xmlns:xlink="http://www.w3.org/1999/xlink" x="0px" y="0px" width="703.339px"
	 height="428.324px" viewBox="0 0 703.339 428.324" enable-background="new 0 0 703.339 428.324" xml:space="preserve">
<defs>
	
	
		<amcharts:ammap  projection="mercator" leftLongitude="12.090946" topLatitude="51.055243" bottomLatitude="48.551226" rightLongitude="18.859518">
		</amcharts:ammap>
</defs>
<g>
	<path id="CZ-JC" fill="#1E3250" stroke="#1E3250" stroke-width="0.5" d="M209.565,251.74l9.66-1.5l5.43,3.27l5.9-2.439l3.73-5.75
		l3.08,0.439l-0.07,3.891l4.76,0.18l7.64-0.59l1.56-4.28l4.31-0.49l5.19,5.5l7.44-1.439l-0.67-2.99l5.26,3.77l1.15-1.989l7.5,1.989
		l2.62-1.77l-0.65,3.56l4.69-0.17l1.14,2.221l3.24-4.841l4.8-1.43l-0.57-6.76l3.43-3.4l7.05,6.4l2.86-1.55l1.28,4.649l3.72,0.431
		l0,0l0.92,3.59l-3.8,1.3l2.96,4.36l-4.07,14.84l4.08,2.89l-2.64,3.15l6.77,8.02l4.61-2.95l6.73,3.74l-0.34,2.83l-2.3-0.56
		l4.36,0.77l1.46,3.59l4.62-2.069l5.56,4.27l8.09-1.55l-0.45,6.92l7.9,6.7l1.55-2.061l2.39,1.87l8.98-1.3l2.68,7.4l-3.93-0.25
		l-1.73,7.04l-4.18,3.85l8.89,6.71l0,0l-4.09,5.57l0,0l-6.53-6l-17.14-5.92l-1.56,5.67l-9.13,1.529l-0.41-6.97l-14.49-3.02
		l-1.06,23.699l-2.81,6.11l2.06,3.99l-15.07-1.41l-0.12,6.18l-7.34,6.38l-2.32,14.311l-3.32,0.07l-4.82-6.391l-4.52,3.32l-5.31-1.73
		l-2.96-4.239l-2.35,0.71l-1.23,7.42l-3.9-0.641l0.18,2.86l-2.84-0.33l-2.15,3.08l-5.62-3.99l-18.51-1.899l-5.11-6.011l4.45-4.779
		l-16.79-12.73l-5.56-0.93l-6.73-15.29l-5.99,0.83l-3.78-9.431l-1.92,1.511l-2.54-4.471l-2.68,0.351l0,0l-0.6-7.09l5.43-5.03
		l-1.42-12.47l3.77,1.399l5.77-3.76l-0.2-3.3l2.47-1.141l-2.45-3.979l3.31-4.61l-2.61-3l2.44,0.2l-0.41-4.53l4.51-1.949l1.64-5.5
		l-2.86-4.771l2.58-4.88l-3.47-7.24L209.565,251.74z"/>
	<path id="CZ-JM" fill="#1E3250" stroke="#1E3250" stroke-width="0.5" d="M560.625,343.01l-9.149,5.221l-8.51-4.03l-8.011,4.399
		l-3.909-4.229l-11.381-4.32l-13.649,15.01l-9.351,20.16l-2.029-0.85l-1.49-12.98l-9.2,1.63l-6.81-4.369l-3.881,1.34l-1.649-7.23
		l-6.32-0.149l-4.819-4.351l-8.25,1.92l-6.31,9.67l-3.43-2.42l-0.9,2.08l-20.69-1.87l-9.9-4.579l-3.89-3.631l0.61-2.46l-5.78-1.569
		l-4.89-5.841l-5.47,0.37l-2.42,3.181l-5.42-0.53l-6.74-5.59l-6.93-1.63l0,0l4.1-5.57l0,0l2.38-1.37l3.28,2.83l1.15-3.53l4.05-0.55
		l2.09,2.88l7.99-8.79l5.14,0.23l0.89-4.101l2.93,1.32l3.9-3.71l3.21,4.06l3.32-2.899l4.82,2.31l14.61-9.49l2.01-3.989l-0.91-2.12
		l-2.21,1.05l-0.87-3.78l4.36-4.95l-3.28-1.63l1.37-5.55l3.18-0.689l-2.58-4.67l2.73-4.631l8.8-4.77l-1.96-11.641l2.23-4.539
		l-3.23-3.25l2.89,0.89l2.96-4.25l-4.13-3.9l1.64-4.2l0,0l1.35,1.2l3.25-3.689l8.939,1.31l1.36-5.649l22.51,4.369l0,0l-0.82,3.521
		l-4.5-1.1l-0.81,5.42l8.72,1.6l-4.1,3.06l0.83,7.301l2.82,2.88l-2.881,3.31l5.7,4.271l4.7-7.271l-2.78-6.38l5.32-1.28l5.41,13.24
		l3.729,1.05l0.94-2.52l-1.771,5.729l9.721,5.261l1.76,6.939l0,0l-2.66,4.08l3.33,7.54l-1.83,2.1l5.101,0.141l-8.25,13.35
		l9.399-2.05l0.69,8.229l12.479,3.66l-0.58,3.82l3.681-0.58l3.489,4.38l5.86-2.42l4.64,2.94l-0.899,3.399l5.649,1.67L560.625,343.01
		z"/>
	<path id="CZ-KA" fill="#1E3250" stroke="#1E3250" stroke-width="0.5" d="M130.565,123.11l5.08,3.729l0,0l13.59,3.141l1.56,4.979
		l8.48-1.95l2.48,3.59l-1.42,13.11l3.05,2.21l-1.97,2.71l2.53,0.34l2.34,5.3l-1.95,1.511l1.54,2.81l-4.81,0.51l4,0.851l2.54,3.99
		l0,0l-1.79,0.04l-0.03,6.59l-4.4,0.42l0.06,7.31l-12.3-5.319l-12.44,8.579l0.55,4.28l-3.47,3.13l-12.62-2.72l-7.67,1.98
		l-2.03,4.829l-3.11-3.489l-4.66,3.189l-3.93-1.66l0,0l-7.21-5.34l1.67-5.26l-2.67-1.95l-2.56,1.48l-0.09-2.5l-9.34-4.221
		l-0.95-2.85l-5.1-0.78l1.26-2.54l-6.82-4.62l1.46-8.34l-5.93-9.47l-5.29-1.93l4.38-3.71l-3.54-5.971l7.54-0.58l1.48,7.03l4.89,0.25
		l1.01,2.87l-2.4,0.64l4.89,3.54l-0.34,6.21l4.25,0.57l-0.55-9.72l2.64-0.05l3.57-11.28l8.16-3.9l2.05-6.71l14.5-2.819l3.05,2.77
		l2.6-4.979l5.41-2.4l1.36,2.55l0.82-4.03L130.565,123.11z"/>
	<path id="CZ-KR" fill="#1E3250" stroke="#1E3250" stroke-width="0.5" d="M371.835,74.02l13.12,5.69l9.9-2.6l4.15,11.5l11.67-1.4
		l2.85,7.7l-3.19,2.37l3.3,2.06l7.18-9.13l7.63,5.05l2.83-0.96l1.45-5.27l9.78,1.31l9.21,11.84l-3.59,1.45l-0.34,5.75l-3.62,3.78
		l-4.32-0.72l-10.56,10.47l7.59,9.29l2.28-2.23l5.09,0.49l1.99,7.13l4.77,1.11l11.1,14.05l2.15,10.99l0,0l-8.46-3.17l-1.57,4.05
		l-11.67,6.08l1.09,2.26l-3.98,2.28l1.95,2.939l-7.62-0.3l-0.09-1.8l-4.59,2.31l-10.95-6.76l-1-3.55l-4.81,0.05l-1.74-6.41
		l-6.66-1.899l-7.42,5.66l-5.47-6.19l-7.81,6.95l-3.68-2.12l-5.62,1l-1.64-2.37l-4.12,2.06l-0.05,2.58l-7.18,1.65l0,0l-2.43-4.8
		l-6.08-0.811l4.34-7.01l-1.68-12.57l-2.43-2.239l-4.01,2.63l-9.01-1.971l0.85-3.31l-7.72-3.72l-2.51-4.521l4.88-4.399l-3.94-13.37
		l2.8-2.82l0,0l7.07,4.01l3.91-4.51l9.33,4.4l0.98-1.83l1.13,4.01l4.5-1.25l-0.5-4.65l3.67-3.52l5.3,4.64l8.71-1.29l-5.54-8.29
		l2.79-4.739l-3.33-3.25l0.78-14.011l-3.61-6.239l0,0L371.835,74.02z"/>
	<path id="CZ-LI" fill="#1E3250" stroke="#1E3250" stroke-width="0.5" d="M322.996,38.7l7.65,1.88l-0.01,3.08l3.35-0.311l2.46-4.04
		l1.84,5.71l4.63-2.619l4.63,6.399l-2.16,3.12l0.83,6l8.17,7.82l0.48,8.14l5.82-4.28l8.73,4.011l0,0l3.61,6.239l-0.78,14.011
		l3.33,3.25l-2.79,4.739l5.54,8.29l-8.71,1.29l-5.3-4.64l-3.67,3.52l0.5,4.65l-4.5,1.25l-1.13-4.01l-0.98,1.83l-9.33-4.4l-3.91,4.51
		l-7.07-4.01l0,0l-3.99-1.36l-3.25-5.47l-2.31,0.86l-3.07-5.62l-3.4,1.81l-3.93-3.85l-12.49,15.37l-5.48-1.24l-3.18,5.4l-9.09,0.989
		l-1.12-5.229l-2.74,2.11l-3.3-1.91l-0.88,2.43l-1.55-1.84l0,0l-9.37-13.42l-2.8-10.71l2.66-2.19l-0.05-4.14l4.72-2.23l-0.21-4.29
		l2.69-2.05l-1.23-4.42l9.79,1.94l1.48-5.73l4.63-2.92l0,0l13.51,5.57l2.67-0.4l3.03-7.32l15.36,0.931l-1.12-8.021l2.93-6.31
		l-4.83-3.34L322.996,38.7z"/>
	<path id="CZ-MO" fill="#1E3250" stroke="#1E3250" stroke-width="0.5" d="M568.695,141.5l-1.18,6.19l3.59,2.96l-0.58,4.17
		l-14.97,6.59l5.18,6.84l4.271-0.77l2.979,2.67l4.271,10.979l4.579,1.24l3.75,5.35l4.57-0.75l7.65-5.66l3.67,1.881l-0.061-4.391
		l-3.63-0.31l2.65-3.83l5.03,3.1l2.409,6.891l3.45,1.71l4.75-2.2l0.74,3.66l5.66,1.04l3.77,6.93l3.011-2.71l-1.69-1.99l8.71,1.48
		l5.34,4.76l7.561-2.42l-0.63,5.76l3.56,2.62l-3.12,4.7l4.96,14.689l7.561,2.511l2.97,3.97l6.189,0.34l4.4,17.2l-1.59,4.069
		l-7.66,4.29l-17.2-2.5l-8.14,13.721l-6.41,1.8l0,0l-3.58-1.28l0.11-3.7l-6.2-8.13l-8.76,0.13l-6.761-4.27l-11.699,2.34l-2.21-4.74
		l-5.23-0.1l0,0l-0.979-3.61l-4.561,1.82l0.82-4.13l-10.681-13.3l-4.81-0.051l0.4-8.14l-5.7-2.34l-3.43,2.57l-5.48-3.811
		l-1.35,2.891l-3.341-2.57l-4.89,0.39l-6.45-7.88l-3.05,2.01l-6.6-3.91l-3.16,1.091l0.78-5.74l-3.49,2l-3.47-4.67l4.76-11.19
		l-4.08-3.49l7.28-11.18l0.64-11.37l6.21-6.229l2.7,0.43l3.47-5.34l3.55,1.85l1.2-6.34l0,0l5.75-2.939l10.83,1.229l6.6-4.85
		l-0.02-3.84L568.695,141.5z"/>
	<path id="CZ-OL" fill="#1E3250" stroke="#1E3250" stroke-width="0.5" d="M494.485,121.21l5.19,3.68l12.239,1.88l3.021,3.4
		l5.46-0.68l-0.26,3.01l4.319,4.52l3.971,2.061l5.22-1.44l0.05,8.91l3.68-2.5l3.65,4.04l0,0l-1.2,6.34l-3.55-1.85l-3.47,5.34
		l-2.7-0.43l-6.21,6.229l-0.64,11.37l-7.28,11.18l4.08,3.49l-4.76,11.19l3.47,4.67l3.49-2l-0.78,5.74l3.16-1.091l6.6,3.91l3.05-2.01
		l6.45,7.88l4.89-0.39l3.341,2.57l1.35-2.891l5.48,3.811l3.43-2.57l5.7,2.34l-0.4,8.14l4.81,0.051l10.681,13.3l-0.82,4.13
		l4.561-1.82l0.979,3.61l0,0l-1.35,3.78l-5.24-1.61l-5.88,8.9l0,0l-0.47,2.939l0,0l-4.7-0.04l-2.511-3.479l-2.569,3.279l-1.41-1.68
		l0,0l-2.29,0.311l2.48,4.659l0,0l-1.921,2.23l-11.34-0.311l1.061,2.511l-3.79,3.949l-2.311-3.3l-6.68-0.189l-0.44-4.71l-3.25,4.26
		l2.021,5.53l-5.59,5.77l-9.03,0.72l-1.49,3.96l-1.71-0.939l0,0l-1.77-6.94l-9.721-5.26l1.78-5.729l-0.939,2.52l-3.73-1.05
		l-5.41-13.24l-5.31,1.271l2.77,6.38l-4.699,7.279l-5.69-4.27l2.87-3.311l-2.82-2.89l-0.83-7.3l4.09-3.05l-8.72-1.601l0.811-5.42
		l4.5,1.101l0.829-3.521l0,0l-0.1-7.82l3.88-3.529l0.11-4.9l-5.26-1.51l1.35-5.69l-6.17-8.609l2.86-6.46l-5.021-17.301l3.32,0.591
		l5.72-5.181l-0.61-10.76l5.44-12.729l0,0l10.03-6.5l2.1,4l2.63-1.91l-2.25-10.19l-5.06-1.859l-3.41-10.44l-4.58-2.59l2.02-4.99
		L494.485,121.21z"/>
	<path id="CZ-PA" fill="#1E3250" stroke="#1E3250" stroke-width="0.5" d="M489.716,155.92l0.14,0.021l0,0l-5.44,12.729l0.61,10.76
		l-5.72,5.181l-3.32-0.591l5.021,17.301l-2.86,6.46l6.17,8.609l-1.35,5.69l5.26,1.51l-0.11,4.9l-3.88,3.529l0.1,7.82l0,0
		l-22.52-4.37l-1.35,5.65l-8.94-1.311l-3.26,3.69l-1.35-1.2l0,0l-17.75-13.609l-8.18-0.561l-9.27-7.71l-3.6,6.75l-3.78,0.78
		l-6.47-4.61l1.43-3.67l-8.02-1.63l0.64-3.37l-4.03,0.2l-6.5-5.101l-6.6,1.051l-8.67-7.511l0,0l3.1-14.14l-14.68-10.689l3.04-1.211
		l-1.96-1.84l2.98-0.38l-0.92-3.439l2.2-0.15l-1.87-2.32l3.16-0.1l0,0l7.18-1.65l0.05-2.58l4.12-2.06l1.64,2.37l5.62-1l3.68,2.12
		l7.81-6.95l5.47,6.19l7.42-5.66l6.66,1.899l1.74,6.41l4.81-0.05l1,3.55l10.95,6.76l4.59-2.31l0.09,1.8l7.62,0.3l-1.95-2.939
		l3.98-2.28l-1.09-2.26l11.67-6.08l1.57-4.05l8.46,3.17l0,0l11.22,6.49l7.06-6.801l2.66-6.56L489.716,155.92z"/>
	<path id="CZ-ZL" fill="#1E3250" stroke="#1E3250" stroke-width="0.5" d="M625.485,266.8l0.11-3.7l-6.2-8.13l-8.76,0.13l-6.761-4.27
		l-11.699,2.34l-2.21-4.74l-5.23-0.1l0,0l-1.35,3.78l-5.24-1.61l-5.88,8.9l0,0l-0.47,2.939l0,0l-4.7-0.04l-2.511-3.479l-2.569,3.279
		l-1.41-1.68l0,0l-2.16,0.25l2.351,4.72l0,0l-1.921,2.23l-11.34-0.311l1.061,2.511l-3.79,3.949l-2.311-3.3l-6.68-0.189l-0.44-4.71
		l-3.25,4.26l2.021,5.53l-5.59,5.77l-9.03,0.72l-1.49,3.96l-1.71-0.939l0,0l-2.66,4.08l3.33,7.53l-1.83,2.1l5.101,0.14l-8.26,13.351
		l9.409-2.051l0.681,8.23l12.479,3.65l-0.58,3.819l3.681-0.58l3.489,4.391l5.86-2.42l4.64,2.939l-0.899,3.4l5.649,1.67l4.21,7.89
		l0,0l5-0.81l7.141-8.79l9.08-0.48l4.29-12.93l12.63-2.17l4.189-7.811l2.761-21.199l3.47-5.521l16.35-5.2l3.44-3.72l0.09-6.3
		L625.485,266.8z"/>
	<path id="CZ-PL" fill="#1E3250" stroke="#1E3250" stroke-width="0.5" d="M167.605,169.94l2.96,1.689l1.92-2.1l1.49,3.359l3.39-1.6
		l0,0l1.88,3.83l-2.83,4.229l10.44-1.319l1.92,1.43l-3.05,0.63l6.08,4.55l8.87-0.31l2.99,4.57l4.24-0.12l-0.36,3.51l7.96,1.78
		l0.23,8.3l-2.37,0.03l-2.27,14.92l3.27,0.989l-13.26,8.021l0.77,2.85l4.24-0.42l-3.66,2.34l2.72,2.341l-0.85,2.3l4.15,1.149
		l-1.5,10.471l2.43-0.051l0.16,4.431l0,0l-1.52,3.77l3.47,7.24l-2.58,4.88l2.86,4.771l-1.64,5.5l-4.51,1.949l0.41,4.53l-2.44-0.2
		l2.61,3l-3.31,4.61l2.45,3.979l-2.47,1.141l0.2,3.3l-5.77,3.76l-3.77-1.399l1.42,12.47l-5.43,5.03l0.6,7.09l0,0l-3.89-0.2
		l-1.09,3.83l-8.37-6.25l-0.91-9.21l-9.41-8.93l-4.86,0.64l-5.14-3.19l-0.62-4.899l-12.5-12.71l-0.43-5.471l-5.15-4.14l-17.24-1.77
		l-2.16-6.66l-9.04-5.5l-1.2-12.38l-4.91-2l-2.66-11.351l-2.92,0.21l-0.57-9.489l-7.21-2.391l-3.46-5.439l-0.16-2.54l6.4-3.601
		l0.21-6.87l6.91-9.75l0,0l3.93,1.66l4.66-3.189l3.11,3.489l2.03-4.829l7.67-1.98l12.62,2.72l3.47-3.13l-0.55-4.28l12.44-8.579
		l12.3,5.319l-0.06-7.31l4.4-0.42l0.03-6.59L167.605,169.94z"/>
	<path id="CZ-PR" fill="#1E3250" stroke="#1E3250" stroke-width="0.5" d="M278.786,159.95l0.17,0.319l0,0l2.66,1.641l-1.46,1.46
		l4.19-1.101l0.57,3.381l9.4,5.3l-0.44,2.85l-5.38,2.15l1.8,1.55l0,0l0.7,3.83l0,0l-2.49,3.52l-5.22-3.14l-4.84,0.771l-6.08,5.359
		l-5.47,0.42l-0.43,3.88l-6.48-2.439l1.68-4.54l-3.17-0.68l-0.38-4.771l-5.05-4.21l4.16-2.5l-6.43-3.47l7.42-3.84l0.62,2.069
		l4.56-0.24l0.43-4.489l14.85-3.3l0,0L278.786,159.95z"/>
	<path id="CZ-ST" fill="#1E3250" stroke="#1E3250" stroke-width="0.5" d="M274.445,112.58l1.55,1.84l0.88-2.439l3.3,1.909
		l2.74-2.109l1.12,5.229l9.09-0.99l3.18-5.399l5.48,1.25l12.5-15.37l3.92,3.85l3.4-1.8l3.07,5.61l2.31-0.851l3.25,5.46l3.99,1.36
		l0,0l-2.8,2.82l3.94,13.37l-4.88,4.399l2.51,4.521l7.72,3.71l-0.85,3.32l9.01,1.96l4.01-2.631l2.43,2.24l1.68,12.561l-4.34,7.01
		l6.08,0.82l2.43,4.79l0,0l-3.16,0.1l1.87,2.32l-2.2,0.149l0.91,3.44l-2.97,0.38l1.96,1.84l-3.05,1.21l14.68,10.69l-3.1,14.14l0,0
		l-6.93,4.061l0.1,5.569l-3.55-1.029l-3.15,4.27l-11.39,2.32l-3.92,9.01l0.7,2.76l4.4,0.54l0.68,5.78l-6.46,1.27l-0.8,3.391
		l-4.05-2.99l-5.58,2.32l-6.88-1.66l0.61,3.6l-4.18,0.11l-0.65,4.02l0,0l-3.72-0.43l-1.28-4.66l-2.86,1.561l-7.05-6.4l-3.44,3.4
		l0.58,6.76l-4.8,1.43l-3.25,4.851l-1.14-2.221l-4.68,0.17l0.64-3.56l-2.61,1.76l-7.5-1.989l-1.15,1.989l-5.26-3.77l0.67,2.989
		l-7.43,1.44l-5.2-5.5l-4.3,0.49l-1.56,4.28l-7.64,0.6l-4.76-0.18l0.06-3.891l-3.07-0.439l-3.73,5.75l-5.9,2.439l-5.43-3.279
		l-9.66,1.5l0,0l-0.16-4.431l-2.43,0.061l1.5-10.471l-4.15-1.159l0.85-2.301l-2.72-2.34l3.66-2.34l-4.24,0.42l-0.77-2.84
		l13.26-8.021l-3.271-0.989l2.271-14.92l2.37-0.03l-0.23-8.3l-7.97-1.78l0.36-3.521l-4.24,0.131l-2.98-4.57l-8.87,0.31l-6.08-4.55
		l3.06-0.63l-1.93-1.43l-10.43,1.319l2.83-4.229l-1.88-3.84l0,0l1.41-2.63l3.36,0.35l0.71-3.66l1.8,0.69l-0.22-5.49l5.29-3.58
		l5.55-0.08l5.65-5.83l7.19,1.35l5.7-5.54l4.73,2.851l1.13-3.79l7.08-3.03l-0.33-2.189l3.56,0.51l-0.86-4.26l2.31-1.811l21.7,2.49
		l2.41-3.62l8.23,0.42l-0.59-11l5.6,0.99l0.15-4.4l4.48,0.54l-1.49-6.729L274.445,112.58z M290.295,177.5L290.295,177.5l-1.79-1.54
		l5.37-2.15l0.44-2.85l-9.39-5.3l-0.58-3.38l-4.19,1.1l1.46-1.46l-2.67-1.63l0,0l-0.28-0.55l0,0l-14.85,3.31l-0.43,4.49l-4.56,0.24
		l-0.61-2.07l-7.42,3.84l6.43,3.47l-4.16,2.5l5.05,4.211l0.38,4.77l3.17,0.67l-1.68,4.54l6.48,2.44l0.42-3.881l5.47-0.42l6.08-5.359
		l4.84-0.771l5.23,3.141l2.49-3.521L290.295,177.5z"/>
	<path id="CZ-US" fill="#1E3250" stroke="#1E3250" stroke-width="0.5" d="M261.065,36.44l2.48-0.761l5.01,3.761l3.26-2.48l3.45,1.8
		l0.71-3.34l-0.18,3.53l5.96,1.78l3.28,4.239l-3.15,8.811l7.62-1.86l-2.75,10.5l0,0l-4.63,2.92l-1.48,5.73l-9.79-1.94l1.23,4.42
		l-2.69,2.05l0.21,4.29l-4.72,2.23l0.05,4.14l-2.66,2.19l2.8,10.71l9.37,13.42l0,0l-2.53,1.25l1.49,6.729l-4.47-0.54l-0.16,4.4
		l-5.59-0.99l0.59,11.011l-8.23-0.431l-2.41,3.62l-21.7-2.49l-2.3,1.811l0.86,4.27l-3.57-0.51l0.33,2.19l-7.08,3.029l-1.13,3.79
		l-4.73-2.85l-5.7,5.55l-7.18-1.36l-5.65,5.841l-5.56,0.08l-5.29,3.579l0.22,5.48l-1.8-0.69l-0.71,3.66l-3.37-0.35l-1.41,2.63l0,0
		l-3.39,1.6l-1.49-3.359l-1.92,2.1l-2.96-1.689l0,0l-2.54-3.99l-4-0.851l4.81-0.51l-1.54-2.81l1.95-1.511l-2.34-5.3l-2.53-0.34
		l1.97-2.71l-3.05-2.21l1.42-13.11l-2.48-3.59l-8.48,1.95l-1.56-4.979l-13.59-3.141l0,0l6.56-6.21l1.01-8.689l4.85,1.439l4.17-2.67
		l5.74,2.14l4.7-12.569l6.83,1.76l0.23-3.91l4.65-2.85l-0.42-3.221l8.57,6.631l5.24-5.11l0.16-9.41l12.5-3.72l3.86,2.05l1.77-2.35
		l11.69,0.88l3.78-2.42l0.18-6.94l3.36,0.41l4.73-4.18l3.64,2.239l4.26-1.14l13.29-6.85l0.85-3.891l3.01-1.1l3.35,1.58l7.54-2.03
		l0.92-5.43l-7.8-2.66l1.3-4.311l-5.94-0.449l1.27-7.351l3.72-2.319L261.065,36.44z"/>
	<path id="CZ-VY" fill="#1E3250" stroke="#1E3250" stroke-width="0.5" d="M366.115,203.31l8.67,7.511l6.6-1.051l6.5,5.101l4.03-0.2
		l-0.64,3.37l8.02,1.63l-1.43,3.67l6.47,4.61l3.78-0.78l3.6-6.75l9.27,7.71l8.18,0.561l17.75,13.609l0,0l-1.63,4.2l4.13,3.9
		l-2.96,4.25l-2.89-0.891l3.23,3.25l-2.24,4.54l1.97,11.641l-8.8,4.77l-2.73,4.63l2.57,4.67l-3.18,0.69l-1.37,5.55l3.28,1.63
		l-4.36,4.95l0.87,3.78l2.21-1.051l0.91,2.131l-2.01,3.989l-14.61,9.49l-4.82-2.31l-3.32,2.909l-3.21-4.06l-3.89,3.71l-2.93-1.32
		l-0.89,4.101l-5.14-0.24l-8,8.8l-2.09-2.89l-4.05,0.55l-1.15,3.53l-3.28-2.83l-2.38,1.38l0,0l-8.89-6.71l4.18-3.85l1.73-7.04
		l3.93,0.25l-2.68-7.4l-8.98,1.3l-2.39-1.87l-1.55,2.061l-7.9-6.7l0.45-6.92l-8.09,1.55l-5.56-4.27l-4.62,2.069l-1.46-3.59
		l-4.36-0.77l2.3,0.56l0.34-2.83l-6.73-3.74l-4.61,2.95l-6.77-8.02l2.64-3.15l-4.08-2.89l4.07-14.84l-2.96-4.36l3.8-1.3l-0.92-3.59
		l0,0l0.65-4.011l4.18-0.12l-0.61-3.6l6.88,1.66l5.58-2.33l4.05,3l0.81-3.4l6.46-1.27l-0.68-5.771l-4.4-0.55l-0.69-2.76l3.92-9
		l11.39-2.32l3.15-4.27l3.55,1.03l-0.1-5.58L366.115,203.31z"/>
</g>
</svg>
