<?xml version="1.0" encoding="utf-8"?>
<!-- Generator: Adobe Illustrator 15.0.0, SVG Export Plug-In . SVG Version: 6.00 Build 0)  -->
<!DOCTYPE svg PUBLIC "-//W3C//DTD SVG 1.1//EN" "http://www.w3.org/Graphics/SVG/1.1/DTD/svg11.dtd">
<svg version="1.1" id="Layer_1" xmlns:amcharts="http://amcharts.com/ammap"
	 xmlns="http://www.w3.org/2000/svg" xmlns:xlink="http://www.w3.org/1999/xlink" x="0px" y="0px" width="1100px" height="840.5px"
	 viewBox="-59.5 0 1100 840.5" enable-background="new -59.5 0 1100 840.5" xml:space="preserve">
<defs>
	
	
		<amcharts:ammap  projection="mercator" leftLongitude="8.074878" topLatitude="57.751786" bottomLatitude="54.559212" rightLongitude="15.157522">
		</amcharts:ammap>
</defs>
<g>
	<path id="DK-84" fill="#1E3250" stroke="#1E3250" stroke-width="0.5" d="M927.62,615.16l-0.13,1.359l3.859,3.11l2.54,5.86
		l7.011,3.71l1.229,2.229l5.22,2.101l1.9,1.89l1.109,0.48l3.561-1.311l2.74,5.1l4.39,4.181l2.931,1.189l6.439,5.13l4.14,1.74
		l2.65-0.18l1.11,2.4l1.18,0.189l0.18,2.5l-1.68,2.45l1.91,7.229l-2.67,3.521l0.08,2.81l-1.45,0.17l-0.55,2.32l-1.961,1.771l1.58,3
		l-0.14,2.979l-5.22,6.23l-16.46-3.711l-3.96-2.689l-1.48,0.09l-5.35-4.1l-5.771-2.54l-1.6,0.319l-5.19-3.109l-2.479,0.35
		l-4.42-2.67l-2.8-3.79l-4.59-2.84l0.959-1.06l-0.609-1.07l0.75-1.73l-0.09-3.59l1.13-2.08l-0.9-12.79l1.55-9.54l5.66-11l0.67-2.25
		l-0.79-2.369l2.98-2.87L927.62,615.16z M645.33,534.14l-0.771-2.659l0.74-0.37l0.49-5.73l3.58-2.149l1.479,2.93l0.53,9.229
		l0.91,0.641l-0.68,1.109l1.33,1.36l-4.19,0.95l-1.38-3.65l-1.53,0.431L645.33,534.14z M630.63,518.87l0.42,0.68l-2.09,1.641
		l1.36,2.439l-0.79-2.3l1.47-1.11l0.5,1.13l0.78,0.271l0.569,0.91l-1.38,1.8l-1.12-0.57l0.221,1.601l3.439,6.42l-0.359,0.92
		l2.939,0.31l0.72,0.95l0.07,3.74l-1.6,2.239l0.7,2.601l0.989,0.36l-2.479,2.47l-4.44,1.319l-5.56,5.37l-3.88-1.31l-0.95-3.49
		l-2.22,0.49l-1.761-1l-2.21-4.3l-0.45-3.521l6.021-7.83l2.19-5.04l5.039-5.59l0.5-3.25l2.311-0.04l0.479,0.82L630.63,518.87z
		 M541.01,464.09l2.58-0.439l2.771,1.949l0.319,1.73l-3.479,4.53l-0.48,4.59l0.54,1.189l3.94,1.771l1.18,8.8l1.96,1.38l-1.569,0.851
		l-0.08,1.8l0.409,0.72l2.061-0.3l-0.8,3.149l2,4.391l-1.63,2.46l1.119,0.97l-0.149,5.59l-2.11-0.8l-5.53,2.55l-0.09-2.89
		l-1.42,0.689l-0.76-2.17l-1.32,2.58l0,0l-6.81-3.72l-3.72,3.42l-4.051-1.59l0,0l-2.62,0.33l-0.09-3.86l-0.779,0.311l-0.641-1.271
		l0.96,0.15l0.74-1.66l0.86-8.36l1.979-1.27l-0.12-3.07l4.891-1.59l1.149,0.95l2.72-1.22l2.641-7.36l-2.08-4.811l-1.59-0.84
		l-0.34-4.27l-4.03-6.521l0.51-4.819l8.12,2.02L541.01,464.09z M585.95,411.72l5.43,1.41l4.99,4.57l6.87,2.01l8.76,0.46l5.75,2.85
		l9.19,8.891l2.489,1.149l-1.31,0.41l0.149,1.34l-2.609,4.75l-4.54,4.32l-6.46,18.101l7.62,18.199l0.67,8.92l2.58,5.79l-0.49,3.36
		l1.22,3.67l-2.88,6.73l1.04,1.21l-0.479,2.8l0.859,0.75l1.63-3.17l2.88,1.939l-0.199,0.83l-1.4,1.15l-2.13-0.71l0.83,1.31
		l-1.43,0.271l1.21,3.72l-0.931,2.89l-4.35,3.87l-1.29,3.84l-1,2.03l-2.04,1.811l0.05-1.49l-3.47,0.5l-1.75,3.97l1.36,1.22
		l-1.78,3.46l-5.91-0.89l-0.53-1.95l-0.31-0.739l-5.54-0.24l-0.97,0.46l-0.641,0.9l1.29,1.079l-5.04,3l0,0l-1.109-1.04l0,0
		l-2.5-2.34l-8.44-3.489l-4.58,2.02l-1.11-1.75l-2.739,0.83l-0.79,3.21l-6.891-2.02l0.99-5.23l-1.34,0.07l-0.93-9.08l4.85-4.21
		l3.68,0.25l5.36-5.19l-5.03-4.51l1.771-3.28l-2.561-2.569l-5.77,0.909l-10.75-8.34l0,0l-2.19-1.399l0.67-3.11l-1.39-2.29
		l-0.72-4.85l-0.771,0.159l-0.97-3.54l-1.18-0.46l0.64-3.43l2.45-0.51l0.35-4.311l-2.82-5.54l0.23-3.569l-4.18-11.15l-5.721-1.76
		l-6.029,4.18l-5.891,2.011l-2.699-0.801l-0.73,0.83l-1.71-1.08l-1.37-5.16l1.66-2.39l21.2-13.439l7.409-6.98l16.2-12.08
		l14.891-5.229l3.13-0.061L585.95,411.72z"/>
	<path id="DK-82" fill="#1E3250" stroke="#1E3250" stroke-width="0.5" d="M311.77,499.44l-0.81,5.47l-2.06,1.45l-3.66-1.62
		l-4.69,0.31l-1.68-1.21l1.92-2.42l3.52,0.62l3.61-1l-0.44-1.62l1.97-5.91L311.77,499.44z M278.66,484.71l1.77,1.12l-2.65,1.88
		l-2.62-1.17l-0.88-2.06l2.31-1.051L278.66,484.71z M329.2,455.5l-2.18,1.21l-1.28-0.32l-3.66-3.689l8.31,1.89L329.2,455.5z
		 M8.05,442.24l3.24,11.319l2.01,1.561l-0.49,5.35l0.99,0.86l0.1,3.22l-0.74,2.431l1.83,4.71l-0.61,2.13l2.41,2.46l-3.09,4.77
		l0.22,4.72l1.93,1.96l0,0l-2.6,0.48l0,0L8.9,453.6L5.65,442.98L8.05,442.24z M346.92,456.13l3.2,4.14l6.44,3.07l-1.14,1.44
		l-1.89-0.87l-2.81,1.63l1.11,3.88l1.73,0.561l-0.65,1.079l0.96,1.75l1.62,0.94l4.62-2.31l0.25,3.109l-2.81,2.7l-2.46,5.51l0.2,9.96
		l-3.02,7.98l-5.64-1.33l-3.96,0.229l-1.96-2.189l-1.29-4.1l0.23-13.99l2.6-2.98l3.89-0.33l0.94-0.899l2.34-9.33l-0.83-2.97
		l-2.18-2.851l-3.02-1.92l-2.9,0.4l-0.95-1.561l-0.93-8.96l5.48-5.8l1.32,10.41L346.92,456.13z M80.33,297.99l-0.73,1.11l-1.52-0.12
		l1.57,1.9l-2.48,4.28l0.42,7.109l-2.29,2.57l1.39-2.57L74.23,305l3.77-6.79L80.33,297.99z M70.27,271.2l1.1,2.15L70,274.67
		l-1.56,5.04l2.01,3.21l1.55,0.65l0.39-2.75l-1.85-0.76l0.9-2.37l2.81-0.23l2.61,1.23l1.47-0.71l-1.7,3.76l1.01,1.61l-0.73,2.85
		l1.11,2.08l-3.89-3.81l-2.09-0.23l-1.15,8.97l-5.22,0.17l-2.69,1.77l0.11,1.67l2.62,1.03l0.46,1.13l-3.44-0.73l-1.89-2.13
		l-4.41-11.23l-7.85-7.59l-3.08-1.53l0,0l0.16-1.37l0,0l2.83,1.32l2.55-2.46l3.53-1.17l1,0.55l0.91,2.73l3.24,1.24l4.47-4.1
		l1.69,0.1l0.77-1.33l2.37,0.77l0.73-1.5L70.27,271.2z M494.68,258.79l1.82,0.46l-6.39,4.56l-5.78,7.16l-5,0.04l-4.26-6.88
		l3.369-2.44l4.431,0.83L494.68,258.79z M137.21,242.4l6.36,4.32l-0.75,1.85l0.5,2.28l2.83,7.3l6.06,8.11l-5.62,4.48l-1.93,3.15
		l-0.38,2.72l-2.85-0.24l1.11,6.15l-3,0.18l-4,3.91l-1.67,8.56l1.72,5.72l0.23,1.82l-0.92,0.36l1.07,1.27l2.56-0.02l2.18-3.1
		l0.44-8.5l2.75-1.25l1.23,1.73l1.59,0.32l2.23-2.53l0.02-2.25l-3.48,0.7l-2.24-1.07l3.78-3.39l1.92-5.37l0.62,2.46l-0.79,2.51
		l2.84,3.46l2.07,0.16l3.44-2.25l7.38,0.41l-0.83,0.36l0.61,0.98l1.32-0.61l1.73,0.84l1.49,3.21l-0.68-0.05l-0.05,1.76l-4.6,2.34
		l-1.58,4.79l1.36,0.61l0.729,3.98l1.94,2.86l2.93,2.65l1.78,0.05l-1.17,3.25l5.05-5.07l4.59,1.381l-0.56-4.09l1.23-3.78l-2.34,0.11
		l-2.66,2.13l-4.08,1.45l-1.72-0.3l-1.34-2.76l1.45-7.92l-0.76-2.49l2.63-2.67l0.13-4.52l1.8-4.5l-0.74-5.01l0,0l4.77,0.2l1.56,2.2
		l4.24-0.69l-0.16,2.99l4.96,3.53l3.43,0.63l3-9.47l2.12-0.16l0.42-1.79l4.13,0.44l-0.35,2.26l1.42,0.14l1.18,1.93l-1.8,1.7
		l0.39,1.45l5.1,0.61l-0.56,3.36l4.58,1.56l3.97-0.77l6.18,0.88l0.76,3.54l-4.37,1.49l-0.13,7.14l4.67-2.55l4.94,1.25l5.22,7.45
		l6.24-1.56l5.12,2.8l6.39-1.41l1.31-4.55l8.37-1.71l1.46-3.92l2.67,1.43l8.75-2.68l6.29-4.37l3.94-1.16l1.02-5.67l4.87-1.45
		l-0.23-3.12l5.53-3.52l-0.35-1.49l0,0l1.49,0.63l6.45-4.09l4.51,1.21l3.51-1.93l4-0.1l2,2.17l1.4,7.82l-1.83,0.92l1.28,4.79
		l-2.17,3.98l-6.27,3.49l-2.17,4.48l-2.47,0.79l-2.51,2.55l-1.5,4.85l-2.02,0.91l-0.84,3.01l1.76,9.88l-2.01,6.771l-11.68,4.479
		l-1.31-0.479l-0.35-1.47l-4-0.45l-7.27,2.95l0.05,0.3l7.48-2.351l5.86,2.061l7.49-3.271l4.63-1.369l4.19,1.75l6.16-0.421
		l-7.61-1.239l-0.88-1.4l-0.36-10.11l1.6-6.93l1.49-0.78l0.05-1.99l2.77-4.33l4.09-3.73l-0.03-3.98l1.14,0.17l1.08,1.41l3.42,1.34
		l1.46,6.86l7.24,8.8l2.98,2.02l11.09,3.04l7.26-0.37l15.39-3.82l9.75-0.77l3.56-1.29l9.61,1.84l3.42,3.26l2.19,7.641l6.62,4.29
		l3.45,3.399l1.13,2.82l-0.43,2.05l-2.761,1.09l-1.38,3.04l0.33,3.21l-0.98,0.73l-0.8,6.41l-0.03,8.76l-7.06,10.89l-4.38,3.631
		l-2.85,7.02l-2.72,3.24l-3.32,1.03l-2.26,2.109l-1.64,2.97L368,391.69l0.79,6.56l-3.55,9.46l-3.47,0.16l-1.25-1.16l-0.32-2.26
		l-4.52-3.58l-1.04-2.38l-0.03-2.01l2.46,1.01l1.96-1.63l1.09-3.561l-1.83-4.479l-1.19-0.9l-5.63-0.58l-3.97,2.101l-1.24,4.189
		l-4.71,5.271l-1.34,4.34l2.62,4.08l0.67,8.51l-1.64,2.81l-4.51,1.83L333,408.3l1.35-1.59l3.57,0.28l1.64-5.69l-1.11-1.149
		l-2.08,1.17l-7.24-3.431l-2.16,1.04l-2.51,3.771l-3.49,0.02l-2.24-1.59l-0.86-4.31l-3.52-1.971l0.35-1.81l1.51,0.57l6.46-2.11
		l0.4-2.479l2.45-0.801l1.79,0.311l-2.06,2.5l1.29,1.939l4.36,0.561l2.05-1.96l-1.73-3.37l0.4-1.14l-1.8-1.15l-1.29,1.48
		l-0.24-1.011l3.89-4.069l1.36-3.91l3.09-0.3l-0.28-3.311l-3.38-1.96l-0.88,0.62l-2.84-0.69l-0.12-3.05l-1,1l-2.46-1.09l-1.63,1.47
		l-3.6-0.739l-1.06,0.819l0.92,2.76l-1.86,2.11l-1.98-0.52l-2.19,2.25l1.01,3.71l-1.3,1.13l-0.64-0.66l-0.24,2.81l-4.34,2.25
		l-3.47,6.381l-5.3,3.279l-2.12,4.57l0.74,0.72l-2.37,1.58l-0.07,1.73l1.84-1.391l-1.2,3.971l3.13-1.79l0.64-2.33l0.6,1.05
		l0.04,1.11l-5.78,3.449l5.39,10.48l3.17,13.02l-0.51,4.011l-1.56,0.8l-0.19-1.271l-1.38,0.431l-2.37,3.01l-1.87,0.77l3.33-0.08
		l1.76-2.85l3.35-0.53l0.89,0.74l-3.88,6.79l-0.1,3.29l1.86,5.35l-1.18,11.591l-2.72,0.81l-4.2,5.15l-2.12,0.229l0.28,3.771
		l1.45,2.8l-1.71,1.7l0.84,2.67l-0.79,1.02l-4.63-2.21l-2.36-2.74l0.3-3.89l-1.58-1.9l-1.94,2.48l0.05,2.7l-2.08-0.431l-3.16,3.12
		l-5.93,1.53l-0.2-2.19l2.98-4.42l7.64,1.351l0.51-1.73l-1-2.79l-5.35-0.38l-4.84,2.05l-8.6-1.05l-0.84,0.2l-0.89,2.979l0.64,2.011
		l-4.69-0.63l-2.29,0.89l-3.3-2.96l0.18-1.25l1.19-0.12l-0.44-0.55l-6.22-0.55l0.2,1l2.43,0.67l2.45-0.57l0.67,2.66l-2.06,0.57
		l-0.83,1.38l0.44,2.27l1.97,1.26l14.89,4.221l2.74-2.36l-0.48,1.99l0.7,0.45l-0.99,1.85l2.29-1.52l3.14,0.489l1.76,3.301
		l-6.39,6.77l-0.33,3.68l1.08,1.71l7.17,1.431l0.72,1.8l-3.92-0.07l-2.44,2.74l-4.85,1.62l-0.2,2.22l2.69,0.79l1.46,4.64l-2.37-1.17
		l-5.13,1.521l-7.51,0.56l-5.44,1.53l-5.021,3.25l-3.69,1.1l-1.49-2.22l-3.44-0.88l-5.13,0.27l-4.28-5.42l-2.2-0.1l-3.81-2.22l0,0
		l1.73-5.82l-0.41-3.33l-4.09-2.479l-0.57,1.399l-3.22-1.08l-3.1,1.54l-2.39-2.96l1.64-2.18l-1.52-2.06l-0.86,1.619l-5.56,0.36
		l0.23-2.54l-2.86-0.51l-2.28-10.15l-2.88-0.069l0.06-1.32l-4.99-0.49l1.15-3.77L189.07,479l2.77-1.989l-10.2-14.091l-0.04-1.59l0,0
		l-5.18-3.35l-0.5,0.68l0,0l0.02,0.07l0,0l-0.67,0.399l0,0l-0.51,0.54l0,0l-3.69-1.67l-0.88,0.53l0,0l-3.16-0.34l-3.26-3.75
		l-5.23-0.3l-3.35,5.91l0.08,3.449l-6.33,8.181l-4.48,3.51l-2.8-1.95l-3.66,8.061l-1.67-1.53l-1.73,3.51l-2.24-1.02l-2.86,2.439
		l-7.12-3.66l1.07-9.68l-11.63-2.67l-2.27,0.08l-1.32,3.729l-2.21-0.38l-2.28,8.44l-3.97,2.38l4.47,4.52l-9.38,3.271l-5.05-1.91
		l-1.99-5.88l-4.4-2.59l-11.51,3.3l-3.2-3.14l-5.2,1.6l1.94,4.63l-1.31,2.28l-3.33,0.689l0.17,5.58l-2.66,2.65l-6.27,0.08l-1.2-2.86
		l-3.54-1.81l1.24-0.88l-6.1-0.61l-4.04-5.1L34.4,492l-5.21-0.12l-1.8,1.061l-6.55-5.101l0.12-2.109l-6.18-1.01l0,0l0.76-4.96
		l1.63-0.37l1.64-2.511l-0.17-2.25l-1.8-1.64l2.46-0.58l-1.01-1.7l0.83-2.43l2.87,0.53l0.06,1.12l-1.31-0.13l2.81,3.479l0.66-1.35
		l1.47-0.391l2.87,1.37l-2.62,3.03l-0.35,4.8l1.64,1.2L28,480.13l7.14-4.89l7.8-8.93l-1.9-3.13l0.91-1.141l-0.03-5.64l-8.75-12.51
		l-1.46-10.41l0.24-4.86l-10.16-8.59l-9.7-2.98l-4.68-3.359l2.71,4.78l-2.07,3.6l-1.02,11.6l1.47,7.03l1.33,0.44l-2.12,0.93
		l-1.11-0.48l-0.9,1.54l-2.21-11.029l0.79-15.21l3.39-25.98l0.23-9.93l-2.16-30.37l2.22,0.069l0.45,0.561l-0.16,0.29l0.71,0.899
		L7.3,356.32l0.39,5.09l4.79-2.19l0.48,3.42l3.16-0.92l2.24,1.67l4.21-0.33l-0.37,1.79l1.23,3.12l-1.46,0.78l1.43,2.21l1.01,0.43
		l3.63-2.359l3.38-5.46l0.02-0.79l-1.5,1.37L24.05,361l1.4-1.17l-0.89-3.061l-2.23-2.829l-6.96-5.4l-3.29-8.31l0.95-0.99l-0.7-4.65
		l-2.39,0.86l-2.15-1.79l-0.21,1.43l-0.8-0.2l1.07,3.13l-1.22,1.12l1.07,3.24l0.03,1.22l0.6,2.46l-1.54-0.26l1,1.34l-1.36,1.32
		l1.25,0.37l-0.1,1.05l-2.1,0.42l1.39-25.2L5.52,312.32l1.15-8.49l6.28-25.46l4.72-10.61l1.38-1.65l1.28,0.49l-0.03,4.51l1.13,1.52
		l-3.57,4.4l1.85,2.63l-1.62,0.73l-1.42-0.86l-1.19,5.87l1.67-0.48l4.37,2.1l-0.05,4.81l1.91,1.14l7.9,1.69l0.58,1.88l-3.13,0.81
		l2.27,4.87l-0.4,2.92l1.58,0.6v-5.2l2.86-1.54l3.21,0.66l4.98-0.92l13.85,6.64l3.71,2.79l2.6-1.479l2.93-3.76l1.58-4.68l0.19,4.66
		l1.23,1.97l-0.36,2.8l1.61,1.2l2.57,5.03l-2.88,4.6l-0.54-0.899l-3.92,0.279l-1.23,4.091l0.87,0.72l1.21-3.7l5.75,1.41l1.81-1.88
		l0.01,3.689l1.46,2.721l4.99,1.8l10.94-3.67l0.86-4.54l-1.32-7.891l3.85-5.29l-1.4-3.14l-7.22-5.83l-1.24-4.61l-2.2-0.9l0.84-3.83
		l6.4,0.55l4.22-4.15l2.31-3.7l1.4-4.97l3.96-5l1.18-0.12l2.09,1.97l2.09-1.61l2.36,0.51l-0.03-1.67l1.68-1.01l1.56,2.42l3.69-1.61
		l-0.46-2.22l-1.86-0.74l-1.73,0.71l-0.69-2.31l-1.15,2.97l-1.85-1.68l-1.66,1.14l-3.57,0.09l4-9.15l2.4-2.66l-1.17-2.57l2.89-0.17
		l11.14-9.34l9.4,4.41l1.16-1.38l-2.09-2.63L137.21,242.4z M133.24,231.35l5.11,0.76l-2.2,1.83l0.35,1.66l2.2,0.3l-3.14,2.83
		l-1.1-0.76l-2.39,0.35l-1,3.89l-1.77,0.47l0.03,1.47l-4.31-3.87l-2.06-4.36l-1.84-1.13l0.75-1.11L133.24,231.35z"/>
	<path id="DK-81" fill="#1E3250" stroke="#1E3250" stroke-width="0.5" d="M140.69,222.32l-3.32-2.78l1.93-2.89l2.72,3.84l-0.57,2.16
		L140.69,222.32z M115.59,203.74l-0.42,2.46l2.09,7.03l-1.9,2.59l-2.38,10.7l-1,1.25l0.27-5.16l-2.16,0.41l-1.56-1.84l-2.17,0.37
		l-2.1,3.91l1.87,9.23l1.42,3.47l3.05,3.31l-0.45,2.95l-2.23,0.66l-0.14,1.23l1.5,1.37l-3.44,3.01l0.12,5.08l-1.57,0.74l0.16,1.96
		l-4.39,3.11l-4.3,5.77l1.05,2.46l-6.28,3.57l-3.61-0.6l-8.52,3.46l-1.66-3.64l0.62-2.42l-3.2-3.4l0.19-2.2l-1.54-0.15l-1.22-0.55
		l0.54-1.46l-0.82-1.93l-1.82,0.07l-0.18,2.05l1.87,0.24l-1.32,1.18l1.25,2.15l-3.78,1.48l-1.08-4.55l2.08-0.8l-4.09-4.1l-5.13,4.48
		l0.99-6.11l6.67-2.95l-2.54-7.23l1.6-1.02l1.54,1.34l1.66-2.32l1.65-0.28l4.67,1.15l6.17-3.5l-0.39-2.89l-7.31-1.27l1.71-3
		l2.52,0.83l1.03-0.66l0.08-1.51l-2.33,0.02l2.38-3.95l-0.43-6.18l-1.07-1.38l4.47-1.45l2.52,0.75l5.25-1l1.42,0.65l2.84-2.3
		l8.34-1.44l1.85-6.88l2.86-3.35l1.16-3.05l1.18,1.48l4.07-0.09l2.94-3.42l0.33-2.69l0.82,0.06l-0.23,2.37L115.59,203.74z
		 M246.64,178.53l-2.01,0.4l-2.62-1.2l-1.41-3.38l6.15-0.32l2.35,2.22L246.64,178.53z M269.72,173.17l1.76,3.96l3.92,3.11l3.81,3.38
		l6.09,6.68l7.49,5.47l5.54,2.1l9.65-0.96l-0.3,4.35l-1.27,0.01l-0.98,1.69l1.22,1.09l-2.68,4.25l-1.41,11.21l1.99,22.771
		l2.97,12.32l4.92,7.81l-0.07,3.83l-1.13,1.04l-3.4-1.7l-6.49-0.47l-3.61-1.81l-3.24,2.07l-0.55,1.51l-2.16,0.69l-2.55-1.31
		l-0.42-2.85l-2.66-0.26l-5.31,2.65l-0.63,2.4l-2.53,1.66l-2.89-2.04l-5.05,1.9l-1.57,1.99l0.24,1.32l-4.06,0.64l-3.08,3.27
		l-2.01-0.27l-0.12,1.68l-4.44,2.26l-13.04,1.22l-3.06,1.92l6.59,0.36l1.77-1.82l9.04-0.29l2.01-1.08l1.18,0.58l2.73-1.96l2.02,0.6
		l1.41-3.08l1.22-0.03l1.22-1.52l2.9-0.33l2.64-4.52l1.16-0.22l2.46,2.3l1.44-0.13l3.46-3.44l1.35-2.91l4.36,0.91l1.51-0.39
		l4.16,5.46l0,0l0.35,1.49l-5.53,3.53l0.23,3.12l-4.87,1.45l-1.02,5.67l-3.94,1.16l-6.28,4.37l-8.75,2.68l-2.67-1.43l-1.46,3.92
		l-8.37,1.71l-1.31,4.55l-6.39,1.41l-5.12-2.8l-6.23,1.56l-5.22-7.45l-4.94-1.25l-4.67,2.55l0.13-7.14l4.38-1.49l-0.76-3.54
		l-6.18-0.88l-3.97,0.77l-4.58-1.56l0.56-3.36l-5.1-0.61l-0.39-1.45l1.8-1.7l-1.18-1.93l-1.42-0.14l0.35-2.26l-4.12-0.44l-0.42,1.8
		l-2.12,0.16l-3,9.47l-3.43-0.63l-4.96-3.53l0.16-2.99l-4.24,0.69l-1.56-2.2l-4.77-0.2l0,0l-1.98-5.11l-3.25-1.59l-4.16,2.45
		l-2.26,0.11l-7.44,5.73l-0.84,0.21l-2.26-3.22l0.08-1.2l2.05-1.03l2.36-3.63l3.83-3.29l2.43-4.1l0.9-3.76l-1.6-3.95l-4.53-1.63
		l-2.05,0.23l0.49-5.08l-2.72-4.86l5.55-9.07l0.35-4.9l-1.56-3.09l-4.42-3.03l-0.31-1.71l1.76-6.3l2.59-3l0.24-1.67l4.15-3.53
		l1.93-4.33l4.83-1.5l2.58-6.44l18.23-4.81l11.43,1.05l10.12,6.36l-2.53,4.46l1,2.63l-0.99,1.21l-1.15-2.47l-0.96-0.16l-1.66,2.5
		l4.11,7.69l1.4-5.94l0.51-2l5.31-3.24l1.57-4.48l1.32-0.4l4.21-5.62l0.37-4.7l3.4-2.88l11.08-2.86l9,2.28l3.49-2.81l3.48-0.9
		l2.01,0.13l3.01,2.1l2.03-0.15l1.98-0.81l2.19-4l3.18-2.46L269.72,173.17z M409.5,138.4l-0.07,2.2l-5.12,1.25l-0.529-0.7l1.5-2.32
		L409.5,138.4z M432.38,111l-1.06,5.57l-1.391-0.74l-1.58,0.73l-7.52,0.03l-5.27,2.59l-0.32,2.04l2.46,0.38l-1.09,6.37l-2.73,3.03
		l0.19,0.42l-1.11,1.52l-7.54,4.23l-2.06-0.5l-1.79,0.95l-1.301-4.47l-2.85-0.67l-0.71-2.17l-2.58-0.57l-1.67,0.75l-5.43-3.44
		l0.06-1.91l4.6-3.7l2.17-3.73l3.64-2.17l8.69-1.01l2.68-3.11l12.38-0.3l3.85-2.12l7.021,1.22L432.38,111z M349.84,8.08l-1.1,1.02
		l-1-0.71l-0.84,0.7l-0.71,0.31l-3.64,3.1l-8.6,10.76l-6.31,10.87l-2.53,10.66l3.11,11.29l12.14,16.77l1.54,4.8l2.05,0.76l-0.76,2
		l-1.75,0.01l-0.57,1.03l-1.73,1.95l0.3,2.96l-1.85,8.71l1.03,9.82l1.73,3.12l-1.05,2.04l2.53,13.04l0.22,11.75l-4.82,4.55
		l-2.62,1.08l-7.07,8.86l-5.57,12.74l-3.63,18.1l-3.21,9.55l-3.03,5.71l-4.23-1.34l-5.81,1.94l-4.96-0.83l-5.75-4.42l-9.87-10.1
		l-4.31-2.14l-8.41-8.11l-1.91-0.62l-3.16,1.3l-3.52,3.6l0.03,3.21l-2.78,1.05l-8.56-4.14l-4.99-5.42l-8.25-4.38l0.41,1.92
		l-3.05,7.38l-1.93,1.41l-5.92,0.96l-4.98-3.04l-2.08,0.81l0.05-2.86l2.6-0.69l1.53-1.95l0.06-0.72l-2.12,0.19l-3.88,1.7l-3.73,3.4
		l1.66,1.58l2.61,0.14l-2.49,1.72l-1.74,3.01l-3.23-0.19l-1.78,2.41l-4.16-0.99l-6.79,0.74l-1.11-1.02l-8.15,2.25l-16.76,6.31
		l-7.13,5.08l-4.77-0.75l-1.771-1.2l-10.58-10.09l-9.89,4.25l-2.48,3.71l-1.41-0.16l-0.04-2.52l-0.93-0.95l-3.49,0.33l-2.35,0.95
		l-2.51,3.51l-2.93-0.74l-2.57,1.44l-1.98,4.86l-2.05-0.01l-1.1-2.44l-3.38-0.96l-1.76-0.16l-3.16,0.64l-0.12,1.7l2.46,1.77
		l0.1,1.68l-7.63,3.28l-0.88,1.99L95,206.13l-7.68-1.64l-5.39,0.65l-1.45,4.06l0.71,2.65l-3.07,3.03l-0.03,3.09l-2.04,2.86l0.8,3.03
		l-0.95,2.12l1.24,0.87l-3.19,5.74l-4.88,5.85l-5.61,0.31l0.09,2.93l-2.15-0.19l-4.43,2.67l-2.54,3.7l4.32,6.67l-1.54,1.9
		l-1.44,6.17l-2.71,2.52l3.4-0.95l4.45,0.54l0.6,1.14l-1.33,2.75l1.72-0.97l0.74,0.56l-2.11,2.66l0.27,2.7l-8.5-4.54l-3.82,1.94
		l-1.1,1.91l-1.92-0.25l-0.58,1.73l0.77,0.06l0,0l-0.16,1.38l0,0l-6.73-1.73l-1.08-3.89l-4.3-5.71l-2.45-10.71l-2.37-2.84
		l-3.53-2.12l-1.26,19.41l-1.24-0.16l0.01-2.75l-1.49-2.67l-1.02-0.06l2.31-20.42l4.84-13.69l12.38-25.33l2.64-1.51l4.1-5.22
		l7.84-13.67l1.26-1.32l3.67-0.67l3.97-4.67l8.12-14.49l1.23,0.56l3.09-1.69l16.49,6.94l2.09,0.01l15.09-4.59l16.14-10.28l3.24,0.59
		l3.55-0.8l10.12,3.95l11.53,1.34l9.35-1.04l9.24-3.18l6.41-0.5l4.45-1.81l19.39-15.82l13.78-20.66l10.7-18.74l10.82-24.83
		l9.55-10.08l9.85-17.31l2.65-2.19l3.22-1.31l3.46,1.41l11.62,0.64l10.18-1.22l11.8-4.58l10.83-6.49l32.36-27.54L350.68,0l5.21,1.96
		L349.84,8.08z"/>
	<path id="DK-85" fill="#1E3250" stroke="#1E3250" stroke-width="0.5" d="M474.65,707.56l-2.841,1.07l4.631,5.32l-1.591-0.79
		l-3.67,0.939l-0.59-2.89l2-0.63l-2.45-3.16L474.65,707.56z M441.23,696.93l4.06,2.7l3.54,5.22l5.65,1.811l0.229,4.54l3.04,3.38
		l6.54,3.09l-0.59,1.65l0.87,0.64l1.89-1.12l2.351,0.58l0.75,1l-0.141,4.67l3.45,0.32l0.04,1.63l8.58,0.58l1.42,1.32l3.439-0.74
		l0.421-0.92l-2.33-0.84l-2.07-2.851l0.43-1.529l2.7-1.261l3.47,2.09l5.931-2.359l-1.24-2.7l0.77-4.48l-1.569-3.689l3.14,0.65
		l7.28,6.38l4.1-0.13l0.75,0.8l-1.439,2.939l1.729,4.841l5.53,1.81l-1.22,2.77l0.18,3.271l2.48,2.99l3.039,1.06l4.95,5l1.061,7.7
		l-2.55,2.42l-1.83,0.08l-2.49-2.05L517.47,753l1.131,1.04l-2.181,1.021l1.2,2.479l6.1,2.99l-1.659,6.1l-4.261,1.66l2.351,1.8
		l-2.431,1.15l-1.79,0.47l-10.39-2.11l0.73-1.05l-1.101-1.88l-0.76,0.62l0.45,1.84l-1.69,0.891l-0.99-1.971l-2.27-1.06l-2.48,0.64
		l-1.619,1.101l-2.381-1.21l-4.619,0.689l-2.33-1.29l-1.101,0.51l0.82,1.171l-2.72,1.39l-2.51,0.14l-1.051,2.73l-6.42,1.1
		l-4.95,5.71l6.74,3.471l2.29-0.601l0.061,0.93l-3.9,0.03l-21.43-14.26l-6.41-7.311l-4.74-3.869l-20.74-8.631l-8.31-2.47l-6.98-3.75
		l-5.55-9.569l0.08-0.44l1.95,2.3l2.87-0.31l2.12-2.4l-3.95-3.24l7.26,2.561l1.061,2.8l3.489-0.17l1.351-1.7l-1.681-1.71l0.221-1.97
		l2.229,2.58l1.09-0.29l0.82-2.2l1.76-0.71l-0.34-1.49l2.51-0.1l-0.35-0.78l-4.62,0.9l-1.84-0.88v-3.23h-1.3l-0.23-1.89l-1.6-1.271
		l-1.45-1.53l-2.07-0.739l-1.75-2.351l-0.29-2.06l1.681-5.86l7.62-6.96l3.27,0.351l0.689-1.4l0.801-0.61l1.75-0.56l1.8,0.55
		l5.35-2.76L441.23,696.93z M461.57,694.08l2.109,1.43l3.33-0.42l2.87,3.95l-0.26,1.2l-4.94-0.391l-4.54,5.511l-3.96-3.311
		l-1.24-5.319l-1.18,0.01l-0.609-2.57l2.22,1.04l0.6,3.53l1.4-1.521l3.27,1.9l0.971-1.271L461.57,694.08z M520.84,696.26l5.37,3.87
		l-0.57,1.09l2.051,1.69l0.18,2.38l1.97,1.15l2.12-0.12l0.83-5.38l1.11,1.05l4.64-0.74l1.93,1.48l0.53,6.83l2.6,2.06l7.57,1.729
		l2.01-1.14l6.61,1.55l0.93,4.681l3.96,4.77l1.34,3.21l-0.84,1.37l-3.449,1.42l-2.561,5.37l-4.88,2.81l-5.62,7.551l-3.42,8.199
		l-3.89,3.4l-2.271,4.18l-1.359,9.71l1.77,17.761l-0.46,3.81l-7.33-3.6l0.72-1.28l-0.37-3.521l-7.5-14.859l1.7-7.71l4.47-6.48
		l-5.649-2.479l0.7-3.48l1.3-1.399l-2.311-3l-0.779-3.33l-3.521-3.16l-0.79-2.311l-2.609-0.56l-2.181-2.19l2.55-4.85l-1.43-1.97
		l0.311-1.67l-3.181-2.471l-3.93-0.39l0.43-1.31l-1.229-2.4l1.029-2.49l-1.38-1l-0.89-2.649l2.05-5.561l-1.399-2.39l-5.62-0.65
		l2.25-2.92l2.17,0.55l0.479-1.12l-1.31-0.71l1.81-2.64h3.2l2.271,1.4l2.449,4.43l2.99-1.85l0.93-3.631l-0.85-2.01L520.84,696.26z
		 M557.44,695.81l-1.091,1.53l-0.619,0.37l-2.141,1.28l-2.21-1.2L557.44,695.81z M476.35,688.55l4.33,0.811l2.54,3.79l-4.08,6.21
		l-3.18-6l-2.399-2.13L476.35,688.55z M561.27,689.27l-2.17,4.301l-1.229-0.391l-0.47,1.141l-0.25-1.2l1.83-1.88l-0.53-1.021
		L561.27,689.27z M575.8,672.44l-2.59,6.029l-4.28-1.71l-0.939-1.479l2.43-0.48l2.67-2.53L575.8,672.44z M581.73,676.15l1.38,1.939
		l3.72,1.8l20.18,1.15l8.26,3.64l3.49,6.511l0.75,3.75l-1.6,4.529l-4.41,0.681l-12.54-4.511l-8.19-0.529l-5.989,2.64l-4.641,3.771
		l-10.449,13.5l-3.681,0.729l-5.34-0.72l-2.34-4.28l2.39,0.87l0.79-1.19l-5.47-0.409l-14.6-4.74l-1.25-2.74l0.31-1.97l-1.77-1.83
		l1.35-1.87l2.18,5.54l1.65,0.34l1.57-1.37l5.159,0.021l2.641,2.92l-1.771,3.96l3.97,1.13l2.5-0.97l-1.79-1.931l1.381-3.76
		l3.77-2.479l-2.27-0.94l-1.181-2.74l5.78-3.22l2.521,0.96l-1.971-4.57l4.141,1.44l1.31,3.38l9.74-4.09l1,0.85l-2.41,4.091
		l0.95,0.489l2.399-0.939l2.9-3.3l5.46-1.421l-7.109-0.739l-2.021,1.5l-0.78-0.87l-1.26-3.34l1.66-4.021l-2.87-4.7l-1.16-1.04
		l-2.38,0.521l-0.57-1.21l0.38-1.601l3.711-2.869L581.73,676.15z M505.41,653.42l-1.53,3.311l-0.62-3.03l1.021-2.7L505.41,653.42z
		 M429.19,645.36l0.34,0.96l-2.3,2.02l-1.7,4.42l-2.38-4.779l6.31-4.051L429.19,645.36z M498.73,643.17l0.34,4.95l-2.891-0.93
		l-1.92-3.11l2.32,0.46L498.73,643.17z M504.45,642.19l-0.771,2.85l-1.41-0.65L500.15,645l1.729-7.26l4.17,1.6L504.45,642.19z
		 M431,628.46l-1.06,0.85l-0.601-0.55l-0.149,1.88l2.279,2.2l1.83,5.891l-1.39,1.039l-3.07-1.13l0.1-10.479l-0.84-1.6l0.54-0.591
		l1.521,0.9L431,628.46z M592.4,541.67l0.92,0.811l0,0l-1.25,0.76L592.4,541.67z M446.5,499.51l0.56,1l-1.88-1.24l-1.739-3.8
		l0.649-2.52l1.44,1.45l-0.69,1.3l1.96,2.22L446.5,499.51z M521.73,496.29l-1.32,6.35l-2.98,1.62l-1.71-1.87l-1.359-0.109
		l-2.431-5.95l2.12-0.76l1.12-1.67l2.47,2.399l1.48-6.53l2.05,3.061L521.73,496.29z M427.68,470.59l3.45,3.97l3.08,1.71l0.47,2.29
		l-1.55-1.649l-8.52-3.61l-3.87-5.06l-4.33-1.971l-0.8-3.64l5.109,1.851l0.98,2.1L427.68,470.59z M453.05,448.08l4.58,2.77
		l5.06,1.33l8.771,0.34l5.5,2.25l9.59-2.569l2.351,3.93l3.239,1.66l9.391-2.21l10.649-7.12l2.15,6.88l-1.76-1.14l-3.45,3.229
		l-0.84,4.021l0.439,4.71l-2.489,1.51l-3.171-1.19l-0.52-2.239l-2.62,0.29l-1.25-0.83l-1.87,4.89l0.36,3.43l3.21,1.711l2.39,3.239
		l3.08,6.101l0.32,3.84l-2.58,3.609l-0.57-1.079l-6.54-1.891l-2.02,2.38l0.979,1.181l-1.21,0.51l-0.05,1.79l-4.91,2.399l-0.17,1.16
		l2.93,2.021l2.761-0.3L506,492.89l1.65,1.79l0.72,3.721l1.59,2.109l-1.08,0.65l-0.479-1.93l-1.131,1.739l0.91,1.62l3.04,1.45
		l0.03,1.63l-6.71,2.08l-8.19,0.45l-1.43,0.78l0.72,1.449l-0.659,0.96l1.539,0.36l0.101,0.91l6.78-1.5l7.81,0.34l0.74-1.37
		l-1.521-1.38l1.12,0.26l2.92,4.53l-0.12,3.2l1.57,0.33l0.51,2.64l-2.439,1.35v2.57l-1.82,0.66l-0.76,2.47l3.88-1.109l0.61,0.649
		l1.35-3.27l3.27-2.42l0.511-5.65l2.319-6.05l2.561-1.59l0,0l4.05,1.59l3.73-3.42l6.81,3.72l0,0l-0.09,3.36l-6.99,13.39l0.36,3.51
		l1.25-3.319l1.54-0.7l-0.131-2.931l6.29-0.64l-0.909-2.89l-1.41-0.811l1.54-1.13l-0.05-2.149l0.51,1l1.82-0.631l-1.141,3.051
		l0.85,0.369l1.101-1.26l0.78,0.76l1.63-0.439l1.75,1.17l-0.391,1.3l1.62,0.87l-0.319,0.82l-1.851-1.11l-1.82,0.46l-3.539-2.15
		l-0.28,1l1.24,0.03l0.92,2.87l-0.681,1.41l3.931-0.87l0.939,0.82l0.44-1.08l1.8-0.23l-0.33,3.99l3.33,1.8l1.47-4.939l-1.229,0.12
		l-1.591-2.551l1.181-2.1l0.88-0.29l0.92,1.32l0.45-2.07l-1.811,0.38l0.17-0.75l2.141-0.35l1.479-1.74l0.59-1.53l-1.659-0.34v-2.1
		l2.42-2.351l-1.46-1l-1.87-2.609l0.75-3.061l-2.12-2.42l0.56-3.689l0,0l10.75,8.34l5.771-0.91l2.56,2.58l-1.77,3.28l5.03,4.51
		l-5.36,5.189l-3.67-0.25l-4.851,4.221l0.931,9.08l1.34-0.07l-0.99,5.229L572.11,540l0.79-3.21l2.75-0.83l1.109,1.75l4.58-2.01
		l8.44,3.489l2.5,2.34l0,0l-0.471,1.83l-7.729,4.011l-7.72,7.83l-6.45,18.029l0.8,2.7l-0.55,1.49l0.7,2.42l3.739,4.39l10.461,5.46
		l8.6,0.881l7.109,6.789l3.91,5.181l0.33,3.149l1.01,0.971l-1.3,3.949l1.38,5.101l-0.359,2.149l-5.33,5.921l-2.521,1.609
		l-3.56-0.109l-2.18,4.38l-11.19-1.46l-11.14,4.31l-3.641,2.92l-0.85-0.479l-7.22,9.409l0.569,8.341l-1.92,1.54l-1.739,0.189
		l-1.131-1.15l0.86-5.909l1.67-2.87l-0.66-0.61l-4.14,0.47l-4.35,2.12l-2.62,4.311l1.029,1.28l2.391,0.59l0.64,1.67l-0.66,2.72
		l1.67-0.771l1.15,1.33l1.66-2.359l2.52,0.06l0.011,1.78l2.13-0.15l0.359-0.869l1.351,0.649l2.29-1.79l4.83,1.75l2.22,2.38
		l-1.49,6.5l-2.21,2.74l-2.65-1.58l-1.67,0.93l-0.37-1.319l-2.859-1.61l0.49,1.58l1.779,0.18l-0.069,1.98l1.439,0.35l-1.55,1.36
		l0.94,0.05l1.22,2.98l-0.43,1.949l2.27,0.45l-0.67,1.82l4.42,8.3l-0.28,2.42l-6.58-0.27l-6.12,5.85l-3.479,1.95l-3.69-0.04
		l-6.55-3.351l-3.34-4.81l-5.74-2l-0.62,0.45l1.341,0.59l0.14,1.311l-2.95,0.18l-9.439-7.12l-2.721-3.29l-11.01-4.15l-6.92-4.069
		l-7.49-2.011l-0.8-0.739l17.57,4.529l10.84,5.53l1.06-1.26l-3.29-6.08l-4.789-3.54l-1,0.7l1.6,1.88l-2.5-0.2l-1.73-2.649
		l1.141,0.029l0.859-1.569l-2.699,0.21l-3.221-4.8l0.61-3.771l0.96,0.81l-0.45,1.301l4.39,0.34l2.57-3.36l4.021,0.91l1.42-1.5
		l-1.07-3.6l-2.05-0.931l-2.25,1.7l-1.12-0.76l0.28-1.55l-4.4,0.04l-1.06,0.949l-2.311-0.96l-0.24-3.14l3.891-2.69l-0.63-1.039
		l-1.53,0.77l-0.44-0.66l2.891-3.31l-1.28,0.18l-3.17-2.87l-3.74,0.54l-4.33,4.5l0.16,1.601l-2.29,1.21l-5.87-3.301l-2.279,0.48
		l-10.66-2.83l-1.44,0.53l-0.62-1.78l-2.939,0.09l0.13-1.27l-1.57-1.62l-1.22,0.68l-2.45-1.3l-2.14,3.09l0.38,0.81l1.37-0.869
		l2.34,0.43l1.649,4l-3.039,0.6l-6.53-0.87l1.12-1.64l3.729,1.47l-1.25-3.939l-2.18-0.62l-3.96,2.66l-2.26-2.851l-2.131,2.32
		l-0.89-2.26l-1.93,0.05l-0.65,2.18l0.65,1.13l-2.91,0.7l-1.93-1.859l-3.29-0.221l-1.851-1.609l-0.939-2.57l1.93-1l-2.44-5.13
		l0.79-0.58l1.061,1.39l4.72,1.11l3.5-7.63l-0.67-2.84l-1.99,1.319l-0.47,4.061l1.04,0.79l-2.46,1.649l-0.9,1.971l-1.239-1.99
		l-2.641-0.67l0.82-3.2l-1.391-5.67l-8.34-4.75l-3.319-3.57l-2.82-1.35l-0.17-1.57l0.89-0.55l2.61,1.729l4.67,0.33l0.35-1.239
		l2.061-1.15l-0.14-2.1l-3.301-2.2l-2.13-0.07l-1.18,1.03l0.92,2.91l-3.03,0.779l-4.45-3.26l-2.31,0.351l2.93-5.67l0.87,1.31
		l4.26-0.68l3.66-2.92l3.431-0.74l1.81-3.641l-2.78-5.02l1.29-6.25l-3.7-7.79l-0.529-5.12l-4.49-4.5l-2.51-4.2l-1.08,1.04l0.35,1.48
		l0.86-0.28l-1.55,2.72l-2.54,0.37l-1.94-1.03l2.09-5.14l6.2-0.09l2.38-5l-1-6.93l-2.85-6.62l-2.65-2.771l-9.88-6.28l-13.22-2.319
		l-1.42-1.11l-0.14-1.66l1.16-0.85l3.3,1.34l4.73-0.229l8.09,1.85l3.76-0.95l0.391,1.021l2.02-1.091l0.25-0.8l-1.939-0.39
		l1.699-1.41l-4.22-0.99l-1.439-0.56l-5.11-3.78l-4.101-6.35l-1.43-0.761l-10.38-0.42l-5.59-3.46l10.58-2.069l5.72,1.22l8.26,3.61
		l4.83-0.83l6.45-4.17l4.47,0.27l2.48-0.83l-0.19,1.771l2.79,3.77l2.19-0.15l0.899-1.76l-0.569-1.229l1.05-0.74l4.73,4.41
		l4.029-2.45l0.771-3.38l0.71-0.18l0.99,2.8l0.819-2.75l5.5-0.87l2.94-2.641l1.67-5.09l-0.91-2.199l-0.41-8.711l-1.189-2.039
		l-1.36,0.26l0.38-0.74l0.77-0.48l4.261,3.681l7.46-4.13l6.149,0.14l3.29-4.479l1.271-4.601l0.18-8.06l-1.319-3.79l-7.65-4.25
		l-11.73-1l-5.64-3.96l-5.24-1.46l-2.85-8.73l3.569,5.29L453.05,448.08z"/>
	<path id="DK-83" fill="#1E3250" stroke="#1E3250" stroke-width="0.5" d="M352.86,709.9l-0.44,1.84l-2.25,1.109l-2.05-5.8l3.63-0.91
		L352.86,709.9z M334.04,706.2l0.31,0.96l-2.34-0.641l0.89-1.85L334.04,706.2z M335.88,702.13l1.22,1.851l-1.8,0.18l-0.43-1.8
		l0.72-1.051L335.88,702.13z M358.45,696l4.56,0.84l0.52,1.99l-1.58,0.01L358.45,696z M335.12,694.59l-1.69,1.93l-1.22-2.05
		L335.12,694.59z M294.78,693.34l2.29,0.62l0.35,2.17l4,4.08l4.01,0.81l5.79,5.971l1.67,3.54l3.83,1.27l0.94,2.45l1.76-0.47l3.22-4
		l-2.27-1.84l0.63-0.761l2.55,2.82l-1.16,1.34l2.04,4.74l2.26,2.54l1.65,1.02l1.85-3.14l2.84,2.71l0.59-0.41l-3.48-4.83l1.45-0.27
		l6.86,7.02l-0.15,3.16l-8.67,1.311l-1.96,1.18l-1.2,2.86l-1.9,1.449l-6.65-4.989l-7.26-9.45l-4.49-2.91l-5.74-7.3l-1.01-5.44
		l-3.81-3.939L294.78,693.34z M324.77,690.31l2.47,3.4l-1.97,1.87l-5.28-3.61l-2.16,1.57l-1.6-1.45l2.87-1.26l0.64,0.9l4.96,0.93
		L324.77,690.31z M330.75,683.66l3.56,2.34l-2.13-0.46l-1.1,1.28l-1.68-0.2l-0.32-1.61l1.46-2.06L330.75,683.66z M304.22,680.96
		l3.52,0.85l2.46,1.811l2.78-1.12l0.38,2.57l-1.38,0.34l-4.77-3.26l-5.32,0.029l-2.96-3.18l0.46-1.5l1.82-0.54L304.22,680.96z
		 M353.63,673.18l1.65,2.4l-0.62,2.09l2.53,0.71l0.35,2.21l-1.45,1.101l-1.42,5.26l-0.64,0.91l-0.73-0.55l-0.75,1.649l1.5,2.101
		l2.97,0.68l1.66-1.66l0.49-2.27l2.9-0.521l-0.46,5.49l-5.02,0.55l-4.48,5.67l-5.02-1.78l-1.05,0.17l1.73,1.8l-2.42-0.319
		l-2.34,1.34l1.38-1.99l-2.03-0.18l0.12-2.41l-2.86-2.39l-0.78-4.99l0.67-0.94l-1.7-0.84l-0.22-1.939l2.41,0.02l1.65-2.33l7.3-4.729
		l3.9-3.69L353.63,673.18z M363.29,673.04l0.99,0.63l1.29,5.69l-2.11-0.94l-4.72,0.811l0.38-1.75l-2.85-0.36l-0.42-2.38l0.83-0.721
		l2.38,0.44L363.29,673.04z M288.43,674.57l2.04,0.5l0.75,1.3l-1.36,1.47l-3.22,0.99l-2.9-3.18l-0.15-2.24l2.15-1.54l-0.11,1.92
		L288.43,674.57z M303.16,673.07l-3.61-1.771l-0.57-2.01L303.16,673.07z M244.26,674.6l7.89,7.061l3.96,0.31l3.18,1.4l6.55,6.899
		l6.59,12.721l0.72,5.38l2.33,3.75l0.72,3.99l-0.94,0.87l-5.97,0.229l-4.53,4.79l-6.41-0.3l-4.63-2.55l-2.5-0.16l-3.02-3.58
		l4.26-4.021l2.4,3.04l4.83,2.36l0.32,1.399l2.33,0.171l2.57,2.779l1.08-1.01l-2.5-4.52l-9.71-6.431l-2.42-0.51l-1.66,2.15
		l-1.16-0.261l-5.47,2.63l-4.96-2.01l-1.78-2.08l-0.21-2.22l-1.69-0.75l-1.42-12.64l-1.13-1.561l1.2-1.18l1.89,2.89l2.74,0.83
		l5.05,7.061l3.31-1l-2.51-1.55l2.9-1.091l-3.31-0.96l1.41-2.189l1.79-0.16l-4.58-3.061l-5.25-0.8l-0.04-2.109l-0.59-0.4l-0.49-1.54
		l2.14-0.88l0.27-1.6l-12.95,0.77l-5.33-3.51l-0.12-1.771l3.48-0.91l1.53-1.399l1.15,0.37l-0.1,1.21l1.92,0.1l-1.21-1.79l-1.62-0.16
		l1.15-1.3l-1.34,0.11l-1.4,1.439l0.26,0.41l-1.15,0.351l-4.98-0.94l-0.74-1.32l0.06-1.609l3.9-3.54l4.45-2.811l6.18-1.52l3.32,0.75
		l6.72,3.899L244.26,674.6z M207.04,659.22l-2.6,0.61l-1.08-3.3l0.61-1.46l1.71,0.26l1.36,1.979V659.22z M398.55,651.26
		l-2.76,15.391l-5.65,21.159l-5.12,6.551l-3.79,8.489l-0.5,3.67l-1.27,1.95l-0.4,5.54l-5.32,13.54l-5.6,20.51l-2.65,3.87l-3.1,1.32
		l-3.68-4.32l-0.13-2.13l1.26-2.21l-2.19-5.16l-0.22-4.24l-3.17-4.92l-4.55-2.989l-0.96-2.021l7.15,2.01l1.74-3.81l1.37-0.38
		l-0.9-0.88l1.12-7.271l1.52-0.2l0.49,1.891l2.22,1.05l0.52-1.52l3.04-0.24l-2.86-4.65l-0.05-2.439l-1.25,2.439l-1.58-0.91
		l-0.86,0.69l-0.68-2.94l1.47-3.199l9.77-12.551l1.87-1.68l2.52,0.28l2.9-3.141l2.53-6.239l2.68-3.341l4.13-16.319l3.09-5.66
		l0.38-3.13l5.29-6.311l1.74,1.4L398.55,651.26z M232.68,620.78l0.67,4.01l1.14-1.11l-0.95-1.27l2.19-0.96l-0.4,1.7l-2.37,3.119
		l-2.78,0.091l-1.92-2.33l1.03-0.73l-0.84-1.91l2.76-1.04L232.68,620.78z M241.43,607.51l1.39,4.01l-0.34,2.32l-4.01,1.34
		l-1.19-5.02l0.8-2.391l1.37,0.641L241.43,607.51z M226.73,600.69l-1.88,0.979l-1.81-1.43l1.44-1.61l1.64-0.25l1.65,1.78
		L226.73,600.69z M37.3,575.5l0.78,1.25l0.61-2.03l2.29-1.83l3.22,0.221l2.03,0.92l-0.54,7.21l0.73,1.399l1.36,1.061l2.68-3.13
		l2.02,1.38l1.63,6.38l-2.6,2.78l2.74,4.22l0.8,5.28l1.35-0.19l-1.56,3.26l0.43,0.88l-3.24-0.489l-3.5-2.721l-7-15.409l-6.08-6.101
		l-0.44-4.17l4.2-2.96L37.3,575.5z M225.03,571.58l-1.78-0.37l-1.81-3.66l0.53-2.239l1.77,0.64l1.65,2.77l1.52,0.271l0.17,1.62
		L225.03,571.58z M351.45,538.45l0.35-2.22l0.89,1.189l8.06,14.86l3.17,3.68l-0.33,2.73l1.48,4.14l3.56,3.79l1.38,3.25l-1.66,1.86
		l-3.37-0.41l-5.45,2.85l-1.08,3.23l-1.77,0.939l-2.63-1.35l0.29,1.29l-1.24,0.26l-2.71-2.51l-3.58-1.4l-0.09,0.88l-3.69,1.09
		l0.57,1.181l-0.45,1.01l-1.59-0.14l0.13,1.05l4.44,4.649l0.93-1.42l-1.12-5.46l1.78-1.649l7.09,4.649l3.86-2.899l13.29,15.1
		l3.9,7.02l3.85,11.82l2.91,2.521l0.43,0.689l0.94,2.021l-3.43,0.95l0.81-0.971l-0.64-1.689l-1.08-0.71l-0.51,0.85l-2.46-2.46
		l-1.53-0.16l0.38,1.92l-0.07,1.69l-0.1,4.46l3.82,10.14l-1.17,12.21l-2.13,4.11l-2.83,12.97l0.62,2.101l-2.61,1.229l-1.8,6.63
		l-5.3,2.88l0.18-1.02l-2.36-0.62l-0.73,1.34l-5.81,0.72l-0.82-1.14l-2.96-0.62l-0.17,2.061l-2.17,1.54l-11.27,5.02l-3.8-1.12
		l-2.52-2.68l-7.68,0.689l-4.03-2.29l0.35-1.22l-2.02-2.689l-2.7,3.5l-4.76-0.811l-0.18-2.069l-2.92-0.94l-1.93-3.29l-6.24-3.09
		L298,662.2l-2.74,1.689l2.01,1.36l0.85,2.64l-2.25,2.79l-1.5-0.14l-2.34-3l-3.43-0.2l-4.13-2.52l-7.73,3.46l-0.69-2.53l1.85-4.85
		l2.87-0.011l1.76-2.34l4.03-1.02l1.62-0.36l2.39-1.561l-1.64-0.96l-2.65-5.13l-1.26-0.13l-0.21-2.96l-2.84-5.609l-0.8-0.12
		l-0.93,1.699l-0.83-0.38l-1.21,2.021l-5.19-0.271l-3.99-1.04l-0.17-3.37l-3.29-1.55l-0.64,0.71l1.83,2.12l-0.97,1.58l-0.9-0.59
		l-0.44,2.56l1.3-0.979l0.31,3.35l2.02,1.37l4.42,6.43l-2.68,3.171l-6.38-2.96l1.73-3.561l-1.28-4.8l0.47-9.63l-2.69-2.811
		l-5.23-0.13l-2.75-4.22l-2.27-1.89l0.99-1.801l-2.47-3.489l1.2-0.71l0.48-8.87l-2.17-6.431l0.14-1.779l2.24,1.069l0.56-1.109
		l-2.44-0.9l-0.79-3.28l-1.82,1.46l-3.05,0.15l-7.38-3.22l0.41-2.78l4.06-0.38l2.92-1.93l0.08-1.69l-2.34-2.73l-4.88-2.02l1.38-1.13
		l3.61,0.55l0.19-2.46l-4.74-2.15l-6.6-0.659l0.4-2.65l-4.13-5.59l0.77-1.2l0.81,1.78l7.76,6.479l3.97,1.74l1.69-0.61l-2.57-2.199
		l-0.38-1.561l-1.09,0.22l-2.64-1.939l0.48-1.11l2.24,0.97l-0.91-1.59l-0.89,0.19l-0.88-1.3l-2.61,0.6l-2.3-1.5l-1.71-4.75
		l-3.84-0.41l-2.8-3.02l-0.46-2.15l2.67-0.58l3.54,2.41l3.15,0.42l3.3-5.89l-1.8-2.98h3.75l3.17-2.27l3.87-0.65l1.93,1.02l0.13,6.23
		l2.26,2.81l7.04,1.07l3.2-0.63l11.59-8.37l1.74-2.64l5.19-1.15l4.44-3.08l4.46-0.67l5.62-2.95l2.11,0.141l1.13-0.69l1.15-2.15
		l10.01-1.899l-0.41,0.77l0.86,2.5l-0.78,2.721l4.71-0.24l0.3-0.931l-1.71-1.569l0.07-3.521l-1.7-2.8l2.72-0.479l14.36,8.18
		l4.87,4.939l12.19,9.131l3.15,3.68l-1.07,0.61l-4.09-5.54l-3.99-2.82l-0.63,0.58l0.84,1.63l-1.18,0.271l-0.76,0.819l-1.56,0.78
		l-0.11,1.189l1.82,1.45l0.05,2.15l2.74,3.04l-1.54,1.02l-1.16-0.569l-0.77,1.319l1.44,1.79l-4.37-1.06l-0.44,2.53l-1.5-0.311
		l-0.71,2.46l-0.22,1.181l-0.18,3.109l-1.51,3.26l2.59,0.45l1.85-1.7l2.22,1.36l3.48-3.58l-0.99-1.97l-1.15-2.94l5.55,1.87l2.3-2.62
		l2.63,1.11l0.02-0.87l2.13-0.439l0.83-1.341l2.45-0.43l1.89,1.43l1.74-2.1l-0.58-4.2l-7.34-3.75l0.11-1.08l2.89-1.92l3.63,3.65
		l1.93-0.601l-1.43-2.62l0.33-3.72l-2.06-3.229l-1.31-6.181l0.2-0.119l4.03,6.55l1.21-2.391l-1.78-1.46l1.33-0.359l-0.53-3.601
		l-1.69-4.529l-1.28,0.81l-2.6-2l0.36-1.82l1.07,1.78L351.45,538.45z M289.77,529.61l2.82,0.87l0.26,1.46l-1.37,1.68l0.82,5.16
		l-0.7,1.02l-0.33-5.74l-2.53-4.5L289.77,529.61z M169.96,458.32l1.28,0.149l0.53,1.17l1.4-0.37l0.86,0.881l0.5-0.681l0,0l0.51-0.54
		l0,0l1.37-0.02l-0.7-0.38l0,0l-0.01-0.07l0,0l5.68,2.67l0,0l0.04,1.59l10.2,14.101l-2.77,1.989l2.14,0.931l-1.14,3.77l4.99,0.49
		l-0.06,1.32l2.88,0.069l2.28,10.15l2.86,0.51l-0.22,2.54l5.56-0.359l0.86-1.62l1.52,2.06l-1.64,2.18l2.39,2.96l3.1-1.54l3.23,1.091
		l0.57-1.4l4.09,2.48l0.42,3.329l-1.73,5.82l0,0l-12.77,1.92l-2.99-1.529l-0.24,2.829l4.37,2.221l7.94-1.021l1.4,1.05l1.66-1.199
		l5.14,7.27l1.09-0.34l3.53,1.96l1.21,6.24l1.78,2.47l6.55-1.33l7.35,0.81L238,542.37l-0.69,2.97l-2.8,3.37l-0.27,3.11l-1.7-0.78
		l-3.07,0.38l-0.5,3.59l1.48,5.92l-2.31,0.12l-6.99-2.32l-4.57,4.54l-1.9-1.12l-2.53,0.79l-0.42-2.279l-5.03-1.891l-0.66,0.84
		l0.98,1.61l2.48,0.14l-1.63,1.4l0.9,3.44l-5.84,0.149l-3.72-1.109l-4.48,2.689l4.41,1.561l7.64-2.211l2.38,1.681l2.32-2.71
		l3.09-0.45l9.37,9.19l-5.52,5.96l-7.61,2.489l-0.79,1.84l4.04,7.83l-2.81,6.25l-1.51-2.43l-2.43-0.83l-1.29,0.55l1.56,2.38
		l6.76,1.421l3.15,3.54l0.44,3.539l-2.49,3.601l1.45-0.08l4.06,6.649l-6.03-1.02l-2.39,3.75l-3.76,0.98l-0.15,2.779l-1.52,0.15
		l-1.11,2.33l3.56-2.22v-2.66l3.04-0.66l3.35-3.44l1.45,1.15l1.63-0.65l7.54,5.11l0.9,2.75l-0.94,1.88l0.51,1.33l-3.4,4.36
		l0.33,5.989l-7.64,4.12l-1.25-2.81l-5.48-0.95l-3.89,3.8l-8.71,5.05l0.9,5.15l1.96,2.03l-6.21-1.04l-1.42,1.64l-0.12,1.07
		l-0.79,1.43l2.87-1.029l0.55,0.92l1.25-1.141l2.2,2.061l1.79,0.35l2.68,4.26l1.62,0.55l-0.06,3.431l-6.93,7.26l-4.71-0.73
		l-3.37,1.83l-1.85-0.5l-0.31-0.979l-0.46,1.55l-0.1,0.54l-0.14,1.09l0.49,2.09l1.27,0.78l0.95-0.88l1.74,2.18l5.33,0.36l7.69-4.04
		l3.53-0.68l0.09-1.91l1.17-0.4l3.34,2.05l3.27,6.07l3.2,1.03l5.56,4.35l6.14,0.11l0.22,3.21l1.73,1.93l0.4,8.94l1.25,0.8l0.49,2.33
		l2.07,1.18l-0.62,1.82l-2.95,1.521l-6.43-1.53l-1.17,1.83l0.22,1.27l3.03,0.37l2.07,1.86l0.37,2.819l2.19,1.881l0.39,2.71
		l-1.2,2.43l-3.53,1.26l-3.11-2.8l0.25-1.36l-3.6-1.149l-3.1,0.5l-2.66-1.38l-0.34-1.421l1.97-1.39l0.86-2.02l-2.03-1.011
		l-0.74-2.02l-5.27-2.95l5.37-2.33l1.55,0.12l1.01,1.59l2.58-1.13l-2.85-3.229l-4.48-1.92l-1.4,4.59l-2.3-0.601l-0.78,0.971
		l1.16-0.03l0.6,1.12l-3.82,2.12l0.48,2.58l-1.59,2.539l-1.29,0.771l-2.51-1.3l-0.37,1.189l-1.68-0.06l-0.57,1.18l-1.44,0.141
		l-3.32,5.55l-7.37,3.859l-1.95-0.01l0.01-1.4l-1.29-1.069l-3.57,0.79l-1.22,4.319l-2.45,1.421l-1.77,3.6l-1.97-1.28l-4.96-0.79
		l-1.3-0.17l-1.9-0.6l-2.82,0.6l-1.97-5.17l1.25-3.03l-0.64-1.47l-12.06-5.1l-14.56-0.2l-4.62-3.48l-9.15-3.83l-7.76-0.569
		l-4.52,1.96l-4.9-2.42l-3.48,0.51l-3.05,2.88l-3.05-1.01l-3.75,0.99l-6.48-4.23l-6.3-0.28l3.09-12.409l0.16-5.58l-3.78-12.9
		l2.01-11.94l5-9.92l-0.61-1.22l1.14-2.05l-1.85-0.86l-8.9,0.7l-7.23-1.17l-0.8,1.85l1.23,4.74l-1.16,5.09l2.57,3.91l-3.08,2.47
		l-3.07-0.34l1.63,2.73l-1.45,0.689l-2.86,0.891l-1.02-0.86l-4.76-6.84v-2.86l2.13-18.319l1.05-1.801l0.95-3.909l1.48-1.45
		l2.91-0.47l-0.63,1.939l7.29,0.63l2.44,2.11l-0.74,2.58l-1.9,1.79l-0.63,4.479l8.68,1.36l4.7-0.7l0.95-1.6l2.28,0.8l0.41-1.3
		l-0.83-0.75l-2.63-14.41l-0.49,1.34l-0.88-0.27l1.3-4.381l-1.07-0.54l0.05-2.869l0.98-0.99l-1.5-1.351l1.25-0.439l-2.76-2.09
		l1.07-2.2l1.21,0.53l-0.82-4.131l0.73-2.739l-2.18-0.73l-7.81,4.7l-2.32,5.15l-3.53,0.52l-1.72-1.84l0.05-2.1l2.12-2.801
		l1.94-0.659l4.09,0.6l7.12-4.29l2.4,0.75l1.35-3.67l0.14-2.21l-1.89-3.95l-4.7-18.74l-9.77-6.96l-4.48,0.74l-6.57-1.6l-0.82,1.689
		l-3.46-1.52l1.14-0.09l-0.18-0.641l-2.44-0.06l0.76-1.391l-2.72-4.109l-13.81-15.42l-3.28-4.971l0.47-1.84l2.57-1.27l0.05-0.92
		l-3.55-2.83l-2.96-0.25l-2.78,3.63l-1.62,3.46l0.03,2.87l2.12,4.149l2.45,1.021l-1.34,2.4l1.22,1.96l5.11,4.77l0.07,3.69
		l-1.76,1.05l-14.13-12.25L0,551.26l11.74-37.63l2.24-14.899l-0.75-10.521l0,0l2.6-0.479l0,0l-1.37-3.25l0,0l6.18,1.01l-0.12,2.109
		l6.55,5.101l1.8-1.061l5.22,0.12l4.01-5.24l4.04,5.101l6.1,0.61L47,493.11l3.54,1.819l1.2,2.86l6.27-0.08l2.66-2.65l-0.16-5.579
		l3.33-0.681l1.31-2.279l-1.94-4.631l5.21-1.6l3.2,3.15l11.51-3.301l4.4,2.591l1.99,5.88l5.05,1.91l9.39-3.271l-4.47-4.52
		l3.97-2.381l2.28-8.439l2.21,0.38l1.32-3.729l2.27-0.08l11.63,2.67l-1.07,9.689l7.12,3.66l2.86-2.439l2.24,1.02l1.73-3.51
		l1.67,1.529l3.66-8.06l2.8,1.95l4.48-3.51l6.33-8.181l-0.08-3.439l3.35-5.91l5.23,0.3l3.26,3.75L169.96,458.32z"/>
</g>
</svg>
