<?xml version="1.0" encoding="utf-8"?>
<!-- Generator: Adobe Illustrator 15.0.0, SVG Export Plug-In . SVG Version: 6.00 Build 0)  -->
<!DOCTYPE svg PUBLIC "-//W3C//DTD SVG 1.1//EN" "http://www.w3.org/Graphics/SVG/1.1/DTD/svg11.dtd">
<svg version="1.1" id="Layer_1" xmlns:amcharts="http://amcharts.com/ammap"
	 xmlns="http://www.w3.org/2000/svg" xmlns:xlink="http://www.w3.org/1999/xlink" x="0px" y="0px" width="684.5px" height="480.5px"
	 viewBox="0 0 684.5 480.5" enable-background="new 0 0 684.5 480.5" xml:space="preserve">
<defs>
	
	
		<amcharts:ammap  projection="mercator" leftLongitude="21.770501" topLatitude="59.668926" bottomLatitude="57.509646" rightLongitude="28.208948">
		</amcharts:ammap>
</defs>
<g>
	<path id="EE-84" fill="#1E3250" stroke="#1E3250" stroke-width="0.5" d="M413.9,219.301l0.35,4.28l-1.41,2.68l2.15,0.38l0.54,3.59
		l-1.01,1.75l-1.62,0.03l-1.85,1.53l0.77,1.42l6.94,1.13l5.17-1.09l6.7,2.85l0.8,2.24l-0.92,1.47l1.16,0.641l-0.02,1.829l0.97-0.22
		l1.79,1.71l2.27-1.67l0.44,6.3l5.21,4.48l1.13-0.91l5.11,5.48l0,0l1.39,2.029l0.1,2.8l2.58,6.86l-1.63-0.27l-1.33,1.05l-1.29,3.22
		l-9.09,9.69l2.24,37.3l0,0l-4.31,0.06l-0.75,1.49l-3.681,0.93l-0.06,1.07l-1.44,0.9l-3.68-0.16l-0.42-3.37l-1.74-3.18l-2.97-1.95
		l-2.13,0.01l1.43,3.271l-3.13,1.529l0.11,1.721l0.54,0.729l1.13-2.189l0.52,3.43l-1.56-0.04l0.24,1.13l-1.99,0.76l0.09,1.16
		l-1.48-0.27l-0.46,1.58l-0.73-0.48l-1.59,1.59l-3.15-0.22l1,1.26l-5.8,6.98l-1.39-1.561h-5.73l-0.78,1.01l2.18,5.271l-3.48,7.13
		l0,0l-1.45-2.68l-1.94,1.979l-0.65-1.93l-2.96,1.09l-0.81-0.53l0.71-2.04l-3.36,0.79l-3.9-3.359l2.07-1.66l-1.28-1.74l-4.01-2.72
		l-4.27-0.21l-2.76-5.09l-4.25-4.301l-2.61,3.46l3.92,5.53l-0.35,6.69l-1.55,0.74l-2.47-0.61l-2.86-4.13l1.56-0.431l-1.06-0.93
		l-0.94,0.521l-0.62-3.221l0.91-2.06l-0.95,0.479l-1.11-2.85l0.67-2.56l-1.15-1.061l-1.42,0.521l0.34,1.26l-7.87-0.29l-0.35,2.01
		l-2.15,0.05l-3.36,4.58l0,0l-1.05-1.279l-0.49-3.761l-1.43-0.779l0.97-3.311l3.84-2.149l-0.93-1.351l0.25-1.68l3.9,0.05l0.97,1.24
		l0.46-1.181l1.03,0.011l0.4,1.189l0.61-3.029l-2.84-2.141l0.05-1.58l1.28,0.221l0.55-1.03l-0.72-2.67l0.75-0.721l0.74,1.25
		l0.63,3.601l1.23-1.19l-0.77-3.109l1.67-0.61l0.34-1.83h-1.36l0.06-1.01l1.78-1.13l2.68,0.52l2.13-2.1l1.78,2.37l0.02-1.351
		l1.39-0.79l0.04-3.5l-1.36-3.779l2.86-1.62l-0.82-4.33l-8.21-1.351l-2.35-5.25l-1.59-0.97l-3.15,1.5l-0.56-2.33l-0.69,0.78
		l-4.61-1.63l-5.61,1.25l-0.83-3.74l1.48-9.81l-0.28-4.99l1.25,0.649l1.74-2.329l-0.53-8.91l1.85-1.061l0.4-2.609l3.56-0.5
		l0.88-1.95l3.91-0.67l2.41-2.83l1.17,1.149l1.39-1.06l-0.04-3.03l1.6-1.05l-0.36-1.46l5.57-1.16l-1.37-1.05l-0.57-5.51l-1.33,0.33
		l0.31-2.33l3.08-1.601l0,0l0.86,1.42l4.11,0.54l1.05,1.2l3.45-1.02l0.88,1.819l1.69,0.15l2.35-1.29l5.58,1.2l1.28-1l-0.47-1.101
		l2.42-0.01l2.43-2.71l1.39,2.09l1.22-0.91l-0.96-0.93l1.68-1.31l3.32,0.689l2.07-2.31l3.33-0.46l1.44-3.42l5.34-0.42l4.95-2.101
		L413.9,219.301z"/>
	<path id="EE-65" fill="#1E3250" stroke="#1E3250" stroke-width="0.5" d="M493.94,322.351l3.199-1.06l-0.199-1.69l1.64-1.72
		l-1.5-0.84l0.2-0.92l1.42,0.25l-1.83-2.561l0.439-2.5l3.551,0.86l3.649-2.3l1.09,2.21l-0.729,2.25l1.18-1.19l1.05,0.75l0.311-1.06
		l2.79-1.63l1.89-0.11l1.11,1.42l-0.12-1.29l3.79-3.04l0.62-4.64l2.51-3.92l0.8-0.271l1,1.54l0.17,2.54l1.391-2.09l1.75,0.47
		l0.72-1.1l1.91,0.399l0.21,2.5l2.53-0.77l0.88-1.28l0.72,1.44l1.61-1.57l0.439-4.59l2.61,0.939l1.2,2.32l4.35-1.08l0.52-2.99
		l1.11,0.11l1.86,2.43l6.77,0.061l0.32,1.08l3.4,0.39l-0.78,3.84l7.45,1.561l0.55-0.86l3.33,2.25l2.39-0.54l1.14,2.75l9.57,1.18l0,0
		l6.74,12.16l3.33,3.86l-2.53,8.24l1.2,8.14l3.45,2.14l-0.48-4.18l3.79,2.47l0.521,2.71l-1.75,3.011l0.63,2.279l-2.55,1.04
		l2.489,3.71l-0.06,1.591l3.17,0.699l-0.23,1.811l-1.71,0.75l0.95,0.979l2.38-0.96l3.28,2.23l2.11-0.96l2.199,0.35l0.551,1.45
		l-0.811,0.82l0.41,4.109l-2.07,2.12l0.271,1.57l-0.65-0.41l-1.22,1.76l-1.46-0.319l-1.85,1.09l-3.101-2.94l-2.22,1.99l-5.72-1.05
		l-7.23,1.439l0,0l-4.229,0.32l-5.671-1.54l-4.52,0.26l-1.86,0.521l-2.38,3.17l-0.34-1.36l-1.04,0.38l-0.979-1.39l-1.551-0.14
		l-0.39-2.19l-3.08-0.13l1.66-5.55l1.12,0.39l2.89-3.05l0.22-1.4l-2.79-1.29l0.32-1.91l-1.08-0.05l-0.399,3.37l-3.051-1.87
		l-2.13,0.51l-2.72-1.689l0.15-0.771l-2.7,0.561l-0.66-1.95l-1.8,0.59l-1.931-4.37l-1.789,0.2l-0.631-1.81l-2.68,2.72l-1.39-1
		l-1.48,1.85l2.98,5.511l-3.21-0.641l-0.03-0.75l-4.87-0.05l-0.37-0.86l-0.52,0.771l-1.65-0.98l-0.37-3.68l-6.89,4.13v-1.609
		l-0.97-0.021l-2.65,0.811l-1.5-0.58l-3.17,1.699l-1.38-2.39h-2.03l-1.68,1.41l-0.54-1.521l-1.99-0.119l-2.16-1.86l-2.43,1.7
		l-2.36,0.1l-0.479-0.85l-2.851,0.96l-2.199-1.82l0.279-0.95l-2.21,0.15l-0.109-1.82l-0.891-0.22l0,0l1.891-5.73l-1.801-2.72
		l2.101-3.13l0.14-2.95l-0.99-0.41l0.42-2.85l-1.189,0.54l-0.28-2.53l2.271-3.6l1.319-5.67L493.94,322.351z"/>
	<path id="EE-44" fill="#1E3250" stroke="#1E3250" stroke-width="0.5" d="M507.31,69.991l12.471,9.789l4.96,2.03l9.649,0.67
		l16.301-1.92l14.81-0.6l14.9,3.71l0.76,0.99l4.92,1.42l13.75-0.221l1.88,2.57l4.5,1.19l5.16-1.471l5.14,0.221l1.931-0.99l5.52-4.69
		l4.67-7.46l0.641,1.36l4.329,2.16l2.61,2.72l1.5,3.521l5.66,4.38l1.02,2.42l-0.06,3.66l-3.65,5.409l-3.77,8.11l-6.771-0.04
		l-6.699,3.12l-2.641,0.33l-4.79,5.189L614,128.661l-2.31,4.47l-5.54,6.56l0.42,3.061l-1.99,2.88l0.26,4.02l-1.58,1.841l-0.649,5.14
		l-2,0.899l-0.73,9.03l-27.25,26.82l0,0l-11.41-4.23l-13.1-1.76l-23.25-0.109l-1.53-0.62l-1.12-2.58l-2.37-1.67l-5.359-0.82
		l-0.54,1.71l-7.33,1.3l-1.811-4.62l0.54-3.729l-1.399-1.05l0.899-2.17l-2.569-1.82l-0.28-1.6l0,0l2.42-2.15l4.59-0.81l1.82-2.5
		l-0.19-5.431l1.99-1.819l-1.29-1.49l0.96-15.23l1.12,0.54l2.72-3.25l3.511-0.41l0.409-1.35l1.29,1.89l1.98-0.09l0.67-5.149
		l1.101-0.061l-0.45-3.03l-1.811-0.569l1.021-2.07l-1.09-2.479l-7.761-4.07l0.681-0.91l-0.65-5.19l-8.08,4.471l-0.84-4.971
		l-1.01,0.061l0.77-4.25l-0.649-0.851l2.149-2.3l1.11-4.27l0.91,0.22l0.46-1.75l1.8,0.47l0.83-1.689l-3.95-2.21l-3.45,0.5l-1.1-1.49
		l-1.29,1.15l-1.221-0.87l5.021-4.69l-2.39-4.93l2.64-1.23l1.26,1.66l2.16,0.37l-0.69-10.32l-2.56-5.149l0.01-1.851l0,0
		L507.31,69.991z"/>
	<path id="EE-78" fill="#1E3250" stroke="#1E3250" stroke-width="0.5" d="M568.04,219.591l14.3,58.57l-6.229,11.33l0.239,13.96
		l3.57,6.829l0,0l-9.57-1.18l-1.14-2.75l-2.39,0.54l-3.33-2.25l-0.55,0.86l-7.45-1.561l0.78-3.84l-3.4-0.39l-0.32-1.08l-6.77-0.061
		l-1.86-2.43l-1.11-0.11l-0.52,2.99l-4.35,1.08l-1.2-2.32l-2.61-0.939l-0.439,4.59l-1.61,1.57l-0.72-1.44l-0.88,1.28l-2.53,0.77
		l-0.21-2.5l-1.91-0.399l-0.72,1.1l-1.75-0.47l-1.391,2.09l-0.17-2.54l-1-1.54l-0.8,0.271l-2.51,3.92l-0.62,4.64l-3.79,3.04
		l0.12,1.29l-1.11-1.42l-1.89,0.11l-2.79,1.63l-0.311,1.06l-1.05-0.75l-1.18,1.19l0.729-2.25l-1.09-2.21l-3.649,2.3l-3.551-0.86
		l-0.439,2.5l1.83,2.561l-1.42-0.25l-0.2,0.92l1.5,0.84l-1.64,1.72l0.199,1.69l-3.199,1.06l0,0l-0.23-1l-1.79,0.25l-0.02-2.43
		l-3.101-1.11l-0.04-2.1l-1.06-0.931l-6.17-0.109l-0.95,1.689l-1.78,0.21l-2.49,1.921l-1.01-0.75l-1.14,0.539l-0.92-4.64
		l-1.061,0.601l-2.35-1.171l-3.7,7.221l-4.189-0.86l-1.28,4.18l-11.57-0.85l-0.45-1.2l-2.08,0.561l-0.59,1.27l-0.569-1.54l-2,0.7
		l-1.86-0.92l0,0l-2.24-37.3l9.09-9.69l1.29-3.22l1.33-1.05l1.63,0.27l-2.58-6.86l-0.1-2.8l-1.39-2.029l0,0l-0.09-1.58l0.949-0.33
		l0.971-2.99l2,2.09l1.6-1.18l1.7,1.03l8.229-6.16l2.471-0.75l0.819-1.65l3.49,1.311l0.41,2.68l1.64,0.95l-0.54-1.13l1.09-2.99
		l1.5-1.181l3.5-0.149l2.841,1.54l0.72-0.94l-1.1-0.689l1.17-1.03l4.29-0.49l-2.07,2.16l2.54,1.25l1.54-1.51l4.359,3.74l3.921-2.181
		l-0.891-1.01l0.12-1.96l2.25-3.22l-0.65-1.29l4.87,4.689l2.551-1.359l0.18-1.641l1.54,1l1.64-1.25l2.141,0.63l1.13-1.43l2.09-0.29
		l-0.42-1.53l2.42-0.159l1.05-10.33l6.49,2.02l2.93,2.73l0.68-0.88l1.271,0.89l0.41-1.521l1.87,1.94l0.1,1.479l2.21,0.5l0.15-2.25
		l-1.45-2.93l0.689-1.359l-0.6-1.131l-1.42,0.341l-0.12-1.2l3.97-0.98l1.641-1.97l1.58,0.86l0.949-2.15l-0.6-1.4l29.34-9.359l0,0
		L568.04,219.591z"/>
	<path id="EE-51" fill="#1E3250" stroke="#1E3250" stroke-width="0.5" d="M371.42,163.721l1.24-3.24l1.04-0.37l1.61,1.29l2.51-2.83
		l0.91-6.89l-2.05-3.24l2.79-2.489l1.47,0.569l2.34,3.63l2.71-5.79l-4.12-2.449l1.49-3.511l-0.95-1.979l5.28-6.88l2.39-6.23
		l-2.29-6.08l-3.32-4.04l3.21-0.069l2.82,1.199l4.58-2.18l5.47,3.521l1.38-0.87l-0.02-2.761l2.66-0.039l1.97-1.82l4.22,0.28
		l3.03-2.601l9.86,1.561l2.75,3.21l0,0l0.36,1.59l-1.35,0.45l0.03,1.3l2.74,0.29l-0.48,5.279l1.85-0.85l1.92,1.28l-0.979,2.22
		l-1.5,0.7l0.819,1.28l-1,1.42l1.921,0.02l1.68,1.67l1.66-1.319l1.279,0.359l0.9,4.36l-2.65,2.109l-1.05,5.24l-1.6-0.109
		l-1.38,1.479l-1.011,6.44l-2.109,2.489l0.88,1.801l0.91-1.66l1.42,1.859l1.31-2.02l2.99,3.02l3.271-0.76l0.97,0.59l1.22,1.33
		l1.07,4.79l2.53,0.79l0.52,2.5l4.41,2.601l-0.47,2.439l1.329,3.62l1.271,0.5l-0.49,3.25l1.05,2.29l-1.56,4.02l0.57,1.62l0,0
		l-0.051,1.61l-1.319-0.64l-2.48,3.899l0.95,0.73l0.55,3.7l-7.89,0.989l-1.98,1.08l-1.149-0.62l-0.94,3.091l-3.13-0.471l-1.68,1.63
		l1.359,4.42l-0.13,3.25l-3.77,2.71l-0.86-2.409l-2.28-1.561l-1.53,0.21l0.25,2.26l-1.71,1.9l-3.13-0.22l0.72,3.62l-2.83,1.89
		l-0.19,1.15l-1.07-0.25l-1.46,4.43l0,0l-1.28,1.51l-4.95,2.101l-5.34,0.42l-1.44,3.42l-3.33,0.46l-2.07,2.31l-3.32-0.689
		l-1.68,1.31l0.96,0.93l-1.22,0.91l-1.39-2.09l-2.43,2.71l-2.42,0.01l0.47,1.101l-1.28,1l-5.58-1.2l-2.35,1.29l-1.69-0.15
		l-0.88-1.819l-3.45,1.02l-1.05-1.2l-4.11-0.54l-0.86-1.42l0,0l1.12-0.91l4.55-13.289l-4.58-2.53l-5.37-0.84l0,0l1.23-6.891
		l1.57-0.89l-3.45-6.2l0.61-1.3l1.99,0.64l1.43-3.02l2.13-1.57l-0.71-1.06l2.45-4.82l-1.3-1.71l-1.24,0.06l-1.44-2.33l2.03-4.359
		l4.3-2.57l0.87-6.649l-2.36-3.62L371.42,163.721z"/>
	<path id="EE-86" fill="#1E3250" stroke="#1E3250" stroke-width="0.5" d="M488.59,351.881l0.891,0.22l0.109,1.82l2.21-0.15
		l-0.279,0.95l2.199,1.82l2.851-0.96l0.479,0.85l2.36-0.1l2.43-1.7l2.16,1.86l1.99,0.119l0.54,1.521l1.68-1.41h2.03l1.38,2.39
		l3.17-1.699l1.5,0.58l2.65-0.811l0.97,0.021v1.609l6.89-4.13l0.37,3.68l1.65,0.98l0.52-0.771l0.37,0.86l4.87,0.05l0.03,0.75
		l3.21,0.641l-2.98-5.511l1.48-1.85l1.39,1l2.68-2.72l0.631,1.81l1.789-0.2l1.931,4.37l1.8-0.59l0.66,1.95l2.7-0.561l-0.15,0.771
		l2.72,1.689l2.13-0.51l3.051,1.87l0.399-3.37l1.08,0.05l-0.32,1.91l2.79,1.29l-0.22,1.4l-2.89,3.05l-1.12-0.39l-1.66,5.55
		l3.08,0.13l0.39,2.19l1.551,0.14l0.979,1.39l1.04-0.38l0.34,1.36l2.38-3.17l1.86-0.521l4.52-0.26l5.671,1.54l4.229-0.32l0,0
		l0.99,0.4l-0.44,1.45l-0.75-0.051l0.83,1.32l-1.81,1.4l0.1,2.529l-3.82,0.801l1.66,2.29l-0.439,1.779l1.89,1.561l-1.41,1.08
		l1.58,0.109l-0.08,1.58l1.49,1.24l-1.68,0.92l-0.36,3.41l-1.34-0.48l-1.061,0.96l-0.479-3.159l-2.49,2.77l-1.75-1.32l-1.64,1.351
		l-0.13,1.689l-1.5,0.021l-3.82,5.93l1.05,1.91l-0.319,1.72l1.829,1.771l-0.96,2.87l1.49,0.92l-2.42,2.529l-2.59,0.4l-2.811,3.33
		l2.57,10.43l-6.689-3.479l-1.65-1.92l-2.14,0.279l-1.181-1.06l-3.01,0.41l-6.95-1.68l-3.649-2.79l-3.73-0.83l-0.939-0.67
		l0.689-2.091l-1.21-1.319l-3.38-0.07l-1.59-1.33l-0.91,1.48l-2.05,0.43l-0.66-1.22l0.9-1.891l-2.341-2.319l-1.659-0.051
		l-4.061,3.07l-0.53,4.04l-2.279,1.75l-3.09,0.15l-0.74,1.51l-0.8-0.061l-0.931,2.32l-1.81-0.28l1.34-2.279l-3.38-2.021l-0.49,3.13
		l-1.97,0.32l-1.141-0.81l-0.1,0.859l-2.15,0.181l-0.42,0.81l0.82,0.65l-2.6,0.369l-3.511,4.58l-0.029,3.37l-2.29-1.29l-0.36-3.87
		l-2.07,1.79l-0.479,2.91l-5.62-2.16l-2.88-8.979l0,0l1.66-2.83l-3.561-0.32l0.41-0.79l1.25,0.511l2.89-5.341l-5.319-4.46l5.96-7.67
		l-0.44-2.27l-1.06-0.11l0.02-1.77l-1.739,1.08l-0.03-1.811l-1.99-2.77l0.34-1.19l2.19-0.21l1.71-1.42l-1.11-3.2l1.26-0.42
		l0.051-2.08l-1.94-0.93l-3.53,1.67l-0.22-1.99l-2.02-2.06l1.33-2.19l-1.54-4.43l2.17-2.04l-1.63-2.46l-2.181-0.11l-2.399-1.64
		l2.02-0.75l0.57-2.37l1.71-1.55l-0.32-3.26l-1.56-1.29l1.06-2.17l2.24,1l2.189-1.23l2.891,0.49l0.109-1.78l1.19-1l1.37,0.79
		L488.59,351.881z"/>
	<path id="EE-67" fill="#1E3250" stroke="#1E3250" stroke-width="0.5" d="M245,316.341l1.91,0.56l-1.32,6.41l-1.59,2.74l-1.93,0.66
		l-1.69-3.78l0.9-5.78L245,316.341z M258.09,303.831l-1.4,3.02l-2.14,0.61l0.42-1.74l1.03,0.25l2.7-3.94L258.09,303.831z
		 M257.35,217.73l5.23,4.5l4.5-1.569l14.24,5.1l2.91-3.021l4.12-1.619l1.31-1.641l0.91-4.54l3.72-2.14l1.74-2.17l3.93,3.03
		l-1.59,1.59l0.44,1.609l2.71-0.399l5.87-3.21l2.42-4.75l2.41,1.13l1.53-0.601l4.17,2.761l2.44-0.8l0.67,0.84l1.58-0.4l1.47-2.25
		l2.73-1.729l5.25,4.26l-0.96,7.99l1.32,4.81l0.83,0.29l1.36-0.64l0.73-3.391l3.59-4.92l1.34,0.29l1.62-1.19l0.9,1.24l1.72-0.46
		l1.83-2.649l-0.52-0.681l8.53,1.84l4.61-1.13l0,0l5.36,0.84l4.59,2.54l-4.56,13.28l-1.12,0.91l0,0l-3.07,1.6l-0.31,2.33l1.33-0.33
		l0.57,5.511l1.38,1.06l-5.57,1.16l0.36,1.45l-1.6,1.05l0.05,3.03l-1.4,1.05l-1.17-1.141l-2.41,2.83l-3.91,0.67l-0.88,1.94
		l-3.56,0.51l-0.4,2.61l-1.85,1.05l0.53,8.91l-1.74,2.33l-1.25-0.65l0.28,4.99l-1.48,9.81l0.83,3.74l5.61-1.25l4.61,1.62l0.69-0.78
		l0.56,2.33l3.14-1.5l1.6,0.97l2.35,5.25l8.2,1.351l0.83,4.32l-2.87,1.619l1.37,3.78l-0.04,3.51l-1.39,0.79l-0.02,1.351l-1.77-2.37
		l-2.13,2.1l-2.68-0.52l-1.78,1.13l-0.06,1.01h1.36l-0.34,1.83l-1.67,0.61l0.77,3.109l-1.23,1.19l-0.63-3.59l-0.74-1.261
		l-0.75,0.721l0.72,2.68l-0.55,1.02l-1.28-0.22l-0.06,1.58l2.85,2.14l-0.62,3.03l-0.4-1.18l-1.02-0.021l-0.47,1.181l-0.97-1.24
		l-3.9-0.05L345,324.12l0.93,1.351l-3.84,2.149l-0.97,3.32l1.43,0.771l0.48,3.76l1.05,1.29l0,0l-3.44,4.6l-5.34,0.38l-9.83,6.511
		l-1.66,0.449l-2.12-3.109l-6.26,1.39l-0.09,3.16l-2.68,0.61l-2.07,2.539l-1.72-2.119l-2.35,0.21l-2.5,3.13l-3.59-3.5l-4.04,2.93
		l-1.86-0.16l-1.17,2.771l-4.57,1.09l-1.52,2.59l1.35,0.78l-0.67,1.55l0.65,3.14l-4.45,2.461l-0.69-1.091l-4.74-0.46l0.39-3.56
		l2.54-5.08l0.17-4.89l1.53-4.961l1.57-3.789l2.22-1.73l3.4-11.33v-3.39l-1.38-1.99l1.15-2.81L290,320.73l0.8-0.2l-1.05-1.96
		l0.65-1.149l-1.22-4.45l-1.28,0.229l1.87-6.109l-0.89-0.99l1.52-1.58l0.37-2.63l-1.47-1.75l8.03-5.601l2.4-2.77l0.86-4.9l-0.6-2.27
		l-4.5-6.37l-4.15-1.26l-1.17-1.641l-5.82-0.899l-9.88,1.41l-1.75,2.909l-0.2,6.86l-2.48,7.54l0.66,1.21l-6.96,1.24l-1.45,1.01
		l-1.06-1.12l-1.76,3.12l-3.07,2.23l-0.44,2.199l-0.32-1.96l-3.79-2.02l-5.89-12.54l-1.27,0.229l0.29,4.271l-1.2-2.521l-0.74-0.489
		l0.08,1.369l-2.77-3.949l-1.35,1.05l-2.36-1.7l-0.87,3l-2.47-1.51l-3.75-6.73l-1.53,2.19l0.55,1.569l-1,0.23l-1.68-1.46l-0.66,0.56
		l-2.16-2.35l-0.43,3.88l-1.23-0.51l-1.33-2.13l0.53-2.26l-2.61-4.44l-3.63-10.96l1.35-6.45l-1.02-1.69l0.99-1.6l-1.14-1.81
		l0.55-2.88l-0.98,0.47l-0.3-1.12l-0.69,2.2l-1.29,0.47l0.13-0.85l-1.12,0.239l-2.56-3.449l-0.41,0.439l0,0l1.72-2.31l2.38,1.6
		l1.41-1.47l2.46-0.44l1.62,0.16l2.99,2.51l1.11-1.399l2.05,0.8l0.83-1.36l2.91-0.96l0.59-1.62l3.47,1.271l0.88-1.05l3.1,0.35
		l1.57,1.09l-0.04-2.45l-4.25-7.229l-0.19-0.87l1.48-0.91l-2.24-4.64l0.65-0.38l2.21,1.89l-0.21,0.91l5.28,3.08l1.24-2.97l2.84-1.42
		l-1.02-8.521l1.85-1.06l1.15,2.02l3.36,0.68l-0.33-0.819l4.91-0.8L257.35,217.73z"/>
	<path id="EE-59" fill="#1E3250" stroke="#1E3250" stroke-width="0.5" d="M431.69,45.241l1.109-0.431l1.26,1.29l-1.109,1.18
		l1.47,0.021l0.17,1.65l2.34-1.5l0.311-1.37l1.51,0.939l1.54-1.09l-1.02,2.19l1.67,2.08l3.56,1.22l-1.47,0.58l1.09,2.25l16.27-0.09
		l5.37,5.52l3.5-0.24l1.011,1.16l5.909,1.101l-0.18,0.97l3.03,1.16l1.01,2l2.78,2.02l0.46-0.6l-1.2-0.88l4.22-0.65l0.561,0.88
		l2.33-0.82l1.649-3.079L488.9,60.57l1.75,0.45l0.8-0.2l0.88-0.649l1.81,1.25l2.311-0.021l1.68,1.83l2.13,0.09l2.351,1.421
		l0.55,1.829l2.2-0.649l0.58,1.479l-0.66,0.88l1.609,1.811l0,0l-0.01,1.85l2.561,5.15l0.689,10.32l-2.16-0.37l-1.26-1.66
		l-2.64,1.229l2.39,4.931l-5.02,4.689l1.22,0.87l1.29-1.149l1.1,1.489l3.46-0.5l3.95,2.21l-0.83,1.69l-1.8-0.46l-0.45,1.75
		l-0.91-0.22l-1.109,4.27l-2.141,2.3l0.65,0.851l-0.771,4.25l1.011-0.061l0.85,4.971l8.08-4.471l0.65,5.19l-0.681,0.91l7.771,4.069
		l1.09,2.48l-1.021,2.07l1.811,0.569l0.46,3.03l-1.1,0.06l-0.66,5.16l-1.98,0.09l-1.29-1.88l-0.41,1.351l-3.51,0.41l-2.71,3.25
		l-1.12-0.53l-0.96,15.229l1.29,1.49l-1.99,1.82l0.19,5.43l-1.82,2.5l-4.59,0.81l-2.42,2.15l0,0l-1.98-0.859l-11.89,6.25
		l-2.149-0.11l0.159-1.84l-1.189-0.75l-3.8,0.68l0.189,0.99l-1.729,0.81l0.29,2.021l-1.78,0.31l0.84,3.141l-1.62,1.159l0.16,1.65
		l-2.53,0.51l-1.16,1.74l-4.37-0.73l-2.819-4.569l0.819-0.51l-0.609-2.33l-4.1,0.68l-0.69,1.3l-1.64-0.51l-0.311,2.7l-2.09,0.729
		l-8.3,0.811l0,0l-0.57-1.61l1.56-4.021l-1.039-2.29l0.479-3.25l-1.26-0.5l-1.34-3.619l0.479-2.44l-4.41-2.59l-0.51-2.5l-2.53-0.79
		l-1.069-4.79l-1.221-1.33l-0.97-0.59l-3.27,0.76l-2.99-3.02l-1.31,2.029l-1.42-1.859l-0.9,1.66l-0.88-1.811l2.11-2.49l1.021-6.439
		l1.38-1.48l1.6,0.11l1.05-5.25l2.65-2.11l-0.9-4.359l-1.27-0.351l-1.66,1.311l-1.68-1.66l-1.92-0.021l1-1.42l-0.82-1.279l1.51-0.7
		l0.98-2.221l-1.93-1.279l-1.84,0.85l0.48-5.28l-2.73-0.3l-0.04-1.3l1.35-0.44l-0.35-1.59l0,0l4-1.26l-1.59-6.03l-0.279-7.5
		l-0.69-2.88l-4.11-7.18l1.16-4.49l-1.44-1.08l-0.24-1.51l-3.16-0.13l-1.48-11.47l-1.24-3.12l-1.6-0.45l-0.31-2.91l3.39-1.4
		l0.9-1.569l-1.01-1.53l0,0l3.75-1.74l-0.28-9.739l1.02,1.609l3.39-0.17l1.01,3.021l-1.25,1.819l0.55,1.971l3.09,0.71l1.83-0.841
		l0.801-2.659L431.69,45.241z"/>
	<path id="EE-39" fill="#1E3250" stroke="#1E3250" stroke-width="0.5" d="M155.16,203.581l-0.64,2.01l-1.17-1.74l0.94-1.46
		L155.16,203.581z M148.98,196.471l0.48,1.67l1.53,0.62l-0.12,2.71l-0.48-2.01l-2.14-1.92L148.98,196.471z M137.62,194.561
		l1.74,1.23l-1.76,1.3l1.23,4.229l-1.63,0.62l0.13-0.79h-1.35l-0.75,0.841l0.48,1.039l-1.78-0.58l-1.22,2.271l0.55,1.21l-1.82-0.97
		l-1.64-0.33l-0.3-3.29l0.67-0.49l1.61-1.24l0.36-3.439l2,0.35l1.53,0.11L137.62,194.561z M156.41,194.201l0.88,1.59l-1.08,2.689
		l-0.88-0.989l1.3-1.12l-1.05-2.141L156.41,194.201z M161.88,192.551l1.52,1.65l-1.8,0.79l-1.06-2.29l0.83-0.69L161.88,192.551z
		 M149.95,174.951l3.67,2.42l0.48,2.199l-1.1,1.82l-1.96-2.26l-0.03-2.59L149.95,174.951z M111.33,146.681l2.5,1.16l3.47-1.16
		l3.83,2.82l-1.06,5.01l0.7,4.53l1.52,2.25l2.4,0.63l1.78-0.86l7.53,2.7l0.79-1.65l2.2,1.12l0.96,2.96l1.29,1.011l1.36-1.341
		l0.28,1.32l1.28,0.15l2.29-1.271l-1.14,1.891l2.47,2.79l-1.76,0.46l0.42,2.37l2.91,4.539l2.54,0.311l2.15,3.08l0.68,2.38l-0.57,0.9
		l2.33,2.439l-0.1,1.45l2.15,3.939l-4.08,2.421l-0.51-4.08l-2.06,1.83l-1.49-1.7l-2.44-0.82l-1.39,1.43l1.31,2.141l-0.36,0.859
		l-1.9-0.81l-1.24-2.71l-0.43,4.54l-1.27-1.59l-3.82-1.28l-0.08,1.54l-2.9,0.99l-0.57-0.771l-2.55,1.45l-0.08,0.91l-0.85-1.21
		l-1.47,0.159l0.2,1.98l-1.45-1.26l-1,2.189l0.88,0.351l0.4,1.96l-2.78-2.83l-1.89,5.38l1.45,1l-4.3,8.27l-1.45,5.16l-9.55,1.97
		l-3.51-1.369l-0.74,0.529l-4.21-2.609l0.44-1.311l-0.74-0.78l-0.87-0.97l3.22-0.239l0.77-1.28l-2.06-1.88l-0.27-1.641l-2.04-0.2
		l1.69-1.39l0.08-2.78l-3.38-2.359l1.71-2.011l-0.43-1.52v-0.68l-0.86-0.49l0.91-2.67l-0.36-2.641l-1.85-2.289l-0.68-2.891
		l-3.06-3.72l-2.95-1.3l-3.52,0.77l-0.59,1.561l-1.17,0.31l-2.31-1.76l-2.35,1.91l-8.26,0.09l-3.09-2.271L68,179.87l-7.03-2.699
		l-0.77,0.5l-1.37-1.54l1.11-1.87l-0.74-0.601l4.07-1.1l1.76,1.21l2.61-0.26l6.82,1.52l3.23-0.33l3.44-2.189l2,0.7l1.53-0.971
		l5.9,2.96l2.06-0.33l2.51-3.64l-0.83-2.54l1.02-0.02l1.6,1.949l1.11-0.35l-0.23-1.41l0.65,1.051l1.19-0.351l-2.87-3.899l-0.1-1.82
		l3.03,0.24l1.62,2.369l1.41-1.05l-1.86-1.069l1.37-1.771l-1.29-0.61l0.01-1.27l-0.49-0.92l-0.28-1.58l1.42-0.42l4.35,1.75l0.48-1.6
		l-0.93-1.141l3.65,0.37l0.97-1.01l0.4-10.19L111.33,146.681z"/>
	<path id="EE-57" fill="#1E3250" stroke="#1E3250" stroke-width="0.5" d="M192.11,193.431l3.16,1.7l-0.22,1.67l-1.36-0.09
		l-0.35,0.899l-1.53-1.43l-0.64-2.31L192.11,193.431z M168.55,155.311l5.32,0.9l-0.32,1.25l1.01,0.02l0.82,1.86l1.17-1.78
		l0.86,1.101l1.44-2.471l0.83,1.66l1.6-1.689l1.74,2.63l1.06,0.18l0.45,2.39l2.23,2.721l-1.18,3.369l-2.46-1.619l-1.72,0.399
		l-0.65,1.99l-1.46-0.771l-0.61-0.199l-1.44,0.529l0.28,2.461l2.05,0.659l-2.37-0.109l-2.92-3.45l-3.55-1.58l0.21,3.9l-3.04-1.82
		l0.19,2.5l-1.41-0.04l-1.02-0.07l-1.4-2.89l1.8-0.28l0.02-1.21l-1.24-0.33l-1.51-3.03l-1.26-0.399l-1.16-3.9l1.24-2.76l1.6,0.479
		l1.79-2.25L168.55,155.311z M212.72,116.991l1.17,2.279l2.07,1.24l3.33-1.56l0,0l0.15,5.72h4.72l0.07,5.939l4.72-0.149l1.03,2.96
		l2.13-0.28l4.27,5.8l0.44-1.13l2.08,0.11l1.21-1.03l8.2,0.76l8.01,3.86l0.22,1.46l-1.72,1.51l0.79,1.721l-0.83,0.3l5.77,6.319
		l-7.45,7.37l0.58,4.51l0,0l-2.17,3.771l1.35,4.229l2.42,3.78l2.31,1.101l-0.67,4.81l2.23,0.4l-0.75,2.2l1.52,1.05l-0.52,1.58
		l1.99,1.319l-0.5,1.471l1.22-0.551l0.98,1.67l-0.56,2.33l-4.17-0.659l-0.67,0.6l0.48,1.39l-1.38,3.11l1.6,2.09l2.06,0.061
		l0.13,1.04l-2.77,0.569l-3.42,3.931l-2.07,0.369l-0.28,1.75l1.3,1.221l2.23-0.69l1.229,1.72l2.37-2.47l0.89,1.26l0.74,1.79
		l-3.43,6.83l0,0l-3.75,3.68l-4.91,0.801l0.33,0.819l-3.36-0.67l-1.15-2.02l-1.85,1.06l1.02,8.521l-2.84,1.42l-1.24,2.97l-5.28-3.07
		l0.21-0.909l-2.21-1.891l-0.65,0.38l2.24,4.641l-1.48,0.91l0.19,0.869l4.25,7.23l0.04,2.45l-1.57-1.091l-3.1-0.34l-0.88,1.051
		l-3.47-1.271l-0.59,1.62l-2.91,0.96l-0.83,1.36l-2.05-0.801l-1.11,1.4l-2.99-2.5l-1.62-0.16l-2.46,0.44l-1.41,1.47l-2.38-1.6
		l-1.72,2.31l0,0l-1.36-0.49l0.73-1.27l-1.2-0.73l-1.38,0.841l0.65-2.49l-1.48-1.13l1.72-3.181l-1.9,0.021l-0.65-2.38l-1.11,0.399
		l1.37,1.91l-1.22,2.38l1.16,0.67l-0.63,2.16l-0.85,0.49l0.02-2.29l-1.67-0.4l-1.64,1.021l-0.98-1.91l1.99-0.85l0.68-3.471
		l1.15,0.04l-0.28-0.84l-1.23,0.18l0.43-3.02l-2.62-7.39l0.65-3.311l-0.97-0.49l0.51-1.22l-0.71-1.189l-0.84-0.15l2.71-0.67
		l-0.17-2.729l1.73,1.369l3.63-0.8l0.79-1l-4.65-2.41l0.64-1.699l-1.1-0.95l1.79-0.271l3.81,2.34l1.5-0.13l4.01-1.479l1.73,0.77
		l0.61-0.58l-1.2-0.199l0.41-1.841l1.02,0.551l0.59-0.99l1.28,0.62l0.68-0.73l3.56,2.08l0.74-0.729l1.31,1.06l-0.37,1.04l0.9,0.71
		l2.03,0.93l1.68-1.77l1.32,0.6l0.5-3.76l-1.47-0.15l0.42-1.02l-2.69-0.33l-1.23-3.47l1.13-1.721l-2.37,1.261l-2.44-2.36
		l-3.729,2.65l-6.34-2.051l-3.58,0.99l-2.69,2.16l-3.77-1.33l-6.85,2.21l1.68-2.5l-0.77-2.27l1.98,0.33l-0.59-0.44l0.63-1.41
		l0.74,0.44l0.84-0.88l-1.03-1.101l0.14-2.64l1.05,1.12l-0.63,0.04l0.41,1.319l2.04,1.15l2.2-2.12l-1.04-0.77l-0.17-3.33l-1.87-2.12
		l-2.8-4.71l-3.08-2.66l0.15-0.7l0.85,0.771l0.09-2.71l-1.37,0.569l-1.36-0.64l0.8-3.76l-0.64-3.41l1.43,0.7l1.24-1.061l1.91,2.09
		l3.41-2.09l1.82,0.55l-1.27-4.079l3.53,3.25l2.19-1.41l1.35,0.39l1.56-1.89l-0.61-1.65l0.35-1.03l1,0.94l1.14-0.73l2.83,2.431
		l0.75-4.011l-1.94-1.42l0.67-0.75l-2.74-1.51l-1.36,0.061l-0.84,0.149l-1.37,0.17l-0.07-1.05l-1.13,0.33l-0.27,4.6l0.73,0.631
		l-0.66,1.449l-1.66-0.68l0.02,0.97l-4.32-2.79l-3.31,0.88l-4.61-4.56l-1.75-4.38l0.67-0.48l2.89,1.71l0.72-1.64l-0.71-1.29
		l1.02-0.859l-2.29-0.311l0.64-6.47l4.18,0.77l2.76-4.17l3.1,0.771l-1.54-5.261l0.65-2.22l-1.15-0.96l-0.79-5.43l-1.86-1.46
		l-0.62-2.92l0.5-3.591l1.92-0.979l0.07-2.44l2.6,2.2l3.73-0.07L212.72,116.991z M184.36,106.61l3.13,1l1.96,1.841l1.1,1.779
		l-1.53,0.021l-1.18-1.13l-2.14-0.301L184.36,106.61z"/>
	<path id="EE-82" fill="#1E3250" stroke="#1E3250" stroke-width="0.5" d="M441.54,321.881l1.86,0.92l2-0.7l0.569,1.54l0.59-1.27
		l2.08-0.561l0.45,1.2l11.57,0.85l1.28-4.18l4.189,0.86l3.7-7.221l2.35,1.171l1.061-0.601l0.92,4.64l1.14-0.539l1.01,0.75
		l2.49-1.921l1.78-0.21l0.95-1.689l6.17,0.109l1.06,0.931l0.04,2.1l3.101,1.11l0.02,2.43l1.79-0.25l0.23,1l0,0l-1.471,0.48
		l-1.319,5.67l-2.271,3.6l0.28,2.53l1.189-0.54l-0.42,2.85l0.99,0.41l-0.14,2.95l-2.101,3.13l1.801,2.72l-1.891,5.73l0,0l-5.18,1.13
		l-1.37-0.79l-1.19,1l-0.109,1.78l-2.891-0.49l-2.189,1.23l-2.24-1l-1.06,2.17l1.56,1.29l0.32,3.26l-1.71,1.55l-0.57,2.37
		l-2.02,0.75l2.399,1.64l2.181,0.11l1.63,2.46l-2.17,2.04l1.54,4.43l-1.33,2.19l2.02,2.06l0.22,1.99l3.53-1.67l1.94,0.93
		l-0.051,2.08l-1.26,0.42l1.11,3.2l-1.71,1.42l-2.19,0.21l-0.34,1.19l1.99,2.77l0.03,1.811l1.739-1.08l-0.02,1.77l1.06,0.11
		l0.44,2.27l-5.96,7.67l5.319,4.46l-2.89,5.341l-1.25-0.511l-0.41,0.79l3.561,0.32l-1.66,2.83l0,0l-4.7,0.689l-7.05-2.09l-1.8,0.811
		l-1.49-2.471l-2.17,0.19l-1.23-1.13l-2.71-3.64l0.23-3.24l-1.37-1.87l0.8-0.45l-0.189-1.4l-2.37-1.239l-0.29-2.49l-2.95-1.37
		l1.83-4.64l-0.66-1.101l-4.71-2.109l-0.87-3.181l-5.39-2.81l-2.061,0.71l-1.84-1.58l-1.64,0.66l0.21-3.66l2.84-7.54l0.32-3.31
		l-3.13,0.18l-2.091-2.34l-3.67,2.6l-2.86-1.3l-4.24,0.82l-1.08-3.2l-1.52,1.53l-3.94-1.051l-3.83-8.569l-3.9-1.971l-2.99,3.36
		l-2.19-0.07l-0.29-1.39l-3.03-0.68l-1.54-2.91l-4.47-2.09l0.95-2.57l0,0l3.48-7.13l-2.18-5.271l0.78-1.01h5.73l1.39,1.561l5.8-6.98
		l-1-1.26l3.15,0.22l1.59-1.59l0.73,0.48l0.46-1.58l1.48,0.27l-0.09-1.16l1.99-0.76l-0.24-1.13l1.56,0.04l-0.52-3.43l-1.13,2.189
		l-0.54-0.729l-0.11-1.721l3.13-1.529l-1.43-3.271l2.13-0.01l2.97,1.95l1.74,3.18l0.42,3.37l3.68,0.16l1.44-0.9l0.06-1.07
		l3.681-0.93l0.75-1.49L441.54,321.881z"/>
	<path id="EE-49" fill="#1E3250" stroke="#1E3250" stroke-width="0.5" d="M449.65,182.9l8.3-0.81l2.08-0.74l0.319-2.689l1.641,0.51
		l0.689-1.3l4.101-0.681l0.609,2.33l-0.819,0.51l2.819,4.57l4.37,0.73l1.16-1.74l2.53-0.51l-0.16-1.65l1.62-1.16l-0.83-3.14
		l1.78-0.311l-0.29-2.02l1.729-0.81l-0.189-0.99l3.79-0.681l1.189,0.761l-0.16,1.83l2.15,0.109l11.9-6.24l1.979,0.86l0,0l0.29,1.601
		l2.57,1.819l-0.9,2.17l1.39,1.04l-0.539,3.73l1.81,4.62l7.33-1.301l0.54-1.71l5.359,0.83l2.381,1.67l1.119,2.58l1.53,0.62
		l23.24,0.11l13.1,1.76l11.41,4.23l0,0l-8.49,8.22l2.53,11.87l0,0l-29.34,9.359l0.6,1.4l-0.949,2.15l-1.58-0.86l-1.641,1.97
		l-3.97,0.98l0.12,1.2l1.42-0.341l0.6,1.131l-0.689,1.359l1.45,2.93l-0.15,2.25l-2.21-0.5l-0.1-1.479l-1.87-1.94l-0.41,1.521
		l-1.271-0.89l-0.68,0.88l-2.93-2.73l-6.49-2.02l-1.05,10.33l-2.42,0.159l0.42,1.53l-2.09,0.29l-1.13,1.43l-2.141-0.63l-1.64,1.25
		l-1.54-1l-0.18,1.641l-2.551,1.359l-4.87-4.689l0.65,1.29l-2.25,3.22l-0.12,1.96l0.891,1.01l-3.921,2.181l-4.359-3.74l-1.54,1.51
		l-2.54-1.25l2.07-2.16l-4.29,0.49l-1.17,1.03l1.1,0.689l-0.72,0.94l-2.841-1.54l-3.5,0.149l-1.5,1.181l-1.09,2.99l0.54,1.13
		l-1.64-0.95l-0.41-2.68l-3.49-1.311l-0.819,1.65l-2.471,0.75l-8.229,6.16l-1.7-1.03l-1.6,1.18l-2-2.09l-0.971,2.99l-0.949,0.33
		l0.09,1.58l0,0l-5.11-5.48l-1.13,0.91l-5.21-4.48l-0.44-6.3l-2.27,1.67l-1.79-1.71l-0.97,0.22l0.02-1.829l-1.16-0.641l0.92-1.47
		l-0.8-2.24l-6.7-2.85l-5.17,1.09l-6.94-1.13l-0.77-1.42l1.85-1.53l1.62-0.03l1.01-1.75l-0.54-3.59l-2.15-0.38l1.41-2.68l-0.35-4.28
		l0,0l1.46-4.43l1.07,0.25l0.19-1.15l2.83-1.89l-0.72-3.62l3.13,0.22l1.71-1.9l-0.25-2.26l1.53-0.21l2.28,1.561l0.86,2.409
		l3.77-2.71l0.13-3.25l-1.359-4.42l1.68-1.63l3.13,0.471l0.94-3.091l1.149,0.62l1.98-1.08l7.89-0.989l-0.55-3.7l-0.95-0.73
		l2.48-3.899l1.319,0.64L449.65,182.9z"/>
	<path id="EE-70" fill="#1E3250" stroke="#1E3250" stroke-width="0.5" d="M253.67,164.701l1.26-0.32l-0.24-1.32l2.04-1.03l2.69-4.38
		l1.61,1.21l2.8-2.43l2.37,3.13l4.34-1.34l1,2.26l1.55,0.681l-0.39-2.721l1.93-0.77l-0.75-2.07l1.89-2.85l0.72,0.55l1.43-1.01
		l0.31,0.75l1.74-0.95l-0.81-2.92l-1.61,0.189l1.19-1l-0.27-2.649l2.18,1.16l0.35-0.83l6.16-0.17l4.55-1.681l7.32,1.221l0.01-5.46
		l-1.37,0.109l-1.59-2.35l3.48-1.16l-1.84-2.44l1.04-6.71l2.73,0.54l4.72-5.699l2.83,0.399l1.27-0.7l2.34,1.74l1.01-2.04l1.83,2.41
		l1.77,0.13l1.32,2.2l1.06,0.11l0.51-4.75l3.75,0.069l3.2-1.109l2.69,0.659l1.53-0.619l-0.71,7.01l0.16,1.33l1.72-0.37l0.09,5.31
		l3.54,1.96l2.24-0.43l1.26,1.43l1.15-0.71l4.59,7.26l4.19,1.53l3.29-0.609l0.74,1.42l1.07-0.44l4.23,1.771l-1.76,2.64l2.01,3.22
		l-1.14,0.61l0.79,2.39l3.12,0.561l-0.8,1.1l4.3,0.74l-0.55,1.359l2.77,1.58l0.05,1.79l3.75,0.53l0,0l-4.38,3.11l2.36,3.62
		l-0.87,6.649l-4.3,2.57l-2.03,4.359l1.44,2.33l1.24-0.06l1.3,1.71l-2.45,4.82l0.71,1.06l-2.13,1.57l-1.43,3.02l-1.99-0.64
		l-0.61,1.3l3.45,6.2l-1.57,0.89l-1.23,6.891l0,0l-4.61,1.13l-8.53-1.84l0.52,0.67l-1.83,2.649l-1.72,0.45l-0.9-1.24l-1.63,1.19
		l-1.33-0.29l-3.59,4.92l-0.73,3.39l-1.36,0.641l-0.83-0.3l-1.31-4.811l0.95-7.99l-5.25-4.25l-2.73,1.73l-1.47,2.25L321,211.82
		l-0.66-0.84l-2.44,0.8l-4.17-2.75l-1.53,0.601l-2.41-1.13l-2.42,4.74l-5.86,3.22l-2.71,0.399l-0.43-1.609l1.59-1.59l-3.93-3.03
		l-1.74,2.18l-3.72,2.13l-0.91,4.54l-1.31,1.641l-4.12,1.63l-2.91,3.02l-14.24-5.1l-4.5,1.57l-5.23-4.511l0,0l3.43-6.819l-0.74-1.79
		l-0.9-1.261l-2.37,2.46l-1.23-1.71l-2.23,0.69l-1.3-1.22l0.28-1.761l2.07-0.359l3.42-3.931l2.77-0.569l-0.13-1.04l-2.06-0.061
		l-1.6-2.08l1.38-3.109l-0.49-1.391l0.68-0.609l4.17,0.66l0.56-2.32l-0.98-1.67l-1.22,0.55l0.51-1.46l-2-1.32l0.52-1.58l-1.51-1.039
		l0.75-2.211l-2.24-0.399l0.68-4.811l-2.31-1.1l-2.42-3.78l-1.35-4.229L253.67,164.701z"/>
	<path id="EE-74" fill="#1E3250" stroke="#1E3250" stroke-width="0.5" d="M172.13,375.851l3.47,2.94l0.17,4.76l-2.26-0.41
		l-1.86-1.79l-1.32,0.84l-0.27-3.84l1.08-0.84l-0.63-0.41l0.52-1.31l0.87-0.62L172.13,375.851z M102.85,312.221l0.95,1.19
		l1.06,0.659l0.3,0.94l-0.46,1.51l1.28,1.19l-3.14,4.68l-1.15-3.79l-1.4,0.65L102.85,312.221z M109.51,306.171l2.51,1.35l-0.79,1.74
		l-0.13-0.88l-1.36,0.34l0.39-1.49l-1.27,0.021L109.51,306.171z M35.73,284.221l1.56,0.78l-2.47,0.45l-0.1-1.061l-1.35-0.109
		l0.74-1.25L35.73,284.221z M46.56,273.82l0.67,1.771l-2.33,0.72l-0.71-0.899l-1.92,1.989l-2.31-0.43l-1.14,0.69l-2.18-2.33
		l3.93-1.79l3.32,1.479l-0.64-1.899l1.43,1.079l1.52-1.159L46.56,273.82z M185.53,249.351l1.43,2.72l-3.53,0.25l1.08-2.97H185.53z
		 M174.12,247.23l1.32,0.07l0.45,1.03l-1.33,2.29l-0.98-1.311L174.12,247.23z M191.36,245.341l0.78,0.89l-2.24,0.931l0.37-1.601
		L191.36,245.341z M190.92,229.03l0.63-0.22l0.47,1.42l-1.06,1.2l-1.76-1.2L190.92,229.03z M106.14,230.451l1.95-1.511l1.4,0.69
		l5.46,9.68l4.39,0.58l1.61-4.09l2.43,1.56l-0.08,2.29l3.09,1.221l2.18-7.341l2.11-2.13l4.6,1.82l3.04-1.82l2.24,1.78h5.4l0.13,1.35
		l5.69,2.96l1.32,3.181l0.91-0.73l1.98,1.15l0.68,1.729l1.68-0.199l0.07,0.93l4.39,0.91l0.12,1.13l-0.83,0.29l0.06,1.16l-0.01,1.159
		l1.03,2.45l1.79,1.05l-0.62,0.841l3.28-0.87l3.84,2.989l4.03,1.051l1.6,2.38l1.3,0.05l-0.18,1.63l0.8,0.18l-0.66,1.7l1.95-0.13
		l0.85,0.98l-0.43,1.289l-1.16,0.091l-0.18,3.659l-1.33-2.1l0.22-1.76l-1.9-0.78l0.35-1.33l-0.04-2.569l-1.18-0.601l0.07,4.26
		l-1.06,0.601l0.31-1.19l-3.87,0.04l1.83,2.84l1.52-0.38l-0.99,1.36l1.42,0.13l-1.23,1.72l-2.48-1.16l-0.83-0.31l-0.19-2.21
		l-1.08,1.18l0.4-1.99l-0.93-1.189l-0.27-1.19l2.24-0.45l0.22-0.81l-2.67-0.29l-1.28-0.09l-0.59,1.61l-1.05-0.04l0.71-1.07
		l-0.77-1.38l-1.47,3.24l1.11,3.01l-1.88,0.29l0.81,1.67l-0.99,0.56l-0.52,1.61l-1.52,1.09l-0.9-0.81l0.41-1.431l-2.76-0.16
		l-0.53,2.551l0.62,3.149l0.75,0.16l0.36,2.78l-2.05-0.92l-1.34,1.1l-0.68-1.52l2.38-0.521l-0.75-0.939l-1.7,0.56l-1.05,2.1
		l0.86,0.58l-0.2,1.261l-0.96,0.63l0.84,1.41l-1.91-0.32l-1.3,0.13l-1.99-1.05l-1.78-3.69l-1.21,0.29l-0.83,3.32l1.93,0.76
		l0.41,2.08l-2.05,0.22l0.1,2.221l-0.02,0.579l-0.76,1.16l-0.58-0.359l0.33,1.819l-1.61,0.431l0.43,2.52l-3.33,0.58l-0.92-0.45
		l-0.05-1.409l-0.08-1.211l-0.65,0.67l-1.3-0.59l-0.32,1.88l0.93,0.811l-3.1,1.41l-0.33,4.34l-0.94,1.46l-1.21-1.8l-4.55-0.09
		l-2.3-1.71l-2.84,0.989l-0.36,2.181l3.62,3.869l0.77,2.25l0.15,1.33l-1.6,1.33l-1.97,0.721l-2.98-1.33L117.67,302l-1.4,3.311
		l-0.87-3.601l0.54-0.92l0.99,0.61l-0.64-1.04l1.03-0.43l-0.84-1.08l-1.25,0.59l-1.08-0.34l-0.9,0.88l0.3,2.52l-1.68,1.841
		l-0.8-0.04l-0.36-2.37l-2.86,2.99l-0.77-0.25l-0.4-6.12l-1.42,0.489l-1.96,6.891l-0.41-1.15l-1.16-0.02l0.48-2.091l-1.08-1.579
		l-1.02,0.51l0.16-1.33l-0.73-0.021l-1.35,0.86l-0.68,2.97l-1.91,1.3l-2.39-0.13l-0.54,0.79l-1.4-1.38l-2.57,0.271l-4.59,2.34
		l-3.37,3.06l-1.29,2.57l-0.37,4.53l1.23,3.39l-1.12,1.13l-0.51,6.35l-2.5,2.801l0.54,3.649l-4.16,7.521l1.82,5.31l-2.39,2.41
		l-2.45,0.28l-2.14,2.07l-3.27,4.39l-1.65,0.61l-2.77,4.55l0.65-2.5l-1.16-0.2l-1.14,1.19l-1.08-1.19l-1.72-2.91l0.28-1.939
		l-2.06-1.73l-0.55-4.409l1.68-0.891l0.6,1.2l1.63-1l0.14-3.729l2.13-0.79l-0.48-3.021l1.86-0.91l-0.48-1.239l1.33-1.271l0.55-4.74
		l1.7-1.97l1.49-0.34l-0.2-1.07l2.63,1.08l0.39,2.6l2.88,0.32l0.27-5.479l2.67-5.771l2.67-1.899l-1.36-3.46l-5.26,0.659l-1.01-1.149
		l0.06-1.851l-2.33-0.7l-0.69,0.94l-0.32-0.93l-0.98,0.16l0.1-1.15l-2.16-0.88l0.36,1.76l-1.6-0.05l-0.89-3.4l-1.32-1.439l0.18-1.2
		l0.57-0.48l-2.15-2.75l-0.44-2.25l-2.56-1.909l-0.71,0.43l0.69,2l-3.71-0.09l-1.34-1.44l-4.78-1.01v-1.33l-1.45-0.2l-0.95-0.38
		l-1.56-1.98l0.14-1.17l-1.77-0.199l1.16-1.87l-1.57-1.28l0.64-2.13l1.15-0.4l4.6,2.891l-0.3-1.12l1.52-0.88l-3.64-5.5l0.01-0.971
		l1.31,0.091l3.47,2.359l0.62,2.83l1.72,1.08l0.4-0.72l0.59-0.63l0.27-1.03l-2.5-5.4l0.45-0.989l2.27,2l0.38-0.811l2.08,2.49
		l1.24-1.41l-0.38-1.25l-1.5-1.77l0.01-1.681l1.28,0.271l3.02,0.89l-1.44-2.11l-1.42-0.47l0.19-1.3l-0.94-0.9l0.43-0.58l-0.23-0.85
		l-0.88-0.49l-0.82,0.811l-0.46-1.19l-1.32-0.31l-0.08-2.26l-1.18-0.631l0.87-1.1l-3.66-4.38l-0.6-3.37l-2.45-0.81l-1.2,1.359
		l-2.29-2.12l-0.22-3.729l3.56,3.5l1.6,0.16l2.93-2.05l-1.4-2.66l0.75-2.391l4.5,2.07l2.7-0.62l1.54,0.62l3.78,7l2.7,8.64l2.74,0.45
		l1.09-1.32l-0.63-1.789l0.63-8.44l1.82-3.04l0.82-0.49l1.38,1.2l0.27-2.34l3.64-1.34l0.14-5.82l1.51,0.04l1.69,2l0.98,8.47
		l3.97,0.511l2.45-6.311l-1.11-3.54l-1.42-0.05l-0.11-5.5l2.58,0.979l4.57-2.25l2.61,0.78l8.08-1.47l5.56-6.44L106.14,230.451z
		 M151.91,227.521l1.21,0.13l1.1,3.62l-3.42-0.93L151.91,227.521z M168.49,220.671l15.01,7.03l0.88,3.02l-1.76,1.86l0.13,1.8
		l4.33,6.33l1.42,4.2l-0.66,2.119l-3.21,2.091l-0.14-1.03l-2.53-0.4l-1.31-3.58l-1.77,4.181l0.01-2.601l-1.09,1.94l-1.53-2.41
		l-1.59-0.02l-2.52,5.01l-0.22-1.11l-1.25,0.29l-0.01-2.72l-0.64,0.689l0.22-1.22l-0.8,0.38l-0.57-1.38l-0.55,0.891l-1.17-1.29
		l-0.6-1.431l1.15,0.38l-0.28-1.34l-0.65,0.38l-2.35-3.05l-2.35,1.05l-4.01-2.199l-1.58-2.16l0.78-2.91l-0.95-1.04l1.25,0.11
		l1.72-1.471l3.65,1.091l0.92-1.36l-1.03-4.57l0.53-3.52l1.19-1.351l1.06,0.69L168.49,220.671z"/>
	<path id="EE-37" fill="#1E3250" stroke="#1E3250" stroke-width="0.5" d="M236.66,98.57l1.83,1.841l-1.94-0.261l3.09,3.16l0.56,2.32
		l-1.33,1.52l-1.6-0.649l-5.5-7.91l3.84-0.71L236.66,98.57z M244.71,98.421l1.05,6.109l-3.5-0.109l-0.87-3.44l-1.67-2.12
		l-1.43-0.199l2.45-2.9L244.71,98.421z M359.45,55.661l2.03-0.49l1.5,3.22l-1.43-1.479l-1.39,0.239L359.45,55.661z M317.22,56.631
		l-1.44-0.17L315,55.15l0.17-1.05l2.15-0.899l0.98,1.239L317.22,56.631z M293.47,50.23l2.35,4.44l2.23,8.229l-3.7-0.22l-2.54-1.979
		l-1.6-3.5L293.47,50.23z M337.27,42.451l4.42,2.51l2.09,3.58l-0.93,1.439l-2.87-1.91l-1.66,1.78l-0.65-1.74l1.79-0.989l0.35-1.271
		l-2.83-2.229L337.27,42.451z M406.2,38.581l1.12-0.17l-0.5,1.43l1.06,1.78l1.17-1.41l2.52,2.27l1.11,1.351l-0.84,0.84l0.36,1.56
		l2.23,1.33l-1.42,1.97l1.01,2.511l-0.43,4.42l5.08,1.63l0,0l1.01,1.53l-0.9,1.569l-3.39,1.4l0.31,2.92l1.6,0.45l1.24,3.12
		l1.48,11.47l3.16,0.13l0.24,1.51l1.44,1.08l-1.16,4.49l4.11,7.18l0.69,2.88l0.28,7.511l1.6,6.029l-4,1.261l0,0l-2.75-3.21
		l-9.86-1.561l-3.03,2.601l-4.22-0.28l-1.96,1.82l-2.66,0.04l0.02,2.76l-1.39,0.87l-5.47-3.521l-4.58,2.19l-2.82-1.2l-3.21,0.07
		l3.32,4.04l2.29,6.08l-2.38,6.239l-5.29,6.88l0.95,1.98l-1.49,3.51l4.12,2.45l-2.7,5.79l-2.35-3.63l-1.47-0.57l-2.79,2.49
		l2.05,3.24l-0.9,6.89l-2.52,2.84l-1.6-1.29l-1.04,0.37l-1.24,3.24l0,0l-3.75-0.53l-0.05-1.78l-2.77-1.58l0.55-1.359l-4.3-0.74
		l0.81-1.1l-3.12-0.551l-0.79-2.39l1.14-0.61l-2.01-3.229l1.76-2.64l-4.22-1.771l-1.07,0.44l-0.74-1.42l-3.29,0.609l-4.19-1.529
		l-4.59-7.261l-1.15,0.7l-1.25-1.42l-2.25,0.43l-3.53-1.96l-0.09-5.31l-1.72,0.37l-0.16-1.33l0.71-7.021l-1.53,0.63l-2.7-0.67
		l-3.2,1.11l-3.75-0.07l-0.51,4.761l-1.05-0.11l-1.32-2.2l-1.77-0.13l-1.83-2.41l-1.01,2.04l-2.33-1.74l-1.27,0.7l-2.84-0.41
		l-4.72,5.7l-2.72-0.54l-1.04,6.71l1.84,2.44l-3.48,1.16l1.6,2.35l1.37-0.11l-0.01,5.46l-7.32-1.22l-4.56,1.68l-6.15,0.171
		l-0.35,0.829l-2.18-1.159l0.271,2.659l-1.19,1l1.61-0.18l0.81,2.91l-1.74,0.96l-0.31-0.76l-1.43,1.01l-0.71-0.55l-1.9,2.859
		l0.75,2.061l-1.93,0.77l0.39,2.721l-1.59-0.721l-1-2.26l-4.35,1.34l-2.36-3.13l-2.8,2.43l-1.61-1.22l-2.69,4.38l-2.04,1.03
		l0.24,1.33l-1.26,0.31l0,0l-0.58-4.51l7.45-7.37l-5.77-6.319l0.83-0.29l-0.79-1.721l1.72-1.51l-0.22-1.46l-8.01-3.86l-8.2-0.76
		l-1.21,1.03l-2.08-0.11l-0.44,1.13l-4.27-5.8l-2.13,0.28l-1.03-2.96l-4.72,0.149l-0.07-5.939h-4.72l-0.15-5.72l0,0l1.32-2.851
		l-1.26-1.41l0.04-2.609l3.29,0.87l1.84-2.82l3.5-0.83l5.16,2.521l0.46,1.409l2.5-2.13l4.11,1.8l2.01-1.579l6.15-2.131l0.89,1.08
		l0.66-0.52l0.98,1.1l1.74-0.109l-0.84,2l0.44,0.779l1.28-0.439l3.1-6.7l-2.03-4.12l-5.32-4.38l-1.02-7.05l3.94,0.63l6.78,3.59
		l1.05,1.97l3.99,2.681l3.7-0.561l0.69-2.399l-1.55-3.761l-4.95-3.72l0.71,0.13l0.73-1.88l1.05,0.17l-0.29,1.17l0.85,0.67l2.01,0.34
		l10.19-5.619l1-2.42l-0.23-4.79l1.32-1.03L279,74.98l9.84,0.841l2.94,3.899l4.62,2.13l3.12-2.2l-0.44-2.479l8.86,6.15l1.61-1.62
		l0.27-1.98l-2.98-2.54l-0.6-1.66l2.15,1.4l2.18-0.07l0.49-1.45l-1.1-2.26l1.69,0.82l0.36-1.72l0.66,2.02l1.41,0.82l-2.67,3.319
		l1.43-0.71l0.91,1.311l0.48-0.58l1.9,1.42l3.87,0.73l4.41-7.681l-2.89-3.71l0.61-1.57l-0.95-1.119l-0.65,0.409l-0.21-10.26
		l0.43,1.5l2.27,0.54l0.79,1.42l1.78-0.24l0.62,1.25l2.46-0.35l1.22,1.85l-0.49,1.7l2.18,1.96l-0.04,3.46l5.47,2.24l2.91-1.14
		l0.21-2.07l4.57,1.33l3.31-1.23l0.86,2.391l1.23,0.97l1.02-0.39l0.31,1.439l2.42,1.16l2.71-4.55l-0.43-1.62l-1.25,0.13l-1.94-2.95
		l0.57-3.2l4.17,3.25l1.26,3.75l3.83-0.899l2.7-3.62l0.25,3.33l4.63,2.649l2.24,0.58l2.11-0.649l3.52,1.399l3.63-0.67l1.8-2
		l-0.35-2.39l6.8-0.521l2.51-4.319l-2.52-3.42l-0.42-3.03l-3.02-5.07l-0.01-4.66l0.92-1.89l-0.71-1.56l2.54,0.92l-0.58,3.88
		l1.02,1.5l2.17,1.03l1.77-1.141l0.92,2.55l2.53,0.261l1.33,3.869l5.07,2.881l3.37-2.99l-0.6-1.141l1.06-3.14l-2.86-3.17l-0.15-3.15
		l1-1.97l-2.05-1.84l2.65-1.65L406.2,38.581z"/>
</g>
</svg>
