<?xml version="1.0" encoding="utf-8"?>
<!-- Generator: Adobe Illustrator 15.0.0, SVG Export Plug-In . SVG Version: 6.00 Build 0)  -->
<!DOCTYPE svg PUBLIC "-//W3C//DTD SVG 1.1//EN" "http://www.w3.org/Graphics/SVG/1.1/DTD/svg11.dtd">
<svg version="1.1" id="Layer_1" xmlns:amcharts="http://amcharts.com/ammap"
	 xmlns="http://www.w3.org/2000/svg" xmlns:xlink="http://www.w3.org/1999/xlink" x="0px" y="0px" width="670.335px"
	 height="623.344px" viewBox="0 0 670.335 623.344" enable-background="new 0 0 670.335 623.344" xml:space="preserve">
<defs>
	
	
		<amcharts:ammap  projection="mercator" leftLongitude="-4.778054" topLatitude="51.089515" bottomLatitude="41.363289" rightLongitude="9.560176">
		</amcharts:ammap>
</defs>
<g>
	<path id="FR-A" fill="#1E3250" stroke="#1E3250" stroke-width="0.5" d="M498.91,208.16l3.46-1.71l-0.96-2.53l1.97-6.73l5.53-6.81
		l-0.72-2.22l5.8-10.26l-0.8-1.83l-4.32-0.79l1.71-7.61l-1.14-1.82l1.84,0.36l-2.86-1.66l6.37-1.75l3.58-6.74l-2.58-2.01l3-4.72
		l-2.28-3.45l-4.43-1.45l-3.12,3.82l-1.13-3.74l1.83-1.16l-5.83-1.95l-0.45-2.51l3.67-1.44l2.74-7.65l1.17,4.51l6.98,2.02
		l1.319,1.92l5.24-1.58l3.52,2.27l4.15-7.64l0,0l6.521-0.78l3,2.04l2.8-1.54l12.399,5.8l-5.93,10.3l-4.88,2.84l-5.51,7.28
		l-4.42,15.42l0.51,4.19l-2.141,1.58l-4.829,11.26l-0.301,5.36l2.19,3.85l-2.73,5.74l-0.359,8.96l-1.51,2.24l2.97,7.47l-3.5,2.22
		l1.31,0.71l-1.75,2.78l-2.37-0.79l1,1.48l-2.87,2.38l-5.939,0.66l-3.04-1.38l1.32-3.07l-2.88-0.55l0,0l-1.931-5.51l-3.35-0.57
		l1.29-7.41l-7.08-3.67L498.91,208.16z"/>
	<path id="FR-B" fill="#1E3250" stroke="#1E3250" stroke-width="0.5" d="M241.28,335.78l6.02,2.529l-0.97,2.94l2.51,2.53l2.36-2.83
		l1.18,1.28l5.02-0.57l2.79,4.71l3.37,0.31l-1.89,2.95l7.17,2.5l-1.54,1.83l2.82,1.37l-3.64,3.35l-0.39,2.91l2.1,1.07l-2.08,2.93
		l2.54,0.92l-1.41,1.34l2.2,1.92l4.3,0.48l-1.41,1.16l2.91,5.01l0,0l-1.57,0.9l1.3,7.39l-5.88,4.86l0.73,3.25l-6.95,4.09
		l-1.81,5.609l-5.09,1.7l3.3,10.28l-4.98,1.19l-1.88-2.08l-1.12,4.1l3.38,2.061l-1.83,4.819l-2.21,0.38l1.69,2.66l-4.35-0.33
		l0.37,1.87l-5.62,4.99l-2.94-3.22l-12.15,5.18l-2.89-1.8l-3.09,2.83l-1.23-1.66l-2.96,2.32l0.14,3.75l-3.32-1.891l1.15-1.43
		l-1.79-1.74l-2.47,3.21l-3.47-0.62l-2.49,2.391l2.21,1.68l-0.29,3.34l-1.37,0.1l1.32,4.061l-2.29,1.72l-1.24,5.08l1.7,2.04
		l5.9,0.03l3.24,6.27l-1.97,0.511l-0.06,2.97l2.76-1.96l1.26,5.64l-3.15,2.55l1.2,1.761l-2.32,2.71l0.22,2.609l-2.06-0.17
		l-3.14,3.73l0.54,3.529l-4.49,2.631l-1.06,8.81l0,0l-3.38,2.85l-4.63-1.6l-1.9,2.79l-7.48-6.7l-0.92-4.04l-7.86,0.83l-7.1-4
		l-1.16,0.91l-6.92-3.42l1.59-2.83l-3.04,1.35l-0.4,3.74l-3.57-1l-1.37-2.38l3.79-5.71l-0.27-3.9l-6.08-2.04l-3.04,2.38l-0.66-3.13
		l-4.36,0.601l-2.39-3.101l-0.07-1.33l5.03-0.85l2.79-2.55l6.38-12.24l6.21-32.32l1.66-19.239l2.62-6.67l7.87,1.329l-2.71-3.5
		l1.48-0.02l-5.54-4.62l-3.3,9.351l-0.63-1.04l4.34-49.391l2.59-4.77l1.39-1.021l-0.24,3.66l10.89,9.76l4.74,15.92l3.95,3.851
		l-3.05-7.07l-1.94-11.609l0,0l4.97,0.42l0.34-1.521l0.93,2.95l5.81,1.06l1.76,7.92l0.85-1.55l7.15,4.431l4.28-1.601l1.82,1.351
		l2.17-6.101l1.98-1.439l3.28,1.229l5.45-5.359l-0.78-4.261l2.28-5.31l1.17,1.02l4.2-2.58l3.02-3.869l0.27-4.801l2.26-0.029
		L241.28,335.78z M211.75,471.63L211.75,471.63l-1.45,2.45l1.69,1.12L211.75,471.63L211.75,471.63z M210.08,478.97l1.73-1.239
		l-1.41-2.66L210.08,478.97z"/>
	<path id="FR-C" fill="#1E3250" stroke="#1E3250" stroke-width="0.5" d="M309.79,293.44l3.33-5.81l7.3-0.15l3.24-2.06l-1.85-6.37
		l2.4,0.02l-0.15-1.91l3.8-3.32l1.88,1.71l3.54-0.53l3.09-4.06l4.59-0.12l0,0l6.99,7.15l2.88-2.45l3.23,1.99l3.06-1.81l1.5,3.77
		l4.32-2.26l1.16-4.39l1.51,0.42l4.64,9.22l0.23,3.82l4.03,0.44l1.25,2.6l3.36-0.29l2.06,1.87l0.2,8.06l-4.38,3.09l0,0l-5.45,2.2
		l2.62,14.33l-5.38,1.761l-0.33,2.35l2.56,2.62l-2.72,5.63l12.29,17.47l-0.89,3.53l-3.08,2.41l0.63,3.59l1.81-2.47l2.91,2.83
		l0.1-1.261l2.1,0.79l3.06-2.83l3.66-0.31l5.57,3.11l-1.49,1.09l1.629,0.96l-0.899,1.58l0,0h3.59l0,0l2.27,3.05l-1.38,6.11
		l-3.47-1.46l1.04,2.279l-2.16,1.67l1.37,2.341l-3.46,1.01l0.72,2.71l-3.69,0.58l-2.84,5.27l-5.06,0.04l-0.26,2.26l-3.28,0.391
		l-1.07,3.399l-2.58,1.42l0,0l-4.91-5.479l-3.19,0.55l-1.52-3.07l-1.51,0.32l-0.21,2.9l-4.59,0.97l-4.44-9.68l-3.55,2.819
		l-1.82-0.51l-2.07,4.271l-2.51-2.4l-6.21,15.11l0,0l-5.07-13.4l-3.6,1.08l-1.49-4.99l-5.49,5.58l-1.85,7.33l-3.17,4.04l-5.46,0.59
		l-2.38-1.62l-3.25,1.061l-0.52,1.88l-3.1-4.59l1.74-5.351l-3.34-4.949l-1.23-5.971l0,0l3.38-1.49l-1.84-3.43l3.09-1.3l0.27-3.22
		l2.19-1.67l-1.59-3.301l6.88-6.779l-0.46-4.431l5.48,2.471l1.98-1.301l-1.69-1.6l1.26-7.979l-2.34-2.471l2.51-2.729l0.08-4.03
		l-5.62-6.83l6.99-5.25l0.32-2.56l1.96-0.91l-0.41-3.75l-4.96-14.64l-7.48-3.78l1.31-1.74l-1.93-0.55L309.79,293.44z"/>
	<path id="FR-D" fill="#1E3250" stroke="#1E3250" stroke-width="0.5" d="M341.62,174.83l-1.33,3.38l1.33,3.44l-4.57,5.38l0,0
		l3.84,1.85l0.84,3.72l3.11,2.69l0.14,3.53l-4.93,4.12l0.67,7.36l-7.21,1.82l-0.16,2.49l3.25,2.16l2.09,6.91l-5.33,1.92l3.43,6.12
		l-2.62,6.09l4.73,4.68l1.5,12.02l2.49,2.46l-1.93,13.87l0,0l6.99,7.15l2.88-2.45l3.23,1.99l3.06-1.81l1.5,3.77l4.32-2.26l1.16-4.39
		l1.51,0.42l4.64,9.22l0.23,3.82l4.03,0.44l1.25,2.6l3.36-0.29l2.06,1.87l0.2,8.06l-4.38,3.09l0,0l-0.36,3.68l3.42,0.7l0.69,2
		l9.06-1.51l2.81,2.279l4.04-1.77l1.37-6.57l4.08,1.69l2.68-1.58l2.07,1.7l2.56-2.43l3.25,8.01l7.59-20.76l4.811,2.07l4.609-2.1
		l2.811,3.67l3.26,0.7l0,0l4.26-1.84l-2.45-5.13l3.45-4.54l-3.359-5.55l1.27-2.45l-2.65-2.72l5.75-1.52l-2.76-3.14l-2.899,0.3
		l-1.46-3.16l-1.24,0.66l-0.4-3l2.65-2.11l-1.43-2.2l4.199-2.01l2.25-3.79l3.32-9.65l-2.07-0.81l0.61-4.69l-2.14,0.02l0.27-3.54
		l-2.979-0.86l5.409-5.57l-2.319-4.58l-2.86,1.53l0,0l-2.72-0.27l-2.28,2.01l0.32-2.79l-3.561-1.84l0.21-1.73l-2.529,2.08l-3.7-3.94
		l-2.5,1.5l-0.4-4.68l-1.8-0.32l3.18-2.52l-3.699-6.99l-2.971,0.76l1.4-1.95l-3.351-1.36l0.351-2.69l-8.9-1.43l-1.77,1.4l0.77,2.38
		l-9.97,0.42l-0.9,2.25l-2-0.32l-0.76-2.59l-1,1.89l-1.46-1.12l-2.37,2.08l-2.08-1.22l-0.64,1.27l-6.22-0.25l0.77-3.12l-0.78-1.35
		l-1.78,1.15l0.84-1.98l-3.35-6.37l-2.14-0.91l0.36-2.07l-3.37,1.6l-1.53-3.1l-2.14,0.33l1.66-5.23l-4.79-6.09l-3.14,0.49
		l-0.58-1.97L341.62,174.83z"/>
	<path id="FR-E" fill="#1E3250" stroke="#1E3250" stroke-width="0.5" d="M80.29,234.83l7.73,4.48l-0.56,1.7l-6.78-1L80.29,234.83z
		 M81.25,143.01l0.21,2.23l5.57-2.26v3.04l3.06-0.19l-1.32,2.7l4.77,1.54l-0.69,2.18l5.32,4.52l-0.2,3.35l4.49,2.47l-1.11,1.95
		l1.17-0.49l1.61,2.8l-0.36-2.8l2.29,0.66l3.02-4.87l3.36-1.43l-0.62-1.41l2.13-0.48l0.72,1.47l4.21-3.72l1.45,1.27l-2.22,3.03
		l3.88-1.52l0.79,5.9l1.17-3.8l0.7,2.17l1.19-2.62l1.08,1.09l-1.14-2.05l4.34-0.34l3.11,5.95l-0.52,3.04l1.94-1.56l-2-3.99
		l1.63,0.87l-0.56-1.33l-3-2.72l1.73-3.06l6.15-1.81l-1.04,4.65l3.75,2.13l8.54-1.9l0,0l3.46,9.09l2.79,1.76l2.8-0.5l4.16-4.69
		l7.63,2.23l0,0l1.03,11.19l-2.32,3.9l3.52,16.32l-5.75,2.37l-3.8,11.62l-9.63-3.62l0.24,1.99l-6.19,2.43l-1.57,3.32l-8.31,0.06
		l-3.94,2.29l-0.76-1.38l-4.51,2.7l-0.68,7.18l-2.46,0.69l-0.26,1.95l-5.6-1.62l-0.78,3.38l-4.4-0.97l-1.43,1.77l0,0l-1.56-0.12
		l-0.26-2.58l2.52-0.38l-2.85-1.59l-12.7,2.33l-8.69-6.49l0.2,1.53l-4.29-0.13l-0.19,3.42l2,2.76l-2.14-0.27l-0.76-7.5l-5.67-5.52
		l-3.09-0.04l-0.22-1.53l-3.64,0.92l-3.06-4.18l-8.32-2.54l-5.28,0.88l-3.79-6.89l-1.78,1.18l0.6,1.78l-7.13-0.14l-1.86,3.72
		l-7.31,0.01l0.39-5.65l-2.61-4.61l-3.72-2.65l-9.38-2.09l0.93-1.58l12.37-2.63l4.63,1.1l1.57-2.52l-2.01-4.6l-6.14-2.18l-3.95,4.27
		l0.64-4.89l-3.25-0.33l-0.28-1.57l2.43-0.16l-0.07-3.02l1.63-0.64l-0.13,3.55l1.49-1.7l-0.13,1.9l2.11-0.98l2.22,1.36l3.78-1.44
		l1.93,1.1l1.62-2.09l-4.79-0.08l1.43-0.97l-0.64-1.99l-2.28,2.25l-3.54-0.01l2.41-3.53l-0.98-0.78l-7.63,3.58l-3.06-1.06
		l-3.82,1.62l-0.17-11.61l1.95-2.54l4.96-1.27l2.84-3.79l5.85-0.03l-1.47-1.08l3.76-1.42l2.08,0.79l0.01,1.94l4.18-1.14l-1.13-0.43
		l1.5-1.77l5.28,0.66l2.14-3.21l1.54,0.01l-0.07,3.34l1.67,0.71l0.25-2.26l0.08,1.55l3.21,0.85l0.94-3.69l7.45,1.47l-0.61,2.33
		l1.47-1.72l1.71,1l1.39-4.7l-1.59-3.84l1.34,0.91l2.09-3l4.41,2.46L81.25,143.01z"/>
	<path id="FR-F" fill="#1E3250" stroke="#1E3250" stroke-width="0.5" d="M277.46,138.46l4.03,6.36l0.15,10.96l7.67,6.979l0.6,5.43
		l2.83,1.64l2.51-1.04l-0.1,3.18l2.06,0.28l0.44,2.37l-0.65,4.66l7.93-0.65l1.64-2.84l1.75,2.84l3.43-2.15l3.18,1.08l0.81,3.48
		l3.88,2.1l0.02,3.64l-3.07,2.68l10.87,0.03l2.02-1.36l-0.74-1.33l2.6-0.12l0.85,2.41l4.88-2.06l0,0l3.84,1.85l0.84,3.72l3.11,2.69
		l0.14,3.53l-4.93,4.12l0.67,7.36l-7.21,1.82l-0.16,2.49l3.25,2.16l2.09,6.91l-5.33,1.92l3.43,6.12l-2.62,6.09l4.73,4.68l1.5,12.02
		l2.49,2.46l-1.93,13.87l0,0l-4.59,0.12l-3.09,4.06l-3.54,0.53l-1.88-1.71l-3.8,3.32l0.15,1.91l-2.4-0.02l1.85,6.37l-3.24,2.06
		l-7.3,0.15l-3.33,5.81l0,0l-7.97,0.59l-4.55-1.99l-5.8,1.04l-2.33-1.85l-2.24,3.98l-1.8-1.69l-2.37,1.82l-0.79-2l-2.68,1.73
		l-0.79-2.05l-4.59,4.84l-2.55-3.22l-2.09,1.7l-5.21-0.81l0,0l0,0l0,0l0,0l0,0l1.4-2.93l-2.54-0.89l-0.27-3.52l-9.7-5.65l0.1-7.58
		l-8.64-10.66l-0.53-4.28l-5.14-1.96l1.27,2.97l-11.4,1.61l-0.85-7.33l-5.17-0.48l0.14-3.42l-4.22-0.24l-1.09-2.73l0,0l0.95-7.16
		l4.36-6.11l-1.22-1.08l2.85-6.17l-1.14-2.39l1.6-4.04l6.29,2.14l-0.02-4.5l2.74,1.5l6.09-3.24l0.95-1.3l-1.38-1.52l4.81-3.02
		l2.78-4.01l-0.34-4.22l2.1,0.76l1.56-3.19l-0.28-5.54l-1.87-0.46l-0.15-2.07l2.05-0.15l-1.23-1.66l1.56-2.1l2.69-0.34l-4.9-3.44
		l0,0l1.35-1.2l-2.5-6.77l5.98-3.14l2.57-4.22l-1.66-2.26l1.27-2.94l-6.12-5.53l-0.14-3.63l0,0l2.53-2.85l5.53-0.62l2.23-2.07
		l2.16,0.74l0.26-2.69l8.75,1.77l1.66-1.25l-0.43-3.35l4.08-2.36l-0.51-3.25L277.46,138.46z"/>
	<path id="FR-G" fill="#1E3250" stroke="#1E3250" stroke-width="0.5" d="M415.86,60.99l2.52,1.13l-3.17,4.63l0.88,1.74l-2.14,4.46
		l4.1,3.81l-1.71,2.75l0.19,4.73l5.97-0.45l4.11,2.39l2.989,4.45l4.33-0.16l2.54,2.68l-0.729,2.73l3.399-0.34l0,0l-5.54,4.77
		l-6.22-3.22l-2.22,5.84l2.16,2.72l-1.42,3.52l1,1.55l-1.96,0.69l-0.141,5.92l-4.13,2.35l1.7,1.78l-2.19,1.53l2.7,7.35l-1.62,2.98
		l2.95-0.13l-1.74,2.51l1.87,0.63l-4.38,3.7l0.15,4.57l-1.94,2.76l4.96,3.56l-0.45,7.93l2.42-1.06l0.58,2.28l1.99,0.03l3.85,4.2
		l4.82,1.17l5.83,5.39l-3.14,1.99l2.01,0.74l-0.63,2.99l4.06-1.03l2.67,4.6l0.94-1.11l1.75,1.49l-0.51,1.63l3.67,2.73l-2.04,1.16
		l-0.41,4.41l-1.771,1.42l6.181,3.21l0.45,5l2.47-1.43l1.57,3.07l0,0l-2.36,4.54l-2.79-0.45l-0.79,2.43l-2.1-0.05l-0.011,8.38
		l-3.899,0.77l-1.221-2.17l-1.739,2.12l-4.78-0.09l-1.58,4.29l0,0l-2.72-0.27l-2.28,2.01l0.32-2.79l-3.561-1.84l0.21-1.73
		l-2.529,2.08l-3.7-3.94l-2.5,1.5l-0.4-4.68l-1.8-0.32l3.18-2.52l-1.6-3.62l0,0l0,0l0,0l-2.1-3.37l-2.971,0.76l1.4-1.95l-3.351-1.36
		l0.351-2.69l-3.86-1.11l-5.04-0.32l-1.77,1.4l0.77,2.38l-9.97,0.42l-0.9,2.25l-2-0.32l-0.76-2.59l-1,1.89l-1.46-1.12l-2.37,2.08
		l-2.08-1.22l-0.64,1.27l-6.22-0.25l0.77-3.12l-0.78-1.35l-1.78,1.15l0.84-1.98l-3.35-6.37l-2.14-0.91l0.36-2.07l-3.37,1.6
		l-1.53-3.1l-2.14,0.33l1.66-5.23l-4.79-6.09l-3.14,0.49l-0.58-1.97l0,0l-1.31-5.61l2.26-0.67l-1.3-2.34l3.09-0.86l-0.67-1.8
		l3.94-2.88l-1.05-1.86l-3.45,0.7l0.71-6.44l-3.06-1.27l2.03-2l-1.66-1.15l3.48-0.33l-0.08-2.4l0,0l8-10.2l-1.12-1.83l-2.72,0.39
		l2.2-2.54l-1.55-2.68l0.89-1.95l5.24-0.53l-3.92-3.42l-0.36-6.39l5.51-2.72l3.05,0.73l0.18-2.25l2.83-1.69l4.69,2.96l1.72-13.45
		l-2.26-3.25l3.8-0.71l0.47-2.88l5.13-5.06l-1.82-1.47l1.96-5.67l-0.88-5.82l0,0l3.23-0.67l5.66,2.04l10.22-3.74l0.391-6.41
		L415.86,60.99z"/>
	<path id="FR-H" fill="#1E3250" stroke="#1E3250" stroke-width="0.5" d="M579.43,571.32l1.21-2.681l4.63-2.55l-5.579-0.67
		l-0.28-2.29l-4.82,0.04l2.98-2l-0.771-1.43l2.48-0.521l-0.87-1.859l2.17-2.8l-2.28-2.11l-5.83,2.2l-0.63-3.971l2.32-0.189
		l0.489-2.44l3.62-2.069l-1.97-3.49l-1.69,0.66l-4.229-2.511l1.49-1.26l-2.22-3.87l6.43-1.64l-3.76-2.17l0.439-2.47l-2.58,0.89
		l-0.34-2.31l4.6-2.25l1.03-3l-1.29-0.54l2.97-2.62l0.23-3.34l2.62,1.75l0.55-2.74l8.85-2.18l4.551-5.08l4.029-0.21l3.19,3.3
		l1.91-3.34l-1.471-5.471l2.15-5.13l-0.88-3.95l3.45-0.979l1.68,1.41l1.22,10.14l-1.95,7.42l3.601,7.141l1.08,19.75l-0.391,5.13
		l-5.699,8.35l-1.051,17.06l-4.47,2.721l0.37,1.18l1.271-1.66l2.119,0.59l-3.96,3.53l0.2,3.66l-2.88,2.81l2.09-0.02l-3.31,2.729
		l-3.59-1.649l1.13-2.4l-2.101-0.359l0.391-2.03l-1.66,1.35l-1.7-1.84l-3.25,0.05l-3.22-1.58l0.46-1.609l-2.76-0.49L579.43,571.32z"
		/>
	<path id="FR-I" fill="#1E3250" stroke="#1E3250" stroke-width="0.5" d="M459.44,201.73l2.01-3.18l0.689,2.57l3.75-4.18l3.96-0.98
		l2.86,5.4l7.68-1.77l3.69,4.64l5.189-3.73l9.641,7.66l0,0l1.25,2.43l7.08,3.67l-1.29,7.41l3.35,0.57l1.931,5.51l0,0l-6.211,0.55
		l0.78,2.48l-2.56,1.27l-2.54,4.9l5.7-1.23l1.63,2.39l-4.67,2.85l0.51,2.72l-10.48,9.78l0.681,1.89l-11.94,7.45l1.34,2.37
		l-0.489,6.89l-14.19,11.96l1.92,1.89l-3.82,7.76l0,0l-8.1,9.07l-5.99,0.23l-0.479-2.9l-2.94-2.12l-4.32,4.56l-2.71,0.25l0.07-3.07
		l-2.12-1.94l-0.85,2.24l-1.11-4.3l-3.229-1.85l0.64-1.99l0,0l4.26-1.84l-2.45-5.13l3.45-4.54l-3.359-5.55l1.27-2.45l-2.65-2.72
		l5.75-1.52l-2.76-3.14l-2.899,0.3l-1.46-3.16l-1.24,0.66l-0.4-3l2.65-2.11l-1.43-2.2l4.199-2.01l2.25-3.79l3.32-9.65l-2.07-0.81
		l0.61-4.69l-2.14,0.02l0.27-3.54l-2.979-0.86l5.409-5.57l-2.319-4.58l-2.86,1.53l0,0l1.58-4.29l4.78,0.09l1.739-2.12l1.221,2.17
		l3.899-0.77l0.011-8.38l2.1,0.05l0.79-2.43l2.79,0.45L459.44,201.73z"/>
	<path id="FR-J" fill="#1E3250" stroke="#1E3250" stroke-width="0.5" d="M285.85,120.07l2.11,3.56l5.34,0.81l8.21-3.01l3.72,2.96
		l1.99-1l0.6,1.78l3.35-2.23l7.33,5.05l2.58-1.15l1.29,2.82l2.05-1.81l4.2,3l3.08-2.27l1.81,1.67l4.86-1.34l0.78,1.29l3.28-0.89
		l0.14-2.01l2.84,0.69l2.16,3.54l-0.97,2.39l4.03,4.63l1.67-0.62l1,2.56l1.6-1.28l0.64,3.55l3.24,2.16l1-0.92l0,0l0.08,2.4
		l-3.48,0.33l1.66,1.15l-2.03,2l3.06,1.27l-0.71,6.44l3.45-0.7l1.05,1.86l-3.94,2.88l0.67,1.8l-3.09,0.86l1.3,2.34l-2.26,0.67
		l1.31,5.61l0,0l-15.23,1.92l-1.33,3.38l1.33,3.44l-4.57,5.38l0,0l-4.88,2.06l-0.85-2.41l-2.6,0.12l0.74,1.33l-2.02,1.36
		l-10.87-0.03l3.07-2.68l-0.02-3.64l-3.88-2.1l-0.81-3.48l-3.18-1.08l-3.43,2.15l-1.75-2.84l-1.64,2.84l-7.93,0.65l0.65-4.66
		l-0.44-2.37l-2.06-0.28l0.1-3.18l-2.51,1.04l-2.83-1.64l-0.6-5.43l-7.67-6.979l-0.15-10.96l-4.03-6.36l0,0l0.74-2.41l-2.02,0.17
		l-0.92-4.9l1.67,0.18l0.88-2.2h4.67L285.85,120.07z"/>
	<path id="FR-K" fill="#1E3250" stroke="#1E3250" stroke-width="0.5" d="M338.91,398.32l6.21-15.11l2.5,2.4l2.08-4.261l1.82,0.511
		l3.54-2.82l4.45,9.68l4.59-0.96l0.2-2.899l1.51-0.32l1.53,3.06l3.19-0.54l4.91,5.471l0,0l1.73,8.71l6.89,10.95l-0.87,4.989
		l3.4-1.02l5.29,4.14l2.87-4.24l2.73-0.47l0.149,3.24l1.76,0.42l0.631-3.19l2.159-0.31l5.98,4.23l0,0l2.99,4.8l-0.04,6.1l2.739,0.91
		l2.41,4.41l-8.41,7.05l1.07,1.25l-1.64,9.12l-5.91-0.67l-2.47,4.189l1.899,0.66l-0.43,1.32l-5.32,3.08l-0.83-1.11l0.41,1.55
		l-3.4,1.65l-0.44,2.25l0,0l-3.96-1.47l-1.16-3.811l-5.6,0.42l-13.63,9.25l-5.7,6.601l-7.22-1.24l-6.3,6.63l-5.65,11.76l-0.62,14.7
		l0.76,9.2l3.89,1.35l1.37,4.551L343.3,525l-1.89-2.67l-3.88-0.5l-7.01,3.93l-4.3,0.4l-0.11,3.59l-3.95-0.99l-1.93,1.431
		l-4.04-3.391l-7.31-2.5l-4.21,0.811l-5.77,4.22l-3.42-5.87l-8.54-2.37l0.39-3.41l2-1.039l0,0l7.77-2.421l1.01-2.489l7.43-1.12
		l-3.81-3.96l-3.35,1.01l-3.77-1.38l-2.26-3.69l0.67-1.64l4.62-1.021l-0.26-3.34l-1.91-0.72l3.02-1.15l-2.69-5.01l0.44-3.49
		l-10.13-4.409l0.57-8.561l3.79,0.021l-0.5-2.92l2.1-2.851l1.76,2.65l5.91-2.271l1.46,2.271l4.06-1.181l1.84,1.86l1.8-4.32
		l5.74,2.48l8.77-0.83l2.51-2.23l0.26-2.619l-2.44-2.891l1.25-5.35l4.54,2.62l9.54-5.41l3.15,0.92l0.12-8.13l6.22,1.2l2.13-4.63
		l3.28,0.029l0.6-3.17l3.45-2.85l-2.2-3.391l-5.24-2.02l2.47-0.87l1.69-5.34l-6.55,0.59l1.08-2.34l-2.88-0.83l-0.37-1.76l-1.3,0.739
		l0.98-10.17l-3.24-3.739l0.79-3.271L338.91,398.32z M298.2,523.69l-1-2.23l-1.21,1.64L298.2,523.69z"/>
	<path id="FR-L" fill="#1E3250" stroke="#1E3250" stroke-width="0.5" d="M264.03,295.53l5.21,0.81l2.09-1.7l2.55,3.22l4.59-4.84
		l0.79,2.05l2.68-1.73l0.79,2l2.37-1.82l1.8,1.69l2.24-3.98l2.33,1.85l5.8-1.04l4.55,1.99l7.97-0.59l0,0l0.29,2.3l1.93,0.55
		l-1.31,1.74l7.48,3.78l4.96,14.64l0.41,3.75l-1.96,0.91l-0.32,2.56l-6.99,5.25l5.62,6.83l-0.08,4.03l-2.51,2.729l2.34,2.471
		l-1.26,7.979l1.69,1.6l-1.98,1.301l-5.48-2.471l0.46,4.431l-6.88,6.779l1.59,3.301l-2.19,1.67l-0.27,3.22l-3.09,1.3l1.84,3.43
		l-3.38,1.49l0,0l-4.7,1.38l-1.65-1.479l-4.4,3.21l-6.46-6.19l-4.5-1.09l-3.74,1.58l0,0l-2.91-5.01l1.41-1.16l-4.3-0.48l-2.21-1.909
		l1.42-1.351l-2.55-0.92l2.08-2.92l-2.1-1.08l0.39-2.91l3.64-3.35l-2.82-1.37l1.53-1.83l-7.17-2.5l1.89-2.95l-3.36-0.31l-2.8-4.71
		l-5.02,0.57l-1.18-1.28l-2.35,2.83l-2.52-2.53l0.97-2.94l-6.01-2.529l0,0l3.51-3.09l-0.13-2.49l2.94,0.75l1.2-8.32l2.91,0.53
		l2.7-2.83l-0.92-2.41l-4.58-2.41l-0.17-4.34l1.54-0.84l-2.24-4.48l4.55-4.55l4.28,0.5l1.78-4.94l3.38,0.9L264.03,295.53z"/>
	<path id="FR-M" fill="#1E3250" stroke="#1E3250" stroke-width="0.5" d="M440.08,96.55l2.25,6.56l3.479-2.05l2.28,1.45l1.28-2.729
		l4.3,0.72l1.13-1.55l3.97,4.11l4.051,0.34l0.64,2.71l4.91-0.16l1.12-2.52l4.64-1.33l5.22,3.44l2.66-1.05l5.311,3.5l-0.7,1.21
		l2.54,2.33l-1.4,1.18l4.271,4.26l2.87,7.33l4.02,0.7l0.11-3.77l4.16-0.64l3.949,2.04l0.721,4.86l1.979-2.63l2.4,2.24l5.68,0.35
		l2.95-3.57l3.31-0.77l-0.37,1.2l2.421-0.27l1.42,4.51l4.52,2.75l0,0l-4.15,7.64l-3.52-2.27l-5.24,1.58l-1.319-1.92l-6.98-2.02
		l-1.17-4.51l-2.74,7.65l-3.67,1.44l0.45,2.51l5.83,1.95l-1.83,1.16l1.13,3.74l3.12-3.82l4.43,1.45l2.28,3.45l-3,4.72l2.58,2.01
		l-3.58,6.74l-6.37,1.75l2.86,1.66l-1.84-0.36l1.14,1.82l-1.71,7.61l4.32,0.79l0.8,1.83l-5.8,10.26l0.72,2.22l-5.53,6.81l-1.97,6.73
		l0.96,2.53l-3.46,1.71l0,0l-9.641-7.66l-5.189,3.73l-3.69-4.64l-7.68,1.77l-2.86-5.4l-3.96,0.98l-3.75,4.18l-0.689-2.57l-2.01,3.18
		l0,0l-1.57-3.07l-2.47,1.43l-0.45-5l-6.181-3.21l1.771-1.42l0.41-4.41l2.04-1.16l-3.67-2.73l0.51-1.63l-1.75-1.49l-0.94,1.11
		l-2.67-4.6l-4.06,1.03l0.63-2.99l-2.01-0.74l3.14-1.99l-5.83-5.39l-4.82-1.17l-3.85-4.2l-1.99-0.03l-0.58-2.28l-2.42,1.06
		l0.45-7.93l-4.96-3.56l1.94-2.76l-0.15-4.57l4.38-3.7l-1.87-0.63l1.74-2.51l-2.95,0.13l1.62-2.98l-2.7-7.35l2.19-1.53l-1.7-1.78
		l4.13-2.35l0.141-5.92l1.96-0.69l-1-1.55l1.42-3.52l-2.16-2.72l2.22-5.84l6.22,3.22l5.54-4.77l0,0L440.08,96.55z"/>
	<path id="FR-N" fill="#1E3250" stroke="#1E3250" stroke-width="0.5" d="M210.53,475.05l1.27,2.681l-1.73,1.239L210.53,475.05z
		 M211.3,475.03l0.05-3.59L211.3,475.03L211.3,475.03L211.3,475.03z M275.25,376.42l3.74-1.58l4.5,1.09l6.46,6.19l4.4-3.21
		l1.65,1.479l4.7-1.38l0,0l1.23,5.971l3.34,4.939l-1.74,5.36l3.1,4.58l0.53-1.88l3.25-1.061l2.38,1.62l5.46-0.59l3.17-4.03
		l1.85-7.33l5.5-5.58l1.49,4.99l3.6-1.08l5.07,13.4l0,0l4.31,4.95l-0.79,3.27l3.24,3.74l-0.98,10.17l1.3-0.74l0.37,1.76l2.88,0.83
		l-1.08,2.34l6.55-0.59l-1.69,5.34l-2.47,0.87l5.24,2.021l2.2,3.39l-3.45,2.851l-0.6,3.17l-3.28-0.03l-2.13,4.63l-6.22-1.2
		l-0.12,8.13l-3.15-0.92l-9.54,5.41l-4.54-2.62l-1.25,5.351l2.44,2.89l-0.26,2.62l-2.51,2.229l-8.77,0.83l-5.74-2.479l-1.8,4.319
		l-1.84-1.859l-4.06,1.18l-1.46-2.27l-5.91,2.27l-1.76-2.649l-2.1,2.85l0.5,2.92l-3.79-0.02l-0.57,8.56l10.13,4.41l-0.44,3.49
		l2.69,5.01l-3.02,1.149l1.91,0.721l0.26,3.34l-4.62,1.02l-0.67,1.641l2.26,3.689l3.77,1.38l3.35-1.01l3.81,3.96l-7.43,1.12
		l-1.01,2.49l-7.77,2.42l0,0l-2.53-0.9l0.41-1.5l-7.68-2.18l-2.93,0.23l-1.76,2.739l-3.35-6.54l-7.76,0.601l-3.74-4.49l-6.36-0.05
		l-9.05-4.09l-2.64,4.42l1.27,5.18l-10.52,0.02l-2.59-1.869l-2.73,2.85l-4.91-3.57l-9.67,2.521l-4.29-5.95l-6.33-2.9l0,0l1.06-8.81
		l4.49-2.63l-0.54-3.53l3.14-3.729l2.06,0.17l-0.22-2.61l2.32-2.71l-1.2-1.76l3.15-2.55l-1.26-5.641l-2.76,1.96l0.06-2.97l1.97-0.51
		l-3.24-6.271l-5.9-0.029l-1.7-2.04l1.24-5.08l2.29-1.721l-1.32-4.06l1.37-0.1l0.29-3.341l-2.21-1.68l2.49-2.39l3.47,0.62l2.47-3.21
		l1.79,1.739l-1.15,1.431l3.32,1.89l-0.14-3.75l2.96-2.32l1.23,1.66l3.09-2.83l2.89,1.8l12.15-5.18l2.94,3.22l5.62-4.989l-0.37-1.87
		l4.35,0.33l-1.69-2.66l2.21-0.38l1.83-4.82l-3.38-2.06l1.12-4.101l1.88,2.08l4.98-1.19l-3.3-10.279l5.09-1.7l1.81-5.61l6.95-4.09
		l-0.73-3.25l5.88-4.859l-1.3-7.391L275.25,376.42z"/>
	<path id="FR-O" fill="#1E3250" stroke="#1E3250" stroke-width="0.5" d="M321.47,2.24l2.94,7.09l-1.73,1.82l0.39,4.6l1.48,2.44
		l3.64,0.14l2.96,5.64l4.65,2.11l1.91-3.91l8.24-2.49l1.66,4.24l2.88,1.54l-0.89,2.85l2.17,8.71l3.51,2.16l4.1-2.73l1.83,0.63
		l-0.76,2.36l4.48-0.57l2.16,2.56l-0.07,5.63l2.07,4.18l1.64-2.99l6.42,1.57l5.09-2.08l4.7,6.55l1.03-2.02l1.92,1.11l-3.32,8.96
		l2.98,0.04l1.25,4.11l-2.91,1.36l-0.76,4.41l0,0l-6.75-0.88l0.07-3.27l-3.93,2.24l-0.64-1.82l-6.54-2.08l-4.18,2.86l-2.91-1.91
		l-2.2,2.36l-5.28-1.2l-7.93,1.63l-6.56-3.06l-6.24,2.49l-0.26-3.67l-4.59,2.17l1.38-4.35l-2.12-0.94l-1.08,2.89l-5.31-2.07
		l0.08-1.73l-1.84,1.69l-2.15-1.58l-2.59,3.29l-1.77-1.43l0.49-2.84l4.44-2.64l-1.81-2.32l-3.85,1.55l-1.09-2.1l-0.22,1.68
		l-2.37-1.02l-5.01,2.49l-2.67-0.67l-0.37-3.33l-5.41-2.31l0.04-2.8l-1.61,1.27l-4.3-3.19l-5.8,2l-0.97-1.44l0,0l-3.64-3.14
		l1.34-8.96l2.01,1.63l-2.44-3.65l-0.57-10.23l2.12-5.09l-1.35-4.42l12.03-6.5l-1.22-0.23l11.07-2.04l2.2-2.26l0.83,2.4l0.69-2.4
		l7.64-0.51L320.75,0L321.47,2.24z"/>
	<path id="FR-P" fill="#1E3250" stroke="#1E3250" stroke-width="0.5" d="M134.84,88.51l13.15,4.35l-0.2,1.48l0.52-1.41l5.03-0.71
		l0.58-1.84l8.64,0.05l1.5,5.71l-3.34,3.79l5.93,8.96l-1.45,4.62l1.95-1.78l1.62,1.19l1.71-2.92l4.54-0.48l8.72,3.08l15,1.01
		l7.13,3.33l9.19-2.8l9.33-6.55l-4.68-0.2l7.24-0.11l0,0l1.05,9.479l3.08-0.13l-2.62,2.37l3.07,2.39l-0.39,3.58l1.99,0.81
		l-0.56,4.14l-2.17,1.43l3.34,2.34l-2.65,6.54l2.87,2.1l6.75,0.06l-0.25,2.87l6.12,4.08l0.66,1.86l-1.91,1.93l3.66,2.31l0,0
		l0.15,3.63l6.12,5.53l-1.27,2.94l1.66,2.25l-2.56,4.23l-5.99,3.14l2.5,6.77l-1.35,1.2l0,0l-2.48,0.37l-3.5-4.7l-0.61,1.91
		l-4.29-0.98l-1.91-3.82l-4.04-0.73l-0.41-6.42l-3.38-3.5l-6.49,1.45l-3.6,4.97l-2.45-1.23l-2.08,1.42l0.01-4.78l-3.99-0.36
		l-1.12-3.35l1.17-1.09l-2.57-2.23l-1.74-0.04l-0.92,3.56l-2.07-0.94l-1.33,2.39l-1.81-1.61l-4.7,0.06l-5.88,4.05l-0.5-2.57
		l-2.77,0.74l0.7,1.47l-1.92,0.87l-3.55-3.95l-9.31-0.55l0,0l-7.63-2.23l-4.16,4.69l-2.8,0.5l-2.79-1.76l-3.46-9.09l0,0l9.05,0.14
		l-2.41-1.68l1.05-1.03l-2.54,1.28l-5.05-5.76l-0.18-4.7l-1.66-0.84l3.05-6.09l-0.69-5.96l2.2,0.38l-2.32-1.12l-0.74,2.4l-0.9-2.41
		l-0.62-11.37l1.94-0.19l-1.95-0.82l-0.51,1.57l-3.34-7.57l-4.26-2.8l-3.24-10.28l1.96-2.35l-0.33-3.85l-4.1-2.8L134.84,88.51z"/>
	<path id="FR-Q" fill="#1E3250" stroke="#1E3250" stroke-width="0.5" d="M272.33,66.81l2.96-0.37l0.15,1.97l10.78,9.83l3.07,7.979
		l-1.52-0.06l-2.5,4.39h2.59l-2.25,3.24l-0.04,3.95l2.17,2.83l-1.29,2.19l3.03,0.01l-3.17,6.14l3.73,8.46l-0.62,1.81l-1.29-1.67
		l-2.02,0.49l-0.23,2.09l0,0l-3.38,9.23h-4.67l-0.88,2.21l-1.67-0.18l0.92,4.9l2.02-0.16l-0.74,2.41l0,0l-2.21,1.05l0.51,3.26
		l-4.08,2.35l0.43,3.35l-1.66,1.26l-8.76-1.77l-0.25,2.69l-2.16-0.74l-2.23,2.07l-5.53,0.61l-2.53,2.86l0,0l-3.66-2.31l1.91-1.93
		l-0.66-1.86l-6.12-4.08l0.25-2.87l-6.75-0.06l-2.87-2.1l2.65-6.54l-3.34-2.34l2.17-1.43l0.56-4.14l-1.99-0.81l0.39-3.58l-3.07-2.39
		l2.62-2.37l-3.08,0.13l-1.05-9.48l0,0l0.41-1.13l-7.51-1.25l-1.98-2.54l3.59-8.66l-1.21-1.61l1.31,0.6l2.15-3.35l15.76-9.19
		l15.5-4.45l5.58,0.63l-0.27-1.26L272.33,66.81z"/>
	<path id="FR-R" fill="#1E3250" stroke="#1E3250" stroke-width="0.5" d="M121.44,256.7l1.64,1.15l-0.59,2.05l3.11,1.57l0.3,3.31
		l-2.43-3.85l-3.83-2.02l-0.28-2.03L121.44,256.7z M170.7,165.56l9.31,0.55l3.55,3.95l1.92-0.87l-0.7-1.47l2.77-0.74l0.5,2.57
		l5.88-4.05l4.7-0.06l1.81,1.61l1.33-2.39l2.07,0.94l0.92-3.56l1.74,0.04l2.57,2.23l-1.17,1.09l1.12,3.35l3.99,0.36l-0.01,4.78
		l2.08-1.42l2.45,1.23l3.6-4.97l6.49-1.45l3.38,3.5l0.41,6.42l4.04,0.73l1.91,3.82l4.29,0.98l0.61-1.91l3.5,4.7l2.48-0.37l0,0
		l4.9,3.44l-2.69,0.34l-1.56,2.1l1.23,1.67l-2.05,0.15l0.15,2.07l1.86,0.46l0.28,5.54l-1.56,3.19l-2.09-0.76l0.33,4.23l-2.77,4.01
		l-4.81,3.02l1.37,1.52l-0.94,1.3l-6.1,3.24l-2.74-1.5l0.02,4.51l-6.28-2.14l-1.6,4.04l1.14,2.39l-2.85,6.16l1.22,1.09l-4.36,6.11
		l-0.95,7.16l0,0l-2.58,0.24l-1.21,4.48l-2.08-0.86l-1.79,2.83l-2.07-0.98l1.52-2.02l-1.72-0.3l-8.82,1.04l-3.51,2.3l0.9-1.71
		l-1.46-0.12l-2.56,1.18l0.53,1.92l-2.29,2.16l-7.81-0.51l-4.5,1.88l3.67,3.26l-0.96,2.19l5.52,4.53l-0.89,3.26l3.45,5.55l-0.9,1.63
		l1.78,0.88l-1.12,13.47l1.479-0.97l2.76,1.74l-7.58,4.98l-4.56-2.38l-4.16,1.91l-1.23-0.74l1.31-2.91l-7.73,3.27l0,0l-3.56,0.1
		l-0.17,2.7l-4.55-3.84l0.84,2.57l-1.99-3.06l-5.16-0.01l-1.94-3.69l-5.58-0.97l-6.83-4.49l-1.84-7l-11.84-12.79l-0.41-4.08
		l1.72-0.15l5.51-8.32l-5.02-5.23l-6.12-1.09l3.36-2.17l-0.21-5.83l-5.31,1.92l-3.16-2.77l-2.33,1.22l-4.7-1.94l1.63-2.93l-2.23-2.2
		l4.2-4.51l0,0l1.43-1.77l4.4,0.97l0.78-3.38l5.6,1.62l0.26-1.95l2.46-0.69l0.68-7.18l4.51-2.7l0.76,1.38l3.94-2.29l8.31-0.06
		l1.57-3.32l6.19-2.43l-0.24-1.99l9.63,3.62l3.8-11.62l5.75-2.37l-3.52-16.32l2.32-3.9L170.7,165.56z"/>
	<path id="FR-S" fill="#1E3250" stroke="#1E3250" stroke-width="0.5" d="M282.69,47.73l0.59,0.47l0,0l0.97,1.44l5.8-2l4.3,3.19
		l1.61-1.27l-0.04,2.8l5.41,2.31L301.7,58l2.67,0.67l5.01-2.49l2.37,1.02l0.22-1.68l1.09,2.1l3.85-1.55l1.81,2.32l-4.44,2.64
		l-0.49,2.84l1.77,1.43l2.59-3.29l2.15,1.58l1.84-1.69l-0.08,1.73l5.31,2.07l1.08-2.89l2.12,0.94l-1.38,4.35l4.59-2.17l0.26,3.67
		l6.24-2.49l6.56,3.06l7.93-1.63l5.28,1.2l2.2-2.36l2.91,1.91l4.18-2.86l6.54,2.08l0.64,1.82l3.93-2.24l-0.07,3.27l6.75,0.88l0,0
		l3.7,1.32l0,0l0.88,5.82l-1.96,5.67l1.82,1.47l-5.13,5.06l-0.46,2.88l-3.8,0.71l2.26,3.25l-1.72,13.45l-4.69-2.96l-2.83,1.69
		l-0.18,2.25l-3.05-0.73l-5.5,2.72l0.36,6.39l3.92,3.41l-5.25,0.54l-0.89,1.95l1.55,2.68l-2.2,2.54l2.72-0.39l1.13,1.82l-8,10.2l0,0
		l-1,0.92l-3.25-2.16l-0.64-3.55l-1.61,1.27l-1-2.56l-1.67,0.62l-4.04-4.63l0.97-2.39l-2.16-3.54l-2.84-0.69l-0.14,2.01l-3.28,0.89
		l-0.78-1.3l-4.85,1.35l-1.81-1.67l-3.09,2.26l-4.19-3l-2.05,1.81l-1.29-2.82l-2.58,1.15l-7.33-5.05l-3.35,2.23l-0.6-1.78l-1.99,1
		l-3.72-2.96l-8.22,3.01l-5.34-0.8l-2.1-3.56l0,0l0.23-2.09l2.02-0.49l1.29,1.67l0.62-1.81l-3.73-8.46l3.17-6.14l-3.03-0.01
		l1.29-2.19l-2.17-2.83l0.04-3.95l2.25-3.24h-2.59l2.5-4.39l1.52,0.06l-3.07-7.98l-10.78-9.83l-0.15-1.97l-2.96,0.37l0,0l6.01-9.22
		l6.88,1.21l-6.2-5.56l0.68-5.65L282.69,47.73z"/>
	<path id="FR-T" fill="#1E3250" stroke="#1E3250" stroke-width="0.5" d="M156.7,315.7l7.04,3.83l2.14,7.39l-1.85,3.58l-1.58-4.83
		l-4.89-4.34L156.7,315.7z M152.41,303.18l1.52,1.4l-1.94,0.28l0.8,1.51l3.66-1.56l-0.51,1.73l2.49-0.45l4.75,2.76l-2.4,1.19
		l-9.32-3.54l-1.17-2.49L152.41,303.18z M168.78,299.64l7.73-3.27l-1.31,2.91l1.23,0.74l4.16-1.91l4.56,2.38l7.58-4.98l-2.76-1.74
		l-1.48,0.97l1.12-13.47l-1.78-0.88l0.9-1.63l-3.45-5.55l0.89-3.26l-5.52-4.53l0.96-2.19l-3.67-3.26l4.5-1.88l7.81,0.51l2.29-2.16
		l-0.53-1.92l2.56-1.18l1.46,0.12l-0.9,1.71l3.51-2.3l8.82-1.04l1.72,0.3l-1.52,2.02l2.07,0.98l1.79-2.83l2.08,0.86l1.21-4.48
		l2.58-0.24l0,0l1.09,2.73l4.22,0.24l-0.14,3.42l5.17,0.48l0.85,7.33l11.4-1.61l-1.26-2.97l5.14,1.97l0.53,4.27l8.64,10.67
		l-0.1,7.58l9.7,5.64l0.27,3.52l2.54,0.9l-1.4,2.93l0,0l-2,2.23l-3.37-0.89l-1.78,4.94l-4.28-0.5l-4.55,4.55l2.24,4.479l-1.54,0.841
		l0.17,4.34l4.59,2.41l0.91,2.409l-2.7,2.83l-2.91-0.54l-1.2,8.32l-2.94-0.75l0.12,2.5l-3.51,3.09l0,0l-2.69,4.53l-2.26,0.03
		l-0.27,4.8l-3.02,3.87l-4.2,2.58l-1.17-1.021l-2.28,5.311l0.78,4.26l-5.45,5.359l-3.28-1.229l-1.98,1.439l-2.17,6.101l-1.82-1.351
		l-4.28,1.601l-7.15-4.43l-0.85,1.55l-1.76-7.92l-5.81-1.061l-0.93-2.95l-0.34,1.521l-4.97-0.42l0,0l-4.33-9.681l-6.24-4.029
		l-2.22-3.681l-8.82-4.13l-0.06-5.54l4.3-1l-1.88-2.989l2.64-0.341l1.66-2.899l-1.86-5.67l2.81,0.02l-3.18-7.41l-1.87-0.649
		l0.98-1.15l-3.65-0.39l5.29-5.76L168.78,299.64z"/>
	<path id="FR-U" fill="#1E3250" stroke="#1E3250" stroke-width="0.5" d="M422.31,411.26l0.41,0.46l0,0l2.94,2.11l-3.49,4.85
		l-4.05-0.68l-0.65-2.61l2.88-3.71l0,0l0,0l0,0l1.881-0.54l0,0L422.31,411.26z M436.87,480.46l1.33-4.56l-2.69-3.761l-3.35,1.86
		l-7.41,0.22l-3.32-5.71l-3.149,1.16l-1.36-2.84l0.69,2.52l-2.051-1.09l1.37,1.601l-2.3,0.899l3.01,1.7l1.601-1.39l-3.34,3.01
		l-10.561-1.85l0.351-3.511l-2.38-1.71l-12.581-0.46l0,0l0.44-2.25l3.4-1.649l-0.41-1.551l0.83,1.11l5.32-3.08l0.43-1.32l-1.9-0.659
		l2.471-4.19l5.909,0.67l1.641-9.12l-1.07-1.25l8.41-7.05l-2.41-4.41l-2.74-0.91l0.04-6.1l-2.99-4.8l0,0l0.051-3.44l5.729,0.97
		l1.26,4.961l10-4.631l2.021,1.74l2.42-2.16l-0.61,4.801l8.421,1.029l1.159,3.41l2.99,2.08l3.59-0.77l2.5-3.391l3.181,2.59
		l-1.471-1.45l1.79-1.42l0.011-4.09l-3.261-2.27l0.88-1.58l-5.649-0.24l-2.61-2.149l-0.47-2.91l3.27-0.7l-1.67-3.59l6.48,1.609
		l2.069-1.79l-2.779-2.41l1.91-6.26l6.08-0.09l1.699-2.15l-1.31-0.93l1.17-3.09l5.149-0.06l1.211-1.23l-1.28-1.36l2.83-1.8
		l1.609,1.141l3.221-2.82l4.71,0.72l1.83-1.279l2.67,1.109l-1.32-8.41l-4.96-1.02l1.71-6.12l3.64-0.16l1.311,3.11l3.58,1.069
		l2.47-3.359l5,0.02l0,0l1.76,5.3l2.94,0.33l0.28,6.37l4.67,3.22l2.989-0.68l3.601,2.26l-0.94,2l3.16,6.16l-4.729,0.351l0.22,3.35
		l-4.66,5.23l3.86,5.72l-2.311,0.479l-0.22,3.421l4.95,7.319l7.489,1.99l7.04,4.95l13.58-3.431l0.88,7.641l-8.659,9.75l1.439,5.18
		l-7.95,4.021l-0.239,2.08l-0.74-1.74l-6.58,3.05l-1.46,3.78l0.97,1.989l-1.939-1.079l-2.48,2.039l-3.15-0.399l-2.97,6.439
		l-6.06,0.341l-1.19,4.26l-5.88,4.3l5.09,0.32l-2.09,5.63l-3.55-1.22l-2.69,2.17l-4.649,0.37l-0.851,3.29l-7.35-1.62l-1.32,4.989
		l-2.49-0.119l1.211-2.851l-4.28,0.061l-4.09-2.631l-1.66,1.261l2.76,1.95l-4.96,1.029l-1.47-1.069l0.63-2.631l-4.7-1.609
		l-0.38-2.05l-2.68-0.381l-0.74,1.511l-2.84-3.09L436.87,480.46z"/>
	<path id="FR-V" fill="#1E3250" stroke="#1E3250" stroke-width="0.5" d="M377,302.07l-0.36,3.68l3.42,0.7l0.69,2l9.06-1.51
		l2.81,2.279l4.04-1.77l1.37-6.58l4.08,1.69l2.67-1.57l2.069,1.7l2.561-2.43l3.26,8.01l7.58-20.76l4.811,2.07l4.609-2.1l2.811,3.67
		l3.26,0.7l0,0l-0.641,1.99l3.23,1.85l1.11,4.3l0.85-2.24l2.12,1.94l-0.061,3.07l2.71-0.25l4.32-4.56l2.94,2.12l0.479,2.9l5.99-0.23
		l8.11-9.06l0,0l4.369,2.95l-2.81,4.91l0.93,2.04l-5.989,2.06l-0.94,5.28l7.09-0.67l6.931-5.1l0.59-1.85l-2.03,0.28l-1.67-3.62
		l1.33-2.89l11.069-5.82l12.5,1.8l-2.05,4.3l3.9,4.46l-2.811,8.53l4.21,0.78l-0.949,4.55l2.449-0.97l4.261,6.58l-1.71,4.91
		l-7.311,2.09l-0.55,6.609l4.49,4.38l3.51,0.7l0.01,7.971l7.761,5.85l-3.2,4.62l1.029,4.21l-10.05,5.16l-0.01,1.859l-5.21-1.34
		l-5.67,2.91l0,0l-5-0.02l-2.47,3.359l-3.58-1.07l-1.311-3.109l-3.64,0.16l-1.71,6.12l4.96,1.02l1.319,8.41l-2.67-1.11l-1.83,1.28
		l-4.709-0.72l-3.221,2.819l-1.609-1.14l-2.83,1.8l1.279,1.36l-1.21,1.229l-5.149,0.061l-1.17,3.09l1.31,0.93l-1.7,2.15l-6.08,0.09
		l-1.909,6.26l2.779,2.41l-2.069,1.79l-6.48-1.61l1.67,3.591l-3.27,0.699l0.47,2.91l2.61,2.15l5.649,0.24l-0.88,1.579l3.26,2.271
		l-0.01,4.09l-1.79,1.42l1.47,1.45l-3.18-2.59l-2.5,3.39l-3.59,0.771l-2.99-2.08l-1.16-3.41l-8.42-1.03l0.61-4.8l-2.42,2.16
		l-2.021-1.74l-10,4.63l-1.26-4.96l-5.73-0.97l-0.05,3.44l0,0l-5.979-4.23l-2.16,0.31l-0.63,3.19l-1.76-0.42l-0.15-3.24l-2.73,0.47
		l-2.87,4.24l-5.29-4.14l-3.4,1.02l0.87-4.989l-6.89-10.95l-1.73-8.71l0,0l2.58-1.42l1.07-3.4l3.28-0.39l0.27-2.261l5.06-0.05
		l2.83-5.27l3.69-0.58l-0.72-2.71l3.459-1.01l-1.37-2.341l2.16-1.67l-1.04-2.279l3.471,1.46l1.38-6.101l-2.271-3.06l0,0h-3.6l0,0
		l0.9-1.58l-1.63-0.96l1.49-1.09l-5.56-3.101l-3.66,0.3l-3.06,2.83l-2.09-0.779l-0.1,1.25l-2.92-2.83l-1.8,2.47l-0.63-3.59l3.08-2.4
		l0.89-3.529l-12.29-17.48l2.72-5.63l-2.56-2.62l0.32-2.34l5.38-1.76l-2.62-14.331L377,302.07z M422.21,411.13L422.21,411.13
		l-2.89,0.87l-1.86,3.38l0.65,2.61l4.05,0.68l3.49-4.85l-2.94-2.11L422.21,411.13z"/>
</g>
</svg>
