<?xml version="1.0" encoding="utf-8"?>
<!-- Generator: Adobe Illustrator 15.0.0, SVG Export Plug-In . SVG Version: 6.00 Build 0)  -->
<!DOCTYPE svg PUBLIC "-//W3C//DTD SVG 1.1//EN" "http://www.w3.org/Graphics/SVG/1.1/DTD/svg11.dtd">
<svg version="1.1" id="Layer_1" xmlns:amcharts="http://amcharts.com/ammap"
	 xmlns="http://www.w3.org/2000/svg" xmlns:xlink="http://www.w3.org/1999/xlink" x="0px" y="0px" width="816.5px" height="438.5px"
	 viewBox="0 0 816.5 438.5" enable-background="new 0 0 816.5 438.5" xml:space="preserve">
<defs>
	
	
		<amcharts:ammap  projection="mercator" leftLongitude="40.011506" topLatitude="43.584733" bottomLatitude="41.064411" rightLongitude="46.721888">
		</amcharts:ammap>
</defs>
<g>
	<path id="GE-AB" fill="#1E3250" stroke="#1E3250" stroke-width="0.5" d="M31.99,1.6l1.25,1.14l1.6-0.26l0.82,0.35l2.6,2.34
		l2.4-0.45l2.26,1.061l4.7,0.56l1.11-0.04l2.26-1.57l2.28,1.46l2.38,0.31l2.14,2.13L59,9.15l7.19,1.95l1.8-0.99l3.88-4.16l1.82-0.49
		l1.99-1.39l1.96,0.19l2.93,3.76l5.47,1.4l4.02,2.88l6.81,3.77l5.58,0.06l1.53,0.94l0.76,1.43l-0.35,2l3.53,2.53l1.21,2.75
		l1.57,0.55l1.85-0.15l1.06-0.36l1.16-1.26l1.6,0.22l3.95,2.56l1.38,2.1l0.12,1.98l2.14,1.36l4.72,0.75l2.17-2.8l2.3,0.06l9.45,3.45
		l3.97,2.49l3.68,0.71l2.03,1.42l1.25,1.74l2.31,0.2l4.38-4.67l1.2,0.5l3.43-0.47l1.47,1.35l0.62,7.65l6.28,1.44l2.96,3.03l4.9,2.79
		l1.06,1.94l2.24,0.85l1.09,1.32l1.96,0.34l3.72,1.67l3.17-1.16l4.06,2.17l1.82,0.26l0.98-0.52l1.4-2.12l1-0.22l3.18,2.76l6.75,1.91
		l5.1-1.92l0.55-1.15l-0.83-2.3l0.63-1.39l0.67-0.2l0.74,0.14l1.46,1.5l3.12,1.37l3.03,0.49l1.96,2.51l2.44-0.84l4.45,0.07
		l2.48,2.84l1.13,0.35l1.11,0.1l2.76-1.67l3.76-0.5l2.82-2.13l2.16,0.3l0,0l-3.01,7.71l-0.01,4.03l1.21,3.22l-0.75,2.84l-3.11,6.89
		l-4.5,4.02l-1.64,4.37l-2.8,0.97l-6.56,0.82l-3.29,1.58l-5.17,0.98l-2.45,1.14l-0.56,0.75l1.22,3.95l2.96,0.58l-0.48,6.72
		l1.68,1.86l0.4,2.83l1.03,1.41l-1.41,3.05l-2.67,1.2l-1.93,2.78l1.61,1.92l0.56,2.25l0.65,4.58l0.14,8.08l1.05,2.59l2.36,2.42
		l1.48,2.42v3.83l-1.28,4.5l-1.72,1.25l-2,0.68l-4.13,6.02l-5.02,5.59l-6.71,4.6l-7.51,3.66l-5.05,1.47l-5.4,6.44l-8.43,4.23l0,0
		l-2.32-17.62l-2.23-11.98l-5.35-17.36l-2.69-5.38l-0.95-1.06l-1.77,0.26l-1.83-2.62l-1.41-0.85l-7.41-1.96l-1.97-0.04l-2.89-2.09
		l-7.93-2.49l-2.88,0.26l-2.07,1.43l-3.64-0.71l-1.05-2.41l-4.03-4.81l-2.95-16.1l-3.02-6.87l-1.77-1.92l-1.15-0.45l-1.86,0.67
		l-2.43-0.18l-2.13,2.24l-1.22-0.05l-0.78-1.56l-2.82-2.59l-1.87-3.4l-2.52-2.1l-2.27-3.75l-2.46-1.84l-4.39-1.03l-2.2-0.22
		l-1.34,0.45l-4.46-0.99l-7.64,0.18l-5.31-2.32l-4,1.29l-3.51,0.36l-2.23-2.1l-2.62-4.16l-2.36-1.93l-4.72-0.31l-1.18,0.67
		l-1.12-1.39l-2.98-0.98l-4.56-3.14l-2.49,0.271l-1.08,0.63l-2.36,2.51l-0.07,0.98L39,70.91l-3.64-3.9l-1.54-0.49l-2.33-2.56
		l-1.28-12.15l-1.18-5.11l-1.44-3.19L23,41.04l-5.25-1.48l-3.44-2.65l-1.9-0.32l-4.23-2.96L0.1,32.37l0.58-6.97l2.6-4.63l0.85-4.08
		l2.05-2.6l0.5-1.79l3.28-3.27l0.4-0.95L9.73,4.49l0.98-1.75l3.87,0.16l4.89-1.76l4.25,0.41l1.72-1.02L28.02,0l1.72,0.27L31.99,1.6z
		"/>
	<path id="GE-AJ" fill="#1E3250" stroke="#1E3250" stroke-width="0.5" d="M207.65,269.33l17.64,1.27l2.6,1.24l0.57,0.82l0.37,4.55
		l5.38,0.29l2.51,2.77l4.57,1.39l0.9,2.49l6.28-2.34l4.6-0.03l3.83,1.36l1.77,3.32l6.16-1.56l6.04,0.1l2.84-2.72l4.04-2.63
		l3.52-0.19l1.21,0.29l1.73,1.65l2.41,4.12l4.98,0.24l0,0l2.06,5.47l-0.09,4.23l-2.42,3l0.68,3.76l3.36,5.35l3.19,2.01l1.24,2.39
		l2.6,2.681l2.08,6.729l0,0l-1.11,1l-0.28,3.42l-1.46,2.99l0.51,2.26l-1.54,1.01l-0.89,1.73l-1.54-0.13l-0.5,0.43l-0.14,0.83
		l-1.69,1.12l-0.71,1.65l1.27,2.149l0.29,1.25l-0.35,1.08l-0.79,0.04l-1.08-0.89l-3.91,0.949l-2.87-0.159l-3.82-2.63l-0.83-1.471
		l-4.3,0.32l-2.24-1.32l-2.15,0.3l-5.34-3.619l-2.91,0.17l-1.69-0.641l-5.42,0.55l-0.66-1.93l-1.7-1.35l-1.47-0.061l-2.29,0.88
		l-3.73,0.54l-0.23-1.109l-0.79-0.141l-1.14,0.7l-1.77-0.38l-4.6,2.7l-3.51-1.72l-3.05-0.181l-0.41-1.5l-1.42-1.43l-2.58,0.11
		l-0.92,1.26l-2.89,2.01l-1.82,0.53l-1.31,2.1l-0.06,1.22l-2.04,2.86l-3.15,1.01l-1.25,2.271l-1.61,0.89l-0.54-0.02l-1.43-2.21
		l-2.45-0.9l-0.3-1.11l-0.76-0.42l-3.22-1.5l-4.53-0.22l-0.25-0.5l0.94-1.81l-0.33-0.71l-1.16-0.53l-5.32,2.06l-2.09-0.29l-4.5-3.38
		l-2.97-1.1l-0.48-0.79l-3.6-0.98l0.1-1.17l0.42-1.05l1.09-0.74l0.78-7.56l2.13-3.97l2.96-3.721l2.72-2.359l1.01,0.09l0.4,1.49h1.11
		l0.3-0.881l0.72,0.4l0.69-0.479l5.5-8.01l2.89-8.53l1.54-2.06l1.93-5.87l0.86-8.46L207.65,269.33z"/>
	<path id="GE-GU" fill="#1E3250" stroke="#1E3250" stroke-width="0.5" d="M205.84,232.96l3.89-1.13l0,0h8.62l0,0l6.3-1.33l2.51-1.05
		l5.67,0.01l3.85-0.86l1.45,0.79l6.19,1.55l4.62,4.15l10.13,1.28l0,0l2.06,0.82l0,0l0.65,1.37l0,0l-1.72,1.07l-1.19,1.69l0.1,1.95
		l1.84,3.08l1.57,0.69l4.02,0.19l3.6,1.8l1.34-0.22l2.02-2.89l3.93,0.03l3.09,0.91l3.94,9.48l3.43,0.29l2.81,1.34l4.12,3.29
		l3.47,1.14l2.66,2.22l8.09,0.34l1.81,2.82l0.04,8.48l0.68,4.01l0,0l-3.19-0.03l-1.18,0.48l-1.3,1.41l-0.9,3.14l-0.89,1.09
		l-3.02,0.6l-3.12-1.83l-6.23,0.63l0,0l-4.98-0.24l-2.41-4.12l-1.73-1.65l-1.21-0.29l-3.52,0.19l-4.04,2.63l-2.84,2.72l-6.04-0.1
		l-6.16,1.56l-1.77-3.32l-3.83-1.36l-4.6,0.03l-6.28,2.34l-0.9-2.49l-4.57-1.39l-2.51-2.77l-5.38-0.29l-0.37-4.55l-0.57-0.82
		l-2.6-1.24l-17.64-1.27l0,0l-1.28-15.7l-0.66-2.24l0.43-2.02l-0.72,1.36l-2.03-3.04l-3.61-7.74l0.95-1.23l0.82,2.86l-0.23,0.88
		l1.12,0.17l0.42,0.75l0.36-0.53l-0.26-1.05l0.49-0.35l-0.39-0.4l0.65-0.66l-2.72-2.24l4.76-1.19l0.39-2.38l1.21-0.44L205.84,232.96
		z"/>
	<path id="GE-IM" fill="#1E3250" stroke="#1E3250" stroke-width="0.5" d="M307.27,170.67l1.56,2.27l-0.65,4.75l1.26,2.77l-0.09,4.35
		l2.46,0.07l5.07-1.8l2.43-3.08l3.88,0.73l2.64,1.79l3.29-0.61l0.48-0.36l0.93-3.18l0.91-0.13l2.23,0.9l1.67,2.01l3.16,0.98l2.3,1.5
		l5.31,5.22l1.22,2.77l0.17,2.75l0.74,1.87l4.32,0.39l2.53,1.28l4.21,3.3l2.24-1.49l3.6-0.68l2,0.27l4.39-1.68l3.6-2.78l1.85-2.99
		l4.23-2.13l1.81-1.86l12.88-0.55l8.07,1.94l7.44-1.84l6.29,3.01l4.41,0.87l0,0l2.55,2.3l7.53,1.4l3.109-1.32l3.41-2.29l2.46-0.05
		l1.41,0.62l1.6,3.14l-2.47,6.57l0.79,3.27l-3.93,0.89l-2.801,1.63l-4.31,0.26l-3.1,3.57l-2.95,1.76L424,216.7l1.23,4.24
		l-0.021,3.36l-0.68,3.31l-3,1.74l-2.181,6.86l-2.79,4.06l-5.89,3.29l-0.62,2.71l-0.08,9.51l-6.779,5.81l-0.761,2.19l0.65,3.36l0,0
		l-3.87,0.77l-3.78,2.77l-4.44,0.91l-5.55,3.33l-9.5,2.74l-8.64,4.11l-2.78-1.42l-16.1,2.04l-2.18,1.73l-1.42,0.06l-4.73-1.84
		l-4.79-0.11l-2.64-1.14l-2.89-0.1l-4.45,1.94l-2.63,2.23l-2.53,0.14l-3.31-1.2l-2.04-0.07l-3.38-3.76l0,0l-0.68-4.01l-0.04-8.48
		l-1.81-2.82l-8.09-0.34l-2.66-2.22l-3.47-1.14l-4.12-3.29l-2.81-1.34l-3.43-0.29l-3.94-9.48l-3.09-0.91l-3.93-0.03l-2.02,2.89
		l-1.34,0.22l-3.6-1.8l-4.02-0.19l-1.57-0.69l-1.84-3.08l-0.1-1.95l1.19-1.69l1.72-1.07l0,0l3.82,0.36l2.6-1.84l0.79-4.46
		l-0.01-11.22l-0.5-2.63l3.54-1.24l-0.13-3.34l5.19-8.21l2.93-5.77l5.03-4.36l3.36-4.05l0.22-8.5l3.01-2.27l0.32-4.41l2.49-1.95
		l1.81-2.82l5.57-0.1l2.3-1.18L307.27,170.67z"/>
	<path id="GE-KA" fill="#1E3250" stroke="#1E3250" stroke-width="0.5" d="M782.19,394.2l-2.41-0.061l-0.95,0.811l-1.34-0.141
		l-1.88-2.149l-5.521-1.75l-2.29,1.62l-4.979,7.939l-1.61,0.4l-2.69-3.57l-0.539-3.359l-2.69-1.08l-2.56,1.35h-2.15l-9.15-11.71
		l-3.5-3.23l-6.87-0.27l-4.71,0.54l-2.689-1.34h-1.88l-0.61,0.72l-2.21,0.59l-0.83,3.05l-1.61,0.9l-3.359-0.979l-5.68-0.11
		l-3.421,0.7l-3.819-0.25l-8.28-5.42l-3.42-1.301l-2.83,0.11l-3.93-1.17l-8.29-5.41l-4.82-7.06l0.38-1.21l0.641-0.141l2.409-3.42
		l2.95-0.43l0.891-0.62l-2.69-3.1l-0.68-0.051l-2.48,1.54l-2.04-0.489l-4.479-2.23l-4.23,0.8l-1.97-0.77l-1.29-1.25l-0.96-3.641
		l-7.78-2.479l-4.54-4.09l-2.399-0.25l-2.82,3.18l-2.5,0.5l-5.521-3.72l-1.779-1.88l0,0l-2.54-5.5l0.859-2.301l-0.47-0.909
		l-2.62-2.25l-8.59-1.48l-1.85-3.02l0.46-3.33l-1.73-3.46l-0.04-1.021l4.181-5.02l0.699-1.62l-2.359-8.09l-0.141-3.79l-2.489-5.99
		l-1.271-0.46l-5.2,0.37l-5.779-9.28l-2.25-2.04l0,0l-0.08-2.53l-0.82-1.65l-4.4-2.7l5.7-5.51l2.08,0.47l3.25,2.93l3.93,1.25
		l2.551-1.03l5.1-0.83l-1.15-2.55l-2.939-2.77l-7.96-1.52l-4.51-1.47l-0.71-4.34l3.01-4.51l-1.9-4.47l-2.13-2.44l1.34-3.33
		l-2.16-4.56l2.351-2.99l0.78-7.55l1.34-4.64l2.949-3.36l0.271-5.51l3.85-3.92l2.011-3.08l5.899-1.71l1.79-2.9l0.17-1.33l-0.71-2.72
		l-1.76-3.89l0.01-4.47l5.55-4.74l0.061-6.01l-1.17-4.26l3.899-7.13l2.471-3.16l0,0l2.29,3.71l1.069,0.91l2.17,0.58l6.641-2.11
		l9.609,0.26l3-0.16l3.15-1.33l3.54,0.22l3.8,3.3l12.59,6.82l5.05-0.12l1.101,0.76l0.84,1.09l0.85,2.88l-0.26,3.17l-4.91,8.04
		l-0.59,2.17l0.51,4.46l-0.729,2.09l2.25,2.33l0.189,1.76l-1.21,1.27l-2.51,1.08l-4.81,1.15l-0.8-0.03l-1.381-1.06l-1.609,0.12
		l-4.08,11.19l0.76,1.19l1.48,0.48l2.029,2.18l2.7,0.85l7.391,4.79l1.479,1.29l0.53,1.61l1.46,0.71l1.359,1.68l4.75,2.31l4.87-0.3
		l4,1.7l2.641,2.27l0.29,4.11l1.819,2.72l0.79,2.24l1.851,0.86l2.989-2.39l2.99,0.58l2.061-0.83l0.84,0.87l0.43,1.97l0.57,0.24
		l1.399-0.45l2.08-2.43l1.53,0.93l1.11,4.83l2.5,2.06l0.66-0.2l0.55-3.09l1.02-1.05l1.28,0.63l3.79,4.1l3.11,0.16l4.069-2.2
		l1.78-0.07l2.11,3.31l3.6,3.34l0.7,1.33l1.49,0.75l0.119,1.52l1.881,0.15l0.479-0.41l0.81-2.72l1.221,0.23l1.45,1.55l1.72-2.03
		l1.06-0.32l1.07,6.35l3.18,1.94l-0.41,4.4l-1.859,4.51l-2.62,2.93l-4.41,2.67l-5.14,4.63l-5.92,1.23l-5.261,1.92l-3.109,4.06
		l1.68,8.62l1.67,5.02l0.24,7.42l2.15,2.63l3.35-3.35l2.05,0.3l3.41,1.74l0.92,1.83l-0.51,1.34l0.28,1.7l4.06,6.199l-0.05,3.63
		l0.51,0.91l1.14,0.99l7.03,2.811l0.24,2.1l3.7,0.76l2.029,2.891l3.17,2.3l8.54,3.239l0.29,0.73l3.54,1.14l0.63,0.75l0.431-1.05
		l0.399,0.021l0.4,0.489l-0.29,1.86l1.14-0.38l1.11,1.16l0.43-1.12l0.641,0.34l0.39,0.74l-0.6,1.28l-1.141,0.3l-0.43,0.88l1.45,0.2
		l0.63,0.659l0.8-2.649l0.561,0.17l0.27,2.36l-0.42,0.64l1.29,0.27l-0.05,1.78l2.59-0.01l-0.08,2.99l1.26,1.569l-0.109,1.13
		l3.09,0.36l0.64,0.851l0.04,0.689l-1.7,1.21l-1.87,2.38l-0.109,3.19l-2.07,2.09l-2.51,3.97l1.27,3.49l-0.43,0.4v1.83l-0.771,0.409
		l-0.39,1.221l0.23,4.68L782.19,394.2z"/>
	<path id="GE-KK" fill="#1E3250" stroke="#1E3250" stroke-width="0.5" d="M576.11,290.32l3.26-2.88l0.37-3.89l3.54-5.28l4.71,1.61
		l3.88,0.16l2.11,0.92l2.67-1.33l0,0l2.25,2.04l5.779,9.28l5.2-0.37l1.271,0.46l2.489,5.99l0.141,3.79l2.359,8.09l-0.699,1.62
		l-4.181,5.02l0.04,1.021l1.73,3.46l-0.46,3.33l1.85,3.02l8.59,1.48l2.62,2.25l0.47,0.909l-0.859,2.301l2.54,5.5l0,0l-2.73-1.051
		l-2.12,1.2l-3.34,0.221l-0.78,0.88l-0.979,2.85l-2.63,1.61l-2,2.029l-4.05,1.11l-3.25,3.42l-4.891,7.04l-4.02,1.69l-2.67,1.979
		l-6.9,2.47l-3.66,3.24l-1.3,3.08l-2.36,0.061l-2.67-0.71l-2.01,0.31l-2.35-1.92l-1.971-0.23l-2.09-0.939l-1.5-2.83l-0.39-0.4
		l-0.83,0.271l-0.85,2.52l0.619,1.16l-0.909,0.8l-0.23,2.07l2.07,3.52l4.81,1.98l1.23,1.06l-0.16,0.681l-3.47,0.06l-3.971-1.67
		l-7.6,1.12l-2.39,1.31l-0.641-0.34l-0.109-1.319l-0.881-0.591l-2.979,0.4l-0.68-0.2l-1.601-2.029l-3.58,0.069l-2.06-0.51
		l-1.26,2.26l-0.771,4.351l-0.84,0.81l-0.83,0.3l-0.37-2.83l-5.05,2.011l-4.63-0.7l-3.891,1.609l-1.649,0.11l-1.42-0.53l-5.74-4.46
		l-4.75-2.729l-1.26,0.439l-0.51,2.681l-0.771,0.979l-3.09-1.189l-6-0.21l-0.85-2.87l-1.73-1.5l-1.84,1.55l-1.79-0.24l-1.44-1.32
		l-0.68,0.03l-0.67,1.03l1,2.88l-1.3,3.09l-1.38,1.08l-2.62,0.54l-9.28-0.11l-5.74,2.03l-3.33,3.15l0,0l-1.439-5.351l-0.16-4.979
		l-3.45-4.91l-0.8-2.26l0.09-2.681l2.34-4.71l-0.01-4.79l-1.83-4.93l-2.689-0.45l-0.471-0.54l-0.02-8.39l-0.63-2.71l0.3-1.95
		l-3.96-2.46l0.319-4.32l-5.989-3.01l-4.78,1.69l-3.49,0.649l-9.55-0.02l0.1-3.03l2.74-1.729l0.851-2.99l0.069-5.55l-0.62-2.681
		l1.21-4.279l0.07-5.791l0.78-2.17l1.27-0.71l2.641,0.01l8.529,2.32l5.67-5.33l1.851-2.56l0,0l5.42,0.12l3.01,1.19l9.92,0.09
		l8.061,1.28l2.109-0.14l3.761-1.77l2.409,0.08l2.86,1.27l4.62,0.65l11.7-5.28l4.64,4.65l9.37,0.16l1.36-0.29l1.31-1.83l-0.56-2.35
		l0,0l5.819,0.86l4.9,1.8l2.54,4.55l2.439,2.36l5.29,0.5l2.801-3.38l0,0l2.88,1.15l-0.9,2.9l0.34,0.64l5.2,0.07l3.61,0.7l5.319,4.14
		l4.801,0.25l6.1,2.97l6.2-0.689l3.71-2.021l1.14-2.149l1.25-5.23l-0.87-0.35l-2.21,0.24l-1.859,2.95l-1.91,1.181l-3.07-0.15
		l-4.649-2.63l-0.461-0.87l-0.09-3.01l-1.279-2.64l-3.061-2.56l0.45-1.06l2.26-1.54L576.11,290.32z"/>
	<path id="GE-MM" fill="#1E3250" stroke="#1E3250" stroke-width="0.5" d="M594.2,142.81l4.42,0.63l5.61-1.43l3.029,0.3l1.3,0.62
		l10.471,13.08l3.93,3.36l0.8,1.23l0.851,4.1l0,0l-2.471,3.16l-3.899,7.13l1.17,4.26l-0.061,6.01L613.8,190l-0.01,4.47l1.76,3.89
		l0.71,2.72l-0.17,1.33l-1.79,2.9l-5.899,1.71l-2.011,3.08l-3.85,3.92l-0.271,5.51l-2.949,3.36l-1.34,4.64l-0.78,7.55l-2.351,2.99
		l2.16,4.56l-1.34,3.33l2.13,2.44l1.9,4.47l-3.01,4.51l0.71,4.34l4.51,1.47l7.96,1.52l2.939,2.77l1.15,2.55l-5.1,0.83l-2.551,1.03
		l-3.93-1.25l-3.25-2.93l-2.08-0.47l-5.7,5.51l4.4,2.7l0.82,1.65l0.08,2.53l0,0l-2.67,1.33l-2.11-0.92l-3.88-0.16l-4.71-1.61
		l-3.54,5.28l-0.37,3.89l-3.26,2.88l0,0l-2.95-0.7l-3.76-2.84l-3.49-1.22l-2.34,4.86l-2.271,1.62l-1.34,0.53l-2.69-0.99l-1.479,0.65
		l-0.28,0.97l0.54,3.02l-3.53,1.64l-1.369,2.58l0,0l-2.801,3.38l-5.29-0.5l-2.439-2.36l-2.54-4.55l-4.9-1.8l-5.819-0.86l0,0
		l-0.92-3.66l3.13-2.34v-3.72l-0.63-3.09l0.76-2.86l4.38-0.28l2.95,0.45l1.37-2.65l0.01-2.99l-2.47-3.45l-3.7-3.83l-1.96-4.05
		l-0.181-7.04l-3.84-3.88l-4.359,0.01l-7.221-1.81l-1.8-0.02l-2.42,0.84l-1.91,3.27l-2.99,1.75l-0.21-5.12l-1.659-0.25l-2.131,0.49
		l-0.399-0.34l0.06-3.66l1.79-4.41l-0.63-5.66l1.22-3.52l-0.439-2.75l1.609-2.98l2.681-1.77l2.069-4.45l3.511-1.67l0.7-2.56
		l0.05-3.33l-3.15-5.74l0.04-4.59l1.72-1.67l0.061-2.23l-1.561-2.98l-3.229-1.79l-0.95-6.44l-2.1-1.03l-0.33-0.71l0.91-2.97
		l2.079-1.77l0.381-2.64l2.63-2.5l-1.71-3.52l-2.53-1.09l-1.55-2.14l-0.74-1.55l-0.28-2.74l-2.05-0.78l-3.39-0.2l-2.761-2.6
		l-1.579-3l-0.721-2.89l0,0l2.5-0.56l1.45-1.11l1.01-3.58l2.261-3.95l0.899-1.27l2.63-1.83l5.2-2.11l2.5-0.43l5.64,0.57l2.49-0.21
		l7.2-4.78l3.8-1.28l11.38,1.25l7.03-1.03l2.95,0.689l2.32,1.26l2.43,2.8l2.25,12.25l0.77,1.7l1.761,1.25l1.829,0.04l1.74-1.03
		l4-11.18l3.311-5.21l2.14-2.04l5.82-0.92l5.14,1.3l7.55,6.94L594.2,142.81z"/>
	<path id="GE-RL" fill="#1E3250" stroke="#1E3250" stroke-width="0.5" d="M394.91,112.19l5.42-1.02l7.35,0.81l2.851,1.24l2.01,1.66
		l6.53,1.08l5.069,3.79l1.41,3.28l3.34,3.55l1.24,0.41l1.771-0.49l2.189,0.64l3.96,3.71l8.07,3.71l1.51,2.36l0.01,2.71l-4.35,8.68
		l-2.91,1.98l-1.08,1.49l-0.2,2.38l4.58,6.37l5.051-0.89l1.689,2.21l0.91,0.3l2.689-1.43l2.141,1.74l2.01,0.13l1.84,0.77l0,0
		l1.23,4.14l-1.351,5.09l-7.93,4.56l-1.68,4.15l-5.83,1.86l-5.601,0.64l-7.43,0.01l-7.41,1.91l-1.25,0.93l-0.649,4.65l0,0
		l-4.41-0.87l-6.29-3.01l-7.44,1.84l-8.07-1.94l-12.88,0.55l-1.81,1.86l-4.23,2.13l-1.85,2.99l-3.6,2.78l-4.39,1.68l-2-0.27
		l-3.6,0.68l-2.24,1.49l-4.21-3.3l-2.53-1.28l-4.32-0.39l-0.74-1.87l-0.17-2.75l-1.22-2.77l-5.31-5.22l-2.3-1.5l-3.16-0.98
		l-1.67-2.01l-2.23-0.9l-0.91,0.13l-0.93,3.18l-0.48,0.36l-3.29,0.61l-2.64-1.79l-3.88-0.73l-2.43,3.08l-5.07,1.8l-2.46-0.07
		l0.09-4.35l-1.26-2.77l0.65-4.75l-1.56-2.27l0,0l-2.35-5.74l-6.76-10.32l0.05-6.04l3.21-2.47l-4.4-5.5l-5.81-3.25l-3.82-0.97
		l-1.73-1.02l-2.56-2.38l-4.3-2.51l-2.44-2.92l3.74-7.08l9.19-1.15l1.69-2.36l0.99-4.14l3.36-0.19l5.5,2.47l5.47,0.14l3.61,0.72
		l5.29,2.45l4.21,0.04l2.53,0.56l6.84-4.19l3.53,1.67l4.95,1.53l3.55,3.01l5.9-1.13l6.16-0.02l2.84-0.59l1.05,1.17l0.76,2.87
		l1.12,0.32l2.3-0.84l1.55-1.65l0.34-7.95l2.76-1l1.93-4.04l5.85-4.56l1.62,0.99l0,0l8.68,2.4l6.93,3.27l1.06,1.11l1.61,0.74
		L394.91,112.19z"/>
	<path id="GE-SJ" fill="#1E3250" stroke="#1E3250" stroke-width="0.5" d="M403.08,267.14l3.59-0.53l2.311,1.09l2.899,0.25
		l2.021,1.58l2.409,0.3l2.53,1.21l0.66,0.9l0.15,3.3l2.84,2.47l1.029,4.22l6.83,0.24l-0.01,2.13l0.891,2.71l2.649,0.23l1.41,0.64
		l3.57,2.98l3.72,0.01l2.52-1.18l4.66,0.02l5.13,1.41l2.471,1.41l0.01,3.39l0,0l-1.851,2.56l-5.67,5.33l-8.529-2.32l-2.641-0.01
		l-1.27,0.71l-0.78,2.17l-0.07,5.791l-1.21,4.279l0.62,2.681l-0.069,5.55l-0.851,2.99l-2.74,1.729l-0.1,3.03l9.55,0.02l3.49-0.649
		l4.78-1.69l5.989,3.01l-0.319,4.32l3.96,2.46l-0.3,1.95l0.63,2.71l0.02,8.39l0.471,0.54l2.689,0.45l1.83,4.93l0.01,4.79l-2.34,4.71
		l-0.09,2.681l0.8,2.26l3.45,4.91l0.16,4.979l1.439,5.351l0,0l-1.71-0.17l-2.27-1.21h-12.01l-7.971,4.42l-3.79,3.989l-4.55-1.609
		l-3.62-2.54l-4.59,2l-2.75-0.03l-4.58-3.43l-1.06-0.29l-2.86,0.08l-6.02,3.029h-2.28l-1.83-4.92l-2.16-2.869l-3.78-1.381l-3.6-2.13
		l-2.28,0.09l-9.56,3.07l-5.65,0.87l0.83-1.75l-0.21-0.86l-4.68-9.279l-1.9-0.4l-2.68,1.42l-3.47-1.33l6.02-3.28l3.09-3.069
		l-0.25-1.391l-1.68-0.76l-2.93-0.33l-0.57-0.79l-3.01-0.37l-3.31-5.739l-4.16-2.23l-2.25-0.149l-2.65-1.33l-1.79-2.98l-1.9-1.54
		l-1.11-3.09l-1.25-1.07V341.2l-0.46-0.82l-2.91-1.05l-1.61-2.26l-3.16-1.29l-0.29-2.88l-0.79-0.71l-2.3,0.14l-1.15,0.58l-0.57,2.37
		l-1.11,1.76l-0.58,0.03l-4.42-3.15l-0.28-1.65l-1.62-2.09l0.5-1.359l2.73-1.69l-0.29-3.42l2.4-2.05l-0.29-1.91l-0.82-0.79
		l-4.25-0.1l-1.15,1.62l-5.14-2.511l-3.74-0.6l-3.59,0.11l-6.66,2.039l-1.68-0.239l-2.12,2.1l0,0l-2.08-6.729l-2.6-2.681l-1.24-2.39
		l-3.19-2.01l-3.36-5.35l-0.68-3.76l2.42-3l0.09-4.23l-2.06-5.47l0,0l6.23-0.63l3.12,1.83l3.02-0.6l0.89-1.09l0.9-3.14l1.3-1.41
		l1.18-0.48l3.19,0.03l0,0l3.38,3.76l2.04,0.07l3.31,1.2l2.53-0.14l2.63-2.23l4.45-1.94l2.89,0.1l2.64,1.14l4.79,0.11l4.73,1.84
		l1.42-0.06l2.18-1.73l16.1-2.04l2.78,1.42l8.64-4.11l9.5-2.74l5.55-3.33l4.44-0.91l3.78-2.77L403.08,267.14z"/>
	<path id="GE-SK" fill="#1E3250" stroke="#1E3250" stroke-width="0.5" d="M492.97,154.85l0.721,2.89l1.579,3l2.761,2.6l3.39,0.2
		l2.05,0.78l0.28,2.74l0.74,1.55l1.55,2.14l2.53,1.09l1.71,3.52l-2.63,2.5l-0.381,2.64l-2.079,1.77l-0.91,2.97l0.33,0.71l2.1,1.03
		l0.95,6.44l3.229,1.79l1.561,2.98l-0.061,2.23l-1.72,1.67l-0.04,4.59l3.15,5.74l-0.05,3.33l-0.7,2.56l-3.511,1.67l-2.069,4.45
		l-2.681,1.77l-1.609,2.98l0.439,2.75l-1.22,3.52l0.63,5.66l-1.79,4.41l-0.06,3.66l0.399,0.34l2.131-0.49l1.659,0.25l0.21,5.12
		l2.99-1.75l1.91-3.27l2.42-0.84l1.8,0.02l7.221,1.81l4.359-0.01l3.84,3.88l0.181,7.04l1.96,4.05l3.7,3.83l2.47,3.45l-0.01,2.99
		l-1.37,2.65l-2.95-0.45l-4.38,0.28l-0.76,2.86l0.63,3.09v3.72l-3.13,2.34l0.92,3.66l0,0l0.56,2.35l-1.31,1.83l-1.36,0.29
		l-9.37-0.16l-4.64-4.65l-11.7,5.28l-4.62-0.65l-2.86-1.27l-2.409-0.08l-3.761,1.77l-2.109,0.14l-8.061-1.28l-9.92-0.09l-3.01-1.19
		l-5.42-0.12l0,0l-0.01-3.39l-2.471-1.41l-5.13-1.41l-4.66-0.02l-2.52,1.18l-3.72-0.01l-3.57-2.98l-1.41-0.64l-2.649-0.23
		l-0.891-2.71l0.01-2.13l-6.83-0.24l-1.029-4.22l-2.84-2.47l-0.15-3.3l-0.66-0.9l-2.53-1.21l-2.409-0.3l-2.021-1.58l-2.899-0.25
		l-2.311-1.09l-3.59,0.53l0,0l-0.65-3.36l0.761-2.19l6.779-5.81l0.08-9.51l0.62-2.71l5.89-3.29l2.79-4.06l2.181-6.86l3-1.74
		l0.68-3.31l0.021-3.36L424,216.7l1.41-3.65l2.95-1.76l3.1-3.57l4.31-0.26l2.801-1.63l3.93-0.89l-0.79-3.27l2.47-6.57l-1.6-3.14
		l-1.41-0.62l-2.46,0.05l-3.41,2.29L432.19,195l-7.53-1.4l-2.55-2.3l0,0l0.649-4.65l1.25-0.93l7.41-1.91l7.43-0.01l5.601-0.64
		l5.83-1.86l1.68-4.15l7.93-4.56l1.351-5.09l-1.23-4.14l0,0l5.58,1.85l1.8-0.53l5.33-5.41l2.181-1.51l2.989,0.37l6.29-1.96
		l2.511,0.73l1.689-0.16L492.97,154.85z"/>
	<path id="GE-SZ" fill="#1E3250" stroke="#1E3250" stroke-width="0.5" d="M191.45,220.92l0.95,0.57l0.52-0.22l0.56,1.19l-1.28,1.9
		l-0.39-0.13L191.45,220.92z M288.26,57.86l-0.45,1.19l0.56,1.1l7.32,2.21l9.55,5.61l3.29,1.06l1.26,1.1l5.58,2.23l0.36-1.77
		l-1.45-3.21l0.74-0.96l2.58,0.33l7.49-2.16l1.74-0.04l1.33,0.26l2.18,1.58l3.65-0.48l2.62,0.92l3.51,0.22l0.77,2.92l3.73,2.21
		l-0.67,3.69l7.12,0.89l6.26,3.1l0.11,0.59l-1.81,3.21l0.29,2.76l1.1,1.84l2.83,3.02l6.28,4.32l6.46,5.87l2.41,3.12l0,0l-1.63-0.99
		l-5.85,4.55l-1.92,4.04l-2.77,1.01l-0.34,7.94l-1.55,1.65l-2.3,0.84l-1.12-0.32l-0.77-2.86l-1.05-1.17l-2.84,0.59l-6.15,0.01
		l-5.9,1.13l-3.55-3.01l-4.96-1.53l-3.53-1.67l-6.83,4.19l-2.53-0.55l-4.21-0.05l-5.29-2.45l-3.61-0.72l-5.48-0.14l-5.49-2.47
		l-3.37,0.19l-0.99,4.14l-1.69,2.37l-9.19,1.15l-3.74,7.08l2.44,2.92l4.3,2.51l2.57,2.39l1.73,1.02l3.81,0.97l5.81,3.25l4.4,5.51
		l-3.22,2.46l-0.04,6.04l6.76,10.32l2.35,5.75l0,0l-3.14-0.1l-2.31,1.17l-5.56,0.1l-1.81,2.82l-2.49,1.95l-0.32,4.41l-3.01,2.27
		l-0.22,8.5l-3.36,4.05l-5.03,4.36l-2.92,5.76l-5.19,8.22l0.13,3.34l-3.54,1.24l0.5,2.63l0.01,11.22l-0.79,4.46l-2.6,1.84
		l-3.83-0.36l0,0l-0.65-1.37l0,0l-2.05-0.82l0,0l-10.13-1.28l-4.62-4.15l-6.19-1.54l-1.45-0.79l-3.85,0.86l-5.67-0.01l-2.51,1.06
		l-6.3,1.33l0,0h-8.62l0,0l-3.89,1.13l0,0l-1.84-1.33l-3.38,0.18l-1.12-0.44l-1.05,0.35l1.02,1.5l0.36,3.08l0.75,1.58l-0.16,0.84
		l-0.88,0.57l-4.89-6.25l-0.39-2.16l-1.05-0.66l0.95-1.63l-1.67-3.22l1.38-2.69l1.05-0.22l-3.67-2.25l1.15-2.38l0.16-2.52
		l-2.16-9.62l-3.8-11.09l-3.84-2.48l0.49-2.12l1.97-0.22l0.29-0.49l-2.43,0.62l-0.46,1.95l-0.82-2.44l0,0l8.43-4.23l5.4-6.44
		l5.05-1.47l7.51-3.66l6.71-4.6l5.03-5.59l4.13-6.03l2-0.67l1.72-1.25l1.28-4.5l0.01-3.83l-1.49-2.42l-2.36-2.43l-1.05-2.58
		l-0.13-8.08l-0.65-4.58l-0.57-2.25l-1.61-1.92l1.93-2.78l2.67-1.2l1.41-3.05l-1.04-1.41l-0.4-2.83l-1.68-1.86l0.48-6.72l-2.96-0.58
		l-1.22-3.95l0.56-0.75l2.46-1.14l5.17-0.98l3.29-1.58l6.56-0.82l2.8-0.979l1.64-4.36l4.5-4.02l3.11-6.89l0.74-2.84l-1.21-3.23
		l0.01-4.02l3.02-7.71l0,0l3.83,0.13l3.01-1.91l0.96-0.01l2.33,0.65l2.72,2.56l2.88,0.27l3.49-2.91l3.33,0.09l1.5-2.41l4.14-0.55
		l3.8-1.58l1.92,0.25l2.63,1.98l0.19,0.78L288.26,57.86z"/>
	<path id="GE-TB" fill="#1E3250" stroke="#1E3250" stroke-width="0.5" d="M551.15,300.44l1.369-2.58l3.53-1.64l-0.54-3.02l0.28-0.97
		l1.479-0.65l2.69,0.99l1.34-0.53l2.271-1.62l2.34-4.86l3.49,1.22l3.76,2.84l2.95,0.7l0,0l-2.061,2.41l-2.26,1.54l-0.45,1.06
		l3.061,2.56l1.279,2.64l0.09,3.01l0.461,0.87l4.649,2.63l3.07,0.15l1.91-1.181l1.859-2.95l2.21-0.24l0.87,0.35l-1.25,5.23
		l-1.14,2.149l-3.71,2.021l-6.2,0.689l-6.1-2.97l-4.801-0.25l-5.319-4.14l-3.61-0.7l-5.2-0.07l-0.34-0.64l0.9-2.9L551.15,300.44z"/>
</g>
</svg>
