<?xml version="1.0" encoding="utf-8"?>
<!-- Generator: Adobe Illustrator 15.0.0, SVG Export Plug-In . SVG Version: 6.00 Build 0)  -->
<!DOCTYPE svg PUBLIC "-//W3C//DTD SVG 1.1//EN" "http://www.w3.org/Graphics/SVG/1.1/DTD/svg11.dtd">
<svg version="1.1" id="Layer_1" xmlns:amcharts="http://amcharts.com/ammap"
	 xmlns="http://www.w3.org/2000/svg" xmlns:xlink="http://www.w3.org/1999/xlink" x="0px" y="0px" width="628.331px"
	 height="821.363px" viewBox="0 0 628.331 821.363" enable-background="new 0 0 628.331 821.363" xml:space="preserve">
<defs>
	
	
		<amcharts:ammap  projection="mercator" leftLongitude="5.864765" topLatitude="55.051693" bottomLatitude="47.269299" rightLongitude="15.043380">
		</amcharts:ammap>
</defs>
<g>
	<path id="DE-BW" fill="#1E3250" stroke="#1E3250" stroke-width="0.5" d="M180.99,750.43l0.58,2.09l-3.47,0.131L180.99,750.43z
		 M206.4,570.93l8.66-0.33l4.12-7.25l6.54,0.95l0.83-6.5l-2.07-1.899l-1.84,2.619l0.97-2.42l-4.96-0.949l1.24-2.931l11.93-2.03
		l3.81,4.36l0.36-3.78l5.229-0.859l-1.54,8.569l1.8,1.69l3.63-3.95l1.67,3.87l3.98-4.229l4.61,11.829l-3.88,5.45l3.04,0.98
		l3.58-3.601l0.77,9.54l5.81-0.09l2.95-6.01l3.68,3.64l-1.77,6.051l4.31,5.069l-3.48,1.641l3.18,9.659l-2.99,2.101l0.91,5.72
		l7.87,4.93l-2.46,4.641l2.62,0.899l-0.01,5l6.23,1.2l6.94,10.771l-2.17,1.09l1.94,4.53l-2.36,10.789l4.98,5.721l-5.35,2.5
		l1.74-3.05l-1.91-0.44l-3.02,4.26l-5.88-4.76l-0.89,3.63l4.3,5.42l-0.75,8.22l-4.84,1.101l-4.09,5.13l-4.1-1.88l-4.39,1.77
		l-4.24,7.74l6.02,9.22l4.53,16.17l-3.72,23.301l3.8,5.369l-4.73,2.12l3.47,2.57l0.82,7.82l-3.45,3.6l-3.16-4.43l-3.99,3.28
		l-7.15-2.49l-6.35,6.24l-7.29,0.869l-2.47,5.16l0,0l-32.49-12.439l-12.39,2.97l-5.46-8.47l-2.45,1.83l1.4,4.159l-4.17-1.79
		l-0.25-6.729l-1.86,0.82l-2.53-4.15l-1.61,3.9l-0.73-3.78l-3.23-0.87l0.58,2.521l-5.88,1.109l-4.98,9.09l4.45,3.28l8.21-3.17
		l1.48,2.35l-3.33,4.98l-3.59-3.601l-4,2.98l1.93,2.27l-6.63,1.061l-11.33-5.16l-7.36,5.95l-9.36,1.3l-3.24-4.09l-4.44-0.061
		l-8.25,5.23l-3.72-2.72l3.29-0.431l0.41-3.27l-6.5,1.03l-5.01-10.15l2.32-3.43l0.55-13.761l4.19-8.819l-3.37-5.92l0.47-8.22
		l7.41-17.301l3.29-2.43l-0.78-6.43l6.8-23.67l8.46-11.19l7.49-4.36l9.11-15.81l0,0l8.06-13.06l2.02-13.011l6.23-5.87l-2.43-2.899
		l3.64-10.75l-4.12-1.49l-1.29-13.08l0,0l3.37,0.03l5.46,6.77l3.5-2.609l-1.32-6.75l6.19-1.33l0.61,8.58l7.72,1.09l0.59,3.21
		l4.26-1.08l-1.4,3.51l-3.26-0.13l-1.54,5.66l3.08,1.47l6.37-5.89l0.1-4.73l11.14-1.27l-3.41-4.71L206.4,570.93z"/>
	<path id="DE-BY" fill="#1E3250" stroke="#1E3250" stroke-width="0.5" d="M266.23,478l4.25-4.74l2.19,2.101l3.89-1.141l1.81,4.311
		l6.26,1.71l4.13,9.979l3.64-0.779l2.5,4.63l3.37-0.87l3.52,3.02l0.5,10.28l6.97,2.54l0.94-4.64l7.33,0.689l-0.07-3.07l-8.25-4.52
		l-0.16-2.5l7.57-4.63l6.6,0.01l3.12,4.44l8.31-1.88l2.71,3.6l-0.75,4.46l6.71,1.7l2.11-9.141l-2.34-11.84l2.75,0.32l3.51-4.51
		l5.42,0.95l-0.67,6.689l1.44,2.45l2.55-1.03l2.5,5.53l16.4-4.45l2.9,3l6.28-3.38l0,0l3.8,3.49l-0.37,3.76l7.87,3.25l0,0l2.5,4.21
		l-3.09,2.61l7.91,8.04l-1.03,5.88l4.811,3.26l-0.891,1.79l14.601,7.63l-0.771,4.46l4.431,1.51L421.17,550.4l-4.4,4.33l7.521,5.51
		l0.4,6.7l2.069-0.15l1.87,8l3.46,1.41l0.84,8.72l6.38,3.88l1.46,4.67l10.431,0.29l5.41,3.9l9.56,16.27l7.05,1.801l6.641,6.3
		l0.63,6.489l5.859,4.4l2.33-3.17l6.21,2.41l2.69,6.67l4.229-0.57l6.49,11.07l-2.89,5.43l2.729,1.62l-0.909,8.101l-5.83,9.56
		l-14.19-7.22l-4.46,3.029v12.24l-6.67,10.021l-19.95,6.51l-16.76,12.54l0.27,5.1l7.15,10.44l4.06,1.87l4.17,8.89l-6.09,11.9h6.95
		l4.05,3.449l-2.17,18.381l-2.779,2.649l-13.12-8.67l-1.03-2.42l2.8-2.92l-4.17-3.65l1.51-2.1l-11.35,0.07l-1.851,3.779l-5,0.73
		l-3.739-6.59l-11.771,1.51l-0.21-6.021l-5.66,4.03l2.53,8.84l-12.33-1.8l-10.45,4.07l-13.25-1.19l-4.09,7.471l-8.91,0.159
		l-3.14,3.851l2.39,2.609l-5.37-0.43l-4.41,4.9l-2.84,0.189l1.85-3.09l-3.03-0.54l-5.74,3.51l-8.86-0.17l-2.64-7.739l-4.22-0.141
		l3.08-2.899l-1.9-2.25l-6.96,2.149l-11.39-5.13l-1.67,3.29l-3.1-0.12l-4.33-1.93l1.62-2.79l-2.72,0.08l2.39,14.2l-2.53,4.84
		l-6.74,7.14l-9.84,3.33l3.89-10.54l-3.45-1l-5.4,3.54l-0.33-9.22l-5.93-2.78l-1.93-5.95l-6.19,1.69l-3.75-1.87l-0.9-4.44
		l-4.14,5.811l-8.67-1.351l0,0l2.47-5.17l7.29-0.859l6.35-6.25l7.15,2.489l3.99-3.279l3.16,4.43l3.45-3.6l-0.82-7.82l-3.47-2.57
		l4.73-2.12l-3.8-5.37l3.72-23.3l-4.52-16.17l-6.02-9.229l4.24-7.74l4.39-1.771l4.1,1.881l4.09-5.131l4.84-1.1l0.75-8.22l-4.3-5.431
		l0.88-3.63l5.88,4.761l3.02-4.271l1.91,0.45l-1.74,3.05l5.35-2.5l-4.98-5.729l2.36-10.79l-1.95-4.53l2.18-1.09l-6.95-10.771
		l-6.23-1.2l0.01-5l-2.62-0.899l2.46-4.641l-7.88-4.93l-0.91-5.72l2.99-2.11l-3.18-9.649l3.48-1.641l-4.31-5.08l1.77-6.04
		l-3.69-3.64l-2.95,6.01l-5.8,0.08l-0.78-9.53l-3.57,3.591l-3.04-0.98l3.88-5.45l-4.61-11.819l-3.98,4.22l-1.67-3.87l-3.62,3.95
		l-1.8-1.69l1.54-8.569L236,550.76l-0.37,3.78l-3.8-4.36l-11.93,2.03l-1.24,2.93l4.96,0.95l-0.97,2.42l1.84-2.609l2.06,1.89
		l-0.83,6.51l-6.54-0.96l-4.13,7.25l-8.65,0.34l0,0l-2.3-4.13l5.15-11.93l-2.58-1.76l1.73-2.301l-2.82-0.899l-0.28-5.44l-3.17,0.25
		l-1.15-13.21l1.99-1.54l-1.31-4.63l-3.33-0.76l1.35-4.32l7.75-3.439l2.06,3.449l4.43-5.689l9.48,1.75l4.06,4.65l4.99-1.011
		l-0.77-14.569l10.46,0.81l-0.65-3.75l5.89-3.85l0.98-11.511l8.92,2.131l7.45-6.29L266.23,478z"/>
	<path id="DE-BE" fill="#1E3250" stroke="#1E3250" stroke-width="0.5" d="M485.13,257.7l0.07,0.04l0,0l2.92,2.46l-0.93,5.5
		l9.39,6.55l-2.93,6.07l9.42,2.98l-7.051,10.9l-0.25-3.99l-10.46-1.97l-0.85-2.5l-2.96,1.03l-0.02,3.55l-7.801-4.23l-10.81,2.69
		l-2.33-2.25l4.92-10.18l-3.18-0.79l0.739-7.26l5.601-0.14l0.26-4.21l2.74,0.06l1.229-3.52l4.881,3.9l7.069-2.89l-0.729-1.92l0,0
		l0.91-0.53l0,0l0.38,0.11l0,0L485.13,257.7z"/>
	<path id="DE-BB" fill="#1E3250" stroke="#1E3250" stroke-width="0.5" d="M344.3,209.85l8.02,1.19l1.8-3.16l7.08,1.66l1.2-8.96
		l7.4-3.75l4.06,2.84l5.54-0.75l-1.38-3.02l4.06,0.48l10.37-5.54l1.53-7.65l7.88,3.47l3.88-2.05l1.779,3.73l8.551,2.52l3.33,5.44
		l13.8-0.45l1.43,2.9l4.58,0.3l0.85,3.82l12.471-1.39l-1.351,2.75l3.96,0.87l9.22-8.82l5.16,3.63l4.42-6.82l6.74,3.41l1.96-5.34
		l3.03,0.62l2.39-2.91l1.82-8.42l4.82-1.24l5.59-7.61l6.29-0.43l-2.43-3.12l1.17-4.79l5.369,5.8l2.49,8.85l20.641-0.67l-0.891,7.39
		L524.76,195l10.431,0.28l3.569-5.47l6.01-2.08l0,0l2.24,7.22l-4.5,6.74l-0.819,12.83l-13.971,12.39l1.04,8.08l-2.41,4.88l14.57,9.2
		l18.26,18.7L557,271.8l1.88,4.48l-6.319,9.97l3.71,12.6l7.729,3.9l-2.04,12.46l4.91,5.25l-4.07,16.95l-6.63,7.67l10.62,17.16
		l-1.729,7.979l0,0l-2.12-1.609l-1.12,4.56l-4.09,0.3l-3.03-3.09l-11.42,3.931l-3.511,3.93l-12.47-4.08l-3.16,6.77l-3.47,0.11
		l1.82,3.13l-4.07,7.311l-2.52-2.381l-11.84,3.46l-14.671-0.699l-9.17-8.53l-1.34,2.87l-3.49-1.17l-3.59,5.3l-3.34-1.15l-2.51-3.239
		l2.05-9.801l-4.06-4.59l1.12-2.54l-6.891-5.399l0,0l8.48-7.221l-2.99-16.739l-6.2,0.89l0.25-2.97l-4.62,0.05l-0.97-3.69h-6.75
		l-0.47-3.38l-4.141,0.53l-6.92-5.08l-3.75,3.09l-4.62-0.359l-3.859-4.921l-2.841,1.761l-13.81-15.78l5.04-6.12l-3.3-2.48l3.939-9.8
		l-2.159-7.13l3.659-6.58l-5.64-4.62l-3.65,2.66l0.29-3.85l-2.939,0.24l1.64-9.97l3.811-0.42l-1.96-9.34l3.75-9.1l-1.54-5.94
		l-2.511-1.75l-4.399,2.67l-0.12-4.27l-9.2,1.93l-9.36-3.58l0.63-4.53l-6.5-3.88l-3.03,1.23l-1.1-3.25l-3.23-0.37l0.88-2.82
		l-2.52,0.24l0,0l-9.3-4.54l-7.29,2.44L344.3,209.85z M484.8,259.5l-7.069,2.89l-4.881-3.9l-1.229,3.52l-2.74-0.06l-0.25,4.21
		l-5.6,0.15l-0.75,7.26l3.18,0.78l-4.92,10.19l2.33,2.25l10.8-2.69l7.8,4.23l0.021-3.55l2.96-1.03l0.85,2.5l10.45,1.97l0.25,3.99
		l7.05-10.9l-9.42-2.97l2.93-6.08l-9.39-6.55l0.93-5.5l-2.92-2.46l0,0l0.17-0.58l0,0l-0.38-0.1l0,0l-0.91,0.52L484.8,259.5z"/>
	<path id="DE-HB" fill="#1E3250" stroke="#1E3250" stroke-width="0.5" d="M167.33,198.78l0.72-0.1l0,0l6.18,1.69l-1.23,2.18
		l2.79,2.05l13.14,0.83l2.17,3.48l5.17-2.19l2.46,2.73l-2.24,1.09l2.65,2.01l-0.55,5.41l-2.93,3.42l-4.4-2.78l-2.81,2.1l-3.19-3.5
		l-3.43,1.47l-6.32-13.54l-6.92-3.24l0,0l0,0l0,0l-1.31-3.24l0,0L167.33,198.78z M169.27,158.35l8.9-0.44l-2.71,3.76l0.96,8.47
		l-3.74,1l-1.17-3.99l0,0l1.42-1.84L169.27,158.35z"/>
	<path id="DE-HH" fill="#1E3250" stroke="#1E3250" stroke-width="0.5" d="M246.33,163.56l2.61-8.03l4.15,4.85l4.48-7.05l4.61,0.65
		l1.28-3.73l4.24,0.34l1-4.55l5.61-1.96l1.53,1.58l-3.13,4.92l4.96,4.72l-1.46,5.15l-3.06,1.35l0.71,5.43l3.14,0.19l7.34,7.69
		l-1.13,1.65l0,0l-4.43,3.98h-4.1l-7.81-7.18l-4.28,5.05l-4.43,0.25l-0.76-4.51l-2.67,2.8l-3.48-3.55l-2.09-9.68L246.33,163.56z"/>
	<path id="DE-HE" fill="#1E3250" stroke="#1E3250" stroke-width="0.5" d="M228.57,363.63l11.14,1.08l4.06,6.03l-3.83-0.73l1.07,3.33
		l-2.62-0.979l-1.26,4.529l3.64,4.73l0.08,5.32l-4.2,1.729l-0.61,3.99l-2.36-0.51l1.91,2.26l11,5.05l2.46-4.22l-2.13,1.75
		l-2.36-4.51l6.16-2.2l-0.19-2.29l4.43,3.72l-0.92-4.38l3.25-0.311l1.67,4.301l0,0l2.82,9.229l5.3,0.601l0.84,5.279l10.73,4.15
		l-2.43,7.39l-2.1-4.069l-2.95,1.399l3.51,2.32l-2.13,5.74l4.11,2.46l-0.06,2.77l-10.53-0.53l-1.26,3.19l2.79,3.71l-7.2,0.25
		l2.39,1.06l-1.03,2.391l2.57-1.391l3.09,3.961l-2.12,4.84l-4.75,1.35l-4.87,18.15l5.32,1.09l-0.4-3.79l6.4-0.38l1.82,4.859
		l-2.89,1.19l0.3,9.46l0,0l-1.5,4.94l-7.45,6.29l-8.92-2.131l-0.98,11.511l-5.89,3.85l0.65,3.75l-10.46-0.81l0.77,14.569
		l-4.99,1.011l-4.06-4.65l-9.48-1.75l-4.43,5.689l-2.06-3.449l-7.75,3.439l-1.35,4.32l3.33,0.76l1.31,4.63l-1.99,1.54l1.15,13.21
		l3.17-0.25l0.28,5.44l2.82,0.899l-1.73,2.301l2.58,1.76l-5.15,11.93l2.3,4.13l0,0l-1.96,1.23l3.41,4.71l-11.13,1.28l-0.1,4.72
		l-6.37,5.89l-3.08-1.47l1.54-5.66l3.26,0.13l1.4-3.52l-4.26,1.08l-0.59-3.21l-7.72-1.091l-0.61-8.569l-6.19,1.33l1.32,6.75
		l-3.5,2.609l-5.46-6.77l-3.37-0.03l0,0l-4.03-10.64l7.65-6.891l-3.54-0.63l-2.79-5.35l-3.66-15.14l-8.81-5.801l-19.02,6.261
		l-7.13-8.48l4.11-2.6l0.88-4.28l4.97,2.41l0.16-4.11l-3.07-2.41l1.65-3.47l4.97-3.42l2.85,2.17l0.24-5.47l4.47,1.05l0.81-3.84
		l-3.78-7.48l-6.13-3.66l2.98-4.239l-0.99-7.16l3.08-3.271l3.8,2.4l2.06-1.74l-0.71-13.47l0,0l2.73-4.88l-2.14-5.561l8.47-9.18
		l5.87,1.98l6.45-5.83l-0.11-4.74l5.03-5.41l-2.22-6.13l13.89-3.021l-1.54-2.779l4.54-7.261l-2.9-6.579l-8.05,2.699l-2.45-3.069
		l4.01-5.971l4.72-4.13l15.56-1.29l0.58-3.899l-3.57-5.54l8.12-3.7l4.64,2.32l0.28,5.159l7.68-1.479l9.92-13.47l-2.21-2.4
		L228.57,363.63z"/>
	<path id="DE-MV" fill="#1E3250" stroke="#1E3250" stroke-width="0.5" d="M506.34,97.76l4.16,7.29l9.15,5.19l13.359,13.4l-2.67,1.61
		l1.771,4.97l-11.17-0.75l-6.21,3.271l-0.74-3.29l-1.09,3.36l-5.44-0.79l7.1-6.32l-1.859-8.65l3.52,0.01l-0.37,5.89l1.591-2.95
		l3.649,2.11l0.45-4.57l-4.91-8.62l-3.859,0.08l1.029,5.1l-0.279-2.04l-3.95,3.73l-0.23-5.16l-5.59,3.1l2.7-9.62l-4.04-5.48
		L506.34,97.76z M435.9,69.27l1.609,1.44l-3.42-0.11L435.9,69.27z M424.89,63.46l2.051,3.08l22.51,0.9l0.62,1.97l-7.87,2.04
		l-10.53-1.85l-6.479,6.64l10.89-5.09l-1.95,4.42l1.53-3.05l2.24,3.08l3.26-2.78l1.609,5.67l7.15-7.56l6.79-2.47l-0.25,4.24
		l4.26,3.17l0.761,9.39l4.76,1.33L464,88.41l2.73-1.42l6.5,3.42l2.329,5.54l2.841,0.23l-3.42,2.36l6.369-1.55l-2.239,3.23l1.8-1.25
		l3.689,7.51l2.08,0.08l-0.64-4.17l14.05-4.86l-0.8,2.15l6.6,5.51l-3.72,7.61l10.86,11.49l-5.721,4.9l-0.46,3.65l18.19,11.06
		l10.479-0.91l-3.31,4.93l4.15,1.7l8.409,38.14l0,0l-6.01,2.08l-3.57,5.47L524.76,195l8.17-10.36l0.891-7.39l-20.641,0.67
		l-2.489-8.85l-5.37-5.8l-1.17,4.79l2.43,3.12l-6.29,0.43l-5.59,7.61l-4.82,1.24l-1.82,8.42l-2.39,2.91l-3.03-0.62l-1.96,5.34
		l-6.74-3.41l-4.42,6.82l-5.159-3.63l-9.221,8.82l-3.96-0.87l1.351-2.75l-12.471,1.39l-0.85-3.82l-4.58-0.3l-1.43-2.9l-13.8,0.45
		l-3.33-5.44l-8.551-2.52l-1.779-3.73l-3.88,2.05l-7.88-3.47l-1.53,7.65l-10.37,5.54l-4.06-0.48l1.38,3.02l-5.54,0.75l-4.06-2.84
		l-7.4,3.75l-1.2,8.96l-7.08-1.66l-1.8,3.16l-8.02-1.19l0,0l-5.31-1.53l0.82-4.63l-6.83-3.55l-6.5-12.73l-4.42-1.59l-5.27,4.67
		l-8.65-7.03l-6.65,0.68l0,0l2.42-9.56l12.25-6.35l-0.17-6.55l5.62,0.36l2.65-8.29l-1.86-5.47l-4.63-0.29l-5.85-5.36l0.85-13.02
		l6.93-5.62l1.96,2.87l3.45-1.03l-4.59-1.62l0.66-3.64l0,0l8.62-5.35l8.99-0.97l5.08,3.39l-0.13,5.23l4.98-2.57l7.9,6.75l1.52-7.62
		l-2.42,0.9l-0.06-4.29L354.8,120l-2.75-0.41l-0.14-3.94l6.66-2.2l-0.02,5.96l1.88-6.97l3.46-0.25l3.28-6.13l-1.35-1.37l-4.67,5.94
		l-0.27-2.75l9.71-8.54l10.65,0.8l17.71-4.2l3.87-5.85l9.569-6.35L424.89,63.46z M464.13,50.28l-5.16,15.79l2.21-14.48L464.13,50.28
		z M482.31,41.36l-3.579,5.45l2.77,6.09l13.64-0.74l2.811,2.3l-6.61,12.74l2.471,4.76l3.76,0.38l5.99,6.49l-3.541,7.89l-0.539-3
		l-3.58-0.14l3.71-3.18l-5.99,1.1l4.77-3.81l-4.409,2.36L492,77.51l-5.2,1.21l-9.55,7.89l0.34,2.53l0.46-1.89l3.38,1.09l-1.64,3.56
		l-6.46-3.18l1.979,0.57l0.78-3.61l-4.17,2.7l-4.35-1.79l-0.391-2.88l-3.42,1.6l2.851-2l-4.49-3.49l0.83-4.21l8.47-1.45l-3.12-4.98
		l-3.91,0.79l1.8-3.63l-3.64,0.9l3.07-4.87l3.67,0.83l-1.8,4.08l4.56-3.561l-2.7-0.61l0.181-2.75l-3.88,0.31L464,56.46l6.37-0.96
		l3.81,4.46l-0.449-4.24l3.659-2.99l-1.02,3.48l2.34-1.22l2.35,7.22l2.45,2.46l3.33-1.08l0.54-9.21l-4.2,1.51l-4.83-6.9l-8.04,6.07
		l2.62-9.48l-7.859,9.54l5.41-10.88L482.31,41.36z"/>
	<path id="DE-NI" fill="#1E3250" stroke="#1E3250" stroke-width="0.5" d="M60.4,159.06l-6.04,1.6l1.74,3.04l-5.74-3.15l6.06-3.78
		L60.4,159.06z M97.87,144.43l2.35,1.9l-4.99-0.89L97.87,144.43z M109.16,141.9l3.35,1.47l-10.55,2.34l0.91-3.27L109.16,141.9z
		 M118.39,139.44l6,1.1l-9.43,1.86L118.39,139.44z M129.41,138.01l4.77,2.17l-7.91-1.23L129.41,138.01z M179.97,127.51l5.23,5.99
		l7.84,1.37l8.04-1.86l-1.01-3.55l0,0l13.06-0.56l6.67,2.83l12.21,17.13l2.84,8.25l11.48,6.46l0,0l2.83,0.35l2.08,9.69l3.479,3.54
		l2.68-2.8l0.75,4.5l4.44-0.25l4.28-5.05l7.81,7.18h4.1l4.43-3.98l0,0l18.28,7.39l0,0l6.65-0.68l8.65,7.03l5.27-4.67l4.42,1.59
		l6.5,12.73l6.83,3.55l-0.82,4.63l5.31,1.53l0,0l4.55,7.01l7.29-2.44l9.3,4.54l0,0l-2.7,3.89l-2.98-0.7l-0.45,6.88l-12.05,6.6
		l-19.61-3.49l-4.16,6.16l-11.02,1.12l1.98,13.53l1.93-0.26l5.79,11.2l3.61-1.46l-2.47,5.88l4.52,7.55l-4.03,0.18l-0.71,3.44
		l8.97,8.94l-5.84,3.47l6.5,11.69l-4.59,3.15l2.97,2.63l-0.96,4.01l-6.47,3.21l1.43,4.79l-16.92,0.71l-8.8,4.689l5.67,4.841
		l-2.42,1.989l2.34,4.9l-4.6,4.32l-0.2,3.87l8.03,17.399l0,0l-3.96,2.24l1.14,6.25l-3.23-2.15l-5.53,2.62l-5.49-3.91l-4.01,0.48
		l-4.54,9.57l-4.16,2.369l-2-1.579l-3.07,5.569l-5.45,1.37l-1.4-1.95l-7.55,6.33l0,0l-1.67-4.3l-3.25,0.31l0.92,4.381l-4.44-3.721
		l0.19,2.28l-6.15,2.2l2.35,4.52l2.14-1.75l-2.47,4.21l-11-5.05l-1.91-2.26l2.36,0.51l0.61-3.99l4.2-1.72l-0.08-5.32l-3.63-4.729
		l1.26-4.53l2.61,0.98l-1.06-3.33l3.82,0.729l-4.05-6.029l-11.14-1.08l0,0l-4.86-0.351l0.01-9.56l4.54-5.24l0.89-6.85l-8.64,0.729
		l1.04-5.529l-4.3-2.48l0.06-4.22l-4.21,1.27l-2.11-2.07l1.21-9.22l-3.83-2.609l1.27-3.61l-9.09-0.57l-1.66-6.2l3.7,1.131l-0.5-4.2
		l2.61-0.77l-7.08-5.01l10.03-12.94l-1.83-4.11l2.7-3.43l-2.38-2.18l-3-0.29l-7.38,10.27l-5.19,1.29l-9.479-0.64l-0.33-11.32
		l-3.23-2.83l-6.02,3.41l-3.47-1.36l-5.41,7.04l-7.26-1.47l0.85,5.74l8.13,4.31l-0.09,15.3l4.74,3.12l-7.04,7.64l-7.68-2.54
		l-5.97,6.44l-10.21,0.399l-3.27,3.45l-6.11-4.989l7.84-3.25l1.17-4.9l-7.94-4.33l3.57-6.49l-1.59-3.61l3.82-0.74l-3.51-5.79
		l-14.26-3.71l-1.57-5.4l-5.14-2.29l-2.74,4.46l2.44,1.08l-1.28,4.74l-18.29,11.56l-14.88,2.32l0,0l-2.39-5.02l3.02-8.69l-5.28-9.79
		l-3.12,3.39l-11.76-2.84l-3.81-2.53l-1.13-6.92l5.53-1.08l-3.48-6.68l2.53-2.25l19.34,0.57l2.08-21.73l8.28-16.56l-2.42-13.97
		l3.04-4.26l-1.13-6.84l2.29-8.14l4.02-0.19l-18.76-2.27l1.21-20.46l4.21,3.68l-3.7-3.96l4.04,2.69l2.51-3.23l-3.45-3.97l9.89-9.75
		l7.43-1.81l10.45,1.73l11.38-5.21l0.02,2.11l6.55-1.16l1.8-2.54l-1.58,2.92l13.81-0.12l1.09,7.07l4.65,0.61l3.51,10.82l-7.1,3.26
		l0.18,3.1l8.78,7.68l4.21-0.14l2.93-5.51l-0.19-6.81l-5.28,0.11l3.42-9.74l3.58-0.12l8.07,6.35l3.47-0.63l2.41,3.76l0,0l1.17,3.99
		l3.74-1l-0.96-8.47l2.71-3.76l-8.9,0.44l0,0l-2.48-9.53l4.18-12.99l4.08-7.1L179.97,127.51z M167.27,198.66L167.27,198.66
		l1.31,3.24l6.92,3.24l6.32,13.54l3.43-1.47l3.19,3.5l2.81-2.1l4.4,2.78l2.93-3.42l0.55-5.41l-2.65-2.01l2.24-1.09l-2.46-2.73
		l-5.17,2.19l-2.17-3.48l-13.14-0.83l-2.79-2.05l1.23-2.18l-6.18-1.69L167.27,198.66z"/>
	<path id="DE-NW" fill="#1E3250" stroke="#1E3250" stroke-width="0.5" d="M76.38,302.23l14.88-2.32l18.3-11.56l1.28-4.74l-2.44-1.08
		l2.74-4.46l5.13,2.29l1.57,5.4l14.26,3.71l3.51,5.78l-3.82,0.74l1.59,3.61l-3.57,6.49l7.94,4.33l-1.17,4.9l-7.84,3.25l6.1,5
		l3.27-3.45l10.21-0.41l5.97-6.44l7.68,2.54l7.03-7.64l-4.74-3.12l0.09-15.3l-8.13-4.31l-0.85-5.74l7.26,1.47l5.41-7.03l3.48,1.35
		l6.02-3.4l3.23,2.83l0.33,11.32l9.48,0.64l5.19-1.3l7.38-10.26l3,0.29l2.38,2.18l-2.7,3.44l1.83,4.1l-10.03,12.94l7.08,5.01
		l-2.62,0.76l0.5,4.21l-3.7-1.13l1.65,6.189l9.09,0.57l-1.27,3.62l3.83,2.6l-1.21,9.221l2.11,2.08l4.22-1.271l-0.06,4.22l4.3,2.48
		l-1.04,5.53l8.64-0.73l-0.89,6.851l-4.55,5.239v9.561l4.86,0.35l0,0l-7.26,3.29l2.21,2.4l-9.92,13.47l-7.68,1.479l-0.28-5.159
		l-4.64-2.32l-8.12,3.7l3.57,5.54l-0.58,3.899l-15.56,1.29l-4.72,4.13l-4.01,5.971l2.45,3.069l8.05-2.699l2.9,6.579l-4.54,7.261
		l1.54,2.779l-13.89,3.021l2.22,6.13l-5.03,5.41l0.11,4.74l-6.45,5.83l-5.87-1.98l-8.47,9.18l2.14,5.561l-2.73,4.88l0,0l-5.36-1.2
		l-4.62-7.84l0.02-7.08l-8.95-3.7l1.41-4.59l-3.66-1.46l-3.63,2.45l1.72,7.38l-6.5,2.42l0.69,3.96l-5.05,4.21l-13.86,2.12l-2.5,7.95
		l-7.81,1.6l-0.74-2.52l-3.47,4.83l-2.01-1.19l-1.65,2.63l-2.16-2.02l-3.7,4.149l-4.31,0.42l0.04,2.65l-3.1,0.63l1.15,5.86
		l-2.71,1.59l-3.64-3.9l-3.55,1.88l3.46,11.261L53.31,496l-2.06-3.42l-1.96,2.62l-2.3-4.32l-9.54,5.101l-2.53-5.23l-0.52,6.63l0,0
		l-4.01-5.74l2.24-5.62L31,480.75l-7.93-0.66l-3.04-4.68l5.77-8.43l-5.84,0.01l-3.58-9.37l-5.24,0.06l-0.84-5.47l-3.35-2.29
		l3.27-1.88l-0.38-3.1l3.51-0.07l1.33-7.54l-4.81-1.311l0.35-4.989l-8.12,0.91l-2.07-7.381L3.1,422.7l2.9,3.09l3.29-5.64l10.45-6.65
		l-2.21-1.59l1.64-2.16L13.86,412l-0.68-7.12l9.83-12.189l-0.79-15.33l-7.81-9.58l1.61-5.16l-5.36-1.84l0.74-4.4l-5.65-2.24
		l2.27-4.54l-2.89-4.21l7.58-4.18l6.49,2.45l-3-6.271l18.07,7.7l-0.65-4.87l4.94,2.16l13.68-6.58l3.04,1.9l6.25-9.05l-9.13-5.46
		l0.43-3.21l2.73-0.49L57.1,315l6.01-0.21l8.23-10.89L76.38,302.23z"/>
	<path id="DE-RP" fill="#1E3250" stroke="#1E3250" stroke-width="0.5" d="M34.4,497.38l0.52-6.63l2.53,5.23l9.54-5.101l2.3,4.32
		l1.96-2.62l2.06,3.42l6.21-2.43l-3.46-11.261l3.55-1.88l3.64,3.9l2.71-1.59l-1.15-5.86l3.1-0.63l-0.04-2.65l4.31-0.42l3.7-4.149
		l2.16,2.02l1.65-2.63l2.01,1.19l3.47-4.83l0.74,2.52l7.81-1.6l2.5-7.95l13.86-2.12l5.05-4.21l-0.69-3.96l6.5-2.42l-1.72-7.38
		l3.63-2.45l3.66,1.46l-1.41,4.59l8.95,3.7l-0.02,7.08l4.62,7.84l5.36,1.2l0,0l0.71,13.47l-2.06,1.74l-3.8-2.4l-3.08,3.271
		l0.99,7.16l-2.98,4.239l6.13,3.66l3.78,7.48l-0.81,3.84l-4.47-1.05l-0.24,5.47l-2.85-2.17l-4.97,3.42l-1.65,3.47l3.07,2.41
		l-0.16,4.11l-4.97-2.41l-0.88,4.28l-4.11,2.6l7.13,8.48l19.02-6.261l8.81,5.801l3.66,15.14l2.79,5.35l3.54,0.63l-7.65,6.891
		l4.03,10.64l0,0l1.28,13.08l4.13,1.49l-3.64,10.74l2.43,2.899l-6.24,5.87l-2.02,13.01l-8.05,13.061l0,0l-19.05-8.91l-4.3,2.37
		l-4.6-3.12l-7.69,2.06l-9.27-5.09l-2.18-6.93l-3.72,0.42l0.46-1.87l-5.09,2.48l0,0l-4.64-7.79l6.12-5.44l0.98-7.39l-7.04-1.9
		l-2.51-4.33l3.43-4.06l-2.38-10.71l-3.4,1.83l-11.87-7.29l-5.57,0.5l-21.24,11.39l-14.54-3.2l0,0l-1.42-2.029l4.65-9.5l5.51-5.341
		l0.74-8.529l-6.24-0.101l-4.37-3.939l-2.51,1.229l-5.65-6.03l-0.69-4.96l-2.92-0.359l-4.21-10.5l1.97-10.811l3.16-1.409
		l-0.92-5.221l6.59-3.149l1.95-5.261l3.23,1.61L34.4,497.38z"/>
	<path id="DE-SL" fill="#1E3250" stroke="#1E3250" stroke-width="0.5" d="M32.78,573.51l14.54,3.2l21.24-11.39l5.57-0.5L86,572.11
		l3.4-1.83l2.38,10.71l-3.43,4.06l2.51,4.33l7.04,1.9l-0.98,7.39l-6.12,5.44l4.64,7.79l0,0l-4.41,4.21l-8.72-0.54l-3.77-3.42
		l-2.7,4.119l-1.36-7.56l-6.88-3.18l-5.58,1.02l-0.16,5.8l-6.17-1.08l-4.4-11.26l-6.57-6.529l2.15-1.83l-3.89-3.57l0.79-2.22
		l-7.87-5.011l-3.92,0.551L32.78,573.51z"/>
	<path id="DE-SN" fill="#1E3250" stroke="#1E3250" stroke-width="0.5" d="M409.06,420.36l-5.55-5.311l0.26-9.71l-3.359-8.49
		l3.14-0.859l-3.05-13.561l3.69-2.93l1.659-7.39l12.24-1.9l1.11-2.78l2.77,1.471l8.91-3.21l-1.06,1.6l5.25-5.54l5.1,1.77l4.67-3.84
		l6.26,4.771l2.381-3.17l4.689,2.33l0,0l6.89,5.399l-1.109,2.53l4.06,4.59l-2.06,9.8l2.51,3.24l3.34,1.16l3.601-5.3l3.489,1.17
		l1.341-2.87l9.17,8.53l14.67,0.71l11.84-3.471l2.52,2.391l4.07-7.311l-1.82-3.13l3.48-0.12l3.16-6.77l12.47,4.08l3.51-3.94
		l11.42-3.92l3.04,3.09l4.08-0.3l1.12-4.56l2.12,1.6l0,0l0.38,5.69l13.71,5.779l1.7,12.971l4.11,7.04l-4.12,19.949l-11.58,25.851
		l-11.261-3.76l1.94-7.4l-5.38,1.31l2.1-6.83l-6.39-3.63l0.19-2.46l-0.58,2.34l-5.261,0.46l-6.819-3.67L535.1,430.7l4.17,0.26
		l-0.92,3.04l5.5,1.87l-0.649,3.84l-7.67,0.31l-12.09,8.351l-11.271,1.88l-0.13,4.89l-2.66,1.71l-21.03,2.21l-0.109,6.641l-3.7,3.6
		l-6.04-4.67l-3.14,7.03l-4.82-1.24l-3.31,8.86l-10.41-0.641l-0.71,6.13l-4.7,4.54l-8.16-5.649l-0.58,2.84l-0.96-1.79l-3.81,1.68
		l-1.841,3.511l-2.14-1.95l-10.22,1.99l-11.58,15.47l0.38,6.85l-2.99-0.399l0.24-4.38l-3.45-2.49l0.98-2.48l-3.45-0.18l-1.04-4.95
		l-5.32,0.41l0,0l-7.87-3.25l0.37-3.76l-3.8-3.49l0,0l-1.8-2.5l3.45-0.521l1.04-3.31l-6.08-5.09l8.36-9.64l3.5,8.319l1.51-2.54
		l5.29-0.05l-0.86-5.28l2.6,1.63l0.601-2.529l4.06,0.85l3.4-3.35l-3.521-3.11l0.25-4.32l-2.54-0.09l4.03-4.49L407,447.48l6.15-0.261
		l1.72-3.08l4.25,1.091l2.71-5.19l10.89-2.5l-2.96-7.75l-6.41-2.08l-0.25-4.63l-10.6-4.05L409.06,420.36z"/>
	<path id="DE-ST" fill="#1E3250" stroke="#1E3250" stroke-width="0.5" d="M365.45,218.95l2.52-0.24l-0.88,2.82l3.23,0.37l1.1,3.26
		l3.03-1.23l6.5,3.88l-0.63,4.52l9.36,3.59l9.2-1.93l0.12,4.26l4.4-2.66l2.51,1.75l1.54,5.93l-3.75,9.11l1.96,9.34l-3.8,0.42
		l-1.65,9.97l2.94-0.24l-0.28,3.84l3.64-2.66l5.641,4.62l-3.66,6.58l2.16,7.12l-3.94,9.81l3.3,2.48l-5.04,6.12l13.811,15.779
		l2.83-1.75l3.859,4.91l4.62,0.36l3.75-3.08l6.92,5.08l4.15-0.53l0.47,3.38h6.75l0.97,3.69l4.62-0.05l-0.26,2.97l6.21-0.89
		l2.98,16.739l-8.48,7.221l0,0l-4.689-2.33l-2.381,3.17l-6.26-4.771l-4.67,3.84l-5.1-1.77l-5.25,5.54l1.06-1.6l-8.91,3.21
		l-2.77-1.471l-1.11,2.78l-12.24,1.9l-1.659,7.39l-3.69,2.93l3.05,13.561l-3.14,0.859l3.359,8.49l-0.26,9.71l5.55,5.311l0,0
		l-2.119,5.26l2.619,1.79l-4.8,8.2l-1.979-3.7l-10.62,0.859l-8.06-8.859l-8.4,1.3l-5.74-6.99l-11.7,0.87l-0.95-9.14l-6.6-2.851
		l6.98-7.67l-5.06-8.68l-4.93-2.99l-20.91-0.77l-2.95-12.221l-3.82-4.159l0.52-2.41l2.25,1.08l-0.53-2.73l-14.05-2.439l0,0
		l-8.03-17.4l0.21-3.86l4.59-4.33l-2.34-4.899l2.42-1.99l-5.66-4.84l8.8-4.69l16.92-0.71l-1.43-4.79l6.47-3.21l0.96-4.01l-2.97-2.64
		l4.59-3.15l-6.49-11.7l5.83-3.46l-8.97-8.95l0.71-3.44l4.03-0.18l-4.52-7.55l2.46-5.88l-3.61,1.46l-5.79-11.2l-1.93,0.26
		l-1.98-13.53l11.02-1.11l4.16-6.17l19.61,3.49l12.05-6.6l0.44-6.88l2.99,0.69L365.45,218.95z"/>
	<path id="DE-SH" fill="#1E3250" stroke="#1E3250" stroke-width="0.5" d="M166.82,66.59l2.35,2.45l-1.94,1.67l-2.67-4.29
		L166.82,66.59z M332.49,58.08l9.41,2.94l5.37,11.14l-7.81-2.19l-4.48,2.14l-2.14-4.95l-4.11,0.5l1.58,1.6l-2.51-1.5l1.31-7.3
		L332.49,58.08z M167.37,57.79l-0.91,4.28l-1.17-5.25L167.37,57.79z M180.99,55.13l-0.17,6.25l-5.39,1.13L173.59,58L180.99,55.13z
		 M171.44,52.84l1.27,2.23l-4.19-2.04L171.44,52.84z M160.46,46.18l0.94,2.71l-2.42,0.45l-4.45-6.2l4.47-5.15l-1.37,2.729
		L160.46,46.18z M169.54,33.33l3.91,1.16l-1.25,7.3l-10.71-2.42l1.81-5.03L169.54,33.33z M163.97,0.73l1.77,0.6l-4.43,0.14
		l2.81,3.28l-5.56,5.21l1.11,7.58l3.58,2.32l11.07-1.05l2.19-2.65l19.86,0.96l18.37,5.74l0.89,4.46l2.86,0.97l3.16,0.14l4.19-4.6
		l1.73,5.88l11.27-9.7l-0.47,5.07l12.03,3.77l3.84,4.81l3.35-1.14l-0.01-3.72l3.27,1.96l5.13,10.28l-2.49-0.09l2.35,1.88
		l-0.49,13.02l-4,5.24l-8.35,3.2l2.07,2.87l16.57-4.02l4.75,3.21l-4.27,15.75l3.28-1.77l2.68-9.43l6.21-2.37l17.55,7.84l6.6,6.44
		l5.49-0.85l8.99-7.58l6.01,1.51l5.56-3.27l0.84,2.82l-4.37,2.11l2.28,16.93l-14.19,12.24l-3.89-2.32l-3.69,6.28l2.12,5.41
		l5.44,0.71l2.12,3.81l0,0l-0.66,3.64l4.59,1.62l-3.45,1.03l-1.96-2.87l-6.93,5.62l-0.85,13.02l5.85,5.36l4.63,0.29l1.86,5.47
		l-2.65,8.29l-5.62-0.36l0.17,6.55l-12.25,6.35l-2.42,9.56l0,0l-18.28-7.39l0,0l1.13-1.65l-7.34-7.69l-3.15-0.18l-0.71-5.44
		l3.07-1.35l1.46-5.15l-4.96-4.72l3.12-4.92l-1.53-1.58l-5.61,1.96l-1,4.55l-4.24-0.34l-1.27,3.729l-4.62-0.65l-4.48,7.05
		l-4.14-4.86l-2.61,8.04l0,0l-11.48-6.46l-2.84-8.25l-12.21-17.13l-6.67-2.83l-13.06,0.56l0,0l-6.27-6.5l-1.5-7.38l-4.91-2.29
		l4.75-2.33l5.01,1.18l1.7-2.38l-3.64-7.99l-4.47,1.29l-3.12-5.67l1.94-12.13l-8.271-0.65l-2.03,2.44l-6.23-4.6l1.71-5.06l2.16,1.62
		l3.1-1.96l-5.35-1.38l0.8-2.11l16.15-2.02l11.39-7.45l-3.03-0.39l-1.19-4.4l-5.54,6.62l-5.8-1.17l5.53-13.43l-0.83-1.84l-4.22,1.34
		l2.68-2.28l-10.42-11.71l-5.97-17.46L162.4,23.4l-4.71-3.58l-3.78,14.22l1.04-17.71l6.25-15.67L163.97,0.73z"/>
	<path id="DE-TH" fill="#1E3250" stroke="#1E3250" stroke-width="0.5" d="M308.21,364.11l14.05,2.439l0.53,2.73l-2.25-1.08
		l-0.52,2.41l3.82,4.159l2.95,12.221l20.91,0.77l4.93,2.99l5.06,8.68l-6.98,7.67l6.6,2.851l0.95,9.14l11.7-0.87l5.74,6.99l8.4-1.3
		l8.06,8.859l10.62-0.859l1.979,3.7l4.8-8.2l-2.619-1.79l2.119-5.26l0,0l3.44-1.33l10.6,4.05l0.25,4.63l6.41,2.08l2.96,7.75
		l-10.89,2.5l-2.71,5.19l-4.25-1.091l-1.72,3.08L407,447.48l2.46,3.789l-4.03,4.49l2.54,0.09l-0.25,4.32l3.521,3.11l-3.4,3.35
		l-4.06-0.85l-0.601,2.529l-2.6-1.63l0.86,5.28l-5.29,0.05l-1.51,2.54l-3.5-8.319l-8.36,9.64l6.08,5.09l-1.04,3.31l-3.45,0.521
		l1.8,2.5l0,0l-6.28,3.38l-2.9-3l-16.4,4.45l-2.5-5.53l-2.55,1.03l-1.44-2.45l0.67-6.689l-5.42-0.95l-3.51,4.51l-2.75-0.32
		l2.34,11.84l-2.11,9.141l-6.71-1.7l0.75-4.46l-2.71-3.6l-8.31,1.88l-3.12-4.44l-6.6-0.01l-7.57,4.63l0.16,2.5l8.25,4.52l0.07,3.07
		l-7.33-0.689l-0.94,4.64l-6.97-2.54l-0.5-10.28l-3.52-3.02l-3.37,0.87l-2.5-4.63l-3.64,0.779l-4.13-9.979l-6.26-1.71l-1.81-4.311
		l-3.89,1.141l-2.19-2.101l-4.25,4.74l0,0l-0.3-9.46l2.89-1.19L267,462.49l-6.4,0.38l0.4,3.79l-5.32-1.09l4.87-18.15l4.75-1.35
		l2.12-4.84l-3.09-3.961l-2.57,1.391l1.03-2.391l-2.39-1.06l7.2-0.25l-2.79-3.71l1.26-3.19l10.53,0.53l0.06-2.77l-4.11-2.46
		l2.13-5.74l-3.51-2.32l2.95-1.399l2.1,4.069l2.43-7.39l-10.73-4.15l-0.84-5.279l-5.3-0.601l-2.82-9.229l0,0l7.55-6.32l1.4,1.94
		l5.45-1.36l3.08-5.57l1.99,1.58l4.16-2.37l4.54-9.569l4.01-0.48l5.48,3.91l5.54-2.62l3.23,2.15l-1.14-6.261L308.21,364.11z"/>
</g>
</svg>
