<?xml version="1.0" encoding="utf-8"?>
<!-- Generator: Adobe Illustrator 15.0.0, SVG Export Plug-In . SVG Version: 6.00 Build 0)  -->
<!DOCTYPE svg PUBLIC "-//W3C//DTD SVG 1.1//EN" "http://www.w3.org/Graphics/SVG/1.1/DTD/svg11.dtd">
<svg version="1.1" id="Layer_1" xmlns:amcharts="http://amcharts.com/ammap"
	 xmlns="http://www.w3.org/2000/svg" xmlns:xlink="http://www.w3.org/1999/xlink" x="0px" y="0px" width="988.367px"
	 height="848.366px" viewBox="0 0 988.367 848.366" enable-background="new 0 0 988.367 848.366" xml:space="preserve">
<defs>
	
	
		<amcharts:ammap  projection="mercator" leftLongitude="19.375819" topLatitude="41.7448887" bottomLatitude="34.803673" rightLongitude="29.609274">
		</amcharts:ammap>
</defs>
<g>
	<path id="GR-A" fill="#1E3250" stroke="#1E3250" stroke-width="0.5" d="M557.51,147.68l6.07,1.38l3.76,3.27l-0.29,5.19l-8.43,3.24
		l-3.79-0.21l-10.42-9.43l2.21,0.44l5.11-3.87h5.779V147.68z M473.97,113.65l3.2,2.04l2-1l1.97,3.44l4.23,2.35l-2.45,1.73l0.23,1.55
		l1.949,0.42l0.091,2.22l-1.851,1.46l1.971,5.63l-0.74,2.24l-1.17-1.35l-1.99,2.17l-4.32,0.91l-4.24,2.84l-0.359-1.68l-3.29-1.35
		l0.37-1.66l-1.641-1.64l-5.529,0.11l-1.49-4.85l4.35-11.72l2.15-0.18l5.81-4.41L473.97,113.65z M613.59,1.97l1.43-0.87l5.36,3.53
		l6.29-0.11l1.75,1.68l9.88,3.12l-0.04,2.13l3.681,3.77l5.64,1.49l-0.07,9.96l1.8,12.03l1.53,0.82l0.61,3.97l-0.521,4.43l-3.14,2.67
		l-6.82-1.46l-2.89,3.96l-2,0.64l-0.391,2.02l-2.1,0.38l-2.96,3.13l-4.229,0.43l-1.261-1.21l-1.79,0.83l0.03,8.01l-1.49,1.22
		l2.74,3.73l-3.03,3.71l2.721,0.4l-1.99,4.26l1.33,3.75l3.59,2.49l-0.82,2.51l-2.89,1.66l3.04,4.64l-5.04,2.24l-1.37-0.48l0.43,4.33
		l-1.52,0.11l-2.311,1.42l-2.27,1.76l-1.23,4.36l-4.859,2.2l-2.49,4.64l-0.33,3.39l-4.479,1.75l-3.391-0.29l-1.359-7.75l3.729-2.82
		l-1.28-1.11l-2.83,0.14l-1.619,2.35l-3.96-3.61l-3.971-0.84l-16.17,0.27l-12.609-2.76l-3.53,1.04l-8.8-4.48l-6.69-1.47l-2.81-3.5
		l-4-0.58l-3.44,2.57L527.07,97l-6.78-0.52l-4.01-1.77l0.96-3.85l2.55-1.28l-2.81-1.4l-1.271,1.04l-6.28,0.04l-4.75,4.79l-1,3.66
		l-3.319-0.18l-6.521,2.52l-6.729,7.4l-3.7-1.35l-6.3,0.43l-2.851-2.021l-2.92,1.49l-5.75-10.89l-4.84-0.86l-3.38,0.82l-0.26,1.09
		l-3.78-0.08l-1.26,1.63l-1.67-0.58l-1.44,2.85l-3.16,1.12l-2.49,2.68l1.88,2.229l-0.51,1.75l0.78,2.19l-5.23,1.89L422.91,122.2
		l-3.73,0.43l-4-1.32l-12.01-5.9l0,0l0.47-3.28l5.641-1.52l8.329-8.52l2.631-0.08l0.13-3.17l3.33,0.51l-0.511-2.03l1.79-3.12
		l0.32-4.99l-7.49-6l0.38-3.89l-4.8-3.13l-3.97,3.56l-7.3-5.42l-5.38-1.95l-4.291-5.25l-2.5-0.42l0.39-2.63l-2.37-4.67l1.6-5.94
		l-7.24-2.04l-0.7-6.78l0,0l1.56-0.38l2.55-3.63l8.3,1.63l3.02-4.83l8.21-1.62l1.96-3.6l5.341,5.06l3.989-3.51l0.75,1.59l2.09,0.18
		l2.171-1.71l-1.08-6.75l3.71-3.16l2.859,1.94l2.23-0.27l2.24,2.58l2.34-4.27l1.79,0.25l2.899-2.91l3.57,4.21l0.19,3.2l3.119-1.8
		l2.431,1.1l1.649-2.31l1.86-0.37l4.149,2.13l2.08-3.56l4.601-1.97l2.479,2.1l0.561,5.67l1.18,3.2l2.12,1.38l1.49,4.75l4.06,0.89
		l2.221-0.93l4.109,1.08l1.521,4.09l5.21,4.16l1.09-1.02l0.229-5.43l4.94,1.11l3.75-1.93l2.39,2.53l10.08,2.56l3.89,3.62l1.881-0.58
		l9.21,6.89l1.04,3.95l4.58,1.42l1.39-1.24l3.229,0.51l2.931-2.21l5.35-0.57l4.311-2.69l4.97,1.25l2.74-4.75l4.68,1.57l4.02-1.18
		l4.431,2.68l1.17-3.12l5.239-0.43l4.061-3.04l4.3,2.21l0.96,2.73l1.97-0.25l8.391-2.13l0.81-2.08l2.521-0.85l8.53-0.63l2.539-4.31
		l-0.06-3.48L609.74,38l2.77-0.35l-4.2-5.4l2.84-4.55l-0.72-4.17l-2.68-0.3l0.53-5.95L606.79,14l-1.66,1.11l-2.19-0.45l-2.14-2.73
		l-0.83-4.58l0.83-2.54l3.74-0.38l0.8-1.9l3.97-2.31L613.59,1.97z"/>
	<path id="GR-B" fill="#1E3250" stroke="#1E3250" stroke-width="0.5" d="M359.75,190.58l3.02,1.56l6.66,10.55l9.37,4.73l6.22,1.56
		l2.32,5.44l4.83,0.02l0.4,2.16l-3.06,0.96l-10.98-1.48l-11.72-5.77l-9.75,1.76l2.45-5.62l-6.94-11.31l1.63-3.13l-0.04-8.1
		l1.11-0.08l2.3,5.38L359.75,190.58z M368.38,41.92l4.1-0.65l2.01,2.07l2.68-0.37l1.64,1.51l2.78,0.13l0,0l0.71,6.78l7.24,2.04
		l-1.6,5.94l2.37,4.67l-0.38,2.63l2.5,0.42l4.29,5.26l5.38,1.95l7.301,5.42l3.97-3.56l4.8,3.13l-0.38,3.89l7.49,6l-0.32,4.99
		l-1.79,3.13l0.51,2.03l-3.33-0.51l-0.13,3.17l-2.62,0.08l-8.33,8.52l-5.64,1.52l-0.47,3.28l0,0l-3.15-0.56l-8.62,3.51l-3.11,5.32
		l-0.77,4.46l4.2,1.86l3.63,4.81l0.34,2.68l3.169,1.41l1.141,2.64l4.68-0.15l3.13,2.95l-2.14,1.66l-5.57,0.17l-0.91,1.5l0.58,6.24
		l3.01,4.42l5.971,3.84l3.8,0.52l3.28-1.22l0,0l0.85,5.67l-1.07,3.03l0,0l-6-5.14l-7.779-1.54l-6.28,3.89l-4.19-1.89l-0.89,2.45
		l-1.64-0.1l-1.13,3.39l1.19,5.39l2.63,3.4l0.32-1.05l1.77,1.01l1.23,4.49l3.02-0.29l1.53,1.64l7.97,2.6l7.34,5.86l-1.43,0.77
		l-0.14,1.89l2.66,3.66l0.939,1.95l0.311,3.44l-3.11,2.57l1.28,1.72l-0.65,1.62l-0.35,0.98l-5.521,1.35l-0.479-3.35l-2.04,0.56
		l0.22-2.5l-1.35-1.57l-1.44,0.02l-3.229-3.27l-1.29,2.08l-4.49-12.94l-10.64-12.51l-10.16-1.23l-3.92-2.81l-8.65-2.39l-4.38,4.25
		l-1.59,5.19l-1.04,0.02l-2.59-4.49l-13.49-4.46l-3.54-2.85l-7.47-3l-0.52-2.43l-2.78-2.64l-4.31-1.59l-4.12,0.93l1.28-2.87
		l-3.43-4.13l-1.04-3.97l-3.43-1.22l0.18-2.78l9.94-1.03l4.72-4.61l-4.1-3.55l1.27-1.98l-0.2-3.67l-4.93-1.98l-5.23,3.04l2.11,0.56
		v2.13l-2.23,2.28l-7.99,1.95l-0.61,6.06l-1.86,0.61l-0.99-1.99l-0.54-1.14l-1.55-0.08l-3.12,1.54l2.68,3.76l-3.11,0.15l-2.04,0.2
		l-2.97,2l1.85,2.54l1.98,7.48l3.05,2.17l-5.21,9.41l-1.24,8.31l-3.79,7.67l4.17,15.34l6.93,4.7l0,0l1.52,1.27l-2.06,1.84
		l-1.28-2.21l-2.68-0.76l-1.95,1.6l-6.66,1.12l-2.57-2.46l-1.03-4.87l-5.02-3.59l-1.84,0.75l-1.09-1.69l-1.78,1.13l-2.88-3.43
		l2.29-8.23l-2.23,1.13l0.56-3.38l-2.73-2.71l-3.2,0.91l-4.2,7.04l-2.14,0.91l-0.66-5.14l-1.68,0.18l2.31-3.53l-0.59-1.25
		l-8.11-0.14l0,0l-0.64,0.02l0,0l-0.86-1.22l0.84-1.15l5.18-2.77l2.26-7.63l-3.13-0.37l-2.8-2.43l0.06-1.97l2.12-2.23l-2.52,0.22
		l-2.92-2.98l1.14-5.75l-3.23-1.15l-3.93,0.52l0.2-1.35l-3.86-3.69l-4.83-1.02l-0.43-3.31l-2.64-3.74l1.74-2.91l-2.64-2.45
		l-0.4-3.58l0.15-2.21l2.06-1.28l-0.03-3.26l-4-1.35l-1.25-1.66l-2.36,1.27l-0.75-3.5l-2.88-2.04l1.67-3.73l-5.72-0.9l0.69-3.97
		l-2.84-4.38l5.79-1.83l4.88-3.64l-2.1-0.96l-1.62-2.8l0,0l1.4-1.51l-0.2-3.75l4.12-2.46l3.14-5.16l2.86-1.07l-0.36-5.17l5.86-4.28
		l4.77-0.57l2.97-3.28l5.91,4.5l1.81-0.57l2.2-3.45l3.97-1.51l4.52,0.74l3.46,2.14l1.51-0.62l0.55,3.58l2.12-1.66l4.18-0.37
		l1.86,2.3l12.65-1.42l2.66,1.51l6.66-8.07l4.21,5.45l2.12-1.13l1.09-1.72l1-17.33l3.67-3.76l20.51,0.94l5.08,2.42l4.85,0.12
		l6.08-1.36l2.17-2.89l0.16-3.24l4.51-2.95l3.48,0.06l1.75,4.1l5.67-4.44L368.38,41.92z"/>
	<path id="GR-C" fill="#1E3250" stroke="#1E3250" stroke-width="0.5" d="M209.59,96.38l4.14,1.85l2.85-0.83l0,0l1.62,2.8l2.1,0.96
		l-4.88,3.64l-5.79,1.83l2.85,4.38l-0.69,3.97l5.72,0.9l-1.67,3.73l2.88,2.04l0.76,3.5l2.36-1.27l1.24,1.66l4,1.35l0.03,3.27
		l-2.06,1.28l-0.15,2.21l0.4,3.58l2.64,2.45l-1.74,2.91l2.63,3.74l0.43,3.31l4.83,1.02l3.86,3.69l-0.2,1.35l3.93-0.51l3.23,1.15
		l-1.14,5.75l2.93,2.98l2.52-0.23l-2.12,2.23l-0.06,1.97l2.8,2.44l3.14,0.37l-2.26,7.63l-5.18,2.77l-0.84,1.15l0.86,1.22l0,0
		l0.16-0.01l0,0l0.32,2.7l-1.64-1.07l-0.67,0.85l0.7,3.15l-7.31,9.47l-2.25,0.21l0.31,1.97l-4.43,6.03l-3.24,0.85l-0.73,2.23
		l-3.1,0.97l3.76,4.43l0.94,6.92l-0.79,1.6l-7.18-2.06l-3.93,1.9l-4.99-2.72l-4.01,1.53l-2.48-1.83l-3.45,2.2l-3.37-4.83l-9.01,0.67
		l-2.05-1.35l-2.97,0.61l-1.62,2.32l1.56,0.24l-0.48,2.48l-3.45,2.31l-3.03-0.54l-2.92-3.72l-1.84,1.31l0,0l-1.88-2.37l-3.9-1.38
		l-4.5,1.17l-1.44,2.44l-6.2-2.21l-1.67-8.26l-4.55-5.3l3.9-0.66l1.35-6.58l-2.87-1.27l-3.85,1.36l-1.95-5.42l-2.86-3.58l4.23-2.44
		l-0.37-4.39l-1.84-0.25l1.15-1.54l-6.57-10.78l-4.05-4.19l-8.54-1.69l0,0l1.25-4.05l-0.63-5.1l3.24-1.56l1.87-4.68l2.69,1.02
		l3.1-0.57l1.86,1.57l2.5-0.8l1.26-5.98l2.6-1.66l0.76-2.31l3.2-0.55l1.26-12.7l-6.56-8.43l-0.08-2.92l-2.35-0.97l2.49-2.55
		l-0.12-7.49l15.48-0.11l4.89-3.29l4.48,2.98l8.96-2.24l5.14-4.52l4.24,1.14l5.56-0.45l3.77,5.27l2.3-0.03l3.9-3.71l3.02-0.1
		l0.18-3.38l1.18-1.59L209.59,96.38z"/>
	<path id="GR-D" fill="#1E3250" stroke="#1E3250" stroke-width="0.5" d="M125.96,166.1l8.54,1.69l4.05,4.2l6.57,10.77l-1.15,1.54
		l1.85,0.25l0.37,4.4l-4.24,2.43l2.86,3.59l1.95,5.42l3.85-1.37l2.87,1.27l-1.35,6.58l-3.9,0.65l4.55,5.31l1.67,8.26l6.21,2.21
		l1.44-2.44l4.5-1.16l3.89,1.37l1.88,2.38l0,0l-3.05,0.54l-0.92,5.41l-2.26,0.2l-0.02,7.59l2.65,3.74l-0.55,1.21l-1.32,0.55
		l-3.11-2.96l-3.07,0.09l-0.58,1.89l-3.41,2.59l3.01,3.4l-0.15,3.56l2.79,0.93l1.58,9.34l-2.05,3.29l3.19,0.22l0.08,2.21l-1.93,0.68
		l0.4,1.1l6.1,5.71l0.47,4.43l3.69,2.36l5.99-0.21l2.78,3.52l-0.07,2.89l1.83,0.89l-1.21,3.64l-4.45,3.46l-1.58,2.9l0.21,2.11
		l1.68,1.43l0,0l-9.22,6.939l-3.44-1.62l-1.89,1.19l-1.52-1.82l-1.49,1.391l-5.16,0.689l-1.83,2.25l1.09,1.641l-2.25,0.85l1.88,3.58
		l0,0l-3.65,0.55l-2.68,2.54l1.1,2.15l-3.89-1.33l-1.47,0.91l-1.88-3.5l-1.71,0.22l-2.4-2.96l0.14-2.54l-1.21-0.34l-1.67,1.16
		l0.32,2.05l-2.28,0.13l0.83,2.16l-1.45,0.43l0.17-3.34l-1.64,0.52l-0.47-2.1l-1.39,1.04l-1-1.06l2.58-1.91l-2.78-3.58l-1.66,1.52
		l1.9,0.62l-1.43,1l-0.65,0.58l0.1,0.96l-0.45,3.45l-2.82,4.359h-1.39l8.22,6.45l-6.58-1.399l0.09,2.39l-2.75,0.04l-2.48-5.31
		l1.38-2.07l-0.77-3.59l-3.75-4.59l-7.76-5.95l-3.88-5.76l-5.36-3.56l0.1-6.77l-1.34,0.76l-1.86-1.4l-0.76,0.97l-3.41-1.35
		l-0.73,0.88l-4.16-0.69l-4.75-4.9l-0.56-6.07l-1.6-2.03l-2.83-0.54l0.7-0.84l-2.32-4.25l5.43-0.18l-5.43-5.13l1.24-0.66l2.55,1.32
		l0.59-2.6l-2.61-1.42l-5.36,0.71l-1.52-1.24l3.9,0.43l-2.97-1.85l-2.75,0.82l2.64-2.79l0.16-4.73l1.78-1.57l-0.07-2.02l-4.05-1.47
		l-2.44-2.55l-1.12,1.05l-3.65-3.6l-3.12,0.59l-1.36-1.63l1.87-1.06l5.38,2.16l3.38,3.1l5.49,1.16l3.28-0.35l-0.72-2.01l1.18-2.22
		l2.95,1.61l0.14-2.81l4.98-4.19l-2.69-3.8l1.32-2.12l-1.56-2.69l1.32-1.31l6.94,3.64l2.91-3.64l0.18-2.85l-4.74-8.02l-2.2-1.63
		l0.64-2.66l-2.95-5.13l7.28-0.56l1.63-6.55l3.62-2.67l3.36,1.17l2.04-2.27l3.31,2.15l2.11-0.07l2.56-0.54l2.28-2.46l4.65-0.54
		l-0.15-3.66l1.6-2.83l-1.67-1.61l0.27-2.82l2.52-1.18l1.63-2.98l-1.3-5.98l2.42-4.11l2.45-1.16l-0.48-1.71L125.96,166.1z"/>
	<path id="GR-E" fill="#1E3250" stroke="#1E3250" stroke-width="0.5" d="M425.64,311.27l-0.399,2.78l1.08,1.141l-1.21,0.859
		l-1.17-3.96L425.64,311.27z M366.79,298.76l4.45,2.4l-0.95,2.09l-2.15,0.92l-1.52,3.83l-1.45-1.62l-1.59,0.61l-1.97-1.36
		l-1.23,0.851l-0.3-2.081l4.93-2.42l-0.03-2.01L366.79,298.76z M379.54,298.41l4.08,4.59l6.62,3.02l0.7,3.021l1.12-1.23l4.38,0.9
		l-2.331,3.9l-4.11,2.21l-2.04-2.391l-3.52,0.01l-0.42-3.789l-5.73-8.541L379.54,298.41z M412.88,296.29l0.39,2.33l1.03-0.4
		l-0.7,5.51l-2.649,0.13l-1.44-2.01l3.54-1.45l-1.42-2.93l0.82-2.39L412.88,296.29z M410.82,289.53l0.39,1.5l2.32,1l-5.141,9.48
		l-5.609,5.601l-3.07-0.36l0.101-1.67l4.439-2.66l-1.12-3.01l3.9-3.25L410.82,289.53z M421.63,280.23l2.28,2.28l-0.53,4.7
		l-2.25,1.62l-1.78-1.17l1.561-1.37l-2.271-0.8l1.011-3.52L421.63,280.23z M444.81,280.2l-0.46,3.88l-0.939,0.06l0.189-2.98
		L444.81,280.2z M431.01,275.79l0.73,1.28l-2.811,3.92l0.04-1.02l-1.93-0.12l1.979-1.33l-0.119-1.99L431.01,275.79z M246.2,184.6
		l8.11,0.14l0.59,1.25l-2.31,3.53l1.68-0.17l0.66,5.14l2.14-0.91l4.2-7.04l3.2-0.91l2.73,2.71l-0.56,3.38l2.23-1.13l-2.29,8.23
		l2.88,3.43l1.78-1.13l1.1,1.69l1.84-0.75l5.02,3.6l1.03,4.88l2.58,2.46l6.66-1.12l1.95-1.6l2.68,0.76l1.28,2.22l2.06-1.84
		l-1.52-1.27l0,0l3.35,2.41l0.11,4.5l2.28,5.18l10.35,7.83l3.96,18.36l3.45,8.07l4.37,2.79l1.77-0.31l1.45,2.6l2.57,0.07l4.13,3.19
		l1.88,4.56l6.57,7.24l1.66,3.97l5.88,5.48l1.2,5.42l2.8,2.91l3.03,6.59l-1.33,3.17l-2.68,2.27l-8.51,1.74l-0.37,1.04l1.74,0.739
		l-1.98,1.8l-1.4-0.989l-5.94,2.29l-4.39-0.101l-1.99-1.33l1.68-4.979l2.21-0.32l1.29-2l0.16,2.62l1.06,0.2l-2.58,4.41l1.35-0.34
		l6.16-3.091l0.47-3.709l2.72,1.48l0.56-4.73l-2.59-2.36l-2.33-7.36l-3.79-3.73l-9.03-1.26l-2.57-4.11l-5.6-1.07l-0.46,1.24
		l1.44,0.69l-1.34,2.84l1.86,2.13l-11.24,2.63l-0.12,7.11l3.18,7.55l2.22-2.27l-0.83-1.86l1.87-0.32l-0.3,2.32l1.22-0.25l1,1.65
		l0.92,5.021l1.7-0.021l-0.64-2.17l4.3,3.8v2.641l1.59,1.02l-1.08,1.55l0.71,2.05l-3.09,0.46l-0.11,3.03l6.58-3.62l2.94-0.18
		l-0.92,2.7l-2.31-0.17l-0.88,1.279l0,0l-7.73,4.061l-4.17-0.82l-2.04-3.28l-9.81,0.75l-0.86-2.1l-3.36,0.05l-2.24-1.95l0.18-1.58
		l-1.73-0.699l-5.85,1.8l-1.22-0.93l-8.48,0.05l0.87-2.15l-1.09-5.77l1.07-1.851l-5.16-1.189l-0.54-5.36l-2.75-1.18l-1.54-3.47
		l-9.35-1.07l-2.01-4.2l-1.42,0.04l-0.3,3.12l-1.83,1.2l-3.88,7.15l-2.92,1.71l0.4,4.42l-4.13,2.801l-3.55-0.37l-2.59,2.55
		l1.04,3.03l-0.77,0.59l-8.17,2.569l-2.01-9.01l-5.2-2.729l-1.47-3.15l-1.89-0.27l-2.59,3.98l-2.75,1.51l-4.27-1.13l-0.4-3.22
		l1.5-3.94l-3.84-0.99l-1.04-3.05l1.42-1.68l-1.97-2.63l-4.54-0.32l-1.63,1.55l-2.66,0.09l-2.77,2.86l-3.85-2.38l-4.12,3.83
		l-1.45-0.2l0.05,1.83l-4.29,2.82l0,0l-0.11-0.09l0,0l-2.25-1.44l0,0l-1.68-1.43l-0.21-2.11l1.58-2.89l4.45-3.46l1.21-3.64
		l-1.83-0.89l0.07-2.89l-2.78-3.52l-5.99,0.21l-3.69-2.36l-0.47-4.43l-6.1-5.7l-0.39-1.1l1.93-0.68l-0.08-2.21l-3.19-0.22l2.05-3.29
		l-1.58-9.34l-2.79-0.93l0.15-3.56l-3-3.4l3.41-2.59l0.58-1.89l3.07-0.09l3.11,2.96l1.32-0.55l0.55-1.21l-2.65-3.74l0.02-7.59
		l2.26-0.2l0.92-5.41l3.05-0.53l0,0l1.84-1.32l2.92,3.73l3.03,0.54l3.46-2.31l0.48-2.48l-1.56-0.24l1.62-2.32l2.97-0.62l2.05,1.35
		l9.01-0.66l3.37,4.83l3.45-2.2l2.49,1.83l4.01-1.54l4.99,2.72l3.93-1.9l7.18,2.06l0.79-1.61l-0.93-6.92l-3.76-4.43l3.1-0.97
		l0.73-2.23l3.24-0.85l4.43-6.03l-0.3-1.97l2.25-0.21l7.3-9.46l-0.7-3.16l0.67-0.84l1.64,1.07l-0.32-2.7l0,0L246.2,184.6z"/>
	<path id="GR-F" fill="#1E3250" stroke="#1E3250" stroke-width="0.5" d="M119.81,447.26l4.56,6.98l5.57,0.85l7.39,3.79l-0.29,3.43
		l8.24,5.24l-0.39,2.58l-7.81-3.41l-3.09,1.32l-2.32,3.02l-0.51,1.721l1.88,1.609L133,476.11l-2.37,1.069l-2.31-1.239l-0.17-1.721
		l-2.88-1.64l-1.17-2.68l-5.84-3.99l0.41-1.98l-2.4-1.52l0.71-1.75l-2.76-0.771l-1.97-2.79l-0.39-5.27l1.73-3.17l5.27-4.271
		L119.81,447.26z M106.64,383.17l1.74,0.82l1.19,6.83l1.44,0.449l1.53,8.761l-2.55,2.64l2.28,4.66l1.73,0.83l2.96-3.13l-0.38,2.09
		l2.01-0.18l1.34,4.21l9.38,12.6l-2.53,6.6l-1.95-1.369l-2.04,0.93l-3.82-1.01l-7.46-5.4l-4.15,1.85l-0.39,1.341l-4.9-1.351
		l-2.23-2.12l0.73-1.569l-1.92-2.721l0.61-1.54l-1.14-2.279l3.09,3.02l0.62-0.57L96,404.99l-1.95,1.39l1.48,4.78l0.08,7.46
		l-5.22,1.43l-0.54-2.02l-3.35-1.471l1.77-9.439l1.61,0.1l1.18-1.979l0.93-8.721l1,2.28l2.83-2.39l0.58,3.43l1.98,0.16l0.63,1.72
		l5.09-3.729l1.18-2.32l-0.79-1.75l0.91-0.89l-1.08-9.49L106.64,383.17z M114.51,379.8l2.52,1.45l-1.33,3.38l2.53-0.27l-0.21,1.42
		l1.79,1.58l-3.16,7.939l2.48-0.95l0.4-1.52l0.77-0.58l1.87,0.58l0.65,6.689l2.16,1.051l-4.05,2.14l-2.75-2.29l-4.45-13.56
		l-2.36-2.811l0.29-1.649l2.65,0.989L114.51,379.8z M126.21,360.08l0.86-0.311l-0.15,1.391l1.72-0.5l-0.36,1.899l-2.09,1.261
		l-1.44-0.54l-0.91,2.279l-1.74-1.579l0.43-3.25l2.12,1.06L126.21,360.08z M118.41,339.66l2.31,0.479l-1.1,1.771l1.65,2.979
		l-0.71,5.12l1.23,3.721l-1.57,2.81l0.97,8.42l-1.01,1.1l-1.67-1.989l0.46,2.46l-2.45,1.779l-1.58-0.909l-1.36,3.58L113,368.4
		l-1.65,0.3l-1.73-3.811l-4.84,8.08l1.15-13.7l4.02-11.439l4.26-6.01l2.32,0.14L118.41,339.66z M76.46,304.57l2.84,3.081l-3.4-1.101
		l-0.66-1.13L76.46,304.57z M68.2,294.64l3.26,1.93l3.36,5.87l-2.92-0.17l-3.34-2.56l-1.46-2.78l0.05-2.15L68.2,294.64z
		 M43.14,227.9l9.07,5.09l-2.35,4.74l-5.19,1.79l-3.05,2.78l0.25,2.23l1.88,1.38l-1.78,0.56l0.64,1.37l7.59,2.69l-2.06,6.55
		l1.71,9.66l0.77,1.49l5.53,1.61l1.6,2.82l3.27-1.12l1.59-2.21l4.5,9.56l-0.92,2.15l-9.98-4.3l-3.64-2.94l-4.32-0.73l-3.48-2.78
		l-1.98-4.79l-0.1-5.86l-1.75-3.2l-7.9-5.86l-1.87-3.45l0.67-2.37l-4.97-0.7l0.83-3.79l-1.49-1.07l-1.12,1.33l-1-5.16l2.75-5.22
		l3.75,1.2l3.13-1.09l4.08,0.94L43.14,227.9z M2.32,223.26l2.91-0.36l-2.04,2.72l-3.01-0.28l0.42-3.1L2.32,223.26z"/>
	<path id="GR-G" fill="#1E3250" stroke="#1E3250" stroke-width="0.5" d="M156.39,401.14l-1.86,3.73l-0.43-1.93l1.18-0.32l-0.09-1.72
		L156.39,401.14z M222.2,398.49l2.42,1.46l6.04-0.48l3.68,1.99l2.27-0.26l1.43,3.22l3.57,1.55l1.08,2l2.75-1.399l3.43,5.43
		l4.38,1.979l1.51,2.23l5.03,1.15l5.84-0.591l3.36,3.82l0,0l0.31,6.75l-1.39,6.55l-3.5,4.351l-1.81,0.2l-1.02,2.52l-4.64,1.25
		l0.48,4.21l-2.19,2.9l3.6,5.76L254,456.56l-3.31,3.261l-3.5-1.181l-0.74-1.449l-2,0.27l-4.08,4.34l-6.24-1.81l-3.6-2.761
		l-1.81,0.271l-2.88-2.46l-0.8-2.89l-6.77,5.109l-1.47,2.46l-0.16,6.09l1.58,6.181l-1.71,10.54l1,0.87l3.74-1.78l3.44,0.27l3.28,5.5
		l2.3,0.74l4.51,5.09l-9.69,5.811l0.8,5.09l-3.8,1.34l-13.85-0.2l-1.51,1.26l0,0l-5.4-11.359l-7.48-9.311l-15.18-10.66l-3.57,0.011
		l-1.32,3.25l-0.84-5.3l1.6-2.62l-1.76-6.66l-6.84-5.47l-10.13-3.641l-0.2-4.399l1.66-6.44l1.13-0.61l2.33,1.82l2.74-1.02l9.42-9.74
		l5.76-11.19l0.34-10.91l1.65,0.28l1.88,2.69l3.84-0.851l6.92,4.98l6.79,1.229l6-2.81l3.93-4.87l2.75-8.04l3.09-3.63l4.1-0.311
		L222.2,398.49z M154.1,388.77l1.32,0.711l-0.6,2.699l-1.69-4.81L154.1,388.77z M140.45,368.8l-3.61,4.83l0.68,1.63l-1.05-0.05
		l0.14-2.87l3.1-4.16L140.45,368.8z M142.33,363.13l-2.97,3.65l-3.77,1.58l0.34,1.22l-1.66,1.5l-0.19-2.57l3-5.229L142.33,363.13z
		 M179.07,302.15l2.25,1.44l0,0l0.06,0.05l0,0l0.03,3.51l3.03,3.67l-2.01,5.31l-3.03,3.29l0.34,1.7l9.56,4.649l3.29,8.53l8.2,2.51
		l0.85,1.601l-0.68,1.859l-3.76,0.381l-2.22,5.35l2.31,7.2l10.8,3.82l5.89-1.2l1.08,4.359l3.2-1.029l1.88-5.721l5.64,1.04l3.89-1.42
		l0.17-4.85l4.91,0.71l2.43,3.49l-0.04,1.689l-2.35,1.2l-0.98,2.4l1.37,8.279l-2.99,2.181l4.06,2.229l-1.79,4.79l0.77,3.04
		l-10.16,5.34l-0.85,7.49l-2,2.57l0,0l-1.67-1.341l-4.05,2.181l-1.98,5.319l-5.7-2.649l-2.06,0.58l-3.56-1.25l-1.83,1.729
		l-2.8-0.189l-0.94,1.83l-6.45,3.67l-2.32-0.41l-5.6-3.24l2.38-0.49l3.68,3.011l-1.23-4.021l1.22-1.81l-1.61,0.3l0.01-1.8
		l-3.76,1.22l-1.28-0.77l1.39-1.29l-1.2-1.83l-0.68,1.93l-2.99-2.22l-0.69-4.33l-0.81-0.96l0.54-0.641l-3.88-5.949l-1.51,2.159
		l4.35,4.931l-1.08,0.75l-0.03,5.22l-4.14,1.32l-0.85,4.029l-4.08,0.82l-2.3,1.93l4.09,1.07l-9.05,0.57l-1.49-0.7l-0.62-3.44
		l-2.9,0.261l0.74-3l-1.52-0.53l0.59-2.14l0.55,1.699l1.92-3l-0.13-1.64l2.27,0.4l0.59-0.891l-4.21-0.72l1.14-0.84l-2.11-4.601
		l0.51-1.29l-1.8-1.619l1.28-4.28l-1.7-0.38l-3.08,3.46h-1.61l-0.25-2.63l-1.35-0.95l1.32-8.01l-3.04-4.67l-0.04-2.801l-6.64-0.46
		l-3.71-13.68l-2.27-0.21l-3.97,4.15l-0.2-0.95l-2.75,1.46l-3.97-6.82l1.23-4.57l4.5-1.779l-3.88-6.08l1.6-4.01l1.97,3.71
		l1.92,0.819l2.76-0.3l2.12-4.15l-0.13,4.341l3.98-0.391l1.15-3.109l2,1.88l3.2-1.44l1.7,2.83l2.63-1.12l-0.52,3.57l5.37,3.87
		l1.77-5.54l4.58,2.18l1.45,3.39l0.9-0.529l-0.78-4.05l-2.39-2.15l1.18-7.93l-4.34-6.301l0,0l-1.88-3.579l2.25-0.851l-1.08-1.63
		l1.83-2.25l5.16-0.69l1.49-1.39l1.52,1.82l1.89-1.19l3.45,1.62L179.07,302.15z"/>
	<path id="GR-H" fill="#1E3250" stroke="#1E3250" stroke-width="0.5" d="M438.91,434.91l1.55,2l-0.52,2.149l-3.881,0.261l0.7-4.561
		L438.91,434.91z M459.08,325.71l8.03,5.7l-1.12,5.76l8.779,5.86l1.41,1.81l0.011,3.88l-3.95,0.99l-1.471,0.24l-3.31-3.08l-1.79,0.7
		l0.18,2.66l-1.17-2.301l-2.14-0.87l3.43-2.25l-0.359-3.68l-2.761-1.09l-2.75,1.16l-2-1.54l-1.369-1.59l-0.65-1.49l-2.4,0.39
		l3.2-4.43l-1.649-3.31l0.609-2.16l2.62-2.49L459.08,325.71z M352.51,318.21l3.17,2.75l3.35,0.97l-0.45,2.62l1.24,2.47l4.06,0.86
		l-0.22,5.92l1.88,2.2l-0.96,0.63l1.91,3.62l10.34,7.84l2.72,0.88l2,1.891l1.79-0.63l1.89,1.079l3.28-2.069l4.69,7.13l9.229,3.92
		l3.141-0.82l5.39,2.07l2.4-2.45l2.47,1.061l3.26-1.641l9.83,3.98l-2.91,2.71l0.051,3.64l9.739,8.29l-3.97,4.57l-0.55,5.74
		l2.319,3.1l-1.439-0.26l-0.82,1.81l2.67,1.55l0.61,2.061l-1.2,2.75l3.01,2.479l-0.39,1.41l1.88,1.811l-0.65,6.67l2.16,3.46l3.891,2
		l1.06-0.67l0.04,2.17l1.92,1.41l4.17-1.271l2.62,2.45l11.08,0.49l3.8-1.761l-1.5,5.74l1.29,5.03l-0.45,4.28l-2.39,5.06l-5.71,3.35
		l-1.96-1.159l-1.2-4.521l-3.649-1.47l-2.37,0.87l-0.54,2.25l1.51,0.859l-1.44,1.94l-1.109-0.26l-6.22-7.181l1.529-2.02l-1.25-2.86
		l-1.819,0.15l-0.311-1.7l-2.25-1.27l-5.22,0.909l1.16-4.149l-3.061-0.76l2.86-4.091l-2.24-5.63l-4.1-1.26l-1.181,2.17l-0.96-1.45
		l3.811-5.359l-0.48-1.301l-1.35-0.279l-2.34,3.41l-1.5-3.23l1.75-0.96l-0.4-3.26l-7.85-1.37l3.26-1.38l-0.85-6.16l-2.75,0.54
		l-1.971-1.64l-2.939,2.109l-6.32,0.25l-6.22-2.43l-3.04,1.92l-8.35-2.87l-4.39,1.57l-2.4-5.54l-0.99-0.9l-2.05,0.82l1.43-3.271
		l1.87,0.15l1-3.49l-3.22-7.279l-7.89-1.851l-1.85-5.53l-3.79-1.81l-1.76-3.82l-3.73-1.56l-5.88-7.47l-3.56-0.601l-7.61-7.66
		l-5.41-2.05l-5.01,1.54l-3.43-1.72l-1-3.26l-6.22-0.78l-1.3,1.77l2.93,0.32l0.77,2.46l-2.91,1.64l-6.5-0.25l-5.03,1.57l1.96-5.21
		l14.08-4.67l3.64-3.94l2.95,0.351l0.97-4.68l3.4-2.761l6.8,0.25l2.06-1.92L352.51,318.21z M181.43,303.68l4.29-2.82l-0.05-1.83
		l1.45,0.2l4.12-3.83l3.85,2.38l2.77-2.86l2.67-0.09l1.63-1.55l4.54,0.32l1.98,2.63l-1.41,1.68l1.04,3.05l3.84,0.99l-1.49,3.94
		l0.4,3.22l4.27,1.13l2.75-1.51l2.59-3.97l1.9,0.27l1.47,3.149l5.2,2.73l2.01,9.01l8.17-2.56l0.77-0.59l-1.04-3.03l2.59-2.55
		l3.56,0.37l4.13-2.79l-0.4-4.42l2.93-1.71l3.88-7.15l1.83-1.2l0.3-3.12l1.42-0.04l2.01,4.2l9.35,1.07l1.54,3.47l2.75,1.18
		l0.54,5.36l5.16,1.189l-1.07,1.851l1.09,5.77l-0.87,2.15l8.48-0.05l1.22,0.93l5.85-1.79l1.73,0.7l-0.18,1.58l2.24,1.96l3.37-0.05
		l0.86,2.1l9.82-0.75l2.05,3.28l4.17,0.819l7.73-4.06l0,0l-2.75,7.05l-1.91-0.93l-1.92,1.79l-0.72,0.93l-1.97,1.141l-5.59-0.841
		L310,335.57l-6.38,2.319l-4.43-2.25l-1.35,1.11l-2.25-0.45l-1.83-2.42l-2.75-0.99l-6.24,3.4l0.56,1.19l-2.48,1.529l4.51-0.779
		l-2.35,1.89l0.17,1.72l1.83-0.75l0.24,1.811l1.09-0.07l1.1-2.06l0.43,2.579l1.97-1.79l1.52,0.65l4.68-2.39l6.33,8.16l5.2-1.08
		l3.67,4.029l3.06-2.52l6.03,3.46l6.07-1.28l2.74,3.78l-0.12,4.39l1.99,4.96l2.01,1.9l2.51-2.24l4.89-0.74l-2.22-2.72l2.92-0.62
		l4.66,4.021l5.6,0.33l2.45,4.14l-3.03,1.96l-0.9,2.25l1.73-0.06l1.71,4.26l0.92-0.73l2.94,1.431l-4.08,0.899l-0.28,2.22l6.63-1.27
		l0.73,1.33l4.61-0.09l4.61,2.189l2.13-3.42l1.26,0.46l3.66,3.92l-2.55,2.101l0.44,0.84l2.61,0.4l-0.28,3.029l3.37,0.66l0.74,5.08
		l4.44,2.95l0,0l-0.11,1.689l-2.1,0.511l-2.57,5.229l0.48,8.13l-1.29,3.57l-4.38,1.67l-1.28,2.06l-4.13,0.511l-1.05-1.96l-3.4-0.681
		l-1.37-5.59l-7.05-0.729l-0.54-1.811l1.81-0.6l0.58-2.22l-1.26-1.811l-5.32,0.82l-2.86,2.6l0.75,4.641l-1.03,1.569l-6-0.55
		l-8.6,2.51l0,0l1.52-1.649l-2.75-2.811l-4.05,4.15l-3.45-0.94l2.09-1.729l-2.43-2.21l-5.65-0.11l-0.89-1l-2.33,0.72l-0.61,1.671
		l2.42-0.591l2.09,2.19l-2.57,0.57l-2.41-1.44l-1.67-4.58l-1.1,1.561l-1.51-1.181l-2.22,0.94l-5.55-1.03l-1.4-1.521l3.09-3.229
		l-9.33-4.67l-0.71-5.38l-2.45-2.471l-2.64,1.23l1.72,1.01l-1.01,1.931l-1.51-1.65l-2.24,1.26l-0.82,3.01l1.94,1.04l-1.68,1.33
		l-0.44,2.98l-2.84-0.41l-3.03-5.09l1.79-1.771l-2.99-4.329l-4.46-5.24l-3.35-0.5l-1.52-2.03l-0.25,1.88l1.62,2.34l-1.96,0.07
		l-1.94,2.35l2.57,3.03l-1.65,0.05l-0.39,2.011l1.43-0.181l-1.58,1.771l-1.7-0.42l-0.02-1.41l-3.15,0.569l-2.21-1.39l-1.09,2.03
		l-3.21-2.8l-4.95,2.79l-0.91,1.96l-2.46-3.221l-1.85,0.141l-1-2.181l-1.96,0.03l-4.73-3.2l-4.25,0.54l-4.15-1.739l-2.06-0.11
		l-3.45,4.1l-4.05-1.189l0,0l2-2.57l0.85-7.49l10.16-5.33l-0.77-3.04l1.79-4.79l-4.06-2.229l2.99-2.18l-1.37-8.28l0.98-2.4l2.35-1.2
		l0.04-1.689l-2.43-3.49l-4.91-0.71l-0.17,4.851l-3.88,1.42l-5.64-1.04l-1.88,5.72l-3.2,1.03l-1.08-4.36l-5.89,1.2l-10.8-3.811
		l-2.31-7.199l2.22-5.351l3.76-0.38l0.68-1.86l-0.85-1.59l-8.2-2.51l-3.29-8.53l-9.56-4.649l-0.34-1.7l3.03-3.28l2.01-5.31
		l-3.03-3.67l-0.03-3.51l0,0H181.43z"/>
	<path id="GR-I" fill="#1E3250" stroke="#1E3250" stroke-width="0.5" d="M351.35,673.81l0.55-1.109l1.78,1.17l0.74,6.52l-3.26-3.55
		l-1.77-5.64L351.35,673.81z M321.2,618.55l2.9,6.58l5.44,3.311l5.01,5.1l-1.06,2.64l-3.34,0.221l-0.65,9.72l-4.33-1.67l-0.89,1.569
		l-1.17-2.09l-3.15-0.689l-2.93-4.641l0.75-1.41l-1.44-2.109l2.31-1.93l-1.11-2.08l0.83-2.08l-2.85-3.79l2.72-6.29L321.2,618.55z
		 M368.67,486.93l-0.07,2.98l0.72-0.7l2.96,1.98l-2.31,1.949l-3.74-0.529l-2.97-1.2l0.14-1.061l4.5-0.779l-0.25-2.11L368.67,486.93z
		 M359.84,477.6l2.67,3.141l-2.47,5.75l-1.01,1l3.81,2.96l-3.06,0.83l8.32,3.71l0.06,1.16l3.63,2.17l0.47,2.1l-2.39,1.68l-6.59,1.29
		l0,0l2.58-5.729l-2.64-0.83l-1.82,1.42l-4.98-0.37l-0.38-1.37l-2.8,0.24l-0.83-2.96l-11.16-3.33l-0.83-3.22l2.8-4.8l0,0l3.95,1.35
		l2.35,3.23l5.6,2.699l3.19-2.26l-3.12-5.43l-2.58-1.23l1.87-2.29L359.84,477.6z M356.79,469.61l1.33,0.05l0.62,1.95l-2.87,2.279
		l-1.47-0.33l1.06-3.439L356.79,469.61z M369.22,462.63l6.88,0.98l-0.99,2.18l-1.69,0.34l-0.93,5.601l-4.05,2.069l-2.8-1.62
		l1.66-1.16l-0.34-1.21l-2.73-2.09l-1.55-3.819L369.22,462.63z M369.4,436.69l3.63,1.67l-0.31,1.64l0.14,0.81l-0.27,0.921l2.04,0.5
		l-0.62,0.859l-0.39,0.63l0.7,1.7l-1.21,1.601l-1.75-0.24l0.17,1.96l-2.39-0.45l-0.45,1.53l-3.71,1.479l-3.73-2.37l0.36-3.92
		l5.58,0.66l2.92-4.49l-6.89,1.28l-0.61-0.66l3.05-1.569l-3.08-0.96h5.04l-0.38-1.69L369.4,436.69z M390.97,398.74l3.24-0.391
		l1.58,1.931l1.92-0.761l2.23,1.91l10.88,3.12l10.699,9.66l-1.359,1.97l1.97,2.271l-8.85,6.239l1.939,4.431l-0.17,3.93l2.811,4.64
		l-1.88,1.221l0.68,4.34l-1.63,1.99l2.84,0.31l1.35,2.311l-3.41,1.439l1.53,2.21l1.63-0.64l1.2,2.069l-1,4.011l3.41,2.91l0.2,1.8
		l-1.141,2.59l0.62,1.54l-2.43,1.21l1.64,5.74l-1.689,0.46l-2.011,3.279l-8.319-2.399l0.58-5.58l-3.141,0.2l-0.75-6.08l-1.46-0.12
		l-1.699-2.89l-4.601-2.45l-1.57,2.41l-0.91,0.34l-0.73-1.84l-0.56,0.25l-1.53-0.33l1.24-2.37l-2.65-1.601l1-1.21l-2.1-1.29
		l-0.82-3.83l-3.35-2.829l0.68-1.171l-3.66,0.12l-1.44,1.44l-0.83-0.86l-0.11-0.569l-1.35-1.011l0.38-1.54l-5.04,0.271l-0.26-2.07
		l1.72-1.37l0.92-0.569l1.71-1.41l-0.4-2.891l-1.84-1.279l-3.04,1.33l-1.79-1.4l-3.03,2.22l-3.27,0.09l-3.28,4.171l-2.45,0.88
		l2.95,1.21l-15.79-0.771l-5.57,2.69l0,0l-1.14-2.22l-5.61-2.44l2.02-3.49l-1.26-0.68l0.25-3.601l0,0l8.67-4.35l0.12-2.02
		l-3.27-0.95l-0.4-2l4.45-0.84l-3.7-1.891l-5.19-0.12l0,0l8.6-2.51l6,0.55l1.03-1.569l-0.74-4.641l2.86-2.59l5.32-0.82l1.26,1.811
		l-0.58,2.22l-1.81,0.601l0.54,1.81l7.05,0.729l1.37,5.591l3.4,0.68l1.05,1.97l4.13-0.51l1.28-2.06l4.38-1.671l1.29-3.569
		l-0.48-8.13l2.57-5.23l2.1-0.51l0.11-1.69l0,0L390.97,398.74z"/>
	<path id="GR-J" fill="#1E3250" stroke="#1E3250" stroke-width="0.5" d="M322.95,604.16l1.25,5.93l-1.87-2.31l-3.11,1.729l0.01-2.91
		L322.95,604.16z M215.15,577.7l1.4,0.29l-0.88,5.04l-2.66-2.75l0.92-3.681L215.15,577.7z M209.81,573.15l1.27,0.42l-0.54,2.05
		l-1.73,0.8l-0.52,2.44l-0.13-5.24l0.81-1.3L209.81,573.15z M195.83,543.87l-0.48,1.939l0.18-1.779l-1.24-0.94l1.65-0.97
		L195.83,543.87z M335.67,517.91l4.41,2.479l-0.18,2.141l-2.4,0.56l-1.97-1.479l-1.99-3.23L335.67,517.91z M356.7,510.41l0.57,1.8
		l-2.52,1.21l-2.49,0.141l-1.64-1.391l3.71-1.62l0.91,1.34L356.7,510.41z M375.62,507.87l1.76,0.67l-7.01,2.55l0.1,2.76l-5.1,0.12
		l-4.56,2.72l-0.21-0.97l-2.83,0.24l8.99-5.95l4.99-2.12l1.65,0.971L375.62,507.87z M322.21,427.8l5.2,2.931l1.26-1.03l1.46,1.25
		l5.72-1.021l0,0l-0.25,3.601l1.26,0.68l-2.02,3.49l5.61,2.439l1.14,2.221l0,0l-4.13,3.51l-10.95,1.399l-5.04-5.1l1.27-3.17
		l-5.38-3.99l-3.16-0.859l1.36-0.91l-3.74,0.399l3.15-2.88L322.21,427.8z M269.07,420.65l3.6,1.3l6.88-0.57l4.57,3.28l8.76,3.3
		l7.89,4.83l5.84,7.43l5.6,3.59l3.84,0.69l5.44-2.35l5.04,5.1l-1.99,3.2l1.31,3.67l9.25-0.12l2.89,1.74l3.27,3.279l0.18,2.96
		l-2.54,2.351l-2.04-0.101l-0.93,2.98l5.09,1.86l-2.05,4.18l1.69,4.06l-1.33,2.101l3.92,3l0,0l-2.8,4.8l0.83,3.22l11.16,3.33
		l0.83,2.96l2.8-0.24l0.38,1.37l4.98,0.37l1.82-1.42l2.64,0.83l-2.57,5.73l0,0l-1.23,0.79l-5.74-1.431l-4.02,1.32l-2.8-0.17
		l-0.78,2.53l-3.31,0.939l0.78,1.43l3.9,1.87l-7.55,0.601l-1.25,2.05l1.8,3.45l-2.75,0.64l-3.67-3.14l-1.49-2.12l2.36,0.729
		l-1.24-1.85l-5.08-1.19l0.71-2.64l-0.96-1.69l3.36,0.12l0.9-3.58l1.93,1.44l1-0.58l-1.96-4.01h-5.88l-1.16-0.79l0.99-0.84
		l-0.87-1.721l-3.7,2.32l-2.78-6.52l-6.84-1.721l-3.89,2.29l-2.92-1.72l0.14-1.88l-3.96-5.13l-5.3,2.81l1.8,5.51l-1.02,3.44
		l1.96,2.54l-0.05,2.51l2.12,1.95l-1.66,3.45l4.02,3.67l4.01,7.78l-0.47,1.26l2.21,1.24l-0.66,1.699l1.82,1.08l3.3,6.15l-1.75,5.09
		l0.48,2.9l1.94,1.14l0.89-1.22l2.26,0.02l0.54,3.061l2.09,0.82v1.38l-1.7,0.17l3.47,5.18l0.23,4.45l-1.3,1.22l1.62,0.55l0.09,3.271
		l3.6,8.649l-0.62,1.301l2.58,2.239l1.53,4.841l1.83,1.51l-2.31,1.57l0.23,3.3l-2.57-1.78l-1.12,1.73l-1.57,0.069l0.4,11.431
		l4.06,5.399l6.78,4.601l-2.13,4.319l3.1,1.55l0.25,1.881l2.53,0.689l0.51,2.08l-5.09-0.01l-1.3,1.42l-3.99-1.23l-2.06-3.75
		l0.53-2.91l-2.72-2.729l-6.27,0.62l-1.31-3.61l-1.52-0.819l0.06-2.53l-6.17-5.16l0.99-0.01l0.23-2.08l-3.23-4.22l-1.56-0.271
		l-1.02,3.65l-1.22-3.07l1.54-3.56l-3.22-9.341l-14.39-0.84l-5.16,3.24l0.83,4.84l-4.84,2.95l0.77,1.02l-0.94,1.5l2.47,1.391
		l0.23,2.439l-3.25-1.909l-1.42,0.899l2.63,4.83l-1.69,1.57l-1.23-1.93l-1.72,0.609l-0.37,9.48l2.79,4.72l-0.19,4.76l-1.75,1.14
		l1.74,3.4l-1.93,0.59l-1.95-6.04l-5.29-3.189l-0.74,1.069l-2.04-0.689l-1.79-3.811l-0.02-1.739l3.84-1.561l-0.39-3.85l-1.28-0.2
		l1.29-1.71l-2.08-1.01l1.16-1.681l-1.2-2.489l1.82-0.42l-1.96-2.38l2.52-3.261l-3.01-0.1l-1.44-1.81l-3.87-11.53l-3.44-2.83
		l-2.79-6.11l-2.23-1.359l-2.67,1.8l-4.11-2.761l1.79-2.67l0.28-8.81l-9.29-1.06l-10.32,5.02l-0.77,13.21l1.5,6.101l2.56,1.729
		l-2.79,1.479l-0.27,2.53l-5.06,4.36l-1.26-3.521l-2.93-2.899l-0.58-3.01l-1.33-0.45l-4.29,2.319l-0.77-1.51l-4.28-1.439l-2.26-8.33
		l2.85-6.261l-2.49-1.52l-2.24,0.74l0.46-1.601l-1.97-4.37l-5.98-6.21l0.69-3.71l-1.39-6.239l1.24-5.471l8.07-6.689l2.16-4.34
		l-1.48-9.87l0,0l1.51-1.261l13.85,0.2l3.8-1.34l-0.8-5.09l9.69-5.811l-4.51-5.09l-2.29-0.739l-3.28-5.5l-3.44-0.271l-3.74,1.78
		l-1-0.87l1.71-10.54l-1.57-6.18l0.16-6.08l1.47-2.45l6.77-5.11l0.8,2.9l2.88,2.46l1.82-0.271l3.6,2.761l6.25,1.819l4.08-4.34
		l2-0.27l0.74,1.45l3.5,1.18l3.31-3.26l4.83-1.48l-3.6-5.76l2.19-2.9l-0.48-4.21l4.64-1.25l1.02-2.51l1.82-0.2l3.5-4.35l1.39-6.55
		l-0.31-6.75l0,0L269.07,420.65z"/>
	<path id="GR-K" fill="#1E3250" stroke="#1E3250" stroke-width="0.5" d="M634.28,482.16l1.3,2.33l-0.771,1.569l-1.329-0.159
		l-0.351-1.58l-3.09,0.46L634.28,482.16z M640.51,475.78l1.92,1.569l-0.47,2.42l1.55-0.02l-2.1,3.76l-2.54,1.16l1.68,2.9l-1.02,2.76
		l-2.761-5.15l0.141-3.47l0.939-0.29l1,2.601l2.12-1.681l-0.279-2.939l-1.7-0.42L640.51,475.78z M627.13,472.26l-3.77,6.221
		l-9.011,6.8l-9.39,1.58l-5.26,4.75l-7.13,0.479l-0.301-2.03l2.961-5.3l6.699-6.899l5.9-0.28l4.41,1.43l8.92-6.01L627.13,472.26z
		 M662.71,458.06l8.07,0.66l2.81,3.04l4.17,0.84l3.34,2.75l1.08-0.869l-2.229-3.65l2.66,0.979l-0.391-1.54l1.25-0.369l0.73,2.08
		l6.01-0.16l-3.7,3.06l1.53,1.48l-0.53,1.1l2.41,0.09l0.65,1.36l-2.92,1.42l-5.11-0.33l-2.56,2.18l-3.53,0.5l-2.78,2.221l-0.22,2.51
		l-1.84,0.56l-5.41-0.56l-4.19-6.26l-2.93-1.561l-6.85,0.811l-1.79,2.6l-2.891,0.7l-2.22-6.41l2.69-3.48l3.75-1.04l3.199-2.899
		L662.71,458.06z M619.91,378.07l0.79,2.439l-1.33-0.27l-0.271-2.84L619.91,378.07z M611.3,374.98l7.47,2.25l-0.27,1.35l-1.78,0.89
		l-1.64-1.45l-2.271,0.141L611.3,374.98z M551.49,374.14l0.39,2.271l-2.79-0.23l1.391-2.26L551.49,374.14z M595.27,367.91
		l3.051,1.729l1.819-0.479l1.94,4.2l3.71,0.159l0.84-1.3l2.08,1.55l0.3,1.851l-0.87,4.56l-2.279,0.79l-0.341,1.4l1.66,0.06
		l1.051,2.051l-1.79,6l0.739,7.55l1.71,1.25l-0.05,2.069l-5.14,4.53l1.18,4.4l-1.52,2.739l-5.41,1.15l-2.37,5.92l-1.64-1.859
		l-2.32-0.37l-1.55-3.181l-2.2,0.271l-0.03-1.59l-3.46-0.99l-0.17-3.32l-1.94,0.08l1.091-3.41l3.8-2.93l4.149,0.479l0.73-3.75
		l1.97-1.47l-0.12-3.569l-3.1-3.49l-1.53-6.471l-7.109-3.67l-2.891-6.069l2.351-3.92L595.27,367.91z M556.65,367.59l3.84,2.12
		l-1.061,6.39l-3.569-1.189l-0.391-2.19l-3.159-3.45L556.65,367.59z M626.24,279.16l1.05,0.39l-1.5,2.21l0.56,0.95l6.221,1.58
		l-4.11,6.68l8.57,5.79l2.399,5.12l3.54,1.45l-0.91,3.05l1.57,0.311l0.89,4.85l4.86,5.85l-0.47,4.15l-4.58-0.49l-3.96-4.149
		l1.88-1.561l-2.72-5.399l-1.94-1.021l-3.09,1.271l0.36,2.97l7.18,7.01l1.18,3.851l-2.31,1.949l-10.73,0.94l-6.449-1.61l-8.37-4.529
		l-4.38-0.07l-1.37,1.35l-4.301-6.42l-3.22-1.42l1.83-2.42l2.75,0.71l2.84-1.43l1.84-2.94l8.341-3.39l1.27-3.23l-2.91-2.29
		l-5.449-0.47l-3.011,1.15l-5.08,10.61l-1.35-0.87l-1.84,2.98l-5.82-2.101l-5.07,0.12l-0.96-2.409l-6.27-2.9l-0.33-1.87l-3.35-2.01
		l1.71,0.23l0.229-8.48l4.38-3.24l-0.029-1.33l1.68-0.05l0.359,1.87l6.15,0.1l2.08-1.72l3.91-0.15l9.54-3.48l1.17-1.36l-1.22-3.89
		l1.569-0.97l11.681,0.71l2.33-1.9L626.24,279.16z M506.25,258.79l3.62,2.97l-6.37,7.54l-0.97-7.61l2.05-4.02L506.25,258.79z
		 M543.85,205.53l0.721,3.5l-4.881,4.16l-0.109,4.06l-2.57,0.02l-0.21,2.34l1.18,0.08l-2.689,1.49l1.439,2.22l-1.26,0.71l0.24,1.84
		l2.56,2.85l-1.869,1.18l0.279,2.23l-4.85-1.29l-1.17-1.67l0.52-1.7l-2.6-0.95l-1.54-2.46l1.89-1.72l-0.689-0.97l1.479-2.48
		l-2.02-1.95l-2.07,0.23l-3.82,3.13l1.04,0.87l-1.85,3.19l2.54,1.01l-0.08,2.48l2.47,2.82l-8.89-0.87l2.22-5.05l-2.45,1.46
		l-1.439-2.02l-6.55,2.06l1.729-2.18l-1.59-0.69l2.16-7.06l-2.23-1.75l-0.729-6.46l5.649-0.24l3.4-2.03l1.02,2.09l1.761,0.01
		l5.52-1.94l1.391,2.04l2.359-0.13l-0.81,3.13l2.27,0.98l-1.34,0.91l1.44,0.83l2.34-3.14l1.3-0.35l0.43-0.84l3.061-2.99l-0.12-1.97
		l2.9,1.52l3.979-3.52L543.85,205.53z"/>
	<path id="GR-L" fill="#1E3250" stroke="#1E3250" stroke-width="0.5" d="M684.43,723.08l1.061-0.12l-1.2,2.51l-3.86,1.74
		l-2.399,3.28l-2.33,0.189l-2.021,2.471l-3.55-2.181l5.36-6.77l2.609,0.56L684.43,723.08z M703.73,679.38l1.189-0.03l0.26,1.95
		l-2.1,4.42l0.7,4.92l-2.4,3.181l0.21,1.81l-2.83,2.86l0.04,3.55l-1.12,0.89l6.09,7.391l-1.699,2.01l0.439,1.99l3.351,1.83
		l-1.13,2.46l-2.221-0.96l-1.05,2.069l-1.63,0.03l-2.05,4.1l1.649,0.301l-3.06,2.729l0.85-1.18l-1.069-1.96l-1.95,0.13l-2.84-2.13
		l3.569-4.67l-1.279-2.721l0.56-4.069l-2.96-2.2l-1.35-3.17l5.22-5.09l0.149-4.801l3.62-4.1l0.061-8.66l2.13,0.12L703.73,679.38z
		 M704.96,671.2l0.92,0.149l-0.62,8.011l-4.359-3.38l1.529-0.29l1.341-4.19L704.96,671.2z M917.32,642.33l-0.49,1.76l1.34,0.771
		l-3.88,2.3l1.1-3.37L917.32,642.33z M738.27,633.5l1.94,0.56l0.37,1.851l-3.99,2.24l0.021-1.181l-2.4-0.27l-3.35,1.33l0.189-3.63
		L738.27,633.5z M749.14,629.44l-1.84,4.43l-0.7-1.521l1.381-1.199l-2.311,0.859l0.1-1.02l1.391-1.62L749.14,629.44z M655.03,620.71
		l1.96,1.86l-1.21,2.069l-0.88-0.449l-1.141-0.75l-0.56-2.16L655.03,620.71z M573.93,616.39l7.811,5.33l-6.99,1.021l-3.72-1.021
		l-0.96-1.7L573.93,616.39z M794.05,610.8l1.12,1.24l-1,3.84l1.66,1.86l-3.44,4.08l0.391,3.189l-3.57,4.7l0.04,3.18l-2.47,2.561
		l-0.971,4.63l-2.84,0.32l-2.7,4.779l-0.479,3.57l2.85,0.43l-2.229,3.28l1.01,2.3l-5.47-2.569l-6.51,3.399l-7.801,12.99l-5.779,4.14
		l-4.28,1.38l1.77-1.649l-3.18-2.45l-1.439-2.9l3.17-8l0.189-9.06l-0.78-1.229l-3.18-0.341l0.271-2.54l-2.66-2.27l7.14-4.03
		l3.48-9.189l3.26-1.12l5.02-5.771l19.811-9.5l6-0.18l3.03-3.96L794.05,610.8z M536.83,612.03l-1.09,0.729l0.569,2.65l-2.54-1.141
		l1.171-4.239L536.83,612.03z M543.22,609.68l5.3,6.181l-0.21,4.97l-3.93,3.18l-7.979-2.85l1.06-0.99l4.33,0.47l1.83-3.51
		l-1.78-4.12l0.38-2.56l-4.229-0.46l-0.271-1.61l1.771-1.1l2.93,0.83L543.22,609.68z M716.48,607.41l3.02,5.21l-0.38,2.34l1.71-0.71
		l1.63,1.84l0.91-1.62l1.14,1.05l-5.319,3.521l-1.65-2.95l-0.96,1.08l-0.82-4.37l-3.67,2.19l-0.07-1.29l-1.72-0.4l0.59-4.83
		l2.7,1.44l1.01-2.311L716.48,607.41z M761.94,601.93l0.939,0.82l-1.8,0.52L761.94,601.93z M699.64,592.01l1.511-0.08l2.3,3.74
		l-1.891,3.17l-6.329-1.63l0.779-4.39L699.64,592.01z M759.34,589.53l-1.88,2.27l1.97,0.72l3.08-1.85l-1.46,1.94l1.97-0.46
		l0.33,0.979l-0.27,2.38l-1.62,0.59l1.62,0.591l-1.38,1.1l1.33,2.05l-2.88,1.44l-1.471-0.511l1.9-2.13l-2.21-1.38l-2.62,0.79
		l1.56-2.569l-4.05,0.199l-0.22-1.689l0.6-0.92l1.12,0.939l1.07-2.99L759.34,589.53z M629.91,589.26l5.27,4.09l1.801,2.971
		l-2.381,0.02l-2.569,0.84l-4.79-0.619L626.16,598l0.439,2.35l-1.59,0.49l2.4,3.36l-3.79,0.359l-1.87-1.619l-1.27,0.42l-1-3.62
		l-1.44-0.74l0.979-0.68l0.32-2.69l0.87-1.33l1.8,0.33l3.021,2.78l3.649-2.7l1.83,1.23l-2.729-5.79L629.91,589.26z M761.25,587.05
		l0.2,2.01h-2.58l0.06-1.239L761.25,587.05z M492.84,586.95l3.47,3.2l3.36,0.89l1.4,2.76l-1.101,1.061l-2.7-0.48l-2.08-3.75
		l-2.959-0.14l-2.12-3.11L492.84,586.95z M696.94,585.67l0.18,0.87l-1.811,0.229l-0.869,3.141l-0.86-3.2l1.5-0.08l0.96-1.75
		L696.94,585.67z M519.77,581.24l1.391,0.359l-2.74,4.181l-6.47,4.37l-1.86-0.04l3.021-6.23l4.01-2.479L519.77,581.24z
		 M453.66,574.82l-0.3,1.51l3.83,1.85l3.71-2.92l3.1,1.17l-1.26,1.78l1.479,4.47l-0.7,2.16l-1.119,1.45l-1-0.57l-3.971,1.9
		l-2.449-1.37l-0.891,1.18l-10.16,1.551l1.41-6.641l-1.04-1.18l2.49-3.91l1.63,2.22l2.12-0.67l0.56,3.96l2.101-0.02l0.89,1.279
		l2.83-1.06l-0.86-2.65l-1.949,0.301l-2.61-3.45l0.41-2.141L453.66,574.82z M471.13,573.15l3.16,0.88l-0.25,3.58l-3.71-0.841
		l-0.98-2.899L471.13,573.15z M532.49,573l2.09,2.56l-0.561,1.351l3.25,0.85l3.57,3.75l-2.01,1.96l1.16,2.75l-0.721,2.061
		l-1.649-0.78l-0.99,1.95l-5.62-8.061l-3.04-0.02l-0.02-6.07l1.149-1.84L532.49,573z M437.05,571.48l0.98,1.189l-1.16,2.63
		l-1.83-1.45l-0.24-2.109L437.05,571.48z M465.38,566.99l1.15,1.439l1.56-0.939l1.24,1.34l-2.641,5.27l-3.209,0.761l-1.811-5.38
		L465.38,566.99z M547.39,564.74l0.051,4.189l-2.131,0.83l-3.189-0.859l4.16-4.67L547.39,564.74z M552,561.68l0.99,4.33l-3.44-2.42
		L552,561.68z M563.06,559.98l1.931,0.699l0.87,2.96l-6.65-0.52l0.62-1.86L563.06,559.98z M710.08,561.1l4.57,0.601l1.43,3.51
		l-16.79,5.86l-5.04,5.409l-6.33-1.05l-5.24,1.73l-1.109,1.18l1.26,2.6l-1.68,1.431l0.66,3.64l-1.87-0.41l-2.57-3.16l-0.15-6.699
		l6.8-0.9l6.87-8.58l8.4-4.37l6.17-0.77l3.85-2.391L710.08,561.1z M595.09,556.45l7.21,4.689l-3.359-0.5l-6.021,1.931L582.38,573.3
		l-3.43,0.19l-2.351,2.13l-4.84-1.67l-0.52-1.62l1.41,0.83l2.47-2.811l5.58,0.44l0.03-1.95l-0.75-0.95l0.56-1.63l9.04-3.71l2.82-2.1
		l-2.011-0.75l0.4-0.98L595.09,556.45z M560.14,555.14l0.601,1.551l-2.681,0.649l0.03-2.03L560.14,555.14z M695.99,554.14l0.83,1.04
		l1.21-1.08l1.6,0.74l-1.95,1.891l2.23,1.859l-3.88-0.37l-2.271-3.78L695.99,554.14z M504.1,552.58l3.7,1.05l-3.8,1.42l-1.4-1.49
		L504.1,552.58z M676.21,547.63l1.26,1.15l-0.68,1.8l-2.92-2.47L676.21,547.63z M636.02,548.21l3.091,1.6l-3.141-0.829l-1.6,0.59
		l0.6,0.76l-1.7-0.28l-0.39-1.96L636.02,548.21z M472.57,544.86l6.01,2.279l5.02,7.29l-5.3,5.891l-4.27-8.59l1.899-1.5l-2.08-0.5
		l0.75-1.011l-0.729-1.89l-1.73-0.46L472.57,544.86z M511.81,544.08l1.101,0.45l-2.79,8.34l1.03,3.49l-5.04-5.091l0.909-0.18
		l-0.449-2.71L511.81,544.08z M674.87,541.05l8.25,3.16l0.66,1.11l-1.87-0.44l2.84,2.8l-0.04,1.51l2.72-1.189l1.551,2.06
		l-2.061,4.051l2.11,1.46l-6.011-0.631l-0.33,2.98l-3.64-0.09l-1.07-2.271l-1.5-0.25l1.811-2.38l-0.73-1.88l1.351-3.91l2.529,0.58
		L679,544.6l-2.44,0.69l0.421-1.82l-3.4-2.22L674.87,541.05z M579.33,534.98l-1.13,0.619l2.01,1.57l-1.03,2.54l-2.87-0.32
		l-1.869-3.729l1.699,1.21l1.431-2.38L579.33,534.98z M525.04,532.63l0.87,0.75l-2.25,1.94l0.96,0.84l3.729-0.57l0.011-3.13
		l2.689,0.92l-3.47,7.17l1.88,3.44l-2.729,4.68l-5.45,3.6l-3.75-0.939l-1-1.58l-1.19,0.76l-1.79-2.899l0.771-5.15l4.38-2.89
		l-2.271-0.58l2.4-2.98L525.04,532.63z M553.03,527.1l4.46,6.101l0.97,3.26l-0.67,3.25l-0.56,1.49l-3.16,13.14l-3.74,0.29
		l-5.36,4.29l-2.239-1.78l0.04-3.97l-3.44-0.96l0.48-2.07l-2.521-3.39l1.29-1.8l-2.45-3.69l-1.53-0.29l0.96-1.84l2.46,0.22l-0.1-2.1
		l3.8-2.95l4.5-1.58l2.841-4.42L553.03,527.1z M667.25,526.91l4.21,1.49l-1.78,2.789l3.46,0.841l-1.43,1.279l2.71,2.94l-0.18,2.27
		l-4.07-0.069l-1.08-1.37l-0.72-0.15l-1.45-2.479l-0.82-1.86l-0.21-1.42l-2.83-1.109l1.2-2.4l2.13,0.37l-0.62-1.05L667.25,526.91z
		 M459.75,526.41l3.1,1.27l-0.819,3.721l1.029,0.47l-0.05,2.93l-1.72-1.68l0.05,2.939l-2,1.19l-0.82-0.3l0.83-1.391l-3.09,0.101
		l0.11-1.641l-4.22,1.79l2.35-7.29l1.84-1.689l1.41,0.52l-0.061-1.08L459.75,526.41z M692.39,515.2l-0.399,1.6l1.39,1.28l-1.45,0.6
		l-0.699-2.39L692.39,515.2z M659.6,512.63l3.021,2.48l2.649-0.28l-0.369,3.63l-1.79-0.39l-0.091-2.141l-1.369,0.83l-2.771-1.26
		l-0.53-1.94l1.19,0.16L659.6,512.63z M645.45,506.85l4.13,4.44l-4.23-1.271l-0.97,1.08l-0.28,2.061l1.931,2.229l-1.33,1.21
		l1.229,2.62l-1.399,0.08l-1.48-0.899l1.25-1.67l-2.56,0.369l1.21-7.59l-0.7-2.239l1.71,1.06L645.45,506.85z M659.82,504.75
		l2.85,2.78l-1.39,1.279l-0.2-1.51l-2.29-1.47l-0.01-2.53L659.82,504.75z M524.57,500.13l1.699,2.18l-0.21,3.131l1.54-0.94
		l0.19,0.97l-0.49,1.891l-1-1.07l-1.96,2.02l0.92-2.8l-1.229-0.75l-1.511-3.75l1.78,0.79L524.57,500.13z M682.44,496.07l0.939,1.16
		l-1.21,2.159l-1.07-1.439l-1.27,1.56l-0.99-3.13l-1.35-0.34L682.44,496.07z M454.37,495.44l-1.15,4.369l1.55,0.2l-0.229,1.351
		l2.43,0.109l1.42,3.561l-1.06,0.93l-0.271-1.229l-1.109,0.199l-1.22,5.67l-4.061,4.29l-2.88,0.841l0.2-3.61l2.85-3.771l-1.09-1.31
		l0.85-4.01l-2.75,0.35l-0.13-1.3l3.19-4.59L454.37,495.44z M535.83,493.33l1.27,0.51l1.311,1.92l1.06-2.01l1.55,0.1l0.631,1.7
		l1.71-0.25l-0.021,1.271l2.88-0.391l-0.21,3.311l-3.26,0.38l-2.13,3.229l-1.15-1.029l-3.37,2.149l-2.42-2.13l-0.93,0.26
		l-1.09-1.319l0.59-0.971l1.47,1.49l0.59-2.42l-1.93-3.979L535.83,493.33z M494.45,491.67l4.01,1.39l1.351,1.86l0.479,3.22
		l-1.3,2.761l1.479,0.229l1.761,3.34l-8.551,4.28l0.62-3.4l-2.66-0.449l2.03-2.761l-1.34-0.8l3.38-1.95l0.04-5.3l-2.189-2.02
		L494.45,491.67z M481.21,478.32l0.58,4.66l-5.34-1.75l1.899-2.681L481.21,478.32z M504.13,473.58l1.05-0.18l2.62,0.89l1.271-0.84
		l0.939,3.28l5.221-0.57l2.859,1.149l3.1,0.2l6.28,3.33l-1.81,8.23l-4.15,1.529l-4.24-3l-2.35,0.23l-1.05-3.39l-3.57-1.53
		l-8.08-7.43l0.07-1.471L504.13,473.58z M446.33,472.51l1-0.09l2.72,1.13l1.641,3.32l-4.75,8.12l-7.11,5.83l0.33-6.28l-1.4-0.51
		l1.021-1.96l-0.851-0.99l2.49-5.75l1.88,0.11l0.87-2.61L446.33,472.51z M428.45,466.16l0.1,2.2L424.5,477l-0.08-4.19l3.021-8.359
		L428.45,466.16z M485.97,437.15l0.04,3.159l3.5,0.98l0.73,5.77l10.52,1.36l0.021,3.09l-1.971,3.19l4.141,3.18l-2.51,4.99
		l4.329-0.061l-4.329,7.351l0.8,2.53l-4.58-3.971l-1.96-5.399l-3.431-1.12l-3.05-5.021l-1.88,0.41l0.32-1.81l-2.891-4.761
		l-5.13,0.24l-1.819-10.16l5.27-3.479L485.97,437.15z"/>
	<path id="GR-M" fill="#1E3250" stroke="#1E3250" stroke-width="0.5" d="M421.2,784.25l4.7,1.32l-0.9,3.189l1.66,2.79l-7.28-3.83
		l-1.17-1.72l2.11-0.08L421.2,784.25z M611.41,734.07l-0.98,1.37l-2.359-0.761L611.41,734.07z M611.11,731.55l0.029,1.57
		l-1.489,0.09L611.11,731.55z M524.42,719.34l2.58,1.69l-0.72,2.989l-5.05-2.079L524.42,719.34z M391.47,694.51l3.27,2.601
		l-1.12,1.85l1.53,11.63l6.23,2.26l12.79,1.69l3.74-0.78l1.38-0.72l0.39-3.16l3.131-0.22l-1.551-3.17l1.08-1.19l3.69-0.85
		l4.649,1.63l2.381,5.23l-1.75,3.979l-2.19,0.979l-6.73-1.649l-1.8,1.87l5.04,2.37l2.931-0.08l3.3,2.439l4.85-2.859l1.86,5.489
		l-0.21,6.521l1.97,1.03l5.56,0.54l6.73-2.07l11.01-0.46l6.08-2l3.43-2.99l4.66-0.87l11.97,2.21l3.62-0.26l1.16-1.35l2.82,2
		l3.37,0.119l1.63-2.229l1.45,1.1l2.63-0.699l0.74,2.29l1.529-0.681l-0.64,3.36l1.37,3.53l9.03-0.66l2.899,0.37l0.61,1.42
		l3.89,0.149l12.26-0.979l6.131,5.149l19.72-6.01l2.66,1.29l7.449-0.6l-1.02,2.609l-2.98,1.53l-0.489,4.33l1.62,3.47l-2.32,1.33
		l0.68,3.29l-1.37,1.55l1.73,5.04l2.93-0.05l4.22,2.23l3.761-5.051l1.359,0.461l2.72-2.11l0.171-1.771l4.5,0.66l1.6-2.13l3.229,0.2
		l2.351-3.22l3.04-0.141l2.18,1.32l2.45-1.17l-0.05,2.67l5.1,0.32l1.68-1.25l-0.46-1.48l3.12-1.36l1.75-4.43l1.7,0.78l3.09-3.021
		l-0.79-1.069l2.41-0.7l-0.27,2.35l-3.66,3.141l1.09,3.6l-0.63,2.62l1.91,2.01l2.33-0.95l0.05,1.86l-3.2,1.37l-0.66,8.729
		l-3.58,5.96l-10.68,4.29l-1.62-0.21l-0.73-2.3L597,768.91l-4.66-2.73l-11.72,2.54l-2.771,1.79l-11.25-1.68l-2.399,1.09
		l-6.021-0.229l-8.31,2.67l-11.47-1.86l-4.2,1.82l-4.15-0.2l-3.2,2.91l-4.83,1.229l-4.96-0.859l-3.83,2.279l-4.54-1.14l-2.51,1.46
		l-8.66,0.46l-7.13-1.689l-4.16,1.899l-5.43,0.25l1.97-3.25l-1-4.43l1.51-2.13l-1.979-7.73l-3.92-1.84l-12.19-0.14l-3.52-4.69
		l-5.72-0.689l-6.141-4.761l-3.21,1.221l-2.49-0.811l-3.569,1.61l-4.82-0.641l-2.979-2.22l-3.881,1.04l-1.869-1.2l-9.11,0.71
		l-4.14-3.689l-5.61,0.81l-8.63-2.859l-5.58,2.199l-0.72-1.14l-12.57,0.91l-3.48-0.851l0.05-2.47l-3.31-1.04l-2.54-3.729l3.12-1.87
		l-1.69-1.78l0.18-4.689l3.34-4.83l0.1-2.391l-1.36-1.25l2.33-3.85l-1.33-1.95l1.72-5.71l-0.66-3.14l1.26,0.689l0.4-4.83l1.29,2.98
		l-0.77,1.09l1.09,8.08l3.66,2.18l5.66-1.02l1-4.141l-1.88-5.59l0.76-2.32l-0.87-2.819L391.47,694.51z"/>
	<path id="GR-69" fill="#1E3250" stroke="#1E3250" stroke-width="0.5" d="M415.57,170.11l1.08-3.03l-0.86-5.66l0,0l-0.59-5.71
		l-0.98-0.21l1.49-1.61l2.39,6.24l3,3.67l6.511,1.68l1.409-0.67l3.24,1.86l0.62,2.85l4.39,1.16l2.07,2.36l1.391,4.78l8.71,7.42
		l1.52,5.07l-8.5,3.21l-2.25-5.56l-5.37-4.22l0.061-2.41l-5.33-7.32l-10.931-1.51L415.57,170.11z"/>
</g>
</svg>
