<?xml version="1.0" encoding="utf-8"?>
<!-- Generator: Adobe Illustrator 15.0.0, SVG Export Plug-In . SVG Version: 6.00 Build 0)  -->
<!DOCTYPE svg PUBLIC "-//W3C//DTD SVG 1.1//EN" "http://www.w3.org/Graphics/SVG/1.1/DTD/svg11.dtd">
<svg version="1.1" id="Layer_1" xmlns:amcharts="http://amcharts.com/ammap"
	 xmlns="http://www.w3.org/2000/svg" xmlns:xlink="http://www.w3.org/1999/xlink" x="0px" y="0px" width="636.5px" height="398.5px"
	 viewBox="0 0 636.5 398.5" enable-background="new 0 0 636.5 398.5" xml:space="preserve">
<defs>
	
	
		<amcharts:ammap  projection="mercator" leftLongitude="16.113634" topLatitude="48.586316" bottomLatitude="45.736783" rightLongitude="22.897693">
		</amcharts:ammap>
</defs>
<g>
	<path id="HU-BK" fill="#1E3250" stroke="#1E3250" stroke-width="0.5" d="M257.38,208.68l0.72-1.85l-1.69-2.87l6,1.35l4.05,2.63
		l8.57-8.29l3.31,0.13l0.81,1.25l2.03-4.66l3.42-1.97l7.01,5.69l-4.65,7.58l3.71,5.28l2.59-4.83l5.64-4.09l4.39,1.28l2.67-8.76
		l5.08,1.89l2.21-2.05l5.05,11.9l4.04,4.57l0,0l-3.22,1.34l-7.57-2.3l-3.62,4.87l-1-1.05l-2.54,2.45l5.06,6.18l0.54,3.86l2.04,0.02
		l3.45,2.61l3.18,3.79l-0.38,1.73l3.89-0.24l1.71-3.07l5.03-1.17l1.02-2.21l3.39,2.96l4.37-5.99l-2.36-6.76l0,0l4.06-6.92l9.71,4.43
		l1.29-4.82l6.4-2.56l2.29,1.5l0,0l4.18,3.14l-0.52,2.86l-2.46,1.16l0.01,1.41l3.28,0.44l1.54,2.83l-6.55,5.3l-2.61-0.29l-1.13,2.53
		l-0.94-0.88l-3.53,1.91l1.5,2.02l2.15-0.42l0.34,1.13l-3.13,0.57l-0.12,2.18l2.67,1.76l-0.22-3.04l1.06-0.51l1.57,2.59l0,0
		l-8.46,10.02l3.91,4.22l-2.77,7.7l1.21,1.66v4.32l-4.71,5.5l-4.7-3.9l-10.01,6.3l2.64,3.28l3.62-0.68l4.11,4l0.53,2.52l-1.52,2.22
		l1.58,3.15l-1.83,4.52l-2.11,1.79l-3.44-2.32l-6.8,5.25l-2-1.55l-5.95,1.9l3.19,5.45l-4.93,5.3l5.48,9.95l0,0l-1.25,0.86
		l-1.76-1.21l-2.64,2.59l-6.15-0.99l-0.92,1.95l-4.5,2.43l1.81,3.23l-5.38,3.109l0.04,1.86l-4.53,4.51l-3.1,1.33l-1.48-1.989
		l-7.35,4.67l1.25,3.399l-1.02-1.069l-12.42,0.029l-1.08-5.04l-2.66-0.46l-3.67,5.07l1.26,4.61l-6.01,0.119L260,349.86l1.18,3.04
		l-9.17-1.41l-2.46,2.45l-1.46-0.551l0.37,1.311l-4.92,0.22l0,0l-1.4-1.25l0.69-1.66l4.33-1.5l-2.31-2.09l3.52-7.59l-1.97-2.91
		l2.18-0.87l-2.51-1.26l-0.88-4.43l1.25-1.391l-2.7-1.12l0,0l-0.09-1.409l1.24,0.56l0.79-2.16l-3.62-1.08l0.08-2.29l2.35-1.45
		l0.28,3.33l2-5.619l1.75-0.601l0.21-3.51l-3.32,2.31l-1.17-0.8l4.72-3.95l-0.84-3.97l4.18,1.04l0.99-5.91l-2.12-3.58l-1.21-8.24
		l3.25-6.9l0.04-3.79l-2.38-5.66l-0.25-5.59l-2.93-6.08l2.08-3.23l7.59-2.6l3.25-4.96l-2.8-10.54l-4.21-5.61l-0.16-5.42l0,0
		l2.97-8.05l0,0l0.33-11.08l0,0L257.38,208.68z"/>
	<path id="HU-BA" fill="#1E3250" stroke="#1E3250" stroke-width="0.5" d="M174.87,304.5l2.1,0.76l2.27-1.21l1.94,2.54l0.68-0.94
		l-1.46-0.66l-0.09-2.97l1.75-0.86l1.56,1l4.53-2.97l-1.42-7.47l3.76-1.6l3.68,0.84l4.25-2.01l2.83,2.49l0.47,4.86l3.28,1.69
		l-1.05,7.02l3.52,0.4l0.56,1.5l-1.75,4.83l-3.61,1.5l0.79,1.52l8.66-4.84l1.28-1.86l-0.13-3.97l2.6,1.33l1.46,2.56l0.98-0.989
		l0.53,0.81l-0.86,5.521l3.83,1.159l-0.69,1.311l2.17,3.72l1.94-1.01l6.8,8.189l0.7-0.64l5.07,3.04l5.93-0.22l0,0l2.7,1.12
		l-1.25,1.39l0.88,4.43l2.51,1.261l-2.18,0.869l1.98,2.921l-3.53,7.59l2.32,2.1l-4.33,1.5l-0.69,1.66l1.4,1.25l0,0l-0.39,3.84
		l-1.3,0.18l-8.02-5.079l-3.99,0.119l0.14,2.561l-1.9,1.1l1.11,1.641l-1.36,1.029l-0.69-1.119l-1.44,2.92l0.7,1.79l-4.43,3.18
		l0.01,1.83l-1.42-0.351l-3.33,2.58l-2.75-1.43l-0.84,3.65l-3.2,0.54l0.13,3.149l-3.66-0.42l-3.84-4.21l-2.4,3.42l-3.68-1.8
		l-4.771-0.17l-1.28-2.19l-3.9-1.109l-1.62,1.39l-4.2-1.66l-1.69,2.63l-1.94,0.49l-7.61-3.78l-6.26,1.34l-2.07-0.819l-4.02,3.37
		l-3.37-5.7l-5.99-0.28l-1.72-2.32l-6.27-0.659l-1.57-1.65l0,0l1.59-0.52l1.47-2.78l0.81,1.85l0.72-1.069l2.17,0.39l0.64-1.73
		l-0.13-2.729l-3.14-3.48l0.04-1.84l-2.84-0.1l-0.72-1.601l0.14,2.21l-1.44-0.149l-1.78-6.37l2.72-0.78l-2.29-6.85l4.03-2.351
		l0.53-3.67l-1.36-1.489l1.86-0.99l0.16-6.19l3.46-6.479l-0.91-1.88l1.75-1.33l1.25,3.55l1.81,0.6l2.26-3.34l4.54,2.26l2.98-2.08
		l3.67,0.271l1.11-0.96l-0.35-3.601l2.18-6.25L174.87,304.5z M188.27,324.91L188.27,324.91l-3.12,2.18l0,0l0.66,2.23l-3.79,0.12
		l1.69,4.359l-0.52,2.63l3.66,2.11l2.98,3.69l0,0l5.16-2.021l0.79-4.37l0,0l3.1-4.58l3.83,0.58l0.77-1.229l-1.41-3.94l0,0
		l-3.12-4.11l-6.89,3.351L188.27,324.91z"/>
	<path id="HU-BE" fill="#1E3250" stroke="#1E3250" stroke-width="0.5" d="M438.62,182l3.93,0.69l2.87,4.46l1.19-2.09l5.659,4.47
		l6.5,0.86l2.711,2.34l6.55-0.34l-0.13,4.24l-1.37,1.04l0.62,3.21l-5.23,3.9l0.88,3.08l-1.2,1.86l11.271,5.59l7.53,1.03l-1.53,3.97
		l1.99-1.84l3.329,1.92l1.58-1.75l6.15-0.94l0.1-5.38l3.17,0.55l2.351-3.22l0.939-0.55l0.25,1.31l1.49-1.07l0,0l1.76,0.77l0.91,2.26
		l-1.899,3.84l1.239,1.09l-3.899,3.98l-3.41,0.79l1.34,5.45l-1.2,2.87l-7.21,3.59l-0.12,4.75l-3.199,4.62l3.8,3.56l0.17,2.48
		l-3.2,4.51l-1.88-1.25l-3.62,0.2l2.15,4.09l-3.19,2.17l-0.89,3.04l-3.9-1.92l-4.79,2.57l-1.02,3.52l1.56,1.14l-2.59,4.74
		l-1.43,0.52l-1.33,5.32l1.2,3.17l1.989,0.16l1.45,4.45l-2.08,3.43l0.5,1.11l-6.479-0.89l-1.521,1.49l-0.689,7.26l-2.2,2.28
		l0.58,3.14l-6.021,0.56l-1.06,4.93l-3.53,2.42l-2.45-0.74l-1.159-2.18l-6.471,0.311l-0.609-1.79l-1.771,0.27l-0.729,1.77
		l-3.931-3.25l-8.71,1.6l0,0l-2.439-1.87l0.859-7.97l-1.75-4.43l-4.199,0.65l-0.91,3.7l-5.29,0.05l-4.2-2.08l-2.66-3.44l0,0
		l3.09-1.83l-0.07-4.29l0,0v-1.74l2.221-0.7l0.82-9.03l-3.9-3.71l-0.12-11.4l0.63-4.68l1.23-0.03l-0.96-5.95l1.47-4.37l-2.99-2.34
		l-5.13,0.05l-4.94-4.81l-2.73,1.08l0,0l-1.37-7.23l4.53-5.05l5.03,0.21l2.6-1.13l0.75-1.78l4.229-0.1l3.971,2.32l5.569-2.15
		l2.131-5.12l-2.08-0.32l1.979-0.26l-0.27-1.96l-1.25-0.45l0.02-7.2l1.48,0.13l2.8-2.76l0.229,2.18l4.44-0.03l0.21-1.61l3.16-2.55
		l1.52,0.58l-1.84-5.88l0.24-1.31l2.01-0.46l-1.77-3.58l8.89-5.15L438.62,182z M446.26,247L446.26,247l-7.46,2.66l-2.21-1.51
		l-3.7,3.32l2.11,2.57l1.43-0.03l2.74,4.19l-2.15,5.29l15.11-4.14l3.22-3.38l2.16,0.85l2.29-1.39l-0.28-2.62l-2.42-2.89l-2.18-0.1
		l-1.47-1.64l-5.73,1.97L446.26,247z"/>
	<path id="HU-BC" fill="#1E3250" stroke="#1E3250" stroke-width="0.5" d="M446.76,247.83l0.95,2.33l0,0l5.73-1.97l1.479,1.64
		l2.18,0.11l2.42,2.88l0.28,2.63l-2.3,1.38l-2.15-0.85l-3.22,3.39l-15.11,4.13l2.15-5.29l-2.74-4.19l-1.43,0.02l-2.11-2.57l3.7-3.32
		l2.21,1.51l7.46-2.66l0,0L446.76,247.83z"/>
	<path id="HU-BZ" fill="#1E3250" stroke="#1E3250" stroke-width="0.5" d="M480.64,0.01l6.801,4.88l2.43,5.71l6.34-0.31l4.54,15.44
		l3.69,1.92l2.1,4.51l8.7,2.33l1.34-4.44l1.689,0.01l0.66,1.45l2.09-0.62l0.11-1.59l0.28,0.98l0.49-0.95l2.71,1.14l1.92-2.29
		l3.37,0.31l3.83-2.2l2.529,2.04l1.84-1.22l0.931,1.93l0.84-1.24l2.03,0.4l0,0l0.479,2.5l-1.77,0.06l1.67,1.1l-3.78,3.6l0.86,2.3
		l-2.221-0.27l0.051,1.39l-1.561-0.93l1.09,1.18l-0.689,0.97l-1.811-2.03l0.09,1.19l-2.02,0.03l1.04-1.92l-1.13,0.15l-2.67,2.43
		l-0.15,2.31l-0.96-0.4l-2.25,2.63l-0.66-0.67l-1.74,3.23l-2.1-0.87l-4.04,0.8l-0.91,2.13l-1.02-2.48L515.3,48l-1.09-1.09
		l-1.04,3.44l-1.54,1.54l-1.17-0.63l-1.85,2.32l0.08-1.75l-2.46,0.21l-0.33,1.58l-5.03-0.09l-4.82-0.561l-3.149-1.85l-5.511,3.16
		l0.36,1.32l-3.71-0.62l-0.83,1.85l-2.51-1.59l-2.57,7.56l3.25,4.22l-1.57,0.34l0.381,1.44l2.27,0.73l-2.229,0.83l-0.091,2.5
		l-2.12-0.68l-0.529,2.58l-4.83,0.01l-1.57,1.56l-3.52-1.06l-0.11-1.26l-2.71,0.08l-1.06-2.22l-2.73,2.14l-0.44,2.19l-4.43-0.46
		l-0.37-2.43l-3.02-0.38l-4.84,5.64l3.89,5.88l0,0l-0.98,4.06l-1.729,1.46l3.02,0.98l-3.77,2.96l0.01,3.55L445.8,99l2.101,4.45
		l-3.23,9.01l-4-0.17l0.03,4.28l-4.49,0.93l-1.29,2.85l-2.99,1.12l-1.489-1.729l0.149,2.56l1.36,0.38l-4.58,0.42l2.29,3.2
		l-0.58,0.82l-3.8-3.39l0,0l-3.04-1.76l-2.76,2.04l0.609,1.61l0,0l-5.88-4.64l-5.94,0.28l-5.26-3.17l-0.819-1.08l2.069-2.78
		l-8.149-8.3l-0.03-8.17l-3.5-1.55L391,93.45l0,0l2.21-2.13l0,0l2.55,0.6l-0.77-1.26l2.399-1.79l-6.189-5.44l3.58-7.23l-0.99-4.75
		l2.35-1.36l0,0l11.15-0.87l3.68,2.97l3.3,0.81l1.48,3.12l3.52-1.86l4.471-0.09l3.189-2.13l1.13-3.66l-1.199-0.52l0.34-4.17
		l-1.55-2.58l-4.181-1.23l-2.27,0.62l-2.351-2.41l-1.01,1.16l-6.06-0.34l-5.021,3.06l-7.09-0.26l-3.83,1.92l0,0l-2.63-4.64
		l-4.26-0.4l-1.37,0.56l0.33,1.71l-2.36,2.83l-0.65,3.18l-3.63-4.12l-2.76,0.05l-0.73,3.35l-3.13,1.07l-6.64-3.229l-0.72-2.92
		l-6.4-1.07l0,0l-3.74-3.41l0,0l2.57-2l-0.91-0.86l0.78-0.96l4.93-3.58l0.36-4.12l6.49,0.29l-0.4-1.3l2.3-0.18l-0.1-2.02l1.23-0.44
		l4.09,2.53l3.6-1.46l1.06-3.62l6.61-9.05l0.64-7.33l8.17-9.36l-0.5-5.53l1.46-0.95l1.6,1.29l1.03-2.26l3.439,1.33l6.46-3.57
		l16.921-3.15l-0.601,1.06l2.49,3.29l4.66-0.85l3.569,4.79l2.19,0.7l2.92-2.021l4.61,0.8l2.55,1.25l0.57,2.57l1.88,0.88l2.6-3.33
		l2.66-0.28l3.75-2.61l7.67,2l1.38-5.22l8.51,0.3l0.7-2.76L480.64,0.01z"/>
	<path id="HU-BU" fill="#1E3250" stroke="#1E3250" stroke-width="0.5" d="M270.25,131.44l4.12,3.44l-0.78,0.98l2.6,1.74l-1.17,0.68
		l0,0l2.13,2.24l2.21,0.28l0,0l1,1.05l2.22-0.61l1.69,3.8l4.96-0.91l-0.39,2.99l1.79,3.9l-3,0.91l-1.84,2.79l-1.39-0.28l-5.37,5.64
		l-2.4,4.58l-3.61,1.54l-3.83-3.88l0.63-1.03l-1.94-2.39l-4.64,2.92l-1.01-1.17l-5.68,2.11l-0.03-5.9l1.72-1.59l-0.54-2.61
		l1.08-1.34l-1.73-2.84l-2.46-1.2l0.88-1l-1.08-1.03l0.8-1.59l-1.44-0.47l0.83-2.81l-0.87,0.02l1.29-1.04l-1-2.78l9.46-2.01
		l-0.79-2.35l1.54-0.78l3.18,0.41l-0.32,2.65l1.98-3.04l0,0L270.25,131.44z"/>
	<path id="HU-CS" fill="#1E3250" stroke="#1E3250" stroke-width="0.5" d="M358.93,320.7l2.06-3.99l1.95,0.59l3.55-1.49l5.35,11.221
		l0,0l-4.87-4.5l-3.73,1.84l-2.83-2.12l-0.46-1.96L358.93,320.7z M400.03,292.12l2.66,3.44l4.21,2.09l5.29-0.05l0.909-3.7l4.21-0.65
		l1.75,4.43l-0.859,7.97l2.439,1.87l0,0l-2.27,3.54l0.83,5.53l-2.75-0.32l-1.4,5.5l-3.31,2.841l-1.9-0.95l-1.51,3.17l-8.52-6.87
		l-4.11-1.68l-0.41,2.87l-2.81,3.17l-7.51-1.801l-1.23,1.181l-1.17-2.51l-5.95,3.09l-3,3.8l-0.53-0.66l0,0l1.41-0.71l1.3-8.8
		l-5.34,0.13l-1-5.2l8.11,0.47l-0.12-8.49l0,0l8.19-1.04L400.03,292.12z M388.64,238.37l2.73-1.08l4.95,4.81l5.13-0.05l2.99,2.34
		l-1.471,4.37l0.96,5.95l-1.229,0.03l-0.63,4.68l0.12,11.4l3.899,3.71l-0.82,9.03l-2.22,0.71v1.74l0,0l-6.359-0.13l-4.8-6.7
		l-1.56,0.21l-1.46-2.42l-3.96,2.18l-1.29-2.27l-6.06,0.24l0.57,2.88l-3.99,0.95l1.52,2.7l-4.01,3.97l-2.03-0.81l-0.04-4.12
		l-1.67,0.82l-1.55,7.65l0,0l0,0l0,0l-2.18,0.84l0.11,3.86l2.4,1.79l-0.97,2.61l-8-2.08l-0.49,5.78l-4.54-1.67l-4.53,4.21l3.24,2.64
		l5.98,1.98l-2.15,3.56l1.53,4.471l-3.93,1.909l0,0l-8.33-0.649l-10.31,6.14l-5.18-2.35l-5.77-5.36l0,0l-5.49-9.96l4.94-5.3
		l-3.19-5.44l5.96-1.9l1.99,1.55l6.8-5.25l3.44,2.32l2.11-1.79l1.83-4.53l-1.58-3.14l1.52-2.22l-0.53-2.52l-4.11-4l-3.62,0.68
		l-2.64-3.28l10.01-6.3l4.71,3.9l4.7-5.49l0.01-4.32l-1.22-1.66l2.77-7.69l-3.91-4.22l8.46-10.02l0,0l2.61,5.5l1.53-0.55l0.34-2.4
		l5.67,4.18l5.32-5.95l2.12,0.56l3.2,3.49l3.27,0.85l1.91-3.11l4.68-0.12L388.64,238.37z"/>
	<path id="HU-DE" fill="#1E3250" stroke="#1E3250" stroke-width="0.5" d="M480.27,142.57l-0.18-2.73l2.88-7l8.74-1.49l6.42-3.2
		l-1.21,4.26l3.08-3.08l6.61,1.72l-2.04,6.57l4.359,0.54l5.74-4l4.55,3.8l-1.109,7.03l-3.351,6.1l-2.16-0.28l-3.47,3.26l-7.01,2.3
		l-1.2-3.39l-1.56-0.69l-3.61,0.3l-4.86,3.37l-2.54-12.1L480.27,142.57z"/>
	<path id="HU-DU" fill="#1E3250" stroke="#1E3250" stroke-width="0.5" d="M256.41,223.09l-6.75,0.92l-6.47-9.77l4.48-1.87l9.07-0.36
		l0,0L256.41,223.09z"/>
	<path id="HU-EG" fill="#1E3250" stroke="#1E3250" stroke-width="0.5" d="M391,93.45L388.65,94l-0.49,3.97l-5.89,0.67l0.29-1.77
		l-3.38-3.7l0.87-0.95l-2.19-9.08l2.51-4.96l4.87,2.43l-0.58,2.65l2.01,3.87l2.6,1.69l1.73-1.4l1.35,0.77l0.86,3.13l0,0L391,93.45z"
		/>
	<path id="HU-FE" fill="#1E3250" stroke="#1E3250" stroke-width="0.5" d="M232.29,135.76l0.54,6.16l2.94,5.33l2.21,0.04l2.98,4.5
		l0.33,3.99l-2.82,3.3l9.44,10.97l-0.24,2.15l1.73,0.41l0.16,2.94l3.56,0.72l-4.15,16.17l2.36,10.18l6.05,6.07l0,0l-0.64,3.34l0,0
		l-9.07,0.36l-4.48,1.87l6.47,9.76l6.75-0.92l0,0l-2.97,8.06l0,0l-5.71,1.3l1.42,1.32l-1.25,2.19l-5.99,4.26l-0.1,2.38l-4.26,0.47
		l-2.72,2.09l1.26,3.03l-7.15,5.13l-2.14-0.26l-1.28-7.27l-3.68-1.64l-1.63-3.19l-4.48,2.48l0.55,2.31l-4.13,0.72l-3.59-0.91
		l-0.38-5.49l-1.36-1.97l-0.18,4.58l-2.17-2.72l-1.41,1.72l-4.54-1.72l-0.81-3.61l-5.12,4.56l-3.53,0.72l0,0l-1.29-5.44l1.06-2.12
		l-0.88-3.73l0.96-0.49l-1.83-0.64l2.3-1.96l-1.91-5.69l-2.79-3.65l0,0l6.66-7.38l2.37-0.71l-2.36-0.29l-2.86-7.45l2.75-2.18
		l-2-8.16l1.08-7.81l-4.4-3.14l-1.57-3.43l-4.57,2.17l-2.86-4.19l-1.6,0.41l-0.89-3.62l1.66-1.98l-1.93-0.29l-0.72-1.67l0,0
		l1.55-2.19l2.97-0.94l-0.67-1.86l2.5-3.65l0.78-6.06l2.11-1l1.27,1.65l2.66-0.41l1.07-1.21l-0.59-3.22l4.92,2.4l0.5,3.05l5.81,4.65
		l1.61-1.94l4.15-0.36l-2.31-2.53l0.42-1.12l1.68-1.94l1.66,1.3l3.04-4.62l2.25-1.04l0,0l3.29-2.6l-1.16-1.85l1.6-0.31l-0.64-2.93
		l3.68-0.68l0,0l4.39-2.53l3.66,1.32L232.29,135.76z M208.95,174.85l-1.8,0.92l0,0l-0.42,2.63l-7.5,7.9l4.02,7.17l1.68,0.89
		l0.32,5.83l5.35-2.06l1.07,1.39l3.41-4.11l4.67-1.36l-1.85-4.39l-1.89,0.12l1.1-2.83l-1.89-3.51l1.55-2.16l-2.74-3.1l-2.99,0.2
		L208.95,174.85z"/>
	<path id="HU-GY" fill="#1E3250" stroke="#1E3250" stroke-width="0.5" d="M135.48,117.76l4.71-3.25l2.45,1.87l6.38-0.71l3.75,2.38
		l1.92,5.29l-12.38,6.55l-2.89-0.9l-3.02,5.31l-5.84-0.49l-3.63-1.81l-0.66-2.49l4.36-1.02l0.92-6.24L135.48,117.76z"/>
	<path id="HU-GS" fill="#1E3250" stroke="#1E3250" stroke-width="0.5" d="M102.16,76.95l1.85,2.8l6.11,0.32l8.44,9.11l2.62,5.65
		l6.7,2.84l3.07,6l3.98-0.56l9.29,8.74l6.41,2.29l6.94-0.88l3.13,0.9l0,0l0.84,5.14l-1.44,8.58l3.85,2.71l-2.38,7.62l2.9,1.57
		l-2.54,0.92l-2.34-1l2.48,6.89l-2.04,0.87l0.14,1.76l-1.41-0.03l1.17,1.93l-1.39,0.83l0,0l-3.61-4.67l-1.87,2.49l-1.33-2.36
		l-3.75,4.64l-2.49-2.29l0.29,2.71l-2.35,0.43l-0.19-2.87l-2.53-0.11l-3.01,2.69l-1.86-1.76l-1.44,1.13l-3.27-4.1l-2.86,2.72
		l-8.69-2.87l-1.82,1.46l-3.09-0.78l-1.86,5.43l-8.99,1.73l-3.27-1.16l-0.82,0.97l-2.24-1.69l-1.89,1.58l0,0l-2.63-0.74l-1.75,2.729
		l-6.83,3.07l1.79-6.15l-1.51-2.67l-7.96,5.88l-1.94,2.78l-2.99-3.14l-2.44,0.69l-3.14-4.65l-3.46,1.88l-0.56-1.17l-1.4,0.94
		l-0.54-0.89l-6.19,4.19l-3.28-1.12l-2.86-3.48l0,0l2.14-3.69l-1.58-3.45l3.34-1.38l2.37-3.93l-4.64-3.75l1.07-1.44l-0.38-3.49
		l-1.65-2.35l-7.52-0.21l0,0l4.19-2.23l6.49-1.19l2.03,1.06l3.29-5.7l0,0l7.33,0.2l3.48-5.09l0.54,4.14l1.04,0.2l18.71-2.66
		l-1.82-2.54l-1.66-8.78l1.99-2.09l-2.37-2.61l0.42-1.34l-3.73-2.84l0.65-1.22l6.03-0.8l1.44-2.66l-0.38-1.68l1.6-2.6l-1.97-1.24
		l2.18-3.38l-1.93-1.42l6.92-5.54L102.16,76.95z M131.55,122.25l-0.92,6.24l-4.55,1.95l0.85,1.56l7.3,2.64l2.17-0.33l3.02-5.31
		l2.89,0.9l12.39-6.54l-1.92-5.29l-3.75-2.38l-6.38,0.71l-2.44-1.87l-6.07,5.07L131.55,122.25z"/>
	<path id="HU-HB" fill="#1E3250" stroke="#1E3250" stroke-width="0.5" d="M451.75,84.45l6.57,0.52l5.899,4.28l1.061,2.97l4.42-2.13
		l15.859-0.66l1.9-2.35l2.271,0.89l0,0l1.979,0.83l-0.81,1.72l0,0l0.84,3.84l-2.021,12.93l5.23,2.5l3.399,5.98l6.101-0.41l1.21,3.28
		l4.76,0.31l-0.43,2.17l5.85,2.86l4.78-4.25l0.3-3.5l3.28-0.94l5.52,3.86l-0.46,3.66l2.61,1.56l-0.69,2.62l1.601,3.06l4.899-6.65
		l2.58,1.62l2.391,8.24l0,0l-2.98,4.92l-3.67,1.49l1.35,1.63l-0.829,1.08l-1.431-1.37l-2.229,3.05l-1.23,5.34l2.23,3.34l0.2,5.17
		l-2.221,4.7l-6.31,0.45l-5.48,11.35l0.79,1.9l-3.279,4.81l0.619,6.53l-3.71,2.16l-2.319,8.53l-5.9,1.19l-3.99,6.93l-2.92,0.59
		l0.86,2.3l0,0l-1.49,1.07l-0.25-1.31l-0.939,0.55l-2.351,3.22l-3.17-0.55l-0.1,5.38l-6.15,0.94l-1.58,1.75l-3.33-1.92l-1.99,1.85
		l1.53-3.97l-7.52-1.03l-11.271-5.59l1.2-1.86l-0.88-3.08l5.23-3.9l-0.62-3.21l1.37-1.04l0.13-4.24l-6.551,0.34l-2.71-2.34
		l-6.5-0.86l-5.659-4.47l-1.19,2.09l-2.87-4.46l-3.92-0.69l0,0l3.98-2.85l1.05-12.03l-3.45-17.12l1.06-2.46l-1.52-2.3l0.1-7.87
		l-4.14-3.92l-4.78,1.92l-4.399-2l-1.71-5.63l0.489-3.99l0,0l3.8,3.39l0.58-0.83l-2.289-3.19l4.579-0.43l-1.359-0.37l-0.141-2.57
		l1.49,1.74l2.99-1.12l1.29-2.85l4.49-0.94l-0.04-4.28l4.01,0.17l3.229-9.01l-2.1-4.45l2.5-1.54l-0.01-3.55l3.76-2.95l-3.01-0.98
		l1.729-1.46L451.75,84.45z M488.35,143.86l2.54,12.1l4.851-3.36l3.62-0.31l1.56,0.69l1.2,3.39l7-2.3l3.479-3.26l2.16,0.28l3.36-6.1
		l1.11-7.03l-4.561-3.8l-5.74,4l-4.359-0.53l2.04-6.58l-6.601-1.72l-3.09,3.08l1.21-4.26l-6.42,3.2l-8.74,1.48l-3.18,8.68
		l0.479,1.05l4.94,0.79L488.35,143.86z"/>
	<path id="HU-HE" fill="#1E3250" stroke="#1E3250" stroke-width="0.5" d="M358.89,60l6.4,1.07l0.72,2.92l6.64,3.229l3.13-1.07
		l0.73-3.35l2.76-0.05l3.63,4.12l0.65-3.18l2.36-2.83l-0.33-1.71l1.37-0.56l4.26,0.4l2.63,4.64l0,0l0.17,3.27l2.13,3.19l0,0
		l-2.35,1.36l0.99,4.75l-3.58,7.23l6.189,5.44l-2.399,1.79l0.77,1.26l-2.55-0.6l0,0l-0.86-3.13L391,87.42l-1.73,1.4l-2.6-1.69
		l-2.01-3.87l0.58-2.65l-4.87-2.43l-2.51,4.96l2.19,9.08l-0.87,0.95l3.38,3.7l-0.29,1.77l5.89-0.67l0.49-3.97l2.35-0.55l0,0
		l1.58,2.76l3.5,1.55l0.03,8.17l8.149,8.3l-2.069,2.78l0.819,1.08l5.26,3.17l5.94-0.28l5.88,4.64l0,0l-1.08,1.69l-3.93,1.19
		l0.11,3.28l-1.721,1.189l0.53,3.28l-11.41,8.14l-5.02,1.75l-1.76,4.43l-3.74-0.37l0.8-2.88L390,148.4l0.62,5.59l-3.88,2.55
		l-2.07-0.66l0.21-2.56l-2.7,0.97l-2.62-1.92l-2.95-4.28l1.25-2.96l-1.28-4.16l-5.35-3.04l-2.06-6.16l-9.52,2.47l2.9,3.25
		l-2.04,1.57l-8.03-3.61l-1.3-1.76l1.09-2.95l-2.06-7.65l-2.18-0.48l-5.16,2.89l-3.52-1.62l-0.53,4.93l-2.27,1.01l-2.41,3.7
		l-5.87-3.46l-4.24,1.73l-0.36,3.27l-3.2-0.65l0,0l-2.49-7.74l-1.72-0.49l-2.59-5.09l1.38-3.34l-3.15-3.12l0,0l3.89-3.49l1.12,0.77
		l1.53-1.17l-1.07-5.47l1.87-0.93l0.93,1.94l2.2-2.76l2.89,0.15l0.87-3.48l2.91-2.84l0.56-5.03l5.48,3.96l1.48-0.7l0.74-2.06
		l-4.03-2.1l-0.38-1.75l6.18-1.05l2.24,1.77l2.65-0.08l1.34-3.25l2.34-1.28l-0.25-2.71l1.9-0.99l-0.36-2.52l4.39-1.58l-1.51-1.54
		l0.26-4.42l-4.09-3.03l-0.22-1.771l6.19-2.16l0.68-2.21l2.34,0.25L358.89,60z"/>
	<path id="HU-HV" fill="#1E3250" stroke="#1E3250" stroke-width="0.5" d="M366.34,291.14l1.56-7.64l1.66-0.83l0.04,4.13l2.03,0.81
		l4.02-3.97l-1.53-2.7l3.99-0.96l-0.57-2.87l6.06-0.24l1.3,2.28l3.96-2.19l1.46,2.42l1.56-0.21l4.8,6.7l6.36,0.13l0,0l0.07,4.29
		l-3.08,1.83l0,0l-14.39,11.64l-8.19,1.04l0,0l0.49-2.15l-5.13-1.33L366.34,291.14z"/>
	<path id="HU-JN" fill="#1E3250" stroke="#1E3250" stroke-width="0.5" d="M425.28,123.73l-0.48,4l1.71,5.63l4.4,2l4.79-1.92
		l4.14,3.92l-0.1,7.87l1.51,2.31L440.2,150l3.45,17.12l-1.051,12.03L438.62,182l0,0l-2.8,5.7l-8.891,5.15l1.771,3.58l-2.01,0.47
		l-0.23,1.3l1.84,5.88l-1.53-0.58l-3.159,2.55l-0.2,1.61l-4.44,0.03l-0.239-2.18l-2.79,2.76l-1.48-0.13l-0.02,7.2l1.25,0.45
		l0.27,1.96l-1.97,0.26l2.08,0.32l-2.13,5.12l-5.57,2.15l-3.97-2.32l-4.23,0.11l-0.75,1.78l-2.6,1.13l-5.021-0.21l-4.53,5.05
		l1.37,7.23l0,0l-1.81,2.29l-4.69,0.12l-1.91,3.11l-3.27-0.86l-3.2-3.49l-2.12-0.56l-5.32,5.95l-5.67-4.18l-0.34,2.4l-1.54,0.55
		l-2.6-5.5l0,0l-1.57-2.59l-1.06,0.51l0.22,3.04l-2.67-1.76l0.12-2.18l3.13-0.57l-0.34-1.13l-2.15,0.42l-1.5-2.02l3.53-1.91
		l0.94,0.88l1.13-2.53l2.61,0.29l6.55-5.3l-1.54-2.83l-3.28-0.44l-0.01-1.41l2.46-1.16l0.52-2.86l-4.18-3.14l0,0l1.58-3.49
		l-2.02-1.11l-3.14-8.48l-0.57-2.57l1.4-3.34l0,0l4.98,3.2l-0.64,0.82l1.42,1.55l4.46,0.3l3.21,3.1l2.87,0.03l3.67-3.55l-1.44-4.15
		l-2.9-1.46l2.52-6.4l-2.77,0.34l1.44-1.19l-1.74-2.41l-1.98,0.08l-5.71-3.65l-5.51,5.79l0,0l-3.58-4l-5.13-1.81l2.72-6.75
		l-2.62-5.88l-14.36-10.71l-2.76-4.33l-4.59-3.9l3.77-5.64l-4.81-0.39l-3.08,2.47l-4.6-4.08l1.3-5.49l0,0l3.2,0.65l0.36-3.27
		l4.24-1.73l5.87,3.46l2.41-3.7l2.27-1.01l0.53-4.93l3.52,1.62l5.16-2.89l2.18,0.48l2.06,7.65l-1.09,2.95l1.3,1.76l8.03,3.61
		l2.04-1.57l-2.9-3.25l9.52-2.47l2.06,6.16l5.35,3.04l1.28,4.16l-1.25,2.96l2.95,4.28l2.62,1.92l2.7-0.97l-0.21,2.56l2.07,0.66
		l3.88-2.55L390,148.4l2.87-1.08l-0.8,2.88l3.74,0.37l1.76-4.43l5.02-1.75l11.41-8.14l-0.53-3.28l1.721-1.189l-0.11-3.28l3.93-1.19
		l1.08-1.69l0,0l-0.609-1.61l2.76-2.04L425.28,123.73z"/>
	<path id="HU-KV" fill="#1E3250" stroke="#1E3250" stroke-width="0.5" d="M150.67,288.3l0.13,0.68l0,0l2.51-2.78l3.48,4.5l1.15,6.74
		l-2.58,0.56l-0.53,1.25l0.77,1.19l-1.2,6.31l-1.59-0.43l-0.7-2.71l-2.22,0.5l-0.47,2.28l0,0l-1.92-0.729l-0.22-3.14l0,0l-2.46-6.38
		l1.01-3.39l-0.73-5.19l0,0l1.13-1.94L150.67,288.3z"/>
	<path id="HU-KM" fill="#1E3250" stroke="#1E3250" stroke-width="0.5" d="M335.33,219.88l2.36,6.76l-4.37,5.99l-3.39-2.96
		l-1.02,2.21l-5.03,1.17l-1.71,3.07l-3.89,0.24l0.38-1.73l-3.18-3.79l-3.45-2.61l-2.04-0.02l-0.54-3.86l-5.06-6.18l2.54-2.45l1,1.05
		l3.62-4.87l7.57,2.3l3.22-1.34l0,0l8.41,6.25l1.96-0.78L335.33,219.88z"/>
	<path id="HU-KE" fill="#1E3250" stroke="#1E3250" stroke-width="0.5" d="M242.96,103.13l3.31,0.63l0,0l5.17,2.25l1.61,8.24
		l1.99,1.86l-1.79,1.98l-2.02-1.48l-4.31,1.1l1.01,8.16l-7.7-2.58l0.09,1.39l-2.74-0.01l3.01,2.92l-3.59,2.14l-1.86,1.88l-0.01,1.87
		l-2.84,2.28l0,0l-6.67,1.81l-3.67-1.32l-4.39,2.53l0,0l-0.25-2.24l-3.87-3.42l-4.52-1.54l-4.78,0.86l-2.41,4.33l1.6,3.17l1.35-0.49
		l0.43,2.34l4.49,2.8l1.19,2.56l0,0l-2.24,1.04l-3.05,4.62l-1.66-1.31l-1.67,1.94l-0.43,1.12l2.31,2.53l-4.15,0.36l-1.61,1.94
		l-5.81-4.66l-0.49-3.04l-4.92-2.4l0.59,3.22l-1.08,1.21l-2.66,0.42l-1.27-1.65l-2.11,0.99l-0.78,6.07l-2.5,3.65l0.67,1.86
		l-2.97,0.94l-1.55,2.19l0,0l-6.74,0.08l-0.22-2.08l-2.54-1.7l1.6-0.59l0.04-1.5l-6.46-1.95l2.1-4.33l-2.66-4.19l0,0l1.39-0.83
		l-1.17-1.93l1.4,0.03l-0.13-1.76l2.04-0.86l-2.48-6.89l2.33,1l2.54-0.92l-2.9-1.57l2.38-7.62l-3.85-2.71l1.45-8.57l-0.84-5.14l0,0
		l4.75-0.68l2.32-1.75l2.81,1.51l2.42-1.37l4,0.02l19.55,3.38l14.5-4.45l3.98,1.66l4.06-1.66l9.44,0.76l6.81-3.52l1.55-3.68
		L242.96,103.13z"/>
	<path id="HU-MI" fill="#1E3250" stroke="#1E3250" stroke-width="0.5" d="M393.84,63.63l3.83-1.92l7.09,0.26l5.021-3.06l6.06,0.34
		l1.01-1.16l2.351,2.41l2.27-0.62l4.181,1.23l1.55,2.58l-0.34,4.17l1.199,0.52l-1.13,3.66l-3.189,2.13l-4.471,0.09l-3.52,1.86
		L414.27,73l-3.3-0.81l-3.68-2.97l-11.15,0.87l0,0l-2.13-3.19L393.84,63.63z"/>
	<path id="HU-NK" fill="#1E3250" stroke="#1E3250" stroke-width="0.5" d="M82.73,291.99l-3.59,2.61l-0.33,3.53l-3.31-0.73l-1.1,0.96
		l-2.46-3.57l2.73-14.65l2.69,0.21l-0.2-5.08l1.16-0.46l0.74,1.12l2.97-2.81l1.99,0.56l-0.13,6.99l3.15,2.59l-0.4,2.43l1.43,0.63
		l0.25,2.17l0,0l-2.26,2.34l-2.67-1.89L82.73,291.99z"/>
	<path id="HU-NO" fill="#1E3250" stroke="#1E3250" stroke-width="0.5" d="M319.2,47.07l1.87-0.16l2.26,4.78l2.68,0.19l1.98-1.8
		l4.77,2.91l0.61,1.45l-2.03,2.57l1.18,1.49l2.13-2.18l2.1,0.98l1.07-2.13l0.43,1.12l3.42,0.52l1.36,2.56l-1.16,2.99l3.4-1.11
		l3.36-4.34l4.89-1.52l1.63,1.2l0,0l3.74,3.41l0,0l-1.92,3.1l-2.34-0.25l-0.68,2.21l-6.19,2.16l0.22,1.771l4.09,3.03l-0.26,4.42
		l1.51,1.54l-4.39,1.58l0.36,2.52l-1.9,0.99l0.25,2.71l-2.34,1.28l-1.34,3.25l-2.65,0.08l-2.24-1.77l-6.18,1.05l0.38,1.75l4.03,2.1
		l-0.74,2.06l-1.48,0.7l-5.48-3.96l-0.56,5.03l-2.91,2.84l-0.87,3.48l-2.89-0.15l-2.2,2.76l-0.93-1.94l-1.87,0.93l1.07,5.47
		l-1.53,1.17l-1.12-0.77l-3.89,3.49l0,0l-2.75-1.39l-4.54,4.36l1.95,2.16l-2.93,1.3l-2.65-5.11l-0.39-5.6l-2.88-0.36l1.19-3.39
		l1.66-0.8l-1.93-1.97l-5.93-0.23l-3.12-1.81l-8.45,0.95l-4.95-3.42l-0.94,1.1l-5.07-0.91l-2.56,0.9l-1.49-2.25l-0.85,0.49
		l-1.08-3.25l-9.01-7.84l0.56-2.49l3.91-2.82l1.45-5.16l-1.68-1.76l-2.8-0.07l-2.5-3.77l0,0l4.79,0.22l3.07-2.87l3.85,2.5l2.03-1.72
		l2.21,0.98l2.5-1.19l9.7,2.59l1.16-2.15l4.01-2.33l7.8-0.63l1.3,1.19l3.96-2.45l2.33,2.39l0.13-1.52l1.76-0.7l3.3-13.88l4.91-1.98
		l4.58-4.38L319.2,47.07z"/>
	<path id="HU-NY" fill="#1E3250" stroke="#1E3250" stroke-width="0.5" d="M489.74,87.97l4.56-9.4l2.98,1.14l3.89-0.54l1.48-3.72
		l-1.801-1.95l0.381-1.5l3.35-0.37l2.65,1.89l3.739-0.49l1.311,3.45l-1.07,2.75l1.63,0.17l0.19,1.35l4.34-0.18l2.08,8.81l-0.65,1.87
		l-2.21,0.19L516,93.4l-3.1-1.6l-0.131,5.79l2.16,0.42l-1.109,2.59l-1.761,0.55l-2.109-3.31l-7.33,0.6l-2.07-2.82l-3.46-0.65
		l-0.76-2.02l-5.42-2.43l0,0l0.81-1.71L489.74,87.97z"/>
	<path id="HU-PS" fill="#1E3250" stroke="#1E3250" stroke-width="0.5" d="M201.06,325.62l1,1.05l0,0l1.41,3.95l-0.77,1.229
		l-3.83-0.58l-3.1,4.57l0,0l-1.08,4.72l-4.87,1.671l0,0l-2.98-3.69l-3.66-2.12l0.52-2.63l-1.68-4.35l3.79-0.12l-0.66-2.23l0,0
		l3.12-2.18l0,0l3.77,1l0,0l6.9-3.351L201.06,325.62z"/>
	<path id="HU-PE" fill="#1E3250" stroke="#1E3250" stroke-width="0.5" d="M252.12,72.19l2-0.7l0,0l2.5,3.77l2.8,0.07l1.68,1.76
		l-1.44,5.16l-3.92,2.82l-0.56,2.48l9.01,7.84l1.07,3.26l0.86-0.5l1.49,2.25l2.56-0.9l5.07,0.91l0.94-1.1l4.95,3.42l8.46-0.95
		l3.12,1.81l5.93,0.23l1.92,1.97l-1.65,0.8l-1.19,3.39l2.88,0.36l0.39,5.61l2.65,5.11l2.93-1.3l-1.96-2.17l4.55-4.36l2.74,1.39l0,0
		l3.15,3.12l-1.38,3.34l2.59,5.09l1.72,0.49l2.49,7.74l0,0l-1.3,5.49l4.6,4.08l3.08-2.46l4.81,0.39l-3.77,5.63l4.59,3.9l2.76,4.34
		l14.36,10.71l2.62,5.88l-2.73,6.75l5.14,1.82l3.58,4l0,0l1.45,3.57l-3.34,4.02l0,0l-1.4,3.35l0.57,2.56l3.14,8.48l2.02,1.11
		l-1.58,3.5l0,0l-2.29-1.5l-6.4,2.56l-1.29,4.83l-9.71-4.43l-4.06,6.92l0,0l-2.62-1.55l-1.97,0.78l-8.41-6.25l0,0l-4.03-4.56
		l-5.05-11.9l-2.21,2.05l-5.08-1.89l-2.67,8.76l-4.38-1.28l-5.64,4.09l-2.59,4.83l-3.71-5.28l4.65-7.58l-7.01-5.7l-3.42,1.97
		l-2.03,4.67l-0.81-1.25l-3.31-0.13l-8.56,8.29l-4.05-2.63l-6-1.35l1.69,2.87l-0.72,1.85l0,0l-6.04-6.07l-2.36-10.18l4.15-16.17
		l-3.56-0.72l-0.16-2.94l-1.73-0.41l0.24-2.15l-9.44-10.97l2.82-3.3l-0.33-3.99l-2.98-4.5l-2.21-0.04l-2.94-5.33l-0.54-6.16l0,0
		l2.84-2.28l0.01-1.87l1.87-1.88l3.58-2.14l-3-2.92l2.73,0.01l-0.09-1.39l7.71,2.58l-1.01-8.16l4.3-1.1l2.02,1.48l1.8-1.98
		l-1.99-1.86l-1.61-8.24l-5.17-2.25l0,0l0.79-1.18l-2.6-3.24l-5.39-2.67l-0.32-6.53l1.7-4.5l-1.77-2.83l1.37-1.84l2.59,0.35
		l1.32-1.17l1.32-7.18l4.66-0.38l0.42-1.31L252.12,72.19z M267.07,134.5l0.33-2.65l-3.18-0.41l-1.54,0.79l0.79,2.35l-9.46,2.01
		l0.99,2.77l-1.29,1.04l0.88-0.01l-0.83,2.81l1.44,0.47l-0.79,1.59l1.07,1.04l-0.87,1l2.46,1.2l1.72,2.83l-1.07,1.34l0.53,2.61
		l-1.71,1.6l0.03,5.9l5.69-2.11l1.01,1.17l4.64-2.92l1.94,2.39l-0.63,1.04l3.83,3.88l3.6-1.54l2.41-4.58l5.37-5.64l1.39,0.28
		l1.84-2.79l3-0.9l-1.79-3.9l0.39-3l-4.96,0.92l-1.69-3.81l-2.22,0.61l-1-1.05l0,0l-1.61,0.11l-2.72-2.62l0,0l1.17-0.68l-2.6-1.73
		l0.78-0.99l-4.12-3.44l0,0l-1.19,0.03L267.07,134.5z"/>
	<path id="HU-SO" fill="#1E3250" stroke="#1E3250" stroke-width="0.5" d="M117.69,245.31l6.3-0.31l32.6-16.48l3.2,0.21l2.19-2.01
		l-0.05-3.37l13.64-6.3l9.09,0.87l0,0l2.79,3.65l1.91,5.69l-2.3,1.96l1.83,0.65l-0.96,0.49l0.88,3.74l-1.06,2.12l1.29,5.44l0,0
		l-3.87,1.43l0.4,3.26l-5.33,1.58l1.44,3.42l1.33,0.37l-6.42,10.51l1.3,3.56l-1.25,3.89l-1.94,1.27l-1.19-0.65l-0.69,7.71l3.32,10
		l-5.65,3.08l0.83,2.2l3.41-1.2l1.16,3.57l1.5-0.33l0.51,4.96l-3.03,4.23l0,0l-9.24-1.03l-2.18,6.25l0.35,3.6l-1.11,0.96l-3.67-0.27
		l-2.98,2.08l-4.54-2.261l-2.26,3.341l-1.8-0.601l-1.25-3.55l-1.75,1.33l0.91,1.89l-3.46,6.48l-0.16,6.189l-1.86,0.99l1.36,1.49
		l-0.53,3.67l-4.03,2.35l2.29,6.851l-2.72,0.779l1.78,6.37l1.44,0.16l-0.13-2.21l0.72,1.601l2.84,0.1l-0.04,1.84l3.14,3.48
		l0.13,2.729l-0.64,1.73l-2.17-0.391l-0.72,1.07l-0.81-1.85l-1.47,2.779l-1.59,0.521l0,0l-2.72-7.26l-5.03-4.32l-3.48,0.34
		l-8.38-2.07l-0.75,3l-1.56-1.62l-2.08,0.87l-0.32-1.91l-3.45,0.66l-0.04-2.42l0.67,1.03l3.24-0.85l-2.61-0.23l0.02-1.12l1.24-0.03
		l-0.15-2.42l-1.63,1.96l-2.14-2.739l0.36,3.029l-2.01,0.561l1.06-2.811l-2.26,0.74l0.81-2.43l-2.19,0.13l-2.12-1.63l3.26-2.181
		l-3.59,0.131l1.44-3.511l-3.53-0.449l1.85-0.45l-1.5-1.98l-2.91,0.18l2.61-2.81l-2.01,0.03l0.26-1.95l-3.15,0.83l0.43-5.54
		l-2.08-1.1l0.1-1.4l-3.09,0.12l-2.09-2.48l-1.73,0.25l-6.6-4.52l-3.19-0.49l-0.32-2.38l-1.78,0.33l-6.09-4.63l-0.98-6.561l0,0
		l2.49,1.93l3.01-0.61l0.47,3.32l4.07-3.2l3.54,0.81l3.11-5.29l-2.44-5.74l0,0l0.66-3.05l2.67,1.89l2.26-2.33l0,0l2.98,1.88
		l1.19-0.4l0.14-2.56l4.08-0.29l0.27-7.14l3.2-3.41l-0.24-20.22l3.15-2.96l1.07-5.94l8.55,0.39L117.69,245.31z M147.1,305.03
		l2.32,1.35l0,0l0.47-2.28l2.22-0.49l0.7,2.71l1.59,0.43l1.2-6.31l-0.77-1.19l0.53-1.25l2.58-0.56l-1.15-6.74l-3.48-4.5l-2.51,2.78
		l0,0l-4.32-3.51l-1.37,2.09l0,0l0.73,5.19l-1.01,3.39l2.45,6.38L147.1,305.03z"/>
	<path id="HU-SN" fill="#1E3250" stroke="#1E3250" stroke-width="0.5" d="M45.6,111.98l9.05,3.16l2.42,6.48l0,0l-3.29,5.7
		l-2.03-1.05l-6.49,1.19l-4.19,2.23l0,0l-4.9-2.94l-2.5,0.77l-0.52-1.33l-5.27-2.04l1.8-1.07l0.38-3.12l2.45,2.12l2.07-2.85
		l3.93-1.2l0.64-5.34L45.6,111.98z"/>
	<path id="HU-SZ" fill="#1E3250" stroke="#1E3250" stroke-width="0.5" d="M552.48,23.8l2.52,0.14l-2.18,3.14l2.41,3.59l4.729,1.23
		l-0.65,3.44l6.15,12.03l1.8-1.95l2.88-0.27l2.351,1.37l2.89-1.59l3.69,6.05l3.51,1.67l-0.62,2.6l3.06,4.6l-0.869,0.33l0.279,4.44
		l7.23,2.25l5.96-3.81l1.88,0.04l1.04,1.44l0.43-1.72l2.57-0.06l0.44,2.11l1.739-1.35l1.07,4.82l2.15,1.23l0.609,2.9l1.181-0.36
		l-1.421,5.65l-2.63,2.95l4.761,2.75l0.56,2.26l-4.85,5.95L602.47,94l-3.149-0.17l1.649,6.65l-5.72,0.99l-2.86,6.311l-6.319,2.13
		l-5.48-0.07l-6.09-5.12l-3.02,0.93l-1.66,8.36l-6.74-1.12l-3.46-2.35l-0.04,3.21l-4.72,1.67l-0.551,4.24l-2.75,1.11l-4.81,13.01
		l-4.09-0.53l0,0l-2.391-8.24l-2.59-1.61l-4.89,6.65l-1.6-3.06l0.68-2.62l-2.601-1.56l0.461-3.66l-5.53-3.87l-3.28,0.939l-0.3,3.5
		l-4.78,4.25l-5.85-2.86l0.439-2.16l-4.76-0.31l-1.21-3.28l-6.1,0.42l-3.4-5.98l-5.229-2.5l2.02-12.94l-0.84-3.84l0,0l5.42,2.43
		l0.76,2.02l3.46,0.65l2.07,2.82l7.33-0.6l2.109,3.31l1.761-0.55l1.109-2.59l-2.16-0.42l0.131-5.79l3.1,1.6l0.59-1.96l2.21-0.19
		l0.65-1.87l-2.08-8.81l-4.34,0.18l-0.19-1.35l-1.63-0.17l1.07-2.75l-1.311-3.45l-3.739,0.49l-2.65-1.89L501.23,72l-0.381,1.5
		l1.801,1.95l-1.48,3.72l-3.89,0.54l-2.98-1.14l-4.56,9.4l0,0l-2.271-0.88l-1.899,2.35l-15.87,0.65l-4.42,2.14l-1.061-2.97
		l-5.899-4.28l-6.57-0.53l0,0l-3.89-5.88l4.84-5.64l3.02,0.38l0.37,2.43l4.43,0.46l0.44-2.19l2.73-2.14l1.06,2.22l2.71-0.08
		l0.11,1.26l3.52,1.06l1.57-1.56l4.83-0.01l0.529-2.58l2.12,0.68l0.091-2.5l2.229-0.83l-2.27-0.73l-0.381-1.44l1.57-0.34l-3.25-4.22
		l2.57-7.56l2.51,1.59l0.83-1.85l3.71,0.62l-0.36-1.32l5.511-3.16l3.149,1.85l4.82,0.561l5.03,0.09l0.33-1.58l2.46-0.21l-0.08,1.75
		l1.85-2.32l1.17,0.63l1.54-1.54l1.04-3.44L515.3,48l0.4-1.37l1.02,2.48l0.91-2.13l4.04-0.8l2.1,0.87l1.74-3.23l0.66,0.67l2.25-2.63
		l0.96,0.4l0.15-2.31l2.67-2.43l1.13-0.15l-1.04,1.92l2.02-0.03l-0.09-1.19l1.811,2.03l0.689-0.97l-1.09-1.18l1.561,0.93
		l-0.051-1.39l2.221,0.27l-0.86-2.3l3.78-3.6l-1.67-1.1l1.77-0.06l-0.479-2.5l0,0l1.619-0.35l-0.479-1.37l1.87-0.8l0.37-1.87
		l4.26-2.07L552.48,23.8z"/>
	<path id="HU-SD" fill="#1E3250" stroke="#1E3250" stroke-width="0.5" d="M366.34,291.14l6.47,10.18l5.13,1.33l-0.49,2.15l0,0
		l0.12,8.49l-8.11-0.46l1,5.189l5.34-0.13l-1.3,8.811l-1.41,0.71l0,0l-0.13-1.101l-1.13,0.71l0,0l-5.35-11.22l-3.55,1.5l-1.95-0.59
		l-2.05,3.99l0,0l-2.49,3.58l-2.45-0.16l-1.19-3.101l0,0l3.93-1.899l-1.52-4.47l2.15-3.57l-5.99-1.97l-3.24-2.65l4.53-4.2l4.54,1.67
		l0.49-5.79l8,2.09l0.98-2.61l-2.4-1.78l-0.11-3.86L366.34,291.14z"/>
	<path id="HU-SF" fill="#1E3250" stroke="#1E3250" stroke-width="0.5" d="M210.27,176.97l0.76,1.38l0,0l2.98-0.2l2.75,3.1
		l-1.56,2.16l1.9,3.51l-1.1,2.83l1.89-0.11l1.85,4.39l-4.66,1.36l-3.41,4.11l-1.08-1.39l-5.35,2.06l-0.31-5.83l-1.68-0.88
		l-4.03-7.17l7.5-7.9l0.43-2.62l0,0l1.8-0.92L210.27,176.97z"/>
	<path id="HU-SK" fill="#1E3250" stroke="#1E3250" stroke-width="0.5" d="M358.21,184.92l5.51-5.79l5.71,3.65l1.98-0.08l1.74,2.41
		l-1.44,1.19l2.77-0.34l-2.52,6.4l2.9,1.46l1.44,4.15l-3.67,3.55l-2.87-0.03l-3.21-3.1l-4.46-0.3l-1.42-1.55l0.64-0.82l-4.98-3.2
		l0,0l3.34-4.02L358.21,184.92z"/>
	<path id="HU-SH" fill="#1E3250" stroke="#1E3250" stroke-width="0.5" d="M43.31,178.58l-0.2-1.17l2.91-0.1l3.18,2.04l2.31-1.5
		l1.1,3.21l-2.32,2.13l1.16,2.06l-0.06,6.69l-3.41-1.84l-3.31,3.65l-3.4-2.55l-2.07-9.56l-3.09-2.92l1.89-0.71l1.61,1.26l0,0
		L43.31,178.58z"/>
	<path id="HU-TB" fill="#1E3250" stroke="#1E3250" stroke-width="0.5" d="M210.79,147.15l-1.19-2.56l-4.49-2.8l-0.43-2.34
		l-1.35,0.49l-1.6-3.17l2.41-4.33l4.78-0.86l4.52,1.54l3.87,3.42l0.25,2.24l0,0l-3.68,0.68l0.64,2.94l-1.6,0.3l1.17,1.85
		L210.79,147.15z"/>
	<path id="HU-TO" fill="#1E3250" stroke="#1E3250" stroke-width="0.5" d="M189.06,241.63l3.52-0.72l5.13-4.56l0.81,3.61l4.54,1.72
		l1.41-1.72l2.17,2.72l0.18-4.58l1.36,1.97l0.38,5.49l3.59,0.9l4.14-0.72l-0.55-2.31l4.48-2.48l1.63,3.19l3.69,1.64l1.28,7.27
		l2.14,0.26l7.14-5.13l-1.26-3.03l2.71-2.09l4.26-0.47l0.1-2.38l5.99-4.26l1.25-2.19l-1.42-1.32l5.71-1.3l0,0l0.16,5.42l4.21,5.61
		l2.8,10.54l-3.25,4.96l-7.59,2.6l-2.08,3.23l2.93,6.08l0.25,5.59l2.38,5.66l-0.04,3.79l-3.25,6.9l1.21,8.24l2.12,3.58l-0.99,5.91
		l-4.18-1.04l0.84,3.97l-4.72,3.95l1.17,0.8l3.32-2.31l-0.21,3.51l-1.75,0.601l-2,5.619l-0.28-3.33l-2.35,1.45l-0.08,2.29l3.62,1.08
		l-0.79,2.16l-1.24-0.56l0.09,1.409l0,0l-5.92,0.221l-5.07-3.03l-0.71,0.63l-6.8-8.189l-1.94,1.01l-2.18-3.71l0.69-1.32l-3.84-1.15
		l0.86-5.52l-0.53-0.81l-0.98,0.989l-1.46-2.56l-2.6-1.33l0.13,3.97l-1.28,1.86l-8.66,4.84l-0.79-1.52l3.61-1.5l1.75-4.82l-0.56-1.5
		l-3.52-0.4l1.05-7.02l-3.28-1.7l-0.46-4.86l-2.83-2.49l-4.25,2.01l-3.68-0.84l-3.76,1.61l1.41,7.47l-4.53,2.96l-1.56-1l-1.75,0.86
		l0.09,2.97l1.46,0.66l-0.67,0.94l-1.94-2.54l-2.27,1.21l-2.1-0.75l0,0l3.03-4.23l-0.51-4.97l-1.5,0.33l-1.16-3.57l-3.41,1.2
		l-0.83-2.21l5.64-3.08l-3.32-10l0.7-7.71l1.19,0.65l1.94-1.27l1.25-3.88l-1.3-3.57l6.43-10.51l-1.33-0.36l-1.44-3.43l5.33-1.57
		l-0.4-3.26L189.06,241.63z"/>
	<path id="HU-VA" fill="#1E3250" stroke="#1E3250" stroke-width="0.5" d="M47.92,153.38l2.86,3.48l3.29,1.12l6.19-4.19l0.54,0.89
		l1.4-0.94l0.56,1.17l3.46-1.87l3.14,4.65L71.8,157l2.99,3.14l1.94-2.78l7.96-5.88l1.51,2.67l-1.79,6.16l6.83-3.07l1.75-2.73
		l2.63,0.75l0,0l0.91,3.39l2.12,1.91l-1.77,1.38l2.27,2.72l7.3,4.49l-6.23,2.44l-0.66,3.44l-1.54,1.26l1.12,8.79l-1.54,8.4
		l1.76,8.27l-2.46,2.05l-3.98-1.8l-6.21,1.74l-0.2,2.44l0,0l0.05,3.01l-1.61-0.88l-1.33,0.98l-0.3-2.29l-3.12,0.74l1.25,4.51
		l-3.28,5.23l-5.06-0.25l-2.32-1.65l-4.36,0.66l-0.42-1l-3.45,3.69l-1.84,0.36l-0.82,2.98l-8.33-1.55l-3.14,2.21l-1.82-0.67
		l-5.72,9.11l-5.9,3.04l-0.04,3.88l-1.28,1.18l-4.12,2.6l-3.46-1.65l-3.46,1.12l-0.01,1.43l3.52-1.06l0.23,1.01L23,248.94l0,0
		l-1.15,1.01l-3.46-5.39l0.97-2.86l-1.61-0.42l0.39-2.26l2.23-0.95l0.64-4.35l-4.79-4.43l-5.12-0.5l-7.29,2.8L0,229.75l5.84-5.07
		l1.62-4.25l2.24,0.45l2.82-3.43l1.9-0.01l1.61-6.74l0.88,2.02l3.56,0.38l0.74-1.87l2.08,1.52l3.57-0.9l1.68,1.64l1.47-0.24
		l0.19-1.41l3.19,1.45l2.5-0.92l-4.1-3.88l-1.68,1.03l-0.81-0.91l0.29-1.07l7.06-2.59l-4.29-2.13l-0.96-2.69l3.42-2.09l0.13-1.82
		l2.52-0.41l-1.18-2.84l-5.6,0.75l0.8-3.43l-0.87-2.62l-2.3,0.41l-1.12-2.71l2.08-1.6l-0.66-4.57l3.25-0.12l1.99-3.66l-2.3-7.27
		l-2.7-2.31l1.69-0.56l0.86-3.35l-1.37-3.41l3.53,0.15l1.05,2.27l1.24-2.6l5.63,0.47l1.31-2.3L47.92,153.38z M39.61,179.27
		L39.61,179.27L38,178.01l-1.89,0.72l3.09,2.92l2.08,9.56l3.4,2.55l3.3-3.65l3.41,1.84l0.06-6.68l-1.16-2.07l2.33-2.13l-1.1-3.21
		l-2.32,1.5l-3.18-2.04l-2.91,0.11l0.2,1.17L39.61,179.27z"/>
	<path id="HU-VE" fill="#1E3250" stroke="#1E3250" stroke-width="0.5" d="M95.6,155.25l1.89-1.58l2.24,1.69l0.82-0.97l3.27,1.16
		l8.99-1.73l1.86-5.43l3.1,0.79l1.82-1.46l8.69,2.88l2.86-2.71l3.27,4.1l1.44-1.13l1.86,1.76l3.01-2.69l2.53,0.11l0.19,2.87
		l2.35-0.43l-0.29-2.71l2.49,2.29l3.75-4.64l1.33,2.36l1.87-2.49l3.61,4.67l0,0l2.66,4.19l-2.1,4.33l6.46,1.95l-0.04,1.5l-1.61,0.58
		l2.54,1.7l0.22,2.08l6.74-0.08l0,0l0.72,1.67l1.93,0.29l-1.66,1.98l0.89,3.62l1.6-0.41l2.86,4.19l4.58-2.17l1.57,3.43l4.4,3.14
		l-1.08,7.81l2,8.16l-2.75,2.18l2.86,7.45l2.36,0.29l-2.37,0.71l-6.66,7.38l0,0l-9.09-0.87l-13.64,6.3l0.05,3.37l-2.19,2.01
		l-3.2-0.21L124,245.01l-6.3,0.32l0,0l-5.38-5.58l-3.17-5.39l1.33-2.92l-1.91-2.18l0.27-2.67l-3.44-3.48l-2.44,0.67l-2.57-1.18
		l2.16-4.64l-2.43-4.31l-1.71-1.5l-1.99,1.06l-2.82-0.71l-7.1-6.28l0,0l0.2-2.44l6.21-1.74l3.98,1.8l2.46-2.05l-1.76-8.27l1.54-8.4
		l-1.12-8.78l1.54-1.26l0.66-3.44l6.24-2.44l-7.3-4.49l-2.26-2.72l1.77-1.38l-2.12-1.91L95.6,155.25z M158.93,209.11l3.29-0.28l0,0
		l1.61-3.71l0,0l3.78-0.12l1.25-4.95l0,0l-0.52-1.06l0,0l0.85-1.03l-4.24-7.26l-3.52-3.32l0,0l-2.08-0.63l-3.17,3.64l-3,0.26
		l3.63,2.67l0.5,3.5l-3.7,3.91l5.14,5.45L158.93,209.11z"/>
	<path id="HU-VM" fill="#1E3250" stroke="#1E3250" stroke-width="0.5" d="M163.8,189.38l4.88,7.33l-0.36,2.29l0,0l0.52,1.05l0,0
		l-1.45,5.18l-3.57-0.1l0,0l-1.61,3.71l0,0l-2.68,0.69l-0.8-3.33l0,0l-5.15-5.46l3.7-3.91l-0.49-3.5l-3.63-2.68l3.01-0.26l3.16-3.64
		l2.08,0.64l0,0L163.8,189.38z"/>
	<path id="HU-ZA" fill="#1E3250" stroke="#1E3250" stroke-width="0.5" d="M86.48,206.18l7.1,6.28l2.83,0.71l1.99-1.05l1.71,1.5
		l2.43,4.31l-2.16,4.64l2.57,1.19l2.44-0.67l3.44,3.48l-0.27,2.67l1.91,2.18l-1.33,2.92l3.17,5.39l5.38,5.58l0,0l-5,2.53l-8.54-0.39
		l-1.06,5.94l-3.15,2.96l0.24,20.22l-3.2,3.41l-0.27,7.14l-4.08,0.29l-0.14,2.56l-1.19,0.4l-2.98-1.88l0,0l-0.25-2.18l-1.42-0.63
		l0.4-2.43l-3.15-2.59l0.14-6.99l-1.99-0.56l-2.97,2.81l-0.74-1.12l-1.16,0.46l0.2,5.08l-2.69-0.21l-2.72,14.65l2.45,3.57l1.1-0.96
		l3.31,0.73l0.33-3.53l3.59-2.61l0,0l2.44,5.74l-3.11,5.29l-3.54-0.81l-4.07,3.2L74,302.08l-3,0.61l-2.49-1.93l0,0l-0.71-3.58
		l-1.28-0.1l-1.38-2.63l-0.92,0.95l-2.83-2.49l-3.08,0.86l-2.46-2.74l-1.26,1.06l-4.21-7.28l-1.31,0.39l0.6-1.7l-3.62-1.32
		l-2.51,0.52l-1.72-2.46l-4.98-2.66l0.84-3.58l-1.22-0.54l-0.59-3.28l-2.56-0.82l-3.45-5.71l-2.15-0.5l-3.24-4.1l0.6-2.5l2.42,0.71
		l0.91-4.76l-4.96-0.76l-0.44-2.8l0,0l3.36-6.04l-0.23-1.01l-3.52,1.06l0.01-1.43l3.47-1.12l3.46,1.66l4.12-2.6l1.28-1.18l0.04-3.88
		l5.9-3.04l5.72-9.11l1.82,0.67l3.14-2.21l8.33,1.55l0.82-2.979l1.84-0.36l3.45-3.69l0.42,1l4.36-0.66l2.32,1.65l5.06,0.25
		l3.29-5.23l-1.25-4.51l3.11-0.73l0.26,2.28l1.34-0.98l1.62,0.88L86.48,206.18z M60.85,227.05L60.85,227.05l-0.98,4.57l1.24,1.16
		l-0.63,3.8l1.63,2.46l-1.66,2.65l1.7,2.23l2.27-1.61l7.09-0.55l0.3-6.6l-1.71-2.76l0.46-1.5l-3.02-1.58l-0.87-2.13l0,0l-2.37-0.26
		l0,0L63,227.6L60.85,227.05z"/>
	<path id="HU-ZE" fill="#1E3250" stroke="#1E3250" stroke-width="0.5" d="M65.26,227.35l1.39-0.17l0,0l0.87,2.13l3.02,1.58
		l-0.46,1.5l1.72,2.76l-0.3,6.6l-7.09,0.55l-2.27,1.61l-1.69-2.23l1.66-2.65l-1.64-2.46l0.64-3.8l-1.24-1.16l0.98-4.56l0,0
		l2.13,0.54l0,0l1.3-0.67l0,0L65.26,227.35z"/>
</g>
</svg>
