<?xml version="1.0" encoding="utf-8"?>
<!-- Generator: Adobe Illustrator 15.0.0, SVG Export Plug-In . SVG Version: 6.00 Build 0)  -->
<!DOCTYPE svg PUBLIC "-//W3C//DTD SVG 1.1//EN" "http://www.w3.org/Graphics/SVG/1.1/DTD/svg11.dtd">
<svg version="1.1" id="Layer_1" xmlns:amcharts="http://amcharts.com/ammap"
	 xmlns="http://www.w3.org/2000/svg" xmlns:xlink="http://www.w3.org/1999/xlink" x="0px" y="0px" width="638.5px" height="448.5px"
	 viewBox="0 0 638.5 448.5" enable-background="new 0 0 638.5 448.5" xml:space="preserve">
<defs>
	
	
		<amcharts:ammap  projection="mercator" leftLongitude="-24.531109" topLatitude="66.574598" bottomLatitude="63.377251" rightLongitude="-13.496555">
		</amcharts:ammap>
</defs>
<g>
	<path id="GL1" fill="#1E3250" stroke="#1E3250" stroke-width="0.5" d="M264.99,231.56l-0.91,4.92l-2.86,2.05v1.14l1.39,0.41
		l0.74,1.23l-0.33,3.85l-4.26,2.62l-1.23,1.64l1.97,0.57l-0.08,1.97l-2.46,2.78l1.06,2.7l-0.08,1.56l-2.29,1.64l-0.16,2.78
		l-2.46,1.64v1.14l1.72,0.33l0.33,1.31l-2.79,2.7l-9,5l-4.02,4.67l-3.35-0.09l-0.82-4.17l-1.15-1.31l-3.28,1.06l-0.08,4.26
		l-1.06,2.05l-1.15,0.49l-1.31-0.74l-2.95-5.24l0.09-2.78l-0.58-1.31l-3.52-0.41l-0.33-1.39l1.48-0.82l-1.15-0.9h-1.31l-0.65,1.06
		l-0.88-0.04l0,0l-0.02-0.12l0,0l-3.26-3.18l6.37-5.2l-0.55-3.88l3.84-2.95l5.19-1.78l4.04,0.38l4.19-1.01l0.77-1.62l-1.01-2.02
		l4.27-3.18l2.33,0.15l1.78,2.02l1.09-3.57l-0.08-7.6l5.28-5.43l1.78-1.4l1.79-0.23l1-2.56l3.94-0.54l0,0l3.01,0.93l1.31,1.81
		L264.99,231.56z"/>
	<path id="GL2" fill="#1E3250" stroke="#1E3250" stroke-width="0.5" d="M299.82,242.08l0.48-0.09l0.29-2.33l-2.48-3.78l-0.14-4.37
		l4.66,0.15l1.31-3.93l2.33-0.29l0.43-1.02l-1.16-1.31l0.58-2.33l6.55-5.54l5.24-0.29l3.06,2.62l2.18,0.73l1.89-0.14v-1.61
		l2.19-0.29l2.33,2.77l7.13,3.93l-0.6,4.99l0,0l-0.71,1.27l0.58,12.52l-3.05,5.53l-2.48,1.89l-2.33,1.02l-3.2-2.47l-1.17,2.62
		l0.15,2.04l2.62,3.2l-1.31,0.87l-0.87,1.6l-2.48-1.74l-2.76-0.29l-0.73-3.93l-3.64-0.3l-1.02,6.26l-2.62-0.43l-2.62-1.46
		l-5.53-5.24v-1.45l-0.88-0.59l-2.03,0.15l-1.75-4.08l1.75-3.78L299.82,242.08z"/>
	<path id="GL3" fill="#1E3250" stroke="#1E3250" stroke-width="0.5" d="M132.78,68.83h-1.95L124,63.12l-3.62-4.04l-1.95-0.42
		l-1.67-7.39l3.34-3.48l2.23-0.7l4.32,1.4l1.53,2.229l2.23,1.39l0.98,4.32l1.95,1.53l3.76,6.97l-2.51,3.06L132.78,68.83z"/>
	<path id="GL4" fill="#1E3250" stroke="#1E3250" stroke-width="0.5" d="M43.05,234.98v1.12l1.4-0.14l0.69,3.2l-1.11,1.26v1.25
		l-1.81,0.84l-4.88-3.21v-1.25l1.12-0.84l0.27-1.53l1.12-0.7H43.05z"/>
	<path id="GL5" fill="#1E3250" stroke="#1E3250" stroke-width="0.5" d="M232.28,246.76l-0.98,0.83l-4.87-0.42l-0.84-1.39l0.84-0.84
		v-1.25l2.23-1.67l0.41-1.39h1.4l1.39,1.53l1.81,0.28l0.42,2.09l-1.25,0.83L232.28,246.76z"/>
	<path id="GL6" fill="#1E3250" stroke="#1E3250" stroke-width="0.5" d="M368.59,248.89l-1.12,0.43l-2.66-0.43l-2.15-2.75l1.89-1.8
		l2.06-0.78l0.35-0.94l4.12-2.06l2.07,0.94l0.51,1.29l-0.86,1.81l-2.06,1.37L368.59,248.89z"/>
	<path id="GL7" fill="#1E3250" stroke="#1E3250" stroke-width="0.5" d="M273.66,385.3l1.32,0.71l0,0l1.83-0.399l3.85,0.399
		l1.42,1.021l0.81,1.62l-0.5,1.319l-2.64,2.94l-1.83,0.609l-6.59,0.2l-4.77-4.16l-0.71-1.619l2.94-3.04l3.76-0.311l0,0L273.66,385.3
		z"/>
	<path id="GL8" fill="#1E3250" stroke="#1E3250" stroke-width="0.5" d="M307.24,368.87l2.13,1.22l0,0l4.57,1.21l3.75,3.25l0.2,1.42
		l-0.91,1.62l-3.65,1.021l-0.61,1.42l1.52,1.01l1.42,0.1l1.52,1.32v1.83l-2.23,0.2l-1.32,3.75l3.05,3.45l3.44,0.81l0.61,0.92
		l-0.3,1.521l-5.07,3.75l-1.02-1.011l-2.94-0.199l-0.81-1.32l-0.81-0.21l0.1,1.53l-1.02,1.31l-8.11-0.1l-1.02,0.81l-2.43-0.3
		l-0.41,1.319l-0.91-0.21l-1.01-3.85l-1.12-1.01l-0.71,0.3l-0.1,1.93l-3.96,2.84l-0.3-1.729l1.62-2.23l0.31-3.649l-4.57-1.42
		l-0.91-1.521l0.3-1.729l1.02-1.11l2.23-0.41l0.91-1.62l0.81-5.479l1.83,0.51l0.4,0.811l1.63-0.2l-0.92-2.03l-4.36-1.32l1.52-4.97
		l1.63,0.51l0.6,1.011l5.59-3.351l0.3-0.91l1.42,0.101l4.16-1.931l1.42,0.21l0,0L307.24,368.87z"/>
	<path id="_GL9" fill="#1E3250" stroke="#1E3250" stroke-width="0.5" d="M376.14,260.44l0.75,0.23v1.36l3.49-0.38l1.36-3.5
		l5.82-4.85l0.59-1.36l2.13-0.39l0.58-2.72l5.25-5.24l4.27-2.13l3.88,1.16l0.771,1.56l2.33-0.39l1.359-1.94l3.3-2.72l3.301-0.58
		l3.88-2.14l7.38,1.75l2.91,0.19l0.779-0.97h1.16l3.5,2.91l0.21-0.46l0,0l0.17,4.73l-2.13,1.75l-1.359,3.88l0.39,7.38l2.13-0.58
		l1.17-1.56l0.19-4.65l1.75-0.59l1.55,0.59l-0.58,4.46l1.75,0.78l-0.59,3.68l-2.521,1.75v2.52l6.21-2.32l1.94-3.11l0.97-4.46
		l4.471-4.27l6.6-2.53l7.76-6.21l2.141-0.97l2.13,0.97h5.439l5.431,0.97l3.3,3.5l-0.19,7.76l7.96,6.02l1.74,0.19l0.2-5.05l0.77-1.55
		l4.471-2.33l2.71,0.97l-0.971,2.53l-2.13,1.16v2.52l3.49-0.58l1.36,1.55l1.75-1.74h4.85v2.52l-0.77,1.75l0.38,1.74l4.27,0.2
		l2.33,3.1l-2.52,1.17l-1.94,2.91l-0.78,3.3l-1.55,1.55h-2.14l-1.74,1.75l-1.56-1.94h-1.351l-0.979,1.75l-1.351,4.85l1.16,1.55
		l1.94,0.19l1.55,1.56l0.2,3.1l-3.88-0.77l-0.78-2.53l-2.33-2.52l-1.36,0.19v2.72l-2.33-0.77l-1.939,0.38l0.779,2.72l-4.079,2.52
		l0.579,1.95l5.83,4.07l1.36,2.52l2.91,1.94l-2.521,0.78l-1.75-0.58l-0.39-1.94l-9.32-6.6l-0.77,1.55l-5.63,1.75l3.689,4.46
		l6.79,4.08l-8.54-1.36l2.33,3.11l5.24,1.16l-0.78,2.14l-3.689,0.971l-1.55-0.971l-3.101-0.39l-4.86,1.36l-4.27-1.36l-6.6,0.58
		l1.56,3.49l2.521,2.14l-1.36,4.07l-1.94,0.59l-4.27-4.08l0.58-4.66h-1.94l-0.39,8.35l2.53,5.24l1.939,1.75l0.771,2.521l-0.381,2.72
		l-2.529,2.52l-4.271-1.75l-1.16,0.98l-3.5-0.2l-1.359-1.16l-2.91-0.39l-2.521,1.36l-0.779,2.13l6.41,3.3l0.39,1.75l-5.63,0.58
		l-1.94,2.91l0.19,1.75l-1.16,0.58l-0.59,1.939l-7.57,0.2l-4.07-6.41l1.16-1.55l0.391-4.47l-1.36-1.74l-2.52-0.58l-2.141,0.77
		l-0.58,4.271h-1.939l-0.78-3.69l3.3-3.1l1.94-0.78l-0.971-1.939l-1.739-0.971l-1.561,1.94h-1.35v-2.13l-6.8-0.97l-1.94-1.36
		l-3.11,0.189l1.561,1.551l-0.78,1.75l-2.52-0.19l-1.17,1.74l0.97,1.75l4.47,3.689l-0.97,5.051l-1.75,1.159l-6.21,0.971l-3.11-0.391
		l-1.16-1.55h-1.779l0,0l-1.351-2.62l1.36-0.779l1.56-4.66l0.971-6.98l-0.591-3.3l0.78-1.94l0.19-3.3l-4.46-3.109l-1.75-1.94
		l-1.94,0.78l0.97,3.3l-0.58,1.94l-1.36-0.2l-0.97-1.74l-1.36-0.98l-1.74,0.2l-0.2,1.94l-2.52,2.33h-3.3l-0.97-3.11v-2.71
		l-2.53,0.19l0.39,4.659l0.97,1.75l-0.58,5.62l-2.52,4.271l-7.77-0.19l-1.94-0.97l-1.55-2.521l-1.94-0.39l-1.75-2.33l0.2-4.85
		l3.3-0.78l-0.2-2.13l-4.85-0.59l-0.19-4.66l-4.28-1.55l-2.52-5.82v-2.72l9.12-9.12l0.59-3.11l1.74-2.91v-2.72l6.6-2.52l0.2-1.75
		l-5.63-2.13l-0.39-3.69l0.97-3.49l5.82-5.44l2.53-3.49L376.14,260.44z"/>
	<path id="GL10" fill="#1E3250" stroke="#1E3250" stroke-width="0.5" d="M216.07,271.63l-0.46,4.32l-1.23,0.57l-3.28,1.15
		l-3.06-3.02l0,0l0.68-1.9l2.48-2.56l2.79,0.08L216.07,271.63z"/>
	<path id="IS-1" fill="#1E3250" stroke="#1E3250" stroke-width="0.5" d="M158.79,344.5l-2.29-1.83l-8.72,0.17l-8.06,2.46l-6.94-7.66
		l0,0l0.35-1.14l2.06-0.72l4.39-0.49l0.81-1.89l0.75,0.6l0.67-0.61l0.25-0.3l-2.39-2.729l-1.77-0.641l1.8-2.76l1.24-0.44l0.22,0.631
		l1.14-0.101l0.38,0.681v0.989l-0.97-0.729l-0.31,0.66l-1.42,0.13l0.85,0.85l2.26-0.64l-0.11,0.89l0.85-0.01l0.64-0.39l-0.87-2.341
		l2.08-0.5l-2.46-0.38l-1.03-2.33l-2.59-2.16l-0.92,1.101l-0.39-0.69l1.32-1.21l2.37,1.82l1.42-0.67l1.55,1.189l1.36-0.29l0.82-0.93
		l1.8,1.311l0.16,2.5l0.66-0.86l2.03,0.43l-1.86-1.6l0.17-0.61l-0.18-0.62l0.56-0.87l1.09-0.3l-1.3-0.8l-0.14-1.09l1.75,0.63
		l0.52,1.18l0.13,0.551l1.69-0.971l-0.29-0.7l2.44-0.619l0.19-1.101l-0.59-0.17l-0.94,0.93l-2.44,0.021l1.04-1.15l-0.53-1.04
		l2.67-0.689l0.54-0.931l-2.86,0.631l-1.66-1.04l-2.03,0.54l-0.18-0.601l1.09-1.359l-0.44-1.511l-2-0.479l-1.61,1.35l-1.22-0.66
		l1.01-0.75l0.21-0.729l2.74-5.76l1.25-0.58l1.92-2.87l2.48-2.27l0.12-1.22l0.88,1.02l1.76-0.53l0.69,0.66l2,0.04l1.19-1.11
		l-2.72-0.23l-0.71-1.23l4.99-2.79l1.59,0.1l-0.56,0.55l0.18,1l1.71,0.29l1.99-0.65l0.61,0.95l2.33,0.51l1.98-0.46l-0.5-1.29
		l1.88-1.58l1.54-0.26l0,0l4.61,1.12l4.5,2.72l1.16,1.39l0,0l0.19-0.2l0,0l0.04,0.84l-1.32,1.32l-1.97,1.31l-2.14,0.33l-1.81,1.97
		l-0.33,1.65l-5.1,5.43l0.33,4.61l0.99,1.31l-0.5,5.27l-1.15,1.311l-0.49,2.31l-1.65,1.15l-0.49,2.47l-4.61,6.74l-0.82,2.47
		l-1.48,0.99l-0.99,4.61l-4.11,0.16l0,0L158.79,344.5z"/>
	<path id="IS-2" fill="#1E3250" stroke="#1E3250" stroke-width="0.5" d="M101.37,330.77l3.08,1.28l3.4,4.67l1.59,1.2l0.42,2.35
		l-0.39,0.44l0.76,0.55l-0.1,2.721l0.6,0.84l1.13-1l0.63,0.68l2.66,0.48l2.68-0.11l0.89-0.771l-0.7-0.46l0.9-1.989l1.69-1.561
		l1.55,0.521l3.42-2.75l1.56,0.12l1.54,1.569l1.27,0.32l1.65-0.75l1.18-1.48l0,0l6.94,7.66l8.06-2.46l8.72-0.17l2.29,1.83l0,0
		l-1.63,1.63l0,0l-1.81,1.48l-1.97,2.96l-4.12,3.29l-0.66,1.97l-4.77,3.95l-0.1,2.12l0,0l-4.06,0.08l-3.54,0.85l-3.45-0.91
		l-2.11,0.76l-2.87-0.14l-1.82-1.2l-2.3-0.16l-1.43-1.359l-1.2-0.23l-1.83,2.11l-0.8-0.021l0.1,1.37l-0.59,0.521l-0.87-0.45
		l-0.34-1.25l-1.99,1.57l-2.45-0.58l-0.2,1.38l-0.65-0.061l-0.65,0.891l-1.68,0.1l-3.21-1.35l-4.73,2.63l-0.46-1.48l-1.44-0.83
		l1.63-2.39l0.65-2.5l-2.09-1.9l-0.31-1.72l0.48-0.92l1.34-0.32l0.97-4.77l2.55-0.21l0.74-0.601l-0.67-0.189l0.43-1.11l-2.26,0.95
		l-1.05-0.63l-0.53,0.32l-2.67-3.301l0.61-2.71l1.5-0.609l0.44-0.91l-0.3-6.66l0.59-1.17l-0.58-0.5l0.98-0.7l-0.82-0.729
		L101.37,330.77z"/>
	<path id="IS-3" fill="#1E3250" stroke="#1E3250" stroke-width="0.5" d="M196.02,219.27l-0.04-0.29l0,0l5.9,4.19l6.96,0.08l6.28,3.8
		l2.56-3.18l2.02-1.47h4.19l0.47-2.33l1.47-0.85l9.7,4.5l7.22-1.94l3.41,1.47l12.41-0.08l1.55,0.62l-0.1,2.4l0,0l-3.93,0.54
		l-1.01,2.56l-1.78,0.23l-1.78,1.4l-5.27,5.43l0.08,7.6l-1.09,3.57l-1.78-2.02l-2.33-0.15l-4.27,3.18l1.01,2.02l-0.78,1.63
		l-4.19,1.01l-4.03-0.39l-5.2,1.79l-3.83,2.95l0.54,3.88l-6.36,5.2l3.26,3.18l0,0l0.16,1.16l0,0l-1.34,0.66l0,0l0,0l0,0l-2.07-1.35
		l-2.79-0.08l-2.48,2.56l-0.68,1.89l0,0l-2.27,0.2l-1.24,2.4l-3.49,3.88l-8.07,7.68l-2.33,5.04l-2.17,2.17l0,0l-2.25,2.4l0,0
		l-1.16-1.4l-4.5-2.71l-4.61-1.13l0,0l-2.35-0.6l-1.2,0.59l-0.58,1.34l-1.35,0.24l-0.64-0.14l0.13-0.5l2.04-1.19l-0.9-1.49
		l-5.09,0.74l-3.3-1.67l-2.5,0.19l-5.08,3.02l-0.45,1.42l-2.08,1.02l-1.36,2.56l-5.59,4.13l-4.87,1.15l-1.13-0.73l-1.21,0.22
		l-0.62-1.33l-1.1-0.65l-0.99,0.26l0.42-1.56l1.34-0.7l3.63-4.45l0.83-0.34l0.06,1.62l2.23,0.14l3.07-1.53l0.14-1.11l-2.65-2.37
		l-1.39-0.14l-0.56,1.39l-1.05,0.11l-1.07,1.34l-0.13-0.98l-2.58-2.84l1.46-2.26l0.38-3.55l1.33-1.28l0.18-2.47l1.26-2.9l3.15-1.69
		l1.05-1.71l0.65,0.39l4.98-1.03l-0.5-1.57l-0.46-0.53l1.93-4.02l-1.45-0.17l-0.66,0.7l-0.21-0.77l-2.44,1.86l-0.79-0.21l-1.04,0.68
		l-0.43,1.8l-1-0.55l-0.65-0.12l-0.07,0.76l-0.95,0.46l-0.71-0.54l-0.7,0.62l-0.56,2.56l-1.12-0.44l-0.42,0.71h-2.02l1.61-4.31
		l-0.33-1.16l-1.96,3.26l0.54,0.52l-0.59,1.49l0.47,0.85l-0.3,1.4l-1.57,0.72l0.41,0.93l-0.43,2.83l-1.03,0.66l-2.76-0.83
		l-1.24,1.16l-0.93-0.32l-0.88-1.77l0.17-1.64l-0.93-0.12l-0.53,0.31l-0.49,0.13l-0.32-0.99l0.53-0.1l0.23-2.78l-0.13-1.33l0.65-2
		l-0.63-1.09l-0.3-0.28l-1.23-0.46l-1.03-1.39l-1.64,1.61l-2.23,0.44l0.37-3.75h-0.78l-0.35-1.81l0.92-2.4l-0.49-0.45L120.4,263
		l-1.49-1.81l0.44-0.59l-0.48-0.66l-3.51-2.24l0.22-0.98l1.75-0.92l0.32-1.73l1.51-0.85l0.28-3.229l0.5-0.25l1.24,0.96l0.96-1.71
		l-0.66-1.76l1.67-1.17l-0.1-1.15l-2.25-1.39l-0.75-0.08l-0.3,0.86l-2.28-0.52l-0.48,1.21l-1.32-0.48l1.43-1.17l0.73-1.99
		l-0.24-1.18l-0.79-0.58l-1.86,0.17l0.25-1l-0.58-0.58l-1.06,0.73l-0.32,0.3l-0.8,0.85l-1.08-1.72l-3.92,3.67l0.93,0.61l-0.03,0.49
		l-2.31-0.4l-1.14,1.01l-0.63-1.1l1.42-0.71l-0.5-1.01l-0.84,0.73l-1.09-0.43l0.84-1.16l-1.14-1.31l-1.31-0.23l-3.36,1.24l0.21,1.11
		l-3.7-0.7l-1.15-0.77l-3.6,1.24l-4.31-1.7l-2.02,1.37l-1.24-0.88l-3.27-0.05l-8.65-2.77l-5.78-0.22l-0.65,0.36l-0.78,2.84
		l-1.51,1.31l-2.56-0.52l-1.82-1.17l-5.31,0.48l-0.59,1.31l-0.86,0.33l-0.37,1.6l0.75,1.3l-1.49,1.71l-0.05,1.6l-2.84-0.83
		l-4.05,0.58l-1.45,1.1l-3.99-2.83l-2.4-0.29l-1.27-2.34l0.21-0.81l-1.8-2.22l-0.61-2.69l-2-1.46l-1.69-3.22l-0.49-3.09l0.14-1.2
		l0.93,0.77l2.33-0.4l3.63-5.18l1.26,0.51l0.49-0.71l2.51-0.69l1.38,0.2l2.73,3l3.68,1.04l0.23,0.771l3.58,0.34l1.89-3.07l2.8,0.13
		l0.15-0.63l1.02-0.17l1.15-2.89l1.25-1.36l2.96,0.68l1.07,0.12l2.55,0.77l-1.76-2.63l2.11-0.99l1.19,0.6l0.46,1.48l0.1,0.82
		l1.14-0.48l0.67,1.49l-1,1.8l1.33,0.33l1.36-0.8l0.52,0.88l0.85-0.08l1.44-0.73l0.45-2.35l-0.89-2.24l-0.45-4.29l1.75-1.979
		l1.31-0.29l1.64,0.96l3.41,0.18l-1.76,1.68l-0.84,2.45l-0.43,0.94l-1.36,2.59l1.98,1.18l0.14,2.14l1.52,0.95l0.55-0.31l-0.03-1.45
		l-1.23-5.65l3.73,1.62l0.75-0.33l1.01,1.58l1.01-0.27l-0.85-1.45l-2.74-0.84l0.93-3.22l1.18-1.57l1.69-0.63l1.79,0.39l1.4,1.3
		l-0.52,0.6l1.3,0.71l0.41-1.77l1.2,0.21l0.59-0.9l1.99-0.14l0.96-1.1l2.77-0.85l-0.03-0.96l-1.45,0.46l-0.49-0.63l-2.43,0.3
		l-1.09-0.79l0.74-0.5l0.54,0.73l5.37-4.57l1.17-1.88l1.23,0.6l0.51,0.76l-0.14,0.74l1.14,0.6l-1.62,1.59l0.85,0.24l-0.05,1.35
		l-2.4,1.27l0.07,1.08l1.9-1.28l0.28,0.79l0.6,0.83l0.76,0.39l0.07,1.17l1.01,0.75l1.01-0.3l1.23,0.93l0.43,1.41l1.87,1.37
		l-2.76-5.2l0.62-0.28l0.93-2.82l1.34-0.18l1.14-1.74l1.09-0.52l2.36,0.46l0.13,0.64l2.81-0.07l0.5-0.83l5.51-1.78l2.22,2.42
		l1.11-0.35l1.55,0.72l0.75-0.45l0.45,0.46l-0.35,0.92l1.06,0.1l0.67,0.81l2.17-0.76l1.38,1.08l0.68-0.59l-0.12-0.8l-0.3-0.6h1.07
		l0.23,0.81l1.78-0.51l4.39,1.73l1.47-0.73l2.32,0.81l1.82-0.69l3.45,0.24l0.87,0.2l1.53-1.55l0.16-2.1l-0.78-1.08l-2.48-0.62
		l0.05-0.62l3.37-2.96l0.06-2.41l2.13-3.17l-0.09-1.05l1.42-1.5l0.24-2.15l-1.03-1.36l0.3-1.81l-1.4-1.24l-3.96,0.17l-0.59,4.75
		l-1.07-0.45l-0.47,1.66l-1.77,0.71l-1.01,1.78l-4.5,3.12l-3.17,1l-3.07,0.03l-2.15-1.49l-6.05-0.49l-1.01-0.93l-1.05-0.41
		l-3.59-1.74l-0.38-0.79l-1.2-0.07l0.02-1.7l-1.3-0.69l-1.37,1.78l-0.88,0.49l-0.64,0.36l-1.13-0.57l0.09-0.71l-3.6,0.37l-0.81-0.72
		l0.47-0.75l-0.59-1.12l5.64-0.76l0.21-0.42l-1.34-0.84l-0.81,0.48l-1.58-1.93l0.07-0.7l1.19-2.25l0.99-1.48l0.9-0.63l0.58,0.4
		l1.95-2.23l-0.12-1.02l2.38-1.55l0.39,0.57l0.83-0.93l0.47-0.89l-1.37-0.29l0.04-0.52l11.79-4.71l1.61-2.19l4.45-3l1.87-2.05
		l2.13-0.09l2.02-3.34l0.81-0.03l1-2.21l1.54,1.17l5.96-1.09l4.76-4l-0.4-0.66l0,0l1.91-3.07l1.44,0.22l1.11,1.44l-1,2.77l-1.77,2
		l1.66,1.22l0.11,2.22l-2.33,1l-0.78,2.33l0.33,1.77l2.22,1.44l1.77,2.55l4.99-2.77l1.77,1.44l4.88,6.979l0.67,5.1l3.55,2.66
		l0.89,1.66l0.33,5.1l1.77,2l0.44,4.54l-2.22,3.66l-0.44,2.33l1.66,3.66l2.11,0.22l0.22,1.22l-1,0.89v1.66l2.22,2.77l0.22,2.88
		l4.32,2.22L196.02,219.27z M43.05,234.98v1.12l1.39-0.14l0.7,3.21l-1.11,1.25v1.25l-1.81,0.84l-4.88-3.2v-1.25l1.12-0.84l0.28-1.53
		l1.12-0.7h3.19V234.98z M232.28,246.76l-0.97,0.84l-4.88-0.42l-0.84-1.39l0.84-0.84v-1.25l2.23-1.67l0.42-1.39h1.39l1.39,1.53
		l1.81,0.28l0.42,2.09l-1.25,0.84L232.28,246.76z"/>
	<path id="IS-4" fill="#1E3250" stroke="#1E3250" stroke-width="0.5" d="M191.47,192.97l-1.88,6.9l0.44,2.88l5.1,9.42l0.55,4.99l0,0
		l0.33,2.11l0,0l-7.31-2.55l-4.32-2.22l-0.22-2.88l-2.22-2.77v-1.66l1-0.89l-0.22-1.22l-2.11-0.22l-1.66-3.66l0.44-2.33l2.22-3.66
		l-0.44-4.54l-1.77-1.99l-0.33-5.1l-0.89-1.66l-3.55-2.66l-0.66-5.1l-4.88-6.98l-1.77-1.439l-4.99,2.77l-1.77-2.55l-2.22-1.44
		l-0.33-1.77l0.78-2.33l2.33-1l-0.11-2.22l-1.66-1.22l1.77-1.99l1-2.77l-1.11-1.44l-1.44-0.22l-1.91,3.07l0,0l-0.76-0.18l-3.54,2.36
		l-6.34-1.98l-2.78,1.6l-0.1-0.77l-0.91-0.27l1.63-1.37l-0.03-1.19l-0.61,0.24l-0.79-0.68l-2.03-2.55l-0.06-1.48l-2.25-0.72
		l-0.43,0.64l0.59,3.54l-2.02,0.37l0.46-2.11l-1.27-1.98l-0.33-2.58l-1.76-1.02l-0.67,0.76l0.82,3.59l-0.98,1.04l0.04,1.43
		l-1.3,0.79l-0.84,2.79l-0.64-0.01l-0.08,1.49l-1.56,1.6l-0.7-0.44l-1.26,0.49l-1.33-0.33l-0.83-0.59l-0.88-0.57l-0.33-2.21
		l-1.1-1.25l-3.96-1.15l-0.43-2.06l4.28-2.78l3.93-0.45l2.44-1.04l2.43-2.73l1.32-5.05l2.71-2.81l-0.61-0.2l-2.56,2.04l-3.44,6.32
		l-2.27,2.18l-3.61,0.51l-1.6-0.96l0.45-1.07l2.77-2.02l0.1-3.12l-0.67,0.25l-0.54,1.89l-2.82,2.4l-0.81,1.86l-0.79-0.53l-0.38-2.17
		l-1.59-1.11l0.93,4.51l-2.32,2.06l-1.41,0.33l-0.8-0.85l-0.22-2.54l0.8-3.37l-2.17-5.74l0.15-2.05l-2.17-4.8l0.42,7.02l1.03,2.92
		l-0.38,3.43l-2.08,2.54l-1.39-2.01l0.58-3.29l-2.06-7.12l0.64,6.57l-0.95,4.23l0.66,1.22l-1.23,1.72l-2.43-1.54l-1.82-7.43
		l2.42-4.38l-0.03-2.32l-1.61,2.59l-1.29,0.71l-1.17-1.96l-1.05-0.66l-0.76,0.39l2.33,7.48l-0.29,2.68l1.58,7.29l-2.99-1.31
		l0.46-0.79l-1.56-2l-2.47,0.16l-0.86-1.2l-1.47,0.47l-0.04-1.14l1.1-0.7l0.01-0.95l0.92-0.99l0.82-1.11l2.55-3.75l-1.71-1.59
		l-1.45,0.07l-1.14-2.64l0.59,4.92l-3.69,4.14l-0.39-3.58l-0.93-1.15l-0.47-2.45l-1.21,3.65l0.59,0.66l-0.7,0.95l0.14,1.26
		l-2.18,3.63l-2.56,0.46l-1.51-1.3l-3.49-0.29l-0.42-3.41l0.97-1.89l-0.8,0.01l-2.08,2.81l0.2,0.94l-1.36,1.89l1.29,4.75l-1.92,3.45
		l-1.56,0.49l-6.61-1.29l-1.93-3.47l-0.93-0.09l-0.03,0.92l-1.4,0.53l3.04,1.94l-2.36-0.23l-2.43,1.83l-3.12,1.15l-1.69-0.05
		l-1.44,1.17l-3.15-0.56l-0.7,2.19l-1.55,1.16l-0.35,2.1l-1.34,1.88l-9.41,1.15l-3.79-0.84l-0.82-1.16l1.28-4.44l-0.32-1.95
		l-3.68-1.03l0.93,2.93l-5.01-3.51l-5.59-2.62l-2.88-0.51l-1.15,0.85l-8.58,0.49l-3.26,1L0,146.81l3.22-2.24l1.31-3.14l3.05-0.25
		l1.55-1.32l0.42-1.7l-0.68-4.06l2.76-3.04l0.29-2.86l9.04,4.24l1.41,1.64l0.54,1.8l1.03,0.54l0.76-0.43l2.14,2.14l1.84,0.88
		l1.84-0.25l1.75,0.7l0.35,1.49l3.56,3.58l2.16,0.72l1.02-1.59l2.81-0.95l-1.25-0.8l-1.33,0.78l-3.09-0.68l-6.01-7.52l-1.34-0.25
		l-3.83-5.86l-0.39-1.11l0.91-0.35l7.34,0.99l1.98,2.16l4.31,1.66l0.29,0.97l2.13,1.56l-1.92-3.729l-1.97-0.4l-3.63-3.96l-2.88-1.75
		l-2.14-0.52l-3.28-3.25l-3.28-11.25l1.24-3.73l3.71,0.92l6.52,4.89l3.07,0.62l2.42,2.89h1.16l2.33,1.83l1.6,0.2l6.81,3.72
		l-0.41,2.69l1.76-1.01l0.69,2.49l1.14,1.48l0.12,1.24l-1.55,2.28l0.52,0.87l-0.25,1.99l1.48,0.51l2.13-4.91l1.53,1.91l-0.15-2.63
		l4.36,3.5l1.5-1.73l-1.4-0.66l-1.23-2.52l2.87-0.51l1.21-1.05l2.19-0.19l2.46-1.34l-0.86-0.39l-3.93,0.47l-2.21,0.91l-3.73-1.13
		l-1.8-0.93l-2.85-4.67l3.62-1.25l5.25-0.16l2.39-1.33l3.53-0.17l2.88,0.78l0.21-1.66l-1.59-1.2l3.59-2.23l-0.81-1.55l-2.07,0.23
		l-3.35,2.55l-2.12-0.24l-4.71,1.23l-5.35-0.57l-1.41,0.84l-9.67-3.32l-6.33-6.93l-2.52-7.53l1.49-4l1.92-1.15l9.17,3.51l0.44,1.82
		l2.37,1.44l2.06,0.07l1.3-1.29l1.96-0.07l1.04,2.07l1.44,1.14l1.75-0.11l1.43,0.76l2.67-0.39l5.28,2.36l3.58,0.16l-7.37-2.81
		l-0.96-1.2l-3.95-0.23l-1.58-0.85l-0.65,0.41l-0.23-2.33l-0.6-0.6l-1.7-1.06l-1.8,0.65l-2.78-1.23L51.08,89l-4.97-3.57l-0.56-1.36
		l-2.1-1.4l-2.49-3.96l-0.98-0.56l-0.71-3.79l1.53-3.79l1.65-1.3l2.91,1.64l2.61,0.07l5.71,3.4l6.77,2l0.19-1.74l-0.94-1.26
		l-3.95-2.22l-6.72-5.67l-1.28-2l0.52-0.96l4.16-0.41l1.41-1.59l1.45,0.15l2.79,1.57l2.17,2.59l4.2,2.53l-4.26-3.81l-2.05-3.11
		l-7.16-2l3.54-4.36l3.36-0.33l-0.34-1.63l0.69-0.62l6.44,0.66l2.92,0.97l3.02,2.07l0.66,2.45l1.94-0.21l3.47,2.34l1.95,5.04
		l-1.07,3.58L75,69.9l0.56,2.61l0.48,0.14l0.42-1.43l1.64-1.08l3.9-5.1l0.85-0.01L84.91,67l0.54,2.06l-0.04,6.97l-2.61,2.21
		l-2.9,5.47l0.56,0.25l1.63-1.48l0.78-1.36l3.35-3.72l1.63-5.52l1.41,4.55l-1.4,3.85l0.94,2.78l0.79,0.03l-0.78-2.94l2.5-4.29
		l-0.35-2.4h1.26l0.13,4.5l-1.54,4.7l-4.86,6.81l-0.63,1.62l0.38,0.5l2.96-4.48l2.62-2.38l2.65-6.72l1.03,2.45l-0.35,5.94
		l-2.02,5.89l0.1,2.02l0.88-0.53l3.16-8.23l-0.36-1.83l0.76-3.11l-0.83-2.4l1-6.61l0.69-0.75l1.61,2.2l0.74-0.97l1.79,0.4l1.12,3.7
		l1.5,1.02l0.75-0.45l0.63,2.94l1.14,0.45l-0.45,0.59l0.46,1.58l0.9-0.12l-0.6,2.82l0.45,0.75l-0.44,5.21l-3.23,7.9l0.62,0.75
		l-1.36,3.08l0.47,0.33l0.74-0.2l1.4-2.8l-0.05-2.91l1.31-1.8l0.2-2.16l1.21-1.95l-0.04-2.31l1.73-2.06l0.04-2.99l0.46-2.52
		l0.48-0.14l1.2,3.18l-0.02,2.3l0.69,0.27l0.33-1.05l0.42-0.73l1.24,2.07l-0.3,6.26l1.07-1.21l-0.37-2.69l0.86-1.49l0.38,3.58
		l-0.87,2.58l0.27,1.22l-2.95,6.54l-1.96,3l-3.64,3.24l2.31-0.61l3.39-3.31l0.58-1.73l2.65-2.25l0.49-2.64l1.53-3.06l-0.12-2.14
		l1.03-1.11l1.06,0.24l0.64-0.52l-1.23-1.9l-0.71-0.33l-0.74-5.71l-1.25-3.58l-3-3.68l-1.16-0.33l-0.29-1.36l1.46-2.09l-0.37-1.83
		l4.15-3.13l0.7-1.48l-2.28,0.56l-2.22,1.79l-2.84-0.41l-3.34-1.93l-1.27-1.979l-3.33-0.98l-5.03-2.91l-1.48,0.01l-1.09-1.23
		l-2.85-0.67L88,53.38l-1.65-2.29l-0.8-3.17l0.54-1.65l3.4-1.25l1.2-0.88l1.08-0.96l5.97-1.13l4.76,2.82l3.7-0.19l2.03,3.01
		l2.21,1.17l-0.41-1.92l-1.42-1.07l0.1-1.77l2.38,1.32l0.25-1.62l4.39-0.72l4.08-2.26l-1.64,0.08l-0.61-0.54l-4.65,1.36l-4.65-0.52
		l0.92-2.23l2.01-0.61l1.63-2.1l1.62-0.88l-1.5-0.4l-0.11-1.32l0.63-0.9l-1.8-0.87l0.19,2.15l-1.2,2.08l-3.14,2.65l-4.53-0.34
		l-2.46-1.32l1.93-4.58l0.16-2.72l3.2-0.95l0.25-1.52l-4.44,1.02l-1.98,4.38l-2.31,1.78L93.5,35.4l0.42-4.26l2.04-1.28l0.58-2.53
		l-1.43,2.24l-3.59,1.91l-0.43,2.66l-1.02,1.12l-2.83,1.31l-0.95,1.17l-3.37-0.15l-0.7-0.41l-2.49-2.11l-4.3-2.19l-2.05-3.13
		l0.92-1.17l5.13,2.5l1.34-0.57l0.35-1.04l1.7-0.57l0.56-1.52l-0.34-2.85l-2.12-0.19l-4.31-5.65l2.15-1.18l2.77,2.52l1.57-2.29
		l3.89,0.11l1.31-2.47l-1.64-1.19l0.03-0.8l1.42-0.67l4.76,1.57l2.15,2.41l3.86,0.65l1.05,3.12l1.58,0.32l1.35-0.3l1.81-3.16
		l1.19-0.87l-0.67-2.68l0.79-0.49l1.44,0.13l2.96,2.5l0.49,2.26l1.57-0.11l0.29,0.98l1.9-0.32l0.6-2.51l-1.83-2.82l1.01-0.08
		l2.84,1.22l0.14,1.25l0.63,0.39l0.02,4.18l1.11,0.94l0.54,2.01l5.21,2.92l-0.34,1.26l2.06,1.04l-0.99,1.41l0.63,1.41l1.02,0.29
		l2.21-0.97l-2.66,4.25l0.38,1.02l1.74,1.16l-2.16,3.71l0.72,1.13l0.91,0.28l2.87-2.75l0.65,0.08l0.34,1.96l-1.14,2.22l0.56,0.47
		l2.62-4.42l0.17-1.43l0.96-0.73l-0.49,4.09l1.13,1.43l1.58-0.78l1.52,0.21l2.99-2.3l-0.2,3.4l1.34,1h1.05l-0.54,2.83l-3.63,2.49
		l-0.81,1.3l3.99-2.5l1.43,0.01l0.16,1l1.24,0.52l1.01,1.74l1.92,0.01l2.06,1.02l3.27,0.04l-1.34,1.48l-0.1,1.08l2.55,1.73
		l-1.57,3.92l0.38,1.3l0.77,1.03l-1.12,2.64l1.04,1.69l-0.3,1.28l0.53,1.16l1.63,1.05l1.75-2.54l1.78,2.48l-0.52,2.09l-1.98,2.54
		l0.29,0.4l2.73-1.77l0.87-1.66l0.1-2.62l-1.22-1.83l0.57-1.91l1.27,0.27l2.7-0.81l2.75,6.02l-0.71,0.25l-2.74-1.31l-0.63,0.68
		l1.41,1.06l-0.18,1.5l1.6,1.17l0.06,0.9l2.52-0.07l4.11-1.84l4.42,3.57l0.2,1.57l-0.56,0.54l-2.31-0.26l-3.73,0.87l-2.74,1.479
		l-2.1-0.15l-3.48,1.63l-0.89-0.14l-0.2,0.63l0.75,2.27l4.37-2.02l2.15,0.38l2.22-1.24l2.53-0.29l1.01,0.49l-0.15,1.01L171,86.68
		l-0.51,1.18l7.29-1.47l2.01,1.98l0.15,2.4l0.49,0.12l-0.2,2.67l-2.39,2.21l2.63,2.01l-1,1.79l0.1,2.38l-0.83,0.6l-1.46,3.72
		l-2.54,2.27l-3.56,0.49l-0.74,0.84l-1.72-0.32l1.98,1.96l1.94-0.3l1.14,1.21l3.21,0.94l-0.23,1.48l-2.18,1.39l-2.9,4.82l-4.89-0.07
		l-2.14-0.51l-0.15-0.81l-2.15-1.44l-2.49-2.21l-1.67-4.81l-2.21-1.11l-0.15-0.89l-3.23,0.8l-0.42,0.81l2.54,0.77l3.14,2.67
		l1.11,4.5l-1.88,1.87l1.42,0.93l0.17,2.77l1.06,0.56l-0.16,1.4l0.9,0.93l0.99-0.4l1.05,0.9l4.59,0.22l1.63-1.09l4.93,2.17
		l0.11,3.21l-3.79,3.85l-1,1.77l0.3,0.99l0.79,0.25l5.76-6.25l3.69,0.99l-0.02,7.31l-1.59,4.71l-3.07,2.88l-0.01,1.08l-5.33,4.49
		l1.15,0.19l9.35-5.6l0.88,3.15l1.58,1.11l0.33,1.47l1.19,0.25l0.68,0.33l0.52,0.33l-1.03,2.58l1.6,2.29l-0.37,2.82l0.64,4.9
		l-1.06,4.59l3.76,7.9l-0.44,0.58l2.47,4.4l0.09,6.91L191.47,192.97z M132.78,68.83h-1.95L124,63.12l-3.62-4.04l-1.95-0.42
		l-1.67-7.38l3.34-3.48l2.23-0.7l4.32,1.39l1.53,2.229l2.23,1.39l0.98,4.32l1.95,1.53l3.76,6.97L134.59,68L132.78,68.83z
		 M107.28,154.8l-1.11,0.84l-1.95-0.14l-0.56-0.97l2.93-2.65l1.11,0.56L107.28,154.8z"/>
	<path id="IS-5" fill="#1E3250" stroke="#1E3250" stroke-width="0.5" d="M302.92,57.71l3.2,3.04l-1.16,2.77l1.75,1.6l0.58,2.33
		l5.39,4.22l-2.91,10.19l2.91,4.8l0.15,5.82l-3.93,2.48l-2.18,2.18l-0.15,3.49l5.97,5.97l3.93,2.62v12.96l-2.04,5.68l-3.2,4.66
		l0.58,5.1l1.46,1.75l2.18,1.17l5.68,1.31l1.75,4.95l-2.18,3.49l-0.29,1.75l1.31,0.73l0.15,5.82l1.16,3.35l2.48,2.18l1.31,2.77
		l4.95,3.2l0.73,8.44l9.03,6.41l0.15,6.41l1.75,4.08l0.15,5.24l-2.04,7.72v5.24l1.75,1.46l2.04,3.93v5.39l-1.31,1.75l-3.93-0.58
		l-2.04,1.46l-0.29,1.6l-0.71,0.59l0,0l-0.91,0.76l0,0l0.6-4.99l-7.13-3.93l-2.33-2.771l-2.18,0.29v1.6l-1.89,0.15l-2.18-0.73
		l-3.06-2.62l-5.24,0.29l-6.55,5.53l-0.58,2.33l1.17,1.31l-0.44,1.02l-2.33,0.29l-1.31,3.93l-4.66-0.15l0.15,4.37l2.48,3.79
		l-0.29,2.33l-0.48,0.09l0,0l0,0l0,0l0,0l0,0l-7.52,0.2l-0.87-1.6l-2.33-0.73l-4.51,0.73l-4.66-2.18l-8.73-2.04h-2.91l-1.46-3.35
		l-1.83-1.55l0,0l0,0l0,0l-0.65-2.62l-1.31-1.8l-3.01-0.94l0,0l0.1-2.4l-1.55-0.62l-12.41,0.08l-3.41-1.47l-7.21,1.94l-9.7-4.5
		l-1.47,0.85l-0.46,2.33h-4.19l-2.02,1.47l-2.56,3.18l-6.28-3.8l-6.96-0.08l-5.9-4.19l0,0l-0.29-1.82l0,0l-0.55-4.99l-5.1-9.42
		l-0.44-2.88l1.88-6.9l0,0l0.55,0.33l0.28-1.5l-0.13-4.02l-2.75-9.91l1.46-2.16l-0.65-1.55l1.23-1.56l0.59-3.06l-1.17-10.46
		l0.33-1.73l-0.83-3.81l2.13-1.11l3.84,10.99l1.96,3.84l1.38,0.05l0.85,2.72l0.22-1.17l-3.76-13.97l-0.82-5.53l2.88-12.9l2.74-3.82
		l2.42-1.57l4.1-5.25l1.48-0.6l1.71-2.51l0.43,0.74l0.82-0.31l0.73-1.28l0.92,0.46l0.13,1.39l1.73-0.07l-0.86,3.24l0.71,2.93
		l-0.32,4.43l6.22,0.42l7.52-2l3.49-2.33l1.39-5.11l-0.12-3.39l1.94-5.18l0.01-2.13l-0.89-3.36l0.3-2.27l-1.27-2.21l-0.53-3.58
		l-0.93-0.16l-0.17-1.18l0.99-1.15l-0.63-1.23l0.37-1.92l-2.07-4.5l-1.1-5.82l-1.09-2.51l-0.13-4.19l-1.37-3.79l-1.05-0.33
		l1.63-5.69l-0.71-3.71l2.56-1.11l1.99,0.23l1.85-2.71l3.09,0.77l1.74-0.38l3.58-3.19l1.27,0.12l1.18,1.15l1.38-0.16l0.28,2.07
		l2.82,3.6l-0.63,1.23l0.25,1.72l1.36,1.53l-0.21,1.68l1.77,3.63l2.23,2.3l0.81,2.97l-0.35,1.44l0.95,2.6l2.07,1.24l0.41,0.9
		l0.7,4.49l1.16,0.18l0.59-1.11l2.6,2.29l1.66,0.73l0.87-0.39l1.82,3.17l1.79,6.83l0.87,0.65l-0.3,5.27l0.85,2.46l1.84,1.08
		l2.88-0.44l0.63-0.63l0.49-2.85l4.16,4.92l4.15-2.55l-0.34-2.45l1.46-1.38l0.28-1.67l-0.95-2.65l1.51-2.27l-1.91-5.52l-0.26-2.67
		l-1.91-1.91l-0.47-2.88l-2.27-3.59l-1.29-0.43l-0.45-1.88l0.84-0.88l4.05-0.53L284,80.4l0.2-2.29l-1.95-4.54l0.16-1.8l4.54-3.7
		l1.19,0.46l1.11-0.53l3.55,0.12l2.46-0.87l1.22,0.25l0.87,1.63l1.45-0.12l0.54-0.9l-0.69-0.52l0.21-1.17l2.22,0.14l0.58-0.78
		l0.13-3.43L302.92,57.71z"/>
	<path id="IS-6" fill="#1E3250" stroke="#1E3250" stroke-width="0.5" d="M362.43,1.98l0.98,1.57l-0.19,2.38l-2.35-1.64l-0.28-1.78
		l0.82-1.06L360.99,0L362.43,1.98z M550.01,84.8l-3.859,0.6l-1.75-0.97l-1.36,0.39l-2.72,2.33l-0.78,3.11l-3.49,4.08l-1.16-1.16
		l-5.05,0.39l-2.13,1.36l-4.85-0.78l-3.49,1.17l-6.4,0.58l-3.1,1.36l0.58,4.66l-3.49,2.72l-4.08,2.13l-0.78,1.75l-2.72,1.75
		l-7.18,1.55l-1.16,0.97l-1.75,6.02v2.33l1.94,11.65l-3.301,5.44l-3.489,0.78l-0.971,1.55l-3.3-1.94l-4.46,0.39l-4.66-1.16
		l-2.13,1.55l-0.779,1.36v3.11l-2.91,6.41l-0.19,3.49l-1.55,3.49l0.58,3.11l7.96,7.18l-1.36,2.52l-0.39,3.11l-2.72,2.91l-1.75,3.11
		l-3.101,2.91l-0.97,3.69l0.189,13.39l-1.359,1.36l0.39,4.85l1.55,1.75l-3.1,5.05l-4.46,0.78l-3.88,4.27l-1.75,3.3l-6.601,3.11
		l-3.689,2.52l-2.33,10.29l-1.54,3.42l0,0l-0.21,0.47l-3.49-2.91h-1.16l-0.779,0.97l-2.91-0.19l-7.38-1.75l-3.881,2.13l-3.3,0.58
		l-3.3,2.72l-1.359,1.94l-2.33,0.39l-0.78-1.55l-3.88-1.16l-4.271,2.13l-5.24,5.24l-0.58,2.72l-2.14,0.39l-0.58,1.36l-5.82,4.85
		l-1.36,3.49l-3.49,0.39v-1.36l-0.75-0.23l0,0l0,0l0,0l0,0l0,0l0.73-0.06l-1.94-2.52l-3.88-3.1l-7.38,0.39l-2.52-0.78l-3.1-2.33
		l-0.39-2.52l-2.33-4.85l-1.16-2.13l-1.75-0.97l-2.52-0.39l-2.33,0.39l-1.16,0.97h-2.52v-2.13l0.97-1.55l-0.78-1.55l-5.24-4.66
		l-1.94-0.97l0.12-2.47l0,0l0.71-0.59l0.29-1.6l2.04-1.46l3.93,0.58l1.31-1.75v-5.39l-2.04-3.93l-1.75-1.46v-5.24l2.04-7.71
		l-0.15-5.24l-1.75-4.08l-0.15-6.41l-9.02-6.4l-0.73-8.44l-4.95-3.2l-1.31-2.77l-2.47-2.18l-1.16-3.35l-0.15-5.82l-1.31-0.73
		l0.29-1.75l2.18-3.49l-1.75-4.95l-5.68-1.31l-2.18-1.16l-1.46-1.75l-0.58-5.09l3.2-4.66l2.04-5.68v-12.96l-3.93-2.62l-5.97-5.97
		l0.15-3.49l2.18-2.18l3.93-2.47l-0.15-5.82l-2.91-4.8l2.91-10.19l-5.39-4.22l-0.58-2.33l-1.75-1.6l1.17-2.77l-3.2-3.04l0,0
		l2.51-1.78l2.83-3.22l2.62-0.26l1.37,1.95l-1.23,4.93l0.62,0.08l3.02-4.32l0.89-2.8l-0.98-1.52l3.99,0.85l1.56,1.84l0.14,1.59
		l-1.69,5.15l0.91-0.04l1.21-2.75l2.76-1.49l1.35,0.27l1.95,2.01l1.91,4.46l-3.24,4.18l0.08,0.83l0.78,0.57l4.26-2.94l0.99,0.47
		l1.27,1.91l0.72,6.66l0.63,0.64l-1.17,7.56l1.6,0.98l2.69-0.18l2.38,2.58l1.49-0.65l3.49,0.99l1.19,4.03l1.45,1.43l0.77,5.33
		l0.82,1l1.2-1.3l1.83,2.22l-0.01,8.02l1.65,1.85l0.64,2.15l-0.59,0.85l0.59,2.06l-0.56,1.71l1.76,1.66l1.3,3.3l1.59,0.74
		l-0.48,2.08l0.88,0.59l0.58-0.58v-1.48l-1.94-9.06l0.68-3.63l1.35-2.86l-0.38-1.08l0.69-1.46l-0.81-1.64l0.39-1.57l-1.41-5.39
		l-2.26-3.43l0.01-1.36l-0.81-0.31l0.31,1.47l-1.46-0.45l-0.45,0.41l-1.94-1.94l-0.13-2.36l1.3-2.25l-3.38-3.48l-2.32-5.71
		l0.05-1.94l-1.1-3.59l-0.24-6l-0.95-2.68l0.64-4.94l1.8-2l0.66-0.64l6.21,0.75l0.65,2.17l0.8,0.41l0.77-1.75l1.19-0.16l1.07,1.04
		l-0.32,1.26l0.78,0.97l3.59-1.56l3.85,1.12l2.18,1.93l-0.42,1.16l1.54,2.5l2.76,0.55l0.65,1.87l3.58,3.4l3.23,5.31l-0.04,2.98
		l1.39,2.45l1.76,0.83l4.47,0.49l5.16-0.88l1.67-0.84l2.14-2.27l-0.34-1.27l0.47-1.24l2.18-2.4l-0.25-0.83l-1.24-0.03l0.94-2.91
		l-1.01-0.64l1.68-1.26l-1.29-1.02l2.56-0.15l3.561-3.36l-0.08-3.81l-1.06-0.82l0.01-0.79l0.34-1.22l1.61-0.78l1.5-2.03l1.42-0.52
		l0.99,0.96l1.699-0.01l0.771-1.82l5.33-0.56l1.77,1.39l1.14,5.69l1.511,2.31l-0.54,4.31l1.62,0.98l0.89-1.05l-1.16-0.6l0.37-1.91
		l5.66-0.53l2.72-0.98l2.79-2.45l11.38-5.85l4.33-5.01l0.8-1.62l-0.329-2.19l0.68-2.49l-1.311-1.34l-1-1.72l-0.52-0.96l-0.25-3.29
		l-0.97-2.32l-1.2-0.9l-0.4-3.98l0.641-1.38l-0.98-2.86l1.5-0.51l-2.08-4.43l-0.42-2.45l-1.47-1.57l1.359-4.07l1.87,0.39l0.851-0.69
		l1.01-0.5l2.34-0.78l0.73,1.14l0.06,1.71l2.55-1.85l1.45,0.75l1.2,2.57l1.37,0.07l3.029-1.22l-0.25-2.51l0.79-0.26l0.28,1.58
		l1.38-0.64l1.561-3.09l2.149-0.71l1.54,0.22l0.78,0.96l0.85-0.26l1.381-0.04l1.8,0.36l1.739,0.83l1.561-0.08l1.2,0.64l0.8,1.75
		l1.06,0.47l-0.6,1.46l1.86-0.15l0.239,0.57l-2.81,1.8l0.16,1.43l0.1,1.01l-0.52,1.86l0.569,1.98l0.08,0.91l1.75-0.58l0.62-0.42
		l0.641,0.21l0.09,1.19l2.359-1.19l0.9,0.18L482,23.02l0.28,0.53l1.649-0.64L486.19,24l3.05,0.39l1.16,1.85l0.68,5.68l-0.32,2.14
		l-1.279,2.43l-3.2,3.39l0.22,1.49l1.44,2.11l2.35-1.18l0.21,0.39l-1.09,3.1l-0.01,1.97l0.649,0.69l2.92-0.58l0.881,0.99l2.279-1.79
		l0.34,1.81l3.131,0.49l0.22,2.17l1.37,1.46l2.47,0.14l1.44,3.68l1.51,0.41l2.79-0.7l0.72-0.78l0.601-2.08l-1.101-2.94l0.021-3.49
		l0.84-3.22l1.16-0.3l2.31,1.1l7.83-2.7l1.34-1.44l-0.3-1.69l1.32,0.25l2.17-1.53l0.16-1.17l1.539-1.9l0.37-3.66l1.58-0.29l2.3-2.69
		l3.7-1.88l2.04-0.17l0.561,1.13l2.71,2.14l2.29,0.47l2.779-0.4l3.591-2.18l4.21-0.55l-2.051,2.56l-5.979,2l-3.99,2.58l-1.16,0.14
		l-4.399,4.19l-1.29-0.07l-4.22,1.85l-2.15,3.77l3.939,5.28l-0.729,4.71l-7.21,5.93l-4.78,1.16l-2.11,3.05l1.92,2.69l5.261-0.9
		l-0.74,2.4l0.47,1.63l-2.11,3.56l0.69,0.57l2.66-0.76l1.57,0.29l0.38,1.42l1.739-0.26l0.761,0.79l2.81-0.67l0.64,2.62L535,77.7
		l2.52-0.52l1.44-3.39l2.03-0.6l1.43-1.98l0.75-0.3l1.69,1.31l1.13-0.14l1.52,6.04l1.71,1.21L550.01,84.8z M368.59,248.89
		l-1.12,0.43l-2.66-0.43l-2.15-2.75l1.89-1.8l2.06-0.77l0.34-0.94l4.13-2.06l2.06,0.95l0.52,1.29l-0.86,1.81l-2.06,1.38
		L368.59,248.89z"/>
	<path id="IS-7" fill="#1E3250" stroke="#1E3250" stroke-width="0.5" d="M550.01,84.8l0.25,1.78l-3.25,8.33l-3.56,2.68l-0.61,1.58
		l-0.04,0.73l-3.35,1.52l-0.45,2.23l-1.06,1.2l1.229,3.01l-1.47-0.47l-1.21,2.3l-2.101,1.65l-1.18,1.27l0.48,1.02l7.37-6.72
		l-0.931,2.93l-1.31,0.81l-2.58,4.11l1.04,1.35l2.71,0.16l1.35-1.75l1.45,0.22l3.47-2.64l0.221,0.69l0.989,0.09l1.2-1.19l5.021,0.15
		l2.72-1.11l2.5-2l6.64-1.43l0.09,2.05l-3.02,7.19l0.43,1.66l2.25,2.63l7.24,6.61l7.75,4.39l3.72,0.94l1.391-0.48l1.68-1.84
		l2.1,0.28l0.561-0.44l1.75,0.93l0.92,3.08l-2,0.9l-0.36,0.86l3.94,1.49l0.1,5.51l1.13,0.86l1.08-0.16l2.09-4.44l2.86-0.08
		l-0.37,3.25l0.89,0.5l1.19-1l1.4,2.89l1.34,0.29l-0.88,3.03l0.17,2.9l-1.811,0.09l-0.51,0.93l0.73,1.25l-0.221,1.23l0.98,1.01
		l-0.43,2.3l-1.78,0.67l1.399,2.98l-1.569,1.95l-2.94,1.73l-1.47-0.58l-4.83-0.12l-1.46,0.82l7.66,2.79l0.399,0.98l-2.64,2.77
		l-5.76,0.24l-2.011,1.87l-5.06,2.07l-0.56,1.71l0.409,0.78l2.11-2.22l2.94-0.53l3.449-1.79l2.42,0.12l1.94,0.94l2.9-0.15l0.93-1.62
		l0.68-0.08l6.65,3.38l-1.63,4.1l-1.601,1.96l-0.359,1.43l-1.42,0.87l-6.55,1.16l-5.511-0.54l-7.63,2.4l2.63,0.01l5.08-1.29
		l5.04,1.73l6.8-0.4l1.03-0.66l1.44,0.79l-0.07,3.19l-1.13,1.81l-1.37,0.62l-3.08,0.05l-2.04,2.17l3.34-0.71l3.181,0.5l-0.391,1.29
		l-2.52,1.67l4.2-0.75l-0.921,3.28l0.521,0.22l1.939-2.37l1.7-4.92l2.69-3.29l-0.57,7.19l-1,2.16l0.51,1.24l1.851,0.14l-0.021,2.4
		l-2.439,3.27l-3.45,1.25l-0.4,1.34l1.16,1.43l-0.37,1.97l-3.529,1.19l-6.391-0.1l-1.72-3.39l-2.57-2.58l-3.25-1.82l-2.64-0.59
		l-3.71-3.41l-0.55,0.67l2.789,3.99l-4.729,0.41l-2.1,1.35l-1.98,0.22l-4.55-1.18l-0.19,1.34l3.23,1.46l6.62-0.72l1.74,1.05l2,0.07
		l0.689,0.87l3.09-0.45l2.62,2.9l0.01,1.3l3.721,2.13l1.5,2.22l4.39,1.15l1.27-0.78l-0.27,3.69l-1.4,0.5l-3.96-0.48l-0.42,0.44
		l-4.25-1.96l-1.27,0.64l-4.48-0.08l-4.35-2.12l-0.28,1.16l2.021,1.49l4.56,1.38l4.46,0.46l1.97,2.02l1.87,1.08l0.931-0.13
		l0.88,1.49l-1.23,2.25l-1.75,1.16l-1.41,1.98l-4.09-1.85l-2.95-0.04l0.04,0.69l5.101,3.05l1.8,0.22l-0.42,1.26l-1.57-0.62
		l-4.149,1.73l-1.45-0.9l-1.431,0.31l-1.58,1.21l-0.539-0.22l-0.69-0.83l-1.65,0.47l0.5,1.26l-0.42,0.58l0.53,0.7l0.72,0.46
		l0.75-0.14l1.4,1.94l-0.04,0.94l1.57,1.52l-0.9,1.45l-4.82,3.12l-1.479,0.04l-2.521-0.01l-0.979,1.44l-1.4-0.05l-0.58-0.66
		l-1.25-0.01l-1.01,0.61l-1.69-1.64l-2.8-0.73l-0.8-3.59l-1.24,0.14l-0.229-2.27l-0.42-0.34l-1.4-1.51l-1.89-0.69l0.06-1.94
		l-1.899-1l-1.761,0.57l2.41,1.16l0.521,1.35l-1.23,1.22l0.141,0.96l2.67,1.08l1.3,1.51l0.35,3.55l1.05,1.45l1.79,0.58l0.13,1.9
		l1.5,0.83l1.221-0.13l0.38,0.8l1.08,0.43l0.68,1.28l0.69,0.58l-0.7,1l-2.74-0.1l-0.92-0.3l-0.6-1.34l-1.33,0.32l-2.41-1.18
		l-3.521,0.75l-1.26-0.37l-1.9,1.14l2.33,1.77l2.301-0.1l1.33,1.18l0.13,3.22l-1.271,1.39l-0.9,0.39l-0.319-0.64l-1.561,0.04
		l-0.77,1.15l-1.25-1.19l-1.55,0.46l-1.04-0.41l-1.33,2.21l0.939,2.42l-0.93,1.79l0.56,0.81l0.94,0.4l1.74-1.09l1.399,1.21
		l6.19-6.91l2.47-2.13l0.471,0.84l-3.32,2.63l-4.601,7.02l-0.27,1.8l1.04,1.44l-2.33,5.38l0.45,2.8l-1.75,1.55l0.2,1.51l-0.73,1.4
		l-0.84-0.36l-5.97,1.06l-4.061,1.5l-1.37,1.23l0.511-1.13l2.51-1.23l5.479-1.56l3.19-0.26l-4.41-2.85l-2.25,0.62l-1.8-0.42
		l-0.79,3.73l-0.74-0.15l-2.77,1.91l-0.36,1.41l-1.84-1l-0.19,1.79l-0.899,0.05l-1.051,1.92l-0.89,0.41l-0.95-0.86l-1.239,1.14
		l0.42,1.39l-3.2,2.62l-0.811,1.88l1.971,0.59l2.52-0.52l-0.52,0.97l0.619,1.12l-1.76,0.23l-0.79,2.489l-1.319-0.01l-0.53,1.25
		l0.68,0.8l-0.28,0.561l-2.59-0.13l-0.64,0.47l-5.05-0.66l-3.891,1.02l0.95-0.899l3.67-1.08l3.91,0.66l2.71-0.311l0.64-1.649
		l-2.63,1.52l-0.37-0.31l0.811-0.88l-1.5-2.471l-2.021-1.649l-1.59-0.42l-1.76,2.67l-2.35-1.42l-0.91-0.14l-0.86,0.03l0.95-1.75
		l-1.65,0.88l-0.41-0.4l-1.31-0.28l-1.31-4.65l-0.29,0.78l-0.69-0.33l-0.41-1.73l-1.01-1.02l-1.72,0.22l-1.021,0.64l-0.27,1.04
		l0.64,6.73l-0.33,0.63l-1.239,0.19l-0.33,0.649l1.05-0.1l-0.16,1.03l-0.9,0.43l-0.399,1.48l-2.561,2.76l-3-2.94L500.15,311
		l1.109,1.69l-0.279,1.159l-1.4-0.189l-0.521-0.67l-0.779,1.27l-6.15,1.87l-1.439,0.021l-0.311-1.45l-0.47,1.569l-3.811,3.69
		l-2.149,0.13l-0.32,0.73l-4.58,1.63l-5.26,3.33l-18.84,18.069l-0.15-0.59l-1.76-1.34l-0.08,2.561l-1.49,3.699l-1.909,2.62
		l-3.03,1.51l-0.41,2.091l-1.34,1.319l-2.07,1.46l-3.12,0.42l-2.04,1.95l-0.63,1.08l-3.53-0.87l0.69,1.16l-2.63-0.92l0.59,1.96
		l-0.48,2.69l-0.67,1.409l-0.21-4.229l-0.79-0.21l-0.56,0.74l0.41,2.1l-0.66,3.91l-11.67,1.32l-8.75-0.58l-11.37,1l0,0l0.54-29.221
		l0,0h1.78l1.17,1.551l3.109,0.39l6.21-0.97l1.75-1.16l0.971-5.05l-4.46-3.69l-0.971-1.75l1.16-1.75l2.521,0.19l0.779-1.75
		l-1.55-1.551l3.11-0.189l1.939,1.359l6.79,0.971v2.13h1.36l1.55-1.94l1.75,0.971l0.97,1.939l-1.939,0.78l-3.3,3.11l0.779,3.689
		h1.94l0.58-4.27l2.13-0.78l2.521,0.58l1.359,1.75l-0.39,4.46l-1.16,1.55l4.08,6.41l7.569-0.19l0.58-1.939l1.16-0.58l-0.189-1.75
		l1.939-2.91l5.63-0.58l-0.39-1.75l-6.4-3.3l0.78-2.13l2.521-1.36l2.909,0.391l1.36,1.17l3.49,0.189l1.16-0.97l4.27,1.75
		l2.521-2.521l0.39-2.72l-0.78-2.52l-1.939-1.75l-2.521-5.24l0.391-8.35h1.939l-0.58,4.659l4.271,4.08l1.939-0.58l1.36-4.08
		l-2.521-2.13l-1.55-3.489l6.601-0.58l4.27,1.359l4.851-1.359l3.109,0.39l1.55,0.97l3.69-0.97l0.78-2.13l-5.24-1.16l-2.33-3.1
		l8.54,1.36l-6.79-4.08l-3.69-4.46l5.631-1.75l0.779-1.55l9.32,6.6l0.39,1.94l1.75,0.58l2.521-0.78l-2.91-1.94l-1.36-2.52
		l-5.819-4.08l-0.58-1.94l4.08-2.52l-0.78-2.72l1.939-0.39l2.33,0.78v-2.72l1.36-0.19l2.33,2.52l0.78,2.52l3.88,0.78l-0.19-3.1
		l-1.55-1.55l-1.94-0.19l-1.159-1.55l1.359-4.85l0.971-1.75h1.359l1.55,1.94l1.75-1.75h2.141l1.55-1.55l0.78-3.3l1.939-2.91
		l2.521-1.16l-2.33-3.11l-4.271-0.19l-0.39-1.75l0.78-1.75v-2.52h-4.851l-1.75,1.75l-1.359-1.55l-3.49,0.58v-2.52l2.13-1.16
		l0.97-2.521l-2.72-0.97l-4.46,2.33l-0.78,1.55l-0.189,5.05l-1.75-0.19l-7.96-6.02l0.189-7.76l-3.3-3.49l-5.43-0.97h-5.44
		l-2.13-0.97l-2.13,0.97l-7.76,6.21l-6.601,2.52l-4.46,4.27l-0.97,4.46l-1.94,3.11l-6.21,2.33v-2.52l2.521-1.75l0.58-3.69
		l-1.75-0.78l0.58-4.46l-1.551-0.58l-1.75,0.58l-0.189,4.66l-1.16,1.55l-2.14,0.58l-0.391-7.38l1.36-3.88l2.13-1.75l-0.18-4.74l0,0
		l1.54-3.41l2.33-10.29l3.689-2.52l6.6-3.11l1.75-3.3l3.881-4.27l4.47-0.78l3.11-5.05l-1.551-1.75l-0.39-4.85l1.36-1.36l-0.19-13.39
		l0.97-3.69l3.11-2.91l1.75-3.1l2.72-2.91l0.391-3.1l1.359-2.52l-7.96-7.18l-0.58-3.11l1.55-3.49l0.19-3.49l2.91-6.41v-3.1
		l0.78-1.36l2.13-1.55l4.659,1.17l4.461-0.39l3.3,1.94l0.97-1.55l3.49-0.78l3.3-5.43l-1.94-11.65v-2.33l1.75-6.02l1.16-0.97
		l7.181-1.55l2.72-1.75l0.78-1.75l4.079-2.13l3.49-2.72l-0.58-4.66l3.11-1.36l6.41-0.58l3.489-1.16l4.851,0.78l2.13-1.36l5.05-0.39
		l1.16,1.17l3.49-4.08l0.78-3.1l2.72-2.33l1.359-0.39l1.75,0.97L550.01,84.8z M509.8,298.03l0.48,0.95l-0.65-0.13l0.65,1.25
		l-0.19,2.06l-0.37,1.34l-0.68,0.23l-0.95-5.53L509.8,298.03z M511.52,299.88l1.211,2.5l0.479,2.82l-0.51,0.33l-2.79-0.57
		L511.52,299.88z M518.06,306.72l0.83,1.44l-1.449,0.649l0.14,1.07l-0.94,0.12l-0.31-1.71l0.8-0.47l-0.49-0.28l0.38-0.79
		L518.06,306.72z M516.93,311.85l0.62,0.761l-5.08-0.37l-8.83,1.1l-1.489,1.24l-10.561,2.24l-2.56,1.67l1.56-1.63l11.04-2.67
		l1.86-1.07l5.359-1.03l5.94-0.25l1.15-0.79L516.93,311.85z M444.91,355.99l-5.26,6.649l-1.99,4.33l-4.62,0.82l2.01-0.93l3.9-3.66
		l0.51-1.79L444.91,355.99z"/>
	<path id="IS-8" fill="#1E3250" stroke="#1E3250" stroke-width="0.5" d="M397.82,340.84l-0.54,29.22l0,0l-10.13,3.36l-5.79,2.78
		l-3.09,2.189l-3.02,3.061l-8.03,16.649l-6.23,7.4l-9.19,5.29l-7.19,1.229l-23.42,7.051l-7.16-1.141l-5.32-1.819l-3.05,0.25
		l-0.85,1.56l-2.89-0.65l-2.32,0.96l-8.48-4.85l-7.31-2.59l-17.21-7.57l-9.1-1.84l-6.75-0.22l-4.47,1.04l-5.38-0.96l-5.26-3.641
		l-8.91-9.09L215.2,378.28l-10.17-6.99l-6.6-7.22l-6.01-1.631l-8.1-5.85l-0.35,0.44l-4.74-0.7l-2.99,0.62l-1.6,1.6l1.05,1.62
		l-0.34,0.59l-1.16,0.45l-3.99-0.38l-2.15,0.979l-4.78,0.65l-2.47,1.34l-3.25-0.55l-1.28-1.17l-1.4-2.9l-2.07-0.819l-2.2-0.091
		l-0.39,1.25l-2.61,1.601l-3.88,0.8l0,0l0.1-2.11l4.77-3.949l0.66-1.971l4.11-3.29l1.98-2.96l1.81-1.479l0,0l1.65-1.641l0,0
		l4.11-0.159l0.99-4.61l1.48-0.99l0.82-2.47l4.61-6.75l0.49-2.47l1.65-1.15l0.49-2.3l1.15-1.32l0.49-5.26l-0.99-1.32l-0.33-4.609
		l5.1-5.431l0.33-1.65l1.81-1.97l2.14-0.33l1.97-1.32l1.32-1.32l-0.04-0.84l0,0l2.06-2.2l0,0l2.17-2.17l2.33-5.04l8.07-7.68
		l3.49-3.88l1.24-2.4l2.27-0.2l0,0l3.07,3.02l3.28-1.15l1.23-0.57l0.46-4.32l0,0l1.34-0.66l0,0l-0.14-1.04l0,0l0.88,0.04l0.66-1.06
		h1.31l1.15,0.9l-1.47,0.82l0.33,1.39l3.52,0.41l0.57,1.31l-0.08,2.78l2.95,5.24l1.31,0.74l1.15-0.49l1.06-2.05l0.08-4.26l3.28-1.06
		l1.15,1.31l0.82,4.18l3.36,0.08l4.01-4.67l9.01-4.99l2.78-2.7l-0.33-1.31l-1.72-0.33v-1.15l2.46-1.64l0.16-2.78l2.29-1.64
		l0.08-1.56l-1.06-2.7l2.46-2.78l0.08-1.96l-1.96-0.57l1.23-1.64l4.26-2.62l0.33-3.85l-0.74-1.23l-1.39-0.41v-1.15l2.87-2.05
		l0.9-4.92l0,0l1.83,1.55l1.46,3.35h2.91l8.74,2.04l4.66,2.18l4.51-0.73l2.33,0.73l0.87,1.6l7.53-0.2l0,0l0.19,1.08l-1.75,3.79
		l1.75,4.08l2.04-0.15l0.87,0.58v1.46l5.53,5.24l2.62,1.46l2.62,0.44l1.02-6.26l3.64,0.29l0.73,3.93l2.77,0.29l2.48,1.75l0.87-1.6
		l1.31-0.87l-2.62-3.2l-0.15-2.04l1.16-2.62l3.2,2.48l2.33-1.02l2.48-1.89l3.06-5.53l-0.58-12.52l0.71-1.27l0,0l0.91-0.76l0,0
		l-0.12,2.47l1.94,0.97l5.24,4.66l0.78,1.55l-0.97,1.55v2.13h2.52l1.17-0.97l2.33-0.39l2.52,0.39l1.75,0.97l1.17,2.13l2.33,4.85
		l0.39,2.52l3.11,2.33l2.52,0.78l7.38-0.39l3.88,3.11l1.94,2.52l-0.73,0.06l0,0l-1.79,0.14l-2.52,3.49l-5.88,5.39l-0.97,3.49
		l0.39,3.69l5.63,2.13l-0.19,1.75l-6.6,2.52v2.72l-1.75,2.91l-0.58,3.11l-9.12,9.12v2.72l2.52,5.82l4.27,1.55l0.19,4.66l4.85,0.58
		l0.19,2.13l-3.3,0.78l-0.19,4.85l1.75,2.33l1.94,0.39l1.55,2.521l1.94,0.97l7.76,0.19l2.52-4.271l0.58-5.63l-0.97-1.75l-0.39-4.66
		l2.52-0.189v2.72l0.97,3.109h3.3l2.52-2.329l0.19-1.94l1.75-0.19l1.36,0.971l0.97,1.75l1.36,0.189l0.58-1.939l-0.97-3.3l1.94-0.78
		l1.75,1.939l4.46,3.11l-0.189,3.3l-0.78,1.94l0.58,3.3l-0.971,6.99l-1.55,4.659l-1.359,0.78L397.82,340.84z M274.98,386.01
		l1.83-0.41l3.85,0.41l1.42,1.01l0.81,1.62l-0.51,1.32l-2.64,2.94l-1.83,0.609l-6.59,0.2l-4.77-4.16l-0.71-1.62l2.94-3.04l3.75-0.3
		l0,0L274.98,386.01z M309.37,370.09l4.56,1.22l3.75,3.25l0.2,1.421l-0.91,1.619l-3.65,1.011l-0.61,1.42l1.52,1.01l1.42,0.1
		l1.52,1.32v1.83l-2.23,0.2l-1.32,3.75l3.04,3.45l3.45,0.81l0.61,0.91l-0.3,1.52l-5.07,3.75l-1.01-1.01l-2.94-0.2l-0.81-1.319
		l-0.81-0.2l0.1,1.52l-1.01,1.32l-8.11-0.1l-1.01,0.81l-2.43-0.3l-0.41,1.319L296,400.32l-1.01-3.851l-1.12-1.01l-0.71,0.31
		l-0.1,1.931l-3.96,2.84l-0.3-1.72l1.62-2.23l0.3-3.649l-4.57-1.421l-0.91-1.52l0.31-1.72l1.01-1.12l2.23-0.41l0.91-1.62l0.81-5.479
		l1.83,0.51l0.41,0.81l1.62-0.2l-0.91-2.029l-4.36-1.32l1.52-4.97l1.62,0.51l0.61,1.01l5.58-3.35l0.3-0.91l1.42,0.1l4.16-1.93
		l1.42,0.2l0,0L309.37,370.09z M238.17,413.06l-0.49,1.58l-1.9,1.11l0.46,0.79l-1.02,1.52l-0.72,0.091l-0.01-0.771l0.74-0.33
		l-1.99-4.45l3.89-1.529v1.04L238.17,413.06z"/>
</g>
</svg>
