<?xml version="1.0" encoding="utf-8"?>
<!-- Generator: Adobe Illustrator 15.0.0, SVG Export Plug-In . SVG Version: 6.00 Build 0)  -->
<!DOCTYPE svg PUBLIC "-//W3C//DTD SVG 1.1//EN" "http://www.w3.org/Graphics/SVG/1.1/DTD/svg11.dtd">
<svg version="1.1" id="Layer_1" xmlns:amcharts="http://amcharts.com/ammap"
	 xmlns="http://www.w3.org/2000/svg" xmlns:xlink="http://www.w3.org/1999/xlink" x="0px" y="0px" width="634.332px"
	 height="815.362px" viewBox="0 0 634.332 815.362" enable-background="new 0 0 634.332 815.362" xml:space="preserve">
<defs>
	
	
		<amcharts:ammap  projection="mercator" leftLongitude="-10.617130" topLatitude="55.384293" bottomLatitude="51.419835" rightLongitude="-5.429497">
		</amcharts:ammap>
</defs>
<g>
	<path id="GB-NIR" fill="#1E3250" stroke="#1E3250" stroke-width="0.5" d="M599.25,152.79l-1.17,0.77l2.63,1.33L599.25,152.79z
		 M605.28,182.24l0.66-5.3l-5.12-7.05l-1.21-3.86l0.08-5.43l-6.04-6.9l-3.44,0.38l-2.34-0.91l-0.09,1.65l-1.69,1.53l-1.05-1.43
		l-1.59,1.25l-1.061-0.66l-4.12,0.5l-3.13-2.25l-6.779,3.4l-6.28,5.41l-3.16,1.07l-1.29,3.9l-2.229,0.84l-0.931-0.64l1.57-4.94
		l-1.49-0.89l0.431-2.31l2.18-5.09l5.399-4.53l0.83-1.91l11-4.17l4.36-3.95l2.45-4.4l-0.21-7.85l-4.221-8.53l-4.13-2.28l-0.279,1.4
		l-1.771-1.05l-1.9,1.96l-1.89-3.98l-3-2.97l-0.59-3.52l-1.94,0.1l-2.159-1.74l-2.29-6.64l-2.601-4.07l-1.92-1.72l-2.3,0.1
		l-1.12-2.229l-2.67-0.35l-0.42-1.24l1.69-3.63l1.659-8.81l-3.489-2.13l-5.631,1.32l-1.659-1.26l0.38-5.27l1.96-3.84l-0.61-5.31
		l1.87-2.85l-0.89-4.93l-2.05-1.24l-1.591-4.73l-6.159-2.49l-2.65-3.24l-2.05-0.04l-2.61,2.61l-6.68,2.06L511,41.85l-2.27,0.22
		l-4.91-2.69l-1.87-0.53L497,41.58l-0.65-0.98l-4.619-0.65l-1.471-2.31l-1.899-0.16l-5.561,3.7l0.4,1.69l-1.88,1.8l-11.84,2.41
		l-1.94-1.57l0.85,1.8l-0.569,0.98l-6.99,1.96l-1.22,3.83l-18.58,0.2l-6.75-4.57l-2.32-0.49l0.58,2.98l-0.93,6.68l-2.261,7.51
		l-3.09,1.81l0.34,4.92l-3.5,3.52l0.601,0.94L413.27,80.1l-2.119-0.85L411,77.04l-1-0.59l-3.27-0.26l-3.36,1.08l-1.03-0.81
		L401,77.11l-0.11,1.65l-2.06,0.96l-0.79-4.63l0,0l-1.61,0.61l-1.74,2.78l-1.4-1.26L391,79.33l-3.36-1.02l-5.65,6.68l-0.77,2.5
		l1.26,1.79l-1.86,2.979l0.9,1.99l-0.63,3.37l1.18,2.13l-4.61,0.75l-1.4,1.26l-0.64,8.08l1,5.16l-4.3,9.26l-5.25,3.33l-2.29,3.13
		l-0.36,6.6l1.39,1.65l-1.11,1.79l-3.58-0.28l-0.08-1.47l-1.48,1.35l-3.13,0.16l-2.64-1.41l-4.38,3.75l-6.89,3.1l-1.24,1.89
		l-6.42-2.7l-1.88-3.04l-1.73-0.4l-5.45,6.81l-4.58,0.26l-0.02,1.33l2.37,1.25l-1.68,2.64l1.12,3.16l5.2,2.17l0.58,3.94l2.88-0.42
		l1.96-2.31l4.72,4.52l1.39-0.52l2.34,1.09l3.84-2.85l-0.01,2.729l1,1.31l-1.18,1.33l-4.98,1.61l-1.63,2.47l-3.64,1.15l-0.61,2.33
		l-3.49,2.69l0.85,2.19l-2.59,2.05l-1.53-0.64l-10.75,0.66l-1.96-2.89l-2.07,0.96l-2.26-0.38l-4.18,7.7l-0.3,4.07l-4.5-0.14
		l-3.62,2.38l-0.04,1.2l-4.28-0.06l-2.9,1.06l0,0l3.9,2.62l-2.04,2.56l7.9,6.96l3.45,6.88l3.41,2.52l3.95-0.24l-0.1,1.82l5.98,8.44
		l0,0l3.1,0.54l1.46,1.77l1.08-1.28l1.37,0.38l0.72,1.52l2.55-0.22l-1.37,1.46l-0.29,2.57l1.52,2.45l0.5,8.84l4.99,2.91l1.08-1.01
		l6.4-0.84l1.61,1.61l5.81-0.8l1.24,4.85l1.96-0.97l3.65,3.26l0.7,3.76l2.36,1.97l2.85,0.12l1.29,2.7l2.06,1.31l2.32-2.5l5.75,1.79
		l1.4-3.52l2.73-1.91l3.69-0.87l0.51,0.97l-2.04,2.25l0.55,0.64l5.58-0.58l-2.3,3.65l3.48-2.13l1.36,1.19l0.51,2.26l2.46-1.93
		l0.46,1.33l0,0l1.47-0.24l0.09-0.97l-1.35-2.68l-1.07,0.12l-1.14-1.57l3.48-4.57l2.03-0.76l1.33,0.95l-0.64,2.7l-1.74,1.55
		l1.74,1.65l-2.63,1.13l1.1,2.03l2.08-0.08l0.19-1.37l1.899-1.49l-0.359-1.93l1.17-2.82l1.98-1.87l-1.801-2.72l0.08-2.17l2.391-0.32
		l-0.561-1.07l-1.35,0.04l0.42-1.07l1.96-0.02l0.31-1.45l2.82-0.7l1.52-1.67l2.69,1.33l2.31-1.04l-0.069-3.03l-1.03-1.18l1.391-2.27
		l-2.021-3.51l-1.95,0.1l0.63-2.15l-4.3-2.25l1.47-3.15l1.94-0.16l0.38-2.37l-1.08-3.07l4.061,0.72l3.77-3.45l1.95-0.26l-0.76-2.62
		l2.85-2.28l3.73-6.34l3.029-1.8l2.681,1.52l0.359,1.26l2.04-0.44l2.16,1.5l0.75,1.66l3.42,1.92l-0.149,1.24l1.229-0.52l1.01,0.82
		l1.051,4.57l2.329,0.76l2.87,6.73l0.33,4.27l-0.95,0.72l0.16,1.56l-0.819-1l-0.79,0.4l0.27,1.16l2.73,3.03l1.21-0.38l1.25,1.1
		l1.38,7.01l1.76,0.7l-0.06,1.47l3.069,2.89l2.34,0.26l1.73,2.96l2.29,0.14l2.26-3.74l4.93,2.17l3.521,7.79l-2.49,5.96l-1.18-0.24
		l2.05,5.16l-1.88,0.42l0.42,2.98l-1,2.96l1.99,0.61l2.859,4.38l2.681-1.21l0,0l1.25-2.12l3.8,0.87l3.03-1.35l2.3,0.97l1.479-1.94
		l2.551-0.6l-0.86-1.05l0.56-1.27l2.44,1.03l1.79,2.86l3.41-0.97l2.96,0.58l0.729-1.53l2.08-0.81l-0.02-8.22l2.74-0.08l0.56,3.71
		l1.46,0.58l2.79-3.51l1.28-0.14l2.279,1.99l0,0l7.351,0.08l1.45,1.15l0.93,3.91l2.22,1.53l8.18,0.73l2.37,2.99l-2.8-0.2l-0.93,1.74
		l5.479,3.35l4.601-3.01l2.59-3.65l4.21-1.21l1.27-2.98l6.601-5.74l2.74-11.68l-0.33-4.22l-1.801-3.54l1.15-2.21l5.92-4.72
		l-0.82-2.43l-1.76,1.04l-0.79,1.85l0.061-2.27l2.17-1.59l2.46-4.86l0.27,4.72l-1.989,0.3l1.47,2.73l7.439-0.74l3.11-1.37l0.92,0.84
		l3.25-0.28l1.69,0.5l2.31,4.5l2.75-3.19l-0.9-2.85l0.91-1.16l2.17,3.13l0.86-0.42l0.97-2.19l-0.58-1.06l1.66,0.5l3.6-4.42
		l1.681-4.49l2.6-1.36l-1.89-0.94l-1.04-10.08l-1.41-1.2l-0.62,2.04l-1.01-1.38l0.49-2.14l-4.98,0.78l-4.01,2.9l-3.641-0.64
		l-0.25-1.3l3.5-1.68l-0.51-0.64l1.91-3.12l-0.12-5.72l1.4,0.22l0.229-1.1l-2.25-3.7l1.03-0.4l0.08-1.76l-1.88-0.92l1.17-0.92
		l-0.96-0.16l1.08-1.42l-1.101-0.82l0.75-0.92l-1.13-1.7l-1.189,1.32l-1.181-1.46l0.28-2.22l1.2-0.1l1.38-2l-1.63,0.22l-6.04-4.05
		l2.53-1.52l-0.271-4.4l1.91-2.97l5.11,4.24l2.8,0.7l4.11,5.44l2.159-0.28l2.86,9.28l-0.63,0.58l1.01,3.15l-1.08,1.38l0.92,0.64
		l-0.21,5.44l-0.51,1.18l-1.17-0.7l0.22-1.26l-1.91,1.04l-1.84,5.9l3.39,3.84l1.211,3.48l1.21,0.38l0.47,3.77l1.4-0.28l1.26,2.58
		l0.689-3.97l1.971-1.78l-1.33-0.96l0.409-2.34l1.101-1.4l1.08,0.4l1.17-1l-0.47-5.44l-1.71-2.66l1.17-1.92l1.569-0.22l1.761-3.86
		l0.479-2.32l-0.75-1.66l1.18-1.92l-2.64-1.38l-1.8-6.42L605.28,182.24z"/>
	<path id="IE-CW" fill="#1E3250" stroke="#1E3250" stroke-width="0.5" d="M458.79,501.13l3.01-0.479l3.04,2.659l2.891-0.869
		l1.739,2.159l1.08-1.31l5.28,1.229l0.689,3.421l2.19-0.41l2.09,1.12l1.76-2.721l3.061,1.99l-0.08,2.25l-2.24,0.49l0.51,8.899
		l-2.79-0.229l-2.01,1.02l0.45,0.73l-1.21,1.63l-2.08-0.229l-1.7-1.11l-1.38,0.36l-1.17-2.62l-4.229-2.601l-1.03,0.91l0.42,2.08
		l-3.79,2.79l-1.11,5.16l1.471,0.77l2.069-1.29l2.761,2.521l1.189,2.729l-1,1.46l4.58,6.551l0,0l-3.67,4.649l-1.92,0.29l-1.23,1.36
		l-0.199,2.92l1.979-0.65l0.47,1.07l-2.67,4.6l-7.18-0.779l-4.48,3.739l-0.5,8.221l-1.08,2.75l-1.819,0.25l-1.19,4.02l-2.569,2.33
		l0.439,2.36l-3.63,7.6l-3.56,2.811l-2.57-0.021l0,0l-2.101-0.67l1.9-1.54l-2.54-4.61l0.59-5.199l-2.77-1.91l5.01-4.59l-0.28-3.301
		l-3.64-4.33l-2.42-0.76l-1.61-2.859l0.61-1.03l-1.26-1.48l0.84-2.01l-0.48-2.78l1.061-2.1l-2.05-1.22l-1.171-3.771l-3.859-3.68
		l-1.521,1.76l-1.949-0.979l-1.5-3.091l-3.021-0.02l1.95-1.59l-1.391-2.391l1.94-2l-0.39-3.55l3.21-3.06l0,0l1.96-0.641l0.859-2.52
		l8.5,0.15l1.5-1.271l1.57-2.31l-0.87-2.54l1.82-1.25l-0.95-6.13l0,0l0.79-1.641l1.03-0.08l2.029,3.42l2.79,1.88l1.33-0.63
		l-0.909-2.6l0.97-0.29l2.68,3.14l2.43-2.33l4.11,1.25l2.94-4.609l1.56,0.14l0.36-4.38L458.79,501.13z"/>
	<path id="IE-CN" fill="#1E3250" stroke="#1E3250" stroke-width="0.5" d="M317.54,228.09l3.11,0.54l1.45,1.77l1.09-1.27l1.36,0.37
		l0.73,1.52l2.55-0.22l-1.36,1.46l-0.3,2.57l1.52,2.45l0.5,8.84l5,2.91l1.08-1.02l6.41-0.83l1.61,1.61l5.8-0.8l1.24,4.86l1.96-0.98
		l3.65,3.26l0.7,3.76l2.36,1.97l2.84,0.12l1.3,2.7l2.06,1.31l2.33-2.5l5.75,1.78l1.4-3.51l0,0l0,0l0,0l2.73-1.91l3.68-0.87
		l0.52,0.97l-2.05,2.25l0.55,0.63l5.58-0.57l-2.3,3.65l3.48-2.12l1.36,1.19l0.52,2.26l2.46-1.93l0.45,1.34l0,0l0.48,2.38l3.38-0.04
		l2.98,2.4l2.17-0.04l-0.45-1.65l1.67,1.03l1.13-0.81l8.15,3.71l3.78-2.62l2.91,0.82l1.25,2.04l4.26-3.87l3.6,0.62l-0.989,3.41
		l1.77,0.63l1.17,2.62l2.35,0.79l1.801,3.81l3.16,1.51l1.8,3.8l3.8,0.89l3.14,4.66l4.17,10.8l6.061,0.75l1.68,1.97l0,0l-0.79,1.681
		l-1.26-1.021l-0.44,0.75l-1.26,4.97l-2.5-1.04l0.71-1.33l-1.53-0.289l-2.89,2.449l0.99,0.94l-0.641,0.79l-4.21,0.83l-4.76-3.51
		h-1.58l1.101,3.3l-3.641,2.25l-1.81-1.17l0.89,4.64l1.19,0.2l0.359,1.85l4.49,5.36l-1.069,1.64l-1.7-0.1l-0.54,2.399l1.149,0.851
		l-1.649,0.75l-1.74-1.91l-2.83,3.33l-1.26-1.46l-0.32,3.03l-5.04-2.12l-7.29,0.08l-0.899-3.08l-1.92,0.12l-2.391-2.32l-3.17,2.18
		l-2.18-0.649l-2.16,1.8l-0.19,2.67l-6.979-1.87l-1.26-3.33l-2.69-2.74l-3.98,2.57l0,0l-7.69,4.55l0,0l-0.63-2.7l-5.63-2.439
		l-1.61-2.07l1.13-1.25l-1.34-6.859l-5.66-1.931l-2.11,1.851l-4.61,0.59l1.36-5.74l1.66,0.43l0.65-2.92l-0.81-2.229l-1.82-0.38
		l-0.29,0.97l-0.59-2.33l-3.45-4.76l0,0l2.54-3.78l-0.6-2.29l1.5-1.71l-1.97-2.11l0.83-2.02l-0.59-4.46l-1.64-1.27l-0.57,1.53
		l-2.94-1.45l-0.41-1.31l1.32-1.86l-1.1-0.93l-1.26,0.67l-0.41-2.73l-2.88-1.11l-2.91-4.5l-3.16,0.39l-0.53-2.28l-2.12-2.26
		l-3.6-0.54l-1.24-1.63l-1.91,1.77l-0.46,1.91l-1.29,0.02l-3.27-3l0.85-1.17l-4.83-3.3l0.42-1.35l-1.79-2.27l-5.48-4.75l-4.49-0.54
		l-2.15-2.26l-1.4,1.11l-2.87-0.02l-0.38-2.62l1.45-2.71l-2.7-4.64l0.37-1.23l1.54-2.32l4.68,0.62L317.54,228.09z"/>
	<path id="IE-CE" fill="#1E3250" stroke="#1E3250" stroke-width="0.5" d="M184.55,454.2l3.93-0.25l1.52,1.609l1.84-0.21l-0.69,1.051
		l2.86,0.869l0,0l-2.1,0.601l-0.58,1.59l2.23,5.24l8.06,3.91l2.4,3.04l3.22,0.72l-0.65,5.01l1.82,3.97l-1.66,1.37l0.27,1.7
		l1.59,4.771l2.45-0.44l0.75,1.72l1.07-1.72l-0.44-1.02l1.83-0.711l0.82,1.66l4.95,1.181l0.85-3l4.14-2.65l2.68-4.51l2.43-0.17
		l3.63-2.59l3.7-0.37l1.33,1.199l7.72-1.3l0.83,3.75l2.53-0.17l0.41,1.95l2,1.12l0.84,4.85l2.3-0.989l3.83,3.09l2.18-1.391
		l1.87-2.96l1.68,1.86l3.6,1.24l0.92,1.47l2.5-2.96l2.86,0.37l0,0l0.68,1.47l2.69,0.73l0.32,1.06L272,501.15l-6.05-0.351l-1.62,0.71
		l-1.62,7.46l-4.16,5.05l1.61,10.53l-4.47,6.681l0,0l-3.49,2.039l0.69,5.591l-1.23,2.34l-3.32,1.54l-0.64,3.439l-3.58,2.16
		l-1.13,4.13l-2.63,2.25l-1.38-1.25l-7.76-0.5l0.5-3.13l4.25-2.38v-2.47l-3.9,0.13l-3.25,2.76l-5.8-0.86l0,0l-1.01,0.471
		l-10.82-4.41l-2.75-0.25l-4.88,1.75l-0.63,1.25l-3.88-0.38l-0.63-1.5l5-3.13l-2.38-4l0.25-2.5l-1.5-1l1.25-2.5l-1.75-1.25h-2
		l-6.38,3.5l-0.63,0.88l0.75,4.75l-4.38,7.26l-1.75,0.5l-0.88,3.13l-3.13,2.25l-1.13,2.75l-2.63,2.63l-12.39,1.75l-1.88,4
		l-1.38,0.63l-4.75,0.381l-0.75-1.131l0.25-1.38l5.51-4.25l1.25-2.88h-1.75l-0.38,1.63l-2.5,1.25l-13.76,2.63l-1.88-1.38l-4.38-0.13
		l-3.13-2.13h-1.88l-1.63-2l-0.25-4.63l-0.5-1h-1.38l-1.88,1.38l-0.25,1.5v1.63l1.75-0.13l-0.25,2.38l-2.88,1.13l-1.38,1.25
		l0.25,1.25l-4.5-0.5l-3.63,1.75l-3.38,0.25l-2.19,5.021l-3.15-1.04l-0.07,1.3l-7.62,2.85l-4.08-1.149l-2.06,0.189l-0.83,1.7
		l-2.63,1.22l-5.6-0.819l2.12-1.11l1.77-2.55l2.81-0.21l1.26-1.36l-0.69-0.859l7.06-1.801l2.83-4.729l6.66-3.43l1.38-3.03l3.03-1.21
		l2.52-3.11h3.39l-1.26-2.439l1.14-0.9l0.02-1.52l3.69-2.051l-2.09-2.27l1.33,0.399l-0.47-1.17l2.23-0.27l0.26-2.061l5.79-1.579
		l2.82,3.149l0.44-2.02l3.41-0.67l0.79-2.21l-1.13-1.83l2.33-1.271l-1.13-6.25l3.72-1.39l0.91-1.83l-0.49-1.141l2.85-0.979
		l-0.3-1.29l-1.94-1l2.29-1.97l0.45-1.7l-1.66,0.13l0.96-3.01l4.33-2.311l3.17-3.939l1.61-0.5l0.64-2.57l-1.63-2.49l-4.44,2.03
		l-4.35-0.79l-3.32,1.25l-1.18-0.37l0.18-1.8l4.85-4.71l0.46-3.73l4.4-4.43l-1.89-1.88l4.98-6.15l0.85-4.22l5.74-4.17l2.54-4.96
		l-0.44-2.41l1.13-2.439l2.45-1.96l4.85,2.869l5.81,0.74l-1.57,0.17l0.31,1.03l3.21,2l6.78-4.75l-0.72,1.11l1.41-0.08l1.91,3.22
		l-0.28-3.38l-1.73-1.42l-1.87,0.64l-0.5-1.13l-1.49,0.85l-1.71-0.89l4.14-1.82L184.55,454.2z"/>
	<path id="IE-CO" fill="#1E3250" stroke="#1E3250" stroke-width="0.5" d="M140.64,778.68l0.26,1.011l-1.94,2.43l-2.37,1.57
		l-0.46-1.681l-1.22,2.891l-0.75-1.75l-0.86,0.239l2.27-2.58L140.64,778.68z M147.22,771.66l0.91,0.24l0.57,3.27l-0.75-0.37
		l0.26,1.01l-4.23,2.86l-0.35-1.85l1.83-0.86l-1.26-1.66l1.42-0.5l1.28,1.48l0.51-0.69l-1.1-0.52l-0.1-1.49L147.22,771.66z
		 M145.07,769.75l-0.69,2.56l-1.11-1.1l-1.61,0.771l0.78-1.381l0.51,0.5L145.07,769.75z M130.13,771.06l-3.5,0.5l5.76-2.39
		L130.13,771.06z M136.97,768.01l-1.1,1.4l-0.65-0.36L136.97,768.01z M140.25,767.38l-1.61,0.09l2.71-1.35L140.25,767.38z
		 M59.11,749.56l0.26,1.11l-8.64,4.44l3.67-4.57L59.11,749.56z M102.36,743.77l-1.12,0.471l0.38,0.939l-2.55,0.601l-1.35,1.569
		l-1.22-0.64l-4.09,1.41l-0.58,1.09l-0.22-1.33l-3.17,0.56l-0.79-0.67l2.23-3.84l7.45-1.05l1.43,1.14l-0.63,1.2l1.97-1.739
		l3.45-1.051L102.36,743.77z M138.65,732.68l-1.8,3.471l-3.49-0.49l5.32-4.47L138.65,732.68z M277.75,706.81l1.08,0.57l-1.03,0.49
		L277.75,706.81z M276.97,705.7l0.25,0.729l-1.47-0.39L276.97,705.7z M169.42,619.57l0.88-1.67l4.15-1.16l0.1-1.33l3.93-2.78l0.46-2
		l3.24,2.13l8.82,1.92l6.17,5.94l0.59-0.49l-1.14-3.43l12.09-3.851l-0.84-1.159l1.39-2.95l0.76,0.78l2.11-1.391l0.17-2.479
		l2.57-0.21l0.93-2.521l1.98-0.46l1.19,2.73l1.7-2.551l5.11,2.761l7.13-2.631l-0.04,3.771l1.58,2.69l3.27,1.26l0.77-0.65l0.08,1.94
		l1.12-0.271l3.53,6.021l3.17,0.08l1.88,3.2l4.22,2.149l7.98-2.63l5.86-0.34l0.56-2.36l2.19-0.8l0.21-1.68l2.64-1.62l1.25,1.979
		l1.94-0.779l2.13,5.06l1.53,1.39l3.87-1.899l7.29,1.729l0,0l0.82,2.45l1.61-0.21l-0.71,1.96l1.26,4.62l6.57,2.22l-0.16,4.601l0,0
		l0,0l0,0l-2.46,1.229l0.91,0.55l-1.28,5.561l-2.89,0.609l-1.07,4.301l5.91-0.82l1.52,0.38l0.68,1.65l3.07-1.311l0.14,3.45
		l-1.43-2.26l-0.58,1.08l1.75,2.35l2.61,0.59l0.52,1.521L308,656l1.64,5.68l-0.83,4.011l4.3,3.35l3.11-0.19l-0.48,1.99l3.94,3.23
		l1.4,6.439l5.27,0.4l2.29-0.95l1.6,4.74l0,0l-0.12,2.489l-2.74,1.94l-2.19,3.62l-2.51,0.72l0.14,2.3l3.85,1.36l0.58,1.56
		l-12.77,2.511l-5.52,3.239l0.02,2.221l0.01-1.21l-1.03,0.43l2.8,3.13l-4.91,1.37l-1.57,1.39l-7.94,0.7l-3.62,3.561l-1.52,0.34
		l-0.49-1.9l-1.84-0.28l-6.94,0.9l0.6-2.5l-1.73-1.77l1.63-1.98l1.85-0.06l-0.78-1.83l2.16-1.28l5.07-0.58l-1.89-0.45l0.82-1.79
		l2.02-0.939l-10.94,0.729l-5.69,2.88l-1.94-1.22l-1.25,1.62l-2.04,0.34l4.46,1.68l0.2-0.92l1.19,0.7l0.91-0.66l-0.5,2.86l-2.4-0.47
		l0.24,0.81l3.37,1l-0.19,1.92l1.27-1.35l1.05,0.21l0.21,1.92l-1.1,1.9l-3.57,2.949l1.78,0.94l-0.25,4.29l-1.1,0.189l-0.12,2.2
		l-2.21-0.39l-1.1,3.17l-5.19,0.47l-1,2.44l-3.1-0.45l-0.93,2.78l-1.45,0.659l-1.53-1.22l-2.83,3.15l-1.96-0.09l0.18-2.721
		l-1.56-2.67l-0.8,1.54l1.06,1.99l-0.69,1.05l-1.98-1.46l0.8,1.24l-1.19,4.45l-2.32,2.53l2.59,2.92l-1.35,1.369l0.97,2.79l-1.4-0.88
		l-0.61-2.47l-1.46-0.15l-0.13-2.659l-2.05-1.091l-9.09,1.761l-1.89-6.341l0.26,3.11l-0.94,1.29l-2.26-1.05l-1.28,2.1l-4.06-1.35
		l-2.8,1.63l0.08,1.01l2.18-1.97l2.68,1.439l4.93-0.17l-1.91,3.66l2.69,1.69l-2.85,2.14l0.38,3.18l-1.53,1.671l-3.73-1.221
		l-0.51,1.181l-1.03-0.391l0.77-1.74l-1.06-1.89l-1.98,1.76l-3.38-2.34l-4.97,0.431l-0.06-3.601l-2.27-0.06l-2.06-1.931l1.26,3.28
		l2.13-0.359l0.52,1.239l-1,1.11l-3.76-1.63l-0.21,1.31l3.16,0.9l-0.21,2.87l-2.66,1.1l0.39,3.39l-1.13-0.069l-0.08,0.989
		l-2.1,1.271l-1.06-1.31l-1.45,0.239l-1.84,3.181l0.01-4.73l-5.18-2.45l-2.36,0.54l-0.99-3.149l-0.3,1.67l1.76,2.6l-1.89-0.08
		l-0.59,1.12l-2.05,0.45l-2.06-1.57l0.83,1.42l-0.73,0.33l-2.72-0.22l-2.69-2.33l-1.94,0.22l-1.67-3.28l0.58,4.101l2.3,0.109
		l0.49-0.949l3.62,3.09l3.8-0.88l-3.32,1.27l-3.88-1.78l-0.44,0.971l1.15,2l-1.69-0.261l0.37,0.801l-1.82,0.84l0.67,0.75
		l-1.89,0.939l-0.28-1.59l-1.29,0.45l0.56,1.31l-2.24,0.9l1.28-3.2l-0.79-3.55l-0.92,1.03l1.14,0.21l-0.1,2.97l-2.24,1.96
		l-0.12,2.11l-1.74-0.13l-1.41,1.93l0.69,2.06l-3.64,0.9l1.21-1.76l-0.63-0.95l-3.99,2.19l0.66-3.101l-1.54,0.561l-0.02,0.92
		l-3.37-2.301l1.81,2.801l-6.23,4.22l-2.06-1.25l-1.95,1.2l-1.07-1.08l1.87-2.26l1.81,0.26l0.52-3.74l-1.92,0.45l0.76,1.55
		l-2.03,1.4l-0.76-0.62l0.56-2.11l-1.22,0.04l2.08-1.01l0.28-1.36l-4.36,3.4l-0.94-0.8l0.57-2.73l-1.4,2.08l-0.67-1.14l2.86-2.28
		l1.35-5.76l-2.19,2.489l-0.19-2.21l-1.35,0.07l-0.26,1.46l-3.34-3.609l0.23,2.229l1.41,0.37l-0.41,1.2l1.34,0.13l-2.45,3.16
		l-2.27-0.971l-0.31,1.44l-1.37-0.26l-4.35,1.939l0.28-2.97l-1.6,0.09l-0.69,3.48l-4.79,1.08l0.06-2.19l-0.6,2.11l-2.37,1.07
		l2.11-0.521l0.9,0.79l-5.35,1.18l1.56-1.229l-1.96-1.03l0.28-1.609l-1.34-0.17l0.06-1.44l-1.05,1.229l-1-0.77l-0.69,0.41l1.13,1.12
		l-0.75,1.76l-0.71-1.12l-4.53,2l0.56,3.63l-5.37,2.33l5.6-1.06l-4.63,1.47l-3.45,2.52l1.28-2.409l-1.95-2.021l1.97-1.16l-0.47-0.52
		l-1.77,1.399l-2.09,4.261l-2.64,0.21l1.49-4.561l-3.53-1.529l4.89-2.471l5.09-4.97l1.31,0.17l0.71-1.03l3.5,0.261l4.18-3.551
		l1.75,0.67l0.26-0.75l-1.26-0.02l2.01-1.44l0.06-2.319l3.46-1.57l-0.67-0.9l4.37-1.97l0.91-2.27l3.95-0.75l1.05-1.16l-1.27-0.561
		l0.53-0.88l-2.66,1.82l-2.67-0.45l-4.06,2.9l-1.85-0.601l-2.55,3.15l-1.45-0.28l-1.56,1.24l-1.1-0.41l-1.49,1.61l-2.4,0.22
		l-0.64,1.85l-1.02-0.8l-8.95,4.15l-4.13-0.08l7.8-5.17l-0.78-0.82l0.88-1.09l7.64-3.78l2.5-2.49l12.31-5.42l2.38-2.01l7.13-1.93
		l2.53-2.96l2.73-0.21l0.54-1.76l2.03-0.7L141,732.93l2.48-4.96l-2.09,1.3l0.91-1.93l-0.75-0.54l-2.99,2.91l-2.27-0.38l-1.12-2.221
		l-2.2-0.279l0.5-2.12l-1.38-1.99l-1.81,0.92l1.01,1.181l-1.74,1.35l1.03,0.06l-0.4,0.7l1.2,1.11l-0.67,1.859l-2.72,1.73l-0.9-0.96
		l-0.71,1.88L122.1,736l-6.02,2.029l1.03-2.529l-1.28,1.09l-4.48,0.47l-1.17-3.149l-1.17,1.33l1.21,1.989l-0.75,1.2l-1.66-0.56
		l-2.17,1.67l-3.51,0.21l-2.1,1.16l-0.89-0.92l-3.43,1.09l-2-0.53l-1.56,1.37l-2.75-0.94l-1.4,3.13l-2.6,0.15l1.66,0.71l-0.04,1.86
		l-1.32,1.479l-3.3-0.08l-0.15-1.03l-8.73,6.131l-0.9-0.801l1.18-0.619l-2.04,0.47l1.21-1.181l-0.51-0.539l-7.16,1.09l-0.97-0.641
		l-5.21,3.73l2.13-3l0.12-1.59l-1.71-0.73l0.15-0.99l1.68-1.069l2.48,1.5l3.55-2.25l1.25,0.92l3.06-2.51l-1.91-0.131l1.13-1.069
		l0.06-2.63l-1.6,0.47l-0.37-1.22l-2.99-0.19l-0.61-0.92l1.61-1.93l1.94,0.47l0.55-1.01l2.02,1.5l2.69-1.761l2.55,0.79l1.38-2.199
		l3.11-0.19l0.89-3.42l2.06-1.8l-1.4-0.54l-2.88,1.149l0.07-0.81l-2.73-0.06l3.01-3.36l4.23-1.54l1.69,0.3l-0.06-0.85l5.25-3.48
		v2.99l-1.18,1.43l4.49-2.18l0,0l2.53,3.38L96.19,728l2.3,1.09l-1.07,4.28l1.38,1.069l3.64-0.88l3.55-3.51l-0.05-1.41l4.29-3.66
		l6.6-1.63l1.27-2.899l4.2-4.311l4.88,0.34l1.52-1.09l1.2,0.58l1.6-0.71l2.15,0.79l7.19-1.39l1.82-1.19l1.2-4.57l3.62-0.109l2.19-2
		l2.99,0.239l1.33-1.489l2.25-0.55l0.55-2l2.76-2.75l-0.02-1.36l3.18-3.17l-2.04-1.62l0.7-1.92l-1.88-1.98l-0.271-4.039l4.9-2.57
		l0.87-1.96l5.04-1.13l2.17-1.46l4.33-0.62l2.25,0.72l1.92-2.42l-0.96-1.98l-3.94,0.301l-2.06-4.25l-3.23,0.68l-1.37-5.07
		l1.49-3.899l1.94-0.66l0.99-1.8l-3.29-2.03l-0.13-2.24l-2.03-2.79l0.38-1.25l-1.41-3.729l0.7-5.41l-1.6-1.42l-0.79-5.05l-2.66-3.7
		l0.3-4.88l3.02-1.94l-0.17-2.42l3.77-0.46l0.56-1.64L169.42,619.57z"/>
	<path id="IE-DL" fill="#1E3250" stroke="#1E3250" stroke-width="0.5" d="M259.88,96.41l0.43,2.09l-2.23-0.18L259.88,96.41z
		 M257.96,92.47l1.42,2.01l-2.43-0.59l0.3-1.87L257.96,92.47z M249.49,86.12l4.19,2.05l-0.52,1.64l1.38,4.18l-3.63-0.02l-0.47,0.97
		l-0.67-1.01l-4.56-0.39l0.03-1.26l0.99-0.3l-0.48-2.31l1.89-1.32l-1.63-2.68l1.81,0.45l0.58-1.85L249.49,86.12z M263.16,82.67
		l0.21,3.23l-1.23-2.58L260.32,83l1.91-1.36l-1.1-3.62l1.06,0.81L263.16,82.67z M368.1,71.59l2.58-0.1l2.76,2.28l1.92,4.47
		l-5.11,0.67l-1.22-1.63l-2.15-0.55l-1.02-2.78L368.1,71.59z M268.93,69.3l1.69,2.01l-1.24,0.89l-2.29-1.28l1.15-0.37l-0.81-1.06
		L268.93,69.3z M282.47,32.88l1.54-0.1l-0.34,0.82l1.67,0.04l2.03,2.31l1.25,0.27l0.27-0.96l0.04,1.16l-2.31,0.63l-1.6-2.19
		l-2.58,0.12L282.47,32.88z M385.56,11.36l2.92,0.94l0.65,1.41L395.6,14l0.82,1.19l3.17,0.2l1.46,1.58l4.37,1.021l2.67,2.09
		l-1.58,0.94l1.76,0.68l-0.739,1.76l2.22,2l0.14,2.86l2.54,0.98l1.24-0.65l6.23,4.48l3.439-0.33l0.51,1.12l3.021,0.69l0.57,2
		l6.18,0.51l3.55,3.35l-0.26,2.16l-3.41,3.27l-7.939,4.24l-3.091,0.69l-12.95,7.74l-5.3,6.43l-0.76,2.54l-5.41,7.52l0,0l-1.609,0.61
		l-1.74,2.78l-1.4-1.26l-2.29,2.11l-3.36-1.02L382,84.96l-0.77,2.5l1.26,1.79l-1.86,2.98l0.9,1.99l-0.63,3.37l1.18,2.13l-4.61,0.75
		l-1.4,1.26l-0.64,8.08l1,5.16l-4.3,9.26l-5.25,3.33l-2.29,3.13l-0.36,6.6l1.39,1.65l-1.11,1.79l-3.58-0.28l-0.08-1.47l-1.48,1.35
		l-3.13,0.16l-2.64-1.41l-4.38,3.75l-6.89,3.1l-1.24,1.89l-6.42-2.7l-1.88-3.04l-1.73-0.4l-5.45,6.81l-4.58,0.26l-0.02,1.33
		l2.37,1.25l-1.68,2.64l1.12,3.16l5.2,2.17l0.58,3.94l2.88-0.42l1.96-2.31l4.72,4.521l1.39-0.521l2.34,1.09l3.84-2.85l-0.01,2.73
		l1,1.31l-1.18,1.33l-4.98,1.61l-1.63,2.47l-3.64,1.15l-0.61,2.33l-3.49,2.69l0.85,2.19l-2.59,2.05l-1.53-0.64l-10.75,0.66
		l-1.96-2.89l-2.07,0.96l-2.26-0.38l-4.18,7.7l-0.3,4.07l-4.5-0.14l-3.62,2.38l-0.04,1.2l-4.28-0.06l-2.9,1.06l0,0l-5.14-1.72
		l-1.71,2.34l-2.06-0.02l-4.08-3.14l0,0l0.92-1.1l-0.57-0.98l2.06-0.74l1.1-4.19l-1.35-2.97l6.46-4.33l-0.86-5.16l1.57,0.22
		l4.62-4.64l-0.12-5.71l1.76,0.32l-0.79,0.36l0.22,0.78l0.84-0.38l-0.72,1.11l1.2,1l-0.49,1.43l1.52-0.4l0.33-2.95l2.13,0.58
		l-0.41,0.9l1.31-0.4l0.15-1.21l-2.11,0.26l0.91-1.25l-1.95,0.26l2.74-1.93l-4.18,0.3l2.55-1.05l1.4-3.7l-2.83,0.82l0.06,1.39
		l-3.28,2.96l-0.38-2.84l1.47-0.99l-2.23,0.5l-0.78,1.01l0.89,0.84l-1.63-1.01l-5.63,4.54l-7.33,3.38l0.82-4.24l2.18-2.71
		l-1.82-2.17l-6.35,3.3l-1.12,3l-4.56,4.26l-4.41,1.43l-1.27,1.17l0.1,1.35l-2.66,1.39l2.03-2.77l-0.34-1.35l5.81-2.01l2.43-2.95
		l-1.31-3.2l0.41-1.43l-1.06,1.03l-0.28-1.05l-2.99,3.6l-1.91,0.4l2.22-6.88l-0.97-0.02l-2.09,3.12l0.24,2.45l-3.51,3.78l-1.19-0.2
		l0.48-1.87l-0.81-0.7l1.26-1.69l-0.33-2.11l-6.58,3.44l-4.95,1.15l-0.93,1.51l-0.63-0.46l0.83-1.51l-4.26-0.46l1.99-1.65
		l-2.16,0.72l-1.28-1.17l0.25-1.59l-1.45-2.62l1.45,5.47l-5.79,0.66l-0.59-1.65l0.92-1.01l-1.71-1.97l-9.44-2.94l-0.04-1.63
		l-0.79,1.05l-0.66-1.03l-0.72,0.91l1.17-5.9l-2.57-1.03l0.1-1.771l1.25-0.65l1.49,0.95l2.13-1.53l1.96,0.38l1.521-0.97l-2.021-0.1
		l-0.04-3.14l1.04-0.87l-0.67-1.05l4.69-1.23l0.25-1.81l1.7-1.77l1.9,0.3l0.68-2.02l8.49-1.66l6.92,2.7l2.46-1.05l0.02,1.78
		l9.33,1.21l-3.69-0.77l-2.27-2.52l-2.37-0.71l-1.34,0.59l-3.49-2.16l0.08-1.33l3.57,1.03l1.58-1.01l1.57,0.4l0.54-0.95l1.2,0.32
		l1.97,3.81l3.18,1.86l1.81-2.16l-3.27-0.87l0.3-0.99l-2.4-1.88l0.87-0.34l-1.03-1.43l-4.57,0.04l0.23-1.66l-1.8-1.19l-1.8,0.18
		l0.44-2.1l-4.64-0.87l3.42-1.37l2.93,1.5l0.78-0.83l-0.56-1.74l2.46-1.66l4.63,1.74l2.73-2.47l1.76,1.11l1.19-1.21l-0.03,1.7
		l1.75,0.63l0.12-6.81l-0.76-0.79l2.43,0.49l1.92-1.46l3.58,1.86l-0.47-1.23l2.08-1.64l-4.02-0.69l-0.29-3.22l-2.22,1.74l-1.87-1.23
		l0.61,3.42l-1.13,0.91l-3.02-3l-3.78-1.23l-1.62-1.56l-0.19-2.37l1.26-0.12l0.41-1.22l-1.65-1.22l0.48-1.62l2.15-0.2l0.14,1.09
		l-1.64,0.77l2.16,1.3l-0.16-1.11l2.78-0.08l2.5-1.64l0.82,0.97l1.82-1.88l-5.23-2.57l-0.6,0.47l-0.64-2.01l-3.06-3.04l0.97-0.75
		L258.54,89l0.37-1.62l3.27-1.04l0.7,0.32l-0.82,0.67l2.6,0.95l-0.93-2.72l1.8-1.89l-1.54-1.83l0.79-1.5l0.9-0.37l1.36,1.95
		l1.31-1.63l2.24,0.26l0.84-1.75l-0.96-2.62l2.92-1.77l0.64-1.95l-0.68-2.01l1.35-0.85l-0.26-3.78l2.38-2.71l-0.49-2.77l1.35-1.32
		L276.83,58l1.25-1.63l6.08,1.92l1.64-0.69l0.79,1.26l5.28,0.31l1.65-1.12l0.51-2.53l1.66-0.02l0.54,1.49l-3.64,2.75l0.59,0.81
		l-0.9,2.4l1.16,0.47l0.93-1.42l1,0.71l-0.23,1.67l0.78-0.81l-0.48-3.67l1.64,0.92l0.63-2.93l-0.77-1.3l6.32-1.06l2.38-2.36
		l1.65,0.67l1.29-0.65l1-2.12l-1.12-0.94l1.29-1.47l-1.26-0.43l0.86-3.22l2.89-0.51l1.25-1.8l1.9,2.73l2.93-0.43l0.32,1.06
		l-0.53,2.45l-1.85,1.35l-1.74-0.08l-0.96,1.59l3.06-1.06l2.97,1.98l2.15-2.61l2.01,0.84l-0.55,2.39l2.5,0.59l-4.22,3.67l4.68-2.57
		l2.23,0.84l-1.26,2.75l-3.04,0.69l-1.78,2.79l2.15-1.43l1.34,0.33l0.23-1.14l1.26,1.67l-0.34,1.63l1.49-0.26l-0.51-2.24l2.4-2.08
		l-1.16-0.96l2.03-2l0.75-2.87l-1.53-3.2l-1.41,1l-2.68-2.45l0.73-5.82l1,0.88l1.68-1.16l1.83,1.39l1.17-0.24l-0.44-2.43h1.59
		l0.36-2.59l1.74,0.69l0.4-1.59l-0.28,6.08l-2.27,1.82l0.05,2.33l-1.08,1.26l1.88,2.2l-0.5,1.96l1.2,0.06l-0.04-1.35l0.68,0.88
		l0.42-0.96l2.05,0.33l0.49-1.18l1.06,0.75L340,52.62l1.6,0.82l0.09-1.67l2.65,4.22l-1.11-3.1l1.98,1.9l2.59,4.75l-2.93,8.83
		l1.61-1.57l0.53,1.67l3.46-12.15l-1.66-1.45l-0.35-3.51l-0.8,1.16l-1.23-1.1l0.7-1.94l-0.84,0.71l-1.43-1.41l0.33-1.37l1.63-0.06
		l-1.19-2.88l0.77-1.729l-0.91-0.9l-1.68,1.76l0.36,3.18l0.93-0.061l-1.1,1.47l0.42,2.24l1.6,1.04l-0.75,2.75l-3.96-3.53l-0.38-1.16
		l1.25,0.51l0.32-1.35l-1.69-0.37l-0.21,0.9l-2.11,0.55l-1.34-2.59l-1.8-0.55l-0.41-1.77l4.58-4.59l0.96,0.29l-0.92-1.06l1.13-1.39
		l-0.7-1.74l1.66,1.55l1.26-1.2l0.41,1.61l3.03-0.16l1.2-1.41l-0.25-1.88l1.47,0.37l2.76-2.9l2.72-0.02l-0.4,1.1l0.94,0.47
		l2.82,7.35l-0.57,3.16l-1.97,2.79l2.61,3.41l1.24-0.33l2.39,1.75l-0.11,2.71l3.76,4.91l2.15,0.92l0.48,3.09l-1.43,1.61l0.57,2.14
		l-1.04,2.16l-5.72,2.52l-1.43,1.59l-0.06,2.42l-3.22,0.83l-1.8,2.28l0.17,1.46l1.7-1.65l1.75,0.71l3.62-2.21l1.17,0.3l0.92,2.15
		l-0.05,1.75l-2.61,3.01l-6.6,4.63l-2.1,5.5l-2.9,1.85v1.6l0.77-1.18l3.96-1.07l0.76-1.6l1.43,1.48l3.21-6.17l6.63-6.09l1.43,0.85
		l1.24-0.93l0.46-3.31l2.05,0.1l1.63-1.26l0.43,0.73l2.61-0.37l1.06-1.34l-1.42-5.31l-2.55-2.77l0.16-2.34l2.46-3.89l-0.48-3.5
		l-1.39-0.2l-1.52-3.61l-1.94-1.04l-1.99-4.63l-4.09-2.24l1.74-1.37l-1.14-0.88l1.42-4.33l2.09-2l-1.74-1.9l2.34-1.63l0.52-1.74
		l0.05-1.23l-1.94-2.1l0.62-1.12l2-0.8l4.11,1.76l0.45-2.96l1.73,1.19V31l2.55,0.61l-0.57-1.53l1.75-0.9l4.08-0.04l0.98-4.7
		l1.34-0.53l3.17,1.06l1.31,2.04l1.29-0.33l1.01,2.04l-1.03,1.04l-3.99-0.49l-0.05,1.35l3.72-0.1l3.37,2.15l1.87-1.45l0.71,1.08
		l2.189-0.33l-2.439-2.29l1.81-1.04L395.85,29l-6.3-3.91l-0.5-2.8l-2.13-1.51l0.49-5.42l-2.78-0.27l-2.18-3.05l-1-0.04l3.33-1.5
		L385.56,11.36z"/>
	<path id="IE-D" fill="#1E3250" stroke="#1E3250" stroke-width="0.5" d="M528.46,403.37l0.59-0.311l1.7,3.631l-0.42-8.421
		l-9.37-4.22l5.4-0.53l0.859-1.35l2.091,1.37l-1.69,2.91l2.25-1.25l0.93-3.21l2.601-3.19l-1.29-0.49l-0.94-2.8l-1.609-0.08
		l1.06,2.15l-4.51,0.02l-0.59-1.13l4.579-1.739l1.921,0.59l3.939-1.84l-1.41-2.08l1.04-1.841l-0.85-0.67l0.71-0.609l-0.5-2.8
		l-1.55-1.29l-0.16-3.57l-5.67-0.33l-2.07-3.84l-2.68-2.351l-0.09-2.239l-2.92-0.61l0,0l-1.91,0.94l-1.141-1.24l-2.149,0.61
		l-1.62,3.38l0.04,3.31l-4.25,2.41l-1.18,1.84l-3.29,0.22l0.149-1l-1.6-1.14l-3.49-1.1l0.22,2l-4.14,2.76l-1.22,4.51l1.33,0.53
		l1.6,3.02l4.91,2.15l-0.13,1.6l2.6,1.471l0.86,4.09l-1.811,2.64l-0.01,3.58l-4.09,1.68l-2.75-0.37l-0.97,4.53l-4.15,5.48l0,0
		l-2.43,5.01l-1.521,0.68l-1.1,7.521l-2.18-0.49l-1.61,1.46l0.36,0.72l-1.16,0.931l1.34,1.17l-0.15,2.39l-2.1,1.93l3.52,3.15
		l1.16-0.35l-3.25,2.199l0.26,1.13l1.78-0.119l5.28,2.18l-0.37,0.58l0,0l1.32,1.479l1.27-0.88l3.76,0.12l2.101,3.93l3.46-0.93
		l-0.13,4.43l4.54,2.74l2.64-3.17l0.23-5.13l0.96-0.7l7,4.33l3.649-1.57l0.271-1.239l2.97-0.58l2.31,3.17l3.07,0.83l3.99-2.45l0,0
		l-0.97-9.271l2.319-2.199l-1.53-2.92l-2.729-1.011l0.32-2.12l-0.561,1.69l-1.42-1.01l0.82-0.99l-2.2,1.5l-5.84-3.93l-0.94-3.601
		l4-0.64l0.141-0.86l-7.2-0.84l4.96-0.12l-0.41-1.21l-3.92-0.96l0.73-0.72l4.25,0.92l3.899-4.2l3.16-1.71l3.06,0.7l0.591,2.54
		l1.529,1.56l3.69,0.12l1.08-3.84l-2.51-2.54l-1.11,0.82l-4.86-0.59L528.46,403.37z M544.59,388.59l-0.92,2.13l-2.8-1.31l0.57-1.74
		L544.59,388.59z M529.54,410.57l1.59,0.08l-4.54,2.96l-1.6,2.22l-0.76-0.62l2.239-3.04L529.54,410.57z"/>
	<path id="IE-G" fill="#1E3250" stroke="#1E3250" stroke-width="0.5" d="M134.04,471.8l1.5,0.16l0.58,1.74l-2.73,1.88l-3.24-0.68
		l1.23-2.92L134.04,471.8z M128.24,464.9l0.9,2.909l-1.69,2.62l-4.08,1.16l-0.14-3.08l1.97-2.979L128.24,464.9z M104.1,455.88
		l2.02,0.16l1.08,3.16l5.66-2l2.06,1.67l3.45,0.29l-2.39,3.35l1.98,1.75l0.9-0.54l-0.37,1.07l1.11,0.41l0.55-0.68l-0.75-0.351
		l1.76-0.95l-0.75,4.05l-2.83-0.52l-3.43-3.02l-2.16-0.061l-5.67-3.28l-8.1-2.659l2.36-2.391L104.1,455.88z M197.47,446.84
		l-0.59-0.6l1.98,0.62l-4.9,0.779l2.08-1.67L197.47,446.84z M193.02,440.97l-2.18,1.61l1.71,0.68l-3.27-1.069L193.02,440.97z
		 M107.85,437.97l-1.5,0.141l-0.06-0.74l1.07-0.351L107.85,437.97z M110.05,436.5l0.84,0.49l-0.19,3.479l-1.42-0.97l-2.86,0.86
		l0.09-1.03l2.15-0.45l-0.47-2.24L110.05,436.5z M107.76,433.95l0.91,2.41l-0.98-0.41L107.76,433.95z M107.1,434.42l-0.78-0.14
		l0.4-1.44L107.1,434.42z M111.78,430.35l1.25,0.86l-1.7,0.72l-0.76-1.649l0.68-0.7L111.78,430.35z M118.45,429.74l0.67,1.79
		l-1.53-0.37l2.34,3.95l-0.64,5.06l-2.25,0.93l-1.77-0.47l0.29-0.62l-2.43,0.8l-1.95-3.439l1.66-1.65l-1.76-0.27l-0.56-1.91
		l4.72-1.4l0.06-1.93L118.45,429.74z M123.02,429.49l-0.68,1.729l-0.41-1.6L123.02,429.49z M124.34,429.51l-0.86-0.02l0.65-0.971
		L124.34,429.51z M100.65,426.32l0.43,0.66l-2.09,1.77L100.65,426.32z M116.33,425.38l2.18,1.07l1.95-0.9l0.82,1.44l-2.82,1.81
		l-3.57-0.18l-0.48,1.689l-2.08-1.13l-0.19-0.68l1.73,0.6l0.49-0.64l-2.5-1.42l0.72-1.32l2.33-1.17L116.33,425.38z M121.03,424.14
		l0.82,0.391l-0.98,0.68l-0.23-0.99l-1.82-0.04l1.77-1.729L121.03,424.14z M126.16,417.36l-0.2,1.52l-0.62-1.52H126.16z
		 M116.37,415.99l0.77,0.569l-1.31,0.271L116.37,415.99z M118.6,415.54l0.25,0.88l-1.48,0.29L118.6,415.54z M86.58,411.54l0.64,0.7
		l-1.04,1.05L86.58,411.54z M90.06,404.4l0.17,1.25l-0.97,0.699l2.02,1.521l-1.75,0.49l1.46,2.3l-0.79,0.92l-1.38-0.9l0.58-2.67
		l-0.91-2.99l0.71-1.46L90.06,404.4z M60.65,386.54l1.52,0.78l-2.59,0.14L60.65,386.54z M60.46,384.46l0.62,0.53l-1.66,0.76
		l0.1-1.15L60.46,384.46z M60.42,381.43l0.22,0.74l-2.24,0.61l-0.52-0.63l0.75-0.551l-1.67-1.25l2.33-0.529L60.42,381.43z
		 M44.97,364.04l2.45,2.51l-2.77-0.37l-1.56,1.101L44.97,364.04z M55.34,360.8l1.85,0.69l-1.15,1.83l1.5,0.779l-2.09,2.261
		l-1.87-0.431l0.44-0.819l-3.2,0.239l-2.92-2.04l1.35-1.77l0.52,1.729l1.19,0.431l1.14-2.12l1.8,0.9l0.03-1.65L55.34,360.8z
		 M216.35,354.36l2.29,2.02l2.34-1.41l4.19,0.37l1.59-1.53l0.71,1.101l6.93-2.101l2.39-2l-0.27-1.71l1.07-1.85l5.96-0.94l1.2-1.689
		l4.78,0.02l1.55,1.08l5.84-0.51l3.1,2.62l-2.02,0.55l3.67,5.23l7.35,3.81l-0.49,2.42l-1.68,0.25l0,0l-1.6,0.79l0,0l-1.52,1.84
		l2.54-0.2l0.99,1.9l-0.21,2.84l3.18,0.63l1.66,2.29l-0.03,1.82l3.71-0.061l2.67,2.29l-0.26,0.841l-1.25-0.78l-1.14,1.04l2.57,4.41
		l-0.84,1.489l1.78,1.37l-1.47,1.061l-0.35,1.779l2.09,2.761l-0.78,1.39l1.17,1.54l-1.76,1.58l5.62,5.16l-0.62,1.54l-2.29,1.21
		l0.72,3.67l1.99,0.16l1.67,3.24l-2.01,5.64l1.65,1.97l-0.14,1.4l2.06,0.97l1.57-0.6l1.31,2.479l-0.68,5.28l1.92,3.78l2.68,0.409
		l1.2,1.58l1.34-0.51l9.13,1.521l0,0l2.96,1.85l0.25,2.02l2.31,0.351l3.83,3.149l0.57,4.021l-2.47,4l-5.44-0.23l-2.64,1.301
		l-2.63,4.409l0,0l-5.4,1.57l-3.69,4.7l-1.03,3.76l-5.56,8.78l-5.39,2.34l-1.56,7.3l-2.58,2.05l-1.88,4.721l0,0l-2.86-0.37
		l-2.5,2.96l-0.92-1.47l-3.6-1.24l-1.68-1.86l-1.87,2.96l-2.18,1.391l-3.83-3.091l-2.3,0.99l-0.84-4.85l-2-1.12l-0.41-1.95
		l-2.53,0.17l-0.83-3.75l-7.72,1.3l-1.33-1.199l-3.7,0.369l-3.63,2.591l-2.43,0.17l-2.68,4.51l-4.14,2.65l-0.85,3l-4.95-1.181
		l-0.82-1.66l-1.83,0.71l0.44,1.021l-1.07,1.72l-0.75-1.72l-2.45,0.439l-1.59-4.77l-0.27-1.7l1.66-1.37l-1.82-3.97l0.65-5.01
		l-3.22-0.72l-2.4-3.04l-8.06-3.91l-2.23-5.24l0.58-1.59l2.1-0.601l0,0l0.22-1.649l1.75,0.97l-1.03-2.21l-1.11,0.99l0.16-1.26
		l-0.78,0.56l-3.3-1.05l-0.64-1.11l-3.37,1.49l-1.11-1.18l0.85-0.891l2.12,0.851l4.4-1.221l3.78,0.311l2.63-1.51l0.21,1.859
		l-2.76,1.07l4.46,0.93l-0.54,0.58l2.57,2.58l1.63-0.89l-1.49-0.19l-0.42-3.59l-1.63-1.47l0.71-0.931l-0.91-0.08l0.58-1.81
		l0.99,0.37l-0.48-1.57l1.74-0.83l-2.88,0.99l2.78-1.59l0.62-1.57l1.73-0.21l1.41-2.02l-1.32-0.37l-1.98,1.77l-2.47,0.58l-5.12-0.17
		l2.52,1.42l-5.39-2.14h4.86l-2.12-0.82l1.74-1.15l-2.93,0.58l0.72-0.409l-0.57-0.391l6.74-2.59l-7.28,1.01l4.81-1.26l0.35-0.99
		l-3.23-0.31l1.61-1.79l4.49-0.49l-1.12-0.7l1.39-1.97l-4.15,0.45l-0.69,0.95l0.76,0.529l-2.73,0.101l-0.07-1.63l-2.75,0.72
		l-0.16-0.72l-2.88,0.43l-0.02-0.74l-1.33,1.71l-5.84,1.5l-0.88,1.3l0.19-2.079l-2.24,0.579l0.68,0.931l0.91-0.37l-0.33,0.58
		l-5.19,0.859l-6.36,0.12l-0.84-0.76l-12.63,2.08l-3.45-0.66l-4.55,1.67l-5.86-0.1l-1.729,1.56l-2.51-0.64l-0.45,0.89l-3.6,0.62
		l-3.65-3.25l0.29-1.15l1.08,0.23l-0.83-0.74l0.22-2.92l-1.13,2.08l-1.14-2.39l3.37-2.9l-1.64-2.47l-1.52,0.99l1.66,0.93l-2.68,0.41
		l-1.08,1.52l1.1,1.97l-1.81,5.15l-0.51-1.32l-2.34,1.73l-1.4-1.19l-0.61-2.37l1.14-2.779l2.75-2.86l-0.73-1.67l0.9-0.31l-0.4-1.03
		l-1.19,0.27l-0.08-3.47l-1.69-1.27l0.42-1.5l3.67-0.58l1.68,2.319l-0.84-2.239l1.7-1.051l-0.71-1.25l0.58-1.029l0.25,4.37
		l1.59,1.989l0.36-1.58l-0.69,0.54l-0.89-1.75l1.87-3.569l-2.85-1.271l-0.69,0.94l-0.01-1.87l-0.68,0.9l-1.56-2.221l0.49-1.79
		l2.33-0.92l2.17-0.45l0.97,0.98l-1.01-1.64l-2.31,0.1l0.81-2.01l2.22,0.29l-1.49-0.9l2.23-1.37l-3.78,1.521l-0.02,1.5l-1.12,0.18
		l1,0.27l-0.04,1.29l-1.4-0.449l-1.48,0.88l-0.44-1.271l-0.77,0.78l1.48,2.38l-0.82,3.59l-1.01-0.16l1.83,0.801l0.33,1.739
		l-5.4,1.03l-2.66-1.75l1.54-0.7l1.19,0.66l2.2-1.36l-2.46-0.159l-0.25-1.03l2.27-1.75l-1.21-2.13l1.68-0.12l-0.55-1.37l-2.27,1.78
		l1.7-3.08l-2.66,0.25l1.03-1.29l-1.84-0.29l-0.51,0.68l1.22-0.12l0.01,1.721l-1.05,2.42l-1.42,0.7l-2.01-1.15l-0.16,0.68
		l1.87,0.601l-1.84,1.52l-2.02-0.1l1.7,1.17l-2.65,4.81l-1.76,1.11l0.3,2.689l-4.81,1.29l-0.05,1.891l-0.49-2.04l-0.84,0.54
		l-0.65-1.29l-2.43-0.54l-0.43-2.65l-0.16,2.49l-1.03-0.8l-0.88,1.42l-0.8-0.92l-1.23,0.899l0.88,0.37l0.28,3.23l-1.12-0.601
		l-0.04-1.71l-2.74-0.88l2.3-1.85l2.33,0.49l-0.41-2.421l-1.77,0.82l-0.16-1.229l-1.57-0.931l0.46,3.04l-0.77,0.49l-0.47-0.78
		l-0.48,0.92L91.54,422l-1.27,0.739l-1.08-1.029l0.82-3h1.54l-0.22-1.931l1.21-0.819l-0.35-0.9l-1.82,0.84l0.98-1.31l-0.69-1
		l6.11-1.811l0.63-1.05l1.74,1.46l1.44-2.67l2.59-1.189l-1-0.681l-0.7,0.601l-0.02-0.96l1.84-1.761l-3.27,1.011L99,405.49l0.42-0.98
		l2.33-0.2l-0.17-0.819l-2.95,0.02l-2.36,2.07L95.64,408l-0.07-1.56l-0.94-0.25l-0.88,2.909l-1.73-1.13l-0.5-3.729l1.82-1.03
		l1.4,0.68l-0.48-0.899l1.45,0.12l-0.61-0.881l0.66-0.63l1.21,1.17l1.29-0.92l-3.74-1.449l-0.41,2.069l-2.94,1.271l-0.93-1.17
		l0.73-0.761l-1.11,0.2l-1.87,1.87l-0.31,5.271L84.92,411l-1.35-0.68l-1.06,1.229l1.29,0.92l-0.79,0.431l-2.03-0.94l1.35-1.17
		l-0.63-0.9l-4.88,0.761l-2.4-0.921l-0.78-4.59l-2.89-1.21l-1.81-2.189l-0.9,3.5v-1.29l-1.53-0.04l-0.71,1.04l-0.75-0.9l-1,2.561
		l-3.46-3.9l-3.49,2.6l-0.46-1.189l3.57-5.681l0.69-0.02l-0.27,2.27l0.93,0.78l-0.44-2.34l1.18-3.34l4.28,1.31l1.2,2.5l0.7-0.31
		l-1-1.521l1.95,1.561l1.9-3.91l2.53-0.45l-3.52-0.63l-1.03-0.63l1.08-0.06l-0.52-0.551l-2.57,0.41l1.23-1.189l-2.23-1.311
		l1.35-1.229l0.94-0.33l7.21,4.38l-0.57-1.78l-1.21,0.43l-1.4-1.189l2.47-1.62L71.93,390l-4.41-2.09l-1.98,0.16l-2.19-1.33l0.1-0.63
		l1.68,0.68l-0.58-0.86l-2.39-0.47l-0.31-1.04l3.86,0.59l-3.59-1.76l3.24,0.25l4.06,1.92l-1.15,0.53l2.55,0.67l2.23-0.49l-0.16-1
		l-1.06,0.45l-9.45-2.68L61,379.04l-3.74,0.61l-2.48-0.9l1.15-1.08l-0.23-1.1l3.1-1.311l1.29,1.721l0.33-2.511l1.95,1.55l1.18-0.63
		l3.97,1.69l-4.48-3.94l0.09-0.689l1.2,0.59l1.84-0.73l0.94,0.86l2.26-0.35l1.31,1.43l2.01-0.92l3.69,0.979l0.37,0.94l-1.06,0.71
		l1.85,2.51l2.75-0.24l-1.06-0.71l1.13-1.21l1.2,1.29l1.78-0.39l-2.66-1.59l-2.42,0.729l-0.03-1.06l0.96,0.55l0.67-1.12l1.5,0.55
		l-0.62-1.18l1.75-0.71l-7.1-1.35l-2.51-3.08l-0.49-3.2l3.31,0.75l2.75-0.86l3.59,2l5.53,0.431l1.61-1.71l1.69,0.159l-1.19-0.67
		l0.21-0.92l2.95-0.41l2.99,1.28l-3.66-2.939l0.9,0.39l0.08-0.86l0,0l10.93,5.83l9.09-0.43l3.84-2.47l2.18,2.33l4.56-0.94l3.67,1.31
		l2.4-2.529l1.62,5.77l3.52,0.69l4.01,3.27l7.06-0.29l6.86-1.689l1.64,1.779l-0.48,3.721l2.82,0.859l2.58-3.29l0.07,1.98l1.68,0.49
		l1.43,5.699l4.9,3.23l-0.05,3.42l6,1.43l2.92-2.109l2.71,1.04l2.2-3.011l1.89,0.2l0.84-4.21l6.72-4.27l0.97-2.45l-2.02-5.72
		l4.55-1.08l-1.21-2.55l2.01-1.221l0.75,1.141l1.54-1.771l-0.75-2.689l1.32-1.351l0.29-3.1l-0.73-0.57l0.88-1.77l1.61-0.12
		l1.45-1.45l4.98,3.79l0.14-1.88l6.6-0.16L216.35,354.36z"/>
	<path id="IE-KE" fill="#1E3250" stroke="#1E3250" stroke-width="0.5" d="M418.5,410.59l1.01-3.16l4.721-2.52l3.27-5.18l4.84-2.851
		l1.9,1.88l3.72-1.229l0.37,2.09l2.54,2.01l1.18,2.48l7.91,3.06l2.55-4.02l4.99-2.21l7.04,3.42l4.5,3.63l9.06,1.43l2.41-3.42
		l6.55,4.28l1.381-1.21l3.189,0.09l0,0l-2.43,5.02l-1.521,0.681l-1.09,7.52L484.4,421.9l-1.61,1.46l0.37,0.72l-1.16,0.93l1.34,1.17
		l-0.149,2.4l-2.101,1.92l3.521,3.16l1.159-0.351l-3.26,2.19l0.26,1.13l1.79-0.11l5.28,2.171l-0.37,0.59l0,0l-3.95,3.87l1.08,1.8
		l-2.55,3.56l-2.06-0.51l-2.12,1.38l-0.2,1.67l2.16,1.4l-3.87,3.18l-0.15,3.24l-4.18,6.07l-1.78-0.5l-0.52,2.279l-3.62,0.761
		l-0.43,1.09l-7.9,3.439l-0.64,4.94l-2.26,2.979l-2.391,0.931l1.17,2.069l-2.5,1.801l-0.39,3.01l6.36,8.02l0.06,5.37l0,0l-1.26,0.58
		l-0.36,4.38l-1.56-0.14l-2.94,4.609l-4.11-1.25l-2.43,2.33l-2.68-3.14l-0.97,0.29l0.909,2.6l-1.33,0.63l-2.79-1.88l-2.029-3.42
		l-1.03,0.08l-0.79,1.641l0,0l0.26-7.58l-5.12-12.051l-4.93,2.511l0.19-1.86l-4.53-1.14l-3.53-3.771l2.431-6.569l2.149-1.131
		l-1.33-1.68l1.32-1.51l-0.48-1.92l0.87-1.221l-1.3-5.85l-1.8-1.2l-1.46-4.04l-1.91-1.16l1.02-2.27l-0.75-2l0,0l1.601,0.22
		l1.47,1.66l0.91-3.45l-1.95-1.069l-2.59,0.76l-2.41-2.47l-4.819-0.87l2.079-1.24l5.78,0.93l7.34-0.739l-0.189-3.19l3-2.09
		l-2.37-1.71l-1.65,0.479l-2.92-1.239l-0.02-0.721l2.56-0.2l-0.109-1.63l3.72-1.93l-1.561-4.86l4.78-1.359l-2.33-2.09l4-2.271
		l-1.43-2.439l-4.09-1.83l0.14-2.11l-2.33-3.04l-1.95,0.63l-3.16-2.62L418.5,410.59z"/>
	<path id="IE-KK" fill="#1E3250" stroke="#1E3250" stroke-width="0.5" d="M349.46,526.77l2.72-1.59l4.19-0.1l0.11-3.41l4.14-3.75
		l2.35,3.58l2.7,1l0.05-1.23l0.92-0.1l1.34,2.24l1.91-0.45l2.54,3.03l3.25-0.601l2.39-2.89l3.33,1.45l1.19-4.34l1.91-2.19l1.48,0.44
		l0.19,2.79l1.23-0.17l0.31-3.16l2.48-5.87l1.86-1.08l5.82,3.54l1.899-3.04l-0.239-2.64l3.109,0.21l3.141-3.15l2.96,2.11l0.81,2.1
		l1.28-0.79l0.95,1.17l-0.11,4.01l2.46,4.36l2.851,0.27l0.689,1.461l1.82,0.649l1.54,4.32l0,0l-3.21,3.06l0.39,3.55l-1.94,2
		l1.391,2.391l-1.95,1.59l3.021,0.02l1.5,3.091l1.949,0.979l1.521-1.76l3.859,3.68l1.171,3.771l2.05,1.22l-1.061,2.1l0.48,2.78
		l-0.84,2.01l1.26,1.48l-0.61,1.03l1.61,2.859l2.42,0.76l3.64,4.33l0.28,3.301l-5.01,4.59l2.77,1.91l-0.59,5.199l2.54,4.61
		l-1.9,1.54l2.101,0.67l0,0l-1.22,3.88l1.22,2.84l-1.29,1.471l-2.41-1.03l-1.439,0.689l2.229,1.79l0.1,1.82l-2.729,4.55l-0.12,2.141
		l-2.41,0.069l-0.79,1.4l0.66,7.42l-3.31,4.99l2.12,3.88l0,0l-2.65,0.8l-2.271,2.72l-5.819,0.91l-1.28-2.49l-3.39-0.609l-3.37-2
		l-5.24,6.01l-1.79,0.74l-2.49-3.55l-2.93-1.12l-2.41-5.65l-1.58-1.13l-0.48-2.45l-2.19-2.63l-5.69-2.4l0,0l-3-4.189l1.51-11.12
		l-3.15-2.08l-1.6-3.22l-4.91-4.15l5.21-7.14l-1.29-1.4l-2.07,1.28l0.18-1.45l-1.01-0.729l0.4-11.101l-2.94-2.989l0.39-4.29
		l-5.22-7.021l-1.94-4.74l0.6-1.34l-2.11-3.07l-6.73-3.42l-2.29-2.56l0,0l-2.41,0.16l0,0l-0.3-2.17l-2.11-2.181L349.46,526.77z"/>
	<path id="IE-KY" fill="#1E3250" stroke="#1E3250" stroke-width="0.5" d="M49.62,725.83l0.77,0.38l-1.16,1.54l-1.97-0.09l0.51-1.32
		L49.62,725.83z M102.81,707.84l-2.54,2.32l0.18-1.391L102.81,707.84z M31.27,706.17l-1.75,1.54l1.28-2.09L31.27,706.17z
		 M37.76,688.94l1.68,0.85l1.21-1.23l0.47,1.75l3.36-0.47l-0.2,2.11l-7.5,4.71l-3.04,0.75l-1.32-1.021l-4.21,2.32l2.23-6.01
		l3.79-0.53l3.03-2.13l-0.19-1.771L37.76,688.94z M43.23,687.69l1.33,0.319l-1.75,0.87l-1.52-0.85l0.42-0.92L43.23,687.69z
		 M7.07,666.81l1.49,1.141l-2.47-1.061L7.07,666.81z M18.03,655l1.17,1.21l-0.97,1.65l-7.22,4.39l1.36-2.56l4.44-2.771L18.03,655z
		 M11.6,650.73l-0.64,1.689l-1.61-0.189l2.1-2.311L11.6,650.73z M152.21,566.56l0.91,1.15l0,0l0.4,1.22l1.84-0.1l-1.21,1.46
		l0.69,1.09l-0.72,1.49l2.2,2.77l2.86,0.98l0.98,5.05l-2.17,0.44l-0.62,4.029l-2.31,0.11l1.68,5.6l2.59,1.891l-2.53,1.89l-1.47,3
		l4.02,4.021l-1.12,2.02l-3.11,1.33l-0.49,1.771l3.16,1.96l2.43,3.22l6.7,2.36l2.51,4.239l0,0l0.83,1.5l-0.56,1.641l-3.77,0.46
		l0.17,2.42l-3.02,1.939l-0.3,4.881l2.66,3.699l0.79,5.051l1.6,1.42l-0.7,5.409l1.41,3.73l-0.38,1.25l2.03,2.79l0.13,2.24
		l3.29,2.029l-0.99,1.801l-1.94,0.659l-1.49,3.9l1.37,5.07l3.23-0.681l2.06,4.25l3.94-0.3l0.96,1.98l-1.92,2.42l-2.25-0.721
		l-4.33,0.62l-2.17,1.46l-5.04,1.13l-0.87,1.961l-4.9,2.569l0.27,4.04l1.88,1.98l-0.7,1.92l2.04,1.62l-3.18,3.17l0.02,1.359
		l-2.76,2.75l-0.55,2l-2.25,0.55l-1.33,1.49l-2.99-0.24l-2.19,2l-3.62,0.11l-1.2,4.57l-1.82,1.189l-7.19,1.391l-2.15-0.79l-1.6,0.71
		l-1.2-0.58l-1.52,1.09l-4.88-0.34l-4.2,4.31l-1.27,2.9l-6.6,1.63l-4.29,3.66l0.05,1.41l-3.55,3.51l-3.64,0.88l-1.38-1.07
		l1.07-4.279l-2.3-1.09l1.17-1.69l-2.53-3.38l0,0l1.26-1.22l-1.17-1.41l1.21-2.24l1.24,1.18l-1.31,1.11l3.97-0.85l-1.14,1.43
		l2.46-0.98l0.96,0.131l-1.35,1.26l2.78-0.71l-0.93-1.32l0.77-0.26l-4.46-1.351l-0.6-1.09l5.68-2.54l-0.22-2.109l3.81-2.051
		l1.48-2.64l10.35-2.01l2.32-2.54l7.19-2.98l1.77-2.39l-4.58,2.54l-5.1,1.21l-2.65-0.89l-10.34,4.43l-0.44-0.79l-0.85,1.47
		l-9.16,3.95l-1.66,2.18l2.02-1.92l-0.48,1.53l-2.57,1.49l-0.78-0.3l0.22-1.391l-2.19,0.45l-0.51-0.729l-1.65,0.939l0.15-2.03
		l-1.26-2.09l0.37,4.78l-0.75,0.81l-4.79,0.551l-7.49,5.609l-2.74-0.83l-0.89,1.05l-0.73-0.489l-1.92,1.279l1.39-0.229l-0.13,1.17
		l-5.05,0.77l-0.22,1.431l-2.39,0.64l-0.94,1.33l-1.21-0.7l3.16-4.13l-1.08,1.37l-2.52-0.36l-0.75-1.33l-1.49,0.83l-4.2-2.8
		l-1.74,0.45l-1.01-0.81L51.96,717l2.59,0.19l2.33-1.181l1.08-3.31l-0.73-0.7l0.5-3.54l-3.63-3.649l-4.86,0.729l-2.95,3.94
		l-0.16,2.18l1.34,0.64l-2.94,0.83l-0.13-1.05l-2.19,2.58l-4.07,2.18l-1.36-2.76l2.31-1.26l-0.64-1.62l0.96-1.68l-0.71-0.511
		l0.36-3.899l-7.24,0.45l1.61-3.051l-0.85-0.64l0.36-1.771l-1.18-0.92l0.85-1.58l4.75,0.08l4.61-2.34l1.82,0.4l2.52-3.38l2.75,2.66
		l0.07-2.21l-1.02-0.57l0.63-1.04l-3.09-1.89l7.68-5l1.15,0.789l2.39-2.38l-3.52,0.811l-1.92,1.91l-3.15,0.77l-0.68-0.96l-1.22,2.28
		l-1.18-1.32l0.41-0.979l-4.69-0.25l0.34-1.04l4.2-2.17l1.88,0.939l0.78-5.04l3.7-0.93l1.46,1.49l1.02-2.74l5.69-2.55l2.31-2.271
		l2.24,0.51l1.34-0.779l0.77,0.81l3.94-2.7l4.58,0.301l5.88-3.16l0.2-5.04l0.93-1.61l1.14-0.06l-1.34,1.25l0.67,2.33l-0.76,0.13
		l-0.61,2.92l4.63-4.58l0.35,2.18l1.97,0.28l-2.36-3.67l3.65-5.021l0.47-5.1l0.2,1.61l0.82-0.38l-0.44,4.399l4.7-1.42l0.8,0.87
		l-0.15-1.57l1.41-1.18l1.73,0.29l0.72,1.21l0.31-2.48l3.28,0.66l-1.54-1.609l0.64-3.301l-0.9-1.92l-1.49,2.091l-1.04-1.5
		L81.6,648.96l2.45,1.78l0.8,3.17l1.35,1l-0.7,1.141l-2.11-1.23l-3.56-5.95l-7.27,1.2l-5.16,2.75l-1.41-0.59l-1.92,2.1l-1.89,0.53
		l-0.99-0.13l0.82-1.061l-2.04-0.68l-4.18,2.82l-1.83-2.84l-1.49,0.989l-3.14-0.08l-2.68-4.109l-1.68-0.47l-0.1,0.89l-1.47-0.11
		l-1.46,1.65l5.35,0.91l0.06,1.71l-3.07,0.64l-3.72-0.72l-0.36-1.36l-3.98-1.819l-2.03,2.449l3.55,2.011l-4.5,0.149l-7.58,1.99
		l-0.77-2.03l-2.26-0.229l2.21-2.42l-1.26-1.88l0.57-2.431l-1.46-1l1.8-0.8l0.02-1.689l2.55-2.03l-2.08,0.109l0.35-1.14l-2.06-0.3
		l7.49-5.26l0.56,0.829l-1.33,3.891l3.32,0.42l1.8,1.9l0.68-2.811l-1.44-0.87l-0.07-1.29l2.62-2.91l-2.11-1.199l1.05-2.681
		l4.44-0.569l3.09-1.811l0.83-2.319l2.82-0.25l1.97-2.7l2.82-0.82l2.02,1.01l0.49-2.02l3.56-1.48l2.33,0.46l-0.76,4.601l1.56,0.479
		l-3.73,5.891l2.5-1.44l2.41,0.61l0.65-1.71l5.72-0.971l5.81-6.369l0.01-2.49l-2.59-2.61l2.6-0.36l1.08,1.37l1.11-2.189l1.08,1.24
		l-1.1,1.329l-0.77,6.58l2.47,3.141l5.23,3.55l3.67-0.4l3.22,0.931l3.85-1.24l2.99-4.07l2.18-0.59l0.88,0.25l-3.31,1.73l1.54,1.289
		l2.55-0.1l2.64-1.67l2.51,1.22l-0.18-0.93l0.85-0.19l0.61,0.87l-0.3-1.37l1.52-0.72l-4.25-2.979l-4.32,0.59l-4.29-1.65L92.76,624
		l0.09-1.84l-1.71-2.36l0.51-0.97l0.92-0.271l1.54,1.5l-1.31,1.671l0.3,1.27l1.53-1.92l2.5-0.46l1.04-1.69l-4.16,0.61l-0.54-0.84
		l1.75-1.22l1.42,0.229l0.37-1.14l1.41,0.5l0.35-1.851l-1.19-0.819l-1.52,3.06l-0.35-0.55l1.76-4.99l0.18-8.479l-1-1.301
		l-8.43-1.109l-2.82-1.47l-1.08-1.471l0.51-2.02l4.02-2.17l5.44,1.22l4.18-1.39l3.52-2.33l3.04-0.53l4.63-5.061l4.71-1.59l1.55-5.75
		l-0.79-2.01l1.07-0.59l-0.89-0.61l1.13-0.27l0.37-1.4l-1.19-1.7l5.48-5.04l1.75-0.75l7.63,1.25l1.13,1.75l1.25-1.75l2-0.13
		l2.88,2.38l2.75-0.25l1.63-2.88h6.51l1-1.63l2.76,0.85L152.21,566.56z"/>
	<path id="IE-LD" fill="#1E3250" stroke="#1E3250" stroke-width="0.5" d="M321.11,321.37l0.48,2.939l3.31-0.729l-0.18,1.5l1.84,0.89
		l-0.78,0.86l1.02,0.75l0.86-4.85l0.87,0.039l1.85,3.591l1.93-1.73l3.73,0.67l2.1-6.08l-0.58-3.63l2.14-0.08l1.09-2.58l1.2,0.75
		l0.88-0.649l2.26-4.13l2.35-1.17l-0.02-2.451l2.5-0.45l2.46-4.15l3.26,1.28l1.07-0.43l0,0l3.45,4.76l0.59,2.33l0.29-0.97l1.82,0.38
		l0.81,2.229l-0.65,2.92l-1.66-0.43l-1.36,5.74l4.61-0.59l2.11-1.851l5.66,1.931l1.34,6.859l-1.13,1.25l1.61,2.07l5.63,2.439
		l0.63,2.7l0,0l2.86,0.76l0.83,1.62l-0.99,5.71l-2.08,0.15l-1.38,1.97l-1.95-1.95l-3.17,1.011l-0.41,2.689l-1.32,0.12l-2.47,3.01
		l-2.45-1.54l0.53,1.75l-1.97-0.05l-0.72,2.57l0.58,1.97l-1.73,0.13l-0.86,1.12l-2.08-0.33L361,356.48l0.94,2.359l-3.48-2.06
		l-1.75,0.08l-0.43,1.489l4.8,2.12l1.46,4.83l-2.91-0.399l-2.06,0.909l0.23,2.82l-3.1,1.16l-0.74,2.64l-3.1,3.511l-0.15,4.92
		l-1.51,0.819l-3.57-1.55l-1.71,2.08l-2.34-0.14l-1.6-1.37l-5.08-0.62l-2.46-1.34l-1.86,0.77l-2.7-1.819l-6.77,1.09l-3.08,3.45
		l-2.99,0.779l0,0l-1.38-5.439l-6.42-11.33l0.04-6.73l1.65-3.2l4.25-4.229l-0.1-3.97l2.62-2.24l1.51-0.04l0.61-5.271l3.18,0.73
		l0.19-2.36l3.48-2.35l1.02-4.09l-3.48-2.62L321.11,321.37z"/>
	<path id="IE-LH" fill="#1E3250" stroke="#1E3250" stroke-width="0.5" d="M474.9,280.03l1.25-2.12l3.8,0.87l3.03-1.35l2.3,0.97
		l1.479-1.94l2.561-0.6l-0.87-1.05l0.56-1.27l2.44,1.04l1.79,2.85l3.399-0.97l2.96,0.58l0.74-1.53l2.08-0.82l-0.03-8.21l2.74-0.08
		l0.561,3.71l1.46,0.58l2.79-3.52l1.279-0.14l2.28,1.99l0,0l2.74,4.6l5.49,3.67l1.829,3.55l3.761,2.58l2.21-1.31l0.43,3.25
		l2.84,3.39l-4.31,4.13l-2.971,0.5l-9.75-2.06l-8.39-5.13l-3.63,0.44l-1.35-3.81l-0.891,0.36l1.36,3.11l-3.29,0.04l-0.021,0.91
		l4.71,0.26l0.94,2.02l-2.67,2.69l-0.09,4.06l-1.9,2.43l0.86,1.29l-0.38,4.5l0.989,4.05l4.33,4.68l2.91-0.149l7.76,3.39l-1.619,2.45
		l-0.841,7.85l1.671,1.73l3.239,0.83l-2.25,1.91l-1.109,4.289l-1.101,6.32l1.05,1.99l0,0l-2.939-1.68l-5.74,2.35l-0.32,2.18
		l-2.38,0.41l-8.439-3.85l-2.351,1.16l0.23,0.76l-3.38,0.34l-2.431-3.33l3.83-4.939l-0.5-1.75l-1.659-1.021l-5.48,0.55l-2.69-2.26
		l-1.119,0.09l-0.181-3.66l-3.22-1.26l-0.19-3.85l-2.159-3.011l0.72-1.6l-1.23-2.86l-2.8-3.529l-3.67-0.83l-4.25-3.931l0,0l1.32-2
		l1.37,0.61l2.85-1.34l1.6-2.43l-2.88-2.27l1.29-1.39l-1.779-1.7l1.63,0.67l-1.17-2.37l2.3,0.16l-0.36-2l1.65-0.26l1.12-1.54
		l3.689,2.35l2.351-0.37l0.6-0.97l-0.7-0.85l1.311-1.51l-0.66-1.76l1.27-1.29l-1.229-3.01l-2.101-1.88l0.59-0.89L474.9,280.03z"/>
	<path id="IE-LK" fill="#1E3250" stroke="#1E3250" stroke-width="0.5" d="M223.03,547.03l5.8,0.859l3.25-2.76l3.9-0.13v2.47
		l-4.25,2.38l-0.5,3.131l7.75,0.5l1.38,1.25l2.63-2.25l1.13-4.131l3.57-2.17l0.64-3.43l3.33-1.54l1.22-2.34l-0.69-5.59l3.49-2.04
		l0,0l1.26,3.63l0.69,8.01l4.11,3.71l2.74-2.5l2.31,1.75l2.71,0.311l7.44-3.04l5.15,2.71l-0.02,2.34l1.98,0.399l0.6,1.25l1.61-1.779
		l3.29,0.479l-0.84,4.79l-2.02,1.8l-0.74,4.841l0.94,0.439l-0.18,1.83l-2.71,2.94l1.37,1.949l-1.14,1.801l0.99,1.279l-0.76,7.561
		l-2.8,1.13l-0.54-1.82l-1.02,0.59l-1.85-0.92l-1.45,2.3l-2.75,0.761l0.69,2.489l-1.64,2.311l-0.75-0.67l0.91-2.41l-1.14-0.57
		l0.14-2.39l-2.69,0.21l-0.65,2.62l-3.26,2.08l0.19,2.6l-1.58,1.38l1.82,6.15l2.81-2.43l1.65,2.1l3.81-0.9l0.88,3.74l2.76,0.771
		l0.39,3.029l5.82-1.6l0.51,4.29l1.68,3.64l1.28-0.689l1.22,1.13l3.27-0.44l-0.24,4.101l-1.52,2.6l2.1,2.29l0.71,3.41l-3.28,2.39
		l0,0l-7.29-1.729l-3.87,1.91l-1.53-1.391l-2.13-5.069l-1.94,0.779l-1.25-1.979l-2.64,1.62l-0.21,1.68l-2.19,0.8l-0.56,2.36
		l-5.85,0.34l-7.98,2.62l-4.23-2.15l-1.87-3.189l-3.18-0.08l-3.53-6.011l-1.12,0.261l-0.08-1.94l-0.77,0.65l-3.27-1.26l-1.57-2.69
		l0.03-3.771l-7.13,2.631l-5.11-2.761l-1.7,2.551l-1.19-2.73l-1.98,0.46l-0.94,2.521l-2.56,0.21l-0.18,2.479l-2.11,1.39l-0.76-0.789
		l-1.38,2.96l0.84,1.159l-12.09,3.841l1.14,3.43l-0.59,0.49L191,614.68l-8.82-1.93l-3.24-2.13l-0.46,2l-3.93,2.78l-0.11,1.33
		l-4.15,1.159l-0.87,1.681l0,0l-2.51-4.25l-6.7-2.36l-2.42-3.22l-3.17-1.96l0.49-1.771l3.12-1.33l1.12-2.02l-4.03-4.03l1.47-2.99
		l2.54-1.89l-2.59-1.89l-1.68-5.601l2.31-0.109l0.61-4.03l2.17-0.44l-0.98-5.05l-2.85-0.979l-2.21-2.771l0.72-1.49l-0.68-1.09
		l1.21-1.46l-1.84,0.101l-0.4-1.23l0,0l-0.49-0.39l4.27-0.83l3.63,1.38l11.26-5.38l5.38-1.38l0.88-1.13l4.5-0.12l6.01-3.75l0.75,2.5
		l1.13,0.12l0.87-1.5l2.25,0.13l0.75,1.62l2.51-1.87l0.12-2.13l1-0.381l1.25-3.619l17.02-2.511l2.25,3.011l1.26-2.131l3.12-0.88
		l-0.52-1.109L223.03,547.03z"/>
	<path id="IE-LM" fill="#1E3250" stroke="#1E3250" stroke-width="0.5" d="M276.39,193.64l1.71,0.34l0,0l4.08,3.14l2.06,0.02
		l1.71-2.34l5.14,1.72l0,0l3.9,2.62l-2.04,2.56l7.9,6.96l3.45,6.88l3.41,2.52l3.95-0.24l-0.1,1.82l5.98,8.44l0,0l-6.24,11.04
		l-4.68-0.62l-1.54,2.31l-0.37,1.23l2.69,4.64l-1.45,2.71l0.39,2.63l2.87,0.02l1.4-1.11l2.15,2.27l4.49,0.54l5.48,4.75l1.78,2.27
		l-0.42,1.35l4.83,3.3l-0.85,1.17l3.28,3l1.28-0.02l0.47-1.91l1.9-1.77l1.25,1.63l3.59,0.54l2.12,2.26l0.53,2.28l3.16-0.4l2.92,4.5
		l2.88,1.11l0.41,2.74l1.26-0.67l1.1,0.93l-1.32,1.86l0.41,1.31l2.94,1.45l0.57-1.53l1.64,1.27l0.58,4.46l-0.83,2.02l1.97,2.12
		l-1.5,1.7l0.61,2.29l-2.54,3.78l0,0l-1.07,0.44l-3.25-1.29l-2.46,4.15l-2.5,0.45l0.01,2.451l-2.34,1.17l-2.26,4.13L342,313.68
		l-1.2-0.75l-1.1,2.59l-2.13,0.08l0.58,3.631l-2.1,6.069l-3.73-0.67l-1.94,1.73l-1.84-3.591l-0.88-0.039l-0.85,4.85l-1.03-0.75
		l0.78-0.87l-1.84-0.89l0.19-1.5l-3.31,0.729l-0.48-2.939l0,0l-1.13-2.41l-1.68,0.14l-2.51-3.63l-1.75,0.35l0.02-4.939l-1.66-2.61
		l-0.13-3.97l-1.44,0.55l-0.88-2.61l-1.73-0.34l-0.37,2.29l-3.83,2.65l-1.21-2.59l-1.38,0.55l-0.86-1.9l0.91-2.37l-1,0.26l-2.5-2.83
		l5.4-6.91l-1.25-0.65l-1.15-8.16l1.17-4.06l0.68,0.5l1.35-1.13l1.57-2.82l-0.96-1.33l0.23-5.02l-5.8-1.07l-4.69-3.12l-2.03,3.1l0,0
		l-2.08-3.65l-0.7,0.38l-1.35-1.95l-0.81,0.46l-1.32-0.97l-0.94-3.04l-3.07-1.15l-0.93,1.33l-2.5-0.04l-5.55-4.23l1.27-2.98
		L271,249.9l1.94-2.85l-1.67-17.85l-1.1-2.23l-3.93-1.62l-1.1-7.95l3.79-2.5l2.68-9.68l-5.9-1.58l0.29,1.88l-0.82,0.58l-2.31,0.26
		l-0.99-1.36l2.16-1.88l0.43-2.54l4.02-1.3l-1.45-3.08l0,0L276.39,193.64z"/>
	<path id="IE-LS" fill="#1E3250" stroke="#1E3250" stroke-width="0.5" d="M342.76,492.86l3.12-5.391l-0.99-0.71l0.42-3.72l1.59-3.69
		l4.75-2.38l-0.09-2.279l5.07-3.74l2.97-5.391l0.21-0.93l-3.21-1.34l0.14-1.64l-3.9-4.45l1.61-5.22l9.65-1.74l6.33-2.471l1.07-1.3
		l3.04,1.69l3.23,0.109l0.81-1.3l-0.42-2.27l2.77-1.32l1.55,1.03l1.37-1.36l2.19,1.11l3.17,4.109l2.08,3.5l-1.73,0.15l0.54,2.35
		l3.1,4.45l4.479-0.68l0.46-1.01l2.12,0.7l1.51-1.9l3.091-1.34l2.34-3.63l0.979,3.159l8.34-0.02l0,0l0.75,2l-1.02,2.27l1.91,1.16
		l1.46,4.04l1.8,1.2l1.3,5.85l-0.87,1.221l0.48,1.92l-1.32,1.51l1.33,1.68l-2.149,1.131l-2.431,6.569l3.53,3.771l4.53,1.14
		l-0.19,1.86l4.93-2.511l5.12,12.051l-0.26,7.58l0,0l0.95,6.13l-1.82,1.25l0.87,2.54l-1.57,2.31l-1.5,1.271l-8.5-0.15l-0.859,2.52
		l-1.96,0.641l0,0l-1.54-4.32l-1.82-0.649l-0.689-1.461l-2.851-0.27l-2.46-4.36l0.11-4.01l-0.95-1.17l-1.28,0.79l-0.81-2.1
		l-2.96-2.11l-3.141,3.15l-3.109-0.21l0.239,2.64l-1.899,3.04l-5.82-3.54l-1.86,1.08l-2.48,5.87l-0.31,3.16l-1.23,0.17l-0.19-2.79
		l-1.48-0.44l-1.91,2.19l-1.19,4.34l-3.33-1.45l-2.39,2.89l-3.25,0.601l-2.54-3.03l-1.91,0.45l-1.34-2.24l-0.92,0.1l-0.05,1.23
		l-2.7-1l-2.35-3.58l-4.14,3.75l-0.11,3.41l-4.19,0.1l-2.72,1.59l0,0l0,0l0,0l-2.33-9.039l-2.71-1.761l-1.82-3.71l1.69-1.279
		l-0.52-4.62l1.42-0.561l0.47-2.359l3.58-2.23l1.63-3.83l-4.74,0.101l-3.11-2.28L342.76,492.86z"/>
	<path id="IE-MH" fill="#1E3250" stroke="#1E3250" stroke-width="0.5" d="M455.88,305.26l2.17,0.91l0.99-0.65l1.95,2.57l2.72,0.22
		l0,0l4.25,3.931l3.67,0.83l2.8,3.529l1.23,2.86l-0.72,1.6l2.159,3.011l0.19,3.85l3.22,1.26l0.181,3.66l1.119-0.09l2.69,2.26
		l5.48-0.55l1.659,1.021l0.5,1.75l-3.83,4.939l2.431,3.33l3.38-0.34l-0.23-0.76l2.351-1.16l8.439,3.85l2.38-0.41l0.32-2.18
		l5.74-2.35l2.939,1.68l0,0l0.91,8.979l2.851,8.44l0,0l-1.91,0.95l-1.15-1.24l-2.14,0.61l-1.62,3.37l0.03,3.319l-4.24,2.41
		l-1.18,1.84l-3.29,0.221l0.149-1l-1.6-1.141l-3.49-1.1l0.22,2l-4.14,2.77l-1.22,4.5l1.33,0.53l1.6,3.02l4.91,2.15l-0.13,1.61
		l2.6,1.46l0.86,4.09l-1.8,2.64l-0.021,3.58l-4.09,1.68l-2.75-0.369l-0.97,4.529l-4.15,5.48l0,0l-3.189-0.09l-1.381,1.21l-6.55-4.28
		l-2.41,3.42l-9.06-1.43l-4.5-3.63l-7.04-3.42l-4.99,2.21l-2.55,4.02l-7.91-3.06l-1.18-2.48l-2.54-2.01l-0.37-2.09l-3.72,1.229
		l-1.9-1.88l-4.84,2.851l-3.27,5.18l-4.721,2.52l-1.01,3.16l0,0l-7.02-2.68l0.1-1.601l-5.66-3.8l0,0l-0.22-1.939l3.859-1.011
		l1.12-2.229l3.61,0.74l6.61-4.49l-0.46-5.05l2.8-1.061l2.31-4.3l0.521-4.29l-1.79-1.92l0.26-2.6l1.68-2.021l3.19,0.08l-0.92-1.689
		l1.81-3.57l-0.78-2.9l3.021-3.08l0.75-4.029l-2.04-0.61l-1.68-3.67l-1.511-0.311l-0.89,2.23l-1.77-0.74l-0.631,1.79l-2.64,0.84
		l-1.8,2.471l-4.51-4.551l-1.44-2.949l-1.81,2.01l-1.59-2.13l-5.36-1.351l-1.16-1.609l-1.06,0.39l-2.9-3.42l0.67-3.96l-3.77-2.79
		l-2.891-5.65l-3.2-2.359l-2.71-0.3l-0.41-1.73l0,0l3.98-2.57l2.69,2.74l1.26,3.33l6.979,1.87l0.19-2.67l2.16-1.8l2.18,0.649
		l3.17-2.18l2.391,2.32l1.92-0.12l0.899,3.08l7.29-0.08l5.04,2.12l0.32-3.03l1.26,1.46l2.83-3.33l1.74,1.91l1.649-0.75l-1.149-0.851
		l0.54-2.399l1.7,0.1l1.069-1.64l-4.49-5.36l-0.359-1.85l-1.19-0.2l-0.89-4.64l1.81,1.17l3.641-2.25l-1.101-3.3h1.58l4.76,3.51
		l4.21-0.83l0.641-0.79l-0.99-0.94l2.89-2.449l1.53,0.289l-0.71,1.33l2.5,1.04l1.26-4.97l0.44-0.75l1.26,1.021L455.88,305.26z"/>
	<path id="IE-MN" fill="#1E3250" stroke="#1E3250" stroke-width="0.5" d="M390.66,265.65l1.47-0.24l0.09-0.98l-1.35-2.68l-1.07,0.12
		l-1.14-1.57l3.47-4.57l2.03-0.76l1.33,0.96l-0.64,2.7l-1.74,1.55l1.74,1.65l-2.63,1.13l1.1,2.03l2.08-0.08l0.18-1.37l1.91-1.49
		l-0.37-1.93l1.17-2.82l1.979-1.87l-1.789-2.72l0.079-2.17l2.391-0.32l-0.561-1.07l-1.35,0.04l0.42-1.08l1.96-0.02l0.311-1.45
		l2.819-0.7l1.521-1.67l2.699,1.33l2.311-1.03l-0.07-3.03l-1.029-1.17l1.39-2.27l-2.021-3.51l-1.949,0.1l0.63-2.15l-4.3-2.26
		l1.47-3.15l1.93-0.16l0.39-2.37l-1.09-3.08l4.061,0.72l3.77-3.45l1.95-0.26l-0.76-2.62l2.85-2.28l3.73-6.33l3.029-1.8l2.69,1.52
		l0.36,1.25l2.04-0.44l2.159,1.5l0.74,1.66l3.42,1.92l-0.149,1.24l1.22-0.52l1.02,0.82l1.051,4.58l2.33,0.76l2.869,6.72l0.33,4.27
		l-0.949,0.72l0.17,1.55l-0.82-0.99l-0.79,0.4l0.27,1.15l2.73,3.03l1.21-0.38l1.25,1.1l1.37,7.01l1.76,0.7l-0.05,1.47l3.06,2.89
		l2.351,0.25l1.729,2.97l2.28,0.14l2.26-3.74l4.94,2.17l3.52,7.79l-2.479,5.96l-1.181-0.24l2.051,5.16l-1.88,0.42l0.42,2.98l-1,2.95
		l2,0.62l2.85,4.38l2.69-1.21l0,0l2.869,2.24l-0.59,0.89l2.101,1.88l1.229,3.01l-1.27,1.29l0.66,1.76l-1.311,1.51l0.7,0.85
		l-0.6,0.97l-2.351,0.37l-3.689-2.35l-1.12,1.54l-1.65,0.26l0.36,2l-2.3-0.16l1.17,2.37l-1.63-0.67l1.779,1.7l-1.29,1.39l2.88,2.27
		l-1.6,2.43l-2.85,1.34l-1.37-0.61l-1.32,2l0,0l-2.72-0.22l-1.95-2.57l-0.99,0.65l-2.17-0.91l0,0l-1.68-1.97l-6.061-0.75l-4.17-10.8
		l-3.14-4.66l-3.8-0.89l-1.8-3.8l-3.16-1.51l-1.801-3.81l-2.35-0.79l-1.17-2.62l-1.77-0.63l0.989-3.41l-3.6-0.62l-4.26,3.87
		l-1.25-2.04l-2.91-0.82l-3.78,2.62l-8.15-3.71l-1.13,0.81l-1.67-1.03l0.45,1.65l-2.17,0.04l-2.98-2.4l-3.38,0.04L390.66,265.65z"/>
	<path id="IE-MO" fill="#1E3250" stroke="#1E3250" stroke-width="0.5" d="M67.85,345.42l0.73,0.53l-1.21,0.87l-0.07,1.729
		l-5.11,1.101l1.32-3.971L67.85,345.42z M82.46,325.93l2.3,1.011l-0.75,1.659l-2.69,1.221L72,330.3l0.83-2.939l5.84-1.73l1.85-2.8
		L82.46,325.93z M82.57,314.05l2.01,0.69l0.09,1.93l-2.5-1.5L82.57,314.05z M93.58,289.91l1.63,2.49l-0.55,1.84l-1.56,0.55
		l0.57-1.44l-0.99-2.43l0.93,0.1l-0.42-1.62L93.58,289.91z M90.83,288.84l-0.09,3.07l-0.36-1.41l-2.46,1.09l-0.77-2.04l4.18-1.5
		L90.83,288.84z M82.51,284.67l3.97,4.99L83,290.71l0.97,1.66l-0.94,1.74l0.79,1.68l-0.84,2.55l-0.89,0.04l2.48,0.73l-1.17-1.21
		l1.71-1.4l-0.48-0.93l2.82,0.85l-0.69,4.23l-1.5,0.87l-0.08,0.81l1.92-0.08l-2.09,1.92l0.96,1.01l-2.81,1.13l1.67,0.38l0.63,2
		l-1.07,4.8l-2.05,0.04l-3.02-2.61l-1.54-1.72l1-1.28l-2.42-1.68l-0.41-1.58l-2.11,1.15l-2.06-0.47l0.37-7.28l0.9-1.01l-3.02-2.79
		l-5.47,2.24l-1.31-2.51l-3.18,1.5l-4.2-0.77l0.12,1.76l-5.59-3.58l-2.58,0.83l2.53-1.43l3.24,0.28l2.59-3.31l-0.09-3.47l2.03,1.56
		l2.85-0.26l1.7,2l3.65-0.38l0.48-1.8l4.23-3.07l2.26,0.5l1.69,2.22l1.5-0.99l3,0.65l1.55-3.37L82.51,284.67z M53.93,266l-3.58,2.16
		l3.14-3.67L53.93,266z M54.17,259.92l0.96,0.12l1.88,3.42l-1.73-0.44l-1.13,1.31L54.17,259.92z M177.58,247.71l0.75,1.41
		l-0.98-0.08l-1.54-2.59l-4.29-1.87l4.71,1.51L177.58,247.71z M78.05,228.17l1.97,0.86l-0.43,2.29l2.03,0.36l1.14,3.07l2.23,0.7
		l2.23-1.14l0.46,2.11l1.05,0.44l2.45-1.28l-0.45,2.75l-1.19,2.95l-2.47,1.1l1.18,1.1l-3.88,0.26l0.25,1.27l-1.57-0.44l-2.13-5.54
		l-0.98,0.06l2.45,5.36l-5.96-0.26l1.24,1.99l-2.58,0.18l2.34,2.37l-0.68,4.08l-2.61-2.07l-1.82,0.22l1.54,2.9l-0.65,1.73
		l-2.34-0.48l-1.19,1.53l-2.24,0.56l0.2,1.11l3.98,1.83l-2.25,1.19l1.05,3.1l-2.13-0.62l-0.99,2.4l3,0.99l0.66,2.02l-1.33,1.89
		l-2.26,0.44l-3.85-1.81l-0.77-2.34l1.26-0.5l-0.42-3.79l0.85-2.96l1.79-1.57l1.73-5.01l-1.05-4.18l1.7-2.11l2.16-0.14l0.93-3.15
		l-6.28-3.21l2.81-0.04l0.9,1.65h1.46l-1.12-2.23l-2.61-0.68l1.63-0.34l0.68-2.79l-0.63-1l3.88-1.77l0.24-1.28l2.36,0.48l0.7-2.07
		l1.59,0.42l-0.56-2.23L78.05,228.17z M103.15,221.04l0.77-0.28l0.52,1.58l1.89-0.66l2.18,2.3l2.06-0.22l4.26,2.08l1.53-0.74
		l1.34,1.48l2.37-2.21l0.69,0.64l2.09-0.9l2.13,1.08l4.2-0.1l0.14,1.6l1.14,0.28l2.3-1.24l-0.42,1.18l2.02,0.46l1.9-0.82l0.28-1.26
		l1.25,0.82l1.12-0.5l3.2,2.13l0.56-0.8l6.4,0.5l0.19,2.31l1.11,0.4l4.22-4.93l0.09-1.66l2.51,2.2l6.89,1.58l1.76,2.51l-0.61,5.04
		h1.05l0.01-1.51h1.76l1.53-1.75l1.04,2.43l-1.65,5.92l-4.29,2.45l-0.14,1.19l2.04-1.53l0.83,0.72l1.97-2.53l2.55-0.38l-0.35,3.43
		l-1.05,0.78l0.61-1.67l-1.95,1.57v2.57l6.84,2.47l-0.68,1.99l2.5,1.45l0.88,9.72l0.24-5.41l0,0l4.75,3.82l4.47-0.26l0.61-2.27
		l2.21,0.38l0.69-1.69l3.65,2.54l7.08,1.25l-1.19,0.99l0.35,1.05l3.13,2.9l-2.36,2.5l-2.66,0.66l0.52,2.22l-1.62,1.17l0.4,2.44
		l-5.11,3.21l-0.93,1.55l-0.14,4.97l4.99-0.08l1.04-1.33l2.9,4.3l2.16-0.02l4.64-2.56l-0.62,2.81l1.02,3.88l1.7-0.12l1.46,3.05
		l6.49,1.94l1.92-1.84l3.02-0.59l1.73-3.6l1.94,1.41l1.4-0.57l1.12-2.85l2.72-1.39l-0.38-3.53l3.93-1.8l2.23,2.62l5.26,2.65
		l-1.19,8.31l1.24,3.09l0,0l-1.92-0.67v1.23l-7.92-4.45l-2.32,2.3l0.83,2.49l1.43,0.38l-1.32,0.61l-0.77,5.14l5.79,3.89l-0.55,1.96
		l1.62,1.261l-1.52,1.22l0.38,1.58l-1.35,0.47l-3.18-1.91l-3.23,0.41l1.14,2.45l-0.37,2.09l-2.94,0.57l1.25,3.08l-1.27,1.239
		l0.72,1.641l-2.81,1.439l6.05,3.07l2.21,3.979l-1.53,1.301l0.12,2.97l-2.01,3.56l0.47,1.83l-2.25,0.29l0.21,2.101l-5.05,2.56
		l-0.38,1.79l-1.97,0.2l-1.84-1.12l-2.88,5.4l0,0l-3.2,2.89l-6.6,0.16l-0.14,1.88l-4.98-3.79l-1.45,1.45l-1.61,0.12l-0.88,1.77
		l0.73,0.57l-0.29,3.1l-1.32,1.351l0.75,2.689l-1.54,1.771l-0.75-1.141l-2.01,1.221l1.21,2.55l-4.55,1.08l2.02,5.72l-0.97,2.45
		l-6.72,4.27l-0.84,4.21l-1.89-0.2l-2.2,3.011l-2.71-1.04l-2.92,2.109l-6-1.43l0.05-3.42l-4.9-3.23l-1.43-5.699l-1.68-0.49
		l-0.07-1.98l-2.58,3.29l-2.82-0.859l0.48-3.721l-1.64-1.779l-6.86,1.689l-7.06,0.29l-4.01-3.27l-3.52-0.69l-1.62-5.77l-2.4,2.529
		l-3.67-1.31l-4.56,0.94l-2.18-2.33l-3.84,2.47l-9.09,0.43l-10.93-5.83l0,0l-0.73-1.43l0.7-0.73l-1.78-1.369l1.29-0.671l-4.11-0.819
		l-0.34-0.94l0.84-3.97l-1.5-3.85l2.9-8.101l-0.49-2.2l-1.1-0.67l0.43-1.989l9.66-1.32l4.63-2.3l1.28,0.06l0.63,1.36l3.11,0.279
		l9.1-2.72l0.38,1.021l1.98,0.1l-0.05-1.14l2.59,0.279l0.78,0.61l-1.21,0.79l4.71-0.45l2.37-3.07l2.25-1.079l-2.8-1.301l-0.79,0.37
		l1.04,0.75l-6.14-1.62l-0.92-0.93l1.88-0.26l-2.17-1.08l1.65-0.28l-0.46-4.06l4.09-0.63l-2.3-0.671l0.88-0.51l4.42-0.529
		l-2.55-1.16l0.4-0.69l-3.23-0.06l2.31-0.99l-0.65-1.03l1.13-0.59l-1.06-0.24l3.36-1.029l-2.72-1.601l-1.66,1.03l0.89-1.62
		l-2.48,1.9l-1.04-1.261l-2.1,0.931l0.89-1.42l-2.89,0.909l0.23,0.75l-1-0.85l0.98-0.91l-0.63-0.609l-1.44,1.779l-1.29-1.939
		l-4.81,0.97l-2.62-1.21l-0.23,1.5l-3.86-2.21l-0.72,0.55l0.83,1.03l-1.78,0.16l-2.08,3.26l-6.26,2.59l-4.34,0.71l-2.36-1.6
		l-2.38-0.141l0.2-1.26l1.49-0.12l-0.35-1.13l0.96-1.11l-0.68-4.56l1.73-0.93l1.71-3.22l-2.26-0.08l0.48-1.98l0.58,0.57l0.56-0.73
		l-0.16-2.53l1.47,1.4l1.15-1.4l5.25-0.55l1.08,2.49l1.71,0.49l1.56-0.91l-0.27,4.75l-1.39-0.65l1.35,3.32l1.25,0.32l0.42-7.35
		l-0.72,0.12l0.22-2l-1.56-3.66l-0.35,2.41L97.81,295l-1.26,1.19l-1.18-0.89l0.43-5.42l2.58,1.13l-3.22-4.87l0.17,2.2l-3.06-0.99
		l-0.33-2.95l-1.53-0.63l-1.31-2.28l-0.19-1.82l1.91-1.31l-0.48-3.83l-3.84,1.98l-2.38-1.01l-2.67,0.85l0.56-3.97l-2.61-4.15
		l5.69-1.45l1.19-2.08l1.24,1.41V265l2.77,0.52l-2.06-1.29L88,262.46l-1.33-0.52l-0.57,1.81l-3.14-3.32l0.22-2.11l3.24,1.31
		l0.8-1.35l-2.48-1.25l-2.65-3.3l-2.13-0.76l1.49-0.44l2.02,2.11l2.2-1.59l0.51-2.45l1.28,1.55l0.06-2.09l-3.43-0.76l-0.39,0.84
		l-4-3.76l-0.58-1.91l7.47,2.23l6.1-1.15l-0.28-1.65l-1.83-0.44l1.03-0.9l4.33,2.11l-3.76-4.4l1.32-5.62l5.84-2.23l1.54,0.96
		l0.37-2.97l2.3,1.91l1.73-0.14l-2.62-2.49l-2.79,1.22l-3.04-1.93L96.18,230l0.1-1.48l-2.02,0.02l0.95-0.92l-0.62-1.9l0.68-1.2
		l2.13-0.02l3.32-3.35l1.77,0.42l0.5-1.34L103.15,221.04z"/>
	<path id="IE-OY" fill="#1E3250" stroke="#1E3250" stroke-width="0.5" d="M405.92,402.51l5.66,3.8l-0.1,1.601l7.02,2.68l0,0
		l-0.48,2.92l3.16,2.62l1.95-0.63l2.33,3.04l-0.14,2.11l4.09,1.83l1.43,2.439l-4,2.271l2.33,2.09l-4.78,1.359l1.561,4.86l-3.72,1.93
		l0.109,1.63l-2.56,0.2l0.02,0.721l2.92,1.239l1.65-0.479l2.37,1.71l-3,2.09l0.189,3.19l-7.34,0.739l-5.78-0.93l-2.079,1.24
		l4.819,0.87l2.41,2.47l2.59-0.76l1.95,1.069l-0.91,3.45l-1.47-1.66L416.52,454l0,0l-8.34,0.02l-0.979-3.159l-2.34,3.63l-3.091,1.34
		l-1.51,1.9l-2.12-0.7l-0.46,1.01l-4.479,0.68l-3.1-4.45l-0.54-2.35l1.73-0.15l-2.08-3.5l-3.17-4.109l-2.19-1.11l-1.37,1.36
		l-1.55-1.03l-2.77,1.32l0.42,2.27l-0.81,1.3l-3.23-0.109l-3.04-1.69l-1.07,1.3l-6.33,2.471l-9.65,1.74l-1.61,5.22l3.9,4.45
		l-0.14,1.64l3.21,1.34l-0.21,0.93l-2.97,5.391l-5.07,3.74l0.09,2.279l-4.75,2.38l-1.59,3.69l-0.42,3.72l0.99,0.71l-3.12,5.391l0,0
		l0,0l0,0l0,0l0,0l-5.07-2.511l-1.67,0.16l-1.6-1.899l-2.81,1.199l0.1,1.431l-2.3,2.16l-2.16-0.36l-0.42,2.2l2.45,2.069l-2.56,2.271
		l0.99,1.24l-4.03,1.989l1.19,1.58l-1.59,1l-2.33-0.64l0.63,2.49l-1.84,1.35l-1.11-2.16l-2.46-1.08l1.52,2.341l0.24,2.729
		l-2.25,1.89l-0.46,1.74l-2.18-1.43l-1.11-2.021l1.19-2.529l-6.2-1.83l-0.88-2.33l0.79-2.38l-1.5-2.83l1.08-2.3l3.61,1.989
		l2.04-0.159l2.31-3.671l-3.69-7.92l1.71-1.47l4.95,0.54l-1.49-3.21l1-4.23l-0.81-1.84l2.95-0.66l1.82-11.22l-6.8-5.85l-12.09-6.21
		l0,0l2.63-4.41l2.63-1.3l5.44,0.229l2.47-4l-0.57-4.02l-3.82-3.16l-2.31-0.34l-0.25-2.03l-2.96-1.85l0,0l1.06-2.92l1.63-1.36
		l0.67-5.04l3.25-0.24l1.66-2.689l4.16-0.801l1.13-3.1l1.8-1.4l0,0l8.76,4.15l3.23-2.86l0.64,1.07l2.36-0.43l2.61,1.189l5.85-2.34
		l1.72-1.37l-1.01-0.399l0.65-2.351l1.4-0.31l0.5-2.03l3.31-1.87l0.39-1.29l0.82,0.761l3.51-2.32l2.04,1.09l0.28,2.19l3.35,0.92
		l-0.54,1.649l1.65,2.521l0.16,4.35l3.63,5.11l1.1,0.27l-1.01-1.229l0.62-2.92l3.9,0.739l-0.15,2.42l2.78-0.43l1.91,2.51l3.48-3.27
		l3.07,0.95l3.58-1.931l3.11-4.52l1.78-0.59l5.83-6.4l6.66-1.3l1.05-2.7L405.92,402.51z"/>
	<path id="IE-RN" fill="#1E3250" stroke="#1E3250" stroke-width="0.5" d="M292.53,267.31l2.03-3.1l4.69,3.12l5.8,1.07l-0.23,5.03
		l0.95,1.32l-1.57,2.82l-1.36,1.13l-0.67-0.49l-1.17,4.06l1.16,8.16l1.24,0.65l-5.4,6.91l2.5,2.83l1-0.26l-0.91,2.37l0.87,1.9
		l1.37-0.55l1.22,2.581l3.82-2.64l0.38-2.3l1.72,0.34l0.88,2.61l1.43-0.56l0.13,3.98l1.66,2.6l-0.03,4.94l1.75-0.36l2.51,3.63
		l1.68-0.13l1.13,2.4l0,0l1.1,8.5l3.48,2.62l-1.02,4.09l-3.48,2.35l-0.19,2.36l-3.18-0.73l-0.61,5.271l-1.51,0.04l-2.62,2.24
		l0.1,3.97l-4.25,4.229l-1.65,3.2l-0.04,6.73l6.42,11.33l1.38,5.439l0,0l1.59,7.57l-1.25,6.67l1.17,3.4l-1.47,2.09l3.09,1.819
		l2.17,3.69l1.68,4.46l-1.48,1.35l0,0l-1.8,1.4l-1.13,3.1l-4.16,0.801l-1.66,2.689l-3.25,0.24l-0.67,5.04l-1.63,1.36l-1.06,2.92l0,0
		l-9.14-1.521l-1.34,0.51l-1.2-1.58l-2.68-0.399l-1.93-3.78l0.68-5.28l-1.31-2.479l-1.57,0.61l-2.07-0.98l0.14-1.4l-1.64-1.97
		l2.01-5.64l-1.67-3.24l-2-0.16l-0.72-3.67l2.28-1.21l0.62-1.54l-5.62-5.16l1.76-1.59l-1.16-1.54l0.78-1.39l-2.09-2.76l0.35-1.78
		l1.47-1.061l-1.79-1.369l0.84-1.49l-2.56-4.41l1.14-1.03l1.25,0.78l0.26-0.84l-2.68-2.3l-3.71,0.06l0.04-1.82l-1.66-2.29
		l-3.18-0.63l0.21-2.85l-0.99-1.9l-2.55,0.2l1.52-1.85l0,0l1.6-0.78l0,0l1.68-0.26l0.49-2.41l-7.35-3.811l-3.68-5.229l2.02-0.55
		l-3.1-2.62l-5.84,0.51l-1.56-1.08l-4.78-0.02l-1.2,1.689l-5.96,0.95l-1.07,1.85l0.26,1.71l-2.39,2l-6.93,2.101l-0.71-1.101
		l-1.58,1.53l-4.19-0.37l-2.35,1.42l-2.28-2.029l0,0l2.88-5.4l1.84,1.12l1.97-0.2l0.39-1.79l5.05-2.55l-0.21-2.11l2.25-0.29
		l-0.47-1.83l2.01-3.56l-0.12-2.98l1.53-1.3l-2.2-3.97l-6.06-3.08l2.81-1.439l-0.72-1.631l1.27-1.25l-1.25-3.069l2.94-0.58
		l0.38-2.09l-1.15-2.45l3.23-0.41l3.19,1.91l1.35-0.47l-0.38-1.58l1.51-1.221l-1.62-1.27l0.55-1.95l-5.79-3.89l0.77-5.14l1.32-0.62
		l-1.43-0.37l-0.83-2.49l2.32-2.3l7.92,4.45v-1.22l1.93,0.67l0,0l5.37-0.6l2.06,2.83l0.13,3.21l4.65,1.34l1.19,1.3l2.02-0.06
		l0.15-1.95l1.52-0.87l11.61,0.31l-1.45-4.46l-2.82-0.04l-5.68-2.83l4.79-1.17l-0.63-3.74l-1.66-1.56l3.94-1.77l2.74,1.15l3.34-1.07
		l2.14-7.7l1.72,1.07l2.23-2.98l2.72,2.82l0.1-3.49l2.53-1.85l-0.29-3.31l4.9-1.11l2.43-2.78L292.53,267.31z"/>
	<path id="IE-SO" fill="#1E3250" stroke="#1E3250" stroke-width="0.5" d="M244.24,229.38l-1.02,2.23l-0.94-0.02l0.1-3.15
		L244.24,229.38z M258.99,196.51l1.2,2l6.86-2.3l0,0l1.45,3.08l-4.02,1.3l-0.43,2.54l-2.16,1.88l0.99,1.36l2.31-0.26l0.82-0.58
		l-0.29-1.88l5.9,1.58l-2.68,9.68l-3.79,2.5l1.1,7.95l3.93,1.62l1.1,2.23l1.67,17.85L271,249.9l3.56,1.55l-1.27,2.98l5.55,4.23
		l2.5,0.04l0.93-1.33l3.07,1.15l0.94,3.04l1.32,0.97l0.81-0.46l1.35,1.95l0.7-0.38l2.08,3.65l0,0l0.75,1.39l-2.43,2.78l-4.9,1.11
		l0.29,3.31l-2.53,1.84l-0.1,3.49l-2.72-2.81l-2.23,2.97l-1.73-1.07l-2.13,7.71l-3.34,1.07l-2.74-1.15l-3.94,1.76l1.66,1.56
		l0.63,3.74l-4.78,1.17l5.68,2.83l2.81,0.04l1.46,4.47l-11.62-0.32l-1.52,0.87l-0.15,1.96l-2.02,0.061l-1.19-1.3l-4.65-1.34
		l-0.13-3.2l-2.05-2.83l-5.38,0.59l0,0l-1.24-3.09l1.19-8.31l-5.26-2.65l-2.23-2.62l-3.93,1.8l0.38,3.53l-2.72,1.39l-1.12,2.85
		l-1.4,0.57l-1.94-1.41l-1.73,3.6l-3.02,0.59l-1.92,1.84l-6.49-1.94l-1.46-3.05l-1.7,0.12l-1.02-3.88l0.62-2.81l-4.64,2.56
		l-2.16,0.02l-2.9-4.3l-1.04,1.33l-4.99,0.08l0.14-4.97l0.93-1.55l5.11-3.21l-0.4-2.44l1.62-1.17l-0.52-2.22l2.66-0.66l2.36-2.5
		l-3.13-2.9l-0.35-1.05l1.19-0.99l-7.08-1.25l-3.65-2.54l-0.69,1.69l-2.21-0.38l-0.61,2.27l-4.47,0.26l-4.75-3.82l0,0l-0.19-3.12
		l1.52-0.58l-0.43-3.08l2.11-1.43l-3.03-0.52l4.64-1.71l-0.22-2.11l4.9-9.58l-0.64-1.42l0.93-2.79l14,0.3l2.83,1.54l2.09,2.61
		l3.24,1.99l1-0.66l3.42,2.51l3.65-1.61l3.73-3.73l0.93,0.38l-0.11,1.79l3.14,1.06l4.96-1.91l2.36,0.08l4.41,4.86l0.25,2.17
		l2.3,1.27l0.36,1.53l1.47-0.02l0.89,3.05l1.05-0.16l0.2-1.73l7.75-0.1l-0.88-0.26l0.38-0.8l-2.29,0.16l-0.21-1.19l-1.12,1.39
		l-0.4-1.59l-3.2-0.8l0.021-1.47l-3.62-3.94l-2.52,1l2.08-4.03l-0.55-1.71l2.58,0.1l0.26,1.24l2.25,0.38l2.65-1l3.06,0.66l1.59-1.18
		l1.95,1.02l1.19-0.9l-5.26-3.95l-5.91-0.68v-6.05l2.25,3.13l4.16,1.36l1.82-1.02l-0.63-1.62l0.79-0.42l-3.74-0.62l-1.24,0.8
		l-0.57-0.9l1.13-0.82l-6.22-1.24l-3.02,1.72l-2.82,0.26l0.08,2.34l-1.82-0.82l0.91-2.3l-3.37-2.34l1.15-0.92l-1.34-0.56l1.07-1.62
		l3.36-1.3l2.18,0.36l0.88-2.18l5.47-2.46l0.16-3.64l1.4,0.9l2.27-0.68l1.19-1.24l-0.41-0.98l2.52-0.96l-2.88,3.3l-3.46,1l1.65,1.84
		l4.05-3.74l1.85-0.3l3.38-4.7l-0.09-2.04l-1.81-1l2.27-1.62l-0.35-1.66l1.79-0.7L258.99,196.51z"/>
	<path id="IE-TA" fill="#1E3250" stroke="#1E3250" stroke-width="0.5" d="M337.69,490.35l-1.67,0.16l-1.6-1.899l-2.81,1.199
		l0.1,1.431l-2.3,2.16l-2.16-0.36l-0.42,2.2l2.45,2.069l-2.56,2.271l0.99,1.24l-4.03,1.989l1.19,1.58l-1.59,1l-2.33-0.64l0.63,2.49
		l-1.84,1.35l-1.11-2.16l-2.46-1.08l1.52,2.341l0.24,2.729l-2.25,1.89l-0.46,1.74l-2.18-1.43l-1.11-2.021l1.19-2.529l-6.2-1.83
		l-0.88-2.33l0.79-2.38l-1.5-2.83l1.08-2.3l3.61,1.989l2.04-0.159l2.31-3.671l-3.69-7.92l1.71-1.47l4.95,0.54l-1.49-3.21l1-4.23
		l-0.81-1.84l2.95-0.66l1.82-11.22l-6.8-5.85l-12.09-6.21l0,0l-5.4,1.569l-3.68,4.7l-1.03,3.76l-5.57,8.78l-5.38,2.34l-1.57,7.301
		l-2.58,2.05l-1.87,4.71l0,0l0.67,1.47l2.7,0.74l0.31,1.06L272,501.15l-6.05-0.351l-1.62,0.71l-1.63,7.471l-4.16,5.05l1.61,10.529
		l-4.47,6.681l0,0l1.26,3.63l0.69,8.01l4.11,3.71l2.74-2.5l2.31,1.75l2.71,0.311l7.44-3.04l5.15,2.71l-0.02,2.34l1.98,0.399
		l0.6,1.25l1.61-1.779l3.29,0.479l-0.84,4.79l-2.02,1.8l-0.74,4.841l0.94,0.439l-0.18,1.83l-2.71,2.94l1.37,1.949l-1.14,1.801
		l0.99,1.279l-0.76,7.561l-2.8,1.13l-0.54-1.82l-1.02,0.59l-1.85-0.92l-1.45,2.3l-2.75,0.761l0.69,2.489l-1.64,2.311l-0.75-0.67
		l0.91-2.41l-1.14-0.57l0.14-2.39l-2.69,0.21l-0.65,2.62l-3.26,2.08l0.19,2.6l-1.58,1.38l1.82,6.15l2.81-2.43l1.65,2.1l3.81-0.9
		l0.88,3.74l2.76,0.771l0.39,3.029l5.82-1.6l0.51,4.29l1.68,3.64l1.28-0.689l1.22,1.13l3.27-0.44l-0.24,4.101l-1.52,2.6l2.1,2.29
		l0.71,3.41l-3.28,2.39l0,0l0.82,2.46l1.61-0.21l-0.71,1.96l1.26,4.62l6.56,2.22l-0.16,4.601l0,0l9.54-0.61l2.57,1.141l1.4-1.2
		l-0.11-6.04l1.73,0.93l0.29-0.97l3.22-0.59l3.55,3.439l9.39,0.44l2.46,2.79l1.55-1.771l6.06,0.63l-0.87-7.29l-1.28-3.079
		l-2.22-1.351l-1.41-4.11l1.26-8.319l4.19,0.189l3.27-1.51l1.57,1.41l5.54-3.22l7.68-0.801l20.04,3.261l3.17,2.439l2.99-1.7l0,0
		l-3-4.189l1.51-11.12l-3.15-2.08l-1.6-3.22l-4.91-4.15l5.21-7.14l-1.29-1.4l-2.07,1.28l0.18-1.45l-1.01-0.729l0.4-11.101
		l-2.94-2.989l0.39-4.29l-5.22-7.021l-1.94-4.74l0.6-1.34l-2.11-3.07l-6.73-3.42l-2.29-2.56l0,0l-2.41,0.16l0,0l-0.3-2.17
		l-2.11-2.181l-0.65-5.08l0,0l-2.33-9.039l-2.71-1.761l-1.82-3.71l1.69-1.279l-0.52-4.62l1.42-0.561l0.47-2.359l3.58-2.23l1.63-3.83
		l-4.74,0.101l-3.11-2.28l-0.26-2.34L337.69,490.35z"/>
	<path id="IE-WD" fill="#1E3250" stroke="#1E3250" stroke-width="0.5" d="M299.32,636.66l9.54-0.61l2.57,1.141l1.4-1.2l-0.11-6.04
		l1.73,0.93l0.29-0.97l3.22-0.59l3.55,3.439l9.39,0.44l2.46,2.79l1.55-1.771l6.06,0.63l-0.87-7.29l-1.28-3.079l-2.22-1.351
		l-1.41-4.11l1.26-8.319l4.19,0.189l3.27-1.51l1.57,1.41l5.54-3.22l7.68-0.801l20.04,3.261l3.17,2.439l2.99-1.7l0,0l5.69,2.4
		l2.19,2.63l0.48,2.45l1.58,1.13l2.41,5.65l2.93,1.12l2.49,3.55l1.79-0.74l5.24-6.01l3.37,2l3.39,0.609l1.28,2.49l5.819-0.91
		l2.271-2.72l2.65-0.8l0,0l1.6,1.03l-0.64,3.02l2.27,2.22l0,0l-0.06,6.46l-1.49,3.57l1.38,1.98l2.43,0.05l-2.35,1.22l-3.351,5.82
		l-4,1.67l-2.68-1.48l-5.859,2.351l2.479-4.8l2.48-1.4l-1.46,0.02l0.35-1.159l-1.061,0.97l-2.46-1.65l-1.939,0.05l0.77,2.79
		l2.801,0.761l-6.78-1.591l-2.54,4.28l-1.68,0.46l-3.931,0.44l-8.51-1.771l-1.71,1.65l-1.6-1.1l-4.9-0.19l-3.73,2.01l-5.59,0.17
		l-1.82,1.42l-0.3-0.68l-3.75,3.81l-2.74-0.38l-2.79,1.44l-1.5,3.9l-4.52-3.73l-3.7,2.96l-1.29-0.21l0.69,3.1l-2.12,0.511
		l0.69,0.739l4.06-0.619l-0.61-3.881l0.86,4.29l1.75,1.801l6.13-0.62l-4.47,3.72l-1.58,8.42l-6.21,2.89l-6.44,0.62l-3,3.78l1.5,1.36
		l-0.31,1.17l-4.77,0.13l-2.59-2.15l-5.03,2.51l-1.31-0.449l-0.35-2.36l-0.94-0.25l0,0l-1.6-4.74l-2.29,0.95l-5.27-0.4l-1.4-6.449
		l-3.94-3.23l0.48-1.979l-3.12,0.18l-4.3-3.34l0.83-4.021L308,656l-1.29-0.45l-0.53-1.52l-2.61-0.59l-1.75-2.351l0.58-1.08
		l1.44,2.26l-0.14-3.449l-3.07,1.31l-0.68-1.649l-1.51-0.381l-5.92,0.811l1.07-4.3l2.9-0.61l1.28-5.56l-0.91-0.551L299.32,636.66z"
		/>
	<path id="IE-WH" fill="#1E3250" stroke="#1E3250" stroke-width="0.5" d="M388.19,328.75l0.41,1.73l2.71,0.3l3.2,2.359l2.891,5.65
		l3.77,2.79l-0.67,3.96l2.9,3.42l1.06-0.39l1.16,1.609l5.36,1.351l1.59,2.13l1.81-2.01l1.44,2.949l4.51,4.551l1.8-2.471l2.64-0.84
		l0.631-1.79l1.77,0.74l0.89-2.23l1.511,0.311l1.68,3.67l2.04,0.61l-0.75,4.029l-3.021,3.08l0.78,2.9l-1.81,3.57l0.92,1.689
		l-3.19-0.08l-1.68,2.021l-0.26,2.6l1.79,1.92l-0.521,4.29l-2.31,4.3l-2.8,1.061l0.46,5.05l-6.61,4.49l-3.61-0.74l-1.12,2.229
		l-3.859,1.011l0.22,1.939l0,0l-2.36,0.58l-1.05,2.7l-6.66,1.3l-5.83,6.4l-1.78,0.59l-3.11,4.52l-3.58,1.931l-3.07-0.95l-3.48,3.27
		l-1.91-2.51l-2.78,0.43l0.15-2.42l-3.9-0.739l-0.62,2.92l1.01,1.229l-1.1-0.27l-3.63-5.11l-0.16-4.35l-1.65-2.521l0.54-1.649
		l-3.35-0.92l-0.28-2.19l-2.04-1.09l-3.51,2.32l-0.82-0.761l-0.39,1.29l-3.31,1.87l-0.5,2.03l-1.4,0.31l-0.65,2.351l1.01,0.399
		l-1.72,1.37l-5.85,2.34l-2.61-1.189l-2.36,0.43l-0.64-1.07l-3.23,2.86l-8.76-4.15l0,0l1.48-1.35l-1.68-4.46l-2.17-3.69l-3.09-1.819
		l1.47-2.09l-1.17-3.4l1.25-6.67l-1.59-7.57l0,0l2.99-0.779l3.08-3.45l6.77-1.09l2.7,1.819l1.86-0.77l2.46,1.34l5.08,0.62l1.6,1.37
		l2.34,0.14l1.71-2.08l3.57,1.55l1.51-0.819l0.15-4.92l3.1-3.511l0.74-2.64l3.1-1.16l-0.23-2.82l2.06-0.909l2.91,0.399l-1.46-4.83
		l-4.8-2.12l0.43-1.489l1.75-0.08l3.48,2.06L361,356.48l0.72-2.471l2.08,0.33l0.86-1.12l1.73-0.13l-0.58-1.97l0.72-2.57l1.97,0.05
		l-0.53-1.75l2.45,1.54l2.47-3.01l1.32-0.12l0.41-2.689l3.17-1.011l1.95,1.95l1.38-1.97l2.08-0.15l0.99-5.71l-0.83-1.62l-2.86-0.76
		l0,0L388.19,328.75z"/>
	<path id="IE-WX" fill="#1E3250" stroke="#1E3250" stroke-width="0.5" d="M473.25,540.19l1.74,0.52l0.76,1.61l1.96-0.65l1.26,4.45
		l0.96-0.79l4.181,0.02l2.569-1.96l0.44,0.67l2.58-4.319l4.67-3.92l0.16-3.88l1.8-0.19l0.359-4.1l1.811-1.91l1.01,0.35l2.95-1.81
		l2.72,1.02l0.891-1.229l1.71-0.13l2.79,2.77l4.739-2.21l1.49,3.08l1.61-0.23l0.729,1.15l0.91-0.88l1.9,1.62l3.2,0.46l-0.82,2.27
		l0.93,1.021l-1.74,0.37l5.11,2.189l0,0l-2.13,3.9l-3.271,3.01l-3.829,8.5l-1.271,0.88l0.25,5.33l2.04,3.95l-0.12,2.82l1.8,5.229
		l-2.3,5.49l-2.08,1.76l-10.28,17.061l-3.5,4.01l-1.619,5.63l1.18,6.8l-2.51,0.48l0.439-0.97l-1.35-1.221l-5.95-0.149l-3.16,2.88
		l1.83,2.649l0.06,3.79l3.801,1.62l0.72,2.26l0.899-0.21l0.211-2.819l1.22-1.37l-0.351,4.79l2.181,5.399l1.42,0.761l2.89-0.551
		l2.25,2.681l-3.33,5.189l-0.93,2.71l0.59,1.99l-1.82,2.92l-6.529-2.47l-8.98-0.99l-11.64,4.101l-1.66-2.96l-4.32-3.091l-7.239-2.58
		l2.619-0.06l6.381,2.54l-1.98-1.18l-0.36-2.58l-0.14,1.77l-6.47-0.95l-9.311,2.561l-2.37-2.53l1.17-0.99l0.2,2.15l0.761-0.36
		l0.439-2.79l3.75-3.689l-0.689-2.83l-1.95,3.46l-3.101-0.17l0.87,1.04l-2.729,2.24l-1.12,0.359l-0.891-1.52l0.721,2.529l-3,2.851
		l3.58-1.601l0.68,0.841l0.3-0.82l0.99,0.38l-3.46,4.1l1.899-0.13l-1.369,1.82l0.83,1.521l-2.23,0.02l-4.01,2.3l-2.59,2.84
		l-0.78,3.03l-2.311,1.55l-0.5-1.63l3.96-5.57v-2.579l-1.54-3.25l0.96-1.561l-2.17-3.42l-1.739-0.57l-1.841-4.14l-2.01,0.13l0,0
		l-2.27-2.22l0.64-3.021l-1.6-1.029l0,0l-2.12-3.88l3.31-4.99l-0.66-7.431l0.79-1.39l2.42-0.08l0.12-2.13l2.73-4.56l-0.101-1.811
		l-2.229-1.79l1.45-0.689l2.399,1.029l1.29-1.47l-1.22-2.84l1.22-3.88l0,0l2.57,0.02l3.561-2.81l3.64-7.61l-0.44-2.35l2.57-2.33
		l1.189-4.021l1.82-0.25l1.08-2.76l0.5-8.22l4.48-3.74l7.17,0.79l2.67-4.6l-0.47-1.07l-1.98,0.65l0.2-2.92l1.24-1.36l1.909-0.29
		L473.25,540.19z"/>
	<path id="IE-WW" fill="#1E3250" stroke="#1E3250" stroke-width="0.5" d="M489.47,439.28l1.32,1.47l1.27-0.87l3.75,0.12l2.101,3.92
		l3.47-0.93l-0.13,4.43l4.54,2.74l2.63-3.17l0.24-5.13l0.95-0.7l7,4.34l3.649-1.58l0.271-1.24l2.979-0.58l2.311,3.16l3.06,0.84
		l3.99-2.449l0,0l2.99,4.1l0.609,6.37l3.82,8.13l0.74,8.95l-1.62,7.26l0.13,7.41l0.95,1.95l2.25,1.989l1.26-0.02l0.92,1.76
		l-1.689,2.38l-0.78,4.92l-1.9,1.891l-0.2,3.3l-2.06,2.88l-0.73,3.54l0.7,1.58l-4.91,3.13l-4.479,7.89l-0.88,3.75l0.1,3.471
		l0.92,0.899l-1.08,2.88l0.7,1.48l0,0l-5.11-2.19l1.74-0.359l-0.939-1.021l0.819-2.27l-3.199-0.46l-1.9-1.62l-0.91,0.89l-0.729-1.16
		l-1.61,0.23l-1.5-3.08l-4.73,2.22l-2.79-2.77l-1.72,0.13l-0.88,1.229l-2.72-1.02l-2.95,1.81l-1.02-0.35l-1.801,1.91l-0.37,4.1
		l-1.79,0.19l-0.17,3.88l-4.659,3.92l-2.58,4.32l-0.44-0.67l-2.57,1.96l-4.18-0.021l-0.95,0.79l-1.26-4.46l-1.96,0.66l-0.76-1.62
		l-1.74-0.52l0,0l-4.58-6.551l1-1.46l-1.189-2.729l-2.761-2.521l-2.069,1.29l-1.471-0.77l1.11-5.16l3.79-2.79l-0.42-2.08l1.03-0.91
		l4.229,2.601l1.17,2.62l1.38-0.36l1.7,1.11l2.08,0.229l1.21-1.63l-0.45-0.73l2.01-1.02l2.79,0.229l-0.51-8.899l2.24-0.49l0.08-2.25
		l-3.061-1.99l-1.76,2.721l-2.09-1.12l-2.19,0.41l-0.689-3.421l-5.28-1.229l-1.08,1.31l-1.739-2.159l-2.891,0.869l-3.04-2.659
		l-3.01,0.479l0,0l-0.06-5.37l-6.36-8.02l0.39-3.01l2.5-1.801l-1.17-2.069l2.391-0.931l2.26-2.979l0.64-4.94l7.9-3.439l0.43-1.09
		l3.62-0.761l0.52-2.279l1.78,0.5l4.18-6.07l0.15-3.24l3.87-3.18l-2.16-1.4l0.2-1.67l2.12-1.38l2.06,0.51l2.55-3.56l-1.08-1.8
		L489.47,439.28z"/>
</g>
</svg>
