<?xml version="1.0" encoding="utf-8"?>
<!-- Generator: Adobe Illustrator 15.0.0, SVG Export Plug-In . SVG Version: 6.00 Build 0)  -->
<!DOCTYPE svg PUBLIC "-//W3C//DTD SVG 1.1//EN" "http://www.w3.org/Graphics/SVG/1.1/DTD/svg11.dtd">
<svg version="1.1" id="Layer_1" xmlns:amcharts="http://amcharts.com/ammap"
	 xmlns="http://www.w3.org/2000/svg" xmlns:xlink="http://www.w3.org/1999/xlink" x="0px" y="0px" width="326.5px" height="820.5px"
	 viewBox="0 0 326.5 820.5" enable-background="new 0 0 326.5 820.5" xml:space="preserve">
<defs>
	
	
		<amcharts:ammap  projection="mercator" leftLongitude="34.228663" topLatitude="33.434207" bottomLatitude="29.496687" rightLongitude="35.935383">
		</amcharts:ammap>
</defs>
<g>
	<path id="IL-GH" fill="#1E3250" stroke="#1E3250" stroke-width="0.5" d="M290.34,111.58l-5.65,11.01l-2.8,3l-4.23,7.59l-5.38,6.25
		l-0.16-0.68l-1.09-0.62l-3.76,1.55l-1.79,0.22l-0.86,0.73l-1.37,4.29l-3.93,0.54l-5.22,4.45l-2.94,1.32l-4.27,0.3l-2.06,1.33l0,0
		l-0.58-1.82l-4.55-2.38l3.32-3.72l1.93-4.04l0.84-11l1.54-7.69l-0.47-3.25l-2.99-6.33l-2.24-2.87l-1.29,0.56l-1.15-1.31l1.4-5.02
		l0.76-10.48l-0.29-4.729l-1.99-3.74l-0.06-0.96l2.83-2.83l2.59-4.34l1.85-0.56l0.5,0.58l0.53-9.8l3.21-9.35l-1.13-7.68l0.12-4.47
		l2.32-6.63l-1.15-1.11l-2.17-0.29l-4.58,1.67l-1.28-0.31l-1.44-1.35l0,0l1.46-2.69l10.27-5.51l5.77-7.1l1.07-0.42l4.33,0.37
		l2.62-0.45l3.46-1.44l4.21-3.99l1.34-6.85l1.48-2.36L289.33,0l0.89,0.69l0.24,1.47l-0.62,2.62l-1.8,2.979l-3.43,3.91l-1.47,3.82
		l-0.53,3.71l0.83,8.33l-0.26,1.4l-1.98,3.38l4.94,5.27l1.73,5.16l-0.12,4.04l-0.65,1.67l-2.09,2.78l0.33,2.22l5.1,1.37l3.64,5.26
		l-0.41,5.37l-2.76,2.44l-0.32,0.85l0.39,1.12l1.95,2.21l-0.05,1.38l-2.86,0.78l-3.43-0.91l-1.14,1.66l0.87,3.58L285.81,85l0.9,2.93
		l1.48,13.61l3.59,5.59l0.01,1.13L290.34,111.58z"/>
	<path id="IL-Z" fill="#1E3250" stroke="#1E3250" stroke-width="0.5" d="M209.45,209.32l-1.14-1.01l0.05-1.03l-1.22-1.58l-1-2.94
		l0.21-4.06l-0.54-4.36l-2.8-4.74l-2.79-2.08l-4.77-0.42l-10.44,1.54l-4.08-1.7l-2.64-1.94l-3.08-3.19l-2.38-1.3l-2.59,0.71l0,0
		l-0.96,1.09l0,0l-1.34-1.99l-2.58-1.19l-1.3-2.43l-1.1-0.73l-1,0.39l-1.25,2.04l-2.39,1.35l-0.67,2.1l-1.11,0.34l-1.86,2.71
		l-1.53,0.39l-2.83-0.9l-3.4-0.23l-1.05-1.75h-1.73l-0.52-1.35l-1.58-0.74l-0.34-1.08l0.62-3.1l-1.38-0.91l-0.43-0.96l-1.63-0.57
		l-0.29-2.77l-1.49-1.3l-0.14-0.79l1.06-0.79l3.44,0.68l1.06-0.23l-0.24-1.3l-2.59-0.68l-0.57-0.79l0.09-2.04l1.15-1.7l1.82-0.39
		l3.74,1.24l2.87-5.04l3.49-2.15l0.24-1.86l-1.67-2.1l0.33-2.72l0.86-0.51l1.68,2.1l1.72-1.47l0.44-1.42l-0.39-1.47l2.11-2.1
		l-0.77-3.28l2.54-4.03l0.43-2.27l-0.38-1.86l-2.16-4.48l0.48-4.65l-1.1-0.8l-3.21-0.96l-3.3-2.33l0.62-3.85l-1.96-1.76l-0.85-2.35
		l0.51-3.73l-0.69-2.03l-1.2,0.17l0,0l-0.72-0.78l-0.57-0.05l-0.19,0.62l-0.77-0.06v-0.45l0.77-2.04l1.87-11.76l1-2.27l0.15-2.96
		l2.25-7.5l0.76-5.29l-0.14-2.74l13.12-0.57l6.11,1.06l1.59-1.33l1.99-0.65l6.38-0.21l6.64-0.93l3.41,0.81l2.9,5.51l1.62,1.86
		l2.6,1.54l1,0.29l4.38-1.95l4.73-0.38l1.25-0.66l5.2-5.03l3.79,0.65l2.91-1.1l1.03-3.94l3.28-1.39l0.86-2.05l0.35-4.48l1.08-4.97
		l1.96-4.21l-0.68-6.89l1.47-3.35l2.62-2.97l1.65-3.64l0.41-0.43l1.21,0.99l4.08,5.82l0.67,0.21l0.63-0.61l0,0l1.44,1.35l1.28,0.31
		l4.58-1.67l2.17,0.29l1.15,1.11l-2.32,6.63l-0.12,4.47l1.13,7.68l-3.21,9.35l-0.53,9.8l-0.5-0.58l-1.85,0.56l-2.59,4.34l-2.83,2.83
		l0.06,0.96l1.99,3.74l0.29,4.729l-0.76,10.48l-1.4,5.02l1.15,1.31l1.29-0.56l2.24,2.87l2.99,6.33l0.47,3.25l-1.54,7.69l-0.84,11
		l-1.93,4.04l-3.32,3.72l4.55,2.38l0.58,1.82l0,0l-4.86,2.12l-1.12,1.28l0.32,2.87l-1.95,0.77l0.08,1.24l-0.42,0.49l-1.52,0.43
		l-2.49,1.89l0.06,5.75l0.39,0.94l1.28,0.7l0.34,1.27l-0.82,1.9l-0.12,1.91l1.77,3.67l-0.17,0.42l-1.72-0.02l-0.31,1.92l-2.16-0.48
		l0.11,1.21l1.16,1.88l-0.38,0.64l-1.74,0.37l-0.92,1.29l0.82,0.62l1.11-0.03l1.1,2.51l1.62,1.07l-2.49,5.9l0.27,0.92l1.43,0.7
		l0.35,0.68l-0.43,1l-1.42,0.56l0.42,2.69l-2.02,0.63l0.5,4.6l-0.3,0.75l-1.47,0.71l1.65,2.78l-1.41-0.14l0,0l-4-1.15l-7.24-3.03
		l-3.92-0.17l-2.58,0.75L209.45,209.32z"/>
	<path id="IL-HA" fill="#1E3250" stroke="#1E3250" stroke-width="0.5" d="M109.79,209.33l0.57-1.25l-0.47-0.11l0.91-1.3l1.67-8.47
		l-0.38-1.01l-2.11-0.29l1.87-0.05l0.24-0.57l0.24,0.57h0.57l-0.43-0.28l0.1-1.13l0.62-0.06l0.48-1.7l-0.43-0.96l0.62-1.52
		l-0.1-1.24l0.91-1.7l-0.52-0.34l1.39-3.79l-0.48-1.52l1.24-1.64l-0.62-0.79l1.72-4.81l-0.43-1.13l0.86-2.771l0.39-4.979l1.19-4.07
		l-0.09-2.32l0.48-0.63l0.62-7.13l-0.29-0.96l0.82-2.21l1.05-0.34l0.81-1.36l0.96-4.76l1.29-12.97l-0.28-1.14l0.52-0.06l-0.28-3.79
		l1.77-1.25l1.15-0.06l1.91-1.08l1.06,1.08l2.29,1.08l2.54-0.29l-1.24,0.57l-3.16-0.85l2.2,2.16l0.19-0.68l0.53,0.51l-0.15-0.8
		l0.34-0.05l1.05,2.21l1.39-0.23l0.05-0.45l0.76,0.51l0.15,0.9l0.96-0.28l-0.67-1.02l-0.67-0.11l3.44-2.16l4.22-7.37l1.86-7.72
		l0.05-2.5l-0.48-0.98l0,0l1.2-0.17l0.69,2.03l-0.51,3.73l0.85,2.35l1.96,1.76l-0.62,3.85l3.3,2.33l3.21,0.96l1.1,0.8l-0.48,4.65
		l2.16,4.48l0.38,1.86l-0.43,2.27l-2.54,4.03l0.77,3.28l-2.11,2.1l0.39,1.47l-0.44,1.42l-1.72,1.47l-1.68-2.1l-0.86,0.51l-0.33,2.72
		l1.67,2.1l-0.24,1.86l-3.49,2.15l-2.87,5.04l-3.74-1.24l-1.82,0.39l-1.15,1.7l-0.09,2.04l0.57,0.79l2.59,0.68l0.24,1.3l-1.06,0.23
		l-3.44-0.68l-1.06,0.79l0.14,0.79l1.49,1.3l0.29,2.77l1.63,0.57l0.43,0.96l1.38,0.91l-0.62,3.1l0.34,1.08l1.58,0.74l0.52,1.35h1.73
		l1.05,1.75l3.4,0.23l2.83,0.9l1.53-0.39l1.86-2.71l1.11-0.34l0.67-2.1l2.39-1.35l1.25-2.04l1-0.39l1.1,0.73l1.3,2.43l2.58,1.19
		l1.34,1.99l0,0l-2.2,2.49l0,0l-0.6,1.24l-2.07,2l-3.39,2.47l-4.3,2.19l-6.93,2.62l-1.31,0.99l0,0l-1.6,3l0,0l-1.57,8.04l-1.5,4.16
		l0,0l-0.35,2.53l0,0l-6.83,1.47l-0.77-0.17l-1.2-1.58l-1.19-0.68l-1.49-2.2l-1.29-0.62h-4.12l-5.26-0.79l-4.98,1.07l-2.73-1.02
		L109.79,209.33z"/>
	<path id="IL-M" fill="#1E3250" stroke="#1E3250" stroke-width="0.5" d="M76.13,317.74l3.06-8.84l2.83-4.43l1.24-3.04l3.31-10.42
		l0,0l3.37,1.07l3.07-0.05l1.48,0.84h3.88l1.44-0.4l3.49-3.93l1.15-0.67l1.82,0.39l0.86,1.46l0.67,0.28l1.68-1.06l2.82-0.12
		l0.67-0.67l-0.19-1.57l-2.63-1.58l-1.15-6.18l-2.35-1.86l-0.71-1.57l0.67-5.12l1.48-1.8l1.68-3.38l-0.44-3.09l0.44-3.72l-0.29-0.67
		l-4.21-3.27l-6.3-1l0,0l3.64-12.1l1.2-6.19l1-3.22l0.34,0.06l0.95-5.75l-0.28-0.68l0.67-0.51l1.62-7.39l-0.04-2.03l0.67-0.84
		l0.28-2.6l-0.33-0.22l1.1-2.54l0,0l3.81,0.19l2.73,1.02l4.98-1.07l5.26,0.79h4.12l1.29,0.62l1.49,2.2l1.19,0.68l1.2,1.58l0.77,0.17
		l6.83-1.47l0,0l-0.36,2.62l0,0l-1.2,1.17l-4.48,2.01l-2.98,4.89l-0.19,5.47l0.81,5.81l-0.57,1.5l0,0l-1.46,1.04l0,0l-2.37,3.43
		l-3.11,7.05l-0.3,2.37l0.08,2.35l3.28,5.47l1.31,5.78l0.21,2.6l-1.95,4.77l0,0l-0.2,1.61l0,0l0.54,1.35l1.8,1.92l0,0l1.98,3.77l0,0
		l0.57,2.33l-0.4,2.99l-1.38,3.01l0.37,2.45l-0.76,0.62l0.75,2l-2.36,5.04l0.42,4.58l2.64,3.56l3.94,3.141l0.83,3.24l-1.52,4.72
		l-8.61,1.54l0,0l-0.15,0.229l0,0l-8.65-0.35l-1.27,0.99l-1.55,4.46l-1.83,1.149l-8.32,2.15l-3.52,3.46l-0.76,1.96l0,0l-0.92,0.39
		l-3.74,4.601l-1.63,0.67l-1.53-1.74l-1.24-3.87l-1.2-2.07l-4.31-2.579l-1.63,1.63l-3.16,0.05l0.15,0.56l1.34,0.561l1.34,2.41
		l-0.43,0.51l-1.87-0.11l-0.05,1.29l-0.48,0.5l-2.01,0.22l-1.05-0.84l-2.97-0.39l-0.81-0.62l-0.24-1.17l3.3-2.75l-0.76-1.57
		l-1.78-0.95l-0.43-1.8l1.1-1.229l2.92,0.67l1.39-0.45l0.39-3.59l-0.34-1.51l1.58-2.53l-0.96-0.89l-1.67,0.609l-1.2-0.109
		l-1.05-1.29L76.13,317.74z"/>
	<path id="IL-TA" fill="#1E3250" stroke="#1E3250" stroke-width="0.5" d="M86.57,291.01l2.25-8.23l0.57-0.45l-0.19-0.67l1.29-0.85
		l1.11-2.25l1.29-4.27l-0.24-1.24l0.57-0.22l0.72-1.75l-0.19-0.78l0.43,0.28l1.44-4.28l1.05-5.12l0.53-0.28l-0.29-1.97l0.57-0.23
		l1.49-5.36l0,0l6.3,1l4.21,3.27l0.29,0.67l-0.44,3.72l0.44,3.09l-1.68,3.38l-1.48,1.8l-0.67,5.12l0.71,1.57l2.35,1.86l1.15,6.18
		l2.63,1.58l0.19,1.57l-0.67,0.67l-2.82,0.12L107.8,290l-0.67-0.28l-0.86-1.46l-1.82-0.39l-1.15,0.67l-3.49,3.93l-1.44,0.4h-3.88
		l-1.48-0.84l-3.07,0.05L86.57,291.01z"/>
	<path id="IL-D" fill="#1E3250" stroke="#1E3250" stroke-width="0.5" d="M214.85,399.13l-0.07,10.29l-0.61,4.04l-2.84,8.1
		l-10.36,19.021l-0.89,4.04l1.97,4.28l7.69,10.35l1.37,2.94l0.86,4.18l0.18,3.13l-2.23,8.8l-6.6,10.17l-0.7,4.08l0.41,3.26l1.41,3.9
		l-0.01,4.12l-2.99,2.75l-6.48,4.25l-4.6,10.16l-0.06,3.62l0.87,3.29l-0.88,4.029l-3.3,1.19l-2.57,3.11l-1.52,4.159l-0.02,8.141
		l-2.43,5.67l-4.23,7.72l-0.91,4.43l-2.56,2.381l-5.09,9.819l-4.31,21.36l-1.19,3.56l-2.38,3.42l-0.68,2.69l5.96,11.21l0.91,3.1
		l-0.55,2.37l-3.83,4.24l-1.1,3.42l0.59,3.96l-3.28,7.28l5.4,23.89l-13.34,19.141l-3.59,14.26l0.54,15.479l-5.08,10.16l-0.77,3.72
		l0.5,2.95l-0.5,3.99l-2.94,12.23l0.5,14.67l-2.26,2.77l-3.08,2.26l-2.62,3.04l-3.53,8.431l-1.87-0.5l-0.72,1.699l-0.96,0.44
		l-0.76,1.92l-2.35,2.35v0.82l-1.39,1.92l-1.48,1.2l-4.35-5.04l-2.27-4.29l-0.82-3.3l-0.69-5.75l1.62-5.38l0.81-5.391l-0.78-3.71
		l-3.09-5.39l0.12-9.51l-17.63-49.49l0.35-2.99l-20.43-57.42l-3.51-13.2l-12.03-7.87l-0.44-6.109l3.57-10.061l-7.48-8.77l0.5-10.87
		l-4.99-20.76L30.78,524.81L20.94,496L6.72,448.8l0,0l7.76-5.819l0,0l7.67-6.62l0,0l1.9-3.49l-0.47-11.2l0,0l1.51-5.04l0,0
		l5.74-7.38l0,0l17.3-16.76l5.02-1.2l0,0l1.53-2.71l-0.02-3.87l-2.35-3.47l0,0l-7.49-7l4.16-6.771l1.06-0.95l-0.44-0.89l0.58-0.68
		l-0.43,0.729l0.72,0.23l2.97-5.55l1.58-1.681l1.14-2.46l0.53,0.061l5.55-9.58l8.43-17.431l-0.81-1.52l0.52-1.96l-0.33,2.13
		l1.01,1.07l-0.39-0.561l0.15-1.97l1.72,0.23l0.48-0.671l-0.15-2.079l0.72-0.221l2.54-5.979l0,0l2.66-0.84l1.05,1.29l1.2,0.109
		l1.67-0.609l0.96,0.89l-1.58,2.53l0.34,1.51l-0.39,3.59l-1.39,0.45l-2.92-0.67l-1.1,1.229l0.43,1.8l1.78,0.95l0.76,1.57l-3.3,2.75
		l0.24,1.17l0.81,0.62l2.97,0.39l1.05,0.84l2.01-0.22l0.48-0.5l0.05-1.29l1.87,0.11l0.43-0.51l-1.34-2.41l-1.34-0.561l-0.15-0.56
		l3.16-0.05l1.63-1.63l4.31,2.579l1.2,2.07l1.24,3.87l1.53,1.74l1.63-0.67l3.74-4.601l0.92-0.39l0,0l2.33,2.58l1.87,4.649l0.58,0.33
		l2.39-0.22l1.48,1.29l-0.91,2.63l0.96,3.641l-0.72,3.029l0.53,6.05l-0.29,2.961l0.43,1.01l7.47,4.479l1.73,2.011l3.25,0.949
		l3.75,2.91l0,0l-2.67,3.98l-1.52,7.569l0.75,8.2l-0.64,3.5l-3.45,6.55l-3.82,4.931l-3.35,6.729l0.47,4l1.93,3.13l2.77,2.29
		l4.28,1.15l7.83-1.03l7.22-1.8l16.99,1.229l3.64-1.89l2.39,0.55l11.1-1.699l2.53-1.521l9.32-9.979l5.58-2.48l5.73-4.18l0,0
		l6.09-5.38l0,0l2.72-0.96l11.39,0.17l0,0L214.85,399.13z"/>
	<path id="IL-JM" fill="#1E3250" stroke="#1E3250" stroke-width="0.5" d="M170.64,345.39l-0.24,0.38l-8.69,0.221l-7.34,3.01l0,0
		l-9.01,8.91l0,0l-8.08,3.88l-8.12,8.18l-1.57,2.62l0,0l-3.75-2.91l-3.25-0.949l-1.73-2.011l-7.47-4.479l-0.43-1.01l0.29-2.961
		l-0.53-6.05l0.72-3.029l-0.96-3.641l0.91-2.63l-1.48-1.29l-2.39,0.22l-0.58-0.33l-1.87-4.649l-2.33-2.58l0,0l0.76-1.96l3.52-3.46
		l8.32-2.15l1.83-1.149l1.55-4.46l1.27-0.99l8.65,0.35l0,0l-1.97,2.91l0,0l1.44,5.41l3.33,1.43l4.76,0.681l4.39-1.57l3.24-3.521l0,0
		l3.28-1.939l0,0l3.8,3.51l10.91,4.66l7.99-0.04l3.14,3.28l-0.51,7.3L170.64,345.39z"/>
	<path id="PS" fill="#1E3250" stroke="#1E3250" stroke-width="0.5" d="M54.66,384.71l0.02,3.87l-1.53,2.72l-4.99,1.19L32.21,407.93
		l-1.38,1.33l-5.75,7.391l-0.68,2.26l-0.83,2.78l0.47,11.199l-1.9,3.49l-6.37,5.5l-1.31,1.13l-7.76,5.82L0,426.58l0.38-0.29
		l12.88-12.99l11.4-12.51l13.98-17.28l6.18-9.24l7.5,6.961L54.66,384.71z M231.9,248.38l-1.31-7.76l0.62-4.49l-1.18-2.93l0.88-3.8
		l-1.35-3.62l1.17-6.09l-1.69-2.78l0.33-3.64l-4-1.15l-7.24-3.03l-3.92-0.17l-2.58,0.75l-2.18-0.35l-1.14-1.01l0.05-1.03l-1.23-1.58
		l-1-2.94l0.21-4.06l-0.54-4.36l-2.8-4.74l-2.79-2.08l-4.78-0.42l-10.44,1.54l-4.08-1.7l-2.65-1.94l-3.07-3.19l-2.39-1.3l-2.58,0.71
		l-3.17,3.58l-0.6,1.24l-2.06,2l-3.4,2.47l-4.29,2.19l-6.93,2.62l-1.31,0.99l-1.03,1.93l-0.57,1.08l-1.57,8.03l-1.5,4.16l-0.71,5.15
		l-1.21,1.17l-4.48,2.01l-2.97,4.89l-0.19,5.47l0.81,5.81l-0.57,1.51l-0.36,0.26l-1.09,0.78l-2.37,3.43l-3.12,7.05l-0.29,2.37
		l0.08,2.35l3.28,5.47l1.31,5.78l0.21,2.6l-1.95,4.77l-0.1,0.81l-0.1,0.8l0.54,1.34l1.8,1.92l0.24,0.45l1.74,3.32l0.57,2.33
		l-0.4,2.98l-1.39,3.01l0.37,2.45l-0.76,0.62l0.76,2l-2.36,5.05l0.42,4.58l2.64,3.56l3.94,3.141l0.83,3.24l-1.53,4.72l-8.6,1.54
		l-2.13,3.149l1.44,5.41l3.33,1.431l4.76,0.689l4.39-1.58l3.24-3.52l2.35-1.391l0.94-0.55l3.79,3.51l10.91,4.67l8-0.04l3.14,3.28
		l-0.52,7.3l-1.8,2.811l-0.24,0.37l-8.69,0.229l-7.35,3l-7.45,7.37l-1.56,1.54l-8.08,3.88l-8.12,8.181l-1.57,2.619l-2.67,3.98
		l-1.52,7.56l0.75,8.2l-0.64,3.5l-3.45,6.55l-3.82,4.931l-3.35,6.729l0.47,4l1.94,3.13l2.76,2.29l4.28,1.141l7.82-1.03l7.23-1.8
		l16.99,1.229l3.64-1.89l2.39,0.55l11.1-1.7l2.53-1.52l9.32-9.98l5.58-2.479l5.72-4.181l1.67-1.47l4.43-3.91l2.72-0.96l11.39,0.16
		l0.47-17.33l7.38-24.26l1.79-5.37l4.17-7.479l-2.13-11.79l1.36-3.83l-1.79-2.87l1.68-3.32l-3-1.91l-1.68-8.51l3.11-3l1.09-7.22
		l-2.88-6.34l1.61-2.34l-0.28-1.38l-1.89-2.18l-0.38-8.72l0.49-0.98l0.93-1.86l0.56-3.59l2.43-3.29l2.26-12.71l1.49-2.94l0.42-1.73
		L231.9,248.38z"/>
</g>
</svg>
