<?xml version="1.0" encoding="utf-8"?>
<!-- Generator: Adobe Illustrator 15.0.0, SVG Export Plug-In . SVG Version: 6.00 Build 0)  -->
<!DOCTYPE svg PUBLIC "-//W3C//DTD SVG 1.1//EN" "http://www.w3.org/Graphics/SVG/1.1/DTD/svg11.dtd">
<svg version="1.1" id="Layer_1" xmlns:amcharts="http://amcharts.com/ammap"
	 xmlns="http://www.w3.org/2000/svg" xmlns:xlink="http://www.w3.org/1999/xlink" x="0px" y="0px" width="230.5px" height="292.5px"
	 viewBox="0 0 230.5 292.5" enable-background="new 0 0 230.5 292.5" xml:space="preserve">
<defs>
	
	
		<amcharts:ammap  projection="mercator" leftLongitude="6.624181" topLatitude="47.087088" rightLongitude="18.517034" bottomLatitude="35.490552">
		</amcharts:ammap>
</defs>
<g>
	<path id="VA" fill="#1E3250" stroke="#1E3250" stroke-width="0.5" d="M110.47,142.498l-0.037-0.037l-0.033,0.01l-0.056,0.013
		l-0.053,0.086l-0.01,0.02l0.02,0.027l0.02-0.007l0.086,0.02l0.066-0.026l0.007-0.02l-0.014-0.026L110.47,142.498z"/>
	<path id="SM" fill="#1E3250" stroke="#1E3250" stroke-width="0.5" d="M111.061,95.948L111.061,95.948l0.272-1.763l-1.779,0.833
		l0.093,1.198l0,0l0.013,0.033L111.061,95.948z"/>
	<path id="FR-H" fill="#1E3250" stroke="#1E3250" stroke-width="0.5" d="M58.825,117.105l0.69,0.581l0.501,4.189l-0.79,3.097
		l1.501,3.081l0.335,9.494l-2.427,3.884l-0.388,6.732l-1.833,1.166l0.113,0.697l0.521-0.684l0.847,0.306l-1.6,1.381l0.08,1.497
		l-1.056,1.242l0.734-0.096l-1.358,1.122l-1.471-0.674l0.432-1.095l-5.647-2.563l0.056-1.653l2.088-1.414l-2.241-0.192l-0.116-0.94
		l-1.975,0.021l1.922-1.621l0.531-1.909l-0.352-0.624l-2.971,0.661l-0.255-1.63l0.949-0.08l0.199-0.999l1.484-0.85l-0.807-1.435
		l-0.694,0.269l-1.733-1.029l0.395-1.371l-0.697-0.727l2.636-0.67l-1.541-0.893l0.203-0.996l-0.983,0.392l-0.262-0.823l1.909-1.089
		l0.422-1.231l-0.531-0.222l1.315-2.44l1.072,0.717l0.226-1.122l3.625-0.893l1.866-2.081l1.653-0.087l1.308,1.352l0.784-1.368
		l-0.601-2.244l0.883-2.104l-0.359-1.62L58.825,117.105z"/>
	<path id="MT" fill="#1E3250" stroke="#1E3250" stroke-width="0.5" d="M143.018,271.435l0.245,1.062l0.764-0.319l1.563,1.185
		l-0.339,0.495l1.186,0.133l-0.143,1.109l-2.387-0.123l-1.467-1.109l-0.299-1.919L143.018,271.435z M140.71,269.625l1.736,1.029
		l-2.51-0.04l-0.06-0.843L140.71,269.625z"/>
	<path id="IT_65" fill="#1E3250" stroke="#1E3250" stroke-width="0.5" d="M135.359,119.887l3.276,7.646l5.062,4.602l1.617,2.394
		l3.559,1.835l0.07,1.61l1.138,0.807l0,0l-4.999,7.008l-0.677-0.123l-0.458-1.992l-1.348-0.173l-1.049-1.102l-2.317,1.875
		l0.78,1.816l-1.249,0.05l-0.209,0.876l-0.647-0.657l-0.823,1.298l-1.318-0.153l0,0l-0.827-1.085l-2.231-0.322l-0.581-1.099
		l-1.384-0.312l-1.696,1.142l-1.836-1.527l-1.039,0.219l-0.239-2.434l-3.831-2.064l-1.47-0.04l-0.468-0.747l0.05-1.633l0.95-0.471
		l0.017-0.793l2.752,1.128l2.257-1.231l-3.861-3.98l0.69-0.773l-1.325-1.242l1.056-0.804l-0.365-1.407l0.594-1.108l1.756,0.428
		l1.696-0.542l0.252-1.139l-1.042-0.664l0.179-0.558l0,0l0,0l0,0l0,0l0,0l2.351-1.046l0.624-1.799l2.148,0.262l1.046-1.172
		l3.28-0.883l0,0L135.359,119.887z"/>
	<path id="IT-77" fill="#1E3250" stroke="#1E3250" stroke-width="0.5" d="M162.966,161.752l0.335-0.816l3.506,0.183l1.746-1.199
		l2.858,2.228l-1.005,1.826l2.383,1.292l1.375-0.436l0.976,2.145l2.437,2.586l1.663-1.202l0.677,0.82l0.621-0.851l1.521,0.346
		l0.969,0.737l-0.043,5.218l1.437,0.525l0.959,1.643l0,0l-3.665,5.866l0,0l-3.814-0.578l-1.182,5.454l-1.375-0.853l-0.979,0.8
		l-2.862,0.023l-0.674-1.315l0.412-0.74l-1.723-0.242l-1.846,0.03l-1.096,1.703l0,0l-1.896-2.632l0,0l2.719-5.103l-4.575-4.9
		l0.023-1.696l-1.444-0.873l0.81-1.275l-1.969-1.278l0.056-1.61l-0.883-0.836l0.697-0.05l-0.156-1.102l1.59,0.358l1.119-0.93
		l0.75-1.949L162.966,161.752z"/>
	<path id="IT-78" fill="#1E3250" stroke="#1E3250" stroke-width="0.5" d="M166.578,186.946l1.099-1.703l1.842-0.03l1.723,0.242
		l-0.412,0.74l0.674,1.315l2.862-0.023l0.979-0.796l1.375,0.85l1.182-5.451l3.814,0.578l0,0l-0.747,1.683l0.452,1.922l-2.357,3.473
		l0.495,2.892l1.687,0.999l2.669,0.04l1.567,1.77l4.979,3.061l-0.783,1.952l0.641,2.278l-0.65,2.174l1.63,1.799l-1.906,2.911
		l-1.968-1.002l-1.557,0.246l-4.804,2.506l-1.212,2.175l0.664,6.148l-1.875,1.952l-2.404,1.016l-2.656,3.359l-1.178,3.854
		l-1.67,0.876l-4.057-0.056l-2.131-2.151l-0.007-4.614l2.842-1.062l1.945-4.12l0.249-1.617l-1.766-1.58l0.159-0.604l2.58-1.64
		l2.526,0.073l1.458-2.782l-0.096-1.7l-2.029-2.347l-1.713-8.897l-2.091-2.523l-1.006-2.689L166.578,186.946z"/>
	<path id="IT-72" fill="#1E3250" stroke="#1E3250" stroke-width="0.5" d="M140.561,172.851l0.667,0.08l-1.202,0.441L140.561,172.851
		z M134.482,168.379l1.464,0.398l-0.053,0.943l-1.696-0.14L134.482,168.379z M136.341,152.553l1.096,1.574l1.145,0.126l-0.547-1.358
		l0.73-1.338l0.76,0.634l1.275-0.436l6.112,2.998l1.062-0.979l1.59-0.023l0.571-0.959l1.332,0.564l2.39-1.298l0,0l1.55,1.205
		l-0.458,2.241l3.496,1.886l-1.195,2.188l0.763,0.883l1.972,0.574l0.564-0.429l2.414,1.149l0,0l0.455,1.318l-0.75,1.949
		l-1.119,0.929l-1.59-0.361l0.156,1.105l-0.697,0.05l0.886,0.836l-0.056,1.61l1.969,1.278l-0.81,1.275l1.444,0.873l-0.02,1.696
		l4.572,4.9l-2.719,5.103l0,0l-1.208-0.777l-2.596,1.929l-2.533-0.667l-0.007-1.166l-2.423-2.134l-1.553,0.02l-2.102-1.475
		l1.354-3.651l-2.008-4.169l-1.77-1.859l-3.367,1.321l-1.586-0.305l-2.676,1.285l0.259-1.361l2.38-1.514l-0.358-1.052l-3.121-2.231
		l-1.491,1.158l-1.577-0.856l-0.083,1.152l-0.747-0.252l-0.372-2.805l-4.412-6.925l0,0l2.198-1.676l-0.512-2.719L136.341,152.553z"
		/>
	<path id="IT-45" fill="#1E3250" stroke="#1E3250" stroke-width="0.5" d="M115.453,94.707l-0.312,2.394l-1.016,1.025l-0.969-0.119
		l-0.435-1.285l-0.903,0.375l-0.757-1.149l0,0l0.272-1.763l-1.779,0.833l0.093,1.195l0,0l0,0l0,0l0.402,0.737l-1.312-0.014
		l-1.265,2.566l0,0l-0.013-0.01l0,0l-1.498,0.826l-0.515-0.767l-1.521,0.511l-2.745-1.653l-1.547-0.07l-1.853-1.464l0.089-1.016
		l-1.215-1.637l1.727-3.207l-2.696,0.246l0.418-1.042l-1.604,0.07l-1.59-1.892l-2.467,1.922l-1.324,0.046l1.019,1.235l-3.891,0.132
		l-0.442-1.029l-1.613,1.812l-2.742-2.221l-1.849-0.043L78.74,91.25l-1.776-2.517l-3.197-1.553l-0.791,0.395L71.108,85.6
		l-2.231-0.807l-0.196-1.291l-1.325-0.771l-1.776,0.196l-2.328,2.473l0,0l-1.368-1.763l-2.805,0.448l0.95-1.567l-0.123-1.829
		l-1.334-0.943l-0.81,0.594l-2.722-0.959l0,0l0.156-1.624l0,0l0.581-0.037l-0.106-0.67l0.435,0.833l1.073-0.282l-0.667-1.886
		l1.278-1.288l-1.5-1.753l0.216-0.88l2.155-3.622l1.458-0.448l0.521,0.618l0.166-1.249l0.773,0.674l0.641-0.813l0.252,1.245
		l1.388,0.594l0.744-1.255l1.013,1.444l0.309-1.065l0.963,0.372l-0.312-0.913l0.598-0.485l0.116,0.93l1.251-0.704l1.763,2.58
		l1.105-0.518l3.383,1.839l0.813-0.445l2.005,1.71l1.308-0.057l2.174-1.799l0.322,1.035l2.41,0.83l3.124-1.178l1.285,0.727
		l2.636-0.717l2.068,0.305l0,0l0.053,0.495l1.892-0.123l1.079,1.089l3.35-2.154l5.036,0.123l0.76,1.022l2.317-0.349l0.176,1.733
		l1.072,1.208l0,0l-1.006-0.674l-0.574,0.757l-0.325,2.938l2.111,10.381l2.809,3.768L115.453,94.707z M106.606,98.468
		L106.606,98.468l-1.009,0.365l0.455,0.528l0.624-0.74L106.606,98.468z"/>
	<path id="IT-36" fill="#1E3250" stroke="#1E3250" stroke-width="0.5" d="M116.227,30.336l0.876,0.81l5.431,0.455l1.215,0.917
		l2.281-0.677l5.83,1.441l-0.498,2.025l-1.6,0.03l-3.705,3.459l0.627,2.084l1.188-0.345l3.074,1.099l-3.2,4.299l1.012,0.946
		l1.843-0.458l-1.132,3.167l0.345,1.082l3.393,1.511l2.121,2.762l-1.368,1.222l-2.032-0.262l1.527-0.481l-1.159-0.647l0.169-0.996
		l-2.042-2.188l-1.391-0.385l-0.518,1.042l0.584,0.471l-2.085,1.132l-3.25-0.963l-1.404,0.372l-0.956,1.467l0,0l-1.57-2.048
		l-0.773-2.898l-0.561,0.717l-1.159-0.82l-0.906,0.708l-0.441-0.85l-2.168,1.663l-0.428-1.006l-1.301-0.033l-0.807-2.32
		l-1.315-0.518l-0.551-2.281l1.551-1.583l0.149-1.188l-2.991-2.789l3.562-4.87l2.221-0.01l-0.498-1.155l1.995-0.744l-0.319-2.287
		l0,0L116.227,30.336z"/>
	<path id="IT-62" fill="#1E3250" stroke="#1E3250" stroke-width="0.5" d="M118.836,164.847l0.744-0.335l-0.681,1.274
		L118.836,164.847z M136.341,152.553l-1.975,1.029l0.511,2.719l-2.198,1.68l-2.271-0.853l-1.321,1.254l-4.408-2.075l-4.187,1.58
		l-2.188-3.529l-5.086-1.428l-3.453-4.747l-3.283-1.975l-1.348-3.871l-3.854-2.802l-1.417,0.209l-3.071-5.716l-3.509-2.281
		l0.618-1.378l2.257-0.026l-0.03-1.139l-0.926-0.634l0.306-1.229l1.076,0.023l2.795-1.885l-0.511-1.388l0.754-0.78l-1.255-0.983
		l0.385-0.81l0.631,0.594l0.707-1.022l0.823,0.047l1.461,1.885l-0.946,1.006l0.428,0.7l1.375,0.851l2.818-0.425l1.594,4l2.178-0.14
		l0.372,2.34l1.208-0.172l0.272,0.89l1.438-1.115l0.073-1.288l1.092,0.574l0.993-0.654l-0.455-0.677l3.061-1.461l-0.013-1.235
		l4.412-0.747l0.691-1.902l1.633-0.163l1.222,1.049l-0.179,0.562l1.042,0.661l-0.252,1.142l-1.697,0.538l-1.756-0.425l-0.594,1.109
		l0.365,1.407l-1.056,0.804l1.324,1.241l-0.694,0.777l3.864,3.98l-2.257,1.231l-2.752-1.128l-0.017,0.796l-0.946,0.472l-0.05,1.633
		l0.465,0.747l1.471,0.04l3.834,2.065l0.239,2.437l1.039-0.219l1.836,1.527l1.696-1.142l1.384,0.315l0.581,1.099l2.231,0.322
		l0.83,1.086l1.388,2.928L136.341,152.553z M110.48,142.584l-0.014-0.026l0.003-0.06l-0.037-0.037l-0.03,0.01l-0.056,0.013
		l-0.053,0.086l-0.01,0.02l0.023,0.027l0.02-0.007l0.086,0.02l0.066-0.027V142.584z"/>
	<path id="IT-42" fill="#1E3250" stroke="#1E3250" stroke-width="0.5" d="M29.693,92.465L30.474,92l-0.737-0.471l0.8-0.87
		l2.988,0.956l1.195-0.06l-0.478-0.737l0.611-0.504l0.979,0.176l-0.156-3.688l0.624,0.036l0.777-1.866l1.059-0.584l-0.206-1.73
		l0.959-1.191l1.962,1.434l1.753-1.312l1.511,0.491l1.056-1.948l1.182,0.066l1.444,2.072l0.873-1.62l1.524,0.037l-0.578-1.753
		l1.265-1.049l3.011,2.47l1.148-0.969l0,0l2.722,0.959l0.81-0.595l1.334,0.943l0.123,1.829l-0.946,1.567l2.805-0.448l1.368,1.763
		l0,0l2.971,2.181l0.156,1.992l0.69-0.581l0.488,0.338l-0.66,0.677l1.304-0.043l0.216,1.653l0.591-0.498l0.787,0.488l-0.83,1.305
		l0,0l-0.919,0.199l-2.072-1.703l-0.172,1.417l-10.182-7.044l-0.322,1.142l-1.208-0.561l-0.056-0.91l-6.029-1.521l-4.854,2.394
		l-1.022,1.202l-0.255,1.859l-2.656,1.328l-1.792,3.429l0.172,0.92l-1.726,1.51l-6.842,2.706l-2.307-0.093l-0.687-2.228l2.639-2.377
		L29.693,92.465z"/>
	<path id="IT-25" fill="#1E3250" stroke="#1E3250" stroke-width="0.5" d="M72.891,30.791l-0.043,1.042l0.847,0.641l2.702,0.481l0,0
		l0.382,0.896l2.125,0.687l0.545,1.64l-2.005,1.401l0.876,0.422l0.345,1.955l-0.714,3.376l-1.57,2.905l0.973,1.772l-0.129,2.128
		l1.092,1.109l1.368-0.464l0.156-0.714l3.2,0.026l0,0l-3.682,5.478l0.242,4.558l1.328,0.166l-0.325,2.553l0.664,0.455l0.8-0.664
		l3.462,2.862l1.411,2.317l1.238-0.661l0.996,0.372l-0.481,1.212l1.51,0.103l0.003,0.816l2.722,1.767l0,0l-2.068-0.306l-2.636,0.717
		l-1.285-0.727l-3.124,1.179l-2.41-0.83l-0.322-1.036l-2.174,1.8l-1.308,0.056l-2.005-1.709l-0.813,0.444L71.4,69.177l-1.105,0.518
		l-1.763-2.58l-1.251,0.704l-0.116-0.929l-0.598,0.484l0.312,0.913l-0.963-0.372l-0.309,1.066l-1.009-1.444l-0.744,1.255
		l-1.388-0.595l-0.252-1.245l-0.641,0.813L60.8,67.092l-0.166,1.249l-0.521-0.618l-1.458,0.448l-2.151,3.622l-0.216,0.883l1.5,1.753
		l-1.278,1.288l0.67,1.886l-1.072,0.285l-0.435-0.833l0.106,0.67l-0.581,0.037l0,0l0.086-1.61l-0.91-1.53l-1.534-0.053l-0.272-1.697
		l-2.593-2.828l-0.096-1.062l-2.131,1.012l-0.986-0.72l-0.152,0.584l-1.103-0.638l-0.451-2.028l-1.225-1.069l0.594-0.853
		l-0.886,0.189l0.524-1.002l-0.989-1.225l0.989-1.7l1.314,0.295l1.026,1.358l1.175-1.292l-0.721-0.77l2.122-0.385l-0.986-2.201
		l-1.166-0.601l-1.159-5.016l-1.012-0.302l-0.67-1.268l0.71-1.278l-0.425-1.643l2.672-2.908l-0.126-2.045l0,0l0.402-0.441
		l1.885,1.148l-1.165,2.052l1.916,0.83l0.833,2.175l-0.581,0.873l2.128,0.329l0.923-1.935l-1.693-1.724l0.627-0.574l-0.375-1.085
		l1.185-0.707l-0.063-1.341l3.018-2.838l0.833-2.244l-0.86-2.845l0.505-1.338l1.46-0.328l0.83,1.029l0.896-1.036l-0.023,3.303
		l1.464,1.812l2.746,0.242l0.468-1.421l0.701,0.365l2.981-1.085l0.75,0.681l0.05,1.66l0.969,0.495l-0.176,0.85l1.308,0.123
		l0.916-0.783l-1.211-1.862l1.042-1.899l-2.151-0.87l0.076-2.341l0.986-1.756L72.891,30.791z"/>
	<path id="IT-57" fill="#1E3250" stroke="#1E3250" stroke-width="0.5" d="M128.357,102.694l-0.963,0.418l-2.51-1.397l-6.802-5.966
		l-2.629-1.042l0,0l-0.312,2.394l-1.016,1.025l-0.969-0.119l-0.435-1.285l-0.903,0.375l-0.757-1.149l0,0l-1.401,0.306l0,0
		l-0.013-0.033l0,0l0.402,0.737l-1.312-0.013l-1.265,2.566l0,0l0.043,0.033l0,0l1.474,1.305l-0.903,0.71l-0.203-1.235l-0.146,1.036
		l-1.906,1.016l0.481,0.74l0,0l1.381,0.561l1.312-0.598l-0.979,1.633l1.348,0.804l0.471-0.694l1.312,0.385l2.111,2.42l2.576-0.867
		l-0.408,1.783l1.979,3.994l-0.584,1.478l1.099,1.218l0.007,2.981l1.328,0.863l0.04,1.341l0.405-1.019l0.893-0.203l1.83,2.072
		l1.301-0.807l0.385,1.802l-1.152,1.298l0,0l1.633-0.163l1.222,1.049l0,0l2.351-1.046l0.624-1.799l2.145,0.262l1.046-1.168
		l3.28-0.886l0,0l-4.907-15.234L128.357,102.694z M110.052,103.497l-0.246-0.086l0,0l-0.063-0.02l0,0l0.295-0.123l0,0l0.033,0.176
		l0,0L110.052,103.497z"/>
	<path id="IT-67" fill="#1E3250" stroke="#1E3250" stroke-width="0.5" d="M150.231,138.909l3.463,1.268l2.367,1.849l0,0
		l-0.684,3.605l1.033,1.354l-2.304,1.959l-1.076-0.498l-0.415,0.504l0.066,2.119l1.179,0.986l0,0l-2.394,1.298l-1.332-0.567
		l-0.571,0.962l-1.59,0.023l-1.062,0.982l-6.112-2.998l-1.275,0.436l-0.76-0.634l-0.73,1.338l0.547,1.358l-1.145-0.126l-1.096-1.574
		l0,0l0.813-2.121l-1.388-2.928l0,0l1.318,0.153l0.823-1.298l0.647,0.657l0.209-0.876l1.249-0.05l-0.78-1.816l2.317-1.875
		l1.049,1.102l1.348,0.173l0.458,1.992l0.677,0.123l4.999-7.008l0,0L150.231,138.909z"/>
	<path id="IT-21" fill="#1E3250" stroke="#1E3250" stroke-width="0.5" d="M42.066,34.605l0.554,1.68l-0.488,3.638l1.484,0.754
		l1.371,2.343l1.816,0.452l0,0l0.126,2.045l-2.672,2.908l0.425,1.646l-0.71,1.278l0.67,1.268l1.013,0.302l1.159,5.016l1.165,0.601
		l0.986,2.201l-2.121,0.385l0.72,0.77l-1.175,1.292l-1.022-1.358l-1.318-0.295l-0.986,1.7l0.989,1.225l-0.525,1.006l0.887-0.189
		l-0.594,0.854l1.225,1.069l0.451,2.032l1.099,0.634l0.152-0.581l0.989,0.717l2.131-1.012l0.097,1.065l2.593,2.825l0.272,1.696
		l1.534,0.053l0.91,1.531l-0.083,1.61l0,0l-0.156,1.624l0,0l-1.148,0.969l-3.011-2.473l-1.265,1.049l0.578,1.753l-1.524-0.037
		l-0.87,1.62l-1.447-2.072l-1.179-0.069l-1.056,1.952l-1.511-0.495l-1.752,1.315l-1.962-1.434l-0.959,1.191l0.206,1.727
		l-1.056,0.584L36.3,86.838l-0.624-0.036l0.156,3.688l-0.979-0.176l-0.611,0.501l0.478,0.737l-1.195,0.063l-2.988-0.956l-0.8,0.87
		L30.474,92l-0.78,0.465l0,0l-0.79-1.587l0.299-1.032l-5.57,1.404l-2.882-2.028l-3.071-0.813l-2.032-3.001l0.093-1.404l0.949-0.186
		l-1.57-2.41l1.899-2.088l-0.089-1.371l1.949-0.229l-1.308-2.44l0.1-1.198l-2.417-0.269l-1.916-1.318l-0.116-2.609l-1.205-0.136
		l-0.803-2.059l2.41-1.308l2.135,0.551l0.003-0.764l0.893-0.033l0.94-1.205l1.158,0.199l0.953-0.836l-0.246-1.962l1.315-1.886
		l-1.448-1.48l0,0l0.588-1.182l0.12,0.946l1.318,0.129l4.558-2.689l4.133,0.773l1.624-1.152l1.211,0.149l0.588-3.267l-1.225-1.627
		v-3.024l0,0L33,46.068l1.746-0.349l0.382-2.141l2.055-1.096l-0.232-1.962l-1.056-0.866l3.95-2.895l-0.066-1.142L42.066,34.605z"/>
	<path id="IT-75" fill="#1E3250" stroke="#1E3250" stroke-width="0.5" d="M171.036,141.515l2.908,1.491l0.166,1.835l-0.581,1.105
		l-4.452,3.151l0.88,3.459l10.736,5.753l8.651,3.237l6.583,5.295l9.242,4.16l0.976,2.599l5.853,5.149l1.574,3.555l-1.846,3.529
		l-0.282,3.505l-0.771,0.624l-5.099-3.074l-0.903-1.574l0.339-0.813l-0.691-0.372l0.638-1.202l-2.596-3.96l-5.922-0.213l-5.196-2.51
		l0.81-1.076l-2.347-1.404l-2.43,0.82l-1.889,2.214l0,0l-0.959-1.64l-1.438-0.525l0.043-5.218l-0.969-0.737l-1.521-0.346
		l-0.621,0.85l-0.677-0.82l-1.663,1.202l-2.437-2.586l-0.976-2.145l-1.371,0.435l-2.387-1.292l1.006-1.826l-2.858-2.228
		l-1.743,1.198l-3.506-0.186l-0.338,0.82l0,0l-2.414-1.149l-0.564,0.428l-1.972-0.574l-0.764-0.883l1.195-2.188l-3.496-1.886
		l0.458-2.241l-1.55-1.205l0,0l-1.178-0.986l-0.066-2.118l0.415-0.504l1.076,0.498l2.307-1.958l-1.033-1.354l0.684-3.605l0,0
		l4.937,0.591L171.036,141.515z"/>
	<path id="IT-88" fill="#1E3250" stroke="#1E3250" stroke-width="0.5" d="M40.911,204.777l0.933,0.103l0.704,1.185l-0.896,2.161
		l-0.929-1.776L40.911,204.777z M39.852,203.273l-0.043,1.812l-0.538,0.126l-0.942-1.182L39.852,203.273z M40.081,160.325
		l0.203,1.543l-0.906-0.421l-0.724,1.006l0.335,0.93l-0.763-0.097l0.172-1.218L40.081,160.325z M59.681,157.56l0.159,1.275
		l-0.763,0.116L59.681,157.56z M55.564,157.191l0.939,1.684l1.318-0.528l1.029,0.66l0.329,1.922l0.402-1.135l0.926-0.332
		l0.797,0.933l-0.993,2.413l0.899-0.637l-0.176,0.747l0.744-0.418l1.179,0.607l-1.411,0.272l-0.123,1.232h-1.205l1.484,0.8
		l0.91-0.601l-0.491,0.624l0.568,0.82l1.251,0.359l-0.863,1.212l1.395,2.509l0.01,1.697l1.255,1.517l-1.042,3.044l-2.383,2.954
		l0.455,2.483l1.354,1.298l-0.797,2.483l0.531,1.056l-0.607,0.614l-0.601,9.677l-0.82,2.49l0.591,1.099l-0.873,0.717l-0.053,1.962
		l-0.962,1.796l-3.858-2.589l-1.474-0.309l-0.863,0.996l-0.85-0.684l-1.55,1.358l0.057,3.628l-2.779,2.311l-2.313-1.371
		l-1.361,1.636l-1.325-3.907l-1.517-0.339l-0.083-1.132l-1.746-2.208L42,200.899l-1.056-1.856l1.65-4.979l-0.421-3.403l1.075,0.724
		l0.784-3.024l-0.505-0.919l-1.434,0.604l-0.727-0.688l0.259-2.473l-0.604-0.352l1.305-0.345l0.638-1.152l-0.588-1.634l0.442-2.437
		l-1.7-1.165l-0.156-3.379l-1.248-2.221l-1.627,0.501l-0.12-1.135l-0.79,0.883l0.943-2.357l-1.235-1.04l1.55-3.495l-0.797-1.109
		l0.465-0.797l0.571,0.412l-0.083,0.949l1.371,1.471l4.219,0.285l2.268-1.833l1.663-0.246l3.725-4.468l2.652-1.013l-0.408-1.743
		L55.564,157.191z M58.778,156.972l0.342,1.165l-0.983,0.153L58.778,156.972z"/>
	<path id="IT-82" fill="#1E3250" stroke="#1E3250" stroke-width="0.5" d="M111.695,281.238l1.63,0.169l0.106,0.554L111.695,281.238z
		 M101.929,253.69l1.643,0.84l-0.432,1.334l-1.723-1.397L101.929,253.69z M107.938,229.908l0.993,0.996l-1.372-0.186
		L107.938,229.908z M103.784,229.098l0.442,0.949l-0.827-0.249l-0.232-0.717L103.784,229.098z M163.242,222.458l1.713,0.757
		l-1.417,0.667l-1.345,3.423l-4.827,6.865l-0.611,3.821l-1.547,1.933l0.196,3.519l2.709,1.66l-0.561,0.584l-0.535-0.488l-0.11,1.065
		l0.811,1.514l1.052,0.243l-0.355,1.407l1.032,0.787l-1.026-0.093l-2.091,1.988l-0.982,2.424l0.767,2.42l-1.009,0.777l-1.062-1.125
		l-2.39-0.614l-1.644,0.567l-4.894-1.74l-1.929-3.702l-1.999-2.025l-3.283-1.142l-2.809,0.322l-2.623-1.165l-3.336-2.872
		l-1.786-0.183l-3.015-2.059l-1.822-2.221l-2.48-0.023l-1.746-1.739l-4.13,0.358l-1.135-1.727l-2.228-1.261l-0.874-2.178
		l1.026-1.574l-0.471-0.714l1.029-1.812l-0.491-0.531l3.758-1.999l0.349-1.723l2.888,3.546l3.011-1.354l-0.425-1.095l0.949-1.172
		l1.415,0.501l2.151-1.182l1.112,2.509l2.629-0.106l0.524,1.587l3.393,1.48l4.352-1.543l4.485,0.73l3.27-0.568l2.729-0.873
		l1.859-1.985l2.822-0.568l3.147,1.511l2.039-1.557l0.09-1.663l0.332,1.185l0.747,0.209L163.242,222.458z M153.056,219.885
		l0.727,1.049l-0.91-0.302L153.056,219.885z M153.093,217.654l-0.153,1.779l-0.959-1.009L153.093,217.654z M150.693,216.323
		l0.853,0.04l-0.01,0.953l-1.282-0.528L150.693,216.323z M157.578,211.393l-0.212,0.85l-0.435-0.432L157.578,211.393z"/>
	<path id="IT-52" fill="#1E3250" stroke="#1E3250" stroke-width="0.5" d="M73.999,132.326l0.286,0.598l-0.587,0.186L73.999,132.326z
		 M83.736,131.413l0.581,1.677l-0.929-0.854L83.736,131.413z M70.022,126.141l0.143,1.192l-0.737-0.326L70.022,126.141z
		 M75.775,120.408l0.292,2.058l-0.836,0.451l0.631,1.186l-1.381-1.292l-0.378,0.634l-0.299-0.531l-2.476,0.787l-0.943-0.95
		l0.641-0.992l1.789,0.491l0.306-0.976l1.583,0.724L75.775,120.408z M106.653,98.57l0.026,0.053l0,0l-0.624,0.74l-0.455-0.527
		l1.009-0.365l0,0L106.653,98.57z M63.247,85.408l2.327-2.473l1.776-0.196l1.325,0.77L68.87,84.8l2.231,0.807l1.869,1.979
		l0.79-0.395l3.197,1.554l1.776,2.516l0.863-0.996l1.849,0.043l2.742,2.221l1.614-1.812l0.441,1.029l3.891-0.133l-1.019-1.235
		l1.325-0.046l2.466-1.922l1.59,1.893l1.604-0.07l-0.418,1.042l2.699-0.246l-1.727,3.207l1.218,1.637l-0.089,1.016l1.853,1.464
		l1.55,0.07l2.745,1.653l1.521-0.512l0.515,0.767l1.498-0.827l0,0l0.056,0.043l0,0l1.474,1.305l-0.903,0.71l-0.202-1.235
		l-0.146,1.036l-1.906,1.016l0.481,0.74l0,0l-1.079,1.899l-0.913,0.126l0.777,1.262l-1.972,1.328l1.547,1.166l0.269,1.626
		l1.55-0.043l-2.214,1.388l-1.002-0.286l-0.163,1.348l-1.72,1.012l0.02,1.653l0.959,0.624l-0.804,3.27l0.415,0.85l-1.069,0.803l0,0
		l-0.823-0.046l-0.708,1.022l-0.63-0.594l-0.385,0.81l1.255,0.982l-0.753,0.78l0.511,1.388l-2.795,1.885l-1.076-0.023l-0.305,1.228
		l0.926,0.634l0.03,1.139l-2.257,0.026l-0.614,1.377l0,0l-3.167-0.962l-0.907,0.239l-0.365,1.056l-1.594-0.687l-0.146-0.856
		l1.351-0.186l0.438-1.72l-1.783-2.703l-1.375-0.587l-1.042-1.995l-3.619-1.395l0.953-2.015l-0.817-0.933l-2.012-0.598l-2.135,0.518
		l0.737-3.635l-0.219-3.691l-3.864-6.703l-1.006-7.868l-1.673-2.553l-2.084-1.557l0,0l0.83-1.301l-0.787-0.488l-0.591,0.498
		l-0.216-1.653l-1.305,0.046l0.661-0.677l-0.488-0.338l-0.69,0.581l-0.156-1.992L63.247,85.408z"/>
	<path id="IT-32" fill="#1E3250" stroke="#1E3250" stroke-width="0.5" d="M106.131,19.191l0.574,0.452l-0.564,0.993l-1.424,0.524
		l0.813,1.766l-0.431,0.637l1.231,0.913l1.039-0.219l0.524,1.069l-0.395,1.384l1.202,0.216l0.455,1.414l1.673,0.966l0,0
		l-1.706,1.454l-2.058-0.216l-1.109,0.88l-0.037-0.75l-2.095-1.249l-1.162,3.459l-3.107,0.867l1.179,1.146l-0.853,2.118
		l-1.053,0.229l3.221,4.067l-1.136,1.696l-3.509,0.697l-0.299,3.167l-1.397-0.1L94.9,45.64l-2.825,0.773l-0.412,1.839l-0.846-0.704
		l-0.797,0.392l-2.168,5.617l-1.862-0.777l-1.271,1.096l-1.687-1.026l0.893-2.204l-0.89-0.551l0,0l-3.197-0.026l-0.159,0.714
		l-1.368,0.464l-1.092-1.112l0.129-2.128l-0.973-1.773l1.573-2.905l0.71-3.376l-0.345-1.955l-0.876-0.422l2.009-1.401l-0.545-1.64
		l-2.127-0.688l-0.379-0.893l0,0l0.628-1.979l-1.518-0.587l-0.279-1.212l1.547-4.286l1.178,0.524l2.022-0.943l1.65,1.288
		l-0.581,0.876l4.959,0.524l1.072-1.348l0.223-2.277l1.172-1.312l2.636-0.661l1.431,0.684l1.285-1.166l0.973,0.704l1.395-0.744
		l2.184,1.092l3.861-2.028L106.131,19.191z"/>
	<path id="IT-55" fill="#1E3250" stroke="#1E3250" stroke-width="0.5" d="M110.052,103.497l-0.246-0.086l0,0l-0.063-0.02l0,0
		l0.295-0.123l0,0l0.033,0.176l0,0L110.052,103.497z M106.317,103.112l1.381,0.561l1.312-0.597l-0.979,1.633l1.348,0.803
		l0.471-0.694l1.311,0.385l2.112,2.42l2.576-0.866l-0.408,1.783l1.979,3.994l-0.584,1.477l1.099,1.218l0.007,2.981l1.328,0.863
		l0.04,1.341l0.405-1.019l0.893-0.203l1.829,2.072l1.302-0.807l0.385,1.802l-1.152,1.298l0,0l-0.69,1.902l-4.412,0.747l0.013,1.235
		l-3.061,1.46l0.455,0.677l-0.992,0.654l-1.092-0.574l-0.073,1.288l-1.438,1.116l-0.272-0.89l-1.208,0.176l-0.372-2.34l-2.178,0.139
		l-1.593-4l-2.818,0.428l-1.375-0.85l-0.428-0.7l0.949-1.003l-1.46-1.885l0,0l1.072-0.804l-0.415-0.85l0.803-3.27l-0.959-0.624
		l-0.02-1.653l1.719-1.013l0.163-1.348l1.002,0.285l2.214-1.388l-1.55,0.043l-0.269-1.627l-1.547-1.165l1.972-1.328l-0.777-1.262
		l0.913-0.126L106.317,103.112z"/>
	<path id="IT-23" fill="#1E3250" stroke="#1E3250" stroke-width="0.5" d="M27.399,46.327l1.461,0.209l0.953,1.311l2.427,0.176l0,0
		v3.024l1.225,1.627l-0.588,3.267l-1.211-0.149l-1.624,1.152l-4.133-0.773l-4.558,2.689l-1.318-0.129l-0.12-0.946l-0.588,1.182l0,0
		l-1.739-0.923l-0.003-3.27l-1.441-0.289l-1.822-1.753l0.206-2.752l2.055-0.246l1.733-1.873l1.049,1.594l0.854-0.515l0.617,0.498
		l1.727-1.524l1.567,0.611L27.399,46.327z"/>
	<path id="IT-34" fill="#1E3250" stroke="#1E3250" stroke-width="0.5" d="M111.453,70.528l0.395,0.299l-0.787,0.176L111.453,70.528z
		 M111.33,29.336l3.761,1.069l0,0l0.319,2.287l-1.995,0.744l0.498,1.155l-2.221,0.01l-3.562,4.87l2.991,2.789l-0.149,1.188
		l-1.55,1.584l0.551,2.28l1.315,0.518l0.81,2.321l1.301,0.033l0.428,1.009l2.168-1.663l0.441,0.85l0.906-0.708l1.159,0.82
		l0.561-0.717l0.773,2.898l1.57,2.048l0,0h-2.088l-10.533,5.995l-1.116,3.708l0.614,3.575l1.002,1.438l-0.435,0.203l0.677,0.392
		l0.203-0.681l1.428,1.783l-0.561,2.755l-0.757-1.278l-0.554,0.7l0.657,1.358l-0.475,0.435l-0.8-0.637l0,0l-1.072-1.208
		l-0.176-1.733l-2.317,0.349l-0.76-1.022l-5.036-0.123l-3.35,2.158l-1.076-1.085l-1.892,0.126l-0.053-0.495l0,0l-2.722-1.766v-0.816
		l-1.51-0.103l0.481-1.212l-0.996-0.372l-1.238,0.661l-1.411-2.317l-3.462-2.862l-0.8,0.667l-0.664-0.455l0.325-2.553l-1.328-0.166
		l-0.243-4.558l3.682-5.478l0,0l0.89,0.551l-0.893,2.204l1.687,1.026l1.271-1.095l1.862,0.777l2.168-5.617l0.797-0.392l0.847,0.704
		l0.415-1.836l2.825-0.773l0.804,1.132l1.397,0.099l0.299-3.167l3.509-0.697l1.135-1.696l-3.22-4.067l1.052-0.232l0.853-2.115
		l-1.178-1.148l3.107-0.867l1.162-3.459l2.098,1.249l0.037,0.75l1.108-0.879l2.059,0.216l1.707-1.454l0,0L111.33,29.336z"/>
</g>
</svg>
