<?xml version="1.0" encoding="utf-8"?>
<!-- Generator: Adobe Illustrator 15.0.0, SVG Export Plug-In . SVG Version: 6.00 Build 0)  -->
<!DOCTYPE svg PUBLIC "-//W3C//DTD SVG 1.1//EN" "http://www.w3.org/Graphics/SVG/1.1/DTD/svg11.dtd">
<svg version="1.1" id="Layer_1" xmlns:amcharts="http://amcharts.com/ammap"
	 xmlns="http://www.w3.org/2000/svg" xmlns:xlink="http://www.w3.org/1999/xlink" x="0px" y="0px" width="632.5px" height="718.5px"
	 viewBox="0 0 632.5 718.5" enable-background="new 0 0 632.5 718.5" xml:space="preserve">
<defs>
	
	
		<amcharts:ammap  projection="mercator" leftLongitude="20.047335" topLatitude="43.270140" bottomLatitude="41.783403" rightLongitude="21.814235">
		</amcharts:ammap>
</defs>
<g>
	<path id="XK-PR" fill="#1E3250" stroke="#1E3250" stroke-width="0.5" d="M251.87,318.29l1.24-6.17l-2.2-3.311l0.55-3.87l2.48-2.48
		l3.04-7.45l7.73-3.32l4.97,0.28l1.65-3.31l-2.48-6.9l1.38-4.14h4.97l0.55-3.04l2.76-1.93h4.97l3.59,2.48l0.27,3.32l3.31,1.1
		l5.8-4.14l1.11-7.18l5.24-0.27l6.9-3.32h3.04l1.65,4.14l9.39,11.6l3.59-0.28l9.66-9.66l14.63-10.21l-1.11-4.97l0.83-2.21l3.04-0.55
		l1.1-9.11l-4.41-2.76l0.27-3.04l11.04-10.21l2.49-0.55v-2.21l5.79-0.28l1.11-5.24l-1.38-5.52l-5.8-5.52l-3.59-0.83l-1.38-14.91
		l-3.03-4.41l-0.83-5.8l-2.21-3.31v-6.07l3.86-4.14l0.56-8.56l2.76-7.73l-0.28-6.9l-8.28-21.53l-6.63-2.49l-1.93-3.58l0.83-4.97
		l-5.8-3.04l-1.38-6.24l-3.58-4.41l2.2-11.04l-4.14-6.63l-5.79,3.04l-5.9-10.85l0,0l7.71-2.55l4.78-3.69l14.9,5.25l12.71-7.47
		l3.15-0.24l8.18,8.32l5.09,14.84l6.16-5.57l3.54-1.37l1.62,1.04l2.39,4.2l1.77,11.48l0.69,43.57h1.56l7.41-12.59l4.13-2.22
		l3.01,0.42l4.78,3.59l5.061,15.05l-7.591,23l1.391,3.82l15.51-1.46l16.39,4.1l9.07,9l6.1,12.05l2.28,0.99l8.18-3.58l2.53,3.58
		l-0.87,12.33l-3.359,9.93l-6.44,9.31l-0.31,8.32l1.59,4.23l25.22,1.88l4.22,3.86l10.75,4.01l0,0l0.36,4.33l-3.59,7.73l-4.141,1.38
		l-1.1,8.01l-9.66-0.83l-3.59-3.59l-2.76-0.55l-6.351,4.69l5.79,5.8v3.31l6.631,2.21l1.93,3.31l4.14,1.11l1.38,3.58l-1.93,1.38
		l3.04,5.53l-3.32,1.38l-0.819,5.79l3.31,3.59l3.86,1.66l1.109,6.35l5.24,3.86l2.76,6.899l-5.239,1.931l-1.66,2.49l-6.62-3.591
		l-3.04,1.931l-2.48-3.311h-4.97l-5.25,6.351l1.11,8.279l-4.42,2.48l-6.62-2.21l-1.94-4.41l-5.79-1.38l-1.38-2.49l-9.11,3.87
		l-3.869-1.38l-2.2-2.76l-4.7-0.28l-5.24,3.31l-4.14,8.011l6.35,7.729l-2.489,3.59l0.55,4.69l5.52,3.86l-0.27,2.76l-2.49,6.63
		l-9.38-1.38l-1.38,2.21l1.93,3.58l-1.08,8.5l0,0l-0.02-0.05l0,0l-2.49,0.829l-1.38,2.761l-2.21-0.28l-4.96-7.17l-4.141,0.55
		l-3.59-2.76l-6.899,0.27l-6.9,2.49l-3.59-1.11l-6.07,3.87l-3.04-0.279l-2.49-7.17l-10.76-0.83l-3.87-3.32l-10.21,4.7l-6.35-3.04
		l-8.28,0.55l-5.52-4.41l-1.1,3.03l-6.9,1.38l-1.38-4.41l-6.08-1.66l-6.9,4.69l-1.1,3.04l-10.19,1.319l0,0l-0.02-0.22l0,0
		L297,372.07l-6.07-1.931l-5.8,4.141l-2.76-2.21l3.59-4.69l-1.93-5.79l5.52-0.56l0.28-6.62l-1.94-0.83l-1.38-4.14l-2.2,0.55
		l-2.49,6.069h-6.62l-2.49,2.21l-4.69,0.561l-5.24,5.52l-1.38-5.8l3.31-3.87l0.55-7.17l3.04-2.76l0.55-6.9l-8.28-5.52v-2.76
		l4.14-4.141l0.83-4.97l-5.52-3.04l-6.65,0.97l0,0L251.87,318.29z"/>
	<path id="XK-KM" fill="#1E3250" stroke="#1E3250" stroke-width="0.5" d="M320.09,73.66l5.9,10.85l5.79-3.04l4.14,6.63l-2.2,11.04
		l3.58,4.41l1.38,6.24l5.8,3.04l-0.83,4.97l1.93,3.58l6.63,2.49l8.28,21.53l0.28,6.9l-2.76,7.73l-0.56,8.56l-3.86,4.14v6.07
		l2.21,3.31l0.83,5.8l3.03,4.41l1.38,14.91l3.59,0.83l5.8,5.52l1.38,5.52l-1.11,5.24l-5.79,0.28v2.21l-2.49,0.55l-11.04,10.21
		l-0.27,3.04l4.41,2.76l-1.1,9.11l-3.04,0.55l-0.83,2.21l1.11,4.97l-14.63,10.21l-9.66,9.66l-3.59,0.28l-9.39-11.6l-1.65-4.14h-3.04
		l-6.9,3.32l-5.24,0.27l-1.11,7.18l-5.8,4.14l-3.31-1.1l-0.27-3.32l-3.59-2.48h-4.97l-2.76,1.93l-0.55,3.04h-4.97l-1.38,4.14
		l2.48,6.9l-1.65,3.31l-4.97-0.28l-7.73,3.32l-3.04,7.45l-2.48,2.48l-0.55,3.87l2.2,3.311l-1.24,6.17l0,0l-1.24,0.12l0,0l-3.31,1.66
		l-2.21-0.83l-1.38-7.45l-5.24-3.86l-8.29-1.66l-1.65-8.279l6.07-4.42l-1.66-4.97l-2.76-1.65l2.21-2.49l-4.69-4.41l-2.48,1.1
		l-0.83,3.87l-3.04,3.03l-5.52,0.28l-7.45-11.32l-0.83-4.42l-5.52-2.48l-0.55-3.31l1.93-4.14l3.59-0.28l3.59-4.14l1.65-4.69
		l0.28-4.14l-4.14-3.59l-1.38-5.52l4.41-8.83v-8.01l3.59-6.9l0.55-8.28h-7.45l0.28-6.35l-3.04-4.42l-3.03-1.65l-1.11-3.59
		l-3.03-3.04l-5.8-0.55l-1.38-4.14l-11.04,4.42l-12.77,1.65l0,0l3.25-9.21l-10.29-12.82l-3.05-7.16l-0.62-5.52l3.95-8.3l11.01-6.79
		l8-7.83l7.1-3.68l10.74-2.83l2.63-1.979l9.98,5l-0.14-6.28l20.06-2.92l1.31-3.68l-0.38-10.2l-4.12-8.84l-1.35-8.88l0.17-11.72
		l-6.27,1.13l-2.63-3.16l-1.59-6.81l2.63-7.57l-0.35-5.06l-14.82-15.14l-2.5-4.31l1.04-3.13l16.59-4.11l10.22-4.88l15.59-10.42
		l8.49-2.47l13.4-10.66L278,0.28l9.14,5.79l18.81,33.34l-1.18,3.88l-2.08,0.1l-10.18-4.31l-5.96,0.71l-3.57,3.22l2.39,11.12
		l8.66,8.65l9.25,2.09L320.09,73.66z"/>
	<path id="XK-DA" fill="#1E3250" stroke="#1E3250" stroke-width="0.5" d="M153.63,482.55l-11.1-12.54l-11.26-3.17l-0.93-2.01
		l-6.27-1.16l-3.74-6.16l-14.13-5.09l0.34-3.26l-5.85-5.42l-4.09,0.14l-6.58,5.65l-5.64-4.061l-11.4,2.48l-5.06-3.271l0.97-4.479
		l-3.46-5.98l2.63-2.149l0.45-7.7l-1.87-4.91l-10.81-9.72l2.19-4.48l4.08-3.319l-2.42-8.28l-9.42-8.23l1.7-5L46.83,375l-1.11-5.62
		l-4.26-4.54l-0.35-4.77l-4.43-3.37l-10.46-4.311l-0.62-2.109l-7-2.431l-4.54-8.479l-4.85-2.061l5.27-15.229l-2.11-7.22l0.34-7.88
		l3.57-4.411l4.05-2.15l9.04-11.24l0,0l5.96,4.34l22.63,3.58l-5.24,6.91l0.83,3.58l2.76,0.83l4.14,6.9l8,0.279l4.69,3.311
		l14.63,4.97l6.9-3.04l1.38-3.58l3.04,0.55l9.11,9.931l-3.31,1.38l1.38,2.76l2.21,2.49l3.86,0.55l0.83,2.49l-3.87,4.41l3.04,2.21
		l11.04-0.55l6.35-3.87l8,2.489h5.8l6.63-3.04l7.17,1.11l5.8,4.41l7.18-1.65l2.2,2.761l-1.65,3.859l2.21,2.76v3.04l3.86,6.07
		l2.76-1.1l0,0l3.04-0.28l0,0l3.59,1.93l2.2,6.07l2.49,1.66l5.52,0.28l1.66,10.21l18.77,1.38l6.9,4.97l0.82,3.31l7.73,1.931
		l-1.1,5.8l2.76,2.479l3.31,0.28l1.38,2.48l-4.14,4.14l5.8,6.91l-1.38,10.76l1.93,6.07l-2.76,2.76l1.1,7.18l-3.03,1.931l-1.66,7.46
		l-3.86,3.31l-2.49-0.83l-4.14-9.66h-4.97l-5.52,9.66l-4.41,4.42l-0.83,3.58l-6.35-1.649v-4.42l-3.59-0.551l-8.56,1.101l-2.76,4.97
		l-3.31-6.07l-1.38,9.38l-5.52,1.11l-4.42,5.8l-6.07,1.38l-0.27,4.141l-10.49,3.58L153.63,482.55z"/>
	<path id="XK-GN" fill="#1E3250" stroke="#1E3250" stroke-width="0.5" d="M425.38,387.03l1.08-8.5l-1.93-3.58l1.38-2.21l9.38,1.38
		l2.49-6.63l0.27-2.76l-5.52-3.86l-0.55-4.69l2.489-3.59l-6.35-7.729l4.14-8.011l5.24-3.31l4.7,0.28l2.2,2.76l3.869,1.38l9.11-3.87
		l1.38,2.49l5.79,1.38l1.94,4.41l6.62,2.21l4.42-2.48l-1.11-8.279l5.25-6.351h4.97l2.48,3.311l3.04-1.931l6.62,3.591l1.66-2.49
		l5.239-1.931l-2.76-6.899l-5.24-3.86l-1.109-6.35l-3.86-1.66l-3.31-3.59l0.819-5.79l3.32-1.38l-3.04-5.53l1.93-1.38l-1.38-3.58
		l-4.14-1.11l-1.93-3.31l-6.631-2.21v-3.31l-5.79-5.8l6.351-4.69l2.76,0.55l3.59,3.59l9.66,0.83l1.1-8.01l4.141-1.38l3.59-7.73
		l-0.36-4.33l0,0l17.83-0.11l13.5,3.24l11.33,7.33l13.3,23.38l8.49,7.28l7.101-2.91l2.42-4.51l10.77-10.94l7-0.37l10.46,8.45
		l1.49,15.86l4.92,8.11l-2.87,2.86l-10.88,5.021l-9.11,15.8l-2.25,16.49l-4.68,14.229l-6.72,7.96l-17.84,9.03l-9.9,9.12l-2.5,7.35
		l2.81,6.311l-3.71,17.62l-10.319,7.47l-5.4,9.99l-0.62,8.869l3.74,8.12l6.75,3.271l-1.38,8.82l1.03,11.609L505.18,479.9
		l-12.33-6.341h-8.52l-2.43,1.49l-1.73,7.55l-3.05,2.33L465,485.68l-4.8,2.391l0,0l-3.101-5.03l-3.859-1.93l-7.181,1.1l-2.21-3.86
		l-3.31-0.83l-3.87,1.931l-1.93-3.04h-2.21l-6.9-12.42l-2.76-0.55l-0.55-7.45l2.479-6.351l3.59-0.279l1.66-9.38l-8.01,1.93
		l-2.48-3.86l-4.42-0.56l1.66-8l1.931-1.66h3.59l4.689-4.41l3.04-0.28l4.69,3.86v-3.31l2.49-2.48l-6.08-6.63l3.869-13.8l-6.63-4.971
		l-1.38-4.409l0,0L425.38,387.03z"/>
	<path id="XK-PE" fill="#1E3250" stroke="#1E3250" stroke-width="0.5" d="M180.53,360.24l-0.84,0.08l0,0l-2.76,1.1l-3.86-6.07v-3.04
		l-2.21-2.76l1.65-3.859l-2.2-2.761l-7.18,1.65l-5.8-4.41l-7.17-1.11l-6.63,3.04h-5.8l-8-2.489l-6.35,3.87l-11.04,0.55l-3.04-2.21
		l3.87-4.41l-0.83-2.49l-3.86-0.55l-2.21-2.49l-1.38-2.76l3.31-1.38l-9.11-9.931l-3.04-0.55l-1.38,3.58l-6.9,3.04l-14.63-4.97
		l-4.69-3.311l-8-0.279l-4.14-6.9l-2.76-0.83l-0.83-3.58l5.24-6.91l-22.63-3.58l-5.96-4.34l0,0l2.43-4.76L26.01,280l-5.75-9.2
		l-6.68-2.16l-3.95-4.27l-3.29-1.04l-2.46-4.41L0.1,246.23l4.47-5.97l2.6-7.8l2.11-0.33l31.49,11.05l14.96-0.14l14.31,2.35l3.63-1.7
		l11.88-15.65l-2.8-8.7l0.86-2.4l14.86-11.53l13.3,2.07l46.83-8.66l5.54-3.25l3.06-4.96l0,0l12.77-1.65l11.04-4.42l1.38,4.14
		l5.8,0.55l3.03,3.04l1.11,3.59l3.03,1.65l3.04,4.42l-0.28,6.35h7.45l-0.55,8.28l-3.59,6.9v8.01l-4.41,8.83l1.38,5.52l4.14,3.59
		l-0.28,4.14l-1.65,4.69l-3.59,4.14l-3.59,0.28l-1.93,4.14l0.55,3.31l5.52,2.48l0.83,4.42l7.45,11.32l5.52-0.28l3.04-3.03l0.83-3.87
		l2.48-1.1l4.69,4.41l-2.21,2.49l2.76,1.65l1.66,4.97l-6.07,4.42l1.65,8.279l8.29,1.66l5.24,3.86l1.38,7.45l2.21,0.83l3.31-1.66l0,0
		l2.76-0.271l-0.28,4.141l0,0l-2.76,6.899l-11.04-0.55l-2.21-2.76l-8.55,3.86l-6.35,10.77l-0.55,5.24l-3.32,4.97l-3.31,1.66
		l0.28,3.58l-10.49,0.56l-4.97,2.2l-11.87-1.65l-5.52,0.83L180.53,360.24z"/>
	<path id="XK-UR" fill="#1E3250" stroke="#1E3250" stroke-width="0.5" d="M460.2,488.07l-10.061,11.59l-7.76,13.92l-8.45,26.439
		l-6.27,7.4l-6.891,1.49l-3.079-1.86l-8.801,1.11l-2.56-1.49l-2.57-9.02l-4.22-7.54l-9.25-9.36l-3.67-15.27l-6.31-5.45l-10.84-0.74
		l-4.09,4.19l-9.14,5.119l-5.26,7.82l-20.02,12.32l0,0l-6.08-14.51l-3.03-3.311l-6.08-1.11l-4.69-3.31l-11.04,0.28l-12.15-2.761
		l-0.55-4.42l2.49-0.83l2.21-3.029l-1.39-7.46l3.59-1.65l6.35,3.58l4.14-6.07l7.73-3.859l2.49-9.11l3.31-0.83l2.76,2.76l2.76-3.31
		l6.35-1.66l-2.49-2.76l-1.65-5.521l3.03-1.93l0.83-2.76l-2.21-3.04v-3.311l-2.76-0.55v-4.42l2.76-5.52l-3.31-2.48v-4.97l-2.76-3.59
		l-4.14-3.86h-4.97l-2.48-1.939l-0.28-3.03l3.59-1.66l5.52,2.76l1.66-3.31l-6.63-5.521v-2.76l3.59-0.28l1.1-4.14l4.14-0.271
		l1.11-1.659l-7.45-7.181l0.55-3.859l-16.84-4.42l-0.55-1.931l0,0l-0.53-4.2l0,0l10.19-1.319l1.1-3.04l6.9-4.69l6.08,1.66l1.38,4.41
		l6.9-1.38l1.1-3.03l5.52,4.41l8.28-0.55l6.35,3.04l10.21-4.7l3.87,3.32l10.76,0.83l2.49,7.17l3.04,0.279l6.07-3.87l3.59,1.11
		l6.9-2.49l6.899-0.27l3.59,2.76l4.141-0.55l4.96,7.17l2.21,0.28l1.38-2.761l2.49-0.829l0,0l1.649,4.42l0,0l1.38,4.409l6.63,4.971
		l-3.869,13.8l6.08,6.63l-2.49,2.48V427l-4.69-3.86l-3.04,0.28l-4.689,4.41h-3.59l-1.931,1.66l-1.66,8l4.42,0.56l2.48,3.86
		l8.01-1.93l-1.66,9.38l-3.59,0.279l-2.479,6.351l0.55,7.45l2.76,0.55l6.9,12.42h2.21l1.93,3.04l3.87-1.931l3.31,0.83l2.21,3.86
		l7.181-1.1l3.859,1.93L460.2,488.07z"/>
	<path id="XK-PZ" fill="#1E3250" stroke="#1E3250" stroke-width="0.5" d="M330.96,528.74l-4.71,3.56l-9.36,1.351l-6.13,2.699
		L296.53,551.7l-12.26,0.09l-7.56,4.46l-13.19,2.05l-2.6,2.05l-14.27,23.511l1.11,21.739l4.57,10.67l-1.18,9.61l5.16,9.69
		l-12.26,11.96l-3.7,5.47l-22.86,13.99l-2.91,7.37l-7.97,10.229l-4.54,8.891l-4.12,2.819l-5.3-2.04l-4.81,2.23l-3.95-0.51
		l-1.94-1.391v-4.91l-4.02-12.31l1.04-9.17l-1.11-10.57l4.4-3.52l7.2-0.88l-0.13-3.381l-5.96-14.47l14.89-11.36l2.29-9.84
		l-0.66-6.54l-4.4-6.04l-5.02-15.09l-0.97-9.89l-8.28-8.04l-5.44-10.51l3.74-7.16l-1.62-4.84l2.21-5.771l-3.98-9.03l0.66-2.93
		l-5.16-6.56l0.69-1.82l-4.54-9.82l-2.77-12.67l-8.1-8.3l-0.73-4.47l-2.55-2.15l0,0l2.05-3.27l10.49-3.58l0.27-4.141l6.07-1.38
		l4.42-5.8l5.52-1.11l1.38-9.38l3.31,6.07l2.76-4.97l8.56-1.101l3.59,0.551v4.42l6.35,1.649l0.83-3.58l4.41-4.42l5.52-9.66h4.97
		l4.14,9.66l2.49,0.83l3.86-3.31l1.66-7.46l3.03-1.931l-1.1-7.18l2.76-2.76l-1.93-6.07l1.38-10.76l-5.8-6.91l4.14-4.14l-1.38-2.48
		l-3.31-0.28l-2.76-2.479l1.1-5.8l-7.73-1.931l-0.82-3.31l-6.9-4.97l-18.77-1.38l-1.66-10.21l-5.52-0.28l-2.49-1.66l-2.2-6.07
		l-3.59-1.93l0,0l-2.2,0.2l0,0l1.92-2.351l5.52-0.83l11.87,1.65l4.97-2.2l10.49-0.56l-0.28-3.58l3.31-1.66l3.32-4.97l0.55-5.24
		l6.35-10.77l8.55-3.86l2.21,2.76l11.04,0.55l2.76-6.899l0,0l0.26-3.891l0,0l6.65-0.97l5.52,3.04l-0.83,4.97l-4.14,4.141v2.76
		l8.28,5.52l-0.55,6.9l-3.04,2.76l-0.55,7.17l-3.31,3.87l1.38,5.8l5.24-5.52l4.69-0.561l2.49-2.21h6.62l2.49-6.069l2.2-0.55
		l1.38,4.14l1.94,0.83l-0.28,6.62l-5.52,0.56l1.93,5.79l-3.59,4.69l2.76,2.21l5.8-4.141l6.07,1.931l1.94,7.729l0,0l0.55,4.42l0,0
		l0.55,1.931l16.84,4.42l-0.55,3.859l7.45,7.181l-1.11,1.659l-4.14,0.271l-1.1,4.14l-3.59,0.28v2.76l6.63,5.521l-1.66,3.31
		l-5.52-2.76l-3.59,1.66l0.28,3.03l2.48,1.939h4.97l4.14,3.86l2.76,3.59v4.97l3.31,2.48l-2.76,5.52v4.42l2.76,0.55v3.311l2.21,3.04
		l-0.83,2.76l-3.03,1.93l1.65,5.521l2.49,2.76l-6.35,1.66l-2.76,3.31l-2.76-2.76l-3.31,0.83l-2.49,9.11l-7.73,3.859l-4.14,6.07
		l-6.35-3.58l-3.59,1.65l1.39,7.46l-2.21,3.029l-2.49,0.83l0.55,4.42l12.15,2.761l11.04-0.28l4.69,3.31l6.08,1.11l3.03,3.311
		L330.96,528.74z"/>
</g>
</svg>
