<?xml version="1.0" encoding="utf-8"?>
<!-- Generator: Adobe Illustrator 15.0.0, SVG Export Plug-In . SVG Version: 6.00 Build 0)  -->
<!DOCTYPE svg PUBLIC "-//W3C//DTD SVG 1.1//EN" "http://www.w3.org/Graphics/SVG/1.1/DTD/svg11.dtd">
<svg version="1.1" id="Layer_1" xmlns:amcharts="http://amcharts.com/ammap"
	 xmlns="http://www.w3.org/2000/svg" xmlns:xlink="http://www.w3.org/1999/xlink" x="0px" y="0px" width="1262.5px"
	 height="786.5px" viewBox="0 0 1262.5 786.5" enable-background="new 0 0 1262.5 786.5" xml:space="preserve">
<defs>
	
	
		<amcharts:ammap  projection="mercator" leftLongitude="20.908629" topLatitude="58.085902" bottomLatitude="55.672529" rightLongitude="28.243214">
		</amcharts:ammap>
</defs>
<g>
	<path id="LV-DGV" fill="#1E3250" stroke="#1E3250" stroke-width="0.5" d="M946.27,657.96l3.961,10.19l2.039,15.359l-8.52,3.48
		l-3.84,4.92l-5.4-2.88l-4.07,2.76l-3.84-6.12l3-4.32l-8.279-14.399l4.319-1.55l12.83,5.51L946.27,657.96z"/>
	<path id="LV-JEL" fill="#1E3250" stroke="#1E3250" stroke-width="0.5" d="M473.28,448.76l-2.4-0.96l-2.56,2.88l4.96,2.4L472.8,455
		l-11.359,3.68l-3.681,5.12l-2.399-1.76l0.64-10.88l-6.56-5.92l-2.561-5.92l3.36-2.721l5.6,2.881l5.76-4.471l0,0l2.381-1.34l0,0
		l10.579,1.66l-0.8,7.67l2.561,3.36L473.28,448.76z"/>
	<path id="LV-JKB" fill="#1E3250" stroke="#1E3250" stroke-width="0.5" d="M817.05,498.03l-0.16-1.08l0,0l1.601-11.601l0,0
		l8.5-1.479l8.399,3l-0.3,2.5l-3.899,1.6v3.101l0,0l-4.4,7L817.05,498.03z"/>
	<path id="LV-JUR" fill="#1E3250" stroke="#1E3250" stroke-width="0.5" d="M505.13,342.16l-8.899,9.7l-7-1.301l-9,4.4l-6.5-4
		l-1.301,5.6l-13.29,1.301l-1.5,2.899h-8.199l-3.4-2.6l-2.2,6.8h-8.02l-2.9-2.7l-9.12-1.17l0,0l-2.59-2.2l0,0l0,0l0,0l0.87-8.02
		l12.439-4.32l0,0l11.69,4.38l10.57,0.431l14.34-2.53l25.43-10.34l0,0L505.13,342.16z"/>
	<path id="LV-LPX" fill="#1E3250" stroke="#1E3250" stroke-width="0.5" d="M5.23,501.97l-2.4-14.3l2.32,0.8L2.14,486.4l2.24-0.221
		l0.9-6.449l8.42,1.119l-2.26-3.13l-1.24,2.49l-5.42-1.58l4.8-19.67l0,0l8.96,1.45l-0.1,11.22l5.35-0.1v9.55l-5.55,3.6l-2.8,5.301
		l0.2,6.189l0,0l-1.3,1.4l0,0l-3,0.3l-2.7,4.2L5.23,501.97z"/>
	<path id="LV-REZ" fill="#1E3250" stroke="#1E3250" stroke-width="0.5" d="M1077.73,482.75l2.859,2.53l-0.3,7.069l-4.479,11.36
		h-1.921l-1.439-4l-4.32-0.64l-0.319-6.88l1.92-6.721L1077.73,482.75z"/>
	<path id="LV-RIX" fill="#1E3250" stroke="#1E3250" stroke-width="0.5" d="M564.21,348.96l-1.2,0.47l0,0l-13.8,9.96v11.16l6.24,7.8
		l0,0l6.67,4.75l-3.601,1.21l-14.59-6.92l0,0l-4.08-8.52l-2.279-0.24l-2.16,3.96l-3-2.399l-4.43,2.04l-2.29,4.909l0,0h-5.171l0,0
		l0.4-8.58l-20.29-10l0,0l4.4-5.8l6.5-3.6l-1.9-3.7l3.9-0.8l-2.601-3l-5.8,0.5l0,0l-8.58-3.67l0,0l10.62-7.57l7.76-10.93l13.75-5.87
		l0,0l5.351,4.5v3.6l5.6,0.8l0,0l3.39,2.9l1.801,7.79l10.3,3.9L564.21,348.96z"/>
	<path id="LV-VEN" fill="#1E3250" stroke="#1E3250" stroke-width="0.5" d="M92.71,221.7l2.04-5.37l0.81,1.72l2.22-3.15l-3.32-1.62
		l3.55,1.06l3.7-3.62l9.05-17.84l4.45,4.19l2.9,17.69l-9.6,4.1l1.4,8.3l-3.2,2l-2.5-4l-1.8,6.6L92.71,221.7z"/>
	<path id="LV-VMR" fill="#1E3250" stroke="#1E3250" stroke-width="0.5" d="M755.53,172.29l0.85,5.15l-2.96,4.4H741.98l0,0
		l-1.73-10.99l0,0l12-2.55L755.53,172.29z"/>
	<path id="LV-001" fill="#1E3250" stroke="#1E3250" stroke-width="0.5" d="M1035.061,590.31l4.569-2.659l2.24-4.721l6.88,2.4
		l20.14,0.12l0,0l-1.52,7.68l6.71,7.2l-5.75,7.439l-14.29,3.591l3.04,1.68l-1.36,4.88l3.12,2.24l0,0l-4.08,5.76l-8.32,1.92
		l-0.8,13.12l-6.239,5.25l-13.511-2l-6,4.07l-8.939-5.15l0,0l-4.46-9.55l3.479-7.7l-6.609,0.69l-3.671-10.59l-3.5-3.4l0.811-5.36
		l0,0l4.93-0.33l2.721,2.24l1.439-2.96l-2-4.88l6.96-5.521l22.61-0.75L1035.061,590.31z"/>
	<path id="LV-002" fill="#1E3250" stroke="#1E3250" stroke-width="0.5" d="M732.5,464.26l-6.87-0.12l-3.12,6.841l-22.02-15.83l0,0
		l0.96-4.771l8.56-3.68l0.561-6.88l-3.84-1.681l-1.28-3.76l4.96-2.8l0,0v-0.14l0,0l4.68-2.921l11,4.2l0,0l3.4,8l-0.7,10.7
		L732.5,464.26z"/>
	<path id="LV-003" fill="#1E3250" stroke="#1E3250" stroke-width="0.5" d="M85.17,376.59l6.11,4.67l0.76,7.65l13.8-1.021l7.97,15.99
		l8.38,0.49l8.99,7.45l3.04,6.399l-1.01,3.891l3.18,0.699l-0.23,6.061l-2.71,2.14l11.14,4.83l0,0l1.54,15.48l-4.56,4.87l-5.98,2.04
		l4.03,7.51l-0.3,5.359l0,0l-13.69,4.521l0,0l-10.39-3.5l-2.5,4.8l-4.2-1.9l-2.6,2.101l-3.2-3.8l0,0l-0.1-0.9l0,0l6.7-3.5l-3.6-24
		l-5.4-2.4l-19,5.4l-4.1-4.5l0.4-4.89l-5,2.3l-0.89-6.7l-8.2-3.5l-7.5-7.1l-0.34-4.74l0,0l2.7-2.75l-2.35-15.25l4.9-1.07l0.7-5.8
		l20.9-5.05l-0.95-11.3L85.17,376.59z"/>
	<path id="LV-004" fill="#1E3250" stroke="#1E3250" stroke-width="0.5" d="M848.32,618.06l-12.23,7.82l-5.939-10.11l-12.431-8.01
		l1.931,6.11l5.859,4.58l-5.59,3.7l-0.42,6.159l-2.35,0.551l0,0l-22.28-10.17l1.76-10.091l-3.41-3.189l-0.25-5.3l-4.479,3.88
		l-4.71-0.09l0,0l1.439-9.83l8.101-17.301l0,0v-3.979l0,0L812,571.77l13.11,4.801l3.08,14.819l12.06,6.11l0.72,2.4l-3.239,4.199
		l4.38,6l5.159,1.32L848.32,618.06z"/>
	<path id="LV-005" fill="#1E3250" stroke="#1E3250" stroke-width="0.5" d="M650.01,35.72l0.42-0.09l0,0l0.37,22.56l5.3,3.4l4.601,24
		l8.3,6l4.3-1.7l5.3,3.1l0,0l4.101,6.5l7.84,1.8l3.14,11.77L688.4,124.1l4.47,3.57l-1.511,6.03l2.761,2.7l0,0l-6.62,1.18l1.979,7.37
		l-2.04,2.88l-5.46-0.12l-1.199-4.8l-2.94-1.2l-11.64,10.98l-5.16-1.26l0,0l-0.01-0.94l0,0l1.329-9.4l-10.1-5.4l-1.5-15.82l-7.2-4.7
		l-8.5,0.2l-9.3-11.3h-3.4l0,0l0,0l0,0l-7.46-27.75l-5.92-7.04l5.44-6.4l-3.68-4.32l-3.811-17.21l0,0l1.82-1.47l6.63,6.2l3.75-5.66
		l4.31-0.32l2.91,3.7l3.67-4.49l4.75-1.08l0.17-5.6l10.69-2.47L650.01,35.72z"/>
	<path id="LV-006" fill="#1E3250" stroke="#1E3250" stroke-width="0.5" d="M97.32,316.5l9.13,7.63l4.3,0.601l-0.6,6.779l9.9,10.4
		l3.69,12.1l-2.49,4.101l-7.9,2.699l-1.8,4.101l-9.5-1.601l-4.5,8.7l-9.21-3.26l0,0l-8.84-2.31l0.78-3.04l-3.5,1.47l-4.01-2.271
		l-0.1-6.33l0,0l9.56-0.01l-0.71-4.5l3.57-3.29l-1.6-17.319l4.49,0.01l-1.36-8.851l3.72-1.71l0.07-5.09L97.32,316.5z"/>
	<path id="LV-007" fill="#1E3250" stroke="#1E3250" stroke-width="0.5" d="M945.811,218.31l7.97-9.72l11.68,1.44l5.11-9.6
		l0.96-12.47l5.76-3.52l10.24-0.64l-2.72-6.24l2.399-1.44l0.8-6.08l-3.84-6.72l2.28-4.18l0,0l4.78-3.44l0.939-7.14l10.15-5.37
		l4.14,4.11l-0.43,5.52l5.25-3.38l8.8,2.47l2.6,7.24l6.61,1.47l6.479,4.95l23.541,3.63l14.97,9.92l3.8-5.44l6.65,3.94l14.84-5.38
		l7.619,0.69l-0.369,5.72l2.04-0.88l1.45,3.82l-3.051,15.68l-2.07-0.4l-3.149,11.32l7.41,4.28l5.92-1.5l11.319,6.48l4.58,7.89l0,0
		l0.24,12.04l-9.22,6.75l-8.06,1.34l-0.561,7.95l-3.78,0.72l-0.239,3.69l-2.09,0.66l0,0l-1.65-0.19l0,0l-6.1,1.8l-1.08-7.7
		l-6.24-0.31l-0.311,7.45l-4.02-0.8l-5.311,2.82l-8.869-9.91l-9.58,7.83l0.22,2.64l-8.91-0.03l-2.53,6.3l-4.29-2.76l-1.159,3.26
		l-5.82,1.08l0,0l-19.01-7.23l0.619-3.57l4.541-3.2l-8.11-3.32l-8.11-8.18l-18.9,2.37l-2.119-4.64l-10.08,1.03l-5.45-4.14
		l-3.601,1.03l0.121,5.32l-4.78-0.03l-6.11-4.2l0.49-4.95l-8.21-0.74l1.72-4.52l-6.8-4.45l-1.45-7.38l0,0L945.811,218.31z"/>
	<path id="LV-008" fill="#1E3250" stroke="#1E3250" stroke-width="0.5" d="M772.77,292.41l-6.13,8.02l9.24,1.8l5.61,8.94l-0.08,8.4
		l-14.8,13.189l-4.08-3.91l-3.75,0.48l2.95,5.75l-3.271,3.68l0.3,3.42l0,0l-3.99,0.58l1.971,5.431l-12,12.81l-4.44-3.33l-3.95-12.22
		l-10.77,4.149l0.229,2.9l-4.25,1.97l0.95,2.71l-3.41,1.57l1.58,3.26l-19.05-6.89l0,0l1.4-5.76l-2.69-4.25l2.12-2.13l-1.979-5.08
		l0,0l1.56-6.721l-6.24-10.08l0.36-3.119l6-4.2l-8.76-10.2l0,0v-1.32l0,0l11.68-2.72l6.56-11.03l-5.199-1.52l-2.08-19.92l-11.92-3.9
		v-5.44l0,0l6.26-4.24l10.8,2.7l4.9-7.9l0,0l0.01-0.09l0,0l7.47-0.68l7.101,5.1l3.699,5.6l-1.199,6.2l8.199,2.2l-2.8,6.49l4.4,6.2
		l6.899,2.5l4.5,7.8l7.49,2l1.5-4.4L772.77,292.41z"/>
	<path id="LV-009" fill="#1E3250" stroke="#1E3250" stroke-width="0.5" d="M986.45,159.14l-2.28,4.18l3.84,6.72l-0.8,6.08
		l-2.399,1.44l2.72,6.24l-10.24,0.64l-5.76,3.52l-0.96,12.47l-5.11,9.6l-11.68-1.44l-7.97,9.72l0,0l-2.301-2.29l0,0l-4.439,3.43
		l-4.75-2.87l0.64-3.15l-4.76,2.59l-3.771-1.43l-2.29,2.55l4.71,7.39l-9.369,0.99l-1.681,5.14l-5.77-0.16l0.689,4.55l5.72-3.24
		l1.681,6.35l-14.521,3.58l-12.64-4.14l0,0l-0.11-10.71l5.771-2.96l-2.9-1.4l-0.489-3.99l3.289-2.21l0.15-5.83l2.72-1.93
		l-7.229-4.37l1.189-4.74l3.99,0.25l1.09-2.53l-1.67-13.99l0,0l10.49-2.32l-4.19-1.19l0.421-4.31l-2.811-1.54l0.19-5.29l5.2-9.17
		l0,0l6.31,2.6l11.3-1.03l5.12,15.93l9.96,3.81l0.84-5.16l3.67-3.16l0.641,6.85l3.77,2.35l0.35-6.04l6.23-8.1l4.05-0.22l-0.739-2.44
		l4.56-2.45l5.52,0.88l0.88-5.54l6.221,3.88l-2.641,3.26l2.57,1.12l2.29-4.1l-1.229-2.44l2.68,2.38l1.31-2.66L986.45,159.14z"/>
	<path id="LV-010" fill="#1E3250" stroke="#1E3250" stroke-width="0.5" d="M372.31,532.97l-1.9,0.851l1.95,8.63l-15.02,9.99
		l-3.54-5.57l-4.66,0.97l-3.18-2.84l-3.67-11.88l2.28-1.12l-2.7-9.86l-9.49-2.909l-3.97,4.699l0,0l-3.87-0.729l-2.96,2.399
		l-15.63-8.59l-11.63-1.109l-0.48-7.08l6.41-1.561l-8.93-10.79l4.32-2.76l-0.6-7.08l3.6-6.479l-1.07-7.311l0,0l3.7,2.59l4.26-1.83
		l-1.13-1.76l4.7,0.61l0.35-1.71l0,0l4.14,0.43l0.12,7.67l3,1.32l7.8-8.75l8.28-3l-3.36-1.92l1.08-3.721l5.16-1.079l4.68,5.64
		l6.72-2.19l6.36,8.88l4.44,1.681l-2.4,3l2.64,11.64l-1.44,7.8l7.07,3.24l-1.44,5.28l4.32,2.399l0,0l1.44,2.391l0,0l-6,8.399l6,4.92
		L372.31,532.97z"/>
	<path id="LV-011" fill="#1E3250" stroke="#1E3250" stroke-width="0.5" d="M550.32,318.92l4.79-6.479l-0.801-5.28l12.16-6.4
		l2.48-19.6l0,0l4,0.24l0,0l2.63,0.24l0,0l13.12,2.32l6.56,21.04l0,0l-0.85,3.82l0,0l-6.29,8.1l-12.3,4.9l-3.2-1.4l-7.4,9.2
		l-13.399-4.4L550.32,318.92z"/>
	<path id="LV-012" fill="#1E3250" stroke="#1E3250" stroke-width="0.5" d="M470.91,399.06l-5.01-2.39L460.8,383.6l-13.76-9.899
		l-2.68,2.06l-1.94-4.1l-16.41-0.3l0,0l-0.08-3.471l0,0l-2.13-6.8l0,0l9.12,1.17l2.9,2.7h8.02l2.2-6.8l3.4,2.6h8.199l1.5-2.899
		l13.29-1.301l1.301-5.6l6.5,4l9-4.4l7,1.301l8.899-9.7l0,0l5.8-0.5l2.601,3l-3.9,0.8l1.9,3.7l-6.5,3.6l-4.4,5.8l0,0l-8.399,9.301
		l-3.801,0.399l-7,5.8l4.261,16.671l0,0l-3.681,8.56l-6.47-4.8l-2.16,0.96v3.84l-2.45-0.22l0,0L470.91,399.06z"/>
	<path id="LV-013" fill="#1E3250" stroke="#1E3250" stroke-width="0.5" d="M598.72,415.49l0.261,11.24l0,0l-5.66,0.21l-9.92,10.22
		l-9.9,2.32l-2.3,2.199l2.939,0.83l-2.12,1.01l0,0l-16.25-7.06l-3.689-7.93l0,0l-2.34-2.99l0,0H548l0,0l-2.37-6.8l7.09-4.4
		l2.101,3.9l2.5-1.601l-0.2-4.899l-3.5-2.8l2.7-5.5l6.1,4.3l9.6-4l7.7,1.3L598.72,415.49z"/>
	<path id="LV-014" fill="#1E3250" stroke="#1E3250" stroke-width="0.5" d="M1087.05,385.68l0.48-7.609l-2.96-2.801l1.439-1.68
		l5.04-2.479l11.271,1.76l2.24-13.68l12.079-4.24l4.8-5.3l5.28,0.399l-3.739-11.68l0,0l5.88,1.56l6.579-3.149l0,0l-0.369,1.819
		l8.74,0.591l-4.801,24.92l-2.449,2.21l-5.86-0.771l-2.74,6.37l-2.24,18.28l0,0l-6.609-1.26l-2.04-4.851l-3.95,0.55l-3.08-6.64
		l-5.69,0.03l1.75,5.84L1087.05,385.68z"/>
	<path id="LV-015" fill="#1E3250" stroke="#1E3250" stroke-width="0.5" d="M1041.91,269.97l5.82-1.08l1.159-3.26l4.29,2.76l2.53-6.3
		l8.91,0.03l-0.22-2.64l9.58-7.83l8.869,9.91l5.311-2.82l4.02,0.8l0.311-7.45l6.24,0.31l1.08,7.7l6.1-1.8l0,0l1.189,0.13l0,0
		l-0.189,3.25l-10.08,4.68l-7.92,10.44l-4.2,22.46l19.56,21.23l4.681-2.88l1.08,3.96l-2.521,4.319l1.801,7.801l6.119-2.16
		l5.881,1.92l1.67,4.92l0,0l3.739,11.68l-5.28-0.399l-4.8,5.3l-12.079,4.24l-2.24,13.68l-11.271-1.76l-5.04,2.479l-1.439,1.68
		l2.96,2.801l-0.48,7.609l0,0l-8.58,5.59l6.08,0.86l-3.42,3.93l-4.61-2.89l-3.63,2.83l1.94,10.61l0,0l-0.75,0.149l0,0l-6.68,0.681
		l-6.971-3.381l-15.02,0.62l-3.32-6.5l-4.29,2.33l-2.689-2.52l-8.63,0.31l-0.12,4.2l-6.65-0.34l0.71-5.061l-7.91-1.56l-3.729,4.69
		l-5.641-8.74l0,0l2.58-3.23l0,0l3.73-1.96l4.11-7.8l0,0l11.779,0.13l10.24,2.72l3.2,4.08l5.59-0.08l11.04-15.04l3.52-0.159
		l3.36-3.841l4.91,1.841l3.439-5.2l-2.239-12.55l-1.44-1.21l-2.399,4.72l-6.24-3.36l-1.84-4.49l9.279-3.359l2.16-8.72l4.32-4.561
		l-2.08-3.76l-7.04,1.439l-9.2-2.96l-12.39-6.159l-0.08-2.33l-2.4-0.48l-2.88,3.2l-2.32-1.04l-1.76-2l1.2-7.521h-19.17l0,0
		l0.34-0.46l0,0l12.2-18.439l5.88-3.16L1041.91,269.97z"/>
	<path id="LV-016" fill="#1E3250" stroke="#1E3250" stroke-width="0.5" d="M576.94,481.08l0.43,4.75l5.12,0.479l4.16,10.71
		l5.909-2.96l3.921,5.601l4.479,2l-4,5.04l0.88,2.64l4.48,1.44l-2.08,8.1l-13.11,7.83l0.55,2.64l9.601,3.92l-8,8.48l7.52,6
		l3.04-2.88l7.33,2.58l0,0l0.32,10.109l-9.59,1.511l-11.54,7.47l-5.341-1.03l-5.029-5.02l-5.971,1.58l-3.229-7.271l-8.6-0.689
		l0.34,3.96l-14.141,5.449l-4.71,4.801l-9.25,1.12l-4.14-8.671l-8.26-0.819l-0.021-5.33l-4.359-3.78l-1.23-5.93l0,0l0.69-2.63
		l4.8-1.601l2.08-6.72l6.08-0.32l-2.08-8.319l4.96,2.88l9.76-0.8l-2.4-5.28l-7.84-1.28l-10.72-10.229l2.72-5.28l-3.16-14.42l0,0
		l6.03-7.561l0.101-4.38l0,0l17.029,4.511l11.99,6.069l4.32-7.67l8.8-2.56l3.36,1.92l2.399-3.36L576.94,481.08z"/>
	<path id="LV-017" fill="#1E3250" stroke="#1E3250" stroke-width="0.5" d="M776.5,151.48l18.23-1.66l6.8,8.08l-1.84,6.4l8.239,0.8
		l2.96,3.84l-8.56,3.12l3.36,6.96l4.96,2.32l5.04-5.2l0.72,5.76l-6.72,5.12l0,0l-7.601-0.88l-2.8,4.15l-4.16-1.51l-6.29,7.59l0,0
		l-10.649-1.35l-6.53,4.34l-0.641,5.81l-3.119,1.31l-2.141,0.22l-3.06-7.43l-7.8,5.12l-7.181-4.06l-2.359,2.9l0,0l-3.061-4.28
		l1.84-3.11l-3.359-9.28l1.2-4.72l0,0h11.439l2.96-4.4l-0.85-5.15l0,0l4.479-1.6l5.44-8.95l8.95-3.6l2.319-5.36l0,0L776.5,151.48z"
		/>
	<path id="LV-018" fill="#1E3250" stroke="#1E3250" stroke-width="0.5" d="M256.43,384.15l6.24,5.22l9.43-1.29l4.08,6.87l4.36-0.86
		l0.42,4.55l6.33-1.29l5.25,4.601l13.01-3.771l1.09,3.801l0,0l5.43,8.43l1.38,16.56l-3.88,0.65l2.69,1.89l-1.01,4.13l0,0
		l-3.42,0.341l-1.78,4.039l7.22-0.13l5.23,11.95l-3.11,1.561l-1.4,9.119l-10.21-1.22l-0.15,6.32l5.82,5.12l0,0l-0.35,1.71l-4.7-0.61
		l1.13,1.76l-4.26,1.83l-3.7-2.59l0,0l-10.63-18.189l-7.56-2.03l-1.56,6.35l-4.68,2.641l-1.5,4.14l-3.48-1.5l-0.3-13.37l-5.34,0.24
		l-4.44-5.64l1.32-18.08l-2.64-2.4v-6.24l-4.36,1.5l-3.66-9.42l4.98-26.12L256.43,384.15z"/>
	<path id="LV-019" fill="#1E3250" stroke="#1E3250" stroke-width="0.5" d="M776.72,152.78l-2.319,5.36l-8.95,3.6l-5.44,8.95
		l-4.479,1.6l0,0l-3.28-3.99l-12,2.55l0,0l-4.96-9.35l-10.64-6.32l-1.2-5.2l-10.75-12.24l-2.16-6.64l-10.55,6.24l-5.88-0.95l0,0
		l-2.761-2.7l1.521-6.04l-4.47-3.57l5.27-11.04l-3.13-11.77l-7.84-1.8l-4.101-6.5l0,0l5.9-5.36l5.59,0.2l8.4,5.5l0.7-9.9l-3.5-4.3
		l5.399-2.6l2.5,0.1l6.2,9.6l8.5,6.1l2.9-2.7l0,0l3.279,1.18l3.8,6.8l25.99-1.7l0,0h3.7l0,0l9.5,1.1l0,0l9.6,3.1l18.19,13.6l0,0
		l-2.4,5.69h-8.989l1.199,4.2l-5.1,3.1l1.2,8.2l-14.33,1.27l-0.37,2.78l-3.57,1.53l1.761,6l11.75,4.48l0,0L776.72,152.78z"/>
	<path id="LV-020" fill="#1E3250" stroke="#1E3250" stroke-width="0.5" d="M568.95,281.16l-2.48,19.6l-12.16,6.4l0.801,5.28
		l-4.79,6.479l0,0l-3-1.6l-7.69,5.699l0,0l-5.6-0.8v-3.6l-5.351-4.5l0,0l14.101-9.8l24.39-24.65l0,0L568.95,281.16z"/>
	<path id="LV-021" fill="#1E3250" stroke="#1E3250" stroke-width="0.5" d="M909.02,326.63l2.521,7.51l-1.44,6l6.24,5.761l-4.56,9.84
		l-6.8,1.279l1.52,6.801l-11.12-3.84l-3.36,2.88l-7.75,0.399l-4.56-12.24l-7.43,2.48l5.68-6.24l-1.76-16.479l2.08-2.96l-0.12-12.34
		l0,0l0.939-3.49l17.4,2.939l4.05-5.26l0.72,7.85L909.02,326.63z"/>
	<path id="LV-022" fill="#1E3250" stroke="#1E3250" stroke-width="0.5" d="M771.77,270.13l2.301,1.48l1.699,10.4l-2.699,2.3
		l-0.301,8.1l0,0l-11.1-5.2l-1.5,4.4l-7.49-2l-4.5-7.8l-6.899-2.5l-4.4-6.2l2.8-6.49l-8.199-2.2l1.199-6.2l-3.699-5.6l-7.101-5.1
		l-7.47,0.68l0,0l0.49-2.31l0,0l1.399-2.8l-2.5-2.9l2.3-4l0,0l0.62-1.63l0,0l13.86,4.26l2.1,3.3l-4.1,3.1l1.5,2.6l15.2-2.4
		l11.189,5.92l5.2,7.1l-1.7,11.39l6.7,3.4L771.77,270.13z"/>
	<path id="LV-023" fill="#1E3250" stroke="#1E3250" stroke-width="0.5" d="M1114.17,473.79l-3.9-1.95l-1.209-8.3l4.729-3.19l0,0
		l5-1.8l1.2-8.6l8-3.5l3.199-5.101l7-1.6l10.19,2.5l4.8-1.9l2,6.2l-8.399,0.101l11.7,4.3l2.3-3.3l-2.4-5l3.2-15.391l4.6,0.101
		l3.2,8.199l9.95-1.67l0,0l6.42,6.391l-0.85,10.989l5.359,13.311l2.59,2.99l11.19,0.33l2.75,2.84l0.05,6.52l-6.229,3.141
		l-1.65,4.199l1.229,5.48l3.961-1.74l1.83,1.59l-0.761,5.051l2.061,2.899l0,0l-8.22,0.14l-2.641,4.08l-2.99-6.119l-3.96-1.801
		l-3.72,5.16l-4.2,0.48l-3.12,6.479l-3.359,0.12l-2.76-1.2l0.239-6l-5.52-3.96l-1.44-4.08l-5.4-2.27l-2.279-4.68l-6.48,1.56
		l-1.319,4.79l-14.03-14.15l-2.76-0.359l-2.28,3.72l-11.64-6.84L1114.17,473.79z"/>
	<path id="LV-024" fill="#1E3250" stroke="#1E3250" stroke-width="0.5" d="M1139.57,652.91l-15.36-10.88l-2,2.3l1,6.7l-8.6-0.5
		l-28.591-16.79l-9.699,5.689l-1.801-2.989l4.101-13.601l-19.78-2.68l0,0l-3.12-2.24l1.36-4.88l-3.04-1.68l14.29-3.591l5.75-7.439
		l-6.71-7.2l1.52-7.68l0,0l3.75-2.48l7.33,0.181l2.42,0.399l-0.069,2.46l6.08,0.561l3.6-7.49l-1.84-3.07l9.68,1.12l4.08-2.479
		l1.23-5.351l10.369,5.59l9.67-2.239l4.301,1.479l0,0l6.6,11.23l5.9,2.8l9.3,0.1l8.399,4.3l5.4-2.199l2.391,3.1l5.899-5.2l7.101,0.7
		l10.979-8.36l2.5,0.2l0.021,6.08l3.88-2.28l0,0l0.409-0.83l0,0l2.36,3.181l-9.2,13.359l2.62,3.74l0,0l-3.53,5.04l-7.89-2.42
		l-3.35,1.69l-12.13,22.12l-4.99-1.83l-10.5,4.869l3.59,4.08l-5.25,4.33l1.63,5.67l-4.95,4.23L1139.57,652.91z"/>
	<path id="LV-025" fill="#1E3250" stroke="#1E3250" stroke-width="0.5" d="M1005.07,686.2l-1.851-7.931l5.57-6.819l-3.24-5.78
		l4.92-5.49l-5.58-4.34l-0.96-10.56l5.58,0.39l1.44-2.52l-4.46-9.561l3.479-7.7l-6.609,0.69l-3.671-10.59l-3.5-3.4l0.811-5.36
		l-0.66-3.01l-6.17,6.21l-5.439-4.08l-11.841,7.681h-7.439l-2.2-7.801l-6.71-1.149l-2.88,2.399l-8.5-3.85l-2.57-7.72l-2.85,2.29
		l-0.561,8.72l-5.76,0.56l-2.55-13.069l-6.91-7.271l-6.12,4.86l-6.16-6.97l-8.29,4.439l-6.109,1.59l0.77,0.561l6.471,8.91
		l-0.4,18.649l0.99,1.15l2.159,18.96l3.841,9.479l-2.28,3.12l-6.36-1.319l-6.6,5.21l-1.32,4.27h-2.88v5.57l6.84,1.56l-7.56,3.48
		l-1.8,5.399l2.88,5.521l9.84,7.68l-2.04,4.92l2.04,3.12l-2.88,2.04l-4.44-2.16l-7.939,1.61l5.52,15.29l7.4,7.13l6.93,1.28
		l4.98,10.399l13.58-0.149l9.829,7.75l12.86,1.58l6.261-1.9l3.689-7.6l10.53,1.819l4.04,5.511l6.609,1.369l2.91-5.899l11.93-4.98
		l8.67-22.34l4.16,0.24l5.33-7.83l0.61-14.62L1005.07,686.2z M943.75,686.99l-3.84,4.92l-5.4-2.88l-4.08,2.76l-3.84-6.12l3-4.32
		l-8.28-14.399l4.32-1.561l12.84,5.521l7.8-12.96l3.961,10.2l2.039,15.359L943.75,686.99z"/>
	<path id="LV-026" fill="#1E3250" stroke="#1E3250" stroke-width="0.5" d="M411.05,495.4l-3.2-13.32l-5.64-5.16l-1.44,5.16
		l-11.399,8.51l0.96,9l4.68,1.561l-2.04,4.199l-2.28,1.32l-10.08-3.72l-9.71,2.76l-3.68,4.33l0,0l-0.6-0.98l0,0l-4.32-2.399
		l1.44-5.28l-7.07-3.24l1.44-7.8l-2.64-11.64l2.4-3l-4.44-1.681l-6.36-8.88l-6.72,2.19l-4.68-5.64l-5.16,1.079l-1.08,3.721
		l3.36,1.92l-8.28,3l-7.8,8.75l-3-1.32l-0.12-7.67l-4.14-0.43l0,0l-5.82-5.12l0.15-6.32l10.21,1.22l1.4-9.119l3.11-1.561
		l-5.23-11.95l-7.22,0.13l1.78-4.039l3.42-0.341l0,0h3.74l1.58-2.84l2.93,1.101l-0.02-2.721l4.79-1.439l20.4-1.13l2.3,7.159l13.83,1
		l1.07-3.239l0,0v-1.3l0,0l10.87,3.39l1.73-1.96l-2.21-3.25l2.98-4.13l13.41,4.25l11.44-12.42l-6.17-7.08l4.09-1.38l5.75-7.761
		l1.67-0.79l1.54,4.41l10.87-1.62l6.25-5.189l0,0l3.4-0.61l3.75,18.3l-12.07,5.45l-5.38,6.58l-0.94,4.23l8.561,2.659l3.74,3.851
		l-5.881,1.16l3.711,6.689l-7.271,3.82l-0.19,5.65l-5.6,1.949l-0.49,4.891l13.561,1.949l1.029,2.99l-10.52,2.59l0.31,4.721
		l7.471,4.239l-4.4,10.69l0.98,3.1L411.05,495.4z"/>
	<path id="LV-027" fill="#1E3250" stroke="#1E3250" stroke-width="0.5" d="M269.98,128.76l-4.88,1.38l-1.6,9.92l2.56,6.24l8.96,9.73
		l-4.16,8.95l2.88,2.4l1.76,11.2l0,0l0.8,3.68l0,0l-8.48,3.68l-4.48-3.84l-1.92,0.96l-2.4,10.24l-4.79,3.2l-4.48,14.87l-8-2.08
		l-10.56,5.92l-1.44-7.36l-7.04-3.67l-2.56,4.32l-1.76-2.4l-4.32,2.23l-1.28,2.56l2.06,3.07l0,0l-10.31,3.24l-8.06-1.58l-9.93-6.74
		l16.32-8.08l2.16-3.43l-2.81-1.07l-1.21-4.62l4.61,1.22l10.13-9.69l5.09-0.31l-1.91-15.36l-4.38-9.46l0.39-6.23l2.07-0.16
		l-5.13-7.84l-4.4,2.83l3.45-4.49l-4.37-6.46l52.92-27.44l15.14-4.72L269.98,128.76z"/>
	<path id="LV-028" fill="#1E3250" stroke="#1E3250" stroke-width="0.5" d="M102.68,472.8l-4.22-2.88l-8.04,5.51l-1.32,3.36l4.2,6.36
		l-1.2,2.76h-3.48L73.5,475.43l-2.04,2.28l0.84,8.04l-8.03-0.36l0,0l-1.44-4.92l-10.56,2.04l-3.84-1.56l2.4-2.76l-2.4-1.921
		l-0.24-7.55l4.2-7.56l-5.78-14.771l0,0l0.95-4l3.55,0.15l2.1-3.2v-6.3l-6.85-9.94l3.95-5.56l5.4,1.25l0,0l0.34,4.74l7.5,7.1
		l8.2,3.5l0.89,6.7l5-2.3l-0.4,4.89l4.1,4.5l19-5.4l5.4,2.4l3.6,24l-6.7,3.5l0,0L102.68,472.8z"/>
	<path id="LV-029" fill="#1E3250" stroke="#1E3250" stroke-width="0.5" d="M421.21,358.89l-17.44,5.74l-14.319-2.8l-6.64,1.12
		l-6.56-3.84l-8.4,2.72l-4.87-0.88l4.47-7.76l7.2-2.96l-0.56-3.521l-4.08-0.16l-3.36-3.2l5.44-7.359l-2.48-4.23l7.76-3.439
		l0.24-4.96l3.44-2.79l-6.48-16.15l-7.6-5.36l-3.51,1.52l-10.4-8.08l7.04-4.8l1.2-8.56l3.59-2.72l-2.39-2.48l-0.92-11.67l0,0
		l-2.63-14.84l1.87-3.92l5.13-1.77l0,0l5.59,17.03l-0.14,9.03l9.85,22.16l0.27,16.34l3.5,6.12l15.95,12.82l23,4.319l5.69,12.091
		l4.859,4.899l0,0l-12.439,4.32L421.21,358.89z"/>
	<path id="LV-030" fill="#1E3250" stroke="#1E3250" stroke-width="0.5" d="M795.88,412.12L790,401.86l-12.24-4.801l-7.319,1.921
		l-6.78-4.2l0,0l0.13-6.58l-2.05,0.49l-3-3.931l2.12,0.311l-0.5-4.391l10.949-1.85l-7.3-7.28l5.05-10.34l-3.29-3.75L763.76,346
		l-4.13-1.05l0.76-3.17l0,0l1.78-2.311l12.37,8.16l11.17-7.49l-0.03,6.511l-2.439,2.06l2.149,4.13l11.46-8.04l1.9-4.16l4.83-0.06
		l3.45,5.97l2.63,0.71l4.49-3.91l5.859,6.101l0.4,3.359l7.32-0.739l0,0l0.1-0.141l0,0l9.4,9.83l-1.44,5.75l-8.28-0.24l-1.08,2.641
		l-5.279-2.4l-3.48,2.88l-3.72-1.319l-7.561,3.12l-4.68,4.8l-0.36,5.04l4.561,6.96l-0.8,4.74l0,0l-3.181,1.989l3.54,3.53l-3.35,4.32
		l0.649,4.14L795.88,412.12z"/>
	<path id="LV-031" fill="#1E3250" stroke="#1E3250" stroke-width="0.5" d="M571.17,351.11l-5.4-2.761l0,0l-1.56,0.61l0,0
		l-9.09-11.35l-10.3-3.9l-1.801-7.79l-3.39-2.9l0,0l7.69-5.699l3,1.6l0,0l1.5,6.3l13.399,4.4l7.4-9.2l3.2,1.4l12.3-4.9l6.29-8.1l0,0
		l3.399,1.199l-2.399,4.601l1.7,1.399l6.899-2.6l3.9,6.6l0,0l-2.8,2l-4-3.1l-4.301,5.4l2.101,12.689l-21.69,2.9l-1.8,3.5l2,3
		L571.17,351.11z"/>
	<path id="LV-032" fill="#1E3250" stroke="#1E3250" stroke-width="0.5" d="M64.27,485.39l-0.24,8.4l7.19,2.28l-0.36,7.319
		l6.24,8.641l2.4,8.76l-2.64,14.51l-5.76,9.48l0,0L52.39,546.1l-7.08-8.04l0,0l-2.88-23.27l-3.24-0.96l-4.2,3.12l-5.76-4.44
		l-1.44-18.479l-12.35,2.359l0,0l0.2-0.22l0,0l-0.2-6.189l2.8-5.301l5.55-3.6v-9.55l-5.35,0.1l0.1-11.22l-8.96-1.45l0,0l1.98-6.96
		l0,0l5.67,2.82l8.4-0.721l-0.36-10.56l3.6-5.521l9.34,10.521l8.4-2.15l0,0l5.78,14.771l-4.2,7.56l0.24,7.55l2.4,1.921l-2.4,2.76
		l3.84,1.56l10.56-2.04L64.27,485.39z"/>
	<path id="LV-033" fill="#1E3250" stroke="#1E3250" stroke-width="0.5" d="M892.96,237.6l12.64,4.14l14.521-3.58l-1.681-6.35
		l-5.72,3.24l-0.689-4.55l5.77,0.16l1.681-5.14l9.369-0.99l-4.71-7.39l2.29-2.55l3.771,1.43l4.76-2.59l-0.64,3.15l4.75,2.87
		l4.439-3.43l0,0l3.16,3.15l0,0l1.45,7.38l6.8,4.45l-1.72,4.52l8.21,0.74l-0.49,4.95l6.11,4.2l4.78,0.03l-0.121-5.32l3.601-1.03
		l5.45,4.14l10.08-1.03l2.119,4.64l18.9-2.37l8.11,8.18l8.11,3.32l-4.541,3.2l-0.619,3.57l19.01,7.23l0,0l-9.37,15.78l-5.88,3.16
		l-12.2,18.439l0,0l-1.56,2.11l0,0l-8.561,16.34l-13.21,6.94l0.181,5.43l2.779-0.49l-2.91,7.61l0,0l-11.76-1.42l-1.97-2.68
		l-7.811,2.279l-4,5.15l-2.779-2.03l-8.141,2.71l-10.439,7.48l-2.32-1.29l0,0l-4.19-22.13l-7.55-10.311l-2.81,1.3l-5.84-4.3
		l-3.03,3.561l-9.521,3.02l0,0l-7.75-9.11l-0.72-7.85l-4.05,5.26l-17.4-2.939l-0.939,3.49l0,0l-3.15-1.671l-8.26,3l-2.71-1.239l0,0
		l4.42-4.63l0.74-5.811l5.359-4.83l-0.069-3.9l-8.01-8.88l-2.73-11.01l-6.36-3.5l-9.569,0.43l0,0l-2.271-9.12l6.641-2.6l1.52,2.54
		l2.98-1.21l-1.82-5.62l0,0l5.8-5.03l6.38,3.63l5.87-2.79l17.99-0.19l-1.88-7.58l3.77,0.28l1.98-2.36L892.96,237.6z"/>
	<path id="LV-034" fill="#1E3250" stroke="#1E3250" stroke-width="0.5" d="M572.02,443.52l3,8.921l-0.64,2.56h-9.76l0.8,15.68
		l1.76,2.4l9.761,0.8v7.2l0,0l-5.601-3.2l-2.399,3.36l-3.36-1.92l-8.8,2.56l-4.32,7.67l-11.99-6.069l-17.029-4.511l0,0l2.71-1.41
		l3.84-9.14l-12.62-0.27l-0.49-3.721l-4.09,0.061l-1.78-5.25l3.84-1.221l-1.17,3.141l3.12,1.32l-0.42-3.181l5.28-0.64l-1.51-5.61
		l-3.051-0.189l3.87-2.62l-9.399-2.23l-2.07-4.279l0.67-2.32l2.54,0.24l2.04,3.819l3.7-0.37l-1.37-10.85l0,0l3.49-1.43l5.52,3.64
		l1.68-2.6l1.801,6.569l4.729,1.681l1.34-2.051l1.67,3.061l0.12-2.45l4.44-1.71l-3.45-1.77l2.311-0.61v-3.64l1,2.72l9.93-2.32
		l0.42-4.81l0,0l3.689,7.93L572.02,443.52z"/>
	<path id="LV-035" fill="#1E3250" stroke="#1E3250" stroke-width="0.5" d="M594.52,370.75l11.19-1.78l2.16,2.94h13.32l10.38-2.22
		l0,0l-0.28,1.659l0,0l-0.05,3.04l8.16,6.641l-0.641,1.76l-4.96,0.479l-3.52,3.28l-2.48-2.24l-3.76,0.561l-5.75,8.64l-8.24-2.64
		l-5.439,4.08l0,0l-6.88,3.04l0,0l-3.101,0.26l0,0l-10.09-10.17l0,0l2.19-7.74l-3.841-7.32l12.601,7.211L594.52,370.75z"/>
	<path id="LV-036" fill="#1E3250" stroke="#1E3250" stroke-width="0.5" d="M905.12,620.28l2.16,18.96l3.84,9.479l-2.28,3.12
		l-6.359-1.32l-6.601,5.211l-1.32,4.27h-2.88v5.56l6.84,1.561l-7.56,3.479l-1.8,5.4l2.88,5.52l9.84,7.681l-2.04,4.92l2.04,3.12
		l-2.88,2.04l-4.44-2.16l-7.939,1.61l0,0l-1.13-5.801l-4.88-6.58l-13.261-5.75l-4.72-5.859l-7.88-16.641l-25.14-14.069l-6.66-0.09
		l-0.03-6.341l-3.91-2.939l-1.859-5.8l0,0l2.35-0.551l0.42-6.159l5.59-3.7l-5.859-4.58l-1.931-6.11l12.431,8.01l5.939,10.11
		l12.23-7.82l0,0l6.449,6.591l7.421-5.87l2.859-7.62l4.851,4.189l2.75-6.96l-2.87-3.04l12.13-13.05l2.91-0.06l3.84,1.63l0.8,5.93
		l5.94-3.37l4.46,1.75l1.8,3.61l-2.05,3.08l0.76,9.91l3.189,3.7l0,0L905.12,620.28z"/>
	<path id="LV-037" fill="#1E3250" stroke="#1E3250" stroke-width="0.5" d="M642.72,297.71l-2.189,8.56l-4.88-0.159l3.92,4.069
		l-0.08,4.641l-8.24,2.56l-0.24,2.561l-4.479,1.76l-6.8-3.12l-2.511,1.67l0,0l-9.31-0.23l0,0l-3.9-6.6l-6.899,2.6l-1.7-1.399
		l2.399-4.601l-3.399-1.199l0,0l0.85-3.82l0,0l8.37-3.09l3.101-6.29l15.89,3.59l0,0l1.5,1l10.2-6.29l6.899,0.2L642.72,297.71z"/>
	<path id="LV-038" fill="#1E3250" stroke="#1E3250" stroke-width="0.5" d="M771.05,470.16l0.45,2.649l8.91-1.89l-0.87,8.17
		l-6.08,2.561l-2.91,7.699l8.15,9.091l0.06,4.14l0,0l-7.26,7.84l-6.01-1.91l-8.36,11.69l-13.47,1.06l-14.01-3.83l-0.881,3.37l0,0
		l-23.609-3.75l-11.49,0.601l-3-14.301l-3.7-1.899l-4.359-10.561l0,0l-0.7-11.699l-7.4-4.9l-1.399-5.9l0,0l10.05-2.569l3.72-2.94
		l0.12-3.47l0,0l6.36-5.82l7.13,1.561l0,0l22.02,15.83l3.12-6.841l6.87,0.12l0,0l8.52-8.029v-2.58l8.4-3.841l13.38,9.841l0,0
		l0.42,9.229L771.05,470.16z"/>
	<path id="LV-039" fill="#1E3250" stroke="#1E3250" stroke-width="0.5" d="M832.78,310.29l-5.771,0.01l-7.67-10.44l-10.56-2.76
		l-1.44-2.39l1.92-5.4l-3.479-4.2l1.75-9.26l0,0l1.85-0.22l0,0l7.68-1.68l4.431,7.8l4.08,1.32l9.72-1.56l12.53-8.07l0,0l9.569-0.43
		l6.36,3.5l2.73,11.01l8.01,8.88l0.069,3.9l-5.359,4.83l-0.74,5.811l-4.42,4.63l0,0l-6.8-4.82l-6.78,5.5l-11.96-7.44L832.78,310.29z
		"/>
	<path id="LV-040" fill="#1E3250" stroke="#1E3250" stroke-width="0.5" d="M330.6,384.24l1.37,1.3l-9.29,7.6l4.2,2.091l1.5,4.6
		l7.19,2.4l13.7-4.301l5.8,21.2l2.5,4.7l3.3,1l1,4.2l0,0v2.5l0,0l-1.07,3.239l-13.83-1l-2.3-7.159l-20.4,1.13l-4.79,1.439
		l0.02,2.721l-2.93-1.101l-1.58,2.84h-3.74l0,0l1.01-4.13l-2.69-1.89l3.88-0.65l-1.38-16.56l-5.43-8.43l0,0l4.06-6.65l4.4-2.39
		l-1.3-8.601l4.7-1.8L330.6,384.24z"/>
	<path id="LV-041" fill="#1E3250" stroke="#1E3250" stroke-width="0.5" d="M426.01,371.36l16.41,0.3l1.94,4.1l2.68-2.06l13.76,9.899
		l5.101,13.07l5.01,2.39l0,0l0.05,0.04l0,0l-2.59,18.601l0,0l-5.49,1.31l-1.76,4.641l-5.601,1.92l2.08,2.88h6.881l1.76,4.64
		l-2.08,0.48l0,0l-2.561,1.439l0,0l-5.76,4.471l-5.6-2.881l-3.36,2.721l2.561,5.92l6.56,5.92l-0.64,10.88l2.399,1.76l3.681-5.12
		L472.8,455l0.48-1.92l-4.96-2.4l2.56-2.88l2.4,0.96l0,0l0,0l0,0l7.68,1.92l7.36,5.44l9.109,0.96l6.4,11.68l2.88,13.44l10.6,8.71
		l0,0l0,0l0,0l-5.26,2.27l-9.45-0.76l-5.149,7.09l-8.33,1.181l-6.08,11.25l-0.13,3.029l3.18,1.771l-2.939,1.64l1.159,4.67
		l-2.579,0.36l-0.7,3.28l8.96,0.67l-2.91,5.39l0.68,9.49l0,0l-11.06-0.61l-3.75,6.271l-2.59-0.78l2.42-11.94l-2.471-3.399
		l-22.06,3.76l-14.77,8.76l-17.94-5.85l-3.55-5.54l-4.78-2.28l0,0l8.11-2.09l5.77-6.37l-5.52-7.07l-1.11-5.38l1.85-2.7l-4.489-1.069
		l4.319-7.021l-5.09-3.529l0,0l0,0l0,0l6.811-3.801l-0.98-3.1l4.4-10.69l-7.471-4.239l-0.31-4.721l10.52-2.59l-1.029-2.99
		l-13.561-1.949l0.49-4.891l5.6-1.949l0.19-5.65l7.271-3.82l-3.711-6.689l5.881-1.16l-3.74-3.851l-8.561-2.659l0.94-4.23l5.38-6.58
		l12.07-5.45l-3.75-18.3l-3.4,0.61l0,0l-3.54-21.19l5.51-2.42l0,0L426.01,371.36z"/>
	<path id="LV-042" fill="#1E3250" stroke="#1E3250" stroke-width="0.5" d="M831.19,494.07l3.579,5.14l21.19,7.79l5.69,14.71l0,0
		l7.54,2.67l3.31,6.22l4.66,25.11l3.25,6.63l-3.38,12.36l15.29,8.88l4.87,7.36l0,0l0.869,0.63l0,0l6.471,8.92l-0.4,18.649l0,0
		l-0.57-0.659l0,0l-3.189-3.7l-0.76-9.91l2.05-3.08l-1.8-3.61l-4.46-1.75l-5.94,3.37l-0.8-5.93l-3.84-1.63l-2.91,0.06l-12.13,13.05
		l2.87,3.04l-2.75,6.96l-4.851-4.189l-2.859,7.62l-7.421,5.87l-6.449-6.591l0,0l-1.051-6.64l-5.159-1.32l-4.38-6l3.239-4.199
		l-0.72-2.4l-12.06-6.11l-3.08-14.819L812,571.77l-18.68,1.021l0,0v-5.01l0,0l-2.801-10.9l2.7-3.5h7.19l1.399-17.62l0,0l9.78-0.319
		l1.4-4.601l4.1-1.899l-0.3-6.7l4.4-1.3l0.3-2.7l-7.2-8.5l2.9-10.79l0,0l-0.141-0.92l0,0l9.74,3.04L831.19,494.07z"/>
	<path id="LV-043" fill="#1E3250" stroke="#1E3250" stroke-width="0.5" d="M256.43,384.15l3.77-5.75l0.77-7.841l-0.94,1.45
		l-0.77-2.37l4.09-1.409l0.24-4.75l-9.6-1.681l-4.88,2.86l0,0l-0.57-6.4l3.52-1.39l0.55-11.271l1.55,0.681l4.04-11.59l0,0
		l8.36,3.699l3.42-2.689l-2.43-0.641l0.51-2.409l5.01-0.801l7.94,3.511l1.94-5.73l-2.96-10.97l0.47-8.561l22.33-4.6l6.15-8.88
		l2.14,1.67l8.21-2.35l10.74,3.37l0,0l1.47,4.44l-9.5,9.2l-8.4,3.3l1.7,3.6l-1.6,6.9l5.5,3.2l0.3,2.5l-1.4,4.6l-6.9,1.7l-1.5,9.19
		l2.2,8.3l6.1,7.1h8.3l1,9.601l-2.4,2l5.7,9.3l0,0l-12.1-1.7l-4.7,1.8l1.3,8.601l-4.4,2.39l-4.06,6.65l0,0l-1.09-3.801l-13.01,3.771
		l-5.25-4.601l-6.33,1.29l-0.42-4.55l-4.36,0.86l-4.08-6.87l-9.43,1.29L256.43,384.15z"/>
	<path id="LV-044" fill="#1E3250" stroke="#1E3250" stroke-width="0.5" d="M1113.79,460.35l1.021-7.1l-6.98-1.18l-4.141-6.811
		l-3.51-0.67l-3.5,3.57l-3.92-7.851l4.25-3.79l1.57-12.46l3.89-2.899l-0.89-6.9l-5.9-2.399l1.601-4.301l-17.101,1.5l-4.6-2.6l0,0
		l-0.75,0.15l0,0l-1.94-10.61l3.63-2.83l4.61,2.89l3.42-3.93l-6.08-0.86l8.58-5.59l0,0l19.05-1.81l-1.75-5.84l5.69-0.03l3.08,6.64
		l3.95-0.55l2.04,4.851l6.609,1.26l0,0l5.2-0.25l7.47-6.17l12.94-2.24l7.28-4.49l3.67,0.891l-0.841,2.859l5.871,13.69l10.59-4.29
		l1.359,7.27l-5.399,3.101v7.42l-4.66,1.16l-2.83,6.56l7.89,11.23l5.76,2.819l-0.689,4.13l0,0l-9.95,1.67l-3.2-8.199l-4.6-0.101
		l-3.2,15.391l2.4,5l-2.3,3.3l-11.7-4.3l8.399-0.101l-2-6.2l-4.8,1.9l-10.19-2.5l-7,1.6l-3.199,5.101l-8,3.5l-1.2,8.6
		L1113.79,460.35z"/>
	<path id="LV-045" fill="#1E3250" stroke="#1E3250" stroke-width="0.5" d="M694.11,136.39l5.88,0.95l10.55-6.24l2.16,6.64
		l10.75,12.24l1.2,5.2l10.64,6.32l4.96,9.35l0,0l1.73,10.99l0,0l-1.2,4.72l3.359,9.28l-1.84,3.11l3.061,4.28l0,0l1.79,0.75
		l-4.11,3.84l2.95,4.68l-3.25,3.33l-0.45,5.77l0,0l-5.4,1.7l-0.729-5.67l-3.12-2l-5.521,4.8l-5.35-2.24l-2.96-5.52l-4.15-1.42
		l-0.81,3.74l-3.52-1.2l-3.761-10.15l-6.239-4.48l0.479-8.32l-3.6-2.32l-3.841,1.6l-1.68-3.52l-3.08-0.42l0,0l2.41-2.56l-6.45-1.34
		l1.41-4.43l-8.22-12.66l-13.68,3.96l-1.98-1.38l-3.12-6.12l1.67-9.33l0,0l-0.01-0.91l0,0l5.16,1.26l11.64-10.97l2.94,1.2l1.2,4.8
		l5.46,0.12l2.04-2.88l-1.98-7.37L694.11,136.39z"/>
	<path id="LV-046" fill="#1E3250" stroke="#1E3250" stroke-width="0.5" d="M763.66,394.78l6.78,4.2l7.319-1.921L790,401.86
		l5.88,10.26l0,0l-3.36,3.99l-10.92-2.88l3.601,4.92v9.239l-8.4,1.92l2.88,7.561l-9.239,10.32l-3.36,12.6l-4.28-0.14l0,0
		l-13.38-9.841l-8.4,3.841v2.58l-8.52,8.029l0,0l-3.71-12.84l0.7-10.7l-3.4-8l0,0l2.25-8.58l-6.16-2.72l-0.08-2.24l11.11-7.199
		l12.16,1.68l3.28-4.48l4.479,1.2l5.92-5.6l2.16-8.471L763.66,394.78z"/>
	<path id="LV-047" fill="#1E3250" stroke="#1E3250" stroke-width="0.5" d="M1139.57,652.91l-14.34,13.08l0.02,4.67l-4.83,6.29
		l2.54,13.859l-4.729,17.601l-30.301-2.24l-11.109-6.01l-2.99,4.46l-11.141,4.149l-5.52-2.75l-7.47-10.97l-5.49-1.52l-3.04-4.55
		l-8.15,2.51l-1.439,5.149l-13.85-0.63l-5.891,4.391l0,0l0.61-14.62l-7.38,0.42l-1.84-7.931l5.56-6.819l-3.24-5.79l4.92-5.49
		l-5.58-4.35l-0.96-10.561l5.58,0.391l1.44-2.521l0,0l8.939,5.15l6-4.07l13.511,2l6.239-5.25l0.8-13.12l8.32-1.92l4.08-5.76l0,0
		l19.78,2.68l-4.101,13.601l1.801,2.989l9.699-5.689l28.591,16.79l8.6,0.5l-1-6.7l2-2.3L1139.57,652.91z"/>
	<path id="LV-048" fill="#1E3250" stroke="#1E3250" stroke-width="0.5" d="M624.32,271.49l5.62-1.77l1.479-3.38l-4.49-0.07
		l-2.239-16.17l-5.681-1.76l-1.279-4l7.359-4.24l4.641-6.96l-3.12-10.96l9.52-7.44l2.32,1.44l-0.72,4.4l14,1.36l0,0l6,14.08
		l5.76,0.93l-4.9,6.4l2.93,4.79l2.79-0.25l5.54,5.72l-2.42,8.57l0,0l-0.37,0.09l0,0l-4.75,5.65l0,0l-0.39,2.36l0,0l-3.5,11.44
		l-10.3,2.5l-3.101,7.3l0.301,6.4l-2.601-0.21l0,0l-1.5-3.59l-6.899-0.2l-10.2,6.29l-1.5-1l0,0l2.1-4l-0.8-9.49l-1.9-1.9l-7.3,0.3
		v-7.9l6.9-0.3L624.32,271.49z"/>
	<path id="LV-049" fill="#1E3250" stroke="#1E3250" stroke-width="0.5" d="M861.65,521.71L855.96,507l-21.19-7.79l-3.579-5.14l0,0
		v-3.101l3.899-1.6l0.3-2.5l-8.399-3l-8.5,1.479l0,0l-12.7-3.06l-3.6-10l3.6-6.8l0.21-6.95l0,0h0.12l0,0l4.16,2.14l9.41-1.56
		l15.34-7.72l0,0l7.989-8.25l2.431,7.06l3.7,1.13l2.47,5.61l17.79-11.42l3.88,4.71l5.19-1.71l4.739,13.52l9.561-5.37l1.43,10.431
		l5.2,0.34l7.939-7.51l3.061-10.921l0,0l17.97,14.771l18.41,0.06l-2.32,15.881l4.74-3.381l2.53,4.931l0,0l-4.95,12.359l2.89-0.67
		l-0.319,4.23l-5.771,0.06l0,0l-2.25,0.061l0,0l-3.2-0.21l0.3-2.41L928,493.15l-7.29,7.97l-12.62,7.26l0.03-7.14l-8.8-7.811
		l1.939-3.08l-9.529-3.59l-0.351,3.84l-6.07,3.221l-12.27,21L861.65,521.71z"/>
	<path id="LV-050" fill="#1E3250" stroke="#1E3250" stroke-width="0.5" d="M201.91,402.29l-4.65-4.2l-4.96,1.2l-3.2-6.24l-7.92-0.72
		l-2,2.8l-4.72-2.88l-2.56,0.96l-5.6,4.8l-3.04,6.88l4.64,20.03l-2.64,2.24l-5.6-2.32l-4.95,1.521l-2.96,3.76l-5.44,1.12l-1.72,4.6
		l0,0l-11.14-4.83l2.71-2.14l0.23-6.061l-3.18-0.699l1.01-3.891l-3.04-6.399l-8.99-7.45l-8.38-0.49l-7.97-15.99l-13.8,1.021
		l-0.76-7.65l-6.11-4.67l0,0l0,0l0,0l3.17-7.84l0,0l9.21,3.26l4.5-8.7l9.5,1.601l1.8-4.101l7.9-2.699l2.49-4.101l-3.69-12.1
		l-9.9-10.4l0.6-6.779l-4.3-0.601l-9.13-7.63l0,0l4.33-4.39l3.85,1.21l8.56-10.45l7.71,3.21l2.05-4.51l7.86,5.5l6.24-0.46l1.33,3.62
		l-2.64,2.25l2.05,2.819l1.49-2.41l4.05,2.19l3.23-7.23l5.91,1.45l2.18,3.03l3.49-3.15l5.3,1.67l2.5-2.63l6.68-0.37l2.18-3.68
		l9.01,4.64l9.29-0.22l-0.35-2.97l10.08-1.45l2.25-2.32l2.68-19.91l0,0l2.84,3.81l4.21,0.46l-1.63,8.46l4.99,5.26l14.52,5.04
		l2.28,17.089l-2.53,1.051l0.09,3.71l0.37,2.37l2.97-0.15l1.35,7.16l9.74-2.01l5.56,2.159l3.33-3.42l1.48,1.761l0,0l-4.04,11.59
		l-1.55-0.681l-0.55,11.271l-3.52,1.39l0.57,6.4l0,0l-3.7,9.41l-5.2,1.63l-7.12-4.92l-1.41-7.66l-7.8-2.64l-2.92,4.3l1.4,4.92
		l-3.01,0.22l-0.86,4.521l10.5,1.069l0.3,4.09l3.63,3.141l-2.49,4.08l-3.63-0.521l-2.04,4.91l-8.88,0.771l-3.97,2.819l-2.96,8.53
		L201.91,402.29z"/>
	<path id="LV-051" fill="#1E3250" stroke="#1E3250" stroke-width="0.5" d="M687,459.41l-0.12,3.47l-3.72,2.94l-10.05,2.569l0,0
		l-9.091,1.86l-2.779-1.65l-5.44,2.561l-4.399-1.28l-17.92,9.28l-5.36-1.92l-4.51,1.2l-2.12-6.54l5.84-0.521l-0.14-4.51l-2.351-2.11
		l-3.18,1.34l0.859-4.39l-8.63-0.03l-5.64-15.569l0.3-6.08l8.84-0.431l-0.93-11.399l-16.84,1.01l-0.64-2.479l0,0l-0.261-11.24l0,0
		l2.511-4.74l-1.421-5.51L596.37,403l0.25-4.92l0,0l1.11-0.09l0,0l6.88-3.04l0,0l5.25,2.43l7.6,12.79l10.89,6l7.801-1.4l1-5.289
		l5.3-2.2l0.6-2.101l-3.8-0.6l1.7-8.3l5.899,0.399l0.801-9.399l2-1.3l5.699,5.199l2.2-2.5l2,4.101l6.5,3.5l0,0l0.3,1.52l0,0
		L657.95,408.9l-4.5,1.79l-1.2,10.6l-2,1.5l-8.4-1.7l-2.199,3.101l5,3.899l11,3.101l3.5,13.64l13.1,12.5l8.09,3l4.9-0.7l0,0
		L687,459.41z"/>
	<path id="LV-052" fill="#1E3250" stroke="#1E3250" stroke-width="0.5" d="M584.54,388.08l10.09,10.17l0,0l1.99-0.17l0,0l-0.25,4.92
		l3.439,2.24l1.421,5.51l-2.511,4.74l0,0l-19-10.45l-7.7-1.3l-9.6,4l-6.1-4.3l-2.7,5.5l3.5,2.8l0.2,4.899l-2.5,1.601l-2.101-3.9
		l-7.09,4.4l2.37,6.8l0,0h-6.35l0,0l-3.601-2.6l-28.899,1.239l0,0l0.01-0.05l0,0l0.29-1.2l0,0l1.2-9.08l6.319-4.8l8.641,0.561
		l2.96-8.641l3.68-3.439l-0.33-7.2l-6.229-6.79v-6.4l0,0l2.29-4.909l4.43-2.04l3,2.399l2.16-3.96l2.279,0.24l4.08,8.52l0,0
		l-1.319,4.08l7.199,7.79l3.841,1.08l10.08-3.359l14.279,2.88L584.54,388.08z"/>
	<path id="LV-053" fill="#1E3250" stroke="#1E3250" stroke-width="0.5" d="M685.24,459.63l-4.9,0.7l-8.09-3l-13.1-12.5l-3.5-13.64
		l-11-3.101l-5-3.899l2.199-3.101l8.4,1.7l2-1.5l1.2-10.6l4.5-1.79l8.399-11.101l0,0l-0.21-1.05l0,0l4.221-2.6l1.8,4.6l8.899,2.5
		l4.301-1.3l9.689,16.1v3.9l0,0l-9.39,0.7l-1.2,2.1l5.19,8.3l-7.49,3.3l-1.601,15.29l4.7,2.301L685.24,459.63z"/>
	<path id="LV-054" fill="#1E3250" stroke="#1E3250" stroke-width="0.5" d="M622.36,104.06h3.399l9.3,11.29l8.5-0.2l7.2,4.7
		l1.5,15.82l10.101,5.4l-1.33,9.4l0,0l0.02,1.85l0,0l-1.67,9.33l3.12,6.12l1.98,1.38l13.68-3.96l8.22,12.66l-1.41,4.43l6.45,1.34
		l-2.41,2.56l0,0l-2.67,6.35l-6.649-1.78l1.21,2.46l-2.67,0.31l-0.511,3.41l-14.58,12.31l-9.97,4.57l-11.37-4.67l-0.8,2.99l9.29,4.5
		l1.44,5.31l0,0l-14-1.36l0.72-4.4l-2.32-1.44l-9.52,7.44l3.12,10.96l-4.641,6.96l-7.359,4.24l1.279,4l5.681,1.76l2.239,16.17
		l4.49,0.07l-1.479,3.38l-5.62,1.77l0,0l-2.391-3.41l-5.069-0.39l-1.7-8.94l-8.45-7.82l-0.65-8.85l-5.01-0.72l-15.92,7.22l0,0
		l-2.86-0.18l-0.539-11.05l-3.99-5.82l0,0l-0.7-15.36l0,0l16.51-3.69l5.5-10.7l6-0.2l3.101-5.4l-5.9-5.3l-0.6-17.3l-5.9-0.3
		l-0.4-6.3l-2.199-1.5l-9.601,0.2l-1.6-31.13l12.92-3l4.3,2.7l9.2-1.4l-5.3-2.5l1.399-7.2l3.5-3l7.5-0.2l-2.399-3.4l1.899-2.5
		l-1.399-5.3L622.36,104.06z"/>
	<path id="LV-055" fill="#1E3250" stroke="#1E3250" stroke-width="0.5" d="M693.4,302.26v-1.44l0,0l-17.49-1.29l-2.86-4.06
		l2.82-1.33l-1.41-11.64l-5.22-8.55l-7.311-3.73l0,0l0.38-2.3l0,0l4.75-5.65l0,0l0.261-0.06l0,0l19.92-1.52l5.2-2.96l0,0v5.44
		l11.92,3.9l2.08,19.92l5.199,1.52l-6.56,11.03L693.4,302.26z"/>
	<path id="LV-056" fill="#1E3250" stroke="#1E3250" stroke-width="0.5" d="M897.19,590.94l-4.87-7.36l-15.29-8.88l3.38-12.36
		l-3.25-6.63l-4.66-25.11l-3.31-6.22l-7.54-2.67l0,0l11.39-6.89l12.27-21l6.07-3.221l0.351-3.84l9.529,3.59l-1.939,3.08l8.8,7.811
		l-0.03,7.14l12.62-7.26l7.29-7.97l10.439,1.55l-0.3,2.41l3.2,0.21l0,0l0.49-0.011l0,0v14.08l3.68,1.92l0,0h0.801l0,0l-1.521,10.48
		l-4.56,7.44l-7.271-5.921h-3.68l-2.96,11.36h3.84l4.08,5.59l10.31,5.2l2.24-1.04l-0.88,4.88l3.84,7.38l0,0l-4.2,1.92l-1.6,4.24
		l-13.03-4.47l-10.88,1.11l-7.521-14.15l-3.68,2l-0.479,11.04h-4.801l-6.56-5.04l-1.12,5.189l4.16,14.91l-3.28,0.561l6.641,13.439
		l0,0l-6.11,1.59l0,0L897.19,590.94z"/>
	<path id="LV-057" fill="#1E3250" stroke="#1E3250" stroke-width="0.5" d="M1005.72,388.26l-2.109-3.2l-6.5-1.6l-3.7-7.5l-3.7-1.1
		l-14.399,4l-7.891-3.9l-23.3,28.4l-3-2.301l-6.3,1.301l-3.4-3.2l4-3.601l-0.5-2.1l-6.4-2.3l-1.8-6l14.7-21.891l0.54-7.779l0,0
		l2.32,1.29l10.439-7.48l8.141-2.71l2.779,2.03l4-5.15l7.811-2.279l1.97,2.68l11.76,1.42l0,0l0.94,2.96l8.72-0.4l-2.51,11.24
		l10.01,5.54l1.68,9.72l3.541,4.15l0,0l-4.11,7.8L1005.72,388.26z"/>
	<path id="LV-058" fill="#1E3250" stroke="#1E3250" stroke-width="0.5" d="M1213.48,524.34l-8.221-1.39l-7.1,3.899l-5.9-6.5h-7.6
		l-1.3,1.9l4.3,11.4l-1.3,2.5l-9.101,1.6l-17.29,14.96l3.5,13.2l10.79-1.3l-1.1-6.601l6.9-1.1l5.6-5.7l7.5,4.4l12.3,13.689
		l-6.899,13.9l0,0l-0.7,1.399l0,0l-3.88,2.28l-0.021-6.08l-2.5-0.2l-10.979,8.36l-7.101-0.7l-5.899,5.2l-2.391-3.1l-5.4,2.199
		l-8.399-4.3l-9.3-0.1l-5.9-2.8l-6.6-11.23l0,0l5.029-3.96l-3.17-6.479l6.11-10.61l-7.45-8.66l3.11-11.63l-10.24-2.28l-2.16-4.52
		l3.04-2.48l-3.66-2.25l2.301-2.79l-5.311-2.609l-3.33,1.909l1.54-3.189l-2.72-1l-4.98-9.15l0.471-4.04l-7.57,4.23l-2.28-4.5
		l1.07-3.74l-2.87-2.1l1.79-3.681l-1.63-2.13l3.53-6.06l12.38,0.26l1.68-8.88l0,0l5.23-0.84l11.64,6.84l2.28-3.72l2.76,0.359
		l14.03,14.15l1.319-4.79l6.48-1.56l2.279,4.68l5.4,2.27l1.44,4.08l5.52,3.96l-0.239,6l2.76,1.2l3.359-0.12l3.12-6.479l4.2-0.48
		l3.72-5.16l3.96,1.801l2.99,6.119l2.641-4.08l8.22-0.14l0,0l8.34,10.811l-1.98,8.17l2.3,4.699L1213.48,524.34z"/>
	<path id="LV-059" fill="#1E3250" stroke="#1E3250" stroke-width="0.5" d="M976,438.75l-10.91-3.72v-5.16l-11.27,0.12l-4.08,3.12
		l-2.521,6.6l-3.479-3.12l-10.801,5.88l-22.199-1.92l-0.33,8.47l0,0l-3.061,10.921l-7.939,7.51l-5.2-0.34l-1.43-10.431l-9.561,5.37
		l-4.739-13.52l-5.19,1.71l-3.88-4.71l-17.79,11.42l-2.47-5.61l-3.7-1.13l-2.431-7.06l-7.989,8.25l0,0l-1.58-6.051l4.37-7.949
		l-4.59-3.67l-6.41,0.739l-7.61-4.83l-2.89-11.14l4.739-6.07l-1.75-8.52l-4.39-1.811l-7.45-9.449l-2.359,1.08l0,0l0.8-4.74
		l-4.561-6.96l0.36-5.04l4.68-4.8l7.561-3.12l3.72,1.319l3.48-2.88l5.279,2.4l1.08-2.641l8.28,0.24l1.44-5.75l-9.4-9.83l0,0
		l0.03-0.05l0,0l5.909-3.6l0.12-8.971l-7.22-2.81l6.11-26.21l0,0l5.72-1.48l11.96,7.44l6.78-5.5l6.8,4.82l0,0l2.71,1.239l8.26-3
		l3.15,1.671l0,0l0.12,12.34l-2.08,2.96l1.76,16.479l-5.68,6.24l7.43-2.48l4.56,12.24l7.75-0.399l3.36-2.88l11.12,3.84l-1.52-6.801
		l6.8-1.279l4.56-9.84l-6.24-5.761l1.44-6l-2.521-7.51l0,0l9.521-3.02l3.03-3.561l5.84,4.3l2.81-1.3l7.55,10.311l4.19,22.13l0,0
		l-0.54,7.779l-14.7,21.891l1.8,6l6.4,2.3l0.5,2.1l-4,3.601l3.4,3.2l6.3-1.301l3,2.301l23.3-28.4l7.891,3.9l14.399-4l3.7,1.1
		l3.7,7.5l6.5,1.6l2.109,3.2l0,0l-2.58,3.23l0,0l-24.21,36.74L976,438.75z"/>
	<path id="LV-060" fill="#1E3250" stroke="#1E3250" stroke-width="0.5" d="M694.87,6.51l3.32,6.4L694.09,27.1l7.9,13.5l-3.101,5.92
		l3.5,6l7.4,3.2l4.6,8.1l0.101,5.59l6.899,4.7l-0.199,15.5l0,0l-2.9,2.7l-8.5-6.1l-6.2-9.6l-2.5-0.1l-5.399,2.6l3.5,4.3l-0.7,9.9
		l-8.4-5.5l-5.59-0.2l-5.9,5.36l0,0l-5.3-3.1l-4.3,1.7l-8.3-6L656.1,61.58l-5.3-3.4l-0.37-22.56l0,0l19.74-12.29l9.47-0.67
		L691.69,6.38L694.87,6.51z"/>
	<path id="LV-061" fill="#1E3250" stroke="#1E3250" stroke-width="0.5" d="M647.9,345.07l3.76,0.01l1.439-4.89l7.561-4.44l-3-7.8
		l2.399-2.76l0.601-7.681l-4.44-5.52l0.36-5.63l4.92,7.069l6.84,2.28l7.08-1.37l1.85,4.51l-1.449,2.841l8.13,2.96l1.6,6.949
		l2.76-1.02l12.171,7.32l0,0l1.979,5.08l-2.12,2.13l2.69,4.25l-1.4,5.76l0,0l-10.189,0.41l-4.761,4.88l-4.239-5.48l-4.29,2.601
		l-0.48,3.069l-3.52-0.97l-2.9-5l-3.69,4.83l-2.64-0.68l-3.45,2.83l-6.52,0.359l-4.7-2.939l-5.47,1.35l0,0l-1.101,0.87l0,0
		l4.141-8.61l0,0L647.9,345.07z"/>
	<path id="LV-062" fill="#1E3250" stroke="#1E3250" stroke-width="0.5" d="M520.52,377.14h-2.989l0,0l-1.84,5.841l-5.04,2.319
		l-6-2.56l-18.96,7.99l0,0l-4.261-16.671l7-5.8l3.801-0.399l8.399-9.301l0,0l20.29,10L520.52,377.14z"/>
	<path id="LV-063" fill="#1E3250" stroke="#1E3250" stroke-width="0.5" d="M340.51,218.25l1.82-2.55l0,0l5.92,7.3l14.1,3.58
		l3.6,15.16l0,0l-5.13,1.77l-1.87,3.92l2.63,14.84l0,0l-4.88,1.15l-0.57,3.48l0,0l-8.26-6.25l3.36-6.4l-3.52-8.48l-12.32,2.72
		l-1.92-5.76l-5.59-1.6l-3.36-8.96l5.75-4.64l3.84,1.44l7.2-3.04l-2.88-3.84L340.51,218.25z"/>
	<path id="LV-064" fill="#1E3250" stroke="#1E3250" stroke-width="0.5" d="M759.87,34.67l5.95-1.39l-1.261,3.61l6.681-0.98
		l1.149,3.42l3.45-3.52l2.57,4.75l-1.68,4.56l18.289,12.72l0,0l-0.109,7.47l-3.12,2.46l-1.26,6.59l-6.42,0.36l-10.141-8.04
		l-6.87,0.79l-3.869,4.91l-3.53-1.98l-1.34,4.89l12.899,12.7l-3.8,9l0,0l-9.5-1.1l0,0h-1.9l0,0l0.08-9.5l-4.88,2.4l-0.16-5.92
		l-6.64-14.4l-3.36-0.8l-8.08-9.12l-3.76-1.44l-1.359,3.76l-4.4-11.21l9.84-19.04l5.68,10.32l2.24-2.88l6.641,2.08l1.359-7.84
		l4.561-2.58l0,0L759.87,34.67z"/>
	<path id="LV-065" fill="#1E3250" stroke="#1E3250" stroke-width="0.5" d="M728.77,520.8l0.95,20.62l-2.229,2.97l8.05,0.551
		l2.89-2.311l2.63,4.03l-8.739,3.359l-2.641,6.961l5.13,2.42l3.66,6.96l3.65,0.09l3.72,5.71l-2.29,8.1l1.931,8.811l3.5,3.26
		l-0.99,3.5l-8.3,0.27l-0.351,2.32l0,0l-7.52,2.771l-13.971-14.32l-5.569,5.22h-8.061l-12.819-6.04l-3.551-21.38l-5.79-3.21
		l-1.159-4.69l-6.341-6.05l-0.89-15.779l-4.66-3.46l-5.37-11.5l1.25-8.101l-5.37-2.89l0,0l0.591-4.61l7-10.2l15.5-3.29l0,0
		l4.359,10.561l3.7,1.899l3,14.301l11.49-0.601L728.77,520.8z"/>
	<path id="LV-066" fill="#1E3250" stroke="#1E3250" stroke-width="0.5" d="M45.31,538.06l-5.38-3.279l-3.52,2.55l0.64,18.88
		l-8.16,20.64l-2.56,1.28l-0.8-2.24l-2.88,0.32l-0.16,18.71l-5.44-0.8l-1.6-17.43l-6.4-4l4.32-1.761l0.32-5.12l-2.24-1.6l-9.36,1.54
		l0,0L0,532.79l5.06-20.73l0.17-10.09l0,0l3.41,0.101l2.7-4.2l3-0.3l0,0l1.1-1.181l0,0l12.35-2.359l1.44,18.479l5.76,4.44l4.2-3.12
		l3.24,0.96L45.31,538.06z"/>
	<path id="LV-067" fill="#1E3250" stroke="#1E3250" stroke-width="0.5" d="M701.63,355.12l19.05,6.89l-1.58-3.26l3.41-1.57
		l-0.95-2.71l4.25-1.97l-0.229-2.9l10.77-4.149l3.95,12.22l4.44,3.33l12-12.81l-1.971-5.431l3.99-0.58l0,0l1.63-0.399l0,0
		l-0.76,3.17l4.13,1.05l2.01,11.46l3.29,3.75l-5.05,10.34l7.3,7.28l-10.949,1.85l0.5,4.391l-2.12-0.311l3,3.931l2.05-0.49
		l-0.13,6.58l0,0l-2.45,1.529l-2.16,8.471l-5.92,5.6l-4.479-1.2l-3.28,4.48l-12.16-1.68l-11.11,7.199l0.08,2.24l6.16,2.72
		l-2.25,8.58l0,0l-11-4.2l-4.68,2.921l0,0v-0.98l0,0l-5.12-1.28l-10.24-9.229l0,0v-3.9l-9.689-16.1l-4.301,1.3l-8.899-2.5l-1.8-4.6
		l-4.221,2.6l0,0l-0.09-0.47l0,0l-6.5-3.5l-2-4.101l-2.2,2.5l-5.699-5.199l-2,1.3l-0.801,9.399l-5.899-0.399l-1.7,8.3l3.8,0.6
		l-0.6,2.101l-5.3,2.2l-1,5.289l-7.801,1.4l-10.89-6l-7.6-12.79l-5.25-2.43l0,0l5.439-4.08l8.24,2.64l5.75-8.64l3.76-0.561
		l2.48,2.24l3.52-3.28l4.96-0.479l0.641-1.76l-8.16-6.641l0.05-3.04l0,0l0.4-2.319l0,0l9.92-6.16l0,0l3.17-2.49l0,0l5.47-1.35
		l4.7,2.939l6.52-0.359l3.45-2.83l2.64,0.68l3.69-4.83l2.9,5l3.52,0.97l0.48-3.069l4.29-2.601l4.239,5.48l4.761-4.88L701.63,355.12z
		"/>
	<path id="LV-068" fill="#1E3250" stroke="#1E3250" stroke-width="0.5" d="M509.15,424.18l28.89-1.239l3.6,2.6l0,0h8.101l0,0l2.34,3
		l0,0l-0.42,4.8l-9.93,2.32l-1.011-2.72v3.64l-2.31,0.61l3.45,1.77l-4.44,1.71l-0.12,2.44l-1.67-3.061l-1.35,2.05l-4.73-1.68
		l-1.8-6.57l-1.68,2.601l-5.521-3.641l-3.479,1.44l0,0l-6.16-1.96l1.18-4.89l-2.979-3l0,0L509.15,424.18z M525.69,377.14v6.4
		l6.239,6.8l0.32,7.2l-3.68,3.44l-2.96,8.64l-8.641-0.561l-6.319,4.801l-1.2,9.08l0,0l-10.97,0.369l-1.48-7.26l-2.99,2.79
		l-11.66,0.92l-0.029,4.221l-2.59-2.48l-3.721,2.76l-7.62-6.55l0,0l2.591-18.6l0,0l-0.041-0.021l0,0l2.45,0.22v-3.84l2.16-0.96
		l6.48,4.8l3.68-8.56l0,0l18.96-8l6,2.56l5.04-2.319l1.84-5.84l0,0h8.141V377.14z"/>
	<path id="LV-069" fill="#1E3250" stroke="#1E3250" stroke-width="0.5" d="M473.28,448.76l3.04-2.399L473.76,443l0.8-7.67
		l-10.579-1.66l0,0l0.18-0.1l0,0l2.08-0.48l-1.76-4.64H457.6l-2.08-2.88l5.601-1.92l1.76-4.641l5.49-1.31l0,0l7.62,6.55l3.72-2.75
		l2.59,2.48l0.04-4.23l11.66-0.92l2.99-2.78l1.479,7.25l10.98-0.37l0,0l-0.29,1.2l0,0l-0.03,0.271l0,0l2.97,3l-1.17,4.899l6.15,1.95
		l0,0l1.37,10.85l-3.7,0.37l-2.04-3.819l-2.54-0.24l-0.67,2.32l2.07,4.279l9.399,2.23l-3.87,2.62l3.051,0.189l1.51,5.61l-5.28,0.64
		l0.42,3.181l-3.12-1.32l1.17-3.141l-3.84,1.221l1.78,5.25l4.09-0.061l0.49,3.721l12.62,0.27l-3.84,9.14l-2.71,1.41l0,0l-0.101,4.38
		l-6.03,7.561l0,0l-10.6-8.71l-2.88-13.44l-6.4-11.68l-9.109-0.96l-7.36-5.44L473.28,448.76z"/>
	<path id="LV-070" fill="#1E3250" stroke="#1E3250" stroke-width="0.5" d="M689.01,186.18l3.08,0.42l1.68,3.52l3.841-1.6l3.6,2.32
		l-0.479,8.32l6.239,4.48l3.761,10.15l3.52,1.2l0.81-3.74l4.15,1.42l2.96,5.52l5.35,2.24l5.521-4.8l3.12,2l0.729,5.67l5.4-1.7l0,0
		l-3.7,7.4l-19.899-1.7l-1.79,6.8l0,0l-0.801,2.09l0,0l-2.3,4l2.5,2.9l-1.399,2.8l0,0l-0.5,2.4l0,0l-4.9,7.9l-10.8-2.7l-6.26,4.24
		l0,0l-5.2,2.96l-19.92,1.52l0,0l0.109-0.03l0,0l2.42-8.57l-5.54-5.72l-2.79,0.25l-2.93-4.79l4.9-6.4l-5.76-0.93l-6-14.08l0,0
		l-1.44-5.31l-9.29-4.5l0.8-2.99l11.37,4.67l9.97-4.57l14.58-12.31l0.511-3.41l2.67-0.31l-1.21-2.46l6.649,1.78L689.01,186.18z"/>
	<path id="LV-071" fill="#1E3250" stroke="#1E3250" stroke-width="0.5" d="M85.17,376.59l-3.56,0.98l0.95,11.3l-20.9,5.05l-0.7,5.8
		l-4.9,1.07l2.35,15.25l-2.7,2.75l0,0l-5.4-1.25l-3.95,5.56l6.85,9.94v6.3l-2.1,3.2l-3.55-0.15l-0.95,4l0,0l-8.4,2.15l-9.34-10.521
		l-3.6,5.521l0.36,10.56l-8.4,0.721L11.56,452l0,0l3.4-19.55l0.2-42.41l31.68-25.87l13.57-16.14l4.03,2.93l2.51-1.88l4.76,2.29
		l0.96,4.899l0,0l0.1,6.33l4.01,2.271l3.5-1.47l-0.78,3.04l8.84,2.31l0,0L85.17,376.59z"/>
	<path id="LV-072" fill="#1E3250" stroke="#1E3250" stroke-width="0.5" d="M762.8,459.65l4.28,0.14l3.36-12.6l9.239-10.32
		l-2.88-7.561l8.4-1.92v-9.239l-3.601-4.92l10.92,2.88l3.36-3.99l0,0l6.89-4.41l-0.649-4.14l3.35-4.32l-3.54-3.53l3.181-1.989l0,0
		l2.359-1.08l7.45,9.449l4.39,1.811l1.75,8.52l-4.739,6.07l2.89,11.14l7.61,4.83l6.41-0.739l4.59,3.67l-4.37,7.949l1.58,6.051l0,0
		l-15.34,7.72l-9.41,1.56l-4.16-2.14l0,0h-0.28l0,0l-5.24-0.12l-15.17,8.75l-14.38,2.99l0,0l0,0l0,0l-7.83-1.28L762.8,459.65z"/>
	<path id="LV-073" fill="#1E3250" stroke="#1E3250" stroke-width="0.5" d="M956.55,605.05l-7.12-5.5l-1.76-4.64l12.96-1.601
		l0.16-14.72h4.72v-4.08l-1.68-4.55h-4.08l-0.4-9.76l-9.6-1.521l0,0l-3.84-7.38l0.88-4.88l-2.24,1.04l-10.31-5.2l-4.08-5.59h-3.84
		l2.96-11.36h3.68l7.271,5.921l4.56-7.44l1.521-10.48l0,0h1.359l0,0l0.561-4.96l4.88-2.08l22.239,17.841l0.881,2.319l-13.601,5.04
		l-4.56,5.71l-0.96,6.801l4.56,4.159l6.96,1.521l2.88,5.03l10.16,5.76l4.32,15.729l4.71,1.92l-1.681,8.32l-5.51,3.36l8.471,4.229
		l4.319,5.28l0.04,4.92l0,0l-6.16,6.2l-5.439-4.08l-11.84,7.68h-7.44l-2.2-7.8L956.55,605.05z"/>
	<path id="LV-074" fill="#1E3250" stroke="#1E3250" stroke-width="0.5" d="M87.97,556.83l-3.41-4.9l-12.2-4.3l-1.26-2.85l0,0
		l5.76-9.48l2.64-14.51l-2.4-8.76l-6.24-8.641l0.36-7.319l-7.19-2.28l0.24-8.4l0,0l8.03,0.36l-0.84-8.04l2.04-2.28l15.12,12.48h3.48
		l1.2-2.76l-4.2-6.36l1.32-3.36l8.04-5.51l4.22,2.88l0,0l0.06,0.521l0,0l3.2,3.8l2.6-2.101l4.2,1.9l2.5-4.8l10.39,3.5l0,0
		l-0.15,15.62l4.2,2.399l0.72,4.08l-9.72,4.681l3.24,8.75l-6.48,3.84l7.08,4.08l4.08,6.239h5.88l-6.48,8.28l3.92,10.101l0,0
		l-5.05,6.52l-8.23,0.63l-6.51-3.66l-6.66,0.061l-5.4,2.18l-4.7,6.84L87.97,556.83z"/>
	<path id="LV-075" fill="#1E3250" stroke="#1E3250" stroke-width="0.5" d="M779.94,256.18l-0.37,5.76l-7.301,3.7l-0.5,4.49l0,0
		l-5.1,3.1l-6.7-3.4l1.7-11.39l-5.2-7.1l-11.189-5.92l-15.2,2.4l-1.5-2.6l4.1-3.1l-2.1-3.3l-13.86-4.26l0,0l0.181-0.46l0,0l1.79-6.8
		l19.899,1.7l3.7-7.4l0,0l0.45-5.77l3.25-3.33l-2.95-4.68l4.11-3.84l-1.79-0.75l0,0l2.359-2.9l7.181,4.06l7.8-5.12l3.06,7.43
		l2.141-0.22l3.119-1.31l0.641-5.81l6.53-4.34l10.649,1.35l0,0l1.23,6.43l0,0l-4.771,4.72l-4.72,15.55l-5.12-2.24l-11.43,6.4
		l9.59,19.59l5.28,3.92l-1.12,3.04L779.94,256.18z"/>
	<path id="LV-076" fill="#1E3250" stroke="#1E3250" stroke-width="0.5" d="M804.91,256.13l1.359-2.95l7.2-1.18l5.38,1.24l-0.47,2.45
		l9.99-4.88l9.24,1.62l10.649-2.55l3.061,3.48l3-0.22l0.54,4.29l0,0l1.819,5.62l-2.979,1.21l-1.51-2.54l-6.65,2.61l2.27,9.12l0,0
		l-12.529,8.06l-9.721,1.56l-4.079-1.32l-4.44-7.8l-7.68,1.68l0,0l-3,0.36l0,0l-3.24-2.64L804.91,256.13z M790.07,202.8l7.71,12.91
		l-3.45,2.81l3.77,6.92l-0.229,5.89l8.75,6.72l-6.04,1.99l2.2,2.89l-3.88,10.71l1.52,1.76l0,0l1.71,0.28l0,0l-3.63,3.64l-2.8-5.2
		l-15.76,2.08l0,0l-2.16-2.4l1.12-3.04l-5.28-3.92l-9.6-19.6l11.439-6.4l5.12,2.24l4.72-15.55L790.07,202.8z"/>
	<path id="LV-077" fill="#1E3250" stroke="#1E3250" stroke-width="0.5" d="M1137.46,553.08l-7.45-8.65l3.11-11.63l-10.24-2.27
		l-2.149-4.521l3.039-2.479l-3.659-2.25l2.3-2.79l-5.311-2.61l-3.33,1.91l1.551-3.19l-2.73-1l-4.979-9.14l0.47-4.04l-7.57,4.23
		l-2.27-4.5l1.06-3.74l-2.859-2.101l1.78-3.68l-1.631-2.13l3.53-6.06l12.38,0.26l1.681-8.88l-3.9-1.95l-1.21-8.29l4.73-3.19
		l1.02-7.1l-6.98-1.18l-4.14-6.811l-3.52-0.67l-3.5,3.57l-3.921-7.851l4.261-3.79l1.56-12.46l3.9-2.899l-0.9-6.9l-5.899-2.399
		l1.6-4.301l-17.1,1.5l-4.601-2.6l-1.5,0.3l-6.68,0.67l-6.97-3.37l-15.03,0.61l-3.311-6.5l-4.29,2.33l-2.689-2.51l-8.63,0.31
		l-0.12,4.2l-6.65-0.34l0.71-5.061l-7.91-1.56l-3.729,4.689l-5.64-8.739L978.93,428.27L976,438.75l0.86,0.73l9.489-0.431l2.7,4.5
		l7-0.7l7.2,17.021l5.1,4.2l8.101,1l3.7,4.6l-1.2,3.6l2.2,3.601l-2.7,5l9.1,21.7l-4.2,5.399l-6.699-1.8l-6.601,3.101l-3.37-4.03
		l-1.92-1l-3.95,5.439l-0.319,5.591l-3.351,4.369l10.271,10.011l6.7,13.91l-1.971,3.88l-3.479-2.33l-3.26,1.12l1.25,8.289
		l11.91,9.681l-4.98,8.91l3.79-0.181l2.24,3.32l3.27,12.92l12.22,0.15l4.57-2.66l2.24-4.72l6.88,2.399l20.14,0.12l3.76-2.479
		l7.33,0.189l2.42,0.391l-0.069,2.46l6.08,0.56l3.6-7.49l-1.84-3.069l9.68,1.12l4.08-2.48l1.23-5.35l10.37,5.59l9.68-2.24l4.29,1.47
		l5.04-3.95l-3.18-6.479L1137.46,553.08z M1080.29,492.35l-4.479,11.36h-1.921l-1.439-4l-4.32-0.64l-0.319-6.88l1.92-6.721l8-2.72
		l2.859,2.52L1080.29,492.35z"/>
	<path id="LV-078" fill="#1E3250" stroke="#1E3250" stroke-width="0.5" d="M1006.67,506.23l-1.91-1.011l-3.96,5.44l-0.319,5.59
		l-3.351,4.37l10.271,10.01l6.689,13.91l-1.96,3.88l-3.49-2.33l-3.26,1.12l1.24,8.29l11.92,9.68l-4.979,8.92l3.779-0.189l2.24,3.33
		l3.26,12.92l12.221,0.149l0,0l-1.4,4.71l-22.61,0.75l-6.96,5.521l2,4.88l-1.439,2.96l-2.721-2.24l-4.93,0.33l0,0l-0.66-3.01l0,0
		l-0.04-4.92l-4.319-5.28l-8.471-4.229l5.51-3.36l1.681-8.32l-4.71-1.92l-4.32-15.729l-10.16-5.76l-2.88-5.03l-6.96-1.521
		l-4.56-4.159l0.96-6.801l4.56-5.71l13.601-5.04l-0.881-2.319L953.11,506.27l-4.88,2.08l-0.561,4.96l0,0h-2.16l0,0l-3.68-1.92
		v-14.08l0,0l1.76-0.05l0,0l5.771-0.06l0.319-4.23l-2.89,0.67l4.95-12.359l0,0l15.779-2.13l2.891,2.949l2.16-7.189l0,0l11.91,6.31
		l1.31,2.74l-8.49,5.85l4.61-0.04l1.76,4.721l7.391-0.181l-0.351,4.07l16.67,1.92L1006.67,506.23z"/>
	<path id="LV-079" fill="#1E3250" stroke="#1E3250" stroke-width="0.5" d="M342.33,215.7l-1.82,2.55l0,0l-11.83-5.76l0.64,8.32
		l-5.28,3.36l-3.52-0.64l-10.08-9.6l-3.36-8.15l-9.6-8.64l-7.2,4l-2.88-1.12l-1.28-4l4.16-3.52l-0.16-4l-8.48-2.56l1.76-4.16
		l-7.31-0.48l0,0l-0.59-2.72l0,0l-1.76-11.2l-2.88-2.4l4.16-8.95l-8.96-9.73l-2.56-6.24l1.6-9.92l4.88-1.38l0,0l4.34,18.7
		l7.85,13.07l14.12,13.4l13.56,7.47l-0.64,1.72l1.15-1.41l17.51,23.24L342.33,215.7z"/>
	<path id="LV-080" fill="#1E3250" stroke="#1E3250" stroke-width="0.5" d="M607.91,320.02l9.31,0.23l0,0l4.101,14.1l8.199,5.5
		l11.9-0.399l6.5,3.399l0,0l-0.1,9.79l0,0l-4.141,8.61l0,0l-2.069,1.62l0,0l-9.92,6.16l0,0l-0.12,0.66l0,0l-10.38,2.22h-13.32
		l-2.16-2.94l-11.19,1.78l0,0l-8.779-2.19l-0.601-4.829l-2.029-0.261l0,0l-1.75-5.52l-5.15-0.24l-1.8,2.88l-3.24-9.479l0,0l0,0l0,0
		l6.25-4.7l-2-3l1.8-3.5l21.69-2.9l-2.101-12.689l4.301-5.4l4,3.1L607.91,320.02z"/>
	<path id="LV-081" fill="#1E3250" stroke="#1E3250" stroke-width="0.5" d="M71.1,544.78l1.26,2.85l12.2,4.3l3.41,4.9l0,0
		l-6.48,12.88l-20.93,8.98L51.4,592.6l-7.33,2.891l0.64,14.08l-7.24,12.13l-5.62-3.25l-15.91,4.96L2.34,580.35l-0.25-14.6l0,0
		l9.36-1.54l2.24,1.6l-0.32,5.12l-4.32,1.761l6.4,4l1.6,17.43l5.44,0.8l0.16-18.71l2.88-0.32l0.8,2.24l2.56-1.28l8.16-20.64
		l-0.64-18.88l3.52-2.55l5.38,3.279l0,0l7.08,8.04L71.1,544.78z"/>
	<path id="LV-082" fill="#1E3250" stroke="#1E3250" stroke-width="0.5" d="M1013.561,378.5l-3.541-4.15l-1.68-9.72l-10.01-5.54
		l2.51-11.24l-8.72,0.4l-0.94-2.96l0,0l2.91-7.61l-2.779,0.49l-0.181-5.43l13.21-6.94l8.561-16.34l0,0l1.22-1.65l0,0h19.17
		l-1.2,7.521l1.76,2l2.32,1.04l2.88-3.2l2.4,0.48l0.08,2.33l12.39,6.159l9.2,2.96l7.04-1.439l2.08,3.76l-4.32,4.561l-2.16,8.72
		l-9.279,3.359l1.84,4.49l6.24,3.36l2.399-4.72l1.44,1.21l2.239,12.55l-3.439,5.2l-4.91-1.841l-3.36,3.841l-3.52,0.159l-11.04,15.04
		l-5.59,0.08l-3.2-4.08l-10.24-2.72L1013.561,378.5z"/>
	<path id="LV-083" fill="#1E3250" stroke="#1E3250" stroke-width="0.5" d="M512.42,544.91l-14.57,0.06l-2.59-2.88l-7.5,0.15l0,0
		l-0.68-9.49l2.91-5.39l-8.96-0.67l0.7-3.28l2.579-0.36l-1.159-4.67l2.939-1.64l-3.18-1.771l0.13-3.029l6.08-11.25l8.33-1.181
		l5.149-7.09l9.45,0.76l5.26-2.27l0,0l3.16,14.42l-2.72,5.28l10.72,10.229l7.84,1.28l2.4,5.28l-9.76,0.8l-4.96-2.88l2.08,8.319
		l-6.08,0.32l-2.08,6.72l-4.8,1.601L512.42,544.91z"/>
	<path id="LV-084" fill="#1E3250" stroke="#1E3250" stroke-width="0.5" d="M753.82,29.72l-4.561,2.58l-1.359,7.84l-6.641-2.08
		l-2.24,2.88l-5.68-10.32l-9.84,19.04l4.4,11.21l1.359-3.76l3.76,1.44l8.08,9.12l3.36,0.8l6.64,14.4l0.16,5.92l4.88-2.4l-0.08,9.5
		l0,0h-1.8l0,0l-25.99,1.7l-3.8-6.8l-3.279-1.18l0,0l0.199-15.5l-6.899-4.7l-0.101-5.59l-4.6-8.1l-7.4-3.2l-3.5-6l3.101-5.92
		l-7.9-13.5l4.101-14.19l-3.32-6.4l0,0l1.24-3.78l13.949,0.51l-0.59-2.22l2.511-0.92l2.039,1.87l-1.18,4.54l1.97,5.05l1.681-0.86
		l-0.521,9.36l3.55,0.73l-2.76,0.76l5.061,7.32l4.38,1.08l2.74-1.3l0.619-11.86l-6.939-9.8l5.08-5.97l11.979,16.47l7.57,0.38
		l7.1,4.82l2.271,3.08l-2.88,1.04L753.82,29.72z"/>
	<path id="LV-085" fill="#1E3250" stroke="#1E3250" stroke-width="0.5" d="M771.05,470.16l14.38-2.99l15.17-8.75l5.24,0.12l0,0H806
		l0,0l-0.21,6.95l-3.6,6.8l3.6,10l12.7,3.06l0,0l-1.601,11.601l0,0l0.301,2l0,0l-2.9,10.79l7.2,8.5l-0.3,2.7l-4.4,1.3l0.3,6.7
		l-4.1,1.899l-1.4,4.601l-9.78,0.319l0,0l-1.5-4.7h-7.89l-3.5-7.79l-5.3,0.19v-4.99h-2.601l-1.199-5.779l1.6-7.601l-2.66-2.51l0,0
		l-0.06-4.14l-8.15-9.091l2.91-7.699l6.08-2.561l0.87-8.17l-8.91,1.89L771.05,470.16z"/>
	<path id="LV-086" fill="#1E3250" stroke="#1E3250" stroke-width="0.5" d="M622.36,104.06l-8.79,4.69l1.399,5.3l-1.899,2.5
		l2.399,3.4l-7.5,0.2l-3.5,3l-1.399,7.2l5.3,2.5l-9.2,1.4l-4.3-2.7l-12.92,3l1.6,31.13l9.601-0.2l2.199,1.5l0.4,6.3l5.9,0.3
		l0.6,17.3l5.9,5.3l-3.101,5.4l-6,0.2l-5.5,10.7l-16.51,3.69l0,0l-3.12-34.83l-3.01-9.23l0.35-12.24l3.76-11.44L567.7,122.6
		l1.49-27.38l-2.471-16.39l2.561-11.81l10.2,3.1l7.89-4.36l0.05-8.31l-2.39-1.39l2.689-4.58l8.09-1.93l2.07-4.91l9.05-3.31l0,0
		l3.82,17.21l3.67,4.32l-5.43,6.4l5.91,7.04L622.36,104.06z"/>
	<path id="LV-087" fill="#1E3250" stroke="#1E3250" stroke-width="0.5" d="M583.11,363.47l2.029,0.261l0.601,4.829l8.779,2.19l0,0
		l0.971,9.48l-12.601-7.211l3.841,7.32l-2.19,7.74l0,0l-6.53,1.78l-14.279-2.88l-10.08,3.359l-3.841-1.08l-7.199-7.79l1.319-4.08
		l0,0l14.59,6.92l3.601-1.21l-6.67-4.75l0,0l-2.76-13.319l10.8-1.561l2.52,1.32l1.561,5.76l2.76-0.72l2.16-4.68L583.11,363.47z"/>
	<path id="LV-088" fill="#1E3250" stroke="#1E3250" stroke-width="0.5" d="M256.43,384.15l-2.71,0.569l-4.98,26.12l3.66,9.42
		l4.36-1.5V425l2.64,2.4l-1.32,18.08l4.44,5.64l5.34-0.24l0.3,13.37l3.48,1.5l1.5-4.14l4.68-2.641l1.56-6.35l7.56,2.03l10.63,18.189
		l0,0l1.07,7.311l-3.6,6.479l0.6,7.08l-4.32,2.76l8.93,10.79l-6.41,1.561l0.48,7.08l11.63,1.109l15.63,8.59l2.96-2.399l3.87,0.729
		l0,0l2.26,3.15l-5.84,4.31l-10.08,2.67l-18.79-1.609l-7.96,6.03l-16.71-11.761l-7.37,0.3l-18.68-6.34l-12.85,4.771l-6.21-4.28
		l-11.8,1.88l-6.11-6.649l-7,1.31l-6.59-3.77l-13.29,4.619l-5.14-2.13l-5.62,8.38l0,0l-3.29-1.64l-2.51-6.25l9.67-1.95l0.68-6.71
		l-9.43-7.02l-0.99-5.471l3.18-4.779l0,0l8.53-1.12l4.23,4.1l3.61-7.76l-8.61-5.05l-0.2-5.33l19.92-3.9l-2.46-7.899l1.06-4.24
		l-2.81-3.75l2.73-2.05l-0.41-5.04l-4.79-13.72l5.87,1.75l6.7-4.87l2.93-9.88l2.5-0.801l-3.68-6.949l-1.15-12.19l0,0l7.04,1.04
		l2.96-8.53l3.97-2.819l8.88-0.771l2.04-4.91l3.63,0.521l2.49-4.08l-3.63-3.141l-0.3-4.09l-10.5-1.069l0.86-4.521l3.01-0.22
		l-1.4-4.92l2.92-4.3l7.8,2.64l1.41,7.66l7.12,4.92l5.2-1.63l3.7-9.41l0,0l4.88-2.86l9.6,1.681l-0.24,4.75l-4.09,1.409l0.77,2.37
		l0.94-1.45l-0.77,7.841L256.43,384.15z"/>
	<path id="LV-089" fill="#1E3250" stroke="#1E3250" stroke-width="0.5" d="M577.74,231.53l3.99,5.82l0.539,11.05l2.86,0.18l0,0l6,6
		l-0.1,10l-7.5,3.3l-9.391,13.63l0,0l-1.189-0.11l0,0l-4-0.24l0,0l-1.78-1.49l0,0l8.86-12.74l2.72-8.41L577.74,231.53z"/>
	<path id="LV-090" fill="#1E3250" stroke="#1E3250" stroke-width="0.5" d="M585.13,248.58l15.92-7.22l5.01,0.72l0.65,8.85l8.45,7.82
		l1.7,8.94l5.069,0.39l2.391,3.41l0,0l-2.7,4.43l-6.9,0.3v7.9l7.3-0.3l1.9,1.9l0.8,9.49l-2.1,4l0,0l-15.89-3.59l-3.101,6.29
		l-8.37,3.09l0,0l-6.56-21.04l-13.12-2.32l0,0l-1.44-0.13l0,0l9.391-13.63l7.5-3.3l0.1-10L585.13,248.58z"/>
	<path id="LV-091" fill="#1E3250" stroke="#1E3250" stroke-width="0.5" d="M661.93,270.22l7.311,3.73l5.22,8.55l1.41,11.64
		l-2.82,1.33l2.86,4.06l17.49,1.29l0,0v2.76l0,0l8.76,10.2l-6,4.2l-0.36,3.119l6.24,10.08l-1.56,6.721l0,0l-12.171-7.32l-2.76,1.02
		l-1.6-6.949l-8.13-2.96l1.449-2.841l-1.85-4.51l-7.08,1.37l-6.84-2.28l-4.92-7.069l-0.36,5.63l4.44,5.52l-0.601,7.681l-2.399,2.76
		l3,7.8l-7.561,4.44l-1.439,4.89l-3.76-0.01l0,0l0.02-2.221l0,0l-6.5-3.399l-11.9,0.399l-8.199-5.5l-4.101-14.1l0,0l2.511-1.67
		l6.8,3.12l4.479-1.76l0.24-2.561l8.24-2.56l0.08-4.641l-3.92-4.069l4.88,0.159l2.189-8.56l0,0l2.601,0.21l-0.301-6.4l3.101-7.3
		l10.3-2.5l3.5-11.44l0,0L661.93,270.22z"/>
	<path id="LV-092" fill="#1E3250" stroke="#1E3250" stroke-width="0.5" d="M700.49,455.15l-7.13-1.561l-6.36,5.82l0,0l-1.76,0.22
		l0,0l0.02-7.689l-4.7-2.301l1.601-15.29l7.49-3.3l-5.19-8.3l1.2-2.1l9.39-0.7l0,0l10.24,9.229l5.12,1.28l0,0v1.12l0,0l-4.96,2.8
		l1.28,3.76l3.84,1.681l-0.561,6.88l-8.56,3.68L700.49,455.15z"/>
	<path id="LV-093" fill="#1E3250" stroke="#1E3250" stroke-width="0.5" d="M139.32,471.1l0.3-5.359l-4.03-7.51l5.98-2.04l4.56-4.87
		l-1.54-15.48l0,0l1.72-4.6l5.44-1.12l2.96-3.76l4.95-1.521l5.6,2.32l2.64-2.24l-4.64-20.03l3.04-6.88l5.6-4.8l2.56-0.96l4.72,2.88
		l2-2.8l7.92,0.72l3.2,6.24l4.96-1.2l4.65,4.2l0,0l1.15,12.19l3.68,6.949l-2.5,0.801l-2.93,9.88l-6.7,4.87l-5.87-1.75l4.79,13.72
		l0.41,5.04l-2.73,2.05l2.81,3.75l-1.06,4.24l2.46,7.899l-19.92,3.9l0.2,5.33l8.61,5.05l-3.61,7.76l-4.23-4.1l-8.53,1.12l0,0
		l-0.12-3.681l-8.8,2.98l-1.46-5.87l-9.96,1.22l-7.19-3.96l1.96-2.77l-4.4-2.021L139.32,471.1z"/>
	<path id="LV-094" fill="#1E3250" stroke="#1E3250" stroke-width="0.5" d="M835.04,174.75l10.69-7.04l18.72-1.2l7.56,5.16l6.84-2.52
		l1.79,2.16l5.04-0.36l1.08,1.92l-3.84,2.64l-0.479,3.24l1.92,1.8l5.04,0.6l2.159-3.12l5.4-0.72l1.8,5.88l0,0l1.67,13.99l-1.09,2.53
		l-3.99-0.25l-1.189,4.74l7.229,4.37l-2.72,1.93l-0.15,5.83l-3.289,2.21l0.489,3.99l2.9,1.4l-5.771,2.96l0.11,10.71l0,0l1.82,5.79
		l-1.98,2.36l-3.77-0.28l1.88,7.58l-17.99,0.19l-5.87,2.79l-6.38-3.63l-5.8,5.03l0,0l-0.54-4.29l-2.99,0.22l-3.07-3.48l-10.649,2.55
		l-9.24-1.62l-9.99,4.88l0.471-2.45l-5.38-1.24l-7.211,1.18l-1.359,2.95l0,0l0,0l0,0l-4.49-0.75l0,0l-1.52-1.76l3.869-10.7
		l-2.199-2.89l6.04-1.99l-8.75-6.73l0.239-5.88l-3.77-6.92l3.45-2.8l-7.71-12.91l0,0l-1.23-6.43l0,0l6.29-7.59l4.16,1.51l2.8-4.15
		l7.601,0.88l0,0l15.67,1.49l1.6-2l3.04,1.84l-1.92,5.6l3.439,0.72l3.761-3.04l1.439-5.04L835.04,174.75z"/>
	<path id="LV-095" fill="#1E3250" stroke="#1E3250" stroke-width="0.5" d="M571.17,351.11l3.24,9.479l1.8-2.88l5.15,0.24l1.75,5.52
		l0,0l-10.62,1.681l-2.16,4.68l-2.76,0.72l-1.561-5.76l-2.52-1.32l-10.8,1.561l2.76,13.319l0,0l-6.24-7.8v-11.16l13.8-9.96l0,0
		l2.76-1.08l0,0L571.17,351.11z"/>
	<path id="LV-096" fill="#1E3250" stroke="#1E3250" stroke-width="0.5" d="M809.69,187.02l6.72-5.12l-0.72-5.76l-5.04,5.2
		l-4.96-2.32l-3.36-6.96l8.56-3.12l-2.96-3.84l-8.239-0.8l1.84-6.4l-6.8-8.08l-18.23,1.66l0,0l-0.1-0.54l0,0l-11.75-4.48l-1.761-6
		l3.57-1.53l0.37-2.78l14.33-1.27l-1.2-8.2l5.1-3.1l-1.199-4.2h8.989l2.4-5.69l0,0l6.68,1.12l16.32-6.08l-2,12.48l5.76,5.04
		l20.87,5.69l-5.52,16.16l-7.28,5.44l-8.55-0.8l2.87,4.08l8,1.44l-0.48,5.53l-6.229,7.12l2.55,6.32l6.8-2.48l0,0l1.68,11.84
		l-1.439,5.04l-3.761,3.04l-3.439-0.72l1.92-5.6l-3.04-1.84l-1.6,2L809.69,187.02z"/>
	<path id="LV-097" fill="#1E3250" stroke="#1E3250" stroke-width="0.5" d="M356.13,266.9l0.75,2.57l-2.12-1.14l-3.18,3l-2.62,6.21
		l-8.95,2.32l-2.97,5.12l-4.67-0.04l-2.34,14.37l0,0l-10.74-3.37l-8.21,2.35l-2.14-1.67l-6.15,8.88l-22.33,4.6l-0.47,8.561
		l2.96,10.97l-1.94,5.73l-7.94-3.511l-5.01,0.801l-0.51,2.409l2.43,0.641l-3.42,2.689l-8.36-3.699l0,0l-1.48-1.761l-3.33,3.42
		l-5.56-2.159l-9.74,2.01l-1.35-7.16l-2.97,0.15l-0.37-2.37l-0.09-3.71l2.53-1.051l-2.28-17.089l-14.52-5.04l-4.99-5.26l1.63-8.46
		l-4.21-0.46l-2.84-3.81l0,0l-4.92-3.19l3.25,0.15l1.42-9.52l3.51,2.36l1.28-8.32l2.95,0.62l2.33-6.77l6.97-0.58l-2.12-15.64
		l-3.63-4.66l2.23-4.64l-1.88-9.9l2.03-0.91l-5.4-0.53l-1.8-6.45l0,0l-2.06-3.07l1.28-2.56l4.32-2.23l1.76,2.4l2.56-4.32l7.04,3.67
		l1.44,7.36l10.56-5.92l8,2.08l4.48-14.87l4.79-3.2l2.4-10.24l1.92-0.96l4.48,3.84l8.48-3.68l0,0l-0.21-0.96l0,0l7.31,0.48
		l-1.76,4.16l8.48,2.56l0.16,4l-4.16,3.52l1.28,4l2.88,1.12l7.2-4l9.6,8.64l3.36,8.15l10.08,9.6l3.52,0.64l5.28-3.36l-0.64-8.32
		l11.83,5.76l0,0l-2.08,3.84l2.88,3.84l-7.2,3.04l-3.84-1.44l-5.75,4.64l3.36,8.96l5.59,1.6l1.92,5.76l12.32-2.72l3.52,8.48
		l-3.36,6.4L356.13,266.9z"/>
	<path id="LV-098" fill="#1E3250" stroke="#1E3250" stroke-width="0.5" d="M411.05,495.4l5.09,3.529l-4.319,7.021l4.489,1.069
		l-1.85,2.7l1.11,5.38l5.52,7.07l-5.77,6.37l-8.11,2.09l0,0L394.2,528.9l-5.25,3.609l-16.64,0.46l0,0l-4.25-8.2l-6-4.92l6-8.399l0,0
		l-0.84-1.41l0,0l3.68-4.33l9.71-2.76l10.08,3.72l2.28-1.32l2.04-4.199l-4.68-1.561l-0.96-9l11.399-8.51l1.44-5.16l5.64,5.16
		L411.05,495.4z"/>
	<path id="LV-099" fill="#1E3250" stroke="#1E3250" stroke-width="0.5" d="M421.21,358.89l2.59,2.2l0,0l2.13,6.8l0,0l0.13,5.2l0,0
		l-5.51,2.42l3.54,21.19l0,0l-6.25,5.189l-10.87,1.62l-1.54-4.41l-1.67,0.79l-5.75,7.761l-4.09,1.38l6.17,7.08l-11.44,12.42
		l-13.41-4.25l-2.98,4.13l2.21,3.25l-1.73,1.96l-10.87-3.39l0,0v-1.2l0,0l-1-4.2l-3.3-1l-2.5-4.7l-5.8-21.2l-13.7,4.301l-7.19-2.4
		l-1.5-4.6l-4.2-2.091l9.29-7.6l-1.37-1.3l0,0l-5.7-9.3l2.4-2l-1-9.601H318l-6.1-7.1l-2.2-8.3l1.5-9.19l6.9-1.7l1.4-4.6l-0.3-2.5
		l-5.5-3.2l1.6-6.9l-1.7-3.6l8.4-3.3l9.5-9.2l-1.47-4.44l0,0l2.34-14.37l4.67,0.04l2.97-5.12l8.95-2.32l2.62-6.21l3.18-3l2.12,1.14
		l-0.75-2.57l0,0l0.57-3.48l4.88-1.15l0,0l0.92,11.67l2.39,2.48l-3.59,2.72l-1.2,8.56l-7.04,4.8l10.4,8.08l3.51-1.52l7.6,5.36
		l6.48,16.15l-3.44,2.79l-0.24,4.96l-7.76,3.439l2.48,4.23l-5.44,7.359l3.36,3.2l4.08,0.16l0.56,3.521l-7.2,2.96l-4.47,7.76
		l4.87,0.88l8.4-2.72l6.56,3.84l6.64-1.12l14.319,2.8L421.21,358.89z"/>
	<path id="LV-100" fill="#1E3250" stroke="#1E3250" stroke-width="0.5" d="M131.92,543.69L128,533.59l6.48-8.28h-5.88l-4.08-6.239
		l-7.08-4.08l6.48-3.84l-3.24-8.75l9.72-4.681l-0.72-4.08l-4.2-2.399l0.15-15.62l0,0l13.69-4.521l0,0l-1.35,5.79l4.4,2.021
		l-1.96,2.77l7.19,3.96l9.96-1.22l1.46,5.87l8.8-2.98l0.12,3.681l0,0l-3.18,4.779l0.99,5.471l9.43,7.02l-0.68,6.71l-9.67,1.95
		l2.51,6.25l3.29,1.64l0,0l-1.86,6.07l-2.64-1.28l-14.48,6.46l-5.67-3.489L131.92,543.69z"/>
	<path id="LV-101" fill="#1E3250" stroke="#1E3250" stroke-width="0.5" d="M811.17,57.45L816,70.37l7.14,1.99l2.69-2.71l1.91,5.68
		l7.51-1.45l5.08,2.3l6.5-4.61l3.71,4.14l5.54-0.32l-5.97,25.72l9.819,0.38l9.561,4.97l1.529,5.64l8.351,3.74l1.18,1.95l-3.29,8.14
		l5.271,2.51l0.52,4.43l4.19,2.2l0.939,12.33l3.99,4.17l15.891,7.8l0,0l-5.2,9.17l-0.19,5.29l2.811,1.54l-0.421,4.31l4.19,1.19
		l-10.49,2.32l0,0l-1.8-5.88l-5.4,0.72l-2.159,3.12l-5.04-0.6l-1.92-1.8l0.479-3.24l3.84-2.64l-1.08-1.92l-5.04,0.36l-1.79-2.16
		l-6.84,2.52l-7.56-5.16l-18.72,1.2l-10.69,7.04l0,0l-6.8,2.48l-2.55-6.32l6.229-7.12l0.48-5.53l-8-1.44l-2.87-4.08l8.55,0.8
		l7.28-5.44l5.52-16.16l-20.87-5.69l-5.76-5.04l2-12.48l-16.32,6.08l-6.68-1.12l0,0l-18.19-13.6l-9.6-3.1l0,0l3.8-9l-12.899-12.7
		l1.34-4.89l3.53,1.98l3.869-4.91l6.87-0.79l10.141,8.04l6.42-0.36l1.26-6.59l3.12-2.46l0.109-7.47l0,0l7.421-6.02L811.17,57.45z"/>
	<path id="LV-102" fill="#1E3250" stroke="#1E3250" stroke-width="0.5" d="M910.41,449.02l0.33-8.47l22.199,1.92l10.801-5.88
		l3.479,3.12l2.521-6.6l4.08-3.12l11.27-0.12v5.16l10.91,3.72l0,0l0.86,0.73l0,0l2.079,9.17l-2.92,5.89l4.75,7.06l-2.39,3
		l-8.819,0.71l-1.221,4.511l4.23,5.09l0,0l-2.16,7.189l-2.891-2.949l-15.779,2.13l0,0l-2.53-4.931l-4.74,3.381l2.32-15.881
		l-18.41-0.06L910.41,449.02z"/>
	<path id="LV-103" fill="#1E3250" stroke="#1E3250" stroke-width="0.5" d="M903.4,589.43l-6.641-13.439l3.28-0.561l-4.16-14.91
		l1.12-5.189l6.56,5.04h4.801l0.479-11.04l3.68-2l7.521,14.15l10.88-1.11l13.03,4.47l1.6-4.24l4.2-1.92l0,0l9.6,1.521l0.4,9.76h4.08
		l1.68,4.55v4.08h-4.72l-0.16,14.72l-12.96,1.601l1.76,4.64l7.12,5.5l0,0l-2.88,2.4l-8.5-3.851l-2.57-7.71l-2.85,2.28l-0.561,8.72
		l-5.75,0.561l-2.55-13.07l-6.92-7.27l-6.12,4.859l-6.16-6.97L903.4,589.43z"/>
	<path id="LV-104" fill="#1E3250" stroke="#1E3250" stroke-width="0.5" d="M758.76,342.18l-0.3-3.42l3.271-3.68l-2.95-5.75
		l3.75-0.48l4.08,3.91l14.8-13.189l0.08-8.4l-5.61-8.94l-9.24-1.8l6.13-8.02l0,0l0.301-8.1l2.699-2.3l-1.699-10.4l-2.301-1.48l0,0
		l0.5-4.49l7.301-3.7l0.37-5.76l0,0l15.76-2.08l2.8,5.2l3.63-3.63l0,0l2.78,0.46l0,0l0,0l0,0l-1.771,17.22l3.24,2.64l0,0l1.15-0.14
		l0,0l-1.75,9.26l3.479,4.2l-1.92,5.4l1.44,2.39l10.56,2.76l7.67,10.44l5.771-0.01l0,0l-6.11,26.21l7.22,2.81l-0.12,8.971
		l-5.909,3.6l0,0l-0.13,0.19l0,0l-7.32,0.739l-0.4-3.359l-5.859-6.101l-4.49,3.91l-2.63-0.71l-3.45-5.97l-4.83,0.06l-1.9,4.16
		l-11.46,8.04l-2.149-4.13l2.439-2.06l0.03-6.511l-11.17,7.49l-12.37-8.16l-1.78,2.311l0,0L758.76,342.18z"/>
	<path id="LV-105" fill="#1E3250" stroke="#1E3250" stroke-width="0.5" d="M598.98,426.73l0.64,2.479l16.84-1.01l0.93,11.399
		l-8.84,0.431l-0.3,6.08l5.64,15.569l8.63,0.03l-0.859,4.39l3.18-1.34l2.351,2.11l0.14,4.51l-5.84,0.521l2.12,6.54l4.51-1.2
		l5.36,1.92l17.92-9.28l4.399,1.28l5.44-2.561l2.779,1.65l9.091-1.86l0,0l1.399,5.9l7.4,4.9l0.7,11.699l0,0l-15.5,3.29l-7,10.2
		l-0.591,4.61l0,0l-4.829,4.279l0.439,6.2l-5.88,1.391l-3.68-3.341l-4.54,6.681l-11.99-0.54l0.53,3.97l-3.021,3.76l-10.28-0.27
		l-0.479,8.27l-8.62,8.061l0,0l-7.33-2.58l-3.04,2.88l-7.52-6l8-8.48l-9.601-3.92l-0.55-2.64l13.11-7.83l2.08-8.1l-4.48-1.44
		l-0.88-2.64l4-5.04l-4.479-2l-3.921-5.601l-5.909,2.96l-4.16-10.71l-5.12-0.479l-0.43-4.75l0,0v-7.2l-9.761-0.8l-1.76-2.4
		l-0.8-15.68h9.76l0.64-2.56l-3-8.921l0,0l2.12-1.01l-2.939-0.83l2.3-2.199l9.9-2.32l9.92-10.22L598.98,426.73z"/>
	<path id="LV-106" fill="#1E3250" stroke="#1E3250" stroke-width="0.5" d="M92.7,221.7l9.71,10.06l1.8-6.6l2.5,4l3.19-2l-1.4-8.3
		l9.6-4.09l-2.9-17.7l-4.45-4.18l5.8-10.58l4.22-15.67l4.97-5.29l20.49-7.21l32.04-3.76l28.28-14.65l4.38,6.46l-3.45,4.49l4.39-2.82
		l5.13,7.84l-2.07,0.15l-0.38,6.24l4.37,9.46l1.92,15.35l-5.1,0.32l-10.13,9.68l-4.61-1.21l1.21,4.62l2.81,1.06l-2.15,3.43
		l-16.32,8.08l9.92,6.74l8.06,1.59l10.32-3.24l1.8,6.45l5.4,0.53l-2.04,0.9l1.89,9.9l-2.24,4.64l3.64,4.67l2.12,15.63l-6.97,0.59
		l-2.34,6.77l-2.94-0.62l-1.28,8.31l-3.52-2.36l-1.41,9.52l-3.25-0.15l4.9,2.91l-2.66,20.19l-2.26,2.32l-10.08,1.45l0.36,2.97
		l-9.29,0.22l-9.02-4.64l-2.17,3.68l-6.68,0.37l-2.51,2.63l-5.3-1.67l-3.48,3.15l-2.19-3.03l-5.63-1.51l-4.13,7.479l-3.4-2.38
		l-1.12,2.29l-1.95-1.05l-0.39-2.75l2.54-1.149l-1.33-3.62l-6.24,0.47l-7.86-5.51l-2.05,4.52l-7.71-3.22l-8.56,10.45l-3.86-1.2
		l-4.32,4.39l-6.92-0.99l-0.07,5.08l-3.71,1.71l1.36,8.851l-4.5-0.01l1.6,17.33l-3.56,3.279l0.71,4.5l-9.56,0.01l-0.96-4.89
		l-4.76-2.3l-2.51,1.88l-4.04-2.92l7.27-8.45l7.12-19.899l-1.32-34.121l1.74-34.16L92.7,221.7z"/>
	<path id="LV-107" fill="#1E3250" stroke="#1E3250" stroke-width="0.5" d="M783.78,603.9l-9.71-1.44l-1.95-6.24l-3.061-1.479
		l-4.09,1.75l-1.85,4.88l-11.311-3.19l-2.409,2.74l-2.721-0.84l0.051-2.87l-7.391,1.21l0,0l0.351-2.32l8.3-0.27l0.99-3.5l-3.5-3.26
		l-1.931-8.811l2.29-8.1l-3.72-5.71l-3.65-0.09l-3.66-6.96l-5.13-2.42l2.641-6.961l8.739-3.359l-2.63-4.03l-2.89,2.311l-8.05-0.551
		l2.229-2.97l-0.95-20.62l0,0l0.881-3.37l14.01,3.83l13.47-1.06l8.36-11.69l6.01,1.91l7.26-7.84l0,0l2.66,2.51l-1.6,7.601
		l1.199,5.779h2.601v4.99l5.3-0.19l3.5,7.79h7.89l1.5,4.7l0,0l-1.399,17.62h-7.19l-2.7,3.5l2.801,10.9l0,0v8.989l0,0l-8.101,17.301
		L783.78,603.9z"/>
	<path id="LV-108" fill="#1E3250" stroke="#1E3250" stroke-width="0.5" d="M1135.439,336.78l-6.579,3.149l-5.88-1.56l0,0l-1.67-4.92
		l-5.881-1.92l-6.119,2.16l-1.801-7.801l2.521-4.319l-1.08-3.96l-4.681,2.88l-19.56-21.23l4.2-22.46l7.92-10.44l10.08-4.68
		l0.189-3.25l0,0l0.461,0.06l0,0l2.09-0.66l0.239-3.69l3.78-0.72l0.561-7.95l8.06-1.34l9.22-6.75l-0.24-12.04l0,0l14.711,8
		l1.039,7.12l7.471-0.56l6.46,9.58l-1.65,9.22l1.87,4.07l-6.71,14.61l0.62,10.69l-2.641,7.03l-14.05,8.29l3.091,3.5l-0.42,2.94
		l-1.66-1.98l-4.49,0.551l0.72,2.819l8.431,2.561l-3.851,4.45l0.65,5.159L1135.439,336.78z"/>
	<path id="LV-109" fill="#1E3250" stroke="#1E3250" stroke-width="0.5" d="M1006.67,506.23l0.71-5.931l-16.67-1.92l0.351-4.07
		l-7.391,0.181l-1.76-4.721l-4.61,0.04l8.49-5.85l-1.31-2.74l-11.91-6.31l0,0l-4.23-5.09l1.221-4.511l8.819-0.71l2.39-3l-4.75-7.06
		l2.92-5.89l-2.079-9.17l0,0l9.489-0.431l2.7,4.5l7-0.7l7.2,17.021l5.09,4.2l8.1,0.989l3.7,4.601l-1.2,3.6l2.2,3.601l-2.7,5
		l9.101,21.699l-4.2,5.4l-6.7-1.8l-6.6,3.1L1006.67,506.23z"/>
	<path id="LV-110" fill="#1E3250" stroke="#1E3250" stroke-width="0.5" d="M1198.561,583.2l6.899-13.9l-12.3-13.689l-7.5-4.4
		l-5.6,5.7l-6.9,1.1l1.1,6.601l-10.79,1.3l-3.5-13.2l17.29-14.96l9.101-1.6l1.3-2.5l-4.3-11.4l1.3-1.9h7.6l5.9,6.5l7.1-3.899
		l8.221,1.39l0,0l-2.44,6.23l4.399,4.97l8.48,26.01l-9.38,13.75l3.2,4.05l-4.78,2.841l0.04,7.569l-10.25,5.82l-3.85,8.26
		l-4.851,0.21l0,0l-2.62-3.74l9.2-13.359l-2.36-3.181l0,0L1198.561,583.2z"/>
</g>
</svg>
