<?xml version="1.0" encoding="utf-8"?>
<!-- Generator: Adobe Illustrator 15.0.0, SVG Export Plug-In . SVG Version: 6.00 Build 0)  -->
<!DOCTYPE svg PUBLIC "-//W3C//DTD SVG 1.1//EN" "http://www.w3.org/Graphics/SVG/1.1/DTD/svg11.dtd">
<svg version="1.1" id="Layer_1" xmlns:amcharts="http://amcharts.com/ammap"
	 xmlns="http://www.w3.org/2000/svg" xmlns:xlink="http://www.w3.org/1999/xlink" x="0px" y="0px" width="421.595px"
	 height="832.068px" viewBox="0 0 421.595 832.068" enable-background="new 0 0 421.595 832.068" xml:space="preserve">
<defs>
	
	
		<amcharts:ammap  projection="mercator" leftLongitude="9.472461" topLatitude="47.271742" bottomLatitude="47.047365" rightLongitude="9.637517">
		</amcharts:ammap>
</defs>
<g>
	<path id="LI-01" fill="#1E3250" stroke="#1E3250" stroke-width="0.5" d="M115.14,647.44l1.13,1.13l2.94,5.14l4.48,4.99l1.37,4.34
		l1.58,3.6l1.11,2.271l1.07,1.12l3.23,2.17l4.95,1.689l2.54,0.65l2.59,0.09l1.18,0.47l2.72,0.08l0.96,0.75l0.26,1.79l-0.37,6.561
		l-0.59,2.92l-1.5,4.16l-0.05,5.84l2.01,4.18l1.82,6.2l0.78,1.43l5.4,5.311l16.18,21.01l0,0l-1.58-0.71l-1.8-0.23l-3.54,0.73
		l-3.05,1.979l-4.97,2.12l-2.35,1.811l-6.48,3.479l-16.87,2.51l-3.7,0.83l-11.24,4.58l-4.38,3.971l-3.63,4.17l-3.26,1.979
		l-10.12,2.54l-14.15,0.86l-3.9,0.56l-3.12,1.41l-2.56,3.479l-1.55,0.98l-1.96,0.26l-2.99-0.75l-1.76-0.85l-3.06-2.23l-3.01-1.149
		l-2.33-0.301l-2.31,0.5l-1.1,0.631l-1.63,1.71l-2.91,5.27l-2.48,5.66l-2.41,4.05l-1.48,1.57l-2.08,0.87l-2.22,0.05l-2.09-0.71
		l-3.36-3.41l-1.04-1.8l-1.79-6.34l-0.99-1.96l-1.48-1.641l-2.16-0.89h-2.35l-3.41,0.83l-3.44,1.479l-3.07-1.54l-2.46-2.77
		L3.05,758.4l-2.77-15.28L0,737.98l0.59-5.011l2.48-8l5.24-3.939l5.05-2.66l2.4-1.72l5.22-1.61l3.99-2.24l4.43-1.26l3.99-2.31
		l4.41-1.33l3.98-2.341l4.41-1.34l3.97-2.35l5.09-1.84l6.61-5.61l10.04-5.86l6.61-5.63l5.75-2.37l7.25-6.1l9.4-5.5l4.39-3.86
		l3.83-4.21l2-4.8l2.52-3.82L115.14,647.44z M235.25,639.71l9.36,3.07l2.23-0.62l3.6-2.04l2.2,0.08l2.53,1.04l0,0l-0.71,2.22
		l-1.88,3.22l-0.12,2.561l4.75,5.93l0.56,3.35l0.05,4.45l0.48,1.67l0.03,4.65l1.11,3.54l3.8,4.609l2.42,1.9l4.21,4.29l0.72,3.21
		l-2.83,2.5l-3.99,1.36l-3.54,2.37l-6.77,3.729l-5.08,1.21l-4.4-0.01l-7.95-1.73l-0.81-0.59l-5.34-5.439l-3.22-3.851L223,680.19
		l-0.73-2.33l1.07-4.87l-0.01-5.36l-0.92-11.21l2.77-6.04l2.7-3.21L235.25,639.71z M369.73,440.89l-1.15,28.66l11.04,23.181
		l11.98,15.359l-20.92,31.101l-2.76,4.869l0,0l0.33-3.22l-1.15-0.22l-4.15-3.04l-15.69-7.17l-5.38-1.33l-1.15-0.63l-1.18-4.49
		l-0.12-3.07l-0.94-2.909l-0.1-5.221l-1.41-3.149l-0.22-2.4l-1.53-2.13l0,0l-0.05-1.75l-1.62-5.88l-1.96-3.4l-0.59-3.659l0.01-9.961
		l-1.14-3.079l-4.83-6.11l-3.5-2.44l-4.78-5.13l-5.52-4.85l0,0l-3.13-2.561l-3.04-3.59l-6.64-0.16l-2.74-0.67l-6.34-2.77l-4.06-2.96
		l-6.55-3.891l-4.15-1.199l-5.42-0.11l-1.29-0.67l-1.16-1.14l0,0l-0.29-1.601l0.27-1.64l1.6-3.15l-0.5-2.45l0.46-1.21l0.1-3.689
		l0.53-1.721l-1.02-2.67l0.44-1.62l0.09-2.789l1.98-2.83l1.12-2.58l0.21-4.11l2.09-5.05l0,0l1.46-1.78l0.88-1.84l1.86-1.36
		l3.89-3.96l1.03-3.109l0.18-2.811l0.59-1.18l1.89-1.91l1.1-1.72l0.65-2.44l0,0l4.73,3.721l16.43,15.02l10.48,22.81l21.32,12.9
		L369.73,440.89z"/>
	<path id="LI-02" fill="#1E3250" stroke="#1E3250" stroke-width="0.5" d="M196,275.38l-2.4-3.34l0.48-2.05l0.05-4.47l1.14-2.09
		l2.17-1.16l0.47,0.24l4.41,6.58l3.22,2.18l3.66,1.68l7.09,2.26l2.2,0.36l0,0l-0.82,9.51l-1.86,3.89l-6.11-1.76l-3.57,1.28l0,0
		l-3.6-7.2L196,275.38z M62.73,217.49l2.55,2.41l7.21,4.49l0.96-0.17l3.14-3.13l0.96-0.39l1.56,1.31l1.09,2.21l-8.47,9.6l-5.92,8.65
		l-4.55,7.71l-3.56,4.15l-0.15,3.44l0.47,1.25l0.16,1.97l5.7,4.06l0.71-0.09l2.8-1.94l4.95-0.03l0.72-0.26l0.6-1.31l0.6-8.1
		l0.51-1.43l0.05-3.45l0.51-1.44l0.03-3.21l0.46-0.71l0.8-0.12l13.65,8.48l0.61,1.85l0.07,2.83l0.98,5.28l0.06,2.68l0.48,1.32
		l-0.05,2.04l0,0l-5.41-0.03l-2.15-0.54l-2.89,0.04l0,0l-1.2,0.57l-22.41,20.75l-1.61,1.11l-0.88-0.5l-6.05-12.87l-4.39-3.35
		l-4.33-2.49l0,0l0.47-7.79l2.79-3.29l2.05-5.34l2.14-3.03l1.87-4.91l2.14-2.96l1.9-4.91l2.05-3.05l0.67-1.78l1.32-7l2.45-3.87
		L62.73,217.49z M183.53,150.36l-7.46,5.02l-4.99,3.86l-2.17,2.18l-1.78,2.7l-2.95-0.44l-0.95-0.44l-2.2-0.01l-1.91,0.65l-1.69,1.7
		l-6,9.36l0.83,1.54l4.21,4.29l0.25,1.08l-8.88,5.77l-2.21,3.1l-1.75,5.28l-0.13,2.39l-0.51,1.55l0.11,1.4l1.58,2.75l14.56,12.66
		l19.18,14.26l0.86-0.28l5.2-5.93l2.36-0.12l1.49,0.43l0.67-0.48l1.39-5.66l0.6-1.17l0.75-0.48l17.72-4.38l4.82,0.07l2.77,3.34
		l3.19,6.32l3.32,11.01l-0.97,0.85l-6.83,2.37l-6.47,3.18l-0.33,0.94l0.86,1.36l4.45,4.46l2.43,1.73l3.25,1.19l4.19,0.81l8.76,5.77
		l6.41,1.77l1.24-0.05l2.79-1.02l3.8,0.7l4.73,3.6l5.87,5.89l0.98,0.66l1.11-0.65l0,0l-2.63,3.42l-12.83,20.02l0,0l-9.98-5.96
		l-7.92,2.53l-1.3-0.08l-0.59-0.66l-2.11-4.92l-1.4-6.04l0,0l-0.9-10.81l-1.65-3.91l-3.75-6.23l-0.69-0.43l-12.3-2.94l-0.43-2.47
		l-3.75-3.8l-7.76-4.85l-1.53,0.89l-2.61,2.31l-1.15,1.55l2.61,5.66l4.99,1.35l0.56,0.43l0.06,4.68l-1.69,0.73l-4.07,0.71
		l-4.12,1.58l-9.98,6.78l-1.74,0.11l-1.54-0.55l-1.78,0.08l-0.76,1.35l-0.1,3.49l-0.71,2.87l0,0l-3.76,1.28l-2.37,0.09l-6.9-1.63
		l-2.96-0.23l0,0l-0.86-0.75l0,0l-1.31-5.04l-0.68-1.02l-43.61-17.37l-13.9-40.85l-0.67-4.49l0.32-0.59l0.98-0.13l4.9,1.16
		l4.95-0.15l0.68-1.93l0.15-3.02l0.69-0.31l2.45,0.04l0.53-0.52l0.04-8.67l-0.51-1.75l-0.02-3.38l0.53-2.04l0.19-3.01l3.54-2.12
		l3.6-0.81l2.26-1.63l3.26-3.25l2.65-3.95l2.49-2.22l8.09-0.16l4.21-3.59l3.62-0.09l1.61,0.84l0.74,2.17l1.61,2.87l2.08,1.11
		l1.41,0.05l1.67-1.16l0.81-1.86l1.14-1.44l1.24-0.81l2.17-0.2l2.99-3.48l6.05-0.21l2.78-3.57l0,0l0.33-1.02l2.69-3.25l4.07-3.49
		l3.02-3.6l3.47-2.05h0.53l0.61,0.61l2.02,3.53l0.8,2.54L183.53,150.36z"/>
	<path id="LI-03" fill="#1E3250" stroke="#1E3250" stroke-width="0.5" d="M166.46,274.11l0.71-2.87l0.1-3.49l0.76-1.35l1.78-0.08
		l1.54,0.55l1.74-0.11l9.98-6.78l4.12-1.58l4.07-0.71l1.69-0.73l-0.06-4.68l-0.56-0.43l-4.99-1.35l-2.61-5.66l1.15-1.55l2.61-2.31
		l1.53-0.89l7.76,4.85l3.75,3.8l0.43,2.47l12.3,2.94l0.69,0.43l3.75,6.23l1.65,3.91l0.9,10.81l0,0l-2.77,0.04l0,0l-2.2-0.36
		l-7.09-2.26l-3.66-1.68l-3.22-2.18l-4.4-6.58l-0.47-0.24l-2.17,1.16l-1.14,2.09l-0.05,4.47l-0.48,2.05l2.4,3.34l0,0l-3.75,2.57l0,0
		l-0.93-1.55l-2.22-1.7l-6.4-3.96l-6.71,0.03l-6.37,2.48L166.46,274.11z M101.13,127.45l0.49,0.31l-0.1,0.54l3.83,2.41l2.51,1.08
		l3.76-2.16l3.53-2.98l3.22-2.14l0.82,0.01l3.74,3.83l1.67,2.25l0.3,0.92l-0.26,2.12l0.22,1.04l1.66,1.05l3.8,1.29l1.7,1.71
		l1.17,4.15l0.06,4.41l0.63,0.94l2.4,2.24l6.92,0.07l0,0l-0.8,1.44v3.13l0.63,0.76l2.18,1.16l2.01,0.05l5.771-1.58l1.35,0.09
		l2.94,1.04h3.24l1.6-0.51l3.18,0.12l0,0l-2.78,3.57l-6.05,0.22l-2.99,3.479l-2.17,0.2l-1.24,0.81l-1.14,1.44l-0.81,1.86l-1.67,1.16
		l-1.41-0.05l-2.08-1.1l-1.6-2.87l-0.74-2.17l-1.6-0.84l-3.62,0.09l-4.2,3.59l-8.09,0.16l-2.49,2.23l-2.65,3.95l-3.26,3.25
		l-2.26,1.63l-3.6,0.81l-3.54,2.12l-0.19,3.01l-0.53,2.04l0.03,3.38l0.51,1.75l-0.04,8.67l-0.53,0.53l-2.45-0.04l-0.69,0.31
		l-0.15,3.02l-0.68,1.93l-4.95,0.15l-4.9-1.16l-0.98,0.14l-0.32,0.59l0.67,4.49l13.9,40.85l43.61,17.37l0.68,1.02l1.31,5.04l0,0
		l-3.8-0.24l-1.18-0.47l-2.58-0.09l-1.18-0.47l-2.72-0.12l-1.19-0.47l-2.96-0.07l-1.74-0.53l0,0l-2.02-0.04l-1.21-0.47l-2.53-0.09
		l-1.23-0.47l-2.87-0.12l-2.08-0.5l-8.54,0.03l0,0l-3.3-0.65l-9.07-0.07l-2.75-0.55l-4.24-0.04l0,0l0.05-2.03l-0.48-1.32l-0.06-2.68
		l-0.98-5.28l-0.07-2.83l-0.61-1.85l-13.68-8.5l-0.8,0.12l-0.45,0.71l-0.03,3.21l-0.5,1.44l-0.05,3.45l-0.5,1.43l-0.6,8.1l-0.6,1.31
		l-0.72,0.26l-4.95,0.03l-2.8,1.94l-0.71,0.09l-5.7-4.06l-0.16-1.97l-0.47-1.25l0.15-3.44l3.56-4.15l4.55-7.71l5.93-8.65l8.47-9.6
		L79.12,222l-1.56-1.31l-0.96,0.39l-3.13,3.13l-0.96,0.18l-7.21-4.49l-2.55-2.41l0,0l1.74-2.45l0.91-2.78l0.94-6.55l2.57-6.97
		l1.28-9.06l2.54-6.97l1.07-7.94l0.95-3.18l3.87-7.98l3.35-5.57l2.75-3.6l2.05-4.79l6.09-7.01l1.55-4.11l2.49-3.78l1.99-4.86
		L101.13,127.45z"/>
	<path id="LI-04" fill="#1E3250" stroke="#1E3250" stroke-width="0.5" d="M183.53,150.36l2.22-0.11l1.11-0.6l3.51-5.67l4.41-3.84
		l10.59-5.33l3.47-0.11l0.61-0.79l-0.38-1.13l0.38-0.57l2.27-0.26l1.9,1.53l3.74,1.62l0,0l-5.37,6.17l-11.46,19.42l10.88,10.91
		l18.61,9.21l17.74,12.45l11.99,17.41L276,237.02l-4.94,15.88l-11.03,14.31l0,0l-1.1,0.65l-0.98-0.66l-5.87-5.89l-4.73-3.6l-3.8-0.7
		l-2.79,1.02l-1.24,0.05l-6.41-1.76l-8.76-5.77l-4.19-0.81l-3.25-1.18l-2.43-1.73l-4.45-4.46l-0.86-1.36l0.33-0.94l6.47-3.18
		l6.83-2.38l0.98-0.85l-3.32-11.01l-3.19-6.32l-2.78-3.34l-4.82-0.07l-17.71,4.38l-0.75,0.49l-0.6,1.17l-1.38,5.66l-0.67,0.48
		l-1.49-0.43l-2.36,0.12l-5.19,5.94l-0.87,0.28l-19.17-14.26l-14.56-12.66l-1.58-2.75l-0.11-1.4l0.52-1.55l0.13-2.39l1.74-5.31
		l2.21-3.1l8.88-5.77l-0.24-1.08l-4.21-4.29l-0.83-1.53l6-9.36l1.69-1.7l1.91-0.65l2.2,0.02l0.95,0.44l2.95,0.44l1.78-2.69
		l2.17-2.19l4.98-3.85L183.53,150.36z"/>
	<path id="LI-05" fill="#1E3250" stroke="#1E3250" stroke-width="0.5" d="M152.13,305.06l-0.6-0.05l-2.57-2.12l-1.55-2.38
		l-0.13-1.64l1.26-2.34l1.15,0.11l5.54,3.05l0.48,3.91l-0.5,0.5L152.13,305.06z M221.27,275.54l1.4,6.04l2.11,4.92l0.59,0.66
		l1.3,0.08l7.92-2.53l9.98,5.96l0,0l1,21.19l5.32,27.33l5.98,15.279l15.67,13.79l14.74,11.601l0,0l-0.64,2.439l-1.1,1.72l-1.88,1.91
		l-0.58,1.19l-0.18,2.82l-1.03,3.109l-3.89,3.96l-1.86,1.36l-0.88,1.85l-1.46,1.78l0,0l-1.43-0.09l-7.36-2.19l-7.16-3.93l-8.06-6.54
		l-14.76-12.83l-6.45-4.89l-12.86-6.48l0,0l5.87-8.109l4.23-3.391l1.53-3.39l2.84-4.351L210.72,333.7l-6.23-4.69l-10.2-0.63
		l-0.87,0.71l-1.83,3.62l-1.3,0.5l-14.28-3.44l-1.07-0.51l-0.39-0.66l0.02-6.1l-0.5-1.99l-0.1-5.62l-2.19-4.45l-3.37-4.189
		l-4.93-3.39l3.5-7.18l2.45-6.31l2.19-3.85l0.91-0.07l4.26,1.63l3.7-2.35l3.44-2.98l8.37-1.24l2.3-1.24l0,0l1.8,1.74l5.09,3.02
		l1.51,1.95l1.25,3.33l1.89-0.81l0,0l3.57-1.28l6.11,1.77l1.86-3.89l0.82-9.51l0,0L221.27,275.54z M186.98,319.56l0.75,0.36
		l0.3,3.03l0.76,0.46l1.91-0.07l1.32-0.479l3.79-0.08l1.26-0.67l0.63-1.44l-0.21-0.98l-3.46-4.229l-5.63-0.28l-2.56-3.08
		l-3.85-0.109l-0.44,0.77l0.09,4.43l0.92,1.131l2.02,1.199L186.98,319.56z M132.25,270.4l1.74,0.53l2.97,0.07l1.19,0.47l2.72,0.12
		l1.19,0.47l2.58,0.09l1.18,0.47l3.8,0.24l0,0l0.86,0.75l0,0l10.22,10.83l-0.07,1.62l-2.22,3.88l-1.09,1.24l-1.33-0.69l-12.28-11.64
		l-9.38-4.27l-1.85-2.94L132.25,270.4z"/>
	<path id="LI-06" fill="#1E3250" stroke="#1E3250" stroke-width="0.5" d="M140,10.14l2.02-3.39L147.47,0l7.33,8.81l11.32,11.74
		l14.21,18.65l20.07,17.74l4.97,6.42l0,0l-1.63-0.93l-5.84,6.95l-5.38,5.42l-10.81,10.23l-8.92,7.26l-6.16,6.48l-1.62,2.3l0.22,0.7
		l7.53,7.63l5,3.43l1.28,0.42l9.04-5.92l12.69-12.13l5.48-4.41l1.37-0.49l-0.02,1.38l-1.7,3.71l-5.48,10.36l-6.99,7.04l-6.2,4.56
		l-4.66,5.74l-6.63,3.44l-7.86,5.07l-6.09,3.44l-4.25,4.14l-2.9,0.07l-2.51-0.57l-2.59,0.29l-6.55,11.58l0,0l-6.91-0.07l-2.41-2.24
		l-0.62-0.94l-0.06-4.41l-1.17-4.15l-1.7-1.72l-3.8-1.29l-1.65-1.05l-0.22-1.04l0.25-2.12l-0.29-0.92l-1.67-2.25l-3.74-3.83
		l-0.83-0.01l-3.21,2.14l-3.54,2.98l-3.76,2.16l-2.51-1.08l-3.83-2.41l0.1-0.54l-0.49-0.31l0,0l3.84-4.6l1.55-4.1l2.5-3.76
		l1.54-4.16l2.74-3.64l3.19-5.65l2.16-6.56l2.35-4.03l1.63-7.82l2.36-4.04l1.7-5.65l2.14-4.65l1.71-5.64l2.45-3.95l1.71-5.62
		l2.45-5.69l1.57-6.17l2.32-5.87l0.38-2.24l0.14-11.78l-0.36-4.75L140,10.14z"/>
	<path id="LI-07" fill="#1E3250" stroke="#1E3250" stroke-width="0.5" d="M281.41,633.8l6.01,0.181l1.5,0.579l6.1,4.101l11.43,3.89
		l6.41,1.29l3.34,1.03l1.69-0.07l1.98-0.77l0,0l1.34,3.22l0.59,2.62l0.08,2.77l1.63,3.94l3.38,4.22l2.82,2.69l2.16,3.38l0.76,2.41
		l1.67,3.39l1.33,1.79l1.27,3.31l1.12,0.79l0,0l-3,20.061l-9.42,40.52l2,2.311l-1.65-0.011l-2.26,0.98l0,0l-5.16-3.47l-3.1-4.74
		l-3.42-2.38l-3.77-3.29L305,724.1l-4.15-8.739l-6.4-5.061l0.33-0.74l5.95-5.83l0.4-0.93l-7.28-13.96l-5.54-18.14l-5.67-15.061
		l-1.02-4.359l3.01-8.471l-2.96-7.069L281.41,633.8z M266.71,439.09l1.16,1.15l1.3,0.67l5.42,0.109l4.15,1.2l6.55,3.891l4.06,2.96
		l6.34,2.77l2.74,0.67l6.64,0.16l3.04,3.6l3.13,2.561l0,0l-1.18,2.22l-7.63,10.86l-4.51,4.74l-1.01,0.689l-6.92,2.141l-7.11,0.67
		l-1.23,0.689l-0.02,1.141l4.64,7.029l1.32,3.92l5.46,4.98l8.13,0.15l2.31,0.529l3.83,0.07l3.7-1.061l2.78,0.051l3.02,0.71
		l3.78,5.72l2.32,0.14l6.15,1.601h4.09l2.08-0.71l0,0l1.53,2.13l0.22,2.399l1.41,3.15l0.1,5.22l0.94,2.91l0.12,3.07l1.18,4.5
		l1.15,0.63l5.39,1.33l15.69,7.17l4.15,3.04l1.15,0.22l-0.33,3.22l0,0l-7.9,13.891l3.87,3.81l0,0l-2.43,2.97l-1.77,3.261
		l-4.49-0.931l-16.76-5.33l-2.2,0.44l-7-0.03l-2.06,0.5l-2.07-0.52l-5-0.08l-4.55-1.05l-4.05-0.04l-1.94,0.779l-2.84,2.721
		l-3.26,2.17l-2.1,0.7l-2.66,0.14l-2.41,1.53l0,0l-0.92-0.19l-3.1-1.92l-4.2-1.28l-2.9-1.52l-5.98-0.12l-3.29-1.04l-2.72-0.07l0,0
		l0.53-2.81l0.08-4.43l0.48-1.91l0.05-6.11l0.52-1.63l0.08-3.7l3.63-9.2l2.77-8.979l0.11-3.311l0.52-1.739l-0.19-5.09l-0.71-0.811
		l-8.58-1.28l-6.46-2.6l-5.7-0.73l-3.44-1.18l-6.01-4.7l-2.59-2.93l-2.5-3.58l-9.82-6.22l-0.59-0.66l-0.62-1.74l0.17-2.77l2.45-3.62
		l1.39-3.7l3.08-4.44l1.13-0.079l2.45,2.06l1.09-0.16l1.69-2.38l-0.03-4.24l0.34-1.01l3.95-3.72l3.57-4.63l2.38-1.801l4.83-4.869
		l2.78-6.181l0.6-2.42L266.71,439.09z M188.8,315.25h4.38l1.2,0.47l3.23,4.16l0.04,1.2l-0.57,1.02l-1.66,0.75l-3.67,0.03l-1.9,0.53
		l-1.55-0.15l-0.3-0.58l-0.03-2.37l-0.42-0.579l-3.25-0.311l-2.54-1.979l-0.12-5.11l0.63-0.42l3.6,0.16l0.96,0.859l1.37,2.101
		L188.8,315.25z M81.94,266.9l1.27,1.82l4.51,15.88l0.53,1.09l6.65,8.49l3.45,10.46l0.61,1.16l0.79,0.22h6.47l2.51-0.51l6.63,0.03
		l3.33-0.5l0.51-0.4l-7.42-35.88l0,0l8.54-0.03l2.09,0.5l2.88,0.12l1.23,0.47l2.53,0.1l1.21,0.47l2.02,0.04l0,0l0.21,1.25l1.85,2.94
		l9.38,4.27L156,290.53l1.33,0.69l1.1-1.24l2.22-3.88l0.07-1.62l-10.22-10.83l0,0l2.96,0.23l6.9,1.63l2.38-0.09l3.76-1.28l0,0
		l3.17-0.86l6.37-2.48l6.71-0.03l6.4,3.96l2.23,1.7l0.93,1.55l0,0l2.32,1.28l0,0l-2.3,1.24l-8.37,1.24l-3.44,2.98l-3.69,2.35
		l-4.26-1.63l-0.91,0.07l-2.19,3.85l-2.45,6.31l-3.5,7.18l4.93,3.4l3.37,4.19l2.19,4.449l0.1,5.62l0.5,1.99l-0.02,6.1l0.39,0.66
		l1.07,0.511l14.28,3.439l1.3-0.5l1.84-3.62l0.87-0.71l10.2,0.63l6.23,4.69l19.45,12.11l-2.84,4.35l-1.53,3.39l-4.23,3.4l-5.87,8.11
		l0,0l-1.42,1.579l-3.44,5.58l-5.66,6.75l-0.5,1.48l0,0l-9.86-4.9l-3.06-0.09l-1.4-0.479l-3.46-0.08l-3.08-0.551l-8.84,0.5
		l-7.271-0.039l-6.92,1.01l-5.06-0.04l-15.06-4.86l-8.21-1.28l-1.2-0.47l-2.57-0.01l-0.5,0.36l-3.99,8.079l-2.09,0.671l-3.32,0.01
		L118,379.01l0.48,3.311l0.01,6.3l0.5,2.36l-0.2,3.909l-7.51,1.851l-7.08,3.03l-0.91,0.069l-9.96-5.63l-1.62-1.05l-1.11-1.24
		l-4.3-20.439l-0.01-3.57l1.03-2.48l-0.01-1.279l-1.4-0.65l-1.9-0.16l-11.68-2.649l-2.15-0.12l-1.07-0.44l-8.85-0.01l-0.3,0.46v1.48
		l2.07,9.359l0.11,2.33l0.64,1.85l25.96,22.681v0.84l-1.91,2.41l-0.2,0.89l0.67,0.96l3.06,2.641l2.28,12.39l3.23,9.35l1.63,2.84
		l9.54,11.94l-0.12,0.66l-1.77,1.02l-5.19,2.141l-1.78,0.069l-2.07-6.88L93,435.79l-6.08-8.87l-5.75-7.229l-1.32-0.57l-6.14-0.01
		l-3.23,0.51l3.46,6.14l13.95,20.431l5.61,22.279l0,0l-3.01-6.04l-4.1-6.31l-7.87-7.51l-2.24-2.54l-2.05-5.221l-3.06-4.52
		l-2.04-5.79l-2.3-4.82l-1.97-5.779l-2.2-3.341l-2.15-5.04l-2.66-3.979l-1.74-4.23l-2.67-3.989l-1.73-4.24l-2.97-5l-4.17-13.74
		l-1.81-10.36l-2.79-7.21l-1.52-9.199l-3.43-15.141l-1.5-16.729l0.7-10.33l0.54-3.35l2.6-9.77l0.82-11.96l2.92-12.19l0,0l4.33,2.49
		l4.39,3.36l6.05,12.87l0.88,0.5l1.61-1.1l22.37-20.77L81.94,266.9z M126.72,326.79l1.41,0.67l3.56,7.38l1.1,1.061l4.59,2.17
		l1.04-0.63l4.31-6.57l-0.07-0.63l-0.53-0.57l-6.98-5.439l-9.43-4.54l-1.08,0.279l-1.67,4.96l-0.15,1.351l0.71,0.489L126.72,326.79z
		 M148.25,296.83l-1.06,2.68l0.21,1l1.56,2.38l2.75,2.2l3.69-1.13l0.37-1.13l-0.68-3.37l-5.96-2.98L148.25,296.83z"/>
	<path id="LI-08" fill="#1E3250" stroke="#1E3250" stroke-width="0.5" d="M217.36,135.1l-3.74-1.62l-1.9-1.53l-2.27,0.26l-0.38,0.57
		l0.38,1.13l-0.61,0.79l-3.47,0.11l-10.59,5.33l-4.41,3.84l-3.51,5.67l-1.11,0.6l-2.22,0.11l0,0l-0.73-0.85l-0.8-2.53l-2.02-3.54
		l-0.61-0.6h-0.52l-3.47,2.05l-3.02,3.6l-4.07,3.49l-2.68,3.25l-0.33,1.02l0,0l-3.18-0.12l-1.6,0.51h-3.24l-2.94-1.03l-1.35-0.1
		l-5.76,1.58l-2.01-0.05l-2.18-1.16l-0.63-0.76v-3.13l0.8-1.44l0,0l6.55-11.58l2.59-0.29l2.51,0.57l2.9-0.07l4.25-4.14l6.09-3.44
		l7.86-5.07l6.63-3.44l4.66-5.74l6.2-4.56l6.99-7.04l5.48-10.36l1.7-3.71l0.02-1.38l-1.37,0.49l-5.48,4.41l-12.69,12.13l-9.04,5.92
		l-1.28-0.42l-5-3.43l-7.53-7.63l-0.22-0.7l1.62-2.3l6.16-6.48l8.92-7.26l10.81-10.23l5.38-5.42l5.84-6.95l1.63,0.93l0,0
		l11.41,14.71l19.85,29.49l-11.47,18.59L217.36,135.1z"/>
	<path id="LI-09" fill="#1E3250" stroke="#1E3250" stroke-width="0.5" d="M146.09,511.04l4.53,6.64l0.26,6.551l5.08,7.02v0.82
		l-1.48,3.3l0.08,1.11l3.15,4.27l0.94,0.62l3.56,1.2l1.71-0.471l2.58,0.12l2.33,7.33l0.04,9l-0.51,1.91l-0.1,2.46l-2.22,10.96
		l-2.63,6.17l0.14,0.891l3.18,5.449l1.14,1.15l2.38,0.1l1.84-0.529l2.63-0.051l1.13-0.46l2.52-0.02l5.21-0.98l1.09,0.261l10.65,8.18
		l0.76,2.05l0.67,4.34l0.79,2.28l13.19,14.28l5.7,4.359h1.23l9.45-5.56l1.12-0.05l6.5,7.859v13.73l0.52,2.38l0,0l-7.38,7.45
		l-2.7,3.21l-2.77,6.04l0.92,11.22l0.01,5.36l-1.06,4.87l0.73,2.33l3.62,6.159l3.22,3.841l5.34,5.449l0.81,0.591l7.95,1.729
		l4.41,0.021l5.08-1.211l6.77-3.729l3.55-2.36l3.99-1.359l2.83-2.5l-0.72-3.221l-4.21-4.29l-2.42-1.89l-3.8-4.61l-1.11-3.54
		l-0.02-4.649l-0.48-1.67l-0.04-4.45l-0.57-3.35l-4.75-5.931l0.12-2.56l1.88-3.21l0.72-2.22l0,0l1.5-1.2l1.03-1.41l1.69-3.04
		l1.2-3.91l-1.15-5.21l-2.55-7.91l0.02-14.109l-0.52-1.75l0.03-2.19l0.63-0.42l5,0.04l1.44-0.49l3.94-0.02l1.42-0.48l2.76-0.1l0,0
		l-0.16,7.54l0.46,1.18l0.09,2.74l1.61,7.189l2.68,7.41l2.43,3.99l1.85,3.93l0.84,0.79l0,0l0.23,1.94l2.97,7.08l-3.01,8.47
		l1.02,4.36l5.66,15.06l5.55,18.14l7.28,13.95l-0.4,0.931l-5.95,5.829l-0.33,0.74l6.4,5.061l4.15,8.739l3.24,4.431l3.78,3.3
		l3.41,2.38l3.1,4.74l5.17,3.47l0,0l-4.25,2.46l-3.85,3.021l-4.28,1.89l-4.74,3.14l-4,1.65l-7.01,2.26l-2.03,1.55l-7.3,7.32
		l-5.75,1.82l-6.13,2.75l-6.43,2.01l-12.8,1.37l-12.96,2.17l-2.49,0.689l-9.31,4.62l-10.8,6.82l-4.96,4.04l-5.89-3.27l-1.56-1.461
		l-3.65-4.949l-0.46-2.04l-0.41-10.59l-1.33-9.171l-0.68-2.869l-2.03-4.36l-3.9-4l-4.41-3.38l-5.64-2.19l-7.29-5.6l-4.14-1.47
		l-2.28-1.33l0,0l-16.19-21.011l-5.4-5.31l-0.78-1.42l-1.82-6.2l-2.01-4.18l0.05-5.84l1.51-4.15l0.58-2.92l0.37-6.56l-0.26-1.79
		l-0.96-0.75l-2.72-0.091l-1.17-0.47l-2.59-0.09l-2.54-0.65l-4.95-1.689l-3.23-2.17l-1.06-1.11l-1.11-2.27l-1.58-3.61l-1.38-4.34
		l-4.48-4.99l-2.94-5.14l-1.12-1.13l0,0l2.79-6.41l1.66-6.07l2.14-4.72l0.72-3.2l0.33-5.58l-0.1-25.12l-0.39-3.24l-2.59-9.39
		l-1.9-10.84l-4.2-10.2l-2.83-5.79l1.07-4.149l0.51-5.2l-0.11-6.54l-0.56-5.101l-1.16-5.14l-1.41-9.08l-2.76-9.58l0,0l8.37-1.67
		l6.1-0.61l1.71-0.47l5.67,0.07l6.76,1.57l4,0.109l3.27,0.54L146.09,511.04z"/>
	<path id="LI-10" fill="#1E3250" stroke="#1E3250" stroke-width="0.5" d="M296.29,568.98l2.41-1.53l2.66-0.13l2.1-0.7l3.26-2.17
		l2.84-2.72l1.94-0.78l4.05,0.04l4.55,1.05l5,0.08l2.07,0.52l2.06-0.5l7,0.03l2.2-0.439l16.76,5.329l4.49,0.931l1.77-3.26
		l2.43-2.971l0,0l14.52,14.29L389.16,594l8.18,23.76l-6.47,22.04l-3.46,23.33l-25.77,0.51L338.7,673.91l-0.7,4.65l0,0l-1.12-0.79
		l-1.27-3.311l-1.33-1.79l-1.67-3.39l-0.76-2.41l-2.16-3.37l-2.81-2.689l-3.38-4.221l-1.63-3.939l-0.08-2.771l-0.59-2.62l-1.34-3.21
		l0,0l2.27-1.38l0.7-1.25l0.62-3.109l0.09-2.601l0.46-1.18l0.09-2.61l0.47-1.18l0.11-2.73l2.02-5.619l1.28-4.78l1.98-4.22
		l0.03-2.681l-3.03-3.25l-1.61-2.62l-1.12-5.17l-0.13-3.26l-1.08-4.28l-0.7-1.51l-2.87-2.49l-2.81-3.67l-2.44-2l-0.85-1.859
		l-1.59-2.19l-2.69-2.729l-5.38-3.79l-4.42-1.391L296.29,568.98z M273.77,401.98l-2.09,5.05l-0.21,4.109l-1.12,2.591l-1.97,2.829
		l-0.09,2.79l-0.44,1.62l1.02,2.67l-0.53,1.721l-0.1,3.689l-0.46,1.21l0.5,2.45l-1.6,3.15l-0.27,1.64l0.29,1.6l0,0l-0.1,4.46
		l-0.6,2.421l-2.78,6.18l-4.83,4.87l-2.38,1.8l-3.57,4.63l-3.95,3.72l-0.34,1.011l0.03,4.239l-1.69,2.38l-1.09,0.16l-2.45-2.06
		l-1.13,0.08l-3.08,4.439l-1.39,3.7l-2.45,3.62l-0.17,2.77l0.63,1.74l0.59,0.66l9.82,6.22l2.5,3.58l2.6,2.931l6.01,4.699l3.44,1.19
		l5.71,0.729l6.46,2.601l8.58,1.28l0.71,0.81l0.2,5.09l-0.52,1.74l-0.11,3.31l-2.77,8.98l-3.63,9.2l-0.08,3.7l-0.51,1.63
		l-0.05,6.109l-0.48,1.91l-0.08,4.43l-0.53,2.811l0,0l-2.62,6.66l-1.64,6.5l-0.15,2.54l-0.5,1.6l0.03,7.6l0.43,1.021l0.69,4.64
		l2.18,5.62l0,0l-2.76,0.101l-1.41,0.479l-3.95,0.01l-1.43,0.5l-5.01-0.04l-0.63,0.42l-0.02,2.19l0.52,1.75l-0.02,14.11l2.55,7.909
		l1.15,5.21l-1.2,3.91l-1.68,3.04l-1.04,1.41l-1.5,1.2l0,0l-2.53-1.04l-2.2-0.08l-3.6,2.04l-2.22,0.62l-9.36-3.07l0,0l-0.52-2.38
		v-13.73l-6.5-7.85l-1.12,0.05l-9.44,5.561h-1.229l-5.71-4.36l-13.19-14.28l-0.78-2.27l-0.67-4.34l-0.77-2.04l-10.65-8.181
		l-1.09-0.27l-5.2,0.979l-2.52,0.03l-1.13,0.46l-2.63,0.05l-1.84,0.53l-2.38-0.09l-1.14-1.16l-3.18-5.45l-0.14-0.89l2.63-6.18
		l2.22-10.95l0.1-2.46l0.51-1.91l-0.04-9l-2.33-7.33l-2.58-0.12l-1.71,0.47l-3.56-1.199l-0.94-0.62l-3.15-4.271l-0.08-1.12l1.49-3.3
		v-0.82l-5.08-7.02l-0.27-6.54l-4.53-6.65l0,0l5.64-2.329l1.15-4.36l0.1-2.48l0.53-1.87l-0.33-1.6l-2.66-2.17l-2.24-2.58
		l-0.65-2.479l-0.09-3.69l-3.57-4.79l-0.12-2.91l-0.5-1.59l0.05-8.14l2.27-8.521l2.3-3.7l4.46-2.069l1.52-0.98l0.26-0.59l-0.09-2.34
		l-2.46-5.4l-1.63-4.81l0.04-3.37l2-1.311l2.58,0.71l4.51,7.73l2.86,1.28l0.88,0.069l1.35-1.119l0.23-0.86l-0.07-4.86l-2.06-5.47
		l0.11-2.06l1.14-1.721l2.94-0.66l6.35,0.141l3.32,2.25l3.51,5.37l0.97,0.43l6.27-2.8l4.18-4.05l3.78-1.591l2.37-0.27l0.02-2.19
		l-3.07-12.1l-0.04-1.87l4.21-11l1.86-5.97l2.5-5.37l2.17-5.95l0.12-3.34l-0.34-1.28l0,0l0.5-1.479l5.67-6.75l3.44-5.58l1.42-1.58
		l0,0l12.86,6.48l6.45,4.89l14.76,12.84l8.06,6.55l7.16,3.931l7.36,2.189L273.77,401.98z"/>
	<path id="LI-11" fill="#1E3250" stroke="#1E3250" stroke-width="0.5" d="M273.19,562.84l2.72,0.07l3.29,1.04l5.98,0.12l2.9,1.52
		l4.2,1.28l3.1,1.93l0.92,0.19l0,0l2.94,1.51l4.42,1.39l5.38,3.801l2.69,2.729l1.59,2.19l0.85,1.859l2.44,2.011l2.81,3.67
		l2.87,2.489l0.71,1.511l1.08,4.279l0.13,3.261l1.12,5.17l1.61,2.62l3.03,3.26l-0.03,2.68l-1.98,4.22l-1.28,4.78l-2.02,5.62
		l-0.11,2.729l-0.47,1.181L324,634.52l-0.46,1.181l-0.08,2.6l-0.62,3.11l-0.69,1.25l-2.27,1.39l0,0l-1.98,0.771l-1.69,0.069
		l-3.34-1.029l-6.41-1.29l-11.43-3.891l-6.1-4.1l-1.5-0.58l-6.01-0.17l0,0l-0.84-0.79l-1.85-3.93l-2.43-3.99l-2.68-7.41l-1.62-7.18
		l-0.09-2.74l-0.46-1.18l0.16-7.53l0,0l-2.18-5.62l-0.69-4.64l-0.43-1.021l-0.02-7.6l0.5-1.601l0.15-2.539l1.64-6.5L273.19,562.84z
		 M311.23,458.82l5.52,4.85l4.78,5.13l3.5,2.44l4.83,6.109l1.14,3.08v9.96l0.59,3.66l1.96,3.41l1.62,5.88l0.05,1.75l0,0l-2.08,0.71
		h-4.09l-6.15-1.6l-2.32-0.13l-3.78-5.721l-3.02-0.71l-2.78-0.06l-3.7,1.06l-3.83-0.069l-2.31-0.521l-8.12-0.149l-5.46-4.98
		l-1.31-3.92l-4.64-7.03l0.02-1.14l1.23-0.69l7.11-0.67l6.92-2.14l1.01-0.69l4.51-4.739l7.63-10.86L311.23,458.82z M93.51,468.46
		l-5.61-22.28l-13.95-20.42l-3.46-6.14l3.23-0.51l6.14,0.01l1.32,0.57l5.75,7.229l6.07,8.87l2.99,3.65l2.07,6.88l1.78-0.07
		l5.19-2.14l1.77-1.021l0.12-0.66l-9.54-11.939l-1.63-2.84l-3.23-9.351l-2.28-12.39l-3.06-2.641l-0.67-0.96l0.2-0.89l1.91-2.41
		v-0.83L62.66,375.5l-0.64-1.84l-0.11-2.33l-2.07-9.36v-1.479l0.3-0.46l8.86,0.01l1.07,0.44l2.15,0.119l11.68,2.65l1.9,0.16
		l1.4,0.649l0.01,1.28l-1.03,2.48l0.01,3.569l4.3,20.44l1.11,1.24l1.62,1.05l9.96,5.63l0.91-0.07l7.08-3.029l7.51-1.841l0.2-3.909
		l-0.5-2.36l-0.01-6.3l-0.48-3.311l0.84-0.729l3.32-0.01l2.09-0.671l3.99-8.079l0.5-0.36l2.57,0.01l1.2,0.47l8.21,1.28l15.06,4.86
		l5.06,0.04l6.92-1.01l7.27,0.039l8.84-0.5l3.08,0.551l3.46,0.08l1.4,0.489l3.07,0.091l9.86,4.899l0,0l0.34,1.28l-0.12,3.34
		l-2.17,5.95l-2.5,5.37l-1.86,5.97l-4.21,11l0.04,1.87l3.07,12.109l-0.02,2.19l-2.37,0.27l-3.78,1.591l-4.18,4.05l-6.27,2.8
		l-0.97-0.43l-3.51-5.37l-3.32-2.25l-6.35-0.13l-2.93,0.66l-1.14,1.72l-0.11,2.06l2.06,5.471l0.07,4.859l-0.23,0.86l-1.35,1.12
		l-0.88-0.07l-2.86-1.28l-4.51-7.729l-2.58-0.71l-2,1.31l-0.04,3.37l1.63,4.81l2.46,5.4l0.09,2.34l-0.26,0.59l-1.52,0.98l-4.45,2.07
		l-2.3,3.699l-2.27,8.521l-0.05,8.14l0.5,1.59l0.12,2.91l3.57,4.79l0.09,3.69l0.65,2.479l2.24,2.58l2.66,2.17l0.33,1.601l-0.53,1.87
		l-0.1,2.479l-1.15,4.36l-5.64,2.33l0,0l-3.85,0.59l-3.27-0.54l-4-0.11l-6.76-1.569l-5.67-0.07l-1.71,0.47l-6.1,0.61l-8.36,1.67l0,0
		l-2.09-10.7l-2.76-7.42l-2.1-10.11l-2.1-4.95l-2.24-7.319L93.51,468.46z M138.11,326.7l4.01,2.979l0.63,0.98l-4.34,6.79
		l-0.82,0.649l-5.47-2.75l-4-7.88l-1.4-0.67l-3.45-0.069l-0.46-0.65l1.82-6.1l1.08-0.28l8.58,4.01L138.11,326.7z M206.13,288.5
		l-1.89,0.81l-1.24-3.33l-1.54-1.99l-5.09-3.02l-1.8-1.74l0,0l-2.32-1.28l0,0l3.75-2.57l0,0l6.54,5.93L206.13,288.5z M111.75,268.73
		l7.42,35.88l-0.51,0.4l-3.32,0.5l-6.63-0.03l-2.51,0.51h-6.47l-0.79-0.21l-0.61-1.16l-3.45-10.46l-6.65-8.49l-0.53-1.09l-4.5-15.87
		l-1.27-1.82l0,0l2.89-0.04l2.15,0.54l5.41,0.03l0,0l4.24,0.04l2.75,0.55l9.07,0.07L111.75,268.73z"/>
</g>
</svg>
