<?xml version="1.0" encoding="utf-8"?>
<!-- Generator: Adobe Illustrator 15.0.0, SVG Export Plug-In . SVG Version: 6.00 Build 0)  -->
<!DOCTYPE svg PUBLIC "-//W3C//DTD SVG 1.1//EN" "http://www.w3.org/Graphics/SVG/1.1/DTD/svg11.dtd">
<svg version="1.1" id="Layer_1" xmlns:amcharts="http://amcharts.com/ammap"
	 xmlns="http://www.w3.org/2000/svg" xmlns:xlink="http://www.w3.org/1999/xlink" x="0px" y="0px" width="819.075px"
	 height="622.079px" viewBox="0 0 819.075 622.079" enable-background="new 0 0 819.075 622.079" xml:space="preserve">
<defs>
	
	
		<amcharts:ammap  projection="mercator" leftLongitude="20.958510" topLatitude="56.446758" bottomLatitude="53.898758" rightLongitude="26.838150">
		</amcharts:ammap>
</defs>
<g>
	<path id="LT-AL" fill="#1E3250" stroke="#1E3250" stroke-width="0.5" d="M374.13,466.22l2.67,1.63l2.46-0.34l1.31-2.939l9.32,1.38
		l-1.63,2.729l6.05-2.199l0.01-5.721l8.791,0.83l4.909-2.729l0.521-2.94l-2.43-1.26l2.51-6.16l5.41-2.44l4.729,0.9l2.63,4.53
		l2.66-2.32l9.141,0.04l1.06-4.09l4.57,0.05l2.439-2.21l1.94,0.53l-1.33,4.41l2.56,5.13l11.16,1.17l5.45-0.811l1.32-2.27l0,0
		l-0.301,6.89l1.87,4.061l-3.59,1.699l5.66,3.99l-2.61,7.061l2.19-0.71l2.15,2.89l11.789-1.19l-0.039,2.15l4.22,1.26l1.109-5.45
		l3.601-0.21l1.21-2.56l3.01,1.05l2.88-1.56l6.61,4.54l-1.25,4.67l1.54,4.649l2.46-3.819l1,1.33l13.67,0.06l0.56-3.29l7.42-0.99
		l0.57,1.9l1.58-3.55l13.16-3.48l-0.2,9.21l-3.02,0.73l0.35,2.77l-9.46,1.83l0.33,2.59l-2.36,0.69l2.82,14.22l-6.63,0.45l-1.46,2.08
		l1.97,2.22l-3.13,0.32l-1.92,4.22l-3.601-0.18l-0.35,1.689l-1.79-0.619l0.311,3.579l-7.2,1.83l-0.3,4.83l8.39,3.69l2.78,9.91l0,0
		l-2.03,0.729l1.75,3.021l-7.85,4.55l6.409,9.3l0.311,5.88l2.74,2.59l2.88-1.04l1.1,1.49l-4.7,0.84l0.46,4.79l-1.84-0.359
		l-1.62,3.149l-6.1,0.391l-4.601,4.31l0.36,1.74L499,580.68l1.29-12.479l-2.7-0.29l-2.729,2.899l-4.771-0.77l-2.75,4.04l-10.91,7.39
		l-8.47,11.55l-2.95,1.471l-1.24-1.45l0.101,1.99l-0.69-1.811l-8.41,1.29l-1.43-2.529l-2.07,2.46L449,593.85l-8.16-10.699
		l-2.72,1.779l-2.87-1.13l-1.23-4.569l-7.96,3.619l-3.76-0.699l-1.76,4.05L405.8,589.1l-2.649-0.319l-0.86-5.48l-6.43-3.76
		l-3.42,5.87l-4.88-2.63l-2.66,0.59l-4.68,4.189l2.42,5.551l-5.29,2.13l0.64-2.65l-2.04-2.83l-5.97-2.97l-15.3,2.36l-3.72-3.74
		l-5.98-0.23l-5.26-5.46l-1.95-6.84l5.73-7.22l0.46-7.811l-4.72-11.609l-0.85-8.17l-3.62-5.15l-4.56-0.5l-5.88-11.65l-7.74-5.579
		l0,0l1.59-5.19l-2.87-5.09l4.42-2.33l0.67-8.32l7.07-5.1l7.47-0.37l-2.51-2.1l-0.75-5.091l2.99,0.44l4.21-3.78l3.32,0.391
		l-0.03-12.131l13.45-5.71l1.45-4.29l2.58-1.449l3.36,3.08l1.87,5.529l4-2.069L374.13,466.22z"/>
	<path id="LT-KU" fill="#1E3250" stroke="#1E3250" stroke-width="0.5" d="M230.61,231.84l3.06-2.61l1.64,1.2l5.76-7.06l2.08,2.43
		l9.68-0.8l0.4,5.81l-3.41,1.34l2.53,3.53l1.55-2.05l4.55,1.72l5.38-5.15l7.41-1.77l1.55,1.18l6-5.46l1.98,2.19l0.36-2.8l3.41,2.3
		l-1.47-7.56l3.12-1.08l-0.06-6.06l3.63-0.75l0.54,3.35l2.27,0.35l9.63-3.02l1.69-2.26l1.63,9.69l2.21,1.67l2.29-3.61l1.58,1.58
		l7.17-3.3l5.41,3.54l2.85,6.31l7.32,2.26l-0.95,1.6l2.35,0.71l2.34-2.22l-1.12-4.54l8.03-2l4.44,3.6l-0.23,7.93l12.36,0.45
		l-0.4-3.01l5.4-5.58l26.36-13.2l0,0l3.2,4.34l-2.28,0.9l0.86,2.68l3.51,4.08l3.16,2.09l0.13-1.48l3.17-0.4l7.79,8.05l2.83-0.52
		l-0.92,7.55l6.01,1.34l1.551-2.47l2.5,0.19l1.739,3.15l3.73-3.36l5.13,0.26l0.729-5.41l5.37,2.23l0.24,3.39l6.44,2.37l1.81-3.73
		l4.48,4.37l3.34-0.45l3.31,2.07l-0.29,4.09l6.54,3.59l0,0l-0.26,5.42l-2.89,1.18l-0.311,3.23l-1.96,1.2l-1.95,13.69l4.341,0.4
		l1.079,2.52l-2.079,10.91l12.22,3.15l-3.16,4.16l2.52,9.02l5.671,2.069l-2.62,2.83l2.54,5.15l2.319,2.77l2.86-0.6l1.26,8.55
		l3.05,0.16l2.13,5.26l1.82,0.471l-2.5,1.42l0.2,2.84l-5.49,0.93l0.67,3.63l-3.569,1.3l-1.74,3.811l3.67,3.95l5.3-0.07l2.49,4.11
		l5.31,2.319l1.54,4.391l5.351-1l0,0h2.569l0,0l8.24,6.71l-1.43,4.26l-2.66-1.02l-3.95,2.3l1.74,12.66l-2.18-0.551l-1.04,1.761
		l-1.511-1.37l-0.21,1.58l-5.56,0.71l-5.64,3.699l-1.671,6.961l1.86,4.14l-1.86,0.34l-0.859,10.37l-4.33,0.46l-4.43-3.83
		l-1.631,6.28l-5.369-2.561l-3.92,0.811l-2.79,4.29l2.22,10.18l-2.93,1.87l2.569-0.021l1.53,5.2l-2.04-0.439l-4.05,4.05l-1.71-1.311
		l-1.42,14.811l0,0l-1.32,2.27l-5.45,0.811l-11.16-1.17l-2.56-5.13l1.33-4.41l-1.94-0.53l-2.439,2.21l-4.57-0.05l-1.06,4.09
		l-9.141-0.04l-2.66,2.32l-2.63-4.53l-4.729-0.9l-5.41,2.44l-2.51,6.16l2.43,1.26l-0.521,2.94l-4.909,2.729l-8.791-0.83l-0.01,5.721
		l-6.05,2.199l1.63-2.729l-9.32-1.38l-1.31,2.939l-2.46,0.34l-2.67-1.63l0,0l4.66-8.439l-4.32-4.53l-1.43-6.22l-5.83,1.97
		l-5.01-9.79l4.49-2.25l-3.4-5.67l-3.86,0.35l0.52-1.8l-2.6-1.22l5.94-2.23l-2.32-3.109l2.66-1.851l-0.62-3.8l-4.27-6.67l3.79-3.16
		l-3.63-6.399l1.37-3.46l-2.24-1.181l-6.59,1.8l8.71-9.13l-5.63-5.81l1.49-1.82l-1.64-1.83l2.91-4.359l-11.69-8.801l-5.47,3.431
		l-2.9-2.641l-0.56-8.05l-10.87-5.479l7.07-6.08l8.93-1.63l8.46-4.42l1.38-6.79l-4.22-2.391l-9.4-1.029l-9.55-5.891l0,0l3.82-2.609
		l5.23-9.44l0.05-8.58l3.73-10.14l-7.03-3.45l-4.44,1.98l-1.17-1.56l-2.25,0.93l-2.62-1.52l-0.99-5.75l-7.19,0.21l-1.13,1.9
		l-15.59-0.5l-0.18-8.32l-8.34,3.08l-6.04-1.4l-1.56,3.09l-8.32-0.49l2.55-5.45l-6.51-3.38l1.32-6.23l-5.21,1.53l-2.31-1.78
		l0.79,2.13l-4.81,0.65l-0.15,2.53l-2.27-0.21l-1.88,2.72v-4.52l-2.68-1.69l-0.06-2.67l-7.26-0.14l0.19-3.7l2.47-1.76l-1.87-7.67
		l-5.48,0.54l-0.92-2.54l-2.43,0.12l0.82-8.36l-5.71,1.92l-3.48-8.71l2.86-1.86L230.61,231.84z"/>
	<path id="LT-KL" fill="#1E3250" stroke="#1E3250" stroke-width="0.5" d="M19.76,174.5l4.45,9.61l-2.06,44.33l-3.81,11.29l2.78,4.82
		l-3.18,2.4l0.85,1.53l-4.9,8.64l0.31,9.05l-5.57,3.54l-0.55,2.9l-2.45,1.1l1.02,1.99l-2.78,2.5l-3.25-0.47l11.72-29.03l6-24.55
		l2.26-29.22l-2.02-21.66L19.76,174.5z M134.61,16.9l1.52,0.43l0,0v5.06l-5.18,0.79l-0.57,8.03l6.12,0.6l-1.04,11.44l3.06,4.66
		l-0.39,5.49l3.42,3.5l-0.17,3.55l-6.39-1.15l-6.16,21.02l-11.37-4.81l1.55,8.61l-12.31-3.04l-2.82,7.39l-3.07-0.67l-7.87,18
		l-10.1-1.55l-1.59,3.82l4.72,2.05l-3.37,7.55l1.18,7.81l-2.38,0.07l0.67,2.38l6.45,4.14l-3.63,1.02l-1.44,5.49l-6.51,2.97
		l0.23,4.58l-1.67-1.04l-2.41,6.27l6.29,3.96l3.96-5.01l1.04,3.56l4.37,3.46l-0.63,2.49l2.06,0.52l-1.52,5.07l2.75,0.73l2.19-2.84
		l6.51,3.29l1.11-1.56l0.76,1.71l1.64-0.64l1.04-2.51l2.49,1.54l0.12,6.35l-2.02,4.12l5.22,3.86l3.21,0.07l-2.45,2.25l-2.81,10.26
		l3.29,2.43l0.35,5.69l5.13-1.68l6.43,5.33l0,0l-1.72,2.43l1.12,1.32l-5.87,3.02l-2.94,4.13l3.61,0.14l-2.26,2.31l0.19,5.09
		l1.86,5.04l1.75-0.78l2.73,17.61l6.65-2.91l6.05,3.59l4.45-0.82l3.07,6.18l-4.54,10.82l-13.28,18.37l10.94,2.53l8.69,5.71
		l-1.22,3.16l4.61,13.85l13.2-1.59l3.77,4.27l13.24,0.84l2.9,2.61l-5.24,0.069l-0.76,7.41l2.23,9.69l0,0l-15.93,1.89l-5.06,6.84
		l-5.53,0.33l-5.28-3.72l-0.51-9.96l-5.56-0.4l-3.69,2.66l-5.99-1.28l-9.43-4.01l-4.33-5.06l-4.65,0.02l-7.7-3.29l-1.26-3.689
		l-8.48-7.4l-11.09-4.11l-9.01,2.41l-6.53-7.87l-9.13-17.08l-14.67,11.19l3.39-13.15l-7.51-9.28l1.32-4.5l2.04-0.07l-2.54-1.24
		l-2,3.4l-6.55,2.67l8.31-18.17l0.95-10.55l-4.18-14.55l2.83-1.84l-3.85,1.86l-0.94-11.13l-4.5-5.64l-3.63-10.27l-0.41-5.27
		l2.42,3.59l-3.49-9.93l-2.62-5.8l-4.98-3.95l-4.22-45.05l3.35-19.22l-1.6-16.4l12.64-3.94l2.91,2.58l2.82-0.43l4.48-9.2
		l-0.51-11.18l5.83-2.3l7.27-11.05l16.62-7.13l5.4-10.52l5.49-0.1l3.86-5.5l4.29-1.73L91,30.33l5.17,2.91l6.53-0.5l15.01-13.93
		l4.68,2.7L134.61,16.9z"/>
	<path id="LT-MR" fill="#1E3250" stroke="#1E3250" stroke-width="0.5" d="M218.79,326.73l9.72,4.84l10.88-2.471l4.71-3.84l9.41-2.75
		l11.06,1.19l16.23-5.22l36.05,8.76l11.61-1.4l0,0l9.55,5.891l9.4,1.029l4.22,2.391l-1.38,6.79l-8.46,4.42l-8.93,1.63l-7.07,6.08
		l10.87,5.479l0.56,8.05l2.9,2.641l5.47-3.431l11.69,8.801l-2.91,4.359l1.64,1.83l-1.49,1.82l5.63,5.81l-8.71,9.13l6.59-1.8
		l2.24,1.181l-1.37,3.46l3.63,6.399l-3.79,3.16l4.27,6.67l0.62,3.8l-2.66,1.851l2.32,3.109l-5.94,2.23l2.6,1.22l-0.52,1.8l3.86-0.35
		l3.4,5.67l-4.49,2.25l5.01,9.79l5.83-1.97l1.43,6.22l4.32,4.53l-4.66,8.439l0,0l-5.25-4.609l-4,2.069l-1.87-5.529l-3.36-3.08
		l-2.58,1.449l-1.45,4.29l-13.45,5.71l0.03,12.131l-3.32-0.391l-4.21,3.78l-2.99-0.44l0.75,5.091l2.51,2.1l-7.47,0.37l-7.07,5.1
		l-0.67,8.32l-4.42,2.33l2.87,5.09l-1.59,5.19l0,0l-11.92-1.881l-4.22-6.39l-6.48-1.939l0.71-2.921l-2.03-1.279l-6.58,3.81
		l-5.96-3.29l-0.64-3.109l2.34-3.4l-9.19-4.62l2.11-4.86l-3.57-1.64l-17.06-4.63l-2.69,0.979l-3.28,8.061l-2.13,1.24l-9.31-14.24
		l-2.8-6.4l-0.36-11.819l-2.56-6.11l3.66-6.85l-3.17-5.521l7.97-9.18l-0.18-4.01l1.79-1.36l-4.22-8.65l3.29-4.68l-1.33-4.2
		l4.67-6.01l4.17-0.8l1.11-2.61l4.08-0.24l2-2.399l-0.9-2.471l3.49-0.579l-0.6-3.36l1.63-1.96l-2.01-1.55l0.67-3.221l-2.23-0.899
		l1.46-3.17l-3.92-2.601l1.82-5.189l-0.95-2.46l-3.66-3.59l-3.44,2.13l-2.04-5.24l-3.25,1.65l1.46-4.021l-3.1-0.83l-2.15-5.479
		l-2.5-2.44l-2.35,0.33l-1.47-3.58l-2.68,1.51l0.42,3.99l-2.51-1.85l-2.4-7.63l-3.58-4.091L218.79,326.73z"/>
	<path id="LT-PN" fill="#1E3250" stroke="#1E3250" stroke-width="0.5" d="M526.54,0.82l3.44,1.5l-0.99,6.43l4.26,9.13l3.7,2.75
		l0.71,12.53l5.04,4.81l0.92,3.72l4.6,2.55l2.82,16.979l10.18,4.79h6.4l4.42-4.14l11.09,11.37l2.82-2.2l9.02-0.96l-0.04,2.28
		l2.16,0.67l1.92-2.18l9.32,2.49l1.13-3.83l2.92-1.39l2.75,1.17l1.55,4.96l4.09,1.36l7.181-0.07l3.22-3.54l1.43,1.2l-0.71,3.39
		l2.71,2.54l-1.399,8.01l9.71,5.49l7.78,1.94l1.689,5.25l2.97,2.03l0.5,5.68l4.94-0.271l19.61,10.92l0,0l-6.73,1.21l-4.18,4.5
		l-0.28,2.93l2.69,3.74l-1.66,5.96l-9.41,1.88l0.55,8.98l-5.34,1.04l-2.94-1.47l-2.18,15.28l-7.26-2.61l-5.061,0.95l-0.26,8.34
		l-5.43,4.29l-1.75-4.71l-4.05,2.27l-4.48-0.31l-1.99-2.39l-2.189,5.21l-5.25-1.82l-1.11,2.81l-1.81,0.07l-3.55-1.77l0.84-2.37
		l-3.58-1.25l-1.36,2.7l-10.45-7.99l-3.13,0.76l-4.34,6.07l-4.87,0.52l0.34,4.19l1.82,0.73l-1.13,2.93l-4.37-4.33l-3.15,0.38
		l-19.239,8.07l-1.891-4.85l1.98-2.91l-4.771,0.5l-11.5-5.28l-6.319,4.38l-8.021-0.59l-0.439,3.64l-2.74-0.47l-2.37-3.95l-5.53,3.05
		l-5.14-0.17l-2.94-2.81l-2.29,9.15l5.591,3.24l-3.761,3.64l-3.6-1.89l0.939-1.68l-6.96,1.59l0.061,4.39l5.26-1.51l2.63,1.92
		l1.75,7.84l-6.58,2.21l-1.47,4.16l1.57,4.08l-2.101,1.55l1.09,2.17l-2.35,7l0,0l-3.76,2.26l3.47,8.76l-1.32,3.36l-6.13,2.7
		l-7.68-2.44l-0.41,4.77l-2.61,1.27l1.04,3.17l-4.39,2.49l0.45,2.37l-5.86-0.47l0,0l-6.54-3.59l0.29-4.09l-3.31-2.07l-3.34,0.45
		l-4.48-4.37l-1.81,3.73l-6.44-2.37l-0.24-3.39l-5.37-2.23l-0.729,5.41l-5.13-0.26l-3.73,3.36l-1.739-3.15l-2.5-0.19l-1.551,2.47
		l-6.01-1.34l0.92-7.55l-2.83,0.52l-7.79-8.05l-3.17,0.4l-0.13,1.48l-3.16-2.09l-3.51-4.08l-0.86-2.68l2.28-0.9l-3.2-4.34l0,0
		l4.53-10.75l-0.36-5.41l6.86,2.38l1.4-2.57l7.699-0.71l-2.239-3.85l-0.29-8.16l2.529,0.59l3.95-3.88l-4.8-3.62l1.86-7.41
		l-4.19-2.56l1.8-2.68l-2.04-4.41l-4.239,0.86l-4.131-13.46l8,1.07l-1.829-4.13l3.79,0.93l0.5-2.93l6.869-2.78l-1.109-4.68
		l2.55-4.85l-0.24-6.52l-3.78,0.35l-1.71-2.9l-2.779,1.07l-2.75-3.22l1.979-5.31l-0.75-3.55l2.73-3.25l-0.221-5.27l2.811,2.7
		l1.01-1.41l0.55-9.46l4.181-1.14l3.5-11.48l1.62,0.86l5.119-2.6l-0.01-9.7l-3.37,0.67l1.9-5.65l-4.521-2.06l-2.189-7.46l4.45-5.52
		l0,0l2.979,0.31l3.74-3.81l11.3-4.38l-0.34-3.1l6.82,0.56l2.569,5.76l4.74-1.25l4,3.99l4.23,0.82l9.17-5.94l7.62-1.2l-0.261-8.02
		l6.851-6.4l0.38-6.57l8.17,0.21l2.39-2.98l-0.42-3.16l9.521,0.43l3.609-5.3l2.92,2.65l4.431-0.99l-0.11-5.03l2.43-3.19L526.54,0.82
		z"/>
	<path id="LT-SA" fill="#1E3250" stroke="#1E3250" stroke-width="0.5" d="M266.58,8.15l6.88,2.31l2.14,7.83l-1.81,0.89l2.92,9.44
		l2.52,2.26l3.7-0.77l2.81,4.42l11.93-7.93l-1.47-7.03l14.65-0.87l4.17-2.86l9.94,1.08l4.18,2.1l2.82,4.4l14.24,4.64l11.74-6.95
		l17.61-2.98l1.87,2.98l-1.93,9.19l2.06,0.63l2.25-4.6l2.6-0.55l12.87,0.53l2.06,2.28l11.57-0.04l0.979,4.71l3.46,3l0.01,4.23
		l6.561,0.65l2.34,6.65l5.32-0.96l0,0l-4.45,5.52l2.189,7.46l4.521,2.06l-1.9,5.65l3.37-0.67l0.01,9.7l-5.119,2.6l-1.62-0.86
		l-3.5,11.48l-4.181,1.14l-0.55,9.46l-1.01,1.41l-2.811-2.7l0.221,5.27l-2.73,3.25l0.75,3.55l-1.979,5.31l2.75,3.22l2.779-1.07
		l1.71,2.9l3.78-0.35l0.24,6.52l-2.55,4.85l1.109,4.68l-6.869,2.78l-0.5,2.93l-3.79-0.93l1.829,4.13l-8-1.07l4.131,13.46l4.239-0.86
		l2.04,4.41l-1.8,2.68l4.19,2.56l-1.86,7.41l4.8,3.62l-3.95,3.88l-2.529-0.59l0.29,8.16l2.239,3.85l-7.699,0.71l-1.4,2.57
		l-6.86-2.38l0.36,5.41l-4.53,10.75l0,0l-26.36,13.2l-5.4,5.58l0.4,3.01l-12.36-0.45l0.23-7.93l-4.44-3.6l-8.03,2l1.12,4.54
		l-2.34,2.22l-2.35-0.71l0.95-1.6l-7.32-2.26l-2.85-6.31l-5.41-3.54l-7.17,3.3l-1.58-1.58l-2.29,3.61l-2.21-1.67l-1.63-9.69
		l-1.69,2.26l-9.63,3.02l-2.27-0.35l-0.54-3.35l-3.63,0.75l0.06,6.06l-3.12,1.08l1.47,7.56l-3.41-2.3l-0.36,2.8l-1.98-2.19l-6,5.46
		l-1.55-1.18l-7.41,1.77l-5.38,5.15l-4.55-1.72l-1.55,2.05l-2.53-3.53l3.41-1.34l-0.4-5.81l-9.68,0.8l-2.08-2.43l-5.76,7.06
		l-1.64-1.2l-3.06,2.61l0,0l-7.3-1.24l3.38-2.94l-0.71-2.45l-8.44-9.85l0.65-3.6l-3.95,0.33l-2.83-6.35l-3.97-1.01l0.2-2.67l0,0
		l0.18-0.83l0,0l1.33-4.13l-5.08-3.28l0.8-5.51l-1.64-3.59l0,0l1.56-2.91l5.95-1.84l0.37-3.13l-1.28-9.21l-5.69-11.16l12.86-3.13
		l-0.38-13.23l7.76,0.67l3.82-3.54l3.06,2.06l-0.84-4.01l3.66-0.05l0.3-5.26l-1.89-2.97l3.05-0.81l-0.6-2.33l-3.02-0.1l-2.78-9.52
		l-2.9-1l1.4,6.05l-5.01-0.15l-2.21-0.73l0.41-3.24l-2.69-3.51l3.5-2.43l3.11-8.87l-1.79-4.49l2.5,2.22l3.72-3.98l3.73,1.17
		l7.72-2.32l-0.98-3.75l-4.19-3.04l0.68-7.43l-1.97-0.94l-9.34,2.64l-0.22,3.44L223,83.46l-0.81,2.01l-10.08-4.689l-3.44-0.07
		l-2,2.37l-9.56-1.85l2.7-4.88l-3.61,1.15l2.1-5.4l-5.21-2.02l0.1-1.55l4.29-20.311l7.73-1.63l1.53-7.85l-2.66,0.36l-1.98-3.85
		l8.92,0.65l0.68-2.71l8.38,1.61l3.16-7.34l-4.59-6.35l7.15-0.7l0,0l4.87,3.04l6.32-4.79l17.25,1.13l9.22-3.88l1.03-2.63
		l-1.83-1.271L266.58,8.15z"/>
	<path id="LT-TA" fill="#1E3250" stroke="#1E3250" stroke-width="0.5" d="M123.61,203.83l14.85-4.44l1.04,1.99h3.85l7.66-12.31
		l4.34,1.96l4.22-4.91l13.63-5.18l7.3,5.48l1.07-2.2l3.07,0.12l5.68,3.97l5.29-3.09l4.18,1.82l3.44-2.32l0,0l1.64,3.59l-0.8,5.51
		l5.08,3.28l-1.33,4.13l0,0l-0.18,0.83l0,0l-0.2,2.67l3.97,1.01l2.83,6.35l3.95-0.33l-0.65,3.6l8.44,9.85l0.71,2.45l-3.38,2.94
		l7.3,1.24l0,0l1.8,2.9l-2.86,1.86l3.48,8.71l5.71-1.92l-0.82,8.36l2.43-0.12l0.92,2.54l5.48-0.54l1.87,7.67l-2.47,1.76l-0.19,3.7
		l7.26,0.14l0.06,2.67l2.68,1.69v4.52l1.88-2.72l2.27,0.21l0.15-2.53l4.81-0.65l-0.79-2.13l2.31,1.78l5.21-1.53l-1.32,6.23
		l6.51,3.38l-2.55,5.45l8.32,0.49l1.56-3.09l6.04,1.4l8.34-3.08l0.18,8.32l15.59,0.5l1.13-1.9l7.19-0.21l0.99,5.75l2.62,1.52
		l2.25-0.93l1.17,1.56l4.44-1.98l7.03,3.45l-3.73,10.14l-0.05,8.58l-5.23,9.44l-3.82,2.609l0,0l-11.61,1.4l-36.05-8.76l-16.23,5.22
		l-11.06-1.19l-9.41,2.75l-4.71,3.84l-10.88,2.471l-9.72-4.84l0,0l-16.38,5.77l-25.56-4.59l0,0l-2.23-9.69l0.76-7.41l5.24-0.069
		l-2.9-2.61l-13.24-0.84l-3.77-4.27l-13.2,1.58l-4.61-13.85l1.21-3.15l-8.68-5.71l-10.95-2.53l13.29-18.37l4.54-10.81l-3.07-6.18
		l-4.45,0.82l-6.06-3.59l-6.65,2.91l-2.73-17.61l-1.75,0.77l-1.86-5.04l-0.18-5.08l2.26-2.31l-3.61-0.14l2.94-4.13l5.86-3.02
		l-1.12-1.32L123.61,203.83z"/>
	<path id="LT-TE" fill="#1E3250" stroke="#1E3250" stroke-width="0.5" d="M156.93,4.29l4.87,2.66l5.56-1.04l4.85,5.28l9.37-1.5
		l4.93,3.4l8.38-3.64l8.71,1.14l4.41,2.91l13.88,2.43l3.91,4.48l0,0l-7.15,0.7l4.59,6.35l-3.16,7.34l-8.38-1.61l-0.68,2.71
		l-8.92-0.65l1.98,3.85l2.66-0.36l-1.53,7.85l-7.73,1.63l-4.29,20.311l-0.1,1.55l5.21,2.02l-2.1,5.4l3.61-1.15l-2.7,4.88l9.56,1.85
		l2-2.37l3.44,0.07l10.08,4.689l0.81-2.01l1.61,0.43l0.22-3.44l9.34-2.64l1.97,0.94l-0.68,7.43l4.19,3.04l0.98,3.75l-7.72,2.32
		l-3.73-1.17l-3.72,3.98l-2.5-2.22l1.79,4.49l-3.11,8.87l-3.5,2.43l2.69,3.51l-0.41,3.24l2.21,0.73l5.01,0.15l-1.4-6.05l2.9,1
		l2.78,9.52l3.02,0.1l0.6,2.33l-3.05,0.81l1.89,2.97l-0.3,5.26l-3.66,0.05l0.84,4.01l-3.06-2.06l-3.82,3.54l-7.76-0.67l0.38,13.23
		l-12.86,3.13l5.69,11.16l1.28,9.21l-0.37,3.13l-5.95,1.84l-1.56,2.91l0,0l-3.44,2.32l-4.18-1.82l-5.29,3.09l-5.68-3.97l-3.07-0.12
		l-1.07,2.2l-7.3-5.48l-13.63,5.18l-4.22,4.91l-4.34-1.96l-7.66,12.31h-3.85l-1.04-1.99l-14.85,4.44l0,0l-6.42-5.33l-5.13,1.67
		l-0.35-5.69l-3.29-2.43l2.81-10.26l2.44-2.25l-3.2-0.07l-5.23-3.86l2.02-4.12l-0.12-6.34l-2.49-1.55l-1.04,2.52l-1.64,0.64
		l-0.76-1.71l-1.11,1.56l-6.51-3.29l-2.19,2.84l-2.75-0.73l1.52-5.07l-2.06-0.52l0.63-2.49l-4.37-3.47l-1.04-3.56l-3.96,5.01
		l-6.29-3.96l2.4-6.27l1.67,1.05l-0.22-4.59l6.5-2.97l1.45-5.49l3.63-1.02l-6.45-4.14l-0.67-2.38l2.38-0.07l-1.18-7.81l3.37-7.56
		l-4.72-2.05l1.59-3.81l10.11,1.55l7.87-18l3.07,0.67l2.82-7.39l12.3,3.04l-1.55-8.61l11.38,4.81l6.16-21.03l6.38,1.15l0.18-3.54
		l-3.42-3.5l0.38-5.5l-3.06-4.66l1.05-11.43l-6.12-0.61l0.57-8.03l5.19-0.79v-5.06l0,0l2.87-8.91l2.5-0.29l0.3-2.12l4.2,1.61
		L156.93,4.29z"/>
	<path id="LT-UT" fill="#1E3250" stroke="#1E3250" stroke-width="0.5" d="M694.81,137.12l5.07,2.35l5.29,6.63l0.36,6.19l5.08,10.77
		l5.72,5.45l4.97,0.5l4.49,8.78l10.78-0.12l3.81,4.33l5.45,2.34l12.979-0.66l0.021,5.82l1.89,0.26l0.91,6.37l-2.33,3.95l1.311,8.59
		l-4.301,2l-3.979,6.55l-5.12,2.36l-2.29,4.38l2.1,5.79l3.181,2.87l-3.11,4.56l1.91,2.71l-2.21-0.26l2.35,6.91l-1.409,1.19l0.75,4.3
		l-3.061,0.07l-3.89,4.32l-3.48,0.07l-0.729,3.19l-3.641,1.83l13.54,4.31l2.49,2.44l2.78-1.59l3.08,1.64l2.899-3.66l0.54,3.05
		l4.5-4.15l7.12,4.05l12.561,1.53l2.97,4.19l-0.62,4.45l-11.79,6.2l0,0l2.21-2.43L763.72,282l0.08,3.05l-1.87,0.32l0.2-2.66
		l-3.67-0.21l0.35,1.47l-2.199,0.21l1.739,1.92l-3.67,4.42l-6.319,1.8l-2.78-1.38l-2.07,2.52l-7.99-1.54l-1.369,2.52l-9.66-3.95
		l-13.271-1.19l-2.08,2.29l-3.96-5.91l-1.31,2.08l-3.04-1.12l-2.62,4.3l-3.45-0.73l4.16-6.19l-4.41-2.27l-0.31-5.43l-4.36-1.97
		l-1.93,1.9l-5.26-2.37l-0.261-3.02l0.45,3.98l-1.87-3.32l-3.46,4.77l3.021-0.3l-1.761,2.46l-4.43-0.14l-0.72,1.61l-3.62-1.96
		l-2.11,1.35l-1.819-3.72l-3.811,3.42l-5.38-6.44l-4.75,1.05l1.91,1.95l-3.67,3.21l-6.19-9.93l-6.21,4.73l1.3,0.44l-2.409,1.81
		l-0.841,5.99l-3.779-2.32l3.42,7.49l-5.03-0.24l-1.49,5.87l1.83,0.07l-3.09,4.56l1.021,2.89l7.029,3.06l0.08,5.63l11.98,8.02
		l-2.601,0.16l-0.659,2.24l-1.551-1.63l-2.199,2.54l2.31,1.12l-0.5,2.3l-1.01-1.23l-3.141,1.58l0.891,2.54l2.46-1.72l-2.76,6.21
		l3.56,2.94l-6.53,0.899l-1.229-2.77l-4.96,1.21l-0.08-3.25l-5.11-2.521l-3.25,1.75l-3.54-1.63l-0.359,3.7l-2.521-1.91l-2.84,0.82
		l-1.19,4.02l-17.479,0.49l-1.79,1.56l-5.851-0.77l-2.96-2.88l-12.859,0.83l2.229-3.95l-1.989-6.87l-7.32-2.05l-1.29,1.37l-1.2-4.84
		l3.311-5.88l-0.971-3.431l8.4-2.89l0.76-5.89l4.41-0.18l-5.34-1.29l-2.11-4.7l-4.83,1.76l-2.66-2.92l3.4-4.66l1.17-6.29l-4.5,0.96
		l-1.58,2.55l-5.74-3.42l0.521-3.2l-3.351-2.95l-0.77-4.15l-12.26-0.3l-1.851-10.9l-8.72,3.82l-1.66-0.54l1.061-3.26l-7.431,0.87
		l-7.55-4.18l0.49-7.37l-1.55-1.03l1.729-3.83l2.76,1.9l1.511-5.59l-5.73-2.54l-2.189-7.69l-3.101,1.22l-2.899-6.26l-9.301,1.04
		l0.11-4.52l0,0l2.35-7l-1.09-2.17l2.101-1.55l-1.57-4.08l1.47-4.16l6.58-2.21l-1.75-7.84l-2.63-1.92l-5.26,1.51l-0.061-4.39
		l6.96-1.59l-0.939,1.68l3.6,1.89l3.761-3.64l-5.591-3.24l2.29-9.15l2.94,2.81l5.14,0.17l5.53-3.05l2.37,3.95l2.74,0.47l0.439-3.64
		l8.021,0.59l6.319-4.38l11.5,5.28l4.771-0.5l-1.98,2.91l1.891,4.85l19.239-8.07l3.15-0.38l4.37,4.33l1.13-2.93l-1.82-0.73
		l-0.34-4.19l4.87-0.52l4.34-6.07l3.13-0.76l10.45,7.99l1.36-2.7l3.58,1.25l-0.84,2.37l3.55,1.77l1.81-0.07l1.11-2.81l5.25,1.82
		l2.189-5.21l1.99,2.39l4.48,0.31l4.05-2.27l1.75,4.71l5.43-4.29l0.26-8.34l5.061-0.95l7.26,2.61l2.18-15.28l2.94,1.47l5.34-1.04
		l-0.55-8.98l9.41-1.88l1.66-5.96l-2.69-3.74l0.28-2.93l4.18-4.5l6.73-1.21l0,0l6.609,13.47l3.75,4.66L694.81,137.12z"/>
	<path id="LT-VL" fill="#1E3250" stroke="#1E3250" stroke-width="0.5" d="M605.58,509.46l-1.63-1.71l3.66-0.53L605.58,509.46z
		 M494.21,221.37l-0.11,4.52l9.301-1.04l2.899,6.26l3.101-1.22l2.189,7.69l5.73,2.54l-1.511,5.59l-2.77-1.9l-1.72,3.83l1.55,1.03
		l-0.49,7.37l7.55,4.18l7.431-0.87l-1.061,3.26l1.66,0.54l8.72-3.82l1.84,10.9l12.271,0.3l0.76,4.15l3.351,2.95l-0.521,3.21
		l5.75,3.42l1.58-2.55l4.5-0.96l-1.18,6.29l-3.391,4.65l2.66,2.92l4.82-1.75l2.109,4.7l5.341,1.28l-4.41,0.19l-0.76,5.88l-8.41,2.89
		l0.979,3.431l-3.31,5.88l1.2,4.85l1.279-1.38l7.32,2.05l1.99,6.87l-2.23,3.96l12.87-0.84l2.95,2.88l5.85,0.771l1.79-1.561
		l17.48-0.49l1.189-4.029l2.851-0.811l2.51,1.91l0.36-3.7l3.54,1.63l3.25-1.75l5.119,2.511l0.08,3.26l4.96-1.21l1.23,2.77l6.53-0.91
		l-3.57-2.93l2.771-6.22l-2.461,1.72l-0.899-2.54l3.14-1.58l1.021,1.24l0.5-2.31l-2.311-1.12l2.21-2.54l1.551,1.63l0.659-2.24
		l2.61-0.16l-11.99-8.02l-0.08-5.62l-7.029-3.06l-1.021-2.9l3.09-4.56l-1.83-0.07l1.5-5.87l5.021,0.23l-3.42-7.49l3.779,2.32
		l0.841-5.99l2.409-1.8l-1.3-0.44l6.21-4.73l6.19,9.93l3.67-3.21l-1.91-1.94l4.74-1.05l5.39,6.44l3.811-3.42l1.819,3.72l2.11-1.36
		l3.62,1.97l0.72-1.61l4.42,0.14l1.76-2.46l-3.02,0.3l3.46-4.78l1.87,3.33l-0.45-3.98l0.271,3.02l5.25,2.37l1.939-1.9l4.36,1.97
		l0.31,5.43l4.41,2.27l-4.16,6.2l3.45,0.72l2.62-4.3l3.05,1.12l1.31-2.08l3.961,5.92l2.08-2.29l13.27,1.19l9.66,3.95l1.359-2.52
		l7.99,1.54l2.07-2.52l2.78,1.38l6.319-1.8l3.67-4.42l-1.739-1.92l2.189-0.21l-0.35-1.47l3.67,0.21l-0.2,2.67l1.87-0.33l-0.08-3.04
		l12.24-0.47l-2.22,2.43l0,0l-2.07,3.02l0.32,5.45l-3.341,3.58l-1.399-1.19l-2.351,1.64l1.471,4.88l2.18,1.17l-1.2,1.66l-2.14-0.82
		l-0.75,2.78l-2.65-0.98l-4.32,3.24l-4.979-1.49l-5.67,2.38l-3.5-3.85l-4.78,2.78l-2.39,4.359l-6.391-2.64l-2.06,1.7l-0.84-2.12
		l-4.721-1.73l-4.359,1.141l0.359,2.17l-3.39,0.47l1.24,1.05l-1.28,1.03l-9.54,3.89l5.25,7.391l-3.63,2.31l-4.78,16.03l-3.029,2.07
		l-8.4,0.51l-1.521,3.81l-4.12,0.53l0.37,3.37l-3.59,1.28l1.24,1.489l-8.74-1.529l-2.1-2.181l-7.12,4.92l-9.35,1.86l-1.07,7.4
		l-9.51,9.59l-0.771,7.22l-2.99-0.02l-1.01,1.8l-1.18,3.72l1.52,17.84l-1.92,9.62l3.86,24.04l-1.36,2.92l-9.27,6.601l-5.87,14.989
		l-4.4,2.431l2.99,0.64l0.31,7.84l-3.31,5.7l-1.74-1.17l-0.16,6.11l-3.71,2.54l-1.06,4.899l-2.55,0.3l-0.21,2.08l1.989,0.34
		l0.351,3.91l4.85-1.779l1.43,2.01l2.65,0.8l1.76-1.69l1.391,1.44l5.55-2.47l3.41,5.439l-1.021,4.5l6.45,1.71l2.04,6.5l3.85,0.84
		l-6.47,4.49l3.75,3.72l0.59,7.881l2.23,0.43l0.05,1.75l-3.96-0.771l-1.36-2.189l-0.09,2.46l-2.34,1.16l-4.3-2.96l-0.23,2.64
		l-2.33,0.02l-0.2,3.73l-5.829,2.69l-1.881-3.46l-9.829-0.891l-2.57-1.91l-3.19-4.35l0.59-2.37l6.25-2.6l0.051-3.92l-2.49-3.63
		l6.16,0.55l-4.46-8.88l0.909-1.62l-5.92-2.351l-0.35-5.229l-2.19-0.94l-4.279,4.641l-6.03-1.74l-1.76,3.609l-7.471,4.181
		l-6.069-0.82l-0.63,1.37l-4.69-2.65l-2.21,4.86l-2.46-2.6l-1.54,0.939l-2.66,5.04l0.17,3.83l-17.25,19.54l-10.7-1.89l-1.899-5.011
		l-2.851-1.59l-11.81,5.67l-5.06-0.319l0,0l-2.78-9.91l-8.391-3.69l0.29-4.83l7.2-1.819l-0.31-3.58l1.79,0.619l0.35-1.689l3.59,0.18
		l1.92-4.22l3.13-0.32l-1.96-2.21l1.46-2.08l6.631-0.46l-2.82-14.22l2.359-0.69l-0.329-2.59l9.46-1.83l-0.351-2.77l3.021-0.73
		l0.2-9.21l-13.16,3.48l-1.58,3.55l-0.57-1.899l-7.42,0.979l-0.56,3.3l-13.67-0.069l-1-1.33l-2.461,3.819l-1.539-4.649l1.239-4.67
		l-6.6-4.54l-2.89,1.56l-3.011-1.05l-1.22,2.57l-3.59,0.21l-1.11,5.449l-4.22-1.26l0.04-2.149L467.73,477l-2.15-2.89l-2.19,0.71
		l2.61-7.061l-5.65-3.99l3.58-1.699l-1.87-4.061l0.311-6.89l0,0l1.42-14.811l1.71,1.311l4.05-4.05l2.04,0.439l-1.54-5.2
		l-2.569,0.021l2.93-1.87l-2.221-10.19l2.791-4.29l3.92-0.81l5.369,2.56l1.631-6.279l4.439,3.83l4.33-0.46l0.86-10.37l1.859-0.351
		l-1.859-4.14l1.67-6.96l5.64-3.7l5.561-0.72l0.21-1.57l1.51,1.37l1.04-1.76l2.18,0.56l-1.74-12.67l3.94-2.29l2.66,1.021l1.43-4.271
		l-8.229-6.7l0,0h-2.58l0,0l-5.351,1l-1.54-4.39l-5.319-2.32l-2.49-4.109l-5.3,0.069l-3.66-3.949l1.74-3.811l3.569-1.3l-0.67-3.63
		l5.49-0.931l-0.2-2.84l2.5-1.42l-1.82-0.47l-2.14-5.26l-3.05-0.16l-1.26-8.55l-2.86,0.609l-2.33-2.77l-2.54-5.15l2.62-2.819
		l-5.67-2.081l-2.53-9.01l3.17-4.16l-12.229-3.16l2.08-10.9l-1.08-2.53l-4.34-0.4l1.949-13.69l1.96-1.2l0.311-3.24l2.89-1.17
		l0.271-5.42l0,0l5.85,0.47l-0.439-2.37l4.38-2.49l-1.04-3.17l2.62-1.27l0.399-4.77l7.68,2.45l6.131-2.7l1.319-3.36l-3.47-8.75
		L494.21,221.37z"/>
</g>
</svg>
