<?xml version="1.0" encoding="utf-8"?>
<!-- Generator: Adobe Illustrator 15.0.0, SVG Export Plug-In . SVG Version: 6.00 Build 0)  -->
<!DOCTYPE svg PUBLIC "-//W3C//DTD SVG 1.1//EN" "http://www.w3.org/Graphics/SVG/1.1/DTD/svg11.dtd">
<svg version="1.1" id="Layer_1" xmlns:amcharts="http://amcharts.com/ammap"
	 xmlns="http://www.w3.org/2000/svg" xmlns:xlink="http://www.w3.org/1999/xlink" x="0px" y="0px" width="806.5px" height="646.5px"
	 viewBox="0 0 806.5 646.5" enable-background="new 0 0 806.5 646.5" xml:space="preserve">
<defs>
	
	
		<amcharts:ammap  projection="mercator" bottomLatitude="40.855134" leftLongitude="20.455613" topLatitude="42.338708" rightLongitude="23.006302">
		</amcharts:ammap>
</defs>
<g>
	<path id="MK-01" fill="#1E3250" stroke="#1E3250" stroke-width="0.5" d="M333.53,167.52l-5.51,3.73l0,0l-7.14-7.34l-10.51-3.52
		l-6.76-7.04l-3.75-0.5l-2.69-3.21l0,0l-0.69-0.82l1.86-3.64l0,0h1.82l0,0l6.46,2.63l10.88,7.55l8.27,4.03l5.25,4.02L333.53,167.52z
		"/>
	<path id="MK-02" fill="#1E3250" stroke="#1E3250" stroke-width="0.5" d="M329.48,109.56l10.26,12.82l6.65,0.46l2.16-8.87l0,0h2.65
		l6.06,3.28l0.34,4.62l0,0l-13.83,16.18l-5.7,1.06l-6.7,4.75l-2.17-0.55l0,0l0.01-7.37l3.74-6.2l-1.09-9.64l-2.85-4.23
		L329.48,109.56z"/>
	<path id="MK-03" fill="#1E3250" stroke="#1E3250" stroke-width="0.5" d="M673.63,216.54l0.79,2.11l14.43,1.16l10.03,4.31l0,0
		l4.69,14.38l2.16,1.16l1.88,8.86l2.449,0.58l2.891-4.04l17.46,2.31l3.46,1.54l1.59,5.78l8.95,0.19l10.39,7.7l8.22,2.7l3.9,2.9l0,0
		l-7.96,12.29l0.62,3.73l-7.21,0.47l-2.36,2.59l-1.01,3.81l1.82,5.39l-1.13,12.05l4.59,4.49l0.14,3.8l2,3.311l-1.26,2.399
		l0.22,4.521l-3.11,0.689l-0.1,4.55l0,0l-22.79,1.74l0,0h-1.439l-5.49-5.76l-19.26-2.11l-7.07-6.149l-3.03-6.721l-3.189-0.43l0,0
		l-9.08-2.07l-6.641,0.19l-0.14-3.46l3.75-1.54l0.72-1.92l-0.859-8.65l-11.48-7.45l-3.06,5.05l-2.351,0.72l-0.85-7.02l0,0
		l-1.49-8.85l5.95-9.38l0.18-2.17l-5.95-4.81l-1.22-12.47l0,0l2.46-2.22l7.51-0.58l2.881-3.46l3.18-9.64l0.43-6.75L672.4,220
		L673.63,216.54z"/>
	<path id="MK-04" fill="#1E3250" stroke="#1E3250" stroke-width="0.5" d="M260.57,457.66l2.69,3.83v3.359l-2.68,5.141l1.04,7.5
		l4.33,6.71l8.81,5.14l1.04,18.15l6.27,3.55l8.5-3.94l5.24,1.25l0,0l-2.63,12.87l0.55,4.11l4.58,5.56l0.91,12.311l6.59,1.7
		l12.44,16.649l2.1,15.931l0,0l-13.49-0.131l-9.15-3.989l-27.53,18.109l-15.35,5.12l-10.41,0.03l-3.6-2.63l0,0l3.7-14.641
		l-0.74-1.949l-3.14-1.94l0.37-5.11l-1.29-5.109l-1.66-1.21l-10.51-1.221l-1.29-5.84l-3.32-4.62l-4.06-2.189l-12.73,0.24l-2.21-1.94
		l-0.74-5.6l-6.09-8.04l-0.73-7.061l-6.64-2.01l-2.08-2.44l1.15-8.52l5.54-4.57l3-5.18v-8.23l-2.77-3.05l0.12-2.189l0,0l10.25-4.83
		l7.15-0.91l7.15-3.36l3.46-4.569l4.61-2.75l3.92-0.301l3.92-6.71l6.22-2.14l5.53-4.27l3-5.19l3.36-2.32l0,0l1.48-0.43l3.92,3.66
		L260.57,457.66z"/>
	<path id="MK-05" fill="#1E3250" stroke="#1E3250" stroke-width="0.5" d="M640.82,445.1l0.569,2.2l6.79,7.08l12.221-0.6l8.88,4.55
		l1.06,9.54l0,0l-5.49,3.31l-3.67,9.181l-5.859,8.529l-6.5,5.16l-1.62-0.569l0,0l1.45-1.04l-7.261-5.471l-7.79-4.069l-7.6-1.32
		l2.44-14.26l-6.37-10.761l0,0l5.58-3.949l0.88-9.67l1.33-2.341l5.3-0.149l1.33,2.64L640.82,445.1z"/>
	<path id="MK-06" fill="#1E3250" stroke="#1E3250" stroke-width="0.5" d="M152.46,157.5l0.28,7.74l1.21,1.91l7.51,0.27l-0.2,2.99
		l-4.26,8.97l-5.48,2.17l-1.42,2.17l1.62,5.98h-2.16l0,0l-7.38-2.72l-16.44-9.24l-9.95-3.26l-18.88-3.26l-3.48,1.03l0,0l-4.64-3.58
		l1.95-7.49l0,0l4.65-2.19l3.45-3.53l9.95-4.36l10.15-7.89l4.67-0.27l17.45,4.08L152.46,157.5z"/>
	<path id="MK-07" fill="#1E3250" stroke="#1E3250" stroke-width="0.5" d="M689.9,312.84l3.189,0.43l3.03,6.721l7.07,6.149
		l19.26,2.11l5.49,5.76h1.439l0,0l-0.43,9.98l-7.8,9.79l-8.94,7.87v14.38l-4.62,6.319l0,0l-8.37,2.301l-2.6-0.381l-4.33-3.069
		l-3.03-8.05l-7.93,2.109l-4.19-2.3l2.45-9.4l-2.31-7.859l-3.681-3.851l0,0l0.08-1.33l2.45-1.539l5.34-1.53l4.761-4.61l3.18-6.14
		l1.729-11.521L689.9,312.84z"/>
	<path id="MK-08" fill="#1E3250" stroke="#1E3250" stroke-width="0.5" d="M171.34,157.42l6.46,8.91l4.27,1.09l0.61,9.51l2.84,1.63
		h4.06l1.42,3.53l-0.81,3.26l-2.64,0.55l-0.81,10.59l11.36,0.81l5.89,5.16l9.74-0.27l1.22-4.07l4.47-0.82l1.62,2.44v3.86l0,0
		l-5.28-0.33l-5.88,4.35l-7.11,7.87l-5.07,8.13l-4.26,4.07l-4.2,0.97l0,0l-7.27-10.46l-7.92-7.33l-0.41-6.24l-12.99-0.54l-8.8-4.73
		l0,0l-1.75-0.7l-0.54-8.96l0,0h2.16l-1.62-5.98l1.42-2.17l5.48-2.17l4.26-8.97l0.2-2.99l-7.51-0.27l-1.21-1.91l-0.28-7.74l0,0
		l1.19,0.13l2.23-4.9l1.83-1.08l8.12,4.89L171.34,157.42z"/>
	<path id="MK-09" fill="#1E3250" stroke="#1E3250" stroke-width="0.5" d="M320.38,96.76l-3.63,2.19l-9.01,13.61l-0.75,22.17
		l-1.88,4.02l-4.5,0.61l0,0l-5.38-3.51l0,0l-0.67-1.78l0,0l-0.86-8.76l0,0l1.16,1.23l3.12-1.88l-0.75-14.11l2.25-14.62l7.14-14.63
		l4.5-1.51l1.76,0.59l0,0l-1.06,2.86L320.38,96.76z"/>
	<path id="MK-10" fill="#1E3250" stroke="#1E3250" stroke-width="0.5" d="M604.21,362.69l4.53,7.01l6.06,6.14l3.75,1.72l8.8,0.19
		l3.04,3.64l-4.62,12.271l5.48,9.96l0.43,5.93l14.58-1.149l5.48,5.17v2.68l8.52,0.77l4.76-3.64l4.62,1.72l2.88-3.25l3.32-7.85
		l4.19-1.92l20.68,10.72l0,0l-1.29,6.181l0.49,10.34l0,0l-9.88-3.95l-13.37-0.15l-6.74-1.319l-3.76,3.96l-0.771,4.689l-12.76,0.73
		l-6.189,9.22l-5.62,2.6l0,0l0,0l0,0l-4.33-2.01l-1.33-2.64l-5.3,0.149l-1.33,2.341l-0.88,9.67l-5.58,3.949l0,0l-4.641-8.489
		l-2.43-0.88v-7.32l-3.43-9.38l-0.551-14.351l-6.52-1.909l-14.15-17.45l-7.069-2.34l-2.98-3.23l-9.25-1.09l0,0l-3.68-9.771
		l1.689-9.04l0,0l1.73,0.69l1.58-4.03l7.36-2.87l13.42-3.26L604.21,362.69z"/>
	<path id="MK-11" fill="#1E3250" stroke="#1E3250" stroke-width="0.5" d="M659.91,286.69l0.85,7.02l2.351-0.72l3.06-5.05l11.48,7.45
		l0.859,8.65l-0.72,1.92l-3.75,1.54l0.14,3.46l6.641-0.19l9.08,2.07l0,0l1.239,12.34L689.41,336.7l-3.18,6.14l-4.761,4.61
		l-5.34,1.53l-2.45,1.539l-0.08,1.33l0,0l-5.619,4.04l-7.801,2.5l-8.8-0.199l-6.2-8.051l-11.55-5.569l-3.03,0.38l-3.609,6.149
		l-3.59,3.271l0,0l-1.891-7.311l0.26-9.119l0,0l0.971-2.971l-2.17-5.95l7.939-3.649l2.891-4.61l6.489,2.88l8.95,8.841l1.73,0.189
		l2.449-2.689l1.73-2.69l-0.14-9.6l-1.88-7.881l-4.62-5.189l-1.87-5.19l5.77-10.77l9.09-0.96L659.91,286.69z"/>
	<path id="MK-12" fill="#1E3250" stroke="#1E3250" stroke-width="0.5" d="M19.63,440.66l4.31-1.561l9.44-0.29l11.2,2.04l4.61-4.069
		l2.86-0.59h2.41l2.64,4.079v2.91l-2.2,2.33l-3.51,2.03h-7.25l-5.49,3.78l-7.02,0.58l-10.95-2.32l0,0L19.63,440.66z"/>
	<path id="MK-13" fill="#1E3250" stroke="#1E3250" stroke-width="0.5" d="M409.14,174.14l-0.029,5.19l3.27,12.67l10.61,13.28l0,0
		l-0.96,3.72l-9.04,10.12l6.649,9.59v2.84l-4.659,12.24l0.93,1.42l5.85,0.88l5.05,9.06l0,0l-1.199,11.16l-7.7,8.5l-7.97,16.47
		l-7.971,0.71l-1.91,7.72l0,0l-9.879-2.09l-2.66-3.01l-1.87-11.88l-5.18,3.9l-3.2,0.53l-8.24-25.55l-16.77-5.15l-5.72,1.96
		l-7.95-14.77l0,0l5.56-0.86l6.65-3.02l6.12-10.13v-7.28l-2.66-2.67v-7.82l1.44-0.51l0,0l3.13,2.41l3.32,0.53l2.26,0.18l2.66-1.96
		l0.53,6.04h1.73l4.25-6.75h2.12l3.32,4.8l5.19,0.71l4.91-17.94l-0.13-15.11l9.7-2.31L409.14,174.14z"/>
	<path id="MK-14" fill="#1E3250" stroke="#1E3250" stroke-width="0.5" d="M652.81,145.31l0.83,22.37l10.67,3.87l11.69,6.18
		l9.38,1.74v2.12l-5.05,8.5l-2.16,12.35l-4.04,6.56l-0.5,7.54l0,0L672.4,220l1.439,6.36l-0.43,6.75l-3.18,9.64l-2.881,3.46
		l-7.51,0.58l-2.46,2.22l0,0l-8.81-1.93l-7.36-6.74l-6.79-3.47l-2.74-5.01l-2.16,0.19l-3.18,5.59l-10.96,1.15l-8.09-6.55l-2.96-0.69
		l0,0l0.15-7.76l0,0l0.43-20.86l-1.29-7.53l-2.55-4.15l0,0l2.26-3.38l-0.29-13.33l3.75-16.62l4.91-0.19l6.2,5.6l3.609,0.2l4.54-3.05
		l0,0l6.431,2.08l3.46-2.32l4.04-8.5l1.3-6.19l1.88-1.74l6.92,0.19L652.81,145.31z"/>
	<path id="MK-15" fill="#1E3250" stroke="#1E3250" stroke-width="0.5" d="M196.06,308.67l3.67,11.061l10.35,7.3l0.2,2.43
		l-16.24,16.2l-5.07,2.16l-0.61,6.5l0,0l-5.48-1.641l-4.67,0.54l-0.81,1.62l1.83,12.68l2.03,3.24l5.59-1.08l0,0l-0.11,3.771
		l-4.27,2.16l-4.26,1.08l-11.57-0.271l-2.64-7.28l-7.92-5.399l-1.21-2.431v-6.47l2.92-1.54l0,0l5.81-11.96l3.24-2.16l0,0l5.28-0.54
		l3.86-2.699l2.64-3.78l2.84-9.45l10.15-7.03L196.06,308.67z"/>
	<path id="MK-16" fill="#1E3250" stroke="#1E3250" stroke-width="0.5" d="M93.43,172.25l3.48-1.03l18.88,3.26l9.95,3.26l16.44,9.24
		l7.38,2.72l0,0l0.54,8.96l1.75,0.7l0,0l-4.8,4.46l1.42,6.51l-3.04,3.53l-5.69,1.9l-9.74-2.44l-7.71,1.08l-3.66,3.26l-5.48-0.82
		l-5.27-2.98l-5.69-10.31l-13.45-1.46l0,0l11.83-8.7l-13.34-12.42L93.43,172.25z"/>
	<path id="MK-17" fill="#1E3250" stroke="#1E3250" stroke-width="0.5" d="M329.2,143.31l-2.85,6.22l12.6,8.84l2.86,5.41l0.4,7.08
		l0,0l-3.28,3.86l0,0l-3.62-6.729l-1.78-0.47l0,0l-2.51-4.11l-5.25-4.02l-8.27-4.03l-10.88-7.55l-6.46-2.63l0,0l0.45-5.82l0,0
		l4.5-0.61l1.88-4.02l0.75-22.17l9.01-13.61l3.63-2.19l0,0l9.1,12.8l0,0l-0.47,6.31l2.85,4.23l1.09,9.64l-3.74,6.2L329.2,143.31z"/>
	<path id="MK-18" fill="#1E3250" stroke="#1E3250" stroke-width="0.5" d="M571.05,390.12l9.25,1.09l2.98,3.23l7.069,2.34
		l14.15,17.45l6.52,1.909l0.551,14.351l3.43,9.38v7.32l2.43,0.88l4.641,8.489l0,0l6.37,10.761L626,481.58l7.6,1.32l7.79,4.069
		l7.261,5.471l-1.45,1.04l0,0l-9.47-4.881l-3.78-0.01l-22.28,5.36l-11.31-0.49l-4.181-1.3l-4.39-5.91l-12.19-0.11l-8.029,1.65
		l-2.641-0.76l-4.06-5.19l-3.51,1.05l-12.11-8.06l-10.87-0.21l0,0l-6.3-1.66l2-6.56l14.229-2.21l-3.46-16.98l7.311-2.04l8.46-5.939
		l-0.64-3.4l-3.211-0.85l-0.64-12.07l-1.64-3.73l0,0l5.62-7.83l14.229-0.51l0.26-8.17l-3.72-7.32L571.05,390.12z"/>
	<path id="MK-19" fill="#1E3250" stroke="#1E3250" stroke-width="0.5" d="M151.85,199.36l8.8,4.73l12.99,0.54l0.41,6.24l7.92,7.33
		l7.27,10.46l0,0l-7.98,0.93l-1.63,3.8v10.03l-0.81,1.62l-4.06,1.36l-0.41,2.17l1.42,4.06l2.85,2.17l0.4,6.77l3.25,6.77l0.61,7.04
		l-1.58,5.85l0,0l-15.88,4.43l-4.46,3.25l-0.27,1.66l0,0l-7.85-8.97l-4.47-3.25l-10.96-4.33l-3.32,0.34l0,0l-0.64-3.59l-4.46-5.14
		l-6.09-10.56l4.26-4.34v-2.16l-11.57-0.28l-3.65,2.17l-2.85-3.25l-0.61-7.86l-5.68-8.95l-22.53-2.17l-9.14,10.04l-12.58-1.63
		l-4.67-4.07l-6.9-3.25l-3.12-3.57l0,0l3.19-5.1l3.68-1.27l3.33-7.56l2.69,0.03l7.09-7.54l9.95,2.5l6.94-0.41l8.01-4.31l0,0
		l13.45,1.46l5.69,10.31l5.27,2.98l5.48,0.82l3.66-3.26l7.71-1.08l9.74,2.44l5.69-1.9l3.04-3.53l-1.42-6.51L151.85,199.36z"/>
	<path id="MK-20" fill="#1E3250" stroke="#1E3250" stroke-width="0.5" d="M426.81,255.15l1.2-3.38l5.311,0.53l0.8,1.42l4.38,25.7
		l5.71,2.12l5.45,0.36l6.24-4.96l1.18-2.35l0,0l9.28,0.59l5.79,3.66l0,0l-0.69,4.97l-8.71,12.45l-0.37,4.47l2.98,2.99l9.34-3.32
		l3.49,1.5l0.369,3.98l-4.85,9.61l2.86,6.63l-3.11,7.46l-3.86,0.16l-1.64-9.16l-1.4-1.66l-2.739,0.771l0,0l-4.891-1.391l-2.64,1.66
		l-0.78,5.79h-4.359l-5.45-2.48l-6.53,8.91h-4.67l-6.07-3.729l-4.67-0.62l-0.93,4.55l1.09,6.84l-2.34,2.681l-4.98,0.42l-3.58,3.479
		l0,0l-8.26-4.99l-0.93-3.529l0.66-7.96l4.12-4.59l1.33-6.9l-1.2-2.48l-7.311-5.13l-1.859-2.649l0.489-7.86l0,0l1.91-7.72
		l7.971-0.71l7.97-16.47l7.7-8.5L426.81,255.15z"/>
	<path id="MK-21" fill="#1E3250" stroke="#1E3250" stroke-width="0.5" d="M29.79,308.29l5.84,6.56l7.61,5.49l13.64,2.11l6.35,5.49
		l7.61,10.13l10.78,4.64l1.32,6.75l0,0l-2.87-1.37l-2.44,0.54l-2.03,2.7l-3.65,15.38l-2.4,4.5l0,0l-1.05-1.26l-0.91,1.03l0,0
		l-1.83-3.811L61,366.32V354.52l-2.22-7.17H55.3l-3.18-2.949l-1.9-7.601l-3.49-5.06l-12.69-0.851l-3.48,5.91l-14.98,8.84l0,0
		l-1.59-3.47l-6.23-0.479l-2.51-2.73L5,336.05l-3.4-1.689L0,330.9l2.34-3.12l3.72-10.07l4.26,0.31l13.28-4.96L29.79,308.29z"/>
	<path id="MK-22" fill="#1E3250" stroke="#1E3250" stroke-width="0.5" d="M70.32,372.13l2.64-2.45h31.06l15.83,2.42l11.57,0.271
		l5.28,12.41l0.4,9.7l2.24,4.579l5.68,1.881l6.73,10.85l0,0l0.36,8.08l5.17,4.89l5.9,3.181l2.95,8.069l5.53,4.65v4.64l3.16,6.44l0,0
		l-4.42,1.14l-14.42-2.149l-7.91-5.381l-10.97-3.76h-8.32l-5.07,2.15l-10.76,0.27l-2.03,1.88l-0.61,3.23l-3.86,2.42l-3.65,7.26
		l0.41,8.061l-5.28,2.149l-1.83,4.03l-9.43,0.42l0,0l0.09-7.94l-2.63-2.96l-0.61-5.64l5.68-8.88l2.23-7.26l0.61-12.37l-7.91-12.11
		L82.91,396.9L70.32,372.13z"/>
	<path id="MK-23" fill="#1E3250" stroke="#1E3250" stroke-width="0.5" d="M665.44,115.13l2.43,2.16l3.51,0.76l3.78,0.07l6.41-2.27
		l-0.34,2.41l6.46,7.63l3.069-0.55l8.32,4.05l3.46-0.53l1.82-3.48l7.489,10.21l4.65,0.56l3.08-1.78l1.439,1.29l2.101-0.36l0.3,4.16
		l-1.95,3.09l4.62,2.75l-0.24,7.48l1.17,1.02l-1.13,8.33l1.32,4.87l-1.18,2.65l2.77,5.83l2.38,0.92l0.83,1.78l1.57,4.64l-0.7,2.06
		l1.4,2.72l0.04,5.29l0,0l-13,10.9l-5.92,11.77l-6.061,1.74l-5.2,6.75l-5.26,0.07l0,0l-10.03-4.31l-14.43-1.16l-0.79-2.11l0,0
		l0.5-7.54l4.04-6.56l2.16-12.35l5.05-8.5v-2.12l-9.38-1.74l-11.69-6.18l-10.67-3.87l-0.83-22.37l0,0l0.101-8.76l5.34-2.32
		l0.83-24.16l0,0l1.65,2.39L665.44,115.13z"/>
	<path id="MK-24" fill="#1E3250" stroke="#1E3250" stroke-width="0.5" d="M559.97,345.22l0.86,2.04l8.8,3.641l1.44,3.069l-3.75,7.87
		l1.739,9.47l0,0l-1.689,9.04l3.68,9.771l0,0l-0.17,5.229l3.72,7.32l-0.26,8.17l-14.229,0.51l-5.62,7.83l0,0l-18.08,11.011h-10.5
		l-9.29-6.171l-2.93-6.619l-3.61-1.141l-15.49-14.58l0,0l15.03-0.699l2.54-10.23l-4.74-7.32l-0.439-3.069l5.949-4.24l5.07-15.67
		l7.71-8.641l2.09-1.46l4.521,0.58l6.279,4.84l9.04,3.37l3.851-6.739L559.97,345.22z"/>
	<path id="MK-25" fill="#1E3250" stroke="#1E3250" stroke-width="0.5" d="M207.47,387.34l9.37,5.41v5.74h12.68l2.02,3.06l0.29,17.59
		l5.48-0.38l2.88-1.529l2.88,1.14l3.75,4.59l2.3,9.93l5.19,6.12l-1.04,15.21l0,0l-3.36,2.32l-3,5.19l-5.53,4.27l-6.22,2.14
		l-3.92,6.71l-3.92,0.301l-4.61,2.75l-3.46,4.569l-7.15,3.36l-7.15,0.91l-10.25,4.83l0,0l-4.04-6.23l-4.43-22.939l-5.72-0.25
		l-3.32-5.16l0,0l-2.37-5.25l0,0l-3.16-6.44v-4.64l-5.53-4.65l-2.95-8.069l-5.9-3.181l-5.17-4.89l-0.36-8.08l0,0l1.84-3.66
		l6.82-5.14l7.19-3.181l23.6-0.17l9.51-7.649l0.86-3.061l4.61-2.3L207.47,387.34z"/>
	<path id="MK-26" fill="#1E3250" stroke="#1E3250" stroke-width="0.5" d="M640.82,445.1l5.62-2.6l6.189-9.22l12.76-0.73l0.771-4.689
		l3.76-3.96l6.74,1.319l13.37,0.15l9.88,3.95l0,0l-1.66,16.14l0,0l-3.52-2.08l-6.521,0.44l-3.76,2.64l-3.42,6l1.1,9.07l4.86,9.22
		l5.81,5.55l0,0l-6.189,6.97l-1.79-0.279l-5.16-4.181l-4.76-7.38l-4.561-3.56l0,0l-1.06-9.54l-8.88-4.55l-12.221,0.6l-6.79-7.08
		L640.82,445.1z"/>
	<path id="MK-27" fill="#1E3250" stroke="#1E3250" stroke-width="0.5" d="M278.91,303.34l14.8,4.37l2.54,2.79l2.38,6.15l4.93,2.59
		l2.24,8.54l0.44,9.529l4.03,5.96l3.14,1.58l13.58-1.189l3.28,9.33l12.83,3.77l2.84,2.38l2.29,4.561l0,0l-5.87,4.17l-2.39,9.71
		l-6.72,2.38l-3.58,4.56l-3.13,1.58l-23.36,2.58l-7.01,8.32l-6.38,4.09l0,0l-3.99-3.1l-14.33,0.79l-2.68-11.681l-1.94-0.8l-7.37,4.9
		l0,0l-2.41-1.33l-8.65-10.7l-3.44-1.79l1.35-4.36l10.15,0.2l0.29-4.359l-12.66-16.7l0,0l0.13-3.93l5.97-2.381l2.53-4.369
		l3.51-0.591l8.66,3.96l0.59-13.3l8.36-11.12l1.94-4.77l0.75-12.32H278.91z"/>
	<path id="MK-28" fill="#1E3250" stroke="#1E3250" stroke-width="0.5" d="M133.96,332.3l0.81,4.72l3.86,4.591l13.4,6.21l5.76,5.479
		l0,0l-2.92,1.54v6.47l1.21,2.431l7.92,5.399l2.64,7.28l11.57,0.271l4.26-1.08l4.27-2.16l0.11-3.771l0,0l5.37-1.62l3.24,6.2
		l10.34,4.96l0,0l-0.78,1.681l2.45,6.439l0,0l-1.29-0.71l-4.61,2.3l-0.86,3.061l-9.51,7.649l-23.6,0.17l-7.19,3.181l-6.82,5.14
		l-1.84,3.66l0,0l-6.73-10.85l-5.68-1.881l-2.24-4.579l-0.4-9.7l-5.28-12.41l-11.57-0.271l-15.83-2.42H72.96l-2.64,2.45l0,0l0,0l0,0
		l-0.77-0.92l0,0l2.4-4.5l3.65-15.38l2.03-2.7l2.44-0.54l2.87,1.37l0,0l8.29,2.14l3.86-1.35l3.24-3.24l3.59-6.83l3.81-2.109
		l0.31-8.86l3.81-4.229V308.09l-2.43-13.55l0,0l3.4,0.59l5.68,14.33l5.08,0.81l4.26,10l4.67,5.141l2.23,6.479L133.96,332.3z"/>
	<path id="MK-29" fill="#1E3250" stroke="#1E3250" stroke-width="0.5" d="M253.43,98.02l4.01,0.98l-0.47-0.83l2.85,1.8l0,0
		l9.24,9.07l5.26,11.59v5.7l0,0l-0.19,18.02l0,0l-7.67-0.71l-4.66-5.93l-6.75-14.04l-0.93-5.31l-2.56-2.82l-7.45,3.13l-2.8-1.56
		l-2.09-5.32l-0.74-7.56l0,0l4.65-0.13L253.43,98.02z"/>
	<path id="MK-30" fill="#1E3250" stroke="#1E3250" stroke-width="0.5" d="M174.78,135.15l6.4,2.77l5.64-1.21l1.58,1.21v2.72
		l-1.8,1.82l0.67,1.51l3.62,1.21l8.35,0.6l3.16-3.32l4.87-0.15l0,0l6.83,2.78l9.02,6.83l-3.14,26.8l11.21,9.2l0,0l-0.18,2.28
		l2.21,2.95l5.15,3.61l-2.15,15.72l0,0l-15.18-8.88l0,0v-3.86l-1.62-2.44l-4.47,0.82l-1.22,4.07l-9.74,0.27l-5.89-5.16l-11.36-0.81
		l0.81-10.59l2.64-0.55l0.81-3.26l-1.42-3.53h-4.06l-2.84-1.63l-0.61-9.51l-4.27-1.09l-6.46-8.91l0,0l2.2-3.05l6.09-1.91l0.2-2.99
		l-4.26-1.9l-2.03-4.08l-3.85-2.18l3.24-5.72L174.78,135.15z"/>
	<path id="MK-31" fill="#1E3250" stroke="#1E3250" stroke-width="0.5" d="M160.69,290.57l0.27,18.621l-5.62,11.54l0,0l-6.36,0.35
		l-8.52,4.87l-5.08,1.08l-1.42,5.27l0,0l-1.22-0.41l-2.23-6.479l-4.67-5.141l-4.26-10l-5.08-0.81l-5.68-14.33l-3.4-0.59l0,0
		l-5.33,0.86l-2.44-1.89l-0.2-2.71l3.25-4.06l6.9-0.27l11.16-10.28h6.91l1.62-1.35l4.8-0.48l0,0l3.32-0.34l10.96,4.33l4.47,3.25
		L160.69,290.57z"/>
	<path id="MK-32" fill="#1E3250" stroke="#1E3250" stroke-width="0.5" d="M343.29,180.93l13.95,2.81l1.46,2.13l-0.53,20.62
		l-2.47,4.87l0,0l-1.44,0.51v7.82l2.66,2.67v7.28l-6.12,10.13l-6.65,3.02l-5.56,0.86l0,0l-24.91,0.03l-1.78-1.74l0,0l1.38-8.92
		l-5.98-10.48l-0.4-8.54l1.99-4.45l2.53-2.84l2.26,0.18l1.47,5.51l4.52,0.18l1.33-1.6l0.67-6.23l5.72-8l0.79-5.7l13.84-7.83
		L343.29,180.93z"/>
	<path id="MK-33" fill="#1E3250" stroke="#1E3250" stroke-width="0.5" d="M601.07,191.25l2.55,4.15l1.29,7.53l-0.43,20.86l0,0
		l-16.891-1.16l0,0l-3.26-6.21l-6.4-7.22l-0.84-8.72l0,0l5.101-0.17l5.399-5.2h1.63l3.261,3.02l4.899-6.05L601.07,191.25z"/>
	<path id="MK-34" fill="#1E3250" stroke="#1E3250" stroke-width="0.5" d="M357.6,121.87l0.94,2.51l10.73,8.27h4.15l0.32,12.13l0,0
		l-5.37,11.229l2.52,6.87l-1,2l-7.8,0.67l-5.15-3.56h-2.66l-1.99,2.89l-10.08,5.98l0,0l-0.4-7.08l-2.86-5.41l-12.6-8.84l2.85-6.22
		l0,0l2.17,0.55l6.7-4.75l5.7-1.06L357.6,121.87z"/>
	<path id="MK-35" fill="#1E3250" stroke="#1E3250" stroke-width="0.5" d="M234.33,97.25l-3.56,4.23l-15.45,1.64l-4.65,3.29l4.9,5.27
		l5.88-1.64l1.23,7.23l-6.13,5.27l3.04,13.35l-11.38,3.94l-0.94,2.48l0,0l-4.87,0.15l-3.16,3.32l-8.35-0.6l-3.62-1.21l-0.67-1.51
		l1.8-1.82v-2.72l-1.58-1.21l-5.64,1.21l-6.4-2.77l0,0l-0.6-2.6l0,0l0.9-2.2l13.55-2.72l4.74-2.43l5.42-10.9l5.87-6.06l0.45-4.54
		l-1.13-3.64l-7.68-3.64l-6.77-11.21l-12.75-13.04l0,0l17.02-14.3l7.66,0.39l4.24,3.48l4.13,0.91l2.86,4.38l3.41,1.8l-0.54,6.59
		l8.52,4.92L234.33,97.25z"/>
	<path id="MK-36" fill="#1E3250" stroke="#1E3250" stroke-width="0.5" d="M463.95,339.66l2.14,1.83h3.271l8.25-2.48l3.109,1.24
		l1.561,2.28l-0.16,8.279l3.11,15.301v14.27l1.399,6.2l2.65,4.54l0.62,7.649l4.689,2.91l0,0l15.49,14.58l3.61,1.141l2.93,6.619
		l9.29,6.171h10.5l18.08-11.011l0,0l1.64,3.73l0.64,12.07l3.211,0.85l0.64,3.4l-8.46,5.939l-7.311,2.04l3.46,16.98l-14.229,2.21
		l-2,6.56l6.3,1.66l0,0l-14.939,3.02l-12.54,12.9l-7.54-1.271l-10.9-7.319l-0.85-3.4l-5.62-0.78l-3.98,8.131l-3.66,2.449
		l-21.06,3.681l-10.41,8.899l0,0l-2.11-12.06l-5.909-0.21l-4.051-1.851l-0.699-21.729l-5.761-8.24l0.631-8.45l5.13-10.93l-0.62-1.65
		l-15.561-0.819l-2.96-8.25l-0.47-16.101l2.34-6.189l0.15-5.79l-4.59-12.08l1.399-10.13l-0.62-7.03l-1.56,0.83l-2.33,4.96h-2.96
		l-6.69-7.44v-3.199l0,0l6.23-8.801l3.58,0.62l1.649,2.051l0,0l7.53,9.949l19.14-0.21l2.181-1.649l0.62-5.17l1.399-1.45l4.67,0.82
		l6.69,3.93l1.56-0.62l1.4-4.75l5.29-3.31l0.46-12L463.95,339.66z"/>
	<path id="MK-37" fill="#1E3250" stroke="#1E3250" stroke-width="0.5" d="M513.57,195.23l4.229-2.45l1.92,0.51l1.92,6.84l3.2,1.37
		l10.87-0.51l1.32-1.51l0,0l9.67,9.89l7.93,5.81l11.89,2.05l7.04-0.34l6.65,6.66l6.39,0.52l0.99-1.44l0,0l16.891,1.16l0,0
		l-0.15,7.76l0,0l-8.43,5.7l-0.58,9.44l-4.69,8.16l0,0l-1.53-1.92l-4.35-0.17l-18.99,3.75h-6.399L545.3,242l-6.01-1.02l-9.34-9.4
		l-4.351-2.73l-13.939-1.54l-4.601-9.91l-0.89-12.65l2.55-5.3L513.57,195.23z"/>
	<path id="MK-38" fill="#1E3250" stroke="#1E3250" stroke-width="0.5" d="M274.32,126.33l3.54,0.46l3.26,2.5l5.36,7.8l7.22,1.25
		l1.5-1.34l0,0l-0.15,3.51l0,0l-4.95,2.56l-1.86,7.64l3.99,5.53h1.57l0.71-4.39l1.2-0.38l0,0l-0.36,8.92l0,0h-20.28l-0.55-1.23l0,0
		l-0.39-14.81l0,0L274.32,126.33z"/>
	<path id="MK-39" fill="#1E3250" stroke="#1E3250" stroke-width="0.5" d="M297.17,149.64l2.69,3.21l3.75,0.5l6.76,7.04l10.51,3.52
		l7.14,7.34l0,0l-4.03,1.89l-4.14,8.56l-2.26,1.05l-3.74-1.45l-0.69-10.67l-2.79-3.2l-5.63,1.51l-3.66-0.45l0,0l-1.22-2.06v-5.03
		l-4.51-1.01l0,0l0.36-8.92l0,0L297.17,149.64z"/>
	<path id="MK-40" fill="#1E3250" stroke="#1E3250" stroke-width="0.5" d="M155.34,320.73l2.17,8.46l5.27-1.891l2.44,1.891l1.62,2.97
		v7.02l0,0l-3.24,2.16l-5.81,11.96l0,0l-5.76-5.479l-13.4-6.21l-3.86-4.591l-0.81-4.72l0,0l1.42-5.27l5.08-1.08l8.52-4.87
		L155.34,320.73z"/>
	<path id="MK-41" fill="#1E3250" stroke="#1E3250" stroke-width="0.5" d="M567.05,300.99l7.851,2.09l5.05,4.42l16.16,1.35
		l6.779,6.721l6.86,9.609l-0.72,4.221l-3.03,1.92l-0.15,2.12l1.591,1.34l14.329,3.16l0,0l-0.26,9.119l1.891,7.311l0,0l-1.82,4.02
		l-7.36-1.729l-7.93,3.26l-2.08,2.771l0,0l-11.06-0.851l-13.42,3.26l-7.36,2.87l-1.58,4.03l-1.73-0.69l0,0l-1.739-9.47l3.75-7.87
		l-1.44-3.069l-8.8-3.641l-0.86-2.04l0,0l-2.029-8.33l-10.051-13.6l0,0l-0.05-2.34l7.21-6.15L567.05,300.99z"/>
	<path id="MK-42" fill="#1E3250" stroke="#1E3250" stroke-width="0.5" d="M595.46,97.61l1.3,5.16l2.021,1.16l4.47-4.65l3.76,4.07
		l0.28,12.78l1.3,3.49l8.66,5.42l0.72,9.29l6.061,9.48v7.93l2.02,8.74l0,0l-4.54,3.05l-3.609-0.2l-6.2-5.6l-4.91,0.19l-3.75,16.62
		l0.29,13.33l-2.26,3.38l0,0l-3.69,0.83l-4.899,6.05l-3.261-3.02h-1.63l-5.399,5.2l-5.101,0.17l0,0l-2.99-2.86l-3.14-0.84l-3.38-9.9
		l-0.26-9.57l1.76-2.52v-3.03l-0.75-1.01l-11.8,0.34l-4.641-3.19l-3.89-4.88l-1.3-3.78l0,0l12.59-11.85l3.27-6.39l5.96-3.2
		l2.601-10.26l0,0l5.3-18.02l-2.32-9.83l0,0l0.801-2.33l15.76-0.67L595.46,97.61z"/>
	<path id="MK-43" fill="#1E3250" stroke="#1E3250" stroke-width="0.5" d="M476.05,71.53l4.74,4.93l3.85,0.92l1.521,8.33l6.88,0.37
		l4.96,2.59l3.44,4.44l10.47,8.69l5.1-0.18l9.641-3.7l0.819-7.58l3.17-1.16l0,0l1.301,3.36l7.739,0.23l10.511-1.39l4.47-2.77
		L574.1,99.69l0,0l2.32,9.83l-5.3,18.02l0,0l-2.51-4.04l-8.101-6l-16.01-0.23l-1.2,0.92v12.24l-2.069,3l-3.78-0.92l-3.271-4.62
		l-6.37,2.54h-3.619l-5.851-6.23l-13.52,5.77l-12.051,1.38l-4.64,10.62l-2.76-0.229l-6.88-4.15l-2.09,0.52l0,0l-11.841,0.23l0,0
		l-0.85-3.09l-7.16-6.28l-2.21-9.61l-7.71-0.55l-1.24-1.85l-0.27-2.77l5.37-8.32l1.96-7.37l0,0l7.75-1.88l3.03-4.62l2.89-5.73V72.2
		l1.51-1.11L476.05,71.53z"/>
	<path id="MK-44" fill="#1E3250" stroke="#1E3250" stroke-width="0.5" d="M557.75,4.61l8.14,8.42l5.801,3.03l2.14-1.95l2.45,1.52
		l3.17-0.13l2.819,5.79l3.83,2.04l-0.699,2.48l4.46,7.07l2.689,1.31l0.17,3.29l2.86-0.68l1.31,4.24l3.19,2.48l-0.49,2.22l5.71,10.75
		l0.55,3.61l4.54,0.25l4.73,2.68l1.64,10.35l3.29,4.58l-1.5,1.59l0,0L603.98,89.2l-3.181,4.65l-5.34,3.76l0,0l-4.8-0.92l-15.76,0.67
		l-0.801,2.33l0,0L554.66,88.61l-4.47,2.77l-10.511,1.39l-7.739-0.23l-1.301-3.36l0,0l3.021-3.35l0.17-5.08l-2.41-5.56l-0.689-9.02
		l-3.44-7.64l0.35-8.1l2.75-4.87v-2.77l-2.75-1.39h-8.96l-5.51-2.79l-11.01-15.76l-2.7-7.09l0,0l17.04-4.2l6.41-7.03l5.149,0.08
		L545.73,0l6.56,0.3L557.75,4.61z"/>
	<path id="MK-45" fill="#1E3250" stroke="#1E3250" stroke-width="0.5" d="M259.48,391.2l7.37-4.9l1.94,0.8l2.68,11.681l14.33-0.79
		l3.99,3.1l0,0l-4.96,5.41l2.83,7.33l7.47,1.58l-4.18,18.01l-8.81,9.1l-6.2,0.69l0,0l-2.83-1.68l-2.38-3.561l-3.89-1.51l0,0
		l-0.14-2.05l-3.73-0.99l3.58-12.66l-0.45-4.16l-7.16-10.489L259.48,391.2z"/>
	<path id="MK-46" fill="#1E3250" stroke="#1E3250" stroke-width="0.5" d="M244.11,352.16l12.66,16.7l-0.29,4.359l-10.15-0.2
		l-1.35,4.36l3.44,1.79l8.65,10.7l2.41,1.33l0,0l-0.54,14.91l7.16,10.489l0.45,4.16l-3.58,12.66l3.73,0.99l0.14,2.05l0,0l-3.72,0.92
		l-5.53,12.851l-0.3,3.75l3.28,3.68l0,0l-1.9-0.21l-3.92-3.66l-1.48,0.43l0,0l1.04-15.21l-5.19-6.12l-2.3-9.93l-3.75-4.59
		l-2.88-1.14l-2.88,1.529l-5.48,0.38l-0.29-17.59l-2.02-3.06h-12.68v-5.74l-9.37-5.41l0,0l-2.45-6.439l0.78-1.681l0,0l2.8-2.64
		l15.91-7.061l0,0l13.8-5.449l1.79-11.88L244.11,352.16z"/>
	<path id="MK-47" fill="#1E3250" stroke="#1E3250" stroke-width="0.5" d="M388.52,36.83l4.29,0.49l0,0l7.9,3.82l2,2.4l-0.53,5.37
		l-6.3,2.26l-0.63,2.12l-0.11,3.25l1.79,2.97l0.101,8.04l-2.521,8.05l1.37,9.88l7.771,10.16l4.83,0.98l4.52-3.8l10.92-3.81l2,0.14
		l2.73,2.82l10.819,2.82l2.311-1.97l0.83-4.1l4.31-1.41l2.1,0.99l3.431,10.2l0,0l-1.96,7.37l-5.37,8.32l0.27,2.77l1.24,1.85
		l7.71,0.55l2.21,9.61l7.16,6.28l0.85,3.09l0,0l-0.579,3.55l-2.891,2.22l-9.91,4.43l-3.31,0.18l-6.89-9.229l-4.131-1.11l-8.26,0.93
		l-8.12,7.94l-0.689,5.72l-7.73,8.82l0,0l-9.35-8.2l-7.87,0.14l-6.06,2.43l-5.95-6.41l-7.44-2.99l-1.64-1.979l0,0l-0.32-12.13h-4.15
		l-10.73-8.27l-0.94-2.51l0,0l-0.34-4.62l-6.06-3.28h-2.65l0,0l-1.49-0.85l0.74-5.56l8.93-6.71l2.6-17.27l1.49-0.57l5.21,2.28
		l0.95-0.71V74.15l6.06-2.57l0.53-1.57l-2.01-11.58l-0.21-14.08l0,0l1.66,1.03l4.98-0.78L388.52,36.83z"/>
	<path id="MK-48" fill="#1E3250" stroke="#1E3250" stroke-width="0.5" d="M324.42,38.96l3.23,1.77l17.02-4.05l8.46,3.7l9.18-0.5
		l9.04,4.47l0,0l0.21,14.08l2.01,11.58l-0.53,1.57l-6.06,2.57v10.43l-0.95,0.71l-5.21-2.28l-1.49,0.57l-2.6,17.27l-8.93,6.71
		l-0.74,5.56l1.49,0.85l0,0l-2.16,8.87l-6.65-0.46l-10.26-12.82l0,0l-9.1-12.8l0,0l-8.56-13.52l1.06-2.86l0,0l8.1-5.16l0.85-10.89
		l-1.06-2.29l-2.56-0.86l-3.41-4.01l-3.79-8.38l0,0l-0.95-16.73l4.73-0.14l5.88,3.18L324.42,38.96z"/>
	<path id="MK-49" fill="#1E3250" stroke="#1E3250" stroke-width="0.5" d="M422.99,205.28l7.38,1.45l6.89,8.98l7.74,2.53l2.59,2.07
		l9.811,12.65l15.699,13.7l0,0l-2.01,0.61l0.62,5.15l-4.35,0.5l-1.12,3.49l-1.13,0.34l-4.971-5.15l-3.239-1l-6.101,7.31l-1.12,5.15
		l6.971,6.81l0.43,4.72l0,0l-1.18,2.35l-6.24,4.96l-5.45-0.36l-5.71-2.12l-4.38-25.7l-0.8-1.42l-5.311-0.53l-1.2,3.38l0,0
		l-5.05-9.06l-5.85-0.88l-0.93-1.42l4.659-12.24v-2.84l-6.649-9.59l9.04-10.12L422.99,205.28z"/>
	<path id="MK-50" fill="#1E3250" stroke="#1E3250" stroke-width="0.5" d="M39.91,224.59l3.29,2.21l0.66-1.05l0,0l3.12,3.57l6.9,3.25
		l4.67,4.07l12.58,1.63l9.14-10.04l22.53,2.17l5.68,8.95l0.61,7.86l2.85,3.25l3.65-2.17l11.57,0.28v2.16l-4.26,4.34l6.09,10.56
		l4.46,5.14l0.64,3.59l0,0l-4.8,0.48l-1.62,1.35h-6.91l-11.16,10.28l-6.9,0.27l-3.25,4.06l0.2,2.71l2.44,1.89l5.33-0.86l0,0
		l2.43,13.55v16.891l-3.81,4.229l-0.31,8.86l-3.81,2.109l-3.59,6.83l-3.24,3.24l-3.86,1.35l-8.29-2.14l0,0l-1.32-6.75l-10.78-4.64
		l-7.61-10.13l-6.35-5.49l-13.64-2.11l-7.61-5.49l-5.84-6.56l0,0l1.77-1.41l-2.22-10.91l-6.77-10.83l-0.39-6.51l-1.55-3.61
		l1.83-13.39l-2.64-9.15l-0.5-9.63l4.98-13.18l2-2.19l3-1.48L39.91,224.59z"/>
	<path id="MK-51" fill="#1E3250" stroke="#1E3250" stroke-width="0.5" d="M639.99,98.48l2.149-0.26l3.011,4.9l9.21,2.16l4.72,4.79
		l0,0l-0.83,24.16l-5.34,2.32l-0.101,8.76l0,0L650.08,144l-6.92-0.19l-1.88,1.74l-1.3,6.19l-4.04,8.5l-3.46,2.32l-6.431-2.08l0,0
		l-2.02-8.74v-7.93l-6.061-9.48l-0.72-9.29l-8.66-5.42l-1.3-3.49l-0.28-12.78l-3.76-4.07l-4.47,4.65l-2.021-1.16l-1.3-5.16l0,0
		l5.34-3.76l3.181-4.65l14.569-9.65l0,0l3.8,2.97l1.28,2.78l5.88,2.55l4.99,6.51L639.99,98.48z"/>
	<path id="MK-52" fill="#1E3250" stroke="#1E3250" stroke-width="0.5" d="M236.22,212.48l6.81,7.55l14.71,24.24l5.88,5.24l4.91,0.65
		l1.91-1.5l0,0l5.67,0.74l2.68,3.07v13.8l3.45,7.16l2.68,2.55l0.34-1.2l0,0l0.43,2.86l-1.96,3.59l-5.4,6.21l0.58,15.9l0,0h-2.36
		l-0.75,12.32l-1.94,4.77l-8.36,11.12l-0.59,13.3l-8.66-3.96l-3.51,0.591l-2.53,4.369l-5.97,2.381l-0.13,3.93l0,0l-4.01,0.03
		l-1.79,11.88l-13.8,5.449l0,0l-0.97-4.369l-9.58-3.67l-1.79-1.95l-1.46-3.45l-0.16-6.26l-1.46-1.08h-3.74l-9.42,4.529l-7.57,1.051
		l0,0l0.61-6.5l5.07-2.16l16.24-16.2l-0.2-2.43l-10.35-7.3l-3.67-11.061l0,0l0.42-16.79l-1.62-3.24l-4.27-1.9l-6.49-0.27l-1.83-1.62
		l-0.97-3.62l0,0l1.58-5.85l-0.61-7.04l-3.25-6.77l-0.4-6.77l-2.85-2.17l-1.42-4.06l0.41-2.17l4.06-1.36l0.81-1.62v-10.03l1.63-3.8
		l7.98-0.93l0,0l4.2-0.97l4.26-4.07l5.07-8.13l7.11-7.87l5.88-4.35l5.28,0.33l0,0L236.22,212.48z"/>
	<path id="MK-53" fill="#1E3250" stroke="#1E3250" stroke-width="0.5" d="M275.94,443.21l1.43,4.84l7.46,1.19l3.88,2.37l10.22,13.64
		l8.51,1.18l2.09,3.761l5.82,3.149l6.71,0.2l3.88-2.76h2.24l5.52,4.34l12.39,3.56l1.13,1.29l0,0l-1.43,6.181L332.98,502.6
		l-3.48,2.181l-13.72-1.94l-8.69-3.39h-3.11l-4.76,3.39l-3.41,5.51l0,0l-5.24-1.25l-8.5,3.94l-6.27-3.55l-1.04-18.15l-8.81-5.14
		l-4.33-6.71l-1.04-7.5l2.68-5.141v-3.359l-2.69-3.83l0,0l-3.28-3.68l0.3-3.75l5.53-12.851l3.72-0.92l0,0l3.89,1.51l2.38,3.561
		L275.94,443.21z"/>
	<path id="MK-54" fill="#1E3250" stroke="#1E3250" stroke-width="0.5" d="M472.15,278.84l3.55,2.98l5.85,1.33l5.851,8.29l2.989-0.66
		l3.48-6.8l2.12-0.33l3.74,6.14l2.859,12.93l1.87,1.5l10.7-0.17l4.859,1.66l0.99,8.46l2.37,1.49l11.08,6.79l5.35,1.49l8.08-0.65l0,0
		l10.051,13.6l2.029,8.33l0,0l-8.479,7.181l-3.851,6.739l-9.04-3.37l-6.279-4.84l-4.521-0.58l-2.09,1.46L518,360.45l-5.07,15.67
		l-5.949,4.24l0.439,3.069l4.74,7.32l-2.54,10.23l-15.03,0.699l0,0l-4.689-2.91l-0.62-7.649l-2.65-4.54l-1.399-6.2v-14.27
		l-3.11-15.301l0.16-8.279l-1.561-2.28l-3.109-1.24l-8.25,2.48h-3.271l-2.14-1.83l0,0l-0.13-19.97l0,0l2.739-0.771l1.4,1.66
		l1.64,9.16l3.86-0.16l3.11-7.46l-2.86-6.63l4.85-9.61l-0.369-3.98l-3.49-1.5l-9.34,3.32l-2.98-2.99l0.37-4.47l8.71-12.45
		L472.15,278.84z"/>
	<path id="MK-55" fill="#1E3250" stroke="#1E3250" stroke-width="0.5" d="M347.22,479.97l4.79-2.54l4.21,7.021l4.75,3.39l19.4,3.63
		l10.06,4.84l7.32,1.45l8.42,7.74l4.21,1.21l6.95-0.24l2.2-2.66l7.87,8.46l12.02,5.5l0,0l-3.6,7.25l-3.9,0.421l-2.3,6.449
		l-5.54,2.301l-6.11,11.699l-8.51,6.801l-2.28,12.1l-3.5,4.02l-9.01,1.221l-6.64-0.94l-6.22-3.47l-3,0.56l-9.71,6.551l-0.64,7.699
		l-2.52,0.471l0.17,2.22l-8.47,0.899l-11.8,9.45l-4.45,0.7l-2.95-1.92l-10.91-14.7l-7.18-0.069l0,0l-2.1-15.931L305.81,544.9
		l-6.59-1.7l-0.91-12.311l-4.58-5.56l-0.55-4.11l2.63-12.87l0,0l3.41-5.51l4.76-3.39h3.11l8.69,3.39l13.72,1.94l3.48-2.181
		l12.81-16.449L347.22,479.97z"/>
	<path id="MK-56" fill="#1E3250" stroke="#1E3250" stroke-width="0.5" d="M754.56,372.48l-2.079,0.64l-2.771,4.649l0.31,2.721
		l2.19,1.31l2.42,4.82l-0.56,5.12l2.27,8.26l-0.49,1.02l-3.649,0.2l0.149,2.96l-20.399-0.1l-8.21,1.96l-9.021-2.08l-4.27,1.98l0,0
		l-0.84-20.91l-2.021-2.681l0,0l4.62-6.319v-14.38l8.94-7.87l7.8-9.79l0.43-9.98l0,0l22.79-1.74l0,0l3.68,6.11l-0.75,4.76
		l-3.93,4.23l1.061,6.729l1.989,1.17l-0.489,5.44l4.34,5.23L754.56,372.48z"/>
	<path id="MK-57" fill="#1E3250" stroke="#1E3250" stroke-width="0.5" d="M181.3,281.23l0.97,3.62l1.83,1.62l6.49,0.27l4.27,1.9
		l1.62,3.24l-0.42,16.79l0,0l-4.45,7.01l-10.15,7.03l-2.84,9.45l-2.64,3.78l-3.86,2.699l-5.28,0.54l0,0v-7.02l-1.62-2.97
		l-2.44-1.891l-5.27,1.891l-2.17-8.46l0,0l5.62-11.54l-0.27-18.621l0,0l0.27-1.66l4.46-3.25L181.3,281.23z"/>
	<path id="MK-58" fill="#1E3250" stroke="#1E3250" stroke-width="0.5" d="M86.67,473.46l9.43-0.42l1.83-4.03l5.28-2.149l-0.41-8.061
		l3.65-7.26l3.86-2.42l0.61-3.23l2.03-1.88l10.76-0.27l5.07-2.15h8.32l10.97,3.76l7.91,5.381l14.42,2.149l4.42-1.14l0,0l2.37,5.25
		l0,0l-6.45,9.31l-24.9,15.63l-9.59,11.221l-3.69,14.869l-0.55,12.671l-4.06,2.68l0.18,5.85l3.32,5.851l-0.55,8.029l-2.4,2.681
		l-7.74,0.729l-3.51,2.681l-2.58,9.97l0.47,10.74l-6.25,10.819l0,0L95.6,582.15l-5.75-1.341l-3.67-2.85l0,0l8.91-5.979l3.45-11.511
		l4.87-8.84l3.45-10.71l0.2-8.04l-1.21-22.26l0.81-11l-9.75-5.9l-3.04-4.569l-3.05-9.66l-3.65-1.88l-1.55-2.32l0,0L86.67,473.46z"/>
	<path id="MK-59" fill="#1E3250" stroke="#1E3250" stroke-width="0.5" d="M373.74,144.78l1.64,1.979l7.44,2.99l5.95,6.41l6.06-2.43
		l7.87-0.14l9.35,8.2l0,0l-2.77,7.86l-0.141,4.49l0,0l-10.449,7.82l-9.7,2.31l0.13,15.11l-4.91,17.94l-5.19-0.71l-3.32-4.8h-2.12
		l-4.25,6.75h-1.73l-0.53-6.04l-2.66,1.96l-2.26-0.18l-3.32-0.53l-3.13-2.41l0,0l2.47-4.87l0.53-20.62l-1.46-2.13l-13.95-2.81l0,0
		l-5.28-0.48l-0.67-2.22l1.59-3.51l0,0l3.28-3.86l0,0l10.08-5.98l1.99-2.89h2.66l5.15,3.56l7.8-0.67l1-2l-2.52-6.87L373.74,144.78z"
		/>
	<path id="MK-60" fill="#1E3250" stroke="#1E3250" stroke-width="0.5" d="M735.95,194.11l1.479-0.87l2.311,1.59l2.93,4.32l1.51,5.25
		l1.641,1.07l2.319,7.7l0.25,5.72l5.271,9.31l2.359,1.67l1.351,7.6l1.71,1.01l2.979-3.33l0.98,1.61l1.37-1.77l2.46-0.08l2.229,4.49
		l-0.119,2.78l1.949,1.26l3.29,9.2l-0.779,2.22l0.899,3.09l-3.43,2.97l-3.99,7.26l0,0l-3.9-2.9l-8.22-2.7l-10.39-7.7l-8.95-0.19
		l-1.59-5.78l-3.46-1.54l-17.46-2.31l-2.891,4.04l-2.449-0.58l-1.88-8.86l-2.16-1.16l-4.69-14.38l0,0l5.26-0.07l5.2-6.75l6.061-1.74
		l5.92-11.77l13-10.9l0,0L735.95,194.11z"/>
	<path id="MK-61" fill="#1E3250" stroke="#1E3250" stroke-width="0.5" d="M188.36,354.32l7.57-1.051l9.42-4.529h3.74l1.46,1.08
		l0.16,6.26l1.46,3.45l1.79,1.95l9.58,3.67l0.97,4.369l0,0l-15.91,7.061l-2.8,2.64l0,0l-10.34-4.96l-3.24-6.2l-5.37,1.62l0,0
		l-5.59,1.08l-2.03-3.24l-1.83-12.68l0.81-1.62l4.67-0.54L188.36,354.32z"/>
	<path id="MK-62" fill="#1E3250" stroke="#1E3250" stroke-width="0.5" d="M399.64,364.57v3.199l6.69,7.44h2.96l2.33-4.96l1.56-0.83
		l0.62,7.03l-1.399,10.13l4.59,12.08l-0.15,5.79l-2.34,6.189l0.47,16.101l2.96,8.25l15.561,0.819l0.62,1.65l-5.13,10.93l-0.631,8.45
		l5.761,8.24l0.699,21.729l4.051,1.851l5.909,0.21l2.11,12.06l0,0l-6.02,3.79l-1.851,8.53l0.41,4.52l0,0l-12.02-5.5l-7.87-8.46
		l-2.2,2.66l-6.95,0.24l-4.21-1.21l-8.42-7.74l-7.32-1.45l-10.06-4.84l-19.4-3.63l-4.75-3.39l-4.21-7.021l-4.79,2.54l0,0l-1.13-1.29
		l-12.39-3.56l-5.52-4.34h-2.24l-3.88,2.76l-6.71-0.2l-5.82-3.149l-2.09-3.761l-8.51-1.18l-10.22-13.64l-3.88-2.37l-7.46-1.19
		l-1.43-4.84l0,0l6.2-0.69l8.81-9.1l4.18-18.01l-7.47-1.58l-2.83-7.33l4.96-5.41l0,0l6.38-4.09l7.01-8.32l23.36-2.58l3.13-1.58
		l3.58-4.56l6.72-2.38l2.39-9.71l5.87-4.17l0,0l6.21,0.6l2.24,1.58l2.24,4.76l5.67-0.59l1.64-0.8l2.24-4.75l1.35-9.52l8.8-1.2
		l5.97-2.38l10.89,6.55L399.64,364.57z"/>
	<path id="MK-63" fill="#1E3250" stroke="#1E3250" stroke-width="0.5" d="M571.12,127.54l-2.601,10.26l-5.96,3.2l-3.27,6.39
		l-12.59,11.85l0,0l-2.55-0.7l-2.051,1.54l-5.239,14.04l-7.04,5.65l-2.94,0.69l-0.89,2.05l0.38,2.91l10.66,14.06l0,0l-1.32,1.51
		l-10.87,0.51l-3.2-1.37l-1.92-6.84l-1.92-0.51l-4.229,2.45l0,0l-2.16-2.64l-2.76,0.79l-3.73-1.58l-6.12,0.23l0,0l-3.96-5.56
		l2.58-4.61v-4.38l-5.85-3.45l-6.03-11.76l-12.39-9.69l-0.17-7.38l3.42-7.09l0,0l2.09-0.52l6.88,4.15l2.76,0.229l4.64-10.62
		l12.051-1.38l13.52-5.77l5.851,6.23h3.619l6.37-2.54l3.271,4.62l3.78,0.92l2.069-3v-12.24l1.2-0.92l16.01,0.23l8.101,6
		L571.12,127.54z"/>
	<path id="MK-64" fill="#1E3250" stroke="#1E3250" stroke-width="0.5" d="M604.33,231.55l2.96,0.69l8.09,6.55l10.96-1.15l3.18-5.59
		l2.16-0.19l2.74,5.01l6.79,3.47l7.36,6.74l8.81,1.93l0,0l1.22,12.47l5.95,4.81l-0.18,2.17l-5.95,9.38l1.49,8.85l0,0l-0.811,1.01
		l-9.09,0.96l-5.77,10.77l1.87,5.19l4.62,5.189l1.88,7.881l0.14,9.6l-1.73,2.69l-2.449,2.689l-1.73-0.189l-8.95-8.841l-6.489-2.88
		l-2.891,4.61l-7.939,3.649l2.17,5.95l-0.971,2.971l0,0l-14.329-3.16l-1.591-1.34l0.15-2.12l3.03-1.92l0.72-4.221l-6.86-9.609
		l-6.779-6.721l-16.16-1.35l-5.05-4.42l-7.851-2.09l0,0l-3.55-2.14l-1.45-2.88l-0.569-10.39l-4.19-9.62l1.01-2.31l5.05-5.19
		l1.881-0.39l10.1,5l5.63-0.19l9.67-18.03l0,0l4.69-8.16l0.58-9.44L604.33,231.55z"/>
	<path id="MK-65" fill="#1E3250" stroke="#1E3250" stroke-width="0.5" d="M499.46,15.76l2.7,7.09l11.01,15.76l5.51,2.79h8.96
		l2.75,1.39v2.77l-2.75,4.87l-0.35,8.1l3.44,7.64l0.689,9.02l2.41,5.56l-0.17,5.08l-3.021,3.35l0,0l-3.17,1.16l-0.819,7.58
		l-9.641,3.7l-5.1,0.18l-10.47-8.69L498,88.67l-4.96-2.59l-6.88-0.37l-1.521-8.33l-3.85-0.92l-4.74-4.93l0,0l5.771-0.25l1.38-1.85
		l-1.11-5.56l-3.71-6.11l-0.14-10.93l-2.83-7.04l1.109-2.41l5.921-0.93l2.06-2.41l-1.76-13.27l0,0L499.46,15.76z"/>
	<path id="MK-66" fill="#1E3250" stroke="#1E3250" stroke-width="0.5" d="M177.19,456.99l3.32,5.16l5.72,0.25l4.43,22.939l4.04,6.23
		l0,0l-0.12,2.189l2.77,3.05v8.23l-3,5.18l-5.54,4.57l-1.15,8.52l2.08,2.44l6.64,2.01l0.73,7.061l6.09,8.04l0.74,5.6l2.21,1.94
		l12.73-0.24l4.06,2.189l3.32,4.62l1.29,5.84l10.51,1.221l1.66,1.21l1.29,5.109l-0.37,5.11l3.14,1.94l0.74,1.949l-3.7,14.641l0,0
		l-8.14-5.96L215,596.36l-13.02,2.529L165.14,600l-2.53-1.11L161,583.8l-9.33-8.63l-6.63-1.36l-6.7,2.75l-13.51-4.3l-5.83,2.03
		l-5.69,5.35l-4.42,1.08l0,0l6.25-10.819l-0.47-10.74l2.58-9.97l3.51-2.681l7.74-0.729l2.4-2.681l0.55-8.029l-3.32-5.851l-0.18-5.85
		l4.06-2.68l0.55-12.671l3.69-14.869l9.59-11.221l24.9-15.63L177.19,456.99z"/>
	<path id="MK-67" fill="#1E3250" stroke="#1E3250" stroke-width="0.5" d="M463.82,319.69l0.13,19.97l0,0l-1.91,4.32l-0.46,12
		l-5.29,3.31l-1.4,4.75l-1.56,0.62l-6.69-3.93l-4.67-0.82l-1.399,1.45l-0.62,5.17l-2.181,1.649l-19.14,0.21l-7.53-9.949l0,0
		l1.92-12.641l0,0l3.58-3.479l4.98-0.42l2.34-2.681l-1.09-6.84l0.93-4.55l4.67,0.62l6.07,3.729h4.67l6.53-8.91l5.45,2.48h4.359
		l0.78-5.79l2.64-1.66L463.82,319.69z"/>
	<path id="MK-68" fill="#1E3250" stroke="#1E3250" stroke-width="0.5" d="M234.33,97.25l4.15,6.98l0,0l0.74,7.56l2.09,5.32l2.8,1.56
		l7.45-3.13l2.56,2.82l0.93,5.31l6.75,14.04l4.66,5.93l7.67,0.71l0,0l0.39,14.81l0,0l-1.09,1.83l-6.86,0.33l-5.15,2.95l-16.92,15.1
		l-11.77,4.6l-1.54,3.95l0,0l-11.21-9.2l3.14-26.8l-9.02-6.83l-6.83-2.78l0,0l0.94-2.48l11.38-3.94l-3.04-13.35l6.13-5.27
		l-1.23-7.23l-5.88,1.64l-4.9-5.27l4.65-3.29l15.45-1.64L234.33,97.25z"/>
	<path id="MK-69" fill="#1E3250" stroke="#1E3250" stroke-width="0.5" d="M476.4,138.11l-3.42,7.09l0.17,7.38l12.39,9.69l6.03,11.76
		l5.85,3.45v4.38l-2.58,4.61l3.96,5.56l0,0l-0.859,3.19l-3.44,1.84l-0.52,1.61l0.34,3l3.449,5.98l0.171,4.83l-3.7,2.3l-8.95,13.58
		l-6.55,2.76l3.62,9.42l-0.17,2.76l-1.551,0.46l-1.04,2.76l2.591,1.84l0.689,2.99l-1.04,1.15l-3.78-0.92l-4.96-4.92l0,0
		l-15.699-13.7l-9.811-12.65l-2.59-2.07l-7.74-2.53l-6.89-8.98l-7.38-1.45l0,0L412.38,192l-3.27-12.67l0.029-5.19l0,0l0.141-4.49
		l2.77-7.86l0,0l7.73-8.82l0.689-5.72l8.12-7.94l8.26-0.93l4.131,1.11l6.89,9.229l3.31-0.18l9.91-4.43l2.891-2.22l0.579-3.55l0,0
		L476.4,138.11z"/>
	<path id="MK-70" fill="#1E3250" stroke="#1E3250" stroke-width="0.5" d="M274.52,159.16l0.55,1.23h20.28l0,0l4.51,1.01v5.03
		l1.22,2.06l0,0l-2.26,15.1l-12.56,0.79l-4.7-2.36l-7.26-0.79l-4.71,1.31l-2.16,2.36l1.38,8.93l10.2,1.57l1.57,1.58l-0.4,2.1h-2.74
		l-3.14,2.36l-3.53,15.73l-4.32,2.1l-0.39,3.14l4.12,2.62l1.34,3.91l-2.3,4.09l-1.15,6.14v4.61l2.37,4.88l0,0l-1.91,1.5l-4.91-0.65
		l-5.88-5.24l-14.71-24.24l-6.81-7.55l0,0l2.15-15.72l-5.15-3.61l-2.21-2.95l0.18-2.28l0,0l1.54-3.95l11.77-4.6l16.92-15.1
		l5.15-2.95l6.86-0.33L274.52,159.16z"/>
	<path id="MK-71" fill="#1E3250" stroke="#1E3250" stroke-width="0.5" d="M467.23,14.06l7.729,7.48l7.78-0.77l0,0l1.76,13.27
		l-2.06,2.41l-5.921,0.93l-1.109,2.41l2.83,7.04l0.14,10.93l3.71,6.11l1.11,5.56l-1.38,1.85l-5.771,0.25l0,0l-8.42-0.44l-1.51,1.11
		v14.07L463.23,92l-3.03,4.62l-7.75,1.88l0,0l-3.431-10.2l-2.1-0.99l-4.31,1.41l-0.83,4.1l-2.311,1.97l-10.819-2.82l-2.73-2.82
		l-2-0.14L413,92.82l-4.52,3.8l-4.83-0.98l-7.771-10.16l-1.37-9.88l2.521-8.05l-0.101-8.04l-1.79-2.97l0.11-3.25l0.63-2.12l6.3-2.26
		l0.53-5.37l-2-2.4l-7.9-3.82l0,0l13.03-1.56l1.44-15.19l8.16-7.93l5.46-0.35l9.159,11.98L451.36,7.45l9.58,6.42L467.23,14.06z"/>
	<path id="MK-72" fill="#1E3250" stroke="#1E3250" stroke-width="0.5" d="M70.32,372.13L82.91,396.9l1.22,19.399l7.91,12.11
		l-0.61,12.37l-2.23,7.26l-5.68,8.88l0.61,5.64l2.63,2.96l-0.09,7.94l0,0l-1.05,1.83l0,0l-20.57-0.91l-2.85,2.69l-6.09,16.649
		l-2.05,14.13l0,0l-10.18-2.63l-1.09-1.54l-2.3-4.18l-0.32-3.86l3.19-4.46l-3-8.83l-9.23-17.42l-2.58,0.2l-3.17-2.99l-4.7-12.56l0,0
		l10.95,2.32l7.02-0.58l5.49-3.78h7.25l3.51-2.03l2.2-2.33v-2.91l-2.64-4.079h-2.41l-2.86,0.59l-4.61,4.069l-11.2-2.04l-9.44,0.29
		l-4.31,1.561l0,0l-2.32-5.311l0.86-5.069l-6.24-19.971l-0.05-4.54l1.39-2.71l4.12,2.601l3.82-0.95l6.5-11.56l3.47-13.66l0,0
		l26.76,0.7l4.26-2.421l5.39-6.789l0,0l0.91-1.03l1.05,1.26l0,0L70.32,372.13z"/>
	<path id="MK-73" fill="#1E3250" stroke="#1E3250" stroke-width="0.5" d="M623.4,354.37l3.59-3.271l3.609-6.149l3.03-0.38
		l11.55,5.569l6.2,8.051l8.8,0.199l7.801-2.5l5.619-4.04l0,0l3.681,3.851l2.31,7.859l-2.45,9.4l4.19,2.3l7.93-2.109l3.03,8.05
		l4.33,3.069l2.6,0.381l8.37-2.301l0,0l2.021,2.681l0.84,20.91l0,0l-2.03,2.04l-6.27,1.319l-1.44,3.5l0,0l-20.68-10.72l-4.19,1.92
		l-3.32,7.85l-2.88,3.25l-4.62-1.72l-4.76,3.64l-8.52-0.77v-2.68l-5.48-5.17l-14.58,1.149l-0.43-5.93l-5.48-9.96l4.62-12.271
		l-3.04-3.64l-8.8-0.19l-3.75-1.72l-6.06-6.14l-4.53-7.01l0,0l2.08-2.771l7.93-3.26l7.36,1.729L623.4,354.37z"/>
	<path id="MK-74" fill="#1E3250" stroke="#1E3250" stroke-width="0.5" d="M338.93,174.72l-1.59,3.51l0.67,2.22l5.28,0.48l0,0
		l-1.27,2.29l-13.84,7.83l-0.79,5.7l-5.72,8l-0.67,6.23l-1.33,1.6l-4.52-0.18l-1.47-5.51l-2.26-0.18l-2.53,2.84L306.9,214l0.4,8.54
		l5.98,10.48l-1.38,8.92l0,0l-8.56,2.66l-3.19,2.62l-5.39,11.12l-5.64,3.6l-1.47,2.29l-2.39,10.55l0,0l-0.34,1.2l-2.68-2.55
		l-3.45-7.16v-13.8l-2.68-3.07l-5.67-0.74l0,0l-2.37-4.88v-4.61l1.15-6.14l2.3-4.09l-1.34-3.91l-4.12-2.62l0.39-3.14l4.32-2.1
		l3.53-15.73l3.14-2.36h2.74l0.4-2.1l-1.57-1.58l-10.2-1.57l-1.38-8.93l2.16-2.36l4.71-1.31l7.26,0.79l4.7,2.36l12.56-0.79
		l2.26-15.1l0,0l3.66,0.45l5.63-1.51l2.79,3.2l0.69,10.67l3.74,1.45l2.26-1.05l4.14-8.56l4.03-1.89l0,0l5.51-3.73l0,0l1.78,0.47
		L338.93,174.72z"/>
	<path id="MK-75" fill="#1E3250" stroke="#1E3250" stroke-width="0.5" d="M176.78,72.17l12.75,13.04l6.77,11.21l7.68,3.64l1.13,3.64
		l-0.45,4.54l-5.87,6.06l-5.42,10.9l-4.74,2.43l-13.55,2.72l-0.9,2.2l0,0l-5.71-2.4l-0.81-1.63l0,0l0.81-8.44l0,0l-3.45-5.45
		l-7.11-1.91l-5.07-12.26l-2.64-3l-6.7-4.08l-8.38-3.06l0,0l4.2-3.25l19.35-2.96l2.96-4.77l8.35-1.97L176.78,72.17z"/>
	<path id="MK-76" fill="#1E3250" stroke="#1E3250" stroke-width="0.5" d="M135.12,90.32l8.38,3.06l6.7,4.08l2.64,3l5.07,12.26
		l7.11,1.91l3.45,5.45l0,0l-0.81,8.44l0,0l0.81,1.63l5.71,2.4l0,0l0.6,2.6l0,0l-1.85,0.44l-3.24,5.72l3.85,2.18l2.03,4.08l4.26,1.9
		l-0.2,2.99l-6.09,1.91l-2.2,3.05l0,0l-5.51-0.88l-8.12-4.89l-1.83,1.08l-2.23,4.9l-1.19-0.13l0,0l-11.4-10.48l-17.45-4.08
		l-4.67,0.27l-10.15,7.89l-9.95,4.36l-3.45,3.53l-4.65,2.19l0,0l0.15-3.51l-5.81-9.49l-0.84-5.86l1.94-5.41l-0.2-8.41l15.63-19.83
		l9.96-7.99l16.2,0.19L135.12,90.32z"/>
	<path id="MK-77" fill="#1E3250" stroke="#1E3250" stroke-width="0.5" d="M295.05,140.51l-0.08,3.06l2.45-0.24l0.92,1.85l0,0
		l-1.86,3.64l0.69,0.82l0,0l-1.46,1.83l0,0l-1.2,0.38l-0.71,4.39h-1.57l-3.99-5.53l1.86-7.64L295.05,140.51z"/>
	<path id="MK-78" fill="#1E3250" stroke="#1E3250" stroke-width="0.5" d="M15.58,345.64l14.98-8.84l3.48-5.91l12.69,0.851l3.49,5.06
		l1.9,7.601l3.18,2.949h3.48l2.22,7.17v11.801l4.76,0.85l1.83,3.811l0,0l-5.39,6.789l-4.26,2.421l-26.76-0.7l0,0l1.43-1.681
		l-6.25-8.619l-8.23-4.881l-4.7-17.21L15.58,345.64z"/>
	<path id="MK-79" fill="#1E3250" stroke="#1E3250" stroke-width="0.5" d="M300.61,139.36l-0.45,5.82l0,0h-1.82l0,0l-0.92-1.85
		l-2.45,0.24l0.08-3.06l0,0l0.15-3.51l0,0l0.03-1.15l0,0L300.61,139.36z"/>
	<path id="MK-80" fill="#1E3250" stroke="#1E3250" stroke-width="0.5" d="M311.9,241.94l1.78,1.74l24.91-0.03l0,0l7.95,14.77
		l5.72-1.96l16.77,5.15l8.24,25.55l3.2-0.53l5.18-3.9l1.87,11.88l2.66,3.01l9.879,2.09l0,0l-0.489,7.86l1.859,2.649l7.311,5.13
		l1.2,2.48l-1.33,6.9l-4.12,4.59l-0.66,7.96l0.93,3.529l8.26,4.99l0,0l-1.92,12.641l0,0l-1.649-2.051l-3.58-0.62l-6.23,8.801l0,0
		l-4.16-6.62l-10.89-6.55l-5.97,2.38l-8.8,1.2l-1.35,9.52l-2.24,4.75l-1.64,0.8l-5.67,0.59l-2.24-4.76l-2.24-1.58l-6.21-0.6l0,0
		l-2.29-4.561l-2.84-2.38l-12.83-3.77l-3.28-9.33l-13.58,1.189l-3.14-1.58l-4.03-5.96l-0.44-9.529l-2.24-8.54l-4.93-2.59l-2.38-6.15
		l-2.54-2.79l-14.8-4.37l0,0l-0.58-15.9l5.4-6.21l1.96-3.59l-0.43-2.86l0,0l2.39-10.55l1.47-2.29l5.64-3.6l5.39-11.12l3.19-2.62
		L311.9,241.94z"/>
	<path id="MK-81" fill="#1E3250" stroke="#1E3250" stroke-width="0.5" d="M546.7,159.24l1.3,3.78l3.89,4.88l4.641,3.19l11.8-0.34
		l0.75,1.01v3.03l-1.76,2.52l0.26,9.57l3.38,9.9l3.14,0.84l2.99,2.86l0,0l0.84,8.72l6.4,7.22l3.26,6.21l0,0l-0.99,1.44l-6.39-0.52
		l-6.65-6.66l-7.04,0.34l-11.89-2.05l-7.93-5.81l-9.67-9.89l0,0l-10.66-14.06l-0.38-2.91l0.89-2.05l2.94-0.69l7.04-5.65l5.239-14.04
		l2.051-1.54L546.7,159.24z"/>
	<path id="MK-82" fill="#1E3250" stroke="#1E3250" stroke-width="0.5" d="M311.01,48.79l3.79,8.38l3.41,4.01l2.56,0.86l1.06,2.29
		l-0.85,10.89l-8.1,5.16l0,0l-1.76-0.59l-4.5,1.51l-7.14,14.63l-2.25,14.62l0.75,14.11l-3.12,1.88l-1.16-1.23l0,0l-5.59-8.52
		l-4.66,2.82l-0.23,6.87l3.49,1.25l4.42,7.18l3.43-0.84l0,0l0.67,1.78l0,0L295.2,137l0,0l-1.5,1.34l-7.22-1.25l-5.36-7.8l-3.26-2.5
		l-3.54-0.46l0,0v-5.7l-5.26-11.59l-9.24-9.07l0,0l0.58-1.3l-4.19-10l6.29-13.46l0.31-3.63l16.26-12.41l2.7-4.35l1.44-7.15h5.6
		l5.12,2.19l10.24-3.13L311.01,48.79z"/>
	<path id="MK-83" fill="#1E3250" stroke="#1E3250" stroke-width="0.5" d="M498.8,192.03l6.12-0.23l3.73,1.58l2.76-0.79l2.16,2.64
		l0,0l-4.851,4.22l-2.55,5.3l0.89,12.65l4.601,9.91l13.939,1.54l4.351,2.73l9.34,9.4l6.01,1.02l14.061,14.51h6.399l18.99-3.75
		l4.35,0.17l1.53,1.92l0,0l-9.67,18.03l-5.63,0.19l-10.1-5l-1.881,0.39l-5.05,5.19l-1.01,2.31l4.19,9.62l0.569,10.39l1.45,2.88
		l3.55,2.14l0,0l-12,13.81l-7.21,6.15l0.05,2.34l0,0l-8.08,0.65l-5.35-1.49l-11.08-6.79l-2.37-1.49l-0.99-8.46l-4.859-1.66
		l-10.7,0.17l-1.87-1.5l-2.859-12.93l-3.74-6.14l-2.12,0.33l-3.48,6.8l-2.989,0.66l-5.851-8.29l-5.85-1.33l-3.55-2.98l0,0
		l-5.79-3.66l-9.28-0.59l0,0l-0.43-4.72l-6.971-6.81l1.12-5.15l6.101-7.31l3.239,1l4.971,5.15l1.13-0.34l1.12-3.49l4.35-0.5
		l-0.62-5.15l2.01-0.61l0,0l4.96,4.92l3.78,0.92l1.04-1.15l-0.689-2.99l-2.591-1.84l1.04-2.76l1.551-0.46l0.17-2.76l-3.62-9.42
		l6.55-2.76l8.95-13.58l3.7-2.3l-0.171-4.83l-3.449-5.98l-0.34-3l0.52-1.61l3.44-1.84L498.8,192.03z"/>
	<path id="MK-84" fill="#1E3250" stroke="#1E3250" stroke-width="0.5" d="M294.56,134.07l-3.43,0.84l-4.42-7.18l-3.49-1.25
		l0.23-6.87l4.66-2.82l5.59,8.52l0,0L294.56,134.07z"/>
	<path id="MK-LKD" fill="#1E3250" stroke="#1E3250" stroke-width="0.5" d="M693.17,474.51l-0.37,1.79l0,0l-5.81-5.55l-4.86-9.22
		l-1.1-9.07l3.42-6l3.76-2.64l6.521-0.44l3.52,2.08l0,0l-1.84,23.33L693.17,474.51z"/>
	<path id="MK-LKO" fill="#1E3250" stroke="#1E3250" stroke-width="0.5" d="M85.62,475.29l1.55,2.32l3.65,1.88l3.05,9.66l3.04,4.569
		l9.75,5.9l-0.81,11l1.21,22.26l-0.2,8.04l-3.45,10.71l-4.87,8.84l-3.45,11.511l-8.91,5.979l0,0l-20.02-65.58l-1.15-2.18
		l-10.95-2.351l0,0l2.05-14.13l6.09-16.649l2.85-2.69L85.62,475.29z"/>
</g>
</svg>
