<?xml version="1.0" encoding="utf-8"?>
<!-- Generator: Adobe Illustrator 15.0.0, SVG Export Plug-In . SVG Version: 6.00 Build 0)  -->
<!DOCTYPE svg PUBLIC "-//W3C//DTD SVG 1.1//EN" "http://www.w3.org/Graphics/SVG/1.1/DTD/svg11.dtd">
<svg version="1.1" id="Layer_1" xmlns:amcharts="http://amcharts.com/ammap"
	 xmlns="http://www.w3.org/2000/svg" xmlns:xlink="http://www.w3.org/1999/xlink" x="0px" y="0px" width="1132.38px"
	 height="827.362px" viewBox="0 0 1132.38 827.362" enable-background="new 0 0 1132.38 827.362" xml:space="preserve">
<defs>
	
	
		<amcharts:ammap  projection="mercator" bottomLatitude="35.805673" leftLongitude="14.182891" topLatitude="36.082376" rightLongitude="14.576552">
		</amcharts:ammap>
</defs>
<g>
	<path id="MT_NO" fill="#1E3250" stroke="#1E3250" stroke-width="0.5" d="M670.28,336.74v3.979l-11.641,1.601l-4.529,5.569
		l-5.17,0.801l-1.29-1.591l0.649-3.979l2.59-2.39h5.171l6.47-3.98h7.75V336.74z M575.88,246.85l3.23,5.57l3.229,1.58l1.29,4.78
		l3.24,2.39v7.96l4.52,0.8l4.53,4.76l0.65,6.37l-9.7,6.37h-12.29l-3.24,3.98h-2.58l-1.29,2.38l1.29,3.18l-9.05,6.37l-3.88,5.57
		l-18.75,10.33l-1.94,3.189l0.65,6.36l3.88,8.75l3.24,2.39l31.68-3.989l10.99-3.181l1.939-2.38l10.351-3.189l4.53-3.181l2.58,2.391
		l-0.65,3.18l3.24,4.77h4.52l0.65-2.39l5.82-3.18l4.52,5.569l6.47-0.8l4.53,3.181h2.59l1.94-3.181l1.29,1.601h5.819v3.18
		l-4.529,3.979l5.17,5.57l-5.17,7.95l2.58,1.6l0.649,4.761l-1.939,2.39h-5.82l-3.88-3.18l-3.88,0.79v3.189l3.88,1.58l-1.29,5.57
		l-3.88,4.77l-2.59,7.95l-5.171,1.6l-1.289,3.98l-4.53,2.38l-0.641,6.37l5.171,0.8l5.819-3.189h3.88l1.29-3.181l3.88-0.8l1.94-2.38
		l10.35-2.39l1.94-3.98l4.53,1.601l-0.65,2.38h7.76l0.65-2.38l3.88,2.38l1.29-3.181l5.18,1.601l1.29-0.8v-6.37l3.88-1.58h8.41
		l1.29-2.391l4.521-0.79l1.3-7.159l7.12-5.57l5.819-1.58l5.17-3.98h12.28l0.65,3.98l-9.05-0.8v7.149l-4.521,7.96l1.29,8.75
		l-5.82,8.75l-2.59,10.33h1.94l1.29-5.569l3.88-5.561l1.939-1.59h5.17l5.17-6.36l2.591-0.8l3.88-9.54l3.239-0.8l1.94,2.39l5.18-0.8
		l9.061,7.15h8.399l2.591,4.77l3.87,2.38l-1.94,4.771l5.18,3.19l2.59,7.949l5.82-1.59l-1.939-1.58l0.649-7.16l5.17-0.8l3.88,7.96
		v12.721l2.591,0.789l1.289-3.97l2.591-0.79l1.3,7.15l3.88,4.77l23.28,4.771l0.64-2.391l10.351-4.77l5.81,3.979l9.7,2.391l1.3,1.58
		l-0.65,5.569l6.471,2.391l1.29,3.18h5.17l3.229,2.38l0,0l-1.78,7.311l-7.08,4.35l-3.189,6.09l5.31,1.74l1.771,17.85l-2.83,3.92
		h-14.87l-7.79,10.011l-11.68,0.439l-6.37-4.79l-6.37-2.18l-5.311,0.44l-1.77,6.09h-1.77l-9.91-10.88L772.75,480l-7.43,4.79
		l1.06,15.67l-1.42,10.88l-2.12,4.351L751.87,517l-10.271-3.92l-2.119,0.87l-8.141,10.44l-0.35,10.439l-2.48,0.44l-14.16-12.181
		l-26.199,2.17l-3.54,2.181L671.51,550.5l-0.35,6.09l2.479,2.61l1.421,6.53l7.439,9.14l0,0l-2.12,20.01l3.9,8.271l0.35,13.479
		l4.601,6.091v3.05l-14.16,12.609l-5.66,3.04l-4.6,0.87l-5.66-3.91l-10.271,0.44l-2.83,10l-4.6,6.52l-2.48,10.44l-10.619,11.74
		L628,684.48l-2.25,2.81l0,0l-7.75-0.8l-3.229-3.17l-7.761,0.8l-9.699-7.95l-3.24-6.35l-9.7-2.39l-7.12-8.74l-14.22-9.521
		l-4.53-10.33l-3.88-3.17l-1.29-4.77l-2.58-2.391l-6.47-0.779l-4.53-3.19l1.29-1.58h-1.939v-1.59l4.529-4.77l-15.52-0.801
		l-12.931-8.739l-1.939-6.351l-5.82-4.77l-6.47-8.74l2.58-15.89l-6.47-19.87l-7.11-4.771l-5.82-8.74v-5.56l3.88-3.97l0.65-4.771
		l-5.17-7.939v-5.561l13.58,3.181l15.52-0.801l-0.649-3.18l-3.88-0.8l-1.94-4.771l1.29-1.59l-0.65-3.18l-5.819-3.18l-0.65-3.971
		l-5.17-0.8l-1.94-10.34l1.94-14.3l2.59-3.19h6.46l4.521,0.8l5.819,7.95h2.59l0.65-2.38l1.94,0.8l-1.29-5.569l1.29-8.74l-9.7,0.8
		l-1.94-7.16l0.65-2.38l13.58,0.8l1.29-2.39h-4.521l-1.29-3.18v-4.771l4.53-2.38l-1.29-3.189l-10.35,1.59l-4.53-4.771l1.29-1.59
		l-1.29-1.58l-5.82-2.39l-12.29-1.58l-3.88-8.75l1.29-7.95l6.46-3.97h9.7v-8.75l4.521-3.19v-6.359l7.76-4.771v-2.39h-4.521
		l-2.58-2.38l1.29-6.37l-3.229-5.561h3.88l0.65-2.39l-8.4-3.98l-1.29-3.979l1.29-2.38h3.88l1.29-3.99l-2.59-3.98l-1.29-7.949
		l-16.811-0.801l-5.819,3.98h-7.12l-7.75-3.98l-3.24-6.359l3.88-3.98l1.29-7.17l3.24-6.36l4.52-3.98h7.12l6.46-11.94h3.24l0.641,1.6
		l2.59-0.8l1.29-5.56l-14.221-4.77l1.94-10.35l3.88-0.8l-0.65,3.98l-1.939,1.6l2.58,3.18l11.64-1.58l7.76,3.98h3.881l1.939-2.39
		l4.53-0.8l9.05,3.98l-1.94-3.98l1.29-2.38h7.761l4.52,3.98l1.94-13.53h7.12l1.939,0.8l1.29,4.78h5.811l2.59-7.17l10.35,0.8
		l0.65-1.58l-6.46-3.19l-0.65-7.95l3.24-3.18l8.399,3.18l-0.649-5.57L575.88,246.85z"/>
	<path id="MT_CE" fill="#1E3250" stroke="#1E3250" stroke-width="0.5" d="M859.09,440.92l4.53,0.8l3.88,5.561l-5.17,4.779
		l0.65,2.381l3.229-0.801l2.58,1.591l3.229-2.381l2.591,2.381l-3.88,3.18v5.57h2.59l-0.65,11.92l-5.82,0.8v2.39l2.591,0.78v3.189
		l3.88,3.181h3.229l2.59-1.601v-7.149l1.94-0.79l10.35,3.97l6.46,5.57l4.53,1.59l-0.65,7.95l5.82,2.38l2.59,7.16l9.051,3.17
		l0.649,3.18l-4.53,3.18h-4.529l-9.69-4.76l-0.649-2.39l-4.53-2.38h-6.46l-10.351,5.55l-1.29,4.77l13.58-1.58l8.4,3.181l-0.65,7.149
		l-5.17,3.181l-5.819-0.79l-1.29-2.391l-5.181-2.38h-6.46l4.53,6.351h3.229l1.94,2.39v7.15l-5.82,3.17v5.569l0,0l-2,9.94l0,0
		l-9.92,5.65l-6.01-3.04l-1.77-4.351l-9.561-1.74l-5.31,10.44l-2.83,0.44l-7.44,10l-2.12,0.439l-7.79-6.09l-16.64-4.35h-8.5
		l-13.45-6.971l-2.83,2.181l-2.479,10.88l-3.181,1.729l-10.63-1.729l-9.199,1.729l-5.66-1.3l-13.811,0.87l-19.47,11.75l-4.96-0.44
		l-13.1-5.22l-6.721,1.31l-11.33-3.92l0,0l-7.439-9.13l-1.41-6.529l-2.48-2.61l0.351-6.09l13.1-23.061l3.54-2.18l26.2-2.17
		l14.16,12.18l2.479-0.43l0.351-10.45l8.149-10.439l2.12-0.87l10.271,3.92l10.97-1.311l2.12-4.35l1.42-10.88l-1.061-15.67L772.7,480
		l12.75,1.3l9.91,10.88h1.77l1.771-6.09l5.31-0.439l6.37,2.18l6.37,4.79l11.689-0.44l7.79-10.01h14.86l2.84-3.91l-1.77-17.85
		l-5.311-1.74l3.181-6.09l7.079-4.36L859.09,440.92z"/>
	<path id="MT_SO" fill="#1E3250" stroke="#1E3250" stroke-width="0.5" d="M982.6,732.52l0.391-8.51l-4.96-5.649l-2.48-8.261
		l-12.03-12.609l-13.459-4.78l-1.771-6.52l-2.12-0.87l-1.06-6.521L932.72,661.4l-10.27-20.44l-13.811-5.21l-8.489-6.53l-6.73,0.87
		l-10.62,5.22l-2.479,3.48l-4.95,0.44l-2.84-10.881l-8.141-1.739l-4.25-5.65l-8.489-3.05l-5.311-4.78v-2.61l4.95-2.17l-9.91-9.14
		l1.42-4.78l9.2-13.489l8.14-5.221l8.15-0.87l5.31-6.09h3.891l1.77-1.74l2.48-6.96l-4.601-3.479l0,0l2-9.94l0,0l4.521-0.8l3.88-5.55
		h3.229l1.95-3.19h2.59l2.58-4.77h2.591l1.939-3.18l5.811-0.79l4.529-4.771l7.12,1.59l6.46-4.77h3.88l-2.58,16.689l-2.59,2.391
		h-5.819l-1.94,1.58l-4.53,5.569v3.17l-4.529,2.391l-4.521,11.12l-3.88,3.189l-5.82,1.58l-3.88,6.37l-5.82,1.58l1.94,4.77h3.88
		l3.88-3.979h1.94l1.939-4.771l9.7-1.579l5.17-3.181l3.891,2.391l1.93,5.56h1.939l1.95,7.15l0.641-4.771l-7.761-19.86l8.41,2.381
		l5.811,8.739h2.59l-2.59-10.33l-3.23-3.18l1.3-2.38l5.811,7.15l12.29,3.17v-1.58h-3.23l-5.18-7.94l3.24-4.77l4.52-0.8l-6.47-6.36
		l0.66-3.18l-1.95-5.561l1.95-1.59l5.81,3.18l1.94,4.771l1.95-2.391h5.17l4.529,3.19h3.23l3.88,3.97l6.46-0.8l3.23,2.38h3.88
		l13.579,15.11l9.7,2.37l5.83,9.54h3.23l3.229,3.18l0.65,6.36l7.76,0.8l7.75,4.76l14.23,18.271l3.88,1.59l3.88,9.54l7.109,5.56
		l-0.64,2.38h-7.12l-2.58,2.391l-7.77-1.591l-3.87,4.761h-7.76l-2.59,2.38v2.39h2.59l0.64-1.59l9.061-0.8l0.64-2.38l5.17-0.79
		l7.771,4.76l3.229,4.77l5.17,0.801v1.58l-7.76,5.56l-3.88,6.36l-5.17,0.79l-5.82,3.97l0.65,1.59h-4.53l-3.23,3.17l-0.649,4.771
		l3.24,3.189l2.58,1.58l11.64,0.79l-1.29,5.57h-1.95l-0.64,2.37h-2.59l-1.291,6.359h1.94l1.94,3.97l5.17,2.381l3.24,4.77v3.17
		l-7.771,3.98l-5.81-8.74l-8.41-1.59l-3.88,3.97l2.59,6.36h-5.82l-1.94,3.17l1.291,5.569l8.409,2.37l0.641,1.59l-4.521,7.15
		l0.641,4.76l3.88,4.771l-0.641,6.34l-1.939,0.8l-0.65,6.36l-5.17-0.8l5.17,3.97v3.17h-4.53l1.301,7.94h-5.17l-1.95-3.171
		l-0.64-7.149l-4.53-5.561l1.3-10.319l-3.24-2.38l-9.05-24.61l-3.88-3.97l-12.28-3.181l-0.649,2.38l2.58,7.94h2.59l-1.29,3.97
		l2.579,6.36l-3.879,7.14L982.6,732.52z"/>
	<path id="MT_SE" fill="#1E3250" stroke="#1E3250" stroke-width="0.5" d="M877.14,556.58l4.601,3.479l-2.48,6.96l-1.77,1.74H873.6
		l-5.31,6.09l-8.15,0.87L852,580.94l-9.2,13.489l-1.42,4.78l9.91,9.14l-4.95,2.17v2.61l5.311,4.78l8.489,3.05l4.25,5.65l8.141,1.739
		l2.84,10.881l4.95-0.44l2.479-3.48l10.62-5.22l6.73-0.87l8.489,6.53l13.811,5.21l10.27,20.44L945.11,678.8l1.06,6.521l2.12,0.87
		l1.771,6.52l13.459,4.78l12.03,12.609l2.48,8.261l4.96,5.649l-0.391,8.51l0,0l-2.59-0.789l-7.109-9.53l-9.7,2.37h-7.761l1.94,2.39
		l-2.59,3.97h5.17l1.95,9.53l-1.95,2.38l-10.34,0.8l3.229,9.521l1.94,0.8v4.771h2.59l1.3-3.19l5.811-2.38l12.279,13.5l5.83,0.79
		l-1.939-4.76l-3.891-3.181l-1.93-5.55h9.7l7.76,7.14l0.64,6.351l5.82-3.181h1.301v2.391l-2.591,0.8l-7.109,8.73l-4.53-5.561
		l-1.94,12.7l-8.409,5.56v2.38l-5.17,1.591l-3.23,3.17h-5.17l-4.53,3.97l-21.34-1.59l-2.59-1.58l-12.28,2.37l-10.99-2.37l-3.24-3.17
		l-5.81-0.8l-11-7.15h-2.59l-0.64-2.38h-4.53l-1.94-2.39l-6.46-0.78l-3.88-2.391l-12.93-0.789l-1.3,1.59h-5.82l-5.17-2.38
		l-1.94-3.181l-3.88,0.79l-0.649,2.391l-5.82-1.591l-0.64,2.381h-7.12V774.6h-2.58l-0.65-1.59l-4.53,0.79v-1.59h-4.52l-8.41-8.729
		l-12.29-0.79l-7.109-2.381l-0.641-1.579l-0.649,1.579l-2.591-0.8v2.391l-1.939,1.58h-7.11l-25.859-12.7h-3.24l-2.58,2.38
		l-10.351-10.32l-17.46-1.58l-7.109-2.39h-9.061l-7.76-3.97l-3.87-8.73v-5.56l-13.58-2.38l-10.989-4.771l-2.591,3.18l-3.229-4.77
		l-3.23-1.58l0.641-1.59l-7.761,0.79l-3.88-2.391l-3.229-11.109l-5.83-0.79l-5.17-7.94l0,0l2.25-2.81l0.359-6.96l10.62-11.74
		l2.471-10.44l4.609-6.52l2.83-10l10.26-0.44l5.671,3.92l4.6-0.869l5.66-3.051l14.17-12.609v-3.04l-4.61-6.09l-0.35-13.48
		l-3.891-8.27l2.12-20.011l0,0l11.33,3.92l6.721-1.31l13.1,5.22l4.96,0.44l19.47-11.75l13.811-0.87l5.66,1.3l9.199-1.729
		l10.63,1.729l3.181-1.729l2.479-10.88l2.83-2.181l13.45,6.971h8.5l16.64,4.35l7.79,6.09l2.12-0.439l7.44-10l2.83-0.44l5.31-10.44
		l9.561,1.74l1.77,4.351l6.01,3.04L877.14,556.58z"/>
	<path id="MT_GO" fill="#1E3250" stroke="#1E3250" stroke-width="0.5" d="M467.24,200.68l3.88,3.99v3.18l1.939,0.8v4.78l-4.52-4.78
		l-6.47,1.58l-4.53-4.78v-3.18L467.24,200.68z M510.57,185.57l3.229,3.98l-1.29,3.98l4.53,5.57h7.11l12.279,13.53l1.94,4.78
		l-3.88,5.56l-0.641,3.98l-7.76-0.79l-10.99,2.38l-0.649,1.6l-4.53-0.8l-1.29,1.6l-9.05-1.6l-2.59,1.6l1.939,0.79l-0.649,1.6
		l-14.87-0.8l-5.18,2.39h-5.17l6.47-8.75l5.819-3.98L486,219l-0.65-3.18l-3.88,1.6l-1.939-1.6l-0.65-3.98l-3.88-1.6l-3.23-7.96
		l1.94-3.18l-4.52-3.98l1.939-5.57l8.41,1.6l2.58-3.98h4.53l1.939,5.56l1.94-5.56h3.88l4.53,3.18l4.52,0.8l1.94,3.98v-8.76
		L510.57,185.57z M272.61,8l3.88,3.18h6.47l5.82,2.38l11.64-0.8l1.29,1.6h6.47v3.19l-2.59,0.8v2.4l3.24,2.38l12.93,1.6l1.29,5.57
		l-1.93,3.99l0.64,3.18h3.89l1.94-6.38l1.29,0.8l0.65-1.6h7.12l3.23,3.19h3.88l10.35,11.15l0.65,6.38l3.24,3.98l8.4,2.38l1.29,4.78
		l7.75,2.4l1.94,3.98l6.46-0.8l7.12-12.74l6.47-0.8l1.94,3.98h2.58l2.59,7.96l2.59,2.4l5.811,0.79l7.12,9.56l5.17-0.8l7.76-4.77
		l12.29,1.59l1.939,3.98l1.3,15.14l4.53,1.59l0.65,6.38h3.88l3.23-3.18l9.06,3.18l5.17,9.56l24.57,24.68l3.88,7.17l1.29,8.76
		l-5.17,4.77l-10.34,1.6l-4.521,5.58l-11,0.8l-5.82,7.16H456.94l-3.23-3.18l-5.17-0.8h-5.82v1.6l-5.17,0.79h-4.53l-3.88-3.18h-2.579
		l-2.591,3.18l-5.17-1.58l-1.3,4.78l5.17,0.79l-20.04,15.13h-5.819l-1.94-1.6l-3.23,1.6l-0.649,3.98l-4.53,1.6l-13.57-0.8
		l-1.94,4.78l-16.17-3.18l-5.82,5.56l-13.57,4.78l-5.17,4.78v2.39h-1.94l-6.47-7.97h-8.4l-5.82-11.14h-14.22l-3.24-2.39h-15.51
		l-2.58-2.38h-8.41l-2.58-3.18l-3.88,0.8l-3.88-1.6v-1.6l-8.4,1.6v1.6h-3.88l-1.29,2.38l-6.47-3.18l0.65-2.39l-5.17,1.6l-3.88-6.37
		h-2.59l-1.29-3.98l-8.4-8.76v-7.16l-7.76-7.16l-7.76,0.79l1.94-1.58l-5.82-3.19h-10.99l-2.59,3.19l-3.23-0.8l-5.82,1.6v-1.6
		l-1.94,0.8l-8.4-5.58l-3.23,0.8l-4.53-5.58v-4.78l7.12-7.96l-1.29-3.98l1.29-7.16l-3.24-9.56l0.65-2.39l3.88-0.8l0.65-3.18
		l-1.94-2.38h-2.58l-1.29-8.76l8.4-8.76l0.65-3.98l-2.59-11.95l-8.4-3.98h-5.17l-0.65-1.59l-1.94-22.3l2.59-8.76l7.12,1.59h12.93
		l1.94-1.59l10.99,0.8l5.17-3.98l3.88-7.18h7.76l8.4-3.98h9.05l11-2.38l3.23,3.18h4.52l3.24-6.38h3.88l6.47,3.98h5.82l1.94-4.77
		h6.47l1.94,1.59L272.61,8z"/>
</g>
</svg>
