<?xml version="1.0" encoding="utf-8"?>
<!-- Generator: Adobe Illustrator 15.0.0, SVG Export Plug-In . SVG Version: 6.00 Build 0)  -->
<!DOCTYPE svg PUBLIC "-//W3C//DTD SVG 1.1//EN" "http://www.w3.org/Graphics/SVG/1.1/DTD/svg11.dtd">
<svg version="1.1" id="Layer_1" xmlns:amcharts="http://amcharts.com/ammap"
	 xmlns="http://www.w3.org/2000/svg" xmlns:xlink="http://www.w3.org/1999/xlink" x="0px" y="0px" width="238.605px"
	 height="286.096px" viewBox="0 0 238.605 286.096" enable-background="new 0 0 238.605 286.096" xml:space="preserve">
<defs>
	
	
		<amcharts:ammap  projection="mercator" leftLongitude="26.648880" topLatitude="48.495637" rightLongitude="30.175684" bottomLatitude="45.461826">
		</amcharts:ammap>
</defs>
<g>
	<path id="MD-AN" fill="#1E3250" stroke="#1E3250" stroke-width="0.5" d="M150.27,156.788l0.101-0.317l0,0l-0.166-7.178
		l-1.169-1.671l-2.311,1.087l0,0l0,0l0,0l0,0l0,0l0.669-3.146l-0.503-0.999l-3.784-2.729l0.278-2.448l1.168-1.501l0,0l-0.277-1.11
		l1.613-1.312l4.175-0.056l0,0l1.783,3.506l1.668-1.335l0,0l2.115-2.785l3.451-0.666l-0.111-4.12l1.945-1.779l0.614-2.06l0,0h0.669
		l0,0l3.95,3.477l0.781,2.004l-1.113,3.617l0.666,1.279l0,0l-0.389,0.669l0,0l-3.339-0.669l-0.222,2.005l0,0l1.894,2.115
		l2.167,0.891l3.564-1.949l0,0l2.67,1.616l0,0l-0.167,1.168l0,0l-0.725,1.113l0.333,1.224l0,0l0.78,1.834l0,0l-0.555,1.113
		l-0.336-0.947l0,0l-0.832-1.501l0,0l-3.007-0.277l-0.277,0.555l0,0l-0.336,0.78l0,0l-0.5,2.171l0,0l1.224,2.06l0,0l0.725,1.89l0,0
		l-5.732-0.167l-2.448,2.116l-2.171,0.555l-1.616,1.616l0.392,3.95l0,0l-2.618-0.777l0,0l-0.5-0.891l0,0l-1.446-1.727
		L150.27,156.788z"/>
	<path id="MD-BA" fill="#1E3250" stroke="#1E3250" stroke-width="0.5" d="M76.449,71.466l0.013-0.02l0,0l0.408-0.47l0,0l-0.02-0.167
		l0,0l4.215,0.983l-0.689-1.848l1.159-1.315l1.877-0.095l0,0l0.176-0.281l0,0l0.578,1.25l2.533,1.443l2.504-2.285l1.534,2.034
		l0.065,1.502l-1.253,1.159l1.188,1.064l-0.248,1.254l-2.442-0.784l-3.79,1.002l0,0l-0.562,0.248l0,0l-3.382-0.029l0.783-2.004
		l-4.413-1.534L76.449,71.466z"/>
	<path id="MD-BD" fill="#1E3250" stroke="#1E3250" stroke-width="0.5" d="M173.342,151.819l-0.512,0.836l-3.787-0.604l0,0
		l-0.613-1.534l0,0l-1.224-2.06l0,0l0.5-2.171l0,0l0.336-0.78l0,0l0.277-0.555l3.007,0.277l0,0l0.832,1.501l0,0l0.336,0.947l0,0
		l0.617,4.084l0,0L173.342,151.819z"/>
	<path id="MD-BR" fill="#1E3250" stroke="#1E3250" stroke-width="0.5" d="M41.429,20.819l3.313,1.224l0,0l-1.028,2.814l3.284,2.282
		l0,0l0.356,1.071l0,0l-0.784,2.569l0.712,1.642l-1.143,1.071l-1.355-0.215l-0.643,1.286l-3.424-1.499l0.215-2.641l-2.069,0.284
		l-1.57,1.642l-0.284,5.494l-3.153,3.711l0,0l-1.237,0.829l-1.005-0.477l-1.188-1.296l2.115-0.891l-2.262-0.705l-0.408-2.19
		l-1.377-0.513l0.078,1.143l-1.093,0.457l-0.614-2.311l-4.342-3.451l-2.448-0.966l-1.534,1.159l-0.284-1.492l-1.668,1.264
		l-0.372-1.338l-1.038,1.782l-0.78-1.224l-1.511-0.33l-0.604-1.861l1.41-2.076l1.485-0.222v-2.523l0.888-0.483l2.709,3.748
		l2.376-0.036l0.187-2.932l-1.45-3.748l3.229-0.297l0.78-2.226l5.974,4.488l2.709-1.521l1.521,1.188l0.63-0.297l-0.669-3.636
		l0.855-0.559L41.429,20.819z"/>
	<path id="MD-BS" fill="#1E3250" stroke="#1E3250" stroke-width="0.5" d="M133.452,183.128l-0.389-1.779l3.506-1.782l3.783-3.839
		l3.229,0.555l1.697,2.951l1.28,0.388l0,0l-0.643,1.201l-4.172,1.58l0.78,4.175l2.115,4.453l-0.555,2.543l-1.893,1.688l0.457,1.309
		l0,0l-3.63-0.92l-2.004-1.727l-1.724,0.669l-0.447,1.058l-5.788,0.222l-1.002-3.562h3.006l5.289-1.446l1.335-2.227l-0.336-1.168
		l-2.615-1.727l-1.326-1.998l0,0L133.452,183.128z"/>
	<path id="MD-CA" fill="#1E3250" stroke="#1E3250" stroke-width="0.5" d="M119.131,250.587v0.835l0,0l-5.132,1.329l-0.61-5.732
		l2.896-1.224l0,0l1.361,0.845L119.131,250.587z M116.059,208.757l-0.056,4.064l0,0h0.023l0,0l-3.196,1.28l-0.947,4.619l0.614,5.898
		l2.004,2.448l0,0l-0.669,0.892l0,0l-0.388,0.333l0,0l-0.5-0.055l0,0l-3.395,0.333l0.669,3.562l0.614,0.78l2.896,0.558l1.727,2.337
		l0.891-1.058l0.891,0.669v1.724l1.613,1.893l-0.947,2.135l0,0l-1.224,0.118l0,0l-3.617,0.388l0,0l-6.846-2.504l-0.388,5.455
		l0.78,1.671l0,0v3.173l0,0l-1.501,1.783l0.835,2.17l0,0l0.5,0.725l0,0l-0.725,1.113l0,0l-0.669,0.5l0,0l-3.366,3.812l-0.222,2.227
		l-1.247-0.359l-1.162-2.165l0.045-3.02l-1.162-0.79l0.046-1.763l-1.998-0.277l-2.507-2.229l2.184-2.739l1.949-0.14l0.79-0.836
		l-0.417-1.998l0.79-1.625l-1.44-5.109l0.232-2.043l-1.113-0.604l-1.345-3.598l-0.327-10.635l-1.857-4.318l0.278-4.828l1.008-2.037
		l0,0l3.104-0.81l0,0l4.286,0.947l2.504-0.611l0,0l0.836,0.947l0,0l1.949,1.446l3.173-0.669l0,0l1.838,0.444l0,0l0.558-2.726
		l2.282-0.891l0,0l0.604-0.392l0,0L116.059,208.757z"/>
	<path id="MD-CL" fill="#1E3250" stroke="#1E3250" stroke-width="0.5" d="M117.035,101.45l0.137,5.073l2.785,1.002l0.611,0.666
		l-0.444,0.503l0,0l-0.835,0.444l0,0l-0.61,1.838l-2.171,0.444l-1.28,1.783l-2.785,1.168l-0.222,0.61l1.837,0.614l0.722,2.448
		l-0.555,2.227l-1.727,0.167l-1.058,1.557l-3.95,1.894l-3.898-0.163l0,0l0.17-0.225l0,0l-3.676-1.671l-1.946-0.056l-1.501-1.668
		l-3.062-0.836l-0.614-1.782l-2.057-1.315l0,0l2.393-2.523l2.057-3.895l4.175-3.45l0.333-4.286l0.271-0.728l1.094,0.225l0,0
		l8.069,1.782l6.846-1.557l0,0L117.035,101.45z"/>
	<path id="MD-CM" fill="#1E3250" stroke="#1E3250" stroke-width="0.5" d="M127.357,157.173l3.702,0.688l2.337,3.34l1.335-0.056
		l1.168-3.45l1.616-1.113l2.726,1.779l0.669,1.727l-0.447,2.227l0,0l0.193-0.007l0,0l1.756,4.903l0,0l0.555,1.671h1.561l0,0
		l3.059-1.782l0,0l1.058,1.057l-0.722,8.125l0,0l0.444,0.888l0,0l-0.829,0.098l-0.979,2.354l0,0l-1.28-0.388l-1.697-2.951
		l-3.229-0.555l-3.783,3.839l-3.506,1.782l0.389,1.779l0,0l-0.056,0.725l0,0h-2.448l-7.123-2.504l-2.06-1.56l-1.949,0.835
		l-2.367-1.279l0,0l0.418-0.278l0,0l1.949-2.452l-0.167-2.448l1.335-2.559l-0.725-7.514l0,0h0.336l0,0h0.946l0.944-1.225
		l-0.167-2.504l0.947-2.337l1.113-0.111l0.447,1.113l0.777-0.056l1.168-1.335l0,0L127.357,157.173z"/>
	<path id="MD-CR" fill="#1E3250" stroke="#1E3250" stroke-width="0.5" d="M159.469,129.06l-0.388,5.066l-3.451,0.669l-2.115,2.781
		l0,0l-1.668,1.335l-1.779-3.506l0,0l-3.006-0.222l-3.617,1.642l-0.666-1.113l0.444-2.171l3.173-0.947l3.894,0.333l1.058-1.557
		l-0.359-1.25l0,0l5.589-6.209l2.507-1.136l0,0l1.668,0.444l1.727,2.393l0,0l-0.277,0.558l0,0h-0.672l0,0l-0.61,2.06L159.469,129.06
		z M145.001,111.608l1.391,2.399l2.004,0.725l-0.5,1.668l3.784,0.669l3.617-1.436l0,0v0.016l0,0l3.062,1.893l0,0l-3.075,1.655
		l-1.045,2.768l-1.446,1.782l-2.227,0.5l-2.171,3.784l0,0l-0.555,0.167l0,0l-0.555,0.333l0,0l-4.397,1.058l0,0l-3.062-0.669l0,0
		l-1.057-3.95l-2.726,0.5l-0.388,2.004l-0.669,0.166l-0.61-1.168l-3.362-1.058l1.75-1.335l0.222-1.391l0,0l-0.646-1.24l0,0
		l0.869-6.33l0,0l4.619-0.555l0,0l3.118-1.612l0,0l1.502-0.669l0,0L145.001,111.608z"/>
	<path id="MD-CS" fill="#1E3250" stroke="#1E3250" stroke-width="0.5" d="M169.043,152.051l3.787,0.604l0.512-0.836l0,0l0.216,0.052
		l0,0l1.9,1.9l2.458,0.225l0.725-0.225l0.839-3.464l1.397,0.614l0.111,1.061l2.402-0.111l0.167,2.739l1.9,4.133l-2.216,4.27l0,0
		l-0.187,0.033l0,0l-0.558,1.733l-1.73,0.392l-1.064,1.341l-2.906,0.055l-2.625,2.289l-1.899-0.725l-3.131,2.458l1.567,1.675
		l-2.794,1.678l0.167,1.508l2.631,3.003l0,0l-2.314,2.174l-0.558,3.075l-1.022,0.261l-1.838-4.397l-1.501-0.392l-1.28,1.949
		l0.493,4.051l-2.422,0.271l-1.802,3.137h-1.557l-0.78-0.892l1.782-4.005l0.388-9.353l-0.946-1.224l-1.834,0.226l-1.538,3.163
		l-5.615,0.672l0,0l-0.444-0.888l0,0l0.722-8.125l-1.058-1.057l0,0l-3.059,1.782l0,0h-1.561l-0.555-1.671l0,0l-1.756-4.903l0,0
		l3.147,0.229l0.946-0.947l0,0l3.784-2.337l1.56-1.89l0,0l1.361-0.892l3.007,2.337l0,0l0.5,0.891l0,0l2.618,0.777l0,0l-0.392-3.95
		l1.616-1.616l2.171-0.555l2.448-2.116l5.732,0.167l0,0L169.043,152.051z"/>
	<path id="MD-CT" fill="#1E3250" stroke="#1E3250" stroke-width="0.5" d="M94.201,210.68l1.629-6.415l-1.57-4.355l1.117-0.94
		l-0.141-1.567l2.856-1.808l1.253-2.092l-1.253-2.716l2.51-4.89l0,0l5.246-0.153l1.727,1.671l2.781,0.61l1.113-1.168l-0.333-1.613
		l2.504-1.002l0.61,1.501l-0.888,1.838l3.003,2.227l0,0h0.16l0,0l-1.022,3.532l3.451,2.06v3.284l-0.891,3.894l-2.56-0.5
		l-1.446,1.335l1.169,4.896l0,0l0.101,0.055l0,0l-0.604,0.392l0,0l-2.282,0.891l-0.555,2.726l0,0l-1.838-0.444l0,0l-3.173,0.666
		l-1.945-1.446l0,0l-0.836-0.946l0,0l-2.503,0.613l-4.286-0.946l0,0L94.201,210.68z"/>
	<path id="MD-CU" fill="#1E3250" stroke="#1E3250" stroke-width="0.5" d="M148.308,128.058L148.308,128.058l-0.47,0.141l0,0
		l-0.555,0.333l0,0l-4.397,1.058l0,0l-3.062-0.666l0,0l-1.058-3.953l-2.726,0.502l-0.389,2.004l-0.669,0.167l-0.613-1.169
		l-2.615-1.058h-0.748l-0.199,1.446l0,0l-0.666,1.391l-3.118,0.558l-1.782,1.168l-0.666,1.946l0.722,1.616l0,0l-0.036,0.062l0,0
		l4.88,4.139l0.333,1.668l5.119,2.282l0.613,3.897l1.391,1.893l2.729,0.167l4.841,2.559l1.335-0.333l0.222-1.169l0,0l0.669-3.146
		l-0.503-0.999l-3.784-2.729l0.278-2.448l1.168-1.501l0,0l-0.277-1.113l-1.391-0.111l0.333-3.118l3.173-0.947l3.895,0.333
		l1.058-1.557l0.056-0.836l-2.781-2.226L148.308,128.058z"/>
	<path id="MD-DO" fill="#1E3250" stroke="#1E3250" stroke-width="0.5" d="M58.541,36.221l1.087-3.085l-0.359-2.928l2.213-2.781
		l-0.072-2.354l5.922-0.359l3.496-2.21l4.782,2.138l2.997-3.565l4.064-0.281l0,0l0.872,2.967l0,0L80.709,26l-0.356,1.283
		l4.283,2.713l-1.857,2.07l-2.141,0.568l0,0l-1.427,0.643l0,0l-4.851,2.712l-2.354,5.422l-4.211,2.997l3.424,3.78l-0.855,1.358
		H69.15l0,0h-0.568l0,0l-0.571-1.143l-2.425,0.284l-3.897-2.138l0,0l0.006-0.144l0,0l-0.927-0.855l0.072-6.493l-2.141-1.786l0,0
		L58.541,36.221z"/>
	<path id="MD-DR" fill="#1E3250" stroke="#1E3250" stroke-width="0.5" d="M89.663,53.754l1.466,3.891l-1.286,3.353l0,0v0.711l0,0
		l-2.354,4.427l-1.358-1.499l-2.282,1.998l0,0l-0.783,0.855l0,0l-0.859-1.071l-4.351,0.216l-5.351-6.281l-3.783-0.855l-1.283-1.143
		l-0.999-4.995l2.069-1.426l0.428-2.39l0,0h0.212l0,0h1.214l0.855-1.358l-3.424-3.78l4.211-2.997l2.354-5.422l4.851-2.712l0,0
		l0.917-0.412l0,0l2.079,3.408l3.924,0.359l4.854,4.779l2.21,3.496l-1.355,4.139h-1.642l-1.854,2.282l1.071,2.426l0,0H89.663z"/>
	<path id="MD-DU" fill="#1E3250" stroke="#1E3250" stroke-width="0.5" d="M159.081,122.773l-2.507,1.136l-5.588,6.209l0,0
		l-2.367-1.809l0,0l-0.307-0.251l0,0l0.085-0.026l0,0l2.171-3.784l2.227-0.5l1.446-1.782l1.045-2.768l3.075-1.655l0,0l2.337-0.277
		l3.784-2.837l1.058,0.167l-1.002,1.949l-1.724,0.725l-1.113,2.448l-2.67,1.838L159.081,122.773z M155.353,107.913l6.845-1.612
		l2.06-1.665l0.431,1.064l0,0l-8.167,4.498l-1.224,2.004l0.056,2.171l0,0l-0.056,1.263l0,0l-3.617,1.437l-3.784-0.666l0.5-1.668
		l-2.004-0.725l-1.391-2.4l0,0l1.783-0.884l0.333-1.28l-1.724-2.892l0.167-1.113h2.226l0.055-1.168l0,0l1.668-1.28l0,0l1.038-0.333
		l1.577,1.143L155.353,107.913z"/>
	<path id="MD-ED" fill="#1E3250" stroke="#1E3250" stroke-width="0.5" d="M47.04,27.273l1.24-2.915l4.352-1.57l-0.568,5.21
		l0.783,3.068l3.496,3.78l2.142,0.999l0,0l0.212,1.427l0,0l2.141,1.786l-0.072,6.493l0.927,0.855l0,0l-0.072,1.214l0,0l-4.851,4.136
		l-3.14-0.5l-0.784,1.714l-0.999,0.284l-1.926-1.499l-1.786,0.072l-1.498,0.999l-0.999,3.852L44.5,58.037l-1.858,0.5l0,0
		l-1.537-1.958l0.748-2.089l-1.946-0.784l0.61-1.185l-2.627-0.13l0.773-2.096l-1.776-0.313l-0.242-1.351l-2.011-1.518l0.206-4.348
		l-0.986-1.208l0,0l3.153-3.711l0.284-5.494l1.57-1.642l2.069-0.284l-0.215,2.641l3.424,1.499l0.643-1.286l1.355,0.215l1.143-1.071
		l-0.712-1.642l0.784-2.569l0,0L47.04,27.273z"/>
	<path id="MD-FA" fill="#1E3250" stroke="#1E3250" stroke-width="0.5" d="M66.075,106.934l-1.671-0.688l1.126-2.739l-1.341-1.126
		l0.858-3.169l-1.933-1.877l-0.966,0.535l-3.114-1.825l-2.448-6.849l0,0l6.01-4.662l3.79,0.718l4.129-7.89l2.285,1.377l1.315-0.624
		l1.472-2.536l0.47-3.568l0,0l0.392-0.545l0,0l0.235,1.106l4.413,1.534l-0.783,2.004l3.382,0.029l0,0l0.294-0.13l0,0l0.989,1.518
		l-1.391,1.779l0.333,0.946l4.175,5.174l-2.562,1.394l-0.389,3.169l-2.781,2.004l0.389,1.224h4.175l-0.725,3.672l-1.727,0.503l0,0
		l-2.448-0.447l-1.391,4.12l-5.899,0.111l-4.397,2.115l-2.115,3.284L66.075,106.934z"/>
	<path id="MD-FL" fill="#1E3250" stroke="#1E3250" stroke-width="0.5" d="M90.558,53.754l6.493,0.072l4.067,1.214l3.637-1.926
		l2.497,1.139l5.494,0.288l1.926-2.357l4.067-2.781l0.427-1.143l-2.487-2.076l0,0l1.097-3.875l1.234-0.287l1.668,0.555l0.946,1.783
		l3.173,0.333l0.78,1.446l-1.782,1.169l-1.168-0.777l-0.333,1.613l-3.118,2.559l0.222,0.725l2.282,1.446l1.949-2.781l1.668,0.222
		l1.782,0.836l3.173,3.95l0,0l-0.946,0.836l-0.167,1.834l-2.115,1.671V62l-2.836,0.891l-0.392,2.06l-2.115,0.055l0.392-2.004
		l-2.282-1.616l-5.399,2.396l-0.725,2.837l-1.224,0.725v2.001l2.393-0.444l1.338,0.669l1.89,6.454l0,0l-0.78,0.725l0,0l-1.557,0.836
		l-0.61,1.668l-2.84-1.002l-1.521,1.29l0,0l-0.565-0.564l0,0l-10.407-7.737l-9.94-9.584l0,0v-0.656l0,0l1.286-3.353l-1.466-3.891
		l0,0H90.558z"/>
	<path id="MD-GA" fill="#1E3250" stroke="#1E3250" stroke-width="0.5" d="M109.158,240.784l3.897,0.891l0,0l3.617-0.388l0,0
		l0.741,0.032l-1.129,4.479l0,0l-2.896,1.224l0.614,5.733l5.132-1.329l0,0l-2.184,1.531l1.031,3.666l-3.006,1.446l-9.934-1.662
		v-0.646l0,0l0.669-0.5l0,0l0.725-1.113l0,0l-0.5-0.725l0,0l-0.835-2.171l1.501-1.779l0,0V246.3l0,0l-0.78-1.668l-0.056-5.008
		l1.224-0.499L109.158,240.784z M130.576,228.18l0.594,2.7l-4.439,2.651l0,0l-0.653-0.454l-3.617,1.558l0,0l-1.28,0.222
		l-3.062-3.117l0,0l0.167-1.28l0,0l7.515-1.724l0,0L130.576,228.18z M116.229,228.18l-0.333,1.335l0,0l-0.725,0.559l0,0
		l-1.612,0.277l-0.669-1.501l0.559-0.555l0,0l0.388-0.333l0,0l1.113-0.61L116.229,228.18z M117.45,179.345l2.37,1.279l1.949-0.835
		l2.06,1.557l7.123,2.504h2.448l0,0l0.01-0.104l0,0l1.329,1.998l2.615,1.727l0.333,1.168l-1.335,2.227l-5.289,1.446h-3.006
		l1.002,3.562l5.788-0.222l0.444-1.058l1.727-0.669l2.004,1.727l3.63,0.92l0,0l0.183,1.005l2.256,1.538l0,0l-3.982,3.911l0,0
		l-1.28,2.171l0.111,1.613l0,0l0.78,3.45l-1.391,0.5l0,0l-2.726,2.004l-0.333,2.448l0,0l1.557,0.222l0.389,2.004l0,0l0.274,2.027
		l-5.229,1.123l-2.334-4.315l0,0l-0.669-0.892l0,0l-1.446-0.61l-1.612,0.669l0,0l-0.333,1.113l0,0l1.501,4.397l-0.5,0.891
		l-3.395,0.167l-3.45,2.448l-1.224,0.056l-3.062-1.949l-0.222-1.612l0.835-0.277l0,0l2.004,0.055l0.333-0.78l0,0l-0.61-1.335l0,0
		l-2.892-0.891l1.446-1.335l0.78-2.337l-0.669-1.724l-1.28,0.5l0,0h-0.444l0,0l0.111-1.224l0,0l0,0l0,0l-0.055-2.837l0,0
		l-0.836-0.444l0,0l-1.168-4.896l1.446-1.335l2.56,0.499l0.891-3.895v-3.284l-3.451-2.06l1.022-3.535l0,0h0.787l0,0l2.67-0.947
		l0.333-1.168l-0.5-2.282l-2.837-3.284l0.222-2.615l0,0L117.45,179.345z"/>
	<path id="MD-GL" fill="#1E3250" stroke="#1E3250" stroke-width="0.5" d="M56.585,89.195l-1.848-0.885l-1.449-3.059l-3.705-3.274
		l0.052-1.182l-2.2-2.794l1.933-1.449l-0.013-2.882l0,0l2.847-3.976l0.532-2.161l2.817,0.66l4.042-2.85l8.232,2.631l5.696-1.91
		l3.288,4.38l0,0l0.062,0.532l0,0l-0.408,0.47l0,0l-0.405,0.564l0,0l-0.47,3.568l-1.472,2.536l-1.315,0.624l-2.285-1.377
		l-4.129,7.89l-3.79-0.718L56.585,89.195z"/>
	<path id="MD-HI" fill="#1E3250" stroke="#1E3250" stroke-width="0.5" d="M105.708,130.813l1.45,0.059l2.393,1.779l1.668-1.002
		l1.335,0.614l1.671-1.058l0.835,0.61l0,0l1.325,0.278l0,0l3.542,9.685l1.113,0.111l3.731,4.508l2.448-0.5l2.171,3.617l0.222,1.446
		l-1.449,1.782l0.835,2.837l-1.391,1.391l0,0l-0.836,0.669l0,0l-1.168,1.335l-0.777,0.056l-0.447-1.113l-1.113,0.111l-0.947,2.337
		l0.167,2.504l-0.944,1.225h-0.946l0,0h-2.116l0,0l-3.339,0.225l-3.395-2.951l-3.284,1.727l0.891,2.001l-0.78,4.175l-2.504,0.056
		l-2.282-2.837l-2.487,0.669l0,0l-3.17-8.135l-0.535-4.081l-2.794-4.241l-1.074-5.96l0,0l1.022-0.806l0,0l0.385-1.186l0,0
		l2.337,1.616l0.835-0.78l3.672,0.222l-0.333-6.232l3.839-1.391l0.166-5.288l0,0L105.708,130.813z"/>
	<path id="MD-IA" fill="#1E3250" stroke="#1E3250" stroke-width="0.5" d="M146.725,148.708l2.311-1.087l1.169,1.671l0.166,7.178l0,0
		l-0.277,0.892l0,0l-1.56,1.89l-3.784,2.337l0,0l-0.946,0.947l-3.34-0.222l0,0l0.447-2.227l-0.669-1.727l-2.726-1.779l-1.616,1.113
		l-1.168,3.45l-1.335,0.056l-2.337-3.34l-3.702-0.688l0,0l0.251-0.202l0,0l1.391-1.391l-0.835-2.837l1.449-1.782l-0.222-1.446
		l-2.171-3.617l-2.448,0.5l-3.731-4.508l-1.113-0.111l-3.542-9.685l0,0l0.01,0.003l0,0l1.113-0.669l0.555,1.727l4.064,3.839
		l1.169-0.333v-2.396l1.668-0.167l0,0l0.297-0.493l0,0l4.88,4.139l0.333,1.668l5.119,2.282l0.613,3.897l1.391,1.893l2.729,0.167
		l4.841,2.559l1.335-0.333L146.725,148.708z"/>
	<path id="MD-LE" fill="#1E3250" stroke="#1E3250" stroke-width="0.5" d="M100.602,185.896l1.234-2.468l-0.323-3.222l-2.148-3.652
		l1.182-2.36l0.754-7.035l0,0l2.487-0.669l2.282,2.837l2.504-0.056l0.78-4.175l-0.891-2.001l3.284-1.727l3.395,2.951l3.339-0.225
		l0,0h1.779l0,0l0.725,7.514l-1.335,2.559l0.167,2.448l-1.949,2.452l0,0l-0.666,0.444l0,0l-0.222,2.615l2.837,3.284l0.502,2.281
		l-0.336,1.169l-2.67,0.947l0,0h-0.947l0,0l-3.003-2.227l0.888-1.838l-0.61-1.501l-2.504,1.002l0.333,1.613l-1.113,1.168
		l-2.781-0.61l-1.727-1.671L100.602,185.896z"/>
	<path id="MD-NI" fill="#1E3250" stroke="#1E3250" stroke-width="0.5" d="M90.907,116.169l2.057,1.315l0.614,1.782l3.062,0.836
		l1.501,1.668l1.946,0.056l3.676,1.671l0,0l-0.336,0.444l0,0l-0.444,1.894l-1.391-0.056l0.111,0.777l3.672,2.337l0.725,1.335l0,0
		l-0.447,0.669l0,0l-0.166,5.288l-3.839,1.391l0.333,6.232l-3.672-0.222l-0.835,0.78l-2.337-1.616l0,0l-0.385,1.186l0,0
		l-1.022,0.806l0,0l-0.858-6.712l-1.623-1.697l0.105-2.654l-1.224-2.056l-4.009-3.062l-0.611-1.838l-0.222-2.393l1.89-2.726
		l-0.444-3.339L90.907,116.169z"/>
	<path id="MD-OC" fill="#1E3250" stroke="#1E3250" stroke-width="0.5" d="M64.452,13.746l0.147,0.705l5.194,2.041l2.84-1.857
		l3.927,0.486l4.69,3.362l1.42,2.314l0,0l-4.064,0.281l-2.997,3.565l-4.782-2.138l-3.496,2.21l-5.922,0.359l0.072,2.354
		l-2.213,2.781l0.359,2.928l-1.087,3.085l0,0l-0.056-0.375l0,0l-2.142-0.999l-3.496-3.78l-0.783-3.068l0.568-5.21l-4.352,1.57
		l-1.24,2.915l0,0l-0.042-0.134l0,0l-3.284-2.282l1.028-2.814l0,0l1.9-0.653l1.965-4.453l2.559-2.337l3.007,0.408l1.41,1.707
		l3.415-2.82l2.781-0.633l1.188-2.151L63.747,11l1.482,1.038L64.452,13.746z"/>
	<path id="MD-OR" fill="#1E3250" stroke="#1E3250" stroke-width="0.5" d="M150.547,102.654l-1.038,0.333l0,0l-1.671,1.279l0,0
		l-0.056,1.169l-2.448,0.558l1.779,3.451l-0.333,1.28l-4.341,1.557l0,0l-1.501,0.669l0,0l-3.118,1.612l0,0l-4.619,0.559l0,0
		l-0.888,6.342l0,0l-3.006-0.943l-0.947-3.007h-1.002l-1.89-3.284l-1.616-1.224l-0.61-3.062l-2.507,0.167l-1.279-1.061l0,0
		l0.669-0.356l0,0l0.444-0.503l-0.611-0.666l-2.785-1.002l-0.137-5.073l0,0l0.5-0.16l0,0l1.893-1.279l-0.447-2.449l1.283-1.893
		l4.283-2.892l3.617-1.058l-0.722-3.395l1.058-2.171l0,0l0.192-0.167l0,0l3.506,4.005l1.838,1.002l2.559-0.333l3.506-2.67
		l3.506,2.836l-0.166,2.282l2.562,0.333l0,0l1.89,2.227l2.005-0.277l2.503,2.836l-2.06,3.509L150.547,102.654z"/>
	<path id="MD-RE" fill="#1E3250" stroke="#1E3250" stroke-width="0.5" d="M123.671,78.713l0.516-0.464l0,0l2.278-2.836l5.788,0.61
		l-0.61-3.506l0.555-0.891l3.897-0.389l3.395-3.173l2.171-4.283l0,0l2.004-0.281l1.668,2.116l-0.835,6.679l0.222,14.915l2.004,1.782
		v4.505l-0.722-0.056l0,0l-2.562-0.333l0.166-2.282l-3.506-2.836l-3.506,2.67l-2.559,0.333l-1.838-1.002l-3.506-4.005l0,0
		l-0.277-0.614l0,0l-5.954-4.563L123.671,78.713z"/>
	<path id="MD-RI" fill="#1E3250" stroke="#1E3250" stroke-width="0.5" d="M48.992,74.411l-2.739-2.931l-1.126-2.471l1.342-0.483
		l-0.323-1.286l-1.665-0.591l0.591-0.966l-0.803-1.557l0.428-2.041l-3.598-1.505l1.544-2.043l0,0l1.858-0.5l1.139-1.358l0.999-3.852
		l1.498-0.999l1.786-0.072l1.926,1.499l0.999-0.284l0.784-1.714l3.14,0.5l4.851-4.136l0,0l0.065-1.071l0,0l3.897,2.138l2.425-0.284
		l0.571,1.143l0,0h0.356l0,0l-0.428,2.39l-2.069,1.426l0.999,4.995l1.283,1.143l3.783,0.855l5.351,6.281l4.351-0.216l0.859,1.071
		l0,0l0.059-0.065l0,0l0.539,0.702l0,0l-0.251,0.408l0,0l-1.877,0.095l-1.159,1.315l0.689,1.848L76.85,70.81l0,0l-0.042-0.366l0,0
		l-3.288-4.38l-5.696,1.91l-8.232-2.631l-4.042,2.85l-2.817-0.66l-0.532,2.161l-2.847,3.976l0,0L48.992,74.411z"/>
	<path id="MD-SD" fill="#1E3250" stroke="#1E3250" stroke-width="0.5" d="M117.89,76.184l0.173-0.16l0,0l-1.89-6.454l-1.338-0.669
		l-2.393,0.444v-2.001l1.224-0.725l0.725-2.837l5.399-2.396l2.282,1.616l-0.392,2.004l2.115-0.055l0.392-2.06L127.024,62V59.44
		l2.115-1.671l0.167-1.834l0.946-0.836l0,0l3.229,0.111l2.337,3.953l-0.167,2.282l4.172,0.721l1.838,1.616l0,0l-2.171,4.283
		l-3.395,3.173l-3.897,0.389l-0.555,0.891l0.61,3.506l-5.788-0.61l-2.278,2.836l0,0l-0.559,0.503l0,0l-2.615-2.282L117.89,76.184z"
		/>
	<path id="MD-SI" fill="#1E3250" stroke="#1E3250" stroke-width="0.5" d="M84.293,97.314l0.183,0.082l0,0l1.727-0.503l0.725-3.672
		h-4.175l-0.389-1.224l2.781-2.004l0.389-3.169l2.562-1.394l-4.175-5.174l-0.333-0.946l1.391-1.779L83.99,76.01l0,0l0.268-0.118l0,0
		l3.79-1.002l2.442,0.784l0.248-1.254l-1.188-1.064l1.253-1.159l-0.065-1.502l-1.534-2.034l-2.504,2.285l-2.533-1.443l-0.578-1.25
		l0,0l0.075-0.127l0,0l-0.539-0.702l0,0l0.725-0.79l0,0l2.282-1.998l1.358,1.499l2.354-4.427l0,0v-0.056l0,0l9.94,9.584
		l10.407,7.737l0,0l0.836,0.835l0,0l0.388,5.618l-1.671,1.505l0.559,3.894l-1.502,0.614l-2.673-1.224l-5.174,0.056l-1.335-1.058
		L98,89.992l-1.224,1.838l1.279,6.121l-0.601,1.724l0,0l-4.684-0.833l-1.394,1.335l-3.059-2.115l-3.451,0.78L84.293,97.314z"/>
	<path id="MD-SN" fill="#1E3250" stroke="#1E3250" stroke-width="0.5" d="M166.974,104.58l0.78,2.037l-0.78,0.858l0.744,3.366
		l2.188,0.604l2.817-0.564l-0.068-4.519l3.562-1.077l0.816,0.15l0.594,1.446l1.002,7.459l-2.337,1.149l1.27,9.317l-4.397,0.333
		l2.902,4.6l1.188-1.632l2.765,0.261l0.63,3.392l-1.466,1.335l0.039,5.409l-2.164,0.715l0.268,0.627l0.669,0.819l3.118-0.891
		l0.858,2.797l3.372-0.793l1.299,1.381l1.077,3.666l1.335,0.63l3.969-0.741l0.408-1.149l1.547,0.363l0.715,2.154l-0.666,0.708
		l1.41,2.347l2.004-1.753l1.707,1.09l0.206,0.598l-1.035,0.055l-1.048,1.407l2.132,4.404l-0.192,7.655l-1.257,1.143l2.086,5.873
		l-0.669,0.947l-4.23,0.627l0,0l-3.705-2.984l-4.972-0.503l-0.503-1.452l1.844-1.619l0.111-2.684l-2.684,0.281l-2.569-1.286l0,0
		l-0.431,0.078l0,0l2.216-4.27l-1.9-4.133l-0.167-2.739l-2.403,0.111l-0.111-1.061l-1.397-0.614l-0.839,3.464l-0.728,0.225
		l-2.458-0.222l-1.9-1.9l0,0l-0.447-0.111l0,0l-0.617-4.083l0,0l0.558-1.113l0,0l-0.78-1.838l0,0l-0.333-1.224l0.725-1.113l0,0
		l0.167-1.168l0,0l-2.67-1.613l0,0l-3.562,1.949l-2.171-0.892l-1.893-2.115l0,0l0.222-2.004l3.34,0.669l0,0l0.388-0.669l0,0
		l-0.669-1.28l1.113-3.617l-0.78-2.004l-3.672-4.035l0,0l-1.724-2.393l-1.668-0.444l0,0l-0.056-1.224l2.671-1.838l1.113-2.448
		l1.727-0.725l1.002-1.949l-1.058-0.167l-3.784,2.836l-2.337,0.278l0,0l-3.062-1.894l0,0l0.055-1.279l0,0l-0.055-2.171l1.224-2.004
		l8.167-4.495l0,0l-0.121-0.604L166.974,104.58z M121.37,37.993l6.493,2.448l0.297,1.446l3.946-0.483l1.221,0.993l1.586-0.806
		l1.893,0.891l0.927,1.521l-0.852,5.752l4.306,6.01l2.67-1.113l3.082,3.007l2.68-0.079l0.568-0.245l-0.401-1.812l1.126,0.784
		l-0.349-1.812l2.184-0.026l-0.222-0.97l2.135,0.428l1.906,8.847l0.842-0.646l2.967,0.594l-3.683,5.223l1.149,2.116l1.067-0.695
		l1.24,0.558l-0.767,3.79l-1.883,1.175l-0.542,1.743l1.414,2.866l-1.368,3.584l1.472-0.065l-1.26,1.172l0.379,1.312l-1.485,3.258
		l-3.81,1.257l1.968,3.992l1.766-0.316l-0.072,3.212l-1.299,1.391l1.563-0.698l-0.479,2.784l0.911,0.209l2.37-2.419l0.333,3.751
		l1.391-1.583l2.54-1.116l0.937,5.419l-1.113,1.273l-7.792,2.004l-2.115-3.173l-2.69-2.086l-0.202-0.917l2.06-3.506l-2.504-2.837
		l-2.004,0.277l-0.835-1.168l-0.333-5.51l-2.004-1.782l-0.222-14.915l0.835-6.679l-1.667-2.115l-8.014-2.06l0.166-2.281l-2.337-3.95
		l-3.229-0.111l-3.617-4.287l-3.006-0.725l-1.949,2.781l-1.949-0.835l-0.555-1.335l3.117-2.56l0.333-1.613l1.169,0.78l1.782-1.168
		l-0.78-1.446l-3.173-0.333l-1.501-2.116l-2.308,0.065l0.587-1.048l-0.444-1.446l2.559-1.965L121.37,37.993z"/>
	<path id="MD-SO" fill="#1E3250" stroke="#1E3250" stroke-width="0.5" d="M84.375,24.916l7.083,0.64l1.763,0.803l0.862,1.968
		l-0.333,1.88l-1.619,2.053l0.816,1.521l2.046-0.398l2.667-2.866l1.668,0.594l0.558,2.892l1.446,0.967l1.42-0.222l3.496-2.876
		l1.459,0.725l1.547-0.614l0.891,1.26v3.303l-0.966,1.894l-1.965,0.852l0.333,2.115l2.523-0.297l1.077-2.004l2.484-0.444
		l-0.049,6.169l1.942,1.437l1.152-0.085l0,0l2.487,2.076l-0.427,1.143l-4.067,2.781l-1.926,2.357l-5.494-0.288l-2.497-1.139
		l-3.637,1.926l-4.067-1.214l-6.493-0.072l0,0h-1.143l0,0l-1.071-2.426l1.854-2.282h1.642l1.355-4.139l-2.21-3.496l-4.854-4.779
		l-3.924-0.359l-2.079-3.408l0,0l0.509-0.231l0,0l2.141-0.568l1.857-2.07l-4.283-2.713L80.709,26l2.833-2.236l0,0L84.375,24.916z"/>
	<path id="MD-ST" fill="#1E3250" stroke="#1E3250" stroke-width="0.5" d="M132.332,121.451l0.646,1.237l0,0l-0.222,1.395
		l-1.727,1.168l-0.222,1.612l0,0l-0.666,1.391l-3.118,0.558l-1.782,1.168l-0.666,1.946l0.722,1.616l0,0l-0.333,0.555l0,0
		l-1.668,0.167v2.396l-1.169,0.333l-4.064-3.839l-0.555-1.727l-1.113,0.669l0,0l-1.335-0.281l0,0l-0.835-0.61l-1.671,1.058
		l-1.335-0.614l-1.668,1.002l-2.393-1.779l-1.45-0.059l0,0l0.392-0.584l0,0l-0.725-1.335l-3.672-2.337l-0.111-0.777l1.391,0.056
		l0.444-1.894l0,0l0.167-0.219l0,0l3.898,0.163l3.95-1.894l1.058-1.557l1.727-0.167l0.555-2.227l-0.722-2.448l-1.837-0.614
		l0.222-0.61l2.785-1.168l1.28-1.783l2.171-0.444l0.61-1.838l0,0l0.167-0.088l0,0l1.279,1.061l2.507-0.167l0.61,3.062l1.616,1.224
		l1.89,3.284h1.002l0.947,3.007l3.006,0.943l0,0L132.332,121.451z"/>
	<path id="MD-SV" fill="#1E3250" stroke="#1E3250" stroke-width="0.5" d="M196.145,173.182l3.173,2.823l2.726,0.222l0.78,2.67
		l3.006,3.897l0.803,0.141l0.865-1.087l2.393,1.668l1.838-0.333l-0.167,1.613l-5.011,3.062l-5.843-0.278l-1.894-0.835l-1.834,1.224
		l-0.725,2.115l-1.113,0.333l-1.946-1.391l-1.975-3.411l-1.032-4.045l-2.448-1.894l0.389,1.894l-0.61,1.502l-3.931-0.467l0.48,4.752
		l-1.838,1.335h-2.393l-2.119-1.332l-0.552-3.454l-3.317-0.757l-1.247-3.806l-1.893-0.892l0,0l-2.631-3.003l-0.167-1.508
		l2.794-1.678l-1.567-1.675l3.131-2.458l1.899,0.725l2.625-2.289l2.906-0.055l1.064-1.341l1.73-0.392l0.558-1.733l0,0l0.617-0.111
		l0,0l2.569,1.286l2.68-0.281l-0.111,2.684l-1.844,1.619l0.503,1.452l4.975,0.503L196.145,173.182z"/>
	<path id="MD-TA" fill="#1E3250" stroke="#1E3250" stroke-width="0.5" d="M119.679,219.944l-0.333,0.78l-2.004-0.056l0,0
		l-0.835,0.277l0.222,1.613l3.062,1.949l1.224-0.055l3.451-2.449l3.395-0.167l0.5-0.891l-1.502-4.397l0,0l0.333-1.113l0,0
		l1.613-0.669l1.446,0.613l0,0l0.669,0.892l0,0l2.334,4.315l-3.254,1.694l0.574,5.898l0,0l-4.776,0.555l0,0l-7.515,1.727l0,0
		l-0.166,1.279l0,0l3.062,3.118l1.28-0.222l0,0l3.617-1.557l0.653,0.454l0,0l-0.457,2.523l-1.335,0.836l-3.895,0.388l-0.389,3.784
		l-2.755,0.104l0,0l0.946-2.135l-1.612-1.893v-1.724l-0.891-0.669l-0.891,1.058l-1.724-2.337l-2.896-0.555l-0.611-0.78l-0.669-3.561
		l3.395-0.333l0,0l0.614,2.115l1.612-0.277l0,0l0.725-0.555l0,0l0.333-1.335l-1.724-1.113l0,0l-2.004-2.448l-0.61-5.899l0.946-4.619
		l3.196-1.28l0,0h0.421l0,0l1.279-0.499l0.669,1.727l-0.78,2.337l-1.446,1.335l2.896,0.891l0,0L119.679,219.944z M144.528,214.933
		l-0.444,1.92l-1.723,1.335l-3.872,1.273l-0.274-2.027l0,0l-0.389-2.004l-1.557-0.222l0,0l0.333-2.448l2.726-2.004l0,0l1.391-0.5
		l-0.78-3.45l0,0l-0.111-1.613l1.28-2.171l0,0l3.982-3.911l0,0l2.611,1.488l0.75,1.524l-0.192,1.372l-2.282,2.03l-0.728,1.923
		l-2.726,1.89l-0.389,1.309L144.528,214.933z"/>
	<path id="MD-TE" fill="#1E3250" stroke="#1E3250" stroke-width="0.5" d="M128.672,85.938l-0.173,0.215l0,0l-1.058,2.171
		l0.722,3.395l-3.617,1.058l-4.283,2.892l-1.283,1.893l0.447,2.449l-1.893,1.279l0,0l-1.391,0.447l0,0l-6.846,1.557l-8.069-1.782
		l0,0l-3.774-1.838l0,0l0.601-1.724l-1.279-6.121L98,89.992l1.616-0.777l1.335,1.058l5.174-0.056l2.673,1.224l1.502-0.614
		l-0.559-3.894l1.671-1.505l-0.388-5.618l0,0l-0.271-0.271l0,0l1.521-1.29l2.84,1.002l0.61-1.668l1.557-0.836l0,0l0.607-0.564l0,0
		l3.124,0.287l2.615,2.282l0,0l0.042-0.039l0,0l-1.211,2.096l5.954,4.563l0,0L128.672,85.938z"/>
	<path id="MD-UN" fill="#1E3250" stroke="#1E3250" stroke-width="0.5" d="M91.217,136.598l-1.257-1.574l-4.887-1.772l-0.431-1.557
		l-5.099-4.081l0.052-1.449l-2.2-0.911l-0.323-3.222l-4.296-9.343l-1.662,0.536l-2.579-1.61l-2.364-3.169l-0.114-1.499l2.167-0.353
		l2.115-3.284l4.397-2.116l6.401-0.444l0.888-3.787l2.266,0.366l0.574,1.528l3.451-0.78l3.059,2.115l2.396-1.335l3.682,0.833
		l2.68,1.609l-0.604,5.014l-4.175,3.451l-3.728,5.902l-5.285,3.395l0.833,2.56l-1.89,2.726l0.222,2.393l0.611,1.838l4.786,4.342
		L91.217,136.598z"/>
</g>
</svg>
