<?xml version="1.0" encoding="utf-8"?>
<!-- Generator: Adobe Illustrator 15.0.0, SVG Export Plug-In . SVG Version: 6.00 Build 0)  -->
<!DOCTYPE svg PUBLIC "-//W3C//DTD SVG 1.1//EN" "http://www.w3.org/Graphics/SVG/1.1/DTD/svg11.dtd">
<svg version="1.1" id="Layer_1" xmlns:amcharts="http://amcharts.com/ammap"
	 xmlns="http://www.w3.org/2000/svg" xmlns:xlink="http://www.w3.org/1999/xlink" x="0px" y="0px" width="814.5px"
	 height="1002.5px" viewBox="0 0 814.5 1002.5" enable-background="new 0 0 814.5 1002.5" xml:space="preserve">
<defs>
	
	
		<amcharts:ammap  projection="mercator" bottomLatitude="43.7247427" leftLongitude="7.3991049" topLatitude="43.7519029" rightLongitude="7.4398113">
		</amcharts:ammap>
</defs>
<g>
	<path id="MC" fill="#1E3250" stroke="#1E3250" stroke-width="0.5" d="M724.14,0l17.79,26.05l-41.96,43.62L594.33,110.1l-32.91-5.64
		l-48.07,88.17l-18.96,94.32L437.78,361.31l-35.71,36.45l-39.73-30.399l-19.45,10.529l-41.27,61.721L94.68,620.1l6.39,107.11
		l-61.28,21.01L0.41,803.1L246.9,976.21l141.62-115.12l-41.24,15.25L325.2,829.36l-57.86,6.779l-1.24-15.87l-15.86,0.921
		l-2.38-33.681l14.09-4.75l-40.97-5.77l30.08-22.94l43.12,38.04l34.17-10.12l30.29,61.12l-0.63-34l37.21-0.3l89-65.35l15.41-56.57
		l99.28-129.29l-79.271,82.56L474.6,609.61l10.25,48.149l-80.27,23.311l-1.3-27.59l-13.59,2.35l12.59,25.87l-19.58,5.59l-30.32-45.6
		l-1.78-17.23l9.96,17.34l8.92-20.939l7.4,19.13l-8.99-47.03l-0.43,20.521l-15.51-16.12l-3.49,19.87l-10.29-58.761l75.11-22
		l18.29,1.36l4.25,21.4L432.35,533.8l27.73-3.66l16.71,50.311l-7-48.38l51.74-14.66l25.18,39.43L529.23,514.1l29.97-64.81
		l-1.12-55.01l77.42-140.37l-17.51,1.3l5.12-32.69l24.08-11.93l9.05,11.52l-8.92-13.87l24.27-25.6l22.12,0.77l-6.1,16.38l11.31-0.62
		l15.9-45.63l34.84,48.79l49.93-10.04l-13.07-89.16l-25.34-17.38l6.03-64.62L724.14,0z"/>
</g>
</svg>
