<?xml version="1.0" encoding="utf-8"?>
<!-- Generator: Adobe Illustrator 15.0.0, SVG Export Plug-In . SVG Version: 6.00 Build 0)  -->
<!DOCTYPE svg PUBLIC "-//W3C//DTD SVG 1.1//EN" "http://www.w3.org/Graphics/SVG/1.1/DTD/svg11.dtd">
<svg version="1.1" id="Layer_1" xmlns:amcharts="http://amcharts.com/ammap"
	 xmlns="http://www.w3.org/2000/svg" xmlns:xlink="http://www.w3.org/1999/xlink" x="0px" y="0px" width="628.5px" height="768px"
	 viewBox="0 0 628.5 768" enable-background="new 0 0 628.5 768" xml:space="preserve">
<defs>
	
	
		<amcharts:ammap  projection="mercator" bottomLatitude="41.849068" leftLongitude="18.438452" topLatitude="43.565072" rightLongitude="20.376768">
		</amcharts:ammap>
</defs>
<g>
	<path id="ME-01" fill="#1E3250" stroke="#1E3250" stroke-width="0.5" d="M463.63,377.32l-0.47,0.229l0,0l-11.271,4.34l-13.88,14.74
		l-2.6,6.94l-1.3,8.239l-9.971,2.601l-3.5,2.41l0,0l-1.739-1.79l-1.551-3.851l-2.279-1.58l-0.94-5.52l2.14-2.73l-0.119-1.63
		l-4.61-1.84l-3-6.5l-1.55-1.28l-7.141,2.391l-1.699,2.14l0.06,2.44l-5.49,6.37l-1.58,0.47l-3.63-0.94l-2.59,3.011l0,0l-3.88-6.7
		l-4.34-12.58l0,0l-2.1-2.91l0,0l5.14-2.12l3.03-4.33v-6.51l4.34-2.17l1.3-6.93l-3.47-2.601l-0.87-9.54l2.6-5.21l0.44-5.2
		l-6.51-4.77l-4.77-5.641l-1.3-6.5l5.64-6.069l0,0l6.59-1.94l0,0l41.721,23.83l7.8,2.61l9.109,0.859l3.9-3.47l4.33,0.44l-0.43,6.069
		l-2.601,3.9l-5.2,4.34v5.2l3.9,5.2l3.03,6.069L463.63,377.32z"/>
	<path id="ME-02" fill="#1E3250" stroke="#1E3250" stroke-width="0.5" d="M206.05,540.22l-0.19,0.2l0,0l7.37,8.67l1.3,4.771
		l0.43,8.67l1.74,6.069l3.03,3.471l11.71,2.17h6.5l3.04,1.3l3.03,6.94l4.77,16.909l5.64,4.341l3.04,6.5l13,4.34l8.24,10.84
		l8.34,6.08l0,0l-0.1-0.01l0,0l-3.47,5.199l-4.33,3.04l-6.94-1.3l-3.04,1.3h-4.33l-5.64-3.899l-2.17-4.34l-3.47-2.171l-5.63,4.341
		v4.33l5.63,1.739l0.87,1.73l-3.47,7.81l-0.43,3.9l2.6,2.17l1.73,3.47l3.04,0.86l1.73,8.68l-1.73,3.9l-4.34,1.729l-4.77-0.859
		l-14.31-7.37l-9.88,0.56l0,0l0.09-1.45l-2.4-1.31l0.1-0.98l1.39-0.42l0.31-2.79l-2.62-1.659l0.79-1.061l-0.38-4.02l-16.16-12.16
		l-1.77-1.66l0.57-0.46l-4.9-4.2l-0.16-0.97l1.77-0.13l3.03,1.229l-0.47-1.7l1.39,0.511l-0.63-1.78l0.82,0.3l0.63-0.89l0.09-1.7
		l-2.05-5.13l-5.37-4.49l-2.08-0.47l0.69-1.74l-1.13-3.01l-2.72-1.62l-7.96,0.64l-1.48-2.029l-3.13,3.09l-3-6.45l0.63-3.56
		l-1.79-2.521l0,0l5.32-10.56l3.9-3.9l-2.6-6.94l-3.9-5.199l-11.28-9.971l-2.17-8.239l-4.33-10.41l0,0l4.77-0.87l0,0l10.84,3.91
		l2.6,3.899l8.24,0.87l5.63-2.609l0.87-3.46l-3.9-7.811l1.73-3.47l6.07-0.87l5.21,2.17L206.05,540.22z"/>
	<path id="ME-03" fill="#1E3250" stroke="#1E3250" stroke-width="0.5" d="M463.63,377.32l-11.31-8.011l-3.03-6.069l-3.9-5.2v-5.2
		l5.2-4.34l2.601-3.9l0.43-6.069l-4.33-0.44l-3.9,3.47l-9.109-0.859l-7.8-2.61l-41.721-23.83l0,0l0.78-0.229l0,0l-3.9-12.58
		l1.3-10.4l0,0l-0.9,0.1l0,0l8.7-8.34l0,0l1.59-2.11l0,0l7.689,0.81l8.681-2.61l7.8-3.46l9.11-9.98l6.939-2.6l3.9,1.74l2.6,3.03
		l4.771,1.3l6.5,1.3l7.37-1.3l5.21-4.33l20.38-6.94l4.33-4.77l4.34-1.74l8.67-0.86l6.07-3.04l4.77-2.6l4.96-6.82l0,0l6.86,3.25
		l8.18,8.69l3.13,2.15l4.141-0.64l4.51-3.02l1.609-0.17l0,0l-0.869,12.17l-5.631,8.24l-1.739,9.1l-9.971,9.54l-0.87,9.98
		l-3.029,9.97l-7.811,6.51l-6.939,8.67l2.609,13.87l1.79,3.391l0,0L513,342l-0.85,4.55l-4.17,6.47L513.1,366.9l3.66,1.619l2.17,2.48
		l0,0l-27.58,3.95l-21.25-0.87l0,0L463.63,377.32z"/>
	<path id="ME-04" fill="#1E3250" stroke="#1E3250" stroke-width="0.5" d="M518.42,237.83l-4.96,6.82l-4.77,2.6l-6.07,3.04
		l-8.67,0.86l-4.34,1.74l-4.33,4.77l-20.38,6.94l-5.21,4.33l-7.37,1.3l-6.5-1.3l-4.771-1.3l-2.6-3.03l-3.9-1.74l-6.939,2.6
		l-9.11,9.98l-7.8,3.46l-8.681,2.61l-7.689-0.81l0,0l1.02-1.36l0,0l-12.14-9.11l-2.61-3.9l4.77-9.1v-6.94l-5.2-6.94l-7.37-4.77
		l-17.78-1.73l-7.37-2.17L334.21,226l-9.11-0.86l-7.8-3.47l0,0l-0.53,0.16l0,0l2.26-7.1l-0.43-9.97l3.46-5.21l4.77-3.9h7.38l2.6-5.2
		l0.43-6.51l4.34-2.6l2.6-3.03v-5.64l-2.6-4.34v-3.9l5.2-3.03l3.04-5.64l3.9-2.17l2.17-14.74l-3.47-5.64l0.83-4.16l0,0l19.29,11.71
		l8.62,16.62l12,7.86l15.12,4.14l5.439,3.41l0.82-0.34l1.229-6.61l2.53-2.24l1.95,0.73l3.48,4.92l0.34,5.35l3.79,6.82l1.899,8.88
		l10.891,0.99l4.04,5.04l3.92-3.1l5.46,3.97l7.05,0.99l12.28-1.29l5.27-5.82l2.97-0.48l6.03,13.45l2.561,1.81l2.72,4.78l12.95,14.99
		l7.35,6.2L518.42,237.83z"/>
	<path id="ME-05" fill="#1E3250" stroke="#1E3250" stroke-width="0.5" d="M162.75,546.29l-1.12,0.2l0,0l4.33,10.41l2.17,8.239
		l11.28,9.971l3.9,5.199l2.6,6.94l-3.9,3.9l-5.32,10.56l0,0l-1.93,1.03l-0.44-1.74l-1.24,0.34l-0.18-1.439l-5.31-3.4l-0.54-1.61
		l1.46-3.569l-2.85-3.73l-3.12-0.22l-0.41-1.99l-1.42,0.04l-1.9-2.25l-4.29-0.38l-0.64-2.43l-1.54-0.17l-3.82-3.011l-0.92-4.97
		l-2.97-3.06l0.92-1.41l-0.79-2.33l0.5-1.49l-1.51-2.59l-0.38-4.68l-1.71-2.681l-1.61-0.21v-2.09l-4.29-0.12l-1.61,0.59l-0.41,1.28
		l-2.69-3.74l-2.14,0.04l-2.28,1.271l0.25,1.96l-2.96,1.53l-3.7-1.7l-0.65-1.931l0,0v-4.359l-1.3-1.3l3.9-9.971l-3.47-3.04l-1.3-2.6
		l-1.3-3.9l1.73-3.04l0,0l4.34-2.17l0,0l3.9,0.87l3.9,3.47l16.91,5.641l9.11,1.3L162.75,546.29z"/>
	<path id="ME-06" fill="#1E3250" stroke="#1E3250" stroke-width="0.5" d="M227.54,527.59v-1.05l0,0l-8.68-3.9l-3.46,2.17
		l-5.21-1.729l-3.47-3.47h-3.47l-2.16,4.77l5.63,8.23l0.87,6.08l0,0l-1.54,1.529l0,0l-2.36-1.97l-5.21-2.17l-6.07,0.87l-1.73,3.47
		l3.9,7.811l-0.87,3.46l-5.63,2.609l-8.24-0.87l-2.6-3.899l-10.84-3.91l0,0l-3.65,0.67l0,0l-6.76-14.54l-9.11-1.3l-16.91-5.641
		l-3.9-3.47l-3.9-0.87l0,0l-3.13,1.57l0,0l-1.21-14.79l-7.8-8.24l-2.61-4.77l0.87-4.771l3.47-4.34l0.43-6.93l-1.73-12.58l-2.17-7.37
		l-6.07-6.5l-6.07-2.17l-5.2-6.94L85.74,429.2l-9.97-11.71l0,0l-4.04-12.11l0,0l6.21-1.33l5.2-3.04V383.23l8.67-7.37l0.44-9.101
		h5.64l13,8.67l16.05-0.43l6.07,3.9l8.24,9.97l13.44,7.81l3.9,4.33l0,0l2.17,8.681l0,0l-0.87,7.369l6.94,1.73l4.77,3.47l3.47,8.24
		l4.77,2.17l4.77,4.771l-1.3,3.46l-7.37,3.909v9.101l0,0l-8.24,3.04l0,0l0.43,3.899l12.58,3.9l5.63,6.07l2.6,5.21l7.38,5.2l3.9,1.3
		l5.64,12.58l4.33,5.199l13.44,8.671l4.34,3.909l2.6,9.53L227.54,527.59z"/>
	<path id="ME-07" fill="#1E3250" stroke="#1E3250" stroke-width="0.5" d="M175.5,454.07l0.44-0.16l0,0v-9.101l7.37-3.909l1.3-3.46
		l-4.77-4.771l-4.77-2.17l-3.47-8.24l-4.77-3.47l-6.94-1.73l0.87-7.369l0,0l-0.52-2.07l0,0l13.96,0.33l5.64-3.47l-0.43-9.101
		l0.86-10.84l4.77-6.08l12.58-8.229l7.8,0.43l9.11,3.47h19.51l9.54,1.3l4.77-3.47l-6.5-6.5l-3.47-6.07l-0.44-4.34l3.91-2.17
		l3.03-3.03l0,0h3.47l0,0l6.07,3.46l3.9,18.65l9.98,11.71l0,0l1.73,4.33l0,0l-10.84,6.94l-0.43,9.54l2.17,5.64l-1.74,8.24
		l-10.41,5.199l-2.6,8.671l2.17,19.949l-1.3,5.2l-6.07,7.37l-5.64,3.91l-12.57-6.51l-4.34,3.47l-10.41-0.43l-8.67,1.729l-3.47-5.63
		l-7.37-1.74L175.5,454.07z"/>
	<path id="ME-08" fill="#1E3250" stroke="#1E3250" stroke-width="0.5" d="M64.65,494.86l0.72,6.319l3.9,2.601l1.68,2.989l0,0
		l-2.17,1.24v2.471l1.58,1.659l-1.99,1.62v2.38l-2.46-0.6l-0.41-1.96l-1.2-0.72l-2.72,0.21l0.51,2.13l-0.79,1.229l-3.47-1.02
		l-0.6-1.4l-2.65,1.66l0.06-1.75l-1.14-0.94l-1.8,0.511l-0.19-1.28l-3.28-2l0.6-1.87l-1.89,0.34l-0.85-1.75l-2.31-0.38l-1.99-2.6
		l2.56-1.24l-0.6-0.98l1.14-0.939l-6.82-2.47l-0.41-2.94l-3.06-0.64l-0.32-3.49l4.39-4.01l2.53-0.641l14.65,4.09L64.65,494.86z
		 M23.94,420.88l6.19,0.3l1.05-0.63l0,0l6.87,9.521l3.47,9.54l2.6,3.04l5.2,3.899l15.61,2.601l6.94,3.47l1.62,4.06l0,0l-5.69,4.181
		l-0.38,1.189l1.33,0.9l4.55,0.3l5.81,2.9l-3.92,6.02l-0.32,1.45l0.82,1.07l-0.76,1.109l-4.64,2.22l-1.17,1.45L67,479.51
		l-5.97,3.971l-9.63,2.859l-7.07-3.79l-3.35-4.39l-2.21-0.431l-2.37,1.58l-5.59,0.17l-6.32-4.01l-3.16,2.601l-0.54,1.58l2.34,4.26
		l5.84,5.88l-2.24,2.43l-3.41-0.85L2.62,467l-0.6-6.4l2.84-3.71l0.47-2.13L0,435.71l0.35-3.33l6.28-0.26l6.88-1.54l6.95-9.66
		L23.94,420.88z"/>
	<path id="ME-09" fill="#1E3250" stroke="#1E3250" stroke-width="0.5" d="M374.6,383.79l-3.54-4.89l0,0l-9.1-0.44l-5.21-6.07
		l-4.77-14.31l-9.54-0.86l-5.63,0.86l-3.9,17.35l-13.45,2.601l-0.86,5.64l-13.88,5.63l-5.2,3.91l-6.94-0.87l-7.81-3.899l-4.77,1.3
		l-5.63-3.471l-4.7,0.83l0,0l-1.37-3.43l0,0l-9.98-11.71l-3.9-18.65l-6.07-3.46l0,0h-2.01l0,0l-5.36-4.6l-2.17-4.77l0.87-10.41
		l3.9-3.471l2.6-5.199l-1.3-4.771l-3.47-5.64l-5.63-5.2l0,0l-1.12,0.08l0,0l-1.05-7.02l6.94-7.8l0.86-3.91l9.54-1.3l4.77,1.3
		l26.45-2.16l6.07-4.77l0,0l1.97-6.31l0,0l6.71,0.24l4.77,6.5l7.37,4.34l8.67,1.73l6.94,3.04l15.17,1.3l4.34-2.6l6.94-1.74
		l6.94,3.04l7.37-0.87l5.63,3.47l6.51-0.44l0,0l7.37-0.86l0,0l-1.3,10.4l3.9,12.58l0,0l-7.37,2.17l0,0l-5.64,6.069l1.3,6.5
		l4.77,5.641l6.51,4.77l-0.44,5.2l-2.6,5.21l0.87,9.54l3.47,2.601l-1.3,6.93l-4.34,2.17v6.51l-3.03,4.33L374.6,383.79z"/>
	<path id="ME-10" fill="#1E3250" stroke="#1E3250" stroke-width="0.5" d="M73.49,456.67l-1.62-4.06l-6.94-3.471l-15.61-2.6l-5.2-3.9
		l-2.6-3.04l-3.47-9.54l-6.87-9.51l0,0l1.57-1.38l0.09-1.53l-4.24-3.819l0,0l10.75-1.53l26.01-9.54l6.07,1.73l0,0l4.34,13.01l0,0
		l9.97,11.71l5.21,13.439l5.2,6.94l6.07,2.17l6.07,6.5l2.17,7.37l1.73,12.58l-0.43,6.93l-3.47,4.34l-0.87,4.771l2.61,4.77l7.8,8.24
		l1.21,14.79l0,0l-1.21,0.6l0,0l-1.73,3.04l1.3,3.9l1.3,2.6l3.47,3.04l-3.9,9.971l1.3,1.3v4.359l0,0l-2.06-1.05l-2.5,1.79
		l0.95,3.101l-6.13-4.04l0.63,5.279l-2.11,1.23l-1.58-0.51l-7.74-8.631l-0.09-1.489l-4.46-4.641l-1.16,0.04l0.34-1.479l-2.14-0.771
		l-0.13-1.109l-5.91-4.931l2.47-2.47l-2.02-2.34l0.19-2.6l-3.98-3.15l-2.66-3.7l0.32-1.149h1.33l4.04,1.739l-1.66-2.59l0,0
		l2.41-0.54l8.52-7.14l3.02-3.99l0.97-7.55l5.19-7.24l0,0l0.56-3.62l-1.93-4.01l1.05-2.47l-0.67-17.75l-1.92-0.25l-7.99,2.859
		l-6.79-0.09l-3.16-0.979l-2.94-2.351l0.1-4.779l1.45-2.98l-1.8-3.25l-1.74,0.69l-2.05,4.18L73.49,456.67z"/>
	<path id="ME-11" fill="#1E3250" stroke="#1E3250" stroke-width="0.5" d="M384.04,291.15l-6.47,0.76l0,0l-6.51,0.44l-5.63-3.47
		l-7.37,0.87l-6.94-3.04l-6.94,1.74l-4.34,2.6l-15.17-1.3l-6.94-3.04l-8.67-1.73l-7.37-4.34l-4.77-6.5l-6.71-0.24l0,0l0.2-0.63l0,0
		l-3.47-6.94l-6.94-0.87l-2.6-6.07l-1.73-8.24l0,0l-0.2-0.1l0,0l1.93-2.06v-9.11l19.08-2.6l2.17-9.97l4.34-3.47l0,0l-0.19-0.13l0,0
		l7.56,0.13l0,0l6.94-2.17l0,0l7.8,3.47l9.11,0.86l13.44,8.68l7.37,2.17l17.78,1.73l7.37,4.77l5.2,6.94v6.94l-4.77,9.1l2.61,3.9
		l12.14,9.11l0,0l-2.61,3.47l0,0L384.04,291.15z"/>
	<path id="ME-12" fill="#1E3250" stroke="#1E3250" stroke-width="0.5" d="M246.34,349.85h-1.46l0,0l-3.03,3.03l-3.91,2.17l0.44,4.34
		l3.47,6.07l6.5,6.5l-4.77,3.47l-9.54-1.3h-19.51l-9.11-3.47l-7.8-0.43l-12.58,8.229l-4.77,6.08l-0.86,10.84l0.43,9.101l-5.64,3.47
		l-13.96-0.33l0,0l-1.65-6.61l0,0l-3.9-4.33l-13.44-7.81l-8.24-9.97l-6.07-3.9l-16.05,0.43l-13-8.67h-5.64l-0.44,9.101l-8.67,7.37
		v17.779l-5.2,3.04l-6.21,1.33l0,0l-0.3-0.899l0,0l-6.07-1.73l-26.01,9.54l-10.75,1.53l0,0l-2.68-6.46l3.73-10.15l5.12-0.27
		l7.55-2.221l-3.35-19.26l3.38-8.35l-0.92-3l-3.19-2.271l-5.71,1.97l-7.36-0.85l-2.27-2.79l-0.07-2.1l-4.73-7.45l-4.93-1.07
		l-1.45-1.5l1.35-6.56l-1.95-2.66l-0.29-4.11l-1.29-1.33l0.69-1.12l2.97,0.131l2.91-1.11l1.13-1.68l0.1-2.101l-3.73-10.81
		l0.38-6.431l3.28-6.189l2.88-2.66l-0.82-5.96l3.69-2.32l0.38-1.08l-0.19-1.8l-2.65-1.2l-2.97-5.07l0.13-6.66l-2.56-4.13l0.06-1.72
		l4.48-3.39l6.13-12.69l4.39-13.33l5.88-6.41l3.66-0.48l27.44,5.47l15.6-4.95l-0.22-3.18l-11.51-28.28l0,0l12.51-2.08l9.1,3.03
		l7.37,6.07l10.41,31.22l9.97,19.52l6.07,5.63l4.77,2.6l37.73,0.44l0,0l3.47,6.93l0,0l4.33,1.74l18.65,11.71l10.84,4.77L218,307.09
		l0,0l17.78-1.3l0,0l5.63,5.2l3.47,5.64l1.3,4.771l-2.6,5.199l-3.9,3.471l-0.87,10.41l2.17,4.77L246.34,349.85z"/>
	<path id="ME-13" fill="#1E3250" stroke="#1E3250" stroke-width="0.5" d="M420.64,416.82l3.5-2.41l9.971-2.601l1.3-8.239l2.6-6.94
		l13.88-14.74l11.271-4.34l0,0l6.939-3.47l0,0l21.25,0.87l27.58-3.95l0,0l1.431,1.42l3.569,0.561l2.521,1.409l5.24,8.391l5.279,4.02
		l0.25,1.16l-10.7,13.43l-3.699,1.971l-3.25,4.02l-0.32,7.18l1.93,6.58l-4.8,13.891l-5.72-1.5l-2.55,3.67l-10.011,3.25l-0.729,1.49
		l0.22,4.02l-3.38,8.24l-7.64-1.2l-4.9,1.03l-3.63-0.641l-2.9-2.39l-3.449,0.64l-5.811,3.841l-2.36,0.3l-0.6,5.97l-2.21,2.9
		l-6.16-4.561l-3.1,5.97l-4.29-0.6l-1.71,1.92l-3.47,0.09l-0.221,3.03l-1.77,2.39l-3.851-1.33l-8.5-5.5l-3.979-6.14l-4.73-2.479
		l-1.55-8.24l-5.149-9.82l0.159-1.24l1.771-0.85l-0.101-2.56l1.65-3.421l-1.8-4.319l1.229-3.16l6.25,0.05l1.07-0.729l-0.41-4.62
		L420.64,416.82z"/>
	<path id="ME-14" fill="#1E3250" stroke="#1E3250" stroke-width="0.5" d="M353.25,129.05l-0.83,4.16l3.47,5.64l-2.17,14.74
		l-3.9,2.17l-3.04,5.64l-5.2,3.03v3.9l2.6,4.34v5.64l-2.6,3.03l-4.34,2.6l-0.43,6.51l-2.6,5.2h-7.38l-4.77,3.9l-3.46,5.21l0.43,9.97
		l-2.26,7.1l0,0l-6.41,2.01l0,0l-7.56-0.13l0,0l-7.19-5.08l0,0l-6.93-14.74l-8.68-1.3l-4.77-7.37l-7.8-5.21l-3.04-5.63l-8.24-3.47
		l-3.46-3.04l-12.58-4.77l-12.57-13.44H215.4l-4.77,5.64h-13.88l-3.04-4.77l-5.2,0.43l-0.87-10.84l-1.73-8.24l0.87-5.63l-1.17-1.64
		l0,0l3.23-5.73l3.51-3.85l4.32-1.9l9.95-1.04l1.49-11.76l-1.65-5.58l-6.41-11.94l-9.75-11.9l-5.34-12.51l-0.98-3.86V58l-2.05-3.51
		l-0.1-3.43l-2.27-0.73l-1.83,2.47l-3.32-5.33l-3.5-1.82l-1.68-6.64l0.16-3.38l-1.48-3.73l0.19-4.81l1.7-3.87l-0.57-2.689
		l-1.61-1.99l-1.42,0.34l-1.42,1.31l-2.62,5.72l-1.23-0.39l-1.01-1.91l-0.79-6.16l0.79-1.6l3.98-2.95l5.36,0.04l1.8-0.87l4.52-10.51
		L178.93,0l1.73,0.61l1.33,3.12L183.44,1l1.71-0.65l3.69,1.21l5.91-0.52l4.67,5.21l5.02,2.22l13.74,10.41l2.72-0.73l8.9-8.64
		l2.15-0.13l4.04,2.21L240,9.6l2.46,2.47l2.72-1.87l2.49,1.09l2.03,2.13l1.2,15.4l2.21,3.38l7.57,7.12l12.16,14.04l11.18,7.46
		l14.37,5.71l7.71,8.58l6.22,3.72l9.09,2.73l2.94,12.25l4.45,6.14l4.23,2.99l10.87,2.9l2.65,4.62l3.57,15.65L353.25,129.05z"/>
	<path id="ME-15" fill="#1E3250" stroke="#1E3250" stroke-width="0.5" d="M176.24,133.25l-2.91,17.31l0.87,12.57l-1.3,9.97v7.81
		l10.41,13.44l0,0v8.24l0,0l-2.6-0.87l-14.31,4.34l-6.51,7.37l-3.47,13.44l-4.77,4.77l0.87,13.44l3.47,6.51l16.91,7.37l3.47,5.64
		l-2.17,4.33l-4.91,2.32l0,0l-0.29-0.58l0,0l-37.73-0.44l-4.77-2.6l-6.07-5.63l-9.97-19.52l-10.41-31.22l-7.37-6.07l-9.1-3.03
		l-12.51,2.08l0,0l-4.79-14.5l1.65-11.39l3.72-7.93l8.15-11.61l6.54-7.17l2.49-4.53l-0.79-3.07l-6.5-4.06l-1.14-1.77l-0.06-4.1
		l1.64-2.08l8.68-6.311l21.86-14.22l12.72-4.93l6.98-0.65l-1.55-5.49l-3.37-4.41v-2.43l11.62-3.33l5.74,0.78l4.33-2.55l1.67,0.729
		l4.2,3.98l5.34,7.96l4.52,0.52l0.69,2.69l-0.54,2.76l-2.02,2.12l-1.01,3.98l1.42,4.97l0.82,1.26l5.82,1.77l2.84,1.94l1.39,3.33
		l-1.33,3.76L176.24,133.25z"/>
	<path id="ME-16" fill="#1E3250" stroke="#1E3250" stroke-width="0.5" d="M384.92,405.98l-14.28,19.6l-0.53,6.41l1.16,1.84
		l0.86,6.71l-3.89,2.34l-0.41,2.351l-12.5,7.17l-1.36,7.859l-3.1,3.58l-3.03,5.55l-0.63,3.11l-2.71,4.48l-2.56,2.05l-0.86,3.88
		l-4.23,1.83l-2.11,2.689l-0.76,3.7l-1.86,0.561l-0.98,4.35l-4.71,8.05l-4.86,3.24l-3.85,0.21l-1.96,1.02l-3.82,4.431l-1.27,2.56
		l0.16,4.42l-2.84,2.13l0.85,6.431l1.71,3.489l-11.84,13.7l-0.86,6.34l-6.82,8.2l-2.67,5.8l0,0l-4.45-0.489L280,563.4l-7.8-6.5
		l-11.71-3.04l-6.94,1.3l-4.77,2.17l-11.27,3.04l-1.73-4.34l-5.64-3.03l-1.3-3.04l-5.21-3.47l-1.3-2.601l-0.43-6.5l1.73-4.779
		l3.91-2.16l0,0v-2.86l0,0l3.03-5.17l-2.6-9.53l-4.34-3.909l-13.44-8.671l-4.33-5.199l-5.64-12.58l-3.9-1.3l-7.38-5.2l-2.6-5.21
		l-5.63-6.07l-12.58-3.9l-0.43-3.899l0,0l7.8-2.88l0,0l13.01,5.479l7.37,1.74l3.47,5.63l8.67-1.729l10.41,0.43l4.34-3.47l12.57,6.51
		l5.64-3.91l6.07-7.37l1.3-5.2l-2.17-19.949l2.6-8.671l10.41-5.199l1.74-8.24l-2.17-5.64l0.43-9.54l10.84-6.94l0,0l-0.36-0.9l0,0
		l4.7-0.83l5.63,3.471l4.77-1.3l7.81,3.899l6.94,0.87l5.2-3.91l13.88-5.63l0.86-5.64l13.45-2.601l3.9-17.35l5.63-0.86l9.54,0.86
		l4.77,14.31l5.21,6.07l9.1,0.44l0,0l5.64,7.8l0,0l4.34,12.58L384.92,405.98z"/>
	<path id="ME-17" fill="#1E3250" stroke="#1E3250" stroke-width="0.5" d="M514.39,339.53l-1.79-3.391l-2.609-13.87l6.939-8.67
		l7.811-6.51l3.029-9.97l0.87-9.98l9.971-9.54l1.739-9.1l5.631-8.24l0.869-12.17l0,0l4.87,3.01l6.88,1.85l1.67,1.51l10.87,4.47
		l7.67,6.06l14.4,2.71l1.521,4.43l-0.351,1.5l3.41,2.75l3.95,0.22l8.649,6.1l1.29,1.8l0.32,3.05l-1.07,23.96l-2.18,3.391
		l-1.71,0.989l-9.28-1.12l-4.229,4.29l-6.101,3l-2.109,2.021l-1.9,3.39l2.561,7.931l-10.83,14.279l-3.32,1.54l-13.04-2.14
		l-13.64,0.12l-28.71-10.07L514.39,339.53z"/>
	<path id="ME-18" fill="#1E3250" stroke="#1E3250" stroke-width="0.5" d="M183.31,202.16l7.37,13.87l10.41,1.3l2.6-4.33l7.8,0.43
		l6.07,8.24l6.07,5.64l4.77,0.43l9.98-2.6l6.5,5.63l4.77,9.11l6.07,3.04l5.21,0.86l7.37,3.47l0,0l7.37,3.9l0,0l1.73,8.24l2.6,6.07
		l6.94,0.87l3.47,6.94l0,0l-2.17,6.94l0,0l-6.07,4.77l-26.45,2.16l-4.77-1.3l-9.54,1.3l-0.86,3.91l-6.94,7.8l1.05,7.02l0,0
		L218,307.09l0,0l-11.71-11.27l-10.84-4.77l-18.65-11.71l-4.33-1.74l0,0l-3.18-6.35l0,0l4.91-2.32l2.17-4.33l-3.47-5.64l-16.91-7.37
		l-3.47-6.51l-0.87-13.44l4.77-4.77l3.47-13.44l6.51-7.37l14.31-4.34l2.6,0.87l0,0V202.16z"/>
	<path id="ME-19" fill="#1E3250" stroke="#1E3250" stroke-width="0.5" d="M103.62,490.92l-5.19,7.24l-0.97,7.55l-3.02,3.99
		l-8.52,7.14l-2.41,0.54l0,0l-1.09-3.07l-2.97-2.21l0.98-1.71l-2.15-2.34l0.1-1.45l-0.76-0.13l-0.31,1.2l-4.58-1.45l-1.78,0.55l0,0
		l-1.68-2.989l-3.91-2.601l-0.71-6.319l0,0l8.99,3.479l6.13,0.38l4.33,4.09l2.36,0.9l0.64-0.52l0.37-1.83l-2.02-2.04l1.05-0.561
		l-2.97-1.189l3.66-0.21l0.06-3.54l-5.74-5.971l-0.79-3.239l-2.37-0.94l0.44-1.79l-2.27-4.86l1.61-7.159l1.95-2.78l14.18,5.17
		l5.91,7.5l1.7,9.42L103.62,490.92z"/>
	<path id="ME-20" fill="#1E3250" stroke="#1E3250" stroke-width="0.5" d="M301.12,633.01l-3.8,6.42l-0.82,9.62l-2.44,5.38
		l0.79,13.891l2.21,3.43l0.86,4.32l-1.65,5.54l3.6,4.069l-1.61,1.69l-7.7,0.72l-2.4,1.61l-0.03,6.55l5.74,4.82l0.83,2.63l-2.25,2.66
		l-5.78,1.479l-1.23,1.94l1.11,2.46l6.03,1.979l1.42,4.061l3.63,1.35l-1.7,3.64l-0.26,5.91l-1.32,5.07l-2.75,0.51l-2.75-3.76
		l-4.07-2.33l-2.84-4.64l-4.17-3.761l-15.98-8.199l-8.46-2.58l-1.68,1.439l-4.29-4.149l-3.82-1.9l-1.42,0.13l-0.04-1.31l-1.1,0.29
		l-1.3-1.44l-3.56-0.88l-11.15-8.89l-0.6-1.9l4.48,1.23l0.89-0.931l-4.49-5.38l-2.43-1.479l-1.48-2.79l0.88-2.07l2.5,0.08l0.79-0.97
		l-0.54-1.78l-2.65-1.48l1.76-1.31l-0.69-1.32l0.47-1.479l-1.42-2.16l2.15-2.74l0,0l9.88-0.56l14.31,7.37l4.77,0.859l4.34-1.729
		l1.73-3.9l-1.73-8.68l-3.04-0.86l-1.73-3.47l-2.6-2.17l0.43-3.9l3.47-7.81l-0.87-1.73l-5.63-1.739v-4.33l5.63-4.341l3.47,2.171
		l2.17,4.34l5.64,3.899h4.33l3.04-1.3l6.94,1.3l4.33-3.04l3.47-5.199l0,0l9.54,0.869l0,0L301.12,633.01z"/>
	<path id="ME-21" fill="#1E3250" stroke="#1E3250" stroke-width="0.5" d="M185.61,134.61l1.17,1.64l-0.87,5.63l1.73,8.24l0.87,10.84
		l5.2-0.43l3.04,4.77h13.88l4.77-5.64h12.14l12.57,13.44l12.58,4.77l3.46,3.04l8.24,3.47l3.04,5.63l7.8,5.21l4.77,7.37l8.68,1.3
		l6.93,14.74l0,0l7.38,5.21l0,0l-4.34,3.47l-2.17,9.97l-19.08,2.6v9.11l-1.93,2.06l0,0l-7.17-3.8l0,0l-7.37-3.47l-5.21-0.86
		l-6.07-3.04l-4.77-9.11l-6.5-5.63l-9.98,2.6l-4.77-0.43l-6.07-5.64l-6.07-8.24l-7.8-0.43l-2.6,4.33l-10.41-1.3l-7.37-13.87l0,0
		v-7.81l0,0l-10.41-13.44v-7.81l1.3-9.97l-0.87-12.57l2.91-17.31l0,0l1.01,1.46l3.29,1.6l0.85,2.38L185.61,134.61z"/>
	<path id="ME-SLK" fill="#1E3250" stroke="#1E3250" stroke-width="0.5" d="M288.36,566.06l-0.96,2.71l-21.44,25.95l38.11,32.04
		l-2.95,6.25l0,0l-4.64-0.66l0,0l-9.44-0.859l0,0l-8.34-6.08l-8.24-10.84l-13-4.34l-3.04-6.5l-5.64-4.341l-4.77-16.909l-3.03-6.94
		l-3.04-1.3h-6.5l-11.71-2.17l-3.03-3.471l-1.74-6.069l-0.43-8.67l-1.3-4.771l-7.37-8.67l0,0l1.73-1.729l0,0l-0.87-6.08l-5.63-8.23
		l2.16-4.77h3.47l3.47,3.47l5.21,1.729l3.46-2.17l8.68,3.9l0,0v3.91l0,0l-3.91,2.16l-1.73,4.779l0.43,6.5l1.3,2.601l5.21,3.47
		l1.3,3.04l5.64,3.03l1.73,4.34l11.27-3.04l4.77-2.17l6.94-1.3l11.71,3.04l7.8,6.5l3.91,2.17L288.36,566.06z"/>
</g>
</svg>
