<?xml version="1.0" encoding="utf-8"?>
<!-- Generator: Adobe Illustrator 15.0.0, SVG Export Plug-In . SVG Version: 6.00 Build 0)  -->
<!DOCTYPE svg PUBLIC "-//W3C//DTD SVG 1.1//EN" "http://www.w3.org/Graphics/SVG/1.1/DTD/svg11.dtd">
<svg version="1.1" id="Layer_1" xmlns:amcharts="http://amcharts.com/ammap"
	 xmlns="http://www.w3.org/2000/svg" xmlns:xlink="http://www.w3.org/1999/xlink" x="0px" y="0px" width="649.333px" height="768px"
	 viewBox="0 0 649.333 768" enable-background="new 0 0 649.333 768" xml:space="preserve">
<defs>
	
	
		<amcharts:ammap  projection="mercator" bottomLatitude="50.750938" leftLongitude="3.359304" topLatitude="53.560347" rightLongitude="7.227792">
		</amcharts:ammap>
</defs>
<g>
	<path id="NL-DR" fill="#1E3250" stroke="#1E3250" stroke-width="0.5" d="M467.85,123.65l4.33,1.6l2.011-5.29l1.17-0.36l0.37-3.37
		l2.689-8.21l3.38-3.69l0.49-2.55l5.03-2.74l1.399-1.34l0.09-0.93l5.351-1.39l2.75-0.32l5.399,1.93l1,2.58l0.601,0.02l2.34,4.09
		l1.14,3.18l2.391-0.81l1.18,4.1h1.32l3.54,3.11l1.06,2.92l1.74,2.13l0.04,1.81l9.25-3.71l6.57,0.35l1.25,0.84l29.779,31.93
		l12.71,18.61l1.53,1.33l3.34,0.89l-4.49,10.91l3.761,0.4l0.489,1.85l0.591-0.05l2.34,3.43l1.029,1.04l1.25-0.13l-0.54,2.72
		l3.181-0.16l0,0l-3.311,7.5l-2.649,43.5l-2.2,2.6l-4.7-1.17l-1.22-1.17l-1.92,0.13l-2.7-1.38l-3.39,2.08l-2.67,0.26l-2.95-0.88
		l-0.45-1.59l-2.93-1.01l-2.5,0.26l-1.13-0.94l-1.69,1.04l-1.8,0.18l-2.351-0.88l-2.27,1.14l-5.89-1.3l-2.091,0.73l-0.52,0.83
		l-1.44-0.52l-2.6,0.78l-4.87,5.05l0,0l-1.82-0.11l1.521-5.74l-15.03-6.46l-10.1,2.27L499,240.2l0.94,9.78l-2.221-2.08l-4.489-0.32
		l-1.511-1.69l-1.12,2.47l-2.67,0.37l-1.479-1.28l-0.55-2.02l-1.96,2.47l-1.431-0.73l-0.5,0.91l-1.51-0.05l-1.82,1.43l-1.34-1.56
		l-0.399-2.71l-1.78-3.82l-5.84-4.22l0.38-1.69l-0.54-0.93l-4.12,1.06l-1.1,0.91l-1.431-1.58l-1.71,0.88l-1.34-1.25l-1.13-0.08
		l-1.771-2.11l-2.689-0.72l-1.59-1.49l-2.11,0.5l-0.85,1.17l-2.41-0.68l-1.22,0.5l-3-3.57l-5.801-14.96l1.061-1.49l6.71-2.42
		l0.189-1.26l5.16-5.71l-10.77-12.33l-2.351-3.63l0,0l13.311-9.42l4.21-5.86l3.89-3.74l7.5,0.55l4.97,5.1l9.37-6.7l5.521-10.45
		l-10.351-16.08l0.69-8.93l-9.44-3.57L467.85,123.65z"/>
	<path id="NL-FL" fill="#1E3250" stroke="#1E3250" stroke-width="0.5" d="M327.09,271.35l-0.68-0.75l2.77-7.32l3.85-2.49l0.3-1.12
		l-1.82-5.61l-8.78-14.14l0,0l0.36-0.26l0,0l8.85,14.14l1.87,6.05l-0.4,1.27l-3.91,2.44l-2.1,5.11L327.09,271.35z M372.13,190.84
		l1.58,0.31l1.25,1.23l1.08-0.44l-0.98-2.95l3.17,0.97l5.73,5.8l0.98,3.79l0.59-0.34l0,0l3.58,4.88h2.9l3.59,1.25l10.22,8.35
		l3.29,9.31l1.109,0.57l2.061,3.75l-0.38,1.59l-2.881,2.16l-1.789,2.03l0.06,0.89l5.81,1.59l2.521,2.21l2.58,0.7l2.279,2.52
		l-0.79,1.35l-3.56,2.37l-5.24,1.14l-3.88,2.63l-2.34,0.29l-2.06-1.35l-9.32,2.05l-1.25,1.04l-9.38-0.03l-0.06,6.86l5.19,0.21
		l6.74,7.19l1.74,8.62l0,0l-3.47,12l-1.85,0.16l-2.21,4.22l0.85,1.61l-2.07,3.55l-3.08,3.03l-7.85,6.37l-1.35-0.49l0.17,0.85
		l-2.33,2.12l-3.07,1.99l-2.96,0.41l-4.32,3.7l-1.33-0.98l-5,2.74l-1.27-0.98l-2.69,0.88l-1.85,2.87l-6.88,19.91l-19.92,5.93l0,0
		l-11.11-10.58l0,0l-3.81-3.77l-4.65-3.07l-9.73-2.449l-11,1.88l-2.23-2.07l0,0l1.03-1.68l-2.12-1.4l0.66-1.24l-0.27-5.01l-1.63-3.1
		l0.03-1.53l5.41-3.26l0.81-1.86l7.18-4.24l2.59-0.44l1.46-2.04l23.64-16.37l2.58-0.8l6.12-5.5l0.3-0.99l-0.6-2.1l-0.98,0.21
		l0.14-1.38l0.74,0.23l1.66-1.3l2.44-4.62l5.48-0.57l5.36-5.12l-0.48-0.96l0.55-0.55l0.52,0.86l4.48-4.6l10.59-3.07l3.51-2.89
		l-5-8.06l-2.83-2.08l0.52-0.44l-0.74-0.96l-1,0.18l0.27-26.71l10.57-17.2L372.13,190.84z"/>
	<path id="NL-FR" fill="#1E3250" stroke="#1E3250" stroke-width="0.5" d="M317.98,128.19l2.55,1.68l1.38,3.55l-3.05-0.21l-1.38-2.44
		l-0.35-2.34L317.98,128.19z M312.42,128.35l0.06,1.1l-5.74,1.26l-12.99,11.45l-0.08,0.68l-1.66,0.79l1.41-0.03l-1.58,0.21
		l-5.62,4.88l0,0l-0.65-0.87l0,0l5.51-4.83l-0.09-0.58l0.73-0.39l-0.49,0.84l14.79-13.05l4.78-1.66L312.42,128.35z M270.93,66.85
		l4.19,0.79l0.41,1.32l-1.22,1.14l-0.71-0.32l0.3,0.55l-1.91-0.32l-2.36,0.66l-3.17,2.59l-11.3,4.67l0.74,3.11l-1.47,0.87l0.05,2.56
		l-3.86,1.58l-2.15,2.32l-4.45,0.53l-2.9,1.58l-1.31-0.37l-0.76-2.24l8.96-5.67l7.12-7.1l9.3-6.34L270.93,66.85z M282.06,71.45
		l-2.01,1.93l-1.96-0.05l0.92-0.98l-1.09-0.95l4.04-4.12l1.49-0.4l0.36,1.74L282.06,71.45z M448.11,39.72l-3.69,5.38l0.93,5.74
		l1.681,1.8l5.899,1.8l1.721,3.41l2.96-1.43l5.52,1.9l-0.84,7.32l1.96,1.22l-2.311,1.58l-1.229,3.38l-1.47-0.19l-1.17,0.69
		l0.17,5.52l-0.82,0.4l-0.71-0.5l-1.28,2.74l-0.96,0.37l0.46,0.66l-0.81,0.98l0.16,2.03l-2.74,0.45l2.67,4.88L454,91.03l-1.49,2.79
		l-1.6,1.74l-1.42,0.42l-0.221,1.4l-3.319,5.58l-0.7,9.42l4.83,5.29l5.21,0.79l4.37-0.18l2.31,1.24l2.09,2.6l3.801,1.52l0,0
		l-1.28,3.52l9.43,3.57l-0.68,8.93l10.35,16.08l-5.52,10.45l-9.37,6.7l-4.97-5.1l-7.5-0.55l-3.891,3.74l-4.21,5.86l-13.31,9.41l0,0
		l-6.11,4.02l-2.77-0.1l-1.79,0.73l0.21,3.19l-3.73,2.01l-0.71-1.44l-4.13,1.12l-2.09-0.99l-2.15-5.38l-2.83,0.94l-0.02,1.38
		l-1.47-0.6l-2.41,0.52l-0.71,0.86l0.02,2.04l-4.21,3.97l-3.31,1.57l-5.87-1.57l-1,0.57l-0.35-1.07l-2.17-1.49l-3.78,2.64l0,0
		l-0.59,0.34l-0.98-3.79l-5.73-5.8l-3.17-0.97l0.98,2.95l-1.08,0.44l-1.25-1.23l-1.58-0.31l0,0l0.11-1.12l-1.46,0.57l-0.7-1.49
		l-3.99-0.21l0.11-0.99l-0.92,1.7l-1.68-0.29l-0.73-0.84l0.3-2.09l-1.77-1.31l-4.23,2.46l-2.21-0.31l-2.83,0.65l-1.06,2.77
		l-4.15,1.57l-14.86-5.7l-5.43,1.65l-4.35-2.2l-4.46-4.1l-2.5-3.64l2.79-3.4l4.53-2.12l0.87-1.23l0.16-2.67l-0.84-4.14l-0.87-1.05
		l1.79-0.86l-0.6-0.42l1.08,0.03l0.43-1.96l-0.55-1.39l-0.76,0.03l1.17-0.29l0.16-1.21l-1.72-5.4l-0.57-4.43l1.38-2.33l0.05-2.7
		l-1.39-0.39l-0.25-1.44l0.73-0.29l0.11-1.1l0.43,0.31l-0.21-3.94l-0.55,3.81l-0.6,0.42L321,137.2l-1.55-1.71l-0.25-1.55l1.22-0.21
		l0.82,0.71v-0.68l0.67-0.05l0.49,0.79l0.73-0.1l-1.77-3.44l-0.3-3.13l-1.71-3.26l-5.93,4.89l-0.92-1.52l2.07-0.74l4.42-4.28
		l0.51-3.44l2.56-1.55l1.35-1.76l1.83-11.34l-0.05-1.11l-1.06-1.05l1.9-1.76l2.6-7.96l1.61-2.58l5.49-5.64l7.14-4.46l4.42-4.54
		l0.96-2.69l4.4-4.44l4.46-2.3l11.87-3.73l11.6-7.03l16.19-7.46l3.31-1.91l-1.6-2.7l0.439,0.61l0.351-0.37l0.979,2.28l4.561-0.03
		l8.609-2.97l0.43,0.45l2.36-0.42l4.21-1.35l8.36-1.09l2.55,0.69l0.28-0.69l0.319,0.69l0.67-1.03l6.95,1.46l6.28-2.97l1.06-0.08
		L448.11,39.72z M342.85,30.28l-2.01,0.479l5.13-0.19l-0.11,2.54l-3.18,1.62l-2.07-0.13l-4.62,2.86l-2.31-0.98l0.29,2.25l-3.67-1.46
		l2.03,1.93l2.45,0.93l-1.2,0.16l-0.49,0.95l-10.11,0.26l-2.47,0.64l-6.12,4.87l-3.29,1.51l-1.87-0.69l-0.38,0.74L307,49.06
		l-0.6,1.27l-5.85-0.58l-2.47,2.17l-0.74-0.56l-2.61,0.32l-0.66,0.9l0.09,1.9l-1.8-0.4l-3.45,3.31l-1.87-0.45l-2.66-1.93l-0.44-3.28
		l3.4-3.33l2.18-3.89l0.28,0.771l0.66-2.22l19.88-3.89l1.25,0.27l15.4-5.01l13.39-5.46l3.12-0.58l2.71,0.53l-0.33,0.95L342.85,30.28
		z M427.56,26.92l0.271,2.12l-0.4-0.69l-2.17,1.86l-0.87-0.42l-0.33-1.48l0.921-1.35L427.56,26.92z M374.01,26.86l19.15-1.56
		l19.37,0.05l1.739,0.85l-0.899,0.95l-1.601,0.34l-8.449-0.21l-2.96,1.64l-13.34,3.66l-4.64-0.03l-0.41,1.27l-0.02-1.7l-7.67-0.82
		l-3.31,3.31l-5.71,1.54l-0.49,1.25l-5.44-2.83l-2.59-3.6l0.63-4.93l2.39-2.09l10.44,2.63L374.01,26.86z M441.64,13.81l1.421,0.27
		l1.55,1.46l4.51,0.48l18.02-2.2l5.78-0.24l0.29,0.45l-2.77,1.96l-8.671,3l-1.06,1.33l-3.96,1.86l-7.82,1.14l0.74,1.25l-1.12-1.11
		h-4.229L444,24.52l-0.16-1.01l-1.08,0.21l-0.71,0.88l0.41,0.56l-1.77,0.16l0.569,2.02l-3.21-0.27l-1.649,1.59l-0.681-0.48
		l0.66-3.34l1.66-4.03l1.42-2.07l3.88-3.08l-6.189-1.75l-1.17,2.97l-1.03-0.16l0.11-0.96l1.09-2.52L441.64,13.81z"/>
	<path id="NL-GE" fill="#1E3250" stroke="#1E3250" stroke-width="0.5" d="M396.24,273.37l2.149-0.8l2.46,2.18l3.21,4.51l2.15,5.11
		l1.2-0.55l0.62,0.57l2.939-1.73l1.37,1.97l6.891-7.13l1.71-0.6l1.109-1.32l4.641,3.01l1.819,3.68l3.65,2.1l1.35,1.63l0.46,6.53
		l4.21,5.2l0.99,3.55l-1.97,7.96l-3.311,1.58l-3.14,0.6l-0.63,0.87l0.26,1.53l2.34,1.55l-2.87,1.89l-0.01,5.141l-0.91,3.119
		l1.57,0.211l0.63,4l2.71,0.359l0.33,0.601l1.271,2.6l0.13,2.5l2.84,4.6l-0.91,2.32l2.69,1.05l1.96-0.18l-0.19,1.42l-1.44,1.57
		l0.431,1.649l2.42,1.11l0.72,1.88l0.32-0.77l-0.87-1.521l0.62,0.26l0.16-1.16l0.72,0.771l0.59-2.53l4.13,0.03l2.311,1.729
		l5.05,1.051l3.62,0.26l0.08-0.75l1.04,0.36l2.199-1l1.21,1.39l3.271,0.03l2.66-0.42l0.09-2.19l2-1.49l4.75-0.93l5.52,0.62
		l-0.05,1.29l1.76,3.43l3.19,3.34l1.3,2.63l2.3,0.721l0.94,3.38l2.58,1.95l3.56-0.9l6.29,1.03l5.801-1.42l2.52,2.22l-0.4,1.47
		l1.33,1.23l2.65-2.37l1.61,1.34l0.779-1.36l0.66,0.051l3.26,1.72l0.73,1.26l-0.54,1.37l0.41,4.01l-1.681,2.7l8.49,2.979l7.13-0.05
		l0,0l-0.68,5.32l-0.55,0.87l-0.54-0.51l-0.92,0.869l0.92,2.11l-1.96,2.44l-6.73,1.13l0.261,1.439l-1.601,3.311l0.22,3.28h4.32
		l6.15,2.949l2.06,2.42l6.46,4.841l0.3,1.279l2.86,0.44l0.57,6.59l-0.46,0.81l-2.101,0.08l-2.439,1.33l-0.41,5.46l-3.811,5.17
		l-2.899,1.2l-0.351,1.23l-2.34,0.819l-0.76,1.4l-1.49,0.72l-2.62-2.069l-1.89-2.87l-2.32-0.25l-6.3,2.989l-1.01,1.051l-1.351-0.23
		l-7.319,2.45l-3.07,2.43l-1.16-0.92l-1.2,0.49l-6.029,4.06l-1.16,2.131l-4.57,1.659l-3.149-3.05l-2.801,1.67l-0.79-1.84
		l-5.539-2.15l-0.73,2.91l3.68,2.66l-1.21,1.69l0.7,2.45l-0.68,0.02l0.52,1.77l-0.649,0.58l-2.66-1.76l-3.46-0.53l-0.38-2.199
		l-1.141-1.021l-7.64-0.34l-1.03-4.67l-3.04-1.46l-1.2-0.18l-2.659,1.59l-6.92-0.11l-4.171-3.42l-0.109-1.02l1.21-0.23l-0.34-1
		l-3.391-2.58l-0.21,0.48l-1.88-1.181l-3.609,0.62l-1.07,0.82l-1.17-0.92l-2.12,2.43l2.45,0.05l2.779,1.71l0.971,3.84l3.08,2.48
		l0.29,5.05l-5.761-1.729l-4.76-0.36l-5.59-3.99l-0.87,1.61l-1.03,0.439l0.221,1.4l-3.21,2.28l-0.521-0.54l-1.87,0.689l-0.81,1.61
		l-1.86,0.94l-2.3,0.26l-4-1.48l-2.561,3.17l2.101,1.631l-0.51,0.659l-1.261-0.3l-0.189,0.84l2.689,1.45l2.21,2.3l-0.739,2.271
		l0.51,1.05l2.35,0.56l-1.04,1.051l-0.17,1.35l1.09,1.25l-0.079,0.74l-5.37,3.75l-0.341,1.7l0,0l-2.93,0.79l-1.35-1.73l-1.8-0.56
		l-0.521-2.86l-2.99-3.82l-4.279,0.25l0.8,3.73l-0.891,0.939l0,0l-2.37-0.43l-10.97,1.78l-3.4-0.25l-2.23-1.431l-2.28-3.439
		l-3.75-0.92l-3.09-3.83l-2.96-0.51l-1.69-1.07l-3.07-5.54l-2.79-0.18l-5.56-2.58l-4.72,0.59l-1.88,2.55l-1.02,0.311l-3.29-0.82
		l-2.43-2.42l-1.57-0.51l-1.54,0.659l-1.48,3.521l-2.85,1.1l-3.23-0.05l-1.58-0.66l-1.96-2.399l-1.3,0.02l-5.9,8.91l-1.74,7.68
		l-8.98,5.07l-4.62-0.87l-3.35,1.74l-4.84-2.5l-3.72,0.81l-5.19-0.68l-5.59,1.42l-0.06-1.86l2.53-2.569l-1.03-1.3l0.43-3.11
		l-3.61-1.76l-2.39-2.07l-1.88,0.25l-1.54,1.64l-1.69-0.08l-3.23-4.64l-4.24-1.94l-3-3.81l0,0l2.37,0.05l1.03-4.979l-3.4-0.46
		l-0.95-1.58l0.34-1.41l-0.58-1.86l0.41-0.43l1.8,1.58l4.01-0.101l1.53,0.61l2.9-1.86l-1.09-0.67l-0.15-1.739l4.32-1.28l1.67-3.17
		l3.67,0.439l0.65-2.869l2.19-4.061l0.75,0.35l-0.1-1.609l6.93-12.391l0,0l2.17,1.41l2.88,0.23l3.2-4.53l1.2-0.31l4.86,3.609
		l4.57,0.87l2.45,1.641l1.35,0.079l1.93-0.979l2.82-2.89l5.15,0.18l4.97-1.9l3.12-2.33l4.32,0.851l3.7-0.08l3.2,2.26l5.11,1.89
		l2.28,2.721l5.33,1.58l2.68,1.8l1.59-1.41l0.91,0.51l-0.07-1.31l0.94-0.23l-0.71-3.89l0.58-1.72l-1.6-1.891l-1.03-3.16l-2.26-1.38
		l-1.06-2.77l-2.42-1.82l0.87-0.02l0.21-4.49l-3.01-1.13l0.21-1.771l-1.21-0.52l1.24-7.54l-0.26-2.01l-0.96-0.641l-0.13-1.85
		l-0.6-0.41l0.03-2.189l-1.33,0.72l-0.41-0.48l-1.41,0.36l1.33,3.439l-0.11,0.511l-1.28-0.38l-0.51,0.899l1.05,0.431l-1.52,1.619
		l-2.72-0.18l-0.41,1.39l-3.2,0.49l-3.75-2.6l1.71-2.181l2.28-1.439l-0.21-2.67l1.46-1.83l-1.11-0.72l3.27,0.34l-0.63-1.601
		l-1.5-1.149l0.58-1.37l1.73-0.25l0.77-1.49l-2.13-1.06l0.19-1.88l-2.91-0.61l0.22-1.73l-1.46-1.52l-8.56-1.72l-0.65-2.99l2.52-0.72
		l0.36-3.5l-6.47-5.28l1.82-7.83l0,0l19.92-5.93l6.89-19.91l1.85-2.87l2.69-0.88l1.26,0.99l5-2.74l1.33,0.979l4.32-3.699l2.96-0.41
		l3.07-1.99l2.33-2.12l-0.18-0.86l1.35,0.49l7.85-6.36l3.08-3.03l2.08-3.55l-0.86-1.61l2.22-4.22l1.85-0.15L396.24,273.37z"/>
	<path id="NL-GR" fill="#1E3250" stroke="#1E3250" stroke-width="0.5" d="M542.88,27.47l1.39,0.34l2.551-2.07l2.75,1.11l0.33,0.93
		l-0.4,1.3l-2.75-0.56l-0.11,0.5l2.471,0.61l-0.17,0.72l-1.44,0.19l4.35,0.69l0.11-0.53l-1.54-0.53l0.67-2.54l3.1,0.98l3.5,3.34
		l-1.329,4.77l-0.171,3.71l2.29,3.31l-0.43,0.69l0.78,0.71l-0.21,2.78l1.74,7.91l5.67,4.1l-0.931,1.85l10.13,3.81l2.221,1.66
		l6.06,1.69l4.68-0.11l0.66-0.95l2.82-1l0.03,0.69l-2.33,2.14l-0.05,4.23l-1.271,3.51l1.19,2.56l2.449,1.66l5.471,0.4l1.609,1.19
		l1.87,0.5l1.09-0.42l1.471,1.11l5.409,1.66l0.551-2.03l1.34,11.63l-1.49,2.61l2.96,2.74l-3.78,1.16l-2.149,4.69l-0.061,2.53
		l-1.55,2.21l0.63,4.39l2.851,2.1l-0.33,8.75l2.06,17.36l0.811,2.07l-1.28,1.6l-4.16,15.26l-12.14,20.13l-2.63,3.37l-0.351,0.76
		l0.79,2.95l0,0l-3.18,0.16l0.54-2.72l-1.25,0.13l-1.03-1.05l-2.34-3.42l-0.59,0.05l-0.49-1.86l-3.771-0.39l4.49-10.91l-3.34-0.89
		l-1.54-1.33l-12.71-18.6l-29.78-31.94l-1.25-0.84l-6.57-0.34l-9.26,3.71l-0.03-1.81l-1.739-2.13l-1.061-2.92l-3.54-3.1h-1.31
		l-1.19-4.11l-2.39,0.82l-1.14-3.19l-2.341-4.08l-0.6-0.03l-1-2.58l-5.4-1.92l-2.75,0.32l-5.35,1.4l-0.09,0.92l-1.391,1.34
		l-5.029,2.74l-0.49,2.55l-3.39,3.69l-2.69,8.21l-0.36,3.37l-1.17,0.37l-2.01,5.28l-4.34-1.6l0,0l-3.8-1.52l-2.09-2.6l-2.311-1.24
		l-4.37,0.18l-5.21-0.79l-4.83-5.29l0.7-9.42l3.32-5.58l0.22-1.4l1.42-0.42l1.601-1.74l1.489-2.79l0.221-1.19l-2.67-4.88l2.739-0.45
		l-0.159-2.03l0.81-0.98l-0.46-0.66l0.96-0.37l1.28-2.74l0.71,0.5l0.819-0.4l-0.17-5.52l1.17-0.69l1.471,0.19l1.229-3.38l2.311-1.58
		l-1.96-1.22l0.84-7.32l-5.521-1.9l-2.96,1.43l-1.72-3.41l-5.9-1.8l-1.68-1.8l-0.93-5.74l3.689-5.38l0,0l1.391-0.4l0.05,1.01
		l0.63,0.03l7.55-1.88l6.521,3.31l2.359,2.52l4.101-3.04l9.29-3.92l26.319-3.36l21.9-8.03l8.85-0.88L542.88,27.47z M482.21,10.71
		l0.74,0.13l-0.08,0.66l-4.07-0.61l1.17-0.53L482.21,10.71z M510.46,9.17l1.11,0.19l-0.66,1.25l-2.55-1.35l1.199-0.56L510.46,9.17z
		 M515.16,4.65l-0.11,0.53l-2.229-0.29l0.79,1.94l-3.24-1.54l-2.561,0.24l-0.38-0.5l1-1.54l1.011-0.29l3.42,0.37L515.16,4.65z
		 M495.68,4.01l2.561,0.58l2.67,2.63L497.7,6.74l-1.01-0.98l-0.33,2.07L494,7.57l-0.85,0.58l0.489,1.27l-0.779,0.53l-1.391-0.4
		l-0.71-0.58l-0.35-2.1l-2.521-2.31l0.78-4.46l0.6,0.08l0.681,2.31L495.68,4.01z"/>
	<path id="NL-LI" fill="#1E3250" stroke="#1E3250" stroke-width="0.5" d="M396.56,469.39l0.891-0.939l-0.8-3.73l4.279-0.25
		l2.99,3.82l0.521,2.86l1.8,0.56l1.35,1.73l2.93-0.79l0,0l0.28,1.43l6.03,0.15l5.16,2.76l1.42,2.14l1.43,0.51l-0.21,1.141h-1.61
		L422.04,482l1.01,3.21l-0.71,1.81l0.65,3.54l7.37,3.36l0.949-0.33l0.36,0.71l4.64,0.811l-1.79,6.21l-1.199,2.87l-0.601-0.28
		l-0.43,4.02l4.75,3.71l0.99,1.9l4.279,4.14l3.73,7.42l3.39,2.66l2.261,3.96l-0.03,5.29l1.609,4.95l-0.689,6.35l-0.83,0.36
		l-0.06,4.58l-1.19,6.96l3.14-0.15l-1.87,3.49l1.87,6.45l-5.62,5.18l0.391,1.49l-3.83,0.83l-2.29,6.24l-3.94,5.45l-1,2.93
		l-6.01,6.63l-2.1,1.29l2.24,4.78l-2.851,1.04l1,9.22l1.41,2.74l2.69,0.399l3.609-2.819l6.771-3.271l2.63,2.04l-6.7,3.32l5.57,3.8
		l-1.94,1.34l-0.08,1.05l-5.41,0.811l-3.39,2.21l-2.41,0.43l-0.88,2.69l-0.82-0.48l-1.22,1.811l-2.47,1.029l-0.21,1.28l-1.96,2.271
		l-1.83,1.399l-1.76,0.53l-0.7-0.43l-0.95,0.71l-2.5,2.39l-0.95,1.9l-1.47,0.529l0.26,0.811l-1.71,2.08l-0.32,4.069l-1.77,0.82
		l0.3,1.41l-3.53,0.149l-3.659-7.83l-3.521,3.261l-4.18,0.58l0.279,1.56l1.891,2.311l-0.891,1.75l1.011,2.56l2.609,1.96l-0.04,1.48
		l1.471,0.649l-0.221,3.561l-1.63,1.81l0.74,1.45l1.14,0.069l4.601-2.649l3.12-0.7l2.12,2.23l2.3-0.98l6.859-0.229l-1.58,5.119
		l-1.569,1.551l1.819,1.13l0.46,4.609l4.181,1.5l0.85-0.3l0.69,0.65l-0.181,1.229l3.23-0.229l2.25,1.399l0.93-1.02l-2.04,3.05
		l-1.08,4.101l2.2,4.93l-1.899,3.28l-0.471,3.369l-2.58-1.3l-0.319-1.05l-5.82,2.53l-0.11,3.47l1.61,3l-0.84,0.45l0.27,0.77
		L419.2,710.2l-0.76,0.2l-2.96-1.87l-1.561,1.819l-0.13,1.5l2.03,0.601l1.88,2.37l4.399,2.699l-1.569,2.921l0.68,1.619l-6.28,0.421
		l-1.359-1.921l-1.69-0.399l-7.05,2.95l-0.44-1.101l-1.359,0.15l-0.7,0.85l-1.93-1.399l-0.58-3.091l-3.771,1.94l-1.66,1.72
		l-0.96-2.489l-2.09,1.35l-3.67,0.77l-2.58-3.64l-1.38,0.57l-1.34-3.54l-1.59,0.27l-4.08,5.29h-1.8l-1.33-0.92l-0.84,1.05
		l-2.66,1.141l-2.36-0.641l2.9-6.069l-1.44-3.471l1.04-2.47l-0.9-1.42l-2.12-0.18l-0.25-1l-3.48-0.92l-0.13-1.15l-1.01-0.58
		l0.3-1.32l-1.74-3.369l0.2-4.53l1.14-0.97l-0.6-0.75l0.41-0.551l3.58-1.899h1.33l0.57-1.681l1.94-2.05l0.84-3.609l1.2-0.25
		l1.65,0.949l0.82-0.42l0.95-4.16l1.9-2.399l0.89-2.8l1.72-0.86l-0.99-2.43l-1.11-0.2l-2.47,1.41l-1.08-0.58l-0.14-1.28l7.17-8.899
		l0.01-3.03l1.56-3.34l-2.87-2.681l2.12-4.29l0.37-2.87l2.78,1.011l1.35-0.71l-0.53-2.83l1.32-1.76l-1.47-2.971l2.13-1.2l2.33,0.931
		l1.25-1.36l0.22-1.43l-0.65-0.96l-3.13-0.75l0.03-1.891l2.25-2.76l2.64-0.53l0.73-2.29l1.55-1.079l-2.95-2.29l0.21-0.881
		l-2.06-2.819l-1.6,2.189l-1.53-0.859l-4.27,2.72l-0.38-0.93l0.63-1.811l-1.25-0.529l-0.17-0.75l1.17-0.99l-0.78-0.17l0.4-1.36
		l-1.47-1.51l-3.36-1.21l-0.77,0.88l-3.47,0.18l-1.23,0.95l-3.18-1.1l-1.95,0.569l-0.82-0.75l-2.12,0.12l-1-1.609l-0.03-1.58
		l-13.9-5.87l0,0l4.62-1.41l-0.03,0.55l4.02-2.02l0.97-10.511l7.04-10.02l32.14-10.03l9.29-7.96l-9.59-16.35l-1.86-10.57l-1.21-3.09
		l-2.33-16.061l8.4,1.65l2.66,2.11l5.21-0.54l10.41-3.851l3.89,3.98l0.92-0.891l1.63-0.149l-1.14-2.18l-0.021-4.271l-2.13-3.61
		l-0.63-5.819l-3.979-3.891l-3.94-2.64l-0.25-1.27l1.23-3.591l-3.301-1.04l1.181-2.8l-1.44-7.46l-2.89-1.53l-4.38-0.59l-2.65-1.069
		l-1.1-1.4l-1.07-5.66L396.56,469.39z"/>
	<path id="NL-NB" fill="#1E3250" stroke="#1E3250" stroke-width="0.5" d="M259.91,453.21l3.01,3.8l4.24,1.94l3.23,4.64l1.69,0.08
		l1.54-1.63l1.88-0.25l2.39,2.07l3.61,1.76l-0.43,3.11l1.03,1.3l-2.53,2.569l0.06,1.86l5.59-1.43l5.19,0.689l3.72-0.819l4.84,2.5
		l3.35-1.73l4.62,0.87l8.97-5.07l1.74-7.68l5.9-8.91l1.3-0.03l1.96,2.4l1.58,0.66l3.23,0.05l2.85-1.1l1.49-3.521l1.54-0.66
		l1.57,0.51l2.44,2.431l3.29,0.819l1.01-0.31l1.88-2.55l4.72-0.59l5.57,2.58l2.79,0.18l3.07,5.54l1.69,1.07l2.96,0.51l3.08,3.83
		l3.75,0.92l2.28,3.439l2.23,1.431l3.4,0.26l10.97-1.79l2.37,0.43l0,0l2.029,1.91l1.061,5.66l1.109,1.4l2.641,1.069l4.38,0.59
		l2.9,1.53l1.439,7.46l-1.189,2.8l3.31,1.04l-1.23,3.59l0.25,1.271l3.94,2.64l3.97,3.891l0.631,5.819l2.14,3.61l0.02,4.271
		l1.141,2.18l-1.63,0.149l-0.92,0.891l-3.891-3.99l-10.41,3.86l-5.21,0.53l-2.66-2.11l-8.399-1.65l2.33,16.061l1.22,3.09l1.85,10.57
		l9.591,16.35l-9.29,7.96l-32.141,10.03l-7.04,10.02l-0.96,10.521l-4.02,2.02l0.03-0.55l-4.62,1.41l0,0l-0.6-0.53l-0.71-4.92
		l0.14-5.77l-4.62-4.311l-1.76-3.08l-4.05-1.14l-0.95-0.08l-2.86,3.79l-3.85,0.729l-0.49,1.49l-0.89,0.1l-2.6,3.46l-11.31-3.029
		l-1.57,3.08l-6.73,0.35l-4.78-1.21l-4.41,1.01l-1.44-1.39l2.14-9.51l-6.19-4.011l-4.13,1.36l-1.77,1.39l-4.46-1.359l-0.41-8.261
		l-9.53-11.529l5.16-9.84l-4.15-9.83l-5.22-0.33l-1.12-1.931l0.08-1.67l-0.71-0.3l-3.99,3.85l-0.9,6.891l-6.22,5.27l-5.55,6.98
		l-0.54-0.83l0.3,0.99l-1.01,0.46l-1.14-0.33l1.6-0.431l-2.14-1.47l-1.57-2.83l-0.93,0.561l-1.28-0.86l0.19-0.609l-0.6,0.479
		l-1.38-0.35l-1.41,1.949l-2.52-1.489l-0.81,0.68l-1.17-0.53l-7.47,1.49l-2.77-1.521l-0.68-3.34l0.93-0.939l1.72-0.15l0.41,0.811
		l6.3,2.029l1.23,1.11l1.28-0.03l-0.51-0.56l1-0.86h-2.71l-1.03-5.97l1.68-2.91l0.84,0.66l0.87-0.79l-1.57-1.19l0.85-4.51
		l-3.15-0.76l-0.85-2.86l-6.92-2.31l-3.17,1.189l-1.12,2.53l-2.55,1.34l-2.18,3.851l-1.93,0.46l-1.63,3.85l-4.1,1.87l0.38,4.43
		l-1.63,0.53l-1.17-0.43l-1.9,0.99l-1.74-0.891l-8.42-1.57l-6.31,2.351l-0.85-6.58l2.72-5.95l-1.68-2.46l-10.1,1.19l-1.58,1.649
		l-3.42,0.61l-9.27,4.91l-0.73,0.909l2.26,0.28l1,2.68l-0.92,0.561l0.35,1.21l-1.76,1.7l1.35,3.31l6.2,8.17l-0.87,1.04l0.82,1.721
		l-1.44-0.28l-4.37,2.2l-2.71,0.25l-5.55-0.761l-1.22-4.75l-9.19,0.28l0,0l-0.54-1.59l-1-0.13l-0.52-1.141l0.66-2.279l-0.81-4.96
		l1.9-2.4l-8.85-19.84l-0.03-1.95l2.67-8.07l0.09-2.54l-1.41-2.79l-5.22-6.399l-0.74-2.59l1.34-4.75l1.8-1.78l4.35-1.91l1.68-3.15
		l0,0l4.29,0.511l9.08-2.521l3.29-1.53l2.79-2.26l1.46-3.439l2.44-2.98l0.89-0.03l0.44-1.149l3.21-2.7l11.88,3.97l3.48,0.36
		l11.87-3.26l2.5-2.011l9.97-2.85l4.79-3.39l5.51-5.33l2.25-5.74l2.45-2.91l4.57-1.99l7.91,0.101l3.39-2.141l2.86-2.96l3.73-1.859
		l4.38-0.41L259.91,453.21z M249.37,548.14l-1.35,1.971l-0.14-1.65l-0.51,0.43v-0.939l-0.87,0.53l0.59,0.71l-0.27,1.54l-0.9,0.46
		l3.59,1.569l0.55-0.779l-0.38-0.631l0.98-0.68l-1.42-0.38l-0.19-0.81l0.97,0.1l-0.62-1.11l1.5-0.76l0.22,0.53l0.98-1.16l-0.35-0.58
		l-0.74,0.73l-2.93,0.05L249.37,548.14z M251.87,548.95l-0.71-0.58l-0.41,0.43L251.87,548.95z M242.78,553.78l-0.4,0.53l0.43-0.101
		L242.78,553.78z M249.51,557.48l-1.6,0.46l0.59,0.579l-0.66,0.561l1.84-0.3L249.51,557.48z"/>
	<path id="NL-NH" fill="#1E3250" stroke="#1E3250" stroke-width="0.5" d="M307.38,228.33l8.62,3.83l7.09,7.5l0,0l-0.36,0.26l0,0
		l-7.01-7.42l-8.23-3.59h-2.78L307.38,228.33z M212.99,155.72l-8.24,1.021l-1.69,0.92l0.81,0.81l-0.55,0.55l-1.39-0.1l-0.87-1.34
		l0.9-1.68l4.13-2.44l3.37,0.47l3.42,1.23L212.99,155.72z M268.4,164.24l-2.14,1.729l-0.38,2.49l1.47-0.26l10.35,20.25l-1.52,18.28
		l1.22,0.08l0.67,1.17l0.87,3.63l4.43,4.51l1.17,0.39l1.77,0.03l1.41-0.94l2.52-3.7l4.46,0.26l3.39,1.77l3.54-0.7l0.43,0.5
		l-1.55,0.55l2.15-0.13l1.85,1.23l0.68,7.14l3.1,1.9l-1.2-0.1l-0.22,1.38l-2.94,1.67l0.51,1.3l-5.79,1.48l-1.65,7.31l-0.79,1.17
		l-3.69,2.06l-1.5,2.16l-3.92,1.01l-2.33,2.47l-5.05,0.88l-1.17-3.33l-2.15,0.16l-2.63-2.78l-2.2,0.65l-1.17,1.2l-0.21-0.68
		l-1.36,0.21l0.11,0.96l-1.08-1.95l-0.93,0.03l-1.16,1.25l-2.75,1.25l-0.44,1.01l0.81,7.2l-0.43,1.01l1.93,5.38l-0.25,1.66
		l1.91,1.79l1.91,4.26l-0.11,1.53l2.5,5.16l0.7,0.03l-0.17,1.01l1.08,0.88l0.66,2.2l-2.34,3.53l-1.11-0.08l-0.47,0.62l0.08,2.72
		l1.16,1.35l-0.1,1.11l-2.72-0.13l-1.91,0.96l-0.7-0.41l1.31,2.07l0.79-1.06l1.08,0.26l-0.81,1.66l0.02,3.68l4.78,0.91l1.65-0.41
		l0.3-3.26l1.46-1.92l-1.27-7.72l1.82,5.26l1.36,1.66l3.75,0.28l-3.75,1.61l-1.09,1.14h-1.17l-0.47,3.21L273.7,296l-0.7,0.34
		l-0.08-0.91l-1.15,1.04l-1.5,4.35l-2.07-0.1l-1.22,1.79l-2.2,1.47l-1.22,3.41l-2.14,1.141l0.43,0.67l-0.63,1.859l-1.82-1.27
		l-2.83,1.19l-2.64-2.381l-0.71,0.83l0.47,1.24l2.55,1.32l-1.22,1.399l-0.47-1.06l-0.85,0.72l3.29,2.12l2.42,2.92l2.34,0.47
		l2.18-1.029l1.12,1.09l-0.98,1.37l0.44,0.96l0.74-0.08l-0.16-0.7l1.42,0.54l4.02-0.21l1.28-0.93l2.28,0.34l2.99,2.25l4.15,1.06l0,0
		l2.23,2.07l11-1.88l9.73,2.45l4.65,3.069l3.81,3.771l0,0l-4.73,3.38l-4.62-0.83l-1.5,1.37l-0.93-0.41l-2.53,5.21l-3.47,3.09
		l-0.49,7.94l-4.37,8.729l-10.82-0.59l-0.28-1.13l2.93-1.96l0.84-1.49l-1.99-3.97l-1.9-1.06l-0.49,0.949l-6.79,0.181l-5.24-2.141
		l-0.63-2.189l3.31-1.49l-2.18-2.14l-0.57-2.86l-1.36,0.57l-1.5-4.69l4.05-1.21l0.17-1.14l1.28-0.67l1.2,0.93l-0.76-1.99l-1.68,0.13
		l-1.23,1.471l-1.5-1.261l-0.71,0.21l-2.14,2.681h-0.7l-1.36-3.2l-0.98-0.41l-2.45,0.18l-2.63,2.63l-4.45-0.93l-1.2,0.521
		l0.21,2.239l-2.33,1.7l-1.17,2.24l-6.77,0.13l-5.54,5.26l-2.98,1.37h-2.47l0,0l-1.65-0.359l-1.55,0.67l-0.92,1.34l-4.76,2.649
		l-1.23,1.551l-0.92-0.7l-0.24-5.59l-3.09-0.49l-2.66,1.83l-3.61,0.28l-5.13,2.989l-3.24,0.23l-4.6-1.21l-1.68,0.569l-2.33-0.54
		l-1.08-0.88l-0.16-1.31l1.39-2.11l1.25-6.55l-0.29-2.04l3.13-3.17l3.81-8.44l-4.3-1.63l-2.14,0.591l-1,1.859l-10.74-4.85l0,0
		l10.57-27.46l0.85-6.03l0.81-1.11l-0.6-1.71l3.07-7.78l4.05-22.58l4.65-39.09l1.42-6.7l2.28-5.04l2.67-9.06l3.67-14.66l0.82-3.79
		l0.7-14.14l1.68-4.48l1.42-1.31l6.98-0.63l-0.13,0.58l1-0.05l-0.79,0.66l1.19,1.83l1.16-0.31l0.55-1.28l-0.97-0.86l1.54-0.31
		l0.4,2.04l-1.98,5.48l2.6,5.55l10.79,6.54l5.14-1.36l4.97-2.51l2.42-3.06l0.68-2.33l1.5-1.34l5.43-1.57l1.84,0.52l2.47-0.81
		l1.33,0.94l19.91-17.64l0,0l0.65,0.87l0,0L268.4,164.24z M240.79,107.05l1.28,0.26l3.04,5.21l-0.81,1.68l-0.32-0.87l-0.13,12.46
		l-0.62,1.89l-3.85,3.39l-0.14,2.71l-1.69,3.05l-1.68,0.87l-1.28,1.89l-3.88,0.94l-4.26,5.54l0.71,0.89l-0.46,0.66l-6.46-2.05
		l-0.41,0.34l0.6,1l1.84,0.73l1.44,1.55l-1.52-0.47l-1.71,1l0.43,0.58l-2.9,0.31l-1.61,1.1l-2.69-4.01l-0.55-2.86l0.25-4.88
		l1.82-7.9l4.53-9.35l11.52-18.15l4.07-4.32l1.46-0.55l1,0.42l2.48,3.92L240.79,107.05z"/>
	<path id="NL-OV" fill="#1E3250" stroke="#1E3250" stroke-width="0.5" d="M436.89,186.27l2.351,3.63l10.77,12.33l-5.16,5.71
		l-0.189,1.26l-6.71,2.42l-1.061,1.49l5.801,14.96l3,3.57l1.22-0.5l2.41,0.68l0.85-1.17l2.11-0.5l1.59,1.49l2.689,0.72l1.771,2.11
		l1.13,0.08l1.34,1.25l1.71-0.88l1.431,1.58l1.1-0.91l4.12-1.06l0.54,0.93l-0.38,1.69l5.84,4.22l1.78,3.82l0.399,2.71l1.34,1.56
		l1.82-1.43l1.51,0.05l0.5-0.91l1.431,0.73l1.96-2.47l0.55,2.02l1.479,1.28l2.67-0.37l1.12-2.47l1.511,1.69l4.489,0.32l2.221,2.08
		L499,240.2l6.03-4.63l10.1-2.27l15.03,6.46l-1.521,5.74l1.82,0.11l0,0l2.2,2.94l-1.08,6.96l7.5,6.62l-3.07,0.86l-3.479-0.78
		l-1.67,3.72l-5.511-1.12l3.94,8.23l-1.12,8.94l9.95,6.45l2.61,0.78l12.1-0.02l-0.01,2.43l1.63-0.34l12.359,4.02l3.301-2.57
		l2.33-4.92l1.76-1.24l2.18,4.79l1.3,5.41l1.771,1.61l2.229,5.64l3.63,0.41l2.37,6.75l-0.109,5.511l-2.66,3.72l-1.41,3.43
		l-0.27,2.53l-3.04,6.38l0.239,4.23l2.53,4.689l3.17,3.54l-0.7,1.62l-3.43,2.22l-3.12,0.561l-2.39-0.95l-2.88,0.7l-0.88,1.21
		l-0.62,3.58l-3.88,6.619l-6.87,1.33l-0.45,1.7l-3.55,3.3l-1.5,6.71l-2.66,2.57l-15.021,0.59l0,0l-7.13,0.05l-8.49-2.979l1.681-2.7
		l-0.41-4.01l0.54-1.37l-0.73-1.26l-3.26-1.72l-0.66-0.051l-0.779,1.36l-1.61-1.34l-2.65,2.37l-1.33-1.23l0.4-1.47l-2.52-2.22
		l-5.801,1.42l-6.29-1.03l-3.56,0.9l-2.58-1.95l-0.94-3.38l-2.3-0.721l-1.3-2.63l-3.19-3.34l-1.76-3.43l0.05-1.29l-5.52-0.62
		l-4.75,0.93l-2,1.49l-0.09,2.19l-2.66,0.42l-3.271-0.03l-1.21-1.39l-2.199,1l-1.04-0.36l-0.08,0.75l-3.62-0.26l-5.05-1.051
		l-2.311-1.729l-4.13-0.03l-0.59,2.53l-0.72-0.771l-0.16,1.16l-0.62-0.26l0.87,1.521l-0.32,0.77l-0.72-1.88l-2.42-1.11l-0.431-1.649
		l1.44-1.57l0.19-1.42l-1.96,0.18l-2.69-1.05l0.91-2.32l-2.84-4.6l-0.13-2.5l-1.271-2.6l-0.33-0.601l-2.71-0.359l-0.63-4
		l-1.57-0.211l0.91-3.119l0.01-5.141l2.87-1.89l-2.34-1.55l-0.26-1.53l0.63-0.87l3.14-0.6l3.311-1.58l1.97-7.96l-0.99-3.55
		l-4.21-5.2l-0.46-6.53l-1.35-1.63l-3.65-2.1l-1.819-3.68l-4.641-3.01l-1.109,1.32l-1.71,0.6l-6.891,7.13l-1.37-1.97l-2.939,1.73
		l-0.62-0.57l-1.2,0.55l-2.15-5.11l-3.21-4.51l-2.46-2.18l-2.149,0.8l0,0l-1.74-8.61l-6.74-7.2l-5.19-0.2l0.06-6.86l9.39,0.02
		l1.25-1.04l9.32-2.05l2.061,1.35l2.34-0.29l3.87-2.62l5.239-1.15l3.561-2.36l0.79-1.36l-2.28-2.52l-2.57-0.7l-2.52-2.21
		l-5.811-1.59l-0.06-0.89l1.79-2.03l2.88-2.16l0.38-1.59l-2.06-3.75l-1.11-0.57l-3.29-9.31l-10.22-8.35l-3.59-1.25h-2.9l-3.58-4.88
		l0,0l3.79-2.64l2.16,1.49l0.35,1.07l1-0.57l5.87,1.56l3.311-1.56l4.21-3.97l-0.021-2.04l0.71-0.86l2.41-0.52l1.47,0.6l0.021-1.39
		l2.83-0.94l2.149,5.38l2.091,1l4.13-1.13l0.71,1.44l3.729-2.01l-0.199-3.19l1.789-0.73l2.771,0.1L436.89,186.27z"/>
	<path id="NL-UT" fill="#1E3250" stroke="#1E3250" stroke-width="0.5" d="M227.2,348.02h2.47l2.97-1.369l5.54-5.261l6.77-0.13
		l1.17-2.24l2.33-1.699l-0.21-2.25l1.21-0.511l4.44,0.921l2.63-2.631l2.45-0.18l0.98,0.42l1.36,3.19h0.7l2.14-2.681l0.71-0.199
		l1.5,1.26l1.24-1.47l1.67-0.131l0.76,1.99l-1.2-0.93l-1.28,0.67l-0.18,1.13l-4.05,1.22l1.51,4.69l1.36-0.57l0.57,2.86l2.18,2.14
		l-3.31,1.5l0.64,2.19l5.23,2.14l6.79-0.18l0.49-0.96l1.9,1.06l2,3.971l-0.84,1.489l-2.93,1.96l0.28,1.13l10.83,0.591l4.37-8.73
		l0.49-7.939l3.46-3.091l2.53-5.21l0.94,0.41l1.5-1.359l4.62,0.819l4.73-3.38l0,0l11.11,10.58l0,0l-1.82,7.83l6.47,5.28l-0.36,3.5
		l-2.52,0.72l0.65,2.99l8.56,1.72l1.46,1.52l-0.22,1.73l2.91,0.61l-0.19,1.88l2.13,1.06l-0.77,1.49l-1.73,0.25l-0.58,1.37l1.5,1.149
		l0.63,1.601l-3.27-0.34l1.11,0.72l-1.46,1.83l0.21,2.67l-2.28,1.439l-1.71,2.181l3.75,2.6l3.2-0.49l0.41-1.39l2.72,0.18l1.52-1.619
		l-1.05-0.431l0.51-0.899l1.28,0.38l0.11-0.511l-1.33-3.439l1.41-0.36l0.41,0.48l1.33-0.72l-0.03,2.189l0.6,0.41l0.13,1.85
		l0.96,0.641l0.26,2.01l-1.24,7.54l1.21,0.52l-0.21,1.771l3.01,1.13l-0.21,4.49l-0.87,0.02l2.42,1.82l1.06,2.77l2.26,1.38l1.03,3.16
		l1.6,1.891l-0.58,1.72l0.71,3.89l-0.94,0.23l0.07,1.31l-0.91-0.51l-1.59,1.41l-2.68-1.8l-5.33-1.58l-2.28-2.721l-5.11-1.89
		l-3.2-2.26l-3.7,0.08l-4.32-0.851l-3.12,2.33l-4.97,1.9l-5.15-0.18l-2.82,2.89l-1.93,0.979l-1.35-0.079l-2.45-1.641l-4.57-0.87
		l-4.86-3.609l-1.2,0.31l-3.2,4.53l-2.88-0.23l-2.17-1.41l0,0l-4.98-1.819l-1.55-5.07l-3.64-1.8l-3.01-0.48l-4.7,1.971l-4.38,4.149
		l-1.23,2.36l-1.6,0.18l-2.44-1.92l-1.83-0.109l-4.4,4.39l-4.48-1.03l-3.34,5.17l-6.2,1.49l-1.29-5.05l-4.55-5.15l-2.04-3.99
		l-1.21-0.409l-1.4-1.87l6.34-1.57l-1.15-2.82l-6.38,1.311l-0.44-1.44v-0.92l1.39-1l-0.27-1.93l3.18-4.021l2.61-1.979l3.31-1.21
		l0.8-1.641l-6.48,0.44l0.06-1.37l-1.17-2.33l-0.18-6.24l-5.41-3.89l0.26-1.05l1.94-0.87l1.22-3.37l1.27-0.54l2.4-0.77l0.37,1.51
		l0.88,0.7l4.23,0.229l0.79-0.62l-0.59-4.04l3.29-1.619l-5.3-3.681l-2.39-0.85l-4.84-5.79l-1.07,0.05l-0.23-3.89l-1.12-1.851
		L227.2,348.02z"/>
	<path id="NL-ZE" fill="#1E3250" stroke="#1E3250" stroke-width="0.5" d="M122.86,569.59l0.62-0.25l0.73,1.57l-1.84,0.35l-2.44-1.42
		l1.19-0.78L122.86,569.59z M29.64,559.63l2.94,0.94l-0.02,0.729l1.47,0.05l1.57,1.851l3.5,0.63l1.41,1.21l11.11,2.28l5.13,5.359
		l2.75-0.25l3.88,0.78l-0.57,1.95l1.66,0.88l0.67-0.25l-0.17-3.08l3.05,0.08l1.72,1.34l1.52,0.23l-0.49,0.96l1.16,2.25l0.08-3.061
		l0.6,1.24l0.82-1.189l2.85,1.67l4.04-0.101l1.41-2.3l2.36-0.71l3.51-2.83l6.44-2.12l0.78,0.61l0.68-4.05l0.87-0.94l-0.51-3.08
		l1.65-2.33l6.9,1.37l-0.32,0.53l1.96,1.439l0.57,3.141h0.65l2.14,3.72l6.57,0.63l8.1,7.45l-2.58-4.12l2.71-0.71l0.98,1.37l1.6,0.5
		l1.08,1.74l0.41-0.631l-1.03-1.369l2.48,0.13l-2.94-1.19l4.79,0.101l-0.66-0.66l-4.43-0.45l-1.31-2.25l0.08-1.16l1.69-0.1
		l1.57-0.96l0.43,3.08l3.4,1.539l-3.07-2.5l0.33-1.569l0.6,1.39l0.81-2.88l2.86,0.43l1.12,0.86l0.65,2.15l2.66,3.489l-10.35,13.891
		l-16.33,11.71l-0.54,0.96l-2.91,0.68l-0.95-1.06l-1.84,1.01l-0.57-0.96l-1.04,0.03l-4.27,2.97l-0.3-0.38l-1.41,2.34l-2.26,0.4
		l-0.71,1.939l-3.59,1.03l-1.23-1.97l-0.48,0.81l-0.92,0.05l-0.29,1.94l-1.06,0.88l-3.77,1.28l-1.23-1.84l2.29-2.32l-0.93-1.561
		l-4.59,3l-1.11-0.68l-1.49,0.55l-0.92-0.38l-2.18,1.11l-2.83-1.03l-0.09,1.16l-2.01-1.561l-0.25-7.59l0.97-2.67l-2.86-1.97
		l-0.71-0.3l-0.95,0.93l-2.28-2.6l-4.54-0.61l-1.01,0.4l-3.5-1.011l-0.93-1.31l-1.68-0.03l-3.34-2.399l-2.74,0.5l-7.83-4.37
		l-1.57,1.87l0.76,1.359l-0.62,1.59l-3.13-1.989l-1.22,1.21l-1.79-0.23l-0.81,1.721l-0.87,0.13l-1.19-1.19l-1.55,0.3L26.68,599
		l-11.93,1.18l-3.85-0.909l-0.71-2.7l-1.14-1.08l-1.14,0.729l-3.24-4.21l-1.96-1.06l0.95-0.78l-0.03-1.439l-1.68-1.41l-0.62-1.57
		l1.42-0.76L0,581.39l3.99-4.52L3.7,574.6l-1.36-1.77l0.1-2.65l-1.31-2.529l2.15-2.101l0.3,0.38l6.63-3.39l1.31-0.2l0.9,1.01
		l2.86-1.72l4.64-1.09l3.5-2.3l5.13,0.38L29.64,559.63z M52.44,525.81l0.54-1.01l0.14,0.66L52.44,525.81z M63.8,523.22l1.82,0.41
		l-3.77,0.23l0.27-0.96L63.8,523.22z M66.14,522.63l-0.93-0.689l1.15,0.199L66.14,522.63z M64.77,521.92l0.17,0.84l-2.15-0.609
		L64.77,521.92z M51.4,521.69l1.61,1.63l-0.79,2.109l-1.25-3.12L51.4,521.69z M49.07,519.21l0.41,0.53l-1-0.18L49.07,519.21z
		 M75.57,469.26l1.31,1.28l4.53,1.43l1.61-0.31l3.21-4.08l5.47-2.24l2.93,0.41l2.25,2.04l6.04,1.35l1.08,3.391l2.61,3.7l0.24,4.939
		l1.9,4.46l8.1,1.021l2.99,1.069l5.3,0.181l12.41,9.06l2.96,0.97l0,0l-1.68,3.15l-4.35,1.91l-1.8,1.78l-1.34,4.75l0.74,2.59
		l5.22,6.399l1.41,2.79l-0.09,2.54l-2.67,8.07l0.03,1.95l8.85,19.84l-1.9,2.399l0.81,4.961l-0.66,2.279l0.52,1.141l1,0.13l0.54,1.59
		l0,0l-5.7,0.25l0.4-1.92l-1.95-3.24l-2.88-1.319l-1.04,0.199l-1.03-1.62l-7.8,2.811l-11.3-3.14l-4.32-3.261l-0.78-1.52l0.55-0.86
		l-2.55-0.79l-0.16-1.09L106,551l-3.97-2l-4.54-4.53L91,547.86l-1.47-0.48l0.17,1.29l-0.71,0.15l0.7,2.46l-3.97,9.97l-1.11,0.53
		l-3.53-1.061l-2.14,1.54l-6.82,1.641l-6.41-5.261l0.27-1.09l-1.95-0.13l-1.71-1.11l-1.49,0.83l-2.01-0.229l-0.92-0.76l-0.84-2.94
		l-0.79,0.08l-2.39-3.21l-3.54-2.561l-4.86-0.199l-1.91,2.149l-4.18,0.41l-1.17-0.939L38.14,547l-0.55,0.08l-0.1,2.1l-0.79-0.229
		v-0.83l-0.33,0.68l-0.33-0.89l-0.21,0.63l1.63,1.21l-4.3,0.08l-1.79-2.28l-0.93,0.08l-4-3.42l-4.53-7.45l-6.85-4.92l-3.34-3.83
		l0.93-4.01l9.34-6.32l11.57-6.58l4.75,0.051l4.21,1.55l7.77-2.79l0.97-5.16l-0.85-1.04l1.14-0.2l3.78-4.22l-0.24-0.48l0.78-0.199
		l0.96-2.11l-0.51-0.64l0.78-0.23l0.03-2.88l-2.34-0.74l-1.82-1.5l-2.22-4.2l-0.17-3.29l2.53-5.199l1.84-1.4l9.84-3.19l8.26,0.82
		l0.68-3.16L75.57,469.26z M70.57,486l-0.98-0.99l-0.73,0.13l-0.71,0.511l-0.33,1.76l-4.68,3.18l-5.51,2.16l-0.05,2.82l0.79,0.1
		l-0.3,1.07l-0.87,0.03l-1.31,3.18l0.9-0.18l-1.44,1.579l1.46,0.761l-1.58-0.46l-0.62,2.21l-0.89-1.53l-1.46,1.27l-1.22,6.051
		l0.24,0.479l0.84-0.609l0.03,0.51l1.57-0.33l2.64,1.91l1.84,0.029l5.6-1.93l1.9,0.41l1.01-0.96l3.59-0.86l2.93,0.561l2.58-0.61
		l0.62,0.79l3.05,0.561l1.69,1.8l2.61,4.55l0.52-0.46l-0.49,0.71l1.65,2.56l-0.19,0.79l-3.75,1.42l-1.77,2.391l-1.27,0.41l-3.47-3.2
		l-2.75,0.63l-1.87,1.52l-6.96-1.83l-4.23,2.46l-4.84,4.9l-0.79-1.78l0.44-1.52l1,1.899l0.05-0.68l-2.96-5.53l1.9-2.489l-2.41,2.29
		l-3.97-3.2l-1.23-0.2l-1.25-3.17l0.29-1.32l-3.04,1.271l0.28,2.359l2.63,3.761l3.73,2.21l2.36,5.76l2.74,4.24l0.25-0.46l0.54,0.989
		l-0.35-0.909l2.53-0.41l-1.87-0.05l-0.46-0.61l3.58-1.8l-0.54-1.04l1.2-3.04l1.77-1.141l0.76,0.051l-0.43,1.02l0.68-0.74l7.03,0.36
		l2.06-1.22l3.64-0.63l1.99,0.81l0.84,1.37l1.88,0.38l0.93-1.29l0.59,0.84l2.5-0.689l2.22,0.43l1.91-1.14l2.25,0.38l2.37,4.64
		l2.45-1.069l1.84,0.329l5.41,1.95l0.16,2.05h0.49l-0.17-2.029l1.96,0.81l0.66,1.34l3.43,2.641l1.17-0.36l1.3,4.03l-0.6,1.7
		l3.73,5.6l0.82,0.03l1.42,3.09l7.12,3.65l2.42-0.41l4.48-2.61l3.05,0.53l1.55,0.96l1.74-0.13l-1.03-13.021l-6.8-3.069l-0.63-1.57
		l0.89-1.83l-1.52-1.75l-2.39-0.41l-1.17,0.74l-1.23-1.12l-5.16,0.36l-4.41-0.811l-0.17-0.96l-1.17-0.529l-0.57-2.561l-1.65-1.04
		l-0.09-1.189l-3.69-1.07l0.43-1.19l-1.01-1.5l-3.29-2.08l-2.17-0.33l-0.87-1.17l1.08-2.869l5.14-0.99l4.84-3.13l3.48-1.07
		l4.05,0.69l0.98,1.88l1.72,0.97l-0.21-0.71l4.46-0.53l2.04,0.51l0.27-0.739l1.84-0.28l0.08-0.561l-0.74-0.199l1.04-0.58l-0.06-0.92
		l-2.78,0.689l-4.68-0.13l-1.53-3.08l-2.48-1.58l-0.13-2.64l0.92-0.1v-0.811l2.37-2.09l4.49,0.89l6.85,3.891l-0.79-2.521l-4.83-2.14
		l0.16-1.4l-1.08,0.99l-2.12-0.74l-0.11-0.739l3.29,0.079l-0.78-1.04l-2.61,0.511l2.47-0.99l0.71,0.36l0.47-0.641l-1.52-2.88
		l-6.52,1.45l-2.17,1.5l1.71,2.06l-0.27,0.761h-0.74l-0.6,2.31l-2.17,1.35l-1.87,2.471l-1.88,0.92l-1.49-0.66l-6.31,3.36L96.56,506
		l-3.61-2.72l-1.36-2.37l-2.03,1.6l-4.43-1.09l4.57-3.99l-1.31,0.33l-4.37,3.46l0.08-2.42l-1.01-3.38l-1.39-1.71l0.08-1.12
		l-2.77-2.62l-1.71,0.2l-3.91-2.01l0.11-1.53l-0.82-1.22l-1.71-0.53l-1.01,0.13l0.08,0.61L70.57,486z"/>
	<path id="NL-ZH" fill="#1E3250" stroke="#1E3250" stroke-width="0.5" d="M155.8,478.39l3.15,2.341l-3.97-0.15l-1.09-1.2
		L155.8,478.39z M143.96,470.44l5.3,1.02l7.771,3.19l0.95,1.27l-3.66,1.43l-4.53-0.59l-7.82-5.3l0.79-1.12L143.96,470.44z
		 M179.49,322.71l10.74,4.85l1-1.859l2.14-0.59l4.3,1.63l-3.81,8.439l-3.13,3.17l0.29,2.04l-1.25,6.551l-1.39,2.109l0.16,1.311
		l1.08,0.88l2.33,0.54l1.68-0.57l4.6,1.21l3.24-0.229l5.13-2.99l3.61-0.28l2.66-1.83l3.09,0.49l0.24,5.59l0.92,0.7l1.23-1.55
		l4.76-2.65l0.92-1.34l1.55-0.67l1.65,0.359l0,0l0.06,1.7l1.12,1.851l0.22,3.89l1.08-0.05l4.84,5.79l2.39,0.85l5.3,3.681
		l-3.29,1.619l0.59,4.04l-0.79,0.62l-4.23-0.229l-0.89-0.69l-0.36-1.52l-2.41,0.77l-1.27,0.54l-1.22,3.37l-1.95,0.87l-0.25,1.05
		l5.41,3.88l0.17,6.24l1.17,2.34l-0.06,1.36l6.49-0.44l-0.81,1.641l-3.31,1.21l-2.61,1.979l-3.18,4.03l0.27,1.92l-1.39,1v0.92
		l0.44,1.44l6.38-1.311l1.15,2.82l-6.35,1.56l1.41,1.87l1.2,0.41l2.04,4l4.56,5.15l1.28,5.04l6.2-1.48l3.34-5.17l4.48,1.03l4.4-4.38
		l1.84,0.1l2.44,1.92l1.6-0.18l1.23-2.36l4.38-4.149l4.7-1.971l3.01,0.49l3.64,1.79l1.55,5.07l4.98,1.819l0,0l-6.93,12.391
		l0.1,1.609l-0.74-0.359l-2.2,4.069l-0.65,2.86l-3.67-0.43l-1.66,3.17l-4.32,1.28l0.14,1.739l1.09,0.67l-2.9,1.87l-1.53-0.609
		l-4,0.1l-1.8-1.58l-0.41,0.43l0.59,1.87l-0.35,1.41l0.95,1.58l3.4,0.46l-1.03,4.98l-2.37-0.051l0,0l-9.95-1.81l-4.38,0.41
		l-3.73,1.859l-2.86,2.961l-3.39,2.14l-7.91-0.101l-4.57,1.99l-2.45,2.91l-2.25,5.74l-5.51,5.33l-4.79,3.39l-9.97,2.851l-2.5,2.01
		l-11.87,3.26l-3.48-0.36l-11.88-3.97l-3.21,2.7l-0.44,1.149l-0.89,0.03l-2.44,2.98L160,492.13l-2.79,2.261l-3.29,1.529l-9.08,2.521
		l-4.29-0.511l0,0l-2.96-0.97l-12.41-9.06l-5.3-0.181l-2.99-1.069l-8.1-1.021l-1.9-4.46l-0.24-4.939l-2.61-3.7l-1.08-3.39
		l-6.04-1.351l-2.25-2.04l-2.93-0.41l-5.47,2.24l-3.21,4.08l-1.61,0.31l-4.53-1.43l-1.31-1.28l0,0l2.9-1.859l1.44-3.75l0.32-1.86
		l-1.66-5.51l2.63-2.99l6.93-1.58l11.16-4.439l3.26,0.05l1.58,0.74l0.68,0.64l-1.42-0.28l-0.22,1.12l3.85,2.78l-0.3-1.33h1.49
		l1.49-2.4l2.42-1.51l-0.63-2.58l-5.1-7.92l0.25-1.939l3.1-5.37l-0.11-0.79l-2.09-1.431l-0.55,2.07l-2.28-1.05l-2.91,1.05
		l-0.85-0.79l2.44-9.37l0.05-2.1l-0.79,0.1v-1.38l0.97-2.25l1.8-0.33l1.55-1.82l1.47,0.671l1.46-0.23l4,2.28l8.67-7.33l3.77-5.75
		l15.65-18.891l1.06,0.461l0.74-1.101l-0.82,0.64l-0.38-0.75l6.93-6.939l11.79-16l10.54-18.89L179.49,322.71z M108.57,451.27
		l-0.41,2.761l1-0.69l17.94,10.29l4.94,1.76l3.45,3.771l3.99,3.109l3.1,4.181l4.24,2.88l6.84,3.21l7.88,0.69l1.58-0.561l1.79-4.81
		l-13.32-7.261l-10.85-3.29l-2.91-3.34l0.06-2.35l-2.41-2.68l-2.26-1.25l-2.82-0.03l-4.27-4.8l-4.79,0.51l-1.09-1.48l-0.32,1.051
		l-0.6-0.771l-3.77-1.33l-2.37-2.99l-3.05,1.53L108.57,451.27z"/>
</g>
</svg>
