<?xml version="1.0" encoding="utf-8"?>
<!-- Generator: Adobe Illustrator 15.0.0, SVG Export Plug-In . SVG Version: 6.00 Build 0)  -->
<!DOCTYPE svg PUBLIC "-//W3C//DTD SVG 1.1//EN" "http://www.w3.org/Graphics/SVG/1.1/DTD/svg11.dtd">
<svg version="1.1" id="Layer_1" xmlns:amcharts="http://amcharts.com/ammap"
	 xmlns="http://www.w3.org/2000/svg" xmlns:xlink="http://www.w3.org/1999/xlink" x="0px" y="0px" width="652.5px" height="606.5px"
	 viewBox="0 0 652.5 606.5" enable-background="new 0 0 652.5 606.5" xml:space="preserve">
<defs>
	
	
		<amcharts:ammap  projection="mercator" bottomLatitude="49.002699" leftLongitude="14.122232" topLatitude="54.834793" rightLongitude="24.149724">
		</amcharts:ammap>
</defs>
<g>
	<path id="PL-DS" fill="#1E3250" stroke="#1E3250" stroke-width="0.5" d="M51.93,352.21l13.01-9.76l8.96,5.37l3.91-11.771
		l5.65,0.271l6.79,7.89l6.84-6.97l0.26-3.5l6.41-1.971l2.07-8.319l-2.23-1.11l3.09-5.12l6.71-2.31l0.41-5.79l11.59,3.89l-0.96,5.24
		l3.32-0.21l3.49,5.01l9.03-12l0,0l7.73,0.08l4.86,3.32l2.2,4.22l-1.49,4.67l7.83,1.25l1.9,4.561l10.1,5.38l14.74-2.16l0.68-6.08
		l5.02-1.64l10.41,1.97l6.79,8.61l-4.13,3.22l2.18,9.91l11.94-1.04l-1.79,6.739l2.22,1.2l-0.2,8.44l3.25,5.27l0,0l-8,3.011
		l-3.76-2.771l-3.79,3.47l2.15,6.94l-3.75,2.189l1.33,6.65l-6.77,2.31l-0.22,5.53l-3.59-1.479l-0.97,2.42l2.74,1.09l-4.2,3.78
		l1.16,6.229l-3.82-0.979l-1.87,2.239l2.32,2.521l-4.26,3.04l2.21,2.27l-0.81,6.79l-7.62,1.15l-4.27,13.45l-6.06-1.5l-2.46,3.39l0,0
		l-3.14,3.82l3.09,1.75l2.31,7.05l3.41,1.25l1.51,6.939l-1.77,1.23l-1.37-2.71l-8.01,3.61l-9.46,10.25l-6.63-4.2l-1.45-7.41
		l-7.49-9.49l-3.22-0.75l-1.35-4.81l-4.98,1.18l-5.1-6.22l7.11-7.13l2.92,0.489l5.1-7.409l-6.22-8l-6.61-0.881l-2.89,4.2
		l-5.15-3.399l-4.76,6.18l-2.31-1.41l2.15-1.6l-1.93-5.2l-7.87,0.94l-2.8-7.761l-6.69,1.75l-16.3-6.819l-3.95,2.949l-0.42-5.63
		l-5.48-5.21l-0.17-8.62l-2.19-1.899l-4.1,1.22l-0.14-3.26l-2.42,2.89l-4.16-3.17l-4.64,1.15l-1.03,1.979l3.27,2.25l-1.23,9.681
		l-10.88-0.4l8.56-17.45l4.6-18.8L51.93,352.21z"/>
	<path id="PL-KP" fill="#1E3250" stroke="#1E3250" stroke-width="0.5" d="M199.53,139.83l1.83-9.57l5.46-4.05l0.85,3.64l5.08-1.19
		l3.9,2.64l-0.92-2.94l3.92-0.19l1.32-8.95l8.97-2.12l-1.95-5.15l5.3,0.52l3.58,3.4l4.24-6.08l5.86,4.06l6.1-0.04l-0.25,4.37
		l11.97,1.53l3.46-1.85l2.15,5.07l6.14-4.13l7.05-0.47l-1.82,5.83l1.84,3.84l8.36,1.09l-0.17,1.82l5.48-1.92l9.22,1.2l0,0l3.42,1.53
		l4.47,16.68l1.9,1.37l5.13-2.49l3.68,5.08l3.93-0.77l1.43,3.71l9.13-0.77l2.7,7.66l-2.48,3.79l3.16,0.74l1.25,7.61l0,0l-7.67,4.12
		l3.34,9.16l-0.6,6.61l-7.65-3.48l1.35,3.04l-2.97,2.43l-5.12-0.99l4.13,8.54l-2.49-0.21l-2.91,4.85l6.04,6.61l0.13,4.43l-5.15-1.79
		l0.58,5.09l-5.03,4.77l3.21,2.54l-6.03,7.11l4.41,1.75l-4.7,6.35l-3.15,0.02l1.5,4.98l0,0l-4.88,3.23l0.63,2.24l-1.23-1.7
		l-9.39,2.67l0,0l-7.6-6.71l-0.58,3.36l-9.64,3.32l-4.34-9.48l-9.8-6.99l-8.25,2.87l-1.24-7.26l-6.52,6.11l-3.45-0.19l-0.49-2.18
		l-6.33-1.47l0.19-3.36l-6.57,0.94l0.48-3.47l-4.48-0.85l-2.85-5.62l-5.08-1.61l-1.38,2.32l-0.41-2.3l-5.16,5.62l-2.88-10.82
		l-6.63,3.68l-3.18-0.86l0.96-4.72l-5.05-2.8l0.33-2.92l5.78-0.32l0.9-14.06l-13.19-6.84l3.04-13.54l2.39-1.2l-3.22-1.31l-1-6.17
		l5.51-1.26l1.48-4.09l-6.04-8.07l-4.39,0.27l-1.19-3.46L199.53,139.83z"/>
	<path id="PL-LD" fill="#1E3250" stroke="#1E3250" stroke-width="0.5" d="M315.44,250.26l3.94,4.72l9.52,0.7l9.63,8.2l11.87-2.25
		l2.56-3.17l4.7,5.13l3.18-1.22l3.26,3.31l1.77,8.66l9.84,4.31l-0.76,4.71l-3.43,2.73l4.6,4.56l-2.62,4.55l4.27-0.08l0.47,2.42
		l6.81-2.88l4.61,5.25l3.7,0.19l3.22,7.31l-3.81,0.33l1.57,6.85l4.601,2.23l0.01,2.819l-2.311,3.88l-9.41-4.18l-4.62,3.78
		l4.75,10.07l-1.07,5.22l5-0.891l0.53,2.181l-6.89,13.76l0,0l-3.48,3.98l-0.08,7.18l-6.78-2.13l-1.16,5.33l-14.28,0.17l-1.11,11.47
		l4.67,1.46l-1.79,9.23l-9.45-8.311l-2.9,7.07l0.88,5.31l-5.84,6.54l0,0l-4.57,1.09l-0.37-3l-4.86-2.51l-5.58,1.98l-5.16-11.141
		l-3.69,1.07l-1.91-5.19l-3.89,1.28l-2.28,4.37l-16.61-11l-4.16,4.05l-13.22,0.51l0,0l-5-2.85l-2.15-5.46l-3.58,4.76l-1.49-2.779
		l-18.63-5.36l0,0l1.47-9.43l-4.28,0.569l-1.86-8.75l7.27-3.67l-0.67-4.89l8.21,2.37l3.35-5.511L258.3,323.2l3.53-4.5l1.64-11.65
		l3.94-3.21l0.76,2.23l10.53,0.97l6.24-10.69l-4.06-3.75l-0.82-9.57l7.11,0.59l0.87-2.7l5.27-0.13l0.05-11.61l9.8,0.05l0.68-5.93
		l-4.26-0.55l0.99-6.05l0,0l9.39-2.67l1.23,1.7l-0.63-2.24L315.44,250.26z"/>
	<path id="PL-LU" fill="#1E3250" stroke="#1E3250" stroke-width="0.5" d="M550.02,261.42l2.86,0.17l0,0l1.561,5.69l11.529,2.55
		l1.83,2.78l4.67-0.67l-0.83,2.65l3.721,4.2l3.05-0.69l3.27,3.66l2.21,8.81l-3.779,4.21l-1.5,10.68l2.34,3.97l-6.83,7l2.29,19.08
		l6,4.45l-0.8,4.2l3.229,2.6l-3.42,12.44h3.12l2.6,7.58l7.99,6.12l-0.77,4.96l3.17,2.5l3.729,11.87l10.73,7.97l-11.23,5.26
		l0.37,3.75l3.37,0.92l-0.35,4.04l3.31,0.34l1.51,8.08l-3.87,18.3l-2.229,3.25l-16.49,2.25l-11.33,13.28l0,0l-1.51-4.46l-6.87-0.81
		l1.7-4.271l-4.59-6.06l-6.57,5.05l-4.19-3.61l-9.979,10.38l-25.03-1.989l4.73-4.471l-11,1.12l-4.15-5.319l-2.229,0.38l3.529-3.71
		l-0.83-2.591l6.08,0.83l2.601-2.46l-3.851-0.46l3.04-1.029l-3.199-1.271l0.529-6.62l-6.31-0.479l-4.24-3.721l-5.5-0.479l-2.96-4.18
		l-4.26-0.19l4.14-8.58l-2.28-4.17l-6.409-1.89L482.13,408l-6.7,1.1l-2.6-3.199l0,0l-3.75-24.86l0,0l-1.1-12.521l3.149-9.159
		l-2.81-0.341l3.51-5.909l-5.63-4.49l2.6-2.61l2.24,1.01l2.03-5.63l-3.28-8.779l-6.521,0.12l-5.829-5.351l1.89-4.09l6.24,4.7
		l0.689-2.84l5.16-0.551l3.67-4.81l-3.399-5.72l6.85-4.601l-1.96-4.03l-3.96,1.16l-0.82-1.91l3.63-4.06l-1.13-9.19l9.16-5.33
		l5.32,2.11l1.529-2.48l6.891,1.67l2.83-2.8l2.04,3.39l4.59-0.7l4.63-4.85l7.61,5.78l2.84-4.66l-1.28-2.71l3.45-3.3l5.93,4.43
		l6.44,0.33l5.3-10.47l5.4,0.38l-2.641-4.26L550.02,261.42z"/>
	<path id="PL-LB" fill="#1E3250" stroke="#1E3250" stroke-width="0.5" d="M29.16,229.35l2.02-5.36l4.71,2.56l2.27-1.43l3.25-11.53
		l3.98-3.2l-0.79-3.01l3.89-1.21l-2.05-1.91l2.03-2.75l10.05,5.1l14.95-6.38l-2.16-6.48l4.55,1.01l11.51-6.61l5.7,3.18l2.63-2.22
		l2.41,1.22l7.53-13.02l8.12,1.94l-1.5,6.34l0,0l0.83,18.44l-5.09,4.53l2.6,1.13l0.64,7.19l-8.67,2.02l-1.09,10.15l7.08,16.17
		l-5.27,1.03l5.55,4.78l-3.28,27.79l4.27,4.48l3.53-0.67l-1.3,4.83l3.65,4.84l6.41-1.85l0.88,6.68l-2.21,3.12l6.07,2.36l2.75-3.51
		l3,0.8l5.46,4.6l2.21,6.55l0,0l-9.03,12l-3.49-5.01l-3.32,0.21l0.96-5.24l-11.59-3.89l-0.41,5.79l-6.71,2.31l-3.09,5.12l2.23,1.11
		l-2.07,8.319l-6.41,1.971l-0.26,3.5l-6.84,6.97l-6.79-7.89l-5.65-0.271L73.9,347.82l-8.96-5.37l-13.01,9.76l0,0l-1.36-10.33
		l-13.52-5.97l1.68-12.65l-10.14-15.83l6.32-7.939l3.91-16.11l-4.72-5.15l1.96-11.94l-7.41-3.73L25.1,250.5l6.17-9.97L29.16,229.35z
		"/>
	<path id="PL-MA" fill="#1E3250" stroke="#1E3250" stroke-width="0.5" d="M355.72,435.23l2.32-1.391l17.38,4.79l4.11,9.87l-2.5,3.74
		l4.23,3.069l-1.57,2.021l4.56,7.75l15.9-1.88l6.83-7.391l2.819,1.54l3.53-3.159l10.05-1.021l4.65-3.64l2.569,2.35l1.98-2.37l0,0
		l0.6,3.86l-4.449,5.21l1.88,4.38l-1.48,6.53l1.96,0.55l-1.77,0.41l3.14,3.41l-3.08,3.72l2.51,2.64l-2.59,4.181l1.95,5.39l6.75,2.45
		l-3.86,1.39l-0.17,3.14l-5.62,1.181l1.101,5.95l9.569,2.51l2.49,5.29l-1.87,10.2l5.801,8.949l-1.381,5.771l0,0l-7.399-2.54
		l-4.021,5.46l-5.12-3.07l-4.42,1.34l3.15,4.25l-10.64,7.25l-4-4.64l-4.07,0.35l-3.5-6.789l-7.55-0.19l-2.54,3.9l-6.37-3.66
		l-8.27,1.1l-1.22,5.561l-5.7-0.73l-4.51,3.4l-3.9,12.689l-8.49-5.17l-4.39,3.53l-5.13-0.21l-1.31-3.36l3.43-3.97l-1.96-12.271
		l-4.45,2.16l-5.35-2.04l0.66-4.6l-3.52,0.229l-3.34-10.96l-3.7-3.779l0,0l0.83-5.29l-5.96-2.431l4.61-4.34l-0.67-3.22l-7.27-1.17
		l-1.98-7.72l-7.39,0.609l1.08-8.76l-6.86,0.38l5.13-10.35l3.88-0.63l1.14-6.15l0.61,1.89l1.06-2.8l4.11-0.58l0.21-3.78l4.43-1.699
		l0.68-2.13l-7.27-6.141l3.41-2.68l7.6-0.39l-2.03-4.87l2.83,0.479l1.58-4.6l19.54-2l2.92-3.28l4.39-0.14L355.72,435.23z"/>
	<path id="PL-MZ" fill="#1E3250" stroke="#1E3250" stroke-width="0.5" d="M344.22,174.33l5.17,0.78l-0.66-3.99l5.11-3.02l-0.27,4
		l4.17,2.77l7.24-1.96l2.42,2.23l10.71,0.71l4.34-2.57l-0.66-4.69l4.84-3.75l5.94,2.12l6.32-2.68l3.761-6.22l8.069,2.02l1.32-3.05
		l3.18,0.229l0.63-4.09l7.24,2.57l13.48-9.88l5.34,1.04l5.43-4.5l8.99-1.55l0,0l5.18,11.56l-1.89,3.64l5.09,2.02l-4.12-0.48
		l-0.609,5.55l-2.061-0.37l3.87,5.18l0.49,7.92l2.31,2.78l4.51-0.55l3.631,5.47l4.439-1.07l-0.01,3.3l-2.57-0.71l-1.08,3.62
		l9.01,7.01l-2.119,2.14l2.77,6.37l10.71-0.79l0.26-2.86l3.03,0.13l0.5,3.61l1.9-0.41l-3.71,1.9l2.22,5.9l3.03,1.97l3.149-3.78
		l4.3,0.81l0.561,13.51l-4.29,4.49l8.15,9.12l-0.94,3.97l4.14,8.9l7.721,0.08l1.39,2.7l1.4-1.88l5.949,2.54l6.2-1.18l5.851,4.45
		l0.52,3.99l3.54-1.63l1.27,1.65l0,0l-5.68,6.55l2.641,4.26l-5.4-0.38l-5.3,10.47l-6.44-0.33l-5.93-4.43l-3.45,3.3l1.28,2.71
		l-2.84,4.66l-7.61-5.78l-4.63,4.85l-4.59,0.7l-2.04-3.39l-2.83,2.8l-6.891-1.67l-1.529,2.48l-5.32-2.11l-9.16,5.33l1.13,9.19
		l-3.63,4.06l0.82,1.91l3.96-1.16l1.96,4.03l-6.85,4.601l3.399,5.72l-3.67,4.81l-5.16,0.551l-0.689,2.84l-6.24-4.7l-1.89,4.09
		l5.829,5.351l6.521-0.12l3.28,8.779l-2.03,5.63l-2.24-1.01l-2.6,2.61l5.63,4.49l-3.51,5.909l2.81,0.341l-3.149,9.159l1.1,12.521
		l0,0l-3.19,2.84l-8.699-3.6l-6.23,1.71l-2.84,4.34l-6.83-7.04l-12.16,0.44l0.67-4.69l-4.45-2.44l1.75-3.159l-2.229-2.671
		l-1.48,5.521l-3.68,1.22l-6.25-2.45l-2.31,4.271l-8.5-4.46l-1.94,2.18l0.71-4.43l-5.65-4.89l-3.19,0.979l-3.53-7.51l1.31-2.9
		l-5.43-0.84l0,0l6.89-13.76l-0.53-2.181l-5,0.891l1.07-5.22l-4.75-10.07l4.62-3.78l9.41,4.18l2.311-3.88l-0.01-2.819l-4.601-2.23
		l-1.57-6.85l3.81-0.33l-3.22-7.31l-3.7-0.19l-4.61-5.25l-6.81,2.88l-0.47-2.42l-4.27,0.08l2.62-4.55l-4.6-4.56l3.43-2.73l0.76-4.71
		l-9.84-4.31l-1.77-8.66l-3.26-3.31l-3.18,1.22l-4.7-5.13l-2.56,3.17l-11.87,2.25l-9.63-8.2l-9.52-0.7l-3.94-4.72l0,0l-1.5-4.98
		l3.15-0.02l4.7-6.35l-4.41-1.75l6.03-7.11l-3.21-2.54l5.03-4.77l-0.58-5.09l5.15,1.79l-0.13-4.43l-6.04-6.61l2.91-4.85l2.49,0.21
		l-4.13-8.54l5.12,0.99l2.97-2.43l-1.35-3.04l7.65,3.48l0.6-6.61l-3.34-9.16L344.22,174.33z"/>
	<path id="PL-OP" fill="#1E3250" stroke="#1E3250" stroke-width="0.5" d="M224.52,368.97l3.1,1.561l-1.85,5.38l3.97,1.51l16.72-6.84
		l0,0l18.63,5.36l1.49,2.779l3.58-4.76l2.15,5.46l5,2.85l0,0l1.83,3.301l-4.69,5.819l0.43,9.221l-6.99,6.399l4.31,5.19l-5.64,4.2
		l2.72,7.489l4.11,1.78l0.3,5.28l-10.44,0.47l2.85,8.15l-6.23-2.36l0.88,9.13l-2.21,3.08l4.21,10.35l-4.52-0.979l-7.12,4.12
		l0.8,1.75l-11.44,1.97l0.66,6.23l-2.38,4.239l0,0l-1.82,2.57l2.44,0.21l0.05,2.96l-2.48-1.27l-8.25,4.33L223,481.38l-3.54-8.13
		l-4.17-0.5l-3.49-4.56l10.1-4.5l-2.46-10.891l-1.87-0.66l-4.48,5.87l-7.23-0.85l-3.38,2.21l-3.29-2.97l-2.06,1.76l-0.13-6.07
		l-4.05,0.83l-4.9-6.34l-17.84-5.87l0,0l2.46-3.39l6.06,1.5l4.27-13.45l7.62-1.15l0.81-6.79l-2.21-2.27l4.26-3.04l-2.32-2.521
		l1.87-2.239l3.82,0.979l-1.16-6.229l4.2-3.78l-2.74-1.09l0.97-2.42l3.59,1.479l0.22-5.53l6.77-2.31l-1.33-6.65l3.75-2.189
		l-2.15-6.94l3.79-3.47l3.76,2.771L224.52,368.97z"/>
	<path id="PL-PK" fill="#1E3250" stroke="#1E3250" stroke-width="0.5" d="M472.83,405.9l2.6,3.199l6.7-1.1l3.311-3.39l6.409,1.89
		l2.28,4.17l-4.14,8.58l4.26,0.19l2.96,4.18l5.5,0.479l4.24,3.721l6.31,0.479l-0.529,6.62l3.199,1.271l-3.04,1.029l3.851,0.46
		l-2.601,2.46l-6.08-0.83l0.83,2.591l-3.529,3.71l2.229-0.38l4.15,5.319l11-1.12l-4.73,4.471l25.03,1.989l9.979-10.38l4.19,3.61
		l6.57-5.05l4.59,6.06l-1.7,4.271l6.87,0.81l1.51,4.46l0,0l-16.02,13.82l-38.94,54.02l3.49,3.42l2.979,12.33l-1.909,12.23
		l1.949,1.42l-2.399,3.75l2.93-0.69l-1,2.221l9.17,5.779l-0.01,8.261l-2.6,0.479l-4.7-4.72l-5.391,1.29l-5.75-5.311l-10.109-0.239
		l-3.34-4.2l-8.641-0.8l-0.13-2.83l-10.7-3.141l-5.31-12.13l-7.42-4.03l-3.141,3.42l-9.579-8.76l-9.7,3.21l-4.721-1.85l0,0
		l1.381-5.771l-5.801-8.949l1.87-10.2l-2.49-5.29l-9.569-2.51l-1.101-5.95l5.62-1.181l0.17-3.14l3.86-1.39l-6.75-2.45l-1.95-5.39
		l2.59-4.181l-2.51-2.64l3.08-3.72l-3.14-3.41l1.77-0.41l-1.96-0.55l1.48-6.53l-1.88-4.38l4.449-5.21l-0.6-3.86l0,0l6.39-6.46
		l8.13-3.3l0.16-3.32l9.16-2.47l4.51-8.66l5.09-4.189l1.91,1.04L472.83,405.9z"/>
	<path id="PL-PD" fill="#1E3250" stroke="#1E3250" stroke-width="0.5" d="M533.71,44.88l8.8,2.7l-1.01,2.15l4.06,1.89l-1.119,2.89
		l2.979,1.81l3.271-1.68l5.5,5.73l6.29,0.99l9.109,10.32l2.54,9.03l-2.82,6.87l4.08,23.71l15.32,50.91l7.17,11.69l-2.78,7.74
		l4.521,12.33l-1.82,2.12l1.34,22.66l-12.42,10.6l-5.88,0.03l-10.109,5.33l-17.851,26.89l0,0l-2.86-0.17l0,0l-1.27-1.65l-3.54,1.63
		l-0.52-3.99l-5.851-4.45l-6.2,1.18l-5.949-2.54l-1.4,1.88l-1.39-2.7l-7.721-0.08l-4.14-8.9l0.94-3.97l-8.15-9.12l4.29-4.49
		l-0.561-13.51l-4.3-0.81l-3.149,3.78l-3.03-1.97l-2.22-5.9l3.71-1.9l-1.9,0.41l-0.5-3.61l-3.03-0.13l-0.26,2.86l-10.71,0.79
		l-2.77-6.37l2.119-2.14l-9.01-7.01l1.08-3.62l2.57,0.71l0.01-3.3l-4.439,1.07l-3.631-5.47l-4.51,0.55l-2.31-2.78l-0.49-7.92
		l-3.87-5.18l2.061,0.37l0.609-5.55l4.12,0.48l-5.09-2.02l1.89-3.64l-5.18-11.56l0,0l5.49-1.25l10.62,3.56l3.84-5.19l4.029-1.33
		l2.32,2.41l20.101-16.22l3.92-2.63l2.939,1.81l-0.56-3.3l7.54-3.92l1.359,1.73l1.301-3.89l5.52-2.58l4.78-10.03l-0.73-5.08
		l-10.34-13.72l1.47-4.4l-2.6-4.98l-2.75,0.49l-4.66-5.92l2.64-4.37l7.44-4l8.27-0.97l0.75-7.51l0,0L533.71,44.88z"/>
	<path id="PL-PM" fill="#1E3250" stroke="#1E3250" stroke-width="0.5" d="M254.76,0l22.84,13.61l9.27,8.47l-0.74,3.58l-6.45-9.89
		L262.46,5.04l-1.71,6.17l4.71,3.71l-0.1,6.56l2.89-0.88l3.06,9.5l-3.76,0.51l3.28,1.51l0.32,8.05l3.81,4.16l5.99,0.86l-2.08,0.64
		l2.63,2.59l9.97,2.94l2.77-2.08l3.63,2.26l12.67-0.89l13.08-3.12l13.69-6.93l-14.48,8.71l-11.38,3.15l2.31,6.46l0,0l3.71,6.59
		l-4.4,3.62l-1.75,10.98l4.45,2.02l0.01,3.59l7.25,1.8l-0.14,6.25l11.07-2.41l-6.83,18.98l-2.14-3.21l-7.87-0.26l-0.98,6.62
		l-4.71,5.03l-0.16,5.17l-5.21,3.54l0.45,2.92l0,0l-9.22-1.2l-5.48,1.93l0.17-1.83l-8.36-1.09l-1.84-3.84l1.82-5.83l-7.05,0.47
		l-6.15,4.12l-2.14-5.07l-3.46,1.85l-11.979-1.53l0.25-4.36l-6.09,0.04l-5.86-4.06l-4.25,6.08l-3.58-3.4l-5.3-0.53l1.95,5.15
		l-8.97,2.12l-1.32,8.96l-3.92,0.18l0.92,2.94l-3.89-2.65l-5.08,1.19l-0.85-3.63l-5.46,4.04l-1.83,9.57l0,0l-9.17-4.51l-8.86-0.87
		l-5.84,2.57l0.02-3.3l-3.11,0.58l-3.44-11.61l0,0l-2.17-9.18l5.27-5.36l-4.44-3.3l0.03-3.76l5.98-0.56l0.81-3.42l-6.46-3.65
		l-2.17-5.98l-3.01,1.82l0.73-14.09l-5.46-10.1l9.16-7.3l-3.55-8.57l2.7-0.69l-0.42-7.69l-7.18-12.72l0,0l10.51-2.71l22.06-14.65
		l42.29-10.21L254.76,0z"/>
	<path id="PL-SL" fill="#1E3250" stroke="#1E3250" stroke-width="0.5" d="M277.31,382.27l13.22-0.51l4.16-4.05l16.61,11l2.28-4.37
		l3.89-1.28l1.91,5.19l3.69-1.07l5.16,11.141l5.58-1.98l4.86,2.51l0.37,3l4.57-1.09l0,0l5.28,4.07l-5.13,6.479l-2.89-0.779
		l1.43,3.979l7.14,0.811l2.08,1.729l-1.57,3.351l4.13,0.63l-8.26,9.439l6.9,1.431l3,3.33l0,0l1.32,2.84l-4.39,0.14l-2.92,3.28
		l-19.54,2l-1.58,4.6l-2.83-0.479l2.03,4.87l-7.6,0.39l-3.41,2.68l7.27,6.141l-0.68,2.13l-4.43,1.699l-0.21,3.78l-4.11,0.58
		l-1.06,2.8l-0.61-1.89l-1.14,6.15l-3.88,0.63l-5.13,10.35l6.86-0.38l-1.08,8.76l7.39-0.609l1.98,7.72l7.27,1.17l0.67,3.22
		l-4.61,4.34l5.96,2.431l-0.83,5.29l0,0l-6.6,7.13l-6.03,0.41l-4.19,11.22l-13.08,1.57l-0.48-10.141l-8.29-1.85l-1.81-14.391
		l-11.11-4.31l-3.22-18.75l-5.1,1.64l-9.49-4.22l-0.89,3.18l-6.86-7.859l-5.54,0.34l-4.99-6.73l0,0l2.38-4.239l-0.66-6.23
		l11.44-1.97l-0.8-1.75l7.12-4.12l4.52,0.979l-4.21-10.35l2.21-3.08l-0.88-9.13l6.23,2.36l-2.85-8.15l10.44-0.47l-0.3-5.28
		l-4.11-1.78l-2.72-7.489l5.64-4.2l-4.31-5.19l6.99-6.399l-0.43-9.221l4.69-5.819L277.31,382.27z"/>
	<path id="PL-SK" fill="#1E3250" stroke="#1E3250" stroke-width="0.5" d="M384.93,353.46l5.43,0.84l-1.31,2.9l3.53,7.51l3.19-0.979
		l5.65,4.89l-0.71,4.43l1.94-2.18l8.5,4.46l2.31-4.271l6.25,2.45l3.68-1.22l1.48-5.521l2.229,2.671l-1.75,3.159l4.45,2.44
		l-0.67,4.69l12.16-0.44l6.83,7.04l2.84-4.34l6.23-1.71l8.699,3.6l3.19-2.84l0,0l3.75,24.86l0,0l-4.9,16.25l-1.91-1.04l-5.09,4.189
		l-4.51,8.66l-9.16,2.47l-0.16,3.32l-8.13,3.3l-6.39,6.46l0,0l-1.98,2.37l-2.569-2.35l-4.65,3.64l-10.05,1.021l-3.53,3.159
		l-2.819-1.54l-6.83,7.391l-15.9,1.88l-4.56-7.75l1.57-2.021l-4.23-3.069l2.5-3.74l-4.11-9.87l-17.38-4.79l-2.32,1.391l0,0l-3-3.33
		l-6.9-1.431l8.26-9.439l-4.13-0.63l1.57-3.351l-2.08-1.729l-7.14-0.811l-1.43-3.979l2.89,0.779l5.13-6.479l-5.28-4.07l0,0
		l5.84-6.54l-0.88-5.31l2.9-7.07l9.45,8.311l1.79-9.23l-4.67-1.46l1.11-11.47l14.28-0.17l1.16-5.33l6.78,2.13l0.08-7.18
		L384.93,353.46z"/>
	<path id="PL-WN" fill="#1E3250" stroke="#1E3250" stroke-width="0.5" d="M349.54,42.09l97.62,12.65l81.859-5.18l0,0l-0.75,7.51
		L520,58.04l-7.44,4l-2.64,4.37l4.66,5.92l2.75-0.49l2.6,4.98l-1.47,4.4l10.34,13.72l0.73,5.08l-4.78,10.03l-5.52,2.58l-1.301,3.89
		l-1.359-1.73l-7.54,3.92l0.56,3.3l-2.939-1.81l-3.92,2.63l-20.101,16.22l-2.32-2.41l-4.029,1.33l-3.84,5.19l-10.62-3.56l-5.49,1.25
		l0,0l-8.99,1.55l-5.43,4.5l-5.34-1.04l-13.48,9.88l-7.24-2.57l-0.63,4.09l-3.18-0.229l-1.32,3.05l-8.069-2.02l-3.761,6.22
		l-6.32,2.68l-5.94-2.12l-4.84,3.75l0.66,4.69l-4.34,2.57l-10.71-0.71l-2.42-2.23l-7.24,1.96l-4.17-2.77l0.27-4l-5.11,3.02
		l0.66,3.99l-5.17-0.78l0,0l-1.25-7.61l-3.16-0.74l2.48-3.79l-2.7-7.66l-9.13,0.77l-1.43-3.71l-3.93,0.77l-3.68-5.08l-5.13,2.49
		l-1.9-1.37l-4.47-16.68l-3.42-1.53l0,0l-0.44-2.93l5.21-3.54l0.16-5.17l4.71-5.04l0.99-6.61l7.86,0.26l2.14,3.2l6.83-18.98
		l-11.07,2.41l0.14-6.25l-7.25-1.81l-0.01-3.58l-4.45-2.03l1.75-10.98l4.4-3.63l-3.7-6.58l0,0l6.94,1.03l1.72-1.96l-1.64,6.66
		l7.26-10.52l10.69-3.72l4.69-7.99L349.54,42.09z"/>
	<path id="PL-WP" fill="#1E3250" stroke="#1E3250" stroke-width="0.5" d="M169.13,122.7l3.43,11.61l3.12-0.59l-0.02,3.3l5.83-2.57
		l8.87,0.87l9.17,4.51l0,0l-8.84,11.43l1.19,3.46l4.39-0.27l6.04,8.07l-1.48,4.09l-5.51,1.26l1,6.17l3.22,1.31l-2.39,1.2
		l-3.04,13.54l13.19,6.84l-0.9,14.06l-5.78,0.32l-0.33,2.92l5.05,2.8l-0.96,4.72l3.18,0.86l6.63-3.68l2.88,10.82l5.16-5.62l0.41,2.3
		l1.38-2.32l5.08,1.61l2.85,5.62l4.48,0.85l-0.48,3.47l6.57-0.94l-0.19,3.36l6.33,1.47l0.49,2.18l3.45,0.19l6.52-6.11l1.24,7.26
		l8.25-2.87l9.8,6.99l4.34,9.48l9.64-3.32l0.58-3.36l7.6,6.71l0,0l-0.99,6.05l4.26,0.55l-0.68,5.93l-9.8-0.05l-0.05,11.61
		l-5.27,0.13l-0.87,2.7l-7.11-0.59l0.82,9.57l4.06,3.75l-6.24,10.69l-10.53-0.97l-0.76-2.23l-3.94,3.21l-1.64,11.65l-3.53,4.5
		l1.65,18.069l-3.35,5.511l-8.21-2.37l0.67,4.89l-7.27,3.67l1.86,8.75l4.28-0.569l-1.47,9.43l0,0l-16.72,6.84l-3.97-1.51l1.85-5.38
		l-3.1-1.561l0,0l-3.25-5.27l0.2-8.44l-2.22-1.2l1.79-6.739l-11.94,1.04l-2.18-9.91l4.13-3.22l-6.79-8.61l-10.41-1.97l-5.02,1.64
		l-0.68,6.08l-14.74,2.16l-10.1-5.38l-1.9-4.561l-7.83-1.25l1.49-4.67l-2.2-4.22l-4.86-3.32l-7.73-0.08l0,0l-2.21-6.55l-5.46-4.6
		l-3-0.8l-2.75,3.51l-6.07-2.36l2.21-3.12l-0.88-6.68l-6.41,1.85l-3.65-4.84l1.3-4.83l-3.53,0.67l-4.27-4.48l3.28-27.79l-5.55-4.78
		l5.27-1.03l-7.08-16.17l1.09-10.15l8.67-2.02l-0.64-7.19l-2.6-1.13l5.09-4.53l-0.83-18.44l0,0l9.45,3.39l12.08-3.54l5.66-13.85
		l6.35-0.52l2.93-5.88l4.77,2.08l-0.58-5.45l4.91-4.04l-14.2-7.97l-1.67-8.49l12.3-1.07l4.42-3.61l1.89-10.32l4.31-2.2l1.17,1.85
		L169.13,122.7z"/>
	<path id="PL-ZP" fill="#1E3250" stroke="#1E3250" stroke-width="0.5" d="M11.44,101.98l4.79,0.56l-2.96,4.56L9.72,102L11.44,101.98
		z M12.71,100.79l1.72,1.45l-2.8-0.021L12.71,100.79z M7.71,95.29l1.81-0.17l-2,2.57l5.6,9.49l-7.62-6.1l-1.69-4.76L7.71,95.29z
		 M38.68,90.81l-3.27,1.79l0.43-3.07L38.68,90.81z M39.3,85.29l-4.4,2.66l0.06,5.87l-6.51,14.04l-1.28-5.2l-8.61-1.35l0.56-4
		l-8.95,4.52l-2.03-3.81l1.73-2.6l6.88,0.43l6.12-4.69L39.3,85.29z M158.95,28.15l7.18,12.72l0.42,7.69l-2.7,0.69l3.55,8.57
		l-9.16,7.3l5.46,10.1l-0.73,14.09l3.01-1.82l2.17,5.979l6.46,3.65l-0.81,3.42l-5.98,0.56l-0.03,3.76l4.44,3.3l-5.27,5.36l2.17,9.18
		l0,0l-3.08,3.27l-1.17-1.85l-4.3,2.2l-1.9,10.33l-4.41,3.6l-12.31,1.07l1.68,8.48l14.19,7.97l-4.91,4.04l0.59,5.45l-4.77-2.09
		l-2.94,5.88l-6.34,0.52l-5.66,13.86l-12.09,3.53l-9.45-3.38l0,0l1.5-6.34l-8.12-1.94l-7.52,13.02l-2.41-1.22l-2.64,2.23l-5.7-3.19
		l-11.51,6.61l-4.55-1.01l2.15,6.48l-14.94,6.38l-10.05-5.1l-2.04,2.75l2.05,1.91l-3.88,1.21l0.78,3.01l-3.97,3.2l-3.25,11.53
		l-2.26,1.44l-4.71-2.56l-2.02,5.36l0,0L5.82,208.26L0,206.08l2.31-4.67l-1-7.74l12.2-9.21l1.97-14.94l4.31-6.45l-8.53-28.75
		l-1.32-20.47l7.48,6.54l5.85,1.22l5.74,7.4l1.33-6.18l-2.96-0.14l-1.95-4.79l1.67-6.2l3.01-0.49l2.18-13.12l4.41-4.58l2.15,1.58
		l2.8-10.88l-4.76,0.78l34.65-12.91l49.02-13.04l10.18-8.13l15.9-19.6L158.95,28.15z"/>
</g>
</svg>
