<?xml version="1.0" encoding="utf-8"?>
<!-- Generator: Adobe Illustrator 15.0.0, SVG Export Plug-In . SVG Version: 6.00 Build 0)  -->
<!DOCTYPE svg PUBLIC "-//W3C//DTD SVG 1.1//EN" "http://www.w3.org/Graphics/SVG/1.1/DTD/svg11.dtd">
<svg version="1.1" id="Layer_1" xmlns:amcharts="http://amcharts.com/ammap"
	 xmlns="http://www.w3.org/2000/svg" xmlns:xlink="http://www.w3.org/1999/xlink" x="0px" y="0px" width="162.108px"
	 height="251.597px" viewBox="0 0 162.108 251.597" enable-background="new 0 0 162.108 251.597" xml:space="preserve">
<defs>
	
	
		<amcharts:ammap  projection="mercator" bottomLatitude="32.400528" leftLongitude="-31.270171" topLatitude="42.155925" rightLongitude="-6.187163">
		</amcharts:ammap>
</defs>
<g>
	<path id="PT-01" fill="#1E3250" stroke="#1E3250" stroke-width="0.5" d="M61.532,65.14l2.77,0.02l0.91-1.04l1.061,1.26l0.89-0.83
		l-0.82-0.39l0.2-0.55l0.93,0.43l0.25-0.46l1.88,2.17l-0.3-2.13l1.62,0.49l1.68-1.65l0.95,0.6l0,0l0.851,0.34l-0.12,1.35l1.16,0.63
		l-0.28,0.67l2.51,0.64l1.34-1.27l0.061,0.89l-1.37,1.65l0.93,3.38l-0.84,0.75l-1.19-0.72l-0.729,0.83l-1.28-0.77l-0.76,0.37
		l0.57,1.27l-1.131,2.85l-1.88,0.71l0.19,1.19l0.92,0.75l0.08,2.41l1.55,0.78l-1.99,0.83l0.74,2.38l1.101,1.16l-2.7,1.04l0.569,1.85
		l-1.18,1.34l-0.04,1.72l0,0l-0.05,0.82l-1.49-0.19l-0.14,1.16l-1.24,0.26l-0.18,1.58l-2.19-0.47l-0.2-1.04l1.42,0.01l0.12-2.9
		l-0.739-1.51l-2.141,0.91l-0.069-2.67l-1.271-0.86l-0.64,2.45l-0.881-0.09l-3.829-3.8l0,0l1.01-4.22l-0.36-0.88l2.58-8.59
		L61.532,65.14z"/>
	<path id="PT-02" fill="#1E3250" stroke="#1E3250" stroke-width="0.5" d="M76.702,175.331l3.45-0.34l1.439,1.16l0.891-0.75l4.5,2.66
		l2.52,0.21l2.83,1.85l1.09-0.37l4.33,0.84l0.061-0.73l2.739-2.42l0.08-1.25l1.61-0.04l0.59-0.86l1.57-0.41l1.359,2.72l1.71,0.67
		l-0.279,0.9l1.239,2.57l1.641-1.13l0,0l0.74,0.75l4.689-2.03l-1.05,2.15l0.53,0.55l-1.12,2.02l-0.45,3.18l-1.41,0.33l-1.64-1.18
		l-0.94,0.57l0.24,0.989l-1.66,0.471l-0.91-0.42l-1.91,0.939l0.45,1l-1.109,3.42l-1.29,2.12l-3.061,2.26l-0.7,3.75l-1.909,2.37
		l-0.271,3.12l0,0l-1.95-0.11l-1.39,1.471l-1.811-0.55l-2.829,0.72l-2.87,1.99l-1.12,0.109l-0.51,1.2l-2.351-0.1l-0.78,1.17
		l0.511,0.569l-2.37,1.74l-3.88-0.899l-2.73-1.79l-0.08-1.511l-1.34-0.54l-0.29,0.61l-2.81,0.16l-1.04,1.689l-2.021-0.079
		l-1.74-1.29l-1.449,0.369l-0.74,1.04l-0.78-1l-2.189,0.221l-0.511-1.45l-1.47-0.44l0,0l0.33-3.56l-1.07-2.64l1.061-4.551
		l-0.84-1.39l0.619-2.81l0,0l0.53,0.579l1.29-0.39l1.641,2.44l0.71-0.601l1.38,0.76l0.949-0.3l0.11-1.689l1.09-0.66l0.37-1.49
		l3.25-0.7l3.28,0.95l-0.14-0.77l1.13-1.301l0.18-3.76l-0.8-1.31l-1.42,0.17l-1.44-2.03l0.66-1.69l0.8,0.45l0.94-2.06l1.34,0.65
		l0.21-1.9l1.41,0.29l0.609-0.93l2.86-0.86l0.01-1.69L76.702,175.331z"/>
	<path id="PT-03" fill="#1E3250" stroke="#1E3250" stroke-width="0.5" d="M80.282,31.43l-0.34,2.48l-1.82,3.01l2.6-0.49l1.521,0.67
		l-0.26,3.43l3.659,0.65l0.96-1.14l1.271,1.76l-1.6,2.58l-1.011-0.07l-0.29,1.021l-1.12,0.479l-1.14,4.311l0,0l-1.79,2.36
		l-1.09-1.02l-0.67,0.58l-1.05-0.58l-1.45-2.4l-1.51-0.479l-2.03,1.78l-0.3,1.19l-0.92-0.43l-0.301-1.07l-2.149,0.63l0.31-0.8
		l-0.479-0.14l-1.01,0.89l-0.771-0.53l-1.439,0.3l-0.54,0.95l-2.91,0.2l0,0l0.01-2.11l0,0l0.62-0.37l-1.88-0.82l-0.62-1.07
		l-0.98,0.13l-2.35-1.22l0,0l-1.09-5.93l0,0l1.67-0.09l1.899-1.11l1.44,0.4l0.25-0.98l1.23,0.85l0.85-0.36l0.46,0.81l0.7-0.32
		l-0.21-1.35l0.81-0.68l0.63-2.49l1.271,0.26l2.729-1.6l2.16,0.38l0.39-0.83l0.711,0.41l3.369-1.98l0,0l2.25,0.43L80.282,31.43z"/>
	<path id="PT-04" fill="#1E3250" stroke="#1E3250" stroke-width="0.5" d="M119.792,24.25l0.99,0.22l0.569,1.71l0.761,0.28
		l3.319-0.12l1.051-1.17l1.22,0.97l-0.68,2.58l1.75,0.5l-1.681,5.41l0.86,2.66l1.33,0.98l1.74-1.17l4.489,0.97l3.57,3.67l-2.17,2.55
		l0.22,0.58l-1.72,2.12l0.17,0.88l-1.05,0.77l0.49,1.04l-2.271,0.04l0.4,1.06l-1.21,0.48l-0.71,1.79l-1.551,0.58l0.271,0.65
		l-0.57,0.41l-0.83-0.4l-1.54,1.53l-0.64-0.68l-0.26,0.49l-1.53-0.17l-1.92,3.14l-1.86,1.58l0.44,1.28l-1.73,2.82l-3.87,0.3l0,0
		l-1.909,0.18l-3.471-2.31l0.57-1.9l-1.47-0.49l0.41-1.74l-1.471,2.22l-2.71-0.79l-1.729,0.23l0,0l-1.681-0.35l-1.04-1.98L99.832,57
		l0,0l0.56-1.57l0.851,0.16l-0.13-1.73l0.93-0.76l-0.42-0.44l1.92-1l-1.479-1.11l-0.12-3.17l2.109-1.01l0.46-2.15l1.73-0.3
		l-0.94-2.88l1.58-5.09l1.16-1.37l0.03-1.06l-1.24-1.86l0.31-2.77l0,0l0.86-1.67l-0.38-2.25l1.39-0.78l1.7,0.73l0.49,1l2.08-0.03
		l0.85-0.99l1.101,1.24l1.649,0.2l2.23-0.26L119.792,24.25z"/>
	<path id="PT-05" fill="#1E3250" stroke="#1E3250" stroke-width="0.5" d="M88.772,97.72l3.989-1.81l1.49-2.06l2.26,0.24l1.58-3.18
		l4.49,0.54l0.55-1.2l1.09-0.22l0.71,0.34l-0.1,2.5l-1.86,2.21l0.431,0.54l2.489,0.92l0.87-1.14l1.62,0.72l1.561-2.31l0.89,1.9
		l2.2-0.48l1.979,1.35l0,0l-0.38,0.79l-1.56,0.53l-0.271,3.36l0.891,1.29h1.649l2.431,4.13l-1.351,3.62l0.101,2.18l-2.641,2.48
		l0.33,1.54l-1.229,4.17l-4.29,0.71l-3.16-0.56l-2.59,1.06l-6.57-0.93l0,0l-3.03,1.67l-1.08-1.07l-1,0.51l-0.6,1.77l-1.03,0.2
		l-2.21,2.08l0,0l0.46-1.35l-1.71-2.77l-1.58-1.24l-1.359,0.29l0,0l-0.391-3.43l0,0l-0.64,0.69l-1.48-0.79l-0.55,0.49l-0.109,2.61
		l-0.601,0.54l0.69,1.69l-2.511,0.25l-3.21-1.38l0.23-4.42l-0.44-1.05l-0.71,0.41l-0.62-1.07l0,0v-0.03l0,0l0.311-1.91l2.06-0.35
		l0.75-1.25l1.17-0.16l0.96-2l0,0l0.12-0.6l1.021,0.07l-0.11-0.75l1.68,0.19l0.051-0.99l0.449,0.56l0.11-0.75l1.59,0.5l0.33-1.04
		l1.61-0.01l-0.44-1.23l1.63-1.04l1.771,0.92l0.06-1.42l0,0l-0.35-0.26l0,0l0.96-0.38l0.43,0.89l1.311-1.72l-2.44-3.12L88.772,97.72
		z"/>
	<path id="PT-06" fill="#1E3250" stroke="#1E3250" stroke-width="0.5" d="M57.132,85.72l3.83,3.8l0.88,0.09l0.641-2.45l1.26,0.86
		l0.08,2.67l2.13-0.91l0.74,1.51l-0.11,2.9l-1.42-0.01l0.2,1.04l2.18,0.47l0.18-1.58l1.24-0.27l0.14-1.16l1.49,0.19l0.05-0.82l0,0
		l1.79,0.38l1.54,1.44l1.83-0.83l1.86,0.42l5.06-2.97l4.591-3.86l0,0l1,1.7l-1.62,1.18l0.09,0.61l1.52,0.37l-0.25,2.3l1.48,0.73
		l-1.46,0.99l-0.681,1.73l1.381,1.48l0,0l-0.851,1.98l2.44,3.12l-1.311,1.72l-0.43-0.89l-0.96,0.38l0,0l0.35,0.26l0,0l-0.06,1.42
		l-1.771-0.92l-1.63,1.04l0.44,1.23l-1.61,0.01l-0.33,1.04l-1.59-0.5l-0.11,0.75l-0.449-0.56l-0.051,0.99l-1.68-0.19l0.11,0.75
		l-1.021-0.07l-0.12,0.6l0,0l-0.43-0.24l0.71-1.3l-1.45-2.07l0.38-2.09l-1.109-0.69l-0.97,1.54l-1.03-0.62l-1.061,0.9l-0.699,1.48
		l0.869,0.83l-0.279,1.22l-1.09-1.2l-1.891,2.66l-1.109-0.33l0.92-0.97l-1.46-2.92l-0.03,1.19l-0.96-0.83l-1.05,1.3l-1,0.07
		l-0.521,1.46l-0.729-3.25l-0.94,0.02l-0.74,1.45l-0.88,0.08l0.061-0.85l-1.09-0.78l-2.87-0.45l-1.08,1.17l-2.15-0.45l-0.8-0.86l0,0
		l1.02-3.83l-1.51-2.06L57.132,85.72z"/>
	<path id="PT-07" fill="#1E3250" stroke="#1E3250" stroke-width="0.5" d="M74.702,148.45l0.29,0.37l1.38-1.72l2.24-0.08l-0.521,0.76
		l0.55,1.41l1.03-1.89l1.79,1.39l-0.27,1.64l3.08-1.37l1.54,2.68l2.72,0.51l1.189-0.5l0.61-1.25l1.1,1.08l0.46-0.69l1.45,0.73
		l1.05-1.71l1.96-0.58l-0.34-0.99l0.62-0.64l2.54,1.78l-0.42,1.55l1.37,0.91l0.58,2.21l-0.62,0.03l1.03,1.88l2-0.1l0.08-0.86
		l2.55-0.91l1.18,0.67l-0.79,1.96l0.91,1.26l0,0l-1.77,1.12l-0.4,3.43l0.91,0.58l-2.24,4.43l-0.22,1.43l0.67-0.18l0.05,0.53
		l-1.17,1.36l1.77,0.65l4.08,5.77l1.351,3.51l0,0l-1.641,1.13l-1.239-2.57l0.279-0.9l-1.71-0.67l-1.359-2.72l-1.57,0.41l-0.59,0.86
		l-1.61,0.04l-0.08,1.25l-2.739,2.42l-0.061,0.73l-4.33-0.84l-1.09,0.37l-2.83-1.85l-2.52-0.21l-4.5-2.66l-0.891,0.75l-1.439-1.16
		l-3.45,0.34l0,0l-1.05-0.91l-2.261-0.44l-0.25-0.72l-1.43-0.03l1.22-1.6l-0.569-0.49l0.569-0.06l-1.239-0.44l0.399-0.87l-1.85-3.51
		l-3.38,1.17l-0.9-1.24l-0.49,0.19l0.44,0.95l-0.71,0.32l-1.47-1.48l-2.021-0.06l-0.45-2.52l4.811-4.16l-0.311-0.82l0.63-1.03
		l-1.76-0.09l0,0l1.46-1.77l0.95,0.5l1.271-1.58l0.67,0.45l0.989-1.35l1.141,0.71l0.64-0.82l0.35,0.58l0.29-0.93l1.58,1.99l0.9-0.44
		l0.55,1.22l0.99-0.07l-0.13,0.51l1.14,0.62l0.51-1.23l-0.79-0.66l-0.3,0.53l-0.87-1.24l0.91-1.17l-3.58-1.66L74.702,148.45z"/>
	<path id="PT-08" fill="#1E3250" stroke="#1E3250" stroke-width="0.5" d="M87.412,227.59l0.55,0.1l-1.95,1.54L87.412,227.59z
		 M83.712,227.52l2.271,1.681l-1.73-0.23l-1.68-1.24L83.712,227.52z M87.632,226.89l0.37,0.36l-1.61,0.47L87.632,226.89z
		 M74.582,224.491l-2.1,0.43l-2.131-1.16l-2.25,0.64l-3.119-1.279l-2.551-0.2l-1.529,0.64l-0.09,1.101l-1.87-0.301l-5.29,1.74
		l-1.69,1.931l-0.5-1.25l-1.05,0.109l2.95-5.64l-0.47-1.23l1.829-2.859l-0.56-2.061l2.58-4.819l0,0l1.47,0.439l0.51,1.45l2.19-0.22
		l0.78,1l0.739-1.04l1.45-0.37l1.73,1.29l2.02,0.09l1.04-1.69l2.811-0.159l0.29-0.61l1.33,0.54l0.09,1.51l2.729,1.8l3.87,0.891
		l2.37-1.74l-0.51-0.57l0.779-1.17l2.351,0.11l0.51-1.2l1.13-0.11l2.87-2l2.83-0.72l1.8,0.56l1.4-1.479l1.95,0.11l0,0l1.54,1.55
		l1.779,12.479l-1.64-0.22l-3.2,1.01l-7.37,5.391l-1.02-0.48l-1.391,0.82l-0.449,1l-1.78-1.13l-1.33,0.25l-4.04-2.62l-2.271-0.8
		L74.582,224.491z"/>
	<path id="PT-09" fill="#1E3250" stroke="#1E3250" stroke-width="0.5" d="M100.282,69.061l1.229,0.85l-0.62,0.88l-1.01-0.59
		L100.282,69.061z M103.862,59.98l1.739-0.23l2.7,0.79l1.471-2.22l-0.4,1.74l1.46,0.49l-0.56,1.91l3.47,2.31l1.92-0.18l0,0
		l4.09,7.03v0.63l-0.79,0.22l-0.13,3.64l1.17,3.8l-1.62,3.95l1.41,0.65l0.18,1.61l-1.72,2.479l0.48,1.81l1.689,1.78l-0.41,1.49
		l-2.12,1.19l-0.3,1.53l-2.54,0.2l0,0l-1.979-1.34l-2.2,0.48l-0.89-1.9l-1.561,2.31l-1.609-0.72l-0.87,1.14l-2.49-0.92l-0.43-0.55
		l1.859-2.21l0.101-2.5l-0.71-0.33l-1.091,0.22l-0.55,1.19l-4.49-0.53l-1.579,3.18l-2.261-0.24l-1.489,2.06l-3.99,1.8l0,0
		l-1.37-1.48l0.68-1.72l1.46-1l-1.479-0.72l0.25-2.3l-1.521-0.37l-0.1-0.61l1.62-1.18l-0.99-1.7l0,0l5.14-2.53l2.67-0.57l1.44-4.84
		l-1.76-0.98l0.64-1.47l-1.81-1.34l2.109-3.77l1.49,0.12l1.91,2.37l1.59-2.75l0.74,0.41l0.18-1.82l1.2-0.9l0.35-1.58l-1.689-0.8
		l-0.01-0.92l1.31-0.04l-0.26-1.34L103.862,59.98z"/>
	<path id="PT-10" fill="#1E3250" stroke="#1E3250" stroke-width="0.5" d="M60.222,124.41l0.48,0.63l-1.37,1.74l0,0l-0.61-0.63l0,0
		l0.141,2.29l0,0l-5.5,0.58l-1.33,3.05l-1.431,0.58l-0.109,3.25l0,0l-2.271-0.53l-3.52,3.99l-0.771-1.47l0.49-0.86l-0.42-1.36
		l-1.74-0.63l-1.3,1.39l-1.399-0.34l0,0l-0.761-2.32l-1.39-0.44l1.979-0.15l3.33-2.53l0.931,0.76l-0.36,0.26l1.25-0.04l-1.39-1.4
		l1.77-2.64l1.08-0.15l-0.26-0.7l2.189-2.7l-0.33-0.67l1.141-4.73l4.95-13.29l0,0l0.8,0.86l2.149,0.44l1.07-1.16l2.87,0.44
		l1.09,0.78l-0.05,0.85l0.88-0.08l0.74-1.45l0.939-0.01l0.721,3.25l0.52-1.46l1-0.06l1.05-1.3l0.96,0.83l0.03-1.19l1.46,2.92
		l-0.91,0.97l1.11,0.33l1.89-2.66l1.091,1.2l0.279-1.21l-0.859-0.83l0.7-1.48l1.06-0.9l1.03,0.63l0.97-1.55l1.12,0.7l-0.391,2.09
		l1.45,2.07l-0.71,1.3l0.44,0.24l0,0l-0.96,2l-1.17,0.17l-0.75,1.25l-2.061,0.35l-0.31,1.91l0,0l0,0l0,0l-1.49-0.28l0.11,1.67
		l-0.5-0.51l-1.101,0.92l-0.76-0.34l-1.54,1.2l-0.77-4.39l-3.65,2.51l-1.33-0.53l-1.31,0.66l-0.13,1.11l0.52,0.89l-0.47,0.66
		l1.43,0.6l-0.49,1.37l-1.67,0.92l0,0L60.222,124.41z"/>
	<path id="PT-11" fill="#1E3250" stroke="#1E3250" stroke-width="0.5" d="M45.742,159.85l-4.29,0.26l-1.351,1.03l-2.159-1.16
		l-1.091,0.51l-1.88-0.76l0.45-1.68l-0.899-1.24l2.85-6.36l-0.36-5.52l2.41-5.21l0.141-3.6l0,0l1.399,0.34l1.311-1.39l1.739,0.63
		l0.431,1.36l-0.48,0.86l0.771,1.47l3.529-3.99l2.271,0.53l0,0l0.61,0.39l-0.19,1.52l2.2,0.59l1.149-0.64l1.351,1.12l0.2,1.51
		l-2.73,0.57l3.63,3.07l0.51,1.54l-1.319,1.23l-1.16-0.03l0.6,0.48l-1.13,1.9l0.84,0.29l-1.279,0.74l-0.631,2.27l-1.819,2.5l0,0
		l-0.66-1.03l-0.18-3.61l-2.82,4.9l-0.57,3.53L45.742,159.85z"/>
	<path id="PT-12" fill="#1E3250" stroke="#1E3250" stroke-width="0.5" d="M96.512,121.041l1.19,2.93l2.189,2.25l1.25,0.2l0.271,1.57
		l2.77,1.4l-0.899,3.07l0.479,1.84l2.4,2.35l-0.311,2.85l3.37,1.5l-0.29,2.54l1.221,0.38l2.29-0.73l2.31,2.54l0.271,1.25l-3.19,4.72
		l0.4,1.71l-5.19,4.57l0,0l-0.91-1.26l0.79-1.96l-1.18-0.67l-2.55,0.91l-0.08,0.86l-2,0.1l-1.03-1.88l0.62-0.03l-0.58-2.21
		l-1.37-0.91l0.42-1.55l-2.54-1.78l-0.62,0.64l0.34,0.99l-1.96,0.58l-1.05,1.71l-1.45-0.73l-0.46,0.69l-1.1-1.08l-0.61,1.25
		l-1.189,0.5l-2.72-0.51l-1.54-2.68l-3.08,1.37l0.27-1.64l-1.79-1.39l-1.03,1.89l-0.55-1.41l0.521-0.76l-2.24,0.08l-1.38,1.72
		l-0.29-0.37l0,0l-1.99-3.77l-1.66-1.19l1.42-2.16l3.551-2.24l1.6-2.77l1.79,0.35l1.65-2.59l-0.11-0.91l1.939-0.76l0.921-1.11
		l-2.2-2.58l1.689-3.72l3.29,2.19l0.83-1.08l0,0l2.21-2.08l1.03-0.2l0.6-1.77l1-0.51l1.08,1.07l3.03-1.67l0,0L96.512,121.041z"/>
	<path id="PT-13" fill="#1E3250" stroke="#1E3250" stroke-width="0.5" d="M60.092,58.74l-0.84-1.46l-0.7-5.37l-1.5-3.47l0.37-2.35
		l0,0l2.35,1.22l0.971-0.13l0.63,1.08l1.88,0.82l-0.62,0.37l0,0l-0.01,2.1l0,0l2.91-0.19l0.54-0.95l1.449-0.3l0.761,0.53l1.01-0.89
		l0.479,0.14l-0.31,0.8l2.15-0.63l0.3,1.07l0.92,0.43l0.3-1.19l2.03-1.78l1.5,0.48l1.46,2.4l1.05,0.58l0.67-0.58l1.09,1.02
		l1.79-2.36l0,0l0.851,0.95l-0.521,0.97l1.78,1.13l-0.271,1.26l1.28,1.28l-1.15,5.11l0,0l-1.26-0.12l-3.189,1.38l-4.79-0.18
		l-1.88,1.18l0,0l-0.95-0.59l-1.681,1.65l-1.619-0.49l0.3,2.13l-1.88-2.17l-0.25,0.46l-0.931-0.43l-0.199,0.55l0.819,0.39
		l-0.89,0.83l-1.061-1.26l-0.909,1.04l-2.771-0.02l0,0L60.092,58.74z"/>
	<path id="PT-14" fill="#1E3250" stroke="#1E3250" stroke-width="0.5" d="M50.492,135.9l0.109-3.25l1.431-0.58l1.34-3.05l5.5-0.58
		l0,0l-0.14-2.29l0,0l0.609,0.63l0,0l1.36-1.71l-0.47-0.66l-0.5-2.42l0,0l1.67-0.92l0.489-1.37l-1.43-0.6l0.47-0.66l-0.52-0.89
		l0.13-1.11l1.31-0.65l1.341,0.53l3.649-2.51l0.771,4.39l1.54-1.2l0.76,0.34l1.1-0.92l0.5,0.51l-0.1-1.67l1.5,0.28l0,0l0.01,0.04
		l0,0l0.61,1.07l0.72-0.42l0.44,1.06l-0.23,4.42l3.21,1.38l2.51-0.24l-0.689-1.7l0.6-0.53l0.101-2.61l0.55-0.49l1.479,0.79
		l0.641-0.69l0,0l0.39,3.44l0,0l1.36-0.29l1.59,1.24l1.71,2.77l-0.46,1.35l0,0l-0.83,1.08l-3.29-2.19l-1.69,3.72l2.19,2.58
		l-0.92,1.11l-1.94,0.76l0.11,0.92l-1.65,2.58l-1.79-0.34l-1.6,2.76l-3.54,2.24l-1.43,2.16l1.66,1.2l1.989,3.77l0,0l-1.399,3.24
		l3.58,1.66l-0.91,1.17l0.87,1.25l0.3-0.54l0.79,0.66l-0.51,1.23l-1.15-0.62l0.14-0.51l-0.989,0.07l-0.561-1.22l-0.899,0.45
		l-1.58-1.99l-0.29,0.93l-0.351-0.58l-0.64,0.82l-1.14-0.71l-1,1.35l-0.671-0.45l-1.27,1.59l-0.95-0.5l-1.47,1.78l0,0l-2.09-0.79
		l0.529-2.33l-1.35,1.27l-2.17-1.45l-1.44,4.14l-1.199,0.35l-1.5-1.11l-2.17,1.03l-0.58-0.95l0,0l-0.601-0.74l0.311-1.04
		l-1.061-0.91l0,0l1.82-2.5l0.63-2.27l1.28-0.73l-0.84-0.29l1.14-1.9l-0.6-0.48l1.159,0.03l1.32-1.23l-0.51-1.54l-3.63-3.07
		l2.729-0.57l-0.2-1.51l-1.35-1.12l-1.15,0.64l-2.199-0.59l0.199-1.52L50.492,135.9z"/>
	<path id="PT-15" fill="#1E3250" stroke="#1E3250" stroke-width="0.5" d="M57.272,171.25l3.399,0.11l-1.57-0.9l-0.659-4.77
		l-0.66,1.32l-0.811-0.64l0.221,1.13l-0.92,0.22l1.699,0.16l-0.71,1.33l-3.75-1.92l-4.109,2.99l-6.13,1.29l1.3-3.69l1.189-0.74
		l-1.199,0.31l-0.931-3.58l-1.62-2.32l3.69-1.03l-0.01,0.91l1.46,0.68l-0.851-0.13l0.67,1.27l-0.04-0.88l0.771-0.08l1.021,1.63
		l-0.471-1.8l-0.819-0.44l1.569-0.78l0.11,0.71l0.55-0.36l0.82,0.77l-0.46-1.27l1.279-0.69l-2.529,0.41l0.14-1.04l3.75-1.78l0,0
		l0.58,0.95l2.17-1.03l1.5,1.11l1.2-0.35l1.439-4.14l2.171,1.46l1.359-1.27l-0.53,2.33l2.091,0.79l0,0l1.76,0.09l-0.63,1.03
		l0.31,0.82l-4.81,4.16l0.45,2.53l2.02,0.06l1.47,1.48l0.71-0.32l-0.439-0.95l0.49-0.18l0.899,1.24l3.37-1.16l1.86,3.51l-0.4,0.87
		l1.24,0.44l-0.57,0.06l0.57,0.49l-1.23,1.6l1.431,0.03l0.26,0.72l2.26,0.44l1.05,0.91l0,0l1.101,2.15v1.7l-2.86,0.86l-0.61,0.92
		l-1.399-0.29l-0.22,1.9l-1.341-0.64l-0.939,2.05l-0.8-0.45l-0.66,1.69l1.45,2.03l1.42-0.17l0.8,1.31l-0.18,3.76l-1.131,1.301
		l0.141,0.779l-3.28-0.95l-3.24,0.7l-0.37,1.49l-1.09,0.66l-0.1,1.689l-0.95,0.29l-1.38-0.75L60.362,198l-1.641-2.45l-1.29,0.39
		l-0.529-0.58l0,0l-0.48-4.31l-2.52-0.97l1.58-2.761l1.56-4.99l0.12-7.66l-1.31-3.37l-2.551-2.86l2.591,1.92l0.819,2.23l-0.26-2.13
		L57.272,171.25z"/>
	<path id="PT-16" fill="#1E3250" stroke="#1E3250" stroke-width="0.5" d="M75.852,17.75l0.29,3.29l2.011-0.73l0.689,0.42l0.44,1.87
		l-2.53,1.93l-1.7,2.93l0.53,1.67l0.97-0.11l0.13,2.46l0,0l-3.369,1.98l-0.711-0.41l-0.39,0.83l-2.16-0.38l-2.729,1.6l-1.271-0.26
		l-0.63,2.49l-0.81,0.68l0.21,1.35l-0.7,0.32l-0.46-0.81l-0.85,0.36l-1.23-0.85l-0.25,0.98l-1.44-0.4l-1.899,1.11l-1.67,0.09l0,0
		l-2.23-5.8l0.641-2.55l-0.41-2.53l3.689-2.66l0.38-1.38l2.591-1.55l0.83-1.92l2.84-0.27l0.83-1.08l5.93-0.18l2.47-2.24l0.94,0.14
		l0.8-0.89L75.852,17.75z"/>
	<path id="PT-17" fill="#1E3250" stroke="#1E3250" stroke-width="0.5" d="M84.872,26.88l0.67,0.12l-0.24,2.74l0.61,0.61l0.87-1.53
		l4.56-1.12l1.48,1.12l2.149-0.03l-0.81,2.23l2.85-0.54l0.601-1.16l1.569,0.18l0.771,2.44l1.97-1.92l1.601,0.43l3.619-1.56l0,0
		l-0.31,2.77l1.24,1.86l-0.03,1.06l-1.16,1.37l-1.58,5.09l0.94,2.88l-1.73,0.3l-0.46,2.15l-2.109,1.01l0.12,3.17l1.479,1.11l-1.92,1
		l0.42,0.44l-0.93,0.76l0.13,1.73l-0.851-0.16L99.832,57l0,0l-2.24,0.48l-0.649,0.82l-0.771-0.36l-1.33,1.34l-2.359-0.27
		l-1.051,0.89l-3.13-0.85l-0.529,0.67l-1.9-0.47l-1.19,1.55l0,0l1.141-5.11l-1.28-1.28l0.271-1.25l-1.78-1.13l0.53-0.97
		l-0.851-0.939l0,0l1.14-4.311l1.12-0.479l0.29-1.021l1.011,0.07l1.6-2.58l-1.271-1.76l-0.96,1.14l-3.659-0.65l0.26-3.43
		l-1.521-0.67l-2.6,0.49l1.82-3.01l0.34-2.48l0,0l1.2-0.43l1.22-1.93l1.68-0.11L84.872,26.88z"/>
	<path id="PT-18" fill="#1E3250" stroke="#1E3250" stroke-width="0.5" d="M99.832,57l1.31,0.65l1.04,1.98l1.67,0.35l0,0l-1.3,3.89
		l0.261,1.34l-1.311,0.04l0.01,0.92l1.69,0.8l-0.34,1.58l-1.2,0.9l-0.18,1.82l-0.73-0.41l-1.59,2.75l-1.91-2.37l-1.49-0.12
		l-2.109,3.77l1.81,1.34l-0.64,1.47l1.77,0.98l-1.439,4.84l-2.67,0.57l-5.141,2.53l0,0l-4.6,3.86l-5.061,2.98l-1.859-0.42
		l-1.83,0.83l-1.54-1.44l-1.79-0.37l0,0l0.04-1.72l1.18-1.34l-0.569-1.85l2.699-1.04l-1.1-1.16l-0.74-2.37l1.99-0.83l-1.55-0.78
		l-0.08-2.41l-0.92-0.75l-0.19-1.19l1.88-0.71l1.13-2.85l-0.569-1.27l0.76-0.37l1.28,0.77l0.729-0.83l1.19,0.72l0.84-0.75
		l-0.93-3.38l1.37-1.65l-0.061-0.89l-1.34,1.27l-2.51-0.64l0.28-0.67l-1.16-0.63l0.12-1.35l-0.851-0.34l0,0l1.88-1.18l4.79,0.18
		l3.19-1.38l1.26,0.12l0,0l1.2-1.55l1.9,0.47l0.529-0.67l3.13,0.85L92.513,59l2.35,0.27l1.33-1.34l0.77,0.36l0.65-0.83L99.832,57z
		 M101.512,69.91l-1.229-0.85l-0.391,1.14l1.011,0.59L101.512,69.91z"/>
</g>
</svg>
