<?xml version="1.0" encoding="utf-8"?>
<!-- Generator: Adobe Illustrator 15.0.0, SVG Export Plug-In . SVG Version: 6.00 Build 0)  -->
<!DOCTYPE svg PUBLIC "-//W3C//DTD SVG 1.1//EN" "http://www.w3.org/Graphics/SVG/1.1/DTD/svg11.dtd">
<svg version="1.1" id="Layer_1" xmlns:amcharts="http://amcharts.com/ammap"
	 xmlns="http://www.w3.org/2000/svg" xmlns:xlink="http://www.w3.org/1999/xlink" x="0px" y="0px" width="666.5px" height="518.5px"
	 viewBox="0 0 666.5 518.5" enable-background="new 0 0 666.5 518.5" xml:space="preserve">
<defs>
	
	
		<amcharts:ammap  projection="mercator" bottomLatitude="43.617249" leftLongitude="20.262217" topLatitude="48.2623309" rightLongitude="29.713041">
		</amcharts:ammap>
</defs>
<g>
	<path id="RO-AB" fill="#1E3250" stroke="#1E3250" stroke-miterlimit="10" d="M202.08,212.7l1.31,1.67l3.32,0.88l3.85-1.76
		l4.72,0.46l1.3,1.66l0.43,3.08l1.11,0.529l-0.42,2.44l2.87,0.06l0.96-2.199l3.5-1.561l1.38-0.17l0.34,1.32l3.17,0.609l6.42-3.479
		l1.32-1.82l1.8-0.25l4.67,2.82l1.84,2.51l1.11-0.38l1.98,1.3l3.8-1.16l1.49,2.061l-1.93,2.39l-0.35,2.5l0.55,0.92l3.09,0.87
		l2.62-0.58l-1.62-1.939l1.54,0.159l-0.51-1.369l1.93-1.44l1.82,0.38l5.48-1.38l1.19,0.33l0.45,1.49l1.63,0.27l6.64-1.32l0,0
		l0.73,2.16l1.58,0.07l1.38-2.16l1.23-0.14l-1.02,5.16l-1.56,1.649l0.65,1.46l4.67,3.37l3.4,0.021l0.86,3.46l3.41,1.79v1.47l1.4-0.2
		l2.17,1.87l0,0l-3.79,2.26l0.56,0.84l-1.08,2.631l1.76,1.42l-0.22,0.869l-3.98,2.011l-2.28,0.17l-1.68,2.96l-2.02,1.32l0.38,0.88
		l-1.76,2.35l0.45,1.9l-2.59,1.569l-0.06,1.45l-2.52-4.04l-4.64-0.01l-2.73,2.979l1.31,0.86l-0.73,1.93l0.49,1.811l-1.88,1.12
		l-1.39,2.33l-5.36,0.71l0.61,0.55l-0.73,1.439l1.19,0.971l-1.34,5.93l-1.88-0.39l-3.69,2.08l-0.78,1.72l2.83,2.33l-1.37,0.43
		l-0.94,1.87l-2.59,1.03l-0.69,2.109l0.17,2.601l3.72,3.3l-0.71,2.22l0.88,1.19l-1.8,1.26l-0.68,2.12l1.65,1.479l0.96,2.58l0.4,4.41
		l-1.78,0.54l0,0l-2.33-0.39l0,0l-1.53-5.05l-2.49-2.4l-1.42,0.11l-0.72-2.561l-4.89-0.99l0.09-3.46l-2.66-1.38l2.15-3.09
		l-3.66-3.479l1.31-3.94l-2.04-2.12l-1.36-4.63l0.18-5.4l-1.68-2.949l-2.66-1.57l-3.38-7.51l0.5-1.83l-3,0.67l-2.07-1.811
		l-1.57,0.301l-2-1.141l-0.68-2.66l0.77-1.35l-2.01-4.07l1.29-0.68l1.36,0.62l-0.34-3.83l-1.4-0.49l-1.3-2l-1.22,0.76l-3.27-1.88
		l-2.33-4l0.91-1.8l-1.87-3.95l-7.85,0.25l-2.08-2.3l-1.63-0.17l0,0l-3.38-1.02l-1.07-1.99l0,0l-0.9-4.3l1.4-2.061l-1.27-2.99
		l0.22-3.54l3.04-2.18l-1.84-1.14l0.04-1.21l3.1-2.25L202.08,212.7z"/>
	<path id="RO-AG" fill="#1E3250" stroke="#1E3250" stroke-miterlimit="10" d="M323.85,302.06l8.55-0.5l1.28,1.5l3.62-0.41l2.64,1.05
		l1.54-0.86l3.04,0.771l1.81-0.86l4.35,1.23l5,4.81l3.44,1.17l0.35,3.66l1.27,1.89l-0.14,2.98l2.09,0.609l1.04-0.63l0.24,3.08
		l0.89,0.82l0,0l0.27,2.42l-1.36,5.771l-1.64,2.05l0.76,4.17l-3,1.16l0.32,2.909l-1.8,0.78l-1.5-1l-2.9-4.63l-1.28,1.35l0.03,1.881
		l1.38,0.27l-0.76,4.66l1.02,0.47l-0.32,1.04l1.32,2.04l-0.87,2.59l-1.55-0.609l-0.71,2l1.17,1.899l1.25-0.3l0.64,1.34l0.94-0.02
		l0.7,2.2l-1.55,1.699l-0.63,3.53l1.99,7.98l0.26,5.619l-1.36,7.351l2.99,1.69l-2.16,3.27l-1.8,0.25l2.45,2.43l-0.52,1.781
		l4.81,5.09l0.37,2.369l-1.07,1.641l1.29,3.051l-0.76,0.898l0.33,2.08l-0.78,0.65l-2.99-0.57l0,0l-9.18,4.121l-4.9-0.34l-2.23,2.219
		l-6.85,0.51l-1.13-1.109l-1.78,0.641l0,0l-0.44-0.83l-3.22,0.059l-1.39-1.959l0.2-4.73l-0.9-3.01l0.79-3.141l-0.29-3.799l-0.9-1.32
		l0.88-1.949l-2.79-7.852l1.22-1.439l0.08-2.19l-5.37,0.24l-2-2.11l-0.33-3.93l-0.93-0.271l-1.93-5.199l0.02-3.221l-1.26-0.08
		l-2.15,4l0.08,2.33l-4.13,0.311l0.8-1.82l-0.77-0.72l0,0l3.01-4.38l-0.66-1.37l1.39-3.36l-1.3,0.13l2.4-4.41l-0.71-1.159
		l1.28-3.641l-1.83-1.77l1.6-1.48l-0.44-1.09l-0.97,0.03l0.06-1.37l1.51,0.09l0.56-2.29l-1.23-1.899l1.02-0.671l0.2-1.699
		l-3.41-4.48l2.07-6.12l-0.57-2.75l-1.17-0.22l1.02-0.83l0.33-2.86l-1.65-0.93l-2.03-8.22l3.63-5.76l-0.22-3.811l0,0l1.02-1.04
		l3.94,0.53l3.33-1.95l3.62,0.46L323.85,302.06z"/>
	<path id="RO-AR" fill="#1E3250" stroke="#1E3250" stroke-miterlimit="10" d="M113.67,204.139l4.33-0.229l0.35,1.93l0.81-0.46
		l0.86,1.17l0.82-0.71l0.56,0.641l0.67-1.94l3.13,0.36l1.62-1.771l9.64,0.79l4.14-1.05l1.24-1.3l2.15,1.779l-1.82,2.78l4.59,1.431
		l2.91-0.82l1.61-2.771l0.87,1.431l1.17,0.069l0.02,1.15l3.57,0.93l0.27,1.261l3.54,0.1l-0.28,2.939l0.99,3.75l2.66,4.351l1.2-0.75
		l1.34,0.89l6.93,0.75l0.39,3.471l3.7,4.38l2.67-0.061l0.85,1.4l1.15-0.73l0.5-1.87l11.3,2.061l0,0l1.07,1.99l3.38,1.02l0,0
		l-2.15,1.96l-2.79,0.95l-1.38,8.38l-6.02-0.03l-0.56,0.931l-2.39,0.479l-1.65-2.39l-3.51,2.92l1.02,3.07l2.64,2.149l-2.21,1.03
		l-0.13,1.26l-3.09,2.76l1.22,1.021l0.25,7.29l-2.55-0.01l-0.6,1.369l-2.43-0.27l-0.43,1.05l1.6,2.74l3.91,0.35l0.39,0.79
		l-1.49,2.42l0,0l-3.93-2.399l-0.66-2.62l-1.22,0.07l-1.14,3.619l-3.96-1.649l-1.6,3.28l-2.8-1.16l-2.66,0.979l-0.24-1.779
		l-7.97-3.36l-0.32-2.351l-4.53,1.051l-0.79,2.05l-1.66,1.229l-1.45-1.04l-1.54,1.37l-1.17-1.1l-2.07,2.689l-1.44-0.199l0.01-1.101
		l-2.39-0.26l-0.75-1.85l-2.07,2.949l-0.11,1.99l-1.43,0.78l-0.53-2.79l-1.79-0.98l0.07-2.46l-7.22-3.529l0.26-2.94l-1.64-2.35
		l-4.37,4.2l-3.93,1.84l-0.92,2.33l-0.88,0.05l-0.9-2.32l-2.73-1.57l0.43,1.21l-2.13,0.551l-1.09,2.84l-3.67-1.54l-1.79-2.55
		l-1.01,0.069l-0.38,1.71l-2.05,1.48l-1.64-1.89l-1-3.761l-2.79,0.9l-2.77-1.311l-2.62,0.551l-1.65-3.311l-5.46-1.399l-3.45-3.28
		l-0.52-1.72l-2.87-0.021l-0.76-1.41l-1.18-0.13l0,0l1.13-0.649l1-3.94l1.98,0.23l-0.6-3.971l1.67-2.6l6.21-1.09l2.82,2.34
		l0.53-1.271l1.27-0.199l0.44,1.29l4.64-0.221l0.83,1.57l1.77,0.53l2.53-1.74l0.76-3.54l3.82,0.12l0.26-3.32l1.48-1.33l0.42-4.97
		l1.09-1.07l4.65,0.641l-0.35-0.801l1.49-2.46l-1.04-3.189l-1.43-0.12l-0.86-2.28l0.95-3.81l1.03-0.38l1.86-3.4l-1.12-0.82
		l0.73-2.52l3.44-1.85l2.8,1.39l0.64-2.18L113.67,204.139z"/>
	<path id="RO-BC" fill="#1E3250" stroke="#1E3250" stroke-miterlimit="10" d="M407.38,200.599l1.35-1.149l4.62-0.22l0.5,4.409
		l1.45,0.9l2.56-1.07l1.01,1.61l3.61-1.1l1.57-3.5l1.89-1.141l1.97,4.53l3.35,1.21l5.61-3.48l3.51-0.1l1.15-1.35l1.479,0.199
		l2.021,2.271l2.71-3.2l4.49-2.76l0.76-3.37l3.2,0.3l0.49-1.479l2.47,4.859l1.979-0.59l0.63-2.7l1.9-1.35l0.32-2.26l1.12-0.71
		l0.04-1.971l2.96,0.99l-0.48,2.021l-0.96,0.109l1.34,0.351l0.48,1.729l0.939-0.899l0.69,2.699l6.31-1.489l1.101,1.199l2.06-1.319
		l1.521,2.3l1.819-0.36l0.32,1.66l1.6-2.17l1.32-0.189l0,0l7.68,6.04l-1.13,2.18l1.17,1.96l-2.51,2.64l3.4,3.66l3.489,6.88
		l2.53,8.15l1.811,2.3l1.779,6.72l-1.14,2.011l0.71,5.84l1.07,4.25l1.31,0.93l-1.7,3.95l0,0l-1.43-1.25l-0.72-2.41l-1.33-0.54
		l-2.34,0.01l-1.36,3.11l-3.02-1.311l-0.53-2.829l-1.16,0.6l-2.31-0.68l0.479,1.8l-1.16,0.74l-2.39-1.16l-1.14,1.76l-1.561-1.03
		l-0.11,1.11l-3.109,2.11l0.13,1.1l1.43,0.27l-0.56,1.351l0.6,0.63l-0.7,0.63l-3.159-1.12l-0.49,2.66l-5.79-2.58l-3.72,4.64
		l-3.881-1.8l-3.54,1.32l-5.55-2.24l-5.08,1.49l-5.739,5.13l-8.271-1.9l0,0l-0.8-2.229l0.86-1.14l-0.95-1.601l-2.681,0.07
		l-2.89-2.32l0.16-7.479l-1.23-3.091l-3.93-1.17l0,0l-0.51-2.38l1.8-2.399l0.31-3.33l-1.68-0.681l-3.27,2.671l-3.46,0.029l1.56-6.41
		l-0.63-0.689l1.02-1.37l-8.04-0.4l-4.85-2.899l2.33-2.09l-0.55-0.761l0.82-1.18l2.56-1.31l0.34-1.23l-0.61-2.52l-4.25-6.46
		l-0.32-1.49l1.19-2.57L407.38,200.599z"/>
	<path id="RO-BH" fill="#1E3250" stroke="#1E3250" stroke-miterlimit="10" d="M161.85,113.25l2.45,1.17l1.01,2.78l1.34,0.439
		l-0.31,2.33l2.21,0.051l-0.01,3.119l3.87,1.801l-0.93,0.77l1.54,5.04l3.13-0.62l1.58,1.311l3.35-1.44l2.24,1.11l0.83,2.35
		l1.96,0.25l0.6,2.28l2.38,2.359l0,0l-0.01,1.761l-3.57,1.489l-0.46,7.16l-1.6,0.99l-0.56,3.34l-1.2,1.09l0.73,0.971l1.62,0.06
		l0.45,2.74l1.69,1.68l-0.76,1.11l1.55,3.28l2.1-0.5l1.66,2.739l3.38,0.44l0.69,1.17l1.57-0.44l0.23,3.42l0,0l-2.76,3.461
		l-0.01,2.85l6.41,4.28l-3.58,7.5l-3.57,1.38l-0.81,2.22l3.63,1.74l-0.32,1.72l2.55,4.7l-1.94,1.82l-2.17-0.69l-2.21,1.35l2.04,1.61
		l2.04-1.57l2.16,0.36l2.45,1.76l0.19,1.38l1.24-0.39l0.84,2.74l-0.7,3.63l0,0l-4.17-2.88l-3.1,2.25l-0.04,1.21l1.84,1.14
		l-3.04,2.18l-0.22,3.54l1.27,2.99l-1.4,2.061l0.9,4.3l0,0l-11.3-2.061l-0.5,1.87l-1.15,0.73l-0.85-1.4l-2.67,0.061l-3.7-4.38
		l-0.39-3.471l-6.93-0.75l-1.34-0.89l-1.2,0.75l-2.66-4.351l-0.99-3.75l0.28-2.939l-3.54-0.1l-0.27-1.261l-3.57-0.93l-0.02-1.15
		l-1.17-0.069l-0.87-1.431l-1.61,2.771l-2.91,0.82l-4.59-1.431l1.82-2.78l-2.15-1.779l-1.24,1.3l-4.14,1.05l-9.64-0.79l-1.62,1.771
		l-3.13-0.36l-0.67,1.94l-0.56-0.641l-0.82,0.71l-0.86-1.17l-0.81,0.46l-0.35-1.93l-4.33,0.229l0,0l0.81-1.3l-1-0.49l-0.54-2.079
		l2.6-0.141l1.34,0.891l2.3-3.24l-0.12-1.78l-2.73-2.55l2.3-3.32l0.09-3.399l5.17-2.58l0.86-2.061l-0.96-3.91l2.45-0.569l2.8-2.86
		l-0.89-0.78l1.37-2.76l-2.58-3.729l2.14-0.511l2.87-4.97l4.32-0.96l1.58-6.02l2.66-1.551l-0.45-4.68l2.36-3.46l-0.56-1.36
		l3.93-8.14l4.52-0.33l1.54-3.229l-0.09-3.851l-1.6-2.399l0.88-3.83l1.6-2.19l1.03,0.98l0.6-0.771l-0.97-1.17l2.63-1.07l2.14-3.529
		l2.7,0.52L161.85,113.25z"/>
	<path id="RO-BN" fill="#1E3250" stroke="#1E3250" stroke-miterlimit="10" d="M280.69,137.08l0.73-1.26l1.65-0.471l0.97-2.899
		l2.18-1.59l1.32-7.011l4.57-0.67l2.84,0.69l0.52-1.57l1.77-1l1.62-4.609l3.49,0.31l1.91-3.21l4.57,0.96l6.42,3.021l4.65-0.75
		l2.97,1.47l3.22-1.76l5.49,0.239l0.37-2.069l2.17-1.011l1.03,1.131l2.16-0.921l3.38,0.61l0,0l1.28,0.11l3.74,3.069l-0.65,1.521
		l1.78,2.87l3.11,2.05l-2.85,2.48l1.34,1.239l-0.49,2.17l-1.6,0.58l-1.09-0.91l-0.73,1.23l-0.03,1.34l2.12,2.86l1.83,0.76
		l-0.42,1.56l1.01,3.851l-2.69,2.26l1.54,2.69l-1.29,5.199l1.26,0.841l0.6,5.869l0,0l-3,2.341l-4.53-0.48l-1.19,1.48l-3.37-0.12
		l-3.99,3.12l-2.1,2.75l-1.28,4.279l-1.93,1.87l-1.12,4.221l1.42,1.18l-0.94,0.18l-0.15,1.311l-1.58,0.35l-3.15-1.19l-2.02-3.76
		l-0.2,1.08l-1.62,0.061l-0.73,2.449l-1.87,0.101l0.44,0.99l-1.75-0.15l-0.56,4.9l-1.39,0.119l0.11,1.23l-2.28,1l-1.1,5.81
		l-1.9-0.89l-3.56,2.35l-0.92-0.96l-3.79,0.78l-7.42-4.67l0,0l0.44-2.52l1.41-0.79l0.25-4.44l1.67-0.4l-2.9-2.68l-0.05-1.31
		l-2.13,0.159l-0.71-2.67l-2.36-0.42l-0.63-3.63l0.82-1.7l-1.15-0.81l2.42-5.3l-2.46-4.48l-2.98,0.55l-1.27-1.34l0.24-1.76
		l-1.21-1.979l-0.95,0.199l-0.06,1.04l-0.92-1.39l-2.46-0.22l-0.89-1.49l-0.53-9.66l1.37-1.25l2.1,1.36l2.99-2.41L280.69,137.08z"/>
	<path id="RO-BR" fill="#1E3250" stroke="#1E3250" stroke-miterlimit="10" d="M509.42,312.91l0.67-0.72l2.33,0.689l0.75,2.03
		l2.971-2.66l0.199,1.79l1.87-0.86l-0.38,1.73l2.04,0.2l-0.39,1.08l1.33-0.341l0.08,0.881l1.18-0.471l-0.5,3.061l2.55-0.721
		l0.21,1.301l1.96,1.199l3.25-0.199l-0.439-0.5l1.739-1.65l6.41,2.71l0.61-0.92l2.29-0.24l0,0l-0.12,4.101l-1.95,6.51l3.99,3.11
		l2.42,0.449l1.32-0.77l0.96,2.2l-2.48,4.05l6.82,4.93l-1.8,1.21l0.39,1.99l-2.59,0.02l1.07,5.971l-1.57,1.93l1.47,3.771l-1.76,5.47
		l1.17,2.06l-2.66,2.431l-1.729,5.609l0,0l-2.591,3.59l-2.329,0.19l-3.07-1.8l-4.66,1.72l0,0l-0.25-1.16l-2.79-0.399l-7.75,1.27
		l-8.59-1.75l-3.7,0.05l-0.11,1.04l-1.27-0.09l-4.52-0.7l-0.181-0.779l-2.3,1.27l-2.58-1.5l0.34-1.01l-2.729-0.2l-3.09,5.45
		l-3.521-2.59l-0.49-1.86l0,0l-1.39-1.44l1.74-0.06l0.939-4.16l-1.34-1.04l0.22-0.649l1.641,0.55l1.51-5.44l-1.45-0.479l0.57-1.971
		l2.12-0.1l-0.17-3.38l-2.04-0.21l-0.24-2.71l-2.72-0.28l0.569-5.93l-2.399-0.65l-1.28-6.5l-3.79,2.28l-1.36-1.49l6.15-7.3
		l7.65,3.96l2.409-2.28l0.881,0.75l1-1.31l-0.891-0.66l0.721-1.17l-1.021-0.521l2.75-1.14l-0.2-1.229l1.23-0.54l-0.641-3.811
		l1.9-1.189l-0.54-1.87l2.61-1.19l-0.42-1.7l0,0l-0.28-1.01l3.86-1.8l0.239-1.71L509.42,312.91z"/>
	<path id="RO-BT" fill="#1E3250" stroke="#1E3250" stroke-miterlimit="10" d="M455.34,51.91l4.29,0.58l1.591-1.141l1.5,2.721
		l1.319-0.71l2.19,3.04l1.46,0.02l-0.99,0.93l0.7,1.051l1.109-0.13l-0.369-1.61l1.89,0.36l-0.66,2.88l3.69,1.359l-0.75,0.71
		l-1.62-0.72l0.29,1.74l2.68,1.09l1.16-1.55l0.34,1.33l0.92-0.561l0.07,2.59l-0.9,1.37l3.48,3.471l0.279,1.55l1.29,0.27l-0.77,2.46
		l2.02-0.699l0.11,2.079l2.44-0.05l-1.311,2.63l2.29,2.051l-1.75,2.489l3.16,1.83l0.7,5.08l2.52,1.561l-0.939,0.89l-0.8-0.72
		l-0.391,1.34l1.65,0.22l-0.58,1.72l1.09,0.351l0.25,1.59l0.81-0.18l-0.079,1.899l0.979-0.43l0.01,1.43l1.181,0.021l-1.12,1.189
		l0.67,1.431l-1.66-0.96l-1,1.21l2.12,1.859l-0.641,1.021l1.48,0.859l-0.11,1.69l1.351,2l2.88,2.11l2,2.899l0,0l-4.49,1l-2.2,1.68
		l-1.88-0.67l-0.59,0.66l1,2.471l-2.54,0.909l-3.66,0.091l-0.189-1.58l-1.511,1.449l-2.899-2.369l-1.351,4.569l0.171,3.67
		l-1.03-0.37l-1.46,2.7l-2.8-4.91l-9.87-0.35l-6.561-2.49l-1.18,0.83l0.47,1.95l-2.25-0.05l-1.21,2.109l0,0l-5.66,1.221l-0.1-3.061
		l-2.521-1.63l3.301-1.25l0.05-1.1l-1.71-0.301l-1.17-4.14l-1.141-0.38l-0.26-1.49l0.94-1.02l-1.11-2.82l0.75-0.41l-4.09-2.109
		l0.18-1.811l-1.35-0.58l0.16-0.819l-0.67,0.479l-0.671-2.45l-1.93,0.04l0.09-0.779l-1.51-0.681l-0.37-1.08l1.021-1.46l-2.07-0.95
		l-3.54-4.3l0.38-1.6l-1.5-0.41l0.53-1.31l-1.04-1.421l-0.78,0.66l-0.71-2.02l-2.73-2.25l-1.93,1.6l-0.89-0.85l-0.1-2.68l-3.73-1.25
		l-2.76-5.07l0,0l1.7,0.49l5.52-2.03l1.25-4.93l4-3.021l1.55-5l2.36-2.47l-0.47-1.9l1.28-1.12l0.83,0.5l1.1-1.17l0.54,1.061
		l0.89-0.15l3.66-1.71l0.89-1.38l3.8,1.04l1.5-1.57l1.32,0.55l0.34-2.3l2.8,0.351l-0.279-1.061l0.899,0.3l0.261-1.029l1.199,0.93
		l0.761-1.11l0.18,1.61l2.32-1.82L455.34,51.91z"/>
	<path id="RO-B" fill="#1E3250" stroke="#1E3250" stroke-miterlimit="10" d="M424.66,409.311L424.66,409.311l-4.33-1.422l1.37-2.129
		l-4.49-0.699l-0.72-4.871l-3.69,0.221l-3.05,1.34l-0.25,1.639l-1.52,0.701l-0.16,2.209l2.34,1.371l0.21,1.279l-3.37,0.16l0.77,3.15
		l2.68,0.449l2.25,2.371l3.18,1.469l1.06-0.719l1.86,2.75l1.81-0.67l-1.56-2.961l1.23-2.311l2.98-0.559L424.66,409.311z"/>
	<path id="RO-BV" fill="#1E3250" stroke="#1E3250" stroke-miterlimit="10" d="M355.19,249.69l1.11-0.32l4.11,2.88l0.74-2.59
		l2.36-1.36l1.44,1.011l1.12-0.301l1.89,1.75l0.16,1.95l4.01,0.43l1.28,1.32l0,0l-0.56,3.04l3.15,4l3.76-1.14l1.92,2.359
		l-1.37,3.101l-0.82-0.221l-0.58,4.94l1.18,2.03l-0.35,1.979l3.3,0.771l-0.57,1.13l-2.18,0.189l0.92,0.86l-0.53,1.37l0.81,2.25
		l1.7,0.02l1.37,1.9l1.17-0.01l-0.39,0.63l2.09,1.41l0.62,2.45l1.04-0.131l0.43-1.329l2.07-0.19l1.07,1.41l2.33-0.07l2.29,1.23
		l-0.1,1.06l2.8,2.87l2.89-0.22l0.32,0.84l3.39,1.149l0.82,1.891l-1.18,1.58l3.73,1.1l-0.45,1.88l2.78-0.01l2.41,2.48l-0.02,6.88
		l0,0l-3.05,3.409l0,0l-3.23-3.21l-4.7-0.05l-1.45,1.58l-0.85,4.811l-1.3,1.93l-2.46-0.68l-1.11-3.091l-1.47-1.199l-3.92,1.63
		l-0.29-0.891l-5.06-1.43l-2.57,0.89l-1.03,1.381l-5.72-0.41l-2.47,0.97l-0.85,1.31l0,0l0,0l0,0l-2.39,1.221l-0.49,3.71l-5.4,0.55
		l0,0l-0.89-0.82l-0.24-3.08l-1.04,0.63l-2.09-0.609l0.14-2.98l-1.27-1.89l-0.35-3.66l-3.44-1.17l-5-4.81l-4.35-1.23l-1.81,0.86
		l-3.04-0.771l-1.54,0.86l-2.64-1.05l-3.62,0.41l-1.28-1.5l-8.55,0.5l0,0L323.26,292l-3.08-8.46l3.76-2.96l5.3-0.42l0.29-2.08
		l-3.73-3.2l-1.07-3.979l1.18-0.59l2.3,1.119l1.03-3.83l4.27-0.399l-0.15-2.54l2-0.43l1.6-3.221l3.58-2.02l-0.2-1.18l0,0l0.75-2.75
		l3.93-3.49l2.84,0.68l2.53-1.08l2.77,1.22l0.63-1.859L355.19,249.69z"/>
	<path id="RO-BZ" fill="#1E3250" stroke="#1E3250" stroke-miterlimit="10" d="M434.05,283.709l3.271,2.24l-0.37,3.61l2.49,1.75
		l-0.3,1.489l4.88,6.61l1.95-0.29l1.359,1.229l2.82-1.069l1.939,4.3l2.07-0.31l3.01,3.54l2.94,0.079l2.71,2.78l3.97-0.38l0.8-0.97
		l2.48,0.72l1.66-0.58l3.84,7.04l2.62,0.8l2.43-2.02l0.95,0.479l-1.12,2.261l1.08-0.15l2.43,2.17l2.73-2.12l1.33,1.271l1.2-0.23
		l2.359-2.189l-0.87,3.14l0.44,3.49l1.95,1.449l0.439-0.779l5.97-0.311l2.131-1.54l0,0l0.42,1.7l-2.61,1.19l0.54,1.87l-1.9,1.189
		l0.641,3.811l-1.23,0.54l0.2,1.229l-2.75,1.14l1.021,0.521l-0.721,1.17l0.891,0.66l-1,1.31l-0.881-0.75l-2.409,2.28l-7.65-3.96
		l-6.15,7.3l1.36,1.49l3.79-2.28l1.28,6.5l2.399,0.65l-0.569,5.93l2.72,0.28l0.24,2.71l2.04,0.21l0.17,3.38l-2.12,0.1l-0.57,1.971
		l1.45,0.479l-1.51,5.44l-1.641-0.55l-0.22,0.649l1.34,1.04l-0.939,4.16l-1.74,0.06l1.39,1.44l0,0l-3.449,0.57l-0.32,2.01
		l2.979,1.18l-0.859,1.931l-2.71-1.051l-0.29,0.63l-2.32-0.85l0.81-3.2l-5.93-3.229l-1.58,2.13l0.24,1.25l-7.24-3.53l-0.84,1.57
		l-2.11,0.149l-1.06,1.431l-2.23-0.84l-1.359-2.04l-9.04,0.159l-1.4-4.159l0,0l-5.989-5.551l3.729-2.26l0.1-2.55l-1,0.59
		l-1.649-3.24l-2.24,1.091l-2.56-7.69l-0.86,0.12l1.21-2.55l-0.92-0.91l1.32-4.061l-2.33-2.909l-4.55,2.279l-1.38-3.14l0.86-1.74
		l-1.58-0.34l-1.67,1.53l-2.77-0.24l-2.54-6.63l-1.02-0.19l-0.11-1.68l1.35-0.84l0.09-1.42l-2.37-2.86l-3.24-1.03l-2.31-4.05
		l-3.86-2.54l0.35-3.479l-0.65-0.551l0,0l3.05-3.409l0,0l2.9-0.41l2.76-4.681l0.44-3.18l1.78-1.229l2.09,0.13l2.23,3.09l2.03-2.12
		l1.16-1.96l1.39-8.63l2.33-1.16L434.05,283.709z"/>
	<path id="RO-CJ" fill="#1E3250" stroke="#1E3250" stroke-miterlimit="10" d="M269.15,139.53l-0.68-1.21l1.5-2.04l1.84-0.04
		l1.29,1.49l6.15-1.28l1.44,0.63l0,0l0.35,3.66l-2.99,2.41l-2.1-1.36l-1.37,1.25l0.53,9.66l0.89,1.49l2.46,0.22l0.92,1.39l0.06-1.04
		l0.95-0.199l1.21,1.979l-0.24,1.76l1.27,1.34l2.98-0.55l2.46,4.48l-2.42,5.3l1.15,0.81l-0.82,1.7l0.63,3.63l2.36,0.42l0.71,2.67
		l2.13-0.159l0.05,1.31l2.9,2.68l-1.67,0.4l-0.25,4.44l-1.41,0.79l-0.44,2.52l0,0l0.45,0.96l-8,5.22l0.89,1.95l2.8,1.4l-0.13,1.149
		l-1.12,2.63l-2.55,0.32l-2.7,2.62v1.22l3.13,0.92l-2.5,4.75l-0.09,2.091l-2.51-0.761l-2.06,2.3l0.28,5.75l0,0l-6.64,1.32
		l-1.63-0.27l-0.45-1.49l-1.19-0.33l-5.48,1.38l-1.82-0.38l-1.93,1.44l0.51,1.369l-1.54-0.159l1.62,1.939l-2.62,0.58l-3.09-0.87
		l-0.55-0.92l0.35-2.5l1.93-2.39l-1.49-2.061l-3.8,1.16l-1.98-1.3l-1.11,0.38l-1.84-2.51l-4.67-2.82l-1.8,0.25l-1.32,1.82
		l-6.42,3.479l-3.17-0.609l-0.34-1.32l-1.38,0.17l-3.5,1.561l-0.96,2.199l-2.87-0.06l0.42-2.44l-1.11-0.529l-0.43-3.08l-1.3-1.66
		l-4.72-0.46l-3.85,1.76l-3.32-0.88l-1.31-1.67l0,0l0.7-3.63l-0.84-2.74l-1.24,0.39l-0.19-1.38l-2.45-1.76l-2.16-0.36l-2.04,1.57
		l-2.04-1.61l2.21-1.35l2.17,0.69l1.94-1.82l-2.55-4.7l0.32-1.72l-3.63-1.74l0.81-2.22l3.57-1.38l3.58-7.5l-6.41-4.28l0.01-2.85
		l2.76-3.461l0,0l4.08,0.561l4.67-0.92l1.31,1.859l2.05,0.53l-0.8,1.08l0.1,2.9l1.55,0.689l0.97,2.15l1.8,1.14l2.36-0.51l0.69,1.59
		l1.2-1.2l0.54,2l1.61-2.199l1.71,1.35l-1.05,2.81l1.77,0.7l3.5-1.78l2.67,0.28l1.36-2.12l-0.49-5.63l1.34-0.83l2.07,4.7l1.31-0.229
		l1.12,1.04l1.43-1.03l0.8,0.359l3.01-3.479l-0.77-1.58l0.88-0.21l-0.13-0.9l1.9-0.729l-0.82-0.16l0.4-0.74l2.56,0.141l1.91-2.23
		l-0.28-0.91l1.03-0.29l-0.78-2.859l-2.77-3.19l3.54-0.09l-0.3-1.771l1.49-0.25l0.11-0.97l-1.01-2.95l3.79-0.359l0.92-2.37
		l2.71,1.56l1.94-1.52l-0.37-1.29l1.65-2.53l4.25-3.22l0.48,0.85l1.13-0.55l0.72-2.03l4.19,2.88l-1.42-3.659L269.15,139.53z"/>
	<path id="RO-CL" fill="#1E3250" stroke="#1E3250" stroke-miterlimit="10" d="M435.67,400.99l3.271-2.471l-1.97-0.25l2.92-3.109
		l2.189,1.459l1.95,3.131l3,1.08l4.52-6.84l0.931,0.58l-0.471,1.289l2.32,0.82l-0.26,2.26l0.88,0.92l2.4,0.609l0.51-2.33l1.16,0.092
		l-0.271,2.85l2.181,0.859l1.55-1.74l0.899,0.15l-0.14,0.9l3.32-0.781l0.069,0.91l4.011-1.289l4.71-0.109l-0.12,2.139l3.91-0.33
		l0.06,2.271l2.91,0.148l0.37-1.639l4.47,1.5l0.45-2.551l1.1,0.619l-0.26,1.32l2.26,0.471l0.88-2.23l1.03,0.16l-0.03,1.82
		l4.13,0.449l0.45-2.75l2.09,1.01l-0.09,0.852l8.15-0.191l0.47-4.199l1.26,0.15l0.2-1.881l0.79-0.02l0.78,0.41l0.43,7.6l4.65,0.73
		l0.34,3.23l4.78,1.379l2.51,1.971l-1.34,1.061l0.83,1.35l-0.67,0.49l1.609,1.818l1-0.939l0.69,1.111l1.53,0.219l1.979-3.719
		l10.43,3.559l0,0l-1.449,3.291l-3.841,4.789l-8.39,0.811l-4.88,3.971l-5.69-0.641l-2.649,0.66l-9.48,6.629l-6.319-0.309
		l-2.721-1.07l-2.59,1.34l0,0l-4.56,0.549l-9.48-2.869l-4.37,1.381l-5.779,0.27l-10.36,5.109l-3.18-0.1l-6.03,2.109l-4.13-0.25
		l-6.021,1.66l-4.96-0.369l0,0l-1.14-5.42l4.39-2.58l0.66-1.281l-0.97-3.52l-0.86-0.391l0.96-1.26l-0.92-1.898l-2.39-0.141
		l-0.42-1.621l-3.23-1.01l-1.39-2.58l-2.11-1.379l0,0l1.61-1.861l-1.39-1.209l4.33-2.711l-0.58-0.1l0.99-0.949l-0.85-0.061
		l-0.48-1.811l1.62,0.381l-0.64-0.93l1.44-0.07l1.13-1.551l2.6-0.16l3.939-2.6l-0.81-1.42l-3.69,0.41l-2.02-2.49L435.67,400.99z"/>
	<path id="RO-CS" fill="#1E3250" stroke="#1E3250" stroke-miterlimit="10" d="M177.36,296.049l1.77,0.891l4.62,7.83l3.67-0.931
		l0.91,1.95l2.52-0.63l-0.35,3.14l1.14-0.319l2.72,4.56l1.34,7.14l-2.53,5.94l-5.02,4.41l0.74,2.439l-0.89,2.63l2.13-0.069
		l1.62,1.109l0,0l-1.25,2.091l-2.61,1.149l-1.74,3.931l1.06,1.409l4.71,1.061l0.66,1.91l0,0l-6.71,8.439l-4.37,3.69l1.63,1.17
		l-1.64,1.52l0.01,6.09l-5.7,8.94l-8.66-0.42l-3.76-3.04l-1.03,2.49l0.51,2.76l-1,1.49l-1.88,0.229l-1.22,6.98l2.36,2.01
		l-0.99,4.441l-0.86,0.629l-0.77-1.471l-1.67,0.41l-1.79-2.439l-2.07,2.201l-2.35-1.391l-0.33,0.699l0,0l-1.02-2.619l-4.6-1.33
		l-7.47-0.621l-0.91-0.83l-4.52,0.842l-1.94-1.012l-3.97,0.262l-3.06-8.831l-3.25-1.19l-8.69-0.4l-1.19-2.88l-1.64-1.29l-0.42-1.77
		h0.65l0.44-2.36l5.29-0.649l1,0.79l6.04-1.94l-0.97-3.84l-6.94-2.68l-5.06-5.46l6.19-1.74l0.11-2.84l1.68-1.841l-0.78-1.31
		l0.47-1.43l3.24-1.761l-0.82-2.739l-1.45-0.16l-0.61-1.61l0,0l2.22-0.99l-0.38-1.46l1.52-4.229l1.19-0.72l0.07-2.04l-2.01-2.15
		l-0.64-2.28l-2.1-1.029l-1.79-2.54l-0.52-2.83l4.22-0.891l-1.1-1.29l-1.3,0.341l-0.72-3.99l6.8-2.72l1.98-5.74l6.14-1.16l0.85,1.72
		l2.52,0.73l1.23,2.18l4.51-0.88l2.53,0.439l0.11-2.229l2.38-0.45l-1.06,2.561l0.65,0.77l2.55-0.7l0.85,1.34l-0.93,2.141l2.2,0.95
		l3.47-0.091l1.77-2.34l-0.64-5.42l1.15-0.74l0.67,0.801l2.03-1.87l2.04-0.42l1.66-3.061l6.88,4.271l3.32-7.311l1.55,1.09
		l3.07-1.119l0.81,1.06L177.36,296.049z"/>
	<path id="RO-CT" fill="#1E3250" stroke="#1E3250" stroke-miterlimit="10" d="M599.57,385.83l1.22,0.699l-0.43,1.301l-0.43-1.65
		l-0.91,1.1L599.57,385.83z M591.42,386.539l-0.34,1.33l0.271-1.059l-0.91-0.08l1.99-1.311L591.42,386.539z M600.88,385.359
		l1.261,1.061l1.33-0.859l-4.881,6.869l3.521-5.35l-2.16-2.02L600.88,385.359z M594.391,383.959l5.34,1.179l-3.98,2.342l-3.13,3.389
		L592.28,390l1.21-1.451l4.05-2.93l-2.42-1.52l-2.899,0.881L594.391,383.959z M543.101,375.339l2.659,0.811l2.511-0.641l2.54,1.761
		l-0.78,1.55l1.32,0.87l1.26-1.061l2.53,0.07l-0.11,4.07l4.58,2.33l0.65,1.391l4.199,0.539l-0.68,2l1.92,0.451l0.25-0.842
		l1.78,0.301l0.189-0.93l1.351-0.189l0.83,2.629l3.28-0.709l0.229-1.82l10.47-0.291l-0.13-1.91l1.86-0.449l1.319,1.811l1.471-0.33
		l0,0l0.85,3.359l2.69-0.09l0.449,0.891l-3.59,3.119l1.04-2.439l-2.35,0.35l0.03,3.49l1.899-0.02l-1.78,1.689l-1.739-0.619l-1,1.969
		l0.51,0.91l0.979-1.391l2.08,0.26l-1.699,4.871l0.39,3.029l5.88-8.629l3.71-1.611l0.75-1.229l-4.24,7.898l-6.649,7.971l-3.74,6.109
		l-1.83,0.051l-1.95,1.9l-0.58,6.65l2.73,7.17l-1.63,1.299l1.729,1.021l-1.26,0.408l1.24,2.631l-1.12-0.039l0.41-0.852l-0.771-0.68
		l-0.189,2.34l-1.061,0.26l2.62,0.291l-1.69,2.029l1.86,7.6l-3.54,8.23l-0.34,4.211l-1.95,4.33l0.641,1.139l-0.54,4.391l-8.61,0.461
		l-6.43-1.67l-7.37-0.602l-15.5-7.529l-3.17-12.51l-1.79-2.27l-4.74,3.729l-6.92,1.15l-1.76-0.52l-2.301-5.971l-1.899-1.59
		l-2.07,3.201l-9.03-0.871l-4.67,0.91l-2.81-4.039l-4.25-1.541l-1.15-4.51l0,0l2.58-1.34l2.73,1.07l6.319,0.32l9.471-6.631
		l2.66-0.67l5.689,0.641l4.88-3.971l8.391-0.801l3.83-4.789l1.449-3.289l0,0l1.391-3.57l4.53-5.85l-1.131-4.111l-2.66-2.459
		l-2.399-5.311l1.38-4.109l-0.8-2.121l-3.33-3.369h-2.03l-3.56-2.531l-0.75-1.76l0.45-3.14l0,0l4.649-1.721l3.08,1.801l2.33-0.19
		L543.101,375.339z"/>
	<path id="RO-CV" fill="#1E3250" stroke="#1E3250" stroke-miterlimit="10" d="M373.41,254.459l2.04-0.84l1.64-5.63l3.93-2.32
		l1.66-2.71l4.66-1.92l1.27-2.26l1.73,0.189l1.66,1.641l-0.91,1.319l8.05,12.091l4.45-0.971l6.32,0.16l1.11-3.16l3.17,0.49
		l3.06-1.27l2.47,1.119l0.65-1.979l1.97,0.3l0.79-2.399l2.42-1.171l0.11-2.96l0,0l3.93,1.17l1.23,3.091l-0.16,7.479l2.89,2.32
		l2.681-0.07l0.95,1.601l-0.86,1.14l0.8,2.229l0,0v4.99l-3.08,2.96l0.19,3.37l-1.17,1.73l0.71,2.38l-0.9,5.399l1.18,1.74l0,0
		l-0.27,6.08l-2.33,1.16l-1.39,8.63l-1.16,1.96l-2.03,2.12l-2.23-3.09l-2.09-0.13l-1.78,1.229l-0.44,3.18l-2.76,4.681l-2.9,0.41l0,0
		l0.02-6.88l-2.41-2.48l-2.78,0.01l0.45-1.88l-3.73-1.1l1.18-1.58l-0.82-1.891l-3.39-1.149l-0.32-0.84l-2.89,0.22l-2.8-2.87
		l0.1-1.06l-2.29-1.23l-2.33,0.07l-1.07-1.41l-2.07,0.19l-0.43,1.329l-1.04,0.131l-0.62-2.45l-2.09-1.41l0.39-0.63l-1.17,0.01
		l-1.37-1.9l-1.7-0.02l-0.81-2.25l0.53-1.37l-0.92-0.86l2.18-0.189l0.57-1.13l-3.3-0.771l0.35-1.979l-1.18-2.03l0.58-4.94
		l0.82,0.221l1.37-3.101l-1.92-2.359L376,261.5l-3.15-4L373.41,254.459z"/>
	<path id="RO-DB" fill="#1E3250" stroke="#1E3250" stroke-miterlimit="10" d="M373.14,316.889l1.19,1.311l0.76,3.26l-1.01,5.271
		l4.13,2.359l1.49,2.061l0.18,1.56l-1.36,1.13l-0.79,3.13l0.57,3.16l2.06,0.16l0.24,2.09l2.05,1.311l1.21,3.54l4,3.199l0.35,10.881
		l1.12-0.841l2.23,0.351l0.93,1.59l1.9-0.45l2.75,3.48l-1.08,1.069l0.69,2.13l-1.63,1.95l3.05,3.181l2.45-0.98l5.13,7.38l-2.61,2.36
		l1.17,2.06l1.53-2.03l1.08,0.039l0,0l0.09,1.75l0,0l0,0l0,0l1.04,0.6l-1.13,0.801l0.59,1.6l-2.42,0.859l-0.28,1.15l3.39,2.881
		l-5.49,4.648l0,0l0,0l0,0l-1.98-1.898l-1.31,4.389l0,0l-0.46,0.99l-1.54-1.529l-3.12,1.109l-3.94-1.33l-2.21,2.01l-3.08-3.01
		l-2.76,2.891l-1.61-1.16l-4.72,2.461l-2.24,3.539l0,0l-1.51-0.869l1.17-1.771L372.31,402l-1.19,0.219l-1.6-1.139l-2.81,0.279
		l1.1,3.77l-4.43,4.051l0.29,0.58l-3.39,1.039l-2.44-3.18l0,0l2.99,0.57l0.78-0.65l-0.33-2.08l0.76-0.898l-1.29-3.051l1.07-1.641
		l-0.37-2.369l-4.81-5.09l0.52-1.781l-2.45-2.43l1.8-0.25l2.16-3.27l-2.99-1.69l1.36-7.351l-0.26-5.619l-1.99-7.98l0.63-3.53
		l1.55-1.699l-0.7-2.2l-0.94,0.02l-0.64-1.34l-1.25,0.3l-1.17-1.899l0.71-2l1.55,0.609l0.87-2.59l-1.32-2.04l0.32-1.04l-1.02-0.47
		l0.76-4.66l-1.38-0.27l-0.03-1.881l1.28-1.35l2.9,4.63l1.5,1l1.8-0.78l-0.32-2.909l3-1.16l-0.76-4.17l1.64-2.05l1.36-5.771
		l-0.27-2.42l0,0l5.4-0.55l0.49-3.71L373.14,316.889z"/>
	<path id="RO-DJ" fill="#1E3250" stroke="#1E3250" stroke-miterlimit="10" d="M243.94,396.379l2.48-0.58l2.99-2.898l3.18-0.432
		l1.25,1.941l5.5-0.91l1.16,1.549l0.69-11.489l1.07-0.641l1.73,0.82l0,0l0.72,1.84l-0.59,2.109l0.93,0.48l0.52,2.549l0.74-1.648
		l1,1.039l5.49,1.4l-0.43,3.449l1.29,0.711l0.99,4.41l0,0l-2.39,1.809l0.71,1.23l-2.47,2.5l1.99,0.91l-0.5,2.041l3.15,3.059
		l1.07-1.189l1.42,0.621l-0.88,2.35l5.35,1.5l-0.55,1.32l4.44,5.26l0.13,1.76l2.91,1.039l2.12,2.59l1.64-0.309l0.65,2.17l0.67-0.031
		l-0.96,3.42l1.42,0.271l-2.72,13.58l2.41,2.318l-0.58,1.66l0.64,1l-1.13-0.309l-0.35,0.898l1.53,1.381l-0.65,0.9l0.62,0.439
		l-1.4,6.199l-5.22,6.65l-1.1,6.531l2.1,1.859l0,0l-11.2-4.82l-7.17-0.99l-6.23-2.619l-1.22-1.49l-3.1-0.27l-5.55,1.16l-3.48-1.182
		l-2.91-2.67l-5.66-1.479l-10.04,0.41l-8.33,3.479l-5.06,1.07l-12.19-3.471l-1.38-1.27l-0.99-3.09l2.62-8.641l3.21-2.119l5.13-0.859
		l2.24-3.781l-0.75-3.129l-4.11-0.9l0,0l0.7-2.17l3.73-3.84l4.07,1.609l1.18-7.561l-2.43-1.27l0.11-1.049l1.63-0.471l1.68-5.34
		l2.99-0.67l0.75-3.35l3.26-0.48l-0.17-1.23l-5.62-3.09l0.45-0.869l1.68,0.109l0.75-3.461l2.62-1.539l0.03-0.961l2.5-0.539
		l-1.5-2.301l5.49,0.15l1.06-1.199l1.25,0.74l1.35-0.9l1.32,1.18l1.69-1.461L243.94,396.379z"/>
	<path id="RO-GJ" fill="#1E3250" stroke="#1E3250" stroke-miterlimit="10" d="M252.71,325l2.13,1.73l0,0l1.2-1.54l0,0l2.81,1.87
		l2.7,0.409l4.22-2.239l3.5,2.08l-3.15,6.34l3.83,10.27l-2.64,1.771l0.12,5.02l-2.13,5.33l-1.74,0.98l-0.12,1.079l0.95,3.761
		l-0.89,7.319l1.28,0.141l1.37,3.31l-1.41,1.84l0.46,5.98l-1.21,3.29l0,0l-1.73-0.82l-1.07,0.641l-0.69,11.489l-1.16-1.549
		l-5.5,0.91l-1.25-1.941l-3.18,0.432l-2.99,2.898l-2.48,0.58l0,0l-3.47-1.969l0.68-1.641l-6.22-3.74l-5.72-2.49l-8.95-1.57
		l-1.59-1.429l-0.05-1.66l-3.89-1.64l-2.01-3.7l-0.73-0.35l-0.94,1.109L210,376.57l0.67-1.59l-2.16-1.521l-2.32-10.979l1.66-1.98
		l-0.33-1.13l-1.13-1.35l-1.41,0.05l-1.43-2.88l-3.83-3.16l-3.9-1.01l-1.51-2.891l-1.73-0.439l0,0l-0.66-1.91l-4.71-1.061
		l-1.06-1.409l1.74-3.931l2.61-1.149l1.25-2.091l0,0l2.08-1.64l9.39-3.07l2.41,1.881l6.2-0.94l1.55-1.61l2.63,5.79l1.08,0.2
		l2.84-2.49l0.38-3.52l5.24,1.7l5.21-3.28l4.25,0.59l1.17-2.58l2.49-0.109l0.26-0.86l1.16,1.95l3.52,2.18L252.71,325z"/>
	<path id="RO-GL" fill="#1E3250" stroke="#1E3250" stroke-miterlimit="10" d="M504.69,252.91l1.729,0.1l1.061,1.49l-0.311,2.98
		l0.9,1.489l-1.12,1.15l1.62,3.01l2.25,1.61l1.87-1.23l0.05-3.33l1.43-0.63l-2.64-5.479l0.9-0.221l-1.03-1.06l0.35-1.45l5.03,2.16
		l1.43-1.15l1.55,0.851l2.75-0.271l1.24,2l3.54-0.699l1.28-1.86l-0.061-1.84l1.671-0.811l0.079,2.24l2.341-0.97l1.819,1.64l1.7-0.51
		l0.9,2.96l1.649-0.88l0.931,1.27l3.72-1.17l2.51,0.57l0,0l0.37,0.67l-1.27,0.46l0.35,1.84l-1.04-0.09l0.53,1.41l-0.75,0.51
		l0.989,1.38l-1.229,3.24l1.45,1.86l-0.471,0.939l1.74,5.17l-0.81,3.721l1.29,0.67l-0.32,1.25l-1.45,0.37l0.17,3.96l0.94,1.619
		l-0.65,0.57l1.38,1.311l1.301-0.311l-0.66,1.97l1.49,2.32l0.239,2.47l-0.71,0.561l0.75,2.28l-0.84,2.59l0.99,0.529l-1.09,0.75
		l0.069,1.141l-1.8,0.47l-1.01-0.689l-1.66,2.069l2.12,2.96l1.1-0.479l0.5,1.04l0.641-0.83l-0.49,1.229l1.11,1.53l0.01,2.39
		l-0.72,0.841l2.09,3.329l1.939,0.66l0,0l-1.359,1.511l-0.5,3.359l-3.351-2.12l-2.7-0.37l-4.359,3.37l0,0l-2.29,0.24l-0.61,0.92
		l-6.41-2.71l-1.739,1.65l0.439,0.5l-3.25,0.199l-1.96-1.199l-0.21-1.301l-2.55,0.721l0.5-3.061l-1.18,0.471l-0.08-0.881
		l-1.33,0.341l0.39-1.08l-2.04-0.2l0.38-1.73l-1.87,0.86l-0.199-1.79l-2.971,2.66l-0.75-2.03l-2.33-0.689l-0.67,0.72l0,0l-0.55-1.21
		l-1.29,0.05l1.021-0.91l-1.32-1.66l0.51-1.909l-1.56-1.33l0.31-1.4l1.681-0.49l-1.341-2.109l-1.12-0.2l1.011-1.25l-1.48-0.311
		l-0.33-1.569l-1.3,0.35l-1.06-3.82l-1.66,0.79l-3.96-5.5l-0.3-3.63l-1.841-2.39l-1.88-7.3l-3.399-6.9l-1.28-4.76v-2.12l3.51-1.9
		l-0.18-1.52l1.31-1.91l8.101-1.06l-0.36-4.141l0.521-0.42l2.979,2.2L504.69,252.91z"/>
	<path id="RO-GR" fill="#1E3250" stroke="#1E3250" stroke-miterlimit="10" d="M373.74,405.35l2.24-3.539l4.72-2.461l1.61,1.16
		l2.76-2.891l3.08,3.01l2.21-2.01l3.94,1.33l3.12-1.109l1.54,1.529l0.46-0.99l0,0l2.29-0.279l1.13,1.18l0.92,1.26l-1.49,2.83
		l1.08,0.361l-1.24,2.439l-1.6-0.65l-0.31-1.779l-0.97,0.76l1,4.75l-2.64,2.35l4.33,3.07l0.49,1.439l4.63,1.1l1.15,1.111l0.38,1.229
		l-1.45,3.031l2.21-2.84l3.31,3.129l1.76-0.059l0.11,1.449l0,0l0,0l0,0l3.42,1.57l1.3-0.311l0,0l0,0l0,0l0.66-1.061l0,0l0,0l0,0
		l0.62,0.301l1.38-2.029l0,0l0,0l0,0l0.56,0.609l1.36-1.34l0,0l0,0l0,0l1.27-1.75l0,0l2.11,1.379l1.39,2.58l3.23,1.01l0.42,1.621
		l2.39,0.141l0.92,1.898l-0.96,1.26l0.86,0.391l0.97,3.52l-0.66,1.281l-4.39,2.58l1.14,5.42l0,0l-3.84,0.939l-6.79,3.65l-3.41,0.01
		l-2.66,1.65l-3.31,5.35l-6.72,4.131l-4.85,7.42l-4.33,2.898l-1.85,3.26l-3.38,1.801l-3.88,0.051l0,0l-1.24-11.711l-2.14-0.789
		l0.19-1.5l-1.51-2.301l1.19-0.92l0.46-5l-1.24-1.959l0.81-0.471l-0.84-1.029l-0.58-5.971l2.27-0.6l-0.91-2.17l1.56-2.531
		l0.94,0.461l0.26-1.689l1,1.869l0.77-2.33l1.73-0.57l-3.77-3.289l0.56-3.91l1.97-4.111l-1.62-1.27l-0.08-2.09l-0.79-0.25
		l-0.52,1.66l-1.82-1.18l0.57-1.279l-2.44-1.182l-1.2,0.59l-6.68-1.318l0.24-2.381l1.4-1.82l-0.61-0.77l1.76-1.92l-3.11-2.25
		l1.08-2.301L373.74,405.35z"/>
	<path id="RO-HD" fill="#1E3250" stroke="#1E3250" stroke-miterlimit="10" d="M198.57,232.5l1.63,0.17l2.08,2.3l7.85-0.25l1.87,3.95
		l-0.91,1.8l2.33,4l3.27,1.88l1.22-0.76l1.3,2l1.4,0.49l0.34,3.83l-1.36-0.62l-1.29,0.68l2.01,4.07l-0.77,1.35l0.68,2.66l2,1.141
		l1.57-0.301l2.07,1.811l3-0.67l-0.5,1.83l3.38,7.51l2.66,1.57l1.68,2.949l-0.18,5.4l1.36,4.63l2.04,2.12l-1.31,3.94l3.66,3.479
		l-2.15,3.09l2.66,1.38l-0.09,3.46l4.89,0.99l0.72,2.561l1.42-0.11l2.49,2.4l1.53,5.05l0,0l-1.35,4.02l1.12,0.42l0.58,3.101
		l-0.76,3.18l0,0l-9.1,5.33l-3.52-2.18l-1.16-1.95l-0.26,0.86l-2.49,0.109l-1.17,2.58l-4.25-0.59l-5.21,3.28l-5.24-1.7l-0.38,3.52
		l-2.84,2.49l-1.08-0.2l-2.63-5.79l-1.55,1.61l-6.2,0.94l-2.41-1.881l-9.39,3.07l-2.08,1.64l0,0l-1.62-1.109l-2.13,0.069l0.89-2.63
		l-0.74-2.439l5.02-4.41l2.53-5.94l-1.34-7.14l-2.72-4.56l-1.14,0.319l0.35-3.14l-2.52,0.63l-0.91-1.95l-3.67,0.931l-4.62-7.83
		l-1.77-0.891l0,0l2.56-3.41l0.31-2.409l3.05-0.811l1.87-3.609l-1.47-1.62l-1.57,1.09l-1.23-0.37l-0.3-4.45l-2.61-1.81l-1.42,0.439
		l-2.43-3.37l1.95-1.64l0.15-1.36l0,0l1.49-2.42l-0.39-0.79l-3.91-0.35l-1.6-2.74l0.43-1.05l2.43,0.27l0.6-1.369l2.55,0.01
		l-0.25-7.29l-1.22-1.021l3.09-2.76l0.13-1.26l2.21-1.03l-2.64-2.149l-1.02-3.07l3.51-2.92l1.65,2.39l2.39-0.479l0.56-0.931
		l6.02,0.03l1.38-8.38l2.79-0.95L198.57,232.5z"/>
	<path id="RO-HR" fill="#1E3250" stroke="#1E3250" stroke-miterlimit="10" d="M359.45,162.969l4.65-2.949l5.57,2.77l1.34-3.19
		l3.17-0.899l4.11,2.21l0.35,2.64l4.35,0.761l1.4-1.79l2.31,0.6l0,0l4.91,1.6l2.58,3.95l-0.35,1.311l2.19,4.79l1.05-1.131l1.64,0.08
		l1.49,2.021l-1.38,0.22l-1.22,2.771l-1.62-0.341l-2.63,4.101l1.25,1.67l-1.01,2.34l2.81,1.75l0.55,4.12v2.57l-1.91,2.489
		l0.35,0.971l4.9,5.88l2.59-0.37l-1.57-3.15l0.51-1.029l5.55,0.869l0,0l2.04,4.11l-1.19,2.57l0.32,1.49l4.25,6.46l0.61,2.52
		l-0.34,1.23l-2.56,1.31l-0.82,1.18l0.55,0.761l-2.33,2.09l4.85,2.899l8.04,0.4l-1.02,1.37l0.63,0.689l-1.56,6.41l3.46-0.029
		l3.27-2.671l1.68,0.681l-0.31,3.33l-1.8,2.399l0.51,2.38l0,0l-0.11,2.96l-2.42,1.171l-0.79,2.399l-1.97-0.3l-0.65,1.979
		l-2.47-1.119l-3.06,1.27l-3.17-0.49l-1.11,3.16l-6.32-0.16l-4.45,0.971l-8.05-12.091l0.91-1.319l-1.66-1.641l-1.73-0.189
		l-1.27,2.26l-4.66,1.92l-1.66,2.71l-3.93,2.32l-1.64,5.63l-2.04,0.84l0,0l-1.28-1.32l-4.01-0.43l-0.16-1.95l-1.89-1.75l-1.12,0.301
		l-1.44-1.011l-2.36,1.36l-0.74,2.59l-4.11-2.88l-1.11,0.32l0,0l-2.82-2.04l-1.59-4.15l-1.68,0.021l-0.64-1.181l-7.7-0.109
		l-1.04-0.431l-0.34-2.16l-2.23-1.43l-1.3,0.48l-1.18-2.15l1.75-2.34l-1.53-0.25l-1.19-3.4l0.85-0.939l2.54,0.64l0.88-0.61
		l2.06,1.421l2.33-1.23l-2.28-4.1l4.23-2.91l1.76-3.021l-1.76-0.739l-0.81,2.1l-0.75-1.561l0.36-1.369l1.75-1.08l0.64-2.29l2.79-1.3
		l1.34-1.98l4.22,0.08l5.51-7.68l3.71-2.69l-0.6-2.25l1.68-7.41l-1.55-1.16l-0.1-3.1l-1.99-0.94l1.9-8.88l-0.75-9.029l-2.53-2.75
		L359.45,162.969z"/>
	<path id="RO-IF" fill="#1E3250" stroke="#1E3250" stroke-miterlimit="10" d="M434.9,400.09l-0.62,1.18l-0.41-1.381l-1.61,0.4
		l-1.01-2.25l2.021-2.77l-0.521-0.721l2.32-2.1l1.34,1.301l1.66-1.189l0.02-2.23l-5.03,1.34l-2.45-4.891l1.95-1.359l0.01-1.56
		l-1.31-2.561l-2.95-2.71l0,0l-2.34,0.92l-0.82,1.75l-4.42-1.93l-0.8,0.73l-2.2-0.87l-0.81,0.84l-2.16-1.351l0.34,2.25l-1.68-1.05
		l-1.46,1.54l-0.11-0.68l-3.03,0.46l-1.19-0.65l-1.24,0.45l0.52,1.63l0,0l0.09,1.74l1.04,0.611l-1.13,0.799l0.59,1.6l-2.42,0.861
		l-0.28,1.139l3.39,2.881l-5.5,4.65l-1.97-1.9l-1.32,4.391l0,0l2.29-0.281l1.13,1.18l0.93,1.271l-1.5,2.83l1.08,0.35l-1.24,2.439
		l-1.6-0.65l-0.31-1.779l-0.97,0.76l1,4.75l-2.64,2.35l4.33,3.07l0.49,1.439l4.63,1.102l1.15,1.109l0.39,1.23l-1.45,3.029l2.2-2.84
		l3.32,3.129l1.75-0.049l0.11,1.449l3.43,1.57l2.58-1.07l1.38-2.029l0.96,0.42l2.23-2.9l0,0l1.61-1.859l-1.39-1.211l4.34-2.709
		l-0.58-0.1l0.98-0.951l-0.84-0.061l-0.48-1.809l1.62,0.389l-0.64-0.93l1.44-0.07l1.13-1.549l2.6-0.15l3.939-2.6l-0.81-1.42
		l-3.69,0.41l-2.02-2.49l3.39-3.131L434.9,400.09z M423.58,411.459l-0.33,0.621l0,0l-2.97,0.559l-1.23,2.311l1.56,2.951l-1.81,0.67
		l-1.86-2.74l-1.06,0.719l-3.18-1.479l-2.25-2.361l-2.68-0.459l-0.77-3.141l3.37-0.16l-0.21-1.279l-2.35-1.371l0.17-2.209
		l1.52-0.701l0.25-1.639l3.04-1.35l3.7-0.211l0.71,4.869l4.49,0.701l-1.37,2.129l4.33,1.42l0,0L423.58,411.459z"/>
	<path id="RO-IL" fill="#1E3250" stroke="#1E3250" stroke-miterlimit="10" d="M448.21,370.19l1.4,4.159l9.04-0.159l1.359,2.04
		l2.23,0.84l1.06-1.431l2.11-0.149l0.84-1.57l7.24,3.53l-0.24-1.25l1.58-2.13l5.93,3.229l-0.81,3.2l2.32,0.85l0.29-0.63l2.71,1.051
		l0.859-1.931l-2.979-1.18l0.32-2.01l3.449-0.57l0,0l0.49,1.86l3.521,2.59l3.09-5.45l2.729,0.2l-0.34,1.01l2.58,1.5l2.3-1.27
		l0.181,0.779l4.52,0.7l1.27,0.09l0.11-1.04l3.7-0.05l8.59,1.75l7.75-1.27l2.79,0.399l0.25,1.16l0,0l-0.44,3.14l0.75,1.771
		l3.561,2.531h2.03l3.33,3.369l0.8,2.119l-1.38,4.102l2.399,5.309l2.66,2.461l1.13,4.109l-4.52,5.85l-1.391,3.57l0,0l-10.43-3.559
		l-1.979,3.719l-1.53-0.219l-0.69-1.111l-1,0.939l-1.609-1.818l0.67-0.49l-0.83-1.35l1.34-1.061l-2.51-1.971l-4.78-1.379l-0.34-3.23
		l-4.65-0.73l-0.43-7.6l-0.78-0.41l-0.79,0.02l-0.2,1.881l-1.26-0.15l-0.47,4.199l-8.15,0.191l0.09-0.852l-2.09-1.01l-0.45,2.75
		l-4.13-0.449l0.03-1.82l-1.03-0.16l-0.88,2.23l-2.26-0.471l0.26-1.32l-1.1-0.619l-0.45,2.551l-4.47-1.5l-0.37,1.639l-2.91-0.148
		l-0.06-2.271l-3.91,0.33l0.12-2.139l-4.71,0.109l-4.011,1.289l-0.069-0.91l-3.32,0.781l0.14-0.9l-0.899-0.15l-1.55,1.74
		l-2.181-0.859l0.271-2.85l-1.16-0.092l-0.51,2.33l-2.4-0.609l-0.88-0.92l0.26-2.26l-2.32-0.82l0.471-1.289l-0.931-0.58l-4.52,6.84
		l-3-1.08l-1.95-3.131l-2.189-1.459l-2.92,3.109l1.97,0.25l-3.271,2.471l0,0l0,0l0,0l-0.77-0.9l-0.62,1.18l-0.42-1.381l-1.61,0.391
		l-1.01-2.24l2.02-2.77l-0.52-0.73l2.32-2.1l1.34,1.301l1.66-1.191l0.02-2.229l-5.03,1.34l-2.45-4.891l1.95-1.359l0.01-1.561
		l-1.31-2.56l-2.95-2.71l0,0l2.2-2.48l0.2,1.36l1.68-0.34l2.19,1.31l3.87-3.909l2.37,1.619l2-1.8l0.97,0.641l1.78-3.03
		L448.21,370.19z"/>
	<path id="RO-IS" fill="#1E3250" stroke="#1E3250" stroke-miterlimit="10" d="M499.65,116.07l1.609,0.18l-0.689,1.47l0.939,0.29
		l-0.079,1.801l1.64,0.619l-0.8,0.53l0.47,0.91l1.01-0.48l-0.8,1.801l1.18,2.06l1.33-0.229l0.8,0.989l0.62-1.189v1.56l1.391-0.41
		l0.13-0.979l1.38,2.42l0.84-0.11l-1.3,2.971l2.08,2.31l-1.021,3.25l0.891-0.42l-0.63,0.86l1.029,0.42l0.46-0.69l-0.09,2.32
		l1.36,0.76l-2.16,1.17l1.15,1.03l0.369-1.101l0.051,1.11l1.01-0.86l1.58,2.46l0.43-0.79l1.44,0.78l0.239-0.93l0.44,2.36l1.31-0.44
		l-0.079-1l1.569,0.479l0.51,1.78l0.7-0.05l-0.18,1.18l0.88,0.69l-0.95,0.03l0.87,0.649l-0.729,0.811l2.609,2.189l-0.56,1.41
		l0.82-0.31l-0.24,1.619l1.029,0.07l-0.38,1.8l1,0.66l-1.739,1.29l0.989,0.771l-1.199,0.069l4.109,0.551l0.44,1.01l-0.71-0.561
		l-0.63,1.36l1.909,1.24l0.86-0.44l1.61,3.25l3.83,1.51l-0.811,0.73l3.21,1.28l0.11,0.899l3.29,0.33l0.34,1.061l-0.83-0.53
		l-0.55,0.81l4.24,2.95l-1.2,1.521l1.29,1.479l-1.12,0.96l1.97,1.5l-1.85,1.83l1.91,0.83l0.29,1.41l-1.2,0.72l1.5,1.26l-0.46,1.08
		l0,0l-6.51,0.66l-1.4-0.25l-0.91-1.53l-2.6-0.29l-1.12,0.671l1.62,2.93l-1.101,0.149l-5.22-4.239l-1.81-0.16l-0.051-1.73
		l-4.409-0.16l-4.78-7.46l-3.04-1.979l-1.29,2.52l0.22,3.7l0.9-0.27l1.029,2.04l-2.909,1.08l-4.841-0.83l0.591,1.819l-3.03,0.29
		l-0.18,1.71l-1.19-1.439l-3.729,0.09l-1.49-1.33l-3.59,0.88l-0.061,1.05l-1.35,0.66l-0.851-1.3l-4.79,0.26l-1.54-1.1l0,0
		l-0.81-2.74l-4.19-3.37l0.811-1.38l1.189,0.13l-0.09-1.06l2.16-2.63l1.311,1.17l2.439-1.59l-3.71-2.551l-0.75-4.529l-2.36,0.27
		l-1.189-1.08l-3.82,0.38l-1.67,4.23l-1.979-0.23l-1.74-3.43l-0.79,2.95l-4.64,1.689l-4.48-0.88l-0.89-2.54l-3.761-4.01l-2.6,1.41
		l-1.62-1.97l-2.87,2.449l-1.42-4.76l0.811-0.71l-1.11-4.85l-5.521-5.771l0,0l3.131-3.689l-0.73-1.78l-2.68-2.07l-0.8,0.33
		l-1.25-5.63l2-0.88l1.01,2.12l1.99-0.09l2.72,2.21l4.189-0.25l-0.64-0.94l0.72-1.05l-2.199-2.04l2.3-1.31l-0.66-1.32l0.72-3.98l0,0
		l1.21-2.109l2.25,0.05l-0.47-1.95l1.18-0.83l6.561,2.49l9.87,0.35l2.8,4.91l1.46-2.7l1.03,0.37l-0.171-3.67l1.351-4.569
		l2.899,2.369l1.511-1.449l0.189,1.58l3.66-0.091l2.54-0.909l-1-2.471l0.59-0.66l1.88,0.67l2.2-1.68l4.49-1l0,0L499.65,116.07z"/>
	<path id="RO-MH" fill="#1E3250" stroke="#1E3250" stroke-miterlimit="10" d="M150.29,393.119l0.33-0.699l2.35,1.391l2.07-2.201
		l1.79,2.439l1.67-0.41l0.77,1.471l0.86-0.629l0.99-4.441l-2.36-2.01l1.22-6.98l1.88-0.229l1-1.49l-0.51-2.76l1.03-2.49l3.76,3.04
		l8.66,0.42l5.7-8.94l-0.01-6.09l1.64-1.52l-1.63-1.17l4.37-3.69l6.71-8.439l0,0l1.73,0.439l1.51,2.891l3.9,1.01l3.83,3.16
		l1.43,2.88l1.41-0.05l1.13,1.35l0.33,1.13l-1.66,1.98l2.32,10.979l2.16,1.521l-0.67,1.59l1.05,0.729l0.94-1.109l0.73,0.35l2.01,3.7
		l3.89,1.64l0.05,1.66l1.59,1.429l8.95,1.57l5.72,2.49l6.22,3.74l-0.68,1.641l3.47,1.969l0,0l-0.82,2.51l-1.69,1.461l-1.32-1.18
		l-1.35,0.9l-1.25-0.74l-1.06,1.199l-5.49-0.15l1.5,2.301l-2.5,0.539l-0.03,0.961l-2.62,1.539l-0.75,3.461l-1.68-0.109l-0.45,0.869
		l5.62,3.09l0.17,1.23l-3.26,0.48l-0.75,3.35l-2.99,0.67l-1.68,5.34l-1.63,0.471l-0.11,1.049l2.43,1.27l-1.18,7.561l-4.07-1.609
		l-3.73,3.84l-0.7,2.17l0,0l-3.2-0.58l-7.32-4.641l-4.01-3.799l-4.31-1.281l0.06-5.76l-7.82-2.609l-2.32-3.369l-1.49-6.771
		l-2.53-2.91l0.34-2.318l3.43,0.6l1.91-0.9l1.07-4.791l1.32-1.398l2.75,0.049l4.37,2.98l4.04-1.891l-0.19-2.439l-2.97-3.561
		l-2.35-1.41l-4.46-0.18l-8.37-8.57l-1.18-0.229l-2.57,1.08l-1.69,2.161l-3.28,0.318l-1.74,1.17l-2.44,3.57l-5.86,13.121
		l-2.43,0.889l-4.42-2.41l-0.7-2.779l-2.1-1.41l-0.69-4.48L150.29,393.119z"/>
	<path id="RO-MM" fill="#1E3250" stroke="#1E3250" stroke-miterlimit="10" d="M251.26,75.379l3.16-0.46l3.36,2.33l7.25-1.03
		l2.87,1.601l1.57,3.63l1.21,0.76l1.06-0.939l3.84-0.5l0.72-1.471l3.61-0.42l1.53,1.72l1.91-0.319l2.13,1.45l1.12,2.17l5.18-0.311
		l2.36,2l6.22-2.81l1.62,1.09l2.08-1.12l0.75-2.6l2.7-1.58l4.89,1.819l4.03-1.63l1.73,2.16l1.82-0.38l0.58,2.44l2.39,2.739l-0.12,3
		l1.98,1.061l0.21,1.21l1.96-0.22l1.07,1.27l0.92-0.86l1.11,1.37l2.87,0.471l-0.43,1.359l0.93,2.431l2.66,2.619l0.45,2.811l3.92-0.5
		l0,0l0.4,2.67l1.93,0.65l5.02,4.659l-0.42,0.82l-2.83,0.61l-3.89,3.56l0,0l-3.38-0.61l-2.16,0.921l-1.03-1.131l-2.17,1.011
		l-0.37,2.069l-5.49-0.239l-3.22,1.76l-2.97-1.47l-4.65,0.75l-6.42-3.021l-4.57-0.96l-1.91,3.21l-3.49-0.31l-1.62,4.609l-1.77,1
		l-0.52,1.57l-2.84-0.69l-4.57,0.67l-1.32,7.011l-2.18,1.59l-0.97,2.899l-1.65,0.471l-0.73,1.26l0,0l-1.44-0.63l-6.15,1.28
		l-1.29-1.49l-1.84,0.04l-1.5,2.04l0.68,1.21l0,0l-2.4-0.95l-2.98,1.24l-3.16-0.07l0.16-1.79l-1.75-0.14l-0.86-2.15l-1.61-0.89
		l-5.54,1.88l-8.19-1.4l-2.28-1.41l-3.23-0.329l-0.15-1.28l-1.44,0.1l-0.77-1.43l-5.98-1l-0.08-0.96l-2.61-0.94l-5.33,2.891l0,0
		l-1.35-1.67l-3.88,1.72l-3.26-1.34l-0.16-4.54l2,0.49l0.96-1.04l2.26,0.27l0.49-6.22l5.81-6.71l2.82,4.02l2.29,0.62l2.11,2.03
		l1.95-0.061l0.79-8.529l2.39-0.38l3.8-3.48l-0.64-0.67l-0.81,0.56l-1.79-2.62l-2.25-0.039l-0.88-1.421l-3.35,0.37l-0.46-2.529
		l1.88-4.261l1.28-0.31l4.38,1.92l1.87-0.47l4.72,1.97l1.82-1.9l5.17-2.189l2.25-4.25l1.22,0.39l1.99-2.069l-1.1-2.461l-2.25-0.939
		l-1.78-4.08l-1.43,0.09l-2.82-2.439l0,0l1.86-4.9L251.26,75.379z"/>
	<path id="RO-MS" fill="#1E3250" stroke="#1E3250" stroke-miterlimit="10" d="M348.46,158.349l1.8,1.62l2.96,0.23l2.06-1.16
		l4.17,3.93l0,0l-0.32,2.801l2.53,2.75l0.75,9.029l-1.9,8.88l1.99,0.94l0.1,3.1l1.55,1.16l-1.68,7.41l0.6,2.25l-3.71,2.69
		l-5.51,7.68l-4.22-0.08l-1.34,1.98l-2.79,1.3l-0.64,2.29l-1.75,1.08l-0.36,1.369l0.75,1.561l0.81-2.1l1.76,0.739l-1.76,3.021
		l-4.23,2.91l2.28,4.1l-2.33,1.23l-2.06-1.421l-0.88,0.61l-2.54-0.64l-0.85,0.939l1.19,3.4l1.53,0.25l-1.75,2.34l1.18,2.15l1.3-0.48
		l2.23,1.43l0.34,2.16l1.04,0.431l7.7,0.109l0.64,1.181l1.68-0.021l1.59,4.15l2.82,2.04l0,0l-1.4,0.84l-0.63,1.859l-2.77-1.22
		l-2.53,1.08l-2.84-0.68l-3.93,3.49l-0.75,2.75l0,0l-1.71-0.23l-1.92-2.56l-5.33,1.56l-1.81-0.84l-0.58,1.38l-2.45-0.16l-0.9,1
		l-1.95-0.93l-0.85-1.38l0.8-8.521l-0.08-2.189l-1.24-1.73l0.82-1.13l-0.54-3.2l-1.72,0.51l-1.21,2.28l-1.66,0.41l-2.21-1.27
		l-4.31,1.72l-0.68-1.33l-3.99-0.45l-3,1.811l-4.83-1.11l-2.3,0.08l-0.91,1.05l0,0l-2.17-1.87l-1.4,0.2v-1.47l-3.41-1.79l-0.86-3.46
		l-3.4-0.021l-4.67-3.37l-0.65-1.46l1.56-1.649l1.02-5.16l-1.23,0.14l-1.38,2.16l-1.58-0.07l-0.73-2.16l0,0l-0.28-5.75l2.06-2.3
		l2.51,0.761l0.09-2.091l2.5-4.75l-3.13-0.92v-1.22l2.7-2.62l2.55-0.32l1.12-2.63l0.13-1.149l-2.8-1.4l-0.89-1.95l8-5.22l-0.45-0.96
		l0,0l7.42,4.67l3.79-0.78l0.92,0.96l3.56-2.35l1.9,0.89l1.1-5.81l2.28-1l-0.11-1.23l1.39-0.119l0.56-4.9l1.75,0.15l-0.44-0.99
		l1.87-0.101l0.73-2.449l1.62-0.061l0.2-1.08l2.02,3.76l3.15,1.19l1.58-0.35l0.15-1.311l0.94-0.18l-1.42-1.18l1.12-4.221l1.93-1.87
		l1.28-4.279l2.1-2.75l3.99-3.12l3.37,0.12l1.19-1.48l4.53,0.48L348.46,158.349z"/>
	<path id="RO-NT" fill="#1E3250" stroke="#1E3250" stroke-miterlimit="10" d="M386.7,163.12l0.48-2.87l1.84-2.21l0.21-2.47
		l1.51-0.73l-0.48-2.18l1.42-1.69l4.36-0.37l1.68-2.96l-4.2-6.3l0.62-0.609l4.03,0.88l3.88,4.779l1.07,0.181l1.33-1.561l2.92-1.06
		l5.87,1.09l3-1.74l4.26,0.46l0.64-1.029l3.89,2.08l1.17-1.841l2.07,0.32l6.69-4.21l2.271,1.02l0.81,2.49l4.97,4.5l0,0l5.521,5.771
		l1.11,4.85l-0.811,0.71l1.42,4.76l2.87-2.449l1.62,1.97l2.6-1.41l3.761,4.01l0.89,2.54l4.48,0.88l4.64-1.689l0.79-2.95l1.74,3.43
		l1.979,0.23l1.67-4.23l3.82-0.38l1.189,1.08l2.36-0.27l0.75,4.529l3.71,2.551l-2.439,1.59l-1.311-1.17l-2.16,2.63l0.09,1.06
		L482.11,175l-0.811,1.38l4.19,3.37l0.81,2.74l0,0l-0.689,0.88l1.899,2.22l0.24,2.99l-0.29,4.5l-1.3,0.94l0,0l-1.32,0.189l-1.6,2.17
		l-0.32-1.66l-1.819,0.36l-1.521-2.3l-2.06,1.319l-1.101-1.199l-6.31,1.489l-0.69-2.699l-0.939,0.899L468,190.86l-1.34-0.351
		l0.96-0.109l0.48-2.021l-2.96-0.99l-0.04,1.971l-1.12,0.71l-0.32,2.26l-1.9,1.35l-0.63,2.7l-1.979,0.59l-2.47-4.859l-0.49,1.479
		l-3.2-0.3l-0.76,3.37l-4.49,2.76l-2.71,3.2l-2.021-2.271l-1.479-0.199l-1.15,1.35l-3.51,0.1l-5.61,3.48l-3.35-1.21l-1.97-4.53
		l-1.89,1.141l-1.57,3.5l-3.61,1.1l-1.01-1.61l-2.56,1.07l-1.45-0.9l-0.5-4.409l-4.62,0.22l-1.35,1.149l0,0l-5.55-0.869l-0.51,1.029
		l1.57,3.15l-2.59,0.37l-4.9-5.88l-0.35-0.971l1.91-2.489v-2.57l-0.55-4.12l-2.81-1.75l1.01-2.34l-1.25-1.67l2.63-4.101l1.62,0.341
		l1.22-2.771l1.38-0.22l-1.49-2.021l-1.64-0.08l-1.05,1.131l-2.19-4.79l0.35-1.311l-2.58-3.95L386.7,163.12z"/>
	<path id="RO-OT" fill="#1E3250" stroke="#1E3250" stroke-miterlimit="10" d="M274.65,400.08l4.76-0.631l1.76,0.631l-0.16,1.059
		l1.01-0.67l-0.29,1.48l1.23,1.27l2,0.041l3.33-6.141l2.35-0.49l1.43,1.23l2.52-0.299l0.32-1.871l2.94-0.25l-0.21-1.85l2.94,2.049
		l-1.17-8.25l-2.44-2.929l0.43-4.87l0.74-2.16l1.43-0.18l0.05-4.92l1.82-1.47l-0.54-1.721l3.72-1.38l0.95-1.199l1.13,0.72l0.34,3.75
		l0,0l0.77,0.72l-0.8,1.82l4.13-0.311l-0.08-2.33l2.15-4l1.26,0.08l-0.02,3.221l1.93,5.199l0.93,0.271l0.33,3.93l2,2.11l5.37-0.24
		l-0.08,2.19l-1.22,1.439l2.79,7.852l-0.88,1.949l0.9,1.32l0.29,3.799l-0.79,3.141l0.9,3.01l-0.2,4.73l1.39,1.959l3.22-0.059
		l0.44,0.83l0,0l1.3,4.35l1.18,1.141l-1.25,0.799l-0.2,6.52l-0.66,0.451l1.45,0.6l-2.83,3.18l0.6,2.881l2.53,2.32l0.67,3.289
		l-8.87,3.16l0.77,1.801l-4.19,0.789l-5.01,2.48l1.56,3.279l1.32,0.33l0.2,1.621l0.92,0.33l-0.97,0.76l1.6,1.949l0.21,1.82
		l4.1,5.029l-2.5,1.26l4.6,0.23l-2.06,1.131v1.6l-1.97,0.449l-0.6,2.111l-1.89,0.609l-0.26,2.471l0,0l-3.81-2.381l-5.86-1.01
		l-6.32,2.4l-4.17,3.469l-10,1.281l-2.64-0.65l0,0l-2.1-1.859l1.1-6.531l5.22-6.65l1.4-6.199l-0.62-0.439l0.65-0.9l-1.53-1.381
		l0.35-0.898l1.13,0.309l-0.64-1l0.58-1.66l-2.41-2.318l2.72-13.58l-1.42-0.271l0.96-3.42l-0.67,0.031l-0.65-2.17l-1.64,0.309
		l-2.12-2.59l-2.91-1.039l-0.13-1.76l-4.44-5.26l0.55-1.32l-5.35-1.5l0.88-2.35l-1.42-0.621l-1.07,1.189l-3.15-3.059l0.5-2.041
		l-1.99-0.91l2.47-2.5l-0.71-1.23L274.65,400.08z"/>
	<path id="RO-PH" fill="#1E3250" stroke="#1E3250" stroke-miterlimit="10" d="M373.14,316.889l0.85-1.31l2.47-0.97l5.72,0.41
		l1.03-1.381l2.57-0.89l5.06,1.43l0.29,0.891l3.92-1.63l1.47,1.199l1.11,3.091l2.46,0.68l1.3-1.93l0.85-4.811l1.45-1.58l4.7,0.05
		l3.23,3.21l0,0l0.65,0.551l-0.35,3.479l3.86,2.54l2.31,4.05l3.24,1.03l2.37,2.86l-0.09,1.42l-1.35,0.84l0.11,1.68l1.02,0.19
		l2.54,6.63l2.77,0.24l1.67-1.53l1.58,0.34l-0.86,1.74l1.38,3.14l4.55-2.279l2.33,2.909l-1.32,4.061l0.92,0.91l-1.21,2.55l0.86-0.12
		l2.56,7.69l2.24-1.091l1.649,3.24l1-0.59l-0.1,2.55l-3.729,2.26l5.989,5.551l0,0l-2.649,1.76l-1.78,3.03l-0.97-0.641l-2,1.8
		l-2.37-1.619l-3.87,3.909l-2.19-1.31l-1.68,0.34l-0.2-1.36l-2.2,2.48l0,0l-2.34,0.91l-0.82,1.76l-4.42-1.93l-0.79,0.729l-2.2-0.87
		l-0.81,0.83l-2.16-1.34l0.34,2.24l0,0l0,0l0,0l-1.68-1.05l-1.47,1.529l-0.11-0.68l0,0l0,0l0,0l-3.03,0.46l-1.18-0.649l-1.24,0.449
		l0.53,1.63l0,0l-1.08-0.039l-1.53,2.03l-1.17-2.06l2.61-2.36l-5.13-7.38l-2.45,0.98l-3.05-3.181l1.63-1.95l-0.69-2.13l1.08-1.069
		l-2.75-3.48l-1.9,0.45l-0.93-1.59l-2.23-0.351l-1.12,0.841l-0.35-10.881l-4-3.199l-1.21-3.54l-2.05-1.311l-0.24-2.09l-2.06-0.16
		l-0.57-3.16l0.79-3.13l1.36-1.13l-0.18-1.56l-1.49-2.061l-4.13-2.359l1.01-5.271l-0.76-3.26L373.14,316.889z"/>
	<path id="RO-SB" fill="#1E3250" stroke="#1E3250" stroke-miterlimit="10" d="M295.78,242.58l0.91-1.05l2.3-0.08l4.83,1.11l3-1.811
		l3.99,0.45l0.68,1.33l4.31-1.72l2.21,1.27l1.66-0.41l1.21-2.28l1.72-0.51l0.54,3.2l-0.82,1.13l1.24,1.73l0.08,2.189l-0.8,8.521
		l0.85,1.38l1.95,0.93l0.9-1l2.45,0.16l0.58-1.38l1.81,0.84l5.33-1.56l1.92,2.56l1.71,0.23l0,0l0.2,1.18l-3.58,2.02l-1.6,3.221
		l-2,0.43l0.15,2.54l-4.27,0.399l-1.03,3.83l-2.3-1.119l-1.18,0.59l1.07,3.979l3.73,3.2l-0.29,2.08l-5.3,0.42l-3.76,2.96l3.08,8.46
		l0.59,10.061l0,0l-1.01,0.649l-3.62-0.46l-3.33,1.95l-3.94-0.53l-1.02,1.04l0,0l-2.72-1.37l-0.92,0.76l-5.41-0.47l-2.76,1.63
		l-1.21-0.319l-1.78,2.649l-1.82,0.04l-1.78,1.71l-5.56,0.13l-2.19,1.21l-4.13-2.1l-6.33-0.2l-3.24,0.99l-1.31-1.07l-3.63,0.32
		l-3.34,2.64l-2.46,0.34l-2.61,3.16l-2.27,0.54l-0.01-0.63l0,0l1.78-0.54l-0.4-4.41l-0.96-2.58l-1.65-1.479l0.68-2.12l1.8-1.26
		l-0.88-1.19l0.71-2.22l-3.72-3.3l-0.17-2.601l0.69-2.109l2.59-1.03l0.94-1.87l1.37-0.43l-2.83-2.33l0.78-1.72l3.69-2.08l1.88,0.39
		l1.34-5.93l-1.19-0.971l0.73-1.439l-0.61-0.55l5.36-0.71l1.39-2.33l1.88-1.12l-0.49-1.811l0.73-1.93l-1.31-0.86l2.73-2.979
		l4.64,0.01l2.52,4.04l0.06-1.45l2.59-1.569l-0.45-1.9l1.76-2.35l-0.38-0.88l2.02-1.32l1.68-2.96l2.28-0.17l3.98-2.011l0.22-0.869
		l-1.76-1.42l1.08-2.631l-0.56-0.84L295.78,242.58z"/>
	<path id="RO-SJ" fill="#1E3250" stroke="#1E3250" stroke-miterlimit="10" d="M220.95,130.9l5.33-2.891l2.61,0.94l0.08,0.96l5.98,1
		l0.77,1.43l1.44-0.1l0.15,1.28l3.23,0.329l2.28,1.41l8.19,1.4l5.54-1.88l1.61,0.89l0.86,2.15l1.75,0.14l-0.16,1.79l3.16,0.07
		l2.98-1.24l2.4,0.95l0,0l-2.92,5.2l1.42,3.659l-4.19-2.88l-0.72,2.03l-1.13,0.55l-0.48-0.85l-4.25,3.22l-1.65,2.53l0.37,1.29
		l-1.94,1.52l-2.71-1.56l-0.92,2.37l-3.79,0.359l1.01,2.95l-0.11,0.97l-1.49,0.25l0.3,1.771l-3.54,0.09l2.77,3.19l0.78,2.859
		l-1.03,0.29l0.28,0.91l-1.91,2.23l-2.56-0.141l-0.4,0.74l0.82,0.16l-1.9,0.729l0.13,0.9l-0.88,0.21l0.77,1.58l-3.01,3.479
		l-0.8-0.359l-1.43,1.03l-1.12-1.04L231.61,180l-2.07-4.7l-1.34,0.83l0.49,5.63l-1.36,2.12l-2.67-0.28l-3.5,1.78l-1.77-0.7
		l1.05-2.81l-1.71-1.35l-1.61,2.199l-0.54-2l-1.2,1.2l-0.69-1.59l-2.36,0.51l-1.8-1.14l-0.97-2.15l-1.55-0.689l-0.1-2.9l0.8-1.08
		l-2.05-0.53l-1.31-1.859l-4.67,0.92l-4.08-0.561l0,0l-0.23-3.42l-1.57,0.44l-0.69-1.17l-3.38-0.44l-1.66-2.739l-2.1,0.5l-1.55-3.28
		l0.76-1.11l-1.69-1.68l-0.45-2.74l-1.62-0.06l-0.73-0.971l1.2-1.09l0.56-3.34l1.6-0.99l0.46-7.16l3.57-1.489l0.01-1.761l0,0
		l1.03,0.16l1.43-2.649l2.26-0.28l2.1-2.6l5.32-0.87l1.28,1.31l2.16-2.21l3.15,1.78l1.8-0.41l-0.56,1.93l1.39,0.051l1.28,2.56
		l1.31,0.71l2.37-1.12l2.77,0.9l3.54-4.17L220.95,130.9z"/>
	<path id="RO-SM" fill="#1E3250" stroke="#1E3250" stroke-miterlimit="10" d="M225.45,64.08l1.58,2.19l3.51,0.479l1.32-0.689
		l1.59,2.609l-0.7,1.73l3.6,1.66l-0.23,1.699l4.35,1.771l0.99,1.319l1.26-0.149l1.1,1.31l3.17,0.721l0,0l2.82,2.439l1.43-0.09
		l1.78,4.08l2.25,0.939l1.1,2.461l-1.99,2.069l-1.22-0.39l-2.25,4.25l-5.17,2.189l-1.82,1.9l-4.72-1.97l-1.87,0.47l-4.38-1.92
		l-1.28,0.31l-1.88,4.261l0.46,2.529l3.35-0.37l0.88,1.421l2.25,0.039l1.79,2.62l0.81-0.56l0.64,0.67l-3.8,3.48l-2.39,0.38
		l-0.79,8.529l-1.95,0.061l-2.11-2.03l-2.29-0.62l-2.82-4.02l-5.81,6.71l-0.49,6.22l-2.26-0.27l-0.96,1.04l-2-0.49l0.16,4.54
		l3.26,1.34l3.88-1.72l1.35,1.67l0,0l0.77,2.54l-3.54,4.17l-2.77-0.9l-2.37,1.12l-1.31-0.71l-1.28-2.56l-1.39-0.051l0.56-1.93
		l-1.8,0.41l-3.15-1.78l-2.16,2.21l-1.28-1.31l-5.32,0.87l-2.1,2.6l-2.26,0.28l-1.43,2.649l-1.03-0.16l0,0l-2.38-2.359l-0.6-2.28
		l-1.96-0.25l-0.83-2.35l-2.24-1.11l-3.35,1.44l-1.58-1.311l-3.13,0.62l-1.54-5.04l0.93-0.77l-3.87-1.801l0.01-3.119l-2.21-0.051
		l0.31-2.33l-1.34-0.439l-1.01-2.78l-2.45-1.17l0,0l2.61-7.77l1.98-0.801l0.39-3.04l3.38-1.199l0.04-2.301l2.48,1.69l4.83,0.8l1.2-6
		l2.17-0.67l4.37,3.68l3.93,0.04l4.54-1.52l2.05-4.53l4.11-0.71l-1.19-4.78L201,86.27l3.36-1.681l2.73-4.109l4.21-1.551l-0.66-3.02
		l-1.2-0.8L210,73.9l2.83,0.72l2.79,2.05l1.16-1.35l3.8-0.19l1.03-2.87l-0.19-2.989l1.17-1.101L222,67.24L225.45,64.08z"/>
	<path id="RO-SV" fill="#1E3250" stroke="#1E3250" stroke-miterlimit="10" d="M414.19,77.24l2.76,5.07l3.73,1.25l0.1,2.68l0.89,0.85
		l1.93-1.6l2.73,2.25l0.71,2.02l0.78-0.66l1.04,1.421l-0.53,1.31l1.5,0.41l-0.38,1.6l3.54,4.3l2.07,0.95l-1.021,1.46l0.37,1.08
		l1.51,0.681l-0.09,0.779l1.93-0.04l0.671,2.45l0.67-0.479l-0.16,0.819l1.35,0.58l-0.18,1.811l4.09,2.109l-0.75,0.41l1.11,2.82
		l-0.94,1.02l0.26,1.49l1.141,0.38l1.17,4.14l1.71,0.301l-0.05,1.1l-3.301,1.25l2.521,1.63l0.1,3.061l5.66-1.221l0,0l-0.72,3.98
		l0.66,1.32l-2.3,1.31l2.199,2.04l-0.72,1.05l0.64,0.94l-4.189,0.25l-2.72-2.21l-1.99,0.09l-1.01-2.12l-2,0.88l1.25,5.63l0.8-0.33
		l2.68,2.07l0.73,1.78l-3.131,3.689l0,0l-4.97-4.5l-0.81-2.49l-2.271-1.02l-6.69,4.21l-2.07-0.32l-1.17,1.841l-3.89-2.08
		l-0.64,1.029l-4.26-0.46l-3,1.74l-5.87-1.09l-2.92,1.06l-1.33,1.561l-1.07-0.181l-3.88-4.779l-4.03-0.88l-0.62,0.609l4.2,6.3
		l-1.68,2.96l-4.36,0.37l-1.42,1.69l0.48,2.18l-1.51,0.73l-0.21,2.47l-1.84,2.21l-0.48,2.87l0,0l-2.31-0.6l-1.4,1.79l-4.35-0.761
		l-0.35-2.64l-4.11-2.21l-3.17,0.899l-1.34,3.19l-5.57-2.77l-4.65,2.949l0,0l-4.17-3.93l-2.06,1.16l-2.96-0.23l-1.8-1.62l0,0
		l-0.6-5.869l-1.26-0.841l1.29-5.199l-1.54-2.69l2.69-2.26l-1.01-3.851l0.42-1.56l-1.83-0.76l-2.12-2.86l0.03-1.34l0.73-1.23
		l1.09,0.91l1.6-0.58l0.49-2.17l-1.34-1.239l2.85-2.48l-3.11-2.05l-1.78-2.87l0.65-1.521l-3.74-3.069l-1.28-0.11l0,0l3.89-3.56
		l2.83-0.61l0.42-0.82l-5.02-4.659l-1.93-0.65l-0.4-2.67l0,0l3.48,0.34l0.68-0.86l2.05,0.86l0.98-2.08l0.86,0.5l3.15-1.25l1.05-2.39
		l2.16-1.16l0.09-1.7l3.48-4.78l0.66-3.17l2.5-0.09l2.8-2.06l21.62-3.391l8.25,1.03l5.54-2.94l1.95,0.891l1.63-1.601l2.38,0.62
		l7.22-1.689L414.19,77.24z"/>
	<path id="RO-TL" fill="#1E3250" stroke="#1E3250" stroke-miterlimit="10" d="M638.94,376.62l-1.9,0.53l3.101-1.811L638.94,376.62z
		 M640.5,375l2.04-3.39l0.101-3.3l0.109,3.239L640.5,375z M556.96,318.089l-0.26,2.67l4.25,7.03l13.85,6.62l4.971,0.49l4.62,1.75
		l5.239-1.641l-2.62-3.699l3.301-1.82l-1.11-2.59l2.21-0.46l7.88,5.109l1.61-4.71l12.05-5.28l5.69-4.13l3.21,0.54l2.229-1.95
		l1.85,1.04l4.971-0.55l7.75,3.11l3.21,2.2l3.739,4.739l1.351,5.78l-1.09,2.48l1.42,3.119l-3.38-0.5l0.029-0.789l0.08,3.14
		l1.17,2.71l1.98,0.439l2.07-0.779l-2.101,1.76l-1.569,4.33l-2.341,19.49l-1.37-0.03l0.54,3.7l-3.71,2.09l-13.239,1.43l-0.721-0.859
		l-1.72,0.55l1.54,0.43l-12.17,2.8l-4.2,2.551l-4.64,5.069l-1.511-1.79l-0.89-3.29l3.38-0.2l6.561-3.34l1.479-3.27l-3.5-4.75
		l-0.56,1.229l0.96,1.96l-1.96,1.21l-1.65-2.54l-0.33-7.17l0.43-1.02l3.49-1.271l0.13-1.979l-3.77-1.97l-2.021-0.021l-0.34-1.57
		l-3,0.36l0.37,1.9l-1.03,0.819l-1.18,0.061l0.87-1.94l-1.21,1.19l-0.32-0.94l-0.2,1.67l-1.72-3.72l1.08,3.78l-3.02,2.2l-0.601,4.27
		l0.521,2.811l5.93,5.09l-2.78,1.899l1.08,0.311l-0.79,1.84l1.79,2.15l-4.13,0.81l0.89-1.01l-4.1,2.72l-2.85,0.82l1.479-1.09
		l-1.42,0.25l-0.67,1.77l-2.23-0.51l-1.67-1.66l0.601,1.89l3.649,0.53l-0.739,1.07l2.47,0.58l-1.96,1.17l0,0l-1.47,0.33l-1.32-1.811
		l-1.86,0.451l0.13,1.91l-10.47,0.289l-0.229,1.82l-3.28,0.711l-0.83-2.631l-1.35,0.189l-0.19,0.93l-1.78-0.299l-0.25,0.84
		l-1.92-0.449l0.681-2l-4.2-0.541l-0.65-1.391l-4.58-2.33l0.11-4.069l-2.53-0.07l-1.26,1.06l-1.32-0.869l0.78-1.551l-2.54-1.76
		l-2.51,0.64l-2.66-0.81l0,0l1.729-5.61l2.66-2.43l-1.18-2.06l1.77-5.471l-1.479-3.77l1.569-1.94l-1.079-5.97l2.59-0.02l-0.38-1.99
		l1.79-1.21l-6.811-4.92l2.47-4.061l-0.96-2.199l-1.319,0.77l-2.42-0.45L538,330.93l1.939-6.511l0.12-4.1l0,0l4.36-3.37l2.689,0.37
		l3.351,2.12l0.5-3.36l1.37-1.51l0,0l3.67,1.229L556.96,318.089z"/>
	<path id="RO-TM" fill="#1E3250" stroke="#1E3250" stroke-miterlimit="10" d="M58.95,251.27l2.71,2.09l1.08-2.271l1.36,0.681
		l1.25-1.391l0,0l1.18,0.13l0.76,1.41l2.87,0.021l0.52,1.72l3.45,3.28l5.46,1.399l1.65,3.311l2.62-0.551l2.77,1.311l2.79-0.9
		l1,3.761l1.64,1.89l2.05-1.48l0.38-1.71l1.01-0.069l1.79,2.55l3.67,1.54l1.09-2.84l2.13-0.551l-0.43-1.21l2.73,1.57l0.9,2.32
		l0.88-0.05l0.92-2.33l3.93-1.84l4.37-4.2l1.64,2.35l-0.26,2.94l7.22,3.529l-0.07,2.46l1.79,0.98l0.53,2.79l1.43-0.78l0.11-1.99
		l2.07-2.949l0.75,1.85l2.39,0.26l-0.01,1.101l1.44,0.199l2.07-2.689l1.17,1.1l1.54-1.37l1.45,1.04l1.66-1.229l0.79-2.05l4.53-1.051
		l0.32,2.351l7.97,3.36l0.24,1.779l2.66-0.979l2.8,1.16l1.6-3.28l3.96,1.649l1.14-3.619l1.22-0.07l0.66,2.62l3.93,2.399l0,0
		l-0.15,1.36l-1.95,1.64l2.43,3.37l1.42-0.439l2.61,1.81l0.3,4.45l1.23,0.37l1.57-1.09l1.47,1.62l-1.87,3.609l-3.05,0.811
		l-0.31,2.409l-2.56,3.41l0,0l-1.52,1.53l-0.81-1.06l-3.07,1.119l-1.55-1.09l-3.32,7.311l-6.88-4.271l-1.66,3.061l-2.04,0.42
		l-2.03,1.87l-0.67-0.801l-1.15,0.74l0.64,5.42l-1.77,2.34l-3.47,0.091l-2.2-0.95l0.93-2.141l-0.85-1.34l-2.55,0.7l-0.65-0.77
		l1.06-2.561l-2.38,0.45l-0.11,2.229l-2.53-0.439l-4.51,0.88l-1.23-2.18l-2.52-0.73l-0.85-1.72l-6.14,1.16l-1.98,5.74l-6.8,2.72
		l0.72,3.99l1.3-0.341l1.1,1.29l-4.22,0.891l0.52,2.83l1.79,2.54l2.1,1.029l0.64,2.28l2.01,2.15l-0.07,2.04l-1.19,0.72l-1.52,4.229
		l0.38,1.46l-2.22,0.99l0,0l-3.09-1.29l-1.85-2.25l-0.84,0.94l-6.61-2.23l-1.09,1.16l-3.65-1.92l-2.79-6.82l-0.89-0.04l-1.02,1.771
		l-3.09,0.84l-1.02-1.94l-1.27,0.08l0.09-1.39l-2.92,0.67l-0.39-1.56l-3.26-2.271l-0.77-1.729l-1.11-0.09l-0.71-2.74l-3.67-1.351
		l1.14-1.26l-0.89-1.71l-2.22-1.4l-4.04-0.01l-0.14-1.83l4.14-3.279l-2.44-4.801l-1.47,0.49l-0.42-2.74l2.55-4.08l-0.14-7.409
		l1.33-3.54l-2.57-1.011l-0.6,2.94l-4.8,0.35l-1.04-4.34l-1.35,0.311l-0.79-1.61l0.62-1.62l-3.16-3.24l-1.96-0.5l-0.79-3.819
		l-3.47,1.689l-2.1-5.729l-2.33-1.59l-2.7,0.47l-3.84-3.22l0.63-0.66l-0.9-3.931l-5.01-5.51l1.14-0.75l-1.27-0.49l1.66-2.35
		l4.27-2.22l0.84,1.8l0.88-0.85l5.39,1.3l2.01-2.28l0.29-2.06L58.95,251.27z"/>
	<path id="RO-TR" fill="#1E3250" stroke="#1E3250" stroke-miterlimit="10" d="M357.84,407.619l2.44,3.18l3.39-1.039l-0.29-0.58
		l4.43-4.051l-1.1-3.77l2.81-0.279l1.6,1.139l1.19-0.219l1.09,0.709l-1.17,1.771l1.51,0.869l0,0l1.4,1.859l-1.08,2.301l3.11,2.25
		l-1.76,1.92l0.61,0.77l-1.4,1.82l-0.24,2.381l6.68,1.318l1.2-0.59l2.44,1.182l-0.57,1.279l1.82,1.18l0.52-1.66l0.79,0.25l0.08,2.09
		l1.62,1.27l-1.97,4.111l-0.56,3.91l3.77,3.289l-1.73,0.57l-0.77,2.33l-1-1.869L386.44,439l-0.94-0.461l-1.56,2.531l0.91,2.17
		l-2.27,0.6l0.58,5.971l0.84,1.029l-0.81,0.471l1.24,1.959l-0.46,5l-1.19,0.92l1.51,2.301l-0.19,1.5l2.14,0.789l1.24,11.711l0,0
		l-7.28,4.09l-4.83,0.08l-6.53,2.15l-2.46-0.73l-5.63-4.811l-4.8-1.551l-4.91,1.291l-2.86-0.58l-4.43-3.32l-3.67,0.08l-4.17,2
		l-4.4-0.49l-4.53,2.35l-5.46-3.648l0,0l0.26-2.471l1.89-0.609l0.6-2.111l1.97-0.449v-1.6l2.06-1.131l-4.6-0.23l2.5-1.26l-4.1-5.029
		l-0.21-1.82l-1.6-1.949l0.97-0.76l-0.92-0.33l-0.2-1.621l-1.32-0.33l-1.56-3.279l5.01-2.48l4.19-0.789l-0.77-1.801l8.87-3.16
		l-0.67-3.289l-2.53-2.32l-0.6-2.881l2.83-3.18l-1.45-0.6l0.66-0.451l0.2-6.52l1.25-0.799l-1.18-1.141l-1.3-4.35l0,0l1.78-0.641
		l1.13,1.109l6.85-0.51l2.23-2.219l4.9,0.34L357.84,407.619z"/>
	<path id="RO-VL" fill="#1E3250" stroke="#1E3250" stroke-miterlimit="10" d="M255.45,314.669l0.01,0.63l2.27-0.54l2.61-3.16
		l2.46-0.34l3.34-2.64l3.63-0.32l1.31,1.07l3.24-0.99l6.33,0.2l4.13,2.1l2.19-1.21l5.56-0.13l1.78-1.71l1.82-0.04l1.78-2.649
		l1.21,0.319l2.76-1.63l5.41,0.47l0.92-0.76l2.72,1.37l0,0l0.22,3.811l-3.63,5.76l2.03,8.22l1.65,0.93l-0.33,2.86l-1.02,0.83
		l1.17,0.22l0.57,2.75l-2.07,6.12l3.41,4.48l-0.2,1.699l-1.02,0.671l1.23,1.899l-0.56,2.29l-1.51-0.09l-0.06,1.37l0.97-0.03
		l0.44,1.09l-1.6,1.48l1.83,1.77l-1.28,3.641l0.71,1.159l-2.4,4.41l1.3-0.13l-1.39,3.36l0.66,1.37l-3.01,4.38l0,0l-0.34-3.75
		l-1.13-0.72l-0.95,1.199l-3.72,1.38l0.54,1.721l-1.82,1.47l-0.05,4.92l-1.43,0.18l-0.74,2.16l-0.43,4.87l2.44,2.929l1.17,8.25
		l-2.94-2.049l0.21,1.85l-2.94,0.25l-0.32,1.871l-2.52,0.299l-1.43-1.23l-2.35,0.49l-3.33,6.141l-2-0.041l-1.23-1.27l0.29-1.48
		l-1.01,0.67l0.16-1.059l-1.76-0.631l-4.76,0.631l0,0l-0.99-4.41l-1.29-0.711l0.43-3.449l-5.49-1.4l-1-1.039l-0.74,1.648
		l-0.52-2.549l-0.93-0.48l0.59-2.109l-0.72-1.84l0,0l1.21-3.29l-0.46-5.98l1.41-1.84l-1.37-3.31l-1.28-0.141l0.89-7.319l-0.95-3.761
		l0.12-1.079l1.74-0.98l2.13-5.33l-0.12-5.02l2.64-1.771l-3.83-10.27l3.15-6.34l-3.5-2.08l-4.22,2.239l-2.7-0.409l-2.81-1.87l0,0
		l-1.2,1.54l0,0l-2.13-1.73l0,0l0.76-3.18l-0.58-3.101l-1.12-0.42l1.35-4.02l0,0L255.45,314.669z"/>
	<path id="RO-VN" fill="#1E3250" stroke="#1E3250" stroke-miterlimit="10" d="M437.12,261.139l8.271,1.9l5.739-5.13l5.08-1.49
		l5.55,2.24l3.54-1.32l3.881,1.8l3.72-4.64l5.79,2.58l0.49-2.66l3.159,1.12l0.7-0.63l-0.6-0.63l0.56-1.351l-1.43-0.27l-0.13-1.1
		l3.109-2.11l0.11-1.11l1.561,1.03l1.14-1.76l2.39,1.16l1.16-0.74l-0.479-1.8l2.31,0.68l1.16-0.6l0.53,2.829l3.02,1.311l1.36-3.11
		l2.34-0.01l1.33,0.54l0.72,2.41l1.43,1.25l0,0l0.061,1.38l0,0l-0.53,1.67l-2.979-2.2l-0.521,0.42l0.36,4.141L492.92,258l-1.31,1.91
		l0.18,1.52l-3.51,1.9v2.12l1.28,4.76l3.399,6.9l1.88,7.3l1.841,2.39l0.3,3.63l3.96,5.5l1.66-0.79l1.06,3.82l1.3-0.35l0.33,1.569
		l1.48,0.311l-1.011,1.25l1.12,0.2l1.341,2.109l-1.681,0.49l-0.31,1.4l1.56,1.33l-0.51,1.909l1.32,1.66l-1.021,0.91l1.29-0.05
		l0.55,1.21l0,0l-3.96,3.79l-0.239,1.71l-3.86,1.8l0.28,1.01l0,0l-2.131,1.54l-5.97,0.311l-0.439,0.779l-1.95-1.449l-0.44-3.49
		l0.87-3.14l-2.359,2.189l-1.2,0.23l-1.33-1.271l-2.73,2.12l-2.43-2.17l-1.08,0.15l1.12-2.261l-0.95-0.479l-2.43,2.02l-2.62-0.8
		l-3.84-7.04l-1.66,0.58l-2.48-0.72l-0.8,0.97l-3.97,0.38l-2.71-2.78l-2.94-0.079l-3.01-3.54l-2.07,0.31l-1.939-4.3l-2.82,1.069
		l-1.359-1.229l-1.95,0.29l-4.88-6.61l0.3-1.489l-2.49-1.75l0.37-3.61l-3.271-2.24l0,0l-1.18-1.74l0.9-5.399l-0.71-2.38l1.17-1.73
		l-0.19-3.37l3.08-2.96V261.139z"/>
	<path id="RO-VS" fill="#1E3250" stroke="#1E3250" stroke-miterlimit="10" d="M486.3,182.49l1.54,1.1l4.79-0.26l0.851,1.3l1.35-0.66
		l0.061-1.05l3.59-0.88l1.49,1.33l3.729-0.09l1.19,1.439l0.18-1.71l3.03-0.29l-0.591-1.819l4.841,0.83l2.909-1.08l-1.029-2.04
		l-0.9,0.27l-0.22-3.7l1.29-2.52l3.04,1.979l4.78,7.46l4.409,0.16l0.051,1.73l1.81,0.16l5.22,4.239l1.101-0.149l-1.62-2.93
		l1.12-0.671l2.6,0.29l0.91,1.53l1.4,0.25l6.51-0.66l0,0l0.02,2.42l0.57-0.25l0.49,1.82l2.83,2.29l-0.94,0.36l1.53,1.51l-0.7,0.84
		l0.479,1.48l0.87,0.06l-0.529,0.93l1.47,1.17l-0.08,2.37l0.77-0.42l0.591,1.61l0.399-0.67l1.15,6.49l-1.271,2.42l0.57,0.449
		l-1.17,0.181l0.83,2.52l-1.28,1.37l0.96,0.75l-1.33,2.24l1.33,1.07l-0.39,1.52l1.13-0.04l0.22,1.49l0.79,0.09l-1.12,1l1.311,1.3
		l-0.74,2.101l-1.28,0.26l0.53,0.649l-0.86,0.58l1.141,0.46l-1.63-0.029l0.39,0.72l-1.58,1.29l0.55,1.479l-1.52,0.42l0.97,0.761
		l-0.85,1.12l1.52,1.13l-0.37,0.939l-1.6,0.99l0.07,1.36l-0.37-1.181l-0.341,1.42l-1.26-0.92l0.2,1.24l-0.92-0.479l-0.74,2.119
		l1.24,1.03l-2.35,0.69l0.05,3.7l0.83-0.721l-0.4,1.75l1.18-0.25l0.351,1.12l-0.63,0.061l0.81,0.35l-0.99,0.05l0.88,1.25l-1.06,0.84
		l0.56,2.351l-1.18,1.8l0,0l-2.51-0.57l-3.72,1.17l-0.931-1.27l-1.649,0.88l-0.9-2.96l-1.7,0.51l-1.819-1.64l-2.341,0.97
		l-0.079-2.24l-1.671,0.811l0.061,1.84l-1.28,1.86l-3.54,0.699l-1.24-2l-2.75,0.271l-1.55-0.851l-1.43,1.15l-5.03-2.16l-0.35,1.45
		l1.03,1.06l-0.9,0.221l2.64,5.479l-1.43,0.63l-0.05,3.33l-1.87,1.23l-2.25-1.61l-1.62-3.01l1.12-1.15l-0.9-1.489l0.311-2.98
		l-1.061-1.49l-1.729-0.1l0,0l-0.061-1.38l0,0l1.7-3.95l-1.31-0.93l-1.07-4.25l-0.71-5.84l1.14-2.011l-1.779-6.72l-1.811-2.3
		l-2.53-8.15l-3.489-6.88l-3.4-3.66l2.51-2.64l-1.17-1.96l1.13-2.18l-7.68-6.04l0,0l1.3-0.94l0.29-4.5l-0.24-2.99l-1.899-2.22
		L486.3,182.49z"/>
</g>
</svg>
