<?xml version="1.0" encoding="utf-8"?>
<!-- Generator: Adobe Illustrator 15.0.0, SVG Export Plug-In . SVG Version: 6.00 Build 0)  -->
<!DOCTYPE svg PUBLIC "-//W3C//DTD SVG 1.1//EN" "http://www.w3.org/Graphics/SVG/1.1/DTD/svg11.dtd">
<svg version="1.1" id="Layer_1" xmlns:amcharts="http://amcharts.com/ammap"
	 xmlns="http://www.w3.org/2000/svg" xmlns:xlink="http://www.w3.org/1999/xlink" x="0px" y="0px" width="1024px"
	 height="1262.686px" viewBox="0 0 1024 1262.686" enable-background="new 0 0 1024 1262.686" xml:space="preserve">
<defs>
	
	
		<amcharts:ammap  projection="mercator" bottomLatitude="43.894648" leftLongitude="12.400657" topLatitude="43.995696" rightLongitude="12.514129">
		</amcharts:ammap>
</defs>
<g>
	<path id="SM-01" fill="#1E3250" stroke="#1E3250" stroke-width="0.5" d="M291.04,490.18l14.21,3.7l9.03,13.64l7.28,34.66
		l-5.76,8.87l-0.76,8.69l7.29,14.649l-43.89,17.38l-61.01-3.979l24.18,21.49l-0.54,24.08l0,0l13.94,46.529l-40.07,36.73l-11.39,6.29
		l-9.58,9.56l-21.9,11.69l-16.54,17.14l-10.56,2.771l-11.35,8.92l-16.73,3.42L103,792.44l0,0l-6.16,1.479l-4.5-6.38l-4.57-10.67
		l-0.18-12.01l-10.67-4.9l0.72-10.35l-5.39-7.16l-32.14-22.36l-17.77-7.63L7.97,696.85l-4.74-23.52l1.89-49.91L0,604.34l0.02-27.55
		L5,555.72l10.48-8.779l18.63,6.649l19.49,3.15l13.34,7.16l9.39-2.681l10.9,0.601l4.25-10.721l22.02-3.979l33.65-53.19l7.02-3.33
		l12.37,0.46l12.45,5.551l41.45-3.42l40.64,0.97L291.04,490.18z"/>
	<path id="SM-02" fill="#1E3250" stroke="#1E3250" stroke-width="0.5" d="M250.94,1000.73l0.2,13.71l3.59,3.88l12.43,4.76l6.3,7.9
		l4.59,11.5l16.08,12.05l9.07,16.21l1.25,24.71l-19.93,26.04l1.03,10.16l0,0l-5.26,2.26l-11.32,11.46l-14.06,4.01l-15.04-1.01
		l-10.81-15.2l-7,3.33l-7.98-1.76l-22.8,11.779l-7.74,14.5l-13.07,11.591l-16.7,6.05l-30.82,5.72l-18.53,1.07l-16-6.931l-7.95-0.88
		l-17.84-11.029l-16.84-4.25l13.78-23.69l0.75-10.34l6.83-14.41l6.26-10.62l10.26-7.35l2.5-9.69l-18.35-47.76l-22.47-84.19
		l-1.87-7.529l1.51-16.45l5.91-19.44l11.19-18.3l36.45-44.02l3.43-8.08l-3.05-25.37l6.16-2.351l0,0l30.82-6.609l14.12,0.229
		l14.29,10.54l19.47,2.261l8.9,4.25l2.83,13.399l13.42,11.45l15.74-11.04l1.3,28.14l16.66-7.72l5.31,0.32l-1.31,31l-15.86,3.33
		l-14.14-1.11l-13.99,10.021l5.4,5.449l6.4,14.74l0.1,7.71l-9.36,23.24l0.1,7.71l21.5,20.05l20.47,10.71L250.94,1000.73z"/>
	<path id="SM-03" fill="#1E3250" stroke="#1E3250" stroke-width="0.5" d="M919.23,329.32l0.14,9.43l12.649,19.24l-20.43,52.689
		l46.09,69.84l0,0l-10.47,7.95L931.6,508.07l-15.729,11.05l-13.05,14.189l-12.761,33.04l-6.05,7.49l-6.25-3.66l-21.16,2.181
		l-2.68-1.44l3.43-7.2l-1.77-1.529l-13.24,1.39l-11.66-12.53l-15.1-4.43l-15.8,5.91l-8.09-10.3l-8.671,11.18l-15.949-3.51
		l-8.721,7.76l-7.04,0.74l-5.25,3.979l-12.34,1.24l-15.75,11.05l-14.1,0.6l-1.62,10.49l-6.84,15.25l1.04,11.88l-20.86,21.021
		l-14.03,6.609l-0.43,30.04l-19.22,14.83l0,0l-26.49,1.011l-16.81-2.54l-31.15-15.66l-10.59-0.601l3.32-14.05l-4.78-24.35
		l-14.9,8.359l4.95-24.489l-23.09-8.78l-10.601,0.28l-19.35,5.41l-8.06-7.721l-0.301-20.569L502.2,554.1l3.39-8.92l2.47-11.37
		L507.7,508.12l9.42-19.83l2.41-14.84l6.05-10.03l12.24-8.13l0,0l35.229-6.2l21.641-28.84l43.89-19.09l1.65-7.03l6.13-3.18
		l5.35,1.979l14.43,19.971l14.17,3.649l4.591,11.561l11.54,3.93l10.85,16.92l5.26-2.27l12.181-13.261l8.76-4.35l13.85-18.58
		l8.76-4.35l11.23-18.261l14.88-7.58l7.78-11.09l8,2.63l30.88-2.35l24.52-13.69l17.641-2.63l19.18-15.72L919.23,329.32z"/>
	<path id="SM-04" fill="#1E3250" stroke="#1E3250" stroke-width="0.5" d="M982.14,646.3l-20.149,4.34l-10.41,13.08l-9.42,19.82
		l-17.74,17.37l-1.26,12.85l-21.521,37.38l-2.43,13.95l-6.85,15.25l0.27,17.97l-8.52,20.601L872.8,831.2l-16.68,6.88l-15.88,1.62
		l-11.38,5.45l-15.591,20.47l-1.68,7.899l-6.08,5.771l-12.88,23.61l2.09,22.909l4.471,2.95l0.079,5.13l0,0l-19.399,1.99l-45.95-2.08
		l-1.54,15.561l-15.02-0.181l-1.78-0.649l-1.11-16.16l-26.609-6.7l-9.101-18.76l-14.149-1.101l-3.95-27.859l-14.87,9.24l0,0
		l-8.99-8.5l-15.95-6.051l-3.64-5.64l0,0l21.06-9.88l2.54-7.12l11.341-9.74l-3.65-8.18l7.9-4.25l-1.11-13.58l4.36-4.76l5.279-1.391
		l-0.1-6.83l-6.44-16.5l18.21-22.409l9.36-24.11l10.35-16.5l-0.399-27.35l-14.96,4.939l-12.21,8.97l-26.83-22.92l0,0l19.22-14.83
		l0.43-30.04l14.03-6.609l20.86-21.021l-1.04-11.88l6.84-15.25l1.62-10.49l14.1-0.6l15.75-11.05l12.34-1.24l5.25-3.979l7.04-0.74
		l8.721-7.76l15.949,3.51l8.671-11.18l8.09,10.3l15.8-5.91l15.1,4.43l11.66,12.53l13.24-1.39l1.77,1.529l-3.43,7.2l2.68,1.44
		l21.16-2.181l6.25,3.66l6.05-7.49l12.761-33.04l13.05-14.189l15.729-11.05l15.61-19.601l10.47-7.95l0,0l16.271,24.87l17.76,65.9
		l1.351,32.4L982.14,646.3z"/>
	<path id="SM-05" fill="#1E3250" stroke="#1E3250" stroke-width="0.5" d="M617.21,867l3.64,5.64l15.95,6.051l8.99,8.5l0,0
		l-3.23,21.02l3.96,20.18l0.99,26.15l-7.63,5.03l-9.28,11.96l-19.55,11l0.32,19.26l16.26,2.72l7.96-15.56l20.55,10.99v16.069
		l-14.59,11.46l-1.67,13.3l-5.29,6.881l-7.96,2.72l-2.99,4.16l24.88,44.93l-7.31,16.03h-12.59l-34.13,39.43l-0.36,20.27l0,0
		l-12.04,2.08l-7.89,5.08l-7.11-3.55l-14.83,12.69l-18.41,8.729l-5.02,17.641l-17.78-6.7l-4.41,0.42l-16.699,4.29L477.7,1224
		l-23.9-3.51l-6.27-5.351l-33.82-17.09l-3.66-8.17l3.33-14.04l-9.74-3.279l-4.479-3.83l-0.98-5.03l4.34-6.42l-3.59-3.091
		l5.971-14.319l-2.73-4.851l-12.51-10.709l-24.91-11.961l-9.97-17.83l-27.3,6.24l-20.02,19.21l6.28,7.891l-5.19,6.56l-3.39-2.91
		l-4.49,0.19l-6.2,5.86l-2.73-6.561l-6.19,0.65l0,0l-1.03-10.16l19.93-26.04l-1.25-24.71l-9.07-16.21l-16.08-12.05l-4.59-11.5
		l-6.3-7.9l-12.43-4.76l-3.59-3.88l-0.2-13.71l0,0l28.11-9.75l15.89-1.62l33.55-0.04l16.87,5.949l42.92-24.109l10.621,2.31
		l24.699-1.66l7.12,3.511l17.99-36.95l0,0l17.64-1.8l29-9.891l37.851-9l25.38-16.359l28.1-10.62l9.53-11.22L617.21,867z"/>
	<path id="SM-06" fill="#1E3250" stroke="#1E3250" stroke-width="0.5" d="M537.82,455.29l-12.24,8.13l-6.05,10.03l-2.41,14.84
		l-9.42,19.83l0.359,25.689l-2.47,11.37l-3.39,8.92L484.06,581.69l0.301,20.569l8.06,7.721l19.35-5.41l10.601-0.28l23.09,8.78
		l-4.95,24.489l14.9-8.359l4.78,24.35l-3.32,14.05l10.59,0.601l31.15,15.66l16.81,2.54l26.49-1.011l0,0l26.83,22.92l12.21-8.97
		l14.96-4.939l0.399,27.35l-10.35,16.5l-9.36,24.11l-18.21,22.409l6.44,16.5l0.1,6.83l-5.279,1.391l-4.36,4.76l1.11,13.58l-7.9,4.25
		l3.65,8.18L640.81,850l-2.54,7.12L617.21,867l0,0l-21,12.48l-9.53,11.22l-28.1,10.62L533.2,917.68l-37.851,9l-29,9.891l-17.64,1.8
		l0,0l4.29-9.88l1.55-13.86l12.09-18.39l8.71-7.76l-0.939-5.03l0,0l-1.92-10.07l0,0l-2.19-28.04l-5.62-21.72l-0.569-38.48
		l-11.551-4.8l-2.029-17.79l-4.58-12.38l-32.33-34.38l-15.16-9.56l-41.67-11.971l-40.67-2.68l-16.27-24.03l-15.22-14.689
		l-3.65-7.351l-14.22-6.24l-25.69-5.909l0,0l0.54-24.08l-24.18-21.49l61.01,3.979l43.89-17.38l-7.29-14.649l0.76-8.69l5.76-8.87
		l-7.28-34.66l-9.03-13.64l-14.21-3.7l0,0l12.99-18.479l10.49-7.07l62.26-89.59l7.86-5.08l18.47-6.2l0,0l31.859,4.44l23.8-3.33
		l31.561-15.25l13.02-15.07l14.021-6.609l15.2,12.159l-2.351,19.971l-22.54,28.06l14.38,18.21l-12.939,19.32l20.52,15.02
		L537.82,455.29z"/>
	<path id="SM-07" fill="#1E3250" stroke="#1E3250" stroke-width="0.5" d="M241.07,633.36l25.69,5.909l14.22,6.24l3.65,7.351
		l15.22,14.689l16.27,24.03l40.67,2.68l41.67,11.971l15.16,9.56l32.33,34.38l4.58,12.38l2.029,17.79l11.551,4.8l0.569,38.48
		l5.62,21.72l2.19,28.04l0,0l1.92,10.07l0,0l0.939,5.03l-8.71,7.76l-12.09,18.39L453,928.49l-4.29,9.88l0,0l-17.99,36.95
		l-7.12-3.511l-24.699,1.66l-10.621-2.31l-42.92,24.109l-16.87-5.949l-33.55,0.04l-15.89,1.62l-28.11,9.75l0,0l-3.69-9.891
		l-20.47-10.71l-21.5-20.05l-0.1-7.71l9.36-23.24l-0.1-7.71l-6.4-14.74l-5.4-5.449l13.99-10.021l14.14,1.11l15.86-3.33l1.31-31
		l-5.31-0.32l-16.66,7.72l-1.3-28.14l-15.74,11.04l-13.42-11.45l-2.83-13.399l-8.9-4.25l-19.47-2.261l-14.29-10.54l-14.12-0.229
		l-30.82,6.609l0,0L103,792.44l0,0l13.89-16.03l16.73-3.42l11.35-8.92l10.56-2.771l16.54-17.14l21.9-11.69l9.58-9.56l11.39-6.29
		l40.07-36.73L241.07,633.36z"/>
	<path id="SM-08" fill="#1E3250" stroke="#1E3250" stroke-width="0.5" d="M645.79,887.19l14.87-9.24l3.95,27.859l14.149,1.101
		l9.101,18.76l26.609,6.7l1.11,16.16l1.78,0.649l15.02,0.181l1.54-15.561l45.95,2.08l19.399-1.99l0,0l-2.56,7.11l2.86,12.57
		l-2.271,25.91l4.46,3.829l0.13,8.551l7.07,0.14l6.22,3.64l0.17,10.261l-20.869,22.72l-2.44,13.95l-7.66,19.63l-21.54,35.6
		l-7.55,27.34l-5.66,35.69l-105.89,5.82l-33.42,7.71l-16.19,0.829l0,0l0.36-20.27l34.13-39.43h12.59l7.31-16.03l-24.88-44.93
		l2.99-4.16l7.96-2.72l5.29-6.881l1.67-13.3l14.59-11.46V999.94l-20.55-10.99l-7.96,15.56l-16.26-2.72l-0.32-19.26l19.55-11
		l9.28-11.96l7.63-5.03l-0.99-26.15l-3.96-20.18L645.79,887.19z"/>
	<path id="SM-09" fill="#1E3250" stroke="#1E3250" stroke-width="0.5" d="M978.57,42.41l5.939,43.47l-10.57,1.99l-12.26,7.26
		l-25.029,38.62l5.55,16.55l5.09,44.95l9.149,22.19l0.141,9.43l-26.16,23.26l-24.67,4.25l7.5,29.27l5.98,45.67l0,0l-29.021,8.14
		l-19.18,15.72l-17.641,2.63l-24.52,13.69l-30.88,2.35l-8-2.63l-7.78,11.09l-14.88,7.58L756.1,406.15l-8.76,4.35l-13.85,18.58
		l-8.76,4.35L712.55,446.69l-5.26,2.27l-10.85-16.92l-11.54-3.93l-4.591-11.561l-14.17-3.649l-14.43-19.971l-5.35-1.979l-6.13,3.18
		l-1.65,7.03l-43.89,19.09l-21.641,28.84l-35.229,6.2l0,0l-8.181-14.61l-20.52-15.02l12.939-19.32l-14.38-18.21l22.54-28.06
		l2.351-19.971l-15.2-12.159l-14.021,6.609l-13.02,15.07l-31.561,15.25l-23.8,3.33l-31.859-4.44l0,0l27.729-34.569L582.71,206.3
		l15.76-9.34l14.04-4.86l8.681-9.48l15.779-8.51l20.261-3.79l26.26-15.58l29.14-1.3l11.41-3.74l32.28-27.38l25.609-0.04l6.07-7.49
		l10.49-7.08l7.72-15.4l7.81-8.51l18.521-1.94l9.6-8.69l12.341-1.3l7.89-4.21l9.52-13.87l-3.63-5.64l0.8-4.35l9.65-4.44l3.36-11.47
		l5.25-3.98l9.729-0.18l6.88-10.96l9.73,1.52l6.93-11.01l2.63-0.23l7.29,13.83l3.521,0.46l4.33-5.59l6.2-0.65l8.01,6.06l6.21,1.06
		l4.34-3.88l0.729-12.07L969.1,0l5.34,2.04L978.57,42.41z"/>
</g>
</svg>
