<?xml version="1.0" encoding="utf-8"?>
<!-- Generator: Adobe Illustrator 15.0.0, SVG Export Plug-In . SVG Version: 6.00 Build 0)  -->
<!DOCTYPE svg PUBLIC "-//W3C//DTD SVG 1.1//EN" "http://www.w3.org/Graphics/SVG/1.1/DTD/svg11.dtd">
<svg version="1.1" id="Layer_1" xmlns:amcharts="http://amcharts.com/ammap"
	 xmlns="http://www.w3.org/2000/svg" xmlns:xlink="http://www.w3.org/1999/xlink" x="0px" y="0px" width="562.588px"
	 height="815.569px" viewBox="0 0 562.588 815.569" enable-background="new 0 0 562.588 815.569" xml:space="preserve">
<defs>
	
	
		<amcharts:ammap  projection="mercator" bottomLatitude="41.784312" leftLongitude="18.814598" topLatitude="46.190167" rightLongitude="23.006466">
		</amcharts:ammap>
</defs>
<g>
	<path id="RS-00" fill="#1E3250" stroke="#1E3250" stroke-width="0.5" d="M206.31,344.22l-5.9,3.771l-0.72,3.39l-9.21,2.91
		l-11.86-14.05l3.87-2.181l-2.18-5.079l5.81-11.87l-2.18-1.69l1.94-6.78l-4.84-3.88l-1.94-9.2l-5.57,10.17l-7.02-7.021l-6.54,5.33
		l-8.72-6.3l1.45-3.15l0,0l-3.41-11.5l0,0l7.22-7.52l12.29-5.86l-5.82-4.5l6.11-7.9l-1.34-6.01l8.82-3.3l-3-6.11l1.94-7.22
		l16.67-9.75l-0.41-6.68l7.97-5.26l0.39-6.35l-3.98-3.24l0,0l1.69-2.18l0,0l5.33-1.21l0,0l3.82-0.2l0,0l0.29,6.71l7.77,10.83l6.57,3
		l3.11,9.55l8.67,0.86l4.11,16.34l-2.74,7.92l1.63,5.88l12.19,13.53l8.95,3.78l0,0l0.51,0.02l0,0l-0.29,9.2l5.57,4.6l-13.32,4.61
		l5.08,6.29h3.64l6.05,12.84l-2.66,2.181l-7.75-1.21l-3.88,8.47l6.78,6.54l-3.15,1.689l0,0l0.23,4.79l0,0l-6.47-5.37l-9.69,0.971
		l-5.09-7.75l-8.47,3.64l-1.94-8.479l-12.83-4.12l-2.43,5.33l4.85,7.02l-5.57,7.03l0,0L206.31,344.22z"/>
	<path id="RS-01" fill="#1E3250" stroke="#1E3250" stroke-width="0.5" d="M136.44,79.03l-14.35,9.5l2.18,5.57l-7.5,14.05
		l-14.29-6.05l0,0l-4.36-0.25l0,0l5.81-4.11l-8.23-7.75l2.42-4.36l-7.99-4.12l-2.91,4.36l-16.95-20.1l-3.63-14.05l5.57-6.29
		l-4.6,1.45l0.24-4.36l-5-5.16l0,0l-2.04-4.74l10.55-6.72l2.14,2.87l4.45-1.92l6.46-9.15l7.73-4.47l-2.61-4.64l7.91-6.35l8.71,1.479
		l3.8-3.72l4.34,0.5l15.72,11.09l8.51-4.88l0,0l1.49,5.06l-10.89,27.6l-1.21,9.69l2.18,6.54l-3.39,3.87l7.74,18.89l0,0L136.44,79.03
		z"/>
	<path id="RS-02" fill="#1E3250" stroke="#1E3250" stroke-width="0.5" d="M197.38,205.8l-10.05-10.57l0,0l2.67-1.69l0,0l-1.45-3.88
		l7.02-7.26l-14.29-17.2l6.78-6.29l-9.2-6.78l2.66-8.96l-1.45-3.88l-3.63,3.15l-3.39-1.21l-0.25-9.2l-7.02-5.811l-5.57,8.47
		l-1.69-2.66l2.18-7.51l-1.94-3.39l10.65-7.75l-8.71,0.48l3.63-9.68l-7.75,1.69l-0.73-3.14l9.93-2.43l-2.18-6.78l2.42-2.9l0,0h5.57
		l0,0l2.67-5.82l-3.15-2.9l3.63-4.84l23.25-1.94l5.57,12.35l4.12,2.42l-0.97,3.87l-6.54,3.15v4.12l-4.36,5.09l3.39,2.9l6.54,0.24
		l7.51-3.87l7.99,1.69l-1.7-9.2l1.94-4.6l5.33-4.6l6.78,2.42l0.48-8.96l5.51-8.21l0,0l2.78-0.38l3.9,9.08l7.79-1.1l1.21-5.89
		l5.13,2.04l-2.65,7.08l0.27,14.84l-5.11,8.17l0.84,5.48l2.96-0.98l4.87,9.62l-8.28,6.57l0.28,3.65l8.1,0.04l4.43,2.8l1.78,3.42
		l-2.29,2.51l7.37,2.71l1.41,5.48l10.79,10.6l0,0l-26.05,11.39l5.33,3.4l-0.97,2.17l-9.93,5.09l-5.57,8.23l-9.44-9.68l-10.17-3.39
		l-3.63,6.05l-8.48,0.24l-5.33,7.75l0.49,7.75l-3.64,5.09l0,0l-4.6,0.24l0,0l-5.33,1.21l0,0L197.38,205.8z"/>
	<path id="RS-03" fill="#1E3250" stroke="#1E3250" stroke-width="0.5" d="M169.56,90.62l-2.18-4.99l-30.03-6.3l0,0l-2.91-0.97l0,0
		l-7.74-18.89l3.39-3.87l-2.18-6.54l1.21-9.69l10.89-27.6l-1.49-5.06l0,0l6.32-3.95l8.13-0.05l9.08,5.67l4.48-5.95l5.26,6.06
		l5.36-2.65l6.44,6.77l4.82-0.69l0.58,5.49l9.03,9.18l0.54,9.2l7.69,6.43l5.4-0.93l4.67,3.18l4.21,11.47l6.95-3.38l1.58,7.65
		l10.26,7.49l0.26,6.23l0,0l-5.51,8.21l-0.48,8.96l-6.78-2.42l-5.33,4.6l-1.94,4.6l1.7,9.2l-7.99-1.69l-7.51,3.87l-6.54-0.24
		l-3.39-2.9l4.36-5.09v-4.12l6.54-3.15l0.97-3.87l-4.12-2.42l-5.57-12.35l-23.25,1.94l-3.63,4.84l3.15,2.9l-2.67,5.82l0,0H169.56z"
		/>
	<path id="RS-04" fill="#1E3250" stroke="#1E3250" stroke-width="0.5" d="M257.54,282.2l-8.95-3.78l-12.19-13.53l-1.63-5.88
		l2.74-7.92l-4.11-16.34l-8.67-0.86l-3.11-9.55l-6.57-3l-7.77-10.83l-0.29-6.71l0,0l0.78-0.04l0,0l3.64-5.09l-0.49-7.75l5.33-7.75
		l8.48-0.24l3.63-6.05l10.17,3.39l9.44,9.68l5.57-8.23l9.93-5.09l0.97-2.17l-5.33-3.4l26.05-11.39l0,0l6.14-0.61l4.39,6.5
		l10.01-5.16l5.59,13.67l7.32,3.83l2.19-2.31l13.23,4.46l1.68-1.87l14.25,11l1.25,5.58l-6.33,3.06l-2.96,14.86l-12.39,3.47
		l10.12,10.95l13.91,5.35l1.93,7.7l-12.1,3.88l-12.59-0.29l-1.4,8.15l0,0l-17.9,7.58l-8.75,8.01l-14.18,3.73l0,0l-2.01-0.29l0,0
		l-4.21,0.61l-9.14,8.2l-13.76,2.55l0,0L257.54,282.2z"/>
	<path id="RS-05" fill="#1E3250" stroke="#1E3250" stroke-width="0.5" d="M99.13,101.91l-3.92,7.31l2.43,6.29l-4.85-0.479
		l-1.45,7.26l-2.91,1.21l-6.29-3.39l-12.11,13.08l4.12,4.6l-1.46,3.15l-6.54-1.45l-3.14,2.18l-3.64-4.36l-2.66,3.87h-8.23
		l-4.12-3.39L37.34,139l1.69-1.94l-7.02-4.84l-5.09,0.24l0.68-2.28l0,0l7.47,0.16l2.08-4.96l-8.72-3.84l-1.55-4.08l-9.26,4.1
		l-7.4-6.3l2.89-5.94l-1.48-2.74l4.62-1.4l3.58-9.86l-7.47-5.38L9.35,77.18L4.9,72.17l0.77-10.18L0,52.19l6.85-0.1l5.11-4.61
		l13.17,2.03l-1.68-4.37l2.37-2.95l8.62-0.17l-1.8-6.62l5.27-7.3l3.82,0.67l1.56,7.24l19.56,1.35l0,0l5,5.16l-0.24,4.36l4.6-1.45
		l-5.57,6.29l3.63,14.05l16.95,20.1l2.91-4.36l7.99,4.12l-2.42,4.36l8.23,7.75l-5.81,4.11l0,0L99.13,101.91z"/>
	<path id="RS-06" fill="#1E3250" stroke="#1E3250" stroke-width="0.5" d="M27.6,130.18l-0.68,2.28l5.09-0.24l7.02,4.84L37.34,139
		l7.02-1.21l4.12,3.39h8.23l2.66-3.87l3.64,4.36l3.14-2.18l6.54,1.45l1.46-3.15l-4.12-4.6l12.11-13.08l6.29,3.39l2.91-1.21
		l1.45-7.26l4.85,0.479l-2.43-6.29l3.92-7.31l0,0l3.35,0.19l0,0l14.29,6.05l7.5-14.05l-2.18-5.57l14.35-9.5l0,0l0.91,0.3l0,0
		l30.03,6.3l2.18,4.99l0,0h-3.54l0,0l-2.42,2.9l2.18,6.78l-9.93,2.43l0.73,3.14l7.75-1.69l-3.63,9.68l8.71-0.48l-10.65,7.75
		l1.94,3.39l-2.18,7.51l1.69,2.66l5.57-8.47l7.02,5.811l0.25,9.2l3.39,1.21l3.63-3.15l1.45,3.88l-2.66,8.96l9.2,6.78l-6.78,6.29
		l14.29,17.2l-7.02,7.26l1.45,3.88l0,0l-2.26,1.43l0,0l-6.22-7.49l-9.68,0.25l-3.39-3.15l-5.57,5.81l-3.64-0.48l0.73-7.75
		l-3.15-0.49l-7.02,9.93l-19.13,2.66l-7.75-1.93l-21.07,1.69l-12.11-4.6l-7.51,4.84l-6.74-5.89l0,0l0.33-11.18l-19.18-2.04
		l-18.33-9.64l-2.78-7.35l-8.32-1.55l-5.73-4.91l5.58-9.24l-4.43-5.21l0.65-6.51L27.6,130.18z"/>
	<path id="RS-07" fill="#1E3250" stroke="#1E3250" stroke-width="0.5" d="M187.74,194.97l-0.41,0.26l0,0l10.05,10.57l0,0l-1.23,1.59
		l0,0l3.98,3.24l-0.39,6.35l-7.97,5.26l0.41,6.68l-16.67,9.75l-1.94,7.22l3,6.11l-8.82,3.3l1.34,6.01l-6.11,7.9l5.82,4.5
		l-12.29,5.86l-7.22,7.52l0,0l-4.84-1.2l-0.62-2.74l6.61-2.24l3.19-4.98l-10.76,0.39l-15.33-10.61l-9.16-0.62l-2.67-2.74l-1.05-9.18
		l8.05-16.25l-7.19-3.8l-21.45,4.79l-5.78-4.02l-3.84,4.16l-8.29-3.78l-9.49-0.14l2.62,5.86l-11.76-4.44l-5.78,2.99l-4.35-4.59
		l-14.01,10.58l-6.11,1.42l-1.67-8.61l8.79-1.17l9.69-7.99l-1.55-4.84l-11.51,0.64l5.36-3.35l2.6-9.95l-3.04-14.31l6.97-0.22
		l5.27-7.72L47,183.06l11.34,5.41h2.96l0.96-4.95l3.06-0.29l4.9,5.75l5.27-0.61l0,0l6.74,5.89l7.51-4.84l12.11,4.6l21.07-1.69
		l7.75,1.93l19.13-2.66l7.02-9.93l3.15,0.49l-0.73,7.75l3.64,0.48l5.57-5.81l3.39,3.15l9.68-0.25L187.74,194.97z"/>
	<path id="RS-08" fill="#1E3250" stroke="#1E3250" stroke-width="0.5" d="M152.96,297.47l-8.58,2.33l-3.39-2.18l-6.3,6.06
		l3.64,10.89l-4.12,14.529l-6.78-1.21l-12.35-8.229l-8.96,3.63l-8.24-5.08l-9.2,2.9l3.39,5.33l-1.45,6.3l-4.6,1.45l5.57,5.329
		l-0.24,2.9l-4.36,0.73l-6.54,7.989l17.92,7.271l8.47,17.43l-0.96,3.15l-4.12-2.66l-12.07,8.43l-4.48-5.64l0.76-5.04l-4.02,2.939
		l-4.74-6.47L70.9,367.9l-4.42-15.62l-5.91-1.03l-5.46,2.6l-3.64-5.229l-5.61,1.12l-7.52-12.59l0.04-7.65l4.95-4.05l-3.72-15.19
		l1.3-3.79l5.74-0.38l3.08-4.88l-0.55-5.77l4.17-2.03l6.93-16.57l4.55-2.38l-1.43-6.69l3.33-0.93l-3.2-4.88l3.52-1.49l-4.28-1.93
		l2.7-1.64l0.25-4.75l5.56-2.96l-1.34-2.57l4.44-2.17l-7.56-10.32l9.49,0.14l8.29,3.78l3.84-4.16l5.78,4.02l9.64-0.57l7.08-4.42
		l11.2,2.78l-7.33,17.47l0.7,8.61l3.03,3.31l9.15,0.62l15.33,10.61l10.76-0.39l0.14,2.39l-10.1,5.86l5.42,2.96L152.96,297.47z"/>
	<path id="RS-09" fill="#1E3250" stroke="#1E3250" stroke-width="0.5" d="M152.81,297.47l-0.11,1.12l0,0l-1.45,3.15l8.72,6.3
		l6.54-5.33l7.02,7.021l5.57-10.17l1.94,9.2l4.84,3.88l-1.94,6.78l2.18,1.69l-5.81,11.87l2.18,5.079l-3.87,2.181l11.86,14.05
		l9.21-2.91l0.72-3.39l5.9-3.771l0,0l-0.09,0.87l0,0l2.91,0.24l1.38,9.56l0,0l-2.11,3.521l0,0l-16.46,16.95l-13.81,1.21l-5.08,4.6
		l-6.06,0.73l0,0l-1.82,0.54l0,0l-8.35-2.24l-7.51,2.91l-6.05-7.511l-3.87-0.97l-6.06,4.601l-6.05-2.421l5.32,8.721l-5.32,2.18
		l-3.88-7.75l-14.29-8.479l0,0l-8.47-4.36l-2.42-8.71L80.3,351.14l6.53-7.989l4.36-0.73l0.25-2.9l-5.57-5.329l4.6-1.45l1.45-6.3
		l-3.39-5.33l9.2-2.9l8.24,5.08l8.96-3.63l12.35,8.229l6.78,1.21l4.11-14.529l-3.63-10.89l6.3-6.06l3.39,2.18L152.81,297.47z"/>
	<path id="RS-10" fill="#1E3250" stroke="#1E3250" stroke-width="0.5" d="M300.2,365.11l-2.49-0.311l0.49-3.87l-5.57,0.96l-9.2-7.26
		l-1.7-4.6l-9.69,1.689l-11.38-3.149v-5.811l0,0l-6.29-0.24l-0.25-5.09l0,0l3.15-1.689l-6.78-6.54l3.88-8.47l7.75,1.21l2.66-2.181
		l-6.05-12.84h-3.64l-5.08-6.29l13.32-4.61l-5.57-4.6l0.29-9.2l0,0l1.4,0.06l0,0l13.76-2.55l9.14-8.2l4.21-0.61l0,0l2.01,0.29l0,0
		l0.18,11.74l3.15,2.9l0.73,6.54l8.96,3.39l-1.21,10.17l5.08,10.899l-0.48,5.091l-5.33,6.05l0.49,4.12l5.32,1.93l0.97,4.36
		l-6.78,2.18l-0.42,4.29l0,0l-1.07,2.149l6.43,8.931l-3.93,7.859l0,0L300.2,365.11z"/>
	<path id="RS-11" fill="#1E3250" stroke="#1E3250" stroke-width="0.5" d="M299.23,344.87l0.42-4.29l6.78-2.18l-0.97-4.36l-5.32-1.93
		l-0.49-4.12l5.33-6.05l0.48-5.091l-5.08-10.899l1.21-10.17l-8.96-3.39l-0.73-6.54l-3.15-2.9l-0.18-11.74l0,0l0,0l0,0l14.18-3.73
		l8.75-8.01l17.9-7.58l0,0l5.73,8.49l23.91,3.17l6.12,17.69l37.67,2.73l9.21,2.65l2.04,5.24l0,0l-5.32,9.69l-3.319,0.27l-0.83,15.47
		l-6.351,2.76l-1.38,3.86h-4.69l-5.25,8.29l3.31,6.069l-1.93,1.931l11.871,4.42l0.829,11.88l3.04,1.93l3.87-4.42l3.59,10.49
		l-3.039,5.8l0.279,8.01l-8.29,1.66l-2.21,3.03l-5.52-0.82l-2.4,3.42l0,0l-2.15-3.93l0,0l-16.79-2.86l-4.28-3.93l-11.79-0.71
		l-0.72-5l-6.07-5.36l-12.15-2.149l-3.21,2.5l-3.94-2.5l3.22-3.57L322.1,346.3l-3.57,6.431l-4.65-0.711l-6.07-7.859L299.23,344.87z"
		/>
	<path id="RS-12" fill="#1E3250" stroke="#1E3250" stroke-width="0.5" d="M254.35,342.22l6.31,0.54l0,0v5.811l11.38,3.149
		l9.69-1.689l1.7,4.6l9.2,7.26l5.57-0.96l-0.49,3.87l2.49,0.311l0,0l-1.32,3.699l0,0l6.79,7.86l-10.01,12.5l2.86,8.93l-9.65,3.94
		l4.65,6.43l-8.22,8.57l1.07,4.65l3.93,1.069l-16.74,9.58l0,0l-0.41-2.439l0,0l-13.22-1.78l-3.57,1.43l-0.71,3.21l2.5,1.79
		l-10.01,3.21l-7.86-12.14l0,0l-2.23-1l0,0l-12.94-19.47l13.81-10.66l-12.84-12.351l-2.66-9.449l-10.17-8.71l-2.67-9.211l0,0
		l-0.07,0.12l0,0l-1.38-9.56l-2.91-0.24l0,0l0.49-4.6l0,0l5.57-7.03l-4.85-7.02l2.43-5.33l12.83,4.12l1.94,8.479l8.47-3.64
		l5.09,7.75l9.69-0.971L254.35,342.22z"/>
	<path id="RS-13" fill="#1E3250" stroke="#1E3250" stroke-width="0.5" d="M347.5,441.42l-0.39-1.08l0,0l-4.29,4.641l-6.07,1.43
		l-5.72-4.65l4.29-2.14l-3.57-3.57l-11.79,2.86l0.35-13.58l-3.21,2.86l-0.72,10.359l-6.43,4.641l-6.43-1.07l1.43,6.43l-3.93,1.431
		l-15.36-4.29l-2.86,1.79l0,0l-3.6-3.301l0,0l-4.97-7.85l0,0l-0.67-3.99l0,0l16.74-9.58l-3.93-1.069l-1.07-4.65l8.22-8.57
		l-4.65-6.43l9.65-3.94l-2.86-8.93l10.01-12.5l-6.79-7.86l0,0l1.78-5l0,0l3.93-7.859l-6.43-8.931l1.07-2.149l0,0l8.58-0.71
		l6.07,7.859l4.65,0.711l3.57-6.431l10.36,11.79l-3.22,3.57l3.94,2.5l3.21-2.5l12.15,2.149l6.07,5.36l0.72,5l11.79,0.71l4.28,3.93
		l16.79,2.86l0,0l2.15,3.93l0,0l-4.65,10.36l0,0l-2.14,6.43l0,0l-6.07,13.58l-5,0.36l1.78,10l-4.64,5l0,0l-2.15,1.79l0,0
		l-12.14,0.71L347.5,441.42z"/>
	<path id="RS-14" fill="#1E3250" stroke="#1E3250" stroke-width="0.5" d="M390.34,385.6l2.4-3.42l5.52,0.82l2.21-3.03l8.29-1.66
		l-0.279-8.01l3.039-5.8l-3.59-10.49l-3.87,4.42l-3.04-1.93l-0.829-11.88l-11.871-4.42l1.93-1.931l-3.31-6.069l5.25-8.29h4.69
		l1.38-3.86l6.351-2.76l0.83-15.47l3.319-0.27l5.32-9.69l0,0l9.22,19.74l7.431,4.54l5.439-0.649l16.84-33.56l20.82-10.2l14.07,15.18
		l6.04,3.39l6.569-0.49l10.16,9.48l1.12,4.73l-8.34,4.33l-8.99-5.979l-5.51-0.09l-4.78,12.4l-11.8,1.95l13.12,29.42l13.16,3.29
		l3.229,3.57l-1.92,10.859l-3.38-0.34l-4.01,7.771l1.92,1.38l-2.32,9.13l1.37,7.85l-11.29,2.971l0,0l-9.71-0.28l-0.271-6.9
		l4.961-3.31l-10.761-10.22l-14.64-0.28l-6.9-5.521l-4.97,8.29l6.35,19.051l-6.899,7.449l-3.32,12.15l-8.83,5.8l-8.01-14.359
		l-4.97,3.319l-9.391-4.14l-3.59-6.63l-16.27,1l0,0l0.66-1.99l0,0L390.34,385.6L390.34,385.6z"/>
	<path id="RS-15" fill="#1E3250" stroke="#1E3250" stroke-width="0.5" d="M482.25,392.53l-0.66,4.85l-15.51,2.93l-0.28,11.61
		l-2.51,2.35l-3.98,20.851l5.631,9.18l0.89,11.021l10.82,10.31l-0.301,13.561l6.07,16.55l5.39,1.41l2.91,4.75l7.851,1.58l1.439,4.75
		l0,0l-12.279,11.18l-5.801-0.83l-3.31-6.9l-8.01,4.42l-14.08-5.8l0,0v0.74l0,0l1.38-8.75l-5.53-8.01l-4.97,3.59l-6.62-6.351
		l-9.67,2.49l-1.38-3.59l-10.771-3.04l-1.1-7.18l-8.561-6.9l-2.76,0.83l5.24,10.49l0,0l-4.42-1.93l-5.521,1.93l0,0l-7.18-12.7
		l-2.76,1.93l-9.94-4.14l-8.01-13.26l1.38-7.73l-2.76-4.97l2.21-3.86l-5.19-8.54l0,0l0.02-0.02l0,0l4.64-5l-1.78-10l5-0.36
		l6.07-13.58l0,0l1.48-4.439l0,0l16.27-1l3.59,6.63l9.391,4.14l4.97-3.319l8.01,14.359l8.83-5.8l3.32-12.15l6.899-7.449
		l-6.35-19.051l4.97-8.29l6.9,5.521l14.64,0.28l10.761,10.22l-4.961,3.31l0.271,6.9L482.25,392.53z"/>
	<path id="RS-16" fill="#1E3250" stroke="#1E3250" stroke-width="0.5" d="M165.17,382.44l-0.6,0.18l0,0l-0.97,7.03l2.67,5.08
		l-3.39,6.779l6.53,7.99l-1.69,8.96l1.69,10.42l3.64,2.18l-1.7,7.261l9.69,22.279l-10.9,2.67l-0.48,3.391l-7.03,1.93l-7.99,9.93
		l-6.29-1.21l-1.94,8.48l4.36,0.97l7.26,7.75l12.35,22.03l-0.97,5.09l8.48,3.39l14.05-3.88l2.08,4.15l0,0h-3.4l0,0l-1.78,4.29
		l1.78,5.36l-6.07,3.569l8.22,6.431l1.07,4.649l-15.01,3.57l-1.78,6.43l-5.01,0.36l-2.5,3.569l-5.76,12.771l0,0l-14.83-19.13
		l-4.45,2.899l-10.89-0.6l-6.17-2.66l-3.7-10.43l-2.93,3.47l-12.68-5.92l-3.98-7.229l-8.9-5.561l-2.87-8.78l-6.2-2.42l-3.03-7.55
		L63.21,500.8l-9.02-10.08l3.32-17.609l14.93-1.521l6.66,6.851l9.91-2.521l-1.48-9.08l4.8-0.64L89.82,450.6l-6.81-8.59l-6.86-3.59
		l-1.49-9.01l-17.22-21.13l-3.07-9.82l20.1,9.68l17.89,0.681l4.98-7.721l7.3-3.04l0.41-6.04l-4.68-3.88l-1.72,4.24l-9.11-7.62
		l12.07-8.43l4.11,2.66l0.73-7.021l2.66-0.489l0,0l14.29,8.479l3.88,7.75l5.32-2.18l-5.32-8.721l6.05,2.421l6.06-4.601l3.87,0.97
		l6.05,7.511l7.51-2.91L165.17,382.44z"/>
	<path id="RS-17" fill="#1E3250" stroke="#1E3250" stroke-width="0.5" d="M238.05,424.62l-0.98-0.43l0,0l-9.29,6.069l0.36,6.07
		l-6.79,3.22l-5.36,6.79l-5.72,0.351l4.29,12.51l-2.5,2.5l-4.29-1.79l-3.21,1.79l-1.43,3.569l3.57,3.58l-2.86,7.5l-7.14,6.431
		l3.21,3.93l5.36,1.07l6.43,7.859l-2.86,10.721l2.86,2.5l-0.36,9.29l-4.64,1.79l-5,10l-7.5-4.65l0,0h-0.18l0,0l-2.08-4.15
		l-14.05,3.88l-8.48-3.39l0.97-5.09l-12.35-22.03l-7.26-7.75l-4.36-0.97l1.94-8.48l6.29,1.21l7.99-9.93l7.03-1.93l0.48-3.391
		l10.9-2.67l-9.69-22.279l1.7-7.261l-3.64-2.18l-1.69-10.42l1.69-8.96l-6.53-7.99l3.39-6.779l-2.67-5.08l0.97-7.03l0,0l2.42-0.72
		l0,0l6.06-0.73l5.08-4.6l13.81-1.21l16.46-16.95l0,0l2.18-3.641l0,0l2.67,9.211l10.17,8.71l2.66,9.449l12.84,12.351l-13.81,10.66
		L238.05,424.62z"/>
	<path id="RS-18" fill="#1E3250" stroke="#1E3250" stroke-width="0.5" d="M279.2,444.18l-0.69-0.63l0,0l-7.5,18.58l6.79,5
		l-0.72,3.22h-3.93l3.93,15l-3.93,2.5l-7.14-3.21l-5.72,1.78l-3.93-1.78l-1.79,2.851l4.65,3.939l-2.5,15.36l5.72,0.71l4.28,4.29
		l-0.71,6.43l-5.36,5l2.86,2.5l-2.67,5.54l0,0h-0.2l0,0l-25.7,12.36l6.16,8.399l-0.26,7.28l3.33,0.76l2.13,14.841l-8,2.47l0.05,2.35
		l-3.74-1.87l-5,1.801l-9.78,6.85l-1.24,5.17l4.9,8.561l0,0l-0.75,1.689l0,0l-3.6,3.76l-19.01,2.99l0,0l2.16-2.85l-1.03-11.36
		l-6.5-5.64l-18.93-8.061l-4.32,1.58l-7.73-6.05l0,0l5.76-12.771l2.5-3.569l5.01-0.36l1.78-6.43l15.01-3.57l-1.07-4.649l-8.22-6.431
		l6.07-3.569l-1.78-5.36l1.78-4.29l0,0h3.58l0,0l7.5,4.65l5-10l4.64-1.79l0.36-9.29l-2.86-2.5l2.86-10.721l-6.43-7.859l-5.36-1.07
		l-3.21-3.93l7.14-6.431l2.86-7.5l-3.57-3.58l1.43-3.569l3.21-1.79l4.29,1.79l2.5-2.5l-4.29-12.51l5.72-0.351l5.36-6.79l6.79-3.22
		l-0.36-6.07l9.29-6.069l0,0l3.21,1.43l0,0l7.86,12.14l10.01-3.21l-2.5-1.79l0.71-3.21l3.57-1.43l13.22,1.78l0,0l1.08,6.43l0,0
		L279.2,444.18z"/>
	<path id="RS-19" fill="#1E3250" stroke="#1E3250" stroke-width="0.5" d="M347.11,510.43l-0.36-0.779l0,0l-8.22-2.86l-3.57,1.78
		l-3.93-3.21l-3.93,2.5l0,0l-13.58,2.859l0,0l-1.42,8.21l-5.72,3.221l-2.86,10.359l-5,3.221l-6.43-5l-4.65,2.5l-2.5-2.86l-2.14,1.43
		l-5.8,25.92l0,0l-0.2-0.09l0,0l-10.19-6.12l0.44-5.37l6.82,1.311l0.28-2.16l-6.88-11.78l-5.98-2.25l0,0h-0.45l0,0l2.67-5.54
		l-2.86-2.5l5.36-5l0.71-6.43l-4.28-4.29l-5.72-0.71l2.5-15.36l-4.65-3.939l1.79-2.851l3.93,1.78l5.72-1.78l7.14,3.21l3.93-2.5
		l-3.93-15h3.93l0.72-3.22l-6.79-5l7.5-18.58l0,0l4.29,3.931l0,0l2.86-1.79l15.36,4.29l3.93-1.431l-1.43-6.43l6.43,1.07l6.43-4.641
		l0.72-10.359l3.21-2.86l-0.35,13.58l11.79-2.86l3.57,3.57l-4.29,2.14l5.72,4.65l6.07-1.43l4.29-4.641l0,0l1.43,3.93l0,0l2.86,5.351
		l-6.08,9.649l3.93,7.5l3.93,1.431l1.43,11.08l3.57,2.14l-3.57,10.01l4.29,8.57L347.11,510.43z"/>
	<path id="RS-20" fill="#1E3250" stroke="#1E3250" stroke-width="0.5" d="M456.53,511.04v3.13l0,0l-1.66,4.69l-7.46,1.93
		l-15.46-4.97l0.28,8.56l3.31,6.08l-4.69,3.03l-2.489,6.63l13.81,10.77l7.18,0.83l0.271,8.011l-6.07,2.039l0,0v-0.3l0,0l-3.87,4.971
		l-8.279-1.381l-0.28-3.869l-16.57-11.87l-4.41-0.28l-7.46,4.97l-2.489-5.8l-11.121,3.2l0,0l-0.52-1.391l0,0l-3.93-15.72
		l-8.57-2.859l-1.79,7.5l-7.14-3.931l-1.79-3.21l1.79-5.359l-4.29-0.721l-4.29-5.71l3.22-7.149l-13.22,0.72l0,0l-1.43-3.15l0,0
		L358.9,500l-4.29-8.57l3.57-10.01l-3.57-2.14l-1.43-11.08l-3.93-1.431l-3.93-7.5l6.08-9.649l-2.86-5.351l0,0l-1.04-2.85l0,0
		l7.83-7.59l12.14-0.71l0,0l2.13-1.771l0,0l5.19,8.54l-2.21,3.86l2.76,4.97l-1.38,7.73l8.01,13.26l9.94,4.14l2.76-1.93l7.18,12.7
		l0,0l3.32-1.93l6.62,1.93l0,0l-5.24-10.49l2.76-0.83l8.561,6.9l1.1,7.18l10.771,3.04l1.38,3.59l9.67-2.49l6.62,6.351l4.97-3.59
		l5.53,8.01L456.53,511.04z"/>
	<path id="RS-21" fill="#1E3250" stroke="#1E3250" stroke-width="0.5" d="M336.06,604.17l-0.31-0.43l0,0l-3.92,0.97l-5.68-7.88
		l-11.94-0.99l2.32-10.04l-3.68-6.979l-6.03,5.39L305,562.02l-4.24,2.211l-4.96-8.671l-6.6,3.011l-6.71-0.71l0,0l-0.75,0.27l0,0
		l-4.11-0.14l0,0L277,557.72l0,0l5.8-25.92l2.14-1.43l2.5,2.86l4.65-2.5l6.43,5l5-3.221l2.86-10.359l5.72-3.221l1.42-8.21l0,0
		l13.58-2.859l0,0l3.93-2.5l3.93,3.21l3.57-1.78l8.22,2.86l0,0l1.79,3.93l0,0l13.22-0.72l-3.22,7.149l4.29,5.71l4.29,0.721
		l-1.79,5.359l1.79,3.21l7.14,3.931l1.79-7.5l8.57,2.859l3.93,15.72l0,0l1.07,2.86l0,0l-4.28,5.71l-28.23,15.01h-6.07l-8.93,7.5
		l2.5,4.65l-0.72,11.07L336.06,604.17z"/>
	<path id="RS-22" fill="#1E3250" stroke="#1E3250" stroke-width="0.5" d="M443.55,561.77l6.07-2.039l-0.271-8.011l-7.18-0.83
		l-13.81-10.77l2.489-6.63l4.69-3.03l-3.31-6.08l-0.28-8.56l15.46,4.97l7.46-1.93l1.66-4.69l0,0v-3.87l0,0l14.08,5.8l8.01-4.42
		l3.31,6.9l5.801,0.83l12.279-11.18l0,0l12.5,4.149l7.76,8.37l2.11,8.33l6.97,10.11l14.11,6.17l-2.61,4.479l1.131,5.4l-1.86,4.779
		l-7.96,5.131l-2.9,7.93l-14.59,9.34l-0.61,9.04l-4.439,7.84l-6.23,0.42l-2.31,2.96l-7.9-5.06l-4.46,0.689l-1.279,4.86l-4.86-2.9
		l-2.23,1.311l0,0l-10.85-2.28l-7.45-8.56l3.311-3.87l-23.75-11.32l-1.931-3.04l8.29-5.8l-4.42-2.76l0,0V561.77z"/>
	<path id="RS-23" fill="#1E3250" stroke="#1E3250" stroke-width="0.5" d="M480.35,601.58l-1.619,4.06l-7.711,4.391l0,0l-8.199,2.05
		l-4.74,6.04l-10.94,4.649l-5.25-1.659v-5.801l-2.479,1.381l-2.771-4.421l-7.449,3.591l-0.83-6.351l-5.801-0.55L418.7,612l-5.8-2.76
		l-2.49,5.52l-18.5,0.55l-5.52,15.46l-3.69,2.931l0,0l-0.12-0.07l0,0l-10.22,7.01l-12.4-14.22l-11.53-1.09l0,0l-0.13-0.05l0,0
		l-15.12-3.681l3.52-16.52l0,0l-0.64-0.91l0,0l7.83-7.35l0.72-11.07l-2.5-4.65l8.93-7.5h6.07l28.23-15.01l4.28-5.71l0,0l-0.55-1.47
		l0,0l11.121-3.2l2.489,5.8l7.46-4.97l4.41,0.28l16.57,11.87l0.28,3.869l8.279,1.381l3.87-4.971l0,0v2.48l0,0l4.42,2.76l-8.29,5.8
		l1.931,3.04l23.75,11.32l-3.311,3.87l7.45,8.56L480.35,601.58z"/>
	<path id="RS-24" fill="#1E3250" stroke="#1E3250" stroke-width="0.5" d="M471.02,610.03l-0.55,3.52l7.5,11.41l-5.33,9.18l2.19,2.46
		l-5.061,18.79l10.78,7.08l4.811,7.29l-5.021,15.13l-5.33,0.891l-3.31,10.51l-13.811,4.37l-10.46-8.51l-7.979,4.96l1.05,5.729
		l-6.97-2.95l-5.511,3.271l-11.31-1.771l-11.979-6.62l-2.12,6.5l-13.28-0.489l-7.75,8.04l-12.63,2.91l-7.71-2.341l0,0l0.13-7.649
		l-3.69-7.58l5.89-6.54l1.27-11.71l12.9-9.771l2.59-11.51l8.56-8.86l-5.3-11.539l0,0l-0.89-0.53l0,0l3.69-2.931l5.52-15.46
		l18.5-0.55l2.49-5.52l5.8,2.76l3.859-3.04l5.801,0.55l0.83,6.351l7.449-3.591l2.771,4.421l2.479-1.381v5.801l5.25,1.659
		l10.94-4.649l4.74-6.04L471.02,610.03z"/>
	<path id="RS-25" fill="#1E3250" stroke="#1E3250" stroke-width="0.5" d="M253.52,648.31l1.77-9.51l6.07-2.14l0.72-3.93l5-1.79
		l2.86,3.22l6.43-5.01l3.57,5.72l11.79-6.43l2.86-6.79l-1.79-4.641l7.51-4.29l-1.43-5l-5-2.5l0.71-25.37l-6.79-6.069l-5.62-15.811
		l0,0l0.31-0.109l0,0l6.71,0.71l6.6-3.011l4.96,8.671l4.24-2.211l1.82,22.19l6.03-5.39l3.68,6.979l-2.32,10.04l11.94,0.99l5.68,7.88
		l3.92-0.97l0,0l0.95,1.34l0,0l-3.52,16.52l15.12,3.681l0,0l0.08,0.029l0,0l-2.7,7.061l-8.93-0.72l6.43,6.08l0.36,6.069l-10.72,1.79
		l-3.93,7.5l-8.93,7.86l5.35,4.649l-4.64,5.36l-0.36,5l4.29,6.07l-2.5,1.43l1.79,6.79l-7.15,4.29l2.86,0.71l-1.43,8.22l4.29,6.07
		l11.21,3.61l0,0l-5.38,5.159l-8.41,17.881l-7.99-0.28l-9.74-17.46l-4.06-0.28l-15.46,11.811l0,0l-0.9-5.431l-13.94-5.359l0.36-2.86
		l13.93-11.43l-2.14-14.301l-4.64-2.14l5-7.5l-6.43-6.07l-1.07-4.649l-10.72-5.721l0,0h-3.22l0,0V650.95l-3.21-1.79l0,0
		L253.52,648.31z"/>
	<path id="RS-26" fill="#1E3250" stroke="#1E3250" stroke-width="0.5" d="M258.86,664.52h-2.14l0,0l-8.93,2.5l-6.08-7.14l-4.28,3.57
		l-9.65-0.71l-6.43,5.71l0.71,21.8l11.79,7.14l-12.86,9.65l-2.39,7.43l0,0l-5.47-7.26l-15.67-9.83l-3.99,2.16l-8.13-1.64l0.07-7.78
		l-4.74-5.47l1.44-6.021l-6.95-12.58l-11.95-8.52l1.31-11.36l7.25-7.97l-10.02-8.86l-1.99-5.49l2.45-5.399l23.77,4.66l5.81-6.49
		l-0.27-4.65l8.61-3.3l0,0l19.01-2.99l3.6-3.76l0,0l0.51-1.16l0,0l5.96-2.689l5.36,2.149l5,8.931l-0.36,7.859l-2.86,2.5l2.15,7.86
		l-3.22,0.71l0.72,3.22l3.21,6.07l6.43-1.78l2.5,8.57l3.93,3.57l0,0l3.58,1.43l0,0l3.21,1.79V664.52z"/>
	<path id="RS-27" fill="#1E3250" stroke="#1E3250" stroke-width="0.5" d="M282.63,729.98l-6.52,2.069l-5.33,5.74l-13.33,3.24
		l-5.34,8.81l3.62,19.351l-14.54,11.77l-5.77,9.91l-6.81,0.939l-2.26-14.359l4.35-1.641l-2.28-6.689l5.57-4.25l0.61-6.13
		l-9.02-18.561l1.59-7.02l-8.57-18.69l0,0l2.39-7.43l12.86-9.65l-11.79-7.14l-0.71-21.8l6.43-5.71l9.65,0.71l4.28-3.57l6.08,7.14
		l8.93-2.5l0,0h5.36l0,0l10.72,5.721l1.07,4.649l6.43,6.07l-5,7.5l4.64,2.14l2.14,14.301l-13.93,11.43l-0.36,2.86l13.94,5.359
		L282.63,729.98z"/>
	<path id="RS-28" fill="#1E3250" stroke="#1E3250" stroke-width="0.5" d="M282.18,557.97l5.62,15.811l6.79,6.069l-0.71,25.37l5,2.5
		l1.43,5l-7.51,4.29l1.79,4.641l-2.86,6.79l-11.79,6.43l-3.57-5.72l-6.43,5.01l-2.86-3.22l-5,1.79l-0.72,3.93l-6.07,2.14l-1.77,9.51
		l0,0l-1.45-0.579l0,0l-3.93-3.57l-2.5-8.57l-6.43,1.78L236,631.3l-0.72-3.22l3.22-0.71l-2.15-7.86l2.86-2.5l0.36-7.859l-5-8.931
		l-5.36-2.149l-5.96,2.689l0,0l0.24-0.529l0,0l-4.9-8.561l1.24-5.17l9.78-6.85l5-1.801l3.74,1.87l-0.05-2.35l8-2.47l-2.13-14.841
		l-3.33-0.76l0.26-7.28l-6.16-8.399l25.7-12.36l0,0h0.65l0,0l5.98,2.25l6.88,11.78l-0.28,2.16l-6.82-1.311l-0.44,5.37l10.19,6.12
		l0,0l0.83,0.36l0,0l4.11,0.14l0,0L282.18,557.97z"/>
	<path id="RS-29" fill="#1E3250" stroke="#1E3250" stroke-width="0.5" d="M333.67,713.15l-11.21-3.61l-4.29-6.07l1.43-8.22
		l-2.86-0.71l7.15-4.29l-1.79-6.79l2.5-1.43l-4.29-6.07l0.36-5l4.64-5.36l-5.35-4.649l8.93-7.86l3.93-7.5l10.72-1.79l-0.36-6.069
		l-6.43-6.08l8.93,0.72l2.7-7.061l0,0l0.05,0.021l0,0l11.53,1.09l12.4,14.22l10.22-7.01l0,0l1.01,0.601l0,0l5.3,11.539l-8.56,8.86
		l-2.59,11.51l-12.9,9.771l-1.27,11.71l-5.89,6.54l3.69,7.58l-0.13,7.649l0,0l-12.34,1.521l-7.81-2.37l-2.69,4.26L333.67,713.15z"/>
</g>
</svg>
