<?xml version="1.0" encoding="utf-8"?>
<!-- Generator: Adobe Illustrator 15.0.0, SVG Export Plug-In . SVG Version: 6.00 Build 0)  -->
<!DOCTYPE svg PUBLIC "-//W3C//DTD SVG 1.1//EN" "http://www.w3.org/Graphics/SVG/1.1/DTD/svg11.dtd">
<svg version="1.1" id="Layer_1" xmlns:amcharts="http://amcharts.com/ammap"
	 xmlns="http://www.w3.org/2000/svg" xmlns:xlink="http://www.w3.org/1999/xlink" x="0px" y="0px" width="650.5px" height="434.5px"
	 viewBox="0 0 650.5 434.5" enable-background="new 0 0 650.5 434.5" xml:space="preserve">
<defs>
	
	
		<amcharts:ammap  projection="mercator" bottomLatitude="45.422671" leftLongitude="13.372971" topLatitude="46.875889" rightLongitude="16.594476">
		</amcharts:ammap>
</defs>
<g>
	<path id="SI-JP" fill="#1E3250" stroke="#1E3250" stroke-width="0.5" d="M41.88,290.74l10.26-0.49l2.63,1.06h4.73l1.56-5.14
		l2.18-0.02l2.49-2.15l0.72-3.45l-0.47-1.96l5.66,1.63l3.5,2.61l0.97,1.71l3.32,1.93l4.13-0.24l0.09-1.9l0.84,0.13l0.79-1l3.73,1.76
		l1.33,2.69l1.86,0.77l2.87,0.16l4.03-1.22l-0.25,1.27L99.9,289v1.9l0.91-0.05l1.04,2.01l5.44,4.46l2.74,1.38l1.21-0.27l0.32,0.84
		l1.07-0.08l6.59,4.21l-0.6,2.01l2.01-0.95l0.97-1.66l2.68,0.46l3.21,2.56l0,0l1.39,2.36l4.22,0.49l2.64,1.84l-0.63,1.12l0.74,1.521
		l1.65-0.33l-0.09,1.06l-1.29,0.4l1.63,0.66l0.4,3.22l-0.67,1.06l-2.83-0.38l-0.41,1.061l-1.01,0.029l0.19,1.79l-1.26,1.79
		l-0.2,1.98l2.39,1.569l-0.19,3.011l0.76,1.06l-1.27,3.73l1.88,1.33l0.34,2.79l-1.06,1.85l3.11,1.97l-0.74,2.141l3.16,1.439
		l-1.34,9.93l-1.36,0.971l-0.82,5.77l3.59,0.73l-2.26,4.21l-0.76,4.09l-2.47,2.29l5.45,1.25l0.38,1.189l1.41,0.591l0.47-1.431
		l1.24-0.38l-0.48,1.97l0.99,3.79l-0.97,0.29l0.04,0.841l0,0l-2.89-1.351l-5.01,0.16l-3.25-0.75l-4.81-3.92l-1.5-0.11l-5.51-5.27
		l-2.4-0.11l-0.38,3.11l-4.82-1.811l-2.25,2.67l1.18,2.141l2.3,1l2.43,2.729l-0.89,0.271l0.78,1.29l-1.16,2.35l0.49,3.41l-2.92,2.4
		l-3.97-2.4l-7.85,1.35l-2.45,3.801l-1.71,1.27l-0.42,2.03l-1.52,0.24l-2.51-0.511l-2.09,0.511l-0.59-1.7l-1.77-0.65l-5.15,0.08
		l-0.32-1.81l-1.86-0.67l0.85-2.891l-1-1.38l-2.74-1.479l-4.09-0.221l-1.71-1.779l-3.11,0.399l-2.23,3l-3.49,0.601l-5.46,3.609
		l-5.26-4.13l-7.85-2l-2.28-1.75l-1.71-1.7l1.41-2.35l-1.43-2.98l0.82-0.16l0.13-1.13l1.75,0.051l-0.91-0.131l0.57-0.649l-0.86-2
		l-4.27-0.65l-1.35-4.27l3.12,1.21l4.06,0.3l1.39-0.97l-0.57-0.95l-0.63,0.71l0.12-2.01l2.35-0.62l5.84,2.06l2.3-0.71l-0.06-2.08
		l2.66,0.79l0.85-1.63l1.96-0.859l3.31-0.03l3.11,1.3l0.73-1.46l2.71-0.95l-1.16-0.29l0.19-0.84l2.55-0.22l-2.43-0.32l0.59-1.22
		l1.71-0.271l0.07-0.89l-7.86-5.69l0.28-1.029l7.49-1.57l9.14,4.82l8-0.511l5.3-4.47l0.82-2.89l6.04-3.391l3.16-3.029l-1.96-1.87
		l-4.39-1.98l-4.05-3.55l-5.79-7.83l-0.35-5.81l-4.67-4.12l-2.53-5.54l-3.86-0.92l-2.28-1.93l-3.21,0.359l-2.03-1.33l0.55-0.79
		l-5.4-3.07l-5.89-5.62l-0.99,0.51l-1-2.2l-5.34,0.82l0.24-1.22l-3.72,1.82l-0.42-1.23l-4.52-2.06L41.88,290.74z"/>
	<path id="SI-NO" fill="#1E3250" stroke="#1E3250" stroke-width="0.5" d="M144.48,275.87l0.72-0.79l1.92,0.08l1.22-1.2l1.27,1.34
		l5.38-1.15l3.97,2.4l1.25-0.14l1.62,2.4l3.51-0.22l-0.26,1.14l2.32,1.42l1.74-1.77l-0.28,1.08l2.43-0.08l1.31,1.47l4.43-9.38
		l-0.17-1.31l1.73-1.6l1.65-0.36l5.63,1.99l1.82,4.46l1.22-0.13l0.74,1.11l1.71-1.69l2.52,2.23l0.94,2.37h0.78l0.96-2.34l1.51-0.79
		l1.46,0.33l3.53,4.95l1.66-1.01l1.82-4.05l2.34,0.68l4.63-3.18l1.3,2.45l-0.23,1.93l-1.07,0.65l0.18,1.41l2.05,2.59l-0.44,0.89
		l3.52,3.57l1.42,3.42l3.27,0.49l0.59,3.26l2.05,1.39l0.61,1.44l0,0l-3.67,0.62l1.56,2.25l2.89,0.38l-1.2,5.92l1.39,0.85l1.14,4.12
		l-3.76,0.76l-1.9-4.42l-1.77,0.7l0.55,2.99l3.86,8.44l0.87,9.21l1.37,0.17l0,0l-1.37,6.01l-4.69,8.13l-2.62,2.68l-5.12,1.221
		l0.59,4.84l-1.44,3.68l-0.65,7.36l-1.38,2.46l-8.84,6.109l-1.86,2.221l-2.87-0.73v0.84l-2.8,0.65l-1.35,2.65l-5.37,2.26
		l-3.88,0.029l-3.55,3.32l-1.94-3.45h-2.57l-3.25-2.71l-2.24,0.25l-2.11,1.59l-3.46-5.289l-4.37,1.46l-3.23,4.859l-0.13,3.32
		l-4.49-1.86l-3.36-0.46l-6.29,1.431l0,0l-0.04-0.841l0.97-0.29l-0.99-3.79l0.48-1.97l-1.24,0.38l-0.47,1.431l-1.41-0.591
		l-0.38-1.189l-5.45-1.25l2.47-2.29l0.76-4.09l2.26-4.21l-3.59-0.73l0.82-5.77l1.36-0.971l1.34-9.93l-3.16-1.439l0.74-2.141
		l-3.11-1.97l1.06-1.85l-0.34-2.79l-1.88-1.33l1.27-3.73l-0.76-1.06l0.19-3.011l-2.39-1.569l0.2-1.98l1.26-1.79l-0.19-1.79
		l1.01-0.029l0.41-1.061l2.83,0.38l0.67-1.06l-0.4-3.22l-1.63-0.66l1.29-0.4l0.09-1.06l-1.65,0.33l-0.74-1.521l0.63-1.12l-2.64-1.84
		l-4.22-0.49l-1.39-2.36l0,0l0.93-3.02l1.39,0.08l0.53-7.68l1.41-0.79l0.6,1.09l0.44-3.32l-3.61-7.23l10.01-3.15l-0.26-0.87
		l1.77-2.48L144.48,275.87z"/>
	<path id="SI-SP" fill="#1E3250" stroke="#1E3250" stroke-width="0.5" d="M53.13,120.22l0.38,0.83l5.19,0.52l0,0l-0.48,2.03
		l0.76,0.86l10.65-3.85l2.79,3.46l5.05,1.48l2.08,2.04l3.95,1.4l0.4,5.96l1.88,2.09l1.97-0.17l0.33,1.02l-2.53,4.33l-2.85,0.5
		l-0.97,0.96l-2.43-0.25l-2.09,2.03l-6.33,2.06l-0.7,1.34l0.76,5.16l-4.01,3.43l1.48,1.31l-0.32,1.35l1.35,2.74l1.95,1.1l1.69,3.04
		l2.27,0.55l4.97,5.34l7.76,4.63l4.22,3.47l10.05-0.9l7.94-2.71l9.01-1.86l-0.11,0.87l1.91,1.26l0.25,2.93l-0.64,2.11l-1.54,0.63
		l-1.45,3.09l-0.49,3.75l0.85,2.66l2.26,0.82l2.65-1.23l2.16,0.87l2.07-1.01l6.81,2.08l-0.78,4.02l-2.57,3.11l0.31,1.86l-2.55,3.09
		l-0.36,2.32l-2.28,1.59l-1.65,2.81l-0.61,3.31l2.33,3.74l8.76,6.03l0.92,2.84l-0.59,0.52l1.44,0.33l-1.73,2.7l4.49-2.16l0.59,3.96
		l1,0.95l-0.59,1.56l1.62,0.35l1.6,1.64l3.11,0.16l0,0l1.05,0.6l-0.8,1.2l0.46,1.53l-1.16,0.03l-1.2,3.24l-3.44,0.08l0.06,1.53
		l-1.01,0.46l0.38,1.91l1.84-0.68l-0.47,1.58l0.61,3.08l-1.33,0.84l-0.33,3.22l-2.52,1.6l0.68,5.8l3.46,3.4l1.71,7.38l0,0
		l-3.78,2.58l-1.77,2.48l0.26,0.87l-10.01,3.15l3.61,7.23l-0.44,3.32l-0.6-1.09l-1.41,0.79l-0.53,7.68l-1.39-0.08l-0.93,3.02l0,0
		l-3.21-2.56l-2.68-0.46l-0.97,1.66l-2.01,0.95l0.6-2.01l-6.59-4.21l-1.07,0.08l-0.32-0.84l-1.21,0.27l-2.74-1.38l-5.44-4.46
		l-1.04-2.01l-0.91,0.05V289l-1.05-0.11l0.25-1.27l-4.03,1.22l-2.87-0.16l-1.86-0.77l-1.33-2.69l-3.73-1.76l-0.79,1l-0.84-0.13
		l-0.09,1.9l-4.13,0.24l-3.32-1.93l-0.97-1.71l-3.5-2.61l-5.66-1.63l0.47,1.96L65.73,284l-2.49,2.15l-2.18,0.02l-1.56,5.14h-4.73
		l-2.63-1.06l-10.26,0.49l0,0l-1.84-6.06l-2-1.03l0.04-2.75l3.19-5.77l-0.83-2.28l1.27-2.29l2.66-2.09l2.64-6.59l2.7-3.46
		l-0.78-4.27l1.92-8.45l-1.48-1.23l-3.59,1.91l-4.6-2.1l-2.72,2.1l-2.2,3.43l-2.57-0.27l-1.25,1.2l-2.26-0.08l-4.28-3.85l-1.73-0.08
		l-2.94-4.79l-2.34-2.27l1.92-2.21l2.16-0.24l1.73-3.11l0.67-3.82l-0.49-1.2l-1.43-0.66l0.15-2.75l1.1-1.12l4.85-1.64l2.58-3.85
		l5.46-2.27l4.46-4.04l1.35-2.38l3.88-2.67l3.93-4.29l1.92-3.91l-0.15-2.27l1.39-1.45l0.76-2.66l-1.45-2.4l-3.97-1.65l-4.27,2.11
		l-0.57-0.44l0.45-1.01l-3.95,0.08l-0.42-0.68l-3.42,1.78l-0.97-0.93l0.11-1.84l-1.51-2.7l-5.46-2.44l-0.49-1.48l-2.34,0.93
		l-2.89-0.03l-1.14-1.61l-1.94-0.85l-3.55,0.38l-3.48-0.82l-0.04,3.48l-4.48,1.72l-2.3-1.06l-0.61-1.24l1.2-2.24l-0.72-1.1
		l2.28-1.78l-4.98-5.83L2.19,162l-1.56-0.11l-0.63-2l5.26-0.74l2.46-2.22l0.09-1.89l1.41-1.57l3.27-0.79l1.65-3.1l-2.21-5.49
		l0.48-1.29l2.66-0.77l3.15,0.52l2.89-2.47l2.13-0.19l2.51-1.7l1.01,0.3l0.19-1.62l1.9-1.48l1.59,0.14l5.87-3.22l2.04-3.29
		l1.12-5.44l2.7-2.26l10.05-2.31L53.13,120.22z"/>
	<path id="SI-GO" fill="#1E3250" stroke="#1E3250" stroke-width="0.5" d="M69.55,99.34l6.04,0.22l4.37,2.87l3.31-0.2l3.86-3.63
		l1.16,0.96l2.81,0.45l5.53-2.26l3.04,0.99l2.56-0.58l7.7,3.72l3.4,3.16l1.14-0.44l2.3,1.35l0.4,1.54l3.4,1.71l2.42,0.02l2.73-2.75
		l3.06-0.36l8.15,2.23l1.28,1.54l3.09,0.53l3.65,5.55v1.93l3.01,1.84l1.04,2.39l2.2,0.19l4.26-2.47l3.9,0.82l1.21-0.96l1.81,2.2
		l1.88,0.71l8.99-2.99l5.09,3.63l3.65-0.44l2.49-1.76l4.98-0.63l2.13,0.52l3.15-1.82l5.99-0.3l1.25,1.73l-0.95,0.28l-0.15,1.26
		l1.8,1.35l1.07,2.09h3.8l2.13,0.66l0.34,1.4l2.68,0.38l3.04-3.49l2.45,0.36l3.53,3.79v1.43l2.26,3.02l1.18,5.19l0.82,0.74
		l2.57-0.85l0,0l-0.02,0.28l0,0l-0.86,1.12l-3.86,1.07l2.27,3.27l-2.3,4.47l3,2.66l-3.5,4.06l2.83,4.88l-0.87,1.811l2.85,1.15
		l-0.53,1.43l1.82,1.97l-3.29,0.14l-1.1,1.59l0.08,0.79l2.73,0.88l-0.53,1.23l1.5,2.36l-4.65,3.69l0.15,1.76l-1.44,2.08l-2.61,2.43
		l-2.54,0.14l-2.8,3.8l-7.48-1.25l-0.46,0.57l1.73,1.18l-2.03,1.28l0,0l-5.02,0.22l0,0l-4.85-0.22l1.16,3.97l1.98,1.91l-4.71,2.68
		h-2.74l0.25,2.11l-0.76,1.12l-0.8-0.33l-0.08-1.36l-2.16-0.2l-0.02,1.29l-0.69,0.41l-0.91-0.71l-1.5,2.71l-3.23,1.42l-0.51,3.39
		l1.78,1.74l0.19,2.14l-0.99,2.15l-2.45,0.2l-1.46-1.34l-2,0.54l-7.69-1.2l-2.21,2.95l-3.95-0.03l-2.24,2.3l-1.26,2.7l0.4,4.83
		l-1.76,2.02l-0.46,2.6l-4.56,3.98l-0.15,1.88l-3.04-0.11l-0.12,1.2l-1.69,0.52l0.14,1.69l-2.04,0.9l0,0l-3.11-0.16l-1.6-1.64
		l-1.62-0.35l0.59-1.56l-1-0.95l-0.59-3.96l-4.49,2.16l1.73-2.7l-1.44-0.33l0.59-0.52l-0.92-2.84l-8.76-6.03l-2.33-3.74l0.61-3.31
		l1.65-2.81l2.28-1.59l0.36-2.32l2.55-3.09l-0.31-1.86l2.57-3.11l0.78-4.02l-6.81-2.08l-2.07,1.01l-2.16-0.87l-2.65,1.23l-2.26-0.82
		l-0.85-2.66l0.49-3.75l1.45-3.09l1.54-0.63l0.64-2.11l-0.25-2.93l-1.91-1.26l0.11-0.87l-9.01,1.86l-7.94,2.71l-10.05,0.9
		l-4.22-3.47l-7.76-4.63l-4.97-5.34l-2.27-0.55l-1.69-3.04l-1.95-1.1l-1.35-2.74l0.32-1.35l-1.48-1.31l4.01-3.43l-0.76-5.16
		l0.7-1.34l6.33-2.06l2.09-2.03l2.43,0.25l0.97-0.96l2.85-0.5l2.53-4.33l-0.33-1.02l-1.97,0.17l-1.88-2.09l-0.4-5.96l-3.95-1.4
		l-2.08-2.04l-5.05-1.48l-2.79-3.46l-10.65,3.85l-0.76-0.86l0.48-2.03l0,0l1.94-1.62l1.16-4.24l-0.99-2.33l2.87-3.47l-1.08-1.4
		l0.58-2.04l-0.66-2.12l2.22-2.56l-0.05-3.22l1.36-0.85L69.55,99.34z"/>
	<path id="SI-LJ" fill="#1E3250" stroke="#1E3250" stroke-width="0.5" d="M228.53,138.44l4.6,3.1l1.02-1.13l4.01,0.28l4.24-1.57
		l-0.23,8.65l3.38,3.81l2.34,0.11l0.76,0.96l-0.09,6.75l1.63,0.6l3.82-1.02l0.13,1.68l-1.65,3.15l1.61,2.33l0.02,1.92l-1.52,2.71
		l1.39,2.27h4.56l5.19,1.73l1.25-0.77l2.55,0.8l4.45-1.43l9.67,0.74l8.4,5.7l1.31-0.52l1.18,3.31l2.35,0.38l-0.97,1.23l-1.14-0.35
		l-0.74,1.67l0,0l-1.67,0.22l0.25,5.09l-2.24,1.39l-0.12,1.75l-3.48-0.87l-3.8,1.91l-6.86,0.27l0.69,1.1l1.88,0.38l-0.13,1.4
		l3.13,3.11l-1.24,2.71l0.16,2.13l8.15-1.12l1.31,0.57l0.93,1.26l-0.64,2.82l0.83,2.56l2.64,2.79l2.06,0.25l6.32-0.44l3.75-4.64
		l4.08-1.81l2.21,3.58l-0.67,1.23l-2.68,0.3l1.31,2.13l0.04,2.21l1.31,0.77l-2.6,0.95l0.68,1.45l5.42,2.87l9.71-1.78l0,0l0.97,2.21
		l2.35,0.66l0,0l0.29,2.27l3.82,6.16l0,0l-3.12-0.03l0.48-0.81l-1.64-0.55l-1.76,1.42l-0.76,2.18l-3.08-1.2l-0.8-1.09l-5.32-0.22
		l-0.61,1.34l0.97,0.46l1.14,3.36l-0.59,1.47l-2.94,1.5l0.45,1.72l-0.85,0.68l-1.83-0.3l-0.21,0.76l-0.93-0.03l-2.33-1.71
		l-2.99,0.27l-1.37-1.58l-2.47-0.38l-1.76,1.14l-0.21,3.14l-2.91,0.92l-2.41,0.14l-1.6-1.45l-1.88-2.75l0.04-2.53h-1.66l-1.04-2.98
		l-1.41-0.68l-1.75,1.09l0.12,2.13l-1.31,1.42l-3.54-0.47l-3.04,0.63l-0.78-1.23l-1.14,1.01l-2.66-2.29l-1.63,1.8l-1.81,0.14
		l-0.15,1.74l-2.49,1.67l-2.3-1.01l-1.42,2.1l0.61,1.01l-1.18,0.16l-1.75,2.37l-0.08,2.34l-0.8-0.38l-1.25,1.17l0.67,1.37
		l-0.94,0.27l-1.34,3.16l1.33,1.63l0.87-0.92l0.87,1.09l0.44-0.66l1.75,0.71l-1.01,1.09l1.24,5.07l2.85,4.21l-1.45,0.66l-0.21,3.15
		l1.05,2.18l2.17,1.39l1.59,3.81l-1.48,0.49l-0.65,1.68l-1.42,1.01l0.23,6.01l1.78-1.04l0.91,2.59l2.7,1.41l-0.47,3.37l2.96,0.84
		l1.24,1.3l-1.01,5.71l2.11,4.72l3.29,0.76l0.91-2.14l0.76,0.08l0.72,1.95l3.56-0.92l2.41,1.66l-0.51,9.66l-2.34,2.47l-1.83-1.979
		l-1.52,0.29l-1.5-1.03l-12.39-11.61l-0.91,0.57l-0.55-0.521l-1.62-2.359l-0.96-3.48l-6.43-4.67l-0.4-1.65l-2.6-2.61l-2.64-0.44
		l-2.09,2.77l-2.21,0.71l-1.25,1.58l-9.77-1.01l-0.72,1.52l-5.26-0.49l-0.63,1.23l0,0l-0.61-1.44l-2.05-1.39l-0.59-3.26l-3.27-0.49
		l-1.42-3.42l-3.52-3.57l0.44-0.89l-2.05-2.59l-0.18-1.41l1.07-0.65l0.23-1.93l-1.3-2.45l-4.63,3.18l-2.34-0.68l-1.82,4.05
		l-1.66,1.01l-3.53-4.95l-1.46-0.33l-1.51,0.79l-0.96,2.34h-0.78l-0.94-2.37l-2.52-2.23l-1.71,1.69l-0.74-1.11l-1.22,0.13
		l-1.82-4.46l-5.63-1.99l-1.65,0.36l-1.73,1.6l0.17,1.31l-4.43,9.38l-1.31-1.47l-2.43,0.08l0.28-1.08l-1.74,1.77l-2.32-1.42
		l0.26-1.14l-3.51,0.22l-1.62-2.4l-1.25,0.14l-3.97-2.4l-5.38,1.15l-1.27-1.34l-1.22,1.2l-1.92-0.08l-0.72,0.79l0,0l-1.71-7.38
		l-3.46-3.4l-0.68-5.8l2.52-1.6l0.33-3.22l1.33-0.84l-0.61-3.08l0.47-1.58l-1.84,0.68l-0.38-1.91l1.01-0.46l-0.06-1.53l3.44-0.08
		l1.2-3.24l1.16-0.03l-0.46-1.53l0.8-1.2l-1.05-0.6l0,0l2.04-0.9l-0.14-1.69l1.69-0.52l0.12-1.2l3.04,0.11l0.15-1.88l4.56-3.98
		l0.46-2.6l1.76-2.02l-0.4-4.83l1.26-2.7l2.24-2.3l3.95,0.03l2.21-2.95l7.69,1.2l2-0.54l1.46,1.34l2.45-0.2l0.99-2.15l-0.19-2.14
		l-1.78-1.74l0.51-3.39l3.23-1.42l1.5-2.71l0.91,0.71l0.69-0.41l0.02-1.29l2.16,0.2l0.08,1.36l0.8,0.33l0.76-1.12l-0.25-2.11h2.74
		l4.71-2.68l-1.98-1.91l-1.16-3.97l4.85,0.22l0,0l5.02-0.22l0,0l2.03-1.28l-1.73-1.18l0.46-0.57l7.48,1.25l2.8-3.8l2.54-0.14
		l2.61-2.43l1.44-2.08l-0.15-1.76l4.65-3.69l-1.5-2.36l0.53-1.23l-2.73-0.88l-0.08-0.79l1.1-1.59l3.29-0.14l-1.82-1.97l0.53-1.43
		l-2.85-1.15l0.87-1.811l-2.83-4.88l3.5-4.06l-3-2.66l2.3-4.47l-2.27-3.27l3.86-1.07L228.53,138.44z"/>
	<path id="SI-JS" fill="#1E3250" stroke="#1E3250" stroke-width="0.5" d="M226.76,297.62l0.63-1.23l5.26,0.49l0.72-1.52l9.77,1.01
		l1.25-1.58l2.21-0.71l2.09-2.77l2.64,0.44l2.6,2.61l0.4,1.65l6.43,4.67l0.96,3.48l1.62,2.359l0.55,0.521l0.91-0.57l12.39,11.61
		l1.5,1.03l1.52-0.29l1.83,1.979l2.34-2.47l0.51-9.66l-2.41-1.66l-3.56,0.92l-0.72-1.95l-0.76-0.08l-0.91,2.14l-3.29-0.76
		l-2.11-4.72l1.01-5.71l-1.24-1.3l-2.96-0.84l0.47-3.37l-2.7-1.41l-0.91-2.59l-1.78,1.04l-0.23-6.01l1.42-1.01l0.65-1.68l1.48-0.49
		l-1.59-3.81l-2.17-1.39l-1.05-2.18l0.21-3.15l1.45-0.66l-2.85-4.21l-1.24-5.07l1.01-1.09l-1.75-0.71l-0.44,0.66l-0.87-1.09
		l-0.87,0.92l-1.33-1.63l1.34-3.16l0.94-0.27l-0.67-1.37l1.25-1.17l0.8,0.38l0.08-2.34l1.75-2.37l1.18-0.16l-0.61-1.01l1.42-2.1
		l2.3,1.01l2.49-1.67l0.15-1.74l1.81-0.14l1.63-1.8l2.66,2.29l1.14-1.01l0.78,1.23l3.04-0.63l3.54,0.47l1.31-1.42l-0.12-2.13
		l1.75-1.09l1.41,0.68l1.04,2.98h1.66l-0.04,2.53l1.88,2.75l1.6,1.45l2.41-0.14l2.91-0.92l0.21-3.14l1.76-1.14l2.47,0.38l1.37,1.58
		l2.99-0.27l2.33,1.71l0.93,0.03l0.21-0.76l1.83,0.3l0.85-0.68l-0.45-1.72l2.94-1.5l0.59-1.47l-1.14-3.36l-0.97-0.46l0.61-1.34
		l5.32,0.22l0.8,1.09l3.08,1.2l0.76-2.18l1.76-1.42l1.64,0.55l-0.48,0.81l3.12,0.03l0,0l4.05,1.31l0.68,2.13l1.66-2.24l4.84,0.93
		l-0.32,3.14l-2.3,1.09l-0.5,2.78l1.81,0.92l0.25,2.68l6.51,5.47l4.22,1.75l1.24,0.05l-0.12-1.41l0.78-0.55l1.6,0.76l0.21-1.55
		l1.61-0.08l0.27-2.84l2.51,0.63l1.86,3.35l1.79-0.13l0.11-1.69l-1.56-1.77l1.43-2.51l2.58,0.82l2.21,1.93l-0.12-3l2.99,1.09
		l2.35-0.19l0.08,3.46l2.56,0.79l0.8,1.37l-1.46,2.29l0.78,11l-1.56,4.08l7.75,3.75l-0.62,1.77l0.76,2.94l2.39-0.03l-1.12,1.99
		l-4.31,0.87l-0.35,1.06l1.24,0.98l0.49,2.45l1.69,2.25l3.01,10.03l0,0l-2.97,3.1l-3.93,0.76l-6.79,4.02l-4.67,1.65l-1.54,1.93
		L362.7,310l-3.34,4.26l-4.41,1.57l2.13,1.57l2.91-0.381l1.21,2.721l2.15-0.73l0.84,1.221l0.13,3.17l1.88,1.71l0.53-2.82l1.87-0.08
		l-0.63,2.6l2.77,4.04l0.86-0.869l-1.26-5.261l2.36-1.6l1.35-3.12l3.44-0.08l-0.17,3.82l1.16,0.279l0.09,1.11l-0.51,2.25l-1.81,0.49
		l-0.3,3.52l0.91-0.189l0.19-1.061l1.18,0.03l0.42-2.87l1.14-0.74l1.44,3.641l2.59,2.649l1.21,4.181l1.94,1.109l-2.15,2.271
		l-1.69,0.63l-2.35-0.87l-0.67-1.35l-4.67-0.17l-0.78,0.949l1.73,0.841l-0.19,0.92l-1.89,0.899l-2.9-0.27l-4.47,1l0.93,4.79
		l-3.04,0.38l-2.71,2.189l4.1,5.61l0.51,12.66l0.78,0.939l1.69,0.16l-0.15,2.011l2.03,0.939l1.33,2.6l4.81,2.891l1.28,1.75
		l1.42-0.75l2.97,2.729l-5.21,3.21l-2.43,5.131l-3.01,1.029l-11.09-3.49l-5.5,3.41l-2.94,4.181l-0.95,2.97l-3.46,0.08l-2.05-2.62
		l-2.32,3.54l-4.35-0.43l-2.02-1.381l-1.9-3.64l-2.85-1.03l-3.57-4.02l-3.34-1.24l-0.19-4.46l-4.83-1.54l-1.07-1.49l-2.75,1.87
		l-2.58,0.4l-2.8-2.97l-5.66-0.65l-2.62-3.08l-7.09-5.189l-1.77,0.27l-1.69,2.52l0.25,6.671l-1.29,4.59l-6.16,1.33l-1.37,1.51
		l-9.73,1.729l-0.38-2.949l-1.61-1.91l-0.14-2.08l-1.16-1.351l0.65-1.109l-1.16-2.061l-1.73,0.49l-0.25-1.43l-3.45-0.41l0.01-1.32
		l-1.99,0.221l-4.43-4.65l-3.02-1.46l-2.89-0.22l-0.64,2.159l-1.6,0.16l-1.29-2.189l0.8-5.221l1.29-0.64l0.82-1.74l-1.32-3.779
		l-2.49-3.28l-5.16-0.73l-2.3-3.33l-2.02-0.399l-0.7-2.2l-3.06-1.11l-2.6-2.489l2.18-8.801l1.29-1.029l-1.74-0.55l-1.16-1.4
		l-3.46,1.05l-0.42-1.189l-0.36,0.46l-0.97-1l0,0l-1.37-0.17l-0.87-9.21l-3.86-8.44l-0.55-2.99l1.77-0.7l1.9,4.42l3.76-0.76
		l-1.14-4.12l-1.39-0.85l1.2-5.92l-2.89-0.38l-1.56-2.25L226.76,297.62z"/>
	<path id="SI-ZS" fill="#1E3250" stroke="#1E3250" stroke-width="0.5" d="M292.05,185.53v2.32l2.15,1.23l1.88,2.58l3.65,0.16l5.53-2
		l5.6,0.66l0.31,1.97l0.93,0.27l4.47-2.79l1.8,0.71l4.68-0.27l4.84-3.2l4.51,4.1l0.28,1.81l1.12,0.11l-0.32,2.32l4.08-0.38
		l1.05,4.46l3.48,2.46l1.69,3.77l1.46,1.28l-2.43,0.61l-1.12,1.99l-6.1-2.68l0.32,1.18l-0.8,0.44l-0.95,3.14l4.41,2.65l-3.93,1.39
		l-5.59-1.91l-0.46,2.02l-2.88,0.52l0.03,3.36l-1.54-1.07l-1.82,1.39l0.4,1.94l0,0l-9.71,1.78l-5.42-2.87l-0.68-1.45l2.6-0.95
		l-1.31-0.77l-0.04-2.21l-1.31-2.13l2.68-0.3l0.67-1.23l-2.21-3.58l-4.08,1.81l-3.75,4.64l-6.32,0.44l-2.06-0.25l-2.64-2.79
		l-0.83-2.56l0.64-2.82l-0.93-1.26l-1.31-0.57l-8.15,1.12l-0.16-2.13l1.24-2.71l-3.13-3.11l0.13-1.4l-1.88-0.38l-0.69-1.1l6.86-0.27
		l3.8-1.91l3.48,0.87l0.12-1.75l2.24-1.39l-0.25-5.09L292.05,185.53z"/>
	<path id="SI-SA" fill="#1E3250" stroke="#1E3250" stroke-width="0.5" d="M366.52,104.52l1.45,1.21l2.09-0.41l0.3,2.72l1.71,2.01
		l0.16,2.72l1.67,0.3l2.03-0.85l1.75,1.32l0.28,1.35l2.36,1.18l1.98-1.37l3.74,3.19l-0.95,1.7l-0.29,4.12h-1.44l-0.27,0.75
		l3.63,2.88l-0.95,0.88l0.59,1.59l-2.56,0.5l1.06,1.12l2.83,0.63l-0.11,1.32l0.93,0.63l3.9,0.86l-0.1,1.34l1.41,0.77l3.15-0.08
		l1.54-0.83l1.62,1.16l1.5-1.38l1.04,0.53l1.029,3.4l4.841-1.4l1.26,1.1l1.689,10.62l1.311,1.56l-1.04,3.13l1.399,2l-1.439,1.51
		l3.84,1.04l0.36,3.73l3.08,1.04l3.3-0.9l1.64,1.2l3.72-0.82l3.46,1.32l0.261,1.45l5.72,0.93l1.58,0.93l2.28-0.27l-0.551,1.61
		l0.53,0.74l3.86-0.22l0,0l3.31-0.24l0,0l1.271-0.22l2.029,1.2l0.99-0.52l1.96,3.84l6.86-0.96l0,0l0.46,2.3l-1.11,0.74l-1.52,5.17
		l-5.28,2.69l-1.729-0.91l0.89-1.88l-0.83-1.05l-2.32-0.1l-1.75,1.53l-0.34-1.78l-5.66-0.14l-3.27-1.23l-5.91,2.9L431.3,184
		l1.3,1.04l-0.52,4.54l-1.42,0.33l-1.09,2.68l-4.521,2.43l-0.7,1.83l1.841,2.38l-3.23,1.59l2.09,1.97l-0.399,0.65l1.05,0.17
		l-0.7,2.76l0.76,0.24l-0.899,0.55l0.38,0.96l-0.891,1.25l1.061,2.38l0.74-0.05l-0.131,1.88l1.98,0.74l-0.46,2.35l2.02,1.33
		l2.811-0.98l0.36,1.31l1.75,0.49l0.229,2.82l2.03-1.07l0.8,1.12l1.12-0.44l2.72,2.52l3.87,0.9l1.12,1.74l0,0l-2.62-0.51l-2.01,1.33
		l-5.021-0.49l-1.819,3.52l-3.561,1.47l-2.47,4.15l-1.94,1.72l-4.689,1.88l-6.59,0.71l1.31-2.62l3.85-2.45l1.24-4.01l-3.88-0.6
		l-1.71,0.92l-2.979,0.09l-1.051-6.72l-1.899-0.46l-1.61-3.22l-2.17-0.96l-2.22,1.64l-1.261-1.91l-3.21-1.69l-4.27,0.87l-3.1-0.74
		l-1.67,0.88l0,0h-3.69l0,0l-3.59-0.69l-1.56-1.44l-3.89,2.21l-6.86,0.16l-3.23-1.01l-1.92,0.77l-2.42-0.39l-0.19,3.61l-1.5-1.15
		l0.19-4.7l-1.52-0.73l0.02-2.16l-1.1-1.42l-0.7-0.06l-1.09,2.16l-2.11,0.44l-2.26-0.33l-2.3-1.88l-2.33,0.84l-1.49-0.71l-2.81,1.12
		l-0.36,1.37l2.81,1.75l-1.4,3.6l0.7,1.31l-1.07,1.15l2.72,1.04l-0.3,4.14l-5.17-2.92l-7.24-1.74l-6.75,1.91l-2.51-0.52l0,0
		l-2.35-0.66l-0.97-2.21l0,0l-0.4-1.94l1.82-1.39l1.54,1.07l-0.03-3.36l2.88-0.52l0.46-2.02l5.59,1.91l3.93-1.39l-4.41-2.65
		l0.95-3.14l0.8-0.44l-0.32-1.18l6.1,2.68l1.12-1.99l2.43-0.61l-1.46-1.28l-1.69-3.77l-3.48-2.46l-1.05-4.46l-4.08,0.38l0.32-2.32
		l-1.12-0.11l-0.28-1.81l-4.51-4.1l-4.84,3.2l-4.68,0.27l-1.8-0.71l-4.47,2.79l-0.93-0.27l-0.31-1.97l-5.6-0.66l-5.53,2l-3.65-0.16
		l-1.88-2.58l-2.15-1.23v-2.32l0,0l0.74-1.67l1.14,0.35l0.97-1.23l-2.35-0.38l-1.18-3.31l-1.31,0.52l-8.4-5.7l-9.67-0.74l-4.45,1.43
		l-2.55-0.8l-1.25,0.77l-5.19-1.73h-4.56l-1.39-2.27l1.52-2.71l-0.02-1.92l-1.61-2.33l1.65-3.15l-0.13-1.68l-3.82,1.02l-1.63-0.6
		l0.09-6.75l-0.76-0.96l-2.34-0.11l-3.38-3.81l0.23-8.65l-4.24,1.57l-4.01-0.28l-1.02,1.13l-4.6-3.1l0,0l0.02-0.28l0,0l1.99-4.97
		l0.42-5.19l-1.14-1.26l0.55-3.22l1.46-0.66l0.61-1.26l2.07-0.69l4.41-0.06l5.83-1.53l0.78-1.24l1.81-0.41l0.47-1.43l0,0l4.01,0.96
		l6.07-0.61l0.49,1.05l2.53,0.93l2.33,5.53l1.94-0.8l0.55-2.09l1.28-0.36l1.04,0.97l1.47-0.39l1.4,1.24l2.32,0.49l5.26-0.68
		l2.44,1.67l3.26-0.88l4.77,0.33l3.31-3.35l5.61,0.17l0.57-1.85l2.83-0.85l-1.33-3.11l1.02,0.03l9.12,5.36l4.07,0.33l7.7,2.81
		l4.37,3.16l-0.32-2.17l0.74-0.86l5.36,2.2l1.5,3.88l3.42,1.81l0.93-0.33l0.61,1.45l1.48-0.08l0.17-1.43l1.65-0.93l2.3-0.27
		l0.31,2.06l-1.98,1.86l-0.04,1.38l3.8,1.78l8.1-3.76l-0.4-1.68l3.53-5.13l0.1-4.26l1.82-5.12l4.35-2.47l4.77-1.07l0.97-1.85
		l-2.85-3.1l-0.59-3.28L366.52,104.52z"/>
	<path id="SI-KO" fill="#1E3250" stroke="#1E3250" stroke-width="0.5" d="M338.23,60.43l1.88,0.08l0.66,0.8l3.05-0.3l1.9,2.2
		l7.9,2.35l4.73-1.44l3.46,0.14l2.93-2.229l2.75-0.14l2.3,1.38l1.39-1.52l2.76,0.5l0,0l-0.86,3.81l0.3,4l-5.39,0.22l-0.72,0.77
		l0.01,3.53l-3.4,3.44l-1.63,0.53l-2.07,11.43l-1.88,2.07l-3.33,1.87l-0.78,3.97l-0.97-0.06l-0.07,1.07l-0.75-0.02l-0.79,5.78
		l1.76-0.09l2.87-2.89l3.58,1l2.88-1.6l1.05,0.91l2.01-0.47l0.76,3l0,0l-0.55,0.41l0.59,3.28l2.85,3.1l-0.97,1.85l-4.77,1.07
		l-4.35,2.47l-1.82,5.12l-0.1,4.26l-3.53,5.13l0.4,1.68l-8.1,3.76l-3.8-1.78l0.04-1.38l1.98-1.86l-0.31-2.06l-2.3,0.27l-1.65,0.93
		l-0.17,1.43l-1.48,0.08l-0.61-1.45l-0.93,0.33l-3.42-1.81l-1.5-3.88l-5.36-2.2l-0.74,0.86l0.32,2.17l-4.37-3.16l-7.7-2.81
		L310.1,120l-9.12-5.36l-1.02-0.03l1.33,3.11l-2.83,0.85l-0.57,1.85l-5.61-0.17l-3.31,3.35l-4.77-0.33l-3.26,0.88l-2.44-1.67
		l-5.26,0.68l-2.32-0.49l-1.4-1.24l-1.47,0.39l-1.04-0.97l-1.28,0.36l-0.55,2.09l-1.94,0.8l-2.33-5.53l-2.53-0.93l-0.49-1.05
		l-6.07,0.61l-4.01-0.96l0,0l-0.26-1.71l1.35-1.57l1.82,1.19l1.5-0.5l0.12-1.59l-0.8-0.91l0.87-1.57l1.67-0.27l0.58-5.73l1.84,1.43
		l0.85,2.09l2.46-4.42l1.52,2.11l1.8-1.89l3.21-0.06l1.96,1.27l5.97-2.51v-3.63l1.44-1.82l-0.3-1.68l1.59-1.13l-1.69-1.07l1.65-1.52
		l1.28-2.97l-0.76-1.57l1.44-0.5l-0.36-1.87l2.24-2.18l0.71-2.42l1.38-0.03l0.84-1.02l-0.08-2.51l2.91-1.96l1.41-0.3l4.46,2.54
		l0.34-0.8l0.86,1.35l0.95-0.61l-0.32-5.24l1.78,1.46l4.28-3.55l2.68,2.4l1.75,4.71l3.25-2.87l-0.18-2.45l2.59-2.32l1.52-2.84
		l5.21-3.23l4.42,0.17l2.89,1.54l4.73-3.67l3.63,1.47l0.33,0.99l0.66-0.06l0.4-1.62l1.6-0.17l0.28-0.72L338.23,60.43z"/>
	<path id="SI-PS" fill="#1E3250" stroke="#1E3250" stroke-width="0.5" d="M326.1,224.94l2.51,0.52l6.75-1.91l7.24,1.74l5.17,2.92
		l0.3-4.14l-2.72-1.04l1.07-1.15l-0.7-1.31l1.4-3.6l-2.81-1.75l0.36-1.37l2.81-1.12l1.49,0.71l2.33-0.84l2.3,1.88l2.26,0.33
		l2.11-0.44l1.09-2.16l0.7,0.06l1.1,1.42l-0.02,2.16l1.52,0.73l-0.19,4.7l1.5,1.15l0.19-3.61l2.42,0.39l1.92-0.77l3.23,1.01
		l6.86-0.16l3.89-2.21l1.56,1.44l3.59,0.69l0,0h3.69l0,0l1.67-0.88l3.1,0.74l4.27-0.87l3.21,1.69l1.261,1.91l2.22-1.64l2.17,0.96
		l1.61,3.22l1.899,0.46l1.051,6.72l2.979-0.09l1.71-0.92l3.88,0.6l-1.24,4.01l-3.85,2.45l-1.31,2.62l6.59-0.71l4.689-1.88l1.94-1.72
		l2.47-4.15l3.561-1.47l1.819-3.52l5.021,0.49l2.01-1.33l2.62,0.51l0,0l2.09,2.73l-1.56,0.41l-1.42,1.75l0.439,0.73l-0.84,2.84
		l0.67,0.55l-2.07,1.33l1.19,0.25l-0.15,2.65l-1.989,0.98l-0.29,1.2l1.239,1.6l-1.149,0.63l0.859,0.79l0.91,5.56l-0.42,11.55
		l-5.18,5.34l1.5,5.33l-0.59,1.47l1.229,2.5l-1.25,1.77l1.561,0.57l2.71,3.78l-3.17,1.17l-4.79,0.3l-4.41,5.65l-2.601-3.45
		l-3.31-2.17l-5.771-1.74l-1.579-1.58l-2.36,3.75l-1.21-0.65l-0.57-1.66l-2.24-0.38l-0.939,5.14l-1.65,1.63l-4.46,0.41l-0.38-1.69
		l-1.729-0.95l-2.721,1.36l-0.38,1.69l-1.689,0.32l1.399,5.84l-2.01,0.9l-8.19-0.38l-4.12,1.06l0,0l-3.01-10.03l-1.69-2.25
		l-0.49-2.45l-1.24-0.98l0.35-1.06l4.31-0.87l1.12-1.99l-2.39,0.03l-0.76-2.94l0.62-1.77l-7.75-3.75l1.56-4.08l-0.78-11l1.46-2.29
		l-0.8-1.37l-2.56-0.79l-0.08-3.46l-2.35,0.19l-2.99-1.09l0.12,3l-2.21-1.93l-2.58-0.82l-1.43,2.51l1.56,1.77l-0.11,1.69l-1.79,0.13
		l-1.86-3.35l-2.51-0.63l-0.27,2.84l-1.61,0.08l-0.21,1.55l-1.6-0.76l-0.78,0.55l0.12,1.41l-1.24-0.05l-4.22-1.75l-6.51-5.47
		l-0.25-2.68l-1.81-0.92l0.5-2.78l2.3-1.09l0.32-3.14l-4.84-0.93l-1.66,2.24l-0.68-2.13l-4.05-1.31l0,0l-3.82-6.16L326.1,224.94z"/>
	<path id="SI-PD" fill="#1E3250" stroke="#1E3250" stroke-width="0.5" d="M458.8,46.29l5.15,7.57l2.55-1.74l1.88,3.03l-1.14,1.74
		l1.14,1.08l1.73,0.061l1.1,2.09l3.67,1.27l0.99-0.49l0.57,1.73l1.38-1.07l3.229,0.74l0.311,1.58l2.85,0.38l2.33,3.12l2.61,1.38
		l-0.12,1.07l-2.37,1.47l-0.19,0.93l-3.08,1.24l2.391,5.88l10.63,1.57l-0.141,5.45l-1.329,2.1l0.55,2.59l5.529,7.82l0.16,1.32
		l-1.109,1.15l1.26,1.08l0.32,2.03l-1.101,1.43l5.21,4.87l0.53,1.41l-1.14,6.18l-2.62,2.97l0.149,3.16l0.91,0.61l1.96-0.39l0.87-2
		l0.99-0.14l0.27,4.34l-0.88,0.8l3.271,3.62l-0.53,0.85l1.01,2.7l0,0l-0.75-0.03l0.021,1.18l3.37,5.93l0.659,3.81l-0.569,2.23
		l-6.67,0.66l-3.511,5.86l-3.439,1.1l-1.391-0.98l-1.14,1.09l-1.41-0.63l-2.39,3.73l-4.39,2.14l-5.15,0.96l-0.91-1.1l-1.05,0.55
		l-1.46-0.49l-1.03,1.31l-4.479,0.93l-1.46,2.96l-2.32,1.89l-2.51-0.49l-1.79,0.88l-0.63,1.59l-6.15,0.79l1.12,2.44l0,0l-6.86,0.96
		l-1.96-3.84l-0.99,0.52l-2.029-1.2l-1.271,0.22l0,0l-3.31,0.24l0,0l-3.86,0.22l-0.53-0.74l0.551-1.61l-2.28,0.27l-1.58-0.93
		l-5.72-0.93l-0.261-1.45l-3.46-1.32l-3.72,0.82l-1.64-1.2l-3.3,0.9l-3.08-1.04l-0.36-3.73l-3.84-1.04l1.439-1.51l-1.399-2
		l1.04-3.13l-1.311-1.56l-1.689-10.62l-1.26-1.1l-4.841,1.4l-1.029-3.4l-1.04-0.53l-1.5,1.38l-1.62-1.16l-1.54,0.83l-3.15,0.08
		l-1.41-0.77l0.1-1.34l-3.9-0.86l-0.93-0.63l0.11-1.32l-2.83-0.63l-1.06-1.12l2.56-0.5l-0.59-1.59l0.95-0.88l-3.63-2.88l0.27-0.75
		h1.44l0.29-4.12l0.95-1.7l-3.74-3.19l-1.98,1.37l-2.36-1.18l-0.28-1.35l-1.75-1.32l-2.03,0.85l-1.67-0.3l-0.16-2.72l-1.71-2.01
		l-0.3-2.72l-2.09,0.41l-1.45-1.21l0,0l-0.76-3l-2.01,0.47l-1.05-0.91l-2.88,1.6l-3.58-1l-2.87,2.89l-1.76,0.09l0.79-5.78l0.75,0.02
		l0.07-1.07l0.97,0.06l0.78-3.97l3.33-1.87l1.88-2.07l2.07-11.43l1.63-0.53l3.4-3.44l-0.01-3.53l0.72-0.77l5.39-0.22l-0.3-4
		l0.86-3.81l0,0l2.29-1l0.76,1.05l2.63,0.25l9.19-1.19l0.35,2.02l1.76,0.25l1.89,1.73l1.4-0.66l1.54,0.89l-0.1,2.59l1.43,1.41
		l0.27,2.62l2.261,0.74l2.729-2.26l1.62,0.52l0.7,1.24l1.62-0.6l0.17-1.6l1.2,0.27l3.489-3.39l0.591-0.27l0.59,1.1l1.29-2.32
		l-1.101-1.46l1.73-1.08l-1.33-5.88l0.74-0.689l1.479,0.31l2.061-2.38l3.93-1.16l1.35-1.68l2.07,0.61l-0.67,0.63l-1.44-0.58
		l-0.699,2.21l2.409,1.63l0.931-0.36l-0.971-1.79l0.841-0.67l3.06,1l1.27-0.72l1.03-2.46l2.83-0.19l0.82-3.98l3.8-0.08l4.16,2.4
		l3.97,0.5l3.36-1.08l5.25,0.17L458.8,46.29z"/>
	<path id="SI-PM" fill="#1E3250" stroke="#1E3250" stroke-width="0.5" d="M548.99,0.86l6.02,0.25l1.62,3.3l4.99,3.93l1.85,0.33
		l1.92,2.6l-1.54,3.99l-0.479,5.09l-3.19,0.67l-1.689,1.58l0.02,4.56l2.92-0.06l0.311,0.95l-2,5.5l5.779,5.94l-0.149,2.63l1.54,2.51
		l2.43-2.13l1.71,1.94l-0.1,1.46l-1.61,1.69l0.83,0.83l10.46,1.6l-1.92,10.02l-2.64-0.03l-2.551-1.35l-0.189,2.35l-1.1,0.91
		l0.189,2.07l1.311,1.1l-0.23,1.63l3.1,0.91l2.771,4.99l4.32,0.88l4.56,6.84l0.78-0.36l1.359,1.49l0.561,4.05L593,86.7l2.77-0.27
		l1.851,2.95l-0.561,3.19l0.54,1.6l2.561,1.13l-1.33,3.47l1.45,1.59l-1.88,2.48l10.479,5.61l3.12,3.91l-1.58-0.03l-0.95,0.91
		l-1.92-1.84l-0.79,1.21l-3.56-2.62l-1.33-0.11l-0.74-1.43l-1.58,1.21l-1.35-0.35l-0.79-0.8l0.93-2.15L592.73,104l0.689-1.19
		l-0.65-1.02l-3.539-1.21l-1.57,0.28l-1.24-2.45l-3.86,0.91l-1.689-3.61l-1.84,0.44l-1.41-1.05l-0.83,1.3l-2.17-1.85l0.53-1.37
		l-0.53-0.8l-0.93-0.03l-0.721,2.31l-2.62,1.24l-1.899-3.14l-1.431,1.44l-2.359-1.08l-1.021,3.47l-2.22-0.99l-2.7,1.13l-0.92,1.76
		l-2.28,1.41l-5.35-0.03l-1.83,5.09l-1.58,1.32v1.729l2.95,6.6l0.95,8.61l1.79,2.88l3.64,2.97l1.521,2.72l-0.2,2.83l-3.46,4.53
		l-2.931,0.22l-0.739-2.33l-1.811-2.06l-2.979,2.22l-3.04-0.99l-3,1.73l-1.521-0.68l-1.859,0.63l-2.721-4.34l-5.989-3.93l-1.63,0.25
		l-2.811,2.25l-2.28,3.87l-2.8-0.771l-2.96,1.32l-2.47-0.36l-1.86-1.31l0,0l-1.01-2.7l0.53-0.85l-3.271-3.62l0.88-0.8l-0.27-4.34
		l-0.99,0.14l-0.87,2l-1.96,0.39l-0.91-0.61l-0.149-3.16l2.62-2.97l1.14-6.18l-0.53-1.41l-5.21-4.87l1.101-1.43l-0.32-2.03
		l-1.26-1.08l1.109-1.15l-0.16-1.32l-5.529-7.82l-0.55-2.59l1.329-2.1l0.141-5.45l-10.63-1.57l-2.391-5.88l3.08-1.24l0.19-0.93
		l2.37-1.47l0.12-1.07l-2.61-1.38l-2.33-3.12l-2.85-0.38l-0.311-1.58l-3.229-0.74l-1.38,1.07l-0.57-1.73l-0.99,0.49l-3.67-1.27
		l-1.1-2.09l-1.73-0.061l-1.14-1.08l1.14-1.74l-1.88-3.03l-2.55,1.74l-5.15-7.57l0,0l2.24-1.46l6.31-1.99l7.381-0.06l8.72,3.95
		l5.01,4.42l9.32,2.57l1.91,1.68l1.39,3.04l4.62,2.73l1.03-1.32l0.22-6.35l-2.311-4.59l0.431-3.26l-2.16-0.38l-0.95-1.47l-2.21,0.03
		l0.36-1.33l-2.54-2.29l-0.95-2.4l0.72-5.26l-0.359-4.31l1.369-3.82l-0.63-4.18l1.33-1.6l-2.53-4.82l2.28-2.21l1.65,1.3l4.069-2.27
		l0.95,1.58l1.83-2l3.13,0.53l0.65-2.3l2.03-1.83l1.31,0.17l2.04-3.1l0.87-0.2l0.91,1.05l2.66-2.46l0.27,1.19l1.311,0.03l1.159,1.77
		l5.24,0.89l0.97-1.36l2.591,0.33l2.39-2.27l6.8-1.05l2.61-1.55L548.99,0.86z"/>
</g>
</svg>
