<?xml version="1.0" encoding="utf-8"?>
<!-- Generator: Adobe Illustrator 15.0.0, SVG Export Plug-In . SVG Version: 6.00 Build 0)  -->
<!DOCTYPE svg PUBLIC "-//W3C//DTD SVG 1.1//EN" "http://www.w3.org/Graphics/SVG/1.1/DTD/svg11.dtd">
<svg version="1.1" id="Layer_1" xmlns:amcharts="http://amcharts.com/ammap"
	 xmlns="http://www.w3.org/2000/svg" xmlns:xlink="http://www.w3.org/1999/xlink" x="0px" y="0px" width="676.5px" height="384px"
	 viewBox="0 0 676.5 384" enable-background="new 0 0 676.5 384" xml:space="preserve">
<defs>
	
	
		<amcharts:ammap  projection="mercator" bottomLatitude="47.731105" leftLongitude="16.834461" topLatitude="49.614162" rightLongitude="22.568332">
		</amcharts:ammap>
</defs>
<g>
	<path id="SK-BC" fill="#1E3250" stroke="#1E3250" stroke-width="0.5" d="M250.19,174.48l5.37-4.5l1.62,1.75l-0.07,1.25l1.84,0.27
		l1.12,1.07l2.45-1.04l2.41,0.649l2.84-0.37l2.5-2.939l0.47-3.63l-2.96-3.07l0.77-3.06l-0.84-3.7l2.27-0.2l1.35-1.71l0.79-2.87
		l1.85-0.82l2.79,1l8.82-0.26l1.33-0.729l1.41,0.52l1.97-1.91l3.67-1.029l2.04,0.939l0.63,1.57l0.07,2.229l-1.61,1.36l0.21,0.61
		l6.92-1.101l2.08-4.51l5.07-5.85h6.74l5.29-2.37l3.09,0.41l1.51-1.04l5.21,1.72l8.14,6.11h3.04l4.78-1.75l1.52,1.8l5.34-2.601
		l2.36,0.09l1.74,1.29l4.77-0.659l8.11,0.369l2.54-1.43l1.91,1.98l0,0l5.28,0.489l1.22,1.53l8.93,1.3l1.94-1.33l1.53-2.59l2.2,2.061
		l2.85,0.189l2.79,3.08l1.48,0.47l0,0l-1.4,0.641l-1.09,3.939l-4.43,4.07l0.21,3.67l-0.89,0.87l0.84,0.66l0.61,2.62l-2.47,1.6
		l-0.13,0.97l0.28,2.11l0.85,0.26l0.17,3.16l2.07-0.29l4.39,3.75l3.84,6.86l1.32,1.08l-1.02,1.939l0.91,4.33l0,0l-0.53,1.38l0,0
		l2,0.98l2.29-0.49l0.66,1.48l1.35,0.22l-0.6,3.22l-2.3,4.53l0.01,1.84l-2.23,2.811l-0.54,2.909l0.94,1.44l0.3,2.71l1.67-0.24
		l0.28,2.24l3.62-0.1l2.16-0.69l2.43-3.07l1.22-0.37l0.65,2.061l3.3-0.93l0.96,1.46l0,0l0.64,1.39l-2.27,1.35l-0.83,1.86l-2.58,2.47
		l0.08,4.09l-1.55,2.101l0.72,2.49l-4.51,5.47l0.59,0.87l-0.87,1.439l-3.03,2.931l-1.25,4.279l-1.98-0.08l0.52,1.33l-2.81,0.48
		l-4.83-2.99l-1.46,0.51l0.87,0.91l-0.75,1.49l-2.72,0.21l0.47,1.53l-3.21,0.45l-4.47-0.78l0.51,1.63l-0.74,2.91l-4.83,4.6
		l-1.01-0.149l-0.87,0.899l0.84,1.37l-3.18,2.41l-1.79-1.47l-2.85,0.8l-1.56,1.45l-1.37-0.44l-1.19,1.94l-1.39,0.239l-1.55,3.03
		l-3.99,1.2l1.49-3.51l-1.54-2.94l-4.11-0.7l-0.51-1.319l-1.27,2.52l-2.32-1.21l-1.5,1.29l-0.1,1l-1.3,0.24l-1.18-1.67l2.4-3.04
		l-0.72-1.721l-1.14,0.261l-2.96-3.29l-1.55-0.4l-1.12,0.14l-1.22,1.98l-3.17-0.22l-1.61-1.5l-1.06-4.16l-2.35,0.18l-1.79-1.81
		l-5.5,5.21l-5.79,2.35l0.21,2.061l-2.23,2.779l0.52,3.38l-1.87,1.87l0.33,2.61l-1.27,2.46l0.4,1.26l-2.09,0.82l-0.15,1.8
		l-1.51-1.08l-0.04-1.59l-1.21-0.15l-2.21,2.2l-2.47,0.7l-1.54-1.41l-1.37,0.79l-4.38-0.59l-3.13,0.43l-2.67,2.2l-2.43,0.67
		l-1.36,2.55l-2.4-1.51l-3.33,0.7l-5.75-2.27l-1.52,1.31l-1.45,0.11l-2.6-1.16l-2.4,2.04l-1.32-1.351l-1.31,0.391l-2.14-1.92l0,0
		l-0.02-2.551l1.09-0.51l0.38-1.63l2.21-1.58l1.83-2.82l-0.41-2.39l-1.37-2.09l2.17-3.48l-0.76-0.8l0.94-1.04l-2.37-1.63l-1.6,1.94
		l-1.32,0.43l-1.15-0.43l-4.28,1.819l-0.97-0.899l-1.3,2.14l-1.88-1.85l-0.64,1.79l0.79,2.34l-4.45-0.25l-6.71-2.67l-0.84,1.899
		l-1.74-0.33l-0.56-3.1l3.46-3.13l-2.12-3.24l0.98-1.27l-1.42-1.74l0.69-1.92l2.9-1.561l-0.06-3.18l1.12-3l-0.65-2.21l-1.31-0.16
		l-0.73-1.229l-1.66-6.61l-2.87-1.04l-4-6.27l-1.55,0.05l-3.41,3.569l0.26,0.58l-1.49,1.07l0.14,1.33l-1.05,0.39l0.08,2.13
		l-0.73,0.75l-2.08,1.381l-0.33-0.841l-1.84-0.409l-3.46,2.29l-2.88-1.011l-3.66,5.221l-0.52-0.4l-2.01-4.69l-0.14-6.439l3.15-7.601
		l-1.01-3.13l-1.46-0.08l2.47-3.729l-1.24,0.15l0.73-3.74l-0.74-1.351l-2.98-0.29l-0.92,0.37l-0.23,1.07l-1.18-0.19l0.44-2.1
		l1.49-1.43l-1.1-4.07l0,0l0.5-3.65l8.54,0.71l2.29-1.079l0.34-2.87l5.81-7.88l6.72,2.119l-0.31-3.46l2.86-2.319l1.09-4.771
		l1.21-0.99l1.72,0.57l1.43-0.97L250.19,174.48z"/>
	<path id="SK-BL" fill="#1E3250" stroke="#1E3250" stroke-width="0.5" d="M49.79,208.03l2.98,0.02l0.21-1.72l3.29-0.37l3.39-1.4
		l1.78,0.671l-1.02-2.58l3.95,2.38l2.06-1.16l0.71,1.41l0.96,0.26l12.46-3.51l0.52-1.811l2.46-1.55l6.83-10.1l3,1.97l1.36,2.69
		l-0.17,2.609l-1.71,1.03l-1.3,2.06l-2.05,0.16l-0.74,2.65l-3.94,2.71l-0.33,1.01l3.36,2.39l0.45,1.98l2.17,0.34l0.07,1.41
		l1.94,0.92l-1.51,3.52l-1.91,0.66l-0.94,2.82l1.5,1.75l2.81,0.13l1.74,1.89l3.32,0.03l-0.53,3.07l1.7,0.24l-0.05,1.33l1.44,0.64
		l1.41,4.95l0.58,0.739l1.72-0.67l1.88,1.78l0.62,2.43l-1.56,4l-1.24,0.551l1.11,1.13l-0.59,1.609l1.11,0.11l2.34,2.7l1.59-0.7
		l1.34,1.53l-3.48,4.38l-0.98,3.74l4.98,2.18l-1.27,2.89l1.37,1.271l0.1,2.569l-1.89,0.74l-0.34,0.84l-1.77,0.07l-1.92,2.92
		l-2.94,1.05l-1.91-1.29l-1.66-0.08l0.09-2.3l-1.95-0.64l-1.29,1.15l0.46,1.72l1.09,0.609l-1.11,1.921l-1.13-0.29l-2.88,2.26
		l-2.28,0.75l-1.86-0.65l-0.03,2.96l0.8,1.521l2.08,0.84l1.09-1.311l1.19,1.391l-1.48,0.3l-0.49,3.05l-2.07,0.3l-1.55-0.83l0.8,2.82
		l-2.7,1.37l-1.54,2.08l-0.98,0.04l0.11,1.05l-1.16,1.22l0,0l-0.48-1.479l-1.8,0.939l-2.63-0.54l-4.26,2.04l-2.14-2.279l-1.54-0.05
		l-1.49-1.49l-2.24,1.6l-2.32-1.7l1.85-2.18l-1.94-1.53l1.85-1.689l-1.38-0.84l0.65-1.2l-0.58-0.811l1.99-1.35l-0.03-1.26
		l-3.33-3.521l0.64-0.42l-1.28-3.01l-2.99,0.33L52.78,266l0.05-2.62l-1.45-5.57l-1.51-2.21l1.05-4.409l-1.06-0.98l-2.46-0.35
		l-1.6-2.48l0.44-0.689l-0.53,0.26l-1.35-3.021l1.04-0.18L44.84,243l0.89-1.75l-3.86-1.92l0.06-1.69l-2.2,0.11l-1.01-0.79
		l-0.99-4.55l1.82-0.351l0.84-2.89l-0.78-1.63l1.22-1.28l-1.31-4.689l1.38-0.78l0.04-1.87l3.46-3.13l-0.18-1.75l2.45-0.06
		l-0.52-2.61l0.95-0.2l-0.13-1.03l1.06-0.649l1.35,0.41L49.79,208.03z"/>
	<path id="SK-KI" fill="#1E3250" stroke="#1E3250" stroke-width="0.5" d="M403.68,153.52l1.78,1.44l1.49-0.41l-0.33-3.2l0.76-1.14
		l0.04-4.11l1.57-1.42l-1.45-2.66l3.59-3.729l5.36-2.87l1.6-2.03l3.58,1.48l7.07,5.27l1.67,0.051l-3.45-4.4l2.93-3.71l4.07,5.53
		l2.47,1.33l3.67-0.931l3.63,5.771l3.08,1.819l-0.04-3.29l1.21-1.04l0.45-1.939l3.27-1.1l1.74,2.18l2.18-1.65l1.04,1.641l1.87-0.73
		l-1.88-4.64l0.54-0.44l4.68,2.53l2.92-1.12l-2.05,2.08l2.62,1.52l5.79-1.83l2.36,0.631l1.75,1.279l1.76,2.84l3.06-2.3l2.41,4.021
		l1.57,0.92l0.439,2.82l10.53,1.699l1.391-1.359l2.579,1.31l0.95,2.46l1.601,1.49l1.989-2.1l2.671,1.569l0.289-0.939l1.341,0.05
		l-0.061,1.81l2.181-0.939l0.539,1.76l-1.63,5.57l3.73,3.04l1.99-0.891l-0.1-1.83l1.459-1.31l5.871-0.55l1.311-2.16l-0.051-5.04
		l1.689-0.43l2.08,1.909l0.32-3.529l1.18,3.609l2.221,0.4l0.6-1.05l3.1-1.62l0.07,2.91l1.891,1.02l-1.031,1.17l0.16,1.42
		l2.801,2.351l0.891,1.779l-0.221,1.79l1.301,2.23l3.789,0.99l0.65,1.689l1.949-0.06l2.26,1.35l4.221-1.3l2.84,3.06l2.43-0.38
		l4.211-2.31l0.98,0.1l0.01,0.75l0.568-2.479l4.021-2.36l0.199-1.729l-1.119-1.681l-0.691-9.97l0.371-2.23l1.1-0.779l1.73,0.21
		l1.09,2.01l3.879-0.6l5.4,2.1l2.84,1.94l1.861,3.13l3.67,0.39l0.75,1.4l7.969-1l6.17,0.109l0.15-6.26l2.791-1.68l0.949-2.17
		l3.09-3.141l4.551,1.24l2.34,8.21l5.129-0.18l2.201-0.891l5.889,1.57l0,0l-0.93,4.78l0.93,2.02l0.281,3.62l-4.18,5.36l-0.48,2.6
		l1.891,1.5l0.039,2.07l-1.1,1.24l-1.221,5.939l-3.879,1.25l-5.541,4.71l-0.73,2.54l-1.5,1.5l-1.67,0.05l-1.49,1.931h-1.209
		l-2.83,5.76l-2.721,22.49l0.23,3.84l0.48,1.18l1-0.04l-0.41,1.25l-2.029,0.73l0.529,1.67l-3.76,0.75l-0.52-0.86l-0.99,1.471
		l-1.1-2.29l-2.182,1.439l-2.979-2.399l-1.301,1.3l-3.24,1.3l-0.189-0.58l-3.791,0.21l-2.199,1.17l0.471,0.73l-0.551,0.81
		l-1.93-1.13l-1,0.6l-0.27-0.819l-0.051,1.189l-0.539-0.069l-0.33-1.15l-0.641,0.78l0.51,1.09l-0.869-0.62l-1.592,1.36L574,235.18
		l-2-0.01l-0.471,4.66l-1.109,0.59l-2.449-1.54l-3.531,0.24l-0.879-0.89l-3.441-0.561l-1.469-0.92l0.209-1.82l-1.379-0.66
		l0.609-1.069l-0.459-0.87l-2.17-1.28l-1.211,0.26l-0.971-1.25l-0.139-3.26l-4.221-8.33l0.041-3.85l-0.861-0.79l-0.199-2.04
		l-0.891,0.36l-1.27-1l-1.461,1.659l-1.35-0.199l-0.561-1.03l-1.969,0.58l-2.91-5.061l0.029-1.689l-1.57-0.87l-0.148-0.83
		l-1.32,0.25l-0.631-1.02l-3.34-1.61l-1.129-1.71l-1.74,1.01l-0.82,3.271l-1.68-0.771l-2.32,0.83l-5.93,0.13l-0.141-0.54l-0.48,0.78
		l1.08,0.33l-1.27,0.46l0.75,0.76l-0.461,1.22l-0.729-0.109l0.6,1.17l-1.279,0.84l0.148,0.72l-4.11-0.45l-2.97-2.199l-0.75,0.819
		l-1.24-0.529l-0.449,0.88L504.75,208l0.021,1l-2.37,0.43l-0.79,1.011l-0.76-0.7l-2.39,1.04l-1.9,3.63l-1.18,0.31l-2.221-1.05
		l-0.68-3.03l-3.01-1.479l-1.36,0.72l-0.01-0.82l-4.09-0.85l-2.261,0.95l-1.199,1.439l-0.771-0.909l-1.81,0.079l-0.13-1.72
		l-1.511-0.31l-0.149-1.09l-0.71,0.609l-1.73-3.149l-5.51,1l-2.02-1.971v-2.18l-0.921,0.25l0.7-1.25l-4.26,1.45l-7.35,0.82
		l-0.471,0.67l-2.279-0.67l-3.101,1.479l-2.81,0.08l-1.08,1.28l-0.391-0.41l-2.819,1.939l-1.53-0.01l-1.57,1.33l-4.069-1.58
		l-1.07,2.641l-1.87-1.45l-1.17,0.42l-0.76,0.92l0.92,2.42l-0.29,3.86l-1.36,0.29l-1.14,2.34l-2.14,1.37l0,0l-0.96-1.46l-3.3,0.93
		l-0.65-2.061l-1.22,0.37l-2.43,3.07l-2.16,0.69l-3.62,0.1l-0.28-2.24l-1.67,0.24l-0.3-2.71l-0.94-1.44l0.54-2.909l2.23-2.811
		l-0.01-1.84l2.3-4.53l0.6-3.22l-1.35-0.22l-0.66-1.48l-2.29,0.49l-2-0.98l0,0l0.53-1.38l0,0l-0.91-4.33l1.02-1.939l-1.32-1.08
		l-3.84-6.86l-4.39-3.75l-2.07,0.29l-0.17-3.16l-0.85-0.26l-0.28-2.11l0.13-0.97l2.47-1.6l-0.61-2.62l-0.84-0.66l0.89-0.87
		l-0.21-3.67l4.43-4.07l1.09-3.939L403.68,153.52z"/>
	<path id="SK-NI" fill="#1E3250" stroke="#1E3250" stroke-width="0.5" d="M159.61,194.61l2.01-1.48l0.81,0.16l1.48-2.19l-0.05-2.54
		l-2.35-4.29L161,180.79l1.43-1.47l1.33-0.13l1.2,1.449l4.97-0.109l1.93,1.109l1.46-0.51l3.55,3.24l1.37,4.32l1.66,1.609l1.42-0.78
		l3.96,1.261l2.59,5.75l-0.31,1.88l-2.42,2.34l1.64,1.35l-0.87,2.011l3.5,0.47l1.17,0.93l3.55,5.061l1.19,3.54l3.17,0.96l1.15-1.771
		l1.69,2.57l0.45-1.561l5.2-4.409l2.86-1.341l2.9-2.71l1.95-0.1l0,0l1.1,4.07l-1.49,1.43l-0.44,2.1l1.18,0.19l0.23-1.07l0.92-0.37
		l2.98,0.29l0.74,1.351l-0.73,3.74l1.24-0.15l-2.47,3.729l1.46,0.08l1.01,3.13l-3.15,7.601l0.14,6.439l2.01,4.69l0.52,0.4
		l3.66-5.221l2.88,1.011l3.46-2.29l1.84,0.409l0.33,0.841l2.08-1.381l0.73-0.75l-0.08-2.13l1.05-0.39l-0.14-1.33l1.49-1.07
		l-0.26-0.58l3.41-3.569l1.55-0.05l4,6.27l2.87,1.04l1.66,6.61l0.73,1.229l1.31,0.16l0.65,2.21l-1.12,3l0.06,3.18l-2.9,1.561
		l-0.69,1.92l1.42,1.74l-0.98,1.27l2.12,3.24l-3.46,3.13l0.56,3.1l1.74,0.33l0.84-1.899l6.71,2.67l4.45,0.25l-0.79-2.34l0.64-1.79
		l1.88,1.85l1.3-2.14l0.97,0.899l4.28-1.819l1.15,0.43l1.32-0.43l1.6-1.94l2.37,1.63l-0.94,1.04l0.76,0.8l-2.17,3.48l1.37,2.09
		l0.41,2.39l-1.83,2.82l-2.21,1.58l-0.38,1.63l-1.09,0.51l0.02,2.551l0,0l-3.42,3.31l-4.92-0.54l-3.12,1.11l-2.09-1.08l-0.49,1.54
		l-3.02,0.47l-1.16-0.77l-1.33,0.75l-0.93,1.46l0.64,1.1l-1.23,1.39l-0.07,4.591l-0.27-0.521l-0.49,0.72l0.48,0.15l-1.25,0.99
		l-3.06-0.41l-1.63,2.18l2.1,3.351l-0.96,0.14l0.7,3.13l-1.75,2.05l0.83,1.67l-0.58,4.061l0.22,2.18l3.06,0.71l3.23,2.271l0.9,2.409
		l2.09,1.221l-0.21,1.58l-5.89-0.87l-5.87,1.62l-1.32,3.88l-6.57,4.1l-5.05,0.78l-5.28-1.271l-2.84,0.131l-4.8,1.96l-4.7-1.96
		l-3.84,1.85L193.36,336l-6.93-1.69l-5.73,0.12L170.23,332l-4.73-0.02l-2.88,1.619l-3.32-1.79l-2.74,2.07l-5.19,0.811l-4.14-1.061
		l-7.79,1.09l-2.3-1.47l-5.7-1.29l-1.76-2.04l0,0l1.9-1.8l1.05-4.71l1.93-0.05l2.3,1.239l0.87-1.899l2.89-1.9l-0.03-4.33l1.16-2.34
		l2.35-0.79l1.85-2.78l3.04-1.76l1.39-1.7l-2.48-2.46l1.18-2.05l-0.65-3.96l0.76-3.97l-1.27-2.37l-0.17-3.14l1.57-1.21l-0.42-2.46
		l-4.03-2.23l1.15-1.53l-0.72-1.229l-2.74,2.09l-1.14-0.21l-0.46-2.18l1.27-3.141l-0.15-2.14l-2.95-3.41l-3.97-2.47l2.54-1.851
		l1.42-0.05l0.86,1.26l0.86,0.03l1.44-1.78l-1.89-3.739l3.3-0.08l1.18,1.069l0.47-1.069l3.45-2.25l-0.09-3.12l-2.89-0.92l-1.21-1.98
		l0.35-1.09l0.99,0.59l1.24-0.8l-0.7-1.68l1.66-2.67l-0.61-1.4l-2.31-0.24l-0.74-1.49l1.47-1.189l0.29-4.16l1.17-0.91l-0.46-2.1
		l1.63-1.26l-0.45-0.681l1.03-0.54l3.01-5.319l1.66-4.801l1.13-1.81l1.59-0.03l-0.31-0.97l1.27-1.9l-6.03-6.68l-4.45-1.53
		l-1.18-0.68l-0.1-1.04l1.85-1.46l0.99-5.2l1.94-2.33l0.63-2.489l2.89,1.569l2.98-0.24l-0.28-1.09l1.33-0.109l1.34-1.23
		L159.61,194.61z"/>
	<path id="SK-PV" fill="#1E3250" stroke="#1E3250" stroke-width="0.5" d="M515.221,59.69l4.309-0.28l2.721,2.979l3.311-0.18
		l3.309,3.4l4.451-0.341l1.891-2.52l2.818,1.9l-0.068-1.29l1.279-1.53l2.189,0.32l1.5-1.33l2.621,1.26l4.479-2.34l1.221,2.77
		l1.59,1.221l0.029,1.05l2.451,0.979l1.93-1.29l2.33,1.08l0.5,2.26l0.949-0.04l2.99,2.511l0.48,2.92l0.961,1.46l1.328,0.39
		l-0.139-2.27l0.93-1.65l3.051-1.95l1.658-0.109l1.941,3.609l1.41-0.64l1.199,0.36l2.109,3.35l1.541-0.54l1.449,1.21l3.32-0.31
		l2.41,6.109l5.109,4.95l-0.1,2.72l1.221,1.221l-1.01,4.88l1.648,1.35l10.121,2.87l0.189,1.271l4.74,2.75l2.199-1.641l1.471,0.24
		l1.121,2.09l-0.891,2.86l2.4,0.149l7.469,2.681l1.641-1.69l3.59,0.25l2.291,2.65l0.199,1.41l3.359,3.289l3.701-0.689l3.889,2.77
		l5.191-1.38l2.51,1.44l-1.35,1.399l-0.23,8.021l-1.41,1.189l0.869,2.341l-2.639,1.6l-2.07-0.479l-2.471,1.199l-0.49,2.58
		l-5.289,7.63l0.689,1.38l-1.119,5.711l-2.551,1.46l-1.301,1.939l0,0l-5.889-1.57l-2.201,0.891l-5.129,0.18l-2.34-8.21l-4.551-1.24
		l-3.09,3.141l-0.949,2.17l-2.791,1.68l-0.15,6.26l-6.17-0.109l-7.969,1l-0.75-1.4l-3.67-0.39l-1.861-3.13l-2.84-1.94l-5.4-2.1
		l-3.879,0.6l-1.09-2.01l-1.73-0.21l-1.1,0.779l-0.371,2.23l0.691,9.97l1.119,1.681l-0.199,1.729l-4.021,2.36l-0.568,2.479
		l-0.01-0.75l-0.98-0.1l-4.211,2.31l-2.43,0.38l-2.84-3.06l-4.221,1.3l-2.26-1.35l-1.949,0.06l-0.65-1.689l-3.789-0.99l-1.301-2.23
		l0.221-1.79l-0.891-1.779l-2.801-2.351l-0.16-1.42l1.031-1.17l-1.891-1.02l-0.07-2.91l-3.1,1.62l-0.6,1.05l-2.221-0.4l-1.18-3.609
		l-0.32,3.529l-2.08-1.909l-1.689,0.43l0.051,5.04l-1.311,2.16l-5.871,0.55l-1.459,1.31l0.1,1.83l-1.99,0.891l-3.73-3.04l1.63-5.57
		l-0.539-1.76l-2.181,0.939l0.061-1.81l-1.341-0.05l-0.289,0.939l-2.671-1.569l-1.989,2.1l-1.601-1.49l-0.95-2.46l-2.579-1.31
		l-1.391,1.359l-10.53-1.699l-0.439-2.82l-1.57-0.92l-2.41-4.021l-3.06,2.3l-1.76-2.84l-1.75-1.279l-2.36-0.631l-5.79,1.83
		l-2.62-1.52l2.05-2.08l-2.92,1.12l-4.68-2.53l-0.54,0.44l1.88,4.64l-1.87,0.73l-1.04-1.641l-2.18,1.65l-1.74-2.18l-3.27,1.1
		l-0.45,1.939l-1.21,1.04l0.04,3.29l-3.08-1.819l-3.63-5.771l-3.67,0.931l-2.47-1.33l-4.07-5.53l-2.93,3.71l3.45,4.4l-1.67-0.051
		l-7.07-5.27l-3.58-1.48l-1.6,2.03l-5.36,2.87l-3.59,3.729l1.45,2.66l-1.57,1.42l-0.04,4.11l-0.76,1.14l0.33,3.2l-1.49,0.41
		l-1.78-1.44l0,0l-1.48-0.47l-2.79-3.08l-2.85-0.189l-2.2-2.061l-1.53,2.59l-1.94,1.33l-8.93-1.3l-1.22-1.53l-5.28-0.489l0,0
		l0.43-1.09l3.28-0.641l2.29-1.99l-2.23-0.56l-1.61-4.58l0.52-1.35l-1.45-0.96l-1.15-2.75l-3.65-2.61l0.33-0.88l1.85,0.63l3.27-1.43
		l0.89-8.551l1.59-6.13l-1.41-0.859l-1.34,0.83l-3.82-0.221l-0.99-1.93l-0.74,1.46l-1.66-2.62l-1.7,0.12l-0.3-1.17l-2.91,0.71
		l1.04-4.05l-3.85-7.021l0,0l3.06-2.88l0.23-2.58l2.13-0.939l2.36,0.21l4.27,0.55l2.42,2.12l-0.11,0.96l1.41,1.68l5.34,3.55
		l1.7,0.04l0.12-4.239l1.58-2.61l-0.63-2.38l3.19-6.03l0.37-3.53l2.01-3.26l1.4,1.83l1.58-1.54l-0.44-2.14l1.32-0.09l1.01-2.21
		l3.02-1.801l1.04,1.07l1.19-0.84l2.77,0.61l1.35-0.79l3.61,1.229l0.72-0.85l0.18-4.681l0.83-1.96l-1.69,0.11l0.75-2.01l1.35-0.34
		l2.84,0.829l1.21-1.52l0.77,2.57l1.19,0.21l1.96-0.75l0.77-1.88l1.58,1.72l-0.16-3.37l1.66,0.9l-0.03-0.561l2.66-0.08l3.59,1.931
		l0.52,1.819l7.04,2.66l0.59-1.05l1.06,0.18l1.07-1.069l1.73-4.881l3.35,2.801l5.15-3.24l3.229,1.09l1.48-0.32l0.3,2.09l1.52,0.721
		l-1,1.31l1.29,1.181l-0.06,2.14l2.67-0.57l-0.15,2.01l1.761-0.149l1.1,0.82l-0.39,0.729l-0.73-0.979l-0.2,2.569l1.69-0.56
		l1.45,2.08l1.05,0.05l1.91-2.08l1.02-0.1l2.061,3.09l-1.03,1.359l3.189-1.13l0.86,3.09l1.91,1.71l3.479-1.84l3.03,0.08l0.601-0.819
		L481.32,79.3l2.021-1.03l0.449-1.949l3.24-2.94l1.5,0.46l1.12-0.52l0.82,0.93l2-0.9l1.2-1.729l-3.7-3.21l0.01-1.03l-1.66-0.59
		l-0.609-1.88l0.449-0.72l4.7-1.41l1.74,1l1.3-1.931l2.85,1.391l2.931,2.91l0.13,1.119l2.95-0.039l1.97-2.351l-0.35-1.46l1.04-1.86
		l0.819,0.41l2.601-2.149l0.64-2L515.221,59.69z"/>
	<path id="SK-TA" fill="#1E3250" stroke="#1E3250" stroke-width="0.5" d="M76.48,153.55L85,155.86l3.03,2.949l1.65-0.46l0.57,1.41
		l3.86,3.54l1.52-0.859l2.15,0.779l0,0l-0.79,3.391l-3.83,1.989l-0.13,0.99l1.67,1.34l1.65-0.149l3.59-2.811l0.33,1.99l4.54,1.74
		l1.25,2.42l1.4,0.47l0.06,3.15l-1.51,0.529l-0.99,2.921l0.6,2.819l0.99,0.16l0.9,3.47l3.49,6.33l0.74-0.819l1.11,0.479l0.28-1.14
		l2.34-2.05l1.92,0.859l4.53-0.899l-0.71-1.841l0.36-1.439l0.78-0.03l0.59,1.101l1.84,0.14l-0.12-0.88l3.99-2.521l0.77,0.16
		l0.8-1.09l2.35,1.84l2.12,3.23l4.42,2.13l4.05-0.11l0.22-2.29l1.64,0.16l0.98,3.11l0.72-0.9l0.22,1l0.54-1.05l1.14,1.55l7.41,1.17
		l1.61,1.42l1.97-0.649l0,0l-0.19,2.979l-1.34,1.23l-1.33,0.109l0.28,1.09l-2.98,0.24l-2.89-1.569l-0.63,2.489l-1.94,2.33l-0.99,5.2
		l-1.85,1.46l0.1,1.04l1.18,0.68l4.45,1.53l6.03,6.68l-1.27,1.9l0.31,0.97l-1.59,0.03l-1.13,1.81l-1.66,4.801l-3.01,5.319
		l-1.03,0.54l0.45,0.681l-1.63,1.26l0.46,2.1l-1.17,0.91l-0.29,4.16l-1.47,1.189l0.74,1.49l2.31,0.24l0.61,1.4l-1.66,2.67l0.7,1.68
		l-1.24,0.8l-0.99-0.59l-0.35,1.09l1.21,1.98l2.89,0.92l0.09,3.12l-3.45,2.25l-0.47,1.069l-1.18-1.069l-3.3,0.08l1.89,3.739
		l-1.44,1.78l-0.86-0.03l-0.86-1.26l-1.42,0.05l-2.54,1.851l3.97,2.47l2.95,3.41l0.15,2.14l-1.27,3.141l0.46,2.18l1.14,0.21
		l2.74-2.09l0.72,1.229l-1.15,1.53l4.03,2.23l0.42,2.46l-1.57,1.21l0.17,3.14l1.27,2.37l-0.76,3.97l0.65,3.96l-1.18,2.05l2.48,2.46
		l-1.39,1.7l-3.04,1.76l-1.85,2.78l-2.35,0.79l-1.16,2.34l0.03,4.33l-2.89,1.9l-0.87,1.899l-2.3-1.239l-1.93,0.05l-1.05,4.71
		l-1.9,1.8l0,0l-6.44-4.939l-2.78-3.36l-3.65,1.08l-1.06-0.41l-2.39-5.38l-1.94-2.33l-2.69-0.24l-4.54-2.52l-3.1-6.69l-9.98-10.77
		l-6.8-0.24l-1.84-0.78l-0.61-1.99l0,0l1.16-1.22l-0.11-1.05l0.98-0.04l1.54-2.08l2.7-1.37l-0.8-2.82l1.55,0.83l2.07-0.3l0.49-3.05
		l1.48-0.3l-1.19-1.391l-1.09,1.311l-2.08-0.84l-0.8-1.521l0.03-2.96l1.86,0.65l2.28-0.75l2.88-2.26l1.13,0.29l1.11-1.921
		l-1.09-0.609l-0.46-1.72l1.29-1.15l1.95,0.64l-0.09,2.3l1.66,0.08l1.91,1.29l2.94-1.05l1.92-2.92l1.77-0.07l0.34-0.84l1.89-0.74
		l-0.1-2.569l-1.37-1.271l1.27-2.89l-4.98-2.18l0.98-3.74l3.48-4.38l-1.34-1.53l-1.59,0.7l-2.34-2.7l-1.11-0.11l0.59-1.609
		l-1.11-1.13l1.24-0.551l1.56-4l-0.62-2.43l-1.88-1.78l-1.72,0.67l-0.58-0.739l-1.41-4.95l-1.44-0.64l0.05-1.33l-1.7-0.24l0.53-3.07
		l-3.32-0.03l-1.74-1.89l-2.81-0.13l-1.5-1.75l0.94-2.82l1.91-0.66l1.51-3.52l-1.94-0.92l-0.07-1.41l-2.17-0.34l-0.45-1.98
		l-3.36-2.39l0.33-1.01l3.94-2.71l0.74-2.65l2.05-0.16l1.3-2.06l1.71-1.03l0.17-2.609l-1.36-2.69l-3-1.97l-6.83,10.1l-2.46,1.55
		l-0.52,1.811l-12.46,3.51l-0.96-0.26l-0.71-1.41l-2.06,1.16l-3.95-2.38l1.02,2.58l-1.78-0.671l-3.39,1.4l-3.29,0.37l-0.21,1.72
		l-2.98-0.02l0,0l-0.35-1.54l0.93-0.53l-1.76-3.8l0.71-0.42l-0.57-0.49l-0.25-4.12l0.71-0.68l0.05-2.061l1.48-0.899l1.69-3.01
		l-0.79-0.54l1.13-0.21l-0.61-0.671l0.06-2.71l4.27-4.27l-1.22-1.44l0.18-0.979l1.44-1.44l0.14-1.59l2.76-3.81l0.41-1.971l4.83-3.31
		l0.22-1.69l1.53-1.63l0.46-3.67l4.66-2.41L76.48,153.55z"/>
	<path id="SK-TC" fill="#1E3250" stroke="#1E3250" stroke-width="0.5" d="M197.01,81.4l5.35-0.11l-0.07,2.17l5.47,7.31l-0.1,1.73
		l1.56,1.65l0.72,4.3l1.82,1.319l0.31,2.28l4.74,3.8l3.28,1.33l0.1,1.641l3.25,1.109l0.27,2.78l1.44,1.37l-0.85,1.84l-2.69,2.561
		l3.35,1.14l1.57,2.49l-0.78,3l0.34,3.87l-1.21,0.689l-2.26,3.64l-3.91,0.971l-2.24,1.45l-1.18,2.88l-3.75,1.12v1.14l1.41,1.54
		l5.22,0.479l1.48-1.359l2.18-0.521l1.48-3.16l1.38-0.449l-0.2,1.069l0.83,1.08l3.9-0.899l4.56,1.42l2.43-0.561l2.37,3.01
		l-2.52,4.461l1.7,2.409l-1.4,2.83l0.52,0.65l-0.31,4.64l3.51,2.62l2.12,0.65l0.17,1.26l2.82,1.12l-0.1,3.34l3.32,3.49l0.58,1.79
		l0.99,0.29l0.21,2.41l0,0l-3.3,6.68l-1.43,0.97l-1.72-0.57l-1.21,0.99l-1.09,4.771l-2.86,2.319l0.31,3.46l-6.72-2.119l-5.81,7.88
		l-0.34,2.87l-2.29,1.079l-8.54-0.71l-0.5,3.65l0,0l-1.95,0.1l-2.9,2.71l-2.86,1.341l-5.2,4.409l-0.45,1.561l-1.69-2.57l-1.15,1.771
		l-3.17-0.96l-1.19-3.54l-3.55-5.061l-1.17-0.93l-3.5-0.47l0.87-2.011l-1.64-1.35l2.42-2.34l0.31-1.88l-2.59-5.75l-3.96-1.261
		l-1.42,0.78l-1.66-1.609l-1.37-4.32l-3.55-3.24l-1.46,0.51l-1.93-1.109l-4.97,0.109l-1.2-1.449l-1.33,0.13l-1.43,1.47l0.51,3.479
		l2.35,4.29l0.05,2.54l-1.48,2.19l-0.81-0.16l-2.01,1.48l0,0l-1.97,0.649l-1.61-1.42l-7.41-1.17l-1.14-1.55l-0.54,1.05l-0.22-1
		l-0.72,0.9l-0.98-3.11l-1.64-0.16l-0.22,2.29l-4.05,0.11l-4.42-2.13l-2.12-3.23l-2.35-1.84l-0.8,1.09l-0.77-0.16l-3.99,2.521
		l0.12,0.88l-1.84-0.14l-0.59-1.101l-0.78,0.03l-0.36,1.439l0.71,1.841l-4.53,0.899l-1.92-0.859l-2.34,2.05l-0.28,1.14l-1.11-0.479
		L111,193.97l-3.49-6.33l-0.9-3.47l-0.99-0.16l-0.6-2.819l0.99-2.921l1.51-0.529l-0.06-3.15l-1.4-0.47l-1.25-2.42l-4.54-1.74
		l-0.33-1.99l-3.59,2.811l-1.65,0.149l-1.67-1.34l0.13-0.99l3.83-1.989l0.79-3.391l0,0l2.14-2.12l1.16,0.17l0.68-1.989l0.95,0.27
		l1.04-1.39l2.73,0.91l4.91,4.31l1.46-0.81l1.06,0.3l1.54-1.23l3.03-0.199l0.85-2.23l2.08-0.32l1.5-2.17l7.59-0.92l3.54-3.56
		l2.17-3.601l2.39-1.649l0.34-1.57l6.98-0.47l2.07,0.75l1.66-0.851l2.98-10.71l0.12-2.63l1.31-1.399l1.06-0.74l4.32,0.17l1.4-0.76
		l3.91,0.64l4.88-2.39l3.07-3.59l-0.09-1.41l1.97-4.23l-0.5-3.479l1.08-0.681l-1.18-2.489l0.73-2.78l1.94-1.65l-0.53-4.26l2.58-4.78
		l0.07-1.93l-1.04-0.51l0.11-2.46l4.13-4l-0.03-2.53l8.58-1.61L197.01,81.4z"/>
	<path id="SK-ZI" fill="#1E3250" stroke="#1E3250" stroke-width="0.5" d="M318.71,32.53l1.03,1.46l-0.58,1.41L320,36.59l5.58,2.82
		l-0.06,5.609l2.37,4.771l0.23,3.04l3.29,5.75l1.5-0.35l1.62,1.56l3.03-1.61l-0.33,2.48l1.2,1.14l-2.01,4.42l5.99,0.9l3.36,2.67
		l3.42-3.72l1.87-0.681l2.49,0.62l0.19,4.9l1.16,2.05l-0.83,3.64l1.4,3.061l-1.42,4.16l1.63,0.949l1.28,2.851l-3.3,1.77l-0.31,2.521
		l-2.38,2.5l0.26,1.56l-0.84,1.88l2.68,2.41l2.13-1.06l1.3,1.17l1-0.521l1.12,0.82l3.52,0.01l0,0l3.85,7.021l-1.04,4.05l2.91-0.71
		l0.3,1.17l1.7-0.12l1.66,2.62l0.74-1.46l0.99,1.93l3.82,0.221l1.34-0.83l1.41,0.859l-1.59,6.13l-0.89,8.551l-3.27,1.43l-1.85-0.63
		l-0.33,0.88l3.65,2.61l1.15,2.75l1.45,0.96l-0.52,1.35l1.61,4.58l2.23,0.56l-2.29,1.99l-3.28,0.641l-0.43,1.09l0,0l-1.91-1.98
		l-2.54,1.43l-8.11-0.369l-4.77,0.659l-1.74-1.29l-2.36-0.09l-5.34,2.601l-1.52-1.8l-4.78,1.75h-3.04l-8.14-6.11L326,141.4
		l-1.51,1.04l-3.09-0.41l-5.29,2.37h-6.74l-5.07,5.85l-2.08,4.51l-6.92,1.101l-0.21-0.61l1.61-1.36l-0.07-2.229l-0.63-1.57
		l-2.04-0.939l-3.67,1.029l-1.97,1.91l-1.41-0.52l-1.33,0.729l-8.82,0.26l-2.79-1l-1.85,0.82l-0.79,2.87l-1.35,1.71l-2.27,0.2
		l0.84,3.7l-0.77,3.06l2.96,3.07l-0.47,3.63l-2.5,2.939l-2.84,0.37l-2.41-0.649l-2.45,1.04l-1.12-1.07l-1.84-0.27l0.07-1.25
		l-1.62-1.75l-5.37,4.5l0,0l-0.21-2.41l-0.99-0.29l-0.58-1.79l-3.32-3.49l0.1-3.34l-2.82-1.12l-0.17-1.26l-2.12-0.65l-3.51-2.62
		l0.31-4.64l-0.52-0.65l1.4-2.83l-1.7-2.409l2.52-4.461l-2.37-3.01l-2.43,0.561l-4.56-1.42l-3.9,0.899l-0.83-1.08l0.2-1.069
		l-1.38,0.449l-1.48,3.16l-2.18,0.521l-1.48,1.359l-5.22-0.479l-1.41-1.54v-1.14l3.75-1.12l1.18-2.88l2.24-1.45l3.91-0.971
		l2.26-3.64l1.21-0.689l-0.34-3.87l0.78-3l-1.57-2.49l-3.35-1.14l2.69-2.561l0.85-1.84l-1.44-1.37l-0.27-2.78l-3.25-1.109
		l-0.1-1.641l-3.28-1.33l-4.74-3.8l-0.31-2.28l-1.82-1.319l-0.72-4.3l-1.56-1.65l0.1-1.73l-5.47-7.31l0.07-2.17l-5.35,0.11l0,0
		l4.23-1.29l2.59-3.591l1.46-0.8l-0.51-0.88l1.78-2.42l-1.15-4.35l0.7-0.57l2.83,1.43l4.03-2.779l1.69-4.41l1.17-0.17l0.33-1.09
		l1.61-0.87l0.27-1.23l2.44-1.77l-1.16-3.98l1.21-1.56l2.26-1.16l3.06-0.33l0.61,1.979l1.74,0.301l6.55-1.92l1.1,1.199l2.25-0.229
		l3.31,2h1.48l2.98-2.87l5.38-2.15l6.81,0.971l4.59-0.771l3.4,2.82l-1.09,3l0.69,1.01l-0.89,3.69l1.4,0.46l1.57,3.35l-0.4,1.59
		l-1.66,1.521l1.14,2.819l1.99-0.56l3.93,0.49l1.24-1.101l0.61-1.939l1.94,0.26l0.38-0.75l1.78,0.21l2.03,1.96l1.27,0.17l1.78-1.34
		l1.33,1.04l2.64-1.47l1.61,0.52l0.79-0.81l-1.06-3.431l1.97-2.449l1.4,0.359l0.7-1.029l0.3-1.431l-0.92-1.64l1.33-2.08l-0.47-0.82
		l0.79-0.68l-0.04-2.58l2.98-3.31l5-0.75l0.97,1.109l4.49-1.03l0.4-2.789l0.92-0.891l-0.18-1.51l3.12-1.16l1.51-3.16l2.99-0.779
		l0.35-2.29L318.71,32.53z"/>
</g>
</svg>
