<?xml version="1.0" encoding="utf-8"?>
<!-- Generator: Adobe Illustrator 15.0.0, SVG Export Plug-In . SVG Version: 6.00 Build 0)  -->
<!DOCTYPE svg PUBLIC "-//W3C//DTD SVG 1.1//EN" "http://www.w3.org/Graphics/SVG/1.1/DTD/svg11.dtd">
<svg version="1.1" id="Layer_1" xmlns:amcharts="http://amcharts.com/ammap"
	 xmlns="http://www.w3.org/2000/svg" xmlns:xlink="http://www.w3.org/1999/xlink" x="0px" y="0px" width="625.585px"
	 height="566.581px" viewBox="0 0 625.585 566.581" enable-background="new 0 0 625.585 566.581" xml:space="preserve">
<defs>
	
	
		<amcharts:ammap  projection="mercator" bottomLatitude="27.636377" leftLongitude="-18.162248" topLatitude="43.793549" rightLongitude="4.332045">
		</amcharts:ammap>
</defs>
<g>
	<path id="ES-AN" fill="#1E3250" stroke="#1E3250" stroke-width="0.5" d="M438.16,248.99l-0.01,0.64l-1.23,0.51l-0.439,1.01
		l-1.721,0.46l-2.189-2.7l-1.48-1.17l-1.33-0.24l-1.63,1.04l-1.35-0.9l0.35,0.36l-0.44-0.32l-2.25,0.65l-1.68,3.23l-0.68,0.73
		l-1.44,0.57l-1.909,0.06l-1.171-0.81l-0.949,0.35l-2.011-1.94L413.15,251l-7.49-0.55l-2.3,0.53l-0.721,0.81l-1.5,0.69l-1.64-0.11
		l-1.26-0.95l0.109,0.23l-0.899,0.12l-1.261-0.99l-1.5-0.09l-0.55,0.58l-1.03-0.11l-0.38,0.46l-0.55-0.62l-0.48,0.27l-1.83-0.84
		l-3.32,0.95l-3.05-0.75l-0.99,0.82l-2.11,0.31l-3.96,0.11l-1.82-0.38l-0.58,0.53l0.04-0.39l-2.68,4.01l-0.6,0.61l-1.92,0.69
		l-0.9,1.82l-2.84,0.77l-2.97-0.73l-1.61,0.02L358,260.4l-2.04,0.29l-2.02,1.19l-0.61-0.03l-1.15,1.33l-0.77,2.24l-1.85,2.64
		l-0.62,2.51l-0.7-0.04l-0.58-0.73l-1.08,0.11l-0.6,1.16l0.46,2.38l-0.92,0.69l-0.59-0.13l-3.3,1.59l-0.99-1.41l-1.16-0.62
		l-0.99,0.21l-1.52-0.93l-0.52,0.33l-1.72-2.25l-1.54-1.3l-3.24,0.08l-1.86-3.46l-1.04-0.39l-1.01-2.36l-1-0.91l-1.97-4.35
		l-0.78-0.16l1.04-0.51l-0.32,0.33l0.35,0.1l0.06-0.32l-0.12,0.42l0.52,1l0.13-0.39l0.08,0.25l0.74-1.3l0.23-0.92l-0.25-0.46
		l-1,0.05l-0.92-1.27l-0.61,0.18l0.28-0.18l-0.5-0.23l0.09,0.48l-0.5-0.53l-0.37,0.36l-0.99-0.64l-1.33-3.52l2.32-1.85l-1.11-0.65
		l-1.29-3.12l-2.24-2.67l-6.37-4.23l-2.78-1.28l-1.89-1.49l0.6,0.96l2.21,1.81l-3.02-2.61l-0.65-0.08l0.39,0.42l-0.34-0.02
		l-2.69-1.23l-7.37,0.57l-0.99,0.79l-0.97-0.38l-0.3-1.66l-0.5-0.67l0.32-0.8l-0.56-1.25l0.03-2.71l-0.62-0.66l0.5-0.32l-0.66-1.73
		l0.17-0.59l-0.57-0.38l-0.21-0.84l-0.54-0.06l-0.33-1.05l0.42-0.2l0.1-1.55l1.36-1.49l0.92-3.74l0.75-0.23l2.54-2.58l0.53-1.92
		l0.71-1.01l-0.09-1.9l1.55-0.7l1.97-0.01l0.11-0.89l0.67-0.48l1.1,0.84l1.47-0.13l0.57-2.79l0.94-1.72l-0.38-0.21l0.03-0.51
		l0.92-1.15l0,0l2.32,1.04l1.38-0.04l-0.44,2.28l1.05-0.02l0.03,0.43l0.63,0.27l0.72-0.31l1.94,0.35l0.56-0.27l0.69,0.73l0,0
		l0.43,0.52l0,0l0.12,1.33l0.66-0.2l0,0h0.32l0,0l1.94,0.75l0.31-0.21l-0.16-0.61l0.73-0.58l-0.25-0.32l1.03-0.1l1.24,0.32
		l0.28,1.15l0.74,0.63l0,0l0.13,0.05l0,0l0.62,0.63l1.4,0.25l0.37,0.41l1.03-0.1l0.56,0.74l1.77-1.51l1.78-0.46l2.67,0.09l0.49-1.78
		l0.71-0.72l-0.57-0.73l0.08-0.58l1.24-0.93l0.08-0.79l0.71-0.56l1.41-0.1l0.49-0.38l0.69,0.17l0.78-0.56l1.13,0.53l0.04,0.73
		l-0.26-0.36l-0.31,0.17l0.26,0.54l-1.24,0.79l0.19,1.39l0.77,0.23l1.93-1.93l1.42,0.22l0.19-0.64l1.03-0.44l-0.15-0.77l0.35-0.66
		l0,0l0.1-0.05l0,0l0.04-2l-1.3-2.28l0.44-1.28l-0.74-0.71l0.03-0.55l1.01-1.66l0.72-0.46h0.96l0.13-0.72l1.85-1.25l0,0l-0.11-0.26
		l0,0l0.39-0.67l0.47,0.26l-0.22-0.5l0.62-1.03l1.7,0.17l-0.09-0.51l0.52-0.64l0.97-0.5l0.88-1.1l0.25,0.26l0.15-0.63l0.22,0.38
		l0.1-0.35l0.33,0.27l-0.01-0.53l0.47-0.06l0,0l0.04-0.08l0,0l-0.46-1.34l2.35,0.36l1.4-0.77l0,0l0.99,0.43l0.21,0.78l1.57,0.43
		l1.88-0.08l0.51,2.45l4.1,1.41l0.12,0.67l1.02,0.17l1.18,0.89l0.78,1.27l0.22-0.28L370,191l0.2,0.5l0.48-0.18l2.39,2.81l4.49,2
		l0.49-0.13l-0.25-1.13l0.37-0.69l3.64,0.72l5.87,0.38l1.61-0.2l0.67-0.63l0.19-0.79l0.67-0.2l0,0l0.5-0.16l0,0l1.14,0.39l0.27-0.35
		l3.12,1.06l0.73-0.38l0.16-1.5l0.38-0.07l0.85,0.31l0.21,1.12l1.641,0.38l1.2-0.3l1.31-1.18l-0.04-0.68l0,0l0.11-0.31l0,0
		l1.31-0.42l0,0l0.15,0.07l0,0l1.21,0.74l3.8,0.64l1.93-1.33l1.74,2.39l0.229-1.48l0.75-0.63l1.66,0.01l0.631,0.57l0.539-0.8
		l0.631-0.34l0.21,0.26v-0.34l1.06-0.51l0.11-0.43l0.2,0.17l0.289-0.77l2.58,1.27l1.79-0.62l0,0h0.25l0,0l0.86,0.78l-0.11,2.64
		l2.44,0.62l-0.061,3.28l1.19,0.55l0.16,0.72l-0.5,1.68l0.2,1.08l-2.91,3.53l0.75,0.44l0,0h0.35l0,0l2.49,1.32l2.22,0.2l0,0
		l1.11,0.78l1.25,2.23l2.189,1.7l1.311-0.41l1.07,0.94l0.6-0.35l1.11,0.51l0.439-0.39l0.49,0.21l0,0l0.17-0.01l0,0l0.2,0.26
		l-0.57,0.79l-0.37,2.29l0.37,1.65l-0.47,0.92l0.3,1.64l0,0l0.18,0.19l0,0l4.08,6.6l0.98,0.72l-0.04-0.62l2.05,0.37l2.96,2.32l0,0
		l-1.34,0.7l-0.88,1.64l-2.49,2.7l-1.34,5.33l-1.4,2.71l0.13,1.37l-0.29,0.42h-0.909l-0.721,1.26l-0.63,0.13l-0.35,0.47l0.109,1.39
		l-1.069,0.51L438.16,248.99z"/>
	<path id="ES-AR" fill="#1E3250" stroke="#1E3250" stroke-width="0.5" d="M443.97,66.05l0.28,0.55l1.87-0.03l1.43,1.39l1.7-0.31
		l2.62,1.83l0,0l0.66,0.13l0,0l0.52-0.16l0,0l0.32-0.3l0,0l2.51,0.15l0.76-0.9l-0.09-0.49l1.19-2.2l0.93-0.93l-0.16-1.1l0,0
		l-0.279,0.03l0,0l-0.841-0.02L457,62.47l-0.88-0.729l0.189-1.99l-0.68-1.44l0.7-1.97l-0.2-0.66l1.89-2.29l-0.14-0.6l-0.66-0.27
		l0.49-1.68l1.76-1.87l-0.33-1.78l0.641-1.24l0.96,0.53l0.569-0.25l0,0h0.141l0,0l0.04-1.07l1.18-0.79l-0.56-0.46l0.6,0.02
		l0.12-1.36l3.06,0.04l0.011-1.62l0.38-0.35l1.54-0.11l1.26-1.48l0.61,0.01l0.01-0.64l0.97-0.08l0.46-0.89L470.8,37l0.11-1.76
		l1-0.79l0.08-1.26l0.939-0.71l1.57,0.07l0,0l-0.23,0.85l0.961,0.65l0.5-0.22l0.56,0.89l1.49,1.08l0.04,0.93l0.899-0.01l0.03,0.91
		l0.42,0.16l0.23-0.56l0.43-0.02l0.06-0.65l0.61-0.61l1.68,1.21l0.86-0.46l0.7,0.23l1-1.33l0.59,0.11l0.34-0.56l1.49,1.06l0.41-0.08
		l0.13,0.53l1.38,0.8l0.74-0.41l1.479,2.86l1.01,0.11l0.19,0.83l1.26,0.37l0.65-0.16l0.17-0.44l0.97,0.19l0.74-0.68l0.979,0.15
		l1.32-0.46l0.391-0.52l2.27,0.78l0.11,0.83l0.83,0.73l0.72-0.36l0.12-0.79l0.95-0.72L505.68,41l1.54-0.34l1.04,0.31l0.29-0.42
		l1.61,0.29l0.28-0.39l1.739,0.53l0,0l0.11,0.26l0,0l0.22,0.14l0,0l0.61,0.82l0.27,1.34l1.681,0.42l-0.69,2.45l0.25,0.38l-0.43-0.19
		l-0.36,0.45l-0.04,0.52l0.53,0.28l-0.68,0.66l-0.341-0.26l-0.3,0.32l1.48,3.7l-0.62,0.69l1.28,0.52l-0.811,0.55l0.65,0.55
		l-1.681,4.88l-0.119,0.6l0.46,0.32l-0.57,0.48l0.24,1.23l-0.87,2.59l-0.391,0.24v1.51l-0.329,0.62l-0.12-0.39l-0.54,0.18
		l-0.351,0.99l-0.489-0.21l-0.671,1.05l1.21,0.66l-0.31,0.07l-0.09,1.14l0.399,0.51l-0.72,0.31l-0.02,0.42l-0.66-0.03l-0.33,1.15
		l-0.81-0.02l-0.83,0.76l-0.42,1.29l-1.87,0.25l-0.091,0.93l-0.31-0.29l-1.58,2.21l-0.04,0.68l0.87,1.05l-0.21,1.16l1.42,0.24
		l0.71-0.33l0.53,2.14l-1.36,1.89l-1.51,0.21l0.34,1.21l-0.939,2.01l1.439,1.51l-0.7,0.89l0.57,0.43l-0.11,0.52l0.591,0.94
		l-0.211,1.51l-0.39-0.05l-0.05,0.47l-1.14,0.06l-0.721,2.37l-1.12,0.27l-0.17,0.7l-0.899-0.26l-0.34,0.4l0.01,1.43l0.51,0.09
		l0.3,0.97l-0.34,0.46l0.37-0.18l-0.01,0.45l0.37-0.21l0.89,0.72l-0.49,0.189l0.601,1.21l0,0l-0.051,0.28l0,0l0.341,0.22
		l-1.091,1.82l0,0l0.03,0.2l0,0l-0.39,1.07l1.04,2.23l-1.19,1.21l-0.14,0.7l-1.431,0.44l-0.05,0.48l-0.39-0.31l0.25,0.57l0,0
		l-0.62,0.52l-1.06-0.29l-1.841,1.27l0,0l-0.319-0.11l0,0l-0.32-1.01l0,0l-0.01-0.11l0,0l-0.54-0.17l0,0l-0.54,0.03l0,0l-1.09,0.09
		l-1.23-0.58l-0.97-0.86l-0.021-0.62l-1.409,0.05l-0.94,1.54l-0.16,1.77l-1.93,1.1l-0.61-0.69l-1.33,0.5l0.261,1.87l1.239,0.37
		l0.841-0.25l-0.19,3.41l0.65,0.56l0.119,0.8l-1.68,0.68l-0.35,0.54l1.63,1.95l0.149,0.79l-1.59,0.91l-0.739,1.23l-0.631-0.03
		l-0.3,0.41l0.47,1.08l-1.18,0.72l-1.8,0.55l-1.39-0.84l-0.95,4.05l-0.83,0.39l-0.5,0.82l0.36,1.16l-0.44-0.13l-1.37,1.06
		l-1.97-0.06l-0.73,1.84l-1.47,0.59l-0.05,1.89l1.12,1.5l-2.03,1.2l-1.15-0.87l0.301-0.63l-0.341-0.98l0.24-0.76l-0.439-0.89
		l-0.32,0.28l-1.51-0.85l-2.271,0.08l-0.55,0.38l-0.65-0.14l-0.22,0.37l-0.47-0.33l0,0l-0.63-1.45l0,0l2.22-0.91l0.33-0.47
		l-0.17-0.69l-1.91-1.54l-2.65-0.13v-1.02l-0.81-0.5l-0.44-1.05l0,0l-0.17-0.43l0,0l-0.029-0.32l-0.54,0.46l0.01,1.78l-0.45,0.2l0,0
		l-0.49,0.43l0,0l-0.62-0.3l-0.489,0.2l0,0l-0.301-0.18l0,0l-1.279-0.18l0,0l0.29-1.9l-0.96,0.41l-0.95-0.64l-0.87,0.45l-4.03-4.27
		l-0.81,1.16l-0.24-0.87l0.25-0.57l0.61-0.05l-0.66-0.76l0,0l-0.16-0.09l0,0l-1.33-1.68l-0.729-0.29l0.029-0.38l0.221-0.32
		l0.239,0.22l1.091-1.92l1.409-0.79l-0.25-1.68l0.24-1.44l0.53-0.56l2.04,1.05l1.42-1.22l-0.48-0.63l0.75-2.58l-0.659-1.84
		l0.539-0.75l0.07-1.26l-0.479-1.24l-0.45-0.09l-1.3-1.7l0.34-1.72l0,0l-0.25-0.58l0,0l-0.86-0.76l0,0l-0.31-0.49l0,0l-3.86-4
		l-1.4-0.47l-1.279-1.22l0,0l-0.34,0.1l0,0l-1.33-1.39l-2.54,0.85l0,0l-0.74-0.9l-1.771-0.44l-0.789-3.78l0.55-1.57l-0.17-0.74
		l1.05-0.61l0.64-2.69l1.76,0.65l-0.22,1.14l0.4,0.43l2.45-0.83l0.029-0.49l-0.46-0.13l0.05-1.35l-0.75-0.89l0.391-2.15l-0.76-1.25
		l0.05-0.72l1.859,0.03l0.74-1.27l0,0l0.24-0.14l0,0l0.37-0.021l0.43-0.84l1.38-0.08l-0.09-0.85l1-1.37l-0.91-0.44l0.12-0.62
		l-1.37-1.29l0.92-1.37l0.04-0.96l-1-1.86l-0.05-2.3l0,0L443.97,66.05z"/>
	<path id="ES-AS" fill="#1E3250" stroke="#1E3250" stroke-width="0.5" d="M335.23,5.06l0.33,0.63l1.35,0.44l-0.23,0.53l0.59,0.36
		l0.3,0.88l2.14,0.43l-0.42,0.37l-0.22-0.24l0.13,0.63l0.34-0.27l-0.32,0.53l0.64,0.08l0.23-0.33l0.47,0.29l0.77-0.59l0.69,0.38
		L344.07,9l0.61,0.31l2.39-0.4l0.51,0.93l0.44-0.34l2.11,0.16l2.16,2.3l2.5-0.39l3,0.98l2.38-0.15l1.41,0.72l0.96-0.12l0.1,0.47
		l0.6-0.22l3.18,1.18l2.08,0.46l2.9,0.05l0,0l0.03,0.49l-0.75,0.9l0.59,1.63l-0.14,1.27l-0.71,0.36l-0.12-0.66l-1.44-0.5l-0.71,1.2
		l-2.62,0.39l0.27,0.84l-0.48,1.74l-1.1-0.19l-0.89,0.38l0,0l-0.14-0.07l0,0l-0.61,0.08l0,0l-0.83-1.64l-1.15-0.39l-1.44,0.97
		l-0.87,1.39l-0.67-0.41l-1.46,0.13l-0.72,2.92l-1.04-0.04l-0.21-0.42l-1.61,0.79l0,0l-0.08,0.18l0,0l-3.14,0.36l-0.52-0.58
		l-0.68-0.02l-0.42,0.31l-0.19,1.37l-2.41-0.2l-0.38,1.25l-3.85-0.49l-1.51-0.86l-1.02,0.57l-1.07,2.06l0.08,0.6l-1.16,0.25
		l-0.99,0.03l-0.54-0.65l-0.76,0.02l0.08-0.5l-0.72,0.04l-1.18-1.01l-0.47-1.69l-1.26,0.37l-1.64-0.75l-0.47,1.63l-1.08,0.44
		l-1.08-1.02l-1.03,0.02l-0.35,1.37l-1.01-0.26l-0.55-0.71l-0.3,0.34l-0.85-0.18l-0.11-0.52l-0.74-0.5l-0.39,0.66l-0.64,0.12
		l0.11,0.65l-0.5,0.11l-0.33,1.1l-0.38-0.16l-0.24,0.42l-0.7-0.37l0,0l-0.18,0.01l0,0l0.13,0.93l1.04,0.13l-0.01,0.86l-1.15,0.24
		l-0.35,0.51l-0.59-0.3l-0.88,0.55l-1.86-0.44l-2.08,0.1l-0.95,0.2l-1.02,1.3l-0.36-0.04l0.05-0.6l-1.39-0.58l0,0l-0.46-0.46
		l0.14-1.16l-0.94-1.13l-1.02-0.03l-1.27-1.72l-0.05,1.48l-0.41,0.02l-0.68-0.93l0.43-0.77l0.44,0.24l-0.03-0.98l0.74-0.94
		l0.67,0.45l0.54-0.63h0.62l1.12-1.16l0.19-0.77l-0.91-1.06l-0.79,0.19l0.05,0.35l-1.47,0.92l-0.5-0.08l-0.64-1.14l0.42-0.84
		l-0.15-0.58l-0.82-0.16l-0.25-0.57l-0.3,0.33l-1.11-1.12l-0.26-0.89l0.27-1.34L301,18.35l-0.82-1.01l0.06-1.53L300,15.3l-0.59,0.33
		l-0.49-0.3l0.12-0.68l0,0L299,14.52l0,0l0.01-0.94l1.89,0.1l0.38-1.05l0.93-0.65l0,0l0.62-0.95l-0.28-0.37l0.31-0.81l0.7,0.06
		l-0.68-0.55l0.06-0.56l1.47,0.13l0.6-0.55l0.16,0.21l0.05-0.46l1.49,0.2l0.35,0.43l0.67-0.49l1.17,0.61l1.77-0.44l0.58,0.67
		l0.38-0.54l0.96,0.13l1.31-0.46l0.22,0.38l0.41-0.14l0.1,0.42l1.54-0.03l0.24,0.38l1.65-0.12l0.08-0.81l1.15,0.67l0.9-0.271
		l1.12,0.34L324,8.05l0.32-0.63L324.95,8l0.32-0.25l0.16,0.47l0.4-0.24l-0.01,0.56l0.75-0.17l1.23,0.53l2.63-1.24l0.64,0.58
		l1.04-0.25l0.51-0.56l-0.26-0.14l0.88-0.34V6.3l0.93-0.02l0.6-0.47l0.03-0.71L335.23,5.06z"/>
	<path id="ES-CB" fill="#1E3250" stroke="#1E3250" stroke-width="0.5" d="M404.86,22.15l-0.601-2.02l1.09-0.51l0.471,0.26
		l-0.54,1.05l0.029,1.05l0,0L404.86,22.15z M396.64,10.44l0.021,0.42l0.979-0.27l0.311,0.62l0.6-0.11l0.391,0.79l1.92,0.35
		l0.189,0.78l-0.8,0.17l0.75,1.02l0.48-0.31l1.22,0.3l1.16-0.28l-0.05,0.72l0.59-0.35l2.04,0.48l0.93,1.23l1.09,0.4l0,0l-0.11,1.94
		l-0.909,0.12l-0.5,0.55l-0.42-0.93l-1.46,0.7l-0.431-0.39l-0.75,0.29l-0.25-0.3l-0.2,0.84l-1.189,0.29l-0.42,0.89l-1.391,0.38
		l0.221,0.71l0,0l0.18,0.28l0,0l0.46,2.8l0,0l-2.01,0.01l-2.22-0.71l-0.82,0.09l-0.23-0.68l-1.04-0.44l-0.91,1.39l0,0l-0.02,0.17
		l0,0l-0.57,0.84l-1.32,0.57l-0.33,0.75h-1.79l-0.71-0.35l0.16,1.82l-1.15-0.01L387.61,29l-0.96,0.51l-0.99,2.53l0.45,0.83
		l1.17-0.13l-0.07,0.57l1.78-2.06l1,0.99l-0.97,1.09l-1.21-0.48l0.46,0.84l-0.83-0.01l0.7,0.3l-0.41,0.55l0,0l-0.04,0.21l0,0
		l1.1,0.33l0.23-1.35l0.75,0.36l0.58,1.64L390.19,37l-1.12,0.46l-0.82-0.66l-0.48,1.35l-0.55-0.21l-1.28,0.56l-0.12-0.38h-0.46
		l-0.16-2.3l-0.42,0.44l0.14,0.45l-0.46,0.23l0.13,0.42l-0.56,0.28l0.08,0.59l-0.96,0.16l-0.48-1.09l-1.36,0.07l-0.91-0.76
		l-0.04-0.42l0.67-0.61l0.61,0.19l0.28-0.9l-0.61-0.51l-1.36,0.98l-0.67-0.45l0.07-1.98l-0.4-0.22l-0.06-1.49l-2.95-0.65l-1.46-2.27
		l-1.7-1.01l-0.41,0.82l-1.16-0.26l-1.03,1.01l-1.28-0.61l-0.88,0.7l-1.21-0.34l-1.44,0.2l-0.14-1.28l-0.63-0.02l-0.01-0.71l-1.79-1
		l-0.51-0.88l0.44-1.18l-0.46-0.61l0.34-0.31l0,0l0.61-0.08l0,0l0.14,0.07l0,0l0.89-0.38l1.1,0.19l0.48-1.74l-0.27-0.84l2.62-0.39
		l0.71-1.2l1.44,0.5l0.12,0.66l0.71-0.36l0.14-1.27l-0.59-1.63l0.75-0.9l-0.03-0.49l0,0l1.12,0.17l1.42-0.35l0.98,0.28l1.24-0.55
		l0.44,0.6l1.16,0.04l2.86-0.49l1.71-0.66l0.82-0.73l0.74,0.18l0.21-0.44l0.34,0.43l0.38-0.59l1.48,0.4l-0.36-0.13l0.93-1.1
		l2.91-0.31l0.72-0.6l0.74,0.12l-0.06,0.52l0.63,0.39l-1.06,0.24l-0.9,0.71l-0.01,0.4l0.65,0.23l-0.11,0.85l0.25-0.54l0.12,0.271
		l0.63-0.4l-0.35-0.41l0.37-0.04l0.14-0.59l0.73-0.07l-0.67-0.35l1.01,0.04l0.34-0.55l0.92-0.06l1.16-0.87l0.85,0.06L396.64,10.44z
		 M382.39,36.04l0.04-0.05l0,0h0.02l0,0l0.36,0.18l0,0l0.11,0.78l-0.34,0.24l-0.27-0.82l0,0L382.39,36.04z M380.84,36.16l0.15,0.16
		l0,0l-0.03,0.17l0,0l-0.3,0.12l0,0l-0.19-0.26l0,0l-0.04-0.1l0,0l0.02-0.09l0,0l0.1-0.04l0,0L380.84,36.16z"/>
	<path id="ES-CL" fill="#1E3250" stroke="#1E3250" stroke-width="0.5" d="M414.24,44.04l0.33,0.41l-0.511-0.2l0,0L414.24,44.04z
		 M412.83,44.18l-0.19,0.1l0,0l0.03-0.17l0,0l0.07-0.11l0,0l-0.021-0.13l0,0l-0.01-0.04l0,0l0.271-0.03l0,0L412.96,44l0,0
		L412.83,44.18z M417.29,37.56l0.08-0.05l0,0l2.5-0.29l2.39,1.05l1.101-0.19l0.38,0.73l0.83-0.45l-0.42,1.43l-0.4,0.47l-0.3-0.14
		l-0.24,0.69l0.87,1.04l1.48-0.57l0.149,1.39l-0.84,0.27l-0.17-0.39l-2.21,0.07l-0.63-0.91l-1.23-0.06l-0.38,0.44l-1.34-0.15
		l-0.48-1.18l-1.069-0.38l-1.221-1.14l0.82-1.54l0,0l0.16-0.47l0,0l0.1,0.17l0,0L417.29,37.56z M380.63,36.15l0.21,0.02l0,0
		l0.09,0.04l0,0l0,0l0,0l0.06,0.11l0,0l-0.03,0.17l0,0l-0.3,0.12l0,0l-0.19-0.26l0,0l-0.04-0.1l0,0l0.02-0.09l0,0l0.1-0.04l0,0
		L380.63,36.15z M382.65,36.09l0.17,0.08l0,0l0.11,0.78l-0.34,0.24l-0.27-0.82l0,0l0.12-0.38l0,0h0.02l0,0L382.65,36.09z
		 M308.53,32.71l1.39,0.58l-0.05,0.6l0.36,0.04l1.02-1.3l0.95-0.2l2.08-0.1l1.86,0.44l0.88-0.55l0.59,0.3l0.35-0.51l1.15-0.24
		l0.01-0.86l-1.04-0.13l-0.13-0.93l0,0l0.18-0.01l0,0l0.7,0.37l0.24-0.42l0.38,0.16l0.33-1.1l0.5-0.11l-0.11-0.65l0.64-0.12
		l0.39-0.66l0.74,0.5l0.11,0.52l0.85,0.18l0.3-0.34l0.55,0.71l1.01,0.26l0.35-1.37l1.03-0.02l1.08,1.02l1.08-0.44l0.47-1.63
		l1.64,0.75l1.26-0.37l0.47,1.69l1.18,1.01l0.72-0.04l-0.08,0.5l0.76-0.021l0.54,0.65l0.99-0.03l1.16-0.25l-0.08-0.6l1.07-2.06
		l1.02-0.57l1.51,0.86l3.85,0.49l0.38-1.25l2.41,0.2l0.19-1.37l0.42-0.31l0.68,0.02l0.52,0.58l3.14-0.36l0,0l0.08-0.18l0,0
		l1.61-0.79l0.21,0.42l1.04,0.04l0.72-2.92l1.46-0.13l0.67,0.41l0.87-1.39l1.44-0.97l1.15,0.39l0.83,1.64l0,0l-0.34,0.31l0.46,0.61
		l-0.44,1.18l0.51,0.88l1.79,1l0.01,0.71l0.63,0.02l0.14,1.28l1.44-0.2l1.21,0.34l0.88-0.7l1.28,0.61l1.03-1.01l1.16,0.26l0.41-0.82
		l1.7,1.01l1.46,2.271l2.95,0.65l0.06,1.49l0.4,0.22l-0.07,1.98l0.67,0.45l1.36-0.98l0.61,0.51l-0.28,0.9l-0.61-0.19l-0.67,0.61
		l0.04,0.42l0.91,0.76l1.36-0.07l0.48,1.09l0.96-0.16l-0.08-0.59l0.56-0.28l-0.13-0.42l0.46-0.23l-0.14-0.45l0.42-0.44l0.16,2.3
		h0.46l0.12,0.38l1.28-0.56l0.55,0.21l0.48-1.35l0.82,0.66l1.12-0.46l0.17-1.29l-0.58-1.64l-0.75-0.36L388.79,35l-1.1-0.33l0,0
		l0.04-0.21l0,0l0.41-0.55l-0.7-0.3l0.83,0.01l-0.46-0.84l1.21,0.479l0.97-1.09l-1-0.99l-1.78,2.06l0.07-0.57l-1.17,0.13l-0.45-0.83
		l0.99-2.53l0.96-0.51l0.66-0.98l1.15,0.01l-0.16-1.82l0.71,0.35h1.79l0.33-0.75l1.32-0.57l0.57-0.84l0,0l0.02-0.17l0,0l0.91-1.39
		l1.04,0.44l0.229,0.68L397,23.8l2.22,0.71l2.011-0.01l0,0l4.46-2.39l0.85,0.98l1.479-0.22l0.65,0.42l-1.06,1.82l0.779,0.53
		l0.29-0.2l0.2,0.46l-0.62,0.86l0.45,0.26l-0.02,1.4l-0.95,0.29l0.85,0.55l2.271,0.15l0.67,0.8l-0.13,0.4l1.68,1.18l-1.07,1.11
		l-1.97,0.33l-1.54-0.69l0.061-0.6l-2.15-0.57l-1.65,2.51l1.92,2.05l0.261-0.05l-0.421-0.41l0.82-1.12l0.93,0.46l1.051-1.3
		l0.279,0.771l-1.359,2.5l0.92,0.57l-0.63,1.17l2.67-0.29l0.18,0.96l0.69-0.05l0,0v0.13l0,0l0.99,1.23l1.359-0.14l0.76,0.52
		l0.141,0.87l0,0l-0.07,0.07l0,0l0.29,0.7l0.84,0.38l0,0l-0.68,0.64l-0.37-0.25l-0.38,0.3l-0.93-0.72l-1,0.13l-0.61-0.35l-0.37,0.46
		l-1.78-0.32l0.631,1.91l0,0l-0.41,0.1l0,0l-0.78,1.19l-0.8,0.43l0.26,0.33l0.95-0.19l0.439,0.35l-0.109,0.95l-0.521,0.56l1.33,1.54
		l-0.45,0.79l0.181,1.99l-0.69-0.95l0.11-0.72l-0.61-0.02l-0.11,1.12l0.561,0.01l0.58,0.91l-1.26,0.33l0.22,0.85l0,0l0.16,0.12l0,0
		l-0.311,0.45l0.47,2.47l-0.39,1.19l-0.68,0.58l2.6,4.05l2.62-0.08l0.59,1.78l0,0v0.29l0,0l0.87,0.84l0.83-0.78l1.2-0.24l0.42-2.37
		l0,0l0.07-0.25l0,0l0.479-0.56l0.601,0.23l0.439-0.26l0.771,0.78l-0.07,0.73l-1.28,1.87l0.3,0.85l1.13-0.22l0.82,0.66l1.33-0.35
		l1.18,0.39l0.891-2.06l0.89-0.64l0.05-1.63l0.761,0.26l0.76-0.31l0.46-0.76l3.27-0.3l1.051,0.5l0.38,1.55l0.899-0.51l2.92,0.16
		l-0.029,0.69l-0.87,0.5l1.439,2.23l-0.359,0.31l0.229,1.24l2.67,0.65l0,0l0.16,0.16l0,0l0.74,0.72l0.5-0.03l2.91-1.74l0,0
		l0.04,2.29l1.01,1.86l-0.05,0.97l-0.91,1.36l1.36,1.29l-0.12,0.62l0.91,0.44l-1,1.37l0.09,0.85l-1.37,0.08l-0.431,0.85l-0.369,0.02
		l0,0l-0.23,0.14l0,0l-0.74,1.27l-1.869-0.03l-0.051,0.72l0.75,1.25l-0.38,2.15l0.75,0.9l-0.05,1.35l0.46,0.13l-0.03,0.5
		l-2.449,0.82l-0.4-0.43l0.22-1.14l-1.77-0.65l-0.641,2.69l-1.05,0.62l0.18,0.73l-0.55,1.57l0.79,3.79l1.771,0.44l0.739,0.9l0,0
		l-0.3,1.2l0.44,1.28l-0.25,0.33l-2.08-1.8l-1.16,1.22l-1.42-0.49l-0.83,1.02l-0.81-0.12l-0.841,0.5l-0.909-1.04l-1.681,1.01
		l-0.359-0.53l-1.021-0.18l-0.38-1.34l-0.729-0.16l-0.221-1.02l-0.55-0.46l-1.02,0.81L423.57,97l0.42-1.03l-1.15-0.23l0.771-0.49
		l0.1-0.91l-1.08,0.31l-0.449-0.85l-1.7-0.41l-0.24-0.79l-1.189,0.03l-0.44,0.68l-1.12-0.11l-1.28-0.61l-0.109-1.56l-1.03-0.38
		l-0.91,0.47l-0.29,0.77l-1.85,0.13l-1.17,0.54l-3.41-1.07l-1.271,0.39l-0.58,1.31l-0.489-0.63l-0.49,0.65l-0.89-0.12l-0.33,0.33
		l-1.58-0.17l-0.53-0.54l0.42,1.01l-0.12,1.15l-1.09-0.06l-0.59,1.12l-1.1,0.48l0,0l-0.25,0.23l0,0l-0.061,0.05l0,0l-0.31-0.1l0,0
		h-0.311l0,0l0,0l0,0l-1.359,0.18l-1.15,0.82l-1.23,1.89l-1.71,1.05l-1.1,1.88l-3.06,1.23l-0.79,1.38l-0.44,0.09l-1.12,5l-1.34,0.21
		l-1.15-0.42l-0.73,1.59l-1.74,2.14l0,0l-0.63-0.31l0,0l-0.41,0.11l0,0l-1.44,0.23l-0.6,0.46l0,0l0,0l0,0l-0.42-0.15l-0.78,0.51
		l-0.05,0.6l0,0l-0.38,0.38l1.18,0.32l0,0l0.33,0.88l-0.3,1.37l-0.87,0.5l-0.16,0.54l0.32,2.47l-0.68,1.03l0.51,0.93l-2.72,0.15
		l-0.56,0.73l0.1,1.31l-0.6,0.33l0.17,0.76L371.7,127l-0.68-1.03l-0.54,0.09l0.48,1.74l-1.08,1.23l0.24,1.229l-0.52,0.271l0,0
		l-1.73,0.67l-1.05-0.36l-0.18-1.49l-0.43-0.39l0.16-0.76l-1.11,0.31l0,0l-0.56,0.39l0,0l-1.21-0.5l-0.37,0.77l0.27,0.71l-1.79,1.25
		l0,0l-0.08,0.18l0,0l-1.28,0.88l-0.15,1.23l-1.88,0.84l0,0l-0.26,0.07l0,0l-0.31-1.74l-1.34,0.29l-0.57,0.93l-0.29-0.11l-1.12,1.25
		l-0.8,0.21l-0.85,0.12l-0.27-0.84l-1.37-0.12l0,0l-0.18-0.04l0,0l-1.04,0.11l0,0l-0.6-0.18l0,0l-0.19-0.08l0,0l-0.88-1.7
		l-0.05-1.91l0.73-1.64l-2.31,0.36l-1.17,1.53l-0.7,0.34h-1.44l0,0l-0.22-0.07l0,0l-0.33-0.21l0,0l-0.41-0.21l0,0l-0.79-0.17l-0.2-1
		l-0.78-0.15l-0.21-0.71l-0.9-0.77l-1.27-0.07l-0.73,0.48l-0.74-0.21l-0.29-0.38l0.49-0.9l-0.69-1.33l-2.29,1.41l-0.69,1.46
		l-1.56-0.5l0,0l-0.28-0.19l0,0l-0.74-0.53l0,0l-0.13-0.18l0,0l0.06-0.74l-2.38-0.59l0.6-0.29l-0.1-0.48l0.35-0.28l-0.31-0.15
		l0.49-0.18l-0.53-0.37l0,0l-0.13-0.05l0,0l-1.02-0.48l0.33-0.71l-0.78,0.21l-0.36-0.79l-1.98-1.04l-3.2,1.86l0,0l-0.38,0.39l0,0
		l-0.18,0.71l-1.33,0.14l-0.62,0.98l-0.66-0.04l-2.22,1.12l-0.46,0.77l0.16,1.04l-0.82,0.73l-2.09,0.21l-0.74,0.76l-0.71-0.96
		l-1.05,1.05l-0.77-0.34l0,0h-0.48l0,0l-0.1,0.26l-0.76-0.18l-0.87-0.74l0,0l0.11-1.1l1.89-1.16l0.29-1.21l-1.49-1.6l-0.31-1.41
		l1.39-2.24l-0.14-1.37l-1.13-0.66l1.31-3.26l-0.96-3.31l0.39-1.89l-0.27-1.33l0.69-0.13v-0.52l-0.22-0.8l-1.05-0.68l-0.3-1.74
		l-1.7-1.87l-0.29-0.93l0.45-0.33l1.49,0.41l1.4-0.35l1.42-2.32L310,97.77l1.91-1.78l0.21-0.98l1.15-1.36l1.33,0.11l0.26-0.39
		l0.46,0.58l1.41-1.32l0.28,0.39l0.51-0.13l0.38-0.3l-0.25-0.52l1.12-0.33l0.86-1.72l1.03-0.41l-0.43-0.36l0.08-0.56l0.59-0.31
		l0.45,0.53l0.94-0.3l-0.43-0.86l1-0.83l-0.25-0.6l3.11-4.49L325.35,81l-0.79-0.33l-1.7-1.92l-4-0.93l-0.38,0.59l-1.14,0.4
		l-1.35-1.06l0.04-1.39l-0.53-0.75l1.43-4.52l-1.5-0.54l0.68-1.74l-1.13-1.24l-0.87,0.94l-2.14,0.271l-1.41-0.33l-0.64-1.55
		l-0.75-0.21l-0.82,1.71l-3.1-0.03l-0.39-0.84l-0.65-0.2l0,0l-0.15-0.78l0.73-1.17l-0.37-1.01l-0.92,0.09l-0.65-0.87l0.8-0.39
		l0.43-1.37l0.97-0.27l0.23-1.58l1.18-0.63l0.41-0.9l1.14-0.44l1.26,0.71l0.06-0.56l0,0l-0.14-0.3l0,0l1.62-2.37l0.15-2.28
		l-0.9-0.28l-0.39-0.55l-1.07-0.17l-0.58-0.65l0,0l0.02-0.08l0,0l0.66-0.76l-0.19-0.92l0.41-0.52l-0.42-0.96l-0.85,0.24l-2.04-1.24
		l-0.83,0.12l-0.4,0.88l-1.71-0.47l0,0l-0.5-0.04l0,0l-0.55-0.03l0.45-0.79l-0.17-0.88l0.84-1.13l-0.38-0.46l0.04-1.21l1.15-0.56
		l-1.04-1.91l0.91-1.05l1.04-0.07l0.35-1.07l0.67,0.49l1.86-1.72l-0.05-0.53l0.74-0.79l-0.79-1.86l1-0.29l-0.18-0.91L308.53,32.71z"
		/>
	<path id="ES-CM" fill="#1E3250" stroke="#1E3250" stroke-width="0.5" d="M377.9,114.18l0.6-0.46l1.44-0.229l0,0l0.41-0.11l0,0
		l0.63,0.31l0,0l-0.38,0.78l0.36,1.55l-1.86,0.7l0,0l-0.45,0.04l0,0l-0.45-0.13l-0.22-0.79l-0.52,0.01l0,0l-1.18-0.32l0.38-0.38l0,0
		l1.69-0.1L377.9,114.18z M397.91,96.65h0.31l0,0l0.311,0.1l0,0l0.06-0.05l0,0l0.25-0.23l0,0l1.101-0.479l0.59-1.12l1.09,0.06
		l0.12-1.15l-0.42-1.01l0.529,0.54l1.58,0.17l0.33-0.33l0.891,0.12l0.489-0.65l0.49,0.63l0.58-1.31l1.27-0.39l3.41,1.07l1.17-0.54
		l1.851-0.13l0.29-0.77l0.91-0.47l1.029,0.38l0.11,1.56l1.28,0.61l1.12,0.11l0.439-0.68l1.19-0.03l0.239,0.79l1.7,0.41l0.45,0.85
		l1.08-0.31l-0.1,0.91l-0.771,0.49l1.15,0.23l-0.42,1.03l0.569,0.38l1.021-0.81l0.55,0.46l0.22,1.02l0.73,0.16l0.38,1.34l1.02,0.18
		l0.36,0.53l1.68-1.01l0.91,1.04l0.84-0.5l0.811,0.12l0.83-1.02l1.42,0.49l1.159-1.22l2.08,1.8l0.25-0.33L438,98.41l0.3-1.2l0,0
		l2.54-0.84l1.33,1.39l0,0l0.34-0.1l0,0l1.28,1.22l1.399,0.47l3.86,4.01l0,0l0.31,0.48l0,0l0.87,0.76l0,0l0.25,0.59l0,0l-0.34,1.71
		l1.3,1.71l0.45,0.09l0.48,1.24l-0.07,1.26l-0.54,0.75l0.66,1.85l-0.75,2.57l0.479,0.64l-1.42,1.21l-2.04-1.05l-0.529,0.56
		l-0.25,1.44l0.25,1.67l-1.41,0.79l-1.09,1.92l-0.23-0.22l-0.229,0.32l-0.03,0.37l0.729,0.29l1.33,1.68l0,0l0.17,0.1l0,0l0.66,0.76
		l-0.609,0.05l-0.25,0.57l0.239,0.86l0.82-1.16l4.03,4.27l0.87-0.45l0.949,0.64l0.961-0.41l-0.301,1.9l0,0l-0.01,0.69l1.19,0.86
		l-0.28,0.27l1.22,2.72l2.66,0.34l0,0l0.05,0.1l0,0l0.721,0.23l2.25-0.57l0,0l0.63,1.45l0,0l-1.721,0.75l-0.18,0.58l0.39,0.7l0,0
		l-0.09,0.43l0,0l-0.46,3.35l-1.6,2.42l0.35,1.4l-0.439,0.68l-0.96,0.29l0,0l-0.73-0.35l0,0l-0.78-0.29l-0.93,0.79l-1.59,3.14
		l-1.57,0.95l0.48,0.09l0.1,1.64l-0.35,0.16l0.239,0.63l-0.27,0.7l-0.41,0.15l0.23,0.81l0.63,0.09l0,0l-0.2,0.24l0,0h0.6l-0.18,0.65
		h0.61l-0.261,0.32l0.381-0.21l0,0l0.069-0.06l0,0l0.19,0.61l-0.391,0.01l0.5,0.18l-0.05,0.48l0,0l-0.12,0.06l0,0l0.67-0.49l0,0
		l0.061,0.16l0,0l0.06,0.33l0.051-0.65l0.689,0.16l-0.29,0.31l0.67,0.05v0.44l0.471-0.04l0.84,0.77l0.229-0.29l0,0l0.181,0.05l0,0
		l0.939,0.35l0,0h0.16l0,0l0.57,0.07l0,0l0.16,0.08l0,0l0.909,0.35l0.32-0.33l1.24,0.68l-0.521,3.35l-2,3.62l-0.21,2.11l1.011,0.75
		l2.229,3.34l3.01-0.19l0.88-0.54l1.12,0.2l0.3,1.189l0.66,0.59l-0.319,1.3l0.35,1.11l-0.14,1.36l-0.9,0.42l1.25,2.65l-1.29,1.37
		l-1.74,0.03l0,0l-2.439-1.91l-0.101-0.95l-1.819-0.56l-1.37,0.43l0,0l-0.33,0.16l0,0l-2.54,2.08l-0.65-0.92l-0.51,0.18l-1.71,1.69
		l-0.109,2.33l-0.95,0.67l-0.271,0.94l0.471,1.81l0.05,3.72l-3.021,2.26l-2.16-0.02l-0.619-1l0,0l-0.011-0.14l0,0l0.261-0.53
		l-0.511-0.5l-0.45,0.38l-0.72-0.6l-0.689,0.06l-0.03,0.46l-0.67-0.14l0.3,0.46l-3.4,2.02l-1.989,0.56l-1.771-0.85l-0.5,0.37l0,0
		l-0.36,0.66l0,0l-0.949,1.34l-2.681,1.17l-1.479,3.29l-1.71,1.42l-0.271,1.41l0,0l-2.22-0.2l-2.49-1.32l0,0h-0.35l0,0l-0.75-0.44
		l2.91-3.53l-0.2-1.08l0.5-1.68l-0.16-0.72l-1.189-0.55l0.06-3.28l-2.44-0.62l0.11-2.64l-0.86-0.78l0,0h-0.25l0,0l-1.79,0.62
		l-2.579-1.27l-0.29,0.77l-0.2-0.17l-0.11,0.43l-1.06,0.51v0.34l-0.21-0.26l-0.63,0.34l-0.54,0.8l-0.631-0.57l-1.659-0.01
		l-0.75,0.63l-0.23,1.48l-1.74-2.39l-1.93,1.33l-3.8-0.64l-1.21-0.74l0,0l-0.15-0.07l0,0l-1.31,0.42l0,0l-0.11,0.31l0,0l0.04,0.68
		l-1.31,1.18l-1.2,0.3l-1.64-0.38l-0.211-1.12l-0.85-0.31l-0.38,0.07l-0.16,1.5l-0.73,0.38l-3.12-1.06l-0.27,0.35l-1.14-0.39l0,0
		l-0.5,0.16l0,0l-0.67,0.2l-0.19,0.79l-0.67,0.63l-1.61,0.2l-5.87-0.38l-3.64-0.72l-0.37,0.69l0.25,1.13l-0.49,0.13l-4.49-2
		l-2.39-2.81l-0.48,0.18L370,191l-0.52-0.11l-0.22,0.28l-0.78-1.27l-1.18-0.89l-1.02-0.17l-0.12-0.67l-4.1-1.41l-0.51-2.45
		l-1.88,0.08l-1.57-0.43l-0.21-0.78l-0.99-0.43l0,0l1.57-0.43l1.49-4.27l0.53-0.78l1.8,0.14l0.44-1.87l-1.98-0.9l-0.46,0.12
		l-1.11-3.43l2.29,0.89l1.13-0.43l0,0l0.09-0.05l0,0l0.17-0.55l-0.47-0.33l0,0l-0.28-0.11l0,0l-0.52-0.98l0.93-2.12l0,0h0.19l0,0
		l0.67-1.21l1.89,0.2l2.46,0.97l-1.6-1.56l-0.16-1.2l-0.5-0.29l-0.77-2.4l1.45-0.29l0.06-1.27l0.96-2.08l-0.55-0.92l-1.33,0.98l0,0
		l-0.21,0.09l0,0l-0.81,0.79l-1.55,0.3l0,0l-0.07,0.07l0,0l-0.97,0.66l-2.19-0.84l-2.92-3.28l-0.8-0.18l-1.96-2.41l0,0l-0.46-0.41
		l0,0l-0.81-0.96l1.25-1.56l0,0l-0.01-0.33l0,0l0.58-2.21l-0.94-1.39l0.39-0.23l-0.21-1.44l-1.08,0.12l-1.27,1.59l-1.47-0.25
		l-0.11-2.41l0.73-1.22l-1.12-1.05l-2.21,0.5l1.13-3.73l-0.1-4.09l0.91-0.56l0,0l0.19,0.08l0,0l0.6,0.18l0,0l1.04-0.11l0,0
		l0.18,0.04l0,0l1.37,0.12l0.27,0.84l0.85-0.12l0.8-0.21l1.12-1.25l0.29,0.11l0.57-0.93l1.34-0.29l0.31,1.74l0,0l0.26-0.07l0,0
		l1.88-0.84l0.15-1.23l1.28-0.88l0,0l0.08-0.18l0,0l1.79-1.25l-0.27-0.71l0.37-0.77l1.21,0.5l0,0l0.56-0.39l0,0l1.11-0.31
		l-0.16,0.76l0.43,0.39l0.18,1.49l1.05,0.36l1.73-0.67l0,0l1.33,0.6l0.43-0.6l2.12-0.74l0.07-0.76l1.4-1.05l0.14-1.05l0.6,0.37
		l0.18,2.5l0.45-0.03l0.31,0.46l0.37-0.29l0.26,0.5l0.68-0.51l0.62-1.4l1.57-0.8l1.31,1.1l-0.04,0.65l1.16,0.13l0.82-0.83l1.32,0.59
		l-0.05,0.48l0.93,0.93l1.04-0.13l0.11,0.84l0.51-0.51l0.44,0.45h1.06l1.08,1.05l0.77-0.57l0.98,1.36l0.76,0.22l0.61-0.51l0.88,0.53
		l0.58-0.37l0.13,0.46l1.49,0.77l-0.39,1.9l-1.75,1.44l-0.44-0.15l-0.36,1.12l-0.61,0.29l0.14,0.3l0,0l0.22,0.07l0,0l-0.11,0.24
		l-0.63-0.28l0.15,0.5l-0.33,0.26l0.05-0.66l-0.69,0.67l-0.64-0.29l-0.66,0.88l-0.2-0.41l-0.52,0.1l-0.54,0.42l0.2,0.28l0,0
		l-0.02,0.14l0,0l0.21,0.47l1.66,0.63l1.14-1.15l0,0l0.18-0.11l0,0l0.35-0.7l0.95-0.51l0.34,0.22l1.92-0.69l-0.31-0.74l0,0l0.41-0.1
		l0,0l0.77-0.8l1.86-0.27l0.39-0.98l0.99,0.27l0.58-0.3l0.05,0.42l0.6-0.33l0.78,0.39l0.59-0.7l-0.05-0.71l1.2-0.22l0.82,1
		l0.75,0.19l0.25-0.33l1.699-0.1l0.381-0.79l0,0h0.069l0,0l0.511-0.32l0.17,0.93l1.08,0.11l0.959-0.36l0.881-1.2l-1.15-1.26
		l0.18-0.76l0.551,0.21l-0.471-1.12l0.2-1.35l-0.56-1.74l-0.36-0.39l-1.04,0.77l-0.6,1.05l-0.62-0.47l0.399-2.27l1.08-1.37
		l-0.31-0.63l0.6-1.31l-0.67-1.22l-1.17-0.1l-0.07-2.57l-0.859-0.9l-0.9,0.09l0,0l-0.16,0.07l0,0l-0.68-0.04l0.34-1.22l-1.27-0.91
		l0.25-0.58l-0.44-0.47l0.37-0.2l0,0l0.04-0.4l0,0l0.16-0.36l-0.641,0.55l-0.659-0.33l-0.19-1.14l-0.57-0.49l-0.319,0.78l-0.48-0.41
		l-0.5,0.22l0,0l-0.03-0.11l0,0l-0.64-0.41l0.88-1.42l-0.439-0.29l0.1-0.93l0,0v-0.11l0,0l-0.48-0.65l-1.27-0.15l1.16-1.95
		l-0.16-0.8l0.87-0.56l-0.521-0.92l0.471-0.01l0.739-2.89l0.54-0.49l-1.18-1.47l0.36-1.41l-1.73-0.42l-0.569-1.49l-0.811-0.48
		L397.91,96.65z"/>
	<path id="ES-CN" fill="#1E3250" stroke="#1E3250" stroke-width="0.5" d="M6.42,536.26l0.61,0.25l0.53,1.12l-0.85,1.061l-0.34,1.18
		l-0.81,0.38l-0.57,2.44l-0.86-0.311l-1.11-1.31l-2.58-0.33l-0.41-0.351l0.16-1.25l0.54-0.449l1.46,0.52l1.2-0.28l1.3-1.17
		l-0.12-0.67L6.42,536.26z M74.61,526.11l0.5,0.46l-0.17,1.01v-0.83l-0.28,0.94v-0.53l-0.32,0.229l0.5,1.221l-0.24,1.229l1.26,1.53
		l0.16,0.56l-0.45,0.74l0.69,1l-0.71,0.26l-0.25,1.09l0.24,0.99l-0.8,0.37l-0.36,1.24l-3.34,1.189l-0.56,0.92l-0.78,0.08
		l-1.62-0.689l-0.4,0.229l-3.06-2.6l-1.26-2.32l0.27-3.189l0.99-0.23l1.79-1.49l0.64-2.479l-0.33-0.48l0.71-0.13l0.43,0.36l0.8-0.42
		l0.99,0.85l2.03-0.33l1.64,0.88l0.79-0.35l-0.12-0.87L74.61,526.11z M24.15,525.05l0.38-0.08l0.45,0.53l1.31,0.02l0.33,0.62
		l1.75,0.841l0.42,0.739l0.06,1.11l-1.86,1.76l-0.82,0.34l-1.94-0.06l-1.34-1.03l-0.04-0.54l-0.75-0.68l0.1-1.66l0.65-1.39
		L24.15,525.05z M38.06,520.11l0.97-0.021l1.43-0.79l1.92,0.24l1.43-0.78l1.09-0.02l2.2-2.07l0.52-1.21l0.76-0.61l1.27-0.279
		l0.36-0.69l2.72,0.4l1.77-0.7l0.7,0.22l0.34,0.67l-0.15,0.851l-2.99,1.39l-0.46,0.97L48.99,520v2.24l-1.75,3.149l-0.04,1.71
		l-3.27,3.78l-1.33-0.13l-1.31,0.78l-1.56-0.021l-0.27-1.3l-0.72-0.29l0.02-0.91l-1.15-1.06l-1.58-2.66l-0.11-1.77l-1.52-2.08
		l-0.76-0.29l0.2-0.601l2.3-0.979l0.66,0.5L38.06,520.11z M116.13,508.36l1.55,1.359l0.38,3.71l-0.57,2.73l-0.66,0.72l0.41,2.69
		l-1.16,2.14l-0.04,1.12l-0.55,1.08l-0.74,0.7l-1.15,0.029l-0.69,0.641l-5.63,1.31l-3.08,3.71l-3.91-1.02l-0.9,0.359l0.45-1.38
		l0.27,0.311l1.1-0.021l2-0.53l3.93-2.88l0.57-3.52l1.12-1.29l0.42-2.17l1.44-1.43l1.6-3.261l-0.12-0.75l0.82-1.85l-0.22-1.22
		L116.13,508.36z M118.4,508.07l-0.1,0.77l-0.43,0.061l-0.19-0.471L118.4,508.07z M6.82,505.28l1.43,0.75l1.33-0.4l0.86,0.16
		l0.74,2.1l0.72,0.92l-1.26,2.04l0.56,1.61l-0.26,1.65l-2.22,3.63l-0.74-0.63l-0.33-2.07l-1.24-1.729L4.92,509.3l-0.72-0.97
		l0.05-0.83l1.04-1.33L6.82,505.28z M127.76,493.82l1.14,0.569l0.1,0.75l-0.23,0.931l-0.98,0.819l0.45,1.25l-0.5,0.99l0.03,1.16
		l-0.57,0.79l-1.39,0.729l-0.29,0.53l-1.34,0.11l-1.25,0.92l-2.52,0.38l-1.4,2.11l-0.38-0.62l-1.95,0.109l-0.24-0.97l1.42-1.31
		l-0.11-1.88l0.5-1.37l1.65-1.38l1.27-0.04l1.54-1.341l0.49,0.23l0.86-0.62l1.47,0.53l0.62-0.72l0.77-2.4l0.7-0.61L127.76,493.82z
		 M126.62,491.85l0.95,0.83l-0.87,1.21l-1.07,0.17L126.62,491.85z M126.7,487.96l0.47,0.41l-0.52,0.56l-0.61,0.011l0.17-0.841
		L126.7,487.96z"/>
	<path id="ES-CT" fill="#1E3250" stroke="#1E3250" stroke-width="0.5" d="M548.73,49.79l-1.521-0.24l0.88-1.3l0.141,1.03
		L548.73,49.79z M579.22,61.36l0.41,0.75l1.01,0.15l-0.2,0.22l1.171,1.34l-0.41,0.86l0.01,1.42l-0.271-0.04l0.631,1.24l0.569,0.15
		l0.08,0.71l-0.42,0.29l-0.22,1.48l-0.71,0.5l-0.14,0.72l-0.7,0.21l-0.53,0.75l-0.811-0.12l-1.579,2.42l-1.841,0.79l-1.14,1.52
		l-3.22,1l-0.71,0.54l-0.38,0.93l-6.631,2.85l-4.039,2.67l-2.961,1.25l-2.039,2.68l-0.761,1.86l0.38-1.6l-0.55,1.21l-0.439,0.05
		l-0.04,0.28l0.46-0.14l-0.72,1.27l-0.841,0.67l-2.529,0.8l-2.381,0.12l-1.689,0.9l-1.43,0.02l-1.971,0.63l-0.38,0.47l0.17-0.36
		l-6.1,1.33l-3.12,1.69l-2.64,0.18l-1.45,0.92l-0.25,0.08l0.22-0.37l-0.97,0.36l-1,1.61l-1.22-0.72l-2.08,0.37l-1.761,0.85
		l-3.409,3.38l-1.891,2.89l-1.09,0.72l-0.28,0.83l-1.109,0.68l0.83,1.27l1.399,0.05l-1.08-0.81l0.76-0.04l1.7,2.1l1.79,0.45
		l-1.37,1.46l-2.43,1.28l-2.24,2.87l-1.35,0.21l-0.71-0.85l0.45,0.25l-0.04-0.57l1.08,0.72l0.33-0.23l-0.511-0.34l1.761-0.27
		l0.859-1.55l-1.399-0.2l-0.841,0.54l-1.68,0.16l0.09,0.41l-0.32-0.21l-1.479,1.74l-0.67,1.6l0,0l-2.06-0.88l0.13-1.09l-1.12-0.87
		l-1.7-0.21l-1.59-0.74l-0.41-0.56l0.55-1.63l0,0l-0.2-0.08l0,0l-0.08-0.09l0,0l-0.27-0.27l0,0l-0.63,0.08l0,0h-0.15l0,0l-0.31-1.13
		l-0.771,0.3l-0.75-0.35l0,0l-0.25-0.58l0.391,0.31l0.05-0.48l1.42-0.43l0.149-0.7l1.19-1.21l-1.04-2.23l0.391-1.08l0,0l-0.03-0.2
		l0,0l1.09-1.82l-0.33-0.22l0,0l0.04-0.27l0,0l-0.6-1.21l0.5-0.19l-0.891-0.72l-0.38,0.2l0.01-0.45l-0.37,0.19l0.33-0.47l-0.3-0.96
		l-0.51-0.1v-1.43l0.34-0.4l0.9,0.26l0.17-0.7l1.12-0.27l0.72-2.37l1.14-0.06l0.061-0.47l0.39,0.05l0.21-1.51l-0.59-0.94l0.11-0.52
		l-0.57-0.43l0.7-0.9l-1.45-1.5l0.95-2.01l-0.34-1.2l1.5-0.22l1.359-1.88l-0.529-2.15l-0.721,0.33l-1.42-0.24l0.21-1.16l-0.87-1.05
		l0.04-0.68l1.58-2.21l0.3,0.3l0.09-0.93l1.87-0.25l0.421-1.28l0.829-0.77l0.82,0.03l0.33-1.15l0.66,0.03l0.02-0.42l0.721-0.31
		l-0.391-0.52l0.09-1.14l0.311-0.07l-1.21-0.66l0.67-1.05l0.49,0.2l0.35-0.99l0.54-0.18l0.13,0.39l0.33-0.62v-1.51l0.38-0.24
		l0.87-2.59l-0.24-1.22l0.57-0.48l-0.46-0.32l0.12-0.6l1.68-4.89l-0.64-0.55l0.81-0.55l-1.28-0.52l0.62-0.69l-1.479-3.7l0.29-0.32
		l0.34,0.26l0.689-0.66l-0.529-0.28l0.04-0.53l0.359-0.45l0.431,0.19l-0.261-0.38l0.7-2.45l-1.68-0.42l-0.271-1.34l-0.609-0.82l0,0
		l-0.21-0.14l0,0l-0.11-0.25l0,0h0.39l0.17-0.64l-0.51-1.51l-0.57-0.2l0.671-0.75l-0.591-0.28l0.69-0.81l-0.32-1.23l1.36-0.86
		l1.84,0.92l0.71-0.13L517.5,36l1.91,1.38l0.93-0.61l0.641,0.71l1.689,0.21l0.9-0.28l1.35,1.25l0.13,0.97l0.97,0.73l1.67-0.71
		l0.62,0.47l2.801-0.16l-0.15,0.59l0.99,0.51l0.02,0.75l0.69,0.52l0.16,1.09l0.659,0.81L533.04,45l0.47,0.57l-0.81,1.1l0.979-0.13
		l0.49,1.08l-1.32,1l0.59,0.31l0.2,1.39l2.78,0.19l0.32-0.9l0.479,0.3l0.521-0.67l1.6,0.01l0.38-1.36l0.891,0.5l0.58-0.42l1.06,0.54
		l1.06-0.15l0.971,0.33l1.14,1.21l1.46-0.14L547,50.6l0.49,0.29l0.189,1.47l1.44,1.25l1.88-0.52l0.21-0.56l0.64-0.24l0.23-0.95
		l0.83-0.5l1.25,0.29l1.51-0.82l1,0.57l0.63-0.13l0.97,0.77l2.19,0.43l0.04,0.65l1.29,1.3l1.61,0.25l0.35-0.74l0.62-0.17l2.59,0.65
		l0.07-0.68l-0.601-1.05l0.49,0.02l0.07-0.61l1.189-0.61l1.061-0.19l0.62,0.5l1.33-1l0.34-0.72l0.54,0.17l0.34-0.479l1.24,0.4
		l0.8-0.95l0.54,0.61l1.979-0.29l1.261,1.76l0.93-0.44l1.479,0.1l-0.439,0.25l0.27,0.41l-0.479,0.88l0.37,0.12l-0.311,0.33
		l0.21,0.73l0.65,0.32l0.2,0.59l0.92-0.57l0.63,0.77l0.45-0.37l0.529,0.54l0.98,0.21l-0.96,0.58l0.34,0.69l-0.61-0.07l0.29,0.76
		l-0.239,0.45l-0.69,0.01l0.26,0.56l-0.96-0.49l-0.26,0.71l-1.04-0.52l-0.29-0.69l-0.89,0.61l-0.62,1.56L579.22,61.36z"/>
	<path id="ES-EX" fill="#1E3250" stroke="#1E3250" stroke-width="0.5" d="M307.38,128.71l0.87,0.75l0.76,0.17l0.1-0.25l0,0
		l0.49-0.01l0,0l0.77,0.34l1.05-1.05l0.71,0.96l0.73-0.77l2.1-0.21l0.82-0.73l-0.16-1.04l0.47-0.77l2.21-1.12l0.67,0.04l0.62-0.98
		l1.33-0.14l0.18-0.71l0,0l0.38-0.39l0,0l3.19-1.87l1.98,1.04l0.36,0.8l0.78-0.21l-0.33,0.71l1.02,0.48l0,0l0.12,0.05l0,0l0.54,0.37
		l-0.5,0.18l0.32,0.16l-0.36,0.28l0.11,0.48l-0.6,0.28l2.38,0.6l-0.06,0.74l0,0l0.12,0.18l0,0l0.74,0.53l0,0l0.28,0.19l0,0l1.56,0.5
		l0.69-1.45l2.3-1.41l0.69,1.33l-0.49,0.9l0.29,0.38l0.73,0.21l0.73-0.48l1.27,0.07l0.9,0.77l0.21,0.71l0.78,0.15l0.2,1l0.79,0.17
		l0,0l0.41,0.21l0,0l0.33,0.21l0,0l0.21,0.07l0,0l1.45-0.01l0.7-0.34l1.17-1.53l2.31-0.36l-0.73,1.64l0.05,1.91l0.88,1.7l0,0
		l-0.91,0.56l0.11,4.09l-1.13,3.72l2.21-0.5l1.13,1.04l-0.73,1.23l0.11,2.41l1.47,0.25l1.27-1.59l1.07-0.12l0.21,1.43l-0.39,0.23
		l0.94,1.39l-0.58,2.21l0,0l0.01,0.34l0,0l-1.25,1.56l0.81,0.96l0,0l0.46,0.41l0,0l1.96,2.41l0.79,0.18l2.92,3.28l2.2,0.84
		l0.97-0.65l0,0l0.06-0.07l0,0l1.56-0.3l0.8-0.79l0,0l0.22-0.09l0,0l1.32-0.98l0.56,0.92l-0.96,2.08l-0.06,1.27l-1.45,0.3l0.77,2.39
		l0.5,0.29l0.16,1.21l1.6,1.56l-2.46-0.97l-1.89-0.2l-0.68,1.2l0,0h-0.18l0,0l-0.93,2.12l0.52,0.99l0,0l0.28,0.11l0,0l0.47,0.33
		l-0.17,0.55l0,0l-0.09,0.05l0,0l-1.13,0.43l-2.29-0.89l1.1,3.42l0.46-0.12l1.98,0.9l-0.44,1.87l-1.8-0.13l-0.52,0.77l-1.49,4.27
		l-1.57,0.43l0,0l-1.4,0.77l-2.35-0.36l0.47,1.34l0,0l-0.04,0.08l0,0l-0.47,0.06l0.01,0.53l-0.33-0.27l-0.11,0.35l-0.22-0.38
		l-0.15,0.63l-0.24-0.26l-0.88,1.11l-0.97,0.49l-0.52,0.64l0.09,0.51l-1.7-0.18l-0.61,1.03l0.22,0.5l-0.47-0.26l-0.39,0.67l0,0
		l0.11,0.26l0,0l-1.85,1.25l-0.13,0.72h-0.96l-0.72,0.46l-1.01,1.65l-0.03,0.56l0.74,0.71l-0.44,1.28l1.3,2.27l-0.04,2l0,0
		l-0.1,0.06l0,0l-0.35,0.65l0.15,0.77l-1.03,0.44l-0.19,0.64l-1.41-0.23l-1.94,1.94l-0.77-0.23l-0.19-1.39l1.24-0.79l-0.27-0.54
		l0.31-0.16l0.26,0.36l-0.04-0.73l-1.13-0.53l-0.79,0.56l-0.69-0.17l-0.49,0.38l-1.41,0.1l-0.71,0.56l-0.08,0.79l-1.24,0.93
		l-0.08,0.58l0.57,0.72l-0.71,0.73l-0.49,1.78l-2.66-0.09l-1.78,0.46l-1.78,1.51l-0.56-0.74l-1.03,0.1l-0.36-0.41l-1.4-0.25
		l-0.62-0.63l0,0l-0.14-0.05l0,0l-0.73-0.63l-0.28-1.15l-1.24-0.32l-1.02,0.1l0.24,0.31l-0.73,0.59l0.16,0.6l-0.32,0.21l-1.94-0.75
		l0,0h-0.32l0,0l-0.66,0.2l-0.12-1.34l0,0l-0.43-0.52l0,0l-0.69-0.73l-0.56,0.27l-1.94-0.34l-0.73,0.3l-0.62-0.27l-0.03-0.43
		l-1.05,0.01l0.43-2.28l-1.37,0.04l-2.32-1.04l0,0l-0.15-0.48l-0.56,0.06l-0.43,0.47l-0.24-0.25l-0.87,0.24l-0.46,0.7l-1.03-0.1
		l-0.45,0.51l-1.46-2l-0.43-1.64l-0.46-0.13l-2.75-3.87l-0.2-0.96l-0.99-0.68l-0.5,0.13l1.02-1.31l-0.71-0.11l0.52-2.23l1.62-2.78
		l-0.76-0.51l0.33-2.96l1.36-0.77l2.19-2.35l0.91-0.12l0.86-1.27l0.77-0.36l0.17-0.54l-0.49-0.99l2.61-4.08l-0.25-1.02l-0.73-1.38
		l-1.21-0.8l-2.03,0.61l-0.83-0.31l-0.25-0.47l0.35-1.7l-2.22-0.8l-0.7-0.69l-0.22-1.36l0.44-0.95l-2.03-1.99l-0.44-1.58l0.64-1.21
		l0.13-1.62l-1.43-0.97l-0.45,0.22l-0.44-0.32l-0.26-1.39l-1.06-0.16l-1.01-1.5l-0.86-0.41l-0.75-2.35l-0.4-0.28l2.29,0.08
		l3.29,0.75l2.29-0.92l2.81,0.48l0.62-0.36l1.59,0.19l1.4-0.46l1.09-3.58l-0.25-1.4l0.88-0.41l1.19-1.39l0.08-2.14l0.45-0.39
		l0.13-1.58l0.57-1.13l-2.07-3.43l-1.64-0.33l-0.83-2.42l0.51-1.42l1.24-0.39l0.35-0.71l1.15,0.12L307.38,128.71z"/>
	<path id="ES-GA" fill="#1E3250" stroke="#1E3250" stroke-width="0.5" d="M251.81,58.72l0.5,0.59l-0.63-0.17L251.81,58.72z
		 M251.57,57.16l0.57,0.82l-0.45,0.58l0.24-0.47L251.57,57.16z M251.48,51.92l-0.66,1.48l-0.02-0.97l0.36-0.63L251.48,51.92z
		 M248.94,48.64l0.39,0.51l-0.28,0.25L248.94,48.64z M252.73,45.37l0.13,0.35l0.37-0.1l0.12,0.74l-0.43,0.08l0.11,0.67l-0.27,0.04
		l-0.21-0.33l0.29,0.07l-0.24-0.32l0.29-0.62l-0.62-0.39L252.73,45.37z M278.53,1.91l0.63-1.08l0.34,0.23l0.63-0.41l0.25,0.38
		l-0.33,1.08l0.57,0.94l-0.67-0.44l-0.04,1.25l-0.37,0.12l0.52,0.46l-0.91,0.04l0.68,0.39l0.8-0.52l-0.44-0.92l0.89-0.17l0.25,0.521
		l0.48-0.17l-0.62-0.56l0.5-0.24l-0.05-0.35l2.42-0.92l0.99-0.98L285,0l0.72,0.63l-1.04,1.44l0.54,0.22l0.23-0.62l0.99-0.24
		l0.23,1.16l0.59,0.16l-0.2,1.44l0.34,0.83l0.17-0.99l0.51-0.35l-0.22-0.7l0.73,0.06l0.04-0.76l0.9-0.24l0.27,0.5l1.25-0.03
		l-0.24,0.6l3.28,1.38l0.53,1.479l1.14,1.23l-0.36,0.33l0.48-0.15l1.19,0.7l-0.29,0.56L296.4,8.6l0.52,0.22l-0.25,0.22l0.64-0.7
		l2.01,0.59l1.38-0.3l1.88,0.22l0.17,0.74l-0.44,0.64l-0.09,1.76l0,0l-0.93,0.65l-0.38,1.05l-1.89-0.1L299,14.52l0,0l0.05,0.13l0,0
		l-0.12,0.68l0.49,0.3L300,15.3l0.25,0.45l-0.06,1.53l0.82,1.01l1.08-0.06l-0.27,1.34l0.26,0.89l1.11,1.12l0.3-0.33l0.25,0.57
		l0.82,0.16l0.15,0.58l-0.42,0.84l0.64,1.14l0.5,0.08l1.47-0.92l-0.05-0.35l0.79-0.19l0.91,1.06l-0.19,0.771l-1.12,1.16h-0.62
		l-0.54,0.63l-0.67-0.45l-0.74,0.94l0.03,0.98l-0.44-0.24l-0.43,0.771l0.68,0.93l0.41-0.02l0.05-1.48l1.27,1.72l1.02,0.03l0.94,1.13
		l-0.14,1.16l0.46,0.46l0,0l-0.46,0.31l0.18,0.91l-1,0.29l0.79,1.86l-0.74,0.79l0.05,0.53l-1.86,1.72l-0.67-0.49l-0.35,1.07
		l-1.04,0.07l-0.91,1.05l1.04,1.91l-1.15,0.56l-0.04,1.21l0.38,0.46l-0.84,1.13l0.17,0.88l-0.45,0.79l0.55,0.03l0,0l0.5,0.04l0,0
		l1.71,0.47l0.4-0.88l0.83-0.12l2.04,1.24l0.85-0.24l0.42,0.96l-0.41,0.521l0.19,0.92l-0.66,0.76l0,0l-0.02,0.08l0,0l0.58,0.65
		l1.07,0.17l0.39,0.55l0.9,0.28l-0.15,2.28l-1.62,2.37l0,0l0.14,0.3l0,0l-0.06,0.56l-1.26-0.71l-1.14,0.44l-0.41,0.9l-1.18,0.63
		l-0.23,1.58l-0.97,0.27l-0.43,1.37l-0.8,0.39l0.65,0.87l0.92-0.09l0.37,1.01l-0.73,1.17l0.15,0.78l0,0l-0.7,0.84l-1.67,0.05
		l-0.52-0.9l-0.84-0.47l-1.62,0.22l-0.29,1.4l0.35,0.85l-0.57,1.39l-3.17,1.33l-1.13,0.08l-0.27-0.38l-1.57,1.56l-0.7-1.91
		l-1.18-0.34l-0.94,1.11l-2.31,0.39l0.3-1.38l0.46-0.42l-2.03-0.14l-1.15-0.88l-1,0.54l-0.57-0.22l-0.85,0.56l-1.23,0.14l-1.18,1.04
		l-0.34-0.39l0.16-2.2L279.17,69l-0.51,1.77l-1.54,0.19l-0.98,1.52L275.01,73l-1.96,0.28l-1.01-0.35l-0.16-2.05l-0.85,0.11
		l-0.41-1.37l1.47-2.58l0.9-0.87l1.12-0.37l0.11-1.18l-0.8-1.17l-1.89,0.42l-0.41-3.15l-0.7,0.76l-0.63-0.22l-0.3,0.62l-1.65,0.69
		l-0.37,0.7l-0.87-0.21l-0.5,0.5l-1.14,0.16l-0.52-0.37l-2.1,0.09l-0.14,0.6l-0.54,0.3l-2.35,0.2l-0.67,0.72l-0.23,1.01l-2.19,1.37
		l-0.29,1.07l-1.76,0.84l-1.35,1.7l-0.28-0.49l-0.22-3.52l0.34-1l-0.67-4.05l0.58,0.02l0.78-0.64l0.45,0.58l0.28-0.14l0.14-0.87
		l-0.84-0.6l0.75-0.01l0.2-1.13l1.01-0.65l0.43-0.98l0.6-0.03l-0.36,0.08l0.33,0.18l2.19-2.14l1.34-0.09l-0.41-0.8l0.43-1.25
		l-0.58-0.36l-0.11,0.99l-0.65,0.42l0.04,0.87l-1.44,0.56L257,55.72l-0.37,0.07l-0.17,0.56l-0.75,0.49l-0.49-0.19l-0.26,0.61
		l-0.57-0.47l-0.47,0.29l-0.68-0.36l-0.21,0.54l-0.26-0.12l0.47-2.16l0.68,1.13l0.39-0.01l-0.08-1.25l-0.5-0.92h0.96l0.43,0.4
		l0.87-0.44l0.8-1.64l1.99-1.55l-0.82,0.25l-0.24-0.69l-2.26,1.91l-1.09-0.48l-0.66,0.61l-1.15-1.13l0.24-0.75l-0.37-0.8l-0.72-0.19
		l-0.39,0.42l-0.47-0.47l0.17-0.6l1.31-0.05l-0.06-0.46l0.55-0.28l0.43,1.06l-0.45,0.4l0.08,0.51l0.75-0.54l0.66,0.49l-0.39-1.21
		l0.63-0.43l-0.34-0.47l0.24-0.83L254,47.34l-0.28-1.15l0.55-0.32l-0.41-0.09l0.1-0.5l0.94-0.15l0.8-0.8l-0.34-0.49l0.63-1.21
		l-0.39-0.21l-0.94,0.61l-0.48-0.34l0.25-0.73l-0.76-0.79l0.01,0.96l-0.31-0.16l-0.28,0.7l0.63,0.52l-0.56,0.23l0.03,0.73L252.36,44
		l0.37-0.81l-0.72-0.23L251,44.11l0.48,0.78l-0.86,0.07l-0.29,0.55l-0.7,0.15l-0.03,1.12l-1.47,0.66l0.26-1.49l-0.6-0.68l-0.49,0.36
		l-0.46-0.37l1.35-2.16l0.5-2.78h0.38l0.65-1.14l0.85-0.19l0.89-1.47l0.41-0.17l0.66,0.72l-0.38-0.71l0.1-0.85l0.93-0.51l-0.42-0.03
		l-0.26,0.46l-0.48-0.68l-0.1,1.2l-0.45,0.19l-0.18-0.35l-0.81,1.02l-0.51-0.53l-0.03,0.55l-0.92-0.11l-0.1-0.78l-0.61,0.57
		l-0.61-0.04l0.41,0.71l-1.12,1.13l-0.29-0.58l-0.49,0.03l-0.48-1.4l-0.44-0.24l1.17-0.92l-0.1-0.72l-0.57-0.09l-0.54-1.07
		l0.59-1.29l-0.9-0.16l-0.93-1.69l0.3,1.53l-0.73-0.05l-0.32-0.9l-0.37,0.021l-0.02,0.53l-0.85,0.36l-0.1,1.35l-0.33-0.36l0.12-0.72
		l-0.63-0.43l0.12-0.67l0.8-1.23v-1.12l0.37,0.18l0.18-0.32l-0.79-0.22l-0.59-1.7l0.63,0.4l0.48-0.23l0.03-1.51l0.97,0.16l0.05-1.01
		l0.98,0.93l0.6-1.21l1.04-0.4l-1.1,0.23l-0.02-0.92l-0.5,1.06l-0.56-0.19l-0.28-1.22l0.41,0.26l0.51-0.43l0.16-0.97l0.5,0.34
		l0.19-0.49l0.41,0.19l0.14-0.27l1.34,0.62l1.06-0.44l0.8-1.48l0.42,0.61l0.45-0.46l0.96,0.06l-0.06,0.47l0.51-0.25l0.31-0.75h0.44
		l-0.45-0.09l-0.72,0.88l0.18-0.48l-0.4-1.1l-0.66,0.04l-0.41-0.51l0.93-0.71l0.78,0.45l0.08-0.44l0.48,0.03l-0.08-1.07l0.98,0.35
		l0.1-0.38l0.69,0.12l0.16-0.96l1.48,1.53l2.14,0.49l2.7-1.18l1.39,0.43l0.61-0.18l0.65-0.45l0.4-1.17l0.5,0.23l0.57-0.28l0.55-0.86
		l0.76,0.5l0.2-0.75l0.48,0.82l-0.54,0.19l0.52,0.33l0.07,0.85l-0.08-0.4l0.95-0.19l0.31-1.17l-0.46-0.1l0.14-0.58l1.17-0.35
		l0.33,0.78l0.85,0.09l0.44,0.66l-0.11,0.53l1.15,0.89l-0.09-0.53l0.32,0.17l-0.53-0.63l0.29-0.38l-0.31-1.1l0.41-0.62l0.88-0.06
		l0.03-0.31l-0.65-0.21L270.66,14l-0.38-0.41l-0.79,0.4l-0.57-0.66L267.91,13l0.36-0.07l-0.22-0.32l1.09-0.33l0.13,0.31l0.33-0.42
		l0.71,0.39l0.74-0.14l0.55-0.47l-0.09-0.41l0.36,0.21l0.23-0.7l-1.9,0.94l0.03-0.36l-0.46,0.11l0.05-0.58l-0.57,0.98l-0.79,0.25
		l-0.55-0.37l-0.6,0.44l-0.23-0.24l0.79-1.22l-0.24-0.83l0.87-0.59l-0.79-0.98l0.35-0.31l0.49,0.5l0.93-0.05l1.87-1.65l0.12-0.75
		l0.93,0.14l-0.03,0.73l0.39-1.39l0.82-0.21l0.49-0.98l0.18,1.09l0.42-0.229l0.5,0.4l-0.57-0.6h0.51l-0.03-0.42l-0.56,0.01
		l0.37-1.68l0.8-0.35l0.89,0.33l1.31-0.89l0.04-0.48L278.53,1.91z"/>
	<path id="ES-RI" fill="#1E3250" stroke="#1E3250" stroke-width="0.5" d="M443.67,67.53l-2.91,1.74l-0.5,0.03l-0.74-0.72l0,0
		l-0.159-0.16l0,0l-2.67-0.65l-0.23-1.24l0.36-0.31l-1.44-2.229l0.87-0.5l0.03-0.69l-2.92-0.16l-0.9,0.51l-0.38-1.55l-1.05-0.5
		l-3.271,0.3l-0.46,0.76l-0.76,0.31l-0.76-0.26l-0.05,1.63l-0.891,0.64l-0.89,2.06l-1.181-0.39l-1.33,0.35l-0.819-0.66l-1.13,0.22
		l-0.301-0.85l1.28-1.87l0.07-0.73l-0.771-0.78l-0.439,0.26l-0.6-0.23l-0.48,0.56l0,0l-0.07,0.25l0,0L417.77,65l-1.199,0.24
		l-0.83,0.78l-0.87-0.84l0,0v-0.29l0,0l-0.59-1.78l-2.62,0.08l-2.601-4.05l0.681-0.58l0.39-1.19l-0.47-2.47l0.31-0.45l0,0
		l-0.16-0.12l0,0l-0.22-0.85l1.26-0.33l-0.58-0.91l-0.56-0.01l0.11-1.12l0.609,0.02l-0.109,0.72l0.689,0.95l-0.18-1.99l0.45-0.79
		l-1.33-1.54l0.52-0.56l0.11-0.95l-0.44-0.35l-0.949,0.19l-0.261-0.33l0.801-0.43l0.779-1.19l0,0l0.41-0.1l0,0l-0.63-1.91l1.78,0.32
		l0.369-0.46l0.61,0.35l1-0.13l0.931,0.72l0.38-0.3l0.37,0.25l0.68-0.64l0,0l0.41,0.33l0.02,0.76l0.63-0.12l-0.04,0.77l-0.56,0.35
		l0,0l0.08,0.4l0,0l0.52,0.53l0.11-0.48l0.33,0.14l0.63-0.56l0.41-1.55l0.659,0.01l1.57,0.99l-0.27,2.01l0,0l-0.36,0.87l0,0
		l0.771-0.33l-0.03,0.6l0.6,0.24l0.271,0.74l1.13-0.73l0.28,1.13l0.68-0.79l1.05,0.38l-0.18-0.44l0.76-0.88l-0.13,1.08l1.02,0.15
		l0.771-0.38l0.74,0.26l0,0l0.6,0.61l1.28,0.31l0.189,0.49l0.37-0.09l-0.1-0.42l0,0l0.229-0.11l0,0l0.801,0.41l0.02-0.38l0.28,0.08
		l0,0l0.189,0.36l0,0l0.17,0.39l0.94,0.17l-0.061,0.38l0.75,0.25l-0.039,0.28l0.8-0.08l0.42,0.39l0.46-0.39l1.17-0.06l-0.17,0.75
		l1.01,1.13l-0.24,0.8l0.53,0.12l1.38-0.94l0.61,0.22l0.7,0.38l0.13,0.66l0.62-0.01l0.289,0.48l0.351-0.21l0.11,0.99l1.239,0.44
		l-0.06,1.33l0.49,0.09l0.09-0.34l0.82,0.39l0.159,0.73l2.641,0.58l0.399,0.75l0.601-0.01l-0.55,0.71l0.529,0.78l-0.57,0.4
		l-0.449,0.26l-1.11-0.65l-0.68,0.46l-1.12-0.53l-1.85,2.48l-0.37,0.97l0.189,1.03l1.23,0.98l0.239-0.17l0,0L443.67,67.53z
		 M412.61,44.25l0.05-0.14l0,0l0.07-0.11l0,0l-0.021-0.13l0,0l-0.01-0.04l0,0l0.27-0.03l0,0l-0.02,0.2l0,0l-0.13,0.16l0,0l-0.19,0.1
		l0,0L412.61,44.25z M414.07,44.21l0.17-0.16l0,0l0.33,0.41l-0.511-0.2l0,0v-0.05H414.07z"/>
	<path id="ES-MD" fill="#1E3250" stroke="#1E3250" stroke-width="0.5" d="M377.9,114.18l0.45,0.86l-1.69,0.1l0,0l0.05-0.6l0.78-0.51
		L377.9,114.18z M397.91,96.65l-0.04,0.58l0.81,0.48l0.57,1.49l1.73,0.42l-0.36,1.41l1.18,1.47l-0.54,0.49l-0.74,2.89l-0.47,0.01
		l0.521,0.92l-0.87,0.56l0.16,0.8l-1.16,1.95l1.27,0.15l0.48,0.65l0,0v0.11l0,0l-0.101,0.93l0.44,0.29l-0.88,1.42l0.64,0.41l0,0
		l0.03,0.11l0,0l0.5-0.22l0.48,0.41l0.319-0.78l0.57,0.49l0.189,1.14l0.66,0.33l0.641-0.55l-0.16,0.36l0,0l-0.04,0.4l0,0l-0.37,0.2
		l0.44,0.47l-0.25,0.58l1.27,0.91l-0.34,1.22l0.68,0.04l0,0l0.16-0.07l0,0l0.9-0.09l0.859,0.9l0.07,2.57l1.17,0.1l0.67,1.22
		l-0.6,1.31l0.31,0.63l-1.08,1.37l-0.399,2.27l0.619,0.47l0.601-1.05l1.04-0.77l0.359,0.39l0.561,1.74l-0.2,1.35l0.47,1.12
		l-0.55-0.21l-0.18,0.76l1.149,1.26l-0.88,1.2l-0.96,0.36l-1.08-0.11l-0.17-0.93l-0.51,0.32l0,0h-0.07l0,0l-0.38,0.79l-1.7,0.1
		l-0.25,0.33l-0.75-0.19l-0.819-1l-1.2,0.22l0.05,0.71l-0.59,0.7l-0.78-0.39l-0.6,0.33l-0.05-0.42l-0.58,0.3l-0.99-0.271l-0.39,0.98
		l-1.86,0.27l-0.77,0.8l0,0l-0.41,0.1l0,0l0.31,0.74l-1.92,0.69l-0.34-0.22l-0.95,0.51l-0.35,0.7l0,0l-0.18,0.11l0,0l-1.14,1.15
		l-1.66-0.63l-0.21-0.47l0,0l0.02-0.14l0,0l-0.2-0.28l0.54-0.42l0.52-0.1l0.2,0.41l0.66-0.88l0.64,0.29l0.69-0.67l-0.05,0.66
		l0.33-0.26l-0.15-0.5l0.63,0.28l0.11-0.24l0,0l-0.22-0.07l0,0l-0.14-0.3l0.61-0.29l0.36-1.12l0.44,0.15l1.75-1.44l0.39-1.9
		l-1.49-0.77l-0.13-0.46l-0.58,0.37l-0.88-0.53l-0.61,0.51l-0.76-0.22l-0.98-1.36l-0.77,0.57l-1.08-1.05h-1.06l-0.44-0.45
		l-0.51,0.51l-0.11-0.84l-1.04,0.13l-0.93-0.93l0.05-0.48l-1.32-0.59l-0.82,0.83l-1.16-0.13l0.04-0.65l-1.31-1.1l-1.57,0.8
		l-0.62,1.4l-0.68,0.51l-0.26-0.5l-0.37,0.29l-0.31-0.46l-0.45,0.03l-0.18-2.5l-0.6-0.37l-0.14,1.05l-1.4,1.05l-0.07,0.76
		l-2.12,0.74l-0.43,0.6l-1.33-0.6l0,0l0.52-0.27l-0.24-1.23l1.08-1.23l-0.48-1.74l0.54-0.09l0.68,1.03l1.29-0.15l-0.17-0.76
		l0.6-0.33l-0.1-1.31l0.56-0.73l2.72-0.15l-0.51-0.93l0.68-1.03l-0.32-2.47l0.16-0.54l0.87-0.5l0.3-1.37l-0.33-0.88l0,0l0.52-0.01
		l0.22,0.79l0.45,0.13l0,0l0.45-0.04l0,0l1.86-0.7l-0.36-1.55l0.38-0.78l0,0l1.74-2.14l0.73-1.59l1.15,0.42l1.34-0.21l1.12-5
		l0.44-0.09l0.79-1.38l3.06-1.23l1.1-1.88l1.71-1.05l1.23-1.89l1.149-0.82L397.91,96.65z"/>
	<path id="ES-MC" fill="#1E3250" stroke="#1E3250" stroke-width="0.5" d="M474.21,216.69l-0.2,1.18l0.57,2.05l-0.7-1.93
		L474.21,216.69z M473.98,215.62l-0.061,0.6l0.521,0.46l-0.54-0.41l-0.21-0.6L473.98,215.62z M430.54,207.06l0.27-1.41l1.71-1.42
		l1.48-3.29l2.68-1.17l0.95-1.34l0,0l0.36-0.66l0,0l0.5-0.37l1.77,0.85l1.99-0.56l3.4-2.02l-0.301-0.46l0.67,0.14l0.03-0.46
		l0.69-0.06l0.72,0.6l0.45-0.38l0.51,0.5l-0.26,0.53l0,0l0.01,0.14l0,0l0.62,1l2.16,0.02l3.02-2.26l-0.05-3.72l-0.47-1.81l0.27-0.94
		l0.95-0.67l0.11-2.33l1.71-1.69l0.51-0.18l0.65,0.92l2.54-2.08l0,0l0.329-0.16l0,0l1.37-0.43l1.82,0.56l0.1,0.95l2.44,1.91l0,0
		l0.69,2.85l-0.65,1.75l0.32,0.92l-2.15,2.03l0.4,0.21l-0.19,2.93l2.9,0.33l0.6,1.52l-0.6,2.85l-1.34,2.2l0.17,1.55l3.189,6.07
		l1.971,2.09l1.3,0.66l0.569-0.08l0,0l0.381,1.95l-0.98-0.97l-0.53,1.41l-1.109,0.96l-0.44,0.98l1.66,2.2l1.7,0.91l0.59-0.79
		l0.42,0.7l0.399-0.04l-0.899,1.09l-1.66,0.4l-1.02,0.69l-0.681-0.34l-0.87,0.23l-1.149,0.84l-1.17-0.23l-0.12-0.27l0.57-0.08
		l-0.801-0.19l-0.26-0.42l0.26-0.32l-0.52-0.11l0.14,0.68l-0.55-0.14l-0.41,0.44l-1.37-0.38l-0.989,0.54l-0.46,0.57l0.439,0.61
		l-1.51-0.24l-0.15-0.63l-0.88-0.65l-1.14-0.09l-0.311,0.65l-1.91-0.17l-2.02,1.9l-1.6,0.7l-0.74,2.19l-0.891-0.29l-1.159,0.92
		l-0.92,0.15l-0.87,0.88l0,0l-2.96-2.32l-2.05-0.37l0.039,0.62l-0.979-0.72l-4.08-6.6l0,0l-0.18-0.19l0,0l-0.3-1.64l0.47-0.92
		l-0.37-1.65l0.37-2.29l0.569-0.79l-0.199-0.26l0,0l-0.17,0.01l0,0l-0.49-0.21l-0.44,0.39l-1.109-0.51l-0.601,0.35l-1.069-0.94
		l-1.311,0.41l-2.189-1.7l-1.25-2.23L430.54,207.06z"/>
	<path id="ES-NC" fill="#1E3250" stroke="#1E3250" stroke-width="0.5" d="M449.2,17.98l0.81,0.18l-0.18,0.89l0.61,1.16l0.869,0.08
		l0.54-1.08l-0.17-0.35l1.33-0.21l1.41,0.84l1.36-0.05l0.81,0.77v2.33l-0.53,0.43l-0.35,1.86l-1.6,1.46l0.899,1.56l2.351,0.66
		l0.26-2.46l0.67-0.69l1.33-0.19l-1.061,1.82l1.261,0.95l1.33-0.32l1.89,1.04l0.07,0.6l0.76-0.59l0.91,0.88l1.88,0.3l0.42,0.65
		l1.439,0.79l1.03-0.38l0.271,0.33l2.37,0.14l1.479-0.63l0.66,0.84l-0.18,0.4l0.35,0.56l0,0l-1.57-0.07l-0.939,0.71l-0.08,1.26
		l-1,0.79L470.8,37l0.33,0.45l-0.46,0.89l-0.97,0.08l-0.01,0.64l-0.61-0.01l-1.26,1.48l-1.54,0.11l-0.38,0.35l-0.011,1.62
		l-3.06-0.04l-0.12,1.36l-0.6-0.02l0.56,0.46l-1.18,0.79l-0.04,1.07l0,0h-0.141l0,0l-0.569,0.25l-0.96-0.53l-0.641,1.24l0.33,1.78
		l-1.76,1.87l-0.49,1.68l0.66,0.27l0.14,0.6l-1.89,2.29l0.2,0.66l-0.7,1.97l0.68,1.44l-0.189,1.99L457,62.47l0.39,1.22l0.841,0.02
		l0,0l0.279-0.03l0,0l0.16,1.1l-0.93,0.93l-1.19,2.2l0.09,0.49l-0.76,0.9l-2.51-0.15l0,0l-0.32,0.3l0,0l-0.52,0.16l0,0l-0.66-0.13
		l0,0l-2.62-1.83l-1.7,0.31l-1.43-1.39l-1.87,0.03l-0.28-0.55l0,0l-0.239,0.18l-1.23-0.99l-0.19-1.021l0.36-0.979l1.86-2.47
		l1.109,0.53l0.681-0.46l1.109,0.65l0.45-0.26l0.57-0.4l-0.53-0.78l0.55-0.71h-0.6l-0.41-0.75l-2.64-0.58l-0.16-0.729l-0.82-0.39
		l-0.09,0.33l-0.49-0.09l0.061-1.32l-1.24-0.44l-0.1-0.99l-0.351,0.21l-0.29-0.47l-0.609,0.01l-0.141-0.67l-0.7-0.38l-0.6-0.22
		l-1.38,0.94l-0.53-0.12l0.25-0.8l-1.02-1.13l0.17-0.75l-1.17,0.06l-0.46,0.39l-0.42-0.39l-0.801,0.09l0.03-0.28l-0.74-0.26
		l0.061-0.38l-0.95-0.17l-0.17-0.38l0,0l-0.18-0.36l0,0l-0.29-0.08l-0.021,0.38l-0.8-0.41l0,0l-0.24,0.11l0,0l0.11,0.42l-0.37,0.09
		l-0.19-0.48l-1.279-0.31l-0.601-0.61l0,0l-0.02-0.77l0.83-0.26L429,44.43l-0.71-0.29l-0.8,1.4l-0.29-0.72l-0.75,0.03l-0.24-1.08
		l0.46,0.12l0.84-1.24l0.98-0.58l0.87,0.22l0.3,0.49l-0.25,0.33l2.42-0.65l0.09-0.59l-0.12-0.36l-0.47,0.2l-0.35-1.89l0.189-0.58
		l1.49-0.35l-0.49-1.42l1.29-2l-0.26-1.68l0,0l-0.22-0.32l0,0l0.319,0.01l0.04-1.07l0.74-0.95l0.8,0.53l1.45-0.18l0.63-0.3
		l0.35-0.95l1.41-0.25l0.3-0.65l-0.369-1.23l0.55-0.61l0,0l0.069-0.34l0,0l0.15-0.61l1.771-0.91l1.22-1.41l-0.48-0.65l0.17-2.66
		l0.87,0.62l0.16-0.87l0.4,0.729l0.319-0.43l0,0l0.23-0.05l0,0l1.28-0.78l0.05-1.14l0,0l0.3-0.34l0,0l0.06-0.07l0,0l0.41,0.04l0,0
		l0.9-0.5l0,0l1.02-0.5L449.2,17.98z"/>
	<path id="ES-IB" fill="#1E3250" stroke="#1E3250" stroke-width="0.5" d="M533.41,182.06l0.479,0.79l0.431-0.1l0.159,0.89l1.03,0.86
		l0.37,0.17l1.06-0.66l0.44,0.8l-0.32,0.6l-1.33-0.05l-1.01-0.86l-1.069-0.25l-1.721,1.53l-0.13-2.72l0.44-0.55l0.25,0.24l0.58-0.31
		l0.18-1.22L533.41,182.06z M532.95,180.34l0.28,0.77l-0.42-0.35L532.95,180.34z M536.03,169.18l0.6,0.83l1.271,0.1l-0.17,0.27
		l0.319,0.13l-0.5,0.14l-0.09,0.44l0.9,1.23l-0.99,0.43l-0.11,0.9l-1.27,0.21l-0.09,0.96l-0.301,0.1l0.24,0.27l-0.5-0.06l-0.91,1.18
		l-0.54-0.16l-0.01,0.49l-0.46-0.45l-0.04,0.46l-0.479-0.02l-0.45,0.94l0.08,1.56l-0.59-0.37l-0.37,0.41l-0.73-1.38l-0.66,0.5
		l-0.05-0.36l-0.54,0.16v-0.47l-0.72-0.13l-0.65,0.81l-0.649-0.54l-0.3-1.09l0.62-1.29l-0.57-0.67l0.38-0.56l0.43,0.29l1.67-0.22
		l-0.6-0.7l0.38-0.58l-0.13-0.78l1.31-0.76l0.471-0.72l0.46,0.4l0.35-0.6l0.78,0.06l0.2-0.5l0.43,0.39l1.27-1.02l0.29,0.41
		l0.271-0.53L536.03,169.18z M574.62,167.55l0.61,0.21l-0.53,0.38l0.03,0.72l-1-0.02l-0.12-1.2l0.399,0.64l-0.06-0.41l0.56,0.21
		L574.62,167.55z M557.67,152.72l-0.75,0.53l0.94-0.93L557.67,152.72z M581.65,139.61l-0.271,0.55l-1.29,0.73l-0.64-0.13
		l-0.561,0.99l-0.51-0.43l-0.33,0.37l0.09,0.83l0.58,0.66l2.681-1.11l-0.4,0.31l0.21,0.72l-0.5,0.72l-1.5,0.21l-0.02,1.07l0.52,0.93
		l0.76,0.7l2.3,0.98l2.051-1.08l0.52-1.04l2.34,1.57l0.721-0.06l-0.17,0.87l0.71,0.26l-0.63,0.35l-0.021,1.72l-0.39-0.02
		l-0.131,0.77l-0.789-0.08l-0.381,0.53l-0.22,1.12l0.49,0.37l-0.69,0.14l-0.29,0.85l-0.979,0.45l0.22,0.14l-1.439,1.7l-0.351,2.52
		l-0.34-0.35l0.17,0.33l-0.84,1.63h-0.311l0.2,0.2l-1.239,0.41l-0.45,0.87l-0.67-0.12l-2.03,2.14l-0.61,0.12l-1-1.55l-0.75-0.21
		l0.091-0.78l-0.841-0.85l-0.779-0.06l-0.44,0.44l-0.81-0.479l-1.301-0.07l-0.18,0.39l-0.6-0.38l-0.53,0.15l-1.26-1.55l0.14-1.23
		l-0.68-1.21l0.72-1.22l-2.14-1.79l-0.971,0.05l0.25-0.22l-0.29-0.04l-0.25,0.65l0.45-0.15l-0.21,0.3l-0.71-0.23l-0.43,0.73
		l-1.391,0.25l0.21,0.44l-0.369,0.22l-0.29,1.67l-0.88-0.52L561.59,157l0.08-0.88l-0.62-0.5l0.641-0.42l-0.75-0.67l-0.891,0.49
		l0.09-0.5h-0.46l-0.489,0.59l0.01-0.47l-0.69,0.06l0.73-0.51l-0.48,0.08l-0.699-0.72l0.27-1.42l2.88-1.68l1.82-1.75l0.74,0.04
		l0.84-0.58l0.91-1.4l1.18-0.58l0.16-0.69l0.34-0.23l0.32,0.3l0.17-0.7l2.06-1.02l0.08-0.55l1.83-0.19l0.24-0.48l2.22-1.02l0.4-0.59
		l0.89,0.41l1.63-1.02l-0.11,0.27l0.62-0.1l-0.029,0.46l0.89-0.55l0.72,0.13l1.24-0.98l0.41-0.04l-0.181,0.34L581.65,139.61z
		 M607.66,143.5l-3.59-2.36l-2.061-0.79l-1.63,0.56l-2.06,0.02l0.27-2.8l-0.96,0.11l-0.19-0.771l0.851-1.1l1.21-0.23l0.85-0.06
		l0.63,0.49l0.33-0.6l1.221,0.42l1.439-0.51l0.58,0.48l0.96-0.59l-0.2-0.72l0.471,0.11l-0.17,0.93l0.3,0.53l0.81-0.66l-0.17,1.31
		l0.37-0.3l-0.1-1.13l0.97,0.22l-0.32,0.92l0.57,0.44l0.36-0.36l0.279,1.38l0.05-0.7l0.341,0.57h1.359l-0.39,0.14l0.31,0.38
		l-0.319,0.63l0.399,0.17l-0.12,0.46l0.41-0.17l0.141,1.37l0.609,0.49l0.061,0.64l0.46,0.14l-0.46,0.22l-0.391-0.73l-1.05-0.18
		l1.061,0.52l0.3,0.57l-0.101,1.17l-0.85,0.82l-1.75-0.56L607.66,143.5z"/>
	<path id="ES-PV" fill="#1E3250" stroke="#1E3250" stroke-width="0.5" d="M418.47,12.92l0.9-0.37l0.32,1l1.29,0.87l1.229-0.37
		l0.78,0.91l0.45-0.11l0.47,0.47L424.5,15l0.35,0.63l1.08-0.12l1.311,1.521l2.88,1.38l1.96,0.13l1.49-0.6l0.6,0.26l0.09-0.29
		l0.351,0.71l0.899,0.28l3.44-1.29l1.069,0.2l-0.05-0.37l0.86-0.47l1.24,0.06l1.84-1.6l1.58-0.6l0.229,1.23l-0.689,0.42l1.33,0.28
		l0.569,0.5l0.16,1.16l0,0l-0.9,0.5l0,0l-0.409-0.04l0,0l-0.061,0.06l0,0l-0.3,0.34l0,0l-0.05,1.15l-1.28,0.78l0,0l-0.229,0.05l0,0
		l-0.32,0.42l-0.4-0.72l-0.159,0.86l-0.87-0.61l-0.171,2.66l0.48,0.65l-1.22,1.4l-1.771,0.91l-0.14,0.61l0,0l-0.07,0.34l0,0
		l-0.55,0.6l0.37,1.23l-0.29,0.65l-1.42,0.25l-0.35,0.94l-0.631,0.3l-1.449,0.18L434.1,31.4l-0.75,0.95l-0.04,1.07l-0.329-0.01l0,0
		l0.22,0.32l0,0l0.26,1.68l-1.29,2l0.49,1.42l-1.49,0.35l-0.189,0.58l0.34,1.9l0.47-0.21l0.13,0.36l-0.09,0.59l-2.42,0.65l0.26-0.33
		l-0.31-0.49l-0.86-0.22l-0.98,0.58l-0.84,1.25l-0.46-0.13l0.24,1.09l0.75-0.03l0.29,0.72l0.8-1.4l0.71,0.28l0.11,2.98l-0.83,0.26
		l0.02,0.76l0,0l-0.739-0.26l-0.771,0.38l-1.02-0.15l0.13-1.08l-0.76,0.88l0.18,0.44l-1.05-0.38l-0.681,0.79l-0.279-1.13
		l-1.131,0.73l-0.27-0.74l-0.6-0.24l0.029-0.6l-0.77,0.33l0,0l0.359-0.87l0,0l0.271-2.01l-1.57-0.99l-0.659-0.01l-0.41,1.55
		l-0.631,0.56l-0.329-0.14l-0.11,0.48l-0.52-0.53l0,0l-0.08-0.4l0,0l0.56-0.35l0.04-0.77l-0.63,0.12l-0.021-0.76l-0.409-0.33l0,0
		l-0.841-0.38l-0.29-0.7l0,0l0.07-0.07l0,0l-0.14-0.87l-0.76-0.52l-1.36,0.14l-0.99-1.23l0,0v-0.13l0,0l-0.689,0.05l-0.181-0.96
		l-2.67,0.29l0.63-1.17l-0.92-0.57l1.36-2.5l-0.28-0.77l-1.05,1.3l-0.93-0.46l-0.82,1.12l0.42,0.41l-0.26,0.05l-1.92-2.05
		l1.649-2.51l2.15,0.57l-0.061,0.6l1.54,0.69l1.971-0.33l1.069-1.11l-1.68-1.18l0.13-0.4l-0.67-0.8l-2.27-0.15L407.8,28.7l0.95-0.29
		l0.02-1.4l-0.449-0.26l0.619-0.86l-0.199-0.46l-0.29,0.2l-0.78-0.53l1.061-1.82l-0.65-0.42l-1.48,0.22l-0.85-0.98l-4.46,2.39l0,0
		l-0.46-2.8l0,0l-0.18-0.28l0,0l-0.221-0.71l1.391-0.38l0.42-0.89l1.189-0.29l0.2-0.84l0.25,0.3l0.75-0.29l0.43,0.39l1.46-0.7
		l0.421,0.93l0.5-0.55l0.909-0.12l0.11-1.94l0,0l0.7-0.06l0.32,0.43l0.189-0.74h0.32l1.38,0.91l0.39-0.28l-0.3,0.27l0.64,0.5
		l0.171-0.85l-0.62-0.95l0.88-0.33l0.93-1.12l0.64,0.01l-0.01-0.87l3.74,0.21L418.47,12.92z M404.86,22.15l-0.601-2.02l1.09-0.51
		l0.471,0.26l-0.54,1.05l0.029,1.05l0,0L404.86,22.15z M417.04,37.18l0.07,0.02l0,0l0.1,0.17l0,0l0.16,0.14l0,0l2.5-0.29l2.39,1.05
		l1.101-0.19l0.38,0.73l0.83-0.45l-0.42,1.43l-0.4,0.47l-0.3-0.14l-0.24,0.69l0.87,1.04l1.48-0.57l0.149,1.39l-0.84,0.27l-0.17-0.39
		l-2.21,0.07l-0.63-0.91l-1.23-0.06l-0.38,0.44l-1.34-0.15l-0.48-1.18l-1.069-0.38l-1.221-1.14l0.82-1.54l0,0L417.04,37.18z"/>
	<path id="ES-VC" fill="#1E3250" stroke="#1E3250" stroke-width="0.5" d="M454.74,133.14l1.279,0.18l0,0l0.311,0.18l0,0l0.479-0.2
		l0.62,0.3l0,0l0.49-0.43l0,0l0.45-0.2l-0.01-1.78l0.54-0.46l0.029,0.32l0,0l0.17,0.43l0,0l0.431,1.05l0.81,0.5l0.01,1.02
		l2.641,0.13l1.92,1.54l0.17,0.69l-0.33,0.47l-2.22,0.91l0,0l-2.25,0.57l-0.72-0.23l0,0l-0.051-0.1l0,0l-2.66-0.34l-1.22-2.72
		l0.28-0.27l-1.19-0.86L454.74,133.14z M463.16,139.24l0.479,0.33l0.21-0.37l0.65,0.15l0.55-0.39l2.271-0.07l1.51,0.85l0.32-0.28
		l0.439,0.89l-0.24,0.76l0.341,0.98l-0.301,0.63l1.15,0.87l2.03-1.2l-1.13-1.51l0.06-1.88l1.46-0.59l0.73-1.85l1.96,0.07l1.369-1.06
		l0.44,0.13l-0.36-1.16l0.5-0.82l0.83-0.39l0.96-4.06l1.38,0.84l1.811-0.55l1.18-0.71l-0.47-1.08l0.3-0.41l0.63,0.03l0.74-1.24
		l1.58-0.91l-0.15-0.79l-1.63-1.96l0.351-0.54l1.68-0.67l-0.12-0.81l-0.65-0.56l0.19-3.41l-0.83,0.25l-1.24-0.38l-0.26-1.87
		l1.33-0.5l0.61,0.69l1.93-1.09l0.16-1.77l0.93-1.54l1.41-0.05l0.03,0.62l0.97,0.86l1.23,0.58l1.09-0.09l0,0l0.54-0.03l0,0
		l0.54,0.18l0,0l0.01,0.11l0,0l0.32,1l0,0l0.319,0.12l0,0l1.84-1.27l1.061,0.28l0.62-0.52l0,0l0.75,0.35l0.77-0.3l0.311,1.13l0,0
		h0.149l0,0l0.63-0.08l0,0l0.271,0.27l0,0l0.08,0.09l0,0l0.2,0.08l0,0l-0.551,1.63l0.41,0.56l1.59,0.74l1.7,0.21l1.12,0.87
		l-0.13,1.09l2.06,0.88l0,0l-1.01,2.29l-0.05-0.27l-1.54,2.36l-0.25,1.52l-2.25,2.9l-1.061,0.81l-0.569,1.58l-1.97,1.26l-1.32,3.3
		l-2.65,1.74l-1.49,4.14l-1.609,1.95l-0.49,0.04l-2.66,4.4l-0.82,2.81L487.04,152l-1.56,3.42l0.05,2.14l-0.38-0.29l0.34,0.58
		l-0.45,0.21l0.84,3.67l2.43,5.08l-0.62,0.43l0.061,1.09l2.1,5.19l3.771,4.14l3.96,0.88l-0.43,0.14l0.189,0.3l0.141-0.29v0.39
		l2.079,1.05l-0.399,0.39l0.22,0.68l0.521,0.48l0.38-0.15l0.27,0.97l-1.399,0.55l-0.891,1.38l-0.56-0.21l-0.851,0.48l-0.67,0.94
		l0.25,0.5l-0.93-0.36l-0.53,0.56l-0.88-0.17l-0.72,0.43l-0.94,1.38l0.351,0.56l-1.271,1.33l-1.47-0.39l-0.59,0.68l-3.101,0.98
		l-2.41,1.58l-0.779,1.34l0.01,1.79l-1.16-0.34l-1.189,1.24l0.26-0.58l-0.61,0.29l-0.42,1.8l0.29,2.69l-0.4,0.48l-1.909,0.04
		l-0.591,0.6l-0.75,2.46l-0.119,3.4l-0.551,0.89l-0.89,0.3l-0.59,1.91l-0.84,0.47l-0.311,1.72l0,0l-0.569,0.08l-1.301-0.66
		l-1.97-2.09l-3.189-6.07l-0.171-1.55l1.341-2.2l0.6-2.85l-0.6-1.52l-2.9-0.33l0.19-2.93l-0.4-0.21l2.15-2.03l-0.32-0.92l0.65-1.75
		l-0.69-2.85l0,0l1.74-0.03l1.29-1.37l-1.25-2.65l0.899-0.42l0.141-1.36l-0.351-1.11l0.32-1.3l-0.66-0.59l-0.3-1.19l-1.12-0.2
		l-0.88,0.54l-3.01,0.19l-2.23-3.34l-1.01-0.75l0.21-2.11l2-3.62l0.52-3.35L461.28,162l-0.32,0.33l-0.91-0.35l0,0l-0.16-0.08l0,0
		l-0.569-0.07l0,0h-0.16l0,0l-0.94-0.35l0,0l-0.18-0.05l0,0l-0.23,0.29l-0.84-0.77l-0.47,0.04v-0.44l-0.67-0.05l0.29-0.31
		l-0.69-0.16l-0.05,0.65l-0.06-0.33l0,0l-0.061-0.16l0,0l-0.67,0.49l0,0l0.12-0.06l0,0l0.05-0.48l-0.5-0.18l0.391-0.01l-0.19-0.61
		l0,0l-0.07,0.06l0,0l-0.38,0.21l0.26-0.32h-0.609l0.18-0.65h-0.6l0,0l0.199-0.24l0,0l-0.63-0.09l-0.229-0.81l0.41-0.15l0.27-0.7
		l-0.24-0.63l0.351-0.16l-0.101-1.64l-0.479-0.09l1.569-0.95l1.591-3.14l0.93-0.79l0.78,0.29l0,0l0.729,0.35l0,0l0.96-0.29
		l0.44-0.68l-0.351-1.4l1.601-2.42l0.46-3.35l0,0l0.09-0.43l0,0l-0.39-0.7l0.18-0.58L463.16,139.24z"/>
</g>
</svg>
