<?xml version="1.0" encoding="utf-8"?>
<!-- Generator: Adobe Illustrator 15.0.0, SVG Export Plug-In . SVG Version: 6.00 Build 0)  -->
<!DOCTYPE svg PUBLIC "-//W3C//DTD SVG 1.1//EN" "http://www.w3.org/Graphics/SVG/1.1/DTD/svg11.dtd">
<svg version="1.1" id="Layer_1" xmlns:amcharts="http://amcharts.com/ammap"
	 xmlns="http://www.w3.org/2000/svg" xmlns:xlink="http://www.w3.org/1999/xlink" x="0px" y="0px" width="844.795px"
	 height="1862.566px" viewBox="0 0 844.795 1862.566" enable-background="new 0 0 844.795 1862.566" xml:space="preserve">
<defs>
	
	
		<amcharts:ammap  projection="mercator" bottomLatitude="55.338154" leftLongitude="11.105169" topLatitude="69.061149" rightLongitude="24.170696">
		</amcharts:ammap>
</defs>
<g>
	<path id="SE-M" fill="#1E3250" stroke="#1E3250" stroke-width="0.5" d="M111.67,1808.39l81.62-0.88l22.54-71.279l-0.77-46.16
		l-62.91,5.88l-35.75-5.54L88.59,1709l36.52,66.07L111.67,1808.39z"/>
	<path id="SE-O" fill="#1E3250" stroke="#1E3250" stroke-width="0.5" d="M47.85,1558.88l-3.09,1.01l3.27,1.73L47.85,1558.88z
		 M40.36,1553.71l-1.55-3.25l-1.14,3.851L40.36,1553.71z M39.16,1532.77l-4.71,2.091l1.81,2.37L39.16,1532.77z M45.45,1513.04
		l-14.58,3.479l5.86,10.561L45.45,1513.04z M48.51,1491.49l-23.17,13.24l3.09,6.75l21.01-6.141L48.51,1491.49z M1.67,1413.64
		L0.22,1419l4.52-0.01L1.67,1413.64z M77.69,1379.3l-27.86-4.77l-12.08,41.88l-30.47-7.09l6.82,70.66l40.07,1.55l-4.48,3.53
		l4.89,9.829l-7.89,36.011l-6.24,7.13l15.53,29.069l72.87,47.82l59.65-81.64l36.98-95.82l-24.23-35.51l-21.35-3.84l-17.32,52.21
		l-77.78,27.56l23.51-81.25L77.69,1379.3z"/>
	<path id="SE-K" fill="#1E3250" stroke="#1E3250" stroke-width="0.5" d="M233.62,1742.02l0.45-1.38l-1.26-0.489L233.62,1742.02z
		 M290.45,1738.68l0.15,2.061l1.28-2.16L290.45,1738.68z M283.74,1729.061l1.3,4.97l1.82-4.78L283.74,1729.061z M241.64,1728.48
		l-1.57,0.27l1.21,1.32L241.64,1728.48z M271.7,1731.17l0.62-2.72l-2.93,1.47L271.7,1731.17z M276.83,1730.57l-1.66-2.51l-1.2,2.039
		L276.83,1730.57z M280.86,1730.86l0.06-3.41l-2.12,2.66L280.86,1730.86z M288.8,1727.6l-2.68,0.101l2.52,2.739L288.8,1727.6z
		 M267.48,1725.21l-0.82-0.76v1.489L267.48,1725.21z M279.02,1687.42l-14.19,2.141l-49.77,0.51l0.77,46.16l12.97,2.529l-5.17-9.38
		l2.58-5.49l38.78,2.891l2.32-4.2l4.6,3.03l6.45-6.2l14.53,5.38l-2.29,5.75l3.82,2.18l12.98-27.17L279.02,1687.42z"/>
	<path id="SE-C" fill="#1E3250" stroke="#1E3250" stroke-width="0.5" d="M460.16,1258.63l-1.7,1.23l3.85,0.5L460.16,1258.63z
		 M458.02,1261.15l-0.229-2.061l-4.61-1.83L458.02,1261.15z M463.05,1251.311l-1.51-1.32l-0.76,1.42L463.05,1251.311z
		 M451.05,1229.05l-2.25,10.511l9.97,7.629L451.05,1229.05z M449.3,1222.05l-0.67-2.34l-2.33,1.25L449.3,1222.05z M404.52,1223.09
		l-17.79-14.76l-9.11,38.6l-1.91,50.051l-24.65,11.939l10.83,31.92l28.94,17.49l67.189-88.47L404.52,1223.09z"/>
	<path id="SE-AB" fill="#1E3250" stroke="#1E3250" stroke-width="0.5" d="M416.46,1431.62l-0.72-1.24l0.569,4.36L416.46,1431.62z
		 M407.58,1422.04l-1.55-1.86l1.31,3.36L407.58,1422.04z M431.12,1420.33l1.689-3.94l-2.77,3.75L431.12,1420.33z M415.47,1421.03
		l-0.04-5.38l-3.41,11.939L415.47,1421.03z M433.87,1414.88l3.51-4.04l-2.46,0.271L433.87,1414.88z M445.88,1407.7l-9.7,6.58
		l7.431-1.841L445.88,1407.7z M426.25,1410.74l0.04-3.98l-2.31,5.08L426.25,1410.74z M437.57,1400.99l-6.851,0.21l-3.2,7.26
		L437.57,1400.99z M435.34,1397.89l-1.2-0.779l-1.02,1.45L435.34,1397.89z M457.48,1396.72l-1.7,0.591l-0.431,2.989L457.48,1396.72z
		 M405.54,1412.7l-1.48-17.3l-2.25,13.539L405.54,1412.7z M461.05,1394.561l1.181-3.061l-1.61,1.21L461.05,1394.561z
		 M469.26,1393.12l1.28-2.57l-2.03,1.71L469.26,1393.12z M452.06,1397.14l1.41-7.01l-8.35,9.81L452.06,1397.14z M459.8,1389.37
		l0.75-0.86l-1.569,0.67L459.8,1389.37z M464.43,1381.689l-1.04,0.25l-0.79,1.73L464.43,1381.689z M469.13,1380.561l-2.85-1.311
		l-1.891,3.77L469.13,1380.561z M450.33,1378.83l-0.14-0.87l-1.19-0.25L450.33,1378.83z M461.71,1376.27l-1.67,0.961l1.55,0.22
		L461.71,1376.27z M471.59,1373.18l1.95-3.449l-5.34,3.18L471.59,1373.18z M480.66,1371.54l-0.61-2.13l-1.12,0.52L480.66,1371.54z
		 M456.14,1369.8l-10.81-1.26l16.189,4.86L456.14,1369.8z M478.48,1367.4l0.51-0.211l-2.37,0.221L478.48,1367.4z M479.78,1361.87
		l-2.181,0.31l-0.85,3.721L479.78,1361.87z M466.72,1359.72l-1.25,8.79l4.21-3.84L466.72,1359.72z M476.85,1357.8l-0.029-1.2
		l-1.12,0.471L476.85,1357.8z M481.86,1359.11l-1.62-3.23l-1.34,0.62L481.86,1359.11z M448.96,1355.29l-2.57-0.97l4.141,3.149
		L448.96,1355.29z M486.36,1354.51l-0.181-0.29l-0.189,0.351L486.36,1354.51z M482.39,1353.9l-0.56,3.35l1.9-2.53L482.39,1353.9z
		 M444.89,1353.95l1.181-0.521l-3.2-1.02L444.89,1353.95z M498.36,1352.689l-0.051-1.459l-0.81,0.17L498.36,1352.689z
		 M479.48,1354.45l0.17-3.49l-3.101,2.7L479.48,1354.45z M516.02,1351.73l-0.189-0.86l-0.62,0.26L516.02,1351.73z M468.98,1349.62
		l-5.631,2.16l4.19-0.17L468.98,1349.62z M474.49,1347.43l-0.69-0.72l-6.49,1.5L474.49,1347.43z M495.66,1344.189l-0.79,0.551
		l-0.09,0.88L495.66,1344.189z M465.89,1340.48l-10.529,6.199l2.779,7.25L465.89,1340.48z M488.11,1335.12l-1.811,0.87l3.311-0.37
		L488.11,1335.12z M493.84,1334.59l2.16-1.08l-0.46-0.84L493.84,1334.59z M500.46,1331.28l-0.58,0.37l-0.29,0.989L500.46,1331.28z
		 M483.49,1329.96l-1.38-3.58l-5.681,6.851L483.49,1329.96z M488.03,1327.15l-0.92-1.021l-0.891,1.46L488.03,1327.15z
		 M471.89,1335.79l8.521-9.88l-10.15,9.729L471.89,1335.79z M494.35,1326.54l-0.58-1.13l-1.3,0.31L494.35,1326.54z M478.67,1324.45
		l-3.14,0.47l2.64,0.95L478.67,1324.45z M496.41,1325.68l0.42-1.17l-1.04-0.16L496.41,1325.68z M494.91,1323.79l-0.08-0.2
		l-0.07,0.13L494.91,1323.79z M509.39,1320.3l0.33-0.67l-0.81,0.82L509.39,1320.3z M494.02,1315.43l-2.5-1.25l0.54,1.23
		L494.02,1315.43z M496.18,1313.1l0.86-2.38l-2.5,1.17L496.18,1313.1z M490.71,1311.72l0.6-1.78l-1.6,0.48L490.71,1311.72z
		 M484.54,1307.1l-2.021-6.039l-4.439,8.399L484.54,1307.1z M492.75,1303.32l0.43-2.36l-2.609,3.84L492.75,1303.32z M469.25,1272.63
		l-11.23-2.77l-67.189,88.47l-9.42,23.56l18,26.11l4.399-24.03l14.16,36.2l7.32-21.58l24.84-11.68l-8.04-21.15l21.04,0.9
		L425,1355.57l64.5-40.79l-20.62-2.3l11.521-10.051l-2.311-9.359l9,11.439l2.24-7.39L469.25,1272.63z M439.55,1360.54l-3.58,3.36
		l-5.14-4.66L439.55,1360.54z M471.91,1263.23l-4.34-4.41l0.739,6.899L471.91,1263.23z"/>
	<path id="SE-I" fill="#1E3250" stroke="#1E3250" stroke-width="0.5" d="M471.94,1538.01l-39.721,33.01l0.63,70.041l47.681-52.53
		l-9.79-26.4l19.41-22.54L471.94,1538.01z M498.45,1520.85l-11.23,9.69l18.261-6.65L498.45,1520.85z M502.62,1479.52l2.45-2
		l-8.71-3.159L502.62,1479.52z"/>
	<path id="SE-AC" fill="#1E3250" stroke="#1E3250" stroke-width="0.5" d="M509.98,844.13l-0.16-1.76l-0.23,2.21L509.98,844.13z
		 M516.27,842.97l1.04,0.721l-2.699-3.421L516.27,842.97z M539.32,837.75l-0.48,2.11l0.72-0.17L539.32,837.75z M538.26,831
		l-0.26-3.57l0.02,4.74L538.26,831z M592.79,822.29l-0.11-2.17l-1.8,3L592.79,822.29z M561.16,814.48l1,1.75l0.33-0.771
		L561.16,814.48z M596.55,816.81l1.57-4.3l-2.5,3.08L596.55,816.81z M580.6,804.6l-1.09-0.64l1.08,2.23L580.6,804.6z M600.54,809.84
		l2.4-10.85l-5.23,11.109L600.54,809.84z M601.24,799.1l-3.36-3.159l-1.56,4.01L601.24,799.1z M587.98,795.12l0.479-1.11l-0.87,1.71
		L587.98,795.12z M606.72,795.18l0.261-1.609l-0.95,1.779L606.72,795.18z M636.98,684.96l-0.631-0.92l0.12,1.08L636.98,684.96z
		 M624.09,645.3l-0.58-3.229l-1.99-0.82L624.09,645.3z M500.18,596.61L271.68,428.18l-56.63,34.48L202.47,610.85l146.02,154.73
		l9.49,7.95l92.31-3.181l53.8,71.801l82.271-45.17l56.02-90.58l-34.06-55.15l32.949-33.59L500.18,596.61z M615.5,671.84l-1.86-3.649
		l5.03,5.229L615.5,671.84z M613.45,741.02l0.41,1.03l-1.101-0.97L613.45,741.02z M579.95,798.94l0.859-2.65l0.04,1.84
		L579.95,798.94z"/>
	<path id="SE-Y" fill="#1E3250" stroke="#1E3250" stroke-width="0.5" d="M406.93,1010.42l2.29-4l-3.56-0.28L406.93,1010.42z
		 M418.08,968.16l-0.4,0.28l0.15,0.239L418.08,968.16z M430.46,949.66l-1.63-2.49l-3.85,1.39L430.46,949.66z M430.07,937.1
		l-5.24,5.631l9.38-4.44L430.07,937.1z M437.03,936.1l1.88-3.649l-2.38,2.229L437.03,936.1z M424.84,935.59l0.851-2.35l-3.49-1.25
		L424.84,935.59z M417.56,918.11l0.79-1.87l-1.39,0.569L417.56,918.11z M463.78,905.78l0.62-4.311l-2.42,4.92L463.78,905.78z
		 M455.49,901.43l3.319-4.529l-3.59-0.46L455.49,901.43z M461.99,896.37l-0.04-3.36l-0.69,0.84L461.99,896.37z M468.94,894.44
		l-0.181-2.5l-0.34,2.1L468.94,894.44z M471.02,886.74l-0.449-0.561l-0.021,1.12L471.02,886.74z M473.72,885.37l-2.35-0.57
		l0.979,1.25L473.72,885.37z M465.9,885.87l-0.721-2.45l-0.89,0.63L465.9,885.87z M475.54,884.01l1.27-1.56l-2.06,0.97
		L475.54,884.01z M478.78,878.93l0.3-1.359l-1.41,0.83L478.78,878.93z M496.09,867.77l-0.7-1.539l-0.72,0.279L496.09,867.77z
		 M357.98,773.53l-9.49-7.95l-50.4,51.85l63.71,89L232.25,958.65l32.32,39.6l129.53,17.45l-9.5-45.681l43.75-12.819L405.91,904.52
		l8.31-0.829l-1.279,2.729l4.17,9.09l2.59-0.62l0.84,13.101l8.6-5.141l4.17,4.45l-8.31,3.69l11.27,2.24l23.101-24.021l-20.28-5.52
		l24.99-15.21l-5.45-8.61l11.57,2.75l-3.34-9.17l7.47,0.83l-3.07,6.819l8.49-5.81l-9.82-6.37l18.25,10.83l15.91-37.6l-53.8-71.801
		L357.98,773.53z M442.94,925.07l-0.131,0.88l-0.09-1.641L442.94,925.07z"/>
	<path id="SE-BD" fill="#1E3250" stroke="#1E3250" stroke-width="0.5" d="M642.82,613.35l-1.16-1.029l-1.28,2.83L642.82,613.35z
		 M650.13,609.29l-1.17-2.69l0.15,2.73L650.13,609.29z M648.02,608.7l-1.539-3.141l-0.75,0.54L648.02,608.7z M663.59,600.57
		l-1.939,0.04l1.93,0.859L663.59,600.57z M660.21,599.59l-1.31-0.3l2.22,2.18L660.21,599.59z M657.53,599.54l-2.45-5.76l-2.811,0.17
		L657.53,599.54z M663.41,588.12l-0.34-0.92l-0.53-0.12L663.41,588.12z M658.17,590.38l-6.66-4.01l1.61,4.04L658.17,590.38z
		 M689.18,582.52l0.11-1.1l-1.31,0.13L689.18,582.52z M655.15,581.21l-3.551-1.61l0.78,1.65L655.15,581.21z M660.22,576.51
		l-0.899,1.26l1.939,0.69L660.22,576.51z M694.97,576.24l0.601-0.33l-2.181,0.64L694.97,576.24z M695.56,572.81l-0.96-1.79
		l-0.699,0.83L695.56,572.81z M651.62,571.19l-5.65,0.39l10.021,5.57L651.62,571.19z M656.82,572.88l-2.84-1.95l0.8,1.431
		L656.82,572.88z M692.77,575.41l0.29-1.29l-3.76-3.771L692.77,575.41z M668.14,573.66l-1.97-3.53l-1.3,1.3L668.14,573.66z
		 M698.2,570.08l-0.04-1.82l-1.82-0.41L698.2,570.08z M670.13,569.95l0.62-1.36l-2.04,0.271L670.13,569.95z M674.49,565.37
		l-0.91-1.39l-0.67,2L674.49,565.37z M691.88,562.37l-6.74-0.8l-1.29,3.47L691.88,562.37z M704.49,562.19l-0.57-1.74l-1.21,1.74
		H704.49z M705.1,558.88l0.971,1.5v-1.46L705.1,558.88z M680.7,566.16l-5.19-6.521l0.38,5.58L680.7,566.16z M711.3,558.33
		l0.061-2.24l-1.91,2.811L711.3,558.33z M670.99,555.85l-0.851,0.341l1.54,1.47L670.99,555.85z M668.37,554.25l-2.521,0.18
		l1.33,1.62L668.37,554.25z M700.98,558.77l-1.45-5l-2.561,2.36L700.98,558.77z M709.8,555.9l-1.3-2l-1.44-0.04L709.8,555.9z
		 M672.04,556.69l1.58-2.83l-2.21-0.75L672.04,556.69z M710.38,552.48l-0.479-1.891l-1,0.61L710.38,552.48z M760.7,550.56
		l-1.17,0.79l1.33,0.75L760.7,550.56z M703.77,553.33l-0.22-1.771l-3.49-0.89L703.77,553.33z M689.61,552.37l-3.12-3.04l2.12,4.01
		L689.61,552.37z M692.27,550.01l-0.51-1.31l-0.279,0.92L692.27,550.01z M684.95,551.71l-7.05-2.17l10.369,6.25L684.95,551.71z
		 M715.25,548.67l-3.59-1.14l3.51,4.63L715.25,548.67z M708.29,547.89l-1.9-1.38l-1.01,2.4L708.29,547.89z M715.48,547.63l-0.5-2.18
		l-1.811,0.5L715.48,547.63z M705.42,542.04l-6.8,1.88l4.13,3.271L705.42,542.04z M773.18,543.86l-0.51-4.101l-1.979,4.12
		L773.18,543.86z M776.91,539.73l-0.55-0.79l-0.16,0.77L776.91,539.73z M689.78,539.39l-0.931,1.061l0.86,0.819L689.78,539.39z
		 M703.18,540.4l-0.569-1.86l-2.46,1.12L703.18,540.4z M799.7,539.58l0.08-1.14l-0.41,0.14L799.7,539.58z M789.67,539.76l0.26-1.779
		l-0.979,1.97L789.67,539.76z M694.27,539.99l-1.689-2.891l-0.93,0.41L694.27,539.99z M715.99,536.24l-0.4-0.681l-0.16,0.83
		L715.99,536.24z M696.12,535.13l-0.92-0.54l1.149,2.36L696.12,535.13z M705.87,535.21l-0.17-1.31l-1.95,0.119L705.87,535.21z
		 M726.52,534.62l-1.239-2.22l-0.49,0.5L726.52,534.62z M775.88,534.74l-1.46-2.431l-1.08,1.78L775.88,534.74z M790.07,533.02
		l-0.38-1.02l-0.25,0.73L790.07,533.02z M761.46,532.27l-0.36-0.409l-0.31,0.319L761.46,532.27z M692.01,532.18l-1.22-1.06
		l-0.06,0.899L692.01,532.18z M786.96,531.86l-0.67-0.74l-0.271,0.79L786.96,531.86z M777.69,532.87l-0.921-2.48l0.131,1.96
		L777.69,532.87z M714.25,530.3l-1.33,0.67l1.98,1.62L714.25,530.3z M795.68,530.62l-1.38-1.39l1.061,1.89L795.68,530.62z
		 M728.13,529.22l-1.55,0.32l1.93,1.4L728.13,529.22z M797.05,530.48l-0.16-1.171l-0.67-0.149L797.05,530.48z M694.28,528.98
		l-0.46,0.289l1.39,1.311L694.28,528.98z M732.49,529.77l-2.65-0.39l2.11,2.08L732.49,529.77z M710.3,529.84l-1.319-1.41l-0.66,1.12
		L710.3,529.84z M720.05,528.32l-0.479,0.52l1.58,1.2L720.05,528.32z M705.07,531.95l-0.811-4.4l-1.45,4.29L705.07,531.95z
		 M785.44,526.15l0.829,2.119l1.5-1.159L785.44,526.15z M794.33,524.94l-1.37-0.061l1.8,1.12L794.33,524.94z M797.21,523.51
		l-1.91,0.7l3.07,2.06L797.21,523.51z M692.47,525.67l0.05-2.45l-2.1,1.38L692.47,525.67z M700.19,522.84l-0.91-0.88l0.45,1.28
		L700.19,522.84z M738.71,522.4l-0.15-0.801l-0.46,1L738.71,522.4z M701.46,521.55l-0.41-0.67l-0.55,0.14L701.46,521.55z
		 M737.99,521.77l-0.851-0.97l0.53,1.44L737.99,521.77z M761.1,522.19l-1.72-1.32l2.08,2.55L761.1,522.19z M726.22,525.72
		l-5.979-5.46l4.3,9.78L726.22,525.72z M758.35,523.67l-1.689-3.88l0.03,2.979L758.35,523.67z M743.51,519.17l-3.59,0.98l5.66,2.79
		L743.51,519.17z M791.71,519.76l-0.07-1.62l-0.92,1.141L791.71,519.76z M775.71,519.32l-7.34,3.25l3.439,3.67L775.71,519.32z
		 M753.01,519.39l-0.35-2.52l-0.82,1.67L753.01,519.39z M741.69,517.62l-3.271,0.54l1.5,1.25L741.69,517.62z M749.77,517.37
		l0.12-0.851l-0.359,0.301L749.77,517.37z M781.28,517.9l-0.32-1.45l-0.22,1L781.28,517.9z M743.66,518.31l0.03-1.739l-2.03,0.34
		L743.66,518.31z M695.85,516.13l-0.17-0.71l-0.37-0.01L695.85,516.13z M715.7,523.69l-4.59-7.7l-0.181,7.02L715.7,523.69z
		 M704.95,513.16l-1.74,1.939l2.05-0.56L704.95,513.16z M785.85,513.7l-0.54-0.9l-0.51,0.95L785.85,513.7z M756.25,512.91l0.05-0.94
		l-1.03-0.45L756.25,512.91z M741.73,512.89l-1.7-1.409l0.43,1.529L741.73,512.89z M797.36,512.93l-0.091-1.83l-0.729-0.069
		L797.36,512.93z M691.73,512.32l-1.7-0.59l2.279,1.319L691.73,512.32z M794.78,512.56l0.81-1.75l-1.87,1.841L794.78,512.56z
		 M712.65,512.09l-1.04-2.17l-1.24-0.34L712.65,512.09z M695.96,511.49l-1.31-2.4l0.149,1.95L695.96,511.49z M713.43,510.02
		l-0.979-1.289l1.27,2.939L713.43,510.02z M583.25,0l-31.54,2.4l15.39,36.61l-23.319,75.13L434.86,83.72l-15.181,92l-36.3-21.439
		l-69.05,97.57l14.22,69.52l-56.87,106.81l228.5,168.431l141.09,21.05l-19.21-38.82l21.7,13.88L633.23,575.86l35.27-15.98
		l-10.78-9.979l21.16-1.99l-26.57-26.23l38.811,27.261l-11.86-32.19l26.86-21.77l91.41,12.689l-30.29-73.7l20.66-74.37
		l-25.591-53.85l11.131-41.85l-20.21-10.33l13.97-74.23l-66.4-79.17L583.25,0z"/>
	<path id="SE-Z" fill="#1E3250" stroke="#1E3250" stroke-width="0.5" d="M348.49,765.58L202.47,610.85L160.7,686.49l28.62,20.08
		l-8.06,58.72l-60.53-5.43L71.57,823.09L60.8,864.95l19.54,134.63l131.14,87.52l53.09-88.85l-32.32-39.6L361.8,906.43l-63.71-89
		L348.49,765.58z"/>
	<path id="SE-S" fill="#1E3250" stroke="#1E3250" stroke-width="0.5" d="M209.63,1280.16l-105.34-125.63l-27.7,6.909l21.31,72.08
		l-9.6,44.881l-36.14,21.609l-2.33,74.521l27.86,4.77l30.62,17.33l26.9,17.59l-4.32-42.06l28.8-11.29l20.21,37.24l21.35,3.84
		L209.63,1280.16z"/>
	<path id="SE-N" fill="#1E3250" stroke="#1E3250" stroke-width="0.5" d="M128.85,1614.92l-72.87-47.82l60.42,123.311l35.75,5.54
		l-10.91-44.931l22.54-16.779L128.85,1614.92z"/>
	<path id="SE-U" fill="#1E3250" stroke="#1E3250" stroke-width="0.5" d="M361.89,1340.84l-10.83-31.92l24.65-11.939l1.91-50.051
		l-30.8,11.431l-76.43,40.34l19.6,80.86L361.89,1340.84z"/>
	<path id="SE-D" fill="#1E3250" stroke="#1E3250" stroke-width="0.5" d="M393.3,1437.95l-1.31-1.66l-0.06,2.5L393.3,1437.95z
		 M393.96,1432.54l-4.23,0.399l1.47,4.121L393.96,1432.54z M406.26,1427.63l-6.24-5.7l3.551,4.631L406.26,1427.63z M361.89,1340.84
		l-71.9,38.721l-3.33,26.129l11.67-0.52l52.36,41.43l48.72-38.6l-18-26.11l9.42-23.56L361.89,1340.84z"/>
	<path id="SE-E" fill="#1E3250" stroke="#1E3250" stroke-width="0.5" d="M352.91,1508.41l1.27,0.02l-3.42-0.75L352.91,1508.41z
		 M359.38,1496.58l-0.89,1.98l2.22-0.131L359.38,1496.58z M364.29,1491.09l2.04-1.67l-1.35-0.13L364.29,1491.09z M358.58,1491.09
		l1.1-1.8l-0.51-0.42L358.58,1491.09z M355.95,1488.47l0.55-3.12l-2.71-0.52L355.95,1488.47z M355.43,1473.75l-4.51,2.33l8.1,5.04
		L355.43,1473.75z M361.72,1471.48l0.91-1.181l-1.76,0.36L361.72,1471.48z M362.83,1464.03l0.88-0.811l-2.53-0.819L362.83,1464.03z
		 M360.79,1461.41l-3.39-2.33l0.96,1.77L360.79,1461.41z M298.33,1405.16l-11.67,0.529l-50.18,35.471l-17.96,65.77l24.33-4.81
		l26.83,50.42l60.34-47.16l14.95,15.58l6.8-38.37l-23.4-17.77l31.94-1.58l-46.07-16.641h36.45L298.33,1405.16z"/>
	<path id="SE-T" fill="#1E3250" stroke="#1E3250" stroke-width="0.5" d="M270.39,1298.7l-60.76-18.54l-8.38,121.79l24.23,35.51
		l11,3.7l50.18-35.471l3.33-26.129L270.39,1298.7z"/>
	<path id="SE-G" fill="#1E3250" stroke="#1E3250" stroke-width="0.5" d="M276.2,1608.84l-112.42,25.4l-22.54,16.779l10.91,44.931
		l62.91-5.88l49.77-0.51l29.25-50.791L276.2,1608.84z"/>
	<path id="SE-W" fill="#1E3250" stroke="#1E3250" stroke-width="0.5" d="M211.48,1087.1L80.34,999.58l-9.29,70.52l43.9,46.15
		l-10.66,38.28l105.34,125.63l60.76,18.54l76.43-40.34l-31.17-44.61l12.38-24.8l-15.2-27.23L211.48,1087.1z"/>
	<path id="SE-H" fill="#1E3250" stroke="#1E3250" stroke-width="0.5" d="M340.37,1620.09l-1.84-0.979l3.99,2.37L340.37,1620.09z
		 M337.44,1612.74l-2.21,1.899h2.48L337.44,1612.74z M351.76,1604.8l-0.5-1.04l-0.37,0.641L351.76,1604.8z M368.37,1594.08
		l-39.59,84.12l0.55,40.22L368.37,1594.08z M346.95,1576.3l-2.32-2.54l0.59,1.641L346.95,1576.3z M347.4,1564.83l-1.46-2.311
		l-3.08,4.881L347.4,1564.83z M346.31,1544.76l-0.04-3.29l-3.18,0.46L346.31,1544.76z M347.51,1536.42l-1.77,1.65l5.25,3.819
		L347.51,1536.42z M330.02,1505.38l-60.34,47.16l6.52,56.3l17.88,29.93l-29.25,50.791l14.19-2.141l28.38,18.13l31.3-78.149
		l-7.16-14.761l1.78-7.329l-1.53-3.631l13.31-22.05l-10.2-17.53l11.76-8.56l-17.88-21.8l16.98,17.149l-14.5-17.149l13.71-10.78
		L330.02,1505.38z"/>
	<path id="SE-F" fill="#1E3250" stroke="#1E3250" stroke-width="0.5" d="M269.68,1552.54l-26.83-50.42l-24.33,4.81l-22.82,49.82
		l-7.2-23.47l-59.65,81.64l34.93,19.32l112.42-25.4L269.68,1552.54z"/>
	<path id="SE-X" fill="#1E3250" stroke="#1E3250" stroke-width="0.5" d="M385.14,1187.76l-1.43-1.99l-1.36,0.19l-0.01,2.47
		L385.14,1187.76z M378.99,1158.38l-0.66-3.319l-1.91,2.629L378.99,1158.38z M383.31,1143.59l0.11-3.5l-1.16,1.76L383.31,1143.59z
		 M390.52,1091.79l-4.71,0.54l6.01,1.02L390.52,1091.79z M381.08,1092.07l0.94-2.23l-1.66-0.92L381.08,1092.07z M397.6,1070.15
		l-1.89-0.551l-0.23,1.221L397.6,1070.15z M393.49,1041.67l-0.51-1.67l-0.27,1.01L393.49,1041.67z M395.89,1041.26l0.18-1.13
		l-2.33-0.44L395.89,1041.26z M384.95,1050.93l9.15-35.229l-129.53-17.45l-53.09,88.85l101.35,74.62l15.2,27.23l-12.38,24.8
		l31.17,44.61l30.8-11.431l9.11-38.6l-11.5-8.45l9.02-9.229l-3.19-1.771l-0.05-3.97l-1.39-0.311l1.39-3.149l-2.18-7.09l-5.33-6.28
		l5.43-7.97l-5.4-0.94l-0.41-23.09l3.68-3.92l-6.99-10.78l10.83,0.86l-13.31-33.96l26.64-6.73L384.95,1050.93z"/>
</g>
</svg>
