<?xml version="1.0" encoding="utf-8"?>
<!-- Generator: Adobe Illustrator 15.0.0, SVG Export Plug-In . SVG Version: 6.00 Build 0)  -->
<!DOCTYPE svg PUBLIC "-//W3C//DTD SVG 1.1//EN" "http://www.w3.org/Graphics/SVG/1.1/DTD/svg11.dtd">
<svg version="1.1" id="Layer_1" xmlns:amcharts="http://amcharts.com/ammap"
	 xmlns="http://www.w3.org/2000/svg" xmlns:xlink="http://www.w3.org/1999/xlink" x="0px" y="0px" width="654.5px" height="426.5px"
	 viewBox="0 0 654.5 426.5" enable-background="new 0 0 654.5 426.5" xml:space="preserve">
<defs>
	
	
		<amcharts:ammap  projection="mercator" bottomLatitude="45.817599" leftLongitude="5.956647" topLatitude="47.807842" rightLongitude="10.492616">
		</amcharts:ammap>
</defs>
<g>
	<path id="CH-AG" fill="#1E3250" stroke="#1E3250" stroke-width="0.5" d="M347.26,148.22l3.25-2.57l1.79,2.51l-0.09,2.61l0,0
		l-2.66-2.35L347.26,148.22z M316.15,50.64l4.2-2.07l1.12,1.24l2.54-0.34l1.78,1l0.11,3.35l3.95,3.43l7.6,1.16l2.11-2.23l2.83,1.59
		l0,0l-0.45,4.42l-3.05,4.06l-1.47-0.16l-0.53,2.67l-2.2,0.56l-0.53,1.63l0.8,4.16l1.38,0.08l0.17,1.83l-1.21,0.96l2.94,3.12
		l-0.95,1.03l0.49,2.01l-1.43,0.54l1.71,0.93l0.3,1.91l-1.92,3.78l2.5,1.97l0.32,2.54l1.52,1.45l-0.47,4.73l1.66,1.89l-0.38,2.16
		l2.95,0.14l2.64-1.61l-3.54,6.53l-4.22,2.54l-1.2-0.36l2.7,7.99l0,0l-1.93,4.73l1.44,5.96l-0.5,3.6l1.81,2.59l-0.43,4.73l0,0
		l-2.5,0.42l-4.28-1.5l-5.75-13.87l-0.94-5.76l-2.13-2.73l0.43-2.48l-5.36-3.01l-1.2,0.1l-1.13,2.76l-1.93-0.18l-1.09,4.18
		l-2.05,1.94l-0.04,3.33l-2.52,0.69l-1.16,0.14l-2.9-3.25l2.67-0.51l-0.34-2.44l-6.33,2.16l-2.31-0.59l-1.29-3.03l-1.34-0.59
		l-2.24,1.6l-2.12-0.14l0.59,1.88l-4.41,1.07l-1.74-0.71l0.09-2.99l-2.89-4.38l-1.31,1.13l-4.75,0.22l1.48,4.2l-3.76,3.49l-3.1-1.68
		l-7.47,2.2l-3.12-1.21l0,0l-0.62-5.41l0,0l1.93-1.49l2.78-6.54l3.63-0.87l2.47-6.27l1.71,1.77l3.76,0.32l0.27,3.04l7.52-3.95
		l0.74-4.01l2.16-2.34l-0.07-5.38l-1.71-0.1l-0.65-2.66l-6.26-2.68l0,0l0,0l0,0l2.7-1.17l0.46,1.11l0.24-1.37l-1.66-5.73l-1-0.82
		l-1.58,1.41l0,0l-0.76-1.39l-1.34-0.02l0.66-4.46l-5.36,0.06l-1.63-4.18l-2.41-1.35l0.03-2.01l-1.58,0.72l-1.31-2.97l-2.9,0.12
		l-0.42,3.78l-3.06,3.46l-2.35,0.78l0.11-5.08l-6.65-1.79l-0.24-1.1l-3.39-1.16l0,0l10.89-3.47l3.51-6.06l2.63,1.16l6.76-1.04
		l2.37,3.17l0.42,4.21l4.2,1.3l2.08-2.79l8.34,1.44l6.34-2.77l3.04,1.32l2.44-4.68l3.66-0.54l1.67-2.35l2.29,0.26l4.92-5.13
		l2.27,0.48L316.15,50.64z"/>
	<path id="CH-AI" fill="#1E3250" stroke="#1E3250" stroke-width="0.5" d="M466.81,120.7l-3.68-7.95l0.66-3.39l-1.16-2.46l4.83-4.68
		l-0.2-1.41l2.82-1.17l-1.97-4.98l3.859-0.71l0.03,1.17l2.13,0.08l2.29,2.24l2.44-0.46l1.05,2.88l3.74,2.01l5.01-0.18l0,0
		l-2.021,11.78l-3.56,4.8l-3.21,2.66l-7.46,3.37L466.81,120.7z M489.49,92.17l0.229-1.55l2.9-1.63l-1.2-0.68l0.24-1.51l2.1-2.01
		l2.17,1.13l1.16-2.49l1.78,0.95l5.34-0.76l0,0l-3.95,2.33l2.17,2.33l-3.39,0.64l-4.64,3.74l-0.351-1.53L489.49,92.17z"/>
	<path id="CH-AR" fill="#1E3250" stroke="#1E3250" stroke-width="0.5" d="M466.81,120.7l-2.579,1.23l-1.83-2.54l-1.471,0.34
		l-3.14-2.42l-2.26,1.19l-2.7-0.22l-4.33-2.38l2.5-3.11l-1.92-5.73l3.2-2.29l-1.49-2.1l-2.2,0.68l-0.87-1.57l1.021-1.69l-1.54,0.54
		l-0.62-1.83l2.9-0.5l2.39-6.45l4.75-0.84l4.86,1.23l9.38-2.54l2.989,1.29l2.4-0.37l2.96-2.13l0.48-4.16l2.35,0.6l10.52-4.51
		l-0.64-1.58l0.99-1.29l8.31,1.99l4.561,2.77l-1.561,1.33l0,0l-5.34,0.75l-1.78-0.95l-1.159,2.48l-2.181-1.13l-2.1,2.01l-0.24,1.51
		l1.2,0.68l-2.9,1.63l-0.229,1.55l0,0l-1.34,5.06l0.5,4.45l0,0l-5.011,0.18l-3.729-2.01l-1.05-2.88l-2.45,0.46l-2.29-2.24
		l-2.13-0.08l-0.03-1.18l-3.86,0.72l1.971,4.98l-2.82,1.17l0.21,1.41l-4.83,4.69l1.16,2.46l-0.67,3.39L466.81,120.7z"/>
	<path id="CH-BE" fill="#1E3250" stroke="#1E3250" stroke-width="0.5" d="M163.24,189.66l1.69,0.63l-1.77,1.61l-1.01-0.79l0,0
		L163.24,189.66z M169.1,186.47l0.5,2.4l-2.52,1.4l-0.62-3.09l1.9-0.45l0,0L169.1,186.47z M226.17,106.72l-3.44,5.65l-6.37,2
		l-2.47,3.79l-6.76,2.32l-0.16,2.6l-7.29,4.28l-2.93,0.34l1.89,5.13l1.46-0.81l1.77,1.7l1.79,4.021l-1.17,0.24l0.15,1.05l3.86-0.43
		l2.63-2.73v-1.52l2.05,0.61l0.22-1.74l3.62-0.24l0.39,3.19l2.48,0.85l-2.9,3.36l-3.37-0.49l-1.46,2.39l-1.86,0.61l-0.53,1.03
		l2.32,2.39l-4.69,1.05l-2.46-1.5l-2.09,0.83l2.63,5.83l5.82-1.7l1.13,5.16l4.52-2.13l-1.82-4.54l6.64-3.6l2.5-4.35l-0.82-2.53
		l3.1,0.08l2.23-1.5l2.29,1.5l0.84,2.49l4.1-1.72l3.97,1.44l1.86-3.86l1.86-0.02l-0.26-5.22l-3.12-1.33l-1.08-5.44l-2.86,0.08
		l-3.13-3.37l-0.27-4l-1.83-1.94l9.82-1.45l4.28-2.18l6.5,6.88l3.23,0.1l2.42-1.76l1.51,2.34l2.25-2.44l1.66,1.41l1.67-0.99l0,0
		l0.62,5.41l0,0l5.25,10.83l0.9,6.17l1.69,2.49l-0.44,2.33l-2.52,1.94l1.84,5.99l-1.66,8.23l3.27,3.65l1.09,4.28l3.1-0.81l1.12,1.28
		l3.04,0.06l-0.38,4.48l-0.85,2.56l-1.87,1.44l-0.31,2.52l-2.12,2.96l-3.12,0.06l-3.2,3.31l2.06,2.38l-3.49,4.37l0.15,2.05
		l1.61,1.48l0.07,3.78l10.31,7.8l3.75,5.28l1.51,0.65l4.94-2.77l3.67,0.29l0,0l5.46,0.14l1.77,2.67l2.65,0.63l3.22,2.98l5.88-2.94
		l5.75,1.69l0.99-1.79l2.69,1.2l1.27,2.04l1.89,0.2l7.22-5.42l4.37-1.39l0,0l3.56,3.08l0,0l0.2,1.3l2.43-1.83l3.2,0.45l1.27,0.29
		l0.07,1.32l0,0l-1.27,2.12l0.3,3.14l1.23,1.33l-0.31,3.2l0.96,0.77l-0.35,4.18l-3.29,0.47l-3.86-1.24l0,0v0.94l0,0l-0.23,2.49
		l1.74,4.33l0,0l-1.56-0.27l-0.62,1.82l-3.02,2.29l-1.44,6.87l0.78,2.68l-2.23,3.13l-4.68,2l-1.59,2.46l-6.22,3.21l-10.43,1.86
		l-0.81-2.17l-6.37-1.09l-1.69-1.88l-13.83-3.21l-6.71,4.52l1.32,2.99l-0.46,1.76l-3.7,1.56l-2.44,3.03l-6.37,2.89l-4.25-0.35
		l-17.44,12.38l-12.09-5.91l-2.36,1.89l-1.93,4.78l-2.52-1.05l-5.8,1.48l-0.67,1.79l3.64,2.2l-2.21,2.2l-6.91,1.44l-1.13-2.83
		l-2.36,1.66l-3.16-1.89l-5.29,1.97l-6.11,5.05l-5.22,1.23l-0.93-1.36l0.27-4.64l-1.75,1.87l-4.75,1.35l0.05,3.9l-1.42,1.66
		l-4.15,0.12l0,0l-0.35-5.42l1.39-0.8l-1.85-0.23l-0.94-3.18l-2.02-0.02l2.17-7.29l-2.31-3.57l0.31-1.25l3.62-0.18l1.43-2.4
		l-1.09-6.42l1.62-0.29l-0.47-1.31l1.52-1.02l0.72-3.42l-1.63-7.15l0,0l2.58-1.21l3.44-4.83l2.77,0.94l2.54-2.37l-1.16-6.17
		l0.15-2.41l2.17-1.12l-1.09-2.57l3.31-0.12l1.52,3.19l2.63-3.27l-0.96-0.08l1.44-6.62l-2.4-1.73l-2.23,0.06l0.5-2.67l-5.61-0.94
		l-1.5-2.04l0.96-6.1l-1.74-2.77l1.88-2.02l-0.44-1.94l2.51-4.48l0,0l0.11-0.94l0,0l1.44-2.28l-3.94-3.87l1.85-2.04l1.93,0.79
		l-0.65,1.32l3.43-0.53l1.15-1.63l-1.08-5l-3.48-1.08l-6.25,0.79l-2.55-1.57l-3.24,0.02l-0.8-1.22l-1.65,1.16l-1.19-0.94l-2.82,0.47
		l2.62-1.75l-0.36-2.48l1.02-1.34l-1.29-1.85l1.07-3.72l-2.1-1.44l2.54-0.59l2.9-3.49l-2.62-4.38l-8.16,4.1l-8.36,1.93l-5.96-0.29
		l0,0l0,0l0,0l-1.21-0.35l0,0l-2.14-5.28l1.13-4.93l7.18-5.49l-1.32-3.36l1.34-1.92l-1.4-2.07l-4.86-2.53l-1.56,1.07l-0.7-1.66
		l2.21-2.51l-1.35-0.53l-12.53,3.62l-0.97-0.79l-8.51,5.45l2.96-9.13l-3.6-6.8l0,0l1.36-1.7l1.59,4.81l6.23-3.76l1.54-2.95
		l1.51-0.61l0.46,1.27l1.86-0.1l1.36,1.43l2.21-3.78l3.72-0.44l3.16-6.14l1.54-0.81l0.15-2.3l2.62-0.97l1.42,2.16l1.79-1.23
		l7.02-0.97l-1.63-2.34l0.9-2l2.52-1.01l-0.63-3.81l5.63-0.3l0.63,1.29l9.85,0.83l4.39-0.59l2.94-3.57l5.8-1.94l15.39,2.58
		L226.17,106.72z M180.32,183.76L180.32,183.76l0.05,1.79l2.09-1.02l0.12-1.75l-1.24,0.43L180.32,183.76z M244.13,137.69
		L244.13,137.69l-1.62,0.59l-0.53,1.92l1.97,0.04l0.67-1.78L244.13,137.69z M226.17,106.72l-4.05-0.02l3.27-4.58l0,0l2.65,3.14
		L226.17,106.72z M195.14,83.18l7.11,1.89l0,0l-0.74,3.32l0,0l-2.45-0.14l-2.25-2.82l-2-0.58L195.14,83.18z"/>
	<path id="CH-BL" fill="#1E3250" stroke="#1E3250" stroke-width="0.5" d="M278.7,82.7l1.22-2.56l-0.75-1.39l-1.34-0.03l0.66-4.45
		l-5.35,0.06l-1.63-4.18l-2.42-1.36l0.03-2.01l-1.58,0.72l-1.31-2.97l-2.9,0.12l-0.42,3.78l-3.06,3.47l-2.35,0.78l0.11-5.08
		l-6.65-1.79l-0.24-1.1l-3.39-1.16l-2.62,1.5l-2.74-0.16l-5.52-5.66l-2.19,0.48l0.28,3.77l-3.63,4.08L229.7,63l-1.93-0.32
		l-1.85-4.15l-7.76,5.14l0.35,2.18l2.31-1.28l1.55,1.12l-1.05,2.92l-2.59-0.08l-0.79-1.09l1.58,3.64l3.19,0.78l0.64,1.29l-1.26,3.43
		l0.41,2.5l-5.43,0.54l-4.43,1.81l-1.99-2.31l-1.91,0.58l-1.09,2.55l2.23-0.08l1.74,1.97l0.71,1.57l-0.82,2.26l-4.03,1.14
		l-4.82-0.58l0.59,2.11l3.48,1.84l-0.37,2.71l3.25,0.19l0.99-4.45l4.57,0.12l0.31,2.21l3.17,1.05l2.25-0.75l1.64-2.96l-0.74-1.69
		l7.37-0.68l-1.58-1.31l-0.03-3.06l1.92,1.57l4.47-0.82l1.13-6.04l-2.66-1.36l0.41-3.82l4.49,1.4l2.08-0.94l-0.98-0.88l0.76-0.81
		l1.62-0.18l0.5,2.29l4.19,1.13l1.11,1.71l-1.39,3.21l-1.71,0.93l-0.83,6.09l-2.41,1.81l-3.99-0.02l0.08,5.5l1.12,0.44l0.31,2.64
		l7.51-1.04l3.9,0.78l1.85,3.67l3.63,2.25l3.43-0.7l1.26-3.89l3.34-0.521l1.52-2.02l5.24-1.81l-1.23-2.42l1.85-2.01l3.46,1.45
		l7.22-4.75L278.7,82.7z"/>
	<path id="CH-BS" fill="#1E3250" stroke="#1E3250" stroke-width="0.5" d="M242.34,53.27l-0.87,1.08l2.2,2.73l-0.31,1.33l-0.44-0.83
		l-0.73,1.11l-5.74,0.54l0,0l-2.19,0.48l0.28,3.76l-3.63,4.09L229.7,63l-1.93-0.32l-1.85-4.15l0,0l1.28-2.39l2.32,0.34l0.89-3.01
		l3.87,2.65l3.87-3.57l3.57,0.74l2.51-1.8L242.34,53.27z"/>
	<path id="CH-FR" fill="#1E3250" stroke="#1E3250" stroke-width="0.5" d="M120.43,219.44l0.27,0.29l0,0l1.38,0.35l-1.23,4.2l0,0
		l-0.81,1l0,0l-1.2,0.69l-1.85-2.79l3.28-3.87l0,0L120.43,219.44z M130.74,214.83l0.36,0.04l0,0l0.47,1.22l0,0l0.59,1.02l0,0
		l2.86,2.69l-2.01,4.12l0,0l-0.45,0.59l0,0l-4.8-2.02l-2.52,1.61l-2.85-0.14l0.65-1.55l2.32-0.27l0,0l0.82-0.22l0,0l4.33-7.11l0,0
		L130.74,214.83z M132.85,188.36l4.06,5.16l3.36,2.36l-3.62,1.85l2.58-0.77l2.27,2.6l-3.59,5.11l0.94,2.81l-0.77,1.32l0.94,0.49
		l1.13-1.51l1.47,1.06l-2.71,5.05l-0.23-0.81l-4.21,1.41l-2.59-2.3l-4.61,2.93l-2.74-2.47l-0.9,0.51l-2.29-2l-0.5,0.79l1-2.73
		l-0.81,0.49l-4.9-5.31l5.13-4.99l0,0L132.85,188.36z M181.34,183.2l1.24-0.43l-0.12,1.75l-2.09,1.02l-0.05-1.79l0,0L181.34,183.2z
		 M157.61,174.99l5.96,0.3l8.36-1.93l8.16-4.1l2.62,4.38l-2.9,3.49l-2.54,0.59l2.1,1.44l-1.07,3.72l1.3,1.85l-1.03,1.34l0.36,2.48
		l-2.62,1.75l2.82-0.47l1.19,0.94l1.65-1.16l0.8,1.22l3.24-0.02l2.55,1.57l6.25-0.79l3.48,1.08l1.08,5l-1.15,1.63l-3.43,0.53
		l0.65-1.32l-1.93-0.79l-1.85,2.05l3.94,3.87l-1.44,2.28l0,0l-0.11,0.94l0,0l-2.51,4.48l0.45,1.94l-1.88,2.02l1.74,2.77l-0.96,6.1
		l1.5,2.04l5.61,0.94l-0.5,2.67l2.23-0.06l2.4,1.73l-1.44,6.62l0.96,0.08l-2.63,3.27l-1.52-3.19l-3.31,0.12l1.09,2.57l-2.17,1.12
		l-0.15,2.41l1.16,6.17l-2.54,2.37l-2.77-0.94l-3.44,4.83l-2.58,1.21l0,0l-3.82,4.18l-2.12-2.74l-3.98,3.44l-2.08,0.06l-3.36,5.96
		l-3.09,2.21l-5.32-0.1l-5.34,5.19l-0.43,2.6l-4.67,1.89l1.11-2.05l-1.71-2.3l0.24-2.99l-1.25-3.18l-2.36-2.03l-2.52,0.12
		l-3.28-2.33l-2.08,1l0.22-2.52l-4.68,5.26h-2l-4.95-6.19l1.93-3.56l0.71,1.15l3.35-0.72l0.81,2.11l4.36-5.75l0,0l1.13-0.27l0,0
		l-0.54-1.86l-1.86,1.72l-1.36-0.63l-1.13-2.5l0,0l-0.31-0.229l0,0l-2.25-1l-1.81,1.55l-2.52-1.98l-0.14,1.47l-2.47,0.57l1.19-6.4
		l-0.66-7.91l2.67,0.25l2.02-2.84l2.69,1.39l1.92-1l0.53-2.53l-1.17-1.49l3.87-2.88l0.5-1.98l5.34-5.2l0.78-2.18l-1.39-1.98
		l-1.42,0.57l-1.59-1.24l0.81-1.08l0.8,0.63l3.01-4.75l2-0.71l1.32-2.93l-1.4-2.4l1-2.5l2.87,1.12l1.03-2.18l-1.28-1.2l0.93-2.1
		l-1.67,0.77l-0.5-1.44l2.01-3.99l-1.15-1.67l-0.93-1.08l-2.06,1.16l0.96,3.01l-3.63-4.72l-1.75-0.53l0.67-1.3l-4.53-5.14l0,0
		l4.41-5.36l0,0l4.79,5.55l2.94,0.98l-0.74,2.05l3.89,3.96l-2.21,2.03l0.76,0.9l1.24,0.24l1.09-1.48l2.6,1.48l-0.81,1.38l1.3,1.2
		l-1.32,1.91l0.89,0.89l4.64-5.21l-1.23-2.22l2.91-2.4l0,0l1.01,0.79l1.77-1.61l-1.69-0.63l0,0l-4.53-7.05l0.8-6.25L157.61,174.99z
		 M166.46,187.18l0.62,3.09l2.52-1.4l-0.5-2.4l0,0l-0.74,0.26L166.46,187.18z"/>
	<path id="CH-GE" fill="#1E3250" stroke="#1E3250" stroke-width="0.5" d="M32.79,304.33l2.47,2.73l7.52,3.8l2.87-5.35l0,0l3.7,1.64
		l0.61,2.55l-2,2.55l3.12,5.04l2.42-0.021l2.32-2.39l0.16,1.71l1.69-0.21l0.03,2.33l-1.94,3.67l-6.38,3.91l-2.15-0.16l-6.06,5.01
		l0.2,2.471l-8.15,5.359l-4.53-0.56l-0.3-1.75l-5.48-0.04l-2.12,3.28l-1.07-1.15l-4.65-0.76l-4.91,3.16l3.39-8.7l0.65,0.72
		l0.97-2.33l-4.05-2.93L13.2,324l1.62,0.33l-0.23-1.38l1.3,0.5l4.48-3.73l1.83,1.34l1.92-2.659l1.43,0.659l1.97-1.09l2.36,1.771
		l2.79-2.431l-3.01-6.629l2.43-1.93L32.79,304.33z M40.1,298.19l0.35,1.15l0,0l-1.83,0.14l0.82-1.19l0,0l0.05-0.31l0,0l0.31-0.06
		l0,0L40.1,298.19z M47.32,301.87l-4.82-2.3l-3.43-3.16l1.31-1.27l8.16,4.19l0,0L47.32,301.87z"/>
	<path id="CH-GL" fill="#1E3250" stroke="#1E3250" stroke-width="0.5" d="M421.57,136.22l8.43,8.8l9.02-0.29l7.381,1.36
		l-0.091,11.16l-1.899,2.88l-4.8,2.75l5.62,2.56l3.729-1.93l4.41,3.57l1.13,4.16l-1.95,9.8l1.91,2.5l-0.25,3.43l0,0l-2.89,2
		l-3.21,4.65l-2.16,1.1l-4.63-0.47l0.51,1.08l-2.21,2.42l-3.87,2.3l-2.29-4.23l-4.44-0.63l-2.17,1.69l0.04,3.21l-5.09,7.63
		l-10.85,2.87l-1.66-0.51l-0.28-2.48l-4.91-0.29l0,0l0.55-2.93l-1.25-2.8l11.43-6.82l-0.49-4.8l-2.399-3.76l0,0l3.869-1.54
		l-1.079-2.13l2.039-4.23l-3.43-1.5l-1.81-3.01l1.229-1.05l-2.87-2.54l-1.199-3.08l-2.351-1.24l1.42-0.71l-0.09-2.19h2.72
		l3.521-2.19l3.56-7.13l-2.83-1.25l2.261-2.37l-0.46-6.36L421.57,136.22z"/>
	<path id="CH-GR" fill="#1E3250" stroke="#1E3250" stroke-width="0.5" d="M495.45,159.3l0.8,1.52l6.03-2.54l3.95,2.09l1.539-1.6
		l4.79-0.61l1.2,1.44l2.601,0.34l1.38,1.97l4.46,1.38l4.21-0.31l7.27,5.01l3.221-2.01l2.51,0.49l-1.021,2.11l2.351,1.93l0.46,2.13
		l-2.87,5.07l1.05,1.14l-0.33,4.47l8.38,4.37l5.181-0.53l1.779,2.7l3.811,0.16l4.49,5.04l0.449,2.75l4.33,0.14l2.55,3.91l2.32-1.38
		l6.19-0.45l3.37-3.16l5,0.03l0.489-3.6l-1.21-2.42l2.21-6.89l7.38,2.29l2.54-1.09l-1.09-4.39l2.601-1.24l2.68-7.12l3.32-0.21
		l1.87-1.84l1.739,0.63l3.83,4.13v3.54l3.83,0.89l4.59,2.97l-1.84,9.12l-1.42,1.46l0.75,7.18l-1.91,3.87l-0.02,2.91l-2.15,3.69
		l-2.71,0.95l2.67,3.63l0.54,3.06l-5.76,4.58l2.2,2.98l-0.221,1.63l-4.04,5.03l2.2,9.61l6.011-0.83l5.979,5.39l-2.31,13.44
		l-1.71,0.51l-1.03,1.84l-4.93-3.91l-2.891,1.27l-5.859-2.31l-1.74,2.66l-1.681-1.64l-2.149,0.78l-2.061-0.69l-1.27-4.08
		l-2.521-1.24l-1.96,1.12l-1-0.94l-0.659-2.9l2.399-3.81l-2.64-4.62l-3.38,3.23l-3.44-1.69l-7.97,4.08l-3.74-0.96l-0.21,5.67
		l-2.65,1.33l0.101,2.37l-5.021,4.5l1.33,3.91l-1.609,2.36l0.779,1.64l-0.76,3.91l1.5,2.75L561,279.3l2.34,0.99l0.62,2.5l2.06-0.19
		l0.54,1.34l2.381,0.06l4.18-1.99l1.84,0.64l0.76,3.11l1.5-0.8l0.78,1.01l-0.41,4.25l-2.97,0.55l-1.65,1.63l0.07,3.18l-2.85,1.81
		l-0.351,3.96l1.51,3.58l5.24,4.28l2.86,6.89l-5.641,5.91l-5.899-0.439l-2.78,2.02l-3.38-2.35l2.05-3.74l-0.7-3.09l-7.359-3.46
		l-0.891-1.44l0.99-4.56l-2.74-1.75l2.04-5.65l-4.31-2.4l-1.1-2.8l-3.15,0.83l-1.04,1.6l-2.53-2.9l-4.6,3.37l-4.771,0.23l-8.06,5.28
		l-4.32-3.15l-1.229,0.27l-1.59,1.42l-0.96,3.68l1.029,1.85l-1.609,4.07l-3.341-0.07l-1.97-1.68l-5.64,3.19l-3.47-1.71l-3.351-0.08
		l-3.37-2.31l-1.279,0.95l-3.95-4.81l-2.61-7.85l-4.91-1.5l0.681-3.74l-1.801-5.27l1.38-11.28l-2.579-1.55l1.819-0.68l0.58-3.87
		l-3.76,1.92l-3.311,6.33l-4.949-3.46l-0.851-1.95l0.82-1.67l-1.59-1.09l-11.49,2.54l-0.57,7.66l-3.399,1.75l-0.12,1.25l0.729,2.56
		l3.641,2.92l-0.4,4.06l0.93,1.37l-1.229,3.08l2.85,3.17l-0.54,3.7l0.83,1.7l-2.08,2.65l0.25,2.92l-4.33,5.93l-0.5,6.4l-3.789,0.271
		l-0.261,3.33l-2.41,1.88l-0.909,5.029l-1.82,2.16l-2.44-0.02l0,0l-3.159-1.98l-2.74-4.28l-3.96-2.369l-1.391-9.081l-3.09-5.83
		l2.88-4.29l-1.489-2.57l0.35-1.98l0.54-1.4l2.38-1.02l0.94-4.71l-0.771-6.28l1.79-1.23l-1.85-4.12l0.77-5.46l-1.42-2.93l-4.77-0.78
		l-3.521-6.1l-0.47-7.48l3.13-7.57l-1.271-2.49l-3.939-2.25l-5.74,1.7l-1.24-5.75l-1.489,2.66l-2.551-0.92l-2.279,1.6l1.359,3.61
		l-0.76,1.6l-8.9,4.75l-1.65,0.28l-0.42-1.72l-3.95,1.41l-6.53-2.33l-1.67,0.7l-1.55-0.92l-1.61,1.14l0,0l0,0l0,0l-2.43-1.98
		l-2.6,0.39l0,0l-0.01-7.26l-3.66-3.56l0.4-3l3.23-2.98l-0.53-5.43l2.88-2l1.75,0.79l5.13-3.63l0.19-3.59l2.18-1.65l2.38,3.2
		l4.14-1.73l0.79-5l2.08-0.81l-0.78-4.91l2.29-0.37l4.32-3.81l0,0l4.91,0.29l0.28,2.48l1.66,0.51l10.85-2.87l5.09-7.63l-0.04-3.21
		l2.17-1.69l4.44,0.63l2.29,4.23l3.87-2.3l2.21-2.42l-0.51-1.08l4.63,0.47l2.16-1.1l3.21-4.65l2.89-2l0,0l2.45,2.57l5.64-0.59
		l1.12,0.99l12.54,1.67l5.28,3.8l0.729-2.56l1.891-0.55l-0.11-2.28l2.75-2.44l-1.22-0.65l0.16-1.97l3.319-5.6l1.87-0.59l0.12-2.86
		l3.5-1.06l-9.3-14.83l0,0l0.83-0.7l0.55,1.41l0.93-1.44l6.19-1.66L495.45,159.3z"/>
	<path id="CH-JU" fill="#1E3250" stroke="#1E3250" stroke-width="0.5" d="M155.67,71.7l5.38,2.17l5.34-1.47l1.73-1.62l5.76,2.87
		l4.16-0.97l-2.05,2.22l-2.24,7.76l3.57,1.63l4.83-0.71l1.47,3.58l5.18-2.59l6.34-1.39l0,0l-0.33,1.67l1.99,0.58l2.26,2.82
		l2.45,0.14l0,0l1.15,0.14l0,0l0.59,2.11l3.48,1.84l-0.38,2.71l3.26,0.19l0,0l3.81,1.85l8.17-0.36l-0.26,1.45l2.33,0.92l-0.09,2.44
		l1.82,0.43l0,0l-3.26,4.59l4.04,0.02l0,0l0,0l0,0l-8.59,4.09l-15.39-2.58l-5.81,1.94l-2.94,3.57l-4.38,0.6l-9.85-0.84l-0.63-1.29
		l-5.63,0.3l0.63,3.81l-2.52,1.01l-0.9,2l1.63,2.34l-7.02,0.97l-1.79,1.23l-1.42-2.16l-2.61,0.97l-0.15,2.3l-1.54,0.81l-3.16,6.14
		l-3.72,0.43l-2.21,3.78l-1.37-1.42l-1.86,0.1l-0.46-1.27l-1.51,0.61l-1.54,2.95l-6.23,3.76l-1.59-4.81l-1.36,1.7l0,0l-0.49,0.18
		l0,0l-2.37-1.22l4.38-2.52l0.86-3.06l10.14-8.46l-1.65-8.84l7.2-1.51l2.6-3.69l-0.75-2.26l4.83-0.43l2.09-3.24l-1.49-0.91
		l-0.22-2.9L153,96.81l-2.99,1.89l-9.59,1.49l-2.63-0.76l-3.33,1.35l0.75-4.22l3.92-2.85l0.01-3.13l3.22-0.32l0.34-5.39l2.58-0.14
		l1.7-2.52l4.07-1.48l-2.55-8.03l5.04-2.06L155.67,71.7z"/>
	<path id="CH-LU" fill="#1E3250" stroke="#1E3250" stroke-width="0.5" d="M263.1,123.29l3.12,1.21l7.47-2.2l3.1,1.69l3.77-3.49
		l-1.49-4.2l4.75-0.22l1.31-1.13l2.89,4.38l-0.1,2.99l1.74,0.72l4.42-1.07l-0.6-1.89l2.12,0.14l2.24-1.6l1.34,0.59l1.29,3.03
		l2.31,0.6l6.33-2.16l0.33,2.44l-2.67,0.51l2.9,3.25l1.16-0.14l2.53-0.69l0.04-3.33l2.05-1.939l1.09-4.18l1.93,0.17l1.13-2.75
		l1.2-0.1l5.36,3.01l-0.43,2.48l2.13,2.73l0.94,5.77l5.75,13.87l4.28,1.5l2.49-0.41l0,0l0.8,3.61l3.98-1.4l0.65,2.91l0,0l-4.58,2.72
		l-3.91,6.96l1.47,1.12l5.38-0.79l9.88,8.33l-0.76,3.2l-5.24,1.55l0,0l0.29-2.38l-5.91-1.58l0.15,3.59l-5.6,0.2l-0.47-3.89
		l-2.06-0.39l-4.47,5.97l-2.14-1.95l-3.93,0.97l-3.1-0.69l-2.71,2.34l-2.3-1.24l-1.39,2.5l1.5,1.56l0,0l0,0l0,0l-3.75,1.11
		l-1.97-0.85l-4.86,2.56l1.73,3.98l-3.91,2.97l-3.19,6.01l-0.39-3.09l-1.85-0.81l-3.14,2.93l-0.57,6.79l-3.32,5.06l2.93,5.56
		l-2.08,4.06l0,0l-3.67-0.29l-4.93,2.77l-1.51-0.65l-3.75-5.28l-10.31-7.81l-0.07-3.77l-1.61-1.48l-0.14-2.04l3.49-4.37l-2.06-2.39
		l3.19-3.3l3.12-0.06l2.12-2.96l0.31-2.521l1.87-1.439l0.85-2.561l0.38-4.479l-3.03-0.06l-1.12-1.28l-3.11,0.81l-1.09-4.28
		l-3.26-3.65l1.66-8.24l-1.84-5.98l2.52-1.94l0.45-2.33l-1.69-2.49l-0.9-6.18L263.1,123.29z"/>
	<path id="CH-NE" fill="#1E3250" stroke="#1E3250" stroke-width="0.5" d="M132.25,137.76l3.6,6.81l-2.96,9.13l8.52-5.46l0.97,0.79
		l12.53-3.61l1.35,0.53l-2.21,2.51l0.7,1.66l1.56-1.07l4.86,2.53l1.41,2.08l-1.34,1.91l1.32,3.36l-7.18,5.49l-1.13,4.93l2.15,5.28
		l0,0l-5.06-1.46l-9.93,6.71l0,0l-4.41,5.35l0,0l-4.15,3.13l0,0l-11.59,11.04l0,0l-3.29-3.38l-3.06,0.27l0.94-5.17l-3.13-2.2
		l0.45-5.95l-9.85,5.14l-2.72,4.39l-3.92,0.96l0,0h-1.76l0,0l-8.29,5.31l-5.72,2.01l-3.02-1.14l0,0l0.55-7.42l-4.31-7.4l8.76-9.1
		l1.1,1.59l17.33-6.34l3.66-5.84l7.93-4.52l-3.69-3.22l1.98-1.54l-0.5-1.4l3.12-1.9l2.14,0.08l0.02-3.4l8.62-4.17l7.16-7.12l0,0
		L132.25,137.76z"/>
	<path id="CH-NW" fill="#1E3250" stroke="#1E3250" stroke-width="0.5" d="M316.85,176.09l-1.5-1.56l1.39-2.5l2.3,1.24l2.71-2.34
		l3.1,0.69l3.93-0.97l2.14,1.95l4.47-5.97l2.06,0.39l0.47,3.89l5.6-0.2l-0.15-3.59l5.91,1.58l-0.29,2.38l0,0l-0.34,2.57l4.01,1.48
		l6.5-0.6l3.78-2.16l0,0l0.42,1.59l-2.62,3.77l0.43,4.53l-1.9,0.1l0.09,2.34l-5.62,2.8l-2.27-0.87l-0.74,2.03l-2.94,1.95l1.32,0.33
		l1.28,2.4l-1.38,1.68l0.41,4.17l0,0l-6.95,0.55l-0.92-3.52l-5.1,4.24l1.31-3.5l-0.58-1.51l-1.27,0.27l0.37,11.19l1.91,0.73
		l-0.41,1.57l1.72,1.69l2.92,1.2l1.01,2.55l-4.24,0.81l0,0l-3.56-3.09l0,0l-6.37-6.38l1.81-1.46l-0.85-9.85l1.98-7.2l-0.41-2.94
		l-4.17,0.97l-2.82-1.85l2.84-3.61l-0.42-4.77l-6.75-0.78L316.85,176.09z"/>
	<path id="CH-OW" fill="#1E3250" stroke="#1E3250" stroke-width="0.5" d="M339.19,215.46l4.24-0.81l-1.01-2.55l-2.91-1.2l-1.73-1.69
		l0.42-1.57l-1.92-0.73l-0.36-11.19l1.27-0.28l0.58,1.51l-1.31,3.5l5.1-4.25l0.92,3.52l6.95-0.55l0,0l3.71,0.39l1.09,1.44l-2.47,2.1
		l-0.7,5.97l-2.47,0.67l1.11,1.04l1.09-0.57l-0.36,1.75l1.73,3.24l-5.79,1.77l0,0l-0.07-1.32l-1.27-0.29l-3.2-0.45l-2.43,1.83
		L339.19,215.46z M316.85,176.09l3.62-1.6l6.76,0.79l0.42,4.77l-2.85,3.6l2.82,1.85l4.17-0.96l0.42,2.93l-1.98,7.2l0.85,9.85
		l-1.81,1.45l6.37,6.39l0,0l-4.37,1.39l-7.22,5.42l-1.89-0.2l-1.27-2.04l-2.68-1.2l-0.99,1.79l-5.75-1.69l-5.88,2.94l-3.22-2.98
		l-2.64-0.63l-1.77-2.67l-5.46-0.14l0,0l2.08-4.07l-2.93-5.56l3.32-5.05l0.57-6.79l3.14-2.93l1.85,0.81l0.39,3.09l3.18-6l3.91-2.97
		l-1.73-3.98l4.86-2.56l1.97,0.85L316.85,176.09z"/>
	<path id="CH-SG" fill="#1E3250" stroke="#1E3250" stroke-width="0.5" d="M469.25,69.71l-0.18-0.66l0,0L469.25,69.71z M490.12,61.64
		l-8.59,9.52l0.069,1.69l2.04,1.57l10.28-7.84l0,0l7.23,11.88l1.029,0.26l0.94-1.45l1.31,1.91l5.17,1.41l-1.819,4.02l0.88,5.25
		l2.91,3.04v1.79L509,97.47l-4.02,0.4l-2.561,2.9l-2.87,7.74l-3.489,2.62l-1.5,3.93l-2.131,1.78l-6.02,17.65l3.18,8.78l1.311,8.24
		l-0.92,2.19l-5.421,4.01l0.41,2.31l0,0l9.29,14.83l-3.49,1.06l-0.119,2.86l-1.881,0.59l-3.319,5.59l-0.16,1.97l1.229,0.65
		l-2.75,2.44l0.11,2.28l-1.89,0.55l-0.73,2.56l-5.29-3.8l-12.53-1.67l-1.119-0.98l-5.641,0.59l-2.46-2.58l0,0l0.261-3.43l-1.921-2.5
		l1.96-9.8l-1.13-4.16l-4.409-3.57l-3.721,1.93l-5.63-2.57l4.8-2.74l1.9-2.88l0.08-11.16l-7.38-1.36l-9.011,0.3l-8.43-8.8l0,0
		l-4.79-8.53l-16.73,1.8l-2.91-0.521l-2.19-1.92l0,0l-1.69-3.74l1.09-1.53l6.48-0.81l1.98,1.37l0.82-1.62l8.11-1.33l1.19-1.39
		l0.89-2.83l-1.939-1.59l2.01-0.75l1.24-2.58l2.239-0.42l1.4-2.6l-1.79-6.47l-1.54-0.28l-2.24-4.41l0,0l3.78-3.1l0.71-3.9l1.77-0.5
		l-0.01-3.28l3.04-0.7l1.42-1.59l1.971,1.21l0.17-1.29l3.18-0.74l-4.68-2.88l0.199-1.53l-2.6-0.98l-0.66-1.59l1.19-1.79l4.02-1.11
		l1.73,1.65l3.62-1.55l0.97,2.55l3.08-0.42l0.89,0.98l4.91-1.59l1.47-3.24l1.04,1.85l0.86-0.6l0.43,1.19l3.55,0.48l0.471,1.97
		l1.52-1.03l3.45,1.85l1.81,0.1l2.381-1.67l2.359,1.11l3.021-2.71l-0.551-1.93l-1.199,0.56l1.199-2.25l-1.779-1.25l-1.7,1.75
		l-3-1.02l1.55,0.34l0.26-2.07l2.74-1.12l1.42,0.74l0.771-1.79l2.85,0.04l0.39,1.93l1.82,0.36l-2.64,3.6l4.939,0.14l-0.85,3.03
		l1.88-0.4l2.21,2.35l1.2-3.48l1.59-0.42l11.63-12.21l0,0L490.12,61.64z M488.15,97.23l1.33-5.07l0,0l4.569-1.03l0.351,1.53
		l4.64-3.74l3.39-0.64l-2.17-2.33l3.95-2.33l0,0l1.56-1.33l-4.56-2.77l-8.31-1.99l-1,1.29l0.649,1.57l-10.52,4.51l-2.351-0.6
		l-0.489,4.15l-2.95,2.13l-2.4,0.38l-3-1.29l-9.38,2.54l-4.86-1.23l-4.75,0.83l-2.39,6.46l-2.899,0.5l0.619,1.83l1.54-0.54
		l-1.029,1.69l0.88,1.57l2.199-0.67l1.48,2.1l-3.2,2.28l1.92,5.729l-2.5,3.11l4.33,2.38l2.7,0.22l2.27-1.19l3.131,2.42l1.47-0.34
		l1.83,2.54l2.58-1.23l0,0l5.59,3.59l7.46-3.37l3.21-2.66l3.56-4.8l2.021-11.78L488.15,97.23z"/>
	<path id="CH-SH" fill="#1E3250" stroke="#1E3250" stroke-width="0.5" d="M365.77,50.44l0.39,0.04l0,0l-5.14,10.41l-2.98-5.9
		l3.43-3.39l0,0l1.9,1.06L365.77,50.44z M395.2,25.99l-0.8,0.58l1.85,2.3l3.36,0.26l0.81,1.74l3.01-0.02l0.2,1.94l-3-0.4l1,0.72
		l-1.12,1.76l2.25,1.48l1.21,4.25l0,0l-3.53,0.68l0.81-1.8l-3.2-2.8l-3.53-0.78l-1.47,0.76l0,0l0.4-3l1.57-0.9l-2.31-2.24
		l-3.08-0.36l0.08-2.3l2.71-2.04l1.13,0.3l-0.24-1.52l1.43-0.6L395.2,25.99z M363.44,11.62l5.65,0.22l0.2,6.31l1.35,1.7l3.13-2.88
		l-1.07-2.979l1.33-2.38l1.5,2.32l2.51,0.74l1.35,5.72l2.74-1.96l1.85,0.88l1.77,2.64l-2.56,0.74l-1.25,3.28l3.18,2.4l-1.25,4.52
		l0,0l-1.35,0.4l0,0l-1.94-4.42l-2.4,0.96l-2.66-1.02l-0.19,1.4l1.59,1.06l-2.27,1.66l0.69,1.54l0,0l-0.01,0.06l0,0l-2.44-1.92
		l-2.59,0.52l0.16,2.76l-2.2,0.68l0.49,2.84l0,0l-1.44-2.26l-3.63,2.06l-2.59-1.56l-2.46,1.1v1.5l-1-1.18l-0.9,0.58l0.42,2.96
		l-4.78-0.28v1.06l-2.6-1.68l0.16,2.16l-1.59-1.58l0.57-1.96l-3.08,0.5l-2.86-2.4l-1.58,0.04l-0.88-1.56l2.05-2l-2.04-2.88l5.02-4.9
		l1.48,0.02l-0.65-3.52l3.24-4.56l5.05-2.56l1.28,1l0.7-1.54l3.51-1.24l1.7,1.5l1.48-0.74l-0.18-1.84l-1.62-0.78l0.45-2.74
		L363.44,11.62z"/>
	<path id="CH-SO" fill="#1E3250" stroke="#1E3250" stroke-width="0.5" d="M244.5,138.34l0.13,0.12l0,0l-0.67,1.78l-1.97-0.04
		l0.53-1.92l1.62-0.59l0,0L244.5,138.34z M207.65,82.25l2.23-0.08l1.74,1.97l0.71,1.57l-0.82,2.27l-4.03,1.13l-4.82-0.58l0,0
		l-1.15-0.14l0,0l0.74-3.32l0,0L207.65,82.25z M280.76,86.7l-2.06-4l1.23-2.57l0,0l1.58-1.41l1,0.82l1.66,5.73l-0.24,1.37
		l-0.46-1.11L280.76,86.7z M280.76,86.7l6.26,2.68l0.65,2.66l1.71,0.1l0.07,5.38l-2.16,2.34l-0.74,4.01l-7.52,3.95l-0.27-3.04
		l-3.76-0.3l-1.71-1.77l-2.47,6.27l-3.63,0.87l-2.78,6.54l-1.93,1.49l0,0l-1.67,0.99l-1.66-1.41l-2.25,2.44l-1.51-2.34l-2.42,1.76
		l-3.22-0.1l-6.5-6.88l-4.28,2.18l-9.82,1.45l1.83,1.94l0.27,4l3.13,3.37l2.86-0.08l1.08,5.45l3.12,1.33l0.26,5.22l-1.86,0.02
		l-1.86,3.86l-3.97-1.44l-4.1,1.72l-0.84-2.49l-2.29-1.5l-2.23,1.5l-3.1-0.08l0.82,2.53l-2.5,4.35l-6.64,3.6l1.82,4.54l-4.52,2.13
		l-1.13-5.16l-5.81,1.7l-2.63-5.83l2.09-0.83l2.46,1.5l4.69-1.05l-2.32-2.39l0.53-1.03l1.86-0.61l1.46-2.39l3.37,0.49l2.9-3.36
		l-2.48-0.85l-0.39-3.19l-3.62,0.24l-0.22,1.74l-2.05-0.61v1.52l-2.63,2.73l-3.86,0.44l-0.15-1.05l1.17-0.24l-1.79-4.02l-1.77-1.7
		l-1.46,0.81l-1.89-5.13l2.93-0.34l7.29-4.28l0.16-2.6l6.76-2.32l2.47-3.79l6.37-2l3.44-5.65l0,0l0,0l0,0l1.86-1.47l-2.64-3.14l0,0
		l-1.82-0.44l0.09-2.44l-2.33-0.91l0.26-1.45l-8.16,0.36l-3.82-1.85l0,0l1-4.45l4.56,0.12l0.31,2.21l3.17,1.05l2.25-0.75l1.65-2.96
		l-0.74-1.69l7.37-0.68l-1.58-1.31l-0.03-3.06l1.92,1.57l4.47-0.81l1.13-6.05l-2.66-1.35l0,0l0.4-3.82l4.49,1.39l2.08-0.94
		l-0.97-0.88l0.76-0.82l1.62-0.18l0.5,2.29l4.2,1.13l1.11,1.71l-1.39,3.2l-1.71,0.94l-0.82,6.08l-2.42,1.81l-3.99-0.02l0.08,5.5
		l1.12,0.44l0.31,2.64l7.51-1.03l3.9,0.77l1.85,3.67l3.63,2.24l3.43-0.69l1.27-3.89l3.33-0.52l1.52-2.03l5.23-1.81l-1.23-2.42
		l1.85-2.01l3.47,1.45L280.76,86.7z M219.52,71.08l3.18,0.78l0.65,1.29l-1.27,3.42l0.42,2.51l0,0l-5.44,0.54l-4.42,1.81l-2-2.31l0,0
		l1.69-2.39l-3.51-1.81l-1.23,0.48l1.9-3.44l5.92,3.48l4.18-3.24L219.52,71.08z"/>
	<path id="CH-SZ" fill="#1E3250" stroke="#1E3250" stroke-width="0.5" d="M394.95,127.06l2.19,1.92l2.91,0.51l16.73-1.8l4.79,8.53
		l0,0l-5.13,7.46l0.46,6.36l-2.261,2.37l2.83,1.25l-3.56,7.13l-3.521,2.19h-2.72l0.09,2.19l-1.42,0.71l2.351,1.24l1.199,3.08
		l2.87,2.54l-1.229,1.05l1.81,3.01l3.43,1.5l-2.039,4.23l1.079,2.13l-3.869,1.54l0,0l-8.26,4.94l-1.81,0.02l-1.13,1.75l-0.57-5.45
		l-1.59,1.1l-1.27-5.47l-2.21-1.19l-3.06,2.11l-2.34-2.09l-8.45,4.77l-2.02-5.97l-3.23,0.59l-6.2-1.79l-2.37,0.39l-0.26-6.89
		l-2.61-1.27l-1.62,0.62l0,0l-3.78,2.16l-6.5,0.6l-4.01-1.48l0.34-2.57l0,0l5.24-1.55l0.76-3.2l-9.88-8.33l-5.38,0.79l-1.47-1.12
		l3.91-6.96l4.58-2.72l0,0l0.51,0.229l0,0l2.29,0.2l2.66,2.35l0,0l4.06,2.27l5.28-1.08l0.47,2.43l5.81-2.63l4.27,0.2l2.86-4.13
		l1.71-0.24l1.12-1.64l0.5-3.52l2.16-1.78l-1.16-2.49l0,0l-1.62-3.13l3.14-4.47l11.92-3.92L394.95,127.06z"/>
	<path id="CH-TG" fill="#1E3250" stroke="#1E3250" stroke-width="0.5" d="M493.91,66.58l-10.28,7.84l-2.04-1.57l-0.07-1.69
		l8.591-9.52l0,0L493.91,66.58z M380.87,33.6l1.65-0.32l0,0l1.35-0.4l0,0l4.21,0.9l4.98,2.88l0,0l1.47-0.76l3.53,0.78l3.2,2.8
		l-0.81,1.8l3.53-0.68l0,0l3.58,1.22l16.08-7.51l9.05,1.32l4.221,2.38l4.66,0.3l1.97,2.08l2.17-0.24l37.6,18.5l5.671,1.49l0,0
		L477.35,72.35l-1.59,0.42l-1.2,3.48l-2.21-2.35l-1.88,0.4l0.851-3.03l-4.94-0.14l2.64-3.6l-1.819-0.36l-0.391-1.93l-2.85-0.04
		l-0.77,1.79l-1.421-0.74l-2.739,1.12l-0.261,2.07l-1.55-0.34l3,1.02l1.7-1.75l1.78,1.25l-1.2,2.25l1.2-0.56l0.55,1.93l-3.02,2.71
		l-2.36-1.11l-2.38,1.67l-1.811-0.1l-3.449-1.85l-1.521,1.03l-0.47-1.97l-3.55-0.48l-0.431-1.19l-0.859,0.6l-1.04-1.85l-1.471,3.24
		l-4.909,1.59l-0.891-0.98l-3.08,0.42l-0.97-2.55l-3.62,1.55l-1.729-1.65l-4.021,1.11l-1.189,1.79l0.659,1.59l2.601,0.98l-0.2,1.53
		l4.68,2.88l-3.18,0.74l-0.17,1.29l-1.97-1.21l-1.42,1.59l-3.04,0.7l0.01,3.28l-1.771,0.5l-0.71,3.9l-3.779,3.1l0,0l-2.63-4.47
		l-2.791-0.76l1.25-2.48l-0.39-3.7l0,0l1.67,0.04l0,0l1.38-0.56l-3.39-0.6l0.08-2.31l-3.24-4.1l0.3-2.09l1.589-0.62l-0.069-8.1
		l-7.53-1.71l-1.69-4.32l3.01-1.46l-2.71-2.01l-3.14,0.44l-0.22-2.37l-7.8-1.83l-1.13-3.33l1.07-2.71l7.56,4.27l3.05-9.1l-2.93-1.04
		l0.01-2.58l-2.15-0.18l-0.94,2.72l-4.65,2.64l-5.29-0.72l-2.56-1.46l-3.6-7.05l0,0l0.01-0.06l0,0l3.68-2.04L380.87,33.6z
		 M469.07,69.05L469.07,69.05l0.18,0.66L469.07,69.05z"/>
	<path id="CH-TI" fill="#1E3250" stroke="#1E3250" stroke-width="0.5" d="M377.32,253.05l2.6-0.39l2.43,1.98l1.61-1.13l1.55,0.92
		l3.28-0.45l4.92,2.07l3.95-1.41l0.42,1.72l1.65-0.27l8.9-4.75l0.75-1.6l-1.36-3.6l2.28-1.61l2.55,0.92l1.5-2.66l1.24,5.76l5.73-1.7
		l3.939,2.25l1.271,2.49l-3.13,7.57l0.47,7.49l3.52,6.1l4.78,0.78l1.42,2.93l-0.77,5.46l1.85,4.12l-1.79,1.23l0.771,6.28
		l-0.931,4.72l-2.39,1.01l-0.54,1.4l-0.351,1.99l1.5,2.57l-2.89,4.28l3.09,5.84l1.391,9.081l3.97,2.369l2.74,4.271l3.16,1.979l0,0
		l-5.9,6.601l-6.38,3.18l2.1,6.32l-1.62,4.359l-3.699,0.45l-4.221,2.351l-1.43,2.75l2.98,8.6l-2.19,0.811l-0.69,1.609l-1.47-0.04
		l-0.62,2.17l3.21,1.84l0.67,5.94l5.41,1.41l1.13,1.91l1.011-0.23l0.029,2.53l1.44-0.58l0.5,0.85l-5.37,5.721l0.08,2.63l-2.59,5.37
		l0.609,1.58l-6.18-0.15l0.89-2.64l-1.85-0.98l-2.82,0.52l-0.85-1.579l-6.08,2.319l0.36-2.68l4.21-4.27l-1.381-0.211l-0.699-3.979
		l-1.25-1.021l0.34-2.109l-3.49-5.51l-0.109-4.41l-3.721-0.87l-5.1-5.36l-6.37-0.35l2.12-5.03l4.8-5.02l-0.39-1.63l1.51,0.43
		l1.25-2.09l-0.07-2.931l-6.21-5.08l-3.2,1.36l-3.3-1.71l-2.23-3.69l-3.17,3.49l-3.58,0.37l-4.68-2.189l-1.36-1.9l-4.65,0.229
		l-2.12-3.71l0.82-2.8l-3.9-1.67l-1.38-3.939l-3.45-3.051l-0.97-3.5l-8.03-2.64l-1.15-2.43l-2.48-0.8l-0.13-1.421l1.77-1.79
		l-3.95-6.56l5.18-6.89l-0.26-3.99l0.99-1.75l-1.12-4.78l1.3-1.77l-1.98-7.28l1.67-1.89l-3.6-4.12l-7.61,2.38l0,0l1.08-7.87
		l6.8-0.63l4.68-6.27l0,0l5.63-2.29l-0.82-3.99l1.13-3.74l2.36-1.88l1.19,1.02l3.49-0.39l2.25,1.9l4.1-0.67l2.12,2.56L377.32,253.05
		z M417.09,369.3l-1.32-0.43l-1.029,3.75l2.1,0.66L417.09,369.3z"/>
	<path id="CH-UR" fill="#1E3250" stroke="#1E3250" stroke-width="0.5" d="M362.94,172.37l1.62-0.62l2.61,1.27l0.26,6.89l2.37-0.39
		l6.2,1.79l3.23-0.59l2.02,5.97l8.45-4.77l2.34,2.09l3.06-2.11l2.21,1.19l1.27,5.47l1.59-1.1l0.57,5.45l1.13-1.75l1.81-0.02
		l8.26-4.94l0,0l2.399,3.76l0.49,4.8l-11.43,6.82l1.25,2.8l-0.55,2.93l0,0l-4.32,3.81l-2.29,0.37l0.78,4.91l-2.08,0.81l-0.79,5
		l-4.14,1.73l-2.38-3.2l-2.18,1.65l-0.19,3.59l-5.13,3.63l-1.75-0.79l-2.88,2l0.53,5.43l-3.23,2.98l-0.4,3l3.66,3.56l0.01,7.26l0,0
		l-5.57,2.78l-2.12-2.56l-4.1,0.66l-2.26-1.89l-3.49,0.39l-1.19-1.02l-2.36,1.88l-1.13,3.73l0.82,3.99l-5.63,2.29l0,0l-6.5-3.09
		l-2.59-6.84l-0.25-4.39l1.95-5.28l0.02-4.24l-1.65-0.74l0,0l-1.74-4.33l0.23-2.49l0,0v-0.94l0,0l3.86,1.23l3.29-0.47l0.35-4.17
		l-0.96-0.77l0.31-3.2l-1.23-1.33l-0.29-3.14l1.27-2.12l0,0l5.78-1.77l-1.72-3.24l0.36-1.75l-1.09,0.57l-1.11-1.04l2.47-0.67
		l0.7-5.97l2.47-2.11l-1.09-1.43l-3.71-0.39l0,0l-0.41-4.17l1.38-1.68l-1.28-2.4l-1.32-0.33l2.94-1.95l0.74-2.03l2.27,0.87l5.62-2.8
		l-0.09-2.34l1.9-0.1l-0.43-4.53l2.62-3.77L362.94,172.37z"/>
	<path id="CH-VD" fill="#1E3250" stroke="#1E3250" stroke-width="0.5" d="M77.89,199.64l3.02,1.14l5.72-2.01l8.28-5.31l0,0h1.77l0,0
		l3.91-0.96l2.73-4.39l9.85-5.14l-0.45,5.95l3.13,2.2l-0.94,5.17l3.06-0.28l3.29,3.38l0,0l-5.13,4.99l4.9,5.31l0.81-0.49l-1,2.73
		l0.5-0.79l2.29,2l0.9-0.51l2.74,2.47l4.61-2.93l2.59,2.3l4.21-1.41l0.23,0.81l2.71-5.05l-1.47-1.06l-1.13,1.51l-0.94-0.49
		l0.77-1.32l-0.94-2.81l3.59-5.11l-2.27-2.6l-2.58,0.77l3.62-1.85l-3.36-2.36l-4.06-5.16l0,0l4.14-3.13l0,0l4.53,5.14l-0.67,1.3
		l1.75,0.53l3.63,4.72l-0.96-3.01l2.06-1.16l0.93,1.08l1.15,1.67l-2.01,3.99l0.5,1.44l1.67-0.77l-0.93,2.1l1.28,1.2l-1.03,2.18
		l-2.87-1.12l-1,2.5l1.4,2.4l-1.32,2.93l-2,0.71l-3.01,4.75l-0.8-0.63l-0.81,1.08l1.59,1.24l1.42-0.57l1.39,1.98l-0.78,2.18
		l-5.34,5.2l-0.5,1.98l-3.87,2.88l1.17,1.49l-0.53,2.53l-1.92,1l-2.69-1.39l-2.02,2.84l-2.67-0.25l0.66,7.91l-1.19,6.4l2.47-0.57
		l0.14-1.47l2.52,1.98l1.81-1.55l2.25,1l0,0l0.31,0.23l0,0l1.13,2.5l1.36,0.63l1.86-1.72l0.54,1.86l0,0l-1.13,0.27l0,0l-4.36,5.75
		l-0.81-2.11l-3.35,0.72l-0.71-1.15l-1.93,3.56l4.95,6.19h2l4.68-5.26l-0.22,2.52l2.08-1l3.28,2.33l2.52-0.12l2.36,2.03l1.25,3.18
		l-0.24,2.99l1.71,2.3l-1.11,2.05l4.67-1.89l0.43-2.6l5.34-5.19l5.32,0.1l3.09-2.21l3.36-5.96l2.08-0.06l3.98-3.44l2.12,2.74
		l3.82-4.18l0,0l1.63,7.16l-0.72,3.42l-1.52,1.02l0.47,1.31l-1.62,0.29l1.09,6.42l-1.43,2.4l-3.62,0.18l-0.31,1.25l2.31,3.57
		l-2.17,7.29l2.02,0.02l0.94,3.18l1.85,0.23l-1.39,0.8l0.35,5.42l0,0l-4.38,4.93l1.05,2.88l-1.38,1.09l0.28,2.49l-1.42,0.35
		l-5.05,6.03l-2.2,0.29l-0.31,2.49l-1.89,2.2l-10.13,4.84l-2.83-3.63l-3.4-9.181l-3-3.09l-0.77-3.07l-3.01-2.53l-0.82-6.19
		l-1.75-1.97l-3.05-0.27l-1.77-2.57l0.38-4.35l-8.67-9.77l0,0l-18.62-5.37l-22.02-0.47l-12.47,7.73l-22.84,10.63l-2.1,3.78l0,0
		l-8.16-4.19l-1.31,1.27l3.43,3.16l4.82,2.3l0,0l-1.67,3.62l0,0l-2.87,5.35l-7.52-3.8l-2.47-2.73l0,0l6.02-9.6l-1.29-2.3l-1.34,0.25
		l-7.46-6.24l-4.18-1.52l2.91-5.17l-1.78-3.71l3.22-3.65l2.32-5.65l3.28-4.08l1.09,0.29l1.43-3.03l-6.26-6.14l9.25-7.61l13.98-14.68
		l9.42-4.73l2.44-1.75l-0.09-1.27l2.39-0.73l0.96-2.79l5.99-2.98l2.62-5.07l-3.1-2.46l-0.61-2.12l1.23-0.69l0.35-3.4L77.89,199.64z
		 M125.37,222.13L125.37,222.13l-2.32,0.27l-0.65,1.55l2.85,0.14l2.52-1.61l4.8,2.02l0,0l0.45-0.59l0,0l2.01-4.12l-2.86-2.69l0,0
		l-0.59-1.02l0,0l-0.47-1.22l0,0l-0.58-0.06l0,0l-4.33,7.11L125.37,222.13z M122.07,220.09l-1.38-0.35l0,0l-0.43-0.41l0,0
		l-3.28,3.87l1.85,2.79l1.2-0.69l0,0l0.81-1L122.07,220.09z M38.62,299.48l1.83-0.14l0,0l-0.65-1.42l0,0l-0.31,0.06l0,0l-0.05,0.31
		L38.62,299.48z M157.61,174.99l1.89,1.38l-0.8,6.25l4.53,7.05l0,0l-1.09,1.46l0,0l-2.91,2.4l1.23,2.22l-4.64,5.21l-0.89-0.89
		l1.32-1.91l-1.3-1.2l0.81-1.38l-2.6-1.48l-1.09,1.48l-1.24-0.24l-0.76-0.9l2.21-2.03l-3.89-3.96l0.74-2.05l-2.94-0.98l-4.79-5.55
		l0,0l9.93-6.7l5.06,1.46l0,0L157.61,174.99z"/>
	<path id="CH-VS" fill="#1E3250" stroke="#1E3250" stroke-width="0.5" d="M341.27,238.72l1.65,0.74l-0.02,4.24l-1.95,5.28l0.25,4.39
		l2.59,6.84l6.5,3.09l0,0l-4.68,6.27l-6.8,0.63l-1.08,7.87l0,0l-3.14,0.37l-5.23,5.03l-2.62,0.22l-2.05,3.26l3.72,1.69l0.04,2.63
		l-4.48,4.08H321l-0.09,3.54l-5.03,2.24l-1.96,5.09l-5.77,2.29l-3.81-1.16l-8.43,8.38l4.52,2.06l0.51,2.24l3.38,2.529l3.59,8.62
		l-2.07,3.011l0.32,3.93l-5.03,2.62l-1.48,3.779l-9.8,2.271l-1.41,5.25l1.78,5.54l-3.08,2.189l0.64,1.421l-0.94,2.569l-1.47,0.061
		l-1.47,3.04l-1.63-0.771l-9.28,0.46l-2.07,3.5l-1.84,0.76l-0.87,10.58l-1.18,0.69l-5.63-1.95l-2.97,1.72l-4.18-3.85l-2.31-0.38
		l-2.22,3.01l-1.74,0.08l-1.89-2.11l-0.04-3.029l-3.48-1.431l-2.41-3.89l-3.46,1.53l-6.59-0.12l-1.86-3.311l-3.24,0.21l-1.22,1.511
		l-0.14,4.319l-5.85-1.1l-3.54,2.76l0.1,2.59l-3.11,0.62l-3.87,3.87l-2.41,0.04l-2.03,2.74l-5.81-3.32l-3.05,0.69l-3.85-2.101
		l-4.83,6.37l-1.17-0.89l-4.44,1.03l-3.41,5.6l-2.27-0.95l-2.46-3.05l-5.09,3.92l-2.24-0.06l-1.08-3.511l-6.53-8.83l-0.84-6.029
		l-3.67-2.62l1.97-1.97l-1.85-1.78l-0.13-1.82l-3.44-1.55l-0.57-2.88l-2.47-2.23l-1.55-3.97l-1.84-0.54l-0.02-1.77l-2.01-0.021
		l-4.27,4.01l-2.32-1.739l2.4-4.261l-0.98-4.21l2.01-5.649l-8.5-1.57l-2.63,0.68l-2.54-1.63l-0.58-5.029l2.62-3.671l-1.11-4.14
		l2.37-5.439l4.51-4.591l1.31-4.86l-0.77-1.95l-1.68,0.02l-2.46-2.22l-0.39-1.83l-3.48-1.9l-0.11-1.7l-1.91-0.89l-1.86-4.04
		l0.71-1.75l2.23-0.62l1.78-2.36l-0.45-2.07l2.4-7.18l0,0l8.68,9.77l-0.38,4.35l1.77,2.57l3.05,0.27l1.75,1.97l0.82,6.19l3.01,2.53
		l0.77,3.08l3,3.09l3.4,9.18l2.83,3.63l10.13-4.84l1.89-2.19l0.31-2.489l2.2-0.301l5.05-6.02l1.41-0.35l-0.28-2.49l1.38-1.09
		l-1.06-2.88l4.39-4.93l0,0l4.15-0.12l1.42-1.65l-0.05-3.9l4.74-1.34l1.76-1.88l-0.27,4.64l0.93,1.37l5.22-1.23l6.11-5.05l5.29-1.97
		l3.16,1.89l2.36-1.65l1.13,2.82l6.91-1.44l2.21-2.2l-3.64-2.21l0.67-1.79l5.81-1.48l2.52,1.05l1.93-4.78l2.36-1.89l12.09,5.91
		l17.44-12.37l4.25,0.35l6.37-2.89l2.44-3.03l3.7-1.57l0.46-1.75l-1.33-3l6.71-4.51l13.83,3.2l1.69,1.88l6.36,1.1l0.81,2.17
		l10.43-1.86l6.22-3.21l1.59-2.46l4.68-2l2.23-3.13l-0.78-2.68l1.44-6.87l3.02-2.29l0.62-1.82L341.27,238.72z"/>
	<path id="CH-ZG" fill="#1E3250" stroke="#1E3250" stroke-width="0.5" d="M340.93,121.25l1.7,5.15l2.66-0.29l5.69,3.38l4-2.29
		l5.64-0.6l5.65,2.93l1.23,6.79l7.44,0.45l0.92,2.24l3.43-0.85l0,0l1.16,2.49l-2.16,1.78l-0.5,3.52l-1.12,1.64l-1.71,0.24
		l-2.86,4.13l-4.27-0.2l-5.81,2.63l-0.47-2.43l-5.28,1.08l-4.06-2.27l0,0l0.1-2.61l-1.8-2.51l-3.25,2.57l0,0l-0.51-0.229l0,0
		l-0.65-2.91l-3.98,1.4l-0.8-3.61l0,0l0.43-4.73l-1.8-2.59l0.5-3.6l-1.45-5.96L340.93,121.25z"/>
	<path id="CH-ZH" fill="#1E3250" stroke="#1E3250" stroke-width="0.5" d="M375.32,34.52l3.6,7.05l2.57,1.46l5.29,0.72l4.65-2.63
		l0.95-2.72l2.14,0.18l-0.01,2.58l2.92,1.03l-3.04,9.1l-7.56-4.27l-1.07,2.72l1.14,3.33l7.8,1.83l0.21,2.38l3.14-0.44l2.72,2.01
		l-3.01,1.46l1.68,4.32l7.53,1.71l0.07,8.11l-1.59,0.61l-0.3,2.09l3.24,4.1l-0.08,2.31l3.391,0.59l-1.38,0.56l0,0l-1.67-0.04l0,0
		l0.39,3.7l-1.26,2.48l2.8,0.76l2.63,4.47l0,0l2.24,4.41l1.53,0.28l1.8,6.46l-1.4,2.6l-2.24,0.42l-1.25,2.58l-2.01,0.75l1.95,1.59
		l-0.89,2.83l-1.19,1.39l-8.11,1.33l-0.82,1.62l-1.99-1.36l-6.47,0.81l-1.09,1.52l1.68,3.75l0,0l-2.22-0.42l-11.92,3.92l-3.14,4.47
		l1.62,3.13l0,0l-3.43,0.85l-0.92-2.24l-7.44-0.45l-1.23-6.79l-5.65-2.93l-5.64,0.6l-4,2.29l-5.69-3.38l-2.66,0.29l-1.7-5.15l0,0
		l-2.7-7.99l1.2,0.36l4.23-2.54l3.53-6.52l-2.64,1.6l-2.96-0.14l0.38-2.16l-1.66-1.88l0.47-4.73l-1.52-1.45l-0.32-2.54l-2.5-1.97
		l1.92-3.78l-0.3-1.9l-1.72-0.94l1.44-0.54l-0.49-2l0.94-1.04l-2.94-3.12l1.22-0.96l-0.18-1.83l-1.37-0.08l-0.8-4.16l0.53-1.63
		l2.19-0.56l0.53-2.67l1.47,0.16l3.05-4.06l0.45-4.43l0,0l1.91,0.56l8-2.89l-0.65-1.53l-2.88,0.91l-1.46-3.47l1.5-0.32l1.52-2.31
		l3.87-0.54l1.35-3.07l2.82,0.46l4.12,2.71l0.7,1.12l-1.71,2.21l0,0l-3.43,3.39l2.98,5.9l5.14-10.4l0,0l1.17-1.92l-1.21-5.51
		l1.73-1.83l0.73,1.65l-0.98,0.86l1.15,0.38l1.78-2.44l-1.79-2.27l0,0l-0.49-2.84l2.2-0.68l-0.16-2.75l2.59-0.52L375.32,34.52z"/>
</g>
</svg>
