<?xml version="1.0" encoding="utf-8"?>
<!-- Generator: Adobe Illustrator 15.0.0, SVG Export Plug-In . SVG Version: 6.00 Build 0)  -->
<!DOCTYPE svg PUBLIC "-//W3C//DTD SVG 1.1//EN" "http://www.w3.org/Graphics/SVG/1.1/DTD/svg11.dtd">
<svg version="1.1" id="Layer_1" xmlns:amcharts="http://amcharts.com/ammap"
	 xmlns="http://www.w3.org/2000/svg" xmlns:xlink="http://www.w3.org/1999/xlink" x="0px" y="0px" width="832.574px"
	 height="362.591px" viewBox="0 0 832.574 362.591" enable-background="new 0 0 832.574 362.591" xml:space="preserve">
<defs>
	
	
		<amcharts:ammap  projection="mercator" bottomLatitude="35.805510" leftLongitude="25.663689" topLatitude="42.099732" rightLongitude="44.819611">
		</amcharts:ammap>
</defs>
<g>
	<path id="TR-01" fill="#1E3250" stroke="#1E3250" stroke-width="0.5" d="M452.07,214.98l-3.09,8.85l-2.931,3.51l3.24,1.66
		l-2.8,3.97l2.49,5.4l-1.16,3.6l-2.891,2.9l0,0l-5.489,2.81l-2.15,3.22l-1.29,4.13l-0.47,4.38l2.33,10.57l-1.24,9.1l0,0l-2.23,2.65
		l0.25,2.58l0,0l-8.979,8.59l-4.99-0.04l-1.64,1.05l-0.841,1.74l0.91-0.42l0.011,1.18l0.04-1.49l1.01-0.55l0.12,1.52l1.81-0.22
		l-0.21-0.74l1.08,0.75l-3.2,2.23l-0.779,3.14l-2.95,2.12l-5.13-1.28l-3.83,2.67l-13.851-8.74l-4.12-0.62l0,0l2.14-1.06l0.16-0.96
		l2.74,0.23l0.02-1.1l0.69,0.67l1.29-1.71l2.84,0.73l0.81-1.54l-0.68-6.76l-1.35-6l-3.01-1.78l-1.69-0.01l-0.92-2.32l-2.19-1.27
		l0.02-1.54l2.02-1.89l-0.08-1.23l-6.09-7.11l-0.7-3.67l0,0l2.63-2.09l-0.76-1.45l1-1.36l1.56-7.07l5.05,0.61l3.29-5l4.54-2.7l0,0
		l5.44,1.9l1.319-0.34l1.271,1.69l7.13,0.43l1.23-2.07l1.29-9.35l3.279-1.42l4.36-4.7l6.58-2.48l2.52-6.52l3.65-4.99l5.12-1.5
		L452.07,214.98z"/>
	<path id="TR-02" fill="#1E3250" stroke="#1E3250" stroke-width="0.5" d="M564.34,219.25l3.311-1.09l1.63,2.9l-1.771,4.38
		l-2.34,2.49l0,0l-3.04,0.61l-1.28,1.13l-1.319,3.64l-2.221,0.95l0.761,0.7l-0.57,3.07l-2.13-0.03l-1.24,1.21l2.5-0.05l0.05,2.59
		l-1.699,0.54l-0.221,1.43l-1.25,0.84l-2.67,0.53l1.42,2.03l-8.279,1.69l-6.711,5.86l-2.069,1.08l-6.86,0.52l-1.09,1.72l-1.97-0.34
		l-0.86,2.09l-3.81-2.06l0,0l-5.63-2.39l-7.591-0.26l-1.689-1.85l-4.33,1.35l-1.79-0.84l0,0l-1.42-3.67l-3.92-0.42l-0.681-1.96
		l1.341-1.97l0.27-3.13l2.561-2.67l-0.15-4.58l3.28-1.87l1.46-2.63l0,0l0.859,0.93l-0.439,1.82l3.16-0.72l1.04,2.49l2.04-1.13
		l4.39,0.94l4.68-0.9l4.01-3.73l-0.71-3.31l-1.35-1.83l0.39-1.09l7.2-2.74l1.641-2.28l1.42-0.54l4.09-0.27l5.89,2.88l0.71,1.13
		l2.05,0.39l6.92,4.75l8.46-3.39l0.45-1.38L564.34,219.25z"/>
	<path id="TR-03" fill="#1E3250" stroke="#1E3250" stroke-width="0.5" d="M204.93,163.58l3.23,0.59l2.05,4.93l2.86,1.36l3.22,3.27
		l1.72-4.03l8.12,0.88l0.97-2.01l-3.01-2.01l-0.23-1.16l2.46-0.19l3.21,1.36l0.56-1.6l1.96-0.34l1.19-3.11l1.4-0.92l3.86,2.67
		l3.57-1.01l4.49,4.18l0.61,2.86l3.5,0.98l1.77,2.71l0,0l1.16,2.26l5.3,0.91l0.56,0.92l-5.95,1.21l0.79,1.49l-0.5,5.52l-3.39,6.3
		l0.44,1.77l2.23,2.02l-12.3,8.01l-1.21,3.75l0,0l-1.29,0.21l-1.87-2.96l-2.54-2l-5.57,0.88l-3.11,3.03l-3.7,1.67l-3.09,5.34
		l-5.93,3.75l-5.45,1.36l-6.83,7.55l-4.02,1.85l-3.13,3.98l0.2,3.53l-2.15,4.33l0,0l0,0l0,0l-7.8-0.33l0,0l-7.68-4.37l-1.36-3.05
		l0.33-2.84l5.23-4.88l2.03-3.27l4.39-0.22l1.9-3.1l2.76-2.25l-2.45-6.74l-2.64-1.1l-1.14-1.78l-1.76-0.2l-1.37-1.56l-1.64-0.02
		l-2.07-1.4l0,0l4.69-6.13l1.55-0.89l-1-4.02l3.93-3.38l0.6-2.58l0,0l2.08-0.59l2.63-3.5l2.85-1.18l2.46-3.91l-0.48-7.15l3.35-2.19
		l2.73-0.12L204.93,163.58z"/>
	<path id="TR-04" fill="#1E3250" stroke="#1E3250" stroke-width="0.5" d="M703.57,127.95l23.699-5.79l7.421,1.18l0,0l3.109,0.83
		l2.88,3.41l0.54,7.02l2.41-0.22l1.64-2.58l1.711-0.45l3.369,2.63l7.15,0.67l3.6,2.71h6.341l4.26,1.34l3.76-0.46l5.38,2.33
		l3.83-0.47l0,0l0.26,3.87l-2.31,2.37l0.74,3.34l-1.07,1.69l0.41,3.01l-5.47,2.2l-2.431-2.31l-3.649,1.01l-3.08-0.75l-1.41,1.75l0,0
		l-6.811,1.08l-3.01,4.87l-3.25,2.87l-3.24-0.41l-4.3-2.27l-5.22-5.61l-5.4-0.37l-4.689,1.39l-0.17,7.97l-4.061,3.28l-3.149,5.59
		l0,0l-2.23,0.74l-0.25,2.82l-5.26,2.33l-4.75-0.67l0,0l-0.21-6.44l0.81-4l-4.149-9.15l-0.551-3.41l-3.439,0.06l-1.55-4.06
		l-3.5-3.61l0,0l1.52-2.83l3.391-2.67l0.67-1.49l-2.94-3.07l-5.34-2.78l-1.91-4.34l1.19-1.23L703.57,127.95z"/>
	<path id="TR-68" fill="#1E3250" stroke="#1E3250" stroke-width="0.5" d="M346.42,173.56l1.12,0.98l2.16-0.95l0.78,1.09l2.47-0.34
		l1.57,3.03l-0.02,2.35l4.31,4.32l2.25,0.85l2.65-0.52l0,0l1.07,0.96l-0.21,3.89l-1.52,2.81l0.38,2.6l4.53,2.42l2.93,4.49l0.44,3.74
		l1.6,1.54l0,0l-3.1,1.81l-0.79,5.81l-3.37,4.98l-2.1,1.6l-4.38,1.1l-3.36,3.32l0,0l-26.07,6.18l-2.88-3.21l-1.74-3.85l-4.04-2.93
		l-0.45-4.36l-2.1-3.55l2.99-9.56l3.12-3.44l1.3-3.94l5.31-1.72l0,0l3.96-0.09l6.76-2.67l2.64-5.66l-1.28-4.21l1.7-2.61l0.18-3.44
		L346.42,173.56z"/>
	<path id="TR-05" fill="#1E3250" stroke="#1E3250" stroke-width="0.5" d="M397.29,64.95l5.1,0.63l1.65,2.08l5.42-0.91l2.75,1.45
		l1.44-1.05l0.56,1.24l1.37-1.02l1.58,3.81l3.05,1.53l-0.34,1.69l0.8,1.05l4.311,0.17l1.489,1.44l5.08-1.21l6.91,2.83l1.66-4.97
		l1.25-0.44l0.979-2.1l5.53,2.04l0.29,1.09l-1.65,1.91l4.711,1.9l0,0l0.5,1.77l3.369,1.79l-3.25,2.92l0.24,2.45L451,89.05
		l-5.62,0.44l0.28,1.27l2.68,0.44l-2.04,1.68l-0.88,2.2l-5.439,2.49l-1.16,1.63L435,97.79l0.09-0.94l-1.649-0.87l-5.591,0.29
		l-1.069,3.09l-2.54,1.62l-0.17,1.71l-2.471,1.67l-4.77,1.08l-4.771,3.05l0,0l-2.72,0.49l0,0l2.38-4.01l-2.04-1.51l1.34-2.82
		l-0.649-1.91l1.92-0.8l0.01-1.71l1.61-1.13l0.58-2.06l-2.41-4.23l-4.58-1.09l0.18-3.69l-5.74-0.41l-3.97,1.14l-3.86-2.94
		l-0.38-3.39l2.97-5.56l-2.55-3.26l3.11-2.44L397.29,64.95z"/>
	<path id="TR-06" fill="#1E3250" stroke="#1E3250" stroke-width="0.5" d="M291.94,84.9l3.92-0.27l7.34,4.32l4.88,1.19l0.66,1.56
		l-0.95,3.58l3.76,0.03l5.38,2.15l4.58,7.55l2.33-1.15l1.58-2.49l2.6,0.49l1.18,1.49l3.43-0.41l6.57,1.14l0.8,1.04l0,0l-2.47,0.49
		l0.07,1.44l-2.08,2.05l0.55,0.66l-1.14,2.33l0.69,1.29l-0.85,4.41l1.1,1.65l-2.39,2.29l-6.69,2.36l-2.46,6.74l-1.3,0.4l0.42,3.56
		l-3.18,5.32l5.64,4.84l0.74,6.92l-0.5,2.47l1.56,0.74l0,0l2.08,3.21l-1.1,1.1l2.58,1.59l2.8,5l2.97,1.18l4.38,3.81l0.23,1.35
		l4.07,0.26l0.7,0.98l0,0l-1.19,2.82l-0.18,3.44l-1.7,2.61l1.28,4.21l-2.64,5.66l-6.76,2.67l-3.96,0.09l0,0l-4.48-6.91l-1.28-7.28
		l0.32-5.96l-5.83-3.65l-2.27-2.84l-0.83-4.96l2.94-1.6l-0.68-1.52l-3.13,1.02l-3.58,3.33l-1.2-0.85l0.35-3.91l-0.69-0.68
		l-6.21,1.74l-1.21,1.84l-0.77,4.43l-2.75,1.37l-0.36,3.98l-3.39,2.08l-4.04-1.89l-2.32,3.41l-1.29,0.51l-2.58-0.31l-3.5-2.63
		l-2.51,1.12l-1.06-1.24l-3.15,4.37l-4.1-0.42l-1.9-1.88l-3.54-7l-1.07-0.46l0,0l0.34-2.51l6.2-6.79l-0.13-1.08l-2.77-1.15l0.76-1.5
		l-1.05-1.51l0.67-4.07l-1.68-0.6l0.38-1.39l-1.88-1.95l-1.39-5.58l-2.65-3.7l1.64-4.6l1.23-1.08l-2.01,0.32l0.87-1.19l-0.56-0.6
		l-2.22,0.34l-1.41-1.22l-1.3-1.87l-0.12-1.93l-1.73-0.79l0.66-1.89l-2.02,0.45l0.39-2.27l-1.96,1.59l-3.49-0.77l-1.41,0.96
		l-1.73-1.27l-2.54,1.45l-0.57-1.03l1.64-0.53l-1.49-0.93l-2.13,0.89l-2.98-0.89l-3.05,0.87l-3.29-1.34l-0.71,1.05l-3.01,0.38
		l-0.41,0.99l-3.17-0.1l-3.44-1.81l-1.05-4.74l0,0l4.09-2.51l8.42-9.41l4.31,0.66l7.33-1.27l0.99,0.68l0.65,2.5l6.28,0.77l6.27-1.28
		l6.11,0.23l2.97-2.39l2.85-0.5l3.4,0.49l1.81,1.88l2.92-0.35l0.89-1.89l-2.4-3.48l1.22-3.82l2.06-1.47l7.84-2.47l0.12-1.3
		l-1.52-1.82l0.18-1.58l1.29-1.07L291.94,84.9z"/>
	<path id="TR-07" fill="#1E3250" stroke="#1E3250" stroke-width="0.5" d="M241.84,257.39l3.26,3.2l8.94,2.08l2.8-0.4l3.47-2.07
		l1.72,0.1l1.06,2.91l2.15,2.11l2.3,6.9l4.26,5.95l7.46,3.44l1.44,1.74l0.85,4.4l4.95,3.32l0,0l-0.87,5.4l0.5,1.84l6.02,6.21l0,0
		l3.47,10.46l-2.32,6.31l0.76,2.27L292.2,327l0,0l-3.06-0.45l-7.74-6.25l-5.6-9.47l-5.93-6.3l-1.35,0.55l-1.15-1.47l-7.73-2.37
		l-1.41-1.69l-3.13-0.64l-4.68-3.32l-6.83-2.53l-0.04-0.9l-2.36-1.44l-13.37-2.48l-10.1,0.54l-2.56-1.96l-2.74,1.43l-2.33,3.03
		l-0.82,9.07l1.48,1.55l-3.51,6.36l0.07,1.36l-1.21,0.36l-0.16,1.79l2.17,3.3l-2.61,1.09l0.87,1.77l-3.31,3.431l0.18-3.03
		l-1.82,0.07l-3.52-2.28l-3.88,0.03l-1.51,0.659l-0.01,1.45l-0.5-0.3l-1.02,1.62l-2.4-1.47l-0.27,1.109l-2.66,1.91l-2.29-0.88
		l-1.87,1.96h-1.88l-1.67,1.63l1.25-0.229l-2.17,1.569l-0.75-0.38l0.92-0.689l-2.29-0.271l-1.85,1.36l-2.05-1.7l0.81-0.24
		l-0.2-1.109l-2.54,0.46l1.98-0.94l-9.06-0.979l0.19-1.78l-1.14-0.28l-0.86,0.09l-0.61,1.69l-3.63-3.28l0,0l1.99-1.36l-0.12-3.419
		l0.88-0.38l-0.46-2.36l3.11-1.68l5.13-0.3l2.29-2.03l2.16-3.75l3.88-2.45l1.29-3.22l-0.02-6.16l2.39-4.18l-0.53-2.24l-1.6-1.35l0,0
		l3.61-3.28l-0.72-3.76l0.98-1.82l4.4-3.96l3.25-1.15l6.59-5l5.73-0.38l7.07,4.3l12.51,0.42l1.54-0.98l3.17-6.5l-1.13-1.58l0,0
		l2.65,0.05l3.58,2.99l4.11-3.11L241.84,257.39z"/>
	<path id="TR-75" fill="#1E3250" stroke="#1E3250" stroke-width="0.5" d="M711.38,35.79l3.22,1.35l2.5-0.39l-1.409,4.86l1.949,1.35
		l0.69-1.4l1.37-0.18v1.2l2.819,1.56l2.19,4.14l3.1,0.97l1.7,2.14l3.12,0.76L732.61,53l-3.45,1.94l2.75,0.08l1.6,4.2l4.83-1.47
		l4.07,1.47l1.1,2.86l-1.14,1.36l0.99,1.63l-0.091,2.04l2.141,0.9l0,0l-1.66,1.71l-4.32,0.4l-1.87,1.08l-6.47-0.39l-3.05,1.27
		l-2.06-1.03l-2.29,2.51l-3.671,1.92l-0.42,1.92l-4.319,4.73l-0.53,3.43l-3.7,0.19l-1.33,1.37l0,0l-1.739-0.39l-2.521-5.26
		l-7.06-1.64l-2.86-5.65l0,0l2.52-2.21l0.82-2.41l-1.93-1.71l-1.34-3.1l1.92-1.46l0.79-3.21l5.1-2.6l3.68-4.21l-1.58-3.72
		l-2.05-1.73l0.24-3.06l0,0v-1.84l2.46-2l0.17-3.1l1.021-1.1L711.38,35.79z"/>
	<path id="TR-08" fill="#1E3250" stroke="#1E3250" stroke-width="0.5" d="M681.73,40.21l2.51,1.52l5.67-1.13l1.14,1.3l3.21-0.11
		l1.87,1.42l2.93,0.03l2,1.55l2.65-0.03l0,0l-0.24,3.06l2.05,1.73l1.58,3.72l-3.68,4.21l-5.1,2.6l-0.79,3.21l-1.92,1.46l1.34,3.1
		l1.93,1.71l-0.82,2.41l-2.52,2.21l0,0l-3.37-3.16l-9.189-0.31l-5.32,5.04l0.51,5.52l-2.63,2.57l-0.43,3.05l-1.641,1.48l-1.68,0.07
		l-0.41-3.07l-0.83-0.35l-7.5,3.21l-5.31,3.89l-1.57-0.3l-0.63-2.21l-0.06-3.69l1.6-0.93l-0.03-0.82l-2.35-2.51l-7.44-3.29l0,0
		l3.641-4.96l0.81-3.09l4.75-5.41l2.71-1.76l-5.729-7.71l-0.2-2.85l-1.311-2.28l0,0l5.74-2.33l6.11-7.62l3.569,1.76l3.23-0.45
		l-0.061,1.21l3.131,0.69l1.52,1.55l2.51-1.56l1.87-2.56L681.73,40.21z"/>
	<path id="TR-09" fill="#1E3250" stroke="#1E3250" stroke-width="0.5" d="M129.71,225.11l2.78,1.23l1.6,1.78l4.54,0.83l-1.47,2.83
		l-3.01,0.33l0.47,5.59l1.39,2.07l4.44,2.83l-2.42,3.04l-0.77,3.4l-6.33,5.29l-0.46,4.15l-0.72,0.47l0,0l-1.34,0.24l-5.47-3.93
		l-9.13-0.37l-0.67-2.07l-5.33,4.28l-7.36-0.58l-5,0.87l-2.98-2.65l-2.62,0.16l-4.28-1.81l-3.01,0.48l-2.59,1.97l-0.68,3.81l0,0
		l-1.55,0.56l-0.92,1.81l-1.07-0.37l-0.08,1.79l-1.59-0.69l-1.63,1.04l-2.25-0.95l1.47-2.57l-0.08-3.53l-1.09-0.76l-0.31-3.01
		l-1,0.02l2.13-2.22l-3.96-2.27l-4.97-1.47l1.11-1.58l2.76,0.46l5.61-2.25l1.47-4.37L72,237.36l1.3-2.9l0,0l3.31,1.46l0.79,2.37
		l2.82-2.22l0.7-4.28l3.48-2.26l2.73-0.09l5.31,2.74l11.81-3.62l10.18-0.95l1.94-1.47l0.69-1.72l3.05-0.98l3.43,1.75l1.2-2.21l0,0
		L129.71,225.11z"/>
	<path id="TR-10" fill="#1E3250" stroke="#1E3250" stroke-width="0.5" d="M46.86,155.5l1.65,0.23l-1.93,1l1.22,0.38l0.52,1.29
		l1.32-0.5l-0.22,0.8l-2.77,0.36l-0.31-2.83l-0.76-0.34L46.86,155.5z M87.89,95.59l1.28,0.81l-0.73,1.33l1.24,0.13l0.11,1.09
		l-3.68-0.91l0.2-1.05L87.38,97l-0.36-1.45L87.89,95.59z M93.4,94.63l1-0.06l0.31,1.09l3.08-0.53l7.17,2.02l-0.63,1.69l-4.97,3.2
		l2.3,1.88l7.69-2.01l0,0l1.98,3.08l0.03,2.14l-3.13,5.41l1.91,1.66l0.08,4.18l1.39,1.84l0.46,2.84l1.89,1.73l-0.04,3.27l1.63,2.37
		l1.62,1.12l3.78,0.27l2.06,2.51l4.63,2.66l2.71-0.74l1.55-1.63l1.41,0.34l0.64,5.77l1.42-0.05l0.91,2.28l8.3,0.92l0,0l0.19,1.58
		l-2.87,3.04l0.91,6.6l-6.14,7.04l-7.27,1.33l1.6,4.04l0,0l-3.51-0.37l-7.12,3.9l-4.3-0.8l-2.78,2.41l-1.84,0.28l-4.29-6.25
		l-4.53-3.46l-1.32-3.7l-1.35-1.35l-4.29,2.89l-3.52-3.59l-6.36,1.04l-4.66-3.72l-2.49,1.53l0,0l0,0l0,0l-6.55,1.61l-3.18-0.94
		l-3.6,1.1l-3.16,3.6l-6.95,2.23l-2.64,3.66l0,0l-1.92-4.84l-4.57-1.04l1.77-2.43l0.17,1.03l-1.03,0.31l1.67,0.94l-0.36-1.23
		l1.63-1.79l4.29-2.98l-0.28-2.17l2.29-0.37l0.11-1.95l2.96-0.41l0.93-3.65l-1.08-1.6l-1.93-0.18l-1.75,1.49l-2.57-0.72l-5.45,0.87
		l0,0l0.28-3l2.56-3.56l4.38-0.99l3.29-2.38l3.8,0.43l3.54,1.88l2.91-0.23l6.42,1.771l3.4-3.37l4.99-2.95L84,133l0.67-5.49
		l-2.53-4.3l0.12-3.36l-3.36-3.08l2.79-4.33l3.07-2.2l0.54-1.89l-0.71-1.58l0,0l3.77-1.48l1.89,1.1l3.35,0.1l5.02-3.63l-2.39-1.44
		l-1.07,0.89l-2.06-2.5l0.12-1.13l-2.53-1.23l-0.14-1.58L93.4,94.63z M84.31,94.43l0.78,0.46l-1.16,1.06l0.47,0.74l-1.95,1.06
		l0.34-2.85l0.82-0.93L84.31,94.43z M88.7,87l4.26,1.79l-5.54,3.19l-3.25-1.2L84.3,88L88.7,87z"/>
	<path id="TR-74" fill="#1E3250" stroke="#1E3250" stroke-width="0.5" d="M299.27,22.25l0.61,2.13l1.54,1.1l-0.85,2.29l0.99,1.47
		l2.57-0.05l2.32-1.16l1.49,0.77l-3.21,8.2l0,0l-2.04,0.39l-1.09,1.94l-5.69,2.42l-0.37,1.29l1.76,4.9l-1.32,3.1l-2.11-1.52
		l-2.34,1.32l-2.43-1.01l-3.86,2.8l-5.3-1.42l0,0l1.56-3.31v-2.37l-1.9-2.23l0.02-2.88l-2.82-0.44l-2.41-3.9l0,0l6.29-6.71l2.2-0.05
		l2.01-1.62l1.21,0.58l3.5-3.41l3-0.56l0.28-0.84l3.87-0.17L299.27,22.25z"/>
	<path id="TR-BM" fill="#1E3250" stroke="#1E3250" stroke-width="0.5" d="M661.42,199.45l5.44,3.3l-0.87,5.54l1.71,5.93l2.04,2.48
		l0,0l-3.25,6.39l-6.58,2.72l-5.141,4.96l-0.5,2.01l9.49,7.24l1.26,2.25l5.051,1.68l2.319-0.48l2.181,1.47l0,0l0,0l0,0l0,0l0,0
		l-2.16,1.87l-6.021,0.56l-4.3,3.75l-6.33,3.1l-11.42,0.99l-3.31-11.35l0,0l2.09-3.1l-2.91-1.27l0.8-2.85l4.48-6.48l2.31-6.53
		l2.58-2.64l-2.439-1.85l0.27-6.8l4.36-8.32l3.64-1.18l0,0l3.13-0.56L661.42,199.45z"/>
	<path id="TR-69" fill="#1E3250" stroke="#1E3250" stroke-width="0.5" d="M624.08,93.55l-1.58,5.71l0.81,2.83l-2.71,8.05l1.53,1.55
		l6.44,0.05l0.14,2.42l-1.86,2.63l-7.739,4.62l-5.44-0.26l0,0l-15.34-0.55l-3.07,1.61l-3.22,3.16l0,0l-3.771-3.89l4.45-5.7
		l2.95-7.11l-0.22-7.07l1.229-3.53l14.38-2.45l0,0l8.721-0.94l0,0L624.08,93.55z"/>
	<path id="TR-11" fill="#1E3250" stroke="#1E3250" stroke-width="0.5" d="M184.6,95.16l2.74,5.05l1.04,0.29l1.48-1.56l1.68,2.93
		l2.13,1.4l2.4,0.47l4.17-1.44l1.95,1.12l3.35-1.54l1.75,1.81l1.96-0.14l0,0l4.68,11.72l0,0l-3.32,1.21l-5.47,5.55l-2.15,1.09
		l-0.86,1.76l-2.44,1.76l-1.81,3.84l-6.48,1.18l-3.36,4.17l-1.16,3.85l0,0l-6.08-0.25l-1.55-0.78l-3.47-2.97l-1.7-5.66l0,0
		l3.71-3.44l-2.34-2.54l-0.2-1.34l1.22-1.22l-0.68-5.98l2.43-1.58l-0.44-3.39l1.53-1.65l0.65-5.57l1.81-1.94l-0.35-4.29L184.6,95.16
		z"/>
	<path id="TR-12" fill="#1E3250" stroke="#1E3250" stroke-width="0.5" d="M616.82,148.96l7.16-0.56l2.899,1l0,0l-0.89,2.13
		l1.52,1.35l2.681,0.51l13.319-1.57l5.021,4.75l0,0l-1.73,2.26l-0.13,2.94l3.82,6.64l3.5,2l0.569,1.96l-0.68,1.55l-4.57,1.93
		l-2.659,3.17l-0.771,5.58l0.58,6.17l0,0l-7.41,2.5l-2.6,3.96l-2.61,1.35l-6.04-2.97l-0.74,2.78l-1.189,0.7l-3.811-2.54l-3.409-0.3
		l-2.641,2.81l-0.13,2.94l-0.92,0.96l-4.18,0.89l0,0l-5.03-9.97l2.36-1.79l1.18-2.16l4.08-0.21l1.04-0.79l-0.57-1.89l-3.76-2.7
		l-1.19-3.36l0.271-2.11l-0.87-0.79l1.94-3.39l-0.07-2.87l2.83-3.4l0.05-1.99l-1.26-0.75l-3.3,1.71l-4.65,0.76l-4.04,2.77
		l-3.93-0.04l0,0l1.989-7.22l2.631-2.28l-1.19-4.25l7.56,0.52L616.82,148.96z"/>
	<path id="TR-13" fill="#1E3250" stroke="#1E3250" stroke-width="0.5" d="M723.36,174.67l3.13,2.55l1.029,2.39l5.101,2.3l0.189,1.45
		l-2.21,3.18l-5.67,3.38l-4.04,3.75l-6.47,9.67l-0.36,6.15l-4.649,3.21l0.01,1.21l1.66,1.26l0.41,2.41l-1.86,10.13l0,0l-0.67,1.16
		l-2.25,0.9l0.34,0.96l-1.38,1.25l-0.68-1.3l-3.061-1.04l-10.199-11.56l-4.211-0.11l-3.42,2.08l-1.569,0.04l-0.91-0.35l-0.14-1.26
		l-4.45,0.8l-1.721-0.61l-1.25-1.95l-4.319-0.02l0,0l-2.04-2.48l-1.71-5.93l0.87-5.54l-5.44-3.3l0,0l0.26-0.89l3.03-1.47l7.85,0.42
		l7.08,1.66l1.15-2.77l5.82-5.28l-0.32-3.44l2.21-1.05l0.82-2.92l1.46-1.65l9.989-3.04l10.101,0.87l0,0l4.75,0.67l5.26-2.33
		l0.25-2.82L723.36,174.67z"/>
	<path id="TR-14" fill="#1E3250" stroke="#1E3250" stroke-width="0.5" d="M277.92,63.58l5.02,0.71l0,0l2.07,6.89l0.05,3.42
		l4.75-0.12l3.09,4.71l-0.96,5.71l0,0l-3.27,0.58l-1.29,1.07l-0.18,1.58l1.52,1.82l-0.12,1.3l-7.84,2.47l-2.06,1.47l-1.22,3.82
		l2.4,3.48l-0.89,1.89l-2.92,0.35l-1.81-1.88l-3.4-0.49l-2.85,0.5l-2.97,2.39l-6.11-0.23l-6.27,1.28l-6.28-0.77l-0.65-2.5
		l-0.99-0.68l-7.33,1.27l-4.31-0.66l-8.42,9.41l-4.09,2.51l0,0l-2-0.81l-4.66,1.2l0,0l-4.68-11.72l0,0l0.8-1.82l-0.29-6.03
		l6.73,0.25l5.67-1.2l2.32-2.25l-1.86-3.5l1.47-2.44l0,0l6.61,0.88l4.59-0.69l2.95-4.53l1.26-3.979l6.29-2.79l0.96-7.55l0,0
		l4.71-1.8l7.64-0.04l3.24,1.53L277.92,63.58z"/>
	<path id="TR-15" fill="#1E3250" stroke="#1E3250" stroke-width="0.5" d="M191.09,239.67l4.94,0.52l7.46-2.73l1.28,1.67l-0.86,2.74
		l0.68,1.35l3.6,0.67l3.62-0.52l5.47,2.96l0.75,5.17l3.25,3.35l0.5,3.32l1.54,0.38l0,0l1.13,1.58l-3.18,6.5l-1.53,0.98l-12.51-0.42
		l-7.07-4.3l-5.73,0.37l-6.59,5.01l-3.25,1.15l-4.4,3.97l-0.98,1.81l0.72,3.77l-3.61,3.28l0,0l-3.44-1.26l-4.46,1.85l-3,7.28
		l-1.07-0.27l-0.5,1.38l-2.71-0.82l1.16-2.62l-2.3-0.02l-0.93-1.12l0,0l1.88-4.35l-1.41-2.31l0.36-1.39l4.18-2.72l0.58-5.4
		l1.49-3.39l6.12-6.36l-0.81-1.68l-4.53-2.62l-0.23-1.12l1.56-2.21l-1.38-3.67l0.73-1.04l3.1-0.93l4.06,0.97l-0.78-2.74l0.53-0.77
		l5.96-2l2.81-3.58l0,0L191.09,239.67z"/>
	<path id="TR-16" fill="#1E3250" stroke="#1E3250" stroke-width="0.5" d="M126.51,92.47l-1.24,2.96l-0.24-3L126.51,92.47z
		 M163.01,92.99l4.47,0.88l10.38-3.28l7.23,1.88l0,0l-0.49,2.69l0,0l-3.18,1.92l0.35,4.29l-1.81,1.94l-0.65,5.57l-1.53,1.66
		l0.44,3.39l-2.43,1.58l0.69,5.98l-1.22,1.22l0.2,1.34l2.34,2.54l-3.71,3.44l0,0l-5.11,0.31l-1.75-1.57l-3.66-1.28l-1.53,6.22
		l-4.36,3.88l-0.77,2.53l-2.89,2.14L153,144.1l-8.42-0.23l0,0l-8.3-0.92l-0.91-2.28l-1.42,0.05l-0.64-5.77l-1.41-0.34l-1.55,1.63
		l-2.71,0.74l-4.63-2.66l-2.06-2.51l-3.78-0.27l-1.62-1.12l-1.63-2.37l0.04-3.27l-1.89-1.73l-0.46-2.84l-1.39-1.84l-0.08-4.18
		l-1.91-1.66l3.13-5.41l-0.03-2.14l-1.98-3.08l0,0l15.35-0.33l6.3,1.93l5.36-1.77l7.6,2.06l3.25-0.43l1.59-2.95l2.46-0.26l-2.93-2.9
		l-2.28-0.07l-2.29,1.08l0,0l0.63-5.44l8.85,1.83l4.93-1.76L163.01,92.99z"/>
	<path id="TR-17" fill="#1E3250" stroke="#1E3250" stroke-width="0.5" d="M23.34,131.48l0.87,2.2l-1.06,0.68l-3.83-1.96l0.01-0.81
		L23.34,131.48z M18.69,110.27l1.14,1.08l-0.39,3.61l1.88-0.72l-0.74,1.62l-10.49,2.16L7,116.23l0.26-1.51l4.7-3.04L18.69,110.27z
		 M74.96,98.72l1.09,2.1l-1.19,0.65l0.91,1.54l4.66,2.66l4.17,1.11l0,0l0.71,1.58l-0.54,1.89l-3.07,2.2l-2.79,4.33l3.36,3.08
		l-0.12,3.36l2.53,4.3L84,133l-0.98,1.49l-4.99,2.95l-3.4,3.37l-6.42-1.77l-2.91,0.23l-3.54-1.88l-3.8-0.43l-3.29,2.38l-4.38,0.99
		l-2.56,3.56l-0.28,3l0,0l-6.91,1.55l-4.05,1.55l-0.36,0.86l-3.35-0.31l-1.94,1.28l-0.72-0.6l-3.62,1.09l-2.68-1.01l1.4-6.12
		l1.34-1.1l0.96-2.66l-0.92-5.46l0.98-3.33l-1.15-1.15l1.82-8.17l0.74-0.78l2.93,0.41l2.08-0.87l1.86-4.38l1.83-1.01l-0.21-4.25
		l5.18-1.47l1.68-2.94l1.39-0.15l6.25-6.6l6.49-0.21l2.02,1.3l3.3-0.49L66,99.13l2.68-0.48l2.1,0.92l3.33-2.14L74.96,98.72z
		 M53.42,82.15l5.96-0.28l3.1,1.05l-3.32,7.79l0.05,2.95l0,0l-9.46,4.83l-0.03,1.85l-2.46,0.98l-0.36,2.04l-1.76,2.33l-3.11,1.64
		l-3.69,3.75l-2.74,0.94l0.91,3.26l-3.6,3.19l-4.96,2.17l4.06-8.13l0.42-2.65l-2.14-2.47l0.77-0.8l-1.21-0.79l4.64-2.43l5.13-4.13
		l6.26-3.37l3.61-0.21l2.17-2.76l0.95,0.67l2.74-2.02l-1.19-3.83l-3.76,0.52l0,0L53.42,82.15z"/>
	<path id="TR-18" fill="#1E3250" stroke="#1E3250" stroke-width="0.5" d="M307.98,59.79l2.92,0.72l2.81,4.47l4.39-0.36l6.22,2.93
		l6.08-3.29l2.41,2.43l1.75,0.32l6.62-1.6l4.92-2.3l0.12,1.9l-2.75,5.03l0.12,1.61l4,4.72l7.57,2.1l0,0l-0.84,5.3l3.85,3.35
		l-1.23,2.7l0.65,2.65l-0.83,1.89l1.49,1.65l0.29,3.62l-3.34,5.66l-2.03,1.98l-2.96,1.14l0,0l-4.51-0.44l-2.04-2.15l-3.66-0.7l0,0
		l-0.8-1.04l-6.57-1.14l-3.43,0.41l-1.18-1.49l-2.6-0.49l-1.58,2.49l-2.33,1.15l-4.58-7.55l-5.38-2.15l-3.76-0.03l0.95-3.58
		l-0.66-1.56l-4.88-1.19l-7.34-4.32l-3.92,0.27l0,0l0.96-5.71l-3.09-4.71l-4.75,0.12l-0.05-3.42l-2.07-6.89l0,0l9.5,1.94l1.41,2.24
		l2.75-2.54l4.71,1.84l1.03-4.3l-1.03-2.56l4.31-0.05l1.41-1.26L307.98,59.79z"/>
	<path id="TR-19" fill="#1E3250" stroke="#1E3250" stroke-width="0.5" d="M391.07,51.11l-0.14,2.46l2.76,5.89l-2.09,3.71l1.88,1.34
		l3.81,0.44l0,0l-0.03,2.21l-3.11,2.44l2.55,3.26l-2.97,5.56l0.38,3.39l3.86,2.94l3.97-1.14l5.74,0.41l-0.18,3.69l4.58,1.09
		l2.41,4.23l-0.58,2.06l-1.61,1.13l-0.01,1.71l-1.92,0.8l0.649,1.91l-1.34,2.82l2.04,1.51l-2.38,4.01l0,0l-3.54,1.07l-2.14,2.6
		l-2.43-1.89l-1.18,0.41l2.17,3.49l-2.06,1.76l2.02,3.54l-0.89,1.46l-10.64,0.79l-0.31-2.33l-0.85-0.54l-3.6,3.82l-5.22,0.3
		l-2.75,1.21l-2.65-0.58l-1.73-1.78l-1.71-0.4l-3.85,2.74l-1.14,1.89l-4.97-0.62l-3.59,1.08l-0.4-1.8l0,0l0.28-0.9l-2.72-4.33
		l0.55-2.52l-1.01-2.53l0.67-2.3l-3.94-1.37l-1.5-2.84l0,0l2.96-1.14l2.03-1.98l3.34-5.66l-0.29-3.62l-1.49-1.65l0.83-1.89
		l-0.65-2.65l1.23-2.7l-3.85-3.35l0.84-5.3l0,0l6.47-1.64l3.24-7.59l2.39-1.19l-1.4-3.52l-2.19-1.01l-2.75,0.36l-0.39-5.63
		l4.51-3.58l0.27-2.28l2.57,0.53l0.25,1.57l2.46-2.21l0,0l2.04-1.03l3.33,2l1.23,2.82l2.38,1.56l2.57,0.13l2.67-2.13l2.89-0.06
		L391.07,51.11z"/>
	<path id="TR-20" fill="#1E3250" stroke="#1E3250" stroke-width="0.5" d="M177.82,202.56l2.07,1.4l1.64,0.02l1.37,1.56l1.76,0.2
		l1.14,1.78l2.64,1.1l2.45,6.74l-2.76,2.25l-1.9,3.1l-4.39,0.22l-2.03,3.27l-5.23,4.88l-0.33,2.84l1.36,3.05l7.68,4.37l0,0
		l-2.81,3.58l-5.96,2l-0.53,0.77l0.78,2.74l-4.06-0.97l-3.1,0.93l-0.73,1.04l1.38,3.67l-1.56,2.21l0.23,1.12l4.53,2.62l0.81,1.68
		l-6.12,6.36l-1.49,3.39l-0.58,5.4l-4.18,2.72l-0.36,1.39l1.41,2.31l-1.88,4.35l0,0l-2.27,1.51l-3.76,0.57l-2.9-1.17l-1.16-3.21
		l0.09-3.77l-2.92-4.19l-0.38-3.6l-4.09,0.61l-2.56-0.88l-1.79-3.61l-3.28-1.97l0.13-2.8l-1.61-2.14l-2.12-0.31l-0.71-2.73l0,0
		l0.72-0.47l0.46-4.14l6.34-5.3l0.76-3.4l2.43-3.04l-4.44-2.83l-1.39-2.07l-0.47-5.59l3.01-0.34l1.47-2.83l-4.54-0.83l-1.6-1.78
		l-2.78-1.23l0,0l4.59-2.69l1.44-3.48l2.45-2.03l0,0l13.93,0.11l1.37,3.39l0.55-2.48l1.2-0.34l-0.32-1.38l3.45-3.96l11.6,2.55
		l1.29-1.69l-0.38-5.84L177.82,202.56z"/>
	<path id="TR-21" fill="#1E3250" stroke="#1E3250" stroke-width="0.5" d="M646.46,190.77l2.25,1.71l2.73-1.23l-0.44,3.07l1.07,4.31
		l2.01,1.58l1.86-0.37l0.27,3l0,0l-3.64,1.18l-4.36,8.32l-0.27,6.8l2.439,1.85l-2.58,2.64l-2.31,6.53l-4.48,6.48l-0.8,2.85
		l2.91,1.27l-2.09,3.1l0,0l-1.03,2.28l-3.72,0.97l-8.42-2.44l-0.61,2.48l0.89,3.31l-0.75,1.38l-8.819-2.24l-0.561,1.9l-6.689,2.63
		l-1.99-0.18l-4.73-2.85l-5.63,2.67l-2.39-0.06l0,0l-2.96-3.53l-0.5-10.17l-1.73-4.38l-3.51,0.87l-2.52,2.75l-2.78-3.14l-5.72-1
		l-3.311-3.86l-8.38-3.32l0,0l2.34-2.49l1.771-4.38l-1.63-2.9l-3.311,1.09l0,0l-1.53-0.88l1.32-1.34l0.53-3.66l0,0l6.62-2.1
		l1.83,1.14l2.199-0.53l2.631,2.78l1.869,0.5l1.381-4.03l5.22,0.37l5.32-2.55l3.09,1.41l1.649-4.53l1.67-1.17l9.021-0.01l3.62-0.8
		l0,0l4.18-0.89l0.92-0.96l0.13-2.94l2.641-2.81l3.409,0.3l3.811,2.54l1.189-0.7l0.74-2.78l6.04,2.97l2.61-1.35l2.6-3.96
		L646.46,190.77z"/>
	<path id="TR-81" fill="#1E3250" stroke="#1E3250" stroke-width="0.5" d="M240.31,62.23l1.68,5.86l2.52,0.5l2.24-0.69l0,0
		l-0.96,7.55l-6.29,2.79l-1.26,3.979l-2.95,4.53l-4.59,0.69l-6.61-0.88l0,0l1.39-2.8l-3.85-1.94l-0.34-1.1l0.47-1.979l1.94-1.78
		l-1.44-2.15l-2.51,0.17l-0.52-0.99l1.45-2.11l2.63-0.47l2.91-2.33l2.05-2.85l-1.58-1.39l0,0L240.31,62.23z"/>
	<path id="TR-22" fill="#1E3250" stroke="#1E3250" stroke-width="0.5" d="M60.8,13.66l-0.28,9.44l1.47,3.16l-1.55,3.39l0.39,2.81
		l-2.45,3.29l0.99,0.92l1.69-1.86l1.15,1.09l-2.18,2.83l0.38,1.47l-2.27,3.91l1.14,4.34l-1.23,2.41l1.34,1.15l0,0l0.78,4.88
		l-2.39,4.17l-4.09,4.06l-4.33,0.66l-0.86,1.05l2.06,1.9l-1.1,8.26l3.96,5.16l0,0l-3,6.09l0,0l-4.43,0.39l-3.14,2.41l-3.24-1.31
		l-1.77,0.91l-1.54-0.5l-3.01,0.95l-6.52,0.05l-3.2-1.91l-1.36-5.66l3.79-0.8L26.77,80l3.01-2.55l-0.42-1.29l0.72-0.09v-1.26
		l1.04,0.45l0.51-1.8l1.26,1.1l-0.2-2l2.93-0.74l-1.37-2.2l1.71-1.92l-1.66-1.15l-0.61-1.73l0.92-1.96l-1.25-0.19l1.39-1.71
		l-1.26-1.71l0.69-0.57v-3.72l3.19,0.09l4.89-4.74L45,51.14l1.9-1.43l-1.53-14.3l-2.63-0.74l-1.7-1.74l0.34-0.82l-4.92-1.62
		l-2.04-2.1l1.53-4.46l7.18-0.34l1.69-2.7l-0.78-2.97l2.61-2.95l5.32,1.19l1.5-1.75l2.23,1.13l1.13-1.17L60.8,13.66z"/>
	<path id="TR-23" fill="#1E3250" stroke="#1E3250" stroke-width="0.5" d="M595.86,170.88l3.93,0.04l4.04-2.77l4.65-0.76l3.3-1.71
		l1.26,0.75l-0.05,1.99l-2.83,3.4l0.07,2.87l-1.94,3.39l0.87,0.79l-0.271,2.11l1.19,3.36l3.76,2.7l0.57,1.89l-1.04,0.79l-4.08,0.21
		l-1.18,2.16l-2.36,1.79l5.03,9.97l0,0l-3.62,0.8l-9.021,0.01l-1.67,1.17l-1.649,4.53l-3.09-1.41l-5.32,2.55l-5.22-0.37l-1.381,4.03
		l-1.869-0.5l-2.631-2.78l-2.199,0.53l-1.83-1.14l-6.62,2.1l0,0l-1.8-2.58l-6.091,1.31l-3.039-2.04l-2.94-4.26l-5.62,1.06
		l-9.59-3.03l-3.03-2.84l-0.439-4.71l2.29-3.17l1.989-1.04l0.16-2.53l1.561,0.19l1.09-0.93l3.689,1.1l0.86-0.7l-2.39-7.88
		l1.029-1.04l-0.22-2.04l3.29-3.58l0,0l1.521,0.88l1.239-0.77l0,0l1.38,1.36l0.311,1.75l-1.93,3.31l0.56,1.37l4.02,1.34l4.32-2.26
		l12.33,2.07l1.92,2.06l2.79,0.97l0.74,1.72l1.68-0.8l2.2,1.16l0.94-0.31l0.88-2.47l5.989-0.08l3.511-0.96l1.729,0.7l0.7-3
		l1.95-2.02l1.33-4.98l-1.641-2.47L595.86,170.88z"/>
	<path id="TR-24" fill="#1E3250" stroke="#1E3250" stroke-width="0.5" d="M548.32,118.96l9.43,0.93l0,0l3.11,2.49l6.949,1.81
		l-0.109,2.33l2.93,0.26l6.57,3.16l8.55-0.82l6.29-3.75l0,0l3.22-3.16l3.07-1.61l15.34,0.55l0,0l-3.17,2.72l-0.38,3.3l6.18-0.24
		l0.98,1.17l5.55,2.15l0.76,2.71l-1.52,2.48l0.13,1.45l6.16,3.13l0.46,1.14l-1.09,3.33l2.59,2.85l-0.7,1.21l-2.74,0.85l0,0l-2.899-1
		l-7.16,0.56l0,0l-3.051-3.05l-5.93-1.13l-4.97,1.84l-1.75-1.17l-7.76-1.94l-1.801,0.73l-1.63,5.38l-1.67,1.14l-8.8-1.26l-6.01,1.81
		l-7.51-1.15l-8.36,3.97l-4.73,3.8l-0.33,1.66l1.021,2.99l-2.2,1.55l-3.14,0.66l-0.79,1.08l1.21,1.07l-1.311,2.47l0.91,5.36l0,0
		l-1.239,0.77l-1.521-0.88l0,0l-3.88-3.99l-3.23,0.11l-2.609-1.64l-3.04,1.72l-2.5-1.99l0,0l3.03-5.94l-3.08-5.26l2.79-0.7
		l0.569-1.79l-2.899-1.73l-1.32-3.49l1.88-3.87l-0.85-5.11l1.729-5.34l4.55-3.36l-4.14-3.45l-0.13-2.26l2.53-2.19l4.72,0.48
		l3.21-2.82l4.27-0.47L548.32,118.96z"/>
	<path id="TR-25" fill="#1E3250" stroke="#1E3250" stroke-width="0.5" d="M647.26,78.37l7.44,3.29l2.35,2.51l0.03,0.82l-1.6,0.93
		l0.06,3.69l0.63,2.21l1.57,0.3l5.31-3.89l7.5-3.21l0.83,0.35l0.41,3.07l1.68-0.07l1.641-1.48l0.43-3.05l2.63-2.57l-0.51-5.52
		l5.32-5.04l9.189,0.31l3.37,3.16l0,0l2.86,5.65l7.06,1.64l2.521,5.26l1.739,0.39l0,0l0.15,1.39l-4.24,3.4l-2.27,3.36l-1.13,3.97
		l1.069,2.14l-0.899,1.52l-1.73,0.88l-3.87-0.39l-7.31,1.71l-2.17,2.48l0.31,1.47l5.061,3.94l0.529,1.35l2.84,0.28l2.86,2.24
		l1.15,3.48l4.79,2.17l0.689,2.271l-1.979,3.17l0,0l-8.71,2.92l-1.19,1.23l1.91,4.34l5.34,2.78l2.94,3.07l-0.67,1.49l-3.391,2.67
		l-1.52,2.83l0,0l-6.681,5.06l-0.979,4.69l-4.93,1.189l-0.101,2.22l-4.1,2.82l-7.55,2.021l-7.07,0.189l-0.96-4.88l-6.92-4.83
		l-7.971-0.24l-2.489-0.95l0,0l-5.021-4.75l-13.319,1.57l-2.681-0.51l-1.52-1.35l0.89-2.13l0,0l2.74-0.85l0.7-1.21l-2.59-2.85
		l1.09-3.33l-0.46-1.14l-6.16-3.13l-0.13-1.45l1.52-2.48l-0.76-2.71l-5.55-2.15l-0.98-1.17l-6.18,0.24l0.38-3.3l3.17-2.72l0,0
		l5.44,0.26l7.739-4.62l1.86-2.63l-0.14-2.42l-6.44-0.05l-1.53-1.55l2.71-8.05l-0.81-2.83l1.58-5.71l0,0l10.8-5.03l7.67-7.23
		L647.26,78.37z"/>
	<path id="TR-26" fill="#1E3250" stroke="#1E3250" stroke-width="0.5" d="M220.59,114.88l1.05,4.74l3.44,1.81l3.17,0.1l0.41-0.99
		l3.01-0.38l0.71-1.05l3.29,1.34l3.05-0.87l2.98,0.89l2.13-0.89l1.49,0.93l-1.64,0.53l0.57,1.03l2.54-1.45l1.73,1.27l1.41-0.96
		l3.49,0.77l1.96-1.59l-0.39,2.27l2.02-0.45l-0.66,1.89l1.73,0.79l0.12,1.93l1.3,1.87l1.41,1.22l2.22-0.34l0.56,0.6l-0.87,1.19
		l2.01-0.32l-1.23,1.08l-1.64,4.6l2.65,3.7l1.39,5.58l1.88,1.95l-0.38,1.39l1.68,0.6l-0.67,4.07l1.05,1.51l-0.76,1.5l2.77,1.15
		l0.13,1.08l-6.2,6.79l-0.34,2.51l0,0l-0.77,0.87l-2.54,0.16l-1.77,2.67l-7.64,1.021l0,0l-1.77-2.71l-3.5-0.98l-0.61-2.86
		l-4.49-4.18l-3.57,1.01l-3.86-2.67l-1.4,0.92l-1.19,3.11l-1.96,0.34l-0.56,1.6l-3.21-1.36l-2.46,0.19l0.23,1.16l3.01,2.01
		l-0.97,2.01l-8.12-0.88l-1.72,4.03l-3.22-3.27l-2.86-1.36l-2.05-4.93l-3.23-0.59l0,0l-2.46-0.37l-0.24-2.93l-2.09-1.7l0.92-2.03
		l-0.74-3.64l1.13-1.87l-0.89-4.35l-4.58-2.44l-2.85-2.67l1.27-1.55l-0.65-0.8l-4.47,1.03l-2.4-0.58l0,0l1.16-3.85l3.36-4.17
		l6.48-1.18l1.81-3.84l2.44-1.76l0.86-1.76l2.15-1.09l5.47-5.55l3.32-1.21l0,0l4.66-1.2L220.59,114.88z"/>
	<path id="TR-27" fill="#1E3250" stroke="#1E3250" stroke-width="0.5" d="M499.58,253.69l1.79,0.84l4.33-1.35l1.689,1.85l7.591,0.26
		l5.63,2.39l0,0l-0.86,1.05l-1.11-0.72l-2.649,0.35l-4.11,4.78l0.53,0.95l-1.08,0.49l-0.87,2.74l1.73,2.24l-1.65-0.27l-0.29,1.02
		l1.82,3.44l-0.641,3.66l2.19,1.42l2.57-0.6l-0.48,3.49l1.62,1.21l-0.09,1.93l1.74,2.3l-0.771,2.45l0,0l-3.53,0.68l-6.54,3.58
		l-5.17,0.01l-4.069,2.46l0,0l-1.521-3.18l-1.95-0.86l-3.89,0.43l-1.49-0.65l-0.87-3.82l-1.1-1.13l-7.41-1.86l-1.25-4.17l-1.91-0.44
		l-1.55,0.43l-2.6,3.24l-4.061,1.89l-2.24,5.13l0,0l-5.29-1.74l0,0l-2.289-3.43l-4.511-1.38l-1.6-3.15l0,0l9.229-10.96l0,0
		l2.521-0.37l0.64-1.67l2.391-0.87l3.64-3.8l2.72,1.27l3.09,3.47l2.91,0.29l4.7-6.07l9.91-1.08l-0.24-2.28l2.43-0.22L499.58,253.69z
		"/>
	<path id="TR-28" fill="#1E3250" stroke="#1E3250" stroke-width="0.5" d="M565.77,64.74l-0.06,17.36l0,0l-5.09,2.1l-3.36-0.34
		l-4.29,2.49l-4.92,8.07l9.37,4.17l1.66,2.04l-0.65,6.58l-1.84,2.63l-1.359-0.47l-1.101,0.81l0.51,3.96l3.03,3.86l0.08,1.89l0,0
		l-9.43-0.93l0,0l-5.801-0.34l-2.75-1.29l-1.319-3.78l-2.57,1.8l-0.939-1l-1.671,0.87l-3.239-2.17l-4.24-0.82l-2.26-3.96l-0.21-6.52
		l0.88-3.93l-4.54-1.93l0,0l0.27-3.66l-1.449-2.39l0.939-1.79l-2.39-1.38l-1.58-3.97l2.17-1.76l-0.601-2.38l3.04-4.43l1.011-3.29
		l0,0l3.87,1.32l3.77-0.33l3.08,1.95l1.41-0.82l1.56,0.73l4.28-0.37l3.88-3.03l2.521,1.42l1.199-0.21l4.04-3.19l2.42-0.13
		l2.551-1.76l3.569,0.62L565.77,64.74z"/>
	<path id="TR-29" fill="#1E3250" stroke="#1E3250" stroke-width="0.5" d="M565.71,82.1l2.58,1.45l5.979,1.33l2.33,2.59l1.58,0.32
		l0.53,1.95l2.69-0.19l2.54,2.3l4.319-0.18l2.15-2.36l0.439-3.96l2.25-0.2l0.591,1.62l-0.82,3.24l4.53,1.8l0.939,1.89l3.23-1.43
		l-0.561-1.11l-2.83-1.28l-0.01-1.43l3.021-0.44l2.189,1.58l-0.47,1.94l2.18,1.63l2.44-0.59l3.529,3.05l0,0l-14.38,2.45l-1.229,3.53
		l0.22,7.07l-2.95,7.11l-4.45,5.7l3.771,3.89l0,0l-6.29,3.75l-8.55,0.82l-6.57-3.16l-2.93-0.26l0.109-2.33l-6.949-1.81l-3.11-2.49
		l0,0l-0.08-1.89l-3.03-3.86l-0.51-3.96l1.101-0.81l1.359,0.47l1.84-2.63l0.65-6.58l-1.66-2.04l-9.37-4.17l4.92-8.07l4.29-2.49
		l3.36,0.34L565.71,82.1z"/>
	<path id="TR-30" fill="#1E3250" stroke="#1E3250" stroke-width="0.5" d="M743.31,240.72l4.7,1.04l7.62-2.19l5.771,0.55l5.159-1.29
		l2.771,1.39l1.26,2.54l5.561,0.52l1.979-1.5l3.76,0.28l1.91-1.01l0,0l4.271-0.47l2.76,2.65l0.35,1.41l-2.449,3.05l1.909,2.13
		l-1.39,7.99l2.27,0.96l0.891,2.2l2.649,0.52l0.681,1.87l2.64,1.7l0.51,1.84l-2.29,2.23l1.07,4.37l-1.09-1.31l-3.49-0.01l-1.55-1.16
		l-6.89,6.08l-5.08,1.6l0.75,1.03l-1.49,1.22l-0.43,1.69l-2.811-1.58l-1-3.04l-1.77-2.05l1.67-3.26l2.069-0.35l-0.27-4.13
		l-1.63-1.89l-4.24-2.1l-4.14,0.33l-0.261-0.65l-1.05,1.59l-1.529,0.31l-1.66,3.51l-2.761,0.12l-0.77,1.49l-1.05-1.8l-4.7-0.36
		l-2.04,0.83l-3.13-2.07l-2.39,0.81l-6.69-4.39l0,0l-0.25-7.62l-1.92-3.76l5.93-6.65L743.31,240.72z"/>
	<path id="TR-31" fill="#1E3250" stroke="#1E3250" stroke-width="0.5" d="M436.62,279.1l3.88-0.78l6.69,3.09l3.09-0.47l3.09,0.71
		l0,0l1.6,3.15l4.511,1.38l2.289,3.43l0,0l0.37,1.59l-2.479,2.87l0.62,1.94l-2.15,2.59l0.64,3.67l-1.939,5.17l0.9,3.21l0.89,1.49
		l0.75-0.1l0.04,3.49l0.29-0.681l1.88,0.07l-0.061,2.01l1.601,0.19l-0.63,1.09l0.649,1.36l-1.31,0.88l-1.64-0.49l-0.2,1.18
		l-4.811-1.319l-1.489,2.22l-3.551-0.97l0.681,1.26l-1.301,1.32l1,4.31l-0.609,3.73l-1.601,1.02l-1.869-1.12l-0.091,2.98l-1.58-0.49
		l-2.279,0.78l-1.8,7.04l-1.591-2.73l-4.729-0.99l0.22-2.88l-3.71,0.54l2.63-4.38l-3.42-7.3l-4.8-7.271l-0.04-1.18l3.05-2.49
		l2.21-3.75l2.86-1.43l2.58-3.21l6.3-3.12l0.88-2.43l-0.92-5.26l0.54-2.18l-3.63-5.03l-4.48-2.49l0,0l-0.25-2.58L436.62,279.1z"/>
	<path id="TR-33" fill="#1E3250" stroke="#1E3250" stroke-width="0.5" d="M385.11,256.9l0.7,3.67l6.09,7.11l0.08,1.23l-2.02,1.89
		l-0.02,1.54l2.19,1.27l0.92,2.32l1.69,0.01l3.01,1.78l1.35,6l0.68,6.76l-0.81,1.54l-2.84-0.73l-1.29,1.71l-0.69-0.67l-0.02,1.1
		l-2.74-0.23l-0.16,0.96l-2.14,1.06l0,0l-1.6-2.51l-4.33-1.97l-4.51,0.05l-3.77,2.1l-5.46,5.34l-6.61,4.43l-4.18,5.66l-3.63,2.86
		l-0.24,4.66l-1.18,1.3l-1.48-0.01l-1.95,3.22l-1.12-2.77l-2.84-1.521l-1.12,2.051l-1.06,0.1l-0.76,2.2l-4.13,2.97l-0.57,2.03
		l-1.49-3.08l-2.29,0.95l-1.27,2.51l-3.9-1.63l-2.78,1.54l-1.96-1.33l-2.3,1.17l-6.1-0.38l-2.83,3.479l-1.23-1.25l-4.23-0.489
		l-3.1,1.54l-2.91,2.87l-5.66-1.4l-4.3-2.87l0,0l1.84-3.45l-0.76-2.27l2.32-6.311l-3.47-10.459l0,0l4.68,0.11l8.81,3.31l5.4,0.89
		l5.63-1.92l3.95-3.63l-2.68-3.21l-3.1-1.9l-2.14-3.46l0.55-4.46L311.7,287l2.91-1.21l1.91,1.67l3.16-3.04l6.49-1.42l3.28,0.23
		l2.76-1.25l3.38,1.87l7.03-4.1l0,0l7.89-1.09l7.9-2.78l1.48-1.34l-0.22-3l6.72-2.06l7.58-4.07l-1.54-2.77l1.06-2.14l0,0l3.35-0.08
		L385.11,256.9z"/>
	<path id="TR-76" fill="#1E3250" stroke="#1E3250" stroke-width="0.5" d="M750.81,116.2l2.54,2.41l2.23-0.15l5.72,3.25l11.69-0.4
		l3.54-0.95l5.93,2.6l5.47,5.14l-0.01,0.99l1.75,1.52l0.07,1.82l4.16,1.72l-0.33,1.08l2.39,1.56l0.14,1.42l2.261,1.75l-0.15,1.34
		l0.79,0.35l-0.47,1.33l-3.87-4.51l-1.98-0.229l-2.12-3.57l-5.89,5.43l0,0l-3.83,0.47l-5.38-2.33l-3.76,0.46l-4.26-1.34H761.1
		l-3.6-2.71l-7.15-0.67l-3.369-2.63l-1.711,0.45l-1.64,2.58l-2.41,0.22l-0.54-7.02l-2.88-3.41l-3.109-0.83l0,0l4.26-6.92l4.54,0.84
		l7.3-1.12l0,0L750.81,116.2z"/>
	<path id="TR-32" fill="#1E3250" stroke="#1E3250" stroke-width="0.5" d="M191.09,239.67l2.15-4.33l-0.2-3.53l3.13-3.98l4.02-1.85
		l6.83-7.55l5.45-1.36l5.93-3.75l3.09-5.34l3.7-1.67l3.11-3.03l5.57-0.88l2.54,2l1.87,2.96l1.29-0.21l0,0l0.9,3.07l2.59,3.3
		l5.18,4.34l2.98,1.07l1.01,2.82l-0.3,4.09l-3.01,2.22l-0.51,2.68l-3.22,2.44l-0.38,3.14l1.88,4.53l-0.03,1.93l-0.26,0.78
		l-3.33,1.19l-1.05,1.67l1.12,5.76l-1.3,5.21l0,0l-8.19,1.09l-4.11,3.11l-3.58-2.99l-2.64-0.05l0,0l-1.54-0.38l-0.5-3.32l-3.25-3.35
		l-0.75-5.17l-5.47-2.96l-3.62,0.52l-3.6-0.67l-0.68-1.35l0.86-2.74l-1.28-1.67l-7.46,2.73L191.09,239.67z"/>
	<path id="TR-34" fill="#1E3250" stroke="#1E3250" stroke-width="0.5" d="M156.16,56.24l13.17,3.21l0.97-0.56l9.4,2.24l3.93-0.05
		l0,0l0.09,2.6l-2.37,3.93l-1.63,0.55l-4.18-0.92l-2.36,3.82l-3.88-1l-3.13,0.58l-7.01,8.76l0,0l-1.03-0.72l-2.56,0.6l1.22-2.521
		l-5.9-2.58l-1.44-2.14L145.81,70l-0.64-2.35l1.87-1.48l0.64-2.98l1.15-0.78L147.88,61l0.69-1.95l3.24-2.5L156.16,56.24z
		 M110.83,37.47l3.97,4.12l14.47,7.7l2.63,0.46l11.03,5.02l5.3,0.2l1.37,0.79l-0.02,1.47l-3.03,3.02l1.39,1.77l-3.64,6.48l-5.6,1.74
		l-0.73,0.96l-2.9-1.3l-5.83,1.08l-1.03-0.66l-0.32-2.42l-0.93-0.04l-1,1.8l-5.09-3.12l-7.7-1.98l-6.57,1.16l-3.11,1.77l0,0
		l-0.9-1.97l0.17-2.87l1.74-3.51l-0.02-2.43l2.39-4.07L110.01,37l0,0L110.83,37.47z"/>
	<path id="TR-35" fill="#1E3250" stroke="#1E3250" stroke-width="0.5" d="M49.91,200.53l1.13,0.69l0.46,3.64l-1.94-1.1L49.91,200.53
		z M78.64,156.32l0.77,4.68l2.23,2.26l-0.6,4.13l3.03,8.11l-0.59,3.21l-1.56,1.55l-4.57,1.92l-2.06-0.59l-5.27,2.76l0.34,1.32
		l-2.18,3.18l3.98,5.4l0.24,5.04l1.94,1.36l4.41-0.34l1.85,0.98l1.11,2.37l2.9-0.35l1.48,2.35l1.64-0.26l1.55,1.51l2.78,0.34
		l2.03,4.02l2.69,0.08l0.8,1.34l1.13-1.56l-0.45-3.05l1.9-0.41l1.43,1.19l4.04-0.95l4.04,1.84l1.09,1.56l3.71,0.65l2.94,2.64
		l5.28,1.78l-0.42,3.66l2.47,2.96l0,0l-1.2,2.21l-3.43-1.75l-3.05,0.98l-0.69,1.72l-1.94,1.47l-10.18,0.95l-11.81,3.62l-5.31-2.74
		l-2.73,0.09l-3.48,2.26l-0.7,4.28l-2.82,2.22l-0.79-2.37l-3.31-1.46l0,0l0.27-2.32l-1.33-2.13l-4.55-0.41l-6.23-4.58l-3.15,0.51
		l-1.71,1.71l-1.71-6.53l-2.41-0.93l0.97-1.29l-1.33-1.17L47,218.47l-0.36,3.21l-0.74-0.07l0.36,1.51l-0.9,0.38l-0.96-2.05
		l-0.43,1.34l-1.18-0.62l-0.61-2.83l-5.19-2.15l0.08-1.89l-1.09,1.72l-1.22,0.08l-1.98-1.97l-2.44-0.34l0.14-1.26l1.63,0.2
		l0.35-1.67l0.92,0.15l-0.83-2.56l3.64,3.16l0.51-2.33l0.74,1.5l3.33-2.79l-1.31-2.71l1.63,1.44l1.09-1.46l-3.38-2.59l-1.78,1.57
		l0.81-2.39L35.71,199l-0.29-3.67l0.31-0.98l2.33-1.08l4.37,1.55l1.99,4.75l2.29,1.48l0.62,3.34l-2.21-0.1l0.71,0.97l-0.87,1.37
		l1.37,0.46l2.42,5.6l1.19-0.43l-1.16-3.91l1.19-1.94h1.26l1.23,3.29l1.49,0.61l9.19-3.05l2.63,0.87l2.33-2.31l1.12,0.02l-0.46-1.34
		l-1.94,0.95l-1.39-0.95l-5.21,1.57l-2.8-3.52l-0.03-1.62l-2.22-1.17l0.7-0.97l-3.74-2.11l0.38-1.29l-1.32-0.34l0.83-1.25
		l-1.01-1.54l0.39-2.25l3.69-1.06l0.31,1.01l0.82-0.55l1.58,0.99l0.5-1.7l1.33,0.07l-1.9-3.15l0.86,0.39l1.23-0.98l0.25,1.65
		l1.03-0.12l-0.17-2.13l3.86-1.18l-1.06-1.34l0.84-0.98l-0.56-1.36l-1.36,1.5l-2.38-1.47l-3.59,1.1l-2.74-1.81l-0.06-4.26l3.63-2.31
		l-2.06-3.42l-2.92-1.31l0,0l2.64-3.66l6.95-2.23l3.16-3.6l3.6-1.1l3.18,0.94L78.64,156.32z"/>
	<path id="TR-46" fill="#1E3250" stroke="#1E3250" stroke-width="0.5" d="M467.16,200.18l9.479-2.05l6.86,1.29l4.41-0.37l1.07,0.87
		l0,0l-2,3.13l0.039,1.92l5.761,3.19l3.359-0.35l4.311,3.39l3.7,0.7l-0.61,4.58l3.35,0.48l0.08,2.32l-2.04,3.21l-4.71,4.14
		l0.63,3.23l1.471,0.93l0,0l-1.46,2.63l-3.28,1.87l0.15,4.58l-2.561,2.67l-0.27,3.13l-1.341,1.97l0.681,1.96l3.92,0.42l1.42,3.67
		l0,0l-2.271,5.67l-2.43,0.22l0.24,2.28l-9.91,1.08l-4.7,6.07l-2.91-0.29l-3.09-3.47l-2.72-1.27l-3.64,3.8l-2.391,0.87l-0.64,1.67
		l-2.521,0.37l0,0l0.431-2.6l-1.66-3.27l1.2-2.63l-0.36-0.97l-6.84-0.09l-5.48,1.73l-0.84-0.77l-3.609,0.09l-1.671-14.95l1.15-2.35
		l0,0l2.89-2.9l1.171-3.6l-2.49-5.41l2.8-3.97l-3.24-1.67l2.931-3.5l3.09-8.85l0,0l11.6-4.9l1.59-6.88L467.16,200.18z"/>
	<path id="TR-78" fill="#1E3250" stroke="#1E3250" stroke-width="0.5" d="M304.73,37l-0.03,1.25l1.27,0.91l2.68-1.33l1.17,0.99
		l1.31-0.66l1.53,0.49l-0.2,2.95l1.88,1.1l0.46,2.13l-0.18,2.93l-1.18,2.12l-2.76,0.43l-2.39,2.44l-1.04,2.93l0.73,4.11l0,0
		l-0.95-0.19l-1.41,1.26l-4.31,0.05l1.03,2.56l-1.03,4.3l-4.71-1.84l-2.75,2.54l-1.41-2.24l-9.5-1.94l0,0l-5.02-0.71l0,0l-1.71-4.78
		l1.7-5.8l2.03-1.79l0,0l5.3,1.42l3.86-2.8l2.43,1.01l2.34-1.32l2.11,1.52l1.32-3.1l-1.76-4.9l0.37-1.29l5.69-2.42l1.09-1.94
		L304.73,37z"/>
	<path id="TR-70" fill="#1E3250" stroke="#1E3250" stroke-width="0.5" d="M286.5,291.06l9.13-1.63l4.22-1.9l2.65-2.68l1.28-4.76
		l-0.82-1.46l-4.04-2.28l-1-5.51l1.37-1.82l2.97,0.11l2.11-6.29l4.06-3.55l2.37-3.44l4.32-2.28l3.88-0.38l4.58,3.36l9.17-3.15
		l0.69,10.33l6.84,9.46l2.38,6.52l0,0l-7.04,4.1l-3.38-1.87l-2.76,1.25l-3.28-0.23l-6.5,1.42l-3.16,3.05l-1.91-1.68l-2.92,1.21
		l1.53,3.28l-0.55,4.46l2.14,3.46l3.1,1.9l2.69,3.2l-3.96,3.63l-5.63,1.92l-5.4-0.88l-8.81-3.32l-4.68-0.11l0,0l-6.01-6.2l-0.5-1.84
		L286.5,291.06z"/>
	<path id="TR-36" fill="#1E3250" stroke="#1E3250" stroke-width="0.5" d="M747.2,69.19l4.56,3.18l0.15,4.7l2.79,6.16l-0.08,3.49
		l-1.09,0.73l-2.05,4.93l-1.04,0.3l0.27,1.61L749.78,94l0.279,1l-3.18,1.35l-0.43,0.97l2.99,2.93l-1.181,4.15l2.101,3.96l1.659,0.74
		l0.07,1.69l-1.25,0.09l2.57,3.37l-2.24,0.47l-0.38,1.42l0,0l-7.3,1.12l-4.54-0.84l-4.26,6.92l0,0l-7.421-1.18l-23.699,5.79l0,0
		l1.979-3.17l-0.689-2.271l-4.79-2.17l-1.15-3.48l-2.86-2.24l-2.84-0.28l-0.529-1.35l-5.061-3.94l-0.31-1.47l2.17-2.48l7.31-1.71
		l3.87,0.39l1.73-0.88l0.899-1.52l-1.069-2.14l1.13-3.97l2.27-3.36l4.24-3.4l-0.15-1.39l0,0l1.33-1.37l3.7-0.19l0.53-3.43
		l4.319-4.73l0.42-1.92l3.671-1.92l2.29-2.51l2.06,1.03l3.05-1.27l6.47,0.39l1.87-1.08l4.32-0.4l1.66-1.71l0,0L747.2,69.19z"/>
	<path id="TR-37" fill="#1E3250" stroke="#1E3250" stroke-width="0.5" d="M326.17,12.97l16.6,2.32l11.16-0.37l7.65,1.67l0,0
		l0.01,1.65l1.81,1.62l0.6,2.7l-1.18,2.91l4.91,0.23l1.58,3.44l4.86,1.03l2.43,1.9l-1.44,5.58l-3.58,3.05l0.93,2.92l-2.94,5.96
		l1.02,2.7l0,0l-2.46,2.21l-0.25-1.57l-2.57-0.53l-0.27,2.28l-4.51,3.58l0.39,5.63l2.75-0.36l2.19,1.01l1.4,3.52l-2.39,1.19
		l-3.24,7.59l-6.47,1.64l0,0l-7.57-2.1l-4-4.72l-0.12-1.61l2.75-5.03l-0.12-1.9l-4.92,2.3l-6.62,1.6l-1.75-0.32l-2.41-2.43
		l-6.08,3.29l-6.22-2.93l-4.39,0.36l-2.81-4.47l-2.92-0.72l0,0l-0.73-4.11l1.04-2.93l2.39-2.44l2.76-0.43l1.18-2.12l0.18-2.93
		l-0.46-2.13l-1.88-1.1l0.2-2.95l-1.53-0.49l-1.31,0.66l-1.17-0.99l-2.68,1.33l-1.27-0.91l0.03-1.25l0,0l3.21-8.2l-1.49-0.77
		l-2.32,1.16l-2.57,0.05l-0.99-1.47l0.85-2.29l-1.54-1.1l-0.61-2.13l0,0l6.36-1.05l17.03-7.86L326.17,12.97z"/>
	<path id="TR-38" fill="#1E3250" stroke="#1E3250" stroke-width="0.5" d="M426.76,161.07l7.16,3.1l1.03,2.61l1.92,1.12l1.79,2.69
		l4.16,0.12l6.58-1.68l9.1,0.65l5.86-0.92l4.14,1.74l2.65,2.24l1.97,5.34l-3.11,2.94l-1.99,3.72l-0.619,4.99l-3.65,3.24l3.41,7.21
		l0,0l-1.9,3.02l-1.59,6.88l-11.6,4.9l0,0l-6.471-6.49L440.48,210l-3.65,4.98l-2.521,6.53l-6.579,2.47l-4.351,4.7l-3.28,1.41
		l-1.29,9.35l-1.229,2.07l-7.13-0.43l-1.271-1.69l-1.319,0.34l-5.44-1.9l0,0l1.84-5.8l-0.3-9.84l-2.4-1.73l-5.66-0.54l-1.22-4.68
		l-3.31-2.45l-2.05-3.08l0,0l0.97-2.78l4.97-2.23l4.67-6.7l-3.85-9.12l-3.34-1.85l2.97-6.95l0.61-4.35l0,0l4.15-1.67l0.28,3.51
		l0.82,0.58l5.291-2.06l5.77-4.17l-1.41-3.68l1.09-1.67l10.28-1.38l2.061-1.06L426.76,161.07z"/>
	<path id="TR-79" fill="#1E3250" stroke="#1E3250" stroke-width="0.5" d="M467.06,291.35l2.24-5.13l4.061-1.89l2.6-3.24l1.55-0.43
		l1.91,0.44l1.25,4.17l7.41,1.86l1.1,1.13l0.87,3.82l1.49,0.65l3.89-0.43l1.95,0.86l1.521,3.18l0,0l-2.801,1.45l-0.77,1.97
		l-7.95-1.96l-2.74-0.17l-2.239,1.04l-0.83-1.15l-1.37,0.22l-1.01,1.92l-2.631-1.65l-0.25-1.01l1.41-1.75l-0.439-0.85l-1.73-0.22
		l-0.43-1.06l-2.69-1.14L467.06,291.35z"/>
	<path id="TR-71" fill="#1E3250" stroke="#1E3250" stroke-width="0.5" d="M327.71,155.08l-1.56-0.74l0.5-2.47l-0.74-6.92l-5.64-4.84
		l3.18-5.32l-0.42-3.56l1.3-0.4l2.46-6.74l6.69-2.36l2.39-2.29l-1.1-1.65l0.85-4.41l-0.69-1.29l1.14-2.33l-0.55-0.66l2.08-2.05
		l-0.07-1.44l2.47-0.49l0,0l3.66,0.7l2.04,2.15l4.51,0.44l0,0l1.5,2.84l3.94,1.37l-0.67,2.3l1.01,2.53l-0.55,2.52l2.72,4.33
		l-0.28,0.9l0,0l-3.4,1.32l1.67,2.11l0.71,4.49l0,0l-1.04,1.27l-2.99,0.11l-1.95,4.72l-8.64,8.01l-3.25,1.22l-6.38,4.96
		L327.71,155.08z"/>
	<path id="TR-39" fill="#1E3250" stroke="#1E3250" stroke-width="0.5" d="M72.51,8.31l1.78,0.12l1.78,2.11l1.24,0.11l1.15,2.87
		l3.23,2.57l1.67-0.01l2.14,3.03l0.56-1.82l1.66-0.18l0.3-1.02l2.05,0.21l1.09-1.23l5.65,1.66l-0.68-2.13l1.33-0.91l0.19,0.62
		l0.16-0.79l2.14,1.84l2.69-0.96l2,0.54l1.22,5.36l-2.44-0.19l-0.6,3.25l2.57,5.65l2.47,3.07l-0.7,0.68l0.5,1.43l1.86,2.2l0,0
		l-1.65-0.14l-0.37,1.33l-8.41,4.99l-3.54,0.39l-6.35,2.33l-2.16,1.86l-1.66,6.39l-2.87,2.96l-3.17,1.15l-4.83-3.77l-1.1-3.01
		l-1.75-1.3l-6.98,0.97l-3.05-0.6l-2.24,2.07l0,0l-1.34-1.15l1.23-2.41l-1.14-4.34l2.27-3.91l-0.38-1.47l2.18-2.83l-1.15-1.09
		l-1.69,1.86l-0.99-0.92l2.45-3.29l-0.39-2.81l1.55-3.39l-1.47-3.16l0.28-9.44l0,0l0.64-1.95l1.8-1.03L63.19,9.3l1.82-0.64
		l5.52,1.85L70.5,9.29L72.51,8.31z"/>
	<path id="TR-40" fill="#1E3250" stroke="#1E3250" stroke-width="0.5" d="M356.86,133.12h2.98l1.67,3.81l7.41,3.82l1.68,3.24
		l5.03,0.91l0.69,1.02l-2.27,2.8l4.24,2.2l1.59,2.82l0,0l-4.7,5.27l1.18,2.3l4.92,0.52l-5.88,7.52l-0.09,2.61l1.77,1.92l-3.43,0.07
		l-3.15,3.03l-3,7.57l-1.37-0.11l-2.69-2.63l0.27,2.56l0,0l-2.65,0.52l-2.25-0.85l-4.31-4.32l0.02-2.35l-1.57-3.03l-2.47,0.34
		l-0.78-1.09l-2.16,0.95l-1.12-0.98l0,0l-0.7-0.98l-4.07-0.26l-0.23-1.35l-4.38-3.81l-2.97-1.18l-2.8-5l-2.58-1.59l1.1-1.1
		l-2.08-3.21l0,0l4.9-1.67l6.38-4.96l3.25-1.22l8.64-8.01l1.95-4.72l2.99-0.11L356.86,133.12z"/>
	<path id="TR-41" fill="#1E3250" stroke="#1E3250" stroke-width="0.5" d="M198.5,57.87l3.16,1.28l0,0l-1.55,1.07l-2.76,4.8
		l0.53,1.56l-0.6,1.37l2.95,6.37l-1.4,2.56l-3.1,1.26l0.76,5.31l-3.21,1.38l-2.18,5.36l-6,2.29l0,0l-7.23-1.88l-10.38,3.28
		L163.02,93l0,0l0.78-1.69l-0.12-5.87l0,0l2.46-2.48l2.07,2.92l10.17-2.33l4.4,0.82l0.96-1.5l-1.04-1.04l-5.47,1.1l-2.18-1.69
		l-4.7-0.6l-1.8,0.9l-3.35-0.73l-4.24,1.47l-1.45-0.45l-0.34-2.44l0,0l7.01-8.76l3.13-0.58l3.88,1l2.36-3.82l4.18,0.92l1.63-0.55
		l2.37-3.93l-0.09-2.6l0,0l9.93-0.18l1.85-0.77l0.24-1.46l1.55-1.17L198.5,57.87z"/>
	<path id="TR-42" fill="#1E3250" stroke="#1E3250" stroke-width="0.5" d="M265.16,168.27l1.07,0.46l3.54,7l1.9,1.88l4.1,0.42
		l3.15-4.37l1.06,1.24l2.51-1.12l3.5,2.63l2.58,0.31l1.29-0.51l2.32-3.41l4.04,1.89l3.39-2.08l0.36-3.98l2.75-1.37l0.77-4.43
		l1.21-1.84l6.21-1.74l0.69,0.68l-0.35,3.91l1.2,0.85l3.58-3.33l3.13-1.02l0.68,1.52l-2.94,1.6l0.83,4.96l2.27,2.84l5.83,3.65
		l-0.32,5.96l1.28,7.28l4.48,6.91l0,0l-5.31,1.72l-1.3,3.94l-3.12,3.44l-2.99,9.56l2.1,3.55l0.45,4.36l4.04,2.93l1.74,3.85
		l2.88,3.21l26.07-6.18l0,0l3.29,5.56l3.85,2.17l5.36,7.84l1.28,3.61l-0.27,1.96l-4.07,4.98l3.04,1.43l-0.99,3.2l3.75,0.83
		l2.46,3.44l0,0l-1.07,2.14l1.55,2.76l-7.59,4.07l-6.72,2.07l0.22,3l-1.47,1.34l-7.9,2.78l-7.89,1.09l0,0l-2.38-6.52l-6.84-9.46
		l-0.69-10.33l-9.17,3.15l-4.58-3.36l-3.88,0.38l-4.32,2.28l-2.37,3.44l-4.06,3.55l-2.11,6.29l-2.97-0.11l-1.37,1.82l1,5.51
		l4.04,2.28l0.82,1.46l-1.28,4.76l-2.65,2.68l-4.22,1.9l-9.13,1.63l0,0l-4.95-3.32l-0.85-4.4l-1.43-1.74l-7.47-3.44l-4.26-5.95
		l-2.3-6.9l-2.15-2.11l-1.06-2.91l-1.72-0.1l-3.47,2.07l-2.8,0.41l-8.94-2.08l-3.26-3.2l0,0l1.3-5.21l-1.12-5.76l1.05-1.67
		l3.33-1.19l0.26-0.78l0.03-1.93l-1.88-4.53l0.38-3.14l3.22-2.44l0.51-2.68l3.01-2.22l0.3-4.09l-1.01-2.82l-2.98-1.07l-5.18-4.34
		l-2.59-3.3l-0.9-3.07l0,0l1.21-3.75l12.3-8.01l-2.23-2.02l-0.44-1.77l3.39-6.3l0.5-5.52l-0.79-1.49l5.95-1.21l-0.56-0.92l-5.3-0.91
		l-1.16-2.26l0,0l7.64-1.021l1.77-2.67l2.54-0.16L265.16,168.27z"/>
	<path id="TR-43" fill="#1E3250" stroke="#1E3250" stroke-width="0.5" d="M144.59,143.87l8.42,0.23l1.01-1.85l2.89-2.14l0.77-2.53
		l4.35-3.88l1.54-6.22l3.65,1.28l1.75,1.57l5.11-0.31l0,0l1.7,5.66l3.47,2.97l1.55,0.78l6.08,0.25l0,0l2.4,0.58l4.47-1.03l0.65,0.8
		l-1.27,1.55l2.85,2.67l4.58,2.44l0.89,4.35l-1.13,1.87l0.74,3.64l-0.92,2.03l2.09,1.7l0.24,2.93l2.46,0.37l0,0l-1.72,3.34
		l-2.73,0.12l-3.35,2.19l0.48,7.15l-2.46,3.91l-2.85,1.18l-2.63,3.5l-2.08,0.59l0,0l-2.42-0.89l-1.88-3.84l-9.37-1.14l-4.21,0.43
		l-8.58,2.92l-3.61,3.45l-4.19-1.49l-4.93,0.54l0,0l-4.64-3.46l-1.53-3.88l1.22-1.64l-0.11-2.29l-8.61-1.59l-2.19-1.82l-1.54-3.35
		l0,0l-1.6-4.03l7.27-1.34l6.14-7.04l-0.91-6.6l2.88-3.05L144.59,143.87z"/>
	<path id="TR-44" fill="#1E3250" stroke="#1E3250" stroke-width="0.5" d="M530.2,168.87l2.5,1.99l3.04-1.72l2.609,1.64l3.23-0.11
		l3.88,3.99l0,0l-3.29,3.58l0.22,2.04l-1.029,1.04l2.39,7.88l-0.86,0.7l-3.689-1.1l-1.09,0.93l-1.561-0.19l-0.16,2.53l-1.989,1.04
		l-2.29,3.17l0.439,4.71l3.03,2.84l9.59,3.03l5.62-1.06l2.94,4.26l3.039,2.04l6.091-1.31l1.8,2.58l0,0l-0.53,3.66l-1.32,1.34
		l1.53,0.88l0,0l-5.12,3.56l-0.45,1.38l-8.46,3.39l-6.92-4.75l-2.05-0.39l-0.71-1.13l-5.89-2.88l-4.09,0.27l-1.42,0.54l-1.641,2.28
		l-7.2,2.74l-0.39,1.09l1.35,1.83l0.71,3.31l-4.01,3.73l-4.68,0.9l-4.39-0.94l-2.04,1.13l-1.04-2.49l-3.16,0.72l0.439-1.82
		l-0.859-0.93l0,0l-1.471-0.93l-0.63-3.23l4.71-4.14l2.04-3.21l-0.08-2.32l-3.35-0.48l0.61-4.58l-3.7-0.7l-4.311-3.39l-3.359,0.35
		l-5.761-3.19l-0.039-1.92l2-3.13l0,0l2.38-2.08l1.409-4.94l6.351-3.33l-3.99-5.16l2.41-4.27l-2.25-4.2l0.36-0.94l11.93,1.93
		l1.08-1.55l-1.51-2.92l1.26-1.44l5.76,1.23l9.65-0.14l3.899-2.74L530.2,168.87z"/>
	<path id="TR-45" fill="#1E3250" stroke="#1E3250" stroke-width="0.5" d="M78.64,156.32l2.49-1.53l4.66,3.71l6.35-1.03l3.53,3.59
		l4.29-2.89l1.35,1.36l1.32,3.7l4.52,3.46l4.29,6.25l1.85-0.28l2.78-2.41l4.3,0.79l7.12-3.9l3.51,0.37l0,0l1.54,3.35l2.19,1.82
		l8.61,1.59l0.11,2.29l-1.22,1.64l1.53,3.88l4.64,3.46l0,0l-2.5,5.48l-3.57,2.06l-2.62,0.2l-1.05,1.36l-1.92,12l-2.76,4.54
		l4.21,5.73l0,0l-2.45,2.03l-1.44,3.48l-4.59,2.69l0,0l-4.96-2.11l0,0l-2.47-2.96l0.42-3.66l-5.28-1.78l-2.94-2.64l-3.72-0.65
		l-1.08-1.56l-4.04-1.84l-4.04,0.95l-1.43-1.19l-1.9,0.41l0.44,3.05l-1.12,1.56l-0.8-1.33l-2.69-0.08l-2.03-4.03l-2.78-0.33
		l-1.55-1.52l-1.64,0.26l-1.48-2.35l-2.9,0.35l-1.11-2.37l-1.86-0.98l-4.41,0.34l-1.94-1.37l-0.24-5.04l-3.98-5.41l2.18-3.18
		l-0.34-1.31l5.27-2.76l2.06,0.59l4.57-1.92l1.56-1.55l0.59-3.21l-3.03-8.11l0.6-4.13l-2.23-2.26L78.64,156.32z"/>
	<path id="TR-47" fill="#1E3250" stroke="#1E3250" stroke-width="0.5" d="M641.03,243.86l3.31,11.35l11.42-0.99l6.33-3.1l4.3-3.75
		l6.021-0.56l2.16-1.87l0,0l0.489,3.12l2.721,3.11l-1.74,1.63l-0.47,1.93l-2.83,1.04l-6.09,0.38l-0.841,1.55l-1.3,10.63l0.49,1.08
		l1.93-0.67l1.101,3.49l-0.37,2.73l0,0l-5.891,1.89l-9.72-0.02l-2.09,0.87l-2.17-1.68l-10.521-1.89l-3.06,1.26l-2.82-1.03
		l-9.569,5.01l-5.11,0.81l-2.14,2.57l-5.23,2.84l0,0l-0.56-2.31l-2.181-1.6l-0.67-4.53l-2.199-3.42l-0.171-1.76l-1.579,0.16
		l-1.711-1.71l-0.43-3.31l-2.59-6.28l-0.21-2.7l1.21-1.65l-1.67-2.77l0,0l2.39,0.06l5.63-2.67l4.73,2.85l1.99,0.18l6.689-2.63
		l0.561-1.9l8.819,2.24l0.75-1.38l-0.89-3.31l0.61-2.48l8.42,2.44l3.72-0.97L641.03,243.86z"/>
	<path id="TR-48" fill="#1E3250" stroke="#1E3250" stroke-width="0.5" d="M79.29,259.37l0.68-3.81l2.59-1.97l3.01-0.48l4.28,1.81
		l2.62-0.16l2.98,2.65l5-0.87l7.36,0.58l5.33-4.28l0.67,2.07l9.13,0.37l5.47,3.93l1.34-0.24l0,0l0.72,2.73l2.12,0.31l1.61,2.14
		l-0.14,2.8l3.28,1.97l1.79,3.61l2.56,0.88l4.09-0.61l0.38,3.59l2.92,4.19l-0.08,3.78l1.15,3.21l2.9,1.17l3.75-0.58l2.28-1.51l0,0
		l0.93,1.12l2.3,0.02l-1.17,2.62l2.71,0.82l0.51-1.38l1.07,0.27l3-7.28l4.46-1.85l3.44,1.26l0,0l1.6,1.35l0.53,2.24l-2.39,4.18
		l0.02,6.16l-1.29,3.22l-3.88,2.45l-2.16,3.75l-2.29,2.03l-5.13,0.3l-3.11,1.68l0.46,2.36l-0.88,0.38l0.12,3.419l-1.99,1.36l0,0
		l-1.79-1.77l-2.45-0.65l-1.05-0.9l0.36-0.92l-1.95-0.55l1.3-1.41l-0.24-2.38l-0.96-0.66l0.97-1.21l0.01-2.19l-1.38-0.36l-0.22-0.91
		l-1.53,0.51v0.87l-1.66-0.28l1.39-0.86l-0.17-2.97l1.46,0.26l0.07-1.61l1,0.59l-0.55,0.74l1.13-0.27l0.26-1.11l-1.05-1.52
		l-1.72-0.29l-1.46-1.74l-0.98,0.3l-2.76-2.36l-1.31,2.92l-1.41,0.16l0.17,1.32l-0.75,0.44l0.68,1.31l0.45-0.62l1.16,0.43
		l-2.48,2.62l-0.91-1.94l1.1-0.56l-1.39-1.11l-0.99,0.43l0.46-0.96l-0.79-0.92l-2.54-0.89l-2.24,0.66l-0.9-1.59l-1.24,1l0.26-1.3
		l-0.69-0.34l1.07-1.06l-0.84-0.46l0.7-0.7l-1.82-1.94l-1.51-0.7l-0.57,2.3l-0.71-0.75l-0.75,0.43l-0.03-1.53l-1.6,0.28l-0.2-3.28
		l-3.13,1.61l0.33,0.77l1.61-0.11l-1,2.39l-3.66-1.48v1.05l-1.6-0.01l-0.37-1.06l1.94-0.43l-1.85-1.32l-1.31,2.35l2.85,3.84
		l-2.13-0.06l-1.29,2.07l-2.49,0.32l-2.47,4.73l-1.27-0.17l-2,1.66l-0.45-0.76l-1.17,1.37l-0.83-2.71l3.99,0.15l1.37-2.03
		l-0.57-0.86l-1.17,0.28l0.73-1.22l-1.21-0.83l-0.68,1.09l-2.44-0.49l3.65-2.18l1.76-0.35l0.16,1.07l1.15-0.95l-1.78-1.34l1.88-2.38
		l-2,0.08l-0.79,1.6l-4.55,0.53l-0.86,0.87l-8.33-1.02l-1.7,1.89l-0.55,3.22L86,297.2l-3.99,1.57l-4.76-1.64l-0.04-1.25l2.42-0.2
		l0.41-1.88l7.35-0.74l1.36-2.4l2.54,1.29l4.83-1.39l9.37,0.65l0.48-2.03l-2.19,0.03l0.78-0.38l-0.96-0.55l2.34-1.06l-0.19-1.19
		l-1.46-0.46l1.17-0.25l-0.88-0.84l3.06-0.79l2.63,0.83l0.12,1.01l-0.17-2.11l1.81-0.22l0.41-2.25l1.41,0.5l-0.14-0.77l3.49-1.35
		l-0.24-1.12l-9.22,0.89l0.59,0.93l-0.68,0.23l-0.38-0.87l-4.66-0.18l-1.28,0.8l-2.27-0.64l-5.46,2l-3.03-0.7l-1.95,1.25L86,281.31
		l-0.38,0.98l-1.92-0.94l-1.54,0.33l-2.42-2.65l-0.44,0.95l-0.69-0.62l-0.84,1.61l0.22-1.5l-2.13,0.68l-1.13,3.04l-1.65-0.4
		l-1.55-4.91l2.8-2.77l-1.59-0.02l-0.07-0.89l0.84-0.57l1.6,1.24l0.47-2.23l0.88,1.47l0.83-1.3l1.04,0.56l-0.06,1.31l1.75-0.43
		l1.67,2.45l2.73-2.43l1.79-0.41L84.65,273l-0.44-2.03l1.56-1l0.75,0.62l-0.53,1.09l0.61-0.23l-0.63-1.67l1.57-3.32l-2.34,0.11
		l-1.42,2.58l-0.96-0.53l1.08-1.04l-0.62-1.13l-2.18,1.48l1.67-3.68L81.79,263l-1.25,2.24l-2.26-1.06l-0.25-1.72l2.03-1.3
		L79.29,259.37z"/>
	<path id="TR-49" fill="#1E3250" stroke="#1E3250" stroke-width="0.5" d="M698.28,149.28l3.5,3.61l1.55,4.06l3.439-0.06l0.551,3.41
		l4.149,9.15l-0.81,4l0.21,6.44l0,0l-10.101-0.87l-9.989,3.04l-1.46,1.65l-0.82,2.92l-2.21,1.05l0.32,3.44l-5.82,5.28l-1.15,2.77
		l-7.08-1.66l-7.85-0.42l-3.03,1.47l-0.26,0.89l0,0l-2.08,2.83l-3.13,0.56l0,0l-0.27-3l-1.86,0.37l-2.01-1.58l-1.07-4.31l0.44-3.07
		l-2.73,1.23l-2.25-1.71l0,0l-0.58-6.17l0.771-5.58l2.659-3.17l4.57-1.93l0.68-1.55l-0.569-1.96l-3.5-2l-3.82-6.64l0.13-2.94
		l1.73-2.26l0,0l2.489,0.95l7.971,0.24l6.92,4.83l0.96,4.88l7.07-0.189l7.55-2.021l4.1-2.82l0.101-2.22l4.93-1.189l0.979-4.69
		L698.28,149.28z"/>
	<path id="TR-50" fill="#1E3250" stroke="#1E3250" stroke-width="0.5" d="M379.88,153.74l0.58,1.65l3.19,1.43l5.36,0.83l3.77,3.05
		l0.71,2.37l-0.71,2.09l1.67,3.66l-0.07,3.39l1.94,3.52l0,0l-0.61,4.35l-2.97,6.95l3.34,1.85l3.85,9.12l-4.67,6.7l-4.97,2.23
		l-0.97,2.78l0,0l-5.36-0.27l-3.46,2.55l-1.8,0.07l-3.98-1.81l-1.79-3.43l0,0l-1.6-1.54l-0.44-3.74l-2.93-4.49l-4.53-2.42l-0.38-2.6
		l1.52-2.81l0.21-3.89l-1.07-0.96l0,0l-0.27-2.56l2.69,2.63l1.37,0.11l3-7.57l3.15-3.03l3.43-0.07l-1.77-1.92l0.09-2.61l5.88-7.52
		l-4.92-0.52l-1.18-2.3L379.88,153.74z"/>
	<path id="TR-51" fill="#1E3250" stroke="#1E3250" stroke-width="0.5" d="M372.93,206.82l1.79,3.43l3.98,1.81l1.8-0.07l3.46-2.55
		l5.36,0.27l0,0l2.05,3.08l3.31,2.45l1.22,4.68l5.66,0.54l2.4,1.73l0.3,9.84l-1.84,5.8l0,0l-4.53,2.71l-3.29,5l-5.05-0.61
		l-1.56,7.06l-1.01,1.36l0.76,1.46l-2.63,2.09l0,0l-8.23,3.47l-3.35,0.09l0,0l-2.46-3.44l-3.75-0.83l0.99-3.2l-3.04-1.43l4.07-4.98
		l0.27-1.96l-1.28-3.61l-5.36-7.84l-3.85-2.17l-3.29-5.56l0,0l3.36-3.32l4.38-1.1l2.1-1.6l3.37-4.98l0.79-5.81L372.93,206.82z"/>
	<path id="TR-52" fill="#1E3250" stroke="#1E3250" stroke-width="0.5" d="M483.94,60.92l3.88-0.02l0.18,1.18l4.16,1.14l5.88,4.41
		l2.85-1.41l3.04-4.8l0.851,1.13l3.489-0.09l-0.39,3.01l1.21,1.87l2.53,0.77l0.399,1.4l9.051,1.33l0,0l-1.011,3.29l-3.04,4.43
		l0.601,2.38l-2.17,1.76l1.58,3.97l2.39,1.38l-0.939,1.79l1.449,2.39l-0.27,3.66l0,0l-1.95,1.57l-3.01,0.33l-0.61,2.16l-3.7,3.48
		l-2.04-1.36l-1.649,1.37l-4.271-0.81l0,0l0.9-2.06l-2.63-1.54l1.899-2.91l-0.359-0.9l-4.82-1.37l-6.24,0.09l-6.76-6.19l-1.689-0.64
		l-0.301-1.13l-2.47-1.04l-4.06,1.33l-2.271-1.64l-2.35,0.1l-0.84-1.04L470.38,81l-4.81-1.59l-0.261-1.44l-1.869-1.189l0,0l0.26-1.4
		l4.89-2.68l1.17-1.91l3.94-0.2l1.27-0.96l1.82-2.17l-0.59-2.42l1.729-1.65l3.13,0.13l1.65-2.59l0,0L483.94,60.92z"/>
	<path id="TR-80" fill="#1E3250" stroke="#1E3250" stroke-width="0.5" d="M444.92,244.88l-1.15,2.35l1.671,14.95l3.609-0.09
		l0.84,0.77l5.48-1.73l6.84,0.09l0.36,0.97l-1.2,2.63l1.66,3.27l-0.431,2.6l0,0l-9.229,10.96l0,0l-3.09-0.71l-3.09,0.47l-6.69-3.09
		l-3.88,0.78l0,0l1.25-9.1l-2.34-10.58l0.47-4.38l1.29-4.13l2.15-3.22L444.92,244.88z"/>
	<path id="TR-53" fill="#1E3250" stroke="#1E3250" stroke-width="0.5" d="M651.93,50.31l1.311,2.28l0.2,2.85l5.729,7.71l-2.71,1.76
		l-4.75,5.41l-0.81,3.09l-3.641,4.96l0,0l-4.71,2.92l-7.67,7.23l-10.8,5.03l0,0l-4.3,1.13l0,0l-1.48-4.26l2.681-4.81l-3.211-4.92
		l1-4.43l-2.069-2.03l-0.28-2.92l-3.57-1.24l0,0l2.69-2.63l4.77-0.88l1.681,0.82l7.189-3.15l3.721-4.16l3.01-1.18l2.399,0.31
		l5.03-2.07L651.93,50.31z"/>
	<path id="TR-54" fill="#1E3250" stroke="#1E3250" stroke-width="0.5" d="M212.1,61.76l5.46,2.34l9.13,0.74l0,0l1.58,1.39
		l-2.05,2.85l-2.91,2.33l-2.63,0.47l-1.45,2.11l0.52,0.99l2.51-0.17l1.44,2.15l-1.94,1.78l-0.47,1.979l0.34,1.1l3.85,1.94l-1.39,2.8
		l0,0L222.62,89l1.86,3.5l-2.32,2.25l-5.67,1.2l-6.73-0.25l0.29,6.03l-0.8,1.82l0,0l-1.96,0.14l-1.75-1.81l-3.35,1.54l-1.95-1.12
		l-4.17,1.44l-2.4-0.47l-2.13-1.4l-1.68-2.93l-1.48,1.56l-1.04-0.29l-2.74-5.05l0,0l0.49-2.69l0,0l6-2.3l2.18-5.35l3.21-1.38
		l-0.76-5.31l3.11-1.26l1.4-2.56l-2.95-6.37l0.6-1.36l-0.53-1.57l2.77-4.8l1.54-1.07l0,0L212.1,61.76z"/>
	<path id="TR-55" fill="#1E3250" stroke="#1E3250" stroke-width="0.5" d="M433.16,28.5l4.05,3.2l1.87,2.83l0.87,9.14l4.28,5.6
		l4.18,2.36l0.26,1.67l1.89,1.69l2.681,0.45l3.68-1.68l4.47-6.229l0.98,1.14l7.86,1.49l5.22,3.07l1.28,1.48l0.39,3.89l5.57,2.34l0,0
		l-1.65,2.59l-3.13-0.13l-1.72,1.65l0.59,2.41l-1.82,2.17l-1.27,0.97l-3.94,0.19l-1.17,1.92l-4.891,2.67l-0.26,1.41l0,0l-1.939-1.5
		l-2.53,0.09l-3.43,1.41l-1.58-0.31l-2.73,1.64l0,0l-4.72-1.91l1.65-1.91l-0.29-1.1l-5.521-2.03l-0.979,2.09l-1.261,0.45
		l-1.649,4.96l-6.92-2.83l-5.08,1.21l-1.49-1.45l-4.31-0.17l-0.801-1.05l0.34-1.69l-3.05-1.53l-1.58-3.81l-1.369,1.02l-0.561-1.24
		l-1.439,1.05l-2.75-1.45l-5.421,0.91l-1.64-2.08l-5.1-0.63l0,0l-3.81-0.44l-1.88-1.34l2.08-3.71l-2.75-5.89l0.14-2.45l0,0
		l6.97-3.81l0.91,3.49l2.11,1.44l0.15,2.05l4.8,1.92l2-0.65l1.22-1.87l-0.56-3.73l1.76-0.38l3.311,1.38L413,44.12l-4.32-2.11
		l-1.34-4.27l1.92-3.96l1.78-1.53l0,0l3.47,1.8l4.38-0.13L433.16,28.5z"/>
	<path id="TR-63" fill="#1E3250" stroke="#1E3250" stroke-width="0.5" d="M565.17,227.93l8.38,3.32l3.311,3.86l5.72,1l2.78,3.14
		l2.52-2.75l3.51-0.87l1.73,4.38l0.5,10.17l2.96,3.53l0,0l1.67,2.77l-1.21,1.65l0.21,2.7l2.59,6.28l0.43,3.31l1.711,1.71l1.579-0.16
		l0.171,1.76l2.199,3.42l0.67,4.53l2.181,1.6l0.56,2.31l0,0l-2.12,1.69l-4.81,1.1l-1.351,1.48l-8.75,3.64l-25.17,4.51l-7.77-2.1
		L547.61,296l-7.74-7.02l-6.82-2.99l-5.89-1.1l-8.5,3.29l-0.45,1.43l0,0l0.771-2.45l-1.74-2.3l0.09-1.93l-1.62-1.21l0.48-3.49
		l-2.57,0.6l-2.19-1.42l0.641-3.66l-1.82-3.44l0.29-1.02l1.65,0.27l-1.73-2.24l0.87-2.74l1.08-0.49l-0.53-0.95l4.11-4.78l2.649-0.35
		l1.11,0.72l0.86-1.05l0,0l3.81,2.06l0.86-2.09l1.97,0.34l1.09-1.72l6.86-0.52l2.069-1.08l6.711-5.86l8.279-1.69l-1.42-2.03
		l2.67-0.53l1.25-0.84l0.221-1.43l1.699-0.54l-0.05-2.59l-2.5,0.05l1.24-1.21l2.13,0.03l0.57-3.07l-0.761-0.7l2.221-0.95l1.319-3.64
		l1.28-1.13L565.17,227.93z"/>
	<path id="TR-56" fill="#1E3250" stroke="#1E3250" stroke-width="0.5" d="M669.74,216.7l4.319,0.02l1.25,1.95l1.721,0.61l4.45-0.8
		l0.14,1.26l0.91,0.35l1.569-0.04l3.42-2.08l4.211,0.11l10.199,11.56l3.061,1.04l0.68,1.3l1.38-1.25l-0.34-0.96l2.25-0.9l0.67-1.16
		l0,0l2.97,3.77l1.86,0.95l1.94,4.95l1.699,1.31l0,0l0.24,7.58l-5.359-1.96l-4.801-0.26l-4.58-2.5l-1.68,0.56l-6.83,6.29
		l-2.479,1.06l-3.351-0.04l-1.74-1.35l-2.96,1.28l-3.09-1.24l-3.41,0.32l-3.489-3.49l0,0l-2.181-1.47l-2.319,0.48l-5.051-1.68
		l-1.26-2.25l-9.49-7.24l0.5-2.01l5.141-4.96l6.58-2.72L669.74,216.7z"/>
	<path id="TR-57" fill="#1E3250" stroke="#1E3250" stroke-width="0.5" d="M391.3,8.67l2.35,0.11l1.52,1.85l-0.26,0.98l1.47,0.84
		l4.55-0.77l0.72,1.46l-2.55-0.55l-2.04,3l-0.22,2.61l1.6,3.54l3.04,2.95l0.03,1.81l2.94,3.03l6.59,2.72l0,0l-1.771,1.53l-1.92,3.96
		l1.33,4.27l4.32,2.11l0.74,6.82l-3.32-1.38l-1.75,0.39l0.561,3.72l-1.221,1.88l-2,0.65l-4.8-1.92l-0.15-2.05l-2.11-1.44l-0.91-3.48
		l-6.97,3.8l0,0l-3.37,4.46l-2.89,0.06l-2.67,2.13l-2.57-0.13l-2.38-1.56l-1.23-2.82l-3.33-2l-2.04,1.03l0,0l-1.02-2.7l2.94-5.96
		l-0.93-2.92l3.58-3.05l1.44-5.58l-2.43-1.9l-4.86-1.03l-1.58-3.44l-4.91-0.23l1.18-2.91l-0.6-2.7l-1.81-1.62l-0.01-1.65l0,0
		l4.69,0.24l5.68-1.7l2.21,1.56l9.92-0.08l5.04-3.93l1.79-2.96l-0.19-1.189L391.3,8.67z"/>
	<path id="TR-73" fill="#1E3250" stroke="#1E3250" stroke-width="0.5" d="M718.1,238.69l4.62,1.37l3.3,2.58l9.48,1.6l2.35-0.51
		l2.87-3.16l2.59,0.15l0,0l-1.3,5.21l-5.93,6.65l1.92,3.76l0.25,7.62l0,0l-0.9-0.06l-0.939,1.32l-2.851-2.19l-4.96-1.47l-3.83,1.05
		l-2.72,2.15l-5.09-1.65l-0.37-1.35l-1.399-0.58l-2.71,3.5l-1.62,0.15l0.33,1.16l-3.271,3.64l-1.439,3.6l-4.591,0.42l-4.83,1.87
		l-1.38-4.14l0.87-2.57l-2.41-2.53l-3.229,0.11l0.85-1.65l-0.609-0.34l-7.271,7.08l-9.99,2.78l-6.229,0.7l0,0l0.37-2.73l-1.101-3.49
		l-1.93,0.67l-0.49-1.08l1.3-10.63l0.841-1.55l6.09-0.38l2.83-1.04l0.47-1.93l1.74-1.63l-2.721-3.11l-0.489-3.12l0,0l0,0l0,0
		l3.489,3.49l3.41-0.32l3.09,1.24l2.96-1.28l1.74,1.35l3.351,0.04l2.479-1.06l6.83-6.29l1.68-0.56l4.58,2.5l4.801,0.26l5.359,1.96
		L718.1,238.69z"/>
	<path id="TR-58" fill="#1E3250" stroke="#1E3250" stroke-width="0.5" d="M519.66,95.89l4.54,1.93l-0.88,3.93l0.21,6.52l2.26,3.96
		l4.24,0.82l3.239,2.17l1.671-0.87l0.939,1l2.57-1.8l1.319,3.78l2.75,1.29l5.801,0.34l0,0l-1.261,2.61l-4.27,0.47l-3.21,2.82
		l-4.72-0.48l-2.53,2.19l0.13,2.26l4.14,3.45l-4.55,3.36l-1.729,5.34l0.85,5.11l-1.88,3.87l1.32,3.49l2.899,1.73l-0.569,1.79
		l-2.79,0.7l3.08,5.26l-3.03,5.94l0,0l-2.48,0.5l-3.899,2.74l-9.65,0.14l-5.76-1.23l-1.26,1.44l1.51,2.92l-1.08,1.55L495.65,175
		l-0.36,0.94l2.25,4.2l-2.41,4.27l3.99,5.16l-6.351,3.33l-1.409,4.94l-2.38,2.08l0,0l-1.07-0.87l-4.41,0.37l-6.86-1.29l-9.479,2.05
		l0,0l-3.41-7.21l3.65-3.24l0.619-4.99l1.99-3.72l3.11-2.94l-1.97-5.34l-2.65-2.24l-4.14-1.74l-5.86,0.92l-9.1-0.65l-6.58,1.68
		l-4.16-0.12l-1.79-2.69l-1.92-1.12l-1.03-2.61l-7.16-3.1l0,0l3.55-4.98l0.79-6.74l3.2-1.25l2.51,1.18l1.971-0.34l4.29-4.38
		l-0.771-5.49l-3.5-4.17l0.62-4.62l-3.46-1.37l-0.19-3.16l0,0l2.771,2.17l1.56,0.17l0.811-2.82l1.88-0.98l13.15,0.31l4.52-1.62
		l1.45-1.99l0.75-5.7l1.62-0.58l1.63-3.12l1.92-0.97l9.43-0.2l1.891,1.31l6.09-0.46l1.87,1.07l2.52-0.04l1.28,1.29l1.81-0.13
		l0.37-2.33l5.41-2.23l-0.61-1.29l2.74-2.08l1.8-2.9l0,0l4.271,0.81l1.649-1.37l2.04,1.36l3.7-3.48l0.61-2.16l3.01-0.33
		L519.66,95.89z"/>
	<path id="TR-59" fill="#1E3250" stroke="#1E3250" stroke-width="0.5" d="M59.39,52.01l2.24-2.07l3.05,0.6l6.98-0.97l1.75,1.3
		l1.1,3.01l4.83,3.77l3.17-1.15l2.87-2.96l1.66-6.39l2.16-1.86l6.35-2.33l3.54-0.39l8.41-4.99l0.37-1.33l1.65,0.14l0,0l0.49,0.61
		l0,0l-3.15,15.65l-2.39,4.07l0.02,2.43l-1.75,3.51l-0.16,2.87l0.89,1.96l0,0l-1.55,3.31l-3.35-0.09l-5.08-2.69l-10.01,2.23
		l-1.79,3.43l-0.6,3.59l-4.6,4.32l-1.91,3.85l-4.97,3.68l-5.57,1.57l-2.1,2.3l-2.72,0.68l0,0l-0.05-2.95l3.32-7.8l-3.11-1.05
		l-5.96,0.28l0,0l-3.96-5.16l1.1-8.26l-2.06-1.9l0.86-1.05l4.33-0.66l4.09-4.06l2.39-4.17L59.39,52.01z"/>
	<path id="TR-60" fill="#1E3250" stroke="#1E3250" stroke-width="0.5" d="M451.23,78.11l2.729-1.64l1.58,0.311l3.44-1.41l2.52-0.09
		l1.94,1.5l0,0l1.869,1.189l0.261,1.44l4.81,1.59l0.061,2.69l0.84,1.04l2.35-0.1l2.271,1.64l4.06-1.33l2.47,1.04l0.301,1.13
		l1.689,0.64l6.76,6.19l6.24-0.09l4.82,1.37l0.359,0.9l-1.899,2.91l2.63,1.54l-0.9,2.06l0,0l-1.8,2.9l-2.74,2.08l0.61,1.29
		l-5.41,2.23l-0.37,2.33l-1.81,0.13l-1.28-1.29l-2.52,0.04l-1.87-1.07l-6.09,0.46l-1.891-1.31l-9.43,0.2l-1.92,0.97l-1.63,3.12
		l-1.62,0.58l-0.75,5.7l-1.45,1.99l-4.52,1.62l-13.15-0.31l-1.88,0.98l-0.811,2.82l-1.56-0.17l-2.771-2.17l0,0l-1.539-1.48
		l-0.79-6.32l-7.62-0.28l-4.4,0.95l-1.5-1.02l-4.52-0.59l-0.141-3.11l-2.74-2.27l-0.46-3.14l0,0l4.771-3.05l4.77-1.08l2.471-1.67
		l0.17-1.71l2.54-1.62l1.069-3.09l5.591-0.29l1.649,0.87L435,97.79l3.82,1.41l1.16-1.63l5.439-2.49l0.88-2.2l2.04-1.68l-2.68-0.44
		l-0.28-1.27l5.62-0.44l1.09-2.01l-0.24-2.45l3.25-2.92l-3.369-1.79L451.23,78.11z"/>
	<path id="TR-61" fill="#1E3250" stroke="#1E3250" stroke-width="0.5" d="M576.31,63.3l2.24,0.56l3.4,3.67l3.14,1.479l3.061-0.77
		l4.489,1.42l1.79,1.68l6.91-0.21l3.41,2.46l4.52-0.85l3.58-2.67l0,0l3.57,1.24l0.28,2.92l2.069,2.03l-1,4.43l3.211,4.92
		l-2.681,4.81l1.48,4.26l0,0l-8.721,0.94l0,0l-3.529-3.05l-2.44,0.59l-2.18-1.63l0.47-1.94l-2.189-1.58l-3.021,0.44l0.01,1.43
		l2.83,1.28l0.561,1.11l-3.23,1.43l-0.939-1.89l-4.53-1.8l0.82-3.24l-0.591-1.62l-2.25,0.2l-0.439,3.96l-2.15,2.36l-4.319,0.18
		l-2.54-2.3l-2.69,0.19l-0.53-1.95l-1.58-0.32l-2.33-2.59l-5.979-1.33l-2.58-1.45l0,0l0.06-17.36l0,0l4.15,1.41l5.76-3.19
		L576.31,63.3z"/>
	<path id="TR-62" fill="#1E3250" stroke="#1E3250" stroke-width="0.5" d="M548.22,174.77l-0.91-5.36l1.311-2.47l-1.21-1.07
		l0.79-1.08l3.14-0.66l2.2-1.55l-1.021-2.99l0.33-1.66l4.73-3.8l8.36-3.97l7.51,1.15l6.01-1.81l8.8,1.26l1.67-1.14l1.63-5.38
		l1.801-0.73l7.76,1.94l1.75,1.17l4.97-1.84l5.93,1.13l3.051,3.05l0,0l-9.971,8.69l-7.56-0.52l1.19,4.25l-2.631,2.28l-1.989,7.22
		l0,0l-1.931,2.35l1.641,2.47l-1.33,4.98l-1.95,2.02l-0.7,3l-1.729-0.7l-3.511,0.96l-5.989,0.08l-0.88,2.47l-0.94,0.31l-2.2-1.16
		l-1.68,0.8l-0.74-1.72l-2.79-0.97l-1.92-2.06l-12.33-2.07l-4.32,2.26l-4.02-1.34l-0.56-1.37l1.93-3.31l-0.311-1.75L548.22,174.77z"
		/>
	<path id="TR-64" fill="#1E3250" stroke="#1E3250" stroke-width="0.5" d="M148.4,185.54l4.93-0.54l4.19,1.49l3.61-3.45l8.58-2.92
		l4.21-0.43l9.37,1.14l1.88,3.84l2.42,0.89l0,0l-0.6,2.58l-3.93,3.38l1,4.02l-1.55,0.89l-4.69,6.13l0,0l-6.94,4.71l0.38,5.84
		l-1.29,1.69l-11.6-2.55l-3.45,3.96l0.32,1.38l-1.2,0.34l-0.55,2.48l-1.37-3.39l-13.93-0.11l0,0l-4.21-5.73l2.76-4.54l1.92-12
		l1.05-1.36l2.62-0.2l3.57-2.06L148.4,185.54z"/>
	<path id="TR-65" fill="#1E3250" stroke="#1E3250" stroke-width="0.5" d="M766.68,156.95l1.67,1.89l0.19,1.93l0.95,0.41l-0.76,1.67
		l0.489,2.66l2.86,1.53l1.939,2.32l0.45,2.03l-1.3,1.17l0.78,2.72l-1.67,1.55l1.149,2.23l-0.37,0.82l1.19,0.92l-0.32,1.41l1.46,2.05
		l2.23,0.63l0.57,1.65l-2.23,4.93l0.86,1.96l-0.45,1.55l2.14,1.68l-0.52,4.57l0.66,2.34l-0.92,2.03l0.659,1.92l-0.67,0.85l0.74,1.12
		l1.63-0.15l0.83,0.88l2.811-1.43l0.6,1.38l2.01,0.9l-0.63,1.94l-3.94,2.8l-0.43,5.47l-1.68,0.7l0.7,1.54l-1.591,0.23l-0.84,3.1
		l-2.68,4.07l0.41,1.12l-1.19,2.83l1.79,1.07l2.2-0.47l2.91,0.73l0.25,2.19l1.25,1.18l0.96-0.47l-0.03,1.95l0,0l-1.91,1.01
		l-3.76-0.28l-1.979,1.5l-5.561-0.52l-1.26-2.54l-2.771-1.39l-5.159,1.29l-5.771-0.55l-7.62,2.19l-4.7-1.04l0,0l-2.59-0.15
		l-2.87,3.16l-2.35,0.51l-9.48-1.6l-3.3-2.58l-4.62-1.37l0,0l-1.699-1.31l-1.94-4.95l-1.86-0.95l-2.97-3.77l0,0l1.86-10.13
		l-0.41-2.41l-1.66-1.26l-0.01-1.21l4.649-3.21l0.36-6.15l6.47-9.67l4.04-3.75l5.67-3.38l2.21-3.18l-0.189-1.45l-5.101-2.3
		l-1.029-2.39l-3.13-2.55l0,0l3.149-5.59l4.061-3.28l0.17-7.97l4.689-1.39l5.4,0.37l5.22,5.61l4.3,2.27l3.24,0.41l3.25-2.87
		l3.01-4.87l6.811-1.08l0,0L766.68,156.95z"/>
	<path id="TR-77" fill="#1E3250" stroke="#1E3250" stroke-width="0.5" d="M162.46,85.77l1.22-0.33l0,0l0.12,5.86l-0.79,1.69l0,0
		l-4.84-0.09l-4.93,1.76l-8.85-1.83l-0.63,5.44l0,0l-7.91-3.22l-0.02-0.98l8.75-5.87l11.68-0.79l2.86-0.81l1.46-1.51L162.46,85.77z"
		/>
	<path id="TR-66" fill="#1E3250" stroke="#1E3250" stroke-width="0.5" d="M412.06,108.49l0.46,3.14l2.74,2.27l0.141,3.11l4.52,0.59
		l1.5,1.02l4.4-0.95l7.62,0.28l0.79,6.32l1.539,1.48l0,0l0.19,3.16l3.46,1.37l-0.62,4.62l3.5,4.17l0.771,5.49l-4.29,4.38
		l-1.971,0.34l-2.51-1.18l-3.2,1.25l-0.79,6.74l-3.55,4.98l0,0l-2.109,3.06l-2.061,1.06l-10.28,1.38l-1.09,1.67l1.41,3.68
		l-5.77,4.17l-5.291,2.06l-0.82-0.58l-0.28-3.51l-4.15,1.67l0,0l-1.94-3.52l0.07-3.39l-1.67-3.66l0.71-2.09l-0.71-2.37l-3.77-3.05
		l-5.36-0.83l-3.19-1.43l-0.58-1.65l0,0l-1.59-2.82l-4.24-2.2l2.27-2.8l-0.69-1.02l-5.03-0.91l-1.68-3.24l-7.41-3.82l-1.67-3.81
		h-2.98l0,0l-0.71-4.49l-1.67-2.11l3.4-1.32l0,0l0.4,1.8l3.59-1.08l4.97,0.62l1.14-1.89l3.85-2.74l1.71,0.4l1.73,1.78l2.65,0.58
		l2.75-1.21l5.22-0.3l3.6-3.82l0.85,0.54l0.31,2.33l10.64-0.79l0.89-1.46l-2.02-3.54l2.06-1.76l-2.17-3.49l1.18-0.41l2.43,1.89
		l2.14-2.6l3.54-1.07l0,0L412.06,108.49z"/>
	<path id="TR-67" fill="#1E3250" stroke="#1E3250" stroke-width="0.5" d="M274.39,36.08l2.41,3.9l2.82,0.44l-0.02,2.88l1.9,2.23
		v2.37l-1.56,3.31l0,0L277.91,53l-1.7,5.8l1.71,4.78l0,0l-15.58,4.01l-3.24-1.53l-7.64,0.04l-4.71,1.8l0,0l-2.24,0.69l-2.52-0.5
		l-1.68-5.86l0,0l4.15-4.92l0.55-3.55l-1.17-0.95l0.26-1.25l8.84-3.48l10.6-7.14l5.6-2.24l1.82-1.71L274.39,36.08z"/>
</g>
</svg>
