<?xml version="1.0" encoding="utf-8"?>
<!-- Generator: Adobe Illustrator 15.0.0, SVG Export Plug-In . SVG Version: 6.00 Build 0)  -->
<!DOCTYPE svg PUBLIC "-//W3C//DTD SVG 1.1//EN" "http://www.w3.org/Graphics/SVG/1.1/DTD/svg11.dtd">
<svg version="1.1" id="Layer_1" xmlns:amcharts="http://amcharts.com/ammap"
	 xmlns="http://www.w3.org/2000/svg" xmlns:xlink="http://www.w3.org/1999/xlink" x="0px" y="0px" width="656.5px" height="450.5px"
	 viewBox="0 0 656.5 450.5" enable-background="new 0 0 656.5 450.5" xml:space="preserve">
<defs>
	
	
		<amcharts:ammap  projection="mercator" bottomLatitude="44.387017" leftLongitude="22.138115" topLatitude="52.374337" rightLongitude="40.216930">
		</amcharts:ammap>
</defs>
<g>
	<path id="UA-40" fill="#1E3250" stroke="#1E3250" stroke-width="0.5" d="M405.42,407.891l4.44,0.969l0.33,1.49l-2.07,0.68
		l0.96,1.561l2.42-0.949l1.69,1.01l-1.11,3.93l3.14,1.961l2.95,6.488l-1.59,2.031l0,0l-4.83,0.82l-1.06-1.641l-1.89-0.211
		l-1.15-2.898l-4.34-0.441l-3.69-3.99l1.87-0.969l5.3-0.461l-2.68-0.879l1.22-1.98L405.42,407.891z"/>
	<path id="UA-43" fill="#1E3250" stroke="#1E3250" stroke-width="0.5" d="M510.12,380.26l-1.21,1.9l-4.4-0.33l-0.22,1.07l1.23,0.811
		l-2.71,1.648l0.699,0.941l-1.21,2.559l1.79,5.631l-2.81,1.879l-3.851,0.311l-1.26,1.18l-6.67-1.1l-6.56,2.15l-2.221-3.32
		l-2.84-1.869l-3.58-1.111l-2.89,0.611l-3.82,3.148l0.07,1.221l1.22,0.609l-2.26,1.16l0.88,1.91l-4.189-0.779l-0.771,2.25
		l-2.62,1.02l-1.01,3.471l-1.61,1.469l-1.72-1.75l-2.18-0.51l-2.41,1.141l-5.59,0.211l-4.08,1.799l-5.15,3.01l-3.67,6.051
		l-0.06,1.641l-1.4-0.23l-1.899,2.25l-2.79,0.58l-1.36,3.09l-5.32,1.65l-3.09-0.57l0,0l1.59-2.031l-2.95-6.488l-3.14-1.961
		l1.11-3.93l-1.69-1.01l-2.42,0.949l-0.96-1.561l2.07-0.68l-0.33-1.49l-4.44-0.969l0,0l0.15-1.41l1.78-1.361l-0.07-6.139
		l-1.39-4.211l-3.82-4.35l-2.14-1.02l-4.33,2.359l-11.93-10.25l-5.06-0.179l-3.6,2.449l-5.31-1.559l0.67-1.34l-1.16-1.04l3.66-4.09
		l6.84-3.91l1.21,0.42l0.64-1.09l-0.75-0.62l2.99-2.48l7.7-3.739l1.4-2.62l2,1.06l3.75-1.62l2.49-2.42l0.8,0.51l1.24-1.47l2,0.92
		l2.39-2.66l2.34,2.34l-0.1-3.149l2.72-1.03l-0.49-1.09l-4.35,0.21l-0.09-5.17l0.95-1.47l-0.92-2.521l0,0l0.7-0.25l-0.73-4.24
		l0.99-0.17l0,0l5.06,5.33l1.26-1.43l-0.8-1.3l1.26,0.109l0.71,1.66l-1.46,1.74l4.25,2.36l1.8-0.311l-2.26-0.95l0.41-0.59l2.59-0.38
		l2.04,1.34l0.36,1.42l3.189,2.15l-1.51,1.57l-1.36-0.61l1.66,2.09l2.34-0.76l-1.12-3.36l-0.75,0.44l-2.04-1.7l0.25-0.97l3.521,1.08
		l0.86,2.56l0.989-2.75l0.38,2.3l1.36,0.74l0.47-1.34l-0.739-0.561l1.39-0.5l1.8,3.261l2.71,2.2l-0.08,2.51l1.69-2.4l1.64,0.311
		l-0.939-3.48l2.83,1.83l-0.37,3.07l-2.511,1.189l-1.439,2.76l-1.69,0.101l0.431,0.97l2.47-0.52l3.76-3.59l3.23-1.37l0.16,1.56
		l-0.82-0.67l-2.04,1.1l-0.54,2.71l3.2-1.119l1.029,1.449l-3.75,3.49l0.761,0.71l6.189-2.18l-1.91,1.55l0.471,1.2l1.37-0.9
		l0.68,2.05l2.38-0.8l-0.18,1.021l2.18,1.22l2.04,3.93l0.8,3.53l-2.77,2.26l2.02,3.84l8.91,3.631l-0.64,1.408l0.77,1.131l0.65-1.199
		l2.859-0.24l0.12-1.73l-1.569-0.189l-3.771-4.25l-10.14-14.07l-2.17-5.04l0,0l0.56-0.29l0,0l3.75,7.3l7.99,11.061l3.399,3.701
		l3.851,2.369l6.79-2.41L480.18,381l-0.34-0.98l3.41-3.9l0.79,0.351l-0.92,0.87l0.75,1.35l3.61,2.41l2.76-0.95l0.99-2.83l6.779-1.56
		l4.28,1.66l2.2-0.44l2.61,1.58l1.409-0.72L510.12,380.26z"/>
	<path id="UA-71" fill="#1E3250" stroke="#1E3250" stroke-width="0.5" d="M356.93,136.77l2,3.28l4.16,1.21l0.19,1.28l-1.76,0.42
		l0.16,1.53l1.86,2.32l0.7-1.01l0.6,0.48l1.06,3.55l1.58,1.03l-0.39,2.96l0.69,0.8l-2.06,0.72l2.57,4.08l1.79-0.47l0.44,1.63
		l1.34,0.19l0.62,3.58l4.54,2.24l-0.38,2.88l1.98,1.43l-0.21,2.69l-2.48,1.37l-0.81,3.19l2.94,4.4l-6.76-1.43l-1.08-1.35l-1.42,4.1
		l4.88,3.9l3.58-0.21l1.54,1.33l3.16-0.78l0,0l-3.32,4.38l4.52,2.23l-0.01,1.13l-2.6,1.13l0.5,3.24l1.44,0.62l-0.91,0.93l-3.74,0.8
		l-1.96-0.97l0.09,1.36l-3.26,0.38l-1.44-0.83l0.28,1.37l-0.89,0.04l-1.62-4.89l-1.03-0.91l-0.7,1.17l-1.4-0.2l-1.06-2.43
		l-2.23-0.22l-1.76,1.34l-0.51,3.7l-1.07-0.59l-0.28,1.25l-1.46,0.43l0.35,2.71l-1.56,0.48l-2.42-1.49l-3.75,2.53l0.02-1.25
		l-3.77-2.17l-1.93,1.16l-1.59-0.22l-0.51,1.76l-2.21-0.42l-1.41,0.95l0.12-1.33l-0.75,4.22l-6.09,5.19l-1.75,0.08l-0.67-1.55
		l-1.58,0.46l-1.52-1.05l-3.45,2.11l-5.58-2.2l-2.32,1.25l-2.4-1.17l-0.28,0.66l-3.69-0.55l-1.96,0.84l-0.95,1.62l-1.13-0.06
		l1.16,1.23l-0.43,1.69l-2.24,1.81l1.36,1.15l-0.19,1.92l-5.45-0.35l-0.54,2.31l-4.48,1.23l-0.84,1.15l-2.29-1.14l-1.72,2.7
		l-2.19-1.5l-2.73,0.46l0,0l-0.02-0.91l1.2-0.3l-0.35-1.18l0.94,0.03l-0.52-2.76l-1.94-1.1l1.56-2.02l-4.46-3.38l0.8-1.67
		l-0.61-1.53l-3.35-1.09l-0.33-3.14l-1.53-2.47l0.62-0.67l-2.7-1.54l1.47-3.25l-0.37-1.15l-1.43,0.6l-1.17-2.16l0.3-0.63l0.43,0.69
		l0.78-2.17l1.22,0.4l-0.2-1.29l1.76-0.52l-1.02-5.27l1.03-0.27l0,0l0.71,0.16l-0.98,0.99l1.29,1.43l4.03-0.33l-0.3-0.76l2.73-2.84
		l-0.28-3.01l2.75-1.02l1.54,0.44l1.1,2.74l1.33-3.271l1.85,0.311l-0.4,2.72l5.86,1.02l0.39,0.99l1.42-4.77l1.95-1.9l1.54,1.93
		l3-2.15l4.18,1.96l6.02-1.42l0.79-1.15l-0.36-1.82l2.53-0.37l1.13-2.43l0.53,0.74l-0.15-0.86l1.79-1.29l0.65-3.02l1.39-0.07
		l-0.58-2.5l2.85-4.59l-0.71-0.4l0.54-3.96l-0.85-0.69l0.67-3.26l5.65-2.56l-1.33-1.93l0.4-0.7l-2.01-0.35l0.52-1.72l4.6,0.5
		l-0.54,4.19l2.62,2.98l2.95-3.36l0.76,0.05l0.16,2.69l3.35,0.3l3.43-6.08l2.44,0.17l0.44,1.13l-0.05-4.07l2.75-1.22l-2.53-0.78
		l0.12-2.37l2.1-1.17l-1.23-1.74l0.97,0.28l0.98-2.61l2.12,0.7L356.93,136.77z"/>
	<path id="UA-74" fill="#1E3250" stroke="#1E3250" stroke-width="0.5" d="M393.57,20.93l3.61,1.27l2.96-1.1l1.17,1.4l0,0l-1.27,1.55
		l-0.72,4.1l-1.77,1.57l0.2,4.26l3.1,0.71l0.84,2.05l2.07-0.07l-0.02,2.71l-2.47,0.65l-1.28-1.3l-2.44,1.04l-0.41,0.89l2.38,2.09
		l-0.78,2.62l-1.31-0.39l-4.62,1.77l-0.03,1.07l-1.83,1.16l0.82,2.54l-2.23,2.29l1.88,2.79l-0.24,4.24l2.11,3.36l1.06,0.19
		l-2.22,0.94l1.22,3.07l-2.09,1.25l0.01,5.57l-1.46-0.61l0.8,1.22l-0.83,0.13l-1.64-1.23l0.33-0.98l-0.96,0.7l0.6,2.68l0.94-0.021
		l0.48,1.22l-1.29,1.61l1.11,0.25l-0.17,1.93l-1.24,1.39l0.28,1.22l-2.18,0.9l-0.48,1.43l1.01,0.98l-1.6,2.75l4.28,1.28l0.44,1.7
		l-1.4,2.39l1.2,0.51l1.34-1.29l0.74,2.65l2.08-0.2l0.22,3.59l-1.24,0.39l0.45,2.08l-1.04,3.03l1.19,2.33l1.69,0.76l-3.4,1.16
		l0.36,2.91l-1.07,0.56l0.18,2.73l-2.46,2.86l0.62,1.09l0,0l-1.49,0.98l-0.36,1.55l-1.36-0.05l-1.92,3.48l-4.28,2l0.02,1.22
		l-4.03-0.54l0.05-0.69l-5.02,1.37l-1.33-1.31l0.21-1.56l-3.3-0.41l-0.93-1.09l-1.47,0.14l-1.11,2.37l-1.25,0.35l-0.02,1.39
		l-3.67,0.03l0,0l0.38-1.55l-2.4,0.1l0.48-2.14l-1.68,0.78l-0.86-3.05l-1.92-0.67l0.61-1.38l1.98,0.1l0.62-2.49l0,0l-3.73-0.17l0,0
		l-1.04-2.67l-2.15-1.91l-2.49,1.4l-0.13,2.39l-4.51,0.3l-0.54,1.66l-3.68-0.38l-2.82,1.52l-2.36-1.77l-1.4,1.77l-2.82-3.6
		l-2.62-1.08l0.02-1.06l1.98-0.21l-0.92-1.61l0.61-2.73l-3.2-3.05l0.07-1.27l-5.91,0.94l-2.05-0.86l-1.32,1.55l-0.7-0.62l0.11-0.24
		l-3.23-0.62l-0.18-2.34l0.98,0.229l0.6-1.13l-0.41-2.33l-2.73-1.46l-1.44-5.16l-1.45-1.41l-3.36,0.21l0.25-2.76l-0.8-1.12
		l1.09-0.86l-0.92-3.08l1.66-0.66l-1.19-2.52l1.79-0.46l-0.63-1.48l0,0l2.53-1.27l0.3-1.08l-0.99-0.44l1.93-1.37l0.14-2.17
		l-1.22-2.54l-1.11-0.1l-0.15-1.2l1.39-0.86l-1.8-2.41l0.45-1.95l-1.17,0.29l-0.63-1.18l0.86-0.88l-1.51-0.96l1.58-0.49l-1.62-1.12
		l0.9-1.62l-0.61-0.69l1.82,0.41l-0.22-2.4l2.03-0.43l0.85-2.51l-1.2-0.43l1.44-0.33l-0.16-2.76l1.47-0.65l1.75-3.6l1.84,0.23
		l0.76-1.271l-0.5-1.5l2.68-1.14l0.43-1.93l1.02,0.55l-0.59-1.49l1.22-3.71l1.24,0.64l5.24-1.34l3.82,3.28l1.45-0.56l0.92-2.89
		l2.07-0.87l-0.26-0.67l2.49-0.44l0.6,1.2l6.9,0.25l1.68,1.05l2.01-0.95l1.19,0.81l1.71-0.65l3.08,1.79l-1.45,1.79l1.89-0.47
		l4.17,1.04L358,37.63l3.58-0.99l3.85-3.2l-1.37-0.31l0.71-2.1l-0.78-1.7l0.72-1.21l1.74-0.26l-1.43-3.6l0.43-1.24l4.06,1.23
		l2.09-0.64l5.13,4.18l1.85-0.99l2.03,0.38l0.72-1.03l1.54,0.26l0.8,1.55l2.97-1.48l2.21-3.02l0.28,1.33l2.21-2.3l1.16,0.26
		l0.07-1.76L393.57,20.93z"/>
	<path id="UA-77" fill="#1E3250" stroke="#1E3250" stroke-width="0.5" d="M137.33,217.54l2.85,0.56l0.79,1.5l1.67-2.16l2.37,2.7
		l-0.15,1.27l1.96,0.53l2.25-1.76l1.55,0.59l1.01-1.89l0.52,2.09l-0.74,1.14l1.7,2.37l1.09-0.76l-1.06-2.38l0.72-1.06l1.73,4.68
		l3.39-0.59l1.13,1.58l1.74,0.06l1.31-1.4l1.74-0.14l0,0l1.45-0.35l2.26,4.38l1.61,0.33l0.9-0.52l-0.51-2.29l1.58,1.11l1.92-0.44
		l-1.37-2.37l-1.65,0.25l-0.18-0.95l1.29-0.37l2.35,1.5l0.04-2.86l1.71,2.13l-0.03-2.52l0.86-0.74l2.53,3.53l3.75-2.41l0.32,0.9
		l2.89,0.69l2.67-1.29l2.76,0.89l0.64-0.91l-0.64-2.02l2.52,1.18l1.77-1.57l0,0l2.69,1.56l0.9,4.68l1.83,1.91l0,0l-2.08,0.9
		l-0.91,2.09l-1.94,0.01l-0.7-1.61l-1.59-0.01l-1.23,3.62l-3.05-1.12l-1.86,1l-1.89-3.08l-2.26,0.6l1.11,2.13l-1.56,0.05l-0.31,1.1
		l-2.26-0.3l-1.67-2.8l-3.3,0.05l-0.84,1l-0.94-0.56l1.28,2.82l1.93,0.52l-0.25,2.54l-2.47-0.97l-1.9-2.13l0.43,1.38l-2.63,2.72
		l0.01,1.75l-1.15-0.33l-0.5,1.35l-3.46-0.01l-1.08,1.3l-3.53,0.52l-1.97,5.12l-2.07,1.55l-0.98,2.89l-10.99,1.26l-2.9,1.54
		l-4.31-0.54l-11.3,1.77l-2.77,1.12l-3.89,6.9l-2.09,0.4l-0.52,1.08l-3.99-0.08l0,0l2.54-6.45l-2.66-4.56l-0.18-4.11l2.75-3.01
		l-0.29-1.46l1.68,0.22l1.94-2.62l-0.25-0.93l1.76-0.05l-1.01-2.13l2.57-1.35l5.13-6.36l4.55-1.32l4.91,1.05l-1.02-12.63
		L137.33,217.54z"/>
	<path id="UA-12" fill="#1E3250" stroke="#1E3250" stroke-width="0.5" d="M417.07,205.77l4.26,1.91l1.68,1.97l1.75,0.21l0.37,2.09
		l5.25,1.99l0.28,1.03l1.5-3.19l-1.39-0.03l-0.12-1.81l1.76-0.15l-0.78-0.46l0.851-1.15l-1.561-2.16l1.73-4.4l-0.891-0.86
		l3.021-2.83l-0.47-2.06l5.02,2.02l1.36-2.91l5.89-1.56l0.021-1.53l3.17-0.88l1.35,0.7l-1.14,0.78l1.1,0.6l1.78-2.271l2.29,2.25l0,0
		l1.18-1.29l1.07,1.58l1.279-1.13l0.671,0.8l1.71-0.5l1.21,1.76l-1.32,0.83l2.25-0.17l7.71,7.3l0.79-0.73l1.87,0.69l2.18-0.6
		l0.08,0.88l1.78-0.12l0.89,1.03l0.5-0.76l2.15,0.52l0.6,1.31l2.69-2.43l1.029,0.25l0.841-1.49l3.51,4.25l-1,1.47l0.899,0.75
		l-0.67,1l1.851,0.94l-0.351,1.36h1.98l2.12,1.32l-1.561,0.9l0.771,0.88l-0.63,1.24l4.739,3.35l-1.02,1.97l2.21,1.65l-1.59,2.3
		l0.87,0.64l0.93-1.2l1.01,1.07l3.16-4.14l-0.59-1.04l1.77-1.41l3.681,3.13l5.04-1.29l0,0l0.229,1.51l2.05,0.01l0.16,1.41
		l3.011,1.24l0.17,1.15l-1.86,0.33l0.14,1.43l-0.8,0.22l0.69,3.42l-0.971,0.16l-0.47,3.37l0.3,1.76l3.13,0.16l0.881,5.89
		l-2.181,0.52l0.771,5.24l-1.431,2.34l-3.58-0.96l-1.01-1.67l-2.18-0.71l-2.49,0.97l0.2,6.13l1.46-0.17l0.4,2.07l-3.301,0.76
		l1.42,2.87l0,0l-4.22,1.2l-4.49-0.84l0.03,0.98l-1.74,0.25l-0.39-0.77l-2.34-0.01l-0.101-1.36l-4.02,0.59l-0.12-0.91h1.51
		l0.431-1.91l-0.66-1.9l-0.82,0.54l-0.38-1.76l-0.729,0.25l0.649-0.63l-1.24-2.21l1.07-0.41l-0.43-1.75l-2.601,0.6l-0.33-2.36
		l-5.109,1.31l-0.28-1.59l-2.16,0.17l-1.3-2.18l-6.16,3.16l-0.13-0.92l-7.68-2.53l-6.45,0.66l-3.76,2.1l-2.53-0.03l0.01-2.02
		l-1.99-0.1l0.671,3.93l-1.2,0.26l0.229,1.78l0.681,1.6l1.239-0.09l0.36,2.53l-3.85,0.9l0.51,2.55l1.47-0.68l0.34,1.36l0.94-0.04
		l-0.2,4.62l2.16-0.38l-0.601,4.54l-1.109,0.32l1.67,6.88l-2.89,0.69l-9.181-2.17l-15.55,4.3l0,0l-4.79,0.96l-2.3-2.87l-9.73,1.56
		l-0.29-1.43l-1.52,0.51l0.65-3.49l-1.05-1.37l-3.42,0.69l0.31,2.14l-5.37,1.02l0.79,1.52l-1.27,0.54l-0.94-2.96l-2.38,0.48
		l0.61-2.23l-4.77-0.12l0,0l0.05-0.96l-4.48,0.24l1.2-1.23l-0.81-5.2l3.34-0.86l-0.7-2.15l0.25-2.51l0.79-0.23l-0.06-4.18
		l-2.53,0.18l-0.03-3.68l0,0l0.57,0.22l0.7-2.62l2.31-0.27l-0.12-1.28l1.3,0.08l0.3,1.12l-0.37-1.75l2.84-0.78l0.29-1.03l-1.67,0.43
		l-0.12-0.69l1.55-0.38l-0.47-2.31l1.98,0.93l0.63,2.6l0.87-0.88l-0.81-1.52l4.69-1.07l-0.07-0.86l1.72-0.32l0.73-1.83l1.5-0.43
		l-1.09-2l0.07-2.62l-1.38,0.07l-0.51-1.29l0.29-1.73l0.99-0.28l-0.85-7.74l1.24-1.17l3.82,0.07l-0.37-1.59l1.61,0.63l2.81-1.58
		l2.14-3.62l-1.85,0.31l-2.28-2.1l-2.18-0.29l-1.11-1.32l-0.1-2.18l2.48,0.2l0.89-1.22l1.78,1.4l2.54-0.7l0.22,1.46l1.12,0.13
		L417.07,205.77z"/>
	<path id="UA-14" fill="#1E3250" stroke="#1E3250" stroke-width="0.5" d="M551.71,188.63l2.181,2.34l-1.421,0.91l0.54,1.229
		l4.341,1.18l0.25-1.24l1.17,0.21l-0.94,4.54l1.6,3.26l-1.56,0.52l0.01,1.04l-0.819-0.45l-0.79,1.48l3.59,0.92l3.819-0.31
		l-0.039,4.74l3.039,0.7l-1.699,3.79l2.14,1.66l-0.71,0.27l0.35,1.47l-1.84,0.95l0.47,6.27l1.431,1.7l-0.8,1.75l0.649,1.12
		l2.311,1.26l1.729-0.81l0.521,3.55l1.54,0.65l-1.99,1.25l-0.37,2.69l1.42,0.75l3.04-0.36l1.229,1.19l0.58,4.27l7.19,2.67l0.6,5.17
		l6.83,0.47l0.021,2.41l1.77,0.89l-0.62,3.49l0,0l-8.08,0.37l-0.239,2.4l-1.301,0.05l-0.59,6.52l-3.609-0.7l0.069,1.49l-1.29,0.01
		l-0.399,1.25l-5.311,0.04l-0.13,1.26l-3.55,0.1l-0.01,1.96l-1.42,0.02l-0.16,1.58l-0.73,0.06l0.61,7.64l-2.74,3.25l0.07,0.94
		l3.88,0.12l-0.189,2.07l-3.36,1.59l0.16,4.51l-2.46,3.64l-1,0.17l-2.46-2.42l-1.091,1.12l-4.64-1.06l-3.47,1.24l-8.53,0.24
		l-8.11,10.58l0.66-2.16l-2.8-1.94l-5.8,3.3l0,0l-1.42-2.25l4.03-2.55l-1.7-1.32l1.159-1.64l-4.729-1.92l0.9-0.55l-0.38-1.91
		l-4.971-3.52l3.69-0.11l-1.24-5.81l3.79,0.85l2.79-1.93l-0.45-1.75l0.98-0.25l0.859,1.93l1.34-0.68l1.391-5.64l-2.16-0.8l-0.8,1.48
		l-2.66-1.9l-1.82-3.05l-0.689,0.74l-1.91-1.81l-1.76,1.41l-2.2-3.8l-2.8,0.76l0.59-1.33l-1.311,0.21l-0.22-1.39l2.47-1.32
		l-2.63,0.28l-1.42-5.75l-2.8,0.39l0.649-2.8l-0.789-0.33l0,0l-1.421-2.87l3.301-0.76l-0.4-2.07l-1.46,0.17l-0.21-6.13l2.5-0.97
		l2.18,0.71l1,1.67l3.58,0.96l1.431-2.33l-0.771-5.25l2.18-0.52l-0.88-5.89l-3.13-0.16l-0.31-1.76l0.47-3.37l0.97-0.16l-0.689-3.42
		l0.8-0.22l-0.14-1.43l1.869-0.33l-0.17-1.15l-3.01-1.24l-0.16-1.41l-2.05-0.02l-0.22-1.51l0,0l-0.83-3.36l0.71-0.65l-1.59-3.54
		l1.01-1.54l3.47,1.66l1.141-1.48l3.789,0.38l2.16,2.26l0.4-0.82l-1.61-1.22l0.94-1.4l1.479,0.21l1.04-1.9l3.16,1.88l0.04-3.31
		l2.57-2.24l1.99,0.07l-1.07-2.59l1.62-1.72l0.99,0.56l0.449-2.86l3.19-0.37l0.9-0.71l-0.37-1.82l4.729-1.93l-4.51-2.38l1.96-1.98
		l9.67,1.41L551.71,188.63z"/>
	<path id="UA-26" fill="#1E3250" stroke="#1E3250" stroke-width="0.5" d="M66.95,214.74l1.01-2.86l-0.82-2.07l0.69-2.17l1.14-0.53
		l-1.58-1.71l0.87-2.19l-0.7-1.08l1.98-2.67l1.51-0.46l0.71-3.15l2.29-1.46l4.86,1.18l2.3-1.97l1.63,1.17l1.39-1.6l3.56,1.05
		l0.25-0.85l1.98-0.03l4.27-2.14l2.55,0.59l0.59-2.92l-3.46-0.14l0.52-2.41l-2.06-0.2l-0.09-0.95l0.04-0.74l2.56,0.25l0.53-2.22
		l1.43-1.28l-1.58-0.74l-0.61-1.91l1.36-0.77l-0.25-2.53l1.49-0.63l-0.34-1.57l1.33-1.17l1.59,0.86l-0.13,0.92l1.83-0.55l2.22,1.84
		l2.85,0.15l0,0l1.9,5.71l1.23-0.07l1.53,2.01l-1.09,1.62l0.62,2.91l2.87,1.43l-2.42,3.73l1.49,1.72l2.71,0.6l0.27,2.43l-2.52-0.6
		l-0.4,1.45l2.09,3.13l1.74-0.91l2.44,1.53l0.83-0.81l-0.19,1.64l1.25,1.01l-0.96,1l0.73,2.89l0.99-0.06l0.69-2.91l1.51-0.25
		l-0.87,4.3l1.26-1.04l2.71,1.39l-2.84,1.18l0.41,1.71l0.92,0.09l1.14-1.89l1.34,0.64l-0.31-2.63l2.86,0.78l-0.07-1.29l0.86,0.05
		l0.06,1.84l6.27,4.22l-1.04,1.17l1.44,0.97l-0.78,1.77l0,0l-1.53,2.19l1.02,12.63l-4.91-1.05l-4.55,1.32l-5.13,6.36l-2.57,1.35
		l1.01,2.13l-1.76,0.05l0.25,0.93l-1.94,2.62l-1.68-0.22l0.29,1.46l-2.75,3.01l0.18,4.11l2.66,4.56l-2.54,6.45l0,0l-1.3,0.16
		l-1.89-4.81l-4.14-1.06l-2.64-5.47l-2.11-0.93l0,0l0.4-2.64l1.69-1.46l-4.18-5.55l1.47-3.03l-2.05-1.35l-0.02-1.87l-4.05-3.38
		l-0.9-1.94l-1.78-0.37l-1.02,2.27l-2.59-0.89l-1.33-2.14l-0.61-6.37l-2.91,1.65l-1.29-0.24l-0.97,2.38l-1.64-0.42l-0.53-4.78
		l-1.89,0.38l-1.82-1.86l-0.2-2.32l-2.8-0.15l-2.76-3.45L66.95,214.74z"/>
	<path id="UA-63" fill="#1E3250" stroke="#1E3250" stroke-width="0.5" d="M538.43,124.63l-0.47,3.979l0.67,1.4l3.05,2.6l2.11-0.17
		l-0.76,4.89l0.95,2.29l3.819,5.05l1.41-0.27l4.271,2.43l1.449,3.12l2.62,2.4l-0.37,1.69l0,0l2,2.76l-2.38,0.59l-0.37,1.25
		l1.48,1.45l-1.88,1.67l-0.74-0.74l-0.8,1.85l0.77,1.17l1.311-0.25l-0.43,0.7l1.479,2.23l-2.07,0.57l0.46,1.01l-1.79,0.87l0.19,2.11
		l-1.68-0.14l-0.5,1.13l1.279,0.67l-2.489,0.87l-0.38,1.4l0.229,2.51l1.1-0.01l0.641,2.19l-0.46,4.84l2.16,0.47l0.34,0.94
		l-1.971,0.75l0.41,0.54l-1.38,1.19l0,0l-0.859,1.9l-9.671-1.41l-1.96,1.99l4.511,2.38l-4.721,1.92l0.36,1.83l-0.9,0.7l-3.18,0.38
		l-0.45,2.86l-0.989-0.56l-1.62,1.72l1.08,2.59l-2-0.07l-2.57,2.24l-0.04,3.3l-3.15-1.87l-1.04,1.89l-1.479-0.21l-0.94,1.41
		l1.61,1.22l-0.4,0.83l-2.17-2.27l-3.79-0.38l-1.14,1.48l-3.46-1.66l-1.01,1.55l1.59,3.54l-0.71,0.65l0.83,3.36l0,0l-5.04,1.29
		l-3.681-3.13l-1.77,1.41l0.59,1.04l-3.16,4.14l-1.01-1.07l-0.93,1.2l-0.87-0.64l1.59-2.3l-2.21-1.65l1.02-1.97l-4.739-3.35
		l0.63-1.24l-0.771-0.88l1.561-0.9l-2.12-1.32h-1.98l0.351-1.36l-1.851-0.94l0.67-1l-0.899-0.75l1-1.47l-3.51-4.25l-0.841,1.49
		l-1.029-0.25l-2.69,2.43l-0.6-1.31l-2.15-0.52l-0.5,0.76l-0.89-1.03l-1.78,0.12l-0.08-0.88l-2.18,0.6l-1.87-0.69l-0.79,0.73
		l-7.71-7.3l-2.25,0.17l1.32-0.83l-1.21-1.76l-1.71,0.5l-0.671-0.8l-1.279,1.13l-1.07-1.58l-1.18,1.29l0,0l-1.25-5.09l1.47-3.92
		l2.23,1.19l5.069-0.04l1.25,1.35l0.141-2.2l3.199-4.01l-0.909-0.38l0.439-2.23l-1.57-0.54l0.681-2.39l4.939,0.95l0.11-1.54
		l-1.89-0.67l-0.811-1.43l2.74-0.94l-1.79-5.23l-2.73,0.41l-3.72-1.54l0.391-2.1l-1.511-0.76l0.25-4.26l-2.489-1.46l-2.521-0.02
		l-0.49-1.4l-1.529,0.72l-4.221-3.46l-0.92-2.6l3.59-4.74l-0.989-1.35l0.239-2.62l0,0l1.04-0.36l-0.37-1.35l2.78,1.02l0.91-2.08
		l2.7-1.98l3.649,0.41l0.29-1.56l2.13-0.55l-1.1-0.75l1.12-1.56l1.72,1.25l-0.06-1.25l1.53-0.73l3.38,2.22l-0.24-1.36l2.58-0.66
		l2.14,0.9l0.82-1.57l-0.61-0.56l0,0l2.601-0.19l3.199-4.06l1.23,0.52l0.67-0.97l5.97-0.51l3.19,1.05l4.06,4.86l0.561,2.45
		l2.38,0.23l2.21-2.16l3.21,2.28l1.99,0.02l-0.801,1.85l2.961,1.61l1.34-2.51l5.83-3.44l9.729-1.13l4.771-2.38l1.46-1.97l2.68,0.23
		L538.43,124.63z"/>
	<path id="UA-65" fill="#1E3250" stroke="#1E3250" stroke-width="0.5" d="M378.8,349.18l3.49-1.44l6.65,2.23l-6.47-0.03
		L378.8,349.18z M448.601,344.02l1.27,8.04l3.21,8.76l0,0l-0.55,0.29l0,0l-1.521-3.62l-1.58,1.881l-1.05-0.551l0.65-6l-0.93-4
		l-1.261-0.56l-0.54,2.01l-1.72-1.99l0.07-1.55l-1.3-0.52l3.04-0.67l0.92,1.63l0.31-3.13L448.601,344.02z M389.94,272.86l4.77,0.12
		l-0.61,2.23l2.39-0.48l0.94,2.96l1.27-0.54l-0.8-1.51l5.37-1.02l-0.3-2.14l3.42-0.69l1.05,1.38l-0.64,3.48l1.51-0.51l0.29,1.43
		l9.73-1.56l2.3,2.88l4.79-0.96l0,0l3.471,2.16l2.199,8.02l0.771-0.79l2.45,0.15l0.449-1.79l3.421-0.67l-1.24,1.15l0.34,1.66
		l1.24,0.63l0.12,0.81l-1.311,0.24l0.98,7l1.109-0.1l0.48,4.17l0.76-0.1l1.09,2.52l3.86,0.52l0.58,4.06l1.729-0.15l0.41,2.67
		l-2.04,0.31l0.271,2.12l-0.96,1.56l-3.73,1.17l0.271,1.82l3.81,0.21l0.32,2.81l-1.44,0.41l1.47,3.28l4.53-0.72l0.03,2.95l1.8-0.27
		l3.72,1.45l0.61,8.94l0.97-0.09l0,0l-2.25,1.96l-4.7,1l-2.14,1.75l-0.69,2.1l-4.319-1.11l-1.92,0.521l0.529,3.8l-1.25,3.13
		l-2.09,2.4l-1.1-0.53l-1.05,1.88l-0.03-2.28l-2.08-1.46l0.53-0.779l0.37-0.28l-0.301-1.61l1.101-1.949l0.76,1.77l0.42-1.38
		l1.41-0.57l0.82,2.12l0.699-3.83l-1.55-1.57l-0.83,0.54l0.561,1.811l-2.05,0.42l-3.29-2.85l-0.99,0.25l-1.62-3.221l0.04,3.21
		l1.32,1.4l-1.49,2.97l-0.11-2.63l-4.13-6.53l-1,1.42l0.24,0.23l1.979,3.97l-1.63,1.771l-0.34,1.25l-1.03-1.29l-1.13,0.76l-0.8-1.71
		l-0.66,2l-3.34-5.04l-1.74,0.13l-0.52-0.81l-1.38,0.689l-2.12-1.689l-1.75,0.699l0.54,2.04l-3.43-2l0.15,0.591l0,0l-0.98,0.17
		l0.73,4.229l-0.7,0.25l0,0l-1.13-1.16l-1.48,1.96l0.81,2.08l-2.16,0.011l0.65,2.229l-1.93-0.91l-1.24,0.931l-2.96-3.99l-0.95,1.74
		l-0.85-0.141l0.85-2.05l-0.79-0.59l-2.24,0.03l-0.63,1.149l0.84-5.3l-3.29,4.54l-3.25-1.57l-0.62,2.3l-8.29-0.64l-5.58,1.17
		l-1.9,1.62l-1.73-0.4l-9.89-3.09l1.17-0.479v-1.8l-1.53,0.38l-3.49-2.32l-0.47-1.29l-3.48-0.32l-1.05-1.699l-1.51-0.33l-0.65,1.359
		l-3.35,0.23l-0.75-1.53l1.11-1.27l5.77-1.051l3.41-2.14l-1.62-3.13l-2.03,0.62l-4.98-1.94l0,0l1.71-1.85l0,0l16.53,2.66l2.74-1.11
		l-0.7-0.53l-2.84,1.12l-1.17-0.77l0.7-0.57l-1.05-0.2l1.24-0.08l-0.62-3.31l-1.66-0.85l-3.66,1.64l-1.2-2.69l-1.66-0.11l-2.36-1.99
		l0,0l3.46-1.48l-0.95-2.93l5.48-1.33l-0.21-1.72l1.24-0.63l-0.83-1.44l4.17,2.65l0.91-0.09l-0.25-1.72l3.28-0.54l0.23,1.22
		l2.09-0.27l-0.04-2.93l1.79,1.33l3.57-0.26l0.26,1.95l8.51-1.87l-1.11-1.27l-2.53,0.17l-0.1-0.87l4.82-1.72l-1.7-2.69l0.68-0.61
		l2.43,1.34l1.54-2.41l-4.59-2.81l-0.84-2.32l1.68-3.18l1.59-0.33l1.11,0.91l0.96-2.05l2.16,0.8l0.06-1.46l1.65-0.25l-2.57-2.16
		l-0.06-2.06l1.09-0.49l-0.42-2.77l-2.99,0.06l0.59-4.09l0.67,2.81l2.23-0.34l0.16-5.89l-1.66,0.62L389.94,272.86z"/>
	<path id="UA-68" fill="#1E3250" stroke="#1E3250" stroke-width="0.5" d="M157.36,139.28l2.28-0.02l1.26-2.58l2.43-1.84l3.67,0.09
		l-0.42-0.92l1.16-1.6l2.54-3.01l1.57,0.17l3.01-4.25l-0.05-1.75l0.2,0.85l1.53-0.34l-0.8-0.13l0.13-1.01l1.98-1.65l1.01,0.63
		l1.54-1.94l2.72,1.17l1.25-1.92l1.76,0.39l0.09-1.26l1.47-0.92l0.51,1.76l2.15-0.1l0,0l2.46,3.77l1.08-0.08l-1.66,5.2l2.32,1.4
		l-0.08,1.97l2.28,0.49l1.19,1.22l-0.97,0.47l4.35,3.33l2.65-1.64l0.9,4.55l1.35-1.16l0.58,1.83l-1.64,0.73l0.33,1.57l-0.9,1.49
		l1.76,0.5l0.43,2.13l-1.33-0.02l-1.04,1.7l-2.12-0.33l0.87,3.29l-0.91,2.37l2.67,0.62l-0.13,2.78l1.23,2.21l2.36-0.26l-0.86,1.68
		l2.93,2.21l1.51-1.05l0,0l-0.8,2.39l-1.59,0.22l1.63,3.78l-1.82,2.47l1.23,1.16l-0.1,1.3l-1.81,0.07l-0.01,1.74l1.57,0.44
		l-0.94,1.24l0,0l-0.2,1.21l0,0l3.38,0.53l-1.19,3.77l1.52,1.51l-0.1,4.67l1.41,2.57l-1.47,0.79l-1.33-0.88l-0.76,0.61l-0.49-0.97
		l-1.31,2.85l-3.35-1.4l-1.54,0.56l-0.57,1.82l-1.5-0.99l0.09,0.95l-1.46-0.02l0.21,2.66l-2.07,0.09l-1.95,3.12l1.21,1.95
		l-0.85,3.33l1.2,5.66l-1.31,1.51l0.88,3.55l-1.43,3.42l0,0l-1.77,1.57l-2.52-1.18l0.64,2.02l-0.64,0.91l-2.76-0.89l-2.67,1.29
		l-2.89-0.69l-0.32-0.9l-3.75,2.41l-2.53-3.53l-0.86,0.74l0.03,2.52l-1.71-2.13l-0.04,2.86l-2.35-1.5l-1.29,0.37l0.18,0.95
		l1.65-0.25l1.37,2.37l-1.92,0.44l-1.58-1.11l0.51,2.29l-0.9,0.52l-1.61-0.33l-2.26-4.38l-1.45,0.35l0,0l-2.04-1.32l-0.77,1.07
		l-0.79-1.32l0.74-0.93l-2.22-1.82l1.01-0.36l-1.13-0.45l0.65-0.84l-1.27,0.38l0.16-1.16l-1.8-0.93l0.72-2.53l-0.7-0.81l0.74-0.06
		l-1.26-2.23l0.93,0.37l-0.32-1.18l1.1-0.19l-1.89-2.01l0.68-2.76l-1.3-0.45l0.78-1.82l-1.02-0.96l1.19-0.57l-1.16-0.65l1.25-0.51
		l-1.02-2.44l1.01-0.91l-0.79-0.2l-0.07-4.34l0.72-0.11l-0.9-1.81l0.64-2.44l1.38,0.02l0.56-2.34l-1.15-1.92l0.57-2.21l-1.65-3.18
		l-0.09-2.63l-1.66-1.59l1.13-2.02l1.44-0.08l-0.63-3.01l2.5-2.41l-2.81-2.88l1.81-1.84l-0.19-1.521l-2.08-3.74l0.8-1.11l-2.31-1.9
		l1.05-0.85l-0.54-2.9l1.78-0.9l0.35-1.25l-1.14-0.43l1.68-1.12l-0.87-2.76l2.46-0.17l-2.18-2.73L157.36,139.28z"/>
	<path id="UA-30" fill="#1E3250" stroke="#1E3250" stroke-width="0.5" d="M310.58,122l0.2,2.83l1.67,1.51l0,0l0.19,1.81l-1.35,1.82
		l-1.93,0.9l-1.55-1l-1.16,0.5l0.26,6.54l-0.9,1l-2-1.91l-1.1-4.72l-2.51-0.81l-0.84-2.52l-1.54-0.4l-0.45-2.02l-2.58,0.2
		l-1.61,1.21l0.84-4.64l0,0l1.54-1.82l0,0l1.23-0.4l-1.36-2.23l5.09,0.2l3.03,3.24l4.45-0.91l2.45-2.23l2.45,1.22v1.41l-2.2,0.61
		l0,0L310.58,122z"/>
	<path id="UA-32" fill="#1E3250" stroke="#1E3250" stroke-width="0.5" d="M355.87,129.1l0.48-2.14l-1.68,0.78l-0.86-3.06l-1.93-0.66
		l0.61-1.38l1.98,0.1l0.62-2.5l-3.73-0.16l-1.04-2.68l-2.15-1.9l-2.49,1.39l-0.13,2.39l-4.52,0.3l-0.53,1.66l-3.68-0.38L334,122.38
		l-2.37-1.771l-1.39,1.78l-2.82-3.6l-2.62-1.08l0.02-1.06l1.98-0.21l-0.92-1.61l0.61-2.72l-3.21-3.06l0.07-1.27l-5.91,0.94
		l-2.05-0.86l-1.32,1.55l-0.7-0.61l0.1-0.24l-3.23-0.62l-0.18-2.34l0.99,0.24l0.6-1.13l-0.41-2.33l-2.73-1.47l-1.44-5.16l-1.45-1.42
		l-3.36,0.21l0.24-2.76l-0.8-1.12l1.09-0.85l-0.92-3.08l1.67-0.66l-1.19-2.53l1.79-0.45l-0.61-1.49l-1.09-1.01L300.63,81l0.3-1.8
		l-2-0.15l-2.37-2.39l0.58-3.75l-5.98-4.74l-0.42,1.2l-1.19-0.99l-0.28,1.05l-3.48-0.89l-1.7,1.8l-2.38-0.72l-0.59,2.11l-2.49-0.77
		l-0.39,0.96l-1.64-0.86l-0.03-3.1l-0.95-0.79l-1.6,1.47l-1.22-0.11l-1.69,2.27l-1.47-0.95l-1.29,4.41l-3.05-0.73l-1.75,1.44
		l1.2,0.31l0.15,2.99l-1.46,2.71l-2.96,0.48l0.92,4.56l0.8,2.84l1.03-1.69l5.4,5.28l-1.54,2.39l0.42,2.03l-2.12-0.4l-0.05,1.94
		l3.43,3.77l-0.46,2.27l1.66,1.25l-1.83-0.03l0.54,2.08l2.11,0.17l0.87,2.24l-5.15,5.84l1.99,2.43l-1.48,3.13l1.52,0.76l0.14,1.51
		l-0.9,0.67l-0.93-0.59l-0.23,0.94l1.72,0.73l-1.92,1.2l0.53,0.83l1.02-0.69l2.51-0.43l0.91,1.33l0.04,1.15l1.58,0.31l-0.4,2.14
		l2.29,0.26l-0.17,2.36l-0.78,0.3l1.23,2.33l-1.89,2.54l1.61,1.53l-1.48,2.53l1.59,1.86l-0.66,1.95l1.99,4.57l-2.14,1.68l0.79,0.44
		l-1.48,2.09l-3.77,2.35l-1.11-0.81l-0.85,1.68l-1.55-0.12l0.84,2.25l-0.8,1.79l0.3,0.81l1.59,0.02l0.35,3.29l0.96,0.67l-1.08,2.19
		l1.39,3.83l1.48,0.76l-1.18,1.7l1.46,1.17l-3.16,3.98l1.31,2.74l2.73,0.87l-0.25,2.18l2.56,1.32l0.8-1.2l0.76,1.69l0.72,0.16
		l-0.98,0.99l1.29,1.43l4.02-0.33l-0.3-0.75l2.73-2.84l-0.27-3.01l2.74-1.02l1.54,0.44l1.1,2.74l1.32-3.27l1.85,0.31l-0.39,2.73
		l5.87,1.01l0.39,0.99l1.42-4.77l1.95-1.9l1.54,1.92l3-2.15l4.17,1.96l6.02-1.42l0.79-1.15l-0.36-1.82l2.54-0.38l1.13-2.43
		l0.53,0.75l-0.16-0.87l1.79-1.29l0.65-3.02l1.39-0.06l-0.58-2.5l2.85-4.59l-0.71-0.4l0.54-3.96l-0.85-0.69l0.67-3.26l5.65-2.56
		l-1.33-1.93l0.4-0.7l-2.01-0.35l0.52-1.73l4.6,0.51l-0.54,4.18l2.62,2.98l2.95-3.35l0.76,0.05l0.16,2.69l3.35,0.3l3.43-6.08
		l2.45,0.17l0.44,1.13l-0.05-4.07l2.75-1.22l-2.54-0.78l0.13-2.37l2.1-1.17l-1.23-1.74l0.97,0.28l0.98-2.61l2.12,0.7l2.02-2.15
		l-0.91-1.01l0.32-2.01l1.42-0.95l0.12-2.25l0.38-1.54L355.87,129.1z M313.1,120.78l-2.19,0.61l-0.32,0.61l0.19,2.83l1.68,1.51
		l0.19,1.81l-1.35,1.81l-1.93,0.91l-1.55-1.01l-1.16,0.5l0.26,6.54l-0.9,1l-2-1.91l-1.1-4.73l-2.51-0.81l-0.84-2.52l-1.55-0.4
		l-0.45-2.02l-2.58,0.2l-1.61,1.21l0.84-4.64l1.55-1.82l1.22-0.4l-1.35-2.23l5.09,0.2l3.03,3.24l4.45-0.91l2.45-2.23l2.45,1.21v1.44
		H313.1z"/>
	<path id="UA-35" fill="#1E3250" stroke="#1E3250" stroke-width="0.5" d="M381.96,188.11l2.49,0.7l1.47-0.64l0.69,2.13l3.97,1.03
		l1.44,2.26l0.22,2.95l2.91,0.26l-0.1-4.44l1.98,2.3l-1.24,1.38l1.89,1.53l0.35,1.86l-1.07,1.16l0.68,2.75l2.76,1.13l0.19-1.48
		l2.15,0.18l0.13,1.92l2.13-0.77l1.19,0.97l3.13-3.44l1.66,1.98l3.44,0.14l2.65,1.8l0,0l-1.48,6.71l-1.12-0.13l-0.22-1.46l-2.54,0.7
		l-1.78-1.4l-0.89,1.22l-2.48-0.2l0.1,2.18l1.11,1.32l2.18,0.29l2.28,2.1l1.85-0.31l-2.14,3.62l-2.81,1.58l-1.61-0.63l0.37,1.59
		l-3.82-0.07l-1.24,1.17l0.85,7.74l-0.99,0.28l-0.29,1.73l0.51,1.29l1.38-0.07l-0.07,2.62l1.09,2l-1.5,0.43l-0.73,1.83l-1.72,0.32
		l0.07,0.86l-4.69,1.07l0.81,1.52l-0.87,0.88l-0.63-2.6l-1.98-0.93l0.47,2.31l-1.55,0.38l0.12,0.69l1.67-0.43l-0.29,1.03l-2.84,0.78
		l0.37,1.75l-0.3-1.12l-1.3-0.08l0.12,1.28l-2.31,0.27l-0.7,2.62l-0.57-0.22l0,0l-0.42-3.07l-4.12,0.91l0.74,2.35l-6.77,0.17
		l0.16,1.78l1.29-0.26l0.32,0.98l-3.1,0.57l1.08,2.31l-1,2.73l-9.82,1.45l-2.16-1.73l-2.12,0.53l-0.34,2.72l-3,0.63l-2.88-3.46
		l-7.36,1.62l-0.3-1.64l1.39-0.3l-0.41-1.99l0.91-0.05l-0.23-2.71l-0.82,0.17l-0.34-2.46l-3.11,0.94l-0.71-4.08l1.74-0.9l-0.46-3
		l-2.45,0.45l-0.34-1.3l-1.49,0.2l-0.3-0.98l-1.65,0.31l-0.58,1.45l-0.84-0.37l0.26,1.97l-1.92,0.85l-0.69-0.68l0.92-1.19
		l-0.43-2.05l-3.12,1.05l-0.4-1.19l-1.95,0.94l-0.19-1.12l-2.85,0.93l-0.54-2.72l-1.35-0.46l-0.53-1.97l-3.81-0.64l-2.43,0.49
		l0.35,1.78l-1.91,0.13l-1.11,1.28l-1.46-0.07l-1.36-1.5l-0.74,1.14l-0.31-1.17l-2.32-0.29l-2.39,0.59l-0.96,1.5l-2.22,0.03
		l-0.98-1.11l-0.79,0.99l-4.47-0.98l-2.23,1.59l0,0l-8.43-0.5l-1.68-1.49l-0.52-2.34l-0.54,0.68l-1.45-0.78l-1.41,2.4l-1.44-1.43
		l-2.18,0.22l0,0l-1.04-4.07l2.09-3l-0.82-1.08l6.06-5.19l0,0l2.73-0.46l2.19,1.5l1.72-2.7l2.29,1.14l0.84-1.15l4.48-1.23l0.54-2.31
		l5.45,0.35l0.19-1.92l-1.36-1.15l2.24-1.81l0.43-1.69l-1.16-1.23l1.13,0.06l0.95-1.62l1.96-0.84l3.69,0.55l0.28-0.66l2.4,1.17
		l2.32-1.25l5.58,2.2l3.45-2.11l1.52,1.05l1.58-0.46l0.67,1.55l1.75-0.08l6.09-5.19l0.75-4.22l-0.12,1.33l1.41-0.95l2.21,0.42
		l0.51-1.76l1.59,0.22l1.93-1.16l3.77,2.17l-0.02,1.25l3.75-2.53l2.42,1.49l1.56-0.48l-0.35-2.71l1.46-0.43l0.28-1.25l1.07,0.59
		l0.51-3.7l1.76-1.34l2.23,0.22l1.06,2.43l1.4,0.2l0.7-1.17l1.03,0.91l1.62,4.89l0.89-0.04l-0.28-1.37l1.44,0.83l3.26-0.38
		l-0.09-1.36l1.96,0.97l3.74-0.8l0.91-0.93l-1.44-0.62l-0.5-3.24l2.6-1.13l0.01-1.13l-4.52-2.23L381.96,188.11z"/>
	<path id="UA-09" fill="#1E3250" stroke="#1E3250" stroke-width="0.5" d="M567.3,144.99l0.69,3.49l2.17,1.22l0.55-0.89l1.23,0.24
		l0.689,1.59l1.3,0.41l1.931-1.03l2.13,1.14l1.38-2.3l0.82,1.01l-0.65,2.44l3.24,2.87l3.79,0.5l1.07,3.81l3.109-1.43l1.44,0.32
		l3.85-3.771l3.55,6.9l3.12,0.9l2.3-1.09l5.48,1.42l-0.35,1.3l2.02,4.9l3.07,0.94l1.939,2.04l4.03-0.56l1.09-1.47l6.12-0.94
		l1.05,2.41l-4.24,2.51l-0.329,2.93l1.59,2.84l3.75,3.27l-0.49,2.77l1.26,2.52l-2.609,0.27l-2.04,2.71l-1.54,0.41l-3.12,6.34
		l-4.4-0.24l-1.3,1.05l-3.28-0.03l-0.26,2.12l2.91,0.64l1.28,2.44l-0.5,0.75l1.829,2.04l0.601-0.77l2.53,0.21l2.439,1.42l1.42-2.52
		l1.45,2.41l-3.39,3.98l-5.99-2.47l-1.101,3.86l-1.02,0.04l-1.12,2.27l0.58,1.85l-2.05,3.79l0.93,1.18l3.521-0.34l1.92,1.19
		l0.58,3.04l-0.65,1.89l1.69,1.25l0.3,2.86l0.56,0.8l0.61-0.58l0.17,1.82l-3.24,0.9l-0.27,1.21l2,0.47l0.569,1.5l2.33-2.32l1.16,3.2
		l-0.41,1.49l-2.26-0.2l-0.189,2.4l-0.921,0.12l-1.43,4.98l-1.05,0.61l1.62,1.39l-3.66,0.06l1.45,2.93l-0.87,5.44l-1.05,0.23
		l-0.88,2.13l-3.851-0.6l-2.63,0.67l-2.34-1.82l-2.12,1.54l-0.95-2.05l-4.899,0.2l-3.21,1.28l-2.061-0.49l-0.37-0.95l0,0l0.62-3.48
		l-1.77-0.89l-0.011-2.41l-6.83-0.47l-0.6-5.17l-7.189-2.67l-0.58-4.27l-1.23-1.18l-3.04,0.36l-1.42-0.75l0.37-2.7l1.99-1.25
		l-1.54-0.64l-0.521-3.55l-1.72,0.81l-2.31-1.26l-0.66-1.12l0.81-1.76l-1.43-1.69l-0.47-6.27l1.85-0.95l-0.35-1.47l0.71-0.27
		l-2.141-1.67l1.7-3.78l-3.04-0.71l0.04-4.74l-3.82,0.31l-3.59-0.92l0.79-1.48l0.82,0.45l-0.01-1.04l1.56-0.52l-1.6-3.26l0.939-4.54
		l-1.17-0.21l-0.25,1.24L553,193.1l-0.54-1.22l1.431-0.91l-2.181-2.34l0,0l1.38-1.19l-0.41-0.54l1.971-0.75l-0.34-0.94l-2.16-0.47
		l0.46-4.84l-0.641-2.19l-1.1,0.01l-0.229-2.51l0.38-1.4l2.489-0.87l-1.279-0.67l0.5-1.13l1.68,0.14l-0.19-2.11l1.79-0.87
		l-0.46-1.01l2.07-0.57l-1.479-2.23l0.43-0.7l-1.311,0.25l-0.77-1.17l0.8-1.85l0.74,0.74l1.88-1.67l-1.48-1.45l0.37-1.25l2.38-0.59
		l-2-2.76l0,0l3.07-2.13l0.11,1.05l3.069-3.01l-1.31-5.33l3.13,0.41l1.43-0.82L567.3,144.99z"/>
	<path id="UA-46" fill="#1E3250" stroke="#1E3250" stroke-width="0.5" d="M85.19,113.79l1.75-0.11l3.55,4.34l2.37,0.43l0.47-1.21
		l1.76-0.54l0.88,2.51l1.4,0.98l2.68-0.59l0.87,3.12l1.48-0.17l-0.06,4.49l1.96,0.17l2.29,1.74l-0.28,1.71l5.28-0.78l2.32,0.77
		l0.19-2.29l3.72,2.47l0.2,2.09l1.86,0.76l0,0l3.17,0.4l-1.3,3.26l1.62,2l-0.65,2.65l5.14,6.58l0,0l1.73,1.03l0.82,2.3l-1.29,0.43
		l-0.48,3.48l-2.48,0.65l-0.36,1.38l-6.95,0.04l-0.24,2.939l1.39,1.43l-1.67,1.71l-1.57-1.34l-1.12,4.96l-1.68,1.6l-7.51,2.02
		l0.21,3.88l0,0l-2.85-0.15l-2.22-1.84l-1.83,0.55l0.13-0.92l-1.59-0.86l-1.33,1.17l0.34,1.57l-1.49,0.63l0.25,2.53l-1.36,0.77
		l0.61,1.91l1.58,0.74l-1.43,1.28l-0.53,2.22l-2.56-0.25l-0.04,0.74l0.09,0.95l2.06,0.2l-0.52,2.41l3.46,0.14l-0.59,2.92l-2.55-0.59
		l-4.27,2.14l-1.98,0.03l-0.25,0.85l-3.56-1.05l-1.39,1.6l-1.63-1.17l-2.3,1.97l-4.86-1.18l-2.29,1.46L71.05,199l-1.51,0.46
		l-1.98,2.67l0.7,1.08l-0.87,2.19l1.58,1.71l-1.14,0.53l-0.69,2.17l0.82,2.07l-1.01,2.86l0,0l-4.26-0.07l-2.06-2.09l-1.24,0.81
		l-1.36-1.1l-2.83,0.73l-1.72-3.69l-1.79-1.58l-3.7,1.5l-0.77-2.22l-2.43-1.55l-0.7-1.68l1.52-1.48l-0.55-1.65l1.21-0.84l-1.92-1.08
		l0,0l-0.54-1.43l0.83-1.54l-2.03-0.79l-1.36-2.37l-1.7-0.05l0.56-1.229l-1.24,0.93l-0.39-0.54l1.33-2.08l-1.08-0.79l0.84-0.88
		l0.22-5.9l-1.65-6.84l-1.93-1.89l21.59-29.96l13.72-12.02l1.37-2.96l9.23-1.3l2.93-6.92L85.19,113.79z"/>
	<path id="UA-48" fill="#1E3250" stroke="#1E3250" stroke-width="0.5" d="M338.72,324.45l5.97-0.46l3.43,1.49l0,0l-1.71,1.851l0,0
		l-2.81-0.211l-0.67,2.23L338.72,324.45z M295.54,244.37l2.23-1.58l4.47,0.97l0.79-0.99l0.97,1.11l2.22-0.03l0.96-1.5l2.39-0.59
		l2.33,0.29l0.31,1.17l0.74-1.14l1.35,1.51l1.47,0.07l1.11-1.28l1.91-0.13l-0.35-1.78l2.43-0.49l3.81,0.64l0.53,1.96l1.34,0.46
		l0.54,2.72l2.85-0.93l0.18,1.12l1.95-0.94l0.4,1.19l3.12-1.05l0.43,2.05l-0.91,1.19l0.69,0.69l1.92-0.85l-0.26-1.97l0.84,0.37
		l0.58-1.45l1.65-0.31l0.3,0.98l1.48-0.2l0.35,1.3l2.45-0.44l0.45,3l-1.74,0.9l0.71,4.09l3.11-0.94l0.34,2.46l0.82-0.17l0.23,2.71
		l-0.91,0.05l0.41,1.99l-1.38,0.31l0.29,1.64l7.37-1.62l2.87,3.47l3.01-0.63l0.33-2.73l2.12-0.53l2.16,1.73l9.82-1.45l1-2.74
		l-1.08-2.31l3.1-0.57l-0.33-0.98l-1.29,0.26l-0.15-1.78l6.77-0.17l-0.74-2.36l4.11-0.91l0.42,3.07l0,0l0.03,3.68l2.53-0.18
		l0.06,4.18l-0.79,0.23l-0.25,2.52l0.7,2.15l-3.33,0.86l0.81,5.2l-1.2,1.24l4.48-0.25l-0.05,0.97l0,0l0.05,2.68l1.66-0.62
		l-0.16,5.89l-2.23,0.34l-0.67-2.81l-0.59,4.09l2.99-0.06l0.42,2.77l-1.09,0.49l0.06,2.06l2.57,2.16l-1.65,0.25l-0.06,1.46
		l-2.16-0.8l-0.96,2.05l-1.11-0.91l-1.59,0.33l-1.68,3.18l0.84,2.32l4.59,2.81l-1.54,2.41l-2.43-1.34l-0.68,0.61l1.7,2.69
		l-4.82,1.72l0.1,0.87l2.53-0.17l1.11,1.27l-8.51,1.87l-0.26-1.95l-3.57,0.26l-1.79-1.33l0.04,2.93l-2.09,0.27l-0.23-1.22
		l-3.28,0.54l0.25,1.72l-0.91,0.09l-4.17-2.65l0.83,1.44l-1.24,0.63l0.21,1.72l-5.48,1.33l0.95,2.93l-3.46,1.48l0,0l-2.6-0.21
		l-0.77,1.25l-2.96,1.2l-6.17-1.82l-2.11,2.27l-2.19-1.27l-4.02,0.15l-0.56,1.1l-5.85-1.32l0,0l0.65-1.62l-1.68-3.93l0.96-1.41
		l-0.69-3.16l-3.95-3.3l-0.75-3.01l2.41-1.13l5.26-0.38l-0.49-1.52l2.08-0.09l0.37-2.94l-1.13-4.38l-5.33,0.77l-0.03-1.66l1.61,0.37
		l0.5-4.19l-5.17,1.33l-1.08-1.4l0.31-1.07l-3.02,0.61l-1.24-2.79l1.24-0.63l-0.9-1.06l0.13-2.92l-1.24,0.2l0.77-6.05l-3.32-0.26
		l-0.85-1.09l1.06-0.7l0.33-3.26l-2.71,0.53l0.37,1.47l-1.51,0.41l-0.39-1.65l-6.42,0.8l-0.26-1.16l-1.5,0.27l-1.08-5.93l1.18-0.4
		l0.39-1.95l-0.46-1.04l-3.12,0.42l-0.78-5.83l-2.06-1.86l-0.62-2.4l1.02-0.53l-1.63-2.16l3.59-1.97l1.34,0.17l-1.43-0.68
		L295.54,244.37z"/>
	<path id="UA-51" fill="#1E3250" stroke="#1E3250" stroke-width="0.5" d="M277.89,241.13l2.18-0.22l1.44,1.43l1.41-2.4l1.45,0.78
		l0.54-0.68l0.53,2.34l1.67,1.49l8.44,0.5l0,0l0.35,1.53l1.43,0.68l-1.34-0.17l-3.59,1.97l1.63,2.16l-1.02,0.53l0.62,2.4l2.06,1.86
		l0.78,5.83l3.12-0.42l0.46,1.04l-0.39,1.95l-1.18,0.4l1.08,5.93l1.5-0.27l0.26,1.16l6.42-0.8l0.39,1.65l1.51-0.41l-0.37-1.47
		l2.71-0.53l-0.33,3.26l-1.06,0.7l0.85,1.09l3.32,0.26l-0.77,6.05l1.24-0.2l-0.13,2.92l0.9,1.06l-1.24,0.63l1.24,2.79l3.02-0.61
		l-0.31,1.07l1.08,1.4l5.17-1.33l-0.5,4.19l-1.61-0.37l0.03,1.66l5.33-0.77l1.13,4.38l-0.37,2.94l-2.08,0.09l0.49,1.52l-5.26,0.38
		l-2.41,1.13l0.75,3.01l3.95,3.3l0.69,3.16l-0.96,1.41l1.68,3.93l-0.65,1.62l0,0l-14.44,4.04l-0.77,1.74l1.48,3.24l-0.75,3.3
		l-2.34,2.51l-6.82,11.97l-8.89,10.49l-19.77,16.84l-0.96,1.641l1.39,1.359l0.52-1.28l0.53,1.131l2.98-0.391l-0.79,11.29
		l-0.95,0.781l-1.31-0.09l-0.27-4.602l-2.35-3.649l-5.79-2.79l-6.34,0.5l-9.27,4.919l-0.84,2.461l-4.88-2.641l0.1,1.689l-1.65,0.82
		l1.37,1.93l-2.49,0.84l-5.26-1.148l-7.34-3.541l-2.12-3.6l-0.09-2.34l-2.27-0.94l1.1-1.92l2.09-1.93l4.05,0.78l0.17,2.08
		l2.76-0.681l-0.77-3.39l1.91-0.45l-0.97-4.12l-1.23-0.02l1.13-2.42l0.91-0.931l1.69,0.23l-0.2-1.97l4.17-0.46l-0.31-1.73l2.86-0.82
		l-0.92-4.449l0.59-2.23l6.93-1.56l0.88-2.17l-1.88-2.37l3.85-4.8l-3.79-3.141l1.47-3.51l-2.18-6.17l3.22-0.24l-1.26-1.24l5.85-1.31
		l0.06-1.41l2.43-0.72l0.67,3.59l-1.19,1.06l0.84,2.29l-1.3,1.57l1.13,0.39l0.85-1.399l1.99-0.431l-0.44-2.51l1.28-1.88l1.66,3.83
		l-0.3-1.06l2.17-2.351l1.74,1.75l-0.77,0.96l2.75,1.11l0.54,2.72l0.9,0.32l2.36-0.34l-0.42-3.58l2.45,0.069l0.21-1.869l2.8,3.649
		l-0.48,0.57l2.6,1.58l-0.05-0.99l1.76-1.4l1.65,0.91l2.53-0.81l1.08,0.89l2.33-1.55l-0.16-0.81l-0.76,0.909l-1.29-1.439l-0.61,0.8
		l-0.45-0.92l-1.38,0.02l-0.99-0.88l0.96-0.45l-1.11-0.479l-0.08-1.49l-1.68,0.73l-2.11-2.54l2.5-0.62l0.83-9.5l-1.28-2.64l1.4-0.53
		l-0.33-0.79l-2.11,0.61l-0.73-3.21l-4.43,1.25l-1.07-3.45l-2.44,0.44l-0.32-1.62l-2.23,0.63l-0.52-0.82l1.32-0.25l0.19-3.7
		l0.84-0.36l-0.5-2.67l-2.22,0.19l-0.52,1.06l-1.21-2.42l2.89-0.72l-0.99-5.64l1.59-0.41l-0.88-5.62l-2.92,0.79l-0.12,2.4
		l-1.81,0.84l-1.07-0.56l-0.29-3.95l-1.77,0.49l-0.67-3.83l-2.38,1.62l-0.17-2.25l-1.75,1.8l0.05-2.18l-1.13,0.46l0.99-0.84
		l0.04-1.92l-1.27,0.25l-1.26-2.32l2.34-0.87l1.66-3.45l-0.88,0.04l0.82-2.14l-0.83-1.85l2.3-4.15l-1.79,0.35l-0.69-1.54l2.6-3.2
		l-2.55,0.29l-0.91-5.42l-2.8,0.55l0.21,1.08l-0.67-0.47l-0.48,1.37l-3.37-1.88l-1.45,1.02l-2.85-3.79l0.32-2.37l0,0l0.69,0.59
		l2.03-1.26l0.61-3.12l2.24,0.36l0.42,1.64l0.51-0.33l1.01-3.57l2.94,2.23l-0.49,0.47l3.7-0.38l0.31,0.88l-1.93,0.58l0.52,0.78
		l1.35-0.43l0.79,1.15l3.06-0.07l0.74-1.22l2.52-0.45l1.12,1.07l2.33,0.22l1.09-1.73l2.12,1.21l-0.27-4.34L277.89,241.13z"/>
	<path id="UA-53" fill="#1E3250" stroke="#1E3250" stroke-width="0.5" d="M389.15,121.32l1.67,0.771l1.87-0.96l1.61,1.04l1.92-2.59
		l1.42,1.69l1.84,0.04l0.1,1.19l1.19-0.05l0.74,1.22l0.98-0.85l0.69,0.78l0.59-1.04l0.8,0.89l1.62-0.78l5.64,1.94l3.59-1.71
		l-1.13-1.32l2.11-0.9l1.439,0.9l1.29-1.66l2.42,2.55l1.271-0.87l1.359,0.54l-0.14,1.26l0.7-1.49l3.38-1.32l0.97,0.82l0.37,4.46
		l4.32,3.57l0.84,3.03l3.35,1.39l0.25,1.98l1.83,1.03l-1.67,2.43l0.8,2.5l5.23,1.18l0.01-1.96l1.11-0.68l0.29,0.84l3.58-1.04
		l3.149,0.63l0,0l-0.239,2.62l0.989,1.35l-3.59,4.74l0.92,2.6l4.221,3.46l1.529-0.72l0.49,1.4l2.521,0.02l2.489,1.46l-0.25,4.26
		l1.511,0.76l-0.391,2.1l3.72,1.54l2.73-0.41l1.79,5.23l-2.74,0.94l0.811,1.43l1.89,0.67l-0.11,1.54l-4.939-0.95l-0.681,2.39
		l1.57,0.54l-0.439,2.23l0.909,0.38l-3.199,4.01l-0.141,2.2l-1.25-1.35l-5.069,0.04l-2.23-1.19l-1.47,3.92l1.25,5.09l0,0l-2.29-2.25
		l-1.78,2.271l-1.1-0.6l1.14-0.78l-1.35-0.7l-3.17,0.88l-0.021,1.53l-5.89,1.56l-1.36,2.91l-5.02-2.02l0.47,2.06l-3.021,2.83
		l0.891,0.86l-1.73,4.4l1.561,2.16l-0.851,1.15l0.78,0.46l-1.76,0.15l0.12,1.81l1.39,0.03l-1.5,3.19l-0.28-1.03l-5.25-1.99
		l-0.37-2.09l-1.75-0.21l-1.68-1.97l-4.26-1.91l0,0l-2.65-1.8l-3.44-0.14l-1.66-1.98l-3.13,3.44l-1.19-0.97l-2.13,0.77l-0.13-1.92
		l-2.15-0.18l-0.19,1.48l-2.76-1.13l-0.68-2.75l1.07-1.16l-0.35-1.86l-1.89-1.53l1.24-1.38l-1.98-2.3l0.1,4.44l-2.91-0.26
		l-0.22-2.95l-1.44-2.26l-3.97-1.03l-0.69-2.13l-1.47,0.64l-2.49-0.7l0,0l-3.16,0.78l-1.54-1.33l-3.58,0.21l-4.88-3.9l1.42-4.1
		l1.08,1.35l6.76,1.43l-2.94-4.4l0.81-3.19l2.48-1.37l0.21-2.69l-1.98-1.43l0.38-2.88l-4.54-2.24l-0.62-3.58l-1.34-0.19l-0.44-1.63
		l-1.79,0.47l-2.57-4.08l2.06-0.72l-0.69-0.8l0.39-2.96l-1.58-1.03l-1.06-3.55l-0.6-0.48l-0.7,1.01l-1.86-2.32l-0.16-1.53l1.76-0.42
		l-0.19-1.28l-4.16-1.21l-2-3.28l0,0l-0.9-1.02l0.32-2l1.42-0.95l0.12-2.25l0,0l3.67-0.03l0.02-1.39l1.25-0.35l1.11-2.37l1.47-0.14
		l0.93,1.09l3.3,0.41l-0.21,1.56l1.33,1.31l5.02-1.37l-0.05,0.69l4.03,0.54l-0.02-1.22l4.28-2l1.92-3.48l1.36,0.05l0.36-1.55
		L389.15,121.32z"/>
	<path id="UA-56" fill="#1E3250" stroke="#1E3250" stroke-width="0.5" d="M144.12,45.68l3.54,0.52l2.53-0.98l6.11,3.84l6.91-0.71
		l0.1,2.21l2.52,1.95l2.41,0.09l1.68-1.71l3.33,0.22l2.02,1.19l0.1,1.43l1.39,1.1l1.8-0.49l3.38,1.67l1.56-1.81l7.08-0.28l0.23,5.95
		l2.2,0.54l-1,2.79l3.96-0.78l2.2,0.68l0.89-0.88l1.74,1.83l0.47-2.66l3.5,1.7l3.43,0.05l-0.11,2.16l-1.89,2.58l0,0l0.21,1.01
		l-3.06,1.09l0.05,2.64l1.12,1.49l-1.05,0.01l-1.82-1.68l0.15-1.07l-0.95,0.03l-0.45,4.08l0.91,0.43l0.02,1.41l-0.89,1.34
		l-1.82,0.38l1.14,3.93l-3.36,4.4l-0.3,3.16l-1.44,0.98l0.17,1.93l-3.57,0.67l0.09,1.19l-0.91,0.43l1.33,2.95l-0.68,1.45l1.3,1.15
		l-0.72,5.26l1.39,4.11l-1.06,2.49l-1.42,0.7l-0.41,2.02l1.33,0.99l0.05,2l-1.2,0.25l0,0l-2.15,0.1l-0.51-1.76l-1.47,0.92
		l-0.09,1.26l-1.76-0.39l-1.25,1.92l-2.72-1.17l-1.54,1.94l-1.01-0.63l-1.98,1.65l-0.13,1.01l0.8,0.13l-1.53,0.34l-0.2-0.85
		l0.05,1.75l-3.01,4.25l-1.57-0.17l-2.54,3.01l-1.16,1.6l0.42,0.92l-3.67-0.09l-2.43,1.84l-1.26,2.58l-2.28,0.02l0,0l-1.37-0.93
		l1.42-3.59l-1.99,1.96l-3.42-1.44l-1.73,1.38l-2.72-1.41l-2.48,3.5l-4.37,0.21l-3.37,1.85l-1.75-1.18l-0.74,1.32l-2.68-0.87
		l-0.89,2.01l1.32,1.32l-1.22,0.4l-0.74,2.19l-2.26,0.38l-0.51,2.189l0,0l-5.14-6.58l0.65-2.65l-1.62-2l1.3-3.26l-3.17-0.4l0,0
		l-0.08-1.25l1.91-1.03l-0.78-2.07l0.82-0.52l1.01,0.88l0.42-0.92l-1.31-0.84l-0.46-1.83l-0.69,0.19l0.42-1.34l-2.14-1.23l2.17,0.34
		l0.32-1.9l-1.19-2.43l5.83,0.76l0.94-1.52l-0.27-0.93l-0.72,0.32l-0.34-2.87l3.92,0.98l-1.59-1.64l1.29-1.25l-0.32-1.11l2.79,1.39
		l4.54-1.88l-0.12-1.02l3.21-0.55l0.61,2.85l2.21-0.26l2.04,2.84l2.51-11.09l3.79,0.6l0.59-1.17l-1.58-1.39l0.38-3.71l-1.33-1.07
		l3.94-0.72l0.84-1.83l-0.58-2.57l-2.38-1.59l-2.67-0.19l-0.19-1.79l4.02-1.27l0.34-2.12l-2.1-2.32l-1.85-0.42l-0.25-2.16
		l-3.73-3.32l0.12-2.8l-1.76,0.69l-0.65-1.41l-1.1,0.01l-0.06,1.11l-0.91,0.18l-1.96-2.65l0.01-3.04l-1.22-1.3l-1.74,0.19l1.37-1.14
		l-0.93-0.91l1.21-2.39l-2.4-2.57l1.52,0.35l0.97-0.9l2.1-4.19l0.56-1.97l-1.74-2.6l0.23-2.39l2.24-2.69l-2.51-0.36l-1.36-1.3l0,0
		l6.41,0.15l-0.02-1.53l1.48,0.39L144.12,45.68z"/>
	<path id="UA-59" fill="#1E3250" stroke="#1E3250" stroke-width="0.5" d="M415.17,21.62l0.13,2.27l2.67,0.87l0.69,3.14l2,1
		l0.36,1.33l1.43,0.2l0.21,1.9l1.92,1.39L424,36.44l-1.229,1.13l1.239,1.62l-0.02,1.88l1.35,0.44l0.19,1.72l1.52-0.05l1.091,2.68
		l1.31,0.521l-0.35,1.62l1.699-0.39l3.94,3.35l-0.25,2.03l1.1,2.45l-0.63,1.16l-3.83,0.14l-7.649,2.9l2.819,1.24l0.54,2.53
		l1.03-0.14l0.14,1.32l0.66-0.521l0.75,2.82l1.7,0.8l-3.02,5.55l4,3.31l-1.891,1.11l-1.71,3.82l2.69,1.46l2.54-1.87l6.59,2.1
		l0.76-1.08l2.01,0.38l0.28,2.71l1.62,1.27l2.37-0.64l1.439,0.8l1.021-1.55l2.56-0.32l1.41-1.59l2.09,1.57l1.07-1.43l2.62,0.44
		l-0.82,3.23l1.59,2.13l0.011,1.89l-0.841,0.31l1.36,1.62l2.79-0.27l1.16-1.1l3.359,1.55l0.12,1.24l-1.239,0.99l-1.75-0.42l1.1,2.08
		l-0.8,1.75l2.43,1.56l-0.59,2.36l1.22,1.34l-0.14,2.42l2.5,1.27l-1.14,2.68l1.35,2.71l-0.26,1.15l-0.84-0.56l-2.171,0.76
		l0.921,2.61l-1.08,1.24l2.84,4.8l3.66,2.021l0.649,4.39l2,0.77l0,0l0.61,0.56l-0.82,1.57l-2.14-0.9l-2.58,0.66l0.24,1.36
		l-3.38-2.22l-1.53,0.73l0.06,1.25l-1.72-1.25l-1.12,1.56l1.1,0.75l-2.13,0.55l-0.29,1.56l-3.649-0.41l-2.7,1.98l-0.91,2.08
		l-2.78-1.02l0.37,1.35l-1.04,0.36l0,0l-3.149-0.63l-3.58,1.04l-0.29-0.84l-1.11,0.68l-0.01,1.96l-5.23-1.18l-0.8-2.5l1.67-2.43
		l-1.83-1.03l-0.25-1.98l-3.35-1.39l-0.84-3.03l-4.32-3.57l-0.37-4.46l-0.97-0.82l-3.38,1.32l-0.7,1.49l0.14-1.26l-1.359-0.54
		l-1.271,0.87l-2.42-2.55l-1.29,1.66l-1.439-0.9l-2.11,0.9l1.13,1.32l-3.59,1.71l-5.64-1.94l-1.62,0.78l-0.8-0.89l-0.59,1.04
		l-0.69-0.78l-0.98,0.85l-0.74-1.22l-1.19,0.05l-0.1-1.19l-1.84-0.04l-1.42-1.69l-1.92,2.59l-1.61-1.04l-1.87,0.96l-1.67-0.771l0,0
		l-0.62-1.09l2.46-2.86l-0.18-2.73l1.07-0.56l-0.36-2.91l3.4-1.16l-1.69-0.76l-1.19-2.33l1.04-3.03l-0.45-2.08l1.24-0.39l-0.22-3.59
		l-2.08,0.2l-0.74-2.65l-1.34,1.29l-1.2-0.51l1.4-2.39l-0.44-1.7l-4.28-1.28l1.6-2.75l-1.01-0.98l0.48-1.43l2.18-0.9l-0.28-1.22
		l1.24-1.39l0.17-1.93l-1.11-0.25l1.29-1.61l-0.48-1.22l-0.94,0.021l-0.6-2.68l0.96-0.7l-0.33,0.98l1.64,1.23l0.83-0.13l-0.8-1.22
		l1.46,0.61l-0.01-5.57l2.09-1.25l-1.22-3.07l2.22-0.94l-1.06-0.19l-2.11-3.36l0.24-4.24l-1.88-2.79l2.23-2.29l-0.82-2.54l1.83-1.16
		l0.03-1.07l4.62-1.77l1.31,0.39l0.78-2.62l-2.38-2.09l0.41-0.89l2.44-1.04l1.28,1.3l2.47-0.65l0.02-2.71l-2.07,0.07l-0.84-2.05
		l-3.1-0.71l-0.2-4.26l1.77-1.57l0.72-4.1l1.27-1.55l0,0l0.65,0.2l0.36-1.41l1.92,0.57l-1.15,2.4l2.61,0.67l-0.41-1.2l1.23,0.64
		l3.42-2.54L415.17,21.62z"/>
	<path id="UA-61" fill="#1E3250" stroke="#1E3250" stroke-width="0.5" d="M127.86,148.57l0.51-2.189l2.26-0.38l0.74-2.19l1.22-0.4
		l-1.32-1.32l0.89-2.01l2.68,0.87l0.74-1.32l1.75,1.18l3.37-1.85l4.37-0.21l2.48-3.5l2.72,1.41l1.73-1.38l3.42,1.44l1.99-1.96
		l-1.42,3.59l1.37,0.93l0,0l-0.38,1.43l2.18,2.73l-2.46,0.17l0.87,2.76l-1.68,1.12l1.14,0.43l-0.35,1.25l-1.78,0.9l0.54,2.9
		l-1.05,0.85l2.31,1.9l-0.8,1.11l2.08,3.74l0.19,1.521l-1.81,1.84l2.81,2.88l-2.5,2.41l0.63,3.01l-1.44,0.08l-1.13,2.02l1.66,1.59
		l0.09,2.63l1.65,3.18l-0.57,2.21l1.15,1.92l-0.56,2.34l-1.38-0.02l-0.64,2.44l0.9,1.81l-0.72,0.11l0.07,4.34l0.79,0.2l-1.01,0.91
		l1.02,2.44l-1.25,0.51l1.16,0.65l-1.19,0.57l1.02,0.96l-0.78,1.82l1.3,0.45l-0.68,2.76l1.89,2.01l-1.1,0.19l0.32,1.18l-0.93-0.37
		l1.26,2.23l-0.74,0.06l0.7,0.81l-0.72,2.53l1.8,0.93l-0.16,1.16l1.27-0.38l-0.65,0.84l1.13,0.45l-1.01,0.36l2.22,1.82l-0.74,0.93
		l0.79,1.32l0.77-1.07l2.04,1.32l0,0l-1.74,0.14l-1.31,1.4l-1.74-0.06l-1.13-1.58l-3.39,0.59l-1.73-4.68l-0.72,1.06l1.06,2.38
		l-1.09,0.76l-1.7-2.37l0.74-1.14l-0.52-2.09l-1.01,1.89l-1.55-0.59l-2.25,1.76l-1.96-0.53l0.15-1.27l-2.37-2.7l-1.67,2.16
		l-0.79-1.5l-2.85-0.56l0,0l0.78-1.77l-1.44-0.97l1.04-1.17l-6.27-4.22l-0.06-1.84l-0.86-0.05l0.07,1.29l-2.86-0.78l0.31,2.63
		l-1.34-0.64l-1.14,1.89l-0.92-0.09l-0.41-1.71l2.84-1.18l-2.71-1.39l-1.26,1.04l0.87-4.3l-1.51,0.25l-0.69,2.91l-0.99,0.06
		l-0.73-2.89l0.96-1l-1.25-1.01l0.19-1.64l-0.83,0.81l-2.44-1.53l-1.74,0.91l-2.09-3.13l0.4-1.45l2.52,0.6l-0.27-2.43l-2.71-0.6
		l-1.49-1.72l2.42-3.73l-2.87-1.43l-0.62-2.91l1.09-1.62l-1.53-2.01l-1.23,0.07l-1.9-5.71l0,0l-0.21-3.88l7.51-2.02l1.68-1.6
		l1.12-4.96l1.57,1.34l1.67-1.71l-1.39-1.43l0.24-2.939l6.95-0.04l0.36-1.38l2.48-0.65l0.48-3.48l1.29-0.43l-0.82-2.3L127.86,148.57
		z"/>
	<path id="UA-21" fill="#1E3250" stroke="#1E3250" stroke-width="0.5" d="M36.76,198.26l3.82-0.25l2.61,2.62l1.46-0.3l-0.3-1.58l0,0
		l1.92,1.08l-1.21,0.84l0.55,1.65l-1.52,1.48l0.7,1.68l2.43,1.55l0.77,2.22l3.7-1.5l1.79,1.58l1.72,3.69l2.83-0.73l1.36,1.1
		l1.24-0.81l2.06,2.09l4.26,0.07l0,0l2.57,1.06l2.76,3.45l2.8,0.15l0.2,2.32l1.82,1.86l1.89-0.38l0.53,4.78l1.64,0.42l0.97-2.38
		l1.29,0.24l2.91-1.65l0.61,6.37l1.33,2.14l2.59,0.89l1.02-2.27l1.78,0.37l0.9,1.94l4.05,3.38l0.02,1.87l2.05,1.35l-1.47,3.03
		l4.18,5.55l-1.69,1.46l-0.4,2.64l0,0l-1.85,0.86l-2.55-0.96l-2.9,2.78l-0.84-0.57l-3.25,1.47l-1.23-1.05l-2.72,0.16l-3.49-2.62
		l-4.83,1.74l-2.95-3.13l-3.79,0.53l-4.65-1.79l-1.15,2.62l-5.52-2.65l0.12-0.89l-1.88-0.86l-0.46-2.27l-2.53,0.1l-0.84-1.14
		l-1.79,1.65l-0.74,4.13l-2.59,0.8l-2.94-1.45l0.68,2.64l-1.76,0.56l-2.05-1.72l1.52-3.22l-1.88-3.23l-3.03-0.17l-2.24,1.43
		l-2.71-0.84l-0.69-4.49l-2.34-2.63l-3.41-0.08l-0.68,0.73l-2.3-4.52l0.19-1.37l-2.62-1.65l0.81-1.25l-1.94-0.84l-2.09,1.18
		l-0.23-1.69l1.52-8.52l5.32-4.14l0.75-2.52l-0.54-1.46l1.39-1.96l-0.16-3.1l1.29-1.28l0.14-2.24l1.83-3.24l2.28-0.74l0.91-4.43
		l1.81,0.63L36.76,198.26z"/>
	<path id="UA-05" fill="#1E3250" stroke="#1E3250" stroke-width="0.5" d="M211.96,162.07l4.15-1.68l3.9,0.44l5.2-0.84l0.73-1.4
		l4.44,1.729l1.51-2.229l2.08,0.77l1.46-0.57l1.45,2.3l1.76-2.021l3.75,0.82l0.69-2.4l3.07-0.91l0.96-1.46l2.69,2.5l0.53,1.95
		l-0.9,1.11l2.08,2.38l-1.89,3.03l2.16,2.34l-0.67,1.94l4.38,0.68l4.14-0.99l1.08,0.67l0.15-2l2.11,0.72l0.49-0.76l0.84,0.43
		l0.9-1.94l3.3,0.46l0,0l0.96,0.68l-1.08,2.19l1.4,3.83l1.47,0.75l-1.18,1.71l1.46,1.17l-3.16,3.98l1.31,2.74l2.73,0.87l-0.25,2.18
		l2.56,1.32l0.81-1.2l0.76,1.68l0,0l-1.03,0.27l1.02,5.27l-1.76,0.52l0.2,1.29l-1.22-0.4l-0.78,2.17l-0.43-0.69l-0.3,0.63l1.17,2.16
		l1.43-0.6l0.37,1.15l-1.47,3.25l2.7,1.54l-0.62,0.67l1.53,2.47l0.33,3.14l3.35,1.09l0.61,1.53l-0.8,1.67l4.46,3.38l-1.56,2.02
		l1.94,1.1l0.52,2.76l-0.94-0.03l0.35,1.18l-1.2,0.3l0.02,0.91l0,0l-6.06,5.19l0.82,1.08l-2.09,3l1.04,4.07l0,0l-4.21,0.77
		l0.27,4.34l-2.12-1.2l-1.09,1.72l-2.32-0.21l-1.12-1.07l-2.52,0.45l-0.74,1.21l-3.07,0.07l-0.78-1.15l-1.35,0.43l-0.53-0.78
		l1.93-0.58l-0.31-0.88l-3.7,0.38l0.49-0.46l-2.94-2.24l-1.01,3.57l-0.51,0.33l-0.42-1.64l-2.23-0.36l-0.61,3.12l-2.03,1.25
		l-0.69-0.59l0,0l-0.23-2.22l-5.09-0.05l-0.32-1.01l-3.87-1.48l-2.11,1.23l-0.14,4.31l-1.19-0.38l-1.46-2.47l0.23-2.5l-1.57-0.11
		l-1.03,1.92l-1.51-0.16l2.06-3.17l-0.51-2.26l-4.95,2.14l-1.44-2.83l-2.48,1.36l-0.42-4.12l-4.33-0.79l-1.91-1.57l-0.8-2.23
		l-2.93-2.14l-4.86,0.21l-1.71-0.98l0.18-1.53l-2.13,1.12l0,0l-1.83-1.91l-0.9-4.68l-2.69-1.56l0,0l1.43-3.42l-0.88-3.55l1.31-1.51
		l-1.2-5.66l0.85-3.33l-1.21-1.95l1.95-3.12l2.07-0.09l-0.21-2.66l1.46,0.02l-0.09-0.95l1.5,0.99l0.57-1.82l1.54-0.56l3.35,1.4
		l1.31-2.85l0.49,0.97l0.76-0.61l1.33,0.88l1.47-0.79l-1.41-2.57l0.1-4.67l-1.52-1.51l1.19-3.77l-3.38-0.53l0,0l0.2-1.21l0,0
		l0.94-1.24l-1.57-0.44l0.01-1.74l1.81-0.07l0.1-1.3l-1.23-1.16l1.82-2.47l-1.63-3.78l1.59-0.22L211.96,162.07z"/>
	<path id="UA-07" fill="#1E3250" stroke="#1E3250" stroke-width="0.5" d="M123.73,43.72l1.17-0.42l5.1,2.62l3.39-0.11l0.6-0.98
		l2.07,0.8l0,0l1.36,1.3l2.51,0.36l-2.24,2.69l-0.23,2.39l1.74,2.6l-0.56,1.97l-2.1,4.19l-0.97,0.9l-1.52-0.35l2.4,2.57l-1.21,2.39
		l0.93,0.91l-1.37,1.14l1.74-0.19l1.22,1.3l-0.01,3.04l1.96,2.65l0.91-0.18l0.06-1.11l1.1-0.01l0.65,1.41l1.76-0.69l-0.12,2.8
		l3.73,3.32l0.25,2.16l1.85,0.42l2.1,2.32l-0.34,2.12l-4.02,1.27l0.19,1.79l2.67,0.19l2.38,1.59l0.58,2.57l-0.84,1.83l-3.94,0.72
		l1.33,1.07l-0.38,3.71l1.58,1.39l-0.59,1.17l-3.79-0.6l-2.51,11.09l-2.04-2.84l-2.21,0.26l-0.61-2.85l-3.21,0.55l0.12,1.02
		l-4.54,1.88l-2.79-1.39l0.32,1.11l-1.29,1.25l1.59,1.64l-3.92-0.98l0.34,2.87l0.72-0.32l0.27,0.93l-0.94,1.52l-5.83-0.76l1.19,2.43
		l-0.32,1.9l-2.17-0.34l2.14,1.23l-0.42,1.34l0.69-0.19l0.46,1.83l1.31,0.84l-0.42,0.92l-1.01-0.88l-0.82,0.52l0.78,2.07l-1.91,1.03
		l0.08,1.25l0,0l-1.86-0.76l-0.2-2.09l-3.72-2.47l-0.19,2.29l-2.32-0.77l-5.28,0.78l0.28-1.71l-2.29-1.74l-1.96-0.17l0.06-4.49
		l-1.48,0.17l-0.87-3.12l-2.68,0.59l-1.4-0.98l-0.88-2.51l-1.76,0.54l-0.47,1.21l-2.37-0.43l-3.55-4.34l-1.75,0.11l0,0l-0.82-0.9
		l0.28-2.2l-1.83-0.2l0.19-2.24l-1.87-0.5l-0.21-2.08l1.41-1.46l3.47,0.09l1.35-1.55l-3.14-1.24l-2.81-3.18l-0.47-2.08l-1.47-1.12
		l0.73-0.2l-0.85-3.18l-1.76-1.39l0.42-2.75l-4.42-3.39l-1.45-4.21h-1.73l-0.3-2.22l1.6-1.92l0.6-2.73l-1.79-1.47L71,69.69
		l-1.69-0.77l-0.07-0.81l1.99,0.33l-1.34-2.5l0.9-1.64l-1.91-2.29l2.39-1.61l3.49-0.72l0.39,1.5l4.05,0.41l-1.03,2.21l3.9,0.57
		l4.22-4.64l6.63-4.53l-0.77-2.86l1.45-3.16l1.65-1.22l8.23-1.1l4.35,1.05l2.26-1.61l0.65,0.87l2.53-0.77l1.57,0.78l4.43-2.98
		L123.73,43.72z"/>
	<path id="UA-23" fill="#1E3250" stroke="#1E3250" stroke-width="0.5" d="M425.41,277.91l15.55-4.3l9.181,2.16l2.88-0.69l-1.66-6.88
		l1.109-0.32l0.601-4.54l-2.16,0.38l0.189-4.62l-0.939,0.04l-0.34-1.36l-1.471,0.68l-0.51-2.55l3.851-0.9l-0.36-2.54l-1.24,0.09
		l-0.68-1.6l-0.24-1.78l1.2-0.26l-0.67-3.93l1.99,0.11l-0.011,2.02l2.521,0.04l3.76-2.1l6.45-0.66l7.67,2.53l0.13,0.91l6.16-3.16
		l1.3,2.18l2.16-0.17l0.28,1.6l5.109-1.32l0.33,2.36l2.601-0.6l0.439,1.75l-1.069,0.41l1.239,2.2l-0.649,0.63l0.72-0.25l0.38,1.77
		l0.82-0.54l0.66,1.9l-0.42,1.91h-1.521l0.12,0.91l4.021-0.59l0.1,1.36l2.34,0.01l0.39,0.77l1.74-0.25l-0.03-0.98l4.49,0.84
		l4.221-1.2l0,0l0.789,0.33l-0.649,2.8l2.8-0.39l1.42,5.75l2.63-0.28l-2.47,1.32l0.22,1.39l1.311-0.21l-0.59,1.33l2.8-0.76l2.2,3.8
		l1.76-1.41l1.91,1.81l0.689-0.74l1.82,3.05l2.66,1.9l0.8-1.48l2.16,0.8l-1.391,5.64l-1.34,0.68l-0.859-1.93l-0.98,0.25l0.45,1.75
		l-2.79,1.93l-3.79-0.85l1.24,5.81l-3.69,0.11l4.97,3.52l0.381,1.91l-0.9,0.55l4.729,1.92l-1.159,1.64l1.7,1.32l-4.03,2.55
		l1.42,2.25l0,0l-5.34,3.34l-4.74,8.99l-0.69-0.03l2.82-3.34l-0.689-1.52l-3.171-2.34l-3.479,0.12l-8.03,3.44l-6.01,9.14l-2.79,1.61
		l4.77-5.22l-0.85-2.8l-1.57-0.93l-5.5,0.15l-5.02,1.15l-4.94,2.88l-4.529,4.9l-4.86,2.351l-9.24,14.319l-6.39,3.16l1.38-2.95
		l6.22-2.26l4.851-8.4l-1.25,1.23l-1.86-1.1l0.2-3.891l-2.021-1.14l-1.1-1.37l0.34-0.95l-0.96,0.56l1.63,4.97l-3.62,4.529l0,0
		l-0.97,0.091l-0.61-8.94l-3.72-1.45l-1.8,0.27l-0.03-2.95l-4.53,0.72l-1.47-3.28l1.44-0.41l-0.32-2.81l-3.81-0.21l-0.271-1.82
		l3.73-1.17l0.96-1.56l-0.271-2.12l2.04-0.31l-0.41-2.67l-1.729,0.15l-0.58-4.06l-3.86-0.52l-1.09-2.52l-0.76,0.1l-0.48-4.17
		l-1.109,0.1l-0.98-7l1.311-0.24l-0.12-0.81l-1.24-0.63l-0.34-1.66l1.24-1.15l-3.42,0.67l-0.45,1.79l-2.45-0.15l-0.77,0.79
		l-2.2-8.02L425.41,277.91z"/>
	<path id="UA-18" fill="#1E3250" stroke="#1E3250" stroke-width="0.5" d="M226.33,62.17l0.85-0.12l2.11,2.66l0.35,1.91l3.89-2.94
		l2.91,1.24l3.44,0.1l-0.92,0.44l0.75-0.01l1,6.13l1.82-1.02l0.52,2.76l0.98-1.979l-0.68-1.89l2.1-3.96l2.84-1.53l3.06,0.78
		l3.67-4.18l2-0.09l1.51,4.34l1.42,0.34l-0.2,3.83l0.7,1.85l1.23,0.39l0.57,4.1l1.31-0.34l0,0l1.2,0.32l0.15,2.98l-1.46,2.71
		l-2.96,0.48l0.92,4.56l0.79,2.83l1.03-1.69l5.4,5.28l-1.55,2.39l0.43,2.03l-2.12-0.4l-0.05,1.94l3.43,3.77l-0.46,2.28l1.66,1.24
		l-1.84-0.03l0.55,2.08l2.1,0.17l0.88,2.24l-5.15,5.84l1.99,2.43l-1.48,3.14l1.52,0.76l0.14,1.51l-0.9,0.67l-0.94-0.59l-0.23,0.94
		l1.71,0.73l-1.92,1.21l0.53,0.83l1.02-0.69l0,0l2.33-0.44l1.09,1.34l0,0l0.04,1.15l1.58,0.31l-0.4,2.14l2.29,0.26l-0.17,2.36
		l-0.78,0.3l1.23,2.33l-1.89,2.54l1.61,1.53l-1.48,2.53l1.59,1.86l-0.66,1.95l1.99,4.57l-2.14,1.68l0.8,0.44l-1.48,2.09l-3.77,2.35
		l-1.11-0.81l-0.85,1.68l-1.55-0.11l0.83,2.25l-0.79,1.79l0.3,0.81l1.59,0.02l0.35,3.28l0,0l-3.3-0.46l-0.9,1.94l-0.84-0.43
		l-0.49,0.76l-2.11-0.72l-0.15,2l-1.08-0.67l-4.14,0.99l-4.38-0.68l0.67-1.94l-2.16-2.34l1.89-3.03l-2.08-2.38l0.9-1.11l-0.53-1.95
		l-2.69-2.5l-0.96,1.46l-3.07,0.91l-0.69,2.4l-3.75-0.82l-1.76,2.021l-1.45-2.3l-1.46,0.57l-2.08-0.77l-1.51,2.229l-4.44-1.729
		l-0.73,1.4l-5.2,0.84l-3.9-0.44l-4.15,1.68l0,0l-1.51,1.05l-2.93-2.21l0.86-1.68l-2.36,0.26l-1.23-2.21l0.13-2.78l-2.67-0.62
		l0.91-2.37l-0.87-3.29l2.12,0.33l1.04-1.7l1.33,0.02l-0.43-2.13l-1.76-0.5l0.9-1.49l-0.33-1.57l1.64-0.73l-0.58-1.83l-1.35,1.16
		l-0.9-4.55l-2.65,1.64l-4.35-3.33l0.97-0.47l-1.19-1.22l-2.28-0.49l0.08-1.97l-2.32-1.4l1.66-5.2l-1.08,0.08l-2.46-3.77l0,0
		l1.2-0.25l-0.05-2l-1.33-0.99l0.41-2.02l1.42-0.7l1.06-2.49l-1.39-4.11l0.72-5.26l-1.3-1.15l0.68-1.45l-1.33-2.95l0.91-0.43
		l-0.09-1.19l3.57-0.67l-0.17-1.93l1.44-0.98l0.3-3.16l3.36-4.4l-1.14-3.93l1.82-0.38l0.89-1.34l-0.02-1.41l-0.91-0.43l0.45-4.08
		l0.95-0.03l-0.15,1.07l1.82,1.68l1.05-0.01l-1.12-1.49l-0.05-2.64l3.06-1.09l-0.21-1.01l0,0l3.27,2.22l1.34-3.05l1.67-0.58
		l-0.97-4.04l1.07-0.75l2.07,0.76l0.24,2.1l1.92-0.88l-1.22,1.93l5.39-1.05l2.49-3.74l2.87-1.95L226.33,62.17z"/>
</g>
</svg>
