<?xml version="1.0" encoding="utf-8"?>
<!-- Generator: Adobe Illustrator 15.0.0, SVG Export Plug-In . SVG Version: 6.00 Build 0)  -->
<!DOCTYPE svg PUBLIC "-//W3C//DTD SVG 1.1//EN" "http://www.w3.org/Graphics/SVG/1.1/DTD/svg11.dtd">
<svg version="1.1" id="Layer_1" xmlns:amcharts="http://amcharts.com/ammap"
	 xmlns="http://www.w3.org/2000/svg" xmlns:xlink="http://www.w3.org/1999/xlink" x="0px" y="0px" width="1024px" height="768px"
	 viewBox="0 0 1024 768" enable-background="new 0 0 1024 768" xml:space="preserve">
<defs>
	
	
		<amcharts:ammap  projection="mercator" leftLongitude="165.876210" topLatitude="-34.392108" bottomLatitude="-52.609857" rightLongitude="183.847768">
		</amcharts:ammap>
</defs>
<path id="NZ-AUK" fill="#1E3250" stroke="#1E3250" stroke-width="0.5" d="M452.76,168.562l1.04-0.08l-0.79,3.25l-1.66-1.94
	L452.76,168.562z M452.06,164.321l1.31,0.74l-1.91,1.1l-0.41,2.96l-2.84-0.55l-2.22-2.28l-1.06,1.04l-0.05-1.98l1.22,0.641
	l1.68-0.91l1.53,1.01l0.23-1.08L452.06,164.321z M442.14,163.341l0.51,2.681l-3.51,1.01l-0.04-1.76l2.02-0.07L442.14,163.341z
	 M439.19,147.021l1.48,1.159l-0.18,1.92l-2.31-1.17L439.19,147.021z M449.07,136.331l0.88,0.64l-0.65,2.391l-1.94-0.57l0.05-1.68
	L449.07,136.331z M431.2,135.171l3.26,4.8l4,1.46l-1.66,2.2l0.39,1.45l3.1,0.7l-5.4,1.05l0.09,1.74l1.77,1l-1.99,2.359l-0.5-2.359
	l-1.01,1.79l1.24,0.66l0.15,2.399l-0.88-0.26l-0.32,1.74l1.57,2.27l4.14-1.45l-0.19,1.311l-4.15,1.279l3.33,8.891l-1.3-0.13
	l-0.59-1.37l-2.6,1.24l-1.38-2.511l-0.7,0.12l0.46,3.82l1.38,1.399l1.99-2.329l2.5,1.42l0.44-0.88l2.21,0.029l0.53,1.21l1.03,0.13
	l1.87,1.87l1.16-0.189l-0.3-1.32l2.1-0.35l2.6,3.47l1.47-0.89l0.69,1.119l1.22-1l3.61,3.551l0,0l-3.04,1.79l-2.09-0.801l-0.07,1.881
	l-3.27-1.171l-2.55,4.91l-2.09-0.819l-0.49,0.71l2.57,3.56l-0.73,1.33l-2.34-0.2l-0.18,2.72l-2.61-0.64l-0.09,1.36l-1.61,0.96l0,0
	l-2.13,0.569l-0.79,1.78l-1.8-0.979l-5.79-14.561l4.7-0.37l0.12,4.66l1.09,0.38l0.74,4.16l1.08,0.2l-1.28-3.88l0.29-1.15l2.52-2.189
	l0.57,1.05l2.63-2.87l-1.64-1.99l-1.97,0.43l-0.92-1.289l1.29-1.16l-0.72-1.36l0.63-0.78l-3.56,0.471l-2.42,1.859l-0.3,2.34
	l-1.73-1.05l-3.15,2.46l-2.69-11.68l-9.92-15.74l0.27-1.729l2.59-0.971l2.6,4.801l2.93,1.79l-0.48,1.779l1.46,1.2l1.28-0.74
	l-1.06-1.26l1.36-1.42l-1.48-3.78l0.87-2.79l-1.4-1.3l-1.37,0.96l-1.24-1.32l-2.91-0.359l0.64-3.13l2.89,0.68l2.25-1.84l0,0
	l2.69-1.38l0,0l0.39-1.41l0,0l2.02-0.75l0.12-1.34l2-0.761l1.42-2.359l0,0L431.2,135.171z M460.96,130.751l0.29,1.92l1.57,0.69
	l-0.67,1.58l3,1.55l-1.4,2.83l2.87,2.96l-0.79,2.76l-1.97-0.87l0.56-1.439l-2.15,0.35l0.24-2.31l-1.45,0.38l-3.61-2.7l-0.03-1.28
	l1.96,1l-0.14-2.729l-1.78-0.561l2.55-0.89l-1.31-2.41L460.96,130.751z"/>
<path id="NZ-BOP" fill="#1E3250" stroke="#1E3250" stroke-width="0.5" d="M483.96,199.591l6.38,8.36l-2.61-2.4l-0.34,1.2l-1.67-0.92
	l-0.09-1.52l1.609,0.479l-3.42-3.94L483.96,199.591z M493.62,279.871l1.91-1.021l-0.91-7.51l-2.859,0.58l-3.57-6.18l0.78-2.2
	l4.02,1.13l1.61-1.439l-3.28-3.851l1.85-3.95l-4.01-1.14l-0.47-1.17l-2.08,0.27l0.09-2.729l1.061,0.13l2.31-2.78l1.52,3.181l5-1.671
	l0.73,1.061l-0.92,1.97l2.29,0.99l1.25-2.91l3.49,1.33l1-6.58l-1.561-1.81l-6.31-2.65l-3.28-10.53l-1.91-1.399l-2.609-0.061
	l-6.05-5.17l-0.49-1.68l1.39-0.79l-1.4-1.6l0.02-1.87l-1.33-0.561l0.76-2.68l-4.6-10.78l1-0.899l-1.01-2.03l0.98-1.42l0.98,1.51
	l1.56-0.04l-1.52-1.84l2.13-1.561l-0.48-1.159l1.41-1.561l0,0l2.01,4.44l-1.86-0.221l-0.53,1.69l0.77-0.56l1.1,1.449l-2.26,0.971
	l1.3,0.989l-0.41,0.721l0.65,1.529l1.25,0.551l-0.07,1.39l2.479-0.63l-0.67,1.56l2.16,0.25l0.13,1.141l1.62-1.28l1.22,0.42
	l-0.319,2.9l2.97-1.49l-2.21-1.49l-0.21-2.13l10.04,6.78l1.44-1.21l7.59,5.79l18.69,6.42l-2.891-0.29l2.721,1.99l0.75-1.591
	l9.129-0.14l3.701-1.74l7.699-9.439l-0.609-0.98l2.299-2.979l4.791-0.9l2.061-2.75l1.889,0.62l1.531-1.96l0.65-1.17l2.809-0.45l0,0
	l1.02,2.64l-5.199,1.32l1.051,3.28l-1.021,2.29l0.891,1.239l1.609-1.47l1.441,1.54l-4.041,4.101l-4.209,13l-5.4-4.2l-2.131-0.19
	l1.25,2.16l-1.59,4.66l-6.58,3.21l0.42,1.97l-1.43,3.521l-8.889,4.6l0.699,4.29l-2.189,0.61l-1.131,2.609l-1.68,0.41l0,0
	l-0.801,1.68l-2.459,0.19l-2.189,3.85l-2.352-0.149l-1.41-1.601l-2.648,1.311l-1.852-0.351l-0.908,1.98l-1.311-0.03l-0.46,6.391
	l-4.15,4.319l0.74,2.96l-6.439,0.091l-1.24,2.93l1.149,3.08l-3.01,0.38l1.03,1.5l-2.2,0.6L493.62,279.871z"/>
<path id="NZ-CAN" fill="#1E3250" stroke="#1E3250" stroke-width="0.5" d="M356.94,433.521l0.69,3.5l2.01-0.471l0.66,1.48l1.37,0.06
	l-0.62,2.55l1.61,1.41l-0.81,1.761l1.04,1.05l1.59-0.61l1.11,3.64l2.67,1.011l-1.56,2.64l1.9-0.15l1.29,2.41l0.97-1.54l3.22-0.66
	l2.47-4.71l0.94-0.069l-2.4-1.12l4.59-3.48l-0.2-0.79l6.64-2.84l0.63-5.47l2.34-0.91l2.27-3.51l1.5,0.28l2.87-2.61l0.6-2.57
	l2.18,2.311l1.1-1.33l5.27-1.05l0.76,1.14l3.25-0.21l-0.41,1.89l0,0l-4.38,6.341l-0.11,4.27l-6.68,5.94l-2.79,4.069l-0.34,2.41
	l1.49,1.05l-4.06-0.189l-3.49,3.02l-1.11,3.46l0.82,0.45l-8.1,15.74l0.2,1.78l-3,3.68l-4.01,1.89l-2.27,3.29l-1.51-0.21l-8.71,4.57
	l-3.58,6.939l-0.63,6.931l0.65,7.109l-0.96,1.49l4.14,1.8l-5.08,1.091l-1.06,0.789l0.34,1.761l6.49-2.8l1.33-0.091l2,1.15l0.77-0.06
	l2.44,0.97l2.07,0.609l0.39,2.19l1.17-0.47l0.89,0.909l-0.45,1.061l1.23,1.47l-1.07,4.63l-5.23,2.95l-1.17-1.84l0.94-4.76
	l-1.13-0.79l-1.17,3.899l1.56,4.16l-4.63-0.56l-4.69-3.4l-15.39,2.23l-12.13,5.489l-21.86,13.74l-7.49,8.44l0.43,3.68l-3.63,8.28
	l0.41,12.6l-1.02,5.87l0,0l-11.15-2.34l-10.33-4.54l-2.3,4.32l-3.94,2.8l-2.04,0.49l-0.89-2.44l-1.12-0.18l-3.89,1.83l-4.85,0.34
	l-0.93-3.04l-2.92-3.5l-1.97-9.4l-1.99-0.46l-2.12,1.43l-2.89-1.35l-1.17-4.46l-0.68,2.1l-2.96-0.399l0.33-6.86l-2.8-0.16
	l-1.33-1.02l0.66-0.55l0,0l0.41-1.99l0,0l0.4-7.76l-1.57-2.44l2.58-2.78l0.41-1.97l0.97-0.06l1.63-4.23l1.24-0.16l-0.58-3.989l0,0
	l6.11-7.101l1.39,0.07l-0.09-1.16l2.95-1.12l0.08-2.43l2.25-1.17l-0.04-2.09l2.24-1.17l-0.02-3.591l2.02-0.479l3.38-3.98l3.85-1.77
	l0.95,1.42l1.88-0.72l5.03-4.601l3.15,1.17l1.75-2.449l-0.63-0.94l2.81-1.38l-0.52-1.28l4.8-0.95l4.06-5.12l0.79,1.181l1.51-0.28
	l2.68-3.1l-0.63-0.94l1.49-2.35l1.01,0.5l0.45-1.36l4.36-1.08l0.43-3.42l3.04-2.05l-0.2-0.811l2.31-0.59l1.59,0.86l1.48-2.351
	l1.88-0.729l0.9,0.84l5.84-1.38l1.86,0.76l1.41-1.43l-0.74-0.6l1.3-1.091l-0.06-2.63l4.94-2.21l1.45-4.39l2.14-0.83l-0.2-0.811
	l5.01-1.06l0.74-2.93l2.25-1.16l2.13-4.34l2.02-0.49l2.38-2.96l3.88-1.2l1.24-5.14l0,0l5.08-3.391l0.2-2.68l1.28-1.06l-0.4-1.58
	L356.94,433.521z"/>
<path id="NZ-CIT" fill="#1E3250" stroke="#1E3250" stroke-width="0.5" d="M787.609,546.671l2.691,2.67l-3.512,4.45l-1-3.729
	l1.191-1.11l-1.48-1.29L787.609,546.671z M771.9,517.981l7.4,2.989l3.469-0.77l1.861,0.71l2.029-1.09l2.189,0.62l-1.369,0.199
	l-0.521,1.771l-1.689-0.63l-2.109,1.51l-3.27,5.8l-0.33-3.29l2.58-1.95l-2.59-1.6l-2.74-0.43l-2.07-1.19l0.5,2.79l3.811,0.79
	l-3.182,2.49l1.971,3.35l-0.381,1.92l1.852,0.851l0.539-2.431l1.24,4.96l2.539,0.95l0.021,0.92l-5.93,1.351l-3.891,3.14l-2.27-0.43
	l-1.99-6.17l5.9-3.891l-2.361-6.18l-2.68-1.4l-2,1.78l-3.08-0.5l0.4,0.771l-1.32,0.569l-2.5-0.239l-0.52-0.98l1.08-1.86l2.16-0.289
	l-0.16-2.021l2.619,1.09l3.48-0.939L771.9,517.981z"/>
<path id="NZ-GIS" fill="#1E3250" stroke="#1E3250" stroke-width="0.5" d="M569.1,202.481l5.74,1.159l-0.971,1.091l1.871,2.06
	l5.391,0.93l2.719,2.601l-5.52,8.529l-0.631,4.7l-2.18,2.45l1.461,4.03l-2.221,2.41l1.51,1.76l-1.789,2.85l0.959,1.23l0.48,7.74
	l-2.5,2.77l0.42,2.83l-5.68,6.12l-2.6,1.29l-0.471,1.51l-2.18-1.88l-2.859,2.01l-0.23,1.891l1.51,0.35l-2.35,3.56l-0.52,7.2l0,0
	l-2.141-0.68l0.141-1.67l-1.74-1.47l-1,0.939l-1.021-0.95l-0.84,1.15l-0.35-0.94l-2.539,0.2l0.309-2.83l-0.729,0.84l-1.791-0.63
	l-0.299-2.3l-1.961,0.521l-2.881-3.131l0.111-2.189l-2.291-0.42l1.51-3.03l-5.559-1.8l0.07,2.93l-7.092-3.6l0,0l1.682-0.41
	l1.129-2.61l2.189-0.609l-0.699-4.29l8.9-4.601l1.43-3.52l-0.42-1.97l6.58-3.21l1.59-4.66l-1.25-2.16l2.131,0.189l5.398,4.2
	l4.211-13l4.039-4.1l-1.439-1.54l-1.609,1.47l-0.891-1.24l1.02-2.29l-1.049-3.279l5.199-1.32l-1.02-2.64l0,0l3.289,0.439
	L569.1,202.481z"/>
<path id="NZ-HKB" fill="#1E3250" stroke="#1E3250" stroke-width="0.5" d="M508.72,347.101l-7.061-1.109l-2.02-1.43l-0.771-1.091
	l1.521-1.17l-1.95-7.069l0,0l0.8-1.721l0,0l-2.609-2.3l0.539-1.609l-2.359-1l-0.95-1.841l-3.29-0.899l-0.74,0.85l-1.619-1.85
	l1.17-2.141l-0.54-1.72l2.29-10.03l1.43-2.22l-1.561-1.3l0.65-1.91l-1.56-1.3l1.699-0.4l2.57-2.949l2.88-0.601l-0.8-3.51l1.24-2.95
	l-2.771-1.63l1.69-2.31l-0.41-2.021l-3.39-1.11l-1.11-4.46l0,0l1.95-2.399l0,0l4.229,3.77l2.2-0.6l-1.029-1.49l3.01-0.37l-1.15-3.08
	l1.24-2.93l6.439-0.09l-0.739-2.96l4.149-4.32l0.46-6.39l1.31,0.029l0.91-1.979l1.85,0.35l2.65-1.31l1.41,1.61l2.35,0.149
	l2.189-3.85l2.471-0.181l0.801-1.67l0,0l7.09,3.61l-0.07-2.93l5.561,1.8l-1.51,3.03l2.289,0.43l-0.109,2.189l2.879,3.141
	l1.961-0.521l0.311,2.301l1.789,0.63l0.74-0.841l-0.301,2.83l2.541-0.199l0.35,0.939l0.85-1.149l1.02,0.949l1-0.93l1.74,1.47
	l-0.139,1.67l2.139,0.69l0,0l0.061,4.979l4,1.86l-3.039,2.98l-2.422,5.01l-1.689-5.43l2.031-3.801l-1.201-1.22l-0.721,0.92
	l-6.078-1.359l-9.951,0.649l-8.379,3.061L525,285.131l-0.869,3.16l-4.08,4.2l-1.59,5.22l0.6,1.42l1.41-0.35l-0.041,3.96l1.76,3.69
	l2.42,1.26l2.59-0.29l-3.109,4.45l-0.41,5.56l-4.59,9.33l-0.6,5.32l-3.301,4.76l-4.269,2.12L508.72,347.101z"/>
<path id="NZ-MBH" fill="#1E3250" stroke="#1E3250" stroke-width="0.5" d="M421.3,380.971l-0.58,5.971l-0.91-0.591l-3.49,2.311
	l-0.98-0.75l-2.58,1.08l5.01-3.95l1.96,0.47l0.13-1.55l-2.25-0.21L421.3,380.971z M406.2,371.821l1.15,0.04l-0.35,1.33l-0.69,0.56
	l-1.02-1.75l-0.56,2.72l-2.22,0.57l1.19,0.28l-0.42,0.67l-3.96,1.229l0.4-1.569l-2.13,1.6l1.47,0.63l-1.63,1.061l0.68,2.96
	l1.69-2.98l4.74,0.49l-3.21,0.87l0.57,2.18l-1.48-0.38l-0.32,1.58l-2.29,0.46l0.3,1.07l1.67-0.07l1.12-0.23l0.29,1.16l-0.63,2.62
	l-2.17-0.31l0.42,0.939l-1.74,0.49l0.47,1.06l1.48-0.97l4.58-2.1l1.65-0.36l1.95-1.62l2.08,0.431l1.89-1.16l-2.7,0.37l-0.28-1.04
	l-6.71,2.609l0.93-2.119l-1.12-1.421l2.07-0.829l-0.79-0.181l1.13-0.37l0.14-1.56l1.64-0.33l-0.96,1.9l0.61,1.859l1.09-2.49
	l2.01,0.221l-1.04-2.021l1.15-2.37l-4.49,0.94l0.76-0.46l-0.68-0.63l2.03-0.16l-0.91-1.21l1.23,0.1l0.73-1.47l0.3,2.6l1.73-1
	l1.57,2.891l-0.41-2.96l1.76,1.279l0.8-1.859l0.72,1.41l0.57,0.06l0.14,1.45l-1.23,0.18l2,1.43l0.88-1.6l2.23-0.29l-2.5,2.97
	l0.47,1.57l-0.87-0.56l-1.49,1.42l-0.23-2.61l-0.64,1.43l-0.67-0.38l0.57,2.11l1.53,0.2l0.11,1.569l-1.31,0.931l-0.51,0.6
	l-1.22-1.09l-1.91,1.91l-0.24-1.25l-2.74,0.609l-1.04,1.83l2.47,0.05l4.27-1.159l-0.45,1.319l1.64-0.38l0.78-0.3l3.04-0.03l1.38-1.5
	l-1.04,2.86l-2.3,1.149l0.48,1.45l-1.37-0.45l-0.38,1.37l-2.37,0.801l2.25-3.08l-1.12-0.28l-0.44-0.18l-1.26,0.729l-3.33,7.26
	l0.13,2.04l2.18,2.57l-1.21,1.24l3.51,0.31l1.23,7.89l3.8,0.921l-4.48,7.6l-4.36,4.88l0,0l0.41-1.89l-3.25,0.21l-0.76-1.141
	l-5.27,1.051l-1.1,1.33l-2.18-2.311l-0.6,2.57l-2.86,2.609l-1.49-0.279l-2.27,3.51l-2.34,0.92l-0.63,5.47l-6.64,2.84l0.2,0.79
	l-4.59,3.48l2.4,1.12l-0.94,0.069l-2.46,4.71l-3.21,0.66l-0.97,1.54l-1.29-2.41l-1.9,0.15l1.56-2.64l-2.67-1.011l-1.11-3.64
	l-1.59,0.61l-1.04-1.051l0.82-1.76l-1.61-1.41l0.62-2.55l-1.37-0.06l-0.66-1.48l-2.01,0.471l-0.68-3.5l0,0l0,0l0,0l0,0l0,0
	l0.69-3.431l1.97-1.03l-0.35-1.02l3.38-3.86l-0.81-1.7l3.92-5.479l-0.81-1.7l3.16-1.189l2.19-3.12l-0.02-1.99l3.37-1.87l0.94-3.51
	l5.11-0.271l-2.09-2.62l1.74-1.829l-0.39-1.561l5.18-4.08l-0.14-1.67l2.51-3.63l3.48-1.71l1.07-6.75l0,0l1.25,1.06l1.02-0.09
	l3.86-1.62l-0.68-0.659l-2.17,1.199l-0.71-1.06l2.99-1.58l0.67-1.63l0.8-0.38l0.9,0.12l1.05-2.311l0.78,0.32l-0.88,2.7l1.07,0.27
	l2.25-2.34l-0.44-0.78l2.81-2L406.2,371.821z M404.89,364.331l-2.12,4.91l-5.07,4.149l0.86-2.59l-1.08,0.44l0.44-3.32l0.45,1.21
	l0.68-0.43l-0.32-1.94l0.9-2.899l1.78-1.431l-0.17,4.07l1.04-1.479l1.26,0.31l0.21-0.82l-1.86,0.03l2.57-2.06L404.89,364.331z"/>
<path id="NZ-MWT" fill="#1E3250" stroke="#1E3250" stroke-width="0.5" d="M508.72,347.101L508.72,347.101l0.01,3.2l-2.28,0.28
	l-3.2,2.26l-8.39,12.37l0,0l0.22-1.57l-1.56-2.22l-3.13-1.58l-2.45-0.149l-0.21,2.06l-2.77-0.57l-3.09,3.23l-0.89-0.771l-4.08,1.37
	l-1.67-0.46l1-2.38l-0.94-1.32l-2.98,0.07l-0.26,1.521l-2.46,1.279l-5.84-3.02l-1.26,2.479l-2.65-0.92l-0.94,1.511l-3.18,0.699
	l-3-0.5l0.68-1.39l-2.76-1.26l0,0l3.24-11.66l0.31-8.91l-1.18-6.88l-6.49-10l-5.08-4.35l-4.63-1.141l0,0l-0.66-0.439l1.68-2.44
	l4.98-2.92l-0.07-3.02l2.58-1.021l-1.01-3.47l1.15-2.67l-1.52-3.25l-2.79-2.221l-0.79-2.159l0.97-1.48l-2.93-2.43l1.88-4.021
	l2.25-0.05l0.99-3.39l1.69-0.391l-0.58-0.87l1.74-1.77l2.13,0.27l-1.04-2.05l-3.31-0.09l-0.33-3.42l-1.15,0.72l-1.92-1.439
	l0.3-3.931l-0.83-0.77l-1.26,1.03l-1.01-1.521l-0.69-3l3.03-2.25l0,0l3.09-1.18l0.41-4.24l6.32-2.14l4.75,0.34l1.85-2.061l0.95,0.45
	l0.65-2.41l0.49,1.7l3.2-1.5l3.18,0.4l1.55,1.84l3.71-1.7l-4.55,9.601l2.43,3.119l-1.45,2.19l1.6,2.37l-0.83,3.58l4.73-0.21
	l-2.81,3.55l1.49,2.68l-3.68,8.55l9.76,1.351l2.4-1.771l-0.59-0.859l1.51-1.141l-0.33-0.96l3.09-1.22l0.3-1.479l8.16-0.5l0,0
	l1.11,4.47l3.39,1.109l0.41,2.011l-1.689,2.31l2.77,1.63l-1.24,2.95l0.801,3.521l-2.88,0.6l-2.57,2.95l-1.7,0.399l1.561,1.301
	l-0.65,1.909l1.57,1.301l-1.431,2.22l-2.3,10.03l0.54,1.72l-1.17,2.14l1.62,1.84l0.74-0.85l3.29,0.9l0.949,1.84l2.36,1l-0.53,1.609
	l2.61,2.311l0,0l-0.8,1.72l0,0l1.95,7.07l-1.511,1.18l0.771,1.09l2.02,1.431L508.72,347.101z"/>
<path id="NZ-NSN" fill="#1E3250" stroke="#1E3250" stroke-width="0.5" d="M380.05,387.961L380.05,387.961l0.77,1.311l-1.9,1.319
	l0.57,2.04l-3.02,1.74l-1.07-0.98l0,0l0.1-1.569l4.17-2.57L380.05,387.961z"/>
<path id="NZ-NTL" fill="#1E3250" stroke="#1E3250" stroke-width="0.5" d="M367.89,51.861l1.62,1.08l-1.71,0.56l0.01,3.83l-1.62,0.63
	l0.19-1.31l-1.87-0.14l-0.02,1.15l-1.85-0.03l0.79,0.66l1.94-0.05l-0.46,1.27l1.09,0.12l0.55,2.13l0.42-1.39l-1.24-1.82l1.26-0.23
	l1.93,6.8l5.38,6.09l-0.78,1l1.54,2.13l3.33,1.04l-1.61,2.12l0.14,2.8l0.97,0.15l1.52,0.29l-0.69-1.7l1.8-0.64l-1.92-4.36l3.98-1.24
	l0.97-0.16l1.45-0.44l0.83,1.22l-3.95,2.23l1.75,3.72l3.94,0.7l1.66-3.67l3.38,2.58l1.81-0.89l2.29,3.17l-1.68,1.75l0.59,1.08
	l1.01-0.03l0.03-1.72h1.13l-0.59-1.47l2.16-0.97l1.69,1.57l1.42-0.48l2.74,5.25l4.16-0.4l2.04,2.12l-2.3,1.82l-2.29-2.57l-0.99,0.77
	l1.27,1.56l-1.59,0.88l3.76,0.19l0.37,3.01l2.42,2.17l2.9,0.28l-1.12-1.17l-1.68-0.81l-1.1-2.1l3.54,2.04l0.16-1.46l1.58-1.66
	l1.19,0.43l0.41-1.92l1.58-0.72l-1.67,2.96l1.27,0.98l-1.08,0.83l2.13,2.99l1.25,1.25l-0.43,0.96l-1.54-2.08l-0.4,1.07l2.04,2.54
	l-0.4,1.1l2.71-0.37l-0.18,1.28l2.08,2.67l-0.95,0.37l0.69,1.75l2.45,1.14l-0.02,2.94l-0.89-0.5l-0.39,1.92l0.78,2.05l1.74,0.14
	l-0.79,3.36l1.7,3.2l-2.65-0.15l-1.82-3.78l-4.56,0.18l-0.37-1.3l-0.86,3.15l1.49-1.28l0.36,1.34l4.93,1.03l-1.15,1.49l-0.36,3.87
	l1.56,3.681l1.3,1.05l1.84-0.271l1.35,3.82l0,0l-1.42,2.36l-2,0.76l-0.12,1.34l-2.01,0.75l0,0l-0.39,1.41l0,0l-2.69,1.38l0,0
	l-0.95-0.58l-1.29,1.96l-2.73-1.479l1.42-2.07l0.53-0.32l2.15-1.529l-0.51-0.11l-1.99,1.13l0.07-1.04l-1.97-0.979l-1.17-0.591
	l0.64-2.399l-2.17,0.35l-0.03,1.82l0.33,0.96l0.99,0.84l1.29-0.54l1.24,2.14l-2.58,1.271l-4.15-4.5l-2.36,0.13l-2.9-2.49l4.35,6
	l2.31,1.49l0.94,2.83l-1.43,2.62l-3.83,0.27l-1.79-5.89l-3.66-6.44l-21.14-28.34l2.31-6.1l3.76-0.6l2.74-2.93l-1.73-0.51l-0.69,2.44
	l-4.29,0.54l-2.35,5.99l-11.75-15.62l0.37-1.42l2.66,0.6l1.34-1.9l-0.89-7.14l-11.5-16.99l-7.59-7.16l0.94-2.64l5.13,1.58l1.77-1.87
	l4.36,0.54L367.89,51.861z"/>
<path id="NZ-OTA" fill="#1E3250" stroke="#1E3250" stroke-width="0.5" d="M186.1,561.581l5.17-0.39l1.44-1.46l3.05-0.521l3.98-3.31
	l2.2,1.33l3.62-4.4l0.48-5.07l0.89-1.24l3.71-1.05l0.33-3.17l1.64-0.6l-0.2-0.84l5.03-2.13l0.68,1.569l3.79,0.13l2.32-2.659
	l0.88,2.399l1.61,0.92l3.24-3.31l4.76-1.46l0.39-4.05l4.34,0.479l0,0l0.58,3.99l-1.24,0.16l-1.63,4.229l-0.97,0.061l-0.41,1.97
	l-2.58,2.78l1.58,2.439l-0.4,7.76l0,0l-0.41,1.99l0,0l-0.66,0.55l1.33,1.021l2.8,0.16l-0.33,6.859l2.96,0.4l0.68-2.101l1.17,4.461
	l2.89,1.35l2.12-1.43l1.99,0.46l1.97,9.399l2.92,3.5l0.93,3.04l4.85-0.34l3.89-1.83l1.13,0.18l0.89,2.44l2.04-0.49l3.94-2.8
	l2.3-4.32l10.33,4.54l11.15,2.34l0,0l-2.36,4.341l-4.17,4.159l0.07,1.711l-2.34,1.739l-2.32,4.8l-1.48,4.601l0.23,1.64l1.57,1
	l-2.31,3.75l0.82,1.891l-2.99,3.3l-1.19,3.439l-2.17,1.16l-0.65,3.101l-3.24,2.92l-0.02,1.149l2.7-0.39l2.71,2.27l-3.11,0.98
	l-0.01,1.32l1.66,0.729l3.16-1.72l-0.14,2.37l-0.09,1.64l-2.3,0.98l-0.93,0.68l-2.19-0.42l-0.92,0.359l-3.53,0.45l-7.64,2.84
	l-3.77,5.24l-1.14,5.57l-10.86,9.01l-3.73,1.74l-0.62,2.899l0.8,2.7l-0.97,1.351l-0.89,0.79l-1.19,0.43l-0.98,1.66l-3.37,1.21
	l-1.08,2.1l-1.25-1.14l-2.89,0.09l-1.25,2.39l-2.68,0.311l-0.89,1.74l-2.83-0.971l-3.52,1.87l0,0l1.13-3.46l-0.96-1.59l1.28-0.2
	l1.11-2.09l-3.54-2.79l1.58-3.54l-2.59-1.87l2.24-2.49l0.59-7.27l-2.94-2.99l1.57-1.89l-1.13-1.78l0.79-0.939l-3.41-3.75l1.1-6.45
	l-1.56-1.92l-1.94,0.75l0.97-2.271l-1.34-4.85l1.23-4.57l2.97-3.979l1.6-7.2l2.82-2.021l-5.53-8.189l-2.27,1.8l-5.03,8.8l-1.39-1.66
	l-0.78,0.931l-2.02-0.49l-0.14-4.01l-3.36-1.54l-0.65-5.37l-5.11,3.8l-8.57,1.03l-0.8-5.63l-3.4-4.33l1.89-3.5l0.99-0.061l0.78-3.08
	l-0.47-0.75l-2.21,0.82l-4.42-4.86l0.47-1.41l-1.14-2.359l0.55-2.36l1.69-0.01l1.41-4.22l-1.54-1.891l2.75-7.46l-0.28-2.04
	l2.23-2.359L186.1,561.581z"/>
<path id="NZ-STL" fill="#1E3250" stroke="#1E3250" stroke-width="0.5" d="M167.42,682.951l4.21,2.11l1.14,4.05l3.29,2.27l-0.31,1.29
	l2.39,0.33l0.78,1.99l-0.93,0.95l-2.95-0.91l-0.75,1.35l-1.58-1.47l-1.5,0.75l0.47,1.27l1.37-0.33l0.36,1.521l4.18,0.4l-2.24,1.55
	l2.01,0.43l0.75-1.359l1.06-0.721l-0.15-0.979l1.08-1.07l-0.65,3.07l2.04,2.359l-2.51,2.58l0.18,1.03l-1.82,2.66l-1.92-1.141
	l-1.2,1.4l-3.67-0.06l-2,2.399l-3.03,1.25l-2.42-1.189l-1.41,0.62l-0.96-1.78l-1.15,0.92l0.26,1.54l-0.78,1.63l-0.43,2.41
	l-1.28,0.399l0.24-1.39l-3.04,2.47l-1.91-1.12l-1.47,0.431l0.55-3.58l4.22-2.851l-0.1-1l0.62-1.96l-1.15-1.35l2.4-2.82l3.5,0.19
	l-1.69-5.68l0.64-0.36l-0.09,1.47l1.82-0.25l1.55-2.58l-0.62-3.77l-1.97-2.99l0.69-4.59l2.68-1.58l1.78,0.96L167.42,682.951z
	 M115.62,630.111l1.01,0.66l-1.84,1.199l-1.46-0.39l0.21-1L115.62,630.111z M121.08,622.031l1.39,1.56l0.3,4.05l-1.46,2.73
	l-3.81,0.41l0.01-1.83l-1.81-0.67l1.57-0.7l-1.03-1.66l-4.29,4.311l3.76-6.83L121.08,622.031z M132.13,597.301l-0.55,2.931
	l2.09,5.18l-1.06,0.31l-4.26-3.399L132.13,597.301z M176.29,549.521l2.22,0.649l3.38-1.6l4.28,1.399v2.131l2.82,2.29l-2.65,2.22
	l0.9,0.89l-1.13,4.09l0,0l-1.96,0.12l-2.23,2.36l0.28,2.04l-2.75,7.46l1.54,1.89l-1.41,4.22l-1.69,0.011l-0.55,2.359l1.14,2.36
	l-0.47,1.41l4.42,4.859l2.21-0.819l0.48,0.75l-0.78,3.08l-0.99,0.06l-1.89,3.5l3.4,4.33l0.8,5.63l8.57-1.03l5.11-3.8l0.65,5.37
	l3.36,1.54l0.14,4.01l2.02,0.49l0.78-0.92l1.39,1.66l5.03-8.8l2.27-1.801l5.53,8.19l-2.82,2.02l-1.6,7.2l-2.97,3.98l-1.23,4.569
	l1.34,4.851l-0.97,2.28l1.94-0.75l1.56,1.93l-1.1,6.45l3.41,3.75l-0.79,0.949l1.13,1.79l-1.57,1.891l2.94,2.99l-0.59,7.27l-2.24,2.5
	l2.59,1.87l-1.58,3.54l3.55,2.79l-1.11,2.09l-1.28,0.2l0.96,1.6l-1.12,3.46l0,0l-2.11-0.42l1.27-1.3l-1.57-1.1l-0.86,3.34
	l-1.46,0.479l-8.7-0.649l-0.56-2.91l-1.56-1.61l-3.03-0.7l-4.71,0.99l0.25-1l1.54,0.021l-1.7-0.891l-1.76,0.33l1.35,1.48l-2.54,1.24
	l-5.91-0.221l0.37-1.62l-1.06-2.18l-1.93,0.85l2.32,3.471l-1.2,0.75l-2.43-3.91l-1.47-0.2l-0.25-1.99l5.91-1.75l-1.11-0.76
	l-0.65-1.18l-1.86,0.529l0.94,1.9l-1.23,0.311l-2.75-5.721l-2.95-2.96l-2.96-0.25l-1.2,1.141l0.66,1.26l-4.88-1.55l-1.33,0.699
	l-2.04-0.06l-1.7,1.26l-1.89-1.42l-0.16-1.76v-2.11l-0.56-2l-3.88-3.77l-4.42-2.23l-3.86-0.149l-1.98,2.39l-0.38,3.25l-4.95,0.61
	l-13.38-2.96l-3.63,1.3l-0.57-1.04l-3.73-0.25l-2.44-3.01l4.13-2.45l0.45-2.311l-1.08-0.92l-2.01,1.57l-1.21-1.32l-1.8,1.811
	l2.07-5.931l5.85-1.029l-0.27-1.271l-4.58,0.181l-1.97,1.26l-4.85,2.35l-0.92-0.79l-0.88-5.25l0.91-4.939l15.16-2.931l3.65-2.04
	l-4.32-1.229l-3.61,1.28l0.91-3.33l7.25-2.04l1.22-1.44l-9.15,3.351l-0.18-3.86l5.52-2.43l0.46-0.05l3.38-2.9l-9.03,4.38l-2.65-0.23
	l3.11-9.659l2-0.341l-1.21-0.88l0.82-2.99l2.01-2.76l4.14,2.36l0.72,0.17l2.33,1.729l1.57,0.57l1.82,4.7l0.74-0.25l-1.98-4.62
	l-2.99-2.37l1.06-1.3l4.29-0.28l0.06-1.21l-5.24,0.78l-1.41-3.44l0.71-2.92l-0.78-1.46l1.55-1.91l3.52,4.45l0.1-0.439l-3.07-4.04
	l2.01-2.891l1.12,1.07l-0.63-2.46l1.71-1.25l0.02-0.98l7.41-7.729l1.98,3.62l-0.35,1.84l1.36,0.92l-0.82,2.04l1.18-1.33l1.16,0.58
	l-2.27-2.65l0.8-0.37l-1.9-5.779l3.59-2.75l1.64,0.18l0.2-1.29l1.41-1.26l1.16-0.66l0.2-1.78l1.91-1.439l0.72-0.931l4.11-2.069
	l0.49-1.3l1.27-0.471l1.67,1.83l-0.4-5.96l4.47-5.76l3.4-0.98l-0.94-2.399l3.83,0.149l0.98-2.13L176.29,549.521z"/>
<path id="NZ-TAS" fill="#1E3250" stroke="#1E3250" stroke-width="0.5" d="M391.03,379.471L391.03,379.471l-1.07,6.75l-3.48,1.71
	l-2.51,3.631l0.14,1.67l-5.18,4.08l0.39,1.56l-1.74,1.83l2.09,2.62l-5.11,0.27l-0.94,3.511l-3.37,1.869l0.02,2l-2.19,3.12
	l-3.16,1.19l0.81,1.7l-3.92,5.489l0.81,1.7l-3.37,3.86l0.35,1.02l-1.96,1.03l-0.69,3.44l0,0l-3.27,0.08l0.4,1.59l-1.28,1.069
	l-0.2,2.681l-5.07,3.39l0,0l-1.77,1.84l-2.84-1.239l-0.95-6.91l-3.28,0.08l-1.86-2.78l-2.6,0.11l-1.44-2.65l0.83-1.76l-1.69-0.53
	l-1.32-2.98l1.25-1.619l-0.51-1.25l1.83-1.25l0.08-4.351l-0.88-0.819l0.79-2.301l3.96-2.02l1.3,0.95l-0.521-3.23l3.57-1.6l0.47-4.71
	l3.11-2.28l-0.09-3.08l1.71-0.92l1.98,0.97l2.99-1.96l0.51-4.18l-1.22-1.82l3.59-1.05l1.35-1.93l-2.46-0.221l-0.69-2.029l-5.21-5.48
	l0.31-1.55l-4.31-0.09l-2.16,2.24l-0.68-2.591l3.03-3.42l-3.28-1.029l-1.68-3.62l-1.16,0.729l0.48-3.29l-1.1-1.8l0,0l12.21-9.79
	l-0.76,2.36l4.67-2.32l-0.26-1.56l-2.99,1.529l3.44-3.72l6.38-0.37l7.75,1.79l0.77,0.68l-10.23-1.869l-2.98,3.619l-0.06,3.211
	l-0.93,0.43l3.15,5.89l4.79,3.62l2.5-2.27l1.04,1.25l0.21-1.75l1.78-0.36l0.97,3.74l1.34,0.08l-0.59,4.67l1.03,0.72l-1.87,2.88
	l-0.79,2.36l1.3,1.819l-1.17,2.46l3.14,3.301l0.89,2.109l-1.39,0.58l0.6,1.181l2.65,0.18l1.88,2.06l0,0l1.07,0.971l3.02-1.74
	l-0.56-2.03l1.89-1.33l-0.77-1.3l0,0l0.02-1.1l3.09-2.4l1.14,0.97l2.01-1l1.18-2.62l3.12-2.699L391.03,379.471z"/>
<path id="NZ-TKI" fill="#1E3250" stroke="#1E3250" stroke-width="0.5" d="M430.34,260.381l0.14,0.05l0,0l1.7,1.431l5.77-0.03
	l2.35,2.09l0,0l-3.03,2.25l0.69,3l1.01,1.521l1.26-1.03l0.83,0.77l-0.3,3.931l1.93,1.439l1.15-0.72l0.33,3.42l3.31,0.08l1.05,2.05
	l-2.13-0.27l-1.74,1.77l0.58,0.87l-1.69,0.39l-0.99,3.4l-2.25,0.05l-1.88,4.021l2.93,2.43l-0.97,1.479l0.8,2.171l2.79,2.21
	l1.52,3.26l-1.15,2.66l1.02,3.47l-2.58,1.02l0.07,3.021l-4.98,2.92l-1.68,2.44l0.66,0.439l0,0l-2.33,0.32l-6.21-2.58l-5.53-4.3
	l-3.11-4.221l-4.72-2.75l-5.46-0.819l-6.48-2.94l-4.67-5.43l-1.57-6.59l1.56-4.42l9.23-6.841l2.36-0.25l4.34-3.14l6.4,0.26
	l2.91-1.41l4.72-5.46L430.34,260.381z"/>
<path id="NZ-WKO" fill="#1E3250" stroke="#1E3250" stroke-width="0.5" d="M459.79,150.671l1.77,0.09l1.14,1.58l0.55,1.17l1.28-0.859
	l1.75,1.569l-0.81,2.54l2.59,1.29l0.16,2.16l-1.18-0.04l0.16,1.16l1.87-0.21l0.84,1.68l-0.71,1.79l6.74-3.069l1.55,1.26l0.16,1.1
	l-2.74,0.9l-0.26,1.55l-1.87,0.81l-1.01,2.98l0.71,0.66l1.2-2.46l1.7-0.601l2.25,1.551l1.84,7.22l0.77,3.109l0.02,6.421l-1.22-1.391
	l-0.12,1.22l3.16,8.91l0,0l-1.4,1.561l0.48,1.16l-2.13,1.56l1.52,1.84l-1.56,0.04l-0.98-1.51l-0.97,1.43l1.01,2.03l-0.99,0.9
	l4.6,10.779l-0.76,2.681l1.34,0.56l-0.02,1.88l1.4,1.601l-1.39,0.79l0.49,1.68l6.05,5.17l2.61,0.07l1.909,1.399l3.28,10.53
	l6.311,2.65l1.56,1.81l-1,6.58l-3.49-1.33l-1.25,2.91l-2.29-0.99l0.92-1.97l-0.72-1.061l-5,1.67l-1.521-3.18l-2.31,2.78l-1.06-0.13
	l-0.09,2.729l2.079-0.27l0.471,1.17l4.01,1.14l-1.84,3.95l3.28,3.85l-1.61,1.44l-4.021-1.13l-0.779,2.2l3.569,6.189l2.86-0.58
	l0.92,7.511l-1.91,1.02l0,0l-1.95,2.4l0,0l-8.16,0.5l-0.3,1.479l-3.09,1.221l0.33,0.96l-1.51,1.14l0.59,0.86l-2.4,1.77l-9.76-1.35
	l3.68-8.54l-1.49-2.69l2.81-3.54l-4.74,0.21l0.83-3.58l-1.6-2.37l1.45-2.189l-2.43-3.13l4.55-9.601l-3.71,1.7l-1.55-1.83
	l-3.18-0.399l-3.2,1.5l-0.49-1.7l-0.65,2.41l-0.95-0.45l-1.85,2.06l-4.75-0.35l-6.31,2.14l-0.42,4.23l-3.09,1.18l0,0l-2.35-2.09
	l-5.77,0.03l-1.7-1.431l0,0l0.69-15.91l3.14-3.949l-0.06-5.16l-1.4-4.37l2.21,0.52l1.59-1.819l-0.39,1.54l1.21,0.81l0.79,0.6
	l1.45-0.869l-1.36-0.04l0.37-1l3.41-1.62l-1.09-1.351l-1.58,0.681l-0.29-0.99l-2.24,1.99l0.61-3.08l1.08-0.66l0.91,0.85l1.58-3.13
	l-2.46-0.25l0.25,1.851l-1.47,0.72l-1.49-7.061l0.78-1.649l2.63-1.311l4.06,0.221l0.8-0.971l-2.63,0.15l-1.41-0.81l-1.01,1.229
	l-2.73-11.6l-2.62-6.17l0.04-3.11l1.49,0.57l2.6-3.08l0,0l1.61-0.96l0.09-1.36l2.61,0.64l0.18-2.72l2.34,0.2l0.74-1.33l-2.57-3.56
	l0.49-0.71l2.09,0.819l2.55-4.899l3.27,1.17l0.07-1.87l2.09,0.81l3.04-1.79l0,0l0.63,6.53l1.38,3.04l2.64,0.66l5.25-2.05l-1.55-9.54
	l-3.64-5.891l1.12-0.42l0.25-1.859l2.48-0.9l-2.91-3.46l0.23-5.08l-4.26-4.3l0.02-2.04L459.79,150.671z"/>
<path id="NZ-WGN" fill="#1E3250" stroke="#1E3250" stroke-width="0.5" d="M443.31,367.301l-0.43,1.641l-2.53,1.689l1.94-3.319
	L443.31,367.301z M450.64,361.321l2.76,1.26l-0.68,1.4l3.01,0.5l3.17-0.7l0.94-1.5l2.65,0.91l1.26-2.48l5.84,3.021l2.46-1.271
	l0.27-1.52l2.98-0.07l0.94,1.32l-1,2.38l1.67,0.46l4.08-1.37l0.89,0.77l3.09-3.229l2.77,0.58l0.21-2.061l2.45,0.141l3.13,1.59
	l1.561,2.22l-0.221,1.57l0,0l-1.55,6.26l-3.28,2.9l-2.87,8.39l-2.83,2.87l-1.3,3.44l-3.25,1.62l-2.71,4.39l-5.27,2.74l-9.51,8.239
	l-2.52-0.02l-3,2.17l-2.18-0.34l-1.58-4.24l0.89-4.85l-2.81-1.761l0.01-1.56l-4.01,0.27l-4.83,3.431l-1.98-1.521l-0.77-2.66
	l2.51-5.21l-0.97-1.39l-1.25-0.3l-2.67,2.16l0.57,2.489l1.38-1.05l-0.63,2.66l-0.77-0.94l-3.31,1.851l-2.26-1.09l-1.78-2.931
	l1.22-2.51l2.7-0.93l3.56-5.59l1.74-1.16l-0.1-2.03l3.63-2.53l1.73-6.029l2.97-2.921L450.64,361.321z"/>
<path id="NZ-WTC" fill="#1E3250" stroke="#1E3250" stroke-width="0.5" d="M336.93,364.871l1.1,1.8l-0.48,3.29l1.16-0.72l1.68,3.62
	l3.28,1.029l-3.02,3.421l0.69,2.59l2.16-2.24l4.31,0.09l-0.31,1.55l5.21,5.48l0.69,2.03l2.46,0.229l-1.35,1.93l-3.59,1.051
	l1.22,1.829l-0.5,4.181l-2.98,1.96l-1.98-0.97l-1.7,0.92l0.09,3.09l-3.11,2.28l-0.47,4.71l-3.57,1.6l0.52,3.23l-1.3-0.95l-3.96,2.02
	l-0.79,2.3l0.88,0.82l-0.08,4.351l-1.82,1.25l0.51,1.25l-1.25,1.619l1.33,2.98l1.69,0.53l-0.83,1.76l1.44,2.649l2.6-0.109l1.86,2.78
	l3.29-0.08l0.95,6.909l2.84,1.24l1.78-1.84l0,0l-1.24,5.14l-3.88,1.2l-2.38,2.96l-2.02,0.49l-2.13,4.34l-2.25,1.16l-0.73,2.93
	l-5.01,1.061l0.2,0.81l-2.14,0.83l-1.45,4.391l-4.94,2.21l0.06,2.63l-1.3,1.1l0.74,0.6l-1.41,1.44l-1.86-0.76l-5.84,1.38l-0.89-0.83
	l-1.88,0.73l-1.48,2.35l-1.59-0.86l-2.31,0.59l0.2,0.811l-3.03,2.05l-0.43,3.42l-4.36,1.08l-0.45,1.36l-1.01-0.5l-1.49,2.35
	l0.63,0.94l-2.68,3.1l-1.51,0.28l-0.79-1.181l-4.06,5.12l-4.8,0.95l0.52,1.29l-2.81,1.38l0.63,0.95l-1.75,2.45l-3.15-1.17l-5.03,4.6
	l-1.87,0.72l-0.95-1.42l-3.85,1.771l-3.38,3.99l-2.021,0.479l0.03,3.59l-2.24,1.17l0.04,2.091l-2.25,1.17l-0.08,2.43l-2.95,1.12
	l0.09,1.17l-1.39-0.07l-6.11,7.101l0,0l-4.34-0.48l-0.39,4.05l-4.76,1.46l-3.24,3.311l-1.6-0.92l-0.87-2.4l-2.32,2.66l-3.79-0.13
	l-0.68-1.57l-5.03,2.13l0.2,0.84l-1.64,0.601l-0.33,3.17l-3.71,1.05l-0.89,1.24l-0.48,5.069l-3.62,4.4l-2.2-1.33l-3.98,3.31
	l-3.05,0.521l-1.44,1.46l-5.17,0.39l0,0l1.13-4.09l-0.9-0.88l2.66-2.22l-2.82-2.29v-2.13l-4.28-1.391l-3.38,1.601l-2.22-0.65l0,0
	l-1.77-0.99l7.86-5.72l4.34-7.87l5.76-0.29l4.38-2.46l0.78,2.061l2.32,0.02l5.21-2.2l12.29-10.979l7.51-4.28l1.13-1.64l5.02-0.72
	l1.97-2.181l1.34,0.8l3.89-2.8l4.12-6.83l7.29-3.34l2.68-3.97l4.88-3.91l3.34-5.47l4.96,0.06l-0.07-1.09l-0.97,0.021l1.83-2.471
	l6.33-1.97l11.64-9.6l10.51-14.5l3.07-8.86l3.43-5.92l1.11-8.23l5.11-13.13l-0.27-5.659l10.17-1.601l6.16-5.939l4.23-8.42
	l3.12-3.091l1.64-11.33l-0.32-13.77L336.93,364.871z"/>
</svg>
