<?xml version="1.0" encoding="utf-8"?>
<!-- Generator: Adobe Illustrator 15.0.0, SVG Export Plug-In . SVG Version: 6.00 Build 0)  -->
<!DOCTYPE svg PUBLIC "-//W3C//DTD SVG 1.1//EN" "http://www.w3.org/Graphics/SVG/1.1/DTD/svg11.dtd">
<svg version="1.1" id="Layer_1" xmlns:amcharts="http://amcharts.com/ammap"
	 xmlns="http://www.w3.org/2000/svg" xmlns:xlink="http://www.w3.org/1999/xlink" x="0px" y="0px" width="733.579px"
	 height="568.082px" viewBox="0 0 733.579 568.082" enable-background="new 0 0 733.579 568.082" xml:space="preserve">
<defs>
	
	
		<amcharts:ammap  projection="mercator" bottomLatitude="29.377200" leftLongitude="60.517000" topLatitude="38.490877" rightLongitude="74.889862">
		</amcharts:ammap>
</defs>
<g>
	<path id="AF-PIA" fill="#1E3250" stroke="#1E3250" stroke-width="0.5" d="M456.99,266.63l-17.221-0.3L413.9,291.86l-11.5,0.01
		l-0.181,12.78l9.011-0.24l2.38,14.14l9.909-7.04l9.391,1.78l8.85-18.03l20.03-10.92l-7.54-11.67l3.12-5.5L456.99,266.63z"/>
	<path id="AF-WAR" fill="#1E3250" stroke="#1E3250" stroke-width="0.5" d="M406.78,232.71l-23.67-0.37l-4.48-10.14l-14.96,12.06
		l-32.76-2.3l-2.33,12.02l14.41,9.01l-5.66,8.15l30.22-3.53l4.41,14.21l15.13,15.29l12.37-5.57l12.48-32.75L406.78,232.71z"/>
	<path id="AF-SAM" fill="#1E3250" stroke="#1E3250" stroke-width="0.5" d="M374.09,115.07l-38.97,1.1l-2.47,21.91l-12.98,8.87
		l2.55,7.82l-10.44,12.89l5.23,9.29l-8.64,11.16l60.84-5.12l21.49-41.37l-15.73-18.79l1.57-6.43L374.09,115.07z"/>
	<path id="AF-PAR" fill="#1E3250" stroke="#1E3250" stroke-width="0.5" d="M426.23,187.09l-33.38,19.51l-19,3.22l4.78,12.38
		l4.48,10.14l23.67,0.37l5.83-16.13l15.35,3.73l7.23,14.23l7.569-3.42L440.9,215.7l-13.021-6.13l-0.689-8.77L426.23,187.09z"/>
	<path id="AF-LOG" fill="#1E3250" stroke="#1E3250" stroke-width="0.5" d="M437.02,259.95l-9.92-12.04l-15.159,0.88l-12.48,32.75
		l2.94,10.33l11.5-0.01l25.869-25.53l17.221,0.3l-7.88-12.03L437.02,259.95z"/>
	<path id="AF-LAG" fill="#1E3250" stroke="#1E3250" stroke-width="0.5" d="M489.83,210.74l-14.72,3.43l-14.5-17.77l-8.511,9.2
		l4.87,13.45l-4.13,26.1l26.271-4.46l12.72-18.48L489.83,210.74z"/>
	<path id="AF-PAN" fill="#1E3250" stroke="#1E3250" stroke-width="0.5" d="M475.23,159.76l-15.16,2.42l-10.29,16.05l-23.55,8.86
		l0.96,13.71l24.909,4.8l8.511-9.2l-2.45-7.14l15.02-18.74L475.23,159.76z"/>
	<path id="AF-KAP" fill="#1E3250" stroke="#1E3250" stroke-width="0.5" d="M452.1,205.6l-24.909-4.8l0.689,8.77l13.021,6.13
		l1.859,15.42l14.21-12.07L452.1,205.6z"/>
	<path id="AF-KAB" fill="#1E3250" stroke="#1E3250" stroke-width="0.5" d="M442.76,231.12l-7.569,3.42l-7.23-14.23l-15.35-3.73
		l-5.83,16.13l5.16,16.08l15.159-0.88l9.92,12.04l15.82-14.8l4.13-26.1L442.76,231.12z"/>
	<path id="AF-BGL" fill="#1E3250" stroke="#1E3250" stroke-width="0.5" d="M424.15,132.94l-24.16-14.31l-23.45-2.23l-1.57,6.43
		l15.73,18.79l-21.49,41.37l-3.54,23.58l8.18,3.25l19-3.22l33.38-19.51l23.55-8.86l10.29-16.05l-13.58-32.44l-16.33,7.25
		L424.15,132.94z"/>
	<path id="AF-TAK" fill="#1E3250" stroke="#1E3250" stroke-width="0.5" d="M462.16,56.8l-24.04-1.69l-9.71,28.21l-7.83,38.15
		l3.57,11.47l6.01,4.05l16.33-7.25l13.58,32.44l15.16-2.42l9.14-7.21l0.52-18.8l-21.06-10.76l-1.55-27.85l5.7-7.3L462.16,56.8z"/>
	<path id="AF-NAN" fill="#1E3250" stroke="#1E3250" stroke-width="0.5" d="M509.68,236.66l-11.72,1.43l-6.13-15.88l-12.72,18.48
		l-26.271,4.46l-15.82,14.8l12.091-5.35l7.88,12.03l0.38,0.54l29.92,5.68l25.46-6.04l3.87-17.03L509.68,236.66z"/>
	<path id="AF-KDZ" fill="#1E3250" stroke="#1E3250" stroke-width="0.5" d="M428.41,83.32L408,69.83l-41.88,25.12l7.97,20.12
		l2.45,1.33l23.45,2.23l24.16,14.31l-3.57-11.47L428.41,83.32z"/>
	<path id="AF-KNR" fill="#1E3250" stroke="#1E3250" stroke-width="0.5" d="M509.68,236.66l31.34-36.36l-1.739-17.49l-18.681,9.78
		l-4.72,11.67l-22.28-1.67l-3.77,8.15l2,11.47l6.13,15.88L509.68,236.66z"/>
	<path id="AF-NUR" fill="#1E3250" stroke="#1E3250" stroke-width="0.5" d="M539.28,182.81l-7.88-22.66l-12.67-11.21l-14.82,32.68
		l-8.601-3.15l-6.979,5.41l-3.1-13.16l-12.051-0.2l-15.02,18.74l2.45,7.14l14.5,17.77l14.72-3.43l3.77-8.15l22.28,1.67l4.72-11.67
		L539.28,182.81z"/>
	<path id="AF-BDS" fill="#1E3250" stroke="#1E3250" stroke-width="0.5" d="M509.22,0l-15,4.23l-23.91,28.35l5,16.62l-13.149,7.6
		l5.82,31.04l-5.7,7.3l1.55,27.85l21.06,10.76l-0.52,18.8l-9.14,7.21l-2.051,10.76l12.051,0.2l3.1,13.16l6.979-5.41l8.601,3.15
		l14.82-32.68l21.369-25.7l8.36,3.7l20.91-19.93l47.46-9.12l40.93,3.72l24.36-8.89l-8.311-11.28l5.881-4.76l19.649-0.32l-11.25-9.94
		l-16.729-2.01l-29.42,12.81l-5.431-2.729l7.58-10.17L621.9,62.09l-24.53,14.93l-6.45,11.65l-48.75,20.73L531.4,86.35l8.09-50.83
		l-16.48-1.73l4.851-20.03L509.22,0z"/>
	<path id="AF-PKA" fill="#1E3250" stroke="#1E3250" stroke-width="0.5" d="M432.91,313.29l-9.391-1.78l-9.909,7.04l-2.38-14.14
		l-9.011,0.24L376.24,340.6l-9.15,3.011l-6.63-5.58l-4.33,6.35l11.56,11.75l-0.28,23.22l2.28,19.4l2.95-3.81l16.44,5.739l-3.84-3.29
		l5.27-2.279l13.41,12.569l13-5.43l11.311-14.23l-3.49-29.569l9.37-11.08l2.529-20.57l-6.449-1.85L432.91,313.29z"/>
	<path id="AF-KHO" fill="#1E3250" stroke="#1E3250" stroke-width="0.5" d="M436.64,326.8l25.65-6.979l13.96-10.851l-8.56-23.14
		l-5.9-1.49l-20.03,10.92l-8.85,18.03l-2.72,11.66L436.64,326.8z"/>
	<path id="AF-GHA" fill="#1E3250" stroke="#1E3250" stroke-width="0.5" d="M399.46,281.54l-12.37,5.57l-15.13-15.29l-4.41-14.21
		l-30.22,3.53l-4.1,5.98l1.57,10.33l-25.95,16.32l-0.74,17.4l8.05,2.46l-4.33,11.97l5.12,6.07l4.08-7.89l9.64,6.729l6.36-3.58
		l-0.91,12.15l18.16,24.2l-7.19,7.26l20.32,8.81l0.28-23.22l-11.56-11.75l4.33-6.35l6.63,5.58l9.15-3.011l25.979-35.95l0.181-12.78
		L399.46,281.54z"/>
	<path id="AF-ZAB" fill="#1E3250" stroke="#1E3250" stroke-width="0.5" d="M367.41,379.35l-20.32-8.81l7.19-7.26l-18.16-24.2
		l0.91-12.15l-6.36,3.58l-9.64-6.729l-4.08,7.89l-17.39,14.41l-2.33-4.98l-9.07,5.19l-4.44,10.49l10.34-0.9l-10.39,17.4l0.2,15.7
		l-7.16,5.43l6.29,8.01l18.49-10.4l12.69,8.33l11.37-1.699l11.06,12.229l16.09,0.11l16.99-12.24L367.41,379.35z"/>
	<path id="AF-KAN" fill="#1E3250" stroke="#1E3250" stroke-width="0.5" d="M283.72,356.78l-29.59,2.979l-0.08-7.39l-5.7-0.37
		l-7.79,17.12l-9.79-2.7l-6.09,15.08l-7.94,0.95l-6.5,11.75l-15.17,128.04l26.05,1.67l56.25-16.48l7.03-6.79l-5.88-5.67l7.57-49.489
		l25.74-20.91l21.37,5.55l20.3-7.17l-10.12-10.13l9.32-1.83l-16.09-0.11l-11.06-12.229l-11.37,1.699l-12.69-8.33L283,402.42
		l-6.29-8.01l7.16-5.43l-0.2-15.7l10.39-17.4L283.72,356.78z"/>
	<path id="AF-DAY" fill="#1E3250" stroke="#1E3250" stroke-width="0.5" d="M291.51,246.43l-46.84,2.6l-0.06,21.8l-5.88,6.26
		l8.62,15.25l-17.37,14.07l6.27,15.689l34.04,1.79l12.87-14.18l24.95,1.46l0.74-17.4l25.95-16.32l-1.57-10.33l-34.08,3.64
		l-6.24-5.07L291.51,246.43z"/>
	<path id="AF-URU" fill="#1E3250" stroke="#1E3250" stroke-width="0.5" d="M308.11,311.17l-24.95-1.46l-12.87,14.18l-34.04-1.79
		l-7.95,11.36l2.47,32.96l9.79,2.7l7.79-17.12l5.7,0.37l0.08,7.39l29.59-2.979l4.44-10.49l9.07-5.19l2.33,4.98l17.39-14.41
		l-5.12-6.07l4.33-11.97L308.11,311.17z"/>
	<path id="AF-NIM" fill="#1E3250" stroke="#1E3250" stroke-width="0.5" d="M148.03,373.52l-18.08-3l-6.01,13.431l-14.08,5.04
		l-9.9-8.11l-27.18,2.9l-18.1,36.06l6.94,4.91l2.57,25.8L17.72,506.15l85.31,24.569l8-43.979l15.76-17.67l2.46-23.57l9.7-10.7
		L148.03,373.52z"/>
	<path id="AF-HEL" fill="#1E3250" stroke="#1E3250" stroke-width="0.5" d="M175.01,532.47l20.06-10.229l15.17-128.04l6.5-11.75
		l7.94-0.95l6.09-15.08l-2.47-32.96l7.95-11.36l-6.27-15.689l-23.96,7.85l-21.38,35.05l-13.12,2.87l0.01,7.29l-23.5,14.05
		l-9.08,61.28l-9.7,10.7l-2.46,23.57l-15.76,17.67l-8,43.979l46.87-4.43L175.01,532.47z"/>
	<path id="AF-FRA" fill="#1E3250" stroke="#1E3250" stroke-width="0.5" d="M206.02,314.26l-8.45-5.529l-7.36,10.569l-8.25-1.05
		l-13.13-20.78l-19.78,10.04l-19.93,1.431l-6.1,9.6l-24.55,5.57l-7.75,12.439l-14.74,3.431l-2.41-6.601l-6.78,4.66l-9.19-5.53
		l8.59-14.08l-4.29-6.72l4.48-11.9l-45-2.1L3.99,319.5l13.04,51.23l-0.41,43.09l38.06,6.02l18.1-36.06l27.18-2.9l9.9,8.11
		l14.08-5.04l6.01-13.431l18.08,3l23.5-14.05l-0.01-7.29l13.12-2.87L206.02,314.26z"/>
	<path id="AF-SAR" fill="#1E3250" stroke="#1E3250" stroke-width="0.5" d="M311.78,167.66l-19.5,2.52l6.15-11.94l-1.33-17.271
		l-6.84-3.65l10.62-19.16l-7.42-2.75l-49.32,15.46l0.79,21.24l7.67-1.35l6.38,9.82l-16.33,11.39l-1.39,23.35l9.26-0.93l19.14,12.28
		l3.31,16.47l12.55-7.67l-0.29-15.25l15.11-1.86l8.03-10.25l8.64-11.16L311.78,167.66z"/>
	<path id="AF-GHO" fill="#1E3250" stroke="#1E3250" stroke-width="0.5" d="M285.52,215.47l-12.55,7.67l-3.31-16.47l-19.14-12.28
		l-9.26,0.93l-35,2.43l13.06,11.11l1.21,12.67l-26.59,8.28l0.26,10.55l-13.77,1.33l-3.87,14.36l-30.32-2.52l-5.11,11.4l9.47,15.86
		l-5.13,8.35l-19.54,7.39l3.19,12.411l19.93-1.431l19.78-10.04l13.13,20.78l8.25,1.05l7.36-10.569l8.45,5.529l23.96-7.85
		l17.37-14.07l-8.62-15.25l5.88-6.26l0.06-21.8l46.84-2.6l12.07-5.77l1.8-8.34L285.52,215.47z"/>
	<path id="AF-JOW" fill="#1E3250" stroke="#1E3250" stroke-width="0.5" d="M280.05,68.52L256.3,55.15L243.03,75.7l-7.59,17.71
		l7.44,34.19l-11.62,2.39l-6.94,22.33l15.18,3.89l13.1-5.45l-7.67,1.35l-0.79-21.24l49.32-15.46l-5.33-9.17l7.29-3.021l-3.11-19.63
		L280.05,68.52z"/>
	<path id="AF-FYB" fill="#1E3250" stroke="#1E3250" stroke-width="0.5" d="M252.6,150.76l-13.1,5.45l-15.18-3.89l6.94-22.33
		l11.62-2.39l-7.44-34.19l7.59-17.71l-34.41,7.55L195,133.27l-21.39,11.2l-0.59,6.39l-6.73-1.98l4.67,31.7l20.05,5l0.03,10.76
		l15.22,1.41l35-2.43l1.39-23.35l16.33-11.39L252.6,150.76z"/>
	<path id="AF-BAL" fill="#1E3250" stroke="#1E3250" stroke-width="0.5" d="M366.12,94.95l-13.5-18.49l-11.81-3.2l-11.84,5.9
		l-12.29-12.15l-36.63,1.51l12.26,15.07l3.11,19.63l-7.29,3.021l5.33,9.17l7.42,2.75l-10.62,19.16l6.84,3.65l1.33,17.271
		l-6.15,11.94l19.5-2.52l10.44-12.89l-2.55-7.82l12.98-8.87l2.47-21.91l38.97-1.1L366.12,94.95z"/>
	<path id="AF-BAM" fill="#1E3250" stroke="#1E3250" stroke-width="0.5" d="M369.21,182.99l-60.84,5.12l-8.03,10.25l-15.11,1.86
		l0.29,15.25l19.86,16.85l-1.8,8.34l-12.07,5.77l1.4,19.26l6.24,5.07l34.08-3.64l4.1-5.98l5.66-8.15l-14.41-9.01l2.33-12.02
		l32.76,2.3l14.96-12.06l-4.78-12.38l-8.18-3.25L369.21,182.99z"/>
	<path id="AF-HER" fill="#1E3250" stroke="#1E3250" stroke-width="0.5" d="M113.73,190.95l-10.61,6.42l-8.38-3.63l-7.06,8.31
		l-13.53-17.73l-19.54,0.49l-16.26-11.2l-9.91,47.74l-17.74,17.6l9.25,11.61l-11.97,0.73l-7.32,9.83l0.92,29.26l19.8,7.33l45,2.1
		l-4.48,11.9l4.29,6.72l-8.59,14.08l9.19,5.53l6.78-4.66l2.41,6.601l14.74-3.431l7.75-12.439l24.55-5.57l6.1-9.6l-3.19-12.411
		l19.54-7.39l5.13-8.35l-9.47-15.86l5.11-11.4l30.32,2.52l3.87-14.36l13.77-1.33l-0.26-10.55l-33.52,9.55l-36.45-8.02l-18.4-13.37
		L113.73,190.95z"/>
	<path id="AF-BDG" fill="#1E3250" stroke="#1E3250" stroke-width="0.5" d="M206.26,197.75l-15.22-1.41l-0.03-10.76l-20.05-5
		l-4.67-31.7l-38.93,10.51l5.35,9.4l-6.68,4.45l0.17,11.19l-12.47,6.52l-8.16,27.02l18.4,13.37l36.45,8.02l33.52-9.55l26.59-8.28
		l-1.21-12.67L206.26,197.75z"/>
</g>
</svg>
