<?xml version="1.0" encoding="utf-8"?>
<!-- Generator: Adobe Illustrator 15.0.0, SVG Export Plug-In . SVG Version: 6.00 Build 0)  -->
<!DOCTYPE svg PUBLIC "-//W3C//DTD SVG 1.1//EN" "http://www.w3.org/Graphics/SVG/1.1/DTD/svg11.dtd">
<svg version="1.1" id="Layer_1" xmlns:amcharts="http://amcharts.com/ammap"
	 xmlns="http://www.w3.org/2000/svg" xmlns:xlink="http://www.w3.org/1999/xlink" x="0px" y="0px" width="481.592px"
	 height="623.578px" viewBox="0 0 481.592 623.578" enable-background="new 0 0 481.592 623.578" xml:space="preserve">
<defs>
	
	
		<amcharts:ammap  projection="mercator" bottomLatitude="20.740327" leftLongitude="88.010067" topLatitude="26.635149" rightLongitude="92.674283">
		</amcharts:ammap>
</defs>
<g>
	<path id="BD-A" fill="#1E3250" stroke="#1E3250" stroke-width="0.5" d="M240.76,468.87l-7.28,9.47l-1.97-9.45l0.94-3.84l5.6-7.18
		l4.79-2.74l0.31,6.18L240.76,468.87z M247.11,438.71l-2.84,7.89l3.18-2.149L247.11,438.71z M236.83,412.89l1.87,4.261l3.52,2.189
		l0.26-1.79l-2.4-0.92l1.67-0.229L236.83,412.89z M245.55,449.34l-3.1,0.391l-1.69,5.199l3.44-0.56l1.69-1.7L245.55,449.34z
		 M195.7,485.83l-2.42,2.229l-1.92-0.159l-2.74-2.19l0.02-4.27l0.68-2.131l3.59-2.069l2.1-7.63l6.24-7.061l2.83,0.84l2.57-1.399
		l2.22-7.01L207,451.3l-0.88-10.46l4.16-0.76l1.82-7.11l2.68-2.35l0.65-3.39l3.83-0.171l1.74-2.189l4.38,1.04l1.07,2.63l1.87-1.6
		l-1.38-3.7l3.34-2.601l-1.4-4.26l5.88-0.94l5.45,3.78l2.95,6.811l-1.12,2.029l-0.52-1.17l-0.03,4.17l3.95,4.98l-2.63,9.87
		l-15.83,20.39l-5.15-0.64l-4.07,3.3l-2.52,6.87l-1.94-1.19l-2.76,3.92l-4.85-3.399l-5.05,0.819l-1.82,2.82l1.04,2.311l-2.5,0.17
		L195.7,485.83z M238.78,369.6l-0.4-0.63l-1.87-1.12l-3.32,3.091l-7.18,2.68l7.521,2.71l3.47,7.03l4.67-2.15l-0.19-6.1L238.78,369.6
		z M191.72,476.28l-3.93-0.58l-2.61-5.17l3.81-1.63l0.65-7.79l3.67-3.21l-4.55-3.471l5.13-2.68l0.7-3.83l2.53-2.52l-1.51-6.101
		l7.31-8.43l0.03-2.74l3.87-5.5l-1.11-0.97l-1.26-0.16l1.29-5.56l-1.85-1.65l-0.75-3.2l3.05-1.21l6.59,0.09l1.2-2.66l3.12,0.171
		l1.36,2.149l4.74-6.5l0.13-2.31l1.6,0.75l2.13-0.48l0.7-3.28l2.07,0.521l3.89,5.14l-1.02,0.94l1.01-0.21l0.4,10.42l-5.86,1.6
		l1.13,4.4L226.5,423l0.94,3.25l-0.72,1.22l-1.19-1.97l-4.94-1.63l-1.25,2.41l-4.61,0.59l-0.34,2.71l-3.35,4.1l-0.83,5.5
		l-4.48,0.721l0.21,11.149l2.03,3.72l-2.34,6.561l-4.66,0.18l-6.4,6.431L191.72,476.28z M244.09,425.95l-2.29,4.479l4.87,5.57
		l-0.31-11.2L244.09,425.95z M243.83,485.15l3.39-0.46l4.97-8.091l-4.52,0.08L243.83,485.15z M241.79,471.09l-2.26,3.73l3.64,1.449
		l1.37-1.199l-0.82-1.62L241.79,471.09z M236.16,478.28l-2.05,2.939l0.7,3.811l5.35,0.689l2.88-8.779l-2.1-0.95l-1.61,1.74
		L236.16,478.28z M253.63,484.99l0.35,3.27l1.31-0.17l2.45-4.99l-1.61-1.76L253.63,484.99z M260.78,483.13l-1.53,3.01l3.8-1.84
		l-0.82-1.31L260.78,483.13z M245.76,418.52l-3.15,1.711l2.6,4.149l2,0.39l-0.65-4.119l1.2-1.29L245.76,418.52z M258.67,419.14
		l8.99,11.16l-2.46,6.76l-1.59,21.761l-3.49,6.79l-8.43,7.81l-3.79,1.12l-2.27,0.2l-3.23-5.25l2.16-6.7l0.42-7.52l4.9-9.061
		l-0.86-26.149l-1.46-2.2l-4.91-1.21l-2.57-3.17l-3.63-1.82l3.91-3.45l-0.78-4.84l-2.38-0.55l0.13-3.69l-1.27-1.29l-0.03,4.21
		l-1.04,0.55l-5.85-10.02l-2.74,1.86l0.99,2.5l-1.78,1.949l1.07,1.391l-1.65,1.01l-2.08-1.88l-0.34,3.54l-4.19,5.95l-1.12-1.63
		l-3.41-0.391l-1.27,2.83l-6.43-0.22l-3.36,1.319l0.73,3.79l1.85,1.431l-2.16,5.88l2.81,0.87l-3.46,5.04l-0.08,2.77l-7.76,8.76
		l1.35,3.83l-3.25,8.84l-4.74,1.87l0.34,2.54l3.65,1.37l-4.24,3.49l0.7,4.58l-4.78,5.27l1.6,6.601l-2.81,2.04l-2.04-1.141
		l-3.44-11.67l1.01-6.68l-4-14.42l5.01-11.57l5.15-4.38l1.16-5.4l-1.9,0.141l0.39,3.81l-7.34,6.38l-2.23-2.31l0.89-2.79l0,0
		l0.09,1.23l6.04-3.471l-1.07-1.17l-4.21-0.21l0.06-2.88l6.86,1.12l-0.04-1.33l-4.05-0.26l2.89-3.67l1.05-4.221l-4.28-1.54
		l0.83-3.939l-3.23-1.76l0.83-1.721l1.36,1.521l2.17-1.57l-6.87-2.01l4.07-2.931l2.19,0.49l0.28-2.979l-1.89,0.13l-0.77-2.3
		l3.39-0.601l-0.48-1.569l-1.83-0.221l1.91-2.22l0,0l1.06-0.68l-0.91-3.771l2.34,1.101l5.04-1.551l1.63-6.279l2.26-0.521l0.14-3.46
		l3.49-3.57l2.67-0.149l0.78-4.49l2.61-1.91l2.81,1.12l2.17-1.46l1.83,2.34l-0.8,5.91l0.88,2.21l0.68-1.02l1.6,0.01l-0.18,1.49
		l1.63-1.561l4.69,0.351l-1.32-5.65l0.87-2.38l4.82-0.2l4.84,1.59l-0.96,1.771l-2.49,0.55l3.72,0.75l0,0l-2.4,0.92l10.06,5.771
		l2.08,4.38l-3.38,2.779l-1.59,3.57l1.59,3.43l1.33-1.739l-1.98-2.301l4.27-4.579l9.11,1.71l3.1,2.67l1.61,2.609l-1.07,0.96h-7.78
		l-4.24,1.8l-3.75-0.619l3.47,2.359l2.51-2.16l3.18-0.479l5.28,1.41l4.74,14.58l4.53,3.62L258.67,419.14z M213.8,475.65l0.82,3.119
		l-4,11.271l-3.45,2.94l-5.38,1.069l-7.25-3.67l-0.02-2.2l2.94-3.93l0.48-2.25l2.44-0.31l-0.56-3.061l1.88-2.189l3.94-0.19
		l5.25,3.06l1.63-2.06L213.8,475.65z M223.75,472.95l-3.88,2.91l-4.77,9.989l1.4,3.58l3.35-0.5l1.66-1.81l-1.81-4.67l4.19-7.681
		L223.75,472.95z M226.19,466.73l-4-0.351l-1.66,1.57l-2.25,4.08l0.02,2.939l4.94-5.739L226.19,466.73z M228.36,485.24l1.28-2.351
		l-3.51,1.471l-0.48,1.55L228.36,485.24z M226.73,490.74l2.69-0.561l-0.23-2.199l-2.24,1.479L226.73,490.74z M229.96,468.59l-5.8,4
		l0.38,2.37l-3.94,7.28l0.49,3.14l1.66,1.22l9.65-7.54l-1.16-8.02L229.96,468.59z M233.9,488.42l-2.43,1.38l-0.08,3.061l4.31-1.761
		l-1.14-1.06L233.9,488.42z M235.66,485.48l-1.88,2.1l3.94,1l-0.4-1.98L235.66,485.48z"/>
	<path id="BD-B" fill="#1E3250" stroke="#1E3250" stroke-width="0.5" d="M274.21,440.64l-0.62-2.27l-2.08,5.149l0.66,0.9
		L274.21,440.64z M278.81,433.53l-1.17-1.82l-1.9,1.09l-0.05,2.57l2.21,1.2L278.81,433.53z M278.5,438.71l-1.38,0.42l-0.03,6.271
		l-7.52,19.229l2.4,2.32l7.42-14.141l0.83-7.6L278.5,438.71z M284.1,436.53l-2.29,2.02l1.33,1.76l2.16-1.85L284.1,436.53z
		 M282.82,442.29l-1.17,1.09l0.78,2.851l0.96-2.431L282.82,442.29z M280.35,436.56l1.25,1.011l1.64-1.681l1.3-6.33l-2.6-1.729
		l-2.6,0.479L280.35,436.56z M281.5,443.08l1.28-1.29l-1.43-1.54l-0.52,1.12L281.5,443.08z M250.63,376.33l-1.85,0.479l5.57,8.881
		l0.76-1.54l-1.61-4.061L250.63,376.33z M243.26,352.24L243.26,352.24l-0.14,0.17l0,0l0.14-0.15V352.24z M279.33,465.38l-1.64,3.55
		l1.35,2.99l3.62-3.15l-0.49-3.039L279.33,465.38z M272.49,424.18l2.71,0.42l3.64-1.369l-2.73-3.98l-3.33-2.83l-6.3-1.71l-1.38,2.05
		l6.56,6.78L272.49,424.18z M313.72,402.82l-3.38-1.771l-2.52,1.54l1.15,4.8l2.47,3.08l5.15,2.521l1.27-5.44l-2.5-2.05
		L313.72,402.82z M305.17,411.83l-0.94,1.26l0.72,2.99l1.82-4.99L305.17,411.83z M304.97,422.98l1.02,1.119l3.72-6.14l-2.76,0.51
		L304.97,422.98z M322.21,411.99l-3.28,1.88l-0.75,2.189l3.33,12.21l3.41,5.881l2.79,1.229l5.52-1.76l0.76-1.82l-4.14-10.729
		L322.21,411.99z M362,481.73l-2.68,2.189l-0.51,16.17l5.23-12.359l-0.43-3.75L362,481.73z M431.86,524.61l-1.7-20.351l2.38-18.6
		l-2.03-17.391l-3.24-7.189l1.61-1.061l2.09,1.851l0.37-5.19l-4.52-22.04l-1.2-12.97l-2-4.22l0.78-4.21l-1.2-7.271l-4.28-8.72
		l-3.16-13.26l-1.37,0.67l-3.409-4.521l-1.98-0.33l1.71-12.479l-2.61-4.84l-0.439-13.34l4.45-0.87l-3.351-7.79l0.71-4.01l-1.93-1.91
		l0.18-2.82l-1.08-2.56l-0.88,0.31l-1.62-5.99l-0.51-6.55l-2.28-4.2l0.62-2.979l-1.75-0.49l1.261-6.53l-2.41-3.45l-1.631,0.16
		l-1.279,5.72l-1.68,1.19l-0.24-3.73l-2.92-1.56l-1.38-3.25l-6.18,6.72l-1.43-0.07l-0.34,2.371l-1.53,0.939l-4.45-1.35l-3.7-7.3
		l-2.02,0.21l-1.86,4.67l0.81,9.71l1.21,0.77l-0.4,5.96l1.45,3.84l-3.12,1.351v3.2l-3.59-0.391l-5.26,4.19l-7.16,13.85l1.99,3.49
		l3.05,15.3l-4.16,0.99l-2.74,5.92l-2.39,2.1l-2.55-1.35l-0.92,1.49l-2.95,0.13l-4.89,3.1l0.67-1.75l-2.68,1.021l-3.23-3.19
		l0.5-3.95l-1.47-0.09l-0.3-5.3l-1.85-1.87l0.75-0.88l-1.37-1.31l0.64-0.95l-2.78-7.67l-2.56-0.32l1.52-1.03l-2.17-1.81l0.75-1.141
		l-3.9,0.04l-2.09,3.131l-0.41,7.18l2.86,9.45l-1.85,0.75l-2.31-1.24l-4.44-9.48l-0.73-12.609l-1.51-0.86l1.42-1.18l-2.28-1.91
		l2.66-4.19h-2.41l-1.25-1.59l-3.07-11.35l-4.39-2.851l1.04-3.109l-1.74,0.04l-1.63-4.65l-1.45-0.51l-0.5-7.31l3.52,2.4l1.05-4.13
		l-4.85-0.37l0.2-4.91l3.29-1.41l2.73,1.34l0.7-5.79l2.39-4.34l-2.35-4.44l1.59-3.07l-1.33-1.56l3.85,0.24l-0.41-3.81l1.11-1.99
		l0.54,1.54l0.95-0.48l0.63-2.64l0,0l-0.78-2.03l1.01,0.12l0.49-2.41l-0.94-1.99l-1.48-0.18l0.33-3.59l-2.13-0.42l2.13-2l-2.76-2.51
		l1.67-3.79l3.33-0.76l-0.16-1.59l-3.52,0.28l0.76-1.76l1.12,0.58l0.19-1.2l2.54-0.7l-0.02-3.04l-2.32-0.18l-1.13,3.88l-1.09,0.21
		l-7.35-1.4l-1.98-2.57l0,0l-3.39,2.45l-5.44,0.12l-0.4,2.07l1.24,1.43l-5.06-0.31l-5.08,4.83l6.69,7.05l-6.66,5.75l-1.53,2.86
		l0.4,4.1l-2.38,1.95l0.22,2.56l-2.42,1.98l-0.75,3.27l-2.01,1.68l-3.12-2l-9.35,1.82l0.5,6l-4.06,5.78l1.96,4.56l-0.83,2.85
		l-2.02,0.53l-2.98-1.74l-3.32,0.62l-1.53,5.51l2.59,0.461l1.07,2.46l-2.1,1.67l3.66,1.649l2.45,5.46l-2.48,1.57l-3.79-1.47
		l-4.83,1.64l-5.05,10.41l1.16,3.36l2.65,1.859l-0.52,3.17l3.68,8.431l0,0l2.26-0.23l1.46,9.85L246.33,364l0.29,9.7l1.9,2.87
		l2.45-1.12l6.87,11.18l1.93,4.04l-0.47,5.03l3.88,7.58l2.55,3.42l4.17,1.09l1.02,1.88l9.18,6.06l7.01,8.12l3.67-4.06l3.72-0.14
		l1.27,2.159l9.06-4.79l-1.85-4.51l3.54-2.689l-0.75-1.91l-1.82-2.33l-0.94-0.28l-0.91-2.08l-2.11-0.109l-2.06-2.641l6.4,3.561
		l3.83-4.601l8.19-1.18l0.23-1.15l-2.57-0.819l1.87-1.29l3.52,3.729l1.2-2.55l-2.08-3.28l1.74-3.43l-0.94,2.979l2.84,2.811
		l1.61,6.31l7.83,4.91l14.94,18.561l2.97,7.649l2.32,14.05l3.12,4.641l1.53-0.36l1.59,9.5l1.09,2.01l1.8,0.11l1.46,9.38l-0.81,1.9
		l4.04,11.34l-0.24,7.24l-5.15,14.16l2.09,2.97l0.94-0.86l0.67,0.891l-2.04,6.33l0.75,1.1l1.75-0.561l-2.52,1.67l1.26,1.511
		l-2.33,0.14l-0.89,1.54l5.15,5.44l-0.13-2.91l6.6-0.59l1.88-13.69l1.22,4.51l-1.4,2.341l0.6,5.93l-1.13,3.149l-3.52,2.21l0.04,1.23
		l6.22,8.45l2.86,6.92l0.16,11.99l12.65,15.89l4.06,10.99l8.01,14.91l2.16,1.909l0.62-1.58l-2.16-8.439l-5.44-10.82l-0.99-8.43
		l1.2-2.83l-3.46-4.13l-0.02-3.13l-1.92-0.74l-1.62-3.32l3.68-5.399l-2.8-9.25l5.37-3.5l1.319-6.511l4.7,0.561l4.36-5.48l2.07,0.19
		l3.13,4.28l1.13,6.479l6.16,1.85l1.1-1.77l4.521-0.08l3.38,11.89l1.7,0.19l5.569-4.91l-2.39-6.68L431.86,524.61z M285.04,471.64
		l3.07-2.649l-0.44-1.45l-2.13,0.729L285.04,471.64z M294.2,420.79l-3.19-0.6l-2.19,2.14l-1.08,5.41l5.93-4.96L294.2,420.79z
		 M292.35,433.7l-5.65-2.601l-0.18,18.101l-5.08,13.47l4.11,3.63l7.31-5.33l2.92-3.91l2.53-7.409l-0.23-4.28l-2.32-3.83
		L292.35,433.7z M291.46,427.01l2.32,0.061l4.63-3.5l-1.74-1.061l-2.47,1.09L291.46,427.01z"/>
	<path id="BD-C" fill="#1E3250" stroke="#1E3250" stroke-width="0.5" d="M266.39,153.19l-6.38-2.9l-4.32,3.04l-1.81-1.25l-1.45,1.16
		l-2.94-1.17l-0.75-1.95l-1.52,1.26l-12.38-0.18l-6.03,3.15l-6.82-2.03l-3.56-3.01l-21.21-3.44l-5.19-3.71l-6.92-2l-1.38-2.13
		l-1.67,0.76l-3.95-1.34l-2.79,2.23l-4.42-0.89l1.23-1.5l-2.34-4.69l0.7-5.96l0,0l-5.36-1.65l1.04,4.18l-5.44,3.42l2.97,7.28
		l-0.04,4.3l-1.17,1.3l-3.83,0.37l-4.61,8.98l0.1,3.37l0,0l-0.48,3.11l0,0l0.98,2.76l0,0l-0.71,0.98l1.08,5.15l0,0l2.18,8.48
		l-2.26,1.84l2.09,5.53l5.85,3.81l0,0l-2.33,1.31l0,0l1.13,1.77l0.88-0.99l1.48,1.21l0,0l1.48-0.91l1.39,3.28l0,0l-1.12,1.94
		l2.13,4.77l-1.18,0.79l0.04,4.1l-1.94,0.89l1.37,5.08l-1.26,2.32l0,0l-2.3,1.18l0.05,1.52l0,0l-1.18,0.3l1.56,0.98l-0.46,3.13
		l0.91,0.2l-3.14,3.28l1.96,4.35l0,0l1.31-0.01l0.62,3.19l0,0l-1.62,2.72l3.43,6.59l-0.51,4.78l1.43,6.54l-1.66,0.88l3.84,2.69
		l-0.31,2.89l0,0l-0.26,5.16l0,0l-10.22,6.49l-0.8,6.52l1.3,0.9l-0.4,5.28l0.83-1.18l2.74,4.94l-3.19,2.33l-12.35,1.2l-4.91-1.14
		l-14.28-9.72l0,0l-3.41,12.67l-1.64,0.98l0.28,2.64l-1.83,1.42l5.19,6.68l2.31,0.56l3.09-1.56l3.01,4.04l4.34,1.21l-1.61,2.979
		l2.81,2.011l0.71,3.02l2.58,1.2l-3.11,1.21l-1.29,2.44l3.85-0.891l7,4.271l1.18,8.149l-2.35-0.08l0.64,4.71l3.88,6.86l-1.96,3.83
		l5.7-0.46l-0.35,6.08l1.44,1.899l3.76-2.42l2.86,0.601l-3.71,1.38l1.43,3.95l-3.87,1.55l-1.52-2.67l-0.69,2.27l4.66,3.391l0.99,1.8
		l-0.82,1.87l2.01,0.87l0.85,3.59l3.26,1.399l-0.33,1.561l2.49,0.59l-1.07,2.7l2.8,0.67l3.2,3.34l-1.51,0.31l0.01,1.46l-3.15,0.69
		l1.07,1.78l1.75,1.37l7.25-0.28l1.07,2.729l0,0l1.06-0.68l-0.91-3.77l2.34,1.1l5.04-1.55l1.63-6.28l2.26-0.52l0.14-3.46l3.49-3.57
		l2.67-0.15l0.78-4.489l2.61-1.91l2.81,1.12l2.17-1.46l1.83,2.34l-0.8,5.91l0.88,2.21l0.68-1.021l1.6,0.01l-0.18,1.49l1.63-1.56
		l4.69,0.35l-1.32-5.649l0.87-2.381l4.82-0.199l4.84,1.59l-0.96,1.77l-2.49,0.55l3.72,0.75l0,0l5.39-1.659l4.13-6.98l2.52-1.15
		l1.14,1.471l3.52-11.41l0,0l0.14-0.17l0,0l0.66-1.16l0,0l-3.68-8.43l0.52-3.17l-2.65-1.86l-1.16-3.36l5.05-10.41l4.83-1.64
		l3.79,1.47l2.48-1.569l-2.45-5.46l-3.66-1.65l2.1-1.67l-1.07-2.46l-2.59-0.46l1.53-5.51l3.32-0.62l2.98,1.74l2.02-0.529l0.83-2.85
		l-1.96-4.56l4.06-5.78l-0.5-6l9.35-1.82l3.13,2l2.01-1.68l0.75-3.27l2.42-1.97l-0.22-2.56l2.38-1.95l-0.4-4.1l1.53-2.86l6.66-5.75
		l-6.69-7.05l5.08-4.83l5.06,0.31l-1.24-1.43l0.4-2.07l5.44-0.11l3.39-2.45l0,0l1.89-2.66l-3.52,0.68l1.22-3.73l5.9,0.28l-1.97-4.59
		l3.8-2.07l-1.62-2.77l-1.8-0.43l-0.17-1.35l2.36-0.77l-1.34-4.78l-1.42-0.08l0.81,1.34l-1.63-0.62l-1.64,2.25l0.86-2.04l-4.15-0.22
		l2-2.43l0.77,1.43l0.68-0.63l4.38-7.56l-3.36-1.78l0.34-2.15l-2.15-0.86l-0.24-1.48l1.78,0.9l0.89-0.84l0.19-1.69l2.23-0.91
		l-1.02-1.5l1.79-0.31l0.06-1.57l-1.85-0.81l0.38-2.6l-1.54,1.55l-2.46-1.57l-3.67,0.1l1.69-2.5l-2.04-1.42l2.3-0.33l1.18-1.86
		l-1.39-0.84l1.24-4.14l-1.54-0.91l-2.05,3.25l1.25,1.51l-1.49,0.22l-1.51-2.36l1.42-2.64l-4.66-6.31l-3.46-0.54L283.3,182
		l-2.65-0.89l-1.08-2.19l-3.36-0.08l-0.74-2.5l2.32-2.12l-2.62-1.82l0.34-3l-1.25-1.68l2.88-1.85l-2.93-0.86l-0.2-3.38l4.07,0.26
		l-2.22-3.67l0.34-4.01l1.64-0.72l-0.52-1.45L266.39,153.19z"/>
	<path id="BD-D" fill="#1E3250" stroke="#1E3250" stroke-width="0.5" d="M133.17,422.27l-0.86,0.57l1.19,8.99l1.2,0.92l-1.38,5.43
		l5.65,9.32l-1.72,3.41l3.85,12.85l1.64,1.91l-2.32,6.771l2.14,2.319l4.79-13.24l-4.09-7.699l3.12-5.181l1.13,1.07l-0.36-3.55
		l4.11-6.99l-0.94-4.51l-2.71-5.07l-2.03-11.43l-6.42-8.8l-3.48-0.19l0.15,2.09l-5.29,4.69l2.21,2.689l-1.43,2.69L133.17,422.27z
		 M143.58,486.34l0.21-8.33l2.17,2.61L143.58,486.34z M112.2,497.06l-1.55-0.909l-0.88-3.261l1.4-1.409l4.92,1.039l1.4-1.67
		l2.18,7.94l-2.66-0.73l-3.83,1.08L112.2,497.06z M126.53,484.08l-7.89-15.89l1.66-2.7l-6.5-0.79l2.58,3.67l-3.21,4.899l3.02,2.57
		l-3.83,3.061l4.76,3.59l3.09,0.45l-1.55,3.71l1.5,3.35l-1.12,0.67l1.53,1.69l2.99-6.66L126.53,484.08z M106.36,498.98l-0.93,3.13
		l-2.59-0.03l-6-6.64l1.52-6.7l-2.54-4.23l0.16-2.35l2.23-0.03l0.16,3.271l2.24,3.02l0.13,6.14L106.36,498.98z M118.01,504.51
		l2.34,1.101l-1.53,1.84l-6.23,1.67l1.08-4.82l2.11,0.99L118.01,504.51z M106.44,478.31l2.26-3.8l-0.57-2.479l1.38,0.85l1.56,1.021
		l4.31,1.67l-3.61,2.35l0.57,2.521l2.53,1.27l1.87,1.58l2.7,0.26l-1.63,2.36l0.58,2.68l-2.4,3.38l-5.11-1.09l1.55-8.52l-4.73-0.66
		l-1.72-1.33L106.44,478.31z M123.66,460.97l1.92-0.56l-0.07,1.79l2.32,1.96l0.68-2.18l2.19-0.921l0.1-2.81l2.96-1.28l2.13,2.33
		l1.03-1.569l-1.35-8.4l-3.76,1.82l-0.59-2.57l-2.36-1.14l-1.04,1l-0.99-0.671l-1.37,0.721l0.92,0.58l-3.31,5.909l1.17,0.95
		L123.66,460.97z M140.2,465.26l-3.03-2.21l-0.22-3.069l1.84,0.699L140.2,465.26z M116.71,498.55l2.64,0.57l0.47,2.02l-0.78,2.53
		l-3.14,1.29l-2.19-1.22l-0.4-4.21L116.71,498.55z M135.56,467.8l3.37-2.67l1.77,1.271l-3.84,2.92L135.56,467.8z M160.19,485.75
		l2.02,4.6l-6.6,0.021l-1.25-4.84l3.3-5.771l-0.62-4.89l0.58-0.83l1.83,2.71l-0.09,1.48l0.78,3.21l-0.75,2.399L160.19,485.75z
		 M173.6,478l1.29,5.08l-1.01,2.7l-2.78,0.58l0.07,2.55l-6.55,1.6l0.42-1.59l-2.19-0.32l-3.04-5.01l1.47-1.49l-1.56-4l1.28-0.88
		l-2.91-4.06l0.61-2.53l-2.47-1.74l3-2.14l0.24-5.59l3.97-0.45l1.77,4.59l6.16,3.76l1.76,2.471L173.6,478z M179.48,388.91
		l-7.25,0.28l-1.75-1.37l-1.06-1.78l3.15-0.69l-0.01-1.449l1.51-0.311l-3.2-3.34l-2.8-0.67l1.07-2.7l-2.49-0.58l0.33-1.56l-3.26-1.4
		l-0.85-3.59l-2.01-0.87l0.82-1.87l-0.99-1.8l-4.66-3.38l0.69-2.271l1.52,2.671l3.87-1.551l-1.42-3.949l3.71-1.37l-2.86-0.601
		l-3.76,2.42l-1.44-1.89l0.35-6.08l-5.7,0.46l1.96-3.83l-3.88-6.859l-0.64-4.71l2.35,0.079l-1.18-8.149l-7-4.271l-3.84,0.9l1.3-2.44
		l3.11-1.21l-2.58-1.199l-0.71-3.021l-2.81-2.01l1.61-2.98l-4.34-1.21l-3.01-4.04l-3.09,1.56l-2.31-0.56l-5.19-6.68l1.83-1.42
		l-0.28-2.64l1.64-0.97l3.41-12.67l0,0l-3.76-2.7l-0.45-0.46l-1.07-1.8l-5.18-2.11l-1.45,1.01l-0.79,2.58l-1.96,1.28l-0.93-0.39
		l-1.35-3.99l-0.28-0.01l-1.94,2.09l-6.24-1.35l-0.26-1.19l-3.01-1.05l-4.27-12.89l-0.63-0.96l-5.17-0.55l-0.81-0.2l-2.43,0.41
		l0.08-1.13l-0.81,0.25l-0.32,0.22l0.19,1.13l-0.12,0.14l-3.04,1.22l-0.22-0.01l0.66-1.33l-0.16-0.17l-1.28,0.51l-0.41-0.07
		l-7.11-2.46l-2.94-3.01l0,0l-2.15-4.1l-0.08,1.26l-1.38-0.29l-1.66,3.49l1,4.81l-1.45,0.56l0.49,1.89l2.4-0.1l-0.3,3.07l1.43,0.65
		l-1.34,0.71l1.49,1.83l-1.12,4.09l2.96-1.39l1.15,2.39l-3.37,0.67l0.69,4.31l-1.01,2.33l-2.76,0.01l0.16,1.43l-4.23,3.14
		l-2.74,0.64l-1.07-1.4l-3.94,1.61l2.41,4.37l-1.41,0.47l-0.6,2.47l-1.97,0.39l1.83,1.91l-1.6,12.54l2.88,0.56l-1.08,3.641l6-0.74
		l-0.58,1.5l1.92,4.13l3.39,3.58l3,0.93l1.46,2.8l5.21-1.43l-0.71,5.44l-2.4-0.15l-0.74,2.42l0.46,5.81l-2.69,1.57l1.17,3.7
		l-1.79-0.71l-0.39,1.8l-1.23-0.97l-1.15,1.229l2.47,2.721l-0.31,1.72l4.48,1.34l2.67,2.42l1.63-0.1l0.36-3.49l3.27,2.68l5.69-0.55
		l0.53,2.2l3.06,0.59l2.61-1.979l1.41,0.979l-1.19,3.15l-1.91-0.87l-2.22,2.1l-1.6,4.37l-4.81,3.11l0.36,9.22l-2.5,0.19l1.99,1.3
		l-0.61,3.49l3.18,0.47l0.14,2.399l1.58,0.82l-0.43,4.17l2.18,0.96l1.26-0.96l2.02,3.53l-0.85,4.88L85.36,397l-0.11,2.811l3.73,4.72
		l-2.56,4.56l0.43,2.67l2.38,0.25l-1.98,2.561l0.06,2.939l1.99,1.25l1.66,6l1.85,1.96l-0.78,2.381l0.99,1.81l-2.57,2.13l2.12,2.14
		l-1.2,1.25l0.12,4.851l3.8,3.08l-2.47,0.03l-0.27,1.06l2.19,1.42l-0.32,1.54l1.75-0.33l0.82,3.13l2.96,3.351l-0.49,4.08l2.84-0.221
		l-5.05,5.95l0.68,3.15l2.82,0.979l-1.63,0.061l2.11,3.66l0.66,7.93l-0.57-0.76l-1.06,4.199l1.91,3.36l-0.06,5.92l5.12,1.94
		l1.39-0.94l3.09-10.85l-5.3-0.48l-1.34-3.25l2.99-4.53l-1.56-4.529l0.67-1.521l1.82-0.819l-1.84,2.409l4.89,3.601l3.77-5.53
		l-2.78-3.04l-1.14-4.08l0.34-1.93l3.22-1.44l-1.8-3.89l1.82-1.69l0.47-5.46l1.33-1.199l-1.35,5.96l5.39,0.39l-0.83-3.35l2.81,5.5
		l2.7-4.801l-1.53-0.609l1.22-1.08l3.13-0.65l2.63,1.12l1.38-2.12l-1.98-2.569l0.99-1.57l-1.98-1.45l0.44-1.15l-1.67-0.279
		l-0.03-2.32l-1.72,0.2l-0.68-4.67l1.17-3.891l-1.41,0.45l-0.91-1.26l-8.17,1.09l0.16-1.479l2.47-0.841l-1.6-1.239l5.5-2.771
		l0.05,1.38l2.22,1.021l-0.66,2.34l6.84-0.72l-1.09-4.46l1.43-2.83l-3.64-6.141l2.82-3.609l1.03,2.399l-1.02,2.931l4.18-3.45
		l-0.01-2.22l2.84-0.41l3.2,2.229l5.07,7.92l2.09,8.07l1.69-3.72l2.07-0.94l0.12-3.77l4.37-1.62l2.74,1.42l6.78,4.04l1.5,2.76
		l3.64,0.11l3.71,4.87l0,0l0.09,1.229l6.04-3.47l-1.07-1.17l-4.21-0.21l0.06-2.88l6.86,1.12l-0.04-1.33l-4.05-0.261l2.89-3.67
		l1.05-4.22l-4.28-1.54l0.83-3.94l-3.23-1.76l0.83-1.72l1.36,1.52l2.17-1.569l-6.87-2.011l4.07-2.93l2.19,0.49l0.28-2.98l-1.89,0.13
		l-0.77-2.3l3.39-0.6l-0.48-1.57l-1.83-0.22l1.91-2.22L179.48,388.91z M154.63,491.96l3.7,2.95l-0.16,2.09l-2.78,1.74l-5.58-1.03
		l0.46-3.72l-5.58-5.3l-0.71-2.171l3.79-7.05l3.24,0.15l2.27,3.39l-1.86,4.83L154.63,491.96z M171.05,425.32l-3.53-0.301l-7.93-6.72
		l-6.61,0.78l-0.07,3.24l-2.17,1.18l-2.33,4.24l2.64,5.2l0.55,8.64l-3.34,4.79l-0.34,4.979l-3.38,2.29l4.95,7.551l-5.45,16.739
		l1.86,1.96l1.41-1.029l4.04,0.359l2.95,4.61l1.84-1.93l0.88-3.381l-0.93-3.18l2.13-4.56l-2.52-1.92l3.07-2.37l0.34-5.4l-2-6.99
		l2.55,0.511l-1.48,1.06l1.4,4.96l4.19-0.39l1.55,4.43l2.7,1.72l3.89,1.301l2.94-3.311v-9.31l-3.85-4.86l5.02-12.61l-2.05-4.899
		l0.88-2.74L171.05,425.32z M131.37,443l0.92-3.8l5.24,7.54l-5.42,3.63l1.18-4.14L131.37,443z M120.98,452.53l1.04,2.6l-3.88,3.91
		l-0.63,3.58l-4.47,1.53l-0.93-2.761l1.83-0.67l-1.26-1.22l3.01-1.51l-1.77-3.891l1.88-1.77L120.98,452.53z M117.65,464.52
		l3.07-0.279l0.82,1l-1.77,2.689l5.49,8.99l-0.6-5.75l4.1-6.05l-3.43-2.36l-0.45-1.51l-1.81,0.5l0.72-5.79l-4,2.9l-1.11,3.52
		L117.65,464.52z M138.88,471.09l-1.42-1.91l3.51-2.68L138.88,471.09z M147.78,498.28l1.89,3.85l-3.64,0.61l-3.33-5.51l1.42,0.22
		l-1.72-5.61l0.98-2.82l5.94,4.98L147.78,498.28z M140.72,479.08l-0.71,4.16l-4.67-0.721l0.86-2.029l-3.95-3.44l1.61-2.08l-0.6-5.39
		l1.19-0.9l2.42,0.94L140.72,479.08z M125.58,490.87l-1.4,4.58l-1.3-6.33l4.1-3.37L125.58,490.87z M135.27,489.69l-3.01-0.671
		l3.12-0.529l1.53-4.601l-2.28-0.489l0.93-2.69l-3.74-3.49l1.47-2.17l-0.7-5.78l5.55-4.159l-2.5-3.101l0.39-2.319l-2.42-1.98
		l-2.37,0.9l-0.34,2.76l-2.29,0.979l0.7,3.69l-3.62,5.51l2.83,14.561l-3.23,7.43l2.54,7.43l2.19,1.16l1.94-0.72l3.29-3.72
		l1.93-2.771l-1.66-3.72L135.27,489.69z"/>
	<path id="BD-E" fill="#1E3250" stroke="#1E3250" stroke-width="0.5" d="M153.91,165.03l1.08,5.15l0,0l2.18,8.48l0,0l0,0l0,0
		l-2.26,1.84l0,0l0,0l0,0l2.09,5.53l5.85,3.81l0,0l-2.33,1.31l0,0l1.13,1.77l0,0l0,0l0,0l0.88-0.99l1.479,1.21l0,0l1.48-0.91
		l1.39,3.28l0,0l-1.12,1.94l0,0l0,0l0,0l2.13,4.77l-1.18,0.79l0.04,4.1l-1.94,0.89l0,0l0,0l0,0l1.37,5.08l0,0l0,0l0,0l-0.24,0.43
		l0,0l0,0l0,0l-1.02,1.88l0,0l-2.3,1.3l0.05,1.41l0,0l-1.18,0.3l1.56,0.98l0,0l0,0l0,0l-0.46,3.13l0,0l0,0l0,0l0.91,0.2l0,0l0,0l0,0
		l-3.14,3.28l0,0l0,0l0,0l1.96,4.35l0,0l1.31-0.01l0.62,3.19l0,0l-1.62,2.72l3.43,6.59l0,0l0,0l0,0l-0.51,4.78l0,0l0,0l0,0
		l1.43,6.54l0,0l0,0l0,0l-1.66,0.88l0,0l0,0l0,0l3.84,2.69l-0.31,2.89l0,0l-0.26,5.16l0,0l-10.22,6.49l-0.8,6.52l0,0l0,0l0,0
		l1.3,0.9l0,0l0,0l0,0l-0.4,5.28l0,0l0,0l0,0l0.83-1.18l2.74,4.94l0,0l0,0l0,0l-3.19,2.33l0,0l0,0l0,0l-11.84,1.15l0,0l0,0l0,0
		l-0.51,0.05l0,0l0,0l0,0l-4.91-1.14l0,0l0,0l0,0l-1.34-0.77l0,0l0,0l0,0l-12.94-8.95l0,0l0,0l0,0l-3.76-2.7l0,0l0,0l0,0l-0.45-0.46
		l0,0l0,0l0,0l-1.07-1.8l-5.18-2.11l0,0l0,0l0,0l-1.45,1.01l0,0l0,0l0,0l-0.79,2.58l-1.96,1.28l0,0l0,0l0,0l-0.93-0.39l0,0l0,0l0,0
		l-1.35-3.99l0,0l0,0l0,0l-0.28-0.01l0,0l0,0l0,0l-1.94,2.09l-6.24-1.35l0,0l0,0l0,0l-0.26-1.19l0,0l0,0l0,0l-3.01-1.05l-1.85-5.96
		l0,0l0,0l0,0l-0.3-0.44l0,0l0,0l0,0l-2.12-6.49l0,0l0,0l0,0l-0.63-0.96l0,0l0,0l0,0l-5.17-0.55l0,0l0,0l0,0l-0.81-0.2l0,0l0,0l0,0
		l-2.43,0.41l0.08-1.13l0,0l0,0l0,0l-0.92,0.28l0,0l0,0l0,0l-0.22,0.18l0,0l0,0l0,0l0.19,1.13l0,0l0,0l0,0l-0.12,0.14l0,0l0,0l0,0
		l-3.04,1.22l0,0l0,0l0,0l-0.22-0.01l0,0l0,0l0,0l0.66-1.33l0,0l0,0l0,0l-0.16-0.17l0,0l0,0l0,0l-1.28,0.51l0,0l0,0l0,0l-0.41-0.07
		l0,0l0,0l0,0l-7.11-2.46l-2.94-3.01l0,0l-2.15-4.07l0.44-5.94l-2.98-4.23l-7.12,0.29l-5.62-2.19l-1.38,3.17l-2.46-4.88l-7.53-3.36
		l-7.65,0.42l-3.16-1.05l-5.42-5.68l-7.05-2.24l-4.89-4.61L0,203.44l5.08-5.61l0.55-4.93l3.31-1.03l0.14-2.57l5.33-5.3l-0.87-3.13
		L15,180.5l-2.81-2.79l-0.08-1.93l8.27-2.39l7.15,9.15l4.09-2.24l-2.02-1.9l1.44-2.91l2.03-1.28l1.97,1.4l1.6-0.81l-0.38-2.41
		l1.86-0.5l-0.36-2.01l3.77-4.32l-1.62-1.5l1.53-2.99l-0.94-4.83l1.86-1.62l-1.57-5.59l5.05-1.58l3.47,1.12l-0.1,1.06l2.21-0.36
		l0.61,1.69l4.8-2.93l8.64-0.36l4.01,3.27l1.96-1.36l2.89,1.93l3.85-4.01l3,3.11l1.94-0.36l2.38,1.79l0.63-1.84l1.65,0.1l-1.17-3.51
		l2.25-0.15l-0.37-3.78l2.25-1.6l0,0l3.31,3.06h7.19l0.9,1.48l5.84,0.99l4.5-0.49l-0.9,5.43l1.35,2.96l3.15,1.98l1.35,3.46l2.7,0.99
		l5.39-1.48l5.39,5.43l1.8-1.48h2.7l8.09,4.44L153.91,165.03z"/>
	<path id="BD-F" fill="#1E3250" stroke="#1E3250" stroke-width="0.5" d="M153.91,165.03l-10.42,2.95l-8.09-4.44h-2.7l-1.8,1.48
		l-5.39-5.43l-5.39,1.48l-2.7-0.98l-1.35-3.46l-3.14-1.97l-1.35-2.97l0.9-5.43l-4.5,0.49l-5.84-0.99l-0.9-1.479h-7.19l-3.31-3.05
		l0,0l2.63-0.36l0.37-2.09l-6.93-1.6l-1.07,0.78l-1.79-3.3l-1.67,1.35l-4.22-4.12l0.13-3.05l-2.64-1.67l1.89-1.74l0.19-4.59
		l-0.67-1.64l-1.63-0.17l-0.39-3.37l-4.45-0.17l0.59,3l-2.45,0.65l-0.39-1.67l-2.6,0.53l-1.14,2.8l-4.6-0.73l-0.17-1.85l-2.2-0.04
		l-1.41-1.84l-2.94,0.79l-2.32-1.26l-0.98,1.14l-0.86-3.45l-0.98,0.72l-2.49-2.55l0.32-2.43l-5.03-1.62l0.97-6.57l-4.65-0.91
		l-0.06-1.36l-2.95-1.28l0.33-1.83l-4.92-2.33l-5.09-4.64l-0.17-2.92l-2.9,0.14l-2.85,2.21l-2.09-1.38l-3.23,2.59l-0.96-2.08
		l-2.28-0.29L8.81,84.01l1.01-2.76l-2.53-6.92l2.35-1.71l2.86-7.88l4.04-1.271l-1.31-0.91l1.22-3.72l-2.3-2.69l1.77-5.3l6.5-4.53
		l2.47,0.28l7.15-3.47l-0.07-6.4l3.53-3.34l2.5-0.24l-0.86-1.5l2.92-0.69l1.86-3.81l2.73,2.55l0.3-1.11l1.74-0.05l-0.28,1.29
		l1.78-1.24l-3.9-10.54l-5.72-0.42l-1.66-2.11l-3.45-0.17l-1.1,4.3l-2.02-3.42l4.05-11.97L37.69,0l2.12,9.13l1.39,1.14l1.12-1.18
		l2.24,0.61l0.73,2.84l2.89,0.83l0.18,2.54l3.22-0.75l-0.37,3.34l3.74,0.77l-0.17-2.33l2.39,0.08l0.36,3.71l4.31,2.95l1.58-0.38
		l-0.52,3.16l2.11,4.78l4.2-1.96l1.16,5.47l3.5-1.3l2.12,1.29L75.77,39l2.59,2.65l3.59-0.48l-1.59-4.01l1.89-1.47l4.36,0.34
		l3.33,4.86l7.99-0.22l1.31-1.21l-0.42-4.02l-2.98,0.88l-1.64-1.94l-1.1,1.14l-1.15-1.2l1.48-2.48l-1.52-2.45l-2.16-0.22l-0.43,2.25
		l-1.12-2.78l-2.99-1.1l0.56-3.28l-1.37-1.1l2.25-0.17l-0.14-2.36l1.65,0.75l1.21-3.54l2.41,1.34L92.35,22l3.07,0.72l1.14,1.91
		l5.75,0.46l-1.46,2.85l1.5,0.44l0.17,3.35l3.73,0.92l-1.31,3.36l-1.68-2.96l-0.39,3.6l3.61,4.88l0.79,2.78l-1.38,2.96l2.02,2.01
		l-0.2,1.92l3.53,2.11l3.04-0.07l3.94,3.22l-1,2.87l6.26,2.79l2.26,2.75l4.3,0.38l-0.12-1.38l3.04-2.64l0.84,3.84l3.73,1.23l6-0.9
		l1.06,0.57l-0.94,3.05l4.41-0.53L148,62.18l5.87-2.81l-1.88-4.5l-1.98,1.95l-1.39-1.32l0.44-1.25l1.64,0.67l1.32-1.29l-1.68-0.83
		l-0.64,1.07l-1.27-4.19l1.77,0.37l0.56-2.56l3.03,1.39l0.68-1.49l-2.74-0.75l2.17-0.39l-1.44-3.92l3.34,0.94l0.83-1.77l1.1,2.64
		l-1.64,0.93l2.7,3.08l-1.93,1.17l2.49,0.78l0.67-1.52l0.41,1.3l2.64-0.06l1.85,2.92l-1.08,1.91l2.62,0.39l-0.11,2.29l1.18-0.07
		l0.47,2.72l-1.42,0.34l0.17,1.53l2.15-0.24l1.22,3.41l-0.79,1.74l2.07,1.17l-0.02-3.05l3.36,3.56l-3.18,1.26l0.94,1.81l3.64,0.65
		l-7.1,12.76l2.72,5.05l-1.11,4.47l2.24,1.85l-0.26,2.04l3.17,6.86l-1.19,8.16l-1.52,0.75l-0.11,7.47l-2.51,5.06l0,0l-5.36-1.65l0,0
		l0,0l0,0l1.04,4.18l0,0l0,0l0,0l-5.44,3.42l2.96,7.28l-0.04,4.3l-1.17,1.3l0,0l0,0l0,0l-3.83,0.37l-4.6,8.98l0.15,3.1l0,0l0,0l0,0
		l-0.06,0.27l0,0l-0.48,3.11l0,0l0.98,2.75l0,0L153.91,165.03z"/>
	<path id="BD-G" fill="#1E3250" stroke="#1E3250" stroke-width="0.5" d="M307.06,149.11l5.13,2.38l7.26,0.22l2.45,2.16l2.37-0.11
		l0.27,1.68l7.94-1.59l2.01-2.42l3.48-0.32l-1.11,3.1l1.9,0.08l0.23,1.72l1.52,0.58l4.81-1.69l1.07-2.03l3.44,0.78l0.83-2.94
		l2.72,1.19l4.95-1.46l8.2-0.48l6.24,1.18l2.36-1.5l5.69,0.11l6.09,2.75l-0.02,1.74l4.5,2.43l4.2,0.24l-1.88,0.32l1.99,2l7.63,2.54
		l3.08-0.61l0.82,1.08l-0.881,1.61l8.03,2.17l-0.41,6.01l3-0.37l1.24,1.96l-2.03,0.38l1.551,1.13l1.93-1.23l1.45,5.14l-1.21,3.12
		l-3.99-0.33l-1.58,2.58l-2.16,0.08l-8.4-4.45l-1.989-2.61L400.35,179l-3.55-0.56l-0.109,6.25l3.329,2.19l1.29,3.97l-0.779,4.69
		l1.239,0.73l-4.439,8.15l-1.88,16.14l-5.39-3.52l-1.64,1l-0.32,2.45l1.91,7.1l-3.15,0.66l-1.45,3.8l-3.25,1.42l-10.77-1.55
		l-0.89,0.69l3.16,4.35l-0.27,1.85l-3.59-3.58l-3.44,2.1l2.01,6.97l-3,12.8l-2.02,0.53l-0.91-1.1l-0.62-2.68l-2.83-2.42l0.08-2.45
		l-2.53,1.31l-6.76-3.9l1.76,10.59l-2.86,0.1l-4.38-2.75l-1.63-6.23l-1.83,1.63l1.14,2.74l-1.32,1.28l-1.13,7.4l-3.17,0.42l-1.2,2.2
		l-3.96,0.08l-5.12-2.21l-10.54-1.2l-0.09,2.89l1.82,3.05l-2.08,4.43l0.36,3.16l-6.72-2.21l0,0l-0.78-2.03l1.01,0.12l0.49-2.41
		l-0.94-1.98l-1.47-0.19l0.32-3.58l-2.12-0.42l2.12-2l-2.75-2.51l1.67-3.79l3.33-0.76l-0.17-1.59l-3.52,0.28l0.76-1.76l1.12,0.58
		l0.2-1.21l2.54-0.69l-0.03-3.04l-2.31-0.18l-1.13,3.88l-1.09,0.21l-7.35-1.4l-1.99-2.57l0,0l0,0l0,0l1.89-2.66l-3.52,0.68
		l1.22-3.74l5.91,0.28l-1.97-4.59l3.8-2.07l-1.62-2.78l-1.8-0.42l-0.18-1.35l2.36-0.78l-1.34-4.78l-1.43-0.08l0.81,1.34l-1.63-0.63
		l-1.64,2.25l0.85-2.04l-4.15-0.22l2-2.43l0.76,1.43l0.68-0.62l4.38-7.56l-3.36-1.78l0.34-2.15l-2.16-0.86l-0.23-1.48l1.78,0.9
		l0.88-0.84l0.19-1.69l2.23-0.91l-1.01-1.5l1.78-0.31l0.06-1.57l-1.85-0.81l0.38-2.6l-1.53,1.55l-2.47-1.57l-3.67,0.1l1.69-2.51
		l-2.04-1.42l2.29-0.32l1.18-1.86l-1.39-0.84l1.23-4.15l-1.54-0.91l-2.04,3.26l1.25,1.5l-1.49,0.22l-1.51-2.35l1.42-2.64l-4.66-6.31
		l-3.47-0.54l-1.25,2.26l-2.64-0.9l-1.08-2.19l-3.37-0.08l-0.74-2.5l2.33-2.12l-2.62-1.83l0.33-3l-1.24-1.68l2.87-1.85l-2.93-0.86
		l-0.2-3.37l4.07,0.25l-2.22-3.67l0.34-4.01l1.64-0.72l-0.52-1.45l0,0l10.68-2.95l15.84,0.3l2.08-1L307.06,149.11z"/>
</g>
</svg>
