<?xml version="1.0" encoding="utf-8"?>
<!-- Generator: Adobe Illustrator 15.0.0, SVG Export Plug-In . SVG Version: 6.00 Build 0)  -->
<!DOCTYPE svg PUBLIC "-//W3C//DTD SVG 1.1//EN" "http://www.w3.org/Graphics/SVG/1.1/DTD/svg11.dtd">
<svg version="1.1" id="Layer_1" xmlns:amcharts="http://amcharts.com/ammap"
	 xmlns="http://www.w3.org/2000/svg" xmlns:xlink="http://www.w3.org/1999/xlink" x="0px" y="0px" width="844.353px"
	 height="483.048px" viewBox="0 173.298 844.353 483.048" enable-background="new 0 173.298 844.353 483.048" xml:space="preserve">
<defs>
	
	
		<amcharts:ammap  projection="mercator" bottomLatitude="26.697582" leftLongitude="88.750882" topLatitude="28.232795" rightLongitude="92.125782">
		</amcharts:ammap>
</defs>
<g>
	<path id="BT-11" fill="#1E3250" stroke="#1E3250" stroke-width="0.5" d="M113.47,335.86l4.57,7.409l7.09,1.69l-2.02,2.98l0.1,2.47
		l4.78-1.061l1.04-2.479l8.02,2.649l1.88-3.18l3.3-1.689l2.4,0.08l3.62,2.8l3.14-2.91l6.5-2.15l0.69,5.67l-1.62,4.061l1.2,2.689
		l-0.99,2.57l4.57,6l-7.03,6.46l2.4,2.05l3.91-2.17l9.77,10.91l2.84,1.09l-1.59,1.9l2.51,5.39l5.79,4.771l-3.32,2.739l0.48,9.021
		l-3.09,11.34l0.75,4.42l-1.15,5.65l1.56,2.26l3.18-0.35l4.3,2.21l0.86,4.75l-2.64,3.8l0.04,2.56l8.71,5.79l-0.25,7.26l0,0l0,0l0,0
		l-1.34,7.301l-2.83,3.33l-3.46,9.54l-0.43,3.149l1.49,4.47l-2.12,2.61l-11.04-1.62l-10.18-7.649l-5.86,3.17l-12.02,0.17l0,0
		l-2.29-5.84l-0.31-10.851l1.79-2.14l5.98-1.96l4.92-5.79l-4.7-4.94l-1.44-4.649l-6.39-6.511l-3.09-8.369l-5.81-5.98l-0.12-5.25
		l-7.73-4.19l-2.21-13.85l-2.02-2.28l-2.07-9.029l-5.03,1.43l-5.2-4.26l-6.53-0.271l-1.24-1.63l-3.59-0.85l-0.62-3.45l-5.02-2.94
		l0,0l1.92-1.609l-0.39-2.051l2.86-1.449l0.31-4.58l3.32-3.45l3.11,0.55l1.57-6.55l3.52-1.48l1.29-4.979l5.48-1.65l1.33-4.92
		l-1.57-3.729L113.47,335.86z"/>
	<path id="BT-12" fill="#1E3250" stroke="#1E3250" stroke-width="0.5" d="M189.77,455.31l3.02,0.921l3.05,4.109l0.66,7.19l3.25-0.78
		l9.2,3.15l-0.45,2.8l-7.48,3.319l-2.48,3.03l-0.48,4.92l-2.99,2.55l2.86,0.591l2.1,4.55l4.33,4.49l2.92,1.47l3.33-1.021l0,0
		l3.28,4.44l3.55,13.729l4.68-0.409l1.52,1.17l-1.4,9.34l2.29,0.689l6.21-2.29l5.89,0.761l4.56,7.93l2.76,16.31l4.7,1.03l0.39,1.311
		l-2.18,2.87l1.06,4.289l4.19,3.74l-0.67,2.74l-8.46-0.28l0.65,4.79l-1.62,1.62l0.47,2.97l-1.42,0.431l0.78,3.46l-2.41,2.279
		l0.27,4.61l-1.89-1.5l-0.78,4.05l-2.61-0.51l-4.7,8.34l0.32,6.721l3.48,1.649l0,0l-6.84,2.87l-5.17-3.39l-3.08,0.75l-4.01-1.641
		l-3.52,5.74l-5.54-1.43l-2.07,1.67l-1.45-3.51l1.49-2.681l4.6-2.399l2.12-5.36l-0.5-2.05l-2.21-1.51l-4.25,1.409l-0.85-2.05
		l-10.83-3.51L189,581.27l-3.1,1.381l-8.09-0.44l-10.27,2.58l-3.21-3.28l-0.77-5.33l-13.37-1.62l-0.94-4.489l-3.66-0.48l0,0
		l0.92-4.39l-1.12-2.2l-3.76,0.02l-5.41,2.53l-0.68-1.38l1.38-2.99l-1.83-1.79l0.84-2.76l-3.4-1.71l-2.15,0.57l-3.75-3.65
		l-3.06,1.58l-2.17-3.43l0.68-2.63l-1.31-4.141l4.07-1.35l7.22-6.99l4.84-9.97l-2.47-4.19l0.85-8.609l0,0l-1.26-5.61l7.55-4.73
		l-0.15-4.829l6.68-7.271l-4.26-4.24l-1.86-5.649l0,0l12.02-0.17l5.86-3.17l10.18,7.649l11.04,1.62l2.12-2.61l-1.49-4.47l0.43-3.149
		l3.46-9.54l2.83-3.33L189.77,455.31z"/>
	<path id="BT-13" fill="#1E3250" stroke="#1E3250" stroke-width="0.5" d="M89.26,376.18l5.02,2.94l0.62,3.45l3.59,0.85l1.24,1.63
		l6.53,0.271l5.2,4.26l5.03-1.43l2.07,9.029l2.02,2.28l2.21,13.85l7.73,4.19l0.12,5.25l5.81,5.98l3.09,8.369l6.39,6.511l1.44,4.649
		l4.7,4.94l-4.92,5.79l-5.98,1.96l-1.79,2.14l0.31,10.851l2.29,5.84l0,0l1.86,5.649l4.26,4.24l-6.68,7.271l0.15,4.829l-7.55,4.73
		l1.26,5.61l0,0l-6.31,0.64l-5.2-1.41l-4.4,0.96l-3.31,3.72l-0.14,2.961l-3.75,6.399l-2.44,0.71l-6.05-6.72l-4.31-8.57l-4.42,9.84
		l-7.08,3.521l-2.58-0.12l-2.23-2.65l-2.3-0.239l-4.92-3.511l-0.39-3.09l-8.84-5.569l-2.8-7.261l-8.38-3.359l1.7-9.771l-0.5-6
		l-5.98-6.22l-3.43-6.72l-12.03-6.41l0,0l1.4-3.471l-1.72-5.21l4.02-6.76l13.24,12.72l2.04-5.01l2.82-1.8l-1.61-6.22l-4.78-3.74
		l0.76-10.23l-1.19-4.039l2.98-4.221l-0.56-3.45l4.97-5.689l-2.9-7.39l3.52-2.881h3.35l-2.3-5.739l7.98-5.761l0.33-4.069l1.29-1.261
		l-0.08-5.39l9.24-5.57l7.2,1.5l1.12-2.069L89.26,376.18z"/>
	<path id="BT-14" fill="#1E3250" stroke="#1E3250" stroke-width="0.5" d="M35.19,463.24l12.03,6.41l3.43,6.72l5.98,6.22l0.5,6
		l-1.7,9.771l8.38,3.359l2.8,7.261l8.84,5.569l0.39,3.09l4.92,3.511l2.3,0.239l2.23,2.65l2.58,0.12l7.08-3.521l4.42-9.84l4.31,8.57
		l6.05,6.72l2.44-0.71l3.75-6.399l0.14-2.961l3.31-3.72l4.4-0.96l5.2,1.41l6.31-0.64l0,0l-0.85,8.609l2.47,4.19l-4.84,9.97
		l-7.22,6.99l-4.07,1.35l1.31,4.141l-0.68,2.63l2.17,3.43l3.06-1.58l3.75,3.65l2.15-0.57l3.4,1.71l-0.84,2.76l1.83,1.79l-1.38,2.99
		l0.68,1.38l5.41-2.53l3.76-0.02l1.12,2.2l-0.92,4.39l0,0l-10.66,4.43l-2.31-2.56l-2.19,2.19l-9.89,4.5l-2.13,2.71l-5.15-0.95
		l-10.29,3.14l-5-2.37l-8.54,2.551l-7.05-7.45l0.49-6.16l-3.88-3.19l1.8-3.43l-1.16-2.31l-5.32-2.421l-4.98-0.109l-0.01-4.21
		l-5.04-5.38l-9.47,5.109l-5.21-0.89l-5.28-4.78l3.66-3.09l-0.42-3.67l-8.14-7.33l-5.91,4.99l-1.23,4.5l-3.19,2.21l-1.05-15.53
		l1.93-7.93l-2.07-17.73l-3.08,0.431l-2.86-2.431l-4.33-0.35l-6.12-5.021l-7.93-0.489l-3.56-1.78l2.2-3.06l0.09-4.74l6.42-2.79
		l0.34-4.22l2.59-4.931l0.09-7.06l6.88-3.94l9.86,0.98L35.19,463.24z"/>
	<path id="BT-15" fill="#1E3250" stroke="#1E3250" stroke-width="0.5" d="M189.77,455.31l0.25-7.26l-8.71-5.79l-0.04-2.56l2.64-3.8
		l-0.86-4.75l-4.3-2.21l-3.18,0.35l-1.56-2.26l1.15-5.65l-0.75-4.42l3.09-11.34l-0.48-9.021l3.32-2.739l-5.79-4.771l-2.51-5.39
		l1.59-1.9l-2.84-1.09l-9.77-10.91l-3.91,2.17l-2.4-2.05l7.03-6.46l-4.57-6l0.99-2.57l-1.2-2.689l1.62-4.061l-0.69-5.67l-6.5,2.15
		l-3.14,2.91l-3.62-2.8l-2.4-0.08l-3.3,1.689l-1.88,3.18l-8.02-2.649l-1.04,2.479l-4.78,1.061l-0.1-2.47l2.02-2.98l-7.09-1.69
		l-4.57-7.409l0,0l3-6.12l7.16-3.61l0.87-3.729l6.39-5.94l3.17-0.9l5,0.98l1.61-2.71l11.65-8.42l3.08-7.31l3.2-2.08l-0.41-1.65
		l1.71-2.36l3.66-2.14l3.77-6.95l-0.41-6.25l0,0l7.05,1.88l4.81,4.74l5.16,0.98l2.21,4.99l-0.75,6.63l0.93,2.54l5.73,4.07l7.89,2.3
		l-0.62,1.811l-5.94,1.909l-1.64,3.94l-3.79,2.59l-5.49,7.04l2.1,5.47l-1.4,3.04l0.04,5.41l-2.95,1.88l1.28,2.65l4.86,3.61
		l4.75-7.25l6.25-0.021l2.9,8.22l-0.7,2.03l3,2.89l7.79,2.5l0,0l0.54,4.971l3.85,1.149l1.47,3.29l-2.01,14.7l2.28,4.03l2.76,1.42
		l2.9,9.09l3.04,1.05l1.96,2.57l0.76,2.6l-1.01,2.771l1.2,3.21l4.47,2l0.85,3.31l3.44,2.65l3.17,5.38l0,0l-1.85,9.86l2.51,4.17
		l-13.59,10.79l5.41,4.22l-1.62,3.59l1.3,7.38l-1.3,9.811l0,0l-2.76-0.59l-0.99,4.25l-2.62,2.26l-0.2,2.899l-4.54,1.091l-5.77,3.71
		l-2.01,8.869l0.51,3.19l-1.93,4.39l0,0l-3.33,1.021l-2.92-1.47l-4.33-4.49l-2.1-4.55l-2.86-0.591l2.99-2.55l0.48-4.92l2.48-3.03
		l7.48-3.319l0.45-2.8l-9.2-3.15l-3.25,0.78l-0.66-7.19l-3.05-4.109L189.77,455.31z"/>
	<path id="BT-21" fill="#1E3250" stroke="#1E3250" stroke-width="0.5" d="M311.42,505.31l0.78-1.619l-1.51-3.021l1.77-4.939
		l-0.8-6.98l3.68-2.92l14.54,7.11l4.71-1.521l6.36,0.35l4.03-2.039l9.91,7.569l2.83-3.27l3.29,0.72l2.06-2.01l5.55-1.28l1.73-2.84
		l1.79-0.17l0,0l3.26,1.899l1.04,3.44l-1.49,3.51l-4.3-0.729l-11.02,8.39l-1,2.72l0.7,3.521l-3.11,3.51l-0.25,5.67l-4.8,3.17
		l-0.26,9.83l-10.35,10.851l-0.26,5.359l-5.27,2.43l-2.22,4.24l-4.97,3.4l-2.85,6.649l0.36,6.16l-5.33,2.21l-2.75-1.729l-2.39,0.96
		l-2.64,1.689l-0.6,4.131l-3.47,1.17l-6.55-2.03l0,0l-2.46,1.13l-3.16-5.55l-1.52-3.061l2.59-2.529l-3.33-0.42l1.13-1.21l-0.84-2.12
		l1.96-1.9l-0.66-4.05l3.31-2.76l2.89,0.17l1.62-4.811l5.25-5.609l1.74-5.431l-0.31-6.72l2.23-9.7l0.01-4.03l-1.84-1.5l2.36-4.35
		l-1.52-3.28L311.42,505.31z"/>
	<path id="BT-22" fill="#1E3250" stroke="#1E3250" stroke-width="0.5" d="M230.92,466.53l1.87,0.38l7.69-3.62l4.31,0.19l4.64,3.479
		l8.18-2.06l1.76,2.75l2.67,0.71l1.98,3.92l8.14,3.92l6.86,16.149l3.46,1.641l1.07,2.38l10.6,0.28l5.87,4.43l6.49-0.26l4.91,4.489
		l0,0l0,0l0,0l-0.35,5.83l1.52,3.28l-2.36,4.35l1.84,1.5l-0.01,4.03l-2.23,9.7l0.31,6.72l-1.74,5.431l-5.25,5.609l-1.62,4.811
		l-2.89-0.17l-3.31,2.76l0.66,4.05l-1.96,1.9l0.84,2.12l-1.13,1.21l3.33,0.42l-2.59,2.529l1.52,3.061l3.16,5.55l2.46-1.13l0,0
		l2.76,6.53l-1.45,6.71l1,5.17l-4.36-1.431l-2.95-2.859l-0.17,5.59l-2.85,3.86l0,0l-4.09,1.979l-14.98,1.09l-7.38-0.47l-6.82-2.51
		l-1.38,9.47l-11.81-2.98l-10.81,2.421l-1.08-3.82l-1.85-1.03l1.18-2.33l-1.06-1.38l0,0l-3.48-1.649l-0.32-6.721l4.7-8.34l2.61,0.51
		l0.78-4.05l1.89,1.5l-0.27-4.61l2.41-2.279l-0.78-3.46l1.42-0.431l-0.47-2.97l1.62-1.62l-0.65-4.79l8.46,0.28l0.67-2.74l-4.19-3.74
		l-1.06-4.289l2.18-2.87l-0.39-1.311l-4.7-1.03l-2.76-16.31l-4.56-7.93l-5.89-0.761l-6.21,2.29l-2.29-0.689l1.4-9.34l-1.52-1.17
		l-4.68,0.409l-3.55-13.729l-3.28-4.44l0,0l1.93-4.39l-0.51-3.19l2.01-8.869l5.77-3.71l4.54-1.091l0.2-2.899l2.62-2.26l0.99-4.25
		L230.92,466.53z"/>
	<path id="BT-23" fill="#1E3250" stroke="#1E3250" stroke-width="0.5" d="M210.39,352.52l1.91-3.17l3.71,0.5l2.46-1.09l6.27,2.37
		l5.78-0.7l3.71-2.3l-1.06-2.46l2.07-0.729l4.11-5.841l3.49,1.29l1.9,3.851l3.24-1.86l1.58-4.229l7.84-6.67l4.5-8.801l3.88-2.01
		l5.89-0.33l4.74-2.91l2.58,0.551l6.79,6.1l3.24,0.189l8.33,3.58l1.48,2.2l4.77,0.86l0,0l0.63,9.149l-10.41,9.78l-2.03,8.78
		l5.23,2.86l4.22-1.301l3.17,0.7l6.23,6.73l0.14,3.01l-5.21,5.46l-4.97,0.46l-5.1,7.4l-5.3,2.649l-1.05,2.53l-4.27,2.49l0.15,2.819
		l-5.42,4.45l0.05,5.521l-2.26,0.899l-3.36-1.6l-3.7,0.31l-1.39,1.74l0.98,3.89L258.1,414.4l-5.25-1.061l-1.79,1.92l-11,1.45l0,0
		l-3.17-5.38l-3.44-2.65l-0.85-3.31l-4.47-2l-1.2-3.21l1.01-2.771l-0.76-2.6l-1.96-2.57l-3.04-1.05l-2.9-9.09l-2.76-1.42l-2.28-4.03
		l2.01-14.7l-1.47-3.29l-3.85-1.149L210.39,352.52z"/>
	<path id="BT-24" fill="#1E3250" stroke="#1E3250" stroke-width="0.5" d="M311.42,505.31l-4.91-4.489l-6.49,0.26l-5.87-4.43
		l-10.6-0.28l-1.07-2.38l-3.46-1.641l-6.86-16.149l-8.14-3.92l-1.98-3.92l-2.67-0.71l-1.76-2.75l-8.18,2.06l-4.64-3.479l-4.31-0.19
		l-7.69,3.62l-1.87-0.38l0,0l1.3-9.811l-1.3-7.38l1.62-3.59l-5.41-4.22l13.59-10.79l-2.51-4.17l1.85-9.86l0,0l11-1.45l1.79-1.92
		l5.25,1.061l11.83-4.761l-0.98-3.89l1.39-1.74l3.7-0.31l3.36,1.6l2.26-0.899l-0.05-5.521l5.42-4.45l-0.15-2.819l4.27-2.49
		l1.05-2.53l5.3-2.649l5.1-7.4l4.97-0.46l5.21-5.46l-0.14-3.01l-6.23-6.73l-3.17-0.7l-4.22,1.301l-5.23-2.86l2.03-8.78l10.41-9.78
		l-0.63-9.149l0,0l1.1-9.48l8.31-1.939l6.07,1.58l5.49-5.11l2.32-6.65l10.84-16.62l0.92-5.54l2.66-1.96l13.09-1.52l4.88,5.21
		l-1.15,4.55l5.09,10.76l4.86,2.96l2.23-0.301l3.38-3.689l5.26,2.17l2.44-1.95l3.43,1.39l1.71-3.37l-0.54-7l-1.79-3.85l1.34-2.26
		l-1.54-3.38l0.01-5.07l2.73-2.42l8.05-0.28l7.2-11.4l0,0l4.91,0.02l0,0l3.67,6.79l0.87,4.52v3.23l-2.75,6.64l1.779,1.41l-0.399,2.4
		l1.66,4.09l5.489,1.8l0.12,5.06l2.01,3.86l0.17,9.49l-2.21,6.5l-1.569,2.01l-4.58,0.24l-1.21,1.4l0.28,4.22l2.18,2.44l-0.07,4.43
		l0,0l-4.189,20.27l-14.521,6.351l-2.43-0.55l-1.8-2.37l-7.23,2.189l-4.48-1.21l-2.36,2.16l-1.13,8.29l-4.85,4.32l-0.02,2.609
		l1.77,1.19l7.18,18.77l6.27,0.96l1.93,2.83l-5.05,4.931l-3.4-2.25l-1.13,1.18l-5.1,0.31l-2.38,1.301l-2.68,4.439l-7.33,0.48
		l-2.97,1.76l1.41,1.23l0.42,3.75l4.15,2.59l-0.27,8.779l7.69,9.83l-1.36,4.061l10.94,9.819l-0.86,1.931l1.93,4.16l-0.78,2.13
		l4.21,2.46l-0.56,7.2l-4.79,3.76l-0.5,2.24l0,0l-6.39,5.79l0.46,4.47l0,0l-1.79,0.17l-1.73,2.84l-5.55,1.28l-2.06,2.01l-3.29-0.72
		l-2.83,3.27l-9.91-7.569l-4.03,2.039l-6.36-0.35l-4.71,1.521l-14.54-7.11l-3.68,2.92l0.8,6.98l-1.77,4.939l1.51,3.021
		L311.42,505.31z"/>
	<path id="BT-31" fill="#1E3250" stroke="#1E3250" stroke-width="0.5" d="M419.49,499.04l0.609,4.16l3.17,1.84l0.461,1.79
		l2.359-0.03l2.811,2.23l0.46,2.67l3.319-1.271l2.07,3.32l4.53,1.83l6.779-3.35l7.91,6.21l-1.26,5.229l1.14,2.29l2.101,0.83
		l-0.76,4.24l1.35,4.229l-2.58,3.7l1.06,4.521l2.48,1.21l-5.02,6.029l-3.271,1.971l-2.01,6.069l-6.36,6.26l-1.01,1.771l0.42,6.35
		l6.62,2.341l6.78,0.279l5.199,3.73l0.841,3.55l5.439-0.37l3.851-2.43l1.09,1.21l2.68-1.681l1.17,7.471l-1.06,4.92l0,0l-5.851-0.36
		l-2.83,1.75l-6.83,0.09l-7.05-3.33L445.44,592l-4.41-4.55l-16.511-2.44l-32.35-25.41l-2.91-0.989l-12.82,1.529l-2.18,5.141
		l-10.39,7.38l-13.42-2.54l-6.93,1.11l-4.73,5.409l-2.49,6.091l1.1,10.239l-31.33,10.78l-12.47-1.31l0,0l2.85-3.86l0.17-5.59
		l2.95,2.859l4.36,1.431l-1-5.17l1.45-6.71l-2.76-6.53l0,0l6.55,2.03l3.47-1.17l0.6-4.131l2.64-1.689l2.39-0.96l2.75,1.729
		l5.33-2.21l-0.36-6.16l2.85-6.649l4.97-3.4l2.22-4.24l5.27-2.43l0.26-5.359l10.35-10.851l0.26-9.83l4.8-3.17l0.25-5.67l3.11-3.51
		l-0.7-3.521l1-2.72l11.02-8.39l4.3,0.729l1.49-3.51l-1.04-3.44l-3.26-1.899l0,0l-0.46-4.47l6.39-5.79l0,0l8.46,3.609l4.17,3.98
		l3.6,0.939l5.55,6.24l3.591,0.41l1.71,3.5l3.279,1.229l3.21-1.64l3.57,0.68l0.9,1.88L419.49,499.04z"/>
	<path id="BT-32" fill="#1E3250" stroke="#1E3250" stroke-width="0.5" d="M412.34,336.29l2.93,3.25l2.83-1.1l3.881,1.579l4.75,8.54
		l-1.29,1.771l2.18,3.06l-1.95,5.04l0.94,2.141l-3.38,2.43l-0.41,8.5l-1.11,1.68l3.53,1.011l-1.141,3.399l1.45,7.94l2.37,0.8
		l0.75,6.86l3.79,8.31l-0.4,2.96l2.19,6.98l-2.1,2.01l1.64,4.729l2.76,2.221l6.391,0.29l1.5,3.22l11.38,3.53l5.85,7.659l4.41,1.931
		l1.52,2.42l0,0l0.351,0.33l0,0l2.26,6.109l-5.32,11.91l0.7,9.04l-6.29,4.75l-12.27,3.45l-6.54,3.92l9.84,13.72l-4.57-1.22
		l-5.43,1.79l-8.66-3.85l-1.6,1.83l-3.09,0.59l-0.211,3.649l-3.97-0.109l-3.31,3.68l0,0l-3.38-0.021l-0.9-1.88l-3.57-0.68
		l-3.21,1.64l-3.279-1.229l-1.71-3.5l-3.591-0.41l-5.55-6.24l-3.6-0.939l-4.17-3.98l-8.46-3.609l0,0l0.5-2.24l4.79-3.76l0.56-7.2
		l-4.21-2.46l0.78-2.13l-1.93-4.16l0.86-1.931l-10.94-9.819l1.36-4.061l-7.69-9.83l0.27-8.779l-4.15-2.59l-0.42-3.75l-1.41-1.23
		l2.97-1.76l7.33-0.48l2.68-4.439l2.38-1.301l5.1-0.31l1.13-1.18l3.4,2.25l5.05-4.931l-1.93-2.83l-6.27-0.96l-7.18-18.77l-1.77-1.19
		l0.02-2.609l4.85-4.32l1.13-8.29l2.36-2.16l4.48,1.21l7.23-2.189l1.8,2.37l2.43,0.55l14.521-6.351L412.34,336.29z"/>
	<path id="BT-33" fill="#1E3250" stroke="#1E3250" stroke-width="0.5" d="M519.04,438l-1.41,3.22l-3.95,2.28l-5.12-0.7l-1.239,2.271
		l-5.221,0.04l-6.029,4.1l-1.99-1.979l-4.59,0.579l-3.57-3.739l-0.939-2.98l-5.41-4.939l-8.07,0.18l-3.73,3.28l0,0l-0.17-0.16l0,0
		l-1.52-2.42l-4.41-1.931l-5.85-7.659l-11.38-3.53l-1.5-3.22l-6.391-0.29l-2.76-2.221l-1.64-4.729l2.1-2.01l-2.19-6.98l0.4-2.96
		l-3.79-8.31l-0.75-6.86l-2.37-0.8l-1.45-7.94l1.141-3.399l-3.53-1.011l1.11-1.68l0.41-8.5l3.38-2.43l-0.94-2.141l1.95-5.04
		l-2.18-3.06l1.29-1.771l-4.75-8.54l-3.881-1.579l-2.83,1.1l-2.93-3.25l0,0l0.07-4.43l-2.18-2.44l-0.28-4.22l1.21-1.4l4.58-0.24
		l1.569-2.01l2.21-6.5l-0.17-9.49l-2.01-3.86l-0.12-5.06l-5.489-1.8l-1.66-4.09l0.399-2.4l-1.779-1.41l2.75-6.64v-3.23l-0.87-4.52
		l-3.67-6.79l0,0l2.64-3.24l3.56-1.61l12.44,5.19l3.45,4.25l4.149,1.81l5.101-5.94l5.27-0.35l13.07-9.15l3.45,2.76l3.21,0.03
		l4.05,3.98l5.76,1.73l1.641-0.99l1.29,2.09l2.789-1.47l0,0l2.551,0.86l-0.54,7.1l1.75,1.05l-0.721,4.23l1.21,3.07l-0.81,4.08
		l-4.84,2.64l0.35,2.92l-2.62,4.19l4.341,5.23l6.449,0.44l2.101,1.52l0.49,5.65l3.289,7.189l-1.199,5.211l6.29,3.64l2.529,5.04
		l9.11,3.79l4.27,12.88l-2.439,2.5l-0.48,2.64l6.841,0.521l5.5,4.649l3.84,4.16l-0.511,8.15l5.32,2.27l-5.31,6.57l-1.86,4.56
		l0.84,1.86l-2.97,4.95l3.68,5.8l-0.279,6.44l-1.771,2.22l0.59,2.64l4.98,2.521l2.729,4.31l-4.26,8.36l-3.49,3.76l0.3,1.85
		l3.261,2.801l0.89,3.33l0,0l-0.78,1.72l-4.739-0.12l-4.25,3.15L519.04,438z"/>
	<path id="BT-34" fill="#1E3250" stroke="#1E3250" stroke-width="0.5" d="M467.77,439.61l3.73-3.28l8.07-0.18l5.41,4.939l0.939,2.98
		l3.57,3.739l4.59-0.579l1.99,1.979l6.029-4.1l5.221-0.04l1.239-2.271l5.12,0.7l3.95-2.28l1.41-3.22l0,0l1.54,7.25l2.62,1.42
		l-0.13,6.45l3.1,6.56l-0.28,3.351l5.5,3.22l0.511,7.03l3.29,4.16l-1.021,9.04l-4.22,8.05l0.58,9.27l4.97,3.09l1.5,11.301
		l10.04,2.22l2.5,3.54l-1.1,8.22l1.63,2.28l-0.2,3.47l6.81,0.93l3.03,2.051l1.34,4.609l8.03,5.03l0,0l-0.2,1.65l-3.25,1.55l-1.45,6
		l0.82,2.39l-9.06,5.67l-5.21-3.319l-3.5,2.039l-0.19-2l-9.021,4.711l-7.22,0.109l-3.16,4.11l0.75,2.54l-1.97,1.66l4.2,11.38l0,0
		l-3.771-0.69l-23.25,2.521l-30.739,1.3l0,0l1.06-4.92l-1.17-7.471l-2.68,1.681l-1.09-1.21l-3.851,2.43l-5.439,0.37l-0.841-3.55
		l-5.199-3.73l-6.78-0.279l-6.62-2.341l-0.42-6.35l1.01-1.771l6.36-6.26l2.01-6.069l3.271-1.971l5.02-6.029l-2.48-1.21l-1.06-4.521
		l2.58-3.7l-1.35-4.229l0.76-4.24l-2.101-0.83l-1.14-2.29l1.26-5.229l-7.91-6.21l-6.779,3.35l-4.53-1.83l-2.07-3.32l-3.319,1.271
		l-0.46-2.67l-2.811-2.23l-2.359,0.03l-0.461-1.79l-3.17-1.84l-0.609-4.16l0,0l3.31-3.68l3.97,0.109l0.211-3.649l3.09-0.59l1.6-1.83
		l8.66,3.85l5.43-1.79l4.57,1.22l-9.84-13.72l6.54-3.92l12.27-3.45l6.29-4.75l-0.7-9.04l5.32-11.91l-2.26-6.109l0,0L467.77,439.61z"
		/>
	<path id="BT-41" fill="#1E3250" stroke="#1E3250" stroke-width="0.5" d="M748.24,412l2.27,0.81l7.811-1.29l2.12-4.97l6.109-0.689
		l0.42,9.56l4.59,2.92l0.78,6.23l2.91,3.34l-1.9,8.35l3.25,6.07l-0.34,4.75l4.51,4.439l5.78,2.32l4.22,3.65l-0.369,3.069
		l-4.091,1.78l-7.409-2.17l-7.141,2.811l0.08,1.279l6.061,4.42l0.909,5.601l-2.909,5.39l-0.24,3.54l-2.87,1.94l0,0l-11.53-0.78
		l-5.26-2.48l-4.3-12.199l-3.74-1.58l-2.33,3.46l-0.1,19.779l-4.2-1.439l-2.311,1.45l-2.71-0.841l-6.989,1.521l-5.87,2.26
		l-4.04,3.66l-8.19,11.84l-6.83,0.561l-3.399,2.25l-2.3-0.75l-3.69,2.12l-2.4-0.271l-12.899,6.15l-9.9-3.29L668.86,519l-2.38,1.43
		L661,521.9l-3.64,3.13l-6.221,2.25l0,0l-0.399-2.57l2.77-1.78l3.26-7.479l-5.27-3.37l-4.44,0.38v-4.12l-1.59-0.75l-1.09-4.21
		l-6.03-3.649l2.631-0.9l-0.141-5.061l-2.899-5.479l-3.71-1.42l-1.74,0.71l0.43,2.22l-8.04-0.609l-3.89,1.489l-4.04-1.17l0,0
		l1.149-5.33l3.021-1.14l-0.99-3.87l0.88-6.49l4.311-4.029l1.689-3.54l5.08-1.431l0.99-1.859l2.46-0.54l1.479-2.38l3.021-0.801
		l5.26-4.31l-0.06-3.87l-2.73-3.11l0.471-2.38l-3.391-2.21l-3.97-0.189l-4.17-5.66l-4.9-1.76l2.46-2.71l-1.13-3.521l0,0l8.271,0.84
		l6.17,3.57l9.62,2.28l4.54,2.609l2.369-0.26l0.91-1.72l5.49-1.15l6.72-8.2l7.59,0.12l5.021-3.649l3.65-0.17l10.31-4.301l6.16,0.5
		l4.06-8l0,0l8.98-2l4.47,0.95l4.85-3.569l3.261,0.13l2.16,2.43l4.399-0.11l1.771,1.311l5.68-0.811L748.24,412z"/>
	<path id="BT-42" fill="#1E3250" stroke="#1E3250" stroke-width="0.5" d="M606.89,380.14l4.551,5.13l0.84,4.69l4.04,2.271
		l-0.12,2.63l5.819,6.05l3.12,5.43l3.19,1.66l1.07,4.13l1.81,1.7l2.12,7.01l-5.45,7.54l0,0l1.13,3.521l-2.46,2.71l4.9,1.76
		l4.17,5.66l3.97,0.189l3.391,2.21l-0.471,2.38l2.73,3.11l0.06,3.87l-5.26,4.31l-3.021,0.801l-1.479,2.38l-2.46,0.54l-0.99,1.859
		l-5.08,1.431l-1.689,3.54l-4.311,4.029l-0.88,6.49l0.99,3.87l-3.021,1.14l-1.149,5.33l0,0l-4,4.971l0.069,3.229l2.021,3.49
		l-4.23,2.649l0.73,2.16l-1.96,0.311l-0.771,5.71l-2.829,1.62l-4.631-0.36l-1.449,2.45l-1.381-0.681l-4.399,3.25l-10.83,2.07
		l-0.3,2.64l-2.891,2.03l-2.54,7.5l-4.67,4.45l-0.699,5.1l-4.051,2.28l0.94,6.16l0,0l-8.03-5.03l-1.34-4.609l-3.03-2.051l-6.81-0.93
		l0.2-3.47l-1.63-2.28l1.1-8.22l-2.5-3.54L537,518.19l-1.5-11.301l-4.97-3.09l-0.58-9.27l4.22-8.05l1.021-9.04l-3.29-4.16
		l-0.511-7.03l-5.5-3.22l0.28-3.351l-3.1-6.56l0.13-6.45l-2.62-1.42l-1.54-7.25l0,0l-0.64-0.81l4.25-3.15l4.739,0.12l0.78-1.72l0,0
		l11.93,2.54l1.2-2.62l2.3-0.591l11.57-10.43l13.57,2.37l1.47,4.8l3.49,4.32l16.37-9.85l3.17-0.45l3.83-7.48l0.31-4.85l-3.16-3.55
		l-0.89-3.15l1.479-3.52l4.23-3.641l6.5-3.08l-2.36-5.26L606.89,380.14z"/>
	<path id="BT-43" fill="#1E3250" stroke="#1E3250" stroke-width="0.5" d="M616.95,489.51l4.04,1.17l3.89-1.489l8.04,0.609
		l-0.43-2.22l1.74-0.71l3.71,1.42l2.899,5.479l0.141,5.061l-2.631,0.9l6.03,3.649l1.09,4.21l1.59,0.75v4.12l4.44-0.38l5.27,3.37
		l-3.26,7.479l-2.77,1.78l0.399,2.57l0,0l-3.06,0.77l-3.4-2.96l-4.18,3.71l-3.34-0.229l-0.73,4.13l-5.739,6.93l1.069,8.49
		l-4.58,7.77l-2.88,0.65l-3.71,4.72l0.15,8.87l-2.601,1.39l0.96,2.131l4.521,2.319l0,0l-1.47,0.11l-5.271,8.8l-10.16,5.72
		l-9.689-1.439l-7.681-5.19l-19.239-1.689l-11.88,0.779l-7.771-2.96l-1.76,0.351l-8.24,10.189l-9.84-1.609l0,0l-4.2-11.38l1.97-1.66
		l-0.75-2.54l3.16-4.11l7.22-0.109l9.021-4.711l0.19,2l3.5-2.039l5.21,3.319l9.06-5.67l-0.82-2.39l1.45-6l3.25-1.55l0.2-1.65l0,0
		l-0.94-6.16l4.051-2.28l0.699-5.1l4.67-4.45l2.54-7.5l2.891-2.03l0.3-2.64l10.83-2.07l4.399-3.25l1.381,0.681l1.449-2.45
		l4.631,0.36l2.829-1.62l0.771-5.71l1.96-0.311l-0.73-2.16l4.23-2.649l-2.021-3.49l-0.069-3.229L616.95,489.51z"/>
	<path id="BT-44" fill="#1E3250" stroke="#1E3250" stroke-width="0.5" d="M605.26,254.63l0.63,3.93l4.53,0.16l5.03,4.72l3.21,0.08
		l2.16,2.51l3.979,0.32l3.98,2.2l4.819,0.24l3.28,7.54l0,0l-3.49,3.46l-4.75-1.41l-2.51,1.26l-3.84,7.07l-3.84,4.09l-3.7,0.39
		l-1.92,4.19l1.14,2.97l-0.239,7.64l-1.601,7.66l1.73,9.909l-2.971,6.65l1.28,3.05l-0.36,4.05l-3.93,6.971l2.92,8.62l-2.74,4.369
		l1.62,6.33l-0.85,5.591l1.67,3.27l-3.61,7.68l0,0l-3.71,7.86l2.36,5.26l-6.5,3.08l-4.23,3.641l-1.479,3.52l0.89,3.15l3.16,3.55
		l-0.31,4.85l-3.83,7.48l-3.17,0.45l-16.37,9.85l-3.49-4.32l-1.47-4.8l-13.57-2.37l-11.57,10.43l-2.3,0.591l-1.2,2.62l-11.93-2.54
		l0,0l-0.89-3.33l-3.261-2.801l-0.3-1.85l3.49-3.76l4.26-8.36l-2.729-4.31l-4.98-2.521l-0.59-2.64l1.771-2.22l0.279-6.44l-3.68-5.8
		l2.97-4.95l-0.84-1.86l1.86-4.56l5.31-6.57l-5.32-2.27l0.511-8.15l-3.84-4.16l-5.5-4.649l-6.841-0.521l0.48-2.64l2.439-2.5
		l-4.27-12.88l-9.11-3.79l-2.529-5.04l-6.29-3.64l1.199-5.211l-3.289-7.189l-0.49-5.65l-2.101-1.52l-6.449-0.44l-4.341-5.23
		l2.62-4.19l-0.35-2.92l4.84-2.64l0.81-4.08l-1.21-3.07l0.721-4.23l-1.75-1.05l0.54-7.1l-2.551-0.86l0,0l2.681-6.09l2.03-0.87
		l4.189,1.97l-0.35,2.91l1.819,0.86l5.65-0.31l8.66,3.22l-0.07,3.15l0.97,0.39l3.631-0.7l0.909-3.78l2.721-0.31l4.47,3.38l1.54,4.25
		l3.689,3.14l2.45-0.47l2.37-5.27l5.851-0.81l2.97,3.7l3.49,0.9l1.92,3.39l2.85,0.41l0.87-3.05l6.479,0.45l2.45,2.01l7.84-0.28
		l3.561,2.13l4.47-2.44l5.58,1.49l9.021-7.47l8.449-4.01l6.561-12.43l5.439-0.63L605.26,254.63z"/>
	<path id="BT-45" fill="#1E3250" stroke="#1E3250" stroke-width="0.5" d="M651.14,527.28l6.221-2.25l3.64-3.13l5.48-1.471l2.38-1.43
		l0.939-2.43l9.9,3.29l12.899-6.15l2.4,0.271l3.69-2.12l2.3,0.75l3.399-2.25l6.83-0.561l8.19-11.84l4.04-3.66l5.87-2.26l6.989-1.521
		l2.71,0.841l2.311-1.45l4.2,1.439l0.1-19.779l2.33-3.46l3.74,1.58l4.3,12.199l5.26,2.48l11.53,0.78l0,0l-3.021,2.54l1.61,9.52
		l-2.72,6.85l3.17,12.21l2.34,2.28l8.311,3.2l-0.671,5.65l5.69,3.08l0.7,7.38l3.52,2.5l0.21,3.659l-1.81,2.41l1.46,10.44l-1.18,3.89
		l-3.08,3.351V568l-1.25,1.09l-9.5,4.44l-15.471-2.71l-5.02-3.051l-7.22-7.319l-12.46-5.66l-8.32,1.11l-5.07,9.39l-7.02,6.37
		l-17.61,10.33l-6.96,0.18l-2.35,1.771l-14.891-4.24l-7.75,4.33l-23,3.92l-3.41-0.53l-16.399-11.45l0,0l-4.521-2.319l-0.96-2.131
		l2.601-1.39l-0.15-8.87l3.71-4.72l2.88-0.65l4.58-7.77l-1.069-8.49l5.739-6.93l0.73-4.13l3.34,0.229l4.18-3.71l3.4,2.96
		L651.14,527.28z"/>
	<path id="BT-GA" fill="#1E3250" stroke="#1E3250" stroke-width="0.5" d="M303.6,330.91l-4.77-0.86l-1.48-2.2l-8.33-3.58
		l-3.24-0.189l-6.79-6.1l-2.58-0.551l-4.74,2.91l-5.89,0.33l-3.88,2.01l-4.5,8.801l-7.84,6.67l-1.58,4.229l-3.24,1.86l-1.9-3.851
		l-3.49-1.29l-4.11,5.841l-2.07,0.729l1.06,2.46l-3.71,2.3l-5.78,0.7l-6.27-2.37l-2.46,1.09l-3.71-0.5l-1.91,3.17l0,0l-7.79-2.5
		l-3-2.89l0.7-2.03l-2.9-8.22l-6.25,0.021l-4.75,7.25l-4.86-3.61l-1.28-2.65l2.95-1.88l-0.04-5.41l1.4-3.04l-2.1-5.47l5.49-7.04
		l3.79-2.59l1.64-3.94l5.94-1.909l0.62-1.811l-7.89-2.3l-5.73-4.07l-0.93-2.54l0.75-6.63l-2.21-4.99l-5.16-0.98l-4.81-4.74
		l-7.05-1.88l0,0l4.56-3.01l-2.32-5.98l3.25-2.08l2.05-4.98l5.12-4.94l0.84-4.23l5.4,1.78l1.54-0.64l3.05-3.44l0.07-3.44l4.79-2.38
		l5.09-7.24l0.57-4.05l3.86-1.62l3.05,1.32l3.32-2.63l4.3,1.75l5.93-4.51l10.51,3.3l1.82-5.33l1.47-0.34l3.05,2.09l3.72-2.81
		l0.94-3.59l-1.34-4.2l4.29-2.65l2.32-4.63l1.87,2.92l4.69-0.25l2.86,4.14l5.67-1.06l8.09,13.39l2.95,0.61l2.41-1.66l4.84-0.31
		l-0.4,3.88l1.3,1.57l3.66-5.09l4.6-0.61l4.29,4.89l5.58,2.82l1.3,4.89l2.81,2.57l4.69-5.44l5.9,0.3l4.71,5.54h3.48l0.94-3.73
		l-1.74-3.72l1.83-4.54l-1.92-3.93l2.28-0.81l9.02,1.92l4.74,3.73l0.31,4.13l11.57,5.54l4.42-0.05l3-4.08l5.38-0.35l2.95,8.26
		l6.17,1.36l7.23,7.75l2.73,9.51l3.44,0.51l3.35-2.52l5.22,0.71l6.129,2.61l1.471,2.15l0,0l-7.2,11.4l-8.05,0.28l-2.73,2.42
		l-0.01,5.07l1.54,3.38l-1.34,2.26l1.79,3.85l0.54,7l-1.71,3.37l-3.43-1.39l-2.44,1.95l-5.26-2.17l-3.38,3.689l-2.23,0.301
		l-4.86-2.96l-5.09-10.76l1.15-4.55l-4.88-5.21l-13.09,1.52l-2.66,1.96l-0.92,5.54l-10.84,16.62l-2.32,6.65l-5.49,5.11l-6.07-1.58
		l-8.31,1.939L303.6,330.91z"/>
	<path id="BT-TY" fill="#1E3250" stroke="#1E3250" stroke-width="0.5" d="M684.43,404.05l3.21-0.29l0.71-1.91l1.851-0.55
		l4.359,2.641l0.75,4.64l1.881,1.65l2.899,0.71l8.01-2.53l0.66,2.439l0,0l-4.06,8l-6.16-0.5l-10.31,4.301l-3.65,0.17l-5.021,3.649
		l-7.59-0.12l-6.72,8.2l-5.49,1.15l-0.91,1.72l-2.369,0.26l-4.54-2.609l-9.62-2.28l-6.17-3.57l-8.271-0.84l0,0l5.45-7.54l-2.12-7.01
		l-1.81-1.7l-1.07-4.13l-3.19-1.66l-3.12-5.43l-5.819-6.05l0.12-2.63l-4.04-2.271l-0.84-4.69l-4.551-5.13l0,0l3.61-7.68l-1.67-3.27
		l0.85-5.591l-1.62-6.33l2.74-4.369l-2.92-8.62l3.93-6.971l0.36-4.05l-1.28-3.05l2.971-6.65l-1.73-9.909l1.601-7.66l0.239-7.64
		l-1.14-2.97l1.92-4.19l3.7-0.39l3.84-4.09l3.84-7.07l2.51-1.26l4.75,1.41l3.49-3.46l0,0l1.46,0.4l1.99,3.79l-1.34,5.09l1.25,1.7
		l12.99,5.38l2.18,5.84l3.18-0.09l5.69-3.77l1.68,2.92l5.28,1.32l0.16,4.43l-2.53,4.92l-7.38-1.71l-2.69,2.8l-2.14-1.13l-0.96,1.08
		l4.79,9.23l1.76,0.689l6.07-2.149l6.88,5.29l0.7,7.72l1.989,1.68l0.101,1.9l-2.44,2.899l0.49,5.19l-2.48,9.37l-5.34,2.899
		l-3.04,5.25l-4.37,2.211l-2.13,5.01l-0.68,3.35l4.6,5.48l-3.529,5.09l4.09,5.26l-0.101,2.86l3.591,3.229l3.649-0.45l1.75,5.46
		l6.891,5.131l0.779,3.76l1.37,0.46L684.43,404.05z"/>
</g>
</svg>
