<?xml version="1.0" encoding="utf-8"?>
<!-- Generator: Adobe Illustrator 15.0.0, SVG Export Plug-In . SVG Version: 6.00 Build 0)  -->
<!DOCTYPE svg PUBLIC "-//W3C//DTD SVG 1.1//EN" "http://www.w3.org/Graphics/SVG/1.1/DTD/svg11.dtd">
<svg version="1.1" id="Layer_1" xmlns:amcharts="http://amcharts.com/ammap"
	 xmlns="http://www.w3.org/2000/svg" xmlns:xlink="http://www.w3.org/1999/xlink" x="0px" y="0px" width="699.082px"
	 height="592.081px" viewBox="0 0 699.082 592.081" enable-background="new 0 0 699.082 592.081" xml:space="preserve">
<defs>
	
	
		<amcharts:ammap  projection="mercator" bottomLatitude="10.266326" leftLongitude="102.335249" topLatitude="14.688294" rightLongitude="107.630467">
		</amcharts:ammap>
</defs>
<g>
	<path id="KH-1" fill="#1E3250" stroke="#1E3250" stroke-width="0.5" d="M94.34,63.78l6.34,14.1l3.43,3.01l1.9,0.96l10.48-0.14
		l-1.37,5.44l-1.69,1.77l1.2,1.75l-0.26,1.87l-2.86,3.45l4.09,7.4l1.9-1.48l5.63-0.62l7.87-9.06l7.17,11.52l6.52,2.41l-0.35,1.53
		l0.83,0.64l-1.1,0.93l0.14,1.57l0,0l-1.33,0.4l0.82,1.2l-1.63,2.92l0.4,1.25l0.53,1.17l0.61,0.89l-0.17,1.17l-0.13,1.55l-0.65,2.78
		l0.13,0.87l-0.15,1.53l1.13,0.18l-0.93,1.57l-0.36,1.28l-0.11,0.96l0.04,1.71l2.33,2.33l-4.86,4.5l-0.51,1.37l1.55,1.43l-1.41,0.03
		l-0.1,1.13l-0.91,0.35l1.13,0.92l-0.38,0.79l1.58-0.53l-0.28,0.93l1.12,1.021l-1.36,1.05l1.16,0.7l-0.35,0.85l-0.94,0.92l0.57,1.28
		l0.26,1l1.04,0.99l0.01,1.69l-0.72,0.16l0.24,1.9l-0.14,1.73l-0.57,0.75l-0.76-0.61l-0.38,2.78l1.87,1.68l-1.38,1.31l-1.19,3.67
		l2.7,7.1l0,0l-2.56,1.17l-5.28-2.97l-16.19-0.72l-6.78-3.1l-1.35,1.14l-0.89-1.15l-2.91-0.03l-8.13,2.56l-3.52-0.56l-3.44,2.6
		l-1.65-0.46l-0.58,2.31l-7.61-0.48l-7.69-2.87l-1.34,0.65l-12.86-3.74l-7.07,4.03l-0.11-12.49l-40.86,0.24l0,0l0.56-3.61
		l-3.45-4.54l0.73-2.35l3.33-2.29l3.23,1.3l3.48-0.52l2.2,1.45l6.32-1.55l4.51,0.98l4.47-1.82l1.42-3.14l6.17-0.65l-5.86-2.5
		l-3.51-3.79l1.71-3.09l3.57-2.99l12.06-5.71l3.49-2.87l1.85,0.08l0.04-1.39l-1.11-1l5.52-7.99l1.87-9.68l2.49-1.29l1.56-2.83
		l6.3-4.91l3.37-0.4l2.15-1.25l-1.67-4.37l0.37-3.99l2.71-2.75l0.28-3.41l1.91-2.06l-1.38-3.65l1.36-1.15l-0.21-1.08l2.08-0.25
		l-0.4-1.28l1.28-0.67l4.33-0.3l1.74-2.2l1.5,0.03L94.34,63.78z"/>
	<path id="KH-2" fill="#1E3250" stroke="#1E3250" stroke-width="0.5" d="M10.91,161.61l40.86-0.24l0.11,12.49l7.07-4.03l12.86,3.74
		l1.34-0.65l7.69,2.87l7.61,0.48l0.58-2.31l1.65,0.46l3.44-2.6l3.52,0.56l8.13-2.56l2.91,0.03l0.89,1.15l1.35-1.14l6.78,3.1
		l16.19,0.72l5.28,2.97l2.56-1.17l0,0l6.49,2.63l0,0l1.49-0.83l0,0l1.64,1.12l1.47-1.07l2.33,0.33l0.49,1.22l3.22,1.21l0.67,2.39
		l2.48-0.15l1.81,2.49l3.83-0.69l2.65,0.62l2.64,2.42l1.69-1.55l2.26,1.55l0.92,1.1l1.04,5.56l4.9,6.13l10.02,7.12l7.41,7l0,0
		l-4.11,2.8l-9.77,3.66l-5.38,0.13l-1.28,2.99l-1.59,1.43l0.1,2.12l1.42,1.13l0.24,1.9l-2.55,0.74l-1.38,1.47l-0.6,5.67l-0.71,0.91
		l-2.63-0.18l-3.14,1.04l-1.28,1.3l-0.2,2.81l1.81,1.03l-3.36,6.11l0.5,5.7l1.65,2.46l-2.17,3.01l3.32,1.68l0.53,2.76l-1.75,1.64
		l-0.18,1.76l0.85,0.96l-1.14,1.27l1.37,2.45l-2.58,2.12l-1.4,4.41l-5.92,0.61l-6.3,2.15l-6.57-3.96l-6.85-2.72l-5.09,0.77
		l-0.17-1.15l-4.41-0.93l0.49,1.05l-2.67-0.24l-0.47,1.82l-2.24-0.34l-4.62,3.82l-2.5-0.94l-2.61,1.95l-2.93,0.78l-2.76,2.95
		l-2.85-1l-4.21,3.26l-3.85,0.48l-0.55,2.85l-5.74-1.29l-1.57-3.63l-1.44-1.18l-3.36,4.76l-2.33,0.81l-1.09,1.37l-2.39-0.56
		l-1.3,0.86l-1.09-0.64l-3.66,4.48l-4.52-1.89l-3.33,5.22l-3.27-3.92l0,0l-0.44-4.18l-0.98-0.16l-0.9-2.53l-1.76-0.65l-0.48,0.57
		l-1.37-1.28l0.4-2.04l-0.73-0.72l-1.7,0.16l1.09-3.07l-1.37,0.7l-4.95-4.14l0.9-1.2l-2.19-1.9l-0.6-2.28l-2.22-0.43l0.19-3.16
		l-3.41-0.49l-4.61-4.76l-1.57-0.57l-3.7,0.55l-2.3-1.32l0,0l18.31-3.26l10.7-7.5l-0.21-34.89l-6.83-9.45l-5.59-1.85l-0.83,0.68
		l-1.24-0.41l0.06,1.1l-3,1.1l-0.95-0.36l-0.73,0.75l0.44,0.91l-0.88,0.63l-2.35,2.26l1.3,1.9l-0.49,2.13l0.77,0.29l-1.23,3.42
		L37,222.39l-2.12-0.75l-1.68,0.75l-0.81-0.92l0,0l-4.47-1.46l-4.25-8.57l-3.16-1.1l-0.32-1.78l-1.99-2.45l0.15-1.8l-2.32-2.43
		l-0.71-5.35l-2.8-4.75l-0.41-3.24l-2.2-1.87l1.28-4.55l-1.79-4.26l2.14-9.84L10.91,161.61z"/>
	<path id="KH-3" fill="#1E3250" stroke="#1E3250" stroke-width="0.5" d="M321.47,317.27l3.57-0.729l0.44-1.44l1.64-0.739l5.6,0.68
		l-0.14-1.05l1.1-0.02l4.87,5.77l6.22-0.82l4.83,0.51l-0.01,1.95l1.71,0.37l2.51-2.08l1.57,0.04l2.19,1.19l1.04,1.97l1.55-0.16
		l0.87,0.91l1.19-1.41l-1.53-5.17l0.7-2.89l-2.93-2.66l-0.9-3.84l0.7-1.78l-2.45-0.7l-2.26-3.15l0.17-1.2l3.26-1.3l1.3-2.44
		l3.32,1.04l2.82-1.26l2.13,0.97l2.85-0.72l2.15,2.06l4.84,0.12l1.69,1.69l0.02,1.44l1.89,0.11l2.35-1.25l1.75-5.15l-0.58-0.6
		l1.8-2.61l0.67-3.74l1.01-0.66l-0.44-2.37l1.73,0.79l0.47-1.03l1.84,0.17l1.16-0.83l1.56,1.57l0.53,0.41l1,1.39l0.44-0.68l0.9,0.68
		l0.18,0.46l0,0l2.43,1.83l3.16-0.74l2.88-4.67l15.5,0.26l7.62-1.22l0,0l4.149,12.34l0.94,7.39l-0.64,3.42l-3.62,2.02l0.31,3.89
		l4.19,1.169l6.42,0.171l1.859,6.699l1.03,0.21l1.48-2.52l0.72,0.939l0.85-0.5l0.561,0.971l1.43,0.12l1.92-0.45l0.7,0.08l1.94-1.09
		l1.989,3.159l2.91,0.181l1.2-1.24l0.53,0.85l1.1-0.34l0.07,1.36l0.279,0.63l1.28,1.18l1.5,1.801l-0.28,1.909h1.591l1.899-1.359
		l-0.37,1.54l2.21,1.75l-0.689,1.16l0.58,1.38l-2.26,1.81l1.189,0.78l0.22,0.41l2.07,0.949l0.56,0.95l1.11,0.34l2.271-0.85
		l0.729,0.1l0.59-0.109l1.05,2.46l1.48,0.05l0.37,0.44l0.56,0.479l1.03-0.77l1.17,1.81l1.92,0.67l1.061,3.5l-1.271,1.271l0.32,3.199
		l0.3,0.82l0.38,1.84l2.47-2.33l2.66,0.46l0.221,1.07l1.54-1.35l2.479,1.83l6.99-1.551l5.18,1.94l2.95-0.55l2.72-3.011l1.47,0.471
		l0,0l6.801,13.33l-2.521,0.13l-0.8,1.12l-0.26,2.189l1.2,2l-1.65,1.99l-2.18,6.14l2.6,6.7l1.92,1.91l-0.33,2.51l-2.03,0.07
		l-6.17-3.34l-10.47,2.7l-3.62-3.82l0.36-0.88l-0.82-0.971l-2.06-0.979l-5.13-0.35l-2.42-2.82l-2.521,0.58l-1.68,1.52l-2.51-1.029
		l-3.061,0.09l-2.45-2.761l-3.54-2.05l-5.38,1.561l-0.96,2.6l0.67,2.86l-1.6,2.859l-2.44,1.521l-0.66,1.1l0.49,1.69l-3.42,3.78
		l-8.83-4.69l-5.53,3.61l-1.06,3.47l-2.3,0.21l0.02,2.41l0,0l-1.819-0.96l-0.61-1.8l-1.93-1.471l-1.28-4.239l-3.76-3.24l-1.59-3.94
		l-2.521-2.29l-10.24,0.03l-19.05-2.88l-2.47,1.31l-2.58-1.91l-1.7-2.939l0.87-1.08l-0.59-1.88l1.09-0.79l-1.75-2.71l-1.76,0.859
		l-3.48-2.279l-2.38,0.39l-1.93-2.13l-5.41,1.65l0.35,1.51l-2.46,0.71l-1.8,3.51l-7.04,3.65l-1.66,1.83l-3.02,0.779l0.86,2.011
		l-0.54,1.29l0,0l-4.84-0.801l-2.4,0.94l-1.68-2l-4.75-0.21l0.12-5.11l1.98-1.92l-0.17-1.06l-3.22-4.13l-4.23-0.641l-1.58-3.16
		l-3.46,2.83l-1.11-2.22l-1.86,5.17l-3.67,3.351l-2.34-1.921l-2.25,0.29l-2.2-1.64l-0.41,0.93l-2.28,0.29l0.43-5.699l-1.91-2.16l0,0
		l1.37-7.41l1.64-0.75l1.82-3.97l3.04-0.561l0.33-2.89l0.9-0.9l-0.89-1.72l0.63-1.28l-0.46-2.27l-1.33-1.79l-1.12,0.12l2.08-7.75
		l1.93-2.881l-0.17-5.439l-0.33-0.91l-1.68,0.12l0.57-2.021l-1.34-0.449L321.47,317.27z"/>
	<path id="KH-4" fill="#1E3250" stroke="#1E3250" stroke-width="0.5" d="M258.05,268.19l6.52,3.16l0.46,5.32l-1.67,0.77l0.78,1.95
		l2.87,1.08l-2.19-2.18l1.41,0.4l3.08,2.55l3.03,1.22l3.46-0.48l1.6-3.04l-0.64-1.95l3.94-2.69l6.47-2.62l4.09-0.63l8.31,3.45
		l6.11,3.72l9.27,2.4l1.17,1.33l-1.59,4.51l3.07,1.32l-1.52,0.95l0.88,2.11l0.91,0.04l-0.82,0.92l0.8,0.08l0.75,1.89l1.57-0.37
		l0.62,2.4l-0.67,5.04l2.85-1.51l0.78-2.24l1.18,3.84l-1.15,1.95l0.28,1.42l-3.79,2.21l-1.16,2.67l-0.23,2.39l2.59,5.701l0,0
		l0.66,1.54l1.35,0.449l-0.57,2.021l1.68-0.12l0.34,0.91l0.17,5.439l-1.93,2.88l-2.09,7.75l1.13-0.13l1.33,1.79l0.45,2.271
		l-0.62,1.279l0.89,1.721l-0.9,0.91l-0.33,2.89l-3.04,0.56l-1.81,3.971l-1.65,0.75l-1.37,7.41l0,0l-1.35-1.011l-2.97,0.73
		l-0.8,1.069l-0.95-0.93l-1,0.8l0.98,1.801l-0.27,1.79l1.5,1.68l-5.54,1.58l0,0l-4.01,2.18l-1.97-0.76l-1.98,1.359l-2.54-0.939
		l-3.72,0.72l-1.55,1.62l-1.83,0.21l-5.16,6.12l-1.93-0.05l-0.49,0.76l-5.58,0.18l-2.87-2.529l-10.89-1.561l-6.55-7.43l0.23-3.311
		l-1.65-3.14l-5.6-4.21l0.25-1.8l-1.59-2.79l0.96-3.62l-0.61-2.25l-0.88-1.27l-3.87-1.131l-2.51-7.77l0,0l-0.32-2.33l-1.5-1.36
		l0.01-7.22l-1.6-1.479l1.04-8.25l1.04-2.15l3.65-3.87l5.66-1.26l2.41-2.92l3.78-0.41l3.04-3.65l1.73-5.5l2.91-2.29l2.04-0.47
		l-1.55-4.46l1.11-8.1L258.05,268.19z"/>
	<path id="KH-5" fill="#1E3250" stroke="#1E3250" stroke-width="0.5" d="M238.42,337.7l2.51,7.77l3.87,1.13l0.88,1.271l0.61,2.24
		l-0.96,3.62l1.58,2.789l-0.24,1.811l5.6,4.2l1.65,3.14l-0.23,3.311l6.54,7.43l10.89,1.56l2.87,2.521l5.58-0.181l0.49-0.76
		l1.93,0.05l5.16-6.119l1.83-0.211l1.55-1.619l3.72-0.721l2.54,0.94l1.98-1.36l1.97,0.76l4-2.18l0,0l1.67,0.641l0.06,2.6
		l-7.97,19.95l-1.17,5.77l0.21,4.351l-2.14,8.149l-0.75,7.36l2.75,1.85l1.49-1.89l1.54,0.979l2.21-1.31l1.95,1.45l1.7,0.41
		l0.44-0.92l1.71,1.319l0.68-0.02l1.3-0.061l1.15-0.229l-1.24,2.49l-6.14,6.64l0,0l-2.51,3.3l-0.73,3.22l-2.74,17.36l0.06,8.75
		l-5.25,0.53l-0.98,0.95l-11.86-3.57l-2.88-3.04l-6.82,0.939l-6.13-1.77l0,0l-1.55-1.35l-1.19,1.439l-2.4,0.59l-3.29-1.01
		l-3.65,4.47l-8.13,1.471l-3.91-0.15l-3.56-1.78l-2.98-4.7l-1.85-0.859l0,0l0,0l0,0l-5.35-6.86l-0.32-4.399l-1.36-3.761l1.84-2.899
		l-0.05-3.87l-2.26-4.82l-4.42-2.569l0.36-1.9l-1.47-4.19l2.88-2.989l-1.39-4.601l-3.48-0.729l-2.81-3.561l-7.93,1.69l-1.38-2.45
		l-1.27-0.15l-0.63-2.02l-6.27-2.5l0.34-0.78l-5.55-4.96l-2.93-0.58l0.91-6.85l-3.49-5.391l1.15-3.68l-1.17-2.92l2.38-2.16
		l0.02-1.49l-1.13-0.869l0.05-4.91l5.44,1.689l3.63-0.93l0,0l2.2-0.63l-0.31-1.66l2.37-2.95l3.58-1.59l-0.45-4.2l2.73-1.46
		l4.29,0.95l2.3,4.17l3.19,0.16l2.93-2.64l2.24-0.03l-1.27-4.351l0.92-1.47l1.92-0.069l0.52-1.94l1.31,0.29l1.15-5l-0.49-2.13
		l1.32,0.109l1.38-1.14l3.49,0.48l0.75-0.92l3.89,1.609l0.04-1.899L238.42,337.7z"/>
	<path id="KH-6" fill="#1E3250" stroke="#1E3250" stroke-width="0.5" d="M403.76,164.97l1.66,5.14l-0.72,5.1l0.38,11.41l2.45,1.02
		l2.27,2.42l0.23,2.56l0,0l-0.13,2.6l2.05,7.22l3.76,2.81l1.521,2.27l-2.04,6.68l2.279,6.57l-0.85,3.06l4.35,3.57l-0.95,2.57
		l-1.85,1.76l0.77,2.02l2.07,0.96l1.49,3.82l-2.34,4.22l1.66,2.69l-1.061,3.87l1.18,0.78l1.421,3.26l-0.771,3.25l2.641,3.67
		l1.239,6.8l-0.67,5.33l2.13,12.1l0,0l-7.62,1.22l-15.51-0.26l-2.88,4.67l-3.16,0.74l-2.43-1.83l0,0l-0.18-0.46l-0.9-0.68
		l-0.44,0.68l-1-1.39l-0.54-0.42l-1.56-1.57l-1.16,0.83l-1.83-0.17l-0.48,1.03l-1.72-0.79l0.43,2.37l-1.01,0.66l-0.68,3.73
		l-1.79,2.61l0.58,0.6l-1.75,5.15l-2.35,1.25l-1.89-0.11l-0.02-1.44l-1.69-1.68l-4.84-0.12l-2.14-2.06l-2.85,0.72l-2.13-0.98
		l-2.82,1.26l-3.32-1.03l-1.3,2.44l-3.27,1.3l-0.16,1.2l2.26,3.15l2.45,0.71l-0.7,1.77l0.91,3.84l2.92,2.66l-0.69,2.9l1.52,5.17
		l-1.19,1.41l-0.87-0.91l-1.54,0.17l-1.05-1.97l-2.18-1.19l-1.57-0.05l-2.51,2.09l-1.71-0.38l0.01-1.95l-4.83-0.5l-6.21,0.82
		l-4.87-5.77l-1.1,0.02l0.14,1.05l-5.59-0.68l-1.64,0.74l-0.44,1.439l-3.57,0.73l0,0l-2.59-5.7l0.23-2.39l1.16-2.67l3.79-2.21
		l-0.28-1.42l1.15-1.95l-1.18-3.84l-0.78,2.24l-2.85,1.51l0.67-5.04l-0.62-2.4l-1.57,0.37l-0.75-1.89l-0.8-0.08l0.82-0.92
		l-0.91-0.04l-0.88-2.11l1.52-0.95l-3.07-1.32l1.59-4.51l-1.17-1.33l-9.27-2.4l-6.11-3.72l-8.31-3.45l-4.09,0.63l-6.47,2.62
		l-3.94,2.69l0.64,1.95l-1.6,3.04l-3.46,0.48l-3.03-1.22l-3.08-2.55l-1.41-0.4l2.19,2.18l-2.87-1.08l-0.78-1.95l1.67-0.77
		l-0.46-5.32l-6.521-3.16l0,0l-19.71-8.74l-1.87-4.43l0,0l3.11-3.75l0.88-3.64l1.66-0.58l0.35-2.05l4.54-5.29l1.01-0.979l0.55-1.41
		l2.76-0.25l0.59-1.03l6.33-1.91l2.71-5.56l2.51-1.58l2.59-3.55l2.12,0.09l2.01-2.36l0.58-0.89l-1-1.21l-0.09-1.99l0.9-1.88
		l0.78,0.44l0.7-13.43l0.85-2.57l3.54-2.25l5.2-1.78l1.94-5.59l0,0l10.04-2.49l7.78-4.38l1.98,0.17l2.15-1.16l2.38-0.08l1.78,1.54
		l14.28-0.83l1.34,3.18l-3.44,8.05l0.33,6.47l1.37,1.46l-0.1,2.06l5.62,8.03l2.33,2.25l2.68,0.37l21.47-14.18l5.3-7.67l10.85-5.72
		l9.92-11.29l14.94-7.27l5.47-1.52L403.76,164.97z"/>
	<path id="KH-7" fill="#1E3250" stroke="#1E3250" stroke-width="0.5" d="M231.84,453.41l1.85,0.859l2.98,4.7l3.56,1.78l3.91,0.15
		l8.13-1.471l3.65-4.47l3.29,1.01l2.4-0.59l1.19-1.439l1.56,1.35l0,0l-0.01,7.51l2.65-0.51l2.88,1.46l0.73,0.78l0.92,0.83l2.38-1.74
		l-0.1,1.399l1.57,0.16l2.87,4.23l2.31,7.56l-0.07,4.24l-2.31,4.46l1.67,0.91l6.09,0.11l4.08-2.04l4.86-0.511l1.98,0.971l2.9,4.64
		l1.16,2.82l-0.07,4.029l2.61,3.261l-2.82,1.909l-0.26,3.16l-3.85,5.511l0.32,9.31l4.48,0.47l-0.41,4.011l0.78,0.8l-0.14,3.779
		l0.88,1.61l-0.74,0.6l0,0l-8.2-1.08l-0.02,1.32l-7.03-0.06l-0.82,3.17l-2.88,1.46l-0.99,4.46l-2.92,1.24l-0.87,2.47l-2.8,2.6
		l-2.34-3.06l-4.85,1.01l-3.03-2.93l0,0l1.29-1.521l-1.31-0.979l0.13-1.021l-1.9,0.54l0.95-1.64l-0.57,0.41l-0.62-0.9l0.43-0.82
		l1.1,0.79l1.3-0.76l-0.85-0.59l-0.13-2.53l-1.76-0.71l-1.82-2.29l0.08-3.18l-0.77-0.88l-1.22-0.311l-9.36,0.17l-2.17-1.83
		l-1.27,5.16l0,0l-2.68-2.7l-3.72,0.061l0.29,1.6l-1.73-0.29l-2.77,2.61l-1.2-0.76l-0.53-2.95l-1.8,1.21l-2.13-0.44l-3.98,2.05
		l-6.48-0.35l-11.05-4.78l-2.59-0.06l-2.27-2.5l0,0l1.54-0.91l1.05-0.03l1.43-0.97l1.83-5.85l-1.27-4.66l-1.43-0.57l-2.61-4.37
		l-0.33-2.66l1.54-1.369l-0.12-2.86l1.51-2.39l-2.81-3.771l1.15-1.41l-1.76-1.68l0.85-2.561l1.04-0.63l0.16-4.64l-2.27-1.77l0,0l0,0
		l0,0l0,0l0,0l6.99-5.061l2.88-3.31l2.65-0.011l0.59,1.36l2.95-0.51l3.39-1.91l0.21-1.69l-1.96-2.31l2.21-1.58l-0.95-4.33l0.15-4.97
		l-2.26-2.88l3.32-0.13L231.84,453.41z"/>
	<path id="KH-8" fill="#1E3250" stroke="#1E3250" stroke-width="0.5" d="M304.74,369.09l5.54-1.58l-1.5-1.68l0.27-1.79l-0.98-1.8
		l1-0.8l0.95,0.93l0.8-1.07l2.97-0.729l1.35,1.01l0,0l1.92,2.16l-0.43,5.7l2.27-0.29l0.41-0.931l2.2,1.641l2.25-0.29l2.34,1.92
		l3.67-3.351l1.86-5.17l1.11,2.221l3.45-2.83l1.58,3.16l4.23,0.64l3.22,4.13l0.17,1.06l-1.99,1.921l-0.12,5.1l4.75,0.22l1.67,1.99
		l2.4-0.94l4.85,0.801l0,0l-0.71,1.08l0.26,2.359l-1.15,1.061l-1.66,0.02l-1.56,3.71l1.35,2.33l-2.6,1.21l-1.02,2.2l1.13,1.359
		l0.72,4.591l-0.58,0.77l1.05,2l1.57,0.66L353,405.5l2.03,1.08l1.74-0.641l3.15,1.79l1.77-0.63l1.84,4.29l1.74,0.3l-0.12,1.57
		l1.27,1.36l2.26,1.37l0.93-0.83l0.92,1.05l1.02-1.13l2.28,4.34l-5.1,4.18l2.23,8.66l0.87,8.71l-2.33,6.12l-2.02,1.76l-0.07,3.4
		l-1.38,3.92l-4.92,5.31l0.31,7.53l-1.63,8.93l0.72,5.521l0,0l-4.27-1.43l-6.09,0.47l-0.23-0.97l1.72-2.5l-0.82-1.86l-3.46,0.67
		l-0.6,2.48l-3.02,0.68l-0.19,1.82l-1.27,0.5l0.21,1.479l-0.86,0.47l0,0l-0.54-1.27l1.28-2.45l-1.42-4.28l-0.05-3.619l-4.28-0.9
		l-0.67-1.14l0.9-2.71l-0.67-0.971l0.4-2.41l2.73-5.489l0.19-7.141l-0.89-0.42l0.67-1.66l-3.83-0.1l-0.87-1.16l0.7-2.58l-0.58-2.149
		l-5.78-3.7l-0.83-2.431l1.55-3.55l-0.12-3.76l-1.35,0.37l-2.23-2.17l-2.02-0.811l-2.13,0.341l-2.82,0.619l-2.23-0.04l-4.25-1.38
		l-5.46,2.04l-2.9-1.76l0,0l6.14-6.64l1.24-2.49l-1.15,0.22l-1.3,0.061l-0.68,0.02l-1.71-1.32l-0.44,0.921l-1.7-0.41l-1.95-1.45
		l-2.21,1.3l-1.55-0.97l-1.49,1.89l-2.75-1.85l0.75-7.36l2.14-8.14l-0.21-4.36l1.16-5.77l7.97-19.95l-0.06-2.601L304.74,369.09z
		 M317.02,391.21L317.02,391.21l0.69,1.11l3.17-2.351l-1.24-1.59l0,0l8.14-0.05l0,0l-0.61,2.189l2.93,7.881l0.41,3.619l1.67,1.2
		l1.9,6.471l-1.8,1.31l-1.66-0.29l-3.14,1.17l-0.1,4.521l-1.58-0.33l-0.91-0.761l-1.1-1.89l-1.8-0.689l-1.44,0.75l-0.69,2.279
		l-2.79,1.66l-2.07-0.41l-0.67,1.63l-4.01-2.34l1.32-6.76l3.33-0.84l0.15-1.05l-0.87-1.87l-1.58,0.25l-0.77-2.17l-1.46-0.23
		l0.57-2.2l-0.68-0.56l0.8-5.61l1.08-0.91l-0.54-1.189l1.51-0.62l-0.4-0.94l1.57-0.54l0.37-1.069l1.09,0.189l-0.15,0.71
		L317.02,391.21z"/>
	<path id="KH-9" fill="#1E3250" stroke="#1E3250" stroke-width="0.5" d="M99.76,411.55l-0.55,0.84l-3.25-0.13l-0.9-3.069l0.86-0.24
		l0.62,1.16L99.76,411.55z M98.05,419.93l1.32-2.58l-2.11-0.479l-0.65,0.49l1.55,1.05L98.05,419.93z M98.49,412.8l-2.61-0.069
		l-1.24-2.5l-0.17-0.591l-1.03-1.319l-0.41-0.03l-0.58-2.23l-4.03,1.7l-0.1,2.11l3.52,5.2l-0.31,3.17l0.82,1.529l3.51-3.409
		l3.08-0.551l1.61,0.591l0.26-1.2l2.21-0.19l0.51-0.67l-1.86-0.729l-1.29-0.301l-0.05,1.21L98.49,412.8z M95.2,430.51l-1.58-1.67
		l0.75-3.58l-2.06-4.91l-1.75-0.31l-2.37,1.31l0.28-1.18l-0.78-0.52l-1.31,3.3l1.31,3.02l-0.73,1.95l1.92,4.66l-1.24,1.6l0.72,3.4
		l-0.72,0.45l2.3,3.51l0.92-0.52l1.3,1.04l1.06-0.761l2.13-5.63L95.2,430.51z M231.84,453.41l-5.35-6.86l-0.32-4.399l-1.36-3.761
		l1.84-2.899l-0.05-3.87l-2.26-4.82l-4.42-2.58l0.36-1.899l-1.47-4.19l2.89-2.99l-1.4-4.6l-3.47-0.74l-2.81-3.56l-7.93,1.689
		l-1.38-2.449l-1.27-0.15l-0.64-2.01l-6.27-2.5l0.34-0.78l-5.55-4.96l-2.93-0.57l0.91-6.85l-3.49-5.391l1.15-3.68l-1.16-2.92
		l2.37-2.17l0.02-1.49l-1.13-0.87l0.05-4.909l5.44,1.689l3.63-0.93l0,0l-1.91-1.431l-1.42-3.199l-5.15-6.42l-2.24-0.33l-1.69,0.989
		l-1.96-1.75l-2.39,1.551l-1.39-0.48l-1.98-1.25l0.71-0.64l-0.41-2.101l-2.78-0.3l-4.67-2.52l-1.08-1.101l1.04-0.93l-0.33-1.44
		l-3.57-1.33l-4.49-5.35l-3.92-2.25l0.13-1.26l-3.63-1.34l-2.07,0.89l-1.97-2.18l-5.19,3.67l-4.1-2.76l-1.02,0.09l-1.36,2.37
		l0.73,2.159l-2.78,1.33l-0.23,3.96l-3.96,1.33l-2.33,4.2l-2.6,0.75l-2.76-1.09l-1.83,1.9l-2.85-0.24l-0.83,2.3l-3.06-0.84
		l-4.77,2.49l-5.6-0.391l-17.55-6.95l-21.59-1.41l-2.25-1.05l0,0l0.07,3.9l2.34,5.01l1.92,2.01l0.45,5.11l1.73,4.59l2.65,3.98
		l1.37,2.22l1.85,2.01l1.42,0.53l1.38,2.16l0.85,2.88l-0.1,12.12l3.15,4.58l-0.41,3.31l0.89-0.18l1.92,2.71l1.03-6.65l-1.24-1.92
		l0.69-1.81l-0.89-2.79l1.68-6.62l-1.62-1.53l0.31-0.88l2.1,2.65l-0.58,1.88l2.08,0.439l-2.77,3.71l0.24,3.83l1.24,1.561l0.16-2.04
		l1.05-0.67l1.6,0.35l1.72,1.95v0.87l-0.69-0.05l-0.44-1.28l-1.95-0.86l-2.13,9.061l1.84,1.55l-0.82,0.35l-1.68-1.529l-1.61,2.119
		l0.62,1.57l1,0.59l3.01,1.19l0.97-3.33l0.4,1.25l4.53-0.38l0.24-3.79l0.99,0.17l-0.79,0.97l0.45,1.53l1.23-0.94l-0.79,1.71
		l-0.69-0.31l-0.07,3.31l0.93,1.25l0.45,0.28l0.21,1.29l3.29,1.15l0.86,0.87l-0.55,0.97l3.47,1.04l2.4-1.32l-0.3-1.96l2.05,1.36
		l-1.13,2.68l-0.38,0.28l-1.85-0.351l-4.56,3.24l-0.56,0.53l-0.5,1.75l0.51,0.62l0.25-0.931l1.7,2.811l-0.68,0.55l1.15,5.53
		l1.58,1.16l3.36-0.841l2.1,6.54l-1.03-0.58l-0.63-1.67l-0.64,0.38l-1.65-0.8l-0.17,1.181l-1.68,1.29l-1.58-0.21l-0.4,1.72
		l-2.26,0.1l0.82,1.98l-1.44,1.81l0.75,2.05l-3.05,1.95l0.86,0.971l3.02-0.87l4.36,9.31l0.52,6.05l-1.34,2.471l-0.91,0.3l-0.67-0.86
		l-0.62,0.63l1,0.49l1.51,9.13l-0.03,4.58l-1.58,2.22l0.28,3.79l3.05,1.811l1.14,2.14l-0.52,1.43l-1.18-0.199l3.03,1.8l0.53-1.34
		l1.03-0.15l3.3,2.08l0.08-1.61l3.76-1.39l0.56-1.69l1.29-0.239l2.01-2.681l4.25-1.01l1.03,1.24l1.85,0.07l4.49,2.329l1.91,3.99
		l1.73-1.899l2.19,0.619l2.79-2.189l2.02,0.109l-1.65-8.609l4.32-10.351l0.38-3.54l2.09-1.93l0.41-1.72l-0.65-0.561l-2.92,0.761
		l2.88-2.851l1.72-3.229l4.46-2.61l4.84,0.101l4.84,9.31l8.17,1.63l0.07,1.391l1.17,0.729l1.92-1.04l0.77-2.2l4.34-4.02l5.97-2.33
		l-1.37,1.67l-2.16,0.03l-2.92,1.739l-3.46,3.931l-0.45,1.08l1.65,0.42l-0.72,0.59l-6.14,1.53l1.99,3.75l0.21,2.05l-0.96,1.109
		l3.17,4.54l3.51,10.86l-0.44,4.56l-0.94,1.65l-3.31,1.81l-0.29,3.83l-1.77,1.74l0.78,1.91l3.08,0.78l0,0l8.86-9.83l3.37-11.65
		l3.75,1.771l12.18-6.41l0,0l6.99-5.061l2.88-3.31l2.65-0.01l0.59,1.359l2.95-0.51l3.39-1.91l0.21-1.689l-1.96-2.311l2.21-1.58
		l-0.95-4.33l0.15-4.97l-2.26-2.88l3.32-0.13L231.84,453.41z M124.91,512.4l1.96,0.13l1.78-1.66l0.48-2.101l-0.91-0.42l-1.08,1.45
		l-0.97-0.6l0.55-0.8l-0.92-1.48l-3.32,0.41l-1.1-1.72l0.6-0.94l-0.93-3l0.75-0.729l-3.12-1.11l-1.66,1.97l-2.93-0.79l-1.54,4.25
		l0.64,0.66l0.78-0.86l1.02,0.421v2.51l1.15,1.33l1.85,0.42l0.92-1l1.5,0.7l2.16,6.54l1.33-0.96L124.91,512.4z M131.44,524.61
		l-0.29-0.96l-1.11,2.229l-2.23-1.43l0.77-1.101l-1.06-1.439l2.54-0.351l-1.39-2.34l-1.57,1.021l-0.79-0.82l-1.86,1.8l2.13,5.391
		l1.15,0.06l1.53,2.95l1-0.2l0.02-2.13l1.77-1.76L131.44,524.61z M107.2,560.17l0.33-1.43l1.29-0.471l-1.56-0.47l-0.45-1.05
		l-1.55,2.51l0.67,1.25l1.84,0.7l0.45,2.7l1.3-1.66L107.2,560.17z"/>
	<path id="KH-10" fill="#1E3250" stroke="#1E3250" stroke-width="0.5" d="M410.04,192.63l2.25,0.09l6.32,2.92h4.51l5.83,2.88
		l7.39,6.52l6.311,2.28l2.649-0.11l3.86-2.97l2.72-0.18l2.17-1.39l0.25-2.24l2.181-3.45l0.199-4.29l4.71,1.9l2.29-1.42l0.23-4.29
		l7.359-9.46l0.16-2.45l5.79-1.93l10.74,1.15l2.24-1.04l0.38-2.45l3.01-2.23l3.76,0.92l1.15-1.1l5.49,0.86l0,0l0.88,7.45l-1.24,6.85
		l2.93,6.66l4.681,2.72l1.939,2.32l0.83,2.77l-10.08,0.07l-1.359,4.62l0.279,3.72l4.841,6.27l3.029,1.42l1.42,2.92l3.141,1.39
		l2.729-0.34l10.641,6.12l6.14,4.5l1.71,3.53l-0.51,5.51l-2.03,3.12l-6.29,5.61l-4.83,0.91l-9.32,7.86l-3.02,5.25l-0.48,4.23
		l-4.39,10.78l-0.55,3.6l1.53,1.78l15.52,9.44l2.67,0.24l1.99,2.18l3.76,1.47l5.15,11.6l12.2,3.54l6.859,4.601l4.95,7.47l-1.15,4.91
		l0.74,2.109l-1.02,2.5l1.069,3.83l0,0l-2.1,1.46l-7.36,12.61l-1.439,0.47l-3.29,0.36l-3.58-3.03l-0.73,0.97l1.29,1.971h-1.77
		l-2.22-1.05l-12.12,0.739l-1.471-1.51l-3.409,1.37l-2.601-0.54l-1.68-1.9l-1.68,0.32l-1.171,1.7l-2.5-0.13l0,0l-1.47-0.471
		l-2.72,3.011l-2.95,0.55l-5.18-1.94l-6.99,1.551l-2.479-1.83l-1.54,1.35l-0.221-1.07l-2.66-0.46l-2.47,2.33l-0.38-1.84l-0.3-0.82
		l-0.32-3.199l1.271-1.271l-1.061-3.5l-1.92-0.67l-1.17-1.81l-1.03,0.77l-0.56-0.479l-0.37-0.44l-1.48-0.05l-1.05-2.46l-0.59,0.109
		l-0.729-0.1l-2.271,0.85l-1.11-0.34l-0.56-0.95l-2.07-0.949l-0.22-0.41l-1.189-0.78l2.26-1.81l-0.58-1.38l0.689-1.16l-2.21-1.75
		l0.37-1.54l-1.899,1.359h-1.591l0.28-1.909l-1.5-1.801l-1.28-1.18l-0.279-0.63l-0.07-1.36l-1.1,0.34l-0.53-0.85l-1.2,1.24
		l-2.91-0.181l-1.989-3.159l-1.94,1.09l-0.7-0.08l-1.92,0.45l-1.43-0.12l-0.561-0.971l-0.85,0.5l-0.72-0.939l-1.48,2.52l-1.03-0.21
		l-1.859-6.699l-6.42-0.171l-4.19-1.169l-0.31-3.89l3.62-2.02l0.64-3.42l-0.94-7.39l-4.149-12.34l0,0l-2.13-12.11l0.67-5.33
		l-1.24-6.8l-2.64-3.67l0.77-3.25l-1.42-3.26l-1.18-0.78l1.05-3.86l-1.65-2.7l2.34-4.22l-1.489-3.82l-2.07-0.96l-0.77-2.03
		l1.84-1.75l0.95-2.58l-4.351-3.57l0.86-3.06l-2.28-6.57l2.04-6.68l-1.52-2.27l-3.761-2.82l-2.05-7.22L410.04,192.63z"/>
	<path id="KH-11" fill="#1E3250" stroke="#1E3250" stroke-width="0.5" d="M503.99,171.15l8.43-2.15l8.9,4.68l2.87,3.31l2.369,0.8
		l3.021-0.41l2.08,2.16l3.3,1.85l0.9-0.47l0,0l17.01,12.01l3.78,3.59l11.899,3.1l4.09-0.59l3.49,0.65l3.57-1.28l2.069,0.79
		l2.98-1.24l3.25,0.25l0.91,1.75l1.3-0.09l4.26-3.92l0.09-3.4l1.28-1.48l-0.21-1.54l-0.229-2.33l-2.08-2.64l-0.41-0.61l0.859-2.69
		l3.61,1.47l2.09-0.89l1.19-1.77l1.439-0.2l1.5,0.83l1.091,2.16l3.069-0.1l5.53-3.67v-2.71l1.05-1.08l3.15,1.03l2.79,6.27l5.62-0.75
		l3.909,4.91l2.891-0.56l0.28-0.88l1.069-1.24l4.63-1.87l1.74-0.77l1.271-2.11l4.17,4.96l2.149,0.11l1.971-0.62l4.09,2.05
		l1.979-1.46l0.24-1.17l2.85-0.07l0,0l-14.409,34.1l0.159,4.05l0.96,0.59l-0.279,1.29l0.989,1.48l-2.13,0.74l-0.359,3.19l2.18,3.57
		l-1.25,2.53l0.86,2.21l1.63,1.18l-0.03,1.38l5.26,5.06l-0.26,1.37l1.32,2.39l-0.48,5.09l0.97,2.31l-0.949,2.63l2.779,3.63
		l-1.3,1.53l-0.2,2.42l0.381,2.69l1.5,1.57l-0.591,4.84l1.2,2.08l-3.46,4.59l2.12,3.38l-0.49,2.1l-1.29,1.03l0.431,2.13l-2.91,4.66
		l0.13,2.7l-0.04,2.87l-0.05,2.55l-4.16,2.94l-5.4,2.2l-1.26,2.15l-1.62,0.24l-1.32,5.89l-2.1,0.61l-3.72-3.89l0.22-1.76
		l-1.689-2.59l-3.551-3.55l-3.59,1.57l-1-1.48l-3.45,1.41l-1.569-0.38l-4.69,3.66l-3.51-0.3l-3.37,2.23l-2.85,0.59l-1.431,3.21
		l-0.1,2.63l-4.5,2.63l-1.12,3.44l-2.26-0.91l-0.48,1.25l1.07,1.87l-2.22,0.65l-2.011,3.35l-4.989,2.05l1,0.75l-2.94,3.04l-9.06,2.9
		l-4.63-1.47l-3,0.93l-2.45-0.67l-1.44-1.431l-2.109,0.511l-0.881-0.641l0,0l-1.069-3.83l1.02-2.5l-0.74-2.109l1.15-4.91l-4.95-7.47
		l-6.859-4.601l-12.2-3.54l-5.15-11.6l-3.76-1.47l-1.99-2.18l-2.67-0.24l-15.52-9.44l-1.53-1.78l0.55-3.6l4.39-10.78l0.48-4.23
		l3.02-5.25l9.32-7.86l4.83-0.91l6.29-5.61l2.03-3.12l0.51-5.51l-1.71-3.53l-6.14-4.5l-10.641-6.12l-2.729,0.34l-3.141-1.39
		l-1.42-2.92l-3.029-1.42l-4.841-6.27l-0.279-3.72l1.359-4.62l10.08-0.07l-0.83-2.77l-1.939-2.32l-4.681-2.72l-2.93-6.66l1.24-6.85
		L503.99,171.15z"/>
	<path id="KH-12" fill="#1E3250" stroke="#1E3250" stroke-width="0.5" d="M320.9,388.31l6.87,0.011l0,0l-0.6,2.189l2.93,7.88
		l0.41,3.62l1.67,1.2l1.9,6.47l-1.8,1.32l-1.67-0.29l-3.13,1.17l-0.11,4.521l-1.58-0.33l-0.91-0.761l-1.1-1.89l-1.8-0.689
		l-1.44,0.75l-0.69,2.279l-2.79,1.66l-2.08-0.41l-0.66,1.63l-4.02-2.34l1.33-6.76l3.33-0.84l0.15-1.05l-0.87-1.87l-1.58,0.239
		l-0.77-2.17l-1.45-0.229l0.56-2.2l-0.68-0.56l0.8-5.61l1.08-0.91l-0.53-1.189l1.51-0.62l-0.4-0.94l1.57-0.54l0.37-1.069l1.1,0.189
		l-0.15,0.71l0,0l1.35,0.33l0,0l0.68,1.11l3.17-2.351l0,0l0,0l0,0l-1.23-1.6l0,0L320.9,388.31z"/>
	<path id="KH-13" fill="#1E3250" stroke="#1E3250" stroke-width="0.5" d="M314.93,41.68l0.08,0.77l2.44,0.54l0.29,1.36l3.77-1.89
		l4.11,2.32l4.06,0.95l1.06,1.2l1.08,0.21l0.35-1.27l1.78-0.14l1.58,0.96l2.09,2.71l-1.27,5.27l-0.84,0.49l2.12,1.69l2.49,5.04
		l0.18,3.13l3.23,3.17l3.99,0.68l1.35-0.79l1.72,0.29l4.39-3.11l1.38-2.1l-1.29-0.62l1.2-1.19l-0.23-2.02l3.13-3.77l-1.05-2.6
		l1.03-1.35l1.17,0.49l1.74-0.82l1.08,0.68l-0.27,3.99l2.21,3.54l2.05,1.42l1.03,5.38l0.98,0.6l0.01,2.04l1.2,1.01l1.05,3.25
		l6.09,2.2l-0.06,1.73l4.67,5.15l4.33,0.49l2.16-1.4l0.54,0.73l1.93-0.53l2.49,1.05l2.41-2.42l1.63,0.15l1.35-1.61l7.26-3.57
		l3.689,2.95l-0.21-1.45l1.98,0.09l1.92,2.83l0.4-1.11l1.59,0.96l-0.051,2.35l1.521,1.37l1.27-2.52l3.311,1.09l2.67,2.78l2.51-2.83
		l2.19,1.7l5.43,1.55l-0.27,4.94l1.1,2.63l13.15,10.94l0,0l-3.69,1.94l-13.78-0.17l-5.72,0.8l-1.33,1.76l0.33,1.71l1.44,0.93
		l-0.101,1.33l-1.979,1.17l-0.99-0.72l-1.29,0.57l-1.71-1.5l-3.9,0.88l-0.84,1.34l-0.979,0.04l-2.46-2.89l-2.29-0.97l-3.391,3.06
		l-3.12,1.37l-1.09,3.35l1.14,2.6l-0.54,5.13l1.14,2.1l1.89,1.19l1.94,3.87l1.53,7.04l-0.82,1.91l0.16,5.32l-1.15,6.59l0.45,6.7
		l-3.49,5.09l0,0l-1.68,2.061l-5.47,1.52l-14.94,7.27l-9.92,11.29l-10.85,5.72l-5.3,7.67l-21.47,14.18l-2.68-0.37l-2.33-2.25
		l-5.62-8.03l0.1-2.06l-1.37-1.46l-0.33-6.47l3.43-8.05l-1.34-3.18l-14.28,0.83l-1.78-1.54l-2.38,0.07l-2.15,1.16l-1.98-0.17
		l-7.78,4.38l-10.03,2.49l0,0l0.85-2.92l-0.87-2.86l0.94-2.75l-0.68-5.06l0.81-3.01l3.11-4.38l4.37-3.17l1.91-3.09l0.08-3.48
		l4.11-4.32l-1.11-0.7l-2.93,2.29l-4.2,1.43l-2.36-2.35l-5.57-0.23l-2.4-2.43l-15.43-1.87l0.44-1.13l-1.13-3.66l2.72-1.99l2.02-6.97
		l-1.52-1.42l0.02-5.17l-2.5-3.84l0.75-2.03l-2.47-1.66l-1.28-3.63l-2.54,0.29l-0.64-0.97l1.28-2.99l1.28,0.07l0.48-1.8l0.9-2.13
		l0.96-2.62l1.15-2.03l1.83-1.78l0.57-2.03l-0.88-2.49l1.03-2.28l-1.24-2.76l2.5-9.28l8.76-9.6l-5.74-4.2l-2.44-3.43l0,0l0.14-0.76
		l1.78-0.3l0.84-2.77l-1.27-3.18l0.14-2.9l1.92-8.19l0,0l0.91-2.27l2.44-1.32l4.48,2.76l5.35-0.48l0.25-2.35l7.93-6.02l0.87,0.23
		l0.99,2.63l3.06,0.54l2.93-4.65l2.02,1.53l-0.04,2.28l1.96-1.35l1.66,0.99l1.63-2.19l2.97-1.45l2.02-0.27L314.93,41.68z"/>
	<path id="KH-14" fill="#1E3250" stroke="#1E3250" stroke-width="0.5" d="M356.98,380.44l0.54-1.29l-0.86-2.011l3.02-0.779
		l1.66-1.83l7.04-3.65l1.8-3.51l2.46-0.71l-0.35-1.51l5.41-1.65l1.93,2.13l2.38-0.39l3.48,2.279l1.76-0.859l1.75,2.71l-1.09,0.79
		l0.59,1.88l-0.87,1.08l1.7,2.939l2.58,1.91l2.47-1.31l19.05,2.88l10.24-0.03l2.521,2.29l1.59,3.94l3.76,3.24l1.28,4.239l1.93,1.471
		l0.61,1.8l1.819,0.96l0,0l0.011,0.14l0,0l-3.29,1.32l-4.631-0.03l-0.289,1.29l-6.23,1.65l-0.38,2.29l-1.61,1.56l0.971,3.11
		l-2.391,2.779l0.43,4.021l-2.13,6.83l0.07,9.92l2.04,7.07l-2.09-0.051l-1.07-1.069l-1.229,0.8l0.25,0.979l-1.38,1.141l-2.261,6.42
		l1.25,7.1l2.42,2.561L412,461.1l-0.33,4.801l-2.97,5.489l1.649,1.38l1.881,0.211l0.609,2.76l0,0l-9.47,2.72l-3.5,0.32l-1.48,0.09
		l-2.75-2.04l-2.7,1.15l-3.08-2.23l-2.35,5.29l-2.51,1.43l-2.36,3.931l-1.11,0.18l-2.55,3.4l-9.14-4.641l-3.23,0.5l-6.07-2.37l0,0
		l-0.72-5.52l1.64-8.931l-0.32-7.529l4.92-5.311l1.38-3.92l0.07-3.399l2.02-1.75l2.33-6.12l-0.87-8.71l-2.22-8.67l5.09-4.181
		l-2.28-4.34l-1.02,1.13l-0.91-1.05l-0.93,0.84l-2.26-1.37l-1.27-1.37l0.12-1.569l-1.74-0.3l-1.84-4.29l-1.78,0.63l-3.15-1.79
		l-1.74,0.63l-2.02-1.08l0.74-1.71l-1.56-0.67l-1.05-2l0.58-0.771l-0.72-4.59l-1.13-1.359l1.02-2.2l2.6-1.21l-1.36-2.32l1.57-3.71
		l1.66-0.02l1.14-1.061l-0.26-2.36L356.98,380.44z"/>
	<path id="KH-15" fill="#1E3250" stroke="#1E3250" stroke-width="0.5" d="M201.18,214.08l12.08,16.03l10.14,10.83l7.17,3.4l2.84,3.4
		l3.07,7.28l0,0l1.87,4.43l19.7,8.74l0,0l3.8,13.79l-1.1,8.1l1.55,4.46l-2.04,0.47l-2.9,2.29l-1.73,5.49l-3.05,3.66l-3.78,0.41
		l-2.41,2.92l-5.66,1.26l-3.65,3.87l-1.04,2.14l-1.03,8.26l1.6,1.48l-0.01,7.22l1.5,1.36l0.32,2.33l0,0l-2.24,2.99l-0.04,1.899
		l-3.89-1.609l-0.75,0.92l-3.49-0.48l-1.38,1.14l-1.32-0.109l0.49,2.13l-1.15,5l-1.31-0.29l-0.52,1.94l-1.92,0.069l-0.92,1.47
		l1.27,4.351l-2.24,0.03l-2.93,2.64l-3.19-0.16l-2.3-4.17l-4.29-0.95l-2.73,1.46l0.45,4.2l-3.58,1.59l-2.37,2.95l0.31,1.66
		l-2.2,0.63l0,0l-1.9-1.43l-1.42-3.19l-5.15-6.42l-2.24-0.33l-1.69,0.99l-1.96-1.75l-2.4,1.55l-1.39-0.479l-1.98-1.24l0.71-0.641
		l-0.41-2.1l-2.78-0.3l-4.67-2.521l-1.08-1.109l1.04-0.931l-0.33-1.439l-3.57-1.33l-4.49-5.36l-3.91-2.25l0.12-1.26l-3.63-1.34
		l-2.07,0.88l-1.97-2.17l-5.19,3.67l-4.1-2.77l-1.02,0.1l-1.36,2.37l0.73,2.149l-2.78,1.341l-0.23,3.949l-3.96,1.33l-2.33,4.2
		l-2.6,0.76l-2.76-1.1l-1.82,1.91l-2.86-0.24l-0.83,2.3l-3.06-0.84l-4.77,2.49l-5.6-0.391l-17.54-6.949l-21.6-1.41l-2.25-1.05l0,0
		l-1.82-6.761l-3.74-4.27l-3.94-8.05l1.81-6.641l-0.6-4.46l1.54-5.29l-0.02-7.71l2.54-3.09l4.75-1.42l0,0l3.27,3.92l3.33-5.22
		l4.52,1.89l3.66-4.48l1.09,0.64l1.3-0.86l2.39,0.56l1.09-1.37l2.33-0.81l3.36-4.76l1.44,1.18l1.57,3.63l5.74,1.29l0.55-2.85
		l3.85-0.48l4.21-3.26l2.85,1l2.76-2.95l2.93-0.78l2.61-1.95l2.5,0.94l4.62-3.82l2.24,0.34l0.47-1.82l2.67,0.24l-0.49-1.05
		l4.41,0.93l0.17,1.15l5.09-0.77l6.85,2.72l6.57,3.96l6.3-2.15l5.92-0.61l1.4-4.41l2.58-2.12l-1.37-2.45l1.14-1.27l-0.85-0.96
		l0.18-1.76l1.75-1.64l-0.53-2.76l-3.32-1.68l2.17-3.01l-1.65-2.46l-0.5-5.7l3.36-6.11l-1.81-1.03l0.2-2.81l1.28-1.3l3.14-1.04
		l2.63,0.18l0.71-0.91l0.6-5.67l1.38-1.47l2.55-0.74l-0.24-1.9l-1.42-1.13l-0.1-2.12l1.59-1.43l1.28-2.99l5.38-0.13l9.77-3.66
		L201.18,214.08z"/>
	<path id="KH-16" fill="#1E3250" stroke="#1E3250" stroke-width="0.5" d="M651.33,8.37l1.75,0.19l-0.87,1.1l0.63,2.21l-0.78,0.09
		l1.381,4.59l-1.921,0.86v1.17l-1.289,1.09l-1.061,0.01l-0.189,3.99l1.06,2.63l-3.19,7.71l-0.08,3.44l-1.989,3.69l-0.09,2.74
		l-3.65,0.08l-1.18-1.52l-1.19,4.61l-3.08,2.47l-3.01,4.61l-0.01,1.16l1.96,2.36l0.37,4.27l-1.17,1.97l0.96,1.73l-2.44,3.19
		l-1.48,3.76l-0.96-0.19l-1.25,1.31l0.421,0.95l-2.681,3.83l-1,3.49l6.24,3.47l-0.35,1.48l-1.91,0.24l0.06,3.79l-1.06,0.84
		l0.21,1.54l3.24,3.59l7.199-1.2l1.431,2.13l-0.29,6.31l2.62,1.64l-0.341,3.42l-2.01,2.4l2.38,1.78l-2.2,3.7l0.771,1.54l-1.28,2.73
		l10.061,6.38l2.22,6.57l2.28,3.46l0.27,5.22l5.561,12.17l1.64,20.8l-2.9,7.16l0,0l-2.85,0.07l-0.24,1.17l-1.979,1.46l-4.09-2.05
		l-1.971,0.62l-2.149-0.11l-4.17-4.96l-1.271,2.11l-1.74,0.77l-4.63,1.87l-1.069,1.24l-0.28,0.88l-2.891,0.56l-3.909-4.91
		l-5.62,0.75l-2.79-6.27l-3.15-1.03l-1.05,1.08v2.71l-5.53,3.67l-3.069,0.1l-1.091-2.16l-1.5-0.83l-1.439,0.2l-1.19,1.77l-2.09,0.89
		l-3.61-1.47l-0.859,2.69l0.41,0.61l2.08,2.64l0.229,2.33l0.21,1.54l-1.28,1.48l-0.09,3.4l-4.26,3.92l-1.3,0.09L588,198.2
		l-3.25-0.25l-2.98,1.24l-2.069-0.79l-3.57,1.28l-3.49-0.65l-4.09,0.59l-11.899-3.1l-3.78-3.59l-17.01-12.01l0,0l0.04-2.27
		l2.069-0.61l0.36-3.2l-0.87-0.66l0.17-1.38l-2.04-1.15l-0.26-1.26l1.4-1.32l-0.271-1.37l-1.68-1.3l-3.53-10.09l-2.25-3.38
		l-2.74-1.04l0.09-14.79l6.87-1.59l3.84-2.55l5.53-9.11l-0.81-4.43l1.069-2.4l-3.899-4.59l0.55-2.97l-1.56-2.35l0.279-3.36
		l-1.02-1.01l-0.71-3.37l0.24-3l5.02,0.82l1.59-1.37l4.16,0.09l3.75-3.08l2.87-0.62l4.07-5.95l-0.9-4.3l-3.69-8.33l1.061-7.87
		l-1.141-4.81l-0.39-11.22l1.07-3.2l0,0l3.35,3.8l1.87,3.88l2.08,1.77l2.22,0.5l1.53,2.37l1.02,0.2l2.48-3.57l2.54,0.51l0.39-2.24
		l0.78-0.3l7.79,2.75l1.19-1.32l-0.16-3l2.87-1.45l2.68-4.44l3.2-3.22l-0.641-3.29l2.87,0.7l3.28,5.76l2.77,0.14l3.011-2.88
		l4.34-0.63l2.52-2.55l2.07-5.66l4.63,0.47l1.51-1.12l0.44-5.57l0.61-1.22l1.43,0.54l1.399-4.55l1.57-1.58l4.48,0.06l5.17,6.4
		l1.89-0.39l4.18,1.93l2.181-0.44l0.68-0.92l-0.939-1.02l1.38-1.91l0.13-3.68l1.109-1.38l-0.34-1.92l1.95-1.35l1.89-0.03l1.62-2.88
		l1.28-0.69l0.75-3.74l1.31-1.35L651.33,8.37z"/>
	<path id="KH-17" fill="#1E3250" stroke="#1E3250" stroke-width="0.5" d="M144.21,110.83l0.76,0.3l0.91-0.59l2.04-1.64l1.64-0.96
		l1.19,0.77l2.28-0.67l1.64,0.76l1.24-0.21l0.98,0.31l1.32-1.41l0.92-0.39l1.48,0.55l0.84-1.38l0.89-1.65l1.37,0.39l1.46-2.67
		l1.97-0.97l-0.23-1.08l0.83-0.27l1.18-0.87l2.01-0.01l2.84,0.8l1.24-2.07l2.76-2.52l-0.17-2.27l1.65-0.15l0.64,0.81l1.24-1.021
		l0.08-1.13l0.89-0.73l1.64,0.32l0.22-1.84L186.7,88l-1.43-1.38l0.4-1.81l3.68-2.75l0.23-1.91l4.14-0.94l0.38-0.93l1.61-0.88
		l1.87,0.69l4.83-0.65l0.56-1.09l5,0.45l2.4-1.09l7.08-0.22l2.52-0.94l-0.89,4.07l1.85,3.39l7.89,7.16l3.23,0.34l3.15-2.29
		l0.85-1.729l4.96-0.82l3.2-2.72l4.33-1.05l2.03-2.02l5.49-1.37l4.49-2.3l4.23-6.19l1.87-0.49l1.9,1.07l0,0l2.44,3.43l5.74,4.2
		l-8.76,9.6l-2.5,9.28l1.24,2.76l-1.03,2.28l0.88,2.49l-0.57,2.03l-1.83,1.78l-1.15,2.03l-0.96,2.62l-0.9,2.13l-0.48,1.8l-1.28-0.07
		l-1.28,2.99l0.64,0.97l2.54-0.29l1.28,3.63l2.47,1.66l-0.75,2.03l2.5,3.84l-0.02,5.17l1.52,1.42l-2.02,6.97l-2.72,1.99l1.13,3.66
		l-0.44,1.13l15.43,1.87l2.4,2.43l5.57,0.23l2.36,2.35l4.2-1.43l2.93-2.29l1.11,0.7l-4.11,4.32l-0.08,3.48l-1.91,3.09l-4.37,3.17
		l-3.11,4.38l-0.81,3.01l0.68,5.06l-0.94,2.75l0.87,2.86l-0.85,2.92l0,0l-1.95,5.58l-5.19,1.78l-3.55,2.26l-0.84,2.56l-0.7,13.44
		l-0.78-0.44l-0.9,1.87l0.09,2l0.99,1.2l-0.57,0.89l-2.01,2.37l-2.13-0.09l-2.59,3.55l-2.51,1.57l-2.71,5.57l-6.33,1.91l-0.59,1.02
		l-2.76,0.25l-0.55,1.41l-1.01,0.97l-4.55,5.29l-0.35,2.06l-1.65,0.57l-0.88,3.65l-3.11,3.75l0,0l-3.07-7.28l-2.84-3.4l-7.17-3.4
		l-10.14-10.83l-12.08-16.03l0,0l-7.41-7l-10.02-7.12l-4.9-6.13l-1.04-5.56l-0.92-1.1l-2.26-1.55l-1.69,1.55l-2.64-2.42l-2.65-0.62
		l-3.83,0.69l-1.81-2.49l-2.48,0.15l-0.67-2.39l-3.22-1.21l-0.49-1.22l-2.33-0.33l-1.47,1.07l-1.64-1.12l0,0l-1.49,0.83l0,0
		l-6.49-2.63l0,0l-2.7-7.1l1.19-3.67l1.38-1.31l-1.87-1.68l0.38-2.78l0.76,0.61l0.57-0.75l0.14-1.73l-0.24-1.9l0.72-0.16l-0.01-1.69
		l-1.04-0.99l-0.26-1l-0.57-1.28l0.94-0.92l0.35-0.85l-1.16-0.7l1.36-1.05l-1.12-1.021l0.28-0.93l-1.58,0.53l0.38-0.79l-1.13-0.92
		l0.91-0.35l0.1-1.13l1.41-0.03l-1.55-1.43l0.51-1.37l4.86-4.5l-2.33-2.33l-0.04-1.71l0.11-0.96l0.36-1.28l0.93-1.57l-1.13-0.18
		l0.15-1.53l-0.13-0.87l0.65-2.78l0.13-1.55l0.17-1.17l-0.61-0.89l-0.53-1.17l-0.4-1.25l1.63-2.92l-0.82-1.2L144.21,110.83z"/>
	<path id="KH-18" fill="#1E3250" stroke="#1E3250" stroke-width="0.5" d="M187.98,542.57l3.82,1.47l-2.16,1.21l0.19,1.66
		l-1.48-1.521l-1.42-0.159l0.13-2.131L187.98,542.57z M162.96,534.21l1.21-0.02l0.85,1.8l-0.81,2.18l-2.37-1.09l0.85-1.11
		l-1.02-2.02L162.96,534.21z M182.94,532.4l2.47,0.3l3.05,2.12l0.18,5.29l-3.45,2.14l-4.64-4.19l0.08-0.829l1.63,0.18l-0.71-4.68
		L182.94,532.4z M203.31,478.36l2.27,1.77l-0.16,4.64l-1.04,0.631l-0.85,2.56l1.76,1.68l-1.15,1.41l2.81,3.771l-1.51,2.39l0.12,2.86
		l-1.54,1.37l0.33,2.659l2.61,4.37l1.43,0.57l1.27,4.66l-1.83,5.85l-1.43,0.97l-1.05,0.03l-1.54,0.91l0,0l-2.2-3.66l-0.06-1.77
		l-2.54-1.07l-1.28,0.87l-1.1-0.33l0.81-4.4l-1.5-2.13l-0.29,1.28l0.85,0.85l-0.16,0.92l-0.75,4.48l1.89,2.95l-8.29,12.93
		l-1.68-0.42l-0.54-1.49l-3.49,0.57l-2.89-1.17l-0.28-1.65l-1.54,0.48l2.37,2.6l-0.63,3.61l-6.53-1.13l-0.84,1.18l-3.1,0.17
		l-0.34,1.09l-1.49,0.311l-3.06-2.17l0.89-3.46l-1.41-2.5l-1.75-0.971l-2.97,2.63l-4.09-7.39l-2.85-1.39l-0.84-0.11l-1.44-1.54
		l1.42-2.96l1.37,0.07l2.06-3.94l1.58-1.05l0.15-4.42l3.23-1.061l1.41-1.63l1.49,0.9l2.83-0.09l0.47-1.58l2.16,1.32l1.59-0.86
		l4.72,0.18l0,0l8.86-9.83l3.37-11.649l3.75,1.77L203.31,478.36z"/>
	<path id="KH-19" fill="#1E3250" stroke="#1E3250" stroke-width="0.5" d="M528.06,20.38l1.721,3.6l0.3,3.37l1.26,1.68l-1.09,1.95
		l0.37,1.22l4.51-1.1l0.19,1.69l1.31-0.17v2.89l1.851,1.89l0.329,1.94l3.881-0.67l0.34,1.22l6.25,2.12l1.14-1.71l1.76,0.72
		l2.13,3.77l-0.109,1.74l0,0l-1.07,3.2l0.39,11.22l1.141,4.81l-1.061,7.87l3.69,8.33l0.9,4.3l-4.07,5.95l-2.87,0.62l-3.75,3.08
		l-4.16-0.09l-1.59,1.37l-5.02-0.82l-0.24,3l0.71,3.37l1.02,1.01l-0.279,3.36l1.56,2.35l-0.55,2.97l3.899,4.59l-1.069,2.4l0.81,4.43
		l-5.53,9.11l-3.84,2.55l-6.87,1.59l-0.09,14.79l2.74,1.04l2.25,3.38l3.53,10.09l1.68,1.3l0.271,1.37l-1.4,1.32l0.26,1.26l2.04,1.15
		l-0.17,1.38l0.87,0.66l-0.36,3.2l-2.069,0.61l-0.04,2.27l0,0l-0.9,0.47l-3.3-1.85l-2.08-2.16l-3.021,0.41l-2.369-0.8l-2.87-3.31
		l-8.9-4.68l-8.43,2.15l0,0l-5.49-0.86l-1.15,1.1l-3.76-0.92l-3.01,2.23l-0.38,2.45l-2.24,1.04l-10.74-1.15l-5.79,1.93l-0.16,2.45
		l-7.359,9.46l-0.23,4.29l-2.29,1.42l-4.71-1.9l-0.199,4.29l-2.181,3.45l-0.25,2.24l-2.17,1.39l-2.72,0.18l-3.86,2.97l-2.649,0.11
		l-6.311-2.28l-7.39-6.52l-5.83-2.88h-4.51l-6.32-2.92l-2.25-0.09l0,0l-0.23-2.57l-2.27-2.42l-2.45-1.01l-0.38-11.42l0.72-5.1
		l-1.67-5.14l0,0l3.49-5.09l-0.45-6.7l1.15-6.59l-0.16-5.32l0.82-1.91l-1.53-7.04l-1.94-3.87l-1.89-1.19l-1.14-2.1l0.54-5.13
		l-1.14-2.6l1.09-3.35l3.12-1.37l3.391-3.06l2.29,0.97l2.46,2.89l0.979-0.04l0.84-1.34l3.9-0.88l1.71,1.5l1.29-0.57l0.99,0.72
		l1.979-1.17l0.101-1.33l-1.44-0.93l-0.33-1.71l1.33-1.76l5.72-0.8l13.78,0.17l3.69-1.94l0,0l1.489,1.09l9.311,0.84l2.689-0.97
		l11.95,2.49l0.5-4.51l-0.66-5.2l3.471-2.07l0.8-1.49l3.859-0.81l2.23-5.2l-4.42-2.71L477,81.92l-2.25-4.81l-0.32-5.16l-6.33-2.03
		l-2.979-3.98l-0.601-2.2l0.73-2.8l-1.29-4.63l-3.18-1.51l0.26-6.36l3.28,3.35l4.72-0.81l1.6,1.81l0.801-1.71l-0.46-1.77l1.68-1.03
		l3.07,1.85l3.319-1.69l1.61,2.28l3.81,0.55l3.511-1.66l2.22-4.6l0.81-4.71l1.01-0.99l-1.359-2.39l1.53-3.19l1.579,1.88l1.091-0.56
		l2.26,1.12l0.63,2.16l1.36,0.09l0.96,1.3l1.739,0.11l4.851-1.9l4.93,0.4l1.37-1.42l0.05-1.4l2.29-1.91l-1.18-2.01l0.49-2.32
		l4.5,1.38l0.96-0.6l-2.44-3.07l0.23-1.64l6.25-4.51L528.06,20.38z"/>
	<path id="KH-20" fill="#1E3250" stroke="#1E3250" stroke-width="0.5" d="M437.31,398.88l1.95,2.9l2.92,0.529l1.38-0.71l1.5,1.42
		l1.48,2.99l-0.88,3.66l0.729,2.271l-1.189,2.75l3.52,1.869l-0.3,2.15l-3.72,3.2l0.979,1.7l-1.01,2.199l1.49,0.66l0.03,1.12
		l-1.96,5.12l0.47,1.31l-0.82,3.44l1.7-0.92l3.67,0.82l0.35,4.989l1.931,2.87l4.56,2.681l5.87,0.71l1.5,6.26l3.88,2.26l2.73,3.14
		l1.569-0.27l1.721,3.49l2.58-2.21l3.649-1.54l4.18,6.27l0.33,3.971l1.92,5.17l-4.59,0.439l-1.83-1.04l-1.229,0.66l0.85,4.56
		l-1.63,3.19l3.08,3.56l3.07,5.86l0.42,6.44l-3.24-2.891l-11.39-0.02l-7.561-5.45l-8.16-7.71l1.381,4.2l-3.23,2.569l0.72,2.99
		l-4.64-0.63l-6.03-2.33l1.82-4.55l-7.05-9.26l-3.561-7.351l-5.939,0.841l-7.78,4.76l-6.66,1.75l0,0l-0.609-2.76l-1.881-0.211
		l-1.649-1.38l2.97-5.489L412,461.1l3.64-3.819l-2.42-2.561l-1.25-7.1l2.261-6.42l1.38-1.141l-0.25-0.979l1.229-0.8l1.07,1.069
		l2.09,0.051l-2.04-7.07l-0.07-9.92l2.13-6.83l-0.43-4.021l2.391-2.779l-0.971-3.11l1.61-1.56l0.38-2.29l6.23-1.65l0.289-1.29
		l4.631,0.03l3.29-1.32l0,0L437.31,398.88z"/>
	<path id="KH-21" fill="#1E3250" stroke="#1E3250" stroke-width="0.5" d="M304.19,428.62l2.89,1.76l5.47-2.04l4.24,1.38l2.23,0.03
		l4.96-0.96l2.02,0.8l2.23,2.18l1.35-0.38l0.11,3.771l-1.54,3.55l0.83,2.43l5.78,3.7l0.58,2.15l-0.7,2.58l0.86,1.16l3.83,0.1
		l-0.67,1.66l0.88,0.41l-0.19,7.14l-2.73,5.49l-0.4,2.41l0.67,0.97l-0.91,2.7l0.67,1.149l4.28,0.891l0.05,3.63l1.41,4.279
		l-1.27,2.45l0.54,1.271l0,0l-1.02,0.81l3.61,9l-0.25,2.05l1.08,2.74l3.4,3.05l0.78,4.37l-17.47,10.391l-7.37,11.27l-3.6,3.21
		l-14.08,0.53l-5.08-1.681l0,0l0.74-0.6l-0.88-1.61l0.15-3.779l-0.79-0.8l0.41-4l-4.47-0.471l-0.32-9.31l3.85-5.5l0.26-3.16
		l2.82-1.91l-2.61-3.26l0.08-4.03l-1.16-2.82l-2.9-4.64l-1.98-0.96l-4.86,0.51l-4.08,2.03l-6.09-0.11l-1.67-0.909l2.31-4.46
		l0.07-4.24l-2.31-7.561l-2.87-4.229l-1.57-0.17l0.11-1.4l-2.38,1.74l-0.92-0.83l-0.73-0.78L267,462.3l-2.66,0.51l0.01-7.52l0,0
		l6.13,1.77l6.82-0.939l2.88,3.04l11.86,3.57l0.98-0.95l5.25-0.53l-0.06-8.75l2.74-17.36l0.73-3.22L304.19,428.62z"/>
	<path id="KH-22" fill="#1E3250" stroke="#1E3250" stroke-width="0.5" d="M175.7,39.85l2.21,0.89l-1.01,5.16l1.05,1.73l3.48-0.23
		l1.78,0.92l0.81-0.77l2.13,2.15l3.31-1.08l0.07,1.59l2.82,0.48l1.14-2.17l1.42-0.12l1.85,0.57l-0.13,1.17l2.99,2.23l1.21-0.43
		l5.88,1.67l0.91-2.52l3.82-0.61l1.88,1.23l1.57-1.45l0.81,1.69l1.58,0.36l7.18-0.88l2.77-3.93l3.74,0.64l-0.22,1.78l1.06,0.62
		l3.65-0.79l-0.5-1.95l1.79-1.1l1.79,0.21l2.34,1.98l3.62-1.35l0.52-1.74l2.94-2.21l6.86,4.86l5.75-0.87l0.89,0.71l1.63-0.41
		l0.91,1.06l1.2-0.73l1.97,1.53l3.62,0.08l0.09,1.8l1.22-0.12l0,0l-1.92,8.19l-0.14,2.9l1.27,3.18l-0.84,2.77l-1.78,0.3l-0.14,0.76
		l0,0l-1.9-1.07l-1.87,0.49l-4.23,6.19l-4.49,2.3l-5.49,1.37l-2.03,2.02l-4.33,1.05l-3.2,2.72l-4.96,0.82l-0.85,1.729l-3.15,2.29
		l-3.23-0.34l-7.89-7.16l-1.85-3.39l0.89-4.07l-2.52,0.94l-7.08,0.22l-2.4,1.09l-5-0.45l-0.56,1.09l-4.83,0.65l-1.87-0.69
		l-1.61,0.88l-0.38,0.93l-4.14,0.94l-0.23,1.91l-3.68,2.75l-0.4,1.81L186.7,88l-2.74,1.34l-0.22,1.84l-1.64-0.32l-0.89,0.73
		l-0.08,1.13l-1.24,1.021l-0.64-0.81l-1.65,0.15l0.17,2.27l-2.76,2.52l-1.24,2.07l-2.84-0.8l-2.01,0.01l-1.18,0.87l-0.83,0.27
		l0.23,1.08l-1.97,0.97l-1.46,2.67l-1.37-0.39l-0.89,1.65l-0.84,1.38l-1.48-0.55l-0.92,0.39l-1.32,1.41l-0.98-0.31l-1.24,0.21
		l-1.64-0.76l-2.28,0.67l-1.19-0.77l-1.64,0.96l-2.04,1.64l-0.91,0.59l-0.76-0.3l0,0l-0.14-1.57l1.1-0.93l-0.83-0.64l0.35-1.53
		l-6.52-2.41L131,92.23l-7.87,9.06l-5.63,0.62l-1.9,1.48l-4.09-7.4l2.86-3.45l0.26-1.87l-1.2-1.75l1.69-1.77l1.37-5.44l-10.48,0.14
		l-1.9-0.96l-3.43-3.01l-6.34-14.1l0,0l2.99-2.99l0.11-1.45l2.13-0.11l0.99-1.32l5.09-0.72l0.85-0.68l-0.2-1.62l1.54-0.79l1.5,1.54
		l1.74-2.56l6.38,1.38l5.57-3.5l17.77-0.83l0.98-2.86l2.33-1.36l1.89,2.84l2.05,0.46l1.96-2.82l1.36,0.05l0.78-1.8l3.02-0.06
		l0.47-1.19l3.5-1.62l3.95-0.13l4.23,3.33l2.27-1.52l1.58,0.06l0.3-1.08L169.62,42l1.58-1.93L175.7,39.85z"/>
	<path id="KH-23" fill="#1E3250" stroke="#1E3250" stroke-width="0.5" d="M246.46,528.74l1.26-5.16l2.17,1.82l9.36-0.16l1.22,0.31
		l0.77,0.88l-0.08,3.181l1.82,2.3l1.76,0.71l0.12,2.53l0.85,0.59l-1.3,0.76l-1.1-0.79l-0.43,0.82l0.62,0.899l0.57-0.41l-0.95,1.641
		l1.9-0.54l-0.13,1.02l1.31,0.98l-1.28,1.51l0,0l-3.23-0.79l-4.96-5.51l-5.3,2.56l-2.02-0.239L249,533.18L246.46,528.74z"/>
	<path id="KH-24" fill="#1E3250" stroke="#1E3250" stroke-width="0.5" d="M32.39,221.47l0.81,0.92l1.68-0.75l2.12,0.75l1.15-0.88
		l1.23-3.42l-0.77-0.29l0.49-2.13l-1.3-1.9l2.35-2.26l0.88-0.63l-0.44-0.91l0.73-0.75l0.95,0.36l3-1.1l-0.06-1.1l1.24,0.41
		l0.83-0.68l5.59,1.85l6.83,9.45l0.21,34.89l-10.7,7.5l-18.31,3.26l0,0l-1.65-2.47l0.32-1.52l-1.28-1.08l0.81-1.25l-0.48-3.2
		l0.95-1.6l1.3,0.03l1.79-1.94l0.43-2.05l-0.97-1.61l0.16-2.71l-1.8-0.69v-2.19l-2.08-2.23l1.25-0.93l0.14-3.63l-2.94-6.61l1.9-1.73
		l-1.88-2.17l2.82-2.17l0.95,0.53L32.39,221.47z"/>
</g>
</svg>
