<?xml version="1.0" encoding="utf-8"?>
<!-- Generator: Adobe Illustrator 15.0.0, SVG Export Plug-In . SVG Version: 6.00 Build 0)  -->
<!DOCTYPE svg PUBLIC "-//W3C//DTD SVG 1.1//EN" "http://www.w3.org/Graphics/SVG/1.1/DTD/svg11.dtd">
<svg version="1.1" id="Layer_1" xmlns:amcharts="http://amcharts.com/ammap"
	 xmlns="http://www.w3.org/2000/svg" xmlns:xlink="http://www.w3.org/1999/xlink" x="0px" y="0px" width="831.075px"
	 height="335.593px" viewBox="0 0 831.075 335.593" enable-background="new 0 0 831.075 335.593" xml:space="preserve">
<defs>
	
	
		<amcharts:ammap  projection="mercator" bottomLatitude="-10.946766" leftLongitude="95.220250" topLatitude="7.356505" rightLongitude="141.009728">
		</amcharts:ammap>
</defs>
<g>
	<path id="ID-AC" fill="#1E3250" stroke="#1E3250" stroke-width="0.5" d="M36.45,91.68l-0.17,0.1l-1.97-2.44l-1.58-0.55l-0.13-0.31
		l3.05-0.07l1.03,2.06L36.45,91.68z M8.9,30.57l2.59,1.42l0.36,1.11l2.8,2.4l4.79,1.32l4.04,0.27l1.91-0.35l2.23-0.88l1.26,0.48
		L30.4,36l2.53,0.66l0.7,1.19l0.62,0.21l5.38-1.7l4.12,4.66l1.56,1.32l1.21,0.28l0.89,1.77l0.15,1.52l0.85,1.56l-0.09,0.93l0.82-0.1
		l0.97,0.36l2.7,1.88l0.14,1.33l-0.36,0.86l0,0l-1.2-0.01l-0.77,0.21l-0.33,0.44l-0.95,0.03l0.18,1.12l-0.41,0.24l0.15,0.47
		l-0.47,0.68l-0.41,2.59l-1.21,0.65l-0.09,0.65l-0.74-0.35l0.21,1.41l-1.92,1.8l1.06,1.83l-0.03,0.74l0.74,0.35l0.21,0.88l0.56,0.41
		l-0.33,0.53l0.3,1l0.65,0.44l0.27-0.12l0.38,0.71l-0.24,0.79l-2.37,0.65l1.18,0.79l0.06,0.74l0.62,0.65l-0.09,0.97l-0.8,0.06
		l0.44,2.74l0.92,0.24l0.59,1.06l0.95,0.12l0.21,0.56l-0.38,0.88l0.68,1.41l-0.62,0.21l-0.24,1.41l0.18,1l0.41,0.56l-0.06,0.71
		l0.83,0.35l0.53,1.62l-0.61,2.79l0,0l-3.51-1.98l-1.33,0.46l-2.1-0.53l-1.65-2.3l-0.1-4l-0.9-3.95l-2.57-0.84l-1.15-0.86
		l-1.24-1.73l-0.46-1.96l-0.47-0.77l-1.53-0.521l-2.82-4.85l-1.87-1.3l-0.3-1.13l-1.6-1.12l-2.64-0.15l-1.33,0.22l-1.2-0.44
		l-1.68-1.64l-1.86-2.77l-1.7-1.81l-3.05-1.69l-3.13-3.4L5.3,46.16l-1.87-2.83l-2.41-4.69l0.28-0.97L0.13,35.8l0.4-2.12L0,32.4
		l0.17-1.57l0.86,0.01l2.58-1.47l2.87,0.44L8.9,30.57z"/>
	<path id="ID-BA" fill="#1E3250" stroke="#1E3250" stroke-width="0.5" d="M352.31,278.62l-1.59-0.65l-0.83-0.67l0.13-0.37l0.91-0.65
		l1.27,0.16l0.62,1.15L352.31,278.62z M333.09,266.18l1.05,0.85l0.67-0.37l5.19,1.27l2.4-0.4l1.67-1.47l1.27-0.33l4.56,1.7
		l1.87,1.17l1.27,1.64l1.3,0.7l0.06,0.7l-1.64,1.55l-1.95,0.99l-3.11,0.97l-1,0.94l0.04,0.75l-1.34,0.79l0.53,0.67l0.12-0.38
		l0.22,0.71l-0.36,0.51l-1.07,0.3l-0.96-0.12l-0.19-0.34l1.41-0.91l-0.24-0.45l0.28-0.63l-0.35-0.5l-4.69-4.12l-3.01-0.89
		l-2.13,0.12l-2.43-3.08l-0.27-1.87l0.13-0.43L333.09,266.18z"/>
	<path id="ID-BB" fill="#1E3250" stroke="#1E3250" stroke-width="0.5" d="M201.84,178.68l-1.21,0.01l-1.69-0.97l0.32-0.77l1.15-0.51
		l1.7,0.73L201.84,178.68z M218.12,170.27l4.36,1.21l3.09,2.51l0.52,1.76l-1.52,2.63l-0.13,1.93l-1.62,0.74l-0.46,1.13l-1.6,0.37
		l-0.28-1.44l-1.72-1.95l-0.83,0.61l0.34,0.42l-0.07,0.76l-0.39,0.26l-2.95,0.95l-0.56-0.24l-0.57-3.51l0.56-1.65l0.06-2.3
		l0.36-0.43l0.24-2.89l0.28-0.37l1.79-0.04L218.12,170.27z M187.99,157.15l1.31,2.73l0.37,3.73l0.92,2.81l1.29,2.08l1.23,0.9
		l3.98,0.73l2.86,1.12l-1.73,1.59l-1.39,4.1l0.13,0.44l0.78,0.46l1.51,0.48v1.23l-0.41,0.43l-3.43,0.07l-1.3-2.08l-2.82-1.27
		l-5.34-1.6l-0.93-1.55l-0.31-1.34l0.65-2.09l-0.08-0.89l-1.36-0.72l-0.59-0.74l-0.36-3.52l-0.93-0.89l-4.62-0.52l-2.38,0.44
		l-3.55-0.88l-0.26-0.85l0.35-1.31l2.49-1.13l1.94-1.54l-0.19-0.93l-0.9-0.55l0.16-0.91l1.91-1.53l2.1-0.66l0.49,0.12l0.74,1.75
		l0.15,1.67l0.92,0.74l1.73,0.24l-1.74-4.21l3.08-0.98l0.41,0.09l2.3,1.78l-0.27,0.83l0.14,0.57L187.99,157.15z"/>
	<path id="ID-BE" fill="#1E3250" stroke="#1E3250" stroke-width="0.5" d="M118.29,174.23l0.21,0.59l0.85,0.54l0.14,0.71l1.45,0.96
		l0.7,1.83l1.09,0.58l1.15-0.4l0.97,0.22l0.63,0.58l0.29,0.74l-0.11,1.22l0.23,0.15l-0.2,0.5l1.67,1.52l0.88,0.35l2.55-1.15
		l0.57,0.92l0.83,0.14l0.56-0.25l0.12,0.87l0.82-0.32l0.79,0.09l0.21,0.45l-0.29,2.11l-0.68,0.95l-0.89,0.69l-0.89-1.2l-0.69-0.26
		l-0.07,1.45l-1.12,1.07l-0.12,1.14l-2.03,1.01l0.67,0.2l0.57,0.8l2.42,1.98l0.76,0.2l0.61-0.29l0.87,0.79l2.2-0.08l0.69,0.29
		l0.96,2.04l0.01,1.63l1.91,0.31l1.22,1l1.7,0.13l0.89,0.91l0.98-0.36l0.56,0.18l0.32,1.22l-0.83,1.06l1.09,1.04l-0.71,0.62
		l0.78,0.04l0.64,0.5l0.48,1.3l-0.39,0.49l1.38,0.22l0.28,0.93l0,0l-0.08,0.05l0,0l-0.92,0.06l-0.13,0.51l-1.83,1.07l-0.18,0.53l0,0
		l-0.8-0.1l-1-0.8l-1.46-0.13l0.15-0.4l-0.26-0.39l-0.51-0.38l-0.6,0.27l-0.4-0.31l0.19-0.52l-1.59-1.74l-3.14-2.08l-2.64-0.97
		l-0.54-1.07l-1.13-1.06l-8.89-6.7l-0.15-1.28l0.46-0.38l-0.87-1.73l-0.26-1.61l-2.22-1.8l-3.26-1.71l0.06-0.32l-5.58-4.03
		l-1.47-1.88l-0.69-1.74l-1.53-2l-1.2-2.9l-3.21-1.8l-1.98-2.39l0,0l3.86-2.55l0.8-0.97l0,0l0.01-0.02l0,0l4.71,2.96l-0.16,2.09
		l0.28-0.48l0.73,0.12l1.05-0.41l1.9,2.26l1.41,1.08l0.69,0.2l1.34-0.16l1.31,0.64l0,0L118.29,174.23z"/>
	<path id="ID-BT" fill="#1E3250" stroke="#1E3250" stroke-width="0.5" d="M198.91,231.55l-0.6,0.25l-0.04,1.12l0.61,0.33l-0.02,0.67
		l0.39,0.08l0.6,1.49l0,0l-0.04,0.15l0,0l-0.18,0.61l-2.91,0.02l-0.3-0.36l-1.02-0.27l0.21,0.47l-0.54,0.04l-0.21-0.65l-0.33-0.1
		l-0.67,0.64l0.44,1.4l-0.87,0.42l-0.11,0.96l0.56,1.24l-0.09,1.73l1.47,1.45l-1.34,0.96l-0.08,0.71l-0.65,0.69l0.08,1.38l0,0
		l-1.5,0.24l-0.09-0.28l-0.66-0.03l-0.43-0.33l0.03-0.43l-2.46-0.94l-1.24-1.04l-1.44-0.12l-2.94,0.61l-1.5-0.19l-2.12,0.33
		l-0.4,0.29l-1.04-0.07l-0.61-0.55l-0.65,0.27l0.07-0.26l-0.57-0.38l-1.15-0.24l-0.85,0.78l-0.41-0.1l-0.15-1l-0.44-0.54l0.98,0.07
		l1.13-1.03l-0.12-0.43l0.83-0.4l0.57,1.27l-0.25,0.28l0.5,0.33l0.37,0.97l0.52,0.21l0.52-0.63l0.14-0.99l1.8-1.82l0.13-1.51
		l0.54-0.94l0.4-0.31l-0.05,0.72l0.41,0.32l1.36-0.15l0.87-1.54l0.08-3.08l0.61-2.25l0.39-0.24l-0.03-0.61l1.8-1.51l0.18-0.87
		l0.6-0.79l0.74-0.11l0.56,0.65l-0.02,1.29l1.02,0.55l1.02-0.32l0.61-0.95l1.28,0.58l0.4-0.41l0.59,0.29l0.14,0.67l0.49,0.26
		l1.11,0.16l0.73-0.53l0.49,0.31l1.14-0.33l0.43,0.25l0.49-0.15l0.47,0.46L198.91,231.55z"/>
	<path id="ID-GO" fill="#1E3250" stroke="#1E3250" stroke-width="0.5" d="M466.56,109.2l4.671,0.33l3.409,0.99l3.2,2.18l1.11-0.69
		l0.85-1.22l2.55-0.37l0,0l0.21,0.82l1.4,0.62l0.7,0.69l0.229,1.32l0.62,0.54l1.21,0.89l2.03,0.35l0.54,0.58l0.31,0.85l-0.08,2.09
		l-1.09,2.41l0,0l-2.14,0.03l-1.5-0.4l-3.12-3.27l-0.51,0.38l-1.38,0.14l-8.431-0.31l-7.25,0.26l-1.109,0.65l-3.38,0.38l-1.48-1.67
		l-2.93-0.32l-0.73,1.05l-2.77,0.32l0,0l0.28-0.5l-0.171-1.47l-1.76-0.37l-1.33-1.52l0.311-0.17l0.06-1.07l0.34-0.34l1.061-0.38
		l0.97,0.38l0.521-0.1l0.02-0.96l0.35-0.41l0.891,0.51l1.33,0.05l0.479-0.41l1.45-0.01l3.18-1.25l0.79-0.61l0.851-0.14l0.489,0.8
		l0.91,0.69l0.431-0.92h0.369l0.521-0.6L466.56,109.2z"/>
	<path id="ID-JA" fill="#1E3250" stroke="#1E3250" stroke-width="0.5" d="M160.35,155.27l-1.28-0.52l-0.54,0.11l-0.48,0.43l0.1,0.75
		l-0.32,0.43l-1.99,0.16l-2.27,0.75l-1.08-0.27l-1.25,0.18l-1.46-0.6l-0.72,0.36l-0.29,0.52l-1.66,0.08l-2.18,0.81l-1.09,0.96
		l-0.32,3.62l0.56,0.48l-1.78,0.76l0.04,2.939l-2.06-1.53l-0.81-1l-0.08-0.77l-0.81-0.44l-1.21,1.69l0.69,0.68l0.16,0.73l-1.54,0.6
		l-1.41-0.64l-0.29,0.52l-2.62-0.6l-0.57,0.84l0.61,1l-1.54,2.14l-0.45,0.36l-0.56-0.12l-1.7,1.08l-0.81,1.17l-0.48-0.2l-1.01,0.52
		l-0.85-0.16l-0.69-0.16l-1.09-0.85l-0.49,0.2l-0.85-0.521l-0.56,0.24l-0.08,0.73l-0.41,0.44l-1.62,0.48l-0.4,0.73l0,0l-0.57-0.17
		l0,0l-1.31-0.64l-1.34,0.16l-0.69-0.2l-1.41-1.08l-1.9-2.26l-1.05,0.41l-0.73-0.12l-0.28,0.48l0.16-2.09l-4.71-2.96l0,0l0.23-0.51
		l0,0l-0.74-3.32l-0.39-0.74l-1.06-0.73l-0.77-1.41l-0.21-3.65l0.68,0.33l0.33-0.39l0.68,0.71l0.56-0.35l1.6-0.24l1.18-0.15
		l0.38,0.36l1.01-0.27l1.18-1.79l2.01-1.229l0.62-1.12l-0.41-0.58l0.41-0.68l-0.41-1.62l0.62-0.61l1.57-0.36l1.12-1.88l-0.47,0.18
		l-0.53-0.44l-0.06-1.88l0,0l-0.03-0.02l0,0l0.6,0.1l0.04-0.31l0.8-0.18l0.18-0.62l0.59-0.29l0.24,0.21l0.58-0.62l2.19,0.68
		l0.76-0.29l0.61,0.8l1.82-0.57l0.3,0.76l1,0.51l-0.04,0.64l1.22,0.12l0.47,0.76l2.24,0.26l0.61,0.42l0.8-0.66l0.69-0.08l1.1-1.66
		l2.1-1.5l1.71-2.32l2.03-0.14l3.61,0.63l0.39,0.31l0.85-0.47l1.18-0.11l0,0l1.21,0.79l1.79,1.83l3.26,1.57l2.03-0.52l4.56,1.49
		l2.61-0.68l0.75,1.74l-0.31,1.44l0.96,1.99l-0.18,3.01L160.35,155.27z"/>
	<path id="ID-JB" fill="#1E3250" stroke="#1E3250" stroke-width="0.5" d="M205.41,228.89l1.19,0.88l2.2-0.5l0.91,0.26l2.1,3
		l2.67,0.75l0.86,0.94l0.42-0.34l0.71,0.11l1.31-0.79l0.62,0.02l0.12,0.42l0.61-0.33l-0.05,0.76l4.11,1.68l1.42-1.09l-0.42-0.72
		l0.64,0.34l1.34-0.03l0.63,0.45l0.22-0.56l0.61,1.94l1.34,1.5l1.36,0.81l0.43,3.62l0.65,1.15l0.59,0.15l0.28-0.34l0.48,0.26
		l0.08,0.57l1.17,0.28l0.93-0.46l0.05-0.37l-0.31-0.11l0.23-0.27l0.47-0.03l0,0l-0.07,1.47l-1.24,1.54l0.11,1.15l0.65,0.37
		l-0.31,0.59l-0.02,1.05l-0.94,0.31l-0.48,0.58l-1.26-0.24l-0.98,0.48l0.26,1.35l-0.47,0.81l0.09,0.82l0.39,0.22l1.17-0.09
		l0.51,0.48l0.66,1.07l-0.03,0.9l0.64,1.31l-0.37,0.96l1.18,0.98l0,0l-0.68,0.43l-1.26-0.36l-0.47,0.31l0.15,0.62l-0.49-0.73
		l-1.97,0.17l-0.4,0.39l-0.08,1.12l-0.45,0.32l-2.31,0.24l-4.47-0.77l-1.54-0.52l-2.5-0.11l-0.73-0.85l-1.99-0.37l-0.33-0.73
		l-1.22-0.87l-2.54-1.1l-3.88-0.44l-2.01-0.53l-9.47-0.66l-2.22-1l-0.55,0.19l-0.48-2.21l0.57-0.91l0.88-0.19l-0.14-0.89l0.94-0.59
		l0.63-0.85l-0.07-0.91l-0.51-0.51l-1.23-0.15l-0.78,0.49l0,0l-0.08-1.38l0.65-0.69l0.08-0.71l1.34-0.96l-1.47-1.45l0.09-1.73
		l-0.56-1.24l0.11-0.96l0.87-0.42l-0.44-1.4l0.67-0.64l0.33,0.1l0.21,0.65l0.54-0.04l-0.21-0.47l1.02,0.27l0.3,0.36l2.91-0.02
		l0.18-0.61l0,0l0.04-0.15l0,0l0.52-0.05l-0.12,0.83l0.9-0.25l1.03,0.44l0.21-0.95l-0.26-0.93l0.63-0.17l0.41-0.86l0.06-1.99l0,0
		l0.55-0.31l-0.25-0.41l0.42-0.28l-0.38-0.47l0.42-0.92l-0.46-0.25l0.6-0.41L205.41,228.89z"/>
	<path id="ID-JI" fill="#1E3250" stroke="#1E3250" stroke-width="0.5" d="M312.78,272.41l1.51,0.08l0.48,0.3l-0.17,0.37l-1.01,0.24
		l-1.44-0.14l0.03-0.52L312.78,272.41z M355.4,249.19l0.54,0.18l0.16,0.45l0.88,0.27l0.84-1.05l-0.27,1.55l-1.09,0.28l-1.3-0.64
		l-0.17-0.33l0.27-1.14L355.4,249.19z M331.6,250.38l-0.98-0.13l-0.79-0.55l-0.32-0.62l0.23-0.57l0.85-0.26l0.49,0.34l0.74,1.51
		L331.6,250.38z M353.29,246.76l0.72,0.7l-1.62-0.24l-0.45-0.64l0.26-0.33L353.29,246.76z M324.86,245.28l1.76,0.91l0.32,0.77
		l-3.02,0.85l-0.66-0.08l1.02,0.76l1.44,0.08l0.23,0.66l-1.6-0.19l-0.98-0.98l-0.7,0.74l0.21,0.83l-3.59-0.43l-0.6,0.38l-0.79,0.02
		l-0.83,1.68l-0.68,0.45l-0.15-0.44l-0.76-0.15l-4.7,0.09l-0.3-0.49l-0.34,0.06l0.19-0.49l-0.34-0.3l-0.38,0.45l0.55,0.72
		l-0.93,0.09l-4.04-1.15l-1.49-0.09l-1.06,0.26l-0.45-0.36l0.23-0.94h-0.28l-0.26-0.68l0.21-0.47l0.6,0.15l1.23-1.02l0.57-1.23
		l1.06-0.38l2.27-0.17l8.42,0.32l7.18-0.57L324.86,245.28z M347.12,244.35l3.18,0.48l1.49,0.84l0.24,0.44l-0.44,0.6l-0.88-0.23
		l-0.43-0.43l-1.02,0.16l-0.33-0.38l-1.01,0.14l1.16,1.11l-1.16,0.13l-0.45-0.37l-0.45,0.6l-0.67-0.64l0.47-0.54l-1.15,0.01
		l-0.14-0.31l0.18-0.62l0.74-0.41l-0.33-0.51L347.12,244.35z M285.73,243.34l1.96,0.48l2.07-0.59l1.15,1.9l1.3,0.42l1.92-0.48
		l3.26-0.1l1.78,0.74l0.37-0.46l-0.23-0.29l0.23-0.53l0.53,0.27l0.31,0.7l0.5,0.27l-0.38,0.45l0.32,1.01l0.61,0.45l0.09,0.55
		l-0.53,1.23l0.78,0.71l-0.26,0.86l0.89,0.22l0.17-0.39l0.81-0.09l1.45,1.54l-0.25,0.76l0.2,0.1l-0.1,2.43l-0.37,0.06l0.94,0.97
		l-0.14,0.86l0.44,0.54l0.79,0.28l0.24-0.18l0.85,0.64l0.86-0.06l0.74,0.84l1.43,0.73l1.39-0.02l0.59,0.7l3.79-1.46l2.87,0.61
		l0.75-0.42l0.9,0.44l1.51-0.95l1.26,0.31l1.07-1.09l0.86-0.43l0.56,0.39l0.75,1.3l1.6,0.12l0.65-0.31l0.85,0.8l1.55,0.26l0.99,0.6
		l0.45,0.63v0.92l-0.78,0.69l0.18,2.42l-0.81,2.23l0.1,0.74l-0.78,3l-0.05,0.58l0.42,0.84l-0.22,0.66l0.4,0.12l0.22-1.49l0.62,2.76
		l0.48,0.58l0.48-0.38l0.62,0.6l0.98,0.16l0.59,0.9l-0.25,0.78l-1.04,0.43l-1.63-0.55l-1.55-0.09l0.52-0.79l-0.16-0.57l-0.61-0.62
		l-1.22-0.55l-0.54,0.05l-0.27,0.75l-1.94-0.51l-1.06,0.3l-0.55-0.76l-0.3,0.37l-0.61,0.05l-0.23-0.25l0.39-0.36l-0.28-0.33
		l-0.62,0.34l-1.42-0.46l0.02-0.41l-0.46,0.31l-0.18-0.96l-1.42,0.61l-0.06-0.73l-0.73,0.23l-0.79-0.92l-0.83-0.1l-0.12-0.25
		l-0.79,0.08l-0.78-0.37l-0.02-0.41l-0.37-0.16l-1.2,0.42l-0.94-1.32l-1.73-0.76l-3.55,0.39l-1.02,0.6l-0.86,1.03l-3.65,0.5
		l0.08,0.5l-0.39,0.13l-2.28-0.96l-2.93-0.46l-1.59-0.83l-0.59,0.31l-1.18-0.39l-2.53-0.09l-1.84-0.69v0.34h-0.78l-0.71-0.59
		l-0.34,0.22l-1.12-0.23l0.09,1.06l-0.31,0.18l-0.33-0.04l-0.11-0.72l-0.34,0.01l0.12,0.52l-0.48,0.22l0.46,0.57l-0.5,0.13
		l-1.21-0.39l0.08-0.53l-0.74,0.22l-0.61-0.5l-0.24,0.46l-1.29-0.31l-0.17-0.78l-0.33-0.2l-0.66,0.37l-2.5-0.53l-0.52,0.35
		l-1.24,0.11l-0.83-0.58l-0.04-0.34l-0.28-0.02l-0.08,0.45l-1,0.11l-1.96-0.65l0,0l0.13-1.73l0.7-0.92l1.26,0.33l0.84-0.61
		l0.55,0.31l0.44-0.7l0.16-1.55l0.82-0.34l0.07,0.28l0.98,0.18l1.11-1.62l-0.58-1.31l0.1-0.56l-0.96,0.04l-0.83-0.68l0.21-1.77
		l-0.64-0.42l-0.16-1.44l-0.56-1.35l0.46-0.97l0.1-1.74l1.11-0.31l0.46,0.56l3.69,1.62l0.09-0.27l-0.3-0.15l0.16-0.55h-0.46
		l0.36-0.89l1.63-0.7l1.33-1.98l0.13-2.18l-0.98-0.67l0.7-0.68l0.24-1.35l0.67-0.09l0.1-0.82l0.54-0.37l0,0L285.73,243.34z
		 M302.4,225.36l0.39,0.1l0.25,0.84l-0.18,0.82l-0.76,0.39l-1.63-0.01l-0.29-0.52l0.27-0.89l1.63-1.02L302.4,225.36z"/>
	<path id="ID-JK" fill="#1E3250" stroke="#1E3250" stroke-width="0.5" d="M173.73,239.14l-0.4,1.83l-0.64,0.23l-0.42,0.57
		l-0.21-0.28l0.42-0.85l-0.33-0.26l0.02-0.42l-0.82,0.52l-0.05,0.31l-0.26-0.16l0.28-0.59l0.99-0.75L173.73,239.14z M199.3,231.73
		l1.8,0.34l0.73-0.41l1.4-0.09l0,0l-0.06,1.98l-0.41,0.86l-0.64,0.17l0.27,0.93l-0.21,0.95l-1.03-0.44l-0.9,0.25l0.13-0.83
		l-0.53,0.06l0,0l0,0l0,0l-0.6-1.49l-0.39-0.08l0.02-0.66l-0.61-0.33l0.03-1.12l0.6-0.26l0,0L199.3,231.73z"/>
	<path id="ID-JT" fill="#1E3250" stroke="#1E3250" stroke-width="0.5" d="M284.95,243.04l-0.54,0.37l-0.11,0.82l-0.66,0.09
		l-0.24,1.35l-0.7,0.68l0.98,0.67l-0.13,2.18l-1.34,1.98l-1.63,0.69l-0.35,0.89h0.46l-0.17,0.55l0.3,0.15l-0.09,0.27l-3.69-1.62
		l-0.46-0.56l-1.11,0.31l-0.11,1.74l-0.46,0.96l0.57,1.35l0.16,1.44l0.64,0.42l-0.21,1.77l0.83,0.69l0.96-0.05l-0.1,0.57l0.58,1.3
		l-1.11,1.63l-0.98-0.18l-0.08-0.29l-0.81,0.35l-0.16,1.54l-0.45,0.7l-0.55-0.31l-0.84,0.61l-1.27-0.33l-0.69,0.92l-0.13,1.73l0,0
		l-1.19-0.29l0,0l0.04-0.5l-0.38,0.02l0.24-0.61l-0.54,0.37l-0.23-0.18l0.05-0.75l-0.57-1.61l0.55-3.38l-0.29-0.17l-0.24,0.27
		l-0.69-0.59l-0.58,0.27l-0.19-0.33l-1.48,0.32l-0.21-0.34l-0.59,0.14l-0.75-0.46l-0.81-3.89l-2.39,1.88l-0.57,0.77l-0.43-0.9
		l-2.16,0.15l0.02,1.59l-1.2,1.27l-0.31,1.28l-0.58-0.03l0,0l-5.31-1.61l-3.8-0.71l-1.19,0.26l-0.46-0.34l0.17-0.5l-1.87-0.42
		l-3.85-0.11l-0.75,0.65l-0.09,0.38l0.59,0.31l-0.19,0.24l-4.21-0.71l0.01-0.57l-0.25-0.08l1.34-0.77l-1.05,0.21l0,0l-1.18-0.98
		l0.37-0.96l-0.64-1.31l0.03-0.9l-0.66-1.07l-0.51-0.48l-1.17,0.09l-0.39-0.22l-0.09-0.82l0.47-0.81l-0.26-1.35l0.98-0.48l1.26,0.24
		l0.48-0.58l0.94-0.31l0.02-1.05l0.31-0.59l-0.65-0.37l-0.11-1.15l1.24-1.54l0.07-1.47l0,0v0.5l0.54,0.5l1.63,0.47l0.24-0.4
		l1.34-0.42l0.34-0.39l0.14,0.89l0.66,0.62l2.55,0.46l2.79-0.39l1.72-1.22l0.96,1.02l1.48,0.17l3.75,1.21l2.28,0.02l2.33-0.77
		l0.48-0.52l0.76,0.24l0.5,0.82l1.2,0.59l1.01,0.31l1.13-0.25l0.12,0.23l0.61-0.23l0.69-1.85l0.97-1.25l-0.55-0.04l-0.15-0.23
		l0.4,0.07l-0.25-0.46l0.62,0.08l1.04-1.14l0.15-1.85l0.55-0.62l-0.29-0.32l0.98-0.96l3.15-0.78l2.42,0.4l1.03,3.09l0.65,0.86
		l1.73,0.6l2.31,0.23l1.4-0.61l0.18-0.49l0.49-0.27l1.37,0.41L284.95,243.04z"/>
	<path id="ID-KB" fill="#1E3250" stroke="#1E3250" stroke-width="0.5" d="M235.75,155.4l-0.39-0.07l-0.58-1.45l0.15-0.3l1.59-0.47
		l0.62,0.14l0.55,0.61l-0.3,0.89L235.75,155.4z M247.56,143.86l1.58-0.24l0.85,0.59l0.67-0.54l0.47,0.24l0.64,2.41l-5.01,2.89
		l-1.31-0.43l-0.44-0.45l0.73-1.12l0.37-2.63l0.75-1.05L247.56,143.86z M249.5,91.1l-0.5,1.38l-0.67,0.97l-0.6,0.07L247.67,94
		l0.17,0.65l0.85,0.94l1.2,0.3l0.15,0.35l-0.42,2.14l0.3,0.65l2.17,1.96l0.83,1.29l1.77,0.25l0.42,1.69l1.49,0.74l0.35,0.87
		l0.43,0.35l1.32,0.07l1.5,2.31l0.32,0.97l1.95,0.25l0.9,1.37l1.55,0.7l1.27-0.05l0.4-0.67l0.45,0.45l0.45-0.02l2.83-1.25l0.9-1.14
		l3.85-0.5l1.95-0.57l2.57,1.19l1.2-0.32l0.77,0.12l0.7,1.17l0.32-0.55l1.65-0.89l1.27,0.5l0.58-0.17l1.7,0.35l0.32-0.77l1.35-1.39
		l3.22-0.22l0.37-2.73l0.85-0.84l0.05-0.65l-0.42-0.65l0.5-0.55l1.7-0.79l1.57-0.35l1.65-0.94l2.9,0.37l1.65-0.12l0.9,0.42
		l1.12-0.82l2.37,0.271l0.65,0.7l-1.62,1.96l0.75,0.07l1.35-0.45l0.37,0.05l0.38,0.67l0.75,0.22l2.37,0.05l1.8,1.59l2.12-0.55
		l0.67,0.3l0.75,1.34l0.32,0.1l2.92-1.44l0.23-1.22l1.92-0.79l0.4-0.45l3.05-0.32l1.17,0.93l0,0l-0.03,0.01l0,0l-0.82,0.42
		l-0.12,1.72l0.21,0.18l-0.33,0.42l-0.21,1.39l-1.37,0.57l-1-0.09l-0.52,0.42l-0.09,0.66l-0.97,0.39l-0.09,0.36l0.46,0.72l-0.79,1.3
		l0.85,1.48l-0.52,0.63l-0.12,1.18l-0.67,0.271l-0.06,0.78l0,0l-0.51,0.29l-0.23,0.71l-1.11,1.27l-1.08,0.42l-0.27,1.09l-1.31,0.76
		l-1.71,1.77l-0.92,0.56l-1.38-0.26l-1.37,0.58l1,1.2l1.55,0.82l-0.15,1.34l0.55,0.6l-0.44,1.14l0.44,0.27l-0.36,0.79l-0.44,0.26
		l0.34,0.2l-0.08,0.33l-0.36,0.07l-0.84,1.09l-0.85,0.18l-1.44,1.78l0.78,0.71l0.19,0.78l-0.82,1.29l-0.56-0.56l-0.49-0.01
		l-0.14-0.35l-1.36,0.87l-1.33-0.14l-1.77,0.73l-0.67,0.63l-1.85,0.1l-0.08,0.86l-0.74,0.03l-0.25,0.42l-0.89,0.03l-0.6,0.56
		l-1.01,0.27l-0.85-0.16l-0.31,0.69l-0.37-0.26l-0.01-0.61l-0.37-0.14l-1.34,0.75l-0.41-0.18l-0.36,0.44l-1.05-1.69l-0.89-0.31
		l-0.82,1.14l0.14,0.79l-2.23-0.42l-0.19,0.18l0.25,1.43l-1.21,0.34l-0.86-0.68l-0.14,0.86l0.29,0.76l-0.67-0.15l-0.78,0.9
		l-1.01-0.07l-1.92,1.13l-0.59,0.04l-0.3,0.37l0.18,0.69l-0.94,0.63l-0.27,0.54l0.31,0.64l-0.26,0.48l0.33,0.29l-0.12,0.3
		l-2.84,0.65l-0.12,0.54h-0.3l-0.36,0.75l-0.63,0.33l-0.75,1.4l-1.11-0.22l-0.12,0.53l-0.38-0.14l0.05,1.44l-0.63-0.79l-0.82,0.49
		l0.33,0.84l-0.81,0.22l-0.37-0.42l-0.78,0.45l-0.49-0.39l-2.15,1.56l0.04,0.78l0.44,0.11l0.44,0.63l1.14-0.86l0.51,0.68l0.12,1.2
		l-0.63,1.16l-0.03,0.64l0.33,0.41l-0.38,0.79l0.49,0.65l1.45,0.14l-0.08,0.82l-0.7,0.59l0.64,1.52l-0.78,1.24l0.69,1.13l0.52,1.82
		l0.62,3.37l-0.33,0.82l0.79,0.26l0.15,0.45l-0.52,0.91l-2.36,0.82l-0.15,0.57l-0.62,0.52l-1.18,0.2l-1.99,0.89l-0.72,1.22l0,0
		L267,179l-0.34-0.14l-0.03-1.83l-0.37-0.87l-0.47-0.57l-0.64-0.07l-2.39,0.97l-1.95,1.6l-0.67-0.37l-0.5-1.5l0.64-1.67l-0.75-0.66
		l-0.18-1.66l-1.26-0.37l0.67-0.8l0.25-1.26l-1.04-3.8l-0.73-0.87l0.54-3.25l-0.7-1.8l-2.36-1.2l-0.78-0.75l0.19-0.92l1.34-0.79
		l0.69-1.2l0.65-3.33l-0.2-2.26l-0.87-0.9l-0.8-0.18l-0.87-1.1l0.52-1.4l-1.92-0.63l-1.17-1.61l-0.67-0.41l-0.73,0.49l-1.13-0.75
		l-0.71-1.03l-2.28-0.82l-0.48,0.12l0.2,0.84l-0.521,0.49l-1.72-0.57l-0.56-0.57l-0.46-0.89l0.2-2.6l0.81,0.49l1.94,0.37l1.05,0.63
		l0.02-0.51l-0.97-0.73l-0.87-0.03l-0.23-0.46l0.3-1.13l-1.82,0.16l-1.68-0.6l-0.72-0.81l-1.41-4.521l0.34-0.59l0.64-0.13
		l-0.17-0.81l1.13-1.79l0.38-1.61l-0.2-1.18l-0.84-1.89l-1.1-1.16l-2.33-0.55l0.48-1.57v-0.52l-0.71-0.84l0.47-2.12l-0.27-0.92
		l-0.73-0.79l0.25-0.87l-0.75-0.89l0.15-0.43l1.21-0.6l0.67-0.69l0.39-1.14l-1.38-3.2l0.13-0.2l0.73,0.17v-0.76l1.33-1.85l0.23-0.79
		l-0.2-1.26l0.5-1.59l3.49-2.62l0.5-1.55l0.7-0.96l-0.13-1.92l1.85-0.19l0.78-0.64l1.69-0.03L249.5,91.1z M235.53,77.73l-1.14-0.67
		l0.92-0.77l0.31-1.05l0.48-0.17l0.45,0.43l-0.18,1.49L235.53,77.73z M181.92,77.95l-0.64-0.25l-0.33-2.69l0.3-0.92l2.55,1.42
		l-0.61,1.34L181.92,77.95z M226.4,63.5l-2.29,0.48l-1.46-0.81l0.6-0.84l1.25-0.91l-2.42-0.96l-0.98-1.85l-0.23-1.12l0.59-0.71
		l0.74-0.21l1.96-2.05l1.21,0.28l0.33,1.32l2.2,2.17l0.16,1.79l-0.22,0.78L226.4,63.5z"/>
	<path id="ID-KI" fill="#1E3250" stroke="#1E3250" stroke-width="0.5" d="M393.51,84.34l1.44,1.57l0.74,1.23l-0.02,0.43l-0.61,0.92
		l-2.71,2.45l-1.3-0.41l0.68,1.15l0.06,2.77l4.55,3.96l4.93,2.9l0.53,1.35l1.32,0.61l1.189,0.09l3.101,2.66l1.109,1.81l2.69,0.85
		l0.25,1.11l-1.29,1.49l-2.42,1.67l-2.04-0.77l-2.97,0.28l-2.79-0.25l-3.08-0.58l-1.63-0.74l-0.7-0.72l-0.67-1.8l-0.67-0.57
		l-1.05-0.31l-0.03,0.44l2.4,4.1l0.09,0.74l-0.61,0.44l-1.67-0.9l-1.59,0.51l-1.2,1.17l-0.36,0.77l-0.01,0.91l-1.71,3.53l-0.91,0.66
		l-0.81,1.73l-0.95,3.33l1.06,2.34l-0.82,1.1l-0.79,2.47l0.61,1.75l-0.45,3.12l2.57-1.67l0.66-0.05l-0.99,3.86l0.85,2.21l-2.93,1.46
		l-2.14-0.12l-0.7-0.83l-0.42,0.26l-0.14,0.8l-1.95,2.35l-2.05,3.34l-1.78,0.95l-1.84,0.33l-1.32-2.97l0.31-1.12l-0.32-0.14
		l-0.47,1.83l0.7,0.7l0.59,1.31l-0.55,2l-2.25,0.78l-1.5,1.05l-0.04,0.92l0.49,0.79l-0.44,0.88l-2.37,0.94l-3.09,1.71l0.65,0.58
		l2.11-0.8l1.07,0.29l0.22,4.51l-0.39,0.49L365.6,163l2.13,0.28l0.41-0.4l0.29,1.08l1.42,0.38l-0.81,3.86l0,0l-2.43-0.9l-2.7-0.03
		l-1.28-0.42l-2.73-0.15l-0.92-0.56l-2.35,1.62l-0.28-0.53l0.03-1.02l-0.71-1.73l0.18-1.52l0.36-0.56l-0.75-0.5l-0.5,0.14
		l-0.53-0.24l0.21-0.6l-0.28-0.74l0.39-1.42l-0.14-1.87l-0.85-1.3l0.03-0.81l-0.85-0.89l0.14-0.7l-0.28-0.39l-1.21,0.14l-0.18-0.35
		l1.96-2.29l0.32,0.07l-0.15,0.77l0.25,0.07l1.07-1.271l0.25-0.99l0,0l-0.01,0.01l0,0l0.23-1.3l1.39-1.45l-0.76-0.66l-0.66,0.4
		l-0.23-0.14l-0.19-0.69l-0.74-0.58l-0.42,0.05l-0.44-1.24l-1.32-0.84l-1.39-1.67l-1.68-0.3l-0.41-1.01l-0.25-3.09l-0.5-0.43
		l-0.39-1.03l-0.95-0.8l0.21-1.09l-0.37-0.1l-0.19-1.46l0.42-0.08l-0.25-0.93l0.55-0.95v-0.67l0.86-0.84l-0.36-1.12l-2.42,1.17
		l-0.29,0.66l-0.94,0.24l-0.76,0.66l-0.9-0.24l-1.02,0.19l-0.68-3.93l-0.93-0.64l-0.59,0.11l-0.29-0.5l0.29-1.3l0.45-0.83l0.58-0.27
		l0.53-1.13l0.67-0.43l0.38,0.27l1.04-0.21l0.51,0.5l1.54-1.54l0.05-0.71l-0.65-0.57l-1.61-2.67l-0.68-2.31l-0.96-0.51l-0.8,0.75
		l0.26,0.71l-1.2-0.87l-0.89,0.17l-0.82,0.6l-0.87-0.04l-1.38,1.29l-0.79,0.03l-0.21,1.02l-1,0.03l-0.67,0.45l0.06,0.67l-0.21,0.06
		l-1.94-0.73h-1.97l-0.1-0.42l-0.63-0.33l0.33-0.54l-0.33-0.97l-0.73-0.45l-3.67,0.96l-0.91-0.33l0,0l0.06-0.78l0.67-0.27l0.12-1.18
		l0.52-0.63l-0.85-1.48l0.79-1.29l-0.46-0.73l0.09-0.36l0.97-0.39l0.1-0.66l0.51-0.43l1,0.09l1.37-0.57l0.21-1.38l0.33-0.43
		l-0.21-0.18l0.12-1.72l0.82-0.42l0,0l0.37-0.15l0,0l0.24-0.45l2.28-0.76l0.57-0.54l2.58,1.51l0.61-0.55l0,0l1.66,1.39l1.59,0.46
		l0.78,0.87l0.41,1.28l0.82-0.46l0.72,0.1l0.52,0.21l0.87,1.48l1.13,0.25l0.88-0.97l2.67,0.36l0.83-0.92l1.03,0.2l1.28-1.17
		l0.26-1.59l0.41-0.41l1.96,0.06l2.31-0.87l2.32-0.05l1.03-0.87l0.56-1.18l2.47-2.91l1.29-2.46l-0.21-1.84l2.47-2.2l0.41-3.73
		l1.19-1.64l0.56-1.64l0.52-0.05l1.34,0.87l0.3,0.72l1.34,0.25l1.03-0.3l1.75-1.13l2.26-0.77l2.01-1.17l2.73,0.25l2.47-0.41
		l0.51,1.13l0.62,0.46l1.8,0.72l1.08-0.26l1.6,1.69l1.38,0.51l0.37,0.05l1.28-0.77l1.29-0.15L393.51,84.34z"/>
	<path id="ID-KR" fill="#1E3250" stroke="#1E3250" stroke-width="0.5" d="M160.19,132.56l0.89,0.49l1.06,1.93l-1.03,0.83l-0.54,1.88
		h-0.54l-0.86-0.88l-0.49,0.2l-0.15,1.271l-0.49,0.2l-0.71-2.52l-1.18-0.9l0.44-1.52l0.74-0.22l0.07-0.78l0.22,0.76l-0.44,0.42
		l0.42,0.64l0.15-0.86l0.98,0.27l0.49-0.32l0.17-0.78L160.19,132.56z M165.45,130.19h0.52l-0.02-0.9l0.25-0.2l1.18,1.59l0.94,0.76
		l0.76,0.07l0.07,0.44l-1.45-0.44l-0.29,0.271l0.44,0.51l-0.12,0.24l-0.91-0.46l-0.39,0.12l-2.49-1.93l-0.89,0.15l-0.89,0.61
		l-0.54-0.1l-0.66,0.51l-0.52-0.59l-0.71,0.15l-0.54-0.46l0.02-0.64l1.38-0.95l-0.17-2.27l0.81-0.37l1.67,1.08l1.65,1.81l0.22,0.71
		L165.45,130.19z M158.53,124.18l0.17,0.22l0.07-0.44l0.52,0.05l1.92,2.05l-0.98,0.42l-0.49-0.29l-1.28-1.42l-0.91-1.56
		L158.53,124.18z M160.94,122.64l1.75,2.15l1.33,1.1l-0.07,0.56l-2.21-1.54l-1.62-1.83l-0.02-0.51L160.94,122.64z M158.93,121.05
		l0.57,0.39l-0.57,0.17l0.34,0.34l-0.86-0.34l0.07,0.27l-0.44,0.46l-0.3-0.07l-0.47-0.83l-0.22,0.07l-0.07-0.64l0.71,0.2l0.07-0.44
		l-0.66-0.54L158.93,121.05z M156.54,113.14l-0.17,0.83l0.7,0.53l-0.8,0.34l0.93,0.18l0.07-0.32l0.39,0.29l-0.2,0.29l-0.64-0.15
		l-0.12,1.03l-0.57-0.46l-1.3-2.2l1.45-0.51L156.54,113.14z M150.53,113.56l-0.1,0.17l-1.53-1.54l-0.3-0.93l1.65,1l0.54,0.93
		L150.53,113.56z M149.03,113.31l-0.22,0.49l-0.17-0.42l-1.21-0.61l-0.47-1.2l0.59-0.44l1.13,1.27L149.03,113.31z M142.85,111.42
		l0.11,0.64l1.14,1.32l-0.2,0.35l-0.98-0.75l0.41,0.72l-0.17,0.79l0.31,0.37l-0.39,0.97l-0.52,0.2l-0.24-0.37l-0.72-0.06l-0.92-1.34
		l-0.18-1.8l0.37-1.21l0.76,0.44l-0.09-1.12l0.55-0.42l0.66,0.35L142.85,111.42z M153.91,110.41l0.32,0.1l0.15-0.44l0.42-0.05
		l0.32,0.39l-0.15,0.51l-0.3,0.07l0.1,0.51l0.79,0.07l0.79,0.54l-1.62,1.05l-0.37-1.2l-0.91-0.22l-0.02-0.95l-0.2-0.17l-0.34,0.32
		l-0.27-0.24l0.17-0.66l0.49-0.1L153.91,110.41z M148.44,110.11l-0.91-0.78l0.42-0.66l0.49,0.49V110.11z M149.62,108.18l-0.05,0.27
		l0.84,0.86l1.23,0.66l0.05,0.49l-0.42,0.1l-0.17,0.73l-2.12-1.37l0.2-0.78l-0.64-0.61l0.12-0.29l0.34,0.17l0.37-0.24v-0.49
		L149.62,108.18z M141.59,107.06l-0.07,0.24l-0.35-0.11l-0.06,0.75l1.11,1.78l-0.87-0.04l-1.4-0.83l0.3-1.38l0.7-0.2l0.33-0.57
		L141.59,107.06z M154.37,107.03l-0.17,1.91l-0.74,0.05l0.02,0.88l-0.84-0.22l-0.25,0.22l-2.12-0.93l-0.27-1.3l0.4-0.06l-0.08,0.55
		l0.37-0.02l-0.27-1.05l1.21,0.12l0.17-0.81l0.37-0.07l0.91,0.81l0.17-0.24l-0.25-0.51l0.57-0.24L154.37,107.03z M161.83,106.49
		l0.15,0.66l0.74,0.44l0.47,1.2l-0.25,1.22l0.27,1l-0.27,0.32l0.86,0.05l-0.89,1.54l-1.53-0.22l-1.33-0.86l-0.94-0.07l0.71-0.34
		l-0.94-1.22l0.22-0.34l0.57,0.05l-0.2-0.44l0.42-0.51l-0.44-0.42l-0.79,0.42l-0.15,0.71l-0.71-0.54l-0.39,0.49l-1.18-0.07
		l-0.64-0.93l-0.12-0.44l0.52-0.76l1.5-0.24l-0.27-0.76l0.39-0.17l0.71,0.15l0.49-0.34l1.75,0.49l1.21-1L161.83,106.49z"/>
	<path id="ID-KS" fill="#1E3250" stroke="#1E3250" stroke-width="0.5" d="M366.16,189.16l-0.17,0.2l-1.1-1.78l0.65-1.65l1.09-1.14
		l0.2,1.04L366.16,189.16z M361.45,196.11l-0.56,0.16l-0.61-0.27l0.45-2.05l-0.06-1.79l-0.9-1.25l-0.23-1.47l1.9-5.56l2.45-1.75
		l0.29,0.41l-0.36,2.29l0.27,2.65l0.82,3.98l-0.24,2.43L361.45,196.11z M355.11,149.23l-0.25,0.99l-1.06,1.271l-0.25-0.07l0.14-0.78
		l-0.32-0.07l-1.95,2.29l0.18,0.35l1.21-0.14l0.28,0.39l-0.14,0.71l0.85,0.88l-0.04,0.81l0.85,1.31l0.14,1.87l-0.39,1.41l0.28,0.74
		l-0.21,0.6l0.53,0.25l0.5-0.14l0.75,0.49l-0.35,0.56l-0.18,1.52l0.71,1.73l-0.04,1.02l0.28,0.53l2.34-1.62l0.92,0.56l2.73,0.14
		l1.28,0.42l2.7,0.04l2.43,0.9l0,0l-0.39,1.87l-0.52,0.66l-0.4,0.021l-0.28-0.78l-0.76-0.4l-1.98,0.4l-0.05,1.62l1.01,0.91l0.2,3.11
		l-0.33,0.85l-1.39,1.8l-0.73,0.21l-0.45-1.55l-0.95-1.65l-0.33-0.05l-0.38,1.72l0.19,0.89l1.55,1.9l0.1,0.98l-0.77,0.39l-1.25,1.71
		l-1.52,2.87l-0.62,2.92l-2.36,0.51l-1.8,1.51l-13.96,5.6l-3.79,2.28l-1.24,0.16l-0.49-0.96l-0.12-8.15l-2.09-2.71l-0.73,0.08
		l-1.54-0.88l0,0v-0.91l0.78-2.37l1.46-2.29l0.39-2.26l1.53-3l1.35-0.56l0.25-0.85l1.21-0.21l0.46-0.6l0.32-1.8l1.2-1.32l0.18-0.95
		l0.57,0.04l5.9-4.27l0.71,0.25l0.6-2.12l-0.71-1.94l0.96-0.74l0.25-0.81l-0.67-0.92l-0.11-0.78l1.6-6.1l1.99-0.32l2.2-0.99
		l0.5,0.11l0.99-0.78l0,0L355.11,149.23z"/>
	<path id="ID-KT" fill="#1E3250" stroke="#1E3250" stroke-width="0.5" d="M268.36,178.17l0.73-1.22l1.98-0.88l1.18-0.21l0.62-0.52
		l0.15-0.57l2.36-0.82l0.52-0.91l-0.16-0.45l-0.79-0.26l0.33-0.81l-0.62-3.37l-0.52-1.83l-0.68-1.13l0.78-1.24l-0.65-1.52l0.7-0.59
		l0.09-0.81l-1.46-0.14l-0.49-0.65l0.38-0.79l-0.32-0.41l0.02-0.64l0.63-1.16l-0.12-1.2l-0.51-0.68l-1.13,0.86l-0.44-0.63
		l-0.44-0.11l-0.04-0.77l2.15-1.57l0.49,0.4l0.78-0.45l0.37,0.42l0.81-0.22l-0.33-0.84l0.82-0.49l0.63,0.79l-0.05-1.45l0.38,0.14
		l0.13-0.53l1.11,0.22l0.75-1.4l0.63-0.33l0.36-0.75h0.3l0.12-0.54l2.84-0.66l0.12-0.3l-0.33-0.28l0.26-0.48l-0.32-0.64l0.28-0.54
		l0.94-0.63l-0.17-0.69l0.3-0.37l0.59-0.04l1.91-1.13l1.02,0.07l0.77-0.9l0.68,0.15l-0.29-0.76l0.14-0.86l0.86,0.68l1.2-0.34
		l-0.24-1.42l0.19-0.18l2.23,0.42l-0.14-0.79l0.83-1.14l0.89,0.31l1.05,1.69l0.36-0.44l0.41,0.18l1.34-0.75l0.37,0.14l0.01,0.61
		l0.37,0.26l0.32-0.7l0.85,0.17l1.01-0.27l0.6-0.56l0.89-0.03l0.25-0.42l0.74-0.03l0.08-0.85l1.85-0.1l0.67-0.63l1.77-0.73
		l1.33,0.14l1.36-0.87l0.13,0.35l0.5,0.01l0.56,0.56l0.82-1.29l-0.19-0.78l-0.78-0.71l1.43-1.78l0.86-0.18l0.83-1.08l0.36-0.07
		l0.08-0.33l-0.34-0.2l0.44-0.26l0.35-0.79l-0.44-0.27l0.44-1.15l-0.55-0.59l0.16-1.35l-1.55-0.81l-1-1.2l1.37-0.58l1.38,0.25
		l0.92-0.55l1.71-1.77l1.32-0.76l0.27-1.09l1.08-0.42l1.11-1.27l0.23-0.71l0.51-0.29l0,0l0.91,0.33l3.67-0.96l0.73,0.45l0.33,0.97
		l-0.33,0.54l0.63,0.33l0.1,0.42h1.97l1.94,0.73l0.21-0.06l-0.06-0.67l0.67-0.45l1-0.03l0.21-1.02l0.79-0.03l1.38-1.29l0.87,0.04
		l0.82-0.6l0.89-0.17l1.2,0.87l-0.26-0.71l0.8-0.75l0.96,0.51l0.68,2.31l1.61,2.67l0.65,0.57l-0.05,0.71l-1.54,1.54l-0.51-0.5
		l-1.04,0.21l-0.38-0.27l-0.67,0.43l-0.53,1.13l-0.58,0.27l-0.45,0.83l-0.29,1.3l0.29,0.5l0.59-0.11l0.93,0.64l0.68,3.93l1.02-0.19
		l0.9,0.24l0.76-0.66l0.94-0.24l0.29-0.66l2.42-1.17l0.36,1.12l-0.86,0.84v0.67l-0.55,0.95l0.25,0.93l-0.42,0.08l0.19,1.46l0.37,0.1
		l-0.21,1.09l0.95,0.8l0.39,1.03l0.5,0.43l0.25,3.09l0.41,1.01l1.68,0.3l1.39,1.67l1.32,0.84l0.44,1.24l0.42-0.05l0.74,0.58
		l0.19,0.69l0.23,0.14l0.66-0.4l0.76,0.66l-1.39,1.45l-0.23,1.3l0,0l-0.35,0.31l0,0l-0.99,0.78l-0.5-0.11l-2.2,0.99l-1.99,0.32
		l-1.6,6.1l0.11,0.78l0.67,0.92l-0.25,0.81l-0.96,0.74l0.71,1.94l-0.6,2.12l-0.71-0.25l-5.89,4.27l-0.57-0.03l-0.18,0.95l-1.2,1.33
		l-0.32,1.8l-0.46,0.6l-1.21,0.21l-0.25,0.85l-1.35,0.56l-1.52,3l-0.39,2.26l-1.46,2.3l-0.78,2.36v0.91l0,0l-2.42-1.15l-1.86-0.5
		l-1.22,0.09l-3.59,1.72l-2.65,0.25l-1.07-0.65l0.49-1.56l0.07-1.58l-0.62-1.44l-2.26,0.14l-0.62,1.09l-1.27,0.29l-2.09-1.33
		l-3.12-3.26l-0.52-0.07l-1.47,1.6l-0.11,0.57l0.44,0.57l-0.3,1l-3.31,2.03l-1.88,1.55l-2.07,0.51l-1.98-1.57l-1.93-0.67l-1.04-0.02
		l-1.45,0.56l-3.69,3.52l-1.02,0.4l-1.45-0.6l0.65-2.28l-0.47-3.66l0.25-2.62l-1.36-2.43l-0.4-1.6l-0.48-0.07l0.07,0.8l-0.57,0.84
		l0.43,0.35l-0.1,0.45l-0.94,0.17l-1.54,1.1l-1.08-1.27l-1.17-0.64h-1.48l-4.27,2.28l-2.45,0.5l-2.18-1.54L268.36,178.17z"/>
	<path id="ID-KU" fill="#1E3250" stroke="#1E3250" stroke-width="0.5" d="M388.19,70.24l-0.56,0.43l-1.29-1.02l-0.47-1.24l0.18-0.63
		l1.46-0.12l0.82,0.25L388.19,70.24z M383.46,65.45l2.19,1.51l-0.54,0.47l-1.69-0.74l-1.93-0.1l-1.04-0.85l0.08-0.43l0.91-0.38
		L383.46,65.45z M389.15,58.05l-0.78,0.29l-1.19-0.87l-0.12-1.1l0.78-0.85l0.49,0.05l1.25,1.01l0.1,0.47L389.15,58.05z
		 M391.93,54.74l0.43,0.19l0.42,2.01l-1.07,0.51l-4.13-3.13l0.97-0.99l0.51-0.03l1,0.35l0.77,0.8L391.93,54.74z M353.97,56.18
		l0.37-1.6l0.37,0.03l0.79-0.91l0.54,0.4l0.41-0.11l0.13-0.57l0.72-0.6l-0.02-1.46l0.53-0.19l0.33,0.57l1.51,0.3l1.02,1.2l0.59-0.89
		l0.85-0.33l0.28-0.75l1.71,0.4l1.52-0.35l1.17,0.97L367,52.9l0.59-0.14l0.23-0.54l0.84,0.09l-0.05-0.62l0.54-0.67l0.79,0.57
		l0.25,0.61l1.6-0.17l0.54-0.67l0.79,0.73l0.74,0.17l1.22-0.61l1.95,0.77l0.34-0.39l2.35,0.09l1.25-0.57l3.02,2.15l0.64,1.01
		l1.21,0.34l0.89-0.26l0.24,0.17l0,0l-1.72,0.79l-1.56-0.45l-0.17,0.74l1.35,0.54l2.64,2.22l-1.75,0.26l1.66,0.95l1.56,0.17
		l1.27,1.34l-0.21,0.9l1.06,0.32L391.05,63l-1.2,1.12l-1.07,0.21l-3.17,0.23l-2.67-0.38l-1.8,0.3l-0.93,0.94l0.03,0.41l0.56,0.87
		l1.48,0.93l1.26-0.15l0.8,0.21l-0.26,1.37l1.76,0.92l-0.17,0.28l-2.12,0.51l-0.29,0.46l-0.97,0.17l-0.17,0.34l2.55,0.67l2.71,1.18
		l1.22,2.08l-0.3,2.87l1.83,0.67l0.58,2.38l2.78,2.74l0,0l-0.69,0.59l-1.29,0.15l-1.29,0.77l-0.36-0.05l-1.39-0.51l-1.59-1.69
		l-1.08,0.26l-1.8-0.72l-0.62-0.46l-0.51-1.13l-2.47,0.41l-2.73-0.26l-2.01,1.18l-2.26,0.77l-1.75,1.13l-1.03,0.31l-1.34-0.26
		L369,84.11l-1.34-0.87l-0.51,0.05l-0.57,1.64l-1.18,1.64l-0.41,3.73l-2.47,2.2l0.21,1.84l-1.29,2.45l-2.47,2.91l-0.57,1.18
		l-1.03,0.87l-2.32,0.05l-2.31,0.87l-1.96-0.05l-0.41,0.41l-0.26,1.58l-1.29,1.18l-1.03-0.2l-0.82,0.92l-2.68-0.36l-0.87,0.97
		l-1.13-0.26l-0.87-1.48l-0.51-0.2l-0.72-0.1l-0.82,0.46l-0.41-1.28l-0.77-0.87l-1.59-0.46l-1.66-1.39l0,0l0.49-0.81l-0.06-1.06
		l0.8-0.47l0.9-1.22l-0.11-2.3l0.42-0.93l0.56-0.16l0.54,0.25l0.45-0.64l1.03-0.45l-0.4-0.81l0.72-0.97l-0.51-0.25l-0.76,0.34
		l-0.04-1.41l-0.51-0.48l0.32-2.13l1.84-0.2l0.78-0.49l-0.29-0.66l0.31-0.63l0.67,0.11l0.94-0.83h0.67l0.65-1.01l1.36-0.16l0.6-0.5
		l0.07-0.31l-1.25-1.47l-0.99,0.31l-0.31-0.47l0.4-0.79L344,79.93l0.6-0.52l0.18-0.77l-0.72-0.58l0.96-0.77l0.25-1.06l1.59-1.06
		l0.34-0.83l0.65,1.06l1.23-0.09l0.81-0.77l1.03-0.14l0.31-1.44l0.81-0.67l-0.76-0.9l0.42-2.81l0.63-1.26l0.34,0.02l0.4,0.63
		l0.4-0.58l-0.58-1.01l-0.67-2.43l0.05-1.55l0.7-2.31l-0.96-1.04l1.3-0.65l0.67-2.08l0,0L353.97,56.18z"/>
	<path id="ID-LA" fill="#1E3250" stroke="#1E3250" stroke-width="0.5" d="M148.02,209.15l0.65-0.05l0.05,0.51l0.43,0.03l0.38,0.48
		v0.54l-0.43,0.62l1.1,0.72l0.46-1.23l0.51,0.38l1.64-0.38l1.18,0.56l1.51-0.99l1.91,0.35l0.75-1.29l-0.78-0.97l-0.05-0.83
		l-0.54-0.32l0.27-0.78l0.65-0.64l-0.3-2.71l0.62-1.29l1.31-1.15l0.62,0.05l2.5-1.55l0.62,0.56l2.21,0.11l1.48-0.24l0.08-0.35
		l1.13-0.56l1.24-0.21l1-0.94l0.32-0.96l0.67-0.38l-0.3-0.35l0.43-0.43l0.27-1.07l0.38,0.05l0.11-0.51l0.54-0.27l0.67,0.24l0.7-0.64
		l0.22-0.48l-0.27-0.62l0.86-1.34l0.51,1.21l0.86-0.35l0.32,0.08l0.11,0.72l1.56,0.21l-0.13,0.8l0,0h0.54l0,0l0.35,0.27l-0.05,0.46
		l0.67,0.08l0.11,0.32h-0.38l0.75,0.94l-0.46,0.83l0.94-0.13l-0.22,0.59h0.65l0.38,0.94l0.75,0.08l0.57-0.46l0.8,0.82l0,0l-0.19,2.7
		l1.5,2.74v1.25l-0.34,0.83l0.51,0.84l-0.6,1.22l-0.36,1.87l0.78,1.86l-0.53,0.48l-0.27,1.24l0.15,3.61l-0.78,1.39l-0.08,3.78
		l0.21,0.73l-0.58,2.13l0.07,1.18l-0.36,1.05l-1.06,1.23l-0.16-0.97l-2.02-0.49l-0.09-1.59l-0.58-0.55h-0.53l-1.58-1.01l-0.83-0.78
		l-1.42-2.43l-0.33-0.07l-0.51,0.46l-0.13,2.04l-0.73-0.25l-0.6,0.41l0.4,0.81l0.32-0.01l-0.48,0.34l0.65,0.88l-0.73,0.12l-0.37,0.4
		l0.26,0.46l0.75-0.08l-0.51,0.53l-0.57,0.1l-3.35-1.62l-3.02-1.91l-1.53-1.53l-1.6-0.29l-0.86,0.4l-0.46,0.4l2.21,2.83l-0.18,0.46
		l1.18,1.77l0.33,1.46l-0.09,0.2l-2.48,0.13l-0.44-0.44l0.31-0.16l-0.18-0.73l-2.12-1.93l-0.41-0.72l-2.02-1.17l0.33-0.46
		l-0.94-1.15l-2.96-2.09l-1.48-1.71l-0.12-1.03l-1.63-0.59l-0.04-0.42l0.53-0.55l-0.55-0.95l-0.6-0.22l-1.46-1.37l-0.69,0.13
		l0.07-0.71l-0.78-0.66l-0.71,0.04l-1.17-0.68l0,0l0.18-0.53l1.83-1.07l0.13-0.51l0.92-0.05l0,0L148.02,209.15z"/>
	<path id="ID-MA" fill="#1E3250" stroke="#1E3250" stroke-width="0.5" d="M584.56,269.25l-1.56-0.07l-1.47-0.72l-0.16-0.33
		l1.05-0.38l1.36,0.07l1.03,0.51l0.06,0.52L584.56,269.25z M564.29,266.37l1.84,0.65h2.601l0.47,0.52l-1.771,1.72l-3.85-1.42
		l-0.68-1.31L564.29,266.37z M615.5,270.73l-0.67,0.05l-0.01-0.23l1.59-1.72l1.229-0.67l1.49-1.98l2.851,0.71l-0.631,0.62
		l-3.159,1.22l-1.08,0.77l-0.15,0.44L615.5,270.73z M597.56,265.67l-1.26-0.3l-1.91-2.34l0.011-1.12l0.38-0.68l1.63-0.22l2.439,0.87
		l0.341,1.44L597.56,265.67z M544.84,258.92l0.811,0.01l0.43,1.34l-1.41,0.06l-1.68,0.51l-1.87,1.83l-1.47,0.78l-6.17-0.8
		l-2.301,0.48l-2.229,1.79l-0.48-0.19l0.7-2.67l2.76-3.36l3.69,1.09l2.65-0.46l1.239-1.07l3.591-1.17l0.29,0.82L544.84,258.92z
		 M556.51,258.57l-0.6,0.06l-0.24-0.41l0.37-2l0.36-0.23l1.689,0.55l0.061,0.26l-0.131,0.7L556.51,258.57z M620.15,256.14
		l-1.341-0.42l-0.229-0.53l0.31-0.48l3.07-0.29L620.15,256.14z M631.69,250.9l-1.11,0.24l-0.61,0.5l0.67,3.98l-0.85,2.56l-1,1.3
		l-2.96,2.18l-0.99,1.6l-0.26,1.6l-0.46,0.24l-3.36-0.52l-0.42-2.3l1.82-3.14l-0.23-0.51l1.051-2.85l2.569-2.05l1.23-1.49l1.359-2.4
		l0.761-0.41l1.3-0.14l0.979,0.49L631.69,250.9z M634.93,249.14l1.051,1.98l-0.45,0.57l-0.841-0.58l-0.409-0.89l-0.99-0.18
		l-1.17,0.26l-0.65-0.32l0.391-0.68L634.93,249.14z M578.32,250.89l-0.49,0.17l-1.51-0.94l-0.17-0.62l1.54-1.1l1.39,0.76
		L578.32,250.89z M686.38,236.06l-1.649,3.67l-0.73-0.17l0.4,1.42l-0.66,0.2l-0.79,1.72l-0.83,0.5l-0.56-0.43l0.069-0.46l0.5-0.46
		l0.79-2.21l-0.53-0.26l-0.229-1.39l1.39-0.73l0.13-0.96l0.69-0.33l1.29-1.32l0.83,0.33L686.38,236.06z M649.59,228.88l-0.609,0.25
		l-1.261-0.69l-0.18-3.39l-0.37-1.68l1.12-0.32l1.81,3.45v1.13L649.59,228.88z M683.44,224.49l0.5,2.11l-0.631,0.13v0.3l1.32,0.66
		l-0.03,0.33l-0.56,0.36l-0.76-0.33l0.359,1.42l-0.63,0.07l-0.63-0.5l-0.17,0.43l2.05,1.95l-0.66,3.24l-0.659,1.12l-1.98,0.76
		l0.36,0.99l0.529,0.33l-0.069,0.5l-1.09,0.99l-0.891-0.26l-0.33,0.17l-0.229,0.56l0.1,0.33l0.5-0.17l-0.03,0.5l-0.63,1.02
		l-2.02,1.98l-0.03,0.66l-0.5,0.63l-2.35,1.22l-0.46-0.05l-0.36-0.89l-0.33-0.3h-0.69l-0.76-1.32l0.59-2.08l0.23-3.11l0.56-2.18
		l-0.56-3.27l0.66-0.07l-0.431-1.19l0.23-1.06l0.43-0.36l0.17,0.5l1.261-0.26l0.3,0.83l0.79-0.56l0.529-1.32l-0.46-0.79l1.42-1.979
		l-0.359-0.36l-0.5,0.3l-0.73-0.59l-0.83-0.1l-0.5-0.53l0.07-0.33l0.63-0.69l1.36,0.66l1.29-0.99l0.63-1.65l0.76-0.5l0.03-1.95
		l0.89-1.22l0.63-0.17l1.82,2.28l0.46,0.99l0.03,1.12l0.83,1.06l-0.07,0.5L683.44,224.49z M652.71,227.67l-2,2.33l1.6-5.32
		l0.931-1.16l2.22-5.58l0.979-0.09l0.33,0.7l-1.35,4.39l-1.39,1.15l-1.17,1.6l-0.28,1.01L652.71,227.67z M576.04,188.89l-2.08,0.41
		l0.12-1.69l0.53-0.39l1.21,0.12l0.92,0.91L576.04,188.89z M577.78,187.24l0.819,0.29l0.36-0.65l0.26,0.03l0.29,1.97l-1.67,0.12
		l-1.229-1.99l0.489-0.23L577.78,187.24z M572.79,189.04l-0.64,1.16l-1,0.84l-2.11,0.61l-0.38-0.04l2.03-2.16l-0.28-0.12l-3.66,2.28
		l-0.75-0.05l-0.42-0.53l-0.03-0.84l0.9-0.99l1.08-0.69l2.71-0.52l0.77-0.95l0.71-0.29l1.271,0.7L572.79,189.04z M560.64,184.56
		L558.7,184l-0.69-0.68l0.75-0.6l0.78,0.1l1.4,1.54L560.64,184.56z M563.07,182.65l-1.74-0.01l-0.6-0.5l1.21-1.1l0.83-0.13
		l0.579,0.46l-0.039,1.13L563.07,182.65z M549.59,180.77l1.87,1.18l0.21,0.97l-1.03-0.05l-0.22,0.36l0.2,0.74l0.75,0.68l0.84-0.53
		l2,0.66l-0.41,4.13l-0.34,0.63l-1.93,0.17l-4.13,2.02l-3,0.93l-5.38-2.15l-2.421-1.63l-3.43-3.25l-0.47-1.3l-0.14-2.87l0.27-0.56
		l1.23-0.84l0.409,0.09l1,1.08l0.61,0.03l1.23-1.13l2.289-0.6l5.551-0.22l1.55,0.26L549.59,180.77z M598.06,176.69l3.87,1.54
		l5.5-0.32l0.66,0.17l3.68,2.61l0.711,1.81l0.27,2.27l0.45,0.52l2.04,0.17l0.64,0.64l0.82,2.39l-0.07,0.62l-0.6,0.85l-0.101,3.35
		l-3.699-1.45l-1.011-1.06l-2.76-1.61l-4.57-1.54l-2.47-1.26l-0.56-0.74l-0.03-0.85l-1.19-0.76l-6.439-0.64l-0.29,0.32l0.12,0.54
		l0.92,1.42l-0.25,0.57l-0.47,0.12l-4.711-0.98l-2.38-1.08l-2.88,0.12l-0.319-0.26l0.85-1.01l0.04-0.67l-0.69-0.49l-0.88-0.13
		l-1.92,1.21l-2.74,2.7l-2.47,0.42l-1.14-0.69l-1.76-2.61l-1.471-0.99l-0.62-2.36l-0.689,0.02l-0.78,0.79l-0.62,1.51l-0.33,2.23
		l-0.46,0.64l-0.43,0.11l-0.93,1.67l-0.33,1.39l-0.16-0.25l-0.25-1.04l0.52-1.15l0.12-1.25l-0.87-1.35l-0.449-1.37l2.21-1.72
		l3.26-3.96l11.76,0.15l2.13-0.479l0.88-0.71l0.36,0.03l0.45,0.55l-0.03,1.35l1.08,0.93l1.38-0.29l2.31-1.47l0.5-0.96l2.61-0.37
		l4.22,1.56L598.06,176.69z"/>
	<path id="ID-MU" fill="#1E3250" stroke="#1E3250" stroke-width="0.5" d="M533.6,169.24l-0.51,0.08l-1-0.88l-0.6-2.36l-0.891-1.29
		l-0.619-2.48l0.439-1.09l0.61-0.63l0.59,0.08l0.79,0.69l-0.54,2.5l2.04,4.47L533.6,169.24z M522.63,157.74l3.771,0.32l1.85-0.49
		l3.94-0.12l6.229,0.53l-0.25,0.38l-1.41,0.6l-13.59,1.08l-2.189-1.19l-0.011-0.83l0.63-0.73l0.591-0.09L522.63,157.74z
		 M514.32,155.93l0.97,0.34l1.85-0.5l2.98,0.71l0.479,0.98l0.03,1.67l-2.77-0.21l-1.801,0.27l-0.97,0.93l-2.51-0.82l-4.86,1.81
		l-2.91,0.23l-1.329-2.3l-0.021-1.07l0.7-2.15l0.479-0.55l2.341-0.46l1.81-0.01L514.32,155.93z M564.91,151.22l4.53,2.771l0.31,0.94
		l-0.36,0.76l-1.37,0.52l-6.1-0.48l-1.14,0.66l-1.66,0.25l-1.94-0.89l-0.93-0.97l0.811-3.32l0.3-0.34l0.319,0.25l2.91-1.8l1.61,0.31
		L564.91,151.22z M560.33,148.31l-2.061,0.19l-0.67-0.63l1.561-1.04l1.8,0.72L560.33,148.31z M555.2,140.35l-0.7,0.24l-2.02-0.46
		l-0.11-0.69l0.82-2.08l0.869-0.01L555.2,140.35z M559.58,132.22l1.939,2.51l-0.31,0.95l-1.08,1.48l0.78,1.63l0.54,0.31l1.859-0.56
		l1.101,0.49l0.77,1.02l-0.06,0.51l-1.34,1.1l-1.061,0.29l-1.359-0.58l-1.21-1.47l-2.12,0.9l-0.44-0.15l-0.95-3.27l-1.72-1.82
		l-0.229-1.01l0.529-1.97l0.87-0.22l0.72,0.64l1.19-0.26l0.88-0.71L559.58,132.22z M552.86,135.79l-1.15-0.07l-0.16-0.44l-0.02-3.52
		l0.649-0.47l1.601-0.17l0.399,0.46l0.38,1.67l-0.46,2L552.86,135.79z M564.76,95.65l1.221,0.2l0.96,0.87l0.689,3.85l-0.82,2.98
		l-1.409,2.47l-4.431,3.2l-0.39,0.59l0.05,1.02l0.42,0.71l2.36,1.48l0.859-0.13l1.261-0.95l0.2-2.27l0.789-1.33l1.11-0.85l1.66,0.03
		l0.57-0.29l0.489-1.03l-0.149-0.47l-0.75-0.31l-0.21-0.82l1-1.59l3.22-2.229l1.17-0.49l3.21-0.71l1.67,0.35l-0.47,7.82l-0.58,0.67
		l-3.78,2.21l-2.54,0.74l-1.49,1.48l-0.01,0.44l0.42,0.85l1.94,1.43l4.13,1.49l1.5,0.13l0.32,2.48l-0.17,0.88l0.659,0.48l1.87,0.5
		l0.78,0.64l0.53,1.02l-1.561-0.9l-4.689-1.1l-1.57-1.32l-2.99,0.19l-1.14-0.3l-0.93-0.82l-1.5-0.26l-2.011-0.18l-0.63,0.38
		l-0.729,2.66l0.479,0.38l0.3,2.37l-0.689,1.13l0.04,1.35l2.609,6.84l3.051,5.1l3.26,3.24l-2.58-0.27l-0.38-0.36l0.13-0.35
		l-1.73-1.32l-2.029-1.05l-2.801-5.4l-2.42-1.36l-0.949-1.46l0.64-4.83l-0.22-2.24l-0.55-2.46l-1.48-1.24l-0.84-3.27l0.39-1.96
		l0.73-0.76l0.54-1.08l-0.08-0.52l-1.851-0.55l-0.199-0.3l0.26-0.98l-0.47-1.64l-1.4,0.26l-0.13-0.39l0.109-2.59l2.16-3.91
		l-0.02-1.38l0.75-3.76l2.14-3.19l3.771-4.02l0.659-0.56L567.92,89l-0.24,1.12l-1.61,2.44l-1.579,1.19l-0.091,1.56L564.76,95.65z
		 M575.61,91.47l-1.92,0.09l-1.91,0.47l-0.54-1.42l-0.23-3.54l1.98-3.1l1.5-1.46l2.22-1.05l2.13,2.63l0.15,0.79l-1.28,3.75
		l-0.89,1.6L575.61,91.47z"/>
	<path id="ID-NB" fill="#1E3250" stroke="#1E3250" stroke-width="0.5" d="M416.08,271.58l0.12,0.32l0.67-0.3l0.24,0.5l-0.271,0.41
		l-0.33-0.23l-0.14,0.32l-0.34-0.09l-0.15-0.95L416.08,271.58z M371.92,270.97l-0.2,1.4l-0.57,0.51l-0.42,1.71l-2.6,3.94l-0.1,0.58
		l1.52,0.45l-0.47,0.63l-2.02,0.33l0.47-1.48l-0.85,0.18l-0.4,0.38v1.56l-0.4-0.03l-0.17-0.35l-1.17-0.4l-2.17,0.08l-0.15-0.75
		l-0.3-0.05l-1.12,0.4l-0.9-0.25l-0.42,0.45l-1.15-1.08l-1.45-0.13l-0.35-0.4l-0.2-0.63l0.4-0.75l0.35-0.08l0.07,0.38l1.07,0.43
		l0.57-0.58l0.87,0.2l0.85-0.6l0.1-3.19l-0.55-0.54l-0.17-0.78l0.45-0.65l0.82-0.48l0.1-0.5l0.3,0.1l1.02-0.58l1.4-1.48l1.65-0.6
		l1.12,0.1l3.65,1.1L371.92,270.97z M386.97,267.29l1.15-0.07l0.53,0.46l-1.26,0.92l-1.54,2.79l-1-0.63l0.61-1.24l-0.44-0.39
		l0.01-1.23l1.33-0.79L386.97,267.29z M412.5,269.08h-0.69l-0.489-0.4l-0.04-0.9l0.83-0.93l0.79,0.08l0.54,0.93l-0.261,0.7
		L412.5,269.08z M393.25,266.42h1.97l1.299,0.5l0.37,1.88l0.75,0.6l0.38,0.95l1.2,0.63l1.37-0.53l0.3-0.65l1.07-0.88l3.4,0.78
		l0.6,1.38l-0.45,2.58l0.62-0.2l0.22-0.4l-0.1-1.63l0.45-0.85l1.35-1.13l3.22,0.55l-0.1,1.13l0.95,1.43l0.05,0.95l-0.54,0.25
		l-0.1,0.58l0.39,0.62l-0.03,0.79l0.69,0.18l0.95-0.38l-0.36-0.56l0.641-0.1l0.399-0.55l0.33,0.5l-0.45,1.13l0.15,1.13l-0.65,0.53
		l-1.57-0.28l-1.199,0.23l-1.12-1.05l-0.87,0.6l-1.6-0.38l-1,0.95l0.52,0.23l2.75-0.02l0.8,0.45l0.17,0.45l-0.399,0.33l-1.37,0.18
		l-2.101-0.83l-4.52,1.51l-1.25-0.48l-0.33-0.73l0.11-0.64l0.649-0.8l0.17-1.05l-0.6-0.88v1.1l-0.72,0.08l-0.38,0.58l-0.65,0.3
		l-0.13,0.53l-0.47,0.11l-1.37,1.38l-0.921,0.38l-0.819-0.6l-1.31,0.28l-0.32,0.6l-1.92,0.88l-0.62-0.23l-0.18-0.5l-0.8,0.48
		l-1.12-0.23l-2.87,1.48l-2.37,0.8l-1.3,0.08l-1.65-0.55l-1,0.05l-0.97,1.01l-1.67,0.4l-1-0.35l-0.32-0.4l-0.65-0.13l-0.37,0.25
		l-2.71-1.21l-0.3-0.5l0.32-1.76l0.55-0.28l-0.08-0.4l0.77-0.15l-0.8-1.53l0.27-0.23l-0.42-1l0.67-1.41l0.57-0.33l-0.22-0.83
		l0.47,0.33l1.58-0.25l3.5-2.61l4.45,1.76l0.65-0.88l2.24-0.2l1.12,0.78l0.62-0.05l0.32,0.95l-0.85,0.6l0.65,0.48l0.9-0.08
		l-0.32-1.3l0.4-0.13l0.37,0.95l0.55,0.02l0.05,0.45l-0.8,0.08l0.32,0.38l-0.1,0.6l0.62,1.66l1.5-0.3l1.65,0.55l1.47-1.21l1.37-0.3
		l1.05,0.43l1.57-0.63l-0.2-0.75l-0.5-0.45l-0.57-0.15l-0.15,0.25l-2.149-2.08l-1.67,0.2l-2.92-1.86l-1.72-1.86l-0.17-0.35l0.32-1
		l1.15-0.83l0.7,0.05l1.7-0.8L393.25,266.42z"/>
	<path id="ID-NT" fill="#1E3250" stroke="#1E3250" stroke-width="0.5" d="M487.29,308.08l0.82,0.08l-1.55,1.53l1.13,0.329l0.21,0.82
		l-0.48,0.59l-0.939-0.029l-1.641,0.939l-0.479,1.561l-0.63,0.149l-0.87-0.38l-0.851,0.77l-1.76,0.091l-0.57,0.409l0.34,0.341
		l-0.289,0.529l-1.03-0.409l-0.601,0.149l-0.119,0.37l-0.5-0.3l0.05-1.29l-0.46-0.88l0.13-0.37l2.13-0.74l0.729,0.11l1.15-0.32
		l1.41-1.37l0.99-0.28l0.22-0.649l0.439,0.03l-0.069-0.4l0.83-0.88l1.729-0.78l0.2-0.83l0.61,0.63L487.29,308.08z M462.44,307.04
		l0.869,0.29l-0.189,1.32l-2.19,1.58l-2.1-0.061l-1.1-0.67l2.609-1.46l0.22-0.83l0.41-0.25l0.67-0.22L462.44,307.04z M488.61,302.24
		l0.529-0.11l0.091,0.45l-0.78,0.26l-0.511,0.6l-0.18-0.35l-0.439-0.04l0.43,0.9l0.04,0.63l-0.43-0.06l0.31,0.35l-0.11,0.42
		l-0.399-0.01l-0.33-0.52l-0.79,0.57l-0.34-1.23l0.95-0.85l0.67-1.45l0.99-0.39L488.61,302.24z M428.93,288.78l1.261,1.49l1.77,0.05
		l0.521,1.07l0.069,1.21l0.391,0.5l0.689,0.05l0.57,0.45l2.439-0.82l0.54,0.97l1.7,0.87l1.48,3.08l2.069,0.97l0.49,0.7l0.34,1.07
		l-0.22,0.8l-1.16,0.67l-0.62,0.94l-0.859,0.57l-1.04,0.37l-1.53-0.07l-0.91,0.47l-0.32,0.62l-1.109-0.42l-0.57-0.55l-2.59,0.02
		l-1.11-0.5l-1.85-1.74l-0.44-0.1l-0.22-1.12l-1.04-1.19l-1.21-0.52l-0.05-0.47l-1.55-0.12l-1.511-1.26l-0.489-1.04l-0.66,0.2
		l-0.71-0.57l-2.04-0.47l-0.94,0.4l-0.27,0.5l-1.01-0.52l-0.37,0.1l-0.221-0.35l-2.12-0.02l-2.539-1.11l-2-2.41l1.21-1.64l3.25-1.41
		l0.54,0.35l1.5-0.57l0.76,0.32l1.97-0.3l1.26,0.32l0.79-0.52l1.03-0.02l0.74,0.52l1.93,0.4l2.54-2.16L428.93,288.78z
		 M514.04,281.26l0.2,0.08l-0.311,1.16l0.75,0.61l1.73-0.7l0.6-0.97l1.28,1.02l-0.09,2.49l-0.69,0.08l-0.67,0.53l-0.72-0.56
		l-1.04,0.02l-0.28,0.57l0.21,1.46l0.971,0.67l0.67,2.32l0,0l-1.681,1.51l-0.17,1.64l-0.53,0.56l-1.609,0.91l-2.07,2.88l-3.359,2.15
		l-0.65,1.39l-1.42,1.07l-1.04,0.28l-3.9-0.21l-2.18,1.98l-1.01,0.13l-2.721,1.24l-1.67,0.22l-0.84-0.25l-0.71,0.35l-1.24-0.73
		l-1.359,0.51l0.649-1.54l-0.13-0.69l0.58-0.22l0.07-0.66l3.649-1.43l0.49-0.86l-1.22-0.63l-0.9,0.01l-0.649,0.53l-0.42-0.28
		l-0.011-1.81l1.37-0.96l0.11-1.07l-0.45-0.66l0.68-0.56l-0.18-1.81l1.2-1.24l0.77-0.31l0.46-0.85l1.29-0.58l0.33-0.6l0.54-0.18
		l1-1.31l0.87-0.06l0,0l0.88,1.19l0.46-0.02l0.26,0.32l1.521-0.97l0.83,0.81l0.25,0.61l-0.14,0.86l1.209-0.28l0.23-0.5l-0.22-0.45
		l0.55-0.68l-0.02-0.55l0.97-0.44l0.43-0.59l-0.12-0.56l0.41-1.58l0,0l1.3,0.03l0.88-0.31l1.511-1.21l0.079-0.56l0.791-0.09
		l0.959-0.7L514.04,281.26z M425.09,278.91l-0.42-0.02l0.25-0.54l0.25,0.14L425.09,278.91z M422.78,278.72l-0.55-0.17l0.439-0.22
		L422.78,278.72z M421.78,276l-0.7,0.08l-0.15,0.28l-0.34-0.11l1.061-0.68L421.78,276z M422.48,275.22l0.289,0.01l0.181,1.3
		l0.56-0.24l-0.31-0.59l0.399,0.15l0.17-0.46l1.16,0.1l-0.09,0.63l-0.439,0.07l-0.34,0.55l-0.431-0.22l-0.229,0.37l-0.08,0.37
		l0.63,0.49l-0.65,0.95l-0.27-0.01l-0.29-0.6L422,278.4l-0.21-0.67l0.271-0.86l0.649-0.01l-0.149-0.5l-0.37,0.13l0.22-0.47
		l-0.43-0.8H422.48z M469.7,272.06l0.8,0.32l-0.57,0.89l-0.93-0.6l0.05-0.52L469.7,272.06z M419.48,272.47l0.17,0.58l1.149,0.21
		l0.38-0.19l0.11,0.91l-0.37-0.27l-0.09,0.19l0.39,1.05l-0.909,0.13v-0.48l-0.37-0.08l-0.391,0.62l-0.37,0.03l0.181,0.35l0.5-0.13
		l-0.33,0.61l-0.391-0.06l-0.329,0.46l0.38,0.45l-0.141,0.37l0.41,0.23l-0.52,0.25l-0.61-0.48l-0.52,0.22l0.569-1.44l-0.59-0.4
		l0.24-0.5l-0.25-0.25l1.05-1.05l-0.34-0.36l0.42-0.3l-0.28-0.77l0.5,0.12l0.061-0.44L419.48,272.47z M483.28,272.06l0.08,0.32
		l-0.33,0.28l-1.33,0.5l-0.82-0.24l-0.72,0.61l-0.78,1.45l-0.86,0.23l-0.279-0.47l0.25-1.02l1.08-0.58l0.479-0.94l0.78,0.2
		L483.28,272.06z M458.37,269.78l0.42,0.52l-0.1,0.34l-1.21,0.03l0.34-0.83L458.37,269.78z M484.17,268.74l0.561-0.21l1.569,0.68
		l-0.52,0.55l0.06,1.02l-0.279,0.6l-2.011-0.06l-3.04,0.43l-0.05-0.72l0.61-1.06l1.88-1.28l0.66,0.09l0.43-0.26L484.17,268.74z
		 M502.34,270.71l-0.84,1.05l-0.15,1.07l-1.34,1.24l-1.26-0.01l0.2-0.81l-0.55-1.3l-0.801-0.04l-0.699,0.67l-0.561-0.16l0.8-1.73
		l1.63-0.93l0.511,0.3l0.04,0.67l0.56,0.04l0.83-1.13l0.66-0.38l0.72-1.22l0.42-0.35l0.641-0.01l0.319,0.58l-0.439,0.82l0.08,0.98
		L502.34,270.71z M495.07,268.24l1,0.12l0.439,0.63l-1.47,0.55l-0.63-0.16l-0.72,0.28l-1.5,2.36l-0.91-0.36l-1,0.82l-0.15,0.38
		l0.48,0.98l-0.53,0.62l-0.58-0.04l-0.5-0.79l-1.58,1.16l-1.49-0.99l-0.41,0.35l-0.88-0.13l-0.189,0.24l-0.351-0.3l0.03-0.42
		l0.38-0.01l1.28-1.07l0.43-0.85l2.391-1.05l-0.74-0.75l-1.39,0.11l0.6-0.73l0.45-0.2l0.92,0.32l0.479-0.48l1.2-0.01l-1.03,1.95
		l0.94,0.32l0.71-0.56l-0.33-0.9h0.5l0.01,0.51l0.58-0.5l-0.55-1.14l0.7-0.09l0.189,0.52l0.711,0.15l0.01-0.6l1.52-0.93
		L495.07,268.24z M506.78,266.72l1.439,0.1l-0.2,1.02l0.25,0.16l0.83-0.5l1.681-0.32l2.79,0.3l0.77-0.36l2.41,0.08l0.7,1.39
		l0.04,1.65l-1.29,0.58l-3,0.12l-1.57,0.61l-2.44-0.1l-1.959,0.89l-0.811-0.44l-1.21,0.71l-0.229-0.35l-0.881,0.1l-0.359-0.72
		l1.1-1.83l2.38-1.19l-0.819-0.02l-1.591,0.79l-0.09-0.86l0.96-1.29l0.351-0.37L506.78,266.72z M479.25,266.46l0.78,0.51l-0.17,1
		l1.029,2.03l-0.71,0.68l-1.17-0.27l-0.58,0.85l0.101,1.17l-1.771-0.31l0.11,0.87l0.88,0.93l-0.16,0.97l-1.729,0.33l-0.11,0.41
		l-1.03-0.16l-1.819,0.72l-0.58,0.74l-1.971,0.65l-1.29-0.12l-1.079,0.26l-1.4-0.12l-0.35-0.32l-1.051,0.04l-1.46,1.1l-1.89,0.67
		l-0.96,0.02l-1.41,0.78l-1.91-0.56l-0.28,0.94l-0.25,0.07l-0.31-0.14l0.32-1.03l-1.08-0.64l-0.74,0.15l-2.52-0.32l-0.4,0.64
		l0.06,0.85l-0.43,0.42l-0.57,0.17l-0.71-0.39l-1.649-0.01l-2.93,1.19l-1.471-0.49l-0.92-0.75l-0.52-0.89l-0.811,0.18l-0.34,0.75
		l-0.46,0.12l-1.76-0.45l-0.891-0.9l-3.619,0.03l-1.23,0.63l-0.59-0.02l-1.15-0.3l-1.14-0.89l-2.23,0.61l-1.29,0.03l-0.569,0.78
		l-0.42-0.13l-0.021-0.82l-0.8-0.07l-0.67-0.75l0.06-3.21l1.261-1.2l0.08-0.55l-0.41-0.83l0.42-0.04l0.04,0.58l0.399,0.23l1.12-0.73
		l0.5,0.47l0.24-0.36l-0.23-0.38l0.351-0.56l0.75-0.13l0.57,0.63l-0.181,0.36l0.38,0.04l0.221-1.4l0.63,0.29l0.739-1.17l1.45-0.4
		l1.49,0.17l0.71-0.25l0.26-0.64l0.851,0.95l0.85-0.33l1.24,0.31l0.04-0.68l0.75,0.35l0.729,0.89l0.49-0.04l0.43,0.38l4.25,0.01
		l0.101,0.47l0.5-0.03l0.21,0.75l0.71-0.1l3.62,1.06l0.489,0.21l0.75,1.21l1.221,0.56l0.85-0.45l0.79,0.96l0.51-0.6l0.61-0.2
		l-0.26-0.57l0.82,0.36l-0.221-0.43l0.311-1.05l1.06,0.68l0.86-0.31l1.17,0.28l0.8-0.51l1.17,0.26l0.82-0.91l-0.061,0.5l1-0.56
		l0.23,0.06l-0.17,1.48l0.92-0.11l0.29,0.36l0.31-0.25l0.96,0.45l1.21,1.21l1.15,0.28l1.13-0.49l1.92-0.07l0.76-1.05l-0.04-0.39
		l-0.609-0.54l0.22-0.34l1.12-0.32l0.63-0.55l0.14-0.55l1.08-0.05l1.2-0.54l0.55,0.1l0.761-1.11l1.47-0.35l0.36-1.12l0.43-0.26
		l-0.61-0.34l-1.569,0.3l-0.41,0.68l-0.98-0.19l0.86-1.28v-0.77l0.819-0.21l0.62-0.53L479.25,266.46z"/>
	<path id="ID-PA" fill="#1E3250" stroke="#1E3250" stroke-width="0.5" d="M755.3,271.78l-5.319-0.63l-0.57-0.75l2.81-2.6l1.94-0.43
		l1.55,3.59L755.3,271.78z M750.41,269.05l-2.601,2.13l-2.649,0.84l-1.5-0.56l-5.96-0.4l-2.851,0.69l-0.51,0.35l-0.5,0.06
		l-0.24-0.42l1.67-4.74l3.07-5.93l2.48-3.53l2.979-2.1l2.44-0.96l4.779-0.89l2.12,0.11l1.16,0.55l1.67,2.43l1.32,0.25l0.62,0.98
		l-0.96,2.7l-1.181,1.89l-0.54,2.73l-1.72,1.79l-1.99,0.44L750.41,269.05z M750.85,242.54l0.61,0.5l1.3,0.24l0.82,1.21l-0.99,0.62
		l-0.75-0.28l-1.16-1.53l-0.13-0.51L750.85,242.54z M710.46,155.72l2.86,0.57l5.96,0.44l1.68,0.84l-0.43,0.46l-3.22,0.55l-2.54,0.83
		l-5.61-0.5l-4.021-0.96l-1.92-1.1l-2.55-0.77l-4.229-0.46l-1.08-1.28l0.93-0.28l1.17,0.38l11.08,0.79L710.46,155.72z
		 M754.93,160.39l1.2,0.01l1.96,0.66l12.71,6.22l1.79,0.26l2.55-0.31l1.28-0.61l0.99,0.06l0.859,1.38l1.91,0.88l0.92-0.17
		l0.101-0.27l1.66,0.03l2.67,0.39l1.569,0.56l0.46,0.67l-0.83,1.47l0.46,0.38l1.671-0.47l3.149,0.07v64.11l-0.68,0.07l-0.67,1.97
		l0.33,0.85l-1.46,2.27l-0.07,0.81l0.21,1.87l0.55,1.2l0.811,0.83l0.979-0.18l0.021,38.79l-2.86-1.43l-1.46-1.85l-2.57-2.39
		l-1.819-2.97l-7.82-6.31l-1.15-1.31l-0.05-0.97l1.38-1.15l1.49-3.22l-1.63,0.71l-0.24,2.21l-2.149,1.05l-5.11,0.18l-1.58,0.91
		l-2.82,0.51l-0.7-0.08l-0.869-0.55l-1-1.4l-2.32,0.88l-1.91,1.4l-0.6,1.29l-0.5,0.06l-1.271-2.92l1.17-1.61l0.12-2.16l1.4-0.79
		l0.21-1.85l0.89-2.23l0.66-0.7l0.02-0.51l-2.779-1.7l-1.23-2.2l-3.319-1.95l-0.15-0.4l4.71,0.03l2,0.85l2.17-0.22l0.811-1.32
		l-1.051,0.7l-2.06,0.19l-3.37-1.03l-1.71-0.78l-2.89-2.55l-0.32-0.95l0.609-0.49l2.48,0.33l1.1-0.71l1.801-0.22l1.279,0.44
		l2.141,1.76l1.38-0.05l-1.69-0.59l-1.77-1.41l-1.8-0.45l-3.471-1.82l-0.26-1.09l0.66-0.19l-3.86-3.9l-1.27-2.16l-0.75-3.38
		l-1.2-2.22l0.02-2.02l-1.479-0.41l-0.76-0.66l0.41-0.6l2.77-1.35l-0.64-0.17l-1.61,0.25l-0.99,0.57l-1.609,0.23l-0.32-1.8
		l0.22-3.76l-0.5,0.88l-1.52-0.57l-4.94-3.51l-1.52-0.61l0.319-0.57l-1.3-0.01l-1.89-0.85l-2.431-2.05l-1,0.44l-3.58-1.01
		l-3.13-0.41l-8.01-4.27l-1.76,0.02l-3.86-1.56l-1.09-1.33l-0.76-0.31l-3.53,0.05l-5.17-1.12l-3.34,0.52l-6.29-3.14l0,0l1.64-2.37
		l1.061-0.81l1.71-3.01l2.29-2.84l-8.49-3.09l-6.45-1.87l-3.35-1.38l1.14-2.52l0.98-1.22l1.63-0.97l0.24-1.95l1.55-0.81l2.479-2.27
		l0,0l0.61,2.49l0.47,0.36l1.38-0.63l0.41-0.86l0.45,0.04l-0.07,1.85l-0.49,0.45l-0.17,1.43l1.11,2.15l2.05,1.51l2.13,0.55
		l3.73,0.43l2.22-0.42l1.63-1.11l0.23-1l0.64-0.78l1.86-0.74l0.92-0.73l-0.45-0.58l0.4-0.51l2.479-1.07l0.51-0.79l0.32-2.73
		l1.229-1.46l2.711-1.14l1.25-1.01l1.51-3.6l-0.141-1.45l0.391-0.49l0.91-0.63l1.27-0.1l0.87,0.05l0.24,0.41l0.96,0.24l2.63-0.03
		l4.11-1.99l1.31-0.41l2.1-0.1l0.83-0.81l-0.64-1.8l-0.63-0.29l-0.91-1.04l0.19-1.229l3.88-1.57l4.489-2.61l4.17-1.47l1.48,0.26
		l2.24,2.02l6.1,2.16l4.19,1l1.529,0.96l0.761,1.02L754.93,160.39z M686.74,146.26l-0.971-0.01l-1.13-1.66l0.19-1l0.5-0.67
		l0.81-0.05l0.73,0.35l1.08,1.11l-0.08,1.04l-0.49,0.69L686.74,146.26z M696.37,138.25l3.32,0.28l1.619,1.07l0.971-0.75l0.54-0.07
		l3.689,2.93l2.23,3.23l1.25-0.22l2.08,1.13l-2.101,1.44l-1.85,0.4l-1.04-0.02l-1.35-0.8l-2.341,0.19l-0.88-0.87l-0.779-3.16
		l0.029-0.92l-0.569-1.23l-0.5-0.05l-1.811,0.86l-1.79-1.52l-0.66-0.15l0.08,0.54l-0.42-0.16l-1-0.95l-0.62-1.33l0.261-0.49
		L696.37,138.25z"/>
	<path id="ID-PB" fill="#1E3250" stroke="#1E3250" stroke-width="0.5" d="M663.38,199.77l0.76,0.9l-5-2.24l-0.159-1.15
		L663.38,199.77z M604.91,162.17l-1.23,0.04l-3.609-1.07l-3.03-1.57l-0.33-0.42l0.58-0.54l4.95-1.98l5.41-1.05l1.409,2.5l0.061,2.57
		l-0.94,0.62L604.91,162.17z M600.4,147.5l-1.71,0.55l-1.58-0.54l0.42-0.67l1.8-0.5l1.55,0.52L600.4,147.5z M617.15,142.02
		l0.59,0.77l1.75-0.42l0.689,1.04l-0.05,1.91l-0.58,2.67l-0.72,1.64l-0.61,0.38l-1.5-0.28l-2.04-1.69l-1.1-2.06l0.35-0.54
		l-0.27-0.73l-1.01-1.06l0.43-0.44L617.15,142.02z M617.46,140.29l-0.45,0.77l-1.64,0.7l-2.22,0.47l-3.301,0.05l-1.38,0.3l1.54-1.52
		l4.17-0.12l1.33-0.3l0.63-0.7h0.79L617.46,140.29z M612.08,136l-2.44-0.27l-0.159-0.97l2.739-1l0.8,0.28l0.591,0.71l-0.45,0.75
		L612.08,136z M663.43,139.65l3.04,0.05l0.08-0.56l3.91,0.1l2.24,1.81l-1.41,2.26l1.69,3.19l1.35,1.19l1.31,2.39l-0.79,0.87
		l-0.239,2.51l-2.301,2.07l0.591,3.54l0.39,0.86l-0.21,2.02l0.46,4.6l1.09,1.87l0.53,0.18l1.15,1.14l2.47,6.13l0.55,0.02l0.54-0.46
		l-0.9-3.57l0.19-1.76l0.939-0.96l1.771,0.89l0.26,0.91l0.101,4.32l0,0l-2.48,2.271l-1.55,0.81l-0.24,1.95l-1.63,0.97l-0.98,1.22
		l-1.14,2.52l3.351,1.38l6.449,1.87l8.49,3.09l-2.29,2.84l-1.71,3.01l-1.06,0.81l-1.641,2.37l0,0l-1.16-0.49l-2.68-2.25l0.65-3.04
		l0.43-0.22l2.5,0.31l1.04,0.45l0.93-0.67l-5.1-0.45l-0.96,0.74l-0.34,0.9l-1.311,0.28l-1.53-1.94l-1.159-0.28l-0.45,1.63
		l-0.641,0.33l-2.079-1.31l-0.351-0.72l0.521-1.11l-0.88-1.21l-0.25-0.11l-1.74,0.91l-1.75-0.94l-1.601-2.78l-0.63,0.44l0.141,0.98
		l-0.44,0.1l-1.229-0.78l-1.24-2.73l1.1-1.04l-0.2-2.35l0.44-1.45l2.55-1.9l0.03-1.29l-0.58-0.79l-2.94,3.01l-0.279,4.72l-1.71,0.85
		l0.79,1.27l-0.07,0.58l-3.22,2.83l0.119,1.2l0.601,0.52l0.17,0.64l-3.7,3.57l-3.27-0.25l-0.99,0.96l-1.36-0.34l-1.67-2.78l0.2-0.16
		l-0.16-0.61l-1.16-2.99l0.561-1.47l1.83-0.66l0.66-0.68l-0.771-1.44l-0.56,0.06l-0.471-0.38l-0.369-1.4l0.3-1.14l-0.91-0.63
		l-0.601,0.24l-0.17,1.04l-1.01-0.31l-1.16-1.56l-0.08-0.85l-0.619-1.18l-1.58-1.24l-3.33-1.83h-1.44l-1.899,0.49l-2.141-3.1
		l3.141-1.61l3.1-0.19l4.4,0.6l2.6,1.72l2.07-1.49l3.05-4.02l1.51-0.87l2.42-0.49l1.1,0.53l1.32,1.27l2.08,0.76l1.71-0.47l0.76,0.09
		l0.511,0.73l0.01,2.26l0.25-0.34l0.22-3.13l0.61,0.12l1.31,2.34l0.07-2.02l-0.29-0.8l-0.39-0.24l1.02-0.97l1.28-0.61l0.71-1.04
		l-0.15-2.04l-0.399,1.05l-1.471,0.49l-0.88-0.75l2.721-1.48l-0.2-1.15l-1.011,0.17l-3.979,2.12l-3.59,0.03l-2.431-0.65l-1.67,0.22
		l-4.109,1.28l-1.09-0.07l-1.44-0.62l-2.21,1.04l-0.88-0.43l-0.4-1.01l-0.71-0.6l-2.05,0.52l-1.09,0.68l-1.63,0.15l-2.471-2.01
		l-1.989-1.13l-1.9-3.61l-0.07-1.12l0.761-0.83l-0.25-0.93l-1.28-1.13l-2.76-1.04l-0.311-0.65l-1.979-0.92l-5.48-1.83l0.98,0.94
		l0.04,0.38l-0.78,0.65l-1.38,0.5l-0.521-0.85l-1.149-0.45l-1.07,0.06l-1.48-0.9l1.66-2.74l2.061-0.42l1.21-2.1l0.64-3.07
		l-0.53-1.64l4.46-1.52l1.12,0.48l5.11-1.18l0.78-1.22l3.25-2.69l2.83-1.42l2.84-0.68l4.83,0.39l6.949,2.92l1.011,0.09l3.479,3.04
		L663.43,139.65z M616.77,127.03l2.851,0.81l1.68,0.16l2.771,1.58l0.39,1.82l-1.15,1.97l-1.489-0.83l-1.101-0.1l-2.22,0.52
		l-1.77-1.94l-1.461-0.58l-1.77-2.36l-1.29,0.15l0.22,0.83l1.75,1.85l3.28,1.31l0.44,0.74l-0.471,0.76l-1.17,0.55l-1.54,0.21
		l-0.87-0.61l-0.5-1.96l-1.579,0.35l-0.801,0.73l-0.529-1.92l-1.45,0.36l-1.19-0.14l-2.43-0.96l0.35-0.22l2.521,0.39l0.75-0.41
		l-0.48-0.82l-1.069,0.03l0.109,0.62l-0.85-0.19l-0.351-0.64l0.131-0.56l7.18-1.2l0.36,0.26l0.84-0.07l-0.29-0.27l0.56-0.34
		L616.77,127.03z M593.89,130.37l-0.319,0.15l-4.261-4.56l0.841,0.35l3.54,2.85l0.39,0.68L593.89,130.37z"/>
	<path id="ID-RI" fill="#1E3250" stroke="#1E3250" stroke-width="0.5" d="M137.72,117.95l-0.59-0.17l-0.31-0.8l0.47-1.73l1.04-0.66
		l1.19,1.23l0.13,1.39l-0.4,0.36L137.72,117.95z M128.02,109.59l2.36-0.28l2.84,1.65l2.03,1.69l0.18,0.77l-0.25,1.05l-0.55,0.3
		l-1.23-1.23l-1.06-0.49l-3.49-0.1l-2.22,0.42l-1.1-0.55l-1.28-1.23l0.53-0.8l1.05-0.28v-0.74l-0.52-1.13l0.34-1.4l1.18,0.16
		l1.04,1.34l-0.17,0.47L128.02,109.59z M135.16,108.84l2.22,2.51l0.06,0.52l-0.35,0.39l-1.1,0.05l-2.44-1.71l-3.16-1.62l-1.19,0.11
		l-0.6-0.53l0.95-1.65l1.22-0.2l3,1.15L135.16,108.84z M124.1,110.78h-0.42l-1.53-1.44l-0.79-1.16l-0.65-3.48l0.16-2.14l1.35-0.04
		l3.24,3.11l-0.54,2.04l0.35,2.47L124.1,110.78z M125.79,101.8l0.17,2.88l-0.24,0.35l-3.17-2.76l-3.6-0.78l-0.96-0.93l-0.88-1.49
		l1.07-0.26l1.85,0.75l4.7,0.87l0.75,0.43L125.79,101.8z M110.33,97.3l-1.9-0.35l-0.77-0.71l-0.93-2.49l0.08-1.32l0.19-0.69
		l0.55-0.52l3.47-0.99l1,0.48l1.26,1.7l0.05,0.89l-0.76,0.97l-0.22,1.82l-1.28,0.99L110.33,97.3z M93.41,90.23l0.82-0.13l1.71,0.74
		l0.51-0.39l-1.14-0.71l-0.32-0.63l0.12-1.18l0.95-0.55l2.4-0.27l2.46,0.31l-0.12,0.51l0.35,0.77l3.45,2.31l0.74,0.79l0.28,2.15
		l1.4,3.2l2.34,1.09l2.47-0.36l1.21,0.33l4.51,3.78l2.02,1.07l1.09,3.06l-0.19,1.73l0.4,1.37l3.72,3.74l2.07,1.13l5.54,0.01
		l1.16,0.63l2.56,3.08l0.02,1.2l-8.84,4.63l-1.43-1.18l-1,0.01l1.9,1.34l0.82,0.24l1.24-1.12l4.24-0.78l4.47-2.52l0.99-1.34
		l2.26-0.84l1.72,0.63l5,3.76l1.24,4.89l-3.61,0.41l-0.39,1.3l-2.66,1.83l0.49,0.22l0.68-0.57l1.26-0.1l-0.32,0.63l1.63,0.21
		l1.68,0.73l0.89,1.31l-1.52,0.05l-1.68,0.73l-0.35,1.13l-2.63,1.75l-0.38,2.14l1.1,1.4l0,0l-1.18,0.12l-0.84,0.47l-0.39-0.31
		l-3.61-0.62l-2.02,0.14l-1.71,2.32l-2.1,1.5l-1.1,1.66l-0.69,0.08l-0.81,0.66l-0.61-0.43l-2.24-0.25l-0.47-0.76l-1.22-0.12
		l0.04-0.64l-1-0.51l-0.29-0.76l-1.82,0.57l-0.61-0.8l-0.77,0.29l-2.18-0.68l-0.59,0.62l-0.24-0.21l-0.59,0.29l-0.18,0.62
		l-0.81,0.18l-0.04,0.31l-0.6-0.1l0,0l-0.21-0.13l0,0h-0.89l-1.77-0.68l0.03-0.29l-1.01-1.06l-1.57-0.71l-1.69-1.23l-0.09-0.56
		l-0.92-0.41l0.09-0.41l-1.71-0.61l-1.09-0.82l-0.12-0.41l-2.01-0.97l-0.71-1.53l0.21-1.06l-0.8-0.59l-1.24,0.21L98.38,133
		l-1.03-0.47l-0.27-0.94l-0.86-0.79l-0.65-3l0.5-0.73l0.53,0.44l0.59-1.03l0.09-0.85l-0.38-0.94l0.27-1.33l-0.38-1l-0.53-0.32
		l-0.65,0.23l-1.33,1.32l-1.09-0.03l-2.84-0.79l-0.77-1.73l-0.38-0.26l-0.38-0.15l-1.18,0.47l-0.15-1.59l-1.27-2.64l0.09-0.94
		l0.83-1.29l-0.47-0.73l-1.06-0.43l0,0l-0.87-1.02l0.28-0.2v-1.14l-0.43,0.04l-0.43-0.71l0.75-0.04l0.39-0.9l-0.35-1.02l-0.39-0.16
		l0.04-0.43l1.18-0.39l-0.95-1.25l-0.2-1.59l-1.02-1.53l0.39-0.27l3-0.16v-0.35h1.06l0.32-0.55h0.79L90,101.1l-0.04-1.1l0.51-1.18
		l-0.12-1.02l-0.59-0.12l0.3-0.68l-0.24-0.78l-1.89-0.35l-0.28-0.31l1.22-6.35L88,86.7l-0.16-1.33l0.39-1.92l1.39,3.69l1.34,1.39
		L93.41,90.23z"/>
	<path id="ID-SA" fill="#1E3250" stroke="#1E3250" stroke-width="0.5" d="M517.55,102.27l-0.89,1.24l-0.771,2.53l-2.54,3.95
		l-1.319,0.57l-2.73,2.31l-1.93,3.68l-1.931,2.33l-2.09,1.07l-1.29,0.31l-5.189,0.66l-2.95,0.7l-2.24,0.26l-1.02-0.31l-2.221,0.02
		l0,0l1.091-2.41l0.08-2.09l-0.311-0.85l-0.54-0.58l-2.02-0.35l-1.21-0.89l-0.62-0.54l-0.23-1.31l-0.699-0.7l-1.4-0.62l-0.2-0.81
		l0,0l2.33-0.11l5.29,1.48l0.9-0.3l3.84,0.91l1.58-0.06l6.569-3.09l1.25-2.68l0.99-0.4l2.91,0.04l0.42-0.58l-0.01-0.61l-1.181-0.29
		l-0.26-0.45l0.44-1.14l1.13-0.82l1.689,0.31l2.021-1.14l0.21-0.54l-0.49-1.34l2.62-2.05l1.07-0.09l1.71,0.49l0.68,0.55l-0.08,1.03
		l1.44,1.22l-0.32,0.85L517.55,102.27z M522.29,81.48l-0.68-0.13l-0.38-1.48l0.449-1.18l0.53-0.24l0.67,0.6l-0.83,1.18l0.41,1.02
		L522.29,81.48z M525.31,64.5l-0.22,0.56l1.01,1.29l0.591,0.16l0.12,1.26l-0.641,0.96l-0.37-0.06l-0.09,0.62l-0.47-0.98l-0.5,0.02
		l-0.69-0.71l-0.28,0.05l-0.329-1.16l0.47-1.04l-0.45-0.54l0.33-0.12l-1.59-0.79l-0.13-1.27l0.729-0.26l1.03,0.19L525.31,64.5z
		 M544.73,61.35l-0.49-0.25l-1.271-2.8l-0.13-1.03l0.68,0.28l1.391,1.87L544.73,61.35z M545.58,58.13l-1.08-0.15l-0.16-1.28
		l0.72-0.61l0.98-1.85l-0.21-0.6l-1.16-0.4l-0.29-0.96l0.5-3.05l0.351-0.63l1.27,0.23l0.78,0.7l0.96,3.62l-0.78,1.17l-1.28,3.23
		L545.58,58.13z"/>
	<path id="ID-SB" fill="#1E3250" stroke="#1E3250" stroke-width="0.5" d="M90.64,179.48l0.17,1.33l-1.47,0.37l1.37,2.66l-0.37,0.5
		l-0.6-0.83l-0.63-0.3l0.2-0.17l-0.2-0.33l-0.77-0.27l0.03-1.76l-0.6-0.8l-0.6,0.07l-1.33-2.02l0.27-0.83l-0.4-2.22l1.03-0.37
		l1.37,1.73l0.9,0.53l1.7,1.89L90.64,179.48z M85.14,175.06l-0.03,0.4l-1.07,0.17l-0.53-0.46l-0.4,0.63l-0.43-0.37l0.13-0.33
		l-0.37-0.4l0.3-1.89l-0.33-1.36l-0.47-0.3l0.4-1.46l0.5,0.1l0.73,1.03l2.04,1.36l0.83,1.46l-0.17,0.76L85.14,175.06z M77.66,163.67
		l1.23,2.26l0.6,0.33l0.43,0.7l0.33,0.73l-0.17,0.36l-0.37-0.73l-0.6,0.2l-0.23-0.5h-0.8l-0.97-0.83l-1.37-0.1l-1.27-2.19l0.27-0.4
		l0.47,0.1l-0.3-0.4l0.03-1.26l0.53-0.43h0.6l1.33,1.13L77.66,163.67z M64.16,143.1l0.33,0.99l-0.53-0.33l0.4,1.29l1,0.8l0.1,0.76
		l1.1,1.86l-0.13,0.3l0.57,0.66l0.03,0.63l1.17,1.33l0.1,0.7l-0.6-0.2l0.4,0.53l0.73,0.27l0.4,1.69l0.67-0.23l0.47,0.66l0.1,1.46
		l-0.33,0.5l-0.73-1.13l0.47,1.56l-0.43,0.4l-1.13-0.33l-1.07,0.53l-4.1-2.22l-0.8-1.09l0.2-0.33l-0.63-1.23l-3.47-5.14l-0.1-0.43
		l1.17-2.55l-0.03-1.06l0.63-0.66h1.97l1.47-0.8L64.16,143.1z M80.68,111.16l0.39,0.35l0.67-0.12l0.32,0.71l1.58,0.82l2.13,0.71
		l-0.2-0.15l0,0l1.06,0.43l0.47,0.73l-0.83,1.29l-0.09,0.94l1.27,2.64l0.15,1.59l1.18-0.47l0.38,0.15l0.38,0.26l0.77,1.73l2.84,0.79
		l1.09,0.03l1.33-1.32l0.65-0.23l0.53,0.32l0.38,1l-0.27,1.33l0.38,0.94l-0.09,0.85l-0.59,1.03l-0.53-0.44l-0.5,0.73l0.65,3
		l0.86,0.79l0.27,0.94l1.03,0.47l0.21-0.73l1.24-0.21l0.8,0.59l-0.21,1.06l0.71,1.53l2.01,0.97l0.12,0.41l1.09,0.82l1.71,0.61
		l-0.09,0.41l0.92,0.41l0.09,0.56l1.69,1.23l1.57,0.71l1.01,1.06l-0.03,0.29l1.77,0.68h0.89l0,0l0.24,0.15l0,0l0.06,1.88l0.53,0.44
		l0.47-0.18l-1.12,1.88l-1.57,0.35l-0.62,0.62l0.41,1.62l-0.41,0.68l0.41,0.59l-0.62,1.11l-2.01,1.23l-1.18,1.79l-1,0.26l-0.38-0.35
		l-1.18,0.15l-1.6,0.24l-0.56,0.35l-0.68-0.71l-0.33,0.38l-0.68-0.32l0.21,3.64l0.77,1.41l1.06,0.73l0.38,0.73l0.74,3.32l0,0
		l-0.24,0.53l0,0l-0.8,0.97l-3.86,2.55l0,0L98,166.69l-0.4-1.59l-0.84-1.17l0.04-0.46l1.04-1.26l0.01-1.18l-0.45-1.67l-3.43-4.62
		l-0.9-2.38l-0.76-0.78l0.41-1.16l-0.43-0.98l-1.15-0.37l-0.8-0.75l-0.4,0.29l-0.38-0.11l0.13-0.62l0.44,0.07l-1.22-1.62l-0.02-0.29
		l0.33-0.02l-0.33-0.73l0.3-0.67l-1.09-3.49l-3.27-3.43l-1.38-2.28l-2.3-1.89l-0.49-0.94l-1.13-0.68l-0.38-1.37l-0.91-1.31
		l0.26-1.34l-0.58-0.87l-2.83-1.96l-2.97-1.1l-0.78-1.27l-0.8-0.1L69.42,123l-1.18-0.42l0.93-1.39l1.54-0.43l1.5-2.39l1.7-0.9
		l1.06,0.43l1.46-0.51l0.59,1.06l0.63,0.47l0.83-0.43l1.54,0.31l1.22-0.43l0.67-0.82v-0.67l-0.67-0.51l-0.08-1.17l-1.26-0.24
		l-0.28-0.78l0.28-0.63l-0.08-2.08L80.68,111.16z"/>
	<path id="ID-SG" fill="#1E3250" stroke="#1E3250" stroke-width="0.5" d="M446.67,174.2l1.63,0.42l1.42,0.94l0.7-0.57l1.12-0.13
		l0.59,1.35l-0.31,0.91l1.26,0.85l1.2,0.16l1.55-1.38l1.51-0.58l0,0l4.63,1.64l0.641-0.33l2.22,0.32l0.51,0.68l1.08,0.21l0.05,1.21
		l0.87,0.79l0.55-0.1l0.42,1.04l0.7,0.12l0.021,0.64l0,0l-0.88,1.22l0.189,0.77l2.18,0.96l0.711,1.16l-0.15,0.41l-0.36,0.15
		l-2.43-2.18l-0.75-0.01l0.72,1.29l-0.42,1.26l-1.18,0.47l-0.03,0.39l0.83,1.32l3.87,2.42l0.61,1.44l0.46,0.3l2.18-0.04l0.1,0.4
		l-0.5,0.36l-0.16,0.97l0.66,0.34l0.11,0.36l-0.33,0.43l0.57,1.3l2.62-0.05l-0.11-0.42l-0.84-0.61l-0.19-0.42l0.21-0.11l0.63,0.04
		l0.69,0.49l0.85,2.64l-0.13,2.76l-1.2,0.96l-2.47-1.96l-0.3,0.05l0.05,0.56l1.521,1.56l0.08,0.43l-0.641,0.49l-0.3-0.41l-0.56,0.26
		l-0.66-1.32l-0.761-0.5l-2.079,1.01l-0.82-0.1l-2.74,0.76l-0.75-0.14l-1.33,0.74l-0.93,0.17l-0.97,2.57l0.33,1.08l0.88,1.11
		l-1.25,1.3l-1.681,0.04l-1.529-0.7l-2.061-0.22l-0.97,0.17l-0.66-0.71l-1.57-0.61l-1.47-2.02l0.25-1.82l0.75-2.28l-0.09-1.42
		l0.41-1.16l0.51-0.25l0.66-1.42l-0.311-1.97l-1.319-0.51l-2.391-0.35l-1.569-1.97l-0.46-0.2l-0.2-0.86h-1.12l-1.021-1.36
		l-4.18-3.71l-0.229-0.68l0.33-1.74l1.609-2.19l0.7-0.35l0.61-1.54l-0.051-2.32l0.5-1l-0.04-1.64l-0.51-0.03l-0.25-0.79l-0.14,0.44
		l-0.57-0.13l0.34,0.34l-0.04,0.23l-0.31-0.03l-0.4-1.13l0.471,0.15L446.67,174.2z"/>
	<path id="ID-SN" fill="#1E3250" stroke="#1E3250" stroke-width="0.5" d="M444.71,252.2l1.11-0.05l1.17,0.37l-0.33,0.47l-0.771,0.12
		l-3.17-0.52l-0.439-0.52l0.41-0.27L444.71,252.2z M440.44,248.05l1.119,0.55l0.46-0.28l-0.1,1.28l-1.67,0.22l-0.61-0.43l-0.22-0.64
		l0.15-1.19L440.44,248.05z M437.32,237.37l-0.42,0.95l-0.341-1.8l0.2-1.27l-0.46-2.48l-0.08-4.31l0.391-2.09l0.42-0.36l1.28,4.46
		L437.32,237.37z M426.28,161.27l0.399,0.54l1.851-1.38l1.8,0.04l0.13,0.58l0.84,0.38h1.8l1.34,0.58l0.801-2.88l0.29-0.12
		l2.899,3.96l1.13,1.08l1.301,0.67l0.76,0.33h0.84l0.08-0.33l0.46-0.13l1.01,0.15l5.71,2.31l1.72,0.29l0.961,0.58l1.539,0.06
		l1.271,0.98l1.45,0.28l0.67,1l0.45-0.06l0.64,0.5l1.26,2.55l-0.899,0.44l-1.44,2.48l0,0l-1.52,0.58l-1.54,1.37l-1.2-0.15
		l-1.26-0.86l0.31-0.9l-0.6-1.35l-1.11,0.12l-0.7,0.57l-1.42-0.94l-1.64-0.42l0,0l0.42-0.46l-0.771-1.11l-4.37-1.02l-3.47,1.71
		l-6.39,4.33l1.14,3l1.91,1.21l0.521,0.88l-0.24,4.34l0.57,1.33l0.319,2.23l-1.6,3.39l-0.181,3.35l0.771,1.06l-0.51,3.74l0.67,1.83
		l0.46,3.2l-0.54,1.82l-1.42,1.21l-0.011,2.37l-0.729,2.79l2.04,3.47l1.24,4.79l-0.83-0.28l-1.37-1.77l-4.03,1.45l-2.91-0.58
		l-1.3,1.09l-0.25,0.75l-0.92,0.61l-1.93-0.05l-0.83-1.41l-2.76-0.96l-1.9-2.82l0.41-3.77l1.58-2.36l0.87-2.18l0.08-0.77l-0.57-2.35
		l1.79-2.95l0.49-4.11l0.05-2.35l-0.49-3.72l-2.59-4.7l1.17-2.28l-0.46-1.39l0,0l-0.93-3.96l-0.71-0.67v-0.42l0.38-0.29l0.38-0.04
		l0.21,0.29l0.88-0.25l0.46-0.79l0.67-0.25l1.05,0.04l0.04-0.38l-1.08-1.84l0.29-0.7l-0.359-0.95l0.199-1.9l0.32-0.75l0.75,0.29
		l1.55-0.42l0.71-0.79l0.211-0.73l1.25-0.92l0.229-0.59l-0.3-1.15l-1.65-0.69l-0.56-1.7l-1.521-0.73l0.04-1.3l1.78-1.28l0.59-0.79
		l0.72-0.1l-0.13-1.22L426.28,161.27z"/>
	<path id="ID-SR" fill="#1E3250" stroke="#1E3250" stroke-width="0.5" d="M421.05,141.06l-0.1,2.41l0.41,2.28l0.09,0.25l0.38-0.08
		l0.03,0.51l-0.69,2.14l-1.55,0.19l-0.19,0.37l0.551-0.19l0.109,0.24l-1.22,0.41l0.01,0.26l1.54,1.34l1.57-0.53l1.33,0.99
		l-0.63,0.83l0.29,0.85l1.039,0.98l-0.079,0.63l0.39,0.13l0.439,0.76l-0.439,0.94l0.4,0.27l1.479,0.03l0.19,3.1l-0.36,0.21
		l0.24,0.89l0,0l-1.021,0.46l0.13,1.23l-0.72,0.09l-0.6,0.79l-1.771,1.28l-0.04,1.3l1.521,0.73l0.56,1.7l1.641,0.69l0.3,1.14
		l-0.23,0.59l-1.25,0.92l-0.21,0.73l-0.72,0.79l-1.55,0.42l-0.75-0.29l-0.33,0.75l-0.2,1.9l0.37,0.95l-0.3,0.7l1.09,1.83l-0.05,0.38
		l-1.051-0.04l-0.67,0.25l-0.46,0.79l-0.88,0.25l-0.21-0.29l-0.38,0.04l-0.37,0.29v0.42l0.71,0.67l0.93,3.96l0,0l-3.399-1.06
		l-1.26,1.1l-2.91,0.23l-2.181,1.18l-1.529-3.97l-0.04-4.6l0.93-3.14l-0.39-0.67l-0.95-0.17l-0.71,0.33l-0.19-1.53l0.74-2.35
		l0.37-0.23l0.7,0.56h0.71l1.74-1.15l2.39-2.36l-0.32-2.87l1.42-4.55l0.91-0.86l0.73-0.24l0.58,0.27l0.59-2.28l-0.771-0.82
		l-0.47-1.72l0.45-1.58l-0.561-3.47l0.69-0.74l-0.39-1.56l0.739-1.49l1.75-1.51l0.971-3.36L421.05,141.06z"/>
	<path id="ID-SS" fill="#1E3250" stroke="#1E3250" stroke-width="0.5" d="M147.97,209.18l-0.28-0.93l-1.38-0.22l0.39-0.49l-0.48-1.3
		l-0.64-0.5l-0.78-0.04l0.71-0.62l-1.09-1.04l0.83-1.06l-0.32-1.22l-0.56-0.18l-0.98,0.36l-0.89-0.91l-1.7-0.13l-1.22-1l-1.91-0.31
		l-0.01-1.63l-0.96-2.04l-0.69-0.29l-2.2,0.08l-0.87-0.79l-0.61,0.29l-0.76-0.2l-2.42-1.98l-0.57-0.8l-0.67-0.2l2.03-1.01l0.12-1.14
		l1.12-1.07l0.07-1.45l0.69,0.26l0.89,1.2l0.89-0.69l0.68-0.95l0.29-2.11l-0.21-0.45l-0.79-0.09l-0.82,0.32l-0.12-0.87l-0.56,0.25
		l-0.83-0.14l-0.57-0.92l-2.55,1.15l-0.88-0.35l-1.67-1.52l0.2-0.5l-0.23-0.15l0.11-1.22l-0.29-0.74l-0.63-0.58l-0.97-0.22
		l-1.15,0.4l-1.09-0.58l-0.7-1.83l-1.45-0.96l-0.14-0.71l-0.85-0.54l-0.21-0.59l0,0l0.52,0.15l0,0l0.4-0.73l1.62-0.48l0.41-0.44
		l0.08-0.73l0.56-0.24l0.85,0.521l0.49-0.2l1.09,0.85l0.69,0.16l0.85,0.16l1.01-0.52l0.48,0.2l0.81-1.17l1.7-1.08l0.56,0.12
		l0.45-0.36l1.54-2.14l-0.61-1l0.57-0.84l2.62,0.6l0.29-0.52l1.41,0.64l1.54-0.6l-0.16-0.73l-0.69-0.68l1.21-1.69l0.81,0.44
		l0.08,0.77l0.81,1l2.06,1.53l-0.04-2.939l1.78-0.76l-0.56-0.48l0.32-3.62l1.09-0.96l2.18-0.81l1.66-0.08l0.29-0.52l0.72-0.36
		l1.46,0.6l1.25-0.18l1.08,0.27l2.27-0.75l1.99-0.16l0.32-0.43l-0.1-0.75l0.48-0.43l0.54-0.11l1.28,0.52l0,0l0.64,0.99l0.16,0.9
		l-0.97,1.63l0.23,1.14l0.72-1.28l0.41,0.07l3.34,2.35l1.37,0.06l0.95,1.14l0.26,2.04l-1.05,1.1l-0.32-0.06l-0.59,0.48l-1.12,1.79
		l0.88,0.15l1.3-1.62l1.05-0.23l0.44,0.8l1.13,0.061l2.02,0.77l1.48-0.83l2.41,0.84l4.69,0.32l0.28,0.6l-0.46,1.73l0.27,1.43
		l0.89,1.02l1.84,0.33l0.21,0.62l-0.19,2l0.63,1.29l0.71,0.62l2.06-0.05l1.24,0.74l0.02,2.22l0.78,1.97l-2.01,1.3l-1.11,1.16
		l-1.52,3.63l-0.15,1.13l0.24,0.9l1.75,1.2l0.41,0.97l-0.21,0.85l-1.51,2.68l-0.22,1.65l-0.28,0.36l0,0l-0.81-0.82l-0.56,0.46
		l-0.76-0.08l-0.37-0.94h-0.65l0.22-0.59l-0.94,0.13l0.45-0.83l-0.75-0.94h0.38l-0.11-0.32l-0.67-0.08l0.05-0.45l-0.35-0.27l0,0
		h-0.54l0,0l0.14-0.81l-1.56-0.21l-0.11-0.72l-0.32-0.08l-0.87,0.34l-0.51-1.2l-0.86,1.34l0.27,0.61l-0.21,0.49l-0.7,0.64
		l-0.68-0.24l-0.54,0.27l-0.1,0.51l-0.38-0.06l-0.27,1.07l-0.43,0.43l0.3,0.35l-0.68,0.38l-0.32,0.96l-0.99,0.94l-1.24,0.21
		l-1.13,0.57l-0.08,0.34l-1.48,0.25l-2.21-0.11l-0.62-0.56l-2.5,1.55l-0.62-0.05l-1.31,1.15l-0.62,1.29l0.3,2.7l-0.65,0.65
		l-0.27,0.77l0.54,0.33l0.06,0.83l0.78,0.96l-0.76,1.29l-1.91-0.35l-1.51,0.99l-1.18-0.56l-1.64,0.38l-0.51-0.38L150.2,212
		l-1.1-0.73l0.43-0.62v-0.53l-0.38-0.49l-0.43-0.02l-0.05-0.51l-0.65,0.05l0,0L147.97,209.18z"/>
	<path id="ID-ST" fill="#1E3250" stroke="#1E3250" stroke-width="0.5" d="M491.45,219.17l-1.17-0.09l-0.65-1.23l-0.08-0.8
		l1.311,0.15l0.489,0.4L491.45,219.17z M463.54,220.9l-1,0.06l-2.66-3.58l0.92-3.06l0.851-0.57l1.22,0.38l1.36,2.6l-0.11,3.33
		l-0.17,0.61L463.54,220.9z M475.63,206.47l0.811,4.37l-0.08,1.01l-2.23,1.93l-0.8,1.74l0.99,1.86l-0.24,1.32l-0.71,1.21l-0.94,0.26
		l-1.63-0.58l-2.939-0.38l-0.19-0.93l0.84-3.01l0.26-0.61l1.03-0.86l-0.13-1.46l-1.01-2.32l0.74-1.61l2.55-0.58l1.43-1.12l1.63-0.79
		L475.63,206.47z M484.18,207.51l-0.149,2.99l-0.61-0.66l0.15-1.02l-0.73-1.1l-0.399,0.21L482.6,210l-0.359,0.25l-0.76-0.51
		l0.359-1.27l-0.56,0.07l-0.96,3.26l-0.181,2.77l0.73,0.62l0.37-0.08l2.93,2.31l0.03,0.37l-1.24,1.59l-1.61,0.7l-0.909-0.54
		l-2.12,1.2l-0.23,0.69l0.68,0.05l0.23,0.33l-1.48,2.59l-0.439,0.27l-2.561-0.12l-1.5-3.08l2.87-4.36l0.801-2.15l1.25-5.5l-0.16-2.8
		l1.21-3.05l2.04-1.44h0.819l-0.3,0.52l0.24,0.76l1.01,0.56l1,1.4L484.18,207.51z M481.88,195.84l1.84-0.3l1.07,1.41l-0.09,0.72
		l-1.82,2.19l-1.36-0.08l-1.949-2.56l-0.021-0.73l0.94-1.04l0.66-0.14L481.88,195.84z M484.04,146.88l0.479,0.99l-0.699,1.14
		l0.85,1.58l0.44-0.07l0.409-0.99l1.261-1.51l0.81-0.37l2.51,1.18l-0.439,2.76l-1.26,1.25l-0.521,0.04l-1.18-0.55l-0.92-1.25
		l-0.78,0.7l-0.48,2.57l-0.81,0.33l-0.96-0.26l-0.41-0.55l1.37-1.21l-0.74-3.56l-1.59,1.58l-0.26,1.07l-0.78,1.21l-1.18,1.07
		l-0.96,0.07l-0.7-1.62l-0.74-0.55v-0.85l0.48-1.84l1.26-1.73l0.33-0.4l0.439-0.04l0.74,0.439l2.33-0.85l0.63,0.7l0.44-0.88
		L484.04,146.88z M450.09,105.51l2.45-0.25l1.24-0.82l0.319,0.22v0.42l-0.199,0.29l-0.83,0.17l0.97,1.65l1.49,1.22l0.66,0.17
		l5.739-0.78l1.08,1.43l1.221-0.81l2.319,0.76l0,0l-2.52,0.82l-0.521,0.6h-0.38l-0.42,0.92l-0.91-0.69l-0.479-0.8l-0.851,0.14
		l-0.79,0.61l-3.189,1.25h-1.45l-0.48,0.42l-1.329-0.05l-0.891-0.51l-0.35,0.41l-0.021,0.96l-0.52,0.1l-0.97-0.38l-1.061,0.38
		l-0.35,0.34l-0.061,1.06l-0.32,0.17l1.33,1.52l1.761,0.37l0.17,1.46l-0.29,0.5l0,0l-1.37-0.41l-1.73,0.44l-0.62,0.82l-2-0.24
		l-1.529,0.35l-3.75-1.75l-3.391-0.19l-2.819,1.23l-1.7,1.71l-2.12,3.1l0.35,0.33l-0.54,0.83l-0.199,2.11l-0.59,0.63l-0.49-0.07
		l0.069,1.34l-0.46,1l-0.05,1.36l1.03,2.87l-0.4,3.06l0.29,0.72l3.78,4.9l0.84,0.25l1.09-0.59l0.811,0.98l1.1,0.11l1.44,2.34
		l-0.38,2.1l0.8,0.68l1.03,2.16l0.51,0.06l0.82-0.43l0.25-0.56l0.51-0.22l0.68,0.01v0.72l0.72,0.52l1.181-0.16l2.43,0.3l1.38-1.54
		l1.08-2.17l2.22-2.78l1.54-1.27l0.66-1.19l1.771-0.63l0.21-0.93l0.5-0.15l0.67,0.27l-0.33,1.48l0.25,0.37l1.38,0.65l2.18,0.25
		l0.91,0.39l1.32-0.88l0.75-0.14l1.18,0.3l0.51-0.51l0.391-1.97l1.5-0.58l0.97,0.43l2.68-1l3.73,0.53l4.31-0.27l0.7-0.36l-0.07-0.26
		l-1.439-0.51l-1.99-0.2l-0.44-0.57l1.48-0.63l3.33-0.18l1.08-0.81l2.66,0.11l1.54,0.59l1.689,0.91l0.75,1.92l-0.14,1.24l-0.79,0.92
		l-0.34,1.94l-0.82,0.89l-1.54-0.38l-1.26-1.46l-0.33-0.9l-1.46-0.34l-4.311,0.63l-1,2.18l-1.3,1.42l-1,1.73l-1.18,0.94l-3.18,3.63
		l-3.721,2.08l-2.62,0.34l-1.01,0.66l-2,0.39l-0.66,0.5l-0.97,2.39l-1.34,1.12l-2.2,0.14l-1.6-1.9l-1.95-0.84l-0.51,0.26l-0.17,1
		l0.869,2.52l0.381-0.3l1.079-0.06l2.44,3.23l0.85,0.34l0.91-0.16l0.78,0.23l2.11,2.17l2.27,3.87l0.78,2.54l5.069,3.79l0.021,0.68
		l-0.74,1.48l1.91,1.71l0.8-0.1l0.93,0.68l-1.09,1.29l-0.979-0.27l-0.33,0.32l0,0l-0.01-0.63l-0.7-0.13l-0.42-1.04l-0.55,0.1
		l-0.87-0.79l-0.051-1.21l-1.079-0.21l-0.511-0.69l-2.21-0.32l-0.649,0.33l-4.62-1.63l0,0l1.439-2.48l0.9-0.44l-1.26-2.55
		l-0.641-0.5l-0.449,0.06l-0.671-1l-1.449-0.28l-1.271-0.98l-1.54-0.06l-0.96-0.58l-1.72-0.29l-5.71-2.31l-1.01-0.15l-0.46,0.13
		l-0.08,0.33h-0.84l-0.761-0.33l-1.3-0.67l-1.13-1.08l-2.9-3.96l-0.29,0.12l-0.8,2.88l-1.34-0.58h-1.8l-0.84-0.38l-0.13-0.58
		l-1.801-0.04l-1.85,1.38l-0.4-0.54l0,0l-0.239-0.89l0.359-0.21l-0.189-3.09l-1.48-0.03l-0.399-0.27l0.439-0.94l-0.439-0.77
		l-0.391-0.12l0.08-0.63l-1.04-0.98l-0.279-0.85l0.63-0.83l-1.33-0.99l-1.57,0.53l-1.55-1.35v-0.26l1.22-0.41l-0.11-0.25l-0.55,0.2
		l0.19-0.38l1.55-0.19l0.7-2.14l-0.03-0.5l-0.38,0.08l-0.09-0.25l-0.41-2.28l0.11-2.41l0,0l1.92-1.56l0.149-0.99l0.91-0.6l1.69,3.79
		l0.5-0.5l-0.23-2.34l-0.819-1.07l-0.841-2.81l0.141-2.57l0.939-2.41l-0.33-1.19l-1.359,0.42l-0.32-0.15l-0.71-0.49l-0.98-1.82
		l1.101,0.19l-0.08-0.58l0.86,0.44l0.51,0.41l-0.05,0.41l0.71,0.87l0.71,0.17l0.68-0.78l0.39-1l-0.039-1.63l-1.801-2.36l0.42-0.27
		l1.73,0.32l-0.23-1.23l-0.619-0.94l1-2.14l2.149-0.92l0.14-0.78l-0.359-1.65l0.21-0.86l0.74-0.62h0.75l1.75-0.97l0.54-2.72
		l0.619-0.45l0.91,0.2l-0.01,2.04l1.39,0.93l2.681,0.49l0.6-1.94l0.63-1.02l0.7-0.73l1.12-0.39l0.82-0.87l0.5-2.27l-0.181-1.4
		l0.2-0.77l2.11-0.32l2.479,0.31L450.09,105.51z"/>
	<path id="ID-SU" fill="#1E3250" stroke="#1E3250" stroke-width="0.5" d="M55.34,130.93l0.42,0.04l0.71,0.82l0.55,1.42l-0.33,0.36
		l0.15,1.48l-0.46,0.42l0.31,0.97l-0.59,0.17l0.13-0.76l-0.84,0.17l-0.08,0.97l-0.9-0.82L53,135.7l0.59-0.25l0.38,0.21l0.21-0.84
		l0.33-0.23l0.15-1.99l0.86-0.55l0.17-0.42L55.34,130.93z M54.8,126.68l0.1,0.23l0.32-0.23v0.49l1.11,1.29l0.21,1.79l1.4,1.27
		l-0.08,0.91l-0.44,0.25l0.15,0.8l-0.5-1.18l-2.64-3.68l-0.32-1.1l-0.96-0.47l0.99-0.46L54.8,126.68z M58.71,123.68l1.53-0.03
		l0.29,0.32l1.26-0.25l1.04,0.99l-0.04,0.56l-1.22-0.23l-0.53,0.42h-1.67l-2.12-0.55l-0.11-0.67l0.79-0.54L58.71,123.68z
		 M39.79,102.22l2.79,4.11l1.77,0.62l2.11,1.87l0.46,1.18l-0.7,1.61l-0.16,4.02l-1.31,1.6l-1.93-0.49l-1.51-4.1l-2.06-2.14
		l-1.42-0.26l-2.77-5.22l-2.35-2.29l0.75-0.31l1.63-0.07l1.39-1.24l1.11-0.23l1.49,0.54L39.79,102.22z M56.65,98.17l0.68,0.12
		l0.3-0.51l0.82,0.939l-1.96,0.03l-0.71-0.26L55.59,98l0.48-0.63l0.59,0.25v0.55H56.65z M20.9,86.43l-2.04-0.35l-0.3-1l-4.1-2.69
		l-4.16-1.31l-2.02-1.93l-0.09-0.89l1.62-2.03l1.61,0.31l1.96,2.43l1.81,0.44l1.95,2.1l2.31,1.59l1.46,0.6l0.91,2.27L20.9,86.43z
		 M50.64,89.71l0.61-2.79l-0.53-1.62l-0.83-0.35l0.06-0.71l-0.41-0.56l-0.18-1l0.24-1.41l0.62-0.21l-0.68-1.41l0.38-0.88l-0.21-0.56
		l-0.95-0.12l-0.59-1.06l-0.92-0.24l-0.44-2.74l0.8-0.06l0.09-0.97l-0.62-0.65l-0.06-0.74l-1.18-0.79l2.37-0.65l0.24-0.79
		l-0.38-0.71l-0.27,0.12l-0.65-0.44l-0.3-1l0.33-0.53l-0.56-0.41l-0.21-0.88l-0.74-0.35l0.03-0.74l-1.06-1.83l1.92-1.8l-0.21-1.41
		l0.74,0.35l0.09-0.65l1.21-0.65l0.41-2.59l0.47-0.68l-0.15-0.47l0.41-0.24l-0.18-1.12l0.95-0.03l0.33-0.44l0.77-0.21l1.2,0.01l0,0
		l0.1,2.71l0.77,1.04l1.19-0.04l2.61,1.3l0.82,1.3l1.74,0.44l0.35,0.59l0.13,1.36l2.14,1.41l2.23,0.73l1.77,0.98l3.96,2.5l1.18,1.06
		l1.21,0.47l0.92,0.65l1.08,1.63l3.74,1.76l3.74,3.46l0.23,2.53l-0.71,1.39l0.04,0.44l1.14,1.28l-0.27,0.26l0.51-0.15l-0.31-0.75
		l0.24-0.46l-0.94-0.5l0.94-0.63l0.4,0.07l0.71,0.77l-0.07,1.39l0.73,1.7L84.65,81l0.89-0.88l0.62,0.02l1.91,2.7l0.22,0.56
		l-0.4,1.27l0.12,2l0.87,2.51l-1.22,6.35l0.28,0.31l1.89,0.35l0.24,0.78l-0.35,0.71l0.59,0.12l0.12,1.02L89.92,100l0.04,1.1
		l-0.83,0.71h-0.79l-0.32,0.55h-1.06v0.35l-3,0.16l-0.39,0.27l1.02,1.53l0.2,1.59l0.95,1.25l-1.18,0.39l-0.04,0.43l0.39,0.16
		l0.35,1.02l-0.39,0.9l-0.75,0.04v0.23l0.43,0.47l0.43-0.04v1.14l-0.28,0.2l1.06,1.17l-3.71-1.53l-0.32-0.71l-0.67,0.12l-0.67-0.39
		l-0.59,0.35l0.08,2.08l-0.28,0.63l0.28,0.78l1.26,0.24l0.08,1.17l0.67,0.51v0.67l-0.67,0.82L80,118.79l-1.54-0.31l-0.83,0.43
		L77,118.44l-0.59-1.06l-1.46,0.51l-1.06-0.43l-1.7,0.9l-1.5,2.39l-1.54,0.43l-0.93,1.39L68,122.48l-0.26-0.21l0.32-0.15v-0.87
		l-0.79-0.48l0.42-1.16l-0.58-2.95l-4.58-12.48l-1.33-3.04l-0.83-1.06l0.2-0.32l0.45,0.48l0.38-0.08l0.85-1.33L62.28,98l-1.69-1.97
		l-0.49,0.31l0.5,0.15l0.21,0.68l-1.15-0.44l-2.59-3.27L50.64,89.71z"/>
	<path id="ID-YO" fill="#1E3250" stroke="#1E3250" stroke-width="0.5" d="M270.07,268.13l-2.04-0.09l-5.85-2.13l-0.66-0.81
		l-1.97-0.62l-3.77-1.76l0,0l0.58,0.03l0.31-1.28l1.2-1.27l-0.02-1.59l2.16-0.15l0.43,0.9l0.57-0.77l2.39-1.88l0.81,3.89l0.75,0.46
		l0.59-0.14l0.21,0.34l1.48-0.32l0.19,0.33l0.58-0.27l0.69,0.59l0.24-0.27l0.29,0.17l-0.55,3.38l0.57,1.61l-0.05,0.75l0.23,0.18
		l0.54-0.37l-0.24,0.61l0.38-0.02L270.07,268.13z"/>
	<path id="TL" fill="#1E3250" stroke="#1E3250" stroke-width="0.5" d="M506.06,285.08l-0.409,1.58l0.119,0.56l-0.43,0.59l-0.97,0.44
		l0.02,0.55l-0.55,0.68l0.22,0.45l-0.229,0.5l-1.21,0.28l0.14-0.86l-0.25-0.61l-0.83-0.81l-1.52,0.97l-0.26-0.32l-0.46,0.02
		l-0.88-1.19l0,0l1.84-0.67l0.56-0.7L506.06,285.08z M554.07,272.91l-4.08,3.55l-3.94,1.3l-2.31,0.34l-1.29,0.62l-1.86,2.43
		l-5.56,0.68l-3.63,2.38l-2.78,0.35l-6.72,2.18l-1.12,0.66l-2.05,1.97l-1.42,0.21l-0.69,0.46l0,0l-0.67-2.32l-0.97-0.67l-0.21-1.46
		l0.279-0.57l1.04-0.02l0.721,0.56l0.67-0.53l0.689-0.08l0.09-2.49l-1.279-1.02l-0.601,0.97l-1.729,0.7l-0.75-0.61l0.31-1.16
		l-0.2-0.08l0,0l2.67-3.45l0.28-1.37l0.62-0.8l4.82-1.09l4.92-0.72l2.35-0.85l1.62,0.11l2.39,0.64l2.69-0.44l2.15-1.23l0.93-0.06
		l2.64,1.06l3.601-1.08l4.04-1.73l3.35,0.15l1.81,1.11l0.021,0.64L554.07,272.91z"/>
	<path id="MY-12" fill="#1E3250" stroke="#1E3250" stroke-width="0.5" d="M384.2,12.54l-1.43-0.22l-0.27-0.31l1.77-0.58l0.01-0.44
		l-0.61-0.08l-0.06-0.24l1.17-0.43l0.81,0.96l-0.04,0.47L384.2,12.54z M372.96,13.31l1.36-0.21l3.21-3.97l-0.29-1.89l0.65-0.771
		l1.32-0.38l0.57,0.19l1.23,0.78l0.06,3.07l0.6,2.21l3.09,1.74l3.15,0.43l1.57,2.21l-0.29,2.25l-1.39,0.23l-0.72,0.88l1.08,1.79
		l0.21,1.84l-0.78,0.73l-2.2,0.76l4.83-0.33l1.81-0.65l2.07-1.88l0.72,0.72l1.32,2.69l-0.77,0.93l-2.58-0.06l-0.4,0.28l0.82,1.94
		l2.94-0.08l0.529-1.68l0.351-0.29l1.42-0.41l1.989,0.35l3.551,2.05l1.96,1.68l4.2,2.79l2.34,0.44l2.069-0.67l0.851,0.69l0.64,1.01
		l-0.06,2.09l-0.84,1.29l-2.67,1.36l-2.711,0.73l-3.659,1.46l-2.63-0.27l-1.78-0.7l-0.58-0.54l-1.021-0.09l-2.54,1.28L396.4,42.6
		l-0.141,0.6l2.59,2.98l2.33,1.51l0.4-0.34l0.77,0.35l-0.31,0.94l0.729,0.65l0.601-0.43l0.88,0.07l0.87,1.44l-1.65,1.49L401,51.9
		l-3.82,0.71l-3.25,1.44l-1.56-0.38l-0.74-0.71l-2.94-1.51l-1.1,0.36l0.39,1.49l-1.03,1.66l0,0l-0.24-0.17l-0.89,0.26l-1.21-0.34
		l-0.64-1.01l-3.02-2.15l-1.25,0.57l-2.35-0.09l-0.34,0.39l-1.95-0.77l-1.22,0.61l-0.74-0.17l-0.79-0.73l-0.54,0.67l-1.6,0.17
		l-0.25-0.61l-0.79-0.57l-0.54,0.67l0.05,0.62l-0.84-0.09l-0.23,0.54L367,52.9l-0.19-0.63l-1.17-0.97l-1.52,0.35l-1.71-0.4
		L362.13,52l-0.85,0.33l-0.59,0.89l-1.02-1.2l-1.51-0.3l-0.33-0.57l-0.53,0.19l0.02,1.46l-0.72,0.6l-0.13,0.57l-0.41,0.11l-0.54-0.4
		l-0.79,0.91l-0.37-0.03l-0.37,1.6l0,0v0.03l0,0l-0.89-0.5l-0.31-0.74l0.43-1.1v-5.7l-1.11-7.6l-1.71-0.26l0,0l1.37-0.82l0.28-1.91
		l-0.26-0.4l-1.28-0.32l-2.17-1.53l0.36-1.58l2.56-2.01l4.05-0.05l0.95-0.24l0.54-0.52l0.8-1.4l0.41-1.77l2.29-1.61l0.04-1.03
		l0.64-1.34l0.34-2.59l3.78-4.07l2.98-2.25l0.11-0.88l2.36-2.71l0.23-2.52l1.02-2.1l0.87-0.96L373.93,7l0.34,2.52l-0.14,0.8
		l-1.22,1.97L372.96,13.31z M381.6,0.58l-0.11,1.4l-0.45,1.03l-1.75,0.18l-1.44,1.1l-0.25-1.14l0.32-1.96l1.29-0.87L380.55,0
		l0.8,0.15L381.6,0.58z M374.54,2.27l-0.31,0.66l0.38-1.56L376.72,0l0.3,1.49L374.54,2.27z"/>
	<path id="MY-13" fill="#1E3250" stroke="#1E3250" stroke-width="0.5" d="M280.03,85.85l-0.75,0.29l-1.11-1.56l-0.18-4.87l0.18-0.59
		l0.44-0.22l0.91,1.41l-0.08,3.49L280.03,85.85z M350.38,40.31l1.71,0.26l1.11,7.6v5.7l-0.43,1.1l0.31,0.74l0.89,0.5l0,0l-0.01,0.13
		l0,0l-0.67,2.08l-1.3,0.65l0.96,1.04l-0.7,2.31l-0.05,1.55l0.67,2.43l0.58,1.01l-0.4,0.58l-0.4-0.63l-0.34-0.02l-0.63,1.26
		l-0.42,2.81l0.76,0.9l-0.81,0.67l-0.31,1.44l-1.03,0.14l-0.81,0.77l-1.23,0.09l-0.65-1.06l-0.34,0.83l-1.59,1.06L345,77.31
		l-0.96,0.77l0.72,0.58l-0.18,0.77l-0.6,0.52l0.23,1.01l-0.4,0.79l0.31,0.47l0.99-0.31l1.25,1.47l-0.07,0.31l-0.6,0.5l-1.36,0.16
		l-0.65,1.01h-0.67l-0.94,0.83l-0.67-0.11l-0.31,0.63l0.29,0.66l-0.78,0.49l-1.84,0.2l-0.32,2.13l0.51,0.48l0.04,1.41l0.76-0.34
		l0.51,0.25l-0.72,0.97l0.4,0.81l-1.03,0.45l-0.45,0.64l-0.54-0.25l-0.56,0.16l-0.42,0.93l0.11,2.3l-0.9,1.22l-0.8,0.47l0.06,1.06
		l-0.49,0.81l0,0l-0.61,0.54l-2.58-1.51l-0.58,0.54l-2.28,0.75l-0.24,0.45l0,0l-0.34,0.14l0,0l-1.17-0.93l-3.05,0.32l-0.4,0.45
		l-1.92,0.79l-0.23,1.22l-2.92,1.44l-0.32-0.1l-0.75-1.34l-0.67-0.3l-2.12,0.55l-1.8-1.59l-2.37-0.05l-0.75-0.22l-0.38-0.67
		l-0.37-0.05l-1.35,0.45l-0.75-0.07l1.62-1.96l-0.65-0.7l-2.37-0.27l-1.12,0.82l-0.9-0.42l-1.65,0.12l-2.9-0.37l-1.65,0.94
		l-1.57,0.35l-1.7,0.79l-0.5,0.55l0.42,0.65l-0.05,0.65l-0.85,0.84l-0.37,2.73l-3.22,0.22l-1.35,1.39l-0.32,0.77l-1.7-0.35
		l-0.58,0.17l-1.27-0.5l-1.65,0.89l-0.32,0.55l-0.7-1.17l-0.77-0.12l-1.2,0.32l-2.57-1.19l-1.95,0.57l-3.85,0.5l-0.9,1.14
		l-2.83,1.25l-0.45,0.02l-0.45-0.45l-0.4,0.67l-1.27,0.05l-1.55-0.7l-0.9-1.37l-1.95-0.25l-0.32-0.97l-1.5-2.31l-1.32-0.07
		l-0.43-0.35l-0.35-0.87l-1.49-0.74l-0.42-1.69l-1.77-0.25l-0.83-1.29L249.98,99l-0.3-0.65l0.42-2.14l-0.15-0.35l-1.2-0.3
		l-0.85-0.94L247.67,94l0.05-0.47l0.6-0.07l0.67-0.97l0.5-1.38l0,0l0.08,2.32l0.34,0.66l0.67,0.8l3.76,2.77l5.62-0.26l1.34-1.65
		l2.58,3.05l4.39,1.44l0.02,0.65l-1.02,0.89l0.2,0.1l0.81-0.14l0.49-0.46l0.21-1.43l0.82-0.09l2.67,1.23l1.5,1.57l1.6,0.71
		l2.84,0.53l1.02-0.22l-1.58-1.15l-2.21,0.23l-1.76-1.07l-1-1.89l0.5-1.62l0.61-0.28l2.44-6.6l0.85-0.98l1.21,0.31l0.78-0.71
		l-0.26-0.28l-3.15,0.29l0.18-2l0.73-2.76l0.33-0.12l2.13,1.55l1.42-0.51l-0.82-1.93l0.79-3.68l3.81-2.63l7.34-0.99l13.35-3.37
		l2.52-1.03l4.57-5.6l2.42-3.54l1.78-2l3.77-3.25l3.3-4.26l1.19-3.37l-0.48-2.46l0.53-0.29l2.04,0.12l0,0l1.91,0.72l1.54,2.08
		l0.25,1.72l3.63,3.37l1.54,2.02l0.55-0.06l1.29-0.73l1.23-1.35l0.98-3.49l-1.29-6.74l1.11-1.1l2.09-0.37l0.82-1.16l0,0l0.22,1.31
		l0,0l-0.24,0.71l0.18,2.15l1.17,4.54l2.03,0.73l2.46,0.37l-0.12-0.92l-1.29-1.16v-3.37l-0.98-3.06l-1.21-1.58l0,0l1.25-0.91
		l1.86,1.11l0.5-0.1L350.38,40.31z"/>
	<path id="BN" fill="#1E3250" stroke="#1E3250" stroke-width="0.5" d="M404.31,46.91l-0.479,0.67l-0.67-0.01l-3.11-1.24l2.23-0.3
		L404.31,46.91z M344.67,42.31l1.21,1.58l0.98,3.06v3.37l1.29,1.16l0.12,0.92l-2.46-0.37l-2.03-0.73l-1.17-4.54l-0.18-2.15
		l0.24-0.71l0,0l0.5,0.16l1.09-0.8L344.67,42.31z M341.93,42.32l-0.13,0.26l0.66,0.03l0,0l-0.82,1.16l-2.09,0.37l-1.11,1.1
		l1.29,6.74l-0.98,3.49l-1.23,1.35l-1.29,0.73l-0.55,0.06l-1.54-2.02l-3.63-3.37l-0.25-1.72l-1.54-2.08l-1.91-0.72l0,0l1.5,0.19
		l1.69-0.24l3.8-1.65l2.52-2.44l4.28-2.83l2.19-0.88h1L341.93,42.32z"/>
</g>
</svg>
