<?xml version="1.0" encoding="utf-8"?>
<!-- Generator: Adobe Illustrator 15.0.0, SVG Export Plug-In . SVG Version: 6.00 Build 0)  -->
<!DOCTYPE svg PUBLIC "-//W3C//DTD SVG 1.1//EN" "http://www.w3.org/Graphics/SVG/1.1/DTD/svg11.dtd">
<svg version="1.1" id="Layer_1" xmlns:amcharts="http://amcharts.com/ammap"
	 xmlns="http://www.w3.org/2000/svg" xmlns:xlink="http://www.w3.org/1999/xlink" x="0px" y="0px" width="478.5px" height="538.5px"
	 viewBox="0 0 478.5 538.5" enable-background="new 0 0 478.5 538.5" xml:space="preserve">
<defs>
	
	
		<amcharts:ammap  projection="mercator" bottomLatitude="24.252483" leftLongitude="123.657849" topLatitude="45.523885" rightLongitude="145.821536">
		</amcharts:ammap>
</defs>
<g>
	<path id="JP-23" fill="#1E3250" stroke="#1E3250" stroke-width="0.5" d="M274.27,277.6l0.33-2.12l-0.86-1.4l0.56-2.83l-2.28-0.31
		l0,0l-1.29-2.78l0,0l0.22-2.19l1.69-2.97l2.94-0.35l1.48-1.13l1.8,3.09l2.09,1.04l2.4-0.91l2.48,1.57l2.53-1.48l0,0l0.31,2.15
		l2.11-0.82l2.62,0.42l0,0l0.2,1.49l-3.73,6.27l-2.75,1.53l-0.27,3.55l0,0l-8.87,2.3l0.54-1.92l0.74,0.63l2.36-1.02l1.92-1.37
		l0.21-1.14l-2.26-1.02l-0.76,1.39l-2.95-0.32l-1.42-1.37l-0.13-1.27l-0.69,2.8l1.17,1.8L274.27,277.6z"/>
	<path id="JP-05" fill="#1E3250" stroke="#1E3250" stroke-width="0.5" d="M337.52,155.13l-0.69-2.75l-1.39-1.62l0.51-0.81l1.33,1.12
		l0.18-4.97h-1.52l-1.15,2.88l0.46,1.68l-1.64-0.13l-0.02,1.1l-2.1-0.09l-1.18-3.14l0.14-0.73l2.59,1.11l2.34-3.03l1.42-7.06
		l-1.72-1.81l0,0l1.64,0.24l1.03-1.22l0.76,0.81l4.5-0.06l0.5-1l1.31-0.11l2.22,2.03l1-0.84l1.25,0.84l2.98-1.19l0.24-1.08
		l1.23-0.49l-0.16,2.35l2.13-0.23l-0.49,4.64l0,0l-1.82,1.9l0.3,7.69l-1.87,0.16l0.07,1.06l1.12,0.66l-1.21,1.61l0.79,2.25
		l-1.81,2.14l-1.41,3.84l0.78,2.92l2.16,3.02l-1.08,1.13l-0.01,1.2l1.12,0.77l-0.71,2.52l0,0l-2.35,1.74l-2.03,0.18l0,0l-1.77-0.98
		l-0.58-1.8l-5.58-1.53l-1.51-0.89l-0.2-1.17l-1.35,0.71l-2.51-0.41l0,0l0.8-3.71l2.04-3.1L337.52,155.13z"/>
	<path id="JP-02" fill="#1E3250" stroke="#1E3250" stroke-width="0.5" d="M358.65,125.37l1.5-1.88l1.39-5.44l-1.58-3.1l-0.79-0.08
		l-1.98,2.42l-1.52-0.42l-3.33,1.86l-0.93-0.47l0.69-4.59l2.24-5.89l6.95,5.01l1.89-0.26l2.04-1.67l-1.49,6.85l0.45,10.64l1.37,4.86
		l1.18,1.09l0.67-0.39l2.14,2.44l0,0l-2.87,2.68l-1.24-0.771l-2.39,1.19l-0.68-1.08l-5.73,3.89l-1.4-0.69l0,0l0.49-4.64l-2.13,0.23
		l0.16-2.35l-1.23,0.49l-0.24,1.08l-2.98,1.19l-1.25-0.84l-1,0.84l-2.22-2.03l-1.31,0.11l-0.5,1l-4.5,0.06l-0.76-0.81l-1.03,1.22
		l-1.64-0.24l0,0l0.07-3.22l-1.56-1.63l3.45-3.65l1.84,0.44l2.66-1.78l1.09-7.4l-1.38-0.82l1.43-0.59l0.4-2.95l2.39,2.04l1.67-1.2
		l1.75,1.1l0.28,4.79l1.65,4.47l1.33-0.11l1.19-1.28l0.33-3.25L358.65,125.37z"/>
	<path id="JP-12" fill="#1E3250" stroke="#1E3250" stroke-width="0.5" d="M333.18,262.84l1.09,0.2l0.17-1.77l1.75-0.65l1.51-2.16
		l0.81,0.1l-2.51-3.31l-0.69,0.29l0,0l-1.43-3.02l0,0l0.57-1.59l-2.44-5.67l0,0l3.3,3.83l4.09,2.28l6.14-1.81l4.36,1.72l3.61,3.06
		l0,0l-0.11,0.65l-3.82-0.05l-2.72,2.07l-2.51,3.73l-0.43,6.4l-1.42,1.26l-3.66,0.38l-4.69,5.28l-2.67-1.6l2.08-0.74l-0.78-1.66
		l-0.01-2.96l1-1.23l-1.13-1.6L333.18,262.84z"/>
	<path id="JP-38" fill="#1E3250" stroke="#1E3250" stroke-width="0.5" d="M188.1,312.49l0.23-0.431l0.35-0.26l0.35,0.04l0.02-0.2
		l-0.29-0.13l-0.38-0.16l-0.47,0.16l-0.28,0.23l-0.44-0.25l-0.2,0.38l-0.4-0.13l-0.14-0.23h-0.46l0.13-0.45l0.17-0.13l0.14-0.1
		l0.31-0.12l-0.03-0.17l-0.04-0.25l-0.3,0.03l-0.22-0.37l0.35-0.29l-0.07-0.36l-0.27-0.07l0.35-0.319l0.16-0.04l0.22-0.271
		l0.09-0.46l-0.23,0.13l-0.4-0.05l0.17-0.41l-0.51,0.101l-0.33-0.36l-0.23,0.061l-0.35,0.29l-0.86,0.6l-0.52,0.14l-0.33,0.37
		l-1.1,0.33l-0.57,0.53l-0.16,0.31l-0.31,0.28l-0.51,0.06l-0.03-0.239l0.35-0.221l0.01-0.17l-0.51,0.021l-0.85,0.71l-0.51,0.31
		l-0.25,0.011l2.15-1.811l0.51-0.3l0.66-0.36l0.57,0.08l0.31-0.33l0.31-0.14l0.46-0.04l0.24-0.14l0.1-0.181l1.16-0.52l0.86-0.641
		l0.75-0.399l0.21-0.5l0.83-0.99l0.63-0.46l1.55-0.56l1.22-0.91l0.21-0.24l0.37-0.98l0.45-0.4l-0.23-0.72l-0.01-0.99l0.2-1.04
		l0.24-0.66l0.43,0.17l0.43-0.29l0.34-1.22l0.07-0.62l1.77-1.67l1.11-0.17l-0.06-0.45l0.26-0.17l-0.15-0.56l0.36-0.6l0.75,0.87
		l0.98,1.41l0.72,1.48l0.38,0.6l0.13,0.43l0.5,0.36l0.95-0.32l1.38-0.34l0.37-0.1l-0.12-0.46l1.2-0.2l0.24-0.26l0.38,0.05l0.37,0.33
		l0.7-0.3l0.68,0.1l0.48,0.1l0.73,0.33l0.5-0.07l0.69-0.5l0.2-0.34l0.14-0.44l0.16-0.08l0.4-0.27l0,0l0.33,0.27l0.95,0.13l0.61,0.34
		l0,0l-0.29,0.68l0.27,0.49v1.04l-0.22,0.61l-0.34,0.29l0,0l-0.41,0.01l-0.65-0.01l-0.47,0.33l-0.51-0.34l-0.21,0.04l-0.56,0.77
		l-0.21,0.27l-0.2,0.16l-2.07,0.07l-0.8-0.13l-1.47,0.02l-0.2,0.17l-0.22,0.73l-0.18,0.11l-0.521,0.19l-0.34-0.34l-0.2,0.02
		l-0.26,0.69l-0.39,0.79l-0.4,0.4l-0.35,0.5l-0.06,0.55l-0.22,0.28l-0.61,0.1l-0.18,0.65l-0.25,0.73l-0.19,0.46l0.29,0.29l0.04,0.52
		l-0.36,0.271l-0.57,0.88l-0.01,0.27l-1.2,0.34l-0.21-0.13l-0.66,0.08l-1.3-0.21l-0.41,0.11l-0.32,0.3l0.35,0.32l0.15,0.939
		l0.15,0.2h0.2l0.23,0.72l0.45,0.141l0.27,0.359l0.04,0.57l-0.08,0.22l-0.8,0.46l-1.21,0.42l-0.31,0.521l-0.18,1.14l-0.43,0.03
		l-0.17,0.15l-0.14,0.47l-0.71,0.899l-0.19,0.07l-0.95-0.92l-0.11-0.27l-0.2,0.069l-0.14,0.29l0.29,0.62l-0.03,0.26l0.47,0.511
		l0.21,0.05l0.09,0.3l-0.2,0.92l0.3,0.311l0.21,0.939l-0.01,1.33l-0.41,0.1l-0.05,0.381l0,0l-0.32-0.12l-0.94,0.35l-0.14-0.27
		l-0.25-0.341l-0.09-0.18l-0.46,0.16l-0.19,0.09l-0.26,0.061l-0.02,0.29l0.02,0.13l-0.19,0.26l-0.35-0.03l-0.27,0.01l-0.25-0.04
		l0.08-0.369l-0.32-0.381l0.1-0.119l0.36-0.04l0.35-0.261l-0.63-0.34l0.28-0.229l0.24,0.14l0.15,0.04l0.14-0.1l-0.21-0.391l0.1-0.26
		l-0.3-0.14l-0.12-0.04l-0.01-0.83l-0.28-0.04l-0.35,0.33l-0.42-0.24l-0.38,0.17l-0.13,0.08l-0.09,0.21l-0.05,0.29l-0.36-0.18
		l0.33-0.4l0.02-0.38l0.15-0.351l0.22-0.05l0.2,0.11l0.14,0.34l0.33-0.06l0.57-0.221l0.13-0.27l-0.3-0.12l0.21-0.39l0.38-0.601
		l-0.02-0.33l-0.39-0.09l-0.15,0.01l-0.22,0.08l-0.15,0.13l-0.22-0.14l0.05-0.25l-0.36-0.17l0.15-0.33l0.29-0.35l-0.521-0.561
		l0.51,0.2l0.69,0.34l0.29,0.33l0.35,0.021l-0.08-0.37l-0.2-0.41l0.31-0.271l0.56,0.04l0.23-0.029l0.09-0.16l-0.14-0.34l-0.28,0.04
		l-0.38-0.341l0.39-0.21l0.04-0.31l-0.8,0.05L188.1,312.49z"/>
	<path id="JP-18" fill="#1E3250" stroke="#1E3250" stroke-width="0.5" d="M252.29,257.91l1.54,1.06l-0.22-1.07l1.11-0.42l-0.83-1.29
		l1.02,0.84l2.12-0.41l-0.39-2.38l1.24-0.99l0.16,2.03l0.96,0.43l0.5-2.8l-2.8-4.94l3.26-6.5l2.38-1.09l0,0l2.35,3.21l2.02,0.68
		l1.75-0.42l2.1,2.08l1.89-0.479l0,0l-0.53,2.25l2.06,3.41l-0.8,1.24l-2.89-0.05l-2.84,1.26l-2.53-0.92l-1.89,3.09l0,0l-2.47-0.81
		l0.38,3.18l-1.1-0.32l-2.1,2.07l-1.23-0.67l-1.04,2.77l-1.57-0.13l-0.87,1.34l0,0l-4.61-0.52l-1.44-2.08l0.18-2.32l0,0l0.88,0.17
		l-0.03,1.34l2.58,0.39l1.78-0.38l0.27-0.88l-1.24-0.34L252.29,257.91z"/>
	<path id="JP-40" fill="#1E3250" stroke="#1E3250" stroke-width="0.5" d="M147.17,302.8l1.24-1.35l-0.38-1.63l1.57-1.76l2.07,0.16
		l1.39-1.34l3.77,1.09l2.22-1.81l-0.15,2.62l-0.79,0.7l0.88,0.33l1.94,4.63l1.64,0.47l0,0l-0.11,2.149l-3.81,0.07l-1.61,1.38
		l-1.26,2.471l0.58,1.109l-0.78,1.29l1.17,1.53l-0.83,1.63l0,0l-3.16-1.49l-0.53,1.44l-1.5-0.17l-1.62,1.489l0.18,1.07l-2.14-0.08
		l0,0l0.48-1.1l-1.4-2.19l0,0l0.76-2.27l2.87-2.25l0.02-2.25l-2.14,0.979l-3.09-1.95l-4.66,0.211l0,0l2.3-1.641l0.19-0.55
		l-1.51-0.47l2.37-2.02l1.45,2.03l2.33-0.84l0.69-1.07L147.17,302.8z"/>
	<path id="JP-07" fill="#1E3250" stroke="#1E3250" stroke-width="0.5" d="M355.44,223.47l-3.11,2l-0.36,1.14l0,0l-3.43-1.04
		l-0.57-1.03l0.12,1.76l-2.57,1.89l-4.03-3.45l0,0l-0.17-2.19l-0.85,0.05l-1.25-1.91l-4.81-1.28l-10.18,5.94l0,0l-2.83-0.88l0,0
		l0.28-5.21l-1.74-1.89l1.17-2.55l-0.53-1.76l0.57-0.92l3.38-0.29l0.73-1.35l2.97,0.03l-0.67-3.39l3.69-4.3l0,0l1.42,0.49l2.51-0.62
		l0.97,1.68l1.23-0.46l1.47,1.12l2.04-0.3l1.33-1.61l-0.29-4.12l0,0l1.39,0.66l1.13-0.57l1.51,1.78l3.47,0.02l0.65,2.35l1.84,0.77
		l-0.32-0.55l1.72-0.15l-0.03-2.17l1.42-0.09l0,0l1.58,3.74l0.55,6.03L355.44,223.47z M352.01,226.63l0.03,0.01l0,0L352.01,226.63z"
		/>
	<path id="JP-21" fill="#1E3250" stroke="#1E3250" stroke-width="0.5" d="M265.76,266.48l-0.72-0.69l1.25-3.44l-0.83-3.38l-1.64-0.5
		l0.12-1.6l-0.92-1.14l0,0l1.89-3.09l2.53,0.92l2.84-1.26l2.89,0.05l0.79-1.24l-2.05-3.41l0.53-2.25l0,0l0.27-1.83l1.55-1.9
		l-1.05-1.4l0,0l1.64-1.7l1.52,0.74l0.42,1.58l3.72-4.39l2.85-0.22l0.25,0.92l1.35-0.8l0.28,0.78l3.62,0.9l0,0l1.25,1.7l-1.9,4.37
		l1.17,1.56l-0.39,1.57l-2.33,2.84l-1.9,0.09l-1.05,1.85l2.61,1.28l1.58,2.49l0.2,3.38l1.64,0.22l-0.65,1.61l0.71,0.98l-0.87,0.29
		l0.26,1.27l-0.83,1.18l0,0l-2.52,1.48l-2.49-1.57l-2.4,0.92l-2.08-1.04l-1.8-3.09l-1.49,1.12l-2.93,0.35l-1.69,2.98l-0.22,2.19l0,0
		l-1.08-0.12l-1.69-2.5L265.76,266.48z"/>
	<path id="JP-10" fill="#1E3250" stroke="#1E3250" stroke-width="0.5" d="M329.7,242.25l-0.8,0.76h-3.06l-1.81-1.34l-4.82-0.84
		l-1.67,3.66l-1.53,0.07l-4.88,3.22l0,0l-1.33-0.62l-0.05-2.12l-1.37-1.51l1.07-0.32l-0.62-2.36l1.03-0.68l-0.22-2.63l-3.49,0.24
		l-1.25-0.74l-0.06-1.3l0.58-2.65l1.92-1.34l0.01-1.09l3.34-1.19l0,0l1.81-0.02l0.69-1.67l2.13-0.59l0.04-1.39l0.94-0.15l-0.27-1.93
		l1.64-0.28l0.94-1.68l2.8,2.72l0,0l2.83,0.88l0,0l-0.58,1.54l1.02,0.44l-1.02,1.41l-0.49,3.43l3.04,1.35l-2.26,5.12l2.12,2.33
		l2.83-0.04L329.7,242.25z"/>
	<path id="JP-28" fill="#1E3250" stroke="#1E3250" stroke-width="0.5" d="M227.25,277.27l-1.09,0.9l-1.21-0.22l0,0l-1.8-2.81
		l0.7-1.31l-0.68-0.85l0.3-1.82l1.81-2.81l0.92-0.19l-0.12-2.24l0,0l2.22-0.89l-0.11-1.59l-2.82-6.56l0,0l3.35-1.4l1.62,0.77
		l0.82-0.67l4.09,0.18l0,0l0.02,2.02l1.07,1.41l2.38,0.06v2.63l-0.91,0.52l-1.14-0.55l-0.35,2.27l2.82,1.74l1.78-0.44l0.64,2.15
		l1.79-0.08l0.26,0.79l1.83,0.31l-0.26,2l0,0l-0.72,0.27l0.24,1.57l2.37,0.95l-0.91,0.51l0.84,4.95l-0.54,1.21l0,0l-0.55-1.32
		l-2.3-0.41l-2.08,1.62l-2.58,0.64l-4.27-1.72l-1.67-1.65L227.25,277.27z M236.65,288.35l0.22,0.77l-4.38,1.85l-1.51-2.42l6.89-7.57
		l0.44,0.83l-2.54,3.82L236.65,288.35z"/>
	<path id="JP-01" fill="#1E3250" stroke="#1E3250" stroke-width="0.5" d="M344.04,71.29l2.76-2.73l-4.03-5.33l0.41-3.02l1.64,0.11
		l1.34-1.17l5.8,4.8l4.4-1.19l-0.14,1.17l3.04,1.39l2.2-1.22l2.96-3.75l-1.86-10.74l1.02-2.1l4.26-2.26l0.93-1.89l0.06-9.81
		l2.14-3.76l0.72-5.25l-1.07-7.11l-3.28-9.47l1.64-3.22l-0.26-2.67l1.27,1.45l1.76-0.28L374.52,0l11.73,13.8l3.91,7.23l5.02,5.66
		l8.74,7.2l3.7,1.94l9.12,2.97l3.229,0.22l0.23,2.05l1.46,2.04l3.21,1.01L430.85,44l7.83-7.21l3-3.96l0.45,2.23L437.68,43l-1.62,5
		l6.061,12.8l-2.49-1.28l-0.03,1.63l0.86-0.67l0.55,1.34l2.95,0.34l3.76-3.51l3.28,0.2l-1.36,1.41l-3.609,1.33l-0.8,2.93
		l-2.011-0.41l-5.47,1.2l-3.38,4.39l-1.9-0.1l-1.09-1.99l-1.92,1.83l1.12,1.54l-6.74-0.48l-2.26-1.42l-3.061,0.54l-5.819,3.71
		l-5.271,5.27l-4.08,5.8l-1.529,3.31l0.27,3.11l-1.72,7.01l-3.7-3.72l-12.93-6.47l-4.21-3.72l-3.21-0.94l-4.04-3.24l-4.21-0.57
		l-3.17,1.04l-6.35,4.45l-2.46,3.19l-1.4-0.95l0.97,0.35l0.12-0.81l-1.35-0.41l-0.87-2.37l-3.24-3.33l-4.67-0.12l-3.12,4.56
		l-0.43,4.49l5.06,3.55l4.17-0.08l3.94,5.31l4.49,2.84l-4.32,2.59l-3.63-1.7l-1.63,0.89l0.3-1.74l-1.45-0.3l-0.84,2.01l-3.07,1.49
		l-0.31,3.94l-3.3,1.38l-1.29,2.2l-3.06-1.3l-1.16-3.58l1.76-5.86l1.05-0.51l-0.09-4.69l-1.9-2.94l-1.97-0.48l-1.39-2.2l-1.14-0.41
		l-0.58-2.12l1.58-3.1l-0.46-4.88l0.92-1.45l3.41-0.68l2-1.64l0.85-1.92l1.39,1.54l0.89-0.23L344.04,71.29z M358.76,9.86l-0.09-1.23
		l1.28-1.25l2.07,1.21l0.51,1.81l-1.81,1.49L358.76,9.86z M326.88,91.03l-0.29,2.22l-1.07,1.22l-0.97-3.35l3.12-1.99L326.88,91.03z
		 M357.23,4.25l-0.65,2.72l-1.18-5.35l0.65,0.85L357.03,2L357.23,4.25z"/>
	<path id="JP-34" fill="#1E3250" stroke="#1E3250" stroke-width="0.5" d="M191.21,290.66l-0.78-0.7l-1.45,1.75l1.24,1.22l-2.52,0.51
		l1.45-3.72l-0.56-2.7l-1.31-0.65l-2.28,1.04l-1.69,2.64l0,0l-1.61-0.12l-1.71-5.72l0,0l-0.49-0.63l1.52-1.49l0.91-2.8l-0.55-0.34
		l2.06-2.48l1.19,0.59l2.82-0.97l1.88,0.54l3.23-1.2l-1.08-1.55l2.04-1.26l2.4-3.33l5.31,0.61l0,0l2.53,0.45l0,0l1.01,1.22
		l-0.47,2.8l1.6,2l0.11,4.41l1.33,3.39l0,0l-1.71,2.55l-2.4-0.51l0.53-0.41l-0.6-0.81l-2.97,1.31l-0.23,0.98l-3.69,0.44l-0.9,0.83
		l-0.96-0.48l-0.75,1.7L191.21,290.66z"/>
	<path id="JP-08" fill="#1E3250" stroke="#1E3250" stroke-width="0.5" d="M347.55,240.03l0.79,5.4l5.17,8.91l0,0l-3.61-3.06
		l-4.36-1.72l-6.14,1.81l-4.09-2.28l-3.3-3.83l0,0l-0.78,0.25l-0.69-2.85l0,0l2.37-0.93l0.55-1.69l1.13,0.28l1.25-1.8l4.36-0.79
		l1.13-3.02l-0.59-3.76l1.32-0.91l-0.59-5.28l0,0l4.03,3.45l2.57-1.89l-0.12-1.76l0.57,1.03l3.43,1.04l0,0l0.04,0.02l0,0l0.03,0.01
		l0,0l-3.6,9.2l0.16,2.88L347.55,240.03z"/>
	<path id="JP-17" fill="#1E3250" stroke="#1E3250" stroke-width="0.5" d="M271.76,220.87l-0.06-1.29l-0.98-0.08l1.36-4.74l7.99-3.94
		l3.62-0.75l0.64,1.95l-2.14,0.6l0.31,2.22l-0.66,0.98l-2.68,0.45l-1.73,2.34l-1.23-1.22l-1.46,2.17l0.54,0.23l-0.83,1.56l1.12-0.48
		l1.13,1.11l1.51-1.33l0.04,3.49l0,0l-1.97,0.16l-1.4,1.37l-1.85,6.8l0.64,1.71l-0.47,6.15l0,0l1.05,1.4l-1.55,1.91l-0.28,1.83l0,0
		l-1.89,0.48l-2.1-2.08l-1.75,0.42l-2.02-0.68l-2.35-3.21l0,0l3.43-3.08l5.57-7.99l1.33-3.8L271.76,220.87z"/>
	<path id="JP-03" fill="#1E3250" stroke="#1E3250" stroke-width="0.5" d="M373.89,165.92l0.47,0.61l-0.83-0.04l1.36,1.2l-1.76,0.4
		l1.06,0.74l-1.66,0.78l1.67,1.04l-2.13-0.23l0.21,0.97l1.02,0.26l-1.22,0.18l0.47,0.85l-1.56,0.17l-0.72-1.21l0.45,1.9l-0.79,1.31
		l-0.67-1.67l-0.92,0.09l0.16,0.75l0,0l-2.61-0.62l-1.22,5.45l-2.45-1l-1.59,1.75l-1.77-1.01l-0.13-2.14l-2.93,0.05l-3.2-2.21
		l-0.95,0.14l0,0l0.71-2.52l-1.12-0.77l0.01-1.2l1.08-1.13l-2.16-3.02l-0.78-2.92l1.41-3.84l1.81-2.14l-0.79-2.25l1.21-1.61
		l-1.12-0.66l-0.07-1.06l1.87-0.16l-0.3-7.69l1.82-1.9l0,0l1.4,0.69l5.73-3.89l0.68,1.08l2.39-1.19l1.24,0.77l2.87-2.68l0,0
		l2.91,5.5l-0.98,1.08l1.86,1.24l-0.85,1.77l2.42,2.37l0.65,7.55l-0.85,2.57l1.57-1.79l0.02,2.02l0.9,0.79l-2.32,1.87l0.43,0.88
		l1.67-0.81l-0.43,1.33l-2.81,2.05l1.57,0.47L373.89,165.92z"/>
	<path id="JP-39" fill="#1E3250" stroke="#1E3250" stroke-width="0.5" d="M200.54,317.38l-0.24,1.03l-1.61,0.09l-0.1,3.24
		l-1.14,0.479l1.34,3.21l-2.76-1.56l-1.56,1.03l-1.78-1.221l-1.59,0.88l1.7-3.46l-1.07-0.31l0.16-3.98l-1.03-1.729l1.59,0.75
		l1.93-3.21l2.09-1.09l-1.84-3.261l4.1-0.489l1.23-4.07l2.29-3.31l9.2-2.07l0,0l1.71,1.06l1.81-0.17l1.43,1.22l1.03-1.01l1.35,0.16
		l0.61,3.26l1.97,0.05l0.63,3l2.11,0.22l0,0l-1.88,3.58l-0.65,3.569l-4.8-5.739l-3.68-1.141l-3.15,0.5l-2.55,2.29l-2.19,0.41
		l-0.55,1.07l-1.16-0.29l-0.7,5l-0.76-0.23L200.54,317.38z"/>
	<path id="JP-37" fill="#1E3250" stroke="#1E3250" stroke-width="0.5" d="M213.71,288.54l2.14-1.22l0.18-0.96l3.7,0.78l1.07-1.2
		l0.52,1.71l2.05-0.2l-0.22,1.2l3.71,1.87l0,0l-0.58,1.18l-4.7-0.36l-3.42,2.39l-1.33-0.97l-1.38,0.25l-3.39,2.18l0,0l-1.88-0.74
		l1.01-3.58l-1.45-1.54l1.9,0.72L213.71,288.54z"/>
	<path id="JP-43" fill="#1E3250" stroke="#1E3250" stroke-width="0.5" d="M153.66,339.94l-2.47-1.971l-2.89,1.71l-1.9-1.029l0,0
		l4.13-6.511l-0.56-1.43l0.8-0.19l-0.9-0.55l2.44-2.42l-3.95,0.36l2.73-2.21l0.21-1.87l-3.22-2.76l-0.89-2.23l0,0l2.14,0.08
		l-0.18-1.07l1.62-1.489l1.5,0.17l0.53-1.44l3.16,1.49l0,0l2.88,1.939l0.67-1.479l-0.71-1.95l2.43-0.31l2.09,3.04l0.8,3.88l1.4,1.27
		l0,0l-1.26,0.16l-2.97,5.42l-1.87,1.03l0.01,2.51l1.81,2.601l-1.38,1.649l1.32,2.26l-1.99-0.25l-1.1,1.311L153.66,339.94z
		 M147.64,330.16l-0.59,2.89l-3.5-0.59l-0.26,2.23l-3.56,4.06l-0.4-1.96l-0.73-0.21l1.56-6.27l2.79-0.801l0.35,2.23l2.23-1.53
		L147.64,330.16z M142.47,337.28l0.5-1.3l0.44,2.649l-0.93,1.521l-1.28-1.931l0.14-0.87L142.47,337.28z M148.14,329.33l-0.89,0.11
		l-0.22-0.87l0.96-0.891L148.14,329.33z"/>
	<path id="JP-14" fill="#1E3250" stroke="#1E3250" stroke-width="0.5" d="M315.06,262.06l0.41-1.13l3.45-2.1l0.36-3.31l0,0
		l2.27,1.64l3.04,0.55l1.35,1.89l0.49-2.05l-0.79-0.62l1.47-0.67l2.68,1.27l0.81,1.28l0,0l1.12,0.53l-2.64,1.13l1.17,0.63l-1.32,1.1
		l0.41,2.28l2.03,1.01l-1.79,1.7l0.41,1.11l-1.34-0.03l-0.76-3.68l-2.54-0.62l-4.57,1l-1.16,0.93l-0.8,2.44l0,0l-1.52-0.21
		l-0.83-1.22l0.26-4.63L315.06,262.06z"/>
	<path id="JP-46" fill="#1E3250" stroke="#1E3250" stroke-width="0.5" d="M144.46,355.54l1.4-4.24l-3.29-4.26l1.13-2.7l-0.91-2.49
		l0.57-1.08l-0.72-0.579l1.05-0.971l2.28,0.37l0.44-0.96l0,0l1.9,1.03l2.89-1.71l2.47,1.97l0,0l-0.48,1l3.72,3.641l-0.15,2.21
		l2.03,0.59l1.32,3.35l0.5-0.58l2.14,0.82l0.24,2.38l-0.74,1.38l0,0l-1.17-0.42l-1.68,1.87l-0.08,0.8l1.77,0.61l-0.62,1.14
		l1.09,0.15l-2.28,1.17l-1,2.01l-5.94,3.28l-0.15-1.75l1.8-1.391l1.17-4.659l-2.07-2.94l0.11-1.94l-2.22-0.79l1.72-1.109l0.64,1.45
		l1.06,0.09l1.13-2.061l-0.49-1.1l-2.67-0.78l-0.84,0.67l-1.94,4.511l0.9,4.359l1.97,1.21l-1.55,2.5l-1.37-0.2l-1.14-1.96
		l-4.84,0.061l-0.82-1.72l0.72-0.551l-1.54-1.479l0.54-0.66l1.3,0.99L144.46,355.54z M149.1,377.5l3.41,1.96l-0.38,1.76l-2.55,1.62
		l-1.69-0.28l-1.2-3.029L149.1,377.5z M157.96,374.83l-0.18-2.061l2.33-3.909l0.44,3.29l-2.29,4.92l0.38,1.859l-2.15,1.25
		l-0.48-2.81L157.96,374.83z M133.83,350.48l-0.77,0.47l-0.54-0.86l2.51-3.05L133.83,350.48z M135.99,345.98l0.03-1.04l1.89,0.75
		l-0.94,0.899L135.99,345.98z M143.81,377.34l0.68,0.76l-1.07,0.32l-1.34-1.55L143.81,377.34z"/>
	<path id="JP-26" fill="#1E3250" stroke="#1E3250" stroke-width="0.5" d="M245.18,270.62l0.25-2l-1.83-0.31l-0.26-0.8l-1.79,0.08
		l-0.63-2.15l-1.79,0.44l-2.81-1.75l0.35-2.26l1.14,0.55l0.91-0.52l0.01-2.63l-2.38-0.06l-1.07-1.41l-0.02-2.02l0,0l1.23,0.28
		l5.66-2.97l1.74,1.88l-2.29,3.67l0.89-0.98l0.61,0.34l-0.51,0.72l1.6,0.28l0.14,1.38l1.32-0.27l-1.21-1.3l0.85-0.68l1.43-0.7
		l0.42,0.82l0,0l-0.18,2.32l1.44,2.08l4.6,0.52l0,0l1.6,1.83l-0.6,5.54l0.94,3.75l1.44,0.09l1.64,2.32l0,0l0.45,1.2l0,0l-0.92,0.67
		l-1.4-1.04l-1.47,1.21l-1.92-0.52l-0.52-1.22l0,0l0.28-0.62l-2.57-3.98l-0.75-0.02l0.12,1.1l-0.79,0.26l-1.01-1.78l-2.16-0.6
		L245.18,270.62z"/>
	<path id="JP-24" fill="#1E3250" stroke="#1E3250" stroke-width="0.5" d="M271.27,288.59l0.47-1.08l-0.57-0.33l-1.76,2.14
		l-0.64-0.73l-0.51,0.94l-0.78-0.71l0.05,1.18l-4.01,1.15l-0.13,2.25l-0.97-0.44l-0.94,0.67l1.58,1.26l-0.17,1.2l-3.4,2.03
		l-1.77,3.88l0,0l-1.29-0.27l-1.7-1.94l0.07-1.92l0,0l3.14-3.22l1.62,0.25l-0.15-4.03l0.73-1.36l-0.69-1.15l0.67-0.36l-1.16-1.85
		l0.5-0.95l2.18-0.32l0.39-0.94l-1.41-1.7l-2.12-0.64l0.76-2.12l-0.8-1.57l0,0l-0.45-1.21l0,0l1.34-0.55l0.4-2.09l2.68,1.03
		l2.33-1.13l1.76-5.9l-0.78-1.57l0,0l0,0l0,0l2.21-0.95l1.7,2.49l1.08,0.12l0,0l1.29,2.78l0,0l-1.68,0.89l-0.1,2.14l-1.93,2.95
		l-0.21,3.9l5.91,2.59l1.8,2.23l-1.13,0.67l0.74,0.48l-0.79,2.46l-2.34-0.21l1.63,0.11l-0.41-0.77L271.27,288.59z"/>
	<path id="JP-04" fill="#1E3250" stroke="#1E3250" stroke-width="0.5" d="M357.32,189.61l-0.41,0.71l0.84,0.74l-1.26,0.75
		l-1.71,3.62l-0.08,5.65l0,0l-1.42,0.09l0.03,2.17l-1.72,0.15l0.32,0.55l-1.84-0.77l-0.65-2.35l-3.47-0.02l-1.51-1.78l-1.13,0.57
		l-1.39-0.66l0,0l-0.06-1.98l2.71-0.56l1.29-2.6l-0.07-2.24l2.6-4.67l-1.32-4.56l1.15,0.03l0.89-3.22l-1.85-2.88l0,0l2.03-0.18
		l2.35-1.74l0,0l0.95-0.14l3.2,2.21l2.93-0.05l0.13,2.14l1.77,1.01l1.59-1.75l2.45,1l1.22-5.45l2.61,0.62l0,0l0.85,2.85l-1.58-0.75
		l-0.09,1.67l-1.52,1.39l1.02,0.68l-0.05,1.21l-0.71-0.64l-1.61,1.11l-0.03,0.72l1.72,0.21l-1.32,1.36l0.64,1.23l1.08,0.19
		l-0.29,0.95l-0.82-0.54v1.65l-0.93-0.02l0.47,1.25l1.33-0.16l-0.63,0.41l0.34,2.78l-2.13-1.85l0.83-0.67l-0.54-0.64l-1.13,0.38
		l-0.44-0.77l-2.53,0.39l-1.67,1.93l-0.07-1.38L357.32,189.61z"/>
	<path id="JP-45" fill="#1E3250" stroke="#1E3250" stroke-width="0.5" d="M168.94,341.18l-1.16,4.83l0.83,1.17l-0.5,3.58l-1.69,2.54
		l-0.55,3.54l-1.9-0.35l-0.68-1.51l-1.05-0.261l0,0l0.74-1.38l-0.24-2.38l-2.14-0.82l-0.5,0.58l-1.32-3.35l-2.03-0.59l0.15-2.21
		l-3.72-3.641l0.48-1l0,0l4.42-0.31l1.1-1.311l1.99,0.25l-1.32-2.26l1.38-1.649l-1.81-2.601l-0.01-2.51l1.87-1.03l2.97-5.42
		l1.26-0.16l0,0l0.87,0.59l2.02-0.699l1.74,1.92l2.75-0.42l1.44-1.471l1.64,0.62l-0.26,1.561l0.56,0.01l0,0l-3.87,4.57l0.95,1.159
		l-1.55,0.721l0.78,0.899l-0.92,0.36l-1.17,2.78L168.94,341.18z"/>
	<path id="JP-15" fill="#1E3250" stroke="#1E3250" stroke-width="0.5" d="M301.12,218.98l6.73-5.17l3.82-5.61l2.29-5.71l8.15-4.67
		l1.75-1.88l1.65-3.59l0.13-3.88l1.85-3.75l0,0l3.29,1.28l-0.15,2.29l0.8,1.13l2.99,1.71l-0.79,1.59l-1.37,0.86l-1.58-0.22
		l-0.52,0.82l0.17,2.88l-1.28,3.68l2.2,2.11l0,0l-3.69,4.3l0.67,3.39l-2.97-0.03l-0.73,1.35l-3.38,0.29l-0.57,0.92l0.53,1.76
		l-1.17,2.55l1.74,1.89l-0.28,5.21l0,0l-2.8-2.72l-0.95,1.68l-1.63,0.28l0.27,1.93l-0.94,0.15l-0.04,1.39l-2.13,0.59l-0.69,1.67
		l-1.81,0.02l0,0l-0.07-2.76l-2.01-1.54l-0.46-2.49l-0.81-0.23l-2.56,0.81l-1.92,2.1l-0.26,1.65l-1.39-0.64l-3.18,1.74l-0.95-0.69
		l0.19-1.85l-2.88-0.3l0.08,1.29l-2.15,2.36l0,0l-1-4.25l-1.52-1.06l0,0l5.42-1.98l3.59-2.74L301.12,218.98z M306.12,194.21
		l-0.4,2.32l2.5-0.1l-1.42,3.93l-2.75,2.23l-2.84,0.51l2.68-4.62l-1.38-0.26l-0.97,0.81l0.15-2.76l1.68-2.84l2.17-1.55l0.46-1.54
		l1.09-0.26L306.12,194.21z"/>
	<path id="JP-20" fill="#1E3250" stroke="#1E3250" stroke-width="0.5" d="M288.36,264.81l0.83-1.18l-0.26-1.27l0.87-0.29l-0.71-0.98
		l0.65-1.61l-1.64-0.22l-0.2-3.38l-1.58-2.49l-2.61-1.28l1.05-1.85l1.9-0.09l2.33-2.84l0.39-1.57l-1.17-1.56l1.9-4.37l-1.25-1.7l0,0
		l2.3-3.12l-0.22-1.22l1.18-0.7l0.2-4.18l0,0l2.15-2.36l-0.08-1.29l2.87,0.3l-0.18,1.86l0.95,0.69l3.18-1.74l1.38,0.64l0.26-1.65
		l1.92-2.1l2.57-0.81l0.81,0.23l0.46,2.49l2.01,1.54l0.07,2.76l0,0l-3.34,1.19l-0.01,1.09l-1.92,1.34l-0.58,2.65l0.06,1.3l1.25,0.74
		l3.49-0.24l0.22,2.63l-1.03,0.68l0.62,2.36l-1.07,0.32l1.37,1.51l0.05,2.12l1.33,0.62l0,0l0.22,2.03l0,0l-2.1,0.94l-0.54-1.14
		l-2.46,0.47l-0.47-1.2l-1.43-0.58l-1.77,2.71l-0.92-0.5l-0.97,1.97l0.88,0.86l-1,1.1l0.73,1.77l0,0l-1.5,2.15l-0.01,4.45
		l-6.39,3.76l0,0l-2.61-0.43l-2.11,0.82L288.36,264.81z"/>
	<path id="JP-29" fill="#1E3250" stroke="#1E3250" stroke-width="0.5" d="M258.47,277.9l0.8,1.57l-0.76,2.12l2.11,0.64l1.41,1.7
		l-0.39,0.95l-2.18,0.32l-0.5,0.95l1.15,1.85l-0.66,0.36l0.69,1.16l-0.72,1.36l0.14,4.03l-1.62-0.25l-3.13,3.22l0,0l-4.48,0.6
		l-0.59-0.7l0.71-1.83l-1.82-2.74l1.87-2.74l1.74-0.5l-1.7-3.55l0,0l0.8-1.47l-0.63-3.84l1.53-4.11l0,0l0.52,1.22l1.92,0.52
		l1.47-1.21l1.4,1.04L258.47,277.9z"/>
	<path id="JP-42" fill="#1E3250" stroke="#1E3250" stroke-width="0.5" d="M144.39,321.96l1.43,0.22l0.88,1.71l-0.59,2.7l-3.54,1.92
		l-0.69-2.04l1.47-1.729l-0.54-0.96l-1.86-0.03l-2.61,0.62l-1.13,2.479L134.1,329l1.83-3.83l-1.1-1.979l-0.74,0.31l-0.9-0.87
		l-1.23-2.58l0.62-2.88l0.97-0.27l0.42,1.89l1.65,0.3l-0.53,3l1.17,0.82l0.97-1.13l2.2,0.779l-1.53-1.8l0.01-2.41l-3.79-1.21
		l-0.32-2.01l-1.12,1.49l0.21-1.49l-2.45-1.22l0.85-3.87l0.59,0.46l0.9-0.88l0.12,1.07l2.08-0.45l0.21,0.84l0,0l-0.59,0.99
		l1.08,2.63l2.41,0.479l-0.32,1.75l2.7,2.42l2.8,0.681l0,0l-1.52,1.87l0.85,0.739L144.39,321.96z M126.07,287.66l0.35-1.14
		l-0.56,0.71l-1.82-0.36l2.01-4.09l-0.83-0.89l0.67-1.87l1.44-0.07l1.1-1.31l0.96,0.89l-0.48,2.7l-2.05,2.43l0.92,2.45l-0.88,0.74
		l0.42,0.55l-1.28,0.49l-0.91,3.46l-1.37,1.09l-0.91-0.44l0.76-5.44l0.36,0.91L126.07,287.66z M116.44,325.01l1,2.34l-2.41-0.09
		l0.04,1.67l-0.73-0.8l-2.71-0.12l0.27-0.819l1.17-0.11l-0.28-3.02l1.01,0.72l2-1.13L116.44,325.01z M121.62,317.82l-0.31,1.55
		l1.53-0.62l0.35,0.71l-1.71,1.49l-0.74,2.31l-0.47-3.02l-0.87,0.029l1.11-0.75l1.3-4.409L121.62,317.82z M129.89,310.07l0.6-0.71
		l0.3,1.229l-2.09,3.37l-1.85,1.04l-0.34-0.82l0.82,0.42l0.19-1.979L129.89,310.07z M116.78,322.61l0.83,0.52l-0.43,1.36l-0.75-0.49
		L116.78,322.61z M119.72,322.23l-0.94-0.921l0.71,0.101l-0.18-0.87l0.9,0.82l-0.11,1.229L119.72,322.23z M122.36,312.04l-0.22,1.09
		l-1.14-0.24L122.36,312.04z M118.38,323.63l-1.02-1.8l0.83,0.9l0.55-0.74L118.38,323.63z M127.58,310.23l0.55-1.66v2.09
		L127.58,310.23z M130.91,307.67l-1.55,0.24l1.17-0.93L130.91,307.67z M120.77,314.57l-0.3-0.73l1.03,0.09L120.77,314.57z"/>
	<path id="JP-47" fill="#1E3250" stroke="#1E3250" stroke-width="0.5" d="M96.19,466.71l3.32-2.45l-1.74-0.689l-0.34-2.301l2.4,0.41
		l0.16,1.38l0.92-0.109l3.5-3.57l0.33-1.59l1.17,0.59l0.39,2.04l-1.76,2.62l-1.76,0.03l0.08,1.38l-1.15,0.72l-1.15-0.38l0.33,0.67
		l-2.04,1.83l-2.34,0.12l1.77,3l-1.67-0.75l-1.32,2.79l1.22,0.76l-3.05,2.01l-0.79-2.72l2.42-2.38l-0.85-2.74L96.19,466.71z
		 M131.27,424.58l-1.1,1.43l-1.58,0.221l0.1,1.88l-1.89,1.34l0.21,1.01l-1.64-0.93l-0.42-1.37l-2.74-0.96l1.8-0.45l-0.2-0.64
		l2.44-1.48l3.28-0.7l0.72-1.42l1.55-0.31l0.3,1.39l0.72-1l-0.57-0.93l0.89-0.62l0.52,2.24L131.27,424.58z M19.83,512.37l-1.21,2.24
		l-4.28-1.13l0.83-0.91l0.79,0.63l0.64-2.54L19.83,512.37z M118.99,436l1.33,2.09l-0.97,2.05l-1.03,0.19l-1.12-1.37l-0.03-2.47
		l0.42-1.32l1.44,0.04L118.99,436z M24.36,510.41l1.06-0.13l2.32-3.23l-1.76,3.08l-0.19,2.5L24.1,513l-0.86-0.75l0.62-1.04
		l-1.47-0.38l0.97-1.13L24.36,510.41z M45.7,503.79l0.63,0.09l-0.36-3.53l1.39,2.551l2.31,1.46l-2.86,0.409L45.7,503.79z
		 M112.24,446.9l-1.39,0.779l-0.71-1.319l3.72-1.12L112.24,446.9z M123.92,429.29l0.69-0.34l1.74,1.25l-0.07,0.91h-2.48l-0.8-2.471
		l0.69-0.29L123.92,429.29z M75.6,469.71l-1.16-1l1.45-0.38l0.79,0.92l-0.24,1.2L75.6,469.71z M139.95,424.63l-1.2,1.87l-1.08-0.15
		l0.05-0.729L139.95,424.63z M43.46,502.47l0.52-1.029l1.14,1.1L43.46,502.47z M98.87,453.97l1.4-1.109l-2.06,2.279L98.87,453.97z
		 M96.23,460.76l0.24,0.54l-1.55-0.2L96.23,460.76z M98.63,455.89l0.05,0.99l-0.56-0.59L98.63,455.89z"/>
	<path id="JP-27" fill="#1E3250" stroke="#1E3250" stroke-width="0.5" d="M246.17,283l0.29-2.92l0,0l0.54-1.21l-0.84-4.95l0.91-0.51
		l-2.37-0.95l-0.24-1.57l0.72-0.27l0,0l0.19,0.74l2.16,0.6l1.01,1.78l0.79-0.26l-0.12-1.1l0.75,0.02l2.57,3.98l-0.29,0.62l0,0
		l-1.53,4.1l0.63,3.84l-0.81,1.47l0,0l-10.07,2.64l-0.83-1.01l0,0l2.57-0.85L246.17,283z"/>
	<path id="JP-33" fill="#1E3250" stroke="#1E3250" stroke-width="0.5" d="M218.7,281.93l-1.41,1.09l-0.47,1.72l-4.33-0.55
		l-0.62-0.78l-3.86,1.58l-0.69-0.84l0,0l-1.33-3.39l-0.11-4.41l-1.6-2l0.47-2.8l-1.01-1.22l0,0l0.59-1.09l2.19-0.41l-0.06-1.57
		l1.98-0.16l1.74-3.66l2.97,0.64l1.59,1.65l3.55-2.45l0.04,1.06l2.42,0.63l0.92,2.67l4.41-1.71l0,0l0.12,2.24l-0.92,0.19l-1.81,2.81
		l-0.3,1.82l0.68,0.85l-0.7,1.31l1.8,2.81l0,0l-1.37,0.04l-2.13,2.87L218.7,281.93z M223.96,284.77l0.32-0.65l-1.53,1.49l0.02-1.32
		l-1.88-0.04l0.45-0.86l3.68-1.35l-0.22,3.06L223.96,284.77z"/>
	<path id="JP-44" fill="#1E3250" stroke="#1E3250" stroke-width="0.5" d="M155.94,316.55l0.83-1.63l-1.17-1.53l0.78-1.29
		l-0.58-1.109l1.26-2.471l1.61-1.38l3.81-0.069l0.11-2.15l0,0l4.67,0.6l1.58-2.31l1.68-0.5l2.85,2.48l0.18,2.87l-0.71,1.37
		l-1.37-0.399l0.2,1.16l-1.12,0.689l-1.68-0.38l-0.12,0.71l0.35,1.5l1.5,0.51l1.88-0.81l1.34,0.96l2.96-0.67l-1.86,3.29l1.78-0.181
		l-0.76,1.29l0.99,0.29l0.59-0.68l0.59,0.84l0.63-0.819l0.07,0.8l-1.53,0.239l-0.63,1.66l3.71,1.09l-2.11,0.271l0.78,0.75
		l-0.81,0.76l0.66,0.7l-1.43,1.02l-0.92-0.47l-0.25,1.53l0,0l-0.56-0.01l0.26-1.561l-1.64-0.62l-1.44,1.471l-2.75,0.42l-1.74-1.92
		l-2.02,0.699l-0.87-0.59l0,0l-1.4-1.27l-0.8-3.88l-2.09-3.04l-2.43,0.31l0.71,1.95l-0.67,1.479L155.94,316.55z"/>
	<path id="JP-41" fill="#1E3250" stroke="#1E3250" stroke-width="0.5" d="M135.42,311.26l0.67,0.96l0.64-2.5l-1.75-1.34l0.48-0.81
		l1.01,0.729l-0.26-2.4l1.66,0.14l0.75,2.25l1.37-0.3l0,0l4.66-0.21l3.09,1.95l2.14-0.98l-0.02,2.25l-2.87,2.25l-0.76,2.271l0,0
		l-1.31-0.011l-1.08-1.09l-1.98,2.101l1.41,3.5l0,0l-2.8-0.681l-2.7-2.42l0.32-1.75l-2.41-0.479l-1.08-2.631l0.59-0.989l0,0
		L135.42,311.26z M133.81,302.28l-1.58-1.37l1.21-2.23l1.37,0.5l-0.3,1.58l0.78,0.27L133.81,302.28z M134.05,308.93l0.37-1
		l0.78,0.95l-1.18,0.59L134.05,308.93z"/>
	<path id="JP-25" fill="#1E3250" stroke="#1E3250" stroke-width="0.5" d="M265.76,266.48l0.78,1.58l-1.76,5.9l-2.34,1.13l-2.68-1.03
		l-0.4,2.09l-1.34,0.55l0,0l-1.64-2.32l-1.44-0.09l-0.94-3.75l0.6-5.54l-1.6-1.83l0,0l0.88-1.34l1.57,0.12l1.04-2.76l1.23,0.67
		l2.1-2.07l1.1,0.32l-0.38-3.18l2.48,0.8l0,0l0.92,1.14l-0.12,1.6l1.64,0.5l0.83,3.38l-1.25,3.44L265.76,266.48z"/>
	<path id="JP-32" fill="#1E3250" stroke="#1E3250" stroke-width="0.5" d="M184.79,270.28l2.1-3.06l4.5-2.85l0.54-2.39l-0.87-0.76
		l6.78-1.99l-0.07-0.65l1.17,0.12l1.34-1.6l0.91,1.06l3.65-0.18l-1.62,0.81l1.63,1.67l0,0l-0.31,4.69l-3.1,1.38l0.85,1.11
		l-1.05,2.24l0,0l-5.31-0.61l-2.4,3.33l-2.04,1.26l1.08,1.55l-3.23,1.2l-1.88-0.54l-2.82,0.97l-1.19-0.59l-2.06,2.48l0.55,0.34
		l-0.91,2.8l-1.52,1.49l0.49,0.63l0,0l-1.29,1.16l0.28,1.21l-1.12,1.58l-0.69-0.63l-1.99,0.79l-1.04-1.62l0.55-1.54l-1.87,0.04
		l-0.61-1.65l1.11-1.62l-0.83-2.54l0,0l2.66-0.42l5.23-5.67L184.79,270.28z M202.89,242.95l-0.87-0.56l-0.06-1.85l1.95-1.3
		l2.08,1.79l-0.3,1.5l-1.26,0.17l0.44,0.78L202.89,242.95z M156.87,209.76l0.41,1.32l-0.76,0.88l-1.29-0.54l-0.34-0.96
		L156.87,209.76z M199.93,244.07l-0.65,2.01l-1.17-0.81l0.24,1.34l-1.03-0.64l1.31-1.75L199.93,244.07z M201.07,245.45l-1.32,1.26
		l-0.09-1.63l0.95-0.47L201.07,245.45z M198.48,246.74l1.22,0.88l-1.18-0.16L198.48,246.74z"/>
	<path id="JP-11" fill="#1E3250" stroke="#1E3250" stroke-width="0.5" d="M311.35,249.81l-0.22-2.03l0,0l4.88-3.22l1.53-0.07
		l1.67-3.66l4.82,0.84l1.81,1.34h3.06l0.8-0.76l0,0l0.84,0.41l0,0l0.69,2.85l0.78-0.25l0,0l2.44,5.66l-0.57,1.6l0,0l-2.06-0.49
		l-2.86,1.23l-1.46,0.08l-0.28-0.87l-2.84,0.78l-1.72-1.62l-5.49-1.53l-1.57,1.02l0,0l-1.09,0.29L311.35,249.81z"/>
	<path id="JP-22" fill="#1E3250" stroke="#1E3250" stroke-width="0.5" d="M318.88,274.72l-2.3,3.07l-0.19,2.02l-3.18,1.23
		l-1.72-2.01l0.75-1.54l-0.41-3.07l0.67-0.61l-0.54-1.53l0.49-1.23l2.05,0.16l0.27-0.71l-1.78-1.59l-2.32-0.51l-2.74,0.82
		l-0.72,2.67l-3.07,1.66l-0.62,2.34l-2.75,3.75l0.67,1.65l-4.47-1.58l-10.12-0.3l0,0l0.27-3.55l2.75-1.54l3.73-6.27l-0.2-1.48l0,0
		l6.39-3.76l0.01-4.45l1.5-2.15l0,0l0.94,3.18l-0.28,4.48l2.2,0.35l1.38,3.19l1.96-0.51l-0.4-2.66l0.38-2.32l0.99-0.91l2.05,2.11
		l4.54-1.06l0,0l1.66,0.21l-0.26,4.63l0.83,1.22l1.52,0.21l0,0l-0.81,1.98l1.53,2.41L318.88,274.72z"/>
	<path id="JP-09" fill="#1E3250" stroke="#1E3250" stroke-width="0.5" d="M341.49,224.75l0.58,5.28l-1.32,0.91l0.59,3.76l-1.13,3.03
		l-4.36,0.79l-1.25,1.8l-1.13-0.28l-0.56,1.69l-2.37,0.93l0,0l-0.84-0.41l0,0l-0.8-1.31l-2.83,0.04l-2.12-2.33l2.26-5.12l-3.04-1.35
		l0.49-3.43l1.02-1.41l-1.02-0.44l0.58-1.54l0,0l10.17-5.94l4.81,1.28l1.25,1.91l0.85-0.05L341.49,224.75z"/>
	<path id="JP-13" fill="#1E3250" stroke="#1E3250" stroke-width="0.5" d="M324.39,279.13l-0.82-0.8l0.18-1.89l1.74,1.35l-0.16,1.5
		L324.39,279.13z M322.28,285.28l-0.33,2.29l-0.55-0.92L322.28,285.28z M333.18,256.39l-1.01-0.99l-0.5,0.44l-0.3,1.56l1.02,1.32
		l-1.79,0.09l0,0l-0.81-1.28l-2.68-1.27l-1.47,0.67l0.79,0.62l-0.49,2.05l-1.35-1.89l-3.04-0.55l-2.27-1.64l0,0l-2.1-1.16
		l-1.58-3.24l0,0l1.57-1.02l5.49,1.53l1.72,1.62l2.84-0.78l0.28,0.87l1.46-0.08l2.86-1.229l2.06,0.49l0,0l1.43,3.02l0,0l-0.99,1.27
		L333.18,256.39z M327.8,293.02l-1.45-0.42l-0.22,1.63l1.42-0.22L327.8,293.02z M333.04,317.92l0.29-1.71l-1.91-0.94l0.65,2.061
		L333.04,317.92z M333.04,317.92l0.29-1.71l-1.91-0.94l0.65,2.061L333.04,317.92z"/>
	<path id="JP-36" fill="#1E3250" stroke="#1E3250" stroke-width="0.5" d="M232.42,299.62l-6.51,3.95l-1.79,2.541l0,0l-2.11-0.22
		l-0.63-3l-1.97-0.05l-0.61-3.26l-1.35-0.16l-1.03,1.01l-1.43-1.22l-1.81,0.17l-1.71-1.06l0,0l0.58-3.11l0,0l3.39-2.18l1.38-0.25
		l1.33,0.97l3.42-2.39l4.7,0.36l0.58-1.18l0,0l2.81-0.79l0.75,1.42l-0.63,4.06l0.48,0.53l0.36-0.56l1.4,2.01l-1.52,1.73l2.25,0.25
		L232.42,299.62z"/>
	<path id="JP-31" fill="#1E3250" stroke="#1E3250" stroke-width="0.5" d="M204.84,260.46l1.46,0.29l3.72-1.9l3.24,0.75l7.29-0.63
		l4.83-2.08l0,0l2.82,6.56l0.11,1.59l-2.22,0.89l0,0l-4.41,1.71l-0.92-2.67l-2.42-0.63l-0.04-1.06l-3.55,2.45l-1.59-1.65l-2.97-0.64
		l-1.74,3.66l-1.98,0.16l0.06,1.57l-2.19,0.41l-0.59,1.09l0,0l-2.53-0.45l0,0l1.05-2.24l-0.85-1.11l3.1-1.38L204.84,260.46z"/>
	<path id="JP-16" fill="#1E3250" stroke="#1E3250" stroke-width="0.5" d="M279.57,228.41l4.23,0.54l1.17-1.11l0.7-2.93l4.12-1.31
		l0,0l1.52,1.06l1.01,4.25l0,0l-0.2,4.18l-1.18,0.7l0.22,1.22l-2.3,3.12l0,0l-3.62-0.9l-0.28-0.78l-1.35,0.8l-0.25-0.92l-2.85,0.22
		l-3.72,4.39l-0.42-1.58l-1.52-0.74l-1.64,1.7l0,0l0.47-6.15l-0.65-1.71l1.85-6.8l1.4-1.37l1.97-0.16l0,0l-1.33,2.29L279.57,228.41z
		"/>
	<path id="JP-30" fill="#1E3250" stroke="#1E3250" stroke-width="0.5" d="M254.08,306.89l-1.24,1.87l0.07-1.1l-5.03-1.021
		l-3.54-3.37l1.22-1.09l-4.06-2.43l-0.68-1.41l-1.87-0.06l0.21-2.33l2.06-1.28l-1.86-1.01l0.91-1.47l1.17-0.28l-2.31-3.24l0.49-0.63
		l0,0l0.83,1.01l10.07-2.64l0,0l1.7,3.56l-1.74,0.49l-1.86,2.74l1.82,2.74l-0.71,1.83l0.59,0.71l4.48-0.61l0,0l-0.07,1.92l1.7,1.94
		l1.29,0.27l0,0l-0.48,1.6l-0.96,0.26l0.43,1.48L254.08,306.89z"/>
	<path id="JP-35" fill="#1E3250" stroke="#1E3250" stroke-width="0.5" d="M169.03,294.88l-0.59-0.41l-1.09,1.23l-0.59-0.92
		l-2.49,2.48l-2.18-0.78l0.08-0.79l-2.26-1.28l-2.86,3.04l0.24-3.14l-1.06-1.52l1.43-1.85l-1.31-2.38l0.69-1.53l2.64-0.41
		l-1.53-0.86l0.28-0.82l2.52,0.55l1.09,1.11l4.6-1.06l4.13-5.73l1.69-0.44l0,0l0.83,2.54l-1.11,1.62l0.61,1.65l1.87-0.04l-0.55,1.54
		l1.04,1.62l1.99-0.79l0.69,0.63l1.12-1.58l-0.28-1.21l1.29-1.16l0,0l1.71,5.72l1.61,0.12l0,0l-0.42,5.34l-1.66,1.08l0.26,2.93
		l-0.49-1.07l-5.41-3.33l-0.5,1.15l-0.91-0.2l1.12-1.18l-1.25-0.71l-4.44,1.44L169.03,294.88z M184.17,298.5l-1.42,0.31l-0.64-1.66
		l1.18-0.95l1.36,1.13l3.33-0.72l-1.97,0.95l0.01,1.14l-1.42-0.82L184.17,298.5z"/>
	<path id="JP-19" fill="#1E3250" stroke="#1E3250" stroke-width="0.5" d="M319.27,255.52l-0.36,3.31l-3.45,2.1l-0.4,1.13l0,0
		l-4.54,1.06l-2.05-2.11l-0.99,0.91l-0.38,2.32l0.4,2.66l-1.96,0.51l-1.38-3.19l-2.2-0.35l0.28-4.48l-0.94-3.18l0,0l-0.73-1.77
		l1-1.1l-0.88-0.86l0.97-1.97l0.92,0.5l1.77-2.71l1.43,0.58l0.47,1.2l2.46-0.47l0.54,1.14l2.1-0.94l0,0l3.16,1.6l1.09-0.29l0,0
		l1.57,3.24L319.27,255.52z"/>
	<path id="JP-06" fill="#1E3250" stroke="#1E3250" stroke-width="0.5" d="M341.93,199.04l0.29,4.12l-1.33,1.61l-2.04,0.3l-1.47-1.12
		l-1.23,0.46l-0.97-1.68l-2.51,0.62l-1.42-0.49l0,0l-2.2-2.11l1.28-3.68l-0.17-2.88l0.52-0.82l1.58,0.22l1.37-0.86l0.79-1.59
		l-2.99-1.71l-0.8-1.13l0.15-2.29l-3.29-1.28l0,0l1.17-3.08l2.88-3.01l2.26-8.33l0,0l2.51,0.41l1.35-0.71l0.2,1.17l1.51,0.89
		l5.58,1.53l0.58,1.8l1.77,0.98l0,0l1.85,2.88l-0.89,3.22l-1.15-0.03l1.32,4.56l-2.6,4.67l0.07,2.24l-1.29,2.6l-2.71,0.56
		L341.93,199.04z"/>
</g>
</svg>
