<?xml version="1.0" encoding="utf-8"?>
<!-- Generator: Adobe Illustrator 15.0.0, SVG Export Plug-In . SVG Version: 6.00 Build 0)  -->
<!DOCTYPE svg PUBLIC "-//W3C//DTD SVG 1.1//EN" "http://www.w3.org/Graphics/SVG/1.1/DTD/svg11.dtd">
<svg version="1.1" id="Layer_1" xmlns:amcharts="http://amcharts.com/ammap"
	 xmlns="http://www.w3.org/2000/svg" xmlns:xlink="http://www.w3.org/1999/xlink" x="0px" y="0px" width="826.799px"
	 height="944.75px" viewBox="0 0 826.799 944.75" enable-background="new 0 0 826.799 944.75" xml:space="preserve">
<defs>
	
	
		<amcharts:ammap  projection="mercator" bottomLatitude="29.1850361" leftLongitude="34.95834" topLatitude="33.3746878" rightLongitude="39.301154">
		</amcharts:ammap>
</defs>
<g>
	<path id="JO-AZ" fill="#1E3250" stroke="#1E3250" stroke-width="0.5" d="M517.9,365.75L273.53,275.14l-74.24-4.28l-7.23-13.66
		l-17.45,21.95l8.34,10.82l20.85,20.58l68.82-11.39l19.53,21.62l-12.09,14.64l5.86,10.09l20.53,14.82l18.76-5.57l52.2,53.181
		L517.9,365.75z"/>
	<path id="JO-KA" fill="#1E3250" stroke="#1E3250" stroke-width="0.5" d="M160.28,428.41l-66.4-5.95l-11.31,37.89l7.88,33.11
		l-16.82,38.87l16.47,8.39l9.96-24.27l32.98,5.75l65.11,43.49l30.94-70.311l-7.39-33.09l-55.68-1.35L160.28,428.41z"/>
	<path id="JO-MD" fill="#1E3250" stroke="#1E3250" stroke-width="0.5" d="M160.28,428.41l12.79-22.83l-14.18-29.76l5.1-29.13
		l-23.89,2.06l-37.88,19.32l-8.34,54.39L160.28,428.41z"/>
	<path id="JO-BA" fill="#1E3250" stroke="#1E3250" stroke-width="0.5" d="M126.71,259.99l-13.98-1.42l-0.03,92.2l-10.48,17.301
		l37.88-19.32l-7.29-24.1l50.14-34.68l-8.34-10.82l-37-13.15L126.71,259.99z"/>
	<path id="JO-JA" fill="#1E3250" stroke="#1E3250" stroke-width="0.5" d="M196.94,224.71l-20.59,1.54L137.61,266l37,13.15
		l17.45-21.95l-7.85-14.32L196.94,224.71z"/>
	<path id="JO-AJ" fill="#1E3250" stroke="#1E3250" stroke-width="0.5" d="M176.35,226.25l-10.53-13.76l-36.66,10.17l-2.45,37.33
		l10.9,6.01L176.35,226.25z"/>
	<path id="JO-IR" fill="#1E3250" stroke="#1E3250" stroke-width="0.5" d="M208.85,187.58l-34.26-43.04l-23.19-7.61l-32.37,16.99
		l-6.3,104.65l13.98,1.42l2.45-37.33l36.66-10.17l10.53,13.76l20.59-1.54l-0.4-14.27l13.29,0.69L208.85,187.58z"/>
	<path id="JO-MN" fill="#1E3250" stroke="#1E3250" stroke-width="0.5" d="M206.56,898.62l75.01-62.19l46.31-76.02l136.43-29.94
		l32.641-71.58l61.43-35.84L418.59,462.58l-196.89-0.29l7.39,33.09l-30.94,70.311l-20.71,26.18l-85.23,7.75L64.8,723.56
		l50.02,28.921l31.16,139.449L206.56,898.62z"/>
	<path id="JO-AT" fill="#1E3250" stroke="#1E3250" stroke-width="0.5" d="M198.15,565.69l-65.11-43.49l-32.98-5.75l-9.96,24.27
		l-16.47-8.39L58.32,575.77l33.89,23.851l85.23-7.75L198.15,565.69z"/>
	<path id="JO-AM" fill="#1E3250" stroke="#1E3250" stroke-width="0.5" d="M377.41,407.94l-52.2-53.181l-18.76,5.57l-20.53-14.82
		l-5.86-10.09l12.09-14.64l-19.53-21.62l-68.82,11.39l-20.85-20.58l-50.14,34.68l7.29,24.1l23.89-2.06l-5.1,29.13l14.18,29.76
		l-12.79,22.83l5.74,32.53l55.68,1.35l196.89,0.29L377.41,407.94z"/>
	<path id="JO-MA" fill="#1E3250" stroke="#1E3250" stroke-width="0.5" d="M704.33,0L344.55,231.06l-79.4-13.62l-38.74-32.28
		l-17.56,2.42l0.98,23.55l-13.29-0.69l0.4,14.27l-12.73,18.17l7.85,14.32l7.23,13.66l74.24,4.28L517.9,365.75l221.199-64.6
		l60.46-54.36l-10.35-23.59l-38.09,5.34l-9.311-31.96l14.54-4.71L704.33,0z"/>
	<path id="JO-AQ" fill="#1E3250" stroke="#1E3250" stroke-width="0.5" d="M92.21,599.62L58.32,575.77l-22.8,61.94l0.97,65.37
		L2.37,817.06L0.44,866.62l145.54,25.31L114.82,752.48L64.8,723.56L92.21,599.62z"/>
</g>
</svg>
