<?xml version="1.0" encoding="utf-8"?>
<!-- Generator: Adobe Illustrator 15.0.0, SVG Export Plug-In . SVG Version: 6.00 Build 0)  -->
<!DOCTYPE svg PUBLIC "-//W3C//DTD SVG 1.1//EN" "http://www.w3.org/Graphics/SVG/1.1/DTD/svg11.dtd">
<svg version="1.1" id="Layer_1" xmlns:amcharts="http://amcharts.com/ammap"
	 xmlns="http://www.w3.org/2000/svg" xmlns:xlink="http://www.w3.org/1999/xlink" x="0px" y="0px" width="792px" height="458.5px"
	 viewBox="0 0 792 458.5" enable-background="new 0 0 792 458.5" xml:space="preserve">
<defs>
	
	
		<amcharts:ammap  projection="mercator" bottomLatitude="40.549293" leftLongitude="46.488635" topLatitude="55.432742" rightLongitude="87.315881">
		</amcharts:ammap>
</defs>
<g>
	<path id="KZ-AKM" fill="#1E3250" stroke="#1E3250" stroke-width="0.5" d="M379.52,99.63l3.13,0.19l1.65,3.46l2.9-1.29l3.7-0.57
		l0.14,3.08h6.229l1.971,1.06l2.149,0.27l1.24-0.71l4.11,1.46l-0.221-6.69l4.32-0.12l1.141,1.42l2.77,1.12l2.58,2.18l1.13-1.12
		l-0.5-0.7l0.59-1.03l0.771,0.59l2.43-2.65l-0.22-0.95l-1.19-0.48l-0.43-2.18l2.83,0.061l0.76-1.69l0.83-0.48l2.14,0.29l1.4-3.53
		l2.2-0.92l0.33-1.19l3.72-1.479l-1.65-1.88l1.07,0.22l-0.92-3.19l2.99-2.76l-1.141-1.58l0.69-0.22l0.07-1.36l-0.341-1.11
		l-1.35-0.11l0.25-2.3l-2.17-0.17l-0.61-1.27l-1.069-0.36l-0.091-1.1l-1.399-2.03l0.59-0.91l1.38-0.31l0.04-0.82l0.99-0.75
		l0.51,0.59l0.6-1.19l-0.949,0.06l-0.061-1.65l2.86,0.08l0.439-0.52l-1-2.14l1.5,0.11l0.17-0.81l1.91,0.14l0.09,0.98l2.74-0.2
		l-0.06-1.67l1.91,0.15l0.06,1.39l1.22,0.24l0.23,0.84l0.81,0.21l0.4,2.65l1.34,0.38l0.63-1.46l-1.08-0.23l-0.33-1.54l0.82-0.08
		l0.36-1.63l1.08,0.23l0.46-0.93l0.949-0.06l0.73-0.78l4.22,0.07l0.19,1.54l1.069,0.37l0.221,3.33l-0.471,1.06l0.66,0.33l0.44-0.65
		l2.41,0.61l1.39-0.57l0.17,1.8l-0.84,0.48l0.22,0.85l-0.819,0.07l0.08,0.96l-0.58,0.51l3.8-0.1l0.979-0.47l2.08,3.06l0.29,1.54
		l1.891-0.25l-0.36-2.36l1.76-0.26l0.47-2.71l8.21-0.23l-0.109,2.88l3.14,0.56l0.21,0.58l1.721,0.02l1.729-1.49l1.21-0.17l0.65-1.31
		l1.979,0.05l-0.12,1.229l4.03,4.38l-1.41,3.45l0.62,1.71l-1.24,0.56l0.021,1.1l1.2,2.32l5.67,0.71l4.6-0.35l0.91-2.38l3.75-0.83
		l0.83,0.78l1.81-0.9l2.101-0.02l0.63-0.9l0.66-0.06l0.42,3.4l0.819,0.93l0.54,5.75l2.49-1.06l3.72,1.89l2.641-0.06l0.24,1.28
		l1.449-0.07l1.391,2.67l7.52,0.56l0,0l0.061,0.56l1.02,0.15l0.45,19.96l0.41,0.87l-1.19,0.23l-3.34,2.87l-0.1,5.89l3.56-1.75
		l0.99,2.29l2.29,0.21l1.899,1.09l-2.279,1.79l-1.98-0.561l-4.33,2.83l-0.29,2.22l-2.1,2.48l0,0l-3.33-0.99l-1.26,1.94l-0.561-1.66
		l-0.529,0.19l0.31,0.57L521.2,136l-0.53-0.87l-0.939,0.4l-0.32,1.55l0.85,0.38l1.2,2.67l-0.2,0.63l0.7,0.49l1.04-2.23l3.53,1.28
		l-2.891,2.76l-5.159,1.67l0.689,1.67l-2.75,0.68l-0.79,1.34l-3.14-1.33l-1.141,2.08l-0.77,0.17l0.37,1.09l-1.311,1.53l-2.81,0.17
		l-0.12,1.03l-0.71-0.35l-0.99,0.92l0.55,0.72l-1.409,1.25l2.109,1.43l-1.609,0.84l-2.23-1.439l-0.77,1.2l-1.44,0.48l0.43,2.9
		l-1.3,0.36l0.271,0.94l-2.431-1.85l-4.08,0.43l-0.479,0.979l-1.21-0.4l1.78-2.51l-0.351-1.46l0.59-0.84l-0.77-1l1.33-1.79
		l-2.2-1.95l-1.4,0.1l-0.26-1.07l-1.32,0.5l-0.279-0.94l-0.9,0.16l0.04,0.78l-2.91,1.24l-0.55,2.92l-1.39-0.02l-0.63,1.23
		l-1.74-0.19l-1.521,1.26l0.41,0.94l-2.57,1.8l-2.96,0.72l-0.25,6.4l-1.399-2.45l-4.19,1.88l1.21,3.07l-0.62,1.22l-2.149,0.29
		l-4.36,2.52l-1.2-0.62l0.08-2.17l1.73-2.52l-0.41-0.93l-0.91,0.3l-0.59-1.72l-6.05,1.75l-3.54,0.32l0.47-2.51l-1.13-0.1l-1.3-2.43
		l-1.101,1.06l-0.359-1.7l-2.641,1.44l0.69,2.24l-1.6,1.01l-1.44-0.76l0.13,2.95l-1.34-0.62l-2.5,1.32l-2.521-1.61l-1.13-0.09
		l-0.319-0.79l-1.561,0.51l-0.67-1.2l1.391-1.55l0.81-3.78l0.86-1.34l-0.431-2.61l0.94-0.57l0.27-6.81l-6.029,0.17l-0.601,1.11
		l-2.37,0.85l-4.22,3.17l-1.83-1.43l-3.899,0.37l1.3,1.76l0.14,1.69l0,0l-2.31,1.76l-8.471,1.1l-4.58,2.91l-2.76-4.27l2.16-1.28
		l-1.27-3.16l-1.671-0.61l-4.81,1.4l-5.18-1.84l-1.54-1.11l-2.41,0.64l-1.01-4.06l-1.49,0.7l-0.64-0.55l-0.94,0.46l0.04-1.16
		l-0.68,0.61l-0.17-2.47l-3.64-2.14l-1.21,3.95l-3.87,0.44l-0.74-1.59l1.28-6.04l-4.14-4.01l1.1-0.99l-1.67-2.18l2.77-2.47
		l-0.92-0.71l1.64-4.77l-1.77-3.67l-2.43-0.13l-0.98-3.37l3.38,0.33l5.1-2.62l1.66-8.54l2.38-1.99L379.52,99.63z"/>
	<path id="KZ-AKT" fill="#1E3250" stroke="#1E3250" stroke-width="0.5" d="M243.03,289.96l-4.65,1.95l-1.82,3.21l-0.86,4.06
		l-0.85,0.43l-0.69,1.9l-35.96,11.11l0,0l-2.79-20.57l-1.75-4.85l0,0l-1.6-3.13l0.36-1.18l-2.29-2.96l-0.24-3.7l-15.36-5.04
		l-5.83-5.87l-1.21-4.7l-2.9-3.66l2.27-16.26l-1.32-2.25l-0.43-5.41l-3.03-3.39l0.7-2.66l-1.82-5.9l0.64-4.64l0.57-0.45l-0.09-4.69
		l-3.49-0.3l-0.01-1.24l-1.46-1.06l-0.64,1.08l-1.27-0.33l-0.42,4.28l-7.92-1.29l0.78-1.98l-0.83-1.89l0.56-1.7l-1.35-6.85
		l-1.02-0.24l-0.88,2.26l-1.19-0.59l0.29-0.79l-2.36-1.07l-1.54-1.42l0,0l-0.18-2.77l1.28-4.37l-0.68-1.56l1.21,0.6l0.79-2.02
		l1.5-1.35l1.9,0.01l0.35-1.45l4.06,0.25l1.91-1.13l-0.45-0.83l1.76-2.77h2.15l-1.14-1.39l1.87-3.29l0.8-2.65l-0.25-1.52l-2.29-1.67
		l0.29-4.68l-1.46-2.03l2.07-2.2l-0.33-0.87l2.45-2.92l-0.3-0.43l0,0l0.96,0.27l2.21-2.8l-1.42-5.38l0.99-2.57l2.29,0.33l1.04,1.38
		l0.95-1.13l1.22-0.12l0.37-1.21l0.83-0.41l0.99,0.8l-0.81,2.25l0.7,0.88l5,4.4l2.53-0.34l0.4,0.94l3.62,2.21l0.81-1.26l4.64-2.32
		l3.1-2.3l0.03-2.32l1.07-2.96l3.21,0.7l0.76-1.84l1.53-0.19l-0.19-2.71l0.65-0.74l2.71,3.03l1.84,0.55l0.39-1.03l-0.45-2.25l2-0.11
		l1.4,0.88l1.05-0.67l1.26,0.72l3.12-1.34l0.71,1.6l1.38,0.81l1.14,2.69l3.1,1.59l0.2-1.24l1.61-0.77l0.99,0.01l0.53,0.98l0.82-0.36
		l0.59-6.37l1.24-0.3l1.05,1.14l1.05-0.479l0.36,0.72l1.1,0.35l1.7-1.32l0.32,1.45l1.46,0.34l0.79-1.09l-0.14-0.89l1.51-0.88
		l0.66,0.27l0.88,2.27l2.6-0.06l1.16,0.6l0.75,1.56l-0.73,2.13l0.63,3.5l1.05,0.33l2.45-0.58l0.15,1.96l1.34,0.64l1.02,1.56l6,0.69
		l1.21,0.85l0.46-0.39l1.67,0.4l1.7-0.35l1.23,1.69l-0.47,0.61l0.28,2.13l5.85-2.13l3.32-7.48l1.26-1.12l2.19,0.64l0.24,1.68
		l2.37,2.96l3.1,0.71l6.83,0.27l3.49-0.77l8.13-3.311l0.76-1.2l2.34-12.69l1.63-0.55l0,0l1.29,0.63l1.43-0.63l0.87-1.521l1.36,2.1
		l1.13,5.2l1.58,0.62l1.55-1.82l2.88,1.73v1.2l-0.65,0.11l-0.65,2.25l3.5,3.41l-2.2,1.53l0.38,3.56l2.72-0.85l1.78,9.06l2.57,4.09
		l0.39,1.56l4.23,6.32l0.38,1.56l-0.94,3.3l-3.08-2.53l-3.1,2.75l-0.28,3.2l-3.07,1.87l0.63,3.45l0.63,0.9l-2.29-0.79l-1.65,2.15
		l4.56,7.16l-0.64,0.49l-0.38-0.38l-2.91,0.47l-0.5,1.39l2.52-0.23l1.39,4.81l5.42,5.36l4.2-2.29l2.02,1.8l0.12,1.12l-1.29,1.72
		l0.74,2.51l6.34,2.15l1.13,1.27l3.17,1.2l3.15,2.2l4.19,8l0,0l3.56,6.23l1.77,0.79l-4.31,4.75l-22.92,16.02l0,0l-1.46,0.47
		l-0.85-1.22l-5.59-0.87l0.84-1.94l-5.36-6.82l-2.43,0.37l-4.92-8.05l-11.81,2.72l-6.69,17.89l-8.13-0.67l-0.56,6.16l-5.96,0.49
		l-7.83,7.27L243.03,289.96z"/>
	<path id="KZ-ALM" fill="#1E3250" stroke="#1E3250" stroke-width="0.5" d="M620.48,254.8l3.289,2.65l2.45,0.22l0.95,2.44l8.65-0.97
		l6.1,8.55l9.25-3.23l4.15,1.72l-0.08,2l12.3,6.08l6.04,0.15l1.09,1.66l0,0l2.01-0.74l0,0l1.2,2.16l0.87-1.23l0,0l0.57,0.01
		l-0.73,1.14l0.65,0.14l0,0l1.359,0.54l1.091-1.18l-0.36,0.98l0,0l-0.98,0.73l1.12,0.13l-0.689,0.91l6.439,7.55l0,0l1.521,5.75
		l3.149,3.43l-0.359,5.78l0.71,0.62l2.01-0.72l0,0l2.76,2.12l3.63,1.1l0.521,1.979l-0.74,3.53l-2.06,3.04l-3.49-2.91l-1.04-0.26
		l-5.79,2.18l-1.1-1.439l-1.54,0.12l-0.591-2.8l-1.909-1.65l-1.23,0.35l-2.74,2.17l-0.96,0.16l-0.42-0.51l-0.93,0.88l-0.82-0.32
		l-0.59,0.561l-1.35,0.04l-1.15,0.96l-1.14-0.23l-0.59,1.221l-2.4,0.199l-1.18,1.011l-3.141-1.19l-0.63,1l-1.75,0.74l-2.64-0.2
		l-1.73,2l-1.41-0.6l-1.739,0.97l-2.65-0.5l0.021,1.07l-0.58-0.101l-4.12,3.33l2.319,0.36l0.57,1.689l0.79,0.431l4.83-1.051
		l0.19,0.681l1-0.15l0.46,0.91l2.29,1.47l0.1,0.721l-2.45,1.359l0.83,1.28l-1.19,3.47l1.45,9.5l1.99,7.94l4.38,10.03l-1.609,4.079
		l1.859,0.32l0.8,3.021l-0.439,0.819l-3.57,0.45l-3.97,2.44l0.3,1.409l1.53,1.211l1.66,0.43l0.38,0.87l-1.721,0.25l-1.97,1.43
		l-2.71-0.03l-0.77,3.261l-0.99,1.79l0.82,2.34l1.319,0.83l-1.31,1.43l0.35,2.87l0.91,0.649l-0.229,0.79l0.47,0.65l-0.17,0.96
		l-0.641,0.37l-0.939-0.271l-1.53,0.67l0.03-1.75l-0.681-1.46l-1.989-1.229l-0.83-1.57l-1.16-0.08l-0.44,0.46l-0.29-0.6l-3.46-0.87
		l-0.939,0.66l-2.061-0.12l-2.939-3.479l-2.71-1.711l-0.8-1.399v-2.01l-1.511,0.35l-0.51,0.8l-0.939-0.97l-1.87,0.04l-4.011-1.46
		l-0.72,0.26l-0.55-0.74l-1.99-0.46l-1.189-0.979l-1.69,0.7l-0.62-0.23l-0.81,0.8l-2.971-0.68l-0.399,0.62l-0.97-0.17l-0.94,0.68
		l-0.729-0.76l-1.03,0.46l-0.62-0.67l-2.35-0.271l-0.58-0.66l-6.5-0.67l-3.69,0.591l-1.63-1.221l-4.79-0.62l-1.61,0.021l-1.76,0.96
		l-0.63,1.08l-4.05-0.36l-0.561,0.79l-2.68,0.62l-1.53-1.42l-4.52,0.25l-2.101-1.18l-2.199,0.59l0,0l-0.351-0.92l-1.01,0.439
		l-1.08-0.68l-1.88,0.21l0,0l-0.22-0.43l1.12-0.34l0,0l0.52-1.061l-5.54-2.12L560,365.9l-0.75-0.33l0.27-1.15l-0.739-0.439
		l0.22-2.261l2.58-3.13l-0.7-1.18l-2.91,0.359l0.29-0.93l-1.76,0.311l-3.28-1.15l-0.01-1.72l4.99-4.391l0.46-1.25l-0.45-1.93
		l1.3-2.15l-0.09-3.34l-2.02-1.38l-1.101-1.49l-1.21-0.17l-2.189-1.75l-4.341-0.47l-3.71-3.55l-0.63-0.99l0.891-3.28l-1.86-3.21
		l-6.24-4.37l-1.14-2.1l-0.16-3.34l-5.45-0.14l-0.35-5.11l5.87,0.43l-1.061-2.79l-0.84-10.2l1.851-3.12l0,0l3.26-6.22l0,0
		l11.649-11.53l11.11-6.39l4.63,0.93l5.94-1.1l6.63,1.17l-0.021,0.82l0,0l1.12,0.3l1.33-1.57l0,0l0.54,1.63l0.6-0.73l1.771,0.64
		l0.61-1.44l6,2.04l-2.101-2.12l1.351-0.25l2.05,1.05l1.93-0.27l1.94,1.03l0.64,1.64l1.46-0.22l-0.03-1.78l5.891-0.66l-0.84-14.68
		l0,0l0.529-0.98l5.021,1.12l2.85-3.2l2.48,2.61l0,0l3.13-3.99L620.48,254.8z"/>
	<path id="KZ-ATY" fill="#1E3250" stroke="#1E3250" stroke-width="0.5" d="M64.57,283.8l-0.45,0.05l-0.8-1.36l-0.89-3.06l1.36,0.31
		l0.96,1.08l0.33,1.24L64.57,283.8z M139.33,198.18l1.53,1.43l2.36,1.06l-0.29,0.8l1.18,0.59l0.88-2.26l1.02,0.24l1.35,6.85
		l-0.56,1.7l0.82,1.89l-0.77,1.98l7.92,1.29l0.42-4.28l1.27,0.33l0.63-1.08l1.47,1.06v1.24l3.49,0.3l0.09,4.69l-0.57,0.44
		l-0.64,4.64l1.82,5.9l-0.7,2.66l3.03,3.39l0.43,5.41l1.32,2.25l-2.27,16.26l2.9,3.67l1.21,4.7l5.83,5.86l15.36,5.05l0.24,3.7
		l2.29,2.95l-0.36,1.18l1.59,3.13l0,0l-1.74-1.04l-1.52,0.11l-0.91-0.85l-1.34,0.69l-2.06-0.62l-0.51-1.56l-0.86-0.38l-0.99,0.68
		l-2.44-1.01l-0.01-2.43l-0.67-2.01l-0.95-0.13l-1.43,0.98l-1.26-0.78l-2.35-3.33l-4.58,4.54l-2.15-0.3l-7.68,0.8l-3.72,1.45
		l-2.94,0.07l-5.63,1.29l-0.39,0.64l-3-0.37l0.27,1.24l-1.05,2.01l-4.42,3.29l2.04,1.2l-3.23,2.41l-5.04,2.06l-3-0.4l-0.62,1.55
		l-7.07-1.24l0,0l1.05-0.27l-0.74-0.26l-0.05-0.92l0.54-0.79l1.5-0.15l-0.92-0.87l1.05-0.47l-1.29-1.9l1.3-0.71l-2.06-1.79l1.1-0.53
		l-1.04-0.82l0.17-0.73l1.4-0.31l-0.49-1.13l1.16-1.17l0.39,0.45l0.07-0.78l-0.58-0.35l0.83-2.38l1.74-1.47l-0.55-0.36l0.73-0.24
		l-1.64-1.6l0.05-2.54l0.73-0.71l-0.77-0.29l-0.11-2.05l-1.46,0.12l0.57-0.57l-1-0.67l0.29-1.47l-0.52-0.09l-1.42,1.34l-0.88,1.52
		l-0.26-2.06l-1.17,0.18l0.21-1l-1.32-0.91l0.87-0.54l-0.75-1.41l-2.88,0.56l-1.2,1.04l-1.03-0.9l-0.53,2.41l-0.81,0.51l-11.56-3.56
		l0.12,1.08l1.23,1.15l-0.48,1.92l-0.17-1.75l-1.25-1.23l-0.47-1.76l-2.12,1.41l1.01-0.83l0.68-2.06l-1.61,1.35l0.42-1.14
		l-1.11-1.28l-5.07-0.92l-2.79,1.6l-0.15,0.73l-4.51-0.48L84,263.76l-0.64-0.06l-1.41,2.16l-0.56-0.17l0.11-1.14h-0.53l-1.13,1.13
		l-0.9,2.69l-0.55-0.38l0.12-1.07l-0.94,0.52l-0.66-1.89l-1.5,2.57l-0.21-1.14l-0.77,0.32l-1.85,3.63l-0.33-2.35l-1.89,1.8
		l-1.63,2.96l-2.03-0.03l-0.77,1.22l0.1,0.95l-1.1,1.1l-1.37-0.71l0.1,1.38l0.94,0.76l-0.94-0.03l1.03,1.4l-2.19-0.92l-0.51,0.83
		l-0.84-0.28l-0.28,1.67l-1.25-1.47l1.03,2.87l-3.33-2.13l-0.4,0.35l-0.87-1.95l0.83-0.17l-0.86-1.46l-1.44-0.29l2.51,4.79
		l-0.87,0.83l-0.6-0.46L54.71,278l-1.73-1.46l-0.88,0.02l0.45,0.96l0.8,0.02l0.48,1.5l-1.28-0.97L52.9,279l-0.46,0.18l-0.47-1.91
		l-0.84-0.24l1.28,2.68l-7.15-3.47l-0.95-1.69l-2-0.74l-0.66-1.31l-1.55,0.02l-0.29-1.04l-1.22-0.35l0.6-2.13l1.35-1.15l1.47,0.08
		l1.83,2.35l0.96,0.11l2.2-0.26l1.77-2.09l-0.67-1.92l-3.68-4.98l-0.93-2.15l-1.75-4.69l-0.69-4.65l-4.41-0.55l-3.85-7.01
		l-2.52-2.44l-7.08,0.51l-5.41-2.02l-0.61,3.99l-3.5-2.08l-1.58-1.92l0.9-0.61l-2.8-4.71l2.75-1.75l0.71,0.07l0.22-0.58l-2.15-0.77
		l0.19-2.83l-1.75-1.44l0,0l2.94,0.98l2.28-0.12l27.03,3.46l5.38,1.51l9.52,3.77l-0.15-3l6.05,0.33l1.06-0.86l3.27,0.08l3.94-4.04
		l10.68-7.17l1.22-0.03l1.82-1.73l0.8,0.4l1.79-1.1l1.08-3.39l4.02-0.28l2.31-1.06l8.22,1.42l0.52,1.06l-0.67,0.47l-0.15,2.4
		l6.23,1.42l0.69-1.22l0.85-0.12l4.27,2.42l2.09-0.05l1.37-0.83l-0.44-1.44l1.35-5.73l2.35-0.1l-0.3-7.15l1.72,0.76l1.16-2.7
		l1.2,0.58l6.75,0.01l3.01-0.95l-0.51-1.19L139.33,198.18z"/>
	<path id="KZ-KAR" fill="#1E3250" stroke="#1E3250" stroke-width="0.5" d="M528.16,135.5l6.7,2.43l0.08,2.26l0.85,1.31l-1.29,4.95
		l0.11,3.03l-1.04,0.24l-0.53,1.1l0.84,1.3l-1.439,1.36l2.859,3.15l5.67-0.98l1.57-1.32l0.26,0.82l3.181,0.62l1.069,1.34l-1.12,0.87
		l1.29,3.31l1.36-3.41l2.72,2.9l1.12,0.05l1.5,2.58l-0.68,0.4l0.529,1.51l2.24,0.89l0.32,1.21l-0.66,0.28l0.29,0.56l-3.9,1.17
		l0.03,0.65l-1.24,0.83l0.67,2.29l1.25-0.06l0.37,0.83l1.95-0.58l4.021-2.93l0.939-1.26l5.7,0.19l0.96-1.37l0.93-0.36l0.86,0.92
		l6.83-1.88l2.52,1.48l0.92-0.22l0.9-2.42l0.45,0.34l1.53-0.88l2.189-0.24l2.18,1.3l0.73-1.28l-0.12-2.99l1.21-4.82l2-1.95
		l3.75-0.97l3.44,3.64l4.06,0.16l3.2,2.05l1.15,4.09l-1.551,2.13l2.24,1.6l0,0l-0.439,1.71l-2.86,2.38l-1.53,2.13l-3.609,1.86
		l-1.771,0.05l-0.54,2.31l0.59,0.88l-0.45,1.82l0.511,1.37l-2.13,4.29l-9.65,4.07l-0.29,1.71l1.56,1.79l-0.05,1l1.641,0.54
		l2.92,2.41l0.05,1.88l3.45,2.87l-1.86,0.79l-0.4-0.57l-1.619,0.84l-0.28,3.07l1.37,2.73l7.96-1.31l0.8,2.38l-0.8,4.44l-3.58,3.68
		l-2.48-0.43l-1.01,0.93l0.22,1.52l-1.54,0.47l0.721,1.48l1.68,0.78l0.271,1.28l3.96,0.2l-0.421,1.03l-1.71,0.07l-0.51,1.5l2.5,2.28
		l1.96-0.15l1.38,1.1l-3.62,1.32l1.16,1.67l-1.33,0.01l-0.18,2.4l-0.96-0.04l-2.13,6.68l0.84,1.35l1.23,5.88l-1.771-0.78l-1.84,0.29
		l0.1,2.19l-0.83,2.02l-1.529,0.58l1.739,0.9l1.011,1.72l1.89,1.4l2.89,1.08l0.94-2.59l1.21-0.75l2.29,1.12l1.94-0.87l0,0
		l0.84,14.68l-5.891,0.66l0.03,1.78l-1.46,0.22l-0.64-1.64l-1.94-1.03l-1.93,0.27l-2.05-1.05l-1.351,0.25l2.101,2.12l-6-2.04
		l-0.61,1.44l-1.771-0.64l-0.6,0.73l-0.54-1.63l0,0l-1.33,1.57l-1.12-0.3l0,0l0.021-0.82l-6.63-1.17l-5.94,1.1l-4.63-0.93
		l-11.11,6.39l-11.649,11.53l0,0l-1.7,2.81l0,0l-32.12-0.37l-18.61,0.69l-46.55,0.21l0,0l-36.76-0.58l0,0l-0.31-2.7l-0.94-0.28
		l-7.71,0.43l-25.37-6.89l-3.59-2l-3.54-4l-4.05-0.35l-9.77-5.26l-2-0.06l-9.75-3.81l-0.85-0.86l-1.88,1.16l-5.76-3.23l-2.58,0.2
		l-5.25-4.16l-8.03,1.49l5.35-4.18l0,0l22.92-16.02l4.31-4.75l-1.77-0.79l-3.56-6.23l0,0l5.49-4.99l-1.08-3.48l7.25-1.6l-1.49-1.91
		l0.67-1.08l-0.73-1.77l4.12,0.16l1-7.53l14.99,2.48l1.44-0.81l1.41,0.19l2.21-0.78l1.29-3.17l6.05-0.22l5.84-6.44l2.96-0.35
		l1.26-4.43l2.55,0.26l1.04-2.58l2.97-2.71l4.1-2.4l10.79-12.97l-0.91-1.84l0.55-0.6l-0.68-1.32l0.69-0.85l3.239-0.42l3.57-1.53
		l1.36-1.18l1.729-2.69l-0.33-0.8l-2.1-1.18l-0.09-0.64l-1.11-0.72l0,0l-0.14-1.69l-1.3-1.76l3.899-0.37l1.83,1.43l4.22-3.17
		l2.37-0.85l0.601-1.11l6.029-0.17l-0.27,6.81l-0.94,0.57l0.431,2.61l-0.86,1.34l-0.81,3.78l-1.391,1.55l0.67,1.2l1.561-0.51
		l0.319,0.79l1.13,0.09l2.521,1.61l2.5-1.32l1.34,0.62l-0.13-2.95l1.44,0.76l1.6-1.01l-0.69-2.24l2.641-1.44l0.359,1.7l1.101-1.06
		l1.3,2.43l1.13,0.1l-0.47,2.51l3.54-0.32l6.05-1.75l0.59,1.72l0.91-0.3l0.41,0.93l-1.73,2.52l-0.08,2.17l1.2,0.62l4.36-2.52
		l2.149-0.29l0.62-1.22l-1.21-3.07l4.19-1.88l1.399,2.45l0.25-6.4l2.96-0.72l2.57-1.8l-0.41-0.94l1.521-1.26l1.74,0.19l0.63-1.23
		l1.39,0.02l0.55-2.92l2.91-1.24l-0.04-0.78l0.9-0.16l0.279,0.94l1.32-0.5l0.26,1.07l1.4-0.1l2.2,1.95l-1.33,1.79l0.77,1l-0.59,0.84
		l0.351,1.46l-1.78,2.51l1.21,0.4l0.479-0.979l4.08-0.43l2.431,1.85l-0.271-0.94l1.3-0.36l-0.43-2.9l1.44-0.48l0.77-1.2l2.23,1.439
		l1.609-0.84l-2.109-1.43l1.409-1.25l-0.55-0.72l0.99-0.92l0.71,0.35l0.12-1.03l2.81-0.17l1.311-1.53l-0.37-1.09l0.77-0.17
		l1.141-2.08l3.14,1.33l0.79-1.34l2.75-0.68l-0.689-1.67l5.159-1.67l2.891-2.76l-3.53-1.28l-1.04,2.23l-0.7-0.49l0.2-0.63l-1.2-2.67
		l-0.85-0.38l0.32-1.55l0.939-0.4l0.53,0.87l1.59-0.45l-0.31-0.57l0.529-0.19l0.561,1.66l1.26-1.94L528.16,135.5z"/>
	<path id="KZ-KUS" fill="#1E3250" stroke="#1E3250" stroke-width="0.5" d="M378.17,27.55l2.24-0.61l0,0l1.41,4.39l-0.56,0.8
		l2.21,6.08l-3.73,1.33l3.67,2.3l1.36,0.13l1.06,2.811l-7.39,3.38l2.03,6.52l2.49-0.54L383,59.4l-2.45,2.73l0.85,2.54l3.28,0.35
		l0.2,8.66l2.93,1.83l-0.49,2.16l-2.85-0.6l-1.27,1.01l-2.05-0.14l-0.86,1.04l0.7,3.18l0.96,0.06l0.16,3l-0.41-0.03l0.13,3.67
		l-2.07,0.54l-0.24,10.23l0,0l-0.14,7.48L377,109.1l-1.66,8.54l-5.1,2.62l-3.38-0.33l0.98,3.37l2.43,0.13l1.77,3.67l-1.64,4.77
		l0.92,0.71l-2.77,2.47l1.67,2.18l-1.1,0.99l4.14,4.01l-1.28,6.04l0.74,1.59l3.87-0.44l1.21-3.95l3.64,2.14l0.17,2.47l0.68-0.61
		l-0.04,1.16l0.94-0.46l0.64,0.55l1.49-0.7l1.01,4.06l2.41-0.64l1.54,1.11l5.18,1.84l4.81-1.4l1.671,0.61l1.27,3.16l-2.16,1.28
		l2.76,4.27l4.58-2.91l8.471-1.1l2.31-1.76l0,0l1.11,0.72l0.09,0.64l2.1,1.18l0.33,0.8l-1.729,2.69l-1.36,1.18l-3.57,1.53
		l-3.239,0.42l-0.69,0.85l0.68,1.32l-0.55,0.6l0.91,1.84l-10.79,12.97l-4.1,2.4l-2.97,2.71l-1.04,2.58l-2.55-0.26l-1.26,4.43
		l-2.96,0.35l-5.84,6.44l-6.05,0.22l-1.29,3.17l-2.21,0.78l-1.41-0.19l-1.44,0.81l-14.99-2.48l-1,7.53l-4.12-0.16l0.73,1.77
		l-0.67,1.08l1.49,1.91l-7.25,1.6l1.08,3.48l-5.49,4.99l0,0l-4.19-8l-3.15-2.2l-3.17-1.2l-1.13-1.27l-6.34-2.15l-0.74-2.51
		l1.29-1.72l-0.12-1.12l-2.02-1.8l-4.2,2.29l-5.42-5.36l-1.39-4.81l-2.52,0.23l0.5-1.39l2.91-0.47l0.38,0.38l0.64-0.49l-4.56-7.16
		l1.65-2.15l2.29,0.79l-0.63-0.9l-0.63-3.45l3.07-1.87l0.28-3.2l3.1-2.75l3.08,2.53l0.94-3.3l-0.38-1.56l-4.23-6.32l-0.39-1.56
		l-2.57-4.09l-1.78-9.06l-2.72,0.85l-0.38-3.56l2.2-1.53l-3.5-3.41l0.65-2.25l0.65-0.11v-1.2l-2.88-1.73l-1.55,1.82l-1.58-0.62
		l-1.13-5.2l-1.36-2.1l-0.87,1.521l-1.43,0.63l-1.29-0.63l0,0l-2.29-2.37l-1.35-2.71l-0.62-0.17l-1.94,1.04l-3.3-1.77l-3.46-0.26
		l-1.43-2.44l-0.19-2.09l-5.9-0.11l-2.4-0.76l-1.96-1.86l2.32-2.32l0.18-0.82l-2.24-0.46l-4.33-2.83l0.05,1.21l-0.82-0.05
		l-1.69-2.04l0.23-1.85l3.99-0.67l4.49-4.52l4.25-0.42l1.42-1.979l3.28-1.33l2.09-2.03l-1.8-3.8l-0.1-1.46l-2.42-0.44l-0.16-3.229
		l-2.45-1.12l0.28-3.12l2.43-0.69l0.81-1.44l3.45-3.02l-0.95-2.17l1.77,0.31l2.34-1.98l2.61,1.45l1.71-1.55l2.06,0.89l1.47,1.42
		l1.43-1.1l2.19,0.06l0.95-0.5l2.54,1.91l2.51-1.74l-0.52-3.58l-3.58-0.44l-2.46-0.98l-2.56-2.94l-0.88,1.14l-2.02,0.09l-1.06-0.32
		l-1.32-1.4l-2.96-0.2l-1.16-0.74l-0.49-2.93l1.51-1.66l0.43-2.14l2.33,0.33l0.34,0.87l0.96,0.28l2.61-1.38l0.18-0.8l-0.63-1.63
		l-1.03-0.54l-1.71,0.08l-1.15,0.97l-3.85-0.32l-1.04-0.98l-3.64-0.57l0.06-1.64l1.56-0.09l0.8,0.93l0.13-1.87l1.23-0.58l2.09-2.64
		l-0.22-1.17l-1.37-1.59l-2.84-0.54l0.18-1.12l0.73-0.75l2.34-0.24l0.57,1.24l1.35,0.21l0.4-2.04l-0.62-1.11l0.22-0.69l0.97-1.3
		l1.71-0.52l1.29,0.17l0.67,2.13l1.67,0.79l0.61,1.36l0.88-1.9l1.54-0.58l1.05,1.49l1.21-1.59l-0.07,0.76l1.11,0.04l-0.65,1.39
		l2.09,0.66l1.17-0.3l-0.76-2.42l1.36-0.89l2.57,0.75l4.5-0.73l1,0.95l-1.47,1.01l0.55,1.94l2.11,1.21l0.84-2.8l3.99-3.17l0.32-1.15
		l5.92,0.27l0.79-0.63l-0.03-2.01l1.07-0.52l3.81,0.32l7.75-2.81l2.9,0.11l0.69-1.19l0.67,0.98l0.94-1.2l2.05,0.34l2.09-0.77
		l2.75,0.06l0.8-1.13l1.03,0.22l1.81-1.31l2.34-0.3l0.24,1.55l3.99-2.1l2.93,2.7l2.15-0.06l0.34-0.86l-0.98-2.79l0.22-2.43
		l3.04-1.88l2.41,0.27l-0.63-1.46l0.36-0.91l3.19,0.18l2.39,1.16l0.92-0.86l0.72-2.15l2.05-0.64l0.5,0.41l-0.37,2.32L378.17,27.55z"
		/>
	<path id="KZ-KZY" fill="#1E3250" stroke="#1E3250" stroke-width="0.5" d="M244.03,301.63l1.36-1.68l2.58,1l0.36,3.22l-0.59,1.63
		l1,2.811l1.31,1.04l0.34,1.63l-9.64-6.98l0.73-2.67H244.03z M259.84,300.91h-2.07l0.14-3.51l4.89-0.62l2.48,0.28l0.48,1.03
		l3.86,0.41l0.28,0.48h-5.17l-2.76,1.52L259.84,300.91z M300.75,243.17l1.6,3.05l2.42-0.37l5.36,6.82l-0.84,1.94l5.59,0.88
		l0.85,1.22l1.47-0.47l-5.35,4.19l8.03-1.5l5.24,4.17l2.59-0.2l5.76,3.22l1.88-1.16l0.85,0.86l9.75,3.82l2,0.05l9.77,5.26l4.05,0.35
		l3.54,4l3.59,1.99l25.38,6.89l8.64-0.15l0.04,5.01l3.07,2.37l0.59,1.89l-1.73,2.91l-2.029,9.46l3.689,3.061l3.09,1.319l0.12,19.101
		l-0.609,2.22l2.069,2.03l1.181-0.38l2.229,1.25l0.05,0.899l2.23,2.71l5.33,3.811l-1.37,1.359l-0.75-0.609l-2.18,1.54l0.979,2.069
		l-0.229,2.88l-0.83,0.4l-1.92-1.67l0.01,4.22l-1.851,1.891l-0.25,3.09l-1.97,0.56l0.58,2.57l0.83-0.51l-0.31-1.671l1.069-0.609
		l-0.21,1.21l1.13-0.05l-0.34,1.42l0.75,1.8l1.38-0.37l-0.08,0.88l-8.35,4.44l-5.19,1.92l-4.859,3.66l-5.47,5.52l-2.73-1.68
		l-7.85,8.149l-1.69-0.409l-0.15-15.78l-5.28,2.479l-3.42-11.52l-6.93-6.44l-2.4-5.3l-1.08-0.859l-2.02,0.229l-9.63,4.45L327.66,353
		l-26.24,4.99l-1.03-0.69L284.28,338l-0.93-2.96l-9.1-6.57l1.56-1.18l0.95-3.9l-1.27-4.76l-0.77-0.95l-1.18-0.09l-1.77-3.67
		l0.45-5.979l-0.45-1.631l-0.91-0.68l1.04-4.3l-0.73-2.9l-0.95-1.04l-0.14-1.95l1-0.68l1.18-4.37l2.76-0.68l1-2.17l1.81-1.68
		l2.04-0.36l1.4-1.27l3.72-1.81l1.22-2.08l0.25-4.99l-0.75-0.11l-1.07,0.86l-5.67-0.43l-1.92-2.35l0.43-4.7l-2.35-1.28l-2.67,0.11
		l-0.11,0.96l3.31,1.6v1.28l-1.5,1.28l-1.07,0.53l-2.78-1.07v3.1l-0.72,0.51l-0.13-3.61l-0.53-1.07l-0.94-0.94h-1.34l-4.41,2.94
		l-0.8,1.07l-0.12,2l1.71,2.9l1.36,0.59l5.53-0.95l0.54,1.04l2.04,1.09l3.08-2.13l0.18,1.77l1.54,2.58l-0.45,3.44l-2.08,1.31
		l-3.67,0.5l-3.4-2.22l-4.62-0.82l-2.63,2.13l-1.36,0.09l-0.63-0.36l0.36-1.9l-0.5-3.4l-0.77-0.95l-4.44-0.23l-0.63,0.14l0.05,1.09
		l2.63,4.53l-0.36,1.31l0.45,3.44l-0.77,2.27l-1.31-0.05l-0.82,2.4l-0.72,0.59l-0.86-0.32l-3.22,0.5l0.14-2.76l2.31-3.44l-0.82-0.59
		l-0.95-0.5l-1.9,1.54l-1.22,0.09l-2.11-0.78l13.45-17.94l7.83-7.27l5.96-0.49l0.56-6.16l8.14,0.67l6.68-17.89l11.81-2.73
		L300.75,243.17z"/>
	<path id="KZ-MAN" fill="#1E3250" stroke="#1E3250" stroke-width="0.5" d="M79.57,322.29l0.86-0.05l-1.35,1.43l-0.01-2.479
		L79.57,322.29z M81.03,318.84l0.84-0.72l0.51,0.66l-0.03,1.64l0.88,0.45l-1.79,0.189l0.43-0.609l-0.53-0.2l0.23-0.83l-1.48-1.02
		l0.47-0.681l-0.22,0.521L81.03,318.84z M68.88,315.63l1.11,0.54l-1.02,0.14l-0.48,0.641l0.33,2.31l0.68,0.2l-0.24,0.75l0.48,0.69
		l1.16,0.58l1.2-0.351l-0.32,0.97l-2.43-0.88l-0.76-1.21l-0.65-2.189L68.88,315.63z M74.08,315.23l0.78,0.13l0.28,1.979l-1.95,3.4
		l-0.17-2.65l-0.78-1.81L74.08,315.23z M119.05,302.88l0.72-0.15l0.53,1.42l0.26,2.14l-0.71,0.19l0.09,0.359l-0.87-0.26l-1.65-2.5
		l1.12-1.03l-0.3-0.68L119.05,302.88z M122.4,295.73l7.07,1.24l0.62-1.55l3,0.4l5.04-2.06l3.23-2.41l-2.04-1.2l4.42-3.29l1.05-2.01
		l-0.27-1.24l3,0.37l0.39-0.64l5.63-1.29l2.94-0.07l3.72-1.45l7.68-0.8l2.15,0.3l4.58-4.54l2.35,3.33l1.26,0.78l1.43-0.98l0.95,0.13
		l0.67,2.01l0.01,2.43l2.44,1.01l0.99-0.68l0.86,0.38l0.51,1.56l2.06,0.62l1.34-0.69l0.91,0.85l1.52-0.11l1.74,1.04l0,0l1.76,4.85
		l2.78,20.57l0,0l-13.76,4.521l0.05,97.63l-2.58-0.101l-1.14,1.141l-0.84-0.49l-1.88,0.35l-1.16,1.11l-0.79-1.12l-0.59,0.88
		l-1.39-0.67l-4.42-4.8l-3.24-6.37l-2.29-2.89l0.09-2.32l-2.36-2.93l-12.55-8.32l-4.57,0.14l-7.13,1.141l-10.74,4.02l-11.47,9.7
		l0.96-3.71l-1.4-4.53l0.29-2.04l2.61-3.91l2.16-6.489l-0.7-2.13l-1.75-2.21l0.37-0.561l0.15,1.01l1.76,1.801l0.6,1.63l0.74-1.21
		l-0.07-2.75l-1.68-0.7l-0.67,0.28l-0.13-1.62l-2.68-0.79l-2.35,0.1l-1.22,1.14l-1.07-1.75l-0.98-0.5l-2.12,0.091l-3.12,1.05
		l-2.8-5.19l-2.24-2.12l-0.1-1.989l-7.35,0.77l0.9-6.99l-0.59-2.949l-1.39-2.29l-1.12-0.391l-2.56-4.55l-0.73-3.94l-2.36-2.27
		l0.15-1.78l-0.9-2.83l-3.07-1.899l-5.1-0.65l-2.59-1.47l-0.67-1.3l-0.31-5.04l0.79,1.06l0.95-2.76l2.8,0.56l2.63-0.26l0.71,0.57
		l2.02,0.17l1.51-0.82l1.78,0.681l0.94,1.329l0.97,0.11l-0.01,1.021l1.74,1.199l2.07,0.04l1.66-1.8l1.68-0.439l0.08,0.8l0.75,0.52
		l0.66-0.62l1.68,0.23l-0.05-0.66l-1.9-1.1l-3.18,0.229l0.28-1.04l-0.59,0.25l0.04-0.93l-1.63-2.68l-3.61-2.521l-0.49,0.57
		l-1.59-0.37l-0.16-1.89l1.83-2.36l1.84-0.25l2.26-1.99l1.39,0.41l0.1-3.91l1.28-2.62l1.8-1.93l0.94,0.48l2.3-0.25l2.26-1.351
		l0.85-1.29l3.96,1.47l2.05-0.52l4.47,0.12l3.17-0.8l2.57,0.41l1.37,1.62l1.16-0.21l1.94,0.641l-1.32-0.88l0.35-0.381l-0.77-1.77
		l0.17-1l2.99,1.33l1.75,1.62l-1.72-2.43l-1.03-0.05l-1.6-1.19l0.72-1.12l2.11-0.34l-0.42-1.23l-2.1,1.58l-0.17-1.06l-0.6-0.08
		l1.16-1.54l1.75,0.72l-2.04-2.23l0.87-0.53l-0.39-0.5l1.58-0.35L122.4,295.73z"/>
	<path id="KZ-PAV" fill="#1E3250" stroke="#1E3250" stroke-width="0.5" d="M587.72,35.77l1.3,0.19l0.4,1.8l-0.62,0.95l0.061,1.53
		l-1.65,1.38l-0.17,1.08l-1.83,1.13l-0.89-1.14l-3.53-0.25l0.09,1.21l1.29,1.74l0.96,2.85l4.17,4.05l15.681,12.69l6.619,6.57
		l10.341,16.9l9.479,18.17l4.42,7.29l3.69,8.06l0,0l-1.46,0.17l-0.521,3.05l-2.979,0.76l0.52,1.7l-2.51,2.46l-0.54-0.65l-3.89,0.57
		l0.09,1.86l1-0.17l-0.12,2.73l-1.01-0.35l-3.98,2.53l-2.46,0.77l-0.439-1.01l-1.19,0.53l-0.25,1.12l-2.1,1.12l-0.45-0.36
		l-1.66,1.61l2.33,3.37l0.53,3.1l1.479,0.45l2.48,2.6l5.319,3.34l-0.7,6.81l1.841,0.52l0.56,3.96l-1.33,1.38l-3.34,6.07l-2.68,1.23
		l-3.15-0.78l-8.35-3.48l-1.15-2.02l-1.29,0.76l0,0l-2.24-1.6l1.551-2.13l-1.15-4.09l-3.2-2.05l-4.06-0.16l-3.44-3.64l-3.75,0.97
		l-2,1.95l-1.21,4.82l0.12,2.99l-0.73,1.28l-2.18-1.3L581.65,165l-1.53,0.88l-0.45-0.34l-0.9,2.42l-0.92,0.22l-2.52-1.48l-6.83,1.88
		l-0.86-0.92l-0.93,0.36l-0.96,1.37l-5.7-0.19l-0.939,1.26l-4.021,2.93l-1.95,0.58l-0.37-0.83l-1.25,0.06l-0.67-2.29l1.24-0.83
		l-0.03-0.65l3.9-1.17l-0.29-0.56l0.66-0.28l-0.32-1.21l-2.24-0.89l-0.529-1.51l0.68-0.4l-1.5-2.58l-1.12-0.05l-2.72-2.9l-1.36,3.41
		l-1.29-3.31l1.12-0.87l-1.069-1.34l-3.181-0.62l-0.26-0.82l-1.57,1.32l-5.67,0.98l-2.859-3.15l1.439-1.36l-0.84-1.3l0.53-1.1
		l1.04-0.24l-0.11-3.03l1.29-4.95l-0.85-1.31l-0.08-2.26l-6.7-2.43l0,0l2.1-2.48l0.29-2.22l4.33-2.83l1.98,0.561l2.279-1.79
		l-1.899-1.09l-2.29-0.21l-0.99-2.29l-3.56,1.75l0.1-5.89l3.34-2.87l1.19-0.23l-0.41-0.87l-0.45-19.96l-1.02-0.15l-0.061-0.56l0,0
		l-0.109-1.26l-3.631-0.27l-0.989-2.62l0.399-1.189l0.9,1.24l1.42,0.21l0.83,1.78l0.96-0.41l-0.271-3.08l1.24-0.5l-0.189-1.69
		l0.989-0.53l-1.09-2.95l-1.92,0.67l-0.89-0.28l-1.17,3.16l-2.63,0.04l-0.49-2.57l1.38-1.62l-0.64-1.35l-2.15,1.51l-0.47-0.49
		l1.16-0.95l1.85-3.51l-0.13-1.15l2.06-1.79l-0.91-1.42l-1.01,0.68l-0.31-0.75l-1.11,0.41l-0.07,0.7l-2.779,2.43l-0.48-2.89
		l0.45-3.07l1.64,0.8l0.74-0.76l-2.61-4.79l0,0l2.521-2.47l0.33-1.46l1,0.25l0.49-2.12l1.359,0.16l1.721,1.08l1.35-2.03l3.32,0.75
		l-0.2,2.26l1.7,0.16L537.01,61l1.4,0.3l0.77,3.43l2.37,0.89l1.57-3.87l-0.84-0.49l0.58-2.89l3.29,0.54l0.869-2.93l1.66-0.1
		l0.78-1.98l3.29,0.22l0.69,0.95L561.92,49l0.55-1.36l-1.649-2.36l2.58-1.33l1.59,0.54l11.93-5.56l-0.42-1.1l0.55-1.62l4.3,1.03
		l1.99-0.74l1.82,0.04l1.62-2.36l3.8-1.3l0.05,1.01L587.72,35.77z"/>
	<path id="KZ-SEV" fill="#1E3250" stroke="#1E3250" stroke-width="0.5" d="M439.81,1.99l0.74,1.3l3.391-1.05l2.25,0.85l3.47-0.06
		l3.76,1.77l1.55,2.97l2.13,0.53l1.92,1.81l1.311,0.04l1.33-1.3l2.13-0.92l1.45-2.78l3.05,0.76l1.43-1.04l2.3-0.31l0.65,2.31
		l3.12,5.32l0.11,4.35l-0.49,1.87l1,1.64l0.229,2.22l1.521,2.2l1.93,0.5l1.271,1.2l0.02,1.34l-2.02,1.07l-0.091,2.91l0.74,3.45
		l-0.569,2.36l-3.641-0.57l0.15,1.57l1.56,0.86l-0.66,1.99l1.101,1.05l0.7,2l0.939,0.13l1.91-2.22l0.87-0.18l2.86,0.9l0.26,1.57
		l1.359-0.26l1.37,0.46l1.771-1.18l-0.41-1.77l0.81-1.87l4.971,0.86l1.43,1.61l-0.06,0.63l1.51,0.72l0.439-1.72l-2.149-1.48
		l0.85-1.96l-1.729-2.25l1.93-0.23l2.43,1.45l0.25,2.12l0.9,0.57l-0.271,1.65l3.57,1.64l0.06,0.94l-1.189-0.26l-1.26,0.46
		l-0.12,0.54l1.1,1.65l-0.819,2.811l2,1.43l1.43-2.63l3.26,1.32l-1.11-3.19l-2.8-0.01l0.46-2.07l1.101-0.81l7.37,1.18l-0.061,1.47
		l1.26,0.2l0.521,1.7l4.26,1.41l2.18-0.08l0.16-1.13l2.28,1.33l-0.3-1.86l2.319-1.19l0.04-1.07l2.271,0.67l-1.15,6.32l-4.39-0.66
		l-0.65,1.21l0.48,1.05l-2.09,0.6l-0.37,3.51l-1.36,0.22l0.46,1.23l-0.7,2.31l2.98,1.34l-0.41,1.78l1.39,1l0,0l2.61,4.79l-0.74,0.76
		l-1.64-0.8l-0.45,3.07l0.48,2.89l2.779-2.43l0.07-0.7l1.11-0.41l0.31,0.75l1.01-0.68l0.91,1.42l-2.06,1.79l0.13,1.15l-1.85,3.51
		l-1.16,0.95l0.47,0.49l2.15-1.51l0.64,1.35l-1.38,1.62l0.49,2.57l2.63-0.04l1.17-3.16l0.89,0.28l1.92-0.67l1.09,2.95l-0.989,0.53
		l0.189,1.69l-1.24,0.5l0.271,3.08l-0.96,0.41l-0.83-1.78l-1.42-0.21l-0.9-1.24l-0.399,1.189l0.989,2.62l3.631,0.27l0.109,1.26l0,0
		l-7.52-0.56l-1.391-2.67l-1.449,0.07l-0.24-1.28l-2.641,0.06l-3.72-1.89l-2.49,1.06l-0.54-5.75l-0.819-0.93l-0.42-3.4l-0.66,0.06
		l-0.63,0.9l-2.101,0.02l-1.81,0.9l-0.83-0.78l-3.75,0.83l-0.91,2.38l-4.6,0.35l-5.67-0.71l-1.2-2.32l-0.021-1.1l1.24-0.56
		l-0.62-1.71l1.41-3.45l-4.03-4.38l0.12-1.229l-1.979-0.05l-0.65,1.31l-1.21,0.17l-1.729,1.49l-1.721-0.02l-0.21-0.58l-3.14-0.56
		l0.109-2.88l-8.21,0.23l-0.47,2.71l-1.76,0.26l0.36,2.36l-1.891,0.25l-0.29-1.54l-2.08-3.06l-0.979,0.47l-3.8,0.1l0.58-0.51
		l-0.08-0.96l0.819-0.07l-0.22-0.85l0.84-0.48l-0.17-1.8l-1.39,0.57l-2.41-0.61l-0.44,0.65l-0.66-0.33l0.471-1.06l-0.221-3.33
		l-1.069-0.37l-0.19-1.54l-4.22-0.07l-0.73,0.78l-0.949,0.06l-0.46,0.93l-1.08-0.23l-0.36,1.63l-0.82,0.08l0.33,1.54l1.08,0.23
		l-0.63,1.46l-1.34-0.38l-0.4-2.65l-0.81-0.21l-0.23-0.84l-1.22-0.24l-0.06-1.39l-1.91-0.15l0.06,1.67l-2.74,0.2l-0.09-0.98
		l-1.91-0.14l-0.17,0.81l-1.5-0.11l1,2.14l-0.439,0.52l-2.86-0.08l0.061,1.65l0.949-0.06l-0.6,1.19l-0.51-0.59l-0.99,0.75
		l-0.04,0.82l-1.38,0.31l-0.59,0.91l1.399,2.03l0.091,1.1l1.069,0.36l0.61,1.27l2.17,0.17l-0.25,2.3l1.35,0.11l0.341,1.11
		l-0.07,1.36l-0.69,0.22l1.141,1.58l-2.99,2.76l0.92,3.19l-1.07-0.22l1.65,1.88l-3.72,1.479l-0.33,1.19l-2.2,0.92l-1.4,3.53
		l-2.14-0.29l-0.83,0.48l-0.76,1.69l-2.83-0.061l0.43,2.18l1.19,0.48l0.22,0.95l-2.43,2.65l-0.771-0.59l-0.59,1.03l0.5,0.7
		l-1.13,1.12l-2.58-2.18l-2.77-1.12l-1.141-1.42l-4.32,0.12l0.221,6.69l-4.11-1.46l-1.24,0.71l-2.149-0.27l-1.971-1.06h-6.229
		l-0.14-3.08l-3.7,0.57l-2.9,1.29l-1.65-3.46l-3.13-0.19l0,0l0.24-10.23l2.07-0.54l-0.13-3.67l0.41,0.03l-0.16-3l-0.96-0.06
		l-0.7-3.18l0.86-1.04l2.05,0.14l1.27-1.01l2.85,0.6l0.49-2.16l-2.93-1.83l-0.2-8.66l-3.28-0.35l-0.85-2.54L383,59.4l-0.04-5.26
		l-2.49,0.54l-2.03-6.52l7.39-3.38l-1.06-2.811l-1.36-0.13l-3.67-2.3l3.73-1.33l-2.21-6.08l0.56-0.8l-1.41-4.39l0,0l4.77-1.83
		l6.06-1.49l1.52,0.28l1.21-1.36l4.87-0.29l0.79-0.84l3.71-0.72l0.65-1.55l4.63,0.96l1.649-0.49l2.431-1.01l0.59-2l1.44-1.17
		l3.02,1.14l3.46-0.5l0.34-2.18l1.33-1.57l-1.64-1.95l-0.49-2.05l2.2-0.35l1.01,0.67l0.87-0.63l3.7-0.19l0.75,0.44l0.58-2.1
		l1.1-0.98l0.4-2.06l0.8-0.63l4.439,2.4l0.091-1.81l-0.551-0.62l-0.97,0.04l-0.09-1.41L435.73,0l2.06,0.43L439.81,1.99z"/>
	<path id="KZ-VOS" fill="#1E3250" stroke="#1E3250" stroke-width="0.5" d="M641.39,130.1l10.261,20.76l-0.181-2.83l0.44,0.55
		l1.95-0.01l0.14-2.27l0.99-0.64l2.439-0.28l1.03-1.17l0.76-0.01l0.181-3.27l-0.82-1.42l0.09-2.44l3.53-0.03l0.17-1.83l0.78-1.3
		l4.51,1.6l0.109,0.65l2.75,1.41l0.98-1.12l0.44,0.16l0.399,1.78l-1.33,3.39l-0.3,2.88l1.88,0.06l3.19-1.21l1.33,0.021l0.84,2.36
		l-0.42,0.57l1.26,2.07l-0.55,2.16l0.58,0.14l5.51-0.42l0.22-1.3l0.36,0.57l1.34-0.78l2.43,0.35l2.98,1.86l1.08-0.11l1.26-1.02
		l5.2,0.62l3.16-2.22l0.51-3.26l0.78-0.22l3.89,1.04l2.25-2.25l0.34-1.43l1.101,0.41l0.779,1.08l0.88-0.67l2.851,0.3l0.54-0.42
		l-0.25,0.88l3.18,0.78l2.49,1.71l2,0.36l2.939,3.16l0.511,2.24l5.1,6.15l-0.45,1.9l0.92,2.87l-0.43,1.69l1.729,2.36l1.671,0.08
		l1.3-0.86l1.59,1.45l4.95,2.05l0.38,1.14l1.899,0.18l1.28,1.05l0.7,1.6l-0.89,0.22l-0.141,2.25l0.681,0.86l1.72,0.52l1.95,4.7
		l-0.12,2.26l1.54,1.57l2.76,0.78l0.63-0.82l1.91-0.37l2.39,1.39l1.53-0.41l1.42,0.67l1.8-0.18l0.46,0.35l-0.16,1.35l0.87,0.33
		l1.051-0.8l1.39-0.11l1.24,1.65l0.68-0.6l-0.21-0.96l0.87-2.07l3.649-1.66l3.53-3.5l0.101-1.43l3.68,0.01l-0.69,1.8l0.301,0.96
		l-1.641,1.09l-0.58-0.18l-0.92,1.17l0.25,1.78l3.25,1.12l-0.33,0.52l0.75,0.62l-0.2,1.68l1.851,1.05l-0.13,1.89l0.779,1.4
		l1.141,0.17l0.71,1.22l2.95,0.26l1.779,1.31l0.61,3.07l-3.45-1.51l-3.22,1.49l-1.88-0.42l-0.83,1.9l-1.92,1.49l0.069,2.51l1.5,2.54
		l-1.149,1l0.22,2.33l-1.51,2.23l-1,0.41l-0.88,2.39l-3.01,1.42l-0.851-0.45l-1.39,0.26l-2.01,1.91l-3.87-0.4l-3.4,0.69l-2.11,1.73
		l-2.34,6.08l0.03,2.13l-1.36,4.16l1.54,9.55l-0.34,2.52l2.01,4.13l-0.199,4.12l-2.33,1.15l-0.91,3.73l-5.95,0.16l-0.64,1.33
		l-2.33,2.09l-1.83,0.53l-0.26,1.21l-3.03,1.27l-2.15-0.37l1.761-1.94l-1.94-2.73l-3.47,0.76l-1.511-0.92l-4.159,0.3l-3.431,0.98
		l-1.189-0.86l-7.69-1.78l-2.38-2.09l-0.95,0.27l-1.12-1.47l-2.069-0.12l-1.36-1.29l-2.78,0.33l-0.72,4.43l-1.12,1.24l-0.89,3.85
		l-1.61,3.59l-1.64,7.39l-3.33,7.16l-0.91,6.92l-3.81,8.66l-0.65,3.4l0,0l-2.01,0.72l-0.71-0.62l0.359-5.78l-3.149-3.43l-1.521-5.75
		l0,0l-6.439-7.55l0.689-0.91l-1.12-0.13l0.98-0.73l0,0l0.36-0.98l-1.091,1.18l-1.359-0.54l0,0l-0.65-0.14l0.73-1.14l-0.57-0.01l0,0
		l-0.87,1.23l-1.2-2.16l0,0l-2.01,0.74l0,0l-1.09-1.66l-6.04-0.15l-12.3-6.08l0.08-2l-4.15-1.72l-9.25,3.23l-6.1-8.55l-8.65,0.97
		l-0.95-2.44l-2.45-0.22l-3.289-2.65l0,0l-3.28-2.76l-3.13,3.99l0,0l-2.48-2.61l-2.85,3.2l-5.021-1.12l-0.529,0.98l0,0l-1.94,0.87
		l-2.29-1.12l-1.21,0.75l-0.94,2.59l-2.89-1.08l-1.89-1.4l-1.011-1.72l-1.739-0.9l1.529-0.58l0.83-2.02l-0.1-2.19l1.84-0.29
		l1.771,0.78l-1.23-5.88l-0.84-1.35l2.13-6.68l0.96,0.04l0.18-2.4l1.33-0.01l-1.16-1.67l3.62-1.32l-1.38-1.1l-1.96,0.15l-2.5-2.28
		l0.51-1.5l1.71-0.07l0.421-1.03l-3.96-0.2l-0.271-1.28l-1.68-0.78l-0.721-1.48l1.54-0.47l-0.22-1.52l1.01-0.93l2.48,0.43l3.58-3.68
		l0.8-4.44l-0.8-2.38l-7.96,1.31l-1.37-2.73l0.28-3.07l1.619-0.84l0.4,0.57l1.86-0.79l-3.45-2.87l-0.05-1.88l-2.92-2.41l-1.641-0.54
		l0.05-1l-1.56-1.79l0.29-1.71l9.65-4.07l2.13-4.29l-0.511-1.37l0.45-1.82l-0.59-0.88l0.54-2.31l1.771-0.05l3.609-1.86l1.53-2.13
		l2.86-2.38l0.439-1.71l0,0l1.29-0.76l1.15,2.02l8.35,3.48l3.15,0.78l2.68-1.23l3.34-6.07l1.33-1.38l-0.56-3.96l-1.841-0.52
		l0.7-6.81l-5.319-3.34l-2.48-2.6l-1.479-0.45l-0.53-3.1l-2.33-3.37l1.66-1.61l0.45,0.36l2.1-1.12l0.25-1.12l1.19-0.53l0.439,1.01
		l2.46-0.77l3.98-2.53l1.01,0.35l0.12-2.73l-1,0.17l-0.09-1.86l3.89-0.57l0.54,0.65l2.51-2.46l-0.52-1.7l2.979-0.76l0.521-3.05
		l1.46-0.17l0,0L641.39,130.1z"/>
	<path id="KZ-YUZ" fill="#1E3250" stroke="#1E3250" stroke-width="0.5" d="M403.25,290.73l36.76,0.58l0,0l3.521,5.75l4.399,12.5
		l2.4,10.391l1.11,1.58l3.239,20.05l-0.729,0.49l-0.351,2.31l-1.35,2.11l-0.32,3.09l-2.39,6.65l-2.62,3.75l2.04,0.72l-0.54,0.84
		l0.84,2.6l1.49-0.43l-0.22,0.97l1.35-0.21l2.061,1.5l0.6-1.479l0.44,0.04l0.38,1.569l1.75,0.16l0.479,0.7l0.69-0.27l0.479,0.6
		l-0.35,1.17l0.99,0.96l0.72-0.479l0.5,0.38l-0.7,1.239l1.24,0.771l-0.5,0.5l0.66,0.93l-0.2,3.46l0.38,0.471l-0.48,1.26l2.04,1.26
		l1.431-0.08l0.22,0.88l1.15,0.431l0.109,0.859l0.63,0.17l0.801,1.45l1.06,0.2l1.32,2.31l1.55-0.41v1.62l0.84,0.04l1.1,1.601l0,0
		l-0.18,1.97l1.24,0.13l-1.95,1.69l-0.84-0.41l-0.64,0.6l-1.66,2.021l-0.971,2.819l-1.319-0.46l-0.25-1.319l-2.63-1.59l-0.38,1.239
		l-1.33,1.261l0.159,1.529l-1.76,0.9l-1.56,2.51l-1.9,1.07l-0.439,1.029l-0.95-0.579l-0.8,1.8l-1.23,0.5l-1.02-0.57l-4.11,1.58
		l-2.06,2.57l-1.82,0.93l-0.311,0.54l0.521,1.12l-4.311,0.03l-1.869,1.819l-0.48,1.2l-1.08-0.06l-1.71,3.83l-1.6,1.13l-2.84,4.649
		l-1.37,0.8l-0.221-0.68l0.75-0.51l-1.17-0.2l-0.21-0.64l-0.989,0.62l-2.2-0.381l0.01,0.54l1.52,0.101l0.37,0.58l-0.31,4.56
		l3.22,4.71l-1.81,0.721l-1.011-0.07l-0.34,0.47l-2.05-0.6l0.23-0.48l-0.801-0.66l-0.79,0.21l-1.72-1.47l-1.59-0.56l-1.51-1.69
		l-3.45-1.71l-0.6-0.84l0.31-0.96l1.71-0.061l-0.04-2.189l0.62-0.62l-0.58-1.45l1.63-0.84l-1.16-0.63l-2.25,0.88l-3.21-2.979
		l-7.52,0.06l-14.41-1.31l-1.46-16.66l-10.13-1.23l0.52-11.109l3.08,0.609l7.85-8.14l2.73,1.68l5.47-5.52l4.86-3.65l5.19-1.92
		l8.35-4.44l0.08-0.88l-1.38,0.37l-0.75-1.8l0.34-1.42l-1.13,0.05l0.21-1.2l-1.061,0.601l0.311,1.68l-0.83,0.51l-0.58-2.569
		l1.97-0.57l0.24-3.08l1.851-1.9l-0.011-4.22l1.92,1.67l0.83-0.399l0.221-2.881l-0.98-2.06l2.18-1.54l0.75,0.6l1.37-1.359
		l-5.34-3.811l-2.229-2.71l-0.051-0.91l-2.229-1.25l-1.18,0.381l-2.07-2.021l0.62-2.229l-0.12-19.101l-3.09-1.319l-3.69-3.061
		l2.021-9.46l1.739-2.91l-0.59-1.89l-3.069-2.37L403.25,290.73z"/>
	<path id="KZ-ZAP" fill="#1E3250" stroke="#1E3250" stroke-width="0.5" d="M85.32,122.33l2.58-0.15l0.76,0.55l3.98-0.68l0.55,0.83
		l1.23,0.3l0.14,1.23l-0.27,1.49l-2.13,0.32l0.65,1.73l2.98,0.55l1.75-0.88l0.91-1.56l0.39,0.84l0.8-0.01l0.36,0.61l-0.54,1.07
		l0.6,0.36l2.83-1.69l-0.75-2.11l1.96-2.88l1.8,0.12l1.5,0.85l1.56-0.13l1.03-0.93l0.25-1.04l1.7,0.06l1.29-1.52l0.67,0.39l0.4,3.02
		l2.35,3.42l0.19,1.19l0.78,0.53l-0.07,0.85l1.01-0.32l-0.03,0.54l0.62,0.05l-0.2-0.45l0.57,0.11l0.24-0.79l0.56,1.02l-0.14-0.62
		l1.28-0.18l-0.1-0.68l0.46,0.25l0.16-0.83l0.77,0.85l1.54-0.15l-0.47,0.87l1.12-0.71l0.5,1.18l0.48-0.78l0.55,0.26l1.33-0.76
		l1.66,0.3l-0.31-1.06l0.9-0.33l0.04,0.73l1.33,0.14l0.32,0.66l1.88-0.84l2.31,2.31l1.56,0.34l1.09,1.23l-0.05,0.58l-0.56,0.08
		l0.53,0.67l-0.43,1.23l1.34,2.46l1.41,0.72l1.15-0.31l0.8,0.68l0.89-0.33l2.66,1.22l0.5,0.85l1.57,0.76l0.03,1.78l0.4-0.42
		l0.55,0.81l-0.48,0.61l0.3,0.73l2.25,3.43l2.83,0.39l1.35,0.73l-1.74,6.87l1.65,2.55l1.11-0.35l0,0l0.3,0.43l-2.45,2.92l0.33,0.87
		l-2.07,2.2l1.46,2.03l-0.29,4.68l2.29,1.67l0.25,1.52l-0.8,2.65l-1.87,3.29l1.14,1.39h-2.15l-1.76,2.77l0.45,0.83l-1.91,1.13
		l-4.06-0.25l-0.35,1.45l-1.9-0.01l-1.5,1.35l-0.79,2.02l-1.21-0.6l0.68,1.56l-1.28,4.37l0.18,2.77l0,0l-4.4,4.16l0.51,1.19
		l-3.01,0.95l-6.75-0.01l-1.2-0.58l-1.15,2.7l-1.73-0.75l0.3,7.14l-2.34,0.1l-1.36,5.72l0.44,1.44l-1.37,0.83l-2.09,0.05l-4.27-2.42
		l-0.85,0.11l-0.69,1.22l-6.23-1.42l0.15-2.4l0.67-0.47l-0.52-1.06l-8.22-1.42l-2.31,1.06l-4.02,0.28l-1.09,3.39l-1.79,1.1l-0.8-0.4
		l-1.81,1.73l-1.22,0.03l-10.68,7.17l-3.94,4.04l-3.27-0.08l-1.06,0.87l-6.05-0.33l0.15,3l-9.51-3.77l-5.39-1.51l-27.03-3.46
		l-2.28,0.12l-2.94-0.98l0,0l-1.78-2.49l-2.31-0.29L0,219.96l5.56-14.52l3.09-1.92l1.96-3.42l0.27-1.35l-0.6-1.3l-4.64-3.67
		l0.72-6.67l0.77-1.53l0.93-7.57l4.94-1.95l3.32-5.06l-1.4-3.17l1.28-1.31l-0.47-0.53l0.33-2.18l1.71-0.24l0.02-1.15l1.95-2.38
		l0.82-0.2l1.4,0.74l2.34,1.8l0.47,1.19l0.93,0.26l2.51,3.41l0.86,2.1l2.06,1.74l0.64,2.93l1.7,2.55l0.02,1.09l1.82,0.14l1.61,1.6
		l0.58,0.24l0.17-0.93l5.85-2.66l2.77-2.91l-0.5-1.88l-1.88-0.75l0.47-2.1l-1.53-3.32l-1.25-7.66l0.28-0.93l-1.79-2.31l1.45-0.44
		l1.31,1.21l2.41,0.7l2.21-1.78l3-3.81l6.17-2.3l0.02-1.16l-1.72-3.12l1.07-1.79l-0.14-1.26l0.95-1.01l1.62,0.66l1.75-0.5l2.75,0.3
		l3.85-3.69l8.41-3.28l-0.66-1.35l0.75-0.77l-0.44-0.76l2.15-0.19l0.06-1.1h0.93l-0.22-3.06l1.31-2.16l2.89,0.44l-0.99,1.77
		l2.16-0.64l0.31-2.16l-1.07-0.81l0.1-2.42l2.32,0.79L85.32,122.33z"/>
	<path id="KZ-ZHA" fill="#1E3250" stroke="#1E3250" stroke-width="0.5" d="M537.29,290.78l-1.56,3.41l0,0l-1.851,3.12l0.84,10.2
		l1.061,2.79l-5.87-0.43l0.35,5.11l5.45,0.14l0.16,3.34l1.14,2.1l6.24,4.37l1.86,3.21l-0.891,3.28l0.63,0.99l3.71,3.55l4.341,0.47
		l2.189,1.75l1.21,0.17l1.101,1.49l2.02,1.38l0.09,3.34l-1.3,2.15l0.45,1.93l-0.46,1.25l-4.99,4.391l0.01,1.72l3.28,1.15l1.76-0.311
		l-0.29,0.93l2.91-0.359l0.7,1.18l-2.58,3.13l-0.22,2.261l0.739,0.439l-0.27,1.15l0.75,0.33l0.46,1.899l5.54,2.12l-0.52,1.061l0,0
		l-1.12,0.34l0.22,0.43l0,0l1.88-0.21l1.08,0.68l1.01-0.439l0.351,0.92l0,0l-0.83,2.52l-1.061,1.04l-1.99-0.63l-3.609-0.03
		l-2.05-0.899l-2.33,0.39l-3.82-2.59l-1.55-0.44l-0.26-0.699l-1.44-0.61l-1.88,0.3l-2.48-3.37l-2.1-0.979l-0.37-0.67l-2.78-0.561
		l-0.93-0.87L537,364.61l-0.22,1.399l-2.061,0.71l-1.899-0.899l-1.23,2.51l-2.18-0.3l-4.271,2.27l0.061,0.84l-1.19,2.221l0.07,3.27
		l-1.55,4.12l0.29,3.05l1.46,1.88l-0.44,0.771l-2.82-0.47l-0.699-0.58l-0.23-1.49l-3.71-0.771l-3.8,0.011l-1.88-0.86l-1.351-1.87
		l-2.67-1.12l-2.09-0.09l-4.21-1.95l-3.14,0.601l-4.98-2.54l-4.58,1.79l-2.13-1.17l-2.47,0.319l-0.47,0.53l-1.73-0.09l-0.96,2.3
		l-1.03,0.55l-0.18,1.65l-2.41,0.28l-0.609,0.539l1.609,2.23l-0.649,0.77l-1.25-0.819l-0.32,0.27l-1.811,3.811l0,0l-1.1-1.601
		l-0.84-0.04v-1.62l-1.55,0.41l-1.32-2.31l-1.06-0.2l-0.801-1.45l-0.63-0.17l-0.109-0.859l-1.15-0.431l-0.22-0.88l-1.431,0.08
		l-2.04-1.26l0.48-1.26l-0.38-0.471l0.2-3.46l-0.66-0.93l0.5-0.5l-1.24-0.771l0.7-1.239l-0.5-0.38l-0.72,0.479l-0.99-0.96l0.35-1.17
		l-0.479-0.6l-0.69,0.27l-0.479-0.7l-1.75-0.16l-0.38-1.569l-0.44-0.04l-0.6,1.479l-2.061-1.5l-1.35,0.21l0.22-0.97l-1.49,0.43
		l-0.84-2.6l0.54-0.84l-2.04-0.72l2.62-3.75l2.39-6.65l0.32-3.09l1.35-2.11l0.351-2.31l0.729-0.49l-3.239-20.05l-1.11-1.58
		l-2.4-10.391l-4.399-12.5l-3.521-5.75l0,0l46.55-0.21l18.61-0.69L537.29,290.78z"/>
	<path id="KZ-AS" fill="#1E3250" stroke="#1E3250" stroke-width="0.5" d="M277.5,268.61l-0.32,2.99l-0.11,1.71l1.92,2.35l5.67,0.43
		l1.07-0.86l0.75,0.11l-0.25,4.99l-1.22,2.08l-3.72,1.81l-1.4,1.27l-2.04,0.36l-1.81,1.68l0,0l-1,2.17l0,0l-1.54,0.32l-1.22,0.36
		l0,0l-0.23,0.97l-0.95,3.4l-1,0.68l0.09,0.86l0,0l0.05,1.09l0.95,1.04l0.41,1.59l0.32,1.31l0,0l-0.82,3.31l0,0l-0.23,1l0.91,0.68
		l0.45,1.63l-0.45,5.98l1.77,3.67l1.18,0.09l0.77,0.95l1.27,4.76l-0.95,3.9l-1.56,1.18l-23.83-17.2l-0.02,0.011l0,0l-0.34-1.63
		l-1.31-1.04l-1-2.811l0.59-1.63l-0.36-3.22l-2.58-1l-1.36,1.68l0,0h-2.54l-0.73,2.67l0,0l-4.81-3.47l-1.79,0.69l0,0l0.69-1.91
		l0.86-0.43l0.85-4.06l1.82-3.21l4.62-1.94l0.03-0.01l0,0l2.08,0.79l0,0l1.22-0.09l0.41-0.36l1.5-1.18l0.95,0.5l0.82,0.59l0,0
		l-1.18,1.72l0,0l-0.59,0.86l-0.54,0.86l-0.14,2.76l3.22-0.5l0,0l0.86,0.32l0.72-0.59l0.41-1.09l0.41-1.31l1.31,0.05l0.771-2.27
		l-0.45-3.44l0.36-1.31l-2.63-4.53l-0.05-1.09l0.63-0.14l4.44,0.23l0.77,0.95l0,0l0.5,3.4l0,0l-0.36,1.9l0.63,0.36l0,0l1.36-0.09
		l2.63-2.13l4.62,0.82l3.4,2.22l3.67-0.5l2.08-1.31l0.45-3.44l-1.54-2.58l-0.18-1.77l-1.59,1.09l-1.5,1.04l-2.04-1.09l-0.54-1.04
		l-5.53,0.95l-1.36-0.59l-1.71-2.9l0.12-2l0.8-1.07l4.41-2.94h1.34l0,0l0.94,0.94l0.53,1.07l0,0l0.13,3.61l0.72-0.51v-3.1l2.78,1.07
		l1.07-0.53l1.5-1.28V270l-2.25-1.07l-1.07-0.53l0.11-0.96l1.71-0.11h0.96l0,0L277.5,268.61z M261.97,300.5l2.76-1.52h5.17
		l-0.28-0.48l-3.86-0.41l-0.48-1.03l-2.48-0.28l-1.65,0.14l-3.24,0.48l-0.07,1.45l-0.07,2.07h2.07L261.97,300.5z"/>
</g>
</svg>
