<?xml version="1.0" encoding="utf-8"?>
<!-- Generator: Adobe Illustrator 15.0.0, SVG Export Plug-In . SVG Version: 6.00 Build 0)  -->
<!DOCTYPE svg PUBLIC "-//W3C//DTD SVG 1.1//EN" "http://www.w3.org/Graphics/SVG/1.1/DTD/svg11.dtd">
<svg version="1.1" id="Layer_1" xmlns:amcharts="http://amcharts.com/ammap"
	 xmlns="http://www.w3.org/2000/svg" xmlns:xlink="http://www.w3.org/1999/xlink" x="0px" y="0px" width="814.575px"
	 height="413.589px" viewBox="0 0 814.575 413.589" enable-background="new 0 0 814.575 413.589" xml:space="preserve">
<defs>
	
	
		<amcharts:ammap  projection="mercator" bottomLatitude="39.169545" leftLongitude="69.259629" topLatitude="43.256384" rightLongitude="80.288715">
		</amcharts:ammap>
</defs>
<g>
	<path id="KG-B" fill="#1E3250" stroke="#1E3250" stroke-width="0.5" d="M142.21,279.98l3.43,0.46l1.6,2.68l3.48-0.69l7.06,4.45
		l3.25-0.45l2.06,4.91l5.66,0.06l1.2-0.91l0.06-3.08l2.29-0.57l1.43,0.8l1.26,2.91l0.63,2.06l-1.09,2.56l1.89,3.56l4.8-3.77
		l5.34-2.31l0.03-1.58l-1.43-1.03l1.1-1.75l2.96-0.3l4.13,1.98l2.72-2.6l2.91-0.23l-0.27-1.87l0,0l9.84-3.4l2.33,0.75l-0.65,5.31
		l1.49,2.61l-2.7,1.96l4.94,2.42l1.58,2.33v1.3l-2.98,2.61l3.07,1.02l1.3,1.68l-0.84,2.791l1.4,3.069L216,315.03l3.91,0.75
		l2.61,1.68l3.54,6.99l3.26-1.681l1.58,0.65l1.3,1.77l-1.02,1.12l3.73,3.73l0.65,2.51l-1.21,2.61l-8.57,4.29l-2.42,0.279l-2.33,2.79
		l-4.38,1.58l-3.17,0.931l-5.4-1.49l-5.31,1.86l-1.58-1.681l-3.82-0.09l-3.54-2.79l-5.87,0.09l-2.33-1.96l-5.03-1.21l-1.58-2.42
		l-4.01-0.56l-2.89,4l-6.52,1.12l-4.05,8.979l0,0l-2.21-0.84l0.06,1.26l-4.11,0.97l-1.37,2.4l-5.05,0.52l-2.32,4.391l-3.31-1.54
		l-4.11,2.29l-7.04-0.34l-1.14,1.83l-0.51,5.6l-1.6,2h-3.71l-3.88-2.11l-1.83,3.54l-3.48-1.54l-2.11,1.94l-1.83,0.11l-4.86-2.801
		l0.61-5.06l-1.41-1.96l-3.43-1.88l-2.63-5.771l-6.29-1.71l-2.28-2.46l-5.17,2.83l-2.37-0.319L82.74,352l-3.54-1.65l-4.11,5.99
		l-3.43-0.06l-2.74-4.17l-4.23,1.54l-3.43-3.141l-3.11,2.63L56,352.68l-1.82,2.681l-1.43,0.109l-1.2-2.68l-4.91-1.03l-1.66,3.26
		l-1.81,0.811l-5.45-4.18l-5.08-1.71l-4.23,1.369l-3.54-0.859l-4.11,4.399l-7.2,0.91l-4.11-2.46l-0.62,2.51l-1.32,1.08l-1.94-1.54
		l1.14-4.569L4.6,344.5l-0.69-6.28l-2.8-3.51v-3.73L0,328.99l4.86-5.51l-2.29-3.23l1.31-3.83l2.97-3.4l-1.6-2.399l0.51-0.69
		l1.94,2.29l3.2,0.86l1.14,1.77l0.29,4.23l2.57,0.4l1.83-1.57l4-0.141l-3.14-6.34l0.91-9.6l0.8-0.63l3.6,1.49l5.03-2l2.91,0.8
		l1.94-3.14l3.88-2.28l18.31-4.63l5.37,3.14l3.83,3.77l3.2-0.34l1.54,2.86l5.43,0.06l4.28,1.66l0.74,1.77l4.51,2.46l10.4,3.54
		l0.34,2.109l-5.77,4.17l-0.4,3.431l1.54,1.369l0.34-4.51l2.86-0.399l4.34-2.46l1.83-10.601l10.28-2.51l1.09-1.89l-0.23-2.46
		l4.32-0.43l8.02-3.85l0.9-2.34l-1.83-3.08l0.46-1.09l6.4-0.69l3.43-2.11l2.51-3.08L142.21,279.98z M129.08,289.05l-0.73-0.96
		l-0.77,0.96l0.89,2.74L129.08,289.05z M173.93,292.84l-1.9-0.55v1.25l1.65,0.25L173.93,292.84z M126.34,307.64l1.16,1.62
		l4.47,1.311l1,1.35l-1.35,1.7l1.35,2.58l-2.51,2.43l-1.54,3.59l3.35,1.431l0.85-3.431l1.04,0.23l0.39,2.43l3.59-0.5l2.39-2.66
		l-0.54-2.62l-4.97-0.35l-0.08-0.73l1.85-1.46l-1.35-2.31l3.89-2.08l-0.04-1.7l-4.94,1.931l-1.58-6.25l-2.24-1.66l-2.2-6.32
		l-2.16-1.04l-1.04,0.58l0.96,2.24L126.34,307.64z M181.52,315.99l3.63,0.479l0.96-2.189l-5.21-4.32l-0.75,0.89l0.82,2.261
		l-4.04,1.85l-0.27,1.1l2.13,1.851L181.52,315.99z M90.63,324.42l1.94,5.47l3.44-0.75l1.07,1.33l-0.61,3.59l9.55-8.479l-0.43-1.42
		l-1.13-0.23l-5.56,0.78l-7.67-1.51L90.63,324.42z"/>
	<path id="KG-C" fill="#1E3250" stroke="#1E3250" stroke-width="0.5" d="M358.32,1.83h2l2.06,2.68l1.82-0.17l0.58,1.32l3.19,0.8
		l5.6,4.51l2-0.57l6.12,2.34l4.74,6.8l7.82,6.51l6.72-0.8l27.36,13.71l4.46-0.23l12.96,2.46l3.31-0.46l15.54,4.11l3.36-3.98
		l1.46-6.04l1.59-2.03l2.33-1.83l5.48-1.54l2.51,2.34l2.91,0.34l2.109,1.66l7.66-1.66l10.57,1.09l1.2,0.69l0.6,3.91l3.17,0.77
		l9.7-2.79l1.72-2.31l15.011,0.87l1.6-0.97l1.55-3.6l4.05-0.28l1.94-2.06l5.03,0.86l4.79-1.521l2.75,3l3.479-2.14l4.28,0.34
		l1.26,0.35l0.45,2.11l1.96,0.26l2.899,2.29l-6.76,4.83l-1.479,4.77l-1.13,0.57l-13.301,0.91l-11.359,3.18l-4.88-0.68l-6.82,1.59
		L517.77,47l-0.109,2.28l-6.82,0.79L498,59.5l-0.34,2.62l-1.021,0.68l-6.37-0.23l-8.399,3.07l-6.48,0.45l-4.77-1.48l-0.12,5.57
		l-6.36,1.25l-2.38,4.21l-4.89,4.09l-3.98,1.7l-2.72-1.02l-0.46-2.05l-1.02-0.23l-1.7,1.37l-5.46,0.79l-2.61-1.81l-1.14,1.47
		l-5.9,1.25l-5-1.82l-3.18,0.8l-2.28-1.48l-3.06,2.16l-2.841,0.12l-2.279-2.05l-2.271,1.25l-5.109-0.8l-8.75,1.25l4.77,8.18
		l0.46,2.62l-1.03,0.79l-1.81-0.45l-5.46,1.25l-5.11,5.22l-2.84-0.45l-10.52,2.44h-10.91l-1.93,8.98l4.77,3.52l-4.66,3.3l-0.56,1.13
		l0.9,3.41l-0.68,1.7l-2.72,1.37l-0.96,5.51l-5.68,0.23l-4.2,7.38l-1.48-1.7l1.7-4.89l-5.79-0.23l-4.54-5.9l-1.71,1.7l-2.95,0.57
		l-9.53-0.37l0,0L323.5,121l-1.06-0.53l-3.2-0.46l-8.28,1.98l-2.21-0.99l-0.84,0.91l-2.2-0.22l-1.29-1.37l-10.35-1.6l-1.59-1.37
		l-2.06-5.09l-13.31-2.71l0,0l0.13-4.51l-3.25-1.18l-1.37-1.87l0.29-5.12l0.79-0.69l4.33,1.38l4.43-3.84l2.56,0.4l3.54-1.28
		l4.14,1.08l2.65-2.36l4.14-0.3l4.43,1.48l7.38-2.56l1.18-1.38l0.2-3.15l2.76-3.35l0.69-3.93l-2.27-1.58l-2.36,0.89l-1.77-2.96
		l-1.38,0.3l-1.18,5.51l-1.87-0.25l0.13-1.5l-2.68-2.57l-2.63-5.12l-1.2-4.39l0.06-5.37l2-7.36l3.81-6.3l0.75-7.62l-1.41-5.72
		l0.46-2.17l2.62-2.63l0.69-6.62l6.18-2.3l10.22-7.24l2.03,1.31l0.97-1.03l5.45,0.52l2.41-2.43l2.37-6.83l3.31,1.2l3.09,3.08
		l3.02-1.94l8.46-0.91l0.45-1.08l-2.05-3.66l0.45-1.6L358.32,1.83z"/>
	<path id="KG-J" fill="#1E3250" stroke="#1E3250" stroke-width="0.5" d="M216.05,101.01l6.8,1.08l4.72,4.13l3.45-0.979l2.95,2.26
		l1.77-0.19l4.23,2.26l4.73-0.39l5.02,2.46l6.26,4.82l5.02-0.59l0.89-2.95l2.75-1.28l2.17-2.96l2.26,1.38l1.97-1.28l0.79,1.479
		l2.95,0.29l2.33-1l0,0l13.31,2.71l2.06,5.09l1.59,1.37l10.35,1.6l1.29,1.37l2.2,0.22l0.84-0.91l2.21,0.99l8.28-1.98l3.2,0.46
		l1.06,0.53l1.14,4.94l0,0l0.84,0.46l-5.02,6.69l3.8,1.98l2.97-0.91l2.35,2.2l6.47-0.15l1.21,0.91l0.16,4.64l1.82,3.88l6.62,1.75
		l-0.54,3.95l0.99,6.46l-0.91,2.28l-1.14,0.08l-1.52-2.05l0.84-3.2l-2.89-3.04l-6.01-2.28l-1.9,0.61l2.58,6.92l7.11,5.75l6.22-0.14
		l5.01,2.17l2.03-1.36l6.89-0.67l7.17,2.57l2.71-3.38l9.6-1.22l7.31-4.33h3.78l-1.76,4.47l0.41,4.86l-2.3,5.82l-1.08,6.36
		l-4.47,3.52l-3.24,0.13l-2.44,2.16l-5.68,0.82l-4.06,2.7l-6.08,1.35l-0.54,2.03l2.16,3.25l0.68,3.65l-13.93,0.41l-4.2,4.6
		l-4.06,0.67l-0.54,3.11l5.28,4.87v1.49l-3.25,2.57l-2.57,4.73l-1.52-2.02l-7.77-1.82l-0.39-5.77l-1.92-1.68l-0.07-2.46l-2-0.91
		l-1.04,0.19l-1.56,4.86l-5.51,5.45l-1.49,6.35l-4.6-1.69l-4.08-3.95v-1.3l7.78-6.99l-0.78-2.73l-2.14-1.49l-3.43,1.23l1.16,2.47
		l-0.65,1.75l-11.86-1.62l-1.62,1.29l-0.64,2.66l-2.01,0.84l-1.43,2.27l-2.85-0.45l-4.8,0.97l-1.81,4.28l1.1,5.44l-1.49,3.95
		l-3.05,0.52l-2.65,2.81l-9.88-0.87l-4.06,4.67l-3.08-1.14l-4.06-4.91l-7.48,2.68l-11.66-2.45l-0.74-0.58l1.34-3.37l-0.43-2.2
		l-3.88-4.11l-1.83-0.06l-1.06-4.01l-3.34-1.9l-3.2,0.72l-3.11-3.29l-3.86,3.23l-6.68,3.31l-3.43-0.85l-0.2-1.11l2.23-0.39l2.6-2.79
		l-0.04-1.98l-2.79-3.68l0.17-4.8l-1.45-1.01l-2.61,0.23l-3.58,3.4l-5.99-2.7l-3.94,0.57l-3.49-1.77l-1.54-3.6l2.91-3.65l0.8-2.63
		l-2.7-5.58l1.05-0.88l-0.46-1.6l-3.43,0.63l-0.51-2.93l-3.6-6.09l-1.03,0.74l0.29,2.4l-2-2.57l-1.66-0.29l-0.69,0.97l0.75,2.06
		l-0.75,1.03l-1.14-0.52l0.15-2.94l2.42-2.6l0.52-7.37l-1.37-0.05l-2.88,2.12l-1.52,2.79l-2.8,0.97l0.17,1.14h2.34l1.09,1.03
		l-0.23,3.5l-1.18,2.23l0.34,3.02l-1,0.16l-0.73,2.34l-1.49-0.4l-1.2,3.49l-2.19,1.51l-6.86-0.74l-2.17,1.43l0.57,4.28l1.29,1.43
		l-1.91,3.14l2.34,2.97l-3.49,4.69l-1.83-0.86l-0.62-3.54l-1.89-1.26l-2.74,1.2l-0.8,2.69l-1.2-0.12l-0.91-0.91l-0.23-3.86
		l-1.37-0.74l-1.6,0.74l-3.64-1.03l-2.85,1.83l-0.35,1.83l-1.88,0.69l-4.97-3.75l-2.86-0.28l-2.05,1.8l-2.75-0.32l-5.94-6.57
		l-3.06,0.55l-1.85,3.45l-0.57-4.51l-1.32-1.09l1.03-4.94l-0.28-6.37l-4.74-7.59l-2.52-0.58l-6.45,1.55l-4,4.51l-2.29,0.34
		l-2.11-1.03l-0.97-2.75l-5.39-3.13l-1.66-2.74l-1.37,0.46l-3.09-2.4l-3.94,2.45l-4.35-2.25l0.06-3.74l2.46-2.29l0.46-2.97
		l4.34-0.29l4.86-2.17l4.34-5.14l4.28-2.91l2.17,0.05l1.19-2.28l0.12-4.52l4.24-2.36l7.25-9.09l3.09-1.03l2.51,0.4l1.26-1.71
		l3.2,1.43l1.65-0.4l1.46-2.42l-1.12-5.521l1.49-4.74l6.23,2.34l4.11-0.8l0.75-1.54l6.05-3.52l0.74-1.6l4.29-3.02l2.85-0.23
		l2.59-1.63l1.27-4l2.21-1.07l4.82,0.29l4.34,2.07l4.13,0.29l2.36-1.57l8.27-1.38l4.63,1.87l2.85,2.86l10.93,2.46l9.45,4.33
		l3.54,2.65l3.74,0.1l0.89,1.09l3.25-1.19l1.18-1.77v-5.21l2.46-6.89L216.05,101.01z"/>
	<path id="KG-N" fill="#1E3250" stroke="#1E3250" stroke-width="0.5" d="M449.68,79.38l3.29,2.05l5.181-3.12l0,0l7.56,4.98
		l1.78-0.24l0.16,2.18l1.699,0.31l0.23,1.24l6.05-0.78l1.63-3.1l5.811,1.32l-0.931,5.271l2.25,11.32l3.96,2.56v2.71l4.65,2.25
		l-1.86,6.28l-2.1,1.01l-1.93,4.34l3.02,0.77l8.91-2.71l6.66,2.75l5.58,0.16l1.939,2.09l4.73-0.31l5.27,3.41l3.57,1.01l1.55,1.71
		l1.93-0.78l0.471,1.86l-2.33,2.33l-0.62,3.25l-8.521,0.78l-1.399,2.95l0.149,4.42l0.311,1.55l7.14,0.31l5.19-0.55l2.41-2.25
		l2.859,1.63l0.94,3.65l-3.11,3.87l2.95,3.1l-1.71,6.63l1.4,0.24l1.63-1.55l3.02,3.25l13.101-1.08l4.189,2.24l3.8-2.55l9.82,1.24
		l4.72-0.93l4.11-4.11l1.4,4.26l-1.94,5.58l-0.54,1.09l-4.03-0.16l2.32,2.1l2.17,8.14l2.64,1.39l4.19,0.39l1,1.78l-2.17,6.98
		l-3.8,3.03l0.16,1.55l8.14-3.26l10.08-2.02l3.64,1.87l-1.24,1.47v3.33l2.641,2.41l5.5-1.09l7.37,0.39l7.91,2.71l7.6-4.42l4.34-0.62
		l1.7,0.7l-0.93,2.56l1.319,3.49l3.79,1.99l0,0l-0.84,3.42l-3.27,2.8l-4.841,0.63l-3.199,3.02l-3.49-2.22l-5.851-0.06l-4.369-1.6
		l-2.53,2.22l-3.47,1.21l-1.381,1.88l-2.699-0.47l-2.66,1.96l-14.83,0.97l-1.37-0.4l0.13-1.32l-7.27-1.94l-6.17,3.14l-3.601-2.11
		l-5.72,0.97l-2.91-1.08l-0.74-2.17l-2.569-1.26l-4.4-0.52l-1.37,0.06l-4.7,4.16l-3.81,0.13l-1.15,4.37l-2.399,0.05l-0.45,1.37
		l-2.8,0.98l-1.32,4.34l0.35,5.25l-1.83,0.97l0.301,1.68l-1.391,2.78l-4.569,3.26l0.12,2.68l1.77,2.57l-2.17,4.8l0.32,1.89
		l-7.011,7.71l-2.22,8.45l-2,2.46l-3.72,2.17l-0.63,1.83l-5.771,1.2l-1.59,3.2l-1.32-1.09l-0.17-3.6l-4.97-1.83l-1.43,0.17
		l-5.11,4.46l-6.56-1.26l-2.92,2.29l-1.94-2.23l-1.89-0.46l-3.25,4.75l0.109,2.57l-0.84,0.77l-1.56-1.17l-3.771,0.05l-1.88-1.54
		l-2.86,2l-5.83,1.54l-2-8.11l0.69-3.83l2.34-2.68l0.74-2.63l-5.73-5.14l-1.199-10l-0.74-1.77l-2.29-1.14l-7.08,4.23l-4.57,5.31
		l-5.89,2.63l-2.62,2.51l-0.4,1.71l-1.97,0.43l-3.88,3.43l-4-1.03l-5.6,1.32l-4.061-1.6l-2.45,0.51l-9.46-6.23l1.141,0.52
		l-14.44-0.24l-1.1-1.55l-6.48-1.43l0.38-6.35l-4.14-2.46l-4.6-0.33l-2.21-2.65l-2.07-0.07l-1.56-1.88l-2.27-0.77l-2.91-5.84
		l-2.4-0.13l-1.23-3.5l-3.37-1.49l-0.39-3.11l-2.07-2.46l-3.83-2.98l-1.94-0.26l-1.17-3.57l-3.04-1.49l1.05-3.74l4.47-4.19v-1.49
		l-4.33-3.24l-1.08-3.39l0.67-1.35l4.06-0.67l4.19-4.6l13.94-0.41l-0.68-3.65l-2.17-3.25l0.55-2.03l6.08-1.35l4.06-2.7l5.68-0.82
		l2.44-2.16l3.24-0.13l4.47-3.52l1.08-6.36l2.3-5.82l-0.41-4.86l1.76-4.47h-3.79l-7.3,4.33l-9.6,1.22l-2.71,3.38l-7.17-2.57
		l-6.9,0.67l-2.03,1.36l-5-2.17l-6.22,0.14l-7.11-5.75l-2.58-6.92l1.9-0.61l6,2.28l2.89,3.04l-0.83,3.2l1.52,2.05l1.14-0.08
		l0.91-2.28l-0.99-6.46l0.53-3.95l-6.61-1.75l-1.83-3.88l-0.15-4.64l-1.21-0.91l-6.47,0.15l-2.36-2.2l-2.96,0.91l-3.95-2.51l5-6.25
		l2.95-0.68l5.9,0.68l2.96-0.57l1.7-1.7l4.55,5.9l5.79,0.23l-1.7,4.89l1.47,1.7l4.21-7.38l5.68-0.23l0.95-5.51l2.73-1.37l0.68-1.7
		l-0.91-3.41l0.57-1.13l4.66-3.3l-4.77-3.52l1.93-8.98h10.91l10.52-2.44l2.84,0.45l5.11-5.22l5.45-1.25l1.819,0.45l1.021-0.79
		l-0.45-2.62l-4.77-8.18l8.75-1.25l5.109,0.8l2.271-1.25l2.27,2.05l2.84-0.12l3.07-2.16l2.27,1.48l3.181-0.8l5,1.82l5.91-1.25
		l1.14-1.47l2.61,1.81l5.449-0.79l1.71-1.37l1.021,0.23L449.68,79.38z"/>
	<path id="KG-O" fill="#1E3250" stroke="#1E3250" stroke-width="0.5" d="M399.03,263.6l-0.561,4.3l-1.71,2.51l8.271,8.14l-0.19,1.37
		l-2.8,1.29l-4.22-2.29l-7.05,0.15l-0.41,3.07l-2.63,3.86l-5.71-0.45l-3.89,6.05l-3.43,1.97l-2.28,3.32l-5.68,4.93l-2.14,0.89
		l-3.02-1.48l-1.38,0.64l-1.94-2.3l-8.57,2.06l-4.22,2.74l-2.4-1.54l-3.36,4.88l-3.9,1.29l-0.05,1.03l2.5,1.08l0.24,1.6l-4.57,6.54
		l0.8,4.26l-4.63,2.971l-1.31,5.479l0.45,2.63l4.56,2.37l3.04,9.97l-0.23,3.311l-2.51,0.569l-0.57,2.66l-1.54,1.2l-0.29,6l-1.54,0.8
		l-8.46,1.261l-6.85-1.261l-5.82,1.71l-2.23-1.31l-4.57,0.11l-7.71,3.199l-1.83,4.971l-5.08-0.28l-1.14,1.479l-4.12,1.49l-5.3-1.55
		l-5.54,1.6l-2.97-0.68l-3.26,1.14l-1.94-1.479l-3.71,1.71l-2.69-1.2l-3.25,1.26l-6.57-3.55l-5.6-0.8l-1.94,2.979l-2.46,0.801
		l-1.14-2.29l-2.92-0.17l-1.77,0.97l-0.28,2.29h-3.94l-6.52,2.34l-6.17,12.34l-0.99,0.17l-1.54-4.51l-1.89-0.86l-0.8-2.229
		l-4.05-0.29l-2.23-1.65l-2.06-7.029l-5.42,1.6l-5.14,4.84l-7.78,0.93l-3.31-5.26l3.89-5.939l-1.99-5.261l-1.21-0.649l-7.49,1.72
		l-6.68-0.58l-1.89-5.649l1.78-3.03l0.09-2.51l-4.13-3.5l0,0l4.05-8.98l6.52-1.12l2.89-4l4,0.55l1.59,2.431l5.03,1.21l2.32,1.95
		l5.87-0.091l3.54,2.79l3.82,0.101l1.59,1.68l5.31-1.87l5.4,1.49l3.17-0.93l4.37-1.58l2.33-2.8l2.42-0.28l8.57-4.28l1.21-2.61
		l-0.65-2.52l-3.72-3.72l1.02-1.12l-1.3-1.771l-1.59-0.649l-3.26,1.68l-3.54-6.99l-2.6-1.68l-3.92-0.74l1.49-5.31l-1.39-3.08
		l0.84-2.79l-1.31-1.68l-3.07-1.02l2.98-2.61v-1.3l-1.59-2.33l-4.93-2.43l2.7-1.95l-1.49-2.61l0.65-5.31l-2.33-0.74l-9.84,3.4l0,0
		l-3.9-3.27l6.11-6.23l-0.4-1.37l1.77-1.94l0.35-2.35l3.25,0.12l2.7-2.52l0.11-1.65l5.2,0.57l0.23,2.68l1.94,1.89h3.09l4.57,4.28
		l2.11-0.57l-0.51-2.45l1.94-3.16l0.06-3.81l-0.37-1.12l-2.15-0.37l1.03-2.28l-1.71-3.83l-2.29-1.31l0.52-0.98l2.05,0.06l0.46-1.6
		l1.03,0.34l4.65,6.8l2-2.4l1.03,1.89l7.14,3.48l3.6-0.4l0.8-6.85l4.45,0.98l1.2-0.98l1.32-6l-1.43-2.34l1.03-0.63l2.05,1.14
		l3.43-1.31l1.31-3.03l4.79-1.26l2.53-2.11l8.69-1.83l3.03-1.71l1.6-3.03l-0.78-2.26l2.65-2.81l3.05-0.52l1.3-2.26l-0.91-7.13
		l1.81-4.28l4.8-0.97l2.85,0.45l1.43-2.27l2.01-0.84l0.64-2.66l1.62-1.29l11.86,1.62l0.65-1.75l-1.16-2.47l4.14-1.36l1.95,2.4
		l0.26,1.95l-7.78,6.99v1.3l4.08,3.95l4.6,1.69l2.14-7.39l4.86-4.41l1.56-4.86l2.33,0.13l0.78,3.05l1.92,1.68l0.39,5.77l7.77,1.82
		l1.82,2.65l3.04,1.49l1.17,3.57l1.95,0.26l3.82,2.98l2.07,2.46l0.39,3.11l3.37,1.49l1.23,3.5l2.4,0.13l2.92,5.84l2.27,0.77
		l1.55,1.88l2.08,0.07l2.2,2.65l1.94-0.32l5.71,2.07l1.62,2.08l-1.36,3.24l0.45,2.07l6.48,1.43l1.1,1.55l6.03,0.52l2.46-0.97
		L399.03,263.6z"/>
	<path id="KG-T" fill="#1E3250" stroke="#1E3250" stroke-width="0.5" d="M193.03,44.24l3.11,2.29l5.08,1.14l3.54,2.92l3.72,0.28
		l2.45-1.66l4.8-0.28l7.89,2.37L234,57.53l7.03-1.03l10.45,4.51l4.63,6.63l7.25,2.4l14.69-0.46l5.14,2l6.8,0.74l1.34,6.51l2.75,1.32
		l8.31,1.43l2.83-1.3l1.08,0.55l1.38-1.97l0.59-3.84l1.38-0.3l1.77,2.96l3.44-0.5l1.18,1.19v1.87l-3.44,5.41l-0.2,3.15l-1.18,1.38
		l-7.38,2.56l-4.43-1.48l-4.14,0.3l-2.65,2.36l-4.14-1.08l-3.54,1.28l-2.56-0.4l-4.43,3.84l-4.33-1.38l-0.79,0.69l-0.29,5.12
		l1.37,1.87l3.25,1.18v4.43l-2.46,1.08l-2.95-0.29l-0.79-1.479l-1.97,1.28l-2.26-1.38l-2.17,2.96l-2.75,1.28l-0.89,2.95l-3.64,0.59
		h-1.38l-6.26-4.82l-5.02-2.46l-4.73,0.39l-4.23-2.26l-1.77,0.19l-2.95-2.26l-4.83,0.59l-1.87-2.86l-3.15-1.47l-6.89-0.69
		l-1.08,0.89l-2.46,6.89v5.21l-1.18,1.77l-3.25,1.19l-0.89-1.09l-3.74-0.1l-3.54-2.65l-9.45-4.33l-10.93-2.46l-2.85-2.86l-4.63-1.87
		l-12.89,2.95l-6.21-2.36l-4.82-0.29l-2.2,1.07l-1.81-2.37l-1.77-0.29l-7.2-5.37l-4.91-0.51l-4.69,3.6l-3.2-1.43l-2.91,0.86
		l-2.34-4.97l1.88-4.86l1.94-0.4l2.89-3.16l-1.84-2.9l2.67-1.76l1.03-4.23l6.97,1.71l-0.29-2.74l-4.63-5.43l-0.05-2.57l2.51-1.71
		l5.37,0.97l4-1.14l0.11-7.23l2.63-0.6l2.06-1.83l1.65-2.85l0.29-2.92h6.23l2.97-2.91l5.77,0.57l4.28-1.43l5.26,2.86l3.97-3.77
		l4.06,0.4l7.2-2.63L193.03,44.24z"/>
	<path id="KG-Y" fill="#1E3250" stroke="#1E3250" stroke-width="0.5" d="M644.05,203.98l-3.79-1.99l-1.319-3.49l0.93-2.56l-1.7-0.7
		l-4.34,0.62l-7.6,4.42l-7.91-2.71l-7.37-0.39l-5.5,1.09l-2.641-2.41v-3.33l1.24-1.47l-3.64-1.87l-10.08,2.02l-8.14,3.26l-0.16-1.55
		l3.8-3.03l2.17-6.98l-1-1.78l-4.19-0.39l-2.64-1.39l-2.17-8.14l-2.32-2.1l4.03,0.16l0.54-1.09l1.94-5.58l-1.4-4.26l-4.11,4.11
		l-4.72,0.93l-9.82-1.24l-3.8,2.55l-4.189-2.24l-13.101,1.08l-3.02-3.25l-1.63,1.55l-1.4-0.24l1.71-6.63l-2.95-3.1l3.11-3.87
		l-0.94-3.65l-2.859-1.63l-2.41,2.25l-5.19,0.55l-7.14-0.31l-0.311-1.55l-0.149-4.42l1.399-2.95l8.521-0.78l0.62-3.25l2.33-2.33
		l-0.471-1.86l-1.93,0.78l-1.55-1.71l-3.57-1.01l-5.27-3.41l-4.73,0.31l-1.939-2.09l-5.58-0.16l-6.66-2.75l-8.91,2.71l-3.02-0.77
		l1.93-4.34l2.1-1.01l1.86-6.28l-4.65-2.25v-2.71l-3.96-2.56l-2.25-11.32l0.931-5.271l-5.811-1.32l-1.63,3.1l-6.05,0.78l-0.23-1.24
		l-1.699-0.31l-0.16-2.18l-1.78,0.24l-7.56-4.98l0,0l3.68-2.67l2.39-4.21l6.36-1.25l0.12-5.57l4.77,1.48l6.471-0.45l8.409-3.07
		l6.36,0.23l1.03-0.68l0.34-2.62l12.84-9.43l6.811-0.79L517.85,47l8.521,1.14l6.81-1.59l4.891,0.68l11.359-3.18l13.29-0.91
		l1.141-0.57l1.479-4.77l6.76-4.83l9.771,1.33l7.939-2.62l5.021-0.17l2.86,1.54l11.71,1.31l2.909-0.51l4.521,2.68l5.74,0.92
		l2.689,2.34l3.311-1.32l3.62,1.38l5.89-0.06l2.38-0.92l0.39-1.2l10.86,1.98l2.91-2.86l2.64,0.83l6.23-1.89l6.16,4.54l3.72,0.95
		l1.66,2.34l3.76-0.66l3.78,0.66l1.479,1.6l2.91-0.6l6.96,2.68l6.44,0.229l2.399,1.2l10.57-3.37l-1.45,4.09l2.28,7.11l7.31,7.6
		l3.45,0.74l0.12,1.2l10.86,12l8.239,0.51l2.74-2.17l13.87,3.71l6.74,0.29l1.569,4.68L772.23,89l4.06,0.86l1.17,2.11l2.57,1.37
		l-0.46,2.98l3.199,5.59l2.95-1.14l4.021,2.11l0.8,6l-0.97,4.34l2.279,3.2l-0.31,0.98l-4.05-0.75l-5.521,2.37l-8.68-1.02
		l-11.43,1.14l-2.061,1.31l-0.33,3.66l-5.38,10.34l-5.88,7.31l-4.92,1.2l-8.99-0.06l-1.29-1.21l1.38-0.44l1.051-2.54l-1.24-1.76
		l-3.59-0.39l-2.971,1.49l-2.279,2.85l-3.95,0.12l-7.021,7.08l-5.77,0.34l-2.57,2.52l-4.569,1.6l-0.75,1.71l-6.341,1.71l-6.79,6.46
		l-9.939,2.8l-0.92,3.43l-2.971,3.42l-6.17-0.4l-4.109,4.29l-7.94,2.28l-0.689,4.46l1.37,1.6l0.289,3.94l-1.489,0.91l-0.4,2.46
		l-3.02,0.34l-5.15,4.75L644.05,203.98z"/>
</g>
</svg>
