<?xml version="1.0" encoding="utf-8"?>
<!-- Generator: Adobe Illustrator 15.0.0, SVG Export Plug-In . SVG Version: 6.00 Build 0)  -->
<!DOCTYPE svg PUBLIC "-//W3C//DTD SVG 1.1//EN" "http://www.w3.org/Graphics/SVG/1.1/DTD/svg11.dtd">
<svg version="1.1" id="Layer_1" xmlns:amcharts="http://amcharts.com/ammap"
	 xmlns="http://www.w3.org/2000/svg" xmlns:xlink="http://www.w3.org/1999/xlink" x="0px" y="0px" width="744.5px" height="860.5px"
	 viewBox="0 0 744.5 860.5" enable-background="new 0 0 744.5 860.5" xml:space="preserve">
<defs>
	
	
		<amcharts:ammap  projection="mercator" bottomLatitude="13.909720" leftLongitude="100.083214" topLatitude="22.502872" rightLongitude="107.694830">
		</amcharts:ammap>
</defs>
<g>
	<path id="LA-XE" fill="#1E3250" stroke="#1E3250" stroke-width="0.5" d="M685.23,728.47l14.35-22.84l-47.05-47.13l26.529-28.4
		l-27.71-11.17L637.32,632.99l-15.42-1.01l-15.311,26.27l3.57,20.85l-33.55,5.271l4.22,9.99l28.71,25.09l9.88-11.16l34.94-2.07
		l27.01,9.08L685.23,728.47z"/>
	<path id="LA-AT" fill="#1E3250" stroke="#1E3250" stroke-width="0.5" d="M685.23,728.47l-3.86-13.17l-27.01-9.08l-34.94,2.07
		l-9.88,11.16l12.78,11.7l-12.101,22L593.03,751.6l-0.3-15.3l-12.091-4.149l-18.319,17.1l15.42,36.12l15.95-13.5l29.899,27.05
		l41.75-27.83l11.8,5.26l13.25-32.819L685.23,728.47z"/>
	<path id="LA-KH" fill="#1E3250" stroke="#1E3250" stroke-width="0.5" d="M583.66,538.85l-11.05-26.14l-9.17,2.65l-42.75-40.341
		L496.98,425.7l-19.4-6.47l-20.09,29.829l-45.311-28.09l-10.8,4.351l-13.96,31.449l47.23,42.5l-4.29,46.461l7.939,3.51l0.75-16.38
		l30.01-3.36L583.66,538.85z"/>
	<path id="LA-BL" fill="#1E3250" stroke="#1E3250" stroke-width="0.5" d="M477.58,419.23l-16.37-20.16l3.03-23.801l-37.21-9.55
		l-41.68-30.12l-12.76,27.21l-21.84-5.01l-37.11-5.2l-4.25,33.24l-57.01,7.74l7.6,21.16l16.98,15.09l19.22-14.53l1.06-13.439
		l61.83,9.26l28.35,45.649l13.96-31.449l10.8-4.351l45.311,28.09L477.58,419.23z"/>
	<path id="LA-PH" fill="#1E3250" stroke="#1E3250" stroke-width="0.5" d="M152.51,0l-20.9,25.07l21.76,42.82l-3.32,49.22l9.83,9.93
		l45.13,25.63l18.44,9.25l38.56-26.9l-11.52-11.33l13.55-47.93l-9.3,3.25l-3.75-13.11l-14.43,17.75l-5.51-24.25L185.21,7.3
		l-23.37,3.98L152.51,0z"/>
	<path id="LA-OU" fill="#1E3250" stroke="#1E3250" stroke-width="0.5" d="M205.01,152.67l-45.13-25.63l-4.9,6.01l-13.41,28.76
		l-19.88,13.69l14.07,9.74l-1.88,15.56l-28.83,16.52l-2.03,21.57l-15.1-2.18l-27.89,15.2l1.99,8.5l73.63,4.64l13.7-10.56
		l45.08-21.11l-4.8-26.04l19.47-30.82L205.01,152.67z"/>
	<path id="LA-LP" fill="#1E3250" stroke="#1E3250" stroke-width="0.5" d="M304.85,169.32l-23.96-6l-18.88-28.3l-38.56,26.9
		l-18.44-9.25l4.09,23.85l-19.47,30.82l4.8,26.04l-45.08,21.11l18.37,51.819l-8.87,34.601l29.31-34.46l30.74,3.3l10.74,14.09
		l15.73-8.83l-6.92-20.78l43.2-38.19l7.01-74.07L304.85,169.32z"/>
	<path id="LA-HO" fill="#1E3250" stroke="#1E3250" stroke-width="0.5" d="M379.86,277.32l38.291,8.95l31-38.14l-3.841-17.71
		l-23.199-3.68l2.199-12.65l-29.689-9.74l23.61-20.42L369.88,152.8l-28.39,11.41l-9.24,18.62l-27.4-13.51l-16.19,12.65l-7.01,74.07
		l30.73,4.59l30.02-15.73l14.52,24.17l23.38-11.77L379.86,277.32z"/>
	<path id="LA-XI" fill="#1E3250" stroke="#1E3250" stroke-width="0.5" d="M379.86,277.32l0.44-20.02l-23.38,11.77L342.4,244.9
		l-30.02,15.73l-30.73-4.59l-43.2,38.19l6.92,20.78l32.03,16.271l71.1,11.46l2.25,15.06l21.84,5.01l12.76-27.21l-38.02-19.17
		l22.33-18.02l-8.23-19.34L379.86,277.32z"/>
	<path id="LA-VI" fill="#1E3250" stroke="#1E3250" stroke-width="0.5" d="M245.37,315.01l-15.73,8.83l-10.74-14.09l-30.74-3.3
		l-29.31,34.46l0.03,41.83l-37.67,42.84l13.15,35.83l47.17-36.82l-0.45-21.92l11.53-1.67l33.64,19.21l33.73-5.47l-7.6-21.16
		l57.01-7.74l4.25-33.24l37.11,5.2l-2.25-15.06l-71.1-11.46L245.37,315.01z"/>
	<path id="LA-VT" fill="#1E3250" stroke="#1E3250" stroke-width="0.5" d="M259.98,414.74l-33.73,5.47L192.61,401l-11.53,1.67
		l0.45,21.92l50.31,23.07l7.7,14.1l32.84-17.55l4.58-14.38L259.98,414.74z"/>
	<path id="LA-SV" fill="#1E3250" stroke="#1E3250" stroke-width="0.5" d="M583.66,538.85L469.06,529.5l-30.01,3.36l-0.75,16.38
		l-7.939-3.51l1.739,41.729l27.091,37.6l33.77,11.171l43.46,12.02l22.84-10.66l2.19-17.859l12.96,7.38l30.17-8.98l11.21-22.66
		l-19.5-22.27l-1.49-31.891L583.66,538.85z"/>
	<path id="LA-SL" fill="#1E3250" stroke="#1E3250" stroke-width="0.5" d="M651.35,618.93l-26.76-33.27l-8.8,9.81l-11.21,22.66
		l-30.17,8.98l-12.96-7.38l-2.19,17.859l-22.84,10.66l-43.46-12.02l-1.04,19.739l21.17,11.32l-4.5,24.42l44.43-3.1l8.131,16.439
		l19.68-10.689l-4.22-9.99l33.55-5.271l-3.57-20.85l15.311-26.27l15.42,1.01L651.35,618.93z"/>
	<path id="LA-CH" fill="#1E3250" stroke="#1E3250" stroke-width="0.5" d="M552.69,836.16l7.43-13.061l-16.23-29.79l33.851-7.939
		l-15.42-36.12l18.319-17.1l12.091,4.149l0.3,15.3l17.189,1.551l12.101-22l-12.78-11.7l-28.71-25.09l-19.68,10.689l-8.131-16.439
		l-44.43,3.1l-13.729,28.16l13.8,13.7l-7.91,40.81l-29.89,20.851l6.72,15.579L552.69,836.16z"/>
	<path id="LA-XA" fill="#1E3250" stroke="#1E3250" stroke-width="0.5" d="M158.85,340.91l8.87-34.601l-18.37-51.819l-13.7,10.56
		l-73.63-4.64l-32.88,7.51l10.45,28.64l21.49,1.98l11.72-12.87l34.69,6.52l-7.63,16.74l14.24,34.851l-8.48,35.38l-18.9,22.5
		l11.57,10.22l0.9,26.23L73.38,484.7l22.77,10.87l38.21-34.16l-13.15-35.83l37.67-42.84L158.85,340.91z"/>
	<path id="LA-LM" fill="#1E3250" stroke="#1E3250" stroke-width="0.5" d="M154.98,133.05l-23.2-8.15l-23.84,6.27l-9.32-37.06
		l-40.1,23.94L41.7,146.24l5.95,18.57l20.73,33.61l36.67,18.9l28.83-16.52l1.88-15.56l-14.07-9.74l19.88-13.69L154.98,133.05z"/>
	<path id="LA-BK" fill="#1E3250" stroke="#1E3250" stroke-width="0.5" d="M105.05,217.32l-36.67-18.9l-20.73-33.61l-30.82,7.7
		L0.42,213.36l5.13,10.77l17.73-14.87l18.7,21.89l-12.84,36.77l32.88-7.51l-1.99-8.5l27.89-15.2l15.1,2.18L105.05,217.32z"/>
</g>
</svg>
