<?xml version="1.0" encoding="utf-8"?>
<!-- Generator: Adobe Illustrator 15.0.0, SVG Export Plug-In . SVG Version: 6.00 Build 0)  -->
<!DOCTYPE svg PUBLIC "-//W3C//DTD SVG 1.1//EN" "http://www.w3.org/Graphics/SVG/1.1/DTD/svg11.dtd">
<svg version="1.1" id="Layer_1" xmlns:amcharts="http://amcharts.com/ammap"
	 xmlns="http://www.w3.org/2000/svg" xmlns:xlink="http://www.w3.org/1999/xlink" x="0px" y="0px" width="735.866px"
	 height="5109.667px" viewBox="0 0 735.866 5109.667" enable-background="new 0 0 735.866 5109.667" xml:space="preserve">
<defs>
	
	
		<amcharts:ammap  projection="mercator" bottomLatitude="-0.7035846" leftLongitude="72.6385815" topLatitude="7.1063772" rightLongitude="73.5996537">
		</amcharts:ammap>
</defs>
<g>
	<path id="MV-MV" fill="#1E3250" stroke="#1E3250" stroke-width="0.5" d="M320.469,4986.31l7.74-3.381l-1.031-3.568l-12.438-4.26
		l-1.198,3.836L320.469,4986.31z M279.987,4907.806l-8.483,3.553l-0.292,4.149l20.842,39.311l-10.026-29.11l2.135,0.596
		l-9.393-9.884l1.889-3.648l2.669,4.495L279.987,4907.806z M372.673,4908.381l-11.508,1.816l3.836,4.228l-2.512,6.018l1.444,6.625
		l0.989-6.038l7.828-7.546L372.673,4908.381z M481.512,4726.68l10.712,12.893l7.169,0.236l-13.286-20.477l-4.972,3.245
		L481.512,4726.68z M389.219,4405.933l8.185-0.245l3.852-5.898l-8.185,0.487L389.219,4405.933z M490.952,4380.072l12.674-14.062
		l-10.592,1.46l-3.124,7.593L490.952,4380.072z M218.951,4245.644l3.888-1.664l0.068-10.089l-7.488,2.632L218.951,4245.644z
		 M570.366,4233.519l-6.264-6.781l1.675,6.865l4.908,4.197L570.366,4233.519z M223.189,4209.265l-3.308-0.403l-1.025,8.389
		l4.746-0.916l1.444-6.588L223.189,4209.265z M464.913,3422.895l7.269-5.28l-7.049-0.466l-4.024,3.705L464.913,3422.895z
		 M530.497,3403.695l9.053-6.971l4.568-10.957l-2.736-0.305l1.937,1.382l-8.049,11.183l-6.787,3.762L530.497,3403.695z
		 M571.413,3223.07l-0.183,2.518l2.92-0.738l15.442-10.042l1.072-6.327l-8.582,5.852l-12.392,3.076L571.413,3223.07z
		 M552.183,3373.187l-5.076,10.738l4.123,0.476L552.183,3373.187z M565.07,3327.535l-2.485,0.025l-0.393-3.866l-2.93,30.737
		l-3.685,9.979l-4.657,3.789l1.974,1.491l-2.899-1.114l7.043,7.2l-1.188-8.755l14.061-29.775L565.07,3327.535z M487.289,2808.53
		l3.171-1.193l1.748-12.298L487.289,2808.53z M560.644,1898.867l-1.904,6.74l3.286,4.4l-2.119,7.682l-2.936-1.209l-1.366-10.842
		l-2.025,3.631l0.995,16.385l5.661-7.719l6.196-20.555l-4.919-1.502L560.644,1898.867z M200.892,1766.082l1.408-5.772l-5.95-2.741
		l-2.109,4.474L200.892,1766.082z M539.947,1923.949l-1.192,5.896l9.366-0.826l0.367-4.438L539.947,1923.949z M221.374,1483.651
		l-2.35,1.178l1.805,9.984l4.438-8.63l3.333,0.084l-2.339-3.045L221.374,1483.651z M509.529,1440.903l8.199-4.636l0.79-6.489
		l-3.224-1.371l-3.939,5.553l-7.153,2.339L509.529,1440.903z M510.586,899.287l14.327-11l0.78-9.905l-3.685,9.268L510.586,899.287z
		 M487.869,810.684l-8.477-12.988l-3.611-0.968l16.301,22.653L487.869,810.684z M379.706,597.966l-5.757-7.294l1.816,12.02
		l4.274-1.151L379.706,597.966z M291.589,591.216l3.595-5.375l-1.994-2.428l-4.04,3.956L291.589,591.216z M211.295,438.906
		l4.668-3.998l-3.564-3.317l-5.882,3.841L211.295,438.906z M196.554,433.087l2.92-2.177l-2.266-1.941l-8.268,2.596L196.554,433.087z
		 M257.611,424.139l1.983-7.781l-4.458-5.159l-2.548,4.343L257.611,424.139z M268.925,391.779l2.313-8.3l-7.535-5.662l2.224,11.209
		L268.925,391.779z M274.896,366.09l4.15-7.069l-4.505-5.123l-2.643,6.217L274.896,366.09z M293.248,350.596l7.797-10.681
		l0.141-9.23l-5.494,3.595l1.967,7.437L293.248,350.596z M258.538,311.841l1.45-4.511l-4.25-4.442l-1.214,5.677L258.538,311.841z
		 M328.951,311.056l10.173-23.459l-7.074,6.122l-8.881,23.02l-7.001,2.795l4.824-0.162L328.951,311.056z M348.564,262.348
		l-0.309,3.585l5.986,2.658l6.028-9.54l-5.102-2.663l-2.256,1.878l2.428,1.455l-1.438,4.233l-2.099,0.335l-0.011-3.087
		L348.564,262.348z M322.698,258.544l3.438-2.36l-6.374-5.029l-1.371,3.962L322.698,258.544z M367.832,228.847l3.297-4.322
		l0.429-15.944l-0.774-12.198l-2.752-1.538l-4.94,2.057l6.871,2.752l0.016,18.205l-7.655,6.374L367.832,228.847z M357.518,186.042
		l5.149-11.874l-4.327-5.416l-3.407,3.443L357.518,186.042z M217.888,130.798l3.783,12.946l2.303,0.471l1.188-5.703L217.888,130.798
		z M174.403,87.951l-2.329,0.355l3.087,0.952l3.145,11.089l3.297-3.49l-1.931-3.135L174.403,87.951z"/>
</g>
</svg>
