<?xml version="1.0" encoding="utf-8"?>
<!-- Generator: Adobe Illustrator 15.0.0, SVG Export Plug-In . SVG Version: 6.00 Build 0)  -->
<!DOCTYPE svg PUBLIC "-//W3C//DTD SVG 1.1//EN" "http://www.w3.org/Graphics/SVG/1.1/DTD/svg11.dtd">
<svg version="1.1" id="Layer_1" xmlns:amcharts="http://amcharts.com/ammap"
	 xmlns="http://www.w3.org/2000/svg" xmlns:xlink="http://www.w3.org/1999/xlink" x="0px" y="0px" width="832.352px"
	 height="407.322px" viewBox="0 0 832.352 407.322" enable-background="new 0 0 832.352 407.322" xml:space="preserve">
<defs>
	
	
		<amcharts:ammap  projection="mercator" bottomLatitude="41.581520" leftLongitude="87.737620" topLatitude="52.148696" rightLongitude="119.931949">
		</amcharts:ammap>
</defs>
<g>
	<path id="MN-051" fill="#1E3250" stroke="#1E3250" stroke-width="0.5" d="M716.49,221.74l-8.38-11.63l-33.051,4.65l-11.31-12.51
		l-0.51-13.06l-15.67-11.49l-27.7-3.22l0.04-7.8l-13.8,5.46l-1.03,10.29l-12.39,4.08l-8.931,37.67l9.63,4.76l9.061,35.8
		l40.939,11.94l22.29-22.45l23.301-0.96l16.64-9.99L716.49,221.74z"/>
	<path id="MN-061" fill="#1E3250" stroke="#1E3250" stroke-width="0.5" d="M716.49,221.74l18.74-2.13l1.39-7.71l10.02,1.85
		l11.69-7.32l35,4.74l5.63-4.58l-5.13-16.02l-30.44-30.52l-17.51-0.14l-10.07,12.65l-13.369-8.32l-22.511,7.1l-7.8-7.51l-2.13-9.06
		l7.09-4.11l20.271-62.67l-11.95-4.521l-18.54,4.76l-15.73-13.34l-11.6-1.57l-30.82,26.52l-22.75,5.68l13.94,61.16l-0.04,7.8
		l27.7,3.22l15.67,11.49l0.51,13.06l11.31,12.51l33.051-4.65L716.49,221.74z"/>
	<path id="MN-1" fill="#1E3250" stroke="#1E3250" stroke-width="0.5" d="M470.48,170.35l21.01,2.17l1.52-9.66l-11.729-11.33
		l-18.42-1.39L470.48,170.35z"/>
	<path id="MN-064" fill="#1E3250" stroke="#1E3250" stroke-width="0.5" d="M515.65,162.86l-7.021,6.03l5.62,7.15L515.65,162.86z"/>
	<path id="MN-047" fill="#1E3250" stroke="#1E3250" stroke-width="0.5" d="M516.55,117.54l-20.99,2.59l-0.72,15.65l-9.74,3.08
		l-16.89,1.03l-18.3-12.57l-19.22,13.44l-13.181-4.44l-5.95,18l10.301,7.38l1.409,10.46l-14.989,5.04l-0.221,8.31l11.32,31.83
		l9-6.12l10.67,5.46l10.05-10.64l38.17,11.54l15.28-13.02l12.97-0.21l8.641-8.4l-9.91-19.91l-5.62-7.15l7.021-6.03l13.729-15.15
		L516.55,117.54z M470.48,170.35l-7.62-20.21l18.42,1.39l11.729,11.33l-1.52,9.66L470.48,170.35z"/>
	<path id="MN-037" fill="#1E3250" stroke="#1E3250" stroke-width="0.5" d="M455.01,118.63l18.82-1.39l-0.49-14.36l-18.33-4.14
		l2.37-7.91l-7.51,7.21l-0.61,19.22L455.01,118.63z"/>
	<path id="MN-055" fill="#1E3250" stroke="#1E3250" stroke-width="0.5" d="M396.41,187.24l-12.02,1.63l-13.31-8.27l-3.61,16.75
		l-5.98-2.96l-24.96,8.59l7.37,13.19l-10.4,46.29l10.58,10.53l4.63,27.64l30.89-3.37l5.72-22.59l13.42-13.49l-3.63-15.31l10.76-4.33
		l2.77-13.09l10.74-11.11l-11.32-31.83L396.41,187.24z"/>
	<path id="MN-049" fill="#1E3250" stroke="#1E3250" stroke-width="0.5" d="M517.76,109.87L501.82,96.72l0.47-10.12l-18.71-2.8
		L472.52,72.13l-35.159-6.58l-24.29,7.96l9.529,22.6l-5.31,22.12l-3.51,7.8l3.729,10.29l13.181,4.44l19.22-13.44l18.3,12.57
		l16.89-1.03l9.74-3.08l0.72-15.65l20.99-2.59L517.76,109.87z M455.01,118.63l-5.75-1.37l0.61-19.22l7.51-7.21l-2.37,7.91
		l18.33,4.14l0.49,14.36L455.01,118.63z"/>
	<path id="MN-059" fill="#1E3250" stroke="#1E3250" stroke-width="0.5" d="M496.38,284.87l3.58-10.27l19.09-7.97l-0.74-31.82
		l-7.189-2.49l-2.26-24.06l-6.311-3.7l-15.28,13.02l-38.17-11.54l-10.05,10.64l-10.67-5.46l-9,6.12l-10.74,11.11l-2.77,13.09
		l-10.76,4.33l3.63,15.31l8.16,0.16l2.529,12.4l31.61,4.55l13.65,17.48L496.38,284.87z"/>
	<path id="MN-035" fill="#1E3250" stroke="#1E3250" stroke-width="0.5" d="M417.29,118.23l-12.86,2.46l9.351,5.34L417.29,118.23z"/>
	<path id="MN-067" fill="#1E3250" stroke="#1E3250" stroke-width="0.5" d="M413.07,73.51l-18.55,5.36l-24.36-10.3l-12.81,17.54
		l16.91,9.79l-26.27,17.47l-1.78,8.86l11.84,7.15l5.9,17.93l32.46,39.93l11.649-1.73l0.221-8.31l14.989-5.04l-1.409-10.46
		l-10.301-7.38l5.95-18l-3.729-10.29l-9.351-5.34l12.86-2.46l5.31-22.12L413.07,73.51z"/>
	<path id="MN-046" fill="#1E3250" stroke="#1E3250" stroke-width="0.5" d="M193,88.11l-21.67-4.84l-9.07-21.18l-28.1-1.31
		l-3.55-7.01l-7.74,4.06l-7.16-7.62L57.08,83.89l33.48,49.61l11.8-10.48l9.57,14.07l21.49-2.16l9.46,9.94l16.72-15.21l16.45,4.37
		l18.06-6.46l4.17-19.08L193,88.11z"/>
	<path id="MN-041" fill="#1E3250" stroke="#1E3250" stroke-width="0.5" d="M277.57,0l-26.79,44.99l12.08,18.92l-4.66,17.65
		l-18.91,12.7l-6.4-2.75l-5.64,14.13l7.45,7.98l33.79,9.21l13.67-6.07l0.62,30.33l27.08-2.77l6.65-5.48l-0.92-19.09l7.29-5.65
		l23.33,8.13l1.78-8.86l26.27-17.47l-16.91-9.79l12.81-17.54l-8.36-7.47l-2.44-28.88l-56.21-16.97L277.57,0z"/>
	<path id="MN-043" fill="#1E3250" stroke="#1E3250" stroke-width="0.5" d="M142.88,144.87l-9.46-9.94l-21.49,2.16l-9.57-14.07
		l-11.8,10.48l-16.38,4.43l18.15,59.35l11.63,11.29l-11.67,3.74l-9.98-4.69l-0.3,24.01l-8.71,18.8l5.51,10.83l54.63,6.36l1.04-24.61
		l12.71-23.14l-2.38-7.97l18.11-9.27l-19.26-29.34l-7.37-16.92L142.88,144.87z"/>
	<path id="MN-065" fill="#1E3250" stroke="#1E3250" stroke-width="0.5" d="M246.62,210.69l-16.18-0.17l-3.76-10.26l-11.16,0.23
		l-5.09-13.5l-17.59-11.59l-32.85-7.54l-16.33,5.43l19.26,29.34l-18.11,9.27l2.38,7.97l-12.71,23.14l-1.04,24.61l15.19,4
		l25.61,19.35l16.79,1.91l-1.95,9.11l25.77,44.109l37.01,0.051l2.31-56.43l6.8-6.86l6.5-30.95l-2.53-13.65l-17.01-17.55
		L246.62,210.69z"/>
	<path id="MN-057" fill="#1E3250" stroke="#1E3250" stroke-width="0.5" d="M232.89,91.51l-31.19-8.26l-8.7,4.86l5.28,20.38
		l-4.17,19.08l-18.06,6.46l-16.45-4.37l-16.72,15.21l-6.59,11.5l7.37,16.92l16.33-5.43l32.85,7.54l17.59,11.59l5.09,13.5l11.16-0.23
		l3.76,10.26l16.18,0.17l5.47-20.67l7.31-2.35l5.88-15.09l-5.42-1.71l0.36-13.24l22.56-10.54l-0.62-30.33l-13.67,6.07l-33.79-9.21
		l-7.45-7.98L232.89,91.51z"/>
	<path id="MN-069" fill="#1E3250" stroke="#1E3250" stroke-width="0.5" d="M336.53,202.98l-13.66-0.83l-7.73-12.5L302,192.52
		l-5.43-20.43l-15.14,6.81l-8.21-9.22l-7.94,2.9l-5.88,15.09l-7.31,2.35l-5.47,20.67l1.31,10.02l17.01,17.55l2.53,13.65l-6.5,30.95
		l-6.8,6.86l-2.31,56.43l43.95,4.229l-3.34-51.73l8.13-1.95l12.69,12.2l21.92-0.25l13.5-8.021l-4.63-27.64l-10.58-10.53l10.4-46.29
		L336.53,202.98z"/>
	<path id="MN-073" fill="#1E3250" stroke="#1E3250" stroke-width="0.5" d="M346.21,122.23l-23.33-8.13l-7.29,5.65l0.92,19.09
		l-6.65,5.48l-27.08,2.77l-22.56,10.54l-0.36,13.24l5.42,1.71l7.94-2.9l8.21,9.22l15.14-6.81l5.43,20.43l13.14-2.87l7.73,12.5
		l13.66,0.83l24.96-8.59l5.98,2.96l3.61-16.75l13.31,8.27l12.02-1.63l-32.46-39.93l-5.9-17.93L346.21,122.23z"/>
	<path id="MN-039" fill="#1E3250" stroke="#1E3250" stroke-width="0.5" d="M619.91,166.68l-13.94-61.16l-35.68,11.61l-52.53-7.26
		l-1.21,7.67l12.83,30.17l-13.729,15.15l-1.4,13.18l9.91,19.91l7.04,6.65l-2.44,12.24l9.38,11.19l14.83-4.74l2.641-11.71
		l18.67,19.52l9.479-4.92l8.931-37.67l12.39-4.08l1.03-10.29L619.91,166.68z"/>
	<path id="MN-053" fill="#1E3250" stroke="#1E3250" stroke-width="0.5" d="M428.56,384.19l44.5-23.36l31.79-5.12l-8.47-70.84
		l-41.689,10.9l-13.65-17.48l-31.61-4.55l-2.529-12.4l-8.16-0.16l-13.42,13.49l-5.72,22.59l-30.89,3.37l-13.5,8.021l-21.92,0.25
		l-12.69-12.2l-8.13,1.95l3.34,51.73l47.2,2.021l12.63,11.85l41.11,14.19l20.08-3.71l0.1,7.119L428.56,384.19z"/>
	<path id="MN-063" fill="#1E3250" stroke="#1E3250" stroke-width="0.5" d="M583.76,224.18l-9.479,4.92l-18.67-19.52l-2.641,11.71
		l-14.83,4.74l-9.38-11.19l2.44-12.24l-7.04-6.65l-8.641,8.4l-12.97,0.21l6.311,3.7l2.26,24.06l7.189,2.49l0.74,31.82l-19.09,7.97
		l-3.58,10.27l8.47,70.84l30.53,0.36l19.34-7.07l22.65-22.96l23.81-13.03l-13.3-23.83l14.57-24.44l-9.061-35.8L583.76,224.18z"/>
	<path id="MN-071" fill="#1E3250" stroke="#1E3250" stroke-width="0.5" d="M90.56,133.5L57.08,83.89l-20.75,19.23l-24.46,2.25
		L1.04,127.16l7.97,6.07l-1.89,5.84l26.35,20.85l24.78,4.19l24.06,43.51l9.98,4.69l11.67-3.74l-11.63-11.29l-18.15-59.35
		L90.56,133.5z"/>
</g>
</svg>
