<?xml version="1.0" encoding="utf-8"?>
<!-- Generator: Adobe Illustrator 15.0.0, SVG Export Plug-In . SVG Version: 6.00 Build 0)  -->
<!DOCTYPE svg PUBLIC "-//W3C//DTD SVG 1.1//EN" "http://www.w3.org/Graphics/SVG/1.1/DTD/svg11.dtd">
<svg version="1.1" id="Layer_1" xmlns:amcharts="http://amcharts.com/ammap"
	 xmlns="http://www.w3.org/2000/svg" xmlns:xlink="http://www.w3.org/1999/xlink" x="0px" y="0px" width="868.79px"
	 height="1814.575px" viewBox="0 0 868.79 1814.575" enable-background="new 0 0 868.79 1814.575" xml:space="preserve">
<defs>
	
	
		<amcharts:ammap  projection="mercator" bottomLatitude="9.599094" leftLongitude="92.171808" topLatitude="28.547835" rightLongitude="101.170272">
		</amcharts:ammap>
</defs>
<g>
	<path id="MM-01" fill="#1E3250" stroke="#1E3250" stroke-width="0.5" d="M432.68,140.39l-29.63-27.41l-50.09,10.35l-90.8,64.5
		l2.53,55.8l-48.36,64.76l8.95,36.29l-51.61,114.61l-10.85,113.97l26.07,55.351l13.67,31.35l58.56-5.47l20.58,21.54l38.27-1.65
		l23.96-28.51l-11.74-140.43l15.38-24.311l9.88,12.55l11.36-0.63l21.3-33.25l-15.18-17.52l25.31-11.05l-1.55-26.891l-37.5-4.06
		l-35.14-49.62l20.29-2.061l-8.88-52.14l18.99-15.41l-15.56-73.93l20.65-53.94l64.66-3.23l8.33-10.07L432.68,140.39z"/>
	<path id="MM-11" fill="#1E3250" stroke="#1E3250" stroke-width="0.5" d="M483.93,0L458.1,26.76l0.891,32.62L417.02,89.04
		l17.511,50.84l-8.33,10.07l-64.66,3.23l-20.65,53.94l15.56,73.93l-18.99,15.41l8.88,52.14l-20.29,2.061l35.14,49.62l37.5,4.06
		l1.55,26.891l30.8,48.21l55.89-21.57l-9.899-85.63L530.8,287l48.5-23.88L566.9,238.11l18.699-51.62l-7.239-96.12l-33.79,4.97
		L528.9,34.51L483.93,0z"/>
	<path id="MM-05" fill="#1E3250" stroke="#1E3250" stroke-width="0.5" d="M523.45,1770.71l-3.75-2.67l0.26,2.85L523.45,1770.71z
		 M540.98,1746.68l-11.301,9.28l0.53,10.351L540.98,1746.68z M535.72,1745.98l4.021-9.211l-5.48-1.859L535.72,1745.98z
		 M510.2,1709.52l0.13,6.471l2.97-3.79L510.2,1709.52z M536.79,1708.61l2.34-4.16l-3.91,1.25L536.79,1708.61z M567.59,1676.96
		l-5.31-5.28l0.42,8.83L567.59,1676.96z M510.24,1674.75l3.8-5.61l-4.94,0.53L510.24,1674.75z M538.1,1668.45l-12.88,3.5
		l15.431,17.67L538.1,1668.45z M557.53,1664.92l0.989-3.3l-1.649,0.76L557.53,1664.92z M566.54,1662.89l-1.5-8.95l-4.24,10.25
		L566.54,1662.89z M542.83,1639.29l-4.91-1.91l2.43,4.96L542.83,1639.29z M566.74,1589.23l-15.4,0.89l14.65,23.63L566.74,1589.23z
		 M543.57,1615.561l-0.46-26.4l-10.061,31.47L543.57,1615.561z M471.76,1590.21l-2.899-1.09l3.14,2.02L471.76,1590.21z M523,1593.74
		l-3.43-10.51l6.739,21.159L523,1593.74z M488.65,1583.37l0.47,2.34l-0.67-6.21L488.65,1583.37z M543.63,1583.18l-1.67-3.91l-1,4.58
		L543.63,1583.18z M541.62,1577.66l-0.84-4.42l-2.23,1.899L541.62,1577.66z M564.62,1570.3l-7.19-9.55l3.46,20.12l16.04-3.91
		L564.62,1570.3z M527.07,1552.8l3.5,5.511l-5.78-13.74L527.07,1552.8z M526.92,1537.67l-1.83-5.66l-11.609,10.69L526.92,1537.67z
		 M563.61,1533.57l-0.78-9.381l-2.271,8.041L563.61,1533.57z M543.52,1525.04l-2.319-6.42l-2.37,5.22L543.52,1525.04z
		 M506.03,1519.93l-3.48-2.52l2.42,4.58L506.03,1519.93z M554.05,1518.85l-7.62-10.56l-1.21,31.87L554.05,1518.85z M506.18,1501.04
		l-1.93-3.56l-0.44,3.05L506.18,1501.04z M544.65,1472.01l-4.301-11.92l4.87,27.58L544.65,1472.01z M511.66,1408.03l0.609-6.94
		l-1.569,2.83L511.66,1408.03z M528.92,1296.85l-19.29-7.859l-9.56,18.27l20.72,21.42l-12.65-3.359l23.04,105.29l4.261-48.36
		l34.39,80.42l11.41,76.59l-14.91,9.67l16.229,22.21l-0.109,3.05l-5,4l-10.24,3.801l30.5,16.82l-15.95,69.85l-22.54,18.939
		l7.471,65.891l19.899-63.471l76.87-102.31l-47.8-111.47l-0.28-76.141l-80.03-103.26L528.92,1296.85z"/>
	<path id="MM-17" fill="#1E3250" stroke="#1E3250" stroke-width="0.5" d="M590.43,496.21l-13.439-47.36l18.42-17.989l-108.48,27.01
		l-55.89,21.57l-30.8-48.21l-25.31,11.05l15.18,17.52l-21.3,33.25l-10.4,43.21l45.729,12.29l-45.75,18.75l60.99,94.271l-48.82,21.27
		L359,728.54l33.57,19.94l-18.93,79.159l26.57,49.33l14.83,19.57l29.2-66.2l10.06,9.271l52.38,30.3l15.71-22.42l76.011,5.58
		l15.5-33.391l38.899-4.989l-6.27-21.671l58.71,6.11l10.89-37.25l38.33-15.899l6.521-41.521l38.8-21.33L792.8,660.9l-79.74,32.449
		l-21.79-59.199l-69.09-8.32l32.78-78.78l-60.15-22.26L590.43,496.21z"/>
	<path id="MM-03" fill="#1E3250" stroke="#1E3250" stroke-width="0.5" d="M188.89,628.61l-26.07-55.351l11.69,190.21l-20.81-0.859
		l80.14,176.439l2.84,45.05l28.2-10.67l3.12-40.38l56.4-24.99l-1.92-28.05l-16.07-120.26l-45.47,19.03l-2.44-28.34l-23.77-11.74
		l0.42-23.98l46.55-38.689l-20.58-21.54l-58.56,5.47L188.89,628.61z"/>
	<path id="MM-07" fill="#1E3250" stroke="#1E3250" stroke-width="0.5" d="M108.31,1381.17l-0.4-7.1l-1.37,8.18L108.31,1381.17z
		 M135.88,1308.1l1.78-3.939l-4.33,5.029L135.88,1308.1z M233.75,1222.65l1.74-13.811l-8.76,11.76L233.75,1222.65z M198.71,1218.7
		l20.72-37.63l-22.54,22.67L198.71,1218.7z M268.78,977.12l-3.9-3.69l-28.2,10.67l4.13,58.771l-11.45,33.46l-16.62-8.51
		l-29.22,138.199l43.87-50.85l-14.75,54.63l20.22-20.989l-6.45,28.279l24.15-36.51l-12.97,42.63l25.73-33.14l6.85,33.51l13.25-33.51
		l3.11,40l55.27-61.311l-16.47-9.37l-7.62-91.51L268.78,977.12z"/>
	<path id="MM-14" fill="#1E3250" stroke="#1E3250" stroke-width="0.5" d="M115.44,449.21l-14.7-10.38l10.92,40.56l-31.42,84.73
		l7.97,50.67l-17.89,24.96L45.01,623.7L35.4,640.68l5.8,64.08l68.72,57.931l23.03,0.27l1.57-18.44l19.18,18.091l20.81,0.859
		l-11.69-190.21l10.85-113.97L115.44,449.21z"/>
	<path id="MM-15" fill="#1E3250" stroke="#1E3250" stroke-width="0.5" d="M134.03,936.06l-17.76-0.569l18.6,18.92L134.03,936.06z
		 M144.66,877.76l-14.36-0.439l12.81,19.39l6.35,0.73l10.13-13.03L144.66,877.76z M119.31,851.81l-1.74-11.84l-8.54-6.25
		L119.31,851.81z M75.38,845.57l-5.55-20.67l-4.07-4.061L75.38,845.57z M17.27,694.19L0.22,719.15l49.01,85.54l-8.56-41.7
		l27.41,35.81l-15.2,11.37l11.24,6.24l15.57-39.78l5.45,68.351L84.6,820.3l54.93,16.87l-12.82,18.74l18.29-2.58l-5.99,12.14
		l22.39,15.141l-3.64,12.88l-13.65,8.069l-21.71-18.43l-6.21,7.54L156,937.03l12.15-49.98l-2.56,49.931l21.47,11.35l25.68,119.49
		l16.62,8.51l11.45-33.46l-4.13-58.771l-2.84-45.05L153.7,762.61l-19.18-18.091l-1.57,18.44l-23.03-0.27L41.2,704.76L17.27,694.19z"
		/>
	<path id="MM-06" fill="#1E3250" stroke="#1E3250" stroke-width="0.5" d="M488.87,1248.47l-1.62-6.92l1.2,8.15L488.87,1248.47z
		 M480.17,1183.18l3.11-24.199l-9.101-2.271L480.17,1183.18z M499.01,1155.561l-3.81-3.61l-15.26,46.09l20.13,109.22l9.56-18.27
		l19.29,7.859l6.43-0.01l1.471-20.84l-33.15-62.65l-1.06-21.93l27.729-5.48L499.01,1155.561z M466.8,1045.17l-16.67,14.93
		l-31.26,8.25l33.66,32.62l9.729,58.011l29.67-8.36L466.8,1045.17z"/>
	<path id="MM-06_1_" fill="#1E3250" stroke="#1E3250" stroke-width="0.5" d="M379.84,1112.34l-34.19-72.04l-27.94,27.58l7.62,91.51
		l16.47,9.37l28.42-5.68l-14.72-30.86l29.07,26.7l29.34-37.75L379.84,1112.34z"/>
	<path id="MM-02" fill="#1E3250" stroke="#1E3250" stroke-width="0.5" d="M365.59,879.23l-43.11,0.779l1.92,28.05L268,933.05
		l-3.12,40.38l3.9,3.69l48.93,90.76l27.94-27.58l34.19,72.04l34.07,8.83l4.96-52.82l31.26-8.25l-2.72-56.79l-22.58-45.59
		l-25.64-1.38L375.78,879.4L365.59,879.23z"/>
	<path id="MM-04" fill="#1E3250" stroke="#1E3250" stroke-width="0.5" d="M357.45,493.68l-9.88-12.55l-15.38,24.311l11.74,140.43
		l-23.96,28.51l-38.27,1.65l-46.55,38.689l-0.42,23.98l23.77,11.74l2.44,28.34l45.47-19.03l16.07,120.26l43.11-0.779l10.19,0.17
		l24.43-2.431l-26.57-49.33l18.93-79.159L359,728.54l11.56-45.7l48.82-21.27L358.39,567.3l45.75-18.75l-45.729-12.29l10.4-43.21
		L357.45,493.68z"/>
	<path id="MM-13" fill="#1E3250" stroke="#1E3250" stroke-width="0.5" d="M415.04,896.54l-14.83-19.57l-24.43,2.431l23.411,76.939
		l25.64,1.38l22.58,45.59l2.72,56.79l16.67-14.93l25.13,105.45l3.271,1.33l3.81,3.61l31.33,30.379l-27.729,5.48l1.06,21.93
		l33.15,62.65l31.359-12.561l-1.149-64.02l31.649-30.98l-21.3,8.811l-13.689-56.3l-66.79-74.48l-34.4-80.3L415.04,896.54z"/>
	<path id="MM-12" fill="#1E3250" stroke="#1E3250" stroke-width="0.5" d="M454.3,839.61l-10.06-9.271l-29.2,66.2l47.46,69.63
		l33.73-3.18l10.449-93.08L454.3,839.61z"/>
</g>
</svg>
