<?xml version="1.0" encoding="utf-8"?>
<!-- Generator: Adobe Illustrator 15.0.0, SVG Export Plug-In . SVG Version: 6.00 Build 0)  -->
<!DOCTYPE svg PUBLIC "-//W3C//DTD SVG 1.1//EN" "http://www.w3.org/Graphics/SVG/1.1/DTD/svg11.dtd">
<svg version="1.1" id="Layer_1" xmlns:amcharts="http://amcharts.com/ammap"
	 xmlns="http://www.w3.org/2000/svg" xmlns:xlink="http://www.w3.org/1999/xlink" x="0px" y="0px" width="828.5px" height="480.5px"
	 viewBox="0 0 828.5 480.5" enable-background="new 0 0 828.5 480.5" xml:space="preserve">
<defs>
	
	
		<amcharts:ammap  projection="mercator" bottomLatitude="26.348125" leftLongitude="80.053867" topLatitude="30.430628" rightLongitude="88.193752">
		</amcharts:ammap>
</defs>
<g>
	<path id="NP-BA" fill="#1E3250" stroke="#1E3250" stroke-width="0.5" d="M507.44,235.82l3.609,5.49l8.76-2.1l3.761,1.93l4.33-4.08
		l3.569-1.28l6.95,0.5l5.89,2.92l3.74,5.22l2.57,0.1l7.37,6.1l3.84-1.37l12.28,10.52l1.68,6.36l5.1,8.31l-0.8,4.85l10.84,3.34l0,0
		l-1.449,5.86l-3.37,2.7l2.54,12.46l-7.7,0.77l-8,14.86l-5.601,3.59L568,334.81l-6.4,4.49l-4.649,0.41l-0.03,3.29l-2.45,3.71
		l-7.87-0.62l-11.79-4.109l0,0l-17.3-6.54l-5.74-4.181l-0.21-9.26l-4.739-12.17l-6.021-0.79l-9.95-4.19l-9.68,3.57l-3.74-1.84
		l-2.489,3.439l-6.881-0.72l-1.77-1.22l-0.4-2.43l-3.59-2.43l-4.3,0.91l-8.26-1.68l-0.3-1.47l2.529-3.24l-0.359-3.05l2.85-3.18l0,0
		l3.69,3.44l5.27-2.23l-1.51-11.67l6.3-7.11l3.97-10.77l6.761-0.65l4.479-4.97l1.65-9.92l3.37-2.18l2.21-6.31l6.71-3.72l0,0
		l3.779,1.13l4.63-1.92L507.44,235.82z"/>
	<path id="NP-BH" fill="#1E3250" stroke="#1E3250" stroke-width="0.5" d="M148.15,147.37l2.21,0.72l-2.04,4.21l0.47,2.5l3.81,2.42
		l5.95-1.79l2.94,0.75l1.98,3.49l8.9,1.12l4.92,4.3l4.14-2.66l2.99,0.96l3.36-1.05l2-2l10.54,3.88l2.79-1.5l4.44-8.2l12.42-7.08
		l12.5,1.76l-1.02,11.21l2.03,1.6l6.73-2.12l7.37,2.21l0,0l-5.08,2.98l-0.39,6.57l-2.56,2.87l-9.02,4.88l-4.74,6.28l-3.85-0.59
		l-2.59,3.38l0.6,4.34l-7.79,3.73l-2.44,8.08l-11.7-2.77l-4.53,0.92l-1.23,4.52l2.39,8.84l-5.45,7.01l1.41,6.45l-5.25,6.29l-2.6-0.1
		l-11.82-6.56l-3.19,2.99l-0.89,5.27l4.97,5.39l4.01-0.4l6.71,3.97l2.32,3.76l8.08,4.15l4.79,7.53l7.97,2.37l0.84,3.7l3.55,2.11
		l0.74,8.62l-4.59-0.92l-8.47,2.88l0,0l-9.63-0.37l-4.67,7.63l-3.86-0.15l-5.44-4.39l-2.8-0.54l-10.47-9.6l-6.63-1.55l-14.84-8.7
		l0.22-3.64l-5.41-6.32l-4.7-0.24l-0.18,3.09l-5.88,1.09l0.89-2.39l-2.1-0.79l1.97-0.76l-0.68-3.43l-7.87-8.78l-0.33-4.94
		l-2.11-3.56l-11.04-2.26l-3.6-2.26l0,0l3.08-6.71l7.97-6.46l4.52-7.74l7.28-8.13l-5.66-13.87l-1.12-6.83l-2.19,0.58l-2.48,4.22
		l-3.29-2.21l-0.04-3.08l-11.85-4.31l-3.46-5.74l10.84-2.53l11.21,6.65l8.16,0.69l5.29-1.17l1.65,2.05l7.48-1.74l10.14,15.57
		l2.01,0.92l2.59-0.84l-4.47-8.74l-9.78-13.28l-0.03-6.77l3.62-4.92l8.23-4.99L148.15,147.37z"/>
	<path id="NP-DH" fill="#1E3250" stroke="#1E3250" stroke-width="0.5" d="M387.65,126.94l0.11,2.42l1.91,1.16l2.38-1.21l2.58,1.53
		l2.76-0.43l3.98,4.25l5.8,2.08l-2.67,3.82l-1.07,10.31l-3.92,4.88l4.88,7.02L402.4,173.8l0,0l-3.261,1.02l-8.1,8.24l-8.5-1.8
		l-1.85,6.62l-9.92,6.25l0.07,3.17l5.16,7.74l-0.6,1.38l-2.25-0.65l-3.41,1.92l1.53,7.34l-8.71,8.33l-4.12,7.38l4.35,1.85l2.26,2.63
		l1.47,6.62l4.14,2.67l-0.19,1.07l-1.96,3.17l-4.08-0.94l-0.95,8.4l-2.88,2.77l-0.14,8.04l-3.01,3.79l-3.59,1.9l-4.67-1.64l0,0
		l-3.94-7.58l-5.06-2.65l-3.95,1.11l-3.93-1.95l-3.36-4.9l-9.95-3.2l-1.44-1.56l2.35-3.39l-0.19-3.41l-4.57,0.21l-1.5-1.31
		l-15.04,2.7l0,0l-0.06-1.95l-4.7-5.34l-7.44-4.18l-5.54-6.14l-3.6-5.46l-0.07-1.48l2.54-0.5l-2.87-4.19l3.8-2l1.64-2.63l4.81,0.96
		l1.04-2.11l-2.6-3.7l2.07-1.91l6.38,0.47l6.55-3.15l4.08-8.08l-0.49-2.97l0,0l0.9-0.93l3.92,2.67l7.94,1.23l20.66-8.61l1.8-9.23
		l11.29-14l1.09-10.83l1.11-1.6l2.82-0.49l1.61-3.71l-4.06-5.271l0,0l7.12-6.1l8.22,0.14l2.93-4.37l4.33-2.49l9.45-1.18
		L387.65,126.94z"/>
	<path id="NP-GA" fill="#1E3250" stroke="#1E3250" stroke-width="0.5" d="M413.53,171l2.66,3.42l5.63,2.68l5.39,0.72l2.65,2.63
		l0.859,2.09l-1.62,8.11l2.931-0.84l6.399,3.02l9.101-2.48l6.51,2.34l2.97,7.01l-1.22,4.81l4.82,1.78l8.02,0.66l3.63,2.53l7.87-5.11
		l5.93,1.09l7.11-7.34l5.92-0.85l1.94,1.45l4.13,5.21l-0.65,6.4l-4.569,11.52l-2.58,13.57l0,0l-6.71,3.72l-2.21,6.31l-3.37,2.18
		l-1.65,9.92l-4.479,4.97l-6.761,0.65l-3.97,10.77l-6.3,7.11l1.51,11.67l-5.27,2.23l-3.69-3.44l0,0l-4.27-5.59l-4,0.35l-6.94,5.39
		l-8.1,2.65l1.81,6.86l0,0l-8.18-1.58l-2.17,2.14l-6.88-11.55l-46.49-3.01l-2.96-2.46l-5.29-1.54l-3.7-0.32l-3.33,1.5l-8-3.49
		l-12.83,0.07l2.15-3.17l10.43-2.03l3.48-4.66l0,0l4.67,1.64l3.59-1.9l3.01-3.79l0.14-8.04l2.88-2.77l0.95-8.4l4.08,0.94l1.96-3.17
		l0.19-1.07l-4.14-2.67l-1.47-6.62l-2.26-2.63l-4.35-1.85l4.12-7.38l8.71-8.33l-1.53-7.34l3.41-1.92l2.25,0.65l0.6-1.38l-5.16-7.74
		l-0.07-3.17l9.92-6.25l1.85-6.62l8.5,1.8l8.1-8.24l3.261-1.02l0,0L413.53,171z"/>
	<path id="NP-JA" fill="#1E3250" stroke="#1E3250" stroke-width="0.5" d="M606.82,274.72l9.069,0.49l3.37,3.51l7.12-2.41l-2.18,4.38
		l1.47,1.8l5.32-2.75l4.33,1.87l1.229-2.48l-0.93-1.58l0,0l3.54,4.41l1.35,4.5l-1.47,6.52l2.57,7.04l-0.37,4.6l-8.11,3.729
		l-7.26,12.15l-3.42,1.97l-14.34,18.62l1.439,9.26l-2.54,5.07l5.07,1.48l10.86,7.819l-2.301,7.13l1.45,7.631l-2.14,8.93l-5.86,2.64
		l-4.74,4.771l-4.02,0.3l-6.311-1.84l1.04,9.67l-1.069,5.52l5.45,9.21l-3.03,6.221l0,0l-3.92,1l0.069-2.45l-6.899-3.51l-9.43-0.061
		l-1.881,1.061l-1.199,3.729l-9.44,5l0.36-4.21l-3.33,0.56l-1.58-2.399l-6.391-2.76l-1.3-3.36l1.11-6.27l-0.9-8.58l-8.17-4
		l-0.6-2.101l-4.8,2.63l-1.181-1.25l-0.88,2.061l-10.67,6.43l-4.85-0.97l-7.15,5.399l0,0l2.48-9.04l6.85-11.829l-1.31-7.711
		l1.489-4.479l6.74-6.65l1.74-11.59l-1.54-3.6l-3.66-3.05l-1.18-3.95l4.819-6.97l0,0l11.79,4.109l7.87,0.62l2.45-3.71l0.03-3.29
		l4.649-0.41l6.4-4.49l-0.65-11.939l5.601-3.59l8-14.86l7.7-0.77l-2.54-12.46l3.37-2.7l1.449-5.86l0,0l5.98-3.28l-1.94-5.57
		l-2.75-2.63l0.04-9.71l8.58-7.74l4.391,7.77l-1.94,2.57l1.18,7.33L606.82,274.72z"/>
	<path id="NP-KA" fill="#1E3250" stroke="#1E3250" stroke-width="0.5" d="M156.18,0.26l12.17,5.22l18.64,3.47l5.1,2.13l4.57-0.66
		l9.87,1.73l-1.13,3.31l1.68,7.54l4.89,6.14L209.79,37l1.09,1.58l20.49,7.02l2.45,2.04l6.54,0.55l1.91,2.74l6.22,3.35l2.47,4.53
		l9.32,8.31l4.84,8.82l6.53,2.81l2.57,2.98l7.54,0.88l15.44,8.12l6.47,0.83l1.62,2.36l7.82,2.08l1.53,2.33l0.08,4.57l7.55,3.32
		l-0.39,4.09l6.52,6.23l3.48,6.31l1.29,6.18l4.27,2.61l6.16,7.48l7.13,3.33l2.5-2.44l0,0l4.06,5.271l-1.61,3.71l-2.82,0.49
		l-1.11,1.6l-1.09,10.83l-11.29,14l-1.8,9.23l-20.66,8.61l-7.94-1.23l-3.92-2.67l-0.9,0.93l0,0l-19.19-8.85l-15.04-0.13l-9.34-4.26
		l0.34-4.46l-6.33-8.31l-7.01-2.67l0,0l-7.37-2.21l-6.73,2.12l-2.03-1.6l1.02-11.21l-12.5-1.76l-12.42,7.08l-4.44,8.2l-2.79,1.5
		l-10.54-3.88l-2,2l-3.36,1.05l-2.99-0.96l-4.14,2.66l-4.92-4.3l-8.9-1.12l-1.98-3.49l-2.94-0.75l-5.95,1.79l-3.81-2.42l-0.47-2.5
		l2.04-4.21l-2.21-0.72l0,0l-5.65-3.55l-1.3-2.64l0.67-7.68l-2.35-3.23l10.94-10.47l3.75-0.1l2.85,3.12l0.43,2.77l1.61,0.68
		l6.67-2.99l6.51-7.16l0.94-3.84l-3.7-10.37l-0.39-9.54l-2.1-1.86l-3.26-0.28L162.74,84l0.25-2.48l3.6-2.47l0.92-2.45l1.09-8.51
		l2.59-1.82l-0.08-7.87l-8.52-1.29l-4.57-3.05l-7.03,2.3l-3.52-0.27l-8.12,3.84l-0.38-10.25l-1.76-1.97l-4.03-1.92l-2.89,2.31
		l-2.38,0.06l-9.54-5.76l0,0l0.81-9.69l7.27-0.85l5.07-7.21l2.1-10.11l-2.13-5.41l0.8-6.19l8.33-1.74l3.57,4.18l5.65,1.65
		l0.89-6.271L156.18,0.26z"/>
	<path id="NP-KO" fill="#1E3250" stroke="#1E3250" stroke-width="0.5" d="M695.66,291.66l10.01,1.1l3.59-2.8l7.221,1.48l7.39-2.47
		l1.189,0.63l-0.609,1.9l3.78,0.71l11.46-5.03l1.27,5.46l1.96,0.89l7.75-3.55l0,0l-1.62,11.39l-6.39,8.76l-3.13-2.25l-3.38,9.89
		l-4.67,2.78l-2.57,16.94l0.399,6.779l4.721,7.391l4.43,2.58l11.2,1.59l8.149,4.75l-8.26,9.53l-7.649,4.04l-9.04,14.1l2.34,5.29
		l-0.51,2.4l15.439,9.39l-0.46,8.03l-3.29,9.37l1.311,5.699L746.1,429.9l3.721,14.54l0,0L746,447.72l0.13,1.391l-3.8,0.22
		l-0.48,1.07l-1.869-0.16l-4-3.95l-8.54-2.3l-9.11,3.52l-1.16,5.12l-1.68,1.33l-2.721-2.57l-4.6-0.21l-0.49-4.01l-10.26,0.51
		l-6.4-5.069l-1.989-14.681l-2.62-0.08l-2.92,5.841l-6.94,1.829l0,0l0.931-8.539L690.1,409.85l8.45-8.279l2.5-6.69l-1.83-2.26
		l-2.79-0.5l-7.62,1.96l-5.189,3.42l-3.49-4.25l1.04-4.36l-2.28-4.58l-0.14-8.46l-3.87-2.8l-0.51-2.13l2.189-6.71l-2.27-8.02
		l4-1.141l3.81-4.17l-3.05-0.96l0.11-3.49l-3.26-3.6l-1-5.73l3.43-4.989l1.52-13.38l2.681-5.421l1.81-9.689l-3.28-3.51l3.311-5.97
		l-3.561-9.51l0.65-6.82l0,0l3.49-0.02l7.069,6.83l4.11,1.93l1.37,1.96L695.66,291.66z"/>
	<path id="NP-LU" fill="#1E3250" stroke="#1E3250" stroke-width="0.5" d="M298.61,245.14l15.04-2.7l1.5,1.31l4.57-0.21l0.19,3.41
		l-2.35,3.39l1.44,1.56l9.95,3.2l3.36,4.9l3.93,1.95l3.95-1.11l5.06,2.65l3.94,7.58l0,0l-3.48,4.66l-10.43,2.03l-2.15,3.17
		l12.83-0.07l8,3.49l3.33-1.5l3.7,0.32l5.29,1.54l2.96,2.46l46.49,3.01l6.88,11.55l2.17-2.14l8.18,1.58l0,0l-3.71,5l-3.59,1.33
		l-1.47-1.11l-17.73,9.37l-4.12,6.601l-20.51,1.83l-0.89,1.77l4.25,1.19l-3.35,6.5l0,0l-7.25,0.92l-2.31-1.221l-0.93,0.98
		l-0.43,1.66l4.85,5.06l-1.94,3.431L348.96,330.8l-20.78-1.02l0.46,2.63l-1.56,2.82l1.47,3.3l-1.44,2.85l-3.29,3.601l-4.5,1.18
		l-3.26-1.92l-0.62-3.74l-8.68-7.97l-15.83,0.01l-7.17-2.17l-2.4-3.11l-18.08-0.05l1.3-9.09l-1.69-3.2l0.62-2.13l-2.76-3.38
		l-0.24-7.31l-1.24,0.97l0,0l-0.11-1.78l1.75-1.45l7.81,1.15l6.72-4.67l-8.06-3.68l2.67-6.99l3.87-2.4l18.38-2.09l-1.79-4.9
		l-4.45-2.74l1.06-7.28l9.09-8.06l-3.7-2.44l0.25-4.58l-1.19-1.26L298.61,245.14z"/>
	<path id="NP-MA" fill="#1E3250" stroke="#1E3250" stroke-width="0.5" d="M85.52,28.42l13.15-2.5l4.61,6.1l-1.17,6.86l2.89,2.17l0,0
		l-9.51,6.29l-2.52,7.43l6.66,13.11l1.01,4.52l-2.25,4.26L83.8,79.07L71.04,84.9l0.76,9.22l-1.3,2.94l-1.89,0.52l0.46,2.98
		l3.59,2.46l0.42,3.45l4.37-0.09l2.37,1.52l1.68,4.33l-5.04,6.55l-4.21,0.55l-3.62,2.28l0.85,5.63l-6.08,10.54l-11.93,5.54
		l-1.39,4.37l-2.83,1.53l1.28,2.78l-3.17,9.1l-0.99,17.47l3.81,9.45l-0.35,7.24l0,0l-4.06,2.71l1.2,9.58l1.21,1.24l-1.01,1.23
		l-5-3.4l-0.61-3.58l-2.69-1.91l-6.79,0.24l-3.62-3.51l-0.94-3.33l-5.96-3.14l-0.01-3.2l-5.06-0.73l-7.6-6.94l-6.19-0.79l-0.38-9.99
		l3.53-7l3.75-2.78l-1.05-3.16l2.15-7.84l3.31-3.07l5.34,1.49l3.27-2.86l-1.93-8.37l4.73,2.32l1.4-13.9l-3.07-2.38l-0.78-5.65
		l-2.82-1.57l-0.26-3.66l3.36-1.87l2.2,0.78l-1.07-2.13l1.04-1.85l1.31,0.59l3.68-4.03l-0.21-3.82l4.53-2.26l1.59-3.05l0.97-4.83
		l-2.85-3.15l-2.4-6.33l0.35-2.69l2.76-1.23l0.77-3.37l2.76-1.75l5.73,1.03l1.13-2.73l5.18-4.72l1.14-6.85l2.73-3.43l7.97-0.8
		l3.88-4.38l2.28-0.29l2.44-6.02l10.35-8.48l-0.68-4.69l3.42-4.98l1.48,0.08l0.25,3.31L85.52,28.42z"/>
	<path id="NP-ME" fill="#1E3250" stroke="#1E3250" stroke-width="0.5" d="M789.59,286.89l8.061,0.43l2.239,1.66l-2.43,3.52
		l2.17,3.43l-4.02,6.39l-0.66,6.8l-6.63,9.03v2.77l-3.54,7.53l2.31,5.54l-2.6,6.64l2.04,4.93l-2.92,6.32l-1.73,12.91l-2.56,5.64
		l3.33,2.95l0.31,3.22l1.73,1.9l3.8,0.29l0.84,3.14l4.12,2.33l-1.12,4.19l2.05,2.17l0.01,4.21l3.17,3.1l-0.75,2.48l1.58,4.52
		l0.19,8.641l-2.64,9.029l-2.721,3.631l0.061,3.109l-2.561,2.05l-0.29,11.92l-6.88,7.511l-0.22,2.38l-3.13-0.79L779.6,449.1
		l-6.279-2.779l-1.15-1.59l0.89-1.4l-2.569-0.32l1.05-1.05l-1.97-3.03l-3.061,2.54l-0.95,2.98l-6.029-3.521l-2.221,6.42l-2.579-1.06
		l-0.471,1.21l-4.439-3.06l0,0L746.1,429.9l1.591-1.471l-1.311-5.699l3.29-9.37l0.46-8.03l-15.439-9.39l0.51-2.4l-2.34-5.29
		l9.04-14.1l7.649-4.04l8.26-9.53l-8.149-4.75l-11.2-1.59l-4.43-2.58l-4.721-7.391l-0.399-6.779l2.57-16.94l4.67-2.78l3.38-9.89
		l3.13,2.25l6.39-8.76l1.62-11.39l0,0l2.35,0.84l0.971,2.25l2.5-2.1l4.319,2.32l1.971-2.68l3.12,0.62l2.68,2.71l2.96-0.48l3.55-3.22
		l1.55-4.45l4.96-4.1l4.16,1.21L789.59,286.89z"/>
	<path id="NP-NA" fill="#1E3250" stroke="#1E3250" stroke-width="0.5" d="M454.46,291.51l-2.85,3.18l0.359,3.05l-2.529,3.24
		l0.3,1.47l8.26,1.68l4.3-0.91l3.59,2.43l0.4,2.43l1.77,1.22l6.881,0.72l2.489-3.439l3.74,1.84l9.68-3.57l9.95,4.19l6.021,0.79
		L511.56,322l0.21,9.26l5.74,4.181l17.3,6.54l0,0l-4.819,6.97l1.18,3.95l3.66,3.05l1.54,3.6l-1.74,11.59l-6.74,6.65l-1.489,4.479
		l1.31,7.711l-6.85,11.829l-2.48,9.04l0,0l-12.53-2.09l-2.939-5.93l1.6-5.96l-8.38-0.29l-2.27,0.71l-0.011,1.21l-5.22,0.1
		l-0.12-2.34l2.55-1.109l-4.72-1.08l-0.899-2.34l-2.971-0.49l0.96-2.271l-1.93-2.41l-5.97-1.149l-7.07-5.22l-3.12,2.649l-1.939-2.35
		l-1.41,1.96l-11.51-5.12l0.43-2.89l2.729-3.24l1.271-13.271l-6.86-12.739l-32.2-5.04l-3.84-7.181l-3.6,1.11l-0.74-3.07l-5.49-2.109
		l-0.1-3.53l-2.47,0.86l-2.23-0.921l-5.19,8.36l-10.35-0.02l0,0l3.35-6.5l-4.25-1.19l0.89-1.77l20.51-1.83l4.12-6.601l17.73-9.37
		l1.47,1.11l3.59-1.33l3.71-5l0,0l-1.81-6.86l8.1-2.65l6.94-5.39l4-0.35L454.46,291.51z"/>
	<path id="NP-RA" fill="#1E3250" stroke="#1E3250" stroke-width="0.5" d="M247.58,162.1l7.01,2.67l6.33,8.31l-0.34,4.46l9.34,4.26
		l15.04,0.13l19.19,8.85l0,0l0.49,2.97l-4.08,8.08l-6.55,3.15l-6.38-0.47l-2.07,1.91l2.6,3.7l-1.04,2.11l-4.81-0.96l-1.64,2.63
		l-3.8,2l2.87,4.19l-2.54,0.5l0.07,1.48l3.6,5.46l5.54,6.14l7.44,4.18l4.7,5.34l0.06,1.95l0,0l-7.04,4.76l1.19,1.26l-0.25,4.58
		l3.7,2.44l-9.09,8.06l-1.06,7.28l4.45,2.74l1.79,4.9l-18.38,2.09l-3.87,2.4l-2.67,6.99l8.06,3.68l-6.72,4.67l-7.81-1.15l-1.75,1.45
		l0.11,1.78l0,0l-3.93-0.12l-6.15,2.73l-13.75,2.16l-24.71-18.75l-7.98-2.22l-4.97-6.23l0,0l8.47-2.88l4.59,0.92l-0.74-8.62
		l-3.55-2.11l-0.84-3.7l-7.97-2.37l-4.79-7.53l-8.08-4.15l-2.32-3.76l-6.71-3.97l-4.01,0.4l-4.97-5.39l0.89-5.27l3.19-2.99
		l11.82,6.56l2.6,0.1l5.25-6.29l-1.41-6.45l5.45-7.01l-2.39-8.84l1.23-4.52l4.53-0.92l11.7,2.77l2.44-8.08l7.79-3.73l-0.6-4.34
		l2.59-3.38l3.85,0.59l4.74-6.28l9.02-4.88l2.56-2.87l0.39-6.57L247.58,162.1z"/>
	<path id="NP-SA" fill="#1E3250" stroke="#1E3250" stroke-width="0.5" d="M657.09,262.19l1.68,5.85l1.681-0.22l3.18,3.06l5.22-1.15
		l0.79,2.19l5.04,2.6l1.71,2.57l5.07,0.72l0,0l-0.65,6.82l3.561,9.51l-3.311,5.97l3.28,3.51l-1.81,9.689l-2.681,5.421l-1.52,13.38
		l-3.43,4.989l1,5.73l3.26,3.6l-0.11,3.49l3.05,0.96l-3.81,4.17l-4,1.141l2.27,8.02l-2.189,6.71l0.51,2.13l3.87,2.8l0.14,8.46
		l2.28,4.58l-1.04,4.36l3.49,4.25l5.189-3.42l7.62-1.96l2.79,0.5l1.83,2.26l-2.5,6.69l-8.45,8.279L677.48,426.98l-0.931,8.539l0,0
		l-1.09,0.141l-0.229,2.97l-3.49,0.19l0.04,2.75l-5.3,2.37l-7.311-1.96l-3.28,3.64l-15.939-8.03l-3.42-4.76l-3.67-0.09L622.58,427
		l-5.24-1.24l0.24-1.16l-8.76,0.351l-2.53,2.55l-2.91-0.5l-0.41-2.08l-1.56-0.02l0,0l3.03-6.221l-5.45-9.21l1.069-5.52l-1.04-9.67
		l6.311,1.84l4.02-0.3l4.74-4.771l5.86-2.64l2.14-8.93l-1.45-7.631l2.301-7.13l-10.86-7.819l-5.07-1.48l2.54-5.07l-1.439-9.26
		l14.34-18.62l3.42-1.97l7.26-12.15l8.11-3.729l0.37-4.6l-2.57-7.04l1.47-6.52l-1.35-4.5l-3.54-4.41l0,0l-1.95-2.15l0.54-3.95
		l7.54-7.88l5.14,0.58l4.32-3.34L657.09,262.19z"/>
	<path id="NP-SE" fill="#1E3250" stroke="#1E3250" stroke-width="0.5" d="M110.77,44.51l3.33,0.92l4.27-3.03l0,0l9.54,5.76
		l2.38-0.06l2.89-2.31l4.03,1.92l1.76,1.97l0.38,10.25l8.12-3.84l3.52,0.27l7.03-2.3l4.57,3.05l8.52,1.29l0.08,7.87l-2.59,1.82
		l-1.09,8.51l-0.92,2.45l-3.6,2.47L162.74,84l1.03,6.23l3.26,0.28l2.1,1.86l0.39,9.54l3.7,10.37l-0.94,3.84l-6.51,7.16l-6.67,2.99
		l-1.61-0.68l-0.43-2.77l-2.85-3.12l-3.75,0.1l-10.94,10.47l2.35,3.23l-0.67,7.68l1.3,2.64l5.65,3.55l0,0l0.17,1.03l-8.23,4.99
		l-3.62,4.92l0.03,6.77l9.78,13.28l4.47,8.74l-2.59,0.84l-2.01-0.92l-10.14-15.57l-7.48,1.74l-1.65-2.05l-5.29,1.17l-8.16-0.69
		l-11.21-6.65l-10.84,2.53l3.46,5.74l11.85,4.31l0.04,3.08l3.29,2.21l2.48-4.22l2.19-0.58l1.12,6.83l5.66,13.87l-7.28,8.13
		l-4.52,7.74l-7.97,6.46l-3.08,6.71l0,0l-4.36-1.38l1.71-2.15l-2.28-0.39l-0.27-1.63l-4.09,1.48l0.6-1.8l-3.83-0.02l0.29-1.69
		l-1.32,1.31l-2.6-0.73l0.71-3.66l-1.71-1.19l-2.71-0.03l0.13,1.41l-7.75-3.61l-1.55-4.53l-6.75-1.12l-3.33-7.19l-7.35-0.69
		l-0.3-3.71l-4.03-1.2l0,0l0.35-7.24l-3.81-9.45l0.99-17.47l3.17-9.1l-1.28-2.78l2.83-1.53l1.39-4.37l11.93-5.54l6.08-10.54
		l-0.85-5.63l3.62-2.28l4.21-0.55l5.04-6.55l-1.68-4.33l-2.37-1.52l-4.37,0.09l-0.42-3.45l-3.59-2.46l-0.46-2.98l1.89-0.52l1.3-2.94
		l-0.76-9.22l12.76-5.83l14.59-2.41l2.25-4.26l-1.01-4.52l-6.66-13.11l2.52-7.43l9.51-6.29l0,0L110.77,44.51z"/>
</g>
</svg>
