<?xml version="1.0" encoding="utf-8"?>
<!-- Generator: Adobe Illustrator 15.0.0, SVG Export Plug-In . SVG Version: 6.00 Build 0)  -->
<!DOCTYPE svg PUBLIC "-//W3C//DTD SVG 1.1//EN" "http://www.w3.org/Graphics/SVG/1.1/DTD/svg11.dtd">
<svg version="1.1" id="Layer_1" xmlns:amcharts="http://amcharts.com/ammap"
	 xmlns="http://www.w3.org/2000/svg" xmlns:xlink="http://www.w3.org/1999/xlink" x="0px" y="0px" width="682.5px" height="616.5px"
	 viewBox="0 0 682.5 616.5" enable-background="new 0 0 682.5 616.5" xml:space="preserve">
<defs>
	
	
		<amcharts:ammap  projection="mercator" bottomLatitude="23.706264" leftLongitude="60.895802" topLatitude="37.095717" rightLongitude="77.845456">
		</amcharts:ammap>
</defs>
<g>
	<path id="PK-BA" fill="#1E3250" stroke="#1E3250" stroke-width="0.5" d="M325.83,241.13l8.46,0.33l4.85-5.45l5.76-0.93l-1.14,3.85
		l2.77,1.78l-1.42,3.64l1.29,0.84l2.81-1.6l-1.03,16.63l3.25,2.32l1.14,6.48l2.01-4.22l2.78-0.31l2.83-2.43l0.73,1.05l-0.82,14.34
		l0.97,2.91l0,0l0.44,11.39l-2.48,0.46l-0.41,2.63l-4.17,2.51l0.53,4.18l-4.46,7.739l-1.47,6.36l1.42,2.84l2.2-1.529l1.23,1.71
		l-3.29,4.18l0.02,3.14l-4.9,10.971l-3.64,3.949l-5.56,2.811l-1.26,9.58l3.72,1.52l-0.42,2.71l1.55,2.29l1.64-1.16l0.66,0.9
		l-1.73,8.31l-7.6,7.771l-0.34,2.92l1.27,1.99l-1.96,4.62l-2.51,3.79l-3.39,1.899l2,4.24l0,0l-35.11,1.29l-3.65,4.68l-15.94,11.24
		l-2.08,3.46l-10.27,4.24l-10.19,2.1l-0.99,4.66l-6.76,9.88l-2.18,11.11l1.53,31.149l11.06,19.351l-0.67,12.91l-2.4,6.17
		l-3.29,2.609l-0.64,2.63l-1.9,0.891l-2.46,4.34l0.18,3.49l-5.31,6.85l-0.13,2.66l-3.16,3.47l-2.95,0.41l-5.99,5.07l0,0l-1.34-1.771
		l2.51-10.95l-7.46-7.16l1.4-2.859l-0.9-2.15l-4.8-1.319l-0.16-1.421l-1.59,0.301l0.19-1.75l-2.12-0.78l-3.76,2.06l3.87,0.04
		l3.27,2.761l3.28,0.33l0.43,1.52l-1.45,0.13l1.28,1.37l-9.14-2.7l-17.61,2.061l-7.32,2.8l-6.97-1.601l-7.36,0.521l-3.02,3.229
		l-16.45-0.699l-4.72,2.47l-0.13,2.53l2.04,0.819l-3.85,1.2l-0.67-0.96l1.56-1.79l-1.79-1.85l-6.69,1.08l-6.71-3.19l-5.17-0.5
		l-0.05-1.68l-0.73-1.351l3.06-0.04l1.11-1.93l-2.23-1.34l-4.79,0.57l0.74,1.02l-1.83,0.76l0.99,1.311l1.82-0.91l0.47,3.51
		l-13.87-2.51l-4.71,0.72l-2.99,1.8l-0.04,5.131l-14.31-2.23l-4.66,2.021l-18.32-2.44l-7.12,3.97l-0.71,2.38l1.78,1.04l-4.48-0.42
		l2.27-0.68l-0.42-2.3l-5.37-1.97l-4.15,1.8l1.3,3.33l-7.11-0.38l-1.78,0.77l-0.39,2.3l-4.72,0.63l1-4.399l-7-2.49l3.05-4.82
		l1.98-16.569l-0.68-4.82l3.53-0.81l2.61-17.551l10.57-3.8l0.44-3.14l5.81,1.359l-1.01-3.76l2.03-1.32l-0.11-2.05l4.97-1.88
		l6.72-0.729l6.6-2.891l15.1,0.21l0.89-8.45l3.45-1.34l-0.99-9l2.38-2.41l-5.15-4.449l-9,2.14l-6.52-1.83l1.92-3.06l-0.97-1.521
		l1.86-5.42l-3.37-24.66l0.92-10.68l-7.72,0.96l-6.79-7.14l-14.44-3.92l-9.25-5.801l-11.6-16.14l-1.31-4.68l-2.12-0.95l0.5-2.561
		L17.73,360l0.57-2.91l-6.96-6.8L0,335.46l61.2,20.41l45.77-4.42l11.78,2.24l6.57,2.829l1.91-4.43l11.56-4.859l18.33,0.21l3.58,1.43
		l28.35-8.44l-0.02,1.101l18.57-6.271l3.5-5.16l-4.59-4.8l2.51-3.62l2.98-12.81l-0.62-2.68l-2.69-1.931l3.49-9.74l-0.99-1.36
		l4.77-5.98l-1-0.71l5.28-1.12l4.01-4.55l1.29-6.74l2.42-0.05l4.23-3.74l4.29-0.69l1.13,1.11l-1.08,2.37l1.84,1.39l9.4,0.95
		l17.71-6.54l1.05-1.31l-0.72-1.95l-5.32-0.03l-3.09-5.78l6.79,1.1l5.09-4.69l7.44-3.09l4.46-7.13l3.5,1.48l1.05,2.02l5.23-0.02
		l5.74-3.2l2.4,2.25l2.69,0.38l0.59,3.31l3.4,3.92l4.33,0.24l1.25-1.85l2.78,0.86l3.75-3.46l3.08-6.57L325.83,241.13z"/>
	<path id="PK-GB" fill="#1E3250" stroke="#1E3250" stroke-width="0.5" d="M535.43,3.62l3.471-1.95l0.76,3.59l2.75,2.58l3.979-3.71
		l4.7-0.41l3.5,3.01l6.36,0.71l2.04,10.64l2.96-0.05l0.59-2.11l4.1-0.11l10.311,7.13l4.12,10.12l-1.44,5.54l2.61,3.16l-1.91,0.29
		l0.5,2.6l-3.19,1.56l0.37,3.08l2.141,2.44l3.489,0.17l2.721,4.12l0.5,4.49h6.72l1.729-1.78l6.721-2.23l1.109,6.32l6.051,5.25
		l3.859,0.14l3.92,3.07l3.99,0.33l5.03,3.37l4.859-0.12l3.44,2.94l5.21-1.29l6.18,0.73l3.94-1.73l1.76,0.76l-26.55,21.05l-3.42,1.44
		l-1.94-0.68l-0.8,4.67l-4.93-1.56l-4.67,2.15l-0.23,4.06l-2.38,3.78l-4.64,0.06l-3.391-1.69l-12.229,7.07l-4.7-1.26l-11.11,7.23
		l-11.01-1.29l0,0l-4.28-4.7l0.19-6.49l-3.89-5.84l-7.46,5.14l-2.11-3.04L539.31,103l-1.97,0.9l0.92-6.2l-6.83-5.1l-5.79,3.58
		l-6.05-2.68l-7.97,0.53l0,0l-12.63-5.33l-2.84,0.77l-1.051-7.66l4.15-5.69l-20.33-5.19l-5.61-4.51l-0.46-6.15l-1.22-1.03l-4.5,1.25
		l-5.84-1.05l-5.98,1.79l-3.699-1.31l-2.41-2.58l2.1-5.11l-1.87-3.95l1.641-7.22l4.479-1.07l6.73-5.32l0.939-3.7l3.271-0.87
		l2.93-3.18l1.45-3.25l-0.5-4.11l13.43-2.92l6.92,2.13l10.12-0.02l-0.29-4.02l-5.569-2.67l-1.37-2.07l0,0l0.069-1.03l6.86,0.11
		l10.82,3.24l1.25-3.28l3.88,0.45l6.5-4.61l3.75-0.14l1.59,1.87l2.37-6.21l2.45-0.29L535.43,3.62z"/>
	<path id="PK-IS" fill="#1E3250" stroke="#1E3250" stroke-width="0.5" d="M468.43,158.06l3.87-1.97l5.12,0.31l5.25-4.12l0,0
		l0.89,7.26l2.061,1.02l2.14,5.08l0.2,7.04l-6.43,2.02l-6.17-1.23l-2.391-2.9l-1.16-8.97l-3.109,2.74L468.43,158.06z"/>
	<path id="PK-JK" fill="#1E3250" stroke="#1E3250" stroke-width="0.5" d="M511.62,94.03l7.97-0.53l6.05,2.68l5.79-3.58l6.83,5.1
		l-0.92,6.2l1.97-0.9l6.521,3.37l2.11,3.04l7.46-5.14l3.89,5.84l-0.19,6.49l4.28,4.7l0,0l-4.41-0.88l-3.899-3.98l-8.94,0.27
		l-4.18-1.95l-7.061-0.26l-5.72-3.81l-10.56-1.42l-6.4,5.11l-7.02-0.25l-1.271,2.37l0.8,3.41l-2.04,1.23l0.13,2.38l-4.71,3.71
		l-0.14,3.11l4.88-0.47l2.97,4.43l0.011,2.47l-3.511,6.36l0.48,1.96l4.17,0.48l4.55-1.52l4.84,1.92l0.48,4.14l-1.6,2.67l-5.961,2.18
		l-4.229,4.62l2.79,6.74l2.6,0.2l3.53,5.3l-0.63,5.02l-2.62,3.51l-3.2,0.54l-0.229,2.78l3.77,1.56l3.62,5.57l5.59,1.24l-1.229,4.43
		l3.71,0.72l1.85,5.14l0,0l-3.7,0.86l-1.409-1.94L506.84,195l-3.16-3.78l-4.46,1.16l-6.87-3.94l1.25-4.63l-1.409-0.96l-2.07-7.19
		l2.17-4.03l0.01-5.04l-2.25-2.56l1.16-3.44l-1.24-4.18l0.73-4.32l-2.15-4.36l0,0l-2.53-13.92l-2.529-3.83l1.68-9.23l5.38-1.53
		l2.3,0.98l0.87-5.97l2.42-3.79l9.931-4.32l3.96-7.09l-0.761-3.37L511.62,94.03z"/>
	<path id="PK-KP" fill="#1E3250" stroke="#1E3250" stroke-width="0.5" d="M493.61,9.99l1.37,2.07l5.569,2.67l0.29,4.02l-10.12,0.02
		l-6.92-2.13l-13.43,2.92l0.5,4.11l-1.45,3.25l-2.93,3.18l-3.271,0.87l-0.939,3.7l-6.73,5.32l-4.479,1.07l-1.641,7.22l1.87,3.95
		l-2.1,5.11l2.41,2.58l3.699,1.31l5.98-1.79l5.84,1.05l4.5-1.25l1.22,1.03l0.46,6.15l5.61,4.51l20.33,5.19l-4.15,5.69l1.051,7.66
		l2.84-0.77l12.63,5.33l0,0l-2.351,1.63l0.761,3.37l-3.96,7.09l-9.931,4.32l-2.42,3.79l-0.87,5.97l-2.3-0.98l-5.38,1.53l-1.68,9.23
		l2.529,3.83l2.53,13.92l0,0l-4.76,2.01l0.479,1.82l-1.6,0.72l0,0l-5.25,4.12l-5.12-0.31l-3.87,1.97l0,0l-1.87,0.79l-1.1-1.43
		l-3.38-0.28l-1.89-8.47L456.34,152l-1.81-0.11l-1.13-0.88l0.93-2.44l-3.32-0.23l-1.319-2.53l-2.891-1.01l-7.97,4.26l0.32,7.63
		l-5.971-0.86l-2.04,1.66l-2.149,4.19l-0.891,6.49l-3.18,4.97l-6.53,3.73l-0.699,3.63l2.22,4.28l-1.68,4.88l-3.69-1.81l-2.03-5.12
		l-6.81-0.69l1.88,9.76l-3.85,1.84l-3.04-0.91l-3.54,2.26l-2.391,8.14l2.11,7.9l3.85,1l-0.91,3.31l4.53-1.02l-0.22,7.14l-3.74,0.93
		l-2.899,4.18l-0.03,3.35l-2.82,1.85l-2.43,11.93l-6.68,9.31l-1.58,6.48l1.6-0.64l0.63,1.44l-0.65,3.93l-1.94,0.98l-0.44,4.08
		l-2.42,2.05l-0.73-2.64l-2.32,1.12l-4.59-1.43l-4.12,2.04l-1.79,3.28l0,0l-3.04-12.15l3-2.61l-3.8-1.8l-1.52-2.48l-6.69-24.09
		l14.59-13.22l3.66-1.06l-6.96-11.08l-0.23-4.09l3.59-7.29l2.62-3.48l6.76,0.04l6.07-6.35l-6.3-1.37l-0.53-1.67l-5.61-3.59
		l-2.3-3.91l3.67-0.41l5.61-3.05l1-3.84l6.73,1.12l5.78-0.97l2.29-7.33l7.88,5.18l11.3,0.19l-1.55,2.34l1.359,1.85l3.48-0.57
		l5.01-4.06l-0.89-2.03l1.88-3.51l-4.351-3.38l-3.51,3.75l-5.41,0.4l-0.39-4.06l-3.43-2.22l-1.971-6.71l0.07-3.79l2.92-5.78
		l9.771-11.55l-1.881-3.75l1.99-4.24l2.57-1.53l1.22-4.3l-1.479-1.58l-4.261-0.76l-4.75-7.48l0,0l2.301-2.82l-2.03-2.97l5.939-5.47
		l-4.739-4.96l4.04-5.67l-1.971-3.76l0.99-2.49l-4.66-2.55l1.99-3.97l-3.16-3.15l0.92-1.37l-1.49-2.89l-2.899-2.53l-0.5-2.35
		l-2.15-0.4l-4.239-4.36l3.43-4.37l5.12-3.01l0.64-2.18l5.94-3l-1.69-2.35l2.94-3.03l0.05-1.87l5.56,3.56l2.38,0.061l0.17-1.43
		l-1.67-0.61l0.521-3.04l2.979,0.01l1.021-2.66l6.24-1.75l0.239-2.46l4.25-0.77l-0.619-1.39l1.72-2.88l9.819-1.16l5.28-3.41
		l9.71,0.36l11.82-1.73l5.15,1.22L493.61,9.99z"/>
	<path id="PK-PB" fill="#1E3250" stroke="#1E3250" stroke-width="0.5" d="M367.17,273.7l1.79-3.28l4.12-2.04l4.59,1.43l2.32-1.12
		l0.73,2.64l2.42-2.05l0.44-4.08l1.94-0.98l0.65-3.93l-0.63-1.44l-1.6,0.64l1.58-6.48l6.68-9.31l2.43-11.93l2.82-1.85l0.03-3.35
		l2.899-4.18l3.74-0.93l0.22-7.14l-4.53,1.02l0.91-3.31l-3.85-1l-2.11-7.9l2.391-8.14l3.54-2.26l3.04,0.91l3.85-1.84l-1.88-9.76
		l6.81,0.69l2.03,5.12l3.69,1.81l1.68-4.88l-2.22-4.28l0.699-3.63l6.53-3.73l3.18-4.97l0.891-6.49l2.149-4.19l2.04-1.66l5.971,0.86
		l-0.32-7.63l7.97-4.26l2.891,1.01l1.319,2.53l3.32,0.23l-0.93,2.44l1.13,0.88l1.81,0.11l3.851-3.33l1.89,8.47l3.38,0.28l1.1,1.43
		l1.87-0.79l0,0l0.271,6.28l3.109-2.74l1.16,8.97l2.391,2.9l6.17,1.23l6.43-2.02l-0.2-7.04l-2.14-5.08l-2.061-1.02l-0.89-7.26l0,0
		l1.6-0.72l-0.479-1.82l4.76-2.01l0,0l2.15,4.36l-0.73,4.32l1.24,4.18l-1.16,3.44l2.25,2.56l-0.01,5.04l-2.17,4.03l2.07,7.19
		l1.409,0.96l-1.25,4.63l6.87,3.94l4.46-1.16l3.16,3.78l12.641,6.25l1.409,1.94l3.7-0.86l0,0l2.7,2.34l3.2-0.78l1.069-2.98
		l2.131-0.77l-2.12,10.46l1.72,5.39l5.75-0.15l5.33,2.21l2.2-2l2.029,0.53l1.761,2.69l2.34-0.15l5.49,4.23l1.26,4.41l-4.79,6.71
		l-1.7-1.34l-1.19,2.21l-1.869-0.67l-4.301,2.45l-3.06-1.67l-2.07,0.69l-2.45,4.33l-2.829,0.8l-1.03-0.93l-0.23,1.5l-3.979,1.76
		l-1.7,2.59l-1.51,4.8l3.229,7.01l-1.359,2.98l2.949,1.89l-5.06,8.46l-0.25,6.02l1.83,2.38l2.689-2.31l2.16,0.29l0.66,1.58
		l-2.78,2.17l-2.479-0.92l-0.79,3.32l-6.67,4.86l-0.101,1.77l-1.81-0.08l-2.09,3.57l0.76,1.69l-7.38,5.26l-0.52,3.72l-1.69-0.3
		l-2.76,3.51l-1.05-0.24l-2.48,4.21l3.35,4.77l0.33,2.971l-6.93,5.72L483.19,331l-4.65,16.89l-12.75,23.37l-21.54,11.57l-3.2,4.35
		l-4.55,13.44l-9.71,10.09l-1.39,7.39l-9.25,3.851l-14.9,1.18l-15.04,6.24l-4.9-0.82l-3.75-9.28l-5.04-4.439l-6.35,1.06l-6.15,5.37
		l0,0l-6.43-2.93l-3.22-3.01l-5.79-13.37l-0.21-3.19l-1.86-0.54l-0.66-2.21l-9.5-2.81l-4.22,1.84l0,0l-2-4.24l3.39-1.899l2.51-3.78
		l1.96-4.63l-1.27-1.98l0.35-2.92l7.59-7.78l1.73-8.31l-0.65-0.9l-1.65,1.17l-1.54-2.289l0.41-2.721l-3.71-1.52l1.25-9.58
		l5.57-2.811l3.64-3.949l4.9-10.971l-0.02-3.13l3.29-4.18l-1.23-1.71l-2.2,1.53l-1.42-2.83l1.47-6.36l4.46-7.74l-0.52-4.18
		l4.16-2.51l0.41-2.62l2.49-0.46l-0.45-11.4l0,0l0.68-4.33L367.17,273.7z"/>
	<path id="PK-SD" fill="#1E3250" stroke="#1E3250" stroke-width="0.5" d="M278.99,594.83l2.74-0.55l-0.97,5.52l-3.72-0.189
		L278.99,594.83z M394.83,558.77l-6.25-10.76l-1.98-8.899l-8.51-10.431l-0.32-13.13l-10.3,1.431l-4.64-1.601l-7.1-10.39l-0.52-5.54
		l3.49-7.34l-0.19-13.13l-3.93-2.091l-9.7,0.311l-11.6-6.37l-1.23-2.85l1.14-9.091l2.51-6.42l16.95-16.92l3.54-9.16l3.84-5.13l0,0
		l-6.44-2.93l-3.22-3.01l-5.79-13.36l-0.21-3.19l-1.86-0.529l-0.66-2.21l-9.51-2.811l-4.22,1.84l0,0l-35.11,1.29l-3.65,4.681
		l-15.94,11.239l-2.08,3.46l-10.27,4.24l-10.19,2.101l-0.99,4.659l-6.76,9.881l-2.18,11.109l1.53,31.15l11.06,19.35l-0.67,12.91
		l-2.4,6.17l-3.29,2.61l-0.64,2.63l-1.9,0.89l-2.46,4.34l0.18,3.49l-5.31,6.851l-0.13,2.659l-3.16,3.471l-2.95,0.409l-5.99,5.07l0,0
		l-2.07,1.66l0.28,1.3l7.32-1.51l4.93,3.229l-2.56-3.149l1.97-0.48l0.75,2.38l3.67,2.83l0.26-1.93l5.44,0.18l0.33,1.311l-2.47,1.55
		l1.11,1.8l-0.96,0.65l2.31,1.03l-0.61,3.949l2.98,4.59l0.43,3.2l1.62,0.9l-2.11,1.58l2.15,2.86l-0.57,1.43l2.77,8.18l3.55,1.63
		l-0.54,1.851l2.75,0.279l4.45,4.591l2.13-0.23l-0.46-1.06l4.21,0.699l0.42-3.779l4.27,2.97l0.98,2.97l2.67-0.84l-0.1-4.73
		l1.82,2.58l4.17-0.539l3.57-3.69l1.7,0.55l1.79-2.75l0.68,1.141l4.02-1.841l0.69,2.63l9.1-0.52l0.58-13.57l2.41-1.02l0.83,4.22
		l1.19,0.479l2.66-3.359l2.06,2.14l3.57-1.819l4.13,1.43l4.27-1.75l7.38,0.91l3.85-0.96l4.79,4.33l9.83,0.42l3.12-1.17l2.31-4.131
		l17.06-5.399l2,0.76l-1.54,2.36l0.08,3.89l8.96,1.25l3.42-1.45l-0.35-1.42l2.89-2.34l3.38-0.05l3.36-2.811l-4.89-1.199l-0.27-6.641
		L394.83,558.77z"/>
	<path id="PK-TA" fill="#1E3250" stroke="#1E3250" stroke-width="0.5" d="M411.14,101.43l4.75,7.48l4.261,0.76l1.479,1.58l-1.22,4.3
		l-2.57,1.53l-1.99,4.24l1.881,3.75l-9.771,11.55l-2.92,5.78l-0.07,3.79l1.971,6.71l3.43,2.22l0.39,4.06l5.41-0.4l3.51-3.75
		l4.351,3.38l-1.88,3.51l0.89,2.03l-5.01,4.06l-3.48,0.57l-1.359-1.85l1.55-2.34l-11.3-0.19l-7.88-5.18l-2.29,7.33l-5.78,0.97
		l-6.73-1.12l-1,3.84l-5.61,3.05l-3.67,0.41l2.3,3.91l5.61,3.59l0.53,1.67l6.3,1.37l-6.07,6.35l-6.76-0.04l-2.62,3.48l-3.59,7.29
		l0.23,4.09l6.96,11.08l-3.66,1.06l-14.59,13.22l6.69,24.09l1.52,2.48l3.8,1.8l-3,2.61l3.04,12.15l0,0l-5.44,2.31l-0.68,4.33l0,0
		l-0.96-2.91l0.81-14.34l-0.73-1.05l-2.82,2.43l-2.79,0.32l-2,4.22l-1.14-6.48l-3.25-2.32l1.03-16.63l-2.81,1.6l-1.29-0.84
		l1.42-3.64l-2.77-1.78l1.14-3.85l-5.75,0.94l-4.85,5.44l-8.46-0.32l0,0l-1.95-9.56l0.31-9.35l-1.55-4.79l1.72-3.26l3.87-1.54
		l3.12-4.44l-0.57-3.06l-1.87-1.65l5.1-4.57l-1.65-3.49l0.46-3.46l2.95-3.66l4.81,0.33l3.17-1.7l3.44,1.46l5.71-2.19l1.71-3.23
		l3.47,0.71l0.51-1.85l6.65-5.04l-1.08-3.97l-4.57-4.31l0.88-5.32l-2.07-0.76l-0.42-3.13l-5.81-0.64l-1.2-1.23l-0.08-2.58
		l-3.85-5.17l1.49-4l3.88-0.46l18.98,4.73l3.59-1.68l11.26-0.58l6.97-3.48l0.29-2.51l2.72-2.5l-0.81-5.01l1.899-4.25l-6.359-4.8
		l-0.43-4.37l1.25,0.83l2.71-2.04l1.18-2.14l-0.63-2.65l5.041-2.92l2.6-6.26L411.14,101.43z"/>
</g>
</svg>
