<?xml version="1.0" encoding="utf-8"?>
<!-- Generator: Adobe Illustrator 15.0.0, SVG Export Plug-In . SVG Version: 6.00 Build 0)  -->
<!DOCTYPE svg PUBLIC "-//W3C//DTD SVG 1.1//EN" "http://www.w3.org/Graphics/SVG/1.1/DTD/svg11.dtd">
<svg version="1.1" id="Layer_1" xmlns:amcharts="http://amcharts.com/ammap"
	 xmlns="http://www.w3.org/2000/svg" xmlns:xlink="http://www.w3.org/1999/xlink" x="0px" y="0px" width="800.5px"
	 height="1272.5px" viewBox="0 0 800.5 1272.5" enable-background="new 0 0 800.5 1272.5" xml:space="preserve">
<defs>
	
	
		<amcharts:ammap  projection="mercator" bottomLatitude="4.641372" leftLongitude="116.927358" topLatitude="20.834567" rightLongitude="126.606334">
		</amcharts:ammap>
</defs>
<g>
	<path id="PH-SUR" fill="#1E3250" stroke="#1E3250" stroke-width="0.5" d="M697.34,868.78l2.94,1.85l-4.65,2.67l3.88,3.54l2.851-2.9
		l-1.341,2.61l2.721,7.38l3.069,2.42l5.07-1.64l3.61-3.78l2.819,0.11l-3.529,14.85l2.279,2.12l0.54-1.12l8.03,9.771l-1.19,2.21
		l2.521,0.569l-1.33,2.761l2.021,2.939l-1.45,0.261l0.89,0.85l-1.75,3.02l-3.57,0.771l-3.039,3l-0.021,1.49l2.38,1.159l-4.189-0.18
		l-5.971,3.46l-1.609,2.84l3.08,2.11l-0.83,1.24l2.16,2.609l5.489,0.49l-2.38-1.939l1.61-0.61l5.83,2.09l4.739-1.399l-0.14,2.17
		l2.86,0.18l0.439,3.56l-2.5-0.34l-1.069,3.16l1.85-0.18l0.5,1.56l-1.73,2.96l-2.72,0.94l0.8,3.09l4.29,1.62l-5.439,4.67l2.14,3.2
		l8.17-4.41l-2.04,9.59l1.73,1.05l-3.32,6.45l0.67,1.82l2.46-0.25l-4.54,2.489l-1.93,3.221l0,0l-0.7-6.63l0,0l-0.39-3.681
		l-3.311-1.01l4.351-4.24l-4.811,0.511l-6.31-4.471l1.04-3.75l5.05-4.2l-1.67-3.859l0.859-4.63l-1.47,2.12l-5.79,0.38l-5.89-0.71
		l-2.79-2.721l3.51-3.899l-4.81,0.46l-1.25-7.601l-1.96-1.21l-0.38-4.649l1.449-2l-4.75-10.4l-3.569-4.09l-1.46-14.2l-8.92-12.14
		l0,0l-0.54-6.53l0,0l12.34-12.47l0,0L697.34,868.78z"/>
	<path id="PH-TAR" fill="#1E3250" stroke="#1E3250" stroke-width="0.5" d="M312.23,398.57l3,12.649l3.11,3.28l4.15,1.13l-2.33,4.17
		l3.11,9.851l-1.86,5.92l3.1,2.35l-0.73,2.92l0,0l-2.03,0.311l-0.2-1.25l-3.07,1.699l-2.98-1.05l-6.11,0.891l-14.72,6.859l0,0
		l-6.2-9.08l-8.87-5.33l1.65-10.989l2.63-5.131l3-1.75l-0.7-1.439l0,0l5.08-2.36l-0.52-1.359l5.51-7.301l6.42,2.681l4.85-3.07
		l2.91-8.87L312.23,398.57z"/>
	<path id="PH-TAW" fill="#1E3250" stroke="#1E3250" stroke-width="0.5" d="M225.73,1211.16l-0.99,2.63l-1.39-1.19l2.42-3.159
		L225.73,1211.16z M255.17,1206.92l2.96,2.03l-3.77-0.16l-0.54-1.43L255.17,1206.92z M228.27,1200.34l3.71,11.12l-3.51,8.56
		L228.27,1200.34z M253.4,1199.52l3.63,1.87l0.02,2.551l-3.61,0.54L253.4,1199.52z M269.12,1193.39l-0.9,3.46l-1.41,0.29l0.24-3.5
		L269.12,1193.39z M251.6,1191.86l-0.42,1.37l-2.56-0.2l0.32-1.391L251.6,1191.86z M276.58,1191.939l0.91,1.83l-2.58-2.029
		L276.58,1191.939z M283.97,1192.26l-2.8,0.13l1.76-1.56L283.97,1192.26z M253.96,1185.49l0.52,4.34l-5.46,1.71l1.94-4.561
		L253.96,1185.49z M290.23,1185.16l-0.53,2.31l-2.56-0.14L290.23,1185.16z M292.85,1183.39l-0.58,1.95l-1.1-0.38l0.15-2.17
		L292.85,1183.39z M290.25,1179.95l-2.56,1.53l-2-0.671l1.66-5.239l2.83,2.42L290.25,1179.95z M294,1175.439l-1.54,5.381
		l-0.66-2.931L294,1175.439z M283.03,1168.83l0.34,3.42l2.8,1.87l-1.7,3.069l-0.5,7.921l-4.17-1.471l1.98-2.81l-1.72-0.73
		l-0.85,2.17l-2.6-1.67l-1.81,2.58l-4.15-2.189l-3.19,1.92l-2.53,5.64l-2.2-0.78l-5.1,2.95l-2.93-0.64l-0.67-5l1.38-1.75l8.08-2.87
		l2.75-3.5l3.65,0.36l10.31-8.04L283.03,1168.83z M310.94,1165.07l-1.75-0.851l0.7-1.81l1.93,1.68L310.94,1165.07z M159.31,1045.51
		l1.53,1.53l-1.27,2.6l1.89,2.08l-7.63-1.81l-1.63-2.301L159.31,1045.51z"/>
	<path id="PH-ZMB" fill="#1E3250" stroke="#1E3250" stroke-width="0.5" d="M259.64,400.47l7.44,1.08l2.76-3.97l4.11,2.57l4.6-0.98
		l7.63,15.4l0,0l0.7,1.439l-3,1.75l-2.63,5.141l-1.65,10.979l8.87,5.33l6.2,9.08l0,0l-0.35,4.62l2.82,2.05l1.14,6.52l2.91,4.591l0,0
		l-1.8,3.56l-4.35-0.68l-1.29,3.14l0,0l-4.57,3.58l-5.2-5.75l-1.65,0.91l0.91,3.729l-2.56,5.62l-6.92-3.479l1.94-2.601l-2.2,0.59
		l0.35-2.949l-2.34-3.16l1.01-8.98l-3.61-18.72l-5.69-9.29l-3.47-2.97l1.97-1.33l-0.86-3.37l2.73,1.16l1.84-2.22l-2.3-3.561
		l0.87-1.27l-2.32,0.939l0.6-2.64l-1.52-1.97l2.17-5.351l-4.71-3.16l2.96-1.489L259.64,400.47z"/>
	<path id="PH-ZAN" fill="#1E3250" stroke="#1E3250" stroke-width="0.5" d="M513.99,923.4l3.18,0.8l1.13,2.39l3.62-1.3l-0.939,4.271
		l4.789,1.529l0,0l-0.369,29.59l0,0l-25.33-1.75l-2.44,17.74l-6.47-0.18l-8.391,6.12L479.4,982.3l0,0l0,0l0,0l-11.801-1.81l-6.56,1
		l-8.08,3.8l-7.26,6.03l-6.8,3.29l-5.94,8.8l-4.16,12.189l0,0l0,0l0,0l-3.6,6.96l-1.71,10.601l-5.351,5.09l-12.38,0.25l0,0
		l5.24-7.46l6.51-3.33l-2.439-4.64l4.39-10.03l-1.21-1.99l2.061-0.1l2.989-3.58l-2.739-1.6l2.149-5.181l-1.34-4l-2.271-1l1.311-1.92
		l1.52,0.41l-0.21-3.21l1.471-0.39l1.35-3.811l4.81-3.63l-0.02-3.8l8.65-5.66l17.3-3.26l5.649-5.771l1.78,3.011l2.46,0.649
		l13.99-2.53l6.05-4.92l-0.08-2.609l-4.229-4.17l3.369-1.48l-0.21-6.3l2.07-1.05l1.62-4.521l2.39-1.83l8.63-1.29l8.48,1l3.68-8.43
		l4.66,0.14l0.43-2.14l-3.039-3.07L513.99,923.4z"/>
	<path id="PH-ZSI" fill="#1E3250" stroke="#1E3250" stroke-width="0.5" d="M432.59,1049.16l0.15,3l-3.141-0.521l0.5,1.061
		l-2.72,2.25l1.71-4.94L432.59,1049.16z M478.21,1016.99l-1.53,5.27l-3-4.77l-2.52,0.89l-1.07,5.59l1.61,0.591l-0.32,2.989
		l1.851,1.41l1.17-2.24l3.83-0.85l1.39-2.1l2.24,0.729l-1.83-2.359l3.67,0.609l-2.74-2.81L478.21,1016.99z M467.6,980.49l-6.56,1
		l-8.08,3.8l-7.26,6.03l-6.8,3.29l-5.94,8.8l-4.16,12.189l-3.6,6.96l-1.71,10.601l-5.351,5.09l-12.38,0.25l0,0l-0.279,5.02l2.93,8.2
		l12.37,5.561l3.09-1.391l2.5-3.31l1.45-8.47l3.77-3.07l-0.75-5.67l2.4-3.05l0.779-6.54l2.021-1.11l0.53,2.16l1.09-0.51l3.82-5.54
		l-3.541-0.511l0.841-4.899l6.68-5.07l2.65-0.27l1.529-3.021l-3.96,0.88l-1.46-1.479l4.28-3.23l-0.55-1.5l4.41-6.01l8.34-3.91
		l1.03,1.68l1.47-1.63l3.79,2.82l1.649-0.93l3.25,1.29l0.54,2.279l-1.449-0.909l-1.311,3.68l0.48,6.02l2.46,3.82l-0.761,1.271
		l-1.72-1.23l-0.66,3.79l0.12,1.21l1.391-1.37l1.319,0.78l-0.27,3.25l4.41-2.23l-1.37-2.239l3.43-3.58l3.4,4.72l1.649-0.55
		l1.38,2.149l3.16-8.8l-0.62-3.479l2.261-0.021l0.279-3.88l1.641,0.22l0.949-2.06l0,0l-0.88-7.67l-12.31-1.561v-6.31L467.6,980.49z"
		/>
	<path id="PH-ABR" fill="#1E3250" stroke="#1E3250" stroke-width="0.5" d="M335.1,236.75l4.31,2.92l1.67,7.27l4.1-0.33l2.4,1.81
		l1.66,10.62l0,0l-2.26,1.31l2.05,5.86l-0.69,2.15l-8.15,5.26l-0.26,6.25l-5.78,12.18l0,0l-1.24,4.29l-2.86,0.19l0,0l-4.31,0.03
		l-3.06,2.26l-4.5-0.2l-1.99-2.52l1.11-4.67l-4.96-4.15l-4.09,0.22l-1.39-3.77l3.39-8.97l-4.37-1.78l-3.1,1.42l-1.12-1.57
		l4.92-15.28l0,0l3.4-7.24l7.87-2.7l2.71-4.4l4.04-1.42l3.63-3.66l5.56,0.71L335.1,236.75z"/>
	<path id="PH-AGN" fill="#1E3250" stroke="#1E3250" stroke-width="0.5" d="M663.57,871.34l7.89-1.38l9.07,1.67l3.899,3.26l0.53,4.86
		l0,0l0.54,6.53l0,0l0.89,5.22l-1.51,6.63l-3.689,6.41l-4.08,12.86l2.54,8.069l-12.9-0.189l-4.31,2.97l-14.171,0.05l0,0
		l-0.779-14.28l1.74-1.39l-2.641-3.59l1.24-2.46l-2.22-9.88l0,0l2.31,4.52l3.04,2.811l3.771,0.109l0.039,1.58l0.62-1.529l6.32,1.05
		l6.7-2.94l0.76-13.02L663.57,871.34z"/>
	<path id="PH-AGS" fill="#1E3250" stroke="#1E3250" stroke-width="0.5" d="M685.5,886.28l8.92,12.14l1.45,14.2l3.57,4.09l4.75,10.4
		l-1.45,2l0.38,4.649l1.96,1.21l1.25,7.601l4.81-0.46l-3.51,3.899l2.79,2.721l5.89,0.72l5.78-0.38l1.48-2.12l-0.86,4.63l1.67,3.86
		l-5.05,4.21l-1.04,3.75l6.31,4.47l4.811-0.5l-4.351,4.24l3.311,1.01l0.39,3.68l0,0l-13.67,0.07l0,0l-8.5,4.729l-3.46-2.01
		l-1.25-2.59H679.7l0,0l-21.311,0.92l0,0l0.45-6.7l-2.56-8.52l0.79-3.07l-7.431-9.75l-1.229-15.399l0,0l-0.141-5.681l0,0
		l14.171-0.05l4.31-2.97l12.9,0.189l-2.54-8.069l4.08-12.86l3.689-6.41l1.51-6.63L685.5,886.28z"/>
	<path id="PH-AKL" fill="#1E3250" stroke="#1E3250" stroke-width="0.5" d="M409.91,688.02l8.84,7.33l10.3,1.761l6.33,5.819
		l3.95-0.239l-0.6,1.949l2.02-1.069l2.52,4.29l5.58,4.569l-0.96,0.75l-4.859-4.89l-1.98,0.78l2.34,2l0.12,2.31l1.59,0.33l0.44-1.52
		l0.22,3.92l2.11,0.06l1.06-3l5.771,3.23l0,0l-4.7,5.25l-8.43,0.09l-6.69,9.22l-7.43,3.021l0,0l-1.29-2.221l0.609-3.17l-4.05-6.439
		l1.44-4.391l-0.98-8.21l2.71-5.479l-1.21-2.86l-12.7-5.14l-3.859,0.5l-6.55,4.319l0,0l2.67-3.899l0.31-6.17L409.91,688.02z
		 M407.33,683.46l1.27,4.42l-2.569-3.61L407.33,683.46z"/>
	<path id="PH-ALB" fill="#1E3250" stroke="#1E3250" stroke-width="0.5" d="M567.48,592.03l5.399,1.81l0.97,2.68l-11.529-2.329
		L567.48,592.03z M556.41,588.73l0.59,1.51l1.34-2.021l1.87,2.11l1.13-1.521l3.96,1.551l-5.54,3.14l-2.22-1.62l-3.01,0.34
		l-3.08-3.95L556.41,588.73z M547.53,583.3l5.5,1.94l-3.271,3.47l1.84,3.09l-1.92,1.08l-3.279-3.61l1.68-3.13l-1.6-1.529
		L547.53,583.3z M541.13,579.33l6.23,2.83l-1.21,1.88L541.13,579.33z M529.42,571.32l5.26,2.77l5.03,11.57l8.74,6.01l-0.4,1.23
		l-6.3-0.271l-1.48,4.42l2.29,4l-0.72,1.84l-1.78-0.01l0.08,1.78l3.66,1.3l5.521-7.05l4.43,1.859l0,0l-2.56,5.721l-3.41,0.029
		l-6.46,4.051l-2.53-2.83l-7.63,1.01l-3.97-1.53l-6.79,3.12l0,0l-5.36-4.22l-6.17,2.979l-2.86-3.64l0.46-6.86l2.82-3.689l-3.74-4.8
		l0,0l11.41-7.38l3.93,0.159l6.841-2.76l0.289-3.25l-3.079-4.729l4.189-1.42l0,0L529.42,571.32z"/>
	<path id="PH-ANT" fill="#1E3250" stroke="#1E3250" stroke-width="0.5" d="M401.57,700.91l6.55-4.32l3.86-0.5l12.699,5.141
		l1.21,2.859l-2.71,5.48l0.98,8.21l-1.44,4.39l4.05,6.44l-0.609,3.17l1.29,2.22l0,0l0.12,7.2l2.699,5.46l0,0l5.91,8.189l0.25,6.94
		l-8.92,7.38l-1.85,5.72l-7.391,4.851l-3.779,8.489l-0.76,5.9l1.38,1.97l0,0l-5.021,4.471l-3.59-2.971l0.19-4.26l3.199-3.41
		l1.46-8.52l-3.989-7.08l4.409-12.22l5.07-7.49l-1.529-11.641l1.369-5.29l-1.79-2.8l2.261-3.13l-0.44-9.2l2.44-2.489l1.029-15
		l-2.63-2.71L401.57,700.91z M371.87,693.18l7,1.641l-1.15,1.399l-7.3-0.59L371.87,693.18z M380.6,686.34l2.06,4.03l-2.17,1.07
		l-1.12-4.301L380.6,686.34z M366.04,674.79l2.36,0.35l2.97,6.03l-2.79,3.49l-2.4-5.22l1.86-1.15l-2.74-1.31L366.04,674.79z"/>
	<path id="PH-APA" fill="#1E3250" stroke="#1E3250" stroke-width="0.5" d="M337.51,201.1l3.06-1.5l2.93-4.72l3.02-0.9l0.31,4.18
		l11.58,4.21l2.66,3.09l13.16,6.23l1.63,6.23l-2.06,13.35l-3.31,1.46l-7.81,16.26l5.01,1.75l3.97,4.39l0.83,3.47l0,0l-3.89,3.67
		l-9.84-2.24l-1.91,3.53l-7.61-4.52l0,0l-1.66-10.62l-2.4-1.81l-4.1,0.33l-1.67-7.27l-4.31-2.92l0,0l0.63-9.25l2.86-5.11
		l-2.45-15.26L337.51,201.1z"/>
	<path id="PH-AUR" fill="#1E3250" stroke="#1E3250" stroke-width="0.5" d="M431.78,347.14l-4.37,6.16l1.72,3.42l1.47-2.34
		l-1.359,4.83l-3.271,3.99l1.141,1l3.08-1.67l-2.36,5.37l-9.82,9.08l0.181,2.189l-2.96,3.07l-3.101,1.569l2.75-5.64l4.771-4.79
		l0.149-2.71l2.46-1.61l0.16-2.689l-2.72-0.19l-1.63,1.67l0.52,3.891l-4.33,0.77l-5.99,4.061l-4.76,0.31l-6.6,4.47l-2.77-0.5
		l-13.55,12.78l-0.12,8.32l1.34,2.68l4.77,0.19l0.16,3.37l-2.12-0.21l0.46,4.409l-8.95,9.32l-1.32,7.99l-3.16,3.97l-1.99-1.56
		l-1.44,1.47l-0.79,3.93l3.33,7.271l0,0l-2.76,3.2l1.21,3.47l-4.1,6.14l0.01,3.47l0,0l-2.19-15.1l0,0l4.68-21.25l-6.86-21.49l0,0
		l13.5-10.95l0,0l26.689-23.369l16.671-19.551l4.84-3.18l0,0l10.2,0.49l0,0L431.78,347.14z"/>
	<path id="PH-BAN" fill="#1E3250" stroke="#1E3250" stroke-width="0.5" d="M301.19,466.09l2.68,1.37l2.01,5.271l3.81,0.71l0,0
		l-2.22,3.09v4.79l4.77,14.3l-0.28,4.07l-3.3,4.149l-5.37-0.859l0.75,2.159L296,501.19l-1.09-4.891l1.37-4.68l-1.88-2.9l-3.96,0.061
		l-4.67-4.94l0.42-3.189l1.83-0.061l-2.76-1.88l2.84-1.43l-1.75-0.62l7.39-4.521l0,0l1.29-3.14l4.35,0.68L301.19,466.09z"/>
	<path id="PH-BTN" fill="#1E3250" stroke="#1E3250" stroke-width="0.5" d="M401.69,55.1l3.229,3.56l-1.99,3.81l-1.6-2.08
		L401.69,55.1z M413.19,44.85l2.3,1.91l-5.24,4.021l0.73,3.439l-4.211,1.54l0.83-4.83l2.881-2.75l-0.7-1.81L413.19,44.85z
		 M403.03,18.24l1.43,1.89l-0.47,3.95l-5.561,5.42l-1.37-2.49l3.95-8.04L403.03,18.24z"/>
	<path id="PH-BTG" fill="#1E3250" stroke="#1E3250" stroke-width="0.5" d="M346.53,567.03l1.03,2.91l-1.35,0.619l-2.8-3.359
		L346.53,567.03z M328,558.47l8.48,3.72l-5.34,0.32l-2.34-1.2L328,558.47z M310.97,518.22l1.88,0.66l0,0l4.36,1.43l-0.69,1.801
		l2.47,2.68l4.28,0.24l5.28,3.689l0.48,2.061l8.16-2.4l6.25-4.521l0,0l10.99,1.65l1.59,7.771l1.92,2.909l1.33-0.22l0.04,2l0,0
		l0.31,1.851l-2.03,1.13l2.53,3.52l7,0.53l6.34,3.71l0,0l-1.76,4.34l0.79,4.88l1.89,0.88l-3.37,2.181l-2.83-0.99l-7.13,5.29
		l-7.41-3.55l-7.59,1.91l-3.09-1.091l1.8-6.46l-4.38-4.54l-2.68,0.73l-5.16,6.649l-1.43-2.739l3.93-3.181l-1.86-4.439l0.74-4.07
		l-8.84-3.79l-6.03,0.521l0.79,5.899l-4.71-1.42l1.69,5.311l-1.35,1.54l-2.6-3.221l-0.2-10.479l-1.21-1.55l2.02-0.19l-0.75-10.399
		l-3.84-1.58l3.11-0.62l-2.69-1.9l2.92-0.52l-2.2-1.16L310.97,518.22z"/>
	<path id="PH-BEN" fill="#1E3250" stroke="#1E3250" stroke-width="0.5" d="M324.04,315.65l7.52,8.09l0,0l1.43,3.58l0.47,13.87l0,0
		l-1.56,6.77l0.55,5.42l-3.33,8.49l-2.87-0.16l-3.41,6.021l0.72,3.13l0,0l-8.24,1.029l-10.37-3.71l0,0l-3.13-19.58l6.49-7.489
		l-1.23-0.801l2.8-3.89l0,0l2.9-5.38l1.67-12.44L324.04,315.65z"/>
	<path id="PH-BIL" fill="#1E3250" stroke="#1E3250" stroke-width="0.5" d="M589.04,705l8.01,2.32l3.351,7.84l2.51,1.859
		l-0.851,4.051l-9.119,1.91l-2.74-1.841l-7.061-13.46L589.04,705z M581.5,697.13l2,0.8l-1.85,3.181l-2.36-2.13L581.5,697.13z"/>
	<path id="PH-BOH" fill="#1E3250" stroke="#1E3250" stroke-width="0.5" d="M546.27,856.38l2.54,1.34l-0.17,1.57l-5.149,3.83
		l-3.351,0.4l-0.439-2.15l-2.07-0.86L546.27,856.38z M541.8,838.39l1.23,0.311l-1.96,1.84l-0.46-2.12L541.8,838.39z M545.31,836.84
		l2.801,0.311l-1.931,1.6l-1.989-1.58L545.31,836.84z M602.9,819.16l-2.03,3.08l1.09,1.7l-3.21-0.28l-0.56,2.66l-1.261,0.01
		l-0.729-4.63l1.97,0.34l0.22-1.42l1.45,1.57l0.38-2.04L602.9,819.16z M579.23,817.63l3.56,2.5l0.08,1.811l2.01-2.891l1.82,3.521
		l6.26,3.64l1.78-1.45l3.07,2.63l1.06,3.32l-1.19,0.41l0.66,4.39l-1.26,0.51l2.85,0.78l-1.25,2.891l-3.31,1.67l6.02,3.25
		l-0.449,3.79l-5.12,2.319l-2.58-2.85l-5.54,3.72l-0.66,4.19l-10.26,3.989l-5.17-0.859l-9.311,1.54l-14.859-3.49l-0.681-2.27
		l1.87-3.65l-2.28-1.79l-3.739,0.17l1.359-6.87l-1.25-2.189l1.98,0.609l-0.41,1.011l4.49-4.011l0.62-2.41l0.8,1.23l4.99-3.28
		l4.77-0.8l2.61-7.37l2.66,0.12l3.899-6.39l9.13-0.11L579.23,817.63z M571.5,817.31l-0.47,1.721l-1.36-0.7L571.5,817.31z
		 M576.97,815.18l-1.79,2.12l-2.739-0.67L576.97,815.18z M570.48,814.81l1.069,1.12l-2.5,0.45L570.48,814.81z"/>
	<path id="PH-BUK" fill="#1E3250" stroke="#1E3250" stroke-width="0.5" d="M599.12,959.23l0.939-4.48l1.9-0.65l0.95-8.68l14.43,0.2
		l-0.18-3.811l3.939-8.739l27.311,0.91l0,0l1.229,15.399l7.431,9.75l-0.79,3.07l2.56,8.52l-0.45,6.7l0,0l2.841,5.36l-0.25,6.89
		l1.84,3.811l-0.87,7.96l-2.53,2.479L649,1002.3l-0.14,4.681l0,0l-2.28-0.921l-0.18,1.561l-1.69-0.11l-2.75,7.76l-6.36,0.99
		l-1.35,3.36l-5.5,0.38l-3.24-2.3l-3.52,1.2l-4.57-5.841l-2.11,1.131l2.681-4.45l-1.33-4.521l0,0l-3.851-3.609l-1.88-6.58
		l-4.88-6.721l-2.14-0.76l-0.51-3.229l-4.851-6.79l-1.79-7.891l-2.689-3.319l0,0l4.71-1.511L599.12,959.23z"/>
	<path id="PH-BUL" fill="#1E3250" stroke="#1E3250" stroke-width="0.5" d="M337.1,444.54l4.77-2.56l8.9-1.5l7.07,5.1l5.12,0.36l0,0
		l2.19,15.1l0,0l0.25,7.84l0,0l-6.31,3.8l-5.52,1.101l-4.97,4.989l0,0l-5-1.289l-4.01,4.819l-3.94-1.359l1.62,3.21l-2.97-0.33l0,0
		l-5.59-3.67l0.07-1.87l-1.64-0.9l-1.23,1.76l-8.53-1.159l1.86-2.19l0,0l2.83-8.92l6.36-0.58l4.66-3.75l-0.19-1.97l1.71,0.66
		l1.28-3.101l2.05,0.09l1.44-5.01l-3.16-3.96L337.1,444.54z"/>
	<path id="PH-CAG" fill="#1E3250" stroke="#1E3250" stroke-width="0.5" d="M422.66,190.85l1.689,0.19l-0.239,4.38l-2.841,1.65
		l-0.199-4.73L422.66,190.85z M349.38,187.36l5.31,1.5l16.03,11.36l35.06,15.08l7.97-2.06l6.48-7.22l2.13,0.09l1.25-9.56l6.399-0.72
		l1.03,5.13l4.67,4.35l1.81,6.4l-2.649,6.85l-2.851,3.72l-3.359,1.28l-3.65,5.27l1.38,1.68l0.261,12.021l-3.75,8.25l2.27,7.16
		l-0.41,6.6l2.01,4.79l0,0l-38.79,3.02l0,0l-12.81-12.44l-2.86,0.48l0.2-1.78l0,0l-0.83-3.47l-3.98-4.39l-5.01-1.75l7.81-16.26
		l3.31-1.47l2.06-13.35l-1.63-6.23l-13.16-6.22l-2.66-3.09l-11.57-4.21l-0.31-4.18l-3.02,0.9l-2.93,4.71l-3.06,1.51l0,0l0.85-10.26
		l0,0l4.47-2.9l1.79,1.01L349.38,187.36z M370.64,166.16l4.62,2.45l-9.82,2.51l-5.14-1.25l0.5-1.98L370.64,166.16z M406.92,158.68
		l2.061,0.05l3.38,3.33l-0.24,1.41l-6.94,5.41l-2.779,4.48l-2-4.82l2.96-0.93l-1.33-2.63l1.189-3.96L406.92,158.68z M356.19,145.94
		l2.2,5.07l0.06,7.01l-3.87-4.15L356.19,145.94z M370.05,129l5.73,1.98l2.63-1.62l1.29,8.75l-2.2,2.27l-7.9-2.99l-0.95-3.57
		l-3.19-2.08L370.05,129z M410.73,115.13l1.649,1.54l0.16,3.19l-2.58,2.83l-4.88-5L410.73,115.13z"/>
	<path id="PH-CAN" fill="#1E3250" stroke="#1E3250" stroke-width="0.5" d="M450.87,509.68l6.35,2.271l-0.97,0.83l3.75,1.939
		l0.04-2.81l3.19,2.34l-1.83-4.05l1.399-0.5l2.011,0.43l0.619,2.04l2.021-1.229l2.93,1.26l-0.38,1.89l5.67,1.12l3.641,3.8l0.01,1.93
		l9.359,7.051l-0.96,4.819l3.891,3.891l0.859,6.62l-2.649,4.119l0,0l-19.351-13.18l0,0l-25.29-9.979l-5.56,6.21l-4.68-0.21
		l-0.11-1.091l0,0l3.43-3.05l-1.189-5.569l1.189-2.061l2.431,0.771l-1.7-2.44l1.88-2.87l1.78,0.15l0.489-2.22l1.03,1.06l2.83-2.94
		l1.06,0.891L450.87,509.68z M481.51,502.89l2.53,2.24l-4.01-2.04L481.51,502.89z M482.04,498.65l-0.57,3.21l-3.109,0.31
		L482.04,498.65z"/>
	<path id="PH-CAS" fill="#1E3250" stroke="#1E3250" stroke-width="0.5" d="M545.11,537.18l1.38,0.42l-0.62,5.931l-1.78-4.03
		L545.11,537.18z M532.37,536.97l2.39,2.601l-3.84,2.67l-1.78-0.511l0.23-3.47l1.1,1.55l1.15-1.85l1.66,1.45L532.37,536.97z
		 M510.35,527.55l2.341,4.73l-2.261,2.04l3.24-1.591l0.43,3.57l1.62,0.19l-0.58,2.96l2.601,1.96l0.31-3.86l3.89,2.17l-0.89,2.101
		l1.96-1.311l1.9,1.601l0.149-1.79l4.181,2.949l5.62,1.15l2.5-0.42l-0.471-4.43l4.931,6.88l5.189,2.939l1.46-1.1l2.33,2.18
		l3.061,0.05l0.51,3.101l1.54-0.101l-0.03,3.45l-2.34-1.979l-0.33,1.21l-4.3-1.37l-5.15,3.7l-17.57-3.59l1.721,0.939l-2.42,3.57
		l-1.15,4.05l1.271,1.42l-1.511,2.62l3.801,0.94l1.229,2.26l0,0l-4.19,1.42l3.08,4.729l-0.29,3.25l-6.84,2.761l-3.93-0.16
		l-11.41,7.38l0,0l-4.78-6.24l-1.56-6.51l-21.87-10.57l-6.47-5.479l1.85,0.04l2.73-2.99l-1.86-3.31l-7.95-6.351l-5.29-0.02
		l-0.989-4.641l-4.551-1.7l0.58-1.489l-2.22,0.31l1.01-0.9l-1.47-1.159l0,0l17.729-4.83l0,0l19.351,13.18l0,0l-0.96,4.51l5.58,3.71
		l8.04-0.31l3.149-1.521l3.57-5.659l-3.05-5.141l0.75-2.25l-2.14-2.63l-2.36-0.4l-0.351-2.27l2.66-1.01l-2.319-1.09l3.989-0.391
		l-2.3-3.05l4.521,2.84l-0.67-2.46l2.76-0.08l-1.311-1.649L510.35,527.55z M507.3,525.82l2.021,1.3l-0.721,1.61L507.3,525.82z"/>
	<path id="PH-CAM" fill="#1E3250" stroke="#1E3250" stroke-width="0.5" d="M609.64,884.66l4.99,3.92l2.021,6.03l-2.25,2.989
		l-7.181-2.83l-3.02-3.72l0.569-4.609L609.64,884.66z"/>
	<path id="PH-CAP" fill="#1E3250" stroke="#1E3250" stroke-width="0.5" d="M464.86,711.96l5.689,1.271l2.44-1.131l2.74,4.011
		l-0.681,1.58l1.58-0.761l3.84,2.101l-5.03,4.54l2.48,2.27l1.63-4.42l5.181,0.021l7.81-4.5l0,0l-3.46,6.939l0.03,3.92l-8.21,2.79
		l0.84,3.96l-4.23,2.021l0.01,2.939l-1.13-0.26l-1.64,3.62l-5.07,0.74l0.12-2.75l-1.46-0.66l-8.14,1.21l-1.8-1.76l1.649-2.09
		l-1.08-0.23l-2.979,3.3l-1.07-2.04l-2.18,3.471l-3.92,1.77l-7.54-0.93l-4.99-2.61l-6.05,6.34l0,0l-2.7-5.46l-0.12-7.2l0,0
		l7.43-3.02l6.69-9.22l8.43-0.091l4.7-5.25l0,0l1.05,2.431l2.66,0.04l2.08-1.391l-1.59-0.739l1.109-2.021l0.73,2.35l4.62-2.779
		L464.86,711.96z"/>
	<path id="PH-CAT" fill="#1E3250" stroke="#1E3250" stroke-width="0.5" d="M582.38,537.53l1.46,1.819l-2.16,0.28l-1.26-2.859
		L582.38,537.53z M573.14,527.98l4.67,6.119l1,5.431l2.12,0.72l-0.37,2.95l3.25-3.37l0.23,2.52l2.27,2.551l0.521-2.07l1.4,2.43
		l-1.091,0.48l1.57,0.97l-1.6,0.83l1.93,2.93l-2.35,1.24l1.22,2.04l-1.85,2.689l2.27,3.83l-5.38,1.82l0.64,3.29l-1.77,2.84
		l-0.67,0.38l-1.62-3.92l-5.851,2.95l-0.47,3.62l-7.24-5.6l-4.399-0.73l1.17-1.08l-2.95-3.439l5.22-3.11l2.95-6.75l-0.56-6.6
		l1.46-3.15l-1.59-9.96l3.239,0.7L573.14,527.98z"/>
	<path id="PH-CAV" fill="#1E3250" stroke="#1E3250" stroke-width="0.5" d="M333.95,498.11l-1.67,3.62l5.86-1.771l0,0l3.14,9.32l0,0
		l-0.29,2.87l4.5-1.28l-2.56,6.02l1.27,0.41l-1.41,2.72l0.66,3.841l0,0l-6.25,4.52l-8.16,2.4l-0.48-2.061l-5.28-3.689l-4.28-0.24
		l-2.47-2.68l0.69-1.8l-4.36-1.431l0,0l0.09-3.359l5.12-1.08l5.48-3.82L333.95,498.11z"/>
	<path id="PH-CEB" fill="#1E3250" stroke="#1E3250" stroke-width="0.5" d="M563.38,809.24l-2.21,3.35l-0.61-0.89L563.38,809.24z
		 M557.24,805.83l1.399,1.57l2.801-1.49l-4.54,5.51l-2.891,1.13l-0.74-1.01l1.75-1.32l-1.96-0.1l0.471-2.18L557.24,805.83z
		 M589.95,777.71l5.109,2.78l0.37,1.78l-5.21,2.079L586,783.1l-0.24,1.511l-5.029,2.739l-2.65-0.31l2.95-8.72l4.25,1.399l0.72,3.021
		L589.95,777.71z M599.09,770.64l-1.31,4.061l-3.271,2.2l-0.24-2.181L599.09,770.64z M562.62,736.49l-1.94,9.59l-3.83,5.52
		l1.11,1.591l3.21-0.21l-0.88,9.229l1.78,3.47l-3.63,9.23l2.35,15.01l-2.82,10.14l1.67,2.171l-4.029,4.06l-5.931,2.86l-1.55,3.01
		l-7.08,1.66l-5.79,7.199l-0.34,3.051l-2.89,0.119l-2.341,15.33l-5.279,5.23l0.109,3.32l-2.029,1.939l-3.101,11.7l-8.319,10.81
		l-3.66,0.521l3.06-27l4.15-8.68l-0.601-2.271l-1.96-0.83l0.23-3.08l2.43,0.91l0.87-5.49l2.36-0.939l5.09-6.51l4.72-8.171
		l-0.07-4.79l6.261-6.21l3.359-6.109l-0.729-3.4l2.72-6.54l4.3-6.479l2.26-1.011l7.391-18.97l-2.37-2.97l2.34-2.33l0.1-3.1
		l2.301,1.739l-1.63-7.529l3.39-3.141l0.63-3.13L562.62,736.49z M538.5,734.9l5.63,10.97l-6.29,1.02l0.8-1.979l-3.21-4.68
		L538.5,734.9z"/>
	<path id="PH-COM" fill="#1E3250" stroke="#1E3250" stroke-width="0.5" d="M715.09,976.37l-1.13,2.11l10.36,38.25l0.41,12.709
		l-25.641,14.271l0,0l-4.24-3.729l0.61-2.891l-3.97-6.39l1.29-6.891l-1.71-0.989l0,0l0.17-7.23l3.75-1.85l-2.42-3l4.859-1.05
		l1.36-7.58l-2.54-3.21l2.979-5l-1.77-4.851l-8.64,12.46l-1.67-0.14l-0.681-5.08l-4.729-4.07l-2.04-15.689l0,0h22.18l1.25,2.6
		l3.46,2L715.09,976.37z"/>
	<path id="PH-DAV" fill="#1E3250" stroke="#1E3250" stroke-width="0.5" d="M680.39,1051.89l2.54,1.801l-0.449,2.87l-3.261-3.57
		L680.39,1051.89z M682.03,1034.75l6.54,5.83l-1.561,6.21l1.25,6.78l-2.02,3.35l-3.07-5.25l-0.81-7.58l-2.37,0.4l-1.11-2.21
		L682.03,1034.75z M679.7,976.5l2.04,15.69l4.729,4.069l0.681,5.08l1.67,0.141l8.64-12.461l1.771,4.851l-2.98,5l2.54,3.21
		l-1.36,7.58l-4.859,1.05l2.42,3l-3.75,1.85l-0.17,7.23l0,0l-8.521,4.49l0,0l-3.25-0.03l-4.04,4.09l-7.62,0.36l-0.279-23.21
		l-18.271-0.46l0,0l-0.229-1.061l0,0l0.14-4.68l10.42,1.62l2.53-2.49l0.88-7.96l-1.84-3.81l0.25-6.891l-2.851-5.359l0,0L679.7,976.5
		z"/>
	<path id="PH-DAS" fill="#1E3250" stroke="#1E3250" stroke-width="0.5" d="M649.09,1008.04l18.271,0.46l0.279,23.21l7.62-0.36
		l4.04-4.09l3.25,0.03l0,0l-4.81,4.54l1.149,8.13l-1.079,2.2l-5.29,5.189l-1.33-1.609l-2.48,1.41l-2.7,3.41l0.2,4.35l-7.06,8.5
		l-1.4,5.6l0.88,6.601l-1.859,2.46l6.09,1.67l-0.98-4.051l6.53,5.721l-0.06,2.58l2.359-1.131l2.24,1.44l-0.74,1.37l1.59-0.34
		l-0.949,5.3l2.689,1.22l6.18,14.271l-0.06,13.75l-2.91,7.54l-10.8,12.359l-7.24,12.92l-5.89,1.28l-0.75-1.06l0,0l-1-1.44
		l6.27-4.689l6.75-14.28l-0.55-4.16l4.181-14.46l-2.03-2.24l-0.431-6.97l-3.359-5.14l2.439-2.641l-0.46-3.989l-4.45-6.601
		l-5.22-1.54l-2.3,3.53l-5.07,2.3l-5.67-3l0,0l1.82-4.83l0,0l-1.12-6.229l-3.479-4.271l-0.091-3.09l1.45-0.66l-2.27-1.729l0,0
		l-1.471-4.53l3.15-0.2l1.521-4.359l6.54-5.46l1.58-4.67l2.659-0.28l-2.12-7.12l-4.21-5.01l1.38-4.37l-1.409-6.72l2.83-11.58
		L649.09,1008.04z"/>
	<path id="PH-DAO" fill="#1E3250" stroke="#1E3250" stroke-width="0.5" d="M728.76,976.3l0.7,6.63l0,0l1.65,5.83l3.02,0.09
		l5.51,6.601l5.021,1.42l-1.37,1.56l0.08,4.41l1.81,2.22l-1.43,2.03l1.79,0.72l1.2,6.17l-0.3,2.49l-3.2,1.01l0.15,2.381l1.859,0.489
		l-1.609,1.58l1,3.44l-1.381,1.05l1.131,1.77l2.81-0.069l-3.17,6.24l-1.98-0.33l-1.27,6.03l-3.64,2.729l0.529,1.62l-1.609,0.59
		l-0.44,2.72l0.94,1.771l-8.62-0.86l-2.2,4.9l-2.021,0.77l4.61,5.12l0.33,4.05l-4.5-1.449l0.91-2.96l-4.22-5.29l-3.29-1.15
		l-1.091,5.47l5.74,8.86l-3,8.66l0.58,14.92l-2.16,2.88l-0.81,3.85l-3.7-3.67l1.04-2.3l-4.83-8.16l0.66-4.86l-1.75-4.199l1.75-2
		l0.31-3.92l-1.59-1.771l0.351-5.96l-7.49-6.14l0.97-6.09l-3.45-4.49l0,0l25.641-14.271l-0.41-12.71l-10.36-38.25l1.13-2.109l0,0
		L728.76,976.3z"/>
	<path id="PH-DIN" fill="#1E3250" stroke="#1E3250" stroke-width="0.5" d="M664.92,796.42l2.22,1.26l-0.3,1.69l-1.52-0.32
		L664.92,796.42z M677.31,795.76l2.82,5.851l-2.5,6.34l0.43,4.03l-2.26-1.301l2.96,5.181l-0.58,2.409l1.58-0.189l-1.12,3.41
		l2.7,4.54l-1.37,7.09l-1.64,1.03l3.689,4.13l-0.46,1.91l-2.479,1.02l-1.771-2.229l-0.1-4.061l-5.94-3.85l1.471-0.63l0.689-5.74
		l-1.29-0.75l0.341,1.689l-2.061-1.38l-2.76,1.551l-2.65-5.301l1.83-3.63l3.21-1.41l-2.189-2.89l0.1-5.78l3.23,0.08l-0.641-4.52
		l3.37,1.22l1.16-5.59L677.31,795.76z"/>
	<path id="PH-EAS" fill="#1E3250" stroke="#1E3250" stroke-width="0.5" d="M700.15,773.44l0.72,2.18l-2.28-1.94L700.15,773.44z
		 M681.13,769.92l2.38,1.92l-0.71,3.771l6.811,1.159l-0.181,2.591l-4.149,0.489l-5.971-4.119l-0.85-2.961L681.13,769.92z
		 M677.54,756.56l0.49,1.9l-2.55-0.53L677.54,756.56z M686.37,754.58l5.149,6.82l-5.369-5.351L686.37,754.58z M641.78,662.23
		l3.109-6.261l7.101,8.021l2.12-1.271l0,0l1.14,0.771l1.34-2.65l1.84,0.25l-1.09,2.34l5.16-0.22l1.88,2.19l-0.64,1.189l1.63-0.25
		l2.72,2.93l-0.34,1.521l-4.03,0.45l1.37,0.96l-2.16,1.149l0.04,2.421l2.641-0.171l0.63,0.82l-1.511,0.33l3.431,2.19l-6.51,7.7
		l0.75,9.699l2.72,2.38l-4.41,2.5l1.979,1.37l1.57-1.41l0.66,5.431l1.54,0.87l-2.91,0.33l0.79,1.859l-1.81,2.21l0.72,1.73
		l1.84-0.141l-0.31,3.41l3.35,3.79l-1.56,3.43l2.069-0.479l2.96,4.39l1.471-0.39l3.59,3.13l-1.37,4.061l-4.88,3.13l-0.971,4.43
		l4.62,1.47l1.591-1.55l-2.301-1.88l0.891-0.55l4.779,2.569l7.101,12.15l-0.75,1.35l-2.5-1.08l-3.37-4l2.16-2.26l-2.63-0.17
		l-0.38-1.84l-5.641,2.1l-1.75-1l0.86-1.56l-2.92-0.13l-1.33,5.02l-3.61-3.27l-0.54,2l-1.41-0.9l-1.96,2.12l-0.22-1.35l-6.39-1.21
		l-1.431-1.94l-3.22,1.88l0,0l-0.28-14.67l4.16-5.97l-5.51-3.33l-1.771-11.39l1.051-2.58l4.43-3.23l-0.88-13l-4.5-10.4l-6.73,0.011
		l-0.189-12.65l2.41-1.57L641.78,662.23z"/>
	<path id="PH-GUI" fill="#1E3250" stroke="#1E3250" stroke-width="0.5" d="M464.17,795.56l1.61,1.57l-3.25,0.7L464.17,795.56z
		 M460.85,775.09l4.49,4.48l0.37,5.6l-3.29,8.48l-3.95,4.84l-8.189,2.08l-0.44-3.261l-2.5-2.189l0.62-1.91l2.88-0.71l-0.939-4.76
		l3.71-6.101l3.52-0.84l0.38-3.12L460.85,775.09z"/>
	<path id="PH-IFU" fill="#1E3250" stroke="#1E3250" stroke-width="0.5" d="M331.56,323.74l2.68-0.04l2.32-2.25l2.5-5.72l-0.27-4.841
		l18.09-0.659l8.98-4.561l6.37-0.97l8.35,0.67l0,0l2.38,12.8l-3.07,3.57l-6.3,1.93l-1.66-0.79l-2.15,2.65l-2.82,0.33l-2.18,1.6
		l-0.13,2.33l0,0l-1.36,3.71l-1.85,0.65l0.41,2.05l-28.39,4.99l0,0l-0.47-13.87L331.56,323.74z"/>
	<path id="PH-ILN" fill="#1E3250" stroke="#1E3250" stroke-width="0.5" d="M329.25,185.6l4.68,6.68l3.04,0.36l1.4-1.8l0,0
		l-0.85,10.26l0,0l-1.37,6.03l2.45,15.26l-2.87,5.12l-0.63,9.25l0,0l-1.31,2.08l-5.55-0.71l-3.63,3.66l-4.04,1.43l-2.71,4.4
		l-7.86,2.7l-3.41,7.24l0,0l-1.74-3.79l1.5-9.85l-6.36-1.43l0,0l-1.03-1.06l5-6.13l-1.79-2.47l-0.3-4.32l3.04-3.56l0.75-5.08
		l5.71-11l-2.76-11.17l4.52-4.08l6.53,1.33l4.17-1.1l0.71-5.98L329.25,185.6z"/>
	<path id="PH-ILS" fill="#1E3250" stroke="#1E3250" stroke-width="0.5" d="M299.97,242.47l6.36,1.43l-1.5,9.85l1.74,3.79l0,0
		l-4.92,15.28l1.11,1.57l3.1-1.42l4.38,1.78l-3.39,8.97l1.39,3.77l4.09-0.22l4.96,4.15l-1.11,4.67l1.98,2.52l4.51,0.2l3.06-2.27
		l4.31-0.02l0,0l-5.64,5.87l-0.37,13.24l0,0l-9.59,2.95l-1.67,12.439l-2.9,5.381l0,0l-3.51-4.24l1.27-4.061l-3.08-5.569l0.74-5.67
		l-2.22,1.35l-5.55-1.5l0,0l2.66-4.49l-1.5-14.8l-1.66-2.63l2.3-5.71l-0.6-3.67l1.29-0.23l1.47-5.25l-2.4-3.23l-0.56-4.33
		l-5.26-3.11l-0.54-2.06l2.35-8.12l4.33-3.77l-2.13-1.86l1.43-1.28l-1.73-1.55l4.03-2.28L299.97,242.47z"/>
	<path id="PH-ILI" fill="#1E3250" stroke="#1E3250" stroke-width="0.5" d="M496.12,745.63l-2.22,4.04l-0.58-2.72L496.12,745.63z
		 M497.71,740.78l1.63,0.08l-1.33,1.979L497.71,740.78z M497.5,734.09l2.11,1.44l-3.21,3.31L497.5,734.09z M504.33,723.1l1.29,1.07
		l-1.86,1.72l-0.62-2.35L504.33,723.1z M502.58,722.82l-2.12,0.31l-0.55-3.14l1.399-0.5L502.58,722.82z M499.77,717.26l-0.39,2.05
		l-2.62,1.53l0.68-2.399L499.77,717.26z M496.33,712.96l1.01,2.72l-1.82,3.99l-1.21-1.47l-1.8,0.53l3.21,2.08l-0.939,1.109l1.8-0.81
		l0.92,1.34l-2.7,3.97l1.73,1.66l-1.351,3.66l-2.46,0.979l-0.479,7.5l2.279,2.23l-0.27,2.45l-1.22,0.67l-3.05-2.25l0.38,1.31
		l-2.66,0.021l-1.51,5.47l-2.421,2.51l-1.789-0.47l0.06,2.37l-2.06-2.431l-1.311,3.351l-2.48-0.82l-1.5,3l-5.05,0.31l-1.569,2.94
		l2.199,3.81l-1.96,5.32L465.73,773l-4.091-1.01l-0.54,1.31l-3.909,0.33l-2.07,6.311l-9.021-0.051l-18.13,3.63l-4.689,3.971
		l-3.46,0.729l-4.721,7.87l0,0l-1.38-1.97l0.761-5.9l3.779-8.489l7.391-4.851l1.85-5.72l8.92-7.38l-0.25-6.94l-5.91-8.189l0,0
		l6.051-6.341l4.989,2.61l7.54,0.93l3.92-1.77l2.181-3.47l1.069,2.04l2.98-3.301l1.08,0.23l-1.65,2.09l1.8,1.76l8.141-1.21
		l1.46,0.66l-0.12,2.75l5.069-0.74l1.641-3.62l1.13,0.261l-0.01-2.94l4.229-2.02l-0.84-3.96l8.21-2.79l-0.03-3.92l3.461-6.94l0,0
		L496.33,712.96z M511.43,713.25l-1.6,1.58l-0.99-0.84L511.43,713.25z M511.58,710.12l-0.811,2.31l-0.5-1.939L511.58,710.12z"/>
	<path id="PH-ISA" fill="#1E3250" stroke="#1E3250" stroke-width="0.5" d="M426.75,269.35l-0.04,3.15l4.35,7.11l-0.27,3.56l2.8,0.21
		l1.86,2.25l4.33-1.6l2.71,1.54l2.63,5.24l-2.28,6.07l0.43,3.38l4.73,1.71l1.93-1.97l1.38,3.33l-4.52,9.17v6.7l-2.72,4.59l0.54,2.09
		l-11.94,20.76l0,0l-10.2-0.489l0,0l-3.58-0.261L395.18,356.7l-14.35-18.061l-10.81-0.88l0,0l-0.62-3.46l-4.75-4.51l0,0l0.13-2.33
		l2.17-1.6l2.83-0.33l2.14-2.65l1.66,0.79l6.31-1.93l3.07-3.57l-2.39-12.8l0,0l-0.33-15.71l0,0l3.98-8.87l5.11-3.64l-1.37-4.8l0,0
		l38.79-3.02l0,0V269.35z"/>
	<path id="PH-KAL" fill="#1E3250" stroke="#1E3250" stroke-width="0.5" d="M372.49,258.6l-0.2,1.79l2.86-0.48l12.81,12.43l0,0
		l1.37,4.8l-5.11,3.65l-3.98,8.87l0,0l-10.1-1.91l-5.04,1.75l-6.64,7.18l-6.35,1.36l-5.49-1.89l-2.18-3.06l-10.29-1.04l0,0
		l5.78-12.18l0.26-6.25l8.15-5.26l0.69-2.15l-2.05-5.86l2.26-1.31l0,0l7.61,4.52l1.91-3.53l9.84,2.24L372.49,258.6z"/>
	<path id="PH-LUN" fill="#1E3250" stroke="#1E3250" stroke-width="0.5" d="M297.53,316.73l5.55,1.5l2.22-1.351l-0.74,5.66l3.08,5.58
		l-1.27,4.06l3.51,4.24l0,0l-2.8,3.89l1.23,0.801l-6.49,7.489l3.13,19.58l0,0L304,370.1l-6.1,0.23l0,0l-1.15-3.25l-3.77-2.28
		l-1.83-8.13l0.51-5.939l-1.89-2.45l1.21-5.4l-3.09-3.46l2.25,0.48l2.13-5.381l-0.22-11.39l4.61-3.3L297.53,316.73z"/>
	<path id="PH-LAG" fill="#1E3250" stroke="#1E3250" stroke-width="0.5" d="M374.44,492.48l6.46,12.43l4.64,1.14l0.56,9.86
		l-4.77,6.729l-3.07,1.761l-2.17,5.38l-4.45,0.729l-7.37,5.82l-4.97,1.63l0,0l-0.04-2l-1.33,0.22l-1.92-2.91l-1.59-7.77l-10.99-1.65
		l0,0l-0.66-3.84l1.41-2.72l-1.27-0.41l2.56-6.02l-4.5,1.279l0.29-2.87l0,0l3.12-2.1l0.44-8.62l3.16-2.7l0,0l4.26,1.29l3.77,7.58
		l0.25-4.7l2.42-3.22l5.42,4.09l0.94,3.75l-2.26,9.061l5.75-4.061l-1.53-1.68l-0.54-6.67l1.13-4.56L374.44,492.48z M357.9,509.34
		L357.9,509.34l-1.24-5.55l-0.52,5.29l1.92,4.52l-0.15-2.8l0,0l1.17-1.279L357.9,509.34z M359.06,497.63L359.06,497.63l0.16-0.229
		L359.06,497.63z M359.49,497.48l-0.11,0.109l0,0L359.49,497.48z M358.99,497.01L358.99,497.01l0.07-0.05L358.99,497.01z"/>
	<path id="PH-LAN" fill="#1E3250" stroke="#1E3250" stroke-width="0.5" d="M575.92,952.56l16.43-0.34l4.48,2.84l2.29,4.171l0,0
		l-0.34,5.579l-4.71,1.511l0,0l-11.891-5.41l-2.42,0.32l-1.39,9.149l-4.74,4.84l-6.27,1l0.779,2.69l-1.949,4.39l-6.4,0.38l1.6,5.42
		l-3.229,9.53l-11.88-3.649l-1.59,3.22l0,0l-5.74-2.311l0.17-2.38l-3.38-3.51l-5.101-1.15l0,0l3.53-9.1l0,0l5.66-3.33l7.24-8.22
		l3.699-0.181l8.601-6.06l9.96,0.93l4.82-1.899l3.1-4.92L575.92,952.56z"/>
	<path id="PH-LAS" fill="#1E3250" stroke="#1E3250" stroke-width="0.5" d="M594.07,966.32l2.689,3.319l1.79,7.891l4.851,6.79
		l0.51,3.229l2.13,0.76l4.88,6.721l1.88,6.58l3.84,3.609l0,0l-7.729-2.64l-3.75,1.95l-2.94-0.681l-5.09-4.33l-7.07,2.17l0,0l0,0l0,0
		l-5.449,6.131l-8.391,4.26l-3.72,6.42l0,0l-5.11-1.85l1.29-1.051l-2.1-3.779l-7.521-9.761l-2.06,0.32l-5.07-3.65l-7.25-0.54l0,0
		l1.58-3.21l11.88,3.65l3.221-9.53l-1.601-5.42l6.4-0.38l1.939-4.399l-0.779-2.681l6.279-1l4.74-4.84l1.391-9.14l2.42-0.32
		L594.07,966.32z"/>
	<path id="PH-LEY" fill="#1E3250" stroke="#1E3250" stroke-width="0.5" d="M580.96,715.54l11.24,12.78l-0.5-4.13l1.149-0.681
		l4.23,2.23l1.07,6.279l2.399,2.54l9.12-0.18l6.62-4.99l1-4.199l4.6,1.67l4.58-1.341l1.021,2.49l1.7-0.37l-1.221,8.74l1.07,1.98
		l2.24,0.14l-0.061,7.09l2.341,6.59l-0.36,9.71l-2.32,6.63l1.71,7.79l6.5,3.011l-0.77,1.64l3.21,3.75l0,0l-7,7.22l-8.21-0.029
		l-3.391,8.789l0.49,10.221l-3.81,0.819l-5.23,5.011l-1.149-0.5l0,0l2.25-9.21l-4.2-4.301l-0.9-7.92l3.34-3.85l0.33-6.19l2.391-2.83
		l-1.521-8.52l-7.17-11.91L601.3,756l-4.12,2.65l0.92,3.51l-2.5,4.56l-6.09-1.569l-0.939-4.341l-0.32,2.57l-2.89-0.75l2.46-4.35
		l-0.33-3.72l-2.58-2.301l2.33-3.399l-2.17-14.28l-2.141-0.72l-0.04-3.511l1.42-0.25l-2.149-0.89l-0.42-1.31l1.689-0.771
		l-2.319-0.62l-1.99-5.8l-0.05-3.31L580.96,715.54z"/>
	<path id="PH_MG" fill="#1E3250" stroke="#1E3250" stroke-width="0.5" d="M559.65,1027.54l-0.181-2.54l4.19-3.27L559.65,1027.54z
		 M584.62,1007.82l-8.39,4.26l-3.721,6.42l0,0l3.21,0.58l0.971,4.729l-3.061,0.24l0.351,7.25l-2.08-0.43l-0.16,2.16l-1.96,1.31
		l0.64,0.551l-3.91,3.209l-3.59,0.44l-4.72,7.49l-3.25,9.54l1.35,3.17l-2.319,3.55l1.21,2.21l1.119-0.4l-0.38,1.771l2.92-1.83
		l2.21,3.15l0,0l16.28-0.2l1.25,2.14l16.58,0.061l5-5.26l-1.71-4.801l7.4-1.579l2.729,1.109l-2.14,6.141l5.78,0.119l3.88,9.631
		l6.26-0.511l8.58-4.649l0,0l-7.71-4.551l-3.98,1.09l-2.06-0.92l-0.48-15.939l-1.279-0.78l0.25-3.49l1.949,0.091l0.15-1.86
		l-2.08-0.09l0.05-1.79l-6.189-5.88l-1.17,3.3l3.739,3.109l-1.35-0.069l0.45,1.86l-1.391-1.4l-0.84,2.16l-1.26-0.891l2.49,6.011
		l-3.01,3.71l-3.73-2.021l-2.86,0.28l-3.859-4.99l-2.3,0.71l-5.29-4.229l5.83-10.59l-6.83,0.5l-3.011,4.359l-3.22-0.46l5.71-9.51
		l1.01,0.479l4.73-10.75l-3.84-5.54l0.5-9.59L584.62,1007.82z"/>
	<path id="PH-MAD" fill="#1E3250" stroke="#1E3250" stroke-width="0.5" d="M403.52,567.22l3.351,3.28l0.979-1.34l4.94,1.58
		l0.83-1.95l1.71,1.51l-0.69,1.15l1.78,0.05l0.73,1.94l-1.04,0.17l3.109-0.37l2.96,2.54l-1.939,2.45l3.6,3.789l-7.51,7l0.45,2.641
		l-1.83,3.12l-3.351-0.63l-2.26-3.021l-6.17-2.7l-3.33-4.479l-0.7-7.57L403.52,567.22z"/>
	<path id="PH-MAS" fill="#1E3250" stroke="#1E3250" stroke-width="0.5" d="M502.72,639.01l10.29,4.4l-2.859,0.18l1.55,4.061
		l-2.681,1.229l1.75,2.11l1.051-2.4l1.689,0.37l-0.81-3.12l5.12-0.62l6.649,5.05l1.37-0.939l1.07,3.67l2.859,2.11l-2.6,2.09
		l4.21-0.351l4.561,1.99l6.409,10.11l1.211-3.59l3.97,3.67l1.31-2.051l1.61,0.98l11.39,17.77l-0.26,1.521l-3.69-4.72l-0.37,1.739
		l5.62,9.891l-1.06,4.3l1.08,5.4l-10.94-10.591l-14.37-4.869l-0.739-1.83l2.819-1.96l-7.92-6.12l-2.92-0.641l1.01-1.54l-5.579-8.479
		l-2.721-1l-5.159,1.71l-4.4,6.84l-3.87,2.42l-1.31,3.891l-9.98,8.6l-1.27-1.88l3.909-6.47l1.551-8.301l4.68-2.229l-0.93-2.6
		l1.13-1.23l-1.59-2.34l-2.44,2.13l-0.89-1.521l1.29-0.159l-0.851-2.091l3.17-4.88l-0.52-3.18l2.18-4.62l-2.8-1.29L502.72,639.01z
		 M530.86,632.18l2.22,3.24l5.18,2.79l3.15,8.74l0.34,5.85l1.27,0.45l-0.239,5.17l-15.24-21.61l0.22-1.64l0.71,1.52l1.69-0.18
		l-1.311-2.939L530.86,632.18z M485.2,597.75l3.569,1.72l10.051,16.38l6.71,1.75l0.87,5.351l7.04,9.26l-3.65-2.11l-5.26-8.159
		l-4.561-0.681l-2.08-3.189l-2.319-0.551l0.649-1.01l-5.1-3.8l-0.99-3.04l-5.689-0.6l-1.49-2.391l-1.41,0.95l1.05-4.33l-2.29-2.14
		L485.2,597.75z"/>
	<path id="PH-MNL" fill="#1E3250" stroke="#1E3250" stroke-width="0.5" d="M334.31,483.82l2.97,0.33l-1.62-3.21l3.94,1.359
		l4.01-4.819l5,1.289l0,0l1.27,1.53l-2,4.72l2.05,1.32l-2.2,2.33l0.26,7.2l0,0l-3.16,2.7l-0.44,8.62l-3.12,2.1l0,0l-3.14-9.32l0,0
		l1.42-1.96l-1.08-0.51l0.8-3.85l-3.04-2.591l1.39-3.21L334.31,483.82z"/>
	<path id="PH-MSC" fill="#1E3250" stroke="#1E3250" stroke-width="0.5" d="M529.9,927.58l1.949,2.03l3.5,0.01l7.021,7.75l5.83,15.38
		l-1.2,3.021l1.32,9.09l-5.63,4.149l-2.021,3.7l-3.49-0.3l-5.449,2.95l0,0l-0.08-1.311l-5.25-0.979l-1.011-12.391l0,0l0.37-29.59
		l0,0l2.29-0.46l1.22-1.76l-1.699-0.54L529.9,927.58z"/>
	<path id="PH-MSR" fill="#1E3250" stroke="#1E3250" stroke-width="0.5" d="M645.61,896.7l2.22,9.88l-1.24,2.46l2.641,3.59
		l-1.75,1.391l0.779,14.27l0,0l0.141,5.69l0,0l-27.311-0.91l-3.939,8.729l0.18,3.811l-14.43-0.2l-0.95,8.68l-1.9,0.65l-0.939,4.479
		l0,0l-2.29-4.17l-4.48-2.84l-16.43,0.34l0,0l2.7-5.029l0.06-4.841l2.3-5.83l9.721-5.96l2.079,0.24l-0.529,2.21l7.79,5.19
		l5.529,0.67l-0.89,1.54l1.45-1.34l0.36,1.72l2.539,0.79l2.841-1.46l0.08-4.74l2.119-2.67l-2.239-7.21l2.699-1.8l-0.97-3.591
		l1.811-4.17L614.55,905.2l2.851-2.101l3.68-0.26l11.33,6.521l3.899,6.58l6.181-1.261l1.779-5.949l-1.159-6.03L645.61,896.7z"/>
	<path id="PH-MOU" fill="#1E3250" stroke="#1E3250" stroke-width="0.5" d="M380.24,289.66l0.34,15.71l0,0l-8.35-0.67l-6.37,0.97
		l-8.98,4.561l-18.09,0.659l0.27,4.841l-2.5,5.72l-2.32,2.25l-2.68,0.04l0,0l-7.52-8.09l0,0l0.37-13.24l5.64-5.88l0,0l2.86-0.19
		l1.24-4.29l0,0l10.29,1.04l2.18,3.06l5.49,1.89l6.35-1.36l6.64-7.18l5.04-1.75L380.24,289.66z"/>
	<path id="PH-NEC" fill="#1E3250" stroke="#1E3250" stroke-width="0.5" d="M499.73,756.73l3.649,0.42l5.25,3.58l6.601-0.28
		l4.38,2.479l1.699-1.26l2.931,7.35l2.37-0.54l0.189,3.62l-1.939,3.25l-1.12-0.8L519.26,792l-7.76,5.95l-1.6,4.35l0,0l-6.131-2.26
		l-8.89,0.229l5.21,10.44L487,829.56l-2.14,7.37l-24.9,29.98l-2.51,5.85l0,0l-5.49-5.229l-1.35-3.761l-2.801-1.58l-1.09-4.359
		l-1.609,0.27l1.05-2.88l-4.311-0.93l1.69-1.95l-2.98-0.609l1.471-7.891l-1.811-1.54l4.07-4.58l1.35-5.63l15.49-0.12l8.33-6.55
		l3.32,0.271l3.13-2.381l-1.96-9.54l1.71-10.609l-4.99-11.11l6.15-3.09l2.72-3.28l2-8.42l1.25-0.47l-0.7-12.07l6.311-2.1l1.58,1.32
		L499.73,756.73z"/>
	<path id="PH-NER" fill="#1E3250" stroke="#1E3250" stroke-width="0.5" d="M457.45,872.76l2.51-5.85l24.9-29.98l2.14-7.369
		l13.09-18.851l-5.21-10.439l8.89-0.23l6.131,2.26l0,0l-0.34,7.681l-3.341,6.83l-0.279,4.039l-10.88,21.19l2.14,9.65l-0.41,5.399
		l-2.29-1.609l-1.27,1.93l4.18,3.87l-0.99,1.1l-0.93-1.729l-1.29,2.649l2.479,0.061l2.2,4.99l3.22,1.09l2.32,6.13l3.79,4.49
		l-2.04,8.05l-5.979,8.42l-5.45,3.56l-3.83-1.529l-4.27,2.069l-5.37-2.71L476.65,887l-0.99-7.61l-5.08-2.5l-8.71-1.22L457.45,872.76
		z"/>
	<path id="PH-NCO" fill="#1E3250" stroke="#1E3250" stroke-width="0.5" d="M590.07,1001.69l7.08-2.171l5.08,4.33l2.949,0.681
		l3.75-1.95l7.73,2.64l0,0l1.33,4.521l-2.681,4.45l2.11-1.131l4.57,5.841l3.52-1.2l3.24,2.3l5.5-0.38l1.35-3.36l6.36-0.99l2.75-7.76
		l1.69,0.11l0.18-1.561l2.28,0.921l0,0l0.229,1.06l0,0l0.811,4.44l-2.83,11.59l1.41,6.72l-1.381,4.37l4.21,5.01l2.12,7.12
		l-2.66,0.28l-1.579,4.68l-6.54,5.46l-1.521,4.36l-3.149,0.199l1.47,4.53l0,0l-8.5,2.59l0,0l-7.7-4.55l-3.98,1.1l-2.06-0.93
		l-0.49-15.939l-1.279-0.78l0.25-3.49l1.949,0.08l0.15-1.86l-2.08-0.09l0.04-1.79l-6.19-5.88l-1.17,3.29l3.75,3.12l-1.35-0.08
		l0.45,1.86l-1.391-1.39l-0.84,2.149l-1.26-0.89l2.48,6.01l-3.011,3.71l-3.729-2.01l-2.851,0.27l-3.859-4.979l-2.3,0.71l-5.29-4.23
		l0,0l0,0l0,0l5.829-10.59l-6.829,0.5l-3.011,4.351l-3.22-0.45l5.71-9.511l1.01,0.48l4.73-10.75l-3.84-5.54L590.07,1001.69z"/>
	<path id="PH-NSA" fill="#1E3250" stroke="#1E3250" stroke-width="0.5" d="M565.33,661.98l1.04,1.13l-1.11,1.37l-1.05-1.841
		L565.33,661.98z M578.2,656.65l-2.28-7.181l2.49,3.37L578.2,656.65z M568.46,647.99l3.62,4.97l-0.75,2.32l-3.14-3.74L568.46,647.99
		z M589.14,640.58l2.061,1.84l-1,0.86l-2.11-0.95L589.14,640.58z M593.8,640.48l2.11,2.899l-1.48,0.15l-2.1-2.891L593.8,640.48z
		 M584.14,637l2.71,3.62l-2.399-1.11L584.14,637z M630,635.92l1.92,3.47l3.83,1.641l-1.61,2.34l1.931,0.47l-0.08-3.18l2.84,1.13
		l2.439-1.58l8.851,6.83l-0.521,1.42l2.261,0.33l0.279,3l3.07,1.66l-2.8,0.62l1.25,0.8l-2.22,2.3l0.319,1.85l2.221,0.23l-2.461,1.6
		l0.5,1.15l3.29-1.87l0.16,2.34l-1.35,0.28l0,0l-2.12,1.27l-7.1-8.02l-3.11,6.26l0,0l-13.01,4.25l-4.92-1.81l-3.58,8.47l-1.87-2.72
		l0.859-3.19l-9.34-5.31l-5.29,3.58l-11.47-6.851l-3.99,3.82l-5.17,0.06l0,0l-1.72-4.779l0.84-2.891l-1.08,0.75l-5-12.76l1.44-2.52
		l3.55,3.529l1.99-0.2l-0.11-1.34l2.66,1.311l-0.03-2.08l2.101,2.75l3.319-1.19l0.521,0.641l2.689,1.279l16.25,0.38l4.641-2.09
		l4.96,0.71l1.14-2.34l-1.77-1.41l5.359,1.25l1.771-1.27l-0.351,1.939l2.79,0.44l1.74-1.02L630,635.92z M635.42,633l1.68,5.98
		l-4.05-1.4l1.88-1.311l-2.22-0.92l0.14-1.46L635.42,633z M584.27,632.12l2.04,0.82l0.301,3.239L584.6,635L584.27,632.12z"/>
	<path id="PH-NUE" fill="#1E3250" stroke="#1E3250" stroke-width="0.5" d="M331.62,378.03l10.64-1.521l10.81,2.65l1.64,13.71
		l6.08,10.32l0,0l6.86,21.489l-4.68,21.261l0,0l-5.12-0.37l-7.07-5.101l-8.9,1.511l-4.78,2.56l0,0l-3.96,0.75l-2.35,3.22l-1.46-3
		l-4.44,0.04l-1.11-4.71l0,0l0.73-2.92l-3.1-2.35l1.86-5.92l-3.11-9.851l2.33-4.17l-4.15-1.13l-3.11-3.28l-3-12.649l0,0l9.5-1.54
		l5.74,4.479l2.56-2.09l4.67-11.86L331.62,378.03z"/>
	<path id="PH-NUV" fill="#1E3250" stroke="#1E3250" stroke-width="0.5" d="M364.65,329.79l4.76,4.51l0.62,3.45l0,0l-2.15,14.33
		l5.23,1.75l-0.98,6.689l-10.47,4.36l2.06,18.14l10.56,9.211l0,0l-13.49,10.96l0,0l-6.08-10.32l-1.64-13.71l-10.81-2.65
		l-10.64,1.521l0,0l-2.8-4.931l-5.26-2.239l0,0l-0.72-3.13l3.41-6.021l2.87,0.16l3.33-8.49l-0.55-5.42l1.56-6.77l0,0l28.39-4.99
		l-0.41-2.05l1.85-0.65L364.65,329.79z"/>
	<path id="PH-MDC" fill="#1E3250" stroke="#1E3250" stroke-width="0.5" d="M341.35,666.04l1.57,2.75l-2.12-0.29L341.35,666.04z
		 M345.44,661.4l2.5,4.72l-0.54,3.14l1.27-0.609l1.55,2.479l-1.21,1l-2.44-1.56l-0.85-2.851l-2.68-0.939l0.36-4.74L345.44,661.4z
		 M298.62,570.51l23.77,4.63l10.12-2.59l0,0l-0.62,6.47l-6.27,9.801l32.25,16.05l0.06,63.109l0,0l-2.45-2.229l-7.08-0.35l-1.33-3.28
		l2.62,0.14l-1.51-5.09l-4.86-0.33l-8.39-10.77l0.26-7.841l-5.22-7.689l-4.81-1.23l-0.47-6.569l-1.66-1.29l2.31-4.931l-4.13-11.239
		l-6.07-9.761l-5.95-2.96l-3.49,0.37l0.08-3.09l-3.03-2.01l-1.48-9.07l-1.89-0.88l-3.23,1.21l-0.67,2.63l-2.67-0.52l-2.57-2.841
		l-0.79-1.88l2.03-3.319L298.62,570.51z M290.04,558.98l7.61,2.01l0.79,2.04L290.04,558.98z M288.91,547.55l3.28,2.16l-1.79,2.4
		l-3.69-2.42L288.91,547.55z M274.46,545.4l8.02,4.01l1.48-0.8l4.75,6.439l-2.74,1.07l2.74,0.72l0.52,1.84l-2.04,1.15l-1.01-2.37
		l-11.13-6.09l-1.75-4.771L274.46,545.4z M270.34,542.83l1.67,1.58l-0.75,0.87l-2.18-1.42L270.34,542.83z"/>
	<path id="PH-MDR" fill="#1E3250" stroke="#1E3250" stroke-width="0.5" d="M338.58,574.84l5.99,4.67l9.05-0.91l1.26-1.489
		l4.66,6.069l2.82,0.73l5.47,7.87l4.53,0.88l0.14,6.189l4.76-0.52l3.5,2.37l-0.01,2.24l-5.12,5.25l0.9,5.909l-1.65,12.141l5.28,7.72
		l-0.04,2.81l-3.04,6.181l-4.98,2.29l0.54,2.949l-2.58,2.421l0.24,3.449l2.88,2.79l-5-0.17l0.99,5.54l-2.18-0.899l-0.12-2.051
		l-1.53,0.101l-0.9,2.29l-4.08,0.739l-2.45,5.551l0,0l-0.06-63.11l-32.25-16.05l6.27-9.8l0.62-6.471l0,0l4.52-0.29L338.58,574.84z"
		/>
	<path id="PH-PLW" fill="#1E3250" stroke="#1E3250" stroke-width="0.5" d="M55.27,970.9l1.01,12.319l-1.31,0.61l-0.5,3.979
		l-3.63,2.851l-1.37-0.83l0.49-2.59l-5.17-6.29l2.78-1.09l-1.21-3.48l1.23-4.03l0.12,2.75l2.57-1.93l-0.53-1.39L55.27,970.9z
		 M52.14,966.9l2.41,3.29l-3.38,0.979l-1.92-1.99L52.14,966.9z M60.17,963.27l3.49,0.061l1.25,1.83l-4.14,0.18L60.17,963.27z
		 M56.48,958.32l2.7,2.319l-3.09-0.06L56.48,958.32z M73.41,952.77l2.14,2.44l-0.41,5.88l-3.83,2.271l-2.22-2.221l0.36-6.909
		l0.78-1.351L73.41,952.77z M66.71,953.69l2.03-0.23l-0.13,1.9l-5.86,2.399l-0.95-2.199l2.17-0.33l2.78-3.53L66.71,953.69z
		 M206.98,787.3l-1.53,2.69l-1.65,0.08l1.19-1.57l-1.07-1.15L206.98,787.3z M255.33,782.65l5.5,3.85l5.68-0.14l1.53,2.569
		l-1.32,1.07l-0.2,1.43l-2.59,0.9l-0.23-1.25l-1.04,2.28l-3.28-3.33l2.83,4.87l-4.91-0.08l1.32,1.71L253.6,798l-3.09-1.66
		l-0.92-6.49l1-0.92l2.1,1.351l2.98-4.94L255.33,782.65z M345.49,763.75l-0.69,2.29l1.49,1.51l-1.65,1.2l0.46,2.28l-3.13,0.689
		l-1.73-2.27l0.43-1.931L345.49,763.75z M216.35,755.31l0.07,5.511l-2.2-2.53l0.51-2.69L216.35,755.31z M246.54,752.72l1.17,2.08
		l-1.76,0.07L246.54,752.72z M237.57,749.62l2.94,1.08l0.3,4.609l-1.43,1.311l-0.85-2.101l-2.66-0.739L237.57,749.62z
		 M245.05,747.85l0.81,2.311l-1.53,1.27l-0.74-3.359L245.05,747.85z M338.98,744.2l0.46,1.43l-3.1,1.42l-0.47-1.39L338.98,744.2z
		 M239.08,742.81l1.68,0.44l-0.21,1.82l-4.55,1.79l-0.49-2.591L239.08,742.81z M245.58,733.35l-1.28,4.311l-1.55-2.68L245.58,733.35
		z M229.88,725.8l1.94,0.67l0.4,6.09l1.95,0.761l1.17-1.351l1.07,3.58l-2.19,8.61l-2.72,3.05l2.64,4.68l1.73-1.12l0.63,5.711
		l-4.86-0.061l-1.38,9.76l3.71,4.551l2.89-1.851l1.8,1.15l-1.61,2.88l1.71,4.3l-2.19,4.44l2.96-0.021l1.75-1.99l1.61,1.28l0.75,1.33
		l-3.26-0.21l1.23,1.8l-1.02,1l2.09,0.971l1.14,4.64l2.39,0.14l-0.76,1.11l1.73,1.43l-9.5,6.25l-1.14,3.66l-8.24-0.19l-9.67,4.641
		l-5.79,8.08l-3.37,11.27l-16.25,4.66l-5.32,0.67l0.07-1.07l-5.72,3.721l-5.12,0.72l-0.71,6.43l2.36,3.19l-0.28,5.45l-2.82-0.65
		l-0.5-4.21l-2.4,1.85l0.26,3.761l2.48,0.329l0.46,1.99l1.9-0.479l-0.06,1.52l-7.84,8.351L158.06,882l-4.2,1.06l-0.73,2.511
		l-1.82,0.18l-3.76,4.71l-9.76,0.65l-4.42,2.5l-1.76-0.761l-1.58,6.801l-2.41,0.369l0.85,2.341l-1.62,0.43l-4.06,9.4l-8.45,3.76
		l-10.52,10.32l-8.61,2.199l-4.2-1.21l-2.17,2.29l0.85,3.38l-3.39,6.96l-3.21-1.489l-1.79,1.96l-4.25,0.01l-11.96,9.69V952
		l-1.98,0.09l-0.24-2.64l2.67-4.48l0.23-6.67l3.42-4.18l-0.75-2.16l1.28,0.53l1.66-3.98l2.78-1.26l0.73-1.82l-1.51,0.16l2.66-3.49
		l4.73-1.02l-0.43-1.98l2.66-1.89l0.85-3.21l5.91-7.46l2.56-0.34l2.75-2.78l0.58-3.51l4.46-3.04l0.71,1.899l3.32-0.3l2.08-7.08
		l2.6-2.439l3.65-0.811l3.21-3.79l3.39,0.69l2.09-2.12l0.19,2.59l2.64,0.11l4.91-6.59l2.84-0.65l0.02-3.979l4.22-0.971l0.88-4.43
		l9.55-8.06l0.81-4.96l4.8-1.04l0.97-3.04l6.63-4.03l6.85-8.05l-0.03-3.28l2.9-1.42l1.35-3.021l-1.37-2.1l5.69-2.36l2.84-7.1
		l0.99,8.021l2.4-0.471l0.08-2.89l2.1-2.65l-2.32-0.79l-0.05-5.54l9.67-1.199l0.95-3.21l-1.09-0.9l1.8-0.42l-2.15-1.391l2.42,0.351
		l0.42-1.87l2.4-0.16l0.13-2.26l1.48,0.26l-0.79-2.62l-2.95,2.16l-0.69-1.81l1.49-2.69l2.8-0.67l2.78,2.08l0.04-2.53l2.98-0.81
		l-2.25-1.25l0.64-2.181l2.32-0.35l-0.06,5.43l1.85,2.15l5.58-7.28l2.9-0.189l0.94-2.17l-2.86-2.48l2.68,0.65l3.79-3.87l1.8-10.6
		l-2.66-2.851l-2.33,0.71l-0.88-4.899l-3.87-1.28l3.62-2.65l-1.37-1.7l-1.94,0.2l1.34-2.09l-0.85-1.5l1.58,0.26l0.14,2.94l1.59-2.73
		l1.35,0.851l-0.5,3.14l1.54,0.14l-2.42,1.54l3.1-0.04l-1.82,1.74l2.1,1.3l0.37-1.25l1.08,2.65l1.78-0.79l-0.83,1.55l2.98,0.47
		l0.77,2.79l1.36-0.77l1.09,3.45l2.27-0.4l-2.06-5.479l-0.12-2.29l1.53-0.94l-2.9-2.07l-4.68,0.03l-1.08-1.63l1.99-3.22l-3.76-0.48
		l-0.47-4.689l1.24-1.98l1.51,3l2.4-0.83l-3.34-2.43l1.16-1.3l-1.51-0.021l0.2-3.699l3.38,4.6l3.18,0.479l0.76-7.479l-1.94,0.49
		l-0.31-2.62l1.52-3.08l-0.47-7.5l4.59-3.78L229.88,725.8z M254.3,718.77l4.13,2.021l-0.14,2.94l-3.63,5.58l-1.32-1.771l1.55-2.03
		l-2.68,0.2l-0.91,2.25l-4.48-5.11l1.21-1.119l3,3.039l-0.25-1.489l1.42,0.02l-1.64-1.35l0.96-1.25l1.79,3.02l0.54-1.47l1.89,1.09
		l-0.78-1.87l1.7-0.199L254.3,718.77z M278.15,700.79l2.44,0.08l0.22,1.27L278.15,700.79z M260.94,685.15l5,2.229l-2.22,0.39
		l0.04,2.25l5.77-1.449l0.32,1.149l-2.94,1.28l6.27,2.57l-3.88,1.41l2.21,0.22l-1.58,2.5l3.16,1.31l-2.8,2.271l1.69,0.08l-0.64,2.8
		l-6.71,4.359l-1.33-5.319l4.68-4.101l-2.85-0.97l-0.06,2.641l-2.43,0.3l-1.66-2.391l-0.98-2.76l1.52-1.01l-4.96-7.66l3.24,1.72
		l-1.32-3.409L260.94,685.15z M285.8,684.56l2.08,3.58l-2.06,2.07l2.86,0.06l0.4,1.641l-3.41,2.68l-4.05-6.53L285.8,684.56z
		 M260.27,659.21l2.14,0.72l0.26,3.53l6.15,1.17l3.51,4.71l2.7-0.76l-0.09,1.81l4.67,4.07l3.63-0.83l0.74-4.88l1.44-0.09l0.25,5.02
		l2.06-0.92l0.83,2.16l3.36,1.72l0.26,7.33l-2.65,0.8l-3.4-1.84l-2.04,1.771l-3.98-3.431l-2.74-0.21l0.38,2.15l-2.74,3.11
		l-0.85-2.79l-2.44-1.45l-2.43,2.22l-3.05-1.54l-6.01-14.22l-3.19,3.96l1.65-5.53l-1.19-0.8l1.49-4.08l-1.1-1.53L260.27,659.21z"/>
	<path id="PH-PAM" fill="#1E3250" stroke="#1E3250" stroke-width="0.5" d="M294.67,448.3l14.72-6.87l6.11-0.88l2.98,1.05l3.07-1.699
		l0.2,1.25l2.03-0.311l0,0l1.12,4.71l4.44-0.04l1.46,3l2.35-3.22l3.96-0.75l0,0l-0.86,4.71l3.16,3.96l-1.44,5.01l-2.05-0.09
		l-1.28,3.1l-1.71-0.659l0.19,1.97l-4.66,3.75l-6.36,0.58l-2.83,8.92l0,0l-4,2.38l-5.56-4.73l0,0l-3.81-0.71l-2.01-5.27l-2.68-1.37
		l0,0l-2.91-4.59l-1.14-6.52l-2.82-2.051L294.67,448.3z"/>
	<path id="PH-PAN" fill="#1E3250" stroke="#1E3250" stroke-width="0.5" d="M267,359.77l2.34,2.65l-1.73,2.78l1.44,2.689l-1.8,1.431
		l-5.48-5.78l2.34-2.58l0.93,2.13l0.22-2.939L267,359.77z M286.18,414.58l-7.63-15.4l-4.6,0.98l-4.11-2.57l-2.76,3.97l-7.44-1.079
		l0,0l1.86-2.45l-3.73-8.67l-1.13-1.17l-2.48,1.109l-0.58,2.521l-1.44-0.7l-0.93,1.31l-1.65-3.8l1.77-4.39l-1.34-1.86l0.47-4.4
		l1.43-2.02l-2.06-2.82l2.18-5.149l-0.32-5.221l2.6-3.739l2.92,0.04l1.98-2.67l3.02,1.859l-0.69,9.54l4.68,1.311l-0.3,1.369
		l3.27,2.86l0.71-1.729l4.21,1.56l1.71,1.9l-1.62,2.83l1.84,2.14l-1.24,0.76l3.42,2.23l13.33-1.431l6.92-7.8l-0.55-3.46l0,0
		l6.1-0.229l0.95-1.921l0,0l10.37,3.711l8.24-1.03l0,0l5.26,2.24l2.8,4.92l0,0l3.08,9.54l-4.67,11.859l-2.56,2.09l-5.74-4.479
		l-9.5,1.54l0,0l-1.8-4.271l-2.91,8.88l-4.85,3.061l-6.42-2.67l-5.51,7.3l0.52,1.36L286.18,414.58z M262.93,353.9l2.05,4.319
		l-3.66-1.18l0.13-2.74L262.93,353.9z"/>
	<path id="PH-QUE" fill="#1E3250" stroke="#1E3250" stroke-width="0.5" d="M395.24,539.55l2.42,0.311l0.12,4.449l-3.73-1.05
		L395.24,539.55z M410.4,520.25l11.83,8.6l4.55,5.881l-2.351,0.51l-12.569-8.181l-5.29-6.13l1.229-3.14L410.4,520.25z
		 M400.43,512.71l1.801,0.33l-2.37,3.78l-1.221-3.28L400.43,512.71z M442.69,481l2.06,2.06l-1.05,1.04l-8.5,0.83l2.069-2.62
		L442.69,481z M422.62,473.6l3.63-1.21l0.53,2.761l4.859,1.29l0.021,4.8l-10.92-5.82l-0.96-2.76L422.62,473.6z M414.64,469.84
		l4.421,2.851l-4.351-0.33L414.64,469.84z M409.3,456.52l5.07,2.04l-0.74,1.671l2.93,0.14l0.46,3.24l-1.84-2.19l-1.5,0.32
		l-1.39,2.24l2.01-0.78l0.141,3.58l-3.851,0.96l0.99,4.93l3.03,2.33l1.01,7.13l-2.47,3.62l-4.69,2.99l-2.56-3.71l0.119-3.601
		l2.37,0.931l-2.109-6.78l-5.41-11.391l-0.23,2.04l-2.18-0.619l2.62-7.7l2.12,1.31L409.3,456.52z M365.15,461.04l-0.01-3.47
		l4.1-6.141l-1.21-3.47l2.76-3.2l0,0l4.55,2.59l1.79,9.41l7.75,15.04l-0.83,1.98l9.6,9.8l-3.47-0.42l-3.71,2.58l-1.15-1.44
		l-1.14,2.5l4.11,19.021l4.85,5.199l0.13,3.971l2.17,2.109l-1.8,6.07l15.35,13.06l11.13,4.851l9.62,2.03l0.89-3.511l-3.21-1.25
		l-1.25-2.609l8.521,2.739l-0.44-2.5l2.14-2.069l-2.439,0.149l-0.17-1.609l-6.91-4.05l-2-3.53l0.12-1.38l1.63,1.529l-0.43-1.779
		l2.42-2.061l2.17,0.99l0.28-4.88l1.979,0.55l-0.63,8.24l3.08-0.96l-0.67,4.06l0,0l0.109,1.09l4.681,0.21l5.56-6.21l25.29,9.98l0,0
		l-17.729,4.83l0,0l-1.471-0.82l-0.26,2.8l-5.41-0.239l5.44,8.13l-1.11,3.38l1.08,2.83l-2.35,0.01l-0.83,1.48l1.22,4.88l3.521,4.67
		l6.409,4.09l-1.17,1.16l-3.88-3.54l8.141,13.52v7.75l1.909,3.721l-7.54,4.59l-6.869-5.98l1.35-2.79l-0.49-5.09l-8.35-12.99
		l-5.09-2.67l-0.721-2.21l-3,1.15l-1.399-0.54l1.21-0.851l-0.851-0.939l-4.21,0.32l-0.399-2.66l-7.521-10.95l-3.21,0.75l-1.96-2.36
		l-3.359,0.051l-0.641-2.561l-5.87-1.63l-1.41-2.49l-3.369,0.33l-0.631-3.67l-2.39,0.09l-2.5-2.14l-3.9,0.52l0.81,2.891l-5.99,1.08
		l-0.63,1.35l-0.99-0.99l-10.59,6.16l0,0l-6.34-3.71l-7-0.53l-2.53-3.52l2.03-1.13l-0.31-1.851l0,0l4.97-1.63l7.37-5.819l4.45-0.73
		l2.17-5.38l3.07-1.76l4.77-6.73l-0.56-9.859l-4.64-1.141l-6.46-12.43l0,0l-8.61-15.271l-0.42-8.33l0,0L365.15,461.04z"/>
	<path id="PH-QUI" fill="#1E3250" stroke="#1E3250" stroke-width="0.5" d="M370.03,337.75l10.81,0.88l14.35,18.061l23.71-10.811
		l3.58,0.26l0,0l-4.841,3.181l-16.67,19.54l-26.69,23.37l0,0l-10.56-9.211l-2.06-18.14l10.47-4.36l0.98-6.689l-5.23-1.75
		L370.03,337.75z"/>
	<path id="PH-RIZ" fill="#1E3250" stroke="#1E3250" stroke-width="0.5" d="M357.91,510.79l0.15,2.8l-1.92-4.52l0.52-5.29l1.24,5.55
		l0,0l1.79,0.8L357.91,510.79z M359.44,497.54l-0.06,0.04l0,0l0.11-0.11l0,0L359.44,497.54z M359.06,497.63L359.06,497.63
		l0.16-0.229l0,0l-0.16,0.189V497.63z M358.98,496.94l0.08,0.02l0,0l-0.07,0.05l0,0L358.98,496.94z M365.41,468.88l0.42,8.33
		l8.61,15.271l0,0l-6.85,4.27l-1.13,4.56l0.54,6.671l1.53,1.68l-5.75,4.06l2.26-9.06l-0.94-3.75l-5.42-4.09l-2.42,3.22l-0.25,4.7
		l-3.77-7.58l-4.26-1.29l0,0l-0.26-7.2l2.2-2.33l-2.05-1.32l2-4.72l-1.27-1.53l0,0l4.97-4.989l5.52-1.101L365.41,468.88z"/>
	<path id="PH-ROM" fill="#1E3250" stroke="#1E3250" stroke-width="0.5" d="M408.31,676.22l1.83,2.32l-0.52,2.54l-3.19-2.29
		L408.31,676.22z M452.62,646.08l7.88,1.62l3.17,6.05l-1.189,5.35l-3.471,4.551l-5.26-3.32l-1.55-3.62l-6.641-2.65l-1.829-2.68
		l2.68-3.95L452.62,646.08z M433.59,637.23l3.11,6.22l0.06,2.63l-1.88,2.05l-3.86-3.88l0.931-0.93l-1.29-2.2l1.689-0.311
		L433.59,637.23z M421.35,633.6l2.771,1.091l0.61,2.069l-2.381-0.24l-0.55,1.23l1.29,5.93l-2,2.94l-1.729,13.68l-3.41,6.271
		l0.16,2.67l1.85,0.84l-3.22,1.8l-0.71,4.24l-4.09-6.66l0.67-3.67l1.529,3.61l2.11-3.25l-3.68-1.75l-1.65-2.99l-1.229,0.8
		l-0.44-2.32l1.49-5.46l3.29-1.17l1.34-2.6l-0.29-11.36l5.42-1.89L421.35,633.6z M419.14,621.53l-1.779,3.979l-2.16-0.18
		L419.14,621.53z M391.47,613.28l2.34,1.52l-1.51,2.49l-2.56-2.53L391.47,613.28z M418.87,612.35l1.29,0.351l-0.71,2.88l-2.29,0.91
		l-1.851-3.34L418.87,612.35z"/>
	<path id="PH-WSA" fill="#1E3250" stroke="#1E3250" stroke-width="0.5" d="M618.49,705.97l4.21,0.98l-0.63,4.14l-3.32-0.57
		l-0.99-5.71L618.49,705.97z M611.24,703.56l1.67,3.591l1.96-1.011l-1.05,1.62l2.87,1.75l-0.841,3.311h3.95l-1.95,5.239l-2.319-1.39
		l1.04-1.3l-2.891-0.601l-0.33-2.5l1.98,0.091l-4.96-4.48l-0.3-4.319L611.24,703.56z M612.66,702.59l1.99,1.021l-1.03,2.01
		L612.66,702.59z M604.71,689.29l1.58,0.79l-0.49,1.46L604.71,689.29z M590.66,688.7l1.25,2.93l-3.59-0.18l0.43-2.2L590.66,688.7z
		 M582.21,686.33l0.48,1.59l-2.011,2.7l-2.319,0.31l0.069-2.31L582.21,686.33z M588.8,684.14l0.25,2.521l-1.68-0.78L588.8,684.14z
		 M574.37,677.34l0.979,1.771l-1.619-0.66l-2.851,2.68l-2.22-1.12l1.65-2.279L574.37,677.34z M583.99,662.53l5.17-0.061l3.99-3.819
		l11.47,6.85l5.29-3.58l9.34,5.311l-0.86,3.189l1.87,2.72l3.58-8.47l4.92,1.811l13.01-4.25l0,0l-0.529,7.369l-2.41,1.57l0.189,12.65
		l6.73-0.011l4.5,10.4l0.88,13l-4.43,3.23l-1.05,2.579l1.77,11.391l5.51,3.33l-4.16,5.97l0.28,14.67l0,0l-1.27,2.351l-1.94-0.91
		l-4.25-13.051l-5.77-0.779l-4.65,1.35l-2.05-1.15l-0.41-2.85l1.69-2.24l-2.65-7.439l-4.12-1.2l-1.08-2.8l0.07,3.34l-3.53-0.2
		l-1.43-1.859l2.7-4.75l0.989,1.56l1.61-0.38l-0.9-2.811l6.141-0.5l-0.601-0.979l2.07-1.53l-0.8-4.02l3.97-3.12l0.54-3.271
		l-2.97-1.45l-6.391,2.881l-1.659-1l-2.03-4.36l-6.07-3.69l1.83-1.819l-0.7-1.22l-3.81,0.609l0.38-2.29l1.87-0.729l-4-0.761
		l-0.24-2.329l-5.26-5.391l-7.92-0.82l-10.03-9.8L583.99,662.53z"/>
	<path id="PH-SAR" fill="#1E3250" stroke="#1E3250" stroke-width="0.5" d="M659.56,1162.561l2.24,1.14l-0.56,3.91l-5.141-0.11
		l-1.569-1.609L659.56,1162.561z M665.42,1158.23l1.53,1.989l-2.07,5.71l-1.45-3.359l1.61-1.49l-1.271-0.811l1.94-0.05
		L665.42,1158.23z M586.87,1106.23l28.77,14.729l16.16,0.56l2.62-3.979l-0.01,7.06l3.649,0.351l0,0l-2.02,6.979l-10.88-0.029
		l-23.28-9.2l-1.85-2.14L595.68,1120l-12.02-6.92l0,0L586.87,1106.23z M643.15,1087.62l5.67,3l5.069-2.3l2.301-3.53l5.22,1.54
		l4.45,6.6l0.46,3.99l-2.44,2.64l3.36,5.141l0.43,6.97l2.03,2.24l-4.181,14.46l0.551,4.16l-6.75,14.279l-6.271,4.69l1,1.439l0,0
		l-2.03-0.979l1.08-3.49l-1.58-4.47l-3.539-1.86l-1.5-3.56l-2.5-0.46l-0.7-2.061l0.5-2.64l1.939,0.93l0.55-4.439l4.16-2.221
		l1.351-4.35l-1.351-7.689l-2.35-1.011l0,0l-0.37-5.449l2.62-7.261l-14.18-5.08l2.84-5.789h2L643.15,1087.62z"/>
	<path id="PH-SIG" fill="#1E3250" stroke="#1E3250" stroke-width="0.5" d="M529.39,881.5l2.091,0.43l3.819,5.261l-2.16,2.43
		l3.32,3.25l-1.52,1.75L532,894.27l-3.78,2.28l-9.89-7.21l1.29-2.27l6.51-0.181l2.351-1.819L529.39,881.5z"/>
	<path id="PH-SOR" fill="#1E3250" stroke="#1E3250" stroke-width="0.5" d="M554.4,601.65l1.689-0.2l8.16,7.91l3.43-5.42l4.63,1.54
		l0.19,2.699l-1.85,1.12l-1.12-1.13l-1.09,6.26l-1.86,1.75l2.2,1.021l0.64,6.41l-1.45,10.3l-3.01,2.55l1.14,3.05l-1.81,0.9
		l1.03,1.24l-1.33,2.21l-6.641-0.63l-3.81-4.061l-0.12-2.01l-1.27,0.68l-3.11-2.85l-3.271-12.71l2.061-3.49l5.5,2.28l0.97-2.301
		l5.021-0.079l1.8-3.86l-1.4-3.22l-3.989,1.31l-5.99-1.689l-2.16,5.899l-1.311-0.47l-0.579,2.12l-0.87-1.07l-1.53,2.04l-2.44-1.81
		l-2.08,3.12v-3.841l-3.029,2.341l-0.75-4.271l-2.5,1.93l0.34,1.971l-6.88-5.511l-2.061,0.54l-3.54-3.819l0,0l6.79-3.12l3.971,1.529
		l7.63-1.01l2.529,2.83l6.461-4.05l3.409-0.03l2.561-5.72l0,0L554.4,601.65z"/>
	<path id="PH-SCO" fill="#1E3250" stroke="#1E3250" stroke-width="0.5" d="M586.87,1106.23l-5.7-2l-2.68-6.28l19.109-0.53l3.74,1.34
		l3.61-6.06l-3.04-8.3l2.83-7.771l0.99-0.51l1.26,2.069l5.569-5.199l6.08,10.09l26.33-0.3l0,0l-1.819,4.84l0,0l-2.15,3.42l-2,0.01
		l-2.84,5.78l14.18,5.08l-2.62,7.26l0.37,5.45l0,0l-5.52-0.56l-4.511,10.89l0,0l-3.649-0.34l0.01-7.07l-2.62,3.979l-16.16-0.56
		L586.87,1106.23z"/>
	<path id="PH-SLE" fill="#1E3250" stroke="#1E3250" stroke-width="0.5" d="M641.53,784.73l3.09,3.3l-1.98,3.159l1.96,4.421
		l-0.899,3.27l2.57,3.22l1.819-0.689l1.351,1.71l0.71,5.319l-1,2.91l-2.471,0.88l-6.399-2.14l-0.21,8.37l6.069,2.5l4.921,9.81
		l0.789,5.78l-2.569,0.11l-5.12-9.101l-3.66-1.77l-0.93-8.46l-2.82-2.91l-5.46-11.93l-2.86,0.529l0.641,11.721l3.37,9.18l0.3,6.08
		l-8.92-6.21l-1.13-2.32l-8.141-0.89l-1.3-4.3l0,0l1.15,0.5l5.229-5.011l3.811-0.819l-0.49-10.221l3.39-8.79l8.21,0.03
		L641.53,784.73z"/>
	<path id="PH-SUK" fill="#1E3250" stroke="#1E3250" stroke-width="0.5" d="M561.08,1067.2l16.27-0.2l1.25,2.14l16.58,0.061l5-5.261
		l-1.71-4.789l7.41-1.58l2.72,1.1l-2.14,6.141l5.78,0.119l3.88,9.631l6.25-0.511l8.58-4.66l0,0l8.5-2.59l0,0l2.27,1.73l-1.45,0.649
		l0.091,3.101l3.479,4.27l1.13,6.23l0,0l-26.33,0.3l-6.08-10.09l-5.569,5.199l-1.26-2.069l-0.99,0.51l-2.83,7.771l3.04,8.3
		l-3.61,6.06l-3.74-1.34l-19.109,0.53l2.68,6.28l5.7,2l0,0l0,0l0,0l-3.21,6.85l0,0l-1.96,0.35l-10.15-6.99l-1.27-4.51l-4.36-3.42
		l-2.04-4.88l-1.75,0.66l-2.58-10.54l3.16-1.51l-2.05-0.69l1.229-5.38l-2.68-6.609L561.08,1067.2z"/>
	<path id="PH-SLU" fill="#1E3250" stroke="#1E3250" stroke-width="0.5" d="M327.32,1156.689l1.26,2.5l-1.97,1.75L327.32,1156.689z
		 M325.9,1159.65l-1.89-0.561l2.36-2.65L325.9,1159.65z M325.48,1152.92l1.16,0.96l-0.76,2.45l-2.89,1.74l-0.94-2.25l1.37-2.46
		L325.48,1152.92z M329.52,1151.59l3.98,3.41l-3.48,3.689l-3.19-4.06L329.52,1151.59z M345.64,1144.65l-2.36,1.84l-2.05-1.76
		L345.64,1144.65z M330.69,1143.28l1.59,0.72l-2.04,1.87l-4.58,0.01l0.86-2.569L330.69,1143.28z M334.43,1139.3l1.04,2.88
		l-3.15,1.601l-0.17-3.46L334.43,1139.3z M351.02,1132.58l3.16,1.14l1.11,2.41l-4.84,0.97L351.02,1132.58z M263.27,1129.95
		l1.69,1.729l-3.03-0.66L263.27,1129.95z M267.58,1126.08l-0.17,2.16l-1.36-0.721L267.58,1126.08z M382.88,1123.41l0.79,1.75
		l-1.92,1.45l-0.89-1.78L382.88,1123.41z M276.73,1124.87l-2.47-1.38l0.74-1.09L276.73,1124.87z M380.71,1119.66l-2.55,2.29
		l1.5-3.12L380.71,1119.66z M370.7,1117.77l0.65,2.761l-2.91-0.07l-0.45-1.42L370.7,1117.77z M389.35,1117.77l3.87,1.681l-4.43,3.11
		l-1.09-0.66l2.44-2.28L389.35,1117.77z M348.4,1115.05l3.13,0.99l3.78,5.92l5.33-1.689l2.72,1.26l5.53-0.62l2.31,3.74l-2.74,1.35
		l-0.2,2.65l-2.28-0.96l-4.91,4.439l-0.3-1.479l-3.25-1.181v-3.199l-2.99-1.23l-8.71,5.5l-3.68-3.76l-6.14,2.89l-4.42-2.26
		l-0.44-2.5l3.41-5.2l5.66-2.04l1.46-2.38L348.4,1115.05z M396.13,1114.9l6.851,5.319l6.26-2.39l-6.811,3.979l-5.77-4.01l-1.47-1.8
		L396.13,1114.9z M306.77,1111.12l1.41,1.33l-0.99,1.109L306.77,1111.12z M401.31,1110.9l0.79,2.029l-2.38,0.061L401.31,1110.9z
		 M300.96,1109.1l-0.36,2.9l-2.74-1.43L300.96,1109.1z M399.72,1108.84l0.99,2.01l-1.9,1.4l-0.76-1.68L399.72,1108.84z
		 M337.86,1106.689l1.92,0.95l-0.42,1.15l-1.67,0.36L337.86,1106.689z M315.32,1098.4l0.58,3.08l-2.22,2.06l-0.87-1.229
		L315.32,1098.4z M330.36,1096.77l0.95,1.65l-2.44,0.811L330.36,1096.77z M311.04,1093.04l-1.31,10.47l-7.24-0.24l0.14-1.31
		l2.84,0.479l2.64-7.84L311.04,1093.04z M319.35,1089.9l0.02,3l-3-0.561L319.35,1089.9z"/>
	<path id="PH-SUN" fill="#1E3250" stroke="#1E3250" stroke-width="0.5" d="M676.29,850.25l2.57,0.42l-0.391,4.26l-1.6-3.42
		l-1.42,0.48L676.29,850.25z M705.46,849.89l2.96,0.301l-0.04,1.43l-2.62-0.26l-1.85,2.22l0.05-1.53l-2.59,0.99l0.51-3.42
		l1.891,2.13L705.46,849.89z M699.09,847.99l-0.25,1.779l1.66-0.85l0.67,1.3l-0.66,2.96l2.07,1.851l-2.03,6.95l-1.74,0.6
		l-3.689-3.86l1.63-1.06l-0.24-2.01l1.42-0.07l-0.939-7.32L699.09,847.99z M677.28,845.55l1.8,2.76l-3.13-1.14L677.28,845.55z
		 M682.8,845.54l1.65,0.81l-1.05,2.07l-1.851-0.85l-0.359-2.03H682.8z M666.73,845.42l0.699,2.07l5.09,0.54l-0.689,1.25l1.689,1.569
		l1.381,6.511l3.29,2.3l6.199,0.55l0.061,1.91l7.62,1.79l2.12,3.069l3.1,0.29l0,0l-12.34,12.471l0,0l-0.521-4.86l-3.91-3.26
		l-9.069-1.67l-7.891,1.38l0,0l-4.51-15.83l0.72-8.13l2.82-1.891l-0.2-2.26l1.57,0.98l-0.61,1.449L666.73,845.42z M677,836.9
		l-0.1,2.71l0.529,0.83l1.11,1.02l2.16-0.21l-7.101,3.4l0.37-1.971l-1.149,0.83l-0.141-1.42L677,836.9z M668.11,836.88l2.739,3.58
		l-3.149-1.8L668.11,836.88z M701.27,836.38l-4.659,2.851l4.739-4.48L701.27,836.38z M707.77,825.66l4.29,13.649l-1.63,1.431
		l3.15,0.92l0.46,2.83l1.49-0.04l-3.96,4.359l-4.561-0.479l-7.46-5.93l0.76-1.45l2.49-0.101l-2.45-1.75L707.77,825.66z"/>
	<path id="PH-BAS" fill="#1E3250" stroke="#1E3250" stroke-width="0.5" d="M412.14,1099.33l0.061,1.63l-2.38-0.521l0.399-1.47
		L412.14,1099.33z M385.47,1078.12l0.79-3.771l-4.98-3.76L385.47,1078.12z M415.87,1097.86l-0.87-1.63l-0.85,1.51L415.87,1097.86z
		 M411.13,1095.4l-1.899,0.81l2.63,0.851L411.13,1095.4z M423.36,1073.061l-0.54-3.41l-2.86,0.26l-2.479-2.78l-5.16,1.09
		l-7.721,5.811l-3.75-1.71l-2.869,5.359l6.189,3.45l-0.67,3.99l6.36,5.36l-0.13,1.699l5.979-0.35l10.4-2.98l2.26-9.27l6.63-0.73
		l1.73-2.46l-1.551-1.529L423.36,1073.061z"/>
	<path id="PH-ZAS" fill="#1E3250" stroke="#1E3250" stroke-width="0.5" d="M479.4,982.3l3.369,0.311l8.391-6.12l6.47,0.18
		l2.44-17.74l25.33,1.75l0,0l1.01,12.391l5.25,0.979l0.08,1.311l0,0l2.43,4.399l0,0l-3.53,9.101l0,0l-4.06-1.681l-10.29,2.641
		l-0.21,3.38l4.439,2.939l-0.3,4.341l-1.069,2.859l-5.721,1.65l0.29,3.7l-2.359-1.7l-1.391,1.88l3.25,1.35l1.021,5.521l1.2-0.61
		l2.8,2.37l-0.98,1.76l1.141,2.641l-2.69,1.12l-9.53-7.891l1.21-4.569l-5.56-0.62l-3.07,2.489l1.16,1.431l-1.56,1.399l-0.5-2.109
		l-3.931-1.391l-0.93-3.33l1.99-1.479l-2.41-1.63l1.77-0.16l1.091,2.02l4.31-1.05l-1.39-3.58l-3.62-1.609l0.81-3.641l-1.66-1.55
		l-1.3,2.12l0,0l-0.88-7.67l-12.31-1.56V982.3z"/>
</g>
</svg>
