<?xml version="1.0" encoding="utf-8"?>
<!-- Generator: Adobe Illustrator 15.0.0, SVG Export Plug-In . SVG Version: 6.00 Build 0)  -->
<!DOCTYPE svg PUBLIC "-//W3C//DTD SVG 1.1//EN" "http://www.w3.org/Graphics/SVG/1.1/DTD/svg11.dtd">
<svg version="1.1" id="Layer_1" xmlns:amcharts="http://amcharts.com/ammap"
	 xmlns="http://www.w3.org/2000/svg" xmlns:xlink="http://www.w3.org/1999/xlink" x="0px" y="0px" width="840.5px" height="540.5px"
	 viewBox="0 0 840.5 540.5" enable-background="new 0 0 840.5 540.5" xml:space="preserve">
<defs>
	
	
		<amcharts:ammap  projection="mercator" bottomLatitude="1.179868" leftLongitude="103.619003" topLatitude="1.470915" rightLongitude="104.084977">
		</amcharts:ammap>
</defs>
<g>
	<path id="SG-01" fill="#1E3250" stroke="#1E3250" stroke-width="0.5" d="M430.84,77.29l6.38,3.86l8.891,10.73l4.989,1.87l2.101-2.6
		l4.359,0.42l14.99,4.56l5.66,4.3l0,0l-0.3,0.29l0,0l-5.15,7.86l0,0l-10.02,7.12l-1.68,7.58l0,0l-0.561,2.62l0,0l-7.4,6.09
		l-0.09,6.18l-6.67,10.65l-6.779,20.43l0,0l-11.341-1.64l0,0l-6.87,1.29l-11.159,23.74l-0.141,5.87l5.29,13.45l-10.3,3.57v3.72
		l13.01,1.86l5.011,15.73l9.579,3.72l6.87,6.86l1.431,10.45l0,0l-5.15,4.15l0,0l-3.72,3l0,0l-1,3.43l2.859,7.44l-1.76,7.47l0,0
		l-10.47,10.12l0.83,17.15l-16.431-0.12l-1.97,8.351l2.17,7.13l2.04,0.2l5.37-10.931l3.46,0.07l11.41,5.5l5.92,8.689l-17,13.37
		l-8.41-2.14l-1.64-3.83l-6.05-1.8l-2.53,2.03l0.63,20.97l-9.28-9.601l-3.41,2.931l2.99,5.3l-9.56-9.53l-13.39-0.38l-13.13,7.391
		h-8.09l-4.05-1.36l1.15-1.43l-2.12-1.4l-2.59,2.53l-2.15-2.061l1.67-2.1l-3.56-1.63l0,0l-5.13-8.36l7.97-10.82l-0.38-3.42
		l-1.52-2.279l-17.85,0.189l-8.35-4.939l-3.99-17.09l-5.51-9.3l3.23-6.46l0,0l0.57-3.41l2.3,1.78l0,0l5.13,2.93l2.44-16.13
		l9.04-12.46l7.82-4.89l0.73-10.51l5.13-6.11l-0.49-3.18l-8.55-2.44l-14.17-12.95l-0.98-4.15l11-17.35l12.22-9.77l8.17-20.84l0,0
		l-1.57-2.62l0,0l-3.42-10.02l0.49-12.22l-4.4-9.77l0,0l-3.66-6.6l0,0l13.44-6.11l8.8-16.61l0,0l3.18-10.51l0,0l6.84-5.62l6.35,0.73
		l11.24,11.48l8.8-1.71l0,0l5-0.12l0,0l6.63-1.66l0,0l-7.04,9.29l-26.84,9.1l-3,4.51l1.69,5.82l4.65-3.03l2.76-5.88l13.61-0.28
		l15.89-7.71l16.4-25.38L430.84,77.29z M477.52,91.76H464.66l-8.33-4.04l9.73-10.55l12.449,8.08L477.52,91.76z M454.77,85.74
		l-1.569,1.81l-6.761-1.24L431.61,73.7l1.069-3.38l8.33-5.44l4.86-0.25l6.92,3.63l8.899,6.51L454.77,85.74z"/>
	<path id="SG-02" fill="#1E3250" stroke="#1E3250" stroke-width="0.5" d="M532.68,110.05l2.971,5.42l-8.2-5.22l-3.22,1.37
		l0.619-4.07L509.7,91.24l11.28,6.9L532.68,110.05z M505.91,92.39l0.34,8.23l21.14,16.76l-6.449,5.89l1.699,3.88l13.681-6.35
		l5.13,4.37l6.46,11.58l12.92,8.89l13.26,4.87l1.42,3.271l0.84-2.35l9.391,1l6.89-2.26l5.65,2.19l4.069-6.93l0,0l1.41,5.85
		l8.73,10.06l-0.76,3.61l-19.94,18.61l3.42,8.73v8.54l-11.77,3.8l-17.471,12.15l-8.159-3.99l-15.381,1.33l-11.01-2.09l-1.04,2.97
		l5.681,3.2l0,0l2.819,2.91l0,0l2.19,3.58l-1.48,3.09l-7.41,0.76l-12.529,7.79l1.33,2.85l-3.99,4.56l3.609,3.229l-1.899,6.271
		l-24.68,1.52l-2.851-5.89l2.09-6.08l-27.72-26.96l-0.38-7.41l-18.23-5.51l-2.47-3.23l-1.33-6.08l-7.59-8.92l4.05-15.46l0,0
		l6.78-20.43l6.67-10.65l0.09-6.18l7.4-6.09l0,0l0.56-2.62l0,0l1.68-7.58l10.021-7.12l0,0l5.15-7.86l0,0l0.3-0.29l0,0l1.51-2.78
		l10.4-3.9l5.79-9.15l5.37-1.76l3.189,1.01l-1.26,3.95L505.91,92.39z"/>
	<path id="SG-03" fill="#1E3250" stroke="#1E3250" stroke-width="0.5" d="M411.58,35.23l11.68,14.27l0.66,5.35l-7.32-8.07
		L411.58,35.23z M345.83,5.52l-2.63,4.41l1.22,1.41l6.38-4.51l1.78,4.79l-2.44,3.19l2.35,0.66l9.49-11.7l8.49,5.28l-2.63,7.98
		l8.26-6.2l24.54,17.62L418.66,61.7l-11.08,14.64l-0.561,5.54l-6.489,11.59l0,0l-6.63,1.66l0,0l-5,0.12l0,0l-8.8,1.71l-11.24-11.48
		l-6.35-0.73l-6.84,5.62l0,0l-3.18,10.51l0,0l-8.8,16.61l-13.44,6.11l0,0l3.66,6.6l0,0l4.4,9.77l-0.49,12.22l3.42,10.02l0,0
		l1.57,2.62l0,0l-8.17,20.84l-12.22,9.77l-11,17.35l0.98,4.15l14.17,12.95l8.55,2.44l0.49,3.18l-5.13,6.11l-0.73,10.51l-7.82,4.89
		l-9.04,12.46l-2.44,16.13l-5.13-2.93l0,0l-2.3-1.78l0,0l-0.95-3.42l-9.87-3.79l-10.63-7.97l-10.07-2.47l-20.69-16.9l-4.56-7.21
		v-6.08l11.2-0.2l8.92-4.94l0.57-4.36l8.35-0.57l2.1-2.28l-0.57-4.36l-7.79-5.13l-13.67-16.7l-1.9-20.13l-12.53-30.76L230.1,127.3
		l-2.28-14.05l4.94-8.74l0.19-21.46L245.11,69l-2.3-13.75l0,0l5.38-2.15l3.85-7.42l4.22-0.66l0.28-4.13l4.22-3.75l16.61-7.42
		l37.57-26.17l22.57-3.44l12.59,2.27L345.83,5.52z"/>
	<path id="SG-04" fill="#1E3250" stroke="#1E3250" stroke-width="0.5" d="M633.27,131.52l17.341,4.94l10.939,8l6.47,13.49
		l-0.18,23.8l7.93,2.92l-26.609,64.37l5.74,2.83l15.59-3.28l5.649,1.46l13.221,6.47l-2.061,7.73l-30,8.58l-17.28-6.19l-10.13,2.74
		l-2.05-7.71l-0.88,0.03l-37.83,4.84l-33.84,12.8l-24.92,3.53L508.45,289l-5,3.59l-12.07,1.65l-28.8,13.08L450,317.29l-4.15,0.43
		l-5.02,5.67l-11.01-12.92l-3.94-8.88l0.24-6.05l17.17-0.61l-7.12-6.2l-0.21-4.11l-3.76-1.29l0,0l1.76-7.47l-2.86-7.44l1-3.43l0,0
		l3.721-3l0,0l5.149-4.15l0,0l-1.43-10.44l-6.87-6.87l-9.58-3.72l-5.01-15.73l-13.02-1.86v-3.72l10.3-3.58l-5.29-13.45l0.14-5.86
		l11.16-23.74l6.87-1.29l0,0l11.34,1.64l0,0l-4.05,15.46l7.59,8.92l1.33,6.08l2.47,3.23l18.23,5.51l0.38,7.41l27.72,26.96
		l-2.09,6.08l2.85,5.89l24.681-1.52l1.899-6.27l-3.609-3.23l3.989-4.56l-1.33-2.85l12.53-7.79l7.41-0.76l1.48-3.09l-2.19-3.58l0,0
		l-2.82-2.91l0,0l-5.68-3.2l1.04-2.97l11.01,2.09l15.38-1.33l8.16,3.99l17.47-12.15l11.771-3.8v-8.54l-3.42-8.73l19.939-18.61
		l0.761-3.61l-8.73-10.06l-1.41-5.85l0,0l10.78-11.89L633.27,131.52z M574.63,119.63l-6.92-6.55l5.64,2.03L574.63,119.63z
		 M693.46,97.65l-6.71-3.1l-2.65-5.59l4.57-9.37l11.79,12.08l-1.47,4.74L693.46,97.65z M578.31,88.95l28.69-1.5l13.24,2.61
		l10.33-1.4l0.699,2.11l5.12-1.81l2.61,6.32l-0.6,7.32l2.31,1.81l-24.68,1.6l-10.53,8.43l-23.07,4.92l-6.12-9.63l-5.72-1.1
		l-5.02-8.02l-16.051-7.42l-5.72-0.1l-4.01-4.11l-3.11,1l-5.22-4.51l-1.3-6.12l12.64-7.02l18.96,6.82l7.42,6.72L578.31,88.95z
		 M771.21,72.11l21.97,14.55l6.12,10.36l0.7,5.72l-8.13,26.979l-8.33,4.71l-6.92-3.31l-5.92,2.11l-18.46,8.83l-10.53,8.53
		l-21.97-25.48l-2.91-8.48l-13.24-10.83l5.82-11.84L704.3,76.5l16.15,0.5l9.88-10.91l3.66,3.41l11.54,3.11l6.92-7.02L771.21,72.11z"
		/>
	<path id="SG-05" fill="#1E3250" stroke="#1E3250" stroke-width="0.5" d="M185.99,484.54l-2.31,1.47l3.5,2.82l-1.13,1.81l-8.58,1.75
		l-5.36,3.841l-1.02-8.131l6.83-1.75l2.03-6.319l3.72,0.62L185.99,484.54z M313.25,460.57l-11.94-5.42l-3.31-6.32l0.9-4.41
		L313.25,460.57z M243.6,447.43l2.96,0.891l2.54,5.67l-3.43,4.95l-3.89,1.229l-2.67-8.84l3.39-7.19L243.6,447.43z M181.9,447.02
		l6.04-2.479l1.41,1.47l-3.44,4.01l6.49,4.181l-3.39,4.18L171.12,459l-18.68-3.5l1.41-3.27l13.54-9.08l11.12-1.971L181.9,447.02z
		 M393.23,423.71l5.43,3.01l0.06,9.561l-11.5-13.16l2.36-1.71L393.23,423.71z M409.87,427.38l-6.73-5.37l-0.71-4.84l8.261,5.9
		L409.87,427.38z M230.19,421.81l-7.82-0.1l-1.3-7.32l9.73,4.11l1.6,2.11L230.19,421.81z M401.9,410.27l-4.25,0.591l4.369-3.011
		L401.9,410.27z M238.92,412.28l-5.82-6.521l4.51-6.02l3.41,6.72L238.92,412.28z M216.25,407.47l-5.32-0.2l-2.11-3.409l10.03-5.721
		l5.52,1.301l0.5,4.31L216.25,407.47z M260.48,403.16l9.93,7.72l4.21,8.23h-8.13l-2.61-5.82l-6.92-3.81l-1.5,1.71l4.92,3.01
		l-4.21,3.91l-14.44-2.511l2.81-5.92l5.72,1.5l2.01-2.01l-6.82-2.91l-2.51-7.72l1.3-4.51l7.82,1.2L260.48,403.16z M333.09,361.34
		l7,1.18l3.85-2.52l14.79,8.97l8.57-0.08l7.24,2.99l8.81-1.26l1.42,4.09l8.18-3.38l2.36,2.28l-9.56,14l-4.72-5.19l0.63,9.44
		L367.38,398l-14.71-16.52L341.74,377l-16.52-15.97L333.09,361.34z M382.56,363.23l-9.28,5.35l-19.04-7.79l7.94-5.11l10.23-1.26
		L382.56,363.23z M184.53,311.65l0.9,7.92l6.02,6.72l14.95,3.61l3.91,4.31l-0.3,3.91l-11.94,7.12l-16.05-5.42l-6.52,5.12l1.1,3.21
		l6.42-0.101l0.3,3.71l-5.22,5.92l-18.66-9.13l-0.9-4.81l-2.71,2.35l-3.81-0.7l-2.81,4.71l16.85,9.83l-0.4,1.71l-9.03,3.21
		l-20.06,12.84l-9.53-19.96l-6.82,4.511l6.62,19.76l-1,2.61l-5.92,3.51l-8.53-20.86l-7.02,5.72l6.02,21.37l-15.95,5.221l-8.93-5.92
		l-12.14-19.36l-8.33-24l19.56-19.36l28.84-20.46l11.99-1.02l2.81-3.51l4.31-0.3l0.6,2.709l-8.13,6.42l-11.94,15.551l5.92,6.72
		l6.82-5.72l2.41,1.6l4.11-1.6l0.4-7.46l6.02-6.021l5.22-0.6v-4.62l3.31,1.609l1.91-2.609l-2.71-3.61l5.92-3.81l14.65-3.01l5.82,1
		L184.53,311.65z M136.61,291.37l-3.4-0.74l-1.77-10.2l5.91,4.95L136.61,291.37z M177.87,38.94l13.14-2.4l4.72,7.59l6.83,3.88
		l-0.32,5.98l14.01-1.62l9.4,5.15l17.19-2.3l0,0l2.3,13.75l-12.16,14.05l-0.19,21.46l-4.94,8.74l2.28,14.05l10.83,16.33l12.53,30.76
		l1.9,20.13l13.67,16.7l7.79,5.13l0.57,4.36l-2.1,2.28l-8.35,0.57l-0.57,4.36l-8.92,4.94l-11.2,0.2v6.08l4.56,7.21l20.69,16.9
		l10.07,2.47l10.63,7.97l9.87,3.79l0.95,3.42l0,0l-0.57,3.41l0,0l-3.23,6.46l5.51,9.3l3.99,17.09l8.35,4.94l17.85-0.19l1.52,2.28
		l0.38,3.42l-7.97,10.82l5.13,8.359l0,0l-0.19,2.71l-6.79,2.08L317,344.49l4.74,6.109l-2.8,2.801l-11.72-12.48l-5.5-1.78l-2.34,1.78
		l-24.12-13.84l-15.13,24.04l-40.49-25.98l6.37-12.659l3.06-1.431l11.1,6.32l-0.36,2.6l3.57,2.19l6.62-2.04v3.41l2.98,2.01
		l7.05,0.229l3.05-7.039l-17.97-11.551l2.55-7.92l-9.07-8.72l-4.36-11.7l-5.42-4.48l-13.16-0.34l14.59,6.05l5.29,14.75l-12.16,0.61
		l-30.89-8.41l-5.96,1.91l2.37-21.1l6.73-8.62l-1.68-2.45l-3.13,0.92l-6.27,8.79l-3.44,20.41l-14.53-10.93l-8.56-0.61l-4.36,2.22
		l-2.68,9.46h-6.5l-1.22-4.05l-10.93-6.27l-4.89,6.19l1.05,6.94l-15.65,1.93l-2.06-15.29l-2.45-2.68l-2.52,2.83l1.3,17.81
		l-3.52,1.68l-9.25-8.79l-1.39-7.81l-6.66,0.72l0.25,10.99l7.03,8.79l-11.7,10.221l-4.74-4.59l-5.35,4.43l-9.61-11.59l1.85-4.3
		l-3.37-4.81l-4.55,1.52l-2.41-2.33l13.54-16.05l-4.81-0.67l-10.12,9.53l-3.88-4.89l8.26-9.9l-2.38-3.88l-3.52,0.67l-8.78,8.69
		l-8.81-7.22l-7.38,6.5l6.48,5.64l22.44,43.15l-0.59,3.96l-39.04,0.76l-12.73-7.59l-1.94-17.79l30.18-84.18l-1.01-7.84l5.9-3.96
		l17.52-33.3l6.76-3.42l7.13-18.27l7.58-7.7l1.95-27.8l4.01-2.93l-0.05-4.71l3.37-0.51l-0.51,4.64l7.49-4.17l-2.05-4.68l4.64-1.43
		l-1.6-6.41l2.56-1.66l-0.96-1.89l3.04,0.34l-0.25-9.78l13.37-9.73l6.61,0.54V68.1l4.3,0.51l1.11-2.75l10.01-2.76l29.79-25.39
		l15.45-3.36L177.87,38.94z"/>
</g>
</svg>
