<?xml version="1.0" encoding="utf-8"?>
<!-- Generator: Adobe Illustrator 15.0.0, SVG Export Plug-In . SVG Version: 6.00 Build 0)  -->
<!DOCTYPE svg PUBLIC "-//W3C//DTD SVG 1.1//EN" "http://www.w3.org/Graphics/SVG/1.1/DTD/svg11.dtd">
<svg version="1.1" id="Layer_1" xmlns:amcharts="http://amcharts.com/ammap"
	 xmlns="http://www.w3.org/2000/svg" xmlns:xlink="http://www.w3.org/1999/xlink" x="0px" y="0px" width="574.5px" height="670px"
	 viewBox="0 62.5 574.5 670" enable-background="new 0 62.5 574.5 670" xml:space="preserve">
<defs>
	
	
		<amcharts:ammap  projection="mercator" bottomLatitude="33.194315" leftLongitude="125.384480" topLatitude="38.612409" rightLongitude="130.921802">
		</amcharts:ammap>
</defs>
<g>
	<path id="KR-11" fill="#1E3250" stroke="#1E3250" stroke-width="0.5" d="M133.45,208.68L133.45,208.68l3.8,3.83l0.77,5.4l1.13,0.43
		l2.41-1.25l3.1,5.83l1.81-0.73l3.6,0.4l4.17-2.31l3.08-0.29l0.68,2.93l3.65-2.08l2.99-0.26l1.68-1.58l-0.02-1.15l1.26-0.3
		l1.28-1.72l-1.18-1.08l0.4-2.51l3.2-2.14l-1.45-3.56l-4.8,2.18l-1.55-0.43l1.42-5.35l-2.08-4.72l-0.1-4.52l-2.1-1.29l-4.96-0.2
		l-2.18,1.52l-1.63,2.78l-0.08,3l-1.1,0.79l-5.15,0.4l-1.63,4.52l-3.62,1.61l-5.07-3.19L133,207.1l0,0L133.45,208.68z"/>
	<path id="KR-26" fill="#1E3250" stroke="#1E3250" stroke-width="0.5" d="M361.82,463.22l0.04,0.761h3.97l1.34,1.34l0,0l1,1.68
		l-0.17,1.51l-1.5,1.09l-0.84,5.03l-1.86,0.99l1.6,0.189l0.31,1.631l-1.42,3.04l-0.97-0.511l-0.6,1.41l0.79,1.38l-0.55,1.73
		l-2.34,0.67l-0.58,2.21l-1.13,0.7l-1.65-0.61l-1.29,0.93l-1.65-1.09l0.11,0.8l-1.63,0.221l-0.6,2.08l1.02,0.159l0.52,1.5
		l-0.13,2.62l-1.18-0.64l-1.92,0.32l-0.32-0.38l-1.94-0.261l0.21-1.979l-0.71-0.45l-1.79,1.31l-1.71,2.681l-0.21,1.79l-0.81,0.1
		l0.68,1.44l-0.71,1.149l-1.1-3.58l-1.08,0.19l0.92,3.86l-0.94,0.42l-0.16-1.471l-0.97-0.35l0.21,1.66l-1.16-0.13l0.69,0.93
		l-1.18,0.83l0.1-1.76l-0.73-0.381l-0.81-3.319l0.55-3.03l-2.08,2.43l-0.08-2.87l-1.97,3.61h-1.65l1.02-4.54l-1.05-0.38l-0.97,4.92
		l-4.44-0.51l-1.5-1.63l-2.94,2.17l-0.76-0.891l1.84-1.529l-1.26,0.189l0.32-2.319l0,0l6.93-2.61l0.43-5.01l2.29-0.29l3.87-2.431
		l4.15-0.14l4.06-4.939l3.95-2.48l1.84,0.32l3.61-6.641l4.87-0.569l0.57-1.86l2.95-2.71l0,0L361.82,463.22z M347.32,494.1
		l1.86,1.601l-0.29,1.63l1.94,1.63l-0.5,1.09h-0.89l-0.47-1.18l-0.63,0.26l-0.58-1.28l-3.12-2.3L347.32,494.1z"/>
	<path id="KR-27" fill="#1E3250" stroke="#1E3250" stroke-width="0.5" d="M297.68,431.85l-1.32,4.271l-1.34,0.92l0,0l-2.42-0.89
		l-1.53,0.369l0,0l-3.49,2.5l-2.41,0.061l0,0l-0.73-3.43l-4.06-4.99l0.31-2.811l3.43,1.87h2.19l0.62-2.489l-3.12-3.44l1.25-3.12
		l1.25-2.81l5.3-0.931l-0.31-1.87l-2.81-2.189l-4.68-0.311l1.56-5.93l2.19-3.12l4.05-1.87l0.63,5.61h2.49l3.44-8.11l5.92-1.25
		l2.81-3.12l3.43-0.93l3.12,0.311l3.75,3.119l0.62,7.49l1.88,4.05l-0.94,2.19l-3.43,1.25l-1.56,3.43v3.12l-2.5,0.311v1.87l1.25,1.56
		v4.06l-3.43,1.25l-1.57,1.87l-2.8-0.31l-0.63-2.811h-3.12l-2.18,1.25l-1.56,2.5L297.68,431.85z"/>
	<path id="KR-28" fill="#1E3250" stroke="#1E3250" stroke-width="0.5" d="M113.39,205.14l4.15-2.72l2.11-2.84l2.08,0.19l7.46,6.03
		l0,0l3.83,1.29l0.45,1.58l0,0l0,0l0,0l-3.54,4.55l0,0l0.13,4.02l3.31,2.9l0,0l-0.45,3.79l-1.79,2.33l0,0l-2-0.59l0.47-1.81
		l-0.68-0.53l-0.39,1.68l-0.6-2.34l0.45,3l-1.97,2.27l-3.57-0.49l-3.68,4.64l-4.59,0.13l-0.34,1.09l-1-0.03l0.84-0.26l0.53-1.84
		l4.57,0.82l3.6-4.51l-4.04-3.16l-0.94-4.28l-0.5,2.31l-1.47-0.1l0.18-2.6l-0.81,1.29l-1.21-0.49l1.21-4.64l2.99-1.19l1.23,0.4
		l-0.92-1.68l-2.42,1.12l0.05-1.32l-1.02-1.09l0.97,0.1l-0.16-1.25l-1.23-1.25l0.68-0.3l0.05-1.42l-2.78,1.65l-1-0.16l-0.1-0.07
		l3.91-1.62L113.39,205.14z M87.39,206.76l1.84,1.25l0.87-0.26l1.42,2.01l2.97-0.43l-0.26,1.45l-2.05-0.43l-1.86,0.63l-0.39-0.56
		l-1.02,0.96l0.37-2.11L87.39,206.76z M107.03,209.92l0.74,1.19l3.57,0.99l1.39,1.32l0.42,1.85l-2.26,1.42l-2-0.66l-8.88,7.38
		l-2.86,0.56l0.34-1.97l-0.94-0.66l-1.23,0.82l0.89-0.92l-0.47-0.72l-1.6,1.25l-1.63-0.82l0.87-0.62l-1.55-1.78l0.24-1.38l1.65-0.03
		l3.94-2.8l5.57-0.26l1.34-0.96l0.68-2.7L107.03,209.92z M97.18,224.58l2.78,2.9l-0.84,2.14l-1.57,0.43l-0.95-0.92l0.11-1.94
		l-1.18-0.3l0.89-2.44L97.18,224.58z"/>
	<path id="KR-29" fill="#1E3250" stroke="#1E3250" stroke-width="0.5" d="M149.04,478.34l-1.82-0.87l-2.44-0.09l-4.44,2l-2.01,2.09
		l-1.48,0.09l-3.57-2.09l-0.61-2.18l-2.18-0.08l-2.09,5.31l-2.35-0.09l-1.74,2.09l-1.13,4.79l0.43,4.091l7.23,1.05l3.75,6.1h3.74
		l3.4-2.01h3.83l1.48-1.04l3.14,0.61l3.39-2.351l1.4-1.83l1.74-6.1v-1.39l-2.09-0.96l-2.61-0.261l-1.02-4.54L149.04,478.34z"/>
	<path id="KR-30" fill="#1E3250" stroke="#1E3250" stroke-width="0.5" d="M191.13,336.42l1.25,5.3l0.31,0.17l0,0l1.46-2.37l0,0
		l0.61-0.64l0,0l1.39,0.18l-0.32,1.301l0,0l-0.07,0.64l0,0l2.86-2.4l0,0l2.5,2.5l0,0l0.24,2.62l2.43,1.16l-0.32,1.63l2.02,2.391
		l-2.81,1.869l0,0l-0.94,5.62l0,0l-1.25,6.24l1.17,3.75l0,0l-3.35,2.18l-2.18,2.811l-3.75-2.19l-2.18-3.739l-0.63-3.431h-1.56
		l-0.31,8.11l-0.93,2.189h-1.25l-0.94-3.13l-2.5-0.93l-1.56-2.19l-0.31-3.43l-2.18-1.87l-0.31-4.06l2.18-2.49l-0.31-8.74l6.86-2.18
		l0.96-6.14l0,0L191.13,336.42z"/>
	<path id="KR-31" fill="#1E3250" stroke="#1E3250" stroke-width="0.5" d="M361.02,427.42l1.8,1.47l2.99,0.9l0.23,0.82l0,0
		l-0.42,2.85l0,0l1.02,1.1l0,0l1.97,0.66l0,0l5.37-2.399l0,0l8.13,2.149l0,0l2.9,0.41l0.7,1.45l-0.03,1.38l-1.13,0.78l0.53,3.14
		l-0.66,2.41l-1.13,0.52l0.76,0.091l-0.18,1.58l-1.21,0.51l1,0.74l-1.26,0.609l1.49,0.71l-1.02,1.181l-1-0.41l-1.81,1.279l0.16-2.47
		l-1.16-0.899l-0.63-2.95l-1.94-2.13l-1.5-0.48l2.31,2.35l-0.08,1.12l0.97,0.261l0.35,1.449l-2.37,0.12l0.53,0.71l0.97-0.26
		l0.89,1.58l-2.6,3.24l-2.23-1.7l0.76,3.01l1.16-0.06l-0.5,0.99l1.36-0.73v1.6l-1.57,1.221l1.13,1.729l-1.81,2.92l1.78,2.5
		l-1.49,0.87l-1.19-0.49l-2.02,3.08l-1.07,0.07l-0.27,1.18l-1.99-0.67l0.17-1.51l-1-1.68l0,0l-1.34-1.34h-3.98l-0.04-0.761l0,0
		l-1.54-1.88l0,0l-3.09-0.21l0,0l-5.66-5.87l0,0l-3.26-3.359l-2.4-0.2l0,0h-2.75l-2.23-1.05l-0.34-4.83l2.23-1.891l0,0l1.2-1.05
		v-1.46l-1.47-2.43l0,0l3.92-3.09l0,0l0,0l0,0l1.66-0.17l0,0l0,0l0,0l1.33-0.74l-1.35-2.48l0.37-1.56l7.27-3.59L361.02,427.42z"/>
	<path id="KR-41" fill="#1E3250" stroke="#1E3250" stroke-width="0.5" d="M79.19,183.7l-1.81-2.08l1.52-1.65l0.21-2.28l1.58-1.49
		h2.65l3.05,1.75l2.39-0.66l1.08,1.19l-1.71,2.78l-1.97,1.19l-2.62-0.33l-2.23,0.6l-1.05,1.42L79.19,183.7z M88.88,242.67
		l-3.44-1.77l-1.08,1.25l3.99,2.1l2.07-0.52l0.74-1.22l-1.37-0.53L88.88,242.67z M82.21,195.73l-3.12-0.1l3.73,3.86l0.34-0.56
		l-1.13-0.82L82.21,195.73z M70.32,243.33l-0.92,0.63l-0.76-2.86l-1.1-0.16l-1.52,6.01l1.26-0.2l0.18-0.79l0.39,1.28l1.16-0.36
		l-0.16,1.45l3.39-0.52l1.6-1.87l-3.28-2.04L70.32,243.33z M75.07,193.06l-1.05-0.36l-1.24,0.89l1.18,0.73l1.16-0.5l0.87,1.49
		l1.86,0.33l0.29-1.45l-1.44-2.52L75.07,193.06z M154.22,126.06l-4.9,5.81h-2.81l-4.68-1.87l-2.5,1.56l-5.62,4.68l-3.43,4.99
		l1.87,0.94l1.87,3.75l6.31,0.29l3.37,1.9l0.62,3.12l-1.25,0.94l-0.31,1.87l-4.99-0.62l-0.31,3.75l-1.56,0.94l0.31,2.5l1.87,0.94
		l-0.31,6.55l-2.18,1.25l-3.12-3.74l1.25-4.37l-1.96-2.47l-2.4,0.07l-0.32,2.71l-1.87,1.87l-3.47-3.34l-0.74,0.11l0.9,4.9
		l-0.49,1.87l4.74,1.77l3.43,4.99l-6.55,1.87h-2.83l-0.96,4.55l-3,0.18l-3.07,2.46l-3.56-0.53l-2.02-1.61l-0.6,1.17l-1.76,0.79
		l1.1,1.75l-0.87,4.23l1.08,1.79l-0.5,3.11l1.16,0.53l-0.76,1.72l2.65,6.34l2.37,3.1l0,0l4.15-2.72l2.11-2.84l2.08,0.19l7.46,6.03
		l0,0l3.82,1.29l0,0l2.18-3.46l5.07,3.2l3.63-1.61l1.63-4.52l5.15-0.4l1.1-0.79l0.08-3l1.63-2.77l2.18-1.52l4.96,0.2l2.1,1.29
		l0.11,4.53l2.07,4.72l-1.42,5.35l1.55,0.43l4.81-2.18l1.44,3.56l-3.2,2.14l-0.39,2.5l1.18,1.09l-1.29,1.71l-1.26,0.3l0.03,1.15
		l-1.68,1.58l-2.99,0.26l-3.65,2.08l-0.68-2.93l-3.07,0.3l-4.18,2.31l-3.6-0.39l-1.81,0.72l-3.1-5.83l-2.41,1.25l-1.13-0.43
		l-0.76-5.4l-3.81-3.82l0,0l-3.54,4.55l0,0l0.13,4.02l3.31,2.9l0,0l-0.45,3.79l-1.79,2.33l0,0l1.23,0.59l-3.96-0.76l-0.89,1.05
		l0.81,0.63l-0.39,1.51l-4.7,2.63l0.29,1.51l-7.55,2.51l-2.94,2.24l-0.92-0.26l0.47,0.99l-1.29,1.38l-2.89-1.38l2.89,4.04
		l-0.34,2.07l-1.81,1.12l1.45,1.48h-1.21l0.29,0.85l-1.08,1.08l1.65-0.69l1.02,1.58l1.84-3.38l3.02,1.54l0.79-3.32l0.26,1.64l2,1.25
		l-0.52,1.71l0.58,0.62l0.79-2.33l-0.34-1.64l-2.63-1.35l-0.63-2.69l-2.21-0.39l-2.13-2l1.02-1.81l3.2-2.23l6.49-2.24l9.38,4.54
		l3.1-0.39l2.76,3.29l1.26-0.43l-1,1.77l-1.58-2l-1.92-0.49l0.16-0.92l-0.89,0.33l-0.34,0.79l0.95,1.28l-1.92-0.1l0.74,1.74
		l-0.92,0.85l0.66,0.2l-2.23,3.35l-1.31-0.89l0.58-0.69l-0.6-3.02l-2.65,0.85l-0.34-1.08l-3.57-0.75l-0.73,1.84l-1.71,0.36
		l0.39,1.74l0.92,0.59l-0.94,1.74l0.97,1.54l-1.42,0.03l-1.16,1.48l1.18,2.59l-1.08,0.95l1.5-0.62l2.44,0.49l-2.23,2.13l1.29,0.82
		l-0.18,1.77l0.84,0.79l0.4-1.61l3.36-1.9l2.07-3.41l2.55,0.23l1.39-2.13l0.95,2.4l-2.15,1.31l4.67,0.07l-2.08,0.59l0.92,1.02
		l-0.81-0.36l-1.36,1.31l-1.05-0.72l-2.02,1.94l0.05,7.08l-1.57,2.75l0.37,0.79l4.31,0.33l0.29,2.1l-1.34,0.43l0.05,0.82l3.91,0.82
		l1.63,4.16l1.92,0.79l0.45,1.87l1.94-0.33l1.42,0.92l0.87,4.56l0,0l3.46-2.08l7.55,1.76l4.94-1.77l3.01-2.07l2.58-0.08l2.99,1.43
		l3.29,3.38l5.1,0.7l0,0l2.77-0.23l0,0l3.78-1.7l0,0l1.71-1.24l2.21,0.14l1.8-1.75l0.17-2.11l0,0l-0.3-1.08l5.09-3.01l0,0l0.8-2.63
		l2.34-2.57l0.8,1.19l1.48-0.02l-0.27,2.07l1.6-3.22l4.3,0.78l4.06-3.74l2.5-0.31l0.63-7.8h1.56l1.56,1.87h1.87l2.66-6.65l2.65-0.58
		l0,0l0.62-7.44l-0.62-3.43l1.56-1.25l-0.31-7.49l3.43-8.11l0.31-4.06l-1.95-0.71l-0.79-2.38l3.14-4.03l2.06-0.7l0.79-2.18
		l-1.65-2.9l-8.97-1.37l-4.31-3.69l-2.69-0.32l-4.11-2.48l-3.64,1.4l-2.64-2.84l1.75-3.51l0.31-4.39l-3.59,0.9l0.12-2.02l2.7-3.08
		l-1.32-3.5l0.83-1.96l-0.85-2.95l0.59-1.52l2.26-0.75l1.8-2.06l3.31-1.07l1-3.97l-0.82-4.03l-1.44-1.59l-4.2-1.42l-0.08-2.7
		l-0.88-0.6l-3.22,0.34l-3.09-1.53l-1.56-3.02l-0.4-7.52l-1.42-1.97l-1.96,1.05l-2.09-1.55l-1.49,0.2l-4.11,1.93l-4.47-3.58
		l0.48-5.32l1.09-0.92l-1.97-0.88l-3.66,3.74l-2.44,0.16l-1.64-0.83l-0.39-3.19l-0.99,0.31l-0.18-1.08l0.63-1.87l-1.56-1.25
		l-0.94-5.3h-4.68v-1.87l1.25-0.94l-4.74-4.42l0,0l-1.33,0.58L154.22,126.06z M92.9,190.84l-2.49-0.36l-2.1-1.65l-0.03-2.31
		l1.02-2.08l-0.92-0.56l-3.23,1.32l-0.08,3.41l-1.52,0.56l4.6,3.17l1.02,1.45l-0.26,2.08l1.08,1.06l3.57-2.74l0.39-2.05L92.9,190.84
		z M108.47,194.51l-1.47-1.35l0.79-3.17l-1.16-1.72l1.24-3.74l-1.37-1.69l-0.34-2.28l-4.52-2.94l-2.15-2.78l-3.94,0.73l-0.84,2.02
		l-3.49,1.89l0.53,10.09l2.99,0.79l1.97,4.59l-0.87,2.38l-3.18,0.59l1.16,2.08l-0.58,0.79l3.28,1.95l5.36,0.36l0.03-1.02l0.89,0.43
		l0.58-0.92l3.15,0.92l0.81-1.65l1.37-0.4l-1.18-4.72L108.47,194.51z M102.93,238.99l-1.94,0.43l-0.18,1.28l-1.55-0.13l-0.71,1.51
		l0.81,1.97l-0.34,1.87l1.89-0.03l0.05,0.92l0.63-0.06l1.34-1.12l-0.26-0.85l1.52-0.1l-1.15-1.31l1.26-0.03l-0.21-0.76l1,0.72
		l0.68-1.97l-1.31-1.71L102.93,238.99z"/>
	<path id="KR-42" fill="#1E3250" stroke="#1E3250" stroke-width="0.5" d="M281.2,81.07l1.42,2.81l2.15,2.75l0.58-0.17l0.78,1.74
		l-0.55,1.27l1.76,2.34l-0.58,1.3l1.16,1.01l-0.16,1.46l3.7,4.88l-1.13,0.5l-0.05,1.71l5.52,7.6l-0.63,0.44l0.26,1.66l1.6,2.24
		l-0.03,1.46l2.32,2l0.83,5.63l4,5.2l-0.82,1.13l2.03,2.729l-0.92,0.99l0.92,4.06l5.59,6.58l0.71,3.03l4.04,4.31l1.1,0.1l-0.5,1.89
		l3.76,6.17l1.68,1.2l-0.08,1.06l4.1,3.74l-0.08,2.49l4.38,5.03l0.24,1.46l16.96,18.49l-1.2,4.65l2.38,3.24l4.5,3.69l0.36,1.82
		l-0.94,1.94l1.94,5.18l5.17,5.3l1.11,5.04l4.83,3.75l1.7,6.88l1.84,1.61l1.03-0.1l0.47,2.53l1.65,0.07l0.82,1.08l-0.27,1.81
		l2.81,3.42l-1.47,1.11l0.71,1.78l-0.84,2.39l0.55,2.59l2.74,3.94l-0.32,1.18l0.81,0.84l0,0l-4.27,0.71l0,0L371.5,262l-2.5,0.93
		l-2.81,2.5l0,0l-1.56,2.18v1.25l0,0l1.56,2.81l-6.54,0.16l0,0l-2.65-2.27l-2.95-1.03l-2.62-0.4l-2.54,2.52l-7.43-2.62l-3.35,0.72
		l-0.68-1.33l-1.72-0.68l0,0l-2.91,4.31l0,0l-0.93,1.24h-4.06l-6.24-4.36l-2.02,0.18l-0.54,4.72l-1.12,1.12l-3.06-1.38l-1.92,0.26
		l-4.26-2.34l0,0l-2.37-2.14l-3.49,0.21l-3.96-1.27l0,0l-3.59-2.92l-2.01-0.09l0,0l-4.23,1.01l0,0l-1.89,0.46l-0.82-1.39l0,0
		l-1.79-1.65l0.1-2.62l0,0l-0.96-0.81l-1.46,0.33l0,0l-3.28-0.14l-1.19,1.25l0,0l-1.97,0.66l0,0l-0.7,0.47l-2.31-1.77l-0.66-1.69
		l3.26-2.03l2.36-2.73l0.1-1.36l0,0l-1.55-0.53l-1.37,0.83l0,0l-1.05,0.27l0,0l-1.71-0.24l-1.48-1.73l-2.12-0.43l-1.98-1.51
		l-2.46,0.59l-1.79,2.44l-3.65-0.91l-3.68,3.08l0,0l-5.07,0.86l0,0l-0.28-3.84l0,0l-1.77-3.31l-4.27-0.44l-1.5,0.94l0,0l-2.84,2.69
		l0.99,4.69l-0.42,1.8l-3.15,2.1l-2.33-1.15l-3.03,0.09l-1.45,1.88l-2.19,0.93l-4.05-3.12l-0.62-3.48l0,0l0.62-7.44l-0.63-3.43
		l1.56-1.25l-0.31-7.49l3.43-8.11l0.32-4.06l-1.96-0.71l-0.78-2.38l3.13-4.03l2.07-0.7l0.79-2.19l-1.65-2.9l-8.97-1.36l-4.31-3.7
		l-2.69-0.32l-4.11-2.48l-3.64,1.4l-2.64-2.85l1.75-3.51l0.31-4.39l-3.59,0.91l0.12-2.03l2.7-3.08l-1.32-3.5l0.82-1.96l-0.84-2.95
		l0.58-1.52l2.27-0.76l1.8-2.06l3.31-1.07l1-3.97l-0.82-4.03l-1.45-1.59l-4.2-1.42l-0.08-2.71l-0.88-0.6l-3.22,0.34l-3.1-1.53
		l-1.55-3.02l-0.41-7.51l-1.42-1.98l-1.96,1.05l-2.09-1.55l-1.49,0.19l-4.11,1.94l-4.46-3.59l0.48-5.32l1.09-0.92l-1.97-0.88
		l-3.66,3.74l-2.44,0.17l-1.64-0.84l-0.39-3.19l-1,0.31l-0.18-1.07l0.63-1.87l-1.56-1.25l-0.94-5.31h-4.68v-1.87l1.25-0.94
		l-4.74-4.41l0,0l4.04-3.26l3.37,0.39l6.69-3.06l3.41,0.52l1.61,1.19l3.19-0.11l1.14-0.95l6.01-1.12l9.23,4l8.24-4.24l2.61,1.44
		l3.78-0.41l2.67,0.67l1.95-1.311l5.79,0.29l2.54-1.4l3.67,4.6l3.92-1.11l2.12-2.24l6.29,1.84l1.78-0.43l6.45,1.44l2.96-0.46
		l2.98-2.44l3.34-0.28l6.8-5.41l1.29-2.11l5.53-4.84l2.16-4.61l0.82-4.59l-0.53-9.08L281.2,81.07z"/>
	<path id="KR-43" fill="#1E3250" stroke="#1E3250" stroke-width="0.5" d="M213.91,387.92l-2.18-6.25l-2.19-1.88l-0.31-2.8l0,0
		l1.25-2.811l-0.31-3.12l-1.87-3.119l0,0l-2.8,0.26l-3.84-1.82l-1.17-3.75l1.25-6.24l0,0l0.94-5.62l0,0l2.81-1.869l-2.02-2.391
		l0.32-1.63l-2.43-1.16l-0.24-2.62l0,0l-2.5-2.5l0,0l-2.86,2.4l0,0l0.07-0.64l0,0l0.32-1.301l-1.39-0.18l0,0l-0.61,0.64l0,0
		l-1.46,2.37l0,0l-0.31-0.17l0,0l0,0l0,0l-1.25-5.3l0,0l-3.72,0.73l-0.62-0.86l-1.11,0.19l0,0l-0.57,0.779l0,0l1.86-6.1l-1.08-1.141
		l0.92-3.279l-3.34-0.2l-0.45-1.35l0,0v-2.811l-2.81-3.43l2.19-0.63l0.31-2.811l0,0l-1.56-2.18l4.99-7.8l3.75,0.31l1.56-1.87
		l-1.25-3.75l-3.12-2.18h-2.88l0,0l-1.08-0.48l0.16-1.99l0,0l-0.59-0.49l0,0l-1.48-0.71l0,0l-0.23-2.66l-2.84-1.92l-0.91-2.42
		l2.76-0.23l0,0l3.78-1.7l0,0l1.71-1.24l2.21,0.14l1.79-1.75l0.17-2.11l0,0l-0.3-1.08l5.08-3.01l0,0l0.8-2.63l2.34-2.57l0.81,1.19
		l1.48-0.02l-0.27,2.07l1.59-3.23l4.31,0.78l4.05-3.74l2.5-0.31l0.62-7.8h1.57l1.56,1.87h1.87l2.66-6.65l2.65-0.58l0.62,3.48
		l4.05,3.12l2.19-0.93l1.44-1.88l3.04-0.09l2.33,1.15l3.15-2.1l0.42-1.8l-0.99-4.69l2.84-2.69l0,0l1.5-0.94l4.27,0.44l1.77,3.31l0,0
		l0.28,3.84l0,0l5.07-0.86l0,0l3.68-3.08l3.65,0.92l1.79-2.45l2.46-0.59l1.98,1.51l2.12,0.43l1.48,1.73l1.71,0.24l0,0l1.05-0.27l0,0
		l1.37-0.83l1.55,0.53l0,0l-0.1,1.36l-2.36,2.73l-3.26,2.03l0.66,1.69l2.31,1.77l0.7-0.47l0,0l1.97-0.66l0,0l1.19-1.25l3.28,0.14
		l0,0l1.46-0.33l0.96,0.81l0,0l-0.1,2.62l1.79,1.65l0,0l0.82,1.4l1.89-0.47l0,0l4.23-1.01l0,0l2.01,0.09l3.59,2.92l0,0l3.96,1.27
		l3.49-0.21l2.37,2.14l0,0l-2.2,2.16l-2.14-0.25l0,0l-2.28,2.62l0,0l-0.62,0.28l0,0l-3.29,3.25l-2.8,0.8l0,0l-0.79,1.25l0,0
		l-3.54,2.75l-3.16,5.66l0,0l-0.83,1.57l0,0l-0.06,1.33l1.32,0.61l0,0l0.79,2.92l-2.84,3.89l-4,0.78l0,0l-0.92,1.04l-2.44-0.06l0,0
		l-2.2,0.18l0,0l-2.49-4.92l-3.24-1.85l-1.18-1.97l0,0l-1.67,3.05l-1.13,0.34l-0.44,3.23l0,0l-0.37,0.57l-5.7-1.74l0,0l-0.42-0.63
		l0,0l-1.07-0.37l-0.61,0.62l0,0l-2.53,3.09l-1.38,0.19l0,0l-1.64-1.74l-0.51,0.3l0,0l-2.86,6.69l0,0l3.39,5.25l-4.6-0.92l0,0
		l-1.18-0.66l-1.21,0.59l-3.31-1.63l0,0l-2.88,3.73l0,0l-4.25,1.42l-1.68,2.38l0.48,2.22l-3.23,3.34l0,0l-1.76,1.551l0,0l-1.56,0.35
		l0,0l-0.99,1.91l0.72,1.1l5.37,1.13l1.22,1.221l-0.14,0.93l0,0l0.96,1.97l0,0l2.01,1.36l-0.42,1.71l0,0l-2.02,0.89l-0.81,7.63l0,0
		l0.6,2.471l-1.29,2.02l1.32,3.25l0,0l0.5,0.311l0,0l-1,2.56l-2.67,2.31l0,0l-0.07,4.28l2.16,1.78l0,0l3.41-2.561l0.47,1.45
		l2.5,1.48l0,0l1.85,1.569l0,0l1.17,0.4l0,0l1.99-0.84l0,0l2.23-0.79l2.02,0.7l0,0l0.62,1.069l0,0l0.15,3.171l0,0l1.26,1.869l0,0
		l-0.59,1.28l-3.12-1.41l-2.41,1.431l-1.18,1.739l1.17,2.96l-0.41,3.57l-1.75,1.46l-1.04,4.64l-1.84,2.601l-2.88-0.101l-1.08,1.08
		l-2.74,2.561l-2.9-2.28l0,0l-4.99,2.4l-0.36,0.91h-2.6l-0.15-0.921l-1.71-1.039l-4.1-1.421l0,0l-1.05-2.27L213.91,387.92z"/>
	<path id="KR-44" fill="#1E3250" stroke="#1E3250" stroke-width="0.5" d="M92.24,350.46l0.95,0.71l-0.79,0.1l-0.1,0.91l-1.31-0.62
		l-0.47,0.681l-0.24-1.391l1.08-0.75l0.03-1.33h0.66L92.24,350.46z M95.71,342.01h1.21l0.16,1.17l1.47,0.49l-0.58-1.36l1.29-1.01
		L99,339.16l-2.36-1.76l1-1.431l-0.87-1.43l0.16-1.82l-1.1,0.33l0.34-2.02l-2.23-1.24l0.81-0.88l-1.02-1.37l-0.1-3.25l-1.47-0.68
		l1.52-0.98l0.05-1.14l-0.97-2.61l-1.34-0.62l-3.73,3.78l1.65,3.39l-0.31,5.21l0.89,2.051l-1.08,2.89l1.37-0.39l-0.63,3.35
		l2.44,0.39l-0.55,1.891l1.73,1.529l0.97-1.1l1.92,0.03L95.71,342.01z M100.7,267.96l-0.5-2.1l-2.36-0.39l0.05,2.79L100.7,267.96z
		 M99.68,346.49l-0.63-1.141l-1.02-0.1l-0.94,0.46l0.53,1.43l-2.52-1.399l-0.71,1.62l1.86-0.16l5.28,1.75l0.16-0.94l-2.73-0.75
		L99.68,346.49z M211.73,381.67l-2.18-1.87l-0.31-2.81l1.25-2.811l-0.31-3.12l-1.87-3.119l-2.8,0.27l-3.83-1.82l-3.35,2.181
		l-2.18,2.81l-3.74-2.18l-2.18-3.74l-0.62-3.43h-1.56l-0.31,8.109l-0.94,2.19h-1.25l-0.94-3.12l-2.5-0.94l-1.56-2.18l-0.31-3.43
		l-2.18-1.87l-0.31-4.06l-1.71-2.061l-1.75-1.35l-1.21-3.101l0.14-4.04l-0.27-2.83l-1.35-3.909l-2.7-1.48l-1.89-2.56l-0.13-2.021
		l1.08-2.43v-3.101l-0.13-3.5l-0.27-3.369l0.67-2.431l-0.27-3.1l-0.54-2.021l-1.08-2.02l0.4-1.75l2.7-1.08l2.56,0.81l1.48,1.62
		l2.7,1.62l2.56,0.94l2.44-0.2l4.99-7.8l3.75,0.31l1.56-1.87l-1.25-3.74l-3.12-2.18h-2.88l-1.08-0.48l0.16-1.99l-0.59-0.49
		l-1.479-0.71l-0.23-2.66l-2.84-1.92l-0.91-2.42l-5.09-0.7l-3.29-3.38l-2.99-1.43l-2.58,0.08l-3.01,2.07l-4.94,1.77l-7.55-1.76
		l-3.46,2.08l-4.49,1.06l-3.57-0.65l-1.5-5l-1.13-0.39l-1.68-3.89l0.08-1.37l-7.51-2.03l-0.37-0.79l-6.35-0.23l-6.8-4.06l-2.2-0.36
		l-1.55-2.26l-2.02-0.72l-0.89,0.66l-0.71,1.38l0.53,0.56l-2.6,2.42l1,1.9l-1.26,0.66l-2.68-1.34l-3.96-0.39l-2.1,1.05l-0.81-0.52
		l-1.97,1.67l-0.71-0.36l0.32,1.83l3.15,0.72l0.81-0.49l0.45,1.24l1,0.16l-1.65,1.34l-0.71-1.11H90l-0.21,1.08l1.45-0.16l0.18,1.15
		l0.92,0.16l-0.18,1.34l0.95-0.92l1.18,0.26l0.87,1.83l1.68-1.34l0.92,0.43l0.03,1.5l-1.31,0.62l0.34,1.15l2.15,0.82l-3.31,0.98
		l0.16,1.54l-1.94-0.26l-1.23,0.72l0.6,2.22l-1.44,1.24l0.89,1.86l-2.07-1.83l0.42-1.7l-1.6-0.29l-1.13,2.68l0.97,0.75L89,293.85
		l0.87,1.14l-1.13-0.56l-0.87,0.88l-0.76-0.42l-0.03,1.04l-0.94-0.06l-0.39,1.11l-0.97-2.35l0.24-0.75l3.05-0.91l0.16-0.69
		l-2.1-0.46l0.08-1.18l1.65-3.66l1.76-0.95h-0.97l-0.18-1.6l-1.65-1.47v-3.24l0.95-1.31l-1,0.1l-0.81-1.05l1.02-0.26l0.18-1.57
		l-2.34,1.8l1.05,5.14l-0.84,1.31l0.37,1.08l-3.7-1.08l0.45-0.69l-1.47,0.1l-2.36,1.9l-0.92-0.78l-0.5,2.26l-1.86-0.13l1.34,1.21
		l-0.89,0.69l0.68,1.7l1-0.06l-2.08,2.74l1.42,1.57l-1.1,0.1l1.63,4.34l-1.92-3.69l-0.68,0.52l0.05-3.72l-1.02-0.06l-0.21-1.18
		l-0.47,0.75l-0.63-0.29l0.58,1.05l-0.92,0.03l1.29,1.21l-0.18,1.18l-1.31,1.01l0.74,0.65l-0.42,1.57l-1.05,0.85l-0.42-0.52
		l0.03,1.27l-1.81,0.36l1.21,2.81h0.87l-1.36,4.93l3.1-2.669l-1.15-3.69l1.55,0.85l3.55-0.26l-1.02,1.34l1.92,1.08l1.23-0.59
		l-1.26,2.35l1.05-0.65l0.89,0.65l-1.55,1.931l-3.57-1.53l-1.84,1.47l0.55,3.29l3.91,0.39l1.08-2.31l2.31-0.23l0.63-0.81l-0.31-1.83
		l2.1,0.101l1.86-1.53l0.39,0.75l-0.81,0.29l-0.08,2.22l-1.13,1.37l0.32,2.15l2.18,0.29l1.08,2.31l0.13,3.16l-1.05,0.75l-0.55,2.93
		l1.02,1.73l6.67-5.761l4.31,1.24l5.01,3.55l0.74,3.03l-0.66,1.69l2.36,2.899l1.5-1.27l4.15,2.989l-4.2-2.239l-2.02,2.12
		l-0.24,3.409l0.55,2.801l1.23,1.3l-0.26,1.2l2.63-1.33l0.32-1.4l0.79-0.06l2.52-3.28l2.44,1.01l2.23-0.779l-1,1.239l-2.7-0.45
		l-0.68,2.761l-1.5-0.101l-1.52,1.49h-1.26l-2.39,1.66l-0.92,1.92l-0.42,3.22l1.79,0.03l4.73,3.28l3.26,0.68l-2.6-0.23l-4.07,2.82
		l-1.29,0.101l4.57,6.909l-1.73,3.141l0.89,4.5l-1.5,1.62l0.18,2.229l-0.76,0.97l-2.36-0.229l-0.03,2.75l1.08,0.97l0.29-2.399
		l1.18-0.32l2.63,0.94l0.92,1.85l1.39-1.39l2.55,2.199l1.34,2.94l0.81-0.71l1.05,0.49l-0.03,0.84l1.18-0.32l-2.44,1.94l1.05-0.19
		l0.29,2.811l1.05-0.101l2.26,2.59l-0.76,0.49l0.05,2.13l0.74,0.74l1.13-0.61l4.28,1.07l1.39-2.17l0.68,0.33l1.31-0.561l1.48,1.36
		l11.55-4.99v-8.439l4.69-2.681l3.69,0.67l3.77,2.271l1.27-0.38l2.19,2.01l0.31,3.75l2.44,0.19l0.53,2.02l2.55,0.18l5.68-2.1
		l2.85,1.89l5.31-0.31l-0.62-2.5l4.37,0.31l2.42-2.02l1.13,1.63l2.97,5.1l2.22,7.141l4.92-1.561l0.7,4.99l6.55-0.31l0.94-1.87
		l0.16-2.21l1.03-0.181l1.89-1l4.1,2.45l2.81-2.81v-2.49L211.73,381.67z"/>
	<path id="KR-45" fill="#1E3250" stroke="#1E3250" stroke-width="0.5" d="M128.74,388.35l1.31-0.55l1.48,1.36l11.55-5v-8.44
		l4.69-2.68l3.69,0.67l3.76,2.271l1.27-0.381l2.19,2.011l0.31,3.739l2.44,0.2l0.53,2.021l2.55,0.18l5.68-2.1l2.85,1.89l5.3-0.31
		l-0.62-2.5l4.36,0.31l0,0l2.42-2.01l1.14,1.62l0,0l2.96,5.109l2.22,7.141l4.92-1.561l0.7,4.99l6.55-0.311l0.94-1.869l0,0l0.15-2.21
		l1.03-0.181l0,0l1.89-1l4.1,2.45l2.81-2.81v-2.48l0,0l1.1-0.63l1.05,2.27l0,0l4.1,1.421l1.71,1.039l0.15,0.921h2.6l0.36-0.91
		l4.99-2.4l0,0l2.9,2.28l2.74-2.561l0,0l4.71,8.971l-1.28,5.01l0,0l-2.33,1.52l-2.04,4.62l-3.11,1.88l-1.46,0.011l0,0l-1.83,1.149
		l-2.01-0.439l0,0l-0.65,0.47l0,0l-1.66,4.08l-4.94,4.74l-0.78,4.819l0,0l-0.16,1.92l-0.89,0.79l0,0l-5.22,14.41l0.17,2.32
		l2.77,1.37l0,0l0.42,2.91l0,0l1.27,2.27l-0.68,3.34l0.69,1.931l1.63,0.43l-0.46,4.01l0,0l-3.7,3.561l-1.15,3.149l0.55,2.87
		l-2.22,2.3l0,0l-0.23,0.21l0,0l-6.38-4.46l0,0l-4.54-2.08l0,0l-2,0.11l0,0l-1.75,0.979l-2.95,3.79l-1.75,0.471l0,0l-3.2-0.37
		l-2.38,0.7l0,0l-6.15,0.02l-1.13-0.649l0,0l-1.44-1.381l-1.93,1.12l0,0l-3.16-1.35l-1.3,0.83l0,0L170,472.6l0,0l-3.04,1.091l0,0
		l-2.09-0.54l-2.6-1.971l0,0l0.42-3.609l-1.01-2.88l0,0l-2.08-0.671l1.07-2.31l0,0l-0.46-4.42l-1.35-1.03l-2.52-0.08l-0.98,1.78l0,0
		l-1,0.65l-0.67,3.1l0,0l-1.02,0.69l-1.97-0.57l0,0l-3.56-5.66l0,0l-4.05-2.99l-3.02-0.609l-1.57,1.87l-1.08-0.221l0,0l-1.53-0.35
		l0,0l-2.27,0.979l-0.79,1.99l0,0l-0.44,3.771l0,0l-1.6,1.63l0,0l0.26,0.77l0,0l-0.62,2.971l-2.42,1.22l0,0l-3.14,0.97l-1.53,1.49
		l0,0l-2.07,0.71l-0.97-0.43l0,0l-2.1,0.119l-1.45,1.54l-4.35,0.23l0,0l-0.37-1.7h-1.72l-1.24-4.06l-1.88-2.181l-0.93-5.62
		l-1.87-1.56l0,0l-1.88-0.62l0,0l-3.83-0.5l5.12-9.83l1.36,1.29l0.24-1.569l1.79-1.16l2.2,0.93l2.23-2.09l2.55,0.32l0.24,1.26
		l1.52-3.57l0.55,0.16l-0.05-1.22l1.44-0.42l1.6,0.479l2.47,3.061l-0.31-3.28l-0.97-0.58l1.15-1.061l-1.39,0.03l-2.05-1.7
		l-0.29,0.87l-1.47-0.229l-0.79,0.93l-1.23-0.96l-0.42,0.77l-4.91-0.029l-1.16,1.09l-0.91-0.061l-0.35-1l-0.57,1.061l-1.71-0.74
		l-1.1-2.02l-1.24,0.58l-0.73-1.641l1.05-1.899l-1.26-1.03l4.3-2.45l3.34-3.57l1.84-1.189l1.15,0.61l2.5-2.12l3.07-4.25l-0.71-4.32
		l1.05-1.61l1.86,0.931l4.63-0.71l4.49,1.199l2.1,1.74l1.34,3.03l0.68-0.65l-1.23-0.35l0.6-2.29l-0.69-2.9l-8.76-5l1.44-1.479
		l3.2-1.23l5.31,0.23l0.92-1.13l0.08-2.101l2.91-1.42l-4.17,0.13l-1.66,1.65l-2.81-0.29l-2.15,0.77l-3.26-1l-1.36,1.23l-5.18-0.29
		l0.19-6.56l-4.55-0.48l-0.02-1.1l-1.89-1.48l0.73-0.91l4.91-0.35l1.16,1l0.71-0.84l5.72-0.811l1.66-1.229l2.88,1.13l1.71-1.87
		l0.32-1.33L128.74,388.35z"/>
	<path id="KR-46" fill="#1E3250" stroke="#1E3250" stroke-width="0.5" d="M66.62,587.6l0.37,1.2l-1.84-1.17l-0.68,1.2l-0.21-1.61
		l-1.02,0.061l0.03,1.58l-0.47-1.11l-2.47-0.189l0.18-1.11l-0.95,0.22l1.71-1.58l-0.24-0.31l0.84-1.08l1.29,1.68l3.34-0.89
		L66.62,587.6z M93.4,563.47l0.89-0.67l-0.47-1.14l-2.42-1.71l-0.68-1.78l-0.92,0.32l0.63-1.11l-2.44,0.79l-1.34-1.52l0.76-0.671
		l-0.73-1.079l-5.78-1.811l-0.13,2.48l1,0.539l-1.5,2.921l-0.84-0.671l-0.08,1.211l-1.23,0.409l1.1,1.21l-1.89,0.16l-0.37,1.05
		l0.74,0.83l-1.13,0.54l-0.5-2.279l-1.73,3.359l-5.25,2.891l0.95,1.71l-0.66-0.57l-1.13,0.44l-1.73,3.1l2.7,4.56l2.34-0.79
		l0.29,0.79l-1.02,0.44l0.39,0.6l-0.94,1.23h1.65l-0.13-0.73l0.76-0.22l0.92,1.62l2.26,0.06L78.39,579l-0.66-1.271l1.23,0.54
		l0.92-0.89l0.6,0.67l0.89-1.2l1.63,0.13l0.13-2.12l1.5,0.79l1.58-0.819l-0.81-0.98l0.89-0.38l0.81,0.7l-0.37-1.2l1.16,0.86
		l-0.24-1.811l1.39,1.74l-0.37,0.729l1.23,0.03l-0.03-1.68l2.81-3.17l-0.71-1.65l1.31-1.68l-1.21-0.35l0.03-0.851l1.5-0.41
		l0.58,0.86l-0.05-1.62L93.4,563.47z M51.65,536.57l1.05-0.16l-1.26-1.91l0.05-1.46l5.04-0.67l0.34-1.34l1.16-0.16l-0.26-2.83
		l-2.02,0.32l-0.97,1.909l-1.23-0.25l0.21,0.641l-1.21,0.729l-3.99-0.6l0.42,1.21l-0.81,0.38l-0.13-0.54l-0.39,0.76l0.58,0.7
		l-0.73,3.28l2.86,1.811l2.13-0.601L51.65,536.57z M131.13,584.47l-2.07-0.729l-1.81-3.771l0.08-2.819l-1.08-1.2l-3.39-1.84
		l-4.07,1.96l-0.05,5.13l0.71,0.67l-0.5,0.89l1.97,0.41l2.84,3.61l1.55-0.601l2.5,1.271l-0.18-2.09l1.18,1.489l2.78,0.511
		l-1.39-1.87L131.13,584.47z M55.48,538.28l-0.97-2.391l-0.16,1.811l-1.23-0.061l-0.1,2l-0.97-0.569l0.26-0.601l-2.1,0.44L50,541.87
		l0.6,1.65l1.13-0.79l-0.05,1.109l0.84,0.51l1.29-1.02l-0.1,1.56l0.97,0.32l1.5-0.67l0.03-1.08l1.5-1.02l0.16-1.051l1.08,0.29
		l0.47-1.21L55.48,538.28z M122.86,599.4l-3.36-2.15l-0.66,1.55l-0.89-0.09l1.81,2.05l-2.07,2.12l-0.05,1.61l0.71,1.64l1.37-0.79
		l-0.13,1.61l1,0.47l0.89-1.04l-0.13-2.62l1.1,0.38l0.26-1.069l-1.31-0.03l-1.08-2.65l2-0.25L122.86,599.4z M115.59,594.53
		l-2.76-0.54l-0.52,0.729l-0.47-1.39l-1.42,0.06l1.23,1.681l-0.89,0.1l-0.26,0.76h0.97l-1.13,0.67l0.39,1.261l-0.92,0.409l1.6,0.41
		l-0.05,1.17l2.57,0.54l-1.34-1.55l2-0.51l-0.1,0.92l1.89-0.03l-1.23-1.93h1.81l-0.6-1.74L115.59,594.53z M113.12,600.69l-0.6,1.01
		l-0.5-1.11l-1.39,0.28l-1.55-1.61l-3.28,2.5l-0.08,2.46l0.84,1.96l1.39,0.061l4.67-2.68l0.24-1.551l1.13-0.6l1.16,2.02l0.05-1.67
		l1.23,1.391l0.47-1.86l-1.1,0.351L113.12,600.69z M59.92,555.76l0.97-0.13l0.55-1.3l0.6,0.979l1.81-0.51l0.37-1.17l-0.42-1.11
		l-0.71,0.641l0.24-2l-1.44,0.45l-0.84-1.271l0.79-2.13l-1.05,0.25l0.16-0.79l-1.86,0.45l0.6,1.43l-0.52,2.54l0.82-0.439l0.6,0.569
		l-0.66,0.601v2.939H59.92z M83.68,520.43l-0.76,1.82l-2.81-0.89l-0.47,1.819l3.31,1.021l1.58-1.88l3.15,0.35l0.37,0.86l1.29-0.57
		l1.39,1.91l-1.71,1.08l0.45,0.67l1.76,0.54l0.18-0.95l1.5-0.22l0.05-3.69l-1.08,0.45l0.03-1.271l-3.12,0.32l-0.97-0.83l1.02-0.479
		l-1.08-0.73l1.16-0.189l0.05-1.24l2.42,0.16l-0.03-0.99l-1.44-1.24l-2.26,0.19l-1.31-1.66l-1.57,1.05l2.07,2.97l-1.02,0.641
		l-1.18-0.61l-0.21,1.63l0.71,0.641l-1.1,0.38L83.68,520.43z M70.14,537.17l1.42-0.13l0.63,3.02l2.78-0.569l0.29-1.78l-1.81-4.07
		l-1.79,0.67l-1.71-2.229l-1.73,0.54l-1.81-0.92l-0.34,1.21l-0.66,0.03l0.45,1.43l-0.87,2.13l2.05-1.21l0.1,1.02l0.66-0.29
		l-0.37,1.881l1.18-0.16l0.68,0.76L70.14,537.17z M75.57,547.31l0.32-1.52l-3.05-2.35l-0.97,0.319l-0.63,1.561l-0.79-0.57
		l-0.31,0.95l-1.18,0.1l0.26,1.021l1-0.641l0.58,0.73l-1.05,1.62l0.71,1.62l2.05-0.57l0.47-0.95l1.68,0.57l0.63-1.05l1.52-0.16
		l0.29-1.21L75.57,547.31z M73.92,497.36l0.13,0.699l0.97-0.29l-0.55,0.771l1.89,0.38l0.42-0.61l0.84,1.051l1.79-0.16l0.97,0.609
		l-0.42,1.66l0.92,0.19l0.87,1.6l1.42,0.13l0.97-1.909l-1.15-0.73l-0.39-2.43l-1.42-0.99l0.5-2.75l-0.52-0.64l-1.39,0.899
		l-0.39-1.05l-1.97,0.35l-1-1.25l-1.05,0.23l-2.28,1.37l0.76,1.79L73.92,497.36z M65.2,522.91l-1.57,0.29l3.05,3.85l0.37,2.07
		l2.21-0.351l0.5-1.399l-0.92-1.65l0.79-1.149l1.13,0.51l1.6-1.24l-1.73-1.11l-0.03-0.8l1.84,0.061l0.6-0.801l-1.39-1.819
		l-0.47,0.77l-2.21-0.89l-0.58,0.38l0.16,1.78l0.89,0.729l-0.5,0.92l-3.1-1.109L65.2,522.91z M73.29,505.98l0.63-1.881l-3.78-1.369
		l-2.78,2.97L73.29,505.98z M55.96,521.41l5.2,0.54l1.05,1.85l-0.18-1.78l0.76-0.22l0.21,0.76l1.44-0.449l-0.34-0.801l1.97,0.101
		l-0.6-1.431l1.92-0.92l-1.44-1.5l1.52-1.399l-1.42-0.221l0.71-1.21l-1.23,0.29l0.11-1.31l-2.1-0.86l0.39,2.17l-0.58,0.96
		l-1.02,0.19l-0.42-1.11l-0.66,1.21l-1.81-0.35l-2.2,4.21l-2.13,0.03l1.39,0.89L55.96,521.41z M63.6,498.42l0.18-0.35l1.58-0.261
		v1.601l2.36,0.96l0.03-1.561l1.52,0.101l-0.81-1.53l1.23-0.22l-1.79-1.76l0.32-1.5l1.18-0.03l0.32-3.101l3.83-1.659l-4.65,0.229
		l-0.1,1.09l-2.81,2.971l-3.2,0.569l-0.68,2.271l1.58,0.93l-0.31,0.86l-1.68-0.25l1.05,1.05L63.6,498.42z M5.33,542.07l-1.34-0.73
		l1.29-1.05l-3.1,0.57l0.05,1.239l-2.08,2.92l1.08,1.021L0,546.64l0.95,1.65l1.58,0.57l-0.08-1.681l1.63-0.699l-0.55-1.591
		l1.89-0.479l0.24-2.061l1.86-0.64l-1.02-1.05L5.33,542.07z M143.87,599.08l0.5-1.2l-0.79-0.88l0.71-1.2l-1.89-0.54l-1.86,0.851
		l-0.18,0.819l-1.18,0.311l0.03,2.529l-1,0.351l1.16,0.54l-1,0.89l0.71,1.391l1.18-1.771l1.1,1.86l1.79-0.69l0.79,0.6l1.02-0.909
		l0.13-3.28L143.87,599.08z M226.87,518.86l-0.13-3.44l-1.71-1.689l-2.7-0.061l0.26-1.72l-0.79-0.641l-2.57,2.58l0.05,2.011
		l5.36,1.21l0.5,0.699l-0.29-2.71l0.95-0.35l0.94,3.92L226.87,518.86z M227.32,553.44l1.55-0.601l0.16-0.859l-1.86-1.24l0.32-2.16
		l0.84-0.35l-0.18-2.891l0.74-0.729l-1.02,0.13l0.55-0.73l-1.55-0.38l-0.79-1.239l0.29-1.881l-1.29,0.351l-0.66-1.08l0.58-0.76
		l0.84,0.67l0.16,0.29l1.31,0.319l-0.24-2l-4.52-1.939l0.68,2.26l1.13,0.16l-0.18,2.54l1.44,0.699l-1.79,0.32l-0.5,1.46l-2.28,1.49
		l-0.58,1.43l0.66,0.95l-1.34,1.521l2.55,1.18l1.16,2.16l1.44-0.09L227.32,553.44z M218.86,537.52l-2.1-1.27l0.34-0.67l-1.76-1.08
		l0.05-0.73l-0.6,0.16l0.18,1.021l-2.26,3.05l0.71,1.44l-1.55-0.551v-0.83l-0.42,1.311h-0.73l1.31,1.27l-0.42,1.021l1.39,0.35
		l-1.55,0.67l1.31,2.23l-0.66,0.51l1.31,0.51l-1.21,1.46l1.02,0.03l0.42,1.141l-2-0.29l-0.97-1.62l-2.42-0.98l-1.21,0.38l0.45,2.16
		l-2.78-4.1l1.18-1.181l-1.1-0.35l0.05-1.59l2.36-0.891l-1.29-0.06v-0.83l-1.02,0.96l0.37-1.53l-0.81,0.101l1.47-1.271l-0.24-0.92
		l0.63,0.48l1.05-0.57l0.34-1.43l1.92,0.06l-1.81-0.6l0.63-0.83l-0.68-1.34l-1,1.08l-0.03-1.591l-1.29-0.38l1.37-0.729l-1.37-1.431
		l-0.13-1.3l-3.12-0.22l0.18-1.62l1.6-2.16l-1.65-0.26l-0.79-4.01l-2.55,0.7l0.19,3.06l-0.6,0.771l-1.78-0.54l-2.34,0.92l-0.47-1.37
		l-0.42,1.37l-3.36,1.34l-1.29-1.34l-2.34-0.101l2.23,1.181l0.92,1.46l3.36,0.029l-3.1,2.011l-0.79,2.01l-1.94-0.1l3.44,1.239
		l-0.39,1.24l-2.39,1.88l1.55,3.4l3.28,2.29l0.81,1.34l-0.45,0.7l1.84,0.03l-0.24,1.369l1.21-0.83l-0.05,0.83l0.95,0.101l-0.47-1.08
		l1.47-0.13l-0.39,2l1.55,0.51l-0.03,0.89l-1.18-0.67l-0.34,0.83l-0.92-0.95l-0.47,0.44l0.84,0.92l2.78,0.6l0.81,4.261l-1.71,1.43
		l-0.05,0.98l-2.44-0.79l-0.39-1.271l-1.23,1.68l-1-1.3l-1.47,0.641l-0.92-0.921l-3.96,0.57l0.05,0.67l2.36-0.189l0.24,0.949
		l1.31-0.789l-0.39,1.369l-2.21,0.381l-0.18,1.08l1.97-0.57l2.26,0.38l-0.63,0.57l1.37-0.32l0.45,2.28l-1.26,0.439l0.63,2.19
		l-2.07-0.891l-0.34,1.681l-1.42-0.601l-1.05,0.73l1.13,1.43l-0.24,0.92l-0.89-0.479l-0.84,0.79l-1.34-1.3l-0.47,1.619l-0.63-0.659
		l-1.65,0.819l1.13,1.01l-1.68,0.19l1.68,0.95l0.26,1.01l-1.13,0.82l-2.21-0.851l0.03-0.63l1.1,0.03l-0.71-0.979l-1.18-0.03
		l0.34-0.86l-3.05-1.24l1.42-1.93l-2.76-2.63l-0.97,0.03l-0.03,0.729l-1.18-0.38l0.21-0.79l-2.39-2.09l0.08,2.6l-2.52-1.71
		l-0.84,1.74l-0.5-0.67l-2.94,0.35l-1.47-0.79l0.08-1.239l-0.94-0.63l0.47-1.94l2.63-2.41l0.34-1.87l0.95,1.08l1.23-0.38l0.05-3.59
		l2.55-2.54l2.68-0.67l0.42-2.48l1.1-1.079l-0.39-1.65l2.23-1.97l0.68,0.54l0.97-0.79l0.5,2.77l-0.73,2.42l0.76,0.8l2.68,0.25
		l1.71-4.93l1.13-0.35l-1.15-0.54l-0.63-4.17l-2.05,0.25l-1.13,2.189l-1.97-1.239l-0.76,1.149l-1.73-3.31l-1.55,0.35l-4.25,7.25
		l-3.86,0.13l-1.31-1.21l-2.94,3.66l-2.94,1.08l-1.79,2.95l-2.76,1.27l-2.28,0.19l-0.03,0.95l1.39,0.76l-1.02,0.45l-0.66,2.569
		l-1.08,0.95l0.95,0.7l1.63-0.32l-0.13,1.49l-1.6-0.479l0.03,2.479l-1.55-0.38l-1.15,1.3l1.66,2.03l-0.95,0.51l-0.37,1.561l1.5,2.09
		l-2.05,0.819l-1.39-1.59l-0.58,0.83l0.97,2.311l-0.84,1.05l-1.65-0.79l-4.73-0.19l1.52,2.471l-0.16,1.46l-1.21-1.811l-2.6-1.58
		l-2.55,0.351l-1.29-0.92l0.29-1.4l-2.05-0.061l1.02-1.239l-0.94-3.841l1.05-3.93l-0.66-0.51l0.42-1.71l-0.87-1.021l0.24-1.17
		l-1.02-0.92l0.84-5.18l-1.55,2.729l-0.6,9.431l0.55,0.64l-1.05,0.67l0.68,2.63l-2.55,1.551l0.79,1.55l-2.21,3.3l-2.36,0.28
		l-2.34,1.43l-0.08,0.95l-0.81-0.82l-1.37,0.48l-0.52,1.489l-0.97-0.25l-0.55,1.05l-0.55-0.569l-0.6,0.79l0.5,0.569l-0.94,1.171
		l0.84,0.729l-0.05,2.34l-1.71,1.08l0.6,0.51l-0.79,1.011l0.53,2.369l-4.28-0.85l-1.5,2.21l-1.44,0.25l-0.34,1.01l-0.87-0.31
		l0.26-2.21l-0.66-0.54l1.39-1.68l-0.6-3.07l-1.44-0.63l-3.18,2.03l-0.6-1.08l0.32-0.66l0.92,0.85l-0.21-1.01l0.97,0.09l-1.26-2.22
		l2.39-0.41l-1.08-2.439l1.68,0.92l1.08-1.65l-0.71-2.82l-1.13,0.92l-1.29-0.279v0.979l-2.63-2.439l0.84-0.851l0.37-0.25l0.16-1.649
		l-0.63,0.25l-0.74-0.95l1-0.73l-0.92-2.06l1.34-0.82l-0.79-1.359l-1.92-0.16l2.21-1.681l-0.31-0.819l-2.05,0.64l-0.03-1.59
		l-2.28-0.79l0.21,1.21l-1.5,0.25l0.03,0.95l-1.44,0.7l-0.79-0.79l0.92-2.351l-2.21-0.09l-2.86-1.43l-2,0.7l-0.94-1.141l0.87-1.02
		l-3.18-1.181l0.11-2.949l1.23-1.021l-0.42-0.57l-0.45,0.641l-1.18-0.29l-1.18-1.14l-0.45-4.19l0.76-0.7l-0.16-2.45l0.58,0.45
		l0.68-1.109l1.05-5.15l1.31-0.54l1.05,0.99l-0.32,0.729l1.26-0.13l1,3.25l1.76,1.4l-1.55,1.3l0.16,2.77l-0.71,0.99l2.55,1.43
		l-0.1,2.891l1.31,0.64l0.26,1.84l1.02-1.489l6.75,4.06l-0.18-0.89l2.89-1.46l0.45-1.141l-0.87-0.54l-2.02,0.98l-0.45-2.891
		l-1.18,1.181l-0.81-2.45l-1.05,0.25l0.5-1.84l-0.74-0.061l0.05-0.83l-0.87,0.03l-0.31,1.24l-1.39,0.92l-1.08-0.95l1.65-1.97
		l-0.7-2.41l1.13,0.92l0.47-0.41l-0.73-1.779l-1.05-0.19l1.05-0.95l1.81,3.5l1.65-1.91l0.5,0.601l0.55-0.95l1.13,0.67l-2.57,3.59
		l1.13,1.271l0.97-0.38l-0.03,0.89l1.63,1.21l3.94,0.51l1.58,1.37l1-1.33l-1.31-0.38l0.13-1.4l2.21,0.221l0.31,0.89l3.26,1.4
		l3.54-0.16l-2.81-0.86l-3.02-2.22l0.24-2.67l-2.39-0.13l-1.18-2.92l-2.68-3.181l-2.47-0.25l-1.44,1.11l-0.73-1.65l-1.71,0.54
		l-1.58-1.08l-2.41,1.851l-2.34-0.86l1.63-1.56l-0.21-1.561l1.16-0.439l-0.08-1.34l-1.99,0.13l-0.71-2.17l2.99-4.261l1.81-0.699
		l-1.6-2.9l0.63-1.31l-1.29-0.351l0.29-1.979h0.84l0.45-1.271l-1.47-1.88l0.66-0.73l-0.79-1.21l0.53-2.229l-1.15-0.771l-0.92-3.25
		l-0.31,2.771l-0.87,0.7l0.08,0.77l1.42,0.61l-0.89,1.439l0.76,0.511l-0.71,0.859l0.39,0.931l-2.49,1.05l-1.36-0.16l-0.24-1.62
		l-1.92,0.25l-0.18-0.729l1.5-1.051l-2.44-2.52l1.63-2.55l-0.29,1.399l0.95-0.67l0.81,1.69l1.89-0.96l0.95-2.04l-1.86-0.41
		l4.91-3.16l-0.08-1.5l-0.89-1.12l-2.63,0.83l-0.26-2.04l-1.65-0.41l1.26-0.96l-1.15-2.17l-1.34-0.03l-0.13,0.73l-1.37-0.96
		l1.21,2.24l-1.37,1.05l1.26,0.9l-1.29,1.21l-1.47-2.08l-2.08,0.989l-0.6-3l-1.02-0.67l0.42-1.279l1.65-0.131l-2.21-2.43l0.82-1.92
		l0.76,0.31l-0.26-1.3l1.47-0.899l0.71,1.92l1.05-0.83l1.37,0.42l0.08,1.25l1.29-0.06l0.92-1.631l-0.6-0.77h0.97l1.08-1.28
		l0.05,2.561l-0.68,2.33l-0.76,0.22l-0.13,2.46l1.21,0.22l0.89-1.02l-0.71,2.649l1.23,0.42l0.74-0.569l0.21,1.949l2.23-2.75
		l-0.66,2.271l1.13-1.18l1,1.529l-1.55,2.271l0.97-0.03l0.1,1.851l2.23-0.061l-0.58-1.76l2.1-1.4l1.44-2.3l-2.07-0.96l2.1-0.67
		l0.66-1.18l-4.07-0.73l-3.62-5.82l-2.18-1.25l0.29-1.34l-1-0.479l1.63-0.54l0.68-2.561l-4.1,0.86l-1.57-0.8l-0.26-1.73l-1.37-1.12
		l1.1-2.08l1.34,2.851l1.37-1.38l-0.55-0.99l1.6-2.18l-0.29-0.7l-1.76,0.03l0.74-1.311l3.13,0.03l0.74-5.29l1.76-4.45l4.7,1.57
		l-3.47-2.37l-0.76-2.4l0.45-2.34l1.47-1.41l4.49-0.229l0,0l1.87,0.62l0,0l1.87,1.56l0.94,5.62l1.87,2.19l1.25,4.06h1.71l0.38,1.7
		l0,0l4.35-0.23l1.45-1.54l2.1-0.109l0,0l0.97,0.43l2.07-0.71l0,0l1.53-1.5l3.14-0.96l0,0l2.41-1.22l0.62-2.971l0,0l-0.26-0.77l0,0
		l1.6-1.63l0,0l0.44-3.771l0,0l0.79-1.99l2.27-0.979l0,0l1.53,0.35l0,0l1.08,0.221l1.57-1.87l3.02,0.609l4.04,2.99l0,0l3.56,5.67
		l0,0l1.97,0.57l1.02-0.69l0,0l0.67-3.1l1-0.64l0,0l0.979-1.79l2.521,0.08l1.35,1.04l0.46,4.409l0,0l-1.06,2.311l2.08,0.67l0,0
		l1.01,2.88l-0.42,3.61l0,0l2.59,1.979l2.1,0.54l0,0l3.03-1.09l0,0l0.96-0.9l0,0l1.3-0.84l3.16,1.36l0,0l1.93-1.12l1.44,1.37l0,0
		l1.13,0.66l6.15-0.021l0,0l2.38-0.7l3.19,0.36l0,0l1.75-0.46l2.95-3.79l1.76-0.979l0,0l2-0.11l0,0l4.54,2.08l0,0l6.38,4.46l0,0
		l-0.8,2.26l2.66,2.99l0.91,9.22l6.57,6.46l0.19,2.9l0,0l1.09,1.05l0,0l3.56,3.8l0,0l1.75,1.33l0,0l2.24,8.23l-2.78-0.091
		l-1.36-2.97l-2.97,1.66l-0.05-2.9l-1.42-2.04l1.13,5.2l-1.79,2.1l-2.02,0.771l0.29,1.44l-3.2,1.529l-0.94,1.37l-0.95-1.21
		l0.45-0.57l-2.07,0.221l-1.52-2.261l0.16-2.449l-0.71-0.67l-0.13,2.999l-1.97,0.54l2.44,1.881l-0.5,0.8L208.98,518l-1.92,0.801
		l1.44,0.539l1.58,3.761l2.89,0.67l-0.94,1.31l1.16,1.43l0.03-1.109l2.31,0.8l2.55-1.78l0.92-1.529l0.11-0.29l3.18-0.96l-0.95,0.859
		l1.76,0.7l-0.13-0.76l2.31-0.83l1.34,1.34l-0.84,0.19l-0.29,5.89l-0.89-0.06l-1.34,2.609l0.97,4.55h-2l-0.26,1.11L218.86,537.52z
		 M152.01,485.22l-1.02-4.54l-1.94-2.34l-1.83-0.87l-2.44-0.09l-4.44,2l-2,2.09l-1.48,0.09l-3.57-2.09l-0.61-2.18l-2.18-0.09
		l-2.09,5.31l-2.35-0.09l-1.74,2.09l-1.13,4.79l0.44,4.09l7.23,1.04l3.75,6.101h3.75l3.4-2h3.83l1.48-1.04l3.14,0.609l3.4-2.35
		l1.39-1.83l1.74-6.1v-1.391l-2.09-0.96L152.01,485.22z M201.87,568.35l-1.42-2.279l-0.05,1.14l-0.68-0.41l-0.45,1.01l-0.92-0.029
		l0.66-0.82l-1.68,0.16l-1.76-1.17l0.39,2.569l-0.81,0.48l2.21-0.51l1,0.6l-0.21,0.63l-1.86-0.22l1.21,1.27h1.68l-0.55,1.74l0.5,0.7
		l2.7-1.71l1,0.479l0.76-0.949l-0.1-2.061L201.87,568.35z M225.16,561.91l1.39-0.51l-1.84-2.25l-0.55-2.16l-1.71,0.029l-2.55,1.75
		l-1.42-0.13l2.18,1.78l1.26-0.41l-0.74,1.17l1.5,0.7l-0.6,0.891l1.84-0.19l-0.03,0.64l1.65,0.28l-0.87,0.57l2.71,0.51l0.76-1.17
		L225.16,561.91z M221.43,518.23l-0.94-0.83l-1.76,0.67l-0.68,1.18l0.95,0.729l-0.47,0.45l2.26,0.57l0.92-1.91l1.58-0.38l-0.34-0.57
		L221.43,518.23z M131.79,576.56l-1.31,2.601l1.39,0.82l0.03-1.9l1.08-1.46l2.55-0.101l0.55-1.96l2.31,1.24l1.55-0.1l0.08-0.82
		h-0.71l-0.16-1.36l-0.81,0.131l0.21-1.24l-1.1,0.82l-1.42-1.011l1.79-0.1l0.29-0.98l-1.13-0.29l-0.08-1.39l-4.25,1.24l-2.23,2.569
		l0.34,1.36l-1.71,2.25L131.79,576.56z M196.99,564.61l1.44,0.319l0.39-0.699l0.58,0.699l1.13-0.819l-1.39-1.971l-2.89-0.22
		l0.16-0.79l1.21,0.38l-1.52-1.779l1.84-0.79l-0.47-0.92l-1.52-0.16l-2.23,2.89l2.05,1.05l-0.42,0.54l0.66,0.44l-1.68,1.05
		l0.95,1.56l1.02,0.16L196.99,564.61z M228.5,568.48l0.32-1.011l-1.08,0.57l0.29,0.89l-1.15,2.221l1.5-0.25l-1.47,1.649l0.26,0.54
		l0.87-0.479l0.11,0.819l0.71,0.03l0.97-5.04l-0.71,0.48L228.5,568.48z M149.75,581.43l-1.16,1.36l0.26,2.12l0.55-0.38l0.81,1.27
		l4.02-2.59l-0.13-0.92l-1.58-0.85h-2.77V581.43z M140.06,584.31l-0.05-0.949l0.53,1.46l1.08-0.03l-0.24-2.34l1.5-0.16l0.1-1.521
		l-1.68,0.92l-0.71-1.449l-1.44,0.41l-0.13-0.66l-0.68,0.85l-1.5-1.61l-1.37,1.301l0.13,1.04l-1.23,0.51l-1.6-1.42l-1.39,1.27
		l-2.18-0.13l2.73,0.98l1.21,1.39l1.44-1.39l1.87,0.13l1.21,3.13l1.31-1.2L140.06,584.31z M160.75,579.31l-0.89-0.479l-2.91,1.27
		l0.05-1.96l-1.55-1.46l-0.21,0.891h-1.63l0.63,0.63l-0.89,0.06v1.141l-2.13-0.32l2.13,1.24l0.71-0.73l1.34,0.86l0.34,0.79
		l-1.42,0.319l1.16,0.671l2.05-0.95l0.13,0.729l-1.57,1.11l0.42,1.84l1.66-2.78l2.02-0.51l-1.71-0.28l0.55-0.89l3.31,1.14
		l-1.89-1.739L160.75,579.31z M144.45,575.48l-0.6-1.33l-0.66,0.6l-0.47-0.7l-0.16,0.92l-1-1.27l-0.76,0.79l-0.05-0.891l-0.87-0.41
		l-0.31,0.631l0.95,1.359l-0.79,2.38l0.68,0.57l1.34-0.6l0.32,1.62l1.79,0.699l1.63-0.79l0.39-1.17l1.81,0.351l-0.66-1.96l1.02-2.12
		l-0.55-1.11l-1.24,2.5L144.45,575.48z M175.61,591.75l-0.03,1.17l-0.92,0.1l-0.71,2.78l1.47-0.66l1.68,0.851l-0.81-1.2l1.1-0.28
		l-0.34-3.07L175.61,591.75z M173.01,563.59l-1.39,0.86l-2.02-0.29l-3.49,2.03l-1.34-0.63l-0.42-1.431l-0.79,0.061l-0.16,1.62
		l-2,0.67l1.26,1.739l-0.66,1.4l1.63-0.63l-0.08,1.08l2.52,2.12l0.58-1.24l1.47,0.28l0.21-0.761l4.04,0.63l2.47-5.289L173.01,563.59
		z M154.79,568.16l1.1,0.67l0.34,3.2l0.81,0.79l0.6-0.32l-0.26-1.271l1.05,0.25l0.13,2.79l1.18-3.14l-0.92-2.54l-0.97-0.82
		l-0.39,0.761l-0.6-0.95L154.79,568.16z"/>
	<path id="KR-47" fill="#1E3250" stroke="#1E3250" stroke-width="0.5" d="M522.25,208.93l0.94,0.28l-1.051,1.46l0.96,1.76
		l-0.729,2.61l0.94,0.68l-3.53,1.86l-0.75,1.9l-6.311-2.46l-1.42-5.79l0.75,0.48l4.061-2.08l4.47-0.62l0.77-0.86L522.25,208.93z
		 M299.65,432.93l-0.47,3.051l0,0l1.69,3.67l0,0l4.45,3.479l5.88-1.1l7.44,2.75l0,0l1.92,0.569l5.51-3.83l1.01,0.301l0,0l4.96-4.15
		l2.1,0.04l0,0l2.93,0.87l0,0l3.7,1.57l0.96-0.351l0,0l4.69-3.88l0,0l0,0l0,0l1.66-0.17l0,0l0,0l0,0l1.33-0.73l-1.58-3.539
		l4.75-3.07l3.11-1.021l4.22-0.359l2.9,1.89l2.01,0.311l1.21,1.409l0,0l-0.43,2.841l0,0l1.02,1.109l0,0l1.98,0.65l0,0l5.37-2.391
		l0,0l8.14,2.15l0,0l3.01,0.22l-1.44-1.38l-0.24-2.32l1.26-2.38l1.05-0.1v-1.61l1.15-1.29l-0.45-1.83l2.37-7.54l-0.63-1.899
		l1.94-2.061l-0.29-2.13l2.47-5.52l-1.6-0.32l1.1-1.06l-0.44-1.32l0.87-0.74l-1.52-3.229l2.94-2.65l0.24-3.17l3.07-4.36l-0.68-0.939
		l0.63-2.49l-1.21-3.75l-1.18-1.07l-1.23,0.29l-0.92,2.301l-3.07,3.329l-0.05,1.33l-4.17,2.49l-0.25,1.2l-0.82,0.26l-2.54-1
		l-0.26-2.13l-2.34,0.61l1.37-1.91l2.26-0.19l-2.6-0.939l-1.68,1.16l-1-1.65l0.66-2.33l3.47-1.36l-0.18-1.449l1.31-1.65l0.08-0.97
		l-3.02-2.49l-0.47-6.02l-1.39-0.61l-0.84-1.59l1.39-2.24v-2.3l-1.23-1.46l0.81-2.5l-0.68-1.59l1.29-7.98l4.6-8.25l-0.24-6.31
		l1.79-2.99l-0.87-0.78l-0.29-4.62l-2.7-3.649l0.03-4.59l2.39-5.67l1.18-0.98l1.31,0.07l1.26-2.41l-0.55-2.58l0.52-1.43l-0.92-2.84
		l1.05-1.11l-3.02-7.67l-1.68-1.86l-1.23-4.31l0.5-6.9l-1.18-3.96l1.05-1.86l-0.97-4.19l0.68-0.52l-0.18-2.52l1.6-0.36l-5.25-5.24
		l0.37-2.02l0,0l-4.28,0.72l0,0l-1.87,2.19l-2.5,0.94l-2.81,2.5l0,0l-1.56,2.19v1.25l0,0l1.56,2.81l-6.53,0.16l0,0l-2.66-2.27
		l-2.95-1.03l-2.61-0.4l-2.55,2.52l-7.43-2.62l-3.35,0.72l-0.68-1.32l-1.72-0.68l0,0l-2.91,4.31l0,0l-0.94,1.25h-4.06l-6.24-4.37
		l-2.02,0.18l-0.54,4.72l-1.11,1.12l-3.07-1.37l-1.92,0.26l-4.25-2.34l0,0l-2.2,2.16l-2.15-0.25l0,0l-2.28,2.61l0,0l-0.62,0.28l0,0
		l-3.29,3.25l-2.8,0.81l0,0l-0.79,1.24l0,0l-3.55,2.75l-3.16,5.67l0,0l-0.83,1.57l0,0l-0.05,1.33l1.31,0.61l0,0l0.8,2.91l-2.84,3.9
		l-3.99,0.78l0,0l-0.92,1.03l-2.44-0.05l0,0l-2.19,0.18l0,0l-2.49-4.92l-3.24-1.85l-1.18-1.97l0,0l-1.67,3.05l-1.13,0.34l-0.44,3.23
		l0,0l-0.37,0.57l-5.7-1.74l0,0l-0.42-0.63l0,0l-1.06-0.38l-0.61,0.63l0,0l-2.53,3.09l-1.38,0.19l0,0l-1.64-1.75l-0.51,0.31l0,0
		l-2.86,6.69l0,0l3.4,5.25l-4.6-0.91l0,0l-1.18-0.67l-1.21,0.59l-3.31-1.63l0,0l-2.87,3.73l0,0l-4.25,1.42l-1.68,2.38l0.48,2.22
		l-3.23,3.34l0,0l-1.76,1.55l0,0l-1.56,0.351l0,0l-0.99,1.91l0.73,1.1l5.37,1.13l1.22,1.221l-0.14,0.93l0,0l0.97,1.97l0,0l2.01,1.36
		l-0.42,1.71l0,0l-2.02,0.89l-0.81,7.63l0,0l0.6,2.48l-1.28,2.02l1.32,3.25l0,0l0.5,0.311l0,0l-1,2.56l-2.66,2.311l0,0l-0.07,4.29
		l2.15,1.779l0,0l3.42-2.56l0.46,1.439l2.5,1.48l0,0l1.85,1.57l0,0l1.17,0.399l0,0l1.99-0.84l0,0l2.23-0.79l2.02,0.7l0,0l0.62,1.07
		l0,0l0.15,3.17l0,0l1.26,1.87l0,0l-0.6,1.279l-3.12-1.41l-2.41,1.431l-1.18,1.74l1.18,2.96l-0.41,3.569l-1.76,1.46l-1.04,4.641
		l-1.84,2.6l-2.88-0.1l-1.08,1.069l0,0l4.72,8.98l-1.29,5.01l0,0l0.13,1.94l1.18,1.37l2.09,0.38l0,0l0.71,0.37l0,0l0.31,2.609
		l0.94,0.561l0,0l3.92,0.54l0,0l1.74,1.76l0,0l7,0.52l1.49,0.75l0,0l2.04,1.49l0.78,2.88l0,0l0.66,0.5l0,0l2.07,0.99l0.43,1.76
		l2.52,1.49l0.94,1.79l-2.06,6.18l0,0l-0.27,1.66l0.89,1.64l3.8,1.49l3.44-0.609l0,0l2.96-1.091l4.49,1.36l0,0l2.24,2.18l0,0
		l1.71,1.25l0,0l-0.73-3.43l-4.06-4.99l0.31-2.81l3.43,1.87h2.18l0.62-2.5l-3.12-3.431l1.25-3.12l1.25-2.81l5.31-0.94l-0.31-1.869
		l-2.81-2.181l-4.68-0.31l1.56-5.93l2.19-3.12l4.06-1.87l0.62,5.62h2.5l3.43-8.11l5.93-1.25l2.81-3.12l3.43-0.939l3.12,0.31
		l3.74,3.12l0.63,7.49l1.87,4.06l-0.94,2.19l-3.43,1.25l-1.56,3.43v3.12l-2.5,0.31v1.87l1.25,1.561v4.06l-3.43,1.25l-1.56,1.87
		l-2.81-0.311l-0.62-2.81h-3.12l-2.18,1.25l-1.56,2.5l0.45,1.51l0,0l1.27-0.2L299.65,432.93z"/>
	<path id="KR-48" fill="#1E3250" stroke="#1E3250" stroke-width="0.5" d="M240.35,406.64l2.09,0.38l0,0l0.71,0.37l0,0l0.31,2.61
		l0.95,0.56l0,0l3.92,0.54l0,0l1.74,1.761l0,0l7,0.52l1.49,0.75l0,0l2.04,1.49l0.78,2.88l0,0l0.66,0.5l0,0l2.07,0.99l0.43,1.76
		l2.52,1.49l0.94,1.79l-2.06,6.18l0,0l-0.27,1.66l0.89,1.64l3.8,1.49l3.44-0.61l0,0l2.96-1.09l4.49,1.36l0,0l2.24,2.18l0,0
		l1.71,1.25l2.41-0.06l3.49-2.5l0,0l1.52-0.38l2.42,0.89l0,0l1.35-0.92l1.32-4.271l1.27-0.199l0,0l0.69,1.279l-0.47,3.051l0,0
		l1.69,3.67l0,0l4.45,3.479l5.88-1.1l7.44,2.75l0,0l1.92,0.569l5.51-3.83l1.01,0.301l0,0l4.96-4.15l2.1,0.04l0,0l2.93,0.87l0,0
		l3.7,1.57l0.96-0.351l0,0l0.77-0.79l0,0l1.47,2.431v1.47l-1.2,1.05l0,0l-2.23,1.89l0.34,4.83l2.23,1.051h2.75l0,0l2.4,0.21
		l3.26,3.35l0,0l5.66,5.87l0,0l3.09,0.21l0,0l1.27,1.55l0,0l-2.95,2.71l-0.57,1.86l-4.87,0.569l-3.61,6.641l-1.84-0.32l-3.95,2.48
		l-4.06,4.939l-4.15,0.141l-3.86,2.43l-2.29,0.29l-0.43,5.01l-6.93,2.61l0,0l-1.81,2.229l-0.97-0.729l0.16,1.25l-2.26-0.67
		l-1.13,1.05l-0.37-0.73l-0.87,0.19l-0.05-0.931l-1.23-0.029l-0.6,0.83l-0.71-0.73l1.5-2.2l-0.6-1.819l-0.87-0.29l0.21-0.99
		l-1.68,0.8l0.52,1.76l-1.18,0.96l-0.34-1.529l-1.78-0.73l0.29-1.34l-1.84,0.32l-0.42,1.729l-0.63-0.83l-0.84,0.261l0.76-1.091
		l-0.47-1.89l-1.52-1.09l-0.21-3.23l3.94-2.37l-4.2,1.341l-2.21,2.59l1.39,1.6l-0.29,1.311l1.13,0.13l0.95,2.109l-2.18,0.54
		l-0.13,0.7l2.52-0.06l0.05,3.39l2.44,1.95l-2.26,0.64l0.79,0.96l1.37-0.319l0.87,0.699l-5.94,1.761l1.42-1.15l-0.42-0.22
		l-1.97-0.19l0.58,1.37l-1.21,0.16l-1.29-1.82l2.23-0.16l-0.31-1.21l1.86-1.119l-3.78-1.15l0.6-0.73l-0.87-0.029l-0.08-1.44
		l-1.02,1.82l-1.55,0.64l-2.52-1.18l0.1,0.83l-1.02,0.42l-2.28-0.89l-0.21,1.06l2.97,2.11l-1.08-0.381l-0.42,0.96l-2.1,0.19
		l-1.31,1.95h-1.15l-0.34-0.891l-2.73,1.921l-0.76-0.41l0.71,1.6l-1.23,0.48l-0.97,2.42l2.73-1.08l0.11-1.76l1.5-0.891l4.07-1.02
		l-0.18-2.01l0.79-0.19l0.39,0.83l0.97-1.44l1.26,1.311l-0.05,1.21l-0.26,0.899l-1.79-0.06l2.02,0.67l-0.03,1.4l1.97,1.5
		l-0.92,1.239l-0.84-0.54l-0.6,1.95l-1.29-0.51l-0.05,1.02l-5.2-0.8l0.03,1.44l1.94-0.42l1.21,0.38l0.24,1.05l-1.94,1.95l0.58,0.26
		l-0.42,1.69l1,0.89l-1.68,2.521l0.79,0.77l-0.6,0.77l0.18,2.771l2.36-3.25l-0.6-1.47l1.23-0.101l1.1,2.521l0.97,0.26l-0.76,2.29
		l-1.05-1.34v1.939l-0.87-0.13l0.5,2.261l-3.94,1.369l2.76,0.641l0.24,0.92l-0.03,2.07l-1,0.159l0.81,0.86l-1.89,0.28l1.52,1.21
		l-1.15,2.229l-2.49-0.38l-0.08-1.689l-0.81,0.38l0.29-1.181l-0.84-1.21l-0.63,0.96l-1.13-0.76l1.5-0.95l-0.05-1.27l-2.99-1.21
		l-1.05,0.96l-0.58-1.05l0.92-0.41l-0.24-1.43l0.66,1.109l0.95-1.18l1.08,1.43l0.63-0.54l1.23,2.521l-0.18-1.75l1,0.319l0.95-0.76
		l-1.1,0.32l-0.79-0.57l0.42-0.859l-1.31,0.1l-0.37-1.15l1.73-1.37l2.92,0.131l-0.34-0.601h-2.81l-0.55-2.359l-0.29,0.699
		l-0.79-0.409l0.29,1.88l-1.57-0.32l-0.47-1.69l-0.21,1.561l-0.66-1.021l-1.29,0.7l-0.03-1.24l-1.08,0.801l-1.79-2.71l1.39-0.7
		l4.07,0.13l-1.39-4.62l-1.02,0.19l0.21-1.08l-1.31-0.641l0.29,2.01l-2.02,0.891l0.47,2.07l-1.42,1.02l-0.71-0.729l0.03,1.399
		l-1.55-0.92l0.03-3.22l-1.65-0.25l-0.31-0.16l-1.63,0.32l-0.58-0.601l-0.42,0.83l-2.02,0.19l0.79,1.27l-0.18,3.7l-1.89-0.16
		l-0.66-1.399l-0.21,1.21h-0.74l-0.68-1.21l-1.6,0.569l-0.87,1.561l-1-1.85l-1.05,0.26l-0.73-1.021l1.68-1.31l-4.25-0.061
		l-3.44-1.939l-0.94-2.04l2.18-2.33l-1.34-2.08l1.02-2.33l-0.42-0.8l-0.73,0.64l-0.16-0.51l1.29-5.46l1.16-0.99l-0.63-0.319
		l-2.02,1.529l-1.18,4.66l-1.42-0.729l1.18-0.641l-0.24-0.7l-0.73,0.86l-2.05-0.93l-0.89,1.34l1.92-0.35l1,2.81l1.13,0.26
		l-1.05,3.351l-0.97-1.591l-1.47,2.11l-1.13-2.17l-2.18,1.47l0.5,0.86l-1.5-0.54l0.37-0.83l-0.87-0.41l0.76-0.22l0.08-1.24
		l-1.55-1.439l-0.6,3.829h-0.92l0.4,1.25l-1,0.131l-0.31,1.34l-1.84,1.34l-2.94,0.189l-0.24-1.529l-0.58,0.38l-0.55-0.86
		l-0.42,2.101l-1.72-0.25l-0.09,0.409l-2.24-8.229l0,0l-1.74-1.33l0,0l-3.56-3.8l0,0l-1.09-1.05l0,0l-0.19-2.9l-6.56-6.46
		l-0.91-9.22l-2.66-2.99l0.8-2.26l0,0l0.23-0.2l0,0l2.22-2.311l-0.55-2.869l1.16-3.15l3.7-3.57l0,0l0.46-4.01l-1.63-0.43
		l-0.69-1.931l0.69-3.34l-1.27-2.27l0,0l-0.42-2.91l0,0l-2.77-1.37l-0.17-2.32l5.22-14.409l0,0l0.89-0.801l0.16-1.92l0,0l0.78-4.819
		l4.94-4.74l1.66-4.08l0,0l0.65-0.47l0,0l2.02,0.439l1.83-1.149l0,0l1.46-0.011l3.11-1.88l2.05-4.62l2.33-1.51l0.13,1.94
		L240.35,406.64z M325.68,498.1l0.5,1.44l1.02-0.29l0.47,1.76l-1.63,3.42l0.66,0.801l-1.31,1.85l0.26-0.6l-1.1-0.961l0.82-1.21
		l-2.05-0.89l0.94-0.8l-1.78-3L325.68,498.1z M312.55,502.25l0.71-0.64l1.31,0.51l0.89,1.47l-0.87,1.66l-1.05-0.1l0.5,1.05
		l-1.37,0.06l0.79,0.51l-0.39,2.23l1.94,0.93l0.97,2.931l-0.87-0.091l0.55,2.931l-1.26,0.22l0.63,1.31l-1.99,1.15l-0.05,1.05
		l1.45,0.29l-0.1,0.891l1.86-2.23l0.97,0.57l-0.1,0.729l0.45,1.24l-0.66,0.7l-1.21-0.29l1.16,2.39l-1.13,0.28l-0.58-0.99l-1.6,1.05
		l0.66,1.431l0.87-1.021l0.74,0.54l-0.6,1.08l2.02,4.141l-2.89-0.86l0.55-0.8l-0.76-1.37l-1.16,1.91l-0.68-0.19l0.21-1.24
		l-2.07-0.449l-0.24,2.289l0.71,0.86l-1.44,1.271l-1.18-0.44l-0.73,1.78l1.39,2.39l2.71,0.19l-0.47,1.399l-1.94-1.34l-2.49,1.021
		l-0.18-0.7l-0.47,0.76l1.66,1.43l-0.16,0.92l-1.21-0.479l-1.5,1.46l-1.81-0.92l-1.29,0.76l0.79-2.29l2.07-0.979l-2.84-1.11
		l0.21-2.45l2.05-0.159l-0.86-0.761l0.5-0.859l-2.13-0.061l-1.24,1.4l-0.84-1.08l1.42-1.4l-1-0.16l-1.39,1.561l0.24-1.05l-0.66-0.38
		l4.39-1.181l0.03-2.29l0.97-1.62l-0.71,0.19l-1-1.53l1.05,0.32l0.03-0.7l-1.44-0.83l-0.81,2.48l-3.31-0.03l-0.1,1.37l-0.76-0.25
		l0.37,0.92l-1.26,0.729l-0.94-1.689l0.68-0.86l-2.47-1.08l-0.89-3.729l1.89-3.15l0.82-0.06l-0.39-0.7l0.81,0.35l-0.47-0.8
		l1.44,0.19l0.92-1.561l3.86,2.811l0.92-0.16l-0.55-0.92l1.44-0.771l3.73,2.61l-0.58-2.84l-1,0.29l0.26-1.051l-2.42-2.26l1.89-3.09
		l-0.03,1.37l2.6-0.35l-0.03-0.641l1.63,1.05l-0.16-1.66l1.08-1.119l-0.55-0.73l1.05-0.26l-0.5-0.8l1.08-0.131l0.26-0.289l0.73-0.73
		l-1.31,0.13l0.76-3l0.89-0.13L312.55,502.25z M308.56,503.27l0.47,1.25l-0.81,3.61l-1.73,0.38l-0.5-0.7l-1.15,1.08l0.21-1.399
		l1.37-0.83l-0.89-0.771l1.58-0.029l-0.23-1.12L308.56,503.27z M237.11,511.92l2.21,1.271l0.18-0.801l0.63,0.29v5.58l-2.23,0.83
		l-0.34,1.5l1.63,2.68l-0.58,0.921l3.18,1.43l0.16,2.13l1.71,0.26l-0.34-0.859l2.94-2.07l3.73-0.29l1.47,1.4l1.42,0.1l0.47,2.32
		l-1.18,0.06l0.47,0.96l-0.76,1.21l0.87,3.53l-2.34,3.021l2.49,1.779l-3.89,0.83l0.66-1.94l-0.94-0.6l-0.79,0.29l0.08,1.08
		l-1.52-0.19l-0.34-0.83l-0.47,1.431l-2.57-0.061l-1.23-4.29l0.63-3.529l-4.36,1.34l0.71,3.689l-2.13,1.341l-2.99-0.641l0.42-0.729
		l-1.08-0.41l0.18-1.21l-1.5-0.101l0.37-2.13l1.08-0.25l-1.71-2.96l0.24-1.43l-2.18-2.9l-0.58-2.83l1.05-1.97l0.97-0.06l0.08-2.13
		l1.18-1.4l0.39,0.61l1.65-0.221l-0.97-1.27l0.11-1.561l1.08-0.38l0.42-1.24L237.11,511.92z M250.06,514.69l-1.92,6.369l1.29,0.29
		l-0.13-2.069l1.31-1.75l1,0.13l0.21,1.59l0.6-0.26l1.08,1.31l-0.13,1.4l-1.1,1.05l0.76-0.32l-0.13,1.181h1.45l1.08,1.939
		l-1.37-0.859l-0.73,0.6l-0.97-0.95l-0.79,0.32l-2.28-1.53l-0.31,1.21l-1.39,0.32l-3.28-0.891l-0.55-3.22l1.31-0.83l2-3.76
		L250.06,514.69z M266.13,521.83l3.07,1.78l-2.49,0.22l-2.02,2.04l-0.13-1.311l-1.29-0.319l-0.29-1.34L266.13,521.83z
		 M269.59,524.03l2.76,2.87l-0.55,0.8l-2.02-0.19l0.26,1.88l-4.02-2.71l0.16-0.8l1.21,0.38l-0.66-0.6l0.87-1.24L269.59,524.03z
		 M292.99,526.7l-0.6,0.7h0.89l0.55,3.439l1.21-0.25l0.55,0.83l-0.32,1.18l-1.89,1.11l-2-0.44l0.58-1.149l-1.34-1.78l0.24-2.29
		l0.47,1.78l0.76-0.38l-0.16-1.05l-0.71-0.86l0.29-0.83h1.48V526.7z M270.38,545.6l2.86,1.561l-1,0.7l0.95,0.949l0.95-1.649
		l1.34-0.03l-0.92,2.29l-2.49-0.86l-1.76,0.92l-0.16,0.921l-0.89-0.16l-0.26-0.57l1.13-0.7l-0.79-0.569l0.26-0.761l-0.87,0.511
		l-0.45-0.73l1.1-0.38l-0.68-0.98L270.38,545.6z"/>
	<path id="KR-49" fill="#1E3250" stroke="#1E3250" stroke-width="0.5" d="M148.46,673.64l0.68,0.78l-0.45,0.6l1.45-0.09l-0.68,2.92
		l-2.07-0.5l-0.45-1.439L148.46,673.64z M143.84,688.77l-3.15,2.28l-0.47,2.03l-2.47,2.48l0.16,1.439l-1.31,1.47l-5.07-0.09
		l-3.12,3.25l-9.01,1.12l-2.76,2.94l-1.81,0.689l-1-0.91l-1.71-0.06l-0.52,1.28l-1.47-0.87l-2.15,0.189l-5.3,1.66l-1.84-1.84
		l-2.34,0.63l-1.86-1l-3.31,1.5l-4.23-1.12l-3.1,2.03l0.03,2.97l-1.39-0.5l-0.95,0.62l-0.89-0.59l0.24-1.12l-0.84-0.03l-2.13-2.87
		l-4.88-2.84l-1.84-3l0.58-3.31l-0.58-1.811l1.79-1.47l0.03-1.41l2.76-1.779l1.18-1.811l1.21,0.19l2.18-2.5l0.45-2.82l4.2-1.69
		l0.45-1.97l5.38-1.03l1.66-1.35l1.18,0.75l7.9-3.07l1.08-1.22l2.02,0.6l2.42-0.97l4.31-0.09l0.79-1.16l3.7-0.25l1.1-2.01l1.89,1.51
		l1.1-1.13l4.65-0.91l3.18,0.38l0.24-0.939l3.33,1.13l2.76-0.5l1.31,3.01l1.76,0.94l1-0.63l3.26,1.029l-0.42,1.32h1.02l0.34,0.94
		l-1.16,2.159l1.81,1.44l1.34-0.5l1.08,1.69l-0.47,0.56l-1-0.66l-0.81,1.22l-0.1,1.03l1.5,1.101l-0.73,0.88l-1.23-1.311
		L143.84,688.77z"/>
	<path id="KR-50" fill="#1E3250" stroke="#1E3250" stroke-width="0.5" d="M176.14,312.59l-2.69-1.62l-1.48-1.62l-2.57-0.81
		l-2.69,1.08l-0.41,1.76l1.08,2.021l0.54,2.02l0.27,3.1l-0.67,2.431l0.27,3.37l0.13,3.5v3.1l-1.08,2.43l0.14,2.021l1.88,2.56
		l2.7,1.48l1.35,3.91l0.27,2.83l-0.14,4.05l1.22,3.1l1.75,1.351l1.71,2.05l2.18-2.49l-0.31-8.74l6.86-2.18l0.96-6.14l-0.62-0.86
		l-1.11,0.19l-0.57,0.779l1.86-6.1l-1.08-1.141l0.92-3.279l-3.34-0.2l-0.45-1.35v-2.811l-2.81-3.43l2.19-0.63l0.31-2.811l-1.56-2.18
		l-2.44,0.2L176.14,312.59z"/>
</g>
</svg>
