<?xml version="1.0" encoding="utf-8"?>
<!-- Generator: Adobe Illustrator 15.0.0, SVG Export Plug-In . SVG Version: 6.00 Build 0)  -->
<!DOCTYPE svg PUBLIC "-//W3C//DTD SVG 1.1//EN" "http://www.w3.org/Graphics/SVG/1.1/DTD/svg11.dtd">
<svg version="1.1" id="Layer_1" xmlns:amcharts="http://amcharts.com/ammap"
	 xmlns="http://www.w3.org/2000/svg" xmlns:xlink="http://www.w3.org/1999/xlink" x="0px" y="0px" width="512px" height="827.363px"
	 viewBox="0 0 512 827.363" enable-background="new 0 0 512 827.363" xml:space="preserve">
<defs>
	
	
		<amcharts:ammap  projection="mercator" bottomLatitude="5.918161" leftLongitude="79.649879" topLatitude="9.836123" rightLongitude="81.879063">
		</amcharts:ammap>
</defs>
<g>
	<path id="LK-11" fill="#1E3250" stroke="#1E3250" stroke-width="0.5" d="M70.09,578.64l2.6,0.07l-0.85,3.88l4.24,0.43l0.1,1.69
		l3.25,0.25l1.25-1.28l2.49,0.5l1.98,2.33l2.36-0.89l6.19,1.5l1.55-1.65l4.09-0.47l1.22,4.3l8.01,3.521l0.97-1.17l1.99,1.06
		l3.73-0.76l1.08-8.12l4.55-2.85l0.45-1.67l8.55,0.81l0.8-1.88l1.86,0.31l0,0l7.85,0.98l1.02,6.27l-0.74,1.2l-2.38-0.32l0.42,4.011
		l0,0l-3.91,3.67l-2.76,8.12l3.57,1.68l1.58,6.74l-4.63,0.779l0,0l-6.06-2.29l-6.64,3.79l1.6,4.811l-0.86,2.35l-2.32-0.39l-2.2-6.28
		l-3.16-2.72l-4,5.439l-5.19-3.17l-6.54,7.08l-5.12,2.58l-5.52-0.91l-1.31,2.88l-4.99-0.1l-1.37-3.12l-4.95-2.33l2.77,12.19l0,0
		l-7.89-21.561l-1.16-10.42L64.4,587.98l0.67-4.48l0.67,2.91l1.12-4.48l2.18-0.779L70.09,578.64z"/>
	<path id="LK-12" fill="#1E3250" stroke="#1E3250" stroke-width="0.5" d="M84.55,518.69l2.62-1.141l-0.75-1.819l5.06-0.471
		l5.94-5.609l1.64,1.189l2.45-0.58l0.68,2.931l3.19,0.39l2.86,3.18l13.2-9.41l4.82,3.86l-0.51,2.46l4.54,3.3l3.03,4.681l2.09,0.51
		l0,0l0.99,2.55l-3.02,2.18l0.09,8.19l-4.37,0.22l-1.09,1.92l-2.34-0.95l1.74,2.551l-0.07,5.43l1.7,4.91l2.41-2.04l6.95,0.819
		l-8.91,14.29l3.68,12.9l-0.6,3.41l0,0l-1.86-0.311l-0.8,1.881l-8.55-0.811l-0.45,1.67l-4.55,2.851l-1.08,8.119l-3.73,0.761
		l-1.99-1.061l-0.97,1.17l-8.01-3.52l-1.22-4.3l-4.09,0.47l-1.55,1.649l-6.19-1.5l-2.36,0.891l-1.98-2.33l-2.49-0.5l-1.25,1.28
		l-3.25-0.25l-0.1-1.69l-4.24-0.43l0.85-3.88l-2.6-0.07l0,0l-10.6-45.33l1.35-0.83l0.81,1.05l-0.92,3.811l4.93,12.5l-0.45,1.68
		l1.29,0.95l1.4-0.95l0.73-2.8l1.01,2.69l0.9-1.74l-1.12-9.47l-3.64-6.33L62.59,536l-0.78-3.76l2.18-3.48l0.62-9.359l0.33-0.551l0,0
		l2.17-0.699l1.46,1.399l2.88-2.66l2.55,1.86l4.12-1.25l-0.51,2.67l3.81-3.17L84.55,518.69z"/>
	<path id="LK-13" fill="#1E3250" stroke="#1E3250" stroke-width="0.5" d="M76.7,631.47l-2.77-12.189l4.95,2.33l1.37,3.12l4.99,0.1
		l1.31-2.88l5.52,0.91l5.12-2.58l6.54-7.08l5.19,3.17l4-5.44l3.16,2.72l2.2,6.28l2.32,0.391l0.86-2.351l-1.6-4.81l6.64-3.79
		l6.06,2.29l0,0l5.24,16.26l-1.36,1.14l3.3,7.17l6.84,6.761l1.16,6.319l5.45,1.86l4.22,4.38l2.1,5.16l-3.83,1.63l17.65,27.47l0,0
		l-2.78-0.26l-11.25,6.19l-4.37,0.88l2.31,10.41l-0.74,3.109l-12.38-10.52l-4.23-0.55l-1.73,1.539l0.05,2.631l-3.34,1l-7.31-2.511
		l-4.72,0.181l-8.72-7.141l-3.41,0.87l-1.82-2.229l-6.7-2.391l-2.59-3.18l-3.51,1.91l-1.94-2.71l0,0l-2.97-4.15l-0.17-2.13
		l1.85-1.57l-0.67-7.89L76.7,631.47z"/>
	<path id="LK-21" fill="#1E3250" stroke="#1E3250" stroke-width="0.5" d="M210.37,481.72l1.52,3.46l10.39,7.79l5.91,3.49l3.47,0.11
		l5.47-0.59l1.54-1.66l1.24-6.23l-2.22-6.31l5.36-3.48l5.16,5.24l7.44,4.21l3.65-2.49l-0.3-1.51l2.72-2.49l3.9-0.649l2.1-1.891
		l2.53-0.46l3.09,1.87l4.02-1.88l1.72,3.28l0.61-1.29l1.75,0.71l3.04-5.63l8.25,0.22l0,0l0.2,12.37l-1.16,2.76l2.67,4.16l-1.34,5.78
		l8.15,26.37l-1.68,3.42l-5.02,0.779l-2.08,3.301l-5.23-0.83l0,0l-9.78,0.29l-2.74,3.67l-0.9-2.78l-5.85,0.87l-8.25-1.66l-1.56-1.22
		l-0.11-4.29l-10.08-9.66l0.17,4.53l2.76,2.899l0.84,7.76l-8.24,7.99l-8.29,13.33l-8.12-2.07l-2.16,0.74l-2.16,4.04l-9.92,0.99
		l-1.28-1.54l-2.11,1.05l-1.37-0.979l-2.63,1.659l-0.39,2.311l2.58-0.61l1.95,4.98l8.26,9.24l-2.67,5.97l-2.38,1.109l0.05,3.03
		l-5,0.78l-2.63-4.33l-4.88-4.08l-3.71-8.85l-4.85-2.271l-2.01,1.8l0,0l-0.5-3.81l2.05-3.62l-1.29-0.04l-3.82-9.75l2.02-1.68
		l9.02-1.19l1.97-4.24l4.9-0.289l-1.08-2.271l3.8-1.55l-7.03-7.82l1.84-2.46l-0.73-4.16l-2.98-3.45l-4.92-1.119l0.37-4.29
		l-5.32-5.69l-4.78-2.7l-1.85-6.239l0,0l4.99-0.29l2.6,1.27l-1.64-2.06l4.2-6.53l-2.01-3.48l3.86,0.721l5.13,4.239l2.23-0.68
		l-0.3-4.62l8.04-1.05l-2.69-6.8l2.36,0.42L210.37,481.72z"/>
	<path id="LK-22" fill="#1E3250" stroke="#1E3250" stroke-width="0.5" d="M248.77,369.63l4.71,3.55l-0.22,5.37l1.91,1.17l2.15,0.37
		l0.11-3.229l3.17-1.4l2.17,2.47l2.91-0.18l2.68,1.92l-3.89,1.71l-2.9,6.021l-1.73,14.659l-1.75,6.061l-1.79,0.95l0.43,2.5
		l-5.4,0.52l-1.54,2.05l0.53,11.75l2.15,6.48l-0.94,2.31l-1.77-1.029l3.58,3.569l5.24-0.34l0.9,1.601l5.57-1.94l3.26-4l0.49,2.06
		l2.98,0.28l1.34,1.99l1.34-7.16l8.92,1.38l12.35-2.71l0,0l0.71,4.64l-1.03,2l1.44,5.53l-3.38,7.37l0,0l-1.24,11.79l0.5,15.83l0,0
		l-8.25-0.22l-3.04,5.63l-1.75-0.71l-0.61,1.29l-1.72-3.28l-4.02,1.88l-3.09-1.87l-2.53,0.46l-2.1,1.891l-3.9,0.649l-2.72,2.49
		l0.3,1.51l-3.65,2.49l-7.44-4.21l-5.16-5.24l-5.36,3.48l2.22,6.31l-1.24,6.23l-1.54,1.66l-5.47,0.59l-3.47-0.11l-5.91-3.49
		l-10.39-7.79l-1.52-3.46l0,0l-0.31-2.33l2.22-1.55l-0.43-6.22l-2.1-1.351l0.46-1.689l-2.65-3.14l-0.01-2.471l2.24-4.46l2.22-0.62
		l-1.06-3.96l1.47-2.46l-2.26-4.64l-3.16-2.32l-0.77-3.85l1.5-1.851l-1.03-7.29l-2.33-0.52l0.11-5.75l-3.85-7.17l-2.86-0.22
		l-1.43-1.88l0.62-6.471l0,0l0.18-2.22l4.93-0.25l8.22-4.37l2.17-3.93l2.87,0.24l1.94,2.31l4.62-2.59l0.03-2.84l3.24-1.19
		l-1.32-2.36l4.37-3.05l0.93-9.06l1.98-0.681l2.77,1.36l4.75-7.1L248.77,369.63z"/>
	<path id="LK-23" fill="#1E3250" stroke="#1E3250" stroke-width="0.5" d="M189.78,568.35l2.01-1.8l4.85,2.271l3.71,8.85l4.88,4.08
		l2.63,4.33l5-0.78l-0.05-3.03l2.38-1.109l2.67-5.97l-8.26-9.24l-1.95-4.98l-2.58,0.61l0.39-2.311l2.63-1.659l1.37,0.979l2.11-1.05
		l1.28,1.54l9.92-0.99l2.16-4.04l2.16-0.74l8.12,2.07l8.29-13.33l8.24-7.99l-0.84-7.76l-2.76-2.899l-0.17-4.53l10.08,9.66l0.11,4.29
		l1.56,1.22l8.25,1.66l5.85-0.87l0.9,2.78l2.74-3.67l9.78-0.29l0,0l-0.67,1.38l3.8,7.359l-0.12,3.011l-1.78-0.591l-0.4,3.08
		l2.99,1.79l-2.72,3.95l2.79,4.771l-7.23,7.979l-1.95,9.53l-4.24,2.75l-7.31-0.18l-5.41,4.51l-1.01,5.22l-2.86,2.17l-6.93-0.49
		l-1.03,1.07l0.24,1.2l6.47,1.74l0.36,4.42l2.46,0.67l-0.7,2.91l3.43,3.42l-1.2,2.3l-3.56,1.05l0.71,1.86l3.97,1.489l-0.58,1.841
		l-1.83,1.939l-3.4,0.23l0,0l-4.08,3.63l-2.99-0.88l-5.96,4.04l-2.68-1.03l-5.09,1.7l-9.11-1.41l-1.47,2.17l-3.71-0.43l-12.63-2.13
		l-5.72-2.36l-3.41,1.53l-5.34-2.13l-2.49-3.631l2.76-2.39l-2.05-1.51l0.78-3.19l0,0l3.12-3.18l-3.33-4.89l0.62-3.061l-13.1-5.38
		l0.93-8.5l1.6-1.95l-2.52-5.479l3.46-1.351l3.45-3.6L189.78,568.35z"/>
	<path id="LK-31" fill="#1E3250" stroke="#1E3250" stroke-width="0.5" d="M94.17,687.06l1.94,2.71l3.5-1.909l2.6,3.18l6.7,2.39
		l1.82,2.23l3.41-0.87l8.72,7.14l4.72-0.18l7.31,2.51l3.34-1l-0.04-2.62l1.73-1.55l4.23,0.55l12.37,10.521l0.74-3.12l-2.31-10.4
		l4.37-0.89l11.25-6.19l2.78,0.261l0,0l7.49,6.75l4.32-0.46l6.36,3.31l3.82-0.38l0.86,2.52l0,0l-3.46,0.49l-3.55,2.75l7.1,10.45
		l-4.15,3.88l-4.3-1.56l-9.91-9.19l-5.47,1.75l3.23,4.37l3.96,2.11l5.24,7.71l-0.79,1.26l1.21,1.58l-1.16,0.78l0.9,2.14l-2.67,2.38
		l-8.73-1.37l3.97,6.16l-3.07,0.85l1.67,2.931l-2.32,1.29l0.32,5.5l2.85,1.92l1.15,2.89l2.92,0.69l3.69,3.41l-5.65,4.949l-1.24,3.25
		l-3.1-0.34l0.46,4.17l4.14,0.33l2.25,2.74l-6.59,2.16l-1.76,4.97l0.61,3.7l0,0l-14.51-5.53l-9.96-1.35l-2.74-2.181l-1.46,0.841
		l-1.57-2.4l1.57-2.07l-0.78-0.95l-1.96,0.44l-1.07-1.22l-1.4,2.51l-18.19-15.21l-0.73-2.46l-4.59-3.86l-0.28-3.64l-7.45-8.89
		l-1.79-8.341l-3.41-5.14l0.4-7.11L94.17,687.06z"/>
	<path id="LK-32" fill="#1E3250" stroke="#1E3250" stroke-width="0.5" d="M196.2,701.56l7.75-1.359l0.02-2.79l3.18-1.6l1.07,1.34
		l12.88-1.36l-0.27,5.08l-2.21,2.29l0.93,2.78l10.11-1.591l0.41,2.82l-1.24,0.521l3.61,3.09l-1.03,3.189l0,0l-2.7,0.69l1.4,3.08
		l-2.19,3.29l1.92,1.92l-4.78,1.78l-6.1,10.689l0.65,2.221l5.16,3.729l4.65-0.72l-2.44,8.1l2.5,0.99l0.66,1.87l6.12-0.29l0.38,1.04
		l-3.19,2.7l2.72,5.31l-0.31,2.521l-6.17,2.189l-1.31,1.85l1.77,0.851l0.56,2.75l5.07-0.25l1.37,1.62l-2.35,1.989l0.29,3.61
		l2.94-0.51l4.27,2.899l0,0l-1.41,3.811l-5.26-0.78l-8.28,1.68l-1.96,2.24l-3.47-0.33l-0.73,2.8l-4.98,1.12L215.6,792l-1.57-0.33
		l-1.29-3.08l-4.2-1.34l-6.83,1.34l-14.16-1.29l-1.46-1.12l1.46-0.39l0.22-2.85l-3.19-1.96l-2.07,0.279l-1.96,3.351l-6.61-1.96l0,0
		l-0.6-3.7l1.76-4.97l6.59-2.171l-2.25-2.729l-4.14-0.33l-0.46-4.17l3.1,0.34l1.24-3.25l5.65-4.95l-3.69-3.399l-2.92-0.7l-1.15-2.89
		l-2.85-1.921l-0.32-5.5l2.31-1.29l-1.66-2.93l3.07-0.85l-3.98-6.17l8.74,1.38l2.67-2.38l-0.9-2.141l1.16-0.779l-1.22-1.58
		l0.8-1.271l-5.24-7.7l-3.96-2.109l-3.23-4.37l5.47-1.74l9.91,9.19l4.3,1.55l4.15-3.88l-7.1-10.45l3.55-2.75L196.2,701.56z"/>
	<path id="LK-33" fill="#1E3250" stroke="#1E3250" stroke-width="0.5" d="M420.48,658.99l6.029,7.39l2.61-0.55l6.95,6.27l3.58,0.11
		l0,0l0.109,2.25l-2.13,2.97l-6.16,4.311l-2.68,4.09l-6.89,3.52l0.779,2.24l-3.91,3.641l-8.289,5.09l1.51,0.34l-12.15,4.03
		l-2.18,4.75l-2.24,1.01l-0.45,2.63l-8.34,2.68l-6.33,7.73l-5.87,2.74l-1.4,2.119l-6.55,2.19l-3.14,4.97l-16.85,3.53l-3.02,3.41
		l-7.39,0.95l1.73-0.841l0.45-2.51l-0.67-1.51l-2.35,0.27l-0.67,0.061l-1.85,0.62l2.24,4.3L324.15,749l0.23,2.18l-23.01,3.19
		l-7.9,3.689l-6.32,0.33l-2.13,2.021l-13.33,3.52l-1.68,3.07l-8.73,0.12l-2.8,1.17l-0.84,3.08l-4.03,3.13l-6.44,1.45l0.17,1.899
		l-2.57,1.351l0.22,2.06l-2.68-1.399l0,0l-4.26-2.9l-2.95,0.51l-0.29-3.609l2.36-1.99l-1.38-1.62l-5.06,0.25l-0.56-2.75l-1.77-0.85
		l1.31-1.851l6.16-2.189l0.31-2.521l-2.72-5.31l3.19-2.7l-0.38-1.04l-6.11,0.3l-0.66-1.87l-2.51-0.989l2.44-8.101l-4.65,0.72
		l-5.16-3.729l-0.65-2.21l6.1-10.69l4.79-1.779l-1.93-1.91l2.2-3.29l-1.4-3.09l2.69-0.69l0,0l6.84-0.09l18.95,7.939l12.08-0.989
		l2.27,1.06l2.58,4.101l2.13-0.551l3.59,2.221l4.17-0.4l1.74,2.44l2.62-2.181l-2.31-6.41l-4.3-5.08l0,0l9.68-5.96l10.13-3.89
		l0.88-2.86l-3.04-2.069l0.16-3.74l1-1.66l4.79,0.95l2.51-3.13l-0.08-3.021l2.53,2.11l1.87-2.51l13.3,0.55l1.56,4.74l2.47,1
		l5.52-2.601l8.08,9.61l-0.66,1.66l2.87,1.64l5.59-0.95l3.1-4.63l17.9-4.33l3.37-1.59l1.89-3.27l1.5,1.67l7.84-2.721l6.53,2.37
		l1.55-2.239l-0.71-5.95l2-3.12l-1.39-1.771l0.57-4.59l8.44-4.8l1.79-3.26l2.84-0.12l3.68-3.64l3.2,0.76l1.54-2.04l2.21-0.08
		L420.48,658.99z"/>
	<path id="LK-41" fill="#1E3250" stroke="#1E3250" stroke-width="0.5" d="M216.33,72.61l4.93,4.06l-5.32-1.13L216.33,72.61z
		 M28.38,57.16l1.9,0.11l4.14,4.63l6.66,1.13l1.12,7.11l-1.34,2.82l-5.82-0.68L26.7,67.2l-0.84-8.06L28.38,57.16z M50.22,43.4
		l0.56,7.78l-2.35-2.26l0.06-3.95L50.22,43.4z M67.13,40.69l1.9,2.03l-0.56,1.86l-1.74-1.52L67.13,40.69z M52.57,30.08l0.73,4.51
		l-2.57,2.6l0.34,1.86l-2.52-2.82L52.57,30.08z M68.02,26.75l2.46,2.09l2.63-1.3l1.4,0.96l2.13,4.91l4.09-0.96l-1.4-0.96l4.31,0.34
		v2.82l-2.41,1.02l5.15,3.67l4.37,2.14l2.8-1.13l-0.33-1.24l3.14,1.13l1.45,1.64l-1.17,4.91l-2.91,1.69l-2.69-0.56l-1.85-2.2
		l2.63,1.13l0.95-3.27l-1.46,1.86l-2.63-0.34l-5.15-3.33l-3.58-0.56l-2.3,3.44l-3.08-1.35l-5.88,3.27l-0.84,7.73l-10.97-1.35
		L58.5,42.4l1.79,0.28l0.84,2.26l-1.01,2.54l2.13,1.75l0.9-1.07l2.91,0.62l-2.02-2.82l-3.14,0.65l0.56-1.44l1.63,0.51L65,43.9
		l3.58,2.54l6.16-3.39l-4.14-2.14l-1.57-3.16l2.74-2.09v-1.52l-2.91-1.3l1.4,1.86l-1.9,1.52l-3.3-4.57l1.01-2.2l-1.96-2.43
		L68.02,26.75z M58.95,24.44l-0.56,6.26l-0.9-2.43L58.95,24.44z M139.57,0l7.61,2.09l6.38,12.25l15.79,20.54l29.62,23.58
		l16.68,15.34l-2.35-0.11l-8.17-5.58l-5.77-3.61l-7.17-1.07l-4.22-3.05l0,0l0.16-3.85l-1.72-3.62l-9.3-7.24l-13.82-7.83l-7.32-8.43
		l-8.11,15.58l0,0l-17.98-8.35l-2.18,1.98l1.34,1.24l1.06-1.41l0.9,0.79l0.11,4.01l5.04,1.02l0.28,1.3l-2.63,1.41l-3.08-0.62
		l2.8,1.97l0.17,0.78l4.65,1.75l-1.61,0.73l-5.89-3.16l-5.54-5.25l-13.32-7.35l0.44,3.52l3.53,1.41l4.59,4.63l-4.26-1.02l-9.52-6.32
		l-6.5-0.23l-2.8-2.54l-1.96,2.99l2.13,1.92L95.5,39.8l-0.73-1.13l2.63-3.55L96,30.21l-1.73-0.96l-2.02,1.41l-2.86-3.78l-1.9,2.82
		l-2.74-0.23L80.16,18.8l-4.59,0.96l-0.06,2.26L74,21.85l0.84,2.99l-2.52,1.69l-6.05-1.64l2.24-3.05l-1.46-4.29l1.74-2.6l7.39-1.07
		l-0.9,5.25l4.7-0.51l-2.91-3.56l1.23-2.77l3.69-0.45l3.36-3.44l8.23-3.39l9.97-1.47l13.38,1.92l5.32-2.37l1.18,0.62l1.12-1.58
		l9.85-0.45L139.57,0z"/>
	<path id="LK-42" fill="#1E3250" stroke="#1E3250" stroke-width="0.5" d="M93.33,107.11l1.4,4l2.69,0.45l-1.23,3.21l-1.96-2.87
		l-2.24,1.01l-1.4-0.96l-0.22-2.14L93.33,107.11z M98.93,71.32l1.06,1.63l-1.34,2.2l-1.4-3.1L98.93,71.32z M147.86,44.98l8.11-15.58
		l7.32,8.43l13.82,7.83l9.3,7.24l1.72,3.62l-0.16,3.85l0,0l-0.87-1.3l-1.46,2.82l-2.07-0.34l1.85,3.33l-8.12-4.12l1.57,2.59
		l-0.61,2.2l2.63,1.69l0.11-1.75l4.53,2.82l5.15-0.56l2.63,2.76l0.62,0.73l2.3,1.35l3.36,0.23l1.01-0.34l2.74-0.73l5.37,1.92
		l0.28,2.14l-2.57,1.18l1.9,1.64l4.7,0.73l0.06-1.58l2.35-1.35l4.81,1.02l0,0l-0.32,1.87l0,0l0.25,0.39l0,0l-0.94,3.6l-4.66,3.53
		l-0.04,9.24l-5.71-3.16l-5.31-5.44l-0.46,5.51l-2.6,6.58l-21.87,1.22l-0.27,6.39l-2.32,1.42l-14.85-1.51l-8.46,2.17l-3.06-1.04
		l-4.74,1.11l-5.46,4.2l0.92,8.66l-5.32-0.65l0,0l-8.62,5.31l-6.43,0.33l0,0l0.73-10.62l-2.18-2.99l2.41-4.9l-6.27-5.24l-4.09,0.23
		l-1.51-1.18l-1.85-12.01l18.92-9.58l7.17-7.33l0.61-2.48l-7.84-10.04l-8.68-6.94l-10.53-5.98l1.96-2.43l0.23,1.97l8.51,2.82
		l1.79,2.59l2.46-0.62l3.47,4.23l6.89,2.99l3.58-0.79l0.73,0.73l2.69,2.93l1.85-0.9l-0.17-1.41l5.82,4.91l2.63,0.17l3.58,4.85
		l-3.69-1.8l-1.51,2.03l4.65,3.27l-5.15-0.4l-0.33,1.3l6.21,2.88l7.39-2.31l2.58,2.2l1.29-2.93l3.08,0.85l5.15-3.04h3.02l-0.11-6.77
		l2.32-0.36l0.05-1.56l-2.43-0.51l-2.69-1.24l1.63,2.65l-0.85,0.4l-6.44-7.78l-4.09-1.75l-1.57-0.68L156.7,50L147.86,44.98z"/>
	<path id="LK-43" fill="#1E3250" stroke="#1E3250" stroke-width="0.5" d="M80.73,207.98l-1.34-0.5l0.95-6.25l2.97-6.08l-0.45-1.01
		l-0.95,2.14l-0.28-6.25l-4.99-7.6l1.58,1.18l0.72-2.08h-2.29l0.56-1.3l-2.74-1.29l0.56-1.69l-1.9-0.45l-4.81-6.36l-8.9-7.21
		l-14.17-7.49l-9.91-2.14l0.06-1.92l-1.34-0.39l2.29-2.25l7.45-1.18l9.01,1.35l15.34,5.41l13.66,12.9l-2.01,0.17l-9.07-4.79
		l3.69,5.74l7.33,4.73l-0.17,1.18l-4.87-0.34l0.5,1.3l-1.85,0.56l0.11,1.58l2.41,0.28l-0.67,2.2l2.91-2.65l0.84,2.87l3.7,0.34
		l5.15-4.79l3.81-1.24l0.95-4.05l4.53-3.32l5.43-0.9l5.66-9.97l1.85-6.7l-0.34-5.69l5.15-7.44l0.95-7.27l2.18-2.12l0,0l6.43-0.33
		l8.62-5.31l0,0l0.75,12.42l4.36,6.67l1.75,6.08l-1.95,3.23l0.79,8.6l-5.07,1.82l-3.77,9.98l2.8,3.49l-2.61,1.64l-0.42,4.26
		l33.27-1.78l0,0l5.8,2.38l2.46,2.53l4.32,15.78l-6.28,3.44l-10.84,1.89l-4.05,2.1l-13.66-1.55l-6.38,12.8l-4.07-2l-1.4,5.22
		l4.7,3.1l8.3,10.75l0,0l-24.51,6.27l-6.79-0.85l-7.19-3.97l2.19,7.34l-1,23.29l-3.6-1.05l0,0l-6.35-3.77l-2.08,0.46l-2.59-2.09
		l-8.18-0.71l-2.6-1.64l0,0L80,252.94l5.04-6.58l-0.17-6.53l1.9-5.01l-0.56-6.19l2.07-3.49l-5.6-12.1l-2.85-3.1L80.73,207.98z"/>
	<path id="LK-44" fill="#1E3250" stroke="#1E3250" stroke-width="0.5" d="M164.92,177.97l10.23-6.5l8.65-7.88l-1.52-12.34
		l-4.42,0.02l-0.07-4.94l17.59-0.5l3.82,4.86l0.55,3.46l3.44,0.1l6.03-6.35l5.04-0.7l-0.64-3.07l4.37-0.07l8.68,1.89l1.13,7.87
		l3.22,0.7l2.86-1.7l1.88,1.76l-2.9,8.67l8.15-4.02l13.99,8.39l-4.29,14.85l0,0l-2.56,6.43l0,0l-8.3,1.34l-8.93,5.5l-14.55,0.35
		l-0.61,4.42l7,2.19l4.88,6.83l0.02,2.62l-3.52,2.13l-3.11,5.53l-3.48,1.67l-2.4,4.51l-3.16,1.09l-0.74,3.31l-10.13,8.43l-2.61,0.07
		l-11.17-6.9l-5.47,3.75l-4.99,8.08l-3.71,2.49l-0.21,7.7l-5.68,2.22l-2.86,5.42l-9.9-2.94l-2.83-10.21l-4.94-1.05l-2.57-2.6
		l-0.36-10.41l0,0l-8.3-10.75l-4.7-3.11l1.4-5.22l4.07,2l6.38-12.8l13.65,1.54l4.05-2.09l10.84-1.9l6.28-3.44l-4.31-15.78
		l-2.46-2.53L164.92,177.97z"/>
	<path id="LK-45" fill="#1E3250" stroke="#1E3250" stroke-width="0.5" d="M222.09,76.79l8.96,7.44l-1.06,2.88l4.14,4.4l4.93,1.8
		l-7.33-8.17l28.83,25.93l13.77,32.4l-1.34,0.45l-1.12-2.99l-2.63-0.39l1.4,0.62l-0.28,2.14l1.79,2.31l-1.46,0.11l-0.45,2.03
		l2.91,1.3l-0.73-1.63l2.24-3.21l16.01,27.43l-2.69,0.51l-4.93-7.04l-6.77-5.52l-0.34,2.31l-2.74,1.07l-0.22,1.75l5.99,5.01
		l2.8-2.37l0.78,1.75l-1.79,2.59l2.52-0.15l0,0l-7.85,2.17l-4.14,4.13l-7.04-0.35l-11.74,2.93l-1.8,2.06l0,0l4.28-14.85l-13.98-8.39
		l-8.15,4.02l2.9-8.67l-1.88-1.76l-2.86,1.7l-3.22-0.7l-1.13-7.87l-8.69-1.89l-4.37,0.06l0.63,3.08l-5.04,0.7l-6.03,6.35l-3.44-0.1
		l-0.55-3.46l-3.82-4.86l-17.58,0.5l0.06,4.95l4.42-0.03l1.53,12.34l-8.65,7.89l-10.23,6.5l0,0l-33.27,1.78l0.42-4.26l2.61-1.64
		l-2.8-3.49l3.77-9.98l5.07-1.82l-0.79-8.6l1.95-3.23l-1.75-6.08l-4.36-6.67l-0.75-12.42l0,0l5.32,0.65l-0.92-8.66l5.46-4.2
		l4.74-1.11l3.06,1.04l8.46-2.17l14.85,1.51l2.32-1.42l0.27-6.39l21.87-1.22l2.6-6.58l0.46-5.51l5.31,5.44l5.71,3.16l0.04-9.24
		l4.66-3.53l0.94-3.6l0,0l-0.25-0.39l0,0l0.32-1.87l0,0L222.09,76.79z"/>
	<path id="LK-51" fill="#1E3250" stroke="#1E3250" stroke-width="0.5" d="M438.81,432l1.57,0.79l0.5,2.53l-2.97,3.25l-1.01-3.7
		L438.81,432z M450.4,440.25l5.43,10.94l4.93,18.96l0.28,3.199l-2.01,0.9l-0.341,3.93l-4.93-3.09l1.01-1.74l1.79,2.131l0.171-2.641
		l-3.69-0.39l2.69-3.09l-2.24-7.521l1.68-5.609l-2.97-1.851l-3.641-9.71l-2.739,0.561l-2.58-3.7l1.18-2.24l-3.81-8.82l0.62-3.819
		L450.4,440.25z M360.4,321.03l3.65-2.38l4.94-0.75l1.35,2.739l5.23,0.11l1.23-1.58l0.34,2.25l1.4,0.33l0.8-2.83l0,0l3.86,14.09
		l2.13,3.15l0.58,15.229l-1.86,0.561l-3.47-6.91l-2.69-12.25l-0.95,1.01l-1.29-0.899l-0.95,2.42l1.23,0.449l-1.4,2.421l1.17,5.17
		l3.81,1.85l0.73,5.34l5.77,3.88l0.67-5.39l1.29,0.34l-1.46-4.89l4.09,5.39l-0.62,3.311l2.07,7.47l4.37,8.43l7.891,6.23l3.3-1.681
		l0.279-0.56l1.57,1.18l-2.91,5.05l2.181,4.66l-2.631,1.91l-3.25-0.06l-1.51,2.42l0.42,2.46l-0.93,1.359l2.33,7.061l-0.94,0.08
		l-0.05,1.569l2.57,0.11l3.47,6.061l-7-0.62l-1.06,5.22l4.76-1.91l-0.391-1.07l3.641,2.08l0.78-4.489l-1.96-2.08l0.619-1.24
		l-3.859-3.311l-2.04-7.619l0.92-0.92l-0.67-3.2l4.979-0.96l3.301-3.141l1.01,3.09l4.2,1.4l-2.801,0.45l-1.18,3.479l1.01,6.4
		l2.74,5.5l3.75,3.71l2.46,0.5l1.51-1.35l4.091,8.31l8.729,5.89l4.54,6.45l-1.34,2.471l-4.54-3.091l1.12,1.96l-0.73,1.91l1.74,1.63
		l-0.729,1.96l-2.24,0.061l-1.79-6.17l0.62-2.19l-3.021-2.92l-2.58,0.17l-7.56-5l-1.34,0.62v2.021l-2.13,0.729l-1.23,6.061
		l6.16,2.579l2.18-4.489l2.91,2.41l4.7,0.279l-2.351,2.58l4.091,3.59l0.109,2.471l3.75-0.171l2.3,4.601l-1.739,0.84l-0.391,2.53
		l1.34,0.17l-0.67,2.08l2.181,3.649l-0.45-4.21l1.18-2.02l1.4,1.35l2.13-2.75l1.62,4.601l2.02,0.22l3.08,5.27l-1.229,1.57l4.37,2.13
		l-2.07,2.86l-3.19,0.45l2.24,2.239l1.96-1.63l0.84,4.771h-2.8l-2.07-2.19l-1.229,0.79l1.01,3.03l4.42-1.07l1.18,2.36l1.96,0.39
		l-2.579,1.74l-0.391,2.08l-3.97-1.351l4.42,4.99l-1.9,0.91l-1.79,4.25l0,0l-5.319,0.56l-12.29,11.381l-0.61-14.891l-2.53-6.06
		l0.32-4.57l-6.14,3.43l-20.63-0.199l-4.54-1.23l0.979-1.29l-9.5-4.27l-3.74-5.49l2.83-10.04l-0.39-4.51l-12.54-2.971l-3.14-2.13
		l-7.89-10.55l-0.88-3.05l-12.32-0.25l-1.77,1l-2.66-1.67l0,0l-2.88-8.45l-0.42-8.59l1.57-4.05l-0.99-4.761l1.85-4.37l-0.03-6.289
		l3.26-3.351l4.37-0.1l2.93-1.98l3.76,1.851h6.46l0.01-3.96l-6.79-14.641L360.4,321.03z"/>
	<path id="LK-52" fill="#1E3250" stroke="#1E3250" stroke-width="0.5" d="M346.54,424.85l2.66,1.67l1.77-1l12.32,0.25l0.88,3.051
		l7.89,10.55l3.14,2.13l12.54,2.97l0.39,4.511l-2.83,10.039l3.74,5.49l9.5,4.271l-0.979,1.29l4.539,1.229l20.631,0.2l6.14-3.43
		l-0.32,4.569l2.53,6.061l0.61,14.89l12.29-11.38l5.319-0.56l0,0l4.42,0.67l0.95-4.71l1.17,2.13l-0.109,6.67l3.08,2.689l-1.461-3.25
		l0.341-0.56l0.84-3.7l2.91,1.07l-1.011-3.76l1.061-1.011l10.189,27.091l1.19,11.05l-0.8,8.92l-0.95-0.84l0.5,12.33l-2.24-0.17
		l-0.34,1.79l-3.75,2.3l-0.89-1.57l-0.78,3.81l1.12-0.899l2.02,4.819l-1.619,1.351l2.689,2.13l0.67-2.19l-1.57-1.63l2.24-1.91
		l1.4,1.181l-0.45-5.101l1.57-3.479l-0.9,16.65l4.26,15.97l-7.17,23.64l1.061,1.57l-0.5,5.27l-3.08,3.471l1.85,3.92l-2.35,0.95
		l-1.12,3.02l-0.9,5.77l1.46,4.65l-4.87,6.38l-0.39,5.21l-5.49,7.17l0.73,5.771l-3.19,6.21l0.61,2.24l-3.53,2.859l-4.59,10.08
		l-3.92,4.521l0,0l-3.58-0.11l-6.939-6.27l-2.61,0.55l-6.03-7.38l0,0l4.16-67.37l1.689-9.49l-3.909-3.84l0.64-3.9l-2.77-5.55
		l2.43-4.7l-1.021-3.89l-18.75-5.85l-1.97-4.11l0.42-3.72l-2.63-2.551l4.45-9.83l6.18-4.029l-3.85-4.53l-2.2-0.58l0.91-2.15
		l-1.76-7.409l-8.021-6.95l2.38-2.65l-3.71-11.14l0.95-5.79l-3.04-1.76l3.39-4.91l-4.53-0.75l-9.84,5.109l-0.37,3.33l-3.4,1.771
		l-2.79-0.51l-0.26,2.579l2.56,5.4l-4.28,2.7l0.38,2.83l-4.54,1.59l-4.8-0.39l0.47,15.029l-7.56,4.54l-3.02-7.33l0,0l0.21-2.91
		l-5.24-7l0.11-1.88l-1.79-1.319l-3.46,1.8l-5.31-9.03l1.46-3.77l-3.7-9.67l3.34-5.521l-0.06-5.94l1.58-3.109l-0.28-7.891
		l-1.34-1.81l-2.18-1.97l-4.9,0.859l-10.16,5.051l-7.43,6.619l-2.31-0.619l-1.86,1.83l-2.79,0.149l-2.47-6.58l-2.82-3.04l-0.45-8.67
		l-5.59-3.09l-1.54-2.78l0,0l3.38-7.37l-1.44-5.529l1.03-2l-0.71-4.641l0,0l12.12,0.58l3.92-2.41l5.16,1.13l4.69,7.12l16.18,5.82
		l3.24,2.87l1.75-5.08l3.37-1.55l0.01-6.8l-1.15-1.721L346.54,424.85z"/>
	<path id="LK-53" fill="#1E3250" stroke="#1E3250" stroke-width="0.5" d="M283.28,171.52l-2.41,2.35l3.02,1.58l-0.78,1.58
		l-4.25-0.84l0.17,3.83l1.18-0.62l0.56,3.27l1.57-0.45l1.29-0.17l3.02,2.14l0.78-2.03l-1.58-0.86l4.9-1.57l-1.86-3.77l2.41-3.27
		l6.05,8.95l2.86,1.75l0.51,3.96l-1.86,1.67l2.58,0.06v-2.87l3.19,6.31l7.67,7.49l0.89-1.29l-1.29-0.68l2.24-1.69l-0.5,1.35
		l1.68,0.11l1.12,5.35l4.81,8.89l1.29-0.229l3.19,4.28l1.96,0.45l5.43,7.09l5.99,11.59l4.25,4.67l0.28,5.06l-1.46,4.05l3.13,6.19
		l2.13-1.01l-1.62,2.64l1.85,1.97l0.11,2.87l-4.14,2.14l1.06-2.43l-2.07,0.35l2.52-3.21l-1.23-2.31l-4.09,1.57l2.74-3.49l-3.7,2.87
		l-0.84-1.97l-1.4,4.79l2.69-0.39l-2.13,2.19l1.62,0.51l-0.28,2.7l1.62,0.62l0.67,3.49l-4.08,0.34l-1.51-1.18l-0.17-4.61l-1.34,2.08
		l-4.87-3.88l-3.97,6.64l-2.41,0.67l0.5,2.25l2.69,1.86l2.46-3.65l4.03-1.46l4.2,1.63l2.29,9.11l0.34-1.63l3.69,1.69l11.31-0.84
		l1.96-3.94l-1.46-4.67l4.2-0.34l4.14-3.21l6.44,6.02l5.09,22.83l2.8,4.78l-2.91-0.34l-1.85-3.88l0.45,3.09l0.79,2.64l2.46-1.29
		l-0.05,5.62l3.3,13.51l0,0l-0.8,2.83l-1.4-0.33l-0.34-2.25l-1.23,1.58l-5.23-0.11l-1.35-2.74l-4.94,0.75l-3.65,2.38l0,0l-4.41-1.7
		l-4.5,4.051l0.66,1.26l-3.77,1.75l0.22,3.27l-2.79,3.181l1.06,3.08l-1.68,1.01l-0.61,3.81l-7.76,0.82l4.12-5.72l-1.8-0.9
		l0.34-6.399l-1.36-3.19l-2.52,0.81l-4.18-1.47l-5.41-5.3l-6.79,0.979l-5.64-3.149l-8.34-1.48l-9.56,1.17l-1.75-7.97l-5.66-2.109
		l-2.26-3.98l-1.96-0.54l-1.38,1.68l0,0l0.62-7.4l5.34-13.3l3.8-4.24l-0.19-1.72l3.88-1.26l0,0l-0.94-2l-1.88-0.1l0,0l-2.75-0.1
		l0.01-2.63l-3.24-1.79l-0.66-8.98l-5.42-6.68l-0.25-4.11l-4.42-3.4l-0.1-4.89l4.03-7.07l-4.43-8.42l-0.18-4.23l-2.36-1.88l0.15-3.2
		l0.72-4.06l5.6-7.09l0.34-2.69l-8.29-9.17l-3.62-0.99l-8.3-5.72l-5.54-1.08l-6.4,3.13l0,0l2.56-6.43l0,0l1.8-2.06l11.74-2.93
		l7.04,0.35l4.14-4.13L283.28,171.52z"/>
	<path id="LK-61" fill="#1E3250" stroke="#1E3250" stroke-width="0.5" d="M117.04,332.44l4.57,3.47l11.55,3.479l1.21,2.32l3.36-0.45
		l1.33,1.95l7.44,1.55l3.44,4.05l8.71-0.43l12.52,12.12l4.48,1.76l2.46-1.5l2.75,2.24l-0.76,7.69l2.39,8.909l-1.87,2.32l2.46,0.54
		l3.68-1.49l2.4,1.82l0.52,6.17l3.32,7.38l-2.28,6.08l1.92,1.41l0.99,4.17l3.33,1.51l0,0l-0.62,6.471l1.43,1.88l2.86,0.22l3.85,7.17
		l-0.11,5.75l2.33,0.52l1.03,7.29l-1.5,1.851l0.77,3.85l3.16,2.32l2.26,4.64l-1.47,2.46l1.06,3.96l-2.22,0.62l-2.24,4.46l0.01,2.471
		l2.65,3.14l-0.46,1.689l2.1,1.351l0.43,6.22l-2.22,1.55l0.31,2.33l0,0l-2.15,1.4l-2.36-0.42l2.69,6.8l-8.04,1.05l0.3,4.62
		l-2.23,0.68l-5.13-4.239l-3.86-0.721l2.01,3.48l-4.2,6.53l1.64,2.06l-2.6-1.27l-4.99,0.29l0,0l-2.14-5.16l-3.9-2.74l-9.14,1.96
		l1.69,5.28l-2.16,2.22l0.93,1.99l-1.75,3.77l-3-1.24l-2.03,1.7l-9.95,1.67l-10.57,7.45l-2.25,3.33l-1.78-0.03l0,0l-2.09-0.52
		l-3.03-4.68l-4.54-3.301l0.51-2.46l-4.82-3.859l-13.19,9.409l-2.86-3.18l-3.19-0.39l-0.68-2.94l-2.45,0.58l-1.64-1.18l-5.94,5.6
		l-5.06,0.471l0.74,1.819l-2.61,1.141l0,0l-0.72-14.601l-6.84-33.29l0.31-21.89l2.94-2.88l0.5-2.46l2.2-0.42l-2.2-1.881l1.6-1.31
		l0.06-2.39l3.38-1.13l2.59,1.439l0.82-2.33l-4.81-1.67l2.92-1.5l0.23-3.55l3.76-0.521l5.19-4.489l-1.44-3.271l1.66-3.34l-1.3-3.84
		l0.53-2.94l3.13-1.01l-1.49-2.82l6.43-3.22l0.77-4.46l4.75-1.17l-0.01-2.72l1.63-0.971l-0.37-4.64l4.5-1.46l0.96,1.39l1.79-2.89
		l0.02-3.75l2.57,0.21l2.21,2.51l3.48-1.75l-3.14-4.949l3.43-6.311l-1.3-1.57l1.99-12.35l-5.12-2.49l-2.61-3.859l-3.1-13.931
		L117.04,332.44z"/>
	<path id="LK-62" fill="#1E3250" stroke="#1E3250" stroke-width="0.5" d="M49.27,310.89l-2.48,2.511l0.91,2.859l-0.34,0.84l1.4,0.67
		l-1.06,2.301l-1.12,1.91l-3.36,0.34l2.46-8.54l1.73-2.87L49.27,310.89z M51.73,295.79l1.79,1.91l-5.49,11.41L51.73,295.79z
		 M81.12,257.71l2.6,1.64l8.18,0.71l2.59,2.09l2.08-0.46l6.35,3.77l0,0l2.15,5.96l-2.46,6.9l-3.02,4.62l-5.49,3.76l0.48,1.41
		l-2.6,3.23l-4.55,0.93l-0.74,5.28l4.36,5.8l1.55,12.13l2.89,5.189l0.74,5.43l5.4,0.41l2.18-2.02l4.89,3.27l3.45-0.54l4.89,5.23l0,0
		l-0.59,5.78l3.1,13.93l2.61,3.859l5.12,2.49l-1.99,12.34l1.3,1.57l-3.42,6.31l3.13,4.95l-3.48,1.75l-2.21-2.51l-2.57-0.21
		l-0.02,3.75l-1.79,2.89l-0.96-1.39l-4.5,1.47l0.37,4.641l-1.63,0.96l0.01,2.72l-4.75,1.17l-0.77,4.46l-6.43,3.22l1.49,2.82
		l-3.13,1.01l-0.54,2.931l1.3,3.85l-1.66,3.33l1.44,3.28l-5.19,4.489l-3.76,0.521l-0.23,3.55l-2.92,1.5l4.81,1.67l-0.81,2.32
		l-2.6-1.44l-3.38,1.13l-0.06,2.391l-1.6,1.31l2.2,1.88l-2.21,0.41l-0.5,2.47l-2.94,2.881l-0.31,21.89l6.84,33.29l0.72,14.6l0,0
		L81.41,517l-3.81,3.17l0.51-2.67L74,518.76l-2.55-1.859l-2.88,2.659l-1.46-1.399l-2.17,0.7l0,0l-11.14-54.2l-0.56-12.851
		l3.42-1.569l-1.01-17.561L44.57,383.78l-7.39-23.141l-0.34-22.359l-2.34-8.66l9.23-3.98l5.88-6.52l1.91,0.33l-2.47,3.89l0.84,4.83
		l-2.57-1.46l-3.75,4.61l2.3,3.649L43.61,343l-2.07,1.46l-0.22,2.75l1.97,3.03l-1.02,4.779l1.57,2.811l3.25,1.52l-2.74,1.91
		l0.67,3.931l-1.79,3.76l1.96,4.319l4.76,2.19l9.07,1.29l3.42-1.18l0.39-7.641l-8.9-11.21l2.13,0.54l-2.01-2.75l2.57,0.391
		l2.46-2.75l1.06-4.891l2.91-1.399l-0.17-4.271l-2.97-2.359l-0.62-3.931l1.68,0.11l-0.84-4.55l-4.2-3.65l2.18-0.56l-4.2-1.74
		l4.31-0.9l1.68-7.02l2.97-4.72l1.34,0.51l-1.68-6.13l2.91-5.561l-0.67-14.67l0.84-3.2l3.53-2.7l1.27-16.99l9.03-2.41L81.12,257.71z
		"/>
	<path id="LK-71" fill="#1E3250" stroke="#1E3250" stroke-width="0.5" d="M248.15,188.9l6.4-3.13l5.54,1.08l8.31,5.73l3.62,0.99
		l8.29,9.17l-0.34,2.7l-5.6,7.08l-0.72,4.06l-0.15,3.21l2.37,1.88l0.17,4.23l4.44,8.42l-4.04,7.07l0.11,4.9l4.41,3.39l0.26,4.12
		l5.41,6.68l0.66,8.98l3.25,1.78l-0.02,2.63l2.76,0.1l0,0l1.79,0.07l1.02,2.03l0,0l-3.88,1.26l0.2,1.72l-3.8,4.23l-5.34,13.3
		l-0.62,7.4l0,0l-2.58,2.12l-2.47,9.21l-19.1,0.5l-3.82,15.04l-5.25,10.83l-0.13,16.58l3.68,0.55l-5.5,8.851l1.29,1.97l0,0
		l-10.13,4.15l-4.75,7.1l-2.77-1.36l-1.98,0.681l-0.93,9.06l-4.37,3.05l1.32,2.36l-3.24,1.19l-0.03,2.84l-4.62,2.59l-1.94-2.31
		l-2.87-0.24l-2.17,3.93l-8.22,4.37l-4.93,0.25l-0.18,2.22l0,0l-3.33-1.51l-0.99-4.17l-1.92-1.41l2.28-6.08l-3.32-7.38l-0.52-6.17
		l-2.4-1.82l-3.68,1.49l-2.46-0.54l1.87-2.32l-2.39-8.909l0.76-7.69l-2.75-2.24l-2.46,1.5l-4.48-1.76l-12.52-12.12l-8.71,0.43
		l-3.44-4.05l-7.44-1.55l-1.33-1.95l-3.36,0.45l-1.21-2.32l-11.55-3.479l-4.57-3.47l0,0l-4.88-5.23l-3.46,0.55l-4.89-3.279
		l-2.18,2.029l-5.4-0.41l-0.74-5.43l-2.89-5.189l-1.55-12.13l-4.36-5.8l0.74-5.28l4.55-0.93l2.6-3.23l-0.48-1.4l5.49-3.76l3.02-4.62
		l2.46-6.89l-2.15-5.96l0,0l3.61,1.05l0.99-23.3l-2.19-7.34l7.19,3.97l6.8,0.85l24.5-6.27l0,0l0.36,10.41l2.57,2.6l4.94,1.05
		l2.83,10.21l9.9,2.94l2.86-5.42l5.68-2.22l0.21-7.7l3.71-2.49l4.99-8.08l5.47-3.75l11.17,6.9l2.61-0.07l10.13-8.43l0.74-3.31
		l3.16-1.09l2.4-4.51l3.48-1.67l3.11-5.53l3.52-2.13l-0.02-2.62l-4.88-6.83l-7-2.19l0.61-4.42l14.55-0.35l8.93-5.5L248.15,188.9z"/>
	<path id="LK-72" fill="#1E3250" stroke="#1E3250" stroke-width="0.5" d="M282.65,303.98l1.38-1.68l1.97,0.54l2.26,3.98l5.66,2.1
		l1.75,7.97l9.56-1.17l8.34,1.48l5.64,3.149l6.8-0.979l5.41,5.3l4.17,1.48l2.53-0.811l1.36,3.19l-0.34,6.399l1.8,0.9l-4.12,5.72
		l7.76-0.819l0.61-3.811l1.68-1l-1.06-3.08l2.78-3.18l-0.22-3.26l3.77-1.761l-0.66-1.26l4.5-4.05l4.42,1.7l0,0l-0.75,45.14
		l6.79,14.64l-0.01,3.96h-6.46l-3.76-1.85l-2.93,1.98l-4.37,0.1l-3.26,3.35l0.02,6.28l-1.84,4.37l0.98,4.76l-1.56,4.05l0.41,8.591
		l2.88,8.449l0,0l-1.51,3.48l1.14,1.72l-0.01,6.8l-3.37,1.551l-1.75,5.08l-3.23-2.87l-16.18-5.811l-4.69-7.13l-5.16-1.13l-3.93,2.42
		l-12.12-0.58l0,0l-12.35,2.71l-8.92-1.38l-1.34,7.16l-1.34-1.99l-2.98-0.28l-0.49-2.06l-3.26,4l-5.57,1.94l-0.9-1.601l-5.24,0.34
		l-3.58-3.569l1.77,1.029l0.94-2.31l-2.15-6.48l-0.53-11.75l1.54-2.05l5.4-0.52l-0.43-2.5l1.79-0.95l1.75-6.061l1.73-14.659
		l2.9-6.021l3.89-1.71l-2.68-1.92l-2.91,0.18l-2.17-2.47l-3.17,1.4l-0.11,3.229l-2.15-0.37l-1.91-1.17l0.22-5.37l-4.71-3.55l0,0
		l-1.29-1.97l5.5-8.851l-3.68-0.55l0.13-16.58l5.25-10.83l3.82-15.04l19.1-0.5l2.47-9.21L282.65,303.98z"/>
	<path id="LK-81" fill="#1E3250" stroke="#1E3250" stroke-width="0.5" d="M293.47,447.92l1.54,2.79l5.59,3.09l0.45,8.67l2.82,3.04
		l2.47,6.58l2.79-0.16l1.86-1.83l2.31,0.62l7.43-6.62l10.16-5.05l4.9-0.859l2.19,1.97l1.34,1.81l0.28,7.891l-1.59,3.109l0.06,5.94
		l-3.34,5.52l3.7,9.67l-1.46,3.771l5.3,9.03l3.46-1.801l1.79,1.32l-0.11,1.87l5.24,7.01l-0.21,2.9l0,0l-7.85,1.88l0.88,5.67
		l-5.84,7.66l-3.69,2.109l-0.68,3.75l-4.21-0.199l-2.48-4.29l-5.68,6.1l0.65,3.9l6.42,6.26l1.97,6.07l8.89-2.54l1.26,3.239
		l2.05-0.76l3.41,12.53l-2.89,6.79l0.5,4.62l-2.83,1.12l1.24,2.92l-3.98,1.189l-0.58,3.71l-3.4,0.03l-0.83-1.53l-1.23,4.91
		l-3.54,2.8l-9.39,3.641l-0.53,1.88l5.54,4.95l-8.23,2.18l0.46,3.11l-1.07,0.68l-5.6-0.94l-0.19,10.48l-2.68,4.58l3.93,0.319
		l2.81,1.9l-1.41,4.18l-2.67,1.511l-0.76,9.729l0.78,3.7l4.31,4.75l-1.98-0.31l-2.86,2.399l0.04,4.19l-4.36-2.45l-1.41,1.43
		l-1.75,2.08l-0.48,6.26l-5.46-6.64l0.74-8.05l-1.69-1.12l-2.39,0.71l-0.53-5.63l-1.51-1.91l-3.12-0.14l-0.31-3.37l-2.48-1.37
		l0.1-2.36l-2.43,0.57l0,0l-2.62-1.45l-1.45,3.28l-3.45,0.57l-2.01,2.399l-3.45-0.38l-1.26,1.63l-5.58-2.439l-0.84-4.021l-2.76-2.83
		l8.67-3.18l-0.92-2.16l1.53-2.29l-4.68-0.82l-1.55-3.26l-3.12,1.21l-0.4-7.31l0,0l3.4-0.23l1.83-1.939l0.58-1.841l-3.97-1.489
		l-0.71-1.86l3.56-1.05l1.2-2.3l-3.43-3.42l0.7-2.91l-2.46-0.67l-0.36-4.42l-6.47-1.74l-0.24-1.2l1.03-1.07l6.93,0.49l2.86-2.17
		l1.01-5.22l5.41-4.51l7.31,0.18l4.24-2.75l1.95-9.53l7.23-7.979l-2.79-4.771l2.72-3.95l-2.99-1.79l0.4-3.08l1.78,0.591l0.12-3.011
		l-3.8-7.359l0.67-1.38l0,0l5.23,0.83l2.08-3.301l5.02-0.779l1.68-3.42l-8.15-26.37l1.34-5.78l-2.67-4.16l1.16-2.76l-0.2-12.37l0,0
		l-0.5-15.83L293.47,447.92z"/>
	<path id="LK-82" fill="#1E3250" stroke="#1E3250" stroke-width="0.5" d="M352.44,518.2l3.02,7.34l7.56-4.55l-0.47-15.021l4.8,0.391
		l4.55-1.591l-0.38-2.829l4.28-2.7l-2.56-5.41l0.26-2.58l2.79,0.51l3.4-1.77l0.37-3.33l9.84-5.101l4.53,0.75l-3.39,4.91l3.04,1.761
		l-0.95,5.789l3.71,11.141l-2.38,2.64l8.03,6.95l1.76,7.41l-0.9,2.149l2.19,0.591l3.86,4.529l-6.19,4.03l-4.45,9.82l2.641,2.55
		l-0.42,3.72l1.97,4.11l18.75,5.859l1.03,3.891l-2.44,4.7l2.78,5.54l-0.641,3.899l3.91,3.84l-1.7,9.49l-4.159,67.36l0,0l-1.69,3.55
		l-2.21,0.08l-1.54,2.04l-3.2-0.76l-3.68,3.64l-2.84,0.12l-1.79,3.26l-8.44,4.8l-0.57,4.59l1.39,1.771l-2,3.12l0.71,5.95
		l-1.55,2.239l-6.53-2.37l-7.84,2.721l-1.5-1.67l-1.89,3.27l-3.37,1.59l-17.9,4.33l-3.1,4.63l-5.59,0.95l-2.87-1.64l0.66-1.66
		l-8.08-9.61l-5.52,2.601l-2.47-1l-1.56-4.74l-13.3-0.55l-1.87,2.51l-2.53-2.11l0.08,3.021l-2.51,3.13l-4.79-0.95l-1,1.66
		l-0.16,3.74l3.04,2.069l-0.88,2.86l-10.13,3.89l-9.68,5.96l0,0l-3.41-9.68l-7.58-2.64l-5.36-9.021l1.13-1.06l-1.3-4.021l0.97-1.409
		l-1.32-1.311l1.38-3.149l-3.06-6.851l7.2-12.01l-0.56-2.16l2.35-4.33l-0.58-2.2l1.42-0.22l-0.21-3.37l5.65-5.72l1.83-6.62
		l3.09-3.17l0,0l2.43-0.57l-0.1,2.36l2.48,1.37l0.31,3.37l3.12,0.14l1.51,1.91l0.53,5.63l2.39-0.71l1.69,1.12l-0.74,8.05l5.46,6.64
		l0.48-6.26l1.75-2.08l1.41-1.43l4.36,2.45l-0.04-4.19l2.86-2.399l1.98,0.31l-4.31-4.75l-0.78-3.7l0.76-9.729l2.67-1.511l1.41-4.18
		l-2.81-1.9l-3.93-0.319l2.68-4.58l0.19-10.48l5.6,0.94l1.07-0.68l-0.46-3.11l8.23-2.18l-5.54-4.95l0.53-1.88l9.39-3.641l3.54-2.8
		l1.23-4.91l0.83,1.53l3.4-0.03l0.58-3.71l3.98-1.189l-1.24-2.92l2.83-1.12l-0.5-4.62l2.89-6.79l-3.41-12.53l-2.05,0.76l-1.26-3.239
		l-8.89,2.54l-1.97-6.07l-6.42-6.26l-0.65-3.9l5.68-6.1l2.48,4.29l4.21,0.199l0.68-3.75l3.69-2.109l5.84-7.66l-0.88-5.67
		L352.44,518.2z"/>
	<path id="LK-91" fill="#1E3250" stroke="#1E3250" stroke-width="0.5" d="M138.73,590.69l2.79-2.71l1.86,5.649l1.58-0.89l1.96,1.2
		l3.63,5.489l2.69,0.851l0.56,2.95l5.22-1.391l5.99,6.5l3.4-3.95l6.34-0.06l2.26-1.96l4.83,4.01l1.61-1.66l3.95,3.021l8.94,0.27l0,0
		l-0.78,3.19l2.05,1.51l-2.76,2.39l2.49,3.631l5.34,2.13l3.41-1.53l5.72,2.36l12.63,2.13l3.71,0.43l1.47-2.17l9.11,1.41l5.09-1.7
		l2.68,1.03l5.96-4.04l2.99,0.88l4.08-3.63l0,0l0.4,7.31l3.12-1.21l1.55,3.26l4.68,0.82l-1.53,2.29l0.92,2.16l-8.67,3.18l2.76,2.83
		l0.84,4.021l5.58,2.439l1.26-1.63l3.45,0.38l2.01-2.399l3.45-0.57l1.45-3.28l2.62,1.45l0,0l-3.09,3.17l-1.83,6.62l-5.65,5.72
		l0.21,3.37l-1.42,0.22l0.58,2.2l-2.35,4.33l0.56,2.16l-7.2,12.01l3.06,6.851l-1.38,3.149l1.32,1.311l-0.97,1.409l1.3,4.021
		l-1.13,1.06l5.36,9.021l7.58,2.64l3.41,9.68l0,0l4.3,5.08l2.31,6.41l-2.62,2.181l-1.74-2.44l-4.17,0.4l-3.59-2.221l-2.13,0.551
		l-2.58-4.101l-2.27-1.06l-12.08,0.989l-18.95-7.939l-6.84,0.09l0,0l1.03-3.18l-3.61-3.09l1.23-0.521l-0.41-2.82l-10.11,1.591
		l-0.93-2.78l2.21-2.3l0.27-5.07l-12.88,1.36l-1.07-1.341l-3.18,1.601l-0.02,2.8l-7.75,1.35l0,0l-0.86-2.52l-3.82,0.38l-6.36-3.31
		l-4.32,0.46l-7.49-6.75l0,0L155.7,662.35l3.83-1.63l-2.1-5.149l-4.22-4.38l-5.45-1.86l-1.16-6.32l-6.84-6.77l-3.3-7.16l1.36-1.15
		l-5.24-16.25l0,0l4.63-0.779l-1.58-6.74l-3.57-1.68l2.76-8.12L138.73,590.69z"/>
	<path id="LK-92" fill="#1E3250" stroke="#1E3250" stroke-width="0.5" d="M135.4,522.18l1.78,0.03l2.25-3.33l10.57-7.45l9.95-1.67
		l2.03-1.7l3,1.24l1.75-3.77l-0.93-1.99l2.16-2.22l-1.69-5.28l9.14-1.96l3.9,2.74l2.14,5.16l0,0l1.85,6.239l4.78,2.7l5.32,5.69
		l-0.37,4.29l4.92,1.119l2.98,3.45l0.73,4.16l-1.84,2.46l7.03,7.82l-3.8,1.55l1.08,2.271l-4.9,0.289l-1.97,4.24l-9.02,1.19
		l-2.02,1.68l3.82,9.75l1.29,0.04l-2.05,3.62l0.5,3.81l0,0l0.79,2.271l-3.45,3.6l-3.46,1.351l2.52,5.479l-1.6,1.95l-0.93,8.5
		l13.1,5.38l-0.62,3.061l3.33,4.89l-3.12,3.18l0,0l-8.94-0.27l-3.95-3.021l-1.61,1.66l-4.83-4.01l-2.26,1.96l-6.34,0.06l-3.4,3.95
		l-5.99-6.5l-5.22,1.391l-0.56-2.95l-2.69-0.851l-3.63-5.489l-1.96-1.2l-1.58,0.89l-1.86-5.649l-2.79,2.71l0,0l-0.42-4.011
		l2.37,0.32l0.75-1.2l-1.02-6.26l-7.85-0.99l0,0l0.6-3.41l-3.68-12.89l8.91-14.29l-6.95-0.82l-2.41,2.04l-1.7-4.92l0.07-5.42
		l-1.73-2.55l2.34,0.95l1.08-1.92l4.37-0.221l-0.09-8.189l3.02-2.19L135.4,522.18z"/>
</g>
</svg>
