<?xml version="1.0" encoding="utf-8"?>
<!-- Generator: Adobe Illustrator 15.0.0, SVG Export Plug-In . SVG Version: 6.00 Build 0)  -->
<!DOCTYPE svg PUBLIC "-//W3C//DTD SVG 1.1//EN" "http://www.w3.org/Graphics/SVG/1.1/DTD/svg11.dtd">
<svg version="1.1" id="Layer_1" xmlns:amcharts="http://amcharts.com/ammap"
	 xmlns="http://www.w3.org/2000/svg" xmlns:xlink="http://www.w3.org/1999/xlink" x="0px" y="0px" width="577.326px"
	 height="1049.387px" viewBox="0 0 577.326 1049.387" enable-background="new 0 0 577.326 1049.387" xml:space="preserve">
<defs>
	
	
		<amcharts:ammap  projection="mercator" bottomLatitude="5.614881" leftLongitude="97.344960" topLatitude="20.463430" rightLongitude="105.634692">
		</amcharts:ammap>
</defs>
<g>
	<path id="TH-10" fill="#1E3250" stroke="#1E3250" stroke-width="0.5" d="M217.05,457.2l2.7,0.33l0.51-0.71l1.95,1.62l5.95,1.029
		l12.48-1.97l0,0l-0.52,5.83l-0.95,0.71l3.08,2.5l-1.91,1.66l-3.28,6.42l0,0l-4.89-1.32l-5.27-0.12l-0.77,4.28l-2.18-1.36
		l-1.31,1.65l-4.51-1.14l0.54-1.65l-2.15-0.97l-0.62,2.33l-1.99-0.07l0.21,4.69l-2.68-0.181l-0.75,0.99l-1.04-0.78l-0.68,3.38
		l0.54,3.67l0,0l-3.01,0.591l0,0l0.66-4.591l-1.56,0.211l-1.64-4.961l-2.07-0.8l-0.55-6.38l0,0l-0.81-6.12l0,0l0.72,1.261
		l9.49,1.029l2.05-0.77l1.01-0.87l-0.45-0.83l2.35-1.71L217.05,457.2z"/>
	<path id="TH-11" fill="#1E3250" stroke="#1E3250" stroke-width="0.5" d="M209.51,488.02l-0.54-3.67l0.68-3.38l1.04,0.78l0.75-0.99
		l2.68,0.181l-0.21-4.69l1.99,0.07l0.62-2.33l2.15,0.97l-0.54,1.65l4.51,1.14l1.31-1.65l2.18,1.36l0.77-4.28l5.27,0.12l4.89,1.32
		l0,0l6.34,2.32l-0.47,0.72l1.01,0.67l-2.63,3.41l-1.11,0.17l0.52,1.439l-0.69,1.091l-1.04-0.61l-1.19,5l-1.3-0.32l-0.24,1.09l0,0
		l-14.67-2.85l-3.59-2.68l0.93-3.42l-2.19-0.48l1.93,0.8l-1.07,2.66l0.68,2.851l-3.5,1.25L209.51,488.02z"/>
	<path id="TH-12" fill="#1E3250" stroke="#1E3250" stroke-width="0.5" d="M202.24,445.78l-0.84,4.149l2.08,4.32l6.77,1.43
		l2.51,2.391l2.7-1.311l1.59,0.44l0,0l-1.35,6.88l-2.35,1.71l0.45,0.83l-1.01,0.87l-2.05,0.77l-9.49-1.029l-0.72-1.261l0,0
		l-3.7-6.81l2.27-2.891l-2.19-3.17l0.97-8.029l0,0l1.44-1.011L202.24,445.78z"/>
	<path id="TH-13" fill="#1E3250" stroke="#1E3250" stroke-width="0.5" d="M234.59,436.89l4.53-2.12l0.13,2.091l3.94-2l0,0l-0.37,2.5
		l-2.14,1.159l-0.01,17.98l0,0l-0.03,1l0,0l-12.48,1.97l-5.95-1.029l-1.95-1.62l-0.51,0.71l-2.7-0.33l0,0l-1.59-0.44l-2.7,1.311
		l-2.51-2.391l-6.77-1.43l-2.08-4.32l0.84-4.149l0,0l8.99,0.27l2.61-1.16l2.16,1.091l3.64-1.53l1.03,0.37l0.29-1.011L234.59,436.89z
		"/>
	<path id="TH-14" fill="#1E3250" stroke="#1E3250" stroke-width="0.5" d="M213.4,407.12l0.31,0.88l2.33-0.73l0.3,0.771l3.32,0.42
		l0,0l-1.84,3.99l1.89,1.35l0.06,1.641l4.34,0.029l0.39-1.93l1.11-0.17l6.19,1.12l-0.23,2.5l-2.1,0.97l1.57,1.68l-0.81,5.511
		l2.52,1.609l-1.63,4.3l3.41,0.051l0.06,5.779l0,0l-13.63,6.92l-0.29,1.011l-1.03-0.37l-3.64,1.53l-2.16-1.091l-2.61,1.16
		l-8.99-0.27l0,0l-2.92-1.721l-1.44,1.011l0,0l0.28-3.08l-2.52-0.29l-0.29-2.46l0,0l0.04-5.181l1.66-2.819l-0.02-3.971l0.95-1.39
		l-0.56-1.81l-1.65-0.511l0.3-3.149l0,0l2.25-1.07l2.31,0.601l5.97-1.471l0.6,4.55l2.85,0.381l2.67-1.48l-0.16-4.5l-1.29-2.78
		L213.4,407.12z"/>
	<path id="TH-15" fill="#1E3250" stroke="#1E3250" stroke-width="0.5" d="M194.36,399.04l3.11-0.5l1.37,1.12l2.36-1.391l0.86,2.19
		l1.85,0.41l0.81,1.53l2.97-0.631l-0.68,1.65l3.61,0.811l0,0l2.78,2.89l0,0l-2.13,7.52l1.29,2.78l0.16,4.5l-2.67,1.48l-2.85-0.381
		l-0.6-4.55l-5.97,1.471l-2.31-0.601l-2.25,1.07l0,0l-3.12-2.83l-0.74-2.57l0.98-1.3l-1.02-2.05l2.4-2.97l-1.47-2.061l-0.2-4.149
		l0.19-2.351L194.36,399.04z"/>
	<path id="TH-16" fill="#1E3250" stroke="#1E3250" stroke-width="0.5" d="M271.43,344.33l1.03,6.61l-0.67,7.529l0.64,3.141l0,0
		l0.21,6.159l-2.15-0.67l0.65,4.131l1.88,2.819l1.2,7.42l0,0l-3.37-0.06l-0.91,3.58l-1.65,1.35l-3.12,0.2l-1.33,4.05l-1.63-1.93
		l-0.58,1.29l-2.16,0.069l-2.7,1.641l-4.01-0.59l-1.31,1.89l1.05,2.19l-1.61,0.479l1.56,0.66l-1.34,1.14l-0.41,2.07l-3.79-3.14
		l-2.72-0.17l-0.79,0.829l0.07,3.19l1.02,1.17l-1.81,1.09l-2.92-1.93l-1.96,0.45l-2.31-2.83l-3.24,0.689l-2.64-0.989l-1.78,3.46
		l-2.15,0.449l-2.43,2.5l-3.33-0.579l1.34,3.149l-1.6,1.62l0,0l-3.32-0.42l-0.3-0.771l-2.33,0.73l-0.31-0.88l0,0l-2.78-2.89l0,0
		l1.35-2.24l-1.07-0.98l-0.33-5.1l-2.18-2.44l-0.66-4.21l1.59-0.819l-0.12-3.37l1.57-2.49l-3.28-1.99l0,0l2.83-3.96l2.87-1.16
		l-0.12-1.8l2.29-2.86l3.54-2.17l0.17-2.069l-0.99-1.13l3.72-3.28l0.6-6.53l8.67-3.42l-0.12-2.15l-1.64-1.06l0.95-0.75l0,0l2.07-0.1
		l2.32,3.06l4.74,0.35l3.56,2.011l2.04,2.31l-0.11,1.82l3.12,3.33l3.14,0.1l1.49-1l2.92,1.79l4.7,0.43l6.78-4.729l-0.07-9.101
		l-1.03-1.05l1.46-2.729L271.43,344.33z"/>
	<path id="TH-17" fill="#1E3250" stroke="#1E3250" stroke-width="0.5" d="M202.14,376.85l5.35,3.74l0,0l3.28,1.99l-1.57,2.49
		l0.12,3.37l-1.59,0.819l0.66,4.21l2.18,2.44l0.33,5.1l1.07,0.98l-1.35,2.24l0,0l-3.61-0.811l0.68-1.65l-2.97,0.631l-0.81-1.53
		l-1.85-0.41l-0.86-2.19l-2.36,1.391l-1.37-1.12l-3.11,0.5l0,0l-1.57-1.34l1.37-5.05l-1.19-1.11l1.01-0.53l-2.15,0.08l-0.54-1.34
		l1.35-2.03l0,0l4.74,0.13l-0.8-2.609l0.56-1.36l-2.44-1.08l-0.08-1.87l4.21-0.989l0.16-1.19L202.14,376.85z"/>
	<path id="TH-18" fill="#1E3250" stroke="#1E3250" stroke-width="0.5" d="M185.92,355.54l2.39,1l0.23,1.21l4.03,1.45l2.45,2.84
		l1.69,2.46l2.36,7.4l3.31,2.43l0.48,1.96l-0.72,0.56l0,0l-3.15,1.9l-0.16,1.19l-4.21,0.989l0.08,1.87l2.44,1.08l-0.56,1.36
		l0.8,2.609l-4.74-0.13l0,0l-4.49,2.88l-1.53-2.319l-4.87-1.03l0.11,2.93l-5.24,1.07l-5.49-0.7l-1.99-1.89l-8.85-1.53l-0.41-1.01
		l0,0l0.91-1.71l3.28-1.65l-0.36-2.08l2.24-2.689l-3.92-4.84l0.79-0.75l-2.46-3.341l0.58-1.56l-0.72-2.25l4.5-2.79l4.24,0.48
		l2.22,1.659l4.96-1.239l5.62,0.659l1.08,1.44l2.9-4.32l-1.71-2.3l0.45-0.7l1.62,0.36l-1.2-1.92L185.92,355.54z"/>
	<path id="TH-19" fill="#1E3250" stroke="#1E3250" stroke-width="0.5" d="M219.66,408.46l1.6-1.62l-1.34-3.149l3.33,0.579l2.43-2.5
		l2.15-0.449l1.78-3.46l2.64,0.989l3.24-0.689l2.31,2.83l1.96-0.45l2.92,1.93l1.81-1.09l-1.02-1.17l-0.07-3.19l0.79-0.829l2.72,0.17
		l3.79,3.14l0.41-2.07l1.34-1.14l-1.56-0.66l1.61-0.479l-1.05-2.19l1.31-1.89l4.01,0.59l2.7-1.641l2.16-0.069l0.58-1.29l1.63,1.93
		l1.33-4.05l3.12-0.2l1.65-1.35l0.91-3.58l3.37,0.06l0,0l2.86,12.471l-7.89,5.439l-0.16,1.45l-1.81,0.46l-0.58,1.479l-1.11-0.539
		l-0.15,1.329l-3.3-0.489l-1.23-1.9l-1.65,0.82l1.76,11.18l-2.22,2.98l3.98,4.439l0,0l-1.1,0.601l0.21,2.76l-1.23,0.13l0.07,3.939
		L259,428.45l-0.52,1.26l-0.96,0.37l-0.89-1.91l-1.66-0.8l-2.69-0.08l-2.02-2.16l0.08,4.82l-4.72,3.92l-2.55-1.41l0.12,2.4l0,0
		l-3.94,2l-0.13-2.091l-4.53,2.12l0,0l-0.06-5.779l-3.41-0.051l1.63-4.3l-2.52-1.609l0.81-5.511l-1.57-1.68l2.1-0.97l0.23-2.5
		l-6.19-1.12l-1.11,0.17l-0.39,1.93l-4.34-0.029l-0.06-1.641l-1.89-1.35L219.66,408.46z"/>
	<path id="TH-20" fill="#1E3250" stroke="#1E3250" stroke-width="0.5" d="M244.93,490.19l2.06,0.489l4.2-3.68l-1.79-2.81l3.35,0.329
		l2.33-1.02l1.51-2.15l6.82,2.12l7.75,7.59l3.8,0.23l0.09,1.64l1.88,1.65l2.57-1.21l3.37,1.12l1.6,5.279l6.98,4.04l3.46,6.37l0,0
		l-1.46,1.96l0,0l-3.41-0.81l-2.71,1.88l-1.63-0.14l0.36,1.34l-1.07,2.37l-3.17,0.739l-4.11,2.801l-1.79-1.28l-1.04,0.89
		l-2.81,0.021l-3.76-3.21l-2.13,1.359l-0.02,0.98l-2.22-1.8l-1.31,0.92l-3.73-1.62l-0.77,2.02l1.84,0.82l-0.9,0.54l-5.85-0.53
		l-2.229,2.75l1.55,0.55l0.86,1.78l-0.96,3.86l-1.88,4.03l0.16,1.6l-3.36,3.25l0.1,1.89l-2.05,4.53l0.47,2.49l0,0l-1.64,0.8
		l-0.35,3.39l-2.52-0.729l-0.87-1.23l1.17-1.489l-0.75-0.86l-4.68,0.51l0.82-1.16l-1.44-0.59l0.98-1.229l-1.26-0.25l-0.18-2.49
		l1.59-2.17l2.66-0.28l1.13-2.569l-3.88-7.721l1.87-1.399l-0.05-2.141l2.44-1.14l0.53-2.33l-1.21-1.95l-1.2,0.48l-0.11-0.65
		l-0.22-1.68l-0.98-0.48l4.34-8.2l-0.79-4.409l-1.86-2.45l1.96-2.69l3.38-1.229l0.54-2.41l-1.14-2.851L244.93,490.19z"/>
	<path id="TH-21" fill="#1E3250" stroke="#1E3250" stroke-width="0.5" d="M245.87,546.18l-0.47-2.489l2.05-4.53l-0.1-1.891
		l3.36-3.25l-0.16-1.6l1.88-4.03l0.96-3.859l-0.86-1.78l-1.55-0.55l2.23-2.75l5.85,0.53l0.9-0.54l-1.84-0.82l0.77-2.021l3.73,1.62
		l1.31-0.92l2.22,1.8l0.02-0.979l2.13-1.36l3.76,3.21l2.81-0.02l1.04-0.891l1.79,1.28l4.11-2.8l3.17-0.74l1.07-2.37l-0.36-1.34
		l1.63,0.141l2.71-1.881l3.41,0.811l0,0l-0.79,2.46l0.98,0.54l-0.45,1.14l1.54,3.84l2.53-0.029l0.42,0.939l-1.42,4.391l1.18,1.26
		l1.5-0.811l0.77,0.66l1.19,3.87l0.49-1.04l0.69,1.811l-0.4,8.31l-1.35,0.51l-1.04,3.65l0,0l-2.42-1.01l-4.12,1.02l-2.83,3.46
		l-3.31-0.8l-2.12,0.48l-0.63,1.39l-7.25-0.24l-1.59,0.88l-0.47,2.37l-6.87-4.109l-6.57-1.71l-6.32-0.671L245.87,546.18z"/>
	<path id="TH-22" fill="#1E3250" stroke="#1E3250" stroke-width="0.5" d="M338.81,564.23l-2.25,1.869l-0.12,1.99l-2.12,2.08
		l-1.42-0.95l-0.01-1.92l-0.86,0.05l-0.26-1.43l1.97-0.479l-0.99-2.421l-0.51,1.73l-1.22-2.13l0.69-1.66l-2.73,1.22l-0.69-1.319
		l0.24,1.39l-1.14,1.14l2.17-0.93l0.86,0.74l-1.05,1.78l1.46-0.04l1.56,3.899l-0.13,1.101l-1.37,0.21l-6.24-6.21l-2.85-0.74
		l0.43-0.76l-1.24-2l-2.6-2.54l0.19-1.73l0.26-0.3l1.18-0.55l-2.06-0.22l-0.16,3.859l-1.09-0.17l-0.19-1.96l-1.55-1.58l-2.32-1.2
		l-2.32,0.08l0.94-2.819l-0.88-1.03l-1.03,0.5l0.6,3.87l-3.67-2.57l-0.35-0.85l1.59,0.449l-0.17-1.39l-1.46-0.33l-0.08,0.86
		l-1.32-3.71l-5.21-3.471l0,0l1.04-3.649l1.35-0.51l0.4-8.311l-0.69-1.81l-0.49,1.04l-1.19-3.87l-0.77-0.66l-1.5,0.81l-1.18-1.26
		l1.42-4.39l-0.42-0.94l-2.53,0.03l-1.54-3.84l0.45-1.141l-0.98-0.54l0.79-2.46l0,0l1.46-1.96l0,0l3.59-0.22l5.22-4.34l1.25-0.2
		l0.35,1.9l0.66-0.95l0.53,0.64l0.97-4.14l2.78-0.41l2.86-2.77l0,0l1.59,3.01l1.5,0.399l-0.43,3.23l5.41-1.89l1.41-4.921l1.53,2.58
		l2.41-0.279l1.04,3.029l5.56-0.149l0.35-2.73l1.34,0.9l1.49-2.05l1.38,1.239l0,0l-0.27,1.5l1.2,1.021l2.14,7.28l2.44,4.62l1.73,0.6
		l2.32,4.68l2.44,0.8l-3.01,1.641l1.02,1.18l-1.03,0.94l1.6,3.609l-0.76,2.49l2.12,2.79l0.44,2.35l-1.81,2.11l0,0l-1.14-0.38
		l-1.28,1.47l-2.24-0.1l-3.83,4.02l1.11,4.33l-0.91,0.78l2.38,2.38l-1.63,0.08l-1.58-1.95l-1.09,0.061l-3.63,2.819l0.73,2.99
		l1.74,2.07l-1.47,1.989l0.38,1.7L338.81,564.23z"/>
	<path id="TH-23" fill="#1E3250" stroke="#1E3250" stroke-width="0.5" d="M352.01,609.81l-0.15,1.811l1.06-0.74l1.88,1.521
		l0.02,2.619l-1.36,2.74l0.87,0.24l-0.61,3.15l-1.61-1.011L352,618.95l-2.77-0.811l1.31-1.21l-1.43-2.33l1.63-7.06L352.01,609.81z
		 M345.55,602.47l2.71,0.61l-1.57,0.89l-0.08,1.58l-1.3-1.52h-1.62L345.55,602.47z M332.46,581.4l3.17,0.46l1.95,1.52l2.23,4.41h0.8
		l3.28,4.96l-0.75,1.69l-3.6-3.341l-0.83,0.471l0.49,2.029l-2.93-0.779l-1.53,0.569l-1.29-1.239l0.17-3.96l-3.03-6.431L332.46,581.4
		z M338.81,564.23l-3-2.301l-0.38-1.699l1.47-1.99l-1.74-2.07l-0.73-2.99l3.63-2.819l1.09-0.061l1.58,1.95l1.63-0.08l-2.38-2.38
		l0.91-0.78l-1.11-4.33l3.83-4.02l2.24,0.1l1.28-1.47l1.14,0.38l0,0l-0.82,3.28l0.89,2.39l1.45,1.09l3.22,0.08l2.52,2.601l1.86,0.27
		l-0.11,1.72l1.21,0.24l1.52,2.28l-0.49,0.649l2.36,2.181l1.08-0.311l-0.59,1.681l1.27,0.229l-0.16,1.181l1.97,0.739l1.21,1.96
		l0.06,1.79l-2.6,0.771l-1.39,1.689l-1.49,13.15l2.15,4.39l2.39,2.511l0.68,5.64l2.33,3.83l1.19,5.29l4.74,5.95l0.41,8.18
		l-1.28-7.021l-8-11.159l0.77-2.15l-1.24-2.44l-0.01-2.77l-9.32-8.5l1.33-1.15l-0.82-1.46l-2.87-1.83l-1.52,0.95l-0.82-0.76
		l1.18,2.84l-1.31,0.32l0.25,4.569l1.63,1.75l0.01,1.841l-2.47-1.08l0.24-1.7l-1.29-2.05l-3.62-1.74l-0.36-1.83l-4.98-0.19
		l-3.52-2.079l-1.41,1.31l-2.98-1.28l0.36-2.74l-1.89-3.479l1.22,0.42l3.24-1.21l2.7-2.96l-1.11-1.49L338.81,564.23z"/>
	<path id="TH-24" fill="#1E3250" stroke="#1E3250" stroke-width="0.5" d="M240.67,456.5l8.8-1.16l6.24,0.51l0,0l1.55,2.561
		l-0.97,2.72l1.03,0.18l-1.49,0.521l1.43,1.38l-0.73,0.75l4.84-2.31l1.91,1.35l1.93-0.87l4.34,1.33l2.5-0.89l0.14,1.689l5.93,1.7
		l3.91,3.22l1.67-1.34l2.66,4.141l3.32-0.78l1.85,0.62l2.13-3.69l3.23-1.479l2.77,3l0.68,5.1l1.5-0.72l1.03,0.56l-0.01,4.12
		l1.79,0.58l1.84,3.26l1.38-0.29l0,0l-0.92,2.641l-2.48,0.649l2.2,1.311l1.41,2.899l1.27,0.13l0.22,2.2l2.6,2.48l0.95,5.12l0,0
		l-2.87,2.77l-2.77,0.4l-0.97,4.14l-0.53-0.64l-0.66,0.949l-0.35-1.899l-1.25,0.21l-5.22,4.34l-3.59,0.22l0,0l-3.46-6.37l-6.98-4.04
		l-1.6-5.289l-3.37-1.12l-2.57,1.21l-1.88-1.66l-0.09-1.63l-3.8-0.23l-7.75-7.59l-6.82-2.12l-1.51,2.15l-2.33,1.02l-3.35-0.33
		l1.79,2.811l-4.2,3.68l-2.06-0.479l0,0l-0.06-0.82l-2.46,1.36l-6.15-1.131l0,0l0.24-1.09l1.3,0.32l1.19-5l1.04,0.61l0.69-1.091
		l-0.52-1.439l1.11-0.17l2.63-3.41l-1.01-0.67l0.47-0.72l-6.34-2.32l0,0l3.28-6.42l1.91-1.66l-3.08-2.5l0.95-0.71l0.52-5.83l0,0
		L240.67,456.5z"/>
	<path id="TH-25" fill="#1E3250" stroke="#1E3250" stroke-width="0.5" d="M275.61,426.81l1-2.199l-0.74-1.67l3.47-1.141l3.11,2.601
		l3.83-0.971l2.06,0.721l-0.07,0.869l8.16,7.461l0.54-2.82l2.65-0.75l1.67,0.78l1.85-1.23l-0.11,0.94l3.38,2.3l2.26-0.82l1.64,1.99
		l0.87-1.18l2.36,0.399l0.28,1.66l-3.25,2.48l2.67,0.88l-1.55,0.909l9.37,5.301l0,0l-0.49,3.279l-3.51,1.87l-0.42,2.5l-5.98,1.21
		l-1.15,1l1.07,5.101l-2.64-0.061l-0.52,3.601l1.63,1.979l-0.21,2.681l1.49,0.96l-0.36,2.479l-1.57,0.82l1.53,1.09l-0.03,6.03
		l0.89,2.1l-0.61-0.3l-0.48,1.58l-1.77-0.36l-0.06,1.38l0,0l-1.38,0.29l-1.84-3.26l-1.79-0.58l0.01-4.12l-1.03-0.56l-1.5,0.72
		l-0.68-5.1l-2.77-3l-3.23,1.479l-2.13,3.69l-1.85-0.62l-3.32,0.78l-2.66-4.141l-1.67,1.34l-3.91-3.22l-5.93-1.7l-0.14-1.689
		l-2.5,0.89l-4.34-1.33l-1.93,0.87l-1.91-1.35l-4.84,2.31l0.73-0.75l-1.43-1.38l1.49-0.521l-1.03-0.18l0.97-2.72l-1.55-2.561l0,0
		l0.15-2.199l3.83-0.891l1.17-2.85l3.49-0.45l1.23,0.76l1.38-1.529l1.04,0.17l-2.07-5.4l5.68-3.9l0.6-4.649l2.26,1.37l5.54-0.99
		l-0.06-4.66l-1.44-2.14L275.61,426.81z"/>
	<path id="TH-26" fill="#1E3250" stroke="#1E3250" stroke-width="0.5" d="M262.72,420.59l2.43-2.26l0.46,1.55l1.47-0.55l0.41,1.78
		l3.59,1.62l3.84,4.46l0.69-0.381l0,0l2.9,1.681l1.44,2.14l0.06,4.66l-5.54,0.99l-2.26-1.37l-0.6,4.649l-5.68,3.9l2.07,5.4
		l-1.04-0.17l-1.38,1.529l-1.23-0.76l-3.49,0.45l-1.17,2.85l-3.83,0.891l-0.15,2.199l0,0l-6.24-0.51l-8.8,1.16l0,0l0.01-17.98
		l2.14-1.159l0.37-2.5l0,0l-0.12-2.4l2.55,1.41l4.72-3.92l-0.08-4.82l2.02,2.16l2.69,0.08l1.66,0.8l0.89,1.91l0.96-0.37l0.52-1.26
		l1.67-0.431l-0.07-3.939l1.23-0.13l-0.21-2.76L262.72,420.59z"/>
	<path id="TH-27" fill="#1E3250" stroke="#1E3250" stroke-width="0.5" d="M321.06,443.32l4,0.66l0.09-2.131l1.24-1.649l1.78,1.649
		l0.32,1.87l3.43-0.13l0.32,1.23l1.13-0.431l1.27,1l3.35-0.75l0.12-2.279l1.76,1.359l3.12-0.489l0,0l0,0l0,0l0,0l0,0l2.84,1.46
		l0.62-0.69l4.49,0.44l3.9-2.511l1.76,1.53l1.52-1.13l2.63,2.38l4.86-0.85l1.68-2.011l0.51,0.891l0.82-0.87l3.9,1.52l0.39-1.59
		l1.57,0.63l2.07-0.87l0,0l0.76,1.99l-2.68,4.48l0.71,4.56l-3.01,0.9l-5.65,4.93l-1.02,5.29l-3.01,4.34l0.58,1.32l-9.49,4.63
		l-2.7,2.87l1.73,2.52l3.2,1.37l-3.37,0.351l-0.77,1.72l-2.42,0.979l-3.15-0.56l-2.79,0.88l-4.86-1.27l-1.81,1.3l-0.4,1.51
		l1.94,3.25l-1.19,9.82l0.56,3.33l0,0l-1.39-1.24l-1.49,2.05l-1.33-0.899l-0.35,2.729l-5.56,0.15l-1.05-3.03l-2.41,0.27l-1.53-2.58
		l-1.41,4.921l-5.41,1.89l0.43-3.23l-1.5-0.409l-1.59-3l0,0l-0.95-5.12l-2.6-2.48l-0.22-2.2l-1.27-0.13l-1.41-2.899l-2.2-1.311
		l2.48-0.649l0.92-2.641l0,0l0.06-1.38l1.77,0.36l0.48-1.58l0.61,0.3l-0.89-2.1l0.03-6.03l-1.53-1.09l1.57-0.82l0.36-2.479
		l-1.49-0.96l0.21-2.681l-1.63-1.979l0.52-3.601l2.64,0.061l-1.07-5.101l1.15-1l5.98-1.21l0.42-2.5l3.51-1.87L321.06,443.32z"/>
	<path id="TH-30" fill="#1E3250" stroke="#1E3250" stroke-width="0.5" d="M272.43,361.61l1.8,0.97l1.76-3.83l3.76,1l1.85-1.23
		l5.15-0.289l1.54,1.159l2.52-2.689l7.56,1.39l2.51-3.229l4.87,2.819l3.49-4.529l4.39-0.82l0.93,0.59l1.6-1.25l0.35-5.05l2.38-5.351
		l3.56-1.949l0.01-1.38l1.27-1l-0.23-1.511l1.27-1.38l-0.43-1.05l3.05,0.17l0.22-1.21l1.8,0.9l1.3-0.46l0.5-2.131l2.4-0.27
		l1.34-1.58l1,0.32l0,0l2.4,2.5l-0.16,2.529l1.21-0.079l2.56,2.52l2.4-1.46l4.2-0.69l2.43,1.37l3.19-0.39l0.86-1.11l2.71,0.95
		l2.15-0.96l1.01,0.32l-0.51,1.479l1.79,2.58l2.05-0.3l2.21,1.73l0,0l-0.58,1.6l1.85,6.47l2.12,1.681l0.12-0.711l2.19,0.53
		l2.19-0.899l2.31,0.949l-0.53,0.37l1.46,0.86l-0.3,1.05l2.54-0.53l2.29,3.74l-1.39,0.96l-1.41-0.8l-0.62,1.41l0,0l-0.33,0.03l0,0
		v1.68l2.09,0.72l0.32,1.55l-2.67,2.32l1.04,1.54l-0.89,1.47l0.36,3.48l0.99,1.02l-0.54,1l-4.82,0.25l-5.27,3.221l-3.7,4.439
		l1.34,2.63l-1.91,0.8l-0.24,2.5l-2.43,0.601l-1.17,3.47l-6.47-0.149l-1.98-1.5l-1.55,0.659l1.28,1.45l-1.77,1.93l0.74,2.681
		l-1.35,3.31l-2.14,0.75l-2.74-2.26l-0.79,0.91l-0.26,2.89l3.04,3.181l-2.05,1.88l1.17,3.909l-0.4,2.32l1.69,3.58l-0.92,3.61
		l8.6,1.319l-0.71,3.25l-2,1.381l-0.45,3.56l2.71,3.66l2.54-0.22l3.12,1.899l-9.94,6.66l-2.73,1.02l-1.53-0.869l-1.56,0.439
		l-1.42,2.851l0,0l-3.12,0.489l-1.76-1.359l-0.12,2.279l-3.35,0.75l-1.27-1l-1.13,0.431l-0.32-1.23l-3.43,0.13l-0.32-1.87
		l-1.78-1.649l-1.24,1.649l-0.09,2.131l-4-0.66l0,0l-9.37-5.301l1.55-0.909l-2.67-0.88l3.25-2.48l-0.28-1.66l-2.36-0.399l-0.87,1.18
		l-1.64-1.99l-2.26,0.82l-3.38-2.3l0.11-0.94l-1.85,1.23l-1.67-0.78l-2.65,0.75l-0.54,2.82l-8.16-7.461l0.07-0.869l-2.06-0.721
		l-3.83,0.971l-3.11-2.601l-3.47,1.141l0.74,1.67l-1,2.199l0,0l-0.69,0.381l-3.84-4.46l-3.59-1.62l-0.41-1.78l-1.47,0.55l-0.46-1.55
		l-2.43,2.26l0,0l-3.98-4.439l2.22-2.98l-1.76-11.18l1.65-0.82l1.23,1.9l3.3,0.489l0.15-1.329l1.11,0.539l0.58-1.479l1.81-0.46
		l0.16-1.45l7.89-5.439l-2.86-12.471l0,0l-1.2-7.42l-1.88-2.819l-0.65-4.131l2.15,0.67L272.43,361.61z"/>
	<path id="TH-31" fill="#1E3250" stroke="#1E3250" stroke-width="0.5" d="M376.65,329.29l0.71,2.01l4.29,2.641l0.02,3.05l-2.11,1.7
		l3.56,4.21l1.75,0.54l-0.43,1.979l3.01,2.28l-1.24,2.319l2.69,1.16l0,0l-1.46,4.38l1.82,1.171l1.36-0.74l1.71,3.359l-0.43,0.71
		l2.56-0.819l0.13,2.04l1.02-0.45l1.24,1.79l1.5-0.44l-0.229,1.061l2.42-0.8l0.35,1.329l4.03-3.359l2.34,1.43l0.8-0.479l-0.699,0.96
		l1.18,0.85l1.74-0.03l1.189-2.529l1.65,0.529l0.93,1.851l1.15-0.19l0.1,1.55l-1.59-0.25l-1.26,0.931l-0.17,1.729l-1.21-0.41
		l-0.34,3.891l-1.141,0.319l0.521,6.74l0,0l0.8-0.27l-0.04,0.689l0,0l-1.03,2.351l1.68,1.38l-1.77,1.05l-0.79,1.88l1.43,1.69
		l-0.93,1.439l0.59,1.99l-1.56,0.65l0.18,1.52l-1.03,0.22l-2.92,4.42l-3.89,1.61l0.229,1.57l-1.779,1.189l0.55,2.13l-1,4.53
		l-1.83,1.7l0.3,2.05l-1.64,1.65l0.67,3.24l-0.59,2.88l2.22,4.399l-1.76,2.78l0.75,0.88l-0.71,0.73l0.38,3.51l0,0l-3.94-0.51
		l-0.99,1.42l-0.82-0.851l-1.19,1.69l-4.45,1.16l-2.33,3.739l-4.68,1.601l-1.67,2.149l0,0l-2.07,0.87l-1.57-0.63l-0.39,1.59
		l-3.9-1.52l-0.82,0.87l-0.51-0.891l-1.68,2.011l-4.86,0.85l-2.63-2.38l-1.52,1.13l-1.76-1.53l-3.9,2.511l-4.49-0.44l-0.62,0.69
		l-2.84-1.46l0,0l1.42-2.851l1.56-0.439l1.53,0.869l2.73-1.02l9.94-6.66l-3.12-1.899l-2.54,0.22l-2.71-3.66l0.45-3.56l2-1.381
		l0.71-3.25l-8.6-1.319l0.92-3.61l-1.69-3.58l0.4-2.32l-1.17-3.909l2.05-1.88l-3.04-3.181l0.26-2.89l0.79-0.91l2.74,2.26l2.14-0.75
		l1.35-3.31l-0.74-2.681l1.77-1.93l-1.28-1.45l1.55-0.659l1.98,1.5l6.47,0.149l1.17-3.47l2.43-0.601l0.24-2.5l1.91-0.8l-1.34-2.63
		l3.7-4.439l5.27-3.221l4.82-0.25l0.54-1l-0.99-1.02l-0.36-3.48l0.89-1.47l-1.04-1.54l2.67-2.32l-0.32-1.55l-2.09-0.72v-1.68l0,0
		l0.33-0.03l0,0l0.62-1.41l1.41,0.8l1.39-0.96l-2.29-3.74l-2.54,0.53l0.3-1.05l-1.46-0.86l0.53-0.37l-2.31-0.949l-2.19,0.899
		l-2.19-0.53l-0.12,0.711l-2.12-1.681l-1.85-6.47l0.58-1.6l0,0l2.43,0.92l3.44-1.24l0.9-2.98l-0.14-5.26L376.65,329.29z"/>
	<path id="TH-32" fill="#1E3250" stroke="#1E3250" stroke-width="0.5" d="M388.9,351.18l6.93,1.33l2.4,0.95l1.3,1.72l4.819,1.19
		l3.841-1.98l0,0l3.609-1.479l5.4,2.03l2.25-2.48l3.13-0.43l3.77,1.52l3.771,0.561l1.35-0.66l2.261,0.899l5.029-2.17l0.471,1.23
		l1.21-1.37l0.579,1l0.301-1.08l0.56,1.9l3.09,0.229l0.311,1.74l1.649-0.86l-0.13,1.33l1.101,0.01l0,0l0.43,0.94l0.729-1.09
		l2.98,0.939l0.7-0.71l2.18,3.36l-4.66,1.84l0.42,0.92l-1.199,0.12l0.26,1.851l-1.141-0.521l-0.22,1.91l-1.34-0.83l1.54,2l-0.73,0.3
		l0.19,1.51l-1.22,0.37l0.899,1.34l-1.21,1.11l0.05,1.46l2.171,1.101l-0.851,1.3l0.9,0.66l-0.59,2.06l1.899,0.84l-1,1.351
		l1.061,0.869l-0.71,1.891l-1.08,0.22l0.279,1.7l-2.109,1.22l0.06,1.75l-2.76,3.12l-1.68,3.771l1.09,1.5l5.24,2.039l0.81,2.681
		l-0.47,2.28l3.37,4.069l0.569,4.66l-1.85,3.93l0.18,3.2l1.24,0.2l0.35,1.78l-0.979,7.35l0.87,1.24l0,0l-1.891,0.55l-3.279-1.21
		l-2.091,0.33l-0.46,1.38l-4.109-0.56l-2.36-2.29l-1.399,1.26l-1.53-0.271l-0.04-0.859l-1.811,0.59l-4.449-1.13l-0.051-3.771
		l-1.47-0.55l-2.21,0.21l-0.84,1.03l0.85,0.83l-2.069,0.79l-0.891-1.471l-3.51-0.3l-3.91,1.59l-2.21,2.49l-2.18-1.79l-1.811,2.3
		l-9.689,0.45l-2.54,1.65l0,0l-0.38-3.51l0.71-0.73l-0.75-0.88l1.76-2.78l-2.22-4.399l0.59-2.88l-0.67-3.24l1.64-1.65l-0.3-2.05
		l1.83-1.7l1-4.53l-0.55-2.13l1.779-1.189l-0.229-1.57l3.89-1.61l2.92-4.42l1.03-0.22l-0.18-1.52l1.56-0.65l-0.59-1.99l0.93-1.439
		l-1.43-1.69l0.79-1.88l1.77-1.05l-1.68-1.38l1.03-2.351l0,0l-0.76-0.42l0,0l-0.521-6.74l1.141-0.319l0.34-3.891l1.21,0.41
		l0.17-1.729l1.26-0.931l1.59,0.25l-0.1-1.55l-1.15,0.19l-0.93-1.851l-1.65-0.529l-1.189,2.529l-1.74,0.03l-1.18-0.85l0.699-0.96
		l-0.8,0.479l-2.34-1.43l-4.03,3.359l-0.35-1.329l-2.42,0.8l0.229-1.061l-1.5,0.44l-1.24-1.79l-1.02,0.45l-0.13-2.04l-2.56,0.819
		l0.43-0.71l-1.71-3.359l-1.36,0.74l-1.82-1.171L388.9,351.18z"/>
	<path id="TH-33" fill="#1E3250" stroke="#1E3250" stroke-width="0.5" d="M447.9,356.31l0.59-2.96l2.13-2.56l2.229-0.94l-0.31-1.04
		l1.21-0.59l0.5-1.67l1.57,0.05l-0.37-1.42l1.54,0.271l0,0l0.91,3.83l3.08,2.06l3.34,4.38l0.97,2.851l4,2.229l3.37-0.12l1.89,3.471
		l1.48,0.3l0,0l6.6,1.569l0,0l1.59,1.051l3.49-0.061l0,0l1.89-1.399l0.101,0.93l2.49,0.31l0.079,1.08l1.261,0.58l-0.86-1.01
		l0.93-0.77l0.92,2.189l1.19,0.2l-0.99,0.42l0.03,1.16l1.49,0.04l-0.13,0.99l1.06-0.391l-1.38,2.24l2.55-0.48l-3.79,2.95l-0.6,1.63
		h1.189l-0.77,1.04l1.08,0.12l-0.5,2.74l-1.07,0.729l0.98,1.971l-0.051,3.64l8.171,3.87l1.56,4.09l-1.44,0.54l-0.489,1.37
		l1.479,3.93l3.68,3.681l0.961,3.26l-2.75-0.38l-1.5,3.59l-0.671,3.82l3.03,3.76l-0.22,1.71l-1.96,2.149l1.24,1.101l2.08-0.771
		l1.939,2.49l0,0l-2.46-1.25l-2.06,1.021l-2.381-2.32l-5.5,2.34l-0.97-2.1l-1.71,2.56l-1.67-0.29l-1.01-1.57l-4.33,3.29l-0.14,1.28
		l-2.921,0.26l-2.439-1.5l-2.4,2.08l-0.14-1.04l-1.7,0.141l-1.35-1.021l-5.67,0.141l-3.74-2.66l-2.98,2.64l-3.17-0.939l-0.949,0.6
		l0.279,1.06l-1.99,0.431l-0.46-1.311l-2.04-0.35l-1.26,2.05l-2.189,0.24l0,0l-0.87-1.24l0.979-7.35l-0.35-1.78l-1.24-0.2l-0.18-3.2
		l1.85-3.93l-0.569-4.66l-3.37-4.069l0.47-2.28l-0.81-2.681l-5.24-2.039l-1.09-1.5l1.68-3.771l2.76-3.12l-0.06-1.75l2.109-1.22
		l-0.279-1.7l1.08-0.22l0.71-1.891l-1.061-0.869l1-1.351l-1.899-0.84l0.59-2.06l-0.9-0.66l0.851-1.3l-2.171-1.101l-0.05-1.46
		l1.21-1.11l-0.899-1.34l1.22-0.37l-0.19-1.51l0.73-0.3l-1.54-2l1.34,0.83l0.22-1.91l1.141,0.521l-0.26-1.851l1.199-0.12l-0.42-0.92
		l4.66-1.84l-2.18-3.36l-0.7,0.71l-2.98-0.939l-0.729,1.09L447.9,356.31z"/>
	<path id="TH-34" fill="#1E3250" stroke="#1E3250" stroke-width="0.5" d="M520.85,308.58l9.601,3.04l13.47,2.42l0.86,1.76
		l-3.12,0.36l-2.4,4.31l3.4,8.3l1.75,0.99l0.979,2.36l1.78,0.66l2.58-1.44l3.83,1.24l3.09,1.93l2.061,3.58l-0.351,7.19l-2.229,4.05
		l0.63,2.38l-0.75,3.42l-1.83,1.73l-4.8,0.92l-1.75,2.569l2.54,2.33l4.64-0.67l0.53,0.721l0.58,3.159l-3.391,1.16l-4.319,5.04
		l-0.75,4.53l3.109,1.979l0.21,1.631l2.561,0.14l-0.33,1.54l1.64,1.16l0.14,1.609l3.141,1.54l-2.431,2.11l-2.09-0.34l-0.439,1.74
		l1.87,1.68l0.22,1.41l-2.78,0.89l1.15,2.17l-2.16,0.86l-0.65,1.71l0.11,3.17l1.8,1.55l-1.31,0.3l-0.33,2.2l0.63,4.311l1.18,0.85
		l-0.91,1.63l0.32,3.021l-7.02,9.619l-1.301-1l-1.529,2.271l-3.061,0.81l-1.46-0.88l-1.109,2.2l-1.811,0.86l-1.59-0.66l-1.76,2.04
		l-3.54-0.851l-0.58,1.19l0.64,0.939l-1.7,2.061l-0.34,2.95l-4.31,2.25l-2.18-0.36l-1.79-1.78l-2.131-5.6l0.65-3.18l-1.96-1.7
		l-1.3,0.78l-3.03-1.311l0,0l-1.939-2.49l-2.08,0.771l-1.24-1.101l1.96-2.149l0.22-1.71l-3.03-3.76l0.671-3.82l1.5-3.59l2.75,0.38
		l-0.961-3.26l-3.68-3.681l-1.479-3.93l0.489-1.37l1.44-0.54l-1.56-4.09l-8.171-3.87l0.051-3.64l-0.98-1.971l1.07-0.729l0.5-2.74
		l-1.08-0.12l0.77-1.04h-1.189l0.6-1.63l3.79-2.95l-2.55,0.48l1.38-2.24l-1.06,0.391l0.13-0.99l-1.49-0.04l-0.03-1.16l0.99-0.42
		l-1.19-0.2l-0.92-2.189l-0.93,0.77l0.86,1.01l-1.261-0.58l-0.079-1.08l-2.49-0.31l-0.101-0.93l-1.89,1.399l0,0l-3.46,0.061
		l-1.62-1.051l0,0l-6.6-1.569l0,0l0.96-5.07l-0.73-1.64l-1.72-0.46l0.61-0.99l-1.301-3.51l1.78-6.021l5.42,0.53l2.08-1.82l0,0
		l2.5,1.45l2.61-1.71l-0.54-2.51l4.05-3.061l-2.45-1.77l1.47-1.11l7.101,2.83l0.92-0.72l0.26,1.1l2.78,1.511l0.61,1.8l1-0.79
		l0.829,1.45l2.58,0.399l1,1.17l-0.819,0.94l1.1,0.79l0.97-1.79l-0.68-0.71l3.09-3.181l-0.16-1.659l-2.22-0.61l0.89-7.73l3.391-1.79
		l0.27-4.979l1.78-3.55l-1.229-0.391l2.55-3.35l-0.261-4.39l2.37-4.49l1.341-0.34l0,0L520.85,308.58z"/>
	<path id="TH-35" fill="#1E3250" stroke="#1E3250" stroke-width="0.5" d="M472.4,292.4l3-1.71l7.14,0.52l0.64,1.76l2.721,0.37
		l1.76,4.53l1.5,0.47l0.95,1.65l2.01,0.08l1.55-1.99l2.5,2.52l4.33,0.84l0,0l1.57,2.72l2.239,0.07l-0.51,3.99l-12.979-1.75
		l-4.23,1.75l-3.07,5.05l0.99,1.95l-1.779,1.09l-0.061,2.2l-3.32,3.431l-0.409,2.34l0.84,1.67l-1.71,2.109l-1.03,8.051l1.46-0.141
		l-0.13,5.66l1.67-0.66l-0.36,2.41l3.07,0.46l0.38,1.63l0,0l-2.08,1.82l-5.42-0.53l-1.78,6.021l1.301,3.51l-0.61,0.99l1.72,0.46
		l0.73,1.64l-0.96,5.07l0,0l-1.48-0.3l-1.89-3.471l-3.37,0.12l-4-2.229l-0.97-2.851l-3.34-4.38l-3.08-2.06l-0.91-3.83l0,0l-0.01-1
		l2.56-1.73l3.5-0.97l-1.8,0.48l0.35-1.53l-1.45-0.21l0.17-1.78l1.021-0.42l-2.35-1.74l-0.33-1.55l-1.311,1.19l-0.67-0.48l1.6-1.77
		l-1-2.811l0.391-2.18l-3.91-2.71l0.12,1.43l-2.79,1.55l-2.35-0.01l0.829-3.31l1.021-0.5l-0.53-1.04l1.16-0.091l-1.45-1.26
		l-0.06-1.729l1.47-2.061l-0.62-1.41l-0.77,0.811l-0.271-0.67l1.15-1.75l5.03-0.021l0.699-3.899l-1.22-2.38l0.92-2.271l2.05-0.27
		l2.341-2.59l3.59-1.29l1.569-3.69l1.82-0.48l3.69-3.3L472.4,292.4z"/>
	<path id="TH-36" fill="#1E3250" stroke="#1E3250" stroke-width="0.5" d="M271.43,344.33l2.42-10.9l-4.78-1.319l-1.26-2.4l0.94-0.93
		l0.06-5.4l2.91-2.71l-0.93-0.33l0.89-3.01l-1.11,0.32l-1.09-1.57l-1.25-3.88l1.25-7.78l1.48-2.24l1.24-0.29l-0.41-3.66l-1.61-0.85
		l1.55-1.13l0.68-6l1.77-1.56l-0.59-1.37l4.78-5.66l-0.65-1.6l0.62-1.91l3.13-1.37l-1.54-1.57l0.27-2.72l1.75-0.71l-1.03-4.16
		l4.1,2.12l0.38-1.62l-1.58-4.06l2.13,0.36l3.25,3.12l3.3-0.51l2.94,2.55l1.46-1.18l0,0l0.41,1.14l1.67,0.38l-0.27,1.28l3.69-2.09
		l4.06,0.96l1.09,1.15l2.95-0.47l1.89,1.65l0.81,3.1l2.29,0.59l0.64,2.7l2.75,1.21l-0.36,0.6l6.03-0.64l1,0.83l0.7-1.05l1.38,0.14
		l4.32,3.42l2.21,0.66l4.35-0.53l0.58,1.19l1.76-0.74l0.1-1.45l0.89,3.05l3,2.23l-2.63,6.51l-0.39,3.44l-8.99,12.09l1.5,2.62
		l2.43,0.02l1.11,2.301l2.1,0.85l-1.49,2.02l0.66,1.311l-1.3,1.1l-0.13,2.05l-2.23,2.351l0.47,4.37l0,0l-1-0.32l-1.34,1.58
		l-2.4,0.27l-0.5,2.131l-1.3,0.46l-1.8-0.9l-0.22,1.21l-3.05-0.17l0.43,1.05l-1.27,1.38l0.23,1.511l-1.27,1l-0.01,1.38l-3.56,1.949
		l-2.38,5.351l-0.35,5.05l-1.6,1.25l-0.93-0.59l-4.39,0.82l-3.49,4.529l-4.87-2.819l-2.51,3.229l-7.56-1.39l-2.52,2.689l-1.54-1.159
		l-5.15,0.289l-1.85,1.23l-3.76-1l-1.76,3.83l-1.8-0.97l0,0l-0.64-3.141l0.67-7.529L271.43,344.33z"/>
	<path id="TH-37" fill="#1E3250" stroke="#1E3250" stroke-width="0.5" d="M500.5,301.44l3.11,0.73l1-1.31l3.439-0.47l2.3-3.14
		l1.17,0.14l1.811-2.11l1.36,0.31l0,0l2.55,2.61l-0.28,3.5l1.95,5.75l1.32,0.83l0,0l-1.341,0.34l-2.37,4.49l0.261,4.39l-2.55,3.35
		l1.229,0.391l-1.78,3.55l-0.27,4.979l-3.391,1.79l-0.89,7.73l2.22,0.61l0.16,1.659l-3.09,3.181l0.68,0.71l-0.97,1.79l-1.1-0.79
		l0.819-0.94l-1-1.17l-2.58-0.399l-0.829-1.45l-1,0.79l-0.61-1.8l-2.78-1.511l-0.26-1.1l-0.92,0.72l-7.101-2.83l-1.47,1.11
		l2.45,1.77l-4.05,3.061l0.54,2.51l-2.61,1.71l-2.5-1.45l0,0l-0.38-1.63l-3.07-0.46l0.36-2.41l-1.67,0.66l0.13-5.66l-1.46,0.141
		l1.03-8.051l1.71-2.109l-0.84-1.67l0.409-2.34l3.32-3.431l0.061-2.2l1.779-1.09l-0.99-1.95l3.07-5.05l4.23-1.75l12.979,1.75
		l0.51-3.99l-2.239-0.07L500.5,301.44z"/>
	<path id="TH-38" fill="#1E3250" stroke="#1E3250" stroke-width="0.5" d="M408.29,176.24l-0.36-1.6l-6.449-4.93v-4.12l3.079-2.12
		l0.29-2.62l-5.199-2.11l-0.101-2.42l1.641-1.31l-0.061-1.2l0,0l-0.42-2.19l-2.66-1.11l0.03-1.77l3.99-4.23l6.56-1.2l3.521,1.69
		l4.779-0.03l5.641,1.62l5.71,4.21l8.26,0.36l2.62,3.89l4.42-3.16l3.15-0.7l6.1,8.27l3.22,7.5l5.45,6.42l0,0l-1.02,0.14l-0.11,1.27
		l-1.46-1.47l-2.57,1.42l1.86,3.61l-4.521,5.11l-1.62-0.75l-0.46-1.31l-2.97,1.14l-1.08,2.31l1.38,0.72l0.96,2.76l0,0l-1.09,0.19
		l-1.39,2.69l-0.41-0.97l-1.05,0.67l-1.07-0.65l-1.7-2.56l0.38-2.56l-1.51,0.47l0.33-2.26l-2.68,1.19l0.2-1.06l-0.841-0.29
		l-1.369,0.94l-2.61-0.49l1.01,1.35l-1.109,1.11l-2.04-2.91l1.5-0.59l-0.801-1.13l0.48-1.67l-1.71,0.7l0.56-2.35l-1.29,3.11
		l-2.04-2.21l-2.199-0.98l-1.46,0.38l0.09-1.61l-0.75,0.71l-0.96-0.96l-0.83,0.59l-0.261-2.4l1.351-0.76l-2-0.04l-1.11-2.6
		l-1.06,0.77l-2.45-1.81l-0.11-1.74l-0.34,1.46l-1.43-0.43l-1.48,0.95l0.25,5.05l-1.779-1.08l-0.41,1.17l-1.101-0.38l-0.67,0.79
		l0.88,0.38l-0.359,0.76l-2.65-1.86L408.29,176.24z"/>
	<path id="TH-39" fill="#1E3250" stroke="#1E3250" stroke-width="0.5" d="M319.62,200.58l1.31-0.78l1.34,0.93l2.09-2.18l7.25,0.32
		l3.72-1.29l1.02,8.92l2.39,3.56l4.72,11.35l0.1,4.09l4.6-0.46l5.81,1.52l-1.44,2.52l-6.75,2.04l3.27,7.22l3.48,3.86l6.45,3.49l0,0
		l0.85,2.3l-3.83,8.22l-0.85,5.24l-7.83-2.39l-4.31,0.96l-5.48-2.9l-0.47,0.93l-1.35-2.06l0.45-0.61l-0.95,0.02l0.52-0.88
		l-1.93-1.72l-2.75-0.2l-0.29,1.16l-2.28,1.35l-1.87,0.04l-0.51-0.96l-0.68,0.45l-4.5-2.24l-0.33,1.06l-2.01-0.63l0,0l-1.6-1.2
		l-0.97-3.14l2.82-0.84l1.6-2.72l2.67-0.67l1.01-1.32l-3.17-2.22l-0.93-3.31l-4.7-1.46l0.03-2.52l1.6,0.86l2.17-2.45l-5.4-0.94
		l0.67-0.9l4.2,0.68l-0.69-1.88l0.63-1.47l-1.17,0.25l-3.63-3.38l-0.49-1.5l2.04-1.44l-0.12-2.17l-2.48-2.8l0.67-3.31l4.12,0.63
		l2.7-1.11l2.98-3.06l0.02-3.34L319.62,200.58z"/>
	<path id="TH-40" fill="#1E3250" stroke="#1E3250" stroke-width="0.5" d="M358.98,245.69l0.63-3.64l1.79-3.09l1.23,2.87l4.36,2.33
		l2.53,2.96l-1.41,1.23l1.06,1.21l-0.73,1.61l0.98,3.58l2.44-1.39l3.88,3.39l3.54-0.89l8.73-4.6l0,0l1.68,1.39l-1.25,4.68l1.19,0.52
		l0.98-0.85l0.16-2.61l2.39,0.4l0.68,2.96l-0.21,2.37l-2.44,2.27l0.81,1.45l-0.83,2.25l0.87,1.91l-0.43,2.12l0,0l0.04,2.31
		l-2.18,1.3l-0.13,1.8l-2.52,3.82l-2.64,1.41l-0.63-0.71l-0.95,1.91l-4.4,1.54l1.44,1.98l-1.15-0.08l-0.44,1.11l0,0l-0.37,1.28l0,0
		l-3.35,2.9l-0.12,2.44l-3.23,2.98l-0.21,4.21l0.98,3.47l-0.86,1.2l1.51,1.35l-1.27,3.76l0.68,2.11l2.39,1.09l-0.74,0.83l1.52,2.92
		l-1.05,2.681l2.52,3.76l-0.56,3.85l0.76,1.95l0,0l-3.57,1.88l0.14,5.26l-0.9,2.98l-3.44,1.24l-2.43-0.92l0,0l-2.21-1.73l-2.05,0.3
		l-1.79-2.58l0.51-1.479l-1.01-0.32l-2.15,0.96l-2.71-0.95l-0.86,1.11l-3.19,0.39l-2.43-1.37l-4.2,0.69l-2.4,1.46l-2.56-2.52
		l-1.21,0.079l0.16-2.529l-2.4-2.5l0,0l-0.47-4.37l2.23-2.351l0.13-2.05l1.3-1.1l-0.66-1.311l1.49-2.02l-2.1-0.85l-1.11-2.301
		l-2.43-0.02l-1.5-2.62l8.99-12.09l0.39-3.44l2.63-6.51l-3-2.23l-0.89-3.05l-0.1,1.45l-1.76,0.74l-0.58-1.19l-4.35,0.53l-2.21-0.66
		l-4.32-3.42l-1.38-0.14l-0.7,1.05l-1-0.83l-6.03,0.64l0.36-0.6l-2.75-1.21l-0.64-2.7l-2.29-0.59l-0.81-3.1l-1.89-1.65l-2.95,0.47
		l-1.09-1.15l-4.06-0.96l-3.69,2.09l0.27-1.28l-1.67-0.38l-0.41-1.14l0,0l2.69-3.78l-0.15-2.81l0,0l8.07-3.64l2.95-1.86l-0.31-0.82
		l3.38,0.89l1.1-2.13l2.08,0.8l1.87-2.22l0,0l2.01,0.63l0.33-1.06l4.5,2.24l0.68-0.45l0.51,0.96l1.87-0.04l2.28-1.35l0.29-1.16
		l2.75,0.2l1.93,1.72l-0.52,0.88l0.95-0.02l-0.45,0.61l1.35,2.06l0.47-0.93l5.48,2.9l4.31-0.96l7.83,2.39l0.85-5.24l3.83-8.22
		L358.98,245.69z"/>
	<path id="TH-41" fill="#1E3250" stroke="#1E3250" stroke-width="0.5" d="M317.68,168.98l2.28,2.04l1.17-0.44l-0.02,2.57l2.41-0.65
		l-0.21,1.95l0.99,1.29l1.24-2.021l2.06-0.3l0.08,0.94l3.87,1.72l1.72-0.41l1.45,2.92l5.3,3.55l0.86,3.82l2.8,1.67l-0.87,1.85
		l0.77,1.84l1.87,1.03l4.11-0.6l5.75,5.25l-1.28,1.03l0.04,3.48l3.4,0.56l0.18,1.54l3.09-1.95l2.5,1.17l0.63-1.14l1.69,0.05
		l-0.42-1.57l0.97-0.38l0.67-2.43l3.09-0.79l1.39-2.43l0.3-3.31l-1.89-2.55l0.88,0.11l0.36-1.78l1.66-0.72l0.08-2.87l0.94-0.74
		l2.99,0.43l2.78,4.85l4.55-5.03l1.4,1.14l1.31-0.48l1.52,1.9l0.9-0.33l2.33,4.03l1.09-0.27l1.51-4.26l3.47-1.56l4.319,4.38
		l0.61-0.93l-0.68-1.88l2.149-1.17l2.37,0.19l2.12-1.61l0,0l1.18,1.6l-1.55,1.88l1.88,0.96l-1.38-0.09l-0.13,0.82l-0.21-0.83
		l-0.98,0.12l0.511,0.89l-1.53,2.71l2.93,4.31l-0.93,7.85l0.88,1.5l-2.27,0.23l-0.16,0.93l-1.61-0.54l-1.91,2.4l-0.319,2.08
		l-2.07,1.82l0.229,2.08l-1.1,1.89l1.9,3.54l-3.431,5.4l1.63,2.95l5.12,1.13l0.681,1.33l3.76,1.65h2.34l1.229-1.22l6.771,5.08
		l1.99-0.76l2.529,3.93l2,0.46l-0.819,2.06l0.49,4.01l0,0l-1.051-0.32l0.36-1.63l-2.16-3.2l-2.82-0.62L418.3,239l-2.74,3.12
		l0.79,3.21l-1.71,1.99l-0.21,4.64l0,0l-0.83,1.15l0,0l-3.899,5.94l-0.72-0.47l0.869-0.97l-1.529-2.15l0.77-0.83l-1.85-2.7
		l-2.9-1.41l-3.67-0.12l-2.39-2.5l-2.13-0.45l-2.53,1.4l-4.39-1.01l-1.22,3.42l0,0l-8.73,4.6l-3.54,0.89l-3.88-3.39l-2.44,1.39
		l-0.98-3.58l0.73-1.61l-1.06-1.21l1.41-1.23l-2.53-2.96l-4.36-2.33l-1.23-2.87l-1.79,3.09l-0.63,3.64l0,0l-6.45-3.49l-3.48-3.86
		l-3.27-7.22l6.75-2.04l1.44-2.52l-5.81-1.52l-4.6,0.46l-0.1-4.09l-4.72-11.35l-2.39-3.56l-1.02-8.92l-3.72,1.29l-7.25-0.32
		l-2.09,2.18l-1.34-0.93l-1.31,0.78l0,0l-1.78-1.53l-1.46,0.66l-0.44-0.66l0.56-0.38l-1.5-5.9l0.86-2.68l1.06-0.27l-0.61-1.17
		l1.06-2.95l-2.21-9.5l1.64-0.47L317.68,168.98z"/>
	<path id="TH-42" fill="#1E3250" stroke="#1E3250" stroke-width="0.5" d="M320.47,159.71l0.63,0.21l0,0l-0.26,3.58l-2.26,1.35
		l-0.9,4.13l0,0l-0.88,6.75l-1.64,0.47l2.21,9.5l-1.06,2.95l0.61,1.17l-1.06,0.27l-0.86,2.68l1.5,5.9l-0.56,0.38l0.44,0.66
		l1.46-0.66l1.78,1.53l0,0l3.54,5.52l-0.02,3.34l-2.98,3.06l-2.7,1.11l-4.12-0.63l-0.67,3.31l2.48,2.8l0.12,2.17l-2.04,1.44
		l0.49,1.5l3.63,3.38l1.17-0.25l-0.63,1.47l0.69,1.88l-4.2-0.68l-0.67,0.9l5.4,0.94l-2.17,2.45l-1.6-0.86l-0.03,2.52l4.7,1.46
		l0.93,3.31l3.17,2.22l-1.01,1.32l-2.67,0.67l-1.6,2.72l-2.82,0.84l0.97,3.14l1.6,1.2l0,0l-1.87,2.22l-2.08-0.8l-1.1,2.13
		l-3.38-0.89l0.31,0.82l-2.95,1.86l-8.07,3.64l0,0l-4,0.72l-2.72-3.13l2.36-0.65l-2.93-3.79l0.78-5.27l-1.18-1.17l0.26-1.68
		l-1.77-4.47l-1.35-0.33l-1.39,3.11l-2.9,0.96l-2.09-2.5l-0.21-2.19l-3.32-1.25l-1.23-1.61l-1.74,1.48l-2.33-1.44l-1.15,0.96
		l-3.03-0.49l-0.86,1.07l-1.22-1.52l-3.41,0.25l-2.47-2.98l-1.51,0.7l-0.04,2.18l-2.09,3.54l-3.67,1.61l-0.58,8.14l-0.86,0.58
		l-1.68-0.76l0,0l0.09-1.49l-2.46-0.44l-0.46-0.94l1.6-0.96l-0.7-2.18l1.21-2.71l-0.52-3.53l1.88-4.22l-0.1-2.73l2.16-4.01
		l-1.77-3.1l-2.23-0.22l-2.97-3.57l-6.07-0.55l0.02-7.66l-1.45-0.95l-2.51,0.94l-1.52-1.16l0.64-2.43l1.96-1.91l-0.81-1.1l1.34-2.79
		l1.71-0.5l1.81,1.66l1.75-0.41l0,0l4.36,1.2l5.8,5.3l3.72,0.91l0.41-1.72l1.06-0.26l-0.15-2.03l3.27-0.72l2.19-4.33l3.1-2.61
		l0.18-1.16l2.84-0.88l2.19-2.28l1.18,0.96l1.95-2.36l-1.85-1.31l2.94,0.11l1.66-0.95l1.05,0.12l-0.44,1.29l0.79-0.05l1.47-2.89
		l2.32-1.5l1.77,0.28l-1.79-1.98l1.71-3.88l1.07,1.4l1.98-3.13l4.94-1.32l1.06,0.7l1.51-1.32l-0.22-2.03l3.33-8.31l6.44,2.75
		l1.99-0.08l3.45-4.74l4.78-3.69l1.23-3.39L320.47,159.71z"/>
	<path id="TH-43" fill="#1E3250" stroke="#1E3250" stroke-width="0.5" d="M408.29,176.24l-0.83,0.05l0.11,1.61l1.649,1.75l-1.3,0.21
		l0.41,1.82l0,0l-2.12,1.61l-2.37-0.19l-2.149,1.17l0.68,1.88l-0.61,0.93l-4.319-4.38l-3.47,1.56l-1.51,4.26l-1.09,0.27l-2.33-4.03
		l-0.9,0.33l-1.52-1.9l-1.31,0.48l-1.4-1.14l-4.55,5.03l-2.78-4.85l-2.99-0.43l-0.94,0.74l-0.08,2.87l-1.66,0.72l-0.36,1.78
		l-0.88-0.11l1.89,2.55l-0.3,3.31l-1.39,2.43l-3.09,0.79l-0.67,2.43l-0.97,0.38l0.42,1.57l-1.69-0.05l-0.63,1.14l-2.5-1.17
		l-3.09,1.95l-0.18-1.54l-3.4-0.56l-0.04-3.48l1.28-1.03l-5.75-5.25l-4.11,0.6l-1.87-1.03l-0.77-1.84l0.87-1.85l-2.8-1.67
		l-0.86-3.82l-5.3-3.55l-1.45-2.92l-1.72,0.41l-3.87-1.72l-0.08-0.94l-2.06,0.3l-1.24,2.021l-0.99-1.29l0.21-1.95l-2.41,0.65
		l0.02-2.57l-1.17,0.44l-2.28-2.04l0,0l0.9-4.13l2.26-1.35l0.26-3.58l0,0l3.89,0.73l1.41,3.82l7.01,6.63l4.09,0.83l7.49,5.04
		l9.54,1.021l0.82,3.18l-1.81,4.5l6.09,3.13l1.2-0.98l-1.28-1.98l0.59-1.64l4.77-1.73l2-2.89l2.3-0.57l2.63-2.13l6.87-2.27
		l3.66,2.29l1.43-0.35l2.87-3.86l0.2-6.41l4.64-3.75l-0.05-3.811l0.84-1.37l8.83-3.54l0,0l0.061,1.2l-1.641,1.31l0.101,2.42
		l5.199,2.11l-0.29,2.62l-3.079,2.12v4.12l6.449,4.93L408.29,176.24z"/>
	<path id="TH-44" fill="#1E3250" stroke="#1E3250" stroke-width="0.5" d="M391.61,270.12l2.52,0.13l0.38,0.87l-1.87,1.6l1.29,3.8
		l-1.93,4.17l1.7,3.09l-1.37,3.98l0.83,1.95l5.99-1.03l1.79-1.2l0.68,1.82l2.62,0.46l0.59,1.3l0,0l0.22,2.53l1.11,0.59l0,0
		l2.91,1.08l-0.46,1.93l2.26,2.64l0.62-0.58l-0.46,1.49l0.779,1.63l1.82-1.8l1.66-0.05l-0.03,0.64l0,0l-3.26,5.8l-0.14,2.43
		l1.18,2.46l-0.49,5.19l1.17,3.09l-1.529,1.3l-0.87,2.78l-1.69,10.3l-1.96,0.811l-2.7-1.17l-3.069,1.58l-2.261,2.71l2.23,0.21
		l-2.07,4.119l1.38,0.65l0.561,2.12l3.13,1.24l0.76,1.29l3.55-0.91l0.57,2.17l-1.56,5.06l0,0l-3.841,1.98l-4.819-1.19l-1.3-1.72
		l-2.4-0.95l-6.93-1.33l0,0l-2.69-1.16l1.24-2.319l-3.01-2.28l0.43-1.979l-1.75-0.54l-3.56-4.21l2.11-1.7l-0.02-3.05l-4.29-2.641
		l-0.71-2.01l0,0l-0.76-1.95l0.56-3.85l-2.52-3.76l1.05-2.681l-1.52-2.92l0.74-0.83l-2.39-1.09l-0.68-2.11l1.27-3.76l-1.51-1.35
		l0.86-1.2l-0.98-3.47l0.21-4.21l3.23-2.98l0.12-2.44l3.35-2.9l0,0l0.37-1.28l0,0l0.44-1.11l1.15,0.08l-1.44-1.98l4.4-1.54
		l0.95-1.91l0.63,0.71l2.64-1.41l2.52-3.82l0.13-1.8l2.18-1.3L391.61,270.12z"/>
	<path id="TH-45" fill="#1E3250" stroke="#1E3250" stroke-width="0.5" d="M464.78,285.13l3.09-1.38l0.49-1.65l0.899,0.61l1.75,8.5
		l-0.529,0.77l1.92,0.42l0,0l-1.25,3.61l-3.69,3.3l-1.82,0.48l-1.569,3.69l-3.59,1.29l-2.341,2.59l-2.05,0.27l-0.92,2.271l1.22,2.38
		l-0.699,3.899l-5.03,0.021l-1.15,1.75l0.271,0.67l0.77-0.811l0.62,1.41l-1.47,2.061l0.06,1.729l1.45,1.26l-1.16,0.091l0.53,1.04
		l-1.021,0.5l-0.829,3.31l2.35,0.01l2.79-1.55l-0.12-1.43l3.91,2.71l-0.391,2.18l1,2.811l-1.6,1.77l0.67,0.48l1.311-1.19l0.33,1.55
		l2.35,1.74l-1.021,0.42l-0.17,1.78l1.45,0.21l-0.35,1.53l1.8-0.48l-3.5,0.97l-2.56,1.73l0.01,1l0,0l-1.54-0.271l0.37,1.42
		l-1.57-0.05l-0.5,1.67l-1.21,0.59l0.31,1.04l-2.229,0.94l-2.13,2.56l-0.59,2.96l0,0l-1.101-0.01l0.13-1.33l-1.649,0.86l-0.311-1.74
		l-3.09-0.229l-0.56-1.9l-0.301,1.08l-0.579-1l-1.21,1.37l-0.471-1.23l-5.029,2.17l-2.261-0.899l-1.35,0.66l-3.771-0.561l-3.77-1.52
		l-3.13,0.43l-2.25,2.48l-5.4-2.03l-3.609,1.479l0,0l1.56-5.06l-0.57-2.17l-3.55,0.91l-0.76-1.29l-3.13-1.24l-0.561-2.12l-1.38-0.65
		l2.07-4.119l-2.23-0.21l2.261-2.71l3.069-1.58l2.7,1.17l1.96-0.811l1.69-10.3l0.87-2.78l1.529-1.3l-1.17-3.09l0.49-5.19l-1.18-2.46
		l0.14-2.43l3.26-5.8l0,0l1.19,0.26l1.27-1.88l-0.21,0.77l1.58-0.46l-0.63,1.01l3.09,0.09l0.2,0.67l1.29-0.73l-1.25-0.72l0.79-0.34
		l1.72,2.21l1.03-1.19l0.6,0.77l0.96-0.65l-0.76-1.35l1.43,0.74l0.351-0.99l2.84,0.22l1.55-5.49l-3.859-5.34l7.93-6.39l3.3-0.12
		l4.26,2.49l6.87-0.59l0.99,3.84l1.81-1.55l4.351-0.97l2.3-1.5l1.28,1.09L464.78,285.13z"/>
	<path id="TH-46" fill="#1E3250" stroke="#1E3250" stroke-width="0.5" d="M388.01,251.26l1.22-3.42l4.39,1.01l2.53-1.4l2.13,0.45
		l2.39,2.5l3.67,0.12l2.9,1.41l1.85,2.7l-0.77,0.83l1.529,2.15l-0.869,0.97l0.72,0.47l3.899-5.94l0,0l0.83-1.15l0,0l0.21-4.64
		l1.71-1.99l-0.79-3.21l2.74-3.12l2.01-0.92l2.82,0.62l2.16,3.2l-0.36,1.63l1.051,0.32l0,0l2.119-1.01l1.96,1.24l0.061,2.4
		l0.81-0.55l0.471,1.22l2.71,0.92l0.42,1.29l-1.271,1.13l1.351,2.56l3.149,1.42l0.49,1.88l6.39,4.76l0.96-0.44l0.49-3.13l0.59,0.9
		l0.721-1.8l3.199-1.46l2.931,2.5l0,0l1.47,0.75l1.82,3.72l1.16,0.08l-0.271,1.55l1.42,2.4l1.12,0.26l-0.42,1.38l1.6,0.58
		l-0.859,4.12l2.08,1.84l1.3,2.24l-0.24,1.57l1.22,0.76l-0.859,3.11l0.71,3.09l0,0l-3.25-0.07l-1.28-1.09l-2.3,1.5l-4.351,0.97
		l-1.81,1.55l-0.99-3.84l-6.87,0.59l-4.26-2.49l-3.3,0.12l-7.93,6.39l3.859,5.34l-1.55,5.49l-2.84-0.22l-0.351,0.99l-1.43-0.74
		l0.76,1.35l-0.96,0.65l-0.6-0.77l-1.03,1.19l-1.72-2.21l-0.79,0.34l1.25,0.72l-1.29,0.73l-0.2-0.67l-3.09-0.09l0.63-1.01
		l-1.58,0.46l0.21-0.77l-1.27,1.88l-1.19-0.26l0,0l0.03-0.64l-1.66,0.05l-1.82,1.8l-0.779-1.63l0.46-1.49l-0.62,0.58l-2.26-2.64
		l0.46-1.93l-2.91-1.08l0,0l-1.08-0.57l-0.25-2.55l0,0l-0.59-1.3l-2.62-0.46l-0.68-1.82l-1.79,1.2l-5.99,1.03l-0.83-1.95l1.37-3.98
		l-1.7-3.09l1.93-4.17l-1.29-3.8l1.87-1.6l-0.38-0.87l-2.52-0.13l0,0l0.43-2.12l-0.87-1.91l0.83-2.25l-0.81-1.45l2.44-2.27
		l0.21-2.37l-0.68-2.96l-2.39-0.4l-0.16,2.61l-0.98,0.85l-1.19-0.52l1.25-4.68L388.01,251.26z"/>
	<path id="TH-47" fill="#1E3250" stroke="#1E3250" stroke-width="0.5" d="M408.29,176.24l0.51-0.83l2.65,1.86l0.359-0.76l-0.88-0.38
		l0.67-0.79l1.101,0.38l0.41-1.17l1.779,1.08l-0.25-5.05l1.48-0.95l1.43,0.43l0.34-1.46l0.11,1.74l2.45,1.81l1.06-0.77l1.11,2.6
		l2,0.04l-1.351,0.76l0.261,2.4l0.83-0.59l0.96,0.96l0.75-0.71l-0.09,1.61l1.46-0.38l2.199,0.98l2.04,2.21l1.29-3.11l-0.56,2.35
		l1.71-0.7l-0.48,1.67l0.801,1.13l-1.5,0.59l2.04,2.91l1.109-1.11l-1.01-1.35l2.61,0.49l1.369-0.94l0.841,0.29l-0.2,1.06l2.68-1.19
		l-0.33,2.26l1.51-0.47l-0.38,2.56l1.7,2.56l1.07,0.65l1.05-0.67l0.41,0.97l1.39-2.69l1.09-0.19l0,0l0.46,3.52l1.03-0.7l1.24,0.83
		l-0.49,1.37l0.99-0.62l-0.34,1.54l1.2,1.38l-0.511,1.82l0.91-0.22l-1.08,2.6l-2.62,0.47l1.73,3.8l-1.29,1.56l-0.14,3.43
		l-1.591,1.93l3.301,6.78l1.079,0.93l0.381-1.16l1.029,1.26l-0.25-1.86l1.11-0.11l0.19,0.85l1.05-0.54l0.41,1.29l1.439-1l-0.6-1.03
		l2.14-0.26l-0.24-1.07l3.71,1l3.971-1.28l8.76,0.62l-0.68,3.14l1.09,3.11l-1.38,2.5l2.199,4.14l-2.939,4.27l-0.19,2.26l0.811,0.79
		l-2.431,2.28l-0.779,2.37l2.91,2.38l0.05,1l-2.69,1.09l-0.41,1.51l-2.26,0.6l-1.12,3.43l-3.26,1.41l0,0l-3.21,2.3l-5.4-0.93
		l-1.08,3.33l-2.569,1.24l0,0l-2.931-2.5l-3.199,1.46l-0.721,1.8l-0.59-0.9l-0.49,3.13l-0.96,0.44l-6.39-4.76l-0.49-1.88
		l-3.149-1.42l-1.351-2.56l1.271-1.13l-0.42-1.29l-2.71-0.92l-0.471-1.22l-0.81,0.55l-0.061-2.4l-1.96-1.24l-2.119,1.01l0,0
		l-0.49-4.01l0.819-2.06l-2-0.46l-2.529-3.93l-1.99,0.76l-6.771-5.08l-1.229,1.22h-2.34l-3.76-1.65l-0.681-1.33l-5.12-1.13
		l-1.63-2.95l3.431-5.4l-1.9-3.54l1.1-1.89l-0.229-2.08l2.07-1.82l0.319-2.08l1.91-2.4l1.61,0.54l0.16-0.93l2.27-0.23l-0.88-1.5
		l0.93-7.85l-2.93-4.31l1.53-2.71l-0.511-0.89l0.98-0.12l0.21,0.83l0.13-0.82l1.38,0.09l-1.88-0.96l1.55-1.88l-1.18-1.6l0,0
		l-0.41-1.82l1.3-0.21l-1.649-1.75l-0.11-1.61L408.29,176.24z"/>
	<path id="TH-48" fill="#1E3250" stroke="#1E3250" stroke-width="0.5" d="M461.6,173.51l1.851,2.09l3.89,9.43l5.561,3.13l6.52,10.73
		l16.2,9.32l6.52,9.03l0.801,12.05l-1.591,7.39l-3.46,8.14l0.24,6.72l1.68,4.16l-1.659,3.11l0,0l-2.12-1.56l-2.29,2.91l-2.07-2.72
		l-0.6-2.69l-5.301-0.37l-3.989,1.22l-1.37-1.12l-1.74,0.05l-1.92-1.83l-1.21,0.92l-2.9-1.5l-1.939-0.1l-2.83,3.19l-2.08-3.47l0,0
		l3.26-1.41l1.12-3.43l2.26-0.6l0.41-1.51l2.69-1.09l-0.05-1l-2.91-2.38l0.779-2.37l2.431-2.28l-0.811-0.79l0.19-2.26l2.939-4.27
		l-2.199-4.14l1.38-2.5l-1.09-3.11l0.68-3.14l-8.76-0.62l-3.971,1.28l-3.71-1l0.24,1.07l-2.14,0.26l0.6,1.03l-1.439,1l-0.41-1.29
		l-1.05,0.54l-0.19-0.85l-1.11,0.11l0.25,1.86l-1.029-1.26l-0.381,1.16l-1.079-0.93l-3.301-6.78l1.591-1.93l0.14-3.43l1.29-1.56
		l-1.73-3.8l2.62-0.47l1.08-2.6l-0.91,0.22l0.511-1.82l-1.2-1.38l0.34-1.54l-0.99,0.62l0.49-1.37l-1.24-0.83l-1.03,0.7l-0.46-3.52
		l0,0l-0.96-2.76l-1.38-0.72l1.08-2.31l2.97-1.14l0.46,1.31l1.62,0.75l4.521-5.11l-1.86-3.61l2.57-1.42l1.46,1.47l0.11-1.27
		l1.02-0.14l0,0L461.6,173.51z"/>
	<path id="TH-49" fill="#1E3250" stroke="#1E3250" stroke-width="0.5" d="M465.79,251.74l2.08,3.47l2.83-3.19l1.939,0.1l2.9,1.5
		l1.21-0.92l1.92,1.83l1.74-0.05l1.37,1.12l3.989-1.22l5.301,0.37l0.6,2.69l2.07,2.72l2.29-2.91l2.12,1.56l0,0l2.149,7.38
		l-1.439,4.62l-0.42,6.34l2.229,3.07l5.24,3.35l3,7.38l2.64,1.27l3.141,3.37l0,0l-1.36-0.31l-1.811,2.11l-1.17-0.14l-2.3,3.14
		l-3.439,0.47l-1,1.31l-3.11-0.73l0,0l-4.33-0.84l-2.5-2.52l-1.55,1.99l-2.01-0.08l-0.95-1.65l-1.5-0.47l-1.76-4.53l-2.721-0.37
		l-0.64-1.76l-7.14-0.52l-3,1.71l0,0l-1.92-0.42l0.529-0.77l-1.75-8.5l-0.899-0.61l-0.49,1.65l-3.09,1.38l0,0l-0.71-3.09l0.859-3.11
		l-1.22-0.76l0.24-1.57l-1.3-2.24l-2.08-1.84l0.859-4.12l-1.6-0.58l0.42-1.38l-1.12-0.26l-1.42-2.4l0.271-1.55l-1.16-0.08
		l-1.82-3.72l-1.47-0.75l0,0l2.569-1.24l1.08-3.33l5.4,0.93L465.79,251.74z"/>
	<path id="TH-50" fill="#1E3250" stroke="#1E3250" stroke-width="0.5" d="M146.34,22.84l3.53,1.59l0.24,1.08l-5.17,2l0.06,1.1
		l0.82,0.76l-2.26,1.36l0.38,1.49l-3.87,3.64L140,39.05l-2.46,1.91l2.43,5.52l-1.92,0.08l-1.98,2.6l-0.16,3.51l-1.03,1.13
		l-2.08,0.28l-3.71,4.3l0.57,2.63l1.18,0.51l0.94,2.86l1.8,1.67l-2.06,3.1l1.52,2.89l-0.51,1.89l1.52,4.8l-1.04,0.77l1.71,5.79
		l-2.14,3.1l-0.3,3.43l2.59,6.38l2.63,1.69l1.18,4.45l0,0l-1.81,1.17l0.78,8.15l-2.36,2.21l1.37,5.85l-2.93,4.89l1.43,2.06
		l-1.37,0.99l0.02,1.69l2.07,0.92l-2.86,5.09l0,0l-6.61-4.21l1.12-1.78l-0.09-2.32l-3.05-2.05l-0.07-1.96l-2.16-0.21l-2.89,2.18
		l-6.83,0.38l-0.46,2.07l-1.82,0.64l-0.83,1.41l-2.05,5.13l-5.31,3.04l-0.58-0.51l-2.3,3.11l-3.25,1.979l-3.91-0.37l-0.94,1.67
		l0.99,0.37l-1.83,3l1.53,2.37l-2.07,0.57l-0.53,1.77l7.44,3.66l0.5,4.99l1.45,1.72l-0.44,4.76l1.04,0.57l-2.42,5.38l2.04-0.39
		l1.73,1.42l2.54,9.73l-1.17,0.14l0.09,2.41l-2.28,1.2h-1.52l-1.04-2.51l-1.39,2.16l-5.23,0.77l0.36,0.99l0,0l-3.58,2.82l-0.71-2.53
		l-2-2.08l-1.66-0.53l-0.86,0.98l-2.73-2.01l-1.68,0.75l-0.01,1.16l1.09,0.6l-0.43,2.08l1.44,3.7l0.45,6.02l2.08,0.37l1.55,2.54
		l-2.8,1.4l-1.72,3.45l0.49,3.69l2.17,1.83l-1.42,4.84l1.63,0.84l-0.27,4.07l1.38-0.28l-0.25,0.85l-2.84,0.72l-2.4-0.04l-0.25-1.83
		L77,224.04l-1.98-0.89l-6.43,1.8L66.48,224l-0.88-1.29l1.09-2.03l-2.81-4.06l2.04-0.63l0.48-3.81l-2.18-7.38l-1.96-0.23l-3.89,2.74
		l-4.87-0.07l-3.15-6.76l0,0l3.64-3.16l0.53-3.4l-1.17-2.02l0.75-1.27l-0.93-1.31l-3.01-0.91l-1.36-3.19l-3.85-2.85v-2.09l5.28-2.68
		l3.67,1.87l1.76-2.66l5.02-1.1l-0.72-2.65l2.71-1.23l1.03-2.17l-1.48-0.78l-1.32,0.69l-1.13-1.56l-1.7,0.67l-1-1.78l-1.62-0.31
		l-0.66-3.1l1.3-1.93l-0.25-1.95l-1.66-0.67l-0.8-2.77l0.63-1.21l3.85-0.53l-1.98-0.62l0.05-2.83l-3.26-4.69l-3.46-1.57l2.16-2.08
		l1.1-3.14l3.25-1.65l0.3-1.5l2.31,0.68l1.86-2.28l-1.77-2.69l-7.06-2.89l-0.63-6.4l1.68-2.52l-2.16-0.65l-0.66-2.64l0.65-2.82
		l2.4-3.31l2.19-0.84l1.04-2.24l-0.18-3.46l5.44-7.66l-0.68-2.28l0.83-1.43l6.04,0.65l0.74,4.09l4.53,4.66l1.27-1.4l7.17,1.52
		l1.49-1.36l4.36-1.19l1.26-2.07l-1.26-4.57l-4.36-3.83L84.58,88l-0.63-2.22l1-1.3l-0.6-5.29l-1.46-2.53l1.4-0.97l-0.63-2.86
		l0.69-3.28l-1.78-1.33l-0.2-2.72l-1.54-0.86l-0.27-3.72l-4.69-3.58l-0.06-2.07l0,0l2.86-1.92l3.73,3.27l1.5-2.95l2.44-0.03
		l0.13-0.92l5.8-2.65l4.38,0.85l4.21-4.38l4.65,3.56l0.56,1.54l0.89-2.27l3.41,2.81l0.75-3.46l1.57-0.84l1.04-2.8l-0.53-6.68
		l1.32-0.21l0.14-1.32l-0.95-1.59l1.6-2.23l-0.68-2.4l2.21-4.6l3.72-0.31l-0.16-1.021l2.17-0.89l3.4,0.14l7.57,4.36l3.86-1.42
		l3.87-0.05l3.98-1.84L146.34,22.84z"/>
	<path id="TH-51" fill="#1E3250" stroke="#1E3250" stroke-width="0.5" d="M90.78,190.64l-0.36-0.99l5.23-0.77l1.39-2.16l1.04,2.51
		h1.52l2.28-1.2l-0.09-2.41l1.17-0.14l-2.54-9.73l-1.73-1.42l-2.04,0.39l2.42-5.38l-1.04-0.57l0.44-4.76l-1.45-1.72l-0.5-4.99
		l-7.44-3.66l0.53-1.77l2.07-0.57l-1.53-2.37l1.83-3l-0.99-0.37l0.94-1.67l3.91,0.37l3.25-1.979l2.3-3.11l0.58,0.51l5.31-3.04
		l2.05-5.13l0.83-1.41l1.82-0.64l0.46-2.07l6.83-0.38l2.89-2.18l2.16,0.21l0.07,1.96l3.05,2.05l0.09,2.32l-1.12,1.78l6.61,4.21l0,0
		l0.27,2.24l-1.52,0.81l-2.77-0.42l-0.99,1.09l-0.35,2.2l-2.6,1.96l-0.65,2.34l-1.49,0.92l-1.02,4.17l-2,0.33l-0.52,2.98l-2.05-0.75
		l-4.45,1.88l2.6,5.51l0.91,7.9l2.06,4.37l-0.43,3.06l1.4,0.76l-0.61,2.34l2.73,0.15l2.47,4.15l-1.55,0.44l0.92,2.49l-2.62-0.74
		l-2.14,0.61l1.47,2.83l-1.44,2.21l-1.26,0.23l0.14,2.35l-1.56,0.84l-0.94,5.56l-6.93-2.35l-2.81-0.16l-1.64,1.57l0.44,2.55
		l1.55,0.61l-0.02,3.19l0,0l-2.07,3.12l-1.46-1.41l-1.88-0.24l-5.41,3.26l-2.22,0.29l-1.82,2.8l-0.52-2.57L91.8,210l-0.25-3.8
		l-1.33-2.92l0.1-4.77l4.18-1.94L90.78,190.64z"/>
	<path id="TH-52" fill="#1E3250" stroke="#1E3250" stroke-width="0.5" d="M138.68,104.34l2.39-0.6l3.9-4.95l2.42,0.07l1.89-3.9
		l-1.48-2.16l0.79-6.41l2.19-4.13l-1.12-7.5l4.54,2.31l3.06-0.6l1.16,0.66l0,0l0.98,3.03l-0.31,6.8l1.53,5.32l2.16,2.57l1.02,4.9
		l1.42,0.77l1.61-0.59l1.34,4.27l4.9,0.95l4.29,4.86l2.83,1.64l1.16-0.42l2.46,2.61l-0.24,3.4l1.45-0.72l1.75,1.32l0,0l0.77,1.73
		l-1.95,3.89l0.99,4.09l-0.79,2.98l1.38,1.95l-0.79,2.83l-1.2-0.79l-2.37,1.11l0.02,2.89l-2.33,4.84l-1.16,0.2l0.67,0.51l-0.56,1.95
		l-1.23,1.27l-1.44-0.1l-3.96,7.95l-3.33-0.21l-0.5,1.97l-3.33,2.89l-3.2,5.21l0.48,1.34l-2.74,3.64l-2.05,0.41l-1.38,1.59
		l-2.49-1.44l-3.16,1.92l0.55,1.91l-7.45,6.17l-0.52,1.84l-3.64,3.1l-3.69,5.39l3.37,4.77l2.2-0.24l1.53-2.04l0,0l0.28,4.29
		l-1.93,2.29l0.37,3.27l-0.95-0.81l-1.35,0.71l-0.38,1.82l1.48,0.72l0.26,2.44l-1.23,0.71l-1.01,3.32l0.96,2l1.51,0.6l-0.88,2.94
		l2.85,2.03l0.39,2.45l-1.54,1.38l0.06,3.85l-1.01,0.18l-0.09,1.5l-3.36,1.62l-1.12-0.41l-2.2-3.81l-1.69-0.12l0,0l-2.63-4.37
		l-0.41-4.86l-2.91-0.37l-3.59,4.81l-1.36-0.03l-0.81-1.61l-1.9-0.7l-0.3,0.85l-4.12-1.9l-1.03-1.73l-1.39-0.29l-2.15-3.72
		l-3.25-0.51l-0.37-3.4l-1.05-0.92l0,0l0.02-3.19l-1.55-0.61l-0.44-2.55l1.64-1.57l2.81,0.16l6.93,2.35l0.94-5.56l1.56-0.84
		l-0.14-2.35l1.26-0.23l1.44-2.21l-1.47-2.83l2.14-0.61l2.62,0.74l-0.92-2.49l1.55-0.44l-2.47-4.15l-2.73-0.15l0.61-2.34l-1.4-0.76
		l0.43-3.06l-2.06-4.37l-0.91-7.9l-2.6-5.51l4.45-1.88l2.05,0.75l0.52-2.98l2-0.33l1.02-4.17l1.49-0.92l0.65-2.34l2.6-1.96l0.35-2.2
		l0.99-1.09l2.77,0.42l1.52-0.81l-0.27-2.24l0,0l2.86-5.09l-2.07-0.92l-0.02-1.69l1.37-0.99l-1.43-2.06l2.93-4.89l-1.37-5.85
		l2.36-2.21l-0.78-8.15L138.68,104.34z"/>
	<path id="TH-53" fill="#1E3250" stroke="#1E3250" stroke-width="0.5" d="M253.04,148.14l5.7,2.89l-2.2,2.96l0.68,1.55l-1.01,1.03
		l1.42,3.02l1.75,0.53l-2.05,6.13l1.57,4.09l-4.19,4.61l-0.31,3.39l-6.63,4.23l0.75,4.04l-2.14,1.03l-0.4,1.06l0.93,1.37l-1.95,1.65
		l0.74,1.29l0,0l-2.27,3.03l-5.4-0.77l-2.05,3.96l-2.84,1.16l-4.29,6.83l-6.46,3.34l0.17,1.39l-2.11,0.59l-1.08,2.98l-4.55,0.42
		l-1.1,0.91l-0.89-1.72l-1.14,0.74l-3.85-0.24l-4.01,2.3l-2.57,0.14l-0.33,1.25l-1.38-0.73l-1.69,0.5l-2.7,1.93l0.94,7.04
		l-4.36,3.59l-0.86,0.18l-1.18-1.49l-8.15,2.23l-0.45,1.11l-2.03-1.55l-1.4,0.91l0,0l0.17-2.92l-1.57-1.09l-0.21-0.76l0.75-2.76
		l2.05-0.79l1.16-2.46l-0.93-1.86l0.58-2.01l-1.34-1.41l0.98-1.17l-0.04-2.73l-1.47-2.06l-3.71-2.38l1.04-1.59l-1.22-2.98l3.44-2.5
		l-0.61-0.75l0.77-1.8l-0.87-3.74l-2.98-2.69l0.17-2.57l-1.72-1.48l0,0l4.09,1.9l0.39-1.31l2.01-0.96l-0.41-1.56l3.94-0.93
		l0.82,0.98l4.8-1.64l5.78-4.49l2.16-2.9l2.24,0.3l3.79,4.71l1.58-2.51l-0.63-4.01l2.84-2.69l1.48-0.03l0,0l8.62,0.38l0.46-1.19
		l4.1-1.17l3.95,0.54l1.63,1.24l5.22-0.05l2.79-3.72l2.62-0.31l2.24-4.8l2.04-0.56l0.39-5.979l4.34-4.58l1.03,0.33l3.98-3.7
		l1.16-0.06l0.8-1.64l0,0L253.04,148.14z"/>
	<path id="TH-54" fill="#1E3250" stroke="#1E3250" stroke-width="0.5" d="M186.77,117.84l3.04-1.8l1.76,0.25l0.73,1.17l2.05-0.79
		l7.65,1.41l0,0l-0.2,1.28l1.73,0.76l-0.31,1.79l2.26,0.75l-2.68,4.25l0.67,2.56l2.34,1.2l-1.02,0.36l-0.74,3.96l1.15,0.56
		l0.78,5.05l1.09,0.32l1.28-1.28l0.64,0.71l2.14-0.36l2.08,1.57l2.33-1.17l0.64,2.8l-0.93,4.2l-1.34-0.05l-0.77,2.08l-1.63,0.83
		l0.8,0.82l-0.87,1.43l0.94,2.72l-2.7,4.6l-0.53,3.93l-2,0.26l-1.32,1.42l1.16,7.97l0,0l-1.48,0.03l-2.84,2.69l0.63,4.01l-1.58,2.51
		l-3.79-4.71l-2.24-0.3l-2.16,2.9l-5.78,4.49l-4.8,1.64l-0.82-0.98l-3.94,0.93l0.41,1.56l-2.01,0.96l-0.39,1.31l-4.09-1.9l0,0
		l-7.7,1.09l-2.04,3.66l-1.75,1.25l-3.82-5.56l-1.35,0.33l-3.44-1.8l-5.35,1.7l-3.19,4.15l0,0l-1.53,2.04l-2.2,0.24l-3.37-4.77
		l3.69-5.39l3.64-3.1l0.52-1.84l7.45-6.17l-0.55-1.91l3.16-1.92l2.49,1.44l1.38-1.59l2.05-0.41l2.74-3.64l-0.48-1.34l3.2-5.21
		l3.33-2.89l0.5-1.97l3.33,0.21l3.96-7.95l1.44,0.1l1.23-1.27l0.56-1.95l-0.67-0.51l1.16-0.2l2.33-4.84l-0.02-2.89l2.37-1.11
		l1.2,0.79l0.79-2.83l-1.38-1.95l0.79-2.98l-0.99-4.09l1.95-3.89L186.77,117.84z"/>
	<path id="TH-55" fill="#1E3250" stroke="#1E3250" stroke-width="0.5" d="M226.54,46.23l-0.07,2.38l-2.2,4.8l-0.33,11.84l6.23,2.73
		l0.64,1.7l6.25-6.08l2.29-4.29l1.51,0.85l8.02-0.49l5.88,3.99l3.18-0.95l1.91,0.63l0.59-2.01l2.5,0.12l2.97,2.51l-0.93,1.26
		l0.75,1.66l-1.18,1.69l-0.1,2.36l-3.76-0.19l0.31,2.94l-1.9,2.41l1.25,3.4l1.55,0.21l0.65,1.17l-0.74,1.77l1.78,4.68l-0.57,4.18
		l0.78,3.97l5.69,3.92l0.98,1.68l-1.26,2.88l-1.78,0.19l-1.17,1.51l0.17,2.94l-3.37,3.62l0.24,7.84l-1.72,3.19l3.19,2.97l-2.97,4.35
		l-3.06,1.23l0.08,3.61l-2.26,0.54l-0.77,1.76l-2.3,0.46l-0.66,2.66l-2.67,2.93l-0.11,1.19l2.31,3.19l0,0l-0.8,1.64l-1.16,0.06
		l-3.98,3.7l-1.03-0.33l-4.34,4.58l-0.39,5.979l-2.04,0.56l-2.24,4.8l-2.62,0.31l-2.79,3.72l-5.22,0.05l-1.63-1.24l-3.95-0.54
		l-4.1,1.17l-0.46,1.19l-8.62-0.38l0,0l-1.16-7.97l1.32-1.42l2-0.26l0.53-3.93l2.7-4.6l-0.94-2.72l0.87-1.43l-0.8-0.82l1.63-0.83
		l0.77-2.08l1.34,0.05l0.93-4.2l-0.64-2.8l-2.33,1.17l-2.08-1.57l-2.14,0.36l-0.64-0.71l-1.28,1.28l-1.09-0.32l-0.78-5.05
		l-1.15-0.56l0.74-3.96l1.02-0.36l-2.34-1.2l-0.67-2.56l2.68-4.25l-2.26-0.75l0.31-1.79l-1.73-0.76l0.2-1.28l0,0l-0.02-1.45
		l3.26-4.82l0.2-2.32l2.5-1.99l-0.64-1.91l2.69-5.08l2.34,0.07l-0.15,1.02l1.59,0.98l-0.66,2.45l2.74-0.49l-0.48-3.52l4.48,1.84
		l0.98-0.92l-3.72-2.9l0.63-2.18l3.67,0.35l1.29-1.33l-3.15-9.4l0.75-4.26l-3.21,0.15l-0.22-2.08l-1.78-1.13l-1.1-3.17l3.16-2.62
		l0.06-1.35l1.54-1.42l-4.02-1.49l-3.3,0.45l-0.62-2.93l1.01-4.82l-2.88-2.61l-0.1-2.1l-0.9-0.6l0.89-2.67l-2.33-1.79l0,0l0.49-3.09
		l1.38-1.36l0,0l3.87,1.34l4.56-0.77l1.18-1.57L226.54,46.23z"/>
	<path id="TH-56" fill="#1E3250" stroke="#1E3250" stroke-width="0.5" d="M206.5,52.04l2.33,1.79l-0.89,2.67l0.9,0.6l0.1,2.1
		l2.88,2.61l-1.01,4.82l0.62,2.93l3.3-0.45l4.02,1.49l-1.54,1.42l-0.06,1.35l-3.16,2.62l1.1,3.17l1.78,1.13l0.22,2.08l3.21-0.15
		l-0.75,4.26l3.15,9.4l-1.29,1.33l-3.67-0.35l-0.63,2.18l3.72,2.9l-0.98,0.92l-4.48-1.84l0.48,3.52l-2.74,0.49l0.66-2.45l-1.59-0.98
		l0.15-1.02l-2.34-0.07l-2.69,5.08l0.64,1.91l-2.5,1.99l-0.2,2.32l-3.26,4.82l0.02,1.45l0,0l-7.65-1.41l-2.05,0.79l-0.73-1.17
		l-1.76-0.25l-3.04,1.8l0,0l-1.75-1.32l-1.45,0.72l0.24-3.4l-2.46-2.61l-1.16,0.42l-2.83-1.64l-4.29-4.86l-4.9-0.95l-1.34-4.27
		l-1.61,0.59l-1.42-0.77l-1.02-4.9l-2.16-2.57l-1.53-5.32l0.31-6.8l-0.98-3.03l0,0l-0.72-2.79l2.11,0.18l4.86-2.19l5.23,0.33
		l0.91-0.69l1.49,2.1l1.01-0.48l0.48,1.85l1.86-1.56l3.31-0.49l0.82,0.67l-0.02-0.92l2.45-0.24l1.46-1.51v-5.51l6.17-1.58l0.43-1.68
		l4.74-1.5l1.65-2.86l3.77-0.02l1.15-2.49l1.68-0.38L206.5,52.04z"/>
	<path id="TH-57" fill="#1E3250" stroke="#1E3250" stroke-width="0.5" d="M176.39,0.03l2.55,3.27l5.45,2.77l1.23,4.81l-0.38,3.04
		l1.18,1.33l4.25,0.41l0.61-1.43l-0.82-2.42l3.43-1.13l0.37-2.59l2.76-3.36l3.23-0.21l2.79,1.73l4.01,8.81l2.51,1.63l0.24,2.29
		l3.57,3.54l1.34,0.44l1.64-2.25l1.66,0.44l-3.94,18.22l-1.53,2.72l-3.16,2.04l-1.01,3.46l0,0l-1.38,1.36l-0.49,3.09l0,0l-3.24,3.33
		l-1.68,0.38l-1.15,2.49l-3.77,0.02l-1.65,2.86l-4.74,1.5l-0.43,1.68l-6.17,1.58v5.51l-1.46,1.51l-2.45,0.24l0.02,0.92l-0.82-0.67
		l-3.31,0.49l-1.86,1.56l-0.48-1.85l-1.01,0.48l-1.49-2.1l-0.91,0.69l-5.23-0.33l-4.86,2.19l-2.11-0.18l0.72,2.79l0,0l-1.16-0.66
		l-3.06,0.6l-4.54-2.31l1.12,7.5l-2.19,4.13l-0.79,6.41l1.48,2.16l-1.89,3.9l-2.42-0.07l-3.9,4.95l-2.39,0.6l0,0l-1.18-4.45
		l-2.63-1.69l-2.59-6.38l0.3-3.43l2.14-3.1l-1.71-5.79l1.04-0.77l-1.52-4.8l0.51-1.89l-1.52-2.89l2.06-3.1l-1.8-1.67l-0.94-2.86
		l-1.18-0.51l-0.57-2.63l3.71-4.3l2.08-0.28l1.03-1.13l0.16-3.51l1.98-2.6l1.92-0.08l-2.43-5.52l2.46-1.91l0.07-3.19l3.87-3.64
		l-0.38-1.49l2.26-1.36L145,28.61l-0.06-1.1l5.17-2l-0.24-1.08l-3.53-1.59l0,0l1.75-0.11l1.6-4.19l-2.81-1.99L145.87,10l-3.37-2.64
		l0.02-2.17l9.5,3.9l3.09-0.4l2.52,1.94l2.55-0.87l0.76-1.51l5.4,0.98l2.03-2.61l-0.02-2.12l1.97-3.06l3.47-0.06L176.39,0.03z"/>
	<path id="TH-58" fill="#1E3250" stroke="#1E3250" stroke-width="0.5" d="M11.81,139.93l1.28,0.49l0.82-2.72l1.04,0.51l0.65-0.89
		l3.1-0.3l-0.29-1.54l1.47,0.14l1.27-1.34l7.62-0.04l0.38-7.9l-1.36-2.51l0.64-2.45l-1.58-4.69l0.06-3.93l-2.44-1.29l-2.5-3.38
		l4.72-2.27l-0.16-4.4l2.3-0.26l-0.04-1.94l4.37-1.6l0.78-8.49l-4.22-3.79l1.25-1.5l1.4,0.44l1.37-1.08l-2.87-3.83l0.26-2.56
		l-1.16-0.9l1.91-1.01l4.77-6.1l-2.16-2.31l0.46-3.03l7.78-1.92l0.52-2.68l3.69-0.09l-0.84-5.26l0.64-6.37l3.15-0.35l1.22,2.73
		l2.32-1.07l2.25,1.22l1.5,2.2l2.44,0.82L61,56.31l5.3-1.53l2.96,0.64l1.53-1.04l5.02,0.88l0,0l0.07,2.07l4.69,3.58l0.27,3.72
		l1.54,0.86l0.2,2.72l1.78,1.33l-0.69,3.27l0.63,2.87l-1.41,0.97l1.46,2.53l0.61,5.29l-1,1.3L84.58,88l-2.06,1.42l4.36,3.83
		l1.26,4.57l-1.26,2.07l-4.36,1.19l-1.5,1.36l-7.17-1.52l-1.27,1.4l-4.53-4.67l-0.75-4.08l-6.04-0.65l-0.83,1.43l0.68,2.28
		l-5.43,7.66l0.17,3.46l-1.04,2.24l-2.19,0.84l-2.4,3.31l-0.65,2.83l0.66,2.63l2.16,0.65l-1.68,2.53l0.63,6.4l7.06,2.88l1.77,2.69
		l-1.86,2.28L56,136.35l-0.29,1.5l-3.25,1.66l-1.11,3.14l-2.16,2.08l3.46,1.57l3.25,4.69l-0.04,2.83l1.97,0.62l-3.85,0.53
		l-0.63,1.21l0.8,2.77l1.66,0.67l0.26,1.95l-1.31,1.93l0.66,3.1l1.62,0.31l1.01,1.78l1.7-0.67l1.12,1.56l1.32-0.69l1.49,0.78
		l-1.03,2.18l-2.71,1.23l0.72,2.65l-5.02,1.1l-1.75,2.66l-3.67-1.87l-5.28,2.68v2.09l3.84,2.85l1.36,3.19l3.01,0.91l0.93,1.32
		l-0.75,1.26l1.18,2.02l-0.54,3.4l-3.63,3.16l0,0l-3.41-2.68l-2.09-6.6l-2.28-3.78l-0.45-3.24l-3.84,0.97l-0.52,3L34,190.44
		l-6.94-0.17l0,0l-1.77-2.47l-1.35-0.12l-1.62-3.58l1.18-3.94l2.94-1.94l0.25-1.46l-4.14-9.79l-0.19-3.39l-4.48-5.44l2.03-3.46
		l-1.33-2.18l-4.02-1.48l-1.61,3.74L10.57,156l-3.66-4.54l0.39-4l-1.73-1.31l-2.81-7.03l-2.52-2.56l-0.22-2.31l1.05-1.32l0.18,2.52
		l2.53-0.26l1.09,0.9l2.12,4.04l2.42-1.04l1.62,1.26L11.81,139.93z"/>
	<path id="TH-60" fill="#1E3250" stroke="#1E3250" stroke-width="0.5" d="M181.3,301.37l4,2.71l-1,2.15l2.41,3.189l0.17,2.28
		l3.04,4.689l1.19,3.9l1.6-0.7l1.61,0.97l1-2.79l1.23,0.101l0.53,1.35l3.81-2.05l-0.05-1.229l1.54,0.89l-1.05,2.39l9.44,0.971
		l4.06-1.07l-0.47,2.03l3.95-3.431l2.97-1.22l9.69-1.45l0,0l0.94,1.15l-1.37,5.02l3.17,2.141l-0.93,3.83l1.47,7.829l2.01,1.211
		l-1.45,1.38l-0.98,7.42l-1.43,2.18l-2.14,1.04l0,0l-0.95,0.75l1.64,1.06l0.12,2.15l-8.67,3.42l-0.6,6.53l-3.72,3.28l0.99,1.13
		l-0.17,2.069l-3.54,2.17l-2.29,2.86l0.12,1.8l-2.87,1.16l-2.83,3.96l0,0l-5.35-3.74l0,0l0.72-0.56l-0.48-1.96l-3.31-2.43l-2.36-7.4
		l-1.69-2.46l-2.45-2.84l-4.03-1.45l-0.23-1.21l-2.39-1l0,0l-3.17-0.51l0.82-2.21l-2.35-1.15l-0.55-2.38l-1.13,0.22l-0.62,1.5
		l-2.72-1.649l-0.78,0.449l-1.02-12.18l-4.39,1.36l-0.28,2.6l-4.49-1.75l-4.06-3.14l-1.99,0.109l-7.44,4.03l-2.15,2.59l-3.38,2.03
		l-2.82-0.08l-0.28-1.52l-0.95,0.25l-2.18-2.221l-2.87-0.75l-1.61-3.87l-3.96-0.89l-1.31-1.61l-1.92-0.359l-2.13-3.08l-5.44-1.93
		l0,0l-2.66-2.65l-0.56-3.78l0,0l2.72-1.83l1.29,0.24l1.68-2l2.11,0.04l0.29-0.85l5.5,3.939l2-2.479l0.65,1.06l1.88-1.01l3.52,1.09
		l1.24-0.54l2.69,1.311l0.8-1.511l1.5-0.43l7.06,2.08l3.52,2.86l3.41-1.521l2.25,1.48l1.97-2.95l-0.15-1.4l2.37-0.01l0.19-1.43
		l2.59-2.681l-0.05-2.58l2.89-2.279l3.05-0.221l5.64-6.93l1.44-0.4l-1.02-1.74L181.3,301.37z"/>
	<path id="TH-61" fill="#1E3250" stroke="#1E3250" stroke-width="0.5" d="M120.75,329.4l5.44,1.93l2.13,3.08l1.92,0.359l1.31,1.61
		l3.96,0.89l1.61,3.87l2.87,0.75l2.18,2.221l0.95-0.25l0.28,1.52l2.82,0.08l3.38-2.03l2.15-2.59l7.44-4.03l1.99-0.109l4.06,3.14
		l4.49,1.75l0.28-2.6l4.39-1.36l1.02,12.18l0.78-0.449l2.72,1.649l0.62-1.5l1.13-0.22l0.55,2.38l2.35,1.15l-0.82,2.21l3.17,0.51l0,0
		l-1.02,1.04l1.2,1.92l-1.62-0.36l-0.45,0.7l1.71,2.3l-2.9,4.32l-1.08-1.44l-5.62-0.659l-4.96,1.239l-2.22-1.659l-4.24-0.48
		l-4.5,2.79l0.72,2.25l-0.58,1.56l2.46,3.341l-0.79,0.75l3.92,4.84l-2.24,2.689l0.36,2.08l-3.28,1.65l-0.91,1.71l0,0l-5.51-0.88
		l-0.23,3.5l-8.39-3.2l-4.19,0.12l-1.71-4.521l-3.62,0.011l-2.08-2.301l-2.2,1.841l0.37,2.1l-1.53,2.13l0,0l-1.92,0.46l-1.57-1.7
		l-2.82-1l-1.99,0.75l-1.76-1.54l0.46-0.949l-4.38,0.899l-3.88-1.1l-1.25-1.26l0.36-5.021l-1.53-2.53l0,0l1.26-0.189l0.24-3.78
		l2.19-3.53l-0.51-3.229l2.56-4.12l-0.89-3.33l1.57-3.73l-2.05-4.09l3.09-1.81l1.29-3.26l-0.14-2.681l1.83-4.64l-0.74-2.24
		L120.75,329.4z"/>
	<path id="TH-62" fill="#1E3250" stroke="#1E3250" stroke-width="0.5" d="M140.35,253.54l2.25,0.18l2.01-2.12l1.71,2.85l4.34,0.91
		l-0.09,2.03l2.99,4.68l3.6,2.11l1.28-0.2l0.07,1.04l2.67-1.37l-0.26,1.88l2.58,1.86l2.22-0.64l0.86-2.02l1.98,0.39l0.81-1.49l0,0
		l2.9,0.98l0.82,8.17l3.26,2.32l3.15-0.91l0.45,0.75l0,0l1.43,5.1l-2.65,4.27l-0.82,4.34l1.47,2.92l1.52,0.34l-1.87,2.99l0.63,1.03
		l1.44-0.17l-0.58,1.87l2.25,1.45l-1.47,2.29l0,0l-0.74,0.91l1.02,1.74l-1.44,0.4l-5.64,6.93l-3.05,0.221l-2.89,2.279l0.05,2.58
		l-2.59,2.681l-0.19,1.43l-2.37,0.01l0.15,1.4l-1.97,2.95l-2.25-1.48l-3.41,1.521l-3.52-2.86L145.4,320l-1.5,0.43l-0.8,1.511
		l-2.69-1.311l-1.24,0.54l-3.52-1.09l-1.88,1.01l-0.65-1.06l-2,2.479l-5.5-3.939l-0.29,0.85l-2.11-0.04l-1.68,2l-1.29-0.24
		l-2.72,1.83l0,0l0.62-3.1l-1.52-2.061l0.97-1.43l-0.36-3.189l2.22-3.271l-0.57-1.86l-3.89-2.55v-1.6l1.16-0.39l1.04-3.3l-2.25-3.14
		l-0.54-8.17l-1.7-0.82l0.45-2.93l-1.87-1.79l-0.6-2.47l1.05-0.7l1.84,1.78l6.33-0.07l1.17-1.79l2.27-0.69l1.12-1.99l1.92,0.86
		l1.44-0.49l1.06-2.35l-0.69-6.69l1.73-0.5l2.13-4.82l-0.75-3.17l2.14-2.02l4.1,0.32l-0.36-3.7L140.35,253.54z"/>
	<path id="TH-63" fill="#1E3250" stroke="#1E3250" stroke-width="0.5" d="M27.06,190.27l6.94,0.17l3.77-2.28l0.52-3l3.84-0.97
		l0.44,3.23l2.29,3.79l2.08,6.59l3.41,2.68l0,0l3.15,6.76l4.87,0.07l3.89-2.74l1.96,0.23l2.18,7.38l-0.48,3.81l-2.04,0.63l2.81,4.06
		l-1.09,2.03l0.88,1.29l2.11,0.95l6.43-1.8l1.98,0.89l0.45,0.01l0.25,1.83l2.4,0.04l2.84-0.72l0.25-0.85l-1.38,0.28l0.27-4.07
		l-1.63-0.84l1.42-4.84l-2.17-1.83l-0.49-3.69l1.72-3.45l2.8-1.4l-1.55-2.54l-2.08-0.37l-0.45-6.02l-1.44-3.7l0.43-2.08l-1.09-0.6
		l0.01-1.16l1.68-0.75l2.73,2.01l0.86-0.98l1.66,0.53l2,2.08l0.71,2.53l3.58-2.82l0,0l3.72,5.93l-4.18,1.94l-0.1,4.77l1.33,2.92
		l0.25,3.8l-1.56,2.83l0.52,2.57l1.82-2.8l2.22-0.29l5.41-3.26l1.88,0.24l1.46,1.41l2.07-3.12l0,0l1.05,0.92l0.37,3.4l3.25,0.51
		l2.15,3.72l1.39,0.29l1.03,1.73l4.12,1.9l0.3-0.85l1.9,0.7l0.81,1.61l1.36,0.03l3.59-4.81l2.91,0.37l0.41,4.86l2.63,4.37l0,0
		l-0.1,8.84l1.08,0.54l-0.6,1.71l1.24,1.38l1.9-0.29l1.72,0.93l0.06,4.01l2.58,0.98l-1.41,2.16l0.26,2.98l2.03,1.97l-1.3,2l0,0
		l-3.16,1.34l0.36,3.7l-4.1-0.32l-2.14,2.02l0.75,3.17l-2.13,4.82l-1.73,0.5l0.69,6.69l-1.06,2.35l-1.44,0.49l-1.92-0.86l-1.12,1.99
		l-2.27,0.69l-1.17,1.79l-6.33,0.07l-1.84-1.78l-1.05,0.7l0.6,2.47l1.87,1.79l-0.45,2.93l1.7,0.82l0.54,8.17l2.25,3.14l-1.04,3.3
		l-1.16,0.39v1.6l3.89,2.55l0.57,1.86l-2.22,3.271l0.36,3.189l-0.97,1.43l1.52,2.061l-0.62,3.1l0,0l0.56,3.78l2.66,2.65l0,0
		l-0.54,1.899l0.74,2.24l-1.83,4.64l0.14,2.681l-1.29,3.26l-3.09,1.81l2.05,4.09l-1.57,3.73l0.89,3.33l-2.56,4.12l0.51,3.229
		l-2.19,3.53l-0.24,3.78l-1.26,0.189l0,0l-1.88-4.52l-2.15,0.04l-0.74-1.45l-1.81-0.57l0.3-1.14l-1.34-2.271l-2.51-1.46l-5.35-6.689
		l0.23-2.2l-3.59-1.8l1.35-1.26l-5.09-8.04l-1.56,0.46l-2.79-2.33l-0.89,0.37l0,0l-0.81,0.22l-0.82-2.18l4.27-13.49l-0.97,0.06
		l-0.77-2.96l1.61-4.17l-1.12-2.439l-2-1.341l0.35-1.67l0.94-0.46l2.97,1.44l2.4-2.15l1.28-3.81l1.3-0.5l3.02,1.13l2.43-0.51
		l1.63,1.54l2.96-1.65l0.96-2.98l-0.61-3.42l3.36-2.37l0.57-3.2l1.11-0.51l0.25-1.53l-1.52-1.32l0.67-2.66l-2.63-2.72l-3.32,0.12
		l-0.95,2.56l-2.77,2.62l-3.21,1.23l-1.81,4.27l-1.74-0.09l-2.5-10.84l1.33-1.93l-0.44-1.2l-5.02-6.08l0.64-1.99l-1.02-3.06
		l-3.98-1.01l0.28-3.34l-3.61-2.57l0.02-1.51l0.99,0.38l0.76-1.81l-0.25-1.26l1.25,0.24l0.84-1.38l2.12-0.66l-3.69-1.85l1.05-2.59
		l1.79-1.37l-3-1.72l-0.22-3.44l-1.02-1.7l-1.58-0.08l0.39-1.71l-1.63,0.06l0.49-1.01l-3.3-1.7l-3.03,0.82l-1.8-1.48l-0.6-2.21
		l-1.91-0.98l0.86-2.78l-1.51,0.12l-1.77-4l-1.2,0.39l-1.5-3.13l-2.1-0.76l-4.2-4.31l-0.02-4.54l-2.03-0.39l-2.32-2.73l0.64-0.86
		l-4.21-4.77l-1.41,0.11l-0.7-1.39l-2.51-0.75l-1.18-3.12l-7.6-6.77l-2.06-3.14l0.74-1.98l-1.96-1.22L27.06,190.27z"/>
	<path id="TH-64" fill="#1E3250" stroke="#1E3250" stroke-width="0.5" d="M143.47,193.36l3.19-4.15l5.35-1.7l3.44,1.8l1.35-0.33
		l3.82,5.56l1.75-1.25l2.04-3.66l7.7-1.09l0,0l1.72,1.48l-0.17,2.57l2.98,2.69l0.87,3.74l-0.77,1.8l0.61,0.75l-3.44,2.5l1.22,2.98
		l-1.04,1.59l3.71,2.38l1.47,2.06l0.04,2.73l-0.98,1.17l1.34,1.41l-0.58,2.01l0.93,1.86l-1.16,2.46l-2.05,0.79l-0.75,2.76l0.21,0.76
		l1.57,1.09l-0.17,2.92l0,0l-1.79,0.5l0.68,2.8l-0.9,0.83l-0.02,2.39l1.08,0.67l1.91-0.61l1.52,3.28l5.27,2.65l0.92,1.36l-0.68,0.15
		l0.84,3.88l-1.62,1.83l-5.28,0.08l0.59,2.58l-1.82-1.01l-2.58,0.65l-0.68,2.27l-2.08,1.58l0.83,2.67l-3.23-0.14l-1.26,2.18l0,0
		l-0.81,1.49l-1.98-0.39l-0.86,2.02l-2.22,0.64l-2.58-1.86l0.26-1.88l-2.67,1.37l-0.07-1.04l-1.28,0.2l-3.6-2.11l-2.99-4.68
		l0.09-2.03l-4.34-0.91l-1.71-2.85l-2.01,2.12l-2.25-0.18l0,0l1.3-2l-2.03-1.97l-0.26-2.98l1.41-2.16l-2.58-0.98l-0.06-4.01
		l-1.72-0.93l-1.9,0.29l-1.24-1.38l0.6-1.71l-1.08-0.54l0.1-8.84l0,0l1.69,0.12l2.2,3.81l1.12,0.41l3.36-1.62l0.09-1.5l1.01-0.18
		l-0.06-3.85l1.54-1.38l-0.39-2.45l-2.85-2.03l0.88-2.94l-1.51-0.6l-0.96-2l1.01-3.32l1.23-0.71l-0.26-2.44l-1.48-0.72l0.38-1.82
		l1.35-0.71l0.95,0.81l-0.37-3.27l1.93-2.29L143.47,193.36z"/>
	<path id="TH-65" fill="#1E3250" stroke="#1E3250" stroke-width="0.5" d="M246.18,193.58l0.91,2.49l-1.16,1.77l-0.03,3.9l-2.19,3.18
		l0,0l-1.76,0.41l-1.81-1.67l-1.7,0.51l-1.34,2.78l0.81,1.1l-1.96,1.91l-0.64,2.43l1.52,1.16l2.51-0.94l1.45,0.95l-0.02,7.66
		l6.07,0.54l2.97,3.58l2.24,0.21l1.77,3.11l-2.17,4l0.1,2.73l-1.88,4.22l0.51,3.53l-1.21,2.71l0.7,2.18l-1.6,0.96l0.46,0.94
		l2.46,0.44l-0.1,1.49l0,0l-1.72,0.11l-1.43,2.51l-4.54,3.01l0.08,2.04l-3.55-0.29l-0.47,1.92l1.56,1.02l-0.37,1.77l1.9,3.59
		l-1.28,1.04l-2.19-0.24l-1.73,1.77l-1.19,3.61l0.7,3.16l-2.78,4.47l-1.52,0.72l0.8,1.63l-1.23,0.03l-1.09,1.62l-4.33,0.43
		l-0.31,3.16l-3.62,3.33l0,0l-2.58,1.19l0.88-3.77l-1.49-1.42l-0.43-5.79l-0.84-0.41l-0.07-3.32l1.13-2.75l-0.69-2.45l-5.28,1.41
		l-2.79,3.74l-3,0.83l-1.32-1.26l-0.67,0.52l-1.16-1.89l-3.79,1.54l-3.78-0.95l-2.03,0.62l-0.16-6.54l-1.09-1.73l-1.74,1l0.87,0.6
		l-0.86,1.49l-2.33,0.68l-2.64-1.03l-2.11,0.74l-0.26,1.29l-4.61,0.31l0,0l-0.45-0.75l-3.16,0.91l-3.26-2.32l-0.83-8.17l-2.9-0.98
		l0,0l1.26-2.18l3.24,0.14l-0.83-2.68l2.07-1.58l0.69-2.27l2.58-0.64l1.82,1.01l-0.59-2.58l5.28-0.08l1.63-1.83l-0.84-3.88
		l0.68-0.15l-0.92-1.36l-5.27-2.65l-1.52-3.28l-1.91,0.61l-1.07-0.67l0.02-2.39l0.9-0.83l-0.68-2.81l1.79-0.5l0,0l1.4-0.91
		l2.03,1.55l0.45-1.11l8.15-2.23l1.18,1.5l0.86-0.18l4.36-3.59l-0.94-7.04l2.7-1.93l1.69-0.51l1.38,0.73l0.33-1.24l2.57-0.14
		l4.01-2.3l3.85,0.24l1.14-0.73l0.89,1.72l1.1-0.92l4.55-0.42l1.08-2.98l2.11-0.59l-0.18-1.4l6.46-3.34l4.29-6.83l2.83-1.17
		l2.06-3.96l5.4,0.77l2.27-3.03l0,0L246.18,193.58z"/>
	<path id="TH-66" fill="#1E3250" stroke="#1E3250" stroke-width="0.5" d="M179.95,274.94l4.61-0.31l0.27-1.29l2.1-0.74l2.64,1.03
		l2.33-0.68l0.87-1.48l-0.87-0.6l1.73-1l1.09,1.73l0.17,6.54l2.03-0.62l3.78,0.95l3.79-1.54l1.16,1.89l0.67-0.52l1.32,1.26l3-0.83
		l2.79-3.75l5.28-1.41l0.69,2.46l-1.13,2.74l0.07,3.32l0.84,0.41l0.43,5.8l1.49,1.41l-0.88,3.77l2.57-1.18l0,0l0.12,2.22l2.01,3.08
		l2.2-1.11l0.54,0.84l-5.19,8.03l0.73,2.32l-1.25,4.19l6.07,1.3l2.95,1.88l0,0l-9.69,1.45l-2.97,1.22l-3.95,3.431l0.47-2.03
		l-4.06,1.07l-9.44-0.971l1.05-2.39l-1.54-0.89l0.05,1.229l-3.81,2.05l-0.53-1.35l-1.23-0.101l-1,2.79l-1.61-0.97l-1.6,0.7
		l-1.19-3.9l-3.04-4.689l-0.17-2.28l-2.41-3.189l1-2.15l-4-2.71l0,0l1.47-2.29l-2.25-1.45l0.58-1.87l-1.44,0.17l-0.63-1.03
		l1.87-2.99l-1.52-0.34l-1.47-2.92l0.82-4.34l2.65-4.27L179.95,274.94z"/>
	<path id="TH-67" fill="#1E3250" stroke="#1E3250" stroke-width="0.5" d="M251.11,251.88l1.68,0.76l0.86-0.58l0.58-8.14l3.67-1.61
		l2.09-3.54l0.04-2.18l1.51-0.7l2.47,2.98l3.41-0.25l1.22,1.52l0.86-1.07l3.03,0.49l1.15-0.96l2.33,1.44l1.74-1.48l1.23,1.61
		l3.32,1.25l0.21,2.19l2.09,2.5l2.9-0.96l1.39-3.11l1.35,0.33l1.77,4.47l-0.26,1.68l1.18,1.17l-0.78,5.27l2.93,3.79l-2.36,0.65
		l2.72,3.13l4-0.72l0,0l0.15,2.81l-2.69,3.78l0,0l-1.46,1.18l-2.94-2.55l-3.3,0.51l-3.25-3.12l-2.13-0.36l1.58,4.06l-0.38,1.62
		l-4.1-2.12l1.03,4.16l-1.75,0.71l-0.27,2.72l1.54,1.57l-3.13,1.37l-0.62,1.91l0.65,1.6l-4.78,5.66l0.59,1.37l-1.77,1.56l-0.68,6
		l-1.55,1.13l1.61,0.85l0.41,3.66l-1.24,0.29l-1.48,2.24l-1.25,7.78l1.25,3.88l1.09,1.57l1.11-0.32l-0.89,3.01l0.93,0.33l-2.91,2.71
		l-0.06,5.4l-0.94,0.93l1.26,2.4l4.78,1.319l-2.42,10.9l0,0l0,0l0,0l-4.04,0.41l-1.46,2.729l1.03,1.05l0.07,9.101l-6.78,4.729
		l-4.7-0.43l-2.92-1.79l-1.49,1l-3.14-0.1l-3.12-3.33l0.11-1.82l-2.04-2.31l-3.56-2.011l-4.74-0.35l-2.32-3.06l-2.07,0.1l0,0
		l2.14-1.04l1.43-2.18l0.98-7.42l1.45-1.38l-2.01-1.211l-1.47-7.829l0.93-3.83l-3.17-2.141l1.37-5.02l-0.94-1.15l0,0l-2.95-1.88
		l-6.07-1.3l1.25-4.19l-0.73-2.32l5.19-8.03l-0.54-0.84l-2.2,1.11l-2.01-3.08l-0.12-2.22l0,0l3.62-3.33l0.32-3.16l4.33-0.43
		l1.09-1.63l1.23-0.03l-0.8-1.63l1.52-0.71l2.78-4.47l-0.7-3.15l1.19-3.61l1.73-1.77l2.19,0.24l1.28-1.04l-1.9-3.59l0.37-1.78
		l-1.57-1.02l0.47-1.92l3.56,0.29l-0.08-2.04l4.54-3.01l1.43-2.51L251.11,251.88z"/>
	<path id="TH-70" fill="#1E3250" stroke="#1E3250" stroke-width="0.5" d="M170.73,457.22l3.31,0.84l-0.75,2.131l-1.22,0.229
		l1.03,2.1l-0.73,2.15l3.76,0.37l0.84,1.79l-1.81,4.56l0.68,0.811l3.17-0.32l1.84-1.16l-0.11,3.53l0.61,0.73l2.16-0.28l-0.02,3.109
		l0,0l-0.84,2.21l-1.51,0.49l0.83,4.46l-0.96,2.71l0,0l-1.32-0.52l-0.98,1.38l-1.96,0.58l-3.52-1.7l0.43,0.72l-1.95,2.12l-2.37,9.73
		l0,0l-6.65-1.05l-3.56,1.59l-2.7,2.41l-0.09,4.909l-1.9,0.86l-3.94,0.33l-3.74-0.87l-0.99,2.03l-1.97-1.391l-1.19,1.25l-1.33-0.13
		l-6.06-3.989l-1.84,1.529l0.05,2.95l-3.55,1.96l-2.8-3.68l-1.3-0.351l0,0l-0.94-3.26l0.97-0.42l-1.59-2.13l1.45-3.13l0.05-8.28
		l-1.3-2.56l0.29-3.23l-1.89-2.109l0.96-0.83l-0.81-1.62l-0.09-8.271l0,0l0.39-0.85l1.78,0.77l1.56-1.449l2.93,0.479l1.23-1.27
		l0.93,1.399l3.69-0.439l6.74-2.341l1.19-1.75l2.28,2.74l2.98,0.58l7.92-6.05l9.75,2.58l0.68-3.87l1.1-0.05L170.73,457.22z"/>
	<path id="TH-71" fill="#1E3250" stroke="#1E3250" stroke-width="0.5" d="M82.69,339.07l0.89-0.37l2.79,2.33l1.56-0.46l5.09,8.04
		l-1.35,1.26l3.59,1.8l-0.23,2.2l5.35,6.689l2.51,1.46l1.34,2.271l-0.3,1.14l1.81,0.57l0.74,1.45l2.15-0.04l1.88,4.52l0,0l1.53,2.53
		l-0.36,5.021l1.25,1.26l3.88,1.1l4.38-0.899l-0.46,0.949l1.76,1.54l1.99-0.75l2.82,1l1.57,1.7l1.92-0.46l0,0l2.46,3.2l-0.29,4
		l-2.31,2.09l0.76,1.88l4.35,4.271l5.27-0.261l1.86,5.471l3.35-0.391l2.39-1.38l-0.13-5.51l1.45,1.24l3.14,0.13l2.29-1.54l5.33,3.77
		l4.56,0.75l-1.41,2.21l1.35,0.73l2.51,5.39l-1.73,0.42l-0.62,1.61l1.61,1.07l-0.66,1.989l0.6,22.07l-2.44,2.39l-1.14-0.59
		l-0.65,1.19l-0.79-0.23l-1.15,5.45l1.68,1.08l2.49-0.59l1.36,2.36l2.18,0.43l0,0l0.68,1.18l-1.6,2.95l1.02,0.09l2.17,3.38l0,0
		l-2.7,5.771l-1.1,0.05l-0.68,3.87l-9.75-2.58l-7.92,6.05l-2.98-0.58l-2.28-2.74l-1.19,1.75l-6.74,2.341l-3.69,0.439l-0.93-1.399
		l-1.23,1.27l-2.93-0.479l-1.56,1.449l-1.78-0.77l-0.39,0.85l0,0l-0.79-1.83l-2.15-1.22l-0.02-2.76l-1.43-1.82l0.66-3.479l-2.02-0.2
		l-1.28-2.45l-2.71-1.36l-1.48-4.939l-1.83-0.931l-0.85-4.409l-4.09-0.891l-2.01-2.529l-10.3-6.851l-1.24-2.02l-6.48-3.34
		l-0.32-3.15l-2.09-1.12l-5.1-10.82l-2,0.67l-0.16-3.31l-1.6-2.44l-4.54-3.59l-0.91-2.189l-1.98-0.82l-5.11-8.229l0.9-1.9
		l-2.05-2.36l1.31-1.72l-1.37-3.65l-1.55-1.08l0.29-2.699l1.37-1.431l-3.42-4.97l2.04-4.4l-0.99-3.739l3.69,0.359l3.51-3.76
		l-0.02-2.28l6.98,4.07l0.88-1.21l-1.6-2.31l1.55-1.221l0.08-2.58l4.33-1.939l3.59,1.37l1.31,2.479l1.45-2.29l0.57-5.2l-0.45-5.869
		l-1.73-5.33L82.69,339.07z"/>
	<path id="TH-72" fill="#1E3250" stroke="#1E3250" stroke-width="0.5" d="M130.79,384.92l1.53-2.13l-0.37-2.1l2.2-1.841l2.08,2.301
		l3.62-0.011l1.71,4.521l4.19-0.12l8.39,3.2l0.23-3.5l5.51,0.88l0,0l0.41,1.01l8.85,1.53l1.99,1.89l5.49,0.7l5.24-1.07l-0.11-2.93
		l4.87,1.03l1.53,2.319l4.49-2.88l0,0l-1.35,2.03l0.54,1.34l2.15-0.08l-1.01,0.53l1.19,1.11l-1.37,5.05l1.57,1.34l0,0l-1.27,1.09
		l-0.19,2.351l0.2,4.149l1.47,2.061l-2.4,2.97l1.02,2.05l-0.98,1.3l0.74,2.57l3.12,2.83l0,0l-0.3,3.149l1.65,0.511l0.56,1.81
		l-0.95,1.39l0.02,3.971l-1.66,2.819l-0.04,5.181l0,0l-1.86,1.85l-4,1.09l-1.61,1.44l-12.82,0.75l-6.6,5.25l0,0l-2.18-0.43
		l-1.36-2.36l-2.49,0.59l-1.68-1.08l1.15-5.45l0.79,0.23l0.65-1.19l1.14,0.59l2.44-2.39l-0.6-22.07l0.66-1.989l-1.61-1.07l0.62-1.61
		l1.73-0.42l-2.51-5.39l-1.35-0.73l1.41-2.21l-4.56-0.75l-5.33-3.77l-2.29,1.54l-3.14-0.13l-1.45-1.24l0.13,5.51l-2.39,1.38
		l-3.35,0.391l-1.86-5.471l-5.27,0.261l-4.35-4.271l-0.76-1.88l2.31-2.09l0.29-4L130.79,384.92z"/>
	<path id="TH-73" fill="#1E3250" stroke="#1E3250" stroke-width="0.5" d="M195.35,439.24l0.29,2.46l2.52,0.29l-0.28,3.08l0,0
		l-0.97,8.029l2.19,3.17l-2.27,2.891l3.7,6.81l0,0l0.81,6.12l0,0l-3.03,1.57l-1.4,2.02l-2.67,0.82l-0.71-1.22l-3.37-0.07l-2.13,0.46
		l-2.02,2.23l-2.52-0.091l0,0l0.02-3.109l-2.16,0.28l-0.61-0.73l0.11-3.53l-1.84,1.16l-3.17,0.32l-0.68-0.811l1.81-4.56l-0.84-1.79
		l-3.76-0.37l0.73-2.15l-1.03-2.1l1.22-0.229l0.75-2.131l-3.31-0.84l0,0l-2.17-3.38l-1.02-0.09l1.6-2.95l-0.68-1.18l0,0l6.6-5.25
		l12.82-0.75l1.61-1.44l4-1.09L195.35,439.24z"/>
	<path id="TH-74" fill="#1E3250" stroke="#1E3250" stroke-width="0.5" d="M201.34,472.09l0.55,6.38l2.07,0.8l1.64,4.961l1.56-0.211
		l-0.66,4.591l0,0l-5.47,0.46l-2.97-1.261l-0.55-0.1l-0.95,1.78l-12.24,3.81l0,0l-0.4-2.17l-2.91-3.45l0,0l0.96-2.71l-0.83-4.46
		l1.51-0.49l0.84-2.21l0,0l2.52,0.091l2.02-2.23l2.13-0.46l3.37,0.07l0.71,1.22l2.67-0.82l1.4-2.02L201.34,472.09z"/>
	<path id="TH-75" fill="#1E3250" stroke="#1E3250" stroke-width="0.5" d="M169.34,499.99l2.37-9.73l1.95-2.12l-0.43-0.72l3.52,1.7
		l1.96-0.58l0.98-1.38l1.32,0.52l0,0l2.91,3.45l0.4,2.17l0,0l-2.05,1.09l-1.78,3.29l-1.59-0.439l0.02,2.37l-3.13,2.609l0,0
		l-1.79,1.07l-2.02-0.43l-0.77,2.79l-1.68,0.04L169.34,499.99z"/>
	<path id="TH-76" fill="#1E3250" stroke="#1E3250" stroke-width="0.5" d="M125.78,508.35l1.3,0.351l2.8,3.68l3.55-1.96l-0.05-2.95
		l1.84-1.529l6.06,3.989l1.33,0.13l1.19-1.25l1.97,1.391l0.99-2.03l3.74,0.87l3.94-0.33l1.9-0.86l0.09-4.909l2.7-2.41l3.56-1.59
		l6.65,1.05l0,0l0.19,5.7l1.68-0.04l0.77-2.79l2.02,0.43l1.79-1.07l0,0l-0.73,2.03l2.96,2.13l2.27,3.43l3.2,1.94v5.27l2.17,1.721
		l-4.06,6.279l-4.91,15.32l-0.73,7.44l0,0l-2.2,0.649l-1.17-0.859l-1.49,1.029l-3.86-0.619l-4.49,3.229l-0.63-3.13l-0.82,0.33
		l-1.35-1.83l-4.84,0.96l-1.78-1.04l-0.39,2.51l1,1.45l-0.73,3.67l-1.6-0.53l-1.05-2.109l-2.58,0.1l-1.26,1.12l-2.23-2.01l-3.3,0.52
		l0,0l-1.82-2.239h-2.23l-2.31-1.721l-0.43-1.439l-2.89-1.101l0.33-0.77l-2.06-2.75l-2.02,0.37l-1.18-6.851l-2.44-1.819l-0.22-4.17
		l-1.36-1.141l2.19-1.99l-0.02-2.369l-4.75-3.271l-1.67-2.37l2.28-3.13l0.03-3.19l-1.18-0.81l0.46-1.26l2.29-0.95l2.79,1.03
		L125.78,508.35z"/>
	<path id="TH-77" fill="#1E3250" stroke="#1E3250" stroke-width="0.5" d="M141.19,551.22l3.3-0.52l2.23,2.01l1.26-1.12l2.58-0.1
		l1.04,2.109l1.6,0.53l0.73-3.67l-1-1.45l0.39-2.51l1.78,1.04l4.84-0.96l1.34,1.83l0.82-0.33l0.64,3.13l4.479-3.229l3.86,0.619
		l1.49-1.029l1.16,0.859l2.2-0.649l0,0l0.1,3.649l1.87,4.4l-0.71,1.1l0.35,4.521l1.58,6.64l-1.95,4.9l3.02,5.18l-3.35,3.72
		l-0.51,3.41l-1.32,0.3l-4.85,5.431l-2.57,4.159l-1.33,3.94l1.51,3.33l-1.23-0.25l-1.18,1.44l1.3,2.239l-1.52,1l1.06,2.19
		l-1.33-0.51l-3.98,3.72l-6.36,11.859l-5.86,14.61l0.26,3.87l1.82,2.39l-0.2,1.15l-0.9,0.81l-1.39-1.68l-1.4,0.61l-2.42,3.689
		l0.52,10.7l0,0l-1.77-0.26l-4.13,2.52l-4.25-1.37l-4.43,1.211l-7.5-3.04l-1.42-0.891l0.23-1.189l0,0l0.93-0.4l0.96-2.95l3.08-1.81
		v-2.29l2.6-4.021l1.56,0.74l1.43-1.85l-0.78-2.16l2.06-2.63l-0.97-2.05l1.06-1.341l1.01,0.25l1.5-2.609l2.49-1.19l-0.51-4.95
		l1.75-1.319l1.49,0.13l0.39-2.021l1.71-1.7l-1.07-3.42l0.66-2.159l2.68-1.46l1.48,1.01l2.46-0.33l1.63-4.46l3.13-2.431l0.26-4.229
		l1.62-2.36l-2.87-0.649l-0.81-2.44l-1.45-0.29l-0.55-4.8l0.92-0.84l-0.1-2.58l-3.71-1.55l-0.21-3.45l2.5-5.44l-3.74-0.17l-1.63,1.3
		l-1.24-0.25l1.48-3.909l-1.57-3.15l0.86-2.59l-1.56-0.89l-1.84-3.851l0.86-4.38l-1.4-1.32l-0.06-1.59l-1.55-0.71l0.27-1.46
		l1.33-0.73l-0.27-4.14L141.19,551.22z"/>
	<path id="TH-80" fill="#1E3250" stroke="#1E3250" stroke-width="0.5" d="M164.42,773.96l1.13-0.11l0.47,1.32l1.83-0.43l0.85,3.479
		l2.26,3.04l-0.43,4.67l2.32,2.91l0.35,12.78l2.96,20.2l0.9,1.41l2.43,0.64l5.43,11.36l3.31,1.67l2.36,0.08l-1.65-3.44l1.12-2.71
		l-0.35-1.46l-3.02-1.33l3.63,1.07l2.62,3.22l4.77,14.08l3.91,21.399l0,0l-1.67-0.29l-0.3,1.521l-4.08-0.17l-1.06,1.34l-5.88,1.82
		l0,0l-6.49,2.25l-4.05-1.601l-1.95-1.939l-2.55,0.45l-2.26-0.761l-5.47,0.21l-1.57,2.261l-3.14,0.08l0,0l0.51-3.5l-0.7-2.44
		l1.61-1.13l-1.87-2.51l-1.74,0.489l-3.15-1.56l-1.75,0.23l-1.95,1.71l-0.4,1.85l-3.36,2.71l-0.5,2.38l-1.62,0.46l-2.27-0.359
		l-0.61-1.62l-3.15,1.93l-0.34-5.271l-1.55-0.149l0,0l0.05-1.87l1.22-1.15l-2.1-7.26l-2.61-1.85l-3.35,0.229l-0.53-1.29l2.1-3.399
		l-0.51-2.21l1.56-2.4l-0.35-1.47l-2.63-1.48l0,0l-1.09-2.609l-2.34-1.04l-0.39-1.29l1.69-4.22l2.39-1.66l-0.4-0.87l0.91,0.45
		l1.94-1.28l0.48-1.49l1.53,1.34l3.32-2.029l-0.3-1.681l3.33-3.189l-0.49-2.04l0.98-1.181l1.13,0.17l0.85-3.31l2.05-1.61l0.52-2.739
		l-0.85-5.101l2.83-1.04l-0.16-1.72l1.28-2.37l1.98-1.109l1.55,1.08l1.29-1.24l3.31-0.36l-0.15-2.64l2.09-0.41l1.4-5.59l-0.05-5.351
		l-1.35-1.05l1.93-4.33l-0.37-4.909l1.43-2.011l0,0L164.42,773.96z"/>
	<path id="TH-81" fill="#1E3250" stroke="#1E3250" stroke-width="0.5" d="M114.1,886.79l2.93,3.76l-0.29,2.36l2.35,4.72l-0.91,1.6
		l-4.33-6.75l-0.6-5.229L114.1,886.79z M116.12,884.28l2.81,0.14l0.78,0.93l0.66,1.66l-0.8,4.13l-0.7-1.029l-1.39,0.51l-1.25-1
		l-2.04-2.99l0.02-2.08L116.12,884.28z M114.85,873.16l3.21,0.91l0.31,1.54l1.56,0.079l0.37,2.181l-2.45,6.27l-3.48-0.79l-1.23-3.26
		l0.49-3.17l-0.86-2.06l1.69-0.38L114.85,873.16z M108.53,872.88l1.37,0.59l0.77,4.45l-3.47-3.77L108.53,872.88z M112.32,871.03
		l1.96,1.6l-1.46,1.66l-1.08-2.04L112.32,871.03z M116.4,869l0.58,0.76l-1.42,1.82L116.4,869z M110.46,868.1l1.11,1.95l-0.61,3.33
		l-1.59-4.86L110.46,868.1z M91.54,820.44l1.27,0.159l1.72-3.029l3.22,2.31l0.32-1.01l2.92,0.02l6.18,6.29l0.84,9.311l6.49,4.25
		l5.31-0.33l9.46,4.38l1.92-0.75l0,0l2.63,1.479l0.35,1.471l-1.56,2.399l0.51,2.21l-2.1,3.4l0.53,1.29l3.35-0.23l2.61,1.851
		l2.1,7.26l-1.22,1.15l-0.05,1.869l0,0l-0.52,0.521l0,0l-0.86,0.37l0,0l-4.32,2l-0.59,1.27l0.9,0.65l-2.58,2.17l1.06,1.94l-0.4,1.01
		l1.03,0.1l-1.04,2.36l1.21,1.229l0.23,3.03l-3.43,3.35l0,0l-5.43-2.88l-0.63-1.699l-2.12-1.54l-0.63-4.53l-1.78-0.12l0.03-1.57
		l-2.55-0.84l2.12-5.51l-1.66,0.939l2.11-1.939l-0.06-1.13l-4.9,5.31l-2.02-3.51l-1.82,0.62l-2.02-3.73l0.99-0.83l-2.58-2.449
		l0.06-1.03l-2.64-0.36l1.51,1.15l-1.53,1.319l-1.38-0.5l-1.12,1.761l-2.76-3l-1.99,0.33l-0.52,1.2l-1.84-3.551l1.38-3.66
		l-0.39-1.409l-1.14,1.02l1.29-4.5l-1.74-2.79l0.34-1.83l-0.6-0.609l-0.57,3.979l-0.59-6.399l-3.91,2.859l-0.5-1.3l-1.05,0.38
		l0.62-5.65l2.22-0.909l-1.41-1.841l1.12-1.109l0,0l0.03-2.16l-1.07-1.52l3.9-7.78L91.54,820.44z"/>
	<path id="TH-82" fill="#1E3250" stroke="#1E3250" stroke-width="0.5" d="M80.68,856.37l2.18,1.64l1.62-0.35l-0.39,1.25l1.19,1.34
		l-0.73,1.73l0.97,3.71l-1.17,5.1l-0.95-1.86l-0.16,1.681l-1.08-4.641l0.06-2.09l0.99,0.26l0.54-1.779l-2.49-1.601l-1.36-2.319
		l-0.42-1.24L80.68,856.37z M87.01,850.61l-1.63,7.159l-0.41-1.26l-1.29,0.141l-1.62-1.511l1.69,0.091l0.9-2.461L87.01,850.61z
		 M62.33,794.56l3.65,2.12l-3.83,8.011l-1.26-3.341l1-2.689l-1.06-3.59L62.33,794.56z M63.68,784.13l2.97,6.24l-2.01,2.49
		l-3.52,0.68l-0.18-6.59l0.81-2.641L63.68,784.13z M66.33,784.75l0.22,2.21l-1.4-1.83l0.06-1.81L66.33,784.75z M65.26,778.05
		l-1.68,3.29l0.47,0.9l-2.13,1.66l0.02-2.37l2.85-3.94L65.26,778.05z M70.6,771.95l1.61,0.51l2.09-0.76l1.46,1.46l-0.91,0.91
		l3.39,0.5l0,0l1.42,0.819l0.24,2.841l-2.3,3.64l0.41,3.19l-1.38,0.42l-0.11,1.63l0.92,2.89L76,791.22l1.02,3.2l1.54,1.391l-4.04,2
		l-0.36,4.77l4.05,1.01l0.57,1.36l1.46,0.16l1.3,2.989l2.95,1.15l-0.3,5.76l-3.83,3.511l4.48,2.29l3.03-2.24l1.73-0.101l1.96,1.96
		l0,0l0.24,2.41l-3.9,7.78l1.07,1.521l-0.03,2.159l0,0l-1.42,0.931l0.94,1.97l-2.33,0.24l-0.83-1.83l-1.24,3.17l-5.04,2.399
		l-0.69-1.109l-0.77,1.62l-4.28,0.5l1.93,1.27l0.51,4.95l-1.6,1.87l-0.78,3.63l-1.39-1.7l-1.65,2.42l-1.83-4.16L66.83,851
		l-0.62-1.62l-3.03-0.03L61.41,838.2l-3.39-12.39l0.61-0.801l1.69,1.551l1.18,2.609l0.14-2.54l-2.41-1.979l1.14-1.48l-0.69-2.04
		L60.8,819l-0.82-4.59l-1.27-1.01l1.48,0.029l1.57-1.8l-0.59-3.2l0.79-3.37l3.92-7.6l0.74-0.47l1.84,1.27l1.5,2.181l-1.65-3.851
		l1.5-0.649l-1.39-0.46l2.63-2.32l-3.42,2.17l-2.02-2.11l1.92-2.39l2.59,0.96l-0.63-1.17l0.84-0.67l-1.29,0.21l0.23-1.48l-1.39,0.36
		l-0.64-3.729l-1.77-3.04l0.92-1.91l0.9,2.84l0.22-2.729l2.23,1.899l-0.91-2.28l-1.47-0.96l1.65-2.149l-0.53-0.66l1.15-0.61
		L70.6,771.95z"/>
	<path id="TH-83" fill="#1E3250" stroke="#1E3250" stroke-width="0.5" d="M63.91,849.71l2.99,1.87l1.08,4.07l1.34-0.48l0.88,2.25
		l1.31,0.391l1.86-1.271l0.68,1.93l-2.21,3l1.07,2.591l-2.19,0.56l1.69,5.49l1.5-1.11l0.24,2.1l-0.95,0.431l0.44,0.81l-2.62-0.359
		l-0.36,1.38l1.15,0.899l0.13,2.4l-1.13-0.86l-0.45,0.62l-0.74-2.2l-0.82-0.08l-1.36,1.061l-0.42,2.91l-1.88,1.5l-1.8-2.08
		l0.95-1.16l-0.57-3.44l-1.98-2l1.89-0.01l0.45-1.51l-2.54-1.85l1.7-1.49l-0.85-2.08l0.97,0.25l0.46-0.9l-1.44-4.939l2.09-2.471
		l-1.2-5.989L63.91,849.71z"/>
	<path id="TH-84" fill="#1E3250" stroke="#1E3250" stroke-width="0.5" d="M183.67,755.49l1.39,1.34l-2.3,3.81l1.16,2.94l-1.63,0.13
		l-2.68,3.34l-3.06,0.73l-0.9-0.88l-1.49,0.319l0.35-2.689l-1.08-2.38l1-0.4l0.05-2.71l-1.46-2.29l4.66-1.13l4.81,2.08
		L183.67,755.49z M93.94,754.71l1.85-1.84l0.15-3.97l5.15-1.15l1.79-1.83l2.23-0.32l6.21,2.19l0.58-0.49l4.73,4.01l1.4-0.779
		l-1.6-1.71l0.42-1.061l2.64,0.71l2.8-0.71l0,0l0.78,3.32l2.62,3.6l2.17,7.95l4.38,5.98l-1.09-0.4l-1.86,2.75l-2.99,1.66l0.26,5.399
		l1.2,1.511l1.78,1.09l2.87-1.62l2.03,2.28l1.55-0.46l0.5,1.739l2.91-1.069l3.62,0.5l1.72-1.04l2.53-4.811l5.15,1.17l2.74-2.529
		l2.36-0.57l-0.08-1.63l2.9,1.7l3.1-0.69l0,0l-1.43,2.01l0.37,4.91l-1.93,4.33l1.35,1.05l0.05,5.351l-1.4,5.59l-2.09,0.41l0.15,2.64
		l-3.31,0.36l-1.29,1.239l-1.55-1.08l-1.98,1.11l-1.28,2.37l0.16,1.72l-2.83,1.04l0.85,5.101l-0.52,2.739l-2.05,1.61l-0.85,3.31
		l-1.13-0.17l-0.98,1.181l0.49,2.039l-3.33,3.19l0.3,1.68l-3.32,2.03l-1.53-1.34l-0.48,1.49l-1.94,1.279l-0.91-0.449l0.4,0.869
		l-2.39,1.66l-1.69,4.221l0.39,1.289l2.34,1.04l1.09,2.61l0,0l-1.92,0.75l-9.46-4.38l-5.31,0.33l-6.49-4.25l-0.84-9.311l-6.18-6.29
		l-2.92-0.02l-0.32,1.01l-3.22-2.31l-1.72,3.03l-1.27-0.16l0,0l-1.96-1.96l-1.73,0.1l-3.03,2.24l-4.48-2.29l3.83-3.51l0.3-5.761
		l-2.95-1.149l-1.3-2.99l-1.46-0.16l-0.57-1.359l-4.05-1.011l0.36-4.77l4.04-2l-1.54-1.391l-1.02-3.199l1.44-1.221l-0.92-2.89
		l0.11-1.63l1.38-0.42l-0.41-3.19l2.3-3.64l-0.24-2.84l-1.42-0.82l0,0l2.73-3.521l2.7-0.47l1.67,1.75l3.67-0.89l0.42-2.271
		l-1.62,0.03l-0.05-2.66l1.63,0.13l0.64-0.68l-0.79-2.11l1.68-0.239l4.98-5.08l-0.64-1.99l-1.37-0.57L93.94,754.71z M183.92,748.1
		l-0.87,1.36l-5.97-3.3l-1.16-3.88l0.58-1.46l5.87,0.779l1.64,1.75L183.92,748.1z M168.04,719.01l1.22,2.48l-1.91,2.189l-0.84-0.91
		l0.8-1.47l-0.54-1.489L168.04,719.01z"/>
	<path id="TH-85" fill="#1E3250" stroke="#1E3250" stroke-width="0.5" d="M72.1,743.21l0.88,2.46l-2.56,2.061l0.41-1.011l-1.08-0.88
		L72.1,743.21z M74.89,736.93l1.01,0.431l-1.29,4.54l-1.42-2.11l0.79-1l-0.36-1.46l0.93-1.141L74.89,736.93z M103.47,674.13
		l0.62,0.78l0,0l1.69,1.8l-1.35,4.48l0.77-0.58l1.64,1.25l-0.13,1.6l1.52,0.79l-0.37,1.74l0.92-0.311l0.42,0.82l-1.61,2.37
		l1.44,2.05l-2.98,2.17l-2.27,3.38l1.12,4.021l1.86,0.279l0.98,2.971l-2.9,4.26l0.56,1.56l-2.57,5.341l1.24,1.819l-1.31,0.37
		l-0.42,4l-1.87,2.061l3.87,0.119l0.79,2.49l-2.59,2.32l-1.47-0.01l-2.04,3.899l-2.27-0.96l-1.69,1.141l-2.28,2.68l-0.14,1.97
		l-5.89,5.21l-0.39,1.66l1.33,4.9l0.89,0.55l-0.83,1.479l5.03,2.29l1.13,1.84l0,0l-0.04,1.29l1.37,0.57l0.64,1.99l-4.98,5.08
		l-1.68,0.24l0.79,2.109l-0.64,0.68l-1.63-0.13l0.05,2.66l1.62-0.03L89,771.46l-3.67,0.89l-1.67-1.75l-2.7,0.471l-2.73,3.52l0,0
		l-3.39-0.5l0.91-0.91l-1.46-1.46l-2.09,0.76l-1.61-0.51l0,0l0.3-3.77l1.46-0.311l2.5-10.59l0.94-0.17l-0.58,0.66l1.01,2.02
		l0.81-0.609l1.07,1.55l-0.33-2.71l2.42-1.11l-1.76-1.78l-2.92-0.58l-0.11-1.699l1.04-0.4l1.67,1.8l0.33-0.52l-0.56-1.25l0.88-1.61
		l-0.99,0.4l-0.92-2.271l1.65,0.87l1.28-0.67l1.83-3.1l0.01-1.32l-3.74,0.56l0.82-1.05l-0.37-1.93l2.06,0.03l2.62-3.11l-0.22-0.6
		l-2.48,2.489l-1.4-3.609l1.2-0.32l-0.32-1.06l0.93-0.9l0.95,0.72l0.86-3.1l1.1-0.62l1.24-4.49l4.87-8.42l5.07-13.649l0.21-4.65
		l3.86-5.25l-0.59-0.97l1.19-2.94l-1.27-5.34l-1.89-1.07l0.59-3.979L103.47,674.13z"/>
	<path id="TH-86" fill="#1E3250" stroke="#1E3250" stroke-width="0.5" d="M121.74,657.28l-0.23,1.189l1.42,0.891l7.5,3.04l4.43-1.21
		l4.25,1.369l4.13-2.52l1.77,0.26l0,0l-0.35,3.41l1.93,2.72l-0.66,1.75l-0.84,0.79L144,667.15l-0.93,1.119l-1.77,0.04l-1.89,7.36
		l-3.62,4.87l0.7,1.09l-0.73,0.729l-0.63-1.239l-1.88,0.729l-2.72,4.74l-0.47,4.08l-2.4,0.46l0.27,1.84l1.67-0.42l-0.6,1.08
		l-1.77,0.31l-0.3,1.48l3.74,4.21l0.01,3.33l-0.76,0.64l-1.22-0.67l-1.02,1.29l-3.13-1.93l-3.09,1.91l0.8,3.67l2.34,1.649
		l0.85-0.369l-0.15,1.46l1.2,1.6l1.74-0.43l-2.3,1.59l-1.3-0.3l-3.1,6.21l0.3,3.6l2.04,2.23l-0.43,1.97l-1.06-0.25l-0.62,1.3
		l0.97,9.1l-1.87,2.591l1.43,7.939l0,0l-2.8,0.71l-2.64-0.71l-0.42,1.061l1.6,1.71l-1.4,0.779l-4.73-4.01l-0.58,0.49l-6.21-2.19
		l-2.23,0.32l-1.79,1.83l-5.15,1.15l-0.15,3.97l-1.85,1.84l0,0l-1.13-1.84l-5.03-2.29l0.83-1.48l-0.89-0.55l-1.33-4.899l0.39-1.66
		l5.89-5.21l0.14-1.97l2.28-2.681l1.69-1.14l2.27,0.96l2.04-3.9l1.47,0.011l2.59-2.32l-0.79-2.49l-3.87-0.12l1.87-2.06l0.42-4
		l1.31-0.37l-1.24-1.82l2.57-5.34l-0.56-1.56l2.9-4.261l-0.98-2.97l-1.86-0.28l-1.12-4.02l2.27-3.38l2.98-2.17l-1.44-2.051
		l1.61-2.369l-0.42-0.82l-0.92,0.31l0.37-1.739l-1.52-0.79l0.13-1.601l-1.64-1.25l-0.77,0.58l1.35-4.479l-1.69-1.8l0,0l1.09-0.471
		l1.24-3.12l2.38,1.011l3.51-3.011l-0.77-4.569l1.64-3.17l2.27,1.569l1.47-0.51l1.59-4.01L121.74,657.28z"/>
	<path id="TH-90" fill="#1E3250" stroke="#1E3250" stroke-width="0.5" d="M204.38,910.21l0.01,0.13l0,0l0.54,1.851l3.44,1.8
		l-1.08,0.51l0,0l-1.41,0.5l-0.72,1.96l1.57,0.25l0.53,2.66l2.11,0.14l0.25,1.04l0.89-0.83l1.42,1.54l4.18-0.56l2.86-2.44
		l-0.93-3.54l13.22,17.17l3.59,1.681l1.34-0.74l4.13,3.729l5.66,3.21l4.61,0.17l0,0l-1.33,1.171l2.06,0.79l-3.02,3.3l0.22,2.399
		l-0.92,1.2l2.51,0.561l0.17,3.109l3.34,2.86l0,0l-1.32,1.05l1.58,1.771l-2.84,2.81l-1.9,0.26l-1.2,2.851l-1.58,1.13l-1.56-0.271
		l-1.1,2.351l-2.25,0.989l-0.71,2.641l0.8,5.16l-5.38,2.17l-0.41-1.221l0,0l0.29-3.17l-1.72-0.18l0.1-4.95l-3.07-2.24l-1.71,0.271
		l-0.8-3.271l-2.15,2.49l-3.74,1.851l-6.17-3.5l-0.94,0.729l-2.45-0.65l-1.44-2.08l-2.16-0.43l-2.29,1.13l-3.97-1.72l-0.81-2.18
		l-2.61-2.07l0.74-4.04l-1.75-1.11l-0.24-1.97l-1.15,0.04l-0.38,1.11l-2.51-0.181l-2.06-2.14l0,0l0.6-2.34l-1.55-3.24l2-4.29
		l-2.4-2.7l-4.23-0.77l-2.89-3.51l0.24-1.49l-1.35-1.46l1.09-1.431l-1.02-1.069l-0.5-3.431l0,0l0.44-2.02l3.26-1.89l3.02,1.12
		l1.25-1.78l8.76-2.32l4.88-7.06l0,0l0.03,0.09l0,0l-0.01,0.49l0,0V910.21z M188.66,872.03l5.88-1.82l1.06-1.34l4.08,0.17l0.3-1.521
		l1.67,0.29l0,0l8.37,34.091l3.45,7.949l4.69,7.67l-2.23,0.08l-4.8-4.109l-2.44,0.33l0,0l-1.94-1.25l1.34-0.88l-0.06-1.801
		l-0.4-3.51l-1.36-1.28l0.44-6.27l-1.29-6.08l-4.82-1.021l-2,4.891l-1.3-0.96l-0.54-2.521l1.66-2.58l0,0l1.5,0.44l0,0l0.72-3.13
		l-1.04-7.82l0,0l-1.68-3.41l-0.99,0.16l0,0l-1.05,1.09l-3.34,0.33l0,0l-1.9-1.83l-3.13,0.33L188.66,872.03z"/>
	<path id="TH-91" fill="#1E3250" stroke="#1E3250" stroke-width="0.5" d="M130.22,959.23l3.31,1.739l-0.84,2.86l-1.97,0.06
		L130.22,959.23z M128.25,958.86l0.69,1.81l-2.5,1.19l-2.6-0.561l0.89-1.92L128.25,958.86z M156.07,949.68l1.6,2.351l-0.37,3.96
		l1.36,5.3l-0.37,1.27l-1.14-0.76l-0.2,1.87l-1.13,0.61l-4.12-6.58l1.11-1.05l0.14-2.961l1.77-1.279l0.15-3.971L156.07,949.68z
		 M163.23,922.29L163.23,922.29l1.44-0.1l4.96,3.93l2.58-1.86l4.39-0.13l2.25-1.03l0,0l2.02,1.57l0.73-1.27l1.18,0.109l0,0l0.5,3.43
		l1.02,1.07l-1.09,1.43l1.35,1.461l-0.24,1.489l2.89,3.511l4.23,0.77l2.4,2.7l-2,4.29l1.55,3.24l-0.6,2.34l0,0l-2.23,2.16
		l0.62,2.659l-0.96,2.141l1.18,3.06h-1.86l0.46,5.34l-2.63,6.271l-1.54-6.15l-1.14,0.09l0.84-3.76l-1.27-0.42l-0.97,2.811
		l-2.85-1.971l-2.3-4.279l-2.49,1.59l-0.09-2.21l1.74-0.84l-1.54-3.28l-1.09,1.5l-0.84-2.17l-1.12-0.11l0.69-2.59l-0.74-0.83
		l-0.21,1.34l-1.7,0.05l-2.65-4.689l-0.4,1.01l-1.86-0.13l-1.78-4.13l-1.71,0.359l-2.07-2.029l-1.71,0.42l-1.31-2.94l0.69-0.47
		l-0.36-2.66l1.61-0.66l-0.37-0.97l-1.25,0.73l-0.82-2.91l1.02-0.84l-1.02-1.66l1.78-2.48l0.38,0.73l2.44-4.271L163.23,922.29z"/>
	<path id="TH-92" fill="#1E3250" stroke="#1E3250" stroke-width="0.5" d="M149.79,922.97l3.27,2.32l-3.4-0.82l-0.75-2.2
		L149.79,922.97z M138.38,912.73l3.54,0.829l-2.56,0.82l-1.96,2.5l-1.27-1.24l0.24-2.85l1.14-1.03L138.38,912.73z M138.33,866.19
		l1.55,0.149l0.34,5.271l3.15-1.931l0.61,1.62l2.27,0.36l1.62-0.46l0.5-2.38l3.36-2.71l0.4-1.851l1.95-1.71l1.75-0.229l3.15,1.56
		l1.74-0.49l1.87,2.511l-1.61,1.13l0.7,2.439l-0.51,3.5l0,0l2.33,4.55l-0.26,1.32l1.11,0.641l0.31,3.979l1.98,1.42l-0.29,2.03
		l-1.89,0.35l1.65,1.51l-0.72,2.53l2.48,2.54l-1.04,2.33l2.06,1.83l-0.14,1.42l3.54,5.141l0.24,4.029l2.27,0.76l0.51,3.461
		l-0.89,1.68l4.39,8.6l0,0l-2.25,1.03l-4.39,0.13l-2.58,1.86l-4.96-3.931l-1.44,0.101l0,0l-4.27-0.53l-2.38,1.34l-0.6-4.14
		l-3.48,2.59l-1.48-0.729l-4.32-7.44l0.75-1.7l1.83-0.42l1.72-4.45l0.89,0.521l-1.06-1.87l-1.44,3.68l-2.2,1.561l-1.36-0.721
		l0.33-8.329l-2.01,3.6l0.04,5.78l-1,0.6l-5.01-1.64l-3.83-4.75l0.72-1.631l-1.44-6.199l-1.12-0.94l-0.99,0.72l-0.81-1.25
		l1.41-0.189l0.4-1.53l-2.21-3.99l-0.09-1.909l-0.96,0.829l-0.56-0.85l0.35-2.11l0,0l3.43-3.35l-0.23-3.03L131,878.57l1.04-2.36
		l-1.03-0.1l0.4-1.01l-1.06-1.94l2.58-2.17l-0.9-0.65l0.59-1.27l4.32-2l0,0l0.86-0.37l0,0L138.33,866.19z"/>
	<path id="TH-93" fill="#1E3250" stroke="#1E3250" stroke-width="0.5" d="M204.84,903.51l0.46,0.04l0,0l0.27,4.66l2.1,1.74
		l-0.15,1.45l-1.53,0.76l-0.92-0.48l-0.29-3.25l-2.1-1.569l2.02-3.38l0,0L204.84,903.51z M201.54,901.86l0.07-3.82l3.1-1.2
		l-2.14,1.8l1.28,2.591l-0.48,2.119l-1.03,0.471l0.16,3.02l-1.68-0.17l-0.22-0.87l0.59-3.37l1.16-0.359L201.54,901.86L201.54,901.86
		L201.54,901.86z M161.19,872.97l3.14-0.08l1.57-2.26l5.47-0.21l2.26,0.76l2.55-0.45l1.95,1.94l4.05,1.6l6.49-2.25l0,0l-1.14,4.721
		l3.13-0.33l1.9,1.83l0,0l-3.71,3.34l1.97,14.08l1.91,1.93l1.51-0.5l-0.15,2.05l2.14,5.29l2.87,2.46l0.04,1l1.74-1.05l2,0.64
		l1.43,1.881l0,0l0.06,0.189l0,0l-4.88,7.061l-8.76,2.319l-1.25,1.78l-3.02-1.12l-3.26,1.891l-0.44,2.02l0,0l-1.18-0.11l-0.73,1.271
		l-2.02-1.57l0,0l-4.39-8.6l0.89-1.68l-0.51-3.461l-2.27-0.76l-0.24-4.03l-3.54-5.14l0.14-1.42l-2.06-1.83l1.04-2.33l-2.48-2.54
		l0.72-2.53l-1.65-1.51l1.89-0.35l0.29-2.03l-1.98-1.42l-0.31-3.979l-1.11-0.641l0.26-1.32L161.19,872.97z"/>
	<path id="TH-94" fill="#1E3250" stroke="#1E3250" stroke-width="0.5" d="M265.52,934.02l5.2,3.32l11.12,2.54l2.09,1.26l11.32,18.17
		l0,0l-3.71,0.21l-0.98-3.439l-1.36,0.25l-0.28-0.98l-0.25,0.75l-0.98-0.58l-2.4,1.021l1.05,3.53l0,0l-1.86,1.06l-2.01-0.43
		l-2.11-3.28l-3.1,0.48l-0.53,1.409l-1.61-1.239l-5.82,2.75l-2.34-0.92l-1.04-7.75l-5.07,5.869l-5.49-0.899l-1.72-1.32l0,0
		l-3.33-2.85l-0.17-3.12l-2.51-0.561l0.91-1.199l-0.21-2.4l3.01-3.3l-2.06-0.78l1.33-1.17l0,0l8.31-0.58l4.78-2.51l2.1,1.66
		l1.38-0.59l1.61,0.8l1.02-0.95l-1.78-2.31l-1.33-0.311l-1.18-1.38l-2.86,0.86L265.52,934.02z"/>
	<path id="TH-95" fill="#1E3250" stroke="#1E3250" stroke-width="0.5" d="M253.64,955.8l1.72,1.32l5.49,0.899l5.07-5.869l1.04,7.75
		l2.34,0.92l5.82-2.75l1.61,1.239l0.53-1.409l3.1-0.48l2.11,3.28l2.01,0.43l1.86-1.06l0,0l1.07,1.55l-5.1,5.04l1.12,1.51l-5.79-1.37
		l0.37,2.71l-3.04,0.25l-0.47,3.34l-1.98,2.391l1.05,6.56l-2.16,2.12l1.14,2.82l3.16,2.479l0.78,3.17l1.92,1.08l-0.15,5.21l1.63,2.7
		l-0.48,3.15l0.7,0.6l0,0l-1.99,1.25l-5.19-0.01l-1.68,2.61l-3.59,1.85l-1.85-0.92l-0.9,0.56l-1.7,3.46l0.49,3.16l-8.27,6.66
		l-1.4-4.15l-3.32-4.27l-2.31-0.44l-2.97-3.96l1.98-1.939l-0.63-1.021l1.31-4.189l4.05,0.13l2.79-4.54l-1.39-1.4l0.46-2.43
		l-0.71-1.33l1.98-3.18l-4.95-2.74l1.83-2.41l2.73-1.11l-1.42-2.88l0.44-0.739l-1.19-0.83l-5.04,0.5l-2.8-2.42l-2.54,2.68
		l-2.36,0.31l-1.74-1.13l-1.26,1.48l-1.7-3.21l0.51-1.29l0,0l0.41,1.22l5.38-2.16l-0.8-5.16l0.71-2.64l2.24-0.99l1.11-2.359
		l1.56,0.279l1.58-1.13l1.2-2.85l1.9-0.26l2.84-2.82l-1.58-1.771L253.64,955.8z"/>
	<path id="TH-96" fill="#1E3250" stroke="#1E3250" stroke-width="0.5" d="M286.34,960.07l-1.05-3.53l2.4-1.021l0.98,0.58l0.25-0.75
		l0.28,0.98l1.36-0.25l0.98,3.439l3.71-0.21l0,0l6.3,8.5l3.78,1.761l5.25,5.77l9.01,6.22L319,984.83l1.03,3.45l-2.64,4.479
		l-4.24,2.7l-3.05,3.6l-1.64,4.671l1.5,3.06l-1.77,1.93l-2.25,0.4l-0.24,1.729l-3.35,1.61l-0.51,3.32l-2.17-1.141l-2.2-2.939
		l-2.73,0.76l-1.02,1.86l-2.58-3.73l-0.11-3.83l-1.79-0.5l-3.63-3.67l-5.5,2.79l0,0l-0.7-0.6l0.48-3.15l-1.63-2.7l0.15-5.21
		l-1.92-1.08l-0.78-3.17l-3.16-2.479l-1.14-2.82l2.16-2.12l-1.05-6.56l1.98-2.391l0.47-3.34l3.04-0.25l-0.37-2.71l5.79,1.37
		l-1.12-1.51l5.1-5.04L286.34,960.07z"/>
	<path id="TH-LKSG" fill="#1E3250" stroke="#1E3250" stroke-width="0.5" d="M192.55,878.25l3.34-0.33l1.05-1.09l0,0l0.89-0.25
		l1.78,3.5l0,0l1.04,7.82l-0.72,3.13l0,0l-1.5-0.44l0,0l-1.66,2.58l0.54,2.521l1.3,0.96l2-4.891l4.82,1.021l1.29,6.08l-0.44,6.27
		l1.36,1.28l0.4,3.51l0.06,1.8l-1.34,0.88l1.94,1.25l0,0l-1.39,0.66l0,0l1.08-0.51l-3.44-1.8l-0.54-1.851l0,0l-0.01-0.189l0,0
		l0.01-0.49l0,0l-0.09-0.28l0,0l-1.43-1.88l-2-0.64l-1.74,1.05l-0.04-1l-2.87-2.46l-2.14-5.29l0.15-2.05l-1.51,0.5l-1.91-1.93
		l-1.97-14.08L192.55,878.25z M201.6,898.04l-0.07,3.82l0.81,0.22l-1.16,0.359l-0.37,4.24l1.68,0.17l-0.16-3.02l1.03-0.47l0.48-2.12
		l-1.28-2.59l2.14-1.801l-1.1,0.78L201.6,898.04z M204.71,903.47L204.71,903.47l-2.02,3.38l2.1,1.57l0.29,3.25l0.92,0.48l1.53-0.761
		l0.15-1.45l-2.1-1.739l-0.27-4.66L204.71,903.47z"/>
</g>
</svg>
