<?xml version="1.0" encoding="utf-8"?>
<!-- Generator: Adobe Illustrator 15.0.0, SVG Export Plug-In . SVG Version: 6.00 Build 0)  -->
<!DOCTYPE svg PUBLIC "-//W3C//DTD SVG 1.1//EN" "http://www.w3.org/Graphics/SVG/1.1/DTD/svg11.dtd">
<svg version="1.1" id="Layer_1" xmlns:amcharts="http://amcharts.com/ammap"
	 xmlns="http://www.w3.org/2000/svg" xmlns:xlink="http://www.w3.org/1999/xlink" x="0px" y="0px" width="826.5px"
	 height="554.82px" viewBox="0 1 826.5 554.82" enable-background="new 0 1 826.5 554.82" xml:space="preserve">
<defs>
	
	
		<amcharts:ammap  projection="mercator" bottomLatitude="35.1287599" leftLongitude="52.4478448" topLatitude="42.7988441" rightLongitude="66.707353">
		</amcharts:ammap>
</defs>
<g>
	<path id="TM-M" fill="#1E3250" stroke="#1E3250" stroke-width="0.5" d="M555.09,555.82l22.93-7.42l21.761-13.021l1.35-29.05
		l52.97-9.89l24.351-19.021l14.12-40.57l-68.67-0.39l-1.12-34.45l12.38-19.45L483.94,246.08l-31.681,55.16l29.45,61.24l-1.03,36.199
		l25.63,8.511l-8.26,7.5L482.82,400.9l28.33,49.04l5.109,49.729l-9.97,28.19l33.11,7.39L555.09,555.82z"/>
	<path id="TM-L" fill="#1E3250" stroke="#1E3250" stroke-width="0.5" d="M692.57,436.85L695.39,418l42.681-9.83l12.64-22.77
		l39.4,18.01l9.17-47.601l-57.431-17.42L635.19,269.6l-70.721-59.79l-32.359-82.67l-22.96-12.89l-10.62,10.47l-15.601-5.4
		l-1.33,16.95l-41.27,0.16l15.18,111.48l28.431-1.83L635.16,382.56l-12.38,19.45l1.12,34.45L692.57,436.85z"/>
	<path id="TM-D" fill="#1E3250" stroke="#1E3250" stroke-width="0.5" d="M346.91,1l-26.26,12.79l20.79,24.92l-27.75-14.92
		l-8.29,22.99l-26.35,2.12l-24.33,22.54l11.14,38.77l-34.58,3.91l35.55,89.59l73.88-8.95l39.8,15.43l45.57,0.39l0.96,26.26
		l28.47,11.07l-15.18-111.48l41.27-0.16l1.33-16.95l-29.62,1.3L431.7,107.33l-2.53-27.39l11.45-2l-19.49-14.11l6.86-17.66
		l-43.33-11.26L346.91,1z"/>
	<path id="TM-A" fill="#1E3250" stroke="#1E3250" stroke-width="0.5" d="M455.51,247.91l-28.47-11.07l-0.96-26.26l-45.57-0.39
		l-39.8-15.43l-73.88,8.95l-10.11,6.33l6.61,27.45l-29.94,80.68l31.9,18.43l12.08,21.091l49.05,21.38l61.27,9.739l8.41,22.86
		l31.381,12.84l18.189,27.33l46.35,0.061L490,498.4l16.29,29.46l9.97-28.19l-5.109-49.729l-28.33-49.04l15.229,13.79l8.26-7.5
		l-25.63-8.511l1.03-36.199l-29.45-61.24l31.681-55.16L455.51,247.91z"/>
	<path id="TM-B" fill="#1E3250" stroke="#1E3250" stroke-width="0.5" d="M231.28,114.12l-60.98,1.5l-30.58-49.18L95.56,35.67
		L31.17,51.71L0.72,80.29l25.03,52.41l1.92-46.78l-8.29-0.1l10.76-23.33l48.32-10.62l14.37,48.06l39.03,33.79l-7.18,14.76
		l-21.94-3.86l8.64,16.13l-38.42,3.56l-5.42-19.43l-7.97,11.16l-20.5-2.44l-11.4-23.49l-10.12,44.65l0.1,31.79l15.18,21.08
		l-5.32-18.73l37.2,3.95l-8.88,23.3l17.81,8.91l-29.05,0.21l3.31-10.21l-10.73,19.3l4.29,16.06l-0.65-11.96l23.2-0.67l23.68,31.74
		l-8.77,28.17l4.89,84.41l41.66-6.811l11.41-22.89l33.26-23.021l95.15-12.79l-31.9-18.43l29.94-80.68l-6.61-27.45l10.11-6.33
		L231.28,114.12z"/>
</g>
</svg>
