<?xml version="1.0" encoding="utf-8"?>
<!DOCTYPE svg PUBLIC "-//W3C//DTD SVG 1.1//EN" "http://www.w3.org/Graphics/SVG/1.1/DTD/svg11.dtd">
<svg version="1.1" id="Layer_1" xmlns="http://www.w3.org/2000/svg" xmlns:xlink="http://www.w3.org/1999/xlink" x="0px" y="0px"
	 width="563.82px" height="166.633px" viewBox="0 0 563.82 166.633" enable-background="new 0 0 563.82 166.633"
	 xml:space="preserve" shape-rendering="geometricPrecision">
<path fill="#FFFFFF" d="M199.942,63.092V37.95h7.16v24.28c0,4.738,2.259,8.237,7.859,8.237c5.222,0,7.863-2.747,7.863-8.237V37.95
	h7.16v24.605c0,9.152-6.087,14.374-15.023,14.374S199.942,72.296,199.942,63.092 M237.147,76.336h6.571v-15.45
	c0-4.686,2.097-6.892,5.706-6.892c3.336,0,5.112,2.207,5.112,6.352v15.991h6.567V58.679c0-6.571-3.442-10.444-9.635-10.444
	c-3.068,0-5.974,1.292-7.807,3.93h-0.109v-3.394h-6.405V76.336z M267.891,76.334h6.571V48.77h-6.571V76.334z M267.891,44.572h6.571
	v-6.998h-6.571V44.572z M282.484,69.821c0,4.897,3.442,6.945,7.697,6.945c0.971,0,3.394-0.163,4.848-0.541V70.63
	c-1.293,0.216-2.047,0.269-3.394,0.269c-1.508,0-2.584-0.593-2.584-2.638V53.993h5.978v-5.222h-5.978v-8.343h-6.567v8.343h-3.717
	v5.222h3.717V69.821 M304.992,59.862v-0.378c0-4.145,3.016-5.652,5.814-5.652c2.69,0,5.328,1.507,5.328,5.274v0.756H304.992z
	 M298.152,65.73c0,7.538,6.084,11.252,12.871,11.252c4.844,0,9.203-1.833,11.357-6.136l-5.062-2.91
	c-1.451,2.101-3.769,3.552-5.975,3.552c-3.498,0-6.353-2.044-6.353-5.543v-1.508h17.711v-5.332c0-7.319-5.922-10.818-11.896-10.818
	c-6.84,0-12.654,4.304-12.654,12.058V65.73 M345.857,65.892c0,3.983-3.121,5.438-5.869,5.438c-3.394,0-5.973-1.938-5.973-5.279
	v-6.835c0-3.982,3.014-5.437,5.758-5.437c3.394,0,6.084,1.991,6.084,5.332V65.892 M327.339,66.107
	c0,7.051,4.845,10.875,10.874,10.875c2.477,0,6.189-1.561,7.754-3.714h0.053v3.068h6.404V37.95h-6.566v13.674h-0.158
	c-1.401-1.829-3.934-3.389-7.002-3.389c-6.137,0-11.357,3.714-11.357,11.196L327.339,66.107 M373.316,76.336h6.894V50.117h0.108
	l16.634,26.219h6.998V37.95h-6.894v26.163h-0.104L380.266,37.95h-6.947v38.386H373.316z M427.107,66.161
	c0,2.958-0.861,5.547-6.138,5.547c-3.067,0-4.953-1.187-4.953-3.503c0-2.422,1.832-3.389,4.633-3.389h6.458V66.161 M409.612,68.53
	c0,5.222,3.877,8.343,9.583,8.343c3.552,0,5.647-0.537,8.073-3.068h0.106c0.057,0.431,0.162,2.101,0.268,2.532h6.52
	c-0.321-0.593-0.484-4.686-0.484-5.921V57.009c0-6.729-5.651-8.774-11.792-8.774c-5.166,0-10.928,2.044-10.928,8.075v0.752h5.921
	v-0.971c0-1.776,2.102-2.743,4.953-2.743c3.341,0,5.275,1.24,5.275,4.145v2.532h-7.319C414.457,60.024,409.612,63.198,409.612,68.53
	 M441.431,69.821c0,4.897,3.446,6.945,7.697,6.945c0.971,0,3.396-0.163,4.848-0.541V70.63c-1.292,0.216-2.048,0.269-3.393,0.269
	c-1.508,0-2.581-0.593-2.581-2.638V53.993h5.974v-5.222h-5.974v-8.343h-6.571v8.343h-3.714v5.222h3.714V69.821 M458.395,76.334
	h6.566V48.77h-6.566V76.334z M458.395,44.572h6.566v-6.998h-6.566V44.572z M489.191,65.998c0,3.986-3.017,5.441-5.764,5.441
	c-3.393,0-5.974-1.995-5.974-5.332v-6.783c0-3.986,3.016-5.438,5.759-5.438c3.394,0,5.979,1.935,5.979,5.275V65.998 M470.778,66.16
	c0,7.055,5.974,10.822,12.649,10.822c6.084,0,12.437-4.092,12.437-11.574v-5.653c0-7.055-5.979-11.468-12.65-11.468
	c-6.084,0-12.436,4.092-12.436,11.574V66.16 M501.684,76.336h6.567v-15.45c0-4.686,2.101-6.892,5.706-6.892
	c3.34,0,5.115,2.207,5.115,6.352v15.991h6.566V58.679c0-6.571-3.445-10.444-9.635-10.444c-3.068,0-5.979,1.292-7.807,3.93h-0.109
	v-3.394h-6.405L501.684,76.336L501.684,76.336z M530.597,71.598c2.747,4.04,7.376,5.332,12.329,5.332
	c5.652,0,12.167-3.015,12.167-9.371c0-4.145-2.689-6.783-7.372-7.697l-4.147-0.809c-2.854-0.536-5.224-0.809-5.224-2.743
	c0-2.101,1.887-3.072,4.467-3.072c2.694,0,4.522,0.809,6.142,2.694l4.737-3.23c-2.315-3.284-5.868-4.523-10.821-4.523
	c-5.868,0-10.928,3.284-10.928,9.046c0,4.145,3.016,6.352,7.533,7.16l3.608,0.646c3.715,0.642,5.17,1.13,5.17,3.283
	c0,2.475-2.747,3.394-5.441,3.394c-3.12,0-5.867-1.349-7.588-3.609L530.597,71.598 M199.995,121.865
	c0,8.343,6.299,12.703,14.374,12.703c8.127,0,13.512-4.25,13.512-11.09v-8.989h-13.992v3.067h10.765v5.438
	c0,5.222-3.934,8.562-10.285,8.562c-6.514,0-10.984-3.986-10.984-10.229v-13.139c0-6.299,4.523-10.391,10.716-10.391
	c6.404,0,10.338,3.23,10.338,8.452v1.562h3.23v-2.102c0-6.566-5.656-10.98-13.406-10.98c-8.29,0-14.268,5.547-14.268,13.406V121.865
	 M235.749,127.518c0,3.336,1.345,6.623,6.027,6.623c1.187,0,2.694-0.162,3.986-0.539v-2.422c-0.861,0.108-1.881,0.269-2.962,0.269
	c-2.69,0-3.876-1.613-3.876-3.716V95.43h-3.174L235.749,127.518 M268.538,124.02c0,5.112-2.532,7.859-7.591,7.859
	c-5.279,0-7.81-3.121-7.81-7.701v-7.209c0-4.795,2.641-7.811,7.701-7.811c5.274,0,7.701,3.23,7.701,7.592L268.538,124.02
	 M249.962,124.288c0,6.782,4.414,10.28,10.984,10.28c6.189,0,10.765-3.657,10.765-10.605v-6.941c0-6.785-4.251-10.554-10.875-10.554
	c-6.137,0-10.875,3.609-10.875,10.606L249.962,124.288 M296.643,124.827c0,4.845-3.658,7.051-7.16,7.051
	c-4.198,0-7.859-3.282-7.859-8.452v-5.328c0-5.547,4.092-8.939,7.807-8.939c4.522,0,7.213,2.801,7.213,6.515V124.827
	 M281.622,129.078c1.133,3.499,4.737,5.49,8.185,5.49c5.06,0,10.065-2.959,10.065-10.172v-8.726c0-5.596-3.82-9.258-9.474-9.258
	c-3.067,0-6.838,1.562-8.614,5.438h-0.162V95.482h-3.121v38.387h2.962v-4.791H281.622 M323.025,124.182
	c0,4.629-2.746,7.807-8.127,7.807c-3.394,0-6.519-1.725-6.519-5.332c0-4.575,3.771-5.49,7.429-5.49h7.217V124.182 M305.207,126.818
	c0,4.953,3.982,7.644,8.827,7.644c3.282,0,6.892-0.698,9.099-4.844h0.109c0,0.809,0.109,3.336,0.216,4.251h3.124
	c-0.162-1.184-0.377-5.17-0.377-6.73v-13.029c0-5.812-4.633-7.695-9.852-7.695c-5.011,0-9.961,1.99-9.961,7.322v0.809h2.905v-0.861
	c0-3.502,3.554-4.686,6.894-4.686c4.035,0,6.834,1.451,6.834,5.652v4.146h-7.857C310.754,118.796,305.207,120.787,305.207,126.818
	 M333.852,127.518c0,3.336,1.35,6.623,6.03,6.623c1.187,0,2.688-0.162,3.986-0.539v-2.422c-0.865,0.108-1.886,0.269-2.964,0.269
	c-2.693,0-3.877-1.613-3.877-3.716V95.43h-3.178v32.088 M361.581,121.865c0,8.343,6.295,12.703,14.427,12.703
	c7.753,0,13.297-4.25,13.297-11.09v-1.504h-3.279v0.914c0,5.223-3.719,8.668-10.018,8.668c-6.566,0-11.037-3.986-11.037-10.229
	v-13.139c0-6.299,4.522-10.391,10.77-10.391c6.352,0,10.285,3.395,10.285,8.615v1.613h3.279v-2.153
	c0-6.567-5.652-11.144-13.402-11.144c-8.348,0-14.32,5.547-14.32,13.405L361.581,121.865 M413.485,124.02
	c0,5.112-2.531,7.859-7.592,7.859c-5.277,0-7.811-3.121-7.811-7.701v-7.209c0-4.795,2.642-7.811,7.701-7.811
	c5.273,0,7.7,3.23,7.7,7.592L413.485,124.02 M394.91,124.288c0,6.782,4.413,10.28,10.983,10.28c6.189,0,10.766-3.657,10.766-10.605
	v-6.941c0-6.785-4.25-10.554-10.874-10.554c-6.137,0-10.875,3.609-10.875,10.606V124.288 M423.395,133.869h3.176v-16.312
	c0-5.273,4.359-8.343,8.131-8.343c3.873,0,6.029,2.315,6.137,6.944v17.711h3.121v-16.471c0.162-4.738,3.934-8.186,8.078-8.186
	c3.873,0,6.188,2.26,6.188,7.104v17.553h3.125v-19.271c0-4.795-3.125-8.184-8.347-8.184c-3.982,0-7.592,2.044-9.526,5.868h-0.057
	c-0.755-3.125-3.174-5.868-7.587-5.868c-3.881,0-7.438,1.938-9.318,5.762h-0.104v-5.115h-3.017V133.869L423.395,133.869z
	 M487.412,124.826c0,4.845-3.661,7.051-7.16,7.051c-4.198,0-7.859-3.283-7.859-8.452v-5.489c0-5.601,4.093-8.777,7.807-8.777
	c4.522,0,7.214,2.908,7.214,6.624L487.412,124.826 M469.271,144.316h3.12v-15.239h0.158c1.134,3.503,4.633,5.489,8.132,5.489
	c5.006,0,9.96-2.957,9.96-10.172v-8.83c0-5.596-3.823-9.15-9.477-9.15c-3.068,0-6.894,1.613-8.773,5.438h-0.109v-4.791h-3.011
	V144.316z M513.798,124.182c0,4.629-2.747,7.807-8.128,7.807c-3.393,0-6.518-1.725-6.518-5.332c0-4.575,3.771-5.49,7.429-5.49h7.217
	V124.182 M495.979,126.818c0,4.953,3.982,7.644,8.826,7.644c3.284,0,6.894-0.698,9.1-4.844h0.109c0,0.809,0.109,3.336,0.215,4.251
	h3.125c-0.161-1.184-0.382-5.17-0.382-6.73v-13.029c0-5.812-4.629-7.695-9.847-7.695c-5.011,0-9.96,1.99-9.96,7.322v0.809h2.905
	v-0.861c0-3.502,3.552-4.686,6.889-4.686c4.039,0,6.839,1.451,6.839,5.652v4.146h-7.858
	C501.525,118.796,495.979,120.787,495.979,126.818 M523.224,123.803c0,6.893,4.094,10.766,10.767,10.766
	c6.354,0,10.175-3.551,10.175-8.879v-0.703h-3.067v0.918c0,2.797-1.99,5.975-7.055,5.975c-5.328,0-7.534-3.337-7.534-8.02v-6.518
	c0-4.682,2.476-8.236,7.481-8.236c5.062,0,7.106,3.229,7.106,5.978v1.077h3.067v-0.809c0-5.328-3.93-8.885-10.229-8.885
	c-6.461,0-10.712,4.146-10.712,11.09L523.224,123.803 M552.354,128.541c0,4.521,3.12,5.814,6.456,5.814
	c1.135,0,3.287-0.162,5.012-0.699v-2.746c-1.293,0.32-2.694,0.589-4.094,0.589c-2.747,0-4.2-0.914-4.2-3.819v-17.981h7.969v-2.585
	h-7.969V98.66h-3.175v8.451h-5.007v2.586h5.007L552.354,128.541 M146.437,32.994l0.529,0.71c0.604,0.812,0.79,1.372,0.68,2.093
	c-0.113,0.782-0.585,1.466-1.395,2.071c-0.88,0.65-1.757,0.888-2.63,0.688c-0.653-0.155-1.118-0.502-1.783-1.398l-0.359-0.483
	L146.437,32.994z M141.573,38.33c1.912,2.569,4.372,3.212,6.409,1.697c1.013-0.752,1.53-1.753,1.526-2.933
	c-0.022-1.141-0.469-2.153-1.685-3.793l-3.216-4.326l-0.465,0.344l0.408,1.761l-8.974,6.662l-1.564-0.896l-0.461,0.344l3.612,4.859
	l0.46-0.344l-0.457-1.821l3.582-2.664L141.573,38.33z M151.919,44.661c-0.393,0.317-1.009,0.888-1.349,1.27l-2.161,2.312
	l-1.617-3.17L151.919,44.661z M147.695,48.976l-2.924,3.095l-1.36-1.069l-0.514,0.261l2.717,5.32l0.514-0.261l-0.068-1.728
	l9.046-10.189l-0.468-0.918l-13.841,0.797l-1.36-1.069l-0.514,0.261l2.104,4.123l0.514-0.261l-0.075-1.75l4.285-0.374
	L147.695,48.976z M149.354,65.006c-0.223-0.472-0.385-0.88-0.518-1.333c-0.941-3.238,0.574-5.808,4.047-6.816
	c1.848-0.541,3.556-0.435,4.98,0.317c1.251,0.668,2.056,1.813,2.604,3.699c0.132,0.457,0.163,0.555,0.181,0.914l-2.411,1.78
	l0.253,0.873l3.276-0.952c-0.042-1.689-0.196-2.83-0.556-4.058c-1.292-4.448-4.852-6.469-9.159-5.218
	c-4.111,1.194-5.868,4.398-4.67,8.524c0.347,1.194,0.827,2.259,1.817,3.952l0.166,0.276l3.325-0.71l-0.261-0.896l-3.038-0.298
	L149.354,65.006z M162.674,76.419l-2.77,1.289l0.076,0.865l3.892-0.348l-1.028-11.464l-3.892,0.348l0.079,0.847l2.947,0.748
	l0.23,2.554l-11.403,1.024l-0.918-2.199l-0.582,0.049l0.649,7.183l0.571-0.053l0.521-2.328l11.4-1.024L162.674,76.419z
	 M151.459,122.783c9.461-8.057,5.449-24.205,5.449-24.205c-1.084,5.139-6.737,14.513-8.094,17.396
	c-1.723,3.66-2.32,7.92-2.739,9.649c-0.419,1.728-0.839,3.136-0.839,3.136C145.917,127.79,149.653,124.328,151.459,122.783
	 M1.319,72.557l-0.578-0.072L0,78.512l0.571,0.072l0.937-1.655l8.324,1.024c2.789,0.344,4.591-1.285,4.999-4.587
	c0.185-1.519-0.015-2.766-0.586-3.862c-0.718-1.315-1.84-1.995-3.763-2.229l-7.67-0.945L2.31,64.497L1.734,64.43l-0.616,4.999
	L1.693,69.5l0.93-1.632l8.037,0.986c1.515,0.189,2.278,0.575,2.781,1.425c0.34,0.608,0.454,1.39,0.333,2.373
	c-0.257,2.093-1.421,2.928-3.635,2.656l-8.305-1.024L1.319,72.557z M5.907,51.844l0.547,0.192l1.225-1.296l7.557,2.679L4.097,56.941
	l-1.353,3.82l0.544,0.189l1.262-1.394l10.531,3.741l0.102,1.874l0.544,0.193l1.587-4.459l-0.548-0.192l-1.235,1.318l-8.933-3.17
	l13.134-4.149l0.348-0.998L8.128,49.475L8.03,47.597l-0.548-0.189L5.907,51.844z M26.726,33.076l-0.465-0.347l-3.65,4.825
	l0.461,0.347l1.621-0.944l2.736,2.067c-0.196,0.396-0.28,0.54-0.567,0.918c-2.021,2.671-5.018,2.966-7.863,0.809
	c-1.583-1.198-2.505-2.648-2.717-4.285c-0.166-1.421,0.288-2.709,1.636-4.485c0.261-0.348,0.352-0.435,0.601-0.688l2.875,0.884
	l0.585-0.775l-2.717-2.055l-0.265,0.211c-1.379,1.209-2.093,1.912-2.804,2.849c-2.845,3.752-2.396,7.878,1.13,10.55
	c3.458,2.618,7.1,2.085,9.756-1.421c0.809-1.069,1.526-2.396,2.316-4.258l-3.144-2.381L26.726,33.076z M31.518,35.118l0.393,0.423
	l6.941-6.499l-2.233-2.838l-0.631,0.593l0.816,2.747l-2.369,2.218l-7.822-8.358l0.771-1.715l-0.393-0.423l-4.497,4.209l0.393,0.419
	l1.761-0.654l7.64,8.162L31.518,35.118z M38.127,20.707c-1.897-3.053-1.784-5.921,0.321-7.232c2.037-1.262,4.723-0.038,6.62,3.016
	c1.976,3.177,1.893,5.978-0.215,7.289C42.768,25.075,40.084,23.851,38.127,20.707 M36.061,22.626
	c2.12,3.404,5.815,4.341,9.099,2.301c3.597-2.237,4.458-6.375,2.12-10.127c-2.139-3.442-5.83-4.406-9.091-2.376
	C34.572,14.672,33.703,18.836,36.061,22.626 M53.633,12.907l0.888-0.344c1.87-0.718,3.329-0.147,3.99,1.568
	c0.317,0.832,0.294,1.568-0.064,2.26c-0.367,0.672-0.824,1.027-1.923,1.447l-0.869,0.333L53.633,12.907z M51.381,7.039l0.812-0.313
	c1.564-0.597,2.789-0.049,3.393,1.511c0.604,1.583,0.049,2.902-1.493,3.495L53.3,12.038L51.381,7.039z M51.649,20.083l0.208,0.544
	l5.6-2.146c1.772-0.684,2.656-1.266,3.303-2.176c0.612-0.88,0.752-2.082,0.344-3.144c-0.771-2.006-2.671-2.581-5.411-1.64
	c2.241-1.194,3.057-2.77,2.381-4.527C57.741,6.128,57.14,5.539,56.26,5.21c-1.005-0.366-1.946-0.291-3.416,0.272l-5.921,2.271
	l0.204,0.54l1.882,0.057l4.005,10.437L51.649,20.083z M67.746,4.18c0.189,0.472,0.552,1.224,0.82,1.663l1.572,2.743l-3.499,0.612
	L67.746,4.18z M70.628,9.485l2.097,3.699l-1.421,0.982l0.098,0.567l5.88-1.028l-0.099-0.571l-1.67-0.442l-7.077-11.63L67.42,1.244
	l-3.298,13.452l-1.421,0.982l0.098,0.571l4.561-0.801l-0.102-0.57l-1.692-0.435l0.896-4.206L70.628,9.485z M78.712,0l-0.011,0.582
	l1.719,0.759l-0.242,11.181l-1.753,0.688l-0.011,0.578l9.507,0.208l0.389-3.593l-0.869-0.015l-1.334,2.532l-3.246-0.068
	l0.246-11.449l1.75-0.688l0.015-0.582L78.712,0z M104.168,16.344c-0.518-0.061-0.945-0.136-1.406-0.265
	c-3.242-0.899-4.632-3.537-3.665-7.021c0.514-1.852,1.5-3.246,2.887-4.066c1.224-0.71,2.623-0.79,4.512-0.264
	c0.457,0.125,0.559,0.151,0.873,0.325l0.242,2.985l0.876,0.242l0.915-3.284c-1.455-0.854-2.505-1.319-3.741-1.663
	c-4.459-1.239-8.048,0.722-9.246,5.041c-1.145,4.123,0.65,7.3,4.791,8.453c1.194,0.329,2.35,0.48,4.312,0.533l0.317,0.004
	l1.148-3.197l-0.896-0.253l-1.852,2.426L104.168,16.344z M112.782,13.354c1.651-3.193,4.175-4.568,6.378-3.427
	c2.131,1.1,2.452,4.036,0.801,7.229c-1.719,3.321-4.168,4.685-6.371,3.548C111.407,19.573,111.082,16.641,112.782,13.354
	 M110.077,12.56c-1.84,3.563-0.752,7.217,2.679,8.993c3.768,1.942,7.757,0.567,9.787-3.367c1.863-3.597,0.801-7.262-2.615-9.027
	C116.145,7.206,112.125,8.596,110.077,12.56 M132.626,17.517l-3.484-3.015l-0.382,0.438l0.839,1.682l-7.308,8.453l-1.788-0.589
	l-0.377,0.438l3.578,3.095l0.378-0.438l-0.778-1.625l6.163-7.126l-3.707,11.109l0.393,0.336l10.47-5.252l-6.163,7.123l-1.723-0.533
	l-0.378,0.435l4.595,3.975l0.378-0.438l-0.854-1.693l7.312-8.457l1.798,0.604l0.382-0.438l-3.344-2.895l-9.246,4.625L132.626,17.517
	z M16.667,136.902c5.305,4.193,12.258,3.703,18.224,6.027c-5.513-5.269-6.427-13.128-8.804-20.096
	c-1.606-4.273-4.013-8.169-6.669-11.934c2.921,6.908,1.545,15.908,5.441,22.324c1.065,2.115,2.842,3.986,4.383,5.618l-0.083,0.095
	c-1.387-0.764-2.664-1.869-3.888-3.144c-6.666-6.478-16.603-7.356-20.567-17.985C5.781,125.624,11.086,132.493,16.667,136.902
	 M60.241,148.32c-5.067,0-13.021,4.047-23.556,4.047c-7.395,0-18.677-3.688-24.148-13.613c0,0,4.78,7.062,23.268,7.062
	c4.636,0,13.21,1.791,13.21,1.791c0.952,0.216,1.398-0.03,1.398-0.03s-0.552-0.279-3.174-0.923
	c-3.027-0.735-6.488-2.516-8.634-5.672c-3.08-4.525-6.76-12.041-7.569-12.543c6.45,4,10.92,8.942,16.758,13.807
	c4.428,3.688,8.785,4.636,13.961,5.785C61.756,148.029,61.114,148.32,60.241,148.32 M128.082,152.369
	c-10.534,0-18.481-4.047-23.551-4.047c-0.873,0-1.516-0.291-1.516-0.291c5.173-1.152,9.533-2.098,13.962-5.785
	c5.838-4.867,10.308-9.811,16.758-13.811c-0.809,0.506-4.489,8.018-7.568,12.545c-2.143,3.158-5.611,4.938-8.634,5.674
	c-2.622,0.644-3.174,0.92-3.174,0.92s0.442,0.244,1.398,0.033c0,0,8.574-1.791,13.21-1.791c18.488,0,23.265-7.062,23.265-7.062
	C146.763,148.677,135.477,152.369,128.082,152.369 M13.306,122.783c-9.461-8.057-5.445-24.205-5.445-24.205
	c1.084,5.139,6.733,14.514,8.09,17.396c1.727,3.66,2.32,7.92,2.739,9.649c0.419,1.728,0.839,3.136,0.839,3.136
	C18.849,127.79,15.108,124.329,13.306,122.783 M129.879,142.932c5.509-5.271,6.424-13.132,8.804-20.092
	c1.602-4.273,4.009-8.173,6.666-11.939c-2.921,6.91-1.545,15.912-5.441,22.328c-1.066,2.114-2.846,3.985-4.38,5.617l0.08,0.096
	c1.383-0.769,2.664-1.871,3.892-3.147c6.662-6.474,16.595-7.356,20.562-17.981c-1.077,7.811-6.378,14.684-11.963,19.092
	C142.794,141.098,135.846,140.605,129.879,142.932 M115.184,154.613c6.873,2.527,15.851,2.111,21.893-1.779
	c-2.989,3.498-6.979,5.675-11.109,7.134c-7.667,2.867-16.78,0.914-23.144-3.241c-5.437-2.86-10.126-8.498-17.287-6.359
	c7.292,3.174,13.965,7.633,20.007,13.346l-3.786,2.921c0,0-7.088-9.528-19.814-15.266c-12.719,5.735-19.808,15.266-19.808,15.266
	l-3.786-2.921c6.05-5.713,12.715-10.172,20.011-13.346c-7.167-2.139-11.853,3.499-17.294,6.359
	c-6.352,4.155-15.469,6.108-23.136,3.241c-4.13-1.459-8.12-3.636-11.109-7.134c6.038,3.893,15.023,4.309,21.889,1.779
	c9.205-3.737,18.771-8.494,29.873-6.238c1.247,0.234,2.263,0.503,3.359,0.503c1.103,0,2.12-0.269,3.37-0.503
	C96.416,146.119,105.987,150.876,115.184,154.613 M117.773,61.341c-0.265-0.453-0.499-0.635-0.635-0.635h-0.042
	c-0.144,0-0.393,0.132-0.726,0.484c-2.207,2.226-5.124,4.224-8.675,5.936c-0.812,0.4-0.994,0.71-0.994,1.077
	c0,0.242,0.094,0.544,0.249,0.915c2.66,6.975,4.47,14.083,5.366,21.133c0,0,0.121,1.368,0.453,1.659
	c0.288,0.257,1.27-0.348,1.357-0.393c4.054-2.438,7.84-5.498,10.001-7.668c0.854-0.854,1.183-1.47,1.183-2.415
	c0-0.483-0.094-1.054-0.26-1.764C123.422,73.111,120.985,66.952,117.773,61.341z M84.93,102.671
	c-1.527,0.095-1.436,0.453-1.504,1.644c-0.068,7.052-0.223,13.705-0.408,19.744c0,0-0.057,0.61,0.163,0.842
	c0.196,0.197,0.797,0.154,0.797,0.154c7.961-0.506,15.507-2.209,22.448-5.06c1.024-0.427,1.19-1.035,1.481-2.206
	c1.886-7.58,1.428-17.729,1.428-17.729s0.023-1.259-0.419-1.545c-0.094-0.062-0.227-0.088-0.378-0.088
	c-0.445,0-1.009,0.223-1.009,0.223C100.558,101.129,92.94,102.43,84.93,102.671z M99.341,41.568c-1.572,1.05-4.047,2.044-6.669,2.69
	c4.522,5.452,8.449,11.74,11.687,18.734c0.329,0.699,0.548,1.092,0.782,1.152c0.299,0.11,0.756-0.098,1.104-0.283
	c3.132-1.678,6.023-3.692,7.909-5.588c0.404-0.404,0.566-0.76,0.566-1.153c0-0.412-0.2-0.88-0.616-1.47
	C109.853,49.771,104.809,45.052,99.341,41.568z M101.525,65.588c0.128-0.348-0.189-1.073-0.189-1.073
	c-3.072-7.542-6.851-14.418-10.769-19.795c-2.127,0.381-6.291,0.68-7.788,0.668c0.223,7.618,0.401,15.19,0.521,22.486
	c0,0.654,0.125,1.021,0.313,1.183c0.151,0.144,0.488,0.234,0.843,0.234c5.01,0,12.163-1.545,16.271-3.087
	C101.136,66.057,101.389,65.951,101.525,65.588z M102.341,130.488c1.379-1.855,2.577-4.002,3.56-6.367
	c0.106-0.253,0.185-0.477,0.211-0.676c0.008-0.125-0.068-0.145-0.117-0.145c-0.019,0-0.034,0.004-0.034,0.004
	c-0.167,0.008-0.397,0.053-0.99,0.237c-8.717,2.755-16.308,3.42-21.171,3.462c-0.684,0.041-0.869,0.234-0.93,1.051l-0.382,6.438
	C82.489,134.494,92.294,134.721,102.341,130.488z M114.754,95.616c-1.617,0.839-1.78,1.429-1.802,2.817
	c0.083,8.037-0.884,14.254-2.619,19.482c0,0-0.151,0.366,0.31,0.136c0.472-0.233,7.776-3.729,12.752-8.78
	c1.7-1.629,2.997-4.168,3.272-6.756c0.99-8.91-0.17-14.896-0.17-14.896c-0.007-0.058-0.03-0.075-0.057-0.075
	c-0.053,0-0.117,0.064-0.117,0.064C124.008,89.914,119.746,93.073,114.754,95.616z M122.001,47.538
	c0.083,0.548,0.125,1.084,0.125,1.64c0,2.002-0.465,4.073-1.387,6.187c-0.336,0.771-0.469,1.27-0.469,1.651
	c0,0.4,0.2,0.668,0.438,1.145c0,0,5.267,7.251,8.283,19.142c3.306-5.766,3.31-10.493,3.31-10.493c0-0.299-0.019-0.563-0.049-0.76
	C130.722,59.474,127.288,53.255,122.001,47.538z M79.95,126.938c0,0-11.967-0.922-15.896-2.934c-0.17-0.102-0.08-0.268,0.128-0.227
	c0,0,8.086,1.395,15.764,1.41c0,0,0.858,0.037,0.858-0.931c0-0.864-0.336-19.868-0.336-19.868c-0.057-1.428-0.28-1.658-1.659-1.779
	c-8.332-0.396-16.459-2.16-23.525-5.107c-0.182-0.076-0.276-0.095-0.367-0.046c-0.155,0.076-0.155,0.386-0.155,0.386
	c-0.631,8.777,0.363,17.389,0.363,17.389c0.027,0.137-0.022,0.209-0.159,0.224c-0.162,0.021-0.192-0.166-0.192-0.166
	c-1.266-4.724-1.89-9.89-1.901-15.367c-0.003-0.39,0.038-2.614,0.038-2.614c-0.012-0.598-0.238-0.959-0.778-1.229
	c-3.355-1.646-6.314-3.729-8.963-5.854c0,0-0.204-0.162-0.034-0.34c0.132-0.129,0.295-0.025,0.295-0.025
	c2.732,1.768,5.86,3.246,9.118,4.582l0.359,0.02c0.196-0.121,0.193-0.391,0.227-0.809c0.506-8.125,2.713-16.712,5.846-24.853
	c0.068-0.178,0.094-0.317,0.094-0.431c-0.011-0.25-0.121-0.393-0.582-0.608c-5.117-2.256-9.076-5.309-11.619-8.649
	c0,0-0.159-0.189,0.003-0.329c0.155-0.132,0.314,0.03,0.314,0.03c2.898,2.827,7.175,5.188,12.095,7.013
	c0.208,0.083,0.367,0.125,0.484,0.125c0.219,0,0.389-0.128,0.729-0.857c3.325-7.693,7.659-14.895,12.567-20.899
	c-4.126-1.005-8.347-3.223-9.397-5.66c0,0-0.14-0.268,0.053-0.374c0.231-0.128,0.397,0.14,0.397,0.14
	c4.606,4.984,17.952,4.659,17.952,4.659c5.556,0,17.136-1.952,17.147-6.625v-0.012c-0.005-4.243-6.145-6.464-17.287-6.611
	c-33.739,0-51.812,29.208-51.812,52.397c0,27.997,23.771,52.397,51.211,52.397c-0.026-0.457-0.344-6.57-0.344-6.57
	C80.951,127.25,80.785,127.035,79.95,126.938z M114.108,40.287c-4.447-3.461-9.469-5.653-11.812-6.567
	c0.438,0.729,0.662,1.493,0.662,2.282c0,1.33-0.624,2.698-1.806,4.055c5.868,3.389,10.822,7.455,15.122,12.412
	c0,0,0.669,0.873,1.073,0.835c0.279-0.03,0.514-0.718,0.514-0.718c0.072-0.181,0.136-0.366,0.197-0.555v-7.092
	c-0.03-0.087-0.064-0.174-0.102-0.261C117.036,42.49,114.108,40.287,114.108,40.287z M131.421,80.899
	c-0.952,1.561-1.296,2.633-1.198,3.695c0.302,3.506,0.314,6.608,0.314,6.608c0,3.601-0.359,7.126-1.032,10.459
	c2.906-5.015,5.275-12.28,5.275-20.726c0-2.365-0.196-4.817-0.604-7.331C133.662,76.107,132.834,78.602,131.421,80.899z
	 M122.889,114.01c-3.714,2.993-7.992,5.547-12.756,7.6c-0.922,0.386-1.738,1.478-2.169,2.347c-0.926,1.912-2.006,3.729-3.2,5.415
	C110.994,126.268,118.098,120.229,122.889,114.01z M79.077,72.317c-6.114-0.287-12.073-1.413-17.25-3.238
	c-0.238-0.083-0.412-0.128-0.529-0.132h-0.061c-0.166,0.015-0.272,0.083-0.431,0.495c-4.829,12.121-5.8,25.207-5.8,25.207
	c-0.042,0.615,0.117,0.736,0.541,0.926c0,0,9.889,3.768,22.69,3.896h0.744c0.219-0.017,0.869-0.064,1.069-0.255
	c0.336-0.34,0.374-0.585,0.367-1.64c0.026-6.469,0.155-23.559,0.155-23.559C80.573,72.938,80.033,72.393,79.077,72.317z
	 M62.274,65.713v0.007c-0.321,0.688-0.174,0.911-0.174,0.911c0.083,0.144,0.313,0.219,0.313,0.219
	c3.918,1.292,11.479,2.55,16.762,2.55c0.582,0,0.922-0.109,1.13-0.298c0.219-0.208,0.363-0.631,0.37-1.345V67.75
	c0.144-7.315,0.34-14.91,0.771-22.373c-2.259-0.034-5.025-0.435-6.952-0.839C69.6,50.833,65.546,57.88,62.274,65.713z
	 M103.501,70.368c-0.333-0.944-0.491-1.107-0.767-1.107h-0.011c-0.17,0-0.423,0.064-0.778,0.197
	c-5.214,1.723-10.954,2.705-17.042,2.917c-1.16,0.034-1.534,0.854-1.522,1.692c0.038,3.737,0.105,9.635,0.105,17.57
	c0,2.014,0.019,4.697,0.019,6.658c0,0-0.034,0.616,0.223,0.885c0.151,0.162,0.453,0.215,0.865,0.196
	c3.661-0.196,13.032-0.835,22.49-4.504c1.277-0.491,1.564-1.093,1.572-2.071c0-0.244-0.012-0.506-0.053-0.793
	C107.662,84.812,105.95,77.528,103.501,70.368z"/>
</svg>
