<?xml version="1.0" encoding="utf-8"?>
<!-- Generator: Adobe Illustrator 15.0.0, SVG Export Plug-In  -->
<!DOCTYPE svg PUBLIC "-//W3C//DTD SVG 1.1//EN" "http://www.w3.org/Graphics/SVG/1.1/DTD/svg11.dtd" [
	<!ENTITY ns_flows "http://ns.adobe.com/Flows/1.0/">
]>
<svg version="1.1"
	 xmlns="http://www.w3.org/2000/svg" xmlns:xlink="http://www.w3.org/1999/xlink" xmlns:a="http://ns.adobe.com/AdobeSVGViewerExtensions/3.0/"
	 x="0px" y="0px" width="161px" height="161px" viewBox="-0.163 0.001 161 161"
	 overflow="visible" enable-background="new -0.163 0.001 161 161" xml:space="preserve">
<defs>
</defs>
<polygon fill="#FFFFFF" points="12.381,19.386 12.381,25.08 12.43,25.08 16.258,21.108 16.307,21.108 16.307,45.945 21.762,45.945 
	21.762,13.498 17.408,13.498 "/>
<path fill="#FFFFFF" d="M40.857,38.146V33.36c0-5.312-2.105-7.993-6.029-7.993c-2.299,0-3.686,1.053-4.498,2.633h-0.047v-6.987
	c0-1.963,0.619-3.351,2.584-3.351c1.961,0,2.535,1.148,2.535,3.157v2.157h4.977v-1.725c0-4.786-1.578-8.135-7.609-8.135
	c-5.742,0-7.896,3.685-7.896,8.758v15.792c0,5.024,2.203,8.662,7.945,8.662C38.607,46.329,40.857,43.171,40.857,38.146
	 M35.449,38.624c0,2.058-0.766,3.254-2.631,3.254c-1.818,0-2.535-1.243-2.535-3.254V32.69c0.094-1.818,0.859-2.968,2.584-2.968
	c1.863,0,2.582,1.149,2.582,3.255V38.624z"/>
<path fill="#FFFFFF" d="M112.63,54.871c0,0-1.854,2.463-1.315,4.863c0.543,2.401,3.279,3.829,3.279,3.829s1.855-2.463,1.314-4.863
	C115.367,56.297,112.63,54.871,112.63,54.871"/>
<path fill="#FFFFFF" d="M109.607,68.938c0,0,1.855-2.465,1.314-4.865c-0.543-2.401-3.278-3.826-3.278-3.826
	s-1.856,2.461-1.317,4.862C106.87,67.508,109.607,68.938,109.607,68.938"/>
<path fill="#FFFFFF" d="M117.23,66.299c0,0,1.959,1.976,4.189,1.777c2.23-0.198,3.884-2.493,3.884-2.493s-1.956-1.976-4.188-1.778
	C118.885,64.004,117.23,66.299,117.23,66.299"/>
<path fill="#FFFFFF" d="M120.439,55.748c-1.814,1.842-1.559,5.1-1.559,5.1s3.199,0.277,5.018-1.562
	c1.814-1.84,1.559-5.099,1.559-5.099S122.256,53.91,120.439,55.748"/>
<path fill="#FFFFFF" d="M116.436,73.622c2.223,0.263,4.312-1.646,4.312-1.646s-1.514-2.334-3.734-2.597
	c-2.225-0.261-4.314,1.647-4.314,1.647S114.213,73.36,116.436,73.622"/>
<path fill="#FFFFFF" d="M118.421,112.235h-16.613c-1.3,0-2.354,1.049-2.354,2.35c0,1.297,1.054,2.352,2.354,2.352h16.613
	c1.298,0,2.35-1.055,2.35-2.352C120.771,113.284,119.719,112.235,118.421,112.235"/>
<path fill="#FFFFFF" d="M118.421,138.142h-16.613c-1.3,0-2.354,1.051-2.354,2.35c0,1.297,1.054,2.352,2.354,2.352h16.613
	c1.298,0,2.35-1.055,2.35-2.352C120.771,139.192,119.719,138.142,118.421,138.142"/>
<path fill="#FFFFFF" d="M43.705,106.53c-0.391-0.121-0.777-0.227-1.153-0.297C42.552,106.233,42.978,106.364,43.705,106.53"/>
<path fill="#FFFFFF" d="M117.809,118.577h-15.395c-0.738,0-1.338,0.6-1.338,1.338v4.662l-10.05,1.104l-14.682-0.336v-8.967
	c1.95-0.25,3.903-0.639,5.842-1.186c14.133-3.988,17.215-15.672,16.907-23.758c-0.308-8.232,2.327-11.43,6.113-12.852
	c1.084-0.407,2.156-0.665,3.138-0.832c0.042,2.022,0.452,4.373,1.356,7.175c0.336-0.019,0.67-0.047,1.002-0.083
	c-0.955-2.865-1.362-5.223-1.385-7.233c1.956-0.231,3.352-0.101,3.352-0.101s-1.322-0.71-3.189-2.271
	c0.635-3.899,2.957-6.293,5.351-8.741c1.315-1.348,2.675-2.739,3.745-4.397l-0.834-0.538c-1.013,1.576-2.343,2.93-3.623,4.241
	c-2.334,2.388-4.689,4.828-5.487,8.698c-0.759-0.685-1.579-1.494-2.419-2.437c-3.485-3.907-7.972-1.037-14.369,4.92
	c-6.401,5.954-14.449,6.157-22.311-1.885c-10.371-10.618-19.418-10.557-25.622-9.955c4.244,1.808,5.729,5.773,7.877,15.854
	c2.251,10.577,7.929,15.362,15.695,16.022c-4.32,1.527-4.534,3.965-10.321,7.963c-4.521,3.117-10.879,2.133-13.457,1.547
	c4.732,1.475,10.338,6.439,15.354,8.166c2.92,1.006,5.999,1.627,9.152,1.877v8.586l-26.303-0.602v5.99l49.118-1.125l10.05,1.107
	v4.658c0,0.736,0.6,1.34,1.338,1.34h15.395c0.739,0,1.34-0.604,1.34-1.34v-15.273C119.148,119.177,118.548,118.577,117.809,118.577z
	 M70.631,116.698c1.095,0.02,2.193-0.014,3.294-0.088v8.68l-3.294-0.076V116.698z"/>
<path fill="#FFFFFF" d="M40.471,129.558c0,1.262-0.881,2.287-1.967,2.287H37.32c-1.084,0-1.968-1.025-1.968-2.287v-4.141
	c0-1.264,0.884-2.287,1.968-2.287h1.184c1.086,0,1.967,1.023,1.967,2.287V129.558z"/>
<rect fill="#07699E" width="160.922" height="160.931"/>
<polygon fill="#FFFFFF" points="12.381,19.386 12.381,25.08 12.43,25.08 16.258,21.108 16.307,21.108 16.307,45.945 21.762,45.945 
	21.762,13.498 17.408,13.498 "/>
<path fill="#FFFFFF" d="M40.857,38.146V33.36c0-5.312-2.105-7.993-6.029-7.993c-2.299,0-3.686,1.053-4.498,2.633h-0.047v-6.987
	c0-1.963,0.619-3.351,2.584-3.351c1.961,0,2.535,1.148,2.535,3.157v2.157h4.977v-1.725c0-4.786-1.578-8.135-7.609-8.135
	c-5.742,0-7.896,3.685-7.896,8.758v15.792c0,5.024,2.203,8.662,7.945,8.662C38.607,46.329,40.857,43.171,40.857,38.146
	 M35.449,38.624c0,2.058-0.766,3.254-2.631,3.254c-1.818,0-2.535-1.243-2.535-3.254V32.69c0.094-1.818,0.859-2.968,2.584-2.968
	c1.863,0,2.582,1.149,2.582,3.255V38.624z"/>
<path fill="#FFFFFF" d="M112.63,54.871c0,0-1.854,2.463-1.315,4.863c0.543,2.401,3.279,3.829,3.279,3.829s1.855-2.463,1.314-4.863
	C115.367,56.297,112.63,54.871,112.63,54.871"/>
<path fill="#FFFFFF" d="M109.607,68.938c0,0,1.855-2.465,1.314-4.865c-0.543-2.401-3.278-3.826-3.278-3.826
	s-1.856,2.461-1.317,4.862C106.87,67.508,109.607,68.938,109.607,68.938"/>
<path fill="#FFFFFF" d="M117.23,66.299c0,0,1.959,1.976,4.189,1.777c2.23-0.198,3.884-2.493,3.884-2.493s-1.956-1.976-4.188-1.778
	C118.885,64.004,117.23,66.299,117.23,66.299"/>
<path fill="#FFFFFF" d="M120.439,55.748c-1.814,1.842-1.559,5.1-1.559,5.1s3.199,0.277,5.018-1.562
	c1.814-1.84,1.559-5.099,1.559-5.099S122.256,53.91,120.439,55.748"/>
<path fill="#FFFFFF" d="M116.436,73.622c2.223,0.263,4.312-1.646,4.312-1.646s-1.514-2.334-3.734-2.597
	c-2.225-0.261-4.314,1.647-4.314,1.647S114.213,73.36,116.436,73.622"/>
<path fill="#FFFFFF" d="M118.421,112.235h-16.613c-1.3,0-2.354,1.049-2.354,2.35c0,1.297,1.054,2.352,2.354,2.352h16.613
	c1.298,0,2.35-1.055,2.35-2.352C120.771,113.284,119.719,112.235,118.421,112.235"/>
<path fill="#FFFFFF" d="M118.421,138.142h-16.613c-1.3,0-2.354,1.051-2.354,2.35c0,1.297,1.054,2.352,2.354,2.352h16.613
	c1.298,0,2.35-1.055,2.35-2.352C120.771,139.192,119.719,138.142,118.421,138.142"/>
<path fill="#FFFFFF" d="M43.705,106.53c-0.391-0.121-0.777-0.227-1.153-0.297C42.552,106.233,42.978,106.364,43.705,106.53"/>
<path fill="#FFFFFF" d="M117.809,118.577h-15.395c-0.738,0-1.338,0.6-1.338,1.338v4.662l-10.05,1.104l-14.682-0.336v-8.967
	c1.95-0.25,3.903-0.639,5.842-1.186c14.133-3.988,17.215-15.672,16.907-23.758c-0.308-8.232,2.327-11.43,6.113-12.852
	c1.084-0.407,2.156-0.665,3.138-0.832c0.042,2.022,0.452,4.373,1.356,7.175c0.336-0.019,0.67-0.047,1.002-0.083
	c-0.955-2.865-1.362-5.223-1.385-7.233c1.956-0.231,3.352-0.101,3.352-0.101s-1.322-0.71-3.189-2.271
	c0.635-3.899,2.957-6.293,5.351-8.741c1.315-1.348,2.675-2.739,3.745-4.397l-0.834-0.538c-1.013,1.576-2.343,2.93-3.623,4.241
	c-2.334,2.388-4.689,4.828-5.487,8.698c-0.759-0.685-1.579-1.494-2.419-2.437c-3.485-3.907-7.972-1.037-14.369,4.92
	c-6.401,5.954-14.449,6.157-22.311-1.885c-10.371-10.618-19.418-10.557-25.622-9.955c4.244,1.808,5.729,5.773,7.877,15.854
	c2.251,10.577,7.929,15.362,15.695,16.022c-4.32,1.527-4.534,3.965-10.321,7.963c-4.521,3.117-10.879,2.133-13.457,1.547
	c4.732,1.475,10.338,6.439,15.354,8.166c2.92,1.006,5.999,1.627,9.152,1.877v8.586l-26.303-0.602v5.99l49.118-1.125l10.05,1.107
	v4.658c0,0.736,0.6,1.34,1.338,1.34h15.395c0.739,0,1.34-0.604,1.34-1.34v-15.273C119.148,119.177,118.548,118.577,117.809,118.577z
	 M70.631,116.698c1.095,0.02,2.193-0.014,3.294-0.088v8.68l-3.294-0.076V116.698z"/>
<path fill="#FFFFFF" d="M40.471,129.558c0,1.262-0.881,2.287-1.967,2.287H37.32c-1.084,0-1.968-1.025-1.968-2.287v-4.141
	c0-1.264,0.884-2.287,1.968-2.287h1.184c1.086,0,1.967,1.023,1.967,2.287V129.558z"/>
<path fill="#FFFFFF" d="M51.273,13.477h2.584c1.759,0,2.4,0.872,2.4,2.324v2.186c0,1.453-0.642,2.339-2.4,2.339h-0.841v3.517h-1.743
	V13.477z M53.017,14.899v4.083h0.643c0.596,0,0.856-0.291,0.856-0.856V15.74c0-0.565-0.261-0.841-0.856-0.841H53.017z"/>
<path fill="#FFFFFF" d="M57.021,13.477h4.159v1.422h-2.416v2.966h1.728v1.407h-1.728v3.149h2.416v1.422h-4.159V13.477z"/>
<path fill="#FFFFFF" d="M61.854,23.843l1.957-10.366h1.987l1.973,10.366h-1.789l-0.321-1.896h-1.85l-0.307,1.896H61.854z
	 M64.039,20.556h1.392l-0.688-4.159h-0.016L64.039,20.556z"/>
<path fill="#FFFFFF" d="M68.351,21.167v-5.015c0-1.621,0.765-2.798,2.6-2.798c1.927,0,2.462,1.07,2.462,2.599v1.223h-1.591v-1.361
	c0-0.642-0.214-1.009-0.841-1.009s-0.887,0.443-0.887,1.07v5.565c0,0.627,0.26,1.07,0.887,1.07s0.841-0.397,0.841-1.009v-1.911
	h1.591v1.789c0,1.483-0.612,2.584-2.462,2.584C69.115,23.966,68.351,22.773,68.351,21.167z"/>
<path fill="#FFFFFF" d="M74.358,13.477h4.159v1.422h-2.416v2.966h1.728v1.407h-1.728v3.149h2.416v1.422h-4.159V13.477z"/>
<path fill="#FFFFFF" d="M81.942,23.843l1.957-10.366h1.987l1.973,10.366H86.07l-0.321-1.896h-1.85l-0.307,1.896H81.942z
	 M84.128,20.556h1.392l-0.688-4.159h-0.016L84.128,20.556z"/>
<path fill="#FFFFFF" d="M89.922,17.33v6.513h-1.468V13.477h1.713l1.881,5.948v-5.948H93.5v10.366h-1.529L89.922,17.33z"/>
<path fill="#FFFFFF" d="M99.859,16.26v4.801c0,1.59-0.657,2.783-2.522,2.783h-2.691V13.477h2.691
	C99.202,13.477,99.859,14.654,99.859,16.26z M97.123,22.421c0.719,0,0.993-0.428,0.993-1.055v-5.428c0-0.611-0.274-1.04-0.993-1.04
	h-0.734v7.522H97.123z"/>
<path fill="#FFFFFF" d="M107.228,13.477v8.012c0,1.499-0.657,2.477-2.4,2.477c-1.804,0-2.293-0.994-2.293-2.309v-2.064h1.651v2.095
	c0,0.52,0.184,0.826,0.642,0.826c0.475,0,0.657-0.306,0.657-0.841v-8.195H107.228z"/>
<path fill="#FFFFFF" d="M113.405,13.477v7.843c0,1.605-0.688,2.646-2.462,2.646c-1.835,0-2.6-1.04-2.6-2.646v-7.843h1.743v8.012
	c0,0.611,0.245,1.024,0.856,1.024s0.856-0.413,0.856-1.024v-8.012H113.405z"/>
<path fill="#FFFFFF" d="M114.29,21.611V20.22h1.621v1.422c0,0.581,0.26,0.917,0.856,0.917c0.55,0,0.795-0.367,0.795-0.917v-0.397
	c0-0.596-0.245-0.963-0.78-1.468l-1.024-1.024c-0.993-0.979-1.452-1.575-1.452-2.768v-0.352c0-1.284,0.749-2.278,2.446-2.278
	c1.743,0,2.431,0.856,2.431,2.354v0.841h-1.59v-0.902c0-0.597-0.275-0.887-0.825-0.887c-0.489,0-0.826,0.275-0.826,0.856v0.214
	c0,0.581,0.321,0.917,0.826,1.407l1.116,1.101c0.947,0.963,1.406,1.544,1.406,2.691v0.504c0,1.422-0.765,2.431-2.538,2.431
	S114.29,22.972,114.29,21.611z"/>
<path fill="#FFFFFF" d="M119.733,13.477h4.633v1.422h-1.438v8.944h-1.758v-8.944h-1.438V13.477z"/>
<path fill="#FFFFFF" d="M125.298,13.477h1.743v10.366h-1.743V13.477z"/>
<path fill="#FFFFFF" d="M128.202,21.167v-5.015c0-1.621,0.765-2.798,2.6-2.798c1.927,0,2.462,1.07,2.462,2.599v1.223h-1.591v-1.361
	c0-0.642-0.214-1.009-0.841-1.009s-0.887,0.443-0.887,1.07v5.565c0,0.627,0.26,1.07,0.887,1.07s0.841-0.397,0.841-1.009v-1.911
	h1.591v1.789c0,1.483-0.612,2.584-2.462,2.584C128.967,23.966,128.202,22.773,128.202,21.167z"/>
<path fill="#FFFFFF" d="M134.333,13.477h4.159v1.422h-2.416v2.966h1.728v1.407h-1.728v3.149h2.416v1.422h-4.159V13.477z"/>
<path fill="#FFFFFF" d="M51.182,40.819v-1.391h1.621v1.422c0,0.581,0.26,0.917,0.856,0.917c0.55,0,0.795-0.367,0.795-0.917v-0.397
	c0-0.596-0.245-0.963-0.78-1.468l-1.024-1.024c-0.993-0.979-1.452-1.575-1.452-2.768v-0.352c0-1.284,0.749-2.278,2.446-2.278
	c1.743,0,2.431,0.856,2.431,2.354v0.841h-1.59v-0.902c0-0.597-0.275-0.887-0.825-0.887c-0.489,0-0.826,0.275-0.826,0.856v0.214
	c0,0.581,0.321,0.917,0.826,1.407l1.116,1.101c0.947,0.963,1.406,1.544,1.406,2.691v0.504c0,1.422-0.765,2.431-2.538,2.431
	S51.182,42.18,51.182,40.819z"/>
<path fill="#FFFFFF" d="M56.977,32.685h4.633v1.422h-1.438v8.944h-1.758v-8.944h-1.438V32.685z"/>
<path fill="#FFFFFF" d="M64.238,38.296v4.755h-1.743V32.685h2.538c1.759,0,2.4,0.872,2.4,2.324v1.33
	c0,1.116-0.397,1.773-1.391,2.003l1.666,4.709h-1.835L64.238,38.296z M64.238,34.107v3.226h0.581c0.597,0,0.856-0.306,0.856-0.856
	v-1.529c0-0.565-0.26-0.841-0.856-0.841H64.238z"/>
<path fill="#FFFFFF" d="M68.457,40.375v-5.015c0-1.621,0.796-2.798,2.63-2.798c1.851,0,2.646,1.177,2.646,2.798v5.015
	c0,1.605-0.795,2.798-2.646,2.798C69.253,43.174,68.457,41.981,68.457,40.375z M71.989,40.651v-5.565c0-0.627-0.275-1.07-0.902-1.07
	c-0.611,0-0.887,0.443-0.887,1.07v5.565c0,0.627,0.275,1.07,0.887,1.07C71.714,41.721,71.989,41.278,71.989,40.651z"/>
<path fill="#FFFFFF" d="M76.27,36.538v6.513h-1.468V32.685h1.713l1.881,5.948v-5.948h1.452v10.366h-1.529L76.27,36.538z"/>
<path fill="#FFFFFF" d="M83.547,37.517h2.478v5.535h-1.254V41.92c-0.229,0.78-0.719,1.254-1.667,1.254
	c-1.498,0-2.187-1.193-2.187-2.798v-5.015c0-1.621,0.78-2.798,2.615-2.798c1.926,0,2.492,1.07,2.492,2.599v0.917h-1.591v-1.055
	c0-0.642-0.244-1.009-0.871-1.009s-0.902,0.443-0.902,1.07v5.565c0,0.627,0.26,1.07,0.856,1.07c0.565,0,0.856-0.321,0.856-0.994
	v-1.835h-0.826V37.517z"/>
<path fill="#FFFFFF" d="M88.774,32.685h1.743v10.366h-1.743V32.685z"/>
<path fill="#FFFFFF" d="M93.071,36.538v6.513h-1.468V32.685h1.713l1.881,5.948v-5.948h1.452v10.366H95.12L93.071,36.538z"/>
<path fill="#FFFFFF" d="M97.626,40.819v-1.391h1.621v1.422c0,0.581,0.26,0.917,0.856,0.917c0.55,0,0.795-0.367,0.795-0.917v-0.397
	c0-0.596-0.245-0.963-0.78-1.468l-1.024-1.024c-0.993-0.979-1.452-1.575-1.452-2.768v-0.352c0-1.284,0.749-2.278,2.446-2.278
	c1.743,0,2.431,0.856,2.431,2.354v0.841h-1.59v-0.902c0-0.597-0.275-0.887-0.825-0.887c-0.489,0-0.826,0.275-0.826,0.856v0.214
	c0,0.581,0.321,0.917,0.826,1.407l1.116,1.101c0.947,0.963,1.406,1.544,1.406,2.691v0.504c0,1.422-0.765,2.431-2.538,2.431
	S97.626,42.18,97.626,40.819z"/>
<path fill="#FFFFFF" d="M103.421,32.685h4.633v1.422h-1.438v8.944h-1.758v-8.944h-1.438V32.685z"/>
<path fill="#FFFFFF" d="M108.939,32.685h1.743v10.366h-1.743V32.685z"/>
<path fill="#FFFFFF" d="M111.569,32.685h4.633v1.422h-1.438v8.944h-1.758v-8.944h-1.438V32.685z"/>
<path fill="#FFFFFF" d="M122.149,32.685v7.843c0,1.605-0.688,2.646-2.462,2.646c-1.835,0-2.6-1.04-2.6-2.646v-7.843h1.743v8.012
	c0,0.611,0.245,1.024,0.856,1.024s0.856-0.413,0.856-1.024v-8.012H122.149z"/>
<path fill="#FFFFFF" d="M123.021,32.685h4.633v1.422h-1.438v8.944h-1.758v-8.944h-1.438V32.685z"/>
<path fill="#FFFFFF" d="M128.539,32.685h1.743v10.366h-1.743V32.685z"/>
<path fill="#FFFFFF" d="M131.367,40.375v-5.015c0-1.621,0.796-2.798,2.63-2.798c1.851,0,2.646,1.177,2.646,2.798v5.015
	c0,1.605-0.795,2.798-2.646,2.798C132.163,43.174,131.367,41.981,131.367,40.375z M134.899,40.651v-5.565
	c0-0.627-0.275-1.07-0.902-1.07c-0.611,0-0.887,0.443-0.887,1.07v5.565c0,0.627,0.275,1.07,0.887,1.07
	C134.624,41.721,134.899,41.278,134.899,40.651z"/>
<path fill="#FFFFFF" d="M139.18,36.538v6.513h-1.468V32.685h1.713l1.881,5.948v-5.948h1.452v10.366h-1.529L139.18,36.538z"/>
<path fill="#FFFFFF" d="M143.735,40.819v-1.391h1.621v1.422c0,0.581,0.26,0.917,0.856,0.917c0.55,0,0.795-0.367,0.795-0.917v-0.397
	c0-0.596-0.245-0.963-0.78-1.468l-1.024-1.024c-0.993-0.979-1.452-1.575-1.452-2.768v-0.352c0-1.284,0.749-2.278,2.446-2.278
	c1.743,0,2.431,0.856,2.431,2.354v0.841h-1.59v-0.902c0-0.597-0.275-0.887-0.825-0.887c-0.489,0-0.826,0.275-0.826,0.856v0.214
	c0,0.581,0.321,0.917,0.826,1.407l1.116,1.101c0.947,0.963,1.406,1.544,1.406,2.691v0.504c0,1.422-0.765,2.431-2.538,2.431
	S143.735,42.18,143.735,40.819z"/>
</svg>
