<?xml version="1.0" encoding="utf-8"?>
<!-- Generator: Adobe Illustrator 15.0.0, SVG Export Plug-In  -->
<!DOCTYPE svg PUBLIC "-//W3C//DTD SVG 1.1//EN" "http://www.w3.org/Graphics/SVG/1.1/DTD/svg11.dtd" [
	<!ENTITY ns_flows "http://ns.adobe.com/Flows/1.0/">
]>
<svg version="1.1"
	 xmlns="http://www.w3.org/2000/svg" xmlns:xlink="http://www.w3.org/1999/xlink" xmlns:a="http://ns.adobe.com/AdobeSVGViewerExtensions/3.0/"
	 x="0px" y="0px" width="161px" height="161px" viewBox="-0.001 0 161 161"
	 overflow="visible" enable-background="new -0.001 0 161 161" xml:space="preserve">
<defs>
</defs>
<rect fill="#EF412C" width="160.92" height="160.927"/>
<path fill="#FFFFFF" d="M25.658,23.759c-2.152,0-3.732,0.765-4.594,2.249h-0.049V17.92h9.381v-4.45H16.041v18.282h4.975v-0.721
	c0-1.914,0.863-2.967,2.393-2.967c1.676,0,2.348,1.15,2.348,2.922v7.848c0,1.724-0.623,2.919-2.299,2.919
	c-1.867,0-2.535-1.244-2.535-3.157v-4.068h-4.98v3.685c0,4.929,1.963,8.088,7.516,8.088c5.504,0,7.752-2.919,7.752-7.418v-7.944
	C31.209,25.817,28.578,23.759,25.658,23.759"/>
<path fill="#FFFFFF" d="M117.211,60.892h-20c-0.137,0-0.254,0.113-0.254,0.255v6.646c0,0.143,0.117,0.256,0.254,0.256h7.964
	l-8.843,8.845c-4.454-3.5-10.059-5.594-16.15-5.594c-14.442,0-26.195,11.75-26.195,26.196c0,13.299,9.964,24.304,22.814,25.969
	v7.658h-7.889c-0.146,0-0.258,0.113-0.258,0.253v7.124c0,0.141,0.111,0.254,0.258,0.254h7.889v7.537
	c0,0.141,0.113,0.254,0.254,0.254h7.12c0.142,0,0.258-0.113,0.258-0.254v-7.537h7.888c0.141,0,0.254-0.113,0.254-0.254v-7.124
	c0-0.14-0.113-0.253-0.254-0.253h-7.888v-7.783c12.429-2.038,21.943-12.848,21.943-25.844c0-5.607-1.774-10.803-4.784-15.067
	l8.717-8.718v7.438c0,0.141,0.117,0.254,0.258,0.254h6.645c0.143,0,0.26-0.113,0.26-0.254V61.147
	C117.471,61.005,117.354,60.892,117.211,60.892 M80.182,116.777c-10.632,0-19.279-8.65-19.279-19.281
	c0-10.633,8.647-19.282,19.279-19.282c10.633,0,19.282,8.649,19.282,19.282C99.464,108.126,90.814,116.777,80.182,116.777"/>
<path fill="#FFFFFF" d="M91.959,89.581H68.572c-0.141,0-0.254,0.104-0.254,0.228v5.662c0,0.133,0.113,0.232,0.254,0.232h23.387
	c0.146,0,0.259-0.1,0.259-0.232v-5.662C92.218,89.685,92.104,89.581,91.959,89.581"/>
<path fill="#FFFFFF" d="M91.959,99.69H68.572c-0.141,0-0.254,0.106-0.254,0.235v5.662c0,0.127,0.113,0.229,0.254,0.229h23.387
	c0.146,0,0.259-0.102,0.259-0.229v-5.662C92.218,99.796,92.104,99.69,91.959,99.69"/>
<path fill="#FFFFFF" d="M45.952,32.762h5.275v1.804h-3.064v3.762h2.192v1.784h-2.192v3.995h3.064v1.804h-5.275V32.762z"/>
<path fill="#FFFFFF" d="M55.108,46.803v-0.892c-1.765-0.311-2.521-1.61-2.521-3.394v-6.361c0-2.056,1.009-3.549,3.336-3.549
	c2.347,0,3.355,1.493,3.355,3.549v6.361c0,1.435-0.504,2.56-1.629,3.103l1.629,0.311v1.648L55.108,46.803z M57.067,42.982v-7.175
	c0-0.795-0.349-1.358-1.145-1.358c-0.775,0-1.125,0.562-1.125,1.358v7.175c0,0.776,0.35,1.358,1.125,1.358
	C56.719,44.34,57.067,43.758,57.067,42.982z"/>
<path fill="#FFFFFF" d="M67.135,32.762v9.949c0,2.037-0.873,3.355-3.122,3.355c-2.328,0-3.298-1.319-3.298-3.355v-9.949h2.211
	v10.162c0,0.776,0.311,1.299,1.087,1.299c0.775,0,1.086-0.523,1.086-1.299V32.762H67.135z"/>
<path fill="#FFFFFF" d="M68.243,45.911l2.482-13.149h2.521l2.502,13.149h-2.27l-0.407-2.405h-2.347l-0.388,2.405H68.243z
	 M71.017,41.741h1.765l-0.873-5.275H71.89L71.017,41.741z"/>
<path fill="#FFFFFF" d="M76.836,32.762h2.211v11.345h2.638v1.804h-4.849V32.762z"/>
<path fill="#FFFFFF" d="M82.869,32.762h2.211v13.149h-2.211V32.762z"/>
<path fill="#FFFFFF" d="M86.265,32.762h5.877v1.804h-1.823v11.345h-2.23V34.566h-1.823V32.762z"/>
<path fill="#FFFFFF" d="M97.631,40.908v5.003H95.42v-5.003l-2.463-8.146h2.308l1.339,4.984h0.02l1.338-4.984h2.114L97.631,40.908z"
	/>
<path fill="#FFFFFF" d="M49.289,19.599h3.143v7.021h-1.591v-1.435c-0.291,0.989-0.911,1.59-2.114,1.59
	c-1.9,0-2.773-1.513-2.773-3.549v-6.361c0-2.056,0.989-3.549,3.316-3.549c2.444,0,3.162,1.357,3.162,3.297v1.164h-2.018v-1.338
	c0-0.815-0.311-1.28-1.105-1.28s-1.145,0.562-1.145,1.358v7.059c0,0.795,0.33,1.357,1.087,1.357c0.717,0,1.086-0.407,1.086-1.26
	v-2.328h-1.048V19.599z"/>
<path fill="#FFFFFF" d="M53.888,13.47h5.275v1.804h-3.064v3.762h2.192v1.784h-2.192v3.995h3.064v1.804h-5.275V13.47z"/>
<path fill="#FFFFFF" d="M62.408,18.357v8.262h-1.862V13.47h2.173l2.385,7.544V13.47h1.843v13.149h-1.939L62.408,18.357z"/>
<path fill="#FFFFFF" d="M75.017,17v6.089c0,2.017-0.834,3.53-3.2,3.53h-3.414V13.47h3.414C74.183,13.47,75.017,14.963,75.017,17z
	 M71.545,24.815c0.911,0,1.261-0.543,1.261-1.338v-6.885c0-0.775-0.35-1.318-1.261-1.318h-0.932v9.542H71.545z"/>
<path fill="#FFFFFF" d="M76.492,13.47h5.275v1.804h-3.064v3.762h2.192v1.784h-2.192v3.995h3.064v1.804h-5.275V13.47z"/>
<path fill="#FFFFFF" d="M85.338,20.587v6.032h-2.211V13.47h3.22c2.23,0,3.045,1.105,3.045,2.948v1.687
	c0,1.416-0.504,2.25-1.765,2.541l2.114,5.973h-2.328L85.338,20.587z M85.338,15.274v4.092h0.737c0.757,0,1.086-0.388,1.086-1.086
	V16.34c0-0.718-0.329-1.066-1.086-1.066H85.338z"/>
</svg>
