<?xml version="1.0" encoding="utf-8"?>
<!-- Generator: Adobe Illustrator 15.0.0, SVG Export Plug-In  -->
<!DOCTYPE svg PUBLIC "-//W3C//DTD SVG 1.1//EN" "http://www.w3.org/Graphics/SVG/1.1/DTD/svg11.dtd" [
	<!ENTITY ns_flows "http://ns.adobe.com/Flows/1.0/">
]>
<svg version="1.1"
	 xmlns="http://www.w3.org/2000/svg" xmlns:xlink="http://www.w3.org/1999/xlink" xmlns:a="http://ns.adobe.com/AdobeSVGViewerExtensions/3.0/"
	 x="0px" y="0px" width="161px" height="161px" viewBox="0 0 161 161" overflow="visible" enable-background="new 0 0 161 161"
	 xml:space="preserve">
<defs>
</defs>
<rect fill="#E3253C" width="160.922" height="160.927"/>
<polygon fill="#FFFFFF" points="22.468,21.165 22.516,21.165 22.516,46.002 27.97,46.002 27.97,13.555 23.614,13.555 18.591,19.442 
	18.591,25.135 18.639,25.135 "/>
<path fill="#FFFFFF" d="M123.931,76.777c0-2.463,1.997-4.457,4.458-4.457c2.457,0,4.448,1.994,4.448,4.457
	c0,2.46-1.991,4.455-4.448,4.455C125.928,81.232,123.931,79.237,123.931,76.777"/>
<path fill="#FFFFFF" d="M133.589,82.951c3.022,0.273,5.392,2.815,5.392,5.916v1.48v0.647v10.222c0,0.949-0.773,1.727-1.725,1.727
	c-0.958,0-1.729-0.777-1.729-1.727V90.61c0-0.397-0.115-0.937-0.843-0.937c-0.503,0-0.607,0.533-0.626,0.873v31.79
	c0,1.366-1.106,2.481-2.479,2.481c-1.374,0-2.486-1.115-2.486-2.481v-18.319c-0.007-0.203-0.074-0.729-0.704-0.729h-0.003
	c-0.633,0-0.71,0.525-0.717,0.729v18.319c0,1.366-1.105,2.481-2.479,2.481c-1.376,0-2.482-1.115-2.482-2.481v-31.79
	c-0.017-0.34-0.125-0.873-0.624-0.873c-0.731,0-0.842,0.539-0.842,0.937v10.606c0,0.949-0.774,1.727-1.729,1.727
	c-0.955,0-1.725-0.777-1.725-1.727V90.995v-0.647v-1.48c0-3.101,2.371-5.643,5.398-5.916c0.099-0.014,0.207-0.027,0.326-0.027h4.875
	h4.861C133.378,82.923,133.482,82.937,133.589,82.951"/>
<path fill="#FFFFFF" d="M97.438,79.117c0-2.33-1.884-4.223-4.215-4.223c-2.332,0-4.221,1.893-4.221,4.223
	c0,2.331,1.889,4.219,4.221,4.219C95.555,83.335,97.438,81.448,97.438,79.117"/>
<path fill="#FFFFFF" d="M84.723,88.673l-3.507,11.416c0,0-0.625,2.092,1.15,2.615c1.767,0.523,2.303-1.521,2.303-1.521l2.828-9.528
	c0,0,0.153-0.732,0.704-0.574c0.552,0.158,0.345,0.942,0.345,0.942l-4.922,17.855h4.577v12.789c0,1.21,0.985,2.194,2.2,2.194
	c1.213,0,2.194-0.984,2.194-2.194v-12.789h0.628h0.621v12.789c0,1.21,0.979,2.194,2.196,2.194c1.218,0,2.201-0.984,2.201-2.194
	v-12.789h4.575l-4.918-17.855c0,0-0.207-0.784,0.343-0.942c0.552-0.158,0.705,0.574,0.705,0.574l2.827,9.528
	c0,0,0.538,2.044,2.302,1.521c1.779-0.523,1.151-2.615,1.151-2.615l-3.507-11.416c0,0-1.253-3.301-4.028-3.301h-4.469h-4.471
	C85.979,85.373,84.723,88.673,84.723,88.673"/>
<path fill="#FFFFFF" d="M72.172,79.117c0-2.33-1.887-4.223-4.217-4.223c-2.332,0-4.219,1.893-4.219,4.223
	c0,2.331,1.887,4.219,4.219,4.219C70.285,83.335,72.172,81.448,72.172,79.117"/>
<path fill="#FFFFFF" d="M59.454,88.673l-3.505,11.416c0,0-0.627,2.092,1.149,2.615c1.766,0.523,2.302-1.521,2.302-1.521l2.828-9.528
	c0,0,0.153-0.732,0.704-0.574c0.553,0.158,0.344,0.942,0.344,0.942l-4.92,17.855h4.576v12.789c0,1.21,0.988,2.194,2.2,2.194
	c1.215,0,2.196-0.984,2.196-2.194v-12.789h0.63h0.619v12.789c0,1.21,0.978,2.194,2.197,2.194c1.218,0,2.198-0.984,2.198-2.194
	v-12.789h4.577l-4.917-17.855c0,0-0.209-0.784,0.34-0.942c0.551-0.158,0.706,0.574,0.706,0.574l2.825,9.528
	c0,0,0.538,2.044,2.303,1.521c1.778-0.523,1.15-2.615,1.15-2.615l-3.507-11.416c0,0-1.25-3.301-4.026-3.301h-4.466h-4.474
	C60.712,85.373,59.454,88.673,59.454,88.673"/>
<path fill="#FFFFFF" d="M111.606,102.728c1.942,0,3.51-1.572,3.51-3.516c0-1.941-1.567-3.508-3.51-3.508s-3.512,1.566-3.512,3.508
	C108.095,101.156,109.664,102.728,111.606,102.728"/>
<path fill="#FFFFFF" d="M103.188,113.636c-0.172,0.41-0.312,1.281,0.512,1.661c0.967,0.444,1.505-0.49,1.505-0.49l1.909-6.087
	c0,0,0.331-0.408,0.331,0.014v14.33h0.009c0,0.998,0.803,1.802,1.802,1.802c0.996,0,1.801-0.804,1.801-1.802v-5.655
	c0,0-0.104-0.8,0.54-0.8s0.545,0.8,0.545,0.8v5.655c0,0.998,0.809,1.802,1.805,1.802c0.994,0,1.806-0.804,1.806-1.802v-14.33
	c0-0.422,0.223-0.121,0.223-0.121l1.496,4.168c0,0,0.649,1.863,0.85,1.945c0.675,0.283,1.455-0.039,1.74-0.72
	c0.187-0.444,0.115-0.921-0.143-1.281l0.013-0.013c-0.043-0.135-2.236-5.514-2.494-6.269c-0.792-2.312-2.233-2.292-3.621-2.33
	c-1.389-0.033-2.219,0-2.219,0s-0.887-0.036-2.72,0.019c-1.829,0.057-2.407,0.994-4.426,6.188c-0.288,0.748-1.263,3.168-1.275,3.313
	L103.188,113.636z"/>
<path fill="#FFFFFF" d="M34.496,76.777c0-2.463-1.999-4.457-4.459-4.457c-2.458,0-4.449,1.994-4.449,4.457
	c0,2.46,1.991,4.455,4.449,4.455C32.497,81.232,34.496,79.237,34.496,76.777"/>
<path fill="#FFFFFF" d="M24.836,82.951c-3.021,0.273-5.394,2.815-5.394,5.916v1.48v0.647v10.222c0,0.949,0.774,1.727,1.729,1.727
	c0.955,0,1.728-0.777,1.728-1.727V90.61c0-0.397,0.115-0.937,0.843-0.937c0.502,0,0.606,0.533,0.628,0.873v31.79
	c0,1.366,1.104,2.481,2.479,2.481c1.372,0,2.481-1.115,2.481-2.481v-18.319c0.011-0.203,0.077-0.729,0.708-0.729h0.002
	c0.633,0,0.71,0.525,0.716,0.729v18.319c0,1.366,1.107,2.481,2.479,2.481c1.375,0,2.481-1.115,2.481-2.481v-31.79
	c0.015-0.34,0.128-0.873,0.626-0.873c0.731,0,0.841,0.539,0.841,0.937v10.606c0,0.949,0.774,1.727,1.729,1.727
	s1.726-0.777,1.726-1.727V90.995v-0.647v-1.48c0-3.101-2.37-5.643-5.397-5.916c-0.101-0.014-0.207-0.027-0.327-0.027h-4.875h-4.861
	C25.048,82.923,24.941,82.937,24.836,82.951"/>
<line fill="none" stroke="#FFFFFF" stroke-width="1.3067" stroke-linecap="round" stroke-miterlimit="10" x1="20.951" y1="103.011" x2="16.995" y2="123.98"/>
<path fill="#FFFFFF" d="M42.752,100.888c-0.23-0.36-0.627-0.601-1.084-0.601c-0.705,0-1.279,0.574-1.279,1.276
	c0,0.204,0.125,0.562,0.125,0.562l3.54,6.406c0,0,0.217,0.441,0.217,0.845v13.756h0.007c0,0.961,0.774,1.73,1.731,1.73
	c0.955,0,1.726-0.77,1.726-1.73v-5.428c0,0-0.098-0.769,0.522-0.769c0.618,0,0.521,0.769,0.521,0.769v5.428
	c0,0.961,0.776,1.73,1.732,1.73c0.955,0,1.733-0.77,1.733-1.73v-13.756c0-0.403,0.214-0.845,0.214-0.845l3.272-5.914
	c0,0,0.4-0.85,0.4-1.054c0-0.702-0.572-1.276-1.28-1.276c-0.463,0-0.858,0.24-1.083,0.601l-0.015-0.008
	c-0.103,0.088-1.741,3.007-2.282,3.547c-0.572,0.577-1.084,0.514-1.084,0.514h-2.13h-2.125c0,0-0.516,0.063-1.085-0.514
	c-0.548-0.54-2.18-3.459-2.284-3.547L42.752,100.888z"/>
<path fill="#FFFFFF" d="M48.257,102.728c1.942,0,3.51-1.572,3.51-3.516c0-1.941-1.567-3.508-3.51-3.508
	c-1.941,0-3.51,1.566-3.51,3.508C44.747,101.156,46.315,102.728,48.257,102.728"/>
<polygon fill="#FFFFFF" points="48.263,107.656 52.231,110.55 54.117,117.496 48.263,117.496 42.403,117.496 44.294,110.55 "/>
<path fill="#FFFFFF" d="M48.143,18.211v8.262H46.28V13.324h2.173l2.385,7.544v-7.544h1.843v13.149h-1.939L48.143,18.211z"/>
<path fill="#FFFFFF" d="M54.137,23.079v-6.361c0-2.056,1.009-3.549,3.336-3.549c2.347,0,3.355,1.493,3.355,3.549v6.361
	c0,2.037-1.009,3.549-3.355,3.549C55.146,26.628,54.137,25.115,54.137,23.079z M58.617,23.428v-7.059
	c0-0.795-0.349-1.358-1.145-1.358c-0.775,0-1.125,0.562-1.125,1.358v7.059c0,0.795,0.35,1.357,1.125,1.357
	C58.269,24.785,58.617,24.223,58.617,23.428z"/>
<path fill="#FFFFFF" d="M46.28,32.783h3.278c2.23,0,3.045,1.105,3.045,2.948v2.773c0,1.842-0.814,2.967-3.045,2.967h-1.067v4.46
	H46.28V32.783z M48.491,34.586v5.178h0.815c0.756,0,1.086-0.368,1.086-1.086v-3.025c0-0.718-0.33-1.066-1.086-1.066H48.491z"/>
<path fill="#FFFFFF" d="M53.943,42.538v-6.361c0-2.056,1.009-3.549,3.336-3.549c2.347,0,3.355,1.493,3.355,3.549v6.361
	c0,2.037-1.009,3.549-3.355,3.549C54.952,46.087,53.943,44.574,53.943,42.538z M58.424,42.887v-7.059
	c0-0.795-0.349-1.358-1.145-1.358c-0.775,0-1.125,0.562-1.125,1.358v7.059c0,0.795,0.35,1.357,1.125,1.357
	C58.075,44.244,58.424,43.682,58.424,42.887z"/>
<path fill="#FFFFFF" d="M68.782,32.783L66.28,45.932h-2.404l-2.502-13.149h2.25l1.513,9.173h0.019l1.552-9.173H68.782z"/>
<path fill="#FFFFFF" d="M69.89,32.783h5.275v1.804h-3.064v3.762h2.192v1.784h-2.192v3.995h3.064v1.804H69.89V32.783z"/>
<path fill="#FFFFFF" d="M78.755,39.9v6.032h-2.211V32.783h3.22c2.23,0,3.045,1.105,3.045,2.948v1.687
	c0,1.416-0.504,2.25-1.765,2.541l2.114,5.973H80.83L78.755,39.9z M78.755,34.586v4.092h0.737c0.757,0,1.086-0.388,1.086-1.086
	v-1.939c0-0.718-0.329-1.066-1.086-1.066H78.755z"/>
<path fill="#FFFFFF" d="M83.761,32.783h5.877v1.804h-1.823v11.345h-2.23V34.586h-1.823V32.783z"/>
<path fill="#FFFFFF" d="M95.166,40.928v5.003h-2.211v-5.003l-2.463-8.146H92.8l1.339,4.984h0.02l1.338-4.984h2.114L95.166,40.928z"
	/>
</svg>
