<?xml version="1.0" encoding="utf-8"?>
<!-- Generator: Adobe Illustrator 15.0.0, SVG Export Plug-In  -->
<!DOCTYPE svg PUBLIC "-//W3C//DTD SVG 1.1//EN" "http://www.w3.org/Graphics/SVG/1.1/DTD/svg11.dtd" [
	<!ENTITY ns_flows "http://ns.adobe.com/Flows/1.0/">
]>
<svg version="1.1"
	 xmlns="http://www.w3.org/2000/svg" xmlns:xlink="http://www.w3.org/1999/xlink" xmlns:a="http://ns.adobe.com/AdobeSVGViewerExtensions/3.0/"
	 x="0px" y="0px" width="161px" height="161px" viewBox="0 0.001 161 161"
	 overflow="visible" enable-background="new 0 0.001 161 161" xml:space="preserve">
<defs>
</defs>
<rect fill="#5CBA47" width="160.922" height="160.929"/>
<polygon fill="#FFFFFF" points="11.783,19.358 11.783,25.052 11.83,25.052 15.658,21.081 15.707,21.081 15.707,45.917 
	21.162,45.917 21.162,13.47 16.807,13.47 "/>
<path fill="#FFFFFF" d="M34.131,23.761c-2.152,0-3.73,0.764-4.594,2.248h-0.049v-8.088h9.381v-4.449H24.514v18.282h4.975v-0.721
	c0-1.912,0.861-2.966,2.393-2.966c1.676,0,2.348,1.149,2.348,2.92v7.849c0,1.721-0.623,2.918-2.299,2.918
	c-1.865,0-2.533-1.244-2.533-3.158v-4.067h-4.98v3.687c0,4.928,1.963,8.086,7.514,8.086c5.504,0,7.752-2.92,7.752-7.418v-7.944
	C39.682,25.818,37.051,23.761,34.131,23.761"/>
<path fill="#FFFFFF" d="M66.639,108.807c0.196,0,0.354,0.16,0.354,0.356v11.718c0,0.199-0.158,0.356-0.354,0.356h-4.742
	c-0.197,0-0.356-0.157-0.356-0.356v-11.718c0-0.196,0.159-0.356,0.356-0.356H66.639z"/>
<path fill="#FFFFFF" d="M118.714,126.269H40.569c-0.195,0-0.357,0.168-0.357,0.367v4.776c0,0.194,0.162,0.352,0.357,0.352h78.145
	c0.192,0,0.358-0.157,0.358-0.352v-4.776C119.072,126.437,118.906,126.269,118.714,126.269"/>
<path fill="#FFFFFF" d="M118.714,135.762H40.569c-0.195,0-0.357,0.157-0.357,0.352v4.791c0,0.191,0.162,0.353,0.357,0.353h78.145
	c0.192,0,0.358-0.161,0.358-0.353v-4.791C119.072,135.919,118.906,135.762,118.714,135.762"/>
<path fill="#FFFFFF" d="M103.844,95.836c-0.977-0.764-3.582-2.547-6.76-2.547c-2.271,0-4.385,0.895-6.275,2.666
	c-0.134,0.127-0.209,0.303-0.209,0.49v0.426c0,0.21,0.069,0.405,0.223,0.534c0.17,0.129,0.348,0.177,0.551,0.129
	c0.045-0.007,0.101-0.021,0.146-0.038c0.145-0.05,0.28-0.137,0.391-0.247c0.41-0.275,1.529-0.651,3.13-0.651
	c1.655,0,4.908,0.443,8.052,3.374l0.072,0.064c0.177,0.183,0.421,0.283,0.68,0.283c0.246,0,0.501-0.103,0.661-0.276l0.063-0.065
	c3.161-2.937,6.408-3.38,8.063-3.38c1.612,0,2.727,0.376,3.138,0.651c0.112,0.11,0.25,0.199,0.432,0.265
	c0.069,0.021,0.269,0.061,0.458,0.014c0.289-0.081,0.492-0.342,0.492-0.644v-0.377c0-0.179-0.077-0.359-0.21-0.483
	c-1.908-1.819-4.044-2.738-6.352-2.738C107.441,93.286,104.848,95.041,103.844,95.836"/>
<path fill="#FFFFFF" d="M98.994,64.691c-0.166,0.077-0.286,0.229-0.341,0.412l-0.079,0.261c-0.059,0.205-0.021,0.421,0.103,0.587
	c0.121,0.159,0.293,0.254,0.483,0.263c0.036,0.004,0.071,0.013,0.098,0.004c0.136-0.004,0.258-0.034,0.378-0.097
	c0.069-0.014,0.214-0.053,0.474-0.053c0.35,0,3.5,0.106,5.583,3.646l0.026,0.05c0.113,0.205,0.29,0.346,0.5,0.4
	c0.061,0.02,0.177,0.039,0.249,0.039c0.145,0,0.29-0.039,0.394-0.098l0.052-0.025c1.14-0.57,2.32-0.862,3.486-0.862
	c1.974,0,3.263,0.805,3.563,1.141c0.062,0.114,0.155,0.213,0.262,0.292c0.066,0.038,0.184,0.097,0.254,0.122
	c0.035,0.009,0.076,0.014,0.115,0.017c0.021,0.004,0.047,0.004,0.07,0.004c0.106,0,0.209-0.026,0.31-0.078
	c0.16-0.081,0.28-0.227,0.332-0.4l0.065-0.23c0.02-0.059,0.027-0.123,0.027-0.19c0-0.122-0.031-0.24-0.091-0.335
	c-1.518-2.635-3.72-3.186-5.301-3.186c-1.177,0-2.206,0.305-2.812,0.528c-0.716-0.963-2.525-2.953-5.271-2.953
	C100.959,63.949,99.976,64.197,98.994,64.691"/>
<path fill="#FFFFFF" d="M82.482,76.713l0.022,0.352c0.011,0.22,0.126,0.41,0.312,0.526c0.154,0.097,0.352,0.131,0.525,0.08
	c0.038-0.009,0.081-0.023,0.114-0.036c0.135-0.055,0.249-0.141,0.338-0.25c0.332-0.24,1.402-0.677,2.98-0.677
	c1.518,0,3.826,0.405,6.179,2.337l0.055,0.056c0.168,0.145,0.383,0.227,0.603,0.227h0.058c0.246-0.019,0.474-0.132,0.613-0.295
	l0.053-0.059c2.604-2.756,5.41-3.166,6.851-3.166c1.026,0,1.754,0.212,2.037,0.372c0.107,0.093,0.24,0.166,0.406,0.211
	c0.047,0.011,0.162,0.032,0.286,0.019c0.051-0.005,0.114-0.023,0.164-0.039c0.279-0.098,0.463-0.37,0.443-0.672l-0.018-0.306
	c-0.012-0.182-0.097-0.346-0.235-0.465c-1.555-1.308-3.232-1.967-4.998-1.967c-2.749,0-4.941,1.623-5.85,2.419
	c-0.831-0.566-2.848-1.73-5.214-1.73c-2.079,0-3.943,0.864-5.544,2.562C82.538,76.348,82.475,76.53,82.482,76.713"/>
<path fill="#FFFFFF" d="M42.938,82.987c0-4.68,3.794-8.472,8.472-8.472c0.184,0,0.362,0.016,0.543,0.026
	c0.446-5.922,5.381-10.592,11.418-10.592c6.331,0,11.464,5.131,11.464,11.462c0,1.793-0.425,3.483-1.159,4.995
	c5.737,1.271,10.031,6.38,10.031,12.497c0,7.074-5.735,12.81-12.81,12.81c-0.517,0-17.095-0.1-17.095-0.1l0,0
	c-5.011-0.001-9.071-4.06-9.071-9.069c0-2.407,0.943-4.587,2.473-6.21C44.657,88.873,42.938,86.133,42.938,82.987z"/>
<path fill="#FFFFFF" d="M51.443,13.478h2.211v11.345h2.638v1.804h-4.849V13.478z"/>
<path fill="#FFFFFF" d="M57.496,13.478h2.211v13.149h-2.211V13.478z"/>
<path fill="#FFFFFF" d="M61.182,13.478h5.179v1.804h-2.968v3.762h2.211v1.784h-2.211v5.799h-2.211V13.478z"/>
<path fill="#FFFFFF" d="M67.506,13.478h5.275v1.804h-3.064v3.762h2.192v1.784h-2.192v3.995h3.064v1.804h-5.275V13.478z"/>
<path fill="#FFFFFF" d="M51.428,42.555v-6.361c0-2.056,1.009-3.549,3.336-3.549c2.347,0,3.355,1.493,3.355,3.549v6.361
	c0,2.037-1.009,3.549-3.355,3.549C52.437,46.104,51.428,44.592,51.428,42.555z M55.908,42.904v-7.059
	c0-0.795-0.349-1.358-1.145-1.358c-0.775,0-1.125,0.562-1.125,1.358v7.059c0,0.795,0.35,1.357,1.125,1.357
	C55.56,44.262,55.908,43.7,55.908,42.904z"/>
<path fill="#FFFFFF" d="M61.205,37.688v8.262h-1.862V32.8h2.173l2.385,7.544V32.8h1.843v13.149h-1.939L61.205,37.688z"/>
<path fill="#FFFFFF" d="M70.517,32.8h2.211v11.345h2.638v1.804h-4.849V32.8z"/>
<path fill="#FFFFFF" d="M75.969,45.949L78.451,32.8h2.521l2.502,13.149h-2.27l-0.407-2.405h-2.347l-0.388,2.405H75.969z
	 M78.742,41.779h1.765l-0.873-5.275h-0.019L78.742,41.779z"/>
<path fill="#FFFFFF" d="M86.23,37.688v8.262h-1.862V32.8h2.173l2.385,7.544V32.8h1.843v13.149h-1.939L86.23,37.688z"/>
<path fill="#FFFFFF" d="M98.8,36.33v6.089c0,2.017-0.834,3.53-3.2,3.53h-3.414V32.8H95.6C97.966,32.8,98.8,34.293,98.8,36.33z
	 M95.328,44.146c0.911,0,1.261-0.543,1.261-1.338v-6.885c0-0.775-0.35-1.318-1.261-1.318h-0.932v9.542H95.328z"/>
</svg>
