<?xml version="1.0" encoding="utf-8"?>
<!-- Generator: Adobe Illustrator 15.0.0, SVG Export Plug-In  -->
<!DOCTYPE svg PUBLIC "-//W3C//DTD SVG 1.1//EN" "http://www.w3.org/Graphics/SVG/1.1/DTD/svg11.dtd" [
	<!ENTITY ns_flows "http://ns.adobe.com/Flows/1.0/">
]>
<svg version="1.1"
	 xmlns="http://www.w3.org/2000/svg" xmlns:xlink="http://www.w3.org/1999/xlink" xmlns:a="http://ns.adobe.com/AdobeSVGViewerExtensions/3.0/"
	 x="0px" y="0px" width="161px" height="161px" viewBox="0 0 161 161" overflow="visible" enable-background="new 0 0 161 161"
	 xml:space="preserve">
<defs>
</defs>
<rect fill="#29BEE2" width="160.922" height="160.928"/>
<path fill="#FFFFFF" d="M24.869,46.361c5.789,0,8.039-3.16,8.039-8.186v-4.785c0-5.312-2.105-7.992-6.031-7.992
	c-2.297,0-3.684,1.055-4.498,2.633h-0.047v-6.986c0-1.965,0.623-3.352,2.584-3.352s2.537,1.15,2.537,3.16v2.152h4.977v-1.723
	c0-4.787-1.58-8.135-7.609-8.135c-5.742,0-7.896,3.684-7.896,8.756v15.793C16.923,42.725,19.125,46.361,24.869,46.361
	 M22.332,32.721c0.096-1.818,0.861-2.967,2.584-2.967c1.865,0,2.584,1.148,2.584,3.256v5.646c0,2.057-0.764,3.254-2.631,3.254
	c-1.82,0-2.537-1.244-2.537-3.254V32.721z"/>
<path fill="#FFFFFF" d="M110.618,65.073c-0.137-0.148-0.32-0.231-0.529-0.231h-58.38c-0.202,0-0.388,0.083-0.524,0.231
	c-0.128,0.163-0.179,0.364-0.146,0.552l9.809,59.322c0.054,0.328,0.341,0.572,0.673,0.572h12.038l0.823,9.662l-5.065,0.006
	l11.787,11.787l11.815-11.814l-5.064,0.006l0.822-9.646h12.25c0.338,0,0.621-0.244,0.67-0.582l9.178-59.312
	C110.804,65.422,110.743,65.227,110.618,65.073z M88.054,112.564c0,0-2.652,2.727-6.966,2.431c-4.324,0.296-6.974-2.431-6.974-2.431
	c-4.374-4.369-2.813-9.806-1.291-12.615c0.94-1.76,7.66-11.852,8.238-12.709v-0.068c0,0,0.01,0.014,0.026,0.033l0.023-0.033v0.068
	c0.562,0.857,7.292,10.949,8.234,12.709C90.868,102.759,92.425,108.195,88.054,112.564z M106.573,77.555
	c-1.582-0.697-3.588-0.446-5.514,0.334c-7.244,2.936-12.174,3.992-19.793,1.606c-4.797-1.502-9.287-4.647-14.593-2.731
	c-3.521,1.266-6.803,2.475-10.784,2.443l-2.3-11.789h54.638L106.573,77.555z"/>
<path fill="#FFFFFF" d="M46.292,45.912l2.482-13.149h2.521l2.502,13.149h-2.27l-0.407-2.405h-2.347l-0.388,2.405H46.292z
	 M49.066,41.742h1.765l-0.873-5.275h-0.019L49.066,41.742z"/>
<path fill="#FFFFFF" d="M56.574,37.65v8.262h-1.862V32.763h2.173l2.385,7.544v-7.544h1.843v13.149h-1.939L56.574,37.65z"/>
<path fill="#FFFFFF" d="M69.318,36.293v6.089c0,2.017-0.834,3.53-3.2,3.53h-3.414V32.763h3.414
	C68.484,32.763,69.318,34.256,69.318,36.293z M65.846,44.107c0.911,0,1.261-0.543,1.261-1.338v-6.885
	c0-0.775-0.35-1.318-1.261-1.318h-0.932v9.541H65.846z"/>
<path fill="#FFFFFF" d="M74.247,43.08v-1.765h2.056v1.804c0,0.736,0.33,1.164,1.087,1.164c0.697,0,1.008-0.467,1.008-1.164v-0.504
	c0-0.757-0.311-1.223-0.989-1.862l-1.299-1.3c-1.261-1.24-1.843-1.997-1.843-3.51v-0.446c0-1.629,0.95-2.89,3.104-2.89
	c2.211,0,3.083,1.086,3.083,2.986v1.066h-2.017v-1.144c0-0.757-0.35-1.125-1.047-1.125c-0.621,0-1.048,0.349-1.048,1.086v0.271
	c0,0.737,0.407,1.163,1.048,1.784l1.415,1.396c1.203,1.223,1.784,1.959,1.784,3.414v0.639c0,1.805-0.97,3.084-3.219,3.084
	C75.12,46.066,74.247,44.807,74.247,43.08z"/>
<path fill="#FFFFFF" d="M81.231,45.912l2.483-13.149h2.521l2.502,13.149h-2.27l-0.408-2.405h-2.346l-0.389,2.405H81.231z
	 M84.005,41.742h1.764l-0.873-5.275h-0.018L84.005,41.742z"/>
<path fill="#FFFFFF" d="M91.667,37.65v8.262h-1.861V32.763h2.172l2.385,7.544v-7.544h1.844v13.149h-1.939L91.667,37.65z"/>
<path fill="#FFFFFF" d="M97.972,32.763h2.211v13.149h-2.211V32.763z"/>
<path fill="#FFFFFF" d="M101.251,32.763h5.877v1.804h-1.822v11.346h-2.23V34.566h-1.824V32.763z"/>
<path fill="#FFFFFF" d="M106.604,45.912l2.482-13.149h2.521l2.502,13.149h-2.27l-0.406-2.405h-2.348l-0.387,2.405H106.604z
	 M109.378,41.742h1.766l-0.873-5.275h-0.02L109.378,41.742z"/>
<path fill="#FFFFFF" d="M113.415,32.763h5.877v1.804h-1.824v11.346h-2.23V34.566h-1.822V32.763z"/>
<path fill="#FFFFFF" d="M120.456,32.763h2.211v13.149h-2.211V32.763z"/>
<path fill="#FFFFFF" d="M124.122,42.518v-6.361c0-2.056,1.01-3.549,3.336-3.549c2.348,0,3.355,1.493,3.355,3.549v6.361
	c0,2.037-1.008,3.549-3.355,3.549C125.132,46.066,124.122,44.555,124.122,42.518z M128.603,42.867v-7.06
	c0-0.796-0.348-1.358-1.145-1.358c-0.775,0-1.125,0.562-1.125,1.358v7.06c0,0.795,0.35,1.357,1.125,1.357
	C128.255,44.225,128.603,43.662,128.603,42.867z"/>
<path fill="#FFFFFF" d="M134.132,37.65v8.262h-1.861V32.763h2.172l2.385,7.544v-7.544h1.844v13.149h-1.939L134.132,37.65z"/>
<path fill="#FFFFFF" d="M46.538,23.121V16.76c0-2.056,0.97-3.549,3.298-3.549c2.443,0,3.122,1.357,3.122,3.297v1.552h-2.017v-1.726
	c0-0.815-0.271-1.281-1.067-1.281c-0.795,0-1.125,0.562-1.125,1.358v7.06c0,0.795,0.33,1.357,1.125,1.357
	c0.796,0,1.067-0.504,1.067-1.28v-2.425h2.017v2.27c0,1.881-0.775,3.277-3.122,3.277C47.507,26.67,46.538,25.158,46.538,23.121z"/>
<path fill="#FFFFFF" d="M54.35,13.366h2.211v11.345h2.638v1.805H54.35V13.366z"/>
<path fill="#FFFFFF" d="M60.403,13.366h5.275v1.804h-3.064v3.762h2.192v1.785h-2.192v3.994h3.064v1.805h-5.275V13.366z"/>
<path fill="#FFFFFF" d="M66.708,26.516l2.482-13.149h2.521l2.502,13.149h-2.27l-0.407-2.405H69.19l-0.388,2.405H66.708z
	 M69.481,22.346h1.765l-0.873-5.275h-0.019L69.481,22.346z"/>
<path fill="#FFFFFF" d="M77.183,18.254v8.262h-1.862V13.366h2.173l2.385,7.544v-7.544h1.843v13.149h-1.94L77.183,18.254z"/>
<path fill="#FFFFFF" d="M91.188,18.389l-1.24,8.127h-2.076l-1.764-13.149h2.133l1.027,8.339h0.02l1.105-8.339h1.805l1.221,8.339
	h0.02l1.008-8.339h1.863l-1.707,13.149h-2.096l-1.299-8.127H91.188z"/>
<path fill="#FFFFFF" d="M96.331,26.516l2.482-13.149h2.521l2.502,13.149h-2.27l-0.408-2.405h-2.346l-0.389,2.405H96.331z
	 M99.104,22.346h1.764l-0.873-5.275h-0.018L99.104,22.346z"/>
<path fill="#FFFFFF" d="M103.567,13.366h5.877v1.804h-1.824v11.346h-2.23V15.17h-1.822V13.366z"/>
<path fill="#FFFFFF" d="M110.511,13.366h5.275v1.804h-3.064v3.762h2.193v1.785h-2.193v3.994h3.064v1.805h-5.275V13.366z"/>
<path fill="#FFFFFF" d="M119.202,20.483v6.032h-2.211V13.366h3.219c2.23,0,3.045,1.105,3.045,2.948v1.687
	c0,1.416-0.504,2.25-1.764,2.541l2.113,5.974h-2.328L119.202,20.483z M119.202,15.17v4.092h0.736c0.758,0,1.086-0.388,1.086-1.086
	v-1.939c0-0.718-0.328-1.066-1.086-1.066H119.202z"/>
</svg>
