<?xml version="1.0" encoding="utf-8"?>
<!-- Generator: Adobe Illustrator 15.0.0, SVG Export Plug-In  -->
<!DOCTYPE svg PUBLIC "-//W3C//DTD SVG 1.1//EN" "http://www.w3.org/Graphics/SVG/1.1/DTD/svg11.dtd" [
	<!ENTITY ns_flows "http://ns.adobe.com/Flows/1.0/">
]>
<svg version="1.1"
	 xmlns="http://www.w3.org/2000/svg" xmlns:xlink="http://www.w3.org/1999/xlink" xmlns:a="http://ns.adobe.com/AdobeSVGViewerExtensions/3.0/"
	 x="0px" y="0px" width="161px" height="161px" viewBox="-0.714 0 161 161"
	 overflow="visible" enable-background="new -0.714 0 161 161" xml:space="preserve">
<defs>
</defs>
<rect fill="#BE8B2C" width="160.918" height="160.927"/>
<polygon fill="#FFFFFF" points="16.063,21.145 16.112,21.145 16.112,45.983 21.567,45.983 21.567,13.537 17.208,13.537 
	12.187,19.423 12.187,25.118 12.233,25.118 "/>
<path fill="#FFFFFF" d="M24.819,20.238v3.923h4.977v-4.068c0-1.961,0.959-2.535,2.105-2.535c1.055,0,1.963,0.43,1.963,2.441v2.678
	c0,2.682-0.238,3.733-2.012,5.6l-3.061,3.255c-2.967,3.159-4.07,5.265-4.07,8.472v5.982H38.89v-4.452h-8.951v-1.53
	c0-2.537,0.91-3.494,2.297-4.978l3.494-3.685c2.824-3.015,3.447-4.931,3.447-8.185v-3.157c0-4.644-2.248-6.844-7.131-6.844
	C27.259,13.155,24.819,15.691,24.819,20.238"/>
<path fill="#FFFFFF" d="M124.53,86.205c-6.562-5.183-14.432-5.742-17.511-5.742c-1.623,0-3.126,0.146-4.227,0.407l-0.432,0.1
	c-4.156,0.982-11.113,2.625-19.212,12.676l-0.237,0.295c-0.134,0.191-0.203,0.396-0.203,0.607c0,0.184,0.046,0.359,0.143,0.533
	l0.184,0.302c1.337,2.235,2.449,4.177,3.331,5.827c0.316,0.611,1.161,0.811,1.732,0.242c0.056-0.074,0.113-0.152,0.151-0.213
	c6.995-9.675,12.478-10.964,16.104-11.816l0.449-0.107c0.5-0.119,1.31-0.188,2.222-0.188c1.687,0,7.549,0.28,12.122,3.892
	c4.069,3.212,6.133,8.342,6.133,15.247c0,11.572-5.6,16.087-10.298,17.836c-1.792,0.67-3.724,1.01-5.741,1.01
	c-4.838,0-8.562-1.937-8.611-1.962l-0.336-0.164c-4.041-1.754-10.074-5.411-15.777-16.865
	c-11.693-23.485-21.516-25.711-28.02-27.184l-0.342-0.076c-0.498-0.113-1.904-0.376-4.191-0.376c-3.766,0-11.011,0.74-17.22,5.696
	c-4.239,3.381-9.294,9.95-9.294,22.037c0,7.365,1.517,12.23,5.405,17.346c0.731,0.998,7.508,9.749,20.518,9.749
	c1.928,0,3.927-0.196,5.941-0.582c2.375-0.455,6.041-1.629,10.134-4.632l3.421,3.086c0.382,0.35,1.044,0.312,1.388-0.064
	c0.167-0.178,0.256-0.416,0.247-0.65l2.646-16.297l0.002-0.19c-0.004-0.278-0.125-0.542-0.318-0.71
	c-0.174-0.165-0.397-0.253-0.686-0.253c-0.002,0-0.005,0-0.007,0l-15.867,4.386l-0.302,0.05c-0.2,0.042-0.377,0.146-0.505,0.292
	c-0.18,0.197-0.271,0.452-0.257,0.718c0.014,0.265,0.132,0.507,0.324,0.678l3.288,2.974c-1.729,1.06-3.456,1.761-5.137,2.087
	c-1.431,0.272-2.848,0.411-4.209,0.411c-8.99,0-13.414-5.9-13.597-6.15l-0.089-0.122c-2.735-3.593-3.659-6.651-3.659-12.124
	c0-6.928,2.028-12.061,6.026-15.254c4.45-3.551,10.176-3.826,11.826-3.826c0.902,0,1.722,0.068,2.248,0.188l0.351,0.08
	c5.192,1.174,12.302,2.783,22.158,22.583c5.206,10.452,11.734,17.29,19.94,20.894c0.954,0.486,6.043,2.914,12.567,2.914
	c3.046,0,5.995-0.523,8.77-1.555c4.793-1.789,15.943-7.902,15.943-25.976C133.962,96.188,128.833,89.603,124.53,86.205z"/>
<path fill="#FFFFFF" d="M53.572,20.587v6.032h-2.211V13.47h3.22c2.23,0,3.045,1.105,3.045,2.948v1.687
	c0,1.416-0.504,2.25-1.765,2.541l2.114,5.973h-2.328L53.572,20.587z M53.572,15.274v4.092h0.737c0.757,0,1.086-0.388,1.086-1.086
	V16.34c0-0.718-0.329-1.066-1.086-1.066H53.572z"/>
<path fill="#FFFFFF" d="M58.811,13.47h5.275v1.804h-3.064v3.762h2.192v1.784h-2.192v3.995h3.064v1.804h-5.275V13.47z"/>
<path fill="#FFFFFF" d="M65.136,23.788v-1.765h2.056v1.804c0,0.737,0.33,1.164,1.087,1.164c0.697,0,1.008-0.466,1.008-1.164v-0.504
	c0-0.756-0.311-1.222-0.989-1.862l-1.299-1.299c-1.261-1.241-1.843-1.998-1.843-3.51v-0.446c0-1.629,0.95-2.89,3.104-2.89
	c2.211,0,3.083,1.086,3.083,2.987v1.066h-2.017v-1.144c0-0.756-0.35-1.125-1.047-1.125c-0.621,0-1.048,0.349-1.048,1.086v0.271
	c0,0.737,0.407,1.164,1.048,1.784l1.415,1.396c1.203,1.222,1.784,1.959,1.784,3.414v0.64c0,1.804-0.97,3.084-3.219,3.084
	C66.009,26.774,65.136,25.514,65.136,23.788z"/>
<path fill="#FFFFFF" d="M72.585,13.47h3.278c2.23,0,3.045,1.105,3.045,2.948v2.773c0,1.842-0.814,2.967-3.045,2.967h-1.067v4.46
	h-2.211V13.47z M74.796,15.274v5.178h0.815c0.756,0,1.086-0.368,1.086-1.086V16.34c0-0.718-0.33-1.066-1.086-1.066H74.796z"/>
<path fill="#FFFFFF" d="M80.034,23.225v-6.361c0-2.056,1.009-3.549,3.336-3.549c2.347,0,3.355,1.493,3.355,3.549v6.361
	c0,2.037-1.009,3.549-3.355,3.549C81.043,26.774,80.034,25.262,80.034,23.225z M84.515,23.574v-7.059
	c0-0.795-0.349-1.358-1.145-1.358c-0.775,0-1.125,0.562-1.125,1.358v7.059c0,0.795,0.35,1.357,1.125,1.357
	C84.166,24.932,84.515,24.37,84.515,23.574z"/>
<path fill="#FFFFFF" d="M89.831,18.357v8.262h-1.862V13.47h2.173l2.385,7.544V13.47h1.843v13.149H92.43L89.831,18.357z"/>
<path fill="#FFFFFF" d="M95.515,23.788v-1.765h2.056v1.804c0,0.737,0.33,1.164,1.087,1.164c0.697,0,1.008-0.466,1.008-1.164v-0.504
	c0-0.756-0.311-1.222-0.989-1.862l-1.299-1.299c-1.261-1.241-1.843-1.998-1.843-3.51v-0.446c0-1.629,0.95-2.89,3.104-2.89
	c2.211,0,3.083,1.086,3.083,2.987v1.066h-2.017v-1.144c0-0.756-0.35-1.125-1.047-1.125c-0.621,0-1.048,0.349-1.048,1.086v0.271
	c0,0.737,0.407,1.164,1.048,1.784l1.415,1.396c1.203,1.222,1.784,1.959,1.784,3.414v0.64c0,1.804-0.97,3.084-3.219,3.084
	C96.388,26.774,95.515,25.514,95.515,23.788z"/>
<path fill="#FFFFFF" d="M102.965,13.47h2.211v13.149h-2.211V13.47z"/>
<path fill="#FFFFFF" d="M106.437,13.47h3.2c2.211,0,2.948,1.028,2.948,2.89v1.338c0,1.105-0.407,1.804-1.319,2.095
	c1.105,0.252,1.649,0.989,1.649,2.191v1.746c0,1.862-0.834,2.89-3.045,2.89h-3.434V13.47z M108.647,19.017h0.776
	c0.718,0,1.047-0.368,1.047-1.066v-1.61c0-0.718-0.329-1.066-1.066-1.066h-0.757V19.017z M108.647,20.704v4.111h0.97
	c0.737,0,1.087-0.369,1.087-1.066v-1.979c0-0.698-0.33-1.066-1.105-1.066H108.647z"/>
<path fill="#FFFFFF" d="M114.003,13.47h2.211v11.345h2.638v1.804h-4.849V13.47z"/>
<path fill="#FFFFFF" d="M119.842,13.47h5.275v1.804h-3.064v3.762h2.192v1.784h-2.192v3.995h3.064v1.804h-5.275V13.47z"/>
<path fill="#FFFFFF" d="M51.362,42.539v-6.361c0-2.056,0.97-3.549,3.298-3.549c2.443,0,3.122,1.357,3.122,3.297v1.552h-2.017v-1.726
	c0-0.815-0.271-1.28-1.067-1.28c-0.795,0-1.125,0.562-1.125,1.358v7.059c0,0.795,0.33,1.357,1.125,1.357
	c0.796,0,1.067-0.504,1.067-1.28v-2.424h2.017v2.269c0,1.881-0.775,3.278-3.122,3.278C52.332,46.088,51.362,44.575,51.362,42.539z"
	/>
<path fill="#FFFFFF" d="M59.181,42.539v-6.361c0-2.056,1.009-3.549,3.336-3.549c2.347,0,3.355,1.493,3.355,3.549v6.361
	c0,2.037-1.009,3.549-3.355,3.549C60.189,46.088,59.181,44.575,59.181,42.539z M63.661,42.888v-7.059
	c0-0.795-0.349-1.358-1.145-1.358c-0.775,0-1.125,0.562-1.125,1.358v7.059c0,0.795,0.35,1.357,1.125,1.357
	C63.312,44.245,63.661,43.683,63.661,42.888z"/>
<path fill="#FFFFFF" d="M69.19,37.671v8.262h-1.862V32.784h2.173l2.385,7.544v-7.544h1.843v13.149h-1.939L69.19,37.671z"/>
<path fill="#FFFFFF" d="M75.068,43.101v-1.765h2.056v1.804c0,0.737,0.33,1.164,1.087,1.164c0.697,0,1.008-0.466,1.008-1.164v-0.504
	c0-0.756-0.311-1.222-0.989-1.862l-1.299-1.299c-1.261-1.241-1.843-1.998-1.843-3.51v-0.446c0-1.629,0.95-2.89,3.104-2.89
	c2.211,0,3.083,1.086,3.083,2.987v1.066h-2.017v-1.144c0-0.756-0.35-1.125-1.047-1.125c-0.621,0-1.048,0.349-1.048,1.086v0.271
	c0,0.737,0.407,1.164,1.048,1.784l1.415,1.396c1.203,1.222,1.784,1.959,1.784,3.414v0.64c0,1.804-0.97,3.084-3.219,3.084
	C75.941,46.088,75.068,44.827,75.068,43.101z"/>
<path fill="#FFFFFF" d="M89.19,32.784v9.949c0,2.037-0.873,3.355-3.122,3.355c-2.328,0-3.298-1.319-3.298-3.355v-9.949h2.211v10.162
	c0,0.776,0.311,1.299,1.087,1.299c0.775,0,1.086-0.523,1.086-1.299V32.784H89.19z"/>
<path fill="#FFFFFF" d="M96.736,37.399h-0.058l-1.493,8.533h-1.028l-1.648-8.533H92.47v8.533h-1.823V32.784h2.58l1.435,7.408h0.02
	l1.28-7.408h2.793v13.149h-2.018V37.399z"/>
<path fill="#FFFFFF" d="M100.211,32.784h3.278c2.23,0,3.045,1.105,3.045,2.948v2.773c0,1.842-0.814,2.967-3.045,2.967h-1.067v4.46
	h-2.211V32.784z M102.422,34.587v5.178h0.815c0.756,0,1.086-0.368,1.086-1.086v-3.025c0-0.718-0.33-1.066-1.086-1.066H102.422z"/>
<path fill="#FFFFFF" d="M107.253,32.784h5.877v1.804h-1.823v11.345h-2.23V34.587h-1.823V32.784z"/>
<path fill="#FFFFFF" d="M114.178,32.784h2.211v13.149h-2.211V32.784z"/>
<path fill="#FFFFFF" d="M117.67,42.539v-6.361c0-2.056,1.009-3.549,3.336-3.549c2.347,0,3.355,1.493,3.355,3.549v6.361
	c0,2.037-1.009,3.549-3.355,3.549C118.679,46.088,117.67,44.575,117.67,42.539z M122.15,42.888v-7.059
	c0-0.795-0.349-1.358-1.145-1.358c-0.775,0-1.125,0.562-1.125,1.358v7.059c0,0.795,0.35,1.357,1.125,1.357
	C121.802,44.245,122.15,43.683,122.15,42.888z"/>
<path fill="#FFFFFF" d="M127.506,37.671v8.262h-1.862V32.784h2.173l2.385,7.544v-7.544h1.843v13.149h-1.939L127.506,37.671z"/>
<path fill="#FFFFFF" d="M51.014,65.246l2.482-13.149h2.521l2.502,13.149h-2.27l-0.407-2.405h-2.347l-0.388,2.405H51.014z
	 M53.787,61.076h1.765l-0.873-5.275H54.66L53.787,61.076z"/>
<path fill="#FFFFFF" d="M61.353,56.984v8.262H59.49V52.097h2.173l2.385,7.544v-7.544h1.843v13.149h-1.939L61.353,56.984z"/>
<path fill="#FFFFFF" d="M73.826,55.626v6.09c0,2.017-0.834,3.53-3.2,3.53h-3.414V52.097h3.414
	C72.992,52.097,73.826,53.59,73.826,55.626z M70.354,63.442c0.911,0,1.261-0.543,1.261-1.338v-6.885c0-0.775-0.35-1.318-1.261-1.318
	h-0.932v9.542H70.354z"/>
<path fill="#FFFFFF" d="M77.241,52.097h3.278c2.23,0,3.045,1.105,3.045,2.948v2.773c0,1.842-0.814,2.967-3.045,2.967h-1.067v4.46
	h-2.211V52.097z M79.452,53.901v5.178h0.815c0.756,0,1.086-0.368,1.086-1.086v-3.025c0-0.718-0.33-1.066-1.086-1.066H79.452z"/>
<path fill="#FFFFFF" d="M86.979,59.214v6.032h-2.211V52.097h3.22c2.23,0,3.045,1.105,3.045,2.948v1.687
	c0,1.416-0.504,2.25-1.765,2.541l2.114,5.973h-2.328L86.979,59.214z M86.979,53.901v4.092h0.737c0.757,0,1.086-0.388,1.086-1.086
	v-1.939c0-0.718-0.329-1.066-1.086-1.066H86.979z"/>
<path fill="#FFFFFF" d="M92.295,61.852v-6.361c0-2.056,1.009-3.549,3.336-3.549c2.347,0,3.355,1.493,3.355,3.549v6.361
	c0,2.037-1.009,3.549-3.355,3.549C93.304,65.401,92.295,63.889,92.295,61.852z M96.775,62.201v-7.059
	c0-0.795-0.349-1.358-1.145-1.358c-0.775,0-1.125,0.562-1.125,1.358v7.059c0,0.795,0.35,1.357,1.125,1.357
	C96.427,63.559,96.775,62.997,96.775,62.201z"/>
<path fill="#FFFFFF" d="M106.922,55.626v6.09c0,2.017-0.834,3.53-3.2,3.53h-3.414V52.097h3.414
	C106.088,52.097,106.922,53.59,106.922,55.626z M103.45,63.442c0.911,0,1.261-0.543,1.261-1.338v-6.885
	c0-0.775-0.35-1.318-1.261-1.318h-0.932v9.542H103.45z"/>
<path fill="#FFFFFF" d="M114.662,52.097v9.949c0,2.037-0.873,3.355-3.122,3.355c-2.328,0-3.298-1.319-3.298-3.355v-9.949h2.211
	v10.162c0,0.776,0.311,1.299,1.087,1.299c0.775,0,1.086-0.523,1.086-1.299V52.097H114.662z"/>
<path fill="#FFFFFF" d="M115.982,61.852v-6.361c0-2.056,0.97-3.549,3.298-3.549c2.443,0,3.122,1.357,3.122,3.297v1.552h-2.017
	v-1.726c0-0.815-0.271-1.28-1.067-1.28c-0.795,0-1.125,0.562-1.125,1.358v7.059c0,0.795,0.33,1.357,1.125,1.357
	c0.796,0,1.067-0.504,1.067-1.28v-2.424h2.017v2.269c0,1.881-0.775,3.278-3.122,3.278C116.952,65.401,115.982,63.889,115.982,61.852
	z"/>
<path fill="#FFFFFF" d="M123.413,52.097h5.877v1.804h-1.823v11.345h-2.23V53.901h-1.823V52.097z"/>
<path fill="#FFFFFF" d="M130.338,52.097h2.211v13.149h-2.211V52.097z"/>
<path fill="#FFFFFF" d="M133.83,61.852v-6.361c0-2.056,1.009-3.549,3.336-3.549c2.347,0,3.355,1.493,3.355,3.549v6.361
	c0,2.037-1.009,3.549-3.355,3.549C134.839,65.401,133.83,63.889,133.83,61.852z M138.311,62.201v-7.059
	c0-0.795-0.349-1.358-1.145-1.358c-0.775,0-1.125,0.562-1.125,1.358v7.059c0,0.795,0.35,1.357,1.125,1.357
	C137.962,63.559,138.311,62.997,138.311,62.201z"/>
<path fill="#FFFFFF" d="M143.665,56.984v8.262h-1.862V52.097h2.173l2.385,7.544v-7.544h1.843v13.149h-1.939L143.665,56.984z"/>
</svg>
