<?xml version="1.0" encoding="utf-8"?>
<!-- Generator: Adobe Illustrator 15.0.0, SVG Export Plug-In  -->
<!DOCTYPE svg PUBLIC "-//W3C//DTD SVG 1.1//EN" "http://www.w3.org/Graphics/SVG/1.1/DTD/svg11.dtd" [
	<!ENTITY ns_flows "http://ns.adobe.com/Flows/1.0/">
]>
<svg version="1.1"
	 xmlns="http://www.w3.org/2000/svg" xmlns:xlink="http://www.w3.org/1999/xlink" xmlns:a="http://ns.adobe.com/AdobeSVGViewerExtensions/3.0/"
	 x="0px" y="0px" width="161px" height="161px" viewBox="0 0 161 161" overflow="visible" enable-background="new 0 0 161 161"
	 xml:space="preserve">
<defs>
</defs>
<rect fill="#A21C44" width="160.921" height="160.927"/>
<path fill="#FFFFFF" d="M31.268,37.994v-3.542c0-3.109-1.1-5.359-3.637-6.509c2.151-1.051,3.158-2.965,3.158-5.646v-1.342
	c0-5.072-2.632-7.8-7.656-7.8c-4.977,0-7.562,2.728-7.562,7.8v1.342c0,2.633,0.959,4.595,3.062,5.646
	c-2.536,1.149-3.59,3.399-3.59,6.509v3.542c0,4.929,2.347,8.375,8.09,8.375C28.922,46.369,31.268,42.922,31.268,37.994
	 M20.69,20.624c0-1.965,0.672-3.113,2.442-3.113c1.816,0,2.488,1.148,2.488,3.113v2.199c0,1.962-0.672,3.113-2.488,3.113
	c-1.771,0-2.442-1.151-2.442-3.113V20.624z M25.812,38.568c0,1.963-0.718,3.351-2.679,3.351c-1.916,0-2.633-1.388-2.633-3.351
	v-5.265c0-1.961,0.717-3.35,2.633-3.35c1.961,0,2.679,1.389,2.679,3.35V38.568z"/>
<path fill="#FFFFFF" d="M110.996,79.172L94.638,94.731c-0.617,0.615-0.934,1.066-0.934,2.338v43.607
	c0,0.512,0.418,0.932,0.934,0.932h16.896c0.514,0,0.93-0.42,0.93-0.932V79.565C112.464,79.05,112.062,78.111,110.996,79.172"/>
<path fill="#FFFFFF" d="M63.874,99.444l-16.358,15.557c-0.615,0.615-0.933,1.066-0.933,2.336v23.34c0,0.51,0.419,0.93,0.933,0.93
	h16.896c0.516,0,0.932-0.42,0.932-0.93V99.835C65.344,99.319,64.938,98.378,63.874,99.444"/>
<path fill="#FFFFFF" d="M118.429,60.303c0.006-0.124-0.037-0.257-0.139-0.354c-0.086-0.084-0.195-0.123-0.303-0.133l-0.09,0.006
	l-0.133,0.008l-12.525,2.825l-0.227,0.023c-0.09,0.018-0.176,0.062-0.244,0.128c-0.186,0.187-0.186,0.487,0,0.674l0.141,0.142
	l2.861,2.859L79.391,94.86L66.283,81.753c-0.148-0.15-0.384-0.15-0.533,0l-3.557,3.557c-0.003,0-0.003,0.004-0.003,0.004
	l-21.012,21.008c-0.146,0.148-0.146,0.389,0,0.535l3.562,3.559c0.146,0.148,0.383,0.148,0.529,0l20.75-20.744l9.512,9.512
	c0.01,0.016,0.015,0.031,0.03,0.045l3.558,3.555c0.147,0.148,0.385,0.148,0.533,0l32.208-32.209l3.004,3.002
	c0.186,0.187,0.486,0.187,0.668,0c0.088-0.088,0.131-0.195,0.137-0.309l0.002-0.04l2.752-12.785L118.429,60.303z"/>
<path fill="#FFFFFF" d="M87.527,102.175l-7.914,7.979c-0.15,0.125-0.37,0.121-0.51-0.02l-7.17-7.309
	c-1.312-1.307-1.596-0.246-1.596,0.268v37.582c0,0.512,0.412,0.932,0.926,0.932h16.9c0.512,0,0.93-0.42,0.93-0.932V102.47
	C89.093,101.956,88.689,101.013,87.527,102.175"/>
<path fill="#FFFFFF" d="M49.864,17v6.089c0,2.017-0.834,3.53-3.2,3.53H43.25V13.471h3.414C49.03,13.471,49.864,14.964,49.864,17z
	 M46.393,24.816c0.911,0,1.261-0.543,1.261-1.338v-6.885c0-0.775-0.35-1.318-1.261-1.318h-0.932v9.542H46.393z"/>
<path fill="#FFFFFF" d="M51.262,13.471h5.275v1.804h-3.064v3.762h2.192v1.784h-2.192v3.995h3.064v1.804h-5.275V13.471z"/>
<path fill="#FFFFFF" d="M57.664,23.226v-6.361c0-2.056,0.97-3.549,3.298-3.549c2.443,0,3.122,1.357,3.122,3.297v1.552h-2.017v-1.726
	c0-0.815-0.271-1.28-1.067-1.28c-0.795,0-1.125,0.562-1.125,1.358v7.059c0,0.795,0.33,1.357,1.125,1.357
	c0.796,0,1.067-0.504,1.067-1.28v-2.424h2.017v2.269c0,1.881-0.775,3.278-3.122,3.278C58.634,26.775,57.664,25.262,57.664,23.226z"
	/>
<path fill="#FFFFFF" d="M65.424,13.471h5.275v1.804h-3.064v3.762h2.192v1.784h-2.192v3.995h3.064v1.804h-5.275V13.471z"/>
<path fill="#FFFFFF" d="M73.882,18.358v8.262H72.02V13.471h2.173l2.385,7.544v-7.544h1.843V26.62H76.48L73.882,18.358z"/>
<path fill="#FFFFFF" d="M79.566,13.471h5.876v1.804h-1.822V26.62h-2.23V15.274h-1.824V13.471z"/>
<path fill="#FFFFFF" d="M93.552,18.494l-1.24,8.126h-2.076l-1.764-13.149h2.133l1.027,8.339h0.02l1.105-8.339h1.805l1.221,8.339
	h0.02l1.008-8.339h1.863L96.966,26.62h-2.096l-1.299-8.126H93.552z"/>
<path fill="#FFFFFF" d="M99.568,23.226v-6.361c0-2.056,1.008-3.549,3.336-3.549c2.346,0,3.355,1.493,3.355,3.549v6.361
	c0,2.037-1.01,3.549-3.355,3.549C100.576,26.775,99.568,25.262,99.568,23.226z M104.048,23.575v-7.059
	c0-0.795-0.35-1.358-1.145-1.358c-0.775,0-1.125,0.562-1.125,1.358v7.059c0,0.795,0.35,1.357,1.125,1.357
	C103.699,24.932,104.048,24.37,104.048,23.575z"/>
<path fill="#FFFFFF" d="M109.867,20.588v6.032h-2.211V13.471h3.221c2.23,0,3.045,1.105,3.045,2.948v1.687
	c0,1.416-0.504,2.25-1.766,2.541l2.115,5.973h-2.328L109.867,20.588z M109.867,15.274v4.092h0.738c0.756,0,1.086-0.388,1.086-1.086
	v-1.939c0-0.718-0.33-1.066-1.086-1.066H109.867z"/>
<path fill="#FFFFFF" d="M117.472,20.22v6.4h-2.211V13.471h2.211v5.779l2.406-5.779h2.172l-2.561,5.915l2.619,7.234h-2.328
	L117.472,20.22z"/>
<path fill="#FFFFFF" d="M125.195,26.62l2.482-13.149h2.521l2.502,13.149h-2.27l-0.408-2.405h-2.346l-0.389,2.405H125.195z
	 M127.968,22.45h1.764l-0.873-5.275h-0.018L127.968,22.45z"/>
<path fill="#FFFFFF" d="M135.3,18.358v8.262h-1.861V13.471h2.172l2.385,7.544v-7.544h1.844V26.62H137.9L135.3,18.358z"/>
<path fill="#FFFFFF" d="M147.91,17v6.089c0,2.017-0.834,3.53-3.199,3.53h-3.414V13.471h3.414
	C147.076,13.471,147.91,14.964,147.91,17z M144.439,24.816c0.91,0,1.26-0.543,1.26-1.338v-6.885c0-0.775-0.35-1.318-1.26-1.318
	h-0.932v9.542H144.439z"/>
<path fill="#FFFFFF" d="M43.25,32.788h5.275v1.804h-3.064v3.762h2.192v1.784h-2.192v3.995h3.064v1.804H43.25V32.788z"/>
<path fill="#FFFFFF" d="M49.497,42.543v-6.361c0-2.056,0.97-3.549,3.298-3.549c2.443,0,3.122,1.357,3.122,3.297v1.552H53.9v-1.726
	c0-0.815-0.271-1.28-1.067-1.28c-0.795,0-1.125,0.562-1.125,1.358v7.059c0,0.795,0.33,1.357,1.125,1.357
	c0.796,0,1.067-0.504,1.067-1.28v-2.424h2.017v2.269c0,1.881-0.775,3.278-3.122,3.278C50.467,46.092,49.497,44.58,49.497,42.543z"/>
<path fill="#FFFFFF" d="M57.121,42.543v-6.361c0-2.056,1.009-3.549,3.336-3.549c2.347,0,3.355,1.493,3.355,3.549v6.361
	c0,2.037-1.009,3.549-3.355,3.549C58.13,46.092,57.121,44.58,57.121,42.543z M61.602,42.892v-7.059c0-0.795-0.349-1.358-1.145-1.358
	c-0.775,0-1.125,0.562-1.125,1.358v7.059c0,0.795,0.35,1.357,1.125,1.357C61.253,44.25,61.602,43.688,61.602,42.892z"/>
<path fill="#FFFFFF" d="M66.937,37.675v8.262h-1.862V32.788h2.173l2.385,7.544v-7.544h1.843v13.149h-1.939L66.937,37.675z"/>
<path fill="#FFFFFF" d="M72.737,42.543v-6.361c0-2.056,1.009-3.549,3.336-3.549c2.347,0,3.355,1.493,3.355,3.549v6.361
	c0,2.037-1.009,3.549-3.355,3.549C73.746,46.092,72.737,44.58,72.737,42.543z M77.218,42.892v-7.059
	c0-0.795-0.349-1.358-1.145-1.358c-0.775,0-1.125,0.562-1.125,1.358v7.059c0,0.795,0.35,1.357,1.125,1.357
	C76.869,44.25,77.218,43.688,77.218,42.892z"/>
<path fill="#FFFFFF" d="M86.781,37.404h-0.057l-1.494,8.533h-1.027l-1.648-8.533h-0.039v8.533h-1.824V32.788h2.58l1.436,7.408h0.02
	l1.279-7.408h2.793v13.149h-2.018V37.404z"/>
<path fill="#FFFFFF" d="M90.06,32.788h2.211v13.149H90.06V32.788z"/>
<path fill="#FFFFFF" d="M93.513,42.543v-6.361c0-2.056,0.971-3.549,3.299-3.549c2.443,0,3.121,1.357,3.121,3.297v1.552h-2.016
	v-1.726c0-0.815-0.271-1.28-1.068-1.28c-0.795,0-1.125,0.562-1.125,1.358v7.059c0,0.795,0.33,1.357,1.125,1.357
	c0.797,0,1.068-0.504,1.068-1.28v-2.424h2.016v2.269c0,1.881-0.775,3.278-3.121,3.278C94.484,46.092,93.513,44.58,93.513,42.543z"/>
<path fill="#FFFFFF" d="M107.035,38.917h3.143v7.021h-1.59v-1.435c-0.291,0.989-0.912,1.59-2.115,1.59
	c-1.9,0-2.773-1.513-2.773-3.549v-6.361c0-2.056,0.99-3.549,3.316-3.549c2.445,0,3.162,1.357,3.162,3.297v1.164h-2.018v-1.338
	c0-0.815-0.311-1.28-1.105-1.28s-1.145,0.562-1.145,1.358v7.059c0,0.795,0.33,1.357,1.088,1.357c0.717,0,1.086-0.407,1.086-1.26
	v-2.328h-1.049V38.917z"/>
<path fill="#FFFFFF" d="M113.65,39.905v6.032h-2.211V32.788h3.221c2.23,0,3.045,1.105,3.045,2.948v1.687
	c0,1.416-0.504,2.25-1.766,2.541l2.115,5.973h-2.328L113.65,39.905z M113.65,34.592v4.092h0.738c0.756,0,1.086-0.388,1.086-1.086
	v-1.939c0-0.718-0.33-1.066-1.086-1.066H113.65z"/>
<path fill="#FFFFFF" d="M118.714,42.543v-6.361c0-2.056,1.008-3.549,3.336-3.549c2.346,0,3.355,1.493,3.355,3.549v6.361
	c0,2.037-1.01,3.549-3.355,3.549C119.722,46.092,118.714,44.58,118.714,42.543z M123.195,42.892v-7.059
	c0-0.795-0.35-1.358-1.145-1.358c-0.775,0-1.125,0.562-1.125,1.358v7.059c0,0.795,0.35,1.357,1.125,1.357
	C122.845,44.25,123.195,43.688,123.195,42.892z"/>
<path fill="#FFFFFF" d="M131.07,37.811l-1.24,8.126h-2.076l-1.764-13.149h2.133l1.027,8.339h0.02l1.105-8.339h1.805l1.221,8.339
	h0.02l1.008-8.339h1.863l-1.707,13.149h-2.096l-1.299-8.126H131.07z"/>
<path fill="#FFFFFF" d="M136.873,32.788h5.877v1.804h-1.824v11.345h-2.23V34.592h-1.822V32.788z"/>
<path fill="#FFFFFF" d="M147.773,40.138h-2.133v5.799h-2.211V32.788h2.211v5.566h2.133v-5.566h2.23v13.149h-2.23V40.138z"/>
</svg>
