<?xml version="1.0" encoding="utf-8"?>
<!-- Generator: Adobe Illustrator 15.0.0, SVG Export Plug-In  -->
<!DOCTYPE svg PUBLIC "-//W3C//DTD SVG 1.1//EN" "http://www.w3.org/Graphics/SVG/1.1/DTD/svg11.dtd" [
	<!ENTITY ns_flows "http://ns.adobe.com/Flows/1.0/">
]>
<svg version="1.1"
	 xmlns="http://www.w3.org/2000/svg" xmlns:xlink="http://www.w3.org/1999/xlink" xmlns:a="http://ns.adobe.com/AdobeSVGViewerExtensions/3.0/"
	 x="0px" y="0px" width="161px" height="161px" viewBox="-0.004 -0.004 161 161"
	 overflow="visible" enable-background="new -0.004 -0.004 161 161" xml:space="preserve">
<defs>
</defs>
<rect fill="#4CA046" width="160.914" height="160.919"/>
<path fill="#FFFFFF" d="M22.963,46.368c5.505,0,7.896-2.92,7.896-7.417v-4.785c0-2.967-1.292-4.882-4.02-5.503
	c2.249-0.717,3.732-2.537,3.732-5.264v-2.824c0-4.594-2.201-7.417-7.226-7.417c-5.648,0-7.61,3.348-7.61,8.134v2.871h4.977v-3.301
	c0-2.01,0.624-3.157,2.347-3.157c1.724,0,2.343,1.147,2.343,2.918v3.494c0,1.723-1.147,2.631-2.917,2.631h-2.06v4.166h2.299
	c1.913,0,2.678,0.908,2.678,2.631v5.36c0,1.721-0.765,2.92-2.439,2.92c-1.866,0-2.537-1.246-2.537-3.159v-4.642h-4.974v4.258
	C15.452,43.21,17.412,46.368,22.963,46.368"/>
<path fill="#FFFFFF" d="M134.506,100.57c0-4.528-2.905-8.199-7.306-8.199c-2.2,0-4.854,2.41-6.296,3.892
	c-1.441-1.483-3.92-3.896-6.121-3.896c-4.4,0-7.484,3.672-7.484,8.201c0,2.264,0.892,4.312,2.335,5.798l0,0l11.28,11.301
	l11.265-11.288l-0.009-0.008C133.613,104.886,134.506,102.834,134.506,100.57z"/>
<path fill="#FFFFFF" d="M86.48,136.116c-0.038,0-0.076-0.001-0.115-0.003c-0.857-0.053-1.565-0.689-1.711-1.536l-5.729-33.37
	l-8.68,16.092c-0.38,0.705-1.174,1.084-1.954,0.944c-0.788-0.14-1.396-0.77-1.51-1.561l-3.685-25.754l-6.741,15.142
	c-0.298,0.668-0.961,1.1-1.692,1.1H28.462c-1.023,0-1.853-0.83-1.853-1.853s0.829-1.853,1.853-1.853H53.46l8.867-19.917
	c0.336-0.754,1.13-1.194,1.948-1.081c0.817,0.114,1.461,0.755,1.578,1.572l3.799,26.555l8.56-15.869
	c0.375-0.697,1.149-1.078,1.931-0.949c0.779,0.127,1.392,0.736,1.525,1.515l5.306,30.906l19.339-64.238
	c0.221-0.731,0.867-1.253,1.628-1.312c0.764-0.057,1.483,0.354,1.814,1.042l10.176,21.095c0.444,0.921,0.058,2.028-0.863,2.473
	s-2.029,0.058-2.474-0.863l-8.106-16.806l-20.234,67.212C88.017,135.583,87.293,136.116,86.48,136.116z"/>
<path fill="#FFFFFF" d="M49.289,19.604h3.143v7.021h-1.591v-1.435c-0.291,0.989-0.911,1.59-2.114,1.59
	c-1.9,0-2.773-1.513-2.773-3.549v-6.361c0-2.056,0.989-3.549,3.316-3.549c2.444,0,3.162,1.357,3.162,3.297v1.164h-2.018v-1.338
	c0-0.815-0.311-1.28-1.105-1.28s-1.145,0.562-1.145,1.358v7.059c0,0.795,0.33,1.357,1.087,1.357c0.717,0,1.086-0.407,1.086-1.26
	v-2.328h-1.048V19.604z"/>
<path fill="#FFFFFF" d="M53.888,23.23v-6.361c0-2.056,1.009-3.549,3.336-3.549c2.347,0,3.355,1.493,3.355,3.549v6.361
	c0,2.037-1.009,3.549-3.355,3.549C54.896,26.779,53.888,25.267,53.888,23.23z M58.368,23.579V16.52c0-0.795-0.349-1.358-1.145-1.358
	c-0.775,0-1.125,0.562-1.125,1.358v7.059c0,0.795,0.35,1.357,1.125,1.357C58.02,24.937,58.368,24.375,58.368,23.579z"/>
<path fill="#FFFFFF" d="M62.035,23.23v-6.361c0-2.056,1.009-3.549,3.336-3.549c2.347,0,3.355,1.493,3.355,3.549v6.361
	c0,2.037-1.009,3.549-3.355,3.549C63.044,26.779,62.035,25.267,62.035,23.23z M66.516,23.579V16.52c0-0.795-0.349-1.358-1.145-1.358
	c-0.775,0-1.125,0.562-1.125,1.358v7.059c0,0.795,0.35,1.357,1.125,1.357C66.167,24.937,66.516,24.375,66.516,23.579z"/>
<path fill="#FFFFFF" d="M76.797,17.005v6.089c0,2.017-0.834,3.53-3.2,3.53h-3.414V13.475h3.414
	C75.963,13.475,76.797,14.968,76.797,17.005z M73.325,24.82c0.911,0,1.261-0.543,1.261-1.338v-6.885c0-0.775-0.35-1.318-1.261-1.318
	h-0.932v9.542H73.325z"/>
<path fill="#FFFFFF" d="M85.604,20.825h-2.134v5.799H81.26V13.475h2.211v5.566h2.134v-5.566h2.23v13.149h-2.23V20.825z"/>
<path fill="#FFFFFF" d="M89.292,13.475h5.275v1.804h-3.064v3.762h2.192v1.784h-2.192v3.995h3.064v1.804h-5.275V13.475z"/>
<path fill="#FFFFFF" d="M95.597,26.624l2.482-13.149h2.521l2.502,13.149h-2.27l-0.407-2.405h-2.347l-0.388,2.405H95.597z
	 M98.37,22.454h1.765l-0.873-5.275h-0.019L98.37,22.454z"/>
<path fill="#FFFFFF" d="M104.21,13.475h2.211V24.82h2.638v1.804h-4.849V13.475z"/>
<path fill="#FFFFFF" d="M108.75,13.475h5.877v1.804h-1.823v11.345h-2.23V15.279h-1.823V13.475z"/>
<path fill="#FFFFFF" d="M120.194,20.825h-2.134v5.799h-2.211V13.475h2.211v5.566h2.134v-5.566h2.23v13.149h-2.23V20.825z"/>
<path fill="#FFFFFF" d="M45.62,45.911l2.482-13.149h2.521l2.502,13.149h-2.27l-0.407-2.405h-2.347l-0.388,2.405H45.62z
	 M48.394,41.741h1.765l-0.873-5.275h-0.019L48.394,41.741z"/>
<path fill="#FFFFFF" d="M56.095,37.649v8.262h-1.862V32.762h2.173l2.385,7.544v-7.544h1.843v13.149h-1.939L56.095,37.649z"/>
<path fill="#FFFFFF" d="M68.704,36.291v6.09c0,2.017-0.834,3.53-3.2,3.53H62.09V32.762h3.414
	C67.87,32.762,68.704,34.255,68.704,36.291z M65.232,44.107c0.911,0,1.261-0.543,1.261-1.338v-6.885c0-0.775-0.35-1.318-1.261-1.318
	h-0.932v9.542H65.232z"/>
<path fill="#FFFFFF" d="M77.162,37.785l-1.241,8.126h-2.075l-1.765-13.149h2.133l1.028,8.339h0.02l1.105-8.339h1.804l1.222,8.339
	h0.02l1.008-8.339h1.862l-1.707,13.149H78.48l-1.299-8.126H77.162z"/>
<path fill="#FFFFFF" d="M83.43,32.762h5.275v1.804h-3.064v3.762h2.192v1.784h-2.192v3.995h3.064v1.804H83.43V32.762z"/>
<path fill="#FFFFFF" d="M90.083,32.762h2.211v11.345h2.638v1.804h-4.849V32.762z"/>
<path fill="#FFFFFF" d="M96.136,32.762h2.211v11.345h2.638v1.804h-4.849V32.762z"/>
<path fill="#FFFFFF" d="M100.695,38.134h3.104v1.784h-3.104V38.134z"/>
<path fill="#FFFFFF" d="M105.118,32.762h3.2c2.211,0,2.948,1.028,2.948,2.89v1.338c0,1.105-0.407,1.804-1.319,2.095
	c1.105,0.252,1.649,0.989,1.649,2.191v1.746c0,1.862-0.834,2.89-3.045,2.89h-3.434V32.762z M107.329,38.308h0.776
	c0.718,0,1.047-0.368,1.047-1.066v-1.61c0-0.718-0.329-1.066-1.066-1.066h-0.757V38.308z M107.329,39.996v4.111h0.97
	c0.737,0,1.087-0.369,1.087-1.066v-1.979c0-0.698-0.33-1.066-1.105-1.066H107.329z"/>
<path fill="#FFFFFF" d="M112.897,32.762h5.275v1.804h-3.064v3.762h2.192v1.784h-2.192v3.995h3.064v1.804h-5.275V32.762z"/>
<path fill="#FFFFFF" d="M119.552,32.762h2.211v13.149h-2.211V32.762z"/>
<path fill="#FFFFFF" d="M125.1,37.649v8.262h-1.862V32.762h2.173l2.385,7.544v-7.544h1.843v13.149h-1.939L125.1,37.649z"/>
<path fill="#FFFFFF" d="M134.43,38.89h3.143v7.021h-1.591v-1.435c-0.291,0.989-0.911,1.59-2.114,1.59
	c-1.9,0-2.773-1.513-2.773-3.549v-6.361c0-2.056,0.989-3.549,3.316-3.549c2.444,0,3.162,1.357,3.162,3.297v1.164h-2.018v-1.338
	c0-0.815-0.311-1.28-1.105-1.28s-1.145,0.562-1.145,1.358v7.059c0,0.795,0.33,1.357,1.087,1.357c0.717,0,1.086-0.407,1.086-1.26
	v-2.327h-1.048V38.89z"/>
</svg>
