<?xml version="1.0" encoding="utf-8"?>
<!-- Generator: Adobe Illustrator 15.0.0, SVG Export Plug-In  -->
<!DOCTYPE svg PUBLIC "-//W3C//DTD SVG 1.1//EN" "http://www.w3.org/Graphics/SVG/1.1/DTD/svg11.dtd" [
	<!ENTITY ns_flows "http://ns.adobe.com/Flows/1.0/">
]>
<svg version="1.1"
	 xmlns="http://www.w3.org/2000/svg" xmlns:xlink="http://www.w3.org/1999/xlink" xmlns:a="http://ns.adobe.com/AdobeSVGViewerExtensions/3.0/"
	 x="0px" y="0px" width="161px" height="161px" viewBox="0 -0.001 161 161"
	 overflow="visible" enable-background="new 0 -0.001 161 161" xml:space="preserve">
<defs>
</defs>
<rect fill="#FAC315" width="160.922" height="160.926"/>
<polygon fill="#FFFFFF" points="16.506,17.938 24.93,17.938 17.653,45.933 23.063,45.933 30.194,18.512 30.194,13.486 
	16.506,13.486 "/>
<path fill="#FFFFFF" d="M80.52,77.968c-13.024,0-23.583,10.56-23.583,23.585c0,13.031,10.559,23.588,23.583,23.588
	s23.583-10.557,23.583-23.588C104.103,88.528,93.544,77.968,80.52,77.968 M78.773,87.286c0-0.785,0.788-1.649,1.756-1.649
	c0.966,0,1.747,0.864,1.747,1.649v8.098c0,0.781-0.781,1.637-1.747,1.637c-0.968,0-1.756-0.855-1.756-1.637V87.286z M80.523,113.639
	c-6.774,0-12.267-5.491-12.267-12.267c0-5.507,3.625-10.164,8.621-11.717v4.567c-2.601,1.328-4.385,4.027-4.385,7.149
	c0,4.436,3.594,8.03,8.03,8.03s8.03-3.595,8.03-8.03c0-3.131-1.793-5.835-4.405-7.16V89.65c5.006,1.546,8.644,6.208,8.644,11.723
	C92.792,108.148,87.3,113.639,80.523,113.639"/>
<path fill="#FFFFFF" d="M53.446,101.347c0-1.069-0.947-1.936-1.812-1.936H41.306c-0.871,0-1.827,0.866-1.827,1.936
	c0,1.072,0.956,1.943,1.827,1.943h10.328C52.499,103.291,53.446,102.419,53.446,101.347"/>
<path fill="#FFFFFF" d="M121.571,101.347c0-1.069-0.947-1.936-1.812-1.936h-10.328c-0.87,0-1.826,0.866-1.826,1.936
	c0,1.072,0.956,1.943,1.826,1.943h10.328C120.624,103.291,121.571,102.419,121.571,101.347"/>
<path fill="#FFFFFF" d="M80.529,74.272c1.067,0,1.935-0.947,1.935-1.812V62.131c0-0.871-0.867-1.826-1.935-1.826
	c-1.071,0-1.944,0.955-1.944,1.826V72.46C78.585,73.325,79.458,74.272,80.529,74.272"/>
<path fill="#FFFFFF" d="M80.529,142.395c1.067,0,1.935-0.947,1.935-1.812v-10.326c0-0.87-0.867-1.827-1.935-1.827
	c-1.071,0-1.944,0.957-1.944,1.827v10.326C78.585,141.448,79.458,142.395,80.529,142.395"/>
<path fill="#FFFFFF" d="M57.024,87.897c0.532-0.929,0.141-2.15-0.611-2.58l-8.964-5.13c-0.756-0.434-2.016-0.156-2.547,0.771
	c-0.532,0.931-0.135,2.161,0.621,2.595l8.964,5.13C55.237,89.113,56.492,88.828,57.024,87.897"/>
<path fill="#FFFFFF" d="M116.151,121.736c0.53-0.927,0.139-2.15-0.611-2.58l-8.964-5.13c-0.756-0.433-2.017-0.155-2.547,0.773
	c-0.532,0.929-0.136,2.161,0.62,2.593l8.964,5.13C114.364,122.952,115.618,122.667,116.151,121.736"/>
<path fill="#FFFFFF" d="M93.979,77.851c0.928,0.53,2.148,0.139,2.579-0.611l5.13-8.964c0.434-0.757,0.156-2.017-0.771-2.548
	c-0.93-0.533-2.162-0.135-2.595,0.621l-5.13,8.963C92.763,76.064,93.048,77.319,93.979,77.851"/>
<path fill="#FFFFFF" d="M60.141,136.977c0.927,0.529,2.149,0.139,2.579-0.613l5.13-8.962c0.433-0.756,0.155-2.018-0.772-2.548
	c-0.929-0.532-2.162-0.135-2.594,0.62l-5.13,8.964C58.924,135.188,59.21,136.444,60.141,136.977"/>
<path fill="#FFFFFF" d="M67.029,77.875c0.927-0.533,1.206-1.786,0.774-2.536l-5.148-8.954c-0.436-0.755-1.661-1.15-2.589-0.617
	c-0.931,0.533-1.208,1.797-0.772,2.552l5.147,8.952C64.874,78.021,66.099,78.409,67.029,77.875"/>
<path fill="#FFFFFF" d="M100.989,136.93c0.927-0.533,1.206-1.785,0.775-2.535l-5.148-8.953c-0.436-0.755-1.662-1.151-2.59-0.618
	c-0.93,0.533-1.208,1.797-0.771,2.553l5.147,8.952C98.833,137.079,100.06,137.465,100.989,136.93"/>
<path fill="#FFFFFF" d="M104.002,87.855c0.532,0.926,1.785,1.205,2.535,0.774l8.952-5.148c0.756-0.435,1.154-1.662,0.621-2.589
	c-0.535-0.929-1.797-1.208-2.553-0.773l-8.953,5.148C103.854,85.698,103.467,86.926,104.002,87.855"/>
<path fill="#FFFFFF" d="M44.945,121.816c0.532,0.926,1.785,1.205,2.535,0.773l8.952-5.148c0.756-0.434,1.154-1.661,0.619-2.588
	c-0.532-0.93-1.797-1.208-2.551-0.774l-8.953,5.148C44.798,119.658,44.411,120.886,44.945,121.816"/>
<path fill="#FFFFFF" d="M45.631,26.62l2.482-13.149h2.521l2.502,13.149h-2.27l-0.407-2.405h-2.347l-0.388,2.405H45.631z
	 M48.404,22.45h1.765l-0.873-5.275h-0.019L48.404,22.45z"/>
<path fill="#FFFFFF" d="M53.952,13.471h5.179v1.804h-2.968v3.762h2.211v1.784h-2.211v5.799h-2.211V13.471z"/>
<path fill="#FFFFFF" d="M60.005,13.471h5.179v1.804h-2.968v3.762h2.211v1.784h-2.211v5.799h-2.211V13.471z"/>
<path fill="#FFFFFF" d="M65.864,23.226v-6.361c0-2.056,1.009-3.549,3.336-3.549c2.347,0,3.355,1.493,3.355,3.549v6.361
	c0,2.037-1.009,3.549-3.355,3.549C66.873,26.775,65.864,25.262,65.864,23.226z M70.345,23.575v-7.059
	c0-0.795-0.349-1.358-1.145-1.358c-0.775,0-1.125,0.562-1.125,1.358v7.059c0,0.795,0.35,1.357,1.125,1.357
	C69.996,24.932,70.345,24.37,70.345,23.575z"/>
<path fill="#FFFFFF" d="M75.932,20.588v6.032h-2.211V13.471h3.22c2.23,0,3.045,1.105,3.045,2.948v1.687
	c0,1.416-0.504,2.25-1.765,2.541l2.114,5.973h-2.328L75.932,20.588z M75.932,15.274v4.092h0.737c0.757,0,1.086-0.388,1.086-1.086
	v-1.939c0-0.718-0.329-1.066-1.086-1.066H75.932z"/>
<path fill="#FFFFFF" d="M87.707,17v6.089c0,2.017-0.834,3.53-3.2,3.53h-3.414V13.471h3.414C86.873,13.471,87.707,14.964,87.707,17z
	 M84.235,24.816c0.911,0,1.261-0.543,1.261-1.338v-6.885c0-0.775-0.35-1.318-1.261-1.318h-0.932v9.542H84.235z"/>
<path fill="#FFFFFF" d="M88.232,26.62l2.482-13.149h2.521l2.502,13.149h-2.27l-0.407-2.405h-2.347l-0.388,2.405H88.232z
	 M91.006,22.45h1.765l-0.873-5.275h-0.019L91.006,22.45z"/>
<path fill="#FFFFFF" d="M96.554,13.471h3.2c2.211,0,2.948,1.028,2.948,2.89v1.338c0,1.105-0.407,1.804-1.319,2.095
	c1.105,0.252,1.649,0.989,1.649,2.191v1.746c0,1.862-0.834,2.89-3.045,2.89h-3.434V13.471z M98.765,19.017h0.776
	c0.718,0,1.047-0.368,1.047-1.066v-1.61c0-0.718-0.329-1.066-1.066-1.066h-0.757V19.017z M98.765,20.705v4.111h0.97
	c0.737,0,1.087-0.368,1.087-1.066v-1.979c0-0.698-0.33-1.066-1.105-1.066H98.765z"/>
<path fill="#FFFFFF" d="M104.042,13.471h2.211v11.345h2.638v1.804h-4.849V13.471z"/>
<path fill="#FFFFFF" d="M109.804,13.471h5.275v1.804h-3.064v3.762h2.192v1.784h-2.192v3.995h3.064v1.804h-5.275V13.471z"/>
<path fill="#FFFFFF" d="M117.758,26.62l2.482-13.149h2.521l2.502,13.149h-2.27l-0.407-2.405h-2.347l-0.388,2.405H117.758z
	 M120.531,22.45h1.765l-0.873-5.275h-0.019L120.531,22.45z"/>
<path fill="#FFFFFF" d="M127.942,18.358v8.262h-1.862V13.471h2.173l2.385,7.544v-7.544h1.843V26.62h-1.939L127.942,18.358z"/>
<path fill="#FFFFFF" d="M140.26,17v6.089c0,2.017-0.834,3.53-3.2,3.53h-3.414V13.471h3.414C139.426,13.471,140.26,14.964,140.26,17z
	 M136.788,24.816c0.911,0,1.261-0.543,1.261-1.338v-6.885c0-0.775-0.35-1.318-1.261-1.318h-0.932v9.542H136.788z"/>
<path fill="#FFFFFF" d="M45.962,42.539v-6.331c0-2.046,0.965-3.532,3.281-3.532c2.433,0,3.108,1.351,3.108,3.281V37.5h-2.008v-1.718
	c0-0.811-0.271-1.274-1.062-1.274c-0.792,0-1.12,0.56-1.12,1.351v7.026c0,0.791,0.328,1.351,1.12,1.351
	c0.791,0,1.062-0.502,1.062-1.274V40.55h2.008v2.258c0,1.873-0.772,3.262-3.108,3.262C46.927,46.071,45.962,44.565,45.962,42.539z"
	/>
<path fill="#FFFFFF" d="M53.739,32.83h2.2v11.292h2.626v1.795h-4.826V32.83z"/>
<path fill="#FFFFFF" d="M59.761,32.83h5.25v1.795h-3.05v3.745h2.182v1.776h-2.182v3.977h3.05v1.795h-5.25V32.83z"/>
<path fill="#FFFFFF" d="M66.033,45.917l2.471-13.087h2.51l2.49,13.087h-2.259l-0.405-2.394h-2.336l-0.386,2.394H66.033z
	 M68.794,41.767h1.757l-0.869-5.25h-0.02L68.794,41.767z"/>
<path fill="#FFFFFF" d="M76.456,37.694v8.223h-1.854V32.83h2.162l2.374,7.508V32.83h1.834v13.087h-1.931L76.456,37.694z"/>
<path fill="#FFFFFF" d="M86.857,32.83h5.25v1.795h-3.05v3.745h2.182v1.776h-2.182v3.977h3.05v1.795h-5.25V32.83z"/>
<path fill="#FFFFFF" d="M95.272,37.694v8.223h-1.854V32.83h2.162l2.374,7.508V32.83h1.834v13.087h-1.931L95.272,37.694z"/>
<path fill="#FFFFFF" d="M101.216,32.83h5.25v1.795h-3.05v3.745h2.182v1.776h-2.182v3.977h3.05v1.795h-5.25V32.83z"/>
<path fill="#FFFFFF" d="M109.998,39.914v6.003h-2.2V32.83h3.204c2.22,0,3.03,1.1,3.03,2.934v1.679c0,1.409-0.501,2.239-1.756,2.528
	l2.104,5.945h-2.316L109.998,39.914z M109.998,34.625v4.073h0.734c0.752,0,1.08-0.386,1.08-1.081v-1.931
	c0-0.714-0.328-1.062-1.08-1.062H109.998z"/>
<path fill="#FFFFFF" d="M118.741,38.929h3.127v6.987h-1.583v-1.428c-0.289,0.984-0.907,1.583-2.104,1.583
	c-1.892,0-2.761-1.505-2.761-3.532v-6.331c0-2.046,0.984-3.532,3.301-3.532c2.433,0,3.146,1.351,3.146,3.281v1.158h-2.008v-1.332
	c0-0.811-0.309-1.274-1.1-1.274c-0.792,0-1.14,0.56-1.14,1.351v7.026c0,0.791,0.328,1.351,1.081,1.351
	c0.715,0,1.081-0.405,1.081-1.255v-2.316h-1.042V38.929z"/>
<path fill="#FFFFFF" d="M127.561,40.937v4.98h-2.2v-4.98l-2.451-8.107h2.297l1.332,4.96h0.019l1.332-4.96h2.104L127.561,40.937z"/>
</svg>
