<?xml version="1.0" encoding="utf-8"?>
<!-- Generator: Adobe Illustrator 15.0.0, SVG Export Plug-In  -->
<!DOCTYPE svg PUBLIC "-//W3C//DTD SVG 1.1//EN" "http://www.w3.org/Graphics/SVG/1.1/DTD/svg11.dtd" [
	<!ENTITY ns_flows "http://ns.adobe.com/Flows/1.0/">
]>
<svg version="1.1"
	 xmlns="http://www.w3.org/2000/svg" xmlns:xlink="http://www.w3.org/1999/xlink" xmlns:a="http://ns.adobe.com/AdobeSVGViewerExtensions/3.0/"
	 x="0px" y="0px" width="161px" height="161px" viewBox="-0.071 0 161 161"
	 overflow="visible" enable-background="new -0.071 0 161 161" xml:space="preserve">
<defs>
</defs>
<rect fill="#18496B" width="160.92" height="160.929"/>
<polygon fill="#FFFFFF" points="24.079,13.487 24.079,45.933 18.624,45.933 18.624,21.096 18.575,21.096 14.747,25.067 14.7,25.067 
	14.7,19.373 19.726,13.487 "/>
<polygon fill="#FFFFFF" points="26.567,13.487 40.255,13.487 40.255,18.512 33.124,45.933 27.714,45.933 34.989,17.937 
	26.567,17.937 "/>
<path fill="#FFFFFF" d="M121.359,97.6c0-11.302-8.99-20.535-20.189-20.943c-2.881-8.135-10.65-13.98-19.762-13.98
	c-9.109,0-16.878,5.845-19.762,13.98C50.447,77.065,41.461,86.299,41.461,97.6c0,6.705,3.17,12.683,8.088,16.521
	c-0.534,1.85-0.828,3.8-0.828,5.818c0,11.553,9.402,20.956,20.961,20.956c4.386,0,8.459-1.357,11.829-3.67
	c3.33,2.229,7.329,3.53,11.628,3.53c11.557,0,20.959-9.402,20.959-20.956c0-1.978-0.28-3.89-0.794-5.702
	C118.201,110.257,121.359,104.291,121.359,97.6 M98.148,83.635c0,8.39-6.209,15.337-14.271,16.536
	c-0.131-0.84-0.218-1.696-0.218-2.571c0-8.392,6.209-15.339,14.27-16.538C98.061,81.901,98.148,82.757,98.148,83.635 M81.486,131.79
	c-3.134-3.043-5.088-7.291-5.088-11.99c0-4.628,1.891-8.822,4.934-11.854c3.132,3.043,5.088,7.291,5.088,11.994
	C86.42,124.564,84.531,128.758,81.486,131.79 M64.889,81.062C72.949,82.26,79.16,89.208,79.16,97.6c0,0.875-0.089,1.731-0.22,2.571
	c-8.062-1.199-14.271-8.146-14.271-16.536C64.67,82.757,64.758,81.901,64.889,81.062 M77.369,105.086
	c-2.754,5.477-8.412,9.252-14.949,9.252c-2.772,0-5.385-0.689-7.689-1.888c2.754-5.477,8.414-9.251,14.951-9.251
	C72.455,103.199,75.064,103.888,77.369,105.086 M85.395,104.974c2.319-1.216,4.948-1.914,7.744-1.914
	c6.581,0,12.271,3.828,15.006,9.364c-2.32,1.217-4.953,1.914-7.744,1.914C93.817,114.338,88.127,110.511,85.395,104.974
	 M81.408,66.896c6.859,0,12.76,4.148,15.345,10.066c-6.81,1.2-12.494,5.695-15.345,11.777c-2.847-6.084-8.533-10.578-15.343-11.777
	C68.65,71.044,74.551,66.896,81.408,66.896 M45.681,97.6c0-8.626,6.556-15.743,14.944-16.644c-0.111,0.879-0.176,1.771-0.176,2.679
	c0,6.127,2.645,11.647,6.848,15.483c-6.952,0.792-12.883,4.993-16.07,10.891C47.832,106.944,45.681,102.522,45.681,97.6
	 M52.941,119.939c0-1.19,0.127-2.35,0.366-3.469c2.758,1.336,5.849,2.087,9.112,2.087c3.67,0,7.117-0.95,10.12-2.613
	c-0.233,1.25-0.362,2.538-0.362,3.855c0,5.661,2.264,10.803,5.925,14.578c-2.478,1.451-5.351,2.298-8.421,2.298
	C60.449,136.676,52.941,129.167,52.941,119.939 M109.879,119.8c0,9.228-7.51,16.737-16.74,16.737c-3.004,0-5.814-0.806-8.254-2.196
	c3.561-3.758,5.756-8.829,5.756-14.401c0-1.372-0.139-2.713-0.391-4.011c3.01,1.673,6.469,2.629,10.15,2.629
	c3.274,0,6.377-0.757,9.139-2.104C109.762,117.537,109.879,118.655,109.879,119.8 M95.65,98.995c4.128-3.83,6.719-9.297,6.719-15.36
	c0-0.907-0.064-1.8-0.176-2.679c8.389,0.898,14.946,8.018,14.946,16.644c0,4.9-2.13,9.301-5.5,12.366
	C108.485,104.055,102.584,99.828,95.65,98.995"/>
<path fill="#FFFFFF" d="M51.376,13.482h3.278c2.23,0,3.045,1.105,3.045,2.948v2.773c0,1.842-0.814,2.967-3.045,2.967h-1.067v4.46
	h-2.211V13.482z M53.587,15.286v5.178h0.815c0.756,0,1.086-0.368,1.086-1.086v-3.025c0-0.718-0.33-1.066-1.086-1.066H53.587z"/>
<path fill="#FFFFFF" d="M57.973,26.631l2.482-13.149h2.521l2.502,13.149h-2.27l-0.407-2.405h-2.347l-0.388,2.405H57.973z
	 M60.746,22.461h1.765l-0.873-5.275h-0.019L60.746,22.461z"/>
<path fill="#FFFFFF" d="M68.796,20.599v6.032h-2.211V13.482h3.22c2.23,0,3.045,1.105,3.045,2.948v1.687
	c0,1.416-0.504,2.25-1.765,2.541l2.114,5.973h-2.328L68.796,20.599z M68.796,15.286v4.092h0.737c0.757,0,1.086-0.388,1.086-1.086
	v-1.939c0-0.718-0.329-1.066-1.086-1.066H68.796z"/>
<path fill="#FFFFFF" d="M73.628,13.482h5.877v1.804h-1.823v11.345h-2.23V15.286h-1.823V13.482z"/>
<path fill="#FFFFFF" d="M82.765,18.369v8.262h-1.862V13.482h2.173l2.385,7.544v-7.544h1.843v13.149h-1.939L82.765,18.369z"/>
<path fill="#FFFFFF" d="M89.128,13.482h5.275v1.804h-3.064v3.762h2.192v1.784h-2.192v3.995h3.064v1.804h-5.275V13.482z"/>
<path fill="#FFFFFF" d="M97.992,20.599v6.032h-2.211V13.482h3.22c2.23,0,3.045,1.105,3.045,2.948v1.687
	c0,1.416-0.504,2.25-1.765,2.541l2.114,5.973h-2.328L97.992,20.599z M97.992,15.286v4.092h0.737c0.757,0,1.086-0.388,1.086-1.086
	v-1.939c0-0.718-0.329-1.066-1.086-1.066H97.992z"/>
<path fill="#FFFFFF" d="M103.153,23.799v-1.765h2.056v1.803c0,0.737,0.33,1.164,1.087,1.164c0.697,0,1.008-0.466,1.008-1.164v-0.504
	c0-0.756-0.311-1.222-0.989-1.862l-1.299-1.299c-1.261-1.241-1.843-1.998-1.843-3.51v-0.446c0-1.629,0.95-2.89,3.104-2.89
	c2.211,0,3.083,1.086,3.083,2.987v1.066h-2.017v-1.144c0-0.756-0.35-1.125-1.047-1.125c-0.621,0-1.048,0.349-1.048,1.086v0.271
	c0,0.737,0.407,1.164,1.048,1.785l1.415,1.396c1.203,1.222,1.784,1.959,1.784,3.414v0.64c0,1.804-0.97,3.084-3.219,3.084
	C104.026,26.786,103.153,25.525,103.153,23.799z"/>
<path fill="#FFFFFF" d="M115.2,20.832h-2.134v5.799h-2.211V13.482h2.211v5.566h2.134v-5.566h2.23v13.149h-2.23V20.832z"/>
<path fill="#FFFFFF" d="M118.887,13.482h2.211v13.149h-2.211V13.482z"/>
<path fill="#FFFFFF" d="M122.572,13.482h3.278c2.23,0,3.045,1.105,3.045,2.948v2.773c0,1.842-0.814,2.967-3.045,2.967h-1.067v4.46
	h-2.211V13.482z M124.783,15.286v5.178h0.815c0.756,0,1.086-0.368,1.086-1.086v-3.025c0-0.718-0.33-1.066-1.086-1.066H124.783z"/>
<path fill="#FFFFFF" d="M129.751,23.799v-1.765h2.056v1.803c0,0.737,0.33,1.164,1.087,1.164c0.697,0,1.008-0.466,1.008-1.164v-0.504
	c0-0.756-0.311-1.222-0.989-1.862l-1.299-1.299c-1.261-1.241-1.843-1.998-1.843-3.51v-0.446c0-1.629,0.95-2.89,3.104-2.89
	c2.211,0,3.083,1.086,3.083,2.987v1.066h-2.017v-1.144c0-0.756-0.35-1.125-1.047-1.125c-0.621,0-1.048,0.349-1.048,1.086v0.271
	c0,0.737,0.407,1.164,1.048,1.785l1.415,1.396c1.203,1.222,1.784,1.959,1.784,3.414v0.64c0,1.804-0.97,3.084-3.219,3.084
	C130.624,26.786,129.751,25.525,129.751,23.799z"/>
<path fill="#FFFFFF" d="M51.384,32.582h5.26v1.832H53.63v3.822h2.245v1.812H53.63v5.89h-2.246V32.582z"/>
<path fill="#FFFFFF" d="M57.412,42.491v-6.461c0-2.088,1.024-3.605,3.389-3.605c2.384,0,3.408,1.517,3.408,3.605v6.461
	c0,2.068-1.024,3.605-3.408,3.605C58.437,46.096,57.412,44.559,57.412,42.491z M61.963,42.845v-7.17
	c0-0.808-0.354-1.379-1.162-1.379c-0.788,0-1.143,0.571-1.143,1.379v7.17c0,0.808,0.354,1.379,1.143,1.379
	C61.608,44.224,61.963,43.653,61.963,42.845z"/>
<path fill="#FFFFFF" d="M67.932,39.812v6.126h-2.246V32.582h3.271c2.266,0,3.093,1.123,3.093,2.994v1.714
	c0,1.438-0.513,2.285-1.793,2.581l2.147,6.067h-2.364L67.932,39.812z M67.932,34.414v4.156h0.748c0.769,0,1.104-0.394,1.104-1.103
	v-1.97c0-0.729-0.335-1.083-1.104-1.083H67.932z"/>
<path fill="#FFFFFF" d="M75.575,32.582h5.969v1.832h-1.852v11.524h-2.266V34.414h-1.852V32.582z"/>
<path fill="#FFFFFF" d="M87.021,40.048h-2.167v5.89h-2.246V32.582h2.246v5.654h2.167v-5.654h2.266v13.356h-2.266V40.048z"/>
<path fill="#FFFFFF" d="M90.763,32.582h5.358v1.832h-3.112v3.822h2.226v1.812h-2.226v4.058h3.112v1.832h-5.358V32.582z"/>
<path fill="#FFFFFF" d="M103.292,38.807h3.191v7.131h-1.615V44.48c-0.296,1.004-0.926,1.615-2.147,1.615
	c-1.931,0-2.817-1.537-2.817-3.605v-6.461c0-2.088,1.005-3.605,3.369-3.605c2.481,0,3.211,1.379,3.211,3.349v1.182h-2.049v-1.359
	c0-0.828-0.315-1.3-1.123-1.3s-1.162,0.571-1.162,1.379v7.17c0,0.808,0.335,1.379,1.104,1.379c0.729,0,1.103-0.414,1.103-1.28V40.58
	h-1.063V38.807z"/>
<path fill="#FFFFFF" d="M107.744,42.491v-6.461c0-2.088,1.024-3.605,3.389-3.605c2.384,0,3.408,1.517,3.408,3.605v6.461
	c0,2.068-1.024,3.605-3.408,3.605C108.769,46.096,107.744,44.559,107.744,42.491z M112.295,42.845v-7.17
	c0-0.808-0.354-1.379-1.162-1.379c-0.788,0-1.143,0.571-1.143,1.379v7.17c0,0.808,0.354,1.379,1.143,1.379
	C111.94,44.224,112.295,43.653,112.295,42.845z"/>
<path fill="#FFFFFF" d="M115.171,45.938l2.521-13.356h2.562l2.541,13.356h-2.305l-0.414-2.443h-2.384l-0.394,2.443H115.171z
	 M117.988,41.703h1.792l-0.886-5.358h-0.02L117.988,41.703z"/>
<path fill="#FFFFFF" d="M124.095,32.582h2.246v11.524h2.679v1.832h-4.925V32.582z"/>
<path fill="#FFFFFF" d="M129.827,43.062V41.27h2.088v1.832c0,0.749,0.335,1.182,1.104,1.182c0.709,0,1.024-0.473,1.024-1.182v-0.512
	c0-0.769-0.315-1.241-1.005-1.891l-1.319-1.32c-1.28-1.261-1.872-2.029-1.872-3.566v-0.453c0-1.654,0.966-2.935,3.152-2.935
	c2.246,0,3.132,1.103,3.132,3.034v1.083h-2.049v-1.162c0-0.769-0.354-1.143-1.063-1.143c-0.63,0-1.063,0.354-1.063,1.103v0.276
	c0,0.749,0.413,1.182,1.063,1.812l1.438,1.418c1.221,1.241,1.812,1.99,1.812,3.467v0.65c0,1.832-0.984,3.132-3.27,3.132
	S129.827,44.815,129.827,43.062z"/>
</svg>
