<?xml version="1.0" encoding="utf-8"?>
<!-- Generator: Adobe Illustrator 15.0.0, SVG Export Plug-In  -->
<!DOCTYPE svg PUBLIC "-//W3C//DTD SVG 1.1//EN" "http://www.w3.org/Graphics/SVG/1.1/DTD/svg11.dtd" [
	<!ENTITY ns_flows "http://ns.adobe.com/Flows/1.0/">
]>
<svg version="1.1"
	 xmlns="http://www.w3.org/2000/svg" xmlns:xlink="http://www.w3.org/1999/xlink" xmlns:a="http://ns.adobe.com/AdobeSVGViewerExtensions/3.0/"
	 x="0px" y="0px" width="161px" height="161px" viewBox="0 0 161 161" overflow="visible" enable-background="new 0 0 161 161"
	 xml:space="preserve">
<defs>
</defs>
<rect fill="#DEA73A" width="160.922" height="160.927"/>
<path fill="#FFFFFF" d="M30.096,41.482h-8.949v-1.531c0-2.535,0.91-3.493,2.297-4.977l3.492-3.685
	c2.823-3.015,3.446-4.929,3.446-8.185v-3.158c0-4.641-2.25-6.844-7.131-6.844c-4.784,0-7.226,2.537-7.226,7.084v3.922h4.978v-4.067
	c0-1.96,0.957-2.536,2.106-2.536c1.051,0,1.961,0.432,1.961,2.441v2.68c0,2.682-0.24,3.734-2.01,5.6l-3.064,3.254
	c-2.965,3.16-4.066,5.266-4.066,8.471v5.982h14.166V41.482z"/>
<path fill="#FFFFFF" d="M64.188,136.742v2.264c-0.002,0.016-0.008,0.033-0.008,0.051c0,0.02,0.006,0.037,0.008,0.053
	c0.023,0.561,0.48,1.006,1.044,1.018c0.007,0,0.013,0.004,0.021,0.004s0.018-0.004,0.026-0.004h26.545
	c0.007,0,0.015,0.004,0.022,0.004s0.016-0.004,0.023-0.004c0.58-0.012,1.043-0.482,1.047-1.062c0-0.002,0.004-0.004,0.004-0.008
	c0,0-0.004-0.004-0.004-0.008v-2.561c14.943-4.898,26.138-17.01,28.6-31.77c0.006-0.031,0.01-0.061,0.015-0.088
	c0.009-0.053,0.015-0.1,0.015-0.148c0-0.594-0.479-1.074-1.073-1.074H36.375h-0.506c-0.597,0-1.076,0.48-1.076,1.074l0.056,0.482
	C37.435,119.865,48.937,132.042,64.188,136.742"/>
<path fill="#FFFFFF" d="M92.892,67.3c-0.349,0.496-8.522,12.264,0.183,21.78c3.992,4.367,3.646,8.221,2.506,10.822h5.584
	c1.131-3.842,0.664-8.662-3.869-13.615c-6.414-7.011,0.082-16.489,0.18-16.635c0.766-1.081,0.355-2.475-0.906-3.125
	C95.302,65.88,93.66,66.226,92.892,67.3"/>
<path fill="#FFFFFF" d="M78.75,99.902h5.586c1.129-3.844,0.66-8.66-3.873-13.615c-6.416-7.012,0.075-16.485,0.178-16.64
	c0.762-1.076,0.358-2.468-0.908-3.12c-1.262-0.645-2.906-0.302-3.672,0.773c-0.351,0.494-8.531,12.264,0.182,21.78
	C80.234,93.447,79.887,97.302,78.75,99.902"/>
<path fill="#FFFFFF" d="M59.227,67.3c-0.354,0.496-8.527,12.264,0.18,21.78c3.994,4.369,3.648,8.223,2.512,10.822h5.584
	c1.129-3.84,0.662-8.66-3.875-13.615c-6.416-7.011,0.08-16.489,0.183-16.639c0.759-1.077,0.354-2.471-0.912-3.121
	C61.636,65.876,59.992,66.224,59.227,67.3"/>
<path fill="#FFFFFF" d="M48.124,24.836h3.355v1.804h-5.663v-1.804l3.471-9.542h-3.122v-1.804h5.45v1.804L48.124,24.836z"/>
<path fill="#FFFFFF" d="M52.974,13.491h5.275v1.804h-3.064v3.762h2.192v1.784h-2.192v3.995h3.064v1.804h-5.275V13.491z"/>
<path fill="#FFFFFF" d="M61.839,20.608v6.032h-2.211V13.491h3.22c2.23,0,3.045,1.105,3.045,2.948v1.687
	c0,1.416-0.504,2.25-1.765,2.541l2.114,5.973h-2.328L61.839,20.608z M61.839,15.294v4.092h0.737c0.757,0,1.086-0.388,1.086-1.086
	v-1.939c0-0.718-0.329-1.066-1.086-1.066H61.839z"/>
<path fill="#FFFFFF" d="M67.291,23.246v-6.361c0-2.056,1.009-3.549,3.336-3.549c2.347,0,3.355,1.493,3.355,3.549v6.361
	c0,2.037-1.009,3.549-3.355,3.549C68.3,26.795,67.291,25.282,67.291,23.246z M71.771,23.595v-7.059c0-0.795-0.349-1.358-1.145-1.358
	c-0.775,0-1.125,0.562-1.125,1.358v7.059c0,0.795,0.35,1.357,1.125,1.357C71.423,24.952,71.771,24.39,71.771,23.595z"/>
<path fill="#FFFFFF" d="M50.284,40.111H48.15v5.799h-2.211V32.761h2.211v5.566h2.134v-5.566h2.23V45.91h-2.23V40.111z"/>
<path fill="#FFFFFF" d="M60.391,32.761v9.949c0,2.037-0.873,3.355-3.122,3.355c-2.328,0-3.298-1.319-3.298-3.355v-9.949h2.211
	v10.162c0,0.776,0.311,1.299,1.087,1.299c0.775,0,1.086-0.523,1.086-1.299V32.761H60.391z"/>
<path fill="#FFFFFF" d="M63.71,37.648v8.262h-1.862V32.761h2.173l2.385,7.544v-7.544h1.843V45.91h-1.939L63.71,37.648z"/>
<path fill="#FFFFFF" d="M73.04,38.89h3.143v7.021h-1.591v-1.435c-0.291,0.989-0.911,1.59-2.114,1.59c-1.9,0-2.773-1.513-2.773-3.549
	v-6.361c0-2.056,0.989-3.549,3.316-3.549c2.444,0,3.162,1.357,3.162,3.297v1.164h-2.018v-1.338c0-0.815-0.311-1.28-1.105-1.28
	s-1.145,0.562-1.145,1.358v7.059c0,0.795,0.33,1.357,1.087,1.357c0.717,0,1.086-0.407,1.086-1.26v-2.328H73.04V38.89z"/>
<path fill="#FFFFFF" d="M77.639,32.761h5.275v1.804H79.85v3.762h2.192v1.784H79.85v3.995h3.064v1.804h-5.275V32.761z"/>
<path fill="#FFFFFF" d="M86.503,39.878v6.032h-2.211V32.761h3.22c2.23,0,3.045,1.105,3.045,2.948v1.687
	c0,1.416-0.504,2.25-1.765,2.541l2.114,5.973h-2.328L86.503,39.878z M86.503,34.565v4.092h0.737c0.757,0,1.086-0.388,1.086-1.086
	v-1.939c0-0.718-0.329-1.066-1.086-1.066H86.503z"/>
</svg>
