<?xml version="1.0" encoding="utf-8"?>
<!-- Generator: Adobe Illustrator 15.0.0, SVG Export Plug-In  -->
<!DOCTYPE svg PUBLIC "-//W3C//DTD SVG 1.1//EN" "http://www.w3.org/Graphics/SVG/1.1/DTD/svg11.dtd" [
	<!ENTITY ns_flows "http://ns.adobe.com/Flows/1.0/">
]>
<svg version="1.1"
	 xmlns="http://www.w3.org/2000/svg" xmlns:xlink="http://www.w3.org/1999/xlink" xmlns:a="http://ns.adobe.com/AdobeSVGViewerExtensions/3.0/"
	 x="0px" y="0px" width="161px" height="161px" viewBox="0 -0.001 161 161"
	 overflow="visible" enable-background="new 0 -0.001 161 161" xml:space="preserve">
<defs>
</defs>
<rect fill="#F26A2C" width="160.922" height="160.926"/>
<path fill="#FFFFFF" d="M29.474,21.651c0-5.024-2.202-8.658-7.941-8.658c-5.789,0-8.035,3.155-8.035,8.178v4.784
	c0,5.31,2.103,7.988,6.027,7.988c2.296,0,3.682-1.054,4.495-2.629h0.047v6.981c0,1.961-0.766,3.349-2.726,3.349
	c-1.962,0-2.679-1.148-2.679-3.158v-2.151h-4.976v1.723c0,4.782,1.724,8.13,7.751,8.13c5.737,0,8.036-3.683,8.036-8.754V21.651z
	 M24.066,26.625c-0.096,1.816-0.86,2.964-2.582,2.964c-1.863,0-2.583-1.148-2.583-3.253v-5.644c0-2.057,0.764-3.251,2.631-3.251
	c1.817,0,2.534,1.243,2.534,3.251V26.625z"/>
<path fill="#FFFFFF" d="M121.568,105.772l-19.13-11.04V72.646c0-0.466-0.248-0.897-0.652-1.13L82.009,60.096
	c-0.404-0.232-0.9-0.232-1.305,0L60.925,71.515c-0.404,0.233-0.652,0.664-0.652,1.13v22.086l-19.127,11.04
	c-0.404,0.233-0.652,0.664-0.652,1.131v22.842c0,0.467,0.248,0.896,0.652,1.131l19.779,11.416c0.202,0.117,0.427,0.176,0.652,0.176
	s0.45-0.059,0.652-0.176l19.127-11.04l19.125,11.04c0.202,0.117,0.427,0.176,0.652,0.176s0.45-0.059,0.652-0.176l19.782-11.416
	c0.404-0.233,0.652-0.664,0.652-1.131v-22.842C122.221,106.436,121.973,106.004,121.568,105.772z M80.052,127.485l-15.865-9.161
	l15.865-9.161V127.485z M98.523,95.486l-15.862,9.156V86.325L98.523,95.486z M80.052,104.643l-15.864-9.158l15.864-9.16V104.643z
	 M83.967,106.903l17.167-9.91l17.172,9.91l-17.172,9.914L83.967,106.903z M99.829,93.225l-15.862-9.16l15.862-9.159V93.225z
	 M78.746,84.065l-15.864,9.16V74.906L78.746,84.065z M60.272,138.901l-17.17-9.91v-19.828l17.17,9.915V138.901z M62.882,138.901
	v-18.316l15.864,9.16L62.882,138.901z M119.611,128.991l-17.173,9.91v-19.823l17.173-9.915V128.991z"/>
<path fill="#FFFFFF" d="M38.001,13.746h2.108v12.539h-2.108V13.746z"/>
<path fill="#FFFFFF" d="M42.829,18.406v7.878h-1.775V13.746h2.071L45.4,20.94v-7.194h1.757v12.539h-1.85L42.829,18.406z"/>
<path fill="#FFFFFF" d="M54.391,17.112v5.807c0,1.923-0.795,3.366-3.052,3.366h-3.255V13.746h3.255
	C53.596,13.746,54.391,15.17,54.391,17.112z M51.08,24.565c0.869,0,1.202-0.518,1.202-1.276v-6.565c0-0.74-0.333-1.258-1.202-1.258
	h-0.888v9.099H51.08z"/>
<path fill="#FFFFFF" d="M61.439,13.746v9.487c0,1.942-0.832,3.199-2.978,3.199c-2.22,0-3.145-1.257-3.145-3.199v-9.487h2.108v9.69
	c0,0.74,0.296,1.239,1.036,1.239c0.739,0,1.035-0.5,1.035-1.239v-9.69H61.439z"/>
<path fill="#FFFFFF" d="M62.256,23.584v-1.683h1.96v1.72c0,0.703,0.314,1.109,1.036,1.109c0.665,0,0.961-0.443,0.961-1.109v-0.481
	c0-0.721-0.296-1.165-0.942-1.775l-1.239-1.239c-1.202-1.184-1.757-1.905-1.757-3.348v-0.425c0-1.553,0.906-2.755,2.959-2.755
	c2.108,0,2.94,1.036,2.94,2.848v1.018H66.25v-1.091c0-0.721-0.333-1.073-0.998-1.073c-0.592,0-0.999,0.333-0.999,1.036v0.259
	c0,0.703,0.389,1.109,0.999,1.701l1.35,1.332c1.146,1.165,1.701,1.868,1.701,3.255v0.61c0,1.72-0.925,2.94-3.069,2.94
	C63.088,26.433,62.256,25.23,62.256,23.584z"/>
<path fill="#FFFFFF" d="M68.434,13.746h5.604v1.72h-1.738v10.819h-2.127V15.466h-1.738V13.746z"/>
<path fill="#FFFFFF" d="M76.85,20.533v5.751h-2.108V13.746h3.07c2.127,0,2.903,1.054,2.903,2.811v1.609
	c0,1.35-0.48,2.145-1.683,2.422l2.016,5.696h-2.219L76.85,20.533z M76.85,15.466v3.902h0.703c0.722,0,1.035-0.37,1.035-1.036v-1.85
	c0-0.684-0.313-1.017-1.035-1.017H76.85z"/>
<path fill="#FFFFFF" d="M85.23,21.513v4.771h-2.108v-4.771l-2.349-7.767h2.2l1.276,4.753h0.019l1.275-4.753h2.017L85.23,21.513z"/>
<path fill="#FFFFFF" d="M89.375,24.435l-1.072,2.83h-1.184l0.259-2.996h1.997V24.435z"/>
<path fill="#FFFFFF" d="M91.966,13.746h2.108v12.539h-2.108V13.746z"/>
<path fill="#FFFFFF" d="M96.794,18.406v7.878h-1.775V13.746h2.071l2.275,7.194v-7.194h1.757v12.539h-1.85L96.794,18.406z"/>
<path fill="#FFFFFF" d="M103.824,18.406v7.878h-1.775V13.746h2.071l2.275,7.194v-7.194h1.757v12.539h-1.85L103.824,18.406z"/>
<path fill="#FFFFFF" d="M109.079,23.048v-6.066c0-1.96,0.962-3.384,3.182-3.384c2.237,0,3.199,1.424,3.199,3.384v6.066
	c0,1.942-0.962,3.384-3.199,3.384C110.041,26.433,109.079,24.99,109.079,23.048z M113.352,23.381v-6.732
	c0-0.758-0.333-1.294-1.091-1.294c-0.74,0-1.073,0.536-1.073,1.294v6.732c0,0.758,0.333,1.294,1.073,1.294
	C113.019,24.676,113.352,24.139,113.352,23.381z"/>
<path fill="#FFFFFF" d="M123.138,13.746l-2.386,12.539h-2.294l-2.385-12.539h2.145l1.442,8.748h0.019l1.479-8.748H123.138z"/>
<path fill="#FFFFFF" d="M122.474,26.285l2.367-12.539h2.403l2.386,12.539h-2.163l-0.389-2.293h-2.237l-0.37,2.293H122.474z
	 M125.118,22.309h1.683l-0.832-5.03h-0.019L125.118,22.309z"/>
<path fill="#FFFFFF" d="M129.059,13.746h5.604v1.72h-1.738v10.819h-2.127V15.466h-1.738V13.746z"/>
<path fill="#FFFFFF" d="M135.366,13.746h2.108v12.539h-2.108V13.746z"/>
<path fill="#FFFFFF" d="M138.419,23.048v-6.066c0-1.96,0.962-3.384,3.182-3.384c2.237,0,3.199,1.424,3.199,3.384v6.066
	c0,1.942-0.962,3.384-3.199,3.384C139.381,26.433,138.419,24.99,138.419,23.048z M142.691,23.381v-6.732
	c0-0.758-0.333-1.294-1.091-1.294c-0.74,0-1.073,0.536-1.073,1.294v6.732c0,0.758,0.333,1.294,1.073,1.294
	C142.358,24.676,142.691,24.139,142.691,23.381z"/>
<path fill="#FFFFFF" d="M147.502,18.406v7.878h-1.775V13.746h2.071l2.275,7.194v-7.194h1.757v12.539h-1.85L147.502,18.406z"/>
<path fill="#FFFFFF" d="M37.66,45.614l2.367-12.539h2.403l2.386,12.539h-2.163l-0.389-2.293h-2.237l-0.37,2.293H37.66z
	 M40.305,41.638h1.683l-0.832-5.03h-0.019L40.305,41.638z"/>
<path fill="#FFFFFF" d="M47.37,37.736v7.878h-1.775V33.076h2.071l2.275,7.194v-7.194h1.757v12.539h-1.85L47.37,37.736z"/>
<path fill="#FFFFFF" d="M59.117,36.441v5.807c0,1.923-0.795,3.366-3.052,3.366h-3.255V33.076h3.255
	C58.322,33.076,59.117,34.5,59.117,36.441z M55.807,43.895c0.869,0,1.202-0.518,1.202-1.276v-6.565c0-0.74-0.333-1.258-1.202-1.258
	h-0.888v9.099H55.807z"/>
<path fill="#FFFFFF" d="M62.079,33.076h2.108v12.539h-2.108V33.076z"/>
<path fill="#FFFFFF" d="M67.092,37.736v7.878h-1.775V33.076h2.071l2.275,7.194v-7.194h1.757v12.539h-1.85L67.092,37.736z"/>
<path fill="#FFFFFF" d="M72.532,33.076h4.938v1.72h-2.83v3.588h2.108v1.701h-2.108v5.53h-2.108V33.076z"/>
<path fill="#FFFFFF" d="M80.412,39.863v5.751h-2.108V33.076h3.07c2.127,0,2.903,1.054,2.903,2.811v1.609
	c0,1.35-0.48,2.145-1.683,2.423l2.016,5.696h-2.219L80.412,39.863z M80.412,34.795v3.902h0.703c0.722,0,1.035-0.37,1.035-1.036
	v-1.85c0-0.684-0.313-1.017-1.035-1.017H80.412z"/>
<path fill="#FFFFFF" d="M85.002,45.614l2.367-12.539h2.403l2.386,12.539h-2.163l-0.389-2.293h-2.237l-0.37,2.293H85.002z
	 M87.646,41.638h1.683l-0.832-5.03h-0.019L87.646,41.638z"/>
<path fill="#FFFFFF" d="M92.642,42.914v-1.683h1.96v1.72c0,0.703,0.314,1.11,1.036,1.11c0.665,0,0.961-0.444,0.961-1.11V42.47
	c0-0.721-0.296-1.165-0.942-1.775l-1.239-1.239c-1.202-1.184-1.757-1.905-1.757-3.348v-0.425c0-1.553,0.906-2.755,2.959-2.755
	c2.108,0,2.94,1.036,2.94,2.848v1.017h-1.924v-1.091c0-0.721-0.333-1.073-0.998-1.073c-0.592,0-0.999,0.333-0.999,1.036v0.259
	c0,0.703,0.389,1.11,0.999,1.702l1.35,1.332c1.146,1.165,1.701,1.868,1.701,3.255v0.61c0,1.72-0.924,2.94-3.069,2.94
	S92.642,44.56,92.642,42.914z"/>
<path fill="#FFFFFF" d="M99.189,33.076h5.604v1.72h-1.738v10.819h-2.127V34.795h-1.738V33.076z"/>
<path fill="#FFFFFF" d="M107.79,39.863v5.751h-2.108V33.076h3.07c2.127,0,2.903,1.054,2.903,2.811v1.609
	c0,1.35-0.48,2.145-1.683,2.423l2.016,5.696h-2.219L107.79,39.863z M107.79,34.795v3.902h0.703c0.721,0,1.035-0.37,1.035-1.036
	v-1.85c0-0.684-0.314-1.017-1.035-1.017H107.79z"/>
<path fill="#FFFFFF" d="M118.834,33.076v9.487c0,1.941-0.832,3.199-2.978,3.199c-2.22,0-3.145-1.258-3.145-3.199v-9.487h2.108v9.69
	c0,0.74,0.296,1.239,1.036,1.239c0.739,0,1.035-0.5,1.035-1.239v-9.69H118.834z"/>
<path fill="#FFFFFF" d="M119.945,42.378v-6.066c0-1.96,0.925-3.384,3.145-3.384c2.33,0,2.978,1.294,2.978,3.144v1.479h-1.924v-1.646
	c0-0.777-0.259-1.221-1.017-1.221c-0.759,0-1.073,0.536-1.073,1.294v6.732c0,0.758,0.314,1.294,1.073,1.294
	c0.758,0,1.017-0.481,1.017-1.221v-2.312h1.924v2.164c0,1.794-0.74,3.125-2.978,3.125C120.87,45.762,119.945,44.32,119.945,42.378z"
	/>
<path fill="#FFFFFF" d="M126.421,33.076h5.604v1.72h-1.738v10.819h-2.127V34.795h-1.738V33.076z"/>
<path fill="#FFFFFF" d="M139.035,33.076v9.487c0,1.941-0.832,3.199-2.978,3.199c-2.22,0-3.145-1.258-3.145-3.199v-9.487h2.108v9.69
	c0,0.74,0.296,1.239,1.036,1.239c0.739,0,1.035-0.5,1.035-1.239v-9.69H139.035z"/>
<path fill="#FFFFFF" d="M142.256,39.863v5.751h-2.108V33.076h3.07c2.127,0,2.903,1.054,2.903,2.811v1.609
	c0,1.35-0.48,2.145-1.683,2.423l2.016,5.696h-2.219L142.256,39.863z M142.256,34.795v3.902h0.703c0.722,0,1.035-0.37,1.035-1.036
	v-1.85c0-0.684-0.313-1.017-1.035-1.017H142.256z"/>
<path fill="#FFFFFF" d="M147.177,33.076h5.03v1.72h-2.922v3.588h2.09v1.701h-2.09v3.81h2.922v1.72h-5.03V33.076z"/>
</svg>
