<?xml version="1.0" encoding="utf-8"?>
<!-- Generator: Adobe Illustrator 15.0.0, SVG Export Plug-In  -->
<!DOCTYPE svg PUBLIC "-//W3C//DTD SVG 1.1//EN" "http://www.w3.org/Graphics/SVG/1.1/DTD/svg11.dtd" [
	<!ENTITY ns_flows "http://ns.adobe.com/Flows/1.0/">
]>
<svg version="1.1"
	 xmlns="http://www.w3.org/2000/svg" xmlns:xlink="http://www.w3.org/1999/xlink" xmlns:a="http://ns.adobe.com/AdobeSVGViewerExtensions/3.0/"
	 x="0px" y="0px" width="161px" height="161px" viewBox="0 0 161 161" overflow="visible" enable-background="new 0 0 161 161"
	 xml:space="preserve">
<defs>
</defs>
<rect fill="#C5202E" width="160.922" height="160.927"/>
<path fill="#FFFFFF" d="M25.209,45.933h5.168v-5.264h2.203v-4.258h-2.203V13.486h-5.361L15.59,37.32v3.35h9.619V45.933z
	 M20.375,36.412l4.881-13.353h0.049v13.353H20.375z"/>
<polygon fill="#FFFFFF" points="71.357,86.287 42.496,69.622 42.496,123.533 71.357,132.242 "/>
<polygon fill="#FFFFFF" points="74.531,86.398 74.531,132.259 103.58,123.527 103.58,69.624 "/>
<path fill="#FFFFFF" d="M126.236,68.258c0-1.888-1.529-3.416-3.412-3.416c-1.889,0-3.416,1.528-3.416,3.416v3.681h6.828V68.258z"/>
<polygon fill="#FFFFFF" points="120.256,122.578 119.408,122.578 122.824,134.511 126.234,122.578 125.387,122.578 126.234,122.578 
	126.234,74.612 125.387,74.612 124.539,74.612 123.641,74.612 121.941,74.612 121.104,74.612 120.256,74.612 119.406,74.612 
	119.406,122.578 "/>
<polygon fill="#FFFFFF" points="109.779,71.938 106.686,69.493 106.686,124.996 74.617,135.357 73.133,135.357 72.84,135.357 
	71.357,135.357 39.432,126.439 39.432,69.493 36.336,71.938 36.336,128.609 71.211,138.263 72.84,138.263 73.133,138.263 
	74.762,138.263 106.938,128.048 109.779,127.212 "/>
<path fill="#FFFFFF" d="M45.953,32.762h5.275v1.804h-3.064v3.762h2.192v1.784h-2.192v3.995h3.064v1.804h-5.275V32.762z"/>
<path fill="#FFFFFF" d="M59.183,36.292v6.089c0,2.017-0.834,3.53-3.2,3.53h-3.414V32.762h3.414
	C58.349,32.762,59.183,34.255,59.183,36.292z M55.711,44.107c0.911,0,1.261-0.543,1.261-1.338v-6.885
	c0-0.775-0.35-1.318-1.261-1.318h-0.932v9.542H55.711z"/>
<path fill="#FFFFFF" d="M67.059,32.762v9.949c0,2.037-0.873,3.355-3.122,3.355c-2.328,0-3.298-1.319-3.298-3.355v-9.949h2.211
	v10.162c0,0.776,0.311,1.299,1.087,1.299c0.775,0,1.086-0.523,1.086-1.299V32.762H67.059z"/>
<path fill="#FFFFFF" d="M68.515,42.517v-6.361c0-2.056,0.97-3.549,3.298-3.549c2.443,0,3.122,1.357,3.122,3.297v1.552h-2.017v-1.726
	c0-0.815-0.271-1.28-1.067-1.28c-0.795,0-1.125,0.562-1.125,1.358v7.059c0,0.795,0.33,1.357,1.125,1.357
	c0.796,0,1.067-0.504,1.067-1.28V40.52h2.017v2.269c0,1.881-0.775,3.278-3.122,3.278C69.484,46.066,68.515,44.554,68.515,42.517z"/>
<path fill="#FFFFFF" d="M75.635,45.911l2.482-13.149h2.521l2.502,13.149h-2.27l-0.407-2.405h-2.347l-0.388,2.405H75.635z
	 M78.408,41.741h1.765L79.3,36.466h-0.019L78.408,41.741z"/>
<path fill="#FFFFFF" d="M82.852,32.762h5.877v1.804h-1.823v11.345h-2.23V34.566h-1.823V32.762z"/>
<path fill="#FFFFFF" d="M89.951,32.762h2.211v13.149h-2.211V32.762z"/>
<path fill="#FFFFFF" d="M93.637,42.517v-6.361c0-2.056,1.009-3.549,3.336-3.549c2.347,0,3.355,1.493,3.355,3.549v6.361
	c0,2.037-1.009,3.549-3.355,3.549C94.646,46.066,93.637,44.554,93.637,42.517z M98.117,42.866v-7.059
	c0-0.795-0.349-1.358-1.145-1.358c-0.775,0-1.125,0.562-1.125,1.358v7.059c0,0.795,0.35,1.357,1.125,1.357
	C97.769,44.224,98.117,43.662,98.117,42.866z"/>
<path fill="#FFFFFF" d="M103.647,37.649v8.262h-1.862V32.762h2.173l2.385,7.544v-7.544h1.843v13.149h-1.939L103.647,37.649z"/>
<path fill="#FFFFFF" d="M48.476,27.511v-0.892c-1.765-0.311-2.521-1.61-2.521-3.394v-6.361c0-2.056,1.009-3.549,3.336-3.549
	c2.347,0,3.355,1.493,3.355,3.549v6.361c0,1.435-0.504,2.56-1.629,3.103l1.629,0.311v1.648L48.476,27.511z M50.435,23.69v-7.175
	c0-0.795-0.349-1.358-1.145-1.358c-0.775,0-1.125,0.562-1.125,1.358v7.175c0,0.776,0.35,1.358,1.125,1.358
	C50.086,25.048,50.435,24.466,50.435,23.69z"/>
<path fill="#FFFFFF" d="M60.502,13.47v9.949c0,2.037-0.873,3.355-3.122,3.355c-2.328,0-3.298-1.319-3.298-3.355V13.47h2.211v10.162
	c0,0.776,0.311,1.299,1.087,1.299c0.775,0,1.086-0.523,1.086-1.299V13.47H60.502z"/>
<path fill="#FFFFFF" d="M61.339,26.619l2.482-13.149h2.521l2.502,13.149h-2.27l-0.407-2.405h-2.347l-0.388,2.405H61.339z
	 M64.112,22.449h1.765l-0.873-5.275h-0.019L64.112,22.449z"/>
<path fill="#FFFFFF" d="M69.912,13.47h2.211v11.345h2.638v1.804h-4.849V13.47z"/>
<path fill="#FFFFFF" d="M75.79,13.47h2.211v13.149H75.79V13.47z"/>
<path fill="#FFFFFF" d="M79.03,13.47h5.877v1.804h-1.823v11.345h-2.23V15.274H79.03V13.47z"/>
<path fill="#FFFFFF" d="M90.281,21.616v5.003H88.07v-5.003l-2.463-8.146h2.308l1.339,4.984h0.02l1.338-4.984h2.114L90.281,21.616z"
	/>
</svg>
