<?xml version="1.0" encoding="utf-8"?>
<!-- Generator: Adobe Illustrator 15.0.0, SVG Export Plug-In  -->
<!DOCTYPE svg PUBLIC "-//W3C//DTD SVG 1.1//EN" "http://www.w3.org/Graphics/SVG/1.1/DTD/svg11.dtd" [
	<!ENTITY ns_flows "http://ns.adobe.com/Flows/1.0/">
]>
<svg version="1.1"
	 xmlns="http://www.w3.org/2000/svg" xmlns:xlink="http://www.w3.org/1999/xlink" xmlns:a="http://ns.adobe.com/AdobeSVGViewerExtensions/3.0/"
	 x="0px" y="0px" width="161px" height="161px" viewBox="0 0 161 161" overflow="visible" enable-background="new 0 0 161 161"
	 xml:space="preserve">
<defs>
</defs>
<rect fill="#DD1768" width="160.922" height="160.927"/>
<polygon fill="#FFFFFF" points="15.525,21.085 15.525,45.948 20.986,45.948 20.986,13.468 16.626,13.468 11.598,19.361 
	11.598,25.063 11.644,25.063 15.476,21.085 "/>
<path fill="#FFFFFF" d="M40.914,37.566V21.851c0-5.078-2.538-8.766-8.096-8.766c-5.508,0-8.05,3.688-8.05,8.766v15.715
	c0,5.028,2.542,8.766,8.05,8.766C38.376,46.332,40.914,42.594,40.914,37.566 M30.231,38.428V20.989c0-1.964,0.718-3.354,2.587-3.354
	c1.916,0,2.634,1.39,2.634,3.354v17.439c0,1.965-0.718,3.351-2.634,3.351C30.949,41.779,30.231,40.393,30.231,38.428"/>
<path fill="#FFFFFF" d="M97.076,106.304H64.91c-0.193,0-0.35,0.157-0.35,0.35v7.289c0,0.196,0.156,0.352,0.35,0.352h32.166
	c0.197,0,0.354-0.155,0.354-0.352v-7.289C97.43,106.461,97.273,106.304,97.076,106.304"/>
<path fill="#FFFFFF" d="M97.43,92.949c0-0.192-0.156-0.35-0.354-0.35H70.41h-5.5c-0.193,0-0.35,0.157-0.35,0.35v2.871v4.42
	c0,0.192,0.156,0.35,0.35,0.35h32.166c0.197,0,0.354-0.157,0.354-0.35V92.949z"/>
<path fill="#FFFFFF" d="M116.041,95.802c-1.318-5.3-3.721-10.039-6.896-14.07l-0.072,0.055c1.033,1.537,1.959,3.165,2.748,4.883
	c4.174,7.652,5.451,16.887,2.818,25.916c-5.283,18.116-24.25,28.52-42.365,23.236c-7.613-2.221-13.859-6.866-18.156-12.846
	c-2.686-3.454-4.717-7.502-5.84-12.014c-4.299-17.285,6.225-34.786,23.512-39.087c10.691-2.66,21.447,0.373,29.129,7.151
	c0.068,0.061,0.135,0.123,0.205,0.184c0.207,0.156,0.453,0.267,0.732,0.267c0.311,0,0.586-0.125,0.805-0.312l0.129-0.127
	l4.094-4.043l0.27-0.266c0.152-0.208,0.262-0.451,0.262-0.729c0-0.321-0.131-0.606-0.33-0.829c-0.043-0.039-0.088-0.078-0.131-0.116
	c-9.447-8.443-22.754-12.234-35.977-8.945c-21.236,5.285-34.164,26.783-28.881,48.018c2.215,8.899,7.281,16.328,13.977,21.581
	c6.67,5.469,15.164,8.572,24.064,8.48c2.863-0.029,5.766-0.383,8.668-1.104C108.83,136.103,121.023,115.829,116.041,95.802"/>
<path fill="#FFFFFF" d="M53.615,20.681v6.126h-2.246V13.451h3.271c2.266,0,3.093,1.123,3.093,2.994v1.714
	c0,1.438-0.513,2.285-1.793,2.581l2.147,6.067h-2.364L53.615,20.681z M53.615,15.283v4.156h0.748c0.769,0,1.104-0.394,1.104-1.103
	v-1.97c0-0.729-0.335-1.083-1.104-1.083H53.615z"/>
<path fill="#FFFFFF" d="M59.15,13.451h5.358v1.832h-3.112v3.822h2.226v1.812h-2.226v4.058h3.112v1.832H59.15V13.451z"/>
<path fill="#FFFFFF" d="M72.625,17.037v6.185c0,2.049-0.847,3.585-3.25,3.585h-3.468V13.451h3.468
	C71.778,13.451,72.625,14.968,72.625,17.037z M69.099,24.975c0.926,0,1.28-0.552,1.28-1.359v-6.993c0-0.788-0.354-1.339-1.28-1.339
	h-0.945v9.692H69.099z"/>
<path fill="#FFFFFF" d="M80.623,13.451v10.105c0,2.068-0.887,3.408-3.171,3.408c-2.364,0-3.35-1.34-3.35-3.408V13.451h2.246v10.322
	c0,0.788,0.315,1.32,1.104,1.32c0.787,0,1.103-0.532,1.103-1.32V13.451H80.623z"/>
<path fill="#FFFFFF" d="M82.101,23.36v-6.461c0-2.088,0.985-3.605,3.35-3.605c2.481,0,3.171,1.379,3.171,3.349v1.576h-2.049v-1.753
	c0-0.828-0.275-1.3-1.083-1.3s-1.143,0.571-1.143,1.379v7.17c0,0.808,0.335,1.379,1.143,1.379s1.083-0.512,1.083-1.3v-2.462h2.049
	v2.305c0,1.911-0.788,3.329-3.171,3.329C83.086,26.965,82.101,25.428,82.101,23.36z"/>
<path fill="#FFFFFF" d="M90.04,13.451h5.358v1.832h-3.112v3.822h2.226v1.812h-2.226v4.058h3.112v1.832H90.04V13.451z"/>
<path fill="#FFFFFF" d="M103.515,17.037v6.185c0,2.049-0.847,3.585-3.25,3.585h-3.468V13.451h3.468
	C102.668,13.451,103.515,14.968,103.515,17.037z M99.988,24.975c0.926,0,1.28-0.552,1.28-1.359v-6.993
	c0-0.788-0.354-1.339-1.28-1.339h-0.945v9.692H99.988z"/>
<path fill="#FFFFFF" d="M51.363,32.571h2.246v13.356h-2.246V32.571z"/>
<path fill="#FFFFFF" d="M56.958,37.536v8.392h-1.892V32.571h2.207l2.423,7.663v-7.663h1.871v13.356h-1.97L56.958,37.536z"/>
<path fill="#FFFFFF" d="M62.848,32.571h5.358v1.832h-3.112v3.822h2.226v1.812h-2.226v4.058h3.112v1.832h-5.358V32.571z"/>
<path fill="#FFFFFF" d="M71.596,46.833v-0.906c-1.793-0.315-2.562-1.635-2.562-3.447v-6.461c0-2.088,1.024-3.605,3.389-3.605
	c2.384,0,3.408,1.517,3.408,3.605v6.461c0,1.458-0.513,2.6-1.655,3.152l1.655,0.315v1.675L71.596,46.833z M73.585,42.953v-7.289
	c0-0.808-0.354-1.379-1.162-1.379c-0.788,0-1.143,0.571-1.143,1.379v7.289c0,0.788,0.354,1.379,1.143,1.379
	C73.23,44.332,73.585,43.741,73.585,42.953z"/>
<path fill="#FFFFFF" d="M83.611,32.571v10.105c0,2.068-0.887,3.408-3.171,3.408c-2.364,0-3.35-1.34-3.35-3.408V32.571h2.246v10.322
	c0,0.788,0.315,1.32,1.104,1.32c0.787,0,1.103-0.532,1.103-1.32V32.571H83.611z"/>
<path fill="#FFFFFF" d="M84.32,45.927l2.521-13.356h2.562l2.541,13.356H89.64l-0.414-2.443h-2.384l-0.394,2.443H84.32z
	 M87.138,41.692h1.792l-0.886-5.358h-0.02L87.138,41.692z"/>
<path fill="#FFFFFF" d="M92.87,32.571h2.246v11.524h2.679v1.832H92.87V32.571z"/>
<path fill="#FFFFFF" d="M98.8,32.571h2.246v13.356H98.8V32.571z"/>
<path fill="#FFFFFF" d="M102.07,32.571h5.969v1.832h-1.852v11.524h-2.266V34.403h-1.852V32.571z"/>
<path fill="#FFFFFF" d="M109.083,32.571h2.246v13.356h-2.246V32.571z"/>
<path fill="#FFFFFF" d="M112.608,32.571h5.358v1.832h-3.112v3.822h2.226v1.812h-2.226v4.058h3.112v1.832h-5.358V32.571z"/>
<path fill="#FFFFFF" d="M118.854,43.051v-1.792h2.088v1.832c0,0.749,0.335,1.182,1.104,1.182c0.709,0,1.024-0.473,1.024-1.182
	v-0.512c0-0.769-0.315-1.241-1.005-1.891l-1.319-1.32c-1.28-1.261-1.872-2.029-1.872-3.566v-0.453c0-1.654,0.966-2.935,3.152-2.935
	c2.246,0,3.132,1.103,3.132,3.034v1.083h-2.049v-1.162c0-0.769-0.354-1.143-1.063-1.143c-0.63,0-1.063,0.354-1.063,1.103v0.276
	c0,0.749,0.413,1.182,1.063,1.812l1.438,1.418c1.221,1.241,1.812,1.99,1.812,3.467v0.65c0,1.832-0.984,3.132-3.27,3.132
	S118.854,44.804,118.854,43.051z"/>
</svg>
