<?xml version="1.0" encoding="utf-8"?>
<!-- Generator: Adobe Illustrator 15.0.0, SVG Export Plug-In  -->
<!DOCTYPE svg PUBLIC "-//W3C//DTD SVG 1.1//EN" "http://www.w3.org/Graphics/SVG/1.1/DTD/svg11.dtd" [
	<!ENTITY ns_flows "http://ns.adobe.com/Flows/1.0/">
]>
<svg version="1.1"
	 xmlns="http://www.w3.org/2000/svg" xmlns:xlink="http://www.w3.org/1999/xlink" xmlns:a="http://ns.adobe.com/AdobeSVGViewerExtensions/3.0/"
	 x="0px" y="0px" width="161px" height="161px" viewBox="0 0.001 161 161"
	 overflow="visible" enable-background="new 0 0.001 161 161" xml:space="preserve">
<defs>
</defs>
<rect fill="#1C97D4" width="160.922" height="160.931"/>
<polygon fill="#FFFFFF" points="20.966,13.541 20.966,45.973 15.512,45.973 15.512,21.147 15.464,21.147 11.639,25.117 
	11.589,25.117 11.589,19.424 16.611,13.541 "/>
<path fill="#FFFFFF" d="M37.573,45.98v-5.264h2.201v-4.26h-2.201V13.533h-5.36l-9.428,23.833v3.351h9.619v5.264H37.573z
	 M27.57,36.457l4.882-13.353H32.5v13.353H27.57z"/>
<path fill="#FFFFFF" d="M123.555,117.417c-2.025-2.736-15.107-19.414-33.448-19.414c-15.927,0-32.965,14.445-32.965,14.445
	s-6.4-13.1-19.492-14.357c-0.077,0-0.159-0.018-0.246-0.018h-0.081c-0.273,0.016-0.529,0.281-0.5,0.518
	c0.037,0.23,0.205,0.479,0.205,0.479c1.688,2.803,5.994,10.773,5.994,18.736c0,7.988-4.332,15.98-6.004,18.77l-0.113,0.178
	c-0.049,0.084-0.082,0.168-0.082,0.275c0,0.277,0.215,0.492,0.483,0.516l0.142-0.012c0.044,0,0.091,0,0.138-0.012
	c13.133-1.225,19.557-14.363,19.557-14.363s17.038,14.447,32.965,14.447c18.341,0,31.423-16.68,33.448-19.41
	c0.056-0.074,0.101-0.139,0.141-0.188c0.023-0.064,0.043-0.125,0.043-0.201c0-0.072-0.02-0.145-0.043-0.199
	C123.655,117.55,123.61,117.485,123.555,117.417 M100.305,119.913c-2.957,0-5.354-2.4-5.354-5.355s2.396-5.35,5.354-5.35
	c2.964,0,5.359,2.395,5.359,5.35S103.269,119.913,100.305,119.913"/>
<path fill="#FFFFFF" d="M37.236,66.652c-0.04-0.009-0.067-0.022-0.101-0.022c-0.29,0-0.526,0.237-0.526,0.532v3.65
	c0,0.153,0.058,0.287,0.153,0.378c8.854,7.693,17.236,0.485,19.177-1.42c0.04-0.058,0.081-0.113,0.139-0.148
	c0.087-0.056,0.182-0.095,0.29-0.095c0.137,0,0.266,0.053,0.356,0.141c0.007,0.01,0.018,0.018,0.025,0.022
	c10.001,9.544,20.487,1.814,22.669,0l0.215-0.196c0.062-0.029,0.128-0.04,0.199-0.04c0.074,0,0.148,0.011,0.208,0.04l0.216,0.196
	c2.181,1.814,12.667,9.544,22.667,0c0.002-0.004,0.015-0.013,0.02-0.022c0.094-0.088,0.217-0.141,0.355-0.141
	c0.108,0,0.209,0.04,0.29,0.095c0.061,0.035,0.103,0.091,0.147,0.148c1.938,1.905,10.312,9.113,19.174,1.42
	c0.092-0.091,0.152-0.225,0.152-0.378v-3.65c0-0.295-0.229-0.532-0.52-0.532c-0.038,0-0.073,0.014-0.113,0.022
	c-0.082,0.047-0.167,0.091-0.266,0.138c-2.723,1.364-11.168,4.608-18.834-2.645c-0.072-0.067-0.147-0.135-0.223-0.213
	c-0.07-0.029-0.138-0.048-0.224-0.048c-0.054,0-0.111,0.015-0.158,0.024c-0.114,0.046-0.205,0.119-0.267,0.207
	c-2.285,1.742-12.771,8.841-22.11,0.129l-0.137-0.133c-0.098-0.086-0.23-0.157-0.379-0.157c-0.138,0-0.274,0.071-0.365,0.157
	l-0.146,0.133c-9.334,8.711-19.832,1.612-22.113-0.129c-0.06-0.088-0.147-0.161-0.26-0.207c-0.054-0.009-0.107-0.024-0.167-0.024
	c-0.074,0-0.148,0.019-0.22,0.048c-0.068,0.078-0.149,0.146-0.225,0.213c-7.665,7.253-16.107,4.009-18.832,2.645
	C37.41,66.743,37.319,66.699,37.236,66.652"/>
<path fill="#FFFFFF" d="M55.939,83.052c0.042-0.059,0.081-0.104,0.14-0.145c0.086-0.054,0.182-0.099,0.289-0.099
	c0.137,0,0.267,0.056,0.358,0.146c0.005,0.009,0.016,0.017,0.023,0.022c9.998,9.531,20.487,1.806,22.67,0l0.214-0.204
	c0.062-0.024,0.128-0.033,0.198-0.033c0.076,0,0.148,0.009,0.211,0.033l0.214,0.204c2.181,1.806,12.666,9.531,22.668,0
	c0.002-0.006,0.011-0.014,0.019-0.022c0.094-0.091,0.216-0.146,0.354-0.146c0.11,0,0.21,0.045,0.29,0.099
	c0.062,0.041,0.104,0.086,0.148,0.145c1.938,1.907,10.312,9.117,19.174,1.418c0.093-0.095,0.155-0.219,0.155-0.37v-3.66
	c0-0.292-0.234-0.524-0.522-0.524c-0.038,0-0.073,0.015-0.113,0.022c-0.082,0.04-0.168,0.085-0.266,0.133
	c-2.721,1.365-11.17,4.602-18.834-2.642c-0.071-0.068-0.146-0.137-0.222-0.21c-0.071-0.04-0.139-0.052-0.225-0.052
	c-0.054,0-0.11,0.013-0.158,0.04c-0.115,0.029-0.205,0.102-0.267,0.196c-2.283,1.739-12.771,8.841-22.111,0.128l-0.137-0.137
	c-0.097-0.093-0.23-0.146-0.379-0.146c-0.137,0-0.273,0.053-0.365,0.146l-0.145,0.137c-9.334,8.713-19.832,1.611-22.113-0.128
	c-0.06-0.095-0.148-0.167-0.259-0.196c-0.054-0.027-0.11-0.04-0.168-0.04c-0.075,0-0.147,0.013-0.218,0.052
	c-0.072,0.074-0.149,0.142-0.228,0.21c-7.665,7.243-16.106,4.007-18.831,2.642c-0.096-0.047-0.186-0.093-0.269-0.133
	c-0.041-0.007-0.067-0.022-0.101-0.022c-0.291,0-0.527,0.232-0.527,0.524v3.66c0,0.151,0.058,0.275,0.152,0.37
	C45.616,92.169,54,84.959,55.939,83.052"/>
<path fill="#FFFFFF" d="M51.372,13.477h2.211v11.345h2.638v1.804h-4.849V13.477z"/>
<path fill="#FFFFFF" d="M57.25,13.477h2.211v13.149H57.25V13.477z"/>
<path fill="#FFFFFF" d="M60.742,13.477h5.179v1.804h-2.968v3.762h2.211v1.784h-2.211v5.799h-2.211V13.477z"/>
<path fill="#FFFFFF" d="M66.911,13.477h5.275v1.804h-3.064v3.762h2.192v1.784h-2.192v3.995h3.064v1.804h-5.275V13.477z"/>
<path fill="#FFFFFF" d="M76.319,13.477h3.2c2.211,0,2.948,1.028,2.948,2.89v1.338c0,1.105-0.407,1.804-1.319,2.095
	c1.105,0.252,1.649,0.989,1.649,2.191v1.746c0,1.862-0.834,2.89-3.045,2.89h-3.434V13.477z M78.53,19.023h0.776
	c0.718,0,1.047-0.368,1.047-1.066v-1.61c0-0.718-0.329-1.066-1.066-1.066H78.53V19.023z M78.53,20.711v4.111h0.97
	c0.737,0,1.087-0.368,1.087-1.066v-1.979c0-0.698-0.33-1.066-1.105-1.066H78.53z"/>
<path fill="#FFFFFF" d="M83.75,13.477h5.275v1.804h-3.064v3.762h2.192v1.784h-2.192v3.995h3.064v1.804H83.75V13.477z"/>
<path fill="#FFFFFF" d="M90.365,13.477h2.211v11.345h2.638v1.804h-4.849V13.477z"/>
<path fill="#FFFFFF" d="M96.068,23.232v-6.361c0-2.056,1.009-3.549,3.336-3.549c2.347,0,3.355,1.493,3.355,3.549v6.361
	c0,2.037-1.009,3.549-3.355,3.549C97.077,26.781,96.068,25.269,96.068,23.232z M100.549,23.581v-7.059
	c0-0.795-0.349-1.358-1.145-1.358c-0.775,0-1.125,0.562-1.125,1.358v7.059c0,0.795,0.35,1.357,1.125,1.357
	C100.2,24.938,100.549,24.376,100.549,23.581z"/>
<path fill="#FFFFFF" d="M108.619,18.5l-1.241,8.126h-2.075l-1.765-13.149h2.133l1.028,8.339h0.02l1.105-8.339h1.804l1.222,8.339
	h0.02l1.008-8.339h1.862l-1.707,13.149h-2.095l-1.299-8.126H108.619z"/>
<path fill="#FFFFFF" d="M56.128,37.802l-1.241,8.126h-2.075l-1.765-13.149h2.133l1.028,8.339h0.02l1.105-8.339h1.804l1.222,8.339
	h0.02l1.008-8.339h1.862l-1.707,13.149h-2.095l-1.299-8.126H56.128z"/>
<path fill="#FFFFFF" d="M60.94,45.928l2.482-13.149h2.521l2.502,13.149h-2.27l-0.407-2.405h-2.347l-0.388,2.405H60.94z
	 M63.714,41.758h1.765l-0.873-5.275h-0.019L63.714,41.758z"/>
<path fill="#FFFFFF" d="M68.021,32.779h5.877v1.804h-1.823v11.345h-2.23V34.583h-1.823V32.779z"/>
<path fill="#FFFFFF" d="M74.927,32.779h5.275v1.804h-3.064v3.762h2.192v1.784h-2.192v3.995h3.064v1.804h-5.275V32.779z"/>
<path fill="#FFFFFF" d="M83.598,39.896v6.032h-2.211V32.779h3.22c2.23,0,3.045,1.105,3.045,2.948v1.687
	c0,1.416-0.504,2.25-1.765,2.541l2.114,5.973h-2.328L83.598,39.896z M83.598,34.583v4.092h0.737c0.757,0,1.086-0.388,1.086-1.086
	v-1.939c0-0.718-0.329-1.066-1.086-1.066H83.598z"/>
</svg>
