<?xml version="1.0" encoding="utf-8"?>
<!-- Generator: Adobe Illustrator 15.0.0, SVG Export Plug-In  -->
<!DOCTYPE svg PUBLIC "-//W3C//DTD SVG 1.1//EN" "http://www.w3.org/Graphics/SVG/1.1/DTD/svg11.dtd" [
	<!ENTITY ns_flows "http://ns.adobe.com/Flows/1.0/">
]>
<svg version="1.1"
	 xmlns="http://www.w3.org/2000/svg" xmlns:xlink="http://www.w3.org/1999/xlink" xmlns:a="http://ns.adobe.com/AdobeSVGViewerExtensions/3.0/"
	 x="0px" y="0px" width="161px" height="161px" viewBox="-0.001 0.485 161 161"
	 overflow="visible" enable-background="new -0.001 0.485 161 161" xml:space="preserve">
<defs>
</defs>
<rect fill="#F99D28" width="160.92" height="160.926"/>
<polygon fill="#FFFFFF" points="11.53,19.375 11.53,25.068 11.577,25.068 15.405,21.095 15.454,21.095 15.454,45.933 20.909,45.933 
	20.909,13.486 16.554,13.486 "/>
<polygon fill="#FFFFFF" points="23.972,19.375 23.972,25.068 24.021,25.068 27.849,21.095 27.896,21.095 27.896,45.933 
	33.353,45.933 33.353,13.486 28.999,13.486 "/>
<path fill="#FFFFFF" d="M27.684,122.514h0.249H51.89c0.327,0,0.594-0.268,0.594-0.596c0-0.152-0.062-0.289-0.156-0.395l-0.033-0.035
	l-12.043-15.582l-0.117-0.129c-0.109-0.119-0.265-0.193-0.438-0.193c-0.149,0-0.283,0.062-0.39,0.152l-0.072,0.084l-0.113,0.127
	l-11.749,15.418l-0.181,0.221c-0.064,0.094-0.102,0.209-0.102,0.332C27.089,122.246,27.355,122.514,27.684,122.514z"/>
<path fill="#FFFFFF" d="M51.816,124.711H27.562c-0.328,0-0.594,0.266-0.594,0.594v18.98c0,0.328,0.266,0.596,0.594,0.596h7.807
	v-11.941c0-0.33,0.265-0.594,0.594-0.594h7.246c0.328,0,0.594,0.264,0.594,0.594v11.941h8.014c0.327,0,0.594-0.268,0.594-0.596
	v-18.98C52.41,124.977,52.144,124.711,51.816,124.711z"/>
<path fill="#FFFFFF" d="M135.642,119.742h-24.006c-0.324,0-0.586,0.252-0.586,0.57v24.24c0,0.314,0.262,0.57,0.586,0.57h24.006
	c0.326,0,0.588-0.256,0.588-0.57v-24.24C136.229,119.994,135.968,119.742,135.642,119.742 M122.507,135.566
	c0,0.318-0.262,0.574-0.586,0.574h-7.172c-0.326,0-0.59-0.256-0.59-0.574v-4.357c0-0.318,0.264-0.572,0.59-0.572h7.172
	c0.324,0,0.586,0.254,0.586,0.572V135.566z M122.507,127.512c0,0.316-0.262,0.572-0.586,0.572h-7.172
	c-0.326,0-0.59-0.256-0.59-0.572v-4.361c0-0.314,0.264-0.57,0.59-0.57h7.172c0.324,0,0.586,0.256,0.586,0.57V127.512z
	 M133.468,135.566c0,0.318-0.262,0.574-0.588,0.574h-7.17c-0.326,0-0.588-0.256-0.588-0.574v-4.357c0-0.318,0.262-0.572,0.588-0.572
	h7.17c0.326,0,0.588,0.254,0.588,0.572V135.566z M133.468,127.512c0,0.316-0.262,0.572-0.588,0.572h-7.17
	c-0.326,0-0.588-0.256-0.588-0.572v-4.361c0-0.314,0.262-0.57,0.588-0.57h7.17c0.326,0,0.588,0.256,0.588,0.57V127.512z"/>
<path fill="#FFFFFF" d="M79.839,63.476H56.347c-0.314,0-0.574,0.256-0.574,0.576v80.286c0,0.316,0.26,0.574,0.574,0.574h23.492
	c0.314,0,0.578-0.258,0.578-0.574V64.052C80.417,63.731,80.153,63.476,79.839,63.476 M65.864,135.766
	c0,0.17-0.139,0.309-0.309,0.309h-5.379c-0.17,0-0.309-0.139-0.309-0.309v-5.994c0-0.17,0.139-0.307,0.309-0.307h5.379
	c0.17,0,0.309,0.137,0.309,0.307V135.766z M65.864,121.998c0,0.174-0.139,0.309-0.309,0.309h-5.379c-0.17,0-0.309-0.135-0.309-0.309
	v-5.992c0-0.174,0.139-0.309,0.309-0.309h5.379c0.17,0,0.309,0.135,0.309,0.309V121.998z M65.864,108.234
	c0,0.17-0.139,0.309-0.309,0.309h-5.379c-0.17,0-0.309-0.139-0.309-0.309v-5.996c0-0.17,0.139-0.309,0.309-0.309h5.379
	c0.17,0,0.309,0.139,0.309,0.309V108.234z M65.864,94.467c0,0.17-0.139,0.309-0.309,0.309h-5.379c-0.17,0-0.309-0.139-0.309-0.309
	v-5.996c0-0.17,0.139-0.305,0.309-0.305h5.379c0.17,0,0.309,0.135,0.309,0.305V94.467z M65.864,80.703
	c0,0.168-0.139,0.307-0.309,0.307h-5.379c-0.17,0-0.309-0.139-0.309-0.307v-5.996c0-0.172,0.139-0.309,0.309-0.309h5.379
	c0.17,0,0.309,0.137,0.309,0.309V80.703z M76.413,135.766c0,0.17-0.139,0.309-0.311,0.309h-5.377c-0.172,0-0.309-0.139-0.309-0.309
	v-5.994c0-0.17,0.137-0.307,0.309-0.307h5.377c0.172,0,0.311,0.137,0.311,0.307V135.766z M76.413,121.998
	c0,0.174-0.139,0.309-0.311,0.309h-5.377c-0.172,0-0.309-0.135-0.309-0.309v-5.992c0-0.174,0.137-0.309,0.309-0.309h5.377
	c0.172,0,0.311,0.135,0.311,0.309V121.998z M76.413,108.234c0,0.17-0.139,0.309-0.311,0.309h-5.377
	c-0.172,0-0.309-0.139-0.309-0.309v-5.996c0-0.17,0.137-0.309,0.309-0.309h5.377c0.172,0,0.311,0.139,0.311,0.309V108.234z
	 M76.413,94.467c0,0.17-0.139,0.309-0.311,0.309h-5.377c-0.172,0-0.309-0.139-0.309-0.309v-5.996c0-0.17,0.137-0.305,0.309-0.305
	h5.377c0.172,0,0.311,0.135,0.311,0.305V94.467z M76.413,80.703c0,0.168-0.139,0.307-0.311,0.307h-5.377
	c-0.172,0-0.309-0.139-0.309-0.307v-5.996c0-0.172,0.137-0.309,0.309-0.309h5.377c0.172,0,0.311,0.137,0.311,0.309V80.703z"/>
<path fill="#FFFFFF" d="M136.202,117.303c0,0.27-0.215,0.484-0.482,0.484h-24.162c-0.266,0-0.482-0.215-0.482-0.484v-4.832
	c0-0.266,0.217-0.482,0.482-0.482h24.162c0.268,0,0.482,0.217,0.482,0.482V117.303z"/>
<path fill="#FFFFFF" d="M108.215,78.637c-0.078-0.258-0.307-0.449-0.59-0.449c-0.127,0-0.237,0.047-0.336,0.111
	c-0.015,0.01-0.029,0.018-0.044,0.029l-0.198,0.25l-23.089,29.289l-0.106,0.143c-0.119,0.117-0.195,0.277-0.2,0.457v0.039v35.953
	c0,0.316,0.258,0.572,0.576,0.572h23.469c0.318,0,0.574-0.256,0.574-0.572V78.877C108.271,78.791,108.248,78.709,108.215,78.637z
	 M98.494,94.543l0.165-0.207c1.58-2.027,4.242-5.305,5.54-6.896l0.17-0.203c0.123-0.148,0.309-0.244,0.517-0.244
	c0.321,0,0.578,0.232,0.641,0.537v0.26V88v6.939c0,0.357-0.284,0.645-0.638,0.66c-0.011,0-0.02,0.006-0.029,0.006
	s-0.019-0.006-0.029-0.006h-5.483h-0.286c-0.011,0-0.02,0.006-0.029,0.006S99.013,95.6,99.002,95.6
	c-0.354-0.016-0.638-0.303-0.638-0.66C98.364,94.791,98.412,94.654,98.494,94.543z M94.841,135.562c0,0.318-0.256,0.574-0.574,0.574
	h-7.002c-0.318,0-0.574-0.256-0.574-0.574v-4.383c0-0.316,0.256-0.572,0.574-0.572h7.002c0.318,0,0.574,0.256,0.574,0.572V135.562z
	 M94.841,127.465c0,0.318-0.256,0.574-0.574,0.574h-7.002c-0.318,0-0.574-0.256-0.574-0.574v-4.383c0-0.32,0.256-0.574,0.574-0.574
	h7.002c0.318,0,0.574,0.254,0.574,0.574V127.465z M94.841,119.367c0,0.314-0.256,0.572-0.574,0.572h-7.002
	c-0.318,0-0.574-0.258-0.574-0.572v-4.385c0-0.318,0.256-0.574,0.574-0.574h7.002c0.318,0,0.574,0.256,0.574,0.574V119.367z
	 M94.86,101.621v0.211v9.443c0,0.318-0.26,0.574-0.574,0.574h-7c-0.32,0-0.578-0.256-0.578-0.574v-1.166v-0.049
	c0.003-0.076,0.018-0.148,0.044-0.215c0.012-0.023,0.014-0.033,0.035-0.066c0.014-0.027,0.033-0.053,0.051-0.076
	c0.018-0.027,0.044-0.062,0.065-0.094c0.895-1.281,4.934-6.256,6.63-8.336l0.17-0.205c0.123-0.148,0.309-0.244,0.517-0.244
	c0.321,0,0.578,0.234,0.641,0.537V101.621z M105.544,135.562c0,0.318-0.26,0.574-0.574,0.574h-7c-0.32,0-0.578-0.256-0.578-0.574
	v-4.383c0-0.316,0.258-0.572,0.578-0.572h7c0.314,0,0.574,0.256,0.574,0.572V135.562z M105.544,127.465
	c0,0.318-0.26,0.574-0.574,0.574h-7c-0.32,0-0.578-0.256-0.578-0.574v-4.383c0-0.32,0.258-0.574,0.578-0.574h7
	c0.314,0,0.574,0.254,0.574,0.574V127.465z M105.544,119.367c0,0.314-0.26,0.572-0.574,0.572h-7c-0.32,0-0.578-0.258-0.578-0.572
	v-4.385c0-0.318,0.258-0.574,0.578-0.574h7c0.314,0,0.574,0.256,0.574,0.574V119.367z M105.544,111.268
	c0,0.316-0.26,0.572-0.574,0.572h-7c-0.32,0-0.578-0.256-0.578-0.572v-4.383c0-0.318,0.258-0.574,0.578-0.574h7
	c0.314,0,0.574,0.256,0.574,0.574V111.268z M105.544,103.168c0,0.318-0.26,0.574-0.574,0.574h-7c-0.32,0-0.578-0.256-0.578-0.574
	v-4.383c0-0.32,0.258-0.576,0.578-0.576h7c0.314,0,0.574,0.256,0.574,0.576V103.168z"/>
<path fill="#FFFFFF" d="M43.952,23.782v-1.765h2.056v1.803c0,0.737,0.33,1.164,1.087,1.164c0.697,0,1.008-0.466,1.008-1.164v-0.504
	c0-0.756-0.311-1.222-0.989-1.862l-1.299-1.299c-1.261-1.241-1.843-1.998-1.843-3.51v-0.446c0-1.629,0.95-2.89,3.104-2.89
	c2.211,0,3.083,1.086,3.083,2.987v1.066h-2.017v-1.144c0-0.756-0.35-1.125-1.047-1.125c-0.621,0-1.048,0.349-1.048,1.086v0.271
	c0,0.737,0.407,1.164,1.048,1.785l1.415,1.396c1.203,1.222,1.784,1.959,1.784,3.414v0.64c0,1.804-0.97,3.084-3.219,3.084
	C44.825,26.769,43.952,25.508,43.952,23.782z"/>
<path fill="#FFFFFF" d="M57.686,13.465v9.949c0,2.037-0.873,3.355-3.122,3.355c-2.328,0-3.298-1.319-3.298-3.355v-9.949h2.211
	v10.162c0,0.776,0.311,1.299,1.087,1.299c0.775,0,1.086-0.523,1.086-1.299V13.465H57.686z"/>
<path fill="#FFFFFF" d="M58.812,23.782v-1.765h2.056v1.803c0,0.737,0.33,1.164,1.087,1.164c0.697,0,1.008-0.466,1.008-1.164v-0.504
	c0-0.756-0.311-1.222-0.989-1.862l-1.299-1.299c-1.261-1.241-1.843-1.998-1.843-3.51v-0.446c0-1.629,0.95-2.89,3.104-2.89
	c2.211,0,3.083,1.086,3.083,2.987v1.066h-2.017v-1.144c0-0.756-0.35-1.125-1.047-1.125c-0.621,0-1.048,0.349-1.048,1.086v0.271
	c0,0.737,0.407,1.164,1.048,1.785l1.415,1.396c1.203,1.222,1.784,1.959,1.784,3.414v0.64c0,1.804-0.97,3.084-3.219,3.084
	C59.686,26.769,58.812,25.508,58.812,23.782z"/>
<path fill="#FFFFFF" d="M65.68,13.465h5.877v1.804h-1.823v11.345h-2.23V15.269H65.68V13.465z"/>
<path fill="#FFFFFF" d="M71.151,26.614l2.482-13.149h2.521l2.502,13.149h-2.27l-0.407-2.405h-2.347l-0.388,2.405H71.151z
	 M73.925,22.444h1.765l-0.873-5.275h-0.019L73.925,22.444z"/>
<path fill="#FFFFFF" d="M79.55,13.465h2.211v13.149H79.55V13.465z"/>
<path fill="#FFFFFF" d="M84.885,18.352v8.262h-1.862V13.465h2.173l2.385,7.544v-7.544h1.843v13.149h-1.939L84.885,18.352z"/>
<path fill="#FFFFFF" d="M90.143,26.614l2.482-13.149h2.521l2.502,13.149h-2.27l-0.407-2.405h-2.347l-0.388,2.405H90.143z
	 M92.916,22.444h1.765l-0.873-5.275h-0.019L92.916,22.444z"/>
<path fill="#FFFFFF" d="M98.349,13.465h3.2c2.211,0,2.948,1.028,2.948,2.89v1.338c0,1.105-0.407,1.804-1.319,2.095
	c1.105,0.252,1.649,0.989,1.649,2.191v1.746c0,1.862-0.834,2.89-3.045,2.89h-3.434V13.465z M100.56,19.011h0.776
	c0.718,0,1.047-0.368,1.047-1.066v-1.61c0-0.718-0.329-1.066-1.066-1.066h-0.757V19.011z M100.56,20.699v4.111h0.97
	c0.737,0,1.087-0.368,1.087-1.066v-1.979c0-0.698-0.33-1.066-1.105-1.066H100.56z"/>
<path fill="#FFFFFF" d="M105.739,13.465h2.211V24.81h2.638v1.804h-4.849V13.465z"/>
<path fill="#FFFFFF" d="M111.404,13.465h5.275v1.804h-3.064v3.762h2.192v1.784h-2.192v3.995h3.064v1.804h-5.275V13.465z"/>
<path fill="#FFFFFF" d="M120.405,23.22v-6.361c0-2.056,0.97-3.549,3.298-3.549c2.443,0,3.122,1.357,3.122,3.297v1.552h-2.017v-1.726
	c0-0.815-0.271-1.28-1.067-1.28c-0.795,0-1.125,0.562-1.125,1.358v7.059c0,0.795,0.33,1.357,1.125,1.357
	c0.796,0,1.067-0.504,1.067-1.28v-2.424h2.017v2.269c0,1.881-0.775,3.278-3.122,3.278C121.375,26.769,120.405,25.256,120.405,23.22z
	"/>
<path fill="#FFFFFF" d="M127.854,13.465h2.211v13.149h-2.211V13.465z"/>
<path fill="#FFFFFF" d="M130.9,13.465h5.877v1.804h-1.823v11.345h-2.23V15.269H130.9V13.465z"/>
<path fill="#FFFFFF" d="M137.651,13.465h2.211v13.149h-2.211V13.465z"/>
<path fill="#FFFFFF" d="M141.008,13.465h5.275v1.804h-3.064v3.762h2.192v1.784h-2.192v3.995h3.064v1.804h-5.275V13.465z"/>
<path fill="#FFFFFF" d="M146.886,23.782v-1.765h2.056v1.803c0,0.737,0.33,1.164,1.087,1.164c0.697,0,1.008-0.466,1.008-1.164v-0.504
	c0-0.756-0.311-1.222-0.989-1.862l-1.299-1.299c-1.261-1.241-1.843-1.998-1.843-3.51v-0.446c0-1.629,0.95-2.89,3.104-2.89
	c2.211,0,3.083,1.086,3.083,2.987v1.066h-2.017v-1.144c0-0.756-0.35-1.125-1.047-1.125c-0.621,0-1.048,0.349-1.048,1.086v0.271
	c0,0.737,0.407,1.164,1.048,1.785l1.415,1.396c1.203,1.222,1.784,1.959,1.784,3.414v0.64c0,1.804-0.97,3.084-3.219,3.084
	C147.759,26.769,146.886,25.508,146.886,23.782z"/>
<path fill="#FFFFFF" d="M43.991,45.933l2.482-13.149h2.521l2.502,13.149h-2.27l-0.407-2.405h-2.347l-0.388,2.405H43.991z
	 M46.765,41.763h1.765l-0.873-5.275h-0.019L46.765,41.763z"/>
<path fill="#FFFFFF" d="M54.466,37.671v8.262h-1.862V32.784h2.173l2.385,7.544v-7.544h1.843v13.149h-1.939L54.466,37.671z"/>
<path fill="#FFFFFF" d="M67.075,36.314v6.089c0,2.017-0.834,3.53-3.2,3.53h-3.414V32.784h3.414
	C66.241,32.784,67.075,34.277,67.075,36.314z M63.604,44.129c0.911,0,1.261-0.543,1.261-1.338v-6.885
	c0-0.775-0.35-1.318-1.261-1.318h-0.932v9.542H63.604z"/>
<path fill="#FFFFFF" d="M70.762,42.539v-6.361c0-2.056,0.97-3.549,3.298-3.549c2.443,0,3.122,1.357,3.122,3.297v1.552h-2.017v-1.726
	c0-0.815-0.271-1.28-1.067-1.28c-0.795,0-1.125,0.562-1.125,1.358v7.059c0,0.795,0.33,1.357,1.125,1.357
	c0.796,0,1.067-0.504,1.067-1.28v-2.424h2.017v2.269c0,1.881-0.775,3.278-3.122,3.278C71.731,46.088,70.762,44.576,70.762,42.539z"
	/>
<path fill="#FFFFFF" d="M78.58,42.539v-6.361c0-2.056,1.009-3.549,3.336-3.549c2.347,0,3.355,1.493,3.355,3.549v6.361
	c0,2.037-1.009,3.549-3.355,3.549C79.589,46.088,78.58,44.576,78.58,42.539z M83.061,42.888v-7.059c0-0.795-0.349-1.358-1.145-1.358
	c-0.775,0-1.125,0.562-1.125,1.358v7.059c0,0.795,0.35,1.357,1.125,1.357C82.712,44.246,83.061,43.684,83.061,42.888z"/>
<path fill="#FFFFFF" d="M92.817,37.4H92.76l-1.493,8.533h-1.028L88.59,37.4h-0.039v8.533h-1.823V32.784h2.58l1.435,7.408h0.02
	l1.28-7.408h2.793v13.149h-2.018V37.4z"/>
<path fill="#FFFFFF" d="M102.382,37.4h-0.058l-1.493,8.533h-1.028L98.154,37.4h-0.039v8.533h-1.823V32.784h2.58l1.435,7.408h0.02
	l1.28-7.408h2.793v13.149h-2.018V37.4z"/>
<path fill="#FFFFFF" d="M112.275,32.784v9.949c0,2.037-0.873,3.355-3.122,3.355c-2.328,0-3.298-1.319-3.298-3.355v-9.949h2.211
	v10.162c0,0.776,0.311,1.299,1.087,1.299c0.775,0,1.086-0.523,1.086-1.299V32.784H112.275z"/>
<path fill="#FFFFFF" d="M115.595,37.671v8.262h-1.862V32.784h2.173l2.385,7.544v-7.544h1.843v13.149h-1.939L115.595,37.671z"/>
<path fill="#FFFFFF" d="M121.589,32.784h2.211v13.149h-2.211V32.784z"/>
<path fill="#FFFFFF" d="M125.003,32.784h5.877v1.804h-1.823v11.345h-2.23V34.588h-1.823V32.784z"/>
<path fill="#FFFFFF" d="M132.104,32.784h2.211v13.149h-2.211V32.784z"/>
<path fill="#FFFFFF" d="M135.789,32.784h5.275v1.804H138v3.762h2.192v1.784H138v3.995h3.064v1.804h-5.275V32.784z"/>
<path fill="#FFFFFF" d="M142.229,43.102v-1.765h2.056v1.803c0,0.737,0.33,1.164,1.087,1.164c0.697,0,1.008-0.466,1.008-1.164v-0.504
	c0-0.756-0.311-1.222-0.989-1.862l-1.299-1.299c-1.261-1.241-1.843-1.998-1.843-3.51v-0.446c0-1.629,0.95-2.89,3.104-2.89
	c2.211,0,3.083,1.086,3.083,2.987v1.066h-2.017v-1.144c0-0.756-0.35-1.125-1.047-1.125c-0.621,0-1.048,0.349-1.048,1.086v0.271
	c0,0.737,0.407,1.164,1.048,1.785l1.415,1.396c1.203,1.222,1.784,1.959,1.784,3.414v0.64c0,1.804-0.97,3.084-3.219,3.084
	C143.103,46.088,142.229,44.828,142.229,43.102z"/>
</svg>
