<?xml version="1.0" encoding="utf-8"?>
<!-- Generator: Adobe Illustrator 15.0.0, SVG Export Plug-In  -->
<!DOCTYPE svg PUBLIC "-//W3C//DTD SVG 1.1//EN" "http://www.w3.org/Graphics/SVG/1.1/DTD/svg11.dtd" [
	<!ENTITY ns_flows "http://ns.adobe.com/Flows/1.0/">
]>
<svg version="1.1"
	 xmlns="http://www.w3.org/2000/svg" xmlns:xlink="http://www.w3.org/1999/xlink" xmlns:a="http://ns.adobe.com/AdobeSVGViewerExtensions/3.0/"
	 x="0px" y="0px" width="161px" height="161px" viewBox="-0.003 0 161 161"
	 overflow="visible" enable-background="new -0.003 0 161 161" xml:space="preserve">
<defs>
</defs>
<rect fill="#417F45" width="160.917" height="160.928"/>
<polygon fill="#FFFFFF" points="20.312,13.499 20.312,45.932 14.857,45.932 14.857,21.105 14.81,21.105 10.984,25.075 
	10.935,25.075 10.935,19.383 15.957,13.499 "/>
<path fill="#FFFFFF" d="M38.297,20.532v2.821c0,2.726-1.482,4.543-3.73,5.263c2.726,0.621,4.018,2.534,4.018,5.5V38.9
	c0,4.496-2.391,7.414-7.893,7.414c-5.55,0-7.513-3.157-7.513-8.084v-4.258h4.978v4.642c0,1.913,0.668,3.155,2.535,3.155
	c1.672,0,2.437-1.194,2.437-2.918v-5.356c0-1.724-0.765-2.631-2.677-2.631h-2.295v-4.162h2.058c1.769,0,2.914-0.91,2.914-2.631
	v-3.492c0-1.771-0.619-2.918-2.341-2.918c-1.721,0-2.344,1.147-2.344,3.157v3.3h-4.978v-2.869c0-4.784,1.963-8.133,7.606-8.133
	C36.097,13.116,38.297,15.939,38.297,20.532"/>
<path fill="#FFFFFF" d="M140.727,100.748c-4.239-5.947-23.417-29.69-59.065-29.69c-35.654,0-54.826,23.743-59.072,29.69
	c-0.181,0.254-0.336,0.473-0.463,0.66c0.127,0.191,0.282,0.41,0.463,0.668c4.246,5.943,23.418,29.688,59.072,29.688
	c35.648,0,54.826-23.744,59.065-29.688c0.186-0.258,0.338-0.477,0.46-0.668C141.064,101.221,140.912,101.002,140.727,100.748
	 M61.774,86.071c0.321-0.472,1.389-1.818,1.519-1.988c0.274-0.354,0.819-0.426,1.202-0.493c0.378-0.074,0.883,0.14,0.943,0.424
	c0.065,0.285-0.146,1.389-0.333,1.578c-0.522,0.543-1.884,1.309-2.634,1.188C61.892,86.691,61.664,86.242,61.774,86.071
	 M60.501,88.604c0.057-0.067,0.107-0.123,0.129-0.15c0.448-0.511,1.341-0.62,1.958-0.717c0.618-0.105,1.442,0.206,1.542,0.617
	c0.105,0.408-1.55,1.158-1.853,1.439c-0.857,0.789-2.2,2.398-2.985,2.572c-0.257,0.058-0.468,0.019-0.642-0.067
	C59.167,91.011,59.784,89.772,60.501,88.604 M73.843,115.975c-0.482,1.898-1.046,2.584-1.526,3.182
	c-0.479,0.605-2.258,1.379-3.386,1.295c-1.13-0.084-1.287-3.098-1.287-4.648c0-0.535-0.758,1.053-1.153-2.174
	c-0.253-2.066-1.579,0.215-1.672-1.162c-0.095-1.375-0.757-1.102-1.454-1.961c-0.692-0.857-1.557,0.084-2.525,0.518
	c-0.963,0.43-0.566,0.654-1.937,0.223c-0.035-0.01-0.053-0.021-0.087-0.033c-1.257-2.971-1.951-6.238-1.951-9.666
	c0-0.838,0.045-1.662,0.123-2.479c0.047-0.082,0.096-0.162,0.153-0.23c1.313-1.555,1.284-1.918,1.284-1.918l1.453-0.504
	c0,0,2.32,0.357,4.068,1.016c1.439,0.541,3.707,1.762,5.025,1.225c0.953-0.395,1.699-0.914,1.609-1.709
	c-0.107-0.996-0.892-1.232-1.841-0.561c-0.351,0.246-1.097-1.502-1.682-1.412c-0.585,0.086,0.724,2.053,0.228,2.137
	c-0.498,0.086-1.498-2.051-1.669-2.396c-0.168-0.343-0.94-1.199-1.634-0.546c-1.465,1.392-3.844,1.307-4.321,1.665
	c-1.454,1.088-1.838-0.358-1.806-1.239c0.059-0.201,0.118-0.404,0.183-0.604c0.475-0.523,2.179-0.696,2.764-0.307
	c0.643,0.429,1.104-0.11,1.354-0.371c0.255-0.255,0.165-0.667,0.005-1.009c-0.163-0.346,0.321-0.598,0.653-0.688
	c0.335-0.088,1.441-0.863,1.883-1.121c0.446-0.257,2.742-0.535,3.771-0.021c1.028,0.519,1.973,0.096,2.479-0.5
	c0.635-0.753,1.442-1.327,1.801-1.501c0.36-0.169-0.886-1.331-1.91-0.063c-1.027,1.262-1.55,1.379-2.032,1.379
	s-3.35-0.716-3.703-1.622c-0.35-0.904,0.896-1.583,1.955-2.096c1.058-0.505,3.953-0.497,4.693-0.665
	c1.505-0.33,3.429-1.086,4.397-0.426c0.965,0.647-4.047,1.789-2.399,2.679c0.586,0.321,3.235-1.524,4.144-1.997
	c2.136-1.102-2.071-1.465-1.525-3.704c0.617-2.531-5.16-1.552-8.04-1.337c3.862-2.475,8.449-3.914,13.374-3.914
	c11.717,0,21.531,8.117,24.148,19.031c0.018,0.539-0.066,0.93-0.121,1.15c-0.225,0.895-1.923,1.664-2.908,0.223
	c-0.251-0.363-1.316-1.369-1.28,0.352c0.034,1.723,1.673,1.898,0.085,2.932c-1.586,1.031-1.877,0.783-2.61,1.043
	c-0.731,0.26-1.441,2.033-1.267,2.98c0.178,0.949,2.441,3.537,0.762,3.43c-0.394-0.029-3.361-2.055-3.852-3.359
	c-0.517-1.371-1.081-2.715-1.481-3.75c-0.405-1.029-1.452-1.293-2.34-0.688c-0.883,0.605,0.247,1.209-0.389,2.504
	c-0.633,1.291-1.088,2.443-2.021,1.377c-2.424-2.777-5.946-1.408-6.499-4.498c-0.298-1.676-1.741-1.516-2.947-2.465
	c-1.213-0.943-1.888-1.457-2.092-0.773c-0.18,0.6,3.796,3.752,4.079,4.559c0.422,1.199-1.19,2.258-2.371,2.543
	c-1.175,0.281-1.693-0.662-2.851-1.867c-1.156-1.203-1.663-2.064-1.743-1.119c-0.116,1.367,1.099,3.373,2.277,4.123
	c1.005,0.637,2.131,0.926,1.806,1.957c-0.327,1.037-0.006,0.451-1.132,1.564c-1.128,1.119-1.343,1.479-1.261,3.025
	c0.081,1.551-0.322,1.641-0.564,2.93C74.89,115.199,74.33,114.084,73.843,115.975 M100.484,106.072
	c0.835-0.068,2.089,1.088,1.599,1.533c-0.488,0.439-1.74,0.279-2.368-0.213C99.09,106.906,100.109,106.102,100.484,106.072
	 M99.429,105.309c-0.268-0.1-0.504-0.354-0.707-0.963c-0.202-0.611,0.311-0.959,0.812-0.713c0.51,0.258,1.171,1.02,1.171,1.426
	S99.702,105.416,99.429,105.309 M88.468,105.266c-0.49,0.436-1.746,0.277-2.374-0.213c-0.624-0.486,0.396-1.293,0.77-1.322
	C87.699,103.656,88.954,104.822,88.468,105.266 M78.325,110.197c-0.342,0.559-1.275,4.734-1.902,4.248
	c-0.63-0.486,0.254-4.844,0.436-5.174C77.839,107.471,79.961,107.561,78.325,110.197 M81.702,126.385c-2.427,0-4.767-0.354-6.98-1
	c-0.318-0.26-0.5-0.693-0.301-1.215c0.769-2.004,3.057-2.787,4.863-2.961c4.027-0.393,9.32,2.613,10.162,2.129
	c0.845-0.484,2.547-2.699,5.045-2.605c1.705,0.064,1.692,0.352,2.265,0.566C92.579,124.486,87.364,126.385,81.702,126.385
	 M99.218,119.154c-0.249-0.07-0.504-0.15-0.78-0.287c-1.355-0.691-1.193,0.412-1.859,0.168c-0.671-0.248,0.752-1.795-1.251-0.486
	c-1.993,1.305-1.455-0.201-2.325-2.412c-0.879-2.211,1.001-4.736,2.57-5.307c2.157-0.781,3.497-0.939,4.509-1.189
	c2.983-0.746,3.614-2.516,4.155-1.439c0.103,0.203,0.201,0.395,0.291,0.574c0.174,0.322,0.374,0.975,0.384,1.619
	C103.645,113.713,101.69,116.693,99.218,119.154 M106.021,106.617c-0.666-0.184-3.455-4.037-1.25-6.574
	c0.366-0.418-0.74-1.645-0.438-1.67c1.206-0.092,1.848,0.656,2.164,1.734c0.024,0.475,0.043,0.955,0.043,1.439
	C106.54,103.285,106.358,104.979,106.021,106.617"/>
<path fill="#FFFFFF" d="M51.351,23.416v-6.497c0-2.1,0.99-3.625,3.367-3.625c2.495,0,3.188,1.386,3.188,3.367v1.584h-2.06v-1.763
	c0-0.832-0.277-1.307-1.09-1.307c-0.812,0-1.148,0.574-1.148,1.386v7.209c0,0.812,0.337,1.386,1.148,1.386
	c0.812,0,1.09-0.515,1.09-1.307v-2.476h2.06v2.317c0,1.921-0.792,3.348-3.188,3.348C52.341,27.04,51.351,25.495,51.351,23.416z"/>
<path fill="#FFFFFF" d="M59.35,13.453h2.258V25.04h2.693v1.842H59.35V13.453z"/>
<path fill="#FFFFFF" d="M65.527,13.453h2.258v13.428h-2.258V13.453z"/>
<path fill="#FFFFFF" d="M75.686,18.167h-0.059l-1.525,8.714h-1.05l-1.684-8.714h-0.04v8.714h-1.861V13.453h2.634l1.466,7.565h0.021
	l1.307-7.565h2.853v13.428h-2.061V18.167z"/>
<path fill="#FFFFFF" d="M78.872,26.881l2.535-13.428h2.575l2.555,13.428H84.22l-0.416-2.456h-2.396l-0.396,2.456H78.872z
	 M81.704,22.623h1.803l-0.892-5.387h-0.02L81.704,22.623z"/>
<path fill="#FFFFFF" d="M86.236,13.453h6.002v1.842h-1.862v11.586h-2.277V15.295h-1.862V13.453z"/>
<path fill="#FFFFFF" d="M93.483,13.453h5.388v1.842h-3.13v3.842h2.238v1.822h-2.238v4.08h3.13v1.842h-5.388V13.453z"/>
<path fill="#FFFFFF" d="M50.963,45.934l2.535-13.428h2.575l2.555,13.428h-2.317l-0.416-2.456h-2.396l-0.396,2.456H50.963z
	 M53.795,41.675h1.803l-0.892-5.387h-0.02L53.795,41.675z"/>
<path fill="#FFFFFF" d="M59.259,42.468v-6.497c0-2.1,0.99-3.625,3.367-3.625c2.495,0,3.188,1.386,3.188,3.367v1.584h-2.06v-1.763
	c0-0.832-0.277-1.307-1.09-1.307c-0.812,0-1.148,0.574-1.148,1.386v7.209c0,0.812,0.337,1.386,1.148,1.386
	c0.812,0,1.09-0.515,1.09-1.307v-2.476h2.06v2.317c0,1.921-0.792,3.348-3.188,3.348C60.249,46.092,59.259,44.547,59.259,42.468z"/>
<path fill="#FFFFFF" d="M66.624,32.505h6.002v1.842h-1.862v11.586h-2.277V34.347h-1.862V32.505z"/>
<path fill="#FFFFFF" d="M73.871,32.505h2.258v13.428h-2.258V32.505z"/>
<path fill="#FFFFFF" d="M77.633,42.468v-6.497c0-2.1,1.03-3.625,3.406-3.625c2.396,0,3.427,1.525,3.427,3.625v6.497
	c0,2.08-1.03,3.625-3.427,3.625C78.663,46.092,77.633,44.547,77.633,42.468z M82.208,42.824v-7.209c0-0.812-0.356-1.386-1.169-1.386
	c-0.792,0-1.148,0.574-1.148,1.386v7.209c0,0.812,0.356,1.386,1.148,1.386C81.852,44.21,82.208,43.636,82.208,42.824z"/>
<path fill="#FFFFFF" d="M87.83,37.496v8.438h-1.901V32.505h2.219l2.436,7.704v-7.704h1.882v13.428h-1.98L87.83,37.496z"/>
</svg>
