<?xml version="1.0" encoding="utf-8"?>
<!-- Generator: Adobe Illustrator 15.0.0, SVG Export Plug-In . SVG Version: 6.00 Build 0)  -->
<!DOCTYPE svg PUBLIC "-//W3C//DTD SVG 1.1//EN" "http://www.w3.org/Graphics/SVG/1.1/DTD/svg11.dtd">
<svg version="1.1" id="Layer_1" xmlns:amcharts="http://amcharts.com/ammap"
	 xmlns="http://www.w3.org/2000/svg" xmlns:xlink="http://www.w3.org/1999/xlink" x="0px" y="0px" width="861.072px"
	 height="856.065px" viewBox="0 0 861.072 856.065" enable-background="new 0 0 861.072 856.065" xml:space="preserve">
<defs>
	
	
		<amcharts:ammap  projection="mercator" leftLongitude="-8.6755499" topLatitude="37.090677" bottomLatitude="18.958746" rightLongitude="11.990542">
		</amcharts:ammap>
</defs>
<g>
	<path id="DZ-01" fill="#1E3250" stroke="#1E3250" stroke-width="0.5" d="M438.39,292.23l-1.35,49.869l-0.78,6.9l-3.85,16.06
		l7.229,40.79l-1.939,8.341l0,0l-1,7.359l-0.391,10.681l-1.899,5.96l-5.381,8.529l-1.39,17.051l-3.14,5.35l0.08,10.47l3.109,4.681
		l-4.319,10.81l-0.78,7.85v7.03l-0.62,0.96l-2.73,1.01l-0.57,0.841l-0.24-1.381l-0.87-0.05l-0.57,0.73l-1.48-0.33l-0.08-0.771
		l-1.4-0.58l-1.71,0.051l-2.69,1.31l-1.98,4.09l-12.42,12.87l4.57,10.021l14.28,20.079l0.54,63.091l-0.07,1.199l-0.38-0.119
		l-0.4,90.79l6.66-1.091l4.4,0.11l2.68,0.64l2.42,11.61l6.29,5.54l3.4,4.35l3.939,8.07l2.62,9.31l-0.61,5l0.521,4.721l3.53,5.18
		l4.869,11.82l0.761,4.56l-0.87-0.109l-2.69,1.229l0,0l-2.62-4.87l-3.88-3.66l-2.46-0.569l-2.979,3.08l-2.011-1.82l-1.26,0.62
		l-1.96-0.76l-1.609,0.89l-1.561-2.43l-2.8,0.06l-1.33-1.85l-3.73-2.771l-0.529-5.05l-0.89-1.8l-6.85-2.92l-3.22-0.61l-1-0.91
		l-0.63-1.76l-0.88-0.53l-2.49,0.69l-2.45-0.25l-0.74-1.86l1.27-9.16l-0.92-4.71l-44.54-29.3l-0.68-3.15l-80.87-56.88l-87.92-60.21
		l-47.38-33.09l0,0l21.03-8.24l11.32-12.17l23.55-0.8l1.61-3.33l1.05-4.56l1.86-3.521l11.23-16.76l3.73-3.479l2.99-1.771l3.35-1.16
		l12.89,0.41l2.91-1.89l1.57-5.101l-0.39-0.47l2.61-7.18l1.08-5.84l0,0l-2.04-2.03l4.47-15.55l0.88-1.591l-0.36-0.97l9.93-13.109
		l0.65-1.341l-0.09-1.17l2.15-3.97l10.81-8.73l11.21-16.26l22.33-6.72l19.1-1.22l9.78-8.63l0.95-4.681l-1.97-11.64l2.46-9.061
		l17.35-12.649l6.68-12.03l14.74-16.979l0,0l27.37-19.65L438.39,292.23z"/>
	<path id="DZ-02" fill="#1E3250" stroke="#1E3250" stroke-width="0.5" d="M423,66.5l1.479,0.11l0,0l-0.96,1.92l0.15,1.12l-1.21,0.65
		v0.84l0,0l-1.17,1.73l-1.21,0.12l-1.71,1.17l-0.24,2.15l1.35,2.33l1.4,0.64l-0.87,1.5l-1.33,0.65l0.62,0.4l1.23-0.46l0.53,0.64
		l-0.05-0.62l0.69,0.24l-0.14,0.87l0.48-0.09l-1.23,1.6l-1.21,0.02l0.66,0.92l-0.68,0.25l0.38,0.41l-0.35,0.29l1.24,1.28l1.47-0.32
		l-0.47,2.01l1.16,2.17l0.53,0.13l-0.44,0.64l0.76-0.09l1.551,1.75l-0.62,0.86l0.5,0.86l-0.63,0.56l0.29,0.93l0,0l-2.331-1.05
		l-1.33-1.36l0.07-0.87l-2.04-1.54l0.24-0.75l-0.59,0.25l-1.01,2.19l-0.62-0.31l-0.07,1.58l-2,1l-2.13,0.14l0.7,0.64l-0.94,0.61
		l-0.14,1.2l0.75,0.23l-0.72,1.15l0,0l-0.85-0.41l-3.13-5.58l-3.68,1.55l-1.5-0.05l-1.7-1.58l-1.16-0.21l-1-2.15l-0.45,0.35
		l-0.64-0.42l0.63-0.45l-0.84-0.03l-1.26,1.27l-1.14-0.01l-0.37-2.41l-0.34,0.3l-0.47-0.43l0.21-1.1l-0.93,0.29l1.56-1.79l-0.5-1.01
		l0.44-0.3l-0.98-0.03l-0.2-2.53l-0.68-0.94l-2,0.75l0.01-0.75l-1.98,1.5l-3.77-0.56l0,0l-0.03-1.64l1.82-4.4l0,0l2.44-1.58
		l1.23,0.19l2.03-0.94l1.8-3.1l5.6-2.21l2.14,0.08l1.76-1.05l3.83,0.37l1.11-0.46l0.93-1.56l0.66-0.17l1.14,0.06l0.43,0.73
		l2.38-0.28l1.19,0.71l1.3-0.72l2.98,0.32L423,66.5z"/>
	<path id="DZ-03" fill="#1E3250" stroke="#1E3250" stroke-width="0.5" d="M450.17,153.84l0.95,11.41l2.199,6.48l0.79-0.15
		l1.761,3.65l0.609,0.14l1.351,2.47l0.93,0.37l1.35,1.97l1.28-0.01l0.89,0.61l4.07-1.87l1.24,0.479l-0.48-1.06l0.721-1.15
		l-0.261-0.39l1.79-2.62l2.32-1.46l2.6,1.4l-0.229,0.77l2.26-0.75l0.271,2.23l0.87-0.12l0.68,1.64l-0.3,2.601l2.609,5.739
		l-0.72,0.471l0.43,1.689l2.79,5.771l3.69,0.609l5.649,2.21l4.86,4.5l0.73,1.521l1.43,0.5l2.439,4.2l14.391,5.72l2.609,1.95
		l6.99,7.12l0.859,2.76l2.07,2.05l0.17,1.47l2.35,3.391l0,0L508,230.07l-1.38,0.72l-0.48-0.83l-2.16-0.71l-1.479,0.28l-0.61-0.79
		l-1.61,0.66l-0.529-0.91l-0.761,1.319l-0.77-0.579l-0.2,0.92l-0.93-0.4l-0.57,0.76l-13.939,0.45l6.439,4.04l0.51,5.16
		l-15.109-3.811l-4.41,0.74l-5.13,2.01l-19.19,1.54l0,0l-0.66-0.29l-0.439-2.89l-1.71-1.96l-1.28-4.13l-1.38-2.39l0.27-2.721
		l-1.14-1.58l0.561-0.409l6.55,0.21l0.399-6.94l-3.699,0.79l-6.25-2.05l-0.24-1.36l0.609-1.62l-5.56-0.529l0.93-2.36l-0.41-2.73
		l0.461-1.76l1.01-0.8l-2.04-1.8l0.359-0.66l-0.569-1.11l-0.931,0.4l-0.529-1l-1.141-0.141l0.46-2.359l-0.609-1.28l0.59-1.11
		l-1.01-2.77l-1.181-0.48l-2.09-2.359l-5.37,1.74l-0.88-0.28l-2.9-3.21l-3.95-1.72l-0.25-0.82l0.54-0.96l-1.56-2.61l0,0l3.94-2.63
		l-0.45-0.03l-1.01-2.38l2.92-1l3.86-3.01l0.49,2.04l2.95-1.75l0.66-4.39l3.31-3.75l2.04-1.37l6.75-1.771l0.95-1.899l3.29-2.71
		l3.58-1.58l0.79-1.88L450.17,153.84z"/>
	<path id="DZ-04" fill="#1E3250" stroke="#1E3250" stroke-width="0.5" d="M609.83,84.73l-0.73,0.77l0.781,0.23l0.219,1.94h1.141
		l0.711,0.74l-0.881-1.44l2.07,1.13l0.59-0.35l-0.07-1.45l4.359-0.25l0.01-2.1l0.58-0.52l0.211,0.46l0.859-0.43l-0.029,0.94
		l0.9,0.11l0.619,1.16l2.73,0.18l0.08,0.48l0.23-0.46l3.58,0.21l0,0l-0.471,2.28l2.27,1.11l-0.439,1.74l1.811,0.38l0.979-0.81
		l4.221-1.47l1.4-3.19l2.299-0.03l0,0l0.861,2.73l-0.27,1.44l1.34,0.15l-0.17,1.86l1.17,2.07l1.549,1.05l0.211,1.47l4.789,1.95
		l-0.52,0.72l0.609,0.51l-0.27,1.46l1.041,0.44l2.408-0.92l0.75,0.58l0.951-0.24l-0.859-1.18l0.85-0.33l-0.5-1.32l1.539-0.82l0,0
		l1.24,0.77l0.971,2.8l-0.201,1.11l1.5,1.45l1.381,0.05l-0.23,1l-1.24,0.18l0.15,2l0.82,3.02l1.32,1.94l-0.99-0.01l-1.439,1.16
		l-0.861-0.66l-4.209,2.09l-0.4,1.44l-3.26,3.47l-1.15,0.15l0,0l0.07-0.63l-0.82-0.24l-0.35-1.09l-1.25-0.17l-0.311-0.76l0.4-0.43
		l-0.6-1.01l-0.68-0.6l-0.092,1.01l-1.049,0.03l-0.25-0.47l0.619-0.57l-2.309-1.79l-0.531,0.38l-0.33,2.13l-1.93,0.47l-0.25-1.59
		l0.859-1.22l-0.309-1.12l-3.15-1.74l-0.26,0.98l-0.58-0.56l-2,0.31l-0.701-0.39l-1.91,3.58l-2.959-1.01l0.83-1.82l-1.08-1.01
		l-7.381,0.79l-1.289-2.96l0,0l-3.65-4.56l-2.811-1.42l-1.52,0.23l-3.439,1.79l-0.6-0.97l0.869-0.67l-0.949-0.7l0.83-0.88
		l-0.111-0.77l-4.42-0.64l-0.469-1.11l-0.871,0.21l-0.49,1.12l-1.559,0.96l-4.352-2.54l0,0l0.182-2.17l0.75,0.01l0.68-1.64
		l3.029-0.3l1.27,0.98l-0.34-1.42l1.42,0.27l2.34-2.72l-0.1-3.81l0.6-1.28l2.461-0.82l-0.061-0.38L609.83,84.73z"/>
	<path id="DZ-05" fill="#1E3250" stroke="#1E3250" stroke-width="0.5" d="M564.07,110.15l2.029,0.67l1.521-3.16l-0.371-1.84
		l1.801-0.78l0.779-1.13l1.42,0.21l0.51-1.26l4.121,1.87l1.039-0.97l1.141,0.49l1.52-2.33l-0.391-0.84l-1.93-0.11l-0.039-1.28
		l1.699-1.81l1.031-0.37l-0.041-0.58l2.24-0.5l1.98,1.72l1.24,1.96l1.75,0.91L587.1,99.8l-0.719-0.93l1.799-0.98l0,0l0.92-0.67
		l0.361,0.73l0.689-0.35l5.09,1.02l0.369-0.4l0,0l4.352,2.54l1.559-0.96l0.49-1.12l0.871-0.21l0.469,1.11l4.42,0.64l0.111,0.77
		l-0.83,0.88l0.949,0.7l-0.869,0.67l0.6,0.97l3.439-1.79l1.52-0.23l2.811,1.42l3.65,4.56l0,0h-0.449l-0.021,2.49l1.211,2.7
		l-1.23,2.7l-1.65,0.99l-2.789-0.08l-2.76,2.29l0.17,1.81l0.83,0.77l-0.711,1.7l0.291,0.9l0.229,0.47l1.051-0.38l0.609,0.38
		l-1.059,0.62l0.119,0.78l-2.15,1.02l0.131,1.41l-0.24-0.37l-0.211,0.42l0.682,1.54l-0.131,1.79l-0.49,0.78l-1.4,0.149l-0.58,1.561
		l0.691,2.479l-0.781,1.5l1.441,0.32l1.158,3.29l1.111,0.89l-0.951,1.01l1.121,0.341l-0.051,0.58l-1.52,1.369l0.141,2.011
		l0.85,1.909l0,0l-0.721,0.771l-1.18-0.19l-4.289-3.729l0.1-2.53l0.859-2.03l-0.959-0.77l0.119-0.97l0.439-1.261l1.051-0.72
		l-1.32-1.06l-0.539-1.71l-0.592-0.23l-0.379,0.88l-1.17,0.05l-1.291,0.94l-2.299-0.4l-0.51,0.671l-0.93,0.06l-0.98,0.979l0.219,1
		l-0.58,0.591l-1.029-0.78l-0.83,0.6l-2.119-1.439l0.41-1.931l-1.83-0.77l-1.59,0.85l-0.691,2.03l-2,2.11l-0.109-1.23l-1.541-2.03
		l-1.398,0.33l0.039-0.83l0.68,0.261l0.461-0.471l0.41-1.479l-0.67-0.24l0.34-0.91l-0.381-0.779l-1-0.62l1.68-0.811l2.521-2.89
		l-1.17-0.54l-1.361,0.26l-0.52,0.67l-1.58-1.7l-3.74-2l-5.189,2.81l-1.41,1.32l-2.5,0.239l-1.51-0.64l0.529,1.74l2.621,0.59
		l1.129,1.81l-0.35,1.681l-2.561,0.699l-0.729,0.921l-3.33-0.65l-3.791,0.63l-0.641,1.98l-1.01,0.119l-2.689-1.369l-1.859,0.8
		l-1.121-1.13l-0.15-0.9l-3.6-1.85l-1.08,0.59l0,0l-0.779-0.37l0.18-0.87l-3.18-1.4l-5.301-0.239l-0.33-1.11l2.211-2.07l0.939,0.36
		l1.74-2.76l0.811-4.6l-1.291-8.04l1.271,0.89l0.93,1.66l1.26,0.63l1.82-2.69l0.09,1.43l1.549-1.63l1.771,0.44l0.17-0.36l1.25,1.98
		l1.76-1.49l0.619,0.39l0.971-0.46l0.789-1.57l2.9-1.8L564.07,110.15z"/>
	<path id="DZ-06" fill="#1E3250" stroke="#1E3250" stroke-width="0.5" d="M541.859,50.29l4.91,2.15l1.311-0.03l1.631,1.62
		l1.979,0.45l0.08,0.69l3.432,0.77l-0.021,0.86l-1.029,0.69l0.15,1.59l3.35,2.22l3.869,1.28l5.98-0.81l0,0l-0.061,0.51l0.57-0.021
		l-0.539,1.93l1.199-0.16l0.48,0.57l0,0l0.48,1.16l-0.701,0.45l-0.199,1.09l-2.4,1.47l-0.811-0.44l-1.229,0.81l0.42,1.27
		l-2.041,2.88l-0.459-0.25l0.85,1l-0.051,0.73l-0.859-0.35l-0.961,1.09h-0.77l-0.17-0.55l-0.43,0.67l-1.23,0.13l0.1-1.71
		l-1.059,0.33l0.77-3.37l-0.74-0.45l0.15-1.12l1.02-1.25L556.68,66l-1.74-0.62l-0.09,0.82l-0.639-0.19l-0.021-0.6L553.15,66
		l0.43,0.66l-0.449,1.39l-0.951,0.46l-0.061-0.67l-1.359,0.02l-0.65,0.86l-2.17-0.39l-0.32-0.86l-1.979-0.02l0.359,0.9l-0.779,0.47
		l0.52,0.18l-0.26,0.94l-3.01,1l-1.67,1.54l0,0l-0.67,2.05l-2.021,1.25l-1.719,0.35l-0.66,3l0.23,0.78l0.789,0.29l-0.539,0.5
		l-1.631-0.11l-0.539,0.57l-1.25-0.04l0.189,0.77l-4.461,0.65l-1.119-1.45l-0.23-1.7l0,0l-0.15-0.64l0.58-0.45l-0.799-0.45
		l-0.541-1.4l1.381-0.87l-0.471-0.45l0.49-0.26l0.311-1.67l-0.061-0.92l-0.85-0.4l-0.281-1.14l0,0l3.33-1.45l0.461-1.42l1.82-0.85
		l1.83-2.14l-0.721-1.23l1.029-0.62l0.262-1.17l1.09-1.06l-0.17-0.62l-3.061-1.2l0.299-1.18l2.281-0.61l1.27,1.02l1.27-1.17
		l-0.52-1.22l0.449-1.25l-1.02-0.44l0.031-0.9l-1.182-0.8l-0.33-1.52l0,0l4.592,0.17L541.859,50.29z"/>
	<path id="DZ-07" fill="#1E3250" stroke="#1E3250" stroke-width="0.5" d="M550.6,135.7l1.08-0.59l3.6,1.85l0.15,0.9l1.121,1.13
		l1.859-0.8l2.689,1.369l1.01-0.119l0.641-1.98l3.791-0.63l3.33,0.65l0.729-0.921l2.561-0.699l0.35-1.681l-1.129-1.81l-2.621-0.59
		l-0.529-1.74l1.51,0.64l2.5-0.239l1.41-1.32l5.189-2.81l3.74,2l1.58,1.7l0.52-0.67l1.361-0.26l1.17,0.54l-2.521,2.89l-1.68,0.811
		l1,0.62l0.381,0.779l-0.34,0.91l0.67,0.24l-0.41,1.479l-0.461,0.471l-0.68-0.261l-0.039,0.83l1.398-0.33l1.541,2.03l0.109,1.23
		l2-2.11l0.691-2.03l1.59-0.85l1.83,0.77l-0.41,1.931L595,140.47l0.83-0.6l1.029,0.78l0.58-0.591l-0.219-1l0.98-0.979l0.93-0.06
		l0.51-0.671l2.299,0.4l1.291-0.94l1.17-0.05l0.379-0.88l0.592,0.23l0.539,1.71l1.32,1.06l-1.051,0.72l-0.439,1.261l-0.119,0.97
		l0.959,0.77l-0.859,2.03l-0.1,2.53l4.289,3.729l1.18,0.19l0.721-0.771l0,0l2-1l1.459-3.05l2.061-0.02l-0.76,0.819l1.1,0.65
		l0.711,1.33l-0.82,1.77l1.5-0.289l-0.77,3.329l-0.721,0.921l0.289,5.199l-2.299,4.7l1.02,2.22l-0.23,1.28l0,0l-3.27,3.82
		l-1.85,0.91l-1.5-0.101l-2.17-2.49l-3.24-1.079l0,0l-1.09-0.08l-1.18-1.051l0,0l-4.65-1.869l-9.641,2l-21.369-3l-4.041-2.86
		l-2.02,1.07l1.26,1.17l-3.469,2.29l2.09,2.5l-1.361,3.29l2.82,2.069l3.59,3.971l-1.279,4.43l-2.5,3.88l-0.4,3.67l-1.35,3.45
		l1.82,3.79l0.57,4.37l-0.191,3.91l1.141,2.869l0.09,1.141l-1.359,1.89l0,0l0,0l0,0l-1.131,3.391l-0.59-0.12l-1.48-1.24l-1.049-1.92
		l-2.631-1.431l-0.119-0.789l-1.521-1.061l0,0l-0.119-3.4l0.98-1.539L548.59,202l-1.539,0.04l-1.24-2.22l-3.52,0.489l-0.65-1.71
		l-2.01-0.619l-2.021,0.14l-1.77-0.79l-1.869-2.67l-6.01-2.24l-1.76-1.72l-3.871-1.37l-0.789-1.26l0.738-0.92l1.092,0.359
		l1.309-0.529l2.531-2.591l1.479,0.391l0.66-0.34l-0.99-1.33l-2.51-0.08l-1.689-0.721l-0.32-1.42l0.49-0.569l-0.811-0.7l-1.66-0.86
		l-1.709,0.311l-1.641-2.08l1.111-0.88l-0.291-0.34l0,0l0.529-0.83l0.971,0.54l0.551-0.7l1.549,0.13l0.271-1.17l1.158-0.61
		l-2.629-1.939l-0.59,0.189l0.57-1.29l-0.66-0.01l-0.141-1.1l-0.439-0.11l0.42-0.4l-1.32-0.71l-0.631-5.56l-0.93-0.561l4.01-3.229
		l0.441-0.95l-0.42-0.13l1.629-2.17l0.781,0.649l0.699-0.43l1.33,0.41l5.869-0.52l2.701-0.921l0.65-1.06l1.17,0.84l0.189-0.81
		l1.67-0.13l-2.291-2.021l1.281-0.83l0.529,0.561l1.77-2.67l1.91-0.73l1.48,0.07l1.471-0.811l1.35,0.21l1.27-0.899l2.42-0.53
		l1.041-0.91l0.279-1.92l0.971-0.09l-0.971-0.58l0.471-1.74l-0.49-4.39L550.6,135.7z"/>
	<path id="DZ-08" fill="#1E3250" stroke="#1E3250" stroke-width="0.5" d="M315.91,258.22l0.27-0.02l0,0l-0.15,2.93l0.53,1.28
		l2.52,0.16l-0.84,5.069l2.44,0.021l0.58,2.74l10.16-5.681l12.02,3.141l3.14-2.4l4.27,0.84l2.81-4.27l0,0l0.07,2.72l-1.77,3.44
		l0.13,1.59l-2.13-1.08l-1.54,0.31l-1.92,1.471l0.09,0.659l-1.48,2.19l0.28,0.67l-0.67,0.41l-0.52,2.52l0.4,4.82l0.51,0.42
		l0.75,3.57l-1.2,0.13l0.34,1.689l-0.75,0.051l0.18,1.1l-0.46,0.35l1.25,0.83l0.46,1.221l-0.98,1.189l-0.93-0.22l-0.23,1.18
		l1.08,2.351l1.16,1.14l-0.85,1.66l-0.89,0.479l0.12,3.261l0.88,0.77l0.66,2.39l2.39,1.37l2.77,2.65l-1.56,4.59l0.21,0.63
		l24.68,20.391l0,0l-14.74,16.979l-6.68,12.03L335.42,376.6l-2.46,9.061l1.97,11.64l-0.95,4.681l-9.78,8.63l-19.1,1.22l-22.33,6.72
		l-11.21,16.26l-10.81,8.73l-2.15,3.97l0.09,1.17l-0.65,1.341l-9.93,13.109l0.36,0.97l-0.88,1.591l-4.47,15.55l2.04,2.03l0,0
		l-22.38-1.921l-5.22-3.85l-10.37-11.52l-0.73-12.891l-12.51-20.939l-11.67-35.61l-10.24-4.91l-14.43,0.2l-8.94-6.67l0,0l6.69-9.66
		l-0.09-2.36l1.6-2.68l13.39-10.7l12.62-6.27l10.97-10.891l6.69-2.5l5.78-0.34l5.82-1.55l7.79-3.32l0.96-1.369l-0.48-1.431
		l-1.15-0.13l-0.24-1.35l0.55-2.13l0.66-0.931l0.66,0.11l1.55-3.04l0.59,0.22l0.1-0.859l0.64-0.301l-0.05-3.71l-0.5-0.08l0.1-1.05
		l-0.83,0.931l-0.7-0.681l-0.91-2.72l-0.8,0.36l-0.07-1.351l-0.5,0.33l0.58,1.54l-1.08-0.13l-0.06,0.55l0.86,0.37l-1.37-0.21
		l0.31-2.88l-1.17-1.101l-0.32,0.96l-0.9,0.37l0.13,1.29l-1.61-0.12l-0.16-1.239l0.67-1.44l-0.5-1.92l-0.71-0.59l1.23-1.21
		l0.07-0.84l-0.49,0.18l-0.61-0.65l0.88-0.8l0.51-2.25l1.02,0.851l0.42-0.891l1.24-0.39l0.25-0.65l0.46,0.32l0.53-0.71l-0.68-0.34
		V293.4l31.89-7.391l0.07-0.68l-0.86-0.99l-0.01-2.13l-3.32-6.65l0.92-3.979l12.12,0.29l2.04-1.46l3.18-0.65l6.15,0.15l0.99-0.55
		l4.06,1.17l6.01-1.78l1.77,1.12l1.6,0.28l0.24-0.511h0.86l0.92,0.7l1.85,0.04l9.41,2.42l2.9-0.529l10.07,1.199l3.26-1.51l0.03-0.8
		l-1.03-1.58l-1.17-0.51l-2.89,0.71l-0.48-0.36l2.23-1.74l0.25-4.72l-0.53-0.76l1.03-0.8l0.53-2.13l1.24-0.931L315.91,258.22z"/>
	<path id="DZ-09" fill="#1E3250" stroke="#1E3250" stroke-width="0.5" d="M467.28,62.25l2.851,0.59l-0.271,0.56l1.681,1.09h0.8
		l0.38-0.65l0.25,1.03l0.64-0.28l0.57,0.65l1.48-1.05l0.159-0.68l1.131-0.21l-0.221,1.99l1.25-0.78l0.8,0.66l0.801-1.07l-0.301-0.74
		l0.971-0.7l-0.13-0.8l1.109,0.58l1.061-0.68l0.17-0.82l0.649,0.1l0,0l1.36,2.43l0.52-0.8l1.11,0.18l-0.99,0.87l0.32,1.35
		l0.521,0.23l-0.721,0.75l1.07,0.52l0,0l-0.46,0.44l0.35,0.68l-0.37,1.22l0,0l-0.67,0.17l0.261,0.43l-0.49,0.37l-2.99-0.53
		l-0.7,1.25l0.521,1.28l-0.86,0.24l-0.24,1.28l-1.05,0.58l-1.26-1.3l-1.36,1.08v-1.21l-0.85-0.56l0.45,0.61l-0.13,1.89l-1.61,1.76
		l-2.72-0.05l-0.41-0.73l0.33-0.67l-0.67-0.59l0.39-0.01l-0.06-0.7l-0.78-0.07l-2.9,2.13l-2.12-0.62l-3.18,0.19l-2.79,1.98l0,0
		l-0.31-0.7l-2.051-0.33l-0.21-0.4l0.74-0.72l-1.97-0.28l-0.53-1.45l-1.13-0.03l0,0l1.79-1.33l-0.5-0.48l0.63-0.86l0.54,0.49
		l1.09-0.38l1.25,0.46l0.83-1.17l-0.8-1.48l1.95-0.24l0.41-1.01l2.51-2.12l0.479,0.53l1.4-0.68l0.05-0.51l1.39-0.03l0.601-1.08
		L467.28,62.25z"/>
	<path id="DZ-10" fill="#1E3250" stroke="#1E3250" stroke-width="0.5" d="M486.3,66.57l1.689-0.48l2.15,0.75l0.26-0.79l2.271-0.49
		l0.89-1.79l4.49,1.25l4.18,0.19l0,0l0.3,1.05l1.301,1.25l1.439-0.05l0.42,1.55l1.101,0.76l0.14,0.73l2.44,0.65l9.02-0.59
		l1.369,0.49l1.871-0.95l0.49,0.99l3.369-0.43l0.32-0.52l0.93,0.56l0,0l0.289,1.14l0.852,0.4l0.049,0.92l-0.299,1.67l-0.5,0.26
		l0.469,0.46l-1.379,0.86l0.539,1.4l0.801,0.45l-0.58,0.45l0.15,0.64l0,0l-0.66,0.18L525.65,81l-2.49-0.22l-1.391,1.44l-0.109,0.8
		l-3.16,1.51l0.621,0.34l-1.102,4.09l-2.68,1.95l0,0l-1,4.13l-1.049,1.8l0.83,1.5l-0.07,1.04l-4.611-1.71l-2.35,2.17l-0.83-0.75
		l-0.64,0.64l-0.851-0.75l0.25-1.09l-1.95-0.44l-1.17-1.71l-2.8-0.33l-0.43,1.45l-0.57,0.01l0,0l-1.13-1.66l0.15-0.63l-0.94-0.61
		l-0.58-1.98l-3.61-1.18l-1.47,0.31l-0.859-1.44l1.859,0.05l1.67-1.68l0.761-0.88l-0.391-1.32l-0.78-0.61l0.431-1.54l2.63-0.73
		l0.36-1.48l-0.73-1.5l-1.2-0.32l0.75-0.36l0.09-1.95l1.98-1.07l-1.79-2.58l0.83-1.24l-0.851,0.03l-1.63-1.37l-0.96,0.48l0.28,0.56
		l-1.08,0.31l-0.31,0.8l-0.74-0.03l-0.09,0.56l-1.25-1.49l-0.62-0.03l-0.67-1.87l-0.5,0.1l-1.891-1.61l0,0l0.37-1.22l-0.35-0.68
		L486.3,66.57z"/>
	<path id="DZ-11" fill="#1E3250" stroke="#1E3250" stroke-width="0.5" d="M578.791,376.59l0.27,57.851l-3.471,14.069l5.311,29.88
		l-0.43,14.65l20.559,19.53l-0.238,0.91l0.809,2.31l-3.09,3.14l-1.76,0.601l-0.24,1.18l-0.809,0.54l0.539,1.271l-1.439,2.05
		l1.869,2.66l2.051,1.229l0.629-0.62l1.021,0.53l0.158,1.68l0.852,0.07l0.119,1.02l1.51,0.891l8.871,25.689l-0.09,1.46l2.77,2.66
		l4.949,7.45l2.611,7.36l5.619,10.529l1.41,1.811l3.08,1.97l7.34,0.57l8.551,13.6l-0.691,6.17l0.84,17.931l8.07,20.52l-3.379,3.46
		l9.75,7.62l28.148-5.22l21.82-14.33l22.641,0.13l2.58,1.82l3.59,0.159l2.58,2.431l2.109,0.59l6.951,4.68l-1.191,33.24l0,0
		L644.83,753.05l-10.93,9.09l-51.49,47.92l-95.19,19.271l-7.91-6.2l-0.77-1.82l0.05-0.84l3.27-3.6l-0.12-1.1l0.74-1.58l2.34-2.41
		l-0.069-1.09l-1.33-2.301l0.58-1.54l-1.5-2.46l0.89-2.72l-0.83-1.439l0.73-5.82l-2.45-0.55l-7.79-4.561l-5.85-0.8l-4.07-1.39
		l-4.87-0.011l-2.47-0.79l-1.761-1.489l-2.34-0.11l0,0l2.69-1.229l0.87,0.109l-0.761-4.56l-4.869-11.82l-3.53-5.18l-0.521-4.721
		l0.61-5l-2.62-9.31l-3.939-8.07l-3.4-4.35l-6.29-5.54l-2.42-11.61l-2.68-0.64l-4.4-0.11l-6.66,1.091l0.4-90.79l0.38,0.119
		l0.07-1.199l-0.54-63.091L399.8,538.73l-4.57-10.021l12.42-12.87l1.98-4.09l2.69-1.31l1.71-0.051l1.4,0.58l0.08,0.771l1.48,0.33
		l0.57-0.73l0.87,0.05l0.24,1.381l0.57-0.841l2.73-1.01l0.62-0.96v-7.03l0.78-7.85l4.319-10.81l-3.109-4.681l-0.08-10.47l3.14-5.35
		l1.39-17.051l5.381-8.529l1.899-5.96l0.391-10.681l1-7.359l0,0l17.56-6.41l19.07-1.48l0,0l29.54,24.59l-0.271,0.7l17.25-13.08
		L578.791,376.59z"/>
	<path id="DZ-12" fill="#1E3250" stroke="#1E3250" stroke-width="0.5" d="M655.34,97.71l0.84-2.45v0.46l1.1,0.44l0.301-0.56
		l1.01,1.82l2.301,1.08l0.699-0.76l0.971,0.29l1.43-2.16l1.301,0.1l0.01-0.84l1.029-0.47l0.17-0.67l2.08-0.01l0.199,0.42l1.932-1.38
		l2.629,0.28l0.111-0.69l2.889,2.16l0.971,0.03l0,0l-1.051,0.9l-0.289,1.38l0.58,0.23l-0.42,0.58l0.66-0.01l-0.471,7.58l1.6,1.81
		l1.83,0.91l0.211,6.91l1.01,1.83l-0.09,0.88l-1.271,0.28l-1.35,2.18l0.531,0.36l-0.58,1.4l-0.102,2.96l0.811,1.56l2.801,1.58
		l2.75,0.28l-2.111,2.86l-0.789,2.32l-1.73,1.44l-1.57,4.18l-0.01,2.859l-0.629-0.079l-1.98,1.39l1.459,5.29l-0.148,1.51l1.479,1.86
		l-0.959,0.09l-1.17,1.93l-0.93,0.19l0.08,0.83l1.479,0.67l-1.5,1.09l0.32,0.8l-1.449,0.45l-0.34,0.72l0.68,0.53l-1.98,0.11
		l-0.18,1.06l-1.971,1.84l-1.189-0.16l-2.811,2.681l-2.209,0.5l-0.859,1.21l-2.83,0.63l-0.051,2.28l-1.66,5.279l0,0l-14.779-1.47
		l-7.531-3.03l0,0l0.57-4.83l1.24-4.239l4.131-6.92l0.189-3.061l-1.07-1.78l1.52-3.55l-1.359-4.39l-0.85,0.39l-1.441-0.67
		l-1.279,1.7l-0.91,2.399l0.27,0.591l0.65-0.811l-0.289,2.851l-1.471-3.891l0.66-2.64l0.811-1.32l0.779-0.29l0.561-2.14l2.43-1.37
		l2.801-4.29l-1.781-2.91l-0.02-0.77l1.551-1.31l-1.33-1.11l0.59-2.88l-0.67-0.79l0.08-0.77l5.779-1.79l0,0l1.15-0.15l3.26-3.47
		l0.4-1.44l4.209-2.09l0.861,0.66l1.439-1.16l0.99,0.01l-1.32-1.94l-0.82-3.02l-0.15-2l1.24-0.18l0.23-1l-1.381-0.05l-1.5-1.45
		l0.201-1.11l-0.971-2.8L655.34,97.71z"/>
	<path id="DZ-13" fill="#1E3250" stroke="#1E3250" stroke-width="0.5" d="M298.56,128.57l1.57,1.09l-0.32,1.74l0.94,0.02l1,1.14
		l1.95-0.529l1.6-2.46l0.35,0.399l1.5-0.17l0.34,0.601l1.58-0.08l0.51,0.58l0.25-0.63l1.69-0.24l0.71,1.38l0.59-0.61l1.89,1.58
		l1.48-0.04l1.02,1.13l2,0.36l0.51,1.64l1.24-0.149l0,0l2.07,0.97l0.33,0.78l1.16,0.1l-0.85,2.49l-1.45,1.41l1.06,1.739l-0.07,1.551
		l0.95-0.561l1.2,0.601l-1.41,2.08l1.59-0.91l0.53,0.43l-0.66,5.79l4.28-0.58l0.53,1.8l-0.53-0.59l-0.38,0.58l0.46,1.19l-2.22,5.01
		l-2.86,1.77l1.73,0.32l0.68,1.41l-3.9,4.14l-3.07,1.66l-3.77,4.56l0,0l-2.73,0.931l-0.76,1.689l-1.38,0.891l-2.24-0.54l-6.73,0.729
		l-6.35,4.87l0,0l-2.33-6.68l0.29-3.26l-2.95-3.801l3.69-4.72l-2.34-0.979l-2.59-4.221l-1.4-0.529l2.93-3.811l0.14-1.18l1.28-0.92
		l-2.68-1.431l0.07-0.54l-0.55,0.221l-2.58-1.19l-0.21-1.59l-2.97-1.65l-0.13-2.689l-2.67,0.399l-3.19-3.239l-1.67-0.65l-1.77-1.72
		l0.13-1.73l2.09-0.819l1.52,0.31l1.06,0.97l2.6-0.25l0.56,0.41l4.64-0.92l3.09-1.97l1.17,0.63l2.73-2.79l1.74,0.12l0.79-1.74
		L298.56,128.57z"/>
	<path id="DZ-14" fill="#1E3250" stroke="#1E3250" stroke-width="0.5" d="M407.66,107.54l1.24,2.65l1.22,0.38l0.84-0.86l-0.4-0.62
		l0.61-0.89l-0.49-0.36l0.5-1.46l2.32,1.69l0.98-0.55l0.12,0.83l1.44-0.08l0.8,0.54l0.22,2.68l0.62,0.34l1.13-0.16l0.29-0.65
		l1.01,0.37l0.25-0.35l0.44,1.59l1.38,1.52l1.79,0.45l0.57-0.53l-0.23-1.4l1.32,0.65l0.43,1.12l0.62-0.76l5.16,0.19l3.03-0.67
		l0.729-1.36l1.811-0.6l-0.07,0.72l-0.95,0.5l0.4,0.44l2.42-0.31l-0.061,1.74l0,0l-2.42,0.46l0.4,2.54l9.43,6.55l2.37,1.21
		l0.48-0.24l1.89,3.35l1.86-1.79l0.68,0.02l0.71-1.43l0.77,0.2l0.881-1.14l1.899,1.46l-0.229,1.09l1.199,1.25l1.54,0.72l1.24-0.23
		l-0.67,1.9l0.63,0.86l-1.229,0.46l-2.07,4.06l2.57,2.34l-1.9,1.34l-2.18-0.05l-1.78,0.971l-0.83,4.71l-1.84,3.699l-2.66,0.811
		l0.28,4.39l0,0l-5.45,0.641l-0.79,1.88l-3.58,1.58l-3.29,2.71l-0.95,1.899l-6.75,1.771l-2.04,1.37l-3.31,3.75l-0.66,4.39
		l-2.95,1.75l-0.49-2.04l-3.86,3.01l-2.92,1l1.01,2.38l0.45,0.03l-3.94,2.63l0,0l-2.01-2.83l-0.58-1.87l0.18-1.43l-9.95,0.57
		l1.17-8.78l-7.16-1.45l0,0l2.95-5.25l-5.37-2.18l-0.58-0.95l1.36-0.97l-0.83-2.12l-1.91,0.84l-3.16-5.51l0.1-2.25l0.57-0.84
		l-1.02-1.66l2.83-1.601l2.85-2.649l-2.91-4.38l-2.56-1.13l-0.52-1.79l-5.97,0.76l0,0l1.92-3.23l1.56-0.619l1.23-1.4l-0.66-0.86
		l0.2-0.86l1.32-0.6l-0.48-0.13l0.46-0.47l-0.52-0.31l1.33-1.06l1.97-0.31l2.77,1.41l0.12-0.71l0.92,0.73l0.97-0.67l0.22-1.34
		l1.15-0.75l0.19-1.75l0.7,0.11l0.55-0.63l-1.04-1.67l-1.53-0.55l-0.16-0.58l0,0l0.3-0.57l1.34,0.23l1.31-3.45l0.71-0.06l-0.09-0.66
		h1.1l0.08-1.09l2.21-0.19l0.2-1.58l1.48,0.19l0.29-1.66l0.88,0.38l1.38-0.39l0.02,0.63l1.47-0.26l1.02-1.8l1.18,0.06l0.32-0.91
		L407.66,107.54z"/>
	<path id="DZ-15" fill="#1E3250" stroke="#1E3250" stroke-width="0.5" d="M529.359,49.58l2.951,1.22l2.869,0.08l0,0l0.33,1.52
		l1.18,0.8l-0.029,0.9l1.01,0.44l-0.449,1.24l0.52,1.23l-1.27,1.17l-1.27-1.02l-2.281,0.61l-0.299,1.18l3.059,1.2l0.17,0.61
		l-1.09,1.06l-0.26,1.17l-1.029,0.63l0.719,1.23l-1.83,2.14l-1.818,0.84l-0.461,1.42l-3.34,1.45l0,0l-0.93-0.56l-0.32,0.52
		l-3.369,0.43l-0.49-0.99l-1.871,0.95l-1.369-0.49l-9.02,0.59l-2.44-0.65l-0.14-0.73l-1.101-0.76l-0.42-1.55l-1.439,0.05
		l-1.301-1.25l-0.3-1.05l0,0l0.48-1.04l-0.83-2.09l2.12,0.1l0.5-0.64l0.18,0.87l1.36,0.25l-0.271-2.38l2.49,0.62l-1.39-1.61
		l0.76-2.65l1.02-0.47l0.891,0.94l0.35-1.11l1.74-0.11l0.109-1.44l1.42-0.59l0.109-0.81l1.01-0.69l-0.199-2.29l0,0l2.961,0.49
		l1.879-0.86l1.871,0.75l3.33-0.77l0.469,0.61l2.93,0.25l1.182-0.14L529.359,49.58z"/>
	<path id="DZ-16" fill="#1E3250" stroke="#1E3250" stroke-width="0.5" d="M474.88,53.87l2.229,1.5l-0.35,1.03l0.75,0.82l1.5,0.37
		l2.17-0.13l1.75-0.97l0.55-1.24l-0.229-1.14l5.13,1.62l0,0l-0.51,1.12l1.22-0.38l0.03,1.88l-2.521,0.37l-1.7,0.94l-0.67-1.02
		l-0.529,0.11l0.59,0.13l0.109,1.17l-1.279,0.99l0,0l-0.65-0.1l-0.17,0.82l-1.061,0.68l-1.119-0.57l0.13,0.8l-0.971,0.69l0.29,0.74
		l-0.79,1.08l-0.8-0.66l-1.25,0.77l0.221-1.99l-1.131,0.22l-0.16,0.68l-1.479,1.05l-0.57-0.65l-0.64,0.28l-0.25-1.03l-0.38,0.65
		l-0.8-0.01l-1.67-1.08l0.26-0.56l-2.851-0.59l0,0l-0.409-0.49l0.92-0.55l-0.761-0.42l0.03-1.21l0,0l1.35-1.79l-0.199-1.18l1.66-0.3
		l0.699-1.06l-0.18-0.68L474.88,53.87z"/>
	<path id="DZ-17" fill="#1E3250" stroke="#1E3250" stroke-width="0.5" d="M445.89,113.78l1.17,4.3l3.891-0.28l4.079-2.03l0.431,0.58
		l0.43-1.01l0.71,1.25l2.79,2l1.38,0.26l2.36-1.18l1.49-3.01l1.47-1.63l1.14-0.17l2.221-2.28l1.05,0.48l-0.41-0.71l0.71-0.56
		l-0.61-0.68l0.48-2.07l-0.76-0.74l0.02-2.97l-0.57-1.4l1.311-0.43l0.08,0.39l1.29,0.02l2.05-1.22l0.8,1.16l0.44,3.15l1.25-0.28
		l-0.36,1.66l0.65,2.35l2.949-0.71l-0.279-0.44l1.899,0.34l0.53-0.41l1.4-2.48l-0.16-2.2l1.91-1.83l0.239,1.73l1.28,1.42l1.98-0.06
		l0,0l0.54,2.3l3.42,3.61l7.76,5.81l0.72,1.25l-0.49,2.16l0.301,1.06l-1.591,1.12l0.71,3.54l-7.869,6.42l2.189,4.34l-0.22,1.359
		l1.63-0.029l1.72-1.25l-0.96,2.779l-0.99,0.101l0.7,0.68l0.03,1.311l0.5-0.24l-0.64,2.22l0.819,2.101l-0.64,1.05l2.53,0.62
		l-0.5,0.51l1.04,2.05l-0.44-0.189l0.1,0.619l2.561-0.819l0.74,0.83l6.29,1.05l0.35,4.88l0.8,2.81l-0.609,3.67l3.239,3.631
		l-0.63,3.739l1.221,1.37l1.939,0.5l0.209,0.84l1.971,1.301l0.23,1.42l0.729,0.05l0.621,1.31l0.68-0.199l0,0l0.291,0.34l-1.111,0.88
		l1.641,2.08l1.709-0.311l1.66,0.86l0.811,0.7l-0.49,0.569l0.32,1.42l1.689,0.721l2.51,0.08l0.99,1.33l-0.66,0.34l-1.479-0.391
		l-2.531,2.591l-1.309,0.529l-1.092-0.359l-0.738,0.92l0.789,1.26l3.871,1.37l1.76,1.72l6.01,2.24l1.869,2.67l1.77,0.79l2.021-0.14
		l2.01,0.619l0.65,1.71l3.52-0.489l1.24,2.22l1.539-0.04l5.551,2.021l-0.98,1.539l0.119,3.4l0,0l-4.559,9.021l0.359,4.39l3,16.03
		l0,0l-20.9-6.25l0,0l-2.35-3.391l-0.17-1.47l-2.07-2.05l-0.859-2.76l-6.99-7.12l-2.609-1.95l-14.391-5.72l-2.439-4.2l-1.43-0.5
		l-0.73-1.521l-4.86-4.5l-5.649-2.21l-3.69-0.609l-2.79-5.771l-0.43-1.689l0.72-0.471l-2.609-5.739l0.3-2.601l-0.68-1.64l-0.87,0.12
		l-0.271-2.23l-2.26,0.75l0.229-0.77l-2.6-1.4l-2.32,1.46l-1.79,2.62l0.261,0.39l-0.721,1.15l0.48,1.06l-1.24-0.479l-4.07,1.87
		l-0.89-0.61l-1.28,0.01l-1.35-1.97l-0.93-0.37l-1.351-2.47l-0.609-0.14l-1.761-3.65l-0.79,0.15l-2.199-6.48l-0.95-11.41l0,0
		l-0.28-4.39l2.66-0.811l1.84-3.699l0.83-4.71l1.78-0.971l2.18,0.05l1.9-1.34l-2.57-2.34l2.07-4.06l1.229-0.46l-0.63-0.86l0.67-1.9
		l-1.24,0.23l-1.54-0.72l-1.199-1.25l0.229-1.09l-1.899-1.46l-0.881,1.14l-0.77-0.2l-0.71,1.43l-0.68-0.02l-1.86,1.79l-1.89-3.35
		l-0.48,0.24l-2.37-1.21l-9.43-6.55l-0.4-2.54l2.42-0.46l0,0l3.351-0.79L445.89,113.78z"/>
	<path id="DZ-18" fill="#1E3250" stroke="#1E3250" stroke-width="0.5" d="M599.41,48.06l0.801,1.25l-0.602,2.16l2.99,0.77
		l0.311,1.98l-0.42,0.77l1.08,1.37l0.08,2.02l0.971,0.01l0.77,1.41l2.709,0.3l0.91,1.13l-0.609,1.42l-1.541,0.3l0.74,0.59l-0.6,0.98
		l0.23,1l0,0l-0.949,0.26l-1.191-0.92l-2.869-0.43l0.1-0.78l-0.85-0.42l-2.23,0.64l-0.539,1.35l-0.74,0.14l-3.211-0.49l-0.42-0.71
		l-2.379,0.13l-0.461-0.61l-0.881,0.35l-1.51-0.49l-1.27,0.6l0.18,0.92l-1.309,1.46l-2.291-0.03l-0.5,0.75l-2.471-1.41l-1.1-0.07
		l-0.969,0.62l0,0l0,0l0,0l0,0l0,0l-2.301,1.45l-1.02-0.05l-0.291-0.81l-0.949-0.46l-1.881,1.7l-1.789-0.2l-0.551-0.67l0.42-0.98
		l-0.5-1.78h-1.379l0,0l-0.48-0.57l-1.199,0.16l0.539-1.93l-0.57,0.02l0.061-0.51l0,0l4.209-2.23l0.73-0.9l-0.23-0.85l1.672-2.08
		l1.658,0.04l0.721-0.94l0.779,0.19l1.75-1.31l0.521,0.25l-0.051-0.44l2.85,1.05l6.471-1.35l6.561-2.96l2.379-0.54L599.41,48.06z"/>
	<path id="DZ-19" fill="#1E3250" stroke="#1E3250" stroke-width="0.5" d="M569.141,64.6h1.379l0.5,1.78l-0.41,0.98l0.541,0.67
		l1.801,0.2l1.879-1.7l0.939,0.46l0.291,0.8l1.02,0.06l2.301-1.45l0,0l0.979,1.35L580,71.5l0.811,0.88l-0.27,0.29l1.689,0.66
		l0.141,1.77l-0.441,0.69l1.24,0.93l1.291-0.06l-0.25,2.14l0.869,0.55l0.391,1.53l1.389,0.62l1.211,1.78l-0.52-0.21l-1.311,1.1
		l-0.02,3.42l3.1,0.84l-0.311,0.49l0.701,3.34l-1.301,1.06l0.75,0.48l-0.1,1.01l1.391,0.8l-2.24,1.6l-0.031,0.68l0,0l-1.799,0.98
		l0.719,0.93l0.021,1.22l-1.75-0.91l-1.24-1.96l-1.98-1.72l-2.24,0.5l0.041,0.58l-1.031,0.37l-1.699,1.81l0.039,1.28l1.93,0.11
		l0.391,0.84l-1.52,2.33l-1.141-0.49l-1.039,0.97l-4.121-1.87l-0.51,1.26l-1.42-0.21l-0.779,1.13l-1.801,0.78l0.371,1.84
		l-1.521,3.16l-2.029-0.67l0,0l-1.029-0.39l-0.682,0.36l-1.93-0.96l-2.479,0.08l-1.172-1.63l0.08-0.66l0.711-0.3l-0.859-0.97
		l-2.031,0.38l-2.639-1.97l0.75-0.69l-0.41-0.45l0,0l0.049-2.92l2.461,0.13l1.369-0.55l-0.549-0.36l-0.201-1.82h0.57l0.01-1
		l-0.58-0.36l0.48-0.97l-0.471-0.86l0.451-1.37l1.889-1.18l0.871-2.58L557,87.28l0.77-0.98l-0.619-1.73l0.199-1.09l-1.119-0.92
		l-0.631,0.37l-0.379-1.31l-1.141-0.92l0.59-0.32l-0.42,0.13l-0.189-1.17l-0.85-0.37l-0.191-0.78l-0.939,0.12l-1.25-0.85
		l-1.801,1.15l-2.629,0.22l-0.93-0.4l-1.68,0.59l-1.381-1.84l0.699-1.37l-0.059-2.06l-1.111-1.11l-1.17-0.18l0,0l1.67-1.54l3.021-1
		l0.25-0.94l-0.51-0.18l0.77-0.46l-0.361-0.9l1.98,0.03l0.33,0.86l2.17,0.39l0.65-0.86l1.35-0.02l0.061,0.66l0.949-0.46l0.461-1.39
		l-0.43-0.65l1.029-0.59l0.029,0.6l0.641,0.2l0.1-0.83l1.74,0.62l2.15,2.19l-1.02,1.25l-0.16,1.12l0.74,0.45l-0.771,3.36l1.061-0.33
		l-0.1,1.71l1.23-0.13l0.43-0.66l0.18,0.55h0.77l0.961-1.09L563,74.77l0.051-0.73l-0.85-1l0.459,0.25l2.029-2.88l-0.42-1.27
		l1.24-0.81l0.801,0.44l2.41-1.47l0.199-1.09l0.701-0.45L569.141,64.6z"/>
	<path id="DZ-20" fill="#1E3250" stroke="#1E3250" stroke-width="0.5" d="M352.79,134.09l1.78-0.01l0.64-2.18l0.53-0.091l0.68,3.57
		l2.86,0.34l1.81-0.739l0.9,0.979l1.2-0.12l0.28,0.681l1.95-0.2l0.8,0.85l-0.4,0.79l2.15,1.18l4.17-3.04l1.42,1.591l0.78-0.521
		l1.03,0.72l1.61-0.949l1.15-1.82l0,0l5.97-0.76l0.52,1.79l2.56,1.13l2.91,4.38l-2.85,2.649l-2.83,1.601l1.02,1.66l-0.57,0.84
		l-0.1,2.25l3.16,5.51l1.91-0.84l0.83,2.12l-1.36,0.97l0.58,0.95l5.37,2.18l-2.95,5.25l0,0l-5.14-1.29l-5.46,4.34l-2.74,1.37
		l-0.37-1.14l-2.78-2.96l-5.18,3.67l-3.91-0.41l-3.82-3.78l-0.28,0.28l-3.93-1.6l0,0l-0.06-0.851l-2.68-1.81l-3.89,2.31l-0.34-3.88
		l-1.8-1.939l0.42-2.73l2.84,1.84l1.68,0.34l0.34,2.091l0.88,1.29l2.09-2.41l-0.11-0.63l-2.56-5.08l-1.01-0.37l-1.24-1.561l-1.6-0.5
		l0.19-0.979l-0.75-1l-3.21-0.24l0.7-2.17l-1.78-0.55l-0.65-1.04l2.08-1.48l-0.82-0.68l0.63-1.19l-0.85-0.35l0.43-0.41l-0.16-1.13
		l3.27-0.41l-0.37-0.52l0.65-0.99l-0.88-0.58l-0.33-1.09l0.61-1.72l1,0.239l0.36-0.729L352.79,134.09z"/>
	<path id="DZ-21" fill="#1E3250" stroke="#1E3250" stroke-width="0.5" d="M635.951,40.99l2.238,1.14l0.602-0.39l0,0l1.539,1.38
		l-0.551,1.17l1.592,2.95l-0.23,0.97L640,47.92l0.34,1.2l1.961,1.16l-0.24,2.88l1.189,3.39l-0.189,1.84l-2.24,0.8l-0.221,2.04
		l0.48,0.31l0,0l-1.02,0.6l-0.73-0.86l-1.1,1.89l-6.689,2.02l-1.16,1.45v0.85l0.75,0.67l-0.191,0.89l-3.229,1.13l-1.65-0.06
		l-0.58,1.97l0.35,0.86l0,0l-1.109-0.58l-1.18,0.24l-0.682-1.32l-2.078,0.29l0.799-1.82l-0.26-1.86l0.93-0.27l0.93-1.52l-3.42,0.52
		l-2.08-0.67l0.051-0.45l-2.02,0.17v-2.12l-0.57-0.34l-1.061,0.34l-0.9,2.08h-1.24l-0.59-0.69l-2.27,0.31l0,0l-1.789,0.25l0,0
		l-0.23-1l0.6-0.98l-0.74-0.59l1.541-0.3l0.609-1.42l-0.91-1.13l-2.711-0.3l-0.77-1.41l-0.969-0.01l-0.08-2.02l-1.08-1.37l0.42-0.77
		l-0.311-1.98l-2.99-0.77l0.6-2.16l-0.799-1.25l0,0l-0.111-1.25l-0.709-0.72l0.959-2.06l1.9-0.82l0.881-1.22l5.219-0.98l1.41,0.58
		l0.391,1.1l1.131-0.04l-0.342,1.06l1.121,0.21l-0.029,0.94l0.549-0.31l-0.73,0.97l0.26,0.62l0.82,0.52l1.521-0.15l-0.25,0.39
		l0.51,0.5l5.049,0.5l1.211-0.6l0.539,0.45l1.291-0.45L622,48.36l1.311,0.12l-0.031,1.71l2.08,0.65l2.881-0.5l3.15-1.35l1.5,0.66
		l2.67-1.68l1.75-2.28l0.369-1.54l-0.34-0.52l-3.08-2.02l0.371-0.37l0.729,0.41L635.951,40.99z"/>
	<path id="DZ-22" fill="#1E3250" stroke="#1E3250" stroke-width="0.5" d="M339.49,119.12l1.44,0.67l2.01-1.46l0.86,0.31l0.34,0.65
		l-0.5,1.01l0.23,0.79l-0.62,0.53l0.2,1.13l0.75,0.22l0.67-0.51l1.42,0.46l1.34-1.63l0.66,1.14l4.37,0.83l0.6,0.65l-0.66,1.8
		l-1.68,0.6l-0.66,0.92l0.4,1.06l1.86-1.09l0.32-0.79l1.75,0.62l-2.66,1.33l0.37,0.86l-1.03,0.9l0.16,1.189l1.22,0.5l0.14,2.28l0,0
		l-1.02,0.28l-0.36,0.729l-1-0.239l-0.61,1.72l0.33,1.09l0.88,0.58l-0.65,0.99l0.37,0.52l-3.27,0.41l0.16,1.13l-0.43,0.41l0.85,0.35
		l-0.63,1.19l0.82,0.68l-2.08,1.48l0.65,1.04l1.78,0.55l-0.7,2.17l3.21,0.24l0.75,1l-0.19,0.979l1.6,0.5l1.24,1.561l1.01,0.37
		l2.56,5.08l0.11,0.63l-2.09,2.41l-0.88-1.29l-0.34-2.091l-1.68-0.34l-2.84-1.84l-0.42,2.73l1.8,1.939l0.34,3.88l3.89-2.31
		l2.68,1.81l0.06,0.851l0,0l1.52,4.149l0.83,5.73l-0.35,0.92l-1.33,0.34l-2.62,5.54l0,0l-2.46-0.32l-2.91,1.32l-2.77,2.74l-0.9,2.49
		l-0.73-0.511l-0.8,0.46l-0.05,1.771l-0.48,0.26l-0.29-1.24l-0.91-0.54l0.47-1.239l-0.63-0.78l-0.42-2.83l-2.45-4l-0.67-4.82
		l-1.02-1.97l-2.27-0.71l-1.08-1.1l-7.19,4.649l-1.74-0.819l-1.67,0.39l-1.95-1.07l-0.6,0.76l-1.1-1.81l-3.77,2.9l-0.89-1.95
		l-1.11-0.931l0,0l3.77-4.56l3.07-1.67l3.9-4.14l-0.68-1.42l-1.73-0.32l2.86-1.771l2.22-5.01l-0.46-1.189l0.38-0.58l0.53,0.59
		l-0.53-1.8l-4.27,0.569l0.66-5.779l-0.53-0.431l-1.59,0.91l1.41-2.09l-1.2-0.6l-0.96,0.569l0.08-1.55l-1.06-1.74l1.45-1.41
		l0.84-2.489l-1.16-0.101l-0.33-0.77l-2.06-0.98l0,0l1.46-0.89l0.76-2.24l-0.37-0.399l2.49-0.891l0.24-1.01l-0.72-2.51l1.11,0.31
		l0.35-1.59l1.23-1.09l1.28,1.08l1.74-0.86l0.1-1.33l5.13-1l0,0l0.36,1.21l1.24-0.54l0.66-1.02l0.8,0.16l-0.47-1.75L339.49,119.12z"
		/>
	<path id="DZ-23" fill="#1E3250" stroke="#1E3250" stroke-width="0.5" d="M642.359,41.24l0.57,0.24l-0.559,0.78l1.02,1.12l4.01-0.13
		l1.75,2.4l2.43,1.47l1.359-0.86l0.271,0.6l0.6-0.33l0.84,0.46l0.15,0.68l3.32-0.96l-1.201,1.96l0.689,1.29l-0.67,0.93l2.111,1.64
		l0,0l0.609,1.3l-0.68,0.38l-1.42-0.47l-0.18,2.44l-1.721-0.35l-0.32,1.18l-0.549-0.51l-1.01,1.33l0.719,1.41l-1.18,2.61l0,0
		l-1.721,2.38l-0.449-0.58l-0.359,0.49l-1.76-0.16l-0.891-1.25l-1.49,0.33l0.211-1.58l-0.422-0.62l-2.068,0.84l-0.432,1.35
		l-0.729-1.65l-2.131,0.13l0,0l-0.48-0.31l0.221-2.04l2.24-0.8l0.189-1.84l-1.189-3.39l0.24-2.88l-1.961-1.16l-0.34-1.2l1.141,0.29
		l0.23-0.97l-1.59-2.95l0.549-1.17l-1.539-1.38l0,0l0.359-0.39l1.551,0.84L642.359,41.24z"/>
	<path id="DZ-24" fill="#1E3250" stroke="#1E3250" stroke-width="0.5" d="M641.061,61.54l2.129-0.13l0.73,1.65l0.43-1.35l2.08-0.83
		l0.42,0.62l-0.209,1.57l1.49-0.33l0.889,1.25l1.76,0.16l0.352-0.49l0.449,0.58l1.721-2.38l0,0l1.16,0.37l-0.33-0.5l0.92-0.35
		l1.219,0.98l-0.35,0.95l1.15,0.02l1.051,3.83l2.27-0.49l0.32,1.02l-0.01-1.42l0.76,0.81l1.568,0.38l1.4,1.82l-0.6,0.22l0.711,1.45
		l0,0l-2.191,1.16l-1.32,1.49l-1.828-0.85l-0.48,2.4l1.24,1.09l0.609,1.54l-0.73,0.77L657,79.32l-1.24-0.66l-0.639,1.43l-1.381,0.58
		l-0.561-0.26l-1.559,1.86l-2.16-0.6l-4.621,1.49l-5.25-1.23l-1.02,2.42l0.301,1.05l0.988,0.69l0,0l-2.299,0.03l-1.4,3.19
		l-4.221,1.47l-0.979,0.81l-1.811-0.38l0.439-1.74l-2.27-1.11l0.471-2.28l0,0l-0.102-1.05l1.602-0.8l0.33-3.07l-0.91-2.69
		l-1.381,0.07l-0.84-0.57l1.15-1.27l-1.881-1.1l1.02-0.97l-0.979-1.68l0,0l-0.34-0.86l0.58-1.97l1.648,0.06l3.23-1.13l0.189-0.89
		l-0.75-0.67v-0.85l1.16-1.45l6.691-2.03l1.1-1.88l0.74,0.85L641.061,61.54z"/>
	<path id="DZ-25" fill="#1E3250" stroke="#1E3250" stroke-width="0.5" d="M609.02,65.26l2.271-0.31l0.6,0.69h1.24l0.898-2.08
		l1.07-0.34l0.57,0.34l0.01,2.13l2.021-0.18l-0.051,0.46l2.08,0.66l3.43-0.51l-0.93,1.52l-0.93,0.27l0.26,1.85l-0.801,1.83l2.08-0.3
		l0.67,1.32l1.191-0.24l1.1,0.58l0,0l0.979,1.68l-1.02,0.97l1.881,1.1l-1.15,1.27l0.84,0.57l1.381-0.07l0.91,2.69l-0.33,3.07
		l-1.602,0.8l0.102,1.05l0,0l-3.58-0.21l-0.23,0.46l-0.08-0.48l-2.73-0.18l-0.619-1.16l-0.9-0.11l0.029-0.94l-0.859,0.43
		l-0.211-0.46l-0.58,0.52l-0.01,2.1l-4.359,0.25l0.07,1.45l-0.59,0.35l-2.07-1.13l0.881,1.44l-0.711-0.74H610.1l-0.219-1.94
		L609.1,85.5l0.73-0.77l0,0l0.529-0.72l-0.738-0.95l0.539-0.18l-0.039-0.62l-1.291-0.56l-0.359-0.98l-1.891,0.47l-1.02-0.29
		l-0.551-1.64l1.051-0.98l-0.301-0.76l-1.66-0.57l-0.398-1.13l-2.391,0.65l1.83-3.38l-0.51-1.53l0.439-0.9l-0.311-1.3l1.371,0.39
		l1.32-0.74l1.67,0.23l1.75-1.04l-0.32-2.13L609.02,65.26z"/>
	<path id="DZ-26" fill="#1E3250" stroke="#1E3250" stroke-width="0.5" d="M485.82,68.91l1.891,1.61l0.5-0.1l0.67,1.87l0.62,0.03
		l1.25,1.49l0.09-0.56l0.74,0.03l0.31-0.8l1.08-0.31l-0.28-0.56l0.96-0.48l1.63,1.37l0.851-0.03l-0.83,1.24l1.79,2.58l-1.98,1.07
		l-0.09,1.95l-0.75,0.36l1.2,0.32l0.73,1.5l-0.36,1.48l-2.63,0.73l-0.431,1.54l0.78,0.61l0.391,1.32l-0.761,0.88l-1.67,1.68
		l-1.859-0.05l0.859,1.44l1.47-0.31l3.61,1.18l0.58,1.98l0.94,0.61l-0.15,0.63l1.13,1.66l0,0l0.47,1.46l-1.25,0.09l-0.85,1.13
		l0.99,0.69l-1.38-0.06l-1.21,1.33l-1.11-0.08l0.65,0.46l-0.391,1.07l1.271,0.83l-0.471,0.68l0.45,4.73l-3.149-4.53l0.239-0.75
		l-0.64-0.1l-0.14-1.16l-0.99-0.35l-0.15-0.76l-1.63,0.23l0.72,1.42l-0.909,0.89l0,0l-1.98,0.06l-1.28-1.42l-0.239-1.73l-1.91,1.83
		l0.16,2.2l-1.4,2.48l-0.53,0.41l-1.899-0.34l0.279,0.44l-2.949,0.71l-0.65-2.35l0.36-1.66l-1.25,0.28l-0.44-3.15l-0.8-1.16
		l-2.05,1.22l-1.29-0.02l-0.08-0.39l-1.311,0.43l0.57,1.4l-0.02,2.97l0.76,0.74l-0.48,2.07l0.61,0.68l-0.71,0.56l0.41,0.71
		l-1.05-0.48l-2.221,2.28l-1.14,0.17l-1.47,1.63l-1.49,3.01l-2.36,1.18l-1.38-0.26l-2.79-2l-0.71-1.25l-0.43,1.01l-0.431-0.58
		l-4.079,2.03l-3.891,0.28l-1.17-4.3l0,0l0.07-2.2l1.24-1.38l-5.12-1.37l-0.62-2.48l0.93-1.12l1.39-0.07l1.58,0.93l1.08-0.43
		l0.601-1.34l-0.25-1.77l1.18-1.9l0.16-2.11l0,0l0.18-0.81l1.141-0.26l0.609-0.93l0.13-0.82l-0.739-0.79l1.439-0.01l0.38,0.6
		l1.811-0.43l0.649-1.17l-0.38-0.56l0.49-1.29l-0.15-2.05l1.57,0.44l2.64-2.32l0.74,0.31l0.061-1.3l0.569-0.61l-1.03-0.71
		l0.551-0.75l-0.92-0.03l-0.681-0.81l-0.859,0.26l-0.78-1.75l0.64-0.76l-1.29-0.37l1.271-1.75l-0.101-1.75l2.46,0.1l1.4-1.11l0,0
		l2.79-1.98l3.18-0.19l2.12,0.62l2.9-2.13l0.78,0.07l0.06,0.7l-0.39,0.01l0.67,0.59l-0.33,0.67l0.41,0.73l2.72,0.05l1.61-1.76
		l0.13-1.89l-0.45-0.61l0.85,0.56v1.21l1.36-1.08l1.26,1.3l1.05-0.58l0.24-1.28l0.86-0.24l-0.521-1.28l0.7-1.25l2.99,0.53l0.49-0.37
		l-0.261-0.43L485.82,68.91z"/>
	<path id="DZ-27" fill="#1E3250" stroke="#1E3250" stroke-width="0.5" d="M387.86,77.02l-1.82,4.4l0.03,1.64l0,0l-0.13,0.81
		l-1.24,0.7l0.01,1.06l-1.45,0.29l-0.78,1.69l1.19,2.17l1.19,0.28l-1.15,1.29l0.62,0.27l0.05,1.32l-0.88-0.38l-2.51,1.08l-0.49-0.5
		l-1,1.11l-0.11-0.81l-0.86,0.64l-1.28-0.85l-1.53,1.87l0.56-0.11l0.02,1.51l1.23-0.08l-0.37,0.31l0.34,0.62l-1.03,0.9l0.75,0.53
		l-0.33,1.14l-1.93,1.53l0.17,0.52l-0.63,0.58l-1.27-0.67l-1.91,1l-1.51,1.24l0.63,0.9l-1.57,0.08l-0.68,1.6l0,0l-1.63-0.24
		l-1.11,1.78l-0.07-1.39l-0.74,0.76l-1.21-0.41l-0.55-1.52l-1.17-0.32l-0.18-0.73l-1.49,0.31l-1.27,1.1l-1.34-0.27l-1.65-1.11
		l0.1-0.99l-0.84-0.74l0,0l0.06-0.18l0,0l5.34-3.37l4.16-8.58l3.33-3.59l2.64-0.8l1.49-1.25l0.33-1.38l0.65-0.44l4.61-1.48
		l4.44-2.47l2.58-2.23L387.86,77.02z"/>
	<path id="DZ-28" fill="#1E3250" stroke="#1E3250" stroke-width="0.5" d="M515.34,90.91l0.939,0.88l0.061,1.16l1.18,0.12l0.791-0.63
		l-0.15-0.49l2.25-0.32l0.92,0.16l0.84,0.95l0.4-0.35l1.039,0.51l-0.01-0.5l0.281,0.86l1.529,0.28l2.15-0.49l2.529-1.96l1.58-0.08
		l0.311,3.45l1.15,1.66l-2.98,1.07l0.279,0.92l-0.879,0.82l0.119,0.52l-1.01,0.34l0.15,1.2l2.859,0.72l1.359-0.44l0.91,0.37
		l-0.609-1.82l2.449-1.11l-0.75,1.97l0.451,1.11l0.73,0.32l1.26-1.42l1.559-0.42l1.031-0.92l0.969,0.5l1.461-0.87l1.82,0.3
		l0.74-0.77l2.34,3.11l2.129-0.03l0.271,2.23l0.869-0.22l0.08,0.39l1.641-1.04l0,0l0.41,0.45l-0.75,0.69l2.639,1.97l2.031-0.38
		l0.859,0.97l-0.711,0.3l-0.08,0.66l1.172,1.63l2.479-0.08l1.93,0.96l0.682-0.36l1.029,0.39l0,0l-1.32,1.87l-2.9,1.8l-0.789,1.57
		l-0.971,0.46l-0.619-0.39l-1.76,1.49l-1.25-1.98l-0.17,0.36l-1.771-0.44l-1.549,1.63l-0.09-1.43l-1.82,2.69l-1.26-0.63l-0.93-1.66
		l-1.271-0.89l1.291,8.04l-0.811,4.6l-1.74,2.76l-0.939-0.36l-2.211,2.07l0.33,1.11l5.301,0.239l3.18,1.4l-0.18,0.87l0.779,0.37l0,0
		l0.621,0.21l0.49,4.39l-0.471,1.74l0.971,0.58l-0.971,0.09l-0.279,1.92l-1.041,0.91l-2.42,0.53l-1.27,0.899l-1.35-0.21
		l-1.471,0.811l-1.48-0.07l-1.91,0.73l-1.77,2.67l-0.529-0.561l-1.281,0.83l2.291,2.021l-1.67,0.13l-0.189,0.81l-1.17-0.84
		l-0.65,1.06l-2.701,0.921l-5.869,0.52l-1.33-0.41l-0.699,0.43l-0.781-0.649l-1.629,2.17l0.42,0.13l-0.441,0.95l-4.01,3.229
		l0.93,0.561l0.631,5.56l1.32,0.71l-0.42,0.4l0.439,0.11l0.141,1.1l0.66,0.01l-0.57,1.29l0.59-0.189l2.629,1.939l-1.158,0.61
		l-0.271,1.17l-1.549-0.13l-0.551,0.7l-0.971-0.54l-0.529,0.83l0,0l-0.68,0.199l-0.621-1.31l-0.729-0.05l-0.23-1.42l-1.971-1.301
		l-0.209-0.84l-1.939-0.5l-1.221-1.37l0.63-3.739l-3.239-3.631l0.609-3.67l-0.8-2.81l-0.35-4.88l-6.29-1.05l-0.74-0.83l-2.561,0.819
		l-0.1-0.619l0.44,0.189l-1.04-2.05l0.5-0.51l-2.53-0.62l0.64-1.05l-0.819-2.101l0.64-2.22l-0.5,0.24l-0.03-1.311l-0.7-0.68
		l0.99-0.101l0.96-2.779l-1.72,1.25l-1.63,0.029l0.22-1.359l-2.189-4.34l7.869-6.42l-0.71-3.54l1.591-1.12l-0.301-1.06l0.49-2.16
		l-0.72-1.25l-7.76-5.81l-3.42-3.61l-0.54-2.3l0,0l0.909-0.89l-0.72-1.42l1.63-0.23l0.15,0.76l0.99,0.35l0.14,1.16l0.64,0.1
		l-0.239,0.75l3.149,4.53l-0.45-4.73l0.471-0.68l-1.271-0.83l0.391-1.07l-0.65-0.46l1.11,0.08l1.21-1.33l1.38,0.06l-0.99-0.69
		l0.85-1.13l1.25-0.09l-0.47-1.46l0,0l0.57-0.01l0.43-1.45l2.8,0.33l1.17,1.71l1.95,0.44l-0.25,1.09l0.851,0.75l0.64-0.64l0.83,0.75
		l2.35-2.17l4.611,1.71l0.07-1.04l-0.83-1.5l1.049-1.8L515.34,90.91z"/>
	<path id="DZ-29" fill="#1E3250" stroke="#1E3250" stroke-width="0.5" d="M355.04,102.93l0.84,0.74l-0.1,0.99l1.65,1.11l1.34,0.27
		l1.27-1.1l1.49-0.31l0.18,0.73l1.17,0.32l0.55,1.52l1.21,0.41l0.74-0.76l0.07,1.39l1.11-1.78l1.63,0.24l0,0l1.05,0.34l-0.09,1.54
		l1.78,2.13l-0.43,1.84l0.89,0.11l0.14,0.94l1.16,0.26l1.96-1.19l0.24,0.95l1.55-1.13l0.16,0.82l1.25,0.61l0.95,1.83l1.77-0.42
		l1.67,0.31l1.18,0.61l0.5,1.04l3.13-0.18l0.55,1.2l0.65-0.39l3.07,0.95l0,0l0.16,0.58l1.53,0.55l1.04,1.67l-0.55,0.63l-0.7-0.11
		l-0.19,1.75l-1.15,0.75l-0.22,1.34l-0.97,0.67l-0.92-0.73l-0.12,0.71l-2.77-1.41l-1.97,0.31l-1.33,1.06l0.52,0.31l-0.46,0.47
		l0.48,0.13l-1.32,0.6l-0.2,0.86l0.66,0.86l-1.23,1.4l-1.56,0.619l-1.92,3.23l0,0l-1.15,1.82l-1.61,0.949l-1.03-0.72l-0.78,0.521
		l-1.42-1.591l-4.17,3.04l-2.15-1.18l0.4-0.79l-0.8-0.85l-1.95,0.2l-0.28-0.681l-1.2,0.12l-0.9-0.979l-1.81,0.739l-2.86-0.34
		l-0.68-3.57l-0.53,0.091l-0.64,2.18l-1.78,0.01l0,0l-0.14-2.28l-1.22-0.5l-0.16-1.189l1.03-0.9l-0.37-0.86l2.66-1.33l-1.75-0.62
		l-0.32,0.79l-1.86,1.09l-0.4-1.06l0.66-0.92l1.68-0.6l0.66-1.8l-0.6-0.65l-4.37-0.83l-0.66-1.14l-1.34,1.63l-1.42-0.46l-0.67,0.51
		l-0.75-0.22l-0.2-1.13l0.62-0.53l-0.23-0.79l0.5-1.01l-0.34-0.65l-0.86-0.31l-2.01,1.46l-1.44-0.67l0,0l0.55-1.37l1.87-0.19
		l0.02-1.22l-0.72-0.5l1.19-0.92l1.68,0.18l-0.12-1.34l0.99-0.99l-0.45-0.85l4.72-3.91l-1.21,0.01l1.57-2.82l0.88,1.32l0.98,0.22
		l0.18,0.56l0.6-0.15l0.03-0.77l1.56-1.37L355.04,102.93z"/>
	<path id="DZ-30" fill="#1E3250" stroke="#1E3250" stroke-width="0.5" d="M561.801,212.13l30.83,0.45l-0.49-4.83l-2-2.69
		l0.311-1.159l1.469-0.69l-0.469-3.08l0.559-1.49l-0.25-2.119l-1.609-2.601l0.17-2.5l1.23-1.04l0.369,1.641l0.551,0.27l1.48-0.62
		l1.52-2.03l2.01-0.989l1.369-0.15l0.861,1.9l0.619-1.42l1.66,13.77l6.689,20.51l6.07,20.87l12.85,21.021l9.17,11.62l30.201-1.98
		l39.959-1.77l0,0l2.35,8.25l13.311,60l0,0l-56.889,11.06l-54.262,11.63l-4.76-1.72l-27.889,14.35l0,0l-57.941,41.92l-17.25,13.08
		l0.271-0.7l-29.54-24.59l0,0l14.14-6.04l11.53-21.8l0.45-2.2l2.75-1.84l19.409-63.24l5.861-14.13l0.76-20.069l1.279-9.811
		l12.221-12.55l9.35-16.22l0,0l-3-16.03l-0.359-4.39l4.559-9.021l0,0l1.521,1.061l0.119,0.789l2.631,1.431l1.049,1.92l1.48,1.24
		l0.59,0.12L561.801,212.13z"/>
	<path id="DZ-31" fill="#1E3250" stroke="#1E3250" stroke-width="0.5" d="M346.43,97.01l0.04,0.65l1.72,0.98l-0.6,1.28l0.9,1.15
		l4.66,1.11l0.22,0.5l1.7,0.07l0,0l-0.05,0.18l0,0l-1.23,2.08l-1.56,1.37l-0.02,0.77l-0.6,0.15l-0.18-0.55l-0.97-0.23l-0.88-1.31
		l-1.58,2.82l1.22-0.01l-4.72,3.91l0.45,0.84l-0.99,0.99l0.12,1.34l-1.68-0.18l-1.19,0.92l0.72,0.5l-0.02,1.21l-1.87,0.19
		l-0.55,1.37l0,0l-1.13,1.83l0.47,1.74l-0.8-0.16l-0.66,1.02l-1.25,0.54l-0.35-1.21l0,0l0.62-1.29l-0.61-0.71l0.89-0.68l-0.23-0.28
		l0.72-0.09l-0.32-1.44l-0.48-0.16l0.04-1.45l-0.56-0.06l-0.22-0.75l0.02-1.42l-4.55,0.92l-4.61,2.22l-1.44-0.65l-1.42,0.67
		l-0.79-1.17l-0.73,0.01l-0.39,0.34l0.78,0.73l-1.62,0.12l0.63,1.23l-0.62-0.1l-0.55-1.05l0.17-1.83l1.62-0.49l0.66-1.87l-0.3-0.49
		l-1.53,0.51l0.38-1.31l-2.11-1.67l0.24-0.85l-0.63-0.03l0,0l0.53-1.36l0.85-0.61l1.23,0.04l2.04-2.3l1.47,1.04l1.54-0.5l1.32-2.47
		l1.32-0.17l0.23,0.84l1.8,0.82l1.32-0.23l0.04,0.98l3.09,0.35l2.53-2.9l1.03,0.38l0.97-1.08l0.78-2.52l-0.25-1.5l0.72-0.5
		l1.74,0.34l1.45-1.32L346.43,97.01z"/>
	<path id="DZ-32" fill="#1E3250" stroke="#1E3250" stroke-width="0.5" d="M358.69,165.28l3.93,1.6l0.28-0.28l3.82,3.78l3.91,0.41
		l5.18-3.67l2.78,2.96l0.37,1.14l2.74-1.37l5.46-4.34l5.14,1.29l0,0l7.16,1.45l-1.17,8.78l9.95-0.57l-0.18,1.43l0.58,1.87l2.01,2.83
		l0,0l1.56,2.61l-0.54,0.96l0.25,0.82l3.95,1.72l2.9,3.21l0.88,0.28l5.37-1.74l2.09,2.359l1.181,0.48l1.01,2.77l-0.59,1.11
		l0.609,1.28l-0.46,2.359L430,200.95l0.529,1l0.931-0.4l0.569,1.11l-0.359,0.66l2.04,1.8l-1.01,0.8l-0.461,1.76l0.41,2.73
		l-0.93,2.36l5.56,0.529l-0.609,1.62l0.24,1.36l6.25,2.05l3.699-0.79l-0.399,6.94l-6.55-0.21l-0.561,0.409l1.14,1.58l-0.27,2.721
		l1.38,2.39l1.28,4.13l1.71,1.96l0.439,2.89l0.66,0.29l0,0l0.94,10.95l3.31,13.58l-4.55,2.92l1.2,15.15l-8.2,8.99l0,0l-36.83,23.06
		l-27.37,19.65l0,0l-24.68-20.391l-0.21-0.63l1.56-4.59l-2.77-2.65l-2.39-1.37l-0.66-2.39l-0.88-0.77l-0.12-3.261l0.89-0.479
		l0.85-1.66l-1.16-1.14l-1.08-2.351l0.23-1.18l0.93,0.22l0.98-1.189l-0.46-1.221l-1.25-0.83l0.46-0.35l-0.18-1.1l0.75-0.051
		l-0.34-1.689l1.2-0.13l-0.75-3.57l-0.51-0.42l-0.4-4.82l0.52-2.52l0.67-0.41l-0.28-0.67l1.48-2.19l-0.09-0.659l1.92-1.471
		l1.54-0.31l2.13,1.08l-0.13-1.59l1.77-3.44l-0.07-2.72l0,0l3.2-5.53l1.93-4.71l-0.82-4.21l0.67-2.73l-1.77-1.909l0.45-2.011
		l-1.47-0.819l0.44-3.271l2.75-1.55l1.01-2.83l-1.2-0.75l1.55-1.78l-0.03-1.58l-1.26-1.079l-0.26-1.671l0.85-3.05l0.74-5.64
		l-0.37-0.47l3.69-14.261l-1.55-5.3l3.77-2.07l-1.36-0.18l-1.35-3.189l-1.35-0.49l0.31-4.73l-1.91-1.319l-3.2,1.489l0.58-0.489
		l-0.56-0.801l0.39-1.81l-0.79-1.33l0,0l2.62-5.54l1.33-0.34l0.35-0.92l-0.83-5.73L358.69,165.28z"/>
	<path id="DZ-33" fill="#1E3250" stroke="#1E3250" stroke-width="0.5" d="M724.83,351.35l1.01,4.46l-5.49,1.881l-0.93,0.89
		l0.01,0.93l0.9,4.57l4.75,6.229l9.24,20.91l3.52,17.351l1.17,11.7l-2.66,20.529l4.971,18.13l-0.73,0.95l-0.039,4.83l-0.701,2.28
		l-2.229,4.01l-1.871,0.5l0.26,0.55l2.07-0.02l-0.58,2.49l-1.26,0.649l-0.631,1.14L734.48,481l0.41-0.04l-0.471,4.2l0.59,3.52
		l1.32,3.41l0.99,6.05l2.58,3.92l-0.891,5.07l0.43,4.11l-1.92,5.42l-13.449,5.74l-2.17,5.6l-2.18,2.45l24.27,35.399l0.141,16.641
		l2.24,3.18l0.439,1.8l1.33,1.65l2.91,6.55l3.299,2.16l2.08,2.61l3.57,0.149l1.359-0.43l2.311,0.41l1.631-0.32l1.02-1.35l3.5,0.02
		l0.881,0.3l1.439,2.33l1.279-0.729l-0.27-0.69l1.301-1.07l2.77,0.61l2.039,1.021l3.801,4.43l3.23,1.35l10.988,8.051l6.971-2.69
		l14.721,30.46l-67.031,42.04l0,0l1.191-33.24l-6.951-4.68l-2.109-0.59l-2.58-2.431l-3.59-0.159l-2.58-1.82l-22.641-0.13
		l-21.82,14.33l-28.148,5.22l-9.75-7.62l3.379-3.46l-8.07-20.52l-0.84-17.931l0.691-6.17l-8.551-13.6l-7.34-0.57l-3.08-1.97
		l-1.41-1.811l-5.619-10.529l-2.611-7.36l-4.949-7.45l-2.77-2.66l0.09-1.46l-8.871-25.689l-1.51-0.891l-0.119-1.02l-0.852-0.07
		l-0.158-1.68l-1.021-0.53l-0.629,0.62l-2.051-1.229l-1.869-2.66l1.439-2.05l-0.539-1.271l0.809-0.54l0.24-1.18l1.76-0.601
		l3.09-3.14l-0.809-2.31l0.238-0.91l-20.559-19.53l0.43-14.65l-5.311-29.88l3.471-14.069l-0.27-57.851l0,0l27.889-14.35l4.76,1.72
		l54.262-11.63l56.889-11.06l0,0L724.83,351.35z"/>
	<path id="DZ-34" fill="#1E3250" stroke="#1E3250" stroke-width="0.5" d="M540.77,72.46l1.17,0.18l1.111,1.11l0.059,2.06
		l-0.699,1.37l1.381,1.84l1.68-0.59l0.93,0.4l2.629-0.22l1.801-1.15l1.25,0.85l0.939-0.12l0.191,0.78l0.85,0.37l0.189,1.17
		l0.42-0.13l-0.59,0.32l1.141,0.92l0.379,1.31l0.631-0.37l1.119,0.92l-0.199,1.09l0.619,1.73L557,87.28l1.73,1.83l-0.871,2.58
		l-1.889,1.18l-0.451,1.37l0.471,0.86l-0.48,0.97l0.58,0.36l-0.01,1h-0.57l0.201,1.82l0.549,0.36l-1.369,0.55l-2.461-0.13
		l-0.049,2.92l0,0l-1.641,1.04l-0.08-0.39l-0.869,0.22l-0.271-2.23l-2.129,0.03l-2.34-3.11l-0.74,0.77l-1.82-0.3l-1.461,0.87
		l-0.969-0.5l-1.031,0.92l-1.559,0.42l-1.26,1.42l-0.73-0.32l-0.451-1.11l0.75-1.97l-2.449,1.11l0.609,1.82l-0.91-0.37l-1.359,0.44
		l-2.859-0.72l-0.15-1.2l1.01-0.34l-0.119-0.52l0.879-0.82l-0.279-0.92l2.98-1.07l-1.15-1.66l-0.311-3.45l-1.58,0.08l-2.529,1.96
		l-2.15,0.49l-1.529-0.28L523.6,92.4l0.01,0.5l-1.039-0.51l-0.4,0.35l-0.84-0.95l-0.92-0.16l-2.25,0.32l0.15,0.49l-0.791,0.63
		l-1.18-0.12l-0.061-1.16l-0.939-0.88l0,0l2.68-1.95l1.102-4.09l-0.621-0.34l3.16-1.51l0.109-0.8l1.391-1.44l2.49,0.22l0.82-1.47
		l0.66-0.18l0,0l0.229,1.7l1.121,1.45l4.459-0.65l-0.18-0.77l1.25,0.04l0.541-0.56l1.629,0.11l0.551-0.5l-0.801-0.29l-0.229-0.77
		l0.658-3.01l1.721-0.34l2.02-1.25L540.77,72.46z"/>
	<path id="DZ-35" fill="#1E3250" stroke="#1E3250" stroke-width="0.5" d="M509.621,49.18l1.08,0.97l3.379-0.08l0,0l0.199,2.29
		l-1.01,0.69l-0.109,0.81l-1.42,0.59l-0.109,1.44L509.89,56l-0.35,1.11l-0.891-0.94l-1.02,0.47l-0.76,2.65l1.39,1.61l-2.49-0.62
		l0.271,2.38l-1.36-0.25l-0.18-0.87l-0.5,0.64l-2.12-0.1l0.83,2.09l-0.48,1.04l0,0l-4.18-0.19l-4.49-1.25l-0.89,1.79l-2.271,0.49
		l-0.26,0.79l-2.15-0.75l-1.689,0.48l0,0l-1.07-0.52l0.721-0.75l-0.521-0.23l-0.32-1.35l0.99-0.87l-1.11-0.18l-0.52,0.8l-1.36-2.43
		l0,0l1.28-0.99l-0.11-1.17l-0.59-0.13l0.53-0.11l0.67,1.01l1.7-0.94l2.51-0.37l-0.02-1.88l-1.221,0.38l0.511-1.12l0,0l5.189,0.59
		l0.69-0.75l1.58-0.39v-0.59l2.569-0.55l2.34-1.29l1.681-1.94l6.02-1.81L509.621,49.18z"/>
	<path id="DZ-36" fill="#1E3250" stroke="#1E3250" stroke-width="0.5" d="M674.779,47.59l1.682,1.68l3.389-0.32l1.641,0.4l0.92,0.96
		l8.189-2.26l0.68,1.23l-0.789,0.52l-0.32,2.39l1.43,0.1l0.721,0.68l-0.471,0.99l-2.16,1.27l-0.488-0.34l-1.061,1.21l-3.4-0.29
		l-2.109,0.97l0.34,0.6l1.199,0.23l-0.15,0.83l0.811,1.3l-0.67,1.45l-0.709,0.25l-0.111,2.01l-1.689,0.13l-0.391,0.92l-2.67,1.13
		l-1.4,1.63l-1.25,0.09l-2.35,1.39l-0.75-0.25l-0.9,0.83l0.521,1.42l0,0l-0.65,0.91l-0.961-0.43l-1.809,0.85l-1.631,2.22l-0.83-1.32
		l0.5-1.93l-1.23-0.5l-1.309,0.41l0,0l-0.711-1.45l0.6-0.22l-1.4-1.82l-1.568-0.38l-0.76-0.81l0.01,1.42l-0.32-1.02l-2.27,0.49
		l-1.051-3.83l-1.15-0.02l0.35-0.95l-1.219-0.98l-0.92,0.35l0.33,0.5l-1.16-0.37l0,0l1.189-2.61l-0.721-1.41l1.01-1.33l0.551,0.5
		l0.33-1.18l1.711,0.35l0.18-2.44l1.42,0.46l0.68-0.37l-0.609-1.3l0,0l3.199,0.25l3.51-0.72L674.779,47.59z"/>
	<path id="DZ-37" fill="#1E3250" stroke="#1E3250" stroke-width="0.5" d="M138.21,383.16l1.9,0.979l-1,2.98l1.33-0.07l0.99-0.87
		l1.46,1.54l2.79,0.65l0.48,0.57l0.7-1.04l-0.28-0.45l2.09-2.29l0,0l8.94,6.67l14.43-0.2l10.24,4.91l11.67,35.61l12.51,20.939
		l0.73,12.891l10.37,11.52l5.22,3.85l22.38,1.921l0,0l-1.08,5.84l-2.61,7.18l0.39,0.47l-1.57,5.101l-2.91,1.89l-12.89-0.41
		l-3.35,1.16l-2.99,1.771l-3.73,3.479l-11.23,16.76l-1.86,3.521l-1.05,4.56l-1.61,3.33l-23.55,0.8l-11.32,12.17l-21.03,8.24l0,0
		l-51.64-34.91l-64.16-40.87l0.24-61.13l7.97-3.62l5.31-5.18l5.5-4.36l1.03-0.029l7.18-4.74l1.19-1.72l5.64-3.971l3.92-1.829
		l1.26-0.051l1.48-3.149l4.51,0.27l3.99-0.649l2.13-0.98l3.66-3.66l3.45-1.63l1.61,0.01l3.27,1.271l1.27-0.45l2.84,0.28l3.13,1.29
		l2.16,0.26l3.17-2.33l2.91-0.64l3.49,0.39l3.06-1.94l2.21,0.671l0.62-0.78l4.85,0.1l3.15-0.74l3.93,0.87l5.11-1.43l1.9-0.04
		l0.62-0.52L138.21,383.16z"/>
	<path id="DZ-38" fill="#1E3250" stroke="#1E3250" stroke-width="0.5" d="M412.79,99.79l0.72-1.15l-0.75-0.23l0.14-1.2l0.94-0.61
		l-0.7-0.64l2.13-0.14l2-1l0.07-1.58l0.62,0.31l1.01-2.19l0.59-0.25l-0.24,0.75l2.04,1.54l-0.07,0.87l1.33,1.36l2.331,1.05l0,0
		l0.35-0.44l3.55,0.9l0.72,2.1l1.12-0.4l0.3,0.37l0.54-1.51l2.58-2.46l1.181-0.35l0.52-1.02l-0.01,1.84l1.33,0.18l1.89-1.18
		l1.28,0.27l0.41-0.55l0.8,1.71l2.24,0.11l1.52,2.04l1.2-0.14l0.82,0.69l0.84-0.3l0,0l-0.16,2.11l-1.18,1.9l0.25,1.77l-0.601,1.34
		l-1.08,0.43l-1.58-0.93l-1.39,0.07l-0.93,1.12l0.62,2.48l5.12,1.37l-1.24,1.38l-0.07,2.2l0,0l-3.39-0.24l-3.351,0.79l0,0
		l0.061-1.74l-2.42,0.31l-0.4-0.44l0.95-0.5l0.07-0.72l-1.811,0.6l-0.729,1.36l-3.03,0.67l-5.16-0.19l-0.62,0.76l-0.43-1.12
		l-1.32-0.65l0.23,1.4l-0.57,0.53l-1.79-0.45l-1.38-1.52l-0.44-1.59l-0.25,0.35l-1.01-0.37l-0.29,0.65l-1.13,0.16l-0.62-0.34
		l-0.22-2.68l-0.8-0.54l-1.44,0.08l-0.12-0.83l-0.98,0.55l-2.32-1.69l-0.5,1.46l0.49,0.36l-0.61,0.89l0.4,0.62l-0.84,0.86
		l-1.22-0.38l-1.24-2.65l0,0l1.18-1.96l-0.51-0.4l-0.09-1.29l0.6-0.65l-0.38-0.67l1.81-1l0.61,1.63l1.28,0.26l2.05-2.44l-1.92-0.88
		L412.79,99.79z"/>
	<path id="DZ-39" fill="#1E3250" stroke="#1E3250" stroke-width="0.5" d="M561.801,212.13l1.359-1.89l-0.09-1.141l-1.141-2.869
		l0.191-3.91l-0.57-4.37l-1.82-3.79l1.35-3.45l0.4-3.67l2.5-3.88l1.279-4.43l-3.59-3.971l-2.82-2.069l1.361-3.29l-2.09-2.5
		l3.469-2.29l-1.26-1.17l2.02-1.07l4.041,2.86l21.369,3l9.641-2l4.65,1.869l0,0l1.16,1.04l1.109,0.091l0,0l3.24,1.079l2.17,2.49
		l1.5,0.101l1.85-0.91l3.27-3.82l0,0l-0.42,2.771l0.35,1.109l9.08,6.03l2.74,0.75l0.521-8.21l7.979-0.36l0,0l7.531,3.03l14.779,1.47
		l0,0l0.109,1.38l-2.979,2.11l-2.951-1.36l-1.811,3.851l-1.318,0.68l0.43,0.15L650.01,182l-1.879,0.74l1.209,2.18l-0.609,1.89
		l0.221,1.75l-0.881,1.391l0.971,3.25l-0.91,1.75l2.42,2.02l0.26,4.91l1.209,3.061l4.65,7.199l1.27,6.5l1.73,4.511l2.82,0.17
		l8.109,3.859l-0.049,2.271l5.029,5.71l2.891,4.58l1.309,14.54l27.15,18.74l0,0l-39.959,1.77l-30.201,1.98l-9.17-11.62
		l-12.85-21.021l-6.07-20.87l-6.689-20.51l-1.66-13.77l-0.619,1.42l-0.861-1.9l-1.369,0.15l-2.01,0.989l-1.52,2.03l-1.48,0.62
		l-0.551-0.27l-0.369-1.641l-1.23,1.04l-0.17,2.5l1.609,2.601l0.25,2.119l-0.559,1.49l0.469,3.08l-1.469,0.69l-0.311,1.159l2,2.69
		l0.49,4.83L561.801,212.13z"/>
	<path id="DZ-40" fill="#1E3250" stroke="#1E3250" stroke-width="0.5" d="M619.15,108.17l1.289,2.96l7.381-0.79l1.08,1.01
		l-0.83,1.82l2.959,1.01l1.91-3.58l0.701,0.39l2-0.31l0.58,0.56l0.26-0.98l3.15,1.74l0.309,1.12l-0.859,1.22l0.25,1.59l1.93-0.47
		l0.33-2.13l0.531-0.38l2.309,1.79l-0.619,0.57l0.25,0.47l1.049-0.03l0.092-1.01l0.68,0.6l0.6,1.01l-0.4,0.43l0.311,0.76l1.25,0.17
		l0.35,1.09l0.82,0.24l-0.07,0.63l0,0l-5.779,1.79l-0.08,0.77l0.67,0.79l-0.59,2.88l1.33,1.11l-1.551,1.31l0.02,0.77l1.781,2.91
		l-2.801,4.29l-2.43,1.37l-0.561,2.14l-0.779,0.29l-0.811,1.32l-0.66,2.64l1.471,3.891l0.289-2.851l-0.65,0.811l-0.27-0.591
		l0.91-2.399l1.279-1.7l1.441,0.67l0.85-0.39l1.359,4.39l-1.52,3.55l1.07,1.78l-0.189,3.061l-4.131,6.92l-1.24,4.239l-0.57,4.83l0,0
		l-7.979,0.36l-0.521,8.21l-2.74-0.75l-9.08-6.03l-0.35-1.109l0.42-2.771l0,0l0.23-1.28l-1.02-2.22l2.299-4.7l-0.289-5.199
		l0.721-0.921l0.77-3.329l-1.5,0.289l0.82-1.77l-0.711-1.33l-1.1-0.65l0.76-0.819l-2.061,0.02l-1.459,3.05l-2,1l0,0l-0.85-1.909
		l-0.141-2.011l1.52-1.369l0.051-0.58l-1.121-0.341l0.951-1.01l-1.111-0.89l-1.158-3.29l-1.441-0.32l0.781-1.5l-0.691-2.479
		l0.58-1.561l1.4-0.149l0.49-0.78l0.131-1.79l-0.682-1.54l0.211-0.42l0.24,0.37l-0.131-1.41l2.15-1.02l-0.119-0.78l1.059-0.62
		l-0.609-0.38l-1.051,0.38l-0.229-0.47l-0.291-0.9l0.711-1.7l-0.83-0.77l-0.17-1.81l2.76-2.29l2.789,0.08l1.65-0.99l1.23-2.7
		l-1.211-2.7l0.021-2.49H619.15z"/>
	<path id="DZ-41" fill="#1E3250" stroke="#1E3250" stroke-width="0.5" d="M664.541,70.95l1.309-0.41l1.23,0.5l-0.5,1.93l0.83,1.32
		l1.631-2.22l1.809-0.85l0.961,0.43l0.65-0.91l0,0l1.699,0.88l3.75,0.26l0.33,0.72l1.42-0.89l2.09,1.28l-0.369,2.09l-0.91,1.11
		l-0.01,1.41l0.6,0.81l-2.031,1.85l0.621,0.58l0.02,0.94l-1.75,2.79l1.09,1.67l0.25,1.75l-1.74,2.75l-0.209,4.06l0,0l-0.971-0.03
		l-2.889-2.16l-0.111,0.69l-2.629-0.28l-1.932,1.38l-0.199-0.42l-2.08,0.01l-0.17,0.67l-1.029,0.47l-0.01,0.84l-1.301-0.1
		l-1.43,2.16l-0.971-0.29l-0.699,0.76l-2.301-1.08l-1.01-1.82l-0.301,0.56l-1.1-0.44v-0.46l-0.84,2.45l0,0l-1.539,0.82l0.5,1.32
		l-0.85,0.33l0.859,1.18l-0.951,0.24l-0.75-0.58l-2.408,0.92l-1.041-0.44l0.27-1.46l-0.609-0.51l0.52-0.72l-4.789-1.95l-0.211-1.47
		l-1.549-1.05l-1.17-2.07l0.17-1.86l-1.34-0.15l0.27-1.44l-0.861-2.73l0,0l-0.988-0.69l-0.301-1.05l1.02-2.42l5.25,1.23l4.621-1.49
		l2.16,0.6l1.559-1.86l0.561,0.26l1.381-0.58l0.639-1.43l1.24,0.66l2.84-0.77l0.73-0.77l-0.609-1.54l-1.24-1.09l0.48-2.4l1.828,0.85
		l1.32-1.49L664.541,70.95z"/>
	<path id="DZ-42" fill="#1E3250" stroke="#1E3250" stroke-width="0.5" d="M467.05,59.59l-0.03,1.21l0.76,0.41l-0.92,0.55l0.42,0.49
		l0,0l0.811,1.06l-0.601,1.08l-1.39,0.03l-0.05,0.51l-1.4,0.68l-0.479-0.53l-2.51,2.12l-0.41,1.01l-1.95,0.24l0.8,1.48l-0.83,1.17
		l-1.25-0.46l-1.09,0.38l-0.54-0.49l-0.63,0.86l0.5,0.48l-1.79,1.33l0,0l-2.6-0.65l-5.99,0.58l-0.49-0.83l-0.96,0.3l-0.11-0.39
		l-3.439-0.6L438.72,73l-1.45-0.37l-0.28,0.48l-1.64,0.22l-1.06-0.86l-5.23,0.14l-0.77-0.73l-0.66,0.64l0.13,1.4l-1.62,0.71
		l-1.08,1.3l-0.99-3.05l-1.609-1.74l0,0V70.3l1.21-0.65l-0.15-1.12l0.96-1.92l0,0l7.03-0.67l1.24-0.57l1.279,0.52H437l12.41-3.69
		l2.159,0.53l0.17,1.39l0.711,0.5l5.01,0.11l3.45-1.26l1.609-1.44L467.05,59.59z"/>
	<path id="DZ-43" fill="#1E3250" stroke="#1E3250" stroke-width="0.5" d="M579.381,66.4l0.969-0.63l1.102,0.07l2.459,1.42l0.51-0.76
		l2.291,0.03l1.299-1.46l-0.18-0.93l1.27-0.6l1.51,0.49l0.881-0.35l0.461,0.61l2.379-0.13l0.43,0.71l3.211,0.49l0.74-0.14
		l0.529-1.35l2.24-0.64l0.84,0.41l-0.09,0.79l2.859,0.43l1.189,0.91l0.951-0.26l0,0l1.789-0.25l0,0l-0.469,0.81l0.32,2.13
		l-1.75,1.04l-1.67-0.23l-1.32,0.74l-1.371-0.39l0.311,1.3l-0.439,0.9l0.51,1.53l-1.83,3.38l2.391-0.65l0.398,1.13l1.66,0.57
		l0.301,0.76l-1.051,0.98l0.551,1.64l1.02,0.29l1.891-0.47l0.359,0.98l1.291,0.56l0.039,0.62l-0.539,0.18l0.738,0.95l-0.529,0.72
		l0,0l-1.99,0.21l0.061,0.38l-2.461,0.82l-0.6,1.28l0.1,3.81l-2.34,2.72l-1.42-0.27l0.34,1.42l-1.27-0.98l-3.029,0.3l-0.68,1.64
		l-0.75-0.01l-0.182,2.17l0,0l-0.369,0.4l-5.09-1.02l-0.689,0.35l-0.361-0.73l-0.92,0.67l0,0l0.031-0.68l2.24-1.6l-1.391-0.8
		l0.1-1.01l-0.75-0.48l1.301-1.06l-0.701-3.34l0.311-0.49l-3.1-0.84l0.02-3.42l1.311-1.1l0.52,0.21l-1.211-1.78l-1.389-0.62
		l-0.391-1.53l-0.869-0.55l0.25-2.14l-1.291,0.06l-1.24-0.93l0.441-0.69l-0.141-1.77l-1.689-0.66l0.27-0.29L580,71.5l0.359-3.75
		L579.381,66.4z"/>
	<path id="DZ-44" fill="#1E3250" stroke="#1E3250" stroke-width="0.5" d="M422.46,71.14l1.609,1.74l0.99,3.05l1.08-1.3l1.62-0.71
		l-0.13-1.4l0.66-0.64l0.77,0.73l5.23-0.14l1.06,0.86l1.64-0.22l0.28-0.48l1.45,0.37l2.16-1.39l3.439,0.6l0.11,0.39l0.96-0.3
		l0.49,0.83l5.99-0.58l2.6,0.65l0,0l1.13,0.03l0.53,1.45l1.97,0.28l-0.74,0.72l0.21,0.4l2.051,0.33l0.31,0.7l0,0l-1.4,1.11
		l-2.46-0.1l0.101,1.75l-1.271,1.75l1.29,0.37l-0.64,0.76l0.78,1.75l0.859-0.26l0.681,0.81l0.92,0.03l-0.551,0.75l1.03,0.71
		l-0.569,0.61l-0.061,1.3l-0.74-0.31l-2.64,2.32l-1.57-0.44l0.15,2.05l-0.49,1.29l0.38,0.56l-0.649,1.17l-1.811,0.43l-0.38-0.6
		l-1.439,0.01l0.739,0.79l-0.13,0.82l-0.609,0.93l-1.141,0.26l-0.18,0.81l0,0l-0.84,0.3l-0.82-0.69l-1.2,0.14l-1.52-2.04l-2.24-0.11
		l-0.8-1.71l-0.41,0.55l-1.28-0.27l-1.89,1.18l-1.33-0.18l0.01-1.84l-0.52,1.02l-1.181,0.35l-2.58,2.46l-0.54,1.51l-0.3-0.37
		l-1.12,0.4l-0.72-2.1l-3.55-0.9l-0.35,0.44l0,0l-0.29-0.93l0.63-0.56l-0.5-0.86l0.62-0.86l-1.551-1.75l-0.76,0.09l0.44-0.64
		l-0.53-0.13l-1.16-2.17l0.47-2.01l-1.47,0.32l-1.24-1.28l0.35-0.29l-0.38-0.41l0.68-0.25l-0.66-0.92l1.21-0.02l1.23-1.6l-0.48,0.09
		l0.14-0.87l-0.69-0.24l0.05,0.62l-0.53-0.64l-1.23,0.46l-0.62-0.4l1.33-0.65l0.87-1.5l-1.4-0.64l-1.35-2.33l0.24-2.15l1.71-1.17
		l1.21-0.12L422.46,71.14z"/>
	<path id="DZ-45" fill="#1E3250" stroke="#1E3250" stroke-width="0.5" d="M316.35,173.06l1.11,0.931l0.89,1.95l3.77-2.9l1.1,1.81
		l0.6-0.76l1.95,1.07l1.67-0.39l1.74,0.819l7.19-4.649l1.08,1.1l2.27,0.71l1.02,1.97l0.67,4.82l2.45,4l0.42,2.83l0.63,0.78
		l-0.47,1.239l0.91,0.54l0.29,1.24l0.48-0.26l0.05-1.771l0.8-0.46l0.73,0.511l0.9-2.49l2.77-2.74l2.91-1.32l2.46,0.32l0,0l0.79,1.33
		l-0.39,1.81l0.56,0.801l-0.58,0.489l3.2-1.489l1.91,1.319l-0.31,4.73l1.35,0.49l1.35,3.189l1.36,0.18l-3.77,2.07l1.55,5.3
		l-3.69,14.261l0.37,0.47l-0.74,5.64l-0.85,3.05l0.26,1.671l1.26,1.079l0.03,1.58l-1.55,1.78l1.2,0.75l-1.01,2.83l-2.75,1.55
		l-0.44,3.271l1.47,0.819l-0.45,2.011l1.77,1.909l-0.67,2.73l0.82,4.21l-1.93,4.71l-3.2,5.53l0,0l-2.81,4.27l-4.27-0.84l-3.14,2.4
		l-12.02-3.141l-10.16,5.681l-0.58-2.74l-2.44-0.021l0.84-5.069l-2.52-0.16l-0.53-1.28l0.15-2.93l0,0l2.35-1.55l2.55-2.53l0.06-0.61
		l-10.38-7.989l-4.26-1.98l-6.2-9.9l2.22-0.8l0.93-3.05l-0.37-1.24l-4.01-3.609l-1.01-2.57l-2.6-3.41l0.22-4.58l1.48-3.09l0.16-2.02
		l1.24-1.771l-0.58-1.229l0.32-2.2l-1.35-1.181l-0.86-2.35l-2.05,0.18l-1.18-1l0.32-1.609l2.24-1.721l-1.1-4.479l1.84-10.29l0,0
		l6.35-4.87l6.73-0.729l2.24,0.55l1.38-0.891l0.76-1.689L316.35,173.06z"/>
	<path id="DZ-46" fill="#1E3250" stroke="#1E3250" stroke-width="0.5" d="M318.71,109.71l0.12,0.07l0,0l0.63,0.03l-0.24,0.85
		l2.11,1.67l-0.38,1.31l1.53-0.51l0.3,0.49l-0.66,1.87l-1.62,0.49l-0.17,1.83l0.55,1.05l0.62,0.1l-0.63-1.23l1.62-0.12l-0.78-0.73
		l0.39-0.34l0.73-0.01l0.79,1.17l1.42-0.67l1.44,0.65l4.61-2.22l4.55-0.92l-0.02,1.42l0.22,0.75l0.56,0.06l-0.04,1.45l0.48,0.16
		l0.32,1.44l-0.72,0.09l0.23,0.28l-0.89,0.68l0.61,0.71l-0.62,1.29l0,0l-5.14,1l-0.1,1.32l-1.74,0.86l-1.28-1.08l-1.23,1.09
		l-0.35,1.59l-1.11-0.31l0.72,2.51l-0.25,1.021l-2.48,0.89l0.37,0.4l-0.76,2.24l-1.46,0.89l0,0l-1.24,0.15l-0.51-1.641l-2-0.359
		l-1.02-1.131l-1.48,0.04l-1.89-1.579l-0.59,0.609l-0.71-1.38l-1.69,0.24l-0.25,0.63l-0.51-0.58l-1.58,0.08l-0.34-0.601l-1.5,0.171
		l-0.35-0.4l-1.6,2.46l-1.95,0.53l-1-1.141l-0.94-0.02l0.32-1.74l-1.57-1.09l0,0l1.35-1.59l1.71-0.3l1.69-1.44l2.96,0.18l2.08-2.01
		l1.71-0.34l1.94-3.88l1.74-5.82l-0.23-0.59l1.63,0.03l2-2.4L318.71,109.71z"/>
	<path id="DZ-47" fill="#1E3250" stroke="#1E3250" stroke-width="0.5" d="M445.69,240.64l19.19-1.54l5.13-2.01l4.41-0.74
		l15.109,3.811l-0.51-5.16l-6.439-4.04l13.939-0.45l0.57-0.76l0.93,0.4l0.2-0.92l0.77,0.579l0.761-1.319l0.529,0.91l1.61-0.66
		l0.61,0.79l1.479-0.28l2.16,0.71l0.48,0.83l1.38-0.72l23.179,2.08l0,0l20.9,6.25l0,0l-9.35,16.22l-12.221,12.55l-1.279,9.811
		l-0.76,20.069l-5.861,14.13l-19.409,63.24l-2.75,1.84l-0.45,2.2l-11.53,21.8l-14.14,6.04l0,0l-19.07,1.48l-17.56,6.41l0,0
		l1.939-8.341l-7.229-40.79l3.85-16.06l0.78-6.9l1.35-49.869l0,0l8.2-8.99l-1.2-15.15l4.55-2.92l-3.31-13.58L445.69,240.64z"/>
	<path id="DZ-48" fill="#1E3250" stroke="#1E3250" stroke-width="0.5" d="M386.07,83.06l3.77,0.56l1.98-1.5l-0.01,0.75l2-0.75
		l0.68,0.94l0.2,2.53l0.98,0.03l-0.44,0.3l0.5,1.01l-1.56,1.79l0.93-0.29l-0.21,1.1l0.47,0.43l0.34-0.3l0.37,2.41l1.14,0.01
		l1.26-1.27l0.84,0.03l-0.63,0.45l0.64,0.42l0.45-0.35l1,2.15l1.16,0.21l1.7,1.58l1.5,0.05l3.68-1.55l3.13,5.58l0.85,0.41l0,0
		l-0.5,0.35l1.92,0.88l-2.05,2.44l-1.28-0.26l-0.61-1.63l-1.81,1l0.38,0.67l-0.6,0.65l0.09,1.29l0.51,0.4l-1.18,1.96l0,0l-1.14,0.2
		l-0.32,0.91l-1.18-0.06l-1.02,1.8l-1.47,0.26l-0.02-0.63l-1.38,0.39l-0.88-0.38l-0.29,1.66l-1.48-0.19l-0.2,1.58l-2.21,0.19
		l-0.08,1.09h-1.1l0.09,0.66l-0.71,0.06l-1.31,3.45l-1.34-0.23l-0.3,0.57l0,0l-3.07-0.95l-0.65,0.39l-0.55-1.2l-3.13,0.18l-0.5-1.04
		l-1.18-0.61l-1.67-0.31l-1.77,0.42l-0.95-1.83l-1.25-0.61l-0.16-0.82l-1.55,1.13l-0.24-0.95l-1.96,1.19l-1.16-0.26l-0.14-0.94
		l-0.89-0.11l0.43-1.84l-1.78-2.13l0.09-1.54l-1.05-0.34l0,0l0.68-1.6l1.57-0.08l-0.63-0.9l1.51-1.24l1.91-1l1.27,0.67l0.63-0.58
		l-0.17-0.52l1.93-1.53l0.33-1.14l-0.75-0.53l1.03-0.9l-0.34-0.62l0.37-0.31l-1.23,0.08l-0.02-1.51l-0.56,0.11l1.53-1.87l1.28,0.85
		l0.86-0.64l0.11,0.81l1-1.11l0.49,0.5l2.51-1.08l0.88,0.38l-0.05-1.32l-0.62-0.27l1.15-1.29l-1.19-0.28l-1.19-2.17l0.78-1.69
		l1.45-0.29l-0.01-1.06l1.24-0.7L386.07,83.06z"/>
</g>
</svg>
