<?xml version="1.0" encoding="utf-8"?>
<!-- Generator: Adobe Illustrator 15.0.0, SVG Export Plug-In . SVG Version: 6.00 Build 0)  -->
<!DOCTYPE svg PUBLIC "-//W3C//DTD SVG 1.1//EN" "http://www.w3.org/Graphics/SVG/1.1/DTD/svg11.dtd">
<svg version="1.1" id="Layer_1" xmlns:amcharts="http://amcharts.com/ammap"
	 xmlns="http://www.w3.org/2000/svg" xmlns:xlink="http://www.w3.org/1999/xlink" x="0px" y="0px" width="644.5px" height="600.5px"
	 viewBox="0 0 644.5 600.5" enable-background="new 0 0 644.5 600.5" xml:space="preserve">
<defs>
	
	
		<amcharts:ammap  projection="mercator" leftLongitude="24.697924" topLatitude="31.667680" bottomLatitude="21.724740" rightLongitude="36.894654">
		</amcharts:ammap>
</defs>
<g>
	<path id="EG-ALX" fill="#1E3250" stroke="#1E3250" stroke-width="0.5" d="M284.405,79.811l0.07,0.22l-0.17-0.12l-0.21,0.16
		l0.16,0.41l-0.26,0.06l0.04,0.44l0.76,1.45l0,0l-0.02,2.229l-1.11,1.811l0,0l0,0l0,0l-1.19,3.14l-4.56,2.63l0,0l-3.2,2.64l2.3,2.03
		l-0.7,2.76l0,0l-1.17,2.091l2.28,3.739l5.62,6.44l-5.06,7.56l-4.91,2.33l-3.9,1.271l-1.79,0.26l-1.42,2.08l-1.43,4.22l0,0
		l-0.91-33.649l0,0l2.25-1.62l0.08-0.25l2.15-1.771l2.02-1.359l0.79-0.91l0.13-0.62l0.32-0.22l0.21-0.011l-0.32,0.221l0.17,0.22
		l0.21-0.28l0.15,0.061l-0.22,0.58l0.32-0.461l0.04,0.41l0.25,0.03l0.15-0.229v0.359l0.7-0.3l1.07-0.97l0.25-0.7l0.19,0.12
		l0.69-0.681l-0.37-0.17l0.46-0.51l-0.21-0.16l-0.37,0.391l-0.2-0.011l-0.05,0.221l-0.12-0.101l0.06,0.2l-0.22-0.15l0.47-0.489
		l-0.04-0.17l0.7-0.25l-0.1-0.32l0.46-0.17l-0.11,0.35l0.17,0.26l0.57,0.07l0.31-0.39l-0.21-0.26l0.4,0.229l0.35-0.19l1.56-1.229
		l0.05-0.23l0.44-0.149l1-1.03l0.01-0.36l0.5-0.029l0.21-0.391l0.26-0.029l0.15-0.58l0.39,0.149l-0.01-0.409l0.21,0.26l0.52-0.19
		l0.55-0.729l-0.24-0.29l0.16-0.21l0.49-0.13l0.52-0.521L284.405,79.811z"/>
	<path id="EG-ASN" fill="#1E3250" stroke="#1E3250" stroke-width="0.5" d="M416.065,436.54l-1.02,3.55l-0.011,6.03l0.79,1.851
		l0.32,2.989l0.92,1.141l1.17,2.13l0.53,3.27l0.979,1.771l1.63,0.93l1.44,1.63l0.2,4.53l1.07,0.41l-0.16,1.84l-0.721,0.729
		l-0.59,0.99l-0.39,2.2l0.07,2.34l0.979,3.4l1.57,0.359l1.6,3.36l-0.229,1.37l-0.79,1.13l-0.65,2.2l-1.05,2.05l-2.67,2.97
		l-1.25,2.04l-1.3,1.42l-0.07,1.2l3.46,3.32l3.03,0.24l1.02,0.979l3.32,2.35l0,0l2.229,3.521l0.21,3.31l0,0l-1.189,2.021l-2.71-0.4
		l-2.76-2.939l-1.45-1.91l-2.88,0.43l0,0l-2.57-0.78l-4.45-3.01l-3.16,0.33l0,0l-2.989,1.641l0.26,5.529l-1.181,3.42l-2.31,2.58
		l-6.45,4.04l-3.14,2.75l-2.62,0.78l0,0l-2.94,0.88l-3.43-1.52l0,0l-2.35-2.28l-1.471-1.9l-2.109-1.33l-2.75,0.66l-1.181,4.45
		l-0.39,2.35l-1.18,2.88l-1.04,1.961l-1.39,1.739l-2.71,1.16l-4.28-0.67l-1.44,3.14l-1.96,1.96l-2.75,1.44l-8.11,2.75l-1.19,4.65
		l0,0l-5.17-0.011l0.03-0.939l1.02-2.58l1.35-2.13l1.06-0.99l0.81-1.1l0.24-0.86l-0.69-0.53l-0.6-1.05l-0.41-0.28l-4.96,3.2
		l-1.44-0.13l0,0l-2.67,0.26l-1.51-2.22l0.78-2.75l4.32-2.23l3.01-0.909l4,0.119l2.96-2.729l1.92-2.16l0.83-1.57l0.48-1.579
		l-0.23-1.601v-4.33l-0.21-2.22l0.84-1.83l1.47-1.74l1.17-0.5l2.77-0.02l2.05,0.229l1.61-0.229l16.39-4.78l0.98,0.38l2.59,0.26
		l2.57,0.511l1.939,1.22l1.5,0.66l1.64-0.92l3.881-7.511l0.79-2.369l1.25-2.801l3.01-4.97l1.54-3.24l3.109-4.89l0.301-0.96
		l-0.48-1.98l-2.07,0.11l-1.72,0.39l-2.68-0.359l-5.181-1.23l-1.39-1.649l0.36-3.28l1.71-5.93l1.41-2.011l3.85-2.38l2.19-0.91
		l2.01-0.56l2.12-1.72l-0.32-1.261l-3.6-3.25l-0.17-3.14l1.39-1.39l3.12-1.41l3.74-3.91l0.39-9.41l0.59-4.2l0.021-3.42l1.409-6.97
		v-2.88l0.561-3.32l-1.8-3.479l-1.73-5.75l-0.03-4.771l-0.39-1.85l-1.6-2.01l-2.681-2.521l-3.489-1.62l0,0l0.96-3.51l-0.07-3.57l0,0
		l1.91,1.73l0,0l2.39,1.479l1.83,1.771l4.35,3.02l3.29,5.5l0.471,3.34l0.14,9.58l1.92,4.53l3.061,5.11l0.229,1.55l-0.39,4.01
		l-3.2,2.66l-1.99,2.97L416.065,436.54L416.065,436.54z"/>
	<path id="EG-AST" fill="#1E3250" stroke="#1E3250" stroke-width="0.5" d="M353.775,310.12l-2.22-0.02l-0.85-1.851l-1.04-0.979
		l-0.89-1.98l-0.86-1.149l-1.78-0.19l-1.72,2.75l-2.58,1.6l-1.19,0.98l-0.65,0.2l0,0l-2.24-3.71l-3.64-8l-1.71-2.811l-2.69-1.55
		l-3.81-0.63l-0.99-0.53l-6.05-5.729l-1.39-0.78l-1.13-1.65l-0.52-2.14l-1.39-1.85l-0.95-2.04l-0.45-2.551l-1.03-0.47l-0.17-1.939
		l-0.78-0.78l0.09-2.24l1.04-0.1l0,0h3.03l4.26,0.88l1.56-1.37l2.78,0.19l0,0l-0.67,3.399l0.58,4.71l0.61,1.55l1.47,1.761
		l4.34,1.649l1.39,1.07l3.89,1.52l1.15,0.101l3.44,1.8l1.37,4.42l6.68,5.26l1.4,3.08l2.3,3.78l1.49,3.84L353.775,310.12z"/>
	<path id="EG-BA" fill="#1E3250" stroke="#1E3250" stroke-width="0.5" d="M541.885,457.28l0.189,0.979l-0.27,0.221l-0.189-0.181
		l0.311-0.29L541.885,457.28z M459.275,312.74l0.44,0.53l0.59,0.04l-0.11,1.04l0.391,0.72l-0.12,1.06l-1.011-1.38l0.04-0.53
		l-0.72-0.819l0.01-0.221L459.275,312.74z M456.425,288.2l0.41,0.11l0.52,0.699v0.78l0.42,0.54l0.17,0.98l-0.52,0.01l-0.311-0.24
		l-0.26-0.6l-0.71-0.4l-0.4-0.729l0.061-0.17l0.55,0.06l-0.2-0.64L456.425,288.2z M457.435,274.58l1.41,0.141l0.81,0.84l0.7,0.27
		l0.45,0.43l0.59,0.07l0.74,1.641l0.21,0.779l-0.15,0.32l-0.64,0.06l0.149-0.239l-0.569-0.83l-0.61-0.141l-0.04-0.25l-0.92-0.89
		l-0.81-0.04l-0.721-0.55l-0.62,0.08l-0.659-1.011l0.35-0.01l0.1-0.479L457.435,274.58z M450.045,270.07l0.529,0.5l-0.229,0.88
		l0.24,0.35l1,0.421l0.109,0.239l-0.62,0.761l-0.56,0.149l0.189,0.91l-0.75-0.91l0.07-0.24l0.51-0.01l0.04-0.21l-1.689-0.74
		l0.81-1.979L450.045,270.07z M451.495,268.15l0.301,0.46l0.39,0.17l0.16,0.67l-0.38,1.05l-0.61-0.43l-0.54-1.16l0.15-0.55
		L451.495,268.15z M451.885,267.25l-0.521,0.79l-0.5,0.101l-0.029-0.32l0.359-0.14l0.021-0.311L451.885,267.25z M442.425,262.03
		l0.439,0.27l-0.08,0.21l0.21,0.351l-0.149-0.13l-0.101,0.24l0.16,0.63l-0.37-0.13l-0.08-0.28l-0.609-0.48L442.425,262.03z
		 M349.005,197.55l4.44,0.631l4.47,1.76l6.48,1.58h1.24l0,0l1.09,2.1l5.16-0.979l6.63-0.101l8.03-4.939l4.279-1.17l3.94-2.341
		l5.38-0.189l0,0l0.49,0.75l0.029,0.82l-0.21,0.649l-0.96,0.79l0.101,0.271l-0.471-0.03l-0.42,0.63l0.341,0.54l0.05,0.57
		l-0.391,0.84l-0.05,1.49l1.87,2.329l0.84,2.141l-0.08,0.52l0.41,0.45l0.01,0.38l0.761,0.771l0.84,0.5l0.5,1.319l0.59,0.67
		l0.32,0.24l0.77,0.07l0.76,0.33l0.841,1.06l0.569,1.641l0.42,0.479l-0.13,1.03l0.46,0.609l0.261,0.98l-0.091,0.72l0.15,0.4
		l0.35,0.18l0.17,0.65l0.45,2.59l-0.17,0.64l0.16,0.271l0.8,0.5l2.01,0.52l1.04,1.61l0.29,0.2l0.36-0.08l-0.16,0.479l0.44,0.71
		l1.069,0.23l0.16,0.72l0.971,0.66l1.239,3.13l0.36,0.49l0.34,0.07l0.54,1.09l1.44,0.68l0.119,1.98l0.54,0.52l-0.01,0.71l0.79,0.58
		l0.38,0.06l-0.01,0.24l0.34,0.24l0.21,1.14l0.86,0.851l0.16,0.609l1.01,0.61l0.41,0.689l1.1,1.101l0.16,1.49l0.46,0.14l0.6-0.11
		l0.57,0.21l-0.01,0.46l0.84,0.99l1.61,1.25l-0.061,0.9l0.33,0.75l1.11,0.2l0.109,0.46l0.24,0.069l-0.06,0.16l0.239,0.22
		l1.311-0.199l0.439,0.1l0.341,0.58l0.54,0.11l0.3,0.52l0.569,0.45l1.25,0.55l2.271,3.35l0.34,1.051l0.21,0.21l0.16-0.141l0.01,0.25
		l0.311,0.101l0.29,1.38l0.46,0.7l0.52,0.25v0.59h-0.16l-0.05,0.25l0.19,0.45l-0.16,0.489l0.31,1.011l-0.21,0.1l-0.2-0.15
		l-0.189,0.271l-0.38-0.63l-0.011-0.46l-0.35-0.32l-0.3,0.271l-0.46-0.061l-0.7-0.7l-0.45-0.029l-0.17-0.271l-0.649-0.01
		l-0.541-0.311l-0.289,0.171l-0.311,0.699l-0.1,0.65l0.42,0.42l0.45,0.04l0.54,0.8l0.05,0.66l0.399,0.15l0.36,0.859l0.81-0.13
		l0.74-0.55l0.25,0.32l-0.97,2.569l0.45,0.15l-0.13,0.6l0.199,0.34l1.2,0.131l0.061,0.67l0.369,0.22l-0.1,0.27l0.54,0.391
		l-0.06,0.39l-0.311,0.07l-0.32-0.95l-0.489-0.53l-0.41-0.319l-0.3,0.199l0.359,0.761l-0.75-0.59l-0.21-0.551l-0.37-0.13l-1.34,1.16
		l-0.17,0.53h-0.24l0.051,0.359l0.89,0.24l0.39,0.391l1.07,1.42l0.28,0.77l0.24,0.101l0.159,1.109l-0.239,1.05l0.149,0.91l1.41,0.2
		l0.59,1.08l0.8,0.2l0.351,1.479l0.35,0.67l0.75,0.48l0.271,0.59l0.21-0.11l0.6,0.771l0.021,0.46l0.39,0.43l0.1,0.55l-0.199,0.641
		l-0.221,0.17l0.011-0.46l-0.221,0.49l0.2,0.109l0.2-0.14l0.08,0.91l0.45,0.21l-0.141,0.529l0.15,0.381l0.52,0.27l0.301,0.66
		l0.359,0.08l0.04,0.27l1.351,0.311l0.1,0.45h0.27l0.95,0.909l0.84,0.25l0.311,0.391l0.62-0.061l0.1,0.181l0.41,0.01l0.4,0.609
		l0.35,0.2l-0.03,0.48l-0.399,0.47l0.52,1.23l-0.54,0.26l-0.6,0.74l-0.04,0.67l0.25,0.17l0.04,0.47l-0.16,2.19l0.22,0.47l0.46,0.06
		l0.47,0.641l1.261,0.359l0.72,0.86l0.24,0.92l-0.521-0.18l-0.359,0.46l0.199,0.63l1.04,1.1l-0.08,0.26l-0.52,0.29l0.97,0.58
		l0.221,0.66l-0.221,0.08l0.261,0.06l0.55,1.671l0.87,0.779l0.33,0.82l-0.101,0.13l0.311,0.38l0.6-0.53l0.6-0.01l-0.35,1.181
		l0.39,0.81l0.311,0.19l-0.101,0.56l-0.449,0.13l-0.271-0.08l-0.62-0.82l-0.26-0.039l-0.22,0.199l-0.4,1.16l-0.439,0.4l0.3,0.99
		l-0.21,0.539l-0.41,0.381l0.34,1.17l0.32,0.31l-0.09,0.42l0.319,0.04l-0.51,0.39l-0.1,0.5l0.14,0.07l-0.07,0.15l-0.149-0.08
		l-0.12,0.43l0.16,1.08l-0.36,1.03l0.13,0.53l0.521,0.81l1.1,0.4l-0.04-0.221l0.49,0.65l0.67,0.19l0.189,0.6l0.9,0.49l-0.01,0.689
		l0.49,0.761l-0.021,0.489l0.31,0.13l-0.05,0.74l0.19-0.03l0.54,0.65l0.11,0.54l0.77,0.89l-0.24,0.311l0.271,0.069l-0.011,0.4
		l0.41,0.99l0.01,0.71l1.051,1.87l0.17,0.939l0.87,0.61l0.29,0.91l1.119,1.62l0.341,0.109l0.72,1.01l0.22,0.75l-0.06,1.221
		l0.79,1.12l0.06,0.22l-0.21,0.26l0.49,0.54l0.2,1.41l0.99,1.47l0.209,0.95l0.891,0.729l0.4,1.12l0.67,0.46l0.039,0.721l-0.17-0.061
		l-0.06,0.21l0.97,0.761l1.851,4.949l0.3,0.391l1.12,0.609l0.31,0.811l-0.26,0.12l0.24,0.279l0.56-0.069l0.05,0.62l0.2-0.011
		l0.521,1.23l0.029,1.06l0.42,0.511l-0.35,0.329l0.29-0.06l0.27,0.87l0.37,0.36l-0.14,0.189l1.149,0.14l0.49,0.341l0.71,1.529
		l0.061,0.7l0.3-0.149l0.439,0.55l0.641,0.28l0.33,0.55l0.7,0.479l0.29,1.09l-0.261,0.41l0.341-0.05l0.289,0.771l0.471,0.14
		l0.09,0.7l-0.22,0.46l0.22,0.08l0.01,0.319l0.71,0.4l-0.14,0.37l0.37,1.35l0.5,0.79l1.06,0.83l0.6,0.83l0.211,0.99l-0.03,1.24
		l0.51,0.88l-0.13,0.229l0.67,0.43l0.55,0.761l0.05,1.109l0.351,0.62l0.22,0.04l0.05,0.74l0.17,0.17l-0.06,0.8l0.359,0.84
		l1.391,1.471l0.41,1.149l-0.2,0.41l0.21,0.03l0.21,0.43l-0.14,0.58l0.199,0.55l1.271,1.351l0.66,1.04l0.25,0.52l-0.05,0.49
		l0.739,1.33l-0.25,0.33l0.38-0.11l0.29,0.561l1.25,1.279l0.261,0.931l0.84,1.329l0.29,1.521l0.95,1.07l0.1,0.59l0.51,0.86
		l0.061,0.59l0.399,0.34l0.3,0.63l0.57,0.45l0.141,0.85l-0.521,1l0.1,0.55l0.141-0.04l0.06,0.29l0.91,0.971l0.2,0.01l0.24,0.74
		l0.659,0.75l0.011,1.55l0.35,0.25l0.021,1.68l0.909,1.07l0.971,0.74l0.38,0.81l0.3,0.1l0.52,0.78l0.29,0.05l0.82,2l-0.35,1.54
		l0.359,0.641l0.891,0.21l-0.25,0.29l-0.2,0.859l0.05,0.311l0.3,0.109l0.55,0.67l-0.31,0.511l0.26,0.069l-0.03-0.229l0.591,0.02
		l0.64,1.58l0.991,0.67l0.02,0.3l-0.26-0.05l-0.64,0.42l0.14,0.721l-0.57,0.6l-0.04,0.521l1.47,1.539l0.65,0.091l0.459,0.35
		l0.16,0.56l0.451,0.42l-0.25,0.33l0.289,0.221l1.09,2.029l0.59,0.44l0.641,0.14l0.221,0.681l1.42,0.859l0.439,0.03l-0.039-0.2
		l0.609,0.07l-0.041,0.44l0.301,0.75l0.74,0.71l0.359,0.01l0.621,0.45l-0.041,0.33l0.291,0.529l1.559,1.87l0.5,0.84l0.08,0.73
		l0.301,0.1l0.09,0.48l0.301,0.25l-0.311,0.54l0.25,0.56l1.619,1.96l1.201,0.86l-0.16,0.229l0.139,0.65l0.262,0.18l0.609-0.14
		l-0.199-0.76l-0.9-0.561l0.74-0.14l1.119,1.16l0.689,0.01l0.68,0.38l1.08,1.01l0.541,1.061l0.26,1.43l-0.141,0.92l0.611,0.14
		l1.068,0.641l1.41-0.23l1.73,0.49l1.15,0.57l1.209,0.95l0.441,0.829l0.209,1.131l0.4,0.529l0.51,0.301l-0.17,0.68l-1.039-1.811
		l-0.771-0.35l-0.289-0.01l-0.42,0.35l-0.461-0.04l-1.52,1.11l-0.57-0.1l-1.549-0.94l-1.471,0.2l-0.939-0.271l-1.1-1.189
		l-0.602,0.109l-1.17,0.65l0.49-0.46l1.121-0.46l-0.711-0.5l-1.49-0.42l-0.629,0.26l0.01,0.91l0.189,0.04l0.031,0.26l-0.33-0.04
		l-0.041,0.35l-0.561,0.73l-0.25-0.34l-0.129,0.109l-0.01,0.271l0.34,0.229l-0.16,0.24l0.119,0.29l0.141-0.04l0.061,0.57l-0.16,1.41
		l0.32,0.52l-0.09-0.84l0.148,0.01l0.061,0.75l-0.209,0.54l-0.201-0.09l-0.15,0.35l0.17,1.33l-0.379,0.601l0.029,1.17l0.25,0.149
		l0.16,0.53l0.35,0.11l0.311-0.84l0.51-0.07l0.24,0.689l-0.08,0.75l-0.221,0.221l-0.129,0.01l-0.041-0.65l-0.238,0.03l-0.012,0.229
		l-0.619,0.11l0.16,0.34l0.6,0.37l0.24,1.41l-0.01,1.37l0.141-0.09l0.139,0.2l-0.219,0.76l0.049,1.72l-0.32,0.01l-0.35-0.91
		l-0.32,0.271l0.09,0.99l0.201,0.08l-0.08-0.42l0.209,0.08l0.17,1.569l0.391,0.641l-0.471,2.229l0.15-0.07l0.041,0.221l-0.49,1.17
		l-0.09-0.23l-0.121,0.16l0.221,0.15l-0.08,0.26l-0.391,0.16l0.16,0.41l0.01-0.24l0.121,0.069l0.25,1.5l0.449,0.301l0.24,0.5
		l0.221,0.05l0.799,1.04l0.381,1.069l-0.09,0.24l0.289,0.3l0.061,0.95l0.16,0.3l0.049-0.199l0.111,0.159l0.059,2.23l-0.158,0.46
		l0.199,1.34l0.189,0.08l0.49,1.26l-0.15,0.69l0.141,1.55l0.82,0.51l0.289,1.091l0.721,0.77l0.459,0.93l-16.199,15.301l0,0
		l-2.18,2.06l-11.72-3.41l-11.66,27.08l-23.87,4.38l-3.3,9.78l0,0l-41.37-0.09l0,0l-51.37,0.14l-3.62-0.17l-18.67-0.06l0,0
		l1.19-4.65l8.11-2.75l2.75-1.44l1.96-1.96l1.44-3.14l4.27,0.68l2.71-1.17l1.39-1.729l1.05-1.96l1.181-2.88l0.39-2.36l1.18-4.45
		l2.75-0.649l2.11,1.329l1.46,1.9l2.35,2.28l0,0l3.44,1.52l2.939-0.88l0,0l2.62-0.79l3.141-2.75l6.45-4.04l2.31-2.58l1.18-3.409
		l-0.26-5.54l2.99-1.641l0,0l3.16-0.319l4.449,3.01l2.57,0.77l0,0l2.88-0.43l1.46,1.92l2.761,2.94l2.709,0.399l1.19-2.02l0,0
		l-0.21-3.311l-2.23-3.52l0,0l-3.319-2.34l-1.021-0.98l0,0l0,0l0,0l-3.02-0.25l-3.46-3.32l0.07-1.199l1.31-1.41l1.24-2.05
		l2.68-2.971l1.05-2.05l0.65-2.189l0.78-1.131l0.239-1.369l-1.6-3.37l0,0l0,0l0,0l-1.57-0.36l-0.979-3.4l-0.07-2.34l0.39-2.199
		l0.591-0.99l0.72-0.73l0,0l0,0l0,0l0.16-1.84l0,0l0,0l0,0l-1.07-0.41l-0.2-4.529l-1.439-1.631l-1.631-0.92l-0.979-1.779
		l-0.521-3.271l-1.18-2.13l-0.92-1.14l-0.33-2.99l-0.78-1.851v-6.029l0,0l0,0l0,0l1.021-3.551l0.13-2.369l1.99-2.971l3.189-2.649
		l0.391-4.011l-0.23-1.56l-3.06-5.11l-1.91-4.52l-0.15-9.58l0,0l0.09,0.21l-0.09-0.21l0,0l-0.46-3.34l-3.3-5.5l0,0l0,0l0,0
		l-4.34-3.021l-1.83-1.77l-2.39-1.49l0,0l-2.62-2.38l0,0l-1.55-2.46l-0.801-2.53v-5.38l0.801-1.83l1.72-1.83l1.89-3.1l5.771-3.761
		l1.97-3.149l1.74-5.5l0,0l0.189-1.09l-0.029-3.62l0,0l-0.351-3.43l0,0l0,0l0,0l-1.13-2.48l-0.62-2.18l-1.43-2.29l-3.391-2.29
		l-4.479-0.96l-6.08,0.06l-2.47,0.83l-5,3.561l-1.43,0.76l-1.69,0.12l0,0l-1.96-0.88l0.189-1.641l-0.34-0.13l-2.05-2.8l-1.04-2.59
		l-1.81-1.33l-4.03-1.21l-2.73-1.721l-0.81-0.85l-1.16-1.77l-1.21-3.601l-0.43-2.979l0,0l0,0l0,0l-1.64-0.53l-0.98-1.28l-0.46-1.6
		l-2.01-2.561l-5.82-4.859l-2.58-0.95l0,0l0,0l0,0l-0.5-0.33l0,0l-0.52-2.5l-1.49-3.84l-2.3-3.78l-1.4-3.08l-6.68-5.26l0,0l0,0l0,0
		l-1.37-4.42l-3.43-1.8l-1.15-0.101l-3.89-1.52l-1.39-1.07l-4.34-1.65l-1.48-1.75l-0.61-1.56l-0.58-4.71l0.67-3.39l0,0l0.37-3.351
		l-0.25-4.74l-1.12-3.63l-0.5-5.87l-3.35-7.699l-0.75-8.271l0.75-2.81l3.53-5.78l0.04-2.48l0,0l0.07-4.289l1.28-3.711l0,0
		l0.46-1.619l0,0l0,0l0,0l-3.73-0.5l0,0l2.75-0.891l0.62-3.66l2.98-5.08l2.11-0.85l2.23-3.81l1.49-2.12l2.98-3.53l0.12-3.25
		l1.74-1.42l0.25-4.53l0,0l4.74,4.63l3.12,4.75L349.005,197.55L349.005,197.55L349.005,197.55z"/>
	<path id="EG-BH" fill="#1E3250" stroke="#1E3250" stroke-width="0.5" d="M298.425,71.83l0.06,0.23l-0.84,0.13l-0.07,0.57l0.19,0.22
		l0.52-0.39l0.64,0.35l-0.3-0.6l0.45,0.51l0.39,0.1l-0.66-0.66l0.09-0.09l0.35,0.19l0.5-0.12l0.69,0.47l1.34,0.51l0.41,4.9
		l2.79,3.22v6.9l3.66-0.351l5.37,5.061l0,0l-0.01,2.83l1.56,1.199l-0.13,2.631l0.84,0.3v2.63l-0.58,0.68l0.97,0.45l0.39,0.45
		l0.06,0.68l0.78,0.9l-0.52,0.899l-0.84,0.83v1.65l0.65,0.229l-0.13,1.65l-0.32,1.13l0.32,1.28l0.88-0.11l0,0l-0.26,4.66l0.13,0.4
		l1.07,0.069l-0.46,1.82l1.18,0.88l-0.26,1.73l0.58,1.54l0,0l0.02,5.88l0,0l-1.39,0.16l-0.14,1.819l0,0l-6.92,7.08l-2.66,0.351
		l-7.4,7.47l0,0l-4.74,6.53l-0.74,1.31l-0.75,0.45l-1.55-3.11l0,0l-1.68-1.06l-2.83-0.55l-7.56-5.601l-1.96-0.96l-6.37-5.04
		l-4.26-0.14l0,0l-3.16-1.54l-1.27-2.03l0,0v-5.72l0,0l1.43-4.22l1.42-2.08l1.79-0.261l0,0l0,0l0,0l3.9-1.27l4.91-2.33l5.06-7.56
		l-5.62-6.44l-2.28-3.74l1.17-2.09l0,0l0.7-2.76l-2.3-2.03l3.2-2.64l0,0l4.56-2.63l1.19-3.141l1.11-1.81l0.02-2.23l0,0l1.5,0.33
		l0.09,0.17l1.24,0.04l0.2-0.16l0.14,0.2l0.16-0.12l0.06,0.221l0.61-0.16l0.05,0.13l0.04-0.2l0.7-0.09l2.36-1.15l1.86-1.63
		l1.02-1.31l1.27-2.71l1.11-3.51l0.46-0.48L298.425,71.83z"/>
	<path id="EG-BNS" fill="#1E3250" stroke="#1E3250" stroke-width="0.5" d="M269.375,213.13l1.82-2.37l0.98-8.739l1.42-6.04l0,0
		l8.57,1.13l10.68,1.979l2.11,1.131l-0.17,1.689l1,0.4l1.43-0.09l22.49-6.28l9.13-14.11l2.82-2.04l0,0l0.06,0.351l0,0l0.53-0.78
		l2.31,0.97l0,0l2.27,0.521l0,0l0.95,0.63l0.13,4.34l0,0l-0.25,4.53l-1.74,1.409l-0.12,3.261l-2.98,3.529l-1.49,2.12l-2.24,3.811
		l-2.11,0.84l-2.98,5.08l-0.62,3.66l-2.75,0.89l0,0l-2.89-2.01l-2.43-1.41l-43.42,1.37L269.375,213.13z"/>
	<path id="EG-C" fill="#1E3250" stroke="#1E3250" stroke-width="0.5" d="M365.335,136.17l0.15,3.561l0,0l1.23,4.26l1.93,13.47
		l-0.04,4.351l-2.19,25.47l-0.78,14.24l0,0h-1.23l-6.48-1.58l-4.48-1.76l-4.44-0.631l-3.24-2.34l-3.12-4.76l-4.74-4.63l0,0
		l-0.13-4.34l-0.95-0.63l0,0l-0.53-0.12l0,0l-0.21-1.521l0.18-1.479l0.3-0.75l0.76-0.54l0.3-0.67l0.06-1.62l0.82-1.42l0.3-4.99
		l0.77-0.61l0.11-0.949v-1.011l-1.06-0.949l-0.06-2.711l1.22-0.14l0.04-0.76l0.1-7.68l-2.65-0.91l-0.17-1.82l-0.93-1.64l0.91-0.71
		l-0.16-5.75l0,0l1.93,0.199l0,0l1.86-1.689l4.4-1.771l4.51-0.3l0,0h4.59l3.15-1.899l6.29-4.4l0,0L365.335,136.17z"/>
	<path id="EG-DK" fill="#1E3250" stroke="#1E3250" stroke-width="0.5" d="M341.795,69.56l5.99,3.39l1.89,0.79l1.57,0.14l0,0v1.81
		l-3.12,1.45v1.55l2.43-0.04l1.78-0.24l0.1,2.021l0.99,0.199l1.2,0.63l0.96,0.921l-1.1,6.38l7.23-3.74l0,0l1.72-0.39l1.85,0.27
		l0.5-0.26l0.3-1.11l0.42-0.03l-0.36,1.431l2.78-0.05l0.21-0.421l1.04,0.771l1.38,0.27l0.44,0.721l0.18,0.77l-0.36,1.141l1.42,1.75
		l-0.43,0.79l0.06,0.739l0.39,0.21l-0.18,0.061l0,0l-3.35,1.29l-5.09,0.75l-3.59-0.07l-1.09,1.81l-0.15,1.98l-2.88,2.98l-0.14,2.89
		l-2.27,0.18l-0.16,1.63l-1.32,0.721l-0.21,1.47l-8.82,0.24l-1.32,1.17v6.489l0.84,0.771l-0.92,2.37l-2.02,1.99l0,0l-1.17-0.07
		l-1.07-1.79l-0.91-0.59l0,0l0.01-0.12l0,0l1.24-1.271l-0.13-3.449l-0.67-0.28l0.09-1.01l-0.98-1.051l-0.31-3.34l0.24-2.52
		l0.93-4.97l1.01-1.171l0.78-0.449l0.97-2.36l-2.18,0.28l-2.14,0.02l0.32-1.529l0.63-1.07l0,0l-0.1-2.98l0,0l1.64,0.311l0.7-0.54
		l-0.24-1.7l-0.07-10.62l-0.46-1l-0.08-2.9l-1.09,0.09l-0.08-2.09l1.01-0.91l0,0l1.23,0.1l-0.02-2.7L341.795,69.56z"/>
	<path id="EG-DT" fill="#1E3250" stroke="#1E3250" stroke-width="0.5" d="M370.125,74.41l0.84,1.37l2.35,2.05l1.54,1.05l2.13,1.061
		l1.29,1.03l0.37,0.039l0.29,0.48l-0.66,0.11l-3.55-2.061l-2.45-2.06l-0.9-0.42l-0.87-0.24l-0.63,0.12l0.15,0.33l0.81,0.359
		l0.09,0.271l-1.04-0.271l-0.48-0.6l0.81-0.72l0.09-1.131l-0.54,0.03l0.09-0.51L370.125,74.41z M365.935,71.64l0.15,0.75l-0.26-0.33
		L365.935,71.64z M365.745,70.64l-0.1,0.1l-0.4-0.46L365.745,70.64z M366.985,70.7l0.33,0.73l-0.29,0.46l-0.36-0.11l-0.35-1
		l-0.49-0.39l-0.06-0.34l0.22-0.07l0.72,1.12l-0.32-1.19l0.05-0.14l0.23,0.11L366.985,70.7z M367.225,69.64l1.05,0.6l0.74,0.89
		l1.25,1.02l0.25,0.98l-0.34,0.35l0.19-0.68l-0.19,0.15l0.09-0.31l-0.33-0.61l-0.22-0.22l0.03,1.21l-0.16-1.3l0.07,0.58l-0.25-0.71
		l-0.57-0.54l-0.16,0.06l0.94,2.49l0.13-0.52l-0.05,0.54l0.28,0.7l-1.04-1.42l-0.31-0.83l-0.4-0.17l-0.13-0.73l-1.34-1.48
		L367.225,69.64z M364.785,80.8l-0.46,0.49L364.785,80.8l0.16,0.08l-0.71,1.221l-0.6-0.12l-0.12,1.1l-0.54-0.28v0.311l0.35,0.399
		l0.46,0.011l0.06,0.149l-0.63,0.13l-0.01,0.46l0.29,0.171l-1.78,0.399l0,0l-7.23,3.75l1.11-6.39l-0.96-0.91l-1.2-0.63l-0.99-0.2
		l-0.1-2.02l-1.78,0.239l-2.42,0.03v-1.54l3.11-1.45V73.9l0,0l3.07-0.45l3.82-1.05l1.41-0.54l0.16-0.51l-0.27,1.5l0.3,0.01
		l0.67,0.64l-0.25-0.36l0.11-0.41l-0.39-0.2l-0.1-0.32l0.31-0.31l-0.09-0.33l0.35,0.07l1.57-0.79l1.75-1.31l0.26,0.2l1.02,0.06
		l-0.42,0.13l-0.49,0.48l-0.2,0.72l0.55-0.17l-0.33,0.86l0.84,1.23l-0.02,1.06l0.25,0.72l-1.26-1.61l-0.33,0.06l-0.03-0.73
		l-0.62,0.63l-0.08,0.86l0.05,0.17l0.87-0.52l0.02,0.34l0.41,0.05l0.13,0.32l-0.22,0.399l0.43,0.721h0.89l-0.56,0.5l-1.12-0.24
		l-0.23,0.4l0.18,0.42l-0.12,0.359l0.38-0.12l0.09,0.19l-0.2,0.25l-0.92,0.25l0.56,0.3l0.38-0.07l0.1,0.431l0.77,0.34l0.34,0.09
		l0.29-0.22l0.17,0.29L364.785,80.8z"/>
	<path id="EG-FYM" fill="#1E3250" stroke="#1E3250" stroke-width="0.5" d="M273.595,195.98l6.34-7.21l2.11-1l6.95-8.21l1.49-0.141
		l6.2-7.1l3.73-0.99l7.94-5.26l1.62-0.28l2.51-1.51l1.45-1.24l0.13-1.09l14-0.13l-0.28,4.18l0.77,0.96l1.33,2.8l0.77,5.03
		l0.76,3.431l0,0l0.24,1.569l0,0l-2.82,2.04l-9.13,14.11l-22.49,6.28l-1.43,0.09l-1-0.4l0.17-1.689l-2.11-1.131l-10.68-1.979
		L273.595,195.98z"/>
	<path id="EG-GH" fill="#1E3250" stroke="#1E3250" stroke-width="0.5" d="M330.515,114.78l-0.47-1.21l-4.43,0.05l-0.38-0.81
		l-1.16-0.051l-0.07-0.899h-2.42l-0.15,0.99l-3.52,0.439l0,0l-0.88,0.11l-0.33-1.271l0.33-1.13l0.12-1.649l-0.64-0.23v-1.649
		l0.84-0.83l0.52-0.9l-0.78-0.9l-0.06-0.68l-0.39-0.45l-0.98-0.45l0.59-0.68v-2.63l-0.85-0.3l0.13-2.63l-1.55-1.21l0.01-2.82l0,0
		l0.56,0.52l1.92,3.49l1.23,0.01l0,0l0.3,1.051h4.67l0.39-1.9l5.22,0.09v-5.609l6.15-0.36l0,0l2.71,0.04l0.1,3.08l0,0l-0.63,1.07
		L336.295,96l2.14-0.02l2.18-0.28l-0.97,2.36l-0.78,0.449l-1.01,1.171l-0.93,4.97l-0.24,2.52l0.31,3.34l0.98,1.051l-0.09,1.01
		l0.67,0.28l0.13,3.449l-1.24,1.271l0,0l-3.78-1.74l0,0l-3.09-0.02L330.515,114.78L330.515,114.78z"/>
	<path id="EG-GZ" fill="#1E3250" stroke="#1E3250" stroke-width="0.5" d="M336.925,142.101l0.16,5.75l-0.91,0.71l0.93,1.64
		l0.17,1.82l2.65,0.91l-0.1,7.68l-0.04,0.76l-1.22,0.14l0.06,2.711l1.06,0.949v1.011l-0.11,0.949l-0.77,0.61l-0.3,4.99l-0.82,1.42
		l-0.06,1.62l-0.3,0.67l-0.76,0.54l-0.3,0.75l-0.18,1.479l0.21,1.521l0,0l-1.74-0.4l0,0l-2.31-0.97l-0.53,0.78l0,0l-0.3-1.92l0,0
		l-0.76-3.431l-0.77-5.03l-1.33-2.8l-0.77-0.96l0.28-4.18l-14,0.13l-0.13,1.09l-1.45,1.24l-2.51,1.51l-1.62,0.28l-7.94,5.26
		l-3.73,0.99l-6.2,7.1l-1.49,0.141l-6.95,8.21l-2.11,1l-6.34,7.21l0,0l-1.42,6.04l-0.98,8.739l-1.82,2.37l0,0l-1.14,4.341
		l-1.58,2.899l-1.18,3.351l-1.58,5.359l-1.18,5.57l-2.37,2.229l-2.56,2.011l-4.73,3.109l-3.75,3.34l-2.56,0.67l-2.57,2l-3.74,1.33
		l-4.14,3.11l-3.16,1.55l-5.32,1.12l-3.16,1.99l-0.78,1.78l-0.4,2.22l-0.59,1.77l-2.37,4.971l0,0l-56.78,0.14l0,0h-0.68l0,0h-1.28
		l0,0l20.39-45.43l41.89-10.061l32.28-31.75l6.46-8.29l6.62-1.63l22.68-15l3.07-0.399l0,0l0.76-0.45l0.73-1.311l4.74-6.52l0.89,0.04
		l-0.89-0.04l0,0l7.4-7.47l2.66-0.351l6.92-7.08l0,0l1.44-0.12l0.68-0.58l2.09,0.141l0.09,3.18l1.42-0.07l0.91,0.891l0.07,1.8
		l0.9,0.89l1.63,0.301l0.8-0.9l0.89,0.52l0,0l0.76,0.19l1.95-0.74l0,0l1.65,2.78l2.41,1.479l0,0L336.925,142.101z"/>
	<path id="EG-IS" fill="#1E3250" stroke="#1E3250" stroke-width="0.5" d="M379.975,91.4l0.06,0.2l2.681-0.49l0.72-0.76l0.99,0.189
		l0.56,1.61l2.2,0.17l1.939,0.97l3.19,1.16l0,0l3,1.94l3.08,0.81l0,0l1.29,24.4l4.89,8.01l1.41,3.85l0.771,2.79l0,0l-5.74-0.27l0,0
		l-4.61,0.52l-1.729,1.41l-6.141-0.43l-2.64-0.811l-18.62,0.11l-1.91,0.18l0,0l-0.03-0.79l0,0l-1.68-3.93l0,0l-1-4.9l-0.42-4.56
		l-1.68-0.87l-0.17-1.649l2.27,0.1l0.42,0.87l3.78,0.189l0.59-0.869l5.04-0.29l0.26-0.94l4.74-6.74l-0.08-2.71l-0.91-3.85
		l1.811-4.11l0.229-1.84l1.7-0.05l-0.2-5.641l-1.96-0.09l-0.67-1.21l0,0l-0.71-1.149l1.061-0.71l-0.25-0.57l0.029-0.5l1.28-0.01
		l-0.01-1.851l0.399-0.5l0.48-0.04l0.229,0.391l0.16,1.109l-0.229,0.641l0.569,0.239l-0.079,0.601L379.975,91.4z M381.965,84.721
		l0.38,0.489l0.569-0.33l0.48,1.7l-0.14,0.37l-1.551-0.68l-0.159,0.42l-0.421,0.28l-0.369-0.44l-0.471,0.08l-0.52-0.23l-1.24,0.33
		l-0.97-1.08l0.08-0.35l0.479,0.08l0.021-0.44l0.399-0.149l1.931,0.05l0.39,0.3L381.965,84.721z M380.515,82.07l2.82,0.729l0,0
		l-0.32,0.37l0,0l-1.53-0.439l-1.1-0.62L380.515,82.07z"/>
	<path id="EG-JS" fill="#1E3250" stroke="#1E3250" stroke-width="0.5" d="M409.325,153.5l1.87,0.07l0.24-0.28l0.02,0.12l6.61-0.43
		l9.771,0.29l8.359,1.18l1.021,0.29l4.26-0.07l8.2,1.92l1.77,0.86l11.37,7.33l3.6,1.18l3.86,0.88l6.04,3.681l3.62,1.13l2.62,1.07
		l1.43-0.12l0.31,0.27l3.86,0.59l3.47,0.29l3.73,0.73l3.74-0.15l2.39,0.58l0,0l-0.51,0.43l-0.5-0.069l-0.84,0.38l-0.16,0.399
		l-0.33,0.16l-0.271,1.4l-0.5,0.63l-0.34,0.18l-0.26-0.14l0.22,0.46l-0.74,0.56l0.051,0.601l-0.41-0.04l0.04,0.859l-0.301,0.44
		l-0.619,0.07l-0.12,0.2l-0.15,1.04l-0.32,0.46l0.16,0.01l-0.689,0.16l-0.45,0.63l-0.061,0.439l-0.489,0.29l0.2,0.78l-0.221,0.66
		l0.08,0.85l-0.439,0.67l0.35,1.29l-0.05,0.9l-0.44,0.92l-0.38,0.27l-0.16,0.771l-0.76,0.13l-0.41,0.34l0.021,0.78l-0.351,0.97
		l0.101,0.24l-0.521,0.91l0.25,0.51l-0.45,0.92l0.131,1.05l-0.471,0.84l0.46,0.37l0.04,0.601l0.46,0.47l0.091,1.62l-0.811,0.4v0.159
		l-0.67,0.061l-0.54,0.55l-0.1,0.48l0.05,0.5l0.35,0.399l0.01,0.311l-0.25,0.26l0.301,1.319l-0.24,0.78l0.17,1.01l-0.14,0.261
		l-0.601,0.14l-0.49,0.69l0.141,0.819l-0.13,0.33l0.21,0.23l-0.101,1.8l0.17,0.58l-0.31,0.58l-0.03,0.51l0.311,0.69l-0.91,1.84
		l-1.01,1.22l0.079,0.54l-0.5,0.38l0.221,0.69l-0.26,0.27l0.069,0.48l-1.04,0.66l-0.29,0.71l-0.05,0.88l-1.189,1.37l-0.29,1.84
		l0.399,0.88l-0.17,0.1l-0.17,0.92l-0.25,0.45l-0.41-0.14l0.29-0.03l0.01-0.21l-0.909,0.06l-0.601,1.021l-0.1,0.72l-0.601,0.4
		l0.08,0.79l-0.51,1.24l0.1,0.76l-0.27,0.45l-0.05,0.609l-0.891,0.79l-0.1,0.521l-0.44,0.66l-0.05,2.51l0.351,1.13l-0.211,0.93
		l0.4,0.87l-0.1,0.2l0.49,0.17l-0.25,0.34l0.489,0.32l0.03-0.24l0.39,0.45l-0.06,0.16h0.2l0.159,0.59l-0.039,1.14l-0.42,0.58
		l0.14,1.22l-0.22,0.21l-0.11,0.94l-0.36,0.45l0.15,0.77l0.41,0.351l-0.141,1.17l0.261,0.51l-0.46,2.12l-0.32,0.14l-0.09,0.28
		l0.16,0.2l-0.46,0.53l-0.761,0.109l-0.279,0.48l-0.391,0.04l0.08,0.609l-0.81,0.431l-0.13,0.79l-0.511-0.061l-0.359,0.391
		l-0.601-0.24l-0.24,0.109l0.15,0.271l-0.2,0.63l0.141,0.42l-0.391,0.21l0.15,0.7l-0.22,0.229l-0.15,0.79h-0.6l-0.301-0.729
		l-0.189-0.07l-0.11,0.24l0.21,0.08l-0.26,0.41l-0.15-0.44l-0.55,0.2l0.19,0.75l-0.311,0.65l-0.31,0.069l0.25,0.431l-0.47,1.26
		l-0.811,0.24l-0.24-0.41l-0.489,0.29l-0.46-0.351l-0.051,0.221l-0.31,0.029l0.07,0.55l0.609,0.74l1.561-0.069l-0.17,0.6l0.41,1.15
		l-0.301,0.18l-0.31-0.44l0.24,0.521l-0.261,0.14l-0.239-0.149l-0.04-0.591l-0.55-0.369l-1.12-1.641l-0.45-0.27l-1.141-0.32
		l-0.27,0.25l-1.07-0.55l-0.949-0.08l-0.631,0.07l-0.47,0.34l-0.13-0.38l-1.6-0.73l-1.271-1.56l-0.72-0.49l-1.021-1.69l-0.939-0.13
		l-0.15-0.24l-0.56,0.07l-1.561-2.33l-0.35-0.1l-0.66,0.31l-0.8-0.01l-0.771-1.21l-1.64-0.83l-0.46-0.77l-0.35-0.07l-0.021-0.29
		l-0.56-0.72l-0.45,0.01l-0.82-0.49l-0.1-0.42l0.319-0.49l-0.3-0.62l-0.739-0.13v-0.2l-0.94-0.63l-0.44,0.08l-0.189-0.319
		l0.189-0.29l-0.17-0.521l-0.77-0.8l-0.44-1.1l-0.56-0.341l-0.17-1.54l-0.66-0.14l-0.13,0.25l-0.021-0.39l-0.46-0.141l-0.5-0.479
		l-0.149-2.311l-0.511-0.62l-0.27,0.07l0.04,0.34l-0.64-0.689l0.04-0.391l-0.311-0.25v-0.58l-0.47-0.159l-0.41-1.131l-0.771-0.199
		l-0.779-0.75l-1.39-0.511l-0.57-0.75l-0.7-0.479l-1.859-0.891l-0.82-1.069l-0.45-0.181l-0.16-0.659l-1.22-1.261l-0.271-0.54
		l-0.079-0.85l-0.671-0.59l-1.17-0.44l-0.05-0.27l-1.01-0.78l-0.32-0.58l-0.439-0.21l-0.311-1.03l-0.859-0.579l-0.051-0.24l0.59,0.2
		l0.051-0.341l-0.41-1.409l-0.24-0.24l-0.939,0.13l-0.04,0.229l0.37,0.341l-0.051,0.38l0.2,0.18l-0.21,0.1l-0.23-0.3l-0.619-1.3
		l0.029-0.99l-0.22-0.479l0.15-0.641l-0.591-0.76l-0.51-1.39l0.471-1.44l0.01-0.88l0.5-0.649l-0.061-0.25l0.65-1.74l-0.62-0.681
		l-0.399-1.29l-0.971-0.85l-0.29,0.07l0.101-0.34l-0.271-0.311l-0.22-0.939l0.01-1.08l0.29-0.521l-0.29-0.52l0.7-1.33l-0.51-1.01
		l-0.271-0.061l-0.24,0.23l0.24-0.3l-0.22-0.101l0.2-0.07l0.49-2.75l-0.391-0.34l-0.55-0.01l-0.34-0.79l-1.15-0.53l-0.28-0.58
		l-0.17,0.11l-0.899-0.21l-0.061-0.54l-0.949-0.51l0.06-0.98l-0.35-0.359l-0.16,0.06l-0.16-0.439l-1.07-0.91l-0.5-0.82l-0.47-0.08
		l-0.03-0.27l-0.84-1.11l-0.95-0.2l-1.01-1.859l-0.71-0.23l-0.59,0.14l-0.76-0.869l-1.04-0.57l-0.45-1.08l0.27-0.74l-0.5-0.75
		l0.03-0.27l-0.61-0.58l-0.42,0.01l-0.27-0.64l-0.49-0.141l-0.01-1.54l-0.641-0.569l0.24-1.23l0.21-0.16l-0.31-0.93l-0.37-0.39
		l-0.561-0.16l-0.67-1.11l-0.51-0.06l-0.95-0.54l0.061-0.34l-0.24-0.2l-0.1-0.471l-0.15-0.039l0.01,0.399l-0.29,0.17l-0.13-0.3
		l0.34-0.56l-0.109-0.311l-0.19,0.14l0.17,0.211l-0.569,0.34l0.489-0.98l-0.21-0.78l-0.55-0.46l0.26-0.33l-0.14-1.18l0.24-0.68
		l-0.24-0.141l-0.021-0.369l-0.17-0.011l-0.27-1.37l-1.39-0.539l0.569-1.07l-0.5-2.07l0.42-1.14l-0.13-0.67l0.47-0.84l-0.09-1.061
		l-0.75-1.32l-0.3-0.17l-0.3,0.101l-0.21-0.73l-0.58-0.689l0,0l6.93-5.2l2.57-0.59l0,0V153.5H409.325z"/>
	<path id="EG-KB" fill="#1E3250" stroke="#1E3250" stroke-width="0.5" d="M336.065,142.01l-2.41-1.479l-1.65-2.78l0,0l-0.17-4.63
		l0,0l-0.88-1.74l-0.4-1.88l0,0l1.28-2.66l2.27-1.569l0,0l2.41-1.84l0.52-1.23l0,0l0.4-4.51l0,0l0.91,0.59l1.07,1.79l1.17,0.07l0,0
		l-1.27,1.3l-0.08,2.479l-0.66,0.04v2.62l1.12,1.061l1.12,1.47l1.21,2.39l1.02,2.69l2.13,1.66l4.45,2.689l0,0l-4.51,0.3l-4.4,1.771
		l-1.86,1.689l0,0L336.065,142.01z"/>
	<path id="EG-KFS" fill="#1E3250" stroke="#1E3250" stroke-width="0.5" d="M330.405,65.56l3.92,0.98l1.09,0.51l2.46,0.62l1.83,0.79
		l0.02,2.71l-1.25-0.11l0,0l-1.01,0.91l0.08,2.09l1.09-0.09l0.08,2.9l0.46,1l0.07,10.62l0.24,1.7l-0.7,0.54l-1.64-0.311l0,0
		l-2.71-0.14l0,0l-6.15,0.36v5.609l-5.22-0.09l-0.39,1.9h-4.67l-0.3-1.051l0,0l-1.21-0.01l-1.92-3.49l-5.93-5.579l-3.66,0.35v-6.9
		l-2.8-3.22l-0.41-4.9l1.97-0.01l2.51-0.54l6.87-2.33l3.01-0.76l1.94-1.27l0.62,0.2l1.07-0.49l3.34-0.83l1.49-0.79l0.17,0.6
		l-0.17,0.65l-1.08-0.3l-3.46,0.96l-1.53,0.85l-0.57,0.58l-1.85,0.96l-3.28,1.19l-1.08,1.02l-0.36,0.84l-0.59-0.06l-0.78,0.36
		l-1.49,0.05l-0.36,0.541l-0.78,0.119l-1.07-0.239l-0.84,0.3l-0.25,1.97l2.04,0.24l2.94-0.08l0.59-1.95l1.07,0.3l1.72,1.221
		l0.67-0.801l0.24-0.72l1.85-1.25l0.54-0.12l0.28,0.54l0.68,0.589l1.13-0.3l2.99,0.34l1.12-0.68l2.27-0.6l2.1-3.54l2.39,0.18
		l0.07,1.03l0.68,0.27l0.68-1.84l-0.77-1.01l-1.91-1.2l-1.38-0.59l-1.86-0.36l0.91-0.46l1.51-0.39L330.405,65.56z"/>
	<path id="EG-KN" fill="#1E3250" stroke="#1E3250" stroke-width="0.5" d="M401.295,394l-2.431-1.21l-3.72-3.149l-1.22-3.2l-0.41-3
		l0.18-1.55l-0.76-1.521l-0.15-3.12l-1.79-3.57l0.11-2.34l0.92-2.029l1.78-1.841l2.64-1.14l2.641-2.47l1.659-1.97l0.69-1.521v-2.67
		l0.52-1.59l2.881-4.7l-0.25-2.25l-1.221-2.271l-0.92-0.76l-2.58-0.13l-2.58,1.021l-1.89,1.399l-4.19,1.72l-1.149,0.7l-1.891,0.63
		l-1.84,0.13l-3.5,0.83l-4.819,0.12l-1.601-0.63l-4.86-4.24l0,0l-2.18-2.659l0,0l0.69-1.13l0.98-0.95l1.43-0.96h1.32l1.209-0.45
		l1.32-0.95l0.69-1.15l0.859-0.13l1.21,0.641l0.23,1.399l0.64,1.721l1.66,0.949l0.98,1.34h1.21l1.38-1.649l0,0l1.689-0.12
		l1.431-0.76l5-3.561l2.47-0.83l6.08-0.06l4.479,0.96l3.391,2.29l1.43,2.29l0.62,2.18l0,0l0,0l0,0l1.13,2.48l0.35,3.43l0,0
		l0.03,3.95l-0.2,0.77l0,0l-1.739,5.5l-1.971,3.15l-5.77,3.76l-1.891,3.101l-1.72,1.83l-0.8,1.829v5.381l0.8,2.529l1.55,2.46l0,0
		l0.71,0.641l0,0l0.07,3.569L401.295,394z M400.575,369.971l0.92-1.351l0.61-1.439l0.31-1.601l-2.68-0.25l-1.38,3.29l-1.07,1.271
		l1.84,0.34L400.575,369.971z"/>
	<path id="EG-LX" fill="#1E3250" stroke="#1E3250" stroke-width="0.5" d="M402.405,365.58l-0.3,1.601l-0.62,1.439l-0.91,1.351
		l-1.46,0.25l-1.84-0.341l1.08-1.26l1.38-3.3L402.405,365.58z"/>
	<path id="EG-MN" fill="#1E3250" stroke="#1E3250" stroke-width="0.5" d="M220.515,267.851l2.37-4.971l0.59-1.77l0.4-2.22l0.78-1.78
		l3.16-1.99l5.32-1.12l3.16-1.55l4.14-3.11l3.74-1.33l2.57-2l2.56-0.67l3.75-3.34l4.73-3.109l2.56-2.011l2.37-2.229l1.18-5.57
		l1.58-5.359l1.18-3.351l1.58-2.899l1.14-4.341l0,0l2.51-0.229l43.42-1.37l2.43,1.41l2.89,2.01l0,0l3.73,0.5l-0.46,1.61l0,0
		l-1.29,3.72l-0.06,4.29l0,0l-0.04,2.479l-3.53,5.771l-0.75,2.81l0.75,8.271l3.35,7.689l0.49,5.87l1.12,3.63l0.25,4.75l-0.37,3.341
		l0,0l-2.78-0.19l-1.56,1.37l-4.26-0.88h-3.03l0,0l-0.09-1.95l-90.13-0.18l0,0H220.515z"/>
	<path id="EG-MNF" fill="#1E3250" stroke="#1E3250" stroke-width="0.5" d="M325.615,113.62L325.615,113.62L325.615,113.62l4.43-0.05
		l0.47,1.21l0,0l-0.17-0.06l0.17,0.06l0,0l0.06,1.03l3.09,0.02l0,0l3.78,1.74l-0.41,4.63l0,0l-0.52,1.23l-2.41,1.84l0,0l-2.27,1.569
		l-1.28,2.66l0,0l0.4,1.88l0.88,1.74l0,0l0.17,4.71l-1.95,0.66l-0.76-0.19l0,0l-0.89-0.52l0,0l0,0l0,0l-0.8,0.9l-1.63-0.301
		l-0.9-0.89l-0.07-1.8l-0.91-0.891l-1.42,0.07l-0.09-3.18l0,0l0,0l0,0l-2.09-0.141l-0.68,0.58l-1.44,0.12l0,0l0.14-1.83l1.38-0.149
		l0,0l-0.02-5.88l0,0l-0.58-1.54l0.26-1.73l-1.17-0.88l0.46-1.81l-1.07-0.08l-0.13-0.4l0.27-4.66l0,0l3.52-0.439l0.15-0.99h2.42
		l0.07,0.899l1.16,0.051L325.615,113.62z"/>
	<path id="EG-MT" fill="#1E3250" stroke="#1E3250" stroke-width="0.5" d="M62.815,62.15l0.06,0.63l-0.2,0.6l0.04,0.42l0.4,0.5
		l-0.15,0.57l0.74,1.08l0.26,1.08l0.29,0.2l-0.64,0.6l-0.26-0.03l0.3,1.02l0.66,0.58l1.32,0.54l3.69,0.77l2.01,0.06l1.24-0.16
		l1.32,0.2l2.92-0.77l0.87,0.09l1.2-0.25l8.41-2.77l5.32-2.08l3.29-0.82l1.19,0.01l2.17,0.63l1.49,0.16l0.65,0.29l0.52-0.03
		l0.26,0.21l2.47,0.43l1.04,0.5l1.66,0.36l0.65,0.39l4.74,1.18l1.72,0.8l1.17,0.22l0.1,0.19l1.91,0.19l0.4,0.32h1.46l1.71,0.29
		l2.11,0.86l2.28-0.28l0.54-0.33l0.06,0.45l1.31,0.5l2.61-0.09l2.67,0.47l1.91-0.1l0.29,0.26l1.02,0.31l0.42,0.68l1.31,0.36
		l0.37,0.33l0.9,0.29l3.16,0.07l2.16-0.26l0.9,0.07l0.32,0.49l0.57,0.26l-0.01,0.359l0.34,0.5l1.24,0.36l0.59-0.09l0.32,0.35
		l0.29-0.189l0.11,0.79l0.72,0.439l0.87,0.29l3.2-0.069l2.43,0.359l-0.46,0.13l-0.19-0.189l-0.82-0.061l-0.21,0.221l-0.34-0.221
		l-0.25,0.16v0.44l1.77-0.061l0.17-0.2l0.14,0.32l0.7,0.12l0.24-0.26l0.29,0.149l0.15-0.199l-0.61-0.23l1.41,0.04l3.15-0.35v0.26
		l0.51,0.229l-0.27,1.25l0.3,0.631l0.61,0.609l0.02,0.521l0.61,1.26l0.15,1.05l0.92,1.13l1.97,1.37l1.75,0.36l3.06,0.01l-0.17,0.19
		l0.84,0.68l2.97-0.3l-0.06,0.609l0.47,0.38l0.61-0.06l1.34,0.29l0.17-0.42l-0.37,0.28l-0.21-0.011v-0.279l2.37-0.421l4.53-1.68
		l0.86-0.89l0.04-0.45l0.2,0.04l0.47,0.42l-0.15,0.65l0.27,0.35l-0.19-0.1l-0.09,0.409l0.21,1.181l0.95,1.06l-0.1,0.55l0.2,0.33
		l-0.22,0.13l0.16,0.48l-0.15,0.2l0.31,0.46l-0.14,0.06l0.12,0.54l0.34,0.46l1.02,0.59l1.2,0.261l4.11,0.35l5.15-0.35l2.08,1.06
		l3.25-0.12l1.97,0.44l2.58-0.811l2.62-0.29l0.51,0.36l0.26-0.09l0.17,0.39l1.24,0.87l0.92,0.13l0.62,0.36l0.9,0.06l0.77-0.29
		l-0.05,0.221h0.34l0.16,0.359l1.19,0.26l0.25,0.851l0.56,0.3l1.96,0.54l2.45,0.07l-0.05,0.17l0.37,0.16l-0.06,0.409l0.19,0.171
		l0.17-0.23l0.07,0.17l0.49,0.101h1.22l-0.22,0.39l0.5,0.59l1.11,0.51l1.62,0.13l0.11,1.36l0.19,0.29l0.95,0.78l1.51,0.71l0.67,0.93
		l1.83,0.69l0.15,0.26l0.8,0.19l0.3,0.27l0.32-0.07l-0.19,0.29l0.5,0.42l1.36,0.23l0.06,0.17l-1.44-0.33l-0.64-0.479l0.16,0.27
		l-0.25-0.13l0.29,0.35l-0.29-0.12l0.24,0.25l0.99,0.381l0.51-0.141l0.43,0.3l0.31-0.04l-0.15-0.26l2.33,0.45l3.12-0.13l3.07-0.771
		l5.99-2.14l4.37-2.33l0.94-0.33l3.77-2.229l1.31-1.25l1.8-1.32l0,0l0.91,33.65l0,0v5.72l0,0l1.28,2.03l3.16,1.54l0,0l4.26,0.14
		l6.37,5.04l1.96,0.96l0,0l0,0l0,0l7.56,5.6l2.83,0.55l1.68,1.061l0,0l1.55,3.12l0,0l-3.07,0.399l-22.68,15l-6.62,1.631l-6.46,8.289
		l-32.28,31.75l-41.89,10.061L161.805,268l0,0l-104.82-0.01l0,0h-0.81l0,0l-0.02-80.41l-0.49-0.91l-1.42-3.989l-2.1-4.351
		l-0.48-1.51l-0.74-1.08l-1.02-2.73l-0.12-0.72l0.77-1.99l0.91-1.119l0.03-1.16l-3.43-8.11l-0.13-1.35l0.16-3.66l-0.31-1.69
		l-2.69-9.13l-2.48-2.75l0.51-1.71l2.26-4.29l1.05-3.45l2.31-1.95l1.07-1.35l1.44-2.77l1.63-1.7l0.96-3.33l0.06-1.67l0.26-1.101
		l1.06-2.38l0.61-3.56l1.17-3.391l-1.27-4.359l0.02-1.03l-0.44-1.64l-0.79-1.25l-0.52-1.46l-0.29-1.771l-1.17-3.5l-1.6-3.54
		l-0.24-1.729l0.47-4.971l-0.06-2.189l-0.26-1.04l-0.63-1.01l-0.38-2.78l0.1-0.52l3.49-2.78l1.11-1.11l4.45-3.23l0.39-0.8l0.33-2.05
		l0.52-1.23l1.24-1.28l0.62-1.19L62.815,62.15z"/>
	<path id="EG-PTS" fill="#1E3250" stroke="#1E3250" stroke-width="0.5" d="M387.695,85.76l2.53,1.421l0.189,0.38l1.2,0.899l1.8,2.25
		l0.061,0.49l1.86,1.67l1.399,0.87l1.67,0.41l0,0v3.04l0,0l-3.08-0.811l-3-1.939l0,0l-3.189-1.16l-1.94-0.97l-2.2-0.17l-0.229-0.65
		l0.93-0.75l2.23-3.5L387.695,85.76z M387.695,85.76l-0.96-0.149l0.01-0.44l0.96,0.32L387.695,85.76z M386.735,84.561l-0.11,0.87
		l-0.5-0.641l0.16-0.03l0.101,0.25l0.22-0.069l0.25-0.87L386.735,84.561z M386.065,81.45l-1.14,1.76l0.569,0.471l-0.14,0.29
		l0.189,0.279l0.541,0.19l0.029,0.359l-0.92,1.23l-0.26,0.7l-0.09-1.44l0.18-0.39l-0.48-1.18l-0.31,0.569l0.13,0.391l-0.39,0.22
		l0.09,0.52l-0.3,0.721l-0.4-0.54l-0.57-1.44l0.261-0.479l-0.04-0.48l0,0l0.32-0.37l0,0l1.789,0.01L386.065,81.45z"/>
	<path id="EG-SHG" fill="#1E3250" stroke="#1E3250" stroke-width="0.5" d="M362.665,316.26l2.02,2.561l0.46,1.59l0.97,1.28
		l1.64,0.53l0.44,2.989l1.2,3.601l1.16,1.77l0.81,0.851l2.73,1.72l4.029,1.21l1.811,1.33l1.04,2.59l2.04,2.8l0.34,0.13l-0.19,1.641
		l1.96,0.88l0,0l-1.38,1.64h-1.21l-0.97-1.33l-1.66-0.95l-0.64-1.72l-0.23-1.399l-1.21-0.641l-0.859,0.13l-0.69,1.141l-1.32,0.96
		l-1.2,0.439h-1.32l-1.44,0.96l-0.97,0.95l-0.69,1.13l0,0l-0.23-0.27l0,0l-2.43-3.34l-0.9-0.381l-4.31-5.35l-2.32-3.47l-3.42-4.351
		l-4.08-5.979l-1.09-1.87l-2.01-1.53l-2.51-0.47l-5.52-6.72l-0.52-1.83l0,0l0.65-0.2l1.19-0.98l2.58-1.6l1.72-2.75l1.78,0.19
		l0.86,1.149l0.89,1.98l1.04,0.979l0.85,1.851l2.22,0.02l0,0l3.08,1.28L362.665,316.26L362.665,316.26z"/>
	<path id="EG-SHR" fill="#1E3250" stroke="#1E3250" stroke-width="0.5" d="M371.995,92.561l1.35-0.12l0.98,0.38l0.06,0.45l0.36,0.27
		l0.301-0.18l0.149-0.39l-0.24-0.271l-0.06-0.47l0.22-0.07l0.641,0.1l0.239,0.381l0.78,0.52l0.64-0.06l0,0l0.671,1.21l1.96,0.08
		l0.189,5.649l-1.7,0.05l-0.229,1.841l-1.811,4.109l0.91,3.84l0.07,2.71l-4.74,6.73l-0.26,0.939l-5.04,0.301l-0.59,0.87l-3.78-0.19
		l-0.42-0.88l-2.26-0.101l0.17,1.65l1.68,0.88l0.41,4.55l1.01,4.9l0,0l-6.29,4.4l-3.15,1.899h-4.59l0,0l-4.45-2.689l-2.13-1.66
		l-1.02-2.69l-1.21-2.39l-1.12-1.47l-1.12-1.061v-2.62l0.66-0.04l0.08-2.479l1.27-1.3l0,0l2.02-1.99l0.92-2.37l-0.84-0.771v-6.489
		l1.32-1.17l8.82-0.24l0.21-1.47l1.32-0.721l0.16-1.63l2.27-0.18l0.14-2.89l2.88-2.98l0.15-1.98l1.09-1.81l3.59,0.07l5.09-0.75
		l3.35-1.29l0,0l-0.21,0.45l-0.87,0.42V92.561z"/>
	<path id="EG-SIN" fill="#1E3250" stroke="#1E3250" stroke-width="0.5" d="M410.455,91.28l0.391,0.59l-0.141,0.25l-0.31-0.22
		l0.26,0.479l-0.41-0.51l-0.079-0.479L410.455,91.28z M435.835,89.061l0.84,0.609l-0.86-0.41l-0.04,0.2l-0.2-0.35L435.835,89.061z
		 M422.095,85.04l1.7,0.07l4.029,0.649l-0.439,0.421l-0.34-0.261l-3.03-0.62l-4.24,0.061l0.04,0.31l-0.47,0.13l0.47,0.19l0.05,0.19
		l0.32-0.131l0.1,0.16l-1.31,0.3l-0.72-0.029l-2.021,1.14l-0.66,0.57l-2.13,0.859l-0.16,0.45l-0.3,0.07l-0.22,0.32l-0.34-0.091
		l0.859-0.84l2.261-1.189l3.529-2.221l1.45-0.439L422.095,85.04z M472.595,85.44l3.71,12.31l2.56,7.51l3.96,8.311l1.3,5.41
		l-0.13,2.83l1.95,2.29l-0.93,2.62l0.109,1.59l3.141,2.05l0.92,3.439l5.33,14.971l-0.09,0.779l4.6,12.9l-0.03,2.48l0.811,1.399
		l0.2,0.97l-0.631,2.811l0.181,1.5l0.21,0.86l0.59,1.119l1.13,1.33l0,0l-2.39-0.58l-3.74,0.15l-3.73-0.73l-3.47-0.29l-3.86-0.59
		l-0.31-0.27l-1.43,0.12l-2.62-1.07l-3.62-1.13l-6.04-3.68l-3.86-0.881l-3.6-1.18l-11.37-7.33l-1.77-0.859l-8.2-1.92l-4.26,0.069
		l-1.021-0.29l-8.359-1.18l-9.771-0.29l-6.61,0.43l-0.02-0.12l-0.24,0.28l-1.87-0.07l0,0v-1.84l0,0l-1.54-0.149l0.131-11.38
		l-1.041-3.86l0,0l-0.119-0.01l0,0l-0.771-2.79l-1.41-3.851l-4.89-8.01l-1.29-24.4l0,0v-3.04l0,0l3.35-0.159l2.98-0.7l2.42-0.9
		l4.99-2.99l0.21,0.65l-0.45-0.1l-0.39,0.17l-2.521,1.25l-1.97,1.25l-0.57,0.17l-0.109,0.22l-0.94,0.2l-0.79,0.46l-3.62,0.7
		l-0.399,0.3l0.51,0.15l0.24-0.101l-0.011-0.3l0.25,0.15l1.24-0.061v0.71l-0.74,0.2l0.49,0.17l1.021-0.17l0.71-0.71l0.8,0.28
		l0.79-0.061l1.6-1.39l0.54-0.15l0.521-0.42l0.71-0.13l0.09-0.2l0.14,0.101l0.311-0.351l0.819,0.23l0.29-0.25l0.65,0.25l0.64-0.15
		l0.4,0.28l0.26-0.25l-0.03-0.51l-0.42,0.22l-0.2-0.16l-0.25,0.2l0.061-0.28l0.359-0.26l1.221,0.38l0.7,0.65l0.55-0.16l-0.05,0.33
		l0.399,0.52l-0.3-0.16l-0.13-0.159l-0.48-0.16l0.301,0.199l-0.311,0.23l0.39,0.51l-0.54,0.221l0.971,0.409h0.91l0.8-0.739
		l-0.391-0.36l-0.359,0.17l0.09-0.67l0.71-0.16l0.16-0.29l0.689,0.141l0.36-0.221l-0.07-0.29l-0.25,0.101l-0.08-0.261l0.24-0.59
		l0.49-0.149l0.04-0.42l-1.37,0.22l-0.25,0.229l-0.15,0.551l0.19,0.1l-0.27,0.32l0.149,0.33l-0.66-0.36h-1.31l-0.34,0.28
		l-0.391-0.17l-0.05-0.33l-0.24,0.069l-0.17-0.22l1.46-0.17l0.71-0.7l1.021-1.76l0.76-0.51l0.57-0.04l2.51-1.5l0.26,0.29
		l-0.52-0.101l0.24,0.15l-0.421-0.04l-0.319,0.35l0.74,0.33l-0.091,0.19l0.67,0.71l0.301,1l0.689,0.22l0.561,1.021l-0.771-0.931
		l-0.31,0.15l-0.17-0.2h-0.471l-0.109-0.58l-0.16,0.03l0.06,0.33h-0.47l0.01,0.609l0.38,0.23l-0.13,0.189l0.59,0.551l0.551-0.03
		l-0.36,0.25l-0.4-0.25l-0.189,0.26l0.21,0.04l0.01,0.42l1.2,0.57l0.689-0.07l-0.819,0.351l0.319,0.55l-0.31,0.229l0.29,0.12
		l-0.14,0.261l-0.301-0.091l-0.01,0.29l0.11-0.149l0.06,0.12l-0.2,0.29l0.57,0.06l1.1-0.29l0.9-0.55l0.16-0.55l1.71-0.23l0.521-0.78
		l0.42,0.171l-0.32-0.04l-0.2,0.25l0.32,0.229l0.31-0.3l0.76-0.13l0.41-0.36l0.271,0.04l-0.25,0.26l0.26,0.15v-0.19l0.44-0.01
		l0.06-0.28l-0.25-0.04l0.09-0.189l0.76,0.1l0.21-0.279l-0.609-0.15l-1.34,0.57l-0.44,0.41l-0.44,0.06v-0.16l1.961-0.84l0.35-0.35
		l2.63-0.25l0.22-0.421l-0.13-0.75l0.71-0.97l-0.189-0.45l0.899-0.1l-3.42-1.7l-1.7-0.26l-0.26,0.16l-0.51-0.2l-0.15-0.17l0.19-0.36
		l0.84,0.521l2.51,0.479l2.32,0.84l2.02,1.21l-0.199,0.131l-0.171-0.28l-0.56-0.16l-0.03,0.13l0.351,0.09l0.239,0.2l-0.199,0.12
		l0.46,0.06l0.21,0.25l-0.141,0.2l0.4,0.01l0.24,0.45l0.49,0.17l-0.32-0.449l0.04-0.16l-0.141-0.061l0.141-0.06l0.489,0.729
		l0.65,0.23l-0.62-0.601l0.141-0.01l0.76,0.71l0.79,0.221l1.27,0.229l3.061,0.09l3.33-0.22l1.88-0.33l4.54-1.28l0.26-0.42l0.25,0.26
		l2.21-0.64l4.07-1.729l1.04-0.25l6.35-3.69l2.38-1.77l1.601-1.471L472.595,85.44z"/>
	<path id="EG-TER" fill="#1E3250" stroke="#1E3250" stroke-width="0.5" d="M464.465,547.061l-3.681,11.17l-19.819,2.26l-17.86-13.52
		l0,0L464.465,547.061z"/>
	<path id="EG-HT" fill="#1E3250" stroke="#1E3250" stroke-width="0.5" d="M579.324,533.8l1.021,0.881l-1.121-0.11l0.09,0.5
		l-0.34-0.12l-0.289,0.42l-0.131-0.12l0.34-0.42l-0.15-0.439l0.311-0.591H579.324z M539.625,503.391l0.211,0.96l-0.092,0.319
		l-0.449,0.36l-0.02-1.24l-0.42-0.239l0.09-0.461l0.52,0.24L539.625,503.391z M538.664,502.71l0.012,0.86l-0.99-0.32l0.08-0.34
		L538.664,502.71z M533.426,491.86l0.16,0.13l0.09,0.9l0.42,0.38l-0.191,0.319l0.111,0.62l0.26,0.24l-0.17,0.45l0.379,0.26
		l0.201-0.22l0.32,0.7l-0.07,0.699l0.369,1.711l-0.141,0.859l0.801,1.63l-0.24,0.311l0.131-0.431l-0.15,0.091l-0.109-0.4h-0.311
		l-0.199,0.32l0.1,0.649l0.559,0.511l0.051-0.5l0.42-0.011l-0.26,0.261l0.32-0.12l0.17,0.85l0.77,0.78l-0.051,0.16l0.211,0.029
		l-0.199,0.311l0.309,0.54l0.16,0.08l-0.27-0.71l0.209-0.03l0.311,0.88l0.391,0.28l-0.041,0.319l0.391,0.23l0.9,1.35l0.189-0.159
		l-0.35-1.061l0.971-0.31l0.469,1.409l-0.16,0.311l-0.16-0.271l-0.26-0.01l-0.148,0.58l0.52,0.44l0.639,0.05l-0.27-0.49l-0.26,0.13
		l0.1-0.609l0.15-0.04l0.609,1.04l-0.129,0.189l0.33,0.24l-0.16,0.32l0.129-0.11l0.721,1.28l2.051,2.029h0.35l0.619,0.391
		l0.061,0.22l-0.24,0.15l0.189,0.2l0.41,0.09l-0.09-0.28l0.141-0.03l0.24,0.38l-0.189-0.05l0.049,0.16l1.109,0.24l0.361-0.13
		l0.689,0.3l0.01,0.149l-0.32,0.03l0.031-0.189l-0.361-0.03l0.291,0.13l-0.131,1.08l0.74-0.17l-0.109-0.12l0.35-0.16l0.211-0.57
		l0.639,0.78h0.92l0.811,0.4l0.211-0.12l0.5,0.13l0.078,0.24l0.221-0.19l0.67-0.03l2.041,0.79l1.869-0.159l-0.039,0.13l0.539,0.319
		l1.221-0.149l0.26,0.109l0.029,0.36l0.5,0.71l1.439,0.26l0.57,0.931l0.6,0.04l0.012,0.569l0.309,0.551l0.75,0.52l0.5,1.56
		l0.211,1.5l0.719,1.301l1.422,1.33l1.67,1.06l0.889,0.39l0.461-0.199l0.559,0.51l-0.158,1.21l0.289,1.05l0.561,1.01l2.67,1.561
		l0.639,0.05l2.48,1.3l0.471,0.601l0.75,0.359l-0.07,0.2l0.67,0.4l0.75,0.96l0.82,0.239l-0.041,0.521l0.211,0.38l0.859,0.44
		l0.57,0.84l0.689-0.01l0.191,0.55l0.959,0.939l0.99,0.32l0.85-0.17l0.271,0.13l0.148-0.42l-0.17-0.16l0.15-0.05l0.471,0.62
		l0.57,0.38l-0.08,0.75l0.148-0.07l0.141,0.601l1.301,0.819l0.65,1.04l1.359,0.42l0.609,0.561l0.291-0.04l0.049,0.399l-126.12,2.591
		l0,0l3.3-9.78l23.87-4.38l11.66-27.08l11.719,3.41l2.18-2.061l0,0L533.426,491.86z"/>
	<path id="EG-SUZ" fill="#1E3250" stroke="#1E3250" stroke-width="0.5" d="M365.635,201.521l0.78-14.24l2.19-25.47l0.04-4.351
		l-1.93-13.47l-1.23-4.26l0,0l-0.12-2.771l0,0l1.91-0.18l18.62-0.11l2.64,0.811l6.141,0.43l1.729-1.41l4.61-0.52l0,0l5.85,0.279l0,0
		l1.05,3.86l-0.13,11.39l1.54,0.141l0,0v2.66l0,0l-2.569,0.59l-6.931,5.2l0,0l-0.64-1.12l-0.6-0.57l-0.561-0.16l1.04-1.25
		l-0.12-0.359l0.24-0.591l-0.09-0.359l-0.351-0.141l-0.819-1.029l-0.641-0.221l-0.39-0.899l-0.37-0.141v0.311l-0.25,0.22
		l-0.229-0.46l-0.24-0.06l0.319-0.311l-0.31-0.13l0.18-0.45l-0.239-0.04l-0.101,0.17l0.12-0.369l-0.16-0.07l0.54-0.45l-0.399-0.57
		l-1.07,0.33l-0.07,0.2l0.33,0.5l-0.55-0.66l-0.39-0.029l0.189,7.819l-1.22,1.391l-1.92,1.399l-1.4,2.44l-0.35,3.14l-0.7,3.67
		l0.11,3.01l1.39,0.94l0.56,0.19l0.301,0.71l1.189,0.97l0.12,0.47l0.92,0.37l-0.05,0.47l0.28,0.37l1.02,0.521l1.67,1.41l0.391,0.55
		l-0.061,0.39l0.32,0.14l0.22,0.7l0.34,0.24l0.44,2.29l0.37,0.49l-0.221,0.24l0.04,0.439l0.471,0.34l-0.03,0.7l0.45,0.43l0.22,0.57
		l-0.229,0.24l-0.07,0.58l0.359,0.89l-0.229-0.15l-0.01,0.171l0.45,0.359l0.109,0.87l0.34,0.18l-0.04,1.2l0.221,0.48v0.75l0.17,0.13
		l0,0l-5.37,0.189l-3.94,2.341l-4.279,1.17l-8.03,4.939l-6.63,0.101l-5.16,0.979l0,0l0,0l0,0L365.635,201.521z"/>
	<path id="EG-WAD" fill="#1E3250" stroke="#1E3250" stroke-width="0.5" d="M221.965,267.851l90.13,0.18l0.09,1.95l0,0l-1.04,0.1
		l-0.09,2.24l0.78,0.78l0.17,1.939l1.03,0.47l0.45,2.551l0.95,2.04l1.39,1.85l0.52,2.14l1.13,1.65l1.39,0.78l6.05,5.729l0.99,0.53
		l3.81,0.63l2.69,1.55l1.71,2.811l3.64,8l2.24,3.71l0,0l0.52,1.83l5.52,6.72l2.51,0.47l2.01,1.53l1.09,1.87l4.08,5.979l3.42,4.351
		l2.32,3.47l4.31,5.35l0.9,0.381l2.43,3.34l0,0l2.41,2.93l0,0l4.859,4.24l1.601,0.63l4.82-0.13l3.5-0.82l1.84-0.13l1.89-0.64
		l1.15-0.7l4.189-1.71l1.9-1.4l2.58-1.02l2.58,0.13l0.92,0.76l1.22,2.271l0.25,2.26l-2.88,4.7l-0.51,1.58v2.67l-0.69,1.52
		l-1.67,1.97l-2.64,2.471l-2.641,1.14l-1.779,1.83l-0.92,2.03l-0.11,2.34l1.79,3.569l0.149,3.12l0.771,1.521l-0.19,1.55l0.42,2.99
		l1.221,3.2l3.72,3.159l2.44,1.2l0,0l3.489,1.62l2.681,2.521l1.6,2.01l0.39,1.85l0.03,4.771l1.73,5.75l1.8,3.479l-0.561,3.32v2.88
		l-1.409,6.97l-0.021,3.42l-0.59,4.2l-0.39,9.41l-3.74,3.91l-3.12,1.41l-1.39,1.39l0.17,3.14l3.6,3.25l0.32,1.261l-2.12,1.72
		l-2.01,0.56l-2.19,0.91l-3.85,2.38l-1.41,2.011l-1.71,5.93l-0.36,3.28l1.39,1.649l5.181,1.23l2.68,0.359l1.72-0.39l2.07-0.11
		l0.48,1.98l-0.301,0.96l-3.109,4.89l-1.54,3.24l-3.01,4.97l-1.25,2.801l-0.79,2.369l-3.881,7.511l-1.64,0.92l-1.5-0.66l-1.939-1.22
		l-2.57-0.511l-2.59-0.26l-0.98-0.38l-16.39,4.78l-1.61,0.229l-2.05-0.229l-2.77,0.02l-1.17,0.5l-1.47,1.74l-0.84,1.83l0.21,2.22
		v4.33l0.23,1.601l-0.48,1.579l-0.83,1.57l-1.92,2.16l-2.96,2.729l-4-0.119l-3.01,0.909l-4.32,2.23l-0.78,2.75l1.51,2.22l2.67-0.26
		l0,0l0.93,0.08l0.18,2.16l-1.72,5.229l-59.25,0.061v0.29l-5.51-0.261l-9.48-0.05l-143.35-0.08l-60.07,0.141l-6.26,0.25V267.98l0,0
		l0.81-0.01l0,0l106.1,0.02l0,0h0.68l0,0L221.965,267.851z"/>
</g>
</svg>
