<?xml version="1.0" encoding="utf-8"?>
<!-- Generator: Adobe Illustrator 15.0.0, SVG Export Plug-In . SVG Version: 6.00 Build 0)  -->
<!DOCTYPE svg PUBLIC "-//W3C//DTD SVG 1.1//EN" "http://www.w3.org/Graphics/SVG/1.1/DTD/svg11.dtd">
<svg version="1.1" id="Layer_1" xmlns:amcharts="http://amcharts.com/ammap"
	 xmlns="http://www.w3.org/2000/svg" xmlns:xlink="http://www.w3.org/1999/xlink" x="0px" y="0px" width="318.5px" height="296.5px"
	 viewBox="0 0 318.5 296.5" enable-background="new 0 0 318.5 296.5" xml:space="preserve">
<defs>
	
	
		<amcharts:ammap  projection="mercator" leftLongitude="44.032695" topLatitude="39.782056" rightLongitude="63.333337" bottomLatitude="24.809394">
		</amcharts:ammap>
</defs>
<g>
	<path id="IR-32" fill="#1E3250" stroke="#1E3250" stroke-width="0.5" d="M122.826,88.357l-5.354,0.39l2.888,2.297l-4.794,8.672
		l5.789,2.002l1.438-0.94l7.862-8.89L122.826,88.357z"/>
	<path id="IR-15" fill="#1E3250" stroke="#1E3250" stroke-width="0.5" d="M221.89,167.908l-16.911-6.831l-12.354,7.838l-1.018,7.675
		l-15.917,2.518l-2.165,4.628l3.043,13.495l-2.63,0.889l9.854,13.616l6.233,3.037l6.247-2.843l0.611,9.456l3.916,3.614l9.073-2.463
		l6.009,19.582l11.085,4.112l-1.765,8.944l11.17,3.251l-1.239-19.208l3.773-17.281l-2.182-2.504l6.742-3.841l-0.923-15.934
		l3.017-14.793l-7.641-9.704L221.89,167.908z"/>
	<path id="IR-13" fill="#1E3250" stroke="#1E3250" stroke-width="0.5" d="M272.267,273.266l5.935-18.218l8.245-5.296l10.183-0.994
		l1.693-3.885l-0.014-5.409l-7.298-0.838l0.268-15.591l-12.235-4.743l-14.767-21.228l13.491-16.141l-2.759-8.91l-6.776-0.994
		l-1.272,17.091l-10.389-6.46l-11.011,3.213l-3.017,14.793l0.923,15.934l-6.742,3.841l2.182,2.504l-3.773,17.281l1.239,19.208
		l5.466,9.06l17.128,2.188l1.161-2.44L272.267,273.266z"/>
	<path id="IR-31" fill="#1E3250" stroke="#1E3250" stroke-width="0.5" d="M217.123,60.029l-4.37-6.338l-14.356,3.505l1.92,7.971
		l-6.135,4.964l3.132,3.549l1.615,7.224l6.58,1.782l4.251-5.745l17.07,5.133l-2.49-6.759l2.803-6.847l-9.287-4.357l2.626-3.65
		L217.123,60.029z"/>
	<path id="IR-30" fill="#1E3250" stroke="#1E3250" stroke-width="0.5" d="M221.401,61.006l-0.919-0.546l-2.626,3.65l9.287,4.357
		l-2.803,6.847l2.49,6.759l-17.07-5.133l-4.251,5.745l1.208,11.668l4.431,5.982l-12.134,12.497l14.899-5.083l5.674,3.569
		l-9.385,14.563l0.76,7.76l3.461,1.381l3.597-0.838l3.132,11.065l5.147,4.164l9.637-12.385l-3.125-3.071l0.417-8.171l12.188-2.208
		l3.983,3.562l9.867-0.21l5.663-4.051l-2.688-3.373l5.151-5.106l3.163-12.639l-1.748-18.967l-11.601-0.014l-4.55-6.84l-7.852-3.21
		l-2.104-5.721L221.401,61.006z"/>
	<path id="IR-29" fill="#1E3250" stroke="#1E3250" stroke-width="0.5" d="M249.397,127.14l-3.983-3.562l-12.188,2.208l-0.417,8.171
		l3.125,3.071l-9.637,12.385l1.048,7.532l-5.456,10.963l16.029,7.251l7.641,9.704l11.011-3.213l10.389,6.46l1.272-17.091
		l-4.275-0.753l-3.644-26.049l5.042-7.682l-5.761-2.101l-0.329-7.505L249.397,127.14z"/>
	<path id="IR-16" fill="#1E3250" stroke="#1E3250" stroke-width="0.5" d="M86.554,99.297l-4.73-3.912l-0.346-8.51l-7.505-1.825
		l-2.694,2.911l-15.415-1.87l-7.679,7.729l11.526,3.277l-5.076,4.133l2.338,5.076l7.054,7.299l3.821,1.951l7.651-7.268l5.785,3.766
		l4.224-2.521l-4.957-8.452L86.554,99.297z"/>
	<path id="IR-19" fill="#1E3250" stroke="#1E3250" stroke-width="0.5" d="M95.691,50.861l-3.681,0.688l1.992,1.798l-4.201,7.431
		l6.006,12.036l5.117,6.875l5.124,3.892l9.786-1.384l3.827-5.609l-5.361-7.078l-15.92-5.141L95.691,50.861z"/>
	<path id="IR-17" fill="#1E3250" stroke="#1E3250" stroke-width="0.5" d="M64.027,113.605l-7.054-7.299l0.251,3.196l-6.708,5.029
		l0.488,4.377l-4.007,1.829l2.056,2.647l-2.572,5.371l4.849,5.771l1.371-6.457l14.56,3.719l7.472-4.126l4.333-5.31l4.17-1.388
		l-0.292-3.026l-5.337-1.086l3.678-4.798l-5.785-3.766l-7.651,7.268L64.027,113.605z"/>
	<path id="IR-01" fill="#1E3250" stroke="#1E3250" stroke-width="0.5" d="M67.037,42.232l3.573-1.801l-1.126-3.18l-6.783,5.514
		l-14.61-1.792L42.383,53.86l3.766,16.751l13.186,7.936l4.873-3.192l3.098,5.521l4.716-0.2l5.514-7.014l12.252-1.222l-7.204-6.063
		L79.33,54.423l-6.776-0.302l5.361-5.49l-1.222-9.494l-7.438,7.136l-5.68,0.136L67.037,42.232z"/>
	<path id="IR-02" fill="#1E3250" stroke="#1E3250" stroke-width="0.5" d="M35.01,26.688l-2.504,6.423l-5.256,0.736l6.253,18.733
		l-3.617,7.896l5.551,3.224l3.312,16.358l5.741,6.823l1.144,7.136l2.551-0.197l7.679-7.729l15.415,1.87l2.694-2.911l-1.951-4.374
		l-4.716,0.2l-3.098-5.521l-4.873,3.192l-13.186-7.936L42.383,53.86l5.707-12.887l-9.684-11.978L35.01,26.688z"/>
	<path id="IR-28" fill="#1E3250" stroke="#1E3250" stroke-width="0.5" d="M106.047,83.58l-5.124-3.892l-3.254,2.745l5.483,9.579
		l-11.35,4.537l2.877,3.692l8.984,3.43l11.9-3.953l4.794-8.672l-2.888-2.297l5.354-0.39l-6.993-6.162L106.047,83.58z"/>
	<path id="IR-11" fill="#1E3250" stroke="#1E3250" stroke-width="0.5" d="M95.807,72.814l-6.02-0.374l-12.252,1.222l-5.514,7.014
		l1.951,4.374l7.505,1.825l0.346,8.51l4.73,3.912l8.126,0.943l-2.877-3.692l11.35-4.537l-5.483-9.579l3.254-2.745L95.807,72.814z"/>
	<path id="IR-24" fill="#1E3250" stroke="#1E3250" stroke-width="0.5" d="M86.554,99.297l-6.002,1.785l4.957,8.452l-4.224,2.521
		l-3.678,4.798l5.337,1.086l0.292,3.026l-4.17,1.388l17.987,6.138l-1.069-10.634l2.908,0.193l0.546-5.276l6.009,2.433l-4.526-4.907
		l2.745-6.63l-8.984-3.43L86.554,99.297z"/>
	<path id="IR-26" fill="#1E3250" stroke="#1E3250" stroke-width="0.5" d="M138.058,113.354l-15.459-5.897l-1.283,5.202l-6.796,1.659
		l-2.13,4.15l5.371,6.016l8.333,2.022l0.424-5.324l10.224-2.114L138.058,113.354z"/>
	<path id="IR-22" fill="#1E3250" stroke="#1E3250" stroke-width="0.5" d="M121.354,101.719l-5.789-2.002l-11.9,3.953l-2.745,6.63
		l4.526,4.907l-6.009-2.433l-0.546,5.276l-2.908-0.193l1.069,10.634l0.047,4.618l6.892-2.877l7.577,6.565l12.639-5.351l1.886-4.94
		l-8.333-2.022l-5.371-6.016l2.13-4.15l6.796-1.659l1.283-5.202l0.193-6.678L121.354,101.719z"/>
	<path id="IR-03" fill="#1E3250" stroke="#1E3250" stroke-width="0.5" d="M82.781,27.764l-13.297,9.487l1.126,3.18l-3.573,1.801
		l-3.461,4.177l5.68-0.136l7.438-7.136l1.222,9.494l-5.361,5.49l6.776,0.302l3.254,11.954l7.204,6.063l6.02,0.374l-6.006-12.036
		l4.201-7.431l-1.992-1.798l-8.73-8.191l4.234-2.796l-2.643-4.804l3.278-1.999L82.781,27.764z"/>
	<path id="IR-23" fill="#1E3250" stroke="#1E3250" stroke-width="0.5" d="M182.73,260.705l-0.149-0.441l-0.448,0.177L182.73,260.705
		z M175.673,260.155l-0.095-0.417l-0.516,0.197L175.673,260.155z M175.293,254.635l0.299-0.607l-0.574-0.482L175.293,254.635z
		 M168.558,250.831l-0.411-0.974l-1.635,0.305L168.558,250.831z M194.495,248.785l0.064-0.879l-0.577,0.923L194.495,248.785z
		 M163.082,248.072l-0.424-0.349l-0.394,0.183L163.082,248.072z M159.176,245.955l-3.274-0.706l1.035,0.763L159.176,245.955z
		 M201.389,245.396l0.353-0.858l-1.153,0.926L201.389,245.396z M198.464,244.32l-5.823-0.747l-6.657,6.216L198.464,244.32z
		 M202.834,242.114l-0.37-0.893l-0.295,0.76L202.834,242.114z M190.026,214.773l-6.233-3.037l5.036,9.117l0.658,8.951l-8.357,5.337
		l-12.473,0.573l-2.82,4.927l-12.449-3.844l-4.112,0.947l14.607,9.704l15.14,3.353l18.771-10.495l9.65,0.336l7.078,21.322
		l27.318,5.521l-5.466-9.06l-11.17-3.251l1.765-8.944l-11.085-4.112l-6.009-19.582L200.799,225l-3.916-3.614l-0.611-9.456
		L190.026,214.773z"/>
	<path id="IR-05" fill="#1E3250" stroke="#1E3250" stroke-width="0.5" d="M74.733,127.663l-7.472,4.126l-14.56-3.719l-1.371,6.457
		l6.067,6.294l-0.821,5.14l17.553,8.296l3.335,5.918l4.489-8.303l-15.085-16.005l7.909-5.083L74.733,127.663z"/>
	<path id="IR-20" fill="#1E3250" stroke="#1E3250" stroke-width="0.5" d="M79.065,122.353l-4.333,5.31l0.044,3.122l-7.909,5.083
		l15.085,16.005l3.454-6.776l17.403,3.526l1.035-0.218l7.723-11.607l-7.577-6.565l-6.892,2.877l-0.047-4.618L79.065,122.353z"/>
	<path id="IR-10" fill="#1E3250" stroke="#1E3250" stroke-width="0.5" d="M102.811,148.622l-17.403-3.526l-3.454,6.776l-4.489,8.303
		l3.621,5.296l-2.314,13.029l4.777,0.092l0.021,8.604l6.348,7.74l6.352-0.862l-0.747-4.947l1.021-1.191l1.442-0.228l-1.289-0.771
		l0.502-0.587l3.237,0.153l-0.115,2.609l-1.985-1.004l-1.985,0.444l3.383,2.562l0.845-0.665l0.336,1.761l3.305,0.007l0.74,2.168
		l7.299-3.003l5.34-0.187l-0.482-7.791l-6.301-3.203l-0.19-5.758l4.547-4.068l1.306-2.705l-8.649-14.21l-3.983-5.06L102.811,148.622
		z"/>
	<path id="IR-08" fill="#1E3250" stroke="#1E3250" stroke-width="0.5" d="M130.006,175.715l-0.19-14.546l-6.25-9.714l-15.737,2.009
		l8.649,14.21l-1.306,2.705l3.468,1.608l6.413,4.679L130.006,175.715z"/>
	<path id="IR-25" fill="#1E3250" stroke="#1E3250" stroke-width="0.5" d="M214.422,135.022l-3.461-1.381l-0.76-7.76l9.385-14.563
		l-5.674-3.569l-14.899,5.083l-5.065,8.541l-6.698,1.113l-0.217,12.69l-7.679,10.511l-27.195,7.794l-0.183,15.085l7.525,5.544
		l9.389,20.905l5.049,3.105l2.63-0.889l-3.043-13.495l2.165-4.628l15.917-2.518l1.018-7.675l12.354-7.838l16.911,6.831l5.456-10.963
		l-1.048-7.532l-5.147-4.164l-3.132-11.065L214.422,135.022z"/>
	<path id="IR-07" fill="#1E3250" stroke="#1E3250" stroke-width="0.5" d="M141.237,97.963l-10.583-6.074l-7.862,8.89l-0.193,6.678
		l15.459,5.897l-0.173-11.971l11.336,4.042l5.242-3.322l-0.176-5.249l-8.961-2.524L141.237,97.963z"/>
	<path id="IR-12" fill="#1E3250" stroke="#1E3250" stroke-width="0.5" d="M197.314,73.679l-3.132-3.549l-5.113,10.264l-19.497,5.056
		l-8.123,9.473l-7.163,1.931l0.176,5.249l-5.242,3.322l-11.336-4.042l0.173,11.971l-1.316,5.714l4.102,1.707l46.407,1.71
		l6.698-1.113l5.065-8.541l12.134-12.497l-4.431-5.982l-1.208-11.668l-6.58-1.782L197.314,73.679z"/>
	<path id="IR-21" fill="#1E3250" stroke="#1E3250" stroke-width="0.5" d="M163.733,79.631l4.241-2.402l-29.543,6.504l-18.771-7.146
		l-3.827,5.609l6.993,6.162l7.828,3.532l10.583,6.074l4.088-3.634l8.961,2.524l7.163-1.931l8.123-9.473L163.733,79.631z"/>
	<path id="IR-27" fill="#1E3250" stroke="#1E3250" stroke-width="0.5" d="M195.746,57.464l-7.821-0.18L177.091,68.63l-10.423,1.707
		l1.679,8.774l-4.614,0.52l5.839,5.819l19.497-5.056l5.113-10.264l6.135-4.964l-1.92-7.971L195.746,57.464z"/>
	<path id="IR-14" fill="#1E3250" stroke="#1E3250" stroke-width="0.5" d="M146.099,169.964l-4.384-3.301l-6.915,2.714l3.104,3.77
		l-3.247,9.005l-0.014,3.349l-6.925-1.635l0.435,5.999l-8.137,2.538l10.488,10.006l22.883,34.389l12.449,3.844l2.82-4.927
		l12.473-0.573l8.357-5.337l-0.658-8.951l-5.036-9.117l-9.854-13.616l-5.049-3.105l-9.389-20.905l-7.525-5.544L146.099,169.964z"/>
	<path id="IR-04" fill="#1E3250" stroke="#1E3250" stroke-width="0.5" d="M140.843,120.775l-4.102-1.707l-10.224,2.114l-0.424,5.324
		l-1.886,4.94l-12.639,5.351l-7.723,11.607l3.983,5.06l15.737-2.009l6.25,9.714l0.19,14.546l4.652,6.437l3.247-9.005l-3.104-3.77
		l6.915-2.714l4.384,3.301l5.877-1.398l0.183-15.085l27.195-7.794l7.679-10.511l0.217-12.69L140.843,120.775z"/>
	<path id="IR-06" fill="#1E3250" stroke="#1E3250" stroke-width="0.5" d="M116.142,207.576l0.115-0.804l-0.723-0.167
		L116.142,207.576z M130.504,202.409l-10.488-10.006l-2.419-1.205l-5.34,0.187l8.517,12.31l-0.16,4.937l4.027,1.432l-1.761,1.947
		l8.381,16.046l14.926,4.761l3.087,4.927l4.112-0.947L130.504,202.409z"/>
	<path id="IR-18" fill="#1E3250" stroke="#1E3250" stroke-width="0.5" d="M118.639,171.986l-3.468-1.608l-4.547,4.068l0.19,5.758
		l6.301,3.203l0.482,7.791l2.419,1.205l8.137-2.538l-0.435-5.999l6.925,1.635l0.014-3.349l-4.652-6.437l-4.954,0.95L118.639,171.986
		z"/>
</g>
</svg>
