<?xml version="1.0" encoding="utf-8"?>
<!-- Generator: Adobe Illustrator 15.0.0, SVG Export Plug-In . SVG Version: 6.00 Build 0)  -->
<!DOCTYPE svg PUBLIC "-//W3C//DTD SVG 1.1//EN" "http://www.w3.org/Graphics/SVG/1.1/DTD/svg11.dtd">
<svg version="1.1" id="Layer_1" xmlns:amcharts="http://amcharts.com/ammap"
	 xmlns="http://www.w3.org/2000/svg" xmlns:xlink="http://www.w3.org/1999/xlink" x="0px" y="0px" width="304.299px"
	 height="338.315px" viewBox="0 0 304.299 338.315" enable-background="new 0 0 304.299 338.315" xml:space="preserve">
<defs>
	
	
		<amcharts:ammap  projection="mercator" leftLongitude="38.793603" topLatitude="37.380645" rightLongitude="48.575916" bottomLatitude="29.061208">
		</amcharts:ammap>
</defs>
<g>
	<path id="IQ-BB" fill="#1E3250" stroke="#1E3250" stroke-width="0.5" d="M166.562,165.23l-1.959,1.872l-11.26-2.295l5.533,3.796
		l3.224,10.397l3.806,1.331l1.567,13.365l1.532,6.649l3.571-2.385l3.685,1.903l3.391,1.269l12.703-9.139l-7.43-11.101l-11.011-3.415
		l-0.198-6.057l-0.995-5.744L166.562,165.23z"/>
	<path id="IQ-AN" fill="#1E3250" stroke="#1E3250" stroke-width="0.5" d="M115.715,104.261l-14.353,0.291l-22.421-6.729
		l0.336,12.637l-6.764,13.455L10.49,159.049l8.001,29.521l-2.232,0.725l1.428,4.917l6.445-0.479l1.009,3.287l-4.123,4.226
		l36.174,6.598l46.748,27.916l20.046,17.432l13.306-36.452l5.225-7.443l9.95-5.231l-2.798-4.5l-13.587-13.493l15.521-8.269
		l10.495,1.2l-3.224-10.397l-5.533-3.796l11.26,2.295l1.959-1.872l-0.267-6.414l-0.936-1.858l-4.098-1.106l-2.791-6.712
		l-16.188-3.467l-8.431-7.985l-5.749-17.001l-4.292,1.816l-6.722-5.231L115.715,104.261z"/>
	<path id="IQ-DI" fill="#1E3250" stroke="#1E3250" stroke-width="0.5" d="M209.281,106.667l0.763-3.904l-3.117-3.245l-7.464,15.113
		l-6.569,5.478l-0.895-9.323l-6.223-2.891l-9.5,11.815l-3.519-1.324l0.076,10.304l-6.209,8.525l4.483,2.662l-1.313,11.532
		l-4.435,5.55l0.936,1.858l7.118-1.002l-0.69,7.863l0.995,5.744l2.042-2.406l2.461,2.062l3.838-5.346l18.604,3.568l13.382-14.467
		l-3.168,0.055l0.946-4.639l-4.289,1.623l-10.026-13.296l5.172-10.799l-4.132-5.318l2.368-5.062l5.686,1.387l-2.101-5.832
		L209.281,106.667z"/>
	<path id="IQ-SU" fill="#1E3250" stroke="#1E3250" stroke-width="0.5" d="M209.281,106.667l3.311-6.369l6.736-0.839l-5.297-13.271
		l1.127-6.269l9.153-4.507l-16.364-0.264l-5.918-6.396l-5.717,0.513l-2.808-14.863l-4.393-0.343l-2.101-3.641l-13.295,5.183
		l4.396,5.433l-1.921,3.068l9.919,7.981l-9.919,0.458l4.476,6.982l0.509,7.88l-3.071,9.399l-3.762,2.052l11.035,5.267l0.399,3.772
		l6.223,2.891l0.895,9.323l6.569-5.478l7.464-15.113l3.117,3.245L209.281,106.667z"/>
	<path id="IQ-WA" fill="#1E3250" stroke="#1E3250" stroke-width="0.5" d="M232.056,177.607l-14.26-4.441l0.662-3.626l-2.552-1.487
		l3.793-4.656l-5.655-8.563L200.662,169.3l-18.604-3.568l-3.838,5.346l-2.461-2.062l-2.042,2.406l0.198,6.057l11.011,3.415
		l7.43,11.101l5.478,1.99l9.451,12.949l16.752-1.924l7.343,0.731l0.763-5.017l-4.958-3.873L232.056,177.607z"/>
	<path id="IQ-MA" fill="#1E3250" stroke="#1E3250" stroke-width="0.5" d="M262.512,230.575l4.473-18.905l-9.714-11.444
		l-4.188-10.384l-7.155-0.534l-13.871-11.701l-4.872,19.245l4.958,3.873l-0.763,5.017l-7.343-0.731l12.235,26.837l10.661,2.261
		l6.331-4.84L262.512,230.575z"/>
	<path id="IQ-DQ" fill="#1E3250" stroke="#1E3250" stroke-width="0.5" d="M246.932,234.108l-10.661-2.261l-12.235-26.837
		l-16.752,1.924l1.702,9.87l-1.869,26.952l18.447,3.429l5.755,7.218l14.544-1.962L246.932,234.108z"/>
	<path id="IQ-QA" fill="#1E3250" stroke="#1E3250" stroke-width="0.5" d="M192.355,191.995l-12.703,9.139l-3.391-1.269l-3.692,6.906
		l1.196,10.391l-3.183,1.844l8.425,5.904l7.118,4.798l3.689-11.24l-2.372-2.586l5.53-1.678l16.014,2.6l-1.702-9.87l-9.451-12.949
		L192.355,191.995z"/>
	<path id="IQ-MU" fill="#1E3250" stroke="#1E3250" stroke-width="0.5" d="M225.17,301.737l5.776-1.976l5.183-31.428l-4.809-13.93
		l-5.755-7.218l-18.447-3.429l1.869-26.952l-16.014-2.6l-5.53,1.678l2.372,2.586l-3.689,11.24l-7.118-4.798l-2.826,13.258
		l-10.054,10.903l-12.682,28.259l25.295,20.195L225.17,301.737z"/>
	<path id="IQ-BA" fill="#1E3250" stroke="#1E3250" stroke-width="0.5" d="M262.512,230.575l-9.25-1.307l-6.331,4.84l-1.068,18.333
		l-14.544,1.962l4.809,13.93l-5.183,31.428l17.997-29.625l13.504-2.094l7.752,3.408l-0.371-3.699l0.967,3.37l4.25-1.338l12.46,3.217
		l-7.18-11.989l-8.269-4.958l-0.039-17.296l-9.606-0.188L262.512,230.575z"/>
	<path id="IQ-BG" fill="#1E3250" stroke="#1E3250" stroke-width="0.5" d="M172.722,165.678l0.69-7.863l-7.118,1.002l0.267,6.414
		L172.722,165.678z"/>
	<path id="IQ-" fill="#1E3250" stroke="#1E3250" stroke-width="0.5" d="M162.1,179.001l-10.495-1.2l-15.521,8.269l13.587,13.493
		l17.803-5.866l-1.567-13.365L162.1,179.001z"/>
	<path id="IQ-NA" fill="#1E3250" stroke="#1E3250" stroke-width="0.5" d="M176.262,199.865l-3.685-1.903l-3.571,2.385l-1.532-6.649
		l-17.803,5.866l2.798,4.5l-9.95,5.231l-5.225,7.443l-13.306,36.452l29.458,24.14l12.682-28.259l10.054-10.903l2.826-13.258
		l-8.425-5.904l3.183-1.844l-1.196-10.391L176.262,199.865z"/>
	<path id="IQ-SD" fill="#1E3250" stroke="#1E3250" stroke-width="0.5" d="M140.258,87.436l-0.676-9.232l-12.855,8.456l4.4,13.112
		l-14.7,1.124l-0.71,3.367l1.373,13.011l6.722,5.231l4.292-1.816l5.749,17.001l8.431,7.985l16.188,3.467l2.791,6.712l4.098,1.106
		l4.435-5.55l1.313-11.532l-4.483-2.662l6.209-8.525l-0.076-10.304l3.519,1.324l9.5-11.815l-0.399-3.772l-11.035-5.267
		l-7.749,14.658l-22.49-14.024l-6.355-10.428L140.258,87.436z"/>
	<path id="IQ-NI" fill="#1E3250" stroke="#1E3250" stroke-width="0.5" d="M153.564,32.904l-5.062-1.071l2.232,3.73l-2.247,3.904
		l-9.292-3.824l-3.817,5.54l-9.694,3.02l-9.61-5.613l0.104-4.313l-3.706-3.151l-15.837,16.35l-12.228,2.937l-3.072,5.686
		l-1.141,10.332l3.592,14.152l-4.847,17.241l22.421,6.729l14.353-0.291l0.71-3.367l14.7-1.124l-4.4-13.112l12.855-8.456l0.527-9.631
		l3.977-1.834l10.217-16.062l12.679-7.963L153.564,32.904z"/>
	<path id="IQ-AR" fill="#1E3250" stroke="#1E3250" stroke-width="0.5" d="M187.009,50.419l1.03-5.353l-6.078-4.375l1.588-7.933
		l-3.779-5.083l-4.063-0.683l-10.39,7.118l-0.236-9.194l-4.698-2.739l0.835,3.772l-7.655,6.955l13.417,9.808l-12.679,7.963
		l-10.217,16.062l-3.977,1.834l-0.527,9.631l0.676,9.232l10.581-2.75l5.096-10.751l5.121,2.26l15.133-3.654l9.919-0.458
		l-9.919-7.981l1.921-3.068l-4.396-5.433L187.009,50.419z"/>
	<path id="IQ-KI" fill="#1E3250" stroke="#1E3250" stroke-width="0.5" d="M176.189,72.542l-15.133,3.654l-5.121-2.26l-5.096,10.751
		l-10.581,2.75l-2.51,1.626l6.355,10.428l22.49,14.024l7.749-14.658l3.762-2.052l3.071-9.399l-0.509-7.88L176.189,72.542z"/>
	<path id="IQ-DA" fill="#1E3250" stroke="#1E3250" stroke-width="0.5" d="M123.651,20l-11.178,11.125l3.706,3.151l-0.104,4.313
		l9.61,5.613l9.694-3.02l3.817-5.54l9.292,3.824l2.247-3.904l-2.232-3.73l5.062,1.071l7.655-6.955l-0.835-3.772l-7.35,4.056
		L123.651,20z"/>
</g>
</svg>
