<?xml version="1.0" encoding="utf-8"?>
<!-- Generator: Adobe Illustrator 15.0.0, SVG Export Plug-In . SVG Version: 6.00 Build 0)  -->
<!DOCTYPE svg PUBLIC "-//W3C//DTD SVG 1.1//EN" "http://www.w3.org/Graphics/SVG/1.1/DTD/svg11.dtd">
<svg version="1.1" id="Layer_1" xmlns:amcharts="http://amcharts.com/ammap"
	 xmlns="http://www.w3.org/2000/svg" xmlns:xlink="http://www.w3.org/1999/xlink" x="0px" y="0px" width="817.575px"
	 height="1082.556px" viewBox="0 0 817.575 1082.556" enable-background="new 0 0 817.575 1082.556" xml:space="preserve">
<defs>
	
	
		<amcharts:ammap  projection="mercator" leftLongitude="35.1037781" topLatitude="34.69209" bottomLatitude="33.0550256" rightLongitude="36.62372">
		</amcharts:ammap>
</defs>
<g>
	<path id="LB-JA" fill="#1E3250" stroke="#1E3250" stroke-width="0.5" d="M273.41,755.63l-9.14-61.51l-63.55,22.02l-52.95-11.35
		L91.43,788.9L40.24,971.57L0.38,1015.27l100.52,1.311l75.08-136.32l-40.55-2.42l-30.41-32.07l12.68-16.729l25.06,9.729l22.68-59.01
		l60.18-18.729l10.29,97.16l48.81-53.891L273.41,755.63z"/>
	<path id="LB-NA" fill="#1E3250" stroke="#1E3250" stroke-width="0.5" d="M130.82,1044.23l71.71-20.16l36.84-122.91l28.88,26
		l128.17-113.59l-68.52-39.46L284.72,804.3l-48.81,53.891l-10.29-97.16l-60.18,18.729l-22.68,59.01l-25.06-9.729l-12.68,16.729
		l30.41,32.07l40.55,2.42l-75.08,136.32L130.82,1044.23z"/>
	<path id="LB-JL" fill="#1E3250" stroke="#1E3250" stroke-width="0.5" d="M484.71,344.74l-194.62-42.02l-2.17,140.03l-49.29,59.7
		l-34.58,26.26l-56.28,176.08l52.95,11.35l63.55-22.02l9.14,61.51l67.7-143.54l35.36-29.52l-19.88-17.34l97.21-118.45L484.71,344.74
		z"/>
	<path id="LB-BA" fill="#1E3250" stroke="#1E3250" stroke-width="0.5" d="M238.63,502.45l-38.39-2.42l3.81,28.68L238.63,502.45z"/>
	<path id="LB-AS" fill="#1E3250" stroke="#1E3250" stroke-width="0.5" d="M642.81,0L617.66,38.95l-154.95-14.6l7.04,71.77
		l-42.41,39.11l-52.01,8.41l0.39,32.16l-74.87,66.7l-10.76,60.22l194.62,42.02L610.99,145.8l42.939-23.87l58.61-84.35l-38.6,0.1
		L642.81,0z"/>
	<path id="LB-BI" fill="#1E3250" stroke="#1E3250" stroke-width="0.5" d="M396.42,813.57l39.51-27.761l7.301-41.71l54.189-25.479
		l-60.39-46.24l38.479-76.88l76.65-57.49l116.45,17.17l5.39-21.6l-52.44-31.5l10.431-25.44l54.47-62.93l44.69-5.63l68.47-93.44
		l-11.75-64.78l-33.66-34.57l3.46-44.61l-48.7-45.99l-55.04-2.76L610.99,145.8L484.71,344.74L453.8,446.78l-97.21,118.45
		l19.88,17.34l-35.36,29.52l-67.7,143.54l11.31,48.67l43.18-30.189L396.42,813.57z"/>
</g>
</svg>
