<?xml version="1.0" encoding="utf-8"?>
<!-- Generator: Adobe Illustrator 15.0.0, SVG Export Plug-In . SVG Version: 6.00 Build 0)  -->
<!DOCTYPE svg PUBLIC "-//W3C//DTD SVG 1.1//EN" "http://www.w3.org/Graphics/SVG/1.1/DTD/svg11.dtd">
<svg version="1.1" id="Layer_1" xmlns:amcharts="http://amcharts.com/ammap"
	 xmlns="http://www.w3.org/2000/svg" xmlns:xlink="http://www.w3.org/1999/xlink" x="0px" y="0px" width="1024px" height="768px"
	 viewBox="0 0 1024 768" enable-background="new 0 0 1024 768" xml:space="preserve">
<defs>
	
	
		<amcharts:ammap  projection="mercator" leftLongitude="9.391466" topLatitude="33.1679793" bottomLatitude="19.5008125" rightLongitude="25.146954">
		</amcharts:ammap>
</defs>
<g>
	<path id="LY-WD" fill="#1E3250" stroke="#1E3250" stroke-width="0.5" d="M236.97,352.67l-48.87-6.87l-82.45,58.22l1.25,37.271
		l38.28-1.36l89.33-37.56l10.67-23.86L236.97,352.67z"/>
	<path id="LY-BU" fill="#1E3250" stroke="#1E3250" stroke-width="0.5" d="M790.67,297.68l-0.35-65.54l-14.38-54.71l15.42-35.19
		l-7.351-33.12l15.471-18.57l-8.79-18.06l-87.11-14.78l-14.22,83.69l4.689,153.85L790.67,297.68z"/>
	<path id="LY-QB" fill="#1E3250" stroke="#1E3250" stroke-width="0.5" d="M703.58,57.71l-7.311-25.24l-56.39-16.36l-3.439,96.93
		l9.8,9.55l43.12,18.81L703.58,57.71z"/>
	<path id="LY-SR" fill="#1E3250" stroke="#1E3250" stroke-width="0.5" d="M478.97,166.48l-71.7-41.94l-61.85-10.27l19.83,95.09
		l-5.67,12.97l46.08,7.29l12.399-6.47l20.24,38.11l26.03,13.24L478.97,166.48z"/>
	<path id="LY-BA" fill="#1E3250" stroke="#1E3250" stroke-width="0.5" d="M606.3,127.57l-5.22-29.81l-33.57-2.28l-9.979-20.66
		l11.359-37.74l-32.02,36.01l10.149,43.38l22.761,12.75L606.3,127.57z"/>
	<path id="LY-WA" fill="#1E3250" stroke="#1E3250" stroke-width="0.5" d="M606.3,127.57l-36.52,1.65l-22.761-12.75l-5.289,23.78
		l-21.15,23.27l-23.69,9.13l-17.92-6.17L464.33,274.5l33.88,8.86l-0.12,75.871l292.58-2.051v-59.5l-96.62-2.43L689.36,141.4
		l-43.12-18.81l-19.9,3.19L606.3,127.57z"/>
	<path id="LY-JA" fill="#1E3250" stroke="#1E3250" stroke-width="0.5" d="M639.88,16.11l-31.67,7.95l18.13,101.72l19.9-3.19
		l-9.8-9.55L639.88,16.11z"/>
	<path id="LY-HZ" fill="#1E3250" stroke="#1E3250" stroke-width="0.5" d="M608.21,24.06l-39.32,13.02L557.53,74.82l9.979,20.66
		l33.57,2.28l5.22,29.81l20.04-1.79L608.21,24.06z"/>
	<path id="LY-TN" fill="#1E3250" stroke="#1E3250" stroke-width="0.5" d="M235.52,25.39l-42.85-7.15l-1.35,9.36l8.06,23.14
		L235.52,25.39z"/>
	<path id="LY-MZ" fill="#1E3250" stroke="#1E3250" stroke-width="0.5" d="M207.49,67.57l-7.39-15.86l-21.71,3.41l-48.18-2.82
		l5.06,72.58l-18.79,31.56l7.02,84.46l11.2,28.27l37.09,9.44l61.52-65.46l25.64,20.71l16.75-11.33l5.12-26.45l4.83-31.85
		l-37.18-18.24L207.49,67.57z"/>
	<path id="LY-ZA" fill="#1E3250" stroke="#1E3250" stroke-width="0.5" d="M191.32,27.6l1.35-9.36l-26.69,3.89L130.21,52.3
		l48.18,2.82L191.32,27.6z"/>
	<path id="LY-NQ" fill="#1E3250" stroke="#1E3250" stroke-width="0.5" d="M112.21,0l1.06,45.72l16.94,6.58l35.77-30.17L112.21,0z"/>
	<path id="LY-JI" fill="#1E3250" stroke="#1E3250" stroke-width="0.5" d="M199.38,50.74l-8.06-23.14l-12.93,27.52l21.71-3.41
		L199.38,50.74z"/>
	<path id="LY-SB" fill="#1E3250" stroke="#1E3250" stroke-width="0.5" d="M328.23,319.08l-36.62,5.07l-32.59,26.04l-22.05,2.479
		l8.21,25.84l-10.67,23.86l24.67-7.271l20.3-21.479l73.11-17.91L328.23,319.08z"/>
	<path id="LY-MI" fill="#1E3250" stroke="#1E3250" stroke-width="0.5" d="M345.42,114.27L314.06,92.6l-12.32-41.57l-25.87-7.2
		l-4.49,28.67l-27.42-10.38l-36.47,5.45l40.98,78.42l37.18,18.24l-4.83,31.85l44.63,27.11l34.13-0.86l5.67-12.97L345.42,114.27z"/>
	<path id="LY-MQ" fill="#1E3250" stroke="#1E3250" stroke-width="0.5" d="M498,416l-48.53-20.91l-39.979,18.2l-23.63-6.24
		l-33.33-38.41l0.06-12.93l-73.11,17.91l-20.3,21.479l-24.67,7.271l-89.33,37.56l-38.28,1.36l3.41,68.03l25.25,44.55l76.19,18.52
		l36.95,30.79l89.06-45.319L498.9,644.09L498,416z"/>
	<path id="LY-GT" fill="#1E3250" stroke="#1E3250" stroke-width="0.5" d="M105.65,404.02l-13.49-68.76L32.98,313.53l-10.57,29.91
		l8.81,36.109L6.29,409.86l30.55,43.699l1.21,26.41l11.49,15.5l60.77,13.851l-3.41-68.03L105.65,404.02z"/>
	<path id="LY-SH" fill="#1E3250" stroke="#1E3250" stroke-width="0.5" d="M258.95,233.86l-25.64-20.71l-61.52,65.46l-37.09-9.44
		l-31.61,2.88l-20.85-17.2l-23.61,12.63l-30.89,0.34l5.24,45.71l59.18,21.729l13.49,68.76l82.45-58.22l48.87,6.87l22.05-2.479
		l32.59-26.04l36.62-5.07l4.18-20.4l-14.56-7.74l-28.8,3.99l-2.97-15.02l-26.99-27.01L258.95,233.86z"/>
	<path id="LY-MB" fill="#1E3250" stroke="#1E3250" stroke-width="0.5" d="M275.87,43.83l-40.35-18.44l-36.14,25.35l0.72,0.97
		l7.39,15.86l36.47-5.45l27.42,10.38L275.87,43.83z"/>
	<path id="LY-KF" fill="#1E3250" stroke="#1E3250" stroke-width="0.5" d="M740.33,771.53v-26.71l50.12-0.03l0.22-387.61
		l-292.58,2.051L498,416l0.9,228.09L740.33,771.53z"/>
	<path id="LY-JU" fill="#1E3250" stroke="#1E3250" stroke-width="0.5" d="M359.58,222.33l-34.13,0.86l-44.63-27.11l-5.12,26.45
		l-16.75,11.33l0.14,19.04l26.99,27.01l2.97,15.02l28.8-3.99l14.56,7.74l-4.18,20.4l24.36,36.63l-0.06,12.93l33.33,38.41l23.63,6.24
		l39.979-18.2L498,416l0.09-56.77l0.12-75.871l-33.88-8.86l-26.03-13.24l-20.24-38.11l-12.399,6.47L359.58,222.33z"/>
	<path id="LY-GD" fill="#1E3250" stroke="#1E3250" stroke-width="0.5" d="M130.21,52.3l-16.94-6.58l-63.54,43.8l-7.94,14.85
		l4.32,41.03l-16.15,21.98L0.52,181.25l19.19,29.54l8.03,57.03l30.89-0.34l23.61-12.63l20.85,17.2l31.61-2.88l-11.2-28.27
		l-7.02-84.46l18.79-31.56L130.21,52.3z"/>
</g>
</svg>
