<?xml version="1.0" encoding="utf-8"?>
<!-- Generator: Adobe Illustrator 15.0.0, SVG Export Plug-In . SVG Version: 6.00 Build 0)  -->
<!DOCTYPE svg PUBLIC "-//W3C//DTD SVG 1.1//EN" "http://www.w3.org/Graphics/SVG/1.1/DTD/svg11.dtd">
<svg version="1.1" id="Layer_1" xmlns:amcharts="http://amcharts.com/ammap"
	 xmlns="http://www.w3.org/2000/svg" xmlns:xlink="http://www.w3.org/1999/xlink" x="0px" y="0px" width="646.5px" height="719.5px"
	 viewBox="0 0 646.5 719.5" enable-background="new 0 0 646.5 719.5" xml:space="preserve">
<defs>
	
	
		<amcharts:ammap  projection="mercator" leftLongitude="-17.105416" topLatitude="35.921721" bottomLatitude="20.768035" rightLongitude="-0.995350">
		</amcharts:ammap>
</defs>
<g>
	<path id="MA-01" fill="#1E3250" stroke="#1E3250" stroke-width="0.5" d="M458.666,36.27l0.88,1.75l1.38,0.42l-0.47,2.17l0.729,5.4
		l0.57,1.35l1.74-0.12l-0.4,1.07l0.561,2.81l1.17,2.52l2.489,0.77l0.771,1.27l1.79,1.28l1.66,3.26l1.729,0.15l3.37,3.94l2.3,0.77
		l3.221,2.96l3.81,1.54l1.26-0.45l1.351,1.16l4.67,0.6l1.45,0.69l0,0l-1.091,1.26l-0.17,1.35l0.66,0.69l0.181,2.36l-0.931,2.41
		l-2.54,1.66l-3.84,0.68l-4.02,3.51l-1.471,0.54l-0.75,1.3l-2.31,0.9l-6.49,0.79l-2.479,1.17l-1.131,1.3l0,0l-2.59-0.68l-3.25,1.39
		l-4.14-0.87l-1.86-1.07l-1.51-2.41l-1.64-1.38l-1.511,0.79l-2.89-0.19l-2-2.46l-2.18-1.5l-1.7-0.25l-0.85-0.99l-9.641-2.01
		l-6.16-0.2l0,0l3.051-9.56l0.93-0.9l2.43-8.46l2.891-6.09l2.859-12.18l0.86-0.62l2.319,0.03l2.53,1.14l1.11-1.05l0.029-0.91
		l1.16-0.6l5.141-0.13l3.439-2.52l0.4-0.97l1.01-0.27l0.521,0.51L458.666,36.27z"/>
	<path id="MA-02" fill="#1E3250" stroke="#1E3250" stroke-width="0.5" d="M426.395,79.64l6.16,0.2l9.641,2.01l0.85,0.99l1.7,0.25
		l2.18,1.5l2,2.46l2.89,0.19l1.511-0.79l1.64,1.38l1.51,2.41l1.86,1.07l4.14,0.87l3.25-1.39l2.59,0.68l0,0l-1.02,5.71l0.63,0.81
		l-0.21,0.69l-2.729,0.71l-0.671,1.32l-2.01,0.79l-0.24,1.58l-1.63,0.74l-0.56,1.07l-4.24,1.98l-0.31,0.64l0.72,0.83l-0.12,1.29
		l1.21-0.31l0.521,0.24l-0.13,0.53l0,0v1.13l0.989,1.44l0,0l-1.569,0.43l-0.15,1.75l-1.75,1.51l-0.25,0.58l0.75,1.04l-2.29,0.66
		l-1.44,1.87l-0.899-0.95l0.14-1.56l-2.91-0.8h-2.21l-0.239-0.69l0.84-1.61l-2.33-1.44l-1.351-0.13l-1.369,1.04l0.079,1.19
		l-0.47,0.51l-2.29,0.86l0.42,1.09l1.221,0.14l0.649,2.39l0,0l-5.59-0.65l-6.97-2.14l-6.641,0.55l-3.79-0.94l-3.52,1.58l-2.01-0.33
		l-1.38-1.44l-1.831,0.16l-0.52-0.97l0,0l1.37-3.58l5.76-9.42l8.4-18.31l0.64,0.18l-0.27,1.46l0.99,0.65l0.699-0.86l-0.029-0.99
		l-1.83-0.65L426.395,79.64z"/>
	<path id="MA-03" fill="#1E3250" stroke="#1E3250" stroke-width="0.5" d="M514.656,66.92l0.469,0.32l-0.26,1.07l0.869,1.03
		l1.881,0.6l1.65-0.28l0,0l0.33,14.3l1,1.33l1.689-0.21l-0.459,0.78l0.318,0.46l2.021-0.25l1.539,0.99l1.641-0.21l0.43,0.48
		l-0.43,0.66l0.311,2.26l-0.9,1.55l1.359,1.63l-2.25,0.52l0.42,1.93l-0.85,1.76l1.939-0.68l1.01,2.11l2.6,0.7l1.781-4.32l1.279,0.4
		l1.141-1.33l2.5-1.43l0.539-2.47l0.49-0.32l4.83,0.08l2.15,2.25l1.23-0.04l3.949,2.34l-0.52,2.23l1.449,0.76l0.111,0.65
		l-2.461-0.74l-2.27,1.09l-0.5,3.96l-1.35,0.09l-0.041,1.48l-3.709,2.21l-0.611,1.61l0.84,1.77l2.891,2.35l0.24,4.61l1.6,1.37
		l0.041,0.64l-1.441,3.14l-4.76,2.06l-0.51,2.83l1.74,1.34l2.65,3.66l1.01,2.31l0.09,2.17l0,0l-3.391-0.61l-4.229-2.55l-3.25-0.71
		l-2.32-2.43l-3.23-2.03l-0.51,0.14l-0.58,1.61l-0.971,0.58l-2.039,3.7l-2.941,1.76l-1.648,2.18l-1.41,0.91l-0.25,1.35l-1.201,1.52
		l-4.459,2.28l-4,0.35l-1.55-1.96l1.44-2.78l-1.761-0.62l-2.08,1.04l-1.02-1.73l0.17-3.14l0.92-1.52l1.98-1.21l-4.01-0.66
		l-0.53-2.05l-2.271-0.97l-0.949,0.01l-2.75,2l-1.931-1.24l-2.68-0.77l-1.12-1.13l0.04-3.22l-0.82-2.3l-6.239-2.14l-0.881-1.66
		l-0.1-2.08l-1.5,0.19l-0.04-2.04l-3.3,0.33l-0.021-0.79l-0.64-0.41l1.1-0.57l-0.64-0.96l-1.84,0.83l-0.24-0.4l0.57-0.65l-0.44-0.74
		l-3.18-0.27l-0.82,0.69l0.11-0.79l-0.4-0.03l-1.17,0.87l-0.76-1.25l-1.83-0.32l-2.39,1.4l-0.86-0.27l-3.39,1.03l-0.65-0.93
		l-1.37,0.53l-1.59-1.71l0,0l0.13-0.53l-0.52-0.24l-1.21,0.31l0.12-1.29l-0.721-0.83l0.311-0.64l4.239-1.98l0.561-1.07l1.63-0.74
		l0.24-1.58l2.01-0.79l0.67-1.32l2.73-0.71l0.21-0.69l-0.63-0.81l1.02-5.71l0,0l1.13-1.3l2.48-1.17l6.489-0.79l2.311-0.9l0.75-1.3
		l1.47-0.54l4.021-3.51l3.84-0.68l2.54-1.66l0.93-2.41l-0.18-2.36l-0.66-0.69l0.17-1.35l1.09-1.26l0,0l3.7,0.64l3.91-1.89
		l4.399-0.53l3.471-1.74l2.479,0.03L514.656,66.92z"/>
	<path id="MA-04" fill="#1E3250" stroke="#1E3250" stroke-width="0.5" d="M551.285,58.66l0.51,0.59l-0.82,2.9l0.58,0.84l-0.139,2.66
		l1.59,1.64l-0.43,0.15l0.199,1.22l0.961,0.55l-1,0.67l0.039,0.69l1.73,2.44l2.529,1.271l2.34,0.04l-0.029-0.81l0.15-0.229
		l3.809,1.58l3.01,0.41l1.791-0.36l3.77-2.74l7.881,2.9l-0.061,1.76l1.75,1.7l1.75,0.73l1.301,1.81l1.939,1.38l2.48-0.46l0.129,2.67
		l2.951,1.63l0.199,1.58l2.561,1.18l0.539-0.22l-0.07,0.54l2.65,1.42l-1.27,0.91l-0.141,1.17l-2.9,3.78l1.391,0.52l2.57,4.18
		l2.32,0.99l-3.66,4.67l2.93,3.76l-0.289,3.23l2.439,6.04l-1.951,10.78l1.092,4.44l-2.211,1.7l-0.33,1.59l1.17,1l2.029-0.19
		l0.861,2.33l1.34,1.17l-0.32,2.18l0.58,1.22l-1.23,1.75l-0.16,2l-1.459,3.06l-0.221,4.54l2.58,3.38l1,2.54l3.98,3.58l0.359,1.23
		l-0.92,3.01l-2.199,0.79l6.139,9.82l4.221,1.97l10.359,8.21l-4.709,4.41l-2.939,0.48l-0.91,2.64l-1.01,0.79l0.529,0.76l-0.25,4.68
		l-2.211,1.72l0.48,0.36l2.73-0.74l1.289,0.55l1,2.35l-1.869,1.15l-1.881,0.38l-0.648-0.45l-5.73-0.06l-3.09-0.7l-2.871,0.52
		l-9.33-2.399l-1.84-0.04l-0.91-0.69h-0.859l-0.23,0.5l-1.59-0.279l-1.76-1.11l-5.949,1.77l-4.031-1.159l-0.969,0.55l-6.102-0.15
		l-3.148,0.65l-2.031,1.439l-10.68,0.091l-1.16-0.431l-0.75,1.141l-0.34,2.869l3.301,6.591v2.119l0.85,0.98l-0.061,0.67
		l-16.379,3.93l0,0l-1.352-10.989l0.5-4.2l1.561-3.04l-0.34-1.13l-7.971-1.46l-3.59-0.36l-2.789,0.49l-2.051-0.51l0.6-2.15
		l-0.658-0.84l-3.311-1.84l-2.83-0.46l-0.84-3.88l-4.42-9l-1.26-1.52l-1.32-0.58l0,0l-0.16-0.74l4.321-5.73l5.289-9.47l2.99-2.98
		l1.92-1.14l4.791-0.51l10.26,0.5l10.66-3.39l0.83-1.24l0.318-1.85l-0.549-1.54l-4.551-6.16l-5.129-3.96l-0.74-1.49l0.939-3.02
		l3.58-4.44l0.76-2.94l0,0l-0.09-2.17l-1.01-2.31l-2.65-3.66l-1.74-1.34l0.51-2.83l4.762-2.06l1.439-3.14l-0.041-0.64l-1.6-1.37
		l-0.24-4.61l-2.889-2.35l-0.842-1.77l0.611-1.61l3.709-2.21l0.041-1.48l1.35-0.09l0.5-3.96l2.27-1.09l2.461,0.74l-0.111-0.65
		l-1.449-0.76l0.52-2.23l-3.949-2.34l-1.23,0.04l-2.15-2.25l-4.83-0.08l-0.49,0.32l-0.539,2.47l-2.5,1.43l-1.141,1.33l-1.279-0.4
		l-1.779,4.32l-2.602-0.7l-1.01-2.11l-1.939,0.68l0.85-1.76l-0.42-1.93l2.25-0.52l-1.359-1.63l0.9-1.55l-0.311-2.26l0.43-0.66
		l-0.43-0.48l-1.641,0.21L524.176,86l-2.021,0.25l-0.318-0.46l0.459-0.78l-1.689,0.21l-1-1.33l-0.33-14.3l0,0l1.289-0.89l0.811-2.44
		l1.59-0.63l1.15,0.1l3.32,2.75l3.799,1.29l1.48-0.33l0.9,0.63l3.42,0.32l3.77-1.74h1.73l2.24-2.87l1.09,0.62l1.5-1.06l2.039-3.83
		l0.711-2.69L551.285,58.66z"/>
	<path id="MA-05" fill="#1E3250" stroke="#1E3250" stroke-width="0.5" d="M457.515,110.11l1.601,1.71l1.359-0.53l0.65,0.93
		l3.39-1.03l0.86,0.27l2.38-1.4l1.83,0.31l0.76,1.25l1.17-0.87l0.4,0.04l-0.11,0.79l0.83-0.69l3.18,0.27l0.44,0.74l-0.57,0.65
		l0.24,0.4l1.84-0.82l0.65,0.95l-1.101,0.58l0.641,0.41l0.02,0.79l3.3-0.32l0.04,2.04l1.5-0.19l0.101,2.08l0.88,1.66l6.24,2.14
		l0.81,2.3l-0.03,3.22l1.11,1.13l2.69,0.77l1.93,1.24l2.75-2l0.939-0.01l2.28,0.97l0.521,2.05l4.01,0.66l-1.98,1.22l-0.92,1.52
		l-0.18,3.14l1.02,1.73l2.08-1.04l1.761,0.62l-1.44,2.78l1.55,1.95l4-0.34l4.459-2.28l1.201-1.52l0.25-1.36l1.41-0.91l1.65-2.19
		l2.939-1.75l2.039-3.7l0.98-0.58l0.58-1.61l0.51-0.14l3.23,2.03l2.32,2.43l3.25,0.71l4.229,2.55l3.391,0.61l0,0l-0.76,2.94
		l-3.58,4.44l-0.939,3.03l0.73,1.49l5.129,3.96l4.551,6.16l0.549,1.54l-0.32,1.85l-0.828,1.24l-10.65,3.39l-10.271-0.5l-4.789,0.52
		l-1.92,1.14l-2.99,2.98l-5.289,9.47l-4.321,5.73l0.16,0.74l0,0l-2.47,0.62l-6.19-0.51l-0.43-3.73l-5.021-4.49l-1.56-2.73
		l-3.101-0.58l-4.59,0.69l-3.21-1.86l-0.359-0.89l0.72-2.64l-3.53-3.99l-3.34-9.43l-2.33-2.07l-0.71-1.38l0.13-1.67l3.9-5.65
		l0.05-2.49l-3.78-3.47l-4.51-1.04l-0.43-1.87l1.75-4.58l-0.23-2.27l-1.28-2.04l-0.89-0.52l-0.82-3.1l-3.38-0.59l-1.68-2.62
		l-2.78,0.21l-0.39-7.28l-0.86-1.93l0,0l-0.99-1.44L457.515,110.11z"/>
	<path id="MA-06" fill="#1E3250" stroke="#1E3250" stroke-width="0.5" d="M458.515,112.69l0.86,1.93l0.39,7.28l2.78-0.21l1.68,2.62
		l3.38,0.59l0.82,3.1l0.89,0.52l1.28,2.04l0.23,2.27l-1.75,4.58l0.43,1.87l4.51,1.04l3.78,3.47l-0.05,2.49l-3.9,5.65l-0.13,1.67
		l0.71,1.38l2.33,2.07l3.34,9.43l3.53,3.99l-0.72,2.64l0.359,0.89l3.21,1.86l4.59-0.69l3.101,0.58l1.56,2.73l5.021,4.49l0.43,3.73
		l6.19,0.51l2.47-0.62l0,0l1.31,0.58l1.271,1.52l4.42,8.99l0.83,3.88l2.83,0.46l3.309,1.85l0.66,0.84l-0.6,2.14l2.051,0.521
		l2.789-0.5l3.59,0.36l7.971,1.46l0.34,1.13l-1.551,3.04l-0.51,4.189l1.361,10.99l0,0l-15.24,3.4v10.29l0.67,0.34l-0.521,0.71
		l-0.459-0.32l-0.25,0.64l-1.221,0.381l-0.42,0.88l-1.01-0.83l-0.51,2.229l-0.869,0.79l0.609,0.641l0.49-0.181l-0.08,0.83
		l-1.221,1.21l0.701,0.58l0.5,1.9l-0.67,1.43l0.17,1.23l1.59,0.119l-0.131-1.279l0.891-0.36l0.32-0.96l1.16,1.09l-0.301,2.86
		l0.561-0.7l1.068,0.12l-0.568-1.53l0.49-0.319l0.17,1.289l0.689-0.31l0.91,2.7l0.689,0.67l0.82-0.92l-0.1,1.04l0.49,0.08
		l0.059,3.68l-0.639,0.3l-0.09,0.84l-0.592-0.21l-1.539,3.011l-0.65-0.11l-0.66,0.93l-0.539,2.11l0.24,1.34l1.139,0.12l0.471,1.42
		l-0.939,1.36l-7.74,3.29l-5.76,1.54l-5.73,0.33l-6.63,2.479L488.845,291l-12.5,6.22l-6.92,5.851l0,0l-1.32-3.82l-1.52-1.66
		l-0.86-2.81l0.54-18.3l-5.22-8.391l-0.71-3.39l1.92-13.58l2.51-7.08l-0.08-3.99l-1.609-2.359l-6.66-3.2l-1.59-2.311l-5.301-1.449
		l-2.72,0.64l-2.729-0.39l-0.48-0.49l0.45-1.38l8.67-9.181l1.01-2.12l-5.64-4.13l-0.94-0.05l-2.5,1.78l-1.5,0.37l0,0l-0.08-2.08
		l-1.189-1.03l1.12-1.01l-0.2-1.55l0.99-0.69l0.029-1.55l2.971-1.601l1.05-2.35l3.21-0.88l1.92,0.46l0.63-0.44l0.2-1.1l-0.99-0.84
		l0.88-2.01l-0.46-0.82l1.641-3.31l-2.75-5.66l-2.24-0.21l-1.93-1.67l-1.131-0.2l-1.27,1.07l-0.99-0.07l-0.89-3.38l-1.61-1.48
		l-1.42-0.16l-0.66-1.38l-1.7-0.99l-2.779,0.19l0,0l-0.471-2.4l0.881-0.88l-1.36-1.82l-0.25-1.26l-0.74-0.29l-2.42,0.79l-0.57-0.48
		l0.091-1.7l1.699-0.36l0.721-1.14l-2.021-1.16l-0.33-1.65l-5.41-3.24l-0.439-1.2l-3.73-1.27l-0.25-1.43l1.271-2.05l0,0l-0.97-1.89
		l0.77-1.77l-0.41-0.69l0.5-1.79l2.88-1.01l2.2,0.7l1.1-0.76l0.961,1.19l1.35,0.06l0.76,3.73l0.55,0.77l1.521,0.16l0.42,0.56
		l1.5-0.25l1.51-1.74l1.44-0.46l4.739,1.39l0.881-0.32l0.71-1.35l-0.66-6.27l1.59-15.07l-1.72-2l0.31-1.9l-1.399-0.03l-0.24-0.52
		l0.02-0.96l2.05-1.94l-0.34-1.71l-2.95-2.77l-0.14-2.29l0,0l-0.64-2.4l-1.221-0.14l-0.42-1.09l2.29-0.87l0.48-0.51l-0.08-1.19
		l1.37-1.04l1.34,0.12l2.33,1.44l-0.83,1.62l0.23,0.69h2.21l2.909,0.8l-0.14,1.56l0.9,0.96l1.439-1.87l2.29-0.67l-0.75-1.03
		l0.24-0.58l1.75-1.51l0.15-1.75L458.515,112.69z"/>
	<path id="MA-07" fill="#1E3250" stroke="#1E3250" stroke-width="0.5" d="M408.855,116.37l0.52,0.97l1.83-0.16l1.38,1.44l2.01,0.33
		l3.521-1.58l3.79,0.94l6.64-0.55l6.97,2.14l5.59,0.65l0,0l0.141,2.29l2.95,2.77l0.34,1.71l-2.051,1.94l-0.02,0.96l0.24,0.52
		l1.399,0.02l-0.31,1.91l1.72,2l-1.59,15.06l0.66,6.27l-0.71,1.35l-0.88,0.32l-4.74-1.38l-1.44,0.46l-1.5,1.74l-1.5,0.25l-0.43-0.56
		l-1.52-0.16l-0.551-0.77l-0.76-3.73l-1.35-0.06l-0.96-1.19l-1.09,0.75l-2.2-0.7l-2.891,1.01l-0.5,1.8l0.41,0.69l-0.77,1.77
		l0.979,1.89l0,0l-4.579,2.2l-1.541,2.18l-1.619-2.26l-1.511-1.06l-3.81,0.54l-1.82-0.83l-1.36,0.68l-2.12-0.99l0.45-1.16
		l-0.42-2.81l1.29-3.06l-1.26-1.76l-0.53-2.28l2.39-3.64l0.35-1.68l-4.29,0.47l-1.88-2.24l-1.37-0.6l-1.19,0.37l0.34-1.12l-1.18-2
		l-0.36-3.19l-0.88-1.5l-1.69-0.13l-0.51-0.92l0,0l2.3-1.9l1.38-0.3l4.39-3.95l4.87-5.68L408.855,116.37z"/>
	<path id="MA-08" fill="#1E3250" stroke="#1E3250" stroke-width="0.5" d="M384.585,137.79h0.03l0,0H384.585z M382.825,137.64
		l0.15,0.62l1.64-0.46l0,0l-0.96,1.7l0.48,1.04l-1.43,0.37l-0.22,1.45l0.04,1.17l0.57,0.58l-0.44,1.2l1.32,2.71l-0.89-0.06l-1,0.78
		l0.52,1.11l-1.75,0.23l-0.07,0.53l-1,0.19l-1.96,1.6l-1.34,3.42l-1.36-0.22l-0.63-2.24l3.21-1.49l-1.69-0.66l-2,0.39l-0.56-0.69
		l-1.69,0.73l-0.17-0.93l-1.56-1.12l-1.94,0.26l-0.66-0.67l-1.35-0.13l-1.12,0.46l-1.06-1.7l0,0l2.7-1.85l0.85,0.45l1.75-0.95
		l3.87-2.96l0.39,0.49l1.48-0.32l0.36-0.09l0.37,0.37l2.4-0.93L382.825,137.64z"/>
	<path id="MA-09" fill="#1E3250" stroke="#1E3250" stroke-width="0.5" d="M393.085,132.7l0.51,0.92l1.69,0.13l0.88,1.5l0.36,3.19
		l1.18,2l-0.34,1.12l1.19-0.37l1.37,0.6l1.88,2.24l4.29-0.47l-0.35,1.68l-2.39,3.64l0.53,2.28l1.26,1.76l-1.29,3.06l0.42,2.81
		l-0.45,1.16l2.12,0.99l1.36-0.68l1.82,0.83l3.81-0.54l1.511,1.06l1.619,2.26l1.54-2.18l4.58-2.2l0,0l-1.27,2.06l0.25,1.43
		l3.72,1.27l0.44,1.2l5.409,3.25l0.33,1.65l2.011,1.15l-0.721,1.15l-1.7,0.35l-0.09,1.71l0.57,0.48l2.41-0.8l0.74,0.3l0.25,1.26
		l1.359,1.82l-0.88,0.88l0.48,2.4l0,0l-2.891,2.71l-3.76,0.38l-2.78,1.07l-6.88,0.09l-3.67-1.11l-3.03,1.05l0.091,1.38l-5.94-1.38
		l-5.37,2.66h-0.85l-1.73-1.17l-0.53,5.77l-1.78,4.82l-2.14,2.2l0,0l-0.55-0.79l-1.46-0.16l-0.7-1.03l-2.43-1.54l-2.42-0.28
		l-1.71-2.4l-2.92,0.15l-1.12,0.62l-0.5-0.39l-0.33,1.07l-1.74,1.09l-1.26,0.11l-0.81-0.55l-0.68,0.47l-2.09-4.35l-1.58-1.25
		l-1.93-3.88l-6.41-2.55l-2.45-5.22l-0.83-0.03l0,0l0.57-0.59l-0.85-0.2l0.6-1.08l-2.58,0.53l1.04-0.89l-0.84-0.47l0.53-1.72
		l-0.94-0.86l0.75-0.35l-0.84-0.8l1.01-1.53l-0.55-0.68l0.79-0.25l-0.74-1.17l0.32-2.11l-1.21-0.06l0.41-0.62l-1.03-0.78l-0.07-0.83
		l-0.98,0.19l-0.51-0.85l0.96-0.5l0.87-2.28l2.97-0.13l0.56-0.83l-0.9-0.43l1.59-0.67l1.21-1.64l-1.07-0.39l-0.17-0.97l-0.76-0.25
		l1.15-0.79l-0.65-0.66l0.81-1.31l-2.14-3.08l0,0l4.26-1.76l0,0l1.06,1.7l1.12-0.46l1.35,0.13l0.66,0.67l1.94-0.26l1.56,1.12
		l0.17,0.93l1.69-0.73l0.56,0.69l2-0.39l1.69,0.66l-3.21,1.49l0.63,2.24l1.36,0.22l1.34-3.42l1.96-1.6l1-0.19l0.07-0.53l1.75-0.23
		l-0.52-1.11l1-0.78l0.89,0.06l-1.32-2.71l0.44-1.2l-0.57-0.58l-0.04-1.17l0.22-1.45l1.43-0.37l-0.48-1.04l0.96-1.7l0,0l0,0l0,0
		h-0.03l0,0l4.63-3.93l1.66-0.06L393.085,132.7z"/>
	<path id="MA-10" fill="#1E3250" stroke="#1E3250" stroke-width="0.5" d="M359.646,149.56l2.14,3.08l-0.81,1.31l0.65,0.66
		l-1.15,0.79l0.76,0.25l0.17,0.97l1.07,0.39l-1.21,1.64l-1.59,0.67l0.9,0.43l-0.56,0.83l-2.97,0.13l-0.87,2.28l-0.96,0.5l0.51,0.85
		l0.98-0.19l0.07,0.83l1.03,0.78l-0.41,0.62l1.21,0.06l-0.32,2.11l0.74,1.17l-0.79,0.25l0.55,0.68l-1.01,1.53l0.84,0.8l-0.75,0.35
		l0.94,0.86l-0.53,1.72l0.84,0.47l-1.04,0.89l2.58-0.53l-0.6,1.08l0.85,0.2l-0.57,0.59l0,0l-1.69,1.28l-0.09,3.36l-1.39,1.08
		l0.01,1.21l1.07,1.64l-0.05,2.39h-0.67l-1.34,1.92l-3.18,2.67l-2.37,0.04l-0.62,0.52l-0.19,1.89l-1.66-0.01l-1.12,0.48l-0.8,1.3
		l-2.93,0.94l-0.16,2.39l1.18,2.91l1.61,2.22l1.52,1.34l3.61,1.511l1.69,1.949l-0.05,0.801l-1.12-0.78l-0.15,1.97l-3.08,2.311
		l-1.41,2.529l-0.24,1.511l-2.85,4.02l0.7,2.34l1.85,1.82l-1.62,0.32l-1.26-0.91l-2.75,1.17l-1.98-0.66l-1.85-1.86l-3.8,0.811
		l-1.45-0.37l-0.77,1.01l-0.64-0.52l-0.96,0.75l-1.33-1.17l-1.02,0.399l-0.47-1.22l-2.28-0.53l-0.29-0.71l-2.07-1.18l-1.18-3.63
		l-1.97-0.69l-4.96-0.47l-4.72,0.25l-3.65-1.32l0,0l3.41-3.859l0.87-3.671l2.31-2.79l0.32-1.149l-0.49-2.28l0.82-2.15l-0.24-0.83
		l-1.15-0.47l-0.37-1.54l1.6-2.35l0.65-2.68l-2.07-3l6.3-5.37l3.46-3.69l4.87-4.27l5.91-6.17l0.32-0.64l1.32-1.68l3.1-4.8l0.3-0.25
		l-0.49-1.42l2.67-2.33l0.35-1.04l1.36-0.96l0.81,1.04l1.66-0.31l4.17-2.98l1.25-2.14l3.42-0.89L359.646,149.56z"/>
	<path id="MA-11" fill="#1E3250" stroke="#1E3250" stroke-width="0.5" d="M360.325,178.61l0.83,0.03l2.45,5.22l6.41,2.55l1.93,3.88
		l1.58,1.25l2.09,4.35l0.68-0.47l0.81,0.55l1.26-0.11l1.74-1.09l0.33-1.07l0.5,0.39l1.12-0.62l2.92-0.15l1.71,2.4l2.42,0.28
		l2.43,1.54l0.7,1.03l1.46,0.16l0.55,0.79l0,0l-0.32,3.9l0.77,3.521l-0.4,1.6l0.44,3.85l1.1,1.841l1.29,0.55l0.44,1.739l-0.87,0.961
		l0.2,1.979l1.92,2.35l-1.15,0.551l0.2,2.31l-0.64,0.59l-1.8-0.29l-2.47,0.57l-2.52-0.89l-2,0.84l-0.62,0.859l-0.01,2.83l1.9,1.63
		l-0.25,1.57l0.68,0.41l3.1-0.53l0.09,2.28l-1.37,4.72l0.5,2.58l0,0l-3.24,1.33l-1.99,2.75l-6.02,0.75l-1.86,0.9l-4.11,3.88
		l-3.68,0.42l-2.15,1.05l-3.13,2.94l-2.7,1.46l-0.1,2.029l-5.75,4.301l-0.51-0.141l0.14-1.42l-1.21-1l-4.52,1.87l-3.94,0.67
		l-1.82-0.47l-2.08,1.52l-6.17-0.149l-1.12,0.25l-1.32,1.25l-1.34,0.159l-0.99-3.579l-3.29-2.261l-0.8,0.07l-2.57,2.5l-4.12,1.83
		l-0.9,1.51l-0.95,0.46l-3.47-0.53l-5.07,1.641l-2.08-0.22l-0.89-0.801l-4.21,0.9l-2.58-1l-0.29-1.57l-1.39,1.99l-1.09,0.5
		l-1.93-0.81l-2.96,0.229l-0.7-2.5l-2.85-2.88l0,0l-0.15-1.16l0.61-1.3l-0.64-2.28l0.32-1.479l-0.97-0.58l1.85-9.57l-0.56-2.46
		l-1.25-0.49l0.29-1.14l2.48-3.14l0.13-0.99l-0.59-0.09l1.59-1.33l1.95-2.8l0.49-1.53l-0.16-2.83l1.66-1.33l7.59-9.52l0,0
		l3.65,1.319l4.72-0.25l4.96,0.471l1.97,0.689l1.18,3.63l2.07,1.181l0.29,0.71l2.28,0.529l0.47,1.221l1.02-0.4l1.33,1.17l0.96-0.75
		l0.64,0.521l0.77-1.011l1.45,0.37l3.8-0.81l1.85,1.859l1.98,0.66l2.75-1.17l1.26,0.91l1.62-0.32l-1.85-1.819l-0.7-2.341l2.84-4.01
		l0.24-1.51l1.41-2.53l3.08-2.31l0.15-1.971l1.12,0.78l0.05-0.8l-1.69-1.95l-3.61-1.51l-1.52-1.34l-1.61-2.22l-1.18-2.911l0.16-2.39
		l2.93-0.94l0.8-1.3l1.12-0.48l1.66,0.01l0.19-1.89l0.62-0.52l2.37-0.04l3.18-2.67l1.34-1.92h0.67l0.05-2.39l-1.07-1.64l-0.01-1.21
		l1.39-1.08l0.09-3.36L360.325,178.61z"/>
	<path id="MA-12" fill="#1E3250" stroke="#1E3250" stroke-width="0.5" d="M435.496,181.04l2.779-0.19l1.7,0.99l0.66,1.38l1.42,0.16
		l1.61,1.48l0.89,3.38l0.99,0.07l1.27-1.07l1.131,0.2l1.93,1.67l2.24,0.21l2.75,5.66l-1.641,3.31l0.46,0.82l-0.88,2.01l0.99,0.84
		l-0.2,1.1l-0.63,0.44l-1.92-0.46l-3.21,0.88l-1.05,2.35l-2.971,1.601l-0.029,1.55l-0.99,0.69l0.2,1.55l-1.12,1.01l1.189,1.03
		l0.08,2.08l0,0l0.221,2.939l-0.4,0.65l-1.99,1.97l-1.899-0.08l-1.41,1.87l-3.601,1.59l-0.52,2.87h-3.72l-2.4,2.22l-6.09,2.391
		l-5.73,3.56l-2.34,0.79l-1.91-0.5l-2.99,0.811l-1.1,1.38l0.46,2.38l-1.34,2.86l-1.66,0.18l-0.47-0.73l-2.95,0.771l-6.18-1.84
		l-2.64-0.04l0,0l-0.51-2.58l1.37-4.721l-0.1-2.279l-3.09,0.529l-0.68-0.409l0.25-1.561l-1.9-1.63v-2.83l0.62-0.859l2-0.841
		l2.52,0.891l2.46-0.57l1.81,0.29l0.64-0.6l-0.2-2.301l1.15-0.55l-1.92-2.35l-0.19-1.98l0.86-0.96l-0.44-1.74l-1.29-0.55l-1.11-1.84
		l-0.44-3.84l0.4-1.6l-0.77-3.521l0.32-3.91l0,0l2.14-2.2l1.78-4.82l0.53-5.78l1.73,1.18h0.84l5.37-2.66l5.95,1.38l-0.09-1.38
		l3.02-1.05l3.67,1.11l6.88-0.1l2.78-1.06l3.771-0.38L435.496,181.04z"/>
	<path id="MA-13" fill="#1E3250" stroke="#1E3250" stroke-width="0.5" d="M443.145,215.78l1.5-0.37l2.5-1.79l0.94,0.05l5.64,4.13
		l-1.02,2.12l-8.67,9.18l-0.45,1.381l0.479,0.489l2.73,0.391l2.72-0.641l5.3,1.45l1.591,2.311l6.659,3.199l1.61,2.351l0.08,3.989
		l-2.521,7.08l-1.92,13.591l0.71,3.39l5.221,8.39l-0.53,18.3l0.86,2.811l1.52,1.66l1.32,3.819l0,0l-6.36,4.761l-1.58,2.649l0.26,1.7
		l-0.529,1.28l-7.69,10.939l-0.649,0.271l-0.15,1.39l-3.51-1.12l-1.44-1.52l-0.979,0.859l-1.32,0.07l0.99-2.95l-2.91-1.239
		l-9.99,2.27l-3.9-0.86l-3.119,0.73l-4.801-0.1l-0.619,0.77l-0.33-0.43l0,0l0.08-11.45l0.8-3.73l-0.19-6.439l-1.57-3.72
		l-5.789-9.141l-1.631-1.75l-1.859-1.01l-1.01,0.06l-1.98,1.351l-1.86,2.58l-3.01,1.439h-1.89l-3.6-1.66l-2.13-0.029l-1.73,1.88
		l-1.7,3.91l-0.64,3.239l-0.89,0.65l-7.73-0.61l-1.11-1.119l-0.7-3.08l-3.55-2.641l-3.17,2.25l-1.12,2.181l1,6.34l-0.77,1.489
		l-2.74,0.261l-2.78-0.83l-1.46,0.21l-4.18,3.729l-2.41,0.86l-4.05-1.38l-4.3-3.07l-1.05-0.229l-2.04,1.22l-1.21,3l-1.58,1.58
		l-1.19,0.05l-7.24-3.33l-2.97,0.28l-1.35,1.21l0.07,2.14l0.67,0.58l1.57-0.61l1.25,0.381l-0.2,1.359l-2.57,3.29l-0.38,1.48
		l-0.13,5.21l0.77,1.819l1.25,0.921l0.32,0.81l-0.48,0.88l-9.42,3.03l-5.53-0.01l-0.91,0.619l-1.28,2.631l-1.45,6.119l-1.98-3.75
		l-1.41-0.77l-2.71-0.4l-1.56,0.41l-0.77,1.521l-1.41,1.16l-2.93,0.55l-4.78,1.89l-2.4-0.25l-2.19-2.79l-2.37,0.15l-1.16,1.38
		l-2.01,4.81l-1.42,0.601l-1.54-0.431l-1.41,0.46l-4.01,2.96l-1.13,0.15l-1.89-1.34l-7.23,0.14l-2.51-1.55l0,0l0.58-1.479l3.58-4.62
		l4.37-3.33l1.27-2.771l3.96-5.39l1.02-3.5l2.59-4.08l5.73-5.65l1.63-2.59l4.54-9.3l2.74-13.82l-0.62-1.31l-0.68,0.24l-1.08-1.13
		l-1.56-4.221l-1.47-0.439l-1.65-2.59l-1.59-0.761l-2.44-0.149l0.44-2.69l1.06-1.33l1.68-4.109l-0.04-0.86l-0.77-0.58l0.73-1.95
		l-0.48-2.62l0,0l2.85,2.881l0.7,2.5l2.96-0.23l1.93,0.81l1.09-0.5l1.39-1.989l0.29,1.569l2.58,1l4.21-0.899l0.89,0.8l2.08,0.22
		l5.07-1.64l3.47,0.53l0.95-0.46l0.9-1.511l4.12-1.83l2.57-2.5l0.8-0.069l3.29,2.26l0.99,3.58l1.34-0.16l1.32-1.25l1.12-0.25
		l6.17,0.15l2.08-1.521l1.82,0.47l3.94-0.67l4.52-1.87l1.21,1l-0.14,1.421l0.51,0.14l5.75-4.3l0.1-2.03l2.7-1.46l3.13-2.94
		l2.15-1.05l3.68-0.42l4.11-3.88l1.86-0.9l6.02-0.75l1.99-2.75l3.24-1.329l0,0l2.64,0.04l6.19,1.85l2.95-0.771l0.47,0.73l1.66-0.18
		l1.34-2.86l-0.46-2.38l1.09-1.38l2.99-0.811l1.92,0.49l2.34-0.79l5.73-3.56l6.09-2.391l2.39-2.22l3.72,0.01l0.521-2.87l3.6-1.6
		l1.41-1.86l1.9,0.08l1.989-1.979l0.4-0.65L443.145,215.78z"/>
	<path id="MA-15" fill="#1E3250" stroke="#1E3250" stroke-width="0.5" d="M216.475,380.56L216.475,380.56l2.33,6.171l2.66,2.76
		l1.27,3.79l5,6.689l-4.52,0.29l0.6,3.26l-7.94-0.029l-4.87,3.779l-5.02,7.431l-1.55,3.99l-1.72,7.31l-4.59,10.36l-9.38,10.56
		l-1.88,3.82l-0.77,2.939l0.24,3.23l3.11,9.42l1.59,8.52l16.75-0.069l0,0l0.01,64.5l0,0l-2.35,0.51l-2.01-0.5l-6.3,0.01l-8.93,1.9
		l-3.35-0.01l-8.23-2.83l-11.23-2.2l-6.65,0.6l-8.29,3.26l-6.7,1.82l-4.66-1.59l-10.02-2.31l-8.17,0.439l-12.87,2.83l-2.4-0.94
		l-2.25-3.25l-1.19-0.789l-5.17-2.091l-3.08-0.479l0,0l0.56-1.87l3.91-2.9v-2.779l2.06-5.811l0.35-5.89l-0.85-1.34l-0.17-1.82
		l0.66-7.12l1.57-5.149l3.4-5.261l2.29-9.39l2.67-3.32l2.62-5.87l0.47-4.479l-0.6-1.43l0.72-1.61l3.02-4.061l2.87-0.6l3.15-2.55
		l2.36-3.68l3.88-0.421l3.92-1.529l2.2-1.891l9.2-5.5l3.94-3.63l2.85-6l3.07-9.01l0.35-3.37l4.85-8.99l4.34-13.38l4.44-2.6
		l1.58-2.44l0.98-3.399l2.49-2.79l13.15-1.78l18.49-3.9l11.18-5.35L216.475,380.56z"/>
	<path id="MA-14" fill="#1E3250" stroke="#1E3250" stroke-width="0.5" d="M267.215,342.63L267.215,342.63l2.51,1.55l7.22-0.13
		l1.89,1.34l1.13-0.149l4.01-2.96l1.41-0.45l1.54,0.42l1.42-0.59l2.01-4.811l1.16-1.38l2.37-0.149l2.19,2.79l2.4,0.25l4.78-1.9
		l2.93-0.54l1.41-1.16l0.77-1.52l1.56-0.41l2.71,0.4l1.41,0.77l1.97,3.74l1.45-6.12l1.29-2.63l0.9-0.63l5.53,0.01l9.43-3.03
		l0.48-0.89l-0.32-0.811l-1.25-0.92l-0.77-1.819l0.12-5.21l0.38-1.48l2.58-3.28l0.19-1.359l-1.25-0.38l-1.57,0.609l-0.67-0.58
		l-0.07-2.14l1.34-1.21l2.98-0.28l7.23,3.33l1.2-0.04l1.57-1.58l1.21-3l2.04-1.22l1.06,0.229l4.3,3.07l4.05,1.39l2.41-0.869
		l4.18-3.73l1.46-0.21l2.77,0.83l2.74-0.26l0.78-1.5l-1.01-6.33l1.12-2.19l3.17-2.25l3.55,2.641l0.71,3.08l1.11,1.119l7.72,0.61
		l0.9-0.65l0.64-3.239l1.7-3.91l1.74-1.88l2.13,0.029l3.6,1.66h1.89l3.01-1.439l1.86-2.58l1.98-1.351l1.01-0.06l1.869,1.01
		l1.631,1.75l5.79,9.141l1.569,3.71l0.2,6.449l-0.8,3.73l-0.08,11.45l0,0l-2.39-0.08l-2.511,1.77l-3.46-0.38l-2.89,0.63l-3.13,2.311
		l-2.15-0.261l-3.1-1.279l-2.81-0.28l-1.26,0.45l-3.24-1.26l-1.6-0.011l-3.42,1.62l-3.63,3.63l-2.11,0.96l-3.95,0.65l-3.98-0.5
		l-1.03,0.82l0.06,1.02l-0.99,1.521l-1.25,0.04l-3.89,1.819l-5.58,3.931l-1.19,1.699l-7.11,4.71l-1.02,0.03l-5.45,4.32l-5.27,5.13
		l-7.9,3.59l-0.25,115.58l-126.51,0.07l0,0l-16.75,0.069l-1.59-8.52l-3.11-9.42l-0.24-3.23l0.77-2.939l1.88-3.82l9.38-10.56
		l4.59-10.36l1.72-7.31l1.55-3.99l5.02-7.431l4.87-3.779l7.94,0.029l-0.6-3.26l4.52-0.29l-5-6.689l-1.27-3.79l-2.66-2.76
		l-2.33-6.171l0,0l8.81-3.409l0.92,0.6l-0.18-0.93l2.34-1.53l0.76-1.71l5.2-6.6l7.29-6.711l1.49-2.369l11.01-5.801l10.44-6.56
		L267.215,342.63z"/>
	<path id="MA-16" fill="#1E3250" stroke="#1E3250" stroke-width="0.5" d="M93.945,533.66l3.09,0.479l5.16,2.091l1.2,0.789l2.25,3.25
		l2.4,0.95l12.87-2.83l8.17-0.45l10.02,2.311l4.65,1.6l6.7-1.83l8.29-3.26l6.65-0.6l11.24,2.21l8.22,2.819l3.35,0.011l8.93-1.91h6.3
		l2.021,0.49l2.34-0.511l0,0l0.15,41.23l-28.87,2.76l-3.44,2.41l-4.05,4.76l-3.36,5.34l-1.51,3.641l-2.3,10.79l5.47,57.08
		l-74.43-0.521l-74.4,0.54l-0.78,0.15l-2.41,9l-1.4,2.6l-1.01,4.74l0.55,6.2l-2.04-3.03l1.03-1.63l-0.68-1.5l1.2-3.17l1.21-13.25
		l1.91-9.41v-6.46l1.19-1.67l-0.56-0.53l0.24-2.21l2.22-2.92l0.13-1.74l3.43-8.989l1.26-0.58l0.2-1.681l3.31-3.189l1.09,0.069
		l0.63,1.021l1.08-0.1l4.3-2.15l-0.02-1.021l1.35-1.76l0.74-4.46l3.06-3.149l0.89-7.311l1.85-3.189l-0.62-0.74l0.59-2.141l0.58,0.36
		l2.25-0.9l2.56-3.149l-0.04-2.62l-1.28-1.32l-1.1,0.561l0.42-1.23l2.86-3.38l0.32-1.78l2.11-3.21l-0.25-0.74l3.26-3.479l1.11-2.47
		l-0.9-1.46l2.62-2.29l1.17-2.59l1.04-0.75l2.54-4.37l2.53-2.86l-0.13-0.37l-1.08,0.811l0.39-1.891l0.98-1.53l-0.39-1.09l0.83-2.35
		l-1.92,1.17l-0.43,2l-0.27-0.93l-1.39,2.109l-1.77,0.67l-1.65,2.34l-1.11,4.061l-1.34,1.18l-0.91,1.79l-0.63-0.18l-0.25-0.73
		l3.12-4.46l0.73-2.52l3.79-4.29l8.05-5.021l0.74-2.08l5.92-6.069l3.24-2.53l3.33-4.67l2.94-3.08l5.51-2.48L93.945,533.66z"/>
</g>
</svg>
