<?xml version="1.0" encoding="utf-8"?>
<!-- Generator: Adobe Illustrator 15.0.0, SVG Export Plug-In . SVG Version: 6.00 Build 0)  -->
<!DOCTYPE svg PUBLIC "-//W3C//DTD SVG 1.1//EN" "http://www.w3.org/Graphics/SVG/1.1/DTD/svg11.dtd">
<svg version="1.1" id="Layer_1" xmlns:amcharts="http://amcharts.com/ammap"
	 xmlns="http://www.w3.org/2000/svg" xmlns:xlink="http://www.w3.org/1999/xlink" x="0px" y="0px" width="473.5px" height="630.5px"
	 viewBox="0 0 473.5 630.5" enable-background="new 0 0 473.5 630.5" xml:space="preserve">
<defs>
	
	
		<amcharts:ammap  projection="mercator" leftLongitude="51.880933" topLatitude="26.388573" bottomLatitude="16.641322" rightLongitude="59.840216">
		</amcharts:ammap>
</defs>
<g>
	<path id="AE-SH" fill="#1E3250" stroke="#1E3250" stroke-width="0.5" d="M254.06,101.03l-0.22,1.29l0,0l-0.43,0.86l0,0l-0.19-0.09
		l0,0l-4.45-0.88l-0.86-1.08v-0.97l1.19-0.97l0.11-2.05l-0.86-1.73l-0.86-1.08l-0.11-0.97l0,0l0.03-0.71l0,0l1.05-0.15l1.29,0.54
		l0.97,1.4l0,0l0.56,0.56l-0.03,0.59l0,0l-0.09,0.93l1.5,1.48l0,0l0.19,0.01l-0.84,0.96l0,0l0.11,1.19l0,0L254.06,101.03z
		 M256.11,77.96v0.97l-0.97,0.54l-0.97-0.43v-0.86l0.97-0.65L256.11,77.96z M258.34,70.61l1.34-1.2l0,0l0.03,1.93l-0.42,1.28
		l-0.43,0.09l-0.11,0.41l0.1,0.53l0.45,0.51l0.48-0.09l-0.19-0.41l0.19-0.14l0.15,0.41l0.45,0.28l-0.13,0.39l0.42,0.39l-0.27,0.35
		l0.31,0.42l-0.66,0.55l0.11,0.25l0,0l-2.23,1.64l0,0l-0.09-1.76l0,0l-0.43-1.4l0.32-1.62l-0.18-1.81l0,0L258.34,70.61z
		 M259.81,94.79l0.06,1.02l-0.35-0.19L259.81,94.79z M259.41,90.89l0.21,2.98l0.27,0.6l-0.47,1.18l0.39,0.34l0.48,1.82l0,0
		l-1.22,0.13l0,0l-0.62,0.23l-0.4,0.94l0,0l-0.76-0.45l0,0l-1.44-0.19l0,0L256,95l-1.19-2.05v-1.19l0.86-0.86L259.41,90.89z"/>
	<path id="AE-DU" fill="#1E3250" stroke="#1E3250" stroke-width="0.5" d="M249.8,107.52l-0.46,2l0,0l-0.35,1.04l-1.28,0.38
		l-0.45,1.63l-0.32,0.25l-1.44,0.46l-1.78-0.12l-1.24-0.34l-0.53-0.46l0,0l1.78-2.02l0.96-2.52l0,0l0.32-0.04l0,0l0.76-0.24
		L249.8,107.52z"/>
	<path id="AE-FU" fill="#1E3250" stroke="#1E3250" stroke-width="0.5" d="M260.21,76.61l-0.11,2.55l-0.66,3.15l-0.26,4.21l0.23,4.37
		l0,0l-3.73,0.01l-0.86,0.86v1.19l1.19,2.05l-0.15,3.47l0,0l-0.18-0.02l0,0l-0.86-0.32l0,0l-2.16-0.11l0,0l-1.5-1.48l0.09-0.93l0,0
		l0.03-0.59l-0.56-0.56l0,0l-0.97-1.4l-1.29-0.54l-1.05,0.15l0,0l0.08-1.88l0,0v-4.53l0.75-2.479l0.11-1.19l2.13-1.1l0,0l0.25,0.4
		l0.6,0.27l0,0l2.08,0.41l0.82-0.12l0,0l1.93-1.43l0,0l0.39-0.28l0,0l0.82-0.53l0,0l0.27-0.69l0,0l0.29-1.29l0,0l2.23-1.64l0,0
		L260.21,76.61z M255.17,105.37l-0.25,0.32l0,0l-0.69-1.86l-0.4-0.46l0,0l-0.4-0.19l0,0l0.43-0.86l0,0l0.18-1.07l1.55-0.22
		l1.51,0.11l0,0l1.25,0.42l0,0l0.07,0.8l0,0l-0.04,0.5l0,0l-0.79,0.66l0,0l-1.79,0.47l0,0l0,0l0,0l-0.46,1.13l0,0L255.17,105.37z
		 M247.61,54.44l1.56-0.23l0.97,0.81l0.24,0.73l0.97,1.05l1.44,0.4l0,0l1.35-1.21l0.4,1.12l0.79,0.67l0.21-0.16l0.45-0.16
		l-0.19-0.32l3.38,1.26l0.02,3.09l0.82,1.35l-0.64,2.47l0.27,1.01l-0.29,2.2l0.11,0.51l0.27,0.09l-0.06,0.3l0,0l-1.34,1.2l0,0
		l-1.38,1.54l-2.67,1.17l-0.4,0.97l0,0l-0.27,1.63l-1.45,0.71l-1.67,0.18l0,0l-0.68-0.39l0.31-0.74l-2.22-0.62l-0.76,0.07
		l-1.51,1.12l-0.13,0.62l1.43-0.11l0.5,0.64l1.43,0.07l0.14,0.21l-0.6,1.01l-1.85,0.51l0.18,2.25l-0.63,0.18l-0.37,0.92l-0.42,0.23
		l-1.26-0.05L242.75,82l-1.45,0.67l-1.45-0.64l-2.08,0.04l0,0l0.34-1.59l-0.85-2.02l0.66-0.62l0.53-0.09l0.58-0.64l-0.27-1.22
		l-1.16-0.6l1.05-3.14l0,0l0.72,0.62l0.42,0.81l3.93,1.17l0.97-0.35l0.68-1.19l1.32,0.21l0.32-1.04l-0.11-1.68l-2.08,0.28
		l-0.56-0.28l-0.35-0.87v-0.32l1.63-1.58l0.68-1.22l-0.02-0.35l-1.71-1.97l-0.68,0.11l-1.54,0.96l-1.22-0.16l-1.96,0.21l-1.45-0.44
		l-0.79-3.49l0.21-0.43l-0.5-1.49l0.06-0.91l0.58-0.6l1.85,0.27l1.4-0.57l0.48-1.21l1.56-1.31l1.05,0.6l1.42-0.8l1.35,0.07
		l0.74-0.23l0.55-0.58l0,0L247.61,54.44z"/>
	<path id="AE-RK" fill="#1E3250" stroke="#1E3250" stroke-width="0.5" d="M241.03,36.81l-1,2.65l-0.18-0.3l0.92-2.24L241.03,36.81z
		 M237.77,82.07l2.08-0.04l1.45,0.64l1.45-0.67l1.32,0.73l1.26,0.05l0.42-0.23l0.37-0.92l0.63-0.18l-0.18-2.25l1.85-0.51l0.6-1.01
		l-0.14-0.21l-1.43-0.07l-0.5-0.64l-1.43,0.11l0.13-0.62l1.51-1.12l0.76-0.07l2.22,0.62l-0.31,0.74l0.68,0.39l0,0l-0.5,1.31
		l0.4,3.08l0,0l0.08,0.29l0,0l-2.13,1.1l-0.11,1.19l-0.75,2.479v4.53l0,0l-0.11,2.59l0,0l0.11,0.97l0.86,1.08l0.86,1.73l-0.11,2.05
		l-1.19,0.97v0.97l0.86,1.08l4.45,0.88l0,0l0.6,0.28l0,0l0.4,0.46l0.69,1.86l0,0l-0.33,0.35l0,0l0,0l0,0l-2.28,0.8l0,0l0,0l0,0
		l-1.83,0.11l0,0l-0.67,0.56l0,0l-4.03,0.02l-0.76,0.25l0,0l-0.61-0.05l0,0l-0.9-1.02l0,0l-1.84-1.73l0,0l-0.04-0.43l0,0l-0.53-1.34
		l0,0l-0.03-0.99l0,0l-0.29-2.17l-0.62-1.34l0,0l-0.59-0.37l0,0l-1.25-0.57l-1.1-0.07l-0.24-1.42l-1.38-2.33l0.13-1.06l-0.26-1.52
		l1.53-3.52l0.51-0.51l-0.61-1.11l-1.14-1.11l0.06-1.29l0.18-0.34l1.67-0.76L237.77,82.07z M241.74,35.1l0.11,0.3l-0.55,0.27
		l-0.4,1.14l0.56-1.89L241.74,35.1z M247.75,27.75l0.61,0.8l0.31,1.45l0,0l-0.23,2.73l0,0l0.25,1.14l-0.64,4.67l0,0l-1.09,4.25l0,0
		l-0.12,2.19l0.9,2.31l-0.44,1.15l-0.18,1.73l0.09,3.36l0,0l0.14,0.53l0,0l0.23,0.33l0,0l-0.55,0.58l-0.74,0.23l-1.35-0.07
		l-1.42,0.8l-1.05-0.6l-1.56,1.31l-0.48,1.21l-1.4,0.57l-1.85-0.27l-0.58,0.6l-0.06,0.91l0.5,1.49l-0.21,0.43l0.79,3.49l1.45,0.44
		l1.96-0.21l1.22,0.16l1.54-0.96l0.68-0.11l1.71,1.97l0.02,0.35l-0.68,1.22l-1.63,1.58v0.32l0.35,0.87l0.56,0.28l2.08-0.28
		l0.11,1.68l-0.32,1.04l-1.32-0.21l-0.68,1.19l-0.97,0.35l-3.93-1.17l-0.42-0.81l-0.72-0.62l0,0l-1.29-0.71l-0.9,0.27l-0.18,2.25
		l-0.93,1.7l-1.96-2.87l-1.24-0.99l-0.95-0.39L231,71.14l1.48-1.51l-0.06-0.51l-3.12-2.96l-0.32-0.83l0.06-3.81l-1.51-3.09
		l-0.39-2.34l-0.26-0.32l-1.96-0.03l-0.96-1.33l1.45-2.02l0.85,0.2l-0.24-0.2l0.05-0.34l0.55,0.09l0.1-0.3l-0.69-0.27l-0.11,0.44
		l-0.43,0.25l1.37-2.03l0.23,0.21L227,50.79l1.88,0.11l1.32-0.3l0.89-0.52l1.53-1.28l2.2-2.56l0.53-0.68l0.26-0.92l0.23,1.37
		l-0.79,0.73l-0.06,0.44l0.27,0.05l0.021-0.34l0.26,0.2l-0.03-0.28l0.53-0.34l0.23,0.271l0.32-0.07l-0.08-0.41l-0.58-0.32l0.69,0.09
		l0.08-0.3l-0.82-0.07l-0.03-0.91l1.17-0.92l1.85-3.02l-1.35,2.49l-0.84,0.87l0.76-0.2l1.37-2.61l0.35,0.02l0.27-1.46l1.06,0.2
		l0.23-0.2l0.27,0.21l0.24-0.18l0.03-1.25l0.47-0.39l-0.16-1.28l0.52-0.82l-0.06-1l-0.47-0.37l0.05-0.45l-0.34-0.09l-0.03-0.6
		l0.16,0.52h0.34l0.97-0.98l1.09-5.04l0.45-0.42l0,0l0.85,0.18l0,0l1.16-0.44L247.75,27.75z"/>
	<path id="AE-NZ1" fill="#1E3250" stroke="#1E3250" stroke-width="0.5" d="M241.95,112.36l-0.43-0.85l0.08-0.49l-0.74-0.77
		l-0.66-1.35l-0.05-1.56l-1.69-1.51l-0.9-1.76l0.33-0.54l1.06-0.28l1.19,0.49l1.52,1.24l0,0l0,0l0,0l1.84,1.73l0,0l0.9,1.02l0,0
		l0.29,0.09l0,0l-0.96,2.52L241.95,112.36z"/>
	<path id="AE-NZ2" fill="#1E3250" stroke="#1E3250" stroke-width="0.5" d="M258.32,101.56l-1.24-0.42l0,0l-1.51-0.11l-1.55,0.22
		l0.04-0.22l-1.94-0.86l0,0l-0.11-1.19l0,0l0.84-0.96l1.96,0.1l0,0l0.87,0.32l0,0l1.61,0.22l0,0l0.77,0.45l0,0l-0.01,0.04l0,0
		l0.22,1.96l0,0L258.32,101.56z"/>
	<path id="OM-BAN" fill="#1E3250" stroke="#1E3250" stroke-width="0.5" d="M325.94,170.5l-1.91,2.71l-4.85,5.95l-1.38,0.77
		l-1.76,0.05l-3.41,0.72l-2.7,3.2l-2.76-0.11l-0.55,0.49l-0.38,0.94l-0.83,0.27l-3.08,0.22l-4.17,3.81l0,0l-1.26-0.51l-6.69-0.25
		l-1.13-1.01l-0.38-1.39l-0.76-1.01l-1.23-0.74l-0.54-2.03l1.27-0.76l-0.76-0.89l-1.07-0.49l-1.83,0.12l-1.26-0.76l-1.65-0.38
		l-3.91,0.63l-1.01,0.51l-1.89-0.26l-2.02-1.89l-0.88-1.26l-0.76-3.41l-2.9-1.51l-0.63-1.64l-0.26-3.79l-0.75-1.51l-1.39-0.26
		l-0.89-1.01l-1.26-0.38l-2.14-3.02l-1.14-0.51l0,0l-0.25-1.51l1.77-2.02l-0.38-1.64l-2.53-1.39l-1.01-0.25l-2.94-3.98l0.16-1.28
		l0.64-1.11l0.89-4.69l0.86-1.69v-1.92l1.92-1.91h1.91l-0.79-1.76l-1.44-1.43l-1.44-0.48l-3.75-0.09l0.72-6.61l1.28-1.76l-1.12-1.91
		l-1.11-1.12l-0.8-1.6l-0.48-2.07l-0.96-1.28l0.96-1.91l1.12-0.48l-0.64-1.59l-0.32-1.76h-1.12l-0.85-1.35l0,0l0.46-2l0,0l0.67-0.56
		l0,0l1.83-0.12l0,0l0,0l0,0l2.28-0.8l0,0l0,0l0,0l0.75-0.92l0,0l0.46-1.13l1.78-0.48l0,0l0.79-0.66l0,0l0.04-0.5l0,0l-0.13-1.24
		l0,0l-0.22-1.96l0,0l0.41-0.98l0.61-0.24l0,0l1.23-0.12l0,0l1.85,5.89l1.24,2.84l1.62,2.8l0.97,3.88l3.94,8.09l5.16,7.91l3.48,3.54
		l1,0.89l0.71,0.3l5.95,9.24l2.98,3.77l0.71,1.56l2.89,3.72l3.16,2.93l1.86,1.49l0.46,0.11l2.99,2.57l2.51,2.45l2.19,1.46l6.58,2.85
		l11.22,3.45L325.94,170.5z"/>
	<path id="OM-BAS" fill="#1E3250" stroke="#1E3250" stroke-width="0.5" d="M298.16,189.52l4.17-3.81l3.08-0.22l0.83-0.27l0.38-0.94
		l0.55-0.49l2.76,0.11l2.7-3.2l3.41-0.72l1.76-0.05l1.38-0.77l4.85-5.95l1.91-2.71l0,0l4.62,2l5.74,1.56l3.75,0.28l1.37-0.37
		l0.97-0.61l0.03,0.77l0.34,0.68l0.98,1.05l3.64,1.98l4.39,0.28l3.64-0.35l0,0l-0.08,4.36l-1.26,4.42l1.14,0.38l1.39,1.64l0,0
		l0.35-0.03l-0.35,1.17l-1.14,2.27l0,0l-1.39,1.01v1.26l0,0l0.76,0.88v1.01l0,0l-3.03,0.13l0,0l-1.14,1.01l-1.01,0.25l0,0l-0.88-0.5
		l0,0l-1.13-0.13l-0.51,1.89l0,0l-0.38,1.39l-0.88,1.39l-1.14,0.88l-1.13,0.38l0.38,0.88l0.88,0.89l-1.01,1.89l-1.01,0.25
		l-0.76,0.76l-1.46,3.2l-0.85,2.53l-2.53,1.06l-2.32-1.27l-3.8,0.21l-2.74-1.68l-6.12,0.84l-3.38,0.21l-1.9-1.27l-1.9-0.21
		l-2.53-0.84l-1.26-1.05l-0.21-2.54l-2.54-1.47l-0.21-1.9l-3.79-1.48l-2.5-2.11l-1.79-0.65l0,0l-0.36-0.62l0,0l-1.05-1.68
		l-0.42-2.11l-2.11-0.85l1.85-3.29V189.52z"/>
	<path id="OM-BU" fill="#1E3250" stroke="#1E3250" stroke-width="0.5" d="M241.09,103.2l0.53,1.35l0,0l0.04,0.43l0,0l-1.52-1.24
		l-1.19-0.49l-1.06,0.28l-0.33,0.54l0.9,1.76l1.69,1.51l0.05,1.56l0.66,1.35l0.74,0.77l-0.08,0.49l0.43,0.85l0,0l0.53,0.46
		l1.24,0.34l1.78,0.12l1.44-0.46l0.32-0.25l0.45-1.63l1.28-0.38l0.35-1.04l0,0l0.85,1.35h1.12l0.32,1.76l0.64,1.59l-1.12,0.48
		l-0.96,1.91l0.96,1.28l0.48,2.07l0.8,1.6l1.11,1.12l1.12,1.91l-1.28,1.76l-0.72,6.61l3.75,0.09l1.44,0.48l1.44,1.43l0.79,1.76
		h-1.91l-1.92,1.91v1.92l-0.86,1.69l-0.89,4.69l-0.64,1.11l-0.16,1.28l2.94,3.98l1.01,0.25l2.53,1.39l0.38,1.64l-1.77,2.02
		l0.25,1.51l0,0l-2.31,0.22l-1.75,1.12h-2.71l-1.92,0.95l-2.23-0.16l-1.76-0.64l-3.55,0.12l-3.33,2.26l2.1,3.85l1.27,3.19
		l-2.55,0.16l-2.39,0.64l-2.24,1.11l-0.79,2.56l0.31,2.71l0.96,1.59l0.8,2.24l3.03,4.62l-0.96,1.28V190l-1.11,0.96l-3.35,0.32
		l-5.75,1.91l-3.03,2.24l-2.55,1.43l-2.39,2.24l-2.4,1.27l-3.99,0.32h-4.14l-7.77-0.57l0,0l1.5-7.19l1.27-1.77l2.23-1.93l0.77-1.13
		l0.73-2.7l0.6-4.4l1.11-2.42l2.04-2.48l0.99-1.85l-0.4-3.28l0.24-3.22l-0.18-0.64l-0.28-0.53l-2.68-1.45l-1.69-1.22l-0.3-2
		l3.65-0.61l3.37-1.58l-0.76-0.01l1.67-1.25l1.43-0.55l3.96,0.15l1.44,0.3l2.45-0.86l0.6,0.08l0.31,0.49l1.36,0.99l0.56,0.07
		l4.3-2.15l6.23-1.6l0.9-0.48l-0.18-0.8l-1.34-2.42l-1.13-1.42l-0.37-2.89l-0.59-0.65l-0.12-1.26l-0.55-0.65l-2.15,0.12l-2.79,1.39
		l-2.15-0.96l-1.76,0.15l-1.02-0.58l0.66-2.48l2.56-3.84l0.09-1.19l-0.22-3.01l-0.61-0.81l-1.45-1.15l-0.04-5.23l-0.66-2.62
		l0.13-0.94l1.55-0.95l-0.06-2.39l1.52-1.43l0.21-0.7l-1.16-2.76l-0.37-1.51l0.43-2.76l-0.96-4.31v-2.02l0.48-1.03l2.92-3.82
		l2.19-1.43l1.8-0.85l1.32-0.23l2.17,0.29l1.25,0.57l0,0l0.59,0.37l0,0l0.62,1.34l0.29,2.17l0,0L241.09,103.2z"/>
	<path id="OM-DA" fill="#1E3250" stroke="#1E3250" stroke-width="0.5" d="M358.11,188.44l2.9-0.25l1.25,5.26l3.21-0.43l0.21,1.48
		l0.76,0.51l0.5,1.26l1.39,1.51l0.76,1.64l0,0l0.63,1.64l1.31,1.41l0,0l2.1,6.48l0,0l0.63,3.03l0,0l0.25,3.28l-0.76,1.52l-1.38,0.12
		l-0.51-0.75l-1.89,0.5l-3.16,1.64l-2.27,0.5l-1.51,1.52l-1.64,0.5l-2.15,0.26l-2.02,1.26l-4.92,5.93l0.13,5.3l-1.9,0.51l-1.13,1.38
		l4.52,96.319l0,0l0,0l0,0l0.91,21.78l0,0l0,0l0,0l-82.92-31.439l0,0l4.34-29.05l3.04-15.89l1.06-9.29l1.9-9.49l0.63-4.43
		l-1.06-1.06l0.22-3.37l5.48-21.31l1.69-2.33l1.05-4.85l1.9-5.06l1.69,1.47l2.11,1.06l6.33-6.33l0.85-2.53l-1.48-2.96l0.42-5.27l0,0
		l-1.33-2.34l0,0l1.79,0.65l2.5,2.11l3.79,1.48l0.21,1.9l2.54,1.47l0.21,2.54l1.26,1.05l2.53,0.84l1.9,0.21l1.9,1.27l3.38-0.21
		l6.12-0.84l2.74,1.68l0,0l0,0l0,0l3.8-0.21l0,0l0,0l0,0l2.32,1.27l2.53-1.06l0.85-2.53l1.46-3.2l0.76-0.76l1.01-0.25l1.01-1.89
		l-0.88-0.89l-0.38-0.88l1.13-0.38l1.14-0.88l0.88-1.39l0.38-1.39l0,0l0.51-1.89l1.13,0.13l0,0l0.88,0.5l0,0l1.01-0.25l1.14-1.01
		l0,0l3.03-0.13l0,0v-1.01l-0.76-0.88l0,0v-1.26l1.39-1.01l0,0l1.49-3.44L358.11,188.44z"/>
	<path id="OM-MA" fill="#1E3250" stroke="#1E3250" stroke-width="0.5" d="M357.16,177.7l3.35,0.22l3.68,1.21l1.52,0.68l4.65,3.57
		l3.89,1.24l2.96,0.14l2.79-0.41l2.31-1.01l0.02-0.47l0.6-0.44l0.04-0.29l0.28,0.14l0.27-0.25l0.85,0.94l2.84-0.38l-0.02,0.28
		l0.4,0.26l-0.43,0.07l-0.1,0.39l0.79-0.07l0.11-0.3l0.34,0.31l0.15-0.28l0.57,0.63l-0.09-0.73l0.29,0.16v0.92l0.3,0.23l-0.43,0.52
		l0.42,0.23l-0.07,0.51l0.49,0.99l0.8,0.26l0.27,0.33l0.7-0.08l-0.05,0.35l0.5-0.14l0.11,0.15l-0.48,0.23l0.29,0.52l0.46-0.2
		l0.15-0.46l0.42,0.82l0.91,0.68l2.24-0.05l0.16,0.16l-0.24,0.52l0.35,0.3l-0.27,0.19l0.19,0.31l0.079-0.29l0.261,0.22l-0.08-0.68
		l0.29-0.03l0.16,0.26l0.52-0.38l0.46,0.05l-0.13,0.49l0.7,0.26l-0.391,0.14l0.15,0.38l0.41,0.26l0.13,0.6l0.23-0.09l0.38,0.91
		l-0.11,0.87l0.39,2.48l0.82,0.73l0.34,1.06l2.521,1.52l0.239,0.57l1.36,0.91l0.72,0.94l1.37,0.58l0.19,0.94l0.24,0.17l-0.11,0.84
		l0.29,1.1l0.72,1.63l1.79,1.27l1.46,1.42l0.23,1.02l-0.23,1.17l1.24,2.97l1.1,1.31l1.62,1.11l0.5,2.09l2.37,2.49l3.12,2l1.45,0.62
		l1.109,1.5l0.69,1.96l-15.94,1.49l0,0l-0.13-3.41l0,0l0.761-4.42l-1.271-1.38l-1.51,0.25l-0.76,1.01l0,0l-1.391,2.02l-2.899-1.9
		L400.26,221l0,0l-1.89-0.75l-1.771-1.14l0,0l-1.64-1.39l0,0l-3.66-1.51l-1.01-1.26l-1.51-0.64l-2.53-3.4l0,0l-0.5-0.76l-0.25-1.39
		l0,0l-4.8-0.25l-1.51-1.39l-1.64-0.76l0,0l-2.91-1.76l-2.27-1.77l0,0l-1.39-0.38l-1.26-1.39l-0.63-1.64l0,0l-0.76-1.64l-1.39-1.51
		l-0.5-1.26l-0.76-0.51l-0.21-1.48l-3.21,0.43l-1.25-5.26l-2.9,0.25l0,0l-1.51,0.13l0,0l-1.39-1.64l-1.14-0.38l1.26-4.42l0.08-4.36
		l0,0L357.16,177.7z"/>
	<path id="OM-MU" fill="#1E3250" stroke="#1E3250" stroke-width="0.5" d="M269.16,7.69l0.45,0.7l0.18,0.41L269.9,9l-1.66,0.54
		l0.05-0.27l0.53-0.23l0.16-0.36l-0.19-0.66L269.16,7.69z M264.74,8.37l0.27,0.32l0.61-0.05l-0.31,0.68l-0.93-0.46L264.74,8.37z
		 M257.83,76.45l0.09,1.76l-0.29,1.29l0,0l-0.27,0.69l0,0l-0.82,0.53l0,0L256.15,81l0,0l-1.93,1.43l0,0l-0.82,0.12l-2.08-0.41l0,0
		l-0.79-0.46l-0.14-0.5l0,0l-0.4-3.08l0.5-1.31l0,0l1.67-0.18l1.45-0.71l0.27-1.63l0,0l0.4-0.97l2.16-0.89l1.11-0.82l0,0l0.18,1.81
		l-0.32,1.62L257.83,76.45z M256.11,78.93l-0.97,0.54l-0.97-0.43v-0.86l0.97-0.65l0.97,0.43V78.93z M260.54,7.62l-0.39,1.36
		l0.39,0.07l0.1-0.52l0.47-0.16l-0.27,1.18l0.42-0.11l0.31-0.68l0.18,0.04l-0.13,0.89l0.31-0.07l0.53-0.98l0.23,0.25l0.11,0.61
		l-0.45,0.04l0.24,0.34l-0.21,0.18l0.05,0.82l1-0.93l0.35,0.46l0.1,0.13l0.26,1.04l0.69-0.07l0.05-0.32l0.42-0.23l-0.11,0.79
		l0.56,0.25l0.27-0.38l0.92,0.32l0.56-0.25l-0.02-0.25L267,10.92l0.1-0.29l-0.56-0.07l-0.35-0.59l1.13,0.39l0.24-0.73l0.39,0.04
		l-0.18,1.02l0.32,0.52l-0.21,0.73l0.82-0.09l0.13,0.27l-0.4,0.59l-0.61-0.21l-0.37,0.25l0.14-0.45l-0.26-0.21l-1.87,0.23
		l-0.68,0.66l-0.16-0.39l-1.17,0.39l-0.26-0.16l-0.05,0.39l0.56,0.96l-0.58-0.05l-0.42-0.36l-0.4,0.07l0.03,0.32l-0.52-0.21
		l-0.29,0.43l0.14,0.39l0.31-0.11l0.5,0.7l-0.06,0.29l-0.93,0.3l0.52,0.38l-0.03,0.21l0.43,0.45l0.74-0.21l0.06,1.03l0.51-0.21
		l0.69,0.71l0.64-0.29l-0.05-0.39l0.34-0.13l-0.23-0.77l0.29,0.02l0.16,0.61l0.85-0.11l0.07,0.43l0.69-0.11l-1.08,0.68l0.66,2.12
		l-0.55,0.31l-0.29-0.09l0.13-0.5l-0.5-0.09l0.45-0.5V19.1l-0.69-0.5l-0.43,0.21l-0.18,0.73l-0.52-0.02l0.31,0.54l-0.14,0.32
		l-0.48-0.29l-0.1,0.14l0.31,0.25l0.11,0.87l-0.23,0.84l0.5,0.45l0.26-0.11l0.16-0.55l0.35-0.14l-0.06,0.36l0.64-0.13l0.19,1.43
		l0.63-0.23l0.24,0.91l-0.35-0.21l-0.48,0.39l0.05-0.48l-0.24-0.2l-0.85,0.16l-0.19-0.18l-0.43,0.05h-0.42l-0.45,0.45l-0.26-0.13
		l-0.53-1.23l-0.29,0.09l0.26-0.66l-0.32-0.12l0.05-0.3l0.16-0.34l0.31,0.02l-0.15-0.3l0.21-0.39l-0.24-0.34l-0.39,0.16l-0.26,0.64
		l-0.61-0.09l-0.29,0.29l0.05,0.64l0.23-0.04l0.02,0.21l-0.35,0.09l-0.18,0.57l-0.37,0.04l0.4-1.12l-0.43-0.66l0.32-0.04l0.14-0.48
		l0.45,0.21l0.39-0.16l-0.26-0.75l-0.63-0.3l-0.56,0.09l-0.11,0.39l-0.48-0.18l0.05,0.45l-0.37,0.02l-0.32,0.68l0.53,0.25
		l-0.27,0.37l-0.89,0.43l-0.61-0.18l-0.37,0.48l0.5,0.5L258,23.95l0.76-0.7l-0.48,1.05l0.15,0.43l-0.34,0.32l-0.13,0.7l0.19,0.05
		l-0.27,0.59l0.85-0.21l0.02-0.59l0.24-0.11l0.19-0.68l1.11-0.84l0.29,0.39l-0.05,0.45l-0.72,1.68l0.53,0.04l0.21,0.52l0.48-0.23
		l-0.05-0.68l0.58-0.59l0.15,1.03L262.5,26l-0.16,0.94l0.34,0.48l1.17-0.78l0.16,0.45l0.43-0.55l0.14,0.32l0.45-0.05l0.18,0.37
		l0.82-0.29l0.16,0.27l-0.72,0.28l-0.52,0.53l-0.35,0.05l-0.45-0.07l-0.31,0.82l0.24,0.27L264,29.77l-0.47,0.05l-0.21-0.25
		l-0.21,0.3l-0.69,0.07l-0.13-0.55l-1.37,0.8l0.5,0.29l-0.32,0.2l0.16,0.3l-0.37,0.14l0.32,0.25l0.45-0.59l0.45-0.021l0.31,0.55
		l0.92-0.41l-0.32,1.37l0.34,0.2l-0.1,0.37l0.48,0.64l-0.84-0.37l0.06,0.43l-0.69,0.18l0.19,0.34l-0.4,0.05l-0.23,0.43l1.08,0.52
		l0.39-0.16l-0.1,1.05l0.4,0.69l1.58-0.59l-1.01,0.66l0.15,0.82l-0.53-0.44h-0.58l-0.39,0.41l-0.08-0.48L262.02,37l-0.15-0.29
		l-0.45,0.09l0.03,2.01l0.89,0.37l-0.53,0.85l0.18,0.16l-0.19,0.75l-0.61,0.75l-0.69-0.07l-0.05-0.2l-0.58,0.27l0.05,0.41h0.55
		l0.48,0.55l-0.61,0.39l-0.82-0.25l0.15,0.53l0.53,0.16l-0.29,0.82l0.16,0.59l-0.55,0.36l-0.48,0.92l-0.4-0.94l-0.11,0.84l0.26,0.64
		l-0.4,0.37l-0.66,1.48l-1.34,1.07l0.82-1.81l0.02-0.3l-0.19,0.04l-0.4,0.44l0.06,0.52l-0.55,0.37l0.03,0.3l-0.43,0.18l-1.14,1.55
		l-0.19,0.8l0.71,0.12l-0.4,0.34l0.27,0.78l-0.55,0.35l-0.27,0.8l-0.05,0.64l0.23,0.21l-0.18,0.09l-0.02,0.94l-1.33,1.21l0,0
		l-1.44-0.4l-0.97-1.05l-0.24-0.73l-0.97-0.81l-1.56,0.23l0,0l-0.26-0.38l0,0l-0.14-0.53l0,0l-0.09-3.36l0.18-1.73l0.44-1.15
		l-0.9-2.31l0.12-2.19l0,0l1.09-4.25l0,0l0.64-4.67l-0.25-1.14l0,0l0.23-2.73l0,0l-0.31-1.45l-0.61-0.8l-1.5-0.24l-1.16,0.44l0,0
		l-0.85-0.18l0,0l0.79-1.79l0.45-0.3l1.43-2.69l0.23-0.05l0.02,0.34l0.43-0.07l0.79-1l0.39-1.03l0.48-3.07l0.76-1.02l0.45-0.23
		l-0.02-0.39l0.42-0.36l0.42,0.18l-0.02,1.05l0.03,0.39l0.29,0.96l-0.19,0.3l0.08,1.02l0.31-0.23l0.27-0.95l0.71,0.14l0.02,0.68
		l0.45,0.16l0.53-1.18l0.6,0.07l0.23,0.27l0.53-0.57l0.16,0.2l0.35,0.61l-0.11,1.02l0.42,0.59l0.8-0.04l-0.08-0.25l-0.45-0.02
		l0.13-0.32l1.08,0.45l0.21-0.32l0.42-0.07l0.11,0.68l0.37,0.09l0.34-0.7l-0.16-0.25l0.26,0.04l0.39-0.98l0.32,0.34l0.93-0.3
		l0.24,0.2l0.47-0.09l0.02,0.41l0.48,0.36l0.45-0.13l-0.39-0.64l0.87,0.14l-0.08-0.34l-0.82-0.45l0.66-0.2l-0.13-0.61l-0.5-0.16
		l-0.63,0.32l0.18-0.55l-0.24-0.38l-0.42,0.84l-0.4,0.13l-0.52-0.55l-1.13,1.39l-0.39-0.36l-0.39,0.95l-1.38,0.41l-0.37-0.46
		l-0.02-1.61l0.45-0.87l0.32,0.18l0.16-0.27l-0.32-0.86l0.26-0.09l-0.24-0.45l0.37-1.32l0.51,0.68l0.39-0.05l0.29,0.62l0.43,0.11
		l-0.13,0.89l0.68,0.16l0.16-0.18l0.47,0.3l0.37-0.52l-0.06-0.41l-0.72-0.46l0.42-0.25l-0.08-0.2l-0.89-0.07l-0.19,0.18v-0.79h-0.53
		l-0.21-0.57l-0.74-0.38l0.11-0.43l0.63-0.55l0.24,0.45l0.64-0.63l0.39,0.43l0.34-0.18l0.14-1.07l-0.37-0.07l0.48-1l-0.05-1.13
		L260.54,7.62z M259.17,8.42l0.53,0.54l-0.4,0.27l-0.13,1.8l-0.61,0.32l-0.1-1.5l0.39-0.73l0.13-0.25l-0.02-0.38L259.17,8.42z
		 M262.97,7.83l-0.23,0.57l-0.23-0.11l0.18-0.43L262.97,7.83z"/>
	<path id="OM-SHN" fill="#1E3250" stroke="#1E3250" stroke-width="0.5" d="M406.6,365.43l0.71,0.29l0.261,0.431l-0.891,3.729
		l0.15,1.13l0.51,1.16l1.5,0.89l-0.18,0.851l0.32,0.5l-0.19,0.27l0.1,0.58l0.421,0.75l0.819,0.32l0.11,0.27l-0.92,1.33l-2.4,0.851
		l-0.06,0.43l-3.25,1.74l-0.42,0.5l0.06,0.31l-0.92,0.601l-0.391,0.87l0.16,0.789l-1.369,2.101l0.189,0.97l-0.39,0.94l0.13,0.46
		l-1.19,1.479l0.311,0.53l-0.21,0.41l0.229,0.03l0.13,0.46l-0.93,0.43l-0.16,0.479l-0.51-0.029l-0.85,0.68l-0.791,1.14l-0.26,1.021
		l-0.72,0.39l-0.27,0.431l-0.32-0.101l-1.79,0.82l-0.72,1.31l-0.82,0.03l-0.5,0.43l-0.11-1.31l-0.23-0.26l0.26-0.53l-0.27-0.75
		l0.16-0.55l-0.34-0.561l-0.06-0.77l0.13-1.36l-0.23-0.479l0.32-0.73l-0.15-0.68l0.31-0.19l0.11-3.09l1.71-2.42l0.29,0.05l0.83-0.5
		l0.05-0.899l0.87-0.73l0.31-0.75l0.32-0.07l0.45-0.79l0.45-0.149l-0.56,0.56l0.5,0.9h1.54l1.38-1.2l0.06-1.31l0.5-0.48l-0.159-0.75
		l0.239-2.27l2.69-4.48l0.87-0.92l1.05-0.62l-0.1-1.229l0.189-0.5l-0.27-0.271l0.369,0.21l0.131-0.32l0.26-1.56l-0.18-0.74
		L406.6,365.43z M400.26,221l1.641,0.63l2.899,1.89l1.391-2.02l0,0l0.76-1.01l1.51-0.25l1.26,1.39l-0.76,4.42l0,0l0.13,3.41l0,0
		l15.96-1.46l0.391,0.92l-0.15,0.56l0.9,2.4l1.029,1.28l0.45,0.21l0.13,0.87l1.42,2.99l0.98,0.62l0.74-0.1l0.43,0.31l0.39-0.03
		l1.32,2.58l1.35,0.52l-0.1,0.64l0.32,0.83l2.33,1.51l2.989,2.98l3.561,2.44l-0.141,0.5l-0.529-0.24l-0.66,0.26l0.229-0.52
		l-0.229-0.12l-0.58,0.62l0.39,0.16l-0.06,0.33l0.8,0.24l0.32-0.5l0.45,0.1l0.239-0.95l6.2,0.66l3.3,1.11l0,0l-0.52,0.74l-1.38,0.69
		l-3.58,1.17l-1.38,0.96l-1.65,0.21l-1.72-0.55h-3.17l-0.891,0.34l-0.479,1.72l-2.75,3.65l-1.38,0.21l-1.721-0.28l-2.34-2.13
		l-1.859-0.69l-0.48,0.48l-0.28,1.31l0.62,1.1l0.69,3.51l0.34,2.27l-0.21,1.38l-1.93,1.45l-0.55,1.72l-0.83,0.96l-1.101,0.69
		l-1.24-0.21l-4.34-4.2l-1.79-1.38l-1.79-3.99l-1.45-2l-1.239-0.69l-3.3-1.1l-1.65-1.1l-2.69-2.75l-0.34-1.17l-0.28-5.16l-3.3-4.48
		l-1.79-1.52l-1.649-0.76l-1.79-0.21l-0.55,1.17l-0.21,1.45l0.41,2.07v1.58l-2.69,5.44l-0.69,2l-0.48,3.72l-1.58,1.65l-1.24,0.41
		l-1.79-0.07l-1.31-0.62l-0.55-1.51l0.21-5.16l-0.21-1.31l-0.69-1.58l-3.03-3.24l-1.24-0.9l-1.24-0.62l-2.13-0.55l-1.38-0.9
		l-2.41-2.48l-0.69-0.96l-0.34-1.1l0.62-3.3l0.76-1.86l-0.41-1.45l-1.17-1.38l-2.34-5.03v-4.68l2.62,0.14l0.96-0.62l0.62-1.03
		l0.14-1.52l2.89-4.89v-1.31l-0.69-0.9l-1.31-0.41l-1.27-0.08l0,0l-0.54-2.61l0,0l-2.1-6.49l0,0l1.34,0.36l0,0l2.27,1.77l2.9,1.77
		l0,0l1.64,0.76l1.51,1.39l4.8,0.25l0,0l0.25,1.39l0.5,0.76l0,0l2.52,3.41l1.51,0.63l1.01,1.26l3.66,1.51l0,0l1.64,1.39l0,0
		l1.77,1.14L400.26,221z"/>
	<path id="OM-SHS" fill="#1E3250" stroke="#1E3250" stroke-width="0.5" d="M453.27,251.18l1.53,0.42l-0.29,0.59l0.141,0.19
		l-0.881,0.91v0.46l1.04,0.64l-0.119,0.41l1.14,0.54l1.46-0.87l-1.56-0.64l-0.271-0.8l-0.8-0.81l0.33-0.71l1.22,0.17l-0.04,0.3
		l0.99,0.78l0.74-0.19l-0.08-0.52l-0.58-0.12l-0.641,0.31l-0.13-0.52l1.34-0.35l0.771,0.09l0.53,2.27l0.659,0.52l0.16,0.72
		l0.36,0.37l0.72,3.1l-0.72,0.62l-0.6,2.06l0.479,1.19l-0.45,1.53l0.03,0.46l0.38,0.4l0.01,1.99l-0.77,2.39l-0.05,1.76l-2.25,1.81
		l-0.2,0.42l0.18,0.48l-0.29,0.49l-0.64,0.79l-0.76,0.45l-2.011,3.26l-1.67,1.92l-0.47,1.57l0.35,0.68l-1.729,3.98l-0.09,0.52
		l0.46,0.78l-0.37,0.93l-2.34,1.91l-2.061,2.85l0.391,0.76l-0.07,0.43l-2.56,2.44l-2.171,2.59l-0.59,1.57l0.141,1.68l-1.74,3.07
		l0.21,0.62l-0.24,0.521l-1.74,2.59l-1.51,2.96l-0.76,0.83l-0.43,1.39l-1.9,2.41l-0.35,1.03l0.659,0.47l-0.21,0.92l-2.13,1.22
		l-5.819,2.391l-2.551,1.55l-7.27,5.89l-2.45,2.471l-1.81,2.369l-2.891,2.54l-3.729,4.4l-3.15,4.89l-0.13,1.34l0.53,0.631
		l-0.23,1.01l-2.91,3.27l-0.51,1.54l0.08,1.05l-0.359,0.221l0.229,1.029l-1.32,0.851l0.48-1.04l-0.16-0.53l0.19-0.26l-0.37-0.22
		l-1.65,1.63l0.14,0.56l-0.8,1.2l-0.45,0.05l-0.12-0.58l-0.38,0.311l0.22,0.18l-0.29,0.29l0.02,0.42l0.34,0.36l-1.28,0.56l0.65,0.17
		l-0.13,0.141l0.56-0.051l-0.32,0.25l0.31,0.021l0.38-1.03l0.23,0.771l0.54,0.29l0.71-0.391l0.55,0.311l-1.27,0.22l-0.32,0.58
		l0.46,0.12l0.29-0.36l0.21,0.21l1.89-0.96l0.19-0.75l-0.479-1.109l0.3-0.721l-0.34-0.09l0.659-0.63l0.42,0.94l-0.109,2.63
		l-0.19,0.26l-1.56,0.34l-1.76,2.09l-3.04,1.851l-2.22,2.58l0.93,0.029l0.18,0.16l-0.26,0.271l0.36,0.26l-1.47,1.569l-0.64,1.44
		l-0.13,1.22l-0.5,0.5l0.13,0.561l-0.4,0.819l-0.44,0.04l-0.37,0.771v0.89l-0.4,0.44l0.1,0.189l0.27-0.1l0.06,0.25l-0.87,1.54
		l-0.14,2.05l-0.53,0.7l-0.56,0.27l-0.29,0.631l-0.76,0.05l-0.32,0.45l-0.5,0.079l-0.11,0.631l-0.42,0.14l-1.19,1.37v0.39l-2.35-0.1
		l-0.69-0.601l-0.73-0.1l-1.74-1.08l-1.88,0.021l-1.96,0.68l-1.24,0.03l-0.76-0.921l-1.46-0.659l-0.89-0.12l-0.61-0.48l-0.18-1.67
		l0.71-0.5l0.77-2.12l1.21-1.939l0.15-0.99l0,0l2.91,0.26l0.43-3.37l1.05-2.54v-2.319l-1.05-6.12l-17.73-8.65l0,0l-5.43-118.1
		l1.13-1.38l1.9-0.51l-0.13-5.3l4.92-5.93l2.02-1.26l2.15-0.26l1.64-0.5l1.51-1.52l2.27-0.5l3.16-1.64l1.89-0.5l0.51,0.75l1.38-0.12
		l0.76-1.52l-0.25-3.28l0,0l-0.09-0.42l0,0l1.27,0.08l1.31,0.42l0.69,0.89v1.31l-2.89,4.89l-0.14,1.51l-0.62,1.03l-0.97,0.62
		l-2.61-0.13v4.68l2.34,5.02l1.17,1.38l0.41,1.45l-0.75,1.86l-0.62,3.3l0.34,1.1l0.69,0.97l2.41,2.48l1.37,0.89l2.14,0.55l1.24,0.62
		l1.24,0.9l3.03,3.23l0.69,1.58l0.2,1.31l-0.2,5.17l0.55,1.51l1.3,0.62l1.79,0.07l1.24-0.41l1.59-1.66l0.48-3.71l0.69-2l2.68-5.44
		v-1.58l-0.41-2.07l0.21-1.44l0.55-1.17l1.79,0.2l1.649,0.76l1.79,1.51l3.311,4.48l0.27,5.16l0.341,1.17l2.689,2.76l1.65,1.1
		l3.31,1.1l1.24,0.69l1.439,2l1.79,3.99l1.79,1.38l4.341,4.2l1.239,0.2l1.101-0.69l0.83-0.96l0.55-1.72l1.93-1.45l0.2-1.37
		l-0.34-2.28l-0.69-3.51l-0.62-1.1l0.28-1.31l0.48-0.48l1.859,0.69l2.34,2.13l1.721,0.28l1.38-0.21l2.75-3.65l0.479-1.72l0.9-0.34
		h3.16l1.72,0.55l1.66-0.21l1.37-0.96l3.58-1.17l1.38-0.69L453.27,251.18z"/>
	<path id="OM-WU" fill="#1E3250" stroke="#1E3250" stroke-width="0.5" d="M354.33,353.55l17.73,8.65l1.05,6.12v2.319l-1.05,2.54
		l-0.43,3.37l-2.91-0.26l0,0l0.67-1.271l0.07-1.38l0.35-0.67l0.23,0.07l0.01-0.85l-3.54-1.421l-0.93-0.1l-0.23,0.25l-1.17,0.26
		l-0.53,0.75l-1.15,0.511l-0.75,0.81l-0.57,0.01l-2.01,0.99l-0.37,0.65l0.1,1.34l-0.57,1.279l0.12,2.301l-0.69,0.33l-0.57,0.63
		l-1.24,0.189l-2.51,1.16l-1.85,1.58l-0.46,1.06l0.12,1.4l0.39,0.63l1.32,0.34l-0.95,1.931l-4.55,2.699l-1.71,1.721l-0.4,1.24
		l-1.19,1.399l-0.41,1.67l0.17,1.84l0.17,0.36l0.65,0.1l0.16,0.551l-0.97,3.949l0.34,0.601l-0.8,2.399l0.06,1.681l-1.13,1.81
		l-0.25,1.38l-1.05,1.971l-0.16,0.729l0.22,0.33l-0.99,2.33l0.09,0.32l-0.89,1.149l0.02,0.82l-2.83,3.38l-0.67,1.43l-0.12,1.771
		l0.4,1.359l0.7,0.641l0.62-0.15l0.39,0.63l0.58-0.14l-0.19,1.4l-0.49,0.93l0.2,1.07l-0.97,3.02l-0.14,1.87l0.35,0.93l1.1,1.09
		l0.19,1.2l0.5,0.48l0.4,0.93l0.45,0.21l0.82,3.521l-0.16,1.6l-1.05,3.39l0.2,4.42l1.3,3.561l0.5,0.49l1.03-0.101l0.59,0.79
		l-0.49,2.271l0.08,2.93l0.46,0.54l0.52-0.03l0.26,2.28l0.7,1.14l0.6,0.17l0.08,0.29l-1.43,1.15l-0.26-0.19l-0.39,0.851l-3.68,0.319
		l-1.08,0.96l-1.05,0.49l-1.41,0.2l-11.15-0.15l-4.77,0.261l-5.47,0.66l-2.7,0.569l-13.65,3.67l-9.27,3.82l-3.83,2.5l-1.98,1.72
		l-7.79,9.17l-0.34,1.25l0.42-0.319l0.87-1.82l-1.46,3.52l0.43,4.811l-1.43,3.13l-0.07,3.14l-0.53,2.86l-2.4,4.42l-0.78,2.84
		l0.01,0.78l0.34,0.64l0.06,1.82l-1.48,0.58l-0.93,1.35l-1.74,0.78l-2.41,1.76l-0.4,0.641l-0.16,1.62l-2.55,2.25l-1.33,0.619
		l-0.45,0.67l-0.02,0.461l0,0l-20.59-35.351l-19.2-31.02L198.78,435l-18.14-26.77l0,0l24.54-78.33l0,0l66.23-7.79l0,0L354.33,353.55
		z"/>
	<path id="OM-ZA" fill="#1E3250" stroke="#1E3250" stroke-width="0.5" d="M202.54,200.12l7.77,0.57h4.14l3.99-0.32l2.4-1.27
		l2.39-2.24l2.55-1.43l3.03-2.24l5.75-1.91l3.35-0.32l1.11-0.96v-2.07l0.96-1.28l-3.03-4.62l-0.8-2.24l-0.96-1.59l-0.31-2.71
		l0.79-2.56l2.24-1.11l2.39-0.64l2.55-0.16l-1.27-3.19l-2.1-3.85l3.33-2.26l3.55-0.12l1.76,0.64l2.23,0.16l1.92-0.95h2.71l1.75-1.12
		l2.31-0.22l0,0l1.14,0.51l2.14,3.02l1.26,0.38l0.89,1.01l1.39,0.26l0.75,1.51l0.26,3.79l0.63,1.64l2.9,1.51l0.76,3.41l0.88,1.26
		l2.02,1.89l1.89,0.26l1.01-0.51l3.91-0.63l1.65,0.38l1.26,0.76l1.83-0.12l1.07,0.49l0.76,0.89l-1.27,0.76l0.54,2.03l1.23,0.74
		l0.76,1.01l0.38,1.39l1.13,1.01l6.69,0.25l1.26,0.51l0,0v1.01l-1.85,3.29l2.11,0.85l0.42,2.11l1.05,1.68l0,0l1.69,2.96l0,0
		l-0.42,5.27l1.48,2.96l-0.85,2.53l-6.33,6.33l-2.11-1.06l-1.69-1.47l-1.9,5.06l-1.05,4.85l-1.69,2.33l-5.48,21.31l-0.22,3.37
		l1.06,1.06l-0.63,4.43l-1.9,9.49l-1.06,9.29l-3.04,15.89l-4.34,29.05l0,0l-66.23,7.79l0,0l14.08-44.811l-10.24-17.39l-16.12-26.29
		l-0.23-2.02l0.96-5.06l-0.53-7.37l0.34-5.82l1.26-2.7l-0.09-1.32l0.51-2.03l3.69-5.79l0.46-1.34l1.48-2.2l1.53-4.21L202.54,200.12z
		"/>
	<path id="OM-ZU" fill="#1E3250" stroke="#1E3250" stroke-width="0.5" d="M180.64,408.23L198.78,435l20.47,31.86l19.2,31.02
		l20.59,35.351l0,0l-0.13,0.42l0.27,0.439v0.72l-0.68,0.341l-2.22-0.2l-1.29-0.49l-0.31-0.34l-1.38-0.13l-0.34-0.24l-3.35-0.021
		l-0.69-0.319l-0.97,0.37l-0.71,0.67l-2.08,0.1l-0.53,0.37l-3.81-0.59h-3.46l-2.03,0.859l-0.72,0.761l-1.13,0.42l-0.26-0.181
		l-0.4,0.29l-8.72-0.47l-6.07,0.86l-6.23,1.38l-6.24,2.72l-0.61,0.91l0.11,0.399l-0.47,1.261l0.26,0.45l-0.23,0.6l-1.21,0.77
		l-0.72,1.19l0.13,1.83l-0.31,1.09l-3.41,1.811l-0.9,0.96l-0.02,0.39l-2.17,1.36l-0.4,0.489l0.11,0.591l-1.24,1.609l-0.77,1.93
		l-0.03,1.631l0.34,0.35l-0.03,1.22l0.26,0.75l0.79,0.8l1.38,0.03l1.43,2.561l0.02,0.449l0.51,0.171l-0.48,0.439l0.11,0.67l-0.4,0.5
		l0.11,0.74l-0.8,0.59l0.03,0.97l-0.82,0.971l-0.19,0.92l-0.85,0.54l-0.42,0.84l-0.05,0.6l1.32,1.76l-0.51,0.391l-0.18,0.67
		l-0.84,0.59l-0.24,0.57l-1.42,0.8l-0.92,1.67l0.18,1.07l-2.08,0.399l-0.74,0.37l-1.35,2.17l-1.3,1.79l-0.82,0.32l0.08,0.33
		l-0.31,0.43l-1.93,1.07l-0.19,0.47l-0.97,0.3l-0.61,0.99l-0.11-0.99l-0.66-0.33l-0.8,0.07l-0.72,1.55l-1.29,0.55l-0.85-0.22
		l-0.16,0.69l-0.8,0.17l-0.13-0.471l-0.64-0.369l-0.02,0.689l-0.47,0.72l-1.48-0.02l-0.37,0.42l-0.95-0.271l-1.3,0.29l-0.37,0.07
		l-0.69,0.13l0.19,0.32l-0.18,0.18l-1.19,0.18l-1.03-0.649l-0.69,0.45l-0.61-0.74l-0.45,0.08l0.02,0.3l-0.55-0.13l-0.53,0.22
		l0.05-0.55l-0.52,0.12l-0.06-0.45l-0.74-0.1l-0.37-0.03l-0.05,0.27l-0.26-0.17v-0.47l-0.26,0.12l-0.47-0.3l0.45-1.101l-0.47-0.949
		l-0.63-0.351l-2.43-0.64l-2.67,0.03l-3.36-0.33l-4.44,0.05l-0.4,0.35l-0.47-0.02l-0.43-0.29l-4.67-0.101l-4.65,0.5l-11.54,1.841
		l-2.66,0.649l-0.6,0.4l-0.98,1.51l0.34,0.17l-0.03,0.72l0.48-0.199l0.23,0.279l-0.32,0.4l-0.69-0.02l-0.63,0.3l-0.84,1.02
		l-0.35-0.25l-0.76,0.13l-0.21,0.69l-1.82-0.03l-0.76,0.29l-1.4-0.15l-1.59,0.57l-2.03,0.03l-2.46,0.479l-1.06,0.45l-0.02,0.37
		l-2.27,1.85l-0.19,0.471l-0.55,0.02l-0.52,0.601l-0.55,0.029l-0.64,1.07l0.19,0.79l-0.16,0.22l-4.17,1.34l-1,0.601l-4.46-0.8
		l-2.56,0.38l-4.26,1.09l-2.33,0.28l-1.4,0.6l-1.3,0.15l-6.31,1.739l-4.25,2.25L69.54,612l-21.42-26.35l2.07-15.381L0,495.01
		l6.88-25.76L18.44,465l1.54-0.31l1.08-0.62l12.95-4.66l51.97-18.33L180.64,408.23z M229.93,559.76l0.95,0.75l0.92,0.15l0.02,0.54
		l-0.32,0.47l-0.76,0.37l-0.4-0.47l-0.15,0.25l-0.26-0.271l0.21-0.18l-0.13-0.271l-0.61,0.29l-0.58-0.319l-0.15,0.29l-0.19-0.57
		l0.14-0.271l0.35,0.12L229.93,559.76z M241.53,557.06l0.34,0.521l0.26,1.79l1.96,0.22l0.05,0.271l-0.42,0.52l-0.98,0.25l-1.58,0.86
		l-1.13-0.2l-0.02,0.22l-0.66,0.101l-0.21-0.28l-1.96-0.2l-0.74-0.47l0.03-0.521l-0.39-0.17l0.37-0.55l1.67-0.57l0.08-0.319
		l0.9,0.069l1.03-0.399L241.53,557.06z"/>
</g>
</svg>
