<?xml version="1.0" encoding="utf-8"?>
<!-- Generator: Adobe Illustrator 15.0.0, SVG Export Plug-In . SVG Version: 6.00 Build 0)  -->
<!DOCTYPE svg PUBLIC "-//W3C//DTD SVG 1.1//EN" "http://www.w3.org/Graphics/SVG/1.1/DTD/svg11.dtd">
<svg version="1.1" id="Layer_1" xmlns:amcharts="http://amcharts.com/ammap"
	 xmlns="http://www.w3.org/2000/svg" xmlns:xlink="http://www.w3.org/1999/xlink" x="0px" y="0px" width="241.292px"
	 height="413.322px" viewBox="0 0 241.292 413.322" enable-background="new 0 0 241.292 413.322" xml:space="preserve">
<defs>
	
	
		<amcharts:ammap  projection="mercator" leftLongitude="34.228663" topLatitude="33.434207" rightLongitude="35.935383" bottomLatitude="29.496687">
		</amcharts:ammap>
</defs>
<g>
	<path id="PS-JRH" fill="#1E3250" stroke="#1E3250" stroke-width="0.5" d="M108.87,134.548l-0.238,0.477l0.18,4.238l0.923,1.06
		l0.136,0.671l-0.782,1.137l1.4,3.082l-0.53,3.509l-1.512,1.453l0.816,4.142l1.458,0.923l-0.816,1.618l0.87,1.396l-0.656,1.861
		l1.031,5.73l-2.027,3.631l0,0l-3.227-2.936l-0.452-0.724l-0.185-1.327l-1.157-0.729l-2.377,0.029l-2.391,0.772l-1.974-0.997
		l-0.335-0.602l0.51-1.108l-0.5-0.783l-0.875-0.428l-0.213-2.542l0,0l2.668,0.389l0.408-0.375l0.238-0.87l-0.336-1.915l0.195-1.701
		l0.763-1.302l0.126-0.637l-0.826-1.871l0.097-1.487l-0.461-1.429l0.705-0.768l0.705-2.022l-0.219-0.35l-1.084-0.389l-1.434-1.497
		l0.185-0.331l1.663-0.238l0.117-0.452l-0.642-0.768l0,0l-0.481-1.488v-1.779l-0.637-1.507l0.117-0.894l0.656-0.909l2.741-0.515
		l0.486-0.253l0.146-0.394l-0.773-1.925l0.316-1.672l-0.248-1.876l0.423-2.42l-0.603-0.613l-1.307,0.214l-0.214-0.501l1.594-1.872
		l1.195-2.877l0,0l2.202,1.317l1.016,1.604l0.623,1.93l0.626,0.666l0.511-0.102l1.779-1.366l3.616-0.17l0,0l-0.724,1.434
		l-1.099,6.178l-1.181,1.599l-0.272,1.745L108.87,134.548z"/>
	<path id="PS-JEN" fill="#1E3250" stroke="#1E3250" stroke-width="0.5" d="M101.803,101.74l-0.36,0.219l-0.642,1.104l-1.011,0.413
		l-1.084,0.816l-0.715,0.972l-1.453-0.408l-1.249,0.972l-1.512,0.398L93.2,108.52l0.161,1.964l-1.099,2.275l0,0l-1.317-0.773
		l-1.75-1.609l-0.928,1.04l-0.89,0.219l-3.057-0.311l-1.215-0.52l-2.595,0.374l-0.656-0.272l-0.243-0.472l0,0l0.17-1.303
		l-0.185-0.666l-2.483-1.157l-0.807-0.914l-1.225-0.433l0.389-2.411l-0.034-1.886l0.491-1.176l-0.117-0.486l-0.447-0.277
		l-1.157,0.005l-1.939,0.982l-0.651-0.447l0.054-0.705l1.512-0.769l0.301-1.016l-0.18-0.782l-0.365-0.413l-1.264-0.229l0,0
		l0.496-0.938l0,0l0.637-0.481l3.369-1.273l2.09-1.064l1.648-1.201l1.006-0.972l0.292-0.603l0,0l1.536-1.74l0,0l1.259-0.346
		l1.157,0.632l1.497,1.55l1.283,0.943l1.983,0.827l5.075-0.749l2.318,0.204l1.356,1.011l1.361,2.304l0.263,2.119l-0.102,1.973
		l0.486,1.429l0.593,0.768l-0.024,0.501L101.803,101.74z"/>
	<path id="PS-TKM" fill="#1E3250" stroke="#1E3250" stroke-width="0.5" d="M79.012,117.405l-3.597,0.816l-1.624,1.755l-0.238,0.797
		l-1.084,0.355l-0.505,0.68l-1.118,0.078l-1.793-1.196l-3.859-5.123l0,0l0.175-0.126l0,0l0.277-0.729l-0.394-2.824l0.092-2.659
		l1.449-2.377l2.177-0.977l0.583-0.568l0,0l0.345-2.503l0,0l0.729-2.022l0.763-3.908l0,0l0.282-0.52l0,0l1.264,0.229l0.365,0.413
		l0.18,0.782l-0.301,1.016l-1.512,0.769l-0.054,0.705l0.651,0.447l1.939-0.982l1.157-0.005l0.447,0.277l0.117,0.486l-0.491,1.176
		l0.034,1.886l-0.389,2.411l1.225,0.433l0.807,0.914l2.483,1.157l0.185,0.666l-0.17,1.303l0,0l-2.367-1.016l0.122,1.73l1.273,0.933
		l0.423,0.681l-0.01,1.283l-0.87,0.675l-0.214,0.753L79.012,117.405z"/>
	<path id="PS-TBS" fill="#1E3250" stroke="#1E3250" stroke-width="0.5" d="M111.485,103.66l-0.161,1.774l0.821,1.347l-0.564,2.96
		l0.652,1.765l-0.428,1.847l0.574,1.424l-0.301,2.177l0.637,3.771l0.087,1.128l-0.204,0.836l0,0l-3.616,0.17l-1.779,1.366
		l-0.511,0.102l-0.626-0.666l-0.623-1.93l-1.016-1.604l-2.202-1.317l0,0l-0.909-2.906l-0.53-0.821l-1.361-0.18l-1.055,0.491
		l-2.698,0.563l-0.992-1.327l-1.322-0.71l-1.099-1.161l0,0l1.099-2.275L93.2,108.52l0.579-2.294l1.512-0.398l1.249-0.972
		l1.453,0.408l0.715-0.972l1.084-0.816l1.011-0.413l0.642-1.104l0.36-0.219l0,0l0,0l0,0l1.059,0.17l1.254-0.365l1.905,0.083
		l3.519,1.473L111.485,103.66z"/>
	<path id="PS-NBS" fill="#1E3250" stroke="#1E3250" stroke-width="0.5" d="M81.078,136.502l2.167-2.45l1.91-1.025l1.784-0.481
		l0.365-0.773l0.02-0.777l-0.365-0.749l-0.578-0.447l-2.129-0.666l-0.884-0.034l-1.196,0.54l-1.341-0.331l-0.632-0.69l-0.773-1.988
		l-0.505-0.544l0,0l1.215-2.863l0.394-2.591l-0.073-0.962l-0.544-1.414l-0.899-0.851l0,0l-1.045-1.93l0.214-0.753l0.87-0.675
		l0.01-1.283l-0.423-0.681l-1.273-0.933l-0.122-1.73l2.367,1.016l0,0l0.243,0.472l0.656,0.272l2.595-0.374l1.215,0.52l3.057,0.311
		l0.89-0.219l0.928-1.04l1.75,1.609l1.317,0.773l0,0l1.099,1.161l1.322,0.71l0.992,1.327l2.698-0.563l1.055-0.491l1.361,0.18
		l0.53,0.821l0.909,2.906l0,0l-1.195,2.877l-1.594,1.872l0.214,0.501l1.307-0.214l0.603,0.613l-0.423,2.42l0.248,1.876l-0.316,1.672
		l0.773,1.925l-0.146,0.394l-0.486,0.253l-2.741,0.515l-0.656,0.909l-0.117,0.894l0.637,1.507v1.779l0.481,1.488l0,0l-1.89-0.151
		l-0.895,0.846l-0.438,0.053l-0.987-1.079l-0.554-1.75l-3.12-1.22l-1.609,0.16l-1.152-0.705l-2.693,0.106l-1.147-0.768l-1.754,0.802
		L81.078,136.502z"/>
	<path id="PS-QQA" fill="#1E3250" stroke="#1E3250" stroke-width="0.5" d="M78.92,126.086l-2.615,0.063l-4.482-1.458l-0.325,0.326
		l-0.379,1.458l-1.512,2.795l-1.677,1.215l-1.628,0.35l-1.653,0.705l-1.424,1.239l0,0l0.049-0.394l0,0l0.948-2.318l-0.102-1.264
		l-0.637-2.81l-1.594-2.659l-0.039-1.142l0.146-1.152l1.512-3.426l1.152-1.667l0,0l0.535-0.379l0,0l3.859,5.123l1.793,1.196
		l1.118-0.078l0.505-0.68l1.084-0.355l0.238-0.797l1.624-1.755l3.597-0.816l0,0l0.899,0.851l0.544,1.414l0.073,0.962l-0.394,2.591
		L78.92,126.086z"/>
	<path id="PS-SLT" fill="#1E3250" stroke="#1E3250" stroke-width="0.5" d="M81.078,136.502l-1.944-1.132l-1.755,0.131l-1.657-0.763
		l-0.948,0.204l-0.885,0.933l-1.079,0.166l-1.861,0.729l-3.801-0.623l-0.632-0.296l-0.7-0.812l-1.385-0.063l0,0l-0.117-0.219l0,0
		l-0.875-0.933l-0.262-0.656l0,0l0.048-0.389l0,0l1.424-1.239l1.653-0.705l1.628-0.35l1.677-1.215l1.512-2.795l0.379-1.458
		l0.325-0.326l4.482,1.458l2.615-0.063l0,0l0.505,0.544l0.773,1.988l0.632,0.69l1.341,0.331l1.196-0.54l0.884,0.034l2.129,0.666
		l0.578,0.447l0.365,0.749l-0.02,0.777l-0.365,0.773l-1.784,0.481l-1.91,1.025L81.078,136.502z"/>
	<path id="PS-RBH" fill="#1E3250" stroke="#1E3250" stroke-width="0.5" d="M95.946,158.102l-2.027,0.029l-1.395-2.455l-1.706-0.428
		l-1.152-1.298l-2.076-0.428l-0.982,0.788l-1.152-0.822l-1.512-0.102l-0.714,0.204l-1.069-0.36l-1.123,0.544l-0.282,0.535
		l-0.024,0.972l-0.433,0.214l-1.512-0.039l-0.802-0.394l-3.092,0.009l-1.812-0.588l-0.457,0.51l-0.311,1.502l-1.264,1.186l0,0
		l-1.142,0.675l0,0l-1.575,1.711l-2.133,0.763l-2.314-0.331l-1.619-0.695l-0.7-2.629l0,0l1.03-1.526l0,0l4.185-0.749l0.739-2.294
		l-0.403-1.575l-1.915-1.526l-1.283-1.73l-0.204-2.226l1.147-2.45l-0.364-0.972l0.369-0.301l-0.18-1.191l0.671-1.463l0.194-1.453
		l-0.277-1.133l0,0l-0.846-1.613l0,0l1.385,0.063l0.7,0.812l0.632,0.296l3.801,0.623l1.861-0.729l1.079-0.166l0.885-0.933
		l0.948-0.204l1.657,0.763l1.755-0.131l1.944,1.132l0,0l0,0l0,0l1.497-0.117l1.754-0.802l1.147,0.768l2.693-0.106l1.152,0.705
		l1.609-0.16l3.12,1.22l0.554,1.75l0.987,1.079l0.438-0.053l0.895-0.846l1.89,0.151l0,0l0.642,0.768l-0.117,0.452l-1.663,0.238
		l-0.185,0.331l1.434,1.497l1.084,0.389l0.219,0.35l-0.705,2.022l-0.705,0.768l0.461,1.429l-0.097,1.487l0.826,1.871l-0.126,0.637
		l-0.763,1.302l-0.195,1.701l0.336,1.915l-0.238,0.87l-0.408,0.375L95.946,158.102z"/>
	<path id="PS-JEM" fill="#1E3250" stroke="#1E3250" stroke-width="0.5" d="M109.123,169.476l-0.87,2.615l0,0l-3.349-3.392
		l-1.803-0.783l-1.871,0.214l-3.534-0.642l-2.187,0.797l-2.046-0.326l-2.144,1.006l-1.39,0.238l-1.152-0.097l-1.696,0.661
		l-0.816,0.063l-0.783-0.209l-2.542-1.745l0,0l0.875-1.366l0.248-3.548l-1.526-1.595l-3.884,0.02l-5.303-2.265l-1.847-1.706l0,0
		l-0.452,0.267l0,0l1.264-1.186l0.311-1.502l0.457-0.51l1.812,0.588l3.092-0.009l0.802,0.394l1.512,0.039l0.433-0.214l0.024-0.972
		l0.282-0.535l1.123-0.544l1.069,0.36l0.714-0.204l1.512,0.102l1.152,0.822l0.982-0.788l2.076,0.428l1.152,1.298l1.706,0.428
		l1.395,2.455l2.027-0.029l0,0l0.213,2.542l0.875,0.428l0.5,0.783l-0.51,1.108l0.335,0.602l1.974,0.997l2.391-0.772l2.377-0.029
		l1.157,0.729l0.185,1.327l0.452,0.724L109.123,169.476z"/>
	<path id="PS-BTH" fill="#1E3250" stroke="#1E3250" stroke-width="0.5" d="M95.426,194.59l-1.186,0.146l-2.357-1.123l-0.933-1.842
		l0.359-1.385l-0.238-0.729l-1.288-1.05l-2.231-0.909l-1.565-1.823l-0.923-0.719l-0.199-1.536l-1.619-4.335l-1.016-1.371
		l-0.287-0.044l-0.17,0.252l-0.146,1.828l-0.389,0.5l-0.797,0.17l-2.279-0.355l-0.637-0.398l-0.345-0.671l1.118-0.996l0.083-0.573
		l-0.316-0.481l-1.531-0.836l-1.254,0.369l-0.749-0.17l-0.637-1.959l-2.484-1.336l0,0l3.621-3.582l0,0l3.568-1.463l4.224-0.107
		l0.117-0.185l0,0l2.542,1.745l0.783,0.209l0.816-0.063l1.696-0.661l1.152,0.097l1.39-0.238l2.144-1.006l2.046,0.326l2.187-0.797
		l3.534,0.642l1.871-0.214l1.803,0.783l3.349,3.392l0,0l-3.587,11.792l-0.228,8.423l0,0l-5.536-0.083l-1.322,0.467l0,0
		L95.426,194.59z"/>
	<path id="PS-HBN" fill="#1E3250" stroke="#1E3250" stroke-width="0.5" d="M62.015,181.097l0.763-1.274l3.946-3.976l3.927-1.886l0,0
		l0.758-0.749l0,0l2.484,1.336l0.637,1.959l0.749,0.17l1.254-0.369l1.531,0.836l0.316,0.481l-0.083,0.573l-1.118,0.996l0.345,0.671
		l0.637,0.398l2.279,0.355l0.797-0.17l0.389-0.5l0.146-1.828l0.17-0.252l0.287,0.044l1.016,1.371l1.619,4.335l0.199,1.536
		l0.923,0.719l1.565,1.823l2.231,0.909l1.288,1.05l0.238,0.729l-0.359,1.385l0.933,1.842l2.357,1.123l1.186-0.146l0,0l-0.807,0.715
		l0,0l-2.785,2.031l-2.712,1.206l-4.53,4.851l-1.229,0.739l-5.395,0.826l-1.162-0.267l-1.77,0.918l-8.258-0.598l-3.509,0.875
		l-3.806,0.5l-2.081-0.559l-1.346-1.113l-0.938-1.521l-0.229-1.944l1.628-3.271l1.856-2.396l1.677-3.184l0.311-1.701l-0.364-3.985
		l0.739-3.679L62.015,181.097z"/>
	<path id="PS-NGZ" fill="#1E3250" stroke="#1E3250" stroke-width="0.5" d="M18.781,186.405l3.004-4.491l3.641,3.388l0,0l1.142,1.686
		l0.01,1.881l-0.744,1.317l0,0l-2.425,0.579l0,0l-1.628-1.03l-1.099-0.326l-0.408-1.196L18.781,186.405z"/>
	<path id="PS-GZA" fill="#1E3250" stroke="#1E3250" stroke-width="0.5" d="M15.656,198.269l-0.059-1.205l-0.612-1.696l-1.517-0.496
		l-1.482-0.063l0,0l6.795-8.404l0,0l1.492,1.808l0.408,1.196l1.099,0.326l1.628,1.03l0,0L15.656,198.269z"/>
	<path id="PS-DEB" fill="#1E3250" stroke="#1E3250" stroke-width="0.5" d="M11.865,203.601l-0.758-0.122l-1.118-0.967l-2.722-0.987
		l-0.822-0.642l0,0l5.541-6.075l0,0l1.482,0.063l1.517,0.496l0.612,1.696l0.059,1.205l0,0l-0.671,0.646l0,0l-2.79,3.587l0,0
		L11.865,203.601z"/>
	<path id="PS-KYS" fill="#1E3250" stroke="#1E3250" stroke-width="0.5" d="M7.67,214.766l-1.23-3.733l-3.222-1.754l-3.033-2.081l0,0
		l6.26-6.314l0,0l0.822,0.642l2.722,0.987l1.118,0.967l0.758,0.122l0,0l-0.404,1.351l0,0l0.229,5.444l-0.923,1.697l0,0L7.67,214.766
		z"/>
	<path id="PS-RFH" fill="#1E3250" stroke="#1E3250" stroke-width="0.5" d="M3.266,218.139L0,207.339l0.185-0.141l0,0l3.033,2.081
		l3.222,1.754l1.23,3.733l0,0l-0.632,0.545l0,0L3.266,218.139z"/>
	<path id="IL" fill="#1E3250" stroke="#1E3250" stroke-width="0.5" d="M64.742,60.523l-0.156-0.073l0.238,0.063L64.742,60.523z
		 M65.977,60.382l-1.152,0.131l0.544,0.146L65.977,60.382z M142.738,31.812l0.2-2.61l-1.765-2.557l-2.479-0.67l-0.161-1.079
		l1.016-1.346l0.316-0.812l0.059-1.968l-0.841-2.508l-2.401-2.557l0.962-1.647l0.126-0.681l-0.403-4.049l0.258-1.808l0.714-1.856
		l1.662-1.9l0.88-1.449l0.301-1.269l-0.117-0.719L140.628,0l-5.886,3.485l-0.715,1.147l-0.651,3.329l-2.051,1.939l-1.682,0.7
		l-1.274,0.219l-2.1-0.175l-0.52,0.204l-2.805,3.451l-4.992,2.678l-0.705,1.308l-0.311,0.296l-0.326-0.102l-1.983-2.829
		l-0.588-0.481l-0.199,0.214l-0.802,1.77l-1.273,1.443l-0.714,1.628l0.331,3.349l-0.953,2.046l-0.525,2.42l-0.17,2.178l-0.418,0.996
		l-1.594,0.676l-0.496,1.915l-1.419,0.535l-1.837-0.316l-2.537,2.43l-0.603,0.321l-2.299,0.18l-2.129,0.953l-0.486-0.141
		l-1.264-0.749l-0.788-0.904l-1.409-2.683l-1.663-0.389l-3.227,0.452l-3.102,0.102l-0.967,0.316l-0.773,0.646l-2.965-0.515
		l-6.382,0.277l0.068,1.332l-0.374,2.571l-1.094,3.645l-0.068,1.434l-0.491,1.104l-0.909,5.716l-0.375,0.992v0.218l0.375,0.029
		l0.092-0.301l0.277,0.029l0.35,0.379l0.233,0.477l-0.024,1.215l-0.909,3.752l-2.046,3.583l-1.677,1.045l0.326,0.053l0.326,0.496
		l-0.467,0.136l-0.068-0.442l-0.375-0.248l-0.024,0.219l-0.675,0.112l-0.51-1.074l-0.166,0.029l0.068,0.384l-0.257-0.248
		l-0.093,0.331l-1.069-1.045l0.749,0.204l-0.958-0.452l-0.51-0.525l-0.934,0.525l-0.559,0.029l-0.86,0.607l0.141,1.847l-0.257,0.029
		l0.141,0.549l-0.627,6.309l-0.466,2.313l-0.394,0.661l-0.51,0.165l-0.394,1.074l0.141,0.467l-0.302,3.465l-0.233,0.301l0.048,1.128
		l-0.583,1.978l-0.185,2.42l-0.418,1.347l0.209,0.549l-0.836,2.338l0.301,0.384l-0.607,0.797l0.233,0.744l-0.676,1.842l0.258,0.165
		l-0.442,0.827l0.048,0.603l-0.301,0.739l0.209,0.467l-0.233,0.821l-0.301,0.029l-0.048,0.549l0.209,0.136h-0.277l-0.117-0.277
		l-0.116,0.277l-0.909,0.029l1.025,0.136l0.185,0.496l-0.816,4.117l-0.442,0.632l0.233,0.053l-0.277,0.607l-0.535,1.235l0.161,0.111
		l-0.141,1.264l-0.326,0.413l0.024,0.987l-0.792,3.592l-0.326,0.248l0.141,0.331l-0.467,2.795l-0.165-0.029l-0.491,1.561
		l-0.583,3.013l-1.769,5.881l-0.719,2.605l-0.277,0.111l0.141,0.958l-0.258,0.136l-0.51,2.488l-0.7,2.081l-0.208-0.136l0.092,0.384
		l-0.35,0.846l-0.277,0.112l0.116,0.603l-0.627,2.075l-0.534,1.094l-0.627,0.408l0.092,0.326l-0.282,0.219l-1.094,4l-1.604,5.064
		l-0.603,1.473l-1.375,2.158l-1.487,4.296l-1.235,2.902l-0.35,0.107l0.068,1.011l-0.233,0.326l-0.836-0.107l-0.068,0.953
		l0.185,0.272l-0.491-0.52l0.16-1.036l-0.257,0.953l0.394,0.733l-4.098,8.472l-2.697,4.657l-0.258-0.03l-0.559,1.196l-0.768,0.817
		l-1.444,2.693l-0.35-0.107l0.209-0.354l-0.282,0.326l0.209,0.437l-0.51,0.462l-2.027,3.291l3.646,3.397l1.142,1.687l0.01,1.881
		l-0.744,1.322l-2.44,0.579l-8.404,8.146l-2.794,3.591l-0.734,2.45l0.229,5.444l-0.923,1.697l-3.728,3.222l-3.772,2.829
		l6.926,22.937l4.783,13.998l7.378,15.5l2.425,10.09l-0.243,5.284l3.635,4.262l-1.73,4.885l0.214,2.97l5.847,3.825l1.706,6.416
		l9.93,27.909l-0.175,1.458l8.569,24.055l-0.058,4.623l1.501,2.615l0.379,1.803l-0.394,2.62l-0.788,2.62l0.335,2.79l0.398,1.604
		l1.104,2.085l2.114,2.45l0.719-0.583l0.676-0.933v-0.398l1.142-1.142l0.375-0.934l0.466-0.214l0.35-0.826l0.909,0.243l1.711-4.097
		l1.273-1.478l1.497-1.104l1.099-1.341l-0.243-7.13l1.429-5.949l0.243-1.939l-0.243-1.434l0.374-1.808l2.469-4.938l-0.263-7.524
		l1.745-6.931l6.484-9.303l-2.625-11.612l1.599-3.543l-0.287-1.925l0.535-1.662l1.862-2.061l0.267-1.152l-0.442-1.507l-2.901-5.448
		l0.335-1.308l1.157-1.662l0.578-1.73l2.095-10.382l2.469-4.772l1.245-1.152l0.447-2.153l2.056-3.752l1.186-2.756l0.005-3.957
		l0.739-2.022l1.249-1.512l1.604-0.578l0.428-1.959l-0.418-1.604l0.024-1.759l2.241-4.938l3.149-2.066l1.454-1.332l0.004-2.007
		l-0.685-1.896l-0.194-1.585l0.34-1.982l3.203-4.943l1.084-4.282l-0.083-1.517l-0.418-2.031l-0.666-1.429l-3.738-5.031l-0.958-2.08
		l0.428-1.964l5.036-9.244l1.375-3.932l0.296-1.969l0.034-4.996l0.01-1.696l-5.536-0.078l-1.322,0.467l-2.965,2.615l-2.78,2.032
		l-2.712,1.205l-4.53,4.851l-1.229,0.738l-5.395,0.827l-1.162-0.267l-1.77,0.918l-8.258-0.598l-3.514,0.875l-3.801,0.5l-2.081-0.554
		l-1.341-1.113l-0.943-1.521l-0.229-1.944l1.628-3.271l1.856-2.396l1.677-3.184l0.312-1.701l-0.365-3.986l0.739-3.674l1.298-1.935
		l0.763-1.273l3.947-3.976l3.928-1.886l4.379-4.331l3.573-1.458l4.224-0.112l0.117-0.179l0.875-1.366l0.252-3.548l-1.526-1.595
		l-3.888,0.02l-5.303-2.27l-1.842-1.706l-1.595,0.942l-1.575,1.711l-2.134,0.768l-2.313-0.336l-1.619-0.695l-0.7-2.629l0.958-1.415
		l0.078-0.112l4.18-0.748l0.744-2.295l-0.404-1.574l-1.915-1.526l-1.284-1.73l-0.204-2.226l1.147-2.455l-0.37-0.972l0.37-0.302
		l-0.18-1.19l0.675-1.463l0.194-1.449l-0.277-1.132l-0.962-1.833l-0.875-0.933l-0.262-0.651l0.092-0.788l0.948-2.318l-0.102-1.264
		l-0.637-2.81l-1.594-2.659l-0.039-1.142l0.141-1.152l1.516-3.427l1.152-1.667l0.709-0.506l0.277-0.733l-0.394-2.824l0.093-2.659
		l1.443-2.376l2.177-0.978l0.588-0.568l0.175-1.273l0.17-1.229l0.729-2.022l0.764-3.903l0.777-1.458l0.637-0.481l3.368-1.273
		l2.085-1.065l1.652-1.2l1.001-0.972l0.292-0.603l1.074-1.215l0.467-0.53l1.254-0.345l1.162,0.632l1.492,1.55l1.288,0.943
		l1.983,0.826l5.074-0.749l2.324,0.204l1.356,1.011l1.361,2.304l0.263,2.119l-0.102,1.974l0.486,1.429l0.598,0.768l-0.024,0.5
		l0.554,0.491l1.06,0.17l1.254-0.364l1.906,0.082l3.519,1.473l1.944,0.559l0.681,0.063l-0.797-1.352l0.71-0.345l0.146-0.37
		l-0.243-2.231l0.987-0.306l-0.209-1.308l0.69-0.277l0.209-0.481l-0.17-0.335l-0.69-0.335l-0.131-0.447l1.206-2.868l-0.788-0.52
		l-0.535-1.22l-0.54,0.014l-0.394-0.296l0.447-0.632l0.846-0.18l0.185-0.316l-0.564-0.914l-0.053-0.588l1.05,0.233l0.146-0.933
		l0.841,0.015l0.083-0.209l-0.86-1.784l0.058-0.934l0.399-0.923l-0.166-0.617l-0.622-0.34l-0.194-0.457l-0.029-2.795l1.21-0.918
		l0.739-0.204l0.204-0.238l-0.039-0.608l0.947-0.374l-0.155-1.395l0.544-0.622l2.362-1.03l1.001-0.646l2.076-0.146l1.429-0.642
		l2.537-2.163l1.91-0.258l0.666-2.09l0.418-0.355l0.87-0.102l1.828-0.753l0.53,0.301l0.078,0.331l2.615-3.038l2.056-3.689
		l1.361-1.458l2.746-5.352l0.705-1.613l-0.01-0.545l-1.745-2.717l-0.72-6.615l-0.438-1.419l0.248-3.13l-0.423-1.74l0.554-0.807
		l1.672,0.442l1.39-0.379l0.024-0.675l-0.948-1.074l-0.19-0.54l0.156-0.418L142.738,31.812z"/>
</g>
</svg>
