<?xml version="1.0" encoding="utf-8"?>
<!-- Generator: Adobe Illustrator 15.0.0, SVG Export Plug-In . SVG Version: 6.00 Build 0)  -->
<!DOCTYPE svg PUBLIC "-//W3C//DTD SVG 1.1//EN" "http://www.w3.org/Graphics/SVG/1.1/DTD/svg11.dtd">
<svg version="1.1" id="Layer_1" xmlns:amcharts="http://amcharts.com/ammap"
	 xmlns="http://www.w3.org/2000/svg" xmlns:xlink="http://www.w3.org/1999/xlink" x="0px" y="0px" width="313.5px" height="633.5px"
	 viewBox="0 0 313.5 633.5" enable-background="new 0 0 313.5 633.5" xml:space="preserve">
<defs>
	
	
		<amcharts:ammap  projection="mercator" leftLongitude="50.749718" topLatitude="26.184377" bottomLatitude="24.464491" rightLongitude="51.647555">
		</amcharts:ammap>
</defs>
<g>
	<path id="QA-DA" fill="#1E3250" stroke="#1E3250" stroke-width="0.5" d="M232.42,361.13l-12.7,5.16l0,0l-10.85-17.7l11.62-7.359
		L232.42,361.13z M275.59,338.93h0.09l0,0H275.59z M238.27,337.72l-1.38,1.44l-4.31-6.521l1.92-1.1L238.27,337.72z M289.43,315.9
		l0.9,0.79l-0.54,1.479h-0.54l0.56-0.84l-0.2-0.74l-1.71-0.1L289.43,315.9z M268.85,297.71l1.26,0.59l-0.09,3.96l-2.61-1.58
		l-2.52-0.59l0.9-1.78l1.53,0.69L268.85,297.71z M262.65,275.16l0.18,0.79l3.33,1.39l0.9,2.28h-1.98L264,280.6l-0.09-1.98
		l-1.08-0.59l-0.9-1.88L262.65,275.16z M275.59,338.93l-10.34,0.88l-8.87,2.87l0,0l-0.32-1.54l-2.01-0.38l-5.19-2.75l-11.35-7.62
		l3.95-3.069l-6.93-9.051l-2.02-10.479l-6.07-13.65l0,0l-0.49-2.05l0,0l15.33-10.03l-2.28-6.24l-4.25-20.45h11.84l0,0l0.54,2.95
		l6.02,4.65h2.7l1.35-0.89l-0.27,1.19l-0.81,0.1l0.45,1.29l-1.44-0.1l-5.03-3.86l-2.16-0.4l1.53,3.46l1.89,0.99l-0.81,2.47
		l0.63,2.08l-0.63,1.98l-0.9-0.3l-0.18,0.69l1.62,4.35l-0.45,3.86l0.63,3.86l1.17,2.47l3.23-0.4l-2.25,2.67l-1.62,0.4l-0.27,1.58
		l1.35,1.39l-0.09,0.79l-2.43-0.89l-0.18,1.09l-0.72,0.3l1.26,2.17l-1.08,0.99l1.98,1.09v-0.99h1.26l0.18,0.79l-0.72,2.27
		l-2.07,1.88l-0.18,1.88l1.44,1.29l3.14-0.4l1.71,2.57l-0.09,0.69h-0.9v2.08l-4.22,0.49l-1.71,1.479l-0.9,4.05l2.97,2.57l1.8,0.49
		l0.72-1.28l0.18,1.28l0.9,0.3l0.18-1.38l2.25-0.4l-0.18-1.78l0.9,0.99l0.81-0.3l-0.18-2.08l2.79-1.28l0.99,2.17l-1.08,0.49
		l-0.81-1.68l-1.17,0.49l1.35,3.16l-0.27,0.59l-0.99-1.09l-1.35,0.489v0.69l0.72-0.2l-0.45,1.48l1.89,0.399l0.9,1.19l0.99-0.49
		l-0.9-0.69l1.53,0.2l1.89-2.08l-0.09-0.79l2.79,0.99l0.36-2.27l1.17,0.79l-0.36,3.85l0.99,0.1l0.09,0.891l0.9,0.3l1.8-0.4
		l2.39-3.21l1.21-2.33l1.89-0.59l4.49,11.471l1.08,1.279l0.09,1.58l-5.75-14.03l-1.53,0.4l-3.23,5.34l2.52-1.58l2.52,4.15
		l-0.54,1.479l0.45,2.471l-0.99,2.87l6.74,1.38l-6.92-1.09l0.09,2.27l-2.25,0.89l0.81,0.69l-0.99,0.89L275.59,338.93z"/>
	<path id="QA-KH" fill="#1E3250" stroke="#1E3250" stroke-width="0.5" d="M266.96,152.59l-0.18,1.39h-0.63L266.96,152.59z
		 M266.61,150.81l-0.45,1.59l-0.36-1.19L266.61,150.81z M272.99,150.31l0.54,0.4l-4.13,2.78l0.17-0.88l1.17-0.21l1.45-1.89
		L272.99,150.31z M214.22,80.09v-0.1l0,0V80.09z M214.22,80.09l7.46,4.18l4.58,0.4l0.99-1.09l1.98-0.2l-0.09-1.69l0.72,1.59
		l-1.53,0.99l10.15-1.99l0.36-2.58v2.68l2.61-0.2l5.57,1.49l3.15,2.09l3.95,4.27l3.15,1.79l1.08-0.2l3.95,1.69l3.95,2.38l8.9-7.75
		l7.37,2.98l-0.45,0.4l-6.83-2.78l-3.23,2.98l-0.18,0.99l4.22-1.39l1.17,1.89l-1.44,0.5l-0.54-0.9l-1.71-0.1L272,93.4l-3.68,3.18
		l0.63,0.99l-0.27,1.59l10.78-5.17l-0.54-1.29l0.81,1.09l1.35-1.29l0.09,0.8l-11.14,5.96l-2.78,0.79l-0.36,9.74l0.9,0.99l0.36,3.97
		h0.81l-0.36,1.99l0.81,0.3l0.45,1.39h1.8l-1.71,0.3l1.17,4.77l0.18,7.35l2.97,6.16l-1.26,6.35l0.54,1.19l-1.08,1.49l0.63,2.38
		l-1.8,1.89l-0.36,1.59l-1.44,0.2l-0.45,1.59l-1.17,0.6l-0.78-0.97l1.23-2.01l-0.99,0.1l-0.18,0.7l-0.27-0.99l0.81-1.09l-0.27-1.49
		l0.54-0.79l-1.62-1.49h-1.26l0.9,0.99l-2.61,4.17l-0.27,3.37l-1.89,3.67l-2.16,0.1l-1.35-1.49l-2.52-1.19l0.81,3.08l1.26-0.69
		l1.35,0.99l0.81,1.79l2.88,1.69l2.61,0.4l0.27,0.69l0.09-1.98l0.81-1.09h1.08l0.18-1.49h1.08l0.63,1.29l1.71,0.79l-0.72,1.19
		l2.88,2.78l0.18,1.39l-0.63,0.99l0.18,2.08l-0.54-0.1l-1.26,1.89l0.72,1.39l-2.61,1.49l0.09,1.19l1.26,0.1l-1.08,0.2l-0.18,0.79
		l1.35-0.2l-1.17,0.79v2.38l-1.89,1.39l0.27,1.29l-4.13-2.58l-5.48,0.5l-0.63-2.38l1.89,0.1l-1.44-2.68l1.98-0.4l-1.26-2.08
		l-1.62-0.69l0.09-0.69l-4.4,1.19l-4.04,2.48l-1.35-0.89l-2.96,1.98l1.35,1.59l1.62,0.1l0.72-0.69l0.27,1.19l3.15-0.1l0.27,1.78
		l0.81-1.39l3.23,0.2l-0.54,2.58l-1.35,0.2l-0.63,1.29l0.27,1.19l1.26,0.7l-0.18,1.79l3.05-0.3v0.99l1.44-0.59l0.27,0.69l1.26,0.2
		l-0.09,1.39l-1.17,1.49l0.54,4.76l-1.62,1.49l0.36,1.19l0,0l-7.65-2.87l-10.16-0.51l-11.43-5.6l-4.27,2.55l-2.66,0.64l-7.16,7.13
		l-4.27,0.51l3.93,20.5l0,0l-30.94,1.78l-17.13-10.16l0,0l-7.39-12.22l4.86-15.55l0.44-12.96l4.8-5.32l-51.19-0.02v-20.4h-42.8l0,0
		l-1.35-4.82l2.43-0.89l1.08-2.08l-0.36-1.79l-1.71-0.2l1.17-3.18l-0.36-2.48l-0.9-0.3l0.09-1.09l-1.35-0.5l-3.32,0.2l-0.99,0.79
		l-1.26-1.98l-1.44-0.6v-1.19l-0.9,0.1l0.99-0.6l-0.18-2.68l1.08-2.4l0,0h50.1V83.47h49.11l0.4,19.49l23.92-0.08l1.63,16.51l21,0.17
		L214.22,80.09z"/>
	<path id="QA-MS" fill="#1E3250" stroke="#1E3250" stroke-width="0.5" d="M85.63,64.49l1.8,1.59h-2.07l-0.27-1.09L85.63,64.49z
		 M161.74,9.16l2.97,1.59l0.27-0.9l1.98-0.2l0.18,0.6l-1.17-0.1l0.09,1l-0.54-0.9l0.27,1.89l2.34,0.5l2.52,2.39l10.51,3.09
		l2.61,2.59l2.97,1.19l0.99,1.59h1.71l0.18,1.19l1.62,1.49l5.66,2.59l0.63,1.59l-1.17,4.78l1.08,4.08l-0.99,1.39v1.39l2.34,0.1
		l0.36,0.9l-1.26-0.7l-1.62,0.4l0.27,3.98l2.07,3.38l0.9,0.4l1.08,2.69l3.5,3.18l-0.36,0.5l-1.62-1.09l-0.18,0.8l1.62,1.689
		l6.47,3.78l0.63,15.41l0.72,1.19l2.87,1.39l0,0l0.01,0.1l0,0l0,0l0,0l0.15,39.46l-21-0.17l-1.63-16.51l-23.92,0.09l-0.4-19.49
		h-49.11v36.25H68.2l0,0l-0.9-2.66l2.16-1.89l0.45-1.09l-0.63,0.4v-0.6l0.9-1.99h1.08l0.18,2.68h1.17l2.25-1.39l0.18-0.7l-1.44-2.09
		l-2.16-1.89l1.17-0.5l0.18-1.29l1.35-0.6l-0.72-2.78l2.52,0.1l1.08-0.99l-0.18-0.79l0.99-0.2l0.81-2.78l-0.54-1.19l1.44-2.28
		l-0.36-2.09l0.54-0.5l-1.26-3.87l0.27-6.56l-0.27-0.99l-1.08-0.4l0.09-3.18l-1.08-2.68l0.9-0.99v-2.09l0.54,0.4l0.99-0.99
		l1.26,1.69l0.81-0.7l-1.08,1.39l1.08,1.69v1.29l-0.63,0.3l0.63,1.59l0.81-0.2L82.78,81h1.26l0.54-1.79l3.86-2.09l-0.45-0.6v-1.79
		l0.81-0.9l-0.36-2.98l1.8,0.6l1.89-0.4l0.63-0.79l-1.26-1.09l0.54-1.89l-0.72-2.88l1.08-1.69l-0.36-1.59l1.44-0.2l-0.72-4.38
		l0.72-0.2l-0.18-1.89l0.81-0.8l-0.72-2.39l-1.53-1.29l2.25-0.1l4.04-2.39l6.65-2.09l1.98-1.69l-0.18-1.09l2.16-2.79l2.07,0.2v0.8
		l1.26,0.8l1.98-0.89l0.27-1.29l0.99-0.1l1.35-2.39l2.07,0.3l1.08,3.09l2.61-0.1l7.55-4.97l0.63-0.99l-0.09-2.09l1.08-1.49
		l-0.54-2.49l0.63-2.39l4.04-3.28l1.26-0.2l0.09-0.9l3.59-1.79l0.9-2.39h-0.99l-0.9-1.29l1.71-2.59l0.63,0.1l0.09,2.59l0.54,0.3
		l2.34-0.7l3.32,0.2l2.16-1.79l2.16,1.59h1.44l2.43-1.49l1.89-3.98L161.74,9.16z M149.7,0l0.9,1.99l0.9,0.4l6.47-1.59l3.24,1.59
		l-3.77-1.1l-4.49,1.4l-1.71,1.19v1.79l-0.64-0.99l0.18-1.69l-1.35-1.79L149.7,0z"/>
	<path id="QA-RA" fill="#1E3250" stroke="#1E3250" stroke-width="0.5" d="M54.81,200.79l2.16,1.69l0.18,1.29l-2.16-1.49
		L54.81,200.79z M59.22,134.03l2.52,0.5l0.81,1.79l1.17-0.3l0.63,1.89l3.6,4.07l0.18,3.08l-1.71,2.08v3.47l-0.81-0.49l-0.27,1.09
		l0.36-0.6l1.17,0.5l0.18-1.19l3.42-0.4l0.09-2.18l1.98,0.3l2.97-2.22l0,0h42.8v20.4l51.19,0.02l-4.8,5.32l-0.44,12.96l-4.86,15.55
		l7.39,12.23l0,0l-0.05,70.06l21.95,0.54l9.12,1.02l12.59,4.32l0.02,8.21l6.78,0.1l-1-4.54l1.06-0.42l3.27,0.21l1.59,1.38l1.34,3.12
		l3-1.71l0,0l6.07,13.65l2.02,10.48l6.93,9.05l-3.94,3.07l11.35,7.619l5.2,2.75l2.01,0.381l0.32,1.54l0,0l-3.87,1.25l2.4,8.26
		l-22.48,8.93l0,0l-11.93-19.9l-11.62,7.36l10.85,17.7l0,0l-2.15,1.61l-9.63,4.119l6.2,6.601l-0.11,24.2l-31.23-11l-32.94-9.38
		l-0.23,41.869h-32.1l0.92,187.33l0,0l-5.31,0.32l-33.6-11.48l-22.4-15.649l-23.21-47.19l-15.24-23.89l5.08-1.26l10.5-6.761
		l1.44-2.069l1.35-5.9l1.26-1.38l0.36-3.84l-1.17-3.351l-3.05-3.25l-1.08-3.939l0.18-1.87l1.17-1.38l0.99-6.01l-1.26-2.95
		l0.72-0.891l0.09-3.149l0.89-0.79l-0.9-0.59l0.27-2.66l-0.81-0.98l0.27-3.739l-2.88-3.45l0.36-2.76l-3.77-3.351l-0.36-1.87
		l-2.61-0.79l-0.99-1.18l-1.35-6.31l-2.61-1.681l-0.54-1.67l-1.26-0.489l-2.34-3.15l-0.09-1.08l-1.35-0.99l-0.09-10.149l1.35-3.25
		l-0.45-0.49l4.49-5.62l-0.81-6.71l-1.71-3.95v-2.07l-2.61-3.85l-0.63-1.479l-3.15-3.75l-4.13-2.66l-0.9-1.78l1.53-11.25l-0.63-1.78
		l0.72-2.17L5.8,357.03l-0.63-0.2l0.36-2.17l-0.9-3.46l1.08-2.57l-1.26-3.26l1.26-6.62l-1.17-1.48l-0.72-9.479l0.72-1.38l-0.18-6.82
		l1.53-2.27l0.36-3.46l-1.08-6.62l0.27-2.67l-0.63-0.59l0.09-6.13l-1.89-0.4L4,296.07l0.09-2.67l-0.54-0.59L4,291.92l-1.17-7.62
		l1.53-2.08l-1.44-2.08l-1.89-0.59l1.98-4.35l-1.44-2.27l-1.35,0.5L0,272.49v-1.19l1.89-3.46l-0.45-2.67l2.34-7.13l0.09-3.36
		l2.43-6.14l-1.08-4.36l-1.35-0.99l-1.35,1.49l-0.45-1.58l2.43-2.77l8.09-4.56l0.99-1.09l-0.9-0.4l0.36-1.09l3.06,0.49l1.98,3.76
		l1.26,0.79l0.54,3.47l0.9,1.19v2.38l2.34,0.89l0.72,3.17l-0.9,1.39l1.08,5.84l3.23,1.68l4.58-1.98l0.27-0.99l-0.72-0.69l0.45-0.99
		l-1.62-0.4l-0.18-1.39l-2.07-1.09l-1.17-2.08l0.45-0.79l2.97-0.2l-1.62-2.97l-1.89-1.68l1.35-1.29v-1.39l-2.61-2.67l-0.63-2.08
		l-2.16,0.2l-0.36-0.49l1.71-4.85l-0.27-1.19l2.16-0.79l1.71-3.17v-1.09l-1.08-1.19l1.44-1.58l-0.45-3.76l-2.87-6.04l0.72-0.4
		l-0.18-1.39l-1.26-0.79l-2.52,0.1l-3.23,2.58l-2.34-0.49l-0.63-1.68l-1.26-0.79l2.43-5.65l1.62,0.3l0.9-0.79l1.62,0.1l1.17-1.98
		l0.99,0.2l-0.54,1.68l0.9-0.4l0.72-1.78h3.78l0.63,0.79l-0.36-1.39l3.69,0.5l-1.89-1.19l-0.09-0.79l0.54,0.1l-0.54-0.99l-1.44-0.59
		l1.89-0.5l0.81-1.09l-0.81-1.09l0.81-1.19l-0.81-1.59l1.04-1.62l0.81,0.2l-0.54,1.88l0.9,2.78l2.25,0.3l1.98-0.59l0.81,0.5
		l0.45,2.18l1.26,0.89l1.17-0.89l1.98,0.79l-0.18,3.96l-1.8,2.88l-0.63,4.36l-1.26,2.68l-1.26,0.59l-1.53,2.38l0.18,3.37l1.53,0.99
		l1.62-0.3l0.72,3.27l-1.35,6.74l0.81,0.79l2.79-0.89l0.36,0.99l-0.63-0.1l-0.09,0.59l0.72,1.09l1.26-0.4l2.07,0.6l0.09,1.58
		l2.7,2.08l-0.63,2.87l3.6,2.48l0.18-0.59l0.81,0.1l0.09-0.89l-1.98-2.08l2.16-2.08l0.63-2.18l-2.16-3.07l1.35-1.19l0.54-5.94
		l2.16-2.18l-1.62-2.38l0.45-1.19l-0.81-1.19l1.35-0.5l-1.08-0.69h1.44l2.07-2.28l-1.08-0.2l0.36-0.99l-1.26-0.99l1.35-1.98
		l1.53,0.3l1.44-1.68l-0.36-1.19l-1.08-0.59l2.07-0.59l0.27,1.88l1.53,0.4l0.36-0.99l-0.63-1.58l0.63,0.5l0.54-0.49l-0.27,1.98
		l1.35,1.19l0.63,1.98l0.99,0.1l0.72,1.19l3.95-0.3l1.53-1.49l-0.54-3.47l-1.17-0.69l2.88-3.96l1.26-0.59l-0.18-2.77l-0.9,0.3
		l-0.36,1.78l-2.78,1.39l-1.35-0.2l0.09,0.6l-3.14-0.4l-1.8-1.49l-2.69,2.08l-2.61-0.1l-1.26-2.28l-1.98-0.4l-2.07-1.88l-1.26-2.28
		l-0.72,0.3l0.09-1.19l-1.71-2.58l0.18-1.19h0.81l-1.26-2.48l-0.54-4.16l1.17-3.17l-1.8-4.26l0.72-1.88l-0.99-1.49l-1.44-0.4
		l0.9-0.99l-0.63-0.3l0.54-3.08l2.61-2.38l-0.27-2.68l2.97-1.09l1.8-1.59l-0.09-1.29l0.63-0.3l-0.63-0.2l0.63-1.19l-1.71-0.2
		l0.45-0.99l-1.17-0.5l-1.35-3.27l-0.45-2.68l0.81-2.08L50.64,145l0.63-0.5l-0.54-0.69l4.31-2.48l0.45-1.49l0.9-0.2l1.62-4.96
		L59.22,134.03z M234.5,331.54l3.77,6.18l-1.38,1.44l-4.31-6.521L234.5,331.54z"/>
	<path id="QA-US" fill="#1E3250" stroke="#1E3250" stroke-width="0.5" d="M166.77,211.88l17.13,10.16l30.94-1.79l0,0l-1.72,19.06
		l0.29,22.68l1.06,4.98l11.46,25.14l0,0l0.49,2.04l0,0l-3,1.71l-1.34-3.12l-1.59-1.38l-3.27-0.21l-1.06,0.42l1.01,4.55l-6.79-0.1
		l-0.01-8.21l-12.59-4.31l-9.12-1.02l-21.94-0.54L166.77,211.88z"/>
	<path id="QA-WA" fill="#1E3250" stroke="#1E3250" stroke-width="0.5" d="M159.5,549.04l-0.18,2.06l-0.63-0.1l-0.63-1.38
		L159.5,549.04z M275.59,339.03l0.09,1.88l1.98,3.85h0.99l3.05,2.37l0.18,1.28l1.53,0.399l-0.18,0.79l-0.9-0.489l-0.81,0.399
		l0.36,5.33l-1.17,1.78l0.36,1.09l-0.63,1.48l0.54,0.489l-2.16,0.99l0.81,0.89l-0.72,1.381l1.89,1.279l0.27,0.99l-1.71-1.68
		l-1.44,1.09l4.22,5.729l-1.53,4.74l1.26,3.851l-0.81,6.609l1.17,4.24l-2.6,7.89l-0.72,1.38l-1.35,0.301l1.8,3.55l1.26,7.2
		l3.86,4.83l-1.35,3.149l-0.45,4.04l-1.44,1.771l-2.07,0.59l-2.16,3.75l-1.26-0.49l-0.81,1.08l-0.99-0.101l-3.59,3.351l-1.08,3.149
		l2.43,0.591l0.9-0.79l1.08,1.18l-0.99,2.96l-2.88,3.55l-3.86,7.69l0.9,1.18l-1.44-0.79l-0.54,1.08l1.08,1.08l-1.26-0.69l-1.98,3.45
		l0.54,1.38l-1.89-0.89v1.77l-0.99,1.181h-0.81l-4.31,5.42l-1.62,3.149l-6.02,4.431l-1.53,2.27l-2.16,6.4l-3.77,6.7l-0.72,6.989
		l-2.7,4.92l-0.36,8.86l-0.81,2.26l-6.11,8.761l-2.87,5.81l-5.3,19.57l-1.26,1.18h-1.98l-1.98,4.13l-8,1.771l-0.27-2.95l-0.54,0.79
		l0.45,2.06h-1.17l-0.27-0.59l-1.17,0.689v2.16l-2.43,6.391l-0.18,3.54l0.72,2.56l-1.44,0.1l-0.09,4.03L198,571.74l-7.28,7.56
		l-1.17,0.3l-1.26-0.39l1.26-0.69l0.72-5.21l-0.9-1.77l-1.53-0.88l-0.18-4.32l-1.17-0.69l-0.45-1.47l0.45-3.93l1.17-0.79l1.8,0.59
		l-0.18,1.97l1.71,0.59l0.18,1.08l1.08,0.301l-0.63-4.91l1.8-0.69l-0.36,2.16l-0.81,0.59l0.18,1.28l0.99-2.36l2.52-3.05l-0.45-3.24
		l0.81-3.54l-0.81-0.88l-0.81,0.79l0.18,1.87l-0.72-0.3l0.27,3.149l-1.17-0.979l0.81,2.46l-0.36,1.18l-2.34,1.28l1.26-9.54
		l-0.63-0.49l0.45-0.789l-0.63-1.471l1.17-0.59l0.09-1.67l-0.9-0.1l-0.36,1.38l-0.63-0.101l-1.89,5.11l-0.72-0.2l2.79,2.46h-1.26
		l0.9,1.38l-1.26-0.39l-0.27,0.59l-0.72-0.1l-2.43-4.42l0.45-0.69l-0.72-0.49l-1.08,0.591l0.36,1.479l-0.99,0.2l-1.26-2.26
		l0.18,1.97l-1.89-2.36l-0.45,1.08l-0.72-0.489l0.36,1.67l-0.81,0.199l-1.8-2.26l0.18-1.47l-1.26-0.88l-1.71,2.16v2.359l-1.44,1.38
		l0.27,1.67l-0.54,0.301l-0.27-1.08l-0.63-0.101l0.09-1.67l0.9-1.08l0.63,0.59l2.16-7.27l-1.26-4.92l-1.35,0.79l1.17,3.149
		l-0.36,0.49l-1.89-1.77l0.63,2.649l-0.81,3.641l-2.25,1.87l-0.18-2.65l-1.17-1.771l-3.86,1.28l-0.27,2.26l-2.43-1.569l-2.78,0.3
		l-0.99,0.59l-0.63,1.67l-1.8,1.18l-1.62-0.689l-0.63-2.07l-0.72,1.48l-0.99,0.3l1.35,1.18l-1.98,0.891l-0.99,1.87l1.8,0.3
		l-0.81,2.46l1.26,1.84l6.05,2.05l4.59-0.02l3.51-1.49l2.96,2.07l2.19-1.54v3.31l3.26,1.11l1.82,4.04l2.26-0.96l0.44-2.2l1.62,0.83
		l0.12,2.689l-2.15,1.891l-1.79,4.77l0.62,14.88l-2.22,3.3l0.63,3.761l1.1,1.22l-59.36,13.86l0,0l-0.92-187.33h32.04l0.23-41.87
		l32.94,9.38l31.229,11l0.12-24.19l-6.2-6.6l9.63-4.12l2.15-1.61l0,0l12.7-5.159l0,0l22.48-8.931l-2.4-8.26l3.87-1.25l0,0l8.88-2.87
		l10.34-0.88l0,0l0,0l0,0h0.09l0,0V339.03z"/>
	<path id="QA-ZA" fill="#1E3250" stroke="#1E3250" stroke-width="0.5" d="M258.34,198.71l-0.54,3.27l-0.9-0.4l-1.8,1.59l-1.16-0.5
		l-2.25,1.19l-2.79-0.2l-1.52,1.89l0.72,1.39l-3.15-0.3l-2.43,0.79l-0.71,1.29l-1.26,0.49l-1.17,2.48l0.72,2.58l-1.08,1.78l0.36,0.6
		l-0.9,0.59l1.26,1.98l-0.45,1.19l0.45,0.6l1.44-0.6l1.43,0.3l-0.89,1.19l-0.18,2.97h-1.17l-0.54,1.29l-1.71,7.62l-0.63,1.29
		l-1.08,0.3l-1.34,2.57l-0.09,2.38l0.54,2.57l2.78,1.49l0.54,1.38l1.08,0.6l0.18,3.46l0.99,2.48l3.86,1.68l5.66-2.57l4.04,1.09
		l-0.98,0.39l-2.43-1.18l-1.71,0.19l-4.13,2.28l1.17,1.21l0,0h-11.84l4.25,20.44l2.28,6.24l-15.33,10.04l0,0l-11.46-25.14
		l-1.06-4.98l-0.29-22.68l1.72-19.06l0,0l-3.92-20.49l4.27-0.51l7.16-7.14l2.65-0.63l4.28-2.55l11.43,5.6l10.16,0.51l7.65,2.88l0,0
		L258.34,198.71z"/>
</g>
</svg>
