<?xml version="1.0" encoding="utf-8"?>
<!-- Generator: Adobe Illustrator 15.0.0, SVG Export Plug-In . SVG Version: 6.00 Build 0)  -->
<!DOCTYPE svg PUBLIC "-//W3C//DTD SVG 1.1//EN" "http://www.w3.org/Graphics/SVG/1.1/DTD/svg11.dtd">
<svg version="1.1" id="Layer_1" xmlns:amcharts="http://amcharts.com/ammap"
	 xmlns="http://www.w3.org/2000/svg" xmlns:xlink="http://www.w3.org/1999/xlink" x="0px" y="0px" width="748.5px" height="621.5px"
	 viewBox="0 0 748.5 621.5" enable-background="new 0 0 748.5 621.5" xml:space="preserve">
<defs>
	
	
		<amcharts:ammap  projection="mercator" leftLongitude="34.492946" topLatitude="32.273479" bottomLatitude="16.399716" rightLongitude="55.668143">
		</amcharts:ammap>
</defs>
<g>
	<path id="SA-01" fill="#1E3250" stroke="#1E3250" stroke-width="0.5" d="M456.55,486.88l-10.13,2.63l-16.39,2.391l-58.85,5.04
		l-12.09-1.421l-5.22-2.39l-8.51-5.59l0,0l-13.54-12.09l-3.91-6.36l-2.75-2.96l1.01-7.71l3.34-6.09l0.08-2.96l-4.66-5.33l-3.07-4.93
		l-5.76-5.011l0,0l-9.69-14.89l1.76-8.479l-0.54-6.95l2.33-3.42l0.68-2.341l-1.79-13.1l0.65-7.729l-6.45-1.41l-5.65,1.47l-3.7-1.28
		l-1.26-2.3l1.14-8.27l-1.84-1.881l-3.09-0.85l-14.1-0.63l-3.01-1.63l-5.15-11.26l-0.91-5.641l-2.1-4.72l-1.13-4.86l-4.16-3.3
		l0.08-6.77l0,0l-0.04-9.03l1.41-4.88l-0.94-3.601l2.95-4.25l0.4-3.14l0,0l3.04-5.08l2.17-1.58l10.54,3.48l5.73,0.5l5.67-0.89
		l5.69,0.87l2.43-1.79l0.85-2.18l-1.91-3.83l0.15-2.3l5.42-6.69l3.27-2.52l12.88-3.15l2.84-2.81l3.09-1.74l2.28-4.47l2.02-1.97
		l3.13-0.82l8.3,1.06l12.73-0.46l0.84-3.9l-0.31-3.16l-2.52-4.86l0.94-3.77l-6.69-10.16l-3.6-3.57l-0.49-1.52l0.84-5.74l-0.43-5.12
		l4.01-1.1l4.5-5.87l2.46-2.11l4.18-1.84l0.62-1.48l-0.15-2.5l-1.34-2.5l-3.6-2.99l-2.35-0.93l0,0l-0.62-3.47l0.99-3.1l2.42-3.32
		l3.15-1.64l0,0l1.94,2.12l1.51,0.52l1.8-0.86l1.3-2.23l0,0l5.44,4.53l1.4,5.11l1.24,1.53l10.41,6.08l5.75,1.06l3.46,4.22l4.06,3.38
		l10.99,1.55l12.35,8.13l8.32-0.74l6.45,6.08l1.47,2.52l12.74,5.24l1.09,2.56l0.43,4.96l0.381,22.63l-0.631,15.07l1.03,11.11
		l3.4,3.59l9.439,6.3l9.19,9.16l4.63,7.841l1.36,6.89l-0.021,7.75L456.55,486.88z"/>
	<path id="SA-02" fill="#1E3250" stroke="#1E3250" stroke-width="0.5" d="M143.43,343.65l0.12-0.021l0,0L143.43,343.65z
		 M258.17,323.86l-0.08,6.77l4.15,3.3l1.13,4.86l2.11,4.72l0.91,5.641l5.15,11.26l3.01,1.63l14.1,0.63l3.09,0.85l1.84,1.881
		l-1.14,8.27l1.26,2.311l3.7,1.279l5.65-1.47l6.45,1.41l-0.65,7.729l1.79,13.101l-0.68,2.34l-2.33,3.43l0.55,6.94l-1.76,8.479
		l9.69,14.891l0,0l-4.02,1.47l-5.71,3.77l-5.22-1.3l-2.26,0.25l-3.16,1.521l-4.55,0.279l-4.26,3.811l-6.41,3.06l-10.11,9.24
		l-2.31,1.14l-2.29-0.239l-1.4-1.021l-4.67-9.07l0,0l-1.98-1.93l-1.48-0.22l-5.42,2.76l-4.16-0.2l-4.61,1.771l-1.91-1.46
		l-1.28-3.771l-1.22-1.45l-1.43-0.609l-2.26,0.32l-2.06,3.529l0.99,6.9l-4.06,8.189l-7.73,1.86l-4,4.1l0.84,2.12l3.66,1.09
		l0.97,1.53l0.34,13.61l1.3,1.54l3.69,2.13l2.06,3.06l1.59,1.051h2.59l2.21-1.08l2.58-8.98l2.4-4.46l6.93-1.13l0,0l1.51-0.74
		l2.29,0.13l1.85,1.88l-1.1,8.44l2.19,4.44l-1.271,4.6l-0.76,1.42l-1.52,0.75l-6.98-0.06l-3.88,2.819l-0.75,0.061l-1.97-1.87
		l-0.49,10l1.64,4.439l8.15,0.69l2.11,1.21l2.98,9.14l-1.5,6.41l0,0l-1.04,1.95l-3.55,2.05l-1.97,3.15l0,0l-1.91-4.49l-1.25,0.04
		l0.36-1.15l-1.51-2.64l-1.33-6.28l-2.04-2.37l-2.26-0.09l-1.06-0.83l-0.19-1.62l-1.74-2.17l1.24-4.89l-2.71-1.33l-1.2-2.729l1.29-3
		l-0.2-1.69l-3.05-1.3l-1.11-2.63l-0.07-2.95l-1.39-1.94l-1.58-0.81l0.32-5.24l-6.28-3.99l-0.28-1.02l1.04,0.93l0.34-2.1
		l-1.13-3.141l-1.43-1.64l-3.07,0.24l1,1.58l-1.35-0.841l-0.43-1.5l-1.42-0.71l-0.3-2l-1.3-0.579l0.01-2.391l-5.69-3.91l-2.98-0.949
		l-1.89-2.08l0.14-1.25l-2.29,0.069l-1.96-3l-1.65-0.59l-2.57,0.9l-2.1-1.561l-1.14,0.2l-6.01-3.64l-1.76-1.95l0.58-0.54l-1.07-0.75
		l0.18-1.07l-0.96,0.311l-1.71-2l1.23,0.319l-0.4-1.17l-0.99,0.09l-1.48-1.979l-1.64-3.021l0.35-1.52l-1.33-0.43l0.32,1.14
		l-0.58-0.22l-0.8-2.17l0.89,0.43l0.11-0.89l-1.22,0.069l-2.05-1.72l0.25-1.31l-2.13-0.851l-2.39-5.5l-1.66-1l-0.89-4.24l-2.1-3.21
		l0.11-0.779l2.16-1.29l0.7-1.87l-1.22-1.021l-0.12-1.55l0.9-0.1l-0.67-1.73l-0.83,0.29l-0.78-0.67l-0.93-6.07l-1.43-3.119
		l-3.24-4.23l-0.5-3.77l1.96-1.061l-1.02,1.88l0.52,0.641l0.46-0.881l0.79,0.171l0.2-2.75l1.22,0.1l0.28-3.05l-0.87,2.14l-0.58-0.26
		l0.8-1.95l-0.32-1.47l2.25-4.19l-0.02-1.7l1.28-0.899l0.32-1.38l-1.17-0.011l-0.15,0.921l-1.04-0.75l0.37-5.74l-3.44-6.351
		l0.89-0.899l-1.36,0.24l-4.27-7.131l1.3,0.49l1.18,2.71l1.19,0.21l0.51-0.72l-1.58-2.25l-0.05-1.49h-2.29l-0.83-0.069l-1.44-2.19
		l0.74-1.65l-0.73-3.8l-0.25-0.76l-0.68,0.68l-1.68-2.45l-1.62-4.109l-0.07-2.601l0,0l9.02-0.979l2.13,3.42l7.51,7.23l6.43-0.881
		l1.58,0.37l0.43,3.86l0.7,0.58l10.44-3.25l4.76-0.311l1.07,1.391l0.28,3.25l-2.59,7.779l4.58,1.921l2.09,1.909l0.45,2.311
		l-0.83,3.87l0.65,1.58l4.76,0.56l2.33-1.12l4.63-4.1l8.4,2.189l4.47-6.659l9.34-7.12l5.12-5.32l2.45-1.771l5.67-2.31l0.56-0.76
		l-0.4-1.57l-5.35-2.939l-0.96-2.16l3.59-2.87l11.75-5.83l1.75-3.74l-0.16-3.22l-1.11-2.521l0.58-2.319l3.24-1.03L258.17,323.86z"/>
	<path id="SA-03" fill="#1E3250" stroke="#1E3250" stroke-width="0.5" d="M130.57,324.5l-0.9-0.61l-0.33,0.61l-0.7-0.29l-1.43-1.44
		l0.38-0.899l-1,0.41l-2.69-3.03l-1.75,0.11l-3.64-2.841l0.62-0.51l-0.59-0.29l0.58-1.68l-1.39,0.76l0.01,1.65l-1.68-0.19
		l-2.75-2.06l-1.19-2.11l-1.87-0.7l-0.09-0.83l-2.59,0.23l0.09,1.88l-3.34-0.84l-3.31-3.78l0.31-1.819l0.67,0.46l0.26-1.121
		l-2.64-3.81l0,0l1.5-4.71l5.65-0.48l2.36-0.91l2.51-3.24l0,0l3.86,0.04l0,0l2.58-0.03l1.61-0.83l0.92-1.54l-0.11-15.01l1.19-7.8
		l-1.12-1.4l-3.9-0.43l-3.59-10.2l-5.9-5.18l-1.21-3.91l-6.97-4.29l-1.53,0.17l-1.95,1.78l-1.09-4.68l-2.36-4.85l0.16-2.33l0,0
		l3.15-5.54l0.26-1.76l0,0l-0.36-1.18l-1.54-0.95l-4.78-1.35l-2.6-2.89l-0.69-2.63l0.81-8.93l-0.99-4.2l-1.43-1.38l-4.66,0.5l0,0
		l-0.9-1.23l0,0l1-1.47l4.74-1.11l10.42-4.67l6.32,3.4l2.42,0.31l9.13-4.21l1.89,1.83l1.36,4.84l3.54,5.82l2.34,0.81l5.38,0.24
		l1,1.24l-0.05,2.38l3.74,2.46l0.15,0.75l0,0l-0.43,2.4l0.93,1.09l0,0l5.54-3.86l1.65-0.33l6.16,2.51l0.8-0.64l-0.82-3.01l0,0
		l1.17-0.77l0,0l1.28,1.18l0.96,3.08l4.72,1.41l6.21,4.49l8.82-0.12l11.98-2.1l2.55,2.87l0,0l0.92,4.22l-2.36,4.67v1.63l1.94,1.74
		l3.27-0.84l1.09,1.03l-2.02,15.07l2.08,9.8l-0.52,10.14l1.93,3.1l3.11,0.74l9.37-3.24l8.06-0.39l2.41-1.18l3.87-4.64l3.27-1.25
		l6.68-0.15l11.8,2.31l0,0l6.92,1.83l1.35,1.16l-0.3,13.3l1.74,2.02l5.3,1.39l1.41,1.13l3.15,10.79l4.08,3.38l0,0l-0.4,3.14
		l-2.95,4.25l0.94,3.6l-1.41,4.88l0.04,9.03l0,0l-5.05-0.85l-3.23,1.029l-0.58,2.32l1.11,2.52l0.16,3.23l-1.75,3.74l-11.75,5.84
		l-3.59,2.87l0.96,2.16l5.35,2.939l0.4,1.57l-0.56,0.76l-5.67,2.311l-2.45,1.77l-5.12,5.33l-9.34,7.12l-4.47,6.66l-8.4-2.19
		l-4.63,4.1l-2.33,1.12l-4.76-0.56l-0.65-1.58l0.83-3.86l-0.45-2.31L190.1,368l-4.57-1.92l2.59-7.78l-0.28-3.25l-1.07-1.39
		l-4.76,0.31l-10.44,3.25l-0.7-0.58l-0.43-3.859l-1.58-0.37l-6.43,0.88l-7.51-7.229l-2.12-3.421l-9.02,0.98l0,0l-0.21,0.03l0,0
		l-0.12,0.02l0,0l-0.64-3.24l-1.32-1.319l0.21-1.05l-1.62,0.039l0.34,1.551l-0.86-0.5l-0.34-3.37l-1.47-1.22l-0.96-4.421
		L130.57,324.5z"/>
	<path id="SA-04" fill="#1E3250" stroke="#1E3250" stroke-width="0.5" d="M544.81,262.45l1.221,0.53l0.35,2.07L544.81,262.45z
		 M536.46,223.44l0.87,0.69l-0.05,1.6l-2.19-1.28L536.46,223.44z M518.09,194.3l5.86,2.13l-2.38-0.21l-2.37,0.75l-0.11-1.34
		l-1.17-0.55l-2.2,2.78l0.33-2.34L518.09,194.3z M537.66,227.85l0.38,0.99l0.91-1.52l-0.061,2.39l0.79,0.44l1.19-1.76l0.02-2.14
		l0.36,1.46l0.38-0.61l0.05,1.18l-1.529,1.74l1.649,1.52l0.521,1.62l-0.091,4.78l-1.46,2.63l-0.68-1.99l0.26,2.76l-0.64,3.42
		l-0.75,0.42l-2.62-5.96l-1.27-0.22l-1.15,2.79l0.89,1.29l-0.479,3.69l1.42-0.76l2.18,0.84l0.98,2.12l-1.061,1.2l1.28,2.91
		l4.35,5.75l-0.229,0.88l-0.811-1.29l-1.42-0.33l-2.02-1.88l0.68,1.74l1.141,1.32l0.51-0.72l0.46,2.08l1.95,2.62l1.26,0.44l0.07,1.1
		l2.04,2.54l0.35-1.05l-0.68-0.91l0.659-0.53l0.62,1.64l3.23,2.49l1.33,4.04l-0.34,2.41l1.25,2.03l0.149,5.21l0.891,0.45
		l-0.181-1.47l2.521,3.53l1.05,3.3l1.479,0.73l1.49,6.53l0.641-1.84l1.58-0.3l0.84,2.61l3.689,4.38l4.58,0.8l2.45-0.96l1.63-1.8
		l2.15,0.05l0.5,0.95l0.76-0.35l-0.66,1.28l0.13,2.42l1.45-0.87l0.37-1.39l1.6-1.3l-0.09-0.95l0.891,0.53l0.529-0.43l0.41,1.64
		l1.03-0.58l0.76,0.76l-2.81,1.51l-0.42,1.48l-3.07,2.44l-0.6,3.09l-0.561,0.13l0.13,1.7l2.24,0.42l0.9-1.181l2.029-0.18l1.67,0.66
		l1.511,2.12l1.63-0.07l0.75,1.18l-0.51,4.23l34.3,41.63l23.79,4.76l59.71,13.761l7.05-7.46l15.68,25.979l-22.97,73.24
		l-103.4,36.399l-39.96,7.94l-57.87,6.31L473.3,536.15l-20.91,25.6l-4.869,12.21l-1.53,0.931l0,0l10.58-87.95l0,0l19.5-152.83
		l0.02-7.75l-1.359-6.9l-4.631-7.84l-9.189-9.15l-9.44-6.3l-3.409-3.59l-1.021-11.11l0.63-15.07l-0.38-22.62l-0.43-4.96l-1.09-2.56
		l-12.74-5.25l-1.46-2.52l-6.45-6.08l-8.32,0.75l-12.359-8.13l-10.99-1.55l-4.06-3.38l-3.46-4.22l-5.74-1.06l-10.41-6.08l-1.23-1.53
		l-1.41-5.11l-5.44-4.53l0,0l-1.86-3.35l1.28-4.67l9.15-12.15l12.66-23.67l8.26-8.72l12.451-4.39l0,0l5.1,0.13l6.729-4.42
		l31.351,4.11l4.229,6.05l0.83,7.16l3.53,4.7l-0.17,0.7l24.979-0.43l2.46,1.6l-0.039,2.25l1.51,1.15l-1.01,3.01l0.97,1.98l3.18,3.25
		l-0.69,0.53l0.211,3.67l2.05,2.38l3.89,1.05l-1.62,0.84l0.08,1.05l1.59,1.81l1,0.1l0.05,1.35l2.03,1.26l0.021,3.01l-0.9,0.6
		l-0.26-2.94l-0.72,1.02l-0.29-1.41l-1.301,4.4l0.641,0.08l0.45-1.25l0.35,2.38l0.64-0.95l0.08,1.86l1.07-0.31l-1.21,2.19l1.12,0.54
		l0.75-1.32l0.63,0.19l-0.46,2.33l0.81-0.41l-0.1-1.04l1.56-0.79l2.021,1.93l2.59,1.16l3.66-0.06l1.689,0.83l1.73,1.96l0.2,1.82
		l-0.67-1.37l-0.71,1.15l-0.54-0.61l-0.71,0.71l-1.801-0.7l-1.85,1.31l2.521,1.44l1.01-0.24l-0.03-1.05l1.36,0.77l-1.34,0.83
		l-0.351,2.15l1.72-1.09l1.62,0.54l-0.01,3.71l0.67,1.13l2.62,0.29l-0.48,1.89l-1.09,0.17l0.311,0.57l0.76-0.31l0.53,1.03l0.67-1.73
		l0.35,1.41l1.2-0.66l1.46,0.51l-0.89-1.68l0.77-1.62l-1.91-1.19l0.66-1.25l0.601-0.46l0.38,1.64l1.109,0.06l0.23,1.5l-0.74,0.31
		l0.97,0.96l0.9-0.7l-0.5,1.48l0.55,1.96l1.17,1.16l2.4-1.43l1.07,0.41l-3.421,1.27l0.96,1.23l1.49-0.36l-0.71,1.93l3.37,2.9
		l3.49,1.81l2.979,0.3l7.46,8.34l-1.899-1.65l-1.681-0.43l-0.979,0.68l-1.28-2.83l-0.47,2.24l0.15,0.95l0.81,0.2l-0.05,3.75
		l2.34,4.17L537.66,227.85z"/>
	<path id="SA-05" fill="#1E3250" stroke="#1E3250" stroke-width="0.5" d="M238.3,263.96l1.2-1.37l4.95-0.74l6-3.57l5.95-0.77
		l0.81-0.65l-2.35-5.6l0.32-2.44l2.12-1.7l6.38,1.67l0.47-0.77l-0.82-6.33l1.89-4.8l5.69-0.67l0.87-4.3l4.75-4.83l11.89-9.24
		l11.31-5.23l2.76-5.79l2.72-2.76l14.5-7.43l4.15-1.34l2.37,0.86l4.44,4.49l5.99,4.12l7.47,0.54l5.05-5.84l0,0l2.35,0.93l3.6,2.99
		l1.34,2.5l0.15,2.5l-0.62,1.48l-4.18,1.84l-2.46,2.11l-4.5,5.87l-4.01,1.1l0.43,5.12l-0.84,5.74l0.49,1.52l3.6,3.57l6.69,10.16
		l-0.94,3.77l2.52,4.86l0.31,3.16l-0.84,3.9l-12.73,0.46l-8.3-1.06l-3.13,0.82l-2.02,1.97l-2.28,4.47l-3.09,1.74l-2.84,2.81
		L305,276.95l-3.27,2.52l-5.42,6.69l-0.15,2.3l1.91,3.83l-0.85,2.18l-2.43,1.79l-5.69-0.87l-5.67,0.89l-5.73-0.5l-10.54-3.48
		l-2.17,1.58l-3.04,5.08l0,0l-4.08-3.38l-3.15-10.8l-1.4-1.13l-5.31-1.39l-1.74-2.01l0.3-13.3l-1.35-1.16L238.3,263.96z"/>
	<path id="SA-06" fill="#1E3250" stroke="#1E3250" stroke-width="0.5" d="M183.38,221.21l1.99-2.39l2.34-7.76l3.13-3.74l0,0
		l4.44-4.13l0.29-2.41l0,0l-4.13-2.96l0,0l-3.73-2.16l-1.4-3.91l0,0l-3.82-14.43l-1.4-1.64l-3.14-1.45l-1.33-2.43l-3.06-0.98
		l-1.3-1.59l0,0l-2.94-2.27l-4.95-1.3l0,0l-7.98-1.48l-1.13-1.33l0,0l3.69-4.2l6.27-3.54l9.93-4.38l4.29-0.69l13.07-7.6l12.9-5.53
		l3.04,0.66l0,0l6.75,2.27l20.96-4.87l12.17,3.53l9.21-1.71l14.47,3.51l6.57,7.15l2.52,1.46l3.99-0.21l4.62-2.48l2.68-0.47l0.67,0.8
		l0.88,6.22l2.38,1.77l6.49-0.31l6,3.12l2.52-0.84l5.05-3.38l1.57-0.21l2.66,2.85l5.28,9.66l2.78,7.7l2.02,2.48l2.44,1.44l9.98,1.29
		l3.28,1.26l7.7,6.47l1.03,1.87l0,0l-3.15,1.64l-2.42,3.32l-0.99,3.1l0.62,3.47l0,0l-5.05,5.84l-7.47-0.54l-5.99-4.12l-4.44-4.49
		l-2.37-0.86l-4.15,1.34l-14.5,7.43l-2.72,2.76l-2.76,5.79l-11.31,5.23l-11.89,9.24l-4.75,4.83l-0.87,4.3l-5.69,0.67l-1.89,4.8
		l0.82,6.33l-0.47,0.77l-6.38-1.67l-2.12,1.7l-0.32,2.44l2.35,5.6l-0.81,0.65l-5.95,0.77l-6,3.57l-4.95,0.74l-1.2,1.37l0,0
		l-11.8-2.31l-6.69,0.15l-3.27,1.25l-3.87,4.64l-2.41,1.18l-8.06,0.39l-9.37,3.24l-3.11-0.73l-1.93-3.1l0.51-10.14l-2.07-9.81
		l2.02-15.06l-1.1-1.03l-3.27,0.83l-1.94-1.74v-1.62l2.36-4.67L183.38,221.21z"/>
	<path id="SA-07" fill="#1E3250" stroke="#1E3250" stroke-width="0.5" d="M88.92,284.8l1.2,1.5l-1.49-0.68L88.92,284.8z
		 M80.98,267.53l1.34,0.39l0.96,2.68h-0.7l0.08-1.17l-2.04-1.11L80.98,267.53z M85.54,266.23l1.03,1.42l0.55-0.18l-0.26,0.83
		l-1.46-0.43L85.54,266.23z M84.73,264.76l0.9,0.87l-1.33-0.1L84.73,264.76z M81.11,262.59l0.56,0.93l-0.85,0.56l-0.43-0.67
		L81.11,262.59z M83.12,262.19l0.94,2.34l-1.03-0.85L83.12,262.19z M69.29,259.15l1.39,1.61l-1.55,0.1l-0.63-1.01L69.29,259.15z
		 M71.91,257.16l-1.4-0.76l-0.02-1.67l0.73,1.36l0.8-0.2L71.91,257.16z M6.81,170.96l0.88,0.19l0.6,1.53l-1.02,0.43l-0.73-1.53
		l-1.11,0.74l0.24-0.9L6.81,170.96z M1.46,168.83l0.48,0.71l-1.25,0.41l0.69,0.97l1.93-0.34l-0.1,0.81l1.17,1.07L2,172.82
		l-1.67-1.25L0,169.41L1.46,168.83z M11.62,134.86l4.87-0.45l9.66,1.35l2.31-2.25l3.26-0.84l11.7-1.56l5.98,0.34l5.08,1.55
		l2.51,1.93l9.39,12.14l1.72,0.64l13.95-3.57l5.16,0.72l4.62,1.8l8.55,0.72l1.57-0.57l3.85-7.53l5.22-4.01l1.57,0.95l0.46,1.64
		l-0.14,11.58l1.32,4.28l0,0l3.48,3.55l2.42,1.21l0,0l3.31,1.1l10.14,1.18l3.2-1.79l2.32,1.73l2.38-0.11l0.79,2.47l1.29,1.08l0,0
		l1.73-0.09l3.56-1.88l0,0l3.39-0.99l3.04,1.7l0,0l1.13,1.32l7.98,1.48l0,0l4.95,1.31l2.94,2.27l0,0l1.3,1.6l3.05,0.98l1.33,2.42
		l3.14,1.45l1.41,1.64l3.82,14.43l0,0l1.4,3.91l3.73,2.15l0,0l4.13,2.97l0,0l-0.29,2.41l-4.44,4.13l0,0l-3.13,3.74l-2.33,7.77
		l-1.99,2.39l0,0l-2.55-2.87l-11.98,2.1l-8.82,0.12l-6.21-4.49l-4.72-1.41l-0.96-3.08l-1.28-1.17l0,0l-1.17,0.77l0,0l0.82,3.01
		l-0.8,0.64l-6.15-2.51l-1.65,0.33l-5.54,3.86l0,0l-0.93-1.09l0.43-2.4l0,0l-0.15-0.75l-3.74-2.46l0.05-2.38l-1-1.24l-5.38-0.23
		l-2.34-0.81l-3.54-5.82l-1.36-4.84l-1.89-1.83l-9.13,4.21L101,196.6l-6.32-3.4l-10.41,4.67l-4.74,1.11l-1,1.47l0,0l0.9,1.23l0,0
		l4.66-0.5l1.43,1.38l0.99,4.2l-0.81,8.93l0.69,2.63l2.6,2.89l4.78,1.35l1.54,0.95l0.36,1.18l0,0l-0.26,1.76l-3.15,5.54l0,0
		l-0.16,2.33l2.36,4.85l1.09,4.68l1.95-1.78l1.53-0.17l6.97,4.29l1.21,3.91l5.9,5.18l3.59,10.2l3.91,0.43l1.12,1.4l-1.19,7.81
		l0.12,15.02l-0.92,1.54l-1.61,0.83l-2.58,0.03l0,0l-3.86-0.04l0,0l-2.51,3.24l-2.36,0.91l-5.65,0.48l-1.5,4.71l0,0l-1.48-3.59
		l-0.84,0.33l-0.56-1.64l-2.78-1.51l-0.44-2.11l0.84,0.07l-0.05-1.24l-0.92-0.35l0.42,0.41l-0.78,0.58l-1.33-1.78l0.74-0.6l1.35,0.3
		l-0.89,0.44l1.2,0.37l1.5-2.13l-0.69-1.49l1.33-3.11l-1.45-2.83l0.79-1.46l-0.59-2.62l-4.67-5.22L89,269.17l0.09-1.57l-2.7-2.19
		l0.04-1.78l-0.93-0.25l-0.22-2.07l-1.07-1.57l-2.11-0.91l-2.23-3.18l-0.24,1.7l-2.04-1.01l-1.1-0.86l0.18-1.06l-0.94-0.13
		l-0.58-1.92l-0.96-0.3l1.62-2.56l0.4-4.25l-1.79-1.12l-2.77-0.16l-2.62-2.13l-1.09-3.69l-3.07-4.99l-2.17-5.7l-5.7-8.58l-1.75-0.97
		l-1.95-5.94l-8.32-8.31l-0.43-2.1l1.01-1.06l-0.31-1.15l-2.3-3.78l-2.56-1.31l-2.59-2.96l-5.26-12.61l-2.7-1.42l-0.19-2.51l-2.49-2
		l-0.65-1.62l-3.32-1.72L23,168.85l2.18-0.65l-0.07-0.59l-3.98-0.88l-1.7-1.66l-1.46-0.39l0.51,1.07l-1.1-0.65l-2.4,1.32l-2.78,0.24
		l-0.23-0.96l1.02-0.56l-1.66,0.11l-0.74-0.09l-0.54,0.73l-0.54-0.08l-0.05,1.2H8.5l0.44-1.68l-1.35-0.19l-0.12-1.17l-0.97,0.2
		l-1.13,1.56l0.59,1.1l-1.39,1.58l-0.78-1.45l0.2-1.28l-1.27,0.28l1.97-3.31l0.97,0.36l-0.42-1.04l1.01-3.05l4.46-9.9l-1.04-5.44
		l1.92-5.76L11.62,134.86z"/>
	<path id="SA-08" fill="#1E3250" stroke="#1E3250" stroke-width="0.5" d="M403.62,130.53l-12.46,4.39l-8.25,8.72l-12.66,23.68
		l-9.15,12.15l-1.29,4.67l1.86,3.35l0,0l-1.3,2.23l-1.8,0.86l-1.51-0.52l-1.94-2.12l0,0l-1.03-1.87l-7.7-6.47l-3.28-1.26l-9.98-1.29
		l-2.44-1.44l-2.02-2.48l-2.78-7.7l-5.28-9.66l-2.66-2.85l-1.57,0.21l-5.05,3.38l-2.52,0.84l-6-3.12l-6.49,0.31l-2.38-1.77
		l-0.88-6.22l-0.67-0.8l-2.68,0.47l-4.62,2.48l-3.99,0.21l-2.52-1.46l-6.57-7.15l-14.47-3.51l-9.21,1.71l-12.17-3.53l-20.96,4.87
		l-6.75-2.27l0,0l5.62-5.69l1.28-15.42l1.4-2.47l6.16-4.72l27.27-16.85l5.26-4.73l-0.1-1.57l-7.78-6.26l-3.13-6.39l-2.09-2.5
		l-3.6-1.59l-8.68-0.61l-7.57-6.08l-2.7-1.26l-7.01,0.88l-17.95-0.62l-3.7-1.12l-5.76-4.21l-4.38-0.08l-19.01-3.45l-8.05,0.14
		l-20.83,2.85l-5.73-0.66l-2.19-1.9l-3.89-6.96l-4.7-3.69l-0.58-6.72l4.11-14.4l0,0l35.03-10.31l10.52-9.17L165.22,0l3.49,2.95
		l18.56,5.42l9.49,5.15l88.69,62.66l66.05,45.65L403.62,130.53z"/>
	<path id="SA-09" fill="#1E3250" stroke="#1E3250" stroke-width="0.5" d="M260.26,593.69l0.94,0.359l-0.65,1.12l-0.68-0.76
		L260.26,593.69z M259.78,590.47l-0.13,1.061l-0.49,0.77l-0.56-1.17L259.78,590.47z M249.82,587.51l1.93,0.5l1.13,1.63l-3.2-1.029
		l-0.65-0.761L249.82,587.51z M259.48,583.76l0.49,0.34l-1.62,0.141L259.48,583.76z M250.3,581.95l3.17,1.84l1.47,3.11l2.35,0.67
		l1.59-0.36l0.99,1.34l1.6-0.47l-0.28-0.9l-1,0.591l-0.43-0.61l0.61-1.86l1.64-0.43l0.97,2.45l2.42,1.16l-0.7,1.59l0.44,2.97
		l-3.97-1.68l1.24-0.601l-0.09-1.26l-1.8-0.439l-3.04,0.93l-3.11-1.96l-2.14-2.931l-1.33-0.029l0.46-1.25l-1-0.811L250.3,581.95z
		 M243.83,581.79l2.05,3.05l-1.59-0.6L243.83,581.79z M255.76,579.71l1.14,0.78l-0.56,0.939l0.58,0.92l1.38,0.42l-0.13,0.87
		l-1.3-0.319l-0.74,0.59l2.19,1.66l0.46,1.489l-0.76-1.149l-3.02-1l-1.83-2.61l0.01-1.08l1.64-0.2L255.76,579.71z M247.73,579.49
		l1.51,1.1l-1.68,1.47l-0.94-1.159L247.73,579.49z M251.35,578.63l1.13,0.65l-0.47,0.569L251.35,578.63z M256.51,578.87l0.42,1.41
		l-2.06-2.08L256.51,578.87z M250.73,530.94l4.46-0.471l1.26,1.03l-0.55,8.771l5.84,0.25l2.66,4.88l8.28,0.399l1.28,1.24l1.59,3.73
		l4.77,3.8l1.97-0.8l1.67-6.75l1.21-2.101l5.08-3.04l1,1.12l-0.13,4.42l3.6,1.82l2.64,4.64l3.64,1.17l1.98,3.011l0,0l0.97,1.39
		l-1.92,2.92l0.09,2.37l2.62,2.58l-4.49,1.41l0.42,1.869l-1.52,1.37l-0.64,2.65l2.7,0.43l0.82,1.641l-0.55,0.909l-2.27-0.26
		l0.26,2.811l-1.54,1.3l1.45,1.89l1.55,0.34l1.34,1.311l0.26,2.12l-1.43,0.109l-0.32,0.811l0.49,2.6l-3.57-0.78l0.44,0.9l-0.98,3.8
		l-4.42,1.16l-1.67,1.19l0.42,2.71l-6.49-0.07l0.27-2.46l-2.05-3.37l0.56-3.56l-0.79-0.881l0.01-1.5l-2.51-3.109l-2.05-0.45
		l-0.39-1.35l-1.2-0.5l1.07-0.96l-0.22-3.24l-3.54-1.79l-1.33-1.88l0.23-1.83l-1.58-0.85l0.87,2.25l-0.66,0.659l-0.25,2.92
		l-0.18-3.729l-1.5-7.36l-0.56-0.31l0.37-3.75l-1.44-0.38l-1.57-2.471l-1.97-1.51l-0.98,0.05l-1-2.43l-7.97-6.24l-3.75-1.38
		l0.19-0.8l-3.78-3.48l0.69-0.01l-1.01-0.91l0.26-1.069l-0.59,0.79l-0.49-0.33l0.25-1.74l-1.39-0.54l-0.76-1.79l0,0l1.97-3.15
		l3.55-2.05L250.73,530.94z"/>
	<path id="SA-10" fill="#1E3250" stroke="#1E3250" stroke-width="0.5" d="M399.66,569.25l-23.48-2.78l-6.25-4.029H350.2l-3.34,1.25
		l-2.64-1.391l-2.7,0.12l-8.79,1.12l-0.82,1.52l-1.08-1.34l-2.95,0.53l-1.37,1.92l-2.61-0.72l-3.57,0.14l-0.68-0.89l-2.02,0.359
		l-2.59-2.699l0.07-1.04l0,0l1.15-3.24l-1.3-5.93l1.44-9.841l-1.3-7.779l3.96-5.12l8.21-7.561l3.09-5.55l6.32-2.02l3.6-2.83
		l1.14-4.34l-1.76-8.57l0.69-1.59l3.85-1.94l1.12-1.39l0.04-6.08l0,0l8.51,5.59l5.22,2.39l12.09,1.421l58.85-5.04l16.39-2.391
		l10.13-2.63l0,0l-10.58,87.94l0,0l-7.479,4.72l-7.03-0.36l-8.18-11.04l-10.7,1.53L399.66,569.25z"/>
	<path id="SA-11" fill="#1E3250" stroke="#1E3250" stroke-width="0.5" d="M259.74,446.97l-2.15,6.42l2.28,2.761l0.11,1.59
		l-1.04,1.45l-5.82,3.97l-0.84,1.79l0.23,3.55l-4.26,8.69l0,0l-6.93,1.13l-2.4,4.46l-2.58,8.989l-2.21,1.08h-2.58l-1.59-1.05
		l-2.06-3.06l-3.68-2.13l-1.3-1.54l-0.34-13.61l-0.97-1.52l-3.65-1.101l-0.85-2.109l4.01-4.101l7.73-1.86l4.06-8.189l-0.99-6.9
		l2.06-3.529l2.26-0.311l1.43,0.61l1.21,1.45l1.28,3.779l1.92,1.46l4.61-1.77l4.17,0.2l5.41-2.75l1.49,0.22L259.74,446.97z"/>
	<path id="SA-12" fill="#1E3250" stroke="#1E3250" stroke-width="0.5" d="M13.16,125.9l1.22-4.4l1.04-0.61l-0.48-1.92l0.81-0.46
		l0.37-2.22l38.21,6.79l14.65-12.07l8.85-14.78l25.76-5.16l5.78-13.18l11.32-6.78L86.43,31.39l33.69-9.9l0,0l-4.11,14.4l0.58,6.72
		l4.7,3.69l3.89,6.96l2.19,1.9l5.73,0.66l20.83-2.85l8.05-0.14l19.01,3.45l4.38,0.08l5.76,4.21l3.7,1.12l17.95,0.62l7.01-0.88
		l2.7,1.26l7.57,6.08l8.68,0.61l3.6,1.59l2.09,2.5l3.13,6.39l7.78,6.26l0.1,1.57l-5.26,4.73l-27.27,16.85l-6.16,4.72l-1.4,2.47
		l-1.28,15.42l-5.62,5.69l0,0l-3.04-0.66l-12.9,5.53l-13.07,7.6l-4.29,0.69l-9.93,4.38l-6.27,3.54l-3.69,4.2l0,0l-3.04-1.7l-3.39,1
		l0,0l-3.56,1.88l-1.73,0.08l0,0l-1.3-1.08l-0.78-2.47l-2.39,0.11l-2.31-1.73l-3.2,1.79l-10.13-1.18l-3.32-1.1l0,0l-2.42-1.21
		l-3.47-3.55l0,0l-1.32-4.28l0.14-11.58l-0.46-1.64l-1.57-0.94l-5.22,4.01l-3.84,7.53l-1.57,0.57l-8.55-0.71l-4.62-1.8l-5.16-0.72
		L68.1,147.7l-1.72-0.64l-9.39-12.14l-2.51-1.93l-5.08-1.54l0,0l0,0l0,0l-5.99-0.34l-11.69,1.56l-3.27,0.83l-2.3,2.26l-9.66-1.35
		l-4.87,0.45l0,0L13.16,125.9z"/>
	<path id="SA-14" fill="#1E3250" stroke="#1E3250" stroke-width="0.5" d="M302.97,558.04l-1.98-3.01l-3.63-1.17l-2.65-4.63
		l-3.6-1.82l0.14-4.42l-1-1.12l-5.08,3.04l-1.21,2.1l-1.66,6.75l-1.97,0.8l-4.77-3.79l-1.59-3.729l-1.28-1.24l-8.28-0.399
		l-2.66-4.881l-5.84-0.25l0.55-8.77l-1.27-1.03l-4.46,0.471l0,0l1.5-6.41l-2.97-9.141l-2.11-1.199l-8.14-0.7l-1.64-4.44l0.49-10
		l1.97,1.88l0.75-0.06l3.87-2.82l6.98,0.061l1.52-0.75l0.76-1.42l1.27-4.601l-2.19-4.439l1.1-8.431l-1.85-1.89l-2.29-0.13l-1.5,0.74
		l0,0l4.26-8.69l-0.23-3.55l0.84-1.79l5.82-3.97l1.04-1.45l-0.11-1.59l-2.28-2.761l2.15-6.42l0,0l4.67,9.08l1.4,1.021l2.28,0.239
		l2.31-1.13l10.11-9.25l6.41-3.06l4.26-3.8l4.55-0.28l3.16-1.521l2.26-0.239l5.21,1.3l5.72-3.771l4.02-1.46l0,0l5.76,5.011
		l3.07,4.93l4.66,5.33l-0.08,2.96l-3.34,6.09l-1.01,7.71l2.75,2.96l3.91,6.36l13.54,12.09l0,0l-0.04,6.08l-1.12,1.39l-3.85,1.94
		l-0.69,1.59l1.76,8.57l-1.14,4.34l-3.6,2.83l-6.32,2.02l-3.09,5.55l-8.21,7.561l-3.96,5.12l1.3,7.779l-1.44,9.841l1.3,5.93
		l-1.15,3.24l0,0l-0.11,1.8l-7.66-5.67l-2.46-0.34L302.97,558.04z"/>
</g>
</svg>
