<?xml version="1.0" encoding="utf-8"?>
<!-- Generator: Adobe Illustrator 15.0.0, SVG Export Plug-In . SVG Version: 6.00 Build 0)  -->
<!DOCTYPE svg PUBLIC "-//W3C//DTD SVG 1.1//EN" "http://www.w3.org/Graphics/SVG/1.1/DTD/svg11.dtd">
<svg version="1.1" id="Layer_1" xmlns:amcharts="http://amcharts.com/ammap"
	 xmlns="http://www.w3.org/2000/svg" xmlns:xlink="http://www.w3.org/1999/xlink" x="0px" y="0px" width="674.5px" height="609.5px"
	 viewBox="0 0 674.5 609.5" enable-background="new 0 0 674.5 609.5" xml:space="preserve">
<defs>
	
	
		<amcharts:ammap  projection="mercator" leftLongitude="35.715618" topLatitude="37.317755" bottomLatitude="32.310278" rightLongitude="42.385256">
		</amcharts:ammap>
</defs>
<g>
	<path id="SY-HA" fill="#1E3250" stroke="#1E3250" stroke-width="0.5" d="M608.76,85.61l-1.66,0.57l-3.609,3.14l-11.99,3.15
		l-28.94,5.75l-11.77,20.07l-0.271,11.3l-3.34,25.45l12.15,26.63l1.31,24.82l-6.05,9.55l0,0L542,214.35l-13.49,0.07l-10.37-1.11
		l-13.71-3.62l-6.81-3.83l-1.83-2.56l-2.69-1.81l-78.06-76.95l-3.87-4.95l-6-10.45l-1.52-3.96l0,0l-1.061-3.47l-4.66-3.5
		l-12.15-4.96l-5.49,1.25l-3.95-1.46l-5.78-7.55l-2.97-8.68l0,0l22.28-3.75l5.72-2.2l11.76-1.42l20.75-9.91l3.46-3.021l11.94-3.33
		l5.16-3.96l12.42-6.729l5.15-4.2l10.68-2.21l5.52-3.37l7.17-3l3.261-2.37l4.42-1.02l2.88-1.8l4.02,0.1l1.141,1.28l1.62,0.34
		l3.5-2.18l6.329-0.02l16.25,3.62l5.45,0.35l3.42,1.59l1.38,1.94l1.82-0.16l3.38-1.77l22.69-0.04l5.66-0.7l9.79-3.35l10-0.62
		l21.38-5.19l8.12-3.62l4.81-2.96l3.271-4.52l5.409-4.04l2.221-4.08l1.55-0.271l-1.12,4.93l2.62-0.36l2.79,1.14l1.91-1.21l1.22,2.43
		l1.36,0.56l0.63,1.44l2.96,2.17l-0.221,2.09l-1.489,1.36l-0.3,3.05l2.529,5.92l-0.05,3.93l1.86,1.6l0.359,1.83l-24.67,25.78
		l-19.39,22.99L608.76,85.61z"/>
	<path id="SY-DY" fill="#1E3250" stroke="#1E3250" stroke-width="0.5" d="M543.71,276.14l1.47,32.05l-9.699,14.449L524.97,347.94
		l-1.56,1.5l-0.48,2.35l-81.08,44.76l0,0l-18.88-28.06l-56.01-80.14l1.04-9.56l-8.22-17.26l-11.66-9.07l0,0l42.92-62.74l-5.73-2.43
		l18.34-82.11l0,0l1.52,3.96l6,10.45l3.87,4.95l78.06,76.95l2.69,1.81l1.83,2.56l6.81,3.83l13.71,3.62l10.37,1.11l13.49-0.07
		l12.59,1.69l0,0l-4.979,7.87l-0.761,12.21l-3.21,11.98l-1.689,9.78l-0.71,8.66L543.71,276.14z"/>
	<path id="SY-ID" fill="#1E3250" stroke="#1E3250" stroke-width="0.5" d="M148.11,216.04l-2.16,1.03l-3.73,8.12l-5.26,2.78
		l-2.58,5.66l-0.03,1.98l2.44,0.6l2.17-2.98l1.21,0.27l0.68,1.94l0.06,5.39l-2.66-0.1l-2.22,2.95l-1.13,0.47l-5.68,0.23l-1.59-0.77
		l-0.71-5.35l1.34-3.96l-1.42-3.35l-4.25,4.76l-1.21,2.91l-4.28,0.87l-2.6-2.44l-0.85-1.84l-3.76-3.02l-8.56,1.78l-2.5,1.27
		l-4.22,0.3l-9.68-2.14l-3.92-0.03l-2.12-3.32l-3.01-1.54l-2.66,1.71l-2.58,0.5l-1.1-1.11l-1.07-4.15l-1.67-3.16l1.04-1.71
		l-1.18-8.82l2.25-11.8l-0.11-3.32l-5.79-0.44l-0.74-0.44l-1.09-3.13l-1.46-0.33l-2.11,1.14l-1.86,0.07l-1.9-1.01l-0.67-1.22l0,0
		l2.9-1.84l0.24-2.6l-1.67-0.57l-3.84,0.2l-6.67,1.15l-1.39-1.42l0.44-1.73l-0.55-2.62l0,0l0.67,1.64l1.4,0.57l1.38-2.44l0.6-5.92
		l-0.81-2.1l3.14-6.04l3.13-1.47l3.41,1.07l2.33-0.32l0.35-0.4l-1.13-2.37l0.32-1.4l1.91-1.5L62,162.6l3.4-1.05l0.22-3.04l1.41-2.43
		l-0.63-2.7l0.9-1.89l-1.65-4.26l1.07-2.9l-1.51-3.26l1.2-2.33l1.16-0.36l-0.3-3.87l0.58-0.38l6.68,2.99l1.05-0.45l1.35-3.53
		l1.39,0.55l1.31-0.99h1.96l1.46,1.22l2.62-0.49l3.4,1.89l2.2-1.54l3.38-0.01l2.55-1.83l0.53-1.32l-1.31-2.01l0.75-2.51l-2.89-1.24
		l-0.21-1.44l0,0l2.87-0.57l2.77,0.47l2.31-2.2l1.34-0.14l1.01,1.19l0.53,3.12l2.66,1.96l3.4,4.4l0.41,1.7l-0.77,1.59l-6.36,6.63
		l-3.84,2.81l-0.8,1.52l0.47,1.15l1.78,1.59l0.71,2.46l12.04,6.15l0.72,1.93l0.35,6.21l7.77,11.83l0.44,2.63l3.23,4.01l3.87,0.97
		l1.92,2.5l3.73,2.59l-0.41,3.06l-3.98,3.19l1.65,5.59l1.67,2.18l0.14,3.36l1.48,0.34l2.03,3.39l2.49,1.04l1.87,2.08L148.11,216.04z
		"/>
	<path id="SY-RD" fill="#1E3250" stroke="#1E3250" stroke-width="0.5" d="M84.38,496.64l-0.63-3.979l-3.43-3.88l-2.14-4.021
		l-9.35,6.561l-1.92,1.859l-0.63,2.641l-1.01,0.62l-3.54-0.82l-2.99-3.46l-3.07-0.72l-0.63-2.32l-3.81-3.75l-1.26,0.85l0.38,3.82
		l-1.95,3.69l-3.02,0.489l-3.48,1.601l-5.46-0.46l-6.03,3.39l-2.63-0.29l-1.01-1.96l-2.52-0.98l0,0l-0.14-5.55l-4.09-0.489
		l-3.35-3.36l0.91-2.021l-2.2-1.279l0,0l-0.02-5.391l0.84-2.189l3-3.95l0.35-1.5l-0.65-1.24l5.33-5.67l0.25-1.43l-1.13-3.12
		l7.21-2.11l3.01-1.729l1.15-1.63l-0.81-3.19l-7.08-4.149l-3.76-0.551l-0.47-1.12l3.3-3.81l0.14-3.44l1.91-2.369l2.16-4.53l2.46-0.7
		l3.35-5.36l4.4-1.17l3.97-2.77l0.93-0.15l1.12,2l2.12,0.57l3.07-0.28l1.9-2.189l10.29,3.52l2.2-0.38l1.31-2.09l-0.71-1.54
		l-2.17-1.86l-3.95-1.33l-3.01-2.6l0.55-2.85l3.25-4.91l1.94-2.11l1.83-0.729l0.3-1.41l3.4-2.931l0.26-1.5l2.97-1.38l3.59,1.16
		l3.65-2.67l0.34-3.31l2.46-3.271l3.14-1.62l0.66-2.689l1.28-1.181l0.58-1.81l2.58-1.42l0.97-1.44l-0.49-0.529l0,0l1.75-1.03
		l3.4-0.13l4.2,2.08l5.4,0.17l5.79-2.9l2.44-0.53l9.63,11.811l8.31,13.149l13.22,7.87l1.92,0.53l4.22-0.3l0.85,0.79l6.34,11.479
		l3.4,2.301l6.72,7.229l7.41,5.58l4.91,4.95l3.84,9.479l6.09,8.05l10.69,7.671l8.61,2.52l10.31,7.1l9.41,8.921l23.37,17.72l4.37,4.2
		l0,0l-81,51.08l0,0l-3.52-4.211l-3.56-2.109l-2.33-3.021l-11.52-10.72l-0.96-1.72l-0.77-6.76l-2.08-2.761l-2.47-1.04l-2.52,1.761
		l-1.45-0.23l-4.94-2.63l-2.88-4.62l-0.16-2.47l-2.63-1.95l-3.07-1.27l-5.92-0.591l-1.65-0.779l-1.37-1.601l-0.63-3.39l-4.11-4.271
		l-0.82-2.93l-7.65-6.1l-1.84-0.19l-6.28,1.83L84.38,496.64z M57.83,449.8l-1.32,0.84l0.09,4.311l2.64,4.1l1.41,0.74l6.95-0.21
		l0.09-9.46L57.83,449.8z"/>
	<path id="SY-HL" fill="#1E3250" stroke="#1E3250" stroke-width="0.5" d="M148.11,216.04l-4.54-1.89l-1.87-2.08l-2.49-1.04
		l-2.03-3.39l-1.48-0.34l-0.14-3.36l-1.67-2.18l-1.65-5.59l3.98-3.19l0.41-3.06l-3.73-2.59l-1.92-2.5l-3.87-0.97l-3.23-4.01
		l-0.44-2.63l-7.77-11.83l-0.35-6.21l-0.72-1.93l-12.04-6.15l-0.71-2.46l-1.78-1.59l-0.47-1.15l0.8-1.52l3.84-2.81l6.36-6.63
		l0.77-1.59l-0.41-1.7l-3.4-4.4l-2.66-1.96l-0.53-3.12l-1.01-1.19l-1.34,0.14l-2.31,2.2l-2.77-0.47l-2.87,0.57l0,0l0.02-1.46
		L93.12,121l-5.09,0.5l1.97-2.96l-0.74-2.53l0.23-1.99l-3.3-0.81l-3.58-12.12l2.02-1.85l1.77-3.11l1.27-5.08l-1.6-6.31l0.39-2.39
		l4.44-6.75l-0.18-2.81l-1.09-2.34l0.87-2.35l4.48-5.51l-0.97-3.08l0.71-1.15l0.96,1.33l5.31,1.3l6.43,3.15l9.73,2.56l4.11-0.44
		l4.39,2.36l3.07,3.07l3.57,1.57l0.06,1.41l-2.83,6.39l2.02,0.91l4.2,3.62l1.24-0.41l1.81-3.97l2.26-0.47l3.97,1.18l4.01-1.2
		l4.03-0.189l20.35,3.3l2.92-1.38l3.19-3.32l11.92-6.75l7.08-2.14l6.36,0.03l11.53-4.55l6.77-3.99l6.35-1.28l2.93-3.68l12.22-5.95
		l3.57,0.13l2.21-0.93l14.38,2l5.02,1.89l11.26,5.28l6.66,6.97l0,0l0.19,3.87l1.65,7.22l-0.41,1.98l-0.96,0.71l-5.87,0.82
		l-0.66,0.99l0.77,3.91l1.34,1.4l1.75-0.34l4.42-3.41l1.24,0.48l0.46,1.12l-0.19,10.07l-1.48,8.39l-1.73,5.71l-2.33,3.53l-3.62,4.27
		l-6.14,4.41l-9.47,5.22l-9.49,1.89l-13.09,1.11l-6.82,4.72l-5.84,10.31l-0.36,3.69l0.66,4.53l5.79,6.62l1.51,2.63l4.33,3.51
		l0.11,1.22l-2.28,5.76l-6.55,8.29l-2.47,4.55l-2.66,8.21l-1.59,7.63l-0.33,5.65l7.54,9.6L248.67,230l0,0l-18.29,0.85l-22.55-0.6
		l-11.19-1.48l-4.91-2.14l-8.89-6.14l-16.59,1.68l-5.13-0.2l-5.7-3.59L148.11,216.04z"/>
	<path id="SY-RA" fill="#1E3250" stroke="#1E3250" stroke-width="0.5" d="M255.27,236.45l-1.61-2.58l-4.99-3.87l0,0l-13.47-13.57
		l-7.54-9.6l0.33-5.65l1.59-7.63l2.66-8.21l2.47-4.55l6.55-8.29l2.28-5.76l-0.11-1.22l-4.33-3.51l-1.51-2.63l-5.79-6.62l-0.66-4.53
		l0.36-3.69l5.84-10.31l6.82-4.72l13.09-1.11l9.49-1.89l9.47-5.22l6.14-4.41l3.62-4.27l2.33-3.53l1.73-5.71l1.48-8.39l0.19-10.07
		l-0.46-1.12L290,83.31l-4.42,3.41l-1.75,0.34l-1.34-1.4l-0.77-3.91l0.66-0.99l5.87-0.82l0.96-0.71l0.41-1.98l-1.65-7.22l-0.19-3.87
		l0,0l9.16,8.79l5.31,1.37l13.91,0.21l10.07-0.71l6.44,0.76l14.01,3.94l11.6-3.01l9.31-0.7l0,0l2.97,8.68l5.78,7.55l3.95,1.46
		l5.49-1.25l12.15,4.96l4.66,3.5l1.061,3.47l0,0l-18.34,82.11l5.73,2.43l-42.92,62.74l0,0l-11.55-4.53l-10.42-1.91l-12.04-4.15
		l-21.2-4.28l-22.44-2.18l-8.36,0.07L255.27,236.45z"/>
	<path id="SY-LA" fill="#1E3250" stroke="#1E3250" stroke-width="0.5" d="M16.57,228.15l-7.16-5.93l-2.53-0.77l-0.74,1.31
		l-1.59-1.21l0.96-3.73l-1.07-1.14l-0.49,0.27l-0.05-0.93l-2.28-1.15l1.26-1.51l-0.35-1.04l-2.12,0.4L0,211.92l2.47-0.91l0.82,0.51
		l0.85-0.54l0.58-2.05l1.09,0.23l-0.3-1.11l1.24-1.94l-0.69-2.16l-0.96-0.63l0.06-1.75l1.26-1.31l1.7-0.4l0.66-1.85l2.47-1.79
		l0.38-2.75l1.07-0.61l-0.63-5.05l-1.78-3.36l-0.06-1.92l-1.32-0.88l0.53-1.58l-1.1-0.78l1.31-0.33l1.46,0.97l1.7-0.1l1.87-1.88
		l0.82-0.04l2.11-5.93l2.36-2.09l1.71,1.66l6.49-2.7l2.11,1.99l-0.79,4.2l0.37,1.07l9.66,1.89l1.74,1.24l1.38,2.62l0,0l0.55,2.62
		l-0.44,1.73l1.39,1.42l6.67-1.15l3.84-0.2l1.67,0.57l-0.24,2.6l-2.9,1.84l0,0l-1.88,1.45l-0.27,4.75l-0.8,0.9l-2.14,0.54
		l-0.68,1.65l2,3.39l0.77,5.45l-0.36,8.29l-2,13.11l2.36,7.16l0.08,2.92l2.41,9.07l0.3,5.61l0,0l-4.38-2.35l-4.41,2.02l-9.73,0.29
		l-3.38,0.85l-5.63-3.98l-4.05-0.94l0,0l-0.87-0.58l-0.36-1.74l0.05-12.55l-0.98-3.75l0.4-0.61L16.57,228.15z"/>
	<path id="SY-HM" fill="#1E3250" stroke="#1E3250" stroke-width="0.5" d="M53.18,191.29l0.67,1.22l1.9,1.01l1.86-0.07l2.11-1.14
		l1.46,0.33l1.09,3.13l0.74,0.44l5.79,0.44l0.11,3.32l-2.25,11.8l1.18,8.82l-1.04,1.71l1.67,3.16l1.07,4.15l1.1,1.11l2.58-0.5
		l2.66-1.71l3.01,1.54l2.12,3.32l3.92,0.03l9.68,2.14l4.22-0.3l2.5-1.27l8.56-1.78l3.76,3.02l0.85,1.84l2.6,2.44l4.28-0.87
		l1.21-2.91l4.25-4.76l1.42,3.35l-1.34,3.96l0.71,5.35l1.59,0.77l5.68-0.23l1.13-0.47l2.22-2.95l2.66,0.1l-0.06-5.39l-0.68-1.94
		l-1.21-0.27l-2.17,2.98l-2.44-0.6l0.03-1.98l2.58-5.66l5.26-2.78l3.73-8.12l2.16-1.03l0,0l0,0l0,0l7.31,2.34l5.7,3.59l5.13,0.2
		l16.59-1.68l8.89,6.14l4.91,2.14l11.19,1.48l22.55,0.6l18.29-0.85l0,0l4.99,3.87l1.61,2.58l0,0l-0.24,16.06l-1.62,4.34l-4.03,6.99
		l-0.44,3.07l0.55,4.97l-6.86,2.6l-9.51,4.87l-2.39,2.57l-0.22,1.73l-2,3.6l-0.93,4.7l-3.02,2.73l-0.96-0.43l-4.99-6.76l-7.76-6.54
		l-1.13-5.67l-2.25-3.47l-3.86-0.66l-3.9-3.01l-13.22,3.67l-3.02,0.21l-6.14,4.06l-1.26,2.07l-0.17,5.27l0.61,2.37l-1.02,1.23
		l-1.34-0.17l-2.36-2.86l-5.32,0.03l-2.74,1.63l-3.29-1.43l-0.88,0.77l-0.19,1.86l-3.79-0.33l-2.44,5.56l-1.62,1.4l-2.74-1.03
		l-1.92-3l-2.03-0.33l-2.74,1.1l-0.91,2.69l-2.93-1.73h-1.4l-1.73,2.17l-3.26,0.46l-6.81,5.26l-1.26-0.23l-0.41-2.3l-4.14-6.56
		l-1.21-3.43l-3.29-1.5l-1.34,0.03l-2.28,1.54l-2.58,0.17l-2,1.79l-3.67-0.2l-1.32,0.64l-1.1-0.47l-1.78,1.53l-4.39,1.27l-2.17,1.56
		l-3.04,0.4l-2.8-0.8l-3.73,1.77l-1.31-0.3l-0.58-2.13l-1.84-0.53l0.69-2.8l-2.2-0.63l-1.18,0.76l-1.15,2.4l-2.19,1.63l-1.35,5.89
		l-1.92,2.2l-1.78-1.2h-1.31l-1.62-1.93l-2.77,2.66l-0.85,0.07l-0.58-2.53l-2.3-0.7l1.45-1.56l-0.78-1.4l0,0l-3.83-3.43l-1.79-5.01
		l-5.77,0.77l-4.64-0.72l-1.51-2.27l0.68-2.03l2.8,0.26l3.9-1.96l1.93-0.12l2.59-2.35l1.07-4.4l-1.43-17.34l0,0l-0.3-5.61
		l-2.41-9.07l-0.08-2.92l-2.36-7.16l2-13.11l0.36-8.29l-0.77-5.45l-2-3.39l0.68-1.65l2.14-0.54l0.8-0.9l0.27-4.75L53.18,191.29z"/>
	<path id="SY-HI" fill="#1E3250" stroke="#1E3250" stroke-width="0.5" d="M420.56,408.66L304.89,475.87l-47.65,29.57l0,0l-4.37-4.2
		l-23.37-17.73l-9.41-8.92l-10.31-7.09l-8.61-2.52l-10.7-7.671l-6.09-8.05l-3.84-9.479l-4.91-4.95l-7.4-5.59l-6.72-7.221l-3.41-2.3
		l-6.33-11.479l-0.85-0.79l-4.23,0.29l-1.92-0.521l-13.22-7.87l-8.31-13.149l-9.62-11.82l-2.44,0.53l-5.79,2.91l-5.4-0.17l-4.2-2.08
		l-3.4,0.13l-1.75,1.04l0,0l-2.61-1.25l-0.75-1.351L86.42,370l1.89-2.76l-0.21-1.8l-3.46-1.221l-2.95-6.79l0.17-1.199l2.31-3.04
		l-0.62-1.37l-3.56-1.46l-0.85-1.801l-3.75-1.909l-1.95-4.69l-3.13,0.19L69.16,343l-2.83-1.04l-1.45,1l-1.92-0.84l-0.82-1.32
		l0.47-1.479l6.09-3.16l-0.19-3.03l1.34-3.85l2.28,1.91l1.67-0.16l0.75-4.33l-1.05-0.21l-2.14,1.17l-1.84-0.3l-5.61-4.25l0.06-1.04
		l-1.81-2.431l-1.41-0.26l-0.95,1.12l-0.51,3.55l-2.19,2.03l-4.36-0.32l-1.76,0.76l-2.49-1.47l-2.92,0.8l-4.06-1.119l-2.37,0.539
		l0,0l0.32-2.539l6-9.931l0.77-2.49l1.32-0.899l1.15-2.391l2.11-0.93l0.9-1.83l3.38-2.96l-0.14-3.66l0.66-1.8l3.36-1.66l0,0
		l0.78,1.4l-1.45,1.56l2.3,0.7l0.58,2.53l0.85-0.07l2.77-2.66l1.62,1.93h1.31l1.78,1.2l1.92-2.2l1.35-5.89l2.19-1.63l1.15-2.4
		l1.18-0.76l2.2,0.63l-0.69,2.8l1.84,0.53l0.58,2.13l1.31,0.3l3.73-1.77l2.8,0.8l3.04-0.4l2.17-1.56l4.39-1.27l1.78-1.53l1.1,0.47
		l1.32-0.64l3.67,0.2l2-1.79l2.58-0.17l2.28-1.54l1.34-0.03l3.29,1.5l1.21,3.43l4.14,6.56l0.41,2.3l1.26,0.23l6.81-5.26l3.26-0.46
		l1.73-2.17h1.4l2.93,1.73l0.91-2.69l2.74-1.1l2.03,0.33l1.92,3l2.74,1.03l1.62-1.4l2.44-5.56l3.79,0.33l0.19-1.86l0.88-0.77
		l3.29,1.43l2.74-1.63l5.32-0.03l2.36,2.86l1.34,0.17l1.02-1.23l-0.61-2.37l0.17-5.27l1.26-2.07l6.14-4.06l3.02-0.21l13.22-3.67
		l3.9,3.01l3.86,0.66l2.25,3.47l1.13,5.67l7.76,6.54l4.99,6.76l0.96,0.43l3.02-2.73l0.93-4.7l2-3.6l0.22-1.73l2.39-2.57l9.51-4.87
		l6.86-2.6l-0.55-4.97l0.44-3.07l4.03-6.99l1.62-4.34l0.24-16.06l0,0l6.84-0.97l8.36-0.07l22.44,2.18l21.2,4.28l12.04,4.15
		l10.42,1.91l11.55,4.53l0,0l11.66,9.07l8.22,17.26l-1.04,9.56l56.01,80.14l18.88,28.06l0,0L420.56,408.66z"/>
	<path id="SY-TA" fill="#1E3250" stroke="#1E3250" stroke-width="0.5" d="M21.37,314.18l-0.6-5.92l-5.26-13.47l-1.48-0.4l-0.41-1.17
		l0.52,1.07l1.15,0.2l-0.82-1.33l1.67-1.2L16,287.94l-0.71-1.73l0.44,0.33l0.22-2.83l2.03-2.23l-1.26-5.4l0.66-3.26l-0.47-3.24
		l0.82-1.44l0.96-0.16l1.07-3.48l1.1-0.87l-0.36-2l2.9-2.54l-0.49-4.01l-1.51-3.59l0,0l4.04,0.94l5.63,3.97l3.38-0.84l9.73-0.29
		l4.41-2.03l4.38,2.36l0,0l1.44,17.33l-1.07,4.4l-2.59,2.35l-1.93,0.11l-3.89,1.97l-2.8-0.27l-0.69,2.03l1.51,2.27l4.64,0.73
		l5.77-0.77l1.8,5.01l3.83,3.43l0,0l-3.36,1.66l-0.66,1.8l0.14,3.66l-3.37,2.96l-0.91,1.83l-2.11,0.94l-1.15,2.39l-1.31,0.891
		l-0.77,2.5l-6,9.93l-0.32,2.53l0,0l-2.75,0.77L31.68,326l-1.64-1.5l-2.73-0.79l-2.18,1.31L21.37,314.18z"/>
	<path id="SY-DI" fill="#1E3250" stroke="#1E3250" stroke-width="0.5" d="M59.24,459.06l-2.64-4.1l-0.09-4.31l1.32-0.851l9.86,0.32
		l-0.09,9.46l-6.95,0.21L59.24,459.06z"/>
	<path id="SY-QU" fill="#1E3250" stroke="#1E3250" stroke-width="0.5" d="M15.37,482.82l2.2,1.279l-0.91,2.03l3.35,3.36l4.08,0.49
		l0.14,5.55l0,0l-0.99,5.31l2.55,2.29l0.36,1.23l-2.8,5.54l-0.68,6.359l3.84,6.34l0.35,2.311l-0.52,0.75l-1.56-1.891l-3.29,0.36
		l0.85,5.601l-2.87,2.739l0,0l0.82-2.55l-2.05-3.2l-1.57-15.22l0.65-0.95l1.97,0.53l1.64-0.45l-1.32-2.7l1.77-1.89l0.23-3.07
		l-2.08-3.01l-2.92-0.79l-0.2-1.27l1.77-3.48l-0.79-3.77l-3.16-3.58l1.14-1.94V482.82z"/>
	<path id="SY-DR" fill="#1E3250" stroke="#1E3250" stroke-width="0.5" d="M65.49,588.97l-4.24-4.33l-12.93-9.979l-2.69,1.17
		l-4.4-0.65l-4.25,0.7l-2.01-6.75l-3.51-3.649l0.14-5.511l-1.63-0.89l-2.58,0.06l-2-1.13l0.92-2.279l-3.07-1.49l-1.46-2.42
		l-3.51-0.08l-2.26-1.271l-4.28,0.78l-1.78-1.23l-0.93,0.131l0.1-1.73l7.11-9.64l3.24-6.311l0,0l2.87-2.739l-0.85-5.601l3.29-0.36
		l1.56,1.891l0.52-0.75l-0.35-2.311l-3.84-6.34l0.68-6.359l2.8-5.54l-0.36-1.23l-2.55-2.29l0.99-5.31l0,0l2.53,0.979l1.01,1.95
		l2.63,0.3l6.04-3.399l5.46,0.46l3.48-1.601l3.02-0.489l1.94-3.69l-0.38-3.81l1.26-0.851l3.81,3.75l0.63,2.32l3.07,0.72l3,3.45
		l3.53,0.82l1.02-0.62l0.63-2.641l1.92-1.859l9.35-6.561l2.14,4.01l3.43,3.891l0.63,3.979l0,0l0,0l0,0l-2.19,1.33l-3.82-0.58
		l-2.77,2.12l-1.15,2.38l0.16,3.811l1.38,3.72l0.27,3.19l0.93,0.649l3.3-0.39l0.41,3.58l1.12,2.64l-10.59,0.13l-2.35,0.88
		l-7.05,5.301l0.27,3.029l-1.1,2.92l0.91,4.42l1.84,3.511l-1.1,2.41l1.62,7.72l-1.37,1.63l0.19,3.3l4.14,1.72l3.89,0.431l1.18,1.52
		l-0.41,2.24l-4.82,2.98l0.9,2.56l-0.85,2.85l2.8,0.71l3.34-0.29L75,570.49l1.89-0.23l1.35,1.59l-1.51,3.49l3.34,4.601L79,585.83
		l0.52,4.01l-0.81,4.811l0,0l-3.28-1.94l-6.96-1.03L65.49,588.97z"/>
	<path id="SY-SU" fill="#1E3250" stroke="#1E3250" stroke-width="0.5" d="M84.38,496.64l16.7-1.93l6.28-1.83l1.84,0.2l7.65,6.1
		l0.83,2.94l4.11,4.27l0.63,3.38l1.37,1.601l1.65,0.78l5.92,0.59l3.07,1.27l2.64,1.95l0.16,2.48l2.88,4.619l4.94,2.631l1.45,0.229
		l2.53-1.75l2.46,1.04l2.09,2.76l0.77,6.761l0.96,1.729l11.52,10.71l2.33,3.021l3.56,2.109l3.52,4.21l0,0l-53.81,34.17l-10.9,9.11
		l-2.02,0.21l-8.58-2.52l-2.49,0.829l-2.09-1.619l-2.14-0.37l-15.5-1.67l0,0l0.81-4.811L79,585.83l1.07-5.89l-3.34-4.601l1.51-3.49
		l-1.35-1.59L75,570.49l-1.54-1.431l-3.34,0.29l-2.8-0.71l0.85-2.85l-0.9-2.56l4.82-2.98l0.41-2.24l-1.18-1.52l-3.89-0.431
		l-4.14-1.72l-0.19-3.3l1.37-1.63l-1.62-7.72l1.1-2.41l-1.84-3.511l-0.91-4.42l1.1-2.92l-0.27-3.029l7.05-5.301l2.35-0.88
		l10.59-0.13l-1.12-2.64l-0.41-3.58l-3.3,0.39l-0.93-0.649l-0.27-3.19l-1.38-3.72l-0.16-3.811l1.15-2.38l2.77-2.12l3.82,0.58
		L84.38,496.64z"/>
</g>
</svg>
