<?xml version="1.0" encoding="utf-8"?>
<!-- Generator: Adobe Illustrator 15.0.0, SVG Export Plug-In . SVG Version: 6.00 Build 0)  -->
<!DOCTYPE svg PUBLIC "-//W3C//DTD SVG 1.1//EN" "http://www.w3.org/Graphics/SVG/1.1/DTD/svg11.dtd">
<svg version="1.1" id="Layer_1" xmlns:amcharts="http://amcharts.com/ammap"
	 xmlns="http://www.w3.org/2000/svg" xmlns:xlink="http://www.w3.org/1999/xlink" x="0px" y="0px" width="303.5px" height="631.5px"
	 viewBox="0 0 303.5 631.5" enable-background="new 0 0 303.5 631.5" xml:space="preserve">
<defs>
	
	
		<amcharts:ammap  projection="mercator" leftLongitude="7.529403" topLatitude="37.346338" bottomLatitude="30.236031" rightLongitude="11.598979">
		</amcharts:ammap>
</defs>
<g>
	<path id="TN-11" fill="#1E3250" stroke="#1E3250" stroke-width="0.5" d="M187.977,52.438l2.9,2.553l3.17,0.939l0.175,0.578
		l-0.29,0.577l0.405,0.987l1.992,1.42l0.271,0.674l-0.967,0.457l-0.058,0.626l-0.851,0.818l-0.038,0.866l-0.407,0.12l-0.386,1.01
		l-0.773,0.793l0.463,0.505l-0.173,0.217l-1.118-0.703l-0.912,0.005l1.855-1.057l-0.947-0.433l-0.135-0.577l-0.715-0.337
		l-1.731-0.333l-1.823,0.41l-0.438,0.45l-1.294-0.182l-1.03,0.754l-0.676,0.936l-0.016,0.826l0.744,1.235l0.831-0.225l0.058,0.817
		l-0.425,0.313l0.729,0.433l0,0l-0.015,1.582l-0.722,0.904l-2.186,0.411l-2.512-0.419l-1.574,2.273l-1.505,0.481l-3.045-0.426l0,0
		l-0.184-1.938l-0.402-0.591l-1.42-0.535l-0.9-2.869l-1.053-0.838l0.189-0.57l1.255-0.45l2.649,0.265l1.06-1.074l1.486-0.489l0,0
		l1.48-1.505l0.784-1.43l1.136-0.202l2.161,1.135l1.461-0.482l1.473,0.093l-0.025-0.59l1.199-1.12l0.5,0.909l3.192,0.172
		l0.551-0.709l-0.914-0.901l0.983-2.105l-0.448-0.409l-0.069-0.773l-1.668-1.296l-1.346-1.976l0,0H187.977z"/>
	<path id="TN-12" fill="#1E3250" stroke="#1E3250" stroke-width="0.5" d="M169.833,54.63l1.567-1.148l-0.507-0.727l1.025-2.648
		l0.099-1.184l2.01-1.568l1.898-3.771l0.034-2.773l-0.568-1.253l0.295-0.574l0.684,0.247l1.331-1.366l1.675-0.8l2.511,0.287l0,0
		l1.469,0.785l0.889-0.048l0.812,1.086l1.604,0.048l0.02,0.338l-2.126,2.244L183.705,44l0.464,1.665l0.986,1.519l0.29,2.122
		l1.179,1.904l1.315,1.229l0,0l1.346,1.977l1.668,1.296l0.069,0.773l0.448,0.408l-0.983,2.105l0.914,0.902l-0.552,0.708
		l-3.191-0.172l-0.5-0.909l-1.199,1.119l0.025,0.591l-1.474-0.094l-1.461,0.482l-2.161-1.134l-1.136,0.202l-0.784,1.43l-1.48,1.505
		l0,0l-1.757-1.315L173.8,58.2l-1.726,1.312l-2.065,0.244l-0.334,0.353l-0.049,1.055l-2.435-0.535l0.587-0.512l0.127-0.754
		l1.062-0.371l0.663-0.79l0.782-2.407L169.833,54.63z"/>
	<path id="TN-13" fill="#1E3250" stroke="#1E3250" stroke-width="0.5" d="M192.208,65.521l0.35,0.328l-1.043,0.859l0.116,0.745
		l1.972,2.931l1.778,1.49l3.335,1.393l0,0l-0.481,2.193l-0.885,0.53l-0.972,3.99l-1.65,2.222l0.147,0.461l1.52,0.149l0.546,0.442
		l0.074,0.714l-2.25,5.828l1.827,0.281l0.236,0.339l-1.796,0.951l0,0l-3.077,1.283l-2.544,1.886l-1.309,0.386l0.654-4.5
		l-2.402-0.196l-1.668-1.352l-1.446-0.638l-2.638-4.661l-6.099-2.115l-2.285,0.253l-0.739-0.378l-1.547-3.434l0,0l3.423-3.092
		l1.453-2.093l0,0l3.045,0.426l1.505-0.481l1.574-2.273l2.512,0.419l2.186-0.411l0.722-0.904l0.015-1.582l0,0h0.605l0.947-0.626
		l-0.58,0.097l0.232-0.529l0.618,0.12l0.909,1.442l0.503,0.457l0.561-0.024l0.541-0.842l-0.136-1.61l-0.599-0.769l0.561-0.241
		l0.666,0.41l0.146,0.504l0.348-0.736L192.208,65.521z"/>
	<path id="TN-14" fill="#1E3250" stroke="#1E3250" stroke-width="0.5" d="M141.051,61.564l1.558-2.077l1.075-0.647l1.451,0.08
		l0.497,0.873l1.862-2.11l2.01-0.391l1.074-0.99l1.587,0.408l1.699-0.55l0.559-0.563l0.844-2.199l1.132-1.199l0.199-1.336
		l0.575-0.547l1.681,1.142l3.32-0.049l3.383,0.865l0.506,0.382l1.331,2.496l2.439-0.522l0,0l0.58,1.164l-0.782,2.407l-0.663,0.79
		l-1.063,0.371l-0.127,0.754l-0.587,0.512l2.435,0.535l0.049-1.055l0.334-0.353l2.065-0.243L173.8,58.2l1.93,4.112l1.758,1.315l0,0
		l-1.486,0.489l-1.06,1.074l-2.649-0.265l-1.255,0.45l-0.189,0.57l1.053,0.838l0.9,2.869l1.42,0.535l0.402,0.591l0.184,1.938l0,0
		l-1.453,2.093l-3.423,3.092l0,0l-0.656-0.726l-1.51-0.785l-0.855,0.176l-1.143,1.596l-1.35,4.119l-0.512,0.707l-0.615,0.769
		l-0.839,0.384l-1.301-0.039l0,0l-3.203-5.557l-1.366-1.203l-1.106-2.055l-0.517-2.141l0.16-2.525l-0.915,0.224l-0.704,0.652
		l-1.08-0.057l-4.116-3.084l-2.073-0.427l-1.352-0.709l-1.174-2.52l-0.84,0.373l-0.312-0.174l0.121-1.302L141.051,61.564z"/>
	<path id="TN-21" fill="#1E3250" stroke="#1E3250" stroke-width="0.5" d="M235.787,79.095l-4.505,8.516l-1.624,4.791l-1.141,1.7
		l-0.134,1.417l-1.219,0.569l-1.933,0.192l-1.218,0.742l-1.16-0.12l-2.417,0.933l-1.604,0.885l-1.276,1.435l-2.688,1.052
		l-0.309,0.072l-0.097-0.455l-0.715-0.478l-1.817,0.406l-1.392,1.172l-1.276,1.841l0,0l-3.131-3.675l-0.544-0.145l-0.883,1.077
		l-0.265,1.309l-0.588,0.496l-0.529-0.025l-2.279-2.283l-4.445,0.524l0,0l-0.776-0.505l-0.885-1.983l0.45-5.848l-0.354-1.34l0,0
		l1.795-0.951l-0.236-0.339l-1.827-0.28l2.25-5.829l-0.074-0.714l-0.546-0.442l-1.519-0.149l-0.147-0.461l1.65-2.221l0.972-3.99
		l0.885-0.53l0.481-2.194l0,0l1.866,0.216l3.383-1.104l0.812-0.816l1.604,1.249l0.909-0.384l0.193-0.624l-0.966-0.145l0.097,0.313
		l-0.309,0.144l-1.083-0.769l3.287-1.153l1.585-1.417l0.348-2.019l0.502-0.36l0.522-2.116l0.02-1.467l0.889-1.035l0.348-1.299
		l0.773-0.048l0.986-0.722l-0.271-0.842l1.122,0.602l1.953-0.361l0.483-0.385l0.851,0.602l2.01-0.073l2.861-1.275l1.257-0.77
		l1.991-2.36l2.204-1.301l2.958-2.674l0.6-0.145l-0.02-0.723l1.566-0.94l-0.097-0.41l0.619-0.482h0.754l-0.039-1.422l-0.677-0.434
		l0.058-0.362l0.116-0.482l-0.097-0.554l0.329-0.893l0.464,0.651l1.895-0.651l1.431-0.097l0.754,0.482l4.466-2.316l-0.058-1.062
		l1.682,1.496l0.097,0.724l0.909,0.917l0.232,0.892L245.9,45.16l-0.271,0.53l-0.078,2.17L247,50.39l0.928,1.205l0.386,0.868
		l0.812,5.201l1.836,2.07l-1.333,3.464l-1.295-0.241l-3.055,2.044l-2.185,2.139l-3.577,5.262L235.787,79.095z"/>
	<path id="TN-22" fill="#1E3250" stroke="#1E3250" stroke-width="0.5" d="M169.932,77.901l1.547,3.434l0.739,0.378l2.285-0.253
		l6.099,2.115l2.638,4.661l1.446,0.638l1.668,1.352l2.402,0.196l-0.654,4.5l1.309-0.386l2.544-1.886l3.077-1.283l0,0l0.354,1.34
		l-0.45,5.848l0.885,1.983l0.776,0.505l0,0l-0.377,2.313l0.912,1.611l0.283,3.352l-1.837,1.086l0.206,0.399l1.264,0.388l0.324,1.229
		l-1.364,1.466l-2.481,0.425l-2.467-0.568l-1.321,0.295l-0.498,0.718l0.415,2.204l-1.136,3.911l-2.752,1.281l0,0l-0.809-0.132
		l-1.421,0.432l-2.916-0.247l-0.366,0.967l0.544,0.66l-0.027,0.947l-0.667,2.008l-1.769,1.324l-1.728-0.068l-1.179-1.421
		l-0.672,0.439l-0.099,0.638l0.694,1.396l-0.539,1.014l0.066,1.552l-0.828,1.801l-0.847,0.322l-1.673-0.778l-0.929-1.569l-2.07-0.89
		l-3.85,0.29l-1.677-1.233l-0.815-1.572l-2.805-0.92l-2.044,1.053l-0.93,1.168l-3.485-1.084l0,0l-0.245-0.085l0.272-0.997
		l2.034-4.49l0.343-1.295l-0.153-0.901l-0.635-0.524l-3.102-0.943l-1.237-2.441l-1.901-0.977l-1.726,0.667l-0.436-2.945
		l-1.487-0.435l-1.265-1.863l0.717-0.308l1.648,0.253l2.082-0.495l3.65-3.015l1.16-2.275l0.716-2.553l0.47-4.198l-0.402-2.065l0,0
		l-1.364-1.923l0.288-0.794l3.084-1.492l2.108-4.187l2.858-2.575l0.747-0.293l0,0l1.301,0.039l0.839-0.384l0.615-0.769l0.512-0.707
		l1.35-4.119l1.143-1.596l0.855-0.176l1.51,0.785L169.932,77.901z"/>
	<path id="TN-23" fill="#1E3250" stroke="#1E3250" stroke-width="0.5" d="M154.125,18.672l0.831,0.218l0.812,1.113l1.257,0.291
		l1.778,0.048l0.348-0.654l1.256-0.145l2.146,0.315l0.174,2.565l0.734,2.613l-0.963,0.647l-0.371,0.707l-1.237,0.314v0.508
		l-0.561,0.169l-0.522,0.193l-0.464-0.024l-0.657,0.145l-0.406,0.339l-1.488,0.145l-0.217,0.941l0.313,0.05l1.079-0.767l0.68-0.007
		l-0.715,1.427l-0.928,0.29l-1.314-0.87l-0.542,0.242l1.238,0.87l-0.213,0.871l0.425-0.024l0.426-0.604l-0.29,2.417l1.74,1.281
		l0.251,0.604l-0.29,1.039l0.58,0.604l3.499,0.458l1.45-1.255l1.895-0.676l0.947-1.643l0.754-2.948l-0.464-1.233l-2.552,0.048
		l-2.281-0.725l-1.314,0.218l-0.561,0.58l-0.928-0.145l0.097-0.58l0.503,0.121l0.657-0.435l-0.155-0.532l1.779-0.653l0.58-1.258
		l0.734-0.629l0.891,0.238l0.037,0.609l1.179,0.483l4.601,0.702l2.629-0.436l3.828-1.621l-0.058,0.992l1.237,1.668l2.417,0.217
		l2.204,0.919l0.832,0.822l2.977,1.716l0.058,0.58l0.638,0.532h2.3l2.088,0.435l-0.02,0.266l-0.619-0.024l-1.604,0.773l-1.199,0.024
		l-0.135,0.459l-0.542,0.749l-0.174-1.305l-4.659,0.314l-1.199,2.005l0.522,0.978l0,0l-2.511-0.287l-1.675,0.8l-1.331,1.366
		l-0.684-0.247l-0.295,0.574l0.568,1.253l-0.034,2.773l-1.898,3.771l-2.01,1.568l-0.099,1.184l-1.025,2.648l0.507,0.727
		l-1.567,1.148l0,0l-2.439,0.522l-1.332-2.496l-0.505-0.382l-3.383-0.866l-3.319,0.05l-1.682-1.143l-0.575,0.547l-0.199,1.336
		l-1.132,1.199l-0.844,2.199l-0.559,0.563l-1.699,0.55l-1.587-0.408l-1.073,0.99l-2.011,0.392l-1.862,2.11l-0.497-0.873
		l-1.451-0.081l-1.075,0.647l-1.558,2.077l0,0l-5.089,5.41l-2.393,1.643l-2.459,2.286l-1.401,0.296l-0.859-0.223l-0.524-0.601
		l-0.694,0.088l-1.179-3.726l2.12-4.958l-0.26-0.728l-1.814-2.148l-2.976-0.015l-1.965-2.144l-2.031-1.409l-0.303-2.942
		l-2.227-2.664l-0.423-4.126l-1.714-2.961l-2.505,0.219l-2.224,1.234l-1.707-0.022l-0.841-3.909l0.021-0.662l1.276-2.204L109,36.483
		l-0.587-1.515l0,0l2.521-0.314l0.212-0.628l2.088-1.377l2.281-3.36l1.798-1.451l0.599,1.113l-0.039,0.846l2.3,0.242l2.707-1.402
		l3.016-0.242l2.9-1.596l0.851-0.943l1.643-0.604l2.572,0.581l2.339-0.677l2.919-2.202l2.146-0.798l0.87,0.919l1.373-0.266
		l2.165-1.186l3.016-2.299l1.295,0.218l0.483-0.315l1.043,0.436L154.125,18.672z"/>
	<path id="TN-31" fill="#1E3250" stroke="#1E3250" stroke-width="0.5" d="M108.415,34.973l0.587,1.515l-0.123,0.812l-1.276,2.204
		l-0.02,0.662l0.841,3.909l1.706,0.022l2.224-1.234l2.505-0.219l1.715,2.961l0.423,4.126l2.227,2.664l0.302,2.942l2.032,1.409
		l1.964,2.144l2.976,0.015l1.815,2.147l0.259,0.729l-2.119,4.957l1.179,3.726l0.694-0.088l0.524,0.601l0.858,0.223l1.401-0.296
		l2.46-2.286l2.393-1.643l5.089-5.411l0,0l1.623,2.033l-0.121,1.302l0.312,0.174l0.84-0.373l1.174,2.52l1.352,0.709l2.073,0.427
		l4.116,3.084l1.08,0.057l0.704-0.652l0.915-0.224l-0.16,2.525l0.517,2.141l1.106,2.055l1.366,1.203l3.203,5.557l0,0l-0.747,0.293
		l-2.858,2.575l-2.108,4.187l-3.084,1.492l-0.288,0.794l1.364,1.923l0,0l-0.431,0.769l-1.25,0.214l-2.947-0.354l-0.669,1.052
		l0.02,0.609L147.111,98l-0.726-0.552l-2.383,0.159l-1.577-0.3l-1.385-1.79l-2.091-1.628l-1.907,0.748l-3.36-0.309l-3.353,0.421
		l-2.537,0.912l-0.757,0.847l-0.131,4.033l-0.741,0.802l-2.65,1.154l-1.543-1.158l-0.718-0.995l-2.745-0.716l-3.314-0.256
		l-2.144,1.473l-2.431,0.826l-0.724-0.281l-1.029-1.002l-0.721-0.013l0.064-1.682l-1.535-1.393l-0.49-1.342l-0.625-0.462
		l-2.24-0.111l-0.944-1.138l0,0l3.523-0.752l0.097-3.559l1.694-3.152l0.166-3.982l-2.934-4.003l-0.839-1.905l0.218-2.183
		l1.146-2.519l-1.754-3.752l-1.712-0.841l-4.692-0.336l-0.23-0.473l0.589-3.944l2.769-1.906l1.127-1.836l0.34-1.938l-3.632-2.204
		l-0.692-1.659l0.018-0.764l1.199-1.976l0.081-1.499l-3.174-2.317l0,0l3.383-3.277l0.581-1.375l1.527-1.931l0.019-0.313
		l-0.464-0.194l1.817-0.917l1.702-2.1l0.773-0.097l0.793-0.725l1.662-0.724L108.415,34.973z"/>
	<path id="TN-32" fill="#1E3250" stroke="#1E3250" stroke-width="0.5" d="M95.682,46.747l3.174,2.317l-0.081,1.499l-1.199,1.976
		l-0.018,0.764l0.692,1.659l3.632,2.204l-0.34,1.938l-1.127,1.836l-2.769,1.906l-0.589,3.944l0.23,0.473l4.692,0.336l1.712,0.841
		l1.754,3.752l-1.146,2.519l-0.218,2.183l0.839,1.905l2.934,4.003l-0.166,3.982l-1.694,3.152l-0.097,3.559l-3.523,0.752l0,0
		l-4.528,0.524l-0.879,0.602l0,0l-1.643,1.914l-1.667,0.71l-1.766-0.016l-1.155,0.476l-7.515,1.175l-4.602-1.394l-3.896,1.757
		l-3.506-0.215l-2.243,1.922l-2.52,0.489l-2.346,1.821l-4.067-0.473l0,0l0.447-0.705l-0.13-2.141l0.894-0.973l-0.144-0.944
		l-2.282-0.504l-1.461-1.557l-0.749,0.944l-1.067,0.264l-0.296-0.396l-1.027,0.221l0.209-0.359l-0.238-0.362l-1.684-0.357
		l-1.571,0.633l-0.863-0.659l-2.699-0.08l-1.2-1.197l-1.686-0.156l-0.612-1.327l0.028-1.101l-0.555-0.361l0.148-0.314l0.882-0.17
		l0.61-1.066l1.361,0.459l1.765-0.662l2.497-1.857l0.576,0.187l1.799-0.41l1.989-1.523l0.449-1.388l1.632-0.579l1.096-0.999
		l1.161-0.475l0.413,0.372l0.548-0.367l0.697-1.672l0.92-0.449l2.155,0.222l0.793-3.211l-0.594-0.455l1.289-0.451l0.931-1.257
		l0.29-1.337l-0.45-0.292l-0.363-1.318l-0.657-0.787l-0.107-0.902l0.377-0.61l-0.743-0.644L63.386,70.7l-0.631-1.095l3.129-1.12
		l0.711-0.639l2.905-0.164l0.491,0.615l1.459-0.352l1.326,0.441l1.934-2.221l0.88,0.625l0.778-0.913l0.539,0.03l2.746-1.562
		l0.696-1.706l-1.301-1.177l-0.616,0.273L76.88,61.13l-0.433,0.154l0.598-4.351l0.18-0.392l1.242-0.547l-0.814-1.511l-0.047-0.793
		l3.326-1.686l3.015-0.241l0.252-0.385l1.798,1.565l1.102-0.024l3.015-1.831l0.716-0.12L95.682,46.747z"/>
	<path id="TN-33" fill="#1E3250" stroke="#1E3250" stroke-width="0.5" d="M96.967,95.373l1.305,3.166l1.737,1.95l0.972,3.009
		l-0.282,0.764l-1.823,1.96l0.014,0.906l3.008,5.614l2.616,1.14l0.584,0.788l-0.205,1.013l0.277,1.906l-1.005,1.536l1.11,3.738
		l1.792,0.241l0.962,1.697l1.552-0.169l0.382,1.118l2.517,0.832l-0.264,3.263l0.585,4.322l-4.053,3.329l-0.31,0.849l0.202,1.917
		l-0.324,1.913l-1.087,0.749l-1.935,0.635l-1.08,1.133l-0.513,1.857l0.981,0.14l-0.209,0.713l-0.952,0.849l0.557,3.161l-0.214,1.317
		l-1.329,1.963l1.56,2.869l0.129,2.885l-2.212-0.982l0,0l-6.272-1.571l-2.906-1.064l-5.862-4.114l-2.919,0.917l-2.781-1.254
		l-1.618,0.176l-1.249,1.966l-1.49,0.704l-1.392,1.247l0.438,3.938l-0.182,1.214l-2.301,2.39l-0.847-0.064l-1.022,0.661
		l-1.849-2.113l-1.152-0.748l-5.981,0.6l-2.089,1.859l-1.272,1.893l-1.443,0.073l0,0l-0.374-3.366l-1.253-0.884l-1.161-0.049
		L54.5,161.22l-0.281,0.078l-1.859-2.684l-1.043-0.612l0.13-0.743l-0.543-2.054l0.975-4.856l-0.394-4.378l0.673-1.735l-1.199,0.03
		l0.757-1.059l-1.035-0.426l0.499-0.888l0.064-1.677l0.897-0.946l0.929-0.299l0.545-5.147l-0.324-1.832l0.195-0.716l0.674-0.838
		l1.035-2.946l1.453-1.202l-0.46-3.189l-1.73-1.76l-0.243-1.266l1.626-1.638l0.566-1.935l0.98-1.492l-0.028-1.711l-0.347-0.704
		l-0.79-0.351l1.209-1.861l0.891-0.728l1.002-0.148l0.082-0.476l0.504-0.142l-0.77-0.731l-0.37-1.165l0.347-1.088l-0.244-1.25
		l1.168-1.116l0,0l4.067,0.473l2.346-1.821l2.52-0.489l2.243-1.922l3.506,0.215l3.896-1.757l4.602,1.394l7.515-1.175l1.155-0.476
		l1.766,0.016l1.667-0.71L96.967,95.373z"/>
	<path id="TN-34" fill="#1E3250" stroke="#1E3250" stroke-width="0.5" d="M102.374,94.247l0.944,1.138l2.24,0.111l0.625,0.462
		l0.49,1.342l1.535,1.393l-0.064,1.682l0.721,0.013l1.029,1.002l0.724,0.281l2.431-0.826l2.144-1.473l3.314,0.256l2.745,0.716
		l0.718,0.995l1.543,1.158l2.65-1.154l0.741-0.802l0.131-4.033l0.757-0.847l2.537-0.912l3.353-0.421l3.36,0.309l1.907-0.748
		l2.091,1.628l1.385,1.79l1.577,0.3l2.383-0.159L147.111,98l1.042-0.345l-0.02-0.609l0.669-1.052l2.947,0.354l1.25-0.214
		l0.431-0.769l0,0l0.402,2.065l-0.47,4.198l-0.716,2.553l-1.16,2.275l-3.65,3.015l-2.082,0.495l-1.648-0.253l-0.717,0.308
		l1.265,1.863l1.487,0.435l0.436,2.945l1.726-0.667l1.901,0.977l1.237,2.441l3.102,0.943l0.635,0.524l0.153,0.901l-0.343,1.295
		l-2.034,4.49l-0.272,0.997l0.245,0.085l0,0l-5.942,5.617l-1.301,0.229l-3.271,4.226l-3.875,3.292l-2.371,1.269l0.007,0.753
		l1.812,2.95l-0.625,1.901l0.42,1.144l-2.063,2.576l0.112,0.957l0.446,0.906l1.873,1.941l1.531,0.31l-0.588,0.631l-0.652,0.557
		l-2.726,0.228l-1.812,1.154l-3.066,1.09l-1.026,0.889l-0.953-0.512l-1.982,0.142l-4.02-1.967l-0.888,0.137l-1.091,1.496
		l0.175,1.145l1.041,1.702l1.948,1.993l2.098,1.298l1.802,2.157l1.023,0.289l1.635,3.073l1.163,1.228l0.398,3.183l0.543,1.495l0,0
		l0.415,0.608l-1.137,0.556l-2.725-0.556l-1.363,0.556l-3.048,0.396l0,0l-0.887-0.189l0.297-0.696l-0.768-2.218l-1.59-1.469
		l-1.02-0.169l-0.409-1.271l-1.392,0.44l-1.617-0.156l-2.142-1.249l-0.302-0.89l0.311-1.861l-1.622-1.48l-0.908-0.349l-0.666,0.339
		l-2.873-0.201l-1.52,0.667l-0.808-0.482l-1.463-2.455l-1.666,0.687l-1.021-0.065l-0.824-0.555l-1.032-2.714l-1.839-1.047
		l2.045-0.742l0.884-0.7l0,0l2.212,0.982l-0.129-2.885l-1.56-2.869l1.329-1.963l0.214-1.317l-0.557-3.161l0.952-0.849l0.209-0.713
		l-0.981-0.14l0.513-1.857l1.08-1.133l1.935-0.635l1.087-0.749l0.324-1.913l-0.202-1.917l0.31-0.849l4.053-3.329l-0.585-4.322
		l0.264-3.263l-2.517-0.832l-0.382-1.118l-1.552,0.169l-0.962-1.697l-1.792-0.241l-1.11-3.738l1.005-1.536l-0.277-1.906l0.205-1.013
		l-0.584-0.788l-2.616-1.14l-3.008-5.614l-0.014-0.906l1.823-1.96l0.282-0.764l-0.972-3.009l-1.737-1.95l-1.305-3.166l0,0
		l0.879-0.602L102.374,94.247z"/>
	<path id="TN-41" fill="#1E3250" stroke="#1E3250" stroke-width="0.5" d="M185.768,121.153l-0.85,1.039l-0.006,3.259l-0.817,1.666
		l-0.012,0.741l3.019,0.277l0.601,0.438l1.327,4.23l0.076,1.893l-3.52,8.312l-1.526,3l-1.746,2.204l-0.188,0.844l2.507,3.289
		l0.721,2.16l1.9,1.585l3.489,9.064l1.168,1.136l-0.028,0.737l1.122,2.271l0,0l-3.01,0.72l-2.979,2.106l2.309,4.516l-2.554,2.306
		l-0.301,1.722l-2.379,1.613l-0.153,2.291l-0.993,3.168l0.294,1.316l1.805,1.694l-0.526,3.452l-0.133,4.309l2.936,2.53l-0.543,3.153
		l0.448,1.846l0,0l-0.4-0.149l-0.969,0.655l-1.752,0.079l-1.489,0.851l-1.673,2.068l-3.605,3.32l-2.674,4.086l0,0l-1.808-0.214
		l-1.059-0.54l-0.165-4.222l-0.784-3.557l-0.088-3.16l-0.493-0.183l-1.255,0.983l-3.44,1.439l-5.014-2.853l-1.549,0.097
		l-3.193-0.771l-1.52,0.273l-1.509-0.371l-3.144-1.851l0.28-1.221l-0.546-0.917l-1.871-2.074l-1.646-2.522l-1.197-0.917
		l-0.902-0.277l-2.796,2.071l-1.966-3.864l-3.415-1.887l-1.469-1.645l-0.17-1.068l2.141-2.33l0.816-1.16l-0.006-0.602l-0.801-4.67
		l-2.823-1.549l-0.57-0.659l0,0l-0.543-1.495l-0.398-3.183l-1.163-1.228l-1.635-3.073l-1.023-0.289l-1.802-2.157l-2.098-1.298
		l-1.948-1.993l-1.041-1.702l-0.175-1.145l1.091-1.496l0.888-0.137l4.02,1.967l1.982-0.142l0.953,0.512l1.026-0.889l3.066-1.09
		l1.812-1.154l2.726-0.228l0.652-0.557l0.588-0.631l-1.531-0.31l-1.873-1.941l-0.446-0.906l-0.112-0.957l2.063-2.576l-0.42-1.144
		l0.625-1.901l-1.812-2.95l-0.007-0.753l2.371-1.269l3.875-3.292l3.271-4.226l1.301-0.229l5.942-5.617l0,0l3.485,1.084l0.93-1.168
		l2.044-1.053l2.805,0.92l0.815,1.572l1.677,1.233l3.85-0.29l2.07,0.89l0.929,1.569l1.673,0.778l0.847-0.322l0.828-1.801
		l-0.066-1.552l0.539-1.014l-0.694-1.396l0.099-0.638l0.672-0.439l1.179,1.421l1.728,0.068l1.769-1.324l0.667-2.008l0.027-0.947
		l-0.544-0.66l0.366-0.967l2.916,0.247l1.421-0.432L185.768,121.153z"/>
	<path id="TN-42" fill="#1E3250" stroke="#1E3250" stroke-width="0.5" d="M57.823,166.174l1.443-0.073l1.272-1.893l2.089-1.859
		l5.981-0.6l1.152,0.748l1.849,2.113l1.022-0.661l0.847,0.064l2.301-2.39l0.182-1.214l-0.438-3.938l1.392-1.247l1.49-0.704
		l1.249-1.966l1.618-0.176l2.781,1.254l2.919-0.917l5.862,4.114l2.906,1.064l6.272,1.571l0,0l-0.884,0.7l-2.045,0.742l1.839,1.047
		l1.032,2.714l0.824,0.555l1.021,0.065l1.666-0.687l1.463,2.455l0.808,0.482l1.52-0.667l2.873,0.201l0.666-0.339l0.908,0.349
		l1.622,1.48l-0.311,1.861l0.302,0.89l2.142,1.249l1.617,0.156l1.392-0.44l0.409,1.271l1.02,0.169l1.59,1.469l0.768,2.218
		l-0.297,0.696l0.887,0.189l0,0l0.149,0.172l-2.119,1.557l-0.457,0.729l-2.844,1.675l-6.05,8.598l-1.179,3.018l0.084,0.804
		l0.501,0.59l0.842,0.099l1.93,1.087l0.965,1.767l4.662,2.978l0.065,0.584l-1.569,0.824l-0.167,0.589l0.397,1.647l-0.267,0.707
		l0.288,1.048l-0.781,1.245l1.076,2.7l-0.557,1.78l1.074,1.484l0.743,0.452l-0.146,1.099l-0.706,1.374l-1.152,0.448l-5.444,0.628
		l-3.056,1.777l-2.571,0.145l-0.901,1.773l-2.744,3.144l-0.58,1.853l-0.146,0.892l1.941,1.444l-0.073,0.921l-2.767,1.304
		l-1.936,1.78l-7.357,2.89l-2.993,2.216l-2.322,1.075l0,0l-4.845,3.057l-2.954,0.849l-5.747,3.226l-2.559,1.017l0.543,2.051
		l-0.256,0.894l-1.567,0.116l-1.883-0.572l-1.268-0.794l-5.122-4.058l-1.557-0.027l-2.391-1.37l-5.724-2.377l0,0l-0.877-2.005
		l0.307-2.576l-0.885-3.061l-0.071-1.843l-0.783-1.075l0.004-1.529l-0.958-2.27l3.607-2.528l1.136,0.146l0.014-5.185l2.865-7.603
		l3.124-2.619l1.009-1.904l0.433-2.288l2.198-3.468l1.641-1.726l-2.405,0.238l-1.327-0.709l-1.27-0.044l-3.345-2.547l-1.729-0.317
		l-1.475-2.835l0.025-1.061l0.402,0.029l0.067-1.533l-0.312-2.804l1.048-2.556l-0.176-0.493l-0.791-0.151l0.874-0.569l1.581-3.387
		l2.326-0.624l0.146-1.487l-0.911-0.854l-0.927-2.462l0.23-1.961l-0.856-5.448L57.823,166.174z"/>
	<path id="TN-43" fill="#1E3250" stroke="#1E3250" stroke-width="0.5" d="M132.702,176.729l0.57,0.659l2.823,1.549l0.801,4.67
		l0.006,0.602l-0.816,1.16l-2.141,2.33l0.17,1.068l1.469,1.645l3.415,1.887l1.966,3.864l2.796-2.071l0.902,0.277l1.197,0.917
		l1.646,2.522l1.871,2.074l0.546,0.917l-0.28,1.221l3.144,1.851l1.509,0.371l1.52-0.273l3.193,0.771l1.549-0.097l5.014,2.853
		l3.44-1.439l1.255-0.983l0.493,0.183l0.088,3.16l0.784,3.557l0.165,4.222l1.059,0.54l1.808,0.214l0,0l1.006,1.838l-1.94,5.763
		l0.005,1.022l-1.318,2.279l-2.769,3.509l0.105,0.8l-1.119,1.065l-3.462,7.581l-5.132,8.517l0.2,1.083l1.914,3.202l4.369-0.587
		l2.456-0.776l1.126,0.595l1.201,1.392l5.104,2.853l-0.264,2.081l-1.497,2.851l-3.859,1.14l-2.256,2.396l-1.77-0.569l-0.888,0.521
		l-2.57,4.65l-1.652,2.156l-2.489,1.009l-2.082-0.199l-3.502,1.635l-0.496,0.791l0.881,2.695l0.855,1.332l-0.438,0.862l-1.131,0.12
		l-2.408-1.124l0,0l-0.185-0.615l-3.195-1.394l-4.838,1.084l0,0l-0.839-1.115l0.741-1.969l0.64-3.824l0.915-2.06l-0.496-0.818
		l-2.076-0.979l-4.378-1.342l-1.418-2.396l0,0l-1.372-1.291l-3.244-1.903l0,0l-4.862-0.281l-0.379-0.515l0.061-0.931l-1.237-1.312
		l-1.015-0.734l-0.78-0.217l-1.276,0.26l-0.682-0.51l-0.476-1.269l0.293-3.087l-0.965-2.423l2.216-2.504l0.001-1.077l-0.54-0.644
		l-1.72,1.898l-0.865-0.083l-1.672-2.381l-1.612,0.137l-1.003-0.721l-1.227-0.133l-0.872-0.577l-1.652,0.356l-1.617-0.24
		l-2.525-1.297l-1.643,0.97l-4.635,1.288l-1.775-1.166l-1.897-0.595l-1.371-1.059l-2.689-0.472l-2.628-1.158l-1.378-1.148l0,0
		l2.322-1.075l2.993-2.216l7.357-2.89l1.936-1.78l2.767-1.304l0.073-0.921l-1.941-1.444l0.146-0.892l0.58-1.853l2.744-3.144
		l0.901-1.773l2.571-0.145l3.056-1.777l5.444-0.628l1.152-0.448l0.706-1.374l0.146-1.099l-0.743-0.452l-1.074-1.484l0.557-1.78
		l-1.076-2.7l0.781-1.245l-0.288-1.048l0.267-0.707l-0.397-1.647l0.167-0.589l1.569-0.824l-0.065-0.584l-4.662-2.978l-0.965-1.767
		l-1.93-1.087l-0.842-0.099l-0.501-0.59l-0.084-0.804l1.179-3.018l6.05-8.598l2.844-1.675l0.457-0.729l2.119-1.557l-0.149-0.172l0,0
		l3.048-0.396l1.363-0.556l2.725,0.556l1.137-0.556L132.702,176.729z"/>
	<path id="TN-51" fill="#1E3250" stroke="#1E3250" stroke-width="0.5" d="M196.597,101.043l4.445-0.524l2.279,2.283l0.529,0.025
		l0.588-0.496l0.265-1.309l0.883-1.077l0.544,0.145l3.131,3.675l0,0l-1.953,3.824l-2.185,6.972l-0.792,6.988l0.348,5.147
		l1.199,4.405l0.619,0.904l0.657-0.023l0.773,0.547l0.832,4.235l0.947,1.855l4.099,5.49l0.135,1.473l0.967,1.14l0.638,1.52
		l1.759,1.543l-0.271,0.095l-0.058,0.902l1.066,0.93l0,0l-0.95,1.031l0.203,0.869l-0.646,1.964l-1.429,0.01l0.392,1.117l-0.396,0.77
		l-0.166,3.3l0.523,1.013l-0.045,0.707l-1.722,1.793l-0.893,2.552l-0.845,0.434l-3.015,0.435l-0.598,0.682l-0.073,0.912l0.887,1.494
		l-0.19,0.972l-0.568,0.725l-3.041,2.081l0.696,2.318l1.832,1.116l0.785,0.126l0.714-1.872l2.052-0.633l1.719,1.401l0,0l0.168,1.259
		l-0.263,1.015l-2.153,1.484l-1.456,2.992l-3.864-1.025l-2.515-2.739l-0.785-2.035l-0.917,0.052l-1.672-1.336l-0.538,0.24
		l-1.338-0.413l-0.843,0.684l0.029,0.662l-0.566,0.019l-0.583-1.213l-1.354-1.221l-2.143-2.844l-0.309-1.276l0.203-0.752
		l1.279-1.264l-0.643-0.021l0,0l-1.123-2.271l0.028-0.737l-1.167-1.136l-3.489-9.064l-1.901-1.585l-0.721-2.16l-2.506-3.29
		l0.188-0.843l1.746-2.205l1.526-3l3.521-8.312l-0.077-1.893l-1.327-4.231l-0.601-0.438l-3.019-0.277l0.012-0.741l0.816-1.667
		l0.006-3.258l0.85-1.04l0,0l2.752-1.281l1.137-3.91l-0.415-2.205l0.498-0.718l1.321-0.295l2.467,0.568l2.48-0.424l1.364-1.466
		l-0.324-1.229l-1.264-0.389l-0.206-0.398l1.836-1.086l-0.282-3.352l-0.912-1.61L196.597,101.043z"/>
	<path id="TN-52" fill="#1E3250" stroke="#1E3250" stroke-width="0.5" d="M218.059,151.71l1.605,1.519l2.765,1.637l0.966,0.19
		l0.947-0.095l1.547-0.665l0.444-0.569l0.909,0.119l0.754-0.498l1.72,0.379l0.29,0.427l0.638,0.688l-0.271,0.973l-0.716,0.166
		l-0.541,1.565l0.251,1.257l-0.561,0.355l0.831,1.446l2.049,1.375l1.063,0.118l0.812,0.758l4.157,1.208l1.044,0.308l1.546,0.189
		l0.251,0.64l1.218,0.853l1.469,0.071l1.527,0.734l0.232,0.284l-0.31,0.237l-0.019,1.184l-0.909,2.371l0,0l-3.598,0.548l0.503,1.052
		l-0.542,0.189l-0.135,0.71l-1.953,0.236l-0.445,0.402l-0.174-0.591l-0.965-0.626l-1.152,0.695l-3.968,2.706l-2.613,2.657
		l-0.021,1.571l-0.48,0.398l-1.832,0.216l-2.353-0.531l-1.015-0.992l-1.113-2.431l-2.923,0.18l-2.457-0.482l-3.268,0.188l0,0
		l-1.719-1.401l-2.052,0.633l-0.714,1.872l-0.785-0.126l-1.832-1.116l-0.696-2.318l3.041-2.081l0.568-0.725l0.19-0.972l-0.887-1.494
		l0.073-0.912l0.598-0.682l3.015-0.435l0.845-0.434l0.893-2.552l1.722-1.793l0.045-0.707l-0.523-1.013l0.166-3.3l0.396-0.77
		l-0.392-1.117l1.429-0.01l0.646-1.964l-0.203-0.869l0.95-1.031l0,0L218.059,151.71z"/>
	<path id="TN-53" fill="#1E3250" stroke="#1E3250" stroke-width="0.5" d="M193.005,169.298l0.643,0.02l-1.279,1.264l-0.203,0.752
		l0.309,1.276l2.143,2.844l1.354,1.221l0.583,1.213l0.566-0.019l-0.029-0.662l0.843-0.684l1.338,0.413l0.538-0.24l1.672,1.336
		l0.917-0.052l0.785,2.035l2.515,2.739l3.864,1.025l1.456-2.992l2.153-1.484l0.263-1.015l-0.168-1.259l0,0l3.268-0.188l2.457,0.482
		l2.923-0.18l1.113,2.431l1.015,0.992l2.353,0.531l1.832-0.216l0.48-0.398l0.021-1.571l2.613-2.657l3.968-2.706l1.152-0.695
		l0.965,0.626l0.174,0.591l0.445-0.402l1.953-0.236l0.135-0.71l0.542-0.189l-0.503-1.052l3.598-0.548l0,0l-0.058,2.812l0.696,2.081
		l1.566,1.348l1.276-0.26l-1.005,1.159l-0.503-0.024l-1.237,4.373l-0.193,2.291l0.677,2.22l-0.986,0.401l-0.29,1.652l0.599,3.398
		l0.947,1.51l3.229,3.607l3.054,2.38l1.585,0.66l-1.141,0.73l-0.986-0.612l-1.237,0.495l-0.715,0.872v1.649l-0.657,0.188
		l-0.058,0.73l-0.542,0.118l-0.58,1.106l0.464,0.659h-1.875l-0.657,0.495l-2.03,4.11l0,0l-3.832-0.201l-1.415-0.682l-1.131,0.429
		l-0.578-0.231l-0.595-2.863l0.193-1.244l-0.658-1.841l-0.994-1.239l-0.667-0.188l-1.124,2.156l-2.539,1.27l-1.38-3.124l-1.73-2.23
		l0.417-3.561l-0.331-0.789l-1.91-1.118l-5.041,3.356l-2.217-0.117l-4.071-1.816l-1.016-0.095l0.173,1.273l-1.931,2.666l1.723,2.197
		l-2.087,0.792l-2.608,2.041l-4.807,4.663l-1.143,0.625l-2.939-1.552l-2.58-2.095l-1.752-0.377l-3.706,0.346l-3.615-1.49l0,0
		l-0.448-1.845l0.543-3.154l-2.936-2.529l0.133-4.309l0.527-3.452l-1.805-1.694l-0.294-1.316l0.993-3.167l0.154-2.292l2.379-1.613
		l0.301-1.722l2.554-2.306l-2.31-4.516l2.979-2.106L193.005,169.298z"/>
	<path id="TN-61" fill="#1E3250" stroke="#1E3250" stroke-width="0.5" d="M247.638,247.597l0.328,0.515l1.585,0.023l0.503,0.445
		l-0.078,0.375l-1.063,0.21l-1.624,1.053l-1.644,1.754h-0.64l-0.249,0.374l-5.49-3.181l2.01-1.521l0.58,0.257l2.223-0.234
		l0.87,0.421l0.464-0.375l1.527,0.164L247.638,247.597z M259.141,234.55l0.754,0.445l0.406,1.172l0.58,0.492l0.271-0.281
		l-0.599-0.563l0.155-0.492l1.585,0.586l1.354,0.961l-0.193,0.305l-1.063-0.727l-0.948,0.352l0.503,0.586l-0.522,0.281l0.212,0.656
		l1.005,1.64l-0.599-0.281l-0.271-0.609h-0.677l-0.271-0.539l-0.406,0.258l0.406,0.328l-0.058,0.796l1.18,0.82l0.773,1.663
		l-0.561,0.515l-1.063-0.21l-1.141,0.96l-0.928-0.024l0.077,0.609l-0.425,0.328l-3.112,0.632l-5.156,3.236l-0.393-1.34l0.793-0.492
		l-0.039-1.217l1.006-0.328l0.696-1.568l1.179-0.515l-0.619-1.077l1.005,0.047l-0.715-1.804l0.735,0.094l0.251,1.031l1.083,0.703
		l1.933,0.14l-0.271-0.796l0.348-0.187l-0.155-0.937l0.425-0.352l-0.889-0.75l-0.251-0.797l0.87,0.164l0.503-0.328l-0.174-0.375
		l1.025-0.046l-0.483-1.336h0.677l-0.464-1.336L259.141,234.55z M187.226,206.04l3.615,1.49l3.706-0.346l1.752,0.377l2.58,2.095
		l2.939,1.552l1.143-0.625l4.807-4.663l2.608-2.041l2.087-0.792l-1.723-2.197l1.931-2.666l-0.173-1.273l1.016,0.095l4.071,1.816
		l2.217,0.117l5.041-3.356l1.91,1.118l0.331,0.789l-0.417,3.561l1.73,2.23l1.38,3.124l2.539-1.27l1.124-2.156l0.667,0.188
		l0.994,1.239l0.658,1.841l-0.193,1.244l0.595,2.863l0.578,0.231l1.131-0.429l1.415,0.682l3.832,0.201l0,0l-0.135,1.231l0.444,1.199
		l-0.464,1.693l0.232,1.199l-1.218,1.786v0.682l-3.364,1.762l-2.262,2.302l-0.35,1.716l0.097,4.999l-2.417,3.073l-0.29,1.267
		l-0.909,1.125l0.116,1.992l-1.721,0.375l-1.431,0.797l-0.812,1.265l-0.735,0.047l-0.271,0.539l-1.373,0.703l-0.677,0.75
		l-0.193,0.843l0.658,0.515l-0.619,1.335l-0.58,0.234l-0.271-0.679l-0.29,0.211l-0.077-0.819l-0.29,0.093l-0.677,1.358l0.136,0.421
		l0.792,0.328v0.515l-0.271,0.187l-0.193-0.632h-0.561l0.232,2.341l-1.16,1.661l-0.986-0.702l-0.445,0.07l-0.522,0.234l0.135,0.468
		l-0.29,0.304l-1.005,0.117l-0.986,0.912l-0.696-0.117l-0.677,0.515l-0.174,0.982l-0.773,0.421l-0.87,1.848l-0.889,0.467
		l-0.367,3.085l-0.542,0.981l-2.997,1.308l-1.489,0.187l-1.914-0.093l-0.754,0.63l-1.392,0.14l-2.784,2.359l-3.944,5.414
		l-0.734,0.117l-0.271-0.583l-0.889-0.28l-0.445,1.353l0.909-0.513l-0.174,1.307l-1.991,0.886l-2.03-1.003l-0.754,0.676l0.387,0.327
		l-0.212,0.956l-0.425-0.466l-0.773,1.492l-1.972,0.303l-1.682,1.375l-1.702-0.839l-0.812,2.214l-1.373,0.233l-0.058,1.817
		l-1.179-1.235l-1.334,0.489l-2.281,3.028l-1.624,4.145l-1.47,2.188l-0.541,2.745l-0.213,0.326l-0.743-0.209l0,0l0.003-0.676
		l-2.441-1.366l-0.176-0.823l-1.479-0.833l-0.471,0.398l0.609,1.394l-0.653,0.993l-0.599,0.471l-1.573,0.239l-0.989-0.304
		l-2.404-2.192l-1.421-2.785l-2.4-1.122l-1.74,1.127l-1.015,0.204l-1.679-0.393L151.744,282l-0.9-2.567l0,0l2.409,1.125l1.131-0.12
		l0.438-0.862l-0.855-1.333l-0.881-2.695l0.496-0.791l3.502-1.635l2.082,0.199l2.489-1.009l1.651-2.156l2.571-4.65l0.888-0.521
		l1.77,0.569l2.256-2.396l3.859-1.141l1.497-2.851l0.264-2.081l-5.104-2.853l-1.201-1.393l-1.125-0.595l-2.456,0.776l-4.37,0.586
		l-1.914-3.202l-0.2-1.083l5.132-8.517l3.462-7.581l1.12-1.064l-0.105-0.8l2.769-3.509l1.318-2.279l-0.005-1.022l1.94-5.763
		l-1.006-1.838l0,0l2.674-4.085l3.605-3.32l1.672-2.068l1.489-0.852l1.752-0.079l0.969-0.655L187.226,206.04z"/>
	<path id="TN-71" fill="#1E3250" stroke="#1E3250" stroke-width="0.5" d="M88.677,239.186l1.378,1.148l2.628,1.158l2.689,0.472
		l1.371,1.059l1.897,0.595l1.775,1.166l4.635-1.288l1.643-0.97l2.525,1.297l1.617,0.24l1.652-0.356l0.872,0.577l1.227,0.133
		l1.003,0.721l1.612-0.137l1.672,2.381l0.865,0.083l1.72-1.898l0.54,0.644l-0.001,1.077l-2.216,2.504l0.965,2.423l-0.293,3.087
		l0.476,1.269l0.682,0.51l1.276-0.26l0.78,0.217l1.015,0.734l1.237,1.312l-0.061,0.931l0.379,0.515l4.862,0.281l0,0l3.224,1.884
		l1.392,1.31l0,0l1.418,2.396l4.378,1.342l2.076,0.979l0.496,0.818l-0.915,2.06l-0.64,3.824l-0.741,1.969l0.839,1.115l0,0
		l-1.217,2.975l-1.422,1.257l-4.993,2.047l-2.19,0.2l-6.014-1.156l-2.032,0.258l-2.837,1.144l-1.838,1.32l0,0l-2.244,0.894
		l-4.735,0.333l-1.807,0.879l-2.534-1.057l-3.619,1.269l-1.151,0.62l-1.122,1.53l1.031,2.043l0.056,0.881l-0.444,0.95l-1.016,0.919
		l-1.929,0.162l-3.456-0.597l-2.257-1.592l-3.636,1.55l-4.528-0.435l-4.91,0.591l-3.225,1.198l-0.139,0.509l0,0l-4.04-1.378
		l-12.722,0.361l-2.503,0.694l-2.342,0.114l-0.116-0.705l0.738-1.626l0.05-1.028l-1.643-1.209l-0.77-1.885l-6.313-2.599
		l-2.986-0.313l-1.07-1.094l-1.426-2.806l-7.541-6.1l0.455-1.349l2.514-3.474l0.399-1.289l3.671-0.785l1.173-0.778l-0.336-0.859
		l-3.232-1.899l0.257-2.534l1.416-2.078l0.515-1.367l-0.824-1.244l0,0l1.452-0.471l0.231-1.094l0.927-0.453l-0.366-1.205l0.751,0.13
		l-0.062-0.862l1.12,0.293l1.376-0.501l1.105,0.019l-1.237-0.978l0.427-0.183l0.188-1.119l1.183-0.41l-0.096-0.377l0.303-0.135
		l1.24,0.102l-0.578-1.448l2.235-1.167l0.489-0.806l-0.092-0.477l-1.436,0.033l-1.155-0.772l-0.351-0.792l0.359-0.917l1.695-0.318
		l1.968-3.333l1.124,0.194l0.577-0.256l-1.772-1.469l0,0l5.724,2.377l2.391,1.37l1.557,0.027l5.122,4.058l1.268,0.794l1.883,0.572
		l1.567-0.116l0.256-0.894l-0.543-2.051l2.559-1.017l5.747-3.226l2.954-0.849L88.677,239.186z"/>
	<path id="TN-72" fill="#1E3250" stroke="#1E3250" stroke-width="0.5" d="M41.742,259.97l0.824,1.244l-0.515,1.367l-1.416,2.078
		l-0.257,2.534l3.232,1.899l0.336,0.859l-1.173,0.778l-3.671,0.785l-0.399,1.289l-2.514,3.474l-0.455,1.349l7.541,6.1l1.426,2.806
		l1.07,1.094l2.986,0.313l6.313,2.599l0.77,1.885l1.643,1.209l-0.05,1.028l-0.738,1.626l0.116,0.705l2.342-0.114l2.503-0.694
		l12.722-0.361l4.04,1.378l0,0l-0.604,2.718l-1.26,2.967l-1.752,1.794l-4.045,5.839l-10.326,8.008l-11.179,9.594l-10.106,7.38
		l-4.451,4.154l-8.332,6.712l-4.281,3.045l-6.538,2.188l0,0l-8.8-13.934l-1.83-4.925l0.436-3.338l-0.827-5.243l-1.671-2.193
		l-2.739-1.462l1.667-3.186l-1.774-5.894l1.609-2.536l-0.411-3.18l1.115-3.423l-1.824-2.025L0,298.65l0.489-0.64l3.04-1.03
		l0.687-0.782l-0.621,0.115l-0.16-0.375l2.397-1.242l0.368-2.19l2.927-4.805l5.348,2.474l5.415-3.842l-0.188-2.495l3.009-9.586
		l0.091-4.141l1.544-0.039l0.788-0.736l1.887,0.044l0.92-0.414l0.327-0.963l0.514-0.626l0.652-0.082l0.071-0.533l1.367-0.049
		l2.64-0.857l0.627-1.285l1.629-1.68l2.04-0.28l-0.025-0.534l0.828-1.084l2.171,0.294l0.406-0.935L41.742,259.97z"/>
	<path id="TN-73" fill="#1E3250" stroke="#1E3250" stroke-width="0.5" d="M120.083,286.553l5.181,5.28l0.86,1.414l-1.774,2.406
		l-3.091,2.259l-1.224,1.601l0.119,2.683l-0.667,7.258l0.463,4.013l2.653,4.686l1.051,0.914l1.3,2.609l0.818,1.769l0.137,1.954
		l1.07,2.697l1.371,0.39l0.849,0.774l0.607-0.385l2.095,0.203l1.828,1.949l0.269,2.54l0.96,0.627l3.125-0.359l0.66,0.533
		l1.274,2.362l2.528,1.218l-2.73,2.908l0.086,3.027l-1.658,1.796l1.896,2.217l0.435,1.054l4.585,3.188l1.239,3.79l1.65,2.192
		l1.081,2.158l2.231,2.066l0,0l3.781,3.83l1.637,1.247l0.893,0.144l1.014,1.199l2.115,0.798l2.405-0.238l2.025,0.256l1.194,0.869
		l-0.07,9.409l0,0l-1.336,1.056l-0.525,1.992l0.951,0.757l0.789,1.844l1.91,0.586l2.819,1.699l0.754,1.073l-0.251,0.503
		l-3.612,0.223l-0.477,0.605l0.573,6.207l0.285,0.608l1.669,0.902l0.285,0.551l-0.64,1.377l-1.616,0.82l-0.95,1.452l-0.914,0.397
		l-0.446,0.604l0.58,2.781l-0.932,1.863l-1.164,0.8l0.358,0.918l4.135,4.049l0.567,0.802l-0.249,0.828l-0.842,0.155l-3.876-1.109
		l-0.963-0.923l-1.056-2.287l-5.508-2.559l-2.364-5.255l-0.863-0.441l-2.854,0.773l-2.116-0.305l-1.696,0.997l-3.585,0.874
		l-5.22,3.369l-15.453,4.145l-6.599,2.286l-17.343,0.282l-41.183,10.927l0,0l-2.189-24.261l-5.249-8.325l-5.444-6.651l-3.675-3.707
		l0.077-4.132l-14.727-7.005l-5.118-0.3l-3.144-8.196l-2.383-11.911l0,0l6.538-2.188l4.281-3.045l8.332-6.712l4.451-4.154
		l10.106-7.38l11.179-9.594l10.326-8.008l4.045-5.839l1.752-1.794l1.26-2.967l0.604-2.718l0,0l0.139-0.509l3.225-1.198l4.91-0.591
		l4.528,0.435l3.636-1.55l2.257,1.592l3.456,0.597l1.929-0.162l1.016-0.919l0.444-0.95l-0.056-0.881l-1.031-2.043l1.122-1.53
		l1.151-0.62l3.619-1.269l2.534,1.057l1.807-0.879l4.735-0.333L120.083,286.553z"/>
	<path id="TN-81" fill="#1E3250" stroke="#1E3250" stroke-width="0.5" d="M142.626,278.508l4.838-1.084l3.195,1.394l0.185,0.615l0,0
		l0.9,2.567l3.298,2.204l1.679,0.393l1.015-0.203l1.74-1.128l2.399,1.122l1.421,2.784l2.404,2.193l0.989,0.303l1.574-0.239
		l0.598-0.471l0.653-0.993l-0.609-1.394l0.471-0.398l1.479,0.833l0.176,0.823l2.441,1.365l-0.003,0.677l0,0l-0.301-0.14
		l-0.155,0.349l0.619,0.674l0.116,0.907l-0.27,2.139l0.386,1.581l-0.213,1.557l0.677,3.972l1.025,3.645l4.272,8.444l5.124,5.909
		l6.167,4.863l4.098,4.696l4.388,2.729l4.251,1.128l0,0l-2.743,1.669l-0.695,0.969l-3.559,5.81l-0.282,1.352l-2.748,4.176
		l-1.67,1.782l-0.705,2.087l-1.26,1.104l-4.286-0.279l-3.583,1.851l-0.053,0.875l-0.676,1.197l-2.167,0.758l-0.721,0.582
		l0.095,2.134l-2.444,1.75l-3.001,0.771l-0.775,0.869l-2.498-0.81l-1.579,1.439l-1.146,0.332l-2.283-0.382l-2.731,0.499
		l-0.683-0.375l-2.052,0.231l-3.125,0.923l-4.923-1.294l0,0l-2.231-2.066l-1.081-2.158l-1.65-2.192l-1.239-3.79l-4.585-3.188
		l-0.435-1.054l-1.896-2.217l1.658-1.796l-0.086-3.027l2.73-2.908l-2.528-1.218l-1.274-2.362l-0.66-0.533l-3.125,0.359l-0.96-0.627
		l-0.269-2.54l-1.828-1.949l-2.095-0.203l-0.607,0.385l-0.849-0.774l-1.371-0.39l-1.07-2.697l-0.137-1.954l-0.818-1.769l-1.3-2.609
		l-1.051-0.914l-2.653-4.686l-0.463-4.013l0.667-7.258l-0.119-2.683l1.224-1.601l3.091-2.259l1.774-2.406l-0.86-1.414l-5.181-5.28
		l0,0l1.838-1.32l2.837-1.144l2.032-0.258l6.014,1.156l2.19-0.2l4.993-2.047l1.422-1.257L142.626,278.508z"/>
	<path id="TN-82" fill="#1E3250" stroke="#1E3250" stroke-width="0.5" d="M235.805,330.772l2.07,4.17l1.663,0.716l0.773-0.022
		l0.87-0.484l-0.019-0.603l-0.425,0.162l-0.058-0.438l1.237,0.093l0.638,0.67l1.373,0.509l0.909-0.208l4.176,5.637l0.562,1.708
		l0.097,3.162l0.464,0.763l-0.812,0.068l0.599,0.809l-0.947,0.575l-0.928,2.237l-0.039,1.292l0.909,1.498l0.387,0.393l1.855,1.659
		l-1.72,1.912l-1.18-0.021l0.136,0.668l1.333-0.115l1.199-1.061l2.301,1.98l0.522,1.521l4.466,1.818l1.837,1.289l2.95,1.362
		l0.858-0.212l-0.831,0.529l-10.479-3.982h-0.909l-0.425,0.461l-0.715-0.139l-0.406,1.657l-0.657,0.046l0.387,1.404l0.425-0.138
		l1.005,1.288l1.566,1.059l0.406,1.22l-0.077,1.242l0.734,1.356l0.909,0.253l1.508-0.62l1.721,0.481l1.934-0.229l6.921,2.092
		l0.947,0.806l0.928-1.494l1.508,1.219l1.701-0.621l-0.191,0.69l0.752,0.688l0.561,0.206l1.025-0.735l0.155,0.553l1.141,0.321
		l-0.02-0.392l-0.464-0.16l0.077-0.368l-0.348-0.321l-0.967-0.413l-0.773,0.345l0.02-1.104l-0.677-0.437l-1.721-0.897l-4.563-3.909
		l-2.204-1.014l-0.078-0.507l0.387-0.299L264,365l2.275,1.166l3.731,3.014l4.582,2.69l3.383,1.355l2.814,0.322l-0.942,4.208
		l-1.531,3.318l-0.531,5.617l0.488,0.384l0.103,1.004l-0.9,1.051l-1.922,6.938l1.282,4.092l-1.309,6.37l0.679,3.873l-0.683,4.217
		l1.369,4.46l2.336,1.832l2.437,2.869l1.476,2.687l-4.937,9.913l-4.449,3.449l-2.672,0.556L267,442.979l-11.29,3.739l-4.039,1.908
		l0,0l1.265-3.263l4.762-9.426l11.874-7.121l-0.716-1.771l-3.374,0.729l-19.552-15.546l0.161-1.352l0.907-1.468l-0.054-3.313
		l0.303-1.409l-0.438-2.53l0.243-3.658l1.125-2.282l1.176-1.101l0.47-1.015l-3.548-4.02l-1.295-0.607l-1.743-1.489l-1.611-2.73
		l-0.734-3.449l-19.07-9.086l-2.94-1.206l-0.425,0.631l-4.809-2.935l1.785-1.259l0.666-1.765l0.779-0.606l-0.169-0.871l-1.813,0.987
		l-2.167,0.618l-4.29-1.822h-1.572l-1.175,0.555l-5.956,3.747l-3.241,0.576l-2.191,0.768l-2.208,0.081l-0.961,0.611l-1.438,2.104
		l-1.326,1.201l-1.568,0.547l-4.078-1.208l-2.588,0.291l-0.875,0.427l-0.773,0.994l-0.59,1.095l-0.122,1.13l-0.563,0.735
		l-1.622,0.65l-6.001,1.283l-3.238-0.219l0,0l0.07-9.409l-1.194-0.869l-2.026-0.256l-2.405,0.236l-2.115-0.797l-1.014-1.198
		l-0.893-0.145l-1.638-1.247l-3.781-3.83l0,0l4.923,1.294l3.125-0.923l2.053-0.23l0.682,0.375l2.731-0.499l2.283,0.382l1.146-0.332
		l1.579-1.439l2.498,0.811l0.775-0.869l3-0.771l2.444-1.75l-0.095-2.134l0.721-0.582l2.167-0.758l0.676-1.197l0.053-0.875
		l3.583-1.851l4.286,0.279l1.26-1.104l0.704-2.087l1.671-1.782l2.748-4.176l0.282-1.353l3.559-5.81l0.695-0.969l2.743-1.669l0,0
		l1.723,0.722l-0.039,1.456l0.29,0.509l0.29-1.271l0.599,0.114l1.779-0.738l5.258-0.603l0.773-0.786l2.571-0.53l2.281-1.873
		l1.392-0.671l1.412-0.14l0.889,0.51l0.851,1.966l-1.005,2.89l0.368,3.305l-0.715,0.785l-0.29,1.571l-0.542-0.023l-1.875,1.641
		l-0.406,1.824l0.851,0.322l0.696,0.763l-0.329,2.376l2.107,0.161l0.928,1.132l2.784,0.185l0.329-0.623l0.986-0.139l0.483-0.923
		l2.475-0.509l0.561-0.737l5.548-1.293l-0.348-0.484l1.295-1.801l0.329-1.132l-1.488-2.702l-1.103-0.67l0.619-0.972l1.778-0.716
		l-2.165-4.37l-1.122,0.349l-0.58,0.879l-0.213,2.75l-0.947-0.485l-0.348-1.456l0.735-1.803l-0.116-1.064l-3.441-4.024l-1.024,0.186
		l-1.682,1.203l-0.213,1.272l-1.779,0.555l-1.682-2.429l-0.561-1.806l-0.136-1.089l0.31-0.901l1.237-2.106l0.02-3.336l-0.483-1.367
		l0.29-0.788l-0.367-1.064l0.329-0.929l4.292-0.927l4.678,1.9l0.58-0.187l0.696,0.44l1.353,0.093l1.566-0.371l0.02-0.579
		L236.479,313l0.387-0.116l1.721,1.81l1.914,1.228l1.547,1.9l1.257,0.625l0.986-0.348l1.063,0.694l0.368,2.71l-0.329,0.187
		l0.329,0.646l-0.29,0.417l-0.754-0.139l-1.102,0.787l-1.16,1.343l-0.097-0.37l-0.775,0.388l-1.081,2.041l-0.174,2.822l-0.503,0.787
		l-0.29,0.092l-0.425-0.809l0.348-1.25l-0.193-1.551l-0.851,0.162l-1.063,2.685l-0.503,0.068L235.805,330.772z"/>
	<path id="TN-83" fill="#1E3250" stroke="#1E3250" stroke-width="0.5" d="M166.354,379.858l3.238,0.219l6.001-1.283l1.622-0.65
		l0.562-0.736l0.122-1.13l0.59-1.094l0.773-0.996l0.875-0.425l2.588-0.291l4.078,1.208l1.568-0.547l1.326-1.201l1.437-2.104
		l0.961-0.611l2.208-0.081l2.191-0.768l3.241-0.576l5.956-3.747l1.175-0.555h1.572l4.29,1.822l2.167-0.618l1.813-0.987l0.168,0.871
		l-0.779,0.607l-0.666,1.764l-1.785,1.259l4.809,2.935l0.425-0.631l2.941,1.206l19.07,9.086l0.734,3.449l1.611,2.73l1.743,1.49
		l1.296,0.607l3.548,4.02l-0.47,1.014l-1.177,1.101l-1.124,2.282l-0.243,3.658l0.438,2.532l-0.303,1.408l0.055,3.312l-0.908,1.468
		l-0.161,1.352l19.552,15.545l3.374-0.728l0.716,1.771l-11.874,7.121l-4.762,9.426l-1.265,3.263l0,0l-3.993,1.977l-0.996,0.071
		l-2.786,2.157l-3.643,1.258l-8.64,6.244l-0.544,2.256l-3.858,6.765l-1.87,0.366l-2.572,1.321l-0.896,0.098l-3.294-0.769
		l-1.972,1.207l-0.119,2.226l-1.092,1.632l1.324,2.609l0.023,0.784l-0.625,1.534l-3.712,3.347l-0.572,1.011l-0.818,3.141
		l-1.405,1.519l-0.837,0.585l-4.947,1.545l-1.231,0.083l-3.288-1.077l-1.378,0.198l-5.764,3.906l-4.802,8.408l-5.892,8.211v1.861
		l0.476,1.056l0.041,2.213l0.622,2.728l6.146,15.417l1.385,5.312l1.583,2.953l0.195,1.13l-0.843,2.991l-0.023,1.52l1.532,7.876
		l0.736,1.642l-0.857,1.209l0.083,1.202l-1.31,4.395l-4.497,8.985l-2.693,2.149l-1.539,2.896l-2.641,3.329l-0.995,1.855
		l-5.589,6.475l-0.894,2.425l-2.061,3.321l-1.058,0.84l-1.04,2.407l-2.044,1.496l-2.018,2.067l-5.124,0.669l-2.815,1.416
		l-2.126,0.579l-2.586,1.893l-2.177,0.82l-4.152,2.557L141.091,612l-29.932-134.769l-3.863-15.007l-0.4,0.029l-18.442-12.179
		l-30.865-21.847l-0.193-2.142l0,0l41.183-10.927l17.343-0.282l6.599-2.286l15.453-4.145l5.22-3.369l3.585-0.874l1.696-0.997
		l2.116,0.305l2.854-0.773l0.863,0.441l2.364,5.255l5.508,2.559l1.056,2.287l0.963,0.923l3.876,1.109l0.842-0.155l0.249-0.828
		l-0.567-0.802l-4.135-4.049l-0.358-0.918l1.164-0.8l0.932-1.863l-0.58-2.781l0.446-0.604l0.914-0.397l0.95-1.452l1.616-0.82
		l0.64-1.377l-0.285-0.551l-1.669-0.902l-0.285-0.608l-0.573-6.207l0.477-0.605l3.612-0.223l0.251-0.503l-0.754-1.073l-2.819-1.699
		l-1.91-0.586l-0.789-1.844l-0.951-0.757l0.525-1.992L166.354,379.858z"/>
</g>
</svg>
