<?xml version="1.0" encoding="utf-8"?>
<!-- Generator: Adobe Illustrator 15.0.0, SVG Export Plug-In . SVG Version: 6.00 Build 0)  -->
<!DOCTYPE svg PUBLIC "-//W3C//DTD SVG 1.1//EN" "http://www.w3.org/Graphics/SVG/1.1/DTD/svg11.dtd">
<svg version="1.1" id="Layer_1" xmlns:amcharts="http://amcharts.com/ammap"
	 xmlns="http://www.w3.org/2000/svg" xmlns:xlink="http://www.w3.org/1999/xlink" x="0px" y="0px" width="789.5px" height="633.5px"
	 viewBox="0 0 789.5 633.5" enable-background="new 0 0 789.5 633.5" xml:space="preserve">
<defs>
	
	
		<amcharts:ammap  projection="mercator" leftLongitude="51.532367" topLatitude="26.079028" bottomLatitude="22.496694" rightLongitude="56.382113">
		</amcharts:ammap>
</defs>
<g>
	<path id="AE-AJ" fill="#1E3250" stroke="#1E3250" stroke-width="0.5" d="M609.22,118.01l3.261-4.84l0.52,0.81l1.65-0.57
		l-0.351,4.21l0.521-0.1l-0.09-2.59l1.17,0.48l-0.87-1.63l1.479-0.96h0.65l0.09-1.82l-0.479,1.39l-2.96,0.1l4.649-6.28l-0.09-1.82
		l1.65-0.72l2.149,5.01l2.61-0.29l4.26,3.59l8.48,0.05l4.829,2.2l-4.479,10.25l-14.92-0.77l0,0l-9.74-2.87l0,0L609.22,118.01z
		 M696.18,137.7l-2.52-4.64l3.439-3.92l3.131,1.63l0.739,3.3L696.18,137.7z"/>
	<path id="AE-AZ" fill="#1E3250" stroke="#1E3250" stroke-width="0.5" d="M396.29,326.15l0.47,3.29l-2.35,0.47l-2.55-2.13
		l-3.08,0.02l-1.64-1.17l1.17-2.58l6.1,0.71L396.29,326.15z M400.01,326.83h-1.439l-2.41-4.45l4.33,2.28L400.01,326.83z
		 M72.5,321.78l0.96,0.88l0.26,6.54l-2.7-1L72.5,321.78z M294.71,318.92l1.91,1.37l0.58,3.51l-4.49,0.47l-2.91-3.789L294.71,318.92z
		 M404.7,323.59l-0.36,1.68l-2.64-0.359l-3.54-4.061l-2.11-0.51l-0.12-2.04h3.49L404.7,323.59z M75.64,313.48l1.96,1.77l-0.22,2.85
		l-2.65,3.7l0.22-1.42l-2.22-0.09l0.96-5.271L75.64,313.48z M363.8,318.61l1.61,2.199l11.56,1.771l3.75,4.54l-2.27,6.24l-5.68,1.699
		l-6.13-1.25l-0.57-1.359l-4.2-0.23l-1.02-3.63l-2.04-1.02l-1.25,1.699l-0.34,5.681l-10.1,0.569l-3.52-0.46l-7.49-5.22h-2.04
		l-1.48,1.36h-4.43l-1.93-3.07l2.38-2.61l9.99-3.18l1.1-2.26l4.58-2.74L346,319l6.8-3.14h2.5l3.97-3.07l0.45-1.93l4.65,1.02
		l-2.5,1.48l-0.23,2.38L363.8,318.61z M260.57,303.96l3.22,2.81l0.04,1.94l-2.52,0.24l-1.83-2.32l-0.17-1.66L260.57,303.96z
		 M282.02,303.1l3.48,2.57l-2.83,0.1l-1,2.14l0.7,5.08l-1.52-0.57l-1.09-2.47l-5.26-2.28l-1.7,0.62l-1.26,3.37l-2.83-0.24
		l-1.13-1.76l-2.48-0.95l0.39-1.72l5.44-0.37l0.35-0.96L282.02,303.1z M326.32,306.43l-4.23,0.94l-0.94-1.88l0.94-1.64l2.35-0.94
		L326.32,306.43z M244.19,298.93l1.77,3.9l0.86-0.47l-0.12,1.9l-4.78-2.56l0.22-1.66L244.19,298.93z M431.27,312.28l-1.68,1.319
		l-5.53-1.199l-2.29,2.409l-3.489-3.369l-1.8-4.21l-4.091-0.601l-0.239-4.93l4.93-1.68l2.04-3.01l3.97,3.01l2.76,7l4.091,2.381
		L431.27,312.28z M167.72,295.03l5.61,1.95l1.73,2.9l-0.26,0.14l-0.7,6.17l-2.09,1.569l-1.09,3.08l-0.42-0.42l0.16-1.38l-1.91,1.229
		l-1.74,2.94l1.39-0.99l0.22,1.561l-2.35,1.04l-1.13-1.471l0.74-1.949l-3.48-4.94l-0.74-5.89l2.39-4.27L167.72,295.03z
		 M436.32,300.5l-0.601,1.8l-3.729,0.12l-0.5-2.61l2.779,1.17l1.08-1.92l-5.529-6.01V291h1.92l5.649,5.41L436.32,300.5z
		 M426.1,297.86h-1.92l-1.68-2.04l-9.86-3.25l6.37-0.36l2.891-3.85l2.399-0.72l0.84,2.77l-1.439,3.25l1.939,1.56L426.1,297.86z
		 M2.52,284.85l3.7,0.78l-1.43,0.48l-1.35,1.23l-0.48,0.15l-0.87,0.09l-0.13,0.1l-1.48,0.95l-0.22-1.47L2.52,284.85z M437.76,281.03
		l5.83,4.13l7.61,2.75l-0.261,0.71l-2.699,1l-7.79-3.32l-2.311,0.05L437.76,281.03z M465.51,278.4l4.69,1.89l1,2.4l-1.181,0.33
		l-0.59-0.95l-2.8,2.23l-2.3,0.29l0.04-0.91l-2.57-0.23l-0.78-1.81l0.95-2.19l-0.08,1.81l3.301,0.44l-0.69-2.62L465.51,278.4z
		 M433.56,275.8l-1.229,2.71l1.439,2.24l-1.52-0.95l-0.39,1.52l-0.521-2.19l0.91-2.67L433.56,275.8z M464.03,275.37l10,3.18
		l1.569,2.63l-3.659,1.18l-1.44-2.38l-6.56-2.8l-0.75-1.43L464.03,275.37z M454.77,272.63l5.221,1.8l1.52,2.95l-1.92,1.47l0.48,1.33
		l-6.261-5.04l0.351-0.96l0.529-0.28L454.77,272.63z M449.81,269.76l2,1.1l-0.52,1.38l1.87,2.57l-1.34,1.81l-3.74-2.8l0.43-3.61
		l1.351,0.66L449.81,269.76z M121.91,264.3l3.74,2.19l1.3,6.7l-1.57-0.1l0.26,1.46l-2.26,2.25l-0.61,8.93l-1.43,0.24l0.75-8.6
		l-0.75-1.99l-0.82,0.33l-2.35-2.19l-0.91-3.14L121.91,264.3z M467.04,262.23l4.74,2.4l0.569,2.47l-4.52,0.48l-3.311-3.71
		L467.04,262.23z M467.51,258.42l11.66,1.98l-0.87,2.03l-1.04-1.84l-1.09,0.19l1.74,2.28l-4.65-2.24l-2.97,1l-2.74-2.04
		L467.51,258.42z M460.76,257.08l-2.819,6.03l2.739,6.99l-0.52,2.85l-0.521-2.19l-8.609-2.47l-2.7-3l6.01-1.46L460.76,257.08z
		 M30.14,254.55l1.91,2l-2.61,3.9l-1.7-2.43l0.78-2.47L30.14,254.55z M474.91,251.47l1.7,0.8l0.439,2.56l-2.14-0.28l0.439-1.43
		l-1.22-1.24L474.91,251.47z M472.56,248.52l1.171,5.5l-1.83-1.24l-2.87,1.19l-3.87-0.62l0.609-1.51l1.131,0.8l1.52-0.76l1.7-3.05
		L472.56,248.52z M161.1,220.24l1.73,1.79l-0.99,2.91l-2.44-2.81l0.35-1.71L161.1,220.24z M240.69,203.49l1.83,0.76l2,3.81
		l-1.3-1.05l-0.3,2.91l-3.91-4.05L240.69,203.49z M206.42,195.59l1.57,2.37l-0.7,1.57l-2.57-2.86L206.42,195.59z M135.52,192
		l1.65,2.29l-0.56,1.24l-1.48-1.43L135.52,192z M445.73,314.69l0.949-1.04l0.221-0.95l5.52-2.99l2.73-2.76l-1.561,0.34l3.521-4.89
		l2.609-10.25l7.92-0.39l-0.13-1.27l-5.529,0.99l-1.131-1.33l0.74-0.38l0.74-1.23l-3.391,0.99l-0.829-1.47l-1.13,0.76l-7.9-3.85
		l-0.97,0.62l-4.13-1.61l-3.83-3.37l-0.91-0.76l-2.48-0.67l-1.35,1.09l-1.83-1.14l0.13-1.14l1.26-0.24l0.391,1.28l5.26-3.05
		l3.79-5.55l-1.48-1.48l2.48-3.57l0.609-0.48l1.181,0.81l-0.96,1.71l1.74,1.76l-1.561,2.33l0.96,2.23l4.57,4.23l3,0.38l1.609,1.71
		l-0.52,1.19l3.52,0.47l3.091,3.57l5.92-0.38l13.31-4.23l0.44-1.8l-6.221,1.74l1.95-5.55l-7.83,0.14l-9.439-2.04l1.75-1.48
		l-1.48-3.51l-2.359-4.24l1.439-3.38l0.26-0.52h2.57l0.13,2.76l4.221,5.18l7.959,2.38l4.221-0.42l2.529-3.29l0.44-3.38l1.82-1.17
		l1.05-1.1l1.78-5.71l-2-1.52l-6.351,2.85l-0.819-2.64l-2.011-4.3l1.82-1.67l-0.78-2.42l0.521-1.06l4.57,0.67l0.739,4.81
		l-2.439,1.05l1.659,2.17l-0.31-1.56l4.22-0.52l3.131-2.95l-2.091-1.9l3.87-0.81l-1.04-1.33l-0.83,0.38l-1.649-0.28l-0.04-1.86
		l-0.65-0.33l1.311-0.95l1.3,0.82l1.479-1.91l-0.18-1.48h-1.47l0.699-1.86l1.041,0.51l-0.271-2.71l-3.729-0.57l-0.7-1.1l1.83-0.52
		l0.13-1.38l-0.57-0.43l7.49-7l2.56-5.39l1.22-0.479l1.221-2.76l1.87-1.29l-0.44,1.57l1.87-1.19l2.65,0.29l0.39-3.11l1.57,1.81
		l3.13-1.33l-0.13-1l1.779,0.57l0.261-0.19l6.18-4.58l-0.83-1.38l0.78-0.48l0.91,1.62l0.3-2.43l0.39-0.43l0.91,0.67l4.35-3.1
		l1.261,0.33l10.09-9.02l7.17-2.23l0,0l1.03,3.07l0,0l22.01,62.45l21.18,0.24l4.141-1.48l0,0l0.34-0.06l0,0l18.05,0.02l7.479-2.03
		l0,0l2.21-1.17l0,0l5.96-5.85l4.221-0.43l0,0l8.569-5.24l3.87-0.33l0,0l4.7-3.05l0,0l13.48,3.86l7.26-1.14l2.939-1.91l0,0
		l3.11,9.13l-4.49,4.74l0.16,6.48l-4.2,2.57l-0.35,2.53l1.78,7.08l-0.19,12.76l5.86,6.67l0.359,11.36l-6.899,10.37l-1.78,6.71
		l2.74,1.551l4.76-0.391l5.8,2.59l7.55-3.76l5.82-0.32l3.39,6.91l1,7.811l3.07,3.85l4.11,8.69l-19.29,5.63l-11.61,5.81l-7.649-4.399
		l-6.61,2.319l-14.59-1.229l-8.391,4.87l-7.05,4.31l-9.87,1.63l0.82,5.42l11.8,7.21l0.75,1.431l0.891,19.369l-8.171,11.631l-3,6.52
		l-3.6,19.21l-11.53,13.04l-4.76,23.311l-3.51,10.01l-15.851,26.59l-1.13,9.04L577.4,525l-0.58,13.99l1.43,19.909l-2.6,13.69
		l0.609,5.46L544.25,612l-271.3-62.5l-108.1-21.62L60.35,402.66L9,338.7l2.34-19.24l-3.41-5.34l2.21-1.04l1.35-3.89L9.66,304.4
		l0.09-7.12l-1.78-1.8l1.61-0.85l-0.35-1.67l1.74,0.95l1.52,2.75l1.65,0.66l1.13,4.32l2.13,2.52l-0.25,1.09l-1.1-0.15l1.13,1.27
		l-1.35,0.1l-0.7,3.08l0.96,8.061l1.7,2.37l-0.49,1.47l-1.47-0.28l0.39,1.28l4.78-3.42l1.13-2.86l-0.87-8.29l-2.78-3.08l0.78-3.23
		l2.7,5.88l-0.09,2.75l2.78,4.319l1.05,6.4l2.44,0.47l1.74-1.42l-1.09-4.979l4.74-6.55l-0.61-1.29l5.92,4.27l-0.35,13.47l-1.44,1.19
		l-0.74,2.42l-0.01,0.62l-0.08,1.609l3.44,10.9l-0.13,10.14l2.74,4.4l5.26,3.6l12.31,1.75l0.7-0.38l-1.91-1.33l0.09-1.329
		l2.09,0.659l1.04-1.42l4.61-1.09l1.83,2.79l4.83,0.95l3.57-1.61l3.26,3.41l6.48,2.08l3.6-1.75l5.32,1.75l9.74-0.62l18.35-6.3
		l5.52-4.83l9.35-3.6l6.13-3.841l0.83-2.939l-4-2.8l0.09-2.61l2.22,0.38l-1,2.7l3.96,1.8l1.17-1.47h3.74l3.27-2.65l8.47-3.79
		l-1.26-1.85l0.56-6.16l5.09-2.32l3.96,1.61v0.28l1.13,3.27l3.48,1.46l2.3,4.28l1.44-0.29l0.35-1.43l4.82,0.62l0.43-0.141l0.87,0.05
		l0.26,0.091l1.31-0.051l0.56-1.52l5.09,4.31l11.14-3.75l3.48,2.851l5.18-0.62l3.48-1.94l2,2.32l2.13-0.05l6.09-4.17l4.91,2.84
		l1.13-0.47l1.31-0.29l3.83,3.979l2-0.09l6.14-2.32l3.91-0.199l0.39-4.881l1.91-0.949l8.92,4.09l0.96,2.37l5.09,4.46l3.65-0.101
		l0.04-1.08l4.09,0.95l0.91-0.76l2.09,2.7l0.84,1.609l0.38,1.04l3.96-1.09l-0.87-2.7l1.96,0.38l3.78-1.899h5.92l2.7-1.94l3.44-0.479
		l2.48,2.85l1.09-0.91l0.17,1.67l1.91,0.57l2.78,1.28l5.62,0.99l0.94,2.659l4.35,4.44l6.35,0.77l10.4-2.04l3.96-2.46l4.52,1.851
		l20.96,1.01l28.64-11.5l6.57-0.229l9.63-4.46l3.29-6.101l3.521-0.939v-2.58L409.43,316l-5.59-3.12l-3.74-0.24l-0.31-1.529
		l2.26-0.65l-1.569-3.65l7.569-4.93l0.67,4.02l3.05,4.23l9.16,9.63l3.29,1.17l9.86-2.109l6.57,1.41l2.109-4.23L445.73,314.69z
		 M210.38,157.92l1.09,0.79l-0.22,3.59l-2.09-2.39l0.09-1.96L210.38,157.92z M421.24,142.46l2.58,2.91l0.51,4.35l-5.09-1l-1.48-1.39
		l-0.13-3.06L421.24,142.46z M137.92,68.36l0.79,2.14l-1.05,0.86l-0.91-1.58L137.92,68.36z"/>
	<path id="AE-DU" fill="#1E3250" stroke="#1E3250" stroke-width="0.5" d="M553.37,182.69l3.17-1.96l17.44-20.25l10.18-14.29
		l0.09-2.49l0.83,0.1l-0.7-0.67l1.351,0.05l0.22-1.05l-0.91-0.86l1.52,0.86l1.521-2.49l-1.7,1.05l-0.22-0.81l2.31-2.06l0.221,2.82
		l2.39,0.34l6.13,6.46l-1.479,3.73l-2.521,0.96l-0.22,1.39l1.3-1.34l0.7,1.19l2.479-1.48l1.3-4.16l-7.31-7.13l-2.44-0.1l0.391-1.63
		l6.04-4.46l7.59,2.09l10.74-3.92l1.83,4.16l0,0l1.609,1.82l0,0l6.391,2.92l5,5.36l0,0l7.439,4.73l3,0.05l0,0l1.17,1.2l6.181,25.08
		l-5.17,6.01l-1.65,5.73l1.22,3.77l4.74,5.06l1.3,5.34l-0.13,6.91l3.22,15.06l-0.91,8.81l-0.83,1.57l-4.699,3.05l0,0l-3.87,0.33
		l-8.57,5.24l0,0l-4.22,0.43l-5.96,5.85l0,0l-2.21,1.17l0,0l-7.48,2.03l-18.05-0.02l0,0l-0.34,0.06l0,0l-4.14,1.48l-21.181-0.24
		l-22.01-62.45l0,0l-1.03-3.07l0,0l2.62-2.49l3-0.96l-0.74-3.77l2.44,6.54l-0.74,1.1h1.57l3.26-3.63l-3.439,2.15l-0.261-0.95
		l2.83-2.62l-3.22,1.91l-1.7-4.58h3.32V182.69z M730.09,216.25l-1.79,7.58l-3.859,1.68l-2.091,5.06l-3.88,1.24l-4.819-0.32
		l-4.79-2.15l0,0l4.8-5.46l2.609-6.81l0,0L730.09,216.25z"/>
	<path id="AE-FU" fill="#1E3250" stroke="#1E3250" stroke-width="0.5" d="M744.58,210.44l-0.68,0.87l0,0l-2.96-6.26l0,0l-1.091-0.52
		l0,0l1.16-2.33l0,0l0.48-2.9l4.18-0.6l6.7,0.87l0,0l0.74,0.56l0,0l-0.79,4.64l-6.061,1.93L744.58,210.44z M758.49,132.75
		l-2.521,17.36l0.09,21.18l0,0l-10.09,0.02l-2.33,2.33v3.21l3.21,5.54l-0.39,9.39l0,0l-8.64-1.23l0,0l-4.051-3.99l0.32-4.11
		l-4.14-5.31l-3.5-1.46l-2.83,0.41l0,0l0.21-5.07l0,0v-12.24l2.33-9.91l5.75-2.98l0,0l2.29,1.8l5.609,1.1l2.221-0.34l2.13-2.1l0,0
		l7.09-5.83l0,0l0.78-3.49l0,0l6.029-4.42l0,0L758.49,132.75z M728.39,72.17l2.63,2.19l1.75,3.5l3.29,2.19l2.131,0.19l3.64-3.27
		l1.09,3.02l2.13,1.82l0.261-0.91l1.52,0.05l-0.52-0.86l9.05,3.26l0.13,8.49l2.22,3.64l-1.74,6.66l0.83,11.11l0,0l-3.63,3.23l0,0
		l-3.74,4.17l-7.22,3.16l-1.09,2.63l0,0l-0.74,4.4l-5.83,2.39h-2.609l0,0l-1.83-1.05l0.83-2.01l-6-1.68l-2.04,0.19l-4.09,3.01
		l-0.351,1.67l3.87-0.29l1.35,1.72l4.261,0.77l-1.61,2.73l-5,1.39l0.48,6.07l-1.7,0.48l-2.13,3.11l-3.391-0.14l-3.57-1.96
		l-3.909,1.82l-3.92-1.72l-5.61,0.1l0,0l0.91-4.3l-2.311-5.45l0,0l4.79-3.64l-0.739-3.3l-3.131-1.63l0,0l2.83-8.47l0,0l3.091,3.88
		l10.609,3.16l2.61-0.96l1.83-3.21l3.569,0.57l0.561-7.37l-5.61,0.77l-1.52-0.77l-0.96-2.35l6.22-8.43l-4.65-6.28l-6,2.88
		l-8.609,0.14l-3.92-1.2l-2.74-17.07l1.57-1.63l5,0.72l3.779-1.54l1.301-3.26l4.22-3.55l2.83,1.63l3.83-2.16l5.649-0.43l1.49-1.57
		l0,0L728.39,72.17z"/>
	<path id="AE-RK" fill="#1E3250" stroke="#1E3250" stroke-width="0.5" d="M697.57,147.46l5.609-0.1l3.92,1.72l3.91-1.82l3.57,1.96
		l3.39,0.14l2.13-3.11l1.7-0.48l-0.479-6.07l5-1.39l1.609-2.73l-4.26-0.77l-1.35-1.72l-3.87,0.29l0.35-1.67l4.09-3.01l2.04-0.19
		l6,1.68l-0.83,2.01l1.83,1.05l0,0l-1.35,3.54l0,0l1.32,9.11l0,0l-5.75,2.98l-2.33,9.91v12.24l0,0l-0.29,6.99l0,0l0.29,2.62
		l4.66,7.58l-0.29,5.54l-3.21,2.62V199l2.329,2.91l12.011,2.37l0,0l1.609,0.76l0,0l2.96,6.26l0,0l-5.689,2.77l-6.311,0.65l-1.8,1.52
		l-13.81,0.81l-8.13-7.29l-2.471-13.74L704,192.4l-4.97-2.52l-2.98-0.18l0,0l-0.64-3.84l-3.74-6.3l-0.35-6.97l5.52-10.89l-4.74-6.02
		l0.171-3.49l5-2.96L697.57,147.46z M706.38,25.14l-2.7,7.17l-0.479-0.82L706.38,25.14z M707.73,20.14l0.869,1.2l-1.04,0.87
		l-0.22-0.77L707.73,20.14z M724.53,0.66l1.66,2.16l0.85,3.93l0.06,10.46l-5.04,26.88l0.04,3.14l2.431,6.23l-1.681,7.8l0.24,9.08
		l0.99,2.32l0,0l-1.49,1.57l-5.65,0.43l-3.829,2.16l-2.83-1.63l-4.221,3.55l-1.3,3.26l-3.78,1.54l-5-0.72l-1.569,1.63l2.74,17.07
		l3.92,1.2l8.609-0.14l6-2.88l4.65,6.28l-6.22,8.43l0.96,2.35l1.52,0.771l5.61-0.771l-0.561,7.37l-3.569-0.57l-1.83,3.21l-2.61,0.96
		l-10.61-3.16l-3.09-3.88l0,0l-3.479-1.91l-2.431,0.72l-0.479,6.08l-2.521,4.59l-2.52-3.73l0,0l-2.78-4.02l-6.439-4.45l4-4.07
		l-0.17-1.39l0,0l-6.96-6.28l-2.351-3.98l0,0l0.44-7.72l-1.13-5.23l0,0l-2.351-3.88l0,0l-2.609-9.02l-5.29-0.08l-2.61-3.59
		l3.91-5.47l2.31,0.53l-0.52-1.44l1.649,0.1l-1.779-1.39l2.22-3.6l0.439,1.49l5.091,0.29l5.96-2.21l10.09-10.37l2.13-4.32l0.29,3.63
		l-1.2,2.271l1.43-0.56l2.091,0.14L692.8,50.1l1.65-0.01l0.22-0.82l-2.22-0.19l-0.09-2.45l2.26-1.59l2.04-0.53l3.7-7.07l0.96,0.05
		l0.739-3.94l4.87,0.1l-0.609-1.11l1.96-3.32l-0.7-2.4l2-4.19l-2.65-5.87l1.351,1.4l2.609-2.65l2.87-13.479l1-1.2l2.601,0.41
		l3.13-1.2L724.53,0.66z"/>
	<path id="AE-SH" fill="#1E3250" stroke="#1E3250" stroke-width="0.5" d="M741.01,202.2l-1.16,2.33l0,0l-0.52-0.25l0,0l-12.01-2.37
		l-2.33-2.91v-2.62l3.21-2.62l0.29-5.54l-4.66-7.58l-0.29-2.62l0,0l0.08-1.93l0,0l2.83-0.41l3.5,1.46l4.14,5.31l-0.319,4.11
		l4.05,3.99l0,0l-1.75,2.62l0,0l0.29,3.21l0,0l5.25,2.33L741.01,202.2z M756.05,171.29l0.57,8.06l0.74,1.62l-0.17,0.19l-1.091,3.01
		l2.351,5.82l-4.97,0.97l-1.08,2.54l-5.961-1.74l0,0l0.391-9.39l-3.21-5.54v-3.21l2.33-2.33H756.05z M744.5,135.18l2.62,1.17v2.62
		l-2.62,1.46l0,0l-2.62-1.17v-2.33L744.5,135.18z M756.79,113.27l0.09,5.22l-2.61,4.79l1.48,2.82l1.3-0.24v-1.48l1.61,1.87
		l0.87,4.21l-1.48,2.16l0,0l-6.03,4.42l0,0l-0.239-4.77l0,0l-1.17-3.79l0,0l0.39-9.59l2.15-2.39l0,0L756.79,113.27z M624,97.84
		l5.07,3.57l7.09,3.69l1.65,3.16l3.52,1.87l0,0l11.22,3.4l3.7,4.88l8.311,5.89l0,0l0.699,1.01l0,0l2.92,11.25l1.561,1.29l6.53,0.96
		l8.699-3.25l0,0l0.83-0.62l0,0l0.391-4.02l-1.521-4.31l3.83-0.19l0,0l2.521,3.73l2.52-4.59l0.48-6.08l2.43-0.72l3.479,1.91l0,0
		l-2.83,8.47l0,0l-3.439,3.92l2.52,4.64l0,0l2.311,5.45l-0.91,4.3l0,0l-0.3,1.77l-5,2.96l-0.17,3.49l4.74,6.02l-5.521,10.89
		l0.35,6.97l3.74,6.3l0.641,3.84l0,0H689.6l-9.609,5.24l-9.88,12.47l-0.73,5.08l2.84,13.6l-1.17,7.45l0.851,3.41l0,0l-2.94,1.91
		l-7.26,1.14l-13.48-3.86l0,0l0.83-1.57l0.91-8.81l-3.22-15.06l0.13-6.91l-1.3-5.34l-4.74-5.06l-1.22-3.77l1.649-5.73l5.171-6.01
		l-6.181-25.08l-1.17-1.2l0,0l-3-0.05l-7.439-4.73l0,0l-5-5.36l-6.391-2.92l0,0l-1.609-1.82l0,0l-1.83-4.16l-10.74,3.92l-7.59-2.09
		l5.479-8.32l-0.3-2.11l1.13,0.29l1.61-1.87l0.7-0.14l-1.87,2.3l-0.17,2.3l0.779-0.24l-0.479,3.16l1.7,0.57l0.74-1.72l-2.351-3.92
		l2.7-2.3v-1.48l4.09-2.92l4.021,2.85l0,0L623,123.7l0,0l14.92,0.77l4.48-10.25l-4.83-2.2l-8.48-0.05l-4.26-3.59l-2.609,0.29
		l-1.67-3.9l1.35-0.62l-1.35,0.05L624,97.84z"/>
	<path id="AE-UQ" fill="#1E3250" stroke="#1E3250" stroke-width="0.5" d="M642.53,90.79l-0.87-1.01l1.17-0.38l-0.35-1.25l1.869-2.88
		l2.83-1.49l2.65-4.32l1.96,0.62l0.35-1.58h0.96l-0.739-0.82L656.8,76l3.44-3.31l2.609,3.59l5.29,0.08l2.61,9.02l0,0l2.35,3.88l0,0
		l1.131,5.23l-0.431,7.72l0,0l2.351,3.98l6.96,6.28l0,0l0.17,1.39l-4,4.07l6.439,4.45l2.79,4.02l-3.83,0.19l1.521,4.31l-0.391,4.02
		l0,0l-0.829,0.62l0,0l-8.7,3.25l-6.53-0.96l-1.561-1.29l-2.92-11.25l0,0l-0.699-1.01l0,0l-8.311-5.89l-3.7-4.88l-11.22-3.4l0,0
		l-3.52-1.87l-1.65-3.16l-7.09-3.69l0,0l0,0l0,0L624,97.84l0,0l6-11.99l2.3-1.63l1.17-2.97l0.91,3.74l-0.61,1.15L631.57,86
		l-0.78,6.57l0.87,3.4l0.96-1.49l2.31,0.53l1.221-1.29l2.52,0.38l1.91-1.29l2.04,0.82l2.609-1.73l-2.479,0.29L642.53,90.79z
		 M550.11,37.88l-1.65,1.11l-1.39-1.73l-1.351,0.34l0.17-1.92l-1.26,0.38l0.57-2.16l3.87-2.74l1.479,0.53l1.7,5.82l-0.43,0.91
		L550.11,37.88z M643.05,84.7l-1.479-1.87l-1.301,0.19l-0.17-1.29l-3.35,3.02l-1.83,0.14l2.521-3.02l6.05-3.17l1.78,0.34l3.609-1.58
		l6.26-4.56l-7.22,6.19l-2.22,0.19l1.7,1.3l-3.61-0.53l1,1.87l-0.649,1.01l-2.131-0.67L643.05,84.7z M633.34,93l-0.59-3.16l1-3.45
		l2.13,6.09l-1.09,1.82L633.34,93z M638.92,85.41l0.57-0.85l-0.87-0.48l2.26-0.91l1.65,2.11l-2.87,2.93l-1.91-0.82L638.92,85.41z
		 M640.66,89.26l-1.65,2.16l-1.87-1.2l-0.09-0.72L640.66,89.26z M636.7,91.13l2.609,0.91l-2.26,0.91L636.7,91.13z"/>
	<path id="OM-MU" fill="#1E3250" stroke="#1E3250" stroke-width="0.5" d="M751.79,132.27l0.24,4.77l-0.78,3.49l0,0l-7.09,5.83l0,0
		l-2.13,2.1l-2.221,0.34l-5.609-1.1l-2.29-1.8l-1.32-9.11l0,0l1.35-3.54l0,0h2.61l5.83-2.39l0.74-4.4l0,0l1.09-2.63l7.22-3.16
		l1.59-1.77l-0.39,9.59l0,0L751.79,132.27z M744.5,135.18L744.5,135.18L744.5,135.18l2.62,1.17v2.62l-2.62,1.46l0,0l-2.62-1.17
		v-2.33L744.5,135.18z"/>
	<path id="AE-NZ1" fill="#1E3250" stroke="#1E3250" stroke-width="0.5" d="M708.86,229.33l-0.95-3.64l-3.78-5.72l-0.12-4.21
		l-5.46-5.29l-1.31-4.31l3.52-1.47l3.221,1.35l12.3,11.01l0,0l-2.61,6.82L708.86,229.33z"/>
	<path id="AE-NZ2" fill="#1E3250" stroke="#1E3250" stroke-width="0.5" d="M753.12,200.13l-0.75-0.56l0,0l-6.7-0.87l-4.18,0.6
		l0.1-0.6l-5.25-2.33l0,0l-0.29-3.21l0,0l1.75-2.62l8.641,1.23l5.96,1.74L753.12,200.13z"/>
</g>
</svg>
