<?xml version="1.0" encoding="utf-8"?>
<!-- Generator: Adobe Illustrator 15.0.0, SVG Export Plug-In . SVG Version: 6.00 Build 0)  -->
<!DOCTYPE svg PUBLIC "-//W3C//DTD SVG 1.1//EN" "http://www.w3.org/Graphics/SVG/1.1/DTD/svg11.dtd">
<svg version="1.1" id="Layer_1" xmlns:amcharts="http://amcharts.com/ammap"
	 xmlns="http://www.w3.org/2000/svg" xmlns:xlink="http://www.w3.org/1999/xlink" x="0px" y="0px" width="807.5px" height="460.5px"
	 viewBox="0 0 807.5 460.5" enable-background="new 0 0 807.5 460.5" xml:space="preserve">
<defs>
	
	
		<amcharts:ammap  projection="mercator" leftLongitude="41.813829" topLatitude="19.005793" bottomLatitude="12.124339" rightLongitude="54.536421">
		</amcharts:ammap>
</defs>
<g>
	<path id="YE-AB" fill="#1E3250" stroke="#1E3250" stroke-width="0.5" d="M204.77,390.11l-2.59-4.96l0.33-2.631l2.47-1.479l2.3-3.13
		l3.79-12.19l3.96-1.649l0.66-2.641l-3.46-3.779l-2.64-1.32l1.65-3.46l3.79-3.79l0.82-2.47l-1.15-1.15l-4.29,0.82l-1.31-1.98
		l1.15-1.149l4.28-0.33l-0.16-2.471l-1.16-0.989l0.33-2.311l1.32-0.979l2.97,0.489l1.81-0.659l-0.33-1.65l-1.32-0.98l-0.49-1.979
		l0.66-1.32l0,0l4.28,0.17l0,0l2.96-0.5l1.65,1.48l1.81-1.15h3.96l2.63,3.79l5.77-0.16l2.3-1.159l2.64-3.46l10.38-5.761h1.31
		l0.33-5.27l2.97-1.16l1.32-7.58l2.37-2.22l0,0l0,0l0,0l6.75-3.95l0,0l3.79-0.33l3.3,1.65l3.62,5.1l0.49,2.14l-1.97,4.45l-1.65,1.65
		l-0.16,1.81l9.71-1.479l1.49,0.819l2.96-1.649l0,0l3.63-2.3l0.82-3.131l0,0l1.45-1.149l0,0l4.45,0.32l4.28-0.82l6.59,2.97h5.6
		l0.99,2.141l2.14-2.971l0,0l0.82-1.81l2.47-0.33l1.82,0.99v6.59l5.1,3.29l0,0l1.16,18.7l0,0l0.98,1.979l-0.98,3.46l0,0l0.11,3.49
		l-17.56,4.31l-5.13,3.32l-8.44,3.47l-5.04-0.819l-10.22,1.96l-12.12-1.69l-10.22,1.271l-4.15-0.391l-22.36,4.47l-7.11,6.16
		l-5.83,8.051l-4.38,4.319l-10.41,2.37l-4.65,2.26L204.77,390.11z"/>
	<path id="YE-AD" fill="#1E3250" stroke="#1E3250" stroke-width="0.5" d="M204.08,391.25l-2.85,6.46l-0.38,2.45l0.88,1.76
		l-0.73-0.37l-0.41,0.92l-4.13-1.6l0.24-0.76l3.2-0.73l-0.97-2.25l0.95-0.18l-1.81-0.79l-0.4,2.17l-0.67-1.11l-2.39,0.23
		l-2.09,1.149l-0.97,2.561l-0.92-0.67l0.35-0.86l-1.92-0.04l-0.59,1.53l5.03,0.53l-0.33,1.29l-1.7-0.19v1.15l-2.89,0.46l-2.28-3.051
		l-2.3-0.02l-2.93,2.08l0.13-1.67l-1.92-1.87l-6.25-1.43l-5.05,2.26l-5.83,7.1l-1.5-0.649l0,0l0.67-3.15l3.79-5.439l5.77-2.641
		l17.46-0.82l5.27-2.8l10.52-1.09l0,0L204.08,391.25z"/>
	<path id="YE-AM" fill="#1E3250" stroke="#1E3250" stroke-width="0.5" d="M115.1,223.89v-1.32l0,0l1.65-0.66l0,0l-0.49-1.32
		l-1.32-0.49l0,0l-0.33-1.98l0,0l0.66-2.14l2.3-0.33l0.99,1.15l1.49-0.32v-3.63l1.48-0.66l0,0l-0.17-1.81l0,0h-2.3l-0.17-4.61l0,0
		l1.49,0.16l0,0l-1.49-3.13l0.17-4.77l-0.99-2.31l-1.81-1.32l-4.94,3.96l-0.66-1.82l2.47-1.97l0,0l0.82-1.65l0,0l-3.95-5.93
		l0.33-5.44l-1.81-1.64l0,0l-1.65-1.32l0.33-2.97l0,0l-1.16-5.93l1.16-1.64l0,0l0.99-1.32l0,0l-0.24-12.3l1.26-0.63l0,0l7.57-1.32
		l5.77-2.8l0,0l3.95,1.65l3.46,0.33l0,0l5.6,0.98l4.7-0.2l0,0l-0.02,0.04l0,0l5.11,1.48l1.81-0.99l1.48,1.16l0,0l1.15,2.96
		l4.12,3.79l0,0l0.33,4.45l-1.15,0.99l-0.17,7.9l0,0h2.81l-0.66,5.271l-1.32,1.98l0.66,3.46l1.64,1.81l0,0l2.31,0.66v3.46l0,0
		l0.16,0.14l0,0l-1.67,1.59l-3.63,0.16l-1.98,1.98h-3.78l-1.49,7.25l2.31,2.31l-2.47,4.86l-2.97,2.47l0.17,3.62l1.48,0.66
		l-0.66,1.65l-2.47,0.66l-0.99,2.14l-2.8,1.97l-3.13,0.66l-0.16-3.29l-2.64,1.48l-0.16,3.95l0,0l-6-2.39l-0.82-1.31l-1.32,0.16
		l-0.49,2.31l-3.3,0.99l-1.48-1.32h-1.98l0,0L115.1,223.89z"/>
	<path id="YE-BA" fill="#1E3250" stroke="#1E3250" stroke-width="0.5" d="M222.18,330.13l-0.17-8.399l-1.15-1.641l-1.98-0.17
		l-5.27,5.771l-2.31,0.159l-0.49-1.149l-2.64-0.16l0,0l-0.16-3.63l0,0l-2.47-3.13l-3.3-0.16l-0.33-3.63l-3.62-3.95l-0.16-1.48h-9.06
		l-2.8,2.141l-3.13-2.47l-1.98,3.46l0,0h-2.97l0,0l-3.95-1.16l-0.33-3.79l1.32-0.16l0.16-2.31l-1.15-0.65l0,0l-1.32-0.33v-1.98
		l1.49-1.48h3.78l1.32-6.59l2.8-0.83l-0.16-2.8l-1.49-1.64l-0.32-6.1l1.81-2.8l6.09-3.62l0,0l2.14-2.64l0,0l2.55-0.9l0,0l0.02,0.08
		l0,0l8.4-2.14l1.82,14l1.48,4.45l5.6,2.8l0.49-2.15l1.98-1.64l5.11,1.81l0.49-1.48l-2.47-1.82l0.99-1.31l2.96,1.97l1.98-0.16
		l1.81-4.28l1.81,0.98l-0.33,1.98h3.63l2.3-6.42l-0.15-2.31l0,0l8.46,0.25l0,0l0.49,7.9l0,0l6.76,0.5l3.62,6.92l1.32,4.77l0,0v5.28
		l7.41-0.99l5.93,6.09l0,0l-2.37,2.22l-1.32,7.58l-2.97,1.16l-0.33,5.27h-1.31l-10.38,5.761l-2.64,3.46l-2.3,1.159l-5.77,0.16
		l-2.63-3.79h-3.96l-1.81,1.15l-1.65-1.48l-2.96,0.5l0,0L222.18,330.13z"/>
	<path id="YE-DA" fill="#1E3250" stroke="#1E3250" stroke-width="0.5" d="M208.17,324.39l-1.97,5.42l-2.14,2.471l-9.23,7.239
		l-2.63,0.5l-1.82,1.65l-1.81-0.99h-2.8l2.8,9.221h-3.13l-0.66-1.15h-1.64l-2.31,2.14l-4.61,0.99l-1.81-1.32l-2.15,1.65l-3.46-1.979
		l0,0l-2.14-3.29l-7.08-0.171l-0.33-2.47l1.81-0.66l-0.33-4.12l0,0l-1.64-2.47l0,0l0.33-2.14l5.6-6.26l-0.66-2.471l4.28-2.3h3.62
		l1.49-1.49l-2.31-0.659l-1.15-1.641l1.15-1.82l1.81-0.649l0.17-2.97l3.13,0.33l1.81-1.32l-0.08-1.97l0,0h2.88l0,0l1.98-3.46
		l3.13,2.47l2.8-2.141h9.06l0.16,1.48l3.62,3.95l0.33,3.63l3.3,0.16l2.47,3.13l0,0L208.17,324.39z"/>
	<path id="YE-DH" fill="#1E3250" stroke="#1E3250" stroke-width="0.5" d="M120.79,316.67l-1.34,1.19l0,0l-1.81,1.159h-2.63
		l-3.79-3.96l-3.3-0.159l0,0l-2.14-1.32l-0.49-2.47l1.81-0.99l0.66-1.811l0,0l-4.78-7.41v-1.82l0,0l4.12-0.32l0,0l0.16,1.31h1.49
		l0.82-1.64l3.29-1.98l1.65-3.3l3.79-0.49l0.66,1.32l3.29-0.17l4.94-2.96l4.62-4.61l0.33-1.65l-2.14-2.64l0.49-3.13l-9.23-7.9
		l-0.35-2.21l0,0l0.35,0.06l0,0v-1.48h4.78l0.17,1.32h1.81l2.47-2.14l0.49-1.81l1.98-0.33l2.47-2.8h1.65l0.16-1.65l1.49-1.32
		l7.24,0.33l4.62,3.79l6.91,0.49l0.83-1.15l-0.99-0.66v-1.65h1.98l3.46,3.14l5.6-1.32l2.63-2.31l8.07-1.65l1.49,0.66l-0.17,9.23
		l4.28,1.31l2.47,4.78l1.82,1l0,0l-0.73,0.9l0,0l-6.09,3.62l-1.81,2.8l0.32,6.1l1.49,1.64l0.16,2.8l-2.8,0.83l-1.32,6.59h-3.78
		l-1.49,1.48v1.98l1.32,0.33l0,0l-3.23,2.38l-1.65-2.3l-3.95-0.17l-1.65-2.8h-2.8l-3.29-1.65l-3.95-0.65l-3.63-4.12l-1.81-0.5
		l-1.15,4.62l-3.13,0.16l-0.5,1.32h-2.3v-6.76h-1.49l-4.44,5.93l-1.65,0.33l-1.32,1.65l-1.48-0.16l-0.66,1.31l1.15,0.5l1.16,3.29
		l-2.31,2.64l-4.94,2.63l0.16-2.63h-2.3l-1.16,6.75l-1.15,1.16l0,0L120.79,316.67z"/>
	<path id="YE-HD" fill="#1E3250" stroke="#1E3250" stroke-width="0.5" d="M698.72,438.74l2.311,0.399l0.779,2.53l-1.76,0.53l-5-2.57
		L698.72,438.74z M639.43,434.69l4.061,0.529l3.27,2.09l4.771-0.25l2.56,1.11l4.65-0.55l-1.71,1.18l0.71,1.48l-5.17,0.529
		l-3.63-0.63l-0.9-1.58l-7.82-1.279l-2.25-1.65L639.43,434.69z M730.24,404.92l3.91,1.021l2.819-0.261l6.811,5.07l4.739,1.62
		l3.36-3.29l4.2,0.6l2.99-0.66l4.479-1.81l0.97-1.57l4.511,2.431l2.01-0.721l1.51,1.83l-0.5,0.49l2.96-0.08l1.641,1.53l4.43,0.729
		l7.06,3.78l2.38-0.78l1.341,0.131l0.14,0.869l-5.21,1.351l-0.4,2.26l-2.09,1.14l-10.72,2.4l-1.11,2.08l-5,2.8l-6.189-0.04
		l-2.011,1.521l-5.02-0.351l-8.8,1.78l-6.78,0.12l-8.23-2.271l-1.59-2.87l-3.729-3.68l-9.65-5.53l0.78-0.88l1.26,0.34l3.44-1.279
		l0.14-6l4.43-1.141l1.091-1.779L730.24,404.92z M353.44,122.21l-16.94,10.75l-12.7-0.65l0,0l0.03,39.44l0,0l-42.1,47.47l0,0
		l37.5-3.85l0,0l22.15-0.65l22.8-2.93l14.33,0.98l-8.14,12.7l0,0l-8.47,8.14l0,0l-1.63,11.73l-2.6,4.23l0,0l7.17,4.23l0,0
		l-0.33,3.91l-1.95,2.93l0,0l-8.79,4.89l0,0l-3.26,2.61l9.45,11.07l-0.33,4.89h2.61l0,0l11.73,6.19l6.19,0.98l1.95,3.91l9.12,6.84
		l0,0l0.33,2.61l1.96,2.93l0,0l8.79,3.261h6.19l5.21-2.28v2.93l0,0l2.61,0.98l2.93,3.26l0,0l2.76,4.36l0,0l6.47-0.12l3.811-4.311
		l2.3-1.1l4.2-4.61l0.36-2.39l3.17-1.19l1.89-2.89l2.8-0.87l-0.689-2.39l2.04-4.7l5.5-6.05h2.47l1.64,1.26l0.45-2.48l5.311-3.16
		l22.14-10.2l14.49-3.7l5.21-2.35l4.67-0.07l0.76,2.06l5.41-1.96l4.1,0.37l0.87-1.39l4.15-2.47l3.77-1.48l0.851,0.62l2.609-2.92
		l6.43-3.84l20.37-4.27l0,0l-8.77-16.35l-3.66-0.24l-0.979-1.47l-10.021-4.4l-10.75-2.2l-0.24-2.2l1.96-0.49l-0.239-5.13
		l-6.601-1.95l-1.47-1.95l3.18-19.05l3.91-4.89l0.98-3.18l-3.421-4.64l-2.689-1.95l1.47-5.62l3.66-7.57l-0.24-4.4l2.931-4.4
		l-2.2-1.47l-0.24-2.93l3.91-5.13l3.67-2.44l5.37-1.47l4.89-0.24l3.42-1.71l4.641-4.4l0.239-4.15l4.15-3.42l14.17-9.04l4.15-1.95
		l2.93-0.24l1.71-4.64l8.8-9.28l13.19-28.83l4.64-31.02l7.57-12.7l2.2-6.11l4.64-8.31l13.68-17.1L636.25,0l0,0L561.9,14.73
		L457.34,26.13L399.36,54.47l-37.78,46.25L353.44,122.21z"/>
	<path id="YE-HJ" fill="#1E3250" stroke="#1E3250" stroke-width="0.5" d="M87.04,153.23l1.16-0.08l0,0l2.72,0.98l0,0l1.65,1.15
		l2.8,0.33l0,0l7.41-2.47l5.11,1.32l0,0l0.3,12.27l0,0l-0.99,1.32l0,0l-1.16,1.64l1.16,5.93l0,0l-0.33,2.97l1.65,1.32l0,0l1.81,1.64
		l-0.33,5.44l3.95,5.93l0,0l-0.82,1.65l0,0l-2.47,1.97l0.66,1.82l4.94-3.96l1.81,1.32l0.99,2.31l-0.17,4.77l1.49,3.13l0,0
		l-1.49-0.16l0,0l0.17,4.61h2.3l0,0l0.17,1.81l0,0l-1.48,0.66v3.63l-1.49,0.32l-0.98-1.15l-2.31,0.33l-0.66,2.14l0,0l0.33,1.98l0,0
		l1.32,0.49l0.49,1.32l0,0l-1.65,0.66l0,0v1.32l-1.48,0.49l-6.75-1.32l0,0l-16.57,2.97l0,0l-1.16-0.49v-5.61l-1.31-0.98l0.16-1.49
		h1.32l-0.33-3.79l-0.99-0.82l0.16-1.98l2.15-2.3v-5.93l-1.49-0.99l-2.3,0.16l-9.23,3.79l-7.41,0.99l-5.93-3.62l-1.8-0.07l0,0
		l1.54-11.53l-1.18-5.19l0.31-3.04l-1.36-3.36l-0.37-6.16l-2.48-3.95l0.83-0.98l8.45,1.23l2.99-0.75l-0.75-4.89l3.02-2.16l7.98-2.09
		l-0.09-1.91l1.86-4.95l-0.79-1.63l1.19-0.31L87.04,153.23z"/>
	<path id="YE-HU" fill="#1E3250" stroke="#1E3250" stroke-width="0.5" d="M60.1,337l-0.09,3.18l-1.37,0.641l-1.19,2.71l-1.66,0.14
		l-1,1.63l-1.19,0.181l-0.57-1.311l2.23-1.84l0.28-2.12L60.1,337z M61.81,330.87l-0.79,2.05l-1.16,0.46l0.31-1.649L61.81,330.87z
		 M58.98,318.49l2.06,2.75l-1.25,6.41l0.8,0.989l-0.67,0.53l-0.33-1.189l-1.57,0.8l0.88-2.511l-2.02-0.159l-3.25-3.261l1.87-2.39
		L58.98,318.49z M67.92,282.73l1.07,1.6l1.21-0.07l-1.31,0.41l-1.37-1.33L67.92,282.73z M22.57,254.1l1.19,2.1l-1.05,1.25
		l-1.19-2.13L22.57,254.1z M50.88,229.86l1.06,1.8l-2.16-0.43l-0.95,1.23l1.21-0.5l-0.05,1.37l-2.51,0.36l1.23,0.7l2.68-1.03
		l-1.69,4.15l0.35,2.3l-1.57,2.51l-0.92,0.09l-2.59-2.4l1.8-2.48l-0.73-3.23l2.89-2.8l-0.35-0.61L50.88,229.86z M42.93,226.75
		l1.8,0.45l-1.19,1.46l-0.88-0.34l0.83-0.98l-1.92,0.32L42.93,226.75z M34.49,224.93l0.71,0.28l-0.09,1.93l1.92,2.03l-1.94-1.5
		l-1.23-2.53L34.49,224.93z M1.63,223.42l0.61,1.59l-1.64,0.66l-0.57-1.11L1.63,223.42z M48.91,217.4l2.46,1.63l-2.54,0.41
		l-0.88-1.69L48.91,217.4z M29.89,213.35l0.81,3.62l-1.54-1.78L29.89,213.35z M35.82,211.21l3.08,1.77l2.79,0.25l0.04,0.77
		l-6.21,0.3l-0.47-2.62L35.82,211.21z M50.6,209.76l-0.45,1.68l-1.23,0.57l0.64-1.8L50.6,209.76z M62.14,202.9l1.8,0.07l5.93,3.62
		l7.41-0.99l9.23-3.79l2.31-0.16l1.48,0.99v5.93l-2.14,2.31L88,212.86l0.99,0.82l0.33,3.79h-1.33l-0.16,1.48l1.32,0.99v5.6
		l1.15,0.49l0,0l-0.16,2.31l0.99,0.99l0,0l0.82,1.48l-1.98,1.32l0,0l0.49,5.93L101,248.11l0,0l0.99,3.46l0,0l4.45,2.8l0,0l0.17,2.72
		l0,0l4.45,1.32l0,0h2.97l1.65,1.65l0,0l-1.48,1.81l0,0l-0.33,0.66l0,0l-4.78-0.16l-0.82,2.47l-1.65,1.65l-2.31,0.49l-1.65,4.28
		l2.47,4.78l-1.81,2.31l-0.33,4.94l2.14,1.98l2.31,8.4l0,0l0.66,3.13l-1.15,0.49l0,0v1.48l0,0L103,299.1l0,0v1.81l4.78,7.41l0,0
		l-0.66,1.81l-1.81,0.99l0.5,2.47l2.14,1.32l0,0l3.29,0.16l3.79,3.949h2.64l1.81-1.149l0,0l1.34-1.19l0.31,1.851l0,0l1.32,0.66l0,0
		l-3.29,2.14l0,0l0.33,2.47l-1.15,1.811l-2.96-2.471l-0.99,1.32l2.47,4.45l-2.59,0.12l0,0l-0.04-0.12l0,0h-1.81l-2.14,1.32
		l-2.47-0.49l-3.62,0.82l-0.82,4.779l0.49,1.48l-2.96,0.33l-0.99,3.46l-1.32,1.149l-6.85,2.561l0,0l-3.42-9.88l0.14-3.681
		l-4.63-4.66l-0.9-3.54L79.97,319l0.66-1.49l-1.25-2.359l-1.35-7.21l-4.32-10.18l-2.08-8.2l-1.28-0.92l0.03-1.7l0.52,1.9l1.11,0.32
		l0.37,2.72l0.88,0.03l1.71,3.34l0.05-1.63l-1.19-0.91l0.96-0.62l-0.81-0.75l0.73-2.73l-1.62-1.3l0.9-0.53l-1.12-5.9l-2.16-3.52
		v-3.87l-4.17-4.92l-0.83-2.84l0.42-1.58l1.52,1.6l-0.92,0.59l0.71,2.69l0.23-1.58l1.45-0.3l-0.67,1.21l1.28,2.92l0.55-2.93
		l-0.86-1.14l1.02,0.78l0.38-0.53l-0.5-2.93l-1.71-4.18l-2.85-2.46l-0.52-3.88l0.64-1.94l-1.83-2.78l-3.84-2.12l-6.43-1.78
		l-0.95,2.24h-1.49l-2.54-2.97l0.64-1.67l1.94,1.25l2.54-0.69l0.57-1.85l-1.23-2.58l1.33-1.19l0.52-2.08l0.45,0.91l-1.02,2.69
		l1.87-0.12l0.85,2.46l1.71-0.23l0.42,2.55l1.02-0.09l1.56-2.4l-1.05-1.8l-1.07-0.14l1.23-2.94l-2.16-4.44l0.93-2.69l-1.95-4.49
		l-2.89-1.57l1.61-2.37l-1.88-2.89l0.88-3.44l-1.69,0.73l-0.28-0.75l0.88-2.53l1.12,0.46l-0.57-0.95l2.46-0.93l0.02-1.79l1.26-0.43
		l0.07-1.37l1.14-0.45L62.14,202.9z"/>
	<path id="YE-IB" fill="#1E3250" stroke="#1E3250" stroke-width="0.5" d="M174.24,303.62l1.15,0.65l-0.16,2.31l-1.32,0.16l0.33,3.79
		l3.95,1.16l0,0h0.09l0,0l0.08,1.97l-1.81,1.32l-3.13-0.33l-0.17,2.97l-1.81,0.649l-1.15,1.82l1.15,1.641l2.31,0.659l-1.49,1.49
		h-3.62l-4.28,2.3l0.66,2.471l-5.6,6.26l-0.33,2.14l0,0l1,1.5l0,0l-4.23,4.021l-1.98-0.49l-2.31-2.64l-2.63,2.31h-1.81v-2.31
		l-3.3,0.329l-2.8-2.14l-0.82,1.48l-4.94-2.301h-4.78l0.16-1.489l2.14-2.301l-1.31-1.319l-1.65,0.49l-1.98,2.81l-0.82-1.49
		l0.66-3.13l-2.31,0.17l-2.63,2.3l-1.32-1.81l-1.15,0.5l-0.17,1.97l-5.1-0.819l-0.17-1.811l0,0l-0.62-1.86l0,0l2.6-0.119l-2.47-4.45
		l0.98-1.311l2.97,2.471l1.15-1.82l-0.33-2.47l0,0l3.3-2.141l0,0l-1.32-0.66l0,0l-0.33-1.97l0,0l1.15-1.16l1.16-6.75h2.3l-0.16,2.63
		l4.94-2.63l2.31-2.64l-1.16-3.29l-1.15-0.5l0.66-1.31l1.48,0.16l1.32-1.65l1.65-0.33l4.44-5.93h1.49v6.76h2.3l0.5-1.32l3.13-0.16
		l1.15-4.62l1.81,0.5l3.63,4.12l3.95,0.65l3.29,1.65h2.8l1.65,2.8l3.95,0.17l1.65,2.3L174.24,303.62z"/>
	<path id="YE-JA" fill="#1E3250" stroke="#1E3250" stroke-width="0.5" d="M312.77,184.25l-35.97,4.8l0,0l-11.53,1.48l-17.96,3.95
		l0,0l-4.77,1.65l-3.63,2.8l-2.8,2.8l-3.62,6.1l-4.78,1.81H214.2l0,0l-24.38-16.8h-15.48l-1.32,0.82l0,0l-10.21-1.15l0,0l-2.14,0.33
		l-2.31-1.98l0,0v-3.46l-2.31-0.66l0,0l-1.64-1.81l-0.66-3.46l1.32-1.98l0.66-5.271h-2.81l0,0l0.17-7.9l1.15-0.99l-0.33-4.45l0,0
		l-4.12-3.79l-1.15-2.96l0,0l-1.48-1.16l-1.81,0.99l-5.11-1.48l0,0l1.65-2.97l3.29-1.31l14.66-14.33l10.38-6.43l4.78-0.82h17.62
		l-0.13-24.55h20.13l11.3,7.28l11.29,0.76l31.13,4.27l23.35,0.75l19.33-2.76l14.78,19.94l0,0l0.03,39.44l0,0L312.77,184.25z"/>
	<path id="YE-LA" fill="#1E3250" stroke="#1E3250" stroke-width="0.5" d="M105.93,406.68l0.44-2.75l6.1-11.029l1.48-2.311l1.98-0.16
		l1.32-1.489v-6.921h4.94l0.66-1.479l4.11-1.48l1.82,1.48l3.62,0.66l1.65,1.81l0.99-0.819l-0.17-2.471l1.32-0.83l1.98,2.15
		l3.12-0.17l0.17-3.79l4.94,0.17l-1.97-3.13l1.48-0.17v-2.8l1.32-0.16l0.98,2.47l4.62-0.5l1.64,0.66l2.97-2.14v-1.971l-1.32-1.649
		l0.99-2.471l-1.32-1.159l0.33-1.311l1.98-0.83l3.95,0.5l0.33-1.649l-5.27-1.65l-0.17-1.97l4.29-1.49l7.57-5.6l0,0l3.46,1.979
		l2.15-1.65l1.81,1.32l4.61-0.99l2.31-2.14h1.64l0.66,1.15h3.13l-2.8-9.221h2.8l1.81,0.99l1.82-1.65l2.63-0.5l9.23-7.239l2.14-2.471
		l1.97-5.42l0,0v0.15l0,0l2.64,0.16l0.49,1.149l2.31-0.159l5.27-5.771l1.98,0.17l1.15,1.641l0.17,8.399l0,0l-4.02-0.16l0,0
		l-0.66,1.32l2.14,4.61l-1.81,0.659l-2.97-0.489l-1.32,0.979l-0.33,2.311l1.16,0.989l0.16,2.471l-4.28,0.33l-1.15,1.149l1.31,1.98
		l4.29-0.82l1.15,1.15l-0.82,2.47l-3.79,3.79l-1.65,3.46l2.64,1.32l3.46,3.779l-0.66,2.641l-3.96,1.649l-3.79,12.19l-2.3,3.13
		l-2.47,1.479l-0.33,2.631l2.59,4.96l0,0l-0.64,1.029l0,0l-10.52,1.101l-5.27,2.8l-17.46,0.82l-5.77,2.64l-3.79,5.43l-0.66,3.15l0,0
		l-6.65,3.189l-4.05-0.3l-3.56,1.141l-1.99-0.88l2.75,0.67l0.73-1l-2.11-1.16l-6.61,3.08l-6.5,0.72l-1.91-0.97l-0.41-2.24
		l-19.09-6.6l-1.96,0.84l-2.77,3.37L105.93,406.68z"/>
	<path id="YE-MA" fill="#1E3250" stroke="#1E3250" stroke-width="0.5" d="M230.85,276.27l0.15,2.31l-2.3,6.42h-3.63l0.33-1.98
		l-1.81-0.98l-1.81,4.28l-1.98,0.16l-2.96-1.97l-0.99,1.31l2.47,1.82l-0.49,1.48l-5.11-1.81l-1.98,1.64l-0.49,2.15l-5.6-2.8
		l-1.48-4.45l-1.82-14l-8.4,2.14l0,0l-0.66-1.98l0,0l-0.33-2.63l3.3-4.62l1.15-3.95l6.59-6.92l2.8-8.07l0.33-3.95l-2.14-0.33
		l-16.97-8.07v6.26l-6.59-0.33l-0.82-7.91l-5.93,3.62l-4.45-2.3l0.83-2.47l5.93-1.16l3.29-2.8l6.59-2.3l1.32-2.15l-0.83-1.81
		l-4.61-1.48l-2.47-6.09l0.33-2.48l-1.15-5.6l-3.46-7.9l-1.98-0.91l0,0l0,0l0,0l1.32-0.82h15.48l24.38,16.8l0,0h13.51l4.78-1.81
		l3.62-6.1l2.8-2.8l3.63-2.8l4.77-1.65l0,0l17.96-3.95l11.53-1.48l0,0l35.97-4.8l0,0l-31.04,34.97l0,0l0,0l0,0l-21.01,13.48l0,0
		l-13.67,9.39l0,0l-2.97,1.15l-2.8,4.29l-5.1,3.62l0,0l-6.26,9.55l0,0l0.33,5.6l-1.81,4.12l0,0l-0.33,5.77L230.85,276.27z"/>
	<path id="YE-MR" fill="#1E3250" stroke="#1E3250" stroke-width="0.5" d="M559.53,253.46l-8.771-16.35l-3.67-0.24l-0.97-1.47
		L536.1,231l-10.75-2.19l-0.239-2.2l1.949-0.49l-0.239-5.13l-6.601-1.96l-1.47-1.95l3.18-19.06l3.91-4.88l0.98-3.18l-3.42-4.64
		l-2.69-1.95l1.46-5.62l3.67-7.57l-0.24-4.4l2.931-4.4l-2.2-1.46l-0.25-2.94l3.91-5.13l3.67-2.44l5.37-1.46l4.89-0.25l3.42-1.71
		l4.641-4.4l0.239-4.15l4.16-3.42l14.16-9.04l4.16-1.95l2.93-0.25l1.71-4.64l8.79-9.28l13.19-28.83l4.649-31.021l7.57-12.7l2.2-6.11
		l4.64-8.31l13.68-17.1L636.25,0l0,0l24.6,52.35l0.24,5.09l23.47,48.88l-2.42,4.59l4.841-0.48l1.449,5.08l16.94,36.54l-10.91,3.11
		l-29.52,11.51l-4.95,3.04l-5.74,5.68l-5.47,6.95l-5.49,14.45l0.25,2.14l1.3,1.02l-0.72,4.29l2.64,2.43l-0.79,0.11l0.79,2.29
		l-0.899,1.39l2.319,8.1l-1.83,1.5l-20.409,7.55l-1.32,1.43l0.8,1.58l-2.42-0.98l-8.65,3.02l-2.3,1.44l-0.55,1.43l1.47,2.12
		l-7.529,1.03l-3.9,1.53l-3.48,2.69l-2.89,0.48l-0.31,0.84l-1.95-0.25l-11.95,4.28l-0.8,0.05l-0.07-0.86l-0.55,1.14L559.53,253.46z"
		/>
	<path id="YE-MW" fill="#1E3250" stroke="#1E3250" stroke-width="0.5" d="M131.48,225.12l0.82,1.82l-2.47,1.31l0.66,1.65l1.32,0.33
		v1.48l-2.47,1.16l-0.83,1.64h-3.62l-0.83,1.98l-5.1,3.95l-3.79,0.83l-1.48,2.14l-2.97,0.33l-1.32,1.48l-0.49,3.29l1.15,0.83
		l-0.66,2.8l-1.97,0.99l0,0l-0.99,1.23l0,0l-4.45-2.8l0,0L101,248.1l0,0l-10.54-10.05l-0.49-5.93l0,0l1.97-1.31l-0.82-1.49l0,0
		l-0.99-0.98l0.17-2.31l0,0l16.57-2.97l0,0l6.75,1.32l2.47-0.82l0,0h1.98l1.48,1.32l3.3-0.99l0.49-2.31l1.32-0.16l0.82,1.31
		L131.48,225.12z"/>
	<path id="YE-RA" fill="#1E3250" stroke="#1E3250" stroke-width="0.5" d="M113.99,262.52l-0.14,0.49l0,0l2.64,4.28l1.97,0.99l0,0
		l2.45,0.43l0,0l0.35,2.21l9.23,7.9l-0.49,3.13l2.14,2.64l-0.33,1.65l-4.62,4.61l-4.94,2.96l-3.29,0.17l-0.66-1.32l-3.79,0.49
		l-1.65,3.3l-3.29,1.98l-0.82,1.64h-1.49l-0.16-1.31l0,0h-0.17l0,0v-1.49l0,0l1.16-0.49l-0.66-3.13l0,0l-2.31-8.4l-2.14-1.98
		l0.33-4.94l1.81-2.31l-2.47-4.77l1.65-4.29l2.3-0.49l1.65-1.65l0.83-2.47l4.77,0.17l0,0H113.99z"/>
	<path id="YE-SA" fill="#1E3250" stroke="#1E3250" stroke-width="0.5" d="M161.46,221.99l0.99,1.82l0,0l-3.13-0.83l-0.83,1.48
		l-3.13,0.33l-0.49,2.31l-3.63,3.46l1.82,6.75l-1.49,2.47h-3.29l-0.66-3.29l-1.48-0.17l-0.33-2.14l1.48-2.3l-3.29-2.14l0.99-1.98
		h2.47l1.48-1.15l0.99-3.3l1.31-1.65l1.98-0.16l0.5-1.81h1.81l1.81-1.32l2.96,1.65l0,0L161.46,221.99z"/>
	<path id="YE-SD" fill="#1E3250" stroke="#1E3250" stroke-width="0.5" d="M140.26,152.44l-4.7,0.2l-5.6-0.98l0,0l-3.46-0.33
		l-3.95-1.65l0,0l-5.77,2.8l-7.57,1.32l0,0l-1.32,0.66l0,0l-5.11-1.32l-7.41,2.47l0,0l-2.8-0.33l-1.65-1.15l0,0l-2.72-0.98l0,0
		l-0.54-4.88l0.58-1.47l2.59-0.2l-0.86-1.55l0.39-2.28l-1.83-0.86l-0.6-1.5l-2.8-0.62l-2.1-2.48l-0.44-2.03l2.71-1.271l-0.46-5.07
		l4.11,0.48l0.98-1.65l-1.48-2.96l-2.95-0.87l-1.77,0.73l-0.22-1.88l1.3-0.92l-0.09-2.62l2.76-2.48l-0.76-3.37l8.06-2.34l-0.41-1.45
		l-1.47-0.62v-1.18l-2.81-1.62l-0.16-1.32v-2.96l2.31-4.28l2.14-1.82l9.23-1.81l2.3,0.83l5.44,4.44l6.21,7.28l4.22-0.4l1.23,1.62
		l3.56,0.52l2.9-0.78l4.71,1.3l2.47-3.48l5.34-0.95l1.96,2.39l1.46-2.72l15-1.98l5.77-0.25l4.77,2.51l3.51-0.5l2.51-1.76h15.52
		l0.13,24.55H175l-4.78,0.82l-10.38,6.43l-14.66,14.33l-3.29,1.31L140.26,152.44z"/>
	<path id="YE-SH" fill="#1E3250" stroke="#1E3250" stroke-width="0.5" d="M334.63,348.6l-0.14-3.47l0,0l0.98-3.46l-0.98-1.979l0,0
		l-1.16-18.7l0,0l-5.1-3.29v-6.59l-1.82-0.99l-2.47,0.33l-0.82,1.81l0,0l-2.14,2.971l-0.99-2.141h-5.6l-6.59-2.97l-4.28,0.83
		l-4.45-0.33l0,0l-1.45,1.149l0,0l-0.82,3.131l-3.63,2.3l0,0l-2.96,1.649l-1.49-0.819l-9.71,1.479l0.16-1.81l1.65-1.65l1.97-4.45
		l-0.49-2.14l-3.62-5.1l-3.3-1.65l-3.79,0.33l0,0l-6.75,3.95l0,0l0,0l0,0l-5.93-6.09l-7.41,0.99v-5.28l0,0l-1.32-4.77l-3.63-6.92
		l-6.75-0.5l0,0l-0.49-7.9l0,0l-11.2-0.33l0.33-5.77l0,0l1.81-4.12l-0.33-5.6l0,0l6.26-9.55l0,0l5.1-3.62l2.8-4.29l2.97-1.15l0,0
		l13.67-9.39l0,0l21.01-13.48l0,0l37.51-3.85l0,0l22.14-0.65l22.81-2.93l14.33,0.97l-8.15,12.71l0,0l-8.47,8.14l0,0l-1.62,11.73
		l-2.61,4.23l0,0l7.17,4.23l0,0l-0.33,3.91l-1.95,2.93l0,0l-8.8,4.89l0,0l-3.26,2.61l9.45,11.07l-0.32,4.89h2.6l0,0l11.73,6.19
		l6.19,0.97l1.95,3.91l9.12,6.84l0,0l0.33,2.61l1.95,2.93l0,0l8.79,3.26h6.19l5.21-2.29v2.94l0,0l2.609,0.97l2.931,3.261l0,0
		l2.76,4.359l0,0l-3.57,0.601l-4.77,2.79l-1.561-1.921l-2.85,0.82l-3.36-0.8l-0.29,1.31l-2.14,1.24l-0.97-0.67l-1.75,1.2l-1.82-0.78
		l-2.33,1.311l-1.21-2.23l-4.65-2.35l-4.15-0.98l-3.77,0.55l-9.6,7.21l-6.33,1.36l-4.05,2.57l-2.9,3.45l-12.7,10.47L334.63,348.6z"
		/>
	<path id="YE-SN" fill="#1E3250" stroke="#1E3250" stroke-width="0.5" d="M158.52,191l2.15,1.84l2.14-0.33l0,0l10.21,1.15l0,0
		l1.98,0.91l3.46,7.91l1.15,5.6l-0.33,2.47l2.47,6.1l4.61,1.48l0.82,1.81l-1.32,2.14l-6.59,2.31l-3.29,2.8l-5.93,1.15l-0.82,2.47
		l4.45,2.31l5.93-3.62l0.82,7.91l6.59,0.33v-6.26l16.97,8.07l2.14,0.33l-0.33,3.95l-2.8,8.07l-6.59,6.92l-1.15,3.95l-3.29,4.61
		l0.33,2.64l0,0l0.63,1.9l0,0l-2.54,0.9l0,0l-1.41,1.74l0,0l-1.82-0.99l-2.47-4.78l-4.28-1.32l0.17-9.22l-1.48-0.66l-8.07,1.65
		l-2.64,2.31l-5.6,1.32l-3.46-3.13h-1.98v1.65l0.99,0.66l-0.82,1.15l-6.92-0.49l-4.61-3.79l-7.25-0.33l-1.48,1.32l-0.16,1.65h-1.65
		l-2.47,2.8l-1.98,0.33l-0.49,1.81l-2.47,2.14h-1.81l-0.16-1.32h-4.78v1.48l0,0l-2.8-0.49l0,0l-1.98-0.99l-2.64-4.28l0,0l0.33-1.15
		l0,0l1.48-1.81l0,0l-1.65-1.65h-2.96l0,0l-4.45-1.32l0,0l0.82-3.95l0,0l1.98-0.99l0.66-2.8l-1.15-0.82l0.49-3.29l1.32-1.48
		l2.97-0.33l1.48-2.14l3.79-0.82l5.11-3.95l0.82-1.98h3.62l0.82-1.65l2.47-1.15v-1.48l-1.32-0.33l-0.66-1.65l2.47-1.32l-0.82-1.81
		l0,0l0.17-3.95l2.64-1.48l0.17,3.29l3.13-0.66l2.8-1.98l0.99-2.14l2.47-0.66l0.66-1.65l-1.48-0.66l-0.16-3.62l2.97-2.47l2.47-4.86
		l-2.31-2.31l1.48-7.25h3.79l1.979-1.98l3.62-0.16L158.52,191z M157.34,218.37l-1.81,1.32h-1.81l-0.49,1.81l-1.98,0.17l-1.32,1.65
		l-0.99,3.29l-1.48,1.15h-2.47l-0.99,1.98l3.3,2.14l-1.48,2.31l0.33,2.14l1.48,0.17l0.66,3.29h3.29l1.48-2.47l-1.81-6.75l3.62-3.46
		l0.49-2.31l3.13-0.33l0.82-1.48l3.13,0.82l0,0l-2.14-3.79L157.34,218.37z"/>
	<path id="YE-TA" fill="#1E3250" stroke="#1E3250" stroke-width="0.5" d="M99.48,407.61l1.7,0.77l-0.43,1.74l-0.28-0.76l-0.59,0.439
		l-0.1-1.25l-1.11,0.141l0.78,0.81l-1.56-0.9L99.48,407.61z M114.18,328.9l0.66,1.979l0,0l0.17,1.811l5.11,0.819l0.17-1.979
		l1.15-0.49l1.32,1.81l2.64-2.31l2.31-0.16l-0.66,3.13l0.82,1.48l1.98-2.8l1.65-0.49l1.32,1.32l-2.14,2.31l-0.16,1.48h4.78
		l4.94,2.31l0.82-1.48l2.8,2.141l3.29-0.33v2.31h1.81l2.64-2.31l2.31,2.64l1.98,0.49l4.23-4.02l0,0l0.65,0.97l0,0l0.33,4.12
		l-1.81,0.66l0.33,2.47l7.08,0.17l2.14,3.29l0,0l-7.58,5.6l-4.28,1.48l0.17,1.979l5.27,1.65l-0.33,1.65l-3.95-0.49l-1.98,0.819
		l-0.33,1.32l1.32,1.15l-0.99,2.47l1.32,1.65v1.979l-2.96,2.141l-1.65-0.66l-4.61,0.489l-0.99-2.47l-1.32,0.17v2.8l-1.48,0.171
		l1.98,3.13l-4.94-0.16l-0.16,3.79l-3.13,0.16l-1.98-2.141l-1.32,0.82l0.17,2.47l-0.99,0.82l-1.65-1.811l-3.62-0.659l-1.81-1.48
		l-4.12,1.48l-0.66,1.479h-4.94v6.92l-1.32,1.48l-1.98,0.17l-1.48,2.31l-6.09,11.04l-0.44,2.74l0,0l-0.66,0.76l-2.32,0.04l-1-1.27
		l1.18-1.41l-0.17-0.3l1.61-6.59l-5.48-7.511l-0.54-2.63l-7.26-11.37l-3.42-7.64l0.36-0.641l0.69,2.011l-0.79-2.881l1.18-2.189
		l0.5-10.62l1.25-5.21l0.92-0.55l-0.35-4.4l0,0l6.85-2.56l1.32-1.15l0.99-3.46l2.97-0.33l-0.49-1.479l0.82-4.78l3.62-0.82l2.47,0.49
		l2.14-1.32h1.8V328.9z"/>
</g>
</svg>
