<?xml version="1.0" encoding="utf-8"?>
<!-- Generator: Adobe Illustrator 22.0.1, SVG Export Plug-In . SVG Version: 6.00 Build 0)  -->
<svg version="1.1" id="Layer_1" xmlns="http://www.w3.org/2000/svg" xmlns:xlink="http://www.w3.org/1999/xlink" x="0px" y="0px"
	 viewBox="0 0 1000 1000" style="enable-background:new 0 0 1000 1000;" xml:space="preserve">
<style type="text/css">
	.st0{fill:#1D3250;}
	.st1{fill:#1E3250;}
	.st2{fill:#FFFFFF;}
</style>
<rect x="-1.7" y="0" class="st0" width="1001.6" height="1000"/>
<g>
	<path class="st2" d="M796.2,371.6c-40.2,0-76.5-17.3-101.7-44.9c-24,26.3-58.2,43.3-96.3,44.8v0.1h-5.4v-0.1
		c-38.1-1.5-72.2-18.5-96.2-44.8c-24.1,26.3-58.2,43.3-96.2,44.8v0.1h-5.4v-0.1c-38-1.5-72.2-18.5-96.2-44.8
		c-25.2,27.6-61.5,44.9-101.7,44.9v-72c36.2,0,65.7-29.5,65.7-65.7h72c0,35.3,28,64.2,63,65.6c35-1.4,63-30.3,63-65.6h72
		c0,35.3,28,64.2,63,65.6c34.9-1.4,62.9-30.3,62.9-65.6h72c0,36.2,29.5,65.7,65.7,65.7V371.6z"/>
	<path class="st2" d="M796.2,563.9c-40.2,0-76.5-17.3-101.7-44.9c-24,26.4-58.2,43.3-96.3,44.8v0.1h-5.4v-0.1
		c-38.1-1.5-72.2-18.5-96.2-44.8c-24.1,26.4-58.2,43.3-96.2,44.8v0.1h-5.4v-0.1c-38-1.5-72.2-18.5-96.2-44.8
		c-25.2,27.6-61.5,44.9-101.7,44.9v-72c36.2,0,65.7-29.5,65.7-65.7h72c0,35.3,28,64.2,63,65.6c35-1.4,63-30.3,63-65.6h72
		c0,35.3,28,64.2,63,65.6c34.9-1.4,62.9-30.3,62.9-65.6h72c0,36.2,29.5,65.7,65.7,65.7V563.9z"/>
	<path class="st2" d="M796.2,756.2c-40.2,0-76.5-17.3-101.7-44.9c-24,26.4-58.2,43.4-96.3,44.8v0.1h-5.4v-0.1
		c-38.1-1.5-72.2-18.5-96.2-44.8c-24.1,26.4-58.2,43.4-96.2,44.8v0.1h-5.4v-0.1c-38-1.5-72.2-18.5-96.2-44.8
		c-25.2,27.6-61.5,44.9-101.7,44.9v-72c36.2,0,65.7-29.5,65.7-65.7h72c0,35.3,28,64.2,63,65.6c35-1.4,63-30.3,63-65.6h72
		c0,35.3,28,64.2,63,65.6c34.9-1.4,62.9-30.3,62.9-65.6h72c0,36.2,29.5,65.7,65.7,65.7V756.2z"/>
</g>
</svg>
