<?xml version="1.0" encoding="utf-8"?>
<!-- Generator: Adobe Illustrator 22.0.1, SVG Export Plug-In . SVG Version: 6.00 Build 0)  -->
<svg version="1.1" id="Layer_1" xmlns="http://www.w3.org/2000/svg" xmlns:xlink="http://www.w3.org/1999/xlink" x="0px" y="0px"
	 viewBox="0 0 1000 1000" style="enable-background:new 0 0 1000 1000;" xml:space="preserve">
<style type="text/css">
	.st0{fill:#1D3250;}
	.st1{fill:#1E3250;}
	.st2{fill:#FFFFFF;}
</style>
<rect x="0" y="0" class="st0" width="1000" height="1000"/>
<g>
	<path class="st2" d="M809.8,492.4h-0.2c-2.8-79.5-35.2-153.9-91.8-210.4c-59.3-59.4-138.1-92-222.1-92c-83.9,0-162.8,32.7-222,92
		c-59.3,59.2-92,138.1-92,222.1c0,84,32.7,162.8,92,222.1c59.2,59.3,138.1,92,222,92h0c84,0,162.9-32.7,222.1-92
		c56.6-56.5,88.9-130.9,91.8-210.4h0.2v-11.4v-0.2v-0.2V492.4z M654.2,662.6c-42.4,42.3-98.7,65.6-158.5,65.6
		c-59.8,0-116.2-23.3-158.5-65.6c-42.3-42.4-65.6-98.7-65.6-158.5c0-59.8,23.3-116.1,65.6-158.5c42.4-42.3,98.7-65.7,158.5-65.7
		c59.9,0,116.2,23.3,158.5,65.6c42.3,42.4,65.6,98.7,65.7,158.5C719.8,563.9,696.5,620.2,654.2,662.6"/>
	<rect x="380.4" y="378.9" class="st2" width="240.5" height="89.9"/>
	<rect x="380.4" y="531.7" class="st2" width="240.5" height="89.9"/>
</g>
</svg>
