<?xml version="1.0" encoding="utf-8"?>
<!-- Generator: Adobe Illustrator 22.0.1, SVG Export Plug-In . SVG Version: 6.00 Build 0)  -->
<svg version="1.1" id="Layer_1" xmlns="http://www.w3.org/2000/svg" xmlns:xlink="http://www.w3.org/1999/xlink" x="0px" y="0px"
	 viewBox="0 0 1000 1000" style="enable-background:new 0 0 1000 1000;" xml:space="preserve">
<style type="text/css">
	.st0{fill:#1D3250;}
	.st1{fill:#1E3250;}
	.st2{fill:#FFFFFF;}
</style>
<rect x="0" y="0" class="st0" width="1000" height="1000"/>
<g>
	<path class="st2" d="M295.8,657l-50.2-50.2l62.7-62.7H146.1v-71h162.3l-62.7-62.7l50.2-50.2l148.5,148.5L295.8,657z M711.3,657
		L562.9,508.6l148.4-148.5l50.2,50.2l-62.7,62.7h162.3v71H698.8l62.7,62.7L711.3,657z"/>
	<path class="st2" d="M536.8,863.2h-71V704.6l-62.7,62.7l-50.2-50.2l148.5-148.5l148.5,148.5l-50.2,50.2l-62.8-62.7V863.2z
		 M536.8,385.3h-71V147.4h71V385.3z"/>
	<polygon class="st2" points="501.3,448 338.9,285.5 393.8,230.6 501.3,338.1 608.9,230.6 663.8,285.5 	"/>
</g>
</svg>
