<?xml version="1.0" encoding="utf-8"?>
<!-- Generator: Adobe Illustrator 15.0.0, SVG Export Plug-In . SVG Version: 6.00 Build 0)  -->
<!DOCTYPE svg PUBLIC "-//W3C//DTD SVG 1.1//EN" "http://www.w3.org/Graphics/SVG/1.1/DTD/svg11.dtd">
<svg version="1.1" id="Layer_1" xmlns:amcharts="http://amcharts.com/ammap"
	 xmlns="http://www.w3.org/2000/svg" xmlns:xlink="http://www.w3.org/1999/xlink" x="0px" y="0px" width="669.082px" height="768px"
	 viewBox="0 0 669.082 768" enable-background="new 0 0 669.082 768" xml:space="preserve">
<defs>
	
	
		<amcharts:ammap  projection="mercator" bottomLatitude="-18.042991" leftLongitude="11.670058" topLatitude="-4.372036" rightLongitude="24.083386">
		</amcharts:ammap>
</defs>
<g>
	<path id="AO-BGO" fill="#1E3250" stroke="#1E3250" stroke-width="0.5" d="M135.64,192.54l15.36,0.77l0.96,1.13l-0.03,1.09
		l4.06,3.24l3.83,4.8l5.82,2.86l3.47,0.34l7.31-1.54l2.41,0.3l1.14,0.95l-0.19,9.32l-3.36,5.69l-0.64,2.3l-0.07,2.54l0.9,2.77l0,0
		l-3.16,1.66l-10.33-0.26l-5.06,3.37l-0.6,3.08l3.78,4.271l1.68,4.609l0.14,2.29l-1.83,3.16l-3.46,2.45l-3.65,1.43l-4.5,0.28
		l-1.33,3.2l3.3,2.05l0.48,2.43l-0.85,1.08l-3.43,1.3l-0.42,1.21l1.11,1.061l3.67,0.069l1.15,0.79l0.64,1.15l-1.16,1.04l-0.14,1.15
		l2.07,2.22l-0.18,1.229l-2.76,3.051l-0.68,3.409l-2.21,5.16l1.63,0.761l1.06,3.699l2.38,1.091l3.31-0.21l1.23,2.18l1.4,0.729
		l4.24-0.47l3.19,1.63l1.01,1.74l2.53,1.61l1.76-0.771l0,0l0.69,9.68l-2.43,3.12l2.58,6.3l-1.8,1.94l0.8,2.42l2.26,1.811l0.62,2.279
		l-1.21,3.28l-2.24,2.61l-3.56-1.32l-3.86-4.6l-2.34-0.33l-3.28-1.71l-4.65,0.069l-2.4,1.141l-3.01,3.13l-3.99,1.939l-2.94-1.89
		l-5.31,0.69l-0.32-0.87l-2.99-0.011l-1.8-0.949l-0.55,0.06l0.39,0.87l-0.97,0.25l-2.7-4.13l-4.24-1.76l-0.42-1.381l-2.11-0.5
		l-1.23,1.49l0,0l-2.07-2.7l-0.85-3.25l-6.26-6.939l1.44-1.48l-1.48-2.979l0.08-1.2l-5.83-9.04l2.04-2.51l-2.19-3.9l0.67-1.6
		l-1.77-2.99l0.37-2.65l-1.4-3.14l0,0l0.79-1.32l0.92,0.351l0.41-1.83l0.64-0.15l0,0l0.66-1.649l0,0l0.51-2.36l4.13-2.86l3.57,1.4
		l0.19-1.26l4.23,0.47l-0.42-4.67l1.49-4.65l1.5-1.1l-0.02-2.75l3.87-2.03l1.42-0.06l-5.53-10.24l-2.28,1.33l0,0l-3.59-2.351
		l-1.51-2.189l-1.3-5.58l2.12-0.66l0.08-3.82l-6.22-10.24l0.12-1.9l-2.64-3.06l-3.3-8.02l-2.46-3.62l1.75,0.7l1.06-1.48l-2.41-0.19
		l-0.81-0.86l0,0l4.47-0.88l3.68-2.46l1.89,0.73l1.07-1.62l4.26-1.18l3.27,2.21h2.32l1.16-0.88l4.44-0.81l1.47-1.27l3.6-0.06
		L135.64,192.54z"/>
	<path id="AO-BGU" fill="#1E3250" stroke="#1E3250" stroke-width="0.5" d="M134.31,398.84l5.21-0.37l3.43,1.54l3.41-1.09l2.44,0.54
		l0.7,4.85l0.76,1.08l3.69,1.689l2.38,3.381l2.49-1.07l3.9-5.37l3.56-1.99l2.42-0.109l5.75,7.02l2.97,5.97l4.7,0.58l3.46-1.18
		l5.77,2.81l1.05,0.75l0.28,2.351l2.27,0.47l0,0l-0.17,7.62l1.91,4.71l-0.64,1.05l1.26,2.17l-0.9,1.32l-6.22,1.7l-1.79,2.38
		l-4.71,2.97l1.28,2.48l-0.8,2.33l1.87,3.739l0.04,2.32l3.55,6l0.84,4.88l-1.29,3.59l3.62,6.261l3.3,1.5l1.12,2.25l2.11,0.85l0,0
		l-0.96,4.439l-1.98-0.039l-3.57,2.109l-3.271-1.3l-5.56,5.6l-4.9,1.78l-2.42,0.63l-6.32-2.979l-1.07-0.28l-1.22,0.7l0.15,2.21
		l-1.12,0.39l-4.87,9.95l-1.1,0.35l-5.95-0.069l-6.21-1.36l-2.42,0.66l-4.86-1.78l-4.7,1.74l-4.65-0.771l-2.24-1.829l-1.15-0.11
		l-5.79,2.35l0,0l-2.48,0.07l-3.41-1.57l-2.21,1.271l-1.19-0.76l-1.51-3.591l-2.79-3.54l-0.12-2.25l1.13-2.35l-0.31-1.19
		l-1.09-0.619l-10.55-2.171l-0.85,2.301l-7.94,3l-3.16-2.32l-2.54-0.05l-8.01-2.3l-3.43-0.03l0,0l0.1-1.2l-0.82-0.28l0.34-2.109
		l-0.7-0.29l0.29-1.641l0.74,0.141l0.26-1.01l0.69,0.52l1.14-0.7l1.26-1.939l1.88-0.94l-0.64-2.54l1.03-0.04l-0.73-0.27l0.51-1.96
		l0.82,0.659l1.73-1.029l-0.04-1.33l1.16,1.08l1.04-1.681l1.63-0.189l0.56-1.66l-0.75-0.38l1.96-1.23l0.48,0.45l0.59-1.189
		l1.73-0.53l2.07-3.73l3-2.42l-1.92-5.72l0.01-1.74l9.85-8.26l0.52-1.69l2.04-1.699l0.62-0.19l-0.1,0.68l1.6,0.54l1.56-1.119
		l-0.08-0.851l1.82-0.17l0.92,1.46l1.1,0.2l6.49-5.19l0.53-1.659l-0.38-1.11l1.9-4.14l1.6-1.32l1.23,0.069l3.79-5.18l1.06-4.939
		l1.73-2.061l0.86-5.76l1.84-1.65L134.31,398.84z"/>
	<path id="AO-BIE" fill="#1E3250" stroke="#1E3250" stroke-width="0.5" d="M272.89,338.89l1.55,1.37l-1.05,1.01l0.45,1.59l1.48,0.26
		l0.41,1.48l2.64,0.89l2.92,3.24l2.25,0.32l3.28-0.681l4.13,0.73l6.3,3.31l0.69-1.359l2.24-0.011l0.34,1.65l2.91,0.98l3.08-0.181
		l4.08,3.51l0.61,3.891l1.53,1.26l2.03,4.16l-0.47,2.91l-1.66,0.38l-1.44,1.32l1.6,1.159l2.04,0.24l0.64,3.79l2.53,3.66l-1.68,4.78
		l1.64-0.38l0.4,0.93l-2.41,2.47l1.93,4.82l-1.12,2.32l2.65,0.81l2.04,1.58l2.89-0.89l1.32-2.211l2.26-0.609l1.22-2.21l4.7-4.01
		l0.05-5.431l-0.8-3.39l2.72,2.35l1.07,2.36l0.39,3.3l2.27,0.42l2.17-0.52l2.14,2l1.81-0.94l3.49,0.68l6.32-1.59l2.5,1.101
		l3.69,0.069l2.16-1.14l4.04-4.18l4.14-1.931l6.28-1.899l4.46,0.47l0.53-1.06l-0.65-2.971l-3.18-3.02l1-3.851l-1.42-2.01l-0.39-2.37
		l1.06-3.659l-0.38-1.051l0,0l11.99,7.011l3.91,4.59l6.04,1.04l1.72,3.46l-1.76,2.439l-1.08,5.65l0,0l-1.38,0.35l-3.23,3.66
		l-1.26,6.53l-1.09,1.09l-4.51,0.72l1.46,3.09l-0.72,1.12l-2.42-0.47l-1.57,4.45l-2.04,1.859l-0.27,2.521l1.45,2.44l-0.13,1.85
		l-7.38,7.03l-0.04,1.159l1.05,0.95l-0.33,1.311l-0.87,1.06l-2.64,0.51l-3.32,3.45l-2.7,0.4l-5.08,4.72l-0.98,1.05l0.08,3.55
		l-5.55,6.521l0.11,3.41l-2.27,1.22l-3.77,3.63l-0.67-1.12l-1.21,1.061l2.07,5.88l-0.44,1.13l-2.33,1.44l-0.45,2.21l-3.5,1.569
		l0.64,1.36l-1.82,2.29l2.57,4.57l0.27,2.35l-0.32,1.08l-3.89,1.38l-3.29,2.88l1.92,3.68l-1.71,2.771l0.69,2.2l0,0l-1.19,4.34
		l-1.2,1.02l-5.9,0.73l1.29,3.77l-0.29,4.53l-1.35,2.72l-6.63,4.431l-4.79,0.979l-1.92-0.24l-1.86,0.94l-2.59,3.78l-3.21,2.37
		l-0.25,3.63l-1.88,3.05l0.49,1.47l-0.45,0.24l-4.76-1.44l-1.6-2.149l-2.23-0.3l-4.88-3.49l-1.05-5.021l-2.57-3.46l-1.36-0.64
		l-1.49-0.21l-3.64,2.54l-5.76-3.351l-4.72,2.061l-5.92-0.41l-1.1,0.561l0,0l0.49-7.271l-0.64-2.75l2.48-7.61l0.41-4.489l0.18-3.78
		l-0.89-3.89l0.58-3.08l0,0l0.69-10.12l-1.34-6.73l-0.38-13.68l-6.91-3.21l-0.46-2.62l-2.12-1.37l-0.56-1.229l-0.12-2.311l3.58-2.33
		l0.34-1.17l0.55-4.189l-1.68-2.431l-0.75-3.52l7.2-5.92l1.49-4.59l2.99-3.96l-0.06-3.48l-4.61-4.34l-1.03-3.69l-3.66-1.91
		l-0.03-1.439l-2.25-1.23l-1.21-2.05l-1.36-6.5l-4.61,0.311l-1.05-1.091l-3.6,0.131l-2.23-1.881l-1.28,0.351l-2.09,1.99l-4.75,0.71
		l-7-2.54l0,0l2.16-4.761l-0.3-3.579l5.91-8.311l2.23-8.17l3.39,2.43l1.31,0.09l2.27-1.399l3.51,1.729l2.22-0.119l5.18-8.261
		l7.44-3.989l1.74-2.881l2.89-1.239l1.5-2.62l-0.49-1.41L272.89,338.89z"/>
	<path id="AO-CAB" fill="#1E3250" stroke="#1E3250" stroke-width="0.5" d="M84.85,33.899l0.91,1.02l4.43-0.5l0.16,2.86l3.94,3.63
		l1.34,2.49l4.47,2.67l0.15,1.68l-1.16,0.43l-1.21-0.53l-6.68,2.64l-2.97,0.33l-2.37,2.3l-1.12,2.27l0.39,0.69l-3.47,2.8l-0.61,2.28
		l-3.84,0.07l-0.53,3.5l-4.92,2.26l-2.45,0.06l-0.4,1.18l0.79,1.12l2.47,1.04l-0.11,29.35l-13.29,0.47l-2.91,1.28l0.46,1.19
		l-2.27-3.27l-1.19-4.33l1.81-4.38l1.41,0.39l0.91-0.66l-0.33-3.95l-2.72-6.59l0.53-0.76l-2.27-3.57l0.04-2.13l0.7-0.4l-1.85-1.69
		l0.92,2.06l-5.85-8.25l8.06-6.52l1.82-6.4l2.15,2.44l2.35-0.19l2.81-2.77l4.83-7.69l7.87-1.78l2.3-3.79l4.8-0.06l-1.66-2.29
		l0.08-1.95l1.15-1.33L84.85,33.899z"/>
	<path id="AO-CCU" fill="#1E3250" stroke="#1E3250" stroke-width="0.5" d="M339.26,489.01l13.63,7.87l4.46-0.69l6.98,4.61l1.13,0.41
		l2.31-0.87l4.66,3.67l1.6,0.37l0.36,1.359l3.07,2.57l0.35,1.7l2.47,3.54l-0.32,2.04l1.45,3.88l-0.25,2.66l1.15,2.38l0.95,0.54
		l0.08,1.59l2.14,3.64l2.47,0.91l6.07-1.96l6.97,3.76l-1.75-8.08l2.64-1.43l2.23,0.07l2.17,1.83l4.98,0.71l5.71-1.181l1.68,3.33
		l2.66,2.181l0.56,2.92l1.52,1.27l1.57,3.97l2.21,1.25l0.44,1.57l6.72,5.71l0.66,1.49l1.1-0.061l0.03,1.25l1.55-0.149l1.63,1.12
		l1.4,2.41l3.47,3.449l4.07,2.24l5.02,1.99l3.78-0.36l4.5,1.061l2.92-1.2l2.76,0.649l2.351-1.13l1.649,0.37l1.9-0.899l1.9,1.52
		l4.72,0.97l0.99-1.109l1.159,0.01l1.811,1.68l2.13-0.439l1.74,1.76l2.54,0.68l4.67,5.83l2.34-0.05l-0.39,1.6l0.649,0.881l2.38-0.16
		l1.721,1.05l1.47,4.75l1.689,1.85l2.61,1.62l2.39,0.33l1.5,1.22l0.83,1.971l-0.06,4.279l2.28,1.051l0.87,1.899l1.609,1.23
		l-0.29,2.16l1.57,1.229l1.32,3.561l2.14,2.069l3.12,1.05l0.12,3.051l2.29,1.02l0.93,2.97l1.58,1.261l0.86,3.67l8.359,5.37l0,0
		l0.17,1.77l3.54,3.021l-0.28,1.42l2.311,3.42l1.16,6.1l0.72,0.95l3.521,3.93l1.85,0.49l0.979,1.92l1.61,0.61l1.94,3.229l6.979,6.08
		l0.95,2.01l3.31,2.561l5.42,5.85l-0.02,0.92l1.35,0.38l0.841,1.771l2.609,2.05l0.95,1.46l-0.11,1.21l4.721,1.811l5.239,4.1
		l0.07,0.88l2.45,2l1.21,3.36l2.17,0.96l0.64,2.01l2.07,0.61l2.81,3.6l4.78,0.24l1.311,1.27l1.35,0.16l1.59,1.55l0.21,1.38
		l-98.34,19.801l-2.56-0.79l-1.221-1.19l-4.33-0.97l-2.43-1.78l-11.77,1.18l-5.44,2.79l-0.12,1.29l-2.45,0.381l-3.159-0.921
		l-0.181-0.8l-2.229,0.46l-2.92-2l-5.471,0.011l-3.1-1.561l-0.94-1.63l-4.109-0.93l-2.62-1.721l-1.26,0.74l-1.17-0.5l-1.33,1.34
		l-3.46-0.739l-2.78,1.56l-2.67-1.06l-1.62,0.63l-2.76-0.511l-2.87-1.43l-1.84,1l-3.851-0.42l-2.359,1.89l-1.381-1.649l-0.859,0.35
		l-2.08-1.84l-4.54,1.03l-8.16-0.11l-1.66-0.95l-2.25,0.34l-1.07-1.279l-2.88-0.71l-1.09,0.55l-4.05-0.97l-1.62,1.439l-9.72-0.88
		l-2.15-0.74l-1.27-1.5l-2.18-0.359l-1.04-1.54l-1.28,0.12l-0.94-1.4l-5.25-3.84l-0.39-1.69l-0.88-0.93l-1.64-0.32l-2.66-4.33
		l-1.61-0.81l-0.4-1.71l-2.39-3l-56.57-0.2l0,0l1.4-7.38l-4.05-13.05l0.02-5.79l0.59-6.5l2.9-5.561l1.26-5.04l3.42-3.409l1.49-5.101
		l0.06-6.3l-1.65-9.46l0.2-8.05l-1.12-2.29l-3.38-3.021l-6.52-12.58l-3.49-0.91l-1.02-1.17l-0.77-3.479l-0.93,0.56l-0.71-1.42
		l-2.82-0.79l-2.27-1.92l-0.2-1.68l-3.39-2.44l0.01-2.06l-2.82-1.38l-0.84-1.23l0.49-1.46l-1.81-0.81l0,0l-2.41-3.17l0.78-1.801
		l-0.29-1.75l-2.68-3.539l0.37-4.171l-0.7-2.729l-2-1.88l1.22-2.96l-2.78-0.79l0.35-1.11l-1.13-0.12l-2.64-2.489l0.27-10.25
		l-1.46-3.301l-0.86-5.199l1.09-1.74l0.72-4.23l-1.17-3.59l0.64-2.06l-0.64-1.38l0,0l1.1-0.561l5.92,0.41l4.72-2.061l5.76,3.351
		l3.64-2.54l1.49,0.21l1.36,0.64l2.57,3.46l1.05,5.021l4.88,3.49l2.23,0.3l1.6,2.149l4.76,1.44l0.45-0.24l-0.49-1.47l1.88-3.05
		l0.25-3.63l3.21-2.37l2.59-3.78l1.86-0.94l1.92,0.24l4.79-0.979l6.63-4.431l1.35-2.72l0.29-4.53l-1.29-3.77l5.9-0.73l1.2-1.02
		L339.26,489.01z"/>
	<path id="AO-CNO" fill="#1E3250" stroke="#1E3250" stroke-width="0.5" d="M176.6,229.1l0.64,1.95l1.83-0.311l3.69,1l2.39-0.96
		l4.22-5.71l2.52,0.24l2.49,1.63l2.57-1.23l2.72,0.32l0.66-2.09l1.3-0.11l2.12-2.67l0.05-3.09l1.07-1.64l-1.02-1.62h-1.29l1.2-2.93
		l-0.39-2.6l4.5-1.07l5.98-0.15l1.45,0.78l0.82,1.24l0.27,3.29l1.75,0.74l4.63-0.8l1.75-1.65l4.53-0.07l2.77,2.05l-1.41,1.23
		l0.64,1.81l1.32-0.41l0.67,0.7l0.24,4.78l0,0l0.57,8.21l0.68,0.96l-1.32,1.541l-6.39,1.579l0.26,2.221l-3.26,4.62l1.37,2.869
		l3.54,0.891l1.07,2.45l-1.46,2.25l-1.81,5.68l-1.39,6.89l0.57,3.49l-0.41,2.96l-1.68,1.11l-3.39,0.27l-2.76-0.93l-6.04,3.3
		l-3.92,0.51l-1.38,1.341l-0.73,4.689l-6.09,0.8l2.89,2.09l0.56,2.4l-3.44,3.03l0.11,1.06l1.84,1.96l0.6,3.53l-0.3,1.05l-2.61,2.28
		l0,0l-1.43,0.04l-1.96-1.521l-4.2-0.89l0.35,1.21l-1.03,0.99l-3.7-0.23l-4.38,0.761l-1.87,1.609l-5.35,0.73l-2.78-0.54l0,0
		l-1.76,0.76l-2.53-1.61l-1.02-1.739l-3.18-1.62l-4.25,0.47l-1.39-0.73l-1.24-2.18l-3.31,0.21l-2.38-1.09l-1.06-3.7l-1.63-0.76
		l2.21-5.16l0.68-3.41l2.77-3.05l0.17-1.229l-2.06-2.221l0.13-1.14l1.16-1.04l-0.64-1.14l-1.15-0.79l-3.67-0.07l-1.11-1.06
		l0.43-1.211l3.43-1.3l0.85-1.08l-0.48-2.42l-3.3-2.06l1.33-3.2l4.5-0.27l3.65-1.44l3.46-2.45l1.83-3.16l-0.14-2.279l-1.68-4.62
		l-3.78-4.26l0.6-3.091l5.06-3.37l10.33,0.26L176.6,229.1z"/>
	<path id="AO-CUS" fill="#1E3250" stroke="#1E3250" stroke-width="0.5" d="M172.61,299.01l2.78,0.54l5.35-0.73l1.87-1.609
		l4.38-0.761l3.7,0.23l1.03-0.99l-0.35-1.21l4.2,0.89l1.96,1.521l1.43-0.04l0,0l5.18,3.66l6.17,0.569l6.42-1.51l14.85-0.06
		l2.28-3.16l1.23-0.14l3.44,1.01l4.9-0.681l8.67,1.32l1.81,2.2l0.74,2.34l3.18,1.76l0.87,1.17l-0.41,3.04l2.11,2.71l0.31,3.091
		l1.29,2.649l-2.65,3.24l0.63,3.79l2.6,0.77l1.28,1.431l1.21,1.569l0.05,3.46l2.03,0.601l5.74,7.21l0,0l-1.17,1.17l0.49,1.41
		l-1.5,2.62l-2.89,1.239l-1.74,2.881l-7.44,3.989l-5.18,8.261l-2.22,0.119l-3.51-1.729l-2.27,1.399l-1.31-0.09l-3.39-2.43
		l-2.23,8.17l-5.91,8.311l0.3,3.579l-2.16,4.761l0,0l-1.83,1.68l-9.34,1.51l-2.21,1.5l-3.61,0.771l-2.15,1.71l-0.38,3.7l1.34,1.96
		l0.15,2.31l1.18,0.89l-0.67,3.25l-1.2,0.86l0.9,1.17l-0.89,3.59l0.72,1.221l-3.71-0.221l-2.85,2.71l-1.2-0.479l-2.53,1.53
		l-3.02,0.359l-2.07,2.061l-2.43,6.069l0,0l-2.27-0.479l-0.28-2.351l-1.05-0.75l-5.77-2.81l-3.46,1.18l-4.7-0.58l-2.97-5.97
		l-5.75-7.02l-2.42,0.119l-3.55,1.99l-3.91,5.36l-2.48,1.07l-2.39-3.37l-3.69-1.7l-0.76-1.08l-0.7-4.85l-2.44-0.54l-3.41,1.09
		l-3.44-1.54l-5.21,0.37l0,0l-0.52-7.87l-0.93-1.75l0.86-1.28l-0.19-2.61l1.17-5.18l-0.47-2.65l1.64-1.76l-0.24-3.08l1.98-11.83
		l-1.8-5.38l-5.4-7.279l1.27-0.46l1.84-3.141l-7.9-10.12l-4.52-4.569l0.89-1.37l-0.23-1.49l-0.83-2.95l-1.34-1.479l0,0l1.23-1.49
		l2.12,0.51l0.41,1.37l4.24,1.77l2.7,4.131l0.97-0.25l-0.39-0.87l0.55-0.061l1.8,0.96l2.99,0.011l0.32,0.869l5.31-0.689l2.95,1.89
		l3.98-1.93l3.02-3.13l2.4-1.13l4.65-0.08l3.28,1.72l2.34,0.33l3.86,4.6l3.56,1.32l2.24-2.61l1.21-3.279l-0.62-2.28l-2.26-1.81
		l-0.8-2.421l1.81-1.93l-2.59-6.3l2.43-3.12L172.61,299.01z"/>
	<path id="AO-CNN" fill="#1E3250" stroke="#1E3250" stroke-width="0.5" d="M118.76,624.999l7.08,6.341l2.28-0.74l4.97-2.75
		l6.09-8.28l1.52-0.26l2.9,2.91l2.16,0.38l3.74-4.5l6.54-1.351l1.06-1.18l5.69-2.88l7.45-8.03l3.45,0.9l3.54-0.561l14.13,3.381
		l3.29,2.75l0.97,3.409l5.91,0.99l1.69-3.45l2.97-3.31l3.49-8.19l3.06-3.069l4.09-8.471l7.13-5.369l1.54,0.069l3.61-2.49l2.23,0.431
		l3.38-0.681l2.95,1.11l7.11,0.44l4.98-1.311l3.77,0.721l7.67-9.08l2.29-1.79l6.01-2.2l4.7,0.859l5.57-0.029l0,0l1.81,0.81
		l-0.49,1.46l0.84,1.23l2.82,1.38l-0.01,2.06l3.39,2.44l0.2,1.68l2.27,1.92l2.82,0.79l0.71,1.42l0.93-0.56l0.77,3.479l1.02,1.17
		l3.49,0.91l6.52,12.58l3.38,3.021l1.12,2.29l-0.2,8.05l1.65,9.46l-0.06,6.3l-1.49,5.101l-3.42,3.409l-1.26,5.04l-2.9,5.561
		l-0.59,6.5l-0.02,5.79l4.05,13.05l-1.4,7.38l0,0l-8.37,0.46l-142.51-0.77l-0.48,1.43l-2.58,1.11l-1.99-0.37l-0.87,0.83l-3.71-1.16
		l-3.06,0.689l-1.38-0.79l-0.68-1.989l-1.7-1.45l-10.01-5.36l-2.13-2.189l-6.1-3.521l0.58-2.28l-2.62-3.659l-4.47-2.25l-1.48-0.03
		l0,0l-2-5.2l-7.14-7.13l-1.39-2.5l1-2.29l3.5-2.09l1.77-2.54l-0.93-2.3l-2.01-1.91l1.13-1.75l2.27-0.811l1.12-1.72l1.56-0.08
		l0.78-1.55l0.55,0.71l2.4-1.42L118.76,624.999z"/>
	<path id="AO-HUA" fill="#1E3250" stroke="#1E3250" stroke-width="0.5" d="M230.76,382.55l7,2.54l4.75-0.71l2.09-1.99l1.28-0.351
		l2.23,1.881l3.6-0.131l1.05,1.091l4.61-0.311l1.36,6.5l1.21,2.05l2.25,1.23l0.03,1.439l3.66,1.91l1.03,3.69l4.61,4.34l0.06,3.48
		l-2.99,3.96l-1.49,4.59l-7.2,5.92l0.75,3.52l1.68,2.431l-0.55,4.189l-0.34,1.17l-3.58,2.33l0.12,2.311l0.56,1.229l2.12,1.37
		l0.46,2.62l6.91,3.21l0.38,13.68l1.34,6.73l-0.69,10.12l0,0l-3.72,0.59l-3.38-1.15l-3.75,1.16l-1.27-0.65l-0.53-1.29l-1.22,0.181
		l-2.61,1.399l-2.39,3.78l-3.42,0.59l-3.35-2.739l-2.29-0.131l-10.14,11.29l-4.7,1.96l-1.8,3.25l-4.83,2.32l-1.08-0.2l-0.01-6.42
		l-4.57,0.2l-1.8-1.54l-0.5-7.35l-2.04-3.511l-1.09-0.489l-7.09,1.83l-2.16-0.851l0,0l-2.1-0.85l-1.12-2.25l-3.3-1.5l-3.62-6.26
		l1.29-3.591l-0.84-4.88l-3.55-6l-0.04-2.319l-1.87-3.74l0.8-2.33l-1.28-2.48l4.7-2.97l1.8-2.39l6.22-1.7l0.9-1.32l-1.25-2.17
		l0.64-1.05l-1.91-4.71l0.17-7.61l0,0l2.43-6.069l2.07-2.061l3.02-0.359l2.53-1.53l1.2,0.479l2.85-2.71l3.71,0.221l-0.72-1.221
		l0.89-3.59l-0.9-1.17l1.2-0.86l0.67-3.25l-1.18-0.89l-0.15-2.31l-1.34-1.96l0.38-3.7l2.15-1.71l3.61-0.771l2.21-1.5l9.34-1.51
		L230.76,382.55z"/>
	<path id="AO-HUI" fill="#1E3250" stroke="#1E3250" stroke-width="0.5" d="M199.32,480.819l2.16,0.851l7.09-1.83l1.09,0.489
		l2.04,3.511l0.5,7.35l1.8,1.54l4.57-0.2l0.01,6.42l1.08,0.2l4.83-2.32l1.8-3.25l4.7-1.96l10.14-11.29l2.29,0.131l3.35,2.739
		l3.42-0.59l2.39-3.78l2.61-1.399l1.22-0.181l0.53,1.29l1.27,0.65l3.75-1.16l3.38,1.15l3.72-0.59l0,0l-0.58,3.08l0.89,3.89
		l-0.18,3.78l-0.41,4.489l-2.48,7.61l0.64,2.75l-0.49,7.271l0,0l0.64,1.38l-0.64,2.06l1.17,3.59l-0.72,4.23l-1.09,1.74l0.86,5.199
		l1.46,3.301l-0.27,10.25l2.64,2.489l1.13,0.12l-0.35,1.11l2.78,0.79l-1.22,2.96l2,1.88l0.7,2.729l-0.37,4.171l2.68,3.539l0.29,1.75
		l-0.78,1.801l2.41,3.17l0,0l-5.57,0.029l-4.7-0.859l-6.01,2.2l-2.29,1.79l-7.67,9.08l-3.77-0.721l-4.98,1.311l-7.11-0.44
		l-2.95-1.11l-3.38,0.681l-2.23-0.431l-3.61,2.49l-1.54-0.069l-7.13,5.369l-4.09,8.471l-3.06,3.069l-3.49,8.19l-2.97,3.31
		l-1.69,3.45l-5.91-0.99l-0.97-3.409l-3.29-2.75l-14.13-3.381l-3.54,0.561l-3.45-0.9l-7.45,8.03l-5.69,2.88l-1.06,1.18l-6.54,1.351
		l-3.74,4.5l-2.16-0.38l-2.9-2.91l-1.52,0.26l-6.09,8.28l-4.97,2.75l-2.28,0.74l-7.08-6.341l0,0l1.29-0.699l1.6-3.24l-2.48-5.96
		l5.71-11.55l-2.62-4.761l0.31-12.17l-3.75-1.409l-2.35-1.851l-0.74-1.149l0.65-2.45l-0.76-2.33l-1.37-0.33l-0.52,1.08l-2.38,0.93
		l-1.04-1.26l0.17-2.99l-3.81,0.37l-1.12-1.02l-0.09-1.19l3.68-2.11l0.39-1.199l-2.92-3.44l2.4-3.65l-1.24-4.989l2-2.16l2.37-0.37
		l4.54-4.061l6.63-3.659l2.47-5.79l0.27-4.79l2.75-3.74l-0.68-6.41l0.4-2.49l-1.16-0.52l-1.11,0.59l-1.16-0.8l-0.48-1.22l0.81-2.561
		l-1.87-4.77l2.94-6.29l-0.35-1.19l-2.15-1.46l-0.89-2.729l0,0l5.8-2.36l1.15,0.12l2.24,1.83l4.66,0.77l4.7-1.74l4.86,1.78
		l2.42-0.66l6.22,1.36l5.95,0.07l1.1-0.351l4.87-9.95l1.13-0.39l-0.15-2.22l1.22-0.7l1.06,0.28l6.32,2.989l2.42-0.64l4.9-1.77
		l5.57-5.601l3.26,1.3l3.58-2.119l1.98,0.05L199.32,480.819z"/>
	<path id="AO-LUA" fill="#1E3250" stroke="#1E3250" stroke-width="0.5" d="M118.42,244.789l2.28-1.329l5.53,10.239l-1.41,0.07
		l-3.87,2.04l0.02,2.75l-1.5,1.1l-1.49,4.65l0.42,4.67l-4.23-0.47l-0.19,1.26l-3.57-1.4l-4.13,2.86l-0.51,2.36l0,0l-0.66,1.649l0,0
		l-0.64,0.15l-0.41,1.83l-0.92-0.34l-0.79,1.319l0,0l-7.59-12.47l0.04-3.26l1.11,0.06l-0.81,0.17l0.64,3.4l0.19-1.21l1.64-1.4
		l2.53-4.63l2.16-0.08l0.49-2.41l2.12-2.3l0.66-2.479l2.7-0.73l1.62-2.08l3.1,1l1.06-0.8l1.48-4.23l-0.26-2.02L118.42,244.789z"/>
	<path id="AO-LNO" fill="#1E3250" stroke="#1E3250" stroke-width="0.5" d="M463.34,157.64l7.66,0.03l-0.43,3.06l-1.431,1.51
		l-2.26,6.81l-0.1,6.78l61.08,0.12l1.93,2.16l0.92,2.87l-0.47,0.85l1.22,1.16l-0.52,1.61l0.689,0.79l-1.02,2.22l0.84,1.83
		l-0.28,2.37l-0.96,0.85l-2.97,7.67l0.13,5.75l-1.24,2.23l5.391,10.15l1.569,1.54l-0.43,1.1l0.9,4.64l1.649,1.14l0,0l-3.93,2.23
		l-2.24,3.66l-3.67-0.41l-4.78,1.771l-3.34,4.3l-9.439,1.66l-4.82-1.221l-2.46,1.07l-3.51-0.43l-2.71,1.56l-3.601,0.271l-4.58,2.42
		l-0.97,2.21l-4.82,2.79l-3.24,5.189l-1.949,6.221l-2.36,1.35l-3.67,0.479l-3.9,2.961l-4.85,1.159l-1.69,5.601l-0.899,1.09
		l-1.07,0.77l-6.05,0.83l-11.15,9.601l-1.66,12.45l-2.18,3.84l-3.47,3.72l-1.22,0.92l-8.101,1.68l-3.54,3.04l-6.33,0.86l-4.94,4.22
		l-5.65,1.41l-3.21,3.44l-3.68,1.84l-2.56,0.97l-8.21,1.12l-3.7,4.4l-5.93,2.59l-10.4,0.05l1.39,1.39l-0.74,0.98l1.25,0.03
		l1.26,1.029l0,0l-3.59,1.74l-1.34,2.24l2.1,3.08l-1.18,2.39l-6,0.48l-6.75-3.25l-4.49-3.78l-4.41-1.061l0.01-1.06l-2.16-2.9
		l5.06-4.659l-0.03-1.45l-2.99-1.44l-1.93-2.07l-1.11-2.93l-1.22-0.63l-0.18-2.45l0.77-2.069l-2.06-3.061l-0.3-1.7l-1.45-0.359
		l-0.93-1.101l-1.64-5.27l-4.74-2.23l-3.68,0.561l-0.81-1.08l0.18-2.25l-1.42-2.28l-4.44-1.14l-1.08-0.8l-0.71-2.211L313,290.77
		l-0.7-1.11l0.05-3.449l-2.23-3.32l-1.65-5.76l2.3-1.931l8.11-2.56l1.02-1.351l-0.07-2.31l1.98-3.45l-1.68-5.93l1.47-7.811
		l-0.05-12.029l-2.27-1.46l-1.22-3.91l0.7-3.42l1.71-2.19l-0.74-0.82l-0.71-4.67l-0.14-2.14l0.71-1.2l-1.54-1.82l0.53-1.45l0,0
		l1.22,0.96l2.52,0.05l5.41-1.56l3.73,0.69l4.35-1.58l2.7,0.17l2.08,1.5l0.89-0.74l4.95,0.07l-0.64-1.54l0.53-1.37l1.82-0.27
		l0.89-1.3l3.15-0.94l3.79-0.07l0.68,0.28l-0.17,0.99l3.52,0.67l1.12-0.7l-0.36-0.65h6.72l0.24-3.94l12.19,0.06l-0.07,2.08l1.09,1.8
		l28.24-0.23l-1.48-4.75l1.05-1.88l-0.13-2.44l1.23-1.45l1.12-4.04l-2.01-5.83l0.61-0.7l4.57-0.1l1-1.67l-0.4-1.5l1.78-1.42
		l1.41-0.09l-2.77-5.14l0.45-0.62l-0.8-2.07l0.88-5.15l-0.47-1.55l1.86-4.42l1.45-1.52l-0.93-2.86l37.36-0.07l0.76-4.19
		L463.34,157.64z"/>
	<path id="AO-LSU" fill="#1E3250" stroke="#1E3250" stroke-width="0.5" d="M535.86,232.439l0.84,3.49l-0.86,1.67l0.13,1.71
		l-1.109,1.729l0.68,0.681l-1.12,1.67l-0.74,3.54l0.29,2.359l-2.109,7.091l-0.55,5.609l0.569,1.431l-0.92,0.819l0.97,7.88
		l-3.46,9.601l2.07,2.21l-0.24,1.609l1.88,3.4l0.381,4.34l2.88,1.67l2.09,3.851l1.319-0.62l0.44,3.18l2.99,3.07l1.12,0.42
		l1.029-0.53l3.681,2.57l0.859,2.979l-0.52,0.601l1.01,1.149l0.87,9.32l2.16,2.56l0.1,2.04l1.221,1.29l1.039,2.86l-1.739,5.6
		l-0.73,0.54l1.84,1.57l0.07,3.42l0,0l-2.02,0.851l-2.28-0.03l-4.29-1.79l-2.83-0.15l-2.18,1.95l-11.561-0.2l-2.649,4.21l-0.46,5.96
		l-3.58,3.29l-1.03,5.62l1.37,2.72l1.069,0.07l-0.079,3.91l-5.681,2.25l-2.18-0.32l-0.57-0.72l-0.18,0.51l-1.41-0.239l-0.939,1.739
		l-2.91,0.16l-0.971,1l-2.21,0.311l-3.17,1.68l-2.899,0.439l-0.59,1.561l-1.98,1.29l-1.29,2.17l-1.91,0.71l-0.96-0.35l-3.16,1.529
		l0.681,2.07l-1.32,1.29l-8.82-0.89l-3.239-1.221l-1.49,0.4l-1.01-1.72l-2.061,0.22l-2.43-1.66l-2.59-0.54l-0.82-1.25l-3.08-0.4
		l-4.35-3.17l-2.391,0.881l-2.109-0.601l-0.92-1.149l-2.931-0.57l-2.75-2.12l-1.06,0.26l-3.15,3.72l-1.63,0.011l-1.96-1.36
		l-3.07,0.21l-2.029,2.11l-1.17-0.11l-0.98-1.76l-1.72-0.71l-1.71,0.85l-0.811,1.26l-3.319,0.79l-4.871-2.699l-1.73-0.091
		l-1.53,0.841l-0.82,1.949l-2.13,2l-5.08,3.181l-5.7-0.48l-1.71,1.73l-2.82,0.88l0,0l1.08-5.65l1.76-2.439l-1.72-3.46l-6.04-1.04
		l-3.91-4.59l-11.99-7.011l0,0l-0.75-2.59l-4.57-3.72l-1.9-4.28l-0.57-3.87l0.71-0.68l1.5,0.29l-0.63-1.28l1.57-1.729l-0.93-0.45
		l0.63-0.64l-1.41-2.011l-0.6,0.78l-1.98-1.44l-0.32,0.37l-0.22-1.13l-0.86,0.021l-0.31-2.221l-0.78-0.34l0,0l-1.26-1.029
		l-1.25-0.03l0.74-0.98l-1.39-1.39l10.4-0.05l5.93-2.59l3.7-4.4l8.21-1.12l2.56-0.97l3.68-1.84l3.21-3.44l5.65-1.41l4.94-4.22
		l6.33-0.86l3.54-3.04l8.101-1.68l1.22-0.92l3.47-3.72l2.18-3.84l1.66-12.45l11.15-9.601l6.05-0.83l1.07-0.77l0.899-1.09l1.69-5.601
		l4.85-1.159l3.9-2.961l3.67-0.479l2.36-1.35l1.949-6.221l3.24-5.189l4.82-2.79l0.97-2.21l4.58-2.42l3.601-0.271l2.71-1.56
		l3.51,0.43l2.46-1.07l4.82,1.221l9.439-1.66l3.34-4.3l4.78-1.771l3.67,0.41l2.24-3.66l3.93-2.23l0,0l0.38,0.86l-0.95,2.58
		L535.86,232.439z"/>
	<path id="AO-MAL" fill="#1E3250" stroke="#1E3250" stroke-width="0.5" d="M233.28,221.75l5.43,0.79l3.4-2.67l3.41-0.46l1.95-2.14
		l0.83-5.08l1.51-3.26l-0.82-4.88l-3.23-9.45l0.02-2.52l2.86-1.4l3.69,0.13l4.61-2.52l3.47-5.63l2.1-1.54l9.2-3.4l2.16,0.42
		l1.11,0.84l1.39,3.65l4.98,6.62l2.17,1.85l3.29,0.65l3.44-1.67l0.75-5.77l0.81-1.06l3.53-2.42l2.48,0.43l0,0l-0.04,1.68l0.95-0.03
		l0.6-0.95l2.14,1.59l-1.69,1.59l2.25,1.46l-0.09,1.65l1.11,2.23l4.23,2.91l-0.76,2.6l1.98,1.35l-0.47,2.06l3.3,1.67l-0.09,1.41
		l2.21,1.07l-0.33,1.34l1.49,0.68l-0.62,2.18l1.44,0.86l0.9,0.45l-0.3,2.28l1.65,2.3l-0.58,1.8l1.48,1.24l0,0l-0.53,1.45l1.54,1.82
		l-0.71,1.2l0.14,2.14l0.71,4.67l0.74,0.82l-1.71,2.19l-0.7,3.42l1.22,3.91l2.27,1.46l0.05,12.029l-1.47,7.811l1.68,5.93l-1.98,3.45
		l0.07,2.31l-1.02,1.351l-8.11,2.56l-2.3,1.931l1.65,5.76l2.23,3.32l-0.05,3.449l0.7,1.11l2.37,0.479l0.71,2.211l1.08,0.8l4.44,1.14
		l1.42,2.28l-0.18,2.25l0.81,1.08l3.68-0.561l4.74,2.23l1.64,5.27l0.93,1.101l1.45,0.359l0.3,1.7l2.06,3.061l-0.77,2.069l0.18,2.45
		l1.22,0.63l1.11,2.93l1.93,2.07l2.99,1.44l0.03,1.45l-5.06,4.659l2.16,2.9l-0.01,1.06l4.41,1.061l4.49,3.78l6.75,3.25l6-0.48
		l1.18-2.39l-2.1-3.08l1.34-2.24l3.59-1.74l0,0l0.78,0.34l0.31,2.221l0.86-0.021l0.22,1.13l0.32-0.37l1.98,1.44l0.6-0.78l1.41,2.011
		l-0.63,0.64l0.93,0.45l-1.57,1.729l0.63,1.28l-1.5-0.29l-0.71,0.68l0.57,3.87l1.9,4.28l4.57,3.72l0.75,2.59l0,0l0.38,1.051
		l-1.06,3.659l0.39,2.37l1.42,2.01l-1,3.851l3.18,3.02l0.65,2.971l-0.53,1.06l-4.46-0.47l-6.28,1.899l-4.14,1.931l-4.04,4.18
		l-2.16,1.14l-3.69-0.069l-2.5-1.101l-6.32,1.59l-3.49-0.68l-1.81,0.94l-2.14-2l-2.17,0.52l-2.27-0.42l-0.39-3.3l-1.07-2.36
		l-2.72-2.35l0.8,3.39l-0.05,5.431l-4.7,4.01l-1.22,2.21l-2.26,0.609l-1.32,2.211l-2.89,0.89l-2.04-1.58l-2.65-0.81l1.12-2.32
		l-1.93-4.82l2.41-2.47l-0.4-0.93l-1.64,0.38l1.68-4.78l-2.53-3.66l-0.64-3.79l-2.04-0.24l-1.6-1.159l1.44-1.32l1.66-0.38l0.47-2.91
		l-2.03-4.16l-1.53-1.26l-0.61-3.891l-4.08-3.51l-3.08,0.181l-2.91-0.98l-0.34-1.65l-2.24,0.011l-0.69,1.359l-6.3-3.31l-4.13-0.73
		l-3.28,0.681l-2.25-0.32l-2.92-3.24l-2.64-0.89l-0.41-1.48l-1.48-0.26l-0.45-1.59l1.05-1.01l-1.55-1.37l0,0l-5.74-7.21l-2.03-0.601
		l-0.05-3.46l-1.21-1.569l-1.28-1.431l-2.6-0.77l-0.63-3.79l2.65-3.24l-1.29-2.649l-0.31-3.091l-2.11-2.71l0.41-3.04l-0.87-1.17
		l-3.18-1.76l-0.74-2.34l-1.81-2.2l-8.67-1.32l-4.9,0.681l-3.44-1.01l-1.23,0.14l-2.28,3.16l-14.85,0.06l-6.42,1.51l-6.17-0.569
		l-5.18-3.66l0,0l2.61-2.28l0.3-1.05l-0.6-3.53l-1.84-1.96l-0.11-1.06l3.44-3.03l-0.56-2.4l-2.89-2.09l6.09-0.8l0.73-4.689
		l1.38-1.341l3.92-0.51l6.04-3.3l2.76,0.93l3.39-0.27l1.68-1.11l0.41-2.96l-0.57-3.49l1.39-6.89l1.81-5.68l1.46-2.25l-1.07-2.45
		l-3.54-0.891l-1.37-2.869l3.26-4.62l-0.26-2.221l6.39-1.579l1.32-1.541l-0.68-0.96L233.28,221.75z"/>
	<path id="AO-MOX" fill="#1E3250" stroke="#1E3250" stroke-width="0.5" d="M400.13,383.1l2.82-0.88l1.71-1.73l5.7,0.48l5.08-3.181
		l2.13-2l0.82-1.949l1.53-0.841l1.73,0.091l4.871,2.699l3.319-0.79l0.811-1.26l1.71-0.85l1.72,0.71l0.98,1.76l1.17,0.11l2.029-2.11
		l3.07-0.21l1.96,1.36l1.63-0.011l3.15-3.72l1.06-0.26l2.75,2.12l2.931,0.57l0.92,1.149l2.109,0.601l2.391-0.881l4.35,3.17l3.08,0.4
		l0.82,1.25l2.59,0.54l2.43,1.66l2.061-0.22l1.01,1.72l1.49-0.4l3.239,1.221l8.82,0.89l1.32-1.29l-0.681-2.07l3.16-1.529l0.96,0.35
		l1.91-0.71l1.29-2.17l1.98-1.29l0.59-1.561l2.899-0.439l3.17-1.68l2.21-0.311l0.971-1l2.91-0.16l0.939-1.739l1.41,0.239l0.18-0.51
		l0.57,0.72l2.18,0.32l5.681-2.25l0.079-3.91l-1.069-0.07l-1.37-2.72l1.03-5.62l3.58-3.29l0.46-5.96l2.649-4.21l11.561,0.2
		l2.18-1.95l2.83,0.15l4.29,1.79l2.28,0.03l2.02-0.851l0,0l0.55,8.17l-4.74,2l-2.51,1.971l-0.319,1.13l1.569,3.51l0.73,7.95
		l2.109,3.069l-0.229,3.051l0.95,1.13l1.06-0.28l2.54-3.37l4.23-0.08l2.85-2.72l0.13-3.44l3.19-1.05l7.939,3.97l3.46,0.07
		l0.851-1.41l2.79-1.06l4.5,1.81l2.739,0.101l3.44,1.189l3.36-1.54l2.52,0.45l11.45-8.19l3.46,0.41l3.93,2.34l2.15-0.13l2.13,0.88
		l3.61-0.8l3.449,1.78l1.811-0.01l4.56-3.63l1.73-2.9l0.79-0.26l-0.45,1.09l1.43,1.27l0.49,1.521l-0.69,4l0.351,2.3l-0.64,1.29
		l1.449,1.41l0.101,6.28l2.22,6.109l-2.52,2.351l0.27,3.96l-2.25,5.64l-0.97,0.94l2.64,8.35l-1.09,1.24l-0.62,2.75l-0.34,10.479
		l0.13,2.141l1.4,3.08l2.689,2.489l0.22,1.92l-0.979,1.2l1.03,0.79l0.189,1.16l-0.26,2.45l-2.29,1.72l-3.48,4.83l0.221,3.19
		l-1.471,2.59l0.141,2.16l-1.46,6.51l1.35,2.08l2.28,1.17l2.37,2.43l0.74,2.21l-100.591,0.71l-0.01,160.431l0,0l-8.359-5.37
		l-0.86-3.67l-1.58-1.261l-0.93-2.97l-2.29-1.02l-0.12-3.051l-3.12-1.05l-2.14-2.069l-1.32-3.561l-1.57-1.229l0.29-2.16l-1.609-1.23
		l-0.87-1.899l-2.28-1.051l0.06-4.279l-0.83-1.971l-1.5-1.22l-2.39-0.33l-2.61-1.62l-1.689-1.85l-1.47-4.75l-1.721-1.05l-2.38,0.16
		l-0.649-0.881l0.39-1.6l-2.34,0.05l-4.67-5.83l-2.54-0.68l-1.74-1.76l-2.13,0.439l-1.811-1.68l-1.159-0.01l-0.99,1.109l-4.72-0.97
		l-1.9-1.52l-1.9,0.899l-1.649-0.37l-2.351,1.13l-2.76-0.649l-2.92,1.2l-4.5-1.061l-3.78,0.36l-5.02-1.99l-4.07-2.24l-3.47-3.449
		l-1.4-2.41l-1.63-1.12l-1.55,0.149l-0.03-1.25l-1.1,0.061l-0.66-1.49l-6.72-5.71l-0.44-1.57l-2.21-1.25l-1.57-3.97l-1.52-1.27
		l-0.56-2.92l-2.66-2.181l-1.68-3.33l-5.71,1.181l-4.98-0.71l-2.17-1.83l-2.23-0.07l-2.64,1.43l1.75,8.08l-6.97-3.76l-6.07,1.96
		l-2.47-0.91l-2.14-3.64l-0.08-1.59l-0.95-0.54l-1.15-2.38l0.25-2.66l-1.45-3.88l0.32-2.04l-2.47-3.54l-0.35-1.7l-3.07-2.57
		l-0.36-1.359l-1.6-0.37l-4.66-3.67l-2.31,0.87l-1.13-0.41l-6.98-4.61l-4.46,0.69l-13.63-7.87l0,0l-0.69-2.2l1.71-2.771l-1.92-3.68
		l3.29-2.88l3.89-1.38l0.32-1.08l-0.27-2.35l-2.57-4.57l1.82-2.29l-0.64-1.36l3.5-1.569l0.45-2.21l2.33-1.44l0.44-1.13l-2.07-5.88
		l1.21-1.061l0.67,1.12l3.77-3.63l2.27-1.22l-0.11-3.41l5.55-6.521l-0.08-3.55l0.98-1.05l5.08-4.72l2.7-0.4l3.32-3.45l2.64-0.51
		l0.87-1.06l0.33-1.311l-1.05-0.95l0.04-1.159l7.38-7.03l0.13-1.85l-1.45-2.44l0.27-2.521l2.04-1.859l1.57-4.45l2.42,0.47l0.72-1.12
		l-1.46-3.09l4.51-0.72l1.09-1.09l1.26-6.53l3.23-3.66L400.13,383.1z"/>
	<path id="AO-NAM" fill="#1E3250" stroke="#1E3250" stroke-width="0.5" d="M31,638.239l0.92,0.65l-0.19,3.22l1.14,6.561l-1.33-1.29
		l-2.07-5.681l0.01-2.029L31,638.239z M72.63,487.09l3.43,0.029l8.01,2.301l2.54,0.05l3.16,2.319l7.94-3l0.85-2.3l10.55,2.17
		l1.1,0.62l0.31,1.19l-1.12,2.35l0.12,2.26l2.79,3.54l1.52,3.591l1.19,0.76l2.21-1.271l3.41,1.57l2.48-0.07l0,0l0.89,2.73l2.15,1.46
		l0.35,1.189l-2.94,6.29l1.87,4.771l-0.81,2.55l0.48,1.22l1.16,0.8l1.11-0.59l1.16,0.521l-0.4,2.479l0.67,6.42l-2.74,3.74
		l-0.27,4.79l-2.47,5.79l-6.63,3.65l-4.54,4.06l-2.37,0.36l-2,2.17l1.24,4.989l-2.4,3.65l2.92,3.44l-0.38,1.199l-3.68,2.11
		l0.09,1.19l1.12,1.02l3.81-0.37l-0.17,2.99l1.04,1.26l2.38-0.93l0.52-1.07l1.37,0.33l0.76,2.33l-0.65,2.46l0.74,1.141l2.35,1.85
		l3.75,1.41l-0.31,12.17l2.62,4.77l-5.71,11.55l2.48,5.95l-1.6,3.25l-1.29,0.7l0,0l-4,4.57l-2.4,1.42l-0.55-0.71l-0.78,1.55
		l-1.56,0.09l-1.11,1.72l-2.27,0.811l-1.13,1.75l2.01,1.92l0.94,2.3l-1.77,2.54l-3.5,2.09l-1,2.29l1.38,2.5l7.14,7.12l2.01,5.2l0,0
		l-3.9,1.09l-3.17-0.64l-0.54-1.021l-2.56-0.189l-2.32,0.92l-5.52,0.3l-1.85,1.74l-3.46,1.449l-0.23,0.971l-2.38,1.109l-0.83,1.471
		l-7.48,3.579l-2.5,2.341l-3.65,0.93l-2.03-0.36l-1.83,1.16l-1.23-2.81l-1-0.13l-1.44,1.21l-1.13-0.57l-3.07,1l-2.03-0.1L55,673.579
		l-1.01-1.979l-2.86,0.02l-1.3-0.76l-6.68,1.939l-3.25,2.521l-2.26,0.26l-1.26,1.551l-2.94-0.9l0.01-11.24l1.48-7.81l-0.55-5.101
		l0.82-0.63l-0.47,2.891l0.57-0.061l1.07-2.05l0.55-3.74l-0.38-5.81l0.57-7.13l-1.81-16.5l0.77-5.62l-3.41-5.76l-0.22-1.65
		l2.27-4.71l0.92,0.54l0.67-0.101l0.77,0.561l2.81-0.96l1.34-1.98l0.82-3.51l3.38-2.31l1.21-3.21l0.51-8.771l1.15-2.75l0.08-5.49
		l1.82-1.62l1.67-0.79l0.75,0.551l0.62-0.69l-0.51-2.75l-1.55,0.34l0.29-1.3l2.55-4.51l0.1-3.11l1.07-0.55l1.1-2.66l-0.16-2.42
		l1.81-1.01l1.92-3.74l-0.81-2.83l1.22-1.529l-0.21-1.971l2.7-9.319l0.29-5.44l0.84-1.28l-1.85-6.08l1.48-0.6l0.47-1.28l-0.89-2.71
		l0.4-2.149l1.53-1.33l0.26-3.811l1.4-0.8l-0.22-3.21l3.57-0.53l-0.36,0.65l1.21,0.1l0.86-1.77l-0.47-0.2l0.12-3.92l0.88-6.54
		l-0.57-0.34l0.29-1.54l0.85-0.521L72.63,487.09z"/>
	<path id="AO-UIG" fill="#1E3250" stroke="#1E3250" stroke-width="0.5" d="M261.87,106.169l0.95,0.98l1.91,0.38l3.37-0.87l4.34,1.98
		l-0.52,2.37l0.84,0.89l-0.35,3.64l0.38,1.33l1.83,0.55l0.08,1.5l2.18,0.6l1.57,1.3l0.46,1.38l-1.01,2.05l-0.05,2.72l0.77,2.63
		l-1.07,1.61l-0.62,1.42l2.05,0.98l-1.04,1.02l1.15,1.37l-0.36,1.32l1.76,1.36l-0.57,2.5l1.24,0.73l0.85,4.37l1.83,1.62l0.29,2.76
		l1.72,1.67l0.23,2.05l1.93,0.3l1.23,1.08l-0.08,4.51l1.68,0.98l0.49,1.84l-0.94,2.72l-1-0.84l-0.72,0.35l2.05,5.02l-0.82,1.64
		l1.72,1.35l0.83,3.42l1.23-0.11l2.27,2.22l1.63,0.17l0.24,2.23l0,0l-2.48-0.43l-3.53,2.42l-0.81,1.06l-0.75,5.77l-3.44,1.67
		l-3.29-0.65l-2.17-1.85l-4.98-6.62l-1.39-3.65l-1.11-0.84l-2.16-0.42l-9.2,3.4l-2.1,1.54l-3.47,5.63l-4.61,2.52l-3.69-0.13
		l-2.86,1.4l-0.02,2.52l3.23,9.45l0.82,4.88l-1.51,3.26l-0.83,5.08l-1.95,2.14l-3.41,0.46l-3.4,2.67l-5.43-0.79l0,0l-0.24-4.78
		l-0.67-0.7l-1.32,0.41l-0.64-1.81l1.41-1.23l-2.77-2.05l-4.53,0.07l-1.75,1.65l-4.63,0.8l-1.75-0.74l-0.27-3.29l-0.82-1.24
		l-1.45-0.78l-5.98,0.15l-4.5,1.07l0.39,2.6l-1.2,2.93h1.29l1.02,1.62l-1.07,1.64l-0.05,3.09l-2.12,2.67l-1.3,0.11l-0.66,2.09
		l-2.72-0.32l-2.57,1.23l-2.49-1.63l-2.52-0.24l-4.22,5.71l-2.39,0.96l-3.69-1l-1.83,0.311l-0.64-1.95l0,0l-0.89-2.77l0.06-2.54
		l0.64-2.3l3.36-5.69l0.19-9.32l-1.14-0.95l-2.4-0.3l-7.31,1.54l-3.47-0.34l-5.83-2.86l-3.82-4.8l-4.06-3.24l0.03-1.09l-0.96-1.13
		l-15.36-0.77l0,0l1.05-3.1l3.59-0.72l2.49-2.65l-2.74-2.46l-0.55-2.18l-1.96-1.97l0.75-3.44l2.96-3.36l0.17-1.19l-4.12-3.47
		l-1.14-4.65l-1.54-2.45l2.38-0.77l4.35,0.1l4.39-3.77l5.9-1.55l4.55-2.14l2.03-4.67l2.88-1.88l4.59,0.1l3.31-1.47l2.04-2.59
		l6.86-0.52l4.82-1.96l5.56-8.8l1.96-1.51l2.64-3.65l-4.65-3.64l-0.66-6.16l-5.7-9.22l0,0L261.87,106.169z"/>
	<path id="AO-ZAI" fill="#1E3250" stroke="#1E3250" stroke-width="0.5" d="M62.03,116.45l-0.53,1.46l-1.2,0.1l1.07,0.229l-0.74,1.45
		l-1.22,0.53l-0.14-2.19L62.03,116.45z M143.6,104.85l2.56,2.1l2.01-0.89l4.85-0.22l2.68,1.36l3.14-0.34l8.06,0.93l2.49-0.53
		l4.24,0.98l5.12-1.44l3.11,0.01l0,0l5.7,9.22l0.67,6.16l4.64,3.64l-2.64,3.66l-1.96,1.51l-5.56,8.8l-4.82,1.96l-6.86,0.52
		l-2.05,2.59l-3.31,1.47l-4.59-0.09l-2.88,1.88l-2.02,4.67l-4.55,2.14l-5.9,1.55l-4.39,3.771l-4.35-0.09l-2.38,0.77l1.54,2.45
		l1.14,4.64l4.12,3.47l-0.17,1.19l-2.96,3.36l-0.74,3.44l1.96,1.96l0.55,2.18l2.74,2.46l-2.5,2.65l-3.59,0.73l-1.05,3.1l0,0
		l-4.71,2.73l-3.6,0.07l-1.47,1.27l-4.44,0.81l-1.16,0.88h-2.32l-3.27-2.21l-4.26,1.18l-1.07,1.62l-1.89-0.73l-3.68,2.46l-4.47,0.88
		l0,0l-3.35-8.77l-1.09-1.24l0.49-1.18l-1.03-1.03l-2.53-5.98l-1.08-4.86l-2.97-3.22l-0.15-7.83l-1.01-5.8l-4.09-6.29l-9.08-9.97
		l-8.24-16.74l-5.4-7.88l1.71-1.42l0.1-0.29l0.11-0.53l3.96-0.04l-0.27-0.4l1.6-0.31l1.55,0.64l-0.49-1.76l8.27-3.08l3.88-0.39
		l2.67-1.59l3.58-0.26l9.95-4.87l2.54-0.03l2.12,1.39l6.17-1.76l5.49,1.75l1.81-1.49l21.37,0.229L143.6,104.85z"/>
</g>
</svg>
