<?xml version="1.0" encoding="utf-8"?>
<!-- Generator: Adobe Illustrator 15.0.0, SVG Export Plug-In . SVG Version: 6.00 Build 0)  -->
<!DOCTYPE svg PUBLIC "-//W3C//DTD SVG 1.1//EN" "http://www.w3.org/Graphics/SVG/1.1/DTD/svg11.dtd">
<svg version="1.1" id="Layer_1" xmlns:amcharts="http://amcharts.com/ammap"
	 xmlns="http://www.w3.org/2000/svg" xmlns:xlink="http://www.w3.org/1999/xlink" x="0px" y="0px" width="650.5px" height="768px"
	 viewBox="0 0 650.5 768" enable-background="new 0 0 650.5 768" xml:space="preserve">
<defs>
	
	
		<amcharts:ammap  projection="mercator" bottomLatitude="-26.909177" leftLongitude="19.999295" topLatitude="-17.781145" rightLongitude="29.362215">
		</amcharts:ammap>
</defs>
<g>
	<path id="BW-CE" fill="#1E3250" stroke="#1E3250" stroke-width="0.5" d="M411.45,146.25l0.29,2.79l-2.09,2.35l0.19,2.3l7.061,11.25
		l6.239,18.96l5.12,2.99l3.87-0.6l2.76,2.51l-1.699,2.99l1.77,1.26l2.46-0.27l3.03,5.24l4,0.72l5.01,2.73l3.11,6.01l5.16,0.5
		l1.439,3.39l4.97,0.32l1.011,2.33l6.619,1l3.801,1.62l5.77,0.17l1.98,1.21l2.029,3.21l5.5,0.04l2.67,3.84l1.271,4.71l1.26,1.06
		l1.09,5.13l-0.85,13.721l0,0l1.29,8.12l-2.48,2.989l-0.29,1.971l-2.819,2.449l-0.74,7.141l0.76,2.149l4.41,2.761l3.49,6.569
		l0.96,4.2l-0.18,8.07l1.89,1.97l2.18,11.67l5.771,7.79l3.739,1.15l0.91-0.551l3.98,3.75l7.35,1.671l3.76-1.171l2.91,0.221
		l0.45-0.971l4.72,0.48l2.82,1.91l2.521-0.26l0,0l1.34,1.409l5.229,0.33l5.87,1.7l5.01-0.91L567,327l2.5,1.96l6.09,2.32l5.42-2.59
		l4.9,1.76l1.37,1.79l7.7,3.72l2.89,0.23l6.8,2.62l3.74-0.04l4.06,1.92l0.971,1.189l-2.44,2.96l-1.15,4.91l2.15,6.32l6,3.84
		l2.59,0.17l4.07-1.33l2.52,4.28l4.82,5.26l-1.77,0.54l-1.261-1.06l-7.47-0.54l-3.23,2.29l-7.67,0.199l-4.449,6.41l0.449,4.55
		l-3.649,6.091l-3.28-0.931l-2.35,1.17l-0.051,1.521l-8,2.06l-5.109,3.19l-4.93,0.35l-2.66,1.601l-4.15-1.141l-6.74,0.431
		l-4.39,2.89l-0.82,1.7l-4.21,2.02l-2.68,2.91l-0.4,4.03l-4.52,3.84l-2.62,1.04l-0.05,4.99l-4.57,3.489l-2.26,0.351l0.59,2.2
		l-0.97,4.5l-2.59,2.25l-4.671,1.63l-0.5,1.76l-1.649,0.86l-1.561-0.431l1.28,2.44l-2.04,1.83l-0.72,2.24l-1.6,0.319l-1.86-2.41
		l-2.57,1.881l-2.92-0.761l-0.51,2.351l-1.54,1.069l-0.83,5.87l-1.92,2.09l-5.521,0.45l-1.96,2.72l-1.279-0.43l0.399-1.85
		l-1.729,0.52l-0.21,1.99l-1.57-0.08v-1.52l-1.25-0.2l-1.59,3.649l-4.62,3.07l-1.77-0.65l-1.07,0.95l1.27,1.62l-0.46,0.59
		l-2.05-0.46l-0.979,0.7l-1.24-0.99l0.64,3.41l-2.03-0.29l-1.25,2.05l-2.479,1.261l1.229,2.38l-1.34,1.72l-1.859,0.7l0.18-1.641
		l-1.72-1.27l-0.551,3.36l-1.59,1.17l-0.699,3.06l0,0l-2.381,0.54l-1.869,2.45l-1.011-1.05l-0.2,1.72l-2.939,3.93l-2.95,0.65
		l-5.24,6.04L413.41,464.39l0,0l-10.19-14.369l-8.2-2.62l-19.58-26.61l0,0L273.77,284.14l0,0l-0.12-48.579l2.29,1.63l5.03-0.9
		l0.26-2.35l2.05-1.75l8.3-3.391l2.87,1.42l1.05,2.29l2.98-1.05l0.96,1.42l-0.67,1.71l0.96,1.91l3.31,1.39l2.56,4.131l2.59,1.239
		l3.31-1.409l4.7,0.46l41.22-3.351l0.6-18.91l-11.75-4.95l-0.21-68.68L411.45,146.25z"/>
	<path id="BW-GH" fill="#1E3250" stroke="#1E3250" stroke-width="0.5" d="M85.22,284.15l188.55-0.011l0,0l101.67,136.65l0,0
		l-13.1,26.47l-142.48-0.39l0,0l-199.83-0.18l0,0v-92.07l65.49,0.14L85.22,284.15z"/>
	<path id="BW-KG" fill="#1E3250" stroke="#1E3250" stroke-width="0.5" d="M20.03,446.69l199.83,0.18l0,0v7.34l-5.92-0.16
		l-0.74,0.811l0.05,10.33l6.49-0.021l-0.04,30.59l0,0l-0.29,60.75l67.14-0.229l10.41,11.06l0.94,36.771l9.69,9.97l6.03,0.19
		l0.62,6.43l-1.41,0.47l0,0l-2.11-1.069l-3.29,1.909l-2.55-0.27l-2.15-1.7l-0.06-1.47l-2.88,0.52l0.44-1.59l-1.53,0.11l-2.13-3.931
		l-2.43-1.8l-2.24,0.61l-0.07-1.34l-1,1.239l-3.58,1.011l-1.43-0.95l-0.34,1.75l-1.76-1l-1.45,0.8l-0.11-2.01l-2.54-0.49l-2.19,1.46
		l-1.87-0.74l-1.97-3.39l-2.21-0.51l-0.64-1.86l-1.47-0.09l0.6-1.89l-3.62-1.08l-0.79-2.49l-1.97-1.72l-1.01,0.81l-2.18-0.84
		l-0.83-2.18l-1.55,1.27l-1.7-2.14l-0.01-1.53l-1.42,0.86l-3.96-3.86l-2.09,0.7l0.09-1.96l-2.75-2.15l0.48-1.27l-1.42-0.03
		l-1.74,2.54l-3.03-0.8l-0.82-1.16l-4.06,0.439l-1.07-1.38l-5.26,0.25L225,589.53l-2.67-0.28l-1.16,1.53l-1.44-0.811l0.56-1.97
		l-1.98,1.34l-1.38-1.08l-0.19,2.601l-1.98,0.64l-0.51,3.021l-3.79,2.72l-1.48,3.63l0.81,1.23l-1.96-0.561l-1.5,0.82l0.88,1.18
		l-0.42,1.65l-2.47,4l2.3,2.14l-2.73,1.521l-0.09,1.329l1.33,0.801l-0.42,2.25l-1.41,2.069l-1.69,0.66l-0.94,3.641l-1.25,0.989
		l2.74,1.78l-2.85,2.56l-0.1,1.73l-1.48,1.31l2.04,1.58l-1.28,1.551l-0.33,5.479l-3.73,0.6l0.18,3.48l-2.06,1.39l-0.59,2.45
		l-1.55,1.59l-1.59-0.35l-1.24,5.47l-1.06,0.68l-4.62-1.63l-1.09,1.36l-2.06,0.14l-1.99,1.99l0.22,1.44l-2.36,1.149l0.08,2.24
		l-7.21,2.15l-3.76,3.359l-2.44,7.95l-5.28,5.39l-2.14,3.811l-6.97,2.84l-8.95-0.37l-2.09,2.62l0.9,1.53l-0.13,5.06l-5.48,4.82
		l-4.76,0.37l-2.62-1.37l-4.15,1.05l-8.37-2.63l-3.29,0.15l-2.77,1.739l-2.09-0.699l-3.57,0.51l-4.79,1.84l-4.3-1.6l-3.65-0.211
		l-3.07-2.989l-4.78-0.891l-4.82,1.86l-3.79,2.97l-3.53,0.971l-1.44,2.31l-0.32-3.79l-2.48-1.46l0.14-1.47l-1.35-1.24l0.12-4.46
		l-1.22-2.561l1.2-2.399l0.02-3.59l-1.88-6.45l0.6-4.43l0.69-2.29l1.55-0.23l2.76-2.72l1.85-4.391l2.76-3.649l1.6-0.76l2.22-6.971
		l2.49-2.46l-0.09-1.779l-2.06-1.061l0.97-2.01l-0.82-1.22l0.51-2.261l-1.19-1.96l1.39-3.46l-2.36-3.18l0.53-2.68l-1.5-1.48
		l-0.07-3.7l-2.65,1.521l0.75-3.061l-1.49-0.989l-0.79-3.021l-2.81-2.96l0.43-3.74l-2.01-0.159l2.56-3.211l-4.05-5.18l0.72-2.89
		l1.81-0.5l0.3-1.181l-3.23,0.23l0.38-1.82l-1.4-0.149l-0.28-2.21l-2.78-1.101l-1.2-4.26l-1.65-0.75l1.33-1.69l-3.28-2.39l0.03-2.16
		l-2.14-0.97l-0.47-1.52l1.16-1.381l-0.17-1.27l-1.84-0.061l-3.83-8.88l-5.77-3.93l-1.85-3.6l-2.57-0.53l-1.03-1.271l-1.57,0.9
		l-1.68-1.84l-1.96-0.18l-8.34-9.32L20.03,446.69z"/>
	<path id="BW-KL" fill="#1E3250" stroke="#1E3250" stroke-width="0.5" d="M413.41,464.39l45.479,27.851l5.24-6.04l2.95-0.65
		l2.939-3.93l0.2-1.72l1.011,1.05l1.869-2.45l2.381-0.54l0,0l-1.04,4.54l0.409,1.87l-1.229,1.24l1,0.18l0.07,1.271l-2.591,7.579
		l0.181,2.37l-1.54,4.521l-1.55,1.399l-0.25,2.311l1.149,1.8l-1.06,1.28l0.83,1.62l-1.03,1.33l0.03,3l-5.181,3.229l-3.029-0.149
		l-1.801,1.01l-2.34,2.52l-0.5,2.681l-4.76,1.21l-4.94,5.59l-2.949,7.31l-2.92,1.96l-0.591,1.45l-15.649,3.45l0,0l-2.67-4.36
		L409,531.86l0,0l-2.36-1.54l-0.73,0.359l-1.92-2.52l0.61-5.63l4.33-5.771L413.41,464.39z"/>
	<path id="BW-KW" fill="#1E3250" stroke="#1E3250" stroke-width="0.5" d="M375.44,420.79l19.58,26.61l8.2,2.62l10.19,14.369l0,0
		l-4.48,52.37l-4.33,5.771l-0.61,5.63l1.92,2.52l0.73-0.359l2.36,1.54l0,0l-17.26,18.89l0,0l-6.33-0.24l-9.99-5.83L219.7,495.76l0,0
		l0.04-30.59l-6.49,0.021l-0.05-10.33l0.74-0.811l5.92,0.16v-7.34l0,0l142.48,0.39L375.44,420.79z"/>
	<path id="BW-NE" fill="#1E3250" stroke="#1E3250" stroke-width="0.5" d="M510.75,248.45l4.29,1.11l3.41-0.811l2.12,1.3l1.8-0.83
		l2.5,2l0.51,1.79l-1.62,4.051l0.08,4.279l1.66,3.36l0.17,3.11l-1.37,6.329l-1.52,2.141l0.819,2.3l-0.869,2l1.5,1.8l-1.421,3.08
		l0.78,1.99l-1.08,1.77l4.101,6.03l4.189,2.08l3.45,6.18l3.1,3.44l0.24,2.979l3.811,6.521l-0.94,1.61l1.59,0.77l-1.2,1.64l1.92,0.42
		l0.921,2.921l0,0l-2.521,0.26l-2.82-1.91l-4.72-0.48l-0.45,0.971l-2.91-0.221l-3.76,1.171l-7.35-1.671l-3.98-3.75l-0.91,0.551
		l-3.739-1.15l-5.771-7.79l-2.18-11.67l-1.89-1.97l0.18-8.07l-0.96-4.2l-3.49-6.569l-4.41-2.761l-0.76-2.149l0.74-7.141l2.819-2.449
		l0.29-1.971l2.48-2.989l-1.29-8.12l0,0l4.79-1.681l1.89,0.78L510.75,248.45z"/>
	<path id="BW-NW" fill="#1E3250" stroke="#1E3250" stroke-width="0.5" d="M360.97,63.48l3.72,0.21l-2.11,5.19l-0.16,3.28l2.01,2.66
		l0.93,3.73l2.61,4.56l2.23,0.85l4.2,4.68l6.66,15.52l5.68,7.01l2.24,0.8l4.36,6.73l2.53,0.44l2.28,2.08l0.88,3.81l-0.47,4.6l2,4.08
		l-0.07,1.86l7.93,4.58l3.03,6.1l0,0l-65.39,0.17l0.21,68.68l11.75,4.95l-0.6,18.91l-41.22,3.351l-4.7-0.46l-3.31,1.409l-2.59-1.239
		l-2.56-4.131l-3.31-1.39l-0.96-1.91l0.67-1.71l-0.96-1.42l-2.98,1.05l-1.05-2.29l-2.87-1.42l-8.3,3.391l-2.05,1.75l-0.26,2.35
		l-5.03,0.9l-2.29-1.63l0.12,48.579l0,0L85.22,284.15l0,0l0.11-184.63l30.73,0.01l105.43-21.64l14.06-0.28l1.51,1.16l-0.42,1.46
		l1.46,1.07l-0.8,0.33l0.29,1.6l5.03,6.78l-0.2,2.07l3.28-0.45l0.31,2.23l2.82,0.51l0.2,1.41l1.44,0.73l0.31,2.96l1.75,1.62
		l0.4,1.73l-0.7,1.22l1.29,6.89l2.71,1.34l3.49-2.25l1.15-2.25l2.37-0.12l4.69-3.73l1.27-3.02l2.5-1.27l1.7-2.98l3.22-1.86
		l0.68-2.94l1.59-1.15l1.11,0.31l2.92-3l2.38-1l0.3-1.57l2.03,0.47l1.58-1l5.06-5.82l5.04-0.62l1.59,1.4l0.97-2.25l3.72-3.18
		l2.15,0.74l1.49-0.6l1.42,1.09l0.67-0.49l-0.01,1.32l2.13,2.11l-0.56,1.4l0.65,0.98l2.7,1.27l2.91-0.03l3.24-5.17l2.67-2.06
		l-0.24-0.98l2.92-0.16l1.93-3.58l0.93,0.55l4.11-2.86l3.91-0.78l2.51-2.15l2.39-0.22l1.88-1.39l-0.7,1.19l0.87,1.29l1.74-0.53
		l0.29,1.28l2.62-1.73l0.75,0.87l-0.64,0.78l1.09,0.54l2.92-0.99l0.82-1.44l1.03,0.21l1.04-2.021L360.97,63.48z"/>
	<path id="BW-SE" fill="#1E3250" stroke="#1E3250" stroke-width="0.5" d="M423.69,544.65l-9.7,2.38l-6.04,0.18l-2.33,2.36
		l-2.33,0.729l0.45,3.78l1.43,2.75l-0.43,4.26l-1.39,1.38l-8.07,22.48l-2.05,2.45l-0.83,5.95l-2.83,7.1l0,0l-7.68-2.58l8.63-30.26
		l-4.66,0.3l2.89-8.71l-0.91-1.311l3.96-1.789l-0.06-5.351l0,0L409,531.86l0,0l12.53,8.31l2.67,4.36l0,0L423.69,544.65z"/>
	<path id="BW-SO" fill="#1E3250" stroke="#1E3250" stroke-width="0.5" d="M391.74,550.75l0.06,5.351l-3.96,1.789l0.91,1.311
		l-2.89,8.71l4.66-0.3l-8.63,30.26l7.68,2.58l0,0l-0.08,3.04l-4.4,9.24l-10.67,7.52l-4.97,2.19l-14.36-0.7l-4.93-2.62l-2.31,0.34
		l-2.89,3.15l-1.04-0.3l-1.73,2.119l-0.55-0.329l-0.97,1.63l-3.03-0.21l-3.89,1.109l-4.18-1.29l-3.31,1.16l-13.43-5.33l0,0
		l1.41-0.47l-0.62-6.43l-6.03-0.19l-9.69-9.97l-0.94-36.771l-10.41-11.06l-67.14,0.229l0.29-60.75l0,0l155.72,48.92l9.99,5.83
		L391.74,550.75z"/>
</g>
</svg>
