<?xml version="1.0" encoding="utf-8"?>
<!-- Generator: Adobe Illustrator 15.0.0, SVG Export Plug-In . SVG Version: 6.00 Build 0)  -->
<!DOCTYPE svg PUBLIC "-//W3C//DTD SVG 1.1//EN" "http://www.w3.org/Graphics/SVG/1.1/DTD/svg11.dtd">
<svg version="1.1" id="Layer_1" xmlns:amcharts="http://amcharts.com/ammap"
	 xmlns="http://www.w3.org/2000/svg" xmlns:xlink="http://www.w3.org/1999/xlink" x="0px" y="0px" width="824.5px"
	 height="1244.5px" viewBox="0 0 824.5 1244.5" enable-background="new 0 0 824.5 1244.5" xml:space="preserve">
<defs>
	
	
		<amcharts:ammap  projection="mercator" bottomLatitude="1.652624" leftLongitude="8.498142" topLatitude="12.872582" rightLongitude="16.192723">
		</amcharts:ammap>
</defs>
<g>
	<path id="CM-AD" fill="#1E3250" stroke="#1E3250" stroke-width="0.5" d="M284.99,758.83l2.07-1.87l3.4-6.61l-0.94-2.93l-2.56-3.31
		l-0.47-2.181l0.29-6.859l1.39-1.07l0.3-2.32l-0.94-2.439l-3.22-1.23l-4.54-0.37l-2.84-1.409l0,0l0.76-1.24l1.7-9.74l-0.93-3.32l0,0
		l3.58-1.12l5.16,1.57l2.92-2.24l4.93,0.45l4.49-2.47l1.12-3.59l-0.65-2.7l1.7,0.03l-0.64-0.88l0.73-0.83l0.29-2.86l-0.76-1.47
		l0.78-1.07l2.05-0.24l0.99-0.91l2.19,1.41l3.78-1.31l0.93-3.181l2.43-2.399l0.38-5.351l3.19-1.859l0.13-1.73l-1.57-2.529
		l1.03-1.891l1.66-0.72l-0.32-1.49l-1.47-0.18l-0.15-2.94l-0.76-0.729l-1.56,0.08l-0.1-0.83l2.27-4.53l3.53-1.08l3.25-3.63
		l4.71-1.79l1.79-2.47l4.71-1.8l5.3-5.29l3.31-0.811l0.98-1.88l3.87,0.8l1.12-1.35v-3.37l-9.11-9.54l-0.59-3.88l-4.2,0.17
		l-2.02-0.67l0.22-1.12l4.94-2.92l5.9-7.7l13.61-14.77l2.02-4.5l2.58-1.79l-0.86-7.65l1.84-2.59l0.69-5.74l1.86-2.45l0.79-3.319
		l2.92-5.011l5.82-5.14l1.95-3.7l3.98-4.91l1.16-3.159l-1.62-9.16l4.04-7.5l1.13-0.8l0,0l9.45,11.21l9.45,8.96l4.76,3.489
		l8.31,1.921l5.05-0.061l2.67,6.15l-1.34,4.54l0.54,6.68l18.92,8.55l16.41,2.101l8.91,4.05l6.93,1.06l11.261-0.25l1.489,0.62l1.25-2
		l-0.5-4.18l0.74-2.681l2.58-2.25l3.54-0.13l5.68,1.65l4.41,5.31l5.3,1.891l1.011,1.77l3.79,2.66l1.51-0.13l1.01-2.65l1.771-1.52
		l3.399-0.63l6.311-3.42l5.81,1.27l4.16-0.51l1.859-1.25l10.25-1.521l1.11,0.561l0.65,1.81l-0.5,3.86l0.46,1.26l5.49,2.021
		l18.069,1.569l2.13,1.971l0.82,6.399l6.39,3.61l-0.33,3.12l2.79,2.13l3.931,6.729l4.42,1.48l1.47,2.13l0.99,4.76v4.59l-1.311,4.74
		l8.521,1.351l11.87-0.45l4.41,8.51l5.149,0.62l1.851,2.86l2.859,1.52l6.73-1.35l9.25-5.891l3.7-0.17l17.67-8.09h6.05l4.54-2.69
		l6.06-6.739l4.88-1.181l4.54,1.521l0,0l-1.85,1.01l-2.33,3.05l-2.77,5.19l0.3,3.22l0.939,0.72l-2.95,6.9l-2.77,0.39l-2.17,4
		l-0.92,6.29l0.47,2.09l-2.57,3.49l-3,7.8l-1.569,2.221l-0.87,4.04l-1.54,1.56l-3.1-0.5l-5.61,2.32l-15.811,34.41l-0.439,2.529
		l0.71,2.49l-6.72,10.22l-2.721,1.7l-16.71,5.59l-2.819,2.221l-2.99,4.25l-3.41,3.02l-4.8,1.45l0,0l-2.141-0.44l-1.449-3.12
		l-1.78,0.45l-3.59,3.87l-5.16-0.55l-3.49,2.64l-21.63,2.65l-4.6-3.34l-1.96-0.021L549.43,756.4l-40.64,1.529l-57.94-0.399l0,0
		l-37.88-0.59l-3.6-6.931L392,736.49l-4.23-0.49l-11.59,3.3l-9.63-0.12l-9.5-9.25l-1.98,0.74l-2.1,2.47l-8.43,3.13l-5.27,0.811
		l-2.59,2.1l-4.94,2.221l-5.89,6.55L284.99,758.83z"/>
	<path id="CM-CE" fill="#1E3250" stroke="#1E3250" stroke-width="0.5" d="M284.99,758.83l40.86-10.88l5.89-6.55l4.94-2.221l2.59-2.1
		l5.27-0.811l8.43-3.13l2.1-2.47l1.98-0.74l9.5,9.25l9.63,0.12l11.59-3.3l4.23,0.49l17.37,13.52l3.6,6.931l37.88,0.59l0,0
		l-0.609,8.609l1.939,3.62l2.141,1.12l4.09,6.88L460,785.4l3.78,1.939l1.06,5.25l6.17,9.53v3.18l-5,11.51l-5.939,9.37l-4.48,0.971
		l-4.99-0.32l-4.84,2.72l0.61,1.431l5.01,3.43l10.561,10l7.39,8.95l-1.311,8.43l7.521,2.63l6.47,0.66l5.8,13.42l-2.5,22.23
		l-2.149,3.14l-4.59-1.13l-5.04,0.58l-3.48-0.67l-4.64,1.02l-4.21-0.54l-8.311,4.57l-2.33,2.75l-3.569,11.59l-3.91,4.26l-0.73,3.61
		l0.62,1.97l-1.27,9.75l-2.47,8.76l2.479,2.45l0.59,2.72l-0.74,2.221l-5.93,2.96l-7.64,7.279l-10.07,2l-2.65,2.851l-3.109,0.91
		l-0.7,3.31l2.33,5.07l9.43,5.27l-0.529,12.45l-3.49,7.07l0,0l-2.96-2.641l-4.04-8.229l-2.44-0.521l-2.01,0.521l-2.54,4.22
		l-12.83,10.24l-5.19,5.38l-3.29,13.6l-2.12,2.32l-3.6-0.63l-3.82,2.42l-1.06-0.31v-1.58l1.17-2.221l-0.85-1.369l-13.78-5.48
		l-1.59-2.53l-1.91-0.529l-1.68,0.75l-2.03-0.96l-1.69-2.11l-2.44,0.74l-2.44,6.54l-5.77,1.869l-2.4,2.551l-2.11,0.35l-1.8,3.4
		l-2.66,2.5l-1.82,7.08l-2.37,2.24l-9.92,4.31l-4.48,0.83l-14.67-0.83l-6.7,1.94l-4.2-1.25l-7.82,0.979l-2.52-3.34l-3.49-2.64
		l0.14-2.921l-0.7-1.81l-2.37-0.35l-2.38-2.851l-1.96-10.149l-2.09-2.78l-3.23-2.47l-3.9,1.05l-1.82-0.38l-1.25-1.95l-2.38-0.141
		l-8.83,2.421l-1.25-1.07l-1.85-5.63l-2.04-1.141l-20.44,5.08l-24,7.29l-8.66,1.25l-3.46-13.2l-2.13-4.04l1.76-2.46l0,0l3.97-0.18
		l4.29-7.74l0.18-4.779l2.43-2.511l0.22-4.58l1.26-4.869l2.52-2.23l5.45-1.81l11.35,6.54l2.34,3.199l1.96,0.841l1.67-5.431
		l3.08-1.81l-0.7-1.391l2.66-3.609l-1.54-10.86l3.49-4.31l1.68-6.4l9.58-3.729l3.41,0.67l1.66-1.721l4.21-1.46l3.64-0.01l6.42-2.24
		l3.5-2.37l7.69-1.369l0.27-5.03l-1.54-1.53l-3.98-1.979l-2.73-4.75l-3.96-3.83l-0.2-2.73l-2.89-2.3l-0.45-2.65l-4.37-4.869
		l-0.5-3.711l1.48-1.159l1.46-10.11l-0.5-1.31l-1.57-0.69l-3.73,2.34l-5.2-1.67l-2.2,3.64l-1.9,7.04l-3.14,2.931l-1.82-0.4
		l-1.52-3.54l-1.73,0.71l-1.59,2.76l-3.78,1.381l-2.53,3.13l-3.65,1.109l-13.58-5.05l-2.45,0.38l-2.65-1.18l-1.02-2.03l1.66-6.859
		l4.77-6.921l1.81-0.42l2.66-7.1l-2.24-2.09l-3.94-0.101l-5.84,3.721l-2.24-0.28l1.12-6.55l8.93-6.48l6.02-7.569l0,0l7.55,1.239
		l5.73-1.949l11.16-5.91l3.42-4.221l1.77-0.46l6.98,7.801l4.28,0.689l4.53-3.34l3.82-16.57l3.88-5.09l5.01-1.33l-0.69-2.51l1.1-5.48
		l-0.51-2.439l2.59-2.51l2.96-0.9l1.36-2.79l4.23-3.58l0.7-3.49l-1.94-2.13l0.64-1.55l1.26-0.39l2.15-7.01l-2.15-7.73l2.01-4
		l-0.67-2.52l7.51-6.681l3.49-4.979l-3.67-2.33l-0.49-6.54l-0.88-2.05l0.82-3.94L284.99,758.83z"/>
	<path id="CM-EN" fill="#1E3250" stroke="#1E3250" stroke-width="0.5" d="M508.57,337.03l-1.17-0.261l-3.33-6.77l0,0l2.26-0.47
		l1.2-3.311l3.17-2.37l0.43-5.029l4.14-5.7l0.75-3.69l-0.399-3.85l1.62-2.78l-0.101-5.79l0.521-1.86l2.68-2.77v-2.83l-1.27-1.76
		l-1.2-6l1.01-5.01l0.811-1.82l4.409-4.08l2.271-8.13l2.93-4.83l1.84-1.37l1.69-2.61l1.67-4.11l0.41-7.14l1.29-1.25l4.02-0.9
		l5.391-2.68l2.01-4.83l3.86-3.39l1.779-2.8l1.08-0.35l-0.39-2.47l2.43-1.6l1.21-1.74l1.29-4.46l3.45-3.92l1.36-4.65l2.399-0.75
		l1.78,1.39l4.77,1.04l3.94,3.64l3.87-0.07l7.41-3.23l3.21-4.42l5.449-3.44l13.461-5.26l2.829-5.14l6.44-1.49l10.59-4.27l2.09-1.57
		l1.04-7.78l-0.75-3.58l-3.58-3.63l-3.34-1.87l-2.09-2.86l0.09-0.92l5.601-4.97l-0.24-6.95l0.87-1.35l-0.891-1.15l3.86-4.61
		l-0.39-2.24l1.939-2.61l-3.72-7.61l0.229-1.58l2.87-1.92l-1.229-2.91l1.319-1.86l0.53-3.01l2.15-1.63l-0.51-2.43l-1.011-0.51
		l-0.55-1.73l-0.85,0.84l-1.62,0.14l-0.2,0.82l-3.03-1.01l0.75-0.87l-1.26-2.48l-4.97-1.29l1.189-2.31l-0.79,0.53l-0.369-2.8
		l-3.601-1.69l-0.13-1.85l1.1-0.04l-0.56-1.45l-2.12-0.57l-1.31-1.99l-0.95,0.57l-1.72-1.14l-1.021,0.91l-0.4-1.11l-1.13-0.52
		l-5.81,0.59l-4.89-1.45l-2.851,1.45l-0.71-1.35l-0.47,2.02l-1.25-1.94l-5.69,0.88l-3.729-4.33l-1.59-0.47l0.63-1.06l-0.36-0.89
		l2.08-0.52l-0.4-0.94l0.601-0.58l-1.78-0.15l-0.59-2.75l2.27-3.65l3.141-1.87v-1.29l2.109-2.15l1.9-3.87v-1.07l-1.26-0.43
		l-0.641-2.37l-4.01-3.23l0.42-1.5l0.851-1.08l5.069-2.58l1.69-0.43l3.8,1.08l0.63-0.65l0.851-4.73l-0.641-1.29l-2.319-1.08v-0.86
		l1.899-0.43l5.91,6.03l4.44,0.64l1.689,1.29l0.21,0.65l-2.54,0.86l-0.84,1.5l0.42,0.86l2.96-0.21l1.271,0.64l1.899-1.29v-2.58
		l4.431-7.74l-0.421-9.1l1.061-0.16l1.47,0.43l1.69,2.16l0.87,2.01l-1.07,1.75l-0.41,2.73l2.561,1.28l0.939,2.75l1.54-0.07
		l2.15-2.34v3.35l1.55-0.12l2.7,2.03l4.46-0.48l1.09,0.67l0.7,1.26l-1.79,2.87l0.68,1.86l1.11,0.41l1.319-2.53l1.16-0.51l1.01,1.3
		l0.801,4.03l5.569,0.1l1.25,0.63l2.38,8.23l-0.239,4.89l0.649,2.03l-0.989,2.89l0.789,0.89l2.2-1.71l0.84,3.91l2.5,4.99
		l-0.079,5.08l-0.99,2.96l0.91,3.06l-0.92,7.08l1.029,2.48l-1.93,2.19l4.36,4.92l3.46,2.29l1.369,0.17l2.011-2.21l0.96-0.09
		l2.96,1.69l-0.34,2.84l1.56,0.46l1.15,2.41l-0.54,1.24l-1.66,0.59l1.899,2.13l2.021,0.21l0.91,0.85l-1.16,2.47l-2.26-0.021
		l1.12,4.44l-2.04,1.9l-0.25,1.13l1.279,4.92l1.891,0.98l0.55-1.97l1.72,1.53l0.09,2.51l2.38,3.02l-0.76,1.56l-2.43,0.7l-0.78,1.1
		l1.91,1.48l0.34,1.86l-2.95-0.08l-0.819,2.04l0.37,1.63l1.13,0.95l-0.33,1.61l0.899,1.35l-0.399,2l1.109,2.29l1.021,0.61l-0.2,2.97
		l3.72,1.86l0.601,2.83l-0.97,2.86l-3.73,3.02l0.26,1.15l-1.18,0.55l-1.39,2.3l0.26,0.84l-1.88,2.57l1.14,4.41l-1.65,1.69l-0.67,2.7
		l0.471,1.23l-1.78,0.95l0.15,1.8l-0.971,0.49l0.62,1.38l-0.2,2.76l1.15,1.18l-1.53,1.26l0.931,0.85l-0.78,1.43l1.149,2.77
		l-0.58,0.83l0.301,1.61l-1.221,1.43l1.061,0.44l-0.12,4.34l1.13,0.66l-0.83,1.1l1.58,3.42l-0.229,4.5l1.31,3.02l2.06,1.92
		l0.95,5.78l0.141,2.76l-2.4,2.84l-0.08,3.48l3.25,6.45l2.68,3.4l2.83,6.69l0.311,2.49l-1.37,3.52l0.18,5.24l2.561,2.33l3.899,1.42
		l3.34,3.28l1.07,3.48l3.271,3.74l-0.061,3.75l1.5,1.87l-0.12,1.24l1.17,0.87l0.28,2.029l4.68,1.74l2.341,3.3l1.55,0.82l2.79,4.311
		l3.189,2.26l3.57,7.16l1.979,0.909l0.87,2.04l1.61-0.43l4.41,3.58l7.89,3.57l2.69,1.92l0.88,2.319l-9.66,2.83l-15.94,2.54l-10-3.92
		l-10.479-2.63l-2.42,3.311l-5.46-2.591l-2.75-0.529l-2.2,1.21l-1.03,1.979l-3.56-0.29l-5.01-3l-3.37-0.58l-6.83,2.21l-5.09,3.98
		l-3.471,1.77l-3.819-0.34l-4.391-2.22l-5.229-0.08l-16.61-5.14l-6.109-1.12l-14.141,1.359l-4.06-0.68l-7.36,0.65l-2.77,0.81
		l-1.771,2.54l0,0l1.23-6.97l-0.801-2.391l-10.18-4.14l-4.38,0.89l-2.7-4.149l-3.04-1.5l-2.13-3.93l-1.63-1.221l-1.89-0.93
		l-5.431-0.271l-3.229-1.55l-5.88,1.12l-11.811-2.32l-2.38,1.03l-1.87,4.12l0.681,2.23l2.55,2.1l0.12,1.32l-0.801,1.04l-6.449,1.42
		l-5.061,3.08l-5.41-0.92L508.57,337.03L508.57,337.03z"/>
	<path id="CM-ES" fill="#1E3250" stroke="#1E3250" stroke-width="0.5" d="M610.28,748.29l0.39,0.79l-0.9,4.09l1.461,3.01l3.09,2.681
		l2.43,4.33l0.4,2.06l1.29,1.24l2.22,0.49l2.859-0.78l0.931,0.66l3.649-2.25l1.04,0.359l1.15,2.15l0.69,20.33l-3.381,11.41
		l1.74,5.08l1.95,3.22l-2.75,4.22l-0.25,6.73l-2.46,1.34l-0.01,1.92l-2.99,5.8l0.5,1.021l-2.66,2.449l0.5,1.271l4.76,4.1l7.59,1.51
		l2.44,3.261l1.97,8.55l-1.609,1.37l-0.24,1.18l1.479,5.061l-0.989,0.56l-0.41,2.79l1.81,2.93l-1.05,3.4l3.08,6.26l-0.85,1.23
		l1.449,6.85l-0.689,1.82l-1.23,0.63l1.811,2.439l0.38,10.15l1.1,2.31l-0.279,0.971l1.67,0.97l0.989,1.89l1.44,0.261l4.47,5.56
		l2.221,1.45l1.909,0.24l0.33,1.109l1.561,0.62l1.76,2.5l5.4,2.24l0.54,1.11l2.149-0.141l1.28,0.36l0.54,1.04l2.99,0.55l1.76,5.5
		l1.37-0.09l2.18,4.33l1.91,1.54l1.57,5.189l-0.48,2.101l1.08,1.96l-0.11,3.96l0.69,0.62l0.08,2.34l-0.71,1.34l0.779,1.79
		l2.421,1.899l1.149,3.49l2.521-0.3l1.01,1.49l-3.851,2.14l-8.079,2.09l-1.011,1.62l3.36,0.13l1.72,5.221l14.49,23.68l26.71,28.02
		l29.94,34.87l0.739,0.681l0.71-0.87l5.051-0.71l1.06,1.14l1.72,0.15l3.94,6.229l4.38,4.9l1.38-1.271l2.33-0.09l1.26,1.99l1.91,0.71
		l0.09,1.609l2.32,4.41l1.43,1.25l1.46,4.53l0.181,3.87l-1.641,1.97l-2.29,1.141l1.42,4.01l-0.27,4.17l2.84,1.1l-1.5,2.58l-0.8,3.62
		l1.8,4.36l-1.81,7.21l1.83,3.63l-0.971,2.67l0.84,2.14l2,1.641l1.28,3.6l3.4,4.46l2.31,7.771l-0.649,2.88l2.81,3l-1.19,1.79
		l-2.109,0.92l-1.29,1.49l-0.58-0.011l-0.98-2.17l-3.75-0.189l-0.989,0.609l-0.641,5.32l0.891,5.771l-2.36,1.949l1.93,2.59
		l-2.97,3.92l-0.01,3.23l2.52,2.43l1.13,5.711l2.44,0.319l0.09,3.29l1.22,4.03l1.32,1.77l0.7,3.7l-0.72,3.8l1.319,2.07l-0.85,2.3
		l-1.93-1.34h-1.24l-3.09,1.01l-1.98,3.29l-3.33-0.43l-1-2.26l0.431-2.33l-0.891-1.67l1.62-3.12l-0.14-1.37l-7.511,0.04l-4.439-1.41
		l-0.58-1.38l-3.11,0.97l0.28-0.87l-1.51-3.739l-2.05-0.2l-1.41-1.511l-2.84-1.119l-4.381-5.73l-1.529-0.74l-2.21,0.28l-4.3-2.04
		l-3.37,0.05l-6.301-2.069l-2.899,0.58l-1.99-1.42l-2.03,0.75l-3.97-2.23l-5.56,1.91l-2.46,1.85l-6.62,2.83l-1-2.95l-1.61,0.94
		l-1.29-0.38L701,1171l-1.78-2.67l-3.189-2.41l-1.7-0.29l0.88-1.69l-3.86-1.02l-1.83,0.16l-1.869,2.01l-1.66-2.609l-1.021,0.109
		l-0.59,2.59l-0.57,0.58l-2-0.359l-1.439,3.39l-3.351-0.18l0.03-1.74l-0.939-0.45l-2.45,2.46l-0.87-2.229l-4.84-3.48l-1.96,2.94
		l-4.641,0.689l-2.59-2.1l1.63-1.88l0.41-1.851l-3.53-1.71l-0.529-3.72l-1.7,0.771l0.54,2.149l-2.66-0.08l-1.4,1.81l-1.31,0.49
		l-1.77-1.439l-2.33,1.029l-0.301-3.459l-2.85,0.81l-0.07-0.8l1.2,0.029l0.15-0.59l-2.8-2.189l-0.73,0.319l0.07,1.561l-2.12-0.55
		l-1.72-2.19l-3.601,0.15l-0.32-2.261l-1.77-0.52l-1.9-3.53l-2.979-2.149l-1.021,0.91l-1.68-0.891l-1.14,1.49l-11.561,4.2
		l-3.79-2.721l-8.949-0.819l-4.141,0.55l-1.37,1.319l-1.1,0.07l-59.12,0.09l0,0l-1.83-41.449l-2.83-30.051l0.21-3.58l-4.45,2
		l-2.159,3.221l-3.25-0.061l-0.101,1.69l-2.12-0.32l-1.27,1.48l1.16,2.64l-1.38,1.37l-5.561,1.31l-6.729-4.27l-3.101,1.18
		l-5.49-4.439l-2.08,1.22l1.761,4.68l-1.9,0.63l-0.96-4l-5.72-4.64l-1.38,1.58l-3.44,0.64l-2.39-2.54l-2.86,3.061l-2.01-1.05
		l-6.15-0.53l-4.35-2.851l-2.54,1.58l-4.66-1.05l-4.14,0.101l-1.8-1.471l-1.91,0.311l-2.44-2.42l-2.01-0.631l-3.5-5.479
		l-0.95-18.771l-4.88-8.75l-14.14-14.09l-1.971-3l0.96-12.55l1.061-2.85l0,0l3.49-7.07l0.529-12.45l-9.43-5.27l-2.33-5.07l0.7-3.31
		l3.109-0.91l2.65-2.851l10.07-2l7.64-7.279l5.93-2.96l0.74-2.221l-0.59-2.72l-2.479-2.45l2.47-8.76l1.27-9.75l-0.62-1.97l0.73-3.61
		l3.91-4.26l3.569-11.59l2.33-2.75l8.311-4.57l4.21,0.54l4.64-1.02l3.48,0.67l5.04-0.58l4.59,1.13l2.149-3.14l2.5-22.23l-5.8-13.42
		l-6.47-0.66l-7.521-2.63l1.311-8.43l-7.39-8.95l-10.561-10l-5.01-3.43l-0.61-1.431l4.84-2.72l4.99,0.32l4.48-0.971l5.939-9.37
		l5-11.51v-3.18l-6.17-9.53l-1.06-5.25L460,785.4l-1.59-7.641l-4.09-6.88l-2.141-1.12l-1.939-3.62l0.609-8.609l0,0l57.94,0.399
		l40.64-1.529l14.931-6.431l1.96,0.021l4.6,3.34l21.63-2.65l3.49-2.64l5.16,0.55l3.59-3.87l1.78-0.45l1.449,3.12l2.141,0.44l0,0
		L610.28,748.29z"/>
	<path id="CM-LT" fill="#1E3250" stroke="#1E3250" stroke-width="0.5" d="M95.28,960.89L96,962.2l1.66,0.31l1.23,3.021l-1.34,3.27
		l-1.2,0.91l2.75,0.17l1.46,1.25l-6.72,2.33l-4.35-1.25l-3.69-2.16l2.91-3.63l0,0l0,0l0,0l-0.17-0.35l-0.14-0.5l3.75,0.29l1.2-1.141
		l-0.14-2.189L95.28,960.89z M103.86,959.75l0.74,0.28l-0.11,0.97l0.66-0.68l0.71,0.68l0.54,3.47l-0.69,1.25l-2.6-0.29l-2.72-1.649
		l1.56-2L103.86,959.75z M96.61,959.65l0.47,2.3l-0.91,0.08l-0.86-1.65L96.61,959.65z M103.66,958.19l1.23,0.199l0.34,0.83
		l-1.37-0.26L103.66,958.19z M101.2,957.93l2.03,1.91l-1.4,1.45l-1.23-0.26l0.49,1.2l-1.31,0.85l-1.43-0.8l-1.03-2.11l3.26-0.71
		L101.2,957.93z M100.8,955.65l1.29,1.449l-1.8,1.2l0.07,0.891l-1.42,0.199l-0.54-0.54l0.09-2.909L100.8,955.65z M97.77,954.57
		h-0.01l0,0l0.01-0.021l0,0V954.57z M100.17,954.46l-0.46,1.08l-0.37-0.71L100.17,954.46z M98.44,954.02l0.5,0.58l-0.83,1.221
		l-0.23,2.85l-2.48,1.32l1.24-2.13l-0.28-0.95l0.8-0.17L98.44,954.02z M101.29,951.47l-0.89,2.05l0.06-2.22L101.29,951.47z
		 M101.26,949.73l0.91,1.119l-0.48,0.53l-1.17-1.11L101.26,949.73z M102.09,950.21l1.05,0.81l1.46-0.029l3.14-4.271l-2.06-2.689
		l0.54-2.32l-0.99-0.8l-6.01,1.43l-1.35-1.52l-2.69-0.271l-0.45-1.7l1.95-8.58l6.97-11.319l-1.42-3.271l0.46-5.08l9.15-15.46
		l3.71,1.15l2.77-1.21l-0.22-3.86l6.03-7.5l1.15-6.58l8.62-8.99l-0.05-1.88l-2.89-1.37l0.11-2.39l4.04-8.47l4.65-0.82l0.68-1.37
		l-4.98-8.89l-3.82-2.89l-2.87-10.49l0.44-1.641l3.71,0.561l1.38-0.561l3.59-5.199h3.36l0,0l-1.29,7.21l0.48,1.56l3.47,0.92
		l2.21-1.92l4.37-0.12l2.66,2.681l2.18,5.149l-1.58,7.29l2.36,6.46l5.89,2.15l0.81,7.3l1.96,0.27l2.01,4.29l2.72-0.14l3.3-7.29
		l5.88-3.43l0.43-3.86l1.29-1.72l5.59,1.57l7.71-1.141l0.9,0.851l0.29,4.859l3.07,3.68l0.73,4.461l1.65,1.439l1.98-1.13l1.32,3.56
		l4.02,0.7l0,0l-6.03,7.561l-8.92,6.489l-1.12,6.551l2.24,0.279l5.83-3.71l3.95,0.091l2.24,2.09l-2.66,7.1l-1.82,0.42l-4.76,6.92
		l-1.66,6.87l1.02,2.021l2.65,1.189l2.45-0.38l13.58,5.05l3.65-1.109l2.53-3.131l3.77-1.38l1.6-2.76l1.72-0.71l1.52,3.53l1.82,0.399
		l3.14-2.93l1.9-7.04l2.2-3.649l5.2,1.67l3.73-2.341l1.57,0.69l0.5,1.31l-1.46,10.11l-1.48,1.16l0.5,3.71l4.37,4.87l0.45,2.64
		l2.89,2.3l0.2,2.73l3.95,3.84l2.74,4.74l3.98,1.99l1.54,1.529l-0.28,5.03l-7.69,1.37l-3.49,2.37l-6.43,2.239h-3.63l-4.21,1.461
		l-1.66,1.72l-3.42-0.67l-9.58,3.729l-1.68,6.4l-3.49,4.31l1.54,10.851l-2.65,3.62l0.7,1.39l-3.07,1.81l-1.68,5.42l-1.96-0.829
		l-2.35-3.211l-11.35-6.529l-5.45,1.81l-2.52,2.22l-1.26,4.87l-0.22,4.58l-2.44,2.51l-0.18,4.78l-4.29,7.74l-3.97,0.18l0,0
		l-0.22-2.399l-2.79-1.25l-2.1-2.5l-2.94,2.09l-4.39,0.01l-6.74,9.44l0.23,7.93l-1.82,1.95l0.28,1.81l-1.82,4.17l-5.45,2.92
		l-3.63,3.61l-5,1.32l0,0l-0.38-1.141l0.63-1.51l-1.14-2.16l-8.95-10.41l-7.61-7.51l-9.98-7.51l1.4-1.021l-0.8,0.28l0.6-1.02
		l-0.63-1.48l1.52-5.01l-3.12-6.35l-7.49-11.87l3.4,2.31l1.83,4.73l5.63,0.51l0.74-0.57l0.14-2.08l-0.74,2.11l-4.12-1.37l-2.4-4.64
		l0.83-1.141l-0.11-2.08l1.29-2.79l1.46-0.479l3.37,2.33l0.17,1.109l0.66-0.68l1.29,2.08l-0.06-1.05l1.09,0.649l-0.55,1.23
		l0.89,1.17l0.26,3.19l-0.63,1.76l-2.26,1.62l1.57,1.109l0.11,1.62l1.23,0.681l-1.52-3.681l1.26-1.25l0.54,0.63l0.71-2.159l0.46-0.2
		l-0.8-1.17l0.11-2.08l-1.66-3.76l0.6-1.221l1.12-0.43l0.37-1.79l-3.23-4.16l2.92-1.05l-0.97-2.39l-1.57,0.739l-4.69-0.09
		l-1.06-0.77l-0.23-1.511l0.23-0.939l1.09,0.6l-0.17-1.34l2.54-3.84l2.03,1.42l1.97-0.34l0.23,0.739l2.26,0.94l-2.46-2.05
		l-1.71,0.45l-1.44-2.21l0.23-0.91l0.8,0.77l0.37-0.6l-0.94-0.29l2.6-3.05l-4.46,0.8l0.26,0.63l-2,2.33l-1.34,0.03l0.31,0.91
		l-5.03,1.51l-1.6-1.14l-0.11-0.74l-0.06-0.44l1.23-2.55l-1.74,1.48l0.09,2.279l-0.6,0.11l-1.03-0.43l-0.09-0.601l-1-0.03
		l-0.23-1.449l-0.8,0.09l-0.92-1.4l-0.63-0.26l0.83-1.68l-0.77-0.061l-0.69,1.311l-1.09-2.561l0.97-1.62L102.09,950.21z"/>
	<path id="CM-NO" fill="#1E3250" stroke="#1E3250" stroke-width="0.5" d="M729.26,585.63l0.471,1.7l-1.94,3.83l0.57,1.47l-7.32,6.75
		l-0.58,1.96l-3.229,2.67l-0.65,2.63l-1.07,0.25l-1.71,2.25l2.55,2.36l0.67,2.02l-3.869,0.841l-7.23,6.909l-1.85,0.341l-5.891,4.55
		l0,0l-4.54-1.521l-4.88,1.181l-6.06,6.739l-4.54,2.69h-6.05l-17.67,8.09l-3.7,0.17l-9.25,5.891l-6.73,1.35l-2.859-1.52l-1.851-2.86
		l-5.149-0.62l-4.41-8.51l-11.87,0.45l-8.521-1.351l1.311-4.74v-4.59l-0.99-4.76l-1.47-2.13l-4.42-1.48l-3.931-6.729l-2.79-2.13
		l0.33-3.12l-6.39-3.61l-0.82-6.399l-2.13-1.971l-18.069-1.569l-5.49-2.021l-0.46-1.26l0.5-3.86l-0.65-1.81l-1.11-0.561
		l-10.25,1.521l-1.859,1.25l-4.16,0.51l-5.81-1.27l-6.311,3.42l-3.399,0.63l-1.771,1.52l-1.01,2.65l-1.51,0.13l-3.79-2.66
		l-1.011-1.77l-5.3-1.891l-4.41-5.31l-5.68-1.65l-3.54,0.13l-2.58,2.25l-0.74,2.681l0.5,4.18l-1.25,2l-1.489-0.62l-11.261,0.25
		l-6.93-1.06l-8.91-4.05l-16.41-2.101l-18.92-8.55l-0.54-6.68l1.34-4.54l-2.67-6.15l-5.05,0.061l-8.31-1.921l-4.76-3.489l-9.45-8.96
		l-9.45-11.21l0,0l0.12-5.74l-2.02-10.641l0.74-5.39l2.25-4.729l4.26-1.12l1.57,0.899h2.24l2.92-2.25l0.81-2.91l3.08-0.6l1.13-1.89
		l-0.76-3.62l-2.689-4.05l0.22-2.261l2.689-0.67l2.92,0.67l4.051-2.659l9.319,2.829l1.37-0.199l5.65-4.601l3.63-0.31l1.65-3.08
		l1.63-1.22l0.25-4.551l0.97-1.829l2.42-0.9l3.87,0.29l1.8-1.851l2.19-7.17l0.68-9.02l1.86-4.89l-1.19-9.591l2.021-4.52l0.67-4.061
		l2.859-5.069l0.271-2.16l1.21-1.16l-0.15-12.43l-0.81-0.69l-3.94-0.45l-0.16-2.239l6.271-3.29l6.25-5.641l2.7-0.47l4.56-3.59
		l12.85-1.28l1.671-0.58l1.64-1.7l1.59,0.211l2.94-6.391l-0.71-1.05l0.359-2.34l-0.54-1.29l1.79-2.45l-0.45-1.84l0.891-2.14
		l0.22-3.75l3.6-5.15l-1.68-2.64l-4.47-2.2l-1.16-2.67l0.05-2.94l3.07-2.3l1.91-4.57l-0.05-1.05l-2.57-2.7l-0.25-1.64l6.96-9.78
		l1.52-0.67l3.42,0.05l3.261-1.22l0,0l3.33,6.77l2.989,0.101l2.04-1.37l3.21-0.56l5.41,0.92l5.061-3.08l6.449-1.42l0.801-1.04
		l-0.12-1.32l-2.55-2.1l-0.681-2.23l1.87-4.12l2.38-1.03l11.811,2.32l5.88-1.12l3.229,1.55l5.431,0.271l1.89,0.93l1.63,1.221
		l2.13,3.93l3.04,1.5l2.7,4.149l4.38-0.89l10.18,4.14l0.801,2.391l-1.23,6.97l0,0l-1.51,6.73l-1.101,1.699l-9.43,12.16l-3.79,3.04
		l-1.399,3.3l-0.301,6.08l2.54,2.261l1.58,3.739l7.601,8.41l3.199,2.4l2.48,0.71l0.58,2.91l2.91,1.52l2.63,4.55l2.76,1.88l4.13,0.69
		l3.82,6.12l3.21,1.979l0.72,2.141l-1.47,4.74l0.24,2.619l5.1,4.69l1.601,2.62l4.88,3.57l-0.9,2.189l2.62,3.97l5.12,2.12
		l12.59,12.69l3.66,2.71l3.71,4.45l1.33,0.72l4.35,0.26l1.48,0.98l2.779-0.16l2.42-1.38l2.5,0.74l0.95,2.649l1.87,1.49l-1.51,1.38
		l1.439,0.88l2.721-0.04l2.63,1.45l1.29,1.6l-0.601,3.13l0.521,1.07l4.75,0.7l3.99,1.97l3.02,4.62l1.2,3.311l9.57,9.31l1.5,2.4
		l0.59,3.01l5.2,9.05l1.39,4.9l10.979,21.649l-0.75,4.88l0.851,2.561l2.439,2.96l4.73,12.78l4.32,6.97l8.27,2.06l0.64,0.9
		l-0.649,2.399l0.74,5.591L729.26,585.63z"/>
	<path id="CM-NW" fill="#1E3250" stroke="#1E3250" stroke-width="0.5" d="M172.56,659.63l0.92,4.18l2.19,2.19l3.7,1.52l20.52-1.35
		l5.55,0.34l1.52-0.84l-0.19-3.729l2.23-0.69l1.46-1.66l2.32-10.02l-0.13-4.811l1-7.529l0.97-0.051l2.04,1.851l0.66,3.479l-0.87,3.2
		l3.08,2.63l2.44,0.59l0.67-0.76l2.07,1.05l0.61,2.521l11.78,5.609l3.17-0.1l2.35,2.02v4.211l2.19,3.189l0.34,4.55l2.18,3.03
		l3.03,1.85l8.41,0.511l5.89,4.54l1.1,5.029l-1.13,9.011l1.42,3.689l1.32,8.8l3.03,3.59l8.06,0.66l0,0l0.93,3.32l-1.7,9.74
		l-0.76,1.24l0,0l-2.46,1.689l-1.62,3.14l-1.88,1.21l-3.98,0.28l-7.76-1.319l-1.13,0.85l-0.76,0.95l0.57,4.25l0.97,1.91l-1.31,1.64
		l-0.32,4.89l-1.96,2.29l-6.7,3.91l-5.41,1.59l-2.11,1.88l-10.29-2.54h-3.4l-1.7,0.95l-6.99,16.61l-2.59,3.399l-11.71-0.27
		l-16.68,3.03l-0.86,6.3l-2.15,1.86l-2.08-0.851l-2.5-2.729l-7.87-2.53l-5.77,4.7l-2.37,0.239l0,0l-8.66-1.52l-3.01-1.46l-3.67,1.12
		l-2.19,2.439l-5.67-2.89l-7.15-2.09l-4.08-2.54l-1.73-2.82l-1.98-1.569l-3.59,0.689l-4.4-4.86l-3.01-1.5l-2.03-1.979l2.62-5.43
		l-2.43-3.25l-0.34-3.7l7.65-3.9l3.94-4.069l2.24-6.711l2.55-4.649l-1.22-3.46l1.22-9.59l-2.86-3.87l1.35-4.07l0.36-4.729
		l-3.65-3.511l0,0l2.48-9.229l1.71-4.7l0.99-0.61l0.47-1.779l-0.61-3.38l0.63-2.98l1.28-1.62l-0.5-1.31l1.49-3.54l1.34,1.01
		l1.15-0.48l1.5,0.851l3.67,0.149l2.22,1.211l7.69-7.711l1.85-3.06l4.05-2.85l1.08-1.87l13.64-12.3l1.47,0.52l-0.11,1.35l1.21,0.61
		l-0.9,1.36l1.41,3.42L172.56,659.63z"/>
	<path id="CM-OU" fill="#1E3250" stroke="#1E3250" stroke-width="0.5" d="M276.93,726.23l2.84,1.409l4.54,0.37l3.22,1.23l0.94,2.439
		l-0.3,2.32l-1.39,1.07l-0.29,6.859l0.47,2.181l2.56,3.31l0.94,2.93l-3.4,6.61l-2.07,1.87l0,0l0,0l0,0l0.61,4.88l-0.82,3.94
		l0.88,2.05l0.49,6.54l3.67,2.33l-3.49,4.979l-7.51,6.681l0.67,2.52l-2.01,4l2.15,7.73l-2.15,7.01l-1.26,0.39l-0.64,1.55l1.94,2.13
		l-0.7,3.49l-4.23,3.58l-1.36,2.79l-2.96,0.9l-2.59,2.51l0.51,2.439l-1.1,5.48l0.69,2.51l-5.01,1.33l-3.88,5.09l-3.82,16.57
		l-4.53,3.34l-4.28-0.689l-6.98-7.801l-1.77,0.46l-3.42,4.221l-11.16,5.91l-5.73,1.949l-7.55-1.239l0,0l-4.02-0.7l-1.32-3.561
		l-1.97,1.13l-1.65-1.439l-0.74-4.45l-3.06-3.689l-0.29-4.86l-0.9-0.85l-7.7,1.14l-5.6-1.58l-1.29,1.72l-0.43,3.86l-5.88,3.43
		l-3.29,7.3l-2.73,0.141l-2.01-4.29l-1.96-0.271l-0.8-7.3l-5.89-2.149l-2.36-6.461l1.58-7.289l-2.18-5.15l-2.66-2.68l-4.37,0.119
		l-2.21,1.921l-3.48-0.931l-0.47-1.56l1.29-7.21l0,0l2.26-1.46l2.78-4.61l2.09-1.51l0.93-2.47l0.77-10.95l1.1-2.2l6.28-3.96
		l3.82-3.811l2.77-0.619l2.55-1.82l-0.37-2.54l-2.13-3.23l0,0l2.37-0.239l5.77-4.7l7.87,2.53l2.5,2.729l2.08,0.851l2.15-1.86
		l0.86-6.3l16.68-3.03l11.71,0.27l2.59-3.399l6.99-16.61l1.7-0.95h3.4l10.29,2.54l2.11-1.88l5.41-1.59l6.7-3.91l1.96-2.29l0.32-4.89
		l1.31-1.64l-0.97-1.91l-0.57-4.25l0.76-0.95l1.13-0.85l7.76,1.319l3.98-0.28l1.88-1.21l1.62-3.14L276.93,726.23z"/>
	<path id="CM-SU" fill="#1E3250" stroke="#1E3250" stroke-width="0.5" d="M419.2,1006.95l-1.061,2.85l-0.96,12.55l1.971,3
		l14.14,14.09l4.88,8.75l0.95,18.771l3.5,5.479l2.01,0.631l2.44,2.42l1.91-0.311l1.8,1.471l4.14-0.101l4.66,1.05l2.54-1.58
		l4.35,2.851l6.15,0.53l2.01,1.05l2.86-3.061l2.39,2.54l3.44-0.64l1.38-1.58l5.72,4.64l0.96,4l1.9-0.63l-1.761-4.68l2.08-1.22
		l5.49,4.439l3.101-1.18l6.729,4.27l5.561-1.31l1.38-1.37l-1.16-2.64l1.27-1.48l2.12,0.32l0.101-1.69l3.25,0.061l2.159-3.221l4.45-2
		l-0.21,3.58l2.83,30.051l1.83,41.449l0,0l-38.34,0.021l0.13-1.24l-1.16-0.62l1.82-1.97l-2.03-4.31l-2.16-0.101l-0.069-1.01
		l-1.37-1.271l-2.891,1.431h-1.699l-0.19-0.87l-1.08,0.3l-0.69-0.74l0.94-0.13l-0.34-0.82l-1.37,0.4l-1.86-0.66l-4.97,1.601
		l0.35,1.739l-1.739-0.119l-1.34,1.569l-1.131-1.27l-3.579,1.34l-0.591-1.15l-4.29-0.14l-2.33,0.77l-5.34-1.149l-0.449,0.25
		l0.539,0.71l-2.14,0.82l-1.89-1.011l-0.96,1.72h-0.95l-0.82-0.779l-2.75-0.38l-0.85-1.83l-0.521,0.939l-2-0.1l-0.33,1.11
		l-1.649,0.89l-3.48,0.69l-3.25-0.521l-2.239-1.44l-3.131,0.381l-3.42-0.59l-1.46-1.061h-2.31l-0.37-1.11l-0.97-0.35l-3.32,1.34
		l-5.34-0.49l-4,0.841l-15.72-2.521l-0.99,0.08l-1.17,1.96l-3.91,0.75l-3.53-3.03l-4.05-0.189l-1.42,0.92l-2.99-1.91l-1.74,1.2
		l-5.65-0.84l-1.49,0.539l-2.56-0.909l-0.38,0.819l-1.93-0.16l-1.09-0.689l-4.87,0.97L352,1137l-0.91,0.89l-4.41-0.3l-0.35,1.01
		l-4.03-1.22l-0.23,0.8l-2.85-0.49l-1.27,0.961l-3.21-0.04l-0.56-2.521l-1.46,0.26l-3.66-2.789l-3.18,0.069l-2.09,1.56l-1.77-0.119
		l-1.5,0.83l-3.56-1.271l-2.1,0.24l-1.31,1.149l-4.06-0.529l-1.9,0.87l-2.99-0.96l-0.66,0.14l0.59,0.71l-1.06,0.35l-1.3-0.92
		l-0.94,0.551l-3.49-0.7l-1.53,0.42l-1.17,1.11l1.29,1.239l-0.49,0.851l0.52,0.779l-2.82,3.44l0.68,0.54l-0.65,3.79l0.72,1.05
		l-13.32,0.04l-3.8-1.37l-2.54,1.26l-99.71,0.19l-2.61,1.45l-1.36-1.71l-1.74,0.13l-1.79,1.449l-6.62-0.59l-0.81-1.619l-1.24,2.02
		l-11.86-3.98l-1.85,0.931l-0.81-2.55l-1.85-1.59l-3.49-1.471l-1.72-4.54l0.19-3.939l-1.19-1.891l-0.25-7.51l0.91-2.16l-1.08-6.51
		l0.74-1.39l-0.09-5.09l1.83-5.15l0.63-5.57l1.46-2.68l-0.26-1.99l1.81-1.84l0.02-3.1l1.83-3.36l-1.2-4.61l0.89-3.84l0.71-0.25
		l-0.08-3.47l0.88-3.36l1.98-4.38l2.89-1.93l1.48-4.841l-0.37-1.729l1.12-0.97l-5.55-13.83l-2.37-4.01l0,0l5-1.32l3.64-3.62
		l5.45-2.92l1.81-4.17l-0.28-1.811l1.82-1.939l-0.23-7.93l6.74-9.45l4.39-0.01l2.94-2.08l2.09,2.5l2.8,1.25l0.22,2.409l0,0
		l-1.76,2.46l2.13,4.04l3.46,13.2l8.66-1.25l24-7.29l20.44-5.08l2.04,1.141l1.85,5.63l1.25,1.07l8.83-2.421l2.38,0.141l1.25,1.95
		l1.82,0.38l3.9-1.05l3.23,2.47l2.09,2.78l1.96,10.149l2.38,2.851l2.37,0.35l0.7,1.81l-0.14,2.921l3.49,2.64l2.52,3.34l7.82-0.979
		l4.2,1.25l6.7-1.94l14.67,0.83l4.48-0.83l9.92-4.31l2.37-2.24l1.82-7.08l2.66-2.5l1.8-3.4l2.11-0.35l2.4-2.551l5.77-1.869
		l2.44-6.54l2.44-0.74l1.69,2.11l2.03,0.96l1.68-0.75l1.91,0.529l1.59,2.53l13.78,5.48l0.85,1.369l-1.17,2.221v1.58l1.06,0.31
		l3.82-2.42l3.6,0.63l2.12-2.32l3.29-13.6l5.19-5.38l12.83-10.24l2.54-4.22l2.01-0.521l2.44,0.521l4.04,8.229L419.2,1006.95z"/>
	<path id="CM-SW" fill="#1E3250" stroke="#1E3250" stroke-width="0.5" d="M5.84,882.94l0.25,1.489l0.6,0.67l-0.31,0.79l-1.6-2.17
		l0.09-1L5.84,882.94z M7.38,908.34l0.2-1.68l-1.6-0.43l-0.51-1.37l1.04-0.88l-2.45-2.73l-1.26,1.08l-0.23,2.08L0,904.92l0.23,2.59
		l1.26,3.021l3.09,0.14l1.26-1.479L7.38,908.34z M4.6,891.75L4,891.27l-1,0.601l-0.29,1.34l1.09,0.32L4.6,891.75z M21.73,909.22
		l1.57,0.17l-2.95,2.851l-14.38-0.4l1.69-2.45l1.54,0.48l1.69-0.71l-0.09-1.03l-0.34,0.83l-1.12,0.62L8,908.84l-0.2-2.42l-1.49-0.4
		l-0.57-1l1.17-0.91l-0.42-0.75l0.02-1.42l-0.89,0.54L4.33,901l4.72-2.99L8,895.53l-0.56-1.84l0.41-1.341l-2.12-1.02l3.06-1.54
		l-1.12-2l2.54-0.66l-0.07-1.45l3.4-0.68l-0.18,1.08l0.9,0.51l-0.38,5.22l1.83,1.971L16.6,896l0.63,6.55l1.17,2.94l-0.74,1.029
		l-2.35-0.85l1.77,1.42l2.63-1.17l2.63,2l0.11,1.11L21.73,909.22z M4.15,899.73l4.43-1.971l-1.63-3.33l0.33-1.87l-2.16-0.699
		l-0.93,1.949l-2.61-0.149L0,898.71l1.77,2.96L4.15,899.73z M96.1,954.09l-0.47,1.04l-1.16,0.28l0.54,2.82l1.4-0.431l-0.29-1.05
		l0.83-0.11l0.82-2.05l0,0l0.01-0.02l0,0l-0.02-1.16l-0.48,0.939L96.1,954.09z M164.11,783.56l2.13,3.23l0.36,2.54l-2.55,1.82
		l-2.77,0.609l-3.82,3.811l-6.27,3.96l-1.1,2.2l-0.77,10.96l-0.93,2.47l-2.09,1.51l-2.78,4.61l-2.26,1.46l0,0h-3.36l-3.59,5.2
		l-1.38,0.56l-3.71-0.56l-0.44,1.64l2.87,10.49l3.82,2.89l4.98,8.89l-0.68,1.37l-4.65,0.82l-4.04,8.47l-0.11,2.391l2.89,1.369
		l0.05,1.881l-8.62,8.989l-1.15,6.58l-6.03,7.5l0.22,3.86l-2.77,1.21l-3.71-1.15l-9.15,15.46l-0.46,5.08l1.42,3.271l-6.97,11.32
		l-1.95,8.579l0.45,1.7l2.69,0.271l1.35,1.52l6.01-1.43l0.99,0.8l-0.54,2.32l2.06,2.689l-3.14,4.271l-1.46,0.03l-1.05-0.811l0,0
		l-0.43-0.88l-1.32,0.63l-0.86,2.19l0.31,1.68l-2.06-0.68l-0.66,0.97l-1.09-0.4l-0.54,1.25l-1.14,0.261l-0.2,1.22l-1.52,0.25
		l0.03-1.33l-1.4,0.11l-1.03,0.77l-0.37,1.48l-3.37,2.56l-1.74,0.34l-0.89,1.11l-1.46-0.2l-1.29,2.79l-1.97-0.17l0.43,1.31
		l-1.54,0.11l-0.34,1.51l-0.97,0.601l-1.09-0.601l-0.23-1.479l-1.49-0.431l0.17,1.4h-0.92l-0.49-1.22l0.71-2.11l-0.74-1.34
		l0.77-0.29l-1.17-1l-5.2,0.37l-0.2-0.771h-1.23l-1,0.971l-2.2-0.94l-3.06-3.05l-5-2.59l-1.17,0.34l-0.34-1.05l-3.6-2.08l1.17-2.19
		l-0.23-3.25l1.31-2.96l-0.26-1.51l-2.46-4.61l-3.97-2.02l-0.26-1.45l-1.69-1.51l0.92-3.59l-0.4-1.99l-0.57-1.25l-1.86-1.05
		l-1.63-4.471l0.2-3.08l2.2-1.6l-0.83-0.51l-0.43-1.71l2.29-2.79l-1.12-0.771l-0.91,0.54l-1.29-1.31l0.29-6.47l-1.06-1.25
		l-0.14,0.659L37.35,901l-2.46-3.7l-0.77,0.63L32.97,897l0.69-4.39l-1.34-0.311l-0.8,1.48l-4.29,1.68H25.2l-0.92-2.68l3.06-6.9
		l-0.94,0.74l-2.63,5.79l1,3.189l2.15,0.54l0.09,2.391l3.75,6.38l-0.97,1.8l-2.03,0.479l-2.83-3.02l-2.03-0.49l-1.86-1.54l-0.37-4.3
		l-2.23-3.11l3.37-2.34l0.31-1.739l-1.17-1.82l1.12-0.29l0.51-1.42l-2.03,1.77l0.86,1.88l-1,2.511l-2.03,0.34l-2.92-2.08l-0.66-3.65
		l0.29-0.54l1.97,0.23l0.89-2.48l-0.73,0.23l0.33-1.33l-0.69,0.82l-0.12,2.21l-2.82-1.25l0.51-1.471l-4.55,1l-0.71,1.75l-2.09-0.609
		l0.31,2.08l0.72,0.939l-1.29,1l-1.74-2.85l0.26-2.48l0.89,1.771L7.09,886l0.09-2.31L6.41,883.6l-0.43-1.449l-1.12,0.399l-1.14-0.8
		l2.16-3.67l3.55,1.39l4.02-2.439l-0.56-2.55l-2-1.9l0.03-1.58l1.71-2.08l3.28-1.24l-0.16-2.93l1.67-0.65l-0.08-0.939l1.62-2.061
		l1.51-0.569l-1.61-1.69l2.07-1.729l2.03-5.49l2.24-1.73l0.14-1.39l3.14-1.29l4.23-6.979l-0.25-10.91l3-9.78l-0.34-6.47l1.86-2.25
		l1.07-4l3.99-6.73l-0.51-2.93l-8.49-9.39l-0.08-2.48l0.95,0.96l2.44-3.109l0.75-1.61l-0.67-1.37l1.74-2.47l-2.26-1.74l-0.67-1.42
		l2.16-2.47l2.81-1.45l2.73-3.82l1.87-0.55l6.34-4.54l14.51-12.91l1.64-1.62l1.57-4.17l1.99-1.949l2.71-1.99l5.38-1.561l4.65-8.069
		l1.8-1.57l-0.28-0.78l1.25-0.43l0.04-3.29l1.3-3.06l8.56,3.67l3.33-13.801l6.38,0.73l5.83-2.95l0.19-3.69l1.29-2.369l3.53,1.22
		l1.73-0.55l0.19-0.71l1.71,2.189l3.93-0.39l0,0l3.65,3.51l-0.36,4.73l-1.34,4.069l2.86,3.87l-1.22,9.58l1.22,3.47l-2.55,4.65
		l-2.24,6.71l-3.93,4.07l-7.66,3.899l0.34,3.7l2.43,3.25l-2.62,5.43l2.03,1.98l3.01,1.5l4.4,4.86l3.59-0.69l1.98,1.57l1.72,2.819
		l4.09,2.54l7.15,2.09l5.67,2.891l2.19-2.43l3.67-1.131l3,1.461L164.11,783.56z M91.05,957.56l1.17-0.399l-0.03-1.53l-1.83,0.86
		l-0.22,1.34l-0.62,0.34l0.56,0.58L91.05,957.56z M94.45,956.82l-0.95,0.01l-2.22,0.9l-0.77,1.539l-1.29-0.55l-4.55,2.83l3.87,3.8
		l3.57,0.19l1-0.8l-0.43-2.17l2.26-1.851l0.66-1.88l-1.09-0.77L94.45,956.82z M35.86,901.64l-3.35-4.39l0.26-4.7l-1.23,1.54
		l-3.75,1.23l-0.03,2.649l2.75,4.13l4.23,3.391l0.23,1.25l2.72,1.37l0.29-1.511l-1.29-2.51L35.86,901.64z M84.3,962.4l-1.74,0.939
		l-0.72,2.05l1.09,2.08l2.69,2.5l0,0l2.69-3.67l0,0l-0.11-0.85L84.3,962.4z M32.4,914.15l-0.11,1.399l1.32-1.03l-0.17-1.369
		L32.4,914.15z"/>
</g>
</svg>
