<?xml version="1.0" encoding="utf-8"?>
<!-- Generator: Adobe Illustrator 15.0.0, SVG Export Plug-In . SVG Version: 6.00 Build 0)  -->
<!DOCTYPE svg PUBLIC "-//W3C//DTD SVG 1.1//EN" "http://www.w3.org/Graphics/SVG/1.1/DTD/svg11.dtd">
<svg version="1.1" id="Layer_1" xmlns:amcharts="http://amcharts.com/ammap"
	 xmlns="http://www.w3.org/2000/svg" xmlns:xlink="http://www.w3.org/1999/xlink" x="0px" y="0px" width="1144.735px"
	 height="854.768px" viewBox="0 0 1144.735 854.768" enable-background="new 0 0 1144.735 854.768" xml:space="preserve">
<defs>
	
	
		<amcharts:ammap  projection="mercator" bottomLatitude="14.801614" leftLongitude="-25.361714" topLatitude="17.205510" rightLongitude="-22.664642">
		</amcharts:ammap>
</defs>
<g>
	<path id="CV-BR" fill="#1E3250" stroke="#1E3250" stroke-width="0.5" d="M397.42,759.51l0.71,1l-0.8,1.271l1.06-0.46l2.301,1.46
		L398.3,764.6l0.891,0.271l-0.181,3.37l0.891,0.09l0.8,2.91l1.77,2.27l-0.97,3l1.77,1.73l-1.42,0.82l-0.18,3.369l-1.42,0.46v3.46
		l-6.46,3.28l-2.66,2.37l-1.24-1l0.44-1.91l-3.45,1.09l-0.09-0.909l-3.19-1.181l-3.63-6.279l-1.42,1.55l-2.04-1.73l1.06-4.909
		l-1.33-1l1.06-1.091l-1.24-1.18l0.27-3l1.5-0.46l0.44,0.82h2.04l1.24-0.82l-1.06-4.46l0.8,0.36l1.59-2l-0.09-1.551l0.89,1.181
		l1.15,0.359l0.8-1l1.68,1.55l1.59-1.909l4.78-0.82l0.53-1.91l1.86-0.09l0.619,1L397.42,759.51z M405.39,736.02l0.53,1.551
		l-2.3,0.09l0.18-1.09l1.37,0.3L405.39,736.02z M408.22,735.93l0.53,1.37l-0.97-0.27L408.22,735.93z M397.25,734.11l1.24,1.819
		l-1.24,1v1.82l-3.45,1.64l-1.33-1.37l0.09-1.18l0.8,0.55l0.44-2.46l1.95-1.729l0.89,1.09L397.25,734.11z M412.65,732.01l1.859,2
		l-0.18,1.641l-1.15-0.37l0.44,0.819l-2.16,1.181l-0.76,1.819l-1.061-1.18l-0.97,0.55l0.89-1.55l2.57-1.27L412.65,732.01z"/>
	<path id="CV-BV" fill="#1E3250" stroke="#1E3250" stroke-width="0.5" d="M953.61,340.03l3.45,1.56l0.97,2.561l-2.57-0.551
		L953.61,340.03z M1001.05,322.99v1.1l1.061-1.37l0.09,1.28l1.149-0.37l-0.71,1.19l0.8,0.92l3.19-0.55l7.351,3.67l6.199,0.55
		l1.681,1.74l3.449-0.641l-0.35,0.92l0.97-0.09v0.83l2.13-0.37v0.83l-1.859,1.101l1.5,1.279l-1.061,2.38l1.061,2.75l9.56,10.261
		l0.801-0.271v4.67l1.5,1.65l-1.95-0.641l-1.24,3.021l1.06,3.66l1.24,1.01l-0.27,2.29l2.04,4.85l-1.24,0.181v1.46l-3.63,5.489
		l-0.53,4.301l-2.13,2.75l-1.77,0.64l-0.971-0.92l-1.949,2.11l-2.74,0.729l-1.95,3.11l-2.04,0.819l-1.24-0.46l-8.06,4.761
		l-1.24-0.641l-1.771,3.66l-5.22,1.101l-3.72,3.109l-2.21,3.48l-2.39,0.55l-1.59-1.101h-14.07l-7.53,1.37l-2.04-1.46l-1.859-4.76
		l-2.301-1.83l-2.66-1.1l-0.88,0.819l-5.13-1.279l-7.79-3.57l-2.13-2.75l0.44-2.56l-1.15-1.101l-0.97,1.101l0.09-1.65l-1.59-2.29
		l1.59-2.75l0.35-5.77l1.59-1.921l-1.329-3.3l3.72-4.21l1.5-0.92h2.74l7.26-6.32l1.5-2.01l-0.71-3.75l1.06-3.02l1.771-0.92
		l-0.091-1.65l-1.59,0.64l-3.279-7.689l-1.771-0.64l1.06-3.211l-0.89-0.64l1.59-0.18l-0.439-2.561l1.95-1.739v-1.19l-2.92-1.46
		l0.8-2.02l-0.181-1.561l-0.88-0.37l0.351-2.109l3.72-1.19l-0.53,2.11l3.98,2.29l1.149-0.271l0.181,1.37l2.21,1.83l5.399,1.74
		l5.49,0.37l5.93-0.181l8.32-1.74l4.07-3.3l1.59-0.279l-0.18-0.641l-1.24,0.271l-0.71-1.28l1.33-0.18l-0.271-1.74l1.5-0.46
		L1001.05,322.99z"/>
	<path id="CV-CA" fill="#1E3250" stroke="#1E3250" stroke-width="0.5" d="M733.13,688.98l-3.46,3.029l-4.47,1.59l0.859,5.141
		l-1.55,2.3l0.561,6.31l0,0h-0.59l0,0l-1.91,1.311l-1.061,5.89l-6.79,0.66l-2.76,6.98l0,0l-0.21,2.399l0,0l1.7,2.18l-2.54,1.311
		l-4.19,5.57l0,0l-2.569-0.181l-2.57-3.1l0.62-1l1.859,0.09l-0.26-1.54l1.86-0.92l0.17-1.09l-1.061-1.09l1.15-0.641l-0.09-1.359
		l-1.59-0.73l-2.74-3.56l-2.75-1.09l-1.59-2.28l-1.33,1.64l-1.24,0.101l-1.33-4.011l-1.77-2.46l-1.24-0.279l-0.17-2.181l-2.84-1.92
		l-2.03,0.46l0.35-1.279l-1.06-1.54l0.35-0.82l2.131-0.19l-1.421-5.64l2.57-1.37l-0.27-4.65l1.42-4.1l-1.24-0.55l0.18-1.09
		l1.59-0.45l1.591-2.37l-1.32-1.55l1.06-3.01l-1.859-0.551l-0.351-3.55l1.15-1.46l-2.13-3.56l2.569-0.82l-0.27-3.729l1.86-2.341l0,0
		l3.949,0.061l2.33-1.09l4.46,2.62l1.69-4.37l1.91,0.659l1.91,2.83h4.239l0,0l0.641,5.681l1.06,0.87l5.72,0.439l3.82,3.49l1.49,2.63
		l-2.76,5.67l0.21,1.97l5.3-0.88l4.79-6.109l0,0l2.21,0.439l0.42,1.74l-1.06,4.59l1.27,0.43v1.311l-2.96,1.75v1.96l0,0
		L733.13,688.98z"/>
	<path id="CV-CF" fill="#1E3250" stroke="#1E3250" stroke-width="0.5" d="M524.36,749.96l-6.221,8.88l-3.479,2.521l-9.94,1.6
		l-4-0.93l-4.77-4.25l-1.16-4.11l0.13-3.85l9.82-9.32l0,0l1.7,1.62l0,0l2.84,0.49l13.31-1.11l0,0L524.36,749.96z"/>
	<path id="CV-CR" fill="#1E3250" stroke="#1E3250" stroke-width="0.5" d="M755.65,704.95l-1.551-8.16l-3.27-0.89l-3.96,1.949
		l-2.061-0.71L741.86,693l0,0l0.85-0.49l0,0l2.33-0.21v-1.75l-1.69-1.31h-9.97l0,0l-0.63-0.66l0,0v-1.96l2.96-1.75v-1.311
		l-1.27-0.43l1.06-4.59l-0.42-1.74l-2.21-0.439l0,0l4.97-0.87l8.82-7.71l0,0l1.49,0.279l0.699,1.271l0.71-1l0.891,0.27l-0.62,2.46
		l2.03,0.28l-1.41,2.46l3.63,2.19l2.12-0.641l-0.181,2l3.99-1.64l2.21,1.37l-0.71,1.46l2.66-1.1l0.35,1.729l1.33,0.19l0.351,1.27
		l-1.15,1.92l0.8,2l7.7,1.37l0.181,3.28l1.329,2.92l0.261,0.54l0.71,0.91l0.97,2.92l0,0l-5.66,11.52l-4.03,3.271l-5.09,0.66
		l-1.27-2.841l-3.61-1.75l-0.84-1.52l0,0L755.65,704.95z"/>
	<path id="CV-MA" fill="#1E3250" stroke="#1E3250" stroke-width="0.5" d="M876.33,615.53l1.24,2.28l-0.53,1.09l0.89,2.55l3.45,0.27
		l1.33-4.1l0.09,4.47l2.21,2.01l5.84,1.82l2.211-1l1.06-1.64l0.71,0.91l0.88-0.91l3.19,3.1l2.92,9.03l-0.271,2.01l-1.149,0.18
		l-1.24,2.28l1.24,0.181l1.949,4.189l1.591,7.2l-0.62,1.19l1.06,3.739l-0.62,0.37l1.681,5.83l-1.24,2.28l1.59,3.46l-1.06,0.729
		l0.97,3.101l-2.21,0.819l-5.22,7.29l-1.061-0.09l-1.24,1.55l-3.449,0.641l-1.86,2.46l-3.36,0.729l-0.97,2.55l-2.75,0.82l-4.96-1.28
		l-4.16,0.37l-2.739-1.64l-3.811-0.64l-2.3-4.28l-2.39-1.09l0.09-0.82l1.59,0.09l-0.09-1.46l-4.96-4.65l-0.44,0.091l0.44-5.011
		l-0.62-1.729l1.33-2.83l0.439-8.75l3.721-1.37l0.18-8.12l-1.5-3.189l-3.36-0.271v-2.83l1.24-0.18l1.06-1.82l-1.33-0.82l0.44-1.09
		l2.3,0.641l5.84-5.11l1.681-4.47l-1.95-2.46l1.68-0.37l2.92,1.28l1.42-1.091l-1.77-3.56l2.66-1.92l-0.881-1.1l0.801-0.091
		L876.33,615.53z"/>
	<path id="CV-MO" fill="#1E3250" stroke="#1E3250" stroke-width="0.5" d="M487.14,717.08l1.9-0.82l-0.53-1.55l3.01-0.82l5.671-4.01
		l2.029,1.28l3.811-0.28l4.96,1.28l1.85,1.09l0.71,2.1l4.34,0.82l1.681,3.82l2.66,1.729l0.97,4.19l-0.62,1.64l2.13,1.46l0.62,5.01
		l1.41,2.091l-1.15,5.39l0,0l-13.31,1.11l-2.84-0.49l0,0l-3.311-3.16l0,0l-2.84-3.9l-0.24-4.38l-4.02-1.939L487.14,717.08z"/>
	<path id="CV-PA" fill="#1E3250" stroke="#1E3250" stroke-width="0.5" d="M289.87,10.87l1.5,0.92v3.4l0.71,0.56l-1.24,1.47
		l5.76,9.021l2.21,0.83l-0.27,0.92l0.8,0.46l1.77-1.1v1.56l2.74,0.56l0.89,1.1l0.97-1.1l1.33,0.82l1.06,8.56l-4.69,5.98l0,0
		l-13.68-11.09l-3.08-0.95l-7.98,0.57l-3.6-3.24l0,0l9.22-11.47l3.81-2.27L289.87,10.87z"/>
	<path id="CV-PN" fill="#1E3250" stroke="#1E3250" stroke-width="0.5" d="M188.51,39.32l-0.18-1.94l1.6-0.27l0.79-1.57l9.03-2.67
		l1.42-1.56l3.98,0.92l2.66-0.65l2.65-2.85l2.57-0.37l0.44-1.2l4.25,0.56l5.31-3.41l0,0l8.12,8.86l2.36,1.51l5.08,1.32l1.27,5.47
		h1.45l7.62-4.34l11.6,0.19l3.63-0.75l10.91-6.45l0,0l3.6,3.24l7.98-0.57l3.08,0.95l13.68,11.09l0,0l-2.65,2.77v2.3l-3.63,1.47
		l-1.33,1.75l-7.53,4.78l-4.42,1.48l-1.33,2.11l-2.39,0.83L275,62.05l-5.58,1.47l-15.58,15.54l0.09,1.84l-5.4,1.48l-4.96,8.09
		l-3.01,3.4l-1.68,0.19l-0.18,1.1l-2.83-0.28l-3.19,1.29l-0.53,1.56l-2.12,0.83l-1.06-0.55l-1.24-1.29l-4.7,0.46l-5.22-2.76
		l-3.89,1.75l0.17-1.84l-1.06-0.64l-3.36,0.73l-0.53,1.38l-3.55,0.65l-4.42,2.76l-2.57-1.94l-1.59-3.4l-1.77-0.83l0.62-1.37
		l-1.51-1.84l0.36-2.49l2.92-3.86l-0.8-2.94l-3.01-4.6l1.06-4.88l-1.06-5.79l-3.01-3.69l-0.62,0.47l-5.22-1.94l-3.72-6.44l0.71-1.93
		l-0.89-2.03l1.33-0.82l-0.53-1.11l1.86-3.311l2.92-1.84l-0.44-2.21L188.51,39.32z"/>
	<path id="CV-PR" fill="#1E3250" stroke="#1E3250" stroke-width="0.5" d="M786.12,735.84l1.149,2.55l1.591,0.091l0.09,0.909
		l-3.54,3.28l-1.59-1l0.89,1.37h1.33l0.18,1l-0.97,1.91l-1.77,1l-0.181,3l-2.3,2.55l0.44,2.91l-1.061,2.55l-1.06-0.09l-0.18-1.641
		l-2.57,0.91l-0.8-0.819l-1.42,1l-1.421-3.091l-2.3,1.641l0.351,4.1l-2.12-1.46l-5.4,0.64l-3.45-1.18l-1.159,0.82l0,0l-9.4-13.58
		l-2.24-5.13l-0.979-5.23l0,0h1.14l0,0l7.85-3.49l14-1.96l7.851,3.051l6.149,1.09l3.091,2.189l0,0L786.12,735.84z"/>
	<path id="CV-RB" fill="#1E3250" stroke="#1E3250" stroke-width="0.5" d="M502.23,176.49v0.12l0,0l0,0l0,0V176.49z M505.77,173.28
		l2.66,0.64l0.44,2.21l3.189,0.09l2.301,1.1l2.83,3.31l-0.091,0.92h1.42l1.33,3.4l3.721,0.83l0.35,2.75l2.39,1.65l5.13-3.03
		l3.721,1.29l4.51-0.83l2.48-1.93l-0.44-1.01l2.479,0.92l2.131-0.46l3.63,2.94l1.42,0.09l0.35-0.83l4.521,2.75l2.3-0.09l2.21,3.3
		l3.72,2.3l6.46,0.83l2.83-3.21l1.95,0.18l3.27,2.02l4.78-0.37l11.42,1.93l5.13,2.29l3.45,6.43l3.9-0.64l0.53,1.74l1.42-0.37
		l3.1,3.3l-2.479,6.06l-2.391,1.65l-1.859-0.92l-2.74,0.55l-1.51-2.39l-2.57,0.64l-1.15-1.01l-4.78,2.48l-3.359,0.09l-2.66-1.84
		h-1.42l-0.71,1.38l-2.3-1.1l-2.66,0.92l-2.74-1.28l0.62-0.73l-1.77-1.01l-2.211-3.58l-1.949,0.46l-2.131-1.65l-3.81-0.92
		l-5.05-4.22l-4.87-0.18l-1.95,0.74l-1.149-0.83l-1.771,0.729l-2.92-1.47l-6.46,0.64l-0.71-0.64l-4.69,4.5l-4.51-0.09l-3.72,5.14
		l-2.21,0.73l-1.5,2.94l0.18,3.67l-2.479,1.01l-1.42,7.16l-2.921,3.03l0.351,1.84l-1.68,3.21l1.149,1.29l-0.62,1.56l-2.92,0.64
		l0.26,1.47l-1.149-1.51l0,0l3.13-10.15v-3.21l2.58-6.42l0.17-10.52l-1.03-2.85l-2.24-1.96l-0.34-4.46l-2.239-3.57l-1.891-1.78
		h-6.02l-2.41-1.07l-1.03-3.92l2.24-2.85l0.34-2.68l-2.41-6.65l0,0L505.77,173.28z"/>
	<path id="CV-RG" fill="#1E3250" stroke="#1E3250" stroke-width="0.5" d="M264.73,3.04L266.59,0l1.24,0.09l1.24,2.86l5.66,3.4
		l7.53,2.58h3.01l0.53-1.01l3.27,1.38l0.8,1.57l0,0l-1.77,5.51l-3.81,2.27l-9.22,11.47l0,0l-10.91,6.45l-3.63,0.75l-11.6-0.19
		l-7.62,4.34h-1.45L238.59,36l-5.08-1.32l-2.36-1.51l-8.12-8.86l0,0l0.89-0.74l-0.09-3.03l3.19-0.19l0.97-1.01l0.18-2.21l3.1,0.92
		l0.53-1.01l-0.71-0.74l1.5-1.57l2.93,1.48l4.86-1.2l2.66-3.13l-0.44-1.01l2.3-1.48h5.22l3.63-2.48L264.73,3.04z"/>
	<path id="CV-RS" fill="#1E3250" stroke="#1E3250" stroke-width="0.5" d="M746.23,734.84l0.989,5.24l2.23,5.13l9.399,13.57l0,0
		h-2.21l-0.88-1.82l-0.89,0.46l-1.24-0.82l-2.47,1.181l-0.271-1l-1.77-0.36l-3.811,1.18l-0.17-1l-3.899-0.55l-1.5-1.37l-5.4,1.83
		l-0.979-1.37l0.18-1.64l-4.96-1.18l-5.57-4.65l-2.93,0.19l-5.04-4.74l-1.95-0.45l-0.8-2.01l-3.09-2.09l-2.48-4.92l0,0l4.19-5.57
		l2.54-1.311l-1.7-2.18l0,0l0.21-2.399l0,0l2.76-6.98l6.79-0.66l1.061-5.89l1.91-1.311l0,0h1.689l0,0l2.73,0.891l0,0l3.42,5.439
		l1.47,0.5l0,0l3.2,5.61l-0.431,5.46l-1.689,2.61l0.63,1.97l9.33,5.01l0,0H746.23z"/>
	<path id="CV-SD" fill="#1E3250" stroke="#1E3250" stroke-width="0.5" d="M777,696.49l0.09,1.55h1.95l0.27,1.64l1.32,0.82
		l-0.35,1.82l1.68,0.729l1.24,2.37l-0.97,1l1.409,0.64l0.53-0.55l0.71,1.46l0.09-0.64l1.24,0.18l-0.62,2.37l1.771-0.46l3.63,2.01
		l0.27,1.641l-2.84-0.271l-0.439,1h1.239l-0.18,1.46l1.33-1.37l2.39-0.37l-0.529,1.011l0.97,0.18l0.27,4.37l-0.62,1.46l0.971,0.27
		l1.33-1.18l1.51,2.18l-0.09,1.551l-1.42-0.271l-0.53,2l2.479,1.28l-3.1,0.27l1.68,1.091l1.15-0.36l-0.97,2.09l0.89,2.1l-1.33,2.091
		l-2.22-2.271l-4.87,4.55l-2.021-0.199l0,0l-3.1-2.19l-6.14-1.09l-7.851-3.061l-14,1.971l-7.84,3.479l0,0h-2.55l0,0l-9.33-5.01
		l-0.63-1.97l1.689-2.61l0.431-5.46l-3.2-5.61l0,0l4.68,0.59l4.45-0.869l8.061-5.021l0,0l2.76-4.14l0,0l1.479-0.221l0,0l1.28,1.311
		l0,0l0.84,1.52l3.61,1.75l1.27,2.841l5.09-0.66l4.03-3.271L777,696.49z"/>
	<path id="CV-SF" fill="#1E3250" stroke="#1E3250" stroke-width="0.5" d="M504.74,740.5l-9.82,9.32l-0.13,3.85l1.16,4.11l4.77,4.25
		l4,0.93l9.94-1.6l3.479-2.521l6.221-8.88l0,0l0.8,1.36v6.279l1.42,6.73l-2.13,7.38l-5.04,5.91l-3.63,3.1l-2.57,0.271l-1.95,2.91
		l-0.97-0.271l-5.58,3.37l-4.16,1l-13.28,0.18l-1.59-1.37l-2.569,0.28l-1.15-1.55l-3.979-1.82l-6.551-7.55l-5.229-2.189l-1.32-3.091
		l-3.72-3.189l-4.61-2l-1.59-3.101l0.18-8.55l-1.06-1.28l1.06-2.09l0.801-6.649l2.3-3.641l0.09-2.46l1.229-1l-0.529-1.64l0.8-1.73
		l2.04-0.729l0.35-1.36l2.21-1.55l-0.35-0.82l5.67-3.729l0.53-1.74l5.84-2.64l0.09-1.54h2.03l1.24-1.55l3.72,0.909l3.939-1.729l0,0
		l8.891,11.66l4.02,1.939l0.24,4.38l2.84,3.9l0,0L504.74,740.5z"/>
	<path id="CV-SL" fill="#1E3250" stroke="#1E3250" stroke-width="0.5" d="M959.45,115.94l2.3,1.56l0.53,2.85l2.04-0.18l0.18,1.38
		l4.43,1.29l-0.619,4.04l-1.591,0.92l-0.27,2.57l-1.681,2.3l2.48,1.93l2.3,6.62l3.19,1.84l-1.5,1.38l-0.71,3.12l-3.101-0.64
		l-0.35,1.93l-1.59,1.38l1.42,0.55l0.71,2.39l-0.351,2.3l-1.42,1.1l1.24,0.73l2.04,7.81l3.54,3.77l-0.71,2.3l2.57,6.34l-2.66,1.84
		l-1.86,2.85l-0.62,4.04l-1.95,0.46l-1.68,2.02l0.271,5.6l2.04,4.68l1.42,1.01l0.529,3.12l-7.699-1.84l-1.86,0.92l-2.479,3.03
		l-1.591-1.38l1.061-4.22l-1.5-0.64l1.149-2.39l-1.33-4.41l-1.59-2.66l-3.01-2.11l0.18-1.1l-1.149-0.09v-2.02l0.71-0.09l-1.061-1.38
		l2.57-1.65l1.33-3.4l-0.8-6.43l-4.69-3.03l-4.96-0.92l-0.53,1.01l-3.189,1.1l-1.86-0.46l-0.71-1.38l2.04-3.49l2.04-0.73l-3.72-6.25
		l1.77-2.94h1.24l-1.06-1.47l1.33-1.19v-1.93l-0.351-0.55l-1.06,0.64l-2.301-1.75l-0.439-3.12l1.15-1.19l-1.5-2.67l-0.711-5.61
		l0.351-4.78l1.77-1.93l0.62-2.85l1.95-1.84h2.39l3.98-1.65l2.57-2.85l3.539,1.2l4.961-2.39L959.45,115.94z"/>
	<path id="CV-SM" fill="#1E3250" stroke="#1E3250" stroke-width="0.5" d="M723.58,645.45l6.15,0.91l0.09,1.64l1.77,0.55l-0.71,1.09
		l2.39,1.82l1.33-0.45l1.42,1.181h1.591l1.33,3.92l2.3,0.819l0.529,3.29l1.601,0.181l0.17,1.55l0.89,0.359l-0.27,2.28l2.92,1.101
		l-0.42,2.09l0,0l-8.82,7.71l-4.97,0.87l0,0l-4.79,6.109l-5.3,0.88l-0.21-1.97l2.76-5.67l-1.49-2.63l-3.82-3.49l-5.72-0.439
		l-1.06-0.87L712.6,662.6l0,0l2.761-3.27l0.1-2.47l5.94-6.29L723.58,645.45z"/>
	<path id="CV-SO" fill="#1E3250" stroke="#1E3250" stroke-width="0.5" d="M755.65,704.95l-0.431-0.431l0,0l-1.479,0.221l0,0
		l-2.76,4.14l0,0l-8.061,5.021l-4.45,0.869l-4.68-0.59l0,0l-1.47-0.5l-3.42-5.439l0,0l6.39-4.811l2.55-8.08l2.96-1.75l0,0l1.061-0.6
		l0,0l2.949,4.14l2.061,0.71l3.96-1.949l3.27,0.89L755.65,704.95z"/>
	<path id="CV-SS" fill="#1E3250" stroke="#1E3250" stroke-width="0.5" d="M725.07,707.35l-0.561-6.31l1.55-2.3L725.2,693.6
		l4.47-1.59l3.46-3.029l0,0l0.25,0.26l0,0h9.97l1.69,1.31v1.75l-2.33,0.21l0,0l-1.91,1.09l0,0l-2.96,1.75l-2.55,8.08l-6.39,4.811
		l0,0l-2.73-0.891l0,0H725.07z"/>
	<path id="CV-SV" fill="#1E3250" stroke="#1E3250" stroke-width="0.5" d="M429.29,190.26l3.45,2.66l-2.3,4.87l-6.641-0.27l-1.5-2.94
		l0.891-2.3l2.479-0.09L429.29,190.26z M398.4,176.86l5.05,3.95l2.75,4.59l-3.63-1.1l-2.92-2.66l-2.66-3.12L398.4,176.86z
		 M367.59,132.02l1.86,1.47l6.9,2.39l1.5,5.33l2.83,1.01l1.86,3.22l0.09,1.84l2.13,2.39l3.81,0.74l3.36-1.65l4.51-0.09l0.891,0.83
		l-0.53,2.39l-1.95,2.57l-2.3-0.37l-1.24,1.1l-3.81-0.64l-2.21,1.19l-7.7-0.37l-0.35-3.58l-3.98-4.23l-5.05-2.57l-1.68,0.46
		l-2.04-0.92l-1.68-5.05l1.06-0.46l1.15-3.86L367.59,132.02z M322.18,93.6l3.36,2.3l1.33,2.39l0.09,1.75l-0.71-0.55l-0.62,0.74
		l0.35,1.29l-0.89-0.83l-1.33,0.64l1.33,1.38l-1.5,1.47l0.09,1.84l1.77,2.76l7.61,4.96l2.74,0.37l0.89-1.1l2.21-0.37l1.95,1.1v2.479
		l-2.74,1.47l1.42,4.41l1.68,0.28l-1.68,7.35l-3.19,1.56l-6.11-0.73l-7.17,4.87l-8.06,1.65l-2.12-0.46l-2.3,1.1l-0.27,1.19
		l-4.96,0.09l-1.24,2.76l-2.75,0.28l-5.58-2.94l-2.57-2.57l-1.77,0.18l-2.12-2.02l-1.86-0.09l-1.86-1.38l-1.86,0.55l-1.77-2.11
		l-2.3,1.56l-2.74-2.76l-0.18-4.14l-0.97-1.29l-1.86-0.46l-5.05,1.01l2.48-3.86l-1.95-2.479l2.21-0.74l1.68-1.84l0.09-2.57
		l1.42-0.18l0.35-1.38l0.97,1.01l2.39-1.01l-0.53-2.12l0.8-1.56l1.68-0.09l-0.88-2.21l2.66,1.29v-1.56l1.86,0.74l1.68-1.66
		l2.21,0.09l0.8,2.57l4.51,2.48l0.35-0.92l3.01-0.46l2.83-2.94l-0.18-1.29l-0.53,0.74l-1.24-1.01l-1.42,0.55l0.71-1.47l1.15,0.37
		l0.71-0.74l-0.18-1.47l-1.77-0.83l-0.27-1.75h2.57l0.18-1.84l4.25,0.46l0.97-2.57l2.3-0.37l1.24-1.29l0.71,0.74l-1.59,2.39
		l1.33-0.55l0.62,1.75l4.6,1.65l2.92-1.47l-0.8-1.47l2.57-1.29l-0.62-1.29L322.18,93.6z"/>
	<path id="CV-TA" fill="#1E3250" stroke="#1E3250" stroke-width="0.5" d="M689.81,621.83l0.891,1l1.06-0.45l-0.62-1.47l1.681-0.271
		l-0.71-2.92l4.159-0.18l0.091-2.19l1.68,0.36l0.8,1.47l1.24-0.46l0.09,0.82l2.65,0.46l0.89,1.46l1.42-0.55l0.351-1.83l3.72,0.729
		l-0.45,1.19l0.71,0.46l2.22-1.19l3.36,3.471l1.42,3.1l-0.979,2.73l-2.211,0.279l1.41,1.181l-1.149,4.109l1.689,6.29l2.561,3.19
		l3.1,1.18l1.061-0.27l1.64,1.92l0,0l-2.18,5.12l-5.94,6.29l-0.1,2.47l-2.761,3.27l0,0h-4.239l-1.91-2.83l-1.91-0.659l-1.69,4.37
		l-4.46-2.62l-2.33,1.09l-3.949-0.061l0,0l1.06-3.5v-4.83l3.72-2.92l0.71-3.83l-1.33-3.279l-2.3-1.55l-1.5,0.27l-1.069-6.56
		l1.949-0.82l0.091-0.82l-2.66-2.56l-3.011-0.36l-0.17-1.729l-0.89-0.46l1.771-2.37l2.479,0.46l0.44-0.641l0.449-2.47l-2.22-0.45
		l-0.439-1.37L689.81,621.83z"/>
	<path id="CV-TS" fill="#1E3250" stroke="#1E3250" stroke-width="0.5" d="M502.14,176.4l0.091,0.21l0,0l0,0l0,0l0.01,0.16l0,0
		l2.41,6.64l-0.341,2.68l-2.239,2.85l1.029,3.93l2.41,1.07h6.021l1.89,1.78l2.24,3.57l0.34,4.46l2.24,1.96l1.029,2.86l-0.17,10.52
		l-2.58,6.42v3.21l-3.13,10.14l0,0l-1.33-0.59l-1.42,1.37l0.801-6.05l-1.15-1.29l-0.98-4.59l-0.97-2.11l-3.63-2.47l-1.42-6.24
		l-2.83-1.29l0.44-3.49l-1.681-3.94l-2.21-1.38l-4.43-0.28l-8.05-4.86l-1.33-1.93l-1.86-0.83l0.62-1.92l-2.83-1.29l-0.36-4.41
		l0.711-2.11l-0.711-1.93l1.86-4.22l1.42,0.37l-0.89-1.29l3.189-0.37l1.061-1.1l2.04,0.19l2.83-1.47l0.62-1.47l3.01-1.1l5.49,1.46
		L502.14,176.4z"/>
</g>
</svg>
