<?xml version="1.0" encoding="utf-8"?>
<!-- Generator: Adobe Illustrator 15.0.0, SVG Export Plug-In . SVG Version: 6.00 Build 0)  -->
<!DOCTYPE svg PUBLIC "-//W3C//DTD SVG 1.1//EN" "http://www.w3.org/Graphics/SVG/1.1/DTD/svg11.dtd">
<svg version="1.1" id="Layer_1" xmlns:amcharts="http://amcharts.com/ammap"
	 xmlns="http://www.w3.org/2000/svg" xmlns:xlink="http://www.w3.org/1999/xlink" x="0px" y="0px" width="1218.5px"
	 height="844.5px" viewBox="0 0 1218.5 844.5" enable-background="new 0 0 1218.5 844.5" xml:space="preserve">
<defs>
	
	
		<amcharts:ammap  projection="mercator" bottomLatitude="2.219642" leftLongitude="14.421294" topLatitude="11.007570" rightLongitude="27.464141">
		</amcharts:ammap>
</defs>
<g>
	<path id="CF-AC" fill="#1E3250" stroke="#1E3250" stroke-width="0.5" d="M443.9,221.36l0.149,4.22l-1.6,2.06l1.47,1.63l-1.52,2.89
		l1.699,3.29l-2.029,1.06l0.479,3.24l-1.899,0.98l0.369,3.91l-2.05,1.03l-0.35,2.66l0.6,1.84l3.181,1.28l0.67,2.33l0.18,4.37
		l-1.8,1.81l1.149,3.11l-1.779,1.83l1.63,2.06l-2.98,4.34l0.33,7.1l-3.85,2.38l1.87,2.49L435,286l1.5,2.21l-1.43,2.35l0.3,2.66
		l3.75,1.26l-23.61,11.1l-3.72,3.21l11.55,31.6l-6.3,3.63l-0.8,4.681l-5.2,3.31l0.07,1.55l3.229,0.671l-0.08,1.81l-2.819,1.6
		l-1.58,6.11l-3.7,2.3l-0.43,2.38l5.159,4.63l1.721,6.45l2.699,0.23l-1.649,3.38l0.63,2.2l5.5,4.18l5,1.65l1.229,1.869l-1.3,2.73
		l-7.859,4.48l-1.971,6.5l0,0l-0.899,3.42l10.93,10.8l0.05,10.83l4.471,3.8l-0.82,1.42l-4.33,1.33l-14.7,12.54l-6.51,2.52l1.3,4.721
		l-2.52,5.649l1.87,4.67l0.479,8.801l0,0l-1.93-0.29l0.3,4.22l-1.75,3.8l-17.06,7.64l-0.85-6.689l-2.45-4.7l2.91-2.72l-0.33-1.92
		l-4.8-1.87l-6.3,1.189l-1.11-4.09l-2.17-1.2l-10.38,1.521l-3.38-2.44l-5.27,1.59l-1.88-1.39l-0.3-3.67l-1.45,0.19l-7.28-4.82
		l-4.77,1.35l-4.43,5.051l-18.51,10.56l-51.29,0.7l-5.06-8.79l0.48-4.7l0,0l-1.18-4.22l-2.92-3.79l-0.43-8.221l-2.12-6.319l4.47-2.2
		l-1.5-7.7l1.55-6.97l5.5-0.85l-0.25-1.421l1.41-1.029l-0.78-2.82l1.93-0.229l2.17-2.801l2.35,0.221l0.85-4.971l-5.5-3.38l-1.9,1.15
		l-5.13-0.92l-1.22,2.62l-3.13,0.35l-5.63-3.55l-2-4.62l-3.25-1.2l-0.32-3.86l1.99-2.069l-2.17,1.8l-2.3-1.6l-0.6-7.631l-2.65-5.85
		l-0.08-9.99l-1.25-4.35l-2.22-1.48l-0.88-3.979l2.33-1.37l-0.45-3.03l2.78-0.63l3.75-6.96l-1.53-6.689l2.33-5.881l1.2-11.52
		l3.67-3.74l-1.92-4.03l0.98-5.029l0,0l7.72-2.3l-1.12-1.48l0.48-3.78l5.05-1.76l7.5,0.08l0.8-1.81l3.73-0.48l0.06-2.86l2.19,0.41
		l1.48,2.2l2.56-0.32l1.23-1.96l-0.76-1.29l4.76-2.15l1.26-3.32l2.71,1.48l0.18-3.35l3.96-3.94l14.32-5.99l4.26,2.29l2.89-4.75
		l2.01,1.19l2.44-2.22l1.8,0.53l2.91-1.7l2.05-3.35l22.51,2.18l9.94-4.58l52.34-3.69l2.13-3.69l-0.8-4.53l3.47-5.84l12.399-4.96
		l2.95-2.56l1.8-3.15l-0.6-2.12l2.32,0.56l4.29-4.46l-0.2-3.05l4.39-3.62l2.42-3.23l-0.699-1.18l3.56-1.76l1.41-3.41l0,0
		L443.9,221.36z"/>
	<path id="CF-BB" fill="#1E3250" stroke="#1E3250" stroke-width="0.5" d="M599.64,142.26l3.721,5.49l3.88,0.51l4.229-5.27
		l6.351-2.26l3.5-6.07l5.35-2.68l9.43-0.83l4.45-1.66l3.28-3l1.5-3.68l3.9-3.55l6.579-3.28l2.08-3.71l4.12,0.38l2.23,15.2l1.8,1.21
		l7-0.4l1.95,3.68l5.859,5.06l1.271,4.18l5.1,4.08l1.38,9.4l2.971,3.55l2.199,7.27l4.61,2.24l2.75,4.23l6.05,3.62l1.851,5.76
		l6.3,3.35l-0.67,3.07l3.649,15.61l7.95,5.58l15.21,3.17l1.221,1.46l-0.2,5.35l0,0l-3.37,2.39l-16.66-1.51l-8.4-3.74l-7.5,2.38
		l-3.229,6.59l4.1,10.7l-3.899,10.5l3.3,4.94l-0.48,1.51l-8.149,2.03l-3.47-0.58l-2.23-5.52l-7.33-6.68l-7.729,4.45l-4.471,0.6
		l-1.899,4.37l-5.11-2.06l-5.5,0.3l-0.5,3.16l-8.63,6.1l6.68,13.5l-29.79,0.08l0.681,8.78l-2.5,4.97l2.149,4.38l0.47,8.63l0,0
		l-1.949,1.45l-1.351,5.72l-3.5,2.61l-0.02,2.88l2.27,4.49l-5.479,4.729l-9.8,14.83l-10.33,6.391l-6.551-2.08l-3.6,0.58l-3.75,9.989
		l-6.63,5.73l-4.95,0.149l-5.61,4.261l-2.05-0.051l-1.8-1.93l-1.2,1.33l-2.5-0.43l-1.899,1.149l-2.98-1.5l-7.3,0.15l-1.82-2.45
		l-4.06-1.1l-0.67-1.811l0,0l-2.63-0.3l-0.37-2.37l-2.03,0.37l-2.4-1.38l-6.399-6.66l-6.08-1.78l-3.53-3.93l-0.37-6.11l-2-2.909
		l-2.979,0.38l-3.57-6.29l-3.38-0.17l0.02-5.271l-2.699-1.149l-0.07-2.83l-1.38,0.149l-1.271-1.8l-2.779,1.5l-1.4-1.68l-6.68-0.98
		l-0.271-3.16l1.5-3.91l-2.779-1.2l2.05-2.98l-2.67,0.72l-4.511-4.23l-3.6,1.1l-2.75-2.86l-1.22,2.28l-3.351-3.48l-1.6,2.21
		l-3.43-3.94l-0.9-2.13l2.72-2.19l-2.6-3.56l2.88-3.26l-1.75-2.58l2.22-2.66l-1.27-4.17l3.149-2.33l-2.55-1.88l1.33-4.07l-2.58-5.37
		l-8.38-7.96l0.45-1.48l-1.32-0.57l1.05-2.11l-2.26-3.82l-5.399-3.99l-3.25-6.58l-1.721-0.86l-1.5-8.21l-1.279-0.88l0,0l0,0l0,0
		l-2.7-0.09l0,0l1.899-6.08l5.011-3.44l-1.48-2.11l-5.7-2.6l-2.46-3.47l-4.87-2.02l-1.239-2.23l-3.32,0.52l-0.8-3.95l-1.75,0.92
		l-1.7-1.1l0.52-2.09l4.9-4.55l3.39-0.15l2.45-4.31l3.22-1.8l3.181-0.06l2.979-2.24l3.91,1.45l7.49-2.45l8.18,2.15l11.7-2.12
		l3.6,1.52l2.49-1.79l1.46,1.62l4.92-2.15l2.19,1.87l6.31-0.13l4.45-2.14l9.09-1.8l1.761,1.84l2.029-1.86l5.641,0.34l1.1-2.38
		l3.68-0.45l1.59-2.21l4.931-2.37l2.59,0.84l1.8-2.11l2.63,1.67l8.16-1.24l4.72,2.69l7.16-0.55l8.74-3.39l4.3-9.65l-0.2-3.17
		l2.53-0.05l0.42-2.67l3.49,0.62l1.22-1.14l2.11,2.39l3.02-0.12l2.24-7.03l8.83-0.53l0.66-2.44L599.64,142.26z"/>
	<path id="CF-BGF" fill="#1E3250" stroke="#1E3250" stroke-width="0.5" d="M407.24,601.04l-5.471-0.5l-3.449,1.99l0,0l-2.021-3.58
		l2.23-4.03l5.859-0.61L407.24,601.04z"/>
	<path id="CF-BK" fill="#1E3250" stroke="#1E3250" stroke-width="0.5" d="M567.95,585.02l10.979-5.35l12.301-14.46l8.829-4.46
		l5.2,0.9l3.51-2.57l-1.1-10.75l4.05-8.25l-3.43-8.08l4.83-8.31l0.87-9.061l-0.95-5.939l3.229-3.891l-0.899-5.689l-3.68-2.74
		l0.949-1.25l6.98-1.8l-0.5-4.32l3.35-4.54l-2.529-3.95l0.43-1.939l4.18,0.649l3.8,5.141l3.65-0.431l1.42-1.39l5.01,2.37l5.42-2.5
		l3.811-3.84l2.85,2.22l2.57-3.55l1.78,3.1l2.979,0.82l2.82,4.95l-0.05,4.46l2.8,6.939l2.88,0.48l1.55,2.92l6.7-1.32l2.38-6.02l0,0
		l8,0.67l13.38,5.77l0,0l-0.7,5.12l1.301,4.91l-1.42,4.42l-0.351,11.15l-2.58,4.71l-5.899,4.42l3.449,8.43l-5,7.16l-0.479,9.57
		l-2.15,3.939l-0.67,6.26l7.2,1.07l1.9,2.62l3.3-0.13l0.979,2.05l2.37-0.53l-0.12,3.29l3.82,3.44l-1.37,2.62l1.05,0.8l4.48,0.939
		l6.67-2.359l4.15,0.34l2.159,1.52l-1.109,5.11l-6.25,9.601l0.95,6l-3.25,2.84l-0.25,3.42l0,0l-3.82-1.69l-3.03,1.5l-9.02-1.46
		l-4.92-2.689l-2.96-0.011l-3.351-3.029l-5.2,0.739l-2.359-1.21l-7.721,5.54l-8.659-1.93l-3.671,0.74l-8.42-2.99l-4.699-3.94
		l-2.851,0.771l-1.22,3.04l-2.311,0.75l-8.319-4.4l-3.92-5.05l-18.9-4.79l-6.39,2.86l-5.971-0.641l-10.399,1.74l-12.14-7.52
		L567.95,585.02z"/>
	<path id="CF-HK" fill="#1E3250" stroke="#1E3250" stroke-width="0.5" d="M842.61,185.8l2.54-0.13l3.449-4.05l1.5,0.99l-0.47,8.56
		l-3.11,5.07l-3.42,2.89l1.051,7.95l2.199,0.84l2.96-2.07l4.7-0.36l9.84,2.57l7.12-1.88l4.99,1.85l6.04-1.23l4.85,2l12.37,1.41
		l2.94-1.4l3.729,1.78l4.21-2.13l0.65,2.53l-2.5,4.7l3.39,3.9l-8.87,9.69l-1.739,8.5l4.649,7.56l6.61,2.84l0,0l1.3,3.22l6.33,5.27
		l4.77,1.48l0.5,4.44l5.761,4.94l-1.38,8.84l-1.78,2.38l1.63,8.73l1.9,3.71l-0.57,4.46l1.8,3.09l-0.53,7.17l4.131,9.2l2.1,0.899
		l-0.9,1.28l3.67,1.78L933.2,334.52l1.069,3.69l-0.899,2.35l2.8,0.101l-0.57,2.359l2.37,1.921l-2.05,9.72l1.43,5.51l-1.229,2.4
		l-2.271-0.58l-2.18,3.26l-12.83,1.02l-0.479,1.931l-2.3,0.75l2.76,4.859l-2.131,0.7l0.2,2.931l-4.1,1.97l2.5,3.81l-3.78-0.13
		l-0.68,2.22l0,0l-73.6,40.891l-4.521,8h-6.93l-0.431,2.35l-1.819,1.23l0.399,5.739l-2.13,2.131l-35.84-9.45l-3.17-6.55l-2.35-1.25
		l-5.66,1.25l-6.2-1.301l-12.26,2.551l-6.971,14.77l-7.859,4.15l-3.021-0.92l-5.18,0.869l-1.8-2.55l-2.55,0.101l-1,1.779
		l-6.101,1.971l-4.979,4.319l1.47,2.7l-4.37,5.34l-0.2,11.391l-2.2,2.649l3.12,8.16l-4.569,0.08l-0.851,1.57l2.12,0.899l-0.95,1.471
		l-6.229,4.09l-5.9,6.27l0,0l-13.38-5.77l-8-0.67l0,0l-0.08-4.32l9.08-7.14l8.6,5.47l3.86-5.021l3.521-13.409l0.449-7.99l-3.22-3.72
		l-1.95-7.75l-6.229-1.141l0.22-3.649l-2.82-8.051l-4.75-3.619l6.721-11l-3.4-8.9l1.85-10.78l-2-2.12l-6.399-0.75l-5.55-8.46
		l-0.53-5.33l-2.37-2.05l0.05-1.57l3.221-2.26l-0.521-3.6l1.45-2.58l-1.9-4.05l0.221-5.011l-2.771-1l-2.58-16.619l-0.03-10.9
		l-1.97-1.32l-5.05,0.851l-6.93-0.98l-1.03-2.63l1.33-12.2l-2.83-5.72l-6.37-4.93l-9.71-2.181l-7.48-7.55l0,0l-0.47-8.63
		l-2.149-4.38l2.5-4.97l-0.681-8.78l29.79-0.08l-6.68-13.5l8.63-6.1l0.5-3.16l5.5-0.3l5.11,2.06l1.899-4.37l4.471-0.6l7.729-4.45
		l7.33,6.68l2.23,5.52l3.47,0.58l8.149-2.03l0.48-1.51l-3.3-4.94l3.899-10.5l-4.1-10.7l3.229-6.59l7.5-2.38l8.4,3.74l16.66,1.51
		l3.37-2.39l0,0l3.93-0.75l4.33,1.58l3.52-0.33l5.33-5.37l8.131-4.93l12.93-0.1l11.1-4.55l6.33-1.01l4.351,0.78l2.1-3.06v-8.43
		l1.11-2.06l9.75-7.12l6.18-0.85l4.57-3.25l2.43-13.21l2.27-3.75l3.91-2.24l4.851,0.4l-1.88,4.99l2.25,4.64l0,0l-0.841,7.53
		l-1.5,2.59l1.591,3.24L842.61,185.8z"/>
	<path id="CF-HM" fill="#1E3250" stroke="#1E3250" stroke-width="0.5" d="M927.88,248.02l2.29-0.09l1.6,3.4l5.461,3.02l8.38-1.98
		l8.34,1.56l1.95,2.28l6.35-0.64l2.96,0.93l2.16,3.87l1.54,7.78l3.58,2.11l2.35,4.02l7.84,5.08l3.101,3.95l7.819-1.74l3.011,3.24
		l1.569-0.06l3.25,6.16l2.03-0.02l-0.84,9.19l2.22,2.94l-1.43,0.25l-0.11,2.13l-10.12,5.38l1.98,3.899l0.27,4.25l3.46,1.521
		l3.32-0.29l3.101,4.75l2.379,0.09l2.211,6.96l8.16,3.45l0.1,2.1l4.17,1.41l2.46-0.87l2.07,2.271l1.93,0.16l-0.17,1.539l2.43-0.229
		l0.181,1.52l9.239,2.29l1.73,2.131l1.95-0.74l0.869,1.7l6.03,0.88l-0.11,3.46l6.5,1.26l1.57,1.24l-1.12,1.569l2.591,0.631
		l0.58,1.489l4.369,0.471l0.7,2.71l5.67,0.569l0.57,5.021l-1.271,1.779l1.971,0.12l0.47,2.08l1.91-0.31l-0.32,4.49l1.71,2.739
		l5.67,0.96l0.83,2.45l2.85,2.08l-0.109,1.41l4.54,1.19l0.47,2.25l8.521,1.8l4.47,3.35l0.72,1.311l-1.02,2.31l-1.99,1.51l0.01,1.45
		l-2.61,0.32l-2.909,5.67l0.58,1.28l-2.671,0.369l-0.959,2.83l1.529-0.26l-0.27,2.19l1.359,1.02l-1.949,2.5l0.35,1.28l7.811,6.79
		l8.18,3.149l-0.28,3.62l1.47,2.03l2.61-1.07l1.59,1.021l-2.31,5.14l-4.561,3.07l-0.71,3.42l0.82,0.72l5.29-3.399l3.7,7.399
		l4.079,0.3l4.461,2.25l2.569-1.26l3.261,1.17l2.88-0.66l5.29,2.32l2.85,8.51l2.79,0.94l3.85-1.01l3.86,4.109l3.439-0.939
		l1.711,0.899l3.149,5.221l4.761-0.94l1.459,2.28l3.641,0.72l-1.391,1.63l3.9,1.96l2.63,3.561l-0.439,1.59l2.21,2.41l0.06,4.899
		l1.95-1.05l2.15,1.21l-1.041,1.86l0.421,3.239l-3.9,9.29l0.601,4.12l1.569,1.761l-0.76,3.1l6.04,10.69l7.26,4.97l0.84,3.02
		l4.44,4.23l0.739,5l-2.02-0.53l0.141-3.72l-2.521-2.19l-16.46-5.79l-6.7-4.25l-4.069-0.64l-7.48,1.77l-8.46,4.75l-2.06,4.86
		l-1.9,0.58l-1.71,3.57l-3.66-2.28l-2.101,0.91l-3.319-3.28l0.1-1.45l-7.37,1.28l-0.83-0.79l-1.05,1.7l-2.58-1.01l-1.09,2.26
		l-1.29-1.51l-3.55-0.051l-0.06,1.57l-1.551-1.18l-1.529,2.689l0.119-1.92l-1.34,2.13l-3.489-0.199l-2.891-1.73l0.28-2.65
		l-1.63,0.36l0.02-2.05l-1.529,0.09l-0.9-1.8l-1.32,1.06l-0.77-2.35l-2.21,0.41l-1.36-1.13l-2.17,1.72l-1.01-1.53l-1.14,1.12
		l-0.73-1.79l-1.09,0.43l0.229-1.199l-2.79-0.2l-0.069-2.37l-0.95,1.3l-0.52-2.25l-1.471,1.311l-1.18-3.87l-1.92,1.72l0.01-2.13
		l-2.04,1.149l-0.07-2.439l-2.02-0.641l-2.19,2.98l-2.31-0.59l0.77,2.54l-2.05-0.45l-0.8,1.72l-1.29-1.729l-1.38,0.99l-2.46-0.53
		l-0.15-1.82l-1.5,0.75l-0.67-1.76l-1.67,1.5l-0.24,2.81l-1.949-1.34l-2.95,0.57l-0.091,3.18l-2.229-4.83l-3.3,0.61l-1.01,2.25
		l-1.37-2.72l-1.061,0.17l1.011-2.75l-2.711,0.729l0.971-1.39l-0.75-1.75l-2.021,0.81l1.2,1.09l-3.07,1.33l-3.64-5.42l-4.32-0.819
		l-0.189-1.96l-2.54,2.199l-0.6-1.609l-1.99-0.12l1.88-2.22l-2.3,0.18l-1.41-2.67l-3.19-0.98l-0.96,0.851l1.1,1.979l-3.26,0.96
		l-2.199-1.97l-5.2,4.07l-1.28-0.04l-0.98-1.94l-0.819,1.82l-2.45,0.609l1.49,1.4l-2.44,1.23l-3.17,8.189l0.92,3.47l2.07,0.66
		l-3.351,10.13l-10.47,1.69l-0.95,1.229l-3.33-2.199l-1.6,2.54h-12.28l-4.2,1.229l-1.77,2.25l-3.87-0.04l-1.1,2.15l-5-0.141
		l-2.82,2.9l-1.29-1.46l-3.83,1.52l-1.25-1.579l-5.66,0.39l1.431-4.49l-3.7-0.5l-1.74-4.97l-4.34-0.521l-2.79-3.97l-5.05-1.64l0,0
		l2.16-2.261l3.13,1.601l1.87-1.15l-0.021-1.35l-1.83-0.22l-0.42-1.4l1.2-1.07l-0.95-0.87l1.07-1.92l2.33,1.42l-0.08-2.569
		l3.13-5.99l1.3,1.17l6.681,0.2l5.119-3.44l2.431,1.221l0.68-2.24l2.67-1l1.78-2.55l3.07,1.449l0.029-5.64l1.9,0.78l-0.18-1.63
		l2.159-0.92l-0.63-2.17l2.98,0.869l3.02-1.77l-1.37-2.4l4.75-2.72l1.12-3.81l2.18-1.45l-2.68-0.83l2.46-1.72l-1.659-2l1.329-2.17
		l-0.899-2.671l1.699-6.189l-1.5-1.97l5.28-1.681l2.25-2.59l2.45,3.37l1.42-9.02l2.63-4.171l-3.18-4.52l-5.101,0.77l-1.319-3.569
		l-3.101-2.55l-0.229-3.021h-3.65l-2.079-3.6l-12.4-10.57l0.9-1l6.529,2.13l5.95-2.78l1.7-4.819l5.529-0.88l-0.93-6.091
		l-16.58-11.71l-8.83,0.98l-7.25,8.05l-5.979-0.62l-3.351,1.8l-30.27-33.25l0,0l0.68-2.22l3.78,0.13l-2.5-3.81l4.1-1.97l-0.2-2.931
		l2.131-0.7l-2.76-4.859l2.3-0.75l0.479-1.931l12.83-1.02l2.18-3.26l2.271,0.58l1.229-2.4l-1.43-5.51l2.05-9.72l-2.37-1.921
		l0.57-2.359l-2.8-0.101l0.899-2.35l-1.069-3.69l7.819-15.449l-3.67-1.78l0.9-1.28l-2.1-0.899l-4.131-9.2l0.53-7.17l-1.8-3.09
		l0.57-4.46l-1.9-3.71l-1.63-8.73l1.78-2.38l1.38-8.84l-5.761-4.94l-0.5-4.44l-4.77-1.48l-6.33-5.27l-1.3-3.22l0,0l5.54,0.13
		l2.97,1.78l3.851-2.64L927.88,248.02z"/>
	<path id="CF-HS" fill="#1E3250" stroke="#1E3250" stroke-width="0.5" d="M214.26,518.28l16.83-10.46l6.98,3.939l11.75-2.14
		l10.51,7.28l7.77,11.149l-1.45,2.3l-10.1,4.42l3.97,6.061l0,0l0.41,2.64l-1.35,2.391l-4.48,0.949l-5.68,4.66l-7.26,2.59
		l-0.47,13.32l1.63,6.66l3.35,3.39l4.05,9.221l4.8,2.909l3.33,7.631l2.25,2.609l2.43,0.4l0.2,2.149l-7.78-0.8l-3.73-3.66l-5.07-2.97
		l-1.76,0.2l-8.22,7.35l-3.71,8.23l0,0l-6.57-1.87l-5.81,10.979l0.03,9.091l-1.23,3.59l-10.02,10.21l-0.86,3.56l-1.95,1.86
		l-5.35-5.33l-7.03-0.29l-7.2-4.73l-9.55-2.3l-3.08-2.109l-14.53,1.27l-15.76,4.9l-9.4,4.81l-3.75,3.51l-3.95,7.391l-5.41,0.75
		l-1.35-3.431l-3.47-0.35l-14.89,9.29l0,0l-11.74-17.3l-5.43-11.22l-2.93-0.12l0.88-1.41l10.44-3.7l-0.89-1.3l-2.21,0.26l-3.8-6.29
		l0.55-3.21l-2.4-12.1l-3.58-5.13l-1.2,0.079l-1.54-4.81l-11.28-4.51l-14.3-12.78l-1.05-11.75l-1.58-2.13l1.67-2.14l-1.26-5.99
		l0.78-0.76l-2.73-5.79l0.92-2.971l-1.55-2.359l0.49-2.7l0,0l16.43,2.32l6.6-1.771l7.41,6.39l5.1-5.29l21.13-0.119l2.23-1.601
		l3.25,1.92l2.8-0.3l8.26-4.96l5.42,2.89l12.66,0.551l-1.03-9.801l-1.75-2.35l3.73-5.41l-0.28-1.27l2.45-0.931l3.88,0.48l2,6.51
		l-0.53,3.34l2.61,5.54l10.78-4.689l3.35,4.51l2.82,0.3L214.26,518.28z"/>
	<path id="CF-KB" fill="#1E3250" stroke="#1E3250" stroke-width="0.5" d="M443.9,221.36l1.279,0.88l1.5,8.21l1.721,0.86l3.25,6.58
		l5.399,3.99l2.26,3.82l-1.05,2.11l1.32,0.57l-0.45,1.48l8.38,7.96l2.58,5.37l-1.33,4.07l2.55,1.88l-3.149,2.33l1.27,4.17
		l-2.22,2.66l1.75,2.58l-2.88,3.26l2.6,3.56l-2.72,2.19l0.9,2.13l3.43,3.94l1.6-2.21l3.351,3.48l1.22-2.28l2.75,2.86l3.6-1.1
		l4.511,4.23l2.67-0.72l-2.05,2.98l2.779,1.2l-1.5,3.91l0.271,3.16l6.68,0.98l1.4,1.68l2.779-1.5l1.271,1.8l1.38-0.149l0.07,2.83
		l2.699,1.149l-0.02,5.271l3.38,0.17l3.57,6.29l2.979-0.38l2,2.909l0.37,6.11l3.53,3.93l6.08,1.78l6.399,6.66l2.4,1.38l2.03-0.37
		l0.37,2.37l2.63,0.3l0,0l-1.15,3.13l0.65,4.48l-4.13,11.39l-5.101,4.16l-1.7,4.38l-8.88,7.25l-6.18,7.48l-0.6,3.3l1.979,12.08
		l-1.649,0.45l-4.051-2.9l-6.609,0.32l0,0l-21.181-2.67l-15.479,4.1l-8.25,0.3l-7.311,2.13l-7.069-2.81l-4.11-6.8l-2.17-1.17
		l-23.61,3.45l0,0l1.971-6.5l7.859-4.48l1.3-2.73l-1.229-1.869l-5-1.65l-5.5-4.18l-0.63-2.2l1.649-3.38l-2.699-0.23l-1.721-6.45
		l-5.159-4.63l0.43-2.38l3.7-2.3l1.58-6.11l2.819-1.6l0.08-1.81l-3.229-0.671l-0.07-1.55l5.2-3.31l0.8-4.681l6.3-3.63l-11.55-31.6
		l3.72-3.21l23.61-11.1l-3.75-1.26l-0.3-2.66l1.43-2.35L435,286l2.82-2.73l-1.87-2.49l3.85-2.38l-0.33-7.1l2.98-4.34l-1.63-2.06
		l1.779-1.83l-1.149-3.11l1.8-1.81l-0.18-4.37l-0.67-2.33l-3.181-1.28l-0.6-1.84l0.35-2.66l2.05-1.03l-0.369-3.91l1.899-0.98
		l-0.479-3.24l2.029-1.06l-1.699-3.29l1.52-2.89l-1.47-1.63l1.6-2.06L443.9,221.36z"/>
	<path id="CF-KG" fill="#1E3250" stroke="#1E3250" stroke-width="0.5" d="M414.89,406.73l23.61-3.45l2.17,1.17l4.11,6.8l7.069,2.81
		l7.311-2.13l8.25-0.3l15.479-4.1l21.181,2.67l0,0l-0.551,2.45l1.431,2.58l7.479,3.67l3.57,3.979l-3.12,8.92l2.101,3.931
		l-3.33,2.899l1.58,3.44l-5.41,7.399l-5.82,0.3l-1.7,3.49l-9.71,6.681l2.7,11.31l-1.7,2.27l5.811,2.551l0.22,5.04l-1.521,2.77
		l-8.81,7.09l-7.53,1.25l-0.72,1.721l4.15,5.55l45.39-0.7l-0.35,5.11l-5.171,10.06l0.521,5.04l-1.97,12.6l-2.38,3.311l-5.12,2.24
		l0,0l-2.641-2.641l-11.59-3.56l-7.55,0.46l-5.19-1.601l-5.88,2.101l-5.38-0.69L458.9,542.28l-3.5,5.81l-7.801,0.74l0,0l-2.25-10.03
		l-3.3-2.14l-1.18-3.59l-4.7-5.141l0.33-6.239l3.27-9.15l-4.5-8.71l-6.18-3.57l-2.57-3.1l-0.979-10.68l-16.2-2.57l-5.13-6.68l0,0
		l-0.479-8.801l-1.87-4.67l2.52-5.649l-1.3-4.721l6.51-2.52l14.7-12.54l4.33-1.33l0.82-1.42l-4.471-3.8l-0.05-10.83l-10.93-10.8
		L414.89,406.73z"/>
	<path id="CF-LB" fill="#1E3250" stroke="#1E3250" stroke-width="0.5" d="M260.52,540.83l8.73-1.53l2.13,4.19l6.03,2.3l2.2,3.76
		l3.6,1.45l1.33,3.14l13.23,6.03l5.35,6.14l2.57,13.86l4.51,5.38l5.95,1.42l1.4-1.64l4.68,0.27l3.3-1.35l5.42,2.3l1.73,4.36
		l2.48-0.75l3.07,2.12l4.4-2.59l8.38,1.47l0.08,1.64l1.62,0.65l5.25-2.32l1.36,0.9l5.6,9.77l8.18,1.84l2.02,2.69l3.03,6.25l0.47,7.6
		l-1.27,3.59l1.35,3.54l4.5,3.48l1.4,3.54l4.33,1.64l1.05,3.19l9.07,4.04l1.79,2.359l0,0l-0.46,13.61l3.94,20.85l-3.61-0.539
		l-5.35-11.921l-4.4-3.869l-3.43,4.67l-3.12-0.25l-0.31,2.33l-5.82-2.66l-3.35,1.85l-3.69-0.41l-2.36,8.17l-4.73,1.721l-3.99-6.46
		l-3.56-1.631l-9.46-0.659l-0.39,2.479l-2.37-0.83l-2.85-3.77l-1.66,2.6l-5.42,3.63l-2.71-8.399l-8.64-2.2l-2.52,1.5l-8.89-0.601
		l-5.64-4l-4.68-1.46l-6.9,2.66l0,0l-4.26-7.989l-4.37-5.011l-13.96-6.319l-6.68-1.271l-5.12-3.39l-5.63-0.521l-3.03-2.489
		l-10-16.19l-7.96-8.09l0,0l3.71-8.23l8.22-7.35l1.76-0.2l5.07,2.97l3.73,3.66l7.78,0.8l-0.2-2.149l-2.43-0.4l-2.25-2.609
		l-3.33-7.631l-4.8-2.909l-4.05-9.221l-3.35-3.39l-1.63-6.66l0.47-13.32l7.26-2.59l5.68-4.66l4.48-0.949l1.35-2.391L260.52,540.83z"
		/>
	<path id="CF-MB" fill="#1E3250" stroke="#1E3250" stroke-width="0.5" d="M910.83,385.31l30.27,33.25l3.351-1.8l5.979,0.62
		l7.25-8.05l8.83-0.98l16.58,11.71l0.93,6.091l-5.529,0.88l-1.7,4.819l-5.95,2.78l-6.529-2.13l-0.9,1l12.4,10.57l2.079,3.6h3.65
		l0.229,3.021l3.101,2.55l1.319,3.569l5.101-0.77l3.18,4.52l-2.63,4.171l-1.42,9.02l-2.45-3.37l-2.25,2.59l-5.28,1.681l1.5,1.97
		l-1.699,6.189l0.899,2.671l-1.329,2.17l1.659,2l-2.46,1.72l2.68,0.83l-2.18,1.45l-1.12,3.81l-4.75,2.72l1.37,2.4l-3.02,1.77
		l-2.98-0.869l0.63,2.17l-2.159,0.92l0.18,1.63l-1.9-0.78l-0.029,5.64l-3.07-1.449l-1.78,2.55l-2.67,1l-0.68,2.24l-2.431-1.221
		l-5.119,3.44l-6.681-0.2l-1.3-1.17l-3.13,5.99l0.08,2.569l-2.33-1.42l-1.07,1.92l0.95,0.87l-1.2,1.07l0.42,1.4l1.83,0.22
		l0.021,1.35l-1.87,1.15l-3.13-1.601l-2.16,2.261l0,0l-3.521,0.14l0.75,2.95l-1.2,0.46L924,532.91l-1.59,0.189l-2.83,4.41l1.41,1.33
		l2.22-0.75l1.13,2l-3.189,2.061l-6.94,0.479l-2.1,1.95l0.079,3.97l-2.109,0.19l0.1-1.51l-1.55-0.7l-6.83,5.8l-6.319-1.38
		l-10.271,4.859l-1.47-1.88l-0.9,6.07l-5.189-2.08l-3.7,1.96l-1.59-1.67l-5.66,4.47l-5.53-0.25l-11.45,4.431l-7.319,5.359
		l-3.23-0.01l-3.05,2.08l-0.9,5.5h-3.45l-2.01-1.7l-2.62,0.51l-4.569-2.1l-1.57-3.42l-4.92-2.561l-3.311-4.119l-5.25,2.71
		l-2.989-0.681l-6.061-3.399l-4.109-7.57l-2.33,2.01l-3.12-0.22l-1.71,2.99l1.35,2.46l-2.5,1.7l-0.819,2.729l-1.811,0.54l-3.29-2.1
		l-2.31,1.859l-3.96,7.13l-0.521,6.181l-2.45,3.62l-0.68,3.939l-1.69,0.9l-1.569-1.69l-3.2-0.37l-2.52,1.16l-1.23,6.45l3.11,2
		l-0.061,2.43l-4,1.95l-2.609,4.51l0.399,5.65l-8.67,7.85l-16.91,1.221l-9.24-3.57l-6.159-5.16l-5.38-0.89l0,0l0.25-3.42l3.25-2.84
		l-0.95-6l6.25-9.601l1.109-5.11l-2.159-1.52l-4.15-0.34l-6.67,2.359l-4.48-0.939l-1.05-0.8l1.37-2.62l-3.82-3.44l0.12-3.29
		l-2.37,0.53l-0.979-2.05l-3.3,0.13l-1.9-2.62l-7.2-1.07l0.67-6.26l2.15-3.939l0.479-9.57l5-7.16l-3.449-8.43l5.899-4.42l2.58-4.71
		l0.351-11.15l1.42-4.42l-1.301-4.91l0.7-5.12l0,0l5.9-6.27l6.229-4.09l0.95-1.471l-2.12-0.899l0.851-1.57l4.569-0.08l-3.12-8.16
		l2.2-2.649l0.2-11.391l4.37-5.34l-1.47-2.7l4.979-4.319l6.101-1.971l1-1.779l2.55-0.101l1.8,2.55l5.18-0.869l3.021,0.92l7.859-4.15
		l6.971-14.77l12.26-2.551l6.2,1.301l5.66-1.25l2.35,1.25l3.17,6.55l35.84,9.45l2.13-2.131l-0.399-5.739l1.819-1.23l0.431-2.35h6.93
		l4.521-8L910.83,385.31z"/>
	<path id="CF-MP" fill="#1E3250" stroke="#1E3250" stroke-width="0.5" d="M255.15,465.75l-0.48,4.7l5.06,8.79l51.29-0.7l18.51-10.56
		l4.43-5.051l4.77-1.35l7.28,4.82l1.45-0.19l0.3,3.67l1.88,1.39l5.27-1.59l3.38,2.44l10.38-1.521l2.17,1.2l1.11,4.09l6.3-1.189
		l4.8,1.87l0.33,1.92l-2.91,2.72l2.45,4.7l0.85,6.689l17.06-7.64l1.75-3.8l-0.3-4.22l1.93,0.29l0,0l5.13,6.68l16.2,2.57l0.979,10.68
		l2.57,3.1l6.18,3.57l4.5,8.71l-3.27,9.15l-0.33,6.239l4.7,5.141l1.18,3.59l3.3,2.14l2.25,10.03l0,0l-3.54,3.5l-6.01,12.71l-7,7.83
		l-2.35,0.899l-6.67,8.771l-3.7,12.66l-5.17,4.81l-5.92,1.03l0,0l-2.851-6.73l-5.859,0.61l-2.23,4.03l2.021,3.58l0,0l-2.011,3.04
		l6.511,12.1l2.739,8.09l0.301,8.83l-4,6.16l-1.021,4.81l0,0l-1.79-2.359l-9.07-4.04l-1.05-3.19l-4.33-1.64l-1.4-3.54l-4.5-3.48
		l-1.35-3.54l1.27-3.59l-0.47-7.6l-3.03-6.25l-2.02-2.69l-8.18-1.84l-5.6-9.77l-1.36-0.9l-5.25,2.32l-1.62-0.65l-0.08-1.64
		l-8.38-1.47l-4.4,2.59l-3.07-2.12l-2.48,0.75l-1.73-4.36l-5.42-2.3l-3.3,1.35l-4.68-0.27l-1.4,1.64l-5.95-1.42l-4.51-5.38
		l-2.57-13.86l-5.35-6.14l-13.23-6.03l-1.33-3.14l-3.6-1.45l-2.2-3.76l-6.03-2.3l-2.13-4.19l-8.73,1.53l0,0l-3.97-6.061l10.1-4.42
		l1.45-2.3l-7.77-11.149l-10.51-7.28l-11.75,2.14l-6.98-3.939l-16.83,10.46l0,0l-0.48-4.67l-2.65-5.86l2.63-10.98l-0.35-4.92l0,0
		l8.42-4.97l2.33-3.689l4.13-2.95l0.72-4l6.78-4.99l3.35,0.23l6.53-2.631l5.45-0.42L255.15,465.75z"/>
	<path id="CF-NM" fill="#1E3250" stroke="#1E3250" stroke-width="0.5" d="M71.83,391.04l4.42,0.43l8.01-3.899l9.67-2.48l0.35,6.11
		l8.21,5.93l1.95,4.2l2.07,13.7l2,2.3l0.33,2.65l6.53,6.449l4.37-2.35l5.96,1.52l1.9-2.819l13.15-4.471l4.1-3.6l2.23,1.57l1.02,3.68
		l-6.82,6.34l-1.08,2.431l6.08,6.55l2.1,4.2l0.22,11.439l2.08,2.57l-0.02,5.97l4.9,4.271l6.38,2.149l3.67,4.67l7.46,1.67l8.3-3.989
		l3.03-7.021l5.52,0.43l1.5,6.561l4.2,5.319l5.43,2.4l6.83,5.99l0.95,3.95l4.58,5.989l0,0l0.35,4.92l-2.63,10.98l2.65,5.86
		l0.48,4.67l0,0l-46.35,19.35l-2.82-0.3l-3.35-4.51l-10.78,4.689l-2.61-5.54l0.53-3.34l-2-6.51l-3.88-0.48l-2.45,0.931l0.28,1.27
		l-3.73,5.41l1.75,2.35l1.03,9.801l-12.66-0.551l-5.42-2.89l-8.26,4.96l-2.8,0.3l-3.25-1.92l-2.23,1.601l-21.13,0.119l-5.1,5.29
		l-7.41-6.39l-6.6,1.771l-16.43-2.32l0,0l-0.6-4.86l1.62-2.229l-2.24-8.721l-1.62-1.609l-6.63-1.32l-4.6-4.7l2.32-2.14l2.19-7.64
		l2.15-1.17l0.22-5.891l2.4-3.689l-3.23-7.271l2.96-9.97l-0.6-17.78l-1.92-2.2l-3.19,1.971l-4.47,0.05l-1.92-1.46l-2.01-4.88
		l-4.44-5.681l0.34-4.779l4.2-1.16l8.07-8.3l16.99-6.381l5.87-8.939l-0.23-4.38L71.83,391.04z"/>
	<path id="CF-OP" fill="#1E3250" stroke="#1E3250" stroke-width="0.5" d="M220.58,285.26l-0.96,2.55l1.27,2.61l-0.3,3.25l6.62,2.77
		l-0.07,6.28l2.06,1.61l3.3,0.05l6.05,5.86l0.21,2.13l2.34,2.62l0,0l-0.98,5.029l1.92,4.03l-3.67,3.74l-1.2,11.52l-2.33,5.881
		l1.53,6.689l-3.75,6.96l-2.78,0.63l0.45,3.03l-2.33,1.37l0.88,3.979l2.22,1.48l1.25,4.35l0.08,9.99l2.65,5.85l0.6,7.631l2.3,1.6
		l2.17-1.8l-1.99,2.069l0.32,3.86l3.25,1.2l2,4.62l5.63,3.55l3.13-0.35l1.22-2.62l5.13,0.92l1.9-1.15l5.5,3.38l-0.85,4.971
		L263,417.18l-2.17,2.801l-1.93,0.229l0.78,2.82l-1.41,1.029l0.25,1.421l-5.5,0.85l-1.55,6.97l1.5,7.7l-4.47,2.2l2.12,6.319
		l0.43,8.221l2.92,3.79l1.18,4.22l0,0l-4.03,2.68l-5.45,0.42l-6.53,2.631l-3.35-0.23l-6.78,4.99l-0.72,4l-4.13,2.95l-2.33,3.689
		l-8.42,4.97l0,0l-4.58-5.989l-0.95-3.95l-6.83-5.99l-5.43-2.4l-4.2-5.319l-1.5-6.561l-5.52-0.43l-3.03,7.021l-8.3,3.989l-7.46-1.67
		l-3.67-4.67l-6.38-2.149l-4.9-4.271l0.02-5.97l-2.08-2.57l-0.22-11.439l-2.1-4.2l-6.08-6.55l1.08-2.431l6.82-6.34l-1.02-3.68
		l-2.23-1.57l-4.1,3.6l-13.15,4.471l-1.9,2.819l-5.96-1.52l-4.37,2.35l-6.53-6.449l-0.33-2.65l-2-2.3l-2.07-13.7l-1.95-4.2
		l-8.21-5.93l-0.35-6.11l-9.67,2.48l-8.01,3.899l-4.42-0.43l0,0l2.57-5.4l4.55-1.529l2.72,0.439l1.35-1.359l7-15.36l0.39-7.33
		l1.9-3.49l2.42-0.34l2.58-6.04l-1.08-3.439l2.27-3.45l-2.01-0.98l0.77-1.35l18.29-15.8l6.75-9.94l5.18,1.32l15.09-0.78l1.35,3.67
		l6,3.37l14.87-3.81l5.79-4.551l0.92-3.33l1.52-1.01l8.77-1.149l1.98-1.79l4.49,0.71l5.95-4.08l8.22-1.74l3.4-4.3l-1.18-0.81
		l0.79-1.72l-1.23-1.91l2.38-3.36l1.47,0.25l0.4,1.58l2.64-0.49l2.68-5l6.94-3.12L220.58,285.26z"/>
	<path id="CF-SE" fill="#1E3250" stroke="#1E3250" stroke-width="0.5" d="M233.46,610.7l7.96,8.09l10,16.19l3.03,2.489l5.63,0.521
		l5.12,3.39l6.68,1.271l13.96,6.319l4.37,5.011l4.26,7.989l0,0l-1.88,0.971l-2.84,4.899l-5.75-2.08l-4.17,1.74l-1.18,2.83
		l-6.05,1.24l-1.36-0.88l-8.91,2.42l-2.05,3.109l-2.78-2.97l-2.56,0.55l-1.69-1.74l-7.53,0.21l-0.02,2.721l-1.94,1.479l-8.76-4.16
		l-7.43,1.37l-5.53,3.99l-1.56,2.74l-1.46,11.109l-2.03,3.311l0.35,4.68l-4.74,8.391l3.49,8.43l-4.6,5.5l-0.29,8.51l3.11,2.58
		l-0.42,3.42L184.35,792l-2.45-2.23l0.57-2.52l-2.02-6.8l-6.58-10.351l0.85-2.34l-1.6-3.18l1.58-6.3l-1.57-3.811l2.01-5.42
		l-2.48-0.97l-1-7.15l2-1l1.54-2.899l-4.9-12.521l-2.78-2.359l-3.24,1.18l-7.28-9.74l-2.43-1.12l-5.68,0.79l-26.19-30.5
		l-20.37-21.26l0,0l14.89-9.29l3.47,0.35l1.35,3.431l5.41-0.75l3.95-7.391l3.75-3.51l9.4-4.81l15.76-4.9l14.53-1.27l3.08,2.109
		l9.55,2.3l7.2,4.73l7.03,0.29l5.35,5.33l1.95-1.86l0.86-3.56l10.02-10.21l1.23-3.59l-0.03-9.091l5.81-10.979L233.46,610.7z"/>
	<path id="CF-UK" fill="#1E3250" stroke="#1E3250" stroke-width="0.5" d="M629.02,299.59l7.48,7.55l9.71,2.181l6.37,4.93l2.83,5.72
		l-1.33,12.2l1.03,2.63l6.93,0.98l5.05-0.851l1.97,1.32l0.03,10.9l2.58,16.619l2.771,1l-0.221,5.011l1.9,4.05l-1.45,2.58l0.521,3.6
		l-3.221,2.26l-0.05,1.57l2.37,2.05l0.53,5.33l5.55,8.46l6.399,0.75l2,2.12l-1.85,10.78l3.4,8.9l-6.721,11l4.75,3.619l2.82,8.051
		l-0.22,3.649l6.229,1.141l1.95,7.75l3.22,3.72l-0.449,7.99l-3.521,13.409l-3.86,5.021l-8.6-5.47l-9.08,7.14l0.08,4.32l0,0
		l-2.38,6.02l-6.7,1.32l-1.55-2.92l-2.88-0.48l-2.8-6.939l0.05-4.46l-2.82-4.95l-2.979-0.82l-1.78-3.1l-2.57,3.55l-2.85-2.22
		l-3.811,3.84l-5.42,2.5l-5.01-2.37l-1.42,1.39l-3.65,0.431l-3.8-5.141l-4.18-0.649l-0.43,1.939l2.529,3.95l-3.35,4.54l0.5,4.32
		l-6.98,1.8l-0.949,1.25l3.68,2.74l0.899,5.689l-3.229,3.891l0.95,5.939l-0.87,9.061l-4.83,8.31l3.43,8.08l-4.05,8.25l1.1,10.75
		l-3.51,2.57l-5.2-0.9l-8.829,4.46l-12.301,14.46l-10.979,5.35l0,0l0.08-8.68L558.1,565.23l-13.22-6.83l-3.55-4.36l-5.82-2.74
		l-6.14-5.34l-9.811-1.229l-3.71-3.37l-1.739-4.21l0,0l5.12-2.24l2.38-3.311l1.97-12.6l-0.521-5.04l5.171-10.06l0.35-5.11
		l-45.39,0.7l-4.15-5.55l0.72-1.721l7.53-1.25l8.81-7.09l1.521-2.77l-0.22-5.04l-5.811-2.551l1.7-2.27l-2.7-11.31l9.71-6.681
		l1.7-3.49l5.82-0.3l5.41-7.399l-1.58-3.44l3.33-2.899l-2.101-3.931l3.12-8.92l-3.57-3.979l-7.479-3.67l-1.431-2.58l0.551-2.45l0,0
		l6.609-0.32l4.051,2.9l1.649-0.45l-1.979-12.08l0.6-3.3l6.18-7.48l8.88-7.25l1.7-4.38l5.101-4.16l4.13-11.39l-0.65-4.48l1.15-3.13
		l0,0l0.67,1.811l4.06,1.1l1.82,2.45l7.3-0.15l2.98,1.5l1.899-1.149l2.5,0.43l1.2-1.33l1.8,1.93l2.05,0.051l5.61-4.261l4.95-0.149
		l6.63-5.73l3.75-9.989l3.6-0.58l6.551,2.08l10.33-6.391l9.8-14.83l5.479-4.729l-2.27-4.49l0.02-2.88l3.5-2.61l1.351-5.72
		L629.02,299.59z"/>
	<path id="CF-VK" fill="#1E3250" stroke="#1E3250" stroke-width="0.5" d="M756.13,0.86l2.351,1.27l3.93-1.17l3.91,1.6l7.08,0.46
		l3.09,2.76l10.14,1.21l0.36,3.29l3.189,2.93l7,12.55l11.84,7.72l7.15,8.59l8.33,6.45l32.98,53l2.67,20.31l-6.24,11.4l2.439,0.51
		l-1.989,5.68l0.93,2.55l2.16-1.01l0.859,1.64l-3.449,8.66l1.46,5.22l-9.86,9.79l-4.85,0.45l-1.63,3.98l0,0l-2.25-4.64l1.88-4.99
		l-4.851-0.4l-3.91,2.24l-2.27,3.75l-2.43,13.21l-4.57,3.25l-6.18,0.85l-9.75,7.12l-1.11,2.06v8.43l-2.1,3.06l-4.351-0.78
		l-6.33,1.01l-11.1,4.55l-12.93,0.1l-8.131,4.93l-5.33,5.37l-3.52,0.33l-4.33-1.58l-3.93,0.75l0,0l0.2-5.35l-1.221-1.46l-15.21-3.17
		l-7.95-5.58l-3.649-15.61l0.67-3.07l-6.3-3.35l-1.851-5.76l-6.05-3.62l-2.75-4.23l-4.61-2.24l-2.199-7.27l-2.971-3.55l-1.38-9.4
		l-5.1-4.08l-1.271-4.18l-5.859-5.06l-1.95-3.68l-7,0.4l-1.8-1.21l-2.23-15.2l-4.12-0.38l-2.08,3.71l-6.579,3.28l-3.9,3.55
		l-1.5,3.68l-3.28,3l-4.45,1.66l-9.43,0.83l-5.35,2.68l-3.5,6.07l-6.351,2.26l-4.229,5.27l-3.88-0.51l-3.721-5.49l0,0l2.061,1.1
		l-0.04-2.94l3.56-2.23l0.73-3.26l3.67-0.19l1.09-4.14l2.18,0.29l-0.01-4.4l3.29-0.39l-1.88-1.98l2.39-0.28l-1.109-1.79l1.55-1.78
		l-2.771-1.57l3.29-0.31l-0.85-3.75l3.2,1.68v-4.13l2.95,0.78l4.689-2.41l1.601-5.08l5.93-4.31l0.34-3.21l4.62-5.42l3.939,2.03
		l1.051-2l2.42,2.25l1.649-0.45l0.69-1.7l2.83-1.11l1.26-3.63l4.25-4.16l-0.44-3.34l6.561-8.35l1.89-1.12l1.561,1.59l2.47-0.08
		l3.03-1.83l4.14-0.04l-0.689-1.93l1.979-1.02l-0.56-1.25l2.619,0.16l2.04-2.31l0.83-1.68l-1.29-2.44l1.591-0.66l0.199-2.49
		l2.521-2.73l-4.811-8.75l1.381-4.22l0.069-9.08l2.25,1.07l2.7-2.47l-0.01-11.4l3.97-4.09l2.93-0.64l1.41-2.13l7.15,1.07l0.18-1.19
		l1.83,0.69l3.06-1.95l5.19-0.98l6.99,1.81l3.939-2.97l8.49-2.08l3.33-2.22l8.771-1.36l1.67-1.62l5.96-1.71L756.13,0.86z"/>
</g>
</svg>
