<?xml version="1.0" encoding="utf-8"?>
<!-- Generator: Adobe Illustrator 15.0.0, SVG Export Plug-In . SVG Version: 6.00 Build 0)  -->
<!DOCTYPE svg PUBLIC "-//W3C//DTD SVG 1.1//EN" "http://www.w3.org/Graphics/SVG/1.1/DTD/svg11.dtd">
<svg version="1.1" id="Layer_1" xmlns:amcharts="http://amcharts.com/ammap"
	 xmlns="http://www.w3.org/2000/svg" xmlns:xlink="http://www.w3.org/1999/xlink" x="0px" y="0px" width="536.5px" height="820.5px"
	 viewBox="0 0 536.5 820.5" enable-background="new 0 0 536.5 820.5" xml:space="preserve">
<defs>
	
	
		<amcharts:ammap  projection="mercator" bottomLatitude="7.440090" leftLongitude="13.472495" topLatitude="23.450974" rightLongitude="24.002888">
		</amcharts:ammap>
</defs>
<g>
	<path id="TD-BA" fill="#1E3250" stroke="#1E3250" stroke-width="0.5" d="M314.03,389.17l0.91,81.6l0,0l-0.29,6.171l10.13,6.21
		l1.29,3.619l-1.34,6.94l4.64,9.38l-0.28,17.67l0,0l-1.3,2.82l-13.67,3.22l0,0l-12.81-4.68l-28.34,16.76l-33.89-0.24l-19.6,11.681
		l-8.75,0.29l-15.06,12.01l1.49,3.59l0,0l-8.94-2.86l-1.1-4.18l-3.73-3.7l-0.81-6.859l-6.84-5.931l-2.77-8.47l-6.41-4.729
		l9.71-10.671l0,0l3.82-5.42l-0.33-10.59l1.76-11.479l15.06-4.79l22.23-84.24l0,0l13.86,7.29l14.82,0.689l7.17-1.97l10.8-6.609
		l6.17-6.95l4.64-9.87l1-13.24l3.87-0.59l2.25,1.38l3.87,7.96l3.63,3.8L314.03,389.17z"/>
	<path id="TD-BG" fill="#1E3250" stroke="#1E3250" stroke-width="0.5" d="M218.81,402.29l-22.23,84.24l-15.06,4.79l-1.76,11.479
		l0.33,10.59l-3.82,5.42l0,0l-6.55-2.829l-5.93,2.34l-2.58-1.32l-4.02,2.25l-10.27,0.97l-3.78,1.761l-5.11-0.83l-8.7,1.359
		l-8.66-1.02l-4.2-6.29l0,0l1.15-13.521l-2.78-8.02l0.77-5.57l-5.64-1.46l-0.58,0.92l-7.64-0.49l0.81-13.84l4.4-1.67l4.44-3.87
		l16.21-19.609l1.86-14.19l16.3-56.17l7.84-13.25l0,0l55.21,24.51L218.81,402.29z"/>
	<path id="TD-BO" fill="#1E3250" stroke="#1E3250" stroke-width="0.5" d="M267.56,74.81l92.58,48.79l0,0l-43.72,94.61l5.45,21.55
		l15.11,40.59l-6.6,60.97l21.46,47.739l0,0l-11.09,6.221l-5.02-1.82l-8.51,1.87l-13.19-6.16l0,0l-23.14-4.99l-3.63-3.8l-3.87-7.96
		l-2.25-1.38l-3.87,0.59l-1,13.24l-4.64,9.87l-6.17,6.95l-10.8,6.609l-7.17,1.97l-14.82-0.689l-13.86-7.29l0,0l-9.99-13.32
		l-55.21-24.51l0,0l-58.98-29.8l0,0l2.5-2.71l0.39-8.83l0,0l82.57-149.26l7.08-14.27l0.81-7.81l1.72-3.35l1.91-0.91l5.31,3.25v2.79
		l-3.4,3.55l0.91,6.89l8.75,8.35l1.19,3.95l5.55,6.37l2.77-1.52l2.59-4.76l-2.87-12.75l1.72-5.57l-2.82-8.58l-3.73-3.8l-0.52-6.71
		l7.36-6.55l4.78-7.94l5.58-3.05l9.56-1.22l6.12-2.91l5.46-6.53l6.31-4.85l1.53-16.45l6.4-8.85l0.05-2.62L267.56,74.81z"/>
	<path id="TD-CB" fill="#1E3250" stroke="#1E3250" stroke-width="0.5" d="M75.31,561.35l10.52-2.619l4.97-4.08l6.36,6.85l8.51-5.64
		h13.95l5.45-4.57l27.53,9.87l2.83,4.66l-0.82,6.699l3.92,4.421l3.25,11.069l7.7,0.38l5.73,4.95l9.37,4.561l0,0l-1.43,11.72
		l2.77,21.04l-1.72,10.689l10.33,5.94l0,0l-7.75,30.15l0,0l-5.97-0.681l-3.25-1.49l-1.15-2.359l-10.61-1.21l-2.15-2.17l-5.79-0.96
		l-1.81-2.08l-3.64-0.86l-2.05-4.83l0.19-3.04l-1.86-1.49l-4.83,3.131l-13.82-0.44l0,0l-3.1-5.06l0.95-18.98l-1.53-2.9l-3.3,0.721
		l-9.94-2.08l-14.15-7.01l-5.06-5.851l-1.96-7.31l-7.94,0.14l-9.44,5.66l0,0l-0.33-9.23l2.07-4.119l-0.53-2.04l4-6.17l-2-2.181
		l-1.67-6.229l1.75-0.91l-1.05-1.55l1.85-1.561l-3.68-5.1l0.55-3.47l1.59-0.94l0,0l2.4,0.32l1.1-4.181L75.31,561.35z"/>
	<path id="TD-EN" fill="#1E3250" stroke="#1E3250" stroke-width="0.5" d="M503.18,376.42l0.08,14.58l-16.24-2.61l-14.789,3.521
		l-10.57-1.19l0,0l-6.67-5.45l-4.4,1.08l-4.87-2.119l-9.37,2.22l-2.529-0.74l-1.2-3.85l-5.26-1.431l-4.301,1.48l-9.51-3.811
		l-7.359,2.381l-10.76-2.181l-18.5,5.141l-10.75-3.801l-14.34,9.42l0,0l-21.46-47.739l6.6-60.97l-15.11-40.59l-5.45-21.55
		l43.72-94.61l0,0l143.04,77.78V376.42z"/>
	<path id="TD-GR" fill="#1E3250" stroke="#1E3250" stroke-width="0.5" d="M314.12,526.8l8.85,6.58l0.67,1.75l-3.35,1.8l-2.87,5.5
		l1.91,4.04l-3.44,1.8l-3.87,5.301l-5.35,14.88l0.81,1.89l0,0l-15.58-2.09l-5.5-1.94l-7.27,6.851l1.34,6.16l-6.02,10.529
		l-6.07,1.841l-1.58-4.32l-7.31-0.14l-1.34,10.42l1.34,7.08l27.58,13.699l10.28,2.271l2.05,4.35l-1.43,1.84l0.91,7.54l-1.11,6.24
		l0,0l-5.68,5.311l-4.21-0.87l-3.15,1.31l-4.11,6.03l0.52,2.17l-6.69,5.41l-0.34,1.979l-2.24-0.439l-3.97,8.06h-12.09l-1.49,5.25
		l-7.74-1.92l0.48-5.12l-6.98-7.76l-9.89-3.67l-5.98-4.05l-4.64-0.2l-5.02-2.271l-4.68-4.83l-15.34,2.23l0,0l-10.33-5.94
		l1.72-10.689l-2.77-21.04l1.43-11.72l0,0l4.31-5.53l5.73-4.17l6.46-0.391l-2.2-5.63l-4.26-5.58l2.54-10.39l0,0l-1.49-3.59
		l15.06-12.01l8.75-0.29l19.6-11.681l33.89,0.24l28.34-16.76L314.12,526.8z"/>
	<path id="TD-HL" fill="#1E3250" stroke="#1E3250" stroke-width="0.5" d="M52.36,528.91l1.5,0.72l3.72-2.3l3.23,0.82l3.55-2.471
		l2.74,1.811l2.1-0.49l3.22-3.15l3.73,1.341l1.45-0.99l0.97-5.931l1.61-0.989l-2.38-4.33l4.25,0.979l0,0l0,0l0,0L85.4,519l1.43-2.19
		l2.01,0.19l3.2-2.58l-1-1.27l0,0l-3.85-2l0.42-2.771l0,0l-0.62-3.32l0,0l0,0l0,0l4.14-0.6l2.3,3.71l7.07,3.42l0,0l8.56,4.09
		l7.41-0.479l0,0l4.2,6.29l8.66,1.02l8.7-1.359l5.11,0.83l3.78-1.761l10.27-0.97l4.02-2.25l2.58,1.32l5.93-2.34l6.55,2.829l0,0
		l-9.71,10.671l6.41,4.729l2.77,8.47l6.84,5.931l0.81,6.859l3.73,3.7l1.1,4.18l8.94,2.86l0,0l-2.54,10.39l4.26,5.58l2.2,5.63
		l-6.46,0.391l-5.73,4.17l-4.31,5.53l0,0l-9.37-4.561l-5.73-4.95l-7.7-0.38l-3.25-11.069l-3.92-4.421l0.82-6.699l-2.83-4.66
		l-27.53-9.87l-5.45,4.57h-13.95l-8.51,5.64l-6.36-6.85l-4.97,4.08l-10.52,2.619l0,0l-4.21-0.92l-2.62,0.91l0,0l0.21-7.479
		l-1.55-4.141l-1.39,0.38l-0.83-8.369l-3.17-0.341l-0.84-2.479l-1.67,1.22l0.19-2.77l-4.55-0.98v-1.56l-1.71,1.12l-1.63-1.87
		L52.36,528.91z"/>
	<path id="TD-KA" fill="#1E3250" stroke="#1E3250" stroke-width="0.5" d="M153.61,364.46l-7.84,13.25l-16.3,56.17l-1.86,14.19
		L111.4,467.68l-4.44,3.87l-4.4,1.67l-0.81,13.84l7.64,0.49l0.58-0.92l5.64,1.46l-0.77,5.57l2.78,8.02l-1.15,13.521l0,0l-7.41,0.479
		l-8.56-4.09l0,0l-1.1-5.62l-7.65-18.56l-20.69,3.76l-5.21-0.34l-2.77,1.81l-6.36-11.79l-8.18-10.619l-6.4-1.57l-1.44-2.84
		l-3.58-0.83l-1.63-3.28l-2.72-0.89l-0.72-3.38l-3.2-3.04l-2.39-0.19l-1.34-2.26l-9.22-0.05l-1.44-1.91l-6.3-0.49l0,0l2.48-1.73
		l-0.9-4.189l6.34-4.18l-0.96-6.95l3.46-8.271l24.98-34.5l51.07-55.02l0,0L153.61,364.46z"/>
	<path id="TD-LC" fill="#1E3250" stroke="#1E3250" stroke-width="0.5" d="M51.56,526.03L47.15,520l-18.02-0.24L7.85,489.39L0,453.09
		l1.26-1.72l6.9-1.87l0,0l6.3,0.49l1.44,1.91l9.22,0.05l1.34,2.26l2.39,0.19l3.2,3.04l0.72,3.38l2.72,0.89l1.63,3.28l3.58,0.83
		l1.44,2.84l6.4,1.57l8.18,10.619l6.36,11.79l2.77-1.81l5.21,0.34l20.69-3.76l7.65,18.56l1.1,5.62l0,0l-7.07-3.42l-2.3-3.71
		l-4.14,0.6l0.62,3.32l0,0l-0.77,2.38l4.2,2.391l0,0l1,1.27l-3.2,2.58l-2.01-0.19L85.4,519l-3.35-5.07l-4.25-0.979l2.38,4.33
		l-1.61,0.989L77.6,524.2l-1.45,0.99l-3.73-1.341L69.2,527l-2.1,0.49l-2.74-1.811l-3.55,2.471l-3.23-0.82l-3.72,2.3l-1.5-0.72l0,0
		L51.56,526.03z"/>
	<path id="TD-LO" fill="#1E3250" stroke="#1E3250" stroke-width="0.5" d="M141.18,711.53l3.68,5.91l3.97,3.369l-3.16,7.11
		l-5.49,2.88l-2.63,2.98l-3.73-0.24l-7.46,2.5l-5.78,3.46l-6.41,4.84l-2.82,4.851l-5.64,0.189l-7.45,2.74l-0.15-1.49l-1.72,0.67
		l-2.1-4.12l-4.97-1.3l-3.33-3.79l0,0l0.22-8.649l3.82-4.66l1.44-13.17l2.58-1.341l0,0l6.31,1.82l3.78-1.82l7.98,1.051l5.26-1.051
		l2.63-3.27l8.26,2.4l2.73-3.61l7.17-4.37L141.18,711.53z"/>
	<path id="TD-LR" fill="#1E3250" stroke="#1E3250" stroke-width="0.5" d="M141.18,711.53l5.55-1.69l10.94,3.95l10.23,1.01l7.08-1.35
		l0,0l0.38,15.189l-4.59,6.29l11.9,16.09l-3.92,6.671l-5.02,1.239l8.41,15.7l0,0l-1.01,2.72l-1.44-0.79l-3.45,4.631l-3.31-1.221
		l-0.03,1.521l-2.4,1.22l-6.67,0.89l0.34,2.79l-3.06,1.36l-5.6-5.77l-2.85-0.881l0.04-3.33l-3.51-1.47l0.07-5.34l-3.69,1.65
		l-1.42,2.659l-2.4-0.71l-1.26,1.78l0.86,2.36l-1.81,2.28l-7.52,3.09l-8.09,1.18l-4.36,4.73l-7.9,2.02l-3.19-1.79l-0.71-1.95
		l-8.68,0.38l-1.86-0.779l3.17-3.021l1.12-8.479l-4.14-1.37l-2.75-4.73l-9.91-27.6l0,0l1.27-0.57l0,0l3.33,3.79l4.97,1.3l2.1,4.12
		l1.72-0.67l0.15,1.49l7.45-2.74l5.64-0.189l2.82-4.851l6.41-4.84l5.78-3.46l7.46-2.5l3.73,0.24l2.63-2.98l5.49-2.88l3.16-7.11
		l-3.97-3.369L141.18,711.53z"/>
	<path id="TD-MA" fill="#1E3250" stroke="#1E3250" stroke-width="0.5" d="M195.05,688.47l3.18,2.61l2.17,4.53l4.64,0.609l2.99,6.771
		l8.88,4.64l9.02,1.101l-4.35,7.149l-5.41,3.29l1.11,5.53l2.03,2.83l0.11,8.92l2.54,2.569l2.91,9.891l-0.38,6.32l2.11,9.06l0,0
		l-8.7,0.479l-5.27,2.431l-11.95-1.16l-2.64,2.68l-3.31,0.271l-1.54,2.52l-2.26-1.21l-8.79,4.33l0,0l-8.41-15.7l5.02-1.239
		l3.92-6.671l-11.9-16.09l4.59-6.29l-0.38-15.189l0,0l4.2-4.23l-7.02-4.569l7.31-5.301v-4.76l1.39-1.06l-2.3-4.05l13.15-3.131
		L195.05,688.47z"/>
	<path id="TD-MC" fill="#1E3250" stroke="#1E3250" stroke-width="0.5" d="M297.77,640.67l-3.25,14.44l2.73,1.06l-2.1,5.36l0.28,2.84
		l-1.96,1.45l3.25,5.06l14.55,41.74l0,0l-2.78,1.66l-7.03,0.1l-5.17,1.82l-4.51-0.92l-13.16,1.54l-4.01-1.13l-10.79,2.51l-6.22,6.09
		l2.09,0.27l0.17,1.921l2.03-0.11l8.12,6.63l-2.69,1.63l-1.13,3.99l-5.76,6.24l0.11,1.63l-2.29,2.359l-1.23-0.29l0.03,2l-2.23,2.15
		l-6.58,2.63l-2.33,7.36l-19.31,1.59l0,0l-2.11-9.06l0.38-6.32l-2.91-9.891l-2.54-2.569l-0.11-8.92l-2.03-2.83l-1.11-5.53l5.41-3.29
		l4.35-7.149l-9.02-1.101l-8.88-4.64l-2.99-6.771l-4.64-0.609l-2.17-4.53l-3.18-2.61l0,0l1.77-3.66l-10.04-7.369l0,0l7.75-30.15l0,0
		l15.34-2.23l4.68,4.83l5.02,2.271l4.64,0.2l5.98,4.05l9.89,3.67l6.98,7.76l-0.48,5.12l7.74,1.92l1.49-5.25h12.09l3.97-8.06
		l2.24,0.439l0.34-1.979l6.69-5.41l-0.52-2.17l4.11-6.03l3.15-1.31l4.21,0.87L297.77,640.67z"/>
	<path id="TD-ME" fill="#1E3250" stroke="#1E3250" stroke-width="0.5" d="M74.57,616.29l9.44-5.66l7.94-0.14l1.96,7.31l5.06,5.851
		l14.15,7.01l9.94,2.08l3.3-0.721l1.53,2.9l-0.95,18.98l3.1,5.06l0,0l2.11,1.41l1.19,7.189l-5.97,10.631l-8.3,7.14l-2.39,0.31
		l-3.49-2.939l-4.13,0.42l-4.3,9.83l-4.74,4.09l-6.93,10.06l0,0l-13.54-7.09l-2.31-3.91l-0.41-4.97l-2.62-2.78l0.39-2.989
		l-4.02-1.771l-9.61,1.38l-1-13.56l0,0l5.16,1.28l7.15-3.69l5.54,1.79l1.5-1.48l3.81,1.45l1.12-1.54l9.51,3.05l11.89-2.5l-9.44-6.46
		l-4.43-6.369l-3.98-2.721l-3.31-7.89l-4.55-3.26l0.42-5.23l-4.07-7.68l1.08-4.21L74.57,616.29z"/>
	<path id="TD-MO" fill="#1E3250" stroke="#1E3250" stroke-width="0.5" d="M50.17,668.84l9.8,2.57l0,0l1,13.56l9.61-1.38l4.02,1.771
		l-0.39,2.989l2.62,2.78l0.41,4.97l2.31,3.91l13.54,7.09l0,0l0.96,7.17l0,0l-2.58,1.341l-1.44,13.17l-3.82,4.66l-0.22,8.649l0,0
		l-1.27,0.57l0,0l-1.83-6.76l-4.81-3l-5.67-0.2l-0.05-2.17l-3.66-1.59l-0.61-2.561l-6.9-0.54l-11.65-10.2l-0.79-2.859l-5.38-5.05
		l0.24-4.41l-3.27-3.761l-3.2-1.189L26.22,686.06l0.79-4.359l6.14-7.05l2.03-5.101L50.17,668.84z"/>
	<path id="TD-ND" fill="#1E3250" stroke="#1E3250" stroke-width="0.5" d="M68.48,561.34l2.62-0.91l4.21,0.92l0,0l5.31,7.58
		l-1.1,4.181l-2.4-0.32l0,0l-2.25-1.68l1.02-0.851l-1.1-2.649l-1.37-0.79l-2.02,0.989l-3.41-2.92L68.48,561.34z"/>
	<path id="TD-OD" fill="#1E3250" stroke="#1E3250" stroke-width="0.5" d="M314.94,470.77l8.55-10.63l5.55-4.27l6.16,0.49l5.74-1.86
		l11.47,4.61l7.6,8.18l4.93,1.18l3.15,4.16l3.78,0.25l8.79-4.27l11.19,1.67l25.74,8.62l0,0l-5.68,7.35l1.59,1.62l1.06,5.42
		l3.62,3.55l-0.04,4.75l3.021,4.98l-7.15,8.88l-5.79,1.54l-4.2,4.359l-4.13,11.95l0,0l-7.56-2.89l-9.42,4.04l-6.02,6.38l-4.26-1.22
		l-8.7,1.8l-7.41-2.87l0.43-5.16l-1.24-2.58l-7.22-1.71l-0.05-6.29l-10.66,0.25l-8.69-2.29l0,0l0.28-17.67l-4.64-9.38l1.34-6.94
		l-1.29-3.619l-10.13-6.21L314.94,470.77z"/>
	<path id="TD-SA" fill="#1E3250" stroke="#1E3250" stroke-width="0.5" d="M307.48,570.34l0.72,3.88l4.3-1.06l0.38-2.19l13.58-0.39
		l38.05,19.17l-0.15,4.56l40.78-7.659l3.391,2.229l6.83,1.16l14.439,30.94l0,0l-14.97,5.77l-3.71-0.96l-5.45,1.82l-3.79-0.57
		l-2.31,1.47l-2.11,2.17l0.01,6.051l-1.439,1.319l-1.19-0.569l-0.77,7.06l2.56,4.64l-2.29,3.12l0.24,2.19l-2.47,1.14l-0.39,2.24
		l-6.29,0.229l-7.25,11.351l-2.13,1.35l-4.13-1.29l-6.64,9.57l-4.05,0.86v2.199l-1.7-0.899l0.45,2l-1.75,0.16l1.48,0.84l-0.24,1.89
		l-1.27,0.15l1,1.05l-1.75,0.21l0.01,2.33l-1.15-0.15l-0.59,2.2l-1.94,0.1l-2.26,4.471l-1.39-0.62l-1.79,2.03l-4.49,0.14l-2.07,3.06
		l0.68,0.811l-5.22-0.92l-4.51,8.81l-6.26,1.561l-9.65-1.69l-5.55,2.95l0,0l-14.55-41.74l-3.25-5.06l1.96-1.45l-0.28-2.84l2.1-5.36
		l-2.73-1.06l3.25-14.44l0,0l1.11-6.24l-0.91-7.54l1.43-1.84l-2.05-4.35l-10.28-2.271l-27.58-13.699l-1.34-7.08l1.34-10.42
		l7.31,0.14l1.58,4.32l6.07-1.841l6.02-10.529l-1.34-6.16l7.27-6.851l5.5,1.94L307.48,570.34z"/>
	<path id="TD-SI" fill="#1E3250" stroke="#1E3250" stroke-width="0.5" d="M329.09,520.76l8.69,2.29l10.66-0.25l0.05,6.29l7.22,1.71
		l1.24,2.58l-0.43,5.16l7.41,2.87l8.7-1.8l4.26,1.22l6.02-6.38l9.42-4.04l7.56,2.89l0,0l1.271,4l3.6,4.09l9.33-1.479l2.811-2
		l0.13-2.11l12.45,6.141l-4.141,9.279l2.4,2.221l3.069,9.989l0.12,4.95l-1.5,2.62l8.69-1.04l-4.03,17.17l0.54,3.561l4.601,5.1
		l4.399,1.95l1.66,3.49l7.47-0.681l1.95,10.54l-5.01,13l-12.86-3.2l-7.04,0.091l0,0l-14.439-30.94l-6.83-1.16l-3.391-2.229
		l-40.78,7.659l0.15-4.56l-38.05-19.17l-13.58,0.39l-0.38,2.19l-4.3,1.06l-0.72-3.88l0,0l-0.81-1.89l5.35-14.88l3.87-5.301l3.44-1.8
		l-1.91-4.04l2.87-5.5l3.35-1.8l-0.67-1.75l-8.85-6.58l0,0l13.67-3.22L329.09,520.76z"/>
	<path id="TD-TA" fill="#1E3250" stroke="#1E3250" stroke-width="0.5" d="M130.04,658.96l13.82,0.44l4.83-3.131l1.86,1.49
		l-0.19,3.04l2.05,4.83l3.64,0.86l1.81,2.08l5.79,0.96l2.15,2.17l10.61,1.21l1.15,2.359l3.25,1.49l5.97,0.681l0,0l10.04,7.369
		l-1.77,3.66l0,0l-3.34-2.12l-13.15,3.131l2.3,4.05l-1.39,1.06v4.76l-7.31,5.301l7.02,4.569l-4.2,4.23l0,0l-7.08,1.35l-10.23-1.01
		l-10.94-3.95l-5.55,1.69l0,0l0,0l0,0l-3.01-6.11l-7.17,4.37l-2.73,3.61l-8.26-2.4l-2.63,3.27l-5.26,1.051l-7.98-1.051l-3.78,1.82
		l-6.31-1.82l0,0l-0.96-7.17l0,0l6.93-10.06l4.74-4.09l4.3-9.83l4.13-0.42l3.49,2.939l2.39-0.31l8.3-7.14l5.97-10.631l-1.19-7.189
		L130.04,658.96z"/>
	<path id="TD-TI" fill="#1E3250" stroke="#1E3250" stroke-width="0.5" d="M72.77,23.2L120.68,0l146.88,74.81l0,0l-7.35,3.2
		l-0.05,2.62l-6.4,8.85l-1.53,16.45l-6.31,4.85l-5.46,6.53l-6.12,2.91l-9.56,1.22l-5.58,3.05l-4.78,7.94l-7.36,6.55l0.52,6.71
		l3.73,3.8l2.82,8.58l-1.72,5.57l2.87,12.75l-2.59,4.76l-2.77,1.52l-5.55-6.37l-1.19-3.95l-8.75-8.35l-0.91-6.89l3.4-3.55v-2.79
		l-5.31-3.25l-1.91,0.91l-1.72,3.35l-0.81,7.81l-7.08,14.27L97.52,323.12l0,0l3.83-82.7l7.27-59.36l11.94-22.15l-19.38-21.62
		l-2.1-5.39l3.79-4.21l-16.11-23.91l-4.31-3.01l-0.31-25.51L72.77,23.2z"/>
	<path id="TD-WF" fill="#1E3250" stroke="#1E3250" stroke-width="0.5" d="M351.84,389.06l14.34-9.42l10.75,3.801l18.5-5.141
		l10.76,2.181l7.359-2.381l9.51,3.811l4.301-1.48l5.26,1.431l1.2,3.85l2.529,0.74l9.37-2.22l4.87,2.119l4.4-1.08l6.67,5.45l0,0
		l-9.82,8.391l0.2,3.71l3.19,3.29l0.13,7.939l-3.25,3.51l0.399,2.87l-3.319,1.2l-5.44,5.46l0.01,3.41l-3.939,2.16l2.199,8.229
		l-14.789,4.69l-1.29,4.37l3.029,1.189l0.681,7.53l-1.61,1.8l2.44,2.95l3.77,0.11l0.87,2.63l-1.91,2.82l-9.95,5.27l-5.67,4.65l0,0
		l-25.74-8.62l-11.19-1.67l-8.79,4.27l-3.78-0.25l-3.15-4.16l-4.93-1.18l-7.6-8.18l-11.47-4.61l-5.74,1.86l-6.16-0.49l-5.55,4.27
		l-8.55,10.63l0,0l-0.91-81.6l0,0l13.19,6.16l8.51-1.87l5.02,1.82L351.84,389.06z"/>
</g>
</svg>
