<?xml version="1.0" encoding="utf-8"?>
<!-- Generator: Adobe Illustrator 15.0.0, SVG Export Plug-In . SVG Version: 6.00 Build 0)  -->
<!DOCTYPE svg PUBLIC "-//W3C//DTD SVG 1.1//EN" "http://www.w3.org/Graphics/SVG/1.1/DTD/svg11.dtd">
<svg version="1.1" id="Layer_1" xmlns:amcharts="http://amcharts.com/ammap"
	 xmlns="http://www.w3.org/2000/svg" xmlns:xlink="http://www.w3.org/1999/xlink" x="0px" y="0px" width="781.347px" height="768px"
	 viewBox="0 0 781.347 768" enable-background="new 0 0 781.347 768" xml:space="preserve">
<defs>
	
	
		<amcharts:ammap  projection="mercator" bottomLatitude="-13.457269" leftLongitude="12.205002" topLatitude="5.387319" rightLongitude="31.307098">
		</amcharts:ammap>
</defs>
<g>
	<path id="CD-BC" fill="#1E3250" stroke="#1E3250" stroke-width="0.5" d="M100.363,389.892l-0.604,0.689l1.977,2.729l1.669,0.937
		l-1.937,3.183l-1.925,0.182l-1.244,1.502l1.239,1.22l0.148,1.602l1.677,0.662l-1.075,5.792l0.579,3.487l2.83-1.89l2.603,0.658
		l3.403,2.214l1.7-0.228l5.229-3.1l3.292-5.899l7.486-7.224l1.641-2.658l0,0l3.872,5.821l4.129,3.296l1.379-0.446l0.392-3.137
		l1.529-1.361l9.207,0.627l-1.098,3.105l3.552,1.808l0.234,1.329l-1.313,5.445l-3.583,1.223l-0.45,0.895l4.11,3.733l5.312,0.713
		l1.237-4.5l4.237,3.5l10.554,0.105l0,0l-0.994,2.746l0.396,5.469l-1.56,7.323l0.342,10.297l-1.686,4.079l-2.803,1.907l-0.779,1.555
		l0,0l-43.395-0.009l-10.138,0.294l-3.992,1.12l-3.304-0.762l-10.66-0.044l-2.087-1.06l-5.343,0.866l-1.992-1.634l-6.03,1.283
		l-16.651-0.177l-1.408,1.159l-4.275-1.363l-4.805,1.371l-2.898-1.166l-8.48,3.898l-2.787,0.201l-11.552,3.948l-0.672-1.677
		l1.228-0.277l1.014-1.981l-3.585,0.352l0.127,1.481l-2.453-3.922l-4.386-4.282L16,445.28l2.268-0.996l10.348-0.362l0.09-22.869
		l-2.56-1.852l0.327-0.748l1.913-0.052l3.836-1.76l0.406-2.723l2.999-0.054l0.473-1.783l2.699-2.177l1.508-3.479l8.432-2.933
		l1.482,0.409l0.184-3.385l0.925-0.546l4.089,3.566l1.984,3.506l3.384,1.04l0.248,2.615l2.131,2.02l-0.368-1.944l2.423,0.054
		l0.868-1.553l3.214-0.608l1.567-2.843l2.11,1.104l-0.201-2.167l1.699-0.102l-0.756-2.219l1.563-3.571l-0.847-2.684l0.391-1.499
		l3.105-0.996l2.469,3.012l2.927,0.649l2.541-3.574l5.862-0.965l4.295-2.854l2.614-0.415l0.322-0.943l1.557-0.394L100.363,389.892z
		 M26.606,453.462l-0.698,1.271l-1.963,0.318l0.438-1.235L26.606,453.462z"/>
	<path id="CD-BU" fill="#1E3250" stroke="#1E3250" stroke-width="0.5" d="M580.824,30.725l4.732,8.58v1.461l-1.644,0.639
		l0.913,2.373L583,51.903l6.847,2.008l5.66-0.273l-3.286,10.589l-0.457,3.925l0.822,3.196l1.734,2.008l0.091,3.561l2.739,2.008
		l1.643,9.494l-0.73,2.921l-2.19,2.374l-1.644,5.185l1.552,1.917l2.465,0.274l2.282-2.191l3.744-0.091l3.925-1.187l1.734,0.821
		l0.639,1.644l-0.821,5.842l0.548,2.191l-4.017,1.644l-0.457,1.825l3.104,1.187l0.912,3.378l-4.747,0.365l-3.742,2.556l-3.104,0.73
		l-6.755-5.568l-2.191-0.274l-2.1,4.564l-4.107,3.196l-2.83,4.929l1.095,1.004l4.474-1.004l3.104,0.091l1.644,1.005l-0.274,4.655
		l0.913,4.108l-4.655,8.217l-0.84,5.873l0,0l-2.283-0.548l-2.19-6.208l-1.096-1.095l-4.199-0.366l-1.369-1.004l-4.93,1.917
		l-0.821,2.283l-2.465,1.095l-1.442-0.365l-1.369-2.1l-1.827,1.735l-2.099-0.183l-1.552-1.826l0.639-6.39l-0.548-3.378l-2.008-0.273
		l-2.374,1.734l-7.942,2.373l-2.647,2.283l-3.56-1.552l-2.647,0.183l-3.926,2.373l-2.647,0.456l-3.378-0.182l-9.95-4.838
		l-1.917-0.183l-2.739,2.465l-1.552,0.365l-2.83-1.004l-26.4-0.366l-8.764,2.191l-1.918,2.922l-3.194,1.825l-8.582-2.008
		l-2.647-1.826l-3.252-0.586l0,0l-0.64-7.212l-1.004-2.374l-2.008-1.826l-2.101-0.365l-2.282-2.282l-1.095,0.457l-0.913,2.373
		l-2.374,0.365l-6.755-2.647l-5.935-3.652l-1.552-2.556l-0.364-2.738l2.921-2.283l3.013-5.642l0.091-1.552l-1.733-1.46l-2.101-0.365
		l-1.461,0.182l-2.83,2.283l-1.733-0.822l-1.826-3.743l-6.847-1.278l0,0l2.485-3.85l0.512-4.747l3.797-3.36l5.843-2.921l6.208-1.899
		l7.084-6.646l6.719,3.068l3.506-1.68l0.876-1.315l-0.292-1.679l-1.68-0.584l-2.045-0.146l-1.753,1.095l-8.909-2.41l-8.618,1.169
		l-4.674-0.512l-0.511-2.483l1.241-2.994l-2.191-1.242l-2.191-2.775l-8.47-1.308l0,0l2.592-2.34l-0.322-2.025l1.045-2.071
		l1.927-1.07l0.024-1.04l-1.324-0.852l0.523-2.749l3.832,0.001l1.558-5.863l1.686-3.043l0.985-0.795l2.179,0.665l1.415-1.888
		l-0.575-1.048l0.73-1.278l2.325-0.763l1.75,3.232l2.584,1.45l1.278,0.288l2.237-1.158l3.512,2.85l0.671,1.462l5.396,1.403
		l0.384-2.344l5.804-3.17l4.882-1.891l2.362,0.104l2.413-1.905l0.679,0.713l1.577-0.838l2.214,0.889l0.386-2.592l0.626,0.802
		l4.381-2.073l2.696,0.589l2.914-2.474l1.52,0.864l-0.036-1.696l0.897-0.83l2.958-0.207l1.362-0.877l-0.483-0.854l-1.547-0.248
		l1.463-2.018l1.465,2.05l0.76-1.714l3.088,0.897l1.189,1.696l1.853,0.221l0.74,2.121l1.579,0.214l-0.609,1.915l2.413-0.168
		l0.532,0.675l2.185-0.026l1.202-1.239l2.133,0.062l0.474-0.919l1.647,0.021l2.548-1.488h5.239l0.681-1.083l1.423,0.938l4.869-1.242
		l1.432-4.325l-0.884-0.279l-0.394-1.48l1.354-3.496l1.038-0.524l-0.637-0.598l2.362-0.193l2.216-1.736l0.938,0.844l1.393-0.41
		L528.351,19l2.941,1.481l0.047,0.997l1.339-0.252l1.926,1.184l1.551,2.315l1.662-1.38l1.667,3.292l0.429-0.962l1.41-0.26
		l0.816,2.052l0.174-1.349l2.089,0.329l0.815-1.836l0.99,1.206l2.188,0.54l2.63-2.678l0.943,0.209l-0.033,1.014l1.843-0.189
		l1.757,1.495l0.028,1.013l5.239,0.923l3.729,3.871l1.489,0.085l0.271-0.882l1.56,0.147l0.026-0.671l3.631,0.135l3.083-1.002
		l0.864,0.069l1.37,2.016l0.897-0.389l1.562,0.976L580.824,30.725z"/>
	<path id="CD-ET" fill="#1E3250" stroke="#1E3250" stroke-width="0.5" d="M311.723,147.832l-2.191,3.628l-24.99,13.283l0.342,8.011
		l8.627-3.56l9.64-6.162l12.256-4.383l7.531-1.574l10.75,3.629l7.736-1.507l0.617,0.616l-0.069,2.671l-1.848,5.874v2.876
		l1.917,3.766l-0.137,3.971l0,0l-5.135-1.917l-4.314,6.093l-1.437,10.133l1.232,3.561l-5.341,12.187l1.78,3.259l8.08,6.093
		l0.547,1.575l-0.89,1.096l-3.218,1.574l0.343,1.575h3.423l0.548,0.754l-0.548,1.437l-7.189,3.013l-1.232,2.054v2.054l-3.287,1.506
		l-1.369-1.232l0.137-3.355l-2.397-1.506l-2.465,0.41l-0.547,1.165l-1.438,0.342l-1.37-1.507l-2.464,0.069l-1.849-0.89l-1.712,0.479
		l-0.89,1.575l0.89,1.095l2.055,0.137l6.23,6.231l2.602,6.353l4.655,5.136l-0.821,4.655l-3.56,6.779l0.274,2.054l-3.218,3.081
		l-12.53,3.423l-2.259-1.917l-0.48-5.203l-1.643-0.754l-1.027,1.164l-0.274,6.505l-2.464,2.67l-3.821,6.493l0,0l-4.519-11.092
		l-3.971-3.149l-0.822-5.889l-3.491-4.929l-4.04,2.738h-6.778l-1.986,1.438l-0.89,3.15l5.067,7.463l-0.041,1.712l-4.998-1.849
		l-0.411,1.437l1.301,1.37l-0.138,1.369l-9.311,0.411l-9.586-6.367l-2.122-0.411l-1.712,0.821l-1.711,3.287l-4.382,4.519
		l-3.629,2.054l-11.694,3.697l-6.025,2.807l-11.229,9.092l-2.807,1.233l-9.722-0.89l-1.575,0.753l0.068,1.095l4.861,1.781
		l0.685,1.643l-0.958,3.56l-9.517,0.89l-2.396-1.164l-2.869-6.313l0,0l12.023-21.73l5.03-4.281l5.171-2.942l4.843-1.036l3.983-2.162
		l5.812-5.78l8.34-11.383l1.237-6.092l-1.082-9.647l2.216-4.888l-0.513-0.691l0.659-3.414l1.766-4.121l3.921-3.824l1.412-2.782
		l-0.189-3.86l-3.027-3.986l0.73-6.893l-1.935-5.499l0.2-3.559l3.52-5.8l1.325-6.632l3.522-6.99l0.771-5.975l-1.147-5.462
		l1.32-5.385l-0.32-1.631l0,0l17.26,0.08l5.532,2.848l1.808-0.165l12.718-6.967l5.094-0.931l11.667,3.834L311.723,147.832z"/>
	<path id="CD-HK" fill="#1E3250" stroke="#1E3250" stroke-width="0.5" d="M683.279,545.546l-26.034,3.771l2.381,6.246l-2.587,6.117
		l-7.718,9.245l-10.675,7.257l-2.076,3.326l-0.087,2.641l2.132,1.686l1.805-0.648l1.643-1.909l0.787,0.282l-0.441,3.198l2.082,1.827
		l0.603,3.434l1.136,0.854l0.342,4.961l1.698,1.016l1.107,1.933l-0.987,0.576l-1.782,5.273l-0.121,7.745l-1.714,2.853l2.274,2.927
		l-0.565,2.702l0.813,2.39l-0.336,3.146l1.427,1.639l-0.206,2.271l1.188,1.688l-1.334,2.191l-1.998,0.262l-0.251,1.631l-1.92,2.513
		l-0.606,4.3l-1.135,1.242l-1.239,5.07l0.796,2.987l-1.861,5.567l0.394,1.785l-1.22,0.537l-0.288,2.378l-0.969,1.115l-0.485,4.308
		l1.908,2.356l-0.51,1.244l0.648,0.861l-0.775,1.014l1.255,1.696l-0.324,2.391l1.657-0.142l0.847,2.042l4.256,1.3l0.976,1.538
		l3.11,1.504l1.474-0.014l0.729,2.537l6.479,6.11l3.831,6.748l3.172,0.414l5.283-1.216l1.101,1.753l2.709,0.148l5.121,2.228
		l1.459-1.853l-3.122-3.477l1.271-3.706l3.3-1.785l3.532,0.562l5.371-1.98l0.077,50.826l-1.232-0.713L688.374,743l-3.907-1.839
		l-0.231-1.781l1.831-0.513l0.053-2.419l1.1-0.941l-0.461-1.497l-1.354,0.469l-1.768-0.968l-2.343,0.548l-3.312,3.379l-2.94,0.495
		l-0.635,0.851l-1.256-0.637l-0.647,1.699l-4.474,2.658l-2.352-2.874l-4.525,1.808l-3.846-9.956l-2.174-0.659l-0.761-5.26
		l-2.738-2.839l-1.137-2.423l-2.827-2.261l-1.008,0.06l-2.069,2.85l-1.688-3.611l-2.425-2.611l-0.362-1.39l2.031-0.759l0.55-1.763
		l-2.991-2.771l-0.145-1.843l-4.865-3.796l-3.063,0.142l-2.342-1.559l-1.913,2.058l-1.869-3.229l-3.314-0.549l-1.313,0.591
		l-1.44-4.429l-3.815-0.409l-0.038,1.157l-2.277,1.16l-4.869-0.544l-0.696-2.004l-1.866-0.554l-1.91-2.054l-0.677-3.53l-1.146-1.262
		l-0.163-4.163l-8.878-5.503l-1.01-8.506l-1.871,1.229l-4.942,0.442l0.776,3.397l-1.552,2.685l-0.025,3.1l-4.761,5.37l-2.143,0.342
		l-2.039-1.167l-2.168,1.771l-4.479-1.456l-1.632,0.301l-4.408-2.498l-4.391,1.987l-4.533-1.504l-8.541,0.51l-0.1-1.66l-2.616-0.918
		l-1.477-2.891l-2.184,1.08l-4.03-0.482l-2.445-3.218l0,0l-1.148-2.858l2.245-1.917l1.479-3.834l2.081-2.137l-0.603-4.819
		l2.246-2.739l-0.657-4.984l5.148-7.088l6.573,0.712l2.026-2.629l1.589-0.438l1.369,0.602l3.176,6.902l3.89-6.354l4.656-0.985
		l2.465-5.532l-1.205-2.191l-1.644-0.985l0.876-2.301l-2.684-2.41l-0.603-2.246l4.272-1.094l9.366,0.218l1.862,0.821l1.862,3.342
		l0.986,0.219l5.478-1.26l3.012-2.793l0.165-2.685l-6.737-6.792v-1.697l3.943-5.971l-0.548-1.753l-3.013-1.808l-3.725,1.15
		l-5.093-0.055l-15.173-3.55l-3.506,0.384l-0.821-2.629l2.136-3.67l0.384-2.903l0,0l1.588-3.725l3.561-3.396l1.096-6.737
		l-0.932-2.739l7.066-7.821l3.67-12.651l2.136-0.057l0.821,3.067l1.753,0.11l1.534-0.986l5.642-5.423l0.328-0.931l-1.095-1.15
		l-0.384-3.023l6.299-7.997l2.169-1.534l11.831-4.601l3.725-0.055l2.027,2.245l0,0l4.546,1.973l1.15,1.861l3.561,0.329l1.971,4.054
		l1.885,1.04l6.354-4.437l4.327-0.603l3.45-2.738l0.986-2.246l-0.165-1.808l2.958-4.491l0.055-2.738l-5.422-4.108l0.273-1.917
		l2.355-0.877l0.438-2.169l3.669-0.767l2.521,1.698l2.113,7.888l5.643,3.45l1.369-0.493l1.862-4.546l7.175,1.205l0.768-3.122
		l1.26-1.26l3.45,0.548l1.041-1.205l6.025-0.055l3.56,4.272l2.75-0.548l3.231,6.518l-0.493,2.082l-3.286,2.902l0.109,2.137
		l-1.533,3.746L683.279,545.546z"/>
	<path id="CD-HL" fill="#1E3250" stroke="#1E3250" stroke-width="0.5" d="M550.299,466.652l-0.254,1.171l0,0l-6.062,5.243
		l-0.584,5.332l3.359,1.606l2.191,6.28l-1.242,1.022l3.067,4.31l3.506,0.729l1.169,1.681l8.836,2.044l0.073,1.607l-3.549,3.681
		l-0.877,2.264l0.073,2.337l1.388,1.826l9.859,6.062l4.674,0.949l2.337,2.775l11.612-0.073l2.191-0.511l0.949-3.871l1.095-0.803
		l1.899,1.606l1.461,0.073l2.994-1.461l1.972,0.73l3.213-1.022l3.652,5.915l-0.73,2.922l1.314,4.966l3.359,0.949l1.898-0.876
		l0.95,0.438l0.657,1.972l-0.877,3.505l-4.374,5.446l0,0l-2.027-2.245l-3.725,0.055l-11.831,4.601l-2.169,1.534l-6.299,7.997
		l0.384,3.023l1.095,1.15l-0.328,0.931l-5.642,5.423l-1.534,0.986l-1.753-0.11l-0.821-3.067l-2.136,0.057l-3.67,12.651l-7.066,7.821
		l0.932,2.739l-1.096,6.737l-3.561,3.396l-1.588,3.725l0,0l-4.885,2.72l-5.363,0.57l-1.141-1.598l-3.31-0.114l-5.478-1.825
		l-6.391-5.363l-4.906-0.114l-1.027,1.598l2.168,8.9l-0.685,1.369l-6.048,1.712l-11.525,4.907l-0.913,0.912l0.571,2.169l-3.766,2.51
		l-1.826-0.456l-1.826-2.168l-2.624,0.57l-3.423-2.282l-4.451,3.195l-1.939-0.343l-0.799-1.825l-2.055-1.712l-2.168,3.537
		l-1.483-1.369v-1.598l-9.243,0.229l-1.484-1.369l0.571-1.256l-1.026-1.825l-1.94-1.37l-0.228-2.054l4.107-5.934l-0.229-2.967
		l1.256-3.994l-0.343-3.537l0.685-1.712l6.391-2.055l6.618,1.142l2.396-1.369l-8.102-5.249l-4.336-6.733l-5.935-1.141l-2.282-3.994
		l-1.825-1.141l-8.673-1.143l-2.054-1.026l-1.256-8.946l1.94-13.009l-2.282-7.646l0,0l1.918-1.985l1.368-3.423l2.191,1.095
		l1.233,1.78l3.696-1.917l1.095-2.19l-1.78-4.656l0.686-8.079l3.149-5.751l6.572-8.627l3.424-1.644l6.572,0.411l6.847-2.328
		l6.3-4.519l4.93-5.889l2.738-1.096l3.834-0.958l4.52,0.137l5.203,4.382l2.876-1.643l1.917-4.383l-0.685-2.054l-5.341-3.834
		l-0.821-1.506l0.821-4.108l0.958-1.096l1.644-0.548l4.519,0.685l5.478-1.232l4.52-2.19l2.602-2.602l2.738,0.137l1.507,3.286
		l1.233,0.411l0.82-1.507l1.506,0.138l0.411,1.643L550.299,466.652z"/>
	<path id="CD-HU" fill="#1E3250" stroke="#1E3250" stroke-width="0.5" d="M720.877,87.51l-6.203,0.942l-1.096,2.994l1.096,2.264
		l-1.972,7.012l-1.607,2.629l-4.966,4.309l-0.876,2.264l0.072,3.651l2.337,1.972l-1.387,2.921v2.483l1.533,2.338l-0.511,2.482
		l-2.483,4.31l-1.022,4.016l-1.753,0.365l-2.41,4.061l-2.191,0.292l-2.848,3.944l1.241,1.825l-0.729,2.411l-1.899-0.658
		l-2.849-3.943l-5.916-2.265l1.607-3.14l-0.584-6.426l-1.388-0.95l-2.702,0.365l-5.258,2.191l-2.557,0.146l-1.461-1.169l-1.68-3.505
		l-1.387,0.438l-1.534,3.506l-6.865,1.095l-0.657,3.871l-2.482,0.949l-3.36-0.365l-4.017-1.899l-1.022,1.023l2.556,1.607l0.804,1.46
		l-0.292,1.461l-1.606,0.219l-3.067-1.315l-2.425-3.651l-1.972,0.292l-3.725,2.191l-1.898-1.169l-0.585-1.46l-1.533,0.365
		l-0.584,14.387l-1.534,2.995l-1.533,1.168l-2.045,4.674l-1.314,0.803l-4.383-1.68l-3.505-0.292l-6.062-4.089l-6.646,1.241
		l-1.314-0.511l-1.096,0.949l0.438,2.337l2.264,3.141l0.22,2.921l4.162-0.949l1.68,0.511l0.95,1.315l-0.731,4.089l-7.156,0.073
		l-1.68-3.578l-1.388-0.731l-2.894,0.797l0,0l-0.412-0.606l0,0l-1.004-0.913l-6.938-0.091l-0.183-1.369l0.64-0.913h1.46l1.734-3.926
		l1.826-1.825l-0.913-2.94l2.1-1.643l-1.276-3.469l-4.84-1.005l-1.004,4.656l-1.461,0.365l-2.647-0.182l-2.556-1.369l0,0l0.84-5.873
		l4.655-8.217l-0.913-4.108l0.274-4.655l-1.644-1.005l-3.104-0.091l-4.474,1.004l-1.095-1.004l2.83-4.929l4.107-3.196l2.1-4.564
		l2.191,0.274l6.755,5.568l3.104-0.73l3.742-2.556l4.747-0.365l-0.912-3.378l-3.104-1.187l0.457-1.825l4.017-1.644l-0.548-2.191
		l0.821-5.842l-0.639-1.644l-1.734-0.821l-3.925,1.187l-3.744,0.091l-2.282,2.191l-2.465-0.274l-1.552-1.917l1.644-5.185l2.19-2.374
		l0.73-2.921l-1.643-9.494l-2.739-2.008l-0.091-3.561l-1.734-2.008l-0.822-3.196l0.457-3.925l3.286-10.589l-5.66,0.273L583,51.903
		l1.644-6.025l0.183-2.1l-0.913-2.373l1.644-0.639v-1.461l-4.732-8.58l0,0l0.879-2.073l6.801-2.778l12.268,4.94l0.365,2.137
		l2.999,1.811l0.521,1.862l1.582,1.407l3.208-0.075l2.16,4.036l1.729-0.187l0.596,0.742l0.369,6.673l1.858,0.466l1.385,1.415
		l2.378,0.151l0.348-0.923l3.944,0.775l-0.383,2.685l1.662,2.562l1.266-1.158l0.924,0.19l-0.007,1.612l2.65,1.774l5.762-0.079
		l1.061,2.868l3.041-0.408l2.008-3.205l2.574-0.207l0.959-1.528l2.308-0.199l1.317-2.443l-0.305-0.776l3.439-2.079l1.991,3.226
		l5.586-0.058l1.307-0.662l2.724,1.531l-0.111,0.915l2.165,0.171l2.721,3.284l1.569-0.246l0.037-1.594l2.879,0.07l1.41-2.942
		l1.943-0.835l1.12-1.552l0.062-1.348l1.241-1.27l-0.317-2.839l1.346-0.882l0.996,1.337l3.465-0.242l3.584,1.706l1.195,1.743
		l1.122-0.46l1.994,0.921l-0.842,7.289l1.586,1.208l2.056-0.365l1.869,1.202l0.834,1.432l-0.601,1.634l3.465,1.755l1.565,2.909
		l2.949,0.603l0.111,1.605l1.633,1.824l0.826,2.673l1.96-0.724l7.65,3.707l2.834-0.334l1.473,7.186L720.877,87.51z"/>
	<path id="CD-IT" fill="#1E3250" stroke="#1E3250" stroke-width="0.5" d="M601.195,165.83l2.894-0.797l1.388,0.731l1.68,3.578
		l7.156-0.073l0.731-4.089l-0.95-1.315l-1.68-0.511l-4.162,0.949l-0.22-2.921l-2.264-3.141l-0.438-2.337l1.096-0.949l1.314,0.511
		l6.646-1.241l6.062,4.089l3.505,0.292l4.383,1.68l1.314-0.803l2.045-4.674l1.533-1.168l1.534-2.995l0.584-14.387l1.533-0.365
		l0.585,1.46l1.898,1.169l3.725-2.191l1.972-0.292l2.425,3.651l3.067,1.315l1.606-0.219l0.292-1.461l-0.804-1.46l-2.556-1.607
		l1.022-1.023l4.017,1.899l3.36,0.365l2.482-0.949l0.657-3.871l6.865-1.095l1.534-3.506l1.387-0.438l1.68,3.505l1.461,1.169
		l2.557-0.146l5.258-2.191l2.702-0.365l1.388,0.95l0.584,6.426l-1.607,3.14l5.916,2.265l2.849,3.943l1.899,0.658l0.729-2.411
		l-1.241-1.825l2.848-3.944l2.191-0.292l2.41-4.061l1.753-0.365l1.022-4.016l2.483-4.31l0.511-2.482l-1.533-2.338v-2.483
		l1.387-2.921l-2.337-1.972l-0.072-3.651l0.876-2.264l4.966-4.309l1.607-2.629l1.972-7.012l-1.096-2.264l1.096-2.994l6.203-0.942
		l0,0l4.179-1.543l2.579,0.462l1.418-1.927l1.069,3.222l2.409,1.044l-0.325,2.933l3.199-0.868l0.036,3.993l-1.932,2.414
		l-0.646,2.319l-1.245,0.658l-1.686,7.42l-1.013,0.657l3.457,3.448l1.234,3.95l-1.188,3.235l-1.4,0.911l-1.721,5.579l-1.069,0.665
		l0.06,6.362l1.009-0.725l2.095,0.82l1.899,2.918l1.121,0.341l1.178-0.452l0.482-2.164l1.36-0.222l3.194,2.291l0.462,1.346
		l-0.602,0.217l2.134,1.485l3-1.065l0.005,2.803l3.94,2.442l-0.004,1.549l-10.658,14.005l-10.681,8.478l-7.693,9.971l-1.15,0.004
		l-2.572,2.451l-2.411,0.434l-1.152-0.559l-0.937,1.956l-2.368-0.591l-1.477,1.313l-0.614,4.446l-2.465,4.977l-5.091,0.799
		l-2.048,1.957l0,0l-2.236,0.106l-2.154-4.235l-1.059-0.22l-3.542,2.483l-2.248-0.814l-3.518,0.18l-0.427,0.869l-5.529,0.935
		l-6.212,8.682l-4.163-1.972l-5.718,3.323l-12.963,0.219l-4.638,1.862l-6.705-5.988l-3.249-1.023l-4.711,0.439l-5.733,1.935l0,0
		l-1.392-1.356l-1.734-4.2v-2.008l1.278-1.552l0.183-1.917l-1.917,0.091l-1.096-0.913l0.639-3.925l-6.664-1.187l1.187-6.664
		l-0.366-1.643l-2.646-1.644h-4.838l-3.743-6.025l0,0L601.195,165.83z"/>
	<path id="CD-KG" fill="#1E3250" stroke="#1E3250" stroke-width="0.5" d="M303.769,468.452l0.577,8.227l0,0l8.49,10.134l1.634,5.668
		l0,0l-16.659,0.03l0.73,2.229l-2.582,4.629l-0.323,5.22l0.279,2.095l1.933,3.428l-2.261,1.752l0.307,1.172l-0.777,1.301
		l-4.034,0.619l1.562,4.542l-1.831,4.275l0.436,7.063l-22,0.183l-0.793-3.021l-9.495-0.047l-0.192,3.068h-5.233l-0.592,1.054
		l-2.743-0.521l-0.397-0.988l-2.955,0.05l-4.562,1.955l0.083,2.269l-4.547,0.526l-1.617-1.169l-2.111-0.131l-3.384,1.229
		l-2.907-0.541l-6.176,1.179l-2.107-1.719l1.041-1.5l-1.875-1.692l0.157-1.888l-1.747-0.911l0.485-1.691l-1.161-0.534l0.26-1.045
		l-1.097-0.029l-0.559-1.898l-2.572-1.304l0.371-1.603l-1.544-1.053l0.394-2.346l-3.097-1.945l-0.793-3.029l-1.677-0.938
		l1.115-1.649l-1.543-1.027l-1.341,0.66l-0.021-2.941l-3.999-1.775l-0.65-2.665l-1.339-1.055l0.639-1.275l-1.618-3.694l1.528,0.011
		l0.187-3.394l-1.312-0.771l-0.035-3.691l-2.364-0.89l-1.746-5.05l-1.422-1.261l-0.661-3.404l-0.972-0.568l0.448-1.948l-1.371-1.06
		l0.278-1.033l-0.898-1.064l0.818-0.798l-1.496-0.585l-0.228-1.889l1.332-0.19l-0.454-4.623l0.788-1.6l-1.582-2.085l-1.697-0.47
		l0.093-1.059l-1.583-0.541l-0.269-6.412l-3.381-1.54l-2.625,0.681l-2.266-1.097l-11.197,0.23l0,0l0.779-1.555l2.803-1.907
		l1.686-4.079l-0.342-10.297l1.56-7.323l-0.395-5.469l0.994-2.746l0,0l-0.737-7.968l6.579-10.536l2.424-0.478l0,0l3.786,1.883
		l1.168-0.438l0.146-3.871l1.315-1.241l9.421-1.022l1.607,0.657l1.826,3.506l1.533,1.241l5.259,0.438l1.825-3.506l5.609-2.849
		l5.624-4.382l4.162,0.512l1.753,3.213l5.405-1.825l0.438,1.314l-0.658,1.461l-3.943,2.264l-0.876,1.534l0.365,3.066l-2.41,3.359
		l-3.871,8.399l-0.146,6.354l0.803,3.433l-0.219,2.482l-2.118,3.74v5.403l2.483,10.882l2.337,1.022l4.967-0.072l1.679-0.22
		l2.848-2.19l2.63-0.22l1.46,1.753l4.893,1.314l1.753,5.551l1.315,0.073l1.022-1.973l3.944,1.169l4.236-2.19l1.168,0.438l4.82,3.359
		l-0.365,3.066l6.208,1.097l0.307,4.382l4.016-0.292l1.315,0.729l0.438,3.506l2.483,2.41l2.191,0.22l1.972-0.877l5.77-4.309
		l0.73-1.532l2.044-0.074l3.798,0.803l0.074,1.534l-2.703,3.943l1.899,4.82l2.045-0.876l2.629-3.068l5.77,2.338L303.769,468.452z"/>
	<path id="CD-KN" fill="#1E3250" stroke="#1E3250" stroke-width="0.5" d="M157.945,375.608l2.217,1.367l6.007-0.413l3.469,0.806
		l7.209,3.953l2.67,4.281l1.651,0.894l1.398,2.168l0,0l-0.053,4.155l-1.898,4.104l0,0l-2.424,0.478l-6.579,10.536l0.737,7.968l0,0
		l-10.554-0.105l-4.237-3.5l-1.237,4.5l-5.312-0.713l-4.11-3.734l0.45-0.894l3.584-1.223l1.313-5.445l-0.234-1.329l-3.553-1.808
		l1.099-3.105l-9.207-0.627l-1.529,1.361l-0.391,3.137l-1.379,0.446l-4.13-3.296l-3.871-5.821l0,0l1.702-2.923l4.143-2.522
		l3.65,0.693l2.557-1.158l1.543-2.623l0.401-3.612l1.809-2.279L157.945,375.608z"/>
	<path id="CD-KO" fill="#1E3250" stroke="#1E3250" stroke-width="0.5" d="M469.338,447.978l0.037,7.732l5.021,1.597l0.912,2.055
		l-2.168,3.537l-2.625,0.114l-1.255,0.913l0.114,1.825l2.854,2.853v1.826l-4.565,0.457l-5.363-1.142l-1.255,1.369l-1.598,11.184
		l-1.598,1.255l-4.793,0.799l-1.712-0.455l-4.336-5.137l0.685-2.624l-1.141-0.799h-1.826l-7.075,3.195l-0.913-1.256l-0.228-3.194
		l-1.521,0.141l0,0l0.913-4.678l-2.738-2.282l0.228-4.793l-2.396-1.826l-1.712-4.906l0.456-5.706l-1.026-1.483l0.798-1.369
		l6.619-2.853l17.573,0.685l0,0l4.107,1.255l1.484-0.913l4.223,1.712l3.08-0.114L469.338,447.978z"/>
	<path id="CD-KS" fill="#1E3250" stroke="#1E3250" stroke-width="0.5" d="M354.657,319.715l1.233,1.027l2.122,0.206l10.818-1.302
		l0.822-0.41l-0.069-5.683l0.891-0.137l11.297,6.642l4.246,1.365l0,0l5.614,4.451l4.93,7.996l3.218,3.355l-3.492,5.066l-0.273,3.629
		l-6.505,12.803l0.137,2.533l1.301,1.232l5.409-0.685l1.301,1.438l0.479,2.602l-0.822,5.107l-5.751,4.725l0.342,1.096l6.916,2.259
		l3.834-0.821l1.643,0.685l2.465,3.218l5.957,3.902l0,0l-0.479,8.217l-3.56,6.024l-1.369,1.918l-4.656,0.685l-4.45,7.463
		l-3.155,2.266l1.826,1.461l0.292,1.461l-0.073,1.679l-1.899,3.142l-1.46,0.511l-1.388-1.096l-4.016-0.511l-0.95-1.388l-1.169,0.146
		l-1.46,1.607l-3.944-0.657l-1.022,1.241l-1.826,6.938l2.994,6.28l2.337,0.876l2.921-1.241l1.169,0.365l3.14,4.82l0.073,5.404
		l-3.432,5.623l-1.315,0.729l-1.46-0.438l-1.68-2.702l-1.242-0.438l-4.454,6.938l-1.023,7.011l1.68,9.407l-0.585,2.702l-2.044,2.556
		v1.972l2.994,0.438l3.067,2.775l-0.511,1.606l-1.387,0.438l-1.607-0.804l-2.556,2.922l-3.871,1.606l-0.949,1.753l9.421,9.129
		l4.083,6.598l0,0l-47.585-0.096l0.074-5.281l3.209-8.868l-11.913-0.017l-0.587,3.27l-12.452,0.023l0,0l-1.634-5.668l-8.49-10.134
		l0,0l-1.096-15.61l0,0l7.669-6.572l3.903-0.274l1.78-2.19l1.095-3.149l2.191-0.138l0.137-2.738l2.246-1.41l0.142-4.198
		l-1.461-5.258l1.534-11.904l-0.731-4.966l-2.775-6.281l-1.46-6.792l0.511-4.455l1.972-3.242l-0.219-1.753l-2.41-4.018l-0.366-2.774
		l0,0l4.032,0.981l4.176,3.354l3.835,0.137l1.643-3.149l4.656-1.301l4.587-4.039l0.89-7.121l-0.822-6.915l0.343-21.813l2.875-9.791
		l2.123-4.45l2.807-4.177l2.876-7.189l2.396-3.287L354.657,319.715z"/>
	<path id="CD-KU" fill="#1E3250" stroke="#1E3250" stroke-width="0.5" d="M317.008,388.954l0.366,2.774l2.41,4.018l0.219,1.753
		l-1.972,3.242l-0.511,4.455l1.46,6.792l2.775,6.281l0.731,4.966l-1.534,11.904l1.461,5.258l-0.142,4.198l-2.246,1.41l-0.137,2.738
		l-2.191,0.138l-1.095,3.149l-1.78,2.19l-3.903,0.274l-7.669,6.572l0,0l0.519,7.384l0,0l-3.174,0.114l-5.77-2.338l-2.629,3.068
		l-2.045,0.876l-1.899-4.82l2.703-3.943l-0.074-1.534l-3.798-0.803l-2.044,0.074l-0.73,1.532l-5.77,4.309l-1.972,0.877l-2.191-0.22
		l-2.483-2.41l-0.438-3.506l-1.315-0.729l-4.016,0.292l-0.307-4.382l-6.208-1.097l0.365-3.066l-4.82-3.359l-1.168-0.438l-4.236,2.19
		l-3.944-1.169l-1.022,1.973l-1.315-0.073l-1.753-5.551l-4.893-1.314l-1.46-1.753l-2.63,0.22l-2.848,2.19l-1.679,0.22l-4.967,0.072
		l-2.337-1.022l-2.483-10.882v-5.403l2.118-3.74l0.219-2.482l-0.803-3.433l0.146-6.354l3.871-8.399l2.41-3.359l-0.365-3.066
		l0.876-1.534l3.943-2.264l0.658-1.461l-0.438-1.314l-5.405,1.825l-1.753-3.213l-4.162-0.512l-5.624,4.382l-5.609,2.849
		l-1.825,3.506l-5.259-0.438l-1.533-1.241l-1.826-3.506l-1.607-0.657l-9.421,1.022l-1.315,1.241l-0.146,3.871l-1.168,0.438
		l-3.786-1.883l0,0l1.898-4.104l0.053-4.155l0,0l5.045-4.53l7.157-3.213l3.067-2.994l7.303,1.022l1.607-1.387l5.594-11.351
		l0.292-1.899l-1.899-5.258l2.849-4.527v-7.157l3.432,0.365l4.017,3.067l6.354,1.752l5.404,3.287l6.938-1.388l4.747,1.606
		l2.484-0.949l2.263,0.438l3.944,3.725l5.843,2.774l9.275,2.191l16.958,6.237l12.78,7.669l12.562,4.308l2.118,1.242L317.008,388.954
		z"/>
	<path id="CD-LB" fill="#1E3250" stroke="#1E3250" stroke-width="0.5" d="M437.597,523.156l-0.666,1.938l0,0l1.255,3.651
		l1.598,1.141l9.015,0.913l3.651-1.369l3.652,1.255l0,0l2.282,7.646l-1.94,13.009l1.256,8.946l2.054,1.026l8.673,1.143l1.825,1.141
		l2.282,3.994l5.935,1.141l4.336,6.733l8.102,5.249l-2.396,1.369l-6.618-1.142l-6.391,2.055l-0.685,1.712l0.343,3.537l-1.256,3.994
		l0.229,2.967l-4.107,5.934l0.228,2.054l1.94,1.37l1.026,1.825l-0.571,1.256l1.484,1.369l9.243-0.229v1.598l1.483,1.369l2.168-3.537
		l2.055,1.712l0.799,1.825l1.939,0.343l4.451-3.195l3.423,2.282l2.624-0.57l1.826,2.168l1.826,0.456l3.766-2.51l-0.571-2.169
		l0.913-0.912l11.525-4.907l6.048-1.712l0.685-1.369l-2.168-8.9l1.027-1.598l4.906,0.114l6.391,5.363l5.478,1.825l3.31,0.114
		l1.141,1.598l5.363-0.57l4.885-2.72l0,0l-0.384,2.903l-2.136,3.67l0.821,2.629l3.506-0.384l15.173,3.55l5.093,0.055l3.725-1.15
		l3.013,1.808l0.548,1.753l-3.943,5.971v1.697l6.737,6.792l-0.165,2.685l-3.012,2.793l-5.478,1.26l-0.986-0.219l-1.862-3.342
		l-1.862-0.821l-9.366-0.218l-4.272,1.094l0.603,2.246l2.684,2.41l-0.876,2.301l1.644,0.985l1.205,2.191l-2.465,5.532l-4.656,0.985
		l-3.89,6.354l-3.176-6.902l-1.369-0.602l-1.589,0.438l-2.026,2.629l-6.573-0.712l-5.148,7.088l0.657,4.984l-2.246,2.739
		l0.603,4.819l-2.081,2.137l-1.479,3.834l-2.245,1.917l1.148,2.858l0,0l-2.357,0.126l-0.624,0.981l-3.072,0.917l-0.768-3.798
		l-5.406-2.366l-1.815-4.295l1.432-0.686l-1.861-5.019l1.27-0.845l-0.605-1.53l1.527-1.016l-0.595-1.055l1.229-2.339l-1.844-0.173
		l-2.994,1.404l-5.968,1.062l-7.564,0.283l-0.785,1.201l-4.413,0.507l-0.214,0.887l-1.289,0.189l-3.857,3.307l-0.581,1.471
		l-1.264-0.386l-4.039,1.139l-2.41-2.589l-3.609-0.779l2.339-0.887l1.674-3.132l-0.393-7.525l-3.838-1.942l-5.437-0.237l-0.64-4.9
		l-2.547-0.816l-3.029,0.291l-1.347,2.259l-3.556,2.827l-4.093-1.378l-2.818,0.619l-3.335-0.581l-3.061-1.825l-2.69-0.313
		l-8.925,6.376l-1.958-0.349l-2.618,1.194l-8.325-2.414l-2.17,0.828l-0.667,1.096l-2.693-0.052l-6.188-3.09l-2.484,0.815l-0.1,2.683
		l-2.225,2.112l-3.292,0.065l-1.981,2.625l-1.067,0.082l-3.749-14.439l2.201-2.413l2.687-0.793l1.244-1.338l-0.67-8.312
		l-1.492-1.063l1.931-5.091l-1.835-4.822l-1.69-1.992l-1.721-10.948l-4.543-1.914l-5.333-7.387l-2.24-1.301l-1.578-7.282
		l-1.61-1.724l2.597-6.934l-0.679-6.18l0.982-8.228l3.508-14.331l-1.554-5.419l0.648-1.233l-1.538-1.289l-0.701-3.618l-5.085-10.375
		l0.968-1.324l-0.102-4.477l1.385-2.829l0,0l2.036-0.291l3.651,1.255l2.967-0.799l2.967,5.478l1.712,1.712l2.624,0.343l6.619-2.169
		l3.994,0.229l2.168-2.738l2.396-0.343l1.597,1.598l0.229,3.424l5.135-2.396l3.88,2.054l2.854,0.456l2.624-0.456l4.223-3.651
		L437.597,523.156z"/>
	<path id="CD-LL" fill="#1E3250" stroke="#1E3250" stroke-width="0.5" d="M453.705,445.011l-17.573-0.685l-6.619,2.853l-0.798,1.369
		l1.026,1.483l-0.456,5.706l1.712,4.906l2.396,1.826l-0.228,4.793l2.738,2.282l-0.913,4.678l0,0l-2.967,9.814l1.369,3.423
		l1.37,0.799l2.054-0.456l1.141,1.711l3.538,1.689l-1.142,1.598l-1.255,6.048l1.255,6.391l-0.114,3.766l-2.054,12.438l0,0
		l-0.589,1.714l0,0l-1.296,0.162l-4.223,3.651l-2.624,0.456l-2.854-0.456l-3.88-2.054l-5.135,2.396l-0.229-3.424l-1.597-1.598
		l-2.396,0.343l-2.168,2.738l-3.994-0.229l-6.619,2.169l-2.624-0.343l-1.712-1.712l-2.967-5.478l-2.967,0.799l-3.651-1.255
		l-2.036,0.291l0,0l1.704-4.005l-0.464-3.076l0.742-2.983l-1.38-4.422l-1.504-1.68l0,0l-4.083-6.598l-9.421-9.129l0.949-1.753
		l3.871-1.606l2.556-2.922l1.607,0.804l1.387-0.438l0.511-1.606l-3.067-2.775l-2.994-0.438v-1.972l2.044-2.556l0.585-2.702
		l-1.68-9.407l1.023-7.011l4.454-6.938l1.242,0.438l1.68,2.702l1.46,0.438l1.315-0.729l3.432-5.623l-0.073-5.404l-3.14-4.82
		l-1.169-0.365l-2.921,1.241l-2.337-0.876l-2.994-6.28l1.826-6.938l1.022-1.241l3.944,0.657l1.46-1.607l1.169-0.146l0.95,1.388
		l4.016,0.511l1.388,1.096l1.46-0.511l1.899-3.142l0.073-1.679l-0.292-1.461l-1.826-1.461l3.155-2.266l4.45-7.463l4.656-0.685
		l1.369-1.918l3.56-6.024l0.479-8.217l0,0l7.205,4.943l6.208,7.304l4.838-0.274l3.561,1.096l2.647,6.481l0.183,2.83l-8.49,4.108
		l-0.184,2.83l-1.459,1.004l0.273,1.187l4.108,3.561l5.386,6.938l9.038-1.37l3.651,2.557l7.211,0.73l2.283,5.66L453.705,445.011z"/>
	<path id="CD-LM" fill="#1E3250" stroke="#1E3250" stroke-width="0.5" d="M550.299,466.652l-2.999-1.627l-0.411-1.643l-1.506-0.138
		l-0.82,1.507l-1.233-0.411l-1.507-3.286l-2.738-0.137l-2.602,2.602l-4.52,2.19l-5.478,1.232l-4.519-0.685l-1.644,0.548
		l-0.958,1.096l-0.821,4.108l0.821,1.506l5.341,3.834l0.685,2.054l-1.917,4.383l-2.876,1.643l-5.203-4.382l-4.52-0.137l-3.834,0.958
		l-2.738,1.096l-4.93,5.889l-6.3,4.519l-6.847,2.328l-6.572-0.411l-3.424,1.644l-6.572,8.627l-3.149,5.751l-0.686,8.079l1.78,4.656
		l-1.095,2.19l-3.696,1.917l-1.233-1.78l-2.191-1.095l-1.368,3.423l-1.918,1.985l0,0l-3.652-1.255l-3.651,1.369l-9.015-0.913
		l-1.598-1.141l-1.255-3.651l0,0l1.255-3.652l0,0l2.054-12.438l0.114-3.766l-1.255-6.391l1.255-6.048l1.142-1.598l-3.538-1.689
		l-1.141-1.711l-2.054,0.456l-1.37-0.799l-1.369-3.423l2.967-9.814l0,0l1.521-0.141l0.228,3.194l0.913,1.256l7.075-3.195h1.826
		l1.141,0.799l-0.685,2.624l4.336,5.137l1.712,0.455l4.793-0.799l1.598-1.255l1.598-11.184l1.255-1.369l5.363,1.142l4.565-0.457
		v-1.826l-2.854-2.853l-0.114-1.825l1.255-0.913l2.625-0.114l2.168-3.537l-0.912-2.055l-5.021-1.597l-0.037-7.732l0,0l5.25-0.799
		l1.026-1.256l-0.114-3.993l-3.194-1.826l-1.256-3.31l-0.685-2.738l0.913-1.94l2.853-0.912h2.853l2.625,1.255l3.538-0.456
		l2.281-2.055l1.598,1.598l1.483,0.114l1.256-1.027l0.798-2.51l-1.141-4.223l1.712-4.906l6.391-3.994l3.88-1.142l0.685-2.967
		l4.792-0.342l0,0l1.553,4.223l2.054,1.597l6.618,0.685l8.103-0.685l30.46,0.304l0,0l-2.483,4.747l-2.556,10.37l1.241,7.26
		l-1.68,3.651l0.73,2.118l1.825,1.314l1.316,11.319l-1.097,4.967l-2.557,3.725l0,0L550.299,466.652z"/>
	<path id="CD-MA" fill="#1E3250" stroke="#1E3250" stroke-width="0.5" d="M354.657,319.715l-1.232,0.479l-2.396,3.287l-2.876,7.189
		l-2.807,4.177l-2.123,4.45l-2.875,9.791l-0.343,21.813l0.822,6.915l-0.89,7.121l-4.587,4.039l-4.656,1.301l-1.643,3.149
		l-3.835-0.137l-4.176-3.354l-4.032-0.981l0,0l-4.308-5.258l-2.118-1.242l-12.562-4.308l-12.78-7.669l-16.958-6.237l-9.275-2.191
		l-5.843-2.774l-3.944-3.725l-2.263-0.438l-2.484,0.949l-4.747-1.606l-6.938,1.388l-5.404-3.287l-6.354-1.752l-4.017-3.067
		l-3.432-0.365v7.157l-2.849,4.527l1.899,5.258l-0.292,1.899l-5.594,11.351l-1.607,1.387l-7.303-1.022l-3.067,2.994l-7.157,3.213
		l-5.045,4.53l0,0l-1.398-2.168l-1.651-0.894l-2.67-4.281l-7.209-3.953l-3.469-0.806l-6.007,0.413l-2.217-1.367l0,0l12.295-24.984
		l-1.471-1.75l-0.223-5.669l0.656-3.292l-0.582-5.385l2.196-9.557l-2.04-9.237l0.277-6.027l1.941-3.913l4.502-3.216l6.666-7.841l0,0
		l2.869,6.313l2.396,1.164l9.517-0.89l0.958-3.56l-0.685-1.643l-4.861-1.781l-0.068-1.095l1.575-0.753l9.722,0.89l2.807-1.233
		l11.229-9.092l6.025-2.807l11.694-3.697l3.629-2.054l4.382-4.519l1.711-3.287l1.712-0.821l2.122,0.411l9.586,6.367l9.311-0.411
		l0.138-1.369l-1.301-1.37l0.411-1.437l4.998,1.849l0.041-1.712l-5.067-7.463l0.89-3.15l1.986-1.438h6.778l4.04-2.738l3.491,4.929
		l0.822,5.889l3.971,3.149l4.519,11.092l0,0l1.876,4.943l1.369,9.859l1.781,0.891l1.506-0.891l2.875-3.012l1.849-4.519l1.164-0.479
		l3.56,3.971l2.259,6.641l2.329,1.37l5.682,0.821l11.298,7.6l9.106-4.793h1.985l7.942,9.312l4.724,7.257L354.657,319.715z"/>
	<path id="CD-MN" fill="#1E3250" stroke="#1E3250" stroke-width="0.5" d="M506.881,410.549l-3.848-5.246l-1.164-3.424l4.519-5.271
		l1.78-10.134l-1.644-5.039l-8.9-11.913l1.849-4.108l-0.479-4.861l1.096-3.491l2.602-1.644l3.903-5.271l1.643-3.836l0.233-6.082
		l3.177-8.271l0.055-2.354l-0.822-3.999l-3.232-3.341l0.959-1.122l-0.205-3.493l-2.259-1.711l-6.847,0.137l-2.396-0.685
		l-1.711-1.985l-0.069-5.327l-3.03-6.885l0,0h0.073l0,0l20.194-0.765l1.918,0.548l1.096,1.369l-0.137,1.369l7.394,0.822l3.972-4.656
		l6.633-3.482l5.365-0.626l0.972-1.77l0.872-6.935l-0.107-9.226l2.893,3.608l3.16-0.212l0.818-1.643l-0.53-1.749l1.79-0.87
		l-0.65-4.424l2.044-4.601l-1.388-4.893l6.865-4.09l-0.584-8.106l1.314-5.477l-0.293-1.607l-4.527-2.848l-0.73-1.534l1.314-3.871
		l-4.016-4.309l-1.097-4.601l1.022-1.46l1.899-0.073l2.556,1.461l5.511,5.6l0.918,2.193l3.349,1.887l1.706,2.745l3.93-0.212
		l2.653-2.067l2.977-0.413l2.574-1.813l1.79,0.245l0.479-2.279l4.099,2.173l1.897,0.18l2.135,1.515l0.757,2.067l2.294,2.172
		l1.816,0.784l5.342,0.807l2.105,1.833l3.891-0.891l1.404,2.53l8.399,2.263l3.934,0.127l0,0l-1.243,6.223l-2.19,5.066l-1.849,1.233
		l-8.9-0.616l-5.204,1.574l-1.438,1.301l-0.616,2.397l1.85,4.176l-0.48,1.369l-2.26,0.548l0.343,1.507l3.971,2.67l0.822,4.45
		l4.245,3.232l3.08,4.519l6.094,5.477l0.548,8.216l0,0l-6.094,0.274l-7.12-1.027l-0.891,0.821l0.617,1.027l1.985,0.411l0.616,2.67
		l-7.942,6.026l-6.573-2.054l-3.423-2.739l-3.561,0.342l-1.027,0.89l-2.327,9.586l1.918,3.985l0.684,3.628l1.574,2.328l-0.109,3.902
		l2.123,5.067l2.807,1.506l3.424,12.393l-1.956,1.883l1.483,5.135l-1.598,10.385l0.913,3.651l2.511,2.282l11.068,3.994l5.249,1.027
		l8.103,0.228l1.712,3.31l5.705,0.685l0.57,2.168l5.021,1.712l1.712-3.88l1.711,0.229l1.027,2.51l10.271,10.042l0.57,3.081
		l7.075,12.096l2.651,6.124l0,0l-97.737-0.353l0,0l-30.46-0.304l-8.103,0.685l-6.618-0.685l-2.054-1.597L506.881,410.549z"/>
	<path id="CD-MO" fill="#1E3250" stroke="#1E3250" stroke-width="0.5" d="M405.6,157.154l-11.319-0.137l-6.162,2.053l-1.369,2.853
		l1.027,12.438l2.282,6.391l5.135,3.766l1.484,3.309l-1.37,1.141l-2.51-0.913l-3.652,1.027l-3.081,2.51l-1.94,0.115l-2.967-1.712
		l-1.141,0.342l-1.141,5.615l-2.054,0.912l-3.766-1.027l-12.552-6.047l-5.363-1.027l-1.484-2.055l1.141-4.564l-1.141-3.081
		l-1.825-0.228l-2.625,1.141l-7.303-1.005l0,0l0.137-3.971l-1.917-3.766v-2.876l1.848-5.874l0.069-2.671l-0.617-0.616l-7.736,1.507
		l-10.75-3.629l-7.531,1.574l-12.256,4.383l-9.64,6.162l-8.627,3.56l-0.342-8.011l24.99-13.283l2.191-3.628l0,0l0,0l0,0l1.986-1.917
		l1.232-4.04l5.217-7.312l2.054-1.301l7.874-2.122l4.519,1.163l9.791-0.889l2.054-0.959l2.807-3.081l0.753-2.054l-0.684-3.424
		l-5.957-8.49l0.137-11.16l0,0l1.987-2.455l4.222,4.564l5.021,1.94l3.538,5.82l1.597,0.799l0.571-9.928l13.465,8.445l14.036,1.94
		l3.788-0.228l15.177-3.88l4.451,1.369l2.406-7.25l0,0l6.847,1.278l1.826,3.743l1.733,0.822l2.83-2.283l1.461-0.182l2.101,0.365
		l1.733,1.46l-0.091,1.552l-3.013,5.642l-2.921,2.283l0.364,2.738l1.552,2.556l5.935,3.652l6.755,2.647l2.374-0.365l0.913-2.373
		l1.095-0.457l2.282,2.282l2.101,0.365l2.008,1.826l1.004,2.374l0.64,7.212l0,0l-4.474,0.091l-4.107-3.104l-2.465,1.552
		l-0.274,1.734l1.187,1.187l-0.365,2.283l-1.187,0.73h-2.282l-3.013-1.369l-1.277-1.917l-2.191-1.096l-2.008,0.091l-5.387,5.386
		l-3.651,0.73l-1.461-1.551l-8.033-4.291l-5.569,0.365l0.822,4.108l3.012,4.108l-1.004,3.926L405.6,157.154z"/>
	<path id="CD-NK" fill="#1E3250" stroke="#1E3250" stroke-width="0.5" d="M672.057,286.52l-6.389,0.453l-5.136,3.835l-5.066,0.068
		l-8.694,6.573l-7.396-0.206l-1.917,1.507l-1.506,2.738l-5.546,0.206l-2.739,2.054l-1.985-2.328l-10.133,1.164l-2.625-1.256l0,0
		l-0.548-8.216l-6.094-5.477l-3.08-4.519l-4.245-3.232l-0.822-4.45l-3.971-2.67l-0.343-1.507l2.26-0.548l0.48-1.369l-1.85-4.176
		l0.616-2.397l1.438-1.301l5.204-1.574l8.9,0.616l1.849-1.233l2.19-5.066l1.243-6.223l0,0h2.118l2.702-1.387l0.876-2.995
		l-1.022-4.089l5.478-3.141l1.899-3.287l-2.198-9.033l0.607-3.423l1.494-1.876l-0.841-2.406l-2.028-1.388l-0.918-6.433l-0.972-1.356
		l-7.442-1.506l0.455-1.895l7.084-3.322l0,0l5.733-1.935l4.711-0.439l3.249,1.023l6.705,5.988l4.638-1.862l12.963-0.219l5.718-3.323
		l4.163,1.972l6.212-8.682l5.529-0.935l0.427-0.869l3.518-0.18l2.248,0.814l3.542-2.483l1.059,0.22l2.154,4.235l2.236-0.106l0,0
		l-0.581,6.556l0.935,4.743l-4.104,5.028l-1.88,8.132l-2.085,0.328l-2.004,3.43l0.502,6.375l-3.028,14.105l0.753,0.431l0.469,3.388
		l-2.203,5.426l0.442,7.417l-2.15,0.194l-0.353,10.733l1.353,1.356l-0.683,6.358l-2.672,1.305l-2.498,3.118l-3.562,0.494
		L672.057,286.52z"/>
	<path id="CD-NU" fill="#1E3250" stroke="#1E3250" stroke-width="0.5" d="M410.701,66.163l8.47,1.308l2.191,2.775l2.191,1.242
		l-1.241,2.994l0.511,2.483l4.674,0.512l8.618-1.169l8.909,2.41l1.753-1.095l2.045,0.146l1.68,0.584l0.292,1.679l-0.876,1.315
		l-3.506,1.68l-6.719-3.068l-7.084,6.646l-6.208,1.899l-5.843,2.921l-3.797,3.36l-0.512,4.747l-2.485,3.85l0,0l-2.406,7.25
		l-4.451-1.369l-15.177,3.88l-3.788,0.228l-14.036-1.94l-13.465-8.445l-0.571,9.928l-1.597-0.799l-3.538-5.82l-5.021-1.94
		l-4.222-4.564l-1.987,2.455l0,0l-4.423,4.012l-7.157,8.545l-1.753,1.023l-3.14-0.804l-3.652-3.943l-1.023-3.798l3.652-7.084
		l-2.264-9.275l-3.213-3.871l0.511-4.82l2.191-2.921l-1.461-1.68l-3.432-0.643l-5.113-2.629l-1.241-1.534l-0.511-4.382l-2.41-0.876
		l-9.859,1.023l-3.798,1.46l-0.95,2.264l-2.483,0.073l-4.236-2.556l0.073-1.68l8.837-18.331l0.073-1.971l-1.752-1.607l-4.967-0.219
		l-5.594-1.972l-2.264-1.899l-4.06-0.792l0,0l2.905-4.844l3.709-0.509l1.491-2.478l4.516-2.531l1.709-1.845l5.822-0.943l5.435,0.489
		l4.946,1.515l3.453,4.362l4.181,0.524l6.62,5.306l5.638,2.916l4.235,4.738l0.33,4.764l5.542,3.806l7.23-0.402l2.726-1.219
		l8.06,2.045l1.674,2.152l3.548,1.879l2.723-1.948l2.005,1.683l3.59,1.273l5.26,0.51l3.295-2.363l3.225,0.201l4.79,2.442
		l3.851,0.622l1.812-0.578l3.403,1.038l2.63,2.203l3.94,1.522l6.868-0.387L410.701,66.163z"/>
	<path id="CD-SK" fill="#1E3250" stroke="#1E3250" stroke-width="0.5" d="M672.057,286.52l-6.188,10.113l1.914,8.139l-0.295,1.993
		l-3.104,5.046l-3.011,0.4l-1.93,3.208l-2.557,0.254l-0.99,2.307l0.925,1.579l-1.309,1.79l1.466,1.59l0.028,3.516l4.634,2.3
		l0.661,1.336l-1.229,0.942l0.169,1.265l1.696,0.13l1.644,2.144l0.146,1.698l2.729,1.494l0.002,1.403l2.618,1.107l0.891,1.626
		l0.056,1.794l-1.476,3.167l0.673,2.716l-1.222,0.815l-0.146,2.744l1.43,7.6l0.125,12.024l0.753,2.573l3.213,3.775l1.19,5.146
		l0.595,12.608l-2.578,7.408l0.382,5.921l1.737,6.911l-22.293-0.079l0,0l-2.651-6.124l-7.075-12.096l-0.57-3.081l-10.271-10.042
		l-1.027-2.51l-1.711-0.229l-1.712,3.88l-5.021-1.712l-0.57-2.168l-5.705-0.685l-1.712-3.31l-8.103-0.228l-5.249-1.027
		l-11.068-3.994l-2.511-2.282l-0.913-3.651l1.598-10.385l-1.483-5.135l1.956-1.883l-3.424-12.393l-2.807-1.506l-2.123-5.067
		l0.109-3.902l-1.574-2.328l-0.684-3.628l-1.918-3.985l2.327-9.586l1.027-0.89l3.561-0.342l3.423,2.739l6.573,2.054l7.942-6.026
		l-0.616-2.67l-1.985-0.411l-0.617-1.027l0.891-0.821l7.12,1.027l6.094-0.274l0,0l2.625,1.256l10.133-1.164l1.985,2.328l2.739-2.054
		l5.546-0.206l1.506-2.738l1.917-1.507l7.396,0.206l8.694-6.573l5.066-0.068l5.136-3.835L672.057,286.52z"/>
	<path id="CD-SN" fill="#1E3250" stroke="#1E3250" stroke-width="0.5" d="M484.779,290.217l2.088,1.556l0,0l1.296,3.94l3.925,5.478
		l0,0l3.03,6.885l0.069,5.327l1.711,1.985l2.396,0.685l6.847-0.137l2.259,1.711l0.205,3.493l-0.959,1.122l3.232,3.341l0.822,3.999
		l-0.055,2.354l-3.177,8.271l-0.233,6.082l-1.643,3.836l-3.903,5.271l-2.602,1.644l-1.096,3.491l0.479,4.861l-1.849,4.108
		l8.9,11.913l1.644,5.039l-1.78,10.134l-4.519,5.271l1.164,3.424l3.848,5.246l0,0l-4.792,0.342l-0.685,2.967l-3.88,1.142
		l-6.391,3.994l-1.712,4.906l1.141,4.223l-0.798,2.51l-1.256,1.027l-1.483-0.114l-1.598-1.598l-2.281,2.055l-3.538,0.456
		l-2.625-1.255h-2.853l-2.853,0.912l-0.913,1.94l0.685,2.738l1.256,3.31l3.194,1.826l0.114,3.993l-1.026,1.256l-5.25,0.799l0,0
		l-2.738-1.027l-3.08,0.114l-4.223-1.712l-1.484,0.913l-4.107-1.255l0,0l5.475-9.411l-2.283-5.66l-7.211-0.73l-3.651-2.557
		l-9.038,1.37l-5.386-6.938l-4.108-3.561l-0.273-1.187l1.459-1.004l0.184-2.83l8.49-4.108l-0.183-2.83l-2.647-6.481l-3.561-1.096
		l-4.838,0.274l-6.208-7.304l-7.205-4.943l0,0l-5.957-3.902l-2.465-3.218l-1.643-0.685l-3.834,0.821l-6.916-2.259l-0.342-1.096
		l5.751-4.725l0.822-5.107l-0.479-2.602l-1.301-1.438l-5.409,0.685l-1.301-1.232l-0.137-2.533l6.505-12.803l0.273-3.629l3.492-5.066
		l-3.218-3.355l-4.93-7.996l-5.614-4.451l0,0l2.295-1.36l3.798-5.04l2.775-1.825l2.629,4.893l0.949,0.73l1.607-0.219l0.73-1.534
		l-0.364-4.455l-2.484-9.421l-0.219-4.966l1.753-3.797l5.258,1.168l4.747,2.264l3.214-1.68l1.241-3.724l0.95-0.365l0.948,1.46
		l5.404,2.629l12.489,2.118l2.408,1.096l3.58,3.871l1.825,0.803l3.36-2.045l6.368-0.146l1.532-1.826l-0.145-5.551l0.876-0.876
		l2.483,0.876l5.478-2.702l4.454-0.438l1.899-1.095l15.556,0.584L484.779,290.217z"/>
	<path id="CD-SU" fill="#1E3250" stroke="#1E3250" stroke-width="0.5" d="M311.723,147.832l-15.894-0.841l-11.667-3.834
		l-5.094,0.931l-12.718,6.967l-1.808,0.165l-5.532-2.848l-17.26-0.08l0,0l-0.726-0.847l1.564-9.148l3.045-2.993l2.168-6.185
		l3.728-3.509l3.617-6.839l1.34-6.885l1.884-2.134l0.609-2.149l2.636-1.69l1.55-3.609l-0.073-9.157l-2.025-11.576l0.56-5.523
		l1.942-3.139l-0.131-3.768l-3.834-9.176l2.218-1.584l4.238,0.059l2.182-1.591l1.429-2.415l0.794-3.732l6.833-7.465l0.789-1.878l0,0
		l4.06,0.792l2.264,1.899l5.594,1.972l4.967,0.219l1.752,1.607l-0.073,1.971l-8.837,18.331l-0.073,1.68l4.236,2.556l2.483-0.073
		l0.95-2.264l3.798-1.46l9.859-1.023l2.41,0.876l0.511,4.382l1.241,1.534l5.113,2.629l3.432,0.643l1.461,1.68l-2.191,2.921
		l-0.511,4.82l3.213,3.871l2.264,9.275l-3.652,7.084l1.023,3.798l3.652,3.943l3.14,0.804l1.753-1.023l7.157-8.545l4.423-4.012l0,0
		l-0.137,11.16l5.957,8.49l0.684,3.424l-0.753,2.054l-2.807,3.081l-2.054,0.959l-9.791,0.889l-4.519-1.163l-7.874,2.122
		l-2.054,1.301l-5.217,7.312l-1.232,4.04L311.723,147.832z"/>
	<path id="CD-TG" fill="#1E3250" stroke="#1E3250" stroke-width="0.5" d="M675.698,417.104l5.661,14.599l2.647,9.555l-0.744,18.507
		l0.599,4.049l2.311,6.187l5.246,7.509l11.27,8.725l5.896,7.139l4.621,8.691l6.964,15.912l4.279,12.3l3.344,4.976l1.367,4.415
		l-45.88,5.881l0,0l-1.821-2.491l1.533-3.746l-0.109-2.137l3.286-2.902l0.493-2.082l-3.231-6.518l-2.75,0.548l-3.56-4.272
		L671.095,522l-1.041,1.205l-3.45-0.548l-1.26,1.26l-0.768,3.122l-7.175-1.205l-1.862,4.546l-1.369,0.493l-5.643-3.45l-2.113-7.888
		l-2.521-1.698l-3.669,0.767l-0.438,2.169l-2.355,0.877l-0.273,1.917l5.422,4.108l-0.055,2.738l-2.958,4.491l0.165,1.808
		l-0.986,2.246l-3.45,2.738l-4.327,0.603l-6.354,4.437l-1.885-1.04l-1.971-4.054l-3.561-0.329l-1.15-1.861l-4.546-1.973l0,0
		l4.374-5.446l0.877-3.505l-0.657-1.972l-0.95-0.438l-1.898,0.876l-3.359-0.949l-1.314-4.966l0.73-2.922l-3.652-5.915l-3.213,1.022
		l-1.972-0.73l-2.994,1.461l-1.461-0.073l-1.899-1.606l-1.095,0.803l-0.949,3.871l-2.191,0.511l-11.612,0.073l-2.337-2.775
		l-4.674-0.949l-9.859-6.062l-1.388-1.826l-0.073-2.337l0.877-2.264l3.549-3.681l-0.073-1.607l-8.836-2.044l-1.169-1.681
		l-3.506-0.729l-3.067-4.31l1.242-1.022l-2.191-6.28l-3.359-1.606l0.584-5.332l6.062-5.243l0,0l0.364-1.68l0,0l2.557-3.725
		l1.097-4.967l-1.316-11.319l-1.825-1.314l-0.73-2.118l1.68-3.651l-1.241-7.26l2.556-10.37l2.483-4.747l0,0L675.698,417.104z"/>
	<path id="CD-TO" fill="#1E3250" stroke="#1E3250" stroke-width="0.5" d="M623.445,200.449l-7.084,3.322l-0.455,1.895l7.442,1.506
		l0.972,1.356l0.918,6.433l2.028,1.388l0.841,2.406l-1.494,1.876l-0.607,3.423l2.198,9.033l-1.899,3.287l-5.478,3.141l1.022,4.089
		l-0.876,2.995l-2.702,1.387h-2.118l0,0l-3.934-0.127l-8.399-2.263l-1.404-2.53l-3.891,0.891l-2.105-1.833l-5.342-0.807
		l-1.816-0.784l-2.294-2.172l-0.757-2.067l-2.135-1.515l-1.897-0.18l-4.099-2.173l-0.479,2.279l-1.79-0.245l-2.574,1.813
		l-2.977,0.413l-2.653,2.067l-3.93,0.212l-1.706-2.745l-3.349-1.887l-0.918-2.193l-5.511-5.6l-2.556-1.461l-1.899,0.073l-1.022,1.46
		l1.097,4.601l4.016,4.309l-1.314,3.871l0.73,1.534l4.527,2.848l0.293,1.607l-1.314,5.477l0.584,8.106l-6.865,4.09l1.388,4.893
		l-2.044,4.601l0.65,4.424l-1.79,0.87l0.53,1.749l-0.818,1.643l-3.16,0.212l-2.893-3.608l0.107,9.226L539.567,294l-0.972,1.77
		l-5.365,0.626l-6.633,3.482l-3.972,4.656l-7.394-0.822l0.137-1.369l-1.096-1.369l-1.918-0.548l-20.194,0.765l0,0l-3.926-5.478
		l-1.368-3.94l0,0l-2.088-1.556l0,0l-0.029-9.921l-2.875-4.381l-9.996-0.959l-3.709,2.554l-1.825-0.365l-5.478-6.025l-5.112-3.104
		l0.73-1.552l-0.354-1.851l-8.045-3.261l-5.66-4.565l-0.73-2.465l3.195-4.199l5.843-1.734l0.091-1.461l-2.556-2.008l-0.558-3.427
		l-6.812,2.198l-1.003-0.359l-2.034-3.89l-2.1-1.004h-6.481l3.742-2.647l8.58-0.365l1.554-1.187l0.639-1.917l-1.917-3.562
		l-8.216-6.299l-1.096-3.104l-3.469-5.021l-0.822-1.917l1.515-2.952l-1.32-2.922l-0.396-3.529l-3.181-4.79l0.215-4.028l-1.633-3.603
		l-0.033-3.816l-5.42-9.201l-1.897-4.738l-7.309-4.887l-5.666-0.519l0.349-5.991l2.009-2.373l0.091-1.917l0,0l0,0l0,0l3.965-3.672
		l1.004-3.926l-3.012-4.108l-0.822-4.108l5.569-0.365l8.033,4.291l1.461,1.551l3.651-0.73l5.387-5.386l2.008-0.091l2.191,1.096
		l1.277,1.917l3.013,1.369h2.282l1.187-0.73l0.365-2.283l-1.187-1.187l0.274-1.734l2.465-1.552l4.107,3.104l4.474-0.091l0,0
		l3.252,0.586l2.647,1.826l8.582,2.008l3.194-1.825l1.918-2.922l8.764-2.191l26.4,0.366l2.83,1.004l1.552-0.365l2.739-2.465
		l1.917,0.183l9.95,4.838l3.378,0.182l2.647-0.456l3.926-2.373l2.647-0.183l3.56,1.552l2.647-2.283l7.942-2.373l2.374-1.734
		l2.008,0.273l0.548,3.378l-0.639,6.39l1.552,1.826l2.099,0.183l1.827-1.735l1.369,2.1l1.442,0.365l2.465-1.095l0.821-2.283
		l4.93-1.917l1.369,1.004l4.199,0.366l1.096,1.095l2.19,6.208l2.283,0.548l0,0l2.556,1.369l2.647,0.182l1.461-0.365l1.004-4.656
		l4.84,1.005l1.276,3.469l-2.1,1.643l0.913,2.94l-1.826,1.825l-1.734,3.926h-1.46l-0.64,0.913l0.183,1.369l6.938,0.091l1.004,0.913
		l0,0l1.552,2.282l0,0l3.743,6.025h4.838l2.646,1.644l0.366,1.643l-1.187,6.664l6.664,1.187l-0.639,3.925l1.096,0.913l1.917-0.091
		l-0.183,1.917l-1.278,1.552v2.008l1.734,4.2L623.445,200.449z"/>
	<path id="CD-TP" fill="#1E3250" stroke="#1E3250" stroke-width="0.5" d="M405.6,157.154l-0.091,1.917l-2.009,2.373l-0.349,5.991
		l5.666,0.519l7.309,4.887l1.897,4.738l5.42,9.201l0.033,3.816l1.633,3.603l-0.215,4.028l3.181,4.79l0.396,3.529l1.32,2.922
		l-1.515,2.952l0.822,1.917l3.469,5.021l1.096,3.104l8.216,6.299l1.917,3.562l-0.639,1.917l-1.554,1.187l-8.58,0.365l-3.742,2.647
		h6.481l2.1,1.004l2.034,3.89l1.003,0.359l6.812-2.198l0.558,3.427l2.556,2.008l-0.091,1.461l-5.843,1.734l-3.195,4.199l0.73,2.465
		l5.66,4.565l8.045,3.261l0.354,1.851l-0.73,1.552l5.112,3.104l5.478,6.025l1.825,0.365l3.709-2.554l9.996,0.959l2.875,4.381
		l0.029,9.921l0,0l-1.365,0.633l-15.556-0.584l-1.899,1.095l-4.454,0.438l-5.478,2.702l-2.483-0.876l-0.876,0.876l0.145,5.551
		l-1.532,1.826l-6.368,0.146l-3.36,2.045l-1.825-0.803l-3.58-3.871l-2.408-1.096l-12.489-2.118l-5.404-2.629l-0.948-1.46
		l-0.95,0.365l-1.241,3.724l-3.214,1.68l-4.747-2.264l-5.258-1.168l-1.753,3.797l0.219,4.966l2.484,9.421l0.364,4.455l-0.73,1.534
		l-1.607,0.219l-0.949-0.73l-2.629-4.893l-2.775,1.825l-3.798,5.04l-2.295,1.36l0,0l-4.246-1.365l-11.297-6.642l-0.891,0.137
		l0.069,5.683l-0.822,0.41l-10.818,1.302l-2.122-0.206l-1.233-1.027l0,0l0,0l0,0l0.159-2.274l-4.724-7.257l-7.942-9.312h-1.985
		l-9.106,4.793l-11.298-7.6l-5.682-0.821l-2.329-1.37l-2.259-6.641l-3.56-3.971l-1.164,0.479l-1.849,4.519l-2.875,3.012
		l-1.506,0.891l-1.781-0.891l-1.369-9.859l-1.876-4.943l0,0l3.821-6.493l2.464-2.67l0.274-6.505l1.027-1.164l1.643,0.754l0.48,5.203
		l2.259,1.917l12.53-3.423l3.218-3.081l-0.274-2.054l3.56-6.779l0.821-4.655l-4.655-5.136l-2.602-6.353l-6.23-6.231l-2.055-0.137
		l-0.89-1.095l0.89-1.575l1.712-0.479l1.849,0.89l2.464-0.069l1.37,1.507l1.438-0.342l0.547-1.165l2.465-0.41l2.397,1.506
		l-0.137,3.355l1.369,1.232l3.287-1.506v-2.054l1.232-2.054l7.189-3.013l0.548-1.437l-0.548-0.754h-3.423l-0.343-1.575l3.218-1.574
		l0.89-1.096l-0.547-1.575l-8.08-6.093l-1.78-3.259l5.341-12.187l-1.232-3.561l1.437-10.133l4.314-6.093l5.135,1.917l0,0
		l7.303,1.005l2.625-1.141l1.825,0.228l1.141,3.081l-1.141,4.564l1.484,2.055l5.363,1.027l12.552,6.047l3.766,1.027l2.054-0.912
		l1.141-5.615l1.141-0.342l2.967,1.712l1.94-0.115l3.081-2.51l3.652-1.027l2.51,0.913l1.37-1.141l-1.484-3.309l-5.135-3.766
		l-2.282-6.391l-1.027-12.438l1.369-2.853l6.162-2.053L405.6,157.154z"/>
</g>
</svg>
