<?xml version="1.0" encoding="utf-8"?>
<!-- Generator: Adobe Illustrator 15.0.0, SVG Export Plug-In . SVG Version: 6.00 Build 0)  -->
<!DOCTYPE svg PUBLIC "-//W3C//DTD SVG 1.1//EN" "http://www.w3.org/Graphics/SVG/1.1/DTD/svg11.dtd">
<svg version="1.1" id="Layer_1" xmlns:amcharts="http://amcharts.com/ammap"
	 xmlns="http://www.w3.org/2000/svg" xmlns:xlink="http://www.w3.org/1999/xlink" x="0px" y="0px" width="664.5px" height="768px"
	 viewBox="0 0 664.5 768" enable-background="new 0 0 664.5 768" xml:space="preserve">
<defs>
	
	
		<amcharts:ammap  projection="mercator" bottomLatitude="-5.031620" leftLongitude="11.178092" topLatitude="3.703395" rightLongitude="18.650411">
		</amcharts:ammap>
</defs>
<g>
	<path id="CG-2" fill="#1E3250" stroke="#1E3250" stroke-width="0.5" d="M230.845,527.51l1.38,1.739l3.04,1.21l2.06-0.31l3.2-1.47
		l3.1,2.33l2.09-1.32l2.69,2.12l1.63-0.62l0.69-1.02l0,0l0.64,5.039l2.44,1.04l0.63,1.16l-0.41,1.19l-2.45,0.34l-0.28,0.71
		l2.96,2.33l0.59,0.18l1.07-1.47l1.57,1.06l-0.5,1.271l-4.62,3.439l0.73,1.171l0.55,0.609l2.64-0.109l2.27,1.359l3.35-1.45l1.54,1.4
		l1.94-1.11l1.2,0.681l-2.23,5.8l0.6,0.49l1.06-1.74l0.6-0.021l0.98,6l1.38,1.67l0.94,2.9l-0.8,1.29l-2.37,1.2l-1.13,2.8l-1.89,1.5
		l-0.76,1.67l0,0l-4.84,2.311l-2.21,1.72l-3.89,10.229l0.09,2.04l-1.43,0.811l-0.59,2.22l-1.66,1.22l0.36,1.521l-2.16,0.63
		l-1.09,2.29l-2.01,1.38l-1.11,2.27l-1.59,1.08l-1.62,2.36l-3.89,2.89l-0.09,1.75l-1.69,3.37l-2.13,2.38l0.31,1.7l-1.4,1.07l0,0
		l-0.89,0.56l-2.83,4.511l-2.61,0.63l-0.84,1.989l0.5,1.66l-1.16,1.67l-2.21,0.57l-1.16,1.09l-0.71,1.561l0.21,2.149l-5.9-0.54
		l0.21,1.561l-2.09,1.27l-2.94-0.729l-1.55,0.71l-0.04,2.46l1.82,0.14l-0.37,1.561l1.28,0.409l-0.52,1.561l-2.35,1.77l0.16,3.08
		l-3.84,3.7l-0.62,6.25l-2.39,1.74l-3.66,0.84l-4.35-0.84l-1.18-0.811l-1.8-5.189l0.87-1.86l-1.78-2.17l-0.43,1.2l-1.87-1.09
		l-3.16,0.77l-4.16-2.22l-5.03,2.2l-2.69-0.98l-6.82,0.91l-1.94-0.45l-0.77-1.79l-1.8-0.5l-0.52-1.97l-2.55-0.23l-2.78-2.939
		l-2.04,0.2l0.11-4.33l-1.12-0.59l-0.47-1.17l0.79-0.891l0.09-1.52l-1.29-0.29l-0.71-4.53l-2.14-1.25l0.03-1.01l-1.89-1.5
		l0.07-2.351l-1.53-0.529l0.98-0.721l-0.23-0.68l-2.46-1.49l-4.68,0.54l-0.16-1.649l1.2-0.48l-0.77-0.899l-2.09-0.101l-1.21,1.05
		l-1.59-0.05l-0.56-0.689l0,0l0.24-2.16l-0.55-0.59l-1.86-0.21l-0.03-1.721l-1.61-0.989l1.02-1.2l-1.77-1.63l1.43-1.32l2.73-0.271
		l2.44-6.63l4.21-1.949l4.07,0.43l4.41-1.15l2.3,1.11l2.73-1.75l1,1.25l0.85,0.18l0.45-4.319l2.5,0.609l3.17-1.14l1.2,0.21l1.43-2.2
		l3.12-1.06l0.8-1.811l2.71-2.09l-0.1-6.06l2.26-7.54l-5.21-5.11l-1.78,0.09l-2.43-0.82l-0.62-2.489l-1.27-1.761l0.25-0.68l2.48-1
		l1.71-1.58l2.41-0.12l-2-5l-0.64-3.279l-0.68-10.86l0.75-7.39l-0.62-2.07l-0.76-12.24l0,0l0.91,0.99l6.62,1.63l3.66,2.04l1.27-0.19
		l2.78-3.14l2.8,2.95l5.42,0.96l5.62,3.15l4.72-0.86l4.12,1.58l0.85-0.181l6.62-8.699l11.53-13.2l2.74-3.98l4.56,3.261l5.45,8.729
		l0.52,3.57l2.45,2.39l-0.01,2.021l-3.44,3.76L230.845,527.51z"/>
	<path id="CG-5" fill="#1E3250" stroke="#1E3250" stroke-width="0.5" d="M65.655,722.289l4.69,0.04v-21.21h-9.53l0,0l-6.85-6.58
		l0.59-0.34l-1.73-0.84l-24.53-20.36l-1.86-2.81l0.06-2.83l-1.86-2.63l-4.08-3.51l0.28-0.32l-0.37,0.2l-8.14-6.271l0.14-0.449
		l-1.97-2.21l2.84-3.391l0.28-6.21l2.66-1.149l-0.25-7.351l10.1-9.95l6.72-0.79l1.2-0.96l3.13-5.8l2.05-0.74l1.4,0.521l5.35-0.34
		l9.5,14.18l4.82,1.53l6.33,3.26l0,0l4.37,0.65l3.46,3.489l7.69,5.271l3.73,1.609l5.73,0.73l1.57,1.65l1.82,0.5v2.51l3.1,0.189
		l1.96,1.221l5.89,0.859l3.16,1.16l0.78,1.021l-0.09,1.83l3.11,0.43l1.37,0.84l9.08,10.67l-0.94,6.14l0.8,2.021l3.12,4.26l2.52,0.73
		l6.42-0.181l1.93,0.79l4.54,3.471l0,0l1.35,1.51l-1.55,0.13l-0.37,1.46l-2.46-1.41l0.54,2.07l3.63,3.37l0.21,1.239l-1,1.7
		l-5.51-0.87l-5.96,6.23l-2.87-0.561l-12.1,2.5l-8.51,13.141l-2.85,3.07l-1.82,1.539l-3.91,0.311l-3.27-1.54l-0.97,1.14l-0.28,2.32
		l-1.04,0.81l-1.04,3.86l-13.38,10.83l-7.31-9.84l0.69-0.75l-0.82,0.59l-1.73-1.95l-0.55-1.8L65.655,722.289z"/>
	<path id="CG-7" fill="#1E3250" stroke="#1E3250" stroke-width="0.5" d="M537.015,33.35l6.66-0.02l1.431,0.57l2.29-1.36l5.14,1.8
		l2.72,0.19l2.471,7.65l4.93-3.31l1.51-2.35l2.6,3.42l2.15,0.76l0.35-2.26l4,0.86l1.79-0.57l2.82,0.31l2.32,0.81l1.569,1.36
		l1.921,4.62l1.06,0.57l3.49-0.77l0.81-0.8l2.15-7.43l3.359,0.37l3.051-1.67l5.29,2.42l0.279-2.13l0.471-0.41l2.369,0.64l0.53-1.83
		l2.59-2.42l4.011,3.52l1.279,3.8l1.971,2.67l1.609,4.38l3.28,0.48l0.44,3.57l-0.65,3.36l1.42,4.53l-1.24,5.71l0.58,4.2l-1.33,4.08
		l-2.54,4.28l-5.06,2.94l-1.3,4.59l-4.021,4.54l-2.32,6.17l0.49,4.89l-1.34,4.42l-2.3,2.85l-5.82,12.11l-2.85,2.61l-2.2,1.16
		l-2.18,2.55l-1.21,5.42l-1.601,4.12l-1.399,1.62l-0.41,2.03l-2.58,3.3l-3.92,3.08l-0.931,2.31l-0.479,12.11l-1.92,5.09l1.55,1.81
		l0.68,3.48l-2.05,6.64l-0.77,4.84l2.45,11.65l-0.79,1.93l-0.851,10.81l-3.63,5.55l-3.89,9.36l-2.82,14.15l-2.18,4.03l-2.63,2.51
		l-1.591,2.58l-1.109,3.25l-0.431,7.59l1.341,3.91l1.8,2.681l0.99,5.13l-0.851,2.96l0.54,4.37l-1.399,2.06l0.149,5.31l0.82,1.801
		l4.76,4.899l0.88,1.8l0.4,8.24l-0.49,1.9l-2.52,4.03l-5.601,4.54l-2.76,3.619l-2.8,5.87l-2.37,10.2l1.09,1.47l-4.72,10.42
		l0.12,8.521l1.819,6.979l0.36,5.08l-2.64,12.99l-2.131,4.45l-10.649,13.34l0,0l-1.641-0.729l-23.93-0.301l-0.07-3.68l-2.939-0.18
		l-0.11-3.391l0.931-3.01l-1.66-4.47l1.05-1.22l0.16-1.181l1-0.649l-0.11-2.96l-0.62-1.631l-2.779-2.239l-1.29,0.25l-0.98,1.29
		l-0.5-0.09l-0.25-3.051l2.21-2.81l0.59-1.69l-1.05-1.18l-2.37-0.25l-0.43-1.22l3.67-2.46l-0.16-0.84l-1.51-0.74l-0.15-6.58
		l2.5-2.53l0.36-1.899l-1.86-5.921l-0.14-7.46l-1.59-3.439l0.609-1.04l3.44-2.12l-1.66-6.89l2.68-0.61l0.431-1.18l-9.17-14.101
		l-3.931-1.649l0,0l-25.989-32.98l-3.21-6.149l-0.11-9.49l2.39-3.05l3.78-1.88l1.02-1.18l0.32-1.87l-0.8-3.24l2.35-3.75l-1.96-7.05
		l-0.069-2.51l-2.66-2.44l-1.23-4.46l-1.229-1.85l-0.271-1.45l0.75-2.96l-2.16-1.4l3.141-5.02l-1.34-6.53l0.54-1.2l-1.66-3.21
		l1.37-1.81l3.59-9.98l-1.25-1.76l-1.09-5.15l0.54-1.99l-1.641-10.57l0.71-3.98l2.41-1.06l0.34-2.53l-1.52-1.25l-0.62-1.76
		l-0.271-5.54l0.771-4.53l-0.061-5.95l-5.989-9.48l-4.28-1.71l-3.61,1.42l-1.25-0.47l-0.05-3.76l-1.71-1.29l-1.38-2.38l-2.99-1.42
		l-0.38-2.51l1-2.26l-1.57-2.99l-1.569-0.62l0,0l5.52-10.3l0.38-3.11l-2.83-2.34l0.25-7.75l4.2-5l-2.64-4.46l-0.54-3.21l4.31-7.63
		l-0.67-2.38l0.36-1.87l1.84-3.02l0.48-5.98l1.119-4.99l4.171-4.23l2.01-1.03l6.76-1.25l3.94,1.12l1.47,1.78l2.55,0.89l0.74-0.07
		l1.03-1.28l0.029-2.47l2.98,0.61l3.859-0.8l1.54,1.58l2.33-0.51l0.521,1.43l2.01,1.28l1.41-1.38l0.45-1.45l8.109-2.2l1.61,0.78
		l5.13-1.11l0.73-0.34l0.35-2.23l3.79-1.58l4.09,2.05l1.14-0.16l2.591-4.46l3.83-1.53l0.829-1.09l1.881-0.76l5.699,1.4l1.141,1.36
		l2.46,0.89L537.015,33.35z"/>
	<path id="CG-8" fill="#1E3250" stroke="#1E3250" stroke-width="0.5" d="M347.205,296.56l-0.36,1.649l0.57,0.561l1.57-0.63
		l4.52,1.109l1.98-1.38l3.96,0.9l2.57,1.27l2.64-0.25l1.16,1.061l1.39,0.3l3.23-2.96l1.32-3.17l6.03-2.28l5.96-0.95l1.37,1.99
		l3.16-1.2l1.37,0.86l3.05-0.36l2.77,0.65l3.12,2.47l3.39,1.65l0.59,3.21l1.5,0.72l1.69-0.29l0.82,0.83l3.39,1.09l2.11,1.811
		l1.979,3.63l0.12,5.97l1.801,1.54l-0.261,3.86l4.87,1.25l3.42-1.45l3.34,2.24l1.46,1.92l3.46-0.141l0.57,1.86l0.95,0.81
		l57.64-28.949l0,0l3.931,1.649l9.17,14.101l-0.431,1.18l-2.68,0.61l1.66,6.89l-3.44,2.12l-0.609,1.04l1.59,3.439l0.14,7.46
		l1.86,5.921l-0.36,1.899l-2.5,2.53l0.15,6.58l1.51,0.74l0.16,0.84l-3.67,2.46l0.43,1.22l2.37,0.25l1.05,1.18l-0.59,1.69l-2.21,2.81
		l0.25,3.051l0.5,0.09l0.98-1.29l1.29-0.25l2.779,2.239l0.62,1.631l0.11,2.96l-1,0.649l-0.16,1.181l-1.05,1.22l1.66,4.47
		l-0.931,3.01l0.11,3.391l2.939,0.18l0.07,3.68l23.93,0.301l1.641,0.729l0,0l-5,6.49l-13.311,13.04l-7.58,3.899l-4.489,0.091
		l-4.29,1.279l-7.3,4.811l-5.28,2.3l-6.57,5.06l-4.16,4.07l-4.09,5.47l-10.52,21.12l0,0l-5.91,0.05l0.8-4.3l-1.87,0.25l-1.57-1.27
		l-3.89,0.3l-1.68,1.67l-1.48-0.7l-1.05,0.61l-2.09-0.07l-0.55-0.56l1.029-1.11l-3.6-0.95l0.16-0.7l0.93-0.229l-0.41-0.72
		l-1.609,0.59l-1.87-0.95l-1.07,0.58l-2.68-5.6l-0.3-3.03l-0.891-1.9l-1.16-0.52l-0.659-1.58l-1.131-0.57l-0.34-2.85l-1.67,1.04
		l-1.2-1.04l-1.939,0.77l-0.2-1.56l-1.07-0.63l-0.43-1.221l-2.46-0.159l-0.71-1.49l-1.68-0.59l-1.46-1.36l-2.131,0.3l-0.21-1.34
		l-1.46,0.21l-0.72-0.95l-1.91-0.819l-2.74,0.39l-1.36-0.93l-1.07,0.609l-1.23-0.25l-0.57-3.52l-0.73-0.07l-0.52,1.17l-0.45-0.13
		l-1.82-3.189l-1.92-0.141l-1.2-1.01l-1.57,0.09l-1.16-2.189l-3.57-1.5l-3.14,0.09l-1.82-2.66l-0.51-2.51l0.6-1.11l-0.6-2.08
		l-10.53-1.81l-2.41,0.34l-1.6,1.63l-2.43,0.25l-1.89-0.73l-1.48,1.341l-3.84,0.52l-1.41,0.81l-0.39,3.57l-2.39,2.53h-2.64
		l-1.55,2.939l-5.43,2.4l-2.78,2.24l-1.34,3.18l-3.53,3.17l-0.52,1.18l-1.46,3.61l-0.84,4.23l-1.89,2.6l-0.89,5.74l-2.59,1.859
		l-0.71,2.12l-2.84,2.74l-1.39,2.55l-2.93,2.04l-8.4,0.63l-4.57,2.19l-4.24,2.99l-1.39,2.58l-0.31,2.51l-2.01,2.979l-2.43,1.521
		l-6.78,11.37l-3.51,3.439l-3.64,1.511l-1.98,3.189l-4.32,0.88l-4.53-1.01l-0.7-2.6l0.36-7.351l0,0l1.99-1.609l1.65-11.671
		l2.49-2.939l-1.01-1.5l-3.85-2.39l-1.42-2.83l0.8-1.051l7.32-3.619l0.95-1.54l-0.25-2.11l-1.61-3.08l0.3-0.85l2.64-2.16l0.2-1.48
		l-3.98-4.04l0.06-1.97l2.45-4.67l0.22-1.91l0,0l8.5-0.07l14.15-7.029l13.14-8.53l8.46,0.89l1.11-0.84l1.21-3.17l6.79-6.52
		l8.95-11.19l-10.88-19.72l2.45-5.021l2.88-10.6l0.25-13.55l-7.33-4.271l-2.52-4.27l-2.78-9.78l0.5-1.81l4.07-3.21l5.05-1.761
		l2.28,0.5l2.27-2.26l3.25,0.22l2.56-0.72l2.53,1.51h2.78l2.78-1.76l2.52-2.76l-5.3-7.28l-10.11-5.27l-1.3-1.41l5.17-3.29
		l0.81-1.561L347.205,296.56z"/>
	<path id="CG-9" fill="#1E3250" stroke="#1E3250" stroke-width="0.5" d="M141.625,483.939l5.09,3.73l2.28,6.029l1.29,7l3.72,4.521
		l5.58,3.27l2.2,2.82l0.75,3.01l-0.4,4.46l0,0l0.76,12.24l0.62,2.07l-0.75,7.39l0.68,10.86l0.64,3.279l2,5l-2.41,0.12l-1.71,1.58
		l-2.48,1l-0.25,0.68l1.27,1.761l0.62,2.489l2.43,0.82l1.78-0.09l5.21,5.11l-2.26,7.54l0.1,6.06l-2.71,2.09l-0.8,1.811l-3.12,1.06
		l-1.43,2.2l-1.2-0.21l-3.17,1.14l-2.5-0.609l-0.45,4.319l-0.85-0.18l-1-1.25l-2.73,1.75l-2.3-1.11l-4.41,1.15l-4.07-0.43
		l-4.21,1.949l-2.44,6.63l-2.73,0.271l-1.43,1.32l1.77,1.63l-1.02,1.2l1.61,0.989l0.03,1.721l1.86,0.21l0.55,0.59l-0.24,2.16l0,0
		l-2.17,1.909l-0.98,3.061l0.98,5.41l1.27,2.38l-1.43,1.899l0.73,2.54l1.32,1.811l-2.39,1.2l-2.14,1.97l0.16,1.16l5.64,3.71
		l4.69,7.5l4.39,5.03l6.64,5.67l7.12,11.619l3.99,8.73l3.16,0.57l1.37,2.92l0.59,0.229l1.95-0.229l1.32,0.52l1.89-0.54l1.75,1.09
		l2.37-0.319l4.39,1.649l3.07-0.06l2.12,3.78l2.87,3.56l0.57,2.54l1.25,0.64l0.61,1.851l2.5,2.5l0.05,2.47l0.77,1.29l2.6,0.46
		l6.1,4.311l5.52,3.01l0.76,1.819l0.3,5.78l0,0l-2.3-0.56l-3.27,1.3l-1.16,1l-0.69,2.32l-3.23-0.561l-1.94,0.44l-0.3,0.47l1.39,2.53
		l-0.6,1.17l-4.25-4.33l0.13-1.28l0.55-0.32l-1.2-3.979l-1.09-0.09l-1.19-1l-2.59,0.12l-2.35-1.24l-2.45-2.71l0.06-0.62l0.79-0.13
		l-1.5-2.7l-1.13-1.32l-1.9-0.88l-6.3-6.43l-1.52-0.13l-0.98,1l-0.25,3.72l-7.04-4.43l-2.23-4.15l-6.55-6.03l-0.26-4.75l-7.36,0.82
		l-2.64-2.939l0,0l-4.54-3.471l-1.93-0.79l-6.42,0.181l-2.52-0.73l-3.12-4.26l-0.8-2.021l0.94-6.14l-9.08-10.67l-1.37-0.84
		l-3.11-0.43l0.09-1.83l-0.78-1.021l-3.16-1.16l-5.89-0.859l-1.96-1.221l-3.1-0.189v-2.51l-1.82-0.5l-1.57-1.65l-5.73-0.73
		l-3.73-1.609l-7.69-5.271l-3.46-3.489l-4.37-0.65l0,0l1.67-0.021l5.87-5.93l-1.44-2.2l-5-3.46l-1.52-5.279l6.82-14.33l3.61-2.08
		v-2.82l-7.39-1.51l-5.31-4.72l-9.1-4.521l1.9-4.15l3.98,0.19l4.74-6.22l-9.86-10.931l-3.56-6.43l-3.55-1.939l-0.85,2.71l-1.13,1.14
		l-1.9,0.37l-1.14-0.37l-0.56-4.9l5.5-8.13l1.67-0.74l0.61-4.68l-0.03-2.13l-1.27-3.66l-2.57-3.63v-6.82l-1.22-8.729l1.23-0.37
		l2.16,1.53l5.28,1.89l4.15,5.39l1.07-0.29l2.8-3.27l2.03-1.34l8.56-0.83l2.83-1.39l1.8-0.11l4.99,3.76l1.39,2.75l35.08,0.21
		l-0.1-3.47l2.26-4.35l-2.56-3.82l-0.07-0.93l2.87-4.41l-0.4-2.261l-1.35-2.229l1.06-5.17l-2.43-2.92l-1.54-3.29l-0.65-6.141
		l-1.79-5.989h1.37l1.87,1.51l4.1,1.01l0.7-0.359l1.49-3.04l3.68-2.19l3.79-0.5l4.3,0.5l2.27,2.65L141.625,483.939z"/>
	<path id="CG-11" fill="#1E3250" stroke="#1E3250" stroke-width="0.5" d="M230.325,617.81l6.05,1.899l2.39,1.49l4.46-0.229
		l1.82-0.45l4.43-5.68l2.96-1.95l0.41-1.931l0.61-0.239l1.39,1.72l3.05,1.51l3.28,0.3l3.89,5.21l-0.27,1.721l0.52,2.49l1.57,2.1
		l-4.21,1.68l-0.14,1.45l-3.89,0.34l-0.36,0.66l2.32,2.74l0.77,2.58l2.12,1.27l0.57,2.76l1.39,1.431l-0.09,2.649l2.5,1.971l1.82,0.5
		l1.48,2.42l1.07,3.609l-1.89,0.92l-0.46,1.29l-1.43,0.841l-0.71,1.54l-2.18-0.65l-1.21,0.47l-2.52-1.42l-0.84,0.271l-1.35,2.6
		l-1.5,1.34l-1.82,0.43l-0.11,1l-1.82,0.971l-0.78,2.06l1.46,4.04l-1.39,1.43l-0.18,1.29l-4.12,0.311l-2.98,2.66l-1.57,2.47
		l-5.64,2.08l-1.41,3.33l-0.53,6.35l-1.77,4.33l-1.12,1.18l-0.91,4.091l0,0l-1.94-1.13l-1.97-3.79l-2.75-2.091l-3.08,0.21
		l-1.57,1.61l-2.26,0.49l-0.55,3.01l1.8,3.62l0.01,2.1l-1.21,2.88l-1.67,2.11l0.42,1.09l-0.88,1.54l0.39,1.99l1.31,0.5l-0.08,2.24
		l-3.63,0.22l1.12,2.42l-0.69,2.2l-1.39-0.47l-1.92-1.801l-1.56,0.141l-2.97,5.83l-1.29,0.56l0,0l-0.3-5.78l-0.76-1.819l-5.52-3.01
		l-6.1-4.311l-2.6-0.46l-0.77-1.29l-0.05-2.47l-2.5-2.5l-0.61-1.851l-1.25-0.64l-0.57-2.54l-2.87-3.56l-2.12-3.78l-3.07,0.06
		l-4.39-1.649l-2.37,0.319l-1.75-1.09l-1.89,0.54l-1.32-0.52l-1.95,0.229l-0.59-0.229l-1.37-2.92l-3.16-0.57l-3.99-8.73
		l-7.12-11.619l-6.64-5.67l-4.39-5.03l-4.69-7.5l-5.64-3.71l-0.16-1.16l2.14-1.97l2.39-1.2l-1.32-1.811l-0.73-2.54l1.43-1.899
		l-1.27-2.38l-0.98-5.41l0.98-3.061l2.17-1.909l0,0l0.56,0.689l1.59,0.05l1.21-1.05l2.09,0.101l0.77,0.899l-1.2,0.48l0.16,1.649
		l4.68-0.54l2.46,1.49l0.23,0.68l-0.98,0.721l1.53,0.529l-0.07,2.351l1.89,1.5l-0.03,1.01l2.14,1.25l0.71,4.53l1.29,0.29l-0.09,1.52
		l-0.79,0.891l0.47,1.17l1.12,0.59l-0.11,4.33l2.04-0.2l2.78,2.939l2.55,0.23l0.52,1.97l1.8,0.5l0.77,1.79l1.94,0.45l6.82-0.91
		l2.69,0.98l5.03-2.2l4.16,2.22l3.16-0.77l1.87,1.09l0.43-1.2l1.78,2.17l-0.87,1.86l1.8,5.189l1.18,0.811l4.35,0.84l3.66-0.84
		l2.39-1.74l0.62-6.25l3.84-3.7l-0.16-3.08l2.35-1.77l0.52-1.561l-1.28-0.409l0.37-1.561l-1.82-0.14l0.04-2.46l1.55-0.71l2.94,0.729
		l2.09-1.27l-0.21-1.561l5.9,0.54l-0.21-2.149l0.71-1.561l1.16-1.09l2.21-0.57l1.16-1.67l-0.5-1.66l0.84-1.989l2.61-0.63l2.83-4.511
		L230.325,617.81z"/>
	<path id="CG-12" fill="#1E3250" stroke="#1E3250" stroke-width="0.5" d="M352.965,673.38l-2.96-2.95l-8.3,0.2l-1.97,3.149
		l-0.2,3.54l0.99,3.54l2.57,1.771l2.25-0.391l0,0l-7.59,9.44l-11.16,8.5l-3.53,3.81l-0.97,1.88l-5.75,5.36l-3.02,6.01l-0.51,2.29
		l-0.9,0.7l-1.19,2.62l-8.55,4.189l-4.01,3.381l-3.62,0.489l-4.45-1.609l-2.81-3.11l-4.03-0.6l-1.52-0.811l-5.16,3.88l-1.22-0.149
		l-0.74-2.681l-0.15-4.449l1.27-1.91l-0.72-1.38l0.15-3.44l1.59-5.63l-1.23-1.49l-2.35,0.08l-0.61-1.82l0.3-1.6l-2-1.06l-0.64-1.54
		l0.78-1.67l1.87-1.53l2.47-0.9l0.17,0.46l0.81-0.45l0.66,0.511l0.09-2.2l2.21-1.9l0.79-1.96l1.03-0.729l-3.56-2l-4.21-5.82
		l1.29-1.47l0.83-3.33l-3.81,0.58l-0.69,2.02l-3.02,0.01l-1.03,1.04l-1.52-0.17l-2.75,2.681l-6.41,3.41l-2.07-0.49l-4.43,1.41
		l-1.84-0.311l-3.28,1.57l-0.88-0.13l-2.04,4.01l-3.38,3.62l-4.85-0.8l0,0l0.91-4.091l1.12-1.18l1.77-4.33l0.53-6.35l1.41-3.33
		l5.64-2.08l1.57-2.47l2.98-2.66l4.12-0.311l0.18-1.29l1.39-1.43l-1.46-4.04l0.78-2.06l1.82-0.971l0.11-1l1.82-0.43l1.5-1.34
		l1.35-2.6l0.84-0.271l2.52,1.42l1.21-0.47l2.18,0.65l0.71-1.54l1.43-0.841l0.46-1.29l1.89-0.92l-1.07-3.609l-1.48-2.42l-1.82-0.5
		l-2.5-1.971l0.09-2.649l-1.39-1.431l-0.57-2.76l-2.12-1.27l-0.77-2.58l-2.32-2.74l0.36-0.66l3.89-0.34l0.14-1.45l4.21-1.68
		l-1.57-2.1l-0.52-2.49l0.27-1.721l-3.89-5.21l-3.28-0.3l-3.05-1.51l-1.39-1.72l-0.61,0.239l-0.41,1.931l-2.96,1.95l-4.43,5.68
		l-1.82,0.45l-4.46,0.229l-2.39-1.49l-6.05-1.899l0,0l1.4-1.07l-0.31-1.7l2.13-2.38l1.69-3.37l0.09-1.75l3.89-2.89l1.62-2.36
		l1.59-1.08l1.11-2.27l2.01-1.38l1.09-2.29l2.16-0.63l-0.36-1.521l1.66-1.22l0.59-2.22l1.43-0.811l-0.09-2.04l3.89-10.229l2.21-1.72
		l4.84-2.311l0,0l2.03,3.101l5.6,0.02l0.59,1.09l1.14,0.57l4.84-0.59l2.73,2.87l1.92,0.39l1.27,0.97l0.91-0.109l4.44-6.25l6-4.66
		l0.94-1.9l4.66-3.74l1.57-2.399l2.6-0.74l2.16-1.75l0.93-4.54l5.28-3.74l1.32-0.359l0.96,0.18l1.59,2.33l-0.09,2.29l1.61,1.76
		l0.71,8.47l3.46,0.431l4.46-1.681l3.02,0.95l2.96-0.29l2.5,2.53l0.41,2.939l0.98,1.86l2.76,0.66l0.88,1.24l3.76,1.56l3.61,0.23
		l2.55-0.82l4.96,1.29l2.82-0.521l5.67-2.17l8.03-6l3.39-1.08l1.21-1.039l1.96-0.141l0.88-1.939l2.73-1.86l7.01-1.95l0.96,1.2
		l1.55-1.83l0.31,1.33l1.76-0.25l0.93,1.18l1.25-0.43l5.78,3.15l1.25,1.54l0.23,1.439l1.57,0.73l0.95,1.27l2.96,0.311l2.119-1.261
		l1.98-0.229l7.95,1.13l0,0l1.2,6.03l-1.4,7.02l1.18,7.89l-0.7,4.2l0.421,1.38l2.72,2.36l-0.92,3.53l-1.971,4.55l-4.479,6.63
		l-1.6,4.85l-4.49,5.921l-4.68,10.569l-4.69,8.36l-2.32,7.649l-1.85,1.931l-2.97,1.18l-11.69,1.72l-12.48,4.311L352.965,673.38z"/>
	<path id="CG-13" fill="#1E3250" stroke="#1E3250" stroke-width="0.5" d="M442.525,108.759l1.569,0.62l1.57,2.99l-1,2.26l0.38,2.51
		l2.99,1.42l1.38,2.38l1.71,1.29l0.05,3.76l1.25,0.47l3.61-1.42l4.28,1.71l5.989,9.48l0.061,5.95l-0.771,4.53l0.271,5.54l0.62,1.76
		l1.52,1.25l-0.34,2.53l-2.41,1.06l-0.71,3.98l1.641,10.57l-0.54,1.99l1.09,5.15l1.25,1.76l-3.59,9.98l-1.37,1.81l1.66,3.21
		l-0.54,1.2l1.34,6.53l-3.141,5.02l2.16,1.4l-0.75,2.96l0.271,1.45l1.229,1.85l1.23,4.46l2.66,2.44l0.069,2.51l1.96,7.05l-2.35,3.75
		l0.8,3.24l-0.32,1.87l-1.02,1.18l-3.78,1.88l-2.39,3.05l0.11,9.49l3.21,6.149l25.989,32.98l0,0l-57.64,28.949l-0.95-0.81
		l-0.57-1.86l-3.46,0.141l-1.46-1.92l-3.34-2.24l-3.42,1.45l-4.87-1.25l0.261-3.86l-1.801-1.54l-0.12-5.97l-1.979-3.63l-2.11-1.811
		l-3.39-1.09l-0.82-0.83l-1.69,0.29l-1.5-0.72l-0.59-3.21l-3.39-1.65l-3.12-2.47l-2.77-0.65l-3.05,0.36l-1.37-0.86l-3.16,1.2
		l-1.37-1.99l-5.96,0.95l-6.03,2.28l-1.32,3.17l-3.23,2.96l-1.39-0.3l-1.16-1.061l-2.64,0.25l-2.57-1.27l-3.96-0.9l-1.98,1.38
		l-4.52-1.109l-1.57,0.63l-0.57-0.561l0.36-1.649l0,0l0,0l0,0l-0.54-0.59l-1.26,1.22l-0.7-2.62l-3.16-1.22l-0.98,0.609l-0.62-2.35
		l-2.45-0.36l0.22-1.88l-1.11,0.2l-1.09-1.13l-1.57,0.1l-2.46-0.93l-0.66-1.02l-0.27-4.45l1.43-2.49l-1.48-5.69l-0.05-6.02
		l0.82-4.81l-1.7-3.32l-0.37-2.38l3.26-3.46l3.36-1.08l0.14-2.22l-1.5-2.8l-3.64-1.42l-1.09-2.24l-0.05,0.45l-5.17,0.25l-5.09-1.33
		l-3.85-3.06l-4.98-1.85l-1.96-3.23l-1.91-1.34l-2.46-0.56l-3.75,0.72l-11.99-4l-3.51-2.69l-1.45-7.73l0.11-1.97l-0.84-1.26
		l-4.82,0.79l-2.32-0.48l-3.6,0.84l-5.21-0.27l-5.96,1.38l0,0l-2.49-0.9l-1.49-1.71l-4.72,0.07l-2.17,1.56l-3-0.41l-2.97-2.42
		l-0.15-1.41l-1.38-0.86l-1,1.48l-1.31,0.31l-1.38-0.49l-3.3,0.41l-2.8-1.26l-2.1,0.6l-0.82-0.68l-3.22,0.49l-0.57-0.81l-0.76,1.23
		l0.61-0.09l0.17,0.96l-0.88,0.31l-0.45,1.01l-0.69-0.11l0.26,2.11l-0.85,0.79l-1.59,0.69l-1.36-0.62l0.15-0.62l-1.07-0.15
		l-1.93,1.55l-1.65,0.2l-0.73-0.45l-3.7,0.8l0.07,1.22l-2.13-0.02l-0.34,0.73l-1.11,0.29l-1.2,2.15l-1.59,0.95l-1.27-0.43
		l-4.31,1.14l-4.09-1.86l-0.15-0.6l-1.87,0.23l-1.33,1.23l-1.86-0.69l-0.73,0.95l0.53,1.12l-1.69-0.06l-0.73,0.7l-1.72-0.38
		l0.24,1.96l-0.84-0.11l-0.43,1.49l-4.42-0.58l-3.05,0.11l-1.85,0.73l-3.22-1.33l0.96-1.33l0.89,0.27l0.81-3.67l2.88,0.6l0.6-1.51
		l2.14-1.01l0.54-1.67l-0.19-0.45l-0.93,0.43l-0.53-0.65l0.85-0.95l-0.64-0.9l0.88-1.74l-0.64-0.23l0.27-1.12l-1.24-1.07l-0.28-1.61
		l-1.03-0.44l0.14-1.33l-0.57-0.45l0.36-0.68l-1.2-1.31l-0.92,0.21l0.29-2l-1.61-1.93l-1.22,0.84l-0.37-0.39l-1.2-2.42l-0.6-0.11
		l0.28-1.31l-0.8-0.77l1.19-0.2l-0.18-1.72l0.64-1.16l-0.9-2.29l-0.24-3.98l1.68-1.74l0.12-1.52l1.91-1.23l-0.06-2.79l1.14-0.02
		l0.47-1.25l-0.9-1.33l0.45-0.54l-0.31-1.95l-1.58-0.38l-0.09-0.89l-0.99-0.51l-0.11-1.44l0.3-0.66l1.59-0.46l0.79-1.78l2.09-1.42
		l-0.56-2.89l2.08-1.34l0.92-1.8l2.25-0.37l1.05-1.16l-0.43-1.22l0.69,0.32l0.38-0.9l0.41-2.99l-0.69-1.65l0.28-0.86l-0.58-0.36
		l0.96-0.78l-0.64-1.11l0.64-1.14l77.54-0.09l0.88-0.06l1.09-1.05l3.29-0.43l7.12,0.65l3.02,2.17l9.2-3.35l0.9-1.18l1.34,0.7
		l0.81-0.72l2.38,1.71l1.51,2.81l1.4,0.42l0.26,1.79l2.87-0.12l1.36,1.74l1.69,0.44l-0.06-1.24l0.58-0.26l2.23,1.75l-0.11,0.47
		l-0.96-0.02l0.05,0.63l2.27-0.65l0.24,2.76l1.86-0.82l1.4,1.14l1.05-0.39l1.11-1.43l2.12,0.06l-0.43-1.71l1.35-0.61l0.42,2.96
		l2.81,1.35l-0.32,1.48l-1.3,1.5l2.06,1.67l3.69-0.55l1.56-2.34l3.85,2.76l0.69,1.79l1.95-1.96l0.75,0.35l-0.02,1.39l2.66,0.14
		l1.15-2.69l1.59,0.28l0.45-0.46l0.47-2.06l0.81-0.09l1.32,2.08l1.49-1.61l1.46-0.12l3.07,0.81l-0.7,1.35l1.35,0.23l2.54,1.91
		l1.42,2.12l-0.1,1.82l1.03,0.3l1.28-0.74l0.79,2.34l5.27-2.25l1.96-1.47l4.97-1.53l2.61,1.78l1.62-0.59l1.58,1.13l2.31-0.46
		l5.01,1.65l2.68-0.05l3.42,1.62l1.77-0.21l1.62,0.98l3.08,4.16l2.26,0.89l1.12,1.2l1.63,0.16l1.2,2.98l-0.22,0.69l2.47-0.77
		l0.47,1.1l3.53,1.12l5.97-0.03l0.11,1.09l-1.28,2.48l0.71,1.33l-0.35,1.85l0.8,1.8l2.65,0.34l1.569-2.62l2.96-0.86l2.021,1.13
		l0.68-1.83l-1.05-1.65l0.57-3.02l-0.561-2.94l-1.05-1.42l-0.96-3.2l-0.08-2.62l-1.939-0.25l-0.9-4.55l-2-1.93v-2.57l2.37-3.12
		l-1.54-2.06l1.88-1.55l-0.71-4.59l0.51-4.23l0.79-0.49l2.98,0.15l0.779,1.73h0.46l3.36-2.72L442.525,108.759z"/>
	<path id="CG-14" fill="#1E3250" stroke="#1E3250" stroke-width="0.5" d="M272.435,483.779l-0.36,7.351l0.7,2.6l4.53,1.01l4.32-0.88
		l1.98-3.189l3.64-1.511l3.51-3.439l6.78-11.37l2.43-1.521l2.01-2.979l0.31-2.51l1.39-2.58l4.24-2.99l4.57-2.19l8.4-0.63l2.93-2.04
		l1.39-2.55l2.84-2.74l0.71-2.12l2.59-1.859l0.89-5.74l1.89-2.6l0.84-4.23l1.46-3.61l0.52-1.18l3.53-3.17l1.34-3.18l2.78-2.24
		l5.43-2.4l1.55-2.939h2.64l2.39-2.53l0.39-3.57l1.41-0.81l3.84-0.52l1.48-1.341l1.89,0.73l2.43-0.25l1.6-1.63l2.41-0.34l10.53,1.81
		l0.6,2.08l-0.6,1.11l0.51,2.51l1.82,2.66l3.14-0.09l3.57,1.5l1.16,2.189l1.57-0.09l1.2,1.01l1.92,0.141l1.82,3.189l0.45,0.13
		l0.52-1.17l0.73,0.07l0.57,3.52l1.23,0.25l1.07-0.609l1.36,0.93l2.74-0.39l1.91,0.819l0.72,0.95l1.46-0.21l0.21,1.34l2.131-0.3
		l1.46,1.36l1.68,0.59l0.71,1.49l2.46,0.159l0.43,1.221l1.07,0.63l0.2,1.56l1.939-0.77l1.2,1.04l1.67-1.04l0.34,2.85l1.131,0.57
		l0.659,1.58l1.16,0.52l0.891,1.9l0.3,3.03l2.68,5.6l1.07-0.58l1.87,0.95l1.609-0.59l0.41,0.72l-0.93,0.229l-0.16,0.7l3.6,0.95
		l-1.029,1.11l0.55,0.56l2.09,0.07l1.05-0.61l1.48,0.7l1.68-1.67l3.89-0.3l1.57,1.27l1.87-0.25l-0.8,4.3l5.91-0.05l0,0l-6.42,12.61
		l-8.29,12.24l-10.54,11.63l-9.601,6.859l-3.359,6.11l-0.78,2.23l-0.59,12.85l4.35,19.7l-0.37,3.59l-2.47,6.31l0.14,3.801
		l-1.979,6.689l0.04,5.45l0,0l-7.95-1.13l-1.98,0.229l-2.119,1.261l-2.96-0.311l-0.95-1.27l-1.57-0.73l-0.23-1.439l-1.25-1.54
		l-5.78-3.15l-1.25,0.43l-0.93-1.18l-1.76,0.25l-0.31-1.33l-1.55,1.83l-0.96-1.2l-7.01,1.95l-2.73,1.86l-0.88,1.939l-1.96,0.141
		l-1.21,1.039l-3.39,1.08l-8.03,6l-5.67,2.17l-2.82,0.521l-4.96-1.29l-2.55,0.82l-3.61-0.23l-3.76-1.56l-0.88-1.24l-2.76-0.66
		l-0.98-1.86l-0.41-2.939l-2.5-2.53l-2.96,0.29l-3.02-0.95l-4.46,1.681l-3.46-0.431l-0.71-8.47l-1.61-1.76l0.09-2.29l-1.59-2.33
		l-0.96-0.18l-1.32,0.359l-5.28,3.74l-0.93,4.54l-2.16,1.75l-2.6,0.74l-1.57,2.399l-4.66,3.74l-0.94,1.9l-6,4.66l-4.44,6.25
		l-0.91,0.109l-1.27-0.97l-1.92-0.39l-2.73-2.87l-4.84,0.59l-1.14-0.57l-0.59-1.09l-5.6-0.02l-2.03-3.101l0,0l0.76-1.67l1.89-1.5
		l1.13-2.8l2.37-1.2l0.8-1.29l-0.94-2.9l-1.38-1.67l-0.98-6l-0.6,0.021l-1.06,1.74l-0.6-0.49l2.23-5.8l-1.2-0.681l-1.94,1.11
		l-1.54-1.4l-3.35,1.45l-2.27-1.359l-2.64,0.109l-0.55-0.609l-0.73-1.171l4.62-3.439l0.5-1.271l-1.57-1.06l-1.07,1.47l-0.59-0.18
		l-2.96-2.33l0.28-0.71l2.45-0.34l0.41-1.19l-0.63-1.16l-2.44-1.04l-0.64-5.039l0,0l4.48-8.25l4.44-4.591l-0.27-1.54l-4.3-6.18
		l-0.53-1.74l0.5-0.859l3.84-1.59l1.17-2.48l2.29-1.75l-0.48-7.08l0.82-2.88l4.58-4.271L272.435,483.779z"/>
	<path id="CG-15" fill="#1E3250" stroke="#1E3250" stroke-width="0.5" d="M347.205,296.56l-1.58,1.27l-0.81,1.561l-5.17,3.29
		l1.3,1.41l10.11,5.27l5.3,7.28l-2.52,2.76l-2.78,1.76h-2.78l-2.53-1.51l-2.56,0.72l-3.25-0.22l-2.27,2.26l-2.28-0.5l-5.05,1.761
		l-4.07,3.21l-0.5,1.81l2.78,9.78l2.52,4.27l7.33,4.271l-0.25,13.55l-2.88,10.6l-2.45,5.021l10.88,19.72l-8.95,11.19l-6.79,6.52
		l-1.21,3.17l-1.11,0.84l-8.46-0.89l-13.14,8.53l-14.15,7.029l-8.5,0.07l0,0l-5.13-21.11l-0.28-4.689l-0.77-2.771l0.45-1.699
		l2.06-2.891l2.46-9.06l2.28-4.91l-0.47-5.29l-2.44-5.22l-5.11-6.07l-1.2-0.69l-5.87-0.89l-5.04-2.02l-6.24,0.55l-0.37-6.2
		l-0.77-2.729l-1.04-1.41l-4.03-2.79l-9.51-4.49l-1.96,0.01l-1.75,2.19l-2.85-2.08l-1.47-2.97l0.07-2.41l2.26-3.44l0.94-2.66
		l0.56-6.79l1.28-0.359l0.76-2.15l-0.37-1.21l-2.06,0.08l-0.41-0.47l-0.75-3.271l0.71-0.99l0.25-2.31l-3.09-5.81l0.99-0.601
		l-0.58-0.84l0.33-1.44l2.32-2.13l1.31-0.31l-0.68-1.45l0.92-0.32l-0.58-0.54l0.93-0.88l-0.62-0.689l2.11-1.69l1.81-3.229l6.3-3.54
		l0.67-2.25l1.51-1.79l-1.82-2l0.97-2.23l1.96-2.319l1.07-0.69l2.65,0.26l2.19,0.99l1.65-0.64l1.96,1.17l2.88-0.971l2.56,0.37
		l-0.47-0.97l0.95-2l7.33-4.65l-2.04-2.85l0.69-2.12l3.87-3.55l-0.06-0.85l1.34-1.851l2.72-1.14l0.7-1.91l1.31-1.01l-0.95-3.07
		l-0.96-0.93l2.15-0.45l0.88-2.11l-0.36-1.85l-4.91-3.37l-3.13-7.11l-0.09-2.64l-4.26-4.55l-0.24-2.58l-1.21-2.17l-2.69-2.4
		l0.76-5.39l-2.17-3.37l-3.53-1.82l0,0l5.96-1.38l5.21,0.27l3.6-0.84l2.32,0.48l4.82-0.79l0.84,1.26l-0.11,1.97l1.45,7.73l3.51,2.69
		l11.99,4l3.75-0.72l2.46,0.56l1.91,1.34l1.96,3.23l4.98,1.85l3.85,3.06l5.09,1.33l5.17-0.25l0.05-0.45l1.09,2.24l3.64,1.42l1.5,2.8
		l-0.14,2.22l-3.36,1.08l-3.26,3.46l0.37,2.38l1.7,3.32l-0.82,4.81l0.05,6.02l1.48,5.69l-1.43,2.49l0.27,4.45l0.66,1.02l2.46,0.93
		l1.57-0.1l1.09,1.13l1.11-0.2l-0.22,1.88l2.45,0.36l0.62,2.35l0.98-0.609l3.16,1.22l0.7,2.62l1.26-1.22L347.205,296.56z"/>
	<path id="CG-16" fill="#1E3250" stroke="#1E3250" stroke-width="0.5" d="M65.655,722.289l-0.68-0.01l0.27-0.42l-1.95-2.27
		l0.11-0.841l0.5,0.32l-0.43,0.5l0.52-0.11l0.34,0.75l1.16-0.479l-0.09-3.31l-4.71-4.471l-0.86-1.97l0.04-0.62l2.01-0.22l1.59-2.521
		l-0.27-1.949l-2.39-3.551l0,0h9.53v21.21L65.655,722.289z"/>
	<path id="CG-BZV" fill="#1E3250" stroke="#1E3250" stroke-width="0.5" d="M352.965,673.38l-7.62,8.859l0,0l-2.25,0.391l-2.57-1.771
		l-0.99-3.54l0.2-3.54l1.97-3.149l8.3-0.2L352.965,673.38z"/>
</g>
</svg>
