<?xml version="1.0" encoding="utf-8"?>
<!-- Generator: Adobe Illustrator 15.0.0, SVG Export Plug-In . SVG Version: 6.00 Build 0)  -->
<!DOCTYPE svg PUBLIC "-//W3C//DTD SVG 1.1//EN" "http://www.w3.org/Graphics/SVG/1.1/DTD/svg11.dtd">
<svg version="1.1" id="Layer_1" xmlns:amcharts="http://amcharts.com/ammap"
	 xmlns="http://www.w3.org/2000/svg" xmlns:xlink="http://www.w3.org/1999/xlink" x="0px" y="0px" width="654.084px"
	 height="740.572px" viewBox="0 0 654.084 740.572" enable-background="new 0 0 654.084 740.572" xml:space="preserve">
<defs>
	
	
		<amcharts:ammap  projection="mercator" bottomLatitude="10.912107" leftLongitude="41.768974" topLatitude="12.712172" rightLongitude="43.417557">
		</amcharts:ammap>
</defs>
<g>
	<path id="DJ-AR" fill="#1E3250" stroke="#1E3250" stroke-width="0.5" d="M257.06,443.42l6.52,7.361l22.22,14.699l5.32,1.221
		l7.73,4.66l4.11-1.471l0.71-4.721l0,0l4.22-0.949l-0.31,2l-1.44,0.41l4.64,5.76l-0.21,1.039l-4.54-0.1l1.65,1.25l-1.44,2.621
		l-2.17,0.83l2.58,5.02l6.81,4.061l5.77,6.189l2.89,1.459l2.17,0.32l9.07,8.051l9.28,1.25l4.95-3.871l-0.31-2.09l0.93-1.35
		l3.61,1.561l14.54,1.469l-0.41-1.988l0.1-1.99l1.03-5.75l-5.36-3.24l-2.06,0.1l-3.92-5.221l1.65-2.619l4.33-0.211v-1.568
		l1.65-0.201l1.86-4.5l1.96,2.301l2.06,0.52l3.19-2.189l4.64-0.74l1.45-1.77l9.49-1.682l2.47-3.66l4.95,1.781l6.19-1.359l3.3-2.82
		l2.27-1.891l1.96-3.131l8.14,1.57l1.65-1.57l8.041-0.109l0.01-4.6l3.189,4.709l3.511-1.139l2.579,1.029l2.881,1.15l10.109-2.82
		l9.23-0.32l0,0v23.221l74.42-0.73l1.439,2.73l2.16,0.549l7.37-2.189l7.271-0.49l0,0l3.399,7.66l6.181,1.471l0.72-0.74l-1.54-1.359
		l-0.41,0.84l-4.23-0.84l4.33-1.771l7.011,4.91l3.92,4.5l0.41,5.432l4.619,5.779l2.66,0.869l-13.38,21.281l0,0l-56.24-26.74
		l-14.5,2.289l-43.689,8.441L429.37,550.5l0,0l-68.01,40.17l0,0l-64.93,1.49l-54.83-52.48l-6.04-72.49l15.46-18.859L257.06,443.42z"
		/>
	<path id="DJ-AS" fill="#1E3250" stroke="#1E3250" stroke-width="0.5" d="M493.77,642.141l-25.79,43.01l-15.489,1.939l-10.33,3.41
		l-2.53,0.07l-1.92-1.311l-4.36,1.611l-3.67-4.441l-1.91,0.531l-2.75-1.141l-20.68-2.209l-2.74-6.672l1.24-5.25l-1.38-5l-3.31-4.52
		l-0.96-3.83l-3.23-1.949l-0.8-4.6l-2.76-2.361l-2.21,0.311l-0.85,3.621l-1.8,1.18l-3.68-1.25l-6.52,2.91l-8.68,1.949l-3.18-4
		l-6.75-4.48l-2.57,0.371l-2.77-3.881l-5.28-2.92l-2.74,0.609l-6.26,4.42l0,0l-0.09-42.408l19.79-12.512l0,0l72.561-42.85l0,0
		l21.05-39.219l43.689-8.441l14.5-2.289l56.24,26.74l0,0L493.77,642.141z"/>
	<path id="DJ-DI" fill="#1E3250" stroke="#1E3250" stroke-width="0.5" d="M257.06,443.42l-6.04,4.91l-15.46,18.859l6.04,72.49
		l54.83,52.48l64.93-1.49l0,0l-4.55,2.68l0,0l-19.79,12.512l0.09,42.408l0,0l-1.43,4.33l-36.5,11.631l-31.63,21.949l-21.41-6.148
		l-2.37,0.59l-0.31,2.459l-3.03,1.541l-12.42-2.451l-9.73,2.01l-2.04,1.01l-2.59,3.691l-3.03,1.189l-25.95,2.68l-0.72-2.09
		l-2.4-1.549l-9.53-0.672l-6.75,1.691l-0.83-1.33l1.45-1.76l-1.12-0.631l-5.17,3.131l-7.81,0.709l-1.87,4.82l-6.7-0.01l-4.71,8.76
		l-6.37,0.311l-4.1-1.08l-10.17,5.23l-13.82-1.391l-6.37,4.92l-2.13,0.459l-2.28-0.148l-5.46-7.381l-5.16-2.15l-9.42-1.229
		l-16.09-3.99l-11.38-0.92l-2.89-4.301l-7.89-0.77l-2.13-6.15L33,682.77l4.71-4.76l2.43-21.08l2.12-35.789l0.76-37.359L41.5,559.93
		l-1.97-13.068l-12.47-48.4l-1.8-8.73l0.76-3.541l5.92-12.219l4.07-5.791l-0.43-6l1.22-4.309l4.86-8.32l-1.52-5.08l0.61-4.93
		L45,427.99l1.21-6.93l5.68-17.98l21.7-11.82l1.79-7.28l2.22-1.649l19.56-9.88l1.73-4.721l11.9-17.47l0,0l54.76,10.561l14.33,5.71
		L257.06,443.42z"/>
	<path id="DJ-DJ" fill="#1E3250" stroke="#1E3250" stroke-width="0.5" d="M552.29,470.4l0.819,1.99l-1.55,0.42l-0.72-1.881
		L552.29,470.4z M538.26,444.77l-0.21,4.092l2.07,1.139l1.05,2.32l-2.38,1.02l0.21,3.35l2.779,6.172l2.99,3.449l0.521,4.6l3.92,2.4
		l1.96,5.93l0,0l-7.271,0.5l-7.37,2.189l-2.159-0.549l-1.44-2.73l-74.42,0.73V456.16l0,0l8.09-0.619l4.33,1.459l13.2,0.111
		l0.72-1.051l7.73-0.631l13.41,3.352l-1.75-1.67l0.1-1.57l4.23-0.42l5.159,1.568l3.511,4.201l3.09,1.029l4.64-2.82l6.19-0.939
		l1.13-1.67l2.479,0.43l1.851-4.92l-2.99,0.1l-0.21,1.361l-1.55-0.1l1.859-2.611l-1.239,0.311l-0.42-0.939l-1.23,1.68l-0.31-1.051
		l2.27-1.869l3.59-0.09l0.44-3.17L538.26,444.77z"/>
	<path id="DJ-OB" fill="#1E3250" stroke="#1E3250" stroke-width="0.5" d="M530.34,33.99l4.28,1.7l2.37,11.26l6.949,17.38l6.07,5.6
		L561,86.121l13.6,15.9l8.67,15.02l4.19,3.33l1.31,3.09l2.19,0.93l-0.21,3.25l3.609,2.94h1.341l4.54-4.72l-1.24-1.05l-0.811-3.64
		l1.73-0.13l3.41,2.51l-1.75,6.92l1.75,11.23l2.79,7.77l2.47,3.56l2.99,0.63l3.1,5.88l5.98,29.57l-0.521,3.88l1.34,7.87l3.2,2.2
		l1.44,3.99l3.069,3.98l0.95,4.82l3.61,4.2l0.62,12.26l-1.44,2.83l2.95,6.19l-0.68,2.82l1.96,10.91v5.76l-0.94,9.95l-2.47,10.06
		l-14.641,29.75l-8.56,1.47l-14.85-1.36l-5.671,7.641l-17.109-0.75l-5.58,0.96l-1.23,1.89l-5.06-1.68l-10.41,2.1l-2.479,1.57
		l-6.801,8.69l-5.159,4.09l-2.061,4.81l-3.399,0.63l-3.721,4.08l-0.62,2.73l-1.85,1.04l-1.03,3.14l-4.33,4.73l-1.859,0.609
		l-2.471,5.13l0,0l-7.85-4.72l-6.52-6.13l-6.521-13l-0.97-5.4l-5.07-10.05l-12.32-12.27L415.65,244.99l-1.69-2.45l-0.24-2.95
		l-5.07-4.42l-6.53-3.19l-8.45-1.96l-9.42-5.16l-11.11-10.07l-4.59-5.65l-8.22-19.41l-2.41-2.21l-1.45-3.68l4.1-7.62l7.98-4.67
		l0.91-4.59l0,0l2.58,1.09l-1.2-4.26l6.02-6.2l2.39-0.32l4.51,1.54l4.42-1.38l1.97-2.25l-0.2-2.75l2.21-1.01l2.3-4.41l9.09-1.73
		l5.48,0.25l3.55-2.38l4.04-4.72l-2-9.88l-2.89-3.66l-2.63-0.21l-3.12-3.55l1.9-9.74l10.56-14.5l4.68,0.54l2.659-2.9l3.62,0.21
		l0.851-2.24l-1.82-2.56l2.49-2.31l-1.48-1.8l0.17-1.41l2.67-1.37l0.08-4.16l5.24-1.51l1.76-5.94l1.851-2.18l4.38-0.57l2.87,1.97
		l2.46,0.33l3.99-3.97l5.08-0.22l3.199-1.55l6.12-6.52L530.34,33.99z"/>
	<path id="DJ-TA" fill="#1E3250" stroke="#1E3250" stroke-width="0.5" d="M297.74,111.74l4.55,0.37l10.32,4.42l16.79,12.32
		l21.09,23.59l18.97,14.52l0,0l-0.91,4.59l-7.98,4.67l-4.1,7.62l1.45,3.68l2.41,2.21l8.22,19.41l4.59,5.65l11.11,10.07l9.42,5.16
		l8.45,1.96l6.53,3.19l5.07,4.42l0.24,2.95l1.69,2.45l59.959,65.541l12.32,12.27l5.07,10.05l0.97,5.4l6.521,13l6.52,6.13l7.85,4.72
		l0,0l-1.55,1.99l-3.819,0.84l-2.681,3.25v1.99l-2.27,0.729l-2.16,3.561l-10.01,1.57l-2.88-0.53l-2.99,1.57l-1.76-0.311l-1.98-2.29
		l-4.09,1.97l-5.17-0.1l-4.53,4.08l-2.17,5.339l-5.67,3.771l-1.75-1.361l-0.11-2.51l-1.609,1.359l0.79,1.471l-1.24,0.52l-1.96-0.629
		l-1.44-2.621l-7.12,0.211l-1.85-1.26l-3.61,1.15l-4.75-2.611l-2.069,0.41l-5.46,4.929l-6.9,0.42l-2.89,4.291l-3.92,3.139
		l-14.75,1.801l-2.47,2.801l-4.13,9l-4.02,4.389l-1.13,8.791l-3.3,3.141l-6.91,3.35l-8.04,10.67l-2.07,5.65l-0.93,12.549
		l-2.68,2.621l-0.72,2.609l-1.75,0.42l1.85,6.061l-8.45-3.451l-0.31,2.721l-3.1-3.24l-3.19-0.311l-2.89-1.779l-0.41,0.939
		l5.98,4.711l-4.33,0.1l-11.45-6.801l-8.66,4.4l-3.61-3.67l-0.93,1.051l-4.64-5.541l-3.81-0.52l-4.23-2.199l-3.82,0.1l-2.78,4.6
		l-0.11,0.529l-1.12,1.99l1.34,1.25l0,0l-0.71,4.721l-4.11,1.471l-7.73-4.66l-5.32-1.221l-22.22-14.699l-6.52-7.361l0,0l0,0l0,0
		l-77.18-76.889l-14.33-5.71l-54.76-10.561l0,0l14.3-20.96l13.74-17.439l3.1-7.931l8.3-13.52l6.72-15.95l3.18-3.04l10.09-1.9
		l4.09-15.5l4.96-6.22l7.19-13.17l9.74-11.08l9.31-14.13l23.16-22.92l8.59-27.42l20.1-27.26l9.03-10.86l13.81-13.85l4.24-0.08
		l6.65,3.23L297.74,111.74z"/>
</g>
</svg>
