<?xml version="1.0" encoding="utf-8"?>
<!-- Generator: Adobe Illustrator 15.0.0, SVG Export Plug-In . SVG Version: 6.00 Build 0)  -->
<!DOCTYPE svg PUBLIC "-//W3C//DTD SVG 1.1//EN" "http://www.w3.org/Graphics/SVG/1.1/DTD/svg11.dtd">
<svg version="1.1" id="Layer_1" xmlns:amcharts="http://amcharts.com/ammap"
	 xmlns="http://www.w3.org/2000/svg" xmlns:xlink="http://www.w3.org/1999/xlink" x="0px" y="0px" width="400.5px" height="316.5px"
	 viewBox="0 0 400.5 316.5" enable-background="new 0 0 400.5 316.5" xml:space="preserve">
<defs>
	
	
		<amcharts:ammap  projection="mercator" leftLongitude="32.997734" topLatitude="14.8942141" rightLongitude="48.0010561" bottomLatitude="3.4041369">
		</amcharts:ammap>
</defs>
<g>
	<path id="ET-HA" fill="#1E3250" stroke="#1E3250" stroke-width="0.5" d="M233.065,146.13l0.198-4.989l-4.909,3.387L233.065,146.13z
		"/>
	<path id="ET-DD" fill="#1E3250" stroke="#1E3250" stroke-width="0.5" d="M235.383,132.6l-14.514,2.044l-0.65,4.235l8.527-0.028
		L235.383,132.6z"/>
	<path id="ET-SO" fill="#1E3250" stroke="#1E3250" stroke-width="0.5" d="M164.978,292.26l7.834-11.626l22.976-10.511l10.021,8.612
		l16.894-0.169l6.704-6.101l18.293-2.78l17.492-13.582l35.469-1.762l76.256-77.943h-25.104l-75.169-25.684l-14.199-10.289
		l-14.627-20.257l-4.749-10.826l5.676-8.842l-6.468-2.846l-21.317,2.558l-12.956,1.272l-4.192,6.657l-1.545,18.58l-8.202,12.903
		l5.512,0.386l-1.71,3.109l10.628-5.06l11.726,0.82l0.65-4.235l14.514-2.044l14.364,30.749l-6.147,9.394l-9.898-12.234l-6.067,4.801
		l-3.948,23.394l8.838,7.293l-5.093,14.175l-10.1,7.533l-14.9-7.387l-4.264,5.973l1.606,18.184l-9.883,7.166l-12.908,0.815
		l-13.676,36.915l-9.521,10.04L164.978,292.26z"/>
	<path id="ET-AA" fill="#1E3250" stroke="#1E3250" stroke-width="0.5" d="M147.246,148.924l-0.956,0.108l-3.435,1.983l4.056,4.165
		L147.246,148.924z"/>
	<path id="ET-BE" fill="#1E3250" stroke="#1E3250" stroke-width="0.5" d="M83.624,152.579l-0.141-1.578l-0.311,1.644L83.624,152.579
		z M78.88,150.309l-1.965,4.405l5.455,1.625l-0.414-4.551L78.88,150.309z M87.313,140.576l-0.015-2.93L86.54,142.3L87.313,140.576z
		 M70.32,73.354l-8.895,6.516l-4.089-4.461l-5.201,5.394l-2.271,22.485l-4.664,4.829l-5.196-5.046l-6.986,7.976l-4.932,34.663
		l7.043,0.038l2.52-11.08l5.743,1.215l4.575-11.061l10.147,2.633l20.201,19.946l4.668-8.682l-3.562-14.557l9.394-7.241l2.209,3.312
		l11.443-2.478l-16.974-4.886l-1.456-8.395l4.899-13.379l-4.169-11.575l-4.758,2.987L70.32,73.354z"/>
	<path id="ET-AA_1_" fill="#1E3250" stroke="#1E3250" stroke-width="0.5" d="M144.075,124.125l4.047-7.533l-9.21-0.58l-1.988,5.842
		l-17.973,7.627l-16.484-11.726l-11.443,2.478l-2.209-3.312l-9.394,7.241l3.562,14.557l-4.668,8.682l-20.201-19.946l-10.147-2.633
		l-4.575,11.061l-5.743-1.215l-2.52,11.08l-7.043-0.038l0.607,15.339l19.301,10.675l5.375,0.386l-4.965,2.737l-0.01,6.85
		l5.319,7.702l4.004-1.428l2.341-7.655l9.676-0.702l2.318-5.413l5.333,12.979l26.612,8.499l7.222-4.278l-0.01-15.009l5.578,0.815
		l-2.497-11.519l18.137,0.108l3.053,3.825l5.163-4.862l2.737,9.182l-3.288-3.566l1.842,5.417l-4.734,12.493l-9.045,10.911
		l13.625,0.447l0.895,7.637l11.169,6.393l1.055,9.139l-16.238-6.835l-4.881,10.619l2.473,2.36l-3.962,1.348l-3.656-7.293
		l5.164-6.948l-10.289-4.075l-2.436,14.335l7.637,7.363l-3.708,2.375l-1.093,9.766l-23.319,1.592l-8.098,19.018l9.206,1.526
		l27.267,19.075l24.817,2.37l9.521-10.04l13.676-36.915l12.908-0.815l9.883-7.166l-1.606-18.184l4.264-5.973l14.9,7.387l10.1-7.533
		l5.093-14.175l-8.838-7.293l3.948-23.394l6.067-4.801l9.898,12.234l6.147-9.394L235.383,132.6l-6.638,6.251l-8.527,0.028
		l-11.726-0.82l-10.628,5.06l1.71-3.109l-5.512-0.386l-16.47,15.296l-5.729-7.528l-1.305,6.802l-11.236,2.054l1.517-9.13
		l-3.015-3.58l6.449-1.229l-16.328-10.44L144.075,124.125z M86.54,142.3l0.758-4.654l0.015,2.93L86.54,142.3z M146.29,149.032
		l0.956-0.108l-0.334,6.256l-4.056-4.165L146.29,149.032z M81.957,151.788l0.414,4.551l-5.455-1.625l1.965-4.405L81.957,151.788z
		 M83.172,152.645l0.311-1.644l0.141,1.578L83.172,152.645z M233.264,141.141l-0.198,4.989l-4.711-1.602L233.264,141.141z"/>
	<path id="ET-GA" fill="#1E3250" stroke="#1E3250" stroke-width="0.5" d="M47.995,171.725L28.694,161.05l-8.922,5.908l-12.969-2.205
		L0.64,178.405l18.231,6.591l12.041,14.161l28.469-0.881l-1.663-10.303l-4.004,1.428l-5.319-7.702l0.01-6.85l4.965-2.737
		L47.995,171.725z"/>
	<path id="ET-SN" fill="#1E3250" stroke="#1E3250" stroke-width="0.5" d="M143.383,173.944l-2.737-9.182l-5.163,4.862l-3.053-3.825
		l-18.137-0.108l2.497,11.519l-5.578-0.815l0.01,15.009l-7.222,4.278l-26.612-8.499l-5.333-12.979l-2.318,5.413l-9.676,0.702
		l-2.341,7.655l1.663,10.303l-28.469,0.881l12.748,10.439l15.033,33.509l12.597,0.994l-1.319,11.683l4.739,8.72l17.784,1.936
		l8.098-19.018l23.319-1.592l1.093-9.766l3.708-2.375l-7.637-7.363l2.436-14.335l10.289,4.075l-5.164,6.948l3.656,7.293l3.962-1.348
		l-2.473-2.36l4.881-10.619l16.238,6.835l-1.055-9.139l-11.169-6.393l-0.895-7.637l-13.625-0.447l9.045-10.911l4.734-12.493
		l-1.842-5.417L143.383,173.944z"/>
	<path id="ET-AF" fill="#1E3250" stroke="#1E3250" stroke-width="0.5" d="M185.494,14.119l-8.88-3.109l-8.329,3.387l3.802,10.209
		l-1.635,26.735l3.448,3.429l-2.812,11.212l10.463,32.025l-1.63,24.817l-3.552,0.975l0.631,8.602l-4.089-0.33l-1.046,15.32
		l5.729,7.528l16.47-15.296l8.202-12.903l1.545-18.58l4.192-6.657l12.956-1.272l0.65-18.302l14.735-19.55l-38.813-42.3
		L185.494,14.119z"/>
	<path id="ET-TI" fill="#1E3250" stroke="#1E3250" stroke-width="0.5" d="M123.686,0l-8.479,20.069l-6.525-9.116l-7.231,5.036
		l-11.047-0.773l-3.152,13.37l15.391,10.416l35.413-5.53l13.822,14.759l5.267-0.023l1.215,18.095l12.729-0.32L173.9,54.77
		l-3.448-3.429l1.635-26.735l-3.802-10.209l8.329-3.387l-12.173-2.921l-7.703,3.312l-4.979-5.474l-14.632,6.068l-7.368-6.755
		L123.686,0z"/>
	<path id="ET-AM" fill="#1E3250" stroke="#1E3250" stroke-width="0.5" d="M102.642,39.002L87.251,28.586l-8.16,27.705l-10.727,1.098
		l-11.028,18.02l4.089,4.461l8.895-6.516l9.69,9.154l4.758-2.987l4.169,11.575l-4.899,13.379l1.456,8.395l16.974,4.886
		l16.484,11.726l17.973-7.627l1.988-5.842l9.21,0.58l-4.047,7.533l3.873,7.745l16.328,10.44l-6.449,1.229l3.015,3.58l-1.517,9.13
		l11.236-2.054l1.305-6.802l1.046-15.32l4.089,0.33l-0.631-8.602l3.552-0.975l1.63-24.817l-10.463-32.025l-12.729,0.32
		l-1.215-18.095l-5.267,0.023l-13.822-14.759L102.642,39.002z"/>
</g>
</svg>
