<?xml version="1.0" encoding="utf-8"?>
<!-- Generator: Adobe Illustrator 15.0.0, SVG Export Plug-In . SVG Version: 6.00 Build 0)  -->
<!DOCTYPE svg PUBLIC "-//W3C//DTD SVG 1.1//EN" "http://www.w3.org/Graphics/SVG/1.1/DTD/svg11.dtd">
<svg version="1.1" id="Layer_1" xmlns:amcharts="http://amcharts.com/ammap"
	 xmlns="http://www.w3.org/2000/svg" xmlns:xlink="http://www.w3.org/1999/xlink" x="0px" y="0px" width="844.5px" height="878.5px"
	 viewBox="0 0 844.5 878.5" enable-background="new 0 0 844.5 878.5" xml:space="preserve">
<defs>
	
	
		<amcharts:ammap  projection="mercator" bottomLatitude="-3.9608057" leftLongitude="8.6990528" topLatitude="2.318109" rightLongitude="14.5269234">
		</amcharts:ammap>
</defs>
<g>
	<path id="GA-7" fill="#1E3250" stroke="#1E3250" stroke-width="0.5" d="M566.25,285.25l-26.96-6.04l-20.84,93.04L395.22,420.6
		l-1.82,49.48l28.25-6.68L459.05,509.3l0.3,32.45l58.061,36.66l18.34-10.03l21.73,8.84l23.21-57.859l35.449-29.12L614.9,470.56
		l14.699,5.551l40.29-53.29l-42.149-78.23l4.14-33.34l-32.02-25.04L566.25,285.25z"/>
	<path id="GA-2" fill="#1E3250" stroke="#1E3250" stroke-width="0.5" d="M657.73,312.3l-25.851-1.05l-4.14,33.34l42.149,78.23
		l-40.29,53.29L614.9,470.56l1.239,19.681l-35.449,29.12l-23.21,57.859l36.789,53.16l-5.399,13.22l67.46,9.46l39.14-47.399
		l22.44,36.2l-6.061,16.699l31.37,2.431l19.88-19.8l-11.89-17.931l41.41-74.2l-11.561-10.22l16.921-27.91L784.81,455.78
		l14.73-52.061l-19.33-23.35l-27.39-0.851l-8.86-24.579l-30.01-2.221l1.47-23.189L657.73,312.3z"/>
	<path id="GA-8" fill="#1E3250" stroke="#1E3250" stroke-width="0.5" d="M45.27,420.89l-2.25-22.409l-7.59,9.479L45.27,420.89z
		 M120.89,396.44l-36.36-42.19l-40.57,83.03l-11.35-25.8l-11.65,15.56l-20.5-29.42l19.84,46.25l2.38-0.9l2.83,7.96l8.02-1.41
		l-3.85,6.211l-5.55-4.351l13.66,17.55l3.79,15.971l0.42-8.98l4.93,5.271l0.65,3.199l-2.68,1.95l0.41,7.11l11.82,8.8l5.42-1.94
		l1.58,8.66l3.82,2.12l20.62-17.52l-6.72,38.939l23.39-13.17l14.19,18.891l-38.46,9.289l-2.15-19.239L64.3,519.01L53.71,501.86
		l-3.86-2.57l-2.13,0.21l-2.67-2.98l-4.93-10.18l4.55,11.71l17.24,24.12l10.77,12.23l4.87,35.18l36.12,12.57l3.51,19.899
		l-10.46-20.45l-26.99-6.31l44.85,65.53l77.84,28.68l-25.47,9.42l-18.9-23.7l-18.81-1.88l35.56,41.67l50.11-13.87l14.38-32.33
		l24.38-13.829l-20.37-47.62l-66.4-19.25L162.69,548.6l26.54-58.869l-21.51-12.921l1.81-30.64l-33.99-13.41L120.89,396.44z"/>
	<path id="GA-5" fill="#1E3250" stroke="#1E3250" stroke-width="0.5" d="M333.46,859.34l13.56-33.06l37.19-25.931l25.24,25.12
		l31.91-3.489l-9.62-16.29l16.05-33.771l-35.36-18.229l12.511-22.801l-33.44-27.67l-64.7-74.609l-63.13,6.37l-24.38,13.829
		l-14.38,32.33l-50.11,13.87l92.76,78.351l1.52,19.069L333.46,859.34z"/>
	<path id="GA-4" fill="#1E3250" stroke="#1E3250" stroke-width="0.5" d="M395.22,420.6l-55.53-24.529L271,402.98l-41.73,73.729
		l-22.26-2.54l-17.78,15.561L162.69,548.6l14.21,19.511l66.4,19.25l20.37,47.62l63.13-6.37l64.7,74.609l12.23-23.739l-8.01-41.761
		l26.14,11.761l96.83-11.73l-1.28-59.34l-58.061-36.66l-0.3-32.45L421.65,463.4l-28.25,6.68L395.22,420.6z"/>
	<path id="GA-3" fill="#1E3250" stroke="#1E3250" stroke-width="0.5" d="M291.19,284.94l-19.06,2.98l-16.58,35.69l-60.32,45.02
		l-14.95,5.4l-13.59-15.561l-46.19,15.75l0.39,22.221l14.65,36.319l33.99,13.41l-1.81,30.64l21.51,12.921l17.78-15.561l22.26,2.54
		L271,402.98l68.69-6.91l55.53,24.529l-38.89-93.92l41.68-41.51L291.19,284.94z"/>
	<path id="GA-9" fill="#1E3250" stroke="#1E3250" stroke-width="0.5" d="M366.18,0l-2.11,179.27l-126.85-0.42l-1.5,49.92l76.7-24.59
		l-21.23,80.76l106.82,0.23l-14.54-16.81l100.18-68.3l20.659-53.23l114.29,1.67l7.511-28.29l-15.12-22.65L630.27,6.18L423.53,2.81
		L366.18,0z"/>
	<path id="GA-6" fill="#1E3250" stroke="#1E3250" stroke-width="0.5" d="M740.56,127.49l-37.989-8.17L618.6,148.5l-114.29-1.67
		l-20.659,53.23l-100.18,68.3l14.54,16.81l-41.68,41.51l38.89,93.92l123.23-48.35l20.84-93.04l26.96,6.04l33.61,0.96l32.02,25.04
		l25.851,1.05l57.689,17.23l7.87-60.93l18-26.03l34.81-11.25l19.181-40.22l-29.73-57.51L740.56,127.49z"/>
	<path id="GA-1" fill="#1E3250" stroke="#1E3250" stroke-width="0.5" d="M95.27,205.37l-1.01-0.05l0.39,0.42L95.27,205.37z
		 M150.2,180.52l-13.26-9.8l-16.57,10.76l5.72,70.77l-4.78-17.86h-15.03l10.33-11.37l-30.73,7.61l-1.41,11.28l26.49,34.88
		l72.64,14.18l-36.77,8.59l7.38,14.05l-42.4-22.64l-2.23,12.34l-17.6-11.39l-2.04-24.06l-5.41,86.39l36.36,42.19l-0.39-22.221
		l46.19-15.75l13.59,15.561l14.95-5.4l60.32-45.02l16.58-35.69l19.06-2.98l21.23-80.76l-76.7,24.59l1.5-49.92l-59.8,0.69l-5.05,9.96
		L150.2,180.52z"/>
</g>
</svg>
