<?xml version="1.0" encoding="utf-8"?>
<!-- Generator: Adobe Illustrator 15.0.0, SVG Export Plug-In . SVG Version: 6.00 Build 0)  -->
<!DOCTYPE svg PUBLIC "-//W3C//DTD SVG 1.1//EN" "http://www.w3.org/Graphics/SVG/1.1/DTD/svg11.dtd">
<svg version="1.1" id="Layer_1" xmlns:amcharts="http://amcharts.com/ammap"
	 xmlns="http://www.w3.org/2000/svg" xmlns:xlink="http://www.w3.org/1999/xlink" x="0px" y="0px" width="836.5px"
	 height="205.22px" viewBox="0 0 836.5 205.22" enable-background="new 0 0 836.5 205.22" xml:space="preserve">
<defs>
	
	
		<amcharts:ammap  projection="mercator" bottomLatitude="13.0379673" leftLongitude="-16.8136312" topLatitude="13.8249497" rightLongitude="-13.7928726">
		</amcharts:ammap>
</defs>
<g>
	<path id="GM-N" fill="#1E3250" stroke="#1E3250" stroke-width="0.5" d="M406.41,87.94l-15.59-11.38l-1.87-24.07l-34.46-4.14
		l-5.34,15.92L72.97,63.23l1.29,27.59l14.03,18.69l-4.85,15.76l34.77,6.03l65.9-32.04l98.41-2.85l56.59-17.22l54.13,19.49
		L406.41,87.94z"/>
	<path id="GM-W" fill="#1E3250" stroke="#1E3250" stroke-width="0.5" d="M22.07,205.22l21.22-26.99l222.44,2.03l2.37-24.93
		l-86.55-9.62l-9.05,6.97l-11.16,0.62l-8.04-18.74l-48.17,13.18l16.45,16.7l-11.02,1.86l-2.63-14.69l-32.96-9.14l-11.03-24.29
		l-28.82,12.87l-15.5-18.28L1.94,130.85L22.07,205.22z"/>
	<path id="GM-L" fill="#1E3250" stroke="#1E3250" stroke-width="0.5" d="M438.33,70.6l-31.39,17.34l-10.761,15.07L342.47,84.27
		L321.98,99.2l-143.06,7.11l-17.45,25.85l7.37,20.29l12.71-6.74l86.55,9.62l4.56-24.82l140.33-11.03L438.33,70.6z"/>
	<path id="GM-B" fill="#1E3250" stroke="#1E3250" stroke-width="0.5" d="M63.94,118.18l1.27-20.77l-23.33-9.47l-22.26,24.83
		l15.5,18.28L63.94,118.18z"/>
	<path id="GM-U" fill="#1E3250" stroke="#1E3250" stroke-width="0.5" d="M604.92,135.05l48.521,23.77l44.25,1.67l79.72-23.12
		l20.649-17.32l-5.329-26.79l-33.04-26.94L659.14,99.87L628.74,82.36L604.92,135.05z"/>
	<path id="GM-M" fill="#1E3250" stroke="#1E3250" stroke-width="0.5" d="M466.14,0l-50.55,21.03l-33.58-8.1l-27.52,35.42l34.46,4.14
		l1.87,24.07l15.59,11.38h0.53l31.39-17.34l11.57-8.2l107.5,62.88l47.52,9.77l23.82-52.69l-21.3-33.81l-22.261-6.18l-30.25,13.09
		l-36.63-45L466.14,0z"/>
</g>
</svg>
