<?xml version="1.0" encoding="utf-8"?>
<!-- Generator: Adobe Illustrator 15.0.0, SVG Export Plug-In . SVG Version: 6.00 Build 0)  -->
<!DOCTYPE svg PUBLIC "-//W3C//DTD SVG 1.1//EN" "http://www.w3.org/Graphics/SVG/1.1/DTD/svg11.dtd">
<svg version="1.1" id="Layer_1" xmlns:amcharts="http://amcharts.com/ammap"
	 xmlns="http://www.w3.org/2000/svg" xmlns:xlink="http://www.w3.org/1999/xlink" x="0px" y="0px" width="799.66px"
	 height="1190.7px" viewBox="0 0 799.66 1190.7" enable-background="new 0 0 799.66 1190.7" xml:space="preserve">
<defs>
	
	
		<amcharts:ammap  projection="mercator" bottomLatitude="4.7388737" leftLongitude="-3.260786" topLatitude="11.175031" rightLongitude="1.1994743">
		</amcharts:ammap>
</defs>
<g>
	<path id="GH-TV" fill="#1E3250" stroke="#1E3250" stroke-width="0.5" d="M652.4,437.94l-32.15-0.28L603.39,481.1l0.33,24.181
		l26.65,5.17l-8.59,19.64l-48.34-14.729l-58.07,35.56l38.8,24.61l33.91,50.16l21.1,57.159l19.65,12.48l-2.37,31.729l-14.49,60.421
		l13.04,22.47L606.2,841.6l18.979,22.761l-22.52,46.92l40.58,17.609l0.529,19.28l45.761-5.05l25.89,31.86l-8.15,6.63l50.521-5.78
		l41.87-62.23l-79.43-55.149l-41.25-72.49l-3.86-23.76l18.58-10.51l8.56-52.931l-26.95-32.729l20.95-35.351l-6.899-91.489
		l24.949-17.07L652.4,437.94z"/>
	<path id="GH-AA" fill="#1E3250" stroke="#1E3250" stroke-width="0.5" d="M707.27,981.61l8.15-6.63l-25.89-31.86l-45.761,5.05
		l-15.329,13.36l-23.21-22.061l-25.721,3.04l-26.27,37.471l-53.021-3.61l-4.899,11.22l26.439,41.01l118.08-49.63L707.27,981.61z"/>
	<path id="GH-WP" fill="#1E3250" stroke="#1E3250" stroke-width="0.5" d="M210.83,1165.92l93.71-50.85l4.12-28.471l22.39-14.47
		l-33.41-34.71l-0.02-23.6l-37.35-7.2l-3.78-48.36l-57.88-46.779l15.87-27.141l-28.33-15.26l1.13-19.7l-19.41-2.99l-17.25,21.851
		L78.49,820.64l-10.62-46.17l-29.9-7.02l-7.95-19.891L0.34,826.59L42.15,991.5l15.06,17.32l27.38,0.029l11.37,42.391l-6.55,38.26
		l-63.4,12.57l137.04,30.96L210.83,1165.92z"/>
	<path id="GH-EP" fill="#1E3250" stroke="#1E3250" stroke-width="0.5" d="M626.46,727.06l-78.56-4.619l-69.721,24.64l-34.3,46.99
		l-27.79,10.1l10.22,23.04l-53.75,73.67l-8.88,52.521l22.11,24.72l109.53,9.47l4.899-11.22l53.021,3.61l26.27-37.471l25.721-3.04
		l23.21,22.061l15.329-13.36l-0.529-19.28l-40.58-17.609l22.52-46.92L606.2,841.6l18.81-31.649l-13.04-22.47L626.46,727.06z"/>
	<path id="GH-CP" fill="#1E3250" stroke="#1E3250" stroke-width="0.5" d="M363.68,953.4l-42.78,11.04L242.93,935.6l-28.45-51.26
		l-15.87,27.141l57.88,46.779l3.78,48.36l37.35,7.2l0.02,23.6l33.41,34.71l-22.39,14.47l-4.12,28.471L442.7,1079.8l79.06-51.2
		l-26.439-41.01l-109.53-9.47L363.68,953.4z"/>
	<path id="GH-BA" fill="#1E3250" stroke="#1E3250" stroke-width="0.5" d="M515.37,550.92l-75.73-32.53l-49.25,61.15l-32.18-68.09
		l22.77-37.22l-5.11-18.631l-39.28-17.8l-83.86,25.16l-8.12,45.03l26.23,22.41l-67.27,17.18l-84.8-113.94l17.38,104.58l-51.06,48.25
		l-27.1,66.36l-5.62,65.6l-22.35,29.13l7.95,19.891l29.9,7.02l10.62,46.17l72.13,47.601l2.32-53.66l19.08-3l11.83-24.66l-27.14-2.89
		l14.25-24.73l80.69-34.39l-49.97-31.72l6.55-19.45l46.43-1.2l34.97,23.05l49.26-50.99l23.48,29.33l98.479-14.5L547.9,722.44
		l78.56,4.619l2.37-31.729l-19.65-12.48l-21.1-57.159l-33.91-50.16L515.37,550.92z"/>
	<path id="GH-AH" fill="#1E3250" stroke="#1E3250" stroke-width="0.5" d="M547.9,722.44L460.85,659.43l-98.479,14.5l-23.48-29.33
		l-49.26,50.99l-34.97-23.05l-46.43,1.2l-6.55,19.45l49.97,31.72l-80.69,34.39l-14.25,24.73l27.14,2.89l-11.83,24.66l-19.08,3
		l-2.32,53.66l17.25-21.851l19.41,2.99l-1.13,19.7l28.33,15.26l28.45,51.26l77.97,28.841l42.78-11.04l8.88-52.521l53.75-73.67
		l-10.22-23.04l27.79-10.1l34.3-46.99L547.9,722.44z"/>
	<path id="GH-UW" fill="#1E3250" stroke="#1E3250" stroke-width="0.5" d="M330.62,26.54L76.7,30.18L59.61,96.69l29.63,38.93
		l-13.25,18.06L91.5,164.9l2.08,110.77l74.3-28.91l101.67-3.97l20.5-40.45l16.94-4.1l-16.92-16.34l6.34-22.23l22.26-24.97l22.33,6.5
		l-38.15-50.92L330.62,26.54z"/>
	<path id="GH-UE" fill="#1E3250" stroke="#1E3250" stroke-width="0.5" d="M532.11,0l-59.82,46.66l-11-15.75l-130.67-4.37
		l-27.77,63.74L341,141.2l23.96,16.8l17.93-33.94l37.82,0.96l24.5-29.34l15.21,1.02l6,21.08l103.43-33.15l19.36-66.26L556.46,5.12
		L532.11,0z"/>
	<path id="GH-NP" fill="#1E3250" stroke="#1E3250" stroke-width="0.5" d="M652.4,437.94l24.71-19.051l-13.36-29.319l19.09-63.69
		l-22.609-20.87L627.85,318.36l12.67-16.12l-14.159-6.14l27.779-8.78l-20.97-12.35l15.46-1.09l8.9-113.07L618.6,140.55l-48.75-55.92
		l-103.43,33.15l-6-21.08l-15.21-1.02l-24.5,29.34l-37.82-0.96L364.96,158L341,141.2l-22.33-6.5l-22.26,24.97l-6.34,22.23
		l16.92,16.34l-16.94,4.1l-20.5,40.45l-101.67,3.97l-74.3,28.91l15.01,69.271L87.93,384.59l20.48,7.28l10.36,41.77l84.8,113.94
		l67.27-17.18l-26.23-22.41l8.12-45.03l83.86-25.16l39.28,17.8l5.11,18.631l-22.77,37.22l32.18,68.09l49.25-61.15l75.73,32.53
		l58.07-35.56l48.34,14.729l8.59-19.64l-26.65-5.17l-0.33-24.181l16.86-43.439L652.4,437.94z"/>
</g>
</svg>
