<?xml version="1.0" encoding="utf-8"?>
<!-- Generator: Adobe Illustrator 15.0.0, SVG Export Plug-In . SVG Version: 6.00 Build 0)  -->
<!DOCTYPE svg PUBLIC "-//W3C//DTD SVG 1.1//EN" "http://www.w3.org/Graphics/SVG/1.1/DTD/svg11.dtd">
<svg version="1.1" id="Layer_1" xmlns:amcharts="http://amcharts.com/ammap"
	 xmlns="http://www.w3.org/2000/svg" xmlns:xlink="http://www.w3.org/1999/xlink" x="0px" y="0px" width="1315.4px"
	 height="998.381px" viewBox="0 0 1315.4 998.381" enable-background="new 0 0 1315.4 998.381" xml:space="preserve">
<defs>
	
	
		<amcharts:ammap  projection="mercator" bottomLatitude="7.189572" leftLongitude="-15.079952" topLatitude="12.679115" rightLongitude="-7.635945">
		</amcharts:ammap>
</defs>
<g>
	<path id="GN-B" fill="#1E3250" stroke="#1E3250" stroke-width="0.5" d="M255.81,525.54l-4.31,7.5l-4.25-0.18l0.05-3.5
		L255.81,525.54z M209.25,500.431l-5.99-7.561l5.72-10.24l12.81,17.86l-0.26,2.62l-5.38,0.65L209.25,500.431z M205.82,482.65
		l-4.12,6.52l-6.45,2.311l-4.16,0.09l-8.19-7.06l5.35-7.29l6.06-1.61l-0.65-5.95L205.82,482.65z M181.57,469.28l4.46,2.13l1.25,3.29
		l-6.61,8.62l-8.05-6.37l3.16-6.55l4.73,0.68L181.57,469.28z M164.6,466.011l7.51,0.35l2.83,2.88l-3.2,4.76l-3.2-0.83l-4.79-4.05
		L164.6,466.011z M113.58,378.641l-3.66,8.28l-11.34,8.319l-0.23-8.83l-2.74-2.13l2.74-9.9l4.8-1.479l3.5-5.11l13.13,1.061
		L113.58,378.641z M113.57,355.58l8.21,7.98l-0.61,2.63l-6.95-0.37l-0.65-5.14l-3.33-2.21L113.57,355.58z M66.94,347.37l1.19,2.55
		l-2.51,3.381l3.52,7.13l-4.07,5.55l-4.12-3.521l-1.37-5.83L66.94,347.37z M68.22,343.021l4.21,2.5l1.1,5.41l-4.3-0.69
		L68.22,343.021z M56.51,338.21l8.73,8.28l-7.96,10.87l-5.4-0.56l3.66,5.319l-5.44-1.3l9.05,7.96l-3.84,3.79l-8.87-2.03l-9.91-15.12
		l11.71-13.09L56.51,338.21z M91.28,331.61l4.29,1.55l-4.76,5.97l-8.46-1.159L91.28,331.61z M60.26,324.65l5.94,9.3l-0.32,6.021
		l-2.14,1.439l-6.83-4.8l-3.97,1.33L60.26,324.65z M301.49,55.48l19.07,1.189l4.41,2.99l18.23-1.18l4.23,3.52l8.81-2.439l6.07,2.78
		l3.92-2.221l3.72,9.54l-4.23,8.771l2.63,8.699l15.14,2.7l4.79-4.319l1.42-7.21l7.12-1.7l6.92,4.2l1.88,4.81l10.26,2.68l2.7,6
		l20.01,0.641l12.27,10.569l0,0l-32.39,18.92l-12.6,17.86l2.89,2.13l1.06,5.87l-3.94,7.19l1.06,8.8l7.89,4l-6.04,6.92l6.84,7.2
		l1.06,5.59l-1.05,3.2l-5.78,1.859l0.8,9.061l2.89,3.729l-0.78,5.32l-4.99,2.66v2.13l5.78,0.8l5,9.851l5,3.199l2.1-2.13l2.9,10.11
		l-10.77,5.84l-1.05,6.12l-17.6,8.76l-6.04,5.851l1.05,1.33l-10.77,6.64l-2.89,4.25l3.68,6.649l-4.46,3.98l1.85,9.04l-2.89,3.72l0,0
		L367.63,303l0,0l-10.77,1.051l-6.57,5.04l-7.88,1.85l2.9,12.22l-2.89,0.8l-10.8-36.67l1.04-11.16l-12.09,1.32l-16.29,7.7
		l-1.32-2.92l4.2-7.97l-1.05-2.92l-19.45-1.881l-13.92,9.03l-7.88,0.79l-2.89-1.859l-13.92,3.71l-5.78,3.979l-3.94-1.07l11.04,9.841
		l0.79,3.189l-2.89,3.98l5.78,0.8l2.9,6.109l-0.78,6.11l-2.89,3.72l-6.04,2.12l-3.94,7.96l8.94,9.83v3.98l-7.88,6.899l-17.6,7.95
		l-9.71,23.87l12.62,9.82v-4.24h3.94l1.83-8.75l7.88,0.8l3.94-3.71l7.89,5.05l4.99-1.319l1.84,6.1l2.1-1.06l2.63,5.31l4.21,0.8
		l22.32-20.939l8.75-1.851l5.18,6.9l-1.83,12.729l8.41-1.85l7.1,6.11l-8.93,12.72l3.16,3.979l-2.1,9.011l-2.89,2.909l-10.77,0.79
		l-2.89,2.9l-3.15,6.09l3.16,6.101l-8.67,8.739l-5.25,13.771l-6.83,1.06l-7.89-6.1l-7.62,3.17l-7.88-1.86l-10.76,18.53l-11.82,5.82
		v5.029l9.73,11.921l16.83,9.81l6.83,0.8L266,510l0,0l-5.81,11.58l-14.08,5.67l-24.19-21.029l2.97-7.33l2.44-1.03l-1.34-0.86
		l-1.58-2.409l-1.62,1.949l-1.05-3.09l-3.08-1.189l-4.79-8.551l-7.59-3.779l-5.72-8.681l-7.36-3.55l-2.56,1.34l1.51,4.94l-2.61,0.6
		l0.271-2.95l-8.92-4.619l1.28-5.221l-5.62,6.511l-4.34-3.83l-9.37-1.15l-0.04,3.79l-12.85-6.05l-11.02,5.03l-2.38-7.94l2.7-7.479
		l-1.1-6.37l-18.57-19.17l-6.63-2.351l-2.93,1.8l-1.28-2.17l-4.07,0.83l-0.91-8.59l3.43-3.28l-1.33-4.21l4.89-0.37l5.9-5.55
		l-3.61,0.561l-2.11-4.99l2.79-13.73l7-6.84l2.29-6.01l1.33-7.49l-3.38-2.17l2.06-1.25l-0.91-2.64l-3.7,2.08l-4.48-4.811l-4.53,1.53
		l-0.73,4.16l3.71,1.71l0.27,3.979l-7.27,0.32l-1.83,4.12l-6.13,2.68l-4.8,4.351l-0.05,7.31l-1.87,0.46l-4.57-4.02l-2.38-6.98
		l4.67-2.59L90.94,359l-4.02,4.301l-5.99,0.369l-1.51-17.859l8.19-5.32l4.89-0.09l3.89-5.09l3.93-1.2v-4.35l3.8-1.62l-4.07-0.88
		l-15.36,5.689l-2.24-1.25l-1.92,3.891l-9.88,5.039l-3.89-11.939l-4.34-3.561l24.9-54.85l16.91-20.74l24.56,1.33l32.38-17.41
		l8.47-12.58l3.25,1.961l18.22,0.39l8.01,5.649l8.49-4.27l9.93,1.29l5.74-2.51l1.69-3.59l8.59,2.72l4.22-9.37l-2.35-0.521l0.85-4
		l4.82,2l-1.4,2.82l2.09,2.4l4.67-1.771l-0.51,3.811l3.63,1.66l11.35-3.9l-1.14-28.66l2.43-20.56l-14.09-4.69l-4.38-7.85l-8.81-3.5
		l-3.55-4.74l-8.06-1.23l-3.83-9.3l7.02-7.45l10.69-1.31l-1.24-5.97l4.12-0.15l1.79,4.03l4.55-6.391l-0.48,7.36l5.16-0.229l1.66-3.9
		l6.24,4.96l5.78-9.52l4.41-2.12l0.02-15.101l4.37-7.43l-3.24-9.61l-3.85-4.17l-4.84-24.17L301.49,55.48z"/>
	<path id="GN-C" fill="#1E3250" stroke="#1E3250" stroke-width="0.5" d="M247.48,588.57l1.78,0.97l-2.61,0.74L247.48,588.57z
		 M253.15,582.12l3.02,5.16l-1.69,5.9l0.27-5.25l-3.15-4.24L253.15,582.12z M246.1,580.65l2.15,1.15l-5.53,4.609l-1.05,5.3
		l-1.14-4.88L246.1,580.65z M286.57,539.63l0.41,2.82l15.68,1.84l-6.24,6.561l5.69,9.149l-7.88,10.57l2.06,4.23l-3.59,9.909l0,0
		l-4.88-1.8l-9.24-11.75l-16.87,11.79l-2.29-1.43l4.87-2.41l4.41-5.97l1.78-7.69l4.98-5.069l1.69-15.99L286.57,539.63z"/>
	<path id="GN-D" fill="#1E3250" stroke="#1E3250" stroke-width="0.5" d="M307.79,620.061l1.88,1.979l-2.14,0.82l-0.87-1.12
		L307.79,620.061z M268.78,529.99l5.22,6.05l-7.45,7.471l-7-0.83l-5.94-4.101l3.2-7.33L268.78,529.99z M267.53,516.11l1.25,9.25
		l-3.25,1.88l-7.92,0.67L267.53,516.11z M266,509.98l-3.88-4.51l-6.83-0.801l-16.82-9.81l-9.73-11.92v-5.03l11.82-5.81l10.76-18.53
		l7.89,1.86l7.62-3.17l7.89,6.1l6.83-1.05l5.25-13.771l8.67-8.74l-3.16-6.1l3.15-6.09l2.89-2.91l10.77-0.79l2.89-2.91l2.1-9.01
		l-3.16-3.979l8.93-12.721l-7.1-6.1l-8.41,1.85l1.83-12.729l-5.18-6.9l-8.75,1.851L269.95,389.2l-4.2-0.8l-2.63-5.31l-2.1,1.06
		l-1.84-6.1l-4.99,1.319l-7.89-5.05l-3.94,3.71l-7.88-0.8l-1.83,8.75h-3.94v4.24l-12.62-9.82l9.71-23.87l17.6-7.95l7.88-6.899v-3.98
		l-8.94-9.83l3.94-7.96l6.04-2.12l2.89-3.72l0.78-6.11l-2.89-6.109l-5.78-0.8l2.89-3.98l-0.79-3.189l-11.04-9.841l3.94,1.07
		l5.78-3.979l13.92-3.71l2.89,1.859l7.88-0.79l13.92-9.03l19.45,1.881l1.05,2.93l-4.2,7.97l1.32,2.92l16.29-7.7l12.09-1.319
		l-1.04,11.16l10.8,36.67l2.89-0.79l-2.9-12.221l7.88-1.85l6.57-5.04l10.77-1.05l0,0l11.04-1.05l0,0l0,0l0,0l5.52,6.12l1.06,7.97
		l4.99,1.07l7.09-7.171h5.52l9.99,5.32l0,0l-6.82,15.4l-3.94-1.86l-15.75,15.92l-2.87,22.561l1.85,7.17l4.21,5.04l-4.2,5.83v3.979
		l2.37,1.86l-4.2,7.95l-2.89,1.06l4.74,6.9l1.06,6.89l3.94,0.8l7.09-5.56l4.73,2.649l5.78-0.79l14.72,8.761l12.87-11.65l6.83-1.06
		l17.86-12.98l1.84,3.18l-3.15,1.851v6.89l11.04,5.84l-2.36,4.24l9.99,5.84l-4.72,14.841l-2.89,2.909v6.891l2.89,2.92l0.79,6.09
		l8.939,0.8l3.681-3.97l17.61,2.13l1.06,7.95l15.78,24.64l1.06,8.74l-7.88,7.93l4.87,16.96l0,0l-13.16-7.899l-33.69,7.14l-4.14,4.48
		l-6.93,1.829l1.27,5.37l-4.51,9.101l-2.88,5.96l-5.021,2.96l-1.46,7.1l-2.63,0.96l-0.04,9l-4.84-0.21l-2.18,8.78l-4.3,2.69
		l1.62,3.84l-4.581,7.49l-1.37,9.039l-4.18,3.261l-6.6-1.15l-0.12,8.42l-3.95,0.521l-2.06,6.939l-3.72,2.3l-10.01-1.89l-3.32,4.63
		l-6.91-2.7l-3.91,8.521l0.44,8.79l-5.83,11.5l-3.33,3.64l-6.42,1.37l-3.05,5.04l-6.28,0.42l-10.97-7.08l-5.38,3.271l-10.04,0.869
		l-5.91,4.561l-2.24-5.66l14.48-15.41l-2.29-1.29l-5.4,3.13l-7.18-0.55l1.92-11.18l-3.06-14.96l3.02-2.9l-4.89-0.55l-2.38,9.67
		l-9.44-0.08l-2.67-12.49l2.01-9.12l-9.15,0.69l-5.94-6.22l-2.53-8.061l0,0l3.6-9.91l-2.06-4.229l7.88-10.57l-5.69-9.14l6.24-6.561
		l-15.68-1.84l-0.41-2.82l0,0l1.2-2.17l-7.82,1.891l-3.34-1.34l-1.1-5.21l-4.71-3.971l2.74-5.489l-3.38-1.61l0.78-5.26L266,509.98z"
		/>
	<path id="GN-F" fill="#1E3250" stroke="#1E3250" stroke-width="0.5" d="M818.28,130.44l2.98,0.07l2.6,4.67l1.75-3.65l5.7-0.439
		l0.83,2.659l7.93-0.229l7.6,4.7l9.91-1.011l0,0l-3.939,4.601l-12.87,6.12l-4.73,6.66l9.74,23.989l-4.99,3.73l1.061,7.189
		l-4.73,3.99l0.79,4l-5.78,6.92l0.011,2.931l3.939,0.8v2.13l-2.1,2.13l0.79,3.72l-4.73,2.931l-1.819,17.029l3.939,1.86l3.94,6.13
		l7.62,0.8l6.84,6.12l4.2-0.79l12.619,3.73l2.891,2.93l0.8,8.77l-2.63-1.859l-3.94,4.25v3.72l-3.939,2.93l-2.101-0.01l2.891-2.92
		v-3.72l-2.891,2.92l-5.779-2.13l-2.891,3.99l1.84,2.92H846.9l-1.84-2.13l1.83-4.78l-4.99,2.12l-1.84-6.12l-3.94,1.859l-3.939-3.72
		l-2.11,0.79l2.11,2.93l-3.94,1.32l-3.95-3.189l-1.04,6.109l-3.68,1.86l-2.1-1.86l2.88-4.25l-0.79-4.79l-2.101,6.12l-3.149-1.34
		l-0.79,4.26l1.84,1.86l-5.771,7.97l-15.77,3.71l1.06,4.25l4.99,2.93l-11.82,9.82l-12.609,1.851l-8.93-2.931l-3.681,2.92v5.051
		l-6.04-0.801l-2.89,2.65l0.01,14.08l-12.87,10.88l0.01,5.84l-2.89,5.04l-15.76,8.75l8.939,3.98l4.08,4.909l19.57,6.261l6.58,7.699
		l13.92,0.011l12.62-3.971l11.06,32.631l-4.21,3.18v2.649l8.94,2.921l2.62-5.57l4.21,0.8l3.68,1.86l-0.79,2.92h2.891l6.829-6.62
		l3.16,5.83l9.721-2.11l-3.15,7.95h4.21l2.89,3.98l2.62-4.771l4.21-1.06l2.891-0.79l4.989,0.8l-2.1,5.83l-4.73-1.061l-1.05,1.851
		l1.851,5.3l2.89,0.8l-1.84,2.91l-2.89-1.06v9.01l-6.82,5.029l-5.26-0.01l-1.83,10.86l6.05,9.01l-6.04,5.03l-2.89,2.91l-5.78,8.729
		h-4.72l-1.051,9.79l-6.04,7.141l6.061,17.739l-7.88,6.601l1.06,12.17l-6.04,3.7l-1.84,3.96l1.85,15.869l-3.939,6.87l2.11,6.08
		l2.63-1.319l8.939,4.229l11.03,0.01l9.72-8.979l9.71-16.91l2.891,0.01l7.1,6.08l0.79,5.82l4.729,3.17l14.971-9.771l7.89,1.86
		l9.73,6.88l-2.891,3.96l9.73,10.58l29.439,10.86l8.681,17.71l-8.66,8.97v7.92l-11.82,2.9l-3.149,2.109l-0.79,3.96l3.949,5.811v4.75
		l9.99,3.17v2.11l-9.979,4.75v1.85l3.949,5.01l6.83,1.851l4.73,5.02l-1.05,7.13l-3.67,1.84l6.58,10.82l0,0l-6.58-2.91l-13.92,1.84
		l-3.681-1.85l-6.04,3.69l-1.84,3.949l-8.93,1.311l-2.63-2.37l-8.931,6.06l-3.16,1.051l-1.05-2.11l-1.84,2.11l-2.89-2.11
		l-1.851-21.37l-3.159,0.79l-1.83,8.97l-6.83,2.891l-5.78-1.851l-0.01-7.12l-3.15-0.79l-6.57,7.9h-3.149v-5.27l-3.94-0.801
		l-1.85-4.75l-8.67-1.33l-2.37-2.899l1.31-9.76l-5-6.07l-3.939,1.05l-1.04,6.86l-3.94,3.16l-13.399,3.949h-4.21v-5.279l6.04-5.54
		l-3.16-10.82l-3.94,6.59l-20.14,2.141l0,0l-10.45-4.11l-12.03-0.45l3.11-9.89l-0.63-8.87l8.99-2.07l-1.891-6.67l1.96-8.34
		l-7.95-5.65l-3.189-7.55l-13.79-1.06l2.11-4.61l-7.73-6.68l0.09-6.75l3.431-3.73l-7.62-3.25l2.37-3.43l-8.49-7.26l-1.71-7.971
		l-6.83-2.33l-2.391-8.279l-10.1-13.9l-19.04-13.53l-3.39-16.04l-5.23-4.09l-44.04,0.13l0,0l1.021-9.22l4.99-5.02l6.56-15.88
		l3.14-12.71l-0.01-12.721l-3.16-20.14l-21.56-6.64l1.05-12.99l1.83-5.83l3.15-0.79l1.84-9.021l3.939-6.1l0.78-3.71l-1.84-1.33
		l3.149-4.77l-1.319-6.101l2.359-4.78l-9.72-8.76l-4.21,0.79l-1.05-5.05l2.88-6.63l8.93-7.96l11.04,3.729l18.66-2.64l20.48-10.87
		l2.63-4.25l-11.561-3.729l-7.89-7.971l-3.68,0.79l-5.261-5.85l-5-14.88l0,0l-0.01-6.91l12.08-15.94l12.61-2.92l10.77-9.83
		l-0.01-6.12l-7.88-3.729l-3.95,0.8l-2.89-6.92l11.819-9.04l-3.949-3.729l3.939-6.12l8.67-2.92l2.891-6.92l-0.801-17.841l4.99-4.79
		l-6.05-1.869l-2.89-4.261l-8.681-1.87l-0.01-12.79l-1.98-4.14l0,0l4.5-4.37l-0.22-5.62l4.96-0.3l0.811-3.96l5.199-2.8l4.61-14.36
		l4.84,2.59l14.29-2.819l6.271,3.37l2.25,6.89l5.22,4.94l9.04,3.72l-0.8,12l6.37,7.33l0.83,8.33l3.3,4.58l9.72,3.79l5.29-3.221
		l4.5-10.63l8.2-3.51l-2.521-4.05l9.11-3.221l0.229-5.83l2.7-1.3l-1.87-4.85l11.11-1.22l5.76-3.511l0.54-5.27l6.53,0.83l2.13-4.11
		l3.81,0.83l-1.02-5.55L818.28,130.44z"/>
	<path id="GN-K" fill="#1E3250" stroke="#1E3250" stroke-width="0.5" d="M996.55,83.7l14.841,2.38l21.31,11.931l11.09,15.42
		l-4.83,6.699l-0.97,9.931l4.66,5.53l6.6-1.711l4.58,7.82l-1.08,8.53l-1.939,0.979l0.34,9.011l6.819,2.989l2.57-3.13l3.88,0.5
		l4.44,5.66l-1.78,5.44l3.5,8.149l-9.78,49.38l11.37,1.101l4.141,2.5l4.35-3.92l6.931-0.891l0.449,9.92l2.59,1.87l3.131,10.971
		l6.83,7.76l5.97,1.58l6.75-5.76l2.899,5.789l-1.479,1.98l4.06,5.33l7.53,2.96l9.79-0.12l3.45,2.47l-5.74,1.24l-1.81,4.08l9.33,2.45
		l-1.961,6.96l-7.46,1.45l-9.359-3.061l-3.311,4.34l2.11,6.811l-13.15,2.89l-0.77,10.811l-1.67,2.319l-6.801,1l0.291,5.141
		l-4.03,4.21l-0.851,5.01l-5.109,4.32l0.68,8.75l2.67,1.02l6.35-2.689l5.261,2.51l8.979-4.351l3.44,0.721l1.979-9.9l4.971-6.2
		l11.069,1.07l4.69-2.18l8.82,4.52l6,8.84l1.89,23.66l-5.03,5.2l-3.75,9.99l5.5,1.819l-1.87,5.761l0.891,13.33l4.64,9.739
		l-0.56,9.48l2.45,7.3l2.81,1.9l3.19,9.22l8.579,1.82l8.69-3.841l4.74,10.65l15.869,3.29l5.65,7.22l1.4,14.12l-10.54,18.75
		l-14.851,8.34l-7.43,11.15l2.19,1.86l2.8-1.261l0.609,3.061l-7.85,5.13l0.77,2.42l5.971,1.87l-3.11,5.189l4.95,0.4l1.96,5.75
		l-4.62,15.13l0.28,14.39l-3.94,4.87l0.71,6.851l0,0l-33.39,1.029l-13.4,7.921l-7.88-1.86l-2.1,8.72l-3.15-0.8l-2.63,3.7
		l-2.89-1.061l-1.04,6.08l-5,1.05l-3.68-8.989l-2.37-0.79l-1.83,5.55l1.859,25.62l-2.89,2.899l-3.67,16.9l-7.88,7.91l-3.14,11.609
		l5,17.69l-2.891,3.16l-12.87,4.74l-6.56,10.81l-16.811,12.12l-20.76-4.24l-16.29,6.061l-6.05-0.011l-8.93-3.17l-11.57-10.819
		l-12.88-7.92l-22.601,4.989l-12.869-0.8l0,0l-6.58-10.82l3.67-1.84l1.05-7.13l-4.73-5.02l-6.83-1.851l-3.949-5.01v-1.85l9.979-4.75
		v-2.11l-9.99-3.17v-4.75l-3.949-5.811l0.79-3.96l3.149-2.109l11.82-2.9v-7.92l8.66-8.97l-8.681-17.71l-29.439-10.86l-9.73-10.58
		l2.891-3.96l-9.73-6.88l-7.89-1.86l-14.971,9.771l-4.729-3.17l-0.79-5.82l-7.1-6.08l-2.891-0.01l-9.71,16.91l-9.72,8.979
		l-11.03-0.01l-8.939-4.229l-2.63,1.319l-2.11-6.08l3.939-6.87l-1.85-15.869l1.84-3.96l6.04-3.7l-1.06-12.17l7.88-6.601
		l-6.061-17.739l6.04-7.141l1.051-9.79h4.72l5.78-8.729l2.89-2.91l6.04-5.03l-6.05-9.01l1.83-10.86l5.26,0.01l6.82-5.029v-9.01
		l2.89,1.06l1.84-2.91l-2.89-0.8l-1.851-5.3l1.05-1.851l4.73,1.061l2.1-5.83l-4.989-0.8l-2.891,0.79l-4.21,1.06l-2.62,4.771
		l-2.89-3.98h-4.21l3.15-7.95l-9.721,2.11l-3.16-5.83l-6.829,6.62h-2.891l0.79-2.92l-3.68-1.86l-4.21-0.8l-2.62,5.57l-8.94-2.921
		v-2.649l4.21-3.18l-11.06-32.631l-12.62,3.971l-13.92-0.011l-6.58-7.699l-19.57-6.261l-4.08-4.909l-8.939-3.98l15.76-8.75
		l2.89-5.04l-0.01-5.84l12.87-10.88l-0.01-14.08l2.89-2.65l6.04,0.801v-5.051l3.681-2.92l8.93,2.931l12.609-1.851l11.82-9.82
		l-4.99-2.93l-1.06-4.25l15.77-3.71l5.771-7.97l-1.84-1.86l0.79-4.26l3.149,1.34l2.101-6.12l0.79,4.79l-2.88,4.25l2.1,1.86
		l3.68-1.86l1.04-6.109l3.95,3.189l3.94-1.32l-2.11-2.93l2.11-0.79l3.939,3.72l3.94-1.859l1.84,6.12l4.99-2.12l-1.83,4.78l1.84,2.13
		h4.729l-1.84-2.92l2.891-3.99l5.779,2.13l2.891-2.92v3.72l-2.891,2.92l2.101,0.01l3.939-2.93v-3.72l3.94-4.25l2.63,1.859l-0.8-8.77
		l-2.891-2.93l-12.619-3.73l-4.2,0.79l-6.84-6.12l-7.62-0.8l-3.94-6.13l-3.939-1.86l1.819-17.029l4.73-2.931l-0.79-3.72l2.1-2.13
		v-2.13l-3.939-0.8l-0.011-2.931l5.78-6.92l-0.79-4l4.73-3.99l-1.061-7.189l4.99-3.73l-9.74-23.989l4.73-6.66l12.87-6.12
		l3.939-4.601l0,0l3.57,6.62l10.77,1.83l5.091,4.99l9.27-0.021l5.19,6.921l12.02,0.069l6.63,4.15l11.5,1.35l0.63-5.64l3.34-3.561
		l-0.34-7.51l7.79-8.22l14.65-3.32l10.229-8.89l10.641-2.43l12.22,2.909l7.05-19.35l-6.02-3.09l-8.271-11.78l-3.16,0.47l-0.17-2.85
		l5.75-2l1.271-3.72l3.689,0.45l0.63,2.699l2.66-3.979l5.83,3.13l1.601-2.3L996.55,83.7z"/>
	<path id="GN-L" fill="#1E3250" stroke="#1E3250" stroke-width="0.5" d="M638.21,96l6.88,1.891l0.96,4.05l-6.439,1.93l-0.57-2.93
		l-3.84,2.81l-1.71,4.7l2.5,10.67l-10.36,12.931l4.73,11.859l15.32,5.82l2.34,7.35l17.17,11.28l15.149-6.83l0,0l1.98,4.14
		l0.01,12.79l8.681,1.87l2.89,4.261l6.05,1.869l-4.99,4.79l0.801,17.841l-2.891,6.92l-8.67,2.92l-3.939,6.12l3.949,3.729
		l-11.819,9.04l2.89,6.92l3.95-0.8l7.88,3.729l0.01,6.12l-10.77,9.83l-12.61,2.92l-12.08,15.94l0.01,6.91l0,0h-1.84l1.05,2.13
		l-7.619-2.141l0.789,6.12l-9.72,1.851l-9.979,5.84l-11.82,14.86l-5.51,2.92l-7.101-0.801l-14.71,15.921l-20.5-6.12l-5-9.83
		l3.94-10.09l-0.79-5.851l-6.05-4.79l-7.88-2.13l-8.95-11.96l-5.521-1.07l-12.08,2.38l-6.56,15.41L503.74,310l-6.58-8.77h-3.149
		l-11.561,3.97l-5-2.13l-4.72,9.03l-9.99-5.851l-2.63-10.899l0.78-8.76l-2.11-2.4l-2.89,1.06l-6.83-7.71l-11.83,1.851l-3.681,1.859
		l2.9,2.13l-2.1,3.98l-7.88,2.92l-0.79,2.92l-4.2,2.12l-8.66,19.92l0,0l-9.99-5.32h-5.52l-7.09,7.171l-4.99-1.07l-1.06-7.97
		l-5.52-6.12l0,0l2.89-3.71l-1.85-9.04l4.47-3.98l-3.69-6.649l2.89-4.25l10.77-6.641l-1.05-1.33l6.04-5.85l17.6-8.76l1.04-6.12
		l10.77-5.84l-2.89-10.11l-2.1,2.12l-5-3.19l-5-9.85l-5.78-0.811v-2.13l4.99-2.66l0.78-5.319l-2.89-3.73l-0.79-9.05l5.78-1.86
		l1.04-3.199l-1.05-5.591l-6.84-7.199l6.04-6.92l-7.88-4l-1.06-8.801l3.93-7.189l-1.05-5.87l-2.89-2.14l12.6-17.851l32.39-18.92l0,0
		l8.76-4.88l5.28-0.29l11.54,5.08l9.939,10.28l17.92-7.99l12.44-2.18l10.271-8.92l7.77-0.311l4.06,3.96l4.32,0.45l15.71-5.7
		l8.87,5.61l14.46,1.6l8.09-0.939l8-5.021l21.811-3.25l11.8,0.22L638.21,96z"/>
	<path id="GN-M" fill="#1E3250" stroke="#1E3250" stroke-width="0.5" d="M412.82,315.24l8.66-19.92l4.2-2.12l0.79-2.92l7.88-2.92
		l2.1-3.98l-2.9-2.13l3.681-1.859l11.83-1.851l6.83,7.71l2.89-1.06l2.11,2.4l-0.78,8.76l2.63,10.899l9.99,5.851l4.72-9.03l5,2.13
		l11.561-3.97h3.149l6.58,8.77l12.08-7.96l6.56-15.41l12.08-2.38l5.521,1.07l8.95,11.96l7.88,2.13l6.05,4.79l0.79,5.851l-3.94,10.09
		l5,9.83l20.5,6.12l14.71-15.921l7.101,0.801l5.51-2.92l11.82-14.86l9.979-5.84l9.72-1.851l-0.789-6.12l7.619,2.141l-1.05-2.13h1.84
		l0,0l5,14.88l5.261,5.85l3.68-0.79l7.89,7.971l11.561,3.729l-2.63,4.25l-20.48,10.87l-18.66,2.64l-11.04-3.729l-8.93,7.96
		l-2.88,6.63l1.05,5.05l4.21-0.79l9.72,8.76l-2.359,4.78l1.319,6.101l-3.149,4.77l1.84,1.33l-0.78,3.71l-3.939,6.1l-1.84,9.021
		l-3.15,0.79l-1.83,5.83l-1.05,12.99l21.56,6.64l3.16,20.14l0.01,12.721l-3.14,12.71l-6.56,15.88l-4.99,5.02l-1.021,9.22l0,0
		l-67.76,0.37l-3.41,10.24l-35.14,10.61l-4.46-0.86l0,0l-4.87-16.96l7.87-7.94l-1.05-8.729l-15.79-24.64l-1.051-7.94l-17.609-2.14
		l-3.681,3.97l-8.93-0.8l-0.79-6.09l-2.899-2.92V439.7l2.89-2.91l4.72-14.83l-9.99-5.84l2.36-4.24l-11.04-5.84l-0.01-6.899
		l3.16-1.851l-1.851-3.189l-17.859,12.979l-6.83,1.061l-12.87,11.649l-14.72-8.76l-5.78,0.79l-4.73-2.65l-7.09,5.561l-3.94-0.8
		l-1.06-6.891l-4.73-6.899l2.89-1.061l4.2-7.95l-2.37-1.859v-3.98l4.2-5.83l-4.21-5.04l-1.85-7.17l2.88-22.55l15.75-15.92l3.95,1.86
		L412.82,315.24z"/>
	<path id="GN-N3" fill="#1E3250" stroke="#1E3250" stroke-width="0.5" d="M1178.21,578.341l4.86,10.659l8.44,10.63l15.18,0.95
		l12.58-3.46l1.41-3.109l5.46-0.351l-6.33,15.82l0.159,8.57l-6.3,12.149l0.96,5.04l6.261,4.84l4.75-3.34l3.27,0.5l-0.77,4.021
		l16.68,12.01l-4.68,1.96l-7.921-2.65l-15.35,10.58l-9.06,34.42l7.479,7.431l9-2.011l15.37,2.591l13.22,35.93l4.36,6.439l-3.35,9.49
		l6.64,11.74l-17.13,0.68l-7.13-14.939l-6.391-4.38l-0.93,9.479l-8.84,2.62l0.31-2.96l-6.01-2.061l1.33-5.939l-4.1-2.94l-5.4,0.391
		l-2.35,2.47l-13.171-3.77l-11.35,3.079l-10.57-2.25l-7.789,9.761l3.279,14.479l-2.02,4.49l1.27,7.84l-2.93,7.32l4.77,0.34
		l6.5,5.649l8.761,0.601l9.46,5.729l4.819-7.27l3.57,3.16l3.21-2.01l-2.64,15.899l11.18,9.89l0.16,4.86l-6.37,0.33l-2.63-4.66
		l-9.45,2.72l-1.33,10.631l-8.47,16.449l7.479,8.32l0.07,2.99l-3.74,11.25l-7.54,4.75l-0.63,6.23l-4.649,5.869l-0.12,6.32
		l-3.44,6.04l-3.52,1.87l-12.261-7.15l-2.199-4.02l-10.96,4.729l-3.9-6.51l-4.021,0.67l-9.01,8.83l-15.319-11.76l0.909-11.011
		l-16.399-0.59l-7.81,9.271l-2.61,14.49l2.239,7.239l-10.92,9.94l-0.75,5.91l-5.159,1.79l-5.69,8.91l2.03,10.529l-2.4,3.32
		l-9.02,0.37l-2.101-4.44l-3.52,0.4l-0.66,3.79l-2-1.19l-1.76,2.99l-8.721,1.32l-8.1,7.04l-6.33,1.22l1.7-5.32l-3.61-7.899
		l-6.21,0.05l-6-4.91l-1.95-12.76l-4.149-1.45l-7.78,1.62l-5.76-8.16l-6.67-0.03l-7.721,6.71l-2.289-5.76l-11.021,10.141L961.69,925
		l6.2-6.26l10.14-23.17l-2.23-11.521l4.4-11l-2.54-7.829l-5.11-2.16l-5.439-8.771l-1.48-14.14l3.74-5.21l-2.95-11.29l-5.319,1.93
		l2.51-5.819l-3.09-15.61l-9.28-2.22l0.53-10.471l4.689-4.069l-2.49-3.011l0.371-4.209l-3.15-2.5l5.59-3.711l1.01-4.66l-8.77-1.09
		l-7.62-8.17l-4.351,4.301l-8.02,0.75l4.39-9.32l-5.33-4.97l-5.159-0.48l-4.221,7.79l-4.55-8.19l1.61-4.279l-3.96-4.88l-6.681,2.46
		l-0.72,5.279l-7,2.5l-2-2.18l-9.95,0.44l-12.43,9.38l-9.93,3.359l-2.011-1.38l2.08-11l-11.64-4.88l-14.33,7.42l-12.229-0.72
		l-7.33-2.99l-8.98,1.65l-10.99,16.149l-16.6,14.471l-4.29-0.05l-2.88-4.011l-12.66-1.43l-4.39,11.18l-3,0.37l3.76-14.64l7.07-4.681
		l0.58-14.619l3.119-2.381l1.36-8.42l6.47-4.96l0.58-3.989l9.32-2.391l6.78-4.57l2.04-6.079l-8.86-10.41l-2.07-5.78l-8.42-5.28
		l-1.89-28.029l2.439-10.381l-2.189-3.369l0,0l20.14-2.141l3.94-6.59l3.16,10.82l-6.04,5.54v5.279h4.21l13.399-3.949l3.94-3.16
		l1.04-6.86l3.939-1.05l5,6.07l-1.31,9.76l2.37,2.899l8.67,1.33l1.85,4.75l3.94,0.801v5.27h3.149l6.57-7.9l3.15,0.79l0.01,7.12
		l5.78,1.851l6.83-2.891l1.83-8.97l3.159-0.79l1.851,21.37l2.89,2.11l1.84-2.11l1.05,2.11l3.16-1.051l8.931-6.06l2.63,2.37
		l8.93-1.311l1.84-3.949l6.04-3.69l3.681,1.85l13.92-1.84l6.58,2.91l0,0l12.869,0.8l22.601-4.989l12.88,7.92l11.57,10.819l8.93,3.17
		l6.05,0.011l16.29-6.061l20.76,4.24l16.811-12.12l6.56-10.81l12.87-4.74l2.891-3.16l-5-17.69l3.14-11.609l7.88-7.91l3.67-16.9
		l2.89-2.899l-1.859-25.62l1.83-5.55l2.37,0.79l3.68,8.989l5-1.05l1.04-6.08l2.89,1.061l2.63-3.7l3.15,0.8l2.1-8.72l7.88,1.86
		l13.4-7.921l33.39-1.029l0,0L1178.21,578.341z"/>
</g>
</svg>
