<?xml version="1.0" encoding="utf-8"?>
<!-- Generator: Adobe Illustrator 15.0.0, SVG Export Plug-In . SVG Version: 6.00 Build 0)  -->
<!DOCTYPE svg PUBLIC "-//W3C//DTD SVG 1.1//EN" "http://www.w3.org/Graphics/SVG/1.1/DTD/svg11.dtd">
<svg version="1.1" id="Layer_1" xmlns:amcharts="http://amcharts.com/ammap"
	 xmlns="http://www.w3.org/2000/svg" xmlns:xlink="http://www.w3.org/1999/xlink" x="0px" y="0px" width="811.35px"
	 height="491.33px" viewBox="0 0 811.35 491.33" enable-background="new 0 0 811.35 491.33" xml:space="preserve">
<defs>
	
	
		<amcharts:ammap  projection="mercator" bottomLatitude="10.8599702" leftLongitude="-16.7151339" topLatitude="12.6869468" rightLongitude="-13.6265235">
		</amcharts:ammap>
</defs>
<g>
	<path id="GW-TO" fill="#1E3250" stroke="#1E3250" stroke-width="0.5" d="M433.3,470.94l98.46-152.9l73.37-16.93l-19.689-21.76
		l-59.681,11.81l-25.24-27.14l-34.699,68.41l-81.98,6.42L368.95,352.7l-12.69-2.66l-9.47,11.26l1.15,39.4l46.33,17.99l7.08-29.851
		l-6.189,64.101l60.33-59.53L433.3,470.94z"/>
	<path id="GW-GA" fill="#1E3250" stroke="#1E3250" stroke-width="0.5" d="M790.4,1.58L628.6,0.9L616.98,47.84l-38.29-8.65l19.909,20
		L571.95,79.3l32.84,56.66l-25.05,21.28l5.7,122.11l19.689,21.76l37.521-29.09l147.319-11.01l1.57-78.78l-65.42-40.04l73.03-38.07
		L790.4,1.58z"/>
	<path id="GW-BA" fill="#1E3250" stroke="#1E3250" stroke-width="0.5" d="M628.6,0.9L489.37,0.3l5.6,54.57l-28.56,13.01l9.149,62.75
		l-38.5,5.65l30.99,38.47L457.36,194.4l-18.94,29.5l36.93,21.09l25.17,19.03l25.24,27.14l59.681-11.81l-5.7-122.11l25.05-21.28
		L571.95,79.3L598.6,59.19l-19.909-20l38.29,8.65L628.6,0.9z"/>
	<path id="GW-QU" fill="#1E3250" stroke="#1E3250" stroke-width="0.5" d="M475.35,244.99l-37.909-9.19l0.659-36.71l-97.83,14.71
		l-29.62,45.45l32.55,9.68l22.68-0.66l32.05-19.43l-2.22,25.94l25.58-13.27l-10.8,13.01l43.31,12.84l-30.52,17.81l1.95-19.41
		l-43.49-1.91l10.79,12.86l-61.42,22.16l-7.68,42.37l39.29-34.01l5.88,0.189l-8.06,17.05l4.88,5.57l18.42-11.19l81.98-6.42
		l34.699-68.41L475.35,244.99z"/>
	<path id="GW-OI" fill="#1E3250" stroke="#1E3250" stroke-width="0.5" d="M417.24,0l-72.51,32.93l-10.14,47.76l-75.06,26.15
		l20.98,67.68l9.3,12.08l1.66,5.56l20.68,18.24l145.21-16l10.689-19.65l-30.99-38.47l38.5-5.65l-9.149-62.75l28.56-13.01l-5.6-54.57
		L417.24,0z"/>
	<path id="GW-CA" fill="#1E3250" stroke="#1E3250" stroke-width="0.5" d="M334.59,80.69l10.14-47.76L268.47,66.6l-134.45-6.16
		L0.85,93.46l71.27,43.25l103.81-48.23l-77.41,67.28l37.4,50.41l23.84,7.63l37.63-9.65l30.98-29.1l41.3,5.52l10.84-6.05
		l-20.98-67.68L334.59,80.69z"/>
	<path id="GW-BL" fill="#1E3250" stroke="#1E3250" stroke-width="0.5" d="M218.45,413.39l-11.79-15.55l-8.37,40.82l25.14-3.37
		L218.45,413.39z M199.45,408.84l-21.9-1.16l10.51,25.45L199.45,408.84z M175.23,405.17l-47.96,18.311l45.24,18.38L175.23,405.17z
		 M232.95,397.64l4.03-27.359l-17.18,14.56L232.95,397.64z M281.63,375.21l-24.34,2.32l-5.08,27.6L281.63,375.21z M138.2,368.36
		l-20.08,21.319l28.91,2.66L138.2,368.36z M280.64,318.87l-18.37,11.979l14.61,2.53L280.64,318.87z M138.45,330.74l10.54-17.54
		l-35.95,16.67L138.45,330.74z M128.71,296.48l-46.54,24.06l37.87-1.95L128.71,296.48z M210.74,296.25l-39.04,32.69l47.69,0.93
		L210.74,296.25z M331.11,281.85l-41.26,27.74l41.74-9.97L331.11,281.85z M361.83,272.68l4.05-4.41l-22.68,0.66l-2.93,33.11
		L361.83,272.68z"/>
	<path id="GW-BS" fill="#1E3250" stroke="#1E3250" stroke-width="0.5" d="M312.15,210.4l-20.68-18.24l-13.86,43.33L312.15,210.4z"/>
	<path id="GW-BM" fill="#1E3250" stroke="#1E3250" stroke-width="0.5" d="M196.34,213.26l-47.35,4.35l2.83,17.07l29.83,14.16
		L196.34,213.26z M289.81,186.6l-9.3-12.08l-10.84,6.05l-39.51,7.49l-28.91,62.59l45.1-36.85l16.15,7.34l-25.31,29.51l40.42-15.16
		l13.86-43.33L289.81,186.6z"/>
</g>
</svg>
