<?xml version="1.0" encoding="utf-8"?>
<!-- Generator: Adobe Illustrator 15.0.0, SVG Export Plug-In . SVG Version: 6.00 Build 0)  -->
<!DOCTYPE svg PUBLIC "-//W3C//DTD SVG 1.1//EN" "http://www.w3.org/Graphics/SVG/1.1/DTD/svg11.dtd">
<svg version="1.1" id="Layer_1" xmlns:amcharts="http://amcharts.com/ammap"
	 xmlns="http://www.w3.org/2000/svg" xmlns:xlink="http://www.w3.org/1999/xlink" x="0px" y="0px" width="830.5px" height="870.5px"
	 viewBox="0 0 830.5 870.5" enable-background="new 0 0 830.5 870.5" xml:space="preserve">
<defs>
	
	
		<amcharts:ammap  projection="mercator" bottomLatitude="4.3510552" leftLongitude="-8.6020589" topLatitude="10.7400151" rightLongitude="-2.493031">
		</amcharts:ammap>
</defs>
<g>
	<path id="CI-SC" fill="#1E3250" stroke="#1E3250" stroke-width="0.5" d="M710.81,738.67l-11.949,1.86l20.489,3.52L710.81,738.67z
		 M732.38,648.57l-19.84-56.681l-34.3,61.681l4.16,71.33L664.56,735.39l29.62,4.9l19.53-32.67l3.09,29.74l48.7-2.46l-2.48-56.99
		l-24.039-3.47L732.38,648.57z"/>
	<path id="CI-LC" fill="#1E3250" stroke="#1E3250" stroke-width="0.5" d="M507.36,425.49l-21.53-2.971L435.81,462l-48.83-2.73
		l21.98,16.03l-5.67,31.46l16.2,33.75l25.899,35.96l31.641,17.17l35.52-6.02l-5.05-41.98l-23.02,0.79l-7.23-20.149l21.96-17.67
		l18.64-83.511L507.36,425.49z"/>
	<path id="CI-MC" fill="#1E3250" stroke="#1E3250" stroke-width="0.5" d="M672.39,447.93l-7.35,0.67l-14.43,21.131l9.87,13.93
		l-26.83,12.229l0.04,46.33l12.38-1.22l9,36.91l28.199,25.39l-9.42,42.75l4.391,7.521l34.3-61.681l-11.69-50.569l21.511-55.37
		L672.39,447.93z"/>
	<path id="CI-MV" fill="#1E3250" stroke="#1E3250" stroke-width="0.5" d="M107.15,513.95l-24.44-16.66l-38.19,48.06l-20.9-6.84
		L0.48,559.89l26.2,5.48l0.84,14.62l65.03,8.979l16.7,41.23l44.46,14.75l3.74,28.66l42.34-8.25l-2.8-101.091l15.43-12.939
		l-8.54-48.92L107.15,513.95z"/>
	<path id="CI-LG" fill="#1E3250" stroke="#1E3250" stroke-width="0.5" d="M431.12,730.99L431.12,730.99l-14.54-9.061l0.96,21.13
		l55.68-3.909l-53.79-5.471L431.12,730.99z M477.03,593.64l-31.641-17.17l-3.8,19.55l30.93,14.11l9.16,41.42l-19.66,74.101
		l-19.079,1.109l44.63,12.391l117.25-13.521l-106.261,6.72l17.671-17.479l-1.801,10.76l102.08-15.33l21.221,9.771l-7.971-13.391
		l9.95,14.37h-35.7l60.55,14.34L682.4,724.9l-4.16-71.33l-4.391-7.521l-34.659-8.95l-25.94,37.32l-53.41,2.5l-41.74-33.57
		l25.641-48.1l-31.19-7.63L477.03,593.64z"/>
	<path id="CI-NC" fill="#1E3250" stroke="#1E3250" stroke-width="0.5" d="M602.97,365.65l-0.029-8.12L535.35,387.7l1.341,26.479
		L517.85,425.1l-18.64,83.511l-21.96,17.67l7.23,20.149l23.02-0.79l5.05,41.98l31.19,7.63l41.359-1.35l6.4-31.92l42.19-19.761
		l-0.04-46.33l26.83-12.229l-9.87-13.93l14.43-21.131l-5.7-32.85L602.97,365.65z"/>
	<path id="CI-AG" fill="#1E3250" stroke="#1E3250" stroke-width="0.5" d="M655.07,577.91l-9-36.91l-12.38,1.22L591.5,561.98
		l-6.4,31.92l-41.359,1.35l-25.641,48.1l41.74,33.57l53.41-2.5l25.94-37.32l34.659,8.95l9.42-42.75L655.07,577.91z"/>
	<path id="CI-VB" fill="#1E3250" stroke="#1E3250" stroke-width="0.5" d="M449.02,190.12l-19.68-11.99l-20.609,39.05l4.77,28.03
		l-31.07,5.85l11.31,40.3l34.63,45.36l-51.56,24.49l-7.3,33.86l8.17,32.859l9.3,31.34l48.83,2.73l50.021-39.48l21.53,2.971
		l10.489-0.391l18.841-10.92L535.35,387.7l67.591-30.17l10.25-77.36l-37.301-3.67l-41.14-34.84l-52.85-0.52l6.71-26.83l-17.58-24.06
		L449.02,190.12z"/>
	<path id="CI-ZA" fill="#1E3250" stroke="#1E3250" stroke-width="0.5" d="M655.73,107.4l-71.11,13.26l-22.51,27.76l19,49.25
		l37.06,9.51L630,228.11l-12.36,8.09l13.92,22.48l-18.369,21.49l-10.25,77.36l0.029,8.12l56.37,50.1l5.7,32.85l7.35-0.67
		l49.971,38.021l40-117.19l37.159-35.12L784.74,239.2l-20.32-17.39l12.97-55.2l-17.62,8.04l-52.859-66.91L655.73,107.4z"/>
	<path id="CI-BS" fill="#1E3250" stroke="#1E3250" stroke-width="0.5" d="M141.4,840.92l219.88-88.52l15-32.58l-11.09-37.24
		l-18.4,5.87l-10.73-21.46L307.42,642l-16.89-57.37l-56.02,7.64l-22.09-40.939l-15.43,12.939l2.8,101.091l-42.34,8.25l3.68,40.8
		l-28.2,55.08L141.4,840.92z"/>
	<path id="CI-SB" fill="#1E3250" stroke="#1E3250" stroke-width="0.5" d="M441.59,596.02l-63.33,2.891l-42.2,68.08l10.73,21.46
		l18.4-5.87l11.09,37.24l-15,32.58l56.26-9.341l-0.96-21.13l14.54,9.061l11.82-4.23l19.079-1.109l19.66-74.101l-9.16-41.42
		L441.59,596.02z"/>
	<path id="CI-HT" fill="#1E3250" stroke="#1E3250" stroke-width="0.5" d="M282.83,395.45l-80.11,2.84l11.64,19.81l-10.48,84.311
		l8.54,48.92l22.09,40.939l56.02-7.64l39.4-9.06l7.55-19.221l-22.96-61.04l37.2-23.97l-67.18-11.79l44.45-47.93l-18.71-20.88
		L282.83,395.45z"/>
	<path id="CI-FR" fill="#1E3250" stroke="#1E3250" stroke-width="0.5" d="M419.49,540.51l-42.68,19.931l-39.33-4.091l-7.55,19.221
		l-39.4,9.06L307.42,642l28.64,24.99l42.2-68.08l63.33-2.891l3.8-19.55L419.49,540.51z"/>
	<path id="CI-MR" fill="#1E3250" stroke="#1E3250" stroke-width="0.5" d="M377.68,427.93l-8.17-32.859l-40.52,16.55l-44.45,47.93
		l67.18,11.79l-37.2,23.97l22.96,61.04l39.33,4.091l42.68-19.931l-16.2-33.75l5.67-31.46l-21.98-16.03L377.68,427.93z"/>
	<path id="CI-WR" fill="#1E3250" stroke="#1E3250" stroke-width="0.5" d="M304.97,201.85l-22.33,17.25l-37.43-5.61l-21.02,23.18
		l-42.53-0.04l6.05,55.47l13.42,70.59l1.59,35.6l80.11-2.84l27.45-4.71l18.71,20.88l40.52-16.55l7.3-33.86l51.56-24.49l-34.63-45.36
		l-45.22-14.72L304.97,201.85z"/>
	<path id="CI-DH" fill="#1E3250" stroke="#1E3250" stroke-width="0.5" d="M184.64,362.77l-31.34-23.52L145.33,374l-20.64,8.02
		l-38.84-24.3l-13.52-0.31L51.42,421.4L17.9,419.59l26.32,71.18l-20.6,47.74l20.9,6.84l38.19-48.06l24.44,16.66l96.73-11.54
		l10.48-84.311l-11.64-19.81l-1.59-35.6L184.64,362.77z"/>
	<path id="CI-BF" fill="#1E3250" stroke="#1E3250" stroke-width="0.5" d="M187.71,292.1l-73.44-72.99l-24,10.44l-4.85,24.31
		l35.57,24.86l4.49,33.04l-40.27-16.13l-37.11,6.66l-1.51,26.5l34.34,8.18l4.92,20.75l38.84,24.3l20.64-8.02l7.97-34.75l31.34,23.52
		l16.49-0.079L187.71,292.1z"/>
	<path id="CI-DE" fill="#1E3250" stroke="#1E3250" stroke-width="0.5" d="M155.69,52.22l-7.64-16.26l-22.82,2.52l-66.6,65.78
		l3.73,58.98l35.91,10.41l-7.7,31.1l23.7,14.36l73.44,72.99l-6.05-55.47l42.53,0.04l21.02-23.18l1.75-97.1l-28.01-14.57l9.71-21.49
		l37.87-5.98l-11.08-26.39l-38.3,2.78l-7.13,27.1L155.69,52.22z"/>
	<path id="CI-SV" fill="#1E3250" stroke="#1E3250" stroke-width="0.5" d="M309.35,0l-22.36,5.37l-2.48,17.8L255.33,9.62l0.12,38.34
		l11.08,26.39l-37.87,5.98l-9.71,21.49l28.01,14.57l-1.75,97.1l37.43,5.61l22.33-17.25l43.55,74.79l45.22,14.72l-11.31-40.3
		l31.07-5.85l-4.77-28.03l20.609-39.05l19.68,11.99l22.011,0.13l17.58,24.06l-6.71,26.83l52.85,0.52l41.14,34.84l37.301,3.67
		l18.369-21.49l-13.92-22.48l12.36-8.09l-11.83-20.93l-37.06-9.51l-19-49.25l-80.29-35.15L455.8,56.14l-34.89,0.49l-25.03-20.38
		l-66.84,35.16l-17.6-8.32l-2.1-34.51L309.35,0z"/>
</g>
</svg>
