<?xml version="1.0" encoding="utf-8"?>
<!-- Generator: Adobe Illustrator 15.0.0, SVG Export Plug-In . SVG Version: 6.00 Build 0)  -->
<!DOCTYPE svg PUBLIC "-//W3C//DTD SVG 1.1//EN" "http://www.w3.org/Graphics/SVG/1.1/DTD/svg11.dtd">
<svg version="1.1" id="Layer_1" xmlns:amcharts="http://amcharts.com/ammap"
	 xmlns="http://www.w3.org/2000/svg" xmlns:xlink="http://www.w3.org/1999/xlink" x="0px" y="0px" width="832.5px"
	 height="1056.5px" viewBox="0 0 832.5 1056.5" enable-background="new 0 0 832.5 1056.5" xml:space="preserve">
<defs>
	
	
		<amcharts:ammap  projection="mercator" bottomLatitude="-4.679658" leftLongitude="33.909821" topLatitude="5.033421" rightLongitude="41.906896">
		</amcharts:ammap>
</defs>
<g>
	<path id="KE-28" fill="#1E3250" stroke="#1E3250" stroke-width="0.5" d="M567,957.71l-0.76,0.17l0.18-0.03L567,957.71z
		 M572.73,952.05l-5.07,5.5l3.45,2.88L572.73,952.05z M573.31,949.5l0.021-0.13l-0.18-0.061L573.31,949.5z M575,948.76l-0.69,0.061
		l-0.859,0.739l-0.86,0.221l2.94,3.85L575,948.76z M575.19,945.14l0.06-0.43l-0.25,0.21L575.19,945.14z M570.01,941.96l0.021-0.16
		l-0.3,0.061L570.01,941.96z M573.35,941.79l-0.399-0.271l-2.061,0.301L573.35,941.79z M568.86,942.42l0.239-1.31l-3.619,2.189
		l-0.12,0.061l-0.021,0.029v0.051l0.18,1.149l-0.199,0.58l-0.08,1.79L568.86,942.42z M577.22,938.18l-0.22-0.09l-3.81,1.141
		l0.02,0.029h0.021h0.02l0.06-0.01l0.2-0.07h0.021l0.04,0.07l-0.221,1.67l0.021,0.03l0.01,0.01L577.22,938.18z"/>
	<path id="KE-19" fill="#1E3250" stroke="#1E3250" stroke-width="0.5" d="M549.19,1016.43l0.1-0.27l-0.38,0.109L549.19,1016.43z
		 M548.71,1014.68l0.04-0.16l-0.22,0.03L548.71,1014.68z M548.45,1014.68l-0.19-0.189l-0.14,0.06L548.45,1014.68z M545,1011.68
		l3.89,1.351l-0.479-1.36L545,1011.68z M531.62,1011.32l0.3-0.311l-0.16-0.2L531.62,1011.32z M530.34,1010.63l0.28-0.12l-0.39-0.189
		L530.34,1010.63z M531.5,1010.96l-0.26-0.75l-0.431,0.22L531.5,1010.96z M530.56,1010.16v-0.21l-0.079,0.18L530.56,1010.16z
		 M531.8,1009.96l-0.16-0.32l-0.22,0.38L531.8,1009.96z M532.34,1009.01l0.08-0.609l-0.24,0.52L532.34,1009.01z M533.12,1008.26
		l-0.4-0.87l0.021,0.65L533.12,1008.26z M533.64,1007.77l0.601-0.659l-0.8,0.47L533.64,1007.77z M535.05,1007.3l-0.66-0.29
		l0.13,0.181L535.05,1007.3z M537.55,1005.68l0.181,0.471l-0.36-1.17L537.55,1005.68z M539.49,1003.58l-1.101,0.08l0.38,1.5
		L539.49,1003.58z M549.53,1003.77l-0.021-0.27l-0.92,0.31L549.53,1003.77z M548.69,1003.56l-0.141-0.149h-0.26L548.69,1003.56z
		 M548.83,1003.37v-0.13h-0.14L548.83,1003.37z M550.07,1003.17l0.02-0.28l-0.18,0.091L550.07,1003.17z M553.9,1002.01l-0.061-2.68
		l-1.67,5.61L553.9,1002.01z M561.89,990.5l0.261-0.51l-0.4,0.18L561.89,990.5z M530.31,1013.88l0.66-0.87l-1.02-0.5l-0.33-1.39
		l0.68-2.13l3.05-2.92l2.341,0.76l35.42-46.4l-3.45-2.88l-1.24,0.3l-0.18,0.03l-1-10.92l0.08-1.79l-0.021-0.02l-0.359-0.591
		l-24.53-42.479l-22.7,0.33l-2.94,11.6l-0.159,0.66l-9.641-5.76l-2.35,3.979l-1.42,2.4h0.01l1.78,26.46l-24.09,8.63l-25.5,9.14
		l-0.381,0.141L530.31,1013.88z"/>
	<path id="KE-39" fill="#1E3250" stroke="#1E3250" stroke-width="0.5" d="M462.99,843.48l-2.7-0.49l-58.07-19.851l-24.93,40.32
		l-8.75,33.92l84.479,62.28l0,0l25.881-9.28l24.08-8.63l-1.771-26.46l1.41-2.4l2.34-3.989l0.01,0.01l9.63,5.77l0.17-0.67
		l9.311-36.819l6.16-24.36v-0.021l-14.25-3.17L462.99,843.48z"/>
	<path id="KE-94" fill="#1E3250" stroke="#1E3250" stroke-width="0.5" d="M605.49,884.94l-0.101-0.12l-0.1,0.02L605.49,884.94z
		 M606.59,882.09l0.601-0.75l-0.721,0.26L606.59,882.09z M605.05,881.32l-1.6,0.37l1.12,0.479L605.05,881.32z M607.35,880.59
		l0.021-0.28l-0.12,0.12L607.35,880.59z M606.05,880.73l-0.439-1.311l-0.2,0.97L606.05,880.73z M625.46,843.53l0.521-0.9
		l-0.641,0.73L625.46,843.53z M626.39,842.98l-0.08-0.711l-0.609-0.84L626.39,842.98z M624.8,842.44l-0.12-1.471l-0.239,0.811
		L624.8,842.44z M625.09,839.31l-0.08,0.891l0.61-4.99L625.09,839.31z M625.7,833.6l0.05-1.46l-0.37,0.511L625.7,833.6z
		 M627.16,826.87l-0.05-0.5l-0.221,0.27L627.16,826.87z M626.72,826.3v-0.149l-0.14,0.04L626.72,826.3z M626.08,824.27l-0.58-0.189
		l0.55,0.66L626.08,824.27z M625.24,824.19l-0.061-0.69l-0.42,0.01L625.24,824.19z M626.94,823.61l0.329-0.87l-0.189-0.2
		L626.94,823.61z M626.06,823.09l0.25-0.7l-0.25,0.16V823.09z M626.27,822.03l0.521-0.721l-0.54,0.49L626.27,822.03z M627.25,820.81
		l0.6-1.109l-0.25,0.02L627.25,820.81z M627.3,820.07l0.08-0.561l-0.149,0.4L627.3,820.07z M626.93,819.95l-0.21-0.55l-0.64,0.609
		L626.93,819.95z M625.56,819.34l0.04-0.39l-0.26,0.28L625.56,819.34z M625.9,818.79l-0.181-0.34l-0.08,0.22L625.9,818.79z
		 M626.47,817.81l0.11-0.55l-0.05-0.06L626.47,817.81z M626.25,816.79l-28.65-40.48l-67.25,76.141l-0.01,0.03l-0.1,0.329
		l-6.16,24.381l-6.37,25.22l22.7-0.33l24.53,42.479l0.359,0.61v-0.02l0.22-0.561l-0.18-1.149l0.021-0.08l0.02-0.051l0.101-0.01
		l3.619-2.189l1.79,0.71l2.061-0.301l0.43-0.56l-0.03-0.04l0.221-1.67l-0.061-0.07l-0.2,0.07l-0.079,0.01l-0.04-0.029l3.81-1.141
		l49.24-121.3H626.25z"/>
	<path id="KE-21" fill="#1E3250" stroke="#1E3250" stroke-width="0.5" d="M680.08,774.82l-0.26,0.479l0.819,0.42L680.08,774.82z
		 M687.07,773.92l0.12-0.76l-0.681,0.8L687.07,773.92z M684.73,772.97l0.079-0.13l-0.239-0.149L684.73,772.97z M687.59,773.08
		l0.28-0.39l-0.3-0.181L687.59,773.08z M684.65,771.65l0.939-0.08l-1.399-0.16L684.65,771.65z M683.29,770.82l-0.42,0.279
		l0.67,0.311L683.29,770.82z M681.28,770.91l-0.08-0.23l-0.12,0.021L681.28,770.91z M697.99,770.09l-7.78,8.38l9.93-3.68
		L697.99,770.09z M690.44,770.41l0.52-0.25l0.26-0.58L690.44,770.41z M690.06,769.64l0.381-0.27l-0.301,0.04L690.06,769.64z
		 M690.4,768.66l-0.681,0.32l0.7-0.08L690.4,768.66z M707.41,767.71l-0.34-0.07l0.96,0.5L707.41,767.71z M706.11,767.51l-7.11,0.04
		l1.68,9.311L706.11,767.51z M703.02,768.15l-0.18-0.19l-0.02-0.21L703.02,768.15z M702.06,768.3l-0.26-0.22l0.22,0.02L702.06,768.3
		z M706.56,761.4l-0.05-0.181l-0.06,0.13L706.56,761.4z M714.68,761.22l-0.34-1.05l-1.2,0.22L714.68,761.22z M707.43,759.38
		l-1.04,1.07l1.38-0.601L707.43,759.38z M711.52,759.24l-0.47-0.38l-0.25,0.47L711.52,759.24z M716.81,758.33l-0.109,0.32l0.42,0.08
		L716.81,758.33z M708.45,754.96l-0.101-0.49l-0.279,0.261L708.45,754.96z M708.53,754.27l-0.021,0.141l0.26,0.01L708.53,754.27z
		 M722.85,755.68l-0.88-1.76l-0.39,2.01l2.68,0.19L722.85,755.68z M714.18,753.85l-8.34,2.851l4.271,2.39L714.18,753.85z
		 M717.39,750.49l-4.01,8.12l4.43-2.271l1.46,2.7l0.521-5.76l5.43,0.06L717.39,750.49z M719.91,750.61l-0.021-0.53l-0.26,0.24
		L719.91,750.61z M719.39,750.37l0.021-0.25l-0.26-0.11L719.39,750.37z M705.98,750.03l-0.25-0.71l-0.221,1.02L705.98,750.03z
		 M729.08,745.51l-0.11,0.55l1.261,0.671L729.08,745.51z M726.72,743.82l-0.34-0.051l-0.04,0.48L726.72,743.82z M724.58,742.8
		l-1.51,0.79l1.989,0.07L724.58,742.8z M727.52,743.42l0.08-1.27l-0.6,0.54L727.52,743.42z M736.76,745.38l2.57-3.7l-5.5,6.561
		L736.76,745.38z M734.1,741.22l-0.529-0.1l0.699,0.27L734.1,741.22z M725.32,741.06l-2.08,1.061l3.26-0.39L725.32,741.06z
		 M732.8,740.91l-0.189,0.12l0.689,0.12L732.8,740.91z M733.22,740.73l-0.39,0.06l0.42,0.15L733.22,740.73z M732.55,740.84
		l0.061-0.229l-0.261,0.01L732.55,740.84z M736.6,739.87l-0.199,1.12l0.5-0.78L736.6,739.87z M735.34,740.02l0.26-0.229l-0.5,0.03
		L735.34,740.02z M727.48,740.04l-0.101-0.46l-0.36,0.43L727.48,740.04z M729.71,738.3l0.1-0.47l-0.369,0.3L729.71,738.3z
		 M732.19,738.07l0.04-0.181l-0.261-0.319L732.19,738.07z M743.23,737.76l-0.54-0.279l-1.341,2.119L743.23,737.76z M730.23,737.45
		l-0.24-0.15l-0.2,0.28L730.23,737.45z M732.83,737.56l0.36-0.399l-0.33,0.06L732.83,737.56z M729.87,736.6l-0.4,0.641l0.54-0.17
		L729.87,736.6z M731.21,737.01l0.12-0.439l-0.32,0.199L731.21,737.01z M743.61,736.65l-0.561-0.141l-0.439,0.58L743.61,736.65z
		 M729.79,736.02l-0.06,0.391l0.399-0.29L729.79,736.02z M743.81,737.26l1.23-1.46l-0.41-0.03L743.81,737.26z M745.76,735.93
		l0.061-0.16l-0.12,0.08L745.76,735.93z M731.45,736.37l0.88-0.601h-0.64L731.45,736.37z M745.4,735.83l0.199-0.2l-0.279,0.12
		L745.4,735.83z M746.23,734.55l0.689-0.71l-0.34-0.06L746.23,734.55z M748.76,730.7l-0.58,0.609l0.92-0.39L748.76,730.7z
		 M752.71,728.84l-2.729,1.521l-2.641,3.399L752.71,728.84z M752.89,728.7l0.08-0.311l-0.16,0.17L752.89,728.7z M753.91,727.54
		l0.02-0.25l-0.1,0.19L753.91,727.54z M752.61,727.56l0.159-0.52l-0.239,0.33L752.61,727.56z M754.13,727.09l0.3-0.49v-0.35
		L754.13,727.09z M756.41,725.52l0.13-0.369l-0.28,0.34L756.41,725.52z M757.34,723.73l-0.02-0.271l-0.09,0.24L757.34,723.73z
		 M757.48,723.37l-0.141-0.16l0.021,0.14L757.48,723.37z M759.36,720.69l-1.08,1.369l1.899-2.09L759.36,720.69z M759.88,719.92
		l0.12-0.2l-0.3-0.399L759.88,719.92z M679.36,791.39l1.529-11.87l-2.54-0.51l-1.199-3.819l0.239-6.561l4.98-0.63l3.78-29.4
		L751,726.82l14.12-15.801L629.47,748.53l0,0l1.12,5.81l3.05,30.8l19.15-0.05l4.46,1.41l17.88,5.64v0.011L679.36,791.39z"/>
	<path id="KE-23" fill="#1E3250" stroke="#1E3250" stroke-width="0.5" d="M363.14,698.91l-38.99,24.29l78.07,99.939l58.07,19.851
		l-76.71-141.21L363.14,698.91z"/>
	<path id="KE-30" fill="#1E3250" stroke="#1E3250" stroke-width="0.5" d="M318.4,671.25l-43.96,5.36l22.43,10.06L318.4,671.25z"/>
	<path id="KE-10" fill="#1E3250" stroke="#1E3250" stroke-width="0.5" d="M241.39,649.97L207.96,755.7l169.33,107.76l24.93-40.32
		L324.15,723.2l-27.28-36.53l-22.43-10.06l-13.04-15.96L241.39,649.97z"/>
	<path id="KE-22" fill="#1E3250" stroke="#1E3250" stroke-width="0.5" d="M336.26,623.4l-1.37,0.119l9.57,31l-26.06,16.73
		l-21.53,15.42l27.28,36.53l38.99-24.29l20.44,2.87l9.23-75.811L336.26,623.4z"/>
	<path id="KE-13" fill="#1E3250" stroke="#1E3250" stroke-width="0.5" d="M263.32,637.01l-1.92,23.641l13.04,15.96l43.96-5.36
		l26.06-16.73l-64.39-28.899L263.32,637.01z"/>
	<path id="KE-27" fill="#1E3250" stroke="#1E3250" stroke-width="0.5" d="M71.46,611.47L0.39,625.23L80.77,684l-8.88-42.16
		L71.46,611.47z"/>
	<path id="KE-29" fill="#1E3250" stroke="#1E3250" stroke-width="0.5" d="M296.69,605.92l-18.22,1.9l1.6,17.8l64.39,28.899l-9.57-31
		l-9.84-15L296.69,605.92z"/>
	<path id="KE-16" fill="#1E3250" stroke="#1E3250" stroke-width="0.5" d="M93.94,595.07L71.46,611.47l0.43,30.37l37.17-7.89
		L93.94,595.07z"/>
	<path id="KE-33" fill="#1E3250" stroke="#1E3250" stroke-width="0.5" d="M176.86,605.5l-10.33-1.74l-57.47,30.19l-37.17,7.89
		L80.77,684l127.19,71.7l33.43-105.73L176.86,605.5z"/>
	<path id="KE-34" fill="#1E3250" stroke="#1E3250" stroke-width="0.5" d="M112.9,594.89l-3.18-8.729l-15.78,8.91l15.12,38.88
		L112.9,594.89z"/>
	<path id="KE-02" fill="#1E3250" stroke="#1E3250" stroke-width="0.5" d="M140.58,585.62l-27.68,9.27l-3.84,39.061l57.47-30.19
		l-13.58-22.31L140.58,585.62z"/>
	<path id="KE-08" fill="#1E3250" stroke="#1E3250" stroke-width="0.5" d="M56.01,574.82l-53.67,3.8l-1.95,46.61l71.07-13.761
		l22.48-16.399l15.78-8.91l-0.73-2.11L56.01,574.82z"/>
	<path id="KE-06" fill="#1E3250" stroke="#1E3250" stroke-width="0.5" d="M401.18,587.49l-62.229-27.51l11.88,36.06l-15.94,27.479
		l1.37-0.119l56.55,2.569l9.12-38.319L401.18,587.49z"/>
	<path id="KE-15" fill="#1E3250" stroke="#1E3250" stroke-width="0.5" d="M350.83,596.04l-11.88-36.06l-13.9,48.539l9.84,15
		L350.83,596.04z"/>
	<path id="KE-18" fill="#1E3250" stroke="#1E3250" stroke-width="0.5" d="M451.78,552.34l-1.351-0.56L439.26,550l-37.33,37.65
		l-9.12,38.319l-9.23,75.811l76.71,141.21l2.7,0.49l53,6.159l-44.94-63.25l38.931-49.77l-6.181-88.41L451.78,552.34z"/>
	<path id="KE-40" fill="#1E3250" stroke="#1E3250" stroke-width="0.5" d="M530.24,852.83l0.1-0.35l0.01-0.03l0,0l67.25-76.13
		l28.641,40.47l0.29,0.41l0.05,0.069v-0.01l52.78-25.87l-4.23,0.75l-0.01,0.011l-17.87-5.65l-4.45-1.41h-0.01l-19.16,0.061
		l-3.04-30.811l-1.12-5.81l0,0L567.32,579.04l-82.03-27.31l-33.51,0.609l52.02,95.87l6.181,88.41l-38.931,49.77l44.94,63.25
		l14.25,3.17V852.83z"/>
	<path id="KE-36" fill="#1E3250" stroke="#1E3250" stroke-width="0.5" d="M338.95,559.98l-17.77-11.44l-47.38,11.64l4.67,47.641
		l18.22-1.9l28.36,2.6L338.95,559.98z"/>
	<path id="KE-17" fill="#1E3250" stroke="#1E3250" stroke-width="0.5" d="M61.09,546.38l-5.08,28.44l52.98,9.229l21.46-28.53
		l-48.03-8.199L61.09,546.38z"/>
	<path id="KE-12" fill="#1E3250" stroke="#1E3250" stroke-width="0.5" d="M151.32,542.29l-20.87,13.229l-21.46,28.53l0.73,2.11
		l3.18,8.729l27.68-9.27l12.37-4.17l18.94-30.5l-11.76-7.65L151.32,542.29z"/>
	<path id="KE-41" fill="#1E3250" stroke="#1E3250" stroke-width="0.5" d="M426.87,542.89l-87.92,17.091l62.229,27.51l0.75,0.16
		L439.26,550L426.87,542.89z"/>
	<path id="KE-35" fill="#1E3250" stroke="#1E3250" stroke-width="0.5" d="M273.8,560.18l-40.27-13.14l29.79,89.97l16.75-11.39
		l-1.6-17.8L273.8,560.18z"/>
	<path id="KE-45" fill="#1E3250" stroke="#1E3250" stroke-width="0.5" d="M100.26,524.89l-36.54,10.54l-2.63,10.95l21.33,0.94
		L100.26,524.89z"/>
	<path id="KE-31" fill="#1E3250" stroke="#1E3250" stroke-width="0.5" d="M233.53,547.04l-5.37-25.71l-56.27,29.62l-18.94,30.5
		l13.58,22.31l10.33,1.74l64.53,44.47l20.01,10.681l1.92-23.641L233.53,547.04z"/>
	<path id="KE-38" fill="#1E3250" stroke="#1E3250" stroke-width="0.5" d="M44.71,514.13L2.62,547.44l-0.28,31.18l53.67-3.8
		l5.08-28.44l2.63-10.95L44.71,514.13z"/>
	<path id="KE-32" fill="#1E3250" stroke="#1E3250" stroke-width="0.5" d="M92.76,490.17l7.5,34.72L82.42,547.32l48.03,8.199
		l20.87-13.229L92.76,490.17z"/>
	<path id="KE-26" fill="#1E3250" stroke="#1E3250" stroke-width="0.5" d="M433.82,524.89L414.43,477.98l-67.67,39.369l-25.58,31.19
		l17.77,11.44l87.92-17.091l12.39,7.11l11.17,1.78L433.82,524.89z"/>
	<path id="KE-04" fill="#1E3250" stroke="#1E3250" stroke-width="0.5" d="M50.99,471.14l-7.29-4.279L2.62,547.44l42.09-33.311
		l2.15-16.17L50.99,471.14z"/>
	<path id="KE-20" fill="#1E3250" stroke="#1E3250" stroke-width="0.5" d="M256.89,460.01l-28.73,61.32l5.37,25.71l40.27,13.14
		l47.38-11.64l25.58-31.19l-45.5-46.979L256.89,460.01z"/>
	<path id="KE-11" fill="#1E3250" stroke="#1E3250" stroke-width="0.5" d="M109.53,455.93l-62.67,42.03l-2.15,16.17l19.01,21.3
		l36.54-10.54l-7.5-34.72l26.22-33.47L109.53,455.93z"/>
	<path id="KE-44" fill="#1E3250" stroke="#1E3250" stroke-width="0.5" d="M143.79,450.24l-24.81,6.46l-26.22,33.47l58.56,52.12
		l8.81,1.01l6.48-15.439L143.79,450.24z"/>
	<path id="KE-07" fill="#1E3250" stroke="#1E3250" stroke-width="0.5" d="M629.47,748.53l135.65-37.511L708.06,627.9L708,498.32
		l-66.17,26.55l-87.21-79.68l-16.37,8.699l-63.67,39.96l10.71,57.881l82.03,27.31L629.47,748.53L629.47,748.53z"/>
	<path id="KE-03" fill="#1E3250" stroke="#1E3250" stroke-width="0.5" d="M65.76,429.6L43.7,466.86l7.29,4.279l-4.13,26.82
		l62.67-42.03L65.76,429.6z"/>
	<path id="KE-42" fill="#1E3250" stroke="#1E3250" stroke-width="0.5" d="M89.74,418.63L65.76,429.6l43.77,26.33l9.45,0.771
		l24.81-6.46L123,424.68l-33.04-6.33L89.74,418.63z"/>
	<path id="KE-05" fill="#1E3250" stroke="#1E3250" stroke-width="0.5" d="M178.16,419.96l-0.68-7.26L123,424.68l20.79,25.561
		l22.82,77.62L178.16,419.96z"/>
	<path id="KE-01" fill="#1E3250" stroke="#1E3250" stroke-width="0.5" d="M178.59,402.42l-1.11,10.28l0.68,7.26l-11.55,107.9
		l-6.48,15.439l11.76,7.65l56.27-29.62l28.73-61.32l-9.68-7.21l-60.12-74.64L178.59,402.42z"/>
	<path id="KE-09" fill="#1E3250" stroke="#1E3250" stroke-width="0.5" d="M402.81,418.32l13.53,48.34l-115.08,3.71l45.5,46.979
		l67.67-39.369l19.391,46.909l16.609,26.891l1.351,0.56l33.51-0.609l-10.71-57.881l63.67-39.949l16.37-8.71l-49.9-110.5
		L402.81,418.32z"/>
	<path id="KE-37" fill="#1E3250" stroke="#1E3250" stroke-width="0.5" d="M281.72,292.94l-13.59,10.83L247.21,452.8l9.68,7.21
		l44.37,10.36l115.08-3.71l-13.53-48.34L281.72,292.94z"/>
	<path id="KE-47" fill="#1E3250" stroke="#1E3250" stroke-width="0.5" d="M120.53,282.02l-18.5,16.77L89.96,418.35l33.04,6.33
		l54.48-11.979l1.11-10.28l8.5-24.26L120.53,282.02z"/>
	<path id="KE-46" fill="#1E3250" stroke="#1E3250" stroke-width="0.5" d="M540.33,196.82L504.72,334.69l49.9,110.5l87.21,79.68
		L708,498.32l0.01-171.83L586.13,177.13L540.33,196.82z"/>
	<path id="KE-24" fill="#1E3250" stroke="#1E3250" stroke-width="0.5" d="M771.06,146.14l-86.1-30.76l-98.83,61.75l121.88,149.36
		l0.061-64.74l91.54-115.57L771.06,146.14z"/>
	<path id="KE-25" fill="#1E3250" stroke="#1E3250" stroke-width="0.5" d="M213.01,97.98l0.14,122.06l54.98,83.73l13.59-10.83
		L402.81,418.32l101.91-83.63l35.61-137.871L213.01,97.98z"/>
	<path id="KE-43" fill="#1E3250" stroke="#1E3250" stroke-width="0.5" d="M136.99,0L6.86,121.46l95.17,177.33l18.5-16.77
		l66.56,96.14l60.12,74.64l20.92-149.03l-54.98-83.73l-0.14-122.06L187.49,8.67L136.99,0z"/>
</g>
</svg>
