<?xml version="1.0" encoding="utf-8"?>
<!-- Generator: Adobe Illustrator 15.0.0, SVG Export Plug-In . SVG Version: 6.00 Build 0)  -->
<!DOCTYPE svg PUBLIC "-//W3C//DTD SVG 1.1//EN" "http://www.w3.org/Graphics/SVG/1.1/DTD/svg11.dtd">
<svg version="1.1" id="Layer_1" xmlns:amcharts="http://amcharts.com/ammap"
	 xmlns="http://www.w3.org/2000/svg" xmlns:xlink="http://www.w3.org/1999/xlink" x="0px" y="0px" width="838.5px" height="808.5px"
	 viewBox="0 0 838.5 808.5" enable-background="new 0 0 838.5 808.5" xml:space="preserve">
<defs>
	
	
		<amcharts:ammap  projection="mercator" bottomLatitude="-30.6755788" leftLongitude="27.011231" topLatitude="-28.5708011" rightLongitude="29.4557087">
		</amcharts:ammap>
</defs>
<g>
	<path id="LS-E" fill="#1E3250" stroke="#1E3250" stroke-width="0.5" d="M386.37,420.32l-31.12-2.761l12.89,76.801l50.52-3.721
		L386.37,420.32z M351.4,494.62l-45.67-23.21l-62.59-10.771l-40.66-43.18l-62.82-13.11l-25.86-51.92l-19.09-4L0.51,388.45
		l51.64,112.51l39.87-21.15l32.32-0.949l-1.69,52.84l26.16,11.99l28.23-33.7l43.21,11.45l85.02-23.36L351.4,494.62z"/>
	<path id="LS-K" fill="#1E3250" stroke="#1E3250" stroke-width="0.5" d="M511.12,249.49l-4.351,30.94l-43.38-16.92L438,206.55
		l-25.09-9.86l6.96,43.5l-27.13,37.05l-27.87,20.52l21.5,122.561l32.29,70.319l85.149-44.96l66.181,28.25l31.979-12.43l44.9,12.21
		l16.439-42.25l29.811,5.34l15.74-32.649l38.72-20.25l-1.13-32.37l-41.66,17.41l-42.35-31.48l-76.25-0.12l4.76-52.3L511.12,249.49z"
		/>
	<path id="LS-H" fill="#1E3250" stroke="#1E3250" stroke-width="0.5" d="M693.12,436.8l-29.811-5.34l-16.439,42.25l-44.9-12.21
		l-31.979,12.43l-66.181-28.25l2.66,54.29l-57.1,41.4l-36.39-10.021L400.51,583.86l42.46,13.08l55.69-21.58l38.06,5.64l72.721-24.83
		l93.8-55.89L693.12,436.8z"/>
	<path id="LS-J" fill="#1E3250" stroke="#1E3250" stroke-width="0.5" d="M746.45,351.53l37.28-34.311l15.76-36.13l-40.971-95.51
		l-34.1-7.88l-75.11-60.32l-50.46-56.32l-12.09,48.86l-12.81,68.66l-57.76,47.73l-5.07,23.18l79.83,35.55l-4.76,52.3l76.25,0.12
		l42.35,31.48L746.45,351.53z"/>
	<path id="LS-C" fill="#1E3250" stroke="#1E3250" stroke-width="0.5" d="M586.76,109.92l-31.25,46.75l-24.88,14.4l-45.67-10.05
		l2-54.14l-73.49-30.04L397.6,38.9l-20.84,0.63L331.8,97.7l-35.33,1.48l-16.61,20.61l-37.59-2.57l-37.28,68.83l62.89-22.51
		l22.53,7.82l35.29-43.31l87.21,68.64l25.09,9.86l25.39,56.96l43.38,16.92l4.351-30.94l5.07-23.18l57.76-47.73L586.76,109.92z"/>
	<path id="LS-B" fill="#1E3250" stroke="#1E3250" stroke-width="0.5" d="M598.85,61.06l-42.38-26.74L545.59,0l-86.84,8.16
		L430.3,38.67l-32.7,0.23l15.87,37.94l73.49,30.04l-2,54.14l45.67,10.05l24.88-14.4l31.25-46.75L598.85,61.06z"/>
	<path id="LS-G" fill="#1E3250" stroke="#1E3250" stroke-width="0.5" d="M442.97,596.94l-42.46-13.08l12.471-52.511l-68.471,27.16
		l-37.3-2.34l-13.73,44.38l-70.21,70.67l-51.65,9.86l21.53,37.1l47.86,42.141l102.66,18.939l53.96-100.49l-0.72-45.869
		L442.97,596.94z"/>
	<path id="LS-F" fill="#1E3250" stroke="#1E3250" stroke-width="0.5" d="M412.98,531.35l36.39,10.021l57.1-41.4l-2.66-54.29
		l-85.149,44.96l-50.52,3.721l-16.74,0.26l-46.13,3.46l-85.02,23.36l-43.21-11.45l-28.23,33.7l-26.16-11.99l1.69-52.84l-32.32,0.949
		l-39.87,21.15l31.21,42.6l33.08,106.011l30.77,2.13l24.41,29.38l51.65-9.86l70.21-70.67l13.73-44.38l37.3,2.34L412.98,531.35z"/>
	<path id="LS-A" fill="#1E3250" stroke="#1E3250" stroke-width="0.5" d="M392.74,277.24l-53.32,15.59l-10.4-41.09l-29.5,24.81
		l-49.1-13.82l-19.41,13.69l-66.87-22.44l-69.43,94.45l19.09,4l25.86,51.92l62.82,13.11l40.66,43.18l62.59,10.771l45.67,23.21
		l16.74-0.26l-12.89-76.801l31.12,2.761l-21.5-122.561L392.74,277.24z"/>
	<path id="LS-D" fill="#1E3250" stroke="#1E3250" stroke-width="0.5" d="M412.91,196.69l-87.21-68.64l-35.29,43.31l-22.53-7.82
		l-62.89,22.51l-40.85,67.93l66.87,22.44l19.41-13.69l49.1,13.82l29.5-24.81l10.4,41.09l53.32-15.59l27.13-37.05L412.91,196.69z"/>
</g>
</svg>
