<?xml version="1.0" encoding="utf-8"?>
<!-- Generator: Adobe Illustrator 15.0.0, SVG Export Plug-In . SVG Version: 6.00 Build 0)  -->
<!DOCTYPE svg PUBLIC "-//W3C//DTD SVG 1.1//EN" "http://www.w3.org/Graphics/SVG/1.1/DTD/svg11.dtd">
<svg version="1.1" id="Layer_1" xmlns:amcharts="http://amcharts.com/ammap"
	 xmlns="http://www.w3.org/2000/svg" xmlns:xlink="http://www.w3.org/1999/xlink" x="0px" y="0px" width="868.355px"
	 height="869.368px" viewBox="0 0 868.355 869.368" enable-background="new 0 0 868.355 869.368" xml:space="preserve">
<defs>
	
	
		<amcharts:ammap  projection="mercator" bottomLatitude="4.3154139" leftLongitude="-11.4755998" topLatitude="8.551986" rightLongitude="-7.3692549">
		</amcharts:ammap>
</defs>
<g>
	<path id="LR-GD" fill="#1E3250" stroke="#1E3250" stroke-width="0.5" d="M559.21,408.33l-19.67,46.53l-26.3,26.56l0.04,16.91
		l-16.86,7.46l7.24,24.02l62.149,33.44l14.53-16.22l19.68,6.479l11.4,23.08l-25.03,19.101l9.57,13.729l199.63-8.52l-7.18-65.341
		l-9.351,7.811l-57.14-29.87l-4.51-22.23l-10.2-2.02l2.97-22.81l-13.239-14.61L599.67,438.4l-1.26-21.881l-9.63-7.05l-5.811,10.96
		L559.21,408.33z"/>
	<path id="LR-RI" fill="#1E3250" stroke="#1E3250" stroke-width="0.5" d="M467.77,538.32l3.101-43.23l-9.78-18.07l11.57-25.829
		l-16.17-15.75l-61.06,7.85l-0.87,30.7l-37.37,24.939l-4.35,72.84l-11.54,15.82l61.58,60.88l19.91-29.76l-8.021-31.47l39.881-25.53
		L467.77,538.32z"/>
	<path id="LR-NI" fill="#1E3250" stroke="#1E3250" stroke-width="0.5" d="M559.21,408.33l52.2-51.67l12.729-46.96L593.45,202.6
		l-24.03-17.02l-0.17-12.79l-23.3-1.21l-33.49,83.09l-19.43-2.65l-29.11,16.46l-16.02,43.98l15.34,20.05l-14.63,49.57l18.229,3.85
		l-10.35,49.511l16.17,15.75l-11.57,25.829l9.78,18.07l-3.101,43.23l35.891-8.511l-7.24-24.02l16.86-7.46l-0.04-16.91l26.3-26.56
		L559.21,408.33z"/>
	<path id="LR-MG" fill="#1E3250" stroke="#1E3250" stroke-width="0.5" d="M338.9,377l4.19-17.45l-13.89-10.13l-18.29,32.521
		l-91.56-26.591l-10.68,28.761l5.45,32.22l-44.19,30.189l-5.32,15.12l52.75,13.931l29.57-66.87l-5.37-7.88l55.14,5.13l23.39-7.21
		L338.9,377z"/>
	<path id="LR-MO" fill="#1E3250" stroke="#1E3250" stroke-width="0.5" d="M219.35,355.35l-29.19-14.59l-10.52,2.9l-6.68,22.979
		l6.34,27.28l-9.1,6.271l-16.36-8.69l-20.76,11.36l-1.67,23.279l9.23-0.37l-9.48,18.37l33.45,17.5l5.32-15.12l44.19-30.189
		l-5.45-32.22L219.35,355.35z"/>
	<path id="LR-LF" fill="#1E3250" stroke="#1E3250" stroke-width="0.5" d="M389.42,234.92l26.12-49.15l-0.39-23.57l-18.17-32.75
		l4.739-23.37l-9.79-0.52l-1.4-26.84L381,74.61l6.06-31.21l-19.75-13.32l-15.08,3.82l5.23-14.48l-10.31-4.44l-3.69,10.2L333.4,0
		l-6.5,11.22l-49.83,16.63l-5.75-17.39l-37.38,5.04l-7.57,59.58l-40.73,11.63l-17.01,20.1l76.14,24.83l5.08-7.31L268,149.98
		l31.21-7.32l49.37,20.51l-26.86,80.56l3.92,23.02l25.49,1.22L389.42,234.92z"/>
	<path id="LR-CM" fill="#1E3250" stroke="#1E3250" stroke-width="0.5" d="M105.51,309.83l83.02-62.54l-15.85-34.23l-52.5-11.76
		l-88.61,65.09L0.48,324.35l18.43,16.261l5.62,26.72l53.99,21.38l20.21-26.72L105.51,309.83z"/>
	<path id="LR-GB" fill="#1E3250" stroke="#1E3250" stroke-width="0.5" d="M448.61,382.08l-28.471,2.08l-22.859,21.12l-38.23,13.83
		l11.45-25.561L338.9,377l-18.81,21.74l-23.39,7.21l-55.14-5.13l5.37,7.88l-29.57,66.87L341.3,587.59l11.54-15.82l4.35-72.84
		l37.37-24.939l0.87-30.7l61.06-7.85l10.35-49.511L448.61,382.08z"/>
	<path id="LR-BG" fill="#1E3250" stroke="#1E3250" stroke-width="0.5" d="M463.92,268.48l-25.08-35.16l-22.46-7.93l-11.37,8.58
		l-6.01-8.58l-9.58,9.53l-38.29,33.05l-25.49-1.22l-52.16,32.88l-6.25-15.35l-16.76-2.18l-28.66,29.81l-21.34,5.38l-3.01,15.36
		l-7.3,8.109l29.19,14.59l91.56,26.591l18.29-32.521l13.89,10.13L338.9,377l31.6,16.55l-11.45,25.561l38.23-13.83l22.859-21.12
		l28.471-2.08l14.63-49.57l-15.34-20.05L463.92,268.48z"/>
	<path id="LR-BM" fill="#1E3250" stroke="#1E3250" stroke-width="0.5" d="M197.46,332.65l-50.97,12l-3.19-30.131l-37.79-4.689
		l-6.78,52.16l-20.21,26.72l52.89,37.43l1.67-23.279l20.76-11.36l16.36,8.69l9.1-6.271l-6.34-27.28l6.68-22.979l10.52-2.9
		L197.46,332.65z"/>
	<path id="LR-SI" fill="#1E3250" stroke="#1E3250" stroke-width="0.5" d="M595.96,609.42l-9.57-13.729l25.03-19.101l-11.4-23.08
		l-19.68-6.479l-14.53,16.22l-62.149-33.44l-35.891,8.511l-13.119,23.39l-39.881,25.53l8.021,31.47l-19.91,29.76l61.25,47.05
		l78.49,41.15l29.58-38.689l47.55-29.65L595.96,609.42z"/>
	<path id="LR-MY" fill="#1E3250" stroke="#1E3250" stroke-width="0.5" d="M770.01,828.68l-12.779-91.12L733.97,725.03l-21.29,3.939
		L710.11,687l-34.801-7.43l-14.239,49.08l39.3,22.02l17.18,29.72l-6.85,28.141l25.67,18.45L770.01,828.68z"/>
	<path id="LR-GK" fill="#1E3250" stroke="#1E3250" stroke-width="0.5" d="M675.31,679.57l-55.56-11.24l-47.55,29.65l-29.58,38.689
		l87.26,47.46l80.82,24.4l6.85-28.141l-17.18-29.72l-39.3-22.02L675.31,679.57z"/>
	<path id="LR-GP" fill="#1E3250" stroke="#1E3250" stroke-width="0.5" d="M325.64,266.75l-3.92-23.02l26.86-80.56l-49.37-20.51
		L268,149.98l-18.15-25.65l-5.08,7.31l-76.14-24.83l0.21,50.03l-48.66,44.46l52.5,11.76l15.85,34.23l-83.02,62.54l37.79,4.689
		l3.19,30.131l50.97-12l3.01-15.36l21.34-5.38l28.66-29.81l16.76,2.18l6.25,15.35L325.64,266.75z"/>
	<path id="LR-RG" fill="#1E3250" stroke="#1E3250" stroke-width="0.5" d="M757.23,737.56l0.1-15.71l10.939-3.229l-5.13-31.05
		l16.99-13.471l2.58-24.26l16.81-10.39l-11.77-20.74l7.84-17.81l-199.63,8.52l23.79,58.91l55.56,11.24L710.11,687l2.569,41.97
		l21.29-3.939L757.23,737.56z"/>
</g>
</svg>
