<?xml version="1.0" encoding="utf-8"?>
<!-- Generator: Adobe Illustrator 15.0.0, SVG Export Plug-In . SVG Version: 6.00 Build 0)  -->
<!DOCTYPE svg PUBLIC "-//W3C//DTD SVG 1.1//EN" "http://www.w3.org/Graphics/SVG/1.1/DTD/svg11.dtd">
<svg version="1.1" id="Layer_1" xmlns:amcharts="http://amcharts.com/ammap"
	 xmlns="http://www.w3.org/2000/svg" xmlns:xlink="http://www.w3.org/1999/xlink" x="0px" y="0px" width="840.5px"
	 height="1640.5px" viewBox="0 0 840.5 1640.5" enable-background="new 0 0 840.5 1640.5" xml:space="preserve">
<defs>
	
	
		<amcharts:ammap  projection="mercator" bottomLatitude="-25.6065157" leftLongitude="43.1851395" topLatitude="-11.9519639" rightLongitude="50.4837799">
		</amcharts:ammap>
</defs>
<g>
	<path id="MG-FI-VF" fill="#1E3250" stroke="#1E3250" stroke-width="0.5" d="M592.93,970.91l-49.479-23.19l-9.21,25.32l-33.08,1.52
		l-18.32,12.66l-17.89,50.061l-13.771,124.3l-28.91,16.34l90.03,50.01L592.93,970.91z"/>
	<path id="MG-AV-VA" fill="#1E3250" stroke="#1E3250" stroke-width="0.5" d="M511.51,874.37l-34.17-20.46l2.75-30.63H467.7
		l-15.141,18.95l-46.81-10.2l-37.17,21.88l-45.43,2.92l-38.87,0.97l-2.6,50.24l41.63,23.5l8.01-8.21l7.51,22.52l26.39,7.561
		l35.839-1.34l41.61-24.5l51.53,2.979l14.51-32.689L511.51,874.37z"/>
	<path id="MG-MA-SF" fill="#1E3250" stroke="#1E3250" stroke-width="0.5" d="M645.75,254.06l-13.86-5.9l-15.819,11.56L582.6,240.24
		l-16.029,5.27l-21.42-12.02l7.199-16.87l-23.729,22.49l-3.82,29.7l-8.37-27.16l2.57,16.61l-16.77-1.06l-9.82,25.31l5.649,17.5
		l5.601-6.24l13.42,2.38l9.56,7.22l0.42,12.149l-5.3-13.049l-5.27,9.95l-13.57-16.29l-40.6,61.53l9.819-32.76l-7.939-16.82
		l-42.74,59.37l19.72,25.28l-9.64,3.529l4.5,64.49l16.52,32.96l63.511,24.69l6.59-29.92l34.39-1.44l36.91,25.82l6.64,33.649
		l25.36-9.33l33.22-49.83L635.6,472.11l12.841-74.28l-11.551-11.28l37.841-13.6l11.26-31.94l13.5-2.29l-21.11-50.88L645.75,254.06z"
		/>
	<path id="MG-AS-SV" fill="#1E3250" stroke="#1E3250" stroke-width="0.5" d="M759.12,450.27l11.16,5.87L782,437.89l17.75-63.779
		l-31.71-57.04l-7.35-109.71l-22.061-84.65L704.94,82.22l-26.61,30.14l9.63,9.89l-13.76,36.76l6.88,22.65l-9.64,41.1l-25.69,31.3
		l32.63,33.78l21.11,50.88l49.71,26.37L759.12,450.27z"/>
	<path id="MG-TL-ME" fill="#1E3250" stroke="#1E3250" stroke-width="0.5" d="M258.7,722.57l-59.07-11.261l-24.18,21.131
		l31.88,100.96l-30.54,7.649l-61.28-18.89l22.86,39.35l-11.97,33.84l11.32,24.801L74.83,1025.3l-9.76,40.2l-29.73,10.04l40.06,66.19
		l46.57-1.41l29.9-10.26l15.72-58.841L202,1081.57l56.45-45.771l23.95-5.069l-0.72-122.69l2.6-50.24l0.08-25.64l-33.63-35.58
		l13.9-44.53L258.7,722.57z"/>
	<path id="MG-MA-ME" fill="#1E3250" stroke="#1E3250" stroke-width="0.5" d="M182.11,483.38l-47.6-1.54l-1.54,57.82l-54.73,90.21
		l37.27,192.29l61.28,18.89l30.54-7.649l-31.88-100.96l24.18-21.131l59.07,11.261l25.64-6.44l17.79-48.7l-10.64-44.25h-31.67
		l-9.63-51.88l-52.32-51.75L182.11,483.38z"/>
	<path id="MG-AV-IT" fill="#1E3250" stroke="#1E3250" stroke-width="0.5" d="M429.67,774.59l-51.45-2.25l-55.07,84.49l45.43-2.92
		l37.17-21.88l46.81,10.2l15.141-18.95l-18.73-42.25L429.67,774.59z"/>
	<path id="MG-FI-HO" fill="#1E3250" stroke="#1E3250" stroke-width="0.5" d="M414.01,1189.82l-49.56-7.44l-15.14-35.649
		l-19.28-10.381l-77.9-18.609l-31.12,28.689l9.45,28.09l-34.24,86.391l9.07,20.52l29.66,8.48l6.22-30.471l63.76-21.01l51.92,59.73
		l1.98,56.33l38.66-4.71l-1.38-73.45l41.3,11.97L414.01,1189.82z"/>
	<path id="MG-FI-HM" fill="#1E3250" stroke="#1E3250" stroke-width="0.5" d="M464.95,1037.28l-26.16-11.79l-39.92,19.16
		l-28.91-35.36h-17.9L281,1043.21l-28.87,74.53l77.9,18.609l19.28,10.381l15.14,35.649l49.56,7.44l8.26-11.9l28.91-16.34
		L464.95,1037.28z"/>
	<path id="MG-AS-DI" fill="#1E3250" stroke="#1E3250" stroke-width="0.5" d="M560.78,147.32l-14.83,1.39l3.939,15.39l15.561,0.02
		L560.78,147.32z M663.67,0l-34.53,60.3l-23.71-5.06l24.761,42.43l-19.25,64.55l-19.25,6.96l-13.48-9.6l5.7,18.11l-22.07,2.89
		l-6.92,29.29l-22.2-32.57l-18.029,9.71l-1.431,27.88l15.36,24.22l23.729-22.49l-7.199,16.87l21.42,12.02l16.029-5.27l33.471,19.48
		l15.819-11.56l13.86,5.9l25.69-31.3l9.64-41.1l-6.88-22.65l13.76-36.76l-9.63-9.89l26.61-30.14l-10.57-33.37L660.34,31.3l3.75-9.21
		l12,6.52L663.67,0z"/>
	<path id="MG-AV-BO" fill="#1E3250" stroke="#1E3250" stroke-width="0.5" d="M370.35,659.82l-45.59,15.83l-22.63-8.221l-17.79,48.7
		l-25.64,6.44l5.93,29.479l-13.9,44.53l33.63,35.58l-0.08,25.64l38.87-0.97l55.07-84.49l51.45,2.25l-46.2-69.78L370.35,659.82z"/>
	<path id="MG-MA-BO" fill="#1E3250" stroke="#1E3250" stroke-width="0.5" d="M431.54,396.26l-20.81,11.76l12.8-25.72L409.77,368
		l-67.779,49.21l-3.71,21.19l18.66,16.109l-15.13,2.34l-20.53-31.239l-14.12,10.109l5.53,7.96l-44.53-6.64l-5.36,28.08l-4.62-12.17
		l-20.95,3.51l-8.96,15.8l-3.46-21.5l-42.7,32.62l15.76,36.17l52.32,51.75l56.44,1.44l24.78,28.81l38.55-33.13l12.89-39.189
		l66.95,7.55l-13.76-24.41l16.52-18.66l-16.52-32.96L431.54,396.26z"/>
	<path id="MG-MA-BE" fill="#1E3250" stroke="#1E3250" stroke-width="0.5" d="M516.07,518.4l-63.511-24.69l-16.52,18.66l13.76,24.41
		l-66.95-7.55l-12.89,39.189l-38.55,33.13l-24.78-28.81l-56.44-1.44l9.63,51.88h31.67l10.64,44.25l22.63,8.221l45.59-15.83l33-2.57
		l16.971,14.95l27.52-11.36l34.58,22.37l32.11-5.44l33.109-84.89L516.07,518.4z"/>
	<path id="MG-TM-AI" fill="#1E3250" stroke="#1E3250" stroke-width="0.5" d="M592.93,970.91l90.61-263.79l3.76-73.94l-15.859,1.551
		l-4.131,17.329l-45.43,8.671l-24.78,14.46l17.9,31.85l-27.53,11.59l-4.13,15.95l15.141,88.7l-30.28,26.25l-9.641,48.22
		l-26.159-8.78l-23.69,8.891L494.2,930.55l-3.8,32.681l10.76,11.329l33.08-1.52l9.21-25.32L592.93,970.91z"/>
	<path id="MG-FI-AA" fill="#1E3250" stroke="#1E3250" stroke-width="0.5" d="M512.3,1227.93l-90.03-50.01l-8.26,11.9l23.4,98.479
		l-41.3-11.97l1.38,73.45l-38.66,4.71l-7.64,18.77l49.01,36.99l4.359,19.8l24.19-36.21l33.61,17.141L512.3,1227.93z"/>
	<path id="MG-TL-AF" fill="#1E3250" stroke="#1E3250" stroke-width="0.5" d="M281,1043.21l1.4-12.479l-23.95,5.069L202,1081.57
		l-34.41-10.351l-15.72,58.841l-29.9,10.26l-46.57,1.41l-40.06-66.19L0.25,1187.41l15.2,70.01l43.96,74.18l-15,35.75l5.29,68.95
		l26.97,34.311l12.14,45.989l41.34,22.961l-11.93-4.211l8.03,12.551l39.37,5.689l39.83-50.59l15.14-107.37l27.53-13.56l-1.37-36.09
		l-20.65,1.5l8.85-57.57l-29.66-8.48l-9.07-20.52l34.24-86.391l-9.45-28.09l31.12-28.689L281,1043.21z"/>
	<path id="MG-TL-AY" fill="#1E3250" stroke="#1E3250" stroke-width="0.5" d="M358.83,1354.49l-1.98-56.33l-51.92-59.73l-63.76,21.01
		l-6.22,30.471l-8.85,57.57l20.65-1.5l1.37,36.09l4.36,15l36.25,11.42l11.02,102.899l31.79,29.391l58.48-5.431l39.16-26.58
		l33.181-97.789l-33.61-17.141l-24.19,36.21l-4.359-19.8l-49.01-36.99L358.83,1354.49z"/>
	<path id="MG-TL-AD" fill="#1E3250" stroke="#1E3250" stroke-width="0.5" d="M213.41,1589.49l43.8-4.7l74.33-44.01l-31.79-29.391
		l-11.02-102.899l-36.25-11.42l-4.36-15l-27.53,13.56L205.45,1503l-39.83,50.59L213.41,1589.49z"/>
	<path id="MG-TM-AN" fill="#1E3250" stroke="#1E3250" stroke-width="0.5" d="M699.49,338.72l-13.5,2.29l-11.26,31.94l-37.841,13.6
		l11.551,11.28L635.6,472.11l23.58,15.239l-33.22,49.83l-5.16,79.931L605.36,639.06l16.52,21.671l45.43-8.671l4.131-17.329
		l15.859-1.551l-4.8-26.47l18.06-42.75l26.891-9.7l-12.69-8.439l15.19-35.49l-1.91-26.61l-17.87-18.13l3.811-69.3l20.149-2.78
		l24.99,56.76l-9.92-85.18L699.49,338.72z"/>
	<path id="MG-AV-AG" fill="#1E3250" stroke="#1E3250" stroke-width="0.5" d="M514.53,677.77l-32.11,5.44l-34.58-22.37l-27.52,11.36
		l-16.971-14.95l-33,2.57l13.12,44.989l46.2,69.78l19.3,6.44l18.73,42.25h12.39l-2.75,30.63l34.17,20.46l17.4-143.851L514.53,677.77
		z"/>
	<path id="MG-FI-AM" fill="#1E3250" stroke="#1E3250" stroke-width="0.5" d="M494.2,930.55l-51.53-2.979l-41.61,24.5l-35.839,1.34
		l-26.39-7.561l-7.51-22.52l-8.01,8.21l-41.63-23.5l0.72,122.69l-1.4,12.479l71.06-33.92h17.9l28.91,35.36l39.92-19.16l26.16,11.79
		l17.89-50.061l18.32-12.66L490.4,963.23L494.2,930.55z"/>
	<path id="MG-TM-AO" fill="#1E3250" stroke="#1E3250" stroke-width="0.5" d="M625.96,537.18l-25.36,9.33l-6.64-33.649l-36.91-25.82
		l-34.39,1.44l-6.59,29.92l31.569,74.479l-33.109,84.89l14.38,52.75l-17.4,143.851l-2.8,23.49l23.69-8.891l26.159,8.78l9.641-48.22
		l30.28-26.25l-15.141-88.7l4.13-15.95L615,707.04l-17.9-31.85l24.78-14.46l-16.52-21.671L620.8,617.11L625.96,537.18z"/>
</g>
</svg>
