<?xml version="1.0" encoding="utf-8"?>
<!-- Generator: Adobe Illustrator 15.0.0, SVG Export Plug-In . SVG Version: 6.00 Build 0)  -->
<!DOCTYPE svg PUBLIC "-//W3C//DTD SVG 1.1//EN" "http://www.w3.org/Graphics/SVG/1.1/DTD/svg11.dtd">
<svg version="1.1" id="Layer_1" xmlns:amcharts="http://amcharts.com/ammap"
	 xmlns="http://www.w3.org/2000/svg" xmlns:xlink="http://www.w3.org/1999/xlink" x="0px" y="0px" width="850.794px"
	 height="2012.536px" viewBox="0 0 850.794 2012.536" enable-background="new 0 0 850.794 2012.536" xml:space="preserve">
<defs>
	
	
		<amcharts:ammap  projection="mercator" bottomLatitude="-17.1295216" leftLongitude="32.6725205" topLatitude="-9.3672274" rightLongitude="35.918573">
		</amcharts:ammap>
</defs>
<g>
	<path id="MW-MW1" fill="#1E3250" stroke="#1E3250" stroke-width="0.5" d="M537.02,1504.49l-70.319-29.15l-34.65,96.35l85.141,9.08
		l61.43-66.72l10.79-6.78L537.02,1504.49z"/>
	<path id="MW-NA" fill="#1E3250" stroke="#1E3250" stroke-width="0.5" d="M504.47,690.55l12.57-20.39l-16.89-10.101l-9.4,24.521
		L504.47,690.55z M484.69,673.25l-1.051-16.51l-21.22,1.85L484.69,673.25z"/>
	<path id="MW-PH" fill="#1E3250" stroke="#1E3250" stroke-width="0.5" d="M773.13,1663.76l10.14-121.92l-43.729,6.75l-33.271,31.16
		l-7.38,21.65l25.71,62.949L773.13,1663.76z"/>
	<path id="MW-MJ" fill="#1E3250" stroke="#1E3250" stroke-width="0.5" d="M773.13,1663.76l-48.53,0.59l-25.71-62.949l7.38-21.65
		l-46.039,19.73l-7.48,82.859l-2.79,52.42l23.34-20.67l29.99,11.03l45.32-16.46l21.68-16.811L773.13,1663.76z"/>
	<path id="MW-MW2" fill="#1E3250" stroke="#1E3250" stroke-width="0.5" d="M517.19,1580.77l-85.141-9.08l-19.04,39.851l100.92,21.07
		L517.19,1580.77z"/>
	<path id="MW-BL" fill="#1E3250" stroke="#1E3250" stroke-width="0.5" d="M611.14,1561.92l-32.52-47.87l-61.43,66.72l-3.261,51.841
		l29.16,3.979l5.95,51.24l63.06-42.67L611.14,1561.92z"/>
	<path id="MW-ZO" fill="#1E3250" stroke="#1E3250" stroke-width="0.5" d="M771.14,1478.23l-152.52,4.81l-29.21,24.229l-10.79,6.78
		l32.52,47.87l49.091,37.561l46.039-19.73l33.271-31.16l43.729-6.75L771.14,1478.23z"/>
	<path id="MW-NS" fill="#1E3250" stroke="#1E3250" stroke-width="0.5" d="M648.17,1972.72l-3.41-110.93l-36.21-42.14l26.08-35.78
		l-34.95-17.48l-8.8,39.7l-43.08,55.73l57.37,34.29l-12.95,71.55L648.17,1972.72z"/>
	<path id="MW-TH" fill="#1E3250" stroke="#1E3250" stroke-width="0.5" d="M652.75,1682.34l-40.65-37.18l-63.06,42.67l50.64,78.56
		l34.95,17.48l15.33-49.11L652.75,1682.34z"/>
	<path id="MW-CR" fill="#1E3250" stroke="#1E3250" stroke-width="0.5" d="M660.23,1599.48l-49.091-37.561l0.96,83.24l40.65,37.18
		L660.23,1599.48z"/>
	<path id="MW-CK" fill="#1E3250" stroke="#1E3250" stroke-width="0.5" d="M513.93,1632.61l-100.92-21.07l-27,41.05l42.431,43.76
		l5.42,55.211l24.34,6.939l89.6,103.32l43.08-55.73l8.8-39.7l-50.64-78.56l-5.95-51.24L513.93,1632.61z"/>
	<path id="MW-BA" fill="#1E3250" stroke="#1E3250" stroke-width="0.5" d="M643.98,1361.41l-70.5-0.08l-36.461,143.16l52.391,2.779
		l29.21-24.229l32.87-71.04L643.98,1361.41z"/>
	<path id="MW-SA" fill="#1E3250" stroke="#1E3250" stroke-width="0.5" d="M542.18,1044.92l-52.63-4.689l-16.979-23.99l-63.16,0.05
		l-48.06,21.84l-4.18,3.82l1.19,30.39l39.91,13.21l5.961,17.91l-13.951,8.75l-15.86,22.07l24.08-4.11l52.68,67.25l59.33-9.25
		L542.18,1044.92z"/>
	<path id="MW-NI" fill="#1E3250" stroke="#1E3250" stroke-width="0.5" d="M361.35,1038.13l-7.54-80.76l-11.33-16.73l-23.51,14.44
		l-10.3-35.71l-74.77,53.7l34.62,68.96l88.65-0.08L361.35,1038.13z"/>
	<path id="MW-NU" fill="#1E3250" stroke="#1E3250" stroke-width="0.5" d="M573.48,1361.33l-47.87-51.29l-12.07-64.37l-52.75,32.24
		l-38.32-4.021l34.09,49.57l10.141,151.88l70.319,29.15L573.48,1361.33z"/>
	<path id="MW-MC" fill="#1E3250" stroke="#1E3250" stroke-width="0.5" d="M163.21,1073.45l-34.59-33.95l-12.03-39.53l-59.34,2.98
		L0.2,1073.4l23.47,4.789l10.77,16.381l-12.46,16.84l27.51,11.06l31.12,58.65l34.78-32.021l53.69,78.011l-4.41-64.58l-21.37-37.17
		L163.21,1073.45z"/>
	<path id="MW-MG" fill="#1E3250" stroke="#1E3250" stroke-width="0.5" d="M761.72,1307.01L596.7,1092.811l-54.521-47.891
		l-31.67,143.25l3.03,57.5l12.07,64.37l47.87,51.29l70.5,0.08l3.189-19.521l41.38,20.48l26.25-39.34L761.72,1307.01z"/>
	<path id="MW-LI" fill="#1E3250" stroke="#1E3250" stroke-width="0.5" d="M390.28,1112.21l-49.76,10.979l-65.16-16.659l-9.11-25.091
		l-55.98,11.051l-25.05-56.69l-22.01,37.65l-19.91,51.91l21.37,37.17l4.41,64.58l64.7,84.68l24.24-44.94l53.8-24.33l86.68-112.35
		l-24.08,4.11L390.28,1112.21z"/>
	<path id="MW-DO" fill="#1E3250" stroke="#1E3250" stroke-width="0.5" d="M357.17,1041.95l-88.65,0.08l-34.62-68.96l-22.98,27.439
		l-15.94-3.899l-9.76,39.189l25.05,56.69l55.98-11.051l9.11,25.091l65.16,16.659l49.76-10.979l13.951-8.75l-5.961-17.91
		l-39.91-13.21L357.17,1041.95z"/>
	<path id="MW-DE" fill="#1E3250" stroke="#1E3250" stroke-width="0.5" d="M510.51,1188.17l-59.33,9.25l-52.68-67.25l-86.68,112.35
		l-53.8,24.33l-24.24,44.94l10.9,11.56l14.36-30.01l20.3,11.03l143.13-30.48l38.32,4.021l52.75-32.24L510.51,1188.17z"/>
	<path id="MW-MA" fill="#1E3250" stroke="#1E3250" stroke-width="0.5" d="M771.14,1478.23l28.66-83.221l-14.13-60.55l-23.95-27.45
		l-46.92,16.021l-26.25,39.34l-41.38-20.48l-3.189,19.521l7.51,50.59l-32.87,71.04L771.14,1478.23z"/>
	<path id="MW-RU" fill="#1E3250" stroke="#1E3250" stroke-width="0.5" d="M482,302.01l-126.11,0.03l-40.39-32.89l-67.99,30.5
		l-42.81,49.41L140.43,373.4l12.27,27.58l35.66,9.35l3.51,24.37l22.89-22.15l45.39,16.101l5.68-14.641l43.49-0.43l5.26-15.46
		l27.67,28.57l44.19-28.08l94.81,0.01l14.16-53.78L482,302.01z"/>
	<path id="MW-NK" fill="#1E3250" stroke="#1E3250" stroke-width="0.5" d="M416.31,711.86l-127-15.61l-18.34,32.74l38.62,47.25
		l44.68,9.79l-66.84,53.79l-1.82,33.25l25.63,1.56l17.25,21.93l-19.82,22.811l10.3,35.71l23.51-14.44l11.33,16.73l7.54,80.76
		l48.06-21.84l63.16-0.05L450.7,834.19L416.31,711.86z"/>
	<path id="MW-NA_1_" fill="#1E3250" stroke="#1E3250" stroke-width="0.5" d="M481.25,398.62l-94.81-0.01l-44.19,28.08l-9.02,42.75
		l20.32,50.109l-59.25,23.08l-22.79,34.03L284,658.08l-26.21,25.28l31.52,12.89l127,15.61l51.57-94.7l13.101-63.87l86.14-1.2
		l-19.32-50.06l-29.97-7.65l-35.78-56.899L481.25,398.62z"/>
	<path id="MW-MZ" fill="#1E3250" stroke="#1E3250" stroke-width="0.5" d="M342.25,426.69l-27.67-28.57l-5.26,15.46l-43.49,0.43
		l-5.68,14.641l-45.39-16.101l-22.89,22.15l-3.51-24.37l-35.66-9.35l24.75,47.869l-39.77,63.57l-4.38,37.21l20.84,7.53l4.27,45.149
		l-15.18,92.971l23.96,47.739l40.71,11.75l17.74,6.341l-3.42,61.93l65.21,16.78l66.84-53.79l-44.68-9.79l-38.62-47.25l18.34-32.74
		l-31.52-12.89L284,658.08l-12.49-81.42l22.79-34.03l59.25-23.08l-20.32-50.109L342.25,426.69z"/>
	<path id="MW-KS" fill="#1E3250" stroke="#1E3250" stroke-width="0.5" d="M287.43,839.82l-65.21-16.78l3.42-61.93l-17.74-6.341
		l-84.35,62.32L86.8,815.23L66.08,855.13l17.93,37.43l-3.81,72.49l-22.95,37.9l59.34-2.98l12.03,39.53l34.59,33.95l22.01-37.65
		l9.76-39.189l15.94,3.899l22.98-27.439l74.77-53.7l19.82-22.811l-17.25-21.93l-25.63-1.56L287.43,839.82z"/>
	<path id="MW-CT1" fill="#1E3250" stroke="#1E3250" stroke-width="0.5" d="M74.39,0L61.06,6.69l16.35,55.38l23.16,8.49L105,52.02
		l19.09,3.48l41.61,57.56l-9.75,58.41l56.75,42.12l34.81,86.06l67.99-30.5l-61.2-96.77l-54.52-25.71l53.79-46.09l-11.93-42.92
		l-52.29,2.67l-34.34-32.47l-31.53,4.72L74.39,0z"/>
	<path id="MW-CT2" fill="#1E3250" stroke="#1E3250" stroke-width="0.5" d="M482,302.01l-23.8-144.37l-51.21-72.78l-75.57-60.71
		l-24.98,60.4l-43.89-33.62l-20.91,6.73l11.93,42.92l-53.79,46.09l54.52,25.71l61.2,96.77l40.39,32.89L482,302.01z"/>
</g>
</svg>
