<?xml version="1.0" encoding="utf-8"?>
<!-- Generator: Adobe Illustrator 15.0.0, SVG Export Plug-In . SVG Version: 6.00 Build 0)  -->
<!DOCTYPE svg PUBLIC "-//W3C//DTD SVG 1.1//EN" "http://www.w3.org/Graphics/SVG/1.1/DTD/svg11.dtd">
<svg version="1.1" id="Layer_1" xmlns:amcharts="http://amcharts.com/ammap"
	 xmlns="http://www.w3.org/2000/svg" xmlns:xlink="http://www.w3.org/1999/xlink" x="0px" y="0px" width="676.336px"
	 height="629.344px" viewBox="0 0 676.336 629.344" enable-background="new 0 0 676.336 629.344" xml:space="preserve">
<defs>
	
	
		<amcharts:ammap  projection="mercator" bottomLatitude="10.160296" leftLongitude="-12.243402" topLatitude="25.000722" rightLongitude="4.244202">
		</amcharts:ammap>
</defs>
<g>
	<path id="ML-BKO" fill="#1E3250" stroke="#1E3250" stroke-width="0.5" d="M165.58,515.81L165.58,515.81l0.18-1.13l1.13,0.78
		l0.91,2.07l2.18,0.6l0.53-0.5l-0.4-2.64l0.8-0.931l-0.04-2.01l-1.52-2.069l-1.52,1.279l-1.38,0.12l-0.14,0.75l-0.96-0.84l0,0
		l-0.77,4.76L165.58,515.81z"/>
	<path id="ML-1" fill="#1E3250" stroke="#1E3250" stroke-width="0.5" d="M115.72,397.54l6.78-0.03l0,0l5.83,5.101l5.77,3.25
		l1.65,1.83l2.45,12.05l1.95-0.49l0.58-0.93l6.92,1.069l0.92,2.92l0.02,7.851l6.23,3.81l3.31,3.2l2.86,0.64l0.41,0.62l-0.32,1.92
		l-1.2,1.74l2.3,2.23l-1.14,0.779l-4.37,0.67l-2.65-0.449l-4.81,0.64l-1.17-0.62l-1.95-3.14l-1.25-0.87l-0.96,0.28l-2.26,3.81
		l-2.52,0.98l-3.6-0.28l-0.71,0.96l0.79,0.39l0.83,2.13l0.79,0.42l0.28,3.65l-0.71,0.61l-0.77-0.67l-1.31-0.141l-0.27,0.42
		l0.57,2.24l-1.23,0.73l0.09,1.01l-0.77,0.17l0.63,1.59l0.71-0.14l0.44,0.84l1.04,0.29l0.44,1.28l1.47-0.61l-0.3,0.81l0.5,1.12
		l0.95,0.09l0.39,1.141l1.74-0.67l1.32,1.21l2.15-1.351l-1.06-0.14l-0.08-0.64l1.01-0.78l-0.42-1.24l1.53-1.2l2.76,0.391l0.93,1.569
		l-0.24,0.931l0.71,0.95l-0.82,0.25l0.36,1.46l-1.78,1.84l-0.02,1.43l-1.04,0.42l-1.31,2.21l0.54,4.101L145,475.27l1.74,1.61
		l0.43,1.21l1.22,0.561l0.87,3.54l-1.46,0.409l-0.77,0.91l0.32,1.12l-0.49,0.021l-0.85,1.59l0.57,0.85l-0.61,1.4l-1.24,0.93
		l-0.55,2.48l0.49,1.199l-1.07,1.04l0.79,2.37l-0.09,2.19l-0.95,2.09l-1.24,0.229l0.43,1.551l-1.34,1.12l1.86,2.229l-0.08,1.49
		l-4.8,4.39l-1.04,2.021l-2.43-0.601l-0.68,0.79l-1.17,0.24l-1.08,3.45l-2.26,0.899l-3.39,2.761l0,0l-1.69-0.41l-2.99-1.891
		l-3.62-0.659l-1.39,0.819l-1.22-0.739l-0.63,0.96l-0.15-0.65l-0.89-0.11l-0.3,0.891l-1.38,0.479l0.04,0.681l0.75-0.11l1.99,2.82
		l1.47,0.899l-1.01,1.521l0.1,1.75l-0.87,0.399l0.06,0.8l-2.92-0.689l-2.55,0.58l-2.45,2.13l-3.51,0.79l-1.87,1.97l0.09,1.8
		l-0.8,0.851l-0.15,1.35l-2.76-0.32l-1.59-1l-2.87-0.01l-1.25-1.66l-2.22,0.011l-1.22-1.2l-2.27-0.86l-0.3,0.42l-0.94-1.62
		l-2.29,0.28l-1.82-1.12l-1.9,0.05l-0.2-0.64l-1.36,0.11l-0.42,0.87l-0.62-1.12l-1.18-0.271l0.16,1.53l-0.91-0.19l-0.51,0.98
		l-1.56-0.2l-0.13,1.271l-1.67,0.979l-2.37,0.15l0.45,1.16l-0.65,0.31l-0.05,1.4l-2.18,0.77l0.6,0.97l-1.96,0.841l-1.08,2.539
		l-1.27,0.771l-2.33-0.9l-0.78-1.1l-0.2-2l-1.53-1.75l0.19-2.87l-2.16-0.89l-1.25-1.19l-0.54-1.649l-1.67-0.841l-3.25,0.71
		l-1.16-0.619l-1.11,3.439l-1.24,0.67l-0.2,0.95l-1.18,0.07l-0.13,1.699l-1.64,1.33l-1.12-0.02l-1.77,1.02l-2.16-1.159l-1.95-1.54
		l-0.56-1.761l-3.47-1.199l-1.2-1.79l-0.13-1.25l2.48-3.091l-0.6-2.56l0.41-1.12l0.92-0.68l0.14,0.7l1.54-0.46l-0.23-2.12l0.9-1.03
		l-0.33-1.35l-0.81,0.54l-0.31-1.771l-0.74-0.15l-0.17,0.641L31.2,516.6l0.34-0.689l0.93-0.04l0.22-0.8l-0.74-1.021l0.7-0.609
		l-0.38-1.11l-1.12-0.37l0.38-1.37l0.45-0.02l0.21-1.15l1.99-0.17l-0.98-1.54l0.38-2.3l-0.81,0.03l-0.19-0.721l0.89-2.35l-0.48-0.99
		l1.89-0.24l-0.2-1.659l-0.8-0.671l-0.4,1.24l-1.07-0.29l-0.06-1.04l0.55-0.54l-1.29-1.899l0.15-1.061l-1.77-0.59l-1.6-2.07
		l0.52-1.579l-1.53-0.7l0.54-1.94l-0.93-1.28l-1.54-0.869l-0.31-2.2l-1.54,0.13l0.27-1.28l-2.42,0.18l-0.39-0.789l-1.35-0.271
		l-1.2,2.87l-1.24,1.2l-1.09,0.149l-0.88-1.92l-1.6-1.279l0.91-1.98l-0.16-1.13l-3.51-2.561l-2.63-3.449l-1.88-4.25l2.91-1.9
		l1.97-2.05l0.58-3.46l-0.13-1.141L9,458.13l0.03-1.88l0.96-2.18l0.07-2.79l-1.47-4.511l-2.99-1l-0.42-0.819l0.52-0.311l-0.08-1.399
		l-4.1-1.32v-2.75l-0.84-0.82l0.3-2.17l1.04-0.26l0.64-2.17l0.88-0.45l0.23-0.899l-1.32-0.83l0.66-0.96l-1.94-0.62l-0.08-1.181
		L0.2,428.32l-0.17-0.931l2.43,0.101l1.74-0.601l3.12,2.32l0.38-1.729l2.69-0.131l1.22-0.88l0.45-1.239l2.66-1.24l2.42-2.12
		l-0.36-1.311l0.97-3.899l-0.36-0.75L15.74,416l0.33-1.39l-0.48-0.641l1.22-1.79l-0.81-1.8l1.18-2.13l0.37-2.93l1.04-1.32l0.93-4.84
		l1.28-1.271l0.12-2.029l1.68,0.05l0.91,0.63l2.72-0.69l0.38-1.569l2.57-1.73l-0.34-0.77l0.47-0.21l3.03,0.08l2.02,2.699l0.33,1.98
		l1.35,0.78l2.94,3.52l2.11,1.05l7.95,6.34l3.77,5.461l0.92-1.08l0.22-2.391l1.53-1.16l0.23-2.08l1.23-1.47l0.7,0.08l0.18-0.68
		l1.93-1.19l0.1-3.55l1.44,0.12l0.93,1.18l6.17-1.439l6.75,0.26l8.08,2.71l5.25,0.42l2.99-0.7l2.35,0.57l2.03-0.21l2.35-1.771
		l1.55,0.15l0.58-0.92l11.41-0.28l-1.37-6.64l4.37-3.851l0.83,1.061l-0.91,6.17l0.22,0.74L115.72,397.54z"/>
	<path id="ML-2" fill="#1E3250" stroke="#1E3250" stroke-width="0.5" d="M180.68,397.42l53.29,0.12l0,0l-3.55,12.979l-4.85,7.101
		l-0.9,2.26l4.38,6.84l2.15,6.94l0.02,2.74l-1.93,2.97l-1.1,0.8l-4.8-1.42l-1.6,0.52l-0.7,1.86l-4.77,6.75l-3.43,7.5l-1.86,2.76
		l-0.1,4.311l-0.84,3.12l0.43,2.21l2.56,2.8l-0.81,2.689l3.09,4.29l0.37,2.131l-1.38,0.93l-0.85,2.149l3.33,1.08l-0.98-0.14
		l-1.99,0.87l-2.72-0.5l-3.25,1.689l-0.79,2.091l-2.44,1.27l1.25,2.64l-0.08,1.261l-2.4,4.949l1.82,1.91l-0.04,3.12l6.03,0.97
		l-0.5,0.551l0.09,2.39l0.6-0.66l0.58,0.59l0.88-0.989l1.43-0.28l0.72,2l0.79-0.69l5.67-0.76l1.8,0.75l2.77,2.81l0.32,1.04
		l1.6-1.329l1.79,0.59l0.03,2.3l1.25,2.7l0.93,0.18l0.57,0.8l1.63-0.55l1.63,1.021l0,0l0.62,1.05l-0.26,0.939l-0.77,0.13l1.39,2.62
		l-0.86,0.38l-0.33,1.011l1.8-0.33l2.53,0.609l1.37,3.25l1.76,0.67l1.21-0.18l0.42-0.979l1.63,0.25l0.35,1.029l-0.37,1.521l1.5,0.88
		l-0.18,2.8l-6.51,0.38l-0.48,2.58l-1.1,0.79l-1.06-0.03l-2-1.6l-3.1,1.03l-2.13,2.38l0.84,3.58l-2.5,3.49l-0.88,2.909l-1.5,1.74
		l-0.83,3.21l-2.17,0.41l0.29-1.35l-0.77-1.57l0.09-1.51l-4.5-1.7l-0.98,1.2l-0.77-1.37l-4.57-1.05l-2.57-2.9l-1.35,0.07l-0.11-2.23
		l-0.62-0.88l-5.59,0.49l-0.46-0.58l1.11-1.87l-1.2-0.74l-1.26,0.12l-0.53-0.74l0.76-0.899l1.24,0.18l0.4-0.45l0.31-1.31l-1.73-0.36
		l2.58-1.99l-0.35-1.17l-1.51-0.449l1.2-2.351l-1.68-1.62l0.31-1.13l-0.71-1.71l0.85-2.71l-0.67,0.13l-0.78,1.2l-0.81,0.08
		l-1.12,2.34l-1.85,0.141l-1.35,1.029l-0.54,2.9l-0.65-0.09l-0.46,0.899l-1.51,0.49l-0.27,0.61h-0.98l-1.18,1.42h-0.91l-2.42,1.85
		l-0.67,2.17l0.6,1.58l-1.51,1.96l-1.09,0.181l-1.31,1.47l-3.06-0.2l-1.02,1.47l-4.59,1.32l-1.71,2.21l-3.51,1.72l-2.56,3.16
		l-1.53,0.86l-4.86-0.2l0.25-0.97l-0.93-0.04l-1.32,1.09L149,553.02l0.35,0.73l-1.38,1.28l-1.03-0.46l-0.06,1.09l-0.8,0.59
		l0.62,0.84l-0.66,0.9l0.35,0.88l-1.73,0.84l0.42,0.521l0,0l-0.49,0.66l-1.43-0.381l-1.64-1.859l-0.75-2.63l-0.62-0.45l-0.11-2.37
		l-1.66,0.21l-1.04,0.94l-0.99-0.601l-2.72-0.26l2.34-11.82l-0.84-1.95l0.43-1.3l-1.06-1.35l-0.93-0.12l-0.61,0.75l-1.63-0.72
		l-0.08-2.16l0.77-2.07l-0.29-0.89l-0.85-1.2l-1.92,0.65l-0.18-1.17l-0.59-0.391l0.23-2.38l1.05-1.2l0.01-0.859l-3.26-3.88l0,0
		l3.39-2.761l2.26-0.91l1.08-3.439l1.17-0.24l0.68-0.8l2.44,0.6l1.04-2.02l4.8-4.39l0.07-1.49l-1.85-2.221l1.34-1.119l-0.44-1.551
		l1.25-0.229l0.94-2.09l0.09-2.19l-0.79-2.37l1.07-1.04l-0.49-1.199l0.55-2.48l1.25-0.93l0.6-1.4l-0.57-0.85l0.85-1.59l0.49-0.021
		l-0.32-1.12l0.77-0.91l1.46-0.41l-0.87-3.529l-1.22-0.561l-0.43-1.21l-1.73-1.609l0.63-0.08l-0.54-4.101l1.31-2.21l1.04-0.42
		l0.03-1.43l1.77-1.85l-0.36-1.46l0.82-0.25l-0.71-0.95l0.25-0.92l-0.93-1.57l-2.76-0.39l-1.53,1.199l0.41,1.23l-1.01,0.78
		l0.08,0.649l1.07,0.141l-2.16,1.34l-1.31-1.2l-1.75,0.67l-0.38-1.15l-0.96-0.079l-0.49-1.12l0.3-0.811l-1.47,0.62l-0.44-1.29
		l-1.04-0.28l-0.44-0.84l-0.71,0.141l-0.63-1.601l0.77-0.17l-0.08-1.01l1.23-0.73l-0.58-2.239l0.27-0.421l1.31,0.141l0.77,0.67
		l0.71-0.62l-0.28-3.64l-0.79-0.42l-0.82-2.131l-0.79-0.39l0.71-0.95l3.61,0.28l2.51-0.98l2.26-3.81l0.96-0.28l1.26,0.87l1.94,3.141
		l1.18,0.619l4.81-0.64l2.65,0.45l4.37-0.67l1.14-0.771L160,442.19l1.2-1.74l0.32-1.92l-0.41-0.62l-2.85-0.64l-3.32-3.2l-6.23-3.811
		l-0.02-7.85l-0.92-2.92l-6.92-1.07l-0.57,0.931l-1.95,0.489l-2.45-12.04l-1.64-1.83l-5.77-3.25l-5.83-5.1l0,0L180.68,397.42z
		 M165.58,515.81L165.58,515.81l0.18-1.13l1.13,0.78l0.91,2.07l2.18,0.6l0.53-0.5l-0.4-2.64l0.8-0.931l-0.04-2.01l-1.52-2.069
		l-1.52,1.279l-1.38,0.12l-0.14,0.75l-0.96-0.84l0,0l-0.77,4.76L165.58,515.81z"/>
	<path id="ML-3" fill="#1E3250" stroke="#1E3250" stroke-width="0.5" d="M235.79,516.39l1.96-2.09l6-2.85l1.84-3.73l1.87-0.319
		l2.05,0.79l4.09,0.26l8.1-2.811l1.35,0.181l0.53,1.42l2.2,2.22l0.45,1.521l2.14,0.63l0.85,2.09l1.28-0.54l0.13-1.72l0.97-1.19
		l0.9-2.8l3.87-1.46l3.15,2.29l1.14,1.479l1.04,4.58l-0.74,1.83l3.8-0.37l-1.08-2.25l0.59-0.33l2.69,0.221l1.09,1.21l4.62-0.591
		l0.22-1.55l3-4.12l0.43-2.199l1.04,0.54l1.34-0.24l1.08,2.46l1.28,0.92l2.06-0.73l0.53,0.511l2.28,0.029l0,0l-0.23,2.74l2.34,1.99
		l1.36,2.82l-1.41,1.93l-0.93,2.77l0.08,1.521l1.18,2.5l-2.5-0.34l-0.75,2.21l-3.45,3.12l1.16,1.51l-0.3,0.7l-2.22,0.85l-1.3,2.39
		l-1.93,0.15l-1.06,2.13l-4.2-0.82l-6.07,1.381l-3.3,0.06l-3,1.28l-0.13,0.649l-0.82,0.13l-0.39,1.011l-2.44,1.659l-0.68,1.11
		l-0.73-0.75l-2.67,1.18l-1.1-0.71l-1.08,0.431l2.05,1.42l0.24-0.37l2.04,0.79l0.55,1.05l0.85-0.17l-0.3,3.12l-1.08,2.66l0.57,0.58
		l1.71-0.011l0.71,0.79l0.76,2.24l-0.41,2.5l0.58,1.36l-0.66,1.479l-1.95,1.471l-0.25,4.96l-2.21,1.479l-0.52,2.43l-2.08,1.551
		l-4.04,1.39l0.28,3.58l0.82,0.46l0.8,3.57l1.03,0.779l-1.06,3.271l-0.98,0.49l-0.35,5.38l0.7,1.04l-0.01,1.42l-2.11,5.109
		l-2.01-1.26l-1.07,0.49l-3.12-0.41l-2.74,1.26l-1.77-0.12l-2.27,2.061l-1.6,0.6l-0.8,3.49l-2.64,0.08l-0.58,2.26l-1.28,0.88
		l-3.86-0.239l-2.46-0.94l-0.63-1.13l-0.91-0.08l-0.66-1.55l1.02-0.67l0.74,0.479l0.37-0.64l-0.38-1.03l1.16-0.74l-1.06-0.939
		l0.3-0.891l0.91-0.369l-1.15-1.671l1.03-1l-1.58-0.43l-0.61-1.13l-0.46,0.41l-0.7-0.3l0.13-0.84l1.35-1.091l-0.43-1.779l1.37-0.74
		l-1.85-1.26l0.08-1.38l0.73-0.881l-1.64-0.58l-3.71,1.671L231,589.97l-1.34,0.48l-0.15,3l0.94,0.729l-1.88,1.66l-3.77-0.859
		l-4.04-3.4l-0.64,1.15l0.47,0.17l-1.06,0.71l0.37,3.37l-0.6,0.149l-0.22,1.74l0.23,0.91l1.93,1.1l-1.66,2.94l-1.07,0.35l-2.55-1.4
		l-3.56,1.16l-3.67-0.29l-1.96,2.65l1.2,2.65l-0.12,1.399l-2.38,1.58l-0.68-0.02l-1.66-2.5l-3.51-1.29l-4.06-0.271l-0.57-0.97
		l-1.46,0.77l-1.81-0.22l0.55-3.49l-2.38-1.08l-1.29-3.229l-1.99-0.351l-2.23,1.5l-1.99-0.3l-1.02-1.55l-1.37,1.86l-2.35,0.939
		l-0.3,0.87l0.58,0.28l-0.41,0.53l0.42,0.97l-1.11,0.37l-0.08,0.779l-0.67,0.37l0.75,0.4l-1.74,1.41l-0.6,1.24l-4.35,2.6l-2.06-0.16
		l1.24-2.63l-0.84-2.88l-1.51-1.17l-3.34-0.601l-1.14-2.55l-2.08,0.92l-2.06-0.439l-0.76-2.21l-0.67-0.45l-0.59-1.75l0.14-2.271
		l-1.12-2.33l-0.21-3.189l0.45-1.38l-1.32-0.44l0.9-2.39l1.21-1.25l-0.46-5.66l-1.4-2.08l-1.91-1.09l-1.36,0.49l-2.65-0.261
		l-1.19,1.49l-0.47,2.37l-0.83-0.17l-2.15,1.04l-1.26-0.6l-1.52,0.64l-0.64-0.24l-0.16-2.1l1.22-1.03l0.21-1.2l0.96-1.01
		l-0.07-1.229l1.63-0.24l0.4-0.561l0.19-2.58l3.14-0.699l-0.5-1.631l0.58-0.93l3.57,0.561l0.67-0.28l0.49-1.51l-2.24-0.561
		l0.42-1.16l1.37-0.3l-0.22-0.31l-4.32-0.7l-1.4-1.54l0.35-0.47l-0.52-1.311l-1.3,0.641l0,0l-0.41-0.511l1.73-0.84l-0.35-0.88
		l0.66-0.91l-0.62-0.84l0.8-0.58l0.06-1.1l1.04,0.46l1.38-1.28l-0.35-0.729l8.77-1.87l1.32-1.08l0.93,0.04l-0.24,0.97l4.86,0.2
		l1.53-0.86l2.56-3.16l3.51-1.72l1.71-2.21l4.6-1.31l1.02-1.471l3.06,0.2l1.31-1.47l1.09-0.181l1.51-1.97l-0.59-1.569l0.66-2.171
		l2.43-1.85h0.91l1.17-1.43h0.98l0.27-0.61l1.51-0.479l0.46-0.9l0.65,0.09l0.54-2.899l1.35-1.03l1.84-0.141l1.12-2.34l0.81-0.08
		l0.78-1.199l0.67-0.131l-0.85,2.71l0.71,1.711l-0.31,1.13l1.68,1.62l-1.2,2.35l1.5,0.439l0.36,1.181l-2.58,1.979l1.73,0.36
		l-0.32,1.31l-0.4,0.45l-1.24-0.18l-0.75,0.91l0.53,0.739l1.26-0.119l1.2,0.75l-1.12,1.869l0.47,0.58l5.59-0.479l0.62,0.87
		l0.11,2.229l1.35-0.069l2.56,2.899l4.57,1.05l0.77,1.37l0.98-1.2l4.5,1.711l-0.09,1.5l0.77,1.579l-0.29,1.351l2.17-0.41l0.83-3.21
		l1.5-1.75l0.88-2.91l2.5-3.479l-0.84-3.591l2.13-2.38l3.11-1.029l1.99,1.609l1.06,0.03l1.1-0.79l0.48-2.58l6.51-0.38l0.19-2.8
		l-1.5-0.88l0.37-1.521l-0.35-1.03l-1.63-0.25l-0.42,0.98l-1.21,0.18l-1.76-0.67l-1.36-3.25l-2.53-0.609l-1.81,0.34l0.33-1.011
		l0.86-0.38l-1.39-2.62l0.77-0.14l0.27-0.939L235.79,516.39z"/>
	<path id="ML-4" fill="#1E3250" stroke="#1E3250" stroke-width="0.5" d="M271.54,395.3l0.57,2.2l4.29,0.17l1.78,0.771l3.51,11.369
		l-4.22,6.82l-2.35,1.93l-3.74,0.16l-7.28,1.74l-2.37,6.6l0.5,3.12l-0.77,1.11l-0.31,2.979l-1.58,1.19l-0.1,1.15l17.72,11.069
		l-0.24,1.48l1.15,2.14l2.74,1.94l-1.23,2.47l0.96,4.12l2.78,0.49l2.84-0.561l-0.24-3.029l0.63-1.41l0.78-0.91l2.07-0.2l1.8,5.3
		l-0.21,1.561l-1.25,2.17l0.88,3.83l-0.87,1.899l0.72,3.811l5.57,0.489l1.31-0.38l5.86,0.94l3.48-2.37l-0.07-1.02l2.02-0.41
		l0.77-0.78l3.26-5.9l7.79-2.67l2.88,3.971l1.05,5.35l2.14,4.35l-0.21,3.971l0,0l-0.83,0.16v1.449l-0.83,1.061l-3.82,1.91
		l-0.79,2.409l-0.97,1.11l-4.38,2.771l0.47,1.89l-1.61,0.08l-2.69,1.88l4.87,7.4l0.15,6.899l-0.79,2.101l-2.49,1.13l-2.29-1.351
		l-4.42,0.46l0,0l-2.28-0.029l-0.53-0.511l-2.06,0.73l-1.28-0.92l-1.08-2.46l-1.34,0.24l-1.04-0.54l-0.43,2.199l-3,4.12l-0.22,1.55
		l-4.62,0.591l-1.09-1.21l-2.69-0.221l-0.59,0.33l1.08,2.25l-3.8,0.37l0.74-1.83l-1.04-4.58l-1.14-1.479l-3.15-2.29l-3.87,1.46
		l-0.9,2.8l-0.97,1.19l-0.13,1.72l-1.28,0.54l-0.85-2.09l-2.14-0.63l-0.45-1.521l-2.2-2.22l-0.53-1.42l-1.35-0.181l-8.1,2.811
		l-4.09-0.26l-2.05-0.79l-1.87,0.319l-1.84,3.73l-6,2.85l-1.96,2.09l0,0l-1.63-1.02l-1.62,0.55l-0.57-0.8l-0.93-0.18l-1.25-2.7
		l-0.03-2.3l-1.79-0.591l-1.6,1.33l-0.31-1.04l-2.77-2.81l-1.8-0.75l-5.67,0.76l-0.79,0.7l-0.72-2.01l-1.43,0.279L212,506.8
		l-0.58-0.58l-0.6,0.66l-0.09-2.39l0.51-0.55l-6.03-0.971l0.04-3.13l-1.82-1.91l2.4-4.949l0.08-1.261l-1.24-2.64l2.44-1.271
		l0.79-2.09l3.25-1.68l2.71,0.49l1.99-0.86l0.99,0.14l-3.33-1.079l0.85-2.15l1.38-0.92l-0.38-2.13l-3.08-4.29l0.8-2.69l-2.55-2.8
		l-0.43-2.21l0.84-3.12l0.1-4.3l1.86-2.76l3.43-7.5l4.77-6.74l0.7-1.86l1.6-0.52l4.8,1.42l1.1-0.8l1.93-2.96l-0.02-2.74l-2.15-6.94
		l-4.38-6.84l0.89-2.26l4.85-7.101l3.55-12.979l0,0l31.57-0.5l0,0L271.54,395.3z"/>
	<path id="ML-5" fill="#1E3250" stroke="#1E3250" stroke-width="0.5" d="M271.54,395.3l5.05-4.979l2.98,2.63l1.24,0.319l4.93-0.13
		l3.28,0.86l1.17-0.73l6.81,0.87l2.23-0.479l1.73,0.27l6.25-2.87l3.97,0.141l2.03-3.271l2.72-0.84l0.24-1.109l2.31-0.431l1.21-0.83
		l3.22-0.41l1.33,3.08l1.39,1.271l1.53,1.26l2.69,0.54l-0.07,1.29l1.19,2.66l-1.3,2.47l3.34,0.96l2.91-0.27l2.74,0.52l3.12-3.399
		l0.68-2.301l1.32-0.77l1.56-3.561l5.73,0.96l1.9-0.77l-0.52-1.64l0.35-0.36l-1.11-0.85l0.65-1.381l1.5-1.119l6.55-0.351l4.44-1.109
		l0.42,0.189l0.23,4.42l5.95,0.07l1.3,1.399l0.96,1.601l0.33,2.49l6.13,10.8l2.76,2.149l3.29,0.79l11.88-4.25l4.33-0.689l13.95-0.24
		l7.069,2.04l4.24,2.1l7.75,6.24l17.76,4.46l0,0l-3.06,2.141l-5.05,5.199l-3.15,2.061l-15.1,2.34l-22.75,7.66l-0.92,1.12
		l-5.21,12.55l-14.19,4.439l-13.61,5.721l-2.96,6.91l0.75,6.869l-0.82,0.82l-0.95,0.36l-2.08-1.65l-1.77,1.76l-0.69-1.579
		l-1.52-1.301l-3.08,0.41l-2.12-1.1l-1.59-0.13l0.97,2.71l-0.22,2.939l-0.84,1.67l0.88,7.061l0.86,2.14l-0.72,0.88l-6.92,0.82
		l0.47,2.82l-0.53,1.229l-3.91-0.37l-2.66-1.22l-2.82-2.42l-2.02-0.83l-2.96-3.04l-6.7-1.14l-0.1-1.08l2.15-0.92l-1.21-0.91
		l-0.68-1.63l0,0l0.21-3.971l-2.14-4.35l-1.05-5.35l-2.88-3.971l-7.79,2.67l-3.26,5.9l-0.77,0.78l-2.02,0.41l0.07,1.02l-3.48,2.37
		l-5.86-0.94l-1.31,0.38l-5.57-0.489l-0.72-3.811l0.87-1.899l-0.88-3.83l1.25-2.17l0.21-1.561l-1.8-5.3l-2.07,0.2l-0.78,0.91
		l-0.63,1.41l0.24,3.029l-2.84,0.561l-2.78-0.49l-0.96-4.12l1.23-2.47l-2.74-1.94l-1.15-2.14l0.24-1.48l-17.72-11.069l0.1-1.15
		l1.58-1.19l0.31-2.979l0.77-1.11l-0.5-3.12l2.37-6.6l7.28-1.74l3.74-0.16l2.35-1.93l4.22-6.82l-3.51-11.369l-1.78-0.771l-4.29-0.17
		L271.54,395.3z"/>
	<path id="ML-6" fill="#1E3250" stroke="#1E3250" stroke-width="0.5" d="M285.5,0.09l6.61,0.06l2.7,1.81l121.4,83.61l65.87,46.42
		l0.26,1.61l0,0l-8.16,26.45l-0.93,1.33l-26.04,21.88l-0.82,0.16l-8.96,8.71l-0.88-0.05l-4.189,4.07l-1.66,0.44l-4.82,3.09
		l-3.78,1.54l-19.979,11.01l43.54,35.3l2.5,4.59l0,0l0.21,3.61l-0.65,2.18l-0.47,20.08l-0.52,0.69l-0.61,16.02l-30.68,20.41
		l5.89,22.439l34.38,2.75l-0.84,14.74l0.72,20.63l1.74,9.69l7.18,29.01l0,0l-9.569,0.01l-1.761,0.63l0,0l-17.76-4.46l-7.75-6.24
		l-4.24-2.1l-7.069-2.04l-13.95,0.24l-4.33,0.689l-11.88,4.25l-3.29-0.79l-2.76-2.149l-6.13-10.8l-0.33-2.49l-0.96-1.601l-1.3-1.399
		l-5.95-0.07l-0.23-4.42l-0.42-0.189l-4.44,1.109l-6.55,0.351l-1.5,1.119l-0.65,1.381l1.11,0.85l-0.35,0.36l0.52,1.64l-1.9,0.77
		l-5.73-0.96l-1.56,3.561l-1.32,0.77l-0.68,2.301l-3.12,3.399l-2.74-0.52l-2.91,0.27l-3.34-0.96l1.3-2.47l-1.19-2.66l0.07-1.29
		l-2.69-0.54l-1.53-1.26l-1.39-1.271l-1.33-3.08l-3.22,0.41l-1.21,0.83l-2.31,0.431l-0.24,1.109l-2.72,0.84l-2.03,3.271l-3.97-0.141
		l-6.25,2.87l-1.73-0.27L297,394.14l-6.81-0.87l-1.17,0.73l-3.28-0.86l-4.93,0.13l-1.24-0.319l-2.98-2.63l-5.05,4.979l0,0l0,0l0,0
		l-6,1.74l0,0l7.06-33.6l-10.87-6.79l-15.64-149.88L228.26,45.51L223.83,0L285.5,0.09z"/>
	<path id="ML-7" fill="#1E3250" stroke="#1E3250" stroke-width="0.5" d="M448.16,252.12l37.58,9.42l15.54,27.14l-1.34,2.24
		l-1.49,0.78l0.3,2.24l1.7,2.17l0.8,0.7l4.86,0.04l13.87,4.42l0.93-0.14l4.359,3.54l4.141,2.35l23.82-5.859l-1.261,2.97l6.34,0.16
		l2.391-11.83l10.66-0.09l7.64,3.85l30.52-2.56l40.221,0.94l0,0l0.029,42.08l-6.479,3.08l-0.01,24.2l-3.5,10.6l0.66,3.04
		l-2.25,1.811l-0.7,1.31l-0.94,5.511l-1.319,3.35l-1.971,1.16l-3.25,0.33l-1.33,0.649l-3.88,4.601l-2.93,1.739l-0.23,5.761h-16.93
		l-18.5-1.04l-51.43,4.14l-13.83,11.62l-10.01,0.81l-0.631,0.53l-6.52-1.42l-1.01-0.83l-4.351,1.29l-5.25-0.82l-6.859,0.471
		l-4.09-0.29l-9.641-3.721l-5.32,2.82l-2.76-3.01l0,0l-7.18-29.01l-1.74-9.69l-0.72-20.63l0.84-14.74l-34.38-2.75l-5.89-22.439
		l30.68-20.41l0.61-16.02l0.52-0.69l0.47-20.08l0.65-2.18L448.16,252.12z"/>
	<path id="ML-8" fill="#1E3250" stroke="#1E3250" stroke-width="0.5" d="M529.52,181.71l1.99,0.1l2.561-0.71l0.899,0.54l0.65,1.81
		l1.03,0.93l3.3,0.63l7.05,3.01l0.91,1.85l0.55,5.2l3.84,2.84l1.37,1.9l2.87-0.06l1.61,2.5l1.649-0.92l2.021,0.78l1.29-0.63
		l2.08,1.87l3.06-3.16l1.48,0.09l4.229,3.23l3.98,6.35l1.93-0.21l1.81,1.53l2.54,0.82l5.011,0.01l4.18,1.43l6.02,0.83l8.011,4.68
		l2.52,0.57l-0.75,5.98l0.85,1.48l-0.909,2.8l1.54,2.53l-0.591,1.59l1.36,2.36l0.07,1.12l-2.41,2.48l-0.75,1.62l0.12,1.13l-3.37,3.7
		l-0.05,0.87l0.79,1.87l7.949,6.28l36.03-7.22l-0.1,46.49l0,0l-40.221-0.94L579,296.22l-7.64-3.85l-10.66,0.09l-2.391,11.83
		l-6.34-0.16l1.261-2.97l-23.82,5.859l-4.141-2.35l-4.359-3.54l-0.93,0.14l-13.87-4.42l-4.86-0.04l-0.8-0.7l-1.7-2.17l-0.3-2.24
		l1.49-0.78l1.34-2.24l-15.54-27.14l-37.58-9.42l0,0l-2.5-4.59l-43.54-35.3l19.979-11.01l3.78-1.54l4.82-3.09l1.66-0.44l4.189-4.07
		l0.88,0.05l8.96-8.71l0.82-0.16l26.04-21.88l0.93-1.33l8.16-26.45l0,0l0.44,1.64l45.8,30.14l0.96,6.41l-1.29,8.45L529.52,181.71z"
		/>
</g>
</svg>
