<?xml version="1.0" encoding="utf-8"?>
<!-- Generator: Adobe Illustrator 15.0.0, SVG Export Plug-In . SVG Version: 6.00 Build 0)  -->
<!DOCTYPE svg PUBLIC "-//W3C//DTD SVG 1.1//EN" "http://www.w3.org/Graphics/SVG/1.1/DTD/svg11.dtd">
<svg version="1.1" id="Layer_1" xmlns:amcharts="http://amcharts.com/ammap"
	 xmlns="http://www.w3.org/2000/svg" xmlns:xlink="http://www.w3.org/1999/xlink" x="0px" y="0px" width="836.5px" height="924.5px"
	 viewBox="0 0 836.5 924.5" enable-background="new 0 0 836.5 924.5" xml:space="preserve">
<defs>
	
	
		<amcharts:ammap  projection="mercator" bottomLatitude="14.721273" leftLongitude="-17.0687276" topLatitude="27.3158916" rightLongitude="-4.8336008">
		</amcharts:ammap>
</defs>
<g>
	<path id="MR-09" fill="#1E3250" stroke="#1E3250" stroke-width="0.5" d="M516.87,707.24L592.77,538.97l-199.01,0.971l-25.32,20.97
		l-1.84,14.24l-14.84-8.08l-64.74,52.67l12.44,19.47l-4.32,53.69l15.32,14.81l26.15,12.94l22.17-2.58l10.14-34.84l-10.84-24.171
		l39.87-22.38l-7.11,40.391l48.78,14.02l39.83-2.609L516.87,707.24z"/>
	<path id="MR-02" fill="#1E3250" stroke="#1E3250" stroke-width="0.5" d="M516.87,707.24l-37.42-18.76l-39.83,2.609l-48.78-14.02
		l5.82,62l18.979,15.1l-11.27,8.86l18.78,70.42l75.819-0.84l4.4-17.45l0.479,13.72h22.591l-4.19-38.45l50.82-65.47l-20.181-22.39
		L516.87,707.24z"/>
	<path id="MR-01" fill="#1E3250" stroke="#1E3250" stroke-width="0.5" d="M526.44,828.88l228.09,0.09l10.29-55.529l-17.641-14.7
		L723.1,528.89l-24.79-228.41L592.77,538.97L516.87,707.24l36.02-4.67l20.181,22.39l-50.82,65.47L526.44,828.88z"/>
	<path id="MR-07" fill="#1E3250" stroke="#1E3250" stroke-width="0.5" d="M698.31,300.48l-8.79-82.17L409.89,413.73l-103.86,11.81
		l-42.72-16.16l1.1,17.44l-83.62,0.01l8,13.229l-3.17,149.091h63.84l37.56,30.59l64.74-52.67l14.84,8.08l1.84-14.24l25.32-20.97
		l199.01-0.971L698.31,300.48z"/>
	<path id="MR-04" fill="#1E3250" stroke="#1E3250" stroke-width="0.5" d="M330.4,798.77L314,778.55l-11.22,2.13l-0.1-16.149
		l-21.74-1.09l-3.97-27.23l-23.42,30.28l-35.05,17.33l15.24,0.3l16.14,36.09l17.86,7.75l14.22,25.6l18.52-35.729L330.4,798.77z"/>
	<path id="MR-10" fill="#1E3250" stroke="#1E3250" stroke-width="0.5" d="M326.12,880.38l16.33-11.189l7.75-43.15l13.16-29.31
		l-20.4-5.851l-1.41,9.95l-11.15-2.061l-29.92,19.061l-18.52,35.729L326.12,880.38z"/>
	<path id="MR-03" fill="#1E3250" stroke="#1E3250" stroke-width="0.5" d="M390.84,677.07l7.11-40.391l-39.87,22.38l10.84,24.171
		l-10.14,34.84l-22.17,2.58l-26.15-12.94l-27.28,15.61l-6.21,12.89l3.97,27.23l21.74,1.09l0.1,16.149l11.22-2.13l16.4,20.22
		l11.15,2.061l1.41-9.95l20.4,5.851l-13.16,29.31l17.43-5.82l33.94,35.25l11.68-21.649l9.9-0.37l-18.78-70.42l11.27-8.86
		l-18.979-15.1L390.84,677.07z"/>
	<path id="MR-06" fill="#1E3250" stroke="#1E3250" stroke-width="0.5" d="M287.02,619.74l-37.56-30.59h-63.84L55.74,589.47
		l9.81,41.71l18.23-0.149l-0.03,34.81l-16.37,0.01l-27.89,84.98l-5.43,56.8l17.54-48.57l39.29,2.851l47.23-12.9l41.07-28.49
		l38.31-48.739L287.02,619.74z"/>
	<path id="MR-13" fill="#1E3250" stroke="#1E3250" stroke-width="0.5" d="M67.38,665.85l16.37-0.01l0.03-34.81l-18.23,0.149
		L67.38,665.85z"/>
	<path id="MR-12" fill="#1E3250" stroke="#1E3250" stroke-width="0.5" d="M188.79,440.06L79.94,439.61l17.07,28.909L48.2,557.71
		l-13.69,5.14l21.23,26.62l129.88-0.319L188.79,440.06z"/>
	<path id="MR-08" fill="#1E3250" stroke="#1E3250" stroke-width="0.5" d="M180.79,426.83L6.24,427.44l-5.79,39.02l9.1-27.43
		l16,33.67l8.51,8.149l0.85-12.43l7.88,4.46l13.48,30.79l-2.06,30.561L39.1,560.65l11.27-9.28l-2.17,6.34l48.81-89.19L79.94,439.61
		l108.85,0.449L180.79,426.83z"/>
	<path id="MR-05" fill="#1E3250" stroke="#1E3250" stroke-width="0.5" d="M310.46,707.71l-15.32-14.81l4.32-53.69l-12.44-19.47
		l-69.52,52.04l-38.31,48.739l-41.07,28.49l39.56,2.311l32.55,34.76l8.27-2.26l35.05-17.33l23.42-30.28l6.21-12.89L310.46,707.71z"
		/>
	<path id="MR-11" fill="#1E3250" stroke="#1E3250" stroke-width="0.5" d="M547.4,0l-0.351,93.93L329.72,94.3l-0.26,182.22
		l-39.19,13.53l-32.69,27.49l5.73,91.84l42.72,16.16l103.86-11.81l279.63-195.42l-5.67-51.6l115.7-0.07L547.4,0z"/>
</g>
</svg>
