<?xml version="1.0" encoding="utf-8"?>
<!-- Generator: Adobe Illustrator 15.0.0, SVG Export Plug-In . SVG Version: 6.00 Build 0)  -->
<!DOCTYPE svg PUBLIC "-//W3C//DTD SVG 1.1//EN" "http://www.w3.org/Graphics/SVG/1.1/DTD/svg11.dtd">
<svg version="1.1" id="Layer_1" xmlns:amcharts="http://amcharts.com/ammap"
	 xmlns="http://www.w3.org/2000/svg" xmlns:xlink="http://www.w3.org/1999/xlink" x="0px" y="0px" width="166.608px"
	 height="265.097px" viewBox="0 0 166.608 265.097" enable-background="new 0 0 166.608 265.097" xml:space="preserve">
<defs>
	
	
		<amcharts:ammap  projection="mercator" leftLongitude="30.21555" topLatitude="-10.4712022" rightLongitude="40.8391213" bottomLatitude="-26.8681621">
		</amcharts:ammap>
</defs>
<g>
	<path id="MZ-MPM" fill="#1E3250" stroke="#1E3250" stroke-width="0.5" d="M39.315,224.734l-1.388-0.652l-0.474,1.227
		L39.315,224.734z"/>
	<path id="MZ-L" fill="#1E3250" stroke="#1E3250" stroke-width="0.5" d="M42.386,238.418l0.803-11.229l-1.467,3.062l-4.27-4.942
		l0.474-1.227l1.388,0.652l2.438-4.915l3.765-2.808l-5.589-14.073l-8.047-2.758l-2.164,0.913l0.911,19.658l-1.179,2.563l2.158,2.866
		l0.568,12.149L42.386,238.418z"/>
	<path id="MZ-I" fill="#1E3250" stroke="#1E3250" stroke-width="0.5" d="M63.182,209.384l9.179-4.636l4.099-6.042l0.651-3.547
		l-0.883-1.159l-1.88,2.61l3.587-14.993l-0.896,0.458l-0.634-3.651l0.813-7.244l-0.448,1.855l-0.995-2.698l-0.62,5.214l-1.159-1.404
		l-0.455-10.522l-1.887-6.552l-0.716,2.016l-0.732-2.965l1.258-2.225l-8.51,3.068l-1.725,1.946l-4.137,0.03l-1.923,1.505
		l-4.474-0.259l-3.282,1.47l-1.714,2.805l2.961,5.723l-0.957,6.364l7.129,9.057l2.099,16.291l1.8,2.963l3.723-1.134l0.545,2.329
		l-2.191,1.449L63.182,209.384z"/>
	<path id="MZ-Q" fill="#1E3250" stroke="#1E3250" stroke-width="0.5" d="M124.098,97.363l-1.951-3.463l0.892-1.502l-1.477-5.527
		l-3.324-5.716L107.224,74.4l-2.024,0.742l-2.289-1.5l-1.667,1.183l-2.228-2.815l-6.554-0.101l-5.609,6.627l-5.883-0.458
		l-0.688,7.951l-5.378,1.345l-3.181,5.416l1.917,2.232l0.178,5.869l0.371,8.162l10.061,8.887l0.592,6.085l0.18,1.271l1.575-0.132
		l-0.378-2.725l2.219,1.256l0.857-3.16l5.432-5.071l1.178-1.965l-1.894-2.326l1.983,1.855l2.691-3.768l12.297-6.216l-0.618-1.312
		l1.206,1.329l6.423-3.592l5.394-0.468L124.098,97.363z"/>
	<path id="MZ-S" fill="#1E3250" stroke="#1E3250" stroke-width="0.5" d="M74.187,109.053l-2.81-2.146l-3.096-7.996l-3.58-2.117
		l-4.896,5.022l-1.24,5.655l0.271,3.517l1.774,1.247l-0.53,3.408l-1.735,0.896l-2.235-1.794l-1.65,2.143l0.746,2.7l-2.043,2.688
		l4.16,3.322l-2.438,9.51l0.368,2.369l1.674,0.843l-7.78,3.427l1.071,4.689l5.167,4.237l0.18,3.376l2.925,1.44l-1.396,3.453
		l4.137-0.03l1.725-1.946l8.51-3.068l-1.561-3.119l-4.259-2.648l0.982-4.397l-1.153-1.047l1.568,0.009l0.035-4.7l-3.239-2.767
		l1.261-0.284l3.321,3.725l12.778-12.67l3.639-1.978l-0.592-6.085L74.187,109.053z"/>
	<path id="MZ-G" fill="#1E3250" stroke="#1E3250" stroke-width="0.5" d="M36.526,158.907l-15.289,15.62l3.371,10.542l-0.115,4.277
		l4.231,6.78l0.993,4.969l2.164-0.913l8.047,2.758l5.589,14.073l17.665-7.627l-2.371-1.878l2.191-1.449l-0.545-2.329l-3.723,1.134
		l-1.8-2.963l-2.099-16.291l-7.129-9.057l0.957-6.364l-2.961-5.723l1.714-2.805l-2.711,1.292L36.526,158.907z"/>
	<path id="MZ-N" fill="#1E3250" stroke="#1E3250" stroke-width="0.5" d="M134.243,91.044l0.528-1.782l-1.603,0.52L134.243,91.044z
		 M142.415,51.718l-5.223-0.843l-3.664,3.059l-13.2,5.824l-5.517,0.275l-6.341,2.409l-1.052-1.01l-2.9,0.681l-9.756,6.69l-2.3,3.106
		l6.554,0.101l2.228,2.815l1.667-1.183l2.289,1.5l2.024-0.742l11.014,6.754l3.324,5.716l1.477,5.527l-0.892,1.502l1.951,3.463
		l9.524-6.047l-0.951-1.746l2.738-1.085l1.866-3.218l-0.915,0.037l7.887-9.388l-0.085-1.632l-1.934,0.042l2.61-1.483l-0.539-1.305
		l1.35,0.286l-1.714-1.953l2.582-0.753l-1.049-3.684l1.08-0.836l-1.86-0.438l-0.932,1.817l0.09-3.064l1.439-0.932l-0.653-1.195
		l-1.861,0.643l1.261-2.678L142.415,51.718z"/>
	<path id="MZ-A" fill="#1E3250" stroke="#1E3250" stroke-width="0.5" d="M115.753,23.574l-3.088-1.822l-4.172,0.091l-1.589,3.336
		l-4.8,2.53l-5.48-2.11l-2.78,0.115l-2.547,1.978l-5.583-0.265l-0.415-1.643l-4.477-2.209l-3.862,2.664l-12.113-0.289l-3.317,8.146
		l2.507,15.132l1.249,2.246l2.915,0.315l2.896,2.54l10,12.789l-0.125,10.961l5.883,0.458l5.609-6.627l2.3-3.106l9.756-6.69
		l2.9-0.681l1.052,1.01l6.341-2.409l-4.834-8.963l2.083-4.667l-3.097-0.592l0.73-7.721l5.181-7.447L115.753,23.574z"/>
	<path id="MZ-P" fill="#1E3250" stroke="#1E3250" stroke-width="0.5" d="M142.415,11.228l-9.712,5.923l-7.176,3.225l-4.481-0.087
		l-5.292,3.286l-0.879,7.068l-5.181,7.447l-0.73,7.721l3.097,0.592l-2.083,4.667l4.834,8.963l5.517-0.275l13.2-5.824l3.664-3.059
		l5.223,0.843l0.894-7.202l-1.465,0.622l-0.949-1.073l3.09-2.51l-2.209-3.413l1.085-1.53l-1.439-1.657l0.904-5.688l-1.214-2.53
		l0.502-3.542l-1.533-0.911l2.066-1.731l0.781-2.317l-0.917-0.777l1.627-1.531l-1.768-1.052l2.221-1.001L142.415,11.228z"/>
	<path id="MZ-B" fill="#1E3250" stroke="#1E3250" stroke-width="0.5" d="M64.701,96.793l-7.583-2.754l-2.789-3.097l-3.248,0.261
		l-7.141,13.183l-1.104,8.099l1.512,5.228l-2.254,2.538l0.417,3.301l-2.767,0.828l-0.136,1.67l2.291,1.786l-1.212,5.279l0.737,2.925
		l1.62-0.349l1.174,1.876l-0.334,3.455l-4.397,6.982l-2.491,0.997l0.124,4.671l-1.982,2.775l1.39,2.46l8.179,4.045l2.711-1.292
		l3.282-1.47l4.474,0.259l1.923-1.505l1.396-3.453l-2.925-1.44l-0.18-3.376l-5.167-4.237l-1.071-4.689l7.78-3.427l-1.674-0.843
		l-0.368-2.369l2.438-9.51l-4.16-3.322l2.043-2.688l-0.746-2.7l1.65-2.143l2.235,1.794l1.735-0.896l0.53-3.408l-1.774-1.247
		l-0.271-3.517l1.24-5.655L64.701,96.793z"/>
	<path id="MZ-T" fill="#1E3250" stroke="#1E3250" stroke-width="0.5" d="M73.816,100.891l-2.958-0.269l0.686-3.786l-9.066-7.649
		l-0.287-2.921l-2.246-2.315l4.402-8.416l-0.667-9.001l-2.282-2.978l-8.172,1.385l-0.989,1.516l-5.792-7.949L7.288,71.603
		l2.336,6.78l0.127,7.087l11.235,0.301l1.896,1.894l4.012,0.76l2.615,2.882l4.98,0.312l5.777,3.514l3.108-0.373l-1.831,3.47
		l2.397,6.157l7.141-13.183l3.248-0.261l2.789,3.097l7.583,2.754l3.58,2.117l3.096,7.996l2.81,2.146L73.816,100.891z"/>
</g>
</svg>
