<?xml version="1.0" encoding="utf-8"?>
<!-- Generator: Adobe Illustrator 15.0.0, SVG Export Plug-In . SVG Version: 6.00 Build 0)  -->
<!DOCTYPE svg PUBLIC "-//W3C//DTD SVG 1.1//EN" "http://www.w3.org/Graphics/SVG/1.1/DTD/svg11.dtd">
<svg version="1.1" id="Layer_1" xmlns:amcharts="http://amcharts.com/ammap"
	 xmlns="http://www.w3.org/2000/svg" xmlns:xlink="http://www.w3.org/1999/xlink" x="0px" y="0px" width="696.5px" height="644.5px"
	 viewBox="0 0 696.5 644.5" enable-background="new 0 0 696.5 644.5" xml:space="preserve">
<defs>
	
	
		<amcharts:ammap  projection="mercator" bottomLatitude="-28.967021" leftLongitude="11.733827" topLatitude="-16.958894" rightLongitude="25.257046">
		</amcharts:ammap>
</defs>
<g>
	<path id="NA-CA" fill="#1E3250" stroke="#1E3250" stroke-width="0.5" d="M621.867,64.117l1.018,2.382l1.304-0.537l2.646,0.268
		l1.365-1.02l3.675-0.991l4.139,1.749l1.308-0.496l2.104,0.31l1.537,1.224l0.938-0.527l0.681,1.056l0.97-0.602l1.305,1.805
		l1.607-0.225l0.397,1.48l0.682-0.139l1.187,1.891l0.845-0.061l-0.25,2.3l1.308-0.532l0.038,0.759l1.326,0.27l0.043,1.095
		l1.106,1.248l3.329,0.985l-4.483-0.29l-0.715,1.394l-0.718-0.145l-0.566,1.002l-2.023,0.679l-0.752-0.373l0.44-0.536l-0.516-0.603
		l-1.813,1.197l-0.202-0.888l-0.821,0.582l-0.984-1.11l0.656-0.732l-0.869,0.042l-3.998,2.476l-1.541,0.027l-1.953,1.465
		l-0.88-0.114l-1.176,1.137l-0.644-0.376l-1.341,2.473l-2.021,0.11l0.168,0.683l-1.85,1.422l-2.245,3.583l-2.011,0.018l-1.871-0.875
		l-0.446-0.682l0.386-0.969l-1.387-1.318l-0.081-1.053l-0.466,0.338l-0.98-0.755l-1.03,0.417l-1.49-0.515l-2.576,2.204l-0.669,1.557
		l-1.105-0.97l-3.484,0.427l-3.507,4.033l-1.096,0.688l-1.403-0.323l-0.204,1.088l-1.651,0.688l-2.02,2.081l-0.772-0.216
		l-1.097,0.795l-0.47,2.037l-2.234,1.285l-1.175,2.062l-1.729,0.879l-0.88,2.091l-3.245,2.582l-1.645,0.088l-0.795,1.557
		l-2.42,1.558l-1.874-0.928l-0.894-4.768l0.487-0.851l-0.276-1.197l-1.212-1.117l-0.213-2.052l-1.001-0.502l-0.141-0.979
		l-1.947-0.35l-0.217-1.545l-2.273,0.312l0.144-1.436l-3.483-4.692l-0.204-1.108l0.555-0.228l-1.011-0.74l0.292-1.011l-1.045-0.802
		l-9.734,0.194l-26.133,5.309l0,0l-0.256-13.808l0,0l78.685-16.228l4.654,1.004l2.27-1.461L621.867,64.117z"/>
	<path id="NA-ER" fill="#1E3250" stroke="#1E3250" stroke-width="0.5" d="M130.128,240.205l5.163-2.771l5.113-4.411l2.23-1.084
		l1.266,0.179l0.549-1.045l0.962,0.136l0.633-0.671l0.954,0.347l1.98-1.236l2.292,0.271l2.875-1.306l2.904,0.316l2.891,1.595
		l2.722-0.137l1.986-0.949l3.265,1.363l3.085-0.903l5.304,2.021l6.14-1.018l4.413-3.783l2.012,0.079l-0.081-1.46l1.471-0.492
		l0.169-0.933l1.048-0.087l2.773-2.893l0.678,0.292l0.774-1.027l2.095-0.619l0.273-1.243l1.661-1.149l0.887-1.91l2.647-1.217
		l1.057-1.627l0.729,0.152l0.637-2.103l1.482-0.59l-0.078-1.336l0.968-0.081l1.735-2.276l2.83,0.031l1.866,2.381l3.752,0.912l0,0
		l0.054,5.287l3.98,1.622l2.425-0.353l0.624,3.351l4.612,3.952l8.892,4.773l3.535,3.442l0.35-0.637l3.066,1.758l2.84-1.81
		l3.208,4.324l1.504,0.215l1.611,1.835l0.201,1.509l2.163,0.611l3.595-0.34l0.375,3.043l-0.844,1.38l2.341,6.65l-5.887,6.019
		l-0.258,4.77l-1.508,5.583l2.083,5.463l-0.102,1.938l0.914-0.12l0.643,1.658l-0.972,2.501l0.857,1.04l-0.643,1.051l0.297,2.396
		l-2.222,0.223l1.587,3.484l-1.08-0.169l-0.44,1.172l-3.756,1.9l2.643,4.5l-0.581,0.743l1.9,3.164l0,0l-3.537,2.185l0.1,4.031
		l-3.063-0.285l-2.232,2.012l-0.018,1.271l-2.78,1.896l-4.008-1.569l-5.338,5.854l5.119-0.169l0.014,7.01l-4.799,0.1l-2.939,2.162
		l-1.266,12.475l0.864,1.479l2.594,1.928l-0.337,0.669l-2.335,0.123l-0.6,0.766l-0.843-0.371l-0.019,0.479l-2.444,0.717l1.396,6.416
		l-1.214,0.054l-2.883,6.003l4.659,3.219l-0.378,3.125l0.642,4.857l-0.333,3.167l-3.413,0.464l-1.023-0.836l0,0l-13.045-4.35
		l-0.409-1.202l-2.405,0.2l-1.935-0.882l-3.667-0.028l-1.98-1.081l-0.622,0.349l-3.37-0.815l-2.012-1.438l-27.751-3.265l0,0
		l-2.049-7.14l0.528-0.911l1.534-0.327l-1.119,0.652l0.591,0.068l-0.264,1.212l1.647-0.926l0.038-3.826l-4.337-14.861l0.214-2.77
		l1.119-0.91l0.264-2.877l0.515,0.177l-0.742,4.71l1.898-0.691l-0.654,3.096l1.232-2.553l-0.314-0.584l2.665-2.959l0.202-4.423
		l-1.044-2.753l0.201-5.527l-0.917-2.288l0.163-1.842l-2.791-5.087l0.277-1.001l-2.741-7.109l-3.382-3.619l-1.32-1.984l0.013-1.634
		l-10.184-12.969l-5.205-4.483l1.282-1.439l-0.025-1.171l-4.4-6.334l-1.157-3.307l0.327-0.686L130.128,240.205z"/>
	<path id="NA-HA" fill="#1E3250" stroke="#1E3250" stroke-width="0.5" d="M225.833,367.084l-0.819,8.207l3.422,1.011l5.753-0.356
		l0.353-1.633l2.765-0.284l6.645-2.564l1.904,0.38l3.467-2.085l-0.747,1.911l0.457,2.258l-1.878-0.253l-3.628,2.432l0.671,0.714
		l4.751,0.255l0.982,2.095l-1.291,2.354l3.956-2.148l-1.409-4.509l3.101-2.726l0.721-1.637l0.855,1.296l1.381-0.346l0.045,1.733
		l2.231-0.023l-0.167-0.854l1.871,0.373l-0.917-3.789l-8.99-1.134l0.611-4.791l0.496-2.354l1.725-2.475l1.553,0.301l0.08,2.908
		l2.91,0.134l2.039-1.278l2.504-3.115l0.579,0.177l-0.066-3.127l-4.259-1.139l0.283-1.832l5.979-12.276l1.83,0.982l0.533,1.444
		l2.016,0.015l0.646-0.899l1.163-0.117l1.408,2.208l6.583-1.556l2.652-4.542l5.057-0.076l3.756,1.545l0.049,6.287l7.14-1.823
		l3.205,0.834l3.144-1.011l-0.606,1.268l-2.501,1.257l0.623,3.655l-2.649,0.543l1.331,4.352l1.875,0.724l-0.2,4.687l0.679,3.268
		l3.516-3.108l5.142,0.163l-0.044-1.614l8.839-0.281l2.717,0.739l3.277,2.983l2.208-1.174l0.546,0.756l2.117-0.146l2.899-1.525
		l4.322-0.695l-0.814-2.713l2.76-0.854l5.22-3.204l1.466,1.53l0,0l4.63,10.001l2.315-1.87l3.812,4.064l4.629,0.783l8.165-3.553
		l3.688,0.082l-1.301,1.673l4.506,0.049l1.553,0.872l3.351-3.692l1.54,0.113l0.792,0.131l-0.035,9.173l33.253-0.172l0,0
		l-0.024,86.544l0,0l-3.457,0.866l-0.33-1.322l-7.717,3.709l-2.327-1.754l-5.883-0.532l-0.681-1.675l-6.972-0.688l-2.756,3.009
		l-5.195-8.312l-1.843,2l-4.556,2.246l-6.052-1.025l-17.172-0.248l0.139-4.438l-16.09-0.053l-5.295,2.882l-8.467,2.23l-7.882,1.218
		l-7.635,0.286l-2.738-1.117l-3.371,0.295l-0.652-0.778l-3.943,4.273l0.012,5.936l-8.028-3.679l-2.059,1.745L286,461.43
		l-4.756,1.637l0.159-2.588l-3.264-1.793l-3.351,0.134l-0.96-1.642l-4.903-1.331l-3.481-0.481l-2.172,0.384l-1.941-4.461
		l-2.893,7.407l-2.872,0.209l1.325-0.627l0.497-1.43l-2.853-2.642l-4.771,1.701l3.005,14.286l-3.263-2.445l-2.918,2.136
		l-3.396-3.761l-7.319-10.353l-3.464,1.03l-5.06-29.682l-41.112,0.359l0,0l-0.851,0.013l-2.489-4.854l0.227-4.064l-1.396-3.65
		l-7.82-10.318l1.043-3.421l-0.327-1.924l-4.212-9.304l-2.59-8.414l-0.302-5.489l0.981-2.053l1.534-0.588l0.264-0.916l-0.842-7.177
		l0.653-6.457l-1.471-4.285l0,0l27.751,3.265l2.012,1.438l3.37,0.815l0.622-0.349l1.98,1.081l3.667,0.028l1.935,0.881l2.405-0.199
		l0.409,1.201L225.833,367.084z"/>
	<path id="NA-KA" fill="#1E3250" stroke="#1E3250" stroke-width="0.5" d="M186.234,427.477l41.112-0.36l5.06,29.682l3.464-1.03
		l7.319,10.353l3.396,3.761l2.918-2.136l3.263,2.445l-3.005-14.286l4.771-1.701l2.853,2.642l-0.497,1.43l-1.325,0.627l2.872-0.209
		l2.893-7.407l1.941,4.461l2.172-0.384l3.481,0.481l4.903,1.331l0.96,1.642l3.351-0.133l3.264,1.793l-0.159,2.587l4.756-1.637
		l1.581,0.634l2.059-1.746l8.028,3.679l-0.012-5.935l3.943-4.274l0.652,0.778l3.371-0.295l2.738,1.117l7.635-0.285l7.882-1.219
		l8.467-2.23l5.295-2.882l16.09,0.053l-0.139,4.438l17.172,0.248l6.052,1.025l4.556-2.246l1.843-2l5.195,8.313l2.756-3.01
		l6.972,0.688l0.681,1.675l5.883,0.532l2.327,1.754l7.717-3.709l0.33,1.322l3.457-0.866l0,0l-0.014,142.453l-5.526,0.771
		l-1.333,0.865l-1.566,2.496l-3.365-1.158l-3.175,2.321l-1.96-1.031l-2.688,0.858l-0.888,0.821l-0.458,2.227l-1.463,0.727
		l-0.557,4.025l-1.114,1.352l-2.854,1.577l-2.392,0.316l-2.155-0.572l-1.56,0.558l-1.339,3.612l0.779,2.306l1.533,0.982l0.248,0.898
		l-0.584,0.761l-1.717-0.341l-2.18,2.278l-1.891,0.771l-2.589,0.198l-2.523-1.766l-1.493-0.113l-0.724-2.157l-2.61-1.548
		l-9.313-1.314l-4.621,0.49l-4.075,1.289l-1.147,1.193l-1.861-0.318l-2.147,0.901l-3.316-1.035l-3.948-0.062l-0.45,0.848
		l-1.538-0.083l-1.41,1.12l-4.749-2.338l-1.677,0.188l-2.378-3.329l-1.423-1.271l-1.211,0.141l-0.801-1.201l-0.47,0.429
		l-5.694-0.746l-1.436-0.925l-0.829,1.034l-1.226-0.787l-2.59,1.488l-1.401-0.669l-0.781-3.391l-1.379-0.466l-1.172,0.794
		l-2.318-0.398l-3.305,1.455l0.612-7.562l-0.858-0.597l-1.475,0.325l-0.624-3.018l-1.167-0.72l-0.343-1.067l0.706-1.852l1.628-0.103
		l1.148-1.918l0.183-1.205l-1.729-2.793l0.286-1.321l-2.223-3.571l-1.149-0.078l-1.322,1.079l-1.042-0.382l-1.848,0.509
		l-1.454-2.273l0.43-4.854l-2.441-0.782l-2.512-3.053l-2.76,0.971l-0.882,1.193l-1.277-0.854l-0.874,0.879l-2.536-0.071
		l-0.771,1.191l0.295,3.828l-0.778,0.466l-1.786-0.783l-0.047,0.857l1.169,1.442l-2.399,0.526l1.038,1.181l-0.056,1.223l-0.958,0.34
		l-1.23-0.847l-0.992,0.7l0.029,1.501l2.413,3.059l-1.787,1.785l-0.001,2.877l-1.989,2.374l-1.089-0.13l-0.497-1.318l-0.792,0.063
		l-2.316,1.418l-1.151,1.734l-5.219,1.61l-1.123,1.385l0.11,2.282l-5.517-4.074l-13.276-14.361l-8.587-7.381l-6.324-6.959
		l-1.534-2.194l-0.013-2.661l-6.651-8.865l-0.528-2.486l0.44-1.13l-0.666-1.284l-2.515-3.062l0.314-0.536l-1.144-2.369l-3.231-3.636
		l-0.491-1.903l-3.143-4.59l-0.465-3.377l-0.805-1.463l0.427-2.222l-1.056-3.19l0.44-0.618l-1.27-2.484l0.44-3.679l-0.516-2.413
		l-1.333-0.757l-0.402,0.659l-1.81-1.164l0.264-2.566l-0.478,0.296l-0.201-1.473l-1.082-1.205l-0.616-1.961l0.327-1.345l-0.917-0.21
		l-0.516-2.324l0.063-1.734l0.867-0.531l0.503,0.362l0.314-0.656l0.113,0.602l0.364-1.259l0.981,3.4l0.063-3.136l0.251,0.657
		l1.056-2.056l-0.327-1.105l-1.22-0.419l-0.226-3.452l-1.27-2.292l0.415-0.726l-1.898-2.458l-4.828-2.609l-1.119-1.579l0.151-4.335
		l0.792-1.547l-1.785-2.813l1.748-0.25l0.516-3.036l-1.056-3.854l-2.125-3.281v-3.935l-3.747-5.166l0.151-0.875l0.817-0.194
		l-0.478-3.648l2.012-5.532l-2.037-3.851l0.302-1.677l-1.458-2.215l-0.453-4.469l1.886-5.239l0.276-3.189l1.194-1.713l-1.232-3.852
		L186.234,427.477z"/>
	<path id="NA-KE" fill="#1E3250" stroke="#1E3250" stroke-width="0.5" d="M394.261,144.013l3.752-4.928l4.911-1.63l1.551-3.397
		l-0.775-14.522l1.421-5.828l-10.985-20.697l9.435-8.172l0.193-1.216l-1.457-2.605l0,0l1.604,0.074l3.304,2.663l2.169-1.731
		l3.531,0.386l1.694-0.918l2.631,1.306l2.537,0.476l1.488-0.578l2.451,0.972l2.55-1.434l3.179,0.675l1.219-1.224l1.078,0.456
		l1.153-0.682l2.401,1.578l3.774,0.856l0.865,1.493l2.843,1.441l5.027-0.013l2.685,1.83l2.039-0.42l0.172,0.742l3.779,0.859
		l1.364-0.369l0.117-1.182l1.056-0.721l3.938-1.844l10.807-1.086l2.226,1.64l3.98,0.887l1.116,1.1l2.354,0.723l48.199-9.561l0,0
		l0.256,13.808l0,0l-46.854,9.671l-21.277-0.007l-0.058,41.11l0,0l0,0l0,0l0,0l0,0L394.261,144.013z"/>
	<path id="NA-KH" fill="#1E3250" stroke="#1E3250" stroke-width="0.5" d="M333.291,265.279l1.438,4.126l-3.667,3.334l0.451,1.347
		l1.574,1.013l-0.576,3.45l-1.169,0.188l-0.037,1.545l-0.727-0.157l-0.545,2.575l0.598,0.069l0.623,2.808l-4.793,0.728l-0.46,3.661
		l1.693,4.086l2.051,2.565l2.508-0.67l2.173,3.545l1.461,0.852l-3.014,1.54l2.535,2.485l2.24-1.715l2.067,12.807l1.613,3.831
		l-0.176,6.857l4.572-0.763l0.038,2.209l-4.178,0.763l0.769,2.993l1.951-0.541l0.457,1.478l2.74,0.212l1.207,3.564l-4.52,0.067
		l-0.835,2.402l7.396,6.379l-3.09,7.873l0,0l-1.467-1.53l-5.219,3.204l-2.76,0.854l0.814,2.713l-4.322,0.695l-2.899,1.526
		l-2.117,0.146l-0.546-0.755l-2.208,1.174l-3.277-2.983l-2.717-0.739l-8.839,0.281l0.044,1.614l-5.142-0.163l-3.516,3.108
		l-0.679-3.267l0.2-4.687l-1.875-0.723l-1.331-4.352l2.649-0.543l-0.623-3.655l2.501-1.257l0.607-1.267l-3.144,1.01l-3.205-0.834
		l-7.14,1.824l-0.05-6.288l-3.756-1.544l-5.056,0.076l-2.652,4.542l-6.583,1.555l-1.407-2.208l-1.163,0.118l-0.647,0.899
		l-2.016-0.015l-0.533-1.444l-1.83-0.982l-5.98,12.276L259.493,353l4.259,1.139l0.066,3.127l-0.579-0.177l-2.504,3.115l-2.039,1.278
		l-2.91-0.133l-0.081-2.909l-1.553-0.3l-1.724,2.474l-0.496,2.354l-0.611,4.791l8.989,1.134l0.917,3.789l-1.871-0.373l0.166,0.854
		l-2.231,0.023l-0.046-1.733l-1.381,0.346l-0.855-1.296l-0.721,1.637l-3.101,2.725l1.409,4.509l-3.955,2.147l1.291-2.352
		l-0.982-2.095l-4.752-0.255l-0.671-0.714l3.629-2.431l1.878,0.253l-0.457-2.258l0.747-1.911l-3.467,2.085l-1.904-0.38l-6.645,2.564
		l-2.765,0.283l-0.352,1.634l-5.754,0.357l-3.421-1.011l0.818-8.207l0,0l1.024,0.836l3.413-0.464l0.332-3.167l-0.641-4.857
		l0.378-3.125l-4.659-3.219l2.883-6.003l1.214-0.054l-1.398-6.416l2.444-0.717l0.019-0.479l0.843,0.371l0.6-0.766l2.334-0.123
		l0.338-0.669l-2.594-1.927l-0.865-1.48l1.266-12.474l2.939-2.163l4.799-0.099l-0.014-7.01l-5.119,0.169l5.339-5.854l4.008,1.569
		l2.78-1.897l0.018-1.271l2.232-2.012l3.062,0.285l-0.1-4.031l3.537-2.184l0,0l4.473-1.378l0.977,1.362l2.163-1.79l2.374,0.847
		l0.866-1.037l5.869,0.529l-1.516-2.108l-3.751,0.458l-0.476-0.941l2.071-2.694l0.586,0.115l-0.035-1.062l3.794,2.781l0.583,2.098
		l4.352-1.79l2.544-2.754l1.179,2.565l4.08-3.381l1.141,2.783l6.849-3.345l-0.173-2.829l1.243-2.002l0.768,1.961l3.909-1.023
		l0.35-1.987l-0.45-0.482l3.119,1.681l0.43-3.529l-1.01-3.28l1.75-0.068l1.531-1.264l-0.345-0.896l2.717-1.888l0.566-1.617
		l3.952-0.922l1.705,1.886l4.625-1.547l3.605-3.197l2.161-0.891l2.465-0.817l0.446,1.057L333.291,265.279z"/>
	<path id="NA-KU" fill="#1E3250" stroke="#1E3250" stroke-width="0.5" d="M109.895,39.166l4.04,1.313l4.934-0.973l3.724,1.774
		l2.706,3.424l-0.452,2.319l5.594,3.238l1.958,2.005l9.188,4.925l1.567,1.33l0.622,1.821l1.267,0.733l2.812-0.639l3.404,1.068
		l0.794-0.766l1.828,0.346l2.613-1.307l0,0l0.532,1.063l-0.755,2.012l-3.354,5.144l2.47,1.856l-0.259,3.291l-1.493,1.644
		l6.115,12.94l1.23,19.809l-0.447,10.991l1.79,5.932l2.338,4.806l0.163,2.555l-1.839,6.492l2.495,7.789l2.579,2.041l0.738,2.204
		l-1.481,4.675l6.261,0.144l0.322-4.333l-2.535,0.115l-0.1-3.941l5.116-0.576l11.979,0.028l7.918-1.37l5.109,0.912l5.218-1.619l0,0
		l-0.126,2.609l10.691-0.48l9.569,2.319l4.019-0.032l4.044,2.225l0,0l11.071,1.854l7.748,2.265l11.017,0.921l4.639,2.416l0,0
		l0.906,4.668l-1.034,17.106l0.483,1.213l-0.776,1.104l-3.607,1.087l-4.17,0.181l0.109,2.649l1.241,3.063l-4.253,0.287l-3.758,2.375
		l-1.948,0.44l-1.175,1.237l-0.126,3.743l0.823,1.367l-0.349,2.394l-3.511,1.745l-0.864-1.666l-4.316,1.594l-3.431-0.254
		l-3.655,1.196l-4.682,5.276l-2.869-3.091l-4.041,0.187l-1.418,1.748l-0.446,1.797h-4.17l0,0l-3.753-0.912l-1.866-2.381l-2.83-0.031
		l-1.735,2.276l-0.969,0.081l0.078,1.336l-1.482,0.59l-0.636,2.102l-0.729-0.152l-1.057,1.627l-2.647,1.217l-0.887,1.91l-1.66,1.149
		l-0.273,1.243l-2.095,0.619l-0.775,1.026l-0.678-0.292l-2.773,2.893l-1.048,0.086l-0.169,0.934l-1.47,0.491l0.08,1.46l-2.012-0.079
		l-4.413,3.783l-6.139,1.018l-5.304-2.022l-3.085,0.904l-3.265-1.363l-1.986,0.949l-2.722,0.137l-2.891-1.595l-2.904-0.316
		l-2.875,1.306l-2.292-0.271l-1.98,1.236l-0.953-0.347l-0.633,0.671l-0.962-0.135l-0.549,1.045l-1.265-0.179l-2.23,1.084
		l-5.113,4.412l-5.163,2.771l0,0l-2.452-2.663l-1.043-4.072l-7.054-10.265l-2.602-10.944l-4.01-7.273l-0.352-6.547l-1.647-2.705
		l-0.226-2.266l-2.314-3.142l-4.224-3.847l-0.918-4.044l-3.709-6.58l-0.817-2.844l-2.539-3.811l-0.956-2.986l-6.06-10.701
		l-0.93-2.094l-0.302-3.139l-3.344-5.388l-1.056-3.189l-1.446-2.394l-3.633-3.292l-1.182-4.559l-6.123-8.595l-13.54-11.921
		l-1.107-2.503l-0.05-2.897l-2.062-3.383l0.076-1.961l-4.702-5.67l-0.918-2.248l-4.413-23.997l0.125-6.145l0.906-3.877l-0.264-5.849
		l2.701,0.827l1.159-1.425l2.014-0.273l2.981-2.313l6.137-1.783l1.193,0.7l2.63-0.02l0.927,1.821l2.801,1.856l1.861,0.094
		l2.821-0.913l1.035,0.527l1.661-1.147l0.991,0.495l0.54,2.252l1.866-1.075l3.516,0.025l1.736-0.572l0.45-0.989l2.724-1.651
		l1.621-0.252l4.335-2.518l0.761-1.352l2.187-1.019l0.212-0.889l3.175-1.327l1.7-1.595l5.071-0.272l2.134-0.848L109.895,39.166z"/>
	<path id="NA-KW" fill="#1E3250" stroke="#1E3250" stroke-width="0.5" d="M402.307,81.018l1.457,2.605l-0.193,1.216l-9.435,8.172
		l10.985,20.697l-1.421,5.828l0.775,14.522l-1.551,3.397l-4.911,1.63l-3.752,4.928l0,0l-11.803-0.044l0.104-17.924l-45.458-2.754
		l0,0l-9.111-0.498V76.055l0,0V59.254l0,0l19.146-0.035l2.196,2.751l0.363,1.571l1.484,0.74l2.437,3.976l1.508,0.295l0.81,0.859
		l0.354,1.55l4.827,3.518l0.857,1.287l1.176-0.11l0.957,1.417l1.999,0.329l1.165,1.379l1.978,0.675l8.918,0.813l1.486-1.321
		l3.723,0.887l1.001-0.505l3.864,0.894L388,81.162l2.072-0.316l1.52,0.875l7.488,0.095L402.307,81.018z"/>
	<path id="NA-OD" fill="#1E3250" stroke="#1E3250" stroke-width="0.5" d="M337.104,123.291l45.458,2.754l-0.104,17.924l11.803,0.044
		l0,0l69.443-0.019l0,0l-0.018,55.094l0,0l-2.15,0.105l-1.724,1.184l-1.008-0.664l-2.016,0.017l-2.493,1.534l-3.847,0.265
		l-5.071-1.763l-1.999,0.154l-2.697-0.822l-1.528,0.346l-0.327,0.685l-3.98-0.368l-2.108-1.332l-7.534-0.617l-1.083-0.732
		l-7.338-1.13l-1.667,0.499l-9.108-1.445l-3.65,0.802l-3.928-1.338l-5.666,0.077l-2.994,0.723l-0.328,1.626l-2.518,1.315
		l-0.876-0.18l-1.634,1.094l-2.767,0.514l-3.997,2.165l-1.464,0.176l-2.176,2.657l-7.958,2.727l-2.365,1.859l-1.817,3.049
		l-3.986,2.872l-3.407,6.29l-1.531,4.59l0.839,0.842l-1.058,2.38l-0.855,5.672l-2.187-4.444l-5.972,1.862l-0.789,5.675l3.1-1.145
		l-0.063,1.99l-3.159,1.293l2.599,4.429l-6.266-1.804l-2.53,0.593l-1.19,4.062l2.746,0.213l0.572,2.241l-1.993-0.193l1.327,5.03
		l-0.951,0.059l0.826,5.394l-1.629,2.525l0.699,0.855l-3.912,1.282l0.19,0.448l0,0l0,0l0,0l-5.558,2.177l-0.446-1.057l-2.465,0.817
		l-2.161,0.891l-3.605,3.197l-4.625,1.547l-1.705-1.886l-3.952,0.922l-0.566,1.617l-2.717,1.888l0.345,0.896l-1.531,1.264
		l-1.75,0.068l1.01,3.28l-0.43,3.529l-3.119-1.681l0.45,0.482l-0.35,1.987l-3.909,1.023l-0.768-1.961l-1.243,2.002l0.173,2.829
		l-6.849,3.345l-1.141-2.783l-4.08,3.381l-1.179-2.565l-2.544,2.754l-4.352,1.79l-0.583-2.098l-3.794-2.781l0.035,1.062
		l-0.586-0.115l-2.071,2.694l0.476,0.941l3.751-0.458l1.516,2.108l-5.869-0.529l-0.866,1.037l-2.374-0.847l-2.163,1.79l-0.977-1.362
		l-4.473,1.378l0,0l-1.9-3.165l0.581-0.743l-2.643-4.5l3.756-1.9l0.44-1.172l1.08,0.169l-1.587-3.484l2.222-0.223l-0.297-2.396
		l0.642-1.05l-0.857-1.04l0.972-2.501l-0.643-1.659l-0.914,0.12l0.102-1.938l-2.083-5.463l1.508-5.583l0.259-4.769l5.886-6.019
		l-2.34-6.65l0.844-1.38l-0.376-3.043l-3.594,0.34l-2.163-0.612l-0.201-1.509l-1.611-1.834l-1.504-0.215l-3.208-4.324l-2.84,1.809
		l-3.067-1.758L242.361,232l-3.535-3.442l-8.893-4.774l-4.611-3.952l-0.624-3.351l-2.425,0.353l-3.98-1.622l-0.054-5.287l0,0h4.17
		l0.446-1.797l1.418-1.748l4.041-0.187l2.869,3.091l4.682-5.276l3.655-1.196l3.431,0.254l4.316-1.594l0.864,1.666l3.511-1.745
		l0.349-2.394l-0.823-1.367l0.126-3.743l1.175-1.237l1.948-0.44l3.758-2.375l4.253-0.287l-1.241-3.063l-0.109-2.649l4.17-0.181
		l3.607-1.087l0.776-1.104l-0.483-1.213l1.034-17.106l-0.906-4.668l0,0l13.092-6.673l5.658-6.767l0.364-1.959l3.168-1.243
		l0.999,2.418l3.129-1.308l1.415,2.358l-0.228,2.786l2.076-0.122l-0.161-1.641l3.001-0.407l-0.086,2.158l-1.827,0.221l-0.104,3.695
		l2.145,1.961l0.58-1.33l6.573,4.83l0.782-1.172l4.238,2.824l6.598-1.027l0.887,2.649l4.205-2.419l-2.44-3.372l-0.076-2.708
		l0.547,0.084l0.087-1.308l1.994-0.22l-0.05-2.042l2.8-0.185l0.199-5.944l0.912,0.122l-0.796-5.905l3.1,0.283l0.598-3.243
		l3.544-0.066l-0.014-6.001L337.104,123.291z"/>
	<path id="NA-OH" fill="#1E3250" stroke="#1E3250" stroke-width="0.5" d="M333.291,265.279l-0.19-0.448l3.912-1.282l-0.699-0.855
		l1.629-2.525l-0.826-5.394l0.951-0.059l-1.327-5.03l1.993,0.193l-0.572-2.241l-2.746-0.213l1.19-4.062l2.53-0.593l6.266,1.804
		l-2.599-4.429l3.159-1.293l0.063-1.99l-3.1,1.145l0.789-5.675l5.972-1.862l2.187,4.444l0.855-5.672l1.058-2.38l-0.839-0.842
		l1.531-4.59l3.407-6.29l3.986-2.872l1.817-3.049l2.365-1.859l7.958-2.727l2.176-2.657l1.464-0.176l3.997-2.165l2.767-0.514
		l1.634-1.094l0.876,0.18l2.518-1.315l0.328-1.626l2.994-0.723l5.666-0.077l3.928,1.338l3.65-0.802l9.108,1.445l1.667-0.499
		l7.338,1.13l1.083,0.732l7.534,0.617l2.108,1.332l3.98,0.368l0.327-0.685l1.528-0.346l2.697,0.822l1.999-0.154l5.071,1.763
		l3.847-0.265l2.493-1.534l2.016-0.017l1.008,0.664l1.724-1.184l2.15-0.105l0,0l0.207,80.502l-45.339-0.101v90.951l0,0
		l-33.253,0.172l0.035-9.173l-0.792-0.131l-1.54-0.113l-3.35,3.693l-1.553-0.873l-4.506-0.048l1.301-1.673l-3.688-0.082
		l-8.165,3.552l-4.629-0.783l-3.811-4.064l-2.316,1.87l-4.629-10.001l0,0l3.09-7.873l-7.396-6.379l0.835-2.402l4.52-0.067
		L347.5,332.5l-2.74-0.212l-0.457-1.478l-1.951,0.541l-0.769-2.993l4.178-0.763l-0.038-2.209l-4.572,0.763l0.176-6.857l-1.613-3.831
		l-2.067-12.807l-2.24,1.715l-2.535-2.485l3.014-1.54l-1.461-0.852l-2.173-3.545l-2.508,0.67l-2.051-2.565L326,289.966l0.46-3.661
		l4.793-0.728l-0.623-2.808l-0.598-0.069l0.545-2.575l0.727,0.157l0.037-1.545l1.169-0.188l0.576-3.45l-1.574-1.013l-0.451-1.347
		l3.667-3.334L333.291,265.279z"/>
	<path id="NA-ON" fill="#1E3250" stroke="#1E3250" stroke-width="0.5" d="M237.481,73.161v15.787l0.563-0.237l0.838,1.961
		l0.265,5.506l-0.816,2.619l-3.276,3.511l0.584,3.773h-0.999l1.08,0.768l-0.551,0.609l0.058,1.912l-0.735,0.627l0.987,0.453
		l-0.494,1.532l2.13,1.355l-0.323,1.463l1.694,0.979l-0.309,1.503l0.635,2.733l-1.331-1.148l-4.063,3.8l-2.064,2.843l-1.051,2.74
		l-0.024,3.807l1.975,4.98l1.953,3.762l0.918,0.623l1.199-0.207l-0.052,1.175l-2.496,1.907l1.024,6.724l0,0l-4.044-2.225
		l-4.019,0.032l-9.569-2.319l-10.691,0.48l0.126-2.609l0,0l0.013-1.324l3.813-1.147l0.435,0.361l4.167-2.582l4.495-1.37
		l-2.162-1.059l-1.866-2.796l2.085-2.067l0.178-2.66l-2.769-6.822l2.004-4.038l0.913,0.301l-3.063-24.387l-1.687-1.773l-0.345,0.556
		l-2.236-1.456l-3.126-0.696l-0.786-1.199l-1.816-0.828l17.019-17.053l0,0L237.481,73.161z"/>
	<path id="NA-OS" fill="#1E3250" stroke="#1E3250" stroke-width="0.5" d="M175.471,59.027l41.531,0.059l0,0l1.16,5.245l1.094,0.778
		l2.415,3.926l0.199,3.306l0,0l-17.019,17.053l1.816,0.828l0.786,1.199l3.126,0.696l2.236,1.456l0.345-0.556l1.687,1.773
		l3.063,24.387l-0.913-0.301l-2.004,4.038l2.769,6.822l-0.178,2.66l-2.085,2.067l1.866,2.796l2.162,1.059l-4.495,1.37l-4.167,2.582
		l-0.435-0.361l-3.813,1.147l-0.013,1.324l0,0l-5.218,1.619l-5.109-0.912l-7.918,1.37l-11.979-0.028l-5.116,0.576l0.1,3.941
		l2.535-0.115l-0.322,4.333l-6.261-0.144l1.481-4.675l-0.738-2.204l-2.579-2.041l-2.495-7.789l1.839-6.492l-0.163-2.555
		l-2.338-4.806l-1.79-5.932l0.447-10.991l-1.23-19.809l-6.115-12.94l1.493-1.644l0.259-3.291l-2.47-1.856l3.354-5.144l0.755-2.012
		l-0.532-1.063l0,0l0.201-1.027L175.471,59.027z"/>
	<path id="NA-OT" fill="#1E3250" stroke="#1E3250" stroke-width="0.5" d="M237.481,73.161l16.744,11.4l17.65-7.562l56.117-0.944l0,0
		v46.738l9.111,0.498l0,0l-0.919,4.515l0.014,6.001l-3.544,0.066l-0.598,3.243l-3.1-0.283l0.796,5.905l-0.912-0.122l-0.199,5.944
		l-2.8,0.185l0.05,2.042l-1.994,0.22l-0.087,1.308l-0.547-0.084l0.076,2.708l2.44,3.372l-4.205,2.419l-0.887-2.649l-6.598,1.027
		l-4.238-2.824l-0.782,1.172l-6.573-4.83l-0.58,1.33l-2.145-1.961l0.104-3.695l1.827-0.221l0.086-2.158l-3.001,0.407l0.161,1.641
		l-2.076,0.122l0.228-2.786l-1.415-2.358l-3.129,1.308l-0.999-2.418l-3.168,1.243l-0.364,1.959l-5.658,6.767l-13.092,6.673l0,0
		l-4.639-2.416l-11.017-0.921l-7.748-2.265l-11.071-1.854l0,0l-1.024-6.724l2.496-1.907l0.052-1.175l-1.199,0.207l-0.918-0.623
		l-1.953-3.762l-1.975-4.98l0.024-3.807l1.051-2.74l2.064-2.843l4.063-3.8l1.331,1.148l-0.635-2.733l0.309-1.503l-1.694-0.979
		l0.323-1.463l-2.13-1.355l0.494-1.532l-0.987-0.453l0.735-0.627l-0.058-1.912l0.551-0.609l-1.08-0.768h0.999l-0.584-3.773
		l3.276-3.511l0.816-2.619l-0.265-5.506l-0.838-1.961l-0.563,0.237V73.161z"/>
	<path id="NA-OW" fill="#1E3250" stroke="#1E3250" stroke-width="0.5" d="M276.903,59.027l51.09,0.227l0,0v16.801l0,0l-56.117,0.944
		l-17.65,7.562l-16.744-11.4l0,0l0,0l0,0l-15.612-0.82l0,0l-0.199-3.306l-2.415-3.926l-1.094-0.778l-1.16-5.245l0,0L276.903,59.027z
		"/>
</g>
</svg>
