<?xml version="1.0" encoding="utf-8"?>
<!-- Generator: Adobe Illustrator 15.0.0, SVG Export Plug-In . SVG Version: 6.00 Build 0)  -->
<!DOCTYPE svg PUBLIC "-//W3C//DTD SVG 1.1//EN" "http://www.w3.org/Graphics/SVG/1.1/DTD/svg11.dtd">
<svg version="1.1" id="Layer_1" xmlns:amcharts="http://amcharts.com/ammap"
	 xmlns="http://www.w3.org/2000/svg" xmlns:xlink="http://www.w3.org/1999/xlink" x="0px" y="0px" width="847.353px"
	 height="641.346px" viewBox="0 0 847.353 641.346" enable-background="new 0 0 847.353 641.346" xml:space="preserve">
<defs>
	
	
		<amcharts:ammap  projection="mercator" leftLongitude="0.1617178" topLatitude="23.4999998" rightLongitude="15.9990339" bottomLatitude="11.694295">
		</amcharts:ammap>
</defs>
<g>
	<path id="NE-5" fill="#1E3250" stroke="#1E3250" stroke-width="0.5" d="M329.74,433.86l-2.15-40.12l-13.75-6.44l-12.28-29.189
		l-70.6-58.01l7.33-34.47l-31.98-1.76l-2.34,118.11L188.3,418.52l19.19,55.641l18.8,48.71l45.26-8.18l38.51,11.06l12-20.36
		L329.74,433.86z"/>
	<path id="NE-8" fill="#1E3250" stroke="#1E3250" stroke-width="0.5" d="M101.14,539.14l6.47-8.489l-14.11-2.04L101.14,539.14z"/>
	<path id="NE-3" fill="#1E3250" stroke="#1E3250" stroke-width="0.5" d="M176.88,626.3l-0.1-41.46l22.38-24.229l1.87-24.74l25.26-13
		l-18.8-48.71l-36.44,42.85l-18.09,1.971l-17.22,27.25l-17.82,5.8l12.55,10.729l-6.31,5.66l1.39,17.09l10.75,6.01L176.88,626.3z"/>
	<path id="NE-7" fill="#1E3250" stroke="#1E3250" stroke-width="0.5" d="M530.5,541.25l8.46-22.73l20.51-19.029l38.4-13.94
		l0.8-160.84l-135.21,79.15l-47.75,21.659l-47.02-0.539l-6.08,13.8l19.75,45.64l14.98-3.26l25.62,21.55l0.8,10.91l-16.14,9.8
		l5.18,5.38l-3.6,20.66l21.859,14.92l46.011,6.33l26.75-23.27L530.5,541.25z"/>
	<path id="NE-4" fill="#1E3250" stroke="#1E3250" stroke-width="0.5" d="M362.61,438.78l-32.87-4.92l-7.68,71.529l-12,20.36
		l32.99,34.9l43.06-17.98l23.09,6.79l3.6-20.66l-5.18-5.38l16.14-9.8l-0.8-10.91l-25.62-21.55l-14.98,3.26L362.61,438.78z"/>
	<path id="NE-1" fill="#1E3250" stroke="#1E3250" stroke-width="0.5" d="M597.23,0L370.61,144.31l-85.29,76.57l-79.1,16.46
		l0.09,26.53l31.98,1.76l-7.33,34.47l70.6,58.01l12.28,29.189l13.75,6.44l2.15,40.12l32.87,4.92l6.08-13.8l47.02,0.539l47.75-21.659
		l135.21-79.15l50.65-26.48l129.699-0.02l8.511-101.68l11.83-23.28l-20.21-22.42l1.979-10.74l-21.46-29.29l-10.34-82.12
		l-38.58,20.79l-37.07-30.89L597.23,0z"/>
	<path id="NE-2" fill="#1E3250" stroke="#1E3250" stroke-width="0.5" d="M779.02,298.21l-129.699,0.02l-50.65,26.48l-0.8,160.84
		l-38.4,13.94l-20.51,19.029l-8.46,22.73l40.01,0.26l52.17,15.58l18.67-22.06l38.641-11.17l-7.971-38.28l10.53-5.72l35.92-62.851
		l55.391-60.27L779.02,298.21z"/>
	<path id="NE-6" fill="#1E3250" stroke="#1E3250" stroke-width="0.5" d="M207.49,474.16L188.3,418.52l-18.52,19.24l-109.9,3.681
		l-19.31,15.92L3.38,457.05L0.64,482.61l11.76,13.04l2.88,17.52l7.36,11.48l34.06,17.81l-14.4-1.16v17.44l29.31,20.729l27.54-3.8
		l6.87,14.57l-9.76,4.25l17.09,23.01l-1.01-17.55l23.96-8.431l-10.75-6.01l-1.39-17.09l6.31-5.66l-12.55-10.729l17.82-5.8
		l17.22-27.25l18.09-1.971L207.49,474.16z M101.14,539.14L93.5,528.61l14.11,2.04L101.14,539.14z"/>
</g>
</svg>
