<?xml version="1.0" encoding="utf-8"?>
<!-- Generator: Adobe Illustrator 15.0.0, SVG Export Plug-In . SVG Version: 6.00 Build 0)  -->
<!DOCTYPE svg PUBLIC "-//W3C//DTD SVG 1.1//EN" "http://www.w3.org/Graphics/SVG/1.1/DTD/svg11.dtd">
<svg version="1.1" id="Layer_1" xmlns:amcharts="http://amcharts.com/ammap"
	 xmlns="http://www.w3.org/2000/svg" xmlns:xlink="http://www.w3.org/1999/xlink" x="0px" y="0px" width="220.5px" height="146.5px"
	 viewBox="0 0 220.5 146.5" enable-background="new 0 0 220.5 146.5" xml:space="preserve">
<defs>
	
	
		<amcharts:ammap  projection="mercator" leftLongitude="45.9832764" topLatitude="-3.7266037" rightLongitude="56.3028224" bottomLatitude="-10.4716073">
		</amcharts:ammap>
</defs>
<g>
	<path id="SC-25" fill="#1E3250" stroke="#1E3250" stroke-width="0.5" d="M192.723,17.828l-0.339-0.237l-0.013,0.156l0.297,0.227
		L192.723,17.828z"/>
	<path id="SC-24" fill="#1E3250" stroke="#1E3250" stroke-width="0.5" d="M192.668,17.974l-0.297-0.227l0.05,0.365l0.109-0.06
		L192.668,17.974z"/>
	<path id="SC-23" fill="#1E3250" stroke="#1E3250" stroke-width="0.5" d="M192.747,20.422l0.227,0.402l0.696,0.165l-0.25-0.7
		l-0.334,0.026L192.747,20.422z"/>
	<path id="SC-22" fill="#1E3250" stroke="#1E3250" stroke-width="0.5" d="M191.799,17.191l-0.183-0.118l-0.146,0.183l0.073,0.136
		L191.799,17.191z"/>
	<path id="SC-21" fill="#1E3250" stroke="#1E3250" stroke-width="0.5" d="M192.042,17.956l-0.29-0.144l-0.209-0.42l-0.073-0.136
		l-0.47,0.363l-0.585-0.292l-0.308,0.321l0.712,0.211l0.73,0.488l0.282,0.029L192.042,17.956z"/>
	<path id="SC-20" fill="#1E3250" stroke="#1E3250" stroke-width="0.5" d="M193.477,18.426l-0.308-0.292l-0.151,0.232L193.477,18.426
		z"/>
	<path id="SC-19" fill="#1E3250" stroke="#1E3250" stroke-width="0.5" d="M192.384,17.591l-0.081-0.104l-0.151,0.253l-0.11,0.217
		l0.378,0.156l-0.05-0.365L192.384,17.591z"/>
	<path id="SC-18" fill="#1E3250" stroke="#1E3250" stroke-width="0.5" d="M192.152,17.739l0.151-0.253l-0.232-0.193L192.152,17.739z
		"/>
	<path id="SC-17" fill="#1E3250" stroke="#1E3250" stroke-width="0.5" d="M191.799,17.191l-0.139-0.337l-0.044,0.219L191.799,17.191
		z"/>
	<path id="SC-16" fill="#1E3250" stroke="#1E3250" stroke-width="0.5" d="M192.058,16.732l-0.397,0.123l0.139,0.337l0.237-0.055
		L192.058,16.732z"/>
	<path id="SC-15" fill="#1E3250" stroke="#1E3250" stroke-width="0.5" d="M187.932,14.691l0.186-0.415l-0.193-0.354l-0.712-0.376
		l-0.081,0.386l0.136,0.499l0.287,0.342L187.932,14.691z M199.998,12.082l0.269-0.193l-0.269-0.462l-0.253-0.107l-0.13,0.718
		L199.998,12.082z M196.186,0l-0.162,0.209l0.29,0.219L196.186,0z"/>
	<path id="SC-14" fill="#1E3250" stroke="#1E3250" stroke-width="0.5" d="M198.425,11.586l-0.556-0.438l-1.203-0.72l-0.118,0.042
		l0.306,0.619l0.53,0.081l0.313,0.457l0.545,0.128L198.425,11.586z"/>
	<path id="SC-13" fill="#1E3250" stroke="#1E3250" stroke-width="0.5" d="M192.42,18.112l-0.378-0.156l-0.209,0.42l0.397,0.574
		l0.201,0.018l0.357-0.592l-0.258-0.323L192.42,18.112z"/>
	<path id="SC-12" fill="#1E3250" stroke="#1E3250" stroke-width="0.5" d="M192.138,16.168l-0.621-0.183l-0.021,0.506h0.164
		l0.128-0.264L192.138,16.168z"/>
	<path id="SC-11" fill="#1E3250" stroke="#1E3250" stroke-width="0.5" d="M193.169,18.133l-0.446-0.305l-0.055,0.146l-0.138,0.079
		l0.258,0.323l0.102,0.037l0.079,0.026l0.049-0.073L193.169,18.133z"/>
	<path id="SC-10" fill="#1E3250" stroke="#1E3250" stroke-width="0.5" d="M191.471,17.256l-0.353-0.229l-0.702,0.3l0.585,0.292
		L191.471,17.256z"/>
	<path id="SC-09" fill="#1E3250" stroke="#1E3250" stroke-width="0.5" d="M192.071,17.293l-0.034-0.156l-0.237,0.055l-0.256,0.201
		l0.209,0.42l0.29,0.144l0.11-0.217L192.071,17.293z"/>
	<path id="SC-08" fill="#1E3250" stroke="#1E3250" stroke-width="0.5" d="M191.661,16.492h-0.164l-0.378,0.535l0.353,0.229
		l0.146-0.183l0.044-0.219V16.492z"/>
	<path id="SC-07" fill="#1E3250" stroke="#1E3250" stroke-width="0.5" d="M198.425,11.586l0.06-0.394l0.334-0.016l-0.204-0.25
		l-0.47,0.055l-0.162-0.201l-0.577-0.169l-0.295-0.269l-0.446,0.086l1.203,0.72L198.425,11.586z M197.707,10.318l0.201-0.224
		l-0.577-0.032L197.707,10.318z"/>
	<path id="SC-06" fill="#1E3250" stroke="#1E3250" stroke-width="0.5" d="M192.992,19.647l-0.279-0.058l-0.482,0.107l-0.097,0.378
		l0.482,0.05l0.131,0.297l0.339-0.107L192.992,19.647z"/>
	<path id="SC-05" fill="#1E3250" stroke="#1E3250" stroke-width="0.5" d="M193.467,19.6l-0.415-0.352l-0.06,0.399l0.094,0.668
		l0.334-0.026l-0.185-0.407L193.467,19.6z"/>
	<path id="SC-04" fill="#1E3250" stroke="#1E3250" stroke-width="0.5" d="M192.968,18.438l-0.079-0.026l0.162,0.835l0.415,0.352
		l-0.136-0.603l0.099-0.386L192.968,18.438z"/>
	<path id="SC-03" fill="#1E3250" stroke="#1E3250" stroke-width="0.5" d="M192.058,16.732l0.081-0.563l-0.35,0.06l-0.128,0.264
		v0.362L192.058,16.732z"/>
	<path id="SC-02" fill="#1E3250" stroke="#1E3250" stroke-width="0.5" d="M192.89,18.413l-0.102-0.037l-0.357,0.592l0.282,0.621
		l0.279,0.058l0.06-0.399L192.89,18.413z"/>
	<path id="SC-01" fill="#1E3250" stroke="#1E3250" stroke-width="0.5" d="M193.477,18.426l-0.459-0.06l-0.049,0.073l0.462,0.172
		L193.477,18.426z"/>
	<path id="SC" fill="#1E3250" stroke="#1E3250" stroke-width="0.5" d="M6.466,124.094L6.902,124l0.188-0.559l-0.473,0.214
		L6.466,124.094z M7.301,116.433l0.107-0.089l-0.613-0.496l-0.987-0.418l0.104,0.52l0.329,0.483l-0.708-0.154l-0.796,0.423
		L3.82,116.86l-0.642,0.373l-0.96,0.055l-0.9-0.266l-0.478-0.59l0.559,1.401l1.352-0.065l1.673-0.517l1.526,0.039L7.301,116.433z
		 M5.38,115.43l-2.312-0.234l-0.707,0.258l0.06,0.264l0.712-0.011l0.263-0.146l0.997,0.276l0.647-0.078L5.38,115.43z M208.85,69.819
		l0.311-0.908l-0.373,0.204l-0.219,0.425l-0.243,1.094L208.85,69.819z"/>
</g>
</svg>
