<?xml version="1.0" encoding="utf-8"?>
<!-- Generator: Adobe Illustrator 15.0.0, SVG Export Plug-In . SVG Version: 6.00 Build 0)  -->
<!DOCTYPE svg PUBLIC "-//W3C//DTD SVG 1.1//EN" "http://www.w3.org/Graphics/SVG/1.1/DTD/svg11.dtd">
<svg version="1.1" id="Layer_1" xmlns:amcharts="http://amcharts.com/ammap"
	 xmlns="http://www.w3.org/2000/svg" xmlns:xlink="http://www.w3.org/1999/xlink" x="0px" y="0px" width="848.5px" height="840.5px"
	 viewBox="0 0 848.5 840.5" enable-background="new 0 0 848.5 840.5" xml:space="preserve">
<defs>
	
	
		<amcharts:ammap  projection="mercator" leftLongitude="-13.3024326" topLatitude="9.9999736" rightLongitude="-10.2716831" bottomLatitude="6.8993331">
		</amcharts:ammap>
</defs>
<g>
	<path id="SL-E" fill="#1E3250" stroke="#1E3250" stroke-width="0.5" d="M717.48,255.19l-55.341,26.06l-75.529-31.73l-66.971,75.46
		l-3.79,67.359l-59.88,5.75L520.65,513.2l-28.69,55.04l6.97,41.97l-27.149,9.08l8.66,32.1l34.59-14.359l0.279,51.91l56.061,19.909
		L711.39,595.69l-0.27-67.73l23.02-27.21l55.13-15.73l10.24-80.659l-28.46-1.19l-43.56,47.42l-47.891,6.57l67.08-103.08
		L715.49,315.81L717.48,255.19z"/>
	<path id="SL-N" fill="#1E3250" stroke="#1E3250" stroke-width="0.5" d="M368.65,0l-3.09,18.89l-58.11,12.72l-75.61-6.11
		L142.6,173.14l-51.28,20.18l-0.33,25.36L49.5,254.57l-49.01,0.66l9.03,23.96l50.78,3.48l-14.62,20.1l38.28,1.86l-67.36,8.38
		l20.59,82.521l14.54-16.96l-13.29-24.08l34.67,5.319l-9.3,18.171l49.22-27.311L98.4,378.08l16.27,3.66l-65.22,25.74l19.49,26.109
		l37.58,26.98L131.33,434l93.68,29.23l64.33-21.841l45.24,26.95v-30.2l56.38,1.86l28.26-34.15l36.75-7.76l59.88-5.75l3.79-67.359
		l66.971-75.46l75.529,31.73l55.341-26.06l-40.801-11.3l18.84-59.7l-41.449-22.98L556.71,2.78L368.65,0z"/>
	<path id="SL-W" fill="#1E3250" stroke="#1E3250" stroke-width="0.5" d="M68.94,433.59L4.28,400.19l32.51,87.989l49.68-20.1
		l20.05-7.51L68.94,433.59z"/>
	<path id="SL-S" fill="#1E3250" stroke="#1E3250" stroke-width="0.5" d="M187.15,637.43l-94.17,11.94l91.6,23.86l19.38,23
		l10.41-46.86L187.15,637.43z M483.5,822.43l42.08-78.449l45.79-35.131L515.31,688.94l-0.279-51.91l-34.59,14.359l-8.66-32.1
		l27.149-9.08l-6.97-41.97l28.69-55.04L455.97,398.09l-36.75,7.76L390.96,440l-56.38-1.86v30.2l-45.24-26.95l-64.33,21.841
		L131.33,434l-24.81,26.57l-20.05,7.51l41.01,87.96l-36.47,1.67l22.02,22.04l72.52,38.71l34.34-27.75l-19,35.82l27.23,26.67
		l68.08-13.09l-64.71,18.449L215.37,682.2l31.7,14.74h-36.29l176.54,64.26L483.5,822.43z"/>
</g>
</svg>
