<?xml version="1.0" encoding="utf-8"?>
<!-- Generator: Adobe Illustrator 15.0.0, SVG Export Plug-In . SVG Version: 6.00 Build 0)  -->
<!DOCTYPE svg PUBLIC "-//W3C//DTD SVG 1.1//EN" "http://www.w3.org/Graphics/SVG/1.1/DTD/svg11.dtd">
<svg version="1.1" id="Layer_1" xmlns:amcharts="http://amcharts.com/ammap"
	 xmlns="http://www.w3.org/2000/svg" xmlns:xlink="http://www.w3.org/1999/xlink" x="0px" y="0px" width="644.5px" height="808.5px"
	 viewBox="0 0 644.5 808.5" enable-background="new 0 0 644.5 808.5" xml:space="preserve">
<defs>
	
	
		<amcharts:ammap  projection="mercator" leftLongitude="40.977962" topLatitude="11.990101" rightLongitude="51.416779" bottomLatitude="-1.649247">
		</amcharts:ammap>
</defs>
<g>
	<path id="SO-AW" fill="#1E3250" stroke="#1E3250" stroke-width="0.5" d="M132.503,29.983l1.97,0.784l0.355,0.474l0.565-0.033
		l0.161-0.294l0.533,1.652l0.597,0.736l0.306-0.032l0.242-0.475h0.468l0.146,1.391l2.388,1.504h1.403l0.485,0.262l0.483,0.719
		l1.534,1.096l0.629-0.098l-0.113-0.294l0.613-0.164l0.097,0.327l0.306-0.703l-1.032,0.196l1.177-0.458l0.953,0.016l-0.694,0.164
		l-0.307,0.294l-0.532,1.75l0.129,0.834l0.645,1.488l0.178,2.811l0.419,1.684l1.098,1.389l0.903,0.588l0.742,0.016l0.355,0.295
		l0.307,1.176l1.807,3.709l1.162,1.862l1.049,1.226l1.113,2.172l-0.048,0.294l1.404,1.943l6.905,7.951l5.906,5.809l4.647,3.639
		l2.404,1.452l1.501,1.272l1.485,0.75l1,1.697l0.903,0.847l1.146,0.735l1.646,0.505l2.308,1.842l0.983,0.555l0.957,1.027l0,0
		l-10.452,19.806l-17.199-8.131l-26.529,34.921l0,0l-0.71-0.487l-0.171-0.941l0.121-1.419l-0.531-0.638l-0.081-1.018l-0.812-1.253
		l0.101-2.178l-0.779-0.662l-1.426-1.9l-0.794-0.495l-1.885-0.428l-0.524-0.723l-0.897-0.252l-0.372-0.54l-2.217-0.459l-0.35-0.791
		l-0.65-0.228l-0.17-0.942l-0.723-1.331l-0.157-1.109l-0.634-0.396l-2.762-3.878l-0.614-0.646l-1.374-0.55l-0.206-0.524
		l-4.825-5.138l-1.605-2.295l-3.513-3.979l-8.21-18.852l14.679-19.879l5.971-8.479l12.357-22.569H132.503z"/>
	<path id="SO-BK" fill="#1E3250" stroke="#1E3250" stroke-width="0.5" d="M187.204,411.645l10.576,0.12l9.51,0.878l2.49-0.032l0,0
		l5.235,29.63l4.066,19.673l2.904,12.146l-1.742,9.253l0.58,24.856l0,0l-6.97,1.156l0,0l-2.905-1.156l-11.617,0.578l-7.552-4.624
		l1.743-2.89v-10.405l-7.552-16.19l-13.36-4.049h-4.066l-5.228,2.313l-2.324,1.735l-4.066,7.518l-5.809,6.36l-9.875,2.312
		l-16.846-5.782l0,0l1.162-10.408l-2.324-4.627l-12.618-21.739l-1.961,1.518l-1.389,0.722l-3.044,0.14l0,0l1.719-0.644l0.759-0.5
		l0.795-0.923l1.824-1.255l0.783-0.783l0.9-0.485l1.564-1.564l1.837-1.396l0.56-1.515l0.912-0.628l1.034-2.04l0.961-1.193
		l0.299-1.823l0.807-1.064l0.369-0.963l1.979-1.384l2.477-2.192l2.429-1.627l0.641-0.796l6.264-2.982l0.936-0.911l1.197-0.602
		l1.017-0.191l1.659-0.986l0.191-0.552l1.609-0.421l0.771-0.642l1.739-0.268l1.635-0.703l3.194-0.561l2.393-1.203l1.006-0.05
		l0.604-0.372l10.239-2.618l1.869-0.111l1.066-0.757l3.35-0.688l1.727-0.125l7.86-1.555l2.839,0.262l4.2-0.609L187.204,411.645z"/>
	<path id="SO-BN" fill="#1E3250" stroke="#1E3250" stroke-width="0.5" d="M259.299,576.5l-2.888,2.021l-0.791,0.144l-1.355,0.85
		l-0.63,0.017l-0.5,0.449l0.097,0.192l-2.065,0.785l-2.085,1.235l0,0l7.175-9.326l0,0l4.066-1.155l8.335-0.753l0,0l-2.615,1.467
		l-4.404,3.016l-0.533,0.016L259.299,576.5z"/>
	<path id="SO-BR" fill="#1E3250" stroke="#1E3250" stroke-width="0.5" d="M569.685,0l0.904,0.246l2.775,2.081l2.791,0.524
		l4.534,1.246l4.809,2.834l0.613,0.082l0.242-0.229l1,0.213l3.228-0.131l2.372,1.327l1.662,0.246l1.371,0.672l1.193-0.41
		l0.839-0.049l0.854,0.508l-0.146,1.474l-1.437,2.454l-0.08,1.902l-0.727,1.113l0.531,1.441l0.032,0.753l-0.887,1.637l-0.809,0.655
		l-0.177,0.688l-1.193,0.834l-0.484,0.507l-0.177,0.655l-1.646,1.636l-1.662,3.093l-0.629,0.786l-0.161,0.654l0.339,1.292
		l-0.112,1.375l-0.661,2.535l-1.065,2.109l-0.854,2.813l-0.241,4.593l0.548,2.55l0.84,1.52l0.968,0.735l0.05,0.245l-0.68-0.425
		l-0.192,0.082l0.983,0.817l1.113,0.458l0.468-0.016l0.389-0.392l0.597-0.049l0.63-0.506l0.451,0.604l-1.952,3.839l-0.968,2.614
		l-0.694,3.789l0.018,4.261l0.612,6.986l-0.178,3.851l0.113,1.615l0.209,0.751l0.791,0.62l0.178,2.3l0.581,1.631l0.532,0.783
		l0.016,0.636l-0.693,0.44l-2.018,0.18l-0.871,0.44l-0.226,0.294l0.048,0.342l0.354,0.13l-0.388,0.636l-1.032,0.049l-0.727,0.718
		l0.242,1.255l-0.469,0.636l-0.871,0.538l-0.258,0.457l-0.469-0.017l-0.483,0.375l-0.774,1.63l0.581,0.538l-0.437,0.505l0.759,0.619
		l0.613-0.098l0.483-0.538l3.114-0.733l3.291-0.293l3.953,0.049l0.05-0.766l-0.599-0.293l-0.854-0.978l-0.599-0.342l-0.192-0.408
		l-0.032-1.027l0.307-0.098l0.161-0.783l-0.258-0.228v-0.718l-0.339-0.342l1,0.424l0.42-0.017l1.129,1.109l1.355,0.75l0.564,0.033
		l1.403,0.962l1.823,0.424l1.388-0.652l2.437,0.261l0.469,1.239l0.872,0.88l-0.533,1.565l-0.419,0.407l-0.742,1.581l-0.291-0.228
		l-0.387,0.163l0.177,0.815l-0.161,0.326l-0.21-0.375l-0.727-0.033l-0.241,0.18l-0.29-0.408l-0.533-0.212l-2.775,0.326l-0.563-0.326
		l-0.598,0.082l-0.42-0.489l0.389-1.417l-0.404-0.685l-1.307-0.245l-3.485,0.163l-5.244,0.831l-3.211,0.913l-6.099,3.015
		l-1.938,1.629l-0.242,3.389l0.081,1.319l0.419,1.662l-0.016,1.662l-1.017,4.706l0.226,2.166l0.549,1.954l-0.182,0.585l0.214,0.506
		l-0.29,0.407l0.436,0.26l-0.388,0.342l-0.646,1.53l0.081,0.912l-0.34,0.504l-0.081,1.286l-0.531,1.285l0.063,0.83l-0.468,0.765
		l-0.63,0.521l0.113,0.585l-0.403,1.416l-0.21,2.668l-0.581,1.383l0.081,0.716l0.192,0.163l-0.45,1.773l0.08,1.008l-0.146,0.715
		l-0.339,0.276l-0.049,0.537l0.21,0.244l-0.113,0.569l-0.854,1.983l-0.451,3.04l0.273,2.032l-0.21,0.829l1.098,1.95l1.42,0.634
		l-0.064,1.284l-2.033,3.949l-1.354,1.982l-0.469,0.39l-0.549,1.169l-1.193,1.738l-2.453,1.364l-0.129,0.536l-1.855,1.965
		l-1.259,1.933l-0.322,0.958l0.017,1.023l0.483,1.234l-0.031,0.974l-0.29,1.899l-0.679,1.231l-0.969,1.09l-1.823,1.055l-0.597,1.168
		l-0.823,0.86l-3.179,2.353l-0.726,0.909l-1.18,0.941l-0.612,0.892l-1.113,0.763l-0.064,0.714l-1.468,1.85l-0.468,1.477
		l-0.032,1.768l-0.291,1.314l-1.049,2.368l-0.161,1.897l-0.452,0.794l-0.854,0.502l-0.727,0.957l-1.063,2.173l-0.274,1.718
		l0.371,1.054l0.064,1.265l-0.711,1.864l-1.322,1.994l-3.566,3.371l-0.646,1.686l-1.113,0.939l-1.001,1.475l-0.322,1.717
		l-0.421,0.304l0,0l-0.337,0.134l-7.107-6.554l-6.971-1.167l-5.229,7.583l-3.485-11.667l-5.809-2.918l-13.36-0.583l-9.294-5.837
		l-6.39-4.671l-4.066-7.592l-1.743-14.024l0,0l0,0l0,0l-1.161-25.149l0,0l-1.742-70.949l-6.693-27.022l0,0l3.749-0.261l1.71-0.654
		l3.099-0.752l4.243-0.703l2.065-0.572l0.402,0.131l1.904-0.409l0.129-0.196l2.728-0.474l1.903-1.161l0.581-0.687l1.533,0.327
		l3.323,0.033l2.808-0.54l0.646-0.393l0.21-0.67l1.322-0.327l0.227-0.687h0.791l1.112-0.376l1.082-1.21l1.63-2.748l0.951-0.295
		l1.76-0.016l0.354-0.278l0.694,0.196l0.839-0.278l1.113,0.049l1.273-0.638l0.452-0.507l0.727-0.065l1.437,0.736l1.937,0.523
		l4.293-0.082l3.018-1.014l2.227-1.587l0.5,0.295v-0.507l1.146-0.458l3.275,0.785l3.179-0.115l0.291-0.18l0.516,0.114l2.872-1.701
		l0.227-0.36l1.098-0.164l0.452-0.507l3.921-0.867l0.759-0.604l1.871-0.458l1.969-1.833l1.484-0.36l3.68-1.997l1.71-0.573
		l1.646-0.966l2.372-2.341l1.403-2.096l0.774-1.72l-0.178-0.049l0.049-0.278l0.5-0.328l0.339-0.771l0.258-1.048l-0.178-0.377
		l0.146-0.884l0.355-1.212l0.516-0.983l1.049-1.114l1.872-1.311l1.274-0.262l-0.032-0.426l0.259-0.229l2.904,0.426l2.581-1.295
		l1.63-0.377l1.565-0.688l0.402-0.328l-0.839,0.066l-0.532,0.41l0.598-0.836L569.685,0z"/>
	<path id="SO-BY" fill="#1E3250" stroke="#1E3250" stroke-width="0.5" d="M124.396,485.046l16.846,5.782l9.875-2.312l5.809-6.36
		l4.066-7.518l2.324-1.735l5.228-2.313h4.066l13.36,4.049l7.552,16.19v10.405l-1.743,2.89l7.552,4.624l11.617-0.578l2.905,1.156l0,0
		l1.742,11.558l-2.904,13.866l1.162,3.466l-2.324,15.596l1.743,15.015l-44.728,19.631l-17.427,6.927L116.264,612.7l0,0l-4.647-3.463
		l-22.074-20.781l-6.97-4.042l0,0l11.617-64.688l19.17,1.733l9.874-1.155v-9.824L124.396,485.046z"/>
	<path id="SO-GA" fill="#1E3250" stroke="#1E3250" stroke-width="0.5" d="M398.404,445.962l-4.4,5.946l-0.622,2.271l-3.94,3.098
		l-2.695,2.891l-7.049,6.813l-0.415,1.858l-5.182,6.398l-2.904,0.619l-3.938,3.303l-0.208,1.857l-2.28,1.445v1.857l-3.525,2.683
		l-3.11,1.031l-1.451,4.746l-3.11,0.825l-1.721,2.916l0,0l-37.508-24.197l0,0l0.581-19.668l-14.522-11.573l-2.324-17.945
		l5.809-11.582l1.162-8.109l-11.037,2.896l-19.169-4.634l0,0l-10.269-21.559l14.36-14.162l0.414-2.277l25.709-24.229l0.829-2.486
		l17.192-16.871l0,0l61.552,13.735l-14.523,30.752l6.971,10.438l8.133,22.024l-6.39,40.536L398.404,445.962z"/>
	<path id="SO-GE" fill="#1E3250" stroke="#1E3250" stroke-width="0.5" d="M104.222,450.65l3.044-0.14l1.389-0.722l1.961-1.518
		l12.618,21.739l2.324,4.627l-1.162,10.408l0,0l-1.162,25.435v9.824l-9.874,1.155l-19.17-1.733l-11.617,64.688l0,0l-44.146,0.578
		l-12.775,39.251l0,0l-24.711,1.671l0,0l0,0l0,0l-0.233,0.017l0,0l0.023-30.928l0.16-3.308l-0.148-0.45l-0.047-7.103L0,571.109
		l0.487-2.797l-0.085-32.116l0.066-1.989l0.323-0.311l0.001-0.286l19.518-19.005l19.361-27.778l11.545-15.813l2.259-3.634
		l0.454-0.146l0.36-0.737l0.484-0.194l0.964-1.425l2.583-1.754l0.701-1.501l1.115-1.32l3.742-1.933l2.154-0.086l2.486-0.625
		l2.664-1.035l5.867-0.028l2.308-0.215l2.993,0.134l2.307-0.214l4.829-1.264l1.562,0.144l1.646-0.844l1.278,0.117l0.912-0.628
		l1.561,0.145l0.77-0.641l2.32-0.355l1.326-0.447l0.912-0.628l1.468-0.434L104.222,450.65z"/>
	<path id="SO-HI" fill="#1E3250" stroke="#1E3250" stroke-width="0.5" d="M274.846,401.709l19.169,4.634l11.037-2.896l-1.162,8.109
		l-5.809,11.582l2.324,17.945l14.522,11.573l-0.581,19.668l0,0l-18.069,18.701l-2.843,2.693l-5.228,15.606l-38.919,2.89
		l-6.971-0.578l-4.647-2.312l0,0l-16.846-1.156l0,0l-0.58-24.856l1.742-9.253l-2.904-12.146l-4.066-19.673l-5.235-29.63l0,0
		l2.124-0.027l3.009,0.531l3.081-0.308l5.562,0.34l4.423-0.01l3.424-0.36l2.297-0.769l30.877-31.857L274.846,401.709z"/>
	<path id="SO-JD" fill="#1E3250" stroke="#1E3250" stroke-width="0.5" d="M116.264,612.7l16.846,24.816l4.647,6.349l9.786,14.096
		l0,0l-7.971,7.952L127.857,678.7l0,0l-26.115,0.362l-5.809-23.656L84.315,620.78l-13.36,0.577l-45.303,2.886l0,0l12.775-39.251
		l44.146-0.578l0,0l6.97,4.042l22.074,20.781L116.264,612.7z"/>
	<path id="SO-JH" fill="#1E3250" stroke="#1E3250" stroke-width="0.5" d="M25.652,624.243l45.303-2.886l13.36-0.577l11.618,34.626
		l5.809,23.656l26.116-0.362l0,0l-17.765,19.381l-12.424,12.245l-2.84,2.388l-1.953,2.564l-0.226,1.361l-0.419,0.289l-0.032,0.593
		l-0.339-0.225l-0.242,0.24l0.113,0.417l0.355-0.226l-0.178,0.514l-0.016-0.208l-0.323,0.097l0.355,0.385l-0.209,0.416l-0.727,0.497
		l-0.209-0.111l0.425-0.192l0.397-0.385l-0.064-0.368l-0.549-0.289l-0.646,0.032L89.6,718.66l-1.808,2.469l-0.646,0.416
		l-0.242,0.417l0.145,0.689l0.484,0.158l-0.629,0.676l0.21,0.144l-0.065,0.177l-0.403,0.192l-0.032-0.834l-0.678,0.064l-0.532,0.912
		l-0.936,0.595l-1.242,1.426l-1.372,1.938l-0.613,0.338l-0.742,0.816l-2.824,3.703l-0.016,0.354l-0.242,0.031l-2.969,3.862
		l-0.032,0.978l-0.742,0.081l-0.71,0.865l-0.855,1.635l-2.001,2.101l-0.419,0.802l-1.694,1.218l-1.129,0.192l-1.21,0.609
		l-0.419,1.09l-0.887,1.202l-0.178,0.914l-1.468,1.233l-0.629,1.154l-1.001,0.977l0.001,0.706l0.339,0.289l-0.436,0.24l-0.291,0.577
		l-0.323-0.08l-1.694,1.298l-1.468,2.838l-0.016,0.737l-0.436,1.025l-0.952,0.962l-0.597,1.25l-0.017,0.449l0.242-0.017l0.129,0.225
		l-0.081,0.272l-1.549,0.962l-0.371,0.978l-0.387-0.191l-1.049,1.65l0.742,0.257l0.758-0.93l0.323-0.145l-0.048,0.159l-0.678,0.946
		l-0.952,0.608l-0.403,0.514l0.178-0.433l-0.291-0.178l-1.113-0.017l-0.613,0.354l-0.371,1.105l0.226,0.337l-1.5,2.437l-0.726,0.834
		l-0.064,0.178l0.016,0.191l-0.291,0.674l-0.355,0.257l-0.161,0.834l-0.387,0.19l-0.339,0.578l-1.275,1.202l-0.855,1.25l0.097,0.289
		l-1.275,1.699l0.194,0.289l-0.888,0.753l-1.307,1.876l-0.177,0.706l-0.968,1.201l-0.984,1.973l-0.919,0.85l-0.323,1.06
		l-0.484-0.017l-1.098,1.523l-0.484,1.01l0.048,0.513l0.242,0.13l0.371-0.306l-0.209,0.4L35.368,792l0.016-0.417l-0.71,0.146
		l0.113-3.322l-4.851-5.959l-7.469-10.46l-5.22-6.929l-2.714-3.124l-6.594-8.545l-6.44-8.917l-0.229-2.271l-0.091-7.082l0.1-38.169
		l-0.69-0.809L0.66,683.41l0.245-0.09l-0.103-2.955l0.39-6.827l-0.602-2.464l0.325-12.853L0.7,649.442l0.008-23.513l0,0
		L25.652,624.243z"/>
	<path id="SO-MU" fill="#1E3250" stroke="#1E3250" stroke-width="0.5" d="M382.174,259.435l54.738,8.749l30.787-17.464l9.294,0.582
		l14.522,6.987l3.485,0.582l8.495,9.725l0,0l-4.34,6.287l-3.292,4.072l-1.064,1.696l-1.421,1.584l-0.5,1.131l-2.001,2.972
		l-0.774,1.615l-1.371,1.389l-0.42,1.002l-1.082,1.356l-1.709,3.165l-0.937,1.034v0.355l-0.5,0.84l-0.387,0.226l-0.049,0.42
		l-1.097,1.582l-1.291,2.712l-0.403,0.372l-2.421,4.213l-0.903,2.711l-3.163,7.052l-0.258,1.388l-1.613,3.55l-1.275,3.581
		l-0.903,5.13l0.355,2.177l-0.064,0.806l-1.13,3.774l-4.599,10.253l-4.018,7.655l-3.211,4.786l-3.389,5.605l-3.97,5.783
		l-5.841,9.743l-5.147,6.312l-0.532,1.481l-0.742,1.029l-1.097,1.047l-0.114,0.37l-3.727,4.41l-2.792,4.072l-1.581,1.754
		l-4.905,6.404l-2.194,3.717l-1.178,1.368l-2.243,3.748l-1.549,3.748l-1.598,2.444l-2.55,4.776l-2.937,4.182l-2.549,4.984
		l-2.775,3.602l-5.842,5.899l0,0l-19.58-8.352l6.39-40.536l-8.133-22.024l-6.971-10.438l14.523-30.752l-61.552-13.735l0,0
		L382.174,259.435z"/>
	<path id="SO-NU" fill="#1E3250" stroke="#1E3250" stroke-width="0.5" d="M470.604,167.295l1.743,14.024l4.066,7.592l6.39,4.671
		l9.294,5.837l13.36,0.583l5.809,2.918l3.485,11.668l5.228-7.583l6.971,1.167l7.108,6.554l0.337-0.134l0,0l-0.87,0.83l-0.968,2.155
		l0.129,0.243l-0.193,1.538l-0.517,1.118l-0.177,1.441l-0.404,0.697l-3.501,3.158l-2.017,0.777l-3.534,2.493l-1.339,1.474
		l-0.662,0.388l-0.193,0.518l-0.807,0.567l-1.195,1.603l-2.807,2.104l-1.855,2.784l-0.597,2.217l-0.194,3.252l0.081,0.356
		l0.403,0.324l0.258,1.019l1.033,0.146l-0.531,0.485v0.696l0.306,0.291l-0.694,0.793l0.081,0.404l0.308,0.195l-0.114,0.404
		l-3.179,4.125l-0.5,2.798l-1.049,2.361l-3.631,7.146l-1.969,3.104l0,0l-8.495-9.725l-3.485-0.582l-14.522-6.987l-9.294-0.582
		l-30.787,17.464l-54.738-8.749l0,0l24.854-24.838l-2.839-0.006l0,0l-0.007-1.462l10.656-10.377l-5.809-1.167l30.786-32.09
		l8.133,0.584L470.604,167.295z"/>
	<path id="SO-SA" fill="#1E3250" stroke="#1E3250" stroke-width="0.5" d="M446.102,39.107l2.438,0.867l4.421,1.145l3.195,1.438
		l1.854,0.605l0.953,0.604l2.043,0.409l0,0l6.693,27.022l1.743,70.949l0,0l-29.046,1.755l-29.043,2.341l-57.508,3.51l0,0
		l-9.294,0.585l0,0l-4.066,0.585l-48.213-38.647l0,0l1.521-40.547l0,0l1.94,0.375l2.808-0.016l4.889-0.996l1.162,0.098l0.71-0.18
		l1.372,0.702l0.952,0.751l3.292,3.492l1.13,0.62l3.404,0.44l2.759-0.261l4.18-1.762l3.518-0.783l1.484,0.017l3.26-1.191
		l1.081-0.799l7.15-3.64l0.465-0.62l0.775-0.343l0.629-0.718l1.371-0.408l1.033-0.947l0.742-1.028l0.952-0.131l0.646-0.359
		l0.274-0.849h1.436l0.549-0.147l0.21-0.359l1.258-0.262l1.033-1.845l0.759-0.212l1.307,0.049l0.936-0.621l1.033-0.163l0.451-0.375
		l0.807-0.261l0.533-0.8l0.307-1.176l1.129-0.653l0.63-0.735l0.29-1.127l3.082-0.964l1.662-0.8l1.242-1.046l2.291-1.095l1.001-0.147
		l0.936-0.686l2.824-0.899l1.097-0.637L373.572,48l0.097-0.196l1.903,0.212l1.791-0.425l1.84-0.147l1.855,0.13l1.259,0.719
		l4.034,3.203l0.678,0.163l1.564,0.997l1.518,0.327l2.081-0.604l1.984-0.882l1.63-0.245L396,51.04l0.548,0.277l3.81,0.294
		l1.129-0.082l1.564-0.752l1.808,0.67l0.742,0.065l4.309-0.245l1.017-0.522l1.549,0.13l0.889-0.311l2.598,0.311l1.662-0.882
		l1.469-1.258l1.049-1.226l1.018-0.588l0.581-0.751l2.032-0.36l1.84-0.637l0.871-0.654l0.112-0.327l0.613-0.408l1.259-1.406
		l1.694-0.245l0.951-0.589l2.518,0.147l1.872-0.196l2.21-1.308l0.71-0.18l4.147,0.114L446.102,39.107z"/>
	<path id="SO-SD" fill="#1E3250" stroke="#1E3250" stroke-width="0.5" d="M314.346,472.324l37.508,24.197l0,0l-6.246,6.31
		l-5.42,6.807l-9.311,10.065l-3.744,3.258l-2.195,2.215l-7.115,5.617l-2.211,2.424l-3.872,2.84l-0.71,0.835l-0.194,0.85
		l-0.549,0.081l-0.615,0.559l-0.353,1.447l-0.339,0.577l-4.372,3.032l-1.646,1.766l-0.726,1.443l-0.581,0.241l-0.129,0.754
		l-0.548,0.097l-0.662,0.497l-1.129,1.188l-0.582,0.882l0.097,0.369l-0.823,0.963l-3.421,2.695l-2.033,2.31l-1.161,0.866
		l-0.259-0.096l-0.532,0.337l-2.436,2.069l-2.05,1.38l-3.372,1.62l-0.807,0.705l-0.774,0.192l-0.694,0.594l-0.646,0.048
		l-2.291,1.637l-1.291,0.577l-0.177,0.272l-3.147,1.685l-0.097,0.272l-2.129,0.963l-1.904,1.195l0,0l-8.335,0.753l-4.066,1.155l0,0
		l-3.485-1.732l0.581-31.187l-12.78-18.488l-2.904-12.135l0,0l4.647,2.312l6.971,0.578l38.919-2.89l5.228-15.606l2.843-2.693
		L314.346,472.324z"/>
	<path id="SO-SH" fill="#1E3250" stroke="#1E3250" stroke-width="0.5" d="M246.52,583.604l-0.678,0.032l-0.468,0.434l-0.388-0.192
		l-0.936,0.706l-0.565-0.048l-0.242,0.288l-0.355,0.017l-0.307,0.417l-1.275,0.112l-0.371,0.479l-2.017,0.834l-0.742,0.675
		l-0.371-0.049l-1.533,0.833l-2.098,1.748l-0.565,0.018l-3.63,2.356l-1.372,0.497l-0.242,0.497l-0.387,0.208l-0.016-0.145
		l-0.258,0.049l-3.404,2.325l-3.663,2.132l-0.129,0.257l-0.758,0.16l-0.774,1.219l-0.291-0.016l-0.71,0.465l-0.033,0.24
		l-1.032,0.209l-0.984,1.09l-2.904,1.748l-1.355,1.347l-0.533,0.226l-0.807-0.08l-0.742,1.09l-2.534,1.859l-0.338,0.064l-0.194,0.24
		l0.097,0.257l-0.903,0.737l-0.742,0.176l-0.484,0.354l-0.726,0.994l-1.388,0.737l-0.952,0.896l-4.034,2.919l-0.774,0.85
		l-0.533,0.177l-1.404,1.09l-1.226,1.14l-0.419,0.753l-0.339-0.017l-3.405,2.854l-0.726,0.706l-0.597,1.233l-1.581,0.785
		l-2.663,2.373l-0.694,0.817l-0.097,0.447l0.323,0.032l-0.178,0.401l-0.387-0.192l-1.597,0.897l-2.84,2.195l-1.081,1.442
		l-0.372,1.203l-0.177-0.289l-0.339,0.08l-1.969,1.251l-2.21,1.955l-0.129,0.674l-1.404,0.673l-1.533,1.362l-0.291,0.017
		l-1.823,1.234l-2.566,2.164l-1.71,1.073l-0.274,0.465l-0.678,0.497l-0.368,0.85l-6.248,4.841l-7.536,6.907l0,0l-9.786-14.096
		l-4.647-6.35L116.264,612.7l0,0l34.853-17.317l17.427-6.927l44.728-19.631l-1.743-15.016l2.323-15.596l-1.162-3.466l2.904-13.866
		l-1.743-11.558l0,0l6.971-1.156l0,0l16.846,1.156l0,0l2.904,12.135l12.78,18.488l-0.581,31.187l3.485,1.732l0,0l-7.175,9.325l0,0
		l-1.724,0.657l-0.387,0.529L246.52,583.604z"/>
	<path id="SO-SO" fill="#1E3250" stroke="#1E3250" stroke-width="0.5" d="M470.604,167.295l-22.654,22.784l-8.133-0.584
		l-30.786,32.09l5.809,1.167l-10.656,10.377l0.007,1.462l0,0l-53.817-0.028l0,0l5.217-33.394l-5.81-11.09l-4.343-0.546v-39.252l0,0
		l8.41-0.529l0,0l57.507-3.51l29.043-2.341l29.046-1.755l0,0L470.604,167.295z"/>
	<path id="SO-TO" fill="#1E3250" stroke="#1E3250" stroke-width="0.5" d="M350.372,234.563l-40.918-15.369l-38.812-12.435
		l-55.036-17.967l0,0l-0.011-31.436l8.133-32.19l2.323-2.929l13.361-15.238l46.47,4.103l6.39,1.172l0,0l48.213,38.648l4.067-0.585
		l0,0l0.884-0.056l0,0v39.252l4.343,0.546l5.81,11.09L350.372,234.563z"/>
	<path id="SO-WO" fill="#1E3250" stroke="#1E3250" stroke-width="0.5" d="M166.838,166.597l-10.804-12.31l-4.109-0.112l-0.729-0.812
		l-1.583-0.663l-0.456-0.661l-0.695-0.271l-2.176-0.148l-0.257-0.782l-0.576-0.812l-1.558-0.687l-0.488-0.587l-1.847-1.156
		l-0.583-1.989l-1.014-0.85l-1.178-1.876l-0.718-0.403l0.064-0.751l-0.661-1.07l-1.585-1.998l-0.628-0.479l-0.521-1.731l-0.53-0.638
		l-0.096-0.85l0,0l26.529-34.921l17.199,8.131l10.452-19.806l0,0l1.948,1.858l2.227,1.565l4.002,1.695l3.081,0.62l2.034-0.636
		l4.534,0.831l0.565-0.13l1.371,0.554l1.823,0.033l2.985-0.489l0.63-0.522l0.903-0.342l3.082-0.489l1.501-0.473l2.323,0.31
		l1.743-0.163l3.84,0.717l3.582-0.293l3.034-1.418l-0.048-0.212l-0.242-0.017l0.258-0.212l0.242,0.066l-0.194,0.114l0.081,0.179
		l0.21-0.032l0.258-0.506l-0.275-0.538l-1.242,0.522l-0.129-0.049l4.308-1.891l1.872-1.826l3.211-0.522l1.533-0.962l1.936-0.62
		l2.049-1.108l1.017-1.093l1.194-1.794l1.242-0.995l1.178-1.664l0.468-0.326l0.597-0.098l3.679,0.343l3.953-0.441l0.759-0.93
		l0.645-0.261l1.226-0.097l0.678-0.441l0.081-0.424l0.322-0.294l1.275-0.245l1.307-0.636l0.194-0.375l-0.145-0.375l0.693-0.686
		l0.42-0.897l0.452-0.196l1.42-0.049l2.662-0.98l1.662-1.436l3.066-1.305l0.436-0.523l0.048-0.783l0.855-0.506l1.42-0.147
		l0.242-0.343l1.226,1.078l1.792,1.061l-0.146,0.652l0.291,0.278l0.387-0.229l0.694,0.327l-0.468-0.506h-0.436l0.129-0.392
		l0.5-0.261l2.905,1.24l2.969,2.041h1.307l2.271,0.457l0,0l-1.521,40.546l0,0l-6.39-1.172l-46.47-4.103l-13.361,15.238l-2.323,2.929
		l-8.133,32.19l0.011,31.436l0,0l-9.881-3.414l-22.486-7.215l-0.667-0.462l-3.199-1.29l-3.546-0.425l-4.313-3.114l-0.162-2.611
		l-2.571-1.97l-1.031-1.126L166.838,166.597z"/>
</g>
</svg>
