<?xml version="1.0" encoding="utf-8"?>
<!-- Generator: Adobe Illustrator 15.0.0, SVG Export Plug-In . SVG Version: 6.00 Build 0)  -->
<!DOCTYPE svg PUBLIC "-//W3C//DTD SVG 1.1//EN" "http://www.w3.org/Graphics/SVG/1.1/DTD/svg11.dtd">
<svg version="1.1" id="Layer_1" xmlns:amcharts="http://amcharts.com/ammap"
	 xmlns="http://www.w3.org/2000/svg" xmlns:xlink="http://www.w3.org/1999/xlink" x="0px" y="0px" width="468.5px" height="416.5px"
	 viewBox="0 0 468.5 416.5" enable-background="new 0 0 468.5 416.5" xml:space="preserve">
<defs>
	
	
		<amcharts:ammap  projection="mercator" leftLongitude="16.455611" topLatitude="-22.137828" rightLongitude="37.909195" bottomLatitude="-46.984146">
		</amcharts:ammap>
</defs>
<g>
	<path id="LS" fill="#1E3250" stroke="#1E3250" stroke-width="0.5" d="M283.87,235.96l-0.57-2.89l1.07-2.08l-2.09-0.02l-7.85-16.03
		l0.89,0.58l0.29-1.04l2.19-1.2l3.95-0.9l0.03-0.99l2.97-2.55l-0.42-1.15l0.8-0.05l0.47-2.23l2.15-1.08l-0.44-1.1l3.39-3.21
		l-0.31-0.9l0.9-0.11l-0.86-0.89l2.09-1.29l0.71-3.02l3.45,0.49l1.34-1.85l2.46,0.75l0.6-1.87l3.37-3.62l4.5,0.21l1.32-2.32
		l6.23-1.38l1.19,0.82l0.52,2.28l3.87,2.4l0,0l5.51,6.28l3.62,1.72l1.06,1.73l1.91,0.02l3.38,7.61l-0.96,2.5l-3.18,1.74l0.68,2.68
		l-0.97,0.35l0.01,1.16l-2.9,1.03l-0.86,1.59l-0.51,3.64l1.02,2.53l-3.61,2.13l0,0l-4.73,2.88l-4.26,1.3l-3.34-0.6l-1.92,1.11
		l-2.14-0.25l-2.15,3.18l-2.44,1.04l1.49,2.2l-3.25,2.94l0.81,1.03l-1.82,3.15l0.07,2.1l-4.97-0.85l-0.76-1.29l-3.82-0.1l-7.13-8.5
		L283.87,235.96z"/>
	<path id="ZA-EC" fill="#1E3250" stroke="#1E3250" stroke-width="0.5" d="M326.28,226.43l2.35,2.35l0.02,1.1l-1.17,1.53l-2.42,0.74
		l0.36,0.92l-1.34,1.58l-1.2-0.32l-0.7,1.83l-2.24-0.91l-0.92,2.24l0.69,3.94l1.19,0.19l1.07,1.62l2.32,0.47l1.34-2.22l1.99,0.98
		l-0.07,1.58l6.38,2.08l3.78-1.18l3.5,2.27l1.53-0.31l2.35,1.22l1.27-0.52l1.98,2.04l1.56,0.01l0.83,1.82l2.14,0.41l3.67,6.94l0,0
		l-8.65,10.19l-2.76,1l-5.51,5.87l-3.13,1.49l-8.69,11.8l-13.9,15.04l-3.12,1.799l-1.56,2.28l-5.81,2.931l-1.77,3.46l-4.58,3.97
		l-4.55,2.37l-18.78,13.989l-14.01,6.271l-4.38-0.29l-5.85-1.79l-6.06,0.58l-3.62,2.12l-1.73,2.35l-0.51,2.46l2.25,2.521
		l-3.15,0.649l-4.46-0.489l-4.89-1.971l-4.84,0.01l-2.6,1.301l-0.27,2.14l-2.29,2.74l0.96,0.84l-0.96,0.69l-4.95-1.431l-0.88,0.63
		l-2.73-0.63l-3.16-2.12l-6.02-1.58l-13.23-2.22l0,0l-0.31-1.38l1.54-2.04L183.9,343l-0.09-1.44l-4.53-0.02l1.2-2.101l3.33-2.029
		l2.83,0.25l0.14-1.19l-1.87-1.649l-0.21-2.341l-2.46-1.68l-4.06-0.08l-0.81-1.29l-14.09,0.351l-0.58-2.46l0.94-0.16l4.49-6.96
		l0.04-4.59l1.67-2.04l2.3-0.5l-0.77-2.74l1.61,2.17l1.42-1.6l4.81,1.14l0.18-1.78l-3.16-3.49l1.17-0.72l-2.22-6.32l3.04-2.14
		l1.69,0.75l1.1-1.55l5.54,0.16l0.21-3l2.54-1.79l3.16,2.12l4.02-2.18l-0.12-0.75l1.25,0.17l1.17-0.95l0.01-0.97l-0.79-0.07
		l-0.09-1.12l1.01-0.08l-0.56-1.03l1.55-0.42l1.15-1.72l-1.37-1.59l-1.41,0.25l1.78-2.58l-0.5-0.87l0,0l0.12-1.63l2.77,0.98
		l1.27-1.74l4.99-0.19l0.4-6.64l1.07-0.53l0.06-2.02l5.8-0.18l0.92-1.14l0.91,0.5l0.1-1.36l9.31-3.87l4.26,0.28l-0.01-1.66
		l2.13-2.04l-0.59-0.73l2.24-3.67l-1.31-2.32l1.84-2.21l-1.87-0.24l-0.39-5.16l0,0l3.64-0.41l0.79,1.7l3.08,0.77l3.14-2.04
		l0.63-2.15l1.35,0.78l2.91-1.65l1.98,0.71l0.61-1.43l3.22,2.77l4.09-0.52l1.07,2.08l4.06,0.98l-0.14,0.6l4.48-1.23l1.24,1.05
		l2.1-0.63l0.95-1.83l1.61-0.07l-0.72-1.74l2.84,0.25l0.49-1.39l4.4-0.29l-0.32-1.51l1.76,0.02l-0.76-1.36l1.87-0.52l-1.26-1.51
		l1.18-0.24l0,0l2.05-0.19l7.14,8.5l3.82,0.09l0.75,1.3l4.97,0.84l-0.06-2.09l1.82-3.15l-0.81-1.03l3.25-2.94l-1.49-2.2l2.44-1.04
		l2.15-3.18l2.14,0.25l1.92-1.11l3.33,0.59l4.27-1.3L326.28,226.43z"/>
	<path id="ZA-FS" fill="#1E3250" stroke="#1E3250" stroke-width="0.5" d="M287.56,131.82l2.22-1.25l0.36,0.89l3.19,0.55l0.56-1.03
		l2.49-0.41l2.09-1.72l1.49,3.45l3.06,3.14l0.77-1.18l0.76,1.26l1.58-0.39l0.9,0.7l0,0l2.79,0.54l0.82,1.61l1.49-0.74l1.86,1.71
		l-0.55,1.08l2.93-1.44l-0.91-0.69l0.82-0.79l6.18,2.67l2.87-1.44l1.51,0.74l1.6,3.8l2.48-0.45l3.04,1.74l0.21,1.11l2.8,0.4
		l4.47,7.38l2.01-0.37l0.53-1.25l1.51,0.04l0,0l-1.54,0.69l1.8,3.34l-2.55,1.89l1.05,4.59l-2.58,6.5l1.24,1.979l-0.1,1.71
		l-1.79,2.41L338.4,175l-2.11,2.74l-4.83,2.67l-0.91,2.75l-5.77,1.14l-2.7,5.42l0,0l-3.87-2.4l-0.52-2.28l-1.19-0.82l-6.23,1.38
		l-1.32,2.32l-4.5-0.21l-3.37,3.62l-0.6,1.87l-2.46-0.75l-1.34,1.85l-3.45-0.49l-0.71,3.02l-2.09,1.29l0.86,0.89l-0.9,0.11l0.31,0.9
		l-3.39,3.21l0.44,1.1l-2.15,1.08l-0.47,2.23l-0.8,0.05l0.42,1.15l-2.97,2.55l-0.03,0.99l-3.95,0.9l-2.19,1.2l-0.29,1.04l-0.89-0.58
		l7.85,16.03l2.09,0.02l-1.07,2.08l0.57,2.89l0,0l-1.19,0.25l1.26,1.51l-1.86,0.52l0.75,1.36l-1.75-0.02l0.32,1.52l-4.4,0.29
		l-0.49,1.39l-2.84-0.25l0.72,1.74l-1.61,0.07l-0.95,1.84l-2.11,0.62l-1.24-1.05l-4.47,1.23l0.13-0.6l-4.06-0.98l-1.07-2.08
		l-4.09,0.52l-3.22-2.77l-0.61,1.43l-1.99-0.71l-2.91,1.65l-1.35-0.78l-0.64,2.15l-3.14,2.04l-3.08-0.76l-0.78-1.7l-3.64,0.4l0,0
		l-1.99-1.72l-2.32-0.18l-3.13-2.86l-7.31-8.35l-2.49-5.35l-3-0.84l-0.73-2.14l-5.85-3.28l-2-2.91l-0.18-1.1l14.07-29.99l-1.37-0.5
		l0.37-3.91l1.21-1.36l0.83-3.65l-1.01-1.26l1.94-0.9l1.36-3.63l-0.7-1.21l0,0l2.18-0.59l1.57-3.66l2.84-1.73l0.69-2.09l8.1-4.04
		l2.01,0.39l3.75-2.73l1.64,1.12l3.43,0.43l0.57,2.29l1.3-0.01l0.41-3.05l3.79-3.13l0.91-2.36l1.65,0.09l0.71-0.95l4.18,0.13
		l-1.74-1.07l1.1-2.68l-2.07-2.89l2.19-0.74l0.77-1.22l1.45,0.18l1.12-2.71l1.82,0.29l1.2-1.78l2.99-1.3l1.45,1.35l0.51-2.63
		l2.75,1.84l3.33-0.32l0.45,1.29l3.53-3.42l2.54,1.97l1.48-0.94L287.56,131.82z"/>
	<path id="ZA-GT" fill="#1E3250" stroke="#1E3250" stroke-width="0.5" d="M315.25,85.41l3.72-0.41l0.74,1.97l-3.35,1.59l-0.91,7.01
		l1.4,5l4.03,0.36l2.84-3.44l2.58-0.7l0.62,2.18l-2.46,0.99l0.4,1.85l-1.23,2.29l0.2,1.51l-1.65-0.28l-0.92,4.87l-5.76-1.01
		l-1.35,2.51l-2.74,0.36l1.53,4.3l2.44,0.79l0.08,1.82l1.83,1.15l3.48-0.96l1.13,2.34l-2.9,1.42l-0.06,1.72l-5.13,0.87l-2.23,2.95
		l-2.37,0.75l-0.53,1.85l0.7,1l-2.24,1.16l0.53,1.33l-0.64,1.28l0,0l-0.9-0.7l-1.58,0.39l-0.76-1.26l-0.77,1.18l-3.06-3.14
		l-1.49-3.45l-2.09,1.72l-2.49,0.41l-0.56,1.03l-3.19-0.55l-0.36-0.89l-2.22,1.25l0,0l0.75-4.15l-0.9-1.13l1.74-3.82l-2.48,0.09
		l-0.78-1.24l-3.64,0.81l0.24,0.74l-3.43,1.32l-1.11-3.38l3.61-2.84l-0.91-3.96l1.72,0.2l0.08-1.09l1.5-0.22l1.18-7.14l4.52-2.45
		l1.18,2.39l1.33-0.71l0.1,1.14l5.45-1.43l0.28-2.55l0.75-0.27l-1.16-2.93l2.08-0.32l2.26-2.37l-0.88-3.85l1.97-0.32l-0.44,1.49
		l4.58-1.12v-2.76l0,0l5.2-0.24l0.19-1.35l2.89,0.69l1.65-1.76l-0.92,0.05L315.25,85.41z"/>
	<path id="ZA-LP" fill="#1E3250" stroke="#1E3250" stroke-width="0.5" d="M342.94,0.34l6.52,1.48l5.2,3.25l2.56-0.41l1.69,1.6
		l13.99-1.69l11.22,1.94l7.76,22.9l-0.04,8.19l3.44,4.21l1.88,7.36l2.939,2.08l0,0l-2.55,0.31l-1.97,2.48l-1.4-1.15l-1.48,1.12
		l-3.68-0.979l-1.15,1.21l-3.82,0.96l5.8-0.16v1.55l-1.4,1.31l0.26,3l-2.27,2.93l1.43,0.89l-0.55,1.021l2.33,0.04l-1.16,1.1
		l0.61,0.92l3.76,1.58v1.52l-2.11,0.25l-1.36,1.74h-3.5l0.46,3.22l3.27,0.35l-0.23,4.18l-3.64-0.4l-2.06,1.26l-3.94,0.01l-1.39-1.46
		l-0.74-3.98l-2.51-1.23l0.16-4.09l-2.3-1.64l1.02-1.4l-2.14-1.87l-3.43,2.05l-1.11-0.53l-0.02,1.75l-1.51,1.51l-1.03-1.36
		L361,68.01l-0.42,1.2l-3.03-0.8l-0.1,1.79l-1.4-1.08l-2.33,0.08l0.26,3l1.42,1.2l-0.38,1.89l-1.53,0.2l-6.48,5.33L347,81.78
		l-1.8,0.17l1.72,2.73l-1.17,0.4l-0.8,1.83l-4.6-0.8l-3.93-5.66l-1.74,0.53l0.85-1.42l-0.85-3.22L332,75.67l-1.49,0.4l-0.35,3.1
		l-2.75,1.17l-1.03-2.27l-2.97-0.85l0.42,2.13l-5.4-0.12l-3.4,1.76l0.04,2.16l-3.82,0.9l-0.03,0.93l-2.48,0.77l0.13,1.66l6.38-2l0,0
		l0.91,1.93l0.92-0.05l-1.65,1.76l-2.89-0.69l-0.19,1.35l-5.2,0.24l0,0l-1.89-3.11l-2.36,0.26l-0.14-1.45l-1.42-0.24l0.26-1.34
		l0.99-0.23l2.55,0.88l0.45-1.86l-3.75-1.9l-3.18-0.7l-2.25,0.67l0.47-1.44L295,79.05l-0.15,1.61l-2.89,0.46l-2.28-1.05l-2.09,3.92
		l-1.35-1.49l-3.3,0.38l-1.58-1.97l-3.5-0.16l-0.77-2.22l-1.87-0.71l-0.59-4.81l-1.07,0.03l-0.13,1.44l-5.81,2.8l-1.5-0.1
		l-1.78-1.34l-5.41-0.29l-0.96-1.93l0.12-3.04l0,0l1.87-1.39l2.17-3.98l2.85-1.62l0.4-1.42l4.71-2.27l0.13-4.5l3.62-12.93l0.61,1.16
		l0.74-0.28l0.04-1.63l2.4-1.37l-0.37-1.18l1.7,0.3l-0.32-0.88l2.96-1.34l0.63-1.45l1.12,0.72l0.77-1l0.35,0.91l0.78-1.08l2.19-0.18
		l1.91-4.52l2.17-0.44l1.38,0.83l1.09-1.62l-0.51-0.97l4.36-2.41l0.15-2.66l2.71-1.52l0.02-1.98l2.84-1.94l1.22-2.75l3.74-2.63
		l4.32,0.29l8.22-2.87l0.95-1.06l1.3,0.37l3.04-6.77l3.04-0.08l1.28-0.91l3.47,0.64L342.94,0.34z"/>
	<path id="ZA-MP" fill="#1E3250" stroke="#1E3250" stroke-width="0.5" d="M400.18,51.72l0.91,6.22l1.93,3.21l0.591,4.24l0.6,23.27
		l-1.35,6.11l0.8,4.34l-1.93,5.54l1.14,3.47l-2.92,1.34l-11.55-8l-2.7,0.7l-4.84,5.03l-3.87,8.98l-3.93,5.36l-0.98,4.24l0.43,7.52
		l0.77,0.35l1.57-1.38l0.38,1.97l1.67,1.68l-0.13,2.87l4.51,5.189l3.63,1.46l0,0l-2.83,3.65l-1.92-1.02l-3.84,0.59l-1.05-1.51
		l-2.2,1.04l-3.83-1.92l-2.76,1.21l-3.54-0.16l-1.58-1.32l-6.11,3.52l0,0l-2.17-0.71l-1.29,0.74l0,0l-2.17-0.71l-2.13,0.7
		l-1.21,2.32l-0.79-0.37l0,0l-1.51-0.04l-0.53,1.25l-2.01,0.37l-4.47-7.38l-2.8-0.4l-0.21-1.11l-3.04-1.74l-2.48,0.45l-1.6-3.8
		l-1.51-0.74l-2.87,1.44l-6.18-2.67l-0.82,0.79l0.91,0.69l-2.93,1.44l0.55-1.08l-1.86-1.71l-1.49,0.74l-0.82-1.61l-2.79-0.54l0,0
		l0.64-1.28l-0.53-1.33l2.24-1.16l-0.7-1l0.53-1.85l2.37-0.75l2.23-2.95l5.13-0.87l0.06-1.72l2.9-1.42l-1.13-2.34l-3.48,0.96
		l-1.83-1.15l-0.08-1.82l-2.44-0.79l-1.53-4.3l2.74-0.36l1.35-2.51l5.76,1.01l0.92-4.87l1.65,0.28l-0.2-1.51l1.23-2.29l-0.4-1.85
		l2.46-0.99l-0.62-2.18l-2.58,0.7l-2.84,3.44l-4.03-0.36l-1.4-5l0.91-7.01l3.35-1.59L318.97,85l-3.72,0.41l0,0l-6.38,2l-0.13-1.66
		l2.48-0.77l0.03-0.93l3.82-0.9l-0.04-2.16l3.4-1.76l5.4,0.12l-0.42-2.13l2.97,0.85l1.03,2.27l2.75-1.17l0.35-3.1l1.49-0.4
		l2.68,0.67l0.85,3.22l-0.85,1.42l1.74-0.53l3.93,5.66l4.6,0.8l0.8-1.83l1.17-0.4l-1.72-2.73l1.8-0.17l0.01-0.96l6.48-5.33l1.53-0.2
		l0.38-1.89l-1.42-1.2l-0.26-3l2.33-0.08l1.4,1.08l0.1-1.79l3.03,0.8l0.42-1.2l3.75,1.25l1.03,1.36l1.51-1.51l0.02-1.75l1.11,0.53
		l3.43-2.05l2.14,1.87l-1.02,1.4l2.3,1.64l-0.16,4.09l2.51,1.23l0.74,3.98l1.39,1.46l3.94-0.01l2.06-1.26l3.64,0.4l0.23-4.18
		l-3.27-0.35l-0.46-3.22h3.5l1.36-1.74l2.11-0.25v-1.52l-3.76-1.58l-0.61-0.92l1.16-1.1l-2.33-0.04l0.55-1.021l-1.43-0.89l2.27-2.93
		l-0.26-3l1.4-1.31v-1.55l-5.8,0.16l3.82-0.96l1.15-1.21l3.68,0.979l1.48-1.12l1.4,1.15l1.97-2.48l2.55-0.31l0,0L400.18,51.72z"/>
	<path id="ZA-NC" fill="#1E3250" stroke="#1E3250" stroke-width="0.5" d="M94.51,76.96l4.22,1.78l3.02,2.99l1.52,3.52l0.73,0.02
		l-0.21,1.66l2.14,2.19l-0.53,0.67l1.13,1.99l1.1,0.44l0.51,1.66l1.28-0.09l-1.12,1.81l1.61,2.06l-1.01,1.27l0.8,0.06l-0.17,1.49
		l2.02,2.76l-0.3,1.21l1.05-0.6l1.35,4.38l-0.34,4.33l0.86,1.13l-6.32,9.32l0.46,9.49l1.59,3.16l5.39-3.22l6.27,2.26l6.56-1.4
		l3.32,1.04l4.58-0.02l2.17-1.91l-0.09-3.16l6.94-1.48l2.95-3.65l0.97-3.16l4.35-2.19l1.61-2.71l3.51-0.22l0.49-2.17l1.32-0.96l0,0
		l1.59,0.09l-0.01,12.9l3.68,0.21l0.43,0.91l1.47-0.09l0.78,1.24l0.66-0.58l2.07,1.48l-1.04,2.36l0.89,1.33l-1.03,1.7l1.95,4.25
		l-1.9,0.57l-0.35,2.65l1.05,2.86l1.7-0.47l3.19,4.19l3.21,0.46l1.85,1.69l0.98-0.38l0.89,0.97l-0.38,0.96l3.24,0.02l3.82,2.26
		l1.4-1.93l2.01,0.42l0.9-0.66l-1.05-0.65l0.86-1.47l2.3,0.51l0.1-3.11l1.93,1.3l-0.95,6.94l1.59,0.56l-0.66,3.01l0.87,0.84
		l8.04-1.83l0.54,3.88l-2.09,2.42l2.84,2.34l-0.84,1.79l2.18,1.63l2.59-2.71l0.09-2.57l2.1-2.63l-0.19-5.37l1.99-0.9l0.49,2.5
		l6.04-0.06l-4.91,6.23l2.86,5.64l1.26-0.77l0,0l0.69,1.21l-1.35,3.63l-1.95,0.9l1.01,1.26l-0.83,3.64l-1.21,1.36l-0.37,3.91
		l1.37,0.5l-14.06,29.99l0.17,1.1l2,2.92l5.85,3.27l0.73,2.14l3,0.84l2.49,5.35l7.31,8.35l3.14,2.85l2.32,0.18l1.98,1.72l0,0
		l0.39,5.16l1.87,0.24l-1.84,2.21l1.31,2.32l-2.24,3.67l0.59,0.73l-2.13,2.04l0.01,1.66l-4.26-0.28l-9.31,3.87l-0.1,1.36l-0.91-0.5
		l-0.92,1.14l-5.8,0.18l-0.06,2.02l-1.07,0.53l-0.4,6.64l-4.99,0.19l-1.271,1.74l-2.77-0.98l-0.12,1.63l0,0l-2.18,0.12l-1.1-2
		l0.45-0.62l-2.15,0.03l-0.41,1.93l-2.15,1.54l-1.64-1.65l0.84-1.32l-2.33-1.01l-0.27-1.01l-3.27-0.29l-2.34,1.53l-2.83-0.55
		l-0.22,0.85l-3.27,1l-1.36,3.82l-3.74,3.3l-1.01-1.52l0.4-1.26l-2.3-1.04l-2.1,0.64l-1.07-1.35l-1.98,0.65l-0.94-1.43l-4.11-0.05
		l0.71-2.29l-1.24-1.64l-6.57-3.05l-3.12,6.24l-0.15,3.12l-2.3-1l-0.01,4.92l1.23,1.3l-1.02,2.22l-0.5-1.51l-1.62,0.75l-0.09,2.75
		l-1.74,0.68l-0.33,1.25l-1.77,0.33l-3.29-1.95l-1.35,1.36l-1.51-1.28l-1.98,0.7l0.25,2.49l-2.27,0.46l-1.13,1.28l-3.18,0.15
		l-0.48,1.57l-2.15,1.25l-1.27,3.41l0.46,1.3l-3.99,1.3l-1.02-0.57l-4.48,1.83l0.66,3.51l-0.61,2.04l-2.05,1.57l-3.16,0.26
		l-1.04-1.609l-1.67,1.439l-1.84,0.17l-1.94-1.029l-0.1-1.381l-1.84-2.06l-2.48-1.04l0.05-2.75l-1.39-1.33l-1.56-7.19l1.15,0.57
		l0.87-1.97l1.67-1.68l0.66,0.36l-1.75-3.82l-2.16,2.28l-1.11-0.03l-3.02,3.79l-3.26-0.37l-3.66,3.16l-0.74-1.3l-0.59,0.47
		l-0.96,3.37l0.72,2.32l-1.96,1.271l-1.22-2.5l0.49-3.45l-2.41-5.47l2.52-1.43l-0.36-5.01l-4.17-1.52L73.55,286l-1.28-0.43
		l0.62-2.78l-1.98,1.93l-4.22-1.28l1.5-4.28l-1.22-3.11l0.95-2.27l-0.89-0.81l0.56-1.21l-1.77-0.55l0.47-3.66l-1.12-1.14l0.98-1.38
		l-1.48-0.55l-0.4-4.85L63,257.36l0.31-1.61l1.79-1.43l-2.64-1.52l2.32-0.74l-0.41-3.9l-2.35-0.28l-2.08-1.83l0.38-1.13l-1.03-1.61
		l-2.57-0.57l-2.42-3.44l-1.93,0.52l0.68,3.97l-3.21-3.81l0.48,1.83l-1.33,4.32l-2.61,4.5L44,251.68l-2.09-1.85l-2.45,0.13
		l-0.11,3.79l-3.02,0.36l1.2,2.28l-2.67,2.44l0.5,2.75l-1.76-0.72l0,0l-12.48-24.37l-6.19-21.45l-2.4-7.22l-2.69-4.75l-0.65-3.56
		l-1.7-1.43l-1.52-3.4l-2.24-1.75l-0.84-4.13L0,186.12l0.39-1.57l2.4-0.82l2.74-2.42l1.45,0.73l2.12-3.88l-1.41-2.87l1.65,0.12
		l-0.45-1.57l1.23-0.16l-0.48-1.29l1.44,0.11l-0.03-2.46l5.18-1.51l2.71,2.2l0.4,3.68l2.82-0.4l1.73,2.06l0.66,3.39l-1.92,1.77
		l1.23,2.95l1.29,0.04l-0.45,4.4l4.13-0.92l2.03,2.42l2.56-0.76l4.31,0.56l3.69,3.35l3.26,1.03l2.23-0.95l6.23,0.29l5.89-1.54
		l5.62,0.69l1.59,2.12l2.63,1.03l1.6-0.4l3.11-1.6l-1.34-2.59l0.62-1.91l5.03-1.05l2.69-5.39l3.38-0.35l1.09-0.94l1.89,0.59
		l1.68-1.91l3.22-0.29l0.09-106.26L94.51,76.96z"/>
	<path id="ZA-NL" fill="#1E3250" stroke="#1E3250" stroke-width="0.5" d="M406.24,132.96l1.91,1.35l1.14-0.81l4.04,0.86l13.13-0.12
		l-0.27,1.15l-0.841,5.31l-4.47,12.36l-3.16,18.75l-3.399,6.81l-0.58,4.14L403.6,193.3l-6.399,2.51l-11.12,12.47l-7.27,11.63
		l0.12,3.01l-4.56,5.32l-6.73,13.61l-11.1,17l0,0l-3.67-6.94l-2.14-0.41l-0.83-1.82l-1.56-0.01l-1.98-2.04l-1.27,0.52l-2.35-1.22
		l-1.53,0.31l-3.5-2.27l-3.78,1.18l-6.38-2.08l0.07-1.58l-1.99-0.98l-1.34,2.22l-2.32-0.47l-1.07-1.62l-1.19-0.19l-0.69-3.94
		l0.92-2.24l2.24,0.91l0.7-1.83l1.2,0.32l1.34-1.58l-0.36-0.92l2.42-0.74l1.17-1.53l-0.02-1.1l-2.35-2.35l0,0l3.6-2.13l-1.02-2.53
		l0.51-3.63l0.86-1.6l2.9-1.03l-0.01-1.16l0.97-0.35l-0.68-2.68l3.17-1.74l0.97-2.5l-3.39-7.61l-1.9-0.02l-1.06-1.74l-3.62-1.72
		l-5.51-6.28l0,0l2.7-5.43l5.77-1.13l0.91-2.75l4.84-2.67l2.1-2.74l2.62-0.41l1.79-2.42l0.09-1.71l-1.24-1.98l2.58-6.5l-1.04-4.59
		l2.54-1.89l-1.79-3.34l1.54-0.69l0,0l0.79,0.37l1.21-2.33l2.13-0.69l2.17,0.71l0,0l1.1-0.74l2.37,0.71l0,0l6.11-3.52l1.58,1.32
		l3.54,0.17l2.76-1.22l3.83,1.92l2.21-1.04l1.04,1.52l3.84-0.59l1.93,1.02l2.83-3.65l0,0l5.5,2.06l12.28,0.04l1-14.66L406.24,132.96
		z"/>
	<path id="ZA-NW" fill="#1E3250" stroke="#1E3250" stroke-width="0.5" d="M258.09,70.58l-0.12,3.04l0.96,1.93l5.41,0.29l1.78,1.34
		l1.5,0.1l5.81-2.8l0.13-1.44l1.07-0.03l0.59,4.81l1.87,0.71l0.77,2.22l3.5,0.16l1.58,1.97l3.3-0.38l1.35,1.49l2.09-3.92l2.28,1.05
		l2.89-0.46l0.15-1.61l1.88,0.44l-0.47,1.44l2.25-0.67l3.18,0.7l3.75,1.9l-0.45,1.86l-2.55-0.88l-0.99,0.23l-0.26,1.34l1.42,0.24
		l0.14,1.45l2.36-0.26l1.89,3.11l0,0v2.76l-4.58,1.12l0.44-1.49l-1.97,0.32l0.88,3.85l-2.26,2.37l-2.08,0.32l1.16,2.93l-0.75,0.27
		l-0.28,2.55l-5.45,1.43l-0.1-1.14l-1.33,0.71l-1.18-2.39l-4.52,2.45l-1.18,7.14l-1.5,0.22l-0.08,1.09l-1.72-0.2l0.91,3.96
		l-3.61,2.84l1.11,3.38l3.43-1.32l-0.24-0.74l3.64-0.81l0.78,1.24l2.48-0.09l-1.74,3.82l0.9,1.13l-0.75,4.15l0,0l-1.7,3.16
		l-1.48,0.94l-2.54-1.97l-3.53,3.42l-0.45-1.29l-3.33,0.32l-2.75-1.84l-0.51,2.63l-1.45-1.35l-2.99,1.3l-1.2,1.78l-1.82-0.29
		l-1.12,2.71l-1.45-0.18l-0.77,1.22l-2.19,0.74l2.07,2.89l-1.1,2.68l1.74,1.07l-4.18-0.13l-0.71,0.95l-1.65-0.09l-0.91,2.36
		l-3.79,3.13l-0.41,3.05l-1.3,0.01l-0.57-2.29l-3.43-0.43l-1.64-1.12l-3.75,2.73l-2.01-0.39l-8.1,4.04l-0.69,2.09l-2.84,1.73
		l-1.57,3.66l-2.18,0.59l0,0l-1.26,0.77l-2.86-5.64l4.91-6.23l-6.04,0.06l-0.49-2.5l-1.99,0.89l0.19,5.38l-2.11,2.62l-0.09,2.58
		l-2.59,2.71l-2.18-1.63l0.84-1.79l-2.84-2.34l2.09-2.41l-0.54-3.89l-8.04,1.84l-0.87-0.85l0.66-3.01l-1.59-0.56l0.95-6.94
		l-1.93-1.3l-0.1,3.11l-2.3-0.51l-0.86,1.47l1.05,0.65l-0.9,0.67l-2.01-0.42l-1.4,1.93l-3.82-2.26l-3.23-0.02l0.37-0.96l-0.89-0.97
		l-0.98,0.38l-1.84-1.69l-3.21-0.46l-3.19-4.19l-1.7,0.47l-1.05-2.86l0.35-2.65l1.91-0.57l-1.95-4.26l1.03-1.7l-0.89-1.33l1.05-2.36
		l-2.07-1.49l-0.66,0.58l-0.78-1.229l-1.47,0.08l-0.43-0.91l-3.68-0.21l0.01-12.89l-1.6-0.09l0,0l1.03-2.6l1.36-0.08l0.64-2.79
		l-0.81-0.63l1.76-2.22l-1.09-0.71l2.1-2.92l-0.33-1.74l1.09-0.6l-0.92-0.85l0.8-2.71l3.15-3.11l1.06-2.49l1.33-0.1l0.35,1.1
		l3.17-1.6l5.66,1.06l1.25-1l4.51,4.5l0.62-0.5l4.12,2.98l-0.23,0.75l2.49,2.32l2.62-0.09l0.05,0.8l1.27,0.08l0.14-0.7l3.3-0.22
		l4.74,4.09l1.84-0.83l5.39,2.41l3.75,0.18l2.75-0.35l3.76-2.63l1.96,1.04l5.7,0.28l6.41-4.15l3.03-9.76l4.57-10.45l-0.41-4.54
		L258.09,70.58z"/>
	<path id="ZA-WC" fill="#1E3250" stroke="#1E3250" stroke-width="0.5" d="M556.63,788.86l-2.06,3.14l-1.57-0.8l-3.61,0.37
		l-1.229-1.32l2.83-4.26l2.99,0.5L556.63,788.86z M558.81,779.83l-1.5,0.43l-1.59-1.93l1-0.67l1.84,0.53L558.81,779.83z
		 M184.49,347.68l-3.97,1.24l-1.09,0.86l-0.19,1.85l-9.42-1.05l-1.11,0.54l-9.75-2.88l-3.69,2.01l-5.29-0.1l-2.96,1.84l-0.32,1.46
		l1.31,0.77l-5.98,1.79l-0.51,1.08l0.92,0.68l-0.79,1.21l-2.67,1.301l-3.06,0.439l-4.12-1.22l-2.39,0.36l-3.62,2.279l-4.56-1.84
		l-5.81-0.31l-1.34,0.8l-0.17,2.43l-4.79-0.81l-4.77,1.25l-2.03,2.6l-4.15,2.44l-0.25,1.16l-3.85,1.449l-0.61,2.5l-1.79,0.71
		l-2.99-2.149l-4.79-0.13l-1.34,0.91l-0.15-1.141l-5.75-4.649l-3.14,0.81l2.29-2.83l-1.82-3.74l-0.96-0.43l-1.33,0.94l-2.53-0.65
		l-0.61-1.57l-1.6-0.85l-5.46,1.49l-0.4-2.851l1.12-1.46l-0.98-1.93l1.3-0.99l-2.58-2.41l-4.07-0.17l-4.49,1.8l-0.34,1.67l1.38,1.69
		l-0.45,2.4l0.98,1.279l-0.62,0.03l-1.49-1.14l-1.22-3.98L48.27,353l1.15-2.99l-1.46-0.42l2.36-4.34l1.09,0.65l1.25-1.33l-1.3-5.73
		l-2.08-3.47l-1.3-0.46l-0.56-3.38l-3.64-3.15l0.35-0.88l-1.61-3l-3.32-2.85l-0.48-0.971l0.74-1.22l2.89,4.16l0.87-0.391
		l-2.44-2.649l-0.01-2.41l-1.47-0.89l-0.89,1.329l-1.19,0.11l-0.9-4l0.61-1.5l-1-1.18l1.56-0.82l-0.19-1.72l1.81-1.351l2.34,2.62
		l1.91-0.21l4.57-5.89l0.77-3.88l-0.56-4.33l0.84-1.1l-1.69-11.69l-4.25-9.55L33.6,260.9l0,0l1.76,0.72l-0.5-2.75l2.67-2.44
		l-1.2-2.28l3.02-0.36l0.11-3.79l2.45-0.13l2.09,1.85l2.38-1.04l2.61-4.5l1.33-4.32l-0.48-1.83l3.21,3.81l-0.68-3.97l1.93-0.52
		l2.42,3.44l2.57,0.57l1.03,1.61l-0.38,1.13l2.08,1.83l2.35,0.28l0.41,3.9l-2.32,0.74l2.64,1.521l-1.79,1.43L63,257.36l1.31,2.33
		l0.4,4.85l1.48,0.55l-0.98,1.38l1.12,1.14l-0.47,3.66l1.77,0.55l-0.56,1.21l0.89,0.81l-0.95,2.27l1.22,3.11l-1.5,4.28l4.22,1.28
		l1.98-1.93l-0.62,2.78l1.28,0.43l0.74,1.65l4.17,1.52l0.36,5.01l-2.52,1.43l2.41,5.47l-0.49,3.45l1.22,2.5l1.96-1.27l-0.72-2.32
		l0.96-3.37l0.59-0.47l0.74,1.3l3.66-3.16l3.26,0.37l3.02-3.79l1.11,0.03l2.16-2.28l1.75,3.82l-0.66-0.36l-1.67,1.68l-0.87,1.97
		l-1.15-0.57l1.56,7.19l1.39,1.33l-0.05,2.75l2.48,1.04l1.84,2.061l0.1,1.38l1.94,1.03l1.84-0.17l1.67-1.44l1.04,1.61l3.16-0.261
		l2.05-1.569l0.61-2.04l-0.66-3.51l4.48-1.83l1.02,0.569l3.99-1.3l-0.46-1.3l1.27-3.41l2.15-1.25l0.48-1.57l3.18-0.15l1.13-1.28
		l2.27-0.46l-0.25-2.49l1.98-0.7l1.51,1.28l1.35-1.36l3.29,1.95l1.77-0.33l0.33-1.25l1.74-0.68l0.09-2.75l1.62-0.75l0.5,1.51
		l1.02-2.22l-1.23-1.3l0.01-4.92l2.3,1l0.15-3.12l3.12-6.24l6.57,3.05l1.24,1.64l-0.71,2.29l4.11,0.05l0.94,1.43l1.98-0.65
		l1.07,1.35l2.1-0.64l2.3,1.04l-0.4,1.26l1.01,1.52l3.74-3.3l1.36-3.82l3.27-1l0.22-0.85l2.83,0.55l2.34-1.53l3.27,0.29l0.27,1.01
		l2.33,1.01l-0.84,1.32l1.64,1.65l2.15-1.54l0.41-1.93l2.15-0.03l-0.45,0.62l1.1,2l2.18-0.12l0,0l0.5,0.87l-1.78,2.58l1.41-0.25
		l1.37,1.59l-1.15,1.72l-1.55,0.42l0.56,1.03l-1.01,0.08l0.09,1.12l0.79,0.07l-0.01,0.97l-1.17,0.95l-1.25-0.17l0.12,0.75
		l-4.02,2.18l-3.16-2.12l-2.54,1.79l-0.21,3l-5.54-0.16l-1.1,1.55l-1.69-0.75l-3.04,2.14l2.22,6.32l-1.17,0.72l3.16,3.49
		l-0.18,1.779l-4.81-1.14l-1.42,1.6l-1.61-2.17l0.77,2.74l-2.3,0.5l-1.67,2.04l-0.04,4.59l-4.49,6.96l-0.94,0.16l0.58,2.46
		l14.09-0.35l0.81,1.29l4.06,0.08l2.46,1.68l0.21,2.34l1.87,1.65l-0.14,1.189l-2.83-0.25l-3.33,2.03l-1.2,2.1l4.53,0.021l0.09,1.439
		l3.68,1.381l-1.54,2.039l0.31,1.381l0,0L184.49,347.68z"/>
</g>
</svg>
