<?xml version="1.0" encoding="utf-8"?>
<!-- Generator: Adobe Illustrator 15.0.0, SVG Export Plug-In . SVG Version: 6.00 Build 0)  -->
<!DOCTYPE svg PUBLIC "-//W3C//DTD SVG 1.1//EN" "http://www.w3.org/Graphics/SVG/1.1/DTD/svg11.dtd">
<svg version="1.1" id="Layer_1" xmlns:amcharts="http://amcharts.com/ammap"
	 xmlns="http://www.w3.org/2000/svg" xmlns:xlink="http://www.w3.org/1999/xlink" x="0px" y="0px" width="1024px" height="768px"
	 viewBox="0 0 1024 768" enable-background="new 0 0 1024 768" xml:space="preserve">
<defs>
	
	
		<amcharts:ammap  projection="mercator" leftLongitude="24.152855" topLatitude="12.219326" rightLongitude="35.871799" bottomLatitude="3.479946">
		</amcharts:ammap>
</defs>
<g>
	<path id="SS-BN" fill="#1E3250" stroke="#1E3250" stroke-width="0.5" d="M168.308,205.863l5.244,0.391l20.72-7.321l6.565-1.305
		l11.162-0.595l24.602,0.661l9.222,1.076l7.5-0.751l9.058,18.29l49.007-0.173l-0.744-3.579l0,0l2.263-0.144l7.815,3.424l2.667,3.594
		l-3.832,5.331l-1.585-0.423l-4.509,2.407l-1.06,3.031l1.478,2.293l-0.923,0.911l-1.703,0.358l-3.725,3.209l0.234,0.688l0,0
		l-2.101,1.132l-3.407,0.255l-3.84-1.103l-5.367,2.485l-2.671,0.212l-4.384-1.256l-2.124,0.831l-4.822,3.104l-2.143,0.668
		l-1.276-0.419l-0.608-1.224l-0.676-0.204l-0.811,1.088l-1.081,0.204l-0.608-0.408l-2.501,1.02l-0.676-0.137l-0.744-1.087
		l-0.675,0.136l-1.352,1.427l-0.676,0.068l-0.811-1.835l-2.028-0.816l-1.216,1.768l-0.676,0.068l-1.555-1.36l-1.487,1.224
		l-3.514-0.204l-1.189,0.508l-0.974-0.576l-0.473-0.952l-1.082,0.476l-0.54-0.884l0,0l-0.652-0.272l-0.632,0.34l-0.541,1.292l0,0
		l-2.366-1.02l-1.352,1.971l-0.295-0.118l0.636-1.345l-2.392,0.154l-0.257,0.664l-2.429-0.437l-1.045,0.808l-2.364,0.081
		l-2.091,1.666l-0.193,1.067l-2.316,0.631l0.74,0.761l0.289,3.363l1.03,1.47l0.659,2.619l1.593,1.843l0.418,1.342l1.994,1.39
		l-1.59,1.901l0.594,0.987l-0.064,1.034l-1.062,1.744l-2.396,1.891l-5.42-1.696l-2.396,0.097l1.769,3.344l1.801,8.514l4.873,4.15
		l2.164,3.451l-3.609,1.967l0,0l-2.179-0.789l-3.123,0.99l-0.46,0.657l-39.223,19.88l-9.416,6.259l-34.142-21.729l-4.089-13.892
		l-2.046-14.391l0.127-9.861l-1.014-1.291l0.221-4.329l-2.768-1.755l-0.6-12.077l5.34-57.649l0,0l5.261,16.842l5.202,6.257
		L168.308,205.863z"/>
	<path id="SS-BW" fill="#1E3250" stroke="#1E3250" stroke-width="0.5" d="M118.96,144.033l1.284,1.502l-0.195,13.696l3.203,0.91
		l4.585,2.929l1.884,2.796l1.141,2.802l8.54,8.453l0,0l-5.34,57.649l0.6,12.077l2.768,1.755l-0.221,4.329l1.014,1.291l-0.127,9.861
		l2.046,14.391l4.089,13.892l34.142,21.729l9.416-6.259l39.223-19.88l0.46-0.657l3.123-0.99l2.179,0.789l0,0l4.085,20.783
		l-0.588,1.875l0.731,3.163l4.002,4.196l4.656,2.71l2.807,1.062l1.475,2.174l2.1,0.067l2.434,2.207l1.792-0.149l8.006,4.069
		l3.853,4.472l0.618,2.133l-1.091,3.895l0.203,5.012l-1.284,7.38l0.202,1.15l-1.149,1.761l-0.405,2.368l1.127,3.174l0.177,2.507
		l26.715,0.951l0.128,27.642l0,0l-30.209,0.367l-7.371-3.64l-103.016,10.178l0,0l-1.405-0.65l-2.296-2.244l-1.818-0.113
		l-1.133-0.842l-3.45-0.396l-0.354-1.695l-3.402-0.893l0.081-1.058l-2.142-1.56l0.188-0.994l-0.806-0.841l-3.575-0.147l-0.683-0.577
		l-1.287-2.055l0.241-3.373l-0.248-0.28l-1.183,0.511l-0.497-0.654l0.143-0.901l-1.477-0.097l0.951-1.335l-0.665-1.386l0.608-1.352
		l-0.371-1.026l-1.212-0.469l-3.047,0.04l-0.525-2.038l-3.281-0.348l-0.433-1.121l-1.943-0.47l0.842-1.181l-1.18-0.935l-0.933-0.002
		l-0.838-0.687l-3.111-0.254l-0.357-0.265l0.889-1.85l-0.45-0.482l-4.524-0.661l-0.014-1.026l-1.493-0.189l-0.607,0.497
		l-1.304-1.604l-2.379-0.051l-1.181-1.184l-3.375-0.487l-0.138-1.136l-0.513-0.343l-0.639,0.839l-0.668-0.328l0.126-1.15
		l-0.839-0.576l-0.61,0.45l-1.55-1.698l-1.089-0.127l-0.25,0.747l-0.513,0.031l-0.435-0.607l-1.028,0.48l-0.92-1.247l-0.742,0.312
		l-0.076-1.571l-0.934,0.232l-2.284-2.025l-0.996,0.59l-0.777-1.12l-1.135-0.266l-1.658-5.229l-0.871-0.358l-0.918,0.294
		l-0.217-0.84l-1.586-1.185l0.266-0.56l-0.793-0.981l-0.359,0.529l-2.131-0.313l-0.839-0.811l-1.758-0.328l-0.199-3.189
		l-0.698-1.697l-0.886-0.576l0.093-0.653l2.383-1.243l0.25-0.809l1.182-0.062l0.344-0.699l1.322-0.03l2.118-1.196l0.08-1.603
		l1.074-0.186l0.032-0.482l-1.694-1.729l0.437-1.058l-0.373-0.747l0.811-1.432l-0.245-3.657l-1.525,0.014l-0.03-0.887l-2.487-2.991
		l0.078-0.748l-1.183,0.046l-2.255-2.431l-5.87,1.303l-2.333-2.96l-5.881-3.818l-1.046-2.271l-3.407-2.332l-1.155-5.835
		l-1.621-2.909l-0.779-0.217l-0.497,0.451l-0.95-0.933l-4.764,0.486l-1.465-1.711l-2.522,0.143l-1.387-0.871l-2.351-0.449
		l-6.288,1.488l-2.571-1.272l-0.858-1.073l-0.669,0.079l-1.205-2.55l-4.143-0.366l-2.889,1.984l-1.483-0.34l-0.75-0.994l-2.584,0.38
		l-4.332-1.359l-2.2-1.255l-3.393-4.475l0.681-6.295l0.525-1.279l4.193-5.046l2.465-2.233l-1.727-1.463l-0.815-1.464l1.733-3.212
		l7.133-6.172l9.11-4.622l3.002-4.323l2.525-2.294l0.324-2.058l-2.012-6.772l3.295-13.645l1.925-3.507l-1.093-4.511l8.66-6.467
		l1.492-3.319l-0.027-3.15l-0.703-2.49l-0.021-5.991l-0.797-2.352l1.741-1.925l1.757-4.293l3.312-1.158l5.474-3.953l3.245-4.363
		l1.689-4.636l1.961-3.683v-1.637l-0.879-1.91v-2.456l3.846-7.666l3.994-1.614l1.825,0.205l5.475-1.229l2.298,0.819l3.717-0.273
		l1.216-0.682l2.434-0.205l3.447-1.092l3.582,0.068l9.665-2.935l5.204-0.615l3.988,0.068l1.014-0.819l4.732-1.092l3.175,1.024
		L118.96,144.033z"/>
	<path id="SS-EC" fill="#1E3250" stroke="#1E3250" stroke-width="0.5" d="M415.032,436.375l15.679-0.285l6.035-10.798l27.562,23.389
		l13.064-0.888l24.319,2.577l7.4,4.154l0.292-2.688l1.355-0.037l0,0l27.381,0.349l0,0l-1.131,43.58l4.834,17.139l-0.646,11.051
		l4.337,12.372l-3.066,3.348l-5,1.731l-2.446,2.302l0.163,15.306l-4.719,6.854l0.196,3.395l-0.711,0.521l-0.473,2.064l-1.875-0.781
		l-6.794,3.201l-6.285,0.336l-2.912,2.976l5.497,11.301l0,0l-0.505,0.556l0.362,1.051l-3.906,3.029l-1.139,0.302l-1.243,1.828
		l-8.891,2.807l-3.924,2.969l-1.081-0.393l0.414-2.175l-10.509-5.147l-4.213-2.919l-8.447-0.037l-0.872,1.121l-3.241,1.845
		l-0.293,0.948l-1.656-0.508l-0.689,0.226l-0.478,0.466l0.125,0.941l-2.042,1.518l-0.703,0.239l-1.31-1.054l-1.577,0.73l-0.677,1.67
		l-0.784,0.3l-0.531,1.022l0.081,1.364l-0.669,0.944l-0.845,0.218l-0.381,1.104l-0.782,0.322l-1.439,2.67l-1.758,4.766l0.59,0.299
		L453.551,612l-0.599-0.387l-0.506-1.477l1.078-3.685l-4.238-1.838l-0.918-2.034l-0.122-2.416l-0.844-1.219l-1.104,0.554
		l-1.391,2.837l-1.055,0.247l-3.482-1.062l-5.104,2.835l-2.25-0.117l-0.158-0.696l1.258-2.343l0.677-2.627l-1.038-6.204
		l-1.152-3.293l0.084-2.503l-0.483-0.644l-1.772-0.069l-1.85,0.833l-1.364-0.176l-1.905-1.669l-2.265,0.155l-1.634-1.791
		l-2.304-0.422l-1.764-1.092l-1.857-0.001l-1.736-1.704l-3.447,1.273l-1.396-1.775l-0.06-2.93l-2.872-3.209l-0.195-2.825
		l-1.987-1.105l-3.203,0.046l-1.997-2.265l-0.758-2.854l-3.436-2.543l-2.662-0.545l-0.26-0.467l1.318-2.409l-1.47-2.521
		l-3.287-2.114l-3.617,0.642l-2.791-2.126l-0.186-4.636l0.691-3.639l-0.86-1.199l1.873-1.91l0.24-1.006l-0.867-0.672l0,0
		l4.312-3.076l4.703-2.571l8.058-0.26l8.829-3.842l2.249,0.013l4.365,1.444l7.086,5.348l1.819-0.36l5.565-3.766l0.72-2.343
		l0.211-4.476l1.213-2.186l2.007-1.038l7.961-2.427l7.546-5.609l3.174-0.384l2.332-3.756l0.76-3.979l-0.761-1.549l0.583-5.402
		l-1.271-3.992l1.515-12.197l6.469-0.181l0.613-10.877l-22.94-12.432L415.032,436.375z"/>
	<path id="SS-EE" fill="#1E3250" stroke="#1E3250" stroke-width="0.5" d="M739.663,460.472l1.979,3.202l-0.243,4.21l12.096,8.364
		l0.271,2.605l-0.927,2.186l-0.37,2.868l1.017,3.39l2.335-0.017l1.669-0.981l3.188-0.837L765.62,482l3.628-0.432l3.064,0.203
		l5.207,2.256l5.725,0.76l1.495,1.2l4.475,1.363l1.726,1.151l0.341,0.835l-0.437,1.235l-1.735,1.545l-0.333,0.872l0.111,1.364
		l0.824,1.702l1.122,0.915l0.352,1.651l-0.22,1.051l-2.734,3.046l-0.434,1.16l0.09,6.247l-1.541,17.68l5.654,7.016l-5.226,0.063
		l-0.572-3.134l-1.22-0.608l-2.035,1.014l-2.112,2.955l-8.188-0.061l-5.27-9.408l-1.257-0.932l1.076-2.156l1.11-7.326l0.312,0.121
		l0.902-2.865l-7.936,1.015l1.425-7.709l-2.239-0.202l-3.864,3.448l-3.458,1.826l-2.512,0.166l-22.556,8.196l-37.662,15.799
		l-25.641,24.805l1.733,1.341l-1.066,0.987l-0.961-0.882L632.8,593.526l-22.688-1.604l-10.21-7.73l-8.556,5.25l-12.229,3.216
		l-20.61,1.493l-14.741,9.765l0.805,0.57l0.599,1.869l-0.648,0.961l-0.552,2.89l-7.829-1.735l0.276-1.08l-0.43,0.032l-0.064-0.703
		l0.323-0.239l-1.634-1.102l-0.597-0.995l-6.406,1.453l-0.436-3.856l0.587-1.275l-0.196-0.786l-5.924-8.4l-3.065-2.394l-1.482-0.284
		l0,0l-5.497-11.301l2.912-2.976l6.285-0.336l6.794-3.201l1.875,0.781l0.473-2.064l0.711-0.521l-0.196-3.395l4.719-6.854
		l-0.163-15.306l2.446-2.302l5-1.731l3.066-3.348l-4.337-12.372l0.646-11.051l-4.834-17.139l1.131-43.58l0,0l76.23,0.419
		l47.055,7.248l13.566,1.155l58.217-18.282l0,0l-0.828,2.655l0.655,2.011l-0.431,1.968l3.741,5.255L739.663,460.472z"/>
	<path id="SS-EW" fill="#1E3250" stroke="#1E3250" stroke-width="0.5" d="M152.772,398.605l103.016-10.178l7.371,3.64l30.209-0.367
		l0,0l0.223,17.303l0,0l-2.163,0.179l0.204,3.922l2.398,3.468l0.059,0.772l-1.983,1.939l-0.348,2.593l0.305,1.081l3.236,2.326
		l1.227,2.689l2.135,8.712l0.923,0.897l4.229,0.693l1.601,1.702l2.392,5.686l7.448,8.2l7.621,2.492l3.39,2.541l0.859,1.76
		l39.31,3.549l-0.885-3.518l0.255-2.622l1.866-3.788l2.31-7.829l-0.119-1.266l0.809-1.786l1.298-0.336l3.53-2.643l4.894-4.244
		l0.466-1.017l-0.393-2.47l-0.799-1.3l1-3.547l0.075-4.075l-1.805-5.316l0.404-1.173l24.185-0.061l1.836,7.842l3.656,7.293
		l-0.761,4.049l6.776-0.024l0,0l24.608,22.933l22.94,12.432l-0.613,10.877l-6.469,0.181l-1.515,12.197l1.271,3.992l-0.583,5.402
		l0.761,1.549l-0.76,3.979l-2.332,3.756l-3.174,0.384l-7.546,5.609l-7.961,2.427l-2.007,1.038l-1.213,2.186l-0.211,4.476
		l-0.72,2.343l-5.565,3.766l-1.819,0.36l-7.086-5.348l-4.365-1.444l-2.249-0.013l-8.829,3.842l-8.058,0.26l-4.703,2.571
		l-4.312,3.076l0,0l-1.858-0.075l-1.061-1.31l-1.974,0.81l-2.104-3.067l-6.307-3.003l-1.308,0.86l-1.468-0.955l-1.194,0.179
		l-0.184-0.436l-1.943,0.778l-1.753-2.353l-0.954,1.22l-1.539,0.579l0.684,4.749l-2.185,2.234l-0.108,2.372l-1.97,2.731l-3.42,1.468
		l-1.342,4.054l-1.139,1.124l-1.739,0.378l-2.179-0.943l-1.15,0.442l0.426,1.382l-0.49,1.424l-1.987,0.562l-0.775-0.129l-1.014-1.4
		l-3.81-3.153l0.038-1.225l-3.812-0.301l0.196-1.61l-2.216-0.246l-0.889-1.756l-1.686-0.692l-2.301,1.166l-4.263-0.147l-0.653,0.43
		l-2.288-1.128l-0.78,0.739l-1.846,0.207l-1.591-1.124l-0.062-2.775l-1.277-1.79l-2.364,1.43l-2.638,0.327l0.306,0.808l-0.485,0.695
		l-1.443,0.41l0.535,1.367l-2.318,4.298l-2.421,0.576l-1.642-0.226l-1.688,2.688l-1.75-0.272l-2.778,0.638l-1.656,2.456
		l-0.132,1.472l-1.087,0.521l-0.657,1.191l-3.105,0.914l-1.345-0.55l-1.18,0.289l-0.493-0.498l-0.079-2.79l-1.016-1.694l-1.055,0.32
		l-1.16-0.548l-3.348-0.048l-1.042,0.817l-3.532-0.404l-1.743-1.868l-2.924-1.253l0.721-1.811l-0.708-1.026l-0.683,0.307
		l-0.943-0.64l-0.499,0.556l-1.023,0.12l-0.098,0.883l-0.606,0.478l-1.095-2.396l-1.244-0.509l-0.586-1.604l0.672-4.726
		l-1.488,0.164l-3.006-0.68l-0.404,0.37l-2.041-1.219l-0.613,1.626l-4.184-0.267l-1.644-1.698l-0.735-0.112l-0.056-0.679
		l-1.012-0.16l-0.43-0.854l-1.181,0.46l-0.65-0.267l0.149-2.123l-0.884-3.757l0.018-0.558l1.027-0.864l-0.068-2.078l-1.444-3.309
		l-0.65-0.375l-2.886,0.345l-0.802-1.104l0.515-0.664l-1.305-3.309l-2.21-2.025l-3.784-0.139l-1.429,0.537l-1.482-1.696
		l-1.332-0.563l-0.879-1.555l-0.441-2.204l-1.208-0.424l-2.69-2.522l-0.46-1.181l0.04-2.42l-3.339-3.177l-0.627-2.268l-2.477-1.639
		l-0.663-1.119l-1.783-0.395l-1.545-1.944l-0.55-2.392l-1.191-0.997l-1.773-3.266l-0.212-1.366l0.779-0.959l-1.175-1.323
		l-0.455-3.091l1.712-5.395l1.217-1.579l-0.317-2.438l0.781-1.395l-1.611-0.905l-1.463,0.786l-0.507-1.477l0.458-2.202l-1.654-1.807
		l0.33-1.194l-1.978-2.677l-2.929-1.47l1.276-0.834l-0.232-0.389l-2.732-0.537l-0.058-1.181l-0.777,0.417l-0.261-0.948l-1.6,0.243
		l-0.546,0.729l-0.697-0.546l-0.731,0.277l-0.213-1.228l-1.69-0.813l0.191-1.148l-0.651-0.731l-1.286-0.672l-2.581,0.706
		l-2.044-1.497l-0.85-1.586l-1.662,0.088l-1.228,0.664l-2.095-0.705l-0.619-0.747l-0.314-3.93l-1.206-1.712l-0.762,0.262
		l-0.448-0.67l-1.568-0.346l-1.193-0.981l-2.16,0.49l-1.054-0.748l-1.398-0.128l-1.928,0.941l-2.359-0.798l-0.992-0.889
		l-1.709,0.229l-1.349-0.454l-0.54-1.585l-0.884-0.484l-0.506-2.533l-0.852-0.949l-2.193,0.864l-1.386,1.456l-0.699,0.123
		l-0.353-1.585l0.579-1.412l3.423-2.307l1.622-2.48l0.113-1.383l-1.195-0.764l-1.959,0.803l-1.099-1.525l0.209-2.719l-2.591-1.498
		l-3.555-0.862l-2.774-3.021l-3.088-2.073l-0.261-0.964l1.465-1.877l-1.024-0.764l0.531-1.258l-0.325-0.389l-1.15,0.199l0.72-2.128
		l2.005-0.274l-0.432-0.965l1.046-1.878l0.934-0.682l0.206-1.693l1.959-0.244l-0.013-1.088l1.932-1.954L152.772,398.605z"/>
	<path id="SS-JG" fill="#1E3250" stroke="#1E3250" stroke-width="0.5" d="M443.405,359.679l-1.306-1.101l-0.879-3.046l-1.824-1.76
		l0.066-3.317l-0.607-1.692l-2.434-2.234l-0.474-1.896l-1.689-0.542l-0.067-1.422l-1.825-1.083l-0.405-1.354l1.58-0.208l0.178-2.569
		l-1.082-2.167l-2.298-1.423l0.271-1.626l-2.163-1.896l1.081-1.22l-0.135-4.742l2.096-1.694l-0.541-1.22l1.217-0.881l-1.622-0.543
		l0.946-1.22l-1.623-0.745l-0.338-2.779l-0.811-0.609l-0.203-1.492l-3.108-4.339l-1.284-0.61l-0.068-0.542l0.879-0.476l-2.974-4.067
		l-0.608-3.527l-0.946-0.474l-1.225,0.769l-0.397-1.448l-1.217,1.018l-0.405-0.136l-1.149-3.052v-3.256l1.758-1.086l-0.271-0.678
		l-0.879-0.068l-0.067-0.679l1.487-0.814l0.271-0.678l-1.42-1.832l0.136-0.678l1.148-0.272l0.067-0.407l-1.352-4.886l1.758-1.086
		l1.216-3.937l-0.473-0.951l-1.825-0.339l-0.202-1.969l-1.893-0.475l-0.608-1.698l-1.217-1.086l0.879-2.444l-0.541-0.204
		l-0.541,0.815v-0.883l1.149-3.056l1.419-1.358l0.338-1.087l-0.676-1.155l-1.96-0.339l-2.771-3.261l-0.068-1.291l1.42-1.359
		l0.135-1.155l-1.352-0.612l-0.135-3.805l-1.69-2.582l0.608-2.515l-1.689-2.583l-0.135-1.156l0.811-1.496l2.23-0.68l0.473-1.699
		l1.082-0.341l0.811-2.039l1.082-0.136l0.539-0.816l1.084-0.34l-0.068-2.041l0.946-2.788l2.095-0.748l-0.135-1.565l1.352-1.02
		l0.135-0.749l-1.014-2.313l0.541-1.361l-0.541-1.292l-1.419-0.408l-0.879-2.586l2.23-0.817l0.946-2.79l2.163-1.634l0.743-2.518
		l2.771-1.43l0.878-1.021l0.671,0.726l1.368-0.634l0.097-1.231l3.828,1.296l9.487,0.389l3.307,2.133l0.215-2.921l0.812,0.106l0,0
		l2.385-0.069l1.758,0.545l1.419-0.545l3.109,0.681l3.177-1.225l1.486,0.068l3.921,1.77l0,0l1.216,0.136l1.284,1.566l0,0
		l4.619,3.212l29.56,11.225l8.137-0.78l0.512,0.987l0.083,4.22l2.927,4.589l1.036,0.484l0.32,0.71l0.699,3.591l1.589,2.338
		l-0.564,2.426l0.207,1.611l1.449,1.099l1.258,3.334l1.234,1.474l0.115,1.703l1.683,2.306l4.128,3.206l3.647,3.597l7.281-8.378
		l11.378-6.399l2.793-3.941l15.177,5.773l8.178,30.893l19.078,10.889l-6.34,20.285l13.626,0.017l0,0l0.236,0.664l-0.533,0.904
		l-1.775,1.411v1.648l0.782,1.844l-0.821,0.628l2.891,4.583l0.391,1.656l2.331-0.347l0.257-0.519l1.383,1.427l3.82-1.112
		l3.481,1.646l1.448-0.156l2.905,2.164l0.929-0.281l1.699,2.671l1.511-0.346l0.604-0.822l0.561,0.26l0.984-0.704l1.096,0.157
		l2.778-1.608l1.096,0.784l1.114-0.478l1.779,1.113l1.639-0.086l1.727,1.903l2.685,1.155l1.284-1.285l0.9,0.259l0.694-0.409
		l0.912,1.088l2.438-0.031l1.484,2.18l1.733,0.585l1.149,1.612l2.758,1.612l1.035-0.058l2.758,2.476l2.528,3.397l1.092,0.403
		l1.091-0.403l2.979,1.06l-0.168,2.322l0.774,0.325l0.075,1.077l1.825,0.752l3.276,5.561l-0.025,5.334l-0.4,0.626l-1.125-0.251
		l0.101,0.676l2.175,2.604l2.2,0.751l1.051,0.926l0.475,1.152l1.986,0.284l1.112,1.286l1.398-0.015l1.811,1.279l0.058,5.591
		l1.504,0.584l1.12,2.085l1.593-0.416l4.525,3.25l4.101,0.658l6.829,4.028l3.133,4.164l0.357,6.086l1.705,0.883l3.498,0.468
		l1.088-1.107l3.522,3.163l1.801,0.384l0.518,2.191l4.938,5.448l1.189-1.108l2.596,0.078l0.794-0.605l2.202,0.78l-0.288,1.301
		l1.4,0.388l2.311,1.679l1.121,2.886l1.904,0.983l1.511,1.685l0.486,1.306l-0.731,2.878l-1.111,1.079l-0.104,5.917l-2.287,2.091
		l-0.146,1.069l1.153,3.45l0.198,3.143l-0.743,2.327l0.501,2.011l1.799,2.455l0.529,4.061l0,0l-58.217,18.282l-13.566-1.155
		l-47.055-7.248l-76.23-0.419l0,0l-27.381-0.349l0,0l-1.796-2.723l-0.879-2.497l-0.541-0.338l-1.148,0.271l-1.217-1.553
		l-2.568-7.427l-3.38-4.051l-1.081-4.862l-1.555-2.634l-0.541-3.58l-0.946-2.297l-1.689-1.621l-3.108-4.729l-0.608-3.514
		l-0.879-1.486l-3.244-1.893l-1.149-6.218l-1.352-1.352l-0.611-1.761l-1.619-1.619l-0.722-2.316l-3.536-2.687l-1.081-1.217
		l-0.406-1.488l-4.055-2.84l-1.353-1.623l-1.487-0.676l-1.013-2.57l-2.771-1.015l-1.622-1.149l-1.893-0.339l-2.095-2.57
		l-1.961-0.812l-0.607-0.812l-3.921-1.218l-0.742-1.962l-1.488-1.354l-0.676-2.571l-2.365-0.879l-1.419-2.233l-1.961-1.286
		L443.405,359.679z"/>
	<path id="SS-LK" fill="#1E3250" stroke="#1E3250" stroke-width="0.5" d="M374.886,318.578l15.451,1.991l3.457,10.139l17.42,37.598
		l20.564,1.882l5.409-8.934l6.218-1.575l0,0l0.248,2.621l1.961,1.286l1.419,2.233l2.365,0.879l0.676,2.571l1.488,1.354l0.742,1.962
		l3.921,1.218l0.607,0.812l1.961,0.812l2.095,2.57l1.893,0.339l1.622,1.149l2.771,1.015l1.013,2.57l1.487,0.676l1.353,1.623
		l4.055,2.84l0.406,1.488l1.081,1.217l3.536,2.687l0.722,2.316l1.619,1.619l0.611,1.761l1.352,1.352l1.149,6.218l3.244,1.893
		l0.879,1.486l0.608,3.514l3.108,4.729l1.689,1.621l0.946,2.297l0.541,3.58l1.555,2.634l1.081,4.862l3.38,4.051l2.568,7.427
		l1.217,1.553l1.148-0.271l0.541,0.338l0.879,2.497l1.796,2.723l0,0l-1.355,0.037l-0.292,2.688l-7.4-4.154l-24.319-2.577
		l-13.064,0.888l-27.562-23.389l-6.035,10.798l-15.679,0.285l0,0l-6.776,0.024l0.761-4.049l-3.656-7.293l-1.836-7.842l-24.185,0.061
		l-0.404,1.173l1.805,5.316l-0.075,4.075l-1,3.547l0.799,1.3l0.393,2.47l-0.466,1.017l-4.894,4.244l-3.53,2.643l-1.298,0.336
		l-0.809,1.786l0.119,1.266l-2.31,7.829l-1.866,3.788l-0.255,2.622l0.885,3.518l-39.31-3.549l-0.859-1.76l-3.39-2.541l-7.621-2.492
		l-7.448-8.2l-2.392-5.686l-1.601-1.702l-4.229-0.693l-0.923-0.897l-2.135-8.712l-1.227-2.689l-3.236-2.326l-0.305-1.081
		l0.348-2.593l1.983-1.939l-0.059-0.772l-2.398-3.468l-0.204-3.922l2.163-0.179l0,0l19.53,6.95l7.261-0.965l3.937-4.373l2.671-4.439
		l0.239-7.198l-0.933-7.759l-7.597-19.562l11.588-20.938l29.39-34.12L374.886,318.578z"/>
	<path id="SS-NU" fill="#1E3250" stroke="#1E3250" stroke-width="0.5" d="M579.371,19.116l39.338,1.111l-3.1,3.801L611.37,51.84
		l-3.99,10.905l11.337,52.556l-4.002,7.189l15.668,5.144l12.541,14.932l8.152,5.727l6.441,11.319l4.839,0.035l1.096,2.881
		l-0.315,2.245l1.497,5.116l-0.204,3.798l0.369,2.11l-2.384,9.42l-2.425,3.48l-2.29,6.771l-0.206,3.576l0.761,3.533l0.042,3.509
		l14.356-0.201l2.062,21.501l0.679,14.246l-0.353,12.989l0.337,6.884l-0.161,3.996l-1.415,2.436l-1.673,1.702l-1.752,0.535
		l-2.527,2.155l-0.856,1.469l-5.024-0.61l-3.229,1.165l-1.135,1.379l-0.29,1.622l-2.499,0.374l-1.795,2.107l-2.787,2.052
		l-1.56-0.361l-1.615,0.748l-1.685-0.582l-1.188-2.273l-0.192-2.356l-4.062-1.896l-1.528,1.502l-1.455-0.059l-0.944-1.421
		l-4.312-0.183l-3.398,2.264l-1.625-0.601l-1.922,1.555l-1.549-0.502l-0.375-0.685l-3.14-0.542l-0.444-0.709l-1.23,1.544l-1.43-1.08
		l-1.755,0.586l-0.979,1.439l-1.139-0.653l-0.051,1.655l-1.609,0.077l-0.238,1.83l0.287,1.949l1.562-0.275l-0.115,0.904
		l-0.285,0.481l-1.255,0.134l0.655,1.822l-0.449,0.552l-1.693,0.131l0.377,2.812l0.313,0.437l1.217,0.034l0.297,0.932l-0.811,1.572
		l-1.675,1.089l1.237,2.333l0.14,2.487l-0.904-0.246l-0.953,1.123l-2.615,0.261l-0.095,2.982l-0.952-0.859l-1.271,0.026
		l-0.558,3.421l-2.111,0.684l-0.667,0.654l-0.244,1.414l0,0l-13.626-0.017l6.34-20.285l-19.078-10.889l-8.178-30.893l-15.177-5.773
		l-2.793,3.941l-11.378,6.399l-7.281,8.378l-3.647-3.597l-4.128-3.206l-1.683-2.306l-0.115-1.703l-1.234-1.474l-1.258-3.334
		l-1.449-1.099l-0.207-1.611l0.564-2.426l-1.589-2.338l-0.699-3.591l-0.32-0.71l-1.036-0.484l-2.927-4.589l-0.083-4.22l-0.512-0.987
		l-8.137,0.78l-29.56-11.225l-4.619-3.212l0,0l-0.946-1.361l-1.554-0.341l0,0l-3.921-1.77l-1.486-0.068l-3.177,1.225l-3.109-0.681
		l-1.419,0.545l-1.758-0.545l-2.385,0.069l0,0l1.223-16.52h0.702l0,0l2.844,2.54l4.937-2.204l24.628,0.017l5.407-2.023
		l13.466-17.049l17.215-19.38l2.855-3.927l10.271-18.103l11.09-6.93l21.076-20.283l-3.887-6.541l-1.277-5.012l-0.221-34.041
		l-14.782-14.534l37.149-0.042l-0.136-2.882l1.622-3.227l0.248-2.688l-1.464-5.071l0.135-6.458L579.371,19.116z"/>
	<path id="SS-UY" fill="#1E3250" stroke="#1E3250" stroke-width="0.5" d="M389.433,150.904l1.9,0.461l3.709-0.082l29.669,18.416
		l11.264,6.472l12.626,11.951l0,0h-0.702l-1.223,16.52l0,0l-0.812-0.106l-0.215,2.921l-3.307-2.133l-9.487-0.389l-3.828-1.296
		l-0.097,1.231l-1.368,0.634l-0.671-0.726l-0.878,1.021l-2.771,1.43l-0.743,2.518l-2.163,1.634l-0.946,2.79l-2.23,0.817l0.879,2.586
		l1.419,0.408l0.541,1.292l-0.541,1.361l1.014,2.313l-0.135,0.749l-1.352,1.02l0.135,1.565l-2.095,0.748l-0.946,2.788l0.068,2.041
		l-1.084,0.34l-0.539,0.816l-1.082,0.136l-0.811,2.039l-1.082,0.341l-0.473,1.699l-2.23,0.68l-0.811,1.496l0.135,1.156l1.689,2.583
		l-0.608,2.515l1.69,2.582l0.135,3.805l1.352,0.612l-0.135,1.155l-1.42,1.359l0.068,1.291l2.771,3.261l1.96,0.339l0.676,1.155
		l-0.338,1.087l-1.419,1.358l-1.149,3.056v0.883l0.541-0.815l0.541,0.204l-0.879,2.444l1.217,1.086l0.608,1.698l1.893,0.475
		l0.202,1.969l1.825,0.339l0.473,0.951l-1.216,3.937l-1.758,1.086l1.352,4.886l-0.067,0.407l-1.148,0.272l-0.136,0.678l1.42,1.832
		l-0.271,0.678l-1.487,0.814l0.067,0.679l0.879,0.068l0.271,0.678l-1.758,1.086v3.256l1.149,3.052l0.405,0.136l1.217-1.018
		l0.397,1.448l1.225-0.769l0.946,0.474l0.608,3.527l2.974,4.067l-0.879,0.476l0.068,0.542l1.284,0.61l3.108,4.339l0.203,1.492
		l0.811,0.609l0.338,2.779l1.623,0.745l-0.946,1.22l1.622,0.543l-1.217,0.881l0.541,1.22l-2.096,1.694l0.135,4.742l-1.081,1.22
		l2.163,1.896l-0.271,1.626l2.298,1.423l1.082,2.167l-0.178,2.569l-1.58,0.208l0.405,1.354l1.825,1.083l0.067,1.422l1.689,0.542
		l0.474,1.896l2.434,2.234l0.607,1.692l-0.066,3.317l1.824,1.76l0.879,3.046l1.306,1.101l0,0l-6.218,1.575l-5.409,8.934
		l-20.564-1.882l-17.42-37.598l-3.457-10.139l-15.451-1.991l0,0l-3.185-39.014l-24.273-16.432l-13.335-26.038l-26.329,0.142l0,0
		l-0.234-0.688l3.725-3.209l1.703-0.358l0.923-0.911l-1.478-2.293l1.06-3.031l4.509-2.407l1.585,0.423l3.832-5.331l-2.667-3.594
		l-7.815-3.424l-2.263,0.144l0,0l3.055-5.42l9.02-8.063l6.441-8.574l3.093-1.056l30.703-0.608l-0.112-22.599l24.192-12.624
		L389.433,150.904z"/>
	<path id="SS-WR" fill="#1E3250" stroke="#1E3250" stroke-width="0.5" d="M307.764,237.236l26.329-0.142l13.335,26.038
		l24.273,16.432l3.185,39.014l0,0l-15.209-1.979l-29.39,34.12l-11.588,20.938l7.597,19.562l0.933,7.759l-0.239,7.198l-2.671,4.439
		l-3.937,4.373l-7.261,0.965l-19.53-6.95l0,0l-0.223-17.303l0,0l-0.128-27.642l-26.715-0.951l-0.177-2.507l-1.127-3.174l0.405-2.368
		l1.149-1.761l-0.202-1.15l1.284-7.38l-0.203-5.012l1.091-3.895l-0.618-2.133l-3.853-4.472l-8.006-4.069l-1.792,0.149l-2.434-2.207
		l-2.1-0.067l-1.475-2.174l-2.807-1.062l-4.656-2.71l-4.002-4.196l-0.731-3.163l0.588-1.875l-4.085-20.783l0,0l3.609-1.967
		l-2.164-3.451l-4.873-4.15l-1.801-8.514l-1.769-3.344l2.396-0.097l5.42,1.696l2.396-1.891l1.062-1.744l0.064-1.034l-0.594-0.987
		l1.59-1.901l-1.994-1.39l-0.418-1.342l-1.593-1.843l-0.659-2.619l-1.03-1.47l-0.289-3.363l-0.74-0.761l2.316-0.631l0.193-1.067
		l2.091-1.666l2.364-0.081l1.045-0.808l2.429,0.437l0.257-0.664l2.392-0.154l-0.636,1.345l0.295,0.118l1.352-1.971l2.366,1.02l0,0
		l0.811-1.632l1.014,0.272l0,0l0.54,0.884l1.082-0.476l0.473,0.952l0.974,0.576l1.189-0.508l3.514,0.204l1.487-1.224l1.555,1.36
		l0.676-0.068l1.216-1.768l2.028,0.816l0.811,1.835l0.676-0.068l1.352-1.427l0.675-0.136l0.744,1.087l0.676,0.137l2.501-1.02
		l0.608,0.408l1.081-0.204l0.811-1.088l0.676,0.204l0.608,1.224l1.276,0.419l2.143-0.668l4.822-3.104l2.124-0.831l4.384,1.256
		l2.671-0.212l5.367-2.485l3.84,1.103l3.407-0.255L307.764,237.236z"/>
</g>
</svg>
