<?xml version="1.0" encoding="utf-8"?>
<!-- Generator: Adobe Illustrator 15.0.0, SVG Export Plug-In . SVG Version: 6.00 Build 0)  -->
<!DOCTYPE svg PUBLIC "-//W3C//DTD SVG 1.1//EN" "http://www.w3.org/Graphics/SVG/1.1/DTD/svg11.dtd">
<svg version="1.1" id="Layer_1" xmlns:amcharts="http://amcharts.com/ammap"
	 xmlns="http://www.w3.org/2000/svg" xmlns:xlink="http://www.w3.org/1999/xlink" x="0px" y="0px" width="724.5px" height="636.5px"
	 viewBox="0 0 724.5 636.5" enable-background="new 0 0 724.5 636.5" xml:space="preserve">
<defs>
	
	
		<amcharts:ammap  projection="mercator" leftLongitude="21.838566" topLatitude="23.146564" rightLongitude="38.584046" bottomLatitude="8.675690">
		</amcharts:ammap>
</defs>
<g>
	<path id="SD-DE" fill="#1E3250" stroke="#1E3250" stroke-width="0.5" d="M135.787,435.367l2.742-0.539l1.332,0.78l3.287-0.159
		l4.144,0.373l0.873-0.46l1.159,0.036l1.048,0.818l2.185-0.118l0.209,0.267l-0.242,2.692l0.592,1.183l5.706,2.774l1.409,1.18
		l3.345,0.127l9.582,11.479l0.134,0.648l-0.091,1.886l-0.303,0.573l-2.984-0.338l-0.967,0.879l-0.722,0.269l-1.806-0.454
		l-1.082,1.031l-0.227,0.438l2.668,3.557l0.29,2.17l1.731,0.929l1.368,0.073l-0.13,1.105l1.412,3.004l3.936,1.229l0.154,0.818
		l1.218,1.044l-0.093,1.084l6.225,4.412l8.906,1.232l3.586,1.013l4.408,2.94l1.259,0.539l1.292-0.067l2.8-1.087l4.038-0.908
		l4.495,0.056l2.215,0.569l3.072,2.327l0,0l1.568,21.459l2.345,9.273l23.48,56.545l0,0l-4.529,0.453l-5.568-0.648l-14.855-0.399
		l-6.74,0.358l-3.964,0.789l-12.51,4.42l-3.167-0.236l-11.136-3.407l-3.141-3.778l-3.177-10.169l-5.156-5.104l-0.689-1.692
		l-1.138-1.688l-2.768-1.769l-1.934-0.549l0.118-8.27l-1.021-1.237l-2.325-0.824l0,0l-1.283-11.406l-2.016-8l-4.113-12.38l-4-5.704
		l4.703-1.954l1.562-3.06l-9.449-4.711l-12.849-9.724l-8.913-8.192l0.149-6.454l15.289-1.403l2.052-1.25l1.346-1.699l-0.178-2.189
		L135.787,435.367z"/>
	<path id="SD-DC" fill="#1E3250" stroke="#1E3250" stroke-width="0.5" d="M57.819,415.263l3-0.981l4.667-3.716l1.583-0.193
		l1.531,1.124l0.59-0.014l1.931,1.205l0.311-0.608l1.392-0.196l1.67,0.609l0.044,1.376l-0.509,1.274l0.221,0.729l-0.508,1.294
		l0.816,0.294l0.93,0.239l0.808-0.756l-0.003-3.438l1.798,1.127l0.63,1.726l1.662,1.411l3.471-0.479l3.787,0.325l1.31-0.383
		l0.895,0.648l-1.722,0.961l2.124,0.778l0.249,0.803l2.78,2.92l1.157-1.149l4.923,0.315l0.696-3.539l9.079-2.487l2.699,0.167
		l4.92-0.507l1.182,1.451l-3.845,6.663l-2.107,1.246l-1.403,1.341l-1.14,0.442l-1.577,0.021l-1.728,0.73l0,0l-1.478,1.99
		l-0.392,3.668l-1.324,3.077l-4.168,5.983l-4.533,4.606l4.96,9.771l1.714,1.654l0.98,5.445l-0.43,3.562l-1.292-0.017l-0.915-1.141
		l-4.635,0.505l-0.797,0.877l-3.322,1.567l0.001,0.8l-0.814,1.41l-0.648-0.951l-0.873,0.25l-2.274-0.055l0.369,1.087l-1.106,0.179
		l-2.627,1.683l-1.24,0.195l-0.622,1.152l-1.636,0.687l-1.577,2.443l-0.124,3.351l-1.266,7.572l1.192,9.006l-6.487,8.535l-2.614,1.6
		l-19.836,20.026l0,0l-0.998-0.703l-0.908-2.205l-2.233-2.811l-0.034-0.673l-1.445-1.327l-0.328-0.938l4.442-11.658l-0.163-3.991
		l-1.174-0.656l-0.328-4.353l-6.378,0.582l-0.05-1.455l-1.37-1.521l-3.757-1.672l-3.92-4.353l-0.466-3.041l3.444-14.653
		l-0.166-0.418l-0.979,0.305l-2.044-0.079l0,0l2.736-1.819l0.357-1.402l1.306-1.108l0.436-1.572l0.48-0.395l0.606-1.514l1.117-1.281
		l-1.278-3.437l-0.922-1.131l0.218-4.505l-0.913-2.009l-0.194-1.468l-0.846-1.17l-0.889-2.407l0.027-0.686l8.4-7.57l1.023-1.324
		l0.518-0.299l0.721,0.293l0.506-1.101l-0.409-1.033l0.052-1.258l3.466-3.682l-1.126-1.652l0.119-0.438l3.157-3.325l0.708-2.13
		l4.055,0.232l1.486-1.95l1.271-3.194l0.09-1.336L57.819,415.263z"/>
	<path id="SD-DN" fill="#1E3250" stroke="#1E3250" stroke-width="0.5" d="M129.004,137.091l102.026,0.155v146.399l0,0l-22.996,0.066
		l2.403,25.506l4.411,39.658l1.497,7.895l2.912,2.055l9.445,28.75l0,0l2.046,6.039l-1.54,9.203l1.39,1.606l1.526,2.812l0.026,3.58
		l-0.85,2.317l0.134,0.402l-5.043,6.189l-0.201,4.226l-0.795,1.282l-0.112,1.128l0.439,0.496l-9.063,10.678l-0.845,5.021
		l-0.065,5.456l0.404,2.345l-0.376,2.536l-3.105,5.324l-0.434,1.544l0.46,1.999l0.763,1.428l0.404,2.416l-0.578,5.332l1.068,2.357
		l1.087,1.559l4.518,11.92l0,0l-3.072-2.327l-2.215-0.569l-4.495-0.056l-4.038,0.908l-2.8,1.087l-1.292,0.067l-1.259-0.539
		l-4.408-2.94l-3.586-1.013l-8.906-1.232l-6.225-4.412l0.093-1.084l-1.218-1.044l-0.154-0.818l-3.936-1.229l-1.412-3.004l0.13-1.105
		l-1.368-0.073l-1.731-0.929l-0.29-2.17l-2.668-3.557l0.227-0.438l1.082-1.031l1.806,0.454l0.722-0.269l0.967-0.879l2.984,0.338
		l0.303-0.573l0.091-1.886l-0.134-0.648l-9.582-11.479l-3.345-0.127l-1.409-1.18l-5.706-2.774l-0.592-1.183l0.242-2.692
		l-0.209-0.267l-2.185,0.118l-1.048-0.818l-1.159-0.036l-0.873,0.46l-4.144-0.373l-3.287,0.159l-1.332-0.78l-2.742,0.539l0,0
		l-3.203,0.963l-2.471,0.005l-1.368-0.341l-2.342-1.981l-3.422-0.528l-1.866-2.192l-1.656-1.066l-1.729,0.252l-3.212-0.777
		l-0.779,0.27l-4.203-1.329l-2.318-0.033l-1.085-0.571l0,0l1.728-0.73l1.577-0.021l1.14-0.442l1.403-1.341l2.107-1.246l3.845-6.663
		l-1.182-1.451l-4.92,0.507l-2.699-0.167l-9.079,2.487l-0.696,3.539l-4.923-0.315l-1.157,1.149l-2.78-2.92l-0.249-0.803
		l-2.124-0.778l1.722-0.961l-0.895-0.648l-1.31,0.383l-3.787-0.325l-3.471,0.479l-1.662-1.411l-0.63-1.726l-1.798-1.127l0.003,3.438
		l-0.808,0.756l-0.93-0.239l-0.816-0.294l0.508-1.294l-0.221-0.729l0.509-1.274l-0.044-1.376l-1.67-0.609l-1.392,0.196l-0.311,0.608
		l-1.931-1.205l-0.59,0.014l-1.531-1.124l-1.583,0.193l-4.667,3.716l-3,0.981l0,0l0.235-6.169l2.607-1.617l-1.873-1.242
		l-1.029-1.885l-1.325-2.596l0.168-1.566l-0.632-1.461l-0.042-3.444l0.635-2.405l0.122-2.68l1.231-3.051l-0.806-1.235l-1.501-0.438
		l-1.232,1.29l-3.51-3.178l1.729-5.196l-5.006-9.663l-5.002,3.076l-3.053-3.218l-0.425-3.19l0.851,0.623l2.17-11.083l-2.731-2.988
		l-2.072-0.539l0,0l2.471-2.665l1.552-1.063l0.755-1.189l0.905-0.477l1.148,0.043l0.778-0.592l-0.34-2.448l1.779-1.28l0.881-1.479
		l-0.412-1.345l0.695-1.896l-0.521-1.347l0.239-2.434l-0.277-0.736l-2.443-2.074l-0.333-0.983l0.164-2.183l1.152-1.608l1.429-0.084
		l0.626-0.369l1.271-1.193l0.892-1.656l1.13-0.48l1.505-1.744l1.274-0.095l1.835,0.339l0.663-0.192l0.487,0.326l1.919,0.321
		l3.221,0.294l2.621-0.29l3.997-1.854l2.586-0.699l3.421-0.163l2.583,0.52l3.289,0.11l6.451,1.635l1.542-0.041l-0.07-183.087
		L129.004,137.091z"/>
	<path id="SD-DS" fill="#1E3250" stroke="#1E3250" stroke-width="0.5" d="M106.133,428.036l1.085,0.571l2.318,0.033l4.203,1.329
		l0.779-0.27l3.212,0.777l1.729-0.252l1.656,1.066l1.866,2.192l3.422,0.528l2.342,1.981l1.368,0.341l2.471-0.005l3.203-0.963l0,0
		l10.166,26.804l0.178,2.189l-1.346,1.699l-2.052,1.25l-15.289,1.403l-0.149,6.454l8.913,8.192l12.849,9.724l9.449,4.711
		l-1.562,3.06l-4.703,1.954l4,5.704l4.113,12.38l2.016,8l1.283,11.406l0,0l-2.858,0.66l-0.612,0.494l-2.408-0.041l-3.142,0.371
		l-5.836,1.772l-2.163-0.041l-2.081,0.659l-1.47,0.123l-0.734,0.412l-2.245,0.165l-1.387-0.494l-3.306,0.741l-1.102-0.123
		l-2.411,0.974l-2.323,4.63v1.482l0.531,1.153v0.988l-1.184,2.224l-1.02,2.8l-1.959,2.635l-3.305,2.387l-2,0.699l-1.061,2.594
		l-1.051,1.161l0.481,1.42l0.012,3.617l0.425,1.503l0.016,1.902l-0.9,2.004l-5.23,3.905l0.66,2.724l-1.162,2.118l-1.99,8.238
		l1.215,4.089l-0.195,1.243l-1.525,1.385l-1.812,2.61l-5.501,2.791L98.713,612l0.132-0.982l-0.633-0.402l-1.616,1.012l-1.689-0.805
		l-1.335,0.635l-3.845-0.722l-1.76,0.081l-1.077-0.692l-1.121-0.213l-2.739,0.558l-2.264-0.838l-1.421,0.156l-1.805,0.695
		l-2.536-0.374l-1.925-0.791l-0.876,0.014l-1.252,0.147l-0.814,1.003l-1.528-0.444l-0.012-1.309l-0.473-0.531l0.013-1.765
		l0.223-0.463l1.324-0.845l1.411-2.297l0.314-1.293l-0.099-2.592l-0.681-0.448l-1.565,1.837l-1.149,0.062l-1.532-0.792l-0.09-0.961
		l-0.635-0.506l0.682-1.173l-0.052-0.858l0.483-1.143l0.05-1.956l0.56-0.329l0.08-0.935l0.547-0.021l0.168-0.274l0.738,0.251
		l0.744-0.155l2.658-2.174l0.381-1.182l0.498-0.502l0.764-0.061l0.167-0.52l-0.64-1.563l-0.021-0.804l0.479-2.087l0.526-0.512
		l0.56-1.325l-0.391-0.743l-0.98,0.457l-0.421-1.159l0.322-1.721l0.581-0.852l-1.107-0.232l2.829-5.164l-1.209-9.208l-14.951-24.021
		l-1.553-0.823l-0.918-1.321l-1.304-0.778l-0.747-1.066l-1.287-1.063l-1.207-1.765l-4.368-2.797l0,0l19.836-20.026l2.614-1.6
		l6.487-8.535l-1.192-9.006l1.266-7.572l0.124-3.351l1.577-2.443l1.636-0.687l0.622-1.152l1.24-0.195l2.627-1.683l1.106-0.179
		l-0.369-1.087l2.274,0.055l0.873-0.25l0.648,0.951l0.814-1.41l-0.001-0.8l3.322-1.567l0.797-0.877l4.635-0.505l0.915,1.141
		l1.292,0.017l0.43-3.562l-0.98-5.445l-1.714-1.654l-4.96-9.771l4.533-4.606l4.168-5.983l1.324-3.077l0.392-3.668L106.133,428.036z"
		/>
	<path id="SD-DW" fill="#1E3250" stroke="#1E3250" stroke-width="0.5" d="M37.328,351.407l2.072,0.539l2.731,2.988l-2.17,11.083
		l-0.851-0.623l0.425,3.19l3.053,3.218l5.002-3.076l5.006,9.663l-1.729,5.196l3.51,3.178l1.232-1.29l1.501,0.438l0.806,1.235
		l-1.231,3.051l-0.122,2.68l-0.635,2.405l0.042,3.444l0.632,1.461l-0.168,1.566l1.325,2.596l1.029,1.885l1.873,1.242l-2.607,1.617
		l-0.235,6.169l0,0l-2.077,2.003l-0.09,1.336l-1.271,3.194l-1.486,1.95l-4.055-0.232l-0.708,2.13l-3.157,3.325l-0.119,0.438
		l1.126,1.652l-3.466,3.682l-0.052,1.258l0.409,1.033l-0.506,1.101l-0.721-0.293l-0.518,0.299l-1.023,1.324l-8.4,7.57l-0.027,0.686
		l0.889,2.407l0.846,1.17l0.194,1.468l0.913,2.009l-0.218,4.505l0.922,1.131l1.278,3.437l-1.117,1.281l-0.606,1.514l-0.48,0.395
		l-0.436,1.572l-1.306,1.108l-0.357,1.402l-2.736,1.819l0,0l-1.214,0.308l-1.612,1.016l-0.831,0.047l-0.574-0.292l0.581-0.138
		l0.702-2.102l0.154-2.823l-0.257-1.4l-0.434-1.549l-1.289-2.177l-1.025-3.679l0.126-1.128l-1.145-1.349l-0.641-0.139l-0.261-0.409
		l1.975-3.138l1.56-4.78l-4.038-1.548l-6.593-3.69l-0.115,1.798l-1.246,1.168l-1.154,0.538l-4.22,1.191l-3.745,0.069l-2.174-2.116
		l-0.307-0.942l-0.588-0.433l-1.074-3.7l0.566-3.043l1.032-1.771l0.814-2.391l1.313-1.525l0.089-0.724l-0.3-0.463l0.883-0.878
		l0.717-0.197l1.569-1.247l0.419-1.4l2.373-0.286l0.444-0.702l2.124-0.322l0.483-1.04l1.055-0.933l0.485-1.25l1.52-1.25l0.366-0.761
		l2.194-2.346l-0.232-1.704l-0.772-0.675l-0.47-0.064l-0.401-1.176l-0.704-0.637l-0.176-2.357l0.212-1.701l-0.333-0.725l-1.781-1.24
		l-0.38-0.87l-0.596-0.196l-1.22-2.647l0.537-1.28l-0.226-0.698l-0.971-0.835l-0.38-0.543l0.058-0.443l2.33-3.343l2.461-2.495
		l0.908-1.312l2.444-1.146l1.485-1.513l1.237-0.271l1.399-1.357l1.564-0.047l2.965-2.444l1.332-0.377l1.631-2.406l0.113-0.347
		l-1.047-1.029l0.194-0.866l-1.688-0.591l-1.533,0.495l-1.943-2.183l-0.104-0.769l0.256-0.416l1.08-0.692l-0.261-1.161l-0.484-0.36
		l0.165-4.906l-1.531-0.958l-1.057-0.057l1.1-3.733l0.828-0.056l0.468-0.332l0.529-0.072l1.066-0.71l5.521-1.11l4.078-1.517
		l-0.24-2.183l-1.643-4.624l0.568-1.089l0.776-0.669l2.166-0.512l0.094-0.607l-0.381-0.827L37.328,351.407z"/>
	<path id="SD-GD" fill="#1E3250" stroke="#1E3250" stroke-width="0.5" d="M503.792,319.216l0.521,0.69l2.807,2.146l2.098,0.501
		l1.98,2.284l4.759,0.922l2.292,0.301l0.698-0.16l6.04,3.146l0.059,1.862l-0.447,3.684l-0.446,0.54l5.303,3.343l1.417,0.18
		l6.157,3.48l2.815,7.695l3.107,4.155l20.415-1.294l2.449-5.73l0.161-2.026l2.209-1.029l1.105-2.417l0.157-0.94l-1.093-2.5
		l-0.969-1.296l0.042-0.723l0.534-0.583l0.447,1.045l1.877,1.766l1.347,3.279l1.184,0.546l1.103,1.723l0.897,0.294l1.633,2.395
		l0.602,1.633l2.704,2.681l1.625-0.113l0.938-1.982l0.937,0.021l3.194-1.788l9.457-3.104l0,0l1.118,8.362l0.155,3.844l2.241,22.057
		l0.875,2.548l0.511,0.079l0.036,0.241l-0.762,0.416l-0.104,2.2l-3.172,9.496l1.479,5.188l-2.187,3.454l-1.758,5.039l-0.859,4.094
		l-4.065,7.054l-3.387,12.762l-1.697,4.443l-0.168,1.23l1.061,1.568l0.082,0.926l-0.204,3.984l-0.805,2.957l0.038,0.825
		l-2.013,0.032l-0.468-0.929l-1.853-0.575l-1.749,0.178l-0.271,0.398l-9.354,1.98l-0.437-0.35l-0.57,0.483l-1.089-0.54l-0.964,0.189
		l0,0l-1.767-0.939l-2.12-0.581l-1.607-1.326l-2.278,0.717l-0.913-0.205l-0.982,0.241l-5.447-1.032l-1.071-1.293l-1.602-1.005
		l-1.027-0.243l-0.346-0.648l-1.503-0.279l-1.034-1.523l-1.547-1.464l-0.799-0.11l-1.214,0.312l-2.711-2.223l-0.835,0.424
		l-1.01-0.453l-0.309-0.993l-1.084-0.166l-2.061-1.52l0.111-0.574l-0.383-0.533l-2.669-1.575l0.246-1.002l-0.845-0.888l0.034-0.86
		l-0.307-0.573l-0.533-0.073l-0.535-0.667l-1.065-0.264l-0.569,0.232l-0.344-0.304l-2.774,0.338l-1.093-1.907l0.207-0.556
		l-1.122-0.091l-0.573-0.591l-0.741,0.023l-8.276-9.438l-3.112-6.901l2.846-1.24l-0.638-2.394l-2.015,0.201l-0.876-0.303
		l-0.931,0.234l-1.409-0.684l-0.23-0.401l-1.805,0.354l-0.992-0.801l-0.749-1.646l-0.628-0.131l-0.94-1.76l-0.603-2.761
		l-1.486-0.703l-1.166-1.567l0,0l-0.557-1.073l0.055-0.595l-0.915-0.438l-0.235-1.516l-0.784-1.109l-0.157-0.902l-0.553-0.516
		l0.412-1.039l-0.231-0.902l6.601-9.843l-0.177-0.442l7.755-11.242l0.921-2.674l-3.163-5.782l-8.349-13.051l-12.802-4.397
		l-2.51-0.046l-0.629-4.439l-1.434-1.521l-1.447-0.592l0,0l0.296-1.74l1.644-2.309l0.782-3.389l2.556-2.353l0.783,0.692l0.759-0.197
		l0.319-0.91l6.342-1.695l1.616,0.05l2.863-1.678L503.792,319.216z"/>
	<path id="SD-GK" fill="#1E3250" stroke="#1E3250" stroke-width="0.5" d="M228.702,387.574l14.214-0.374l11.919,1.778l2.719,0.782
		l16.148,6.641l2.052,0.418l1.43,1.741l9.558-0.498l-0.072,2.567l10.827,6.435l3.942,4.567l2.112,0.914l-0.835,0.786l4.889,2.382
		l5.761,1.52l1.507,12.232l8.771,14.436l0,0l-5.754,11.759l-3.302,2.445l-1.402,1.852l-0.738,1.677l0.195,2.171l-0.983,2.553
		l-1.118,1.642l-2.58,2.384l-3.392,5.03l-2.542,2.104l-0.356,4.407l-1.264,1.169l-0.327,1.198l0.112,2.162l1.719,1.749l3.071-0.064
		l4.692,10.026l0.552,5.471l0.514,0.905l-0.132,2.179l-4.818,3.886l-0.795,1.219l-0.503,2.428l1.623,3.694l16.182,15.497
		l3.542,4.692l3.697,7.465l0,0l-1.447,1.636l-14.608,7.623l0.068,13.645l-18.539,0.367l-1.867,0.639l-3.889,5.178l-5.446,4.867
		l-1.846,3.273l0.45,2.16l-29.591,0.104l-5.469-11.044l0,0l-23.48-56.545l-2.345-9.273l-1.568-21.459l0,0l-4.518-11.92l-1.087-1.559
		l-1.068-2.357l0.578-5.332l-0.404-2.416l-0.763-1.428l-0.46-1.999l0.434-1.544l3.105-5.324l0.376-2.536l-0.404-2.345l0.065-5.456
		l0.845-5.021l9.063-10.678l-0.439-0.496l0.112-1.128l0.795-1.282l0.201-4.226l5.043-6.189l-0.134-0.402l0.85-2.317l-0.026-3.58
		l-1.526-2.812l-1.39-1.606l1.54-9.203L228.702,387.574z"/>
	<path id="SD-GZ" fill="#1E3250" stroke="#1E3250" stroke-width="0.5" d="M478.139,331.24l1.447,0.592l1.434,1.521l0.629,4.439
		l2.51,0.046l12.802,4.397l8.349,13.051l3.163,5.782l-0.921,2.674l-7.755,11.242l0.177,0.442l-6.601,9.843l0.231,0.902l-0.412,1.039
		l0.553,0.516l0.157,0.902l0.784,1.109l0.235,1.516l0.915,0.438l-0.055,0.595l0.557,1.073l0,0l-10.93-3.558l-0.416-1.649
		l-2.488-0.441l-0.041,1.607l-0.367,0.502l-1.492,0.274l-0.14,0.353l1.102,2.299l-0.571,0.585h-1.062l-0.652,0.418l1.388,1.462
		l-0.032,1.475l-4.319,0.224l-1.741,1.734l-1.157,0.408l-0.8-0.341l-0.289-0.709l1.745-0.891l0.13-0.557l-4.316-0.268l-0.596-4.876
		l-2.302-0.888l-0.992-0.687l-0.836-0.015l-0.568,0.464l-0.801-0.458l-0.855,0.081l-1.897,0.662l-0.514-0.056l0.108-1.19
		l-1.995,0.087l-0.445,2.421l-0.507,1.192l0.383,4.796l1.665,2.332l-1.882,0.45l-1.402,0.697l-1.647,1.389l-0.92,2.381l0.607,3.889
		l0,0l-9.656,0.257l-1.008-4.001l0.905-1.614l-0.12-1.247l-1.805-3.788l0.2-1.958l-2.242,0.165l-0.749-1.379l-0.739,0.33
		l-1.258-0.935l0.538-2.517l-1.327-3.373l0.091-0.769l0.95-0.196l-0.668-0.649l0.426-2.25l-2.379-0.699l-0.814,0.733l-0.803-0.879
		l1.701-2.199l2.623-0.07l0.404,1.036l0.512-0.214l-0.783-2.466l-1.207-0.389l-0.387-1.459l1.561,0.454l0.34-0.405l-0.288-0.633
		l0.522-2.214l1.286-1.256l-1.753-0.954l-1.722,1.701l-1.717-1.262l1.059-1.159l-0.744-0.573l-1.041,0.986l-1.583-1.051l0.301-0.81
		l-0.344-0.383l1.738-2.145l4.149,0.962l0.735-1.312l3.079-0.149l1.175-0.756l2.68-0.147l0.497,0.556l0.569-0.311l0.78,0.188
		l0.547-0.888l-2.467-3.126l-0.352-1.963l1.519-0.527l1.363-1.086l-0.518-0.902l1.082-0.313l1.052,1.228l0.27,0.75l0.533,0.151
		l0.353-1.928l-0.727-0.882l-0.117-0.655l-0.844-0.649l-0.488,0.425l-0.648-0.363l-0.985,0.602l-2.784-1.894l-0.646,0.312
		l-1.944-1.225l0.945-0.987l-3.147-2.472l1.645-1.917l0.224-0.946l3.854,2.874l0.804-2.936l-0.25-0.752l-1.052-1.286l-0.351-1.696
		l-2.058-1.032L442.453,343l-1.521-0.031l-0.174-0.501l-1.693-0.417l-0.344-0.326l-1.074,0.41l-3.34-1.859l0,0l3.032,0.306
		l19.21-1.735l4.915,0.048l2.114,0.858l3.328-3.82l9.633-5.341L478.139,331.24z"/>
	<path id="SD-KA" fill="#1E3250" stroke="#1E3250" stroke-width="0.5" d="M568.396,258.874l14.312,5.038l3.083,0.338l33.163-1.805
		l0,0l-0.143,0.252l0.463,0.532l0.166,1.701l-1.307,1.295l-0.078,0.674l0.901,1.552l-0.288,0.807l0.602,1.998l-0.462,1.532
		l1.149,1.436l-0.803,0.831l-0.854,0.394l-0.281,0.748l0.413,0.815l-1.511,1.862l-2.335,0.555l-0.192,0.754l0.503,0.899
		l-0.764,3.764l0.498,2.074l1.606,2.206l1.115,0.647l-0.709,2.661l-0.625,0.504l0.563,1.72l-0.022,0.893l0.638,0.272l-1.261,0.969
		l-1.597,2.044l-3.144,10.243l0.038,0.562l-1.124,2.475l-0.853,2.958l-2.787,4.918l-2.485,8.046l-0.348,2.269l-0.629,1.11
		l-0.058,1.197l-2.654,7.305l-0.936,0.993l-1.147,0.097l-0.801,0.424l-1.591,1.969l0.082,0.438l0,0l-9.457,3.104l-3.194,1.788
		l-0.937-0.021l-0.938,1.982l-1.625,0.113l-2.704-2.681l-0.602-1.633l-1.633-2.395l-0.897-0.294l-1.103-1.723l-1.184-0.546
		l-1.347-3.279l-1.877-1.766l-0.447-1.045l-0.534,0.583l-0.042,0.723l0.969,1.296l1.093,2.5l-0.157,0.94l-1.105,2.417l-2.209,1.029
		l-0.161,2.026l-2.449,5.73l-20.415,1.294l-3.107-4.155l-2.815-7.695l-6.157-3.48l-1.417-0.18l-5.303-3.343l0.446-0.54l0.447-3.684
		l-0.059-1.862l-6.04-3.146l-0.698,0.16l-2.292-0.301l-4.759-0.922l-1.98-2.284l-2.098-0.501l-2.807-2.146l-0.521-0.69l0,0
		l7.913,1.548l-0.679-2.593l-6.312-11.31l0,0l5.698-11.867l1.174,0.034l2.082-2.406l3.167-1.561l32.394,1.672l2.155-0.872
		l2.185,0.306l11.056-7.921L568.396,258.874z"/>
	<path id="SD-KH" fill="#1E3250" stroke="#1E3250" stroke-width="0.5" d="M407.67,281.21l14.264,10.743l21.66,2.848l4.232,3.567
		l11.077,1.936l14.815,4.222l2.963,2.492l4.342,1.846l6.067,1.533l10.117-1.663l7.506-1.872l0,0l6.312,11.31l0.679,2.593
		l-7.913-1.548l0,0l-7.693-1.504l-2.863,1.678l-1.616-0.05l-6.342,1.695l-0.319,0.91l-0.759,0.197l-0.783-0.692l-2.556,2.353
		l-0.782,3.389l-1.644,2.309l-0.296,1.74l0,0l-1.6-0.649l-9.633,5.341l-3.328,3.82l-2.114-0.858l-4.915-0.048l-19.21,1.735
		l-3.032-0.306l0,0l-1.02,1.303l-0.478,1.371l-2.867-0.102l0,0l-10.236-22.329l-9.533-11.819l-2.832-4.303l-0.891,0.07l0.341-1.599
		l-4.291-11.176l-2.069-2.876l-1.137-3.237l0,0L407.67,281.21z"/>
	<path id="SD-KN" fill="#1E3250" stroke="#1E3250" stroke-width="0.5" d="M231.03,283.645l46.611-0.004l54.757,0.567l41.607,2.224
		l19.98-0.199l5.309-0.655l0,0l1.137,3.237l2.069,2.876l4.291,11.176l-0.341,1.599l0.891-0.07l2.832,4.303l9.533,11.819
		l10.236,22.329l0,0l-12.73,5.502l-0.565,0.929l-0.111,0.792l1.305,2.5l-0.892,0.255l-0.227,0.406l-3.479-0.138l-2.188,8.084
		l-11.586,10.373l-3.062,7.803l0.062,5.496l1.988,6.348l7.727,5.663l3.567,10.817l7.35,6.422l0.021,0.498l0.61,0.456l-0.663,0.367
		l-1.611,5.023l0.087,2.392l1.618,0.586l0.214,0.841l-2.608,3.284l-3.133,0.971l-3.539,3.191l-4.134,2.313l-2.604,8.095l0.215,1.164
		l-1.318,2.832l1.817,6.365l0,0l-10.912-4.05l-0.758,0.538l-1.047-0.301L389,449.832l-0.516-0.646l0.074-0.535l-1.711,0.142
		l-2.255,1.366l-0.014,1.146l-0.613-0.951l-0.912,0.1l-0.074,0.42l-0.418-0.056l-0.059-0.381l-0.913,0.023l0.002,0.477l-0.323,0.002
		l-0.116-0.495l-4.819-0.185l-0.408,0.438l-0.166,1.069l0.024,1.106l0.502,1.562l0.186,3.242l-0.165,1.126l-0.908,1.225L375,460.161
		l-2.798-0.808l-2.137,2.623l-1.449-1.117l-2.438,3.1l0.306,0.494l-10.072,0.734l-2.602-3.609l-1.736-5.198l-2.289-1.572
		l-0.517-0.779l2.609-3.084l-2.6,1.023l-8.224,1.699l-2.2,0.868l-2.388,1.786l-1.347,0.406l0.139-6.64l-0.118-0.916l-0.82-0.473
		l0.007-2.692l-2.566-0.9l-1.656-1.275l-6.46,0.07l0,0l-8.771-14.436l-1.507-12.232l-5.761-1.52l-4.889-2.382l0.835-0.786
		l-2.112-0.914l-3.942-4.567l-10.827-6.435l0.072-2.567l-9.558,0.498l-1.43-1.741l-2.052-0.418l-16.148-6.641l-2.719-0.782
		l-11.919-1.778l-14.214,0.374l0,0l-9.445-28.75l-2.912-2.055l-1.497-7.895l-4.411-39.658l-2.403-25.506L231.03,283.645z"/>
	<path id="SD-KS" fill="#1E3250" stroke="#1E3250" stroke-width="0.5" d="M323.644,443.901l6.46-0.07l1.656,1.275l2.566,0.9
		l-0.007,2.692l0.82,0.473l0.118,0.916l-0.139,6.64l1.347-0.406l2.388-1.786l2.2-0.868l8.224-1.699l2.6-1.023l-2.609,3.084
		l0.517,0.779l2.289,1.572l1.736,5.198l2.602,3.609l10.072-0.734l-0.306-0.494l2.438-3.1l1.449,1.117l2.137-2.623l2.798,0.808
		l0.398-0.135l0.908-1.225l0.165-1.126l-0.186-3.242l-0.502-1.562l-0.024-1.106l0.166-1.069l0.408-0.438l4.819,0.185l0.116,0.495
		l0.323-0.002l-0.002-0.477l0.913-0.023l0.059,0.381l0.418,0.056l0.074-0.42l0.912-0.1l0.613,0.951l0.014-1.146l2.255-1.366
		l1.711-0.142l-0.074,0.535l0.516,0.646l0.356-1.166l1.047,0.301l0.758-0.538l10.912,4.05l0,0l5.38,15.973l3.611-0.055l7.849,7.332
		l2.88,3.301l0,0l8.926,8.776l0.133,20.554l0.771,3.026l2.347,3.95l-12.726,12.247l-6.697,4.184l-6.201,10.931l-1.724,2.371
		l-10.394,11.703l-8.131,10.293l-3.265,1.222l-14.871-0.01l-2.981,1.331l-9.34-8.75l-6.801-3.908l-17.915-11.12l-2.239,0.05
		l-1.148-0.278l0,0l-3.697-7.465l-3.542-4.692l-16.182-15.497l-1.623-3.694l0.503-2.428l0.795-1.219l4.818-3.886l0.132-2.179
		l-0.514-0.905l-0.552-5.471l-4.692-10.026l-3.071,0.064l-1.719-1.749l-0.112-2.162l0.327-1.198l1.264-1.169l0.356-4.407
		l2.542-2.104l3.392-5.03l2.58-2.384l1.118-1.642l0.983-2.553l-0.195-2.171l0.738-1.677l1.402-1.852l3.302-2.445L323.644,443.901z"
		/>
	<path id="SD-NB" fill="#1E3250" stroke="#1E3250" stroke-width="0.5" d="M463.217,486.696l25.573-16.612l12.477-2.896l9.387-5.791
		l-0.153-1.762l-1.488-1.058l5.514-5.792l1.83,0.982l0.701-0.384l6.528,1.571l0.937,1.216l2.344,1l6.608,18.453l-0.62,1.611
		l6.239,9.248l0,0l0.284,1.391l0.854,1.919l0.062,5.136l-2.197,5.628l-2.501,4.142L535,505.087l-0.457,1.026l-0.466,0.32
		l0.161,0.312l1.294-0.008l1.435,1.543l0.152,0.743l-1.782,9.237l1.051,2.417l-4.7,3.721l-0.013,1.358l-0.381,0.788l-2.95,1.92
		l-0.313,0.005l0.522-1.888l-1.019,0.015l-6.351-5.865l-0.473-0.149l-0.619,0.558l-1.172,0.174l-0.922,1.267l-2.723,1.294
		l-3.357,5.923l-1.535,1.979l-1.94,1.812l-0.737,2.219l0.011,0.704l1.099,0.296l0.803,1.318l-1.357,2.86l1.233,4.648l1.146,2.99
		l-0.367,0.801l0.156,1.354l-0.531,1.102l0.017,1.172l-1.469,1.115l-1.553,0.647l-1.079,0.953l-0.604,3.569l-0.062,2.399
		l-2.886,7.587l-0.578,3.206l-1.273,3.684l0.14,2.585l-8.669,0.121l-0.026-2.119l-0.457-2.133l0.123-2.159l1.384-4.089l1.464-2.102
		l1.438-5.688l-0.223-1.274l0.123-2.293l-0.904-3.09l0.191-1.355l-0.662-1.739l-2.922-0.021l-3.888-6.834l-4.924-3.458l-7.572-9.017
		l-9.461-3.105l2.416-4.341l-6.845-31.734L463.217,486.696z"/>
	<path id="SD-NO" fill="#1E3250" stroke="#1E3250" stroke-width="0.5" d="M390.649,49.833l41.608,0.303l0,0l-4.724,88.323
		l0.107,13.743l-2.464,34.789l15.332,15.658l-2.77,15.701l4.864,14.713l-8.232,11.331l-25.539,36.661l-1.162,0.155l0,0l-8.376,4.368
		l0,0l-5.309,0.655l-19.98,0.199l-41.607-2.224l-54.757-0.567l-46.611,0.004l0,0V137.246l-102.026-0.155l0,0V50.358l5.683-0.229
		l54.554-0.126l130.201,0.074l13.614,0.281v-0.263l53.81-0.052l1.566-4.753l2.181-2.912l2.618-1.913l1.566,1.943l-3.157,4.361
		L390.649,49.833z"/>
	<path id="SD-NR" fill="#1E3250" stroke="#1E3250" stroke-width="0.5" d="M478.339,62.269l0.659,0.003l0,0l-1.221,1.174
		l-11.359,8.51l2.455,2.825l0.408,1.046l0.531,5.446l-0.368,1.829l-2.081,2.785l0.204,5.089l-1.184,4.433l0.682,1.877l3.277,2.119
		l3.2,4.217l3.982,1.295l1.143,2.907l2.979,4.942l1.429,3.465l-0.258,5.852l-2.841,12.289l0.035,0.95l1.909,3.137l1.81,12.655
		l-0.996,11.603l0.206,3.521l4.724,7.911l13.062,34.389l13.459,4.517l6.691,3.602l9.818,9.825l12.777,20.61l2.384,2.214l6.577,3.119
		l15.963,6.449l0,0l-3.772,25.372l-11.056,7.921l-2.185-0.306l-2.155,0.872l-32.394-1.672l-3.167,1.561l-2.082,2.406l-1.174-0.034
		l-5.698,11.867l0,0l-7.506,1.872l-10.117,1.663l-6.067-1.533l-4.342-1.846l-2.963-2.492l-14.815-4.222l-11.077-1.936l-4.232-3.567
		l-21.66-2.848L407.67,281.21l0,0l1.162-0.155l25.539-36.661l8.232-11.331l-4.864-14.713l2.77-15.701l-15.332-15.658l2.464-34.789
		l-0.107-13.743l4.724-88.323l0,0l30.026-0.084L478.339,62.269z"/>
	<path id="SD-NW" fill="#1E3250" stroke="#1E3250" stroke-width="0.5" d="M434.307,340.275l3.34,1.859l1.074-0.41l0.344,0.326
		l1.693,0.417l0.174,0.501l1.521,0.031l0.535,0.673l2.058,1.032l0.351,1.696l1.052,1.286l0.25,0.752l-0.804,2.936l-3.854-2.874
		l-0.224,0.946l-1.645,1.917l3.147,2.472l-0.945,0.987l1.944,1.225l0.646-0.312l2.784,1.894l0.985-0.602l0.648,0.363l0.488-0.425
		l0.844,0.649l0.117,0.655l0.727,0.882l-0.353,1.928l-0.533-0.151l-0.27-0.75l-1.052-1.228l-1.082,0.313l0.518,0.902l-1.363,1.086
		l-1.519,0.527l0.352,1.963l2.467,3.126l-0.547,0.888l-0.78-0.188l-0.569,0.311l-0.497-0.556l-2.68,0.147l-1.175,0.756l-3.079,0.149
		l-0.735,1.312l-4.149-0.962l-1.738,2.145l0.344,0.383l-0.301,0.81l1.583,1.051l1.041-0.986l0.744,0.573l-1.059,1.159l1.717,1.262
		l1.722-1.701l1.753,0.954l-1.286,1.256l-0.522,2.214l0.288,0.633l-0.34,0.405l-1.561-0.454l0.387,1.459l1.207,0.389l0.783,2.466
		l-0.512,0.214l-0.404-1.036l-2.623,0.07l-1.701,2.199l0.803,0.879l0.814-0.733l2.379,0.699l-0.426,2.25l0.668,0.649l-0.95,0.196
		l-0.091,0.769l1.327,3.373l-0.538,2.517l1.258,0.935l0.739-0.33l0.749,1.379l2.242-0.165l-0.2,1.958l1.805,3.788l0.12,1.247
		l-0.905,1.614l1.008,4.001l9.656-0.257l0,0l0.374,2.643l-0.433,0.979l0.977,1.585l-0.592,3.431l-1.275,3.777l-0.37,2.145
		l7.081,9.988l3.65,4.092l-5.067,9.765l4.323,9.768l2.745,9.634l0,0l-21.681-0.737l0.245,0.705l-0.082,3.898l0.885,3.062
		l-0.149,1.623l-1.021,2.155l0.122,1.533l-22.431,0.025l0,0l-2.88-3.301l-7.849-7.332l-3.611,0.055l-5.38-15.973l0,0l-1.817-6.365
		l1.318-2.832l-0.215-1.164l2.604-8.095l4.134-2.313l3.539-3.191l3.133-0.971l2.608-3.284l-0.214-0.841l-1.618-0.586l-0.087-2.392
		l1.611-5.023l0.663-0.367l-0.61-0.456l-0.021-0.498l-7.35-6.422l-3.567-10.817l-7.727-5.663l-1.988-6.348l-0.062-5.496l3.062-7.803
		l11.586-10.373l2.188-8.084l3.479,0.138l0.227-0.406l0.892-0.255l-1.305-2.5l0.111-0.792l0.565-0.929l12.73-5.502l0,0l2.867,0.102
		l0.478-1.371L434.307,340.275z"/>
	<path id="SD-RS" fill="#1E3250" stroke="#1E3250" stroke-width="0.5" d="M678.262,214.446l0.353,0.652l-0.228,0.463l-0.432-0.237
		l-0.136,0.296l0.59,0.237l0.805,1.162l-0.136,0.486l-0.216-0.119l0.125-0.415l-0.696-0.844l-0.676-0.14l-0.328,0.711l-0.432-0.119
		l0.487-0.688l-0.611-0.664l0.124-0.261l0.635,0.225L678.262,214.446z M672.129,213.272l1.451,0.32l0.113,0.237l-0.952,0.308
		l-0.782-0.557L672.129,213.272z M673.523,212.264l1.189,0.724l0.203,0.439l-0.589-0.024l-0.624-0.451l-0.385-0.498L673.523,212.264
		z M670.723,210.543l1.759,1.222l-0.965,0.119L670.723,210.543z M659.557,189.103l1.032,0.393l0.17,0.821l-1.281-0.155l-0.316-0.548
		L659.557,189.103z M666.234,187.114l0.51,0.202l-0.193,0.762l-0.203-0.464l-0.851,0.06L666.234,187.114z M629.788,100.357
		l0.657,0.386l0.012,0.338l-0.488,2.845l-0.748,0.916l-0.306-1.085l0.079-2.122l0.146-0.663L629.788,100.357z M604.168,38.088
		l0.93,0.804l-1.021-0.098l0.079,0.451l-0.307-0.11l-0.203-0.512L604.168,38.088z M568.118,10.472l0.192,0.869l-0.476,0.423
		l0.056-0.925l-0.476-0.22l0.079-0.416L568.118,10.472z M567.246,9.848l0.011,0.783l-0.896-0.293l0.067-0.306L567.246,9.848z
		 M670.405,211.493l-0.192,0.344l0.736,0.558l-0.93,1.459l0.262,0.368l1.292,0.261l0.283,0.628l1.688,0.629l1.156-0.273
		l-0.022-0.391l-0.229,0.083l-0.497-0.499l0.396-0.32l1.01,0.261l0.794,1.115l-0.034,0.392l-0.216,0.285l-0.215,0.462l0.531,1.174
		l1.281,0.628l0.941-0.877l0.011,0.367l0.806,0.581l-0.396,0.213l-0.727-0.403l0.046,0.996l0.702-0.095l0.646,0.604l-0.147,0.486
		l0.374,0.237l0.487-0.178l0.567-1.339l-0.646-0.581l0.091-0.545l1.542,1.422l0.782,1.754l-0.284,0.415l0.727,0.059l0.295,0.521
		l-5.315,5.098l-2.548,6.063l-0.097,1.03l-1.604,3.31l-2.01,0.629l-0.76,0.593l-0.195,1.393l-0.633,1.45l-0.682,0.181l-1.268-0.374
		l-0.708,0.767l-0.755-1.565l-0.421,0.38l-1.466-0.007l-0.875,0.606l-0.309,1.551l0.215,1.783l-1.466-0.065l-0.125-2.988
		l-0.44-0.528l-1.274,0.664l-0.887-0.341l-1.278,1.749l-0.155,0.443l0.271,0.717l-2.352,1.344l-1.938,0.192l-0.542-1.423
		l-0.814-0.596l-2.025,0.166l-0.512,0.667l0.294,1.673l-0.372,0.341l-0.302,2.087l-6.253,0.418l-3.96,1.584l-0.377,1.259
		l-0.556,0.015l0.22,0.941l0.95,0.59l-0.152,0.511l-0.896,0.414l-0.135,1.243l0.694,0.85l-1.342,0.893l-0.382,1.444l-1.221,1.796
		l-0.921,0.132l-0.81,2.214l-3.412-2.004l-2.403,0.796l-1.309-0.13l-0.927,0.649l-2.798,0.263l-0.722-1.052l-2.208-0.24
		l-0.706-0.516l-0.755,0.158l-0.642,0.93l0,0l-33.163,1.806l-3.083-0.339l-14.313-5.038l0,0l-15.962-6.449l-6.577-3.119
		l-2.384-2.214L530.69,226.48l-9.818-9.825l-6.691-3.603l-13.459-4.517l-13.062-34.389l-4.724-7.912l-0.206-3.521l0.995-11.603
		l-1.81-12.655l-1.909-3.137l-0.035-0.951l2.842-12.289l0.258-5.852l-1.428-3.465l-2.979-4.942l-1.144-2.906l-3.981-1.296
		l-3.2-4.216l-3.277-2.12l-0.682-1.876l1.184-4.433l-0.203-5.089l2.081-2.786l0.367-1.829l-0.53-5.446l-0.408-1.046l-2.455-2.825
		l11.359-8.51l1.221-1.174l0,0l17.513-1.994l6.345-19.025l21.683-3.981l10.586-24.595l10.645,3.094l16.739-15.758l0.204,0.932
		l0.386,0.343l0.013,1.483l0.34,0.232l0.182-0.196l0.283,0.612l0.158,3.001l0.691,1.31l-0.624-0.196l-0.057,0.857l0.51,0.465
		l0.046-0.453l0.387-0.012l0.215,0.894l2.812,3.83l0.17-0.147l-0.316-0.966l0.907-0.257l1.893,4.048l1.859,1.846l0.884,0.354
		l0.012,0.513l2.472,0.611l-0.283,0.159l-0.158,0.904l0.669-0.159l0.408-0.77l0.578,0.708l3.104,0.403l1.849,0.721l1.7-0.146
		l0.453,0.416l1.111-0.134l0.714,1.075l1.304,0.232l0.521,0.843l0.544,0.037l0.295,1.013l0.681,0.476l0.646,2.783l0.658,1.184
		l2.811,2.171l0.806,0.354l0.419-0.183l0.512,0.463l-0.147,1.097l0.771,1.865l5.26,2.644l2.335,2.302l0.749,0.219l0.146,0.804
		l0.794,0.414l0.521,0.767l0.624-0.012l1.043,1.351l1.915,0.256l0.137-0.377l0.93,0.706l0.171,1.144l1.201,0.767l0.59,0.949
		l2.062,0.863l-0.022,1.836l-0.714,1.653l-0.557,0.462l0.907,1.385l0.021,0.705l-0.521,0.146l-0.125,0.838l0.408,0.255l-0.192,1.81
		l0.295,0.23l0.103,0.741l0.17,0.304l-0.307,1.651l0.839,3.191l-0.067,1.517l0.283,0.679l-0.067,0.885l-0.521,0.279l0.396,0.23
		l0.306-0.375l0.296,0.438l-0.192,0.97l0.317,0.254l-0.034,0.534l0.681,0.497l0.227,1.127l0.715,0.788l0.091,0.909l0.362,0.497
		l-0.386,0.061l-0.374,0.303l-0.125,0.485l0.283,0.133l0.465-0.629l0.341-0.013l1.044,2.313l0.69,0.775l-1.338,0.799l-0.193,0.242
		l-0.045,0.279l0.657-0.133l0.839-0.896l1.791,2.603l-1.394,0.157l-0.387-0.411l-0.452,1.041l0.635-0.314l0.112,0.75l0.42-0.702
		l1.225-0.206l1.235,1.343l1.429,2.226l1.438,1.524l1.35,0.75l0.205,0.653l1.483,1.317l0.521,0.967l1.064,1.063l0.545,1.788
		l1.235,0.954l-0.986,1.98l-1.599,0.084l-0.113,0.978l-1.496-3.405l-0.307-0.181l0.012-0.785l0.387-0.206l0.748,1.522l1.678,1.002
		l-0.511-1.111l-0.566-0.314l-0.771-1.353v-0.495l0.34-0.109l-0.216-0.689l-0.669,0.109l-0.192-0.423l-0.329-0.048l-0.045,0.52
		l-0.477-0.157l0.146-1.124l-0.589,0.06l-0.104,0.895l-0.669-0.435l-0.191-0.798l0.556-1.257l-0.396-0.762l-0.953-0.387
		l-0.736-0.024l-0.329,0.302l-0.748,1.208l-0.021,0.701l0.17,0.617l0.952,0.314l-0.137,0.725l0.362,0.29l-0.44,0.797l0.34,0.327
		l-0.013,1.22l-0.521,0.266l-0.487-0.435l-0.352,0.278l0.057,1.485l0.612,0.302l0.046,0.857l0.805,0.688l1.35,3.536l-0.17,0.711
		l0.386,0.35l0.136,3.979l0.532,3.122l-0.228,1.614l1.146,1.626l0.058,1.586l0.646,0.798l0.715,2.215l-0.487,2.526l0.295,1.035
		l-1.563-0.12l-0.397,0.433l0.76,2.453l-0.76,1.214l0.193,2.86l0.476,0.925l-0.091,2.438l0.408,1.909l0.17,4.333l-0.192,1.044
		l-0.59,1.008l0.171-0.924l-0.806,1.176l0.442,0.839l0.261,1.691l0.771,1.354l0.17,1.139l0.17,0.601l1.032,1.305v0.863l0.691,0.299
		l-0.216,5.82l-0.341,0.683l0.228,0.395l-0.702,1.101l0.136-1.089l-0.295-0.072l-0.261,1.161l0.295,3.553l0.283,0.933l1.825,2.774
		l-0.103,1.124l1.258,4.397l-0.079,1.457l0.387,1.229l-0.159,1.6l0.511,2.291l-0.261,0.704l0.374,1.193l-0.046,1.049l0.454,0.549
		l0.361-0.286l-0.067,0.799l1.064,2.873l0.386,0.942l0.079,1.132l0.557,0.262l-0.578,1.346l0.93,2.18l-0.204,1.477l0.544,0.619
		l0.138,0.679l2.21,2.56l0.396,1.106l0.681,0.357l1.179,1.32l1.032,0.167l0.282,0.321l3.48-0.726l0.782-0.559l0.236,0.702
		l0.716,0.488l1.712,0.036l0.486,0.749l-0.283,0.536l1.031,0.618l-0.091,0.726l0.612,0.286l0.635,0.903l3.582,1.118l2.041,0.987
		l0.963,0.832l2.177,3.102l4.388,2.958l-0.067,0.285l-1.304,0.546l-0.283,1.935l0.362,0.487l-0.171,0.546l0.578,0.605l-0.157,0.38
		l0.997,1.495l1.699,0.273l-0.146,0.7l1.189,0.462l1.032,0.166l1.031-0.121l0.76-0.484l0.103-0.546l-0.511-0.451l0.317-0.617h0.601
		L670.405,211.493z"/>
	<path id="SD-SI" fill="#1E3250" stroke="#1E3250" stroke-width="0.5" d="M496.338,393.359l1.166,1.567l1.486,0.703l0.603,2.761
		l0.94,1.76l0.628,0.131l0.749,1.646l0.992,0.801l1.805-0.354l0.23,0.401l1.409,0.684l0.931-0.234l0.876,0.303l2.015-0.201
		l0.638,2.394l-2.846,1.24l3.112,6.901l8.276,9.438l0.741-0.023l0.573,0.591l1.122,0.091l-0.207,0.556l1.093,1.907l2.774-0.338
		l0.344,0.304l0.569-0.232l1.065,0.264l0.535,0.667l0.533,0.073l0.307,0.573l-0.034,0.86l0.845,0.888l-0.246,1.002l2.669,1.575
		l0.383,0.533l-0.111,0.574l2.061,1.52l1.084,0.166l0.309,0.993l1.01,0.453l0.835-0.424l2.711,2.223l1.214-0.312l0.799,0.11
		l1.547,1.464l1.034,1.523l1.503,0.279l0.346,0.648l1.027,0.243l1.602,1.005l1.071,1.293l5.447,1.032l0.982-0.241l0.913,0.205
		l2.278-0.717l1.607,1.326l2.12,0.581l1.767,0.939l0,0l-0.498,0.709l0.263,0.729l-0.315,0.874l-0.719,0.382l-0.768-0.177
		l-8.887,15.313l0.467,0.657l-0.145,0.966l-0.572,0.494l-0.937-0.017l-2.808,4.936l0.463,0.811l-0.141,0.987l-0.674,0.428
		l-0.852-0.102l-1.104,3.129l-0.744,0.24l-6.517,4.963l-2.074,3.282l0.082,0.404l0,0l-6.239-9.248l0.62-1.611l-6.608-18.453
		l-2.344-1l-0.937-1.216l-6.528-1.571l-0.701,0.384l-1.83-0.982l-5.514,5.792l1.488,1.058l0.153,1.762l-9.387,5.791l-12.477,2.896
		l-25.573,16.612l0,0l2.887-17.705l1.873-2.295l-2.072,0.067l0,0l-2.745-9.634l-4.323-9.768l5.067-9.765l-3.65-4.092l-7.081-9.988
		l0.37-2.145l1.275-3.777l0.592-3.431l-0.977-1.585l0.433-0.979l-0.374-2.643l0,0l-0.607-3.889l0.92-2.381l1.647-1.389l1.402-0.697
		l1.882-0.45l-1.665-2.332l-0.383-4.796l0.507-1.192l0.445-2.421l1.995-0.087l-0.108,1.19l0.514,0.056l1.897-0.662l0.855-0.081
		l0.801,0.458l0.568-0.464l0.836,0.015l0.992,0.687l2.302,0.888l0.596,4.876l4.316,0.268l-0.13,0.557l-1.745,0.891l0.289,0.709
		l0.8,0.341l1.157-0.408l1.741-1.734l4.319-0.224l0.032-1.475l-1.388-1.462l0.652-0.418h1.062l0.571-0.585l-1.102-2.299l0.14-0.353
		l1.492-0.274l0.367-0.502l0.041-1.607l2.488,0.441l0.416,1.649L496.338,393.359z"/>
</g>
</svg>
