<?xml version="1.0" encoding="utf-8"?>
<!-- Generator: Adobe Illustrator 15.0.0, SVG Export Plug-In . SVG Version: 6.00 Build 0)  -->
<!DOCTYPE svg PUBLIC "-//W3C//DTD SVG 1.1//EN" "http://www.w3.org/Graphics/SVG/1.1/DTD/svg11.dtd">
<svg version="1.1" id="Layer_1" xmlns:amcharts="http://amcharts.com/ammap"
	 xmlns="http://www.w3.org/2000/svg" xmlns:xlink="http://www.w3.org/1999/xlink" x="0px" y="0px" width="648.5px" height="826.5px"
	 viewBox="0 0 648.5 826.5" enable-background="new 0 0 648.5 826.5" xml:space="preserve">
<defs>
	
	
		<amcharts:ammap  projection="mercator" leftLongitude="30.790800" topLatitude="-25.718696" rightLongitude="32.136840" bottomLatitude="-27.317645">
		</amcharts:ammap>
</defs>
<g>
	<path id="SZ-HH" fill="#1E3250" stroke="#1E3250" stroke-width="0.5" d="M357.968,54.455l76.269,52.486l0,0l-6.377,9.834
		l-25.14-1.378l-10.105-4.566l-2.54,2.28l1.833,53.139l4.662,36.059l-1.239,16.718l0,0l-21.224,4.642l-7.837,0.328l-4.592-2.001
		l-10.032-0.15l-15.478,5.447l-0.534,2.088l2.684,3.616l0.04,7.21l-16.327,21.941l-10.624,2.85l-1.768-1.372l-0.338-2.859
		l-2.737,0.417l-19.2,11.832l-5.131,7.345l-9.129,1.996l-13.957-6.491l-3.083,3.067l-1.222,4.721l-4.901,6.784l-25.342,7.177
		l-4.849,2.747l-2.286,3.218l-6.909,26.313l-2.722,19.3l0.411,5.572l-3.881,16.204l-8.803-1.639l-16.394-6.179l-16.362-1.269
		l-16.487-5.634l-8.708,2.729l-13.058-2.882l-11.89-22.993l-54.742-28.511l-7.567-4.936l-2.662-5.099l0,0l28.353-26.823
		l48.843-96.011l18.587-41.797l6.159-30.276l61.053-54.931l23.337-32.774L278.745,0L357.968,54.455z"/>
	<path id="SZ-LU" fill="#1E3250" stroke="#1E3250" stroke-width="0.5" d="M446.545,115.389l33.432,22.935l50.539-24.467
		l10.18,19.885l10.873,3.807l26.396,6.347l4.211,30.319l4.849,46.2l-14.773,72.413l0.789,25.535l1.572,22.251l25.17,62.623
		l-1.597,151.128l-6.036-0.969l-4.982-8.554l-1.418-5.826l-3.105-2.334l-12.036,2.587l-4.902,3.655l-2.776,0.602l-3.824-0.671
		l-4.536-4.808l-2.317-0.67l-8.365,2.101l2.047,4.797l-8.869,51.814l2.01,6.916l-7.144,31.407l1.012,2.497l-0.807,16.122
		l-4.612,38.722l1.109,7.052l-1.31,8.888l0.318,8.483l0,0l-32.112-0.535l2.847-8.984l-21.546-1.138l0.479-18.053l-21.286-8.604
		l-17.684-15.269l-4.357-11.567l-28.351,4.604l-3.66-2.599l-33.638-14.19l-7.436-17.633l-4.838-0.451l-3.537,1.122l-18.568-4.071
		l-12.906-12.062l-0.717-9.361l-10.351-9.486l7.56-7.975l4.992-8.543l6.389-14.508l12.288-38.431l-30.196,5.885l-3.378-4.129l0,0
		l0.442-13.96l1.909-6.441l9.647-17.004l2.037-12.682l9.338-2.343l28.242-15.628l-3.335-33.722l-7.357-18.181l17.658-5.507
		l-1.763-35.151l-4.297-13.15l0.831-2.711l20.777-24.826l9.963-8.062l6.339-12.794l1.907-28.774l3.735-10.269l-8.378-39.966l0,0
		l1.239-16.718l-4.662-36.059l-1.833-53.139l2.54-2.28l10.105,4.566l25.14,1.378l6.377-9.834l0,0L446.545,115.389z"/>
	<path id="SZ-MA" fill="#1E3250" stroke="#1E3250" stroke-width="0.5" d="M395.33,219.027l8.378,39.966l-3.735,10.269l-1.907,28.774
		l-6.339,12.794l-9.963,8.062l-20.777,24.826l-0.831,2.711l4.297,13.15l1.763,35.151l-17.658,5.507l7.357,18.181l3.335,33.722
		l-28.242,15.628l-9.338,2.343l-2.037,12.682l-9.647,17.004l-1.909,6.441l-0.442,13.96l0,0l-12.946-7.771l-4.67-0.8l-21.507,10.851
		l-3.52,11.479l-22.094-0.689l-6.914,4.07l-3.489,4.346l1.996,9.153l-8.828,10.424l-4.232,1.849l-20.515-18.386l-8.701-5.616
		l-3.132-0.697l-22.038,13.261l-15.93,13.022l-9.018,3.015l-10.339,6.768l-4.271,9.775l-5.169,1.254l-1.496-4.982l3.743-4.795
		l0.34-11.733l-9.179-8.57l-2.96-6.318l1.831-0.846l2.213-7.086l-1.741-18.588l-46.196,9.009l-2.209-4.817l1.001-4.565l-1.585-0.927
		l-5.252,1.573l-2.656,4.125l-7.059,0.795l-4.108-2.939l-1.937,2.189l0,0l-2.07,9.154l-27.819,18.291l-5.187,2.021l-4.71-10.163
		L0.04,492.237l0.383-71.202l5.931-51.918l11.565-27.475l11.831-13.547l15.286-31.149l2.653-2.389l0,0l2.662,5.099l7.567,4.936
		l54.742,28.511l11.89,22.993l13.058,2.882l8.708-2.729l16.487,5.634l16.362,1.269l16.394,6.179l8.803,1.639l3.881-16.204
		l-0.411-5.572l2.722-19.3l6.909-26.313l2.286-3.218l4.849-2.747l25.342-7.177l4.901-6.784l1.222-4.721l3.083-3.067l13.957,6.491
		l9.129-1.996l5.131-7.345l19.2-11.832l2.737-0.417l0.338,2.859l1.768,1.372l10.624-2.85l16.327-21.941l-0.04-7.21l-2.684-3.616
		l0.534-2.088l15.478-5.447l10.032,0.15l4.592,2.001l7.837-0.328L395.33,219.027z"/>
	<path id="SZ-SH" fill="#1E3250" stroke="#1E3250" stroke-width="0.5" d="M307.634,520.198l3.378,4.129l30.196-5.885l-12.288,38.431
		l-6.389,14.508l-4.992,8.543l-7.56,7.975l10.351,9.486l0.717,9.361l12.906,12.062l18.568,4.071l3.537-1.122l4.838,0.451
		l7.436,17.633l33.638,14.19l3.66,2.599l28.351-4.604l4.357,11.567l17.684,15.269l21.286,8.604l-0.479,18.053l21.546,1.138
		l-2.847,8.984l32.112,0.535l0,0l1.022,28.604l-0.605,43.852l0.896,3.367l-215.719-1.177l-152.915-56.389l-39.76-52.699
		l-17.634-14.194l-16.488-15.33l-11.78-22.314l6.855-13.738l1.253-5.51l0.133-15.821l-1.453-6.661l-13.613-9.94l-1.012-2.143
		L51.97,564.172l-0.209-2.479l-2.095-1.56l-4.136-23.094l-0.463-10.01l0,0l1.937-2.189l4.108,2.939l7.059-0.795l2.656-4.125
		l5.252-1.573l1.585,0.927l-1.001,4.565l2.209,4.817l46.196-9.009l1.741,18.588l-2.213,7.086l-1.831,0.846l2.96,6.318l9.179,8.57
		l-0.34,11.733l-3.743,4.795l1.496,4.982l5.169-1.254l4.271-9.775l10.339-6.768l9.018-3.015l15.93-13.022l22.038-13.261l3.132,0.697
		l8.701,5.616l20.515,18.386l4.232-1.849l8.828-10.424l-1.996-9.153l3.489-4.346l6.914-4.07l22.094,0.689l3.52-11.479l21.507-10.851
		l4.67,0.8L307.634,520.198z"/>
</g>
</svg>
