<?xml version="1.0" encoding="utf-8"?>
<!-- Generator: Adobe Illustrator 15.0.0, SVG Export Plug-In . SVG Version: 6.00 Build 0)  -->
<!DOCTYPE svg PUBLIC "-//W3C//DTD SVG 1.1//EN" "http://www.w3.org/Graphics/SVG/1.1/DTD/svg11.dtd">
<svg version="1.1" id="Layer_1" xmlns:amcharts="http://amcharts.com/ammap"
	 xmlns="http://www.w3.org/2000/svg" xmlns:xlink="http://www.w3.org/1999/xlink" x="0px" y="0px" width="872.5px" height="802.5px"
	 viewBox="0 0 872.5 802.5" enable-background="new 0 0 872.5 802.5" xml:space="preserve">
<defs>
	
	
		<amcharts:ammap  projection="mercator" leftLongitude="29.3399999" topLatitude="-0.984397" rightLongitude="40.4449653" bottomLatitude="-11.761254">
		</amcharts:ammap>
</defs>
<g>
	<path id="TZ-29" fill="#1E3250" stroke="#1E3250" stroke-width="0.5" d="M434.39,577.62l-12.06,1.34l-6.01-17.83l-27.39-12.83
		l-18.48,16.01l-44.66,6.4l-0.35,21.66l16.53,21.75l32.05,36.33l3.97,38.17l38.72-24.86l6.94-10.89l-6.62-20.561l41.17-30.59
		L434.39,577.62z"/>
	<path id="TZ-27" fill="#1E3250" stroke="#1E3250" stroke-width="0.5" d="M229.36,157.76l6.2-17.08l-16.98-18.01l3.84-7.28
		l-33.14-15.78l-5.4-17.32L166.4,97.26l-33.53-5.51l-20.96,29.08l7.7,11.11l31.2,109.2l19.04-10.37l0.64-12.55l10.38-21.24
		l21.47-5.06l3.36-28.81L229.36,157.76z"/>
	<path id="TZ-30" fill="#1E3250" stroke="#1E3250" stroke-width="0.5" d="M423.05,106.66l-39.48,0.3l-44.68-25.79l-48.66,2.55
		l30.83,38.78l-19.71,9.2l-6.46,31.54l52.81,19.87l18.28,29.56l24.97-11.45l9.47-14.75l0.63-51.34l15.91,2.62L423.05,106.66z"/>
	<path id="TZ-28" fill="#1E3250" stroke="#1E3250" stroke-width="0.5" d="M125.36,323.48l-7.53-17.181l-16.33-4.98l-51.89,10.34
		L77.32,388.1L46.86,417.7l23.36,25.06l43.82-17.89l12.52,22.86l25.81,6.3l3.91,29.2l37.15,5.859l18.94-41.939l20.03-7.7
		l11.71-50.98l-36.77-21.21l-11.26-24.42l-55.42,2.49L125.36,323.48z"/>
	<path id="TZ-25" fill="#1E3250" stroke="#1E3250" stroke-width="0.5" d="M681.06,357l30.25-89.89l-57.84-42.99l-27.739,37.36
		l1.38,25.96l-32.841-1.49l-38.14,64.18l7.74,17.55l15.97-23.22l17.021,13.78l12.47-6.181L681.06,357z"/>
	<path id="TZ-13" fill="#1E3250" stroke="#1E3250" stroke-width="0.5" d="M336.33,0h-91.76l-1.32,33.49l54.02,3.77l-12.44,28.82
		l20.86,4.65l-25.45,4l9.99,8.99l48.66-2.55l44.68,25.79l39.48-0.3l9.62-17.98l-6.83-38.09L336.33,0z"/>
	<path id="TZ-09" fill="#1E3250" stroke="#1E3250" stroke-width="0.5" d="M582.24,137.98l-20.37-4.7l-16.62,10.06l11,35.51
		l16.2,0.26l11.62,20l5.76,48.07l35.9,14.3l27.739-37.36l-58.68-43.65l4.39-31.86L582.24,137.98z"/>
	<path id="TZ-26" fill="#1E3250" stroke="#1E3250" stroke-width="0.5" d="M625.73,261.48l-35.9-14.3l-5.76-48.07l-11.62-20
		l-16.2-0.26L521.4,191.4l-3.33,30l-13.5,2.98l-28.91-34.46l-13.771,13.24l-0.229-18.78l-13.13,14.27l-13.141-10.21L400.4,208.97
		l8.97,14.26l-10.62,19.7l33.88,34.1l12.16,0.51l9.38-27.3l47.28-21.45l-3.95,91.74l44.34,39.29l14.29-9.69l38.14-64.18l32.841,1.49
		L625.73,261.48z"/>
	<path id="TZ-01" fill="#1E3250" stroke="#1E3250" stroke-width="0.5" d="M582.24,137.98l-156.4-87.39l6.83,38.09l-9.62,17.98
		l-6.09,31.09l-15.91-2.62l-0.63,51.34l-9.47,14.75l9.45,7.75l34.989-20.53l13.141,10.21l13.13-14.27l0.229,18.78l13.771-13.24
		l28.91,34.46l13.5-2.98l3.33-30l34.85-12.55l-11-35.51l16.62-10.06L582.24,137.98z"/>
	<path id="TZ-23" fill="#1E3250" stroke="#1E3250" stroke-width="0.5" d="M400.4,208.97l-9.45-7.75l-24.97,11.45l-8.91,5.44
		l-25.15,39.42l-0.66,40.84l21.68,17.27l-12.52,14.681l-2.99,45.16l-35.67,29.029l-2.42,23.3l32.58,40.261l56.17-24.75
		l14.271-19.351l11.59,2.221l18.51-88.16l-19.27-39.76l19.439-21.24l-33.88-34.1l10.62-19.7L400.4,208.97z"/>
	<path id="TZ-21" fill="#1E3250" stroke="#1E3250" stroke-width="0.5" d="M584.14,775.77l46.15-34.17l-7.21-32.14l-19.78-28.51
		l-60.78-19.51l19.53-43.61l-45.92,29.13l-1.64-29.75l-8.36,12.72l-46.399,3.66l13.029-42.87l-14.56,11l-41.17,30.59l6.62,20.561
		l-6.94,10.89l-38.72,24.86l2.4,41.7L405.6,764.85l43.931,2.311l17.96-14.05l26.81,21.12l59.8-10.021L584.14,775.77z"/>
	<path id="TZ-17" fill="#1E3250" stroke="#1E3250" stroke-width="0.5" d="M630.29,741.6l28.65,11.511L767.8,709.03l31.69-34.021
		l-33.971-12.2l-19.42,11.08l-5.33,19.341L723.92,674.3l-100.84,35.16L630.29,741.6z"/>
	<path id="TZ-12" fill="#1E3250" stroke="#1E3250" stroke-width="0.5" d="M715.84,527.5l-53.729,12.8l-17.761-23.16l-35.04-16.859
		l-31.069,40.34l-0.65,46.729l-15.54,30.48l-19.53,43.61l60.78,19.51l19.78,28.51l100.84-35.16l16.85,18.931l5.33-19.341
		l19.42-11.08l-6.25-11.92l-14.26,2.08l7.891-16.01l-16.75-27.41l5.479-18.81l-18.32-21.101l11.851,1.7L720.85,556.2L715.84,527.5z"
		/>
	<path id="TZ-04" fill="#1E3250" stroke="#1E3250" stroke-width="0.5" d="M413.95,426.19l-11.59-2.221L388.09,443.32l-56.17,24.75
		l-5.91,24.12l39.86-1.021l46.84,15.8l-25.28,25.891l1.5,15.439l27.39,12.83l6.01,17.83l12.06-1.34l-1.739-23.29l20.54,3.1
		l3.05,9.17l3.43-15.989l45.2-44.011l30.09-5.39l14.54-21.92l-32.39-11.09l-2.841-9.44l-26.42-17.72L413.95,426.19z"/>
	<path id="TZ-03" fill="#1E3250" stroke="#1E3250" stroke-width="0.5" d="M541.84,359.82l-44.34-39.29l3.95-91.74l-47.28,21.45
		l-9.38,27.3l-12.16-0.51l-19.439,21.24l19.27,39.76l-18.51,88.16l73.899,14.85l26.42,17.72L541.84,359.82z"/>
	<path id="TZ-15" fill="#1E3250" stroke="#1E3250" stroke-width="0.5" d="M715.08,362.12l-5.47-0.03l7.92,15.32L715.08,362.12z"/>
	<path id="TZ-07" fill="#1E3250" stroke="#1E3250" stroke-width="0.5" d="M723.45,359.7l-5.54-20.36l-8.3,22.75l5.47,0.03
		L723.45,359.7z"/>
	<path id="TZ-19" fill="#1E3250" stroke="#1E3250" stroke-width="0.5" d="M759.56,486.55l0.16-8.439L737.57,500.43l16.949-2.279
		L759.56,486.55z M681.06,357l-71.729-4.94l18.35,25.801l-2.43,28.1l20.15,3.7l-1.28,13.99l16.49,11.409l-15.29,19.98l4.149,14.69
		l-32.96,5.149l-7.2,25.4l35.04,16.859l17.761,23.16l53.729-12.8l12.19-22.36l-2.96-15.83l-11.53,2.261l13.08-46.471L721.1,429.07
		l-23.75,5.239l7.16-34.239l-18.819-13.41L681.06,357z"/>
	<path id="TZ-10" fill="#1E3250" stroke="#1E3250" stroke-width="0.5" d="M756.86,300.67l-8.141-1.48l-6.649,2.09l9.41,3.5
		l-9.36,7.15l5.63,8.351L756.86,300.67z"/>
	<path id="TZ-06" fill="#1E3250" stroke="#1E3250" stroke-width="0.5" d="M756.86,300.67l0.01-20.56l-2.47,6.97l-9.87-7.46
		l4.189,19.57L756.86,300.67z"/>
	<path id="TZ-16" fill="#1E3250" stroke="#1E3250" stroke-width="0.5" d="M609.33,352.06l-12.47,6.181l-17.021-13.78l-15.97,23.22
		l-7.74-17.55l-14.29,9.69l-27.57,98.939l2.841,9.44l32.39,11.09l-14.54,21.92l-30.09,5.39l-45.2,44.011l-3.43,15.989l-3.05-9.17
		l-20.54-3.1l1.739,23.29l23.811,24.1l14.56-11l-13.029,42.87l46.399-3.66l8.36-12.72l1.64,29.75l45.92-29.13l15.54-30.48
		l0.65-46.729l31.069-40.34l7.2-25.4l32.96-5.149l-4.149-14.69l15.29-19.98l-16.49-11.409l1.28-13.99l-20.15-3.7l2.43-28.1
		L609.33,352.06z"/>
	<path id="TZ-02" fill="#1E3250" stroke="#1E3250" stroke-width="0.5" d="M726.62,445.1l8.32-13.6l-30.431-31.43l-7.16,34.239
		l23.75-5.239L726.62,445.1z"/>
	<path id="TZ-08" fill="#1E3250" stroke="#1E3250" stroke-width="0.5" d="M150.81,241.14l-31.2-109.2l-11.73,10.91l-1.37,20.44
		l-26.39,19.94l-30.83,51.84l-19.4,13.78l-23.6-0.97l-5.78,33.89l20.73,56.56L15,379.39L46.86,417.7L77.32,388.1L49.61,311.66
		l51.89-10.34l16.33,4.98l7.53,17.181l12.07-5.16l-0.2-33.74l18.92-24.4L150.81,241.14z"/>
	<path id="TZ-05" fill="#1E3250" stroke="#1E3250" stroke-width="0.5" d="M244.57,0L83.04,4.53l25.72,37.97l4.07,35.08L109,96.47
		l-23.43,8.49l-6.63,27.91l28.94,9.98l11.73-10.91l-7.7-11.11l20.96-29.08l33.53,5.51l17.48-14.97l59.37-48.8L244.57,0z"/>
	<path id="TZ-24" fill="#1E3250" stroke="#1E3250" stroke-width="0.5" d="M357.07,218.11l-49.79-11.29l-52.55,2.23l-10.82,4.97
		l0.03,19.66l-13.24-5.02l-8.76,14l-31.27,3.8l-0.89-20.6l-19.29-7.64l-0.64,12.55l-19.04,10.37l5.34,19.04l-18.92,24.4l0.2,33.74
		l-12.07,5.16l15.3,21.85l55.42-2.49l11.26,24.42l36.77,21.21l-11.71,50.98l34.71-17.13l32.23,5.489l2.42-23.3l35.67-29.029
		l2.99-45.16l12.52-14.681l-21.68-17.27l0.66-40.84L357.07,218.11z"/>
	<path id="TZ-22" fill="#1E3250" stroke="#1E3250" stroke-width="0.5" d="M294.89,163.24l-22.48,11.41l-24.1-12.12l-8.98,13.13
		l-9.97-17.9l-23.66,5.35l-3.36,28.81l-21.47,5.06l-10.38,21.24l19.29,7.64l0.89,20.6l31.27-3.8l8.76-14l13.24,5.02l-0.03-19.66
		l10.82-4.97l52.55-2.23l49.79,11.29l8.91-5.44l-18.28-29.56L294.89,163.24z"/>
	<path id="TZ-18" fill="#1E3250" stroke="#1E3250" stroke-width="0.5" d="M290.23,83.72l-9.99-8.99l25.45-4l-20.86-4.65l12.44-28.82
		l-54.02-3.77l-59.37,48.8l5.4,17.32l33.14,15.78l-3.84,7.28l16.98,18.01l-6.2,17.08l9.97,17.9l8.98-13.13l24.1,12.12l22.48-11.41
		l6.46-31.54l19.71-9.2L290.23,83.72z"/>
	<path id="TZ-11" fill="#1E3250" stroke="#1E3250" stroke-width="0.5" d="M717.53,377.41l18.77,12.66l-12.85-30.37l-8.37,2.42
		L717.53,377.41z"/>
	<path id="TZ-20" fill="#1E3250" stroke="#1E3250" stroke-width="0.5" d="M193.43,489.09l-37.15-5.859l-3.91-29.2l-25.81-6.3
		l-12.52-22.86l-43.82,17.89l47.77,101.57l28.27,2.67l22.94,23.67l33.96,11.43l-9.81-20.909l19.99-15.511l1.98-19.449l13.42-6.28
		l17.83,18.56l-20.51-30.37L193.43,489.09z"/>
	<path id="TZ-14" fill="#1E3250" stroke="#1E3250" stroke-width="0.5" d="M299.34,427.81l-32.23-5.489l-34.71,17.13l-20.03,7.7
		l-18.94,41.939l32.63,19.05l20.51,30.37l-17.83-18.56l-13.42,6.28l-1.98,19.449l-19.99,15.511l9.81,20.909l92.88,40.12l21.23-2.72
		l12.73,9.75l11.97-15.13l-16.53-21.75l0.35-21.66l44.66-6.4l18.48-16.01l-1.5-15.439l25.28-25.891l-46.84-15.8l-39.86,1.021
		l5.91-24.12L299.34,427.81z"/>
</g>
</svg>
