<?xml version="1.0" encoding="utf-8"?>
<!-- Generator: Adobe Illustrator 15.0.0, SVG Export Plug-In . SVG Version: 6.00 Build 0)  -->
<!DOCTYPE svg PUBLIC "-//W3C//DTD SVG 1.1//EN" "http://www.w3.org/Graphics/SVG/1.1/DTD/svg11.dtd">
<svg version="1.1" id="Layer_1" xmlns:amcharts="http://amcharts.com/ammap"
	 xmlns="http://www.w3.org/2000/svg" xmlns:xlink="http://www.w3.org/1999/xlink" x="0px" y="0px" width="1024px" height="872.5px"
	 viewBox="0 0 1024 872.5" enable-background="new 0 0 1024 872.5" xml:space="preserve">
<defs>
	
	
		<amcharts:ammap  projection="mercator" leftLongitude="29.573433" topLatitude="4.218628" rightLongitude="35.033049" bottomLatitude="-1.482318">
		</amcharts:ammap>
</defs>
<g>
	<path id="UG-223" fill="#1E3250" stroke="#1E3250" stroke-width="0.5" d="M800.15,477.43l-22.141,2.37l-13.77,12.851l29.41-0.12
		L800.15,477.43z"/>
	<path id="UG-329" fill="#1E3250" stroke="#1E3250" stroke-width="0.5" d="M460.58,237.76l-66.8-9.93l-47.68,26.46l15.31,18.8
		l-26.78,45.7l29.48-14.47l30.85-3.02l18.18-10.15l56.12,16.26l-2.66-30.01l17.73-1.35l-27.39-21.2L460.58,237.76z"/>
	<path id="UG-325" fill="#1E3250" stroke="#1E3250" stroke-width="0.5" d="M210.65,677.44l-26.53-6.511l-26.17,14.12l-1.15,16.181
		l27.73,10.979l21.18-6.78L210.65,677.44z"/>
	<path id="UG-425" fill="#1E3250" stroke="#1E3250" stroke-width="0.5" d="M176.66,750.92l22.44-18.35l6.61-27.141l-21.18,6.78
		l-1.73,18.49l-21.96,2.31l3.25,13.48L176.66,750.92z"/>
	<path id="UG-422" fill="#1E3250" stroke="#1E3250" stroke-width="0.5" d="M160.84,733.01l-32.78-18.88l-4.31,17.15l21.33,20.39
		l19.01-5.18L160.84,733.01z"/>
	<path id="UG-424" fill="#1E3250" stroke="#1E3250" stroke-width="0.5" d="M166.92,651.44l-29.77,13.96l-47.57-5.33l-5.51,32.41
		l39.79,6.439l32.94,2.311l1.15-16.181l26.17-14.12l-10.85-13.51L166.92,651.44z"/>
	<path id="UG-122" fill="#1E3250" stroke="#1E3250" stroke-width="0.5" d="M400.56,632.39l-21.29,0.44l10.64,45.54l37.31-4.68
		l-5.72-15.261l-11.76-17.58L400.56,632.39z"/>
	<path id="UG-118" fill="#1E3250" stroke="#1E3250" stroke-width="0.5" d="M379.27,632.83l-8.4-0.33l2.27,45.87h16.77L379.27,632.83
		z"/>
	<path id="UG-116" fill="#1E3250" stroke="#1E3250" stroke-width="0.5" d="M324.7,678.18l1.4-27.229l-30.93-4.641l8.41,71.261
		l15.05-9.471L324.7,678.18z"/>
	<path id="UG-124" fill="#1E3250" stroke="#1E3250" stroke-width="0.5" d="M373.14,678.37l-48.44-0.19l-6.07,29.92l32.72,20.561
		l23.89-19.7l14.67-30.59H373.14z"/>
	<path id="UG-324" fill="#1E3250" stroke="#1E3250" stroke-width="0.5" d="M840.38,437.78l29.14-44.8l-8.289-78.78L849.34,328.6
		l-7.77,63.631L819.26,412.88l15.45,17.88L840.38,437.78z"/>
	<path id="UG-328" fill="#1E3250" stroke="#1E3250" stroke-width="0.5" d="M836.54,273.91l-16.17-23.11l-57.88-28.27l-3.78,15.95
		l-38.68,0.3l-1.87,15.57l8.17,16.87l-52.25,6.77l-1.98,14.16l12.65-7.74l26.79,16l43.77,28.43l1.311,23.09l57.39-18.38l4.95-58.7
		L836.54,273.91z"/>
	<path id="UG-230" fill="#1E3250" stroke="#1E3250" stroke-width="0.5" d="M719.58,610.52l-9.97-40.529l-30.601,22.42L674.54,629
		l12.71,16.76L671.22,655v132.39h40.11l7.26-124.899l-9.28-35.98L719.58,610.52z"/>
	<path id="UG-225" fill="#1E3250" stroke="#1E3250" stroke-width="0.5" d="M781.04,410.47l-21.79,0.221l-2.29,46.26l45.65,11.689
		l-31.681-23.42l18.28-18.31L781.04,410.47z"/>
	<path id="UG-228" fill="#1E3250" stroke="#1E3250" stroke-width="0.5" d="M819.26,412.88l-38.22-2.41l8.17,16.44l19.64,10.63
		l-2.67,25.479l28.53-32.26L819.26,412.88z"/>
	<path id="UG-421" fill="#1E3250" stroke="#1E3250" stroke-width="0.5" d="M315.3,548.13l-40.8-11.11l-7.88,41.75l-4.56,33.65
		l21.79-2.439l1.18-0.65l18.99-40.98l15.66-5.72L315.3,548.13z"/>
	<path id="UG-423" fill="#1E3250" stroke="#1E3250" stroke-width="0.5" d="M217.21,481.6l0.82-38.5l-46.35,29.4l-8.16,26.71
		l10.1,14.97l-12.03,20.36l52.53-39.94L217.21,481.6z"/>
	<path id="UG-420" fill="#1E3250" stroke="#1E3250" stroke-width="0.5" d="M469.26,307.41l-56.12-16.26l-18.18,10.15l-0.68,35.07
		l18.37,14.149l4.24,40.29l29.03,3.69l35.33-29.79l0.78-30.17L469.26,307.41z"/>
	<path id="UG-322" fill="#1E3250" stroke="#1E3250" stroke-width="0.5" d="M659.18,158.25l-23.66-4.54l-4.31,15.27l-21.46,1.17
		l-8.67,25.12l-6.45,18.1l20.23,6.9l-5.601,15.08l-22.81,5.17l10.689,14.57l59.71,2.27l10.24-27.55l-7.17-60.8L659.18,158.25z"/>
	<path id="UG-330" fill="#1E3250" stroke="#1E3250" stroke-width="0.5" d="M656.85,257.36l-59.71-2.27l-16.779,11.59l-7.25,11.75
		L658.6,292.8l13.5-0.65l1.98-14.16L656.85,257.36z"/>
	<path id="UG-323" fill="#1E3250" stroke="#1E3250" stroke-width="0.5" d="M658.6,292.8l-85.489-14.37l-11.2,14.65l24.97,14.22
		l3.96,28.181l30.24,3.949l11.78,2.971L658.6,292.8z"/>
	<path id="UG-326" fill="#1E3250" stroke="#1E3250" stroke-width="0.5" d="M550.64,329.52l-0.26-54.24l-33.76,16.39l-4.71,27.01
		L550.64,329.52z"/>
	<path id="UG-302" fill="#1E3250" stroke="#1E3250" stroke-width="0.5" d="M550.64,329.52L511.91,318.68l-11.641,19.11l-18.239-3.25
		l-0.78,30.17l-35.33,29.79l0.39,2.63l29.25-0.12l42.971-0.479l26.3-22.05l31.8,12.68l5.21-15.01L558.8,352.63l2.92-18.39
		L550.64,329.52z"/>
	<path id="UG-327" fill="#1E3250" stroke="#1E3250" stroke-width="0.5" d="M617.02,86.72L577.79,67.26l-92.08,22.79l-28.84,30.07
		L483.6,155.6l23.221,22.25l39.41-6.51l-1.961-31.25l56.811-21.13l18.51,15.53L617.02,86.72z"/>
	<path id="UG-123" fill="#1E3250" stroke="#1E3250" stroke-width="0.5" d="M404.8,439.95l-45.42-0.63l-32.87,21.77l33.98,27.41
		l-12.25,24.42l34.83-0.67l40.98-35.02L404.8,439.95z"/>
	<path id="UG-319" fill="#1E3250" stroke="#1E3250" stroke-width="0.5" d="M456.87,120.12l-17.92-4.77l-18.15,77.19l-55.35,24.63
		l-22.49-12.74l-1.38,25.06l4.52,24.8l47.68-26.46l66.8,9.93l-3.3-47.729l26.32-34.43L456.87,120.12z"/>
	<path id="UG-121" fill="#1E3250" stroke="#1E3250" stroke-width="0.5" d="M404.68,598.1l-36.29-8.029l-35.36,20.17l37.84,22.26
		l8.4,0.33l21.29-0.44l51.21-30.279L404.68,598.1z"/>
	<path id="UG-119" fill="#1E3250" stroke="#1E3250" stroke-width="0.5" d="M409.74,640.85l60.21-40.43l-18.18,1.69l-51.21,30.279
		L409.74,640.85z"/>
	<path id="UG-120" fill="#1E3250" stroke="#1E3250" stroke-width="0.5" d="M635.18,595.21l-16.81-7.01l-62.66,119.6v79.59h85.271
		L635.18,595.21z"/>
	<path id="UG-117" fill="#1E3250" stroke="#1E3250" stroke-width="0.5" d="M592.71,559.64l-9.85-6.3l-1.63,33.43L520.05,663.78
		h35.66v44.02l62.66-119.6L592.71,559.64z"/>
	<path id="UG-232" fill="#1E3250" stroke="#1E3250" stroke-width="0.5" d="M683.53,405.4l-30.37,0.949l-22.811-19.38l-14.63,2.58
		l-6.89,48.66l29,4.91l22.72,0.8L683.53,405.4z"/>
	<path id="UG-227" fill="#1E3250" stroke="#1E3250" stroke-width="0.5" d="M702.41,501.52l8.85-33.71l-39.87,11.811l16.19,22.32
		L702.41,501.52z"/>
	<path id="UG-217" fill="#1E3250" stroke="#1E3250" stroke-width="0.5" d="M744.55,475.67l-33.29-7.86l-8.85,33.71l33.21-14
		L744.55,475.67z"/>
	<path id="UG-226" fill="#1E3250" stroke="#1E3250" stroke-width="0.5" d="M572.93,422.79l-22.5-0.24l22.08,43.23l49.45,35.04
		l6.12-19.96l15.28-30.681l-5.53-7.06l-29-4.91L572.93,422.79z"/>
	<path id="UG-229" fill="#1E3250" stroke="#1E3250" stroke-width="0.5" d="M641.12,511.46l-13.04-30.6l-6.12,19.96l-11.18,40.029
		l43.55,18.311L641.12,511.46z"/>
	<path id="UG-224" fill="#1E3250" stroke="#1E3250" stroke-width="0.5" d="M756.96,456.95l2.29-46.26l-27.53,8.949l-17.09,36.641
		l27.95,10.06l5.95,2.16L756.96,456.95z"/>
	<path id="UG-231" fill="#1E3250" stroke="#1E3250" stroke-width="0.5" d="M710.1,398.5l-12.56-4.39l-14.01,11.29l-22.98,38.52
		l33.84,2.43L710.1,398.5z"/>
	<path id="UG-331" fill="#1E3250" stroke="#1E3250" stroke-width="0.5" d="M290.85,258.47l-12.11-21.87l-28.75,9.06l-8.87,34
		l23.74,16.66l14.17-10.81L290.85,258.47z"/>
	<path id="UG-414" fill="#1E3250" stroke="#1E3250" stroke-width="0.5" d="M121.8,793.5l-27.98-90.08l-11.88,1.48l-11.46,80.68
		l29.9,12.57L121.8,793.5z"/>
	<path id="UG-408" fill="#1E3250" stroke="#1E3250" stroke-width="0.5" d="M100.38,798.15l-29.9-12.57l3.88,58.62l36.39-9.5
		L100.38,798.15z"/>
	<path id="UG-404" fill="#1E3250" stroke="#1E3250" stroke-width="0.5" d="M127.45,856.65l51.89-47.17l-16.71,6.02l-16.05-15.73
		l-24.78-6.27l-21.42,4.65l10.37,36.55L127.45,856.65z"/>
	<path id="UG-410" fill="#1E3250" stroke="#1E3250" stroke-width="0.5" d="M249.17,728.85l6.55-15.8l-27.7-39.83l-17.37,4.221
		l-4.94,27.989l-6.61,27.141l-22.44,18.35l46.71,7.47l8.46-28.51L249.17,728.85z"/>
	<path id="UG-412" fill="#1E3250" stroke="#1E3250" stroke-width="0.5" d="M123.86,698.92l-39.79-6.439l-2.13,12.42l11.88-1.48
		l27.98,90.08l24.78,6.27l-1.5-48.1l-21.33-20.39l4.31-17.15L123.86,698.92z"/>
	<path id="UG-411" fill="#1E3250" stroke="#1E3250" stroke-width="0.5" d="M164.09,746.49l-19.01,5.18l1.5,48.1l16.05,15.73
		l16.71-6.02l25.02-13.131l19.01-37.96l-46.71-7.47L164.09,746.49z"/>
	<path id="UG-418" fill="#1E3250" stroke="#1E3250" stroke-width="0.5" d="M295.17,646.31l-11.32-36.329l-21.79,2.439l-30.72,3.29
		l13.29,6.35l-19.07,28.32l2.46,22.84l27.7,39.83l-6.55,15.8l14.74,13.261l30.86-6.24l8.81-18.3L295.17,646.31z"/>
	<path id="UG-417" fill="#1E3250" stroke="#1E3250" stroke-width="0.5" d="M249.17,728.85l-17.34,1.03l-8.46,28.51l-19.01,37.96
		l120.68-8.96l-30.27-51.52l-30.86,6.24L249.17,728.85z"/>
	<path id="UG-416" fill="#1E3250" stroke="#1E3250" stroke-width="0.5" d="M228.02,673.22l-2.46-22.84l19.07-28.32l-13.29-6.35
		l-35.84,28.23l9.34,18.779l-31.57-5.3l10.85,13.51l26.53,6.511L228.02,673.22z"/>
	<path id="UG-413" fill="#1E3250" stroke="#1E3250" stroke-width="0.5" d="M266.62,578.77l-49.08,17.2l-18-35.89l-9.76,46.17
		l-13.71-5.28l-9.15,50.471l6.35,5.979l31.57,5.3l-9.34-18.779l35.84-28.23l30.72-3.29L266.62,578.77z"/>
	<path id="UG-406" fill="#1E3250" stroke="#1E3250" stroke-width="0.5" d="M176.07,600.97l-30.83-15.31l-33.37,4.49l-22.29,69.92
		l47.57,5.33l29.77-13.96L176.07,600.97z"/>
	<path id="UG-402" fill="#1E3250" stroke="#1E3250" stroke-width="0.5" d="M156.8,701.23l-32.94-2.311l4.2,15.21l32.78,18.88
		l21.96-2.31l1.73-18.49L156.8,701.23z"/>
	<path id="UG-105" fill="#1E3250" stroke="#1E3250" stroke-width="0.5" d="M428.94,753.71v-53.1l12.02-9.311l-13.74-17.609
		l-37.31,4.68l-14.67,30.59l19.2,38.58L428.94,753.71z"/>
	<path id="UG-110" fill="#1E3250" stroke="#1E3250" stroke-width="0.5" d="M375.24,708.96l-23.89,19.7L318.63,708.1l-15.05,9.471
		l-8.81,18.3l30.27,51.52h103.9v-33.68l-34.5-6.17L375.24,708.96z"/>
	<path id="UG-311" fill="#1E3250" stroke="#1E3250" stroke-width="0.5" d="M849.34,328.6l-12.8-54.689l-17.58,0.94l-4.95,58.7
		l-57.39,18.38l-0.021,47.63l2.65,11.131l21.79-0.221l38.22,2.41l22.311-20.649L849.34,328.6z"/>
	<path id="UG-308" fill="#1E3250" stroke="#1E3250" stroke-width="0.5" d="M861.23,314.2l-6.881-56.07l-48.6-74.63l-23.45,2.33
		l-19.81,36.7l57.88,28.27l16.17,23.11l12.8,54.689L861.23,314.2z"/>
	<path id="UG-317" fill="#1E3250" stroke="#1E3250" stroke-width="0.5" d="M718.16,254.35l-15.2-7.62l-0.729-38.96l-25.311-17.85
		l1.21-18.36l-18.21-2.55l7.17,60.8l-10.24,27.55l17.23,20.63l52.25-6.77L718.16,254.35z"/>
	<path id="UG-315" fill="#1E3250" stroke="#1E3250" stroke-width="0.5" d="M726.32,20L655.9,84.1l31.75,61.7l94.649,40.03
		l23.45-2.33l-23.78-42.89l8.2-41.22l-42.29-15.92l7.73-14.59l-17.7-0.41L726.32,20z"/>
	<path id="UG-216" fill="#1E3250" stroke="#1E3250" stroke-width="0.5" d="M711.54,300.41l-26.79-16l-12.65,7.74l-13.5,0.65
		L632.86,342.4l10.68,19.43l12.83-18.49l40.939,44.87L711.54,300.41z"/>
	<path id="UG-306" fill="#1E3250" stroke="#1E3250" stroke-width="0.5" d="M782.3,185.83L687.65,145.8l-9.131,15l-19.34-2.55
		l0.74,10.76l18.21,2.55l-1.21,18.36l25.311,17.85l0.729,38.96l15.2,7.62l1.87-15.57l38.68-0.3l3.78-15.95L782.3,185.83z"/>
	<path id="UG-207" fill="#1E3250" stroke="#1E3250" stroke-width="0.5" d="M756.62,351.93l-1.311-23.09l-43.77-28.43l-14.23,87.8
		l0.23,5.9l12.56,4.39l46.5,1.06L756.62,351.93z"/>
	<path id="UG-212" fill="#1E3250" stroke="#1E3250" stroke-width="0.5" d="M749.54,517.85l-11.6-10.939l-32.36,32.07l13.54,17.729
		l25.689-0.78l24.24-26.109L749.54,517.85z"/>
	<path id="UG-214" fill="#1E3250" stroke="#1E3250" stroke-width="0.5" d="M667.84,574.65l-6.35-1.24l-26.311,21.8l5.801,192.18
		h30.239V655l16.03-9.24L674.54,629l4.47-36.59L667.84,574.65z"/>
	<path id="UG-219" fill="#1E3250" stroke="#1E3250" stroke-width="0.5" d="M737.94,506.91l-2.32-19.391l-33.21,14l-14.83,0.421
		l13.92,36.29l4.08,0.75L737.94,506.91z"/>
	<path id="UG-202" fill="#1E3250" stroke="#1E3250" stroke-width="0.5" d="M744.81,555.93l-25.689,0.78l-9.51,13.28l9.97,40.529
		L744.81,555.93z"/>
	<path id="UG-201" fill="#1E3250" stroke="#1E3250" stroke-width="0.5" d="M701.5,538.23l-30.46-6.37l-3.2,42.79l11.17,17.76
		l30.601-22.42l9.51-13.28l-13.54-17.729L701.5,538.23z"/>
	<path id="UG-221" fill="#1E3250" stroke="#1E3250" stroke-width="0.5" d="M793.65,492.53l-29.41,0.12l-14.7,25.199l19.51,11.971
		L793.65,492.53z"/>
	<path id="UG-209" fill="#1E3250" stroke="#1E3250" stroke-width="0.5" d="M748.53,468.5l-5.95-2.16l1.97,9.33l-8.93,11.85
		l2.32,19.391l11.6,10.939l14.7-25.199l13.77-12.851L748.53,468.5z"/>
	<path id="UG-215" fill="#1E3250" stroke="#1E3250" stroke-width="0.5" d="M802.61,468.64l-45.65-11.689l-8.43,11.55l29.479,11.3
		l22.141-2.37L802.61,468.64z"/>
	<path id="UG-218" fill="#1E3250" stroke="#1E3250" stroke-width="0.5" d="M840.38,437.78l-5.67-7.021l-28.53,32.26l1.71,15.79
		l35.021-20.43L840.38,437.78z"/>
	<path id="UG-206" fill="#1E3250" stroke="#1E3250" stroke-width="0.5" d="M806.18,463.02l2.67-25.479l-19.64-10.63l-18.28,18.31
		l31.681,23.42l-2.46,8.79l7.739,1.38L806.18,463.02z"/>
	<path id="UG-407" fill="#1E3250" stroke="#1E3250" stroke-width="0.5" d="M326.51,461.09l-109.3,20.51l-3.09,13l2.68,8.311
		l57.7,34.109l40.8,11.11l32.94-35.21l12.25-24.42L326.51,461.09z"/>
	<path id="UG-415" fill="#1E3250" stroke="#1E3250" stroke-width="0.5" d="M274.5,537.02l-57.7-34.109l-17.26,57.17l18,35.89
		l49.08-17.2L274.5,537.02z"/>
	<path id="UG-405" fill="#1E3250" stroke="#1E3250" stroke-width="0.5" d="M216.8,502.91l-2.68-8.311l-52.53,39.94l-25.36,41.39
		l-13.87-0.68l-10.49,14.9l33.37-4.49l30.83,15.31l13.71,5.28l9.76-46.17L216.8,502.91z"/>
	<path id="UG-403" fill="#1E3250" stroke="#1E3250" stroke-width="0.5" d="M336.95,383.81l-5.07-12.189l-37.02-2.9l-76.83,74.38
		l-0.82,38.5l109.3-20.51l32.87-21.77L336.95,383.81z"/>
	<path id="UG-401" fill="#1E3250" stroke="#1E3250" stroke-width="0.5" d="M161.59,534.54l12.03-20.36l-10.1-14.97l-34.77,19.15
		l-6.39,56.89l13.87,0.68L161.59,534.54z"/>
	<path id="UG-321" fill="#1E3250" stroke="#1E3250" stroke-width="0.5" d="M528.68,256.27l-26.149-0.61l-18.2,20.39l-17.73,1.35
		l2.66,30.01l12.771,27.13l18.239,3.25l11.641-19.11l4.71-27.01l33.76-16.39l-5.26-15.29L528.68,256.27z"/>
	<path id="UG-409" fill="#1E3250" stroke="#1E3250" stroke-width="0.5" d="M445.92,394.5l-29.03-3.69l-4.24-40.29l-18.37-14.149
		l0.68-35.07l-30.85,3.02l-0.92,31.35l15.54,21.21l-14.13,24.04l-27.65,2.89l22.43,55.511l45.42,0.63l20.21-17.51l21.3-25.311
		L445.92,394.5z"/>
	<path id="UG-312" fill="#1E3250" stroke="#1E3250" stroke-width="0.5" d="M601.08,195.27l-24.5-22.95l-8.96,9.54l-21.39-10.52
		l-39.41,6.51l31.979,59.52l-10.12,18.9l16.44,3.72l8.82-8.76l26.42,15.45l16.779-11.59l-10.689-14.57l22.81-5.17l5.601-15.08
		l-20.23-6.9L601.08,195.27z"/>
	<path id="UG-318" fill="#1E3250" stroke="#1E3250" stroke-width="0.5" d="M621.08,339.43l-30.24-3.949l-29.12-1.24l-2.92,18.39
		l23.04,19.521l-5.21,15.01l15.49-0.23L621.08,339.43z"/>
	<path id="UG-307" fill="#1E3250" stroke="#1E3250" stroke-width="0.5" d="M580.36,266.68l-26.42-15.45l-8.82,8.76l5.26,15.29
		l0.26,54.24l11.08,4.721l29.12,1.24l-3.96-28.181l-24.97-14.22l11.2-14.65L580.36,266.68z"/>
	<path id="UG-304" fill="#1E3250" stroke="#1E3250" stroke-width="0.5" d="M506.82,177.85L483.6,155.6l-26.32,34.43l3.3,47.729
		l-3.64,17.09l27.39,21.2l18.2-20.39l26.149,0.61l10.12-18.9L506.82,177.85z"/>
	<path id="UG-305" fill="#1E3250" stroke="#1E3250" stroke-width="0.5" d="M687.65,145.8L655.9,84.1l-38.881,2.62l2.57,47.771
		l-18.51-15.53l-56.811,21.13l1.961,31.25l21.39,10.52l8.96-9.54l24.5,22.95l8.67-25.12l21.46-1.17l4.31-15.27l23.66,4.54
		l19.34,2.55L687.65,145.8z"/>
	<path id="UG-115" fill="#1E3250" stroke="#1E3250" stroke-width="0.5" d="M490.75,479.21l-65.74-56.77l-20.21,17.51l19.25,37.28
		l13.29,28.619l25.9,14.94l-5.22,15.55l5.73,18.9l15.86,4.12l23.479-22.391L490.75,479.21z"/>
	<path id="UG-114" fill="#1E3250" stroke="#1E3250" stroke-width="0.5" d="M463.75,555.24l-5.73-18.9l-33.91,7.95l1.92,45.74
		l-21.35,8.069l47.09,4.011l18.18-1.69l-0.25-24.64L463.75,555.24z"/>
	<path id="UG-107" fill="#1E3250" stroke="#1E3250" stroke-width="0.5" d="M424.11,544.29l-41.04-32.04l-34.83,0.67l-32.94,35.21
		l4.38,14.5l-15.66,5.72l-18.99,40.98l48,0.91l35.36-20.17l36.29,8.029l21.35-8.069L424.11,544.29z"/>
	<path id="UG-104" fill="#1E3250" stroke="#1E3250" stroke-width="0.5" d="M545.85,480.57l-20.67-8.04l-2.35,24.7l-32.08-18.021
		l12.34,57.76L479.61,559.36l50.029-1.521l12.25-4.58l5.78-37.95L545.85,480.57z"/>
	<path id="UG-113" fill="#1E3250" stroke="#1E3250" stroke-width="0.5" d="M479.61,559.36l-15.86-4.12l5.95,20.54l25.99,10.979
		l-31.311,45.7l3.13,30.63l36.07,0.69l18.92-24.36l6.26-42l-20.71-2.31l3.76-26.521l16.261-2.979l1.569-7.771L479.61,559.36z"/>
	<path id="UG-109" fill="#1E3250" stroke="#1E3250" stroke-width="0.5" d="M475.56,397.01l-29.25,0.12l-21.3,25.311l65.74,56.77
		l32.08,18.021l2.35-24.7l20.67,8.04l-13.59-57.33L475.56,397.01z"/>
	<path id="UG-103" fill="#1E3250" stroke="#1E3250" stroke-width="0.5" d="M458.02,536.34l5.22-15.55l-25.9-14.94l-13.29-28.619
		l-40.98,35.02l41.04,32.04L458.02,536.34z"/>
	<path id="UG-102" fill="#1E3250" stroke="#1E3250" stroke-width="0.5" d="M528.76,597.42l-0.689-31.81l-16.261,2.979l-3.76,26.521
		L528.76,597.42z"/>
	<path id="UG-320" fill="#1E3250" stroke="#1E3250" stroke-width="0.5" d="M291.65,151.72l-21.91-10.77l-20.83,38.72l22.43,0.92
		L291.65,151.72z"/>
	<path id="UG-313" fill="#1E3250" stroke="#1E3250" stroke-width="0.5" d="M374.13,95.08l-15.97,5.48l-42.79-19.55l-21.52,8.94
		l-2.2,61.77l22.34-3.229l45.19,31.9l1.78-3.85l-8.94-46.2L374.13,95.08z"/>
	<path id="UG-309" fill="#1E3250" stroke="#1E3250" stroke-width="0.5" d="M434.24,111.39l-35.52-33.84l-24.59,17.53l-22.11,35.26
		l8.94,46.2l24.85-50.39L434.24,111.39z"/>
	<path id="UG-310" fill="#1E3250" stroke="#1E3250" stroke-width="0.5" d="M346.1,254.29l-4.52-24.8l-20.74,22.1l-29.99,6.88
		l-11.82,27.04l45.95,37.42l9.65-4.14l26.78-45.7L346.1,254.29z"/>
	<path id="UG-419" fill="#1E3250" stroke="#1E3250" stroke-width="0.5" d="M336.95,383.81l27.65-2.89l14.13-24.04l-15.54-21.21
		l0.92-31.35l-29.48,14.47l-9.65,4.14l-30.12,45.79l37.02,2.9L336.95,383.81z"/>
	<path id="UG-316" fill="#1E3250" stroke="#1E3250" stroke-width="0.5" d="M291.65,151.72l2.2-61.77l-33.11,33.32l9,17.68
		L291.65,151.72z"/>
	<path id="UG-303" fill="#1E3250" stroke="#1E3250" stroke-width="0.5" d="M359.18,180.39l-45.19-31.9l-22.34,3.229l-20.31,28.87
		l-22.43-0.92l13.46,33.95l-12.38,32.04l28.75-9.06l12.11,21.87l29.99-6.88l20.74-22.1l1.38-25.06L359.18,180.39z"/>
	<path id="UG-301" fill="#1E3250" stroke="#1E3250" stroke-width="0.5" d="M438.95,115.35l-4.71-3.96l-48.43,14.76l-24.85,50.39
		l-1.78,3.85l-16.22,24.04l22.49,12.74l55.35-24.63L438.95,115.35z"/>
	<path id="UG-106" fill="#1E3250" stroke="#1E3250" stroke-width="0.5" d="M467.51,663.09l-3.13-30.63l31.311-45.7L469.7,575.78
		l0.25,24.64l-60.21,40.43l11.76,17.58L467.51,663.09z"/>
	<path id="UG-111" fill="#1E3250" stroke="#1E3250" stroke-width="0.5" d="M333.03,610.24l-48-0.91l-1.18,0.65l11.32,36.329
		l30.93,4.641l-1.4,27.229l48.44,0.19l-2.27-45.87L333.03,610.24z"/>
	<path id="UG-210" fill="#1E3250" stroke="#1E3250" stroke-width="0.5" d="M694.39,446.35l-33.84-2.43l-22.72-0.8l5.53,7.06
		l28.029,29.44l39.87-11.811l33.29,7.86l-1.97-9.33l-27.95-10.06L694.39,446.35z"/>
	<path id="UG-108" fill="#1E3250" stroke="#1E3250" stroke-width="0.5" d="M582.86,553.34l-35.19-38.03l-5.78,37.95l-12.25,4.58
		l-1.569,7.771l0.689,31.81l-6.26,42l-18.92,24.36h16.47l61.181-77.011L582.86,553.34z"/>
	<path id="UG-211" fill="#1E3250" stroke="#1E3250" stroke-width="0.5" d="M697.31,388.21l-40.939-44.87l-12.83,18.49l-13.19,25.14
		l22.811,19.38l30.37-0.949l14.01-11.29L697.31,388.21z"/>
	<path id="UG-222" fill="#1E3250" stroke="#1E3250" stroke-width="0.5" d="M687.58,501.94l-16.19-22.32L656.5,510.06l14.54,21.801
		l30.46,6.37L687.58,501.94z"/>
	<path id="UG-220" fill="#1E3250" stroke="#1E3250" stroke-width="0.5" d="M671.39,479.62l-28.029-29.44l-15.28,30.681l13.04,30.6
		l15.38-1.4L671.39,479.62z"/>
	<path id="UG-314" fill="#1E3250" stroke="#1E3250" stroke-width="0.5" d="M576.63,387.16l-31.8-12.68l-26.3,22.05l-42.971,0.479
		l56.7,26.23l18.17-0.69l22.5,0.24L576.63,387.16z"/>
	<path id="UG-205" fill="#1E3250" stroke="#1E3250" stroke-width="0.5" d="M621.96,500.82l-49.45-35.04l12.9,76.35l25.37-1.28
		L621.96,500.82z"/>
	<path id="UG-203" fill="#1E3250" stroke="#1E3250" stroke-width="0.5" d="M671.04,531.86L656.5,510.06l-15.38,1.4l13.21,47.7
		l7.16,14.25l6.35,1.24L671.04,531.86z"/>
	<path id="UG-112" fill="#1E3250" stroke="#1E3250" stroke-width="0.5" d="M572.51,465.78l-22.08-43.23l-18.17,0.69l13.59,57.33
		l1.82,34.739l35.19,38.03l9.85,6.3l-7.3-17.51L572.51,465.78z"/>
	<path id="UG-213" fill="#1E3250" stroke="#1E3250" stroke-width="0.5" d="M632.86,342.4l-11.78-2.971l-28.96,47.5l-15.49,0.23
		l-3.7,35.63l35.9,15.42l6.89-48.66l14.63-2.58l13.19-25.14L632.86,342.4z"/>
	<path id="UG-208" fill="#1E3250" stroke="#1E3250" stroke-width="0.5" d="M756.6,399.56l-46.5-1.06l-15.71,47.85l20.24,9.931
		l17.09-36.641l27.53-8.949L756.6,399.56z"/>
	<path id="UG-204" fill="#1E3250" stroke="#1E3250" stroke-width="0.5" d="M610.78,540.85l-25.37,1.28l7.3,17.51l25.66,28.561
		l16.81,7.01l26.311-21.8l-7.16-14.25L610.78,540.85z"/>
	<path id="UG-101" fill="#1E3250" stroke="#1E3250" stroke-width="0.5" d="M467.51,663.09l-46.01-4.66l5.72,15.261l13.74,17.609
		l-12.02,9.311v53.1v33.68h126.77V707.8v-44.02h-35.66h-16.47L467.51,663.09z"/>
</g>
</svg>
