<?xml version="1.0" encoding="utf-8"?>
<!-- Generator: Adobe Illustrator 15.0.0, SVG Export Plug-In . SVG Version: 6.00 Build 0)  -->
<!DOCTYPE svg PUBLIC "-//W3C//DTD SVG 1.1//EN" "http://www.w3.org/Graphics/SVG/1.1/DTD/svg11.dtd">
<svg version="1.1" id="Layer_1" xmlns:amcharts="http://amcharts.com/ammap"
	 xmlns="http://www.w3.org/2000/svg" xmlns:xlink="http://www.w3.org/1999/xlink" x="0px" y="0px" width="792.5px" height="652.5px"
	 viewBox="0 0 792.5 652.5" enable-background="new 0 0 792.5 652.5" xml:space="preserve">
<defs>
	
	
		<amcharts:ammap  projection="mercator" leftLongitude="21.999371" topLatitude="-8.223838" rightLongitude="33.706042" bottomLatitude="-18.080477">
		</amcharts:ammap>
</defs>
<g>
	<path id="ZM-01" fill="#1E3250" stroke="#1E3250" stroke-width="0.5" d="M62.698,361.224l0.898,0.423l2.553,2.488l2.993,1.318
		l3.29-1.383l0.708-1.099l1.491-1.044l1.002-1.582l1.159-0.094l2.755,1.374l2.444,2.424l1.696,1.028l3.844,3.765l4.452,2.464
		l1.764,2.379l1.532,0.737l2.237,0.342l1.947,1.29l1.216,1.757l1.531,0.359l1.914,1.103l0.809-0.143l0.969-0.761l0.229-2.188
		l0.816-2.072l3.174-0.401l1.958-1.835l1.946,0.037l5.682,3.497l0.798,0.826l0.937,2.279l0.692,0.718l1.439,0.105l2.155-1.204
		l0.922,0.042l1.401,0.874l0.254,2.778l1.036,1.365l2.795,0.931l2.713,0.288l-0.097,0.984l-1.597,1.651l-0.158,1.355l0.695,0.639
		l1.187-0.123l0.336,1.154l0.552,0.287l2.459-0.752l1.955-1.141l3.17-0.259l3.849-3.17l2.002-0.711l2.593-0.163l2.391-0.766
		l4.128-2.481l2.247-0.339l1.453-1.547l3.315,1.568l2.962-1.65l1.798-0.441l0.83-1.089l0.731,0.16l0.354,1.418l0.514,0.354
		l2.144,0.138l1.421,0.503l2.486-0.717l2.523,0.719l2.878-1.813l1.628-0.236l1.363-1.598l1.144,0.809l0.762,0.05l2.038-1.772
		l1.665-0.356l2.162-1.003l1.746,0.62l1.31,1.167l0.786,0.019l0.383-0.384l0.103-1.418l0.905-0.773l0.873,0.659l0.193,1.548
		l0.43,0.761l2.689,0.99l2.563-0.021l1.904-0.655l0.96-1.222l1.076-0.497l0.737,0.407l1.45,1.778l2.208,1.585l1.356-0.015
		l0.977-1.16l1.426,0.572l1.748-0.607l0.856,0.042l0.911,1.562l2.058,2.077l0.256,3.759l0.748,1.56l0.929,0.93l5.607,1.604
		l1.934,0.241l2.735,1.789l2.137,0.933l1.496,1.222l2.107,0.043l2.148-0.672l0.608,0.168l0.781,0.846l0.699,1.975l0.033,1.224
		l-0.801,2.356l-1.146,1.53l-0.212,1.757l-0.513,1.189l-0.193,2.437l-0.899,0.937l-2.943,0.962l-0.882,1.177l0.044,5.757l2.86,3.12
		l1.783,0.771l1.843-0.606l5.944-0.07l3.764-1.884l2.185-0.259l3.148-1.269l1.307,0.053l1.455,0.588l1.942-0.41l1.495,1.562
		l0.77,0.293l1.938-0.04l1.365-0.66l0,0l0.692,0.691l-0.064,0.722l-1.979,4.083l-0.151,6.449l-1.778,1.403l-0.42,1.782l-1.172,2.102
		l0.095,1.826l1.873,3.582l-0.004,3.874l-0.815,1.681l-1.772,1.39l0.538,2.155l-0.305,1.044l-0.621,0.385l-2.218,0.19l-2.869,2.822
		l-0.103,0.754l0.592,1.871l-0.174,4.299l0,0l1.365,2.101l0.056,0.917l-1.83,2.017l-0.211,3.354l-0.752,1.511l-2.31,0.476
		l-0.871,0.74l-0.046,0.925l1.204,1.487l0.057,1.629l-0.888,1.201l-1.668,1.017l-0.176,0.623l0.775,1.168l1.756,0.999l0.792,0.835
		l-0.021,1.448l-1.175,1.304l-0.251,0.908l0.319,1.401l1.428,1.524l0.933,0.697l1.299-0.051l2.423-2.376l1.098,0.418l0.853,0.992
		l0.091,2.313l-0.641,2.155l-0.166,3.318l-0.78,2.645l-1.096,0.882l0.36,2.534l-1.06,1.395l-0.142,1.511l0.216,0.837l2.926,3.315
		l1.896-0.264l0.797,1.169l-1.656,0.139l-0.259,1.152l-2.44,1.926l-0.985,2.294l-1.672,2.487l-0.531,3.205l-3.437,1.496l-2,1.869
		l-1.664,0.423l-2.678,1.985l-5.34,7.385l-1.437,1.365l-1.522,0.328l-0.468,0.686l0.352,1.244l4.325,3.635l0.414,1.941l0.755,1.244
		l3.215,0.859l3.734,0.141l1.677,0.785l0.701,0.71l0.158,1.119l-0.657,1.636l-0.007,2.738l1.961,6.009l0.093,1.296l-0.751,2.227
		l-0.954,1.137l-5.737,2.725l-0.162,0.835l0.626,2.045l-0.276,1.436l-1.205,1.544l-2.48,1.171l-0.706,1.071l-0.183,2.088
		l0.612,1.333l0.146,1.513l-2.371,4.09l-2.462,2.643l-0.069,1.145l0.424,1.062l-0.264,1.24l0.434,1.101l0.017,1.473l-2.628,3.105
		l-0.485,4.932l-1.31,0.202l0,0l-1.315,0.621l-1.159-0.505l-0.864-1.105l-1.868,0.056l-0.902-0.465l-1.721,0.653l-0.957-0.222
		l-0.806-0.992l-1.309,0.308l-0.504-0.681l-1.873-0.716l-3.439,1.249l-1.397,0.057l-1.798,1.343l-2.51,0.037l-0.973-0.391
		l-1.716,0.707l-0.561-0.923l0.043-1.248l-1.38-1.499l-1.371-0.55l-4.158-0.745l-2.561,1.06l0.295,0.371l-0.719,0.492l-3.014-0.704
		l-1.399-0.006l-1.715-0.613l-48.191,10.013l-0.247-1.668l-1.93-1.864l-1.628-0.196l-1.586-1.537l-1.454,0.459l-1.714-1.038
		l-2.609,0.289l-0.8-0.67l-0.101-0.74l-1.699-1.553l-0.8-1.382l-2.496-0.739l0.328-0.472l-1.056-0.91l-0.044-1.055l-1.439-0.271
		l-1.184-0.883l-1.471-4.059l-1.195-0.413l-1.752-2.008l-0.085-1.067l-0.67-0.257l-0.826-1.082l-3.715-2.279l-1.123-1.338
		l-5.706-2.183l-0.255-0.612l0.385-0.854l-1.151-1.765l-3.154-2.479l-0.041-0.668l-0.711-0.357l-0.254-1.108l-1.634-0.457
		l-0.242-0.371l0.258-0.739l-4.286-3.846l-0.253-0.825l-2.012-2.405l-3.998-3.093l-1.132-1.281l-0.011-1.15l-1.771-1.127
		l-4.921-5.339l-1.742-0.872l-0.096-0.965l-0.848-0.713l-1.41-2.232l-1.94-0.731l-0.79-0.968l-0.391-1.362l-0.707-0.442
		l-1.531-0.149l-0.689-1.123l-1.414-0.743l-0.705-0.77l-1.45-2.104l-1.685-0.165l0.813-0.987l-0.642-1.901l0.242-0.281l-0.174-2.026
		l-1.28-4.325l-0.762-0.556l-1.572-2.414l0.335-1.725l-1.059-0.431l-0.659-0.938l-2.028-1.652l-0.742-1.249L62.698,361.224z"/>
	<path id="ZM-02" fill="#1E3250" stroke="#1E3250" stroke-width="0.5" d="M527.975,268.208l1.37-1.24l0.866-1.65l0.151-3.253
		l0.316-0.714l6.235-2.699l2.053-0.091l0.986,0.513l1.268,1.411l0.819,1.939l0.228,1.94l2.276,3.29l1.378,1.006l1.806,0.399
		l0.977,1.638l9.126,3.485l1.813,0.205l1.114,0.513l3.042,0.153l1.651,1.879l3.604,0.338l0.749,1.066l0.015,3.002l-1.243,3.872
		l1.107,1.883l3.451,1.892l0.137,1.509l-0.643,1.959l0.12,0.851l2.332,2.57l0.995,0.368l1.702-0.137l1.582-1.734l1.19-0.084
		l1.344,2.838l2.243,1.323l0.767,0.822l-0.061,0.904l-1.79,2.524l-0.654,1.884l1.146,3.706l-0.046,1.183l-0.427,0.861l0.445,0.817
		l5.673,3.448l4.834,0.206l3.914,1.213l2.648,0.23l1.512,1.441l1.227,2.096l2.385,1.822l1.688-0.006l0.933-0.552l0.813-1.285
		l0.21-2.618l1.487-0.953l4.252-0.386l2.952,1.189l1.298,1.26l0.324,4.072l0.615,1.686l0.037,9.324l2.06,3.665l1.917,2.123
		l0.17,6.028l0,0l-1.642,1.709l-4.332,1.015l-2.601,2.38l-1.577,0.071l-1.901,3.058l-0.923,0.91l-3.273,0.694l-3.128,3.4l0.25,2.441
		l-0.481,1.758l-2.421,1.906l-0.418,1.644l-2.255,0.368l-0.983,0.954l-2.404,1.324l-0.244,0.493l0.415,1.089l-0.18,0.57
		l-1.551,0.492l-0.482,0.9l-2.819,2.878l-42.976,0.072l-2.076,0.454l0.035,0.786l1.514,0.654l1.706,5.478l5.242,1.774l1.852,1.299
		l0.907,1.53l0.062,2.421l-1.659,2.774l-4.255,2.974l-0.707,1.477l-2.237,2.048l-2.013,2.941l-1.251,0.872l-2.13,0.27l-0.582,2.399
		l-2.277,1.533l-0.377,2.623l-1.92,6.953l0.283,0.805l1.588,1.106l0.014,1.706l0,0l-3.119,0.129l-7.21,3.215l-6.118,1.677
		l-2.89,1.803l-6.825,3.037l-2.876,1.83l-1.573,0.698l-2.483,0.251l-3.068,1.831l-10.775,0.118l-6.257,1.515l-3.615,2.144
		l-2.054,1.736l-4.163,2.063l-1.815,0.247l-1.659,0.787l-2.92,4.71l-0.573,0.487l-2.222,0.743l-2.846,0.175l-1.672,0.573
		l-3.869,0.109l-4.088,1.215l-2.708,0.177l-1.424,0.452l-4.192-1.106l-2.849-0.198l-1.66-0.594l-1.446,0.108l-1.338,1.305
		l-1.448,3.831l0.006,1.271l0.608,1.842l-0.078,3.217l-1.341,0.977l-0.851,1.368l-0.729,0.534l-0.759,0.098l-2.373-1.857
		l-4.166-2.09l-3.476-1.062l-2.357-1.131l-5.031-1.423l-6.645-0.027l-5.43,1.347l-0.342,0.958l1.316,2.69l2.541,1.056l1.956,0.302
		l1.822,0.947l1.591,2.419l0.806,2.635l-0.065,4.576l-0.823,1.611l-1.268,0.736l-1.038,0.147l-2.342-0.054l-1.605-0.598
		l-0.877,0.062l-0.325,0.517l-0.169,2.062l-0.876,1.651l0,0l-2.209,1.085l-1.329-0.349l-1.306,0.523l-0.889-0.261l-1.451-2.36
		l0.596-2.372l-0.234-1.413l-1.528-1.423l-0.67-1.097l-2.592-0.955l-0.837-1.162l-1.104-0.124l-0.533,0.337l-2.337,3.67
		l-2.372,1.854l-0.678,0.169l-0.896-0.43l-0.975,0.002l-0.986,0.83l-5.035,9.135l-1.018,0.357l-1.5-1.758l-1.066-6.304l-1.104-3.076
		l-0.254-2.493l-0.809-2.071l-0.972-0.273l-5.636,0.015l-2.456-0.66l-5.431-0.03l-0.359-0.599l0.848-1.263l-0.267-0.719
		l-2.218-1.113l-3.277-2.281l-1.578-0.489l-3.09-1.792l-25.614-0.07l-2.273-0.639l-4.17-0.072l-2.064-0.622l-4.171-0.072
		l-2.075-0.624l-4.115-0.07l-2.924-0.675l-10.058,0.022l-5.392,0.682l-25.575,0.145l0,0l0.174-4.299l-0.592-1.871l0.103-0.754
		l2.869-2.822l2.218-0.19l0.621-0.385l0.305-1.044l-0.538-2.155l1.772-1.39l0.815-1.681l0.004-3.874l-1.873-3.582l-0.095-1.826
		l1.172-2.102l0.42-1.782l1.778-1.403l0.151-6.449l1.979-4.083l0.064-0.722l-0.692-0.691l0,0l0.747-0.463l0.986,0.117l1.485-0.447
		l1.965-1.86l1.249-0.142l2.692,0.695l5.32,0.05l2.29,0.643l4.837,0.072l1.912,0.6l4.314,0.092l1.735,0.569l7.971,0.817l2.684,0.644
		l1.307,2.52l2.501,0.4l1.376,1.072l1.798,0.429l1.64,1.707l0.973,0.116l0.611-0.18l1.366-1.412l0.344-2.229l1.493-2.489
		l2.634-3.116l3.835-2.555l1.043-2.921l0.9-0.925l1.858-0.765l2.763,0.596l2.101-0.585l5.302-0.047l1.86-1.221l2.228-0.751
		l6.304-0.097l1.862-0.787l0.392-1.089l0.014-7.871l1.317-2.622l-0.104-3.149l-2.764-4.312l-3.555-2.499l-0.447-0.737l0.3-0.423
		l2.409-1.164l0.171-5.933l2.519-4.467l0.138-0.933l-0.268-0.52l-2.829-1.959l-0.518-1.343l-1.565-2.278l0,0l24.666-0.001
		l3.622,0.759l0.49,0.62l0.114,2.954l1.162,1.422l0.699,2.081l0.225,2.191l0.772,1.49l1.095,0.229l3.08-1.741l0.998-1.21
		l0.139-1.323l-0.483-1.541l0.718-1.581l1.419-0.133l1.496,1.391l0.869-0.298l1.009-2.903l1.109-1.364l0.335-2.032l1.162-0.734
		l0.311-1.629l0.859-1.124l0.629-0.222l3.579,1.873l5.431,0.057l0.934,0.343l4.475,11.493l1.36,2.436l1.668,0.703l0.695-0.017
		l1.614-0.979l3.834-0.786l6.026-0.143l2.478-1.932l4.158,1.28l2.713,0.007l1.481-0.613l1.643-0.063l3.701,1.303l3.038,0.04
		l6.644-1.946l4.763-0.025l0.82-0.274l0.281-1.773l-0.685-2.11l-0.038-2.126l0.264-1.124l0.573-0.733l8.641-6.597l1.916-2.721
		l1.262-1.028l4.285-1.938l5.25-6.742l0,0l3.299-1.967l2.034-0.469l1.271,0.692l1.043,1.228l1.332,2.539l3.895-3.049l3.047-1.075
		l0.614-0.851l0.389-1.784l1.949,0.986l0.983-1.319l1.192,0.077l3.37-0.845l2.027-2.401l0.892-0.199l0.741-1.51l1.477-1.132
		l1.931-0.008l0.951-0.759l0.753-0.084l2.743,1.5l0.477,0.075l1.622-0.799l0.445,0.606l-0.238,0.704l0.509,1.012l-1.707,1.46
		l0.57,1.318l-0.653,2.433l-2.84,0.796l0.567,1.15l-0.365,0.707l0.157,0.906l2.133,1.737l1.979-0.401l1.948,1.517l3.843-1.138
		l1.912,1.105L527.975,268.208z"/>
	<path id="ZM-03" fill="#1E3250" stroke="#1E3250" stroke-width="0.5" d="M733.849,264.717l-0.436,1.163l0.226,1.199l1.106,0.95
		l1.754,0.504l-0.002,4.786l1.096,0.683l0.334,1.558l1.543,1.737l0.407,2.276l1.699-0.542l1.713,0.095l1.834-1.125l1.278-0.005
		l0.427,0.631l1.252,0.169l0.48,0.404l0.832-0.601l0.688,0.031l0.651,1.503l-0.132,0.708l-2.231,1.52l-0.457,0.854l-1.468,0.321
		l-0.421,1.08l0.448,1.374l-2.575,1.392l-1.056,1.486l-0.09,0.878l-1.144,0.669l-1.79,1.827l-0.89-0.703l-0.681-0.051l-1.378-1.154
		L734.202,291l-0.519,0.303l0.052,0.642l-1.83,2.443l-1.513,0.658l-0.479,0.472l-0.343,1.309l-0.717,0.539l-0.416-0.38l0.262-1.463
		l-0.582-0.618l-0.96-0.356l-0.921,0.091l-1.822,0.921l-1.221-1.112l-1.781,1.075l-1.791,2.442l-0.658,0.357l-0.523,2.703
		l-2.735,3.273l-0.259,4.703l0.286,0.784l3.265,2.47l0.617,1.43l-0.515,1.504l-0.304,3.211l-1.5,2.35l0.546,1.695l-0.988,1.264
		l0.031,1.355l-0.341,0.739l0.369,2.84l1.539,1.733l0.604,1.556l-2.064,1.061l-0.728,1.784l-0.868,0.119l-0.58,0.806l-1.34,4.871
		l-0.016,1.903l-0.432,1.424l-1.955,2.922l-2.243,0.121l-0.265,2.36l0.264,1.024l-1.543,1.421l-0.794,0.08l-1.405,0.794
		l-0.938-0.051l-1.122,1.755l-1.414-0.117l-1.086-0.76l-1.065,0.241l0.164,0.339l-0.576,0.177l0.431,1.104l-0.983,1.288l3.321,1.456
		l1.651,0.279l0.384-0.492l1.967,0.797l0.306,0.795l-0.263,0.689l1.285,0.614l1.177,1.116l0.525,1.002l-0.439,0.514l-1.31-0.324
		l-1.288,1.517l-0.797-0.164l-0.626,2.098l1.28,0.046l0.805,1.245l0.554-1.196l1.177,0.122l0.808,0.679l0.801-0.146l0.034,0.896
		l0.55-0.303l1.045,0.78l0.865,2.249l1.98,1.404l1.626,3.918l0.616-0.157l1.551,0.812l0.202,1.082l-0.513,0.909l-0.094,1.637
		l0.479,1.02l0.892,0.153l0.891,1.213l0.58,0.148l1.302-1.491l-0.02-1.771l0.954-1.216l1.508-0.949l1.644-0.128l0.668-1.299
		l0.534-0.137l1.885,1.206l0.366,1.48l1.161,1.512l-35.648,12.871l-9.505,4.176l-12.442,2.455l-8.629,2.883l-2.458,1.139
		l-6.466,1.47l-8.157,4.005l-7.598,1.718l-12.562,6.961l-12.255,2.36l-11.222,3.592l-16.679,4.061l-16.799,6.407l-9.058,4.375
		l-8.767,2.292l0,0l-0.65-0.903l-0.186-1.025l0.032-7.325l-0.273-1.236l-1.999-2.516l-2.242-1.322l-1.974-2.905l-2.141-1.276
		l-0.852-1.913l-1.735-0.397l0,0l-0.014-1.706l-1.588-1.106l-0.283-0.805l1.92-6.953l0.377-2.623l2.277-1.533l0.582-2.399l2.13-0.27
		l1.251-0.872l2.013-2.941l2.237-2.048l0.707-1.477l4.255-2.974l1.659-2.774l-0.062-2.421l-0.907-1.53l-1.852-1.299l-5.242-1.774
		l-1.706-5.478l-1.514-0.654l-0.035-0.786l2.076-0.454l42.976-0.072l2.819-2.878l0.482-0.9l1.551-0.492l0.18-0.57l-0.415-1.089
		l0.244-0.493l2.404-1.324l0.983-0.954l2.255-0.368l0.418-1.644l2.421-1.906l0.481-1.758l-0.25-2.441l3.128-3.4l3.273-0.694
		l0.923-0.91l1.901-3.058l1.577-0.071l2.601-2.38l4.332-1.015l1.642-1.709l0,0l6.795-0.326l1.773-1.808l3.795-2.381l0.627-0.802
		l0.735-2.21l0.233-3.996l1.511-2.818l1.376-0.607l0.804-0.775l1.495-3.714l3.107-1.107l1.246-1.339l4.117-1.907l0.797-1.273
		l-0.088-2.445l0.34-2.297l1.332-1.108l3.779-1.736l1.304-1.271l0.419-2.321l0.73-1.622l1.644-1.398l0.86-2.369l0.22-2.007
		l0.507-1.085l0.09-2.347l1.986-6.459l0.179-2.298l0.585-1.476l0.102-2.636l0.746-2.201l1.241-0.939l1.013-2.367l1.354-1.786
		l2.379-1.756l2.439-3.664l3.678,1.119l1.971-0.076l2.931-0.714l2.006-1.719l1.209-3.754l0.695-1.345l0.728-0.543l2.626-0.749
		l6.622-0.105l3.933-1.858l5.708-1.397l2.498-0.125l1.67-0.551l2.305-0.237l10.753-3.953l2.285-4.022l1.058-3.437l3.118-6.138
		l1.022-2.752l3.934-2.425l0,0l-0.079,4.052l0.615,1.875l-0.311,0.714l0.764,1.324l0.174,1.142l-1.81,3.56l0.901,1.03l0.266,2.112
		l-0.761,1.817l-0.263,3.388l-2.009,3.552L733.849,264.717z"/>
	<path id="ZM-04" fill="#1E3250" stroke="#1E3250" stroke-width="0.5" d="M513.927,40.629l0.128,1.152l-0.516,0.478l-0.141,1.019
		l-1.417,2.865l-2.256,2.075l-2.1,0.267l-2.777,1.344l-1.532,2.091l-1.711,3.547l-1.173,1.285l-1.332,2.481l-1.433,4.921
		l-0.284,2.406l-2.146,5.588l-1.363,1.749l-2.943,0.963l-0.841,0.751l-0.982,4.725l-1.82,0.875l-0.869,3.024l0.352,0.511
		l3.614,1.691l1.32,1.129l1.019,0.365l0.83-0.255l1.101,0.211l1.574,2.114l1.575,0.535l0.617,0.845l1.719,0.032l0.604,1.892
		l-0.491,0.758l0.059,2.462l1.156,3.165l-1.822,2.42l-0.123,2.65l1.82,5.256l1.791,1.173l1.562-0.503l1.572,0.168l0.817,0.79
		l1.022,2.343l0.612,0.593l2.21,1.004l1.384,1.77l2.168,0.609l1.229-0.296l2.433,0.643l1.805,1.057l2.084,0.285l2.204,1.132
		l3.759,0.328l1.474,2.281l1.631,1.489l0.539,2.008l0.754,0.65l1.397,0.252l0.969,0.829l1.368,3.198l-1.933,4.459l-0.086,2.162
		l0.827,2.481l0.896,1.008l-0.485,1.046l-1.827,1.995l-0.711,1.959l-0.245,2.833l-0.73,1.502l-0.712,0.679l-2.382,0.213
		l-2.621-0.694l-4.721,0.062l-1.684,0.792l-3.167,3.014l-4.306,2.093l-1.815,0.343l-1.012,0.578l-1.329,1.527l-2.225,1.283
		l-0.362,2.908l-1.913,2.963l0.706,3.508l-2.623,3.561l-0.351,2.167l-0.703,0.363l-2.281,0.151l-1.635,1.656l-5.766,3.158
		l-0.951,0.891l-0.348,1.228l-0.117,6.905l-1.831,2.037l-1.934,1.433l-0.847,1.458l0.605,0.76l4.499,1.561l1.111,0.756l1.691,2.12
		l1.23,0.834l0.821,1.229l1.157,0.899l3.062,0.279l2.365,1.113l1.324,0.153l0.102-1.611l0.588-1.205l-0.011-1.352l-1.915-2.961
		l-0.234-2.183l-1.789-2.838l0.119-1.022l3.253-1.383l6.213-3.738l2.808-1.03l4.832-3.058l1.874-0.577l3.536,2.301l1.83,0.347
		l2.255,1.365l0.645,0.728l1.208,2.764l2.964,2.68l1.462,2.332l0.158,2.528l0.587,2.388l-0.654,2.2l-0.092,4.067l-0.575,1.257
		l-0.848,6.461l-1.309,5.084l0.17,2.068l0.543,0.075l1.816-0.892l1.193-2.421l2.325-1.638l1.229-3.095l9.63-0.084l4.089,3.126
		l1.392,0.574l9.513,6.713l1.172,1.507l3.41,2.572l0.597,1.149l0,0l-1.021,2.434l-0.389,3.97l-1.271,1.614l-2.152,1.868
		l-5.398,7.596l-2.429,2.026l-4.132,0.931l-2.629,0.151l-1.522,0.534l-3.159,0.12l-2.043,0.611l-3.51,0.07l-5.853,1.247
		l-2.641,0.132l-2.259,0.858l-0.916,2.761l0.642,1.902l0.06,4.068l2.574,3.072l-0.874,3.73l0,0l-0.421-0.246l-2.363,0.282
		l-2.32,1.815l-3.339,1.025l-2.008-0.032l-2.218-0.822l-1.255-0.018l-2.134,1.419l-1.553,0.405l-1.433,0.947l-1.285,2.099
		l-0.687,3.652l2.354,3.665l2.297,0.487l0.189,1.238l-0.631,1.295l-1.631,1.578l-1.463,0.097l-6.481-3.551l-1.975,0.342
		l-1.861-0.343l-0.366-0.231l0.021-1.185l-1.729-1.532l-2.024,0.635l-2.501-0.249l-3.67,1.499l-0.544-0.074l-0.77-0.894l-2.444,0.6
		l-1.161-0.274l-0.638-0.561l-1.866-3.203l-0.356-2.127l-3.086-4.576l-5.452-4.468l-1.373-2.248l-3.221-2.763l-1.135-3.936
		l-0.633-0.38l-1.65,0.401l-1.26-0.411l-3.566-1.923l-1.512-2.385l-2.271-0.119l-0.746-0.573l-1.619-0.282l-1.965-1.042l-0.13-1.251
		l-1.183-1.917l-2.571,0.219l-0.119-1.418l0.621-2.29l-0.719-1.576l-1.225-1.053l1.201-1.575l-1.007-1.335l0.816-1.222l-0.024-0.708
		l-2.959-3.656l0.477-3.579l0.55-1.342l-0.275-1.761l1.503-1.731l0.016-0.806l0.581-1.19l-0.15-1.692l1.3-0.339l0.591-0.495
		l-0.106-1.498l-0.505-1.271l0.445-1.909l0.84-0.499l1.019-2.486l-0.313-1.439l0.896-2.304l-0.028-1.915l-1.207-2.716l0.927-1.166
		l0.221-1.96l0.742-1.371l0.034-3.371l0.473-0.853l1.288-1.073l0.402-4.611l0.538-2.059l2.977-3.899l0.391-2.529l1.21-0.627
		l1.889,0.22l0.339-1.474l1.246-0.865l0.483-1.06l-0.578-1.501l-1.264-1.117l0.319-3.523l-2.065-1.921l-0.148-0.621l0.52-4.882
		l-1.261-3.704l0.877-4.193l-1.348-1.28l-2.18-3.26l0.301-1.125l2.357-3.299l0.157-5.063l0.463-1.363l-0.218-0.729l0.469-0.961
		l-0.682-3.901l1.729-3.619l0.157-1.342l0.868-2.017l0.009-1.202l0.188-0.321l1.173-0.128l0.172-0.445l-0.583-1.054l-0.81-0.637
		l-0.325-1.307l-1.509-0.239l-1.125-1.336l0.315-3.801l-0.997-1.959l0.15-1.935l-0.787-0.912l-0.972-0.414l2.073-0.735l0.14-0.734
		l-0.347-0.16l-1.398,0.656l-0.958-0.385l-0.446-3.967l-0.658-0.625l-1.176-0.217l-0.219-0.811l-1.177-1.182l0.383-2.048
		l0.708-1.596l-0.406-1.318l-1.22-0.437l-2.549,2.961l-1.602,0.838l-1.198,0.169l-1.095-0.385l-0.821-0.47l-1.39-1.76l-0.064-2.522
		l0.463-2.336l1.542-3.014l3.116-2.76l5.593-3.872l6.377-3.775l2.887-2.234l3.093-3.023l8.879-11.32l2.773-4.558l0.609-1.468
		l0.63-3.463l-0.933-4.055l-2.946-5.272l0.187-0.36L513.927,40.629z"/>
	<path id="ZM-05" fill="#1E3250" stroke="#1E3250" stroke-width="0.5" d="M586.153,33.097l1.275,3.464l4.225,5.863l7.877,10.045
		l2.342,1.74l3.019,1.447l2.929,0.098l1.82-1.252l0.438-0.777l1.426-0.598l2.45,0.805l1.337,1.834l1.129-0.094l1.545-1.271
		l0.502,0.529l0.416-0.31l0.855,0.217l0.806-0.556l0.063-1.045l0.625-0.141l1.395,2.661l0.888,0.412l2.722,0.122l0.909,0.907
		l0.927,1.716l2.217-0.191l1.744,0.761l0.861,0.952l0.688,2.154l-0.184,2.475l-0.54,1.34l0.886,1.773l1.528,1.131l2.872,1.333
		l1.27,1.876l1.716,0.367l0.98-0.165l0.571,0.517l0.878-0.488l1.006-1.185l2.249-0.357l1.526,0.142l3.855,1.272l3.136,1.427
		l-0.937,2.73l0.435,1.422l-0.118,0.714l2.22,2.815l1.342,0.663l1.103-0.481l0.059-0.339l2.681-0.657l1.818,0.006l3.299,0.739
		l0.869-0.128l0.549,0.794l2.168,1.662l2.775,1.58l0,0l-0.002,4.572l2.505,5.705l2.121,6.263l-0.018,4.745l0.731,1.546l0.14,2.575
		l0.53,1.499l0.151,2.573l1.215,5.572l0.134,2.575l1.011,1.837l-2.782-0.02l-1.71,0.751l-2.769,1.872l-3.909,3.889l-0.915,2.478
		l-0.169,2.82l-0.937,2.641l-1.129,1.021l-3.101,1.189l-3.651,3.733l-0.234,2.284l-0.592,1.763l-0.075,5.723l-0.648,1.34
		l-1.449,0.936l-1.964,0.275l-1.821,0.925l-1.421,1.441l-3.011,4.914l-4.28,2.316l-1.413,1.678l-2.395,0.769l-3.019,0.201
		l-2.481,2.248l-4.399,1.497l-1.001-0.131l-0.795-0.883l-1.193,0.009l-1.1,0.7l-1.189,1.73l-1.988,0.717l-2.488,0.254l-2.204,1.404
		l-1.654,3.083l-5.694,0.889l-1.804,0.864l-0.516,0.979l0.071,2.374l0.421,0.396l1.404,0.27l0.604,1.32l-0.714,0.78l-1.169,0.065
		l-0.412,0.327l-0.309,2.534l-0.715,1.543l-1.968,2.092l-0.839,1.415l-0.855,0.282l-1.678-1.492l-1.374-0.723l-1.446-0.052
		l-3.604,4.062l-2.981,1.671l-0.733,2.211l-2.928,0.202l-1.317,0.682l-3.625,5.434l-3.042,6.032l-2.257,2.967l-1.684,0.961
		l-2.651,0.685l-7.049,7.618l-2.507,1.461l0,0l-0.597-1.149l-3.41-2.572l-1.172-1.507l-9.513-6.713l-1.392-0.574l-4.089-3.126
		l-9.63,0.084l-1.229,3.095l-2.325,1.638l-1.193,2.421l-1.816,0.892l-0.543-0.075l-0.17-2.068l1.309-5.084l0.848-6.461l0.575-1.257
		l0.092-4.067l0.654-2.2l-0.587-2.388l-0.158-2.528l-1.462-2.332l-2.964-2.68l-1.208-2.764l-0.645-0.728l-2.255-1.365l-1.83-0.347
		l-3.536-2.301l-1.874,0.577l-4.832,3.058l-2.808,1.03l-6.213,3.738l-3.253,1.383l-0.119,1.022l1.789,2.838l0.234,2.183l1.915,2.961
		l0.011,1.352l-0.588,1.205l-0.102,1.611l-1.324-0.153l-2.365-1.113l-3.062-0.279l-1.157-0.899l-0.821-1.229l-1.23-0.834
		l-1.691-2.12l-1.111-0.756l-4.499-1.561l-0.605-0.76l0.847-1.458l1.934-1.433l1.831-2.037l0.117-6.905l0.348-1.228l0.951-0.891
		l5.766-3.158l1.635-1.656l2.281-0.151l0.703-0.363l0.351-2.167l2.623-3.561l-0.706-3.508l1.913-2.963l0.362-2.908l2.225-1.283
		l1.329-1.527l1.012-0.578l1.815-0.343l4.306-2.093l3.167-3.014l1.684-0.792l4.721-0.062l2.621,0.694l2.382-0.213l0.712-0.679
		l0.73-1.502l0.245-2.833l0.711-1.959l1.827-1.995l0.485-1.046l-0.896-1.008l-0.827-2.481l0.086-2.162l1.933-4.459l-1.368-3.198
		l-0.969-0.829l-1.397-0.252l-0.754-0.65l-0.539-2.008l-1.631-1.489l-1.474-2.281l-3.759-0.328l-2.204-1.132l-2.084-0.285
		l-1.805-1.057l-2.433-0.643l-1.229,0.296l-2.168-0.609l-1.384-1.77l-2.21-1.004l-0.612-0.593l-1.022-2.343l-0.817-0.79
		l-1.572-0.168l-1.562,0.503l-1.791-1.173l-1.82-5.256l0.123-2.65l1.822-2.42l-1.156-3.165l-0.059-2.462l0.491-0.758l-0.604-1.892
		l-1.719-0.032l-0.617-0.845l-1.575-0.535l-1.574-2.114l-1.101-0.211l-0.83,0.255l-1.019-0.365l-1.32-1.129l-3.614-1.691
		l-0.352-0.511l0.869-3.024l1.82-0.875l0.982-4.725l0.841-0.751l2.943-0.963l1.363-1.749l2.146-5.588l0.284-2.406l1.433-4.921
		l1.332-2.481l1.173-1.285l1.711-3.547l1.532-2.091l2.777-1.344l2.1-0.267l2.256-2.075l1.417-2.865l0.141-1.019l0.516-0.478
		l-0.128-1.152l0,0l17.099-2.267l8.296-1.47l7.348-0.247l38.784-5.247L586.153,33.097z"/>
	<path id="ZM-06" fill="#1E3250" stroke="#1E3250" stroke-width="0.5" d="M186.302,191.617l1.168,0.74l1.359-0.053l0.748,0.846
		l-0.501,1.581l1.358,1.458l-0.098,1.553l-0.696,1.747l0.624,0.763l1.359,0.515l1.346-0.956l3.996,0.974l1.734-0.165l2.22,0.611
		l3.733,2.401l0.499,1.264l-0.278,3.76l0.847,1.138l-0.459,5.512l-1.014,1.43l-0.597,1.806l-0.987,1.624l-3.209,0.485l-0.334,0.194
		l-0.083,0.695l0.805,0.764l1,0.348l1.542,0.153l1.696-0.291l0.555,0.237l3.154,2.236l0.084,1.292l0.5,0.487l1.556-0.904
		l3.058,0.083l1-0.848L214.64,225l1.96,0.596l0.5-0.472l0.402-1.807l2.125-0.89l1.887-2.766l1.263-0.668l0.708-0.806l0.721-0.334
		l1.279,0.04l0.012-1.014l0.319-0.361l2.097-0.391l1.472,0.29l3.277-0.686l1.219-1.862l1.931,0.469l1.457-0.822l1.75,0.191
		l1.54-0.544l4.013-0.023l1.042,0.289l2.179-0.297l1.803-0.726l5.275-0.625l4.644-2.18l2.861,0.269l-0.039,0.596l-1.121,1.212
		l-0.744,1.821l0.922,1.635l-0.83,0.795l-1.374,0.323l-0.165,0.459l0.989,1.094l-0.051,1.278l-1.859,0.742l-0.11,0.57l1.44,2.76
		l-0.261,0.723l0.447,0.943l-0.078,1.584l1.34,1.775l-1.916,0.659l-0.305,0.404l1.241,0.997l-0.313,1.974l0.14,0.431l1.114,0.719
		l0.635,2.542l1.686,1.023l1.057,0.233l2.663,1.715l2.979,0.698l1.007,1.498l0.063,1.891l-0.689,1.727l0.81,0.776l2.085-0.508
		l1.805-0.981l0.877,0.066l0.967-1.521l2.462,0.073l0.637-0.545l0.559,0.276l1.334,2.928l1.228,0.593l1.23,1.469l6.252,0.748
		l2.33-1.569l1.057-0.103l0.574,0.762l0.485,2.07l1.233,1.65l0.879,0.357l1.544-0.176l1.635,1.243l0.227,0.709l-0.743,1.396
		l0.671,0.47l4.733,0.139l6.025-0.469l1.283,0.229l0.539-0.616l0.667-0.074l2.345,0.959l2.146,0.251l1.482,0.95l1.06,0.174
		l4.685-2.79l2.128-0.293l2.512,0.844l1.36,1.271l2.965,1.759l1.463,0.072l1.067-0.537l2.04,0.86l3.317,0.391l0.963,1.017
		l0.63-0.011l2.171-2.123l1.192-0.623l1.395,0.211l1.768,1.6l1.691-0.767l1.632,0.236l0.788-0.592l0.685-1.203l2.696-2.154
		l1.05-2.375l2.167-2.008l0.05-0.786l-0.576-1.036l0.565-2.986l1.419-2.693l0.691-0.451l0.297-1.019l-0.219-1.096l-1.199-1.727
		l0.213-2.449l0.955-0.509l2.671,0.169l1.802-0.63l2.241,0.284l2.901-1.905l1.221,5.284l0.103,7.371l0.243,0.54l0.857,0.854
		l2.636,0.543l3.603,2.592l2.73,1.431l0.583,1.149l1.662,0.567l1.7,1.401l0.537,1.929l-0.464,3.416l0.18,1.112l0.388,1.068
		l1.388,0.89l1.051,5.476l2.962,3.185l2.447,0.636l0,0l-1.064,1.67l-4.78,2.604l-2.605-0.748l-1.159-1.681l-1.698-0.134
		l-1.157,0.325l-2.59,2.037l-0.645,0.948l-2.094,0.937l-1.388,1.31l-5.072-0.054l-2.415-0.642l-2.422,0.621l-2.867,0.049
		l-0.695,0.685l0.585,3.777l-1.215,2.47l1.266,2.814l0.026,0.906l-3.534,1.249l-3.877,4.889l-3.354,1.162l-1.593,1.561l-0.268,2.871
		l-0.838,1.319l-0.041,0.619l1.148,2.064l2.318,1.803l0.316,0.88l-0.18,0.934l-1.701,2.732l0.049,0.685l5.862,3.382l1.974,0.476
		l1.946,2.351l2.422,0.162l0.443,0.207l0.215,0.629l-1.278,3.766l-0.189,2.481l-0.792,1.659l-4.878,3.293l-1.002,1.609l-0.1,1.267
		l1.289,3.045l-0.264,2.895l-1.235,1.553l-1.545,0.699l-0.755,1.812l-1.238,1.033l-2.614-0.082l-0.048,3.06l-0.742,2.214
		l-1.744,1.386l-0.847,2.085l0.089,6.478l1.366,1.403l2.892,1.529l0,0l1.565,2.278l0.518,1.343l2.829,1.959l0.268,0.52l-0.138,0.933
		l-2.519,4.467l-0.171,5.933l-2.409,1.164l-0.3,0.423l0.447,0.737l3.555,2.499l2.764,4.312l0.104,3.149l-1.317,2.622l-0.014,7.871
		l-0.392,1.089l-1.862,0.787l-6.304,0.097l-2.228,0.751l-1.86,1.221l-5.302,0.047l-2.101,0.585l-2.763-0.596l-1.858,0.765
		l-0.9,0.925l-1.043,2.921l-3.835,2.555l-2.634,3.116l-1.493,2.489l-0.344,2.229l-1.366,1.412l-0.611,0.18l-0.973-0.116l-1.64-1.707
		l-1.798-0.429l-1.376-1.072l-2.501-0.4l-1.307-2.52l-2.684-0.644l-7.971-0.817l-1.735-0.569l-4.314-0.092l-1.912-0.6l-4.837-0.072
		l-2.29-0.643l-5.32-0.05l-2.692-0.695l-1.249,0.142l-1.965,1.86l-1.485,0.447l-0.986-0.117l-0.747,0.463l0,0l-1.365,0.66
		l-1.938,0.04l-0.77-0.293l-1.495-1.562l-1.942,0.41l-1.455-0.588l-1.307-0.053l-3.148,1.269l-2.185,0.259l-3.764,1.884l-5.944,0.07
		l-1.843,0.606l-1.783-0.771l-2.86-3.12l-0.044-5.757l0.882-1.177l2.943-0.962l0.899-0.937l0.193-2.437l0.513-1.189l0.212-1.757
		l1.146-1.53l0.801-2.356l-0.033-1.224l-0.699-1.975l-0.781-0.846l-0.608-0.168l-2.148,0.672l-2.107-0.043l-1.496-1.222
		l-2.137-0.933l-2.735-1.789l-1.934-0.241l-5.607-1.604l-0.929-0.93l-0.748-1.56l-0.256-3.759l-2.058-2.077l-0.911-1.562
		l-0.856-0.042l-1.748,0.607l-1.426-0.572l-0.977,1.16l-1.356,0.015l-2.208-1.585l-1.45-1.778l-0.737-0.407l-1.076,0.497
		l-0.96,1.222l-1.904,0.655l-2.563,0.021l-2.689-0.99l-0.43-0.761l-0.193-1.548l-0.873-0.659l-0.905,0.773l-0.103,1.418
		l-0.383,0.384l-0.786-0.019l-1.31-1.167l-1.746-0.62l-2.162,1.003l-1.665,0.356l-2.038,1.772l-0.762-0.05l-1.144-0.809
		l-1.363,1.598l-1.628,0.236l-2.878,1.813l-2.523-0.719l-2.486,0.717l-1.421-0.503l-2.144-0.138l-0.514-0.354l-0.354-1.418
		l-0.731-0.16l-0.83,1.089l-1.798,0.441l-2.962,1.65l-3.315-1.568l-1.453,1.547l-2.247,0.339l-4.128,2.481l-2.391,0.766
		l-2.593,0.163l-2.002,0.711l-3.849,3.17l-3.17,0.259l-1.955,1.141l-2.459,0.752l-0.552-0.287l-0.336-1.154l-1.187,0.123
		l-0.695-0.639l0.158-1.355l1.597-1.651l0.097-0.984l-2.713-0.288l-2.795-0.931l-1.036-1.365l-0.254-2.778l-1.401-0.874
		l-0.922-0.042l-2.155,1.204l-1.439-0.105l-0.692-0.718l-0.937-2.279l-0.798-0.826l-5.682-3.497l-1.946-0.037l-1.958,1.835
		l-3.174,0.401l-0.816,2.072l-0.229,2.188l-0.969,0.761l-0.809,0.143l-1.914-1.103l-1.531-0.359l-1.216-1.757l-1.947-1.29
		l-2.237-0.342l-1.532-0.737l-1.764-2.379l-4.452-2.464l-3.844-3.765l-1.696-1.028l-2.444-2.424l-2.755-1.374l-1.159,0.094
		l-1.002,1.582l-1.491,1.044l-0.708,1.099l-3.29,1.383l-2.993-1.318l-2.553-2.488l-0.898-0.423l0,0l-0.032-41.83l121.569-0.86
		l-0.475-0.7l-0.416-1.971l-2.859-2.938l-1.076-0.28l-1.688-1.135l-0.306-0.825l-1.241-0.966l-0.083-0.712l0.567-4.872l1.193-2.999
		l-0.163-2.611l1.778-3.136l0.114-1.8l-0.387-2.051l0.698-0.808l0.24-1.088l1.186-0.472l0.267-1.046l0.991-0.542l0.826-1.881
		l2.596-1.851l0.364-0.92l0.045-3.151l-0.152-0.516l-1.24-0.963l1.187-1.448l-0.542-1.673l0.266-0.641l-1.684-1.897l-1.169-0.574
		l-2.084-4.266l0.246-15.246l0.756-3.324l1.045-0.777l0.266-0.724l-0.941-3.41l-0.639-1.1l-0.163-2.239l-1.442-3.34l1.17-1.138
		l0.756-3.196l1.966-3.625l-0.594-3.28l0.266-1.501l0.919-1.04l1.46-0.554l0.668-1.249l-1.3-5.072l-1.385-2.306l-0.115-7.594
		l-0.207-0.694l-1.553-1.015l0.78-1.554l-0.427-2.775l0.84-4.839l-0.624-0.529l0.307-0.776l-0.277-0.527l-1.468-1.112l-0.263-1.012
		l0.779-1.053L186.302,191.617z"/>
	<path id="ZM-07" fill="#1E3250" stroke="#1E3250" stroke-width="0.5" d="M260.197,459.121l25.575-0.145l5.392-0.682l10.058-0.022
		l2.924,0.675l4.115,0.07l2.075,0.624l4.171,0.072l2.064,0.622l4.17,0.072l2.273,0.639l25.614,0.07l3.09,1.792l1.578,0.489
		l3.277,2.281l2.218,1.113l0.267,0.719l-0.848,1.263l0.359,0.599l5.431,0.03l2.456,0.66l5.636-0.015l0.972,0.273l0.809,2.071
		l0.254,2.493l1.104,3.076l1.066,6.304l1.5,1.758l1.018-0.357l5.035-9.135l0.986-0.83l0.975-0.002l0.896,0.43l0.678-0.169
		l2.372-1.854l2.337-3.67l0.533-0.337l1.104,0.124l0.837,1.162l2.592,0.955l0.67,1.097l1.528,1.423l0.234,1.413l-0.596,2.372
		l1.451,2.36l0.889,0.261l1.306-0.523l1.329,0.349l2.209-1.085l0,0l2.913,0.716l1.117,1.631l0.615,0.255l1.432-0.07l3.67-1.278
		l1.621,0.111l3.164,1.938l1.408,2.617l2.749,0.293l3.89,1.759l1.624,0.362l0.863,1.548l2.043,1.715l1.403-0.19l1.048-1.713
		l1.027-0.777l0.984-0.012l1.391,0.537l1.111-0.494l1.615-0.048l1.16,0.529l2.193,0.287l2.068,2.369l2.133,0.286l5.111,3.34
		l5.682,0.229l1.498,0.8l2.926,2.517l2.213,0.01l6.083-1.334l1.106,0.321l0.458,1.062l0,0l-1.588,3.274l-2.459,3.514l0.861,0.864
		l-0.675,1.49l0.944,1.725l-1.28,2.486l-0.397,3.647l0.27,0.897l1.061,0.434l0.086,0.479l-1.778,2.461l-0.425,1.826l0.27,0.473
		l1.021,0.506l-0.184,1.408l0.517,1.103l-0.597,2.228l-1.18,1.736l0.028,2.295l-1.045,1.506l-3.235,2.138l-0.721,0.979l-5.567,1.039
		l-22.196,9.061l-7.975,6.593l-18.248,8.553l-11.826,17.56l-0.823,5.776l-0.533,0.854l-3.855,4.438l-13.863,10.874l-5.531,7.619
		l-4.233,4.947l-0.199,0.633l0.343,2.292l-3.739,3.164l-2.919,4.059l-1.576-0.69l-1.98,0.934l-1.049-0.19l-4.043,1.438l-0.905-0.165
		l-0.88,0.478l-1.794-0.402l-0.478,1.599l-1.698,0.868l-1.295-0.343l-1.679,0.438l-3.327,3.184l-2.352-1.143l-1.819,0.011
		l-1.089-0.532l-0.328-1.521l-1.171-0.595l-0.281-1.081l-0.616-0.688l-2.232-0.039l-2.332-0.725l-0.426-0.491l-1.25-0.106
		l-1.058-0.812l-0.875-0.157l-1.101-0.854l-1.584,0.197l-1.827-0.643l-2.239,0.365l-1.305-1.153l-2.213,0.206l-1.693-1.275
		l0.116-0.858l-3.451,1.571l-1.351,0.118l-2.456,0.946l-0.558,0.796l0.642,0.66l-0.837,1.903l-2.729-0.623l-0.555,0.496
		l-1.306-0.281l-1.151,0.516l-0.303,0.806l-0.924,0.413l-2.068-0.602l-1.399,0.233l-0.352-0.639l-1.635-0.321l-0.364-0.496
		l-0.688-0.105l-0.281-0.654l0.148-0.716l-0.789-0.205l-0.119-0.341l0.747-0.854l-1.074-2.259l-2.508-0.496l-0.184-0.529
		l-1.726-1.501l-1.103-0.125l-1.815-0.856l-0.741,0.112l-0.338-1.495l-1.755,0.171l-1.662,1.465l-2.084,0.238l-0.809,0.481
		l-0.591-0.422l-1.988-0.206l-1.355,1.529l-0.841,0.181l-2.115-1.249l-1.274-0.215l-0.939,0.396l-0.804-0.377l-2.882,0.415
		l-0.813-0.883l-1.396,0.148l-2.361-1.095l-1.99-1.621l-0.097-0.607l-0.484,0.121l-1.989-1.273l-2.022,0.161l-0.603-0.381
		l-1.457-1.643l-0.056-1.441l-0.719-0.551l-1.026,0.195l0.235-0.759l-0.287-0.24l-1.721,0.7l0.33-3.028l-0.317-0.384l-0.795,0.464
		l-1.563-2.488l-0.896,0.181l-0.033-1.482l-0.491-0.464l-1.026,0.04l-0.837,0.452l-1.971-2.573l-0.75,0.761l-0.527,0.033
		l-0.816-1.318l0,0l1.31-0.202l0.485-4.932l2.628-3.105l-0.017-1.473l-0.434-1.101l0.264-1.24l-0.424-1.062l0.069-1.145l2.462-2.643
		l2.371-4.09l-0.146-1.513l-0.612-1.333l0.183-2.088l0.706-1.071l2.48-1.171l1.205-1.544l0.276-1.436l-0.626-2.045l0.162-0.835
		l5.737-2.725l0.954-1.137l0.751-2.227l-0.093-1.296l-1.961-6.009l0.007-2.738l0.657-1.636l-0.158-1.119l-0.701-0.71l-1.677-0.785
		l-3.734-0.141l-3.215-0.859l-0.755-1.244l-0.414-1.941l-4.325-3.635l-0.352-1.244l0.468-0.686l1.522-0.328l1.437-1.365l5.34-7.385
		l2.678-1.985l1.664-0.423l2-1.869l3.437-1.496l0.531-3.205l1.672-2.487l0.985-2.294l2.44-1.926l0.259-1.152l1.656-0.139
		l-0.797-1.169l-1.896,0.264l-2.926-3.315l-0.216-0.837l0.142-1.511l1.06-1.395l-0.36-2.534l1.096-0.882l0.78-2.645l0.166-3.318
		l0.641-2.155l-0.091-2.313l-0.853-0.992l-1.098-0.418l-2.423,2.376l-1.299,0.051l-0.933-0.697l-1.428-1.524l-0.319-1.401
		l0.251-0.908l1.175-1.304l0.021-1.448l-0.792-0.835l-1.756-0.999l-0.775-1.168l0.176-0.623l1.668-1.017l0.888-1.201l-0.057-1.629
		l-1.204-1.487l0.046-0.925l0.871-0.74l2.31-0.476l0.752-1.511l0.211-3.354l1.83-2.017l-0.056-0.917L260.197,459.121z"/>
	<path id="ZM-08" fill="#1E3250" stroke="#1E3250" stroke-width="0.5" d="M399.149,275.705l2.859,0.078l0.972-0.277l2.766,0.483
		l1.034-0.933l2.499-0.866l-0.229-1.559l0.29-0.24l2.812,0.857l3.105-0.22l2.12,4.461l-0.286,1.578l0.401,0.832l2.038-0.918
		l1.375,0.665l3.767,0.188l0.646,0.367l1.843,4.312l0.409,0.329l1.277-0.449l0.08-1.298l1.612-1.444l0.419,0.008l0.461,1.109
		l1.455,0.315l1.297,0.986l1.428-0.591l1.276,0.47l2.049-0.098l0.702,0.352l4.585,4.607l2.26,0.93l0.473,0.844l-0.249,2.012
		l2.65,1.817l1.943,2.093l-0.805,3.124l-2.684,0.696l-0.586,0.986l1.535,2.811l2.906,2.889l0.591,1.248l0.329,2.119l1.392,1.289
		l0.306,0.946l0.441-0.01l0.727-0.942l0.75-2.12l1.293-1.347l1.927,0.027l1.138,1.267l1.196,0.568l1.686,1.552l1.764,3.759
		l2.048,0.457l0.046,1.117l2.155,2.831l0.394,0.958l0.057,1.815l0.812,0.938l-0.146,0.548l-0.906,0.168l0.944,1.327l0.024,2.405
		l0.599,0.689l0.75-0.362l0.347,0.736l1.282-0.286l0.396,0.245l2.264,6.69l0.242,1.969l1.354,2.343l0.053,1.454l0.4,0.567l1-0.479
		l0.382,0.203l-0.001,0.812l-0.482,0.428l0.752,1.457l0.981,0.109l0.707-0.479l0,0l-5.25,6.742l-4.285,1.938l-1.262,1.028
		l-1.916,2.721l-8.641,6.597l-0.573,0.733l-0.264,1.124l0.038,2.126l0.685,2.11l-0.281,1.773l-0.82,0.274l-4.763,0.025l-6.644,1.946
		l-3.038-0.04l-3.701-1.303l-1.643,0.063l-1.481,0.613l-2.713-0.007l-4.158-1.28l-2.478,1.932l-6.026,0.143l-3.834,0.786
		l-1.614,0.979l-0.695,0.017l-1.668-0.703l-1.36-2.436l-4.475-11.493l-0.934-0.343l-5.431-0.057l-3.579-1.873l-0.629,0.222
		l-0.859,1.124l-0.311,1.629l-1.162,0.734l-0.335,2.032l-1.109,1.364l-1.009,2.903l-0.869,0.298l-1.496-1.391l-1.419,0.133
		l-0.718,1.581l0.483,1.541l-0.139,1.323l-0.998,1.21l-3.08,1.741l-1.095-0.229l-0.772-1.49l-0.225-2.191l-0.699-2.081l-1.162-1.422
		l-0.114-2.954l-0.49-0.62l-3.622-0.759l-24.666,0.001l0,0l-2.892-1.529l-1.366-1.403l-0.089-6.478l0.847-2.085l1.744-1.386
		l0.742-2.214l0.048-3.06l2.614,0.082l1.238-1.033l0.755-1.812l1.545-0.699l1.235-1.553l0.264-2.895l-1.289-3.045l0.1-1.267
		l1.002-1.609l4.878-3.293l0.792-1.659l0.189-2.481l1.278-3.766l-0.215-0.629l-0.443-0.207l-2.422-0.162l-1.946-2.351l-1.974-0.476
		l-5.862-3.382l-0.049-0.685l1.701-2.732l0.18-0.934l-0.316-0.88l-2.318-1.803l-1.148-2.064l0.041-0.619l0.838-1.319l0.268-2.871
		l1.593-1.561l3.354-1.162l3.877-4.889l3.534-1.249l-0.026-0.906l-1.266-2.814l1.215-2.47l-0.585-3.777l0.695-0.685l2.867-0.049
		l2.422-0.621l2.415,0.642l5.072,0.054l1.388-1.31l2.094-0.937l0.645-0.948l2.59-2.037l1.157-0.325l1.698,0.134l1.159,1.681
		l2.605,0.748l4.78-2.604l1.064-1.67l0,0l0.817,0.748l0.485,2.237L399.149,275.705z"/>
	<path id="ZM-09" fill="#1E3250" stroke="#1E3250" stroke-width="0.5" d="M540.257,420.158l1.735,0.397l0.852,1.913l2.141,1.276
		l1.974,2.905l2.242,1.322l1.999,2.516l0.273,1.236l-0.032,7.325l0.186,1.025l0.65,0.903l0,0l1.006,2.513l-0.815,1.492l0.048,2.085
		l0.673,1.012l-0.195,1.447l0.952,1.13l0.705,1.576l-0.078,2.056l1.412,2.266l2.297,1.703l3.429,3.908l0.594,2.379l-0.239,2.463
		l1.174,3.15l-1.666,3.329l-0.452,1.628l1.444,1.365l1.68,2.581l-0.317,0.308l-3.206,1.68l-4.314-0.26l-1.59-1.214l-2.594,2.197
		l-0.45-0.078l-1.45-1.833l-1.062-0.626l-2.47-0.031l-9.428,1.393l-1.931-1.189l-1.963-0.06l-1.466-0.62l-2.121-0.17l-3.931,0.358
		l-3.568,1.65l-5.157,1.198l-1.13-0.035l-1.971-1.177l-0.89-0.04l-1.025,0.288l-1.854,2.01l-0.797,0.41l-3.949,0.228l-0.8,0.255
		l-1.25,1.166l-2.233-0.13l-5.723,2.982l-2.323,0.323l-0.812,0.438l-1.066,1.232l-7.789,5.486l-1.815,2.885l-1.129,0.922
		l-4.781-0.148l-1.388,0.463l0,0l-0.458-1.062l-1.106-0.321l-6.083,1.334l-2.213-0.01l-2.926-2.517l-1.498-0.8l-5.682-0.229
		l-5.111-3.34l-2.133-0.286l-2.068-2.369l-2.193-0.287l-1.16-0.529l-1.615,0.048l-1.111,0.494l-1.391-0.537l-0.984,0.012
		l-1.027,0.777l-1.048,1.713l-1.403,0.19l-2.043-1.715l-0.863-1.548l-1.624-0.362l-3.89-1.759l-2.749-0.293l-1.408-2.617
		l-3.164-1.938l-1.621-0.111l-3.67,1.278l-1.432,0.07l-0.615-0.255l-1.117-1.631l-2.913-0.716l0,0l0.876-1.651l0.169-2.062
		l0.325-0.517l0.877-0.062l1.605,0.598l2.342,0.054l1.038-0.147l1.268-0.736l0.823-1.611l0.065-4.576l-0.806-2.635l-1.591-2.419
		l-1.822-0.947l-1.956-0.302l-2.541-1.056l-1.316-2.69l0.342-0.958l5.43-1.347l6.645,0.027l5.031,1.423l2.357,1.131l3.476,1.062
		l4.166,2.09l2.373,1.857l0.759-0.098l0.729-0.534l0.851-1.368l1.341-0.977l0.078-3.217l-0.608-1.842l-0.006-1.271l1.448-3.831
		l1.338-1.305l1.446-0.108l1.66,0.594l2.849,0.198l4.192,1.106l1.424-0.452l2.708-0.177l4.088-1.215l3.869-0.109l1.672-0.573
		l2.846-0.175l2.222-0.743l0.573-0.487l2.92-4.71l1.659-0.787l1.815-0.247l4.163-2.063l2.054-1.736l3.615-2.144l6.257-1.515
		l10.775-0.118l3.068-1.831l2.483-0.251l1.573-0.698l2.876-1.83l6.825-3.037l2.89-1.803l6.118-1.677l7.21-3.215L540.257,420.158z"/>
	<path id="ZM-10" fill="#1E3250" stroke="#1E3250" stroke-width="0.5" d="M684.233,84.96l0.915,0.788l0.796,0.1l1.945,1.162
		l-0.404,1.159l2.905,4.032l0.318,0.886l2.602-0.486l3.708,1.565l3.682,0.005l2.216,0.516l0.902,0.918l0.442,1.291l1.323,0.254
		l2.231,1.936l2.35,1.164l1.493-0.484l0.209,1.408l0.469,0.087l0.434-0.714l0.832,1.097l1.694,0.259l-0.803,1.033l0.46,4.083
		l0.356,0.237l1.288-0.555l1.125,0.796l1.125-0.14l0.895,0.415l0.023,1.534l-1.037,1.978l-0.347,2.348l1.171,2.561l0.755,0.09
		l0.584-0.965l0.96,0.263l1.761,3.427l0.5-0.051l0.581-2.259l0.442-0.093l-0.698-1.453l0.88-1.675l1.941,1.163l0.618-0.332
		l0.252-0.609l1.377-0.066l1.478,1.31l-0.023,0.997l0.748,1.391l-0.277,1.569l0.151,1.999l2.596,2.828l1.06,0.464l0.072,1.072
		l0.835,1.653l2.699,0.791l1.101,2.218l-0.039,0.857l0.707,1.865l-1.51,1.102l-1.596,6.221l-0.821,1.43l2.044,1.839l-0.117,0.945
		l0.301,0.127l0.297-0.585l0.348,0.31l1.209-0.236l1.305,0.686l2.98,3.486l2.579,0.48l0.794,0.438l0.526,1.432l1.039,0.438
		l0.181,1.242l0.441-0.333l0.955,0.253l-0.699,1.953l-0.148,1.658l-0.613,0.73l0.302,1.131l-0.329,0.503l0.746,0.999l-0.104,1.3
		l1.398,2.846l-0.035,1.042l0.798-0.085l1.191,0.92l-0.129-0.424l0.987,0.348l0.711,1.817l-0.587,0.841l0.247,0.403l0.514-0.122
		l0.782,1.362l1.299,0.602l0.616,1.346l0.158,1.455l1.402-0.435l-0.212,0.954l-1.006,1.269l-2.293,1.428l-1.354,1.779l-1.26-0.174
		l-0.307,0.248l-2.824,4.347l-1.04,0.146l-0.058,1.478l-0.517,0.115l-0.518,0.668l-0.66,0.031l-0.5,0.844l-1.612,0.56l-0.513,1.234
		l-0.964,0.207l-3.214-0.492l-1.477,1.002L738,187.717l-1.403,2.472l-1.486,0.392l-0.107-0.515l-0.596-0.101l-1.604,1.417
		l0.215,1.083l0.667-0.273l0.553,0.199l0.323-0.428l1.97,2.246l-0.12,3.314l0.742,3.208l0.538,0.545l0.133,0.847l2.042,1.942
		l0.617,1.156l-0.24,0.623l0.383,0.973l0.807-0.133l0.788,0.491l-1.392,4.793l-1.747,1.292l-0.948,3.151l-0.566,0.362l-0.257,0.85
		l-0.896,0.42l0.613,1.786l-0.336,0.401l-1.507,0.249l-0.123,0.776l0.399,0.609l-0.159,1.558l0.489,0.706l-1.458,0.107l-1.398-1.212
		l-0.39-1.015l-0.546,0.285l-0.547,1.374l1.288,2.148l-0.562,1.725l0.852,0.861l0.071,0.571l-0.214,0.984l-1.468,1.097l-0.351,2.515
		l2.809-0.835l0.584,0.449l0.772-0.307l1.546,1.589l0.286,1.66l-0.279,1.597l0,0l-3.934,2.425l-1.022,2.752l-3.118,6.138
		l-1.058,3.437l-2.285,4.022l-10.753,3.953l-2.305,0.237l-1.67,0.551l-2.498,0.125l-5.708,1.397l-3.933,1.858l-6.622,0.105
		l-2.626,0.749l-0.728,0.543l-0.695,1.345l-1.209,3.754l-2.006,1.719l-2.931,0.714l-1.971,0.076l-3.678-1.119l-2.439,3.664
		l-2.379,1.756l-1.354,1.786l-1.013,2.367l-1.241,0.939l-0.746,2.201l-0.102,2.636l-0.585,1.476l-0.179,2.298l-1.986,6.459
		l-0.09,2.347l-0.507,1.085l-0.22,2.007l-0.86,2.369l-1.644,1.398l-0.73,1.622l-0.419,2.321l-1.304,1.271l-3.779,1.736l-1.332,1.108
		l-0.34,2.297l0.088,2.445l-0.797,1.273l-4.117,1.907l-1.246,1.339l-3.107,1.107l-1.495,3.714l-0.804,0.775l-1.376,0.607
		l-1.511,2.818l-0.233,3.996l-0.735,2.21l-0.627,0.802l-3.795,2.381l-1.773,1.808l-6.795,0.326l0,0l-0.17-6.028l-1.917-2.123
		l-2.06-3.665l-0.037-9.324l-0.615-1.686l-0.324-4.072l-1.298-1.26l-2.952-1.189l-4.252,0.386l-1.487,0.953l-0.21,2.618
		l-0.813,1.285l-0.933,0.552l-1.688,0.006l-2.385-1.822l-1.227-2.096l-1.512-1.441l-2.648-0.23l-3.914-1.213l-4.834-0.206
		l-5.673-3.448l-0.445-0.817l0.427-0.861l0.046-1.183l-1.146-3.706l0.654-1.884l1.79-2.524l0.061-0.904l-0.767-0.822l-2.243-1.323
		l-1.344-2.838l-1.19,0.084l-1.582,1.734l-1.702,0.137l-0.995-0.368l-2.332-2.57l-0.12-0.851l0.643-1.959l-0.137-1.509l-3.451-1.892
		l-1.107-1.883l1.243-3.872l-0.015-3.002l-0.749-1.066l-3.604-0.338l-1.651-1.879l-3.042-0.153l-1.114-0.513l-1.813-0.205
		l-9.126-3.485l-0.977-1.638l-1.806-0.399l-1.378-1.006l-2.276-3.29l-0.228-1.94l-0.819-1.939l-1.268-1.411l-0.986-0.513
		l-2.053,0.091l-6.235,2.699l-0.316,0.714l-0.151,3.253l-0.866,1.65l-1.37,1.24l0,0l-0.04-0.07l0,0l0.874-3.73l-2.574-3.072
		l-0.06-4.068l-0.642-1.902l0.916-2.761l2.259-0.858l2.641-0.132l5.853-1.247l3.51-0.07l2.043-0.611l3.159-0.12l1.522-0.534
		l2.629-0.151l4.132-0.931l2.429-2.026l5.398-7.596l2.152-1.868l1.271-1.614l0.389-3.97l1.021-2.434l0,0l2.507-1.461l7.049-7.618
		l2.651-0.685l1.684-0.961l2.257-2.967l3.042-6.032l3.625-5.434l1.317-0.682l2.928-0.202l0.733-2.211l2.981-1.671l3.604-4.062
		l1.446,0.052l1.374,0.723l1.678,1.492l0.855-0.282l0.839-1.415l1.968-2.092l0.715-1.543l0.309-2.534l0.412-0.327l1.169-0.065
		l0.714-0.78l-0.604-1.32l-1.404-0.27l-0.421-0.396l-0.071-2.374l0.516-0.979l1.804-0.864l5.694-0.889l1.654-3.083l2.204-1.404
		l2.488-0.254l1.988-0.717l1.189-1.73l1.1-0.7l1.193-0.009l0.795,0.883l1.001,0.131l4.399-1.497l2.481-2.248l3.019-0.201
		l2.395-0.769l1.413-1.678l4.28-2.316l3.011-4.914l1.421-1.441l1.821-0.925l1.964-0.275l1.449-0.936l0.648-1.34l0.075-5.723
		l0.592-1.763l0.234-2.284l3.651-3.733l3.101-1.189l1.129-1.021l0.937-2.641l0.169-2.82l0.915-2.478l3.909-3.889l2.769-1.872
		l1.71-0.751l2.782,0.02l-1.011-1.837l-0.134-2.575l-1.215-5.572l-0.151-2.573l-0.53-1.499l-0.14-2.575l-0.731-1.546l0.018-4.745
		l-2.121-6.263l-2.505-5.705l0.002-4.572l0,0l0.784,0.27l3.588-0.085L684.233,84.96z"/>
</g>
</svg>
