<?xml version="1.0" encoding="utf-8"?>
<!-- Generator: Adobe Illustrator 15.0.0, SVG Export Plug-In . SVG Version: 6.00 Build 0)  -->
<!DOCTYPE svg PUBLIC "-//W3C//DTD SVG 1.1//EN" "http://www.w3.org/Graphics/SVG/1.1/DTD/svg11.dtd">
<svg version="1.1" id="Layer_1" xmlns:amcharts="http://amcharts.com/ammap"
	 xmlns="http://www.w3.org/2000/svg" xmlns:xlink="http://www.w3.org/1999/xlink" x="0px" y="0px" width="700.338px"
	 height="626.344px" viewBox="0 0 700.338 626.344" enable-background="new 0 0 700.338 626.344" xml:space="preserve">
<defs>
	
	
		<amcharts:ammap  projection="mercator" leftLongitude="25.236468" topLatitude="-15.610101" rightLongitude="33.056935" bottomLatitude="-22.420971">
		</amcharts:ammap>
</defs>
<g>
	<path id="ZW-BU" fill="#1E3250" stroke="#1E3250" stroke-width="0.5" d="M282.643,404.8l-0.725-0.928l-4.371-0.357l-1.017,3.375
		l-3.447-2.095l0,0l1.438-3.325l-1.487-1.069l-0.39-1.997l-3.08,1.236l-1.65-0.665l-2.952,0.3l-1.005-0.578l0.252-1.299l1.906-0.919
		l0.613-0.931l-0.6-0.858l0.953-3.245l-1.184-3.79l0.454-1.176l0.968,0.009l5.79,3.138l2.515-1.688l4.203-0.902l-0.344,3.25
		l0.44,0.652l1.452,0.134l2.494,1.523l2.39-1.285l0.23,2.076l2.013,0.908l-1.274,3.773l2.734,2.135l0.158,0.773l-1.468,2.146
		L282.643,404.8z"/>
	<path id="ZW-HA" fill="#1E3250" stroke="#1E3250" stroke-width="0.5" d="M489.891,178.68l2.269,0.227l0.495,2.4l6.328,0.52
		l0.455,2.281l-0.691,3.049l1.007,1.637l0.103,3.085l1.259,2.958l-0.272,0.844l-1.467,0.811l-0.572,3.172l-1.952-0.107l-2.059,1.617
		l0.423,3.286l-0.578,2.572l-2.608,0.402l0.382,1.276l1.493,0.936l-2.382,1.86l-1.793,0.092l-2.184,1.057l-5.176-4.786l-8.041-4.851
		l0,0l3.102-1.019l0.67-0.967l-1.246-1.998l-2.799-1.59l1.576-2.615l-1.563-1.716l0.422-2.648l2.663-0.695l0.943-1.769l2.217-1.774
		l0.66-2.688l0,0l1.801,1.632l1.911,0.109l0.908-0.967l1.118,0.515l1.709-0.211l1.343-1.53L489.891,178.68z"/>
	<path id="ZW-MA" fill="#1E3250" stroke="#1E3250" stroke-width="0.5" d="M647.911,168.686l0.455,0.964l2.323,0.517l2.096,1.977
		l0.756,1.046l-0.092,2.024l-2.03,3.897l-0.497,2.704l0.692,1.589l-1.415-0.068l-0.113,0.474l0.413,1.802l1.638,1.085l-1.069,0.996
		l-0.298,2.807l-3.416,0.038l-0.771,1.359l-0.531,7.826l1.566,0.575l0.358,0.84l-0.645,2.651l-0.548,0.819l-1.247,0.012
		l-0.456,2.267l1.441,7.244l1.229,3.205l-0.179,2.975l2.149,2.327l-0.123,2.03l1.062,4.232l-0.944,2.831l0.38,2.811l3.176,2.546
		l-0.105,0.846l1.361,1.619l-0.695,1.547l-1.92,1.015l-0.627,3.521l0.552,2.3l-0.715,1.426l-2.954,1.391l-1.566-1.018l-3.383,2.093
		l-1.33-0.211l-1.033,0.638l-0.604,1.367l0.932,3.119l-0.814,1.864l1.083,1.053l0.871,2.669l3.758,6.038l-2.204,6.685l-2.962,2.638
		l-1.24,0.078l-3.484-1.722l-1.862,0.33l-8.525,4.597l-0.602,2.035l1.614,3.023l0.563,3.015l-2.539,1.333l0.77,5.388l1.096,2.027
		l2.872,0.367l3.712-1.062l2.687-0.048l0.993,0.743l0.501,3.522l0.561,1.056l1.104,0.47l0.522,1.383l-2.392,11.964l0.085,5.286
		l-6.147,5.97l-0.067,0.81l0.842,1.426l-0.771,5.568l0.496,1.504l1.754,0.926l3.479-0.074l-0.392,3.749l0.92,1.975l-0.306,6.024
		l0.438,1.262l-1.476,4.72l1.256,0.659l3.313,0.003l6.622-2.634l1,2.667l-1.966,2.362l0.115,0.996l2.834,2.151l3.874,1.731
		l1.173,1.206l0.295,1.647l-3.798,19.437l-3.473,1.645l-4.101,0.908l-0.697,1.363l0.534,0.934l0.107,3.69l-0.84,0.443l-1.306-0.399
		l-0.562-1.145l-1.615,0.782l-1.046,3.942l1.305,2.963l-2.046,0.963l-0.664,1.687l2.312,1.83l-0.212,4.177l-4.768,4.632
		l-0.531,2.851l-5.584,6.851l-5.469,9.466l-0.863,0.585l-7.644-0.067l-6.281,5.129l-0.536,4.979l0.756,2.337l0.262,9.488
		l1.737,7.258l-0.143,2.27l-4.055,8.683l-6.737,7.736l-1.776,3.404l3.274,2.964l-0.902,2.041l0.358,1.233l1.911,1.823l0.761,2.12
		l3.748,5.411l0.335,1.501l-2.286-1.541l-2.552,0.225l0,0l-5.521-5.581l-3.643-1.578l-2.023-4.344l-0.204-2.532l-1.712-5.206
		l-1.689-1.526l-4.328-1.692l0.105-3.515l-2.879-2.449l-0.116-2.285l-1.149-3.454l0.368-2.333l5.695-11.426l1.298-7.481l2.471-2.359
		l0.636-5.795l1.594-4.016l-0.157-7.164l1.235-11.125l1.551-6.487l0.682-7.812l1.317-5.868l0.142-8.771l-0.651-2.87l-4.253-1.48
		l-4.107-2.374l-3.596-3.438l-5.799,0.12l-1.946-0.826l-3.181-2.797l-3.504,0.005l-1.46-0.751l-2.251-2.607l-1.002-2.622
		l-3.419-2.836l-2.275-4.714l-1.906-1.111l-3.224-3.486l-1.783-4.313l-5.385-3.058l-1.726-3.017l-2.114-1.96l-1.451-0.47
		l-1.582-4.679l-5.521-1.48l-2.207,0.305l-1.878-2.732l-4.095-3.479l-3.787-1.098l-4.46-0.242l-2.923-3.169l-13.245-8.382l0,0
		l5.733-0.569l1.078-0.575l0.324-4.043l1.98-2.602l0.477-4.971l3.971,0.129l1.939,1.517l4.25-0.078l1.553,2.854l4.349,1.615
		l1.403-0.093l4.606-7.837l-0.325-4.194l0.555-0.57l5.521,2.77l3.399-0.641l2.188-1.395l1.566,0.347l3.429,1.901l3.205,3.234
		l3.633,2.018l3.584,1.291l2.754-1.002l3.175,0.689l-1.215-4.021l0.689-2.59l0.158-6.215l-2.596-5.696l-2.548-2.066l-0.712-2.491
		l0.129-5.764l-2.002-3.322l-4.896-1.356l0.298-1.856l-0.783-2.004l-2.224-1.99l-3.369-4.474l0.905-4.678l-3.771-4.911l2.538-1.755
		l1.555-3.796l6.562-2.28l-0.714-3.048l1.639-3.273l-0.491-14.697l0.878-3.38l0.826-0.892l1.751-0.34l2.284,1.059l6.577,0.088
		l-2.021-5.635l1.095-1.697l2.968-1.638l3.268-3.045l6.796-7.296l-0.685-3.679l1.824-3.507l6.986-4.169l5.012-5.788l2.136-0.827
		l4.323-3.538l5.351-1.029l2.477-1.834l1.987-2.707l3.812-0.011l2.845-1.039l2.531-3.354l2.577-0.236l0.435-5.403l6.741-2.933
		l1.126-4.092l2.689-5.63l5.585-2.837l3.03-3.918l5.967-1.088l4.233-1.543l0,0l0.311,5.547l4.006,3.347l-3.173,4.682l-0.772,4.576
		l-1.221,0.236l-1.778,2.231l-0.179,2.983L647.911,168.686z"/>
	<path id="ZW-MC" fill="#1E3250" stroke="#1E3250" stroke-width="0.5" d="M434.373,3.363l-0.066,30.461h41.684l2.293,1.412
		l0.613,1.936l2.084,1.758l3.198-1.249l0.86-2.226l1.933-0.501l0.893-1.13l0.676,1.405l2.582-1.405l-0.118-0.386l3.237-1.144
		l3.162,0.702l0.976,1.192l2.133,0.291l2.45-0.655l0.188,0.734l1.747,0.112l3.313,1.505l2.216,1.844l1.248,2.739l4.674,4.941
		l1.845-0.172l0.337,1.836l4.254,0.047l1.494,1.195l3.841,1.172l12.271,1.513l3.47,2.315l3.153,0.72l1.251,1.706l1.013,0.133
		l0.444,1.06l1.086,0.631l-0.1,1.51l0.877-0.048l0.441,1.219l1.491,0.099l0.29,0.72l3.503,1.618l1.453,3.181l-0.326,2.124
		l0.521,1.32l10.386,2.559l20.745-0.676l10.607,3.036l24.876,11.317l-0.473,6.93l4.286,2.049l0,0l-5.396,3.092l-3.497-1.266
		l-4.526,1.413l-5.85-2.831l-5.975-0.404l-5.12,1.377l-4.796,2.285l-3.833,0.165l-4.276,2.756l-3.731-1.074l-6.853,2.584
		l-1.411,1.091l-3.722-0.161l-1.593,2.527l-1.971,0.697l-0.388,0.762l0.573,5.256l-2.043,1.415l-2.139-0.058l-1.62,3.844
		l-3.254,3.063l0.465,2.708l-3.886,3.349l-1.974,4.489l1.095,2.305l-10.106,4.326l-0.231,0.561l1.698,3.18l0.154,3.474l-0.581,1.365
		l-7.242,6.059l-1.373,1.69l-0.187,1.162l-1.575,1.412l-0.791,2.265l-6.59,2.597l-1.867,2.505l-1.06,3.119l-1.538,1.334l-1.03,2.589
		l-0.95-1.934l-0.596,0.125l-5.053,4.041l-1.308,0.57l-3.145-0.417l-2.528,1.9l-1.789,0.212l-0.628-4.039l3.343-9.228l-2.747-0.82
		l-6.122-0.28l-5.221-1.378l-1.334,1.34l-1.175,2.568l0.06,2.72l-2.938,0.418l0.452,2.2l0.56,0.396l1.786-0.331l-1.456,7.697
		l-0.668,1.085l0,0l-0.128,4.407l-1.343,1.53l-1.709,0.211l-1.118-0.515l-0.908,0.967l-1.911-0.109l-1.801-1.632l0,0l-0.66-3.323
		l-1.041-1.156l-2.227-0.028l-1.976,2.213l-6.028-3.616l-5.86-2.256l1.239-6.132l-14.828,0.297l0.555-9.208l0.903-2.284
		l-0.977-5.236l4.512-11.93l3.818-6.527l1.47-7.753l-3.494-1.026l-1.545,0.405l-1.278-1.992l-3.716,2.447l-1.513-1.152l-3.528-0.03
		l-0.558-0.638l-0.22-5.508l-1.719-3.667l0.385-2.754l-1.452-7.337l0.549-1.716l2.297,0.114l0.667-1.637l-0.758-1.314l-2.458-0.751
		l1.021-2.514l-0.688-4.502l-8.875-3.207l-3.139-4.338l0.466-2.749l2.516-5.38l0.301-5.256l1.728-3.943l-0.686-4.456l-2.137-1.03
		l-5.254,0.447l-2.215-1.35l-0.837-3.141l-1.148-1.152l-3.794-0.871l-2.209,1.553l-1.019,4.536l-1.103,1.632l-3.16,0.439
		l-1.343,0.996l-2.646,0.478l-2.487,1.911l-2.177-1.034l0.669-3.621l2.84-3.621l-0.127-6.403l3.628-3.58l0.55-1.63l-0.237-0.597
		l-1.975-0.396l-1.504-2.743l-1.029-2.582l-0.242-4.49l-2.29-1.947l-0.791-1.668l-0.002-2.184l7.998-5.163l6.063-4.886l1.062-1.707
		l3.779-2.187l1.217-1.747l2.833-2.264l0.627-0.992l-0.082-1.548l-0.791-1.307l-2.445-1.862l-0.202-5.108l0,0l6.631,0.666
		l4.951-2.792L434.373,3.363z"/>
	<path id="ZW-ME" fill="#1E3250" stroke="#1E3250" stroke-width="0.5" d="M638.927,95.263l2.067,1.011l2.505-1.635l4.626,0.509
		l-0.993,5.675l-4.561,10.58l-6.408,2.308l8.574,12.873l4.055,9.627l0.602,5.718l0,0l-4.233,1.543l-5.967,1.088l-3.03,3.918
		l-5.585,2.837l-2.689,5.63l-1.126,4.092l-6.741,2.933l-0.435,5.403l-2.577,0.236l-2.531,3.354l-2.845,1.039l-3.812,0.011
		l-1.987,2.707l-2.477,1.834l-5.351,1.029l-4.323,3.538l-2.136,0.827l-5.012,5.788l-6.986,4.169l-1.824,3.507l0.685,3.679
		l-6.796,7.296l-3.268,3.045l-2.968,1.638l-1.095,1.697l2.021,5.635l-6.577-0.088l-2.284-1.059l-1.751,0.34l-0.826,0.892
		l-0.878,3.38l0.491,14.697l-1.639,3.273l0.714,3.048l-6.562,2.28l-1.555,3.796l-2.538,1.755l3.771,4.911l-0.905,4.678l3.369,4.474
		l2.224,1.99l0.783,2.004l-0.298,1.856l4.896,1.356l2.002,3.322l-0.129,5.764l0.712,2.491l2.548,2.066l2.596,5.696l-0.158,6.215
		l-0.689,2.59l1.215,4.021l-3.175-0.689l-2.754,1.002l-3.584-1.291l-3.633-2.018l-3.205-3.234l-3.429-1.901l-1.566-0.347
		l-2.188,1.395l-3.399,0.641l-5.521-2.77l-0.555,0.57l0.325,4.194l-4.606,7.837l-1.403,0.093l-4.349-1.615l-1.553-2.854l-4.25,0.078
		l-1.939-1.517l-3.971-0.129l-0.477,4.971l-1.98,2.602l-0.324,4.043l-1.078,0.575l-5.733,0.569l0,0l-9.749,0.638l-8.1,1.227
		l-0.691-1.208l0.228-7.194l-6.951-1.493l-0.454,4.124l-1.282,0.088l-0.078,0.445l1.151,3.994l-2.281,1.064l-1.234,1.341l0,0
		l-7.22-5.135l-2.269-3.343l-2.653-0.836l0.141-3.557l1.243-0.005l-0.211-1.575l-4.938-8.135l2.385-3.684l-1.448-1.002l-0.061-3.591
		l-7.367,1.201l-8.034-4.166l0,0l2.35-3.075l2.084,0.315l0.427-2.865l3.591-2.876l0.433-1.574l-0.352-6.448l1.886,1.241l1.315-0.971
		l0.849,1.487l2.893-5.25l1.789-2.063l0.273-1.25l3.774-4.446l0.962-13.407l1.826-1.86l0.154-0.965l-6.636-8.334l-0.896-3.252
		l0.108-2.09l4.805-4.281l0.193-1.165l-0.646-1.605l0.781-2.733l2.691-3.948l-1.467-5.293l2.576-2.54l0.021-3.33l0.709-1.407
		l3.504-0.378l3.716,1.827l0,0l8.041,4.851l5.176,4.786l2.184-1.057l1.793-0.092l2.382-1.86l-1.493-0.936l-0.382-1.276l2.608-0.402
		l0.578-2.572l-0.423-3.286l2.059-1.617l1.952,0.107l0.572-3.172l1.467-0.811l0.272-0.844l-1.259-2.958l-0.103-3.085l-1.007-1.637
		l0.691-3.049l-0.455-2.281l-6.328-0.52l-0.495-2.4l-2.269-0.227l0,0l0.668-1.085l1.456-7.697l-1.786,0.331l-0.56-0.396l-0.452-2.2
		l2.938-0.418l-0.06-2.72l1.175-2.568l1.334-1.34l5.221,1.378l6.122,0.28l2.747,0.82l-3.343,9.228l0.628,4.039l1.789-0.212
		l2.528-1.9l3.145,0.417l1.308-0.57l5.053-4.041l0.596-0.125l0.95,1.934l1.03-2.589l1.538-1.334l1.06-3.119l1.867-2.505l6.59-2.597
		l0.791-2.265l1.575-1.412l0.187-1.162l1.373-1.69l7.242-6.059l0.581-1.365l-0.154-3.474l-1.698-3.18l0.231-0.561l10.106-4.326
		l-1.095-2.305l1.974-4.489l3.886-3.349l-0.465-2.708l3.254-3.063l1.62-3.844l2.139,0.058l2.043-1.415l-0.573-5.256l0.388-0.762
		l1.971-0.697l1.593-2.527l3.722,0.161l1.411-1.091l6.853-2.584l3.731,1.074l4.276-2.756l3.833-0.165l4.796-2.285l5.12-1.377
		l5.975,0.404l5.85,2.831l4.526-1.413l3.497,1.266l5.396-3.092l0,0l1.26,0.527l4.67-0.024l1.442-0.886l0.893,0.784L638.927,95.263z"
		/>
	<path id="ZW-MI" fill="#1E3250" stroke="#1E3250" stroke-width="0.5" d="M252.632,155.293l2.745-0.416l2.577,0.704l2.795-1.698
		l4.294-0.324l4.935-1.201l5.934,4.008l0.637-0.076l1.493-3.67l1.596-1.069l2.763-3.78l1.672-0.507l0.774-3.275l3.287-5.375
		l2.66-0.103l3.512-3.375l3.499-1.457l7.264-0.197l2.944-1.582l1.152-0.113l0.552,0.682l2.36,5.249l1.461,1.646l7.056,3.114
		l1.066,1.684l2.501,0.331l5.87,2.306l5.282,0.261l0.235,1.36l1.785,1.207l0.624,4.284l3.611,2.173l3.329,4.133l3.853,1.653
		l-1.038,2.479l-1.832,1.436l-2.235,3.597l-1.833,1.676l-0.002,0.922l1.824,2.45l-0.492,6.77l-2.617,2.612l-0.1,1.548l1.59,1.248
		l0.078,0.682l-2.436,2.839l-0.364,2.485l-1.958,2.32l-0.205,2.486l-3.844,6.327l-1.092,5.535l1.897,6.193l1.353,1.491l3.493,7.125
		l5.184,2.51l2.587,4.229l3.393,0.774l7.74,5.127l2.716,0.851l2.755,2.54l-0.804,5.31l-1.481,2.09l0.396,4.268l-0.963,3.38
		l0.678,2.419l1.199,0.767l3.321-0.154l1.998,2.662l1.28,0.606l6.802-0.274l1.841,2.823l2.56-1.006l3.123,3.669l1.242,0.485
		l1.56-0.323l3.245,2.097l2.481,0.283l3.521-1.008l4.004,0.4l1.683,1.169l2.08-0.768l2.765,1.65l4.763-0.207l3.887,1.123
		l1.684,0.723l1.01,3.063l2.444,0.64l1.968,1.811l3.482-0.572l4.379,3.9l4.936,2.044l2.893,1.888l3.327,0.473l0,0l8.034,4.166
		l7.367-1.201l0.061,3.591l1.448,1.002l-2.385,3.684l4.938,8.135l0.211,1.575l-1.243,0.005l-0.141,3.557l2.653,0.836l2.269,3.343
		l7.22,5.135l0,0l-13.949,11.156l4.547,0.746l1.495,1.529l-0.874,1.503l-3.371,0.907l0.271,5.02l-1.966,7.624l1.082,5.95
		l-2.416,13.394l0.752,4.42l-5.64,0.229l-8.718-2.113l-4.914,0.627l-0.631,3.047l1.181,2.473l-0.597,1.666l-2.412,1.592
		l-0.192,1.949l1.257,1.418l-0.562,0.611l-13.067,0.568l-5.641,2.369l-5.446,0.173l2.671,2.881l0.409,1.381l-0.195,2.236
		l-1.324,2.808l-0.029,3.7l-0.718,2.849l2.699-2.284l1.333-0.043l4.655,2.917l1.582,1.787l-3.165,7.414l-0.076,1.425l1.015,1.179
		l4.94,1.858l1.839,4.516l1.859-0.087l4.19,5.118l1.351,3.011l2.605,3.292l-0.053,5.79l1.726,4.765l3.658,2.229L442.052,446
		l-1.86,0.824l-0.4,0.817l-2.345,9.194l-0.629,11.974l-3.832,5.043l-3.805,2.753l-6.667-1.327l-3.447,0.991l-2.115-0.526
		l-1.744,0.291l-3.05-0.812l-1.263-1.347l-3.617-0.729l-3.015-3.553l-3.048-1.385l-3.58-3.062l-1.542-0.039l-3.975,1.761
		l-9.813,8.834l-3.778,0.204l-1.666-0.941l0,0l-7.474,0.076l-4.103,1.182l-5.808-0.214l-4.428-1.03l-0.567-0.982l5.445-4.815
		l8.121-5.956l1.825-11.271l2.917-10.406l-3.85,0.976l-2.471-0.003l-1.053-0.858l-0.972-2.123l0.082-2.202l3.16-1.791l-0.973-1.55
		l6.681-4.03l1.457-2.037l1.576-4.033l1.17-7.413l3.953-11.803l-0.083-2.442l2.863-6.344l3.989-6.789l-0.085-3.617l-1.051-1.015
		l-4.801-0.122l-0.486-1.22l0.24-3.209l-0.928-0.488l-6.615,2.189l-1.331-0.123l-1.292-5.89l-6.21,2.632l-1.371-0.773l-2.338-3.537
		l-5.883-3.219l-2.258,0.076l-2.342,2.755l-1.129-0.206l-0.963-2.195l0.373-6.735l1.091-2.675l-0.319-2.151l-4.344-3.58
		l-1.402-3.735l-3.697-3.335l-1.805-2.924l-2.519-6.369l-1.245-1.382l-1.607-0.331l0,0l-2.649-1.873l-0.84-1.865l-3.567-3.618
		l-4.253-2.407l2.867-4.074l-0.478-1.176l-8.122-9.18l-1.762-1.019l-0.476-1.66l0.437-8.809l-1.118-1.338l-0.515-1.821l-0.681-0.125
		l0.127-1.614l-2.045-0.011l-1.081-0.612l-4.729-17.827l-0.54-4.561l-0.992-2.022l0.968-1.445l12.707-3.762l7.494-2.866l1.165-1.526
		l-1.385-4.519l-10.041,0.274l-16.599-0.577l-9.032-1.75l-6.005,0.843l-4.877-0.519l-6.127,1.08l-7.156-0.542l-6.126,0.793
		l-3.436-0.554l-3.802,0.287l-1.793-0.863l-1.562,0.309l-0.794-0.734l-2.24,0.059l-4.429-1.252l-4.009,1.007l-5.152-0.739
		l0.022-27.641l2.177-2.308l1.362-0.549l4.267,0.526l1.008-1.156l-0.71-1.011l-2.553-0.146l-1.347-1.019l-0.229-1.168l1.389-3.561
		l-0.324-3.82l-0.75-0.85l-2.516,0.375l-1.125-3.505l-1.064-1.336l1.057-2.116l2.771-2.22l0.41-1.24l1.365-1.149l-0.129-3.372
		l1.83-4.114l-1.399-3.904l0.25-1.241l3.301-4.057l3.587-0.526l3.268-5.179l0.319-4.886l1.215-2.752l-0.155-5.248l1.493-2.83
		l1.848-7.388L252.632,155.293z"/>
	<path id="ZW-MN" fill="#1E3250" stroke="#1E3250" stroke-width="0.5" d="M232.597,110.062l1.153,1.615l0.319,4.274l-0.98,3.224
		l0.579,1.763l1.454,1.571l1.055,3.042l-0.841,0.116l0.392,2.002l-1.969,2.114l1.079,0.163l2.924-0.99l1.36,3.339l3.252,0.27
		l0.088,3.559l1.452,2.131l-0.414,1.795l1.593,4.293l0.058,2.641l1.618,1.255l0.937,2.008l2.219,0.661l2.707,4.385l0,0l-0.641,0.634
		l-1.848,7.388l-1.493,2.83l0.155,5.248l-1.215,2.752l-0.319,4.886l-3.268,5.179l-3.587,0.526l-3.301,4.057l-0.25,1.241l1.399,3.904
		l-1.83,4.114l0.129,3.372l-1.365,1.149l-0.41,1.24l-2.771,2.22l-1.057,2.116l1.064,1.336l1.125,3.505l2.516-0.375l0.75,0.85
		l0.324,3.82l-1.389,3.561l0.229,1.168l1.347,1.019l2.553,0.146l0.71,1.011l-1.008,1.156l-4.267-0.526l-1.362,0.549l-2.177,2.308
		l-0.022,27.641l5.152,0.739l4.009-1.007l4.429,1.252l2.24-0.059l0.794,0.734l1.562-0.309l1.793,0.863l3.802-0.287l3.436,0.554
		l6.126-0.793l7.156,0.542l6.127-1.08l4.877,0.519l6.005-0.843l9.032,1.75l16.599,0.577l10.041-0.274l1.385,4.519l-1.165,1.526
		l-7.494,2.866l-12.707,3.762l-0.968,1.445l0.992,2.022l0.54,4.561l4.729,17.827l1.081,0.612l2.045,0.011l-0.127,1.614l0.681,0.125
		l0.515,1.821l1.118,1.338l-0.437,8.809l0.476,1.66l1.762,1.019l8.122,9.18l0.478,1.176l-2.867,4.074l4.253,2.407l3.567,3.618
		l0.84,1.865l2.649,1.873l0,0l-1.053,2.71l-1.33,0.846l-1.167-0.167l-1.725-1.385l-4.101-0.867l-2.256,1.003l0.116,1.418
		l2.246,2.035l0.959,2.03L324.106,350l-4.561,3.385l0.398,1.056l3.735,3.101l-0.056,4.704l-1.465,4.052l0.77,1.175l-4.283,3.444
		l-7.521-2.765l2.964,10.856l-7.828,8.481l-6.655,0.487l3.685,2.719l-6.658,5.957l-2.446,6.365l-3.12,3.328l0.74,1.058l-4.514,3.105
		l-4.648-5.709l0,0l6.009-1.678l1.468-2.146l-0.158-0.773l-2.734-2.135l1.274-3.773l-2.013-0.908l-0.23-2.076l-2.39,1.285
		l-2.494-1.523l-1.452-0.134l-0.44-0.652l0.344-3.25l-4.203,0.902l-2.515,1.688l-5.79-3.138l-0.968-0.009l-0.454,1.176l1.184,3.79
		l-0.953,3.245l0.6,0.858l-0.613,0.931l-1.906,0.919l-0.252,1.299l1.005,0.578l2.952-0.3l1.65,0.665l3.08-1.236l0.39,1.997
		l1.487,1.069l-1.438,3.325l0,0l-2.668,0.263l-2.823,4.535l-0.973,0.562l-3.193-0.231l-2.66,4.21l-2.779-6.458l-1.374-0.053
		l-5.122-6.03l-1.766-1.279l-1.579-4.203l-1.359-1.601l-4.942-2.691l-2.147,0.749l-5.896,0.141l-3.205,1.551l-4.347-5.172
		l-1.807,6.646l-2.268,4.569l-4.877-1.034l-1.958-1.977l-2.772-1.255l-5.058-5.999l-3.486-2.117l-2.066-2.789l-1.403-0.629
		l-3.784-3.99l-1.23-4.85l-3.728-4.963l-4.749-0.512l-6.228-4.392l-5.998-0.372l-4.86,1.873l-9.847-1.736l-2.833,0.847l-5.079,0.201
		l-3.92,0.867l-2.606-0.855l-4.316,0.331l-12.998,3.906l-3.111,2.783l-3.1,1.047l0,0l-4.392-1.225l-2.308,0.477l-3.987-7.688
		l-6.42-3.499l-5.122-0.93l-1.708-1.935l-2.173-4.77l-3.141,0.349l-2.269-1.619l2.177-3.821l-3.539-3.217l-4.96,0.769l-3.25-2.088
		l-1.773-0.331l-1.53-1.411l-1.727-4.227l-0.683-4.876l-1.84-1.609l-0.11-2.712l-3.806-9.315l0.173-1.539l-2.713-3.028l0.439-1.467
		L66.1,312.39l-4.22-4.74l-1.141-2.589l-0.236-2.951l2.845-3.773l-0.536-2.807l-2.032-4.79l-1.855-3.018l-1.869-0.472l-4.369-3.541
		l-3.911-1.849l0.089-2.381l-1.673-2.522l-0.895-2.711l-0.286-3.649l0.89-2.236l-1.05-2.383l-0.084-2.501l-2.912-2.654l-3.238-0.572
		L38.364,259l-4.338-7.369l-2.86-1.023l-7.28-8.973l-2.701-7.853l-5.822-12.027l-2.039-3.107l-2.449-0.95l-0.893-1.938l-2.852-1.086
		l-2.524-4.235l-2.016-6.385l-2.577-3.401l0.032-3.554l2.138-6.774l6.582,3.711l2.1-0.158l1.141,1.24l4.05-0.584l1.131,0.53
		l1.319-0.556l1.79,0.302l2.972,1.754l1.182-0.253l1.903-2.149l2.794,0.289l0.831,0.593l1.136-0.675l2.928-0.335l2.335-2.059
		l2.466-0.24l0.476,2.1l1.041-0.157l4.1,1.379l2.684,2.852l3.524,0.698l1.509,3.174l-1.05,1.198l1.277,0.768l-0.208,1.006
		l0.577,1.078l3.593,1.138l0.494,0.898l1.965-0.328l2.906,0.844l3.343-2.437l1.834,0.396l0.78-0.697l3.835,0.875l1.176-2.674
		l-0.901-0.928l0.783-1.119l5.349-1.495l4.85-2.208l-0.163,1.207l2.379,1.791l3.109-0.289l1.834,1.619l3.146-0.512l2.567,0.903
		l2.226-0.277l4.263,2.561l1.757,0.149l3.027,1.525l3.985,0.238l1.259,2.486l1.646,0.835l0.461,2.138l1.53,0.749l2.557-0.015
		l3.304,1.605l4.675-4.474l2.359-0.615l1.82,0.482l2.386-1.22l0.672-2.246l2.526,0.565l1.23-0.671l1.272,0.232l5.682-2.021
		l1.473,0.267l2.783-1.312l2.214,0.972l4.101-5.705l5.255-4.445l-0.203-4.111l5.949-6.951l7.772-10.706l19.479-15.28l5.417-6.235
		l0.748-1.201l1.157-8.116l16.616-24.673L232.597,110.062z"/>
	<path id="ZW-MS" fill="#1E3250" stroke="#1E3250" stroke-width="0.5" d="M334.001,337.926l1.607,0.331l1.245,1.382l2.519,6.369
		l1.805,2.924l3.697,3.335l1.402,3.735l4.344,3.58l0.319,2.151l-1.091,2.675l-0.373,6.735l0.963,2.195l1.129,0.206l2.342-2.755
		l2.258-0.076l5.883,3.219l2.338,3.537l1.371,0.773l6.21-2.632l1.292,5.89l1.331,0.123l6.615-2.189l0.928,0.488l-0.24,3.209
		l0.486,1.22l4.801,0.122l1.051,1.015l0.085,3.617l-3.989,6.789l-2.863,6.344l0.083,2.442l-3.953,11.803l-1.17,7.413l-1.576,4.033
		l-1.457,2.037l-6.681,4.03l0.973,1.55l-3.16,1.791l-0.082,2.202l0.972,2.123l1.053,0.858l2.471,0.003l3.85-0.976l-2.917,10.406
		l-1.825,11.271l-8.121,5.956l-5.445,4.815l0.567,0.982l4.428,1.03l5.808,0.214l4.103-1.182l7.474-0.076l0,0l2.075,5.114
		l5.898,4.993l1.064,4.38l3.173,1.351l0.087,3.152l2.362,1.72l0.495,3.359l1.419,1.281l0.828,3.266l0.612,0.777l3.83,1.636
		l4.332,6.267l4.083,3.274l0.697,1.599l4.074-0.132l4.701,4.092l2.527,0.156l0.493,0.902l-0.642,2.751l0.94,0.613l8.769,0.588
		l5.596,2.194l3.479,2.285l3.309,0.643l0.615,0.818l-0.595,3.042l2.046,1.018l1.356,1.678l1.503-1.116l3.564,2.487l2.768-1.248
		l1.145,0.323l-1.248,2.636l2.173,1.385l0.801,3.573l2.786,1.504l0.999,2.544l1.104,0.28l0.789,1.722l2.753,2.205l-1.007,1.858
		l0.212,1.067l3.568,1.54l-0.231,1.934l4.277,3.265l0.258,1.563l1.316,0.896l0.969,3.41l3.757-0.646l-0.058,2.802l1.11,0.608
		l0.852,3.784l2.668,0.845l0.25,0.492l-1.012,1.326l1.926,0.315l0.68,2.591l2.137,0.889l-1.334,1.784l0.624,0.983l5.729,3.828
		l1.619,3.217l-2.295,0.753l-1.52-0.241l0,0l-5.664-2.292l-0.804,0.916l-0.99,0.038l-0.802-1.089l-1.858,0.021l-1.374-1.252
		l-2.505-0.439l-1.49,0.755l-3.935-1.15l-10.609,2.263l-3.799-0.554l-2.643,2.279l-3.093-1.49l-2.318,0.17l-1.192,0.902
		l-5.311-1.375l-8.97,3.106l-5.517-0.287l-2.187,0.771l-1.384-0.844l-1.347-2.355l-2.217-2.235l-6.178,0.356l-2.61,1.01
		l-5.702-4.851l-2.715-0.314l-0.673-2.221l-3.994-0.429l-3.698-3.078l-3.448,0.416l-2.06-1.74l-2.416-0.021l-2.163-0.851
		l-2.649-2.164l-8.452-0.234l-1.333-1.231l-2.387,0.944l-1.504,1.804l-2.513-1.329l-3.43,1.057l-0.946,2.277l-5.344-1.067
		l-3.721,0.722l-2.856,1.615l-2.075,0.405l-2.241-3.305l-3.931-3.435l-1.883-4.221l-1.348-1.256l-5.21,1.704l-3.318-0.221
		l-3.347-1.337l-4.333-3.573l-2.074-3.794l-0.677-4.308l1.465-6.279l3.123-3.799l-2.147-1.98l-2.84-0.846l-1.443-1.146l-4.794,0.045
		l-6.049-1.578l-2.657-1.782l-3.7-0.284l-2.051-1.79l-7.809-2.975l-1.756-2.292l-4.452-0.918l-1.83-1.345l-1.128,0.095l-0.668,1.089
		l-1.112-0.051l-1.545,1.361L273,532.484l-3.964-2.258l-3.829-0.72l-3.204-2.504l-0.97,0.603l-2.249-0.965l-4.292-0.479
		l-6.406,1.162l-7.524-2.185l-7.21-0.61l-2.592-4.117l0.533-0.755l-0.323-0.484l-1.633,0.397l-0.816-0.936l1.535-2.1l-2.039-0.975
		l-0.107-0.943l1.307-1.122l-1.746-2.358l0.333-1.445l-3.465-4.553l-0.302-3.811l-3.976-4.412l-1.033-2.405l-3.232-3.887
		l-0.148-1.616l-1.817-0.399l-1.708-1.691l-1.839-0.57l-2.165-3.002l-1.461-1.051l-1.626-3.671l1.38-2.266l-1.005-2.557l1.323-1.22
		l-0.432-0.933l0.939-1.783l-1.92-2.31l1.106-2.564l-1.051-2.943l1.95-2.735l0.722-4.153l0.799-0.677l-0.352-1.23l0.584-2.053
		l-0.679-2.724l0.459-1.259l-2.129-4.303l-0.092-5.474l1.449-1.792l0.621-3.402l-0.655-2.283l-3.199-2.572l-3.2,0.987l-1.82-1.583
		l-4.363,1.038l-8.038-1.949l-3.849,1.144l-3.578-0.131l-2.416-1l-5.246,2.422l-0.885-0.264l0.964-6.985l0.115-10.591l-1.389-6.571
		l-1.62-1.351l-1.618-6.037l-0.824-0.41l-1.476-3.309l-2.007-1.506l-5.135,0.422l-1.7-0.407l-1.929-3.862l-2.526-1.559l-7.397-0.22
		l-4.866-2.062l-1.706,0.174l-3.218-1.139l-3.548-0.32l-0.518-0.479l0.391-0.902l-1.17-1.605l-2.986-0.799l-3.373,0.386
		l-1.751-4.235l0,0l3.1-1.047l3.111-2.783l12.998-3.906l4.316-0.331l2.606,0.855l3.92-0.867l5.079-0.201l2.833-0.847l9.847,1.736
		l4.86-1.873l5.998,0.372l6.228,4.392l4.749,0.512l3.728,4.963l1.23,4.85l3.784,3.99l1.403,0.629l2.066,2.789l3.486,2.117
		l5.058,5.999l2.772,1.255l1.958,1.977l4.877,1.034l2.268-4.569l1.807-6.646l4.347,5.172l3.205-1.551l5.896-0.141l2.147-0.749
		l4.942,2.691l1.359,1.601l1.579,4.203l1.766,1.279l5.122,6.03l1.374,0.053l2.779,6.458l2.66-4.21l3.193,0.231l0.973-0.562
		l2.823-4.535l2.668-0.263l0,0l3.447,2.095l1.017-3.375l4.371,0.357l0.725,0.928l0,0l4.648,5.709l4.514-3.105l-0.74-1.058
		l3.12-3.328l2.446-6.365l6.658-5.957l-3.685-2.719l6.655-0.487l7.828-8.481l-2.964-10.856l7.521,2.765l4.283-3.444l-0.77-1.175
		l1.465-4.052l0.056-4.704l-3.735-3.101l-0.398-1.056l4.561-3.385l1.584-4.451l-0.959-2.03l-2.246-2.035l-0.116-1.418l2.256-1.003
		l4.101,0.867l1.725,1.385l1.167,0.167l1.33-0.846L334.001,337.926z"/>
	<path id="ZW-MV" fill="#1E3250" stroke="#1E3250" stroke-width="0.5" d="M471.047,319.381l1.234-1.341l2.281-1.064l-1.151-3.994
		l0.078-0.445l1.282-0.088l0.454-4.124l6.951,1.493l-0.228,7.194l0.691,1.208l8.1-1.227l9.749-0.638l0,0l13.245,8.382l2.923,3.169
		l4.46,0.242l3.787,1.098l4.095,3.479l1.878,2.732l2.207-0.305l5.521,1.48l1.582,4.679l1.451,0.47l2.114,1.96l1.726,3.017
		l5.385,3.058l1.783,4.313l3.224,3.486l1.906,1.111l2.275,4.714l3.419,2.836l1.002,2.622l2.251,2.607l1.46,0.751l3.504-0.005
		l3.181,2.797l1.946,0.826l5.799-0.12l3.596,3.438l4.107,2.374l4.253,1.48l0.651,2.87l-0.142,8.771l-1.317,5.868l-0.682,7.812
		l-1.551,6.487l-1.235,11.125l0.157,7.164l-1.594,4.016l-0.636,5.795l-2.471,2.359l-1.298,7.481l-5.695,11.426l-0.368,2.333
		l1.149,3.454l0.116,2.285l2.879,2.449l-0.105,3.515l4.328,1.692l1.689,1.526l1.712,5.206l0.204,2.532l2.023,4.344l3.643,1.578
		l5.521,5.581l0,0l-1.878,1.271l-85.253,93.644L508.205,600l-1.69-1.434l-1.556-3.313l-1.596-0.421l-3.043,0.523l-3.266-3.35
		l-1.529-0.248l-5.501,1.839l-1.907-0.653l0,0l1.52,0.241l2.295-0.753l-1.619-3.217l-5.729-3.828l-0.624-0.983l1.334-1.784
		l-2.137-0.889l-0.68-2.591l-1.926-0.315l1.012-1.326l-0.25-0.492l-2.668-0.845l-0.852-3.784l-1.11-0.608l0.058-2.802l-3.757,0.646
		l-0.969-3.41l-1.316-0.896l-0.258-1.563l-4.277-3.265l0.231-1.934l-3.568-1.54l-0.212-1.067l1.007-1.858l-2.753-2.205l-0.789-1.722
		l-1.104-0.28l-0.999-2.544l-2.786-1.504l-0.801-3.573l-2.173-1.385l1.248-2.636l-1.145-0.323l-2.768,1.248l-3.564-2.487
		l-1.503,1.116l-1.356-1.678l-2.046-1.018l0.595-3.042l-0.615-0.818l-3.309-0.643l-3.479-2.285l-5.596-2.194l-8.769-0.588
		l-0.94-0.613l0.642-2.751l-0.493-0.902l-2.527-0.156l-4.701-4.092l-4.074,0.132l-0.697-1.599l-4.083-3.274l-4.332-6.267
		l-3.83-1.636l-0.612-0.777l-0.828-3.266l-1.419-1.281l-0.495-3.359l-2.362-1.72l-0.087-3.152l-3.173-1.351l-1.064-4.38
		l-5.898-4.993l-2.075-5.114l0,0l1.666,0.941l3.778-0.204l9.813-8.834l3.975-1.761l1.542,0.039l3.58,3.062l3.048,1.385l3.015,3.553
		l3.617,0.729l1.263,1.347l3.05,0.812l1.744-0.291l2.115,0.526l3.447-0.991l6.667,1.327l3.805-2.753l3.832-5.043l0.629-11.974
		l2.345-9.194l0.4-0.817l1.86-0.824l0.156-1.021l-3.658-2.229l-1.726-4.765l0.053-5.79l-2.605-3.292l-1.351-3.011l-4.19-5.118
		l-1.859,0.087l-1.839-4.516l-4.94-1.858l-1.015-1.179l0.076-1.425l3.165-7.414l-1.582-1.787l-4.655-2.917l-1.333,0.043
		l-2.699,2.284l0.718-2.849l0.029-3.7l1.324-2.808l0.195-2.236l-0.409-1.381l-2.671-2.881l5.446-0.173l5.641-2.369l13.067-0.568
		l0.562-0.611l-1.257-1.418l0.192-1.949l2.412-1.592l0.597-1.666l-1.181-2.473l0.631-3.047l4.914-0.627l8.718,2.113l5.64-0.229
		l-0.752-4.42l2.416-13.394l-1.082-5.95l1.966-7.624l-0.271-5.02l3.371-0.907l0.874-1.503l-1.495-1.529l-4.547-0.746
		L471.047,319.381z"/>
	<path id="ZW-MW" fill="#1E3250" stroke="#1E3250" stroke-width="0.5" d="M390.534,1.156l2.758,0.083l2.711,1.671l13.248-1.956
		l3.471,0.044l4.162,3.565l3.646-3.087l1.665,1.404l0,0l0.202,5.108l2.445,1.862l0.791,1.307l0.082,1.548l-0.627,0.992l-2.833,2.264
		l-1.217,1.747l-3.779,2.187l-1.062,1.707l-6.063,4.886l-7.998,5.163l0.002,2.184l0.791,1.668l2.29,1.947l0.242,4.49l1.029,2.582
		l1.504,2.743l1.975,0.396l0.237,0.597l-0.55,1.63l-3.628,3.58l0.127,6.403l-2.84,3.621l-0.669,3.621l2.177,1.034l2.487-1.911
		l2.646-0.478l1.343-0.996l3.16-0.439l1.103-1.632l1.019-4.536l2.209-1.553l3.794,0.871l1.148,1.152l0.837,3.141l2.215,1.35
		l5.254-0.447l2.137,1.03l0.686,4.456l-1.728,3.943l-0.301,5.256l-2.516,5.38l-0.466,2.749l3.139,4.338l8.875,3.207l0.688,4.502
		l-1.021,2.514l2.458,0.751l0.758,1.314l-0.667,1.637l-2.297-0.114l-0.549,1.716l1.452,7.337l-0.385,2.754l1.719,3.667l0.22,5.508
		l0.558,0.638l3.528,0.03l1.513,1.152l3.716-2.447l1.278,1.992l1.545-0.405l3.494,1.026l-1.47,7.753l-3.818,6.527l-4.512,11.93
		l0.977,5.236l-0.903,2.284l-0.555,9.208l14.828-0.297l-1.239,6.132l5.86,2.256l6.028,3.616l1.976-2.213l2.227,0.028l1.041,1.156
		l0.66,3.323l0,0l-0.66,2.688l-2.217,1.774l-0.943,1.769l-2.663,0.695l-0.422,2.648l1.563,1.716l-1.576,2.615l2.799,1.59
		l1.246,1.998l-0.67,0.967l-3.102,1.019l0,0l-3.716-1.827l-3.504,0.378l-0.709,1.407l-0.021,3.33l-2.576,2.54l1.467,5.293
		l-2.691,3.948l-0.781,2.733l0.646,1.605l-0.193,1.165l-4.805,4.281l-0.108,2.09l0.896,3.252l6.636,8.334l-0.154,0.965l-1.826,1.86
		l-0.962,13.407l-3.774,4.446l-0.273,1.25l-1.789,2.063l-2.893,5.25l-0.849-1.487l-1.315,0.971l-1.886-1.241l0.352,6.448
		l-0.433,1.574l-3.591,2.876l-0.427,2.865l-2.084-0.315l-2.35,3.075l0,0l-3.327-0.473l-2.893-1.888l-4.936-2.044l-4.379-3.9
		l-3.482,0.572l-1.968-1.811l-2.444-0.64l-1.01-3.063l-1.684-0.723l-3.887-1.123l-4.763,0.207l-2.765-1.65l-2.08,0.768l-1.683-1.169
		l-4.004-0.4l-3.521,1.008l-2.481-0.283l-3.245-2.097l-1.56,0.323l-1.242-0.485l-3.123-3.669l-2.56,1.006l-1.841-2.823l-6.802,0.274
		l-1.28-0.606l-1.998-2.662l-3.321,0.154l-1.199-0.767l-0.678-2.419l0.963-3.38l-0.396-4.268l1.481-2.09l0.804-5.31l-2.755-2.54
		l-2.716-0.851l-7.74-5.127l-3.393-0.774l-2.587-4.229l-5.184-2.51l-3.493-7.125l-1.353-1.491l-1.897-6.193l1.092-5.535l3.844-6.327
		l0.205-2.486l1.958-2.32l0.364-2.485l2.436-2.839l-0.078-0.682l-1.59-1.248l0.1-1.548l2.617-2.612l0.492-6.77l-1.824-2.45
		l0.002-0.922l1.833-1.676l2.235-3.597l1.832-1.436l1.038-2.479l-3.853-1.653l-3.329-4.133l-3.611-2.173l-0.624-4.284l-1.785-1.207
		l-0.235-1.36l-5.282-0.261l-5.87-2.306l-2.501-0.331l-1.066-1.684l-7.056-3.114l-1.461-1.646l-2.36-5.249l-0.552-0.682
		l-1.152,0.113l-2.944,1.582l-7.264,0.197l-3.499,1.457l-3.512,3.375l-2.66,0.103l-3.287,5.375l-0.774,3.275l-1.672,0.507
		l-2.763,3.78l-1.596,1.069l-1.493,3.67l-0.637,0.076l-5.934-4.008l-4.935,1.201l-4.294,0.324l-2.795,1.698l-2.577-0.704
		l-2.745,0.416l0,0l-2.707-4.385l-2.219-0.661l-0.937-2.008l-1.618-1.255l-0.058-2.641l-1.593-4.293l0.414-1.795l-1.452-2.131
		l-0.088-3.559l-3.252-0.27l-1.36-3.339l-2.924,0.99l-1.079-0.163l1.969-2.114l-0.392-2.002l0.841-0.116l-1.055-3.042l-1.454-1.571
		l-0.579-1.763l0.98-3.224l-0.319-4.274l-1.153-1.615l0,0l10.095-4.734l11.206-9.264l31.189-12.732l7.824-1.46l1.012-1.376
		l4.546-3.004l1.469-2.116l-0.041-3.225l1.658-2.439l0.838-3.131l-0.725-1.549l0.257-1.978l-1.814-1.377l0.597-2.564l2.499-3.458
		l-0.121-0.673l-1.49-0.609l-0.377-1.261l0.556-5.126l1.8-3.493l-1.327-2.423l0.948-2.095l-1.21-1.214l3.455-4.937l2.231-4.601
		l1.951-0.65l6.717,0.208l0.887-0.431l3.252-4.918l10.944-7.709l1.498-1.732l4.407-1.069l8.041-4.19l3.138,0.182l2.88-1.997
		l5.549-0.319l3.726-3.401l2.691-0.348l2.768,1.654l1.588,0.05l7.248-1.685l6.77-2.729l6.746,0.145L390.534,1.156z"/>
</g>
</svg>
